<?xml version="1.0" encoding="UTF-8" standalone="no"?>
<!DOCTYPE svg PUBLIC "-//W3C//DTD SVG 1.1//EN"
 "http://www.w3.org/Graphics/SVG/1.1/DTD/svg11.dtd">
<!-- Generated by graphviz version 12.2.0 (20241103.1931)
 -->
<!-- Title: ArgParser.h Pages: 1 -->
<svg width="949pt" height="138pt"
 viewBox="0.00 0.00 948.88 137.75" xmlns="http://www.w3.org/2000/svg" xmlns:xlink="http://www.w3.org/1999/xlink">
<g id="graph0" class="graph" transform="scale(1 1) rotate(0) translate(4 133.75)">
<title>ArgParser.h</title>
<!-- Node1 -->
<g id="Node000001" class="node">
<title>Node1</title>
<g id="a_Node000001"><a xlink:title=" ">
<polygon fill="#999999" stroke="#666666" points="302.25,-129.75 235.25,-129.75 235.25,-110.5 302.25,-110.5 302.25,-129.75"/>
<text text-anchor="middle" x="268.75" y="-116.25" font-family="Helvetica,sans-Serif" font-size="10.00">ArgParser.h</text>
</a>
</g>
</g>
<!-- Node2 -->
<g id="Node000002" class="node">
<title>Node2</title>
<g id="a_Node000002"><a xlink:title=" ">
<polygon fill="#e0e0e0" stroke="#999999" points="53.5,-19.25 0,-19.25 0,0 53.5,0 53.5,-19.25"/>
<text text-anchor="middle" x="26.75" y="-5.75" font-family="Helvetica,sans-Serif" font-size="10.00">iostream</text>
</a>
</g>
</g>
<!-- Node1&#45;&gt;Node2 -->
<g id="edge1_Node000001_Node000002" class="edge">
<title>Node1&#45;&gt;Node2</title>
<g id="a_edge1_Node000001_Node000002"><a xlink:title=" ">
<path fill="none" stroke="#63b8ff" d="M248.44,-110.08C228.23,-101.08 196.34,-86.86 168.75,-74.5 130.25,-57.25 85.92,-37.29 57.17,-24.34"/>
<polygon fill="#63b8ff" stroke="#63b8ff" points="58.9,-21.28 48.34,-20.36 56.02,-27.66 58.9,-21.28"/>
</a>
</g>
</g>
<!-- Node3 -->
<g id="Node000003" class="node">
<title>Node3</title>
<g id="a_Node000003"><a xlink:title=" ">
<polygon fill="#e0e0e0" stroke="#999999" points="427.25,-74.5 378.25,-74.5 378.25,-55.25 427.25,-55.25 427.25,-74.5"/>
<text text-anchor="middle" x="402.75" y="-61" font-family="Helvetica,sans-Serif" font-size="10.00">fstream</text>
</a>
</g>
</g>
<!-- Node1&#45;&gt;Node3 -->
<g id="edge2_Node000001_Node000003" class="edge">
<title>Node1&#45;&gt;Node3</title>
<g id="a_edge2_Node000001_Node000003"><a xlink:title=" ">
<path fill="none" stroke="#63b8ff" d="M291.48,-110.09C312.85,-101.6 345.09,-88.79 369.38,-79.14"/>
<polygon fill="#63b8ff" stroke="#63b8ff" points="370.5,-82.46 378.5,-75.51 367.91,-75.95 370.5,-82.46"/>
</a>
</g>
</g>
<!-- Node4 -->
<g id="Node000004" class="node">
<title>Node4</title>
<g id="a_Node000004"><a xlink:title=" ">
<polygon fill="#e0e0e0" stroke="#999999" points="122.38,-19.25 71.12,-19.25 71.12,0 122.38,0 122.38,-19.25"/>
<text text-anchor="middle" x="96.75" y="-5.75" font-family="Helvetica,sans-Serif" font-size="10.00">sstream</text>
</a>
</g>
</g>
<!-- Node1&#45;&gt;Node4 -->
<g id="edge3_Node000001_Node000004" class="edge">
<title>Node1&#45;&gt;Node4</title>
<g id="a_edge3_Node000001_Node000004"><a xlink:title=" ">
<path fill="none" stroke="#63b8ff" d="M254.38,-110.06C224.71,-91.35 156.44,-48.28 120.25,-25.45"/>
<polygon fill="#63b8ff" stroke="#63b8ff" points="122.56,-22.77 112.24,-20.39 118.83,-28.69 122.56,-22.77"/>
</a>
</g>
</g>
<!-- Node5 -->
<g id="Node000005" class="node">
<title>Node5</title>
<g id="a_Node000005"><a xlink:title=" ">
<polygon fill="#e0e0e0" stroke="#999999" points="198.75,-19.25 140.75,-19.25 140.75,0 198.75,0 198.75,-19.25"/>
<text text-anchor="middle" x="169.75" y="-5.75" font-family="Helvetica,sans-Serif" font-size="10.00">stdexcept</text>
</a>
</g>
</g>
<!-- Node1&#45;&gt;Node5 -->
<g id="edge4_Node000001_Node000005" class="edge">
<title>Node1&#45;&gt;Node5</title>
<g id="a_edge4_Node000001_Node000005"><a xlink:title=" ">
<path fill="none" stroke="#63b8ff" d="M260.65,-110.25C244.26,-92.28 206.92,-51.36 185.54,-27.94"/>
<polygon fill="#63b8ff" stroke="#63b8ff" points="188.31,-25.77 178.98,-20.74 183.14,-30.49 188.31,-25.77"/>
</a>
</g>
</g>
<!-- Node6 -->
<g id="Node000006" class="node">
<title>Node6</title>
<g id="a_Node000006"><a xlink:title=" ">
<polygon fill="#e0e0e0" stroke="#999999" points="256.75,-19.25 216.75,-19.25 216.75,0 256.75,0 256.75,-19.25"/>
<text text-anchor="middle" x="236.75" y="-5.75" font-family="Helvetica,sans-Serif" font-size="10.00">string</text>
</a>
</g>
</g>
<!-- Node1&#45;&gt;Node6 -->
<g id="edge5_Node000001_Node000006" class="edge">
<title>Node1&#45;&gt;Node6</title>
<g id="a_edge5_Node000001_Node000006"><a xlink:title=" ">
<path fill="none" stroke="#63b8ff" d="M266.13,-110.25C261.02,-92.92 249.61,-54.23 242.61,-30.49"/>
<polygon fill="#63b8ff" stroke="#63b8ff" points="246.02,-29.68 239.83,-21.08 239.3,-31.66 246.02,-29.68"/>
</a>
</g>
</g>
<!-- Node7 -->
<g id="Node000007" class="node">
<title>Node7</title>
<g id="a_Node000007"><a xlink:title=" ">
<polygon fill="#e0e0e0" stroke="#999999" points="488.25,-74.5 445.25,-74.5 445.25,-55.25 488.25,-55.25 488.25,-74.5"/>
<text text-anchor="middle" x="466.75" y="-61" font-family="Helvetica,sans-Serif" font-size="10.00">vector</text>
</a>
</g>
</g>
<!-- Node1&#45;&gt;Node7 -->
<g id="edge6_Node000001_Node000007" class="edge">
<title>Node1&#45;&gt;Node7</title>
<g id="a_edge6_Node000001_Node000007"><a xlink:title=" ">
<path fill="none" stroke="#63b8ff" d="M302.59,-110.35C334.3,-102.08 383.3,-89.19 433.98,-75.23"/>
<polygon fill="#63b8ff" stroke="#63b8ff" points="434.64,-78.68 443.35,-72.64 432.78,-71.93 434.64,-78.68"/>
</a>
</g>
</g>
<!-- Node8 -->
<g id="Node000008" class="node">
<title>Node8</title>
<g id="a_Node000008"><a xlink:title=" ">
<polygon fill="#e0e0e0" stroke="#999999" points="561.62,-74.5 505.88,-74.5 505.88,-55.25 561.62,-55.25 561.62,-74.5"/>
<text text-anchor="middle" x="533.75" y="-61" font-family="Helvetica,sans-Serif" font-size="10.00">algorithm</text>
</a>
</g>
</g>
<!-- Node1&#45;&gt;Node8 -->
<g id="edge7_Node000001_Node000008" class="edge">
<title>Node1&#45;&gt;Node8</title>
<g id="a_edge7_Node000001_Node000008"><a xlink:title=" ">
<path fill="none" stroke="#63b8ff" d="M302.6,-113C345.27,-105.17 421.14,-90.91 494.65,-75.11"/>
<polygon fill="#63b8ff" stroke="#63b8ff" points="494.96,-78.62 504,-73.09 493.48,-71.78 494.96,-78.62"/>
</a>
</g>
</g>
<!-- Node9 -->
<g id="Node000009" class="node">
<title>Node9</title>
<g id="a_Node000009"><a xlink:href="_globals_8h.html" target="_top" xlink:title=" ">
<polygon fill="white" stroke="#666666" points="360,-74.5 303.5,-74.5 303.5,-55.25 360,-55.25 360,-74.5"/>
<text text-anchor="middle" x="331.75" y="-61" font-family="Helvetica,sans-Serif" font-size="10.00">Globals.h</text>
</a>
</g>
</g>
<!-- Node1&#45;&gt;Node9 -->
<g id="edge8_Node000001_Node000009" class="edge">
<title>Node1&#45;&gt;Node9</title>
<g id="a_edge8_Node000001_Node000009"><a xlink:title=" ">
<path fill="none" stroke="#63b8ff" d="M279.44,-110.09C288.45,-102.47 301.58,-91.37 312.43,-82.2"/>
<polygon fill="#63b8ff" stroke="#63b8ff" points="314.69,-84.88 320.06,-75.75 310.17,-79.53 314.69,-84.88"/>
</a>
</g>
</g>
<!-- Node9&#45;&gt;Node2 -->
<g id="edge9_Node000009_Node000002" class="edge">
<title>Node9&#45;&gt;Node2</title>
<g id="a_edge9_Node000009_Node000002"><a xlink:title=" ">
<path fill="none" stroke="#63b8ff" d="M303.24,-59.91C255.77,-53.14 157.33,-38.44 65.05,-19.81"/>
<polygon fill="#63b8ff" stroke="#63b8ff" points="65.82,-16.39 55.32,-17.82 64.42,-23.25 65.82,-16.39"/>
</a>
</g>
</g>
<!-- Node9&#45;&gt;Node4 -->
<g id="edge17_Node000009_Node000004" class="edge">
<title>Node9&#45;&gt;Node4</title>
<g id="a_edge17_Node000009_Node000004"><a xlink:title=" ">
<path fill="none" stroke="#63b8ff" d="M303.22,-57.72C266.43,-49.73 200.17,-35.2 133.81,-19.69"/>
<polygon fill="#63b8ff" stroke="#63b8ff" points="134.74,-16.32 124.2,-17.44 133.14,-23.13 134.74,-16.32"/>
</a>
</g>
</g>
<!-- Node9&#45;&gt;Node5 -->
<g id="edge11_Node000009_Node000005" class="edge">
<title>Node9&#45;&gt;Node5</title>
<g id="a_edge11_Node000009_Node000005"><a xlink:title=" ">
<path fill="none" stroke="#63b8ff" d="M304.27,-54.84C277.85,-46.16 237.69,-32.96 208.13,-23.24"/>
<polygon fill="#63b8ff" stroke="#63b8ff" points="209.4,-19.97 198.8,-20.18 207.21,-26.62 209.4,-19.97"/>
</a>
</g>
</g>
<!-- Node9&#45;&gt;Node6 -->
<g id="edge12_Node000009_Node000006" class="edge">
<title>Node9&#45;&gt;Node6</title>
<g id="a_edge12_Node000009_Node000006"><a xlink:title=" ">
<path fill="none" stroke="#63b8ff" d="M315.63,-54.84C301.17,-46.73 279.67,-34.68 262.77,-25.21"/>
<polygon fill="#63b8ff" stroke="#63b8ff" points="264.7,-22.28 254.26,-20.44 261.28,-28.39 264.7,-22.28"/>
</a>
</g>
</g>
<!-- Node10 -->
<g id="Node000010" class="node">
<title>Node10</title>
<g id="a_Node000010"><a xlink:title=" ">
<polygon fill="#e0e0e0" stroke="#999999" points="880.62,-19.25 830.88,-19.25 830.88,0 880.62,0 880.62,-19.25"/>
<text text-anchor="middle" x="855.75" y="-5.75" font-family="Helvetica,sans-Serif" font-size="10.00">iomanip</text>
</a>
</g>
</g>
<!-- Node9&#45;&gt;Node10 -->
<g id="edge10_Node000009_Node000010" class="edge">
<title>Node9&#45;&gt;Node10</title>
<g id="a_edge10_Node000009_Node000010"><a xlink:title=" ">
<path fill="none" stroke="#63b8ff" d="M360.3,-56.93C363.48,-56.3 366.67,-55.72 369.75,-55.25 565.37,-25.42 620.93,-51.18 819.49,-19.33"/>
<polygon fill="#63b8ff" stroke="#63b8ff" points="819.8,-22.82 829.11,-17.75 818.67,-15.91 819.8,-22.82"/>
</a>
</g>
</g>
<!-- Node11 -->
<g id="Node000011" class="node">
<title>Node11</title>
<g id="a_Node000011"><a xlink:title=" ">
<polygon fill="#e0e0e0" stroke="#999999" points="940.88,-19.25 898.62,-19.25 898.62,0 940.88,0 940.88,-19.25"/>
<text text-anchor="middle" x="919.75" y="-5.75" font-family="Helvetica,sans-Serif" font-size="10.00">cstdio</text>
</a>
</g>
</g>
<!-- Node9&#45;&gt;Node11 -->
<g id="edge13_Node000009_Node000011" class="edge">
<title>Node9&#45;&gt;Node11</title>
<g id="a_edge13_Node000009_Node000011"><a xlink:title=" ">
<path fill="none" stroke="#63b8ff" d="M360.29,-56.9C363.47,-56.27 366.67,-55.7 369.75,-55.25 595.25,-22.05 659.54,-58.27 886.94,-19.37"/>
<polygon fill="#63b8ff" stroke="#63b8ff" points="887.51,-22.82 896.76,-17.65 886.3,-15.93 887.51,-22.82"/>
</a>
</g>
</g>
<!-- Node12 -->
<g id="Node000012" class="node">
<title>Node12</title>
<g id="a_Node000012"><a xlink:title=" ">
<polygon fill="#e0e0e0" stroke="#999999" points="319,-19.25 274.5,-19.25 274.5,0 319,0 319,-19.25"/>
<text text-anchor="middle" x="296.75" y="-5.75" font-family="Helvetica,sans-Serif" font-size="10.00">cstdlib</text>
</a>
</g>
</g>
<!-- Node9&#45;&gt;Node12 -->
<g id="edge14_Node000009_Node000012" class="edge">
<title>Node9&#45;&gt;Node12</title>
<g id="a_edge14_Node000009_Node000012"><a xlink:title=" ">
<path fill="none" stroke="#63b8ff" d="M325.97,-55.08C321.34,-48.03 314.68,-37.9 308.88,-29.08"/>
<polygon fill="#63b8ff" stroke="#63b8ff" points="311.9,-27.31 303.49,-20.87 306.05,-31.15 311.9,-27.31"/>
</a>
</g>
</g>
<!-- Node13 -->
<g id="Node000013" class="node">
<title>Node13</title>
<g id="a_Node000013"><a xlink:title=" ">
<polygon fill="#e0e0e0" stroke="#999999" points="396.5,-19.25 337,-19.25 337,0 396.5,0 396.5,-19.25"/>
<text text-anchor="middle" x="366.75" y="-5.75" font-family="Helvetica,sans-Serif" font-size="10.00">execinfo.h</text>
</a>
</g>
</g>
<!-- Node9&#45;&gt;Node13 -->
<g id="edge15_Node000009_Node000013" class="edge">
<title>Node9&#45;&gt;Node13</title>
<g id="a_edge15_Node000009_Node000013"><a xlink:title=" ">
<path fill="none" stroke="#63b8ff" d="M337.53,-55.08C342.16,-48.03 348.82,-37.9 354.62,-29.08"/>
<polygon fill="#63b8ff" stroke="#63b8ff" points="357.45,-31.15 360.01,-20.87 351.6,-27.31 357.45,-31.15"/>
</a>
</g>
</g>
<!-- Node14 -->
<g id="Node000014" class="node">
<title>Node14</title>
<g id="a_Node000014"><a xlink:title=" ">
<polygon fill="#e0e0e0" stroke="#999999" points="465,-19.25 414.5,-19.25 414.5,0 465,0 465,-19.25"/>
<text text-anchor="middle" x="439.75" y="-5.75" font-family="Helvetica,sans-Serif" font-size="10.00">cxxabi.h</text>
</a>
</g>
</g>
<!-- Node9&#45;&gt;Node14 -->
<g id="edge16_Node000009_Node000014" class="edge">
<title>Node9&#45;&gt;Node14</title>
<g id="a_edge16_Node000009_Node000014"><a xlink:title=" ">
<path fill="none" stroke="#63b8ff" d="M350.07,-54.84C366.83,-46.58 391.88,-34.23 411.25,-24.68"/>
<polygon fill="#63b8ff" stroke="#63b8ff" points="412.56,-27.93 419.98,-20.37 409.47,-21.65 412.56,-27.93"/>
</a>
</g>
</g>
<!-- Node15 -->
<g id="Node000015" class="node">
<title>Node15</title>
<g id="a_Node000015"><a xlink:title=" ">
<polygon fill="#e0e0e0" stroke="#999999" points="520.25,-19.25 483.25,-19.25 483.25,0 520.25,0 520.25,-19.25"/>
<text text-anchor="middle" x="501.75" y="-5.75" font-family="Helvetica,sans-Serif" font-size="10.00">array</text>
</a>
</g>
</g>
<!-- Node9&#45;&gt;Node15 -->
<g id="edge18_Node000009_Node000015" class="edge">
<title>Node9&#45;&gt;Node15</title>
<g id="a_edge18_Node000009_Node000015"><a xlink:title=" ">
<path fill="none" stroke="#63b8ff" d="M360.2,-54.96C391.35,-45.21 441.04,-29.64 472.5,-19.79"/>
<polygon fill="#63b8ff" stroke="#63b8ff" points="473.26,-23.22 481.75,-16.89 471.16,-16.54 473.26,-23.22"/>
</a>
</g>
</g>
<!-- Node16 -->
<g id="Node000016" class="node">
<title>Node16</title>
<g id="a_Node000016"><a xlink:title=" ">
<polygon fill="#e0e0e0" stroke="#999999" points="589,-19.25 538.5,-19.25 538.5,0 589,0 589,-19.25"/>
<text text-anchor="middle" x="563.75" y="-5.75" font-family="Helvetica,sans-Serif" font-size="10.00">memory</text>
</a>
</g>
</g>
<!-- Node9&#45;&gt;Node16 -->
<g id="edge19_Node000009_Node000016" class="edge">
<title>Node9&#45;&gt;Node16</title>
<g id="a_edge19_Node000009_Node000016"><a xlink:title=" ">
<path fill="none" stroke="#63b8ff" d="M360.38,-57.37C363.54,-56.65 366.71,-55.94 369.75,-55.25 437.37,-39.97 456.98,-36.53 526.96,-19.87"/>
<polygon fill="#63b8ff" stroke="#63b8ff" points="527.76,-23.28 536.68,-17.55 526.14,-16.47 527.76,-23.28"/>
</a>
</g>
</g>
<!-- Node17 -->
<g id="Node000017" class="node">
<title>Node17</title>
<g id="a_Node000017"><a xlink:title=" ">
<polygon fill="#e0e0e0" stroke="#999999" points="656.62,-19.25 606.88,-19.25 606.88,0 656.62,0 656.62,-19.25"/>
<text text-anchor="middle" x="631.75" y="-5.75" font-family="Helvetica,sans-Serif" font-size="10.00">unistd.h</text>
</a>
</g>
</g>
<!-- Node9&#45;&gt;Node17 -->
<g id="edge20_Node000009_Node000017" class="edge">
<title>Node9&#45;&gt;Node17</title>
<g id="a_edge20_Node000009_Node000017"><a xlink:title=" ">
<path fill="none" stroke="#63b8ff" d="M360.34,-57.17C363.51,-56.49 366.69,-55.84 369.75,-55.25 466.95,-36.57 495.28,-39.63 595.33,-19.58"/>
<polygon fill="#63b8ff" stroke="#63b8ff" points="595.97,-23.02 605.08,-17.59 594.58,-16.16 595.97,-23.02"/>
</a>
</g>
</g>
<!-- Node18 -->
<g id="Node000018" class="node">
<title>Node18</title>
<g id="a_Node000018"><a xlink:title=" ">
<polygon fill="#e0e0e0" stroke="#999999" points="734.5,-19.25 675,-19.25 675,0 734.5,0 734.5,-19.25"/>
<text text-anchor="middle" x="704.75" y="-5.75" font-family="Helvetica,sans-Serif" font-size="10.00">sys/wait.h</text>
</a>
</g>
</g>
<!-- Node9&#45;&gt;Node18 -->
<g id="edge21_Node000009_Node000018" class="edge">
<title>Node9&#45;&gt;Node18</title>
<g id="a_edge21_Node000009_Node000018"><a xlink:title=" ">
<path fill="none" stroke="#63b8ff" d="M360.32,-57.06C363.49,-56.4 366.68,-55.78 369.75,-55.25 496.75,-33.17 533.15,-41.11 663.36,-19.5"/>
<polygon fill="#63b8ff" stroke="#63b8ff" points="663.8,-22.97 673.08,-17.85 662.64,-16.07 663.8,-22.97"/>
</a>
</g>
</g>
<!-- Node19 -->
<g id="Node000019" class="node">
<title>Node19</title>
<g id="a_Node000019"><a xlink:title=" ">
<polygon fill="#e0e0e0" stroke="#999999" points="812.88,-19.25 752.62,-19.25 752.62,0 812.88,0 812.88,-19.25"/>
<text text-anchor="middle" x="782.75" y="-5.75" font-family="Helvetica,sans-Serif" font-size="10.00">sys/prctl.h</text>
</a>
</g>
</g>
<!-- Node9&#45;&gt;Node19 -->
<g id="edge22_Node000009_Node000019" class="edge">
<title>Node9&#45;&gt;Node19</title>
<g id="a_edge22_Node000009_Node000019"><a xlink:title=" ">
<path fill="none" stroke="#63b8ff" d="M360.31,-56.98C363.48,-56.34 366.68,-55.74 369.75,-55.25 531.08,-29.29 576.85,-44.63 741.16,-19.48"/>
<polygon fill="#63b8ff" stroke="#63b8ff" points="741.32,-22.99 750.66,-17.99 740.24,-16.08 741.32,-22.99"/>
</a>
</g>
</g>
</g>
</svg>
