<?xml version="1.0" encoding="UTF-8" standalone="no"?>
<!DOCTYPE svg PUBLIC "-//W3C//DTD SVG 1.1//EN"
 "http://www.w3.org/Graphics/SVG/1.1/DTD/svg11.dtd">
<!-- Generated by graphviz version 12.2.0 (20241103.1931)
 -->
<!-- Title: GCanvas.h Pages: 1 -->
<svg width="693pt" height="138pt"
 viewBox="0.00 0.00 692.88 137.75" xmlns="http://www.w3.org/2000/svg" xmlns:xlink="http://www.w3.org/1999/xlink">
<g id="graph0" class="graph" transform="scale(1 1) rotate(0) translate(4 133.75)">
<title>GCanvas.h</title>
<!-- Node1 -->
<g id="Node000001" class="node">
<title>Node1</title>
<g id="a_Node000001"><a xlink:title=" ">
<polygon fill="#999999" stroke="#666666" points="447.12,-129.75 383.12,-129.75 383.12,-110.5 447.12,-110.5 447.12,-129.75"/>
<text text-anchor="middle" x="415.12" y="-116.25" font-family="Helvetica,sans-Serif" font-size="10.00">GCanvas.h</text>
</a>
</g>
</g>
<!-- Node2 -->
<g id="Node000002" class="node">
<title>Node2</title>
<g id="a_Node000002"><a xlink:href="_g_h2_base_8h.html" target="_top" xlink:title=" ">
<polygon fill="white" stroke="#666666" points="159.25,-74.5 93,-74.5 93,-55.25 159.25,-55.25 159.25,-74.5"/>
<text text-anchor="middle" x="126.12" y="-61" font-family="Helvetica,sans-Serif" font-size="10.00">GH2Base.h</text>
</a>
</g>
</g>
<!-- Node1&#45;&gt;Node2 -->
<g id="edge1_Node000001_Node000002" class="edge">
<title>Node1&#45;&gt;Node2</title>
<g id="a_edge1_Node000001_Node000002"><a xlink:title=" ">
<path fill="none" stroke="#63b8ff" d="M382.71,-113.52C337.54,-105.66 252.8,-90.71 170.86,-74.99"/>
<polygon fill="#63b8ff" stroke="#63b8ff" points="171.55,-71.56 161.07,-73.11 170.23,-78.43 171.55,-71.56"/>
</a>
</g>
</g>
<!-- Node7 -->
<g id="Node000007" class="node">
<title>Node7</title>
<g id="a_Node000007"><a xlink:title=" ">
<polygon fill="#e0e0e0" stroke="#999999" points="234.75,-74.5 177.5,-74.5 177.5,-55.25 234.75,-55.25 234.75,-74.5"/>
<text text-anchor="middle" x="206.12" y="-61" font-family="Helvetica,sans-Serif" font-size="10.00">TROOT.h</text>
</a>
</g>
</g>
<!-- Node1&#45;&gt;Node7 -->
<g id="edge6_Node000001_Node000007" class="edge">
<title>Node1&#45;&gt;Node7</title>
<g id="a_edge6_Node000001_Node000007"><a xlink:title=" ">
<path fill="none" stroke="#63b8ff" d="M382.93,-110.92C346.14,-101.55 285.9,-86.2 246.13,-76.07"/>
<polygon fill="#63b8ff" stroke="#63b8ff" points="247.01,-72.68 236.46,-73.6 245.29,-79.46 247.01,-72.68"/>
</a>
</g>
</g>
<!-- Node8 -->
<g id="Node000008" class="node">
<title>Node8</title>
<g id="a_Node000008"><a xlink:title=" ">
<polygon fill="#e0e0e0" stroke="#999999" points="315.38,-74.5 252.88,-74.5 252.88,-55.25 315.38,-55.25 315.38,-74.5"/>
<text text-anchor="middle" x="284.12" y="-61" font-family="Helvetica,sans-Serif" font-size="10.00">TCanvas.h</text>
</a>
</g>
</g>
<!-- Node1&#45;&gt;Node8 -->
<g id="edge7_Node000001_Node000008" class="edge">
<title>Node1&#45;&gt;Node8</title>
<g id="a_edge7_Node000001_Node000008"><a xlink:title=" ">
<path fill="none" stroke="#63b8ff" d="M392.9,-110.09C372.11,-101.64 340.78,-88.9 317.07,-79.27"/>
<polygon fill="#63b8ff" stroke="#63b8ff" points="318.44,-76.05 307.86,-75.52 315.8,-82.53 318.44,-76.05"/>
</a>
</g>
</g>
<!-- Node9 -->
<g id="Node000009" class="node">
<title>Node9</title>
<g id="a_Node000009"><a xlink:title=" ">
<polygon fill="#e0e0e0" stroke="#999999" points="416.5,-74.5 333.75,-74.5 333.75,-55.25 416.5,-55.25 416.5,-74.5"/>
<text text-anchor="middle" x="375.12" y="-61" font-family="Helvetica,sans-Serif" font-size="10.00">TRootCanvas.h</text>
</a>
</g>
</g>
<!-- Node1&#45;&gt;Node9 -->
<g id="edge8_Node000001_Node000009" class="edge">
<title>Node1&#45;&gt;Node9</title>
<g id="a_edge8_Node000001_Node000009"><a xlink:title=" ">
<path fill="none" stroke="#63b8ff" d="M408.52,-110.33C403.17,-103.21 395.45,-92.93 388.78,-84.05"/>
<polygon fill="#63b8ff" stroke="#63b8ff" points="391.59,-81.96 382.78,-76.07 385.99,-86.17 391.59,-81.96"/>
</a>
</g>
</g>
<!-- Node10 -->
<g id="Node000010" class="node">
<title>Node10</title>
<g id="a_Node000010"><a xlink:title=" ">
<polygon fill="#e0e0e0" stroke="#999999" points="477.25,-74.5 435,-74.5 435,-55.25 477.25,-55.25 477.25,-74.5"/>
<text text-anchor="middle" x="456.12" y="-61" font-family="Helvetica,sans-Serif" font-size="10.00">TH1.h</text>
</a>
</g>
</g>
<!-- Node1&#45;&gt;Node10 -->
<g id="edge9_Node000001_Node000010" class="edge">
<title>Node1&#45;&gt;Node10</title>
<g id="a_edge9_Node000001_Node000010"><a xlink:title=" ">
<path fill="none" stroke="#63b8ff" d="M421.9,-110.33C427.44,-103.13 435.47,-92.71 442.35,-83.76"/>
<polygon fill="#63b8ff" stroke="#63b8ff" points="444.96,-86.12 448.28,-76.06 439.41,-81.85 444.96,-86.12"/>
</a>
</g>
</g>
<!-- Node11 -->
<g id="Node000011" class="node">
<title>Node11</title>
<g id="a_Node000011"><a xlink:title=" ">
<polygon fill="#e0e0e0" stroke="#999999" points="543.25,-74.5 495,-74.5 495,-55.25 543.25,-55.25 543.25,-74.5"/>
<text text-anchor="middle" x="519.12" y="-61" font-family="Helvetica,sans-Serif" font-size="10.00">TLine.h</text>
</a>
</g>
</g>
<!-- Node1&#45;&gt;Node11 -->
<g id="edge10_Node000001_Node000011" class="edge">
<title>Node1&#45;&gt;Node11</title>
<g id="a_edge10_Node000001_Node000011"><a xlink:title=" ">
<path fill="none" stroke="#63b8ff" d="M432.77,-110.09C448.75,-101.91 472.58,-89.71 491.16,-80.19"/>
<polygon fill="#63b8ff" stroke="#63b8ff" points="492.74,-83.32 500.05,-75.64 489.55,-77.08 492.74,-83.32"/>
</a>
</g>
</g>
<!-- Node12 -->
<g id="Node000012" class="node">
<title>Node12</title>
<g id="a_Node000012"><a xlink:title=" ">
<polygon fill="#e0e0e0" stroke="#999999" points="613.12,-74.5 561.12,-74.5 561.12,-55.25 613.12,-55.25 613.12,-74.5"/>
<text text-anchor="middle" x="587.12" y="-61" font-family="Helvetica,sans-Serif" font-size="10.00">TCutG.h</text>
</a>
</g>
</g>
<!-- Node1&#45;&gt;Node12 -->
<g id="edge11_Node000001_Node000012" class="edge">
<title>Node1&#45;&gt;Node12</title>
<g id="a_edge11_Node000001_Node000012"><a xlink:title=" ">
<path fill="none" stroke="#63b8ff" d="M444.3,-110.09C473.45,-101.07 518.37,-87.16 550.03,-77.36"/>
<polygon fill="#63b8ff" stroke="#63b8ff" points="550.67,-80.83 559.19,-74.52 548.6,-74.14 550.67,-80.83"/>
</a>
</g>
</g>
<!-- Node13 -->
<g id="Node000013" class="node">
<title>Node13</title>
<g id="a_Node000013"><a xlink:title=" ">
<polygon fill="#e0e0e0" stroke="#999999" points="684.88,-74.5 631.38,-74.5 631.38,-55.25 684.88,-55.25 684.88,-74.5"/>
<text text-anchor="middle" x="658.12" y="-61" font-family="Helvetica,sans-Serif" font-size="10.00">iostream</text>
</a>
</g>
</g>
<!-- Node1&#45;&gt;Node13 -->
<g id="edge12_Node000001_Node000013" class="edge">
<title>Node1&#45;&gt;Node13</title>
<g id="a_edge12_Node000001_Node000013"><a xlink:title=" ">
<path fill="none" stroke="#63b8ff" d="M447.44,-112.4C486.07,-104.3 552.94,-90.13 619.84,-74.98"/>
<polygon fill="#63b8ff" stroke="#63b8ff" points="620.56,-78.4 629.54,-72.78 619.01,-71.58 620.56,-78.4"/>
</a>
</g>
</g>
<!-- Node3 -->
<g id="Node000003" class="node">
<title>Node3</title>
<g id="a_Node000003"><a xlink:title=" ">
<polygon fill="#e0e0e0" stroke="#999999" points="42.25,-19.25 0,-19.25 0,0 42.25,0 42.25,-19.25"/>
<text text-anchor="middle" x="21.12" y="-5.75" font-family="Helvetica,sans-Serif" font-size="10.00">cstdio</text>
</a>
</g>
</g>
<!-- Node2&#45;&gt;Node3 -->
<g id="edge2_Node000002_Node000003" class="edge">
<title>Node2&#45;&gt;Node3</title>
<g id="a_edge2_Node000002_Node000003"><a xlink:title=" ">
<path fill="none" stroke="#63b8ff" d="M108.31,-54.84C92.1,-46.62 67.89,-34.34 49.09,-24.81"/>
<polygon fill="#63b8ff" stroke="#63b8ff" points="50.88,-21.79 40.37,-20.39 47.71,-28.03 50.88,-21.79"/>
</a>
</g>
</g>
<!-- Node4 -->
<g id="Node000004" class="node">
<title>Node4</title>
<g id="a_Node000004"><a xlink:title=" ">
<polygon fill="#e0e0e0" stroke="#999999" points="121.62,-19.25 60.62,-19.25 60.62,0 121.62,0 121.62,-19.25"/>
<text text-anchor="middle" x="91.12" y="-5.75" font-family="Helvetica,sans-Serif" font-size="10.00">TNamed.h</text>
</a>
</g>
</g>
<!-- Node2&#45;&gt;Node4 -->
<g id="edge3_Node000002_Node000004" class="edge">
<title>Node2&#45;&gt;Node4</title>
<g id="a_edge3_Node000002_Node000004"><a xlink:title=" ">
<path fill="none" stroke="#63b8ff" d="M120.35,-55.08C115.71,-48.03 109.05,-37.9 103.26,-29.08"/>
<polygon fill="#63b8ff" stroke="#63b8ff" points="106.28,-27.31 97.86,-20.87 100.43,-31.15 106.28,-27.31"/>
</a>
</g>
</g>
<!-- Node5 -->
<g id="Node000005" class="node">
<title>Node5</title>
<g id="a_Node000005"><a xlink:title=" ">
<polygon fill="#e0e0e0" stroke="#999999" points="182.25,-19.25 140,-19.25 140,0 182.25,0 182.25,-19.25"/>
<text text-anchor="middle" x="161.12" y="-5.75" font-family="Helvetica,sans-Serif" font-size="10.00">TH2.h</text>
</a>
</g>
</g>
<!-- Node2&#45;&gt;Node5 -->
<g id="edge4_Node000002_Node000005" class="edge">
<title>Node2&#45;&gt;Node5</title>
<g id="a_edge4_Node000002_Node000005"><a xlink:title=" ">
<path fill="none" stroke="#63b8ff" d="M131.9,-55.08C136.54,-48.03 143.2,-37.9 148.99,-29.08"/>
<polygon fill="#63b8ff" stroke="#63b8ff" points="151.82,-31.15 154.39,-20.87 145.97,-27.31 151.82,-31.15"/>
</a>
</g>
</g>
<!-- Node6 -->
<g id="Node000006" class="node">
<title>Node6</title>
<g id="a_Node000006"><a xlink:title=" ">
<polygon fill="#e0e0e0" stroke="#999999" points="246.12,-19.25 200.12,-19.25 200.12,0 246.12,0 246.12,-19.25"/>
<text text-anchor="middle" x="223.12" y="-5.75" font-family="Helvetica,sans-Serif" font-size="10.00">TList.h</text>
</a>
</g>
</g>
<!-- Node2&#45;&gt;Node6 -->
<g id="edge5_Node000002_Node000006" class="edge">
<title>Node2&#45;&gt;Node6</title>
<g id="a_edge5_Node000002_Node000006"><a xlink:title=" ">
<path fill="none" stroke="#63b8ff" d="M142.58,-54.84C157.35,-46.73 179.3,-34.68 196.56,-25.21"/>
<polygon fill="#63b8ff" stroke="#63b8ff" points="198.18,-28.31 205.26,-20.43 194.81,-22.18 198.18,-28.31"/>
</a>
</g>
</g>
</g>
</svg>
