<?xml version="1.0" encoding="UTF-8" standalone="no"?>
<!DOCTYPE svg PUBLIC "-//W3C//DTD SVG 1.1//EN"
 "http://www.w3.org/Graphics/SVG/1.1/DTD/svg11.dtd">
<!-- Generated by graphviz version 12.2.0 (20241103.1931)
 -->
<!-- Title: GGaus.cxx Pages: 1 -->
<!--zoomable 193 -->

<svg id="main" version="1.1" xmlns="http://www.w3.org/2000/svg" xmlns:xlink="http://www.w3.org/1999/xlink" xml:space="preserve" onload="init(evt)">

<style type="text/css"><![CDATA[
.node, .edge {opacity: 0.7;}
.node.selected, .edge.selected {opacity: 1;}
.edge:hover path { stroke: red; }
.edge:hover polygon { stroke: red; fill: red; }
]]></style>

<defs>
  <circle id="rim" cx="0" cy="0" r="7"/>
  <circle id="rim2" cx="0" cy="0" r="3.5"/>
  <g id="zoomPlus">
    <use xlink:href="#rim" fill="#404040"><set attributeName="fill" to="#808080" begin="zoomplus.mouseover" end="zoomplus.mouseout"/></use>
    <path d="M-4,0h8M0,-4v8" fill="none" stroke="white" stroke-width="1.5" pointer-events="none"/>
  </g>
  <g id="zoomMin">
    <use xlink:href="#rim" fill="#404040"><set attributeName="fill" to="#808080" begin="zoomminus.mouseover" end="zoomminus.mouseout"/></use>
    <path d="M-4,0h8" fill="none" stroke="white" stroke-width="1.5" pointer-events="none"/>
  </g>
  <g id="arrowUp" transform="translate(30 24)">
    <use xlink:href="#rim"/>
    <path pointer-events="none" fill="none" stroke="white" stroke-width="1.5" d="M0,-3.0v7 M-2.5,-0.5L0,-3.0L2.5,-0.5"/>
  </g>
  <g id="arrowRight" transform="rotate(90) translate(36 -43)">
    <use xlink:href="#rim"/>
    <path pointer-events="none" fill="none" stroke="white" stroke-width="1.5" d="M0,-3.0v7 M-2.5,-0.5L0,-3.0L2.5,-0.5"/>
  </g>
  <g id="arrowDown" transform="rotate(180) translate(-30 -48)">
    <use xlink:href="#rim"/>
    <path pointer-events="none" fill="none" stroke="white" stroke-width="1.5" d="M0,-3.0v7 M-2.5,-0.5L0,-3.0L2.5,-0.5"/>
  </g>
  <g id="arrowLeft" transform="rotate(270) translate(-36 17)">
    <use xlink:href="#rim"/>
    <path pointer-events="none" fill="none" stroke="white" stroke-width="1.5" d="M0,-3.0v7 M-2.5,-0.5L0,-3.0L2.5,-0.5"/>
  </g>
  <g id="resetDef">
    <use xlink:href="#rim2" fill="#404040"><set attributeName="fill" to="#808080" begin="reset.mouseover" end="reset.mouseout"/></use>
  </g>
</defs>
<script type="application/ecmascript">
var viewWidth = 1712;
var viewHeight = 193;
var sectionId = 'dynsection-0';
</script>
<script type="application/ecmascript" xlink:href="svg.min.js"/>
<svg id="graph" class="graph">
<g id="viewport">
<title>GGaus.cxx</title>
<!-- Node1 -->
<g id="Node000001" class="node">
<title>Node1</title>
<g id="a_Node000001"><a xlink:title=" ">
<polygon fill="#999999" stroke="#666666" points="355.75,-185 292.5,-185 292.5,-165.75 355.75,-165.75 355.75,-185"/>
<text text-anchor="middle" x="324.12" y="-171.5" font-family="Helvetica,sans-Serif" font-size="10.00">GGaus.cxx</text>
</a>
</g>
</g>
<!-- Node2 -->
<g id="Node000002" class="node">
<title>Node2</title>
<g id="a_Node000002"><a xlink:href="_g_gaus_8h.html" target="_top" xlink:title=" ">
<polygon fill="white" stroke="#666666" points="54.25,-129.75 0,-129.75 0,-110.5 54.25,-110.5 54.25,-129.75"/>
<text text-anchor="middle" x="27.12" y="-116.25" font-family="Helvetica,sans-Serif" font-size="10.00">GGaus.h</text>
</a>
</g>
</g>
<!-- Node1&#45;&gt;Node2 -->
<g id="edge1_Node000001_Node000002" class="edge">
<title>Node1&#45;&gt;Node2</title>
<g id="a_edge1_Node000001_Node000002"><a xlink:title=" ">
<path fill="none" stroke="#63b8ff" d="M292.26,-169.62C244.98,-162.41 153.24,-147.86 65.79,-130.19"/>
<polygon fill="#63b8ff" stroke="#63b8ff" points="66.58,-126.78 56.08,-128.21 65.18,-133.64 66.58,-126.78"/>
</a>
</g>
</g>
<!-- Node4 -->
<g id="Node000004" class="node">
<title>Node4</title>
<g id="a_Node000004"><a xlink:title=" ">
<polygon fill="#e0e0e0" stroke="#999999" points="128,-129.75 72.25,-129.75 72.25,-110.5 128,-110.5 128,-129.75"/>
<text text-anchor="middle" x="100.12" y="-116.25" font-family="Helvetica,sans-Serif" font-size="10.00">TGraph.h</text>
</a>
</g>
</g>
<!-- Node1&#45;&gt;Node4 -->
<g id="edge3_Node000001_Node000004" class="edge">
<title>Node1&#45;&gt;Node4</title>
<g id="a_edge3_Node000001_Node000004"><a xlink:title=" ">
<path fill="none" stroke="#63b8ff" d="M292.03,-166.75C251.72,-157.16 182.59,-140.73 139.23,-130.42"/>
<polygon fill="#63b8ff" stroke="#63b8ff" points="140.28,-127.07 129.74,-128.16 138.66,-133.88 140.28,-127.07"/>
</a>
</g>
</g>
<!-- Node5 -->
<g id="Node000005" class="node">
<title>Node5</title>
<g id="a_Node000005"><a xlink:title=" ">
<polygon fill="#e0e0e0" stroke="#999999" points="226,-129.75 146.25,-129.75 146.25,-110.5 226,-110.5 226,-129.75"/>
<text text-anchor="middle" x="186.12" y="-116.25" font-family="Helvetica,sans-Serif" font-size="10.00">TVirtualFitter.h</text>
</a>
</g>
</g>
<!-- Node1&#45;&gt;Node5 -->
<g id="edge4_Node000001_Node000005" class="edge">
<title>Node1&#45;&gt;Node5</title>
<g id="a_edge4_Node000001_Node000005"><a xlink:title=" ">
<path fill="none" stroke="#63b8ff" d="M300.72,-165.34C278.61,-156.81 245.21,-143.92 220.16,-134.26"/>
<polygon fill="#63b8ff" stroke="#63b8ff" points="221.65,-131.08 211.06,-130.75 219.13,-137.61 221.65,-131.08"/>
</a>
</g>
</g>
<!-- Node6 -->
<g id="Node000006" class="node">
<title>Node6</title>
<g id="a_Node000006"><a xlink:title=" ">
<polygon fill="#e0e0e0" stroke="#999999" points="312.38,-129.75 243.88,-129.75 243.88,-110.5 312.38,-110.5 312.38,-129.75"/>
<text text-anchor="middle" x="278.12" y="-116.25" font-family="Helvetica,sans-Serif" font-size="10.00">TFitResult.h</text>
</a>
</g>
</g>
<!-- Node1&#45;&gt;Node6 -->
<g id="edge5_Node000001_Node000006" class="edge">
<title>Node1&#45;&gt;Node6</title>
<g id="a_edge5_Node000001_Node000006"><a xlink:title=" ">
<path fill="none" stroke="#63b8ff" d="M316.53,-165.58C310.24,-158.3 301.11,-147.73 293.33,-138.73"/>
<polygon fill="#63b8ff" stroke="#63b8ff" points="296.06,-136.53 286.88,-131.25 290.76,-141.11 296.06,-136.53"/>
</a>
</g>
</g>
<!-- Node7 -->
<g id="Node000007" class="node">
<title>Node7</title>
<g id="a_Node000007"><a xlink:title=" ">
<polygon fill="#e0e0e0" stroke="#999999" points="411.75,-129.75 330.5,-129.75 330.5,-110.5 411.75,-110.5 411.75,-129.75"/>
<text text-anchor="middle" x="371.12" y="-116.25" font-family="Helvetica,sans-Serif" font-size="10.00">TFitResultPtr.h</text>
</a>
</g>
</g>
<!-- Node1&#45;&gt;Node7 -->
<g id="edge6_Node000001_Node000007" class="edge">
<title>Node1&#45;&gt;Node7</title>
<g id="a_edge6_Node000001_Node000007"><a xlink:title=" ">
<path fill="none" stroke="#63b8ff" d="M331.89,-165.58C338.31,-158.3 347.64,-147.73 355.59,-138.73"/>
<polygon fill="#63b8ff" stroke="#63b8ff" points="358.2,-141.06 362.19,-131.24 352.95,-136.43 358.2,-141.06"/>
</a>
</g>
</g>
<!-- Node8 -->
<g id="Node000008" class="node">
<title>Node8</title>
<g id="a_Node000008"><a xlink:href="_globals_8h.html" target="_top" xlink:title=" ">
<polygon fill="white" stroke="#666666" points="1121.38,-129.75 1064.88,-129.75 1064.88,-110.5 1121.38,-110.5 1121.38,-129.75"/>
<text text-anchor="middle" x="1093.12" y="-116.25" font-family="Helvetica,sans-Serif" font-size="10.00">Globals.h</text>
</a>
</g>
</g>
<!-- Node1&#45;&gt;Node8 -->
<g id="edge7_Node000001_Node000008" class="edge">
<title>Node1&#45;&gt;Node8</title>
<g id="a_edge7_Node000001_Node000008"><a xlink:title=" ">
<path fill="none" stroke="#63b8ff" d="M356.19,-172.15C478.84,-163.66 918.13,-133.24 1053.28,-123.88"/>
<polygon fill="#63b8ff" stroke="#63b8ff" points="1053.42,-127.38 1063.16,-123.2 1052.94,-120.4 1053.42,-127.38"/>
</a>
</g>
</g>
<!-- Node24 -->
<g id="Node000024" class="node">
<title>Node24</title>
<g id="a_Node000024"><a xlink:href="_g_root_functions_8h.html" target="_top" xlink:title=" ">
<polygon fill="white" stroke="#666666" points="1491.12,-129.75 1397.12,-129.75 1397.12,-110.5 1491.12,-110.5 1491.12,-129.75"/>
<text text-anchor="middle" x="1444.12" y="-116.25" font-family="Helvetica,sans-Serif" font-size="10.00">GRootFunctions.h</text>
</a>
</g>
</g>
<!-- Node1&#45;&gt;Node24 -->
<g id="edge23_Node000001_Node000024" class="edge">
<title>Node1&#45;&gt;Node24</title>
<g id="a_edge23_Node000001_Node000024"><a xlink:title=" ">
<path fill="none" stroke="#63b8ff" d="M356.14,-172.85C510.89,-165.5 1182.31,-133.57 1385.59,-123.91"/>
<polygon fill="#63b8ff" stroke="#63b8ff" points="1385.56,-127.41 1395.38,-123.44 1385.23,-120.42 1385.56,-127.41"/>
</a>
</g>
</g>
<!-- Node26 -->
<g id="Node000026" class="node">
<title>Node26</title>
<g id="a_Node000026"><a xlink:href="_g_canvas_8h.html" target="_top" xlink:title=" ">
<polygon fill="white" stroke="#666666" points="494.12,-129.75 430.12,-129.75 430.12,-110.5 494.12,-110.5 494.12,-129.75"/>
<text text-anchor="middle" x="462.12" y="-116.25" font-family="Helvetica,sans-Serif" font-size="10.00">GCanvas.h</text>
</a>
</g>
</g>
<!-- Node1&#45;&gt;Node26 -->
<g id="edge25_Node000001_Node000026" class="edge">
<title>Node1&#45;&gt;Node26</title>
<g id="a_edge25_Node000001_Node000026"><a xlink:title=" ">
<path fill="none" stroke="#63b8ff" d="M347.53,-165.34C369.64,-156.81 403.04,-143.92 428.09,-134.26"/>
<polygon fill="#63b8ff" stroke="#63b8ff" points="429.12,-137.61 437.19,-130.75 426.6,-131.08 429.12,-137.61"/>
</a>
</g>
</g>
<!-- Node3 -->
<g id="Node000003" class="node">
<title>Node3</title>
<g id="a_Node000003"><a xlink:title=" ">
<polygon fill="#e0e0e0" stroke="#999999" points="47.5,-74.5 6.75,-74.5 6.75,-55.25 47.5,-55.25 47.5,-74.5"/>
<text text-anchor="middle" x="27.12" y="-61" font-family="Helvetica,sans-Serif" font-size="10.00">TF1.h</text>
</a>
</g>
</g>
<!-- Node2&#45;&gt;Node3 -->
<g id="edge2_Node000002_Node000003" class="edge">
<title>Node2&#45;&gt;Node3</title>
<g id="a_edge2_Node000002_Node000003"><a xlink:title=" ">
<path fill="none" stroke="#63b8ff" d="M27.12,-110.33C27.12,-103.82 27.12,-94.67 27.12,-86.37"/>
<polygon fill="#63b8ff" stroke="#63b8ff" points="30.63,-86.37 27.13,-76.37 23.63,-86.37 30.63,-86.37"/>
</a>
</g>
</g>
<!-- Node9 -->
<g id="Node000009" class="node">
<title>Node9</title>
<g id="a_Node000009"><a xlink:title=" ">
<polygon fill="#e0e0e0" stroke="#999999" points="683.88,-74.5 630.38,-74.5 630.38,-55.25 683.88,-55.25 683.88,-74.5"/>
<text text-anchor="middle" x="657.12" y="-61" font-family="Helvetica,sans-Serif" font-size="10.00">iostream</text>
</a>
</g>
</g>
<!-- Node8&#45;&gt;Node9 -->
<g id="edge8_Node000008_Node000009" class="edge">
<title>Node8&#45;&gt;Node9</title>
<g id="a_edge8_Node000008_Node000009"><a xlink:title=" ">
<path fill="none" stroke="#63b8ff" d="M1064.83,-117.18C1000.83,-112.53 839.92,-99.38 695.43,-74.69"/>
<polygon fill="#63b8ff" stroke="#63b8ff" points="696.12,-71.26 685.67,-73 694.92,-78.15 696.12,-71.26"/>
</a>
</g>
</g>
<!-- Node10 -->
<g id="Node000010" class="node">
<title>Node10</title>
<g id="a_Node000010"><a xlink:title=" ">
<polygon fill="#e0e0e0" stroke="#999999" points="1082,-74.5 1032.25,-74.5 1032.25,-55.25 1082,-55.25 1082,-74.5"/>
<text text-anchor="middle" x="1057.12" y="-61" font-family="Helvetica,sans-Serif" font-size="10.00">iomanip</text>
</a>
</g>
</g>
<!-- Node8&#45;&gt;Node10 -->
<g id="edge9_Node000008_Node000010" class="edge">
<title>Node8&#45;&gt;Node10</title>
<g id="a_edge9_Node000008_Node000010"><a xlink:title=" ">
<path fill="none" stroke="#63b8ff" d="M1087.18,-110.33C1082.41,-103.28 1075.56,-93.15 1069.6,-84.33"/>
<polygon fill="#63b8ff" stroke="#63b8ff" points="1072.55,-82.44 1064.05,-76.11 1066.75,-86.36 1072.55,-82.44"/>
</a>
</g>
</g>
<!-- Node11 -->
<g id="Node000011" class="node">
<title>Node11</title>
<g id="a_Node000011"><a xlink:title=" ">
<polygon fill="#e0e0e0" stroke="#999999" points="1158.12,-74.5 1100.12,-74.5 1100.12,-55.25 1158.12,-55.25 1158.12,-74.5"/>
<text text-anchor="middle" x="1129.12" y="-61" font-family="Helvetica,sans-Serif" font-size="10.00">stdexcept</text>
</a>
</g>
</g>
<!-- Node8&#45;&gt;Node11 -->
<g id="edge10_Node000008_Node000011" class="edge">
<title>Node8&#45;&gt;Node11</title>
<g id="a_edge10_Node000008_Node000011"><a xlink:title=" ">
<path fill="none" stroke="#63b8ff" d="M1099.07,-110.33C1103.84,-103.28 1110.69,-93.15 1116.65,-84.33"/>
<polygon fill="#63b8ff" stroke="#63b8ff" points="1119.5,-86.36 1122.2,-76.11 1113.7,-82.44 1119.5,-86.36"/>
</a>
</g>
</g>
<!-- Node12 -->
<g id="Node000012" class="node">
<title>Node12</title>
<g id="a_Node000012"><a xlink:title=" ">
<polygon fill="#e0e0e0" stroke="#999999" points="1216.12,-74.5 1176.12,-74.5 1176.12,-55.25 1216.12,-55.25 1216.12,-74.5"/>
<text text-anchor="middle" x="1196.12" y="-61" font-family="Helvetica,sans-Serif" font-size="10.00">string</text>
</a>
</g>
</g>
<!-- Node8&#45;&gt;Node12 -->
<g id="edge11_Node000008_Node000012" class="edge">
<title>Node8&#45;&gt;Node12</title>
<g id="a_edge11_Node000008_Node000012"><a xlink:title=" ">
<path fill="none" stroke="#63b8ff" d="M1110.6,-110.09C1126.43,-101.91 1150.03,-89.71 1168.43,-80.19"/>
<polygon fill="#63b8ff" stroke="#63b8ff" points="1169.95,-83.35 1177.22,-75.65 1166.73,-77.13 1169.95,-83.35"/>
</a>
</g>
</g>
<!-- Node13 -->
<g id="Node000013" class="node">
<title>Node13</title>
<g id="a_Node000013"><a xlink:title=" ">
<polygon fill="#e0e0e0" stroke="#999999" points="874.25,-19.25 832,-19.25 832,0 874.25,0 874.25,-19.25"/>
<text text-anchor="middle" x="853.12" y="-5.75" font-family="Helvetica,sans-Serif" font-size="10.00">cstdio</text>
</a>
</g>
</g>
<!-- Node8&#45;&gt;Node13 -->
<g id="edge12_Node000008_Node000013" class="edge">
<title>Node8&#45;&gt;Node13</title>
<g id="a_edge12_Node000008_Node000013"><a xlink:title=" ">
<path fill="none" stroke="#63b8ff" d="M1079.98,-110.12C1060.11,-96.81 1020.96,-71.69 985.12,-55.25 952.23,-40.16 912.69,-27.46 885.52,-19.52"/>
<polygon fill="#63b8ff" stroke="#63b8ff" points="886.72,-16.22 876.14,-16.83 884.79,-22.95 886.72,-16.22"/>
</a>
</g>
</g>
<!-- Node14 -->
<g id="Node000014" class="node">
<title>Node14</title>
<g id="a_Node000014"><a xlink:title=" ">
<polygon fill="#e0e0e0" stroke="#999999" points="1279.75,-74.5 1234.5,-74.5 1234.5,-55.25 1279.75,-55.25 1279.75,-74.5"/>
<text text-anchor="middle" x="1257.12" y="-61" font-family="Helvetica,sans-Serif" font-size="10.00">cstdint</text>
</a>
</g>
</g>
<!-- Node8&#45;&gt;Node14 -->
<g id="edge13_Node000008_Node000014" class="edge">
<title>Node8&#45;&gt;Node14</title>
<g id="a_edge13_Node000008_Node000014"><a xlink:title=" ">
<path fill="none" stroke="#63b8ff" d="M1120.95,-110.09C1149.23,-100.91 1193.07,-86.67 1223.33,-76.85"/>
<polygon fill="#63b8ff" stroke="#63b8ff" points="1224.33,-80.2 1232.76,-73.78 1222.17,-73.54 1224.33,-80.2"/>
</a>
</g>
</g>
<!-- Node15 -->
<g id="Node000015" class="node">
<title>Node15</title>
<g id="a_Node000015"><a xlink:title=" ">
<polygon fill="#e0e0e0" stroke="#999999" points="1342.38,-74.5 1297.88,-74.5 1297.88,-55.25 1342.38,-55.25 1342.38,-74.5"/>
<text text-anchor="middle" x="1320.12" y="-61" font-family="Helvetica,sans-Serif" font-size="10.00">cstdlib</text>
</a>
</g>
</g>
<!-- Node8&#45;&gt;Node15 -->
<g id="edge14_Node000008_Node000015" class="edge">
<title>Node8&#45;&gt;Node15</title>
<g id="a_edge14_Node000008_Node000015"><a xlink:title=" ">
<path fill="none" stroke="#63b8ff" d="M1121.79,-113.05C1157.97,-105.27 1222.37,-91.13 1286.37,-75.11"/>
<polygon fill="#63b8ff" stroke="#63b8ff" points="1287.16,-78.52 1296,-72.68 1285.45,-71.73 1287.16,-78.52"/>
</a>
</g>
</g>
<!-- Node16 -->
<g id="Node000016" class="node">
<title>Node16</title>
<g id="a_Node000016"><a xlink:title=" ">
<polygon fill="#e0e0e0" stroke="#999999" points="1419.88,-74.5 1360.38,-74.5 1360.38,-55.25 1419.88,-55.25 1419.88,-74.5"/>
<text text-anchor="middle" x="1390.12" y="-61" font-family="Helvetica,sans-Serif" font-size="10.00">execinfo.h</text>
</a>
</g>
</g>
<!-- Node8&#45;&gt;Node16 -->
<g id="edge15_Node000008_Node000016" class="edge">
<title>Node8&#45;&gt;Node16</title>
<g id="a_edge15_Node000008_Node000016"><a xlink:title=" ">
<path fill="none" stroke="#63b8ff" d="M1121.84,-114.6C1167.65,-107.3 1260.35,-92.12 1348.87,-74.87"/>
<polygon fill="#63b8ff" stroke="#63b8ff" points="1349.3,-78.35 1358.44,-72.99 1347.95,-71.48 1349.3,-78.35"/>
</a>
</g>
</g>
<!-- Node17 -->
<g id="Node000017" class="node">
<title>Node17</title>
<g id="a_Node000017"><a xlink:title=" ">
<polygon fill="#e0e0e0" stroke="#999999" points="1488.38,-74.5 1437.88,-74.5 1437.88,-55.25 1488.38,-55.25 1488.38,-74.5"/>
<text text-anchor="middle" x="1463.12" y="-61" font-family="Helvetica,sans-Serif" font-size="10.00">cxxabi.h</text>
</a>
</g>
</g>
<!-- Node8&#45;&gt;Node17 -->
<g id="edge16_Node000008_Node000017" class="edge">
<title>Node8&#45;&gt;Node17</title>
<g id="a_edge16_Node000008_Node000017"><a xlink:title=" ">
<path fill="none" stroke="#63b8ff" d="M1121.62,-116.47C1178.02,-110.98 1307.97,-97.13 1426.51,-74.81"/>
<polygon fill="#63b8ff" stroke="#63b8ff" points="1426.93,-78.29 1436.09,-72.98 1425.61,-71.42 1426.93,-78.29"/>
</a>
</g>
</g>
<!-- Node18 -->
<g id="Node000018" class="node">
<title>Node18</title>
<g id="a_Node000018"><a xlink:title=" ">
<polygon fill="#e0e0e0" stroke="#999999" points="1557.75,-74.5 1506.5,-74.5 1506.5,-55.25 1557.75,-55.25 1557.75,-74.5"/>
<text text-anchor="middle" x="1532.12" y="-61" font-family="Helvetica,sans-Serif" font-size="10.00">sstream</text>
</a>
</g>
</g>
<!-- Node8&#45;&gt;Node18 -->
<g id="edge17_Node000008_Node000018" class="edge">
<title>Node8&#45;&gt;Node18</title>
<g id="a_edge17_Node000008_Node000018"><a xlink:title=" ">
<path fill="none" stroke="#63b8ff" d="M1121.72,-117.27C1186.45,-112.78 1349.26,-99.96 1495.28,-74.59"/>
<polygon fill="#63b8ff" stroke="#63b8ff" points="1495.48,-78.11 1504.72,-72.93 1494.27,-71.22 1495.48,-78.11"/>
</a>
</g>
</g>
<!-- Node19 -->
<g id="Node000019" class="node">
<title>Node19</title>
<g id="a_Node000019"><a xlink:title=" ">
<polygon fill="#e0e0e0" stroke="#999999" points="1612.62,-74.5 1575.62,-74.5 1575.62,-55.25 1612.62,-55.25 1612.62,-74.5"/>
<text text-anchor="middle" x="1594.12" y="-61" font-family="Helvetica,sans-Serif" font-size="10.00">array</text>
</a>
</g>
</g>
<!-- Node8&#45;&gt;Node19 -->
<g id="edge18_Node000008_Node000019" class="edge">
<title>Node8&#45;&gt;Node19</title>
<g id="a_edge18_Node000008_Node000019"><a xlink:title=" ">
<path fill="none" stroke="#63b8ff" d="M1121.76,-118.57C1194.47,-116.71 1392.17,-108.84 1564.34,-74.67"/>
<polygon fill="#63b8ff" stroke="#63b8ff" points="1564.79,-78.15 1573.9,-72.73 1563.4,-71.29 1564.79,-78.15"/>
</a>
</g>
</g>
<!-- Node20 -->
<g id="Node000020" class="node">
<title>Node20</title>
<g id="a_Node000020"><a xlink:title=" ">
<polygon fill="#e0e0e0" stroke="#999999" points="752.38,-74.5 701.88,-74.5 701.88,-55.25 752.38,-55.25 752.38,-74.5"/>
<text text-anchor="middle" x="727.12" y="-61" font-family="Helvetica,sans-Serif" font-size="10.00">memory</text>
</a>
</g>
</g>
<!-- Node8&#45;&gt;Node20 -->
<g id="edge19_Node000008_Node000020" class="edge">
<title>Node8&#45;&gt;Node20</title>
<g id="a_edge19_Node000008_Node000020"><a xlink:title=" ">
<path fill="none" stroke="#63b8ff" d="M1064.52,-116.4C1008.62,-110.83 880.79,-96.94 763.94,-74.85"/>
<polygon fill="#63b8ff" stroke="#63b8ff" points="764.64,-71.42 754.16,-72.98 763.32,-78.3 764.64,-71.42"/>
</a>
</g>
</g>
<!-- Node21 -->
<g id="Node000021" class="node">
<title>Node21</title>
<g id="a_Node000021"><a xlink:title=" ">
<polygon fill="#e0e0e0" stroke="#999999" points="820,-74.5 770.25,-74.5 770.25,-55.25 820,-55.25 820,-74.5"/>
<text text-anchor="middle" x="795.12" y="-61" font-family="Helvetica,sans-Serif" font-size="10.00">unistd.h</text>
</a>
</g>
</g>
<!-- Node8&#45;&gt;Node21 -->
<g id="edge20_Node000008_Node000021" class="edge">
<title>Node8&#45;&gt;Node21</title>
<g id="a_edge20_Node000008_Node000021"><a xlink:title=" ">
<path fill="none" stroke="#63b8ff" d="M1064.46,-115.06C1017.74,-108.26 922.04,-93.65 831.35,-74.82"/>
<polygon fill="#63b8ff" stroke="#63b8ff" points="832.31,-71.45 821.8,-72.82 830.87,-78.3 832.31,-71.45"/>
</a>
</g>
</g>
<!-- Node22 -->
<g id="Node000022" class="node">
<title>Node22</title>
<g id="a_Node000022"><a xlink:title=" ">
<polygon fill="#e0e0e0" stroke="#999999" points="897.88,-74.5 838.38,-74.5 838.38,-55.25 897.88,-55.25 897.88,-74.5"/>
<text text-anchor="middle" x="868.12" y="-61" font-family="Helvetica,sans-Serif" font-size="10.00">sys/wait.h</text>
</a>
</g>
</g>
<!-- Node8&#45;&gt;Node22 -->
<g id="edge21_Node000008_Node000022" class="edge">
<title>Node8&#45;&gt;Node22</title>
<g id="a_edge21_Node000008_Node000022"><a xlink:title=" ">
<path fill="none" stroke="#63b8ff" d="M1064.63,-112.38C1025.36,-103.09 954.36,-86.28 909.32,-75.62"/>
<polygon fill="#63b8ff" stroke="#63b8ff" points="910.19,-72.23 899.65,-73.34 908.58,-79.05 910.19,-72.23"/>
</a>
</g>
</g>
<!-- Node23 -->
<g id="Node000023" class="node">
<title>Node23</title>
<g id="a_Node000023"><a xlink:title=" ">
<polygon fill="#e0e0e0" stroke="#999999" points="976.25,-74.5 916,-74.5 916,-55.25 976.25,-55.25 976.25,-74.5"/>
<text text-anchor="middle" x="946.12" y="-61" font-family="Helvetica,sans-Serif" font-size="10.00">sys/prctl.h</text>
</a>
</g>
</g>
<!-- Node8&#45;&gt;Node23 -->
<g id="edge22_Node000008_Node000023" class="edge">
<title>Node8&#45;&gt;Node23</title>
<g id="a_edge22_Node000008_Node000023"><a xlink:title=" ">
<path fill="none" stroke="#63b8ff" d="M1068.19,-110.09C1044.43,-101.49 1008.42,-88.44 981.66,-78.75"/>
<polygon fill="#63b8ff" stroke="#63b8ff" points="983.2,-75.58 972.61,-75.47 980.82,-82.16 983.2,-75.58"/>
</a>
</g>
</g>
<!-- Node25 -->
<g id="Node000025" class="node">
<title>Node25</title>
<g id="a_Node000025"><a xlink:title=" ">
<polygon fill="#e0e0e0" stroke="#999999" points="1704,-74.5 1630.25,-74.5 1630.25,-55.25 1704,-55.25 1704,-74.5"/>
<text text-anchor="middle" x="1667.12" y="-61" font-family="Helvetica,sans-Serif" font-size="10.00">RtypesCore.h</text>
</a>
</g>
</g>
<!-- Node24&#45;&gt;Node25 -->
<g id="edge24_Node000024_Node000025" class="edge">
<title>Node24&#45;&gt;Node25</title>
<g id="a_edge24_Node000024_Node000025"><a xlink:title=" ">
<path fill="none" stroke="#63b8ff" d="M1482.21,-110.03C1519.96,-101.02 1577.92,-87.18 1618.87,-77.4"/>
<polygon fill="#63b8ff" stroke="#63b8ff" points="1619.56,-80.83 1628.47,-75.11 1617.93,-74.02 1619.56,-80.83"/>
</a>
</g>
</g>
<!-- Node26&#45;&gt;Node9 -->
<g id="edge37_Node000026_Node000009" class="edge">
<title>Node26&#45;&gt;Node9</title>
<g id="a_edge37_Node000026_Node000009"><a xlink:title=" ">
<path fill="none" stroke="#63b8ff" d="M494.33,-110.33C528.64,-100.96 582.92,-86.14 619.26,-76.22"/>
<polygon fill="#63b8ff" stroke="#63b8ff" points="619.73,-79.71 628.45,-73.7 617.89,-72.96 619.73,-79.71"/>
</a>
</g>
</g>
<!-- Node27 -->
<g id="Node000027" class="node">
<title>Node27</title>
<g id="a_Node000027"><a xlink:href="_g_h2_base_8h.html" target="_top" xlink:title=" ">
<polygon fill="white" stroke="#666666" points="612.25,-74.5 546,-74.5 546,-55.25 612.25,-55.25 612.25,-74.5"/>
<text text-anchor="middle" x="579.12" y="-61" font-family="Helvetica,sans-Serif" font-size="10.00">GH2Base.h</text>
</a>
</g>
</g>
<!-- Node26&#45;&gt;Node27 -->
<g id="edge26_Node000026_Node000027" class="edge">
<title>Node26&#45;&gt;Node27</title>
<g id="a_edge26_Node000026_Node000027"><a xlink:title=" ">
<path fill="none" stroke="#63b8ff" d="M481.97,-110.09C500.29,-101.75 527.77,-89.25 548.83,-79.66"/>
<polygon fill="#63b8ff" stroke="#63b8ff" points="550.15,-82.91 557.8,-75.58 547.25,-76.54 550.15,-82.91"/>
</a>
</g>
</g>
<!-- Node31 -->
<g id="Node000031" class="node">
<title>Node31</title>
<g id="a_Node000031"><a xlink:title=" ">
<polygon fill="#e0e0e0" stroke="#999999" points="149.75,-74.5 92.5,-74.5 92.5,-55.25 149.75,-55.25 149.75,-74.5"/>
<text text-anchor="middle" x="121.12" y="-61" font-family="Helvetica,sans-Serif" font-size="10.00">TROOT.h</text>
</a>
</g>
</g>
<!-- Node26&#45;&gt;Node31 -->
<g id="edge31_Node000026_Node000031" class="edge">
<title>Node26&#45;&gt;Node31</title>
<g id="a_edge31_Node000026_Node000031"><a xlink:title=" ">
<path fill="none" stroke="#63b8ff" d="M429.94,-112.13C426.96,-111.55 423.99,-111 421.12,-110.5 308.83,-91 276.7,-95.24 161.18,-74.72"/>
<polygon fill="#63b8ff" stroke="#63b8ff" points="162.07,-71.33 151.61,-73 160.83,-78.22 162.07,-71.33"/>
</a>
</g>
</g>
<!-- Node32 -->
<g id="Node000032" class="node">
<title>Node32</title>
<g id="a_Node000032"><a xlink:title=" ">
<polygon fill="#e0e0e0" stroke="#999999" points="230.38,-74.5 167.88,-74.5 167.88,-55.25 230.38,-55.25 230.38,-74.5"/>
<text text-anchor="middle" x="199.12" y="-61" font-family="Helvetica,sans-Serif" font-size="10.00">TCanvas.h</text>
</a>
</g>
</g>
<!-- Node26&#45;&gt;Node32 -->
<g id="edge32_Node000026_Node000032" class="edge">
<title>Node26&#45;&gt;Node32</title>
<g id="a_edge32_Node000026_Node000032"><a xlink:title=" ">
<path fill="none" stroke="#63b8ff" d="M429.9,-112.31C426.94,-111.69 423.98,-111.08 421.12,-110.5 344.22,-94.76 322.33,-91.23 241.69,-74.8"/>
<polygon fill="#63b8ff" stroke="#63b8ff" points="242.44,-71.38 231.94,-72.81 241.04,-78.24 242.44,-71.38"/>
</a>
</g>
</g>
<!-- Node33 -->
<g id="Node000033" class="node">
<title>Node33</title>
<g id="a_Node000033"><a xlink:title=" ">
<polygon fill="#e0e0e0" stroke="#999999" points="331.5,-74.5 248.75,-74.5 248.75,-55.25 331.5,-55.25 331.5,-74.5"/>
<text text-anchor="middle" x="290.12" y="-61" font-family="Helvetica,sans-Serif" font-size="10.00">TRootCanvas.h</text>
</a>
</g>
</g>
<!-- Node26&#45;&gt;Node33 -->
<g id="edge33_Node000026_Node000033" class="edge">
<title>Node26&#45;&gt;Node33</title>
<g id="a_edge33_Node000026_Node000033"><a xlink:title=" ">
<path fill="none" stroke="#63b8ff" d="M432.95,-110.09C404.65,-101.33 361.51,-87.98 330.04,-78.23"/>
<polygon fill="#63b8ff" stroke="#63b8ff" points="331.48,-75.01 320.89,-75.4 329.41,-81.7 331.48,-75.01"/>
</a>
</g>
</g>
<!-- Node34 -->
<g id="Node000034" class="node">
<title>Node34</title>
<g id="a_Node000034"><a xlink:title=" ">
<polygon fill="#e0e0e0" stroke="#999999" points="392.25,-74.5 350,-74.5 350,-55.25 392.25,-55.25 392.25,-74.5"/>
<text text-anchor="middle" x="371.12" y="-61" font-family="Helvetica,sans-Serif" font-size="10.00">TH1.h</text>
</a>
</g>
</g>
<!-- Node26&#45;&gt;Node34 -->
<g id="edge34_Node000026_Node000034" class="edge">
<title>Node26&#45;&gt;Node34</title>
<g id="a_edge34_Node000026_Node000034"><a xlink:title=" ">
<path fill="none" stroke="#63b8ff" d="M446.69,-110.09C432.96,-102.06 412.63,-90.16 396.51,-80.73"/>
<polygon fill="#63b8ff" stroke="#63b8ff" points="398.34,-77.75 387.94,-75.72 394.81,-83.79 398.34,-77.75"/>
</a>
</g>
</g>
<!-- Node35 -->
<g id="Node000035" class="node">
<title>Node35</title>
<g id="a_Node000035"><a xlink:title=" ">
<polygon fill="#e0e0e0" stroke="#999999" points="458.25,-74.5 410,-74.5 410,-55.25 458.25,-55.25 458.25,-74.5"/>
<text text-anchor="middle" x="434.12" y="-61" font-family="Helvetica,sans-Serif" font-size="10.00">TLine.h</text>
</a>
</g>
</g>
<!-- Node26&#45;&gt;Node35 -->
<g id="edge35_Node000026_Node000035" class="edge">
<title>Node26&#45;&gt;Node35</title>
<g id="a_edge35_Node000026_Node000035"><a xlink:title=" ">
<path fill="none" stroke="#63b8ff" d="M457.5,-110.33C453.88,-103.44 448.7,-93.59 444.13,-84.91"/>
<polygon fill="#63b8ff" stroke="#63b8ff" points="447.31,-83.42 439.55,-76.2 441.11,-86.68 447.31,-83.42"/>
</a>
</g>
</g>
<!-- Node36 -->
<g id="Node000036" class="node">
<title>Node36</title>
<g id="a_Node000036"><a xlink:title=" ">
<polygon fill="#e0e0e0" stroke="#999999" points="528.12,-74.5 476.12,-74.5 476.12,-55.25 528.12,-55.25 528.12,-74.5"/>
<text text-anchor="middle" x="502.12" y="-61" font-family="Helvetica,sans-Serif" font-size="10.00">TCutG.h</text>
</a>
</g>
</g>
<!-- Node26&#45;&gt;Node36 -->
<g id="edge36_Node000026_Node000036" class="edge">
<title>Node26&#45;&gt;Node36</title>
<g id="a_edge36_Node000026_Node000036"><a xlink:title=" ">
<path fill="none" stroke="#63b8ff" d="M468.73,-110.33C474.08,-103.21 481.8,-92.93 488.47,-84.05"/>
<polygon fill="#63b8ff" stroke="#63b8ff" points="491.26,-86.17 494.47,-76.07 485.66,-81.96 491.26,-86.17"/>
</a>
</g>
</g>
<!-- Node27&#45;&gt;Node13 -->
<g id="edge27_Node000027_Node000013" class="edge">
<title>Node27&#45;&gt;Node13</title>
<g id="a_edge27_Node000027_Node000013"><a xlink:title=" ">
<path fill="none" stroke="#63b8ff" d="M612.59,-56.96C615.47,-56.38 618.35,-55.8 621.12,-55.25 692.21,-41.11 775.7,-25.23 820.6,-16.75"/>
<polygon fill="#63b8ff" stroke="#63b8ff" points="821.01,-20.23 830.19,-14.94 819.71,-13.35 821.01,-20.23"/>
</a>
</g>
</g>
<!-- Node28 -->
<g id="Node000028" class="node">
<title>Node28</title>
<g id="a_Node000028"><a xlink:title=" ">
<polygon fill="#e0e0e0" stroke="#999999" points="539.62,-19.25 478.62,-19.25 478.62,0 539.62,0 539.62,-19.25"/>
<text text-anchor="middle" x="509.12" y="-5.75" font-family="Helvetica,sans-Serif" font-size="10.00">TNamed.h</text>
</a>
</g>
</g>
<!-- Node27&#45;&gt;Node28 -->
<g id="edge28_Node000027_Node000028" class="edge">
<title>Node27&#45;&gt;Node28</title>
<g id="a_edge28_Node000027_Node000028"><a xlink:title=" ">
<path fill="none" stroke="#63b8ff" d="M567.25,-54.84C557.03,-47.07 542.05,-35.67 529.86,-26.4"/>
<polygon fill="#63b8ff" stroke="#63b8ff" points="532.11,-23.71 522.03,-20.44 527.87,-29.28 532.11,-23.71"/>
</a>
</g>
</g>
<!-- Node29 -->
<g id="Node000029" class="node">
<title>Node29</title>
<g id="a_Node000029"><a xlink:title=" ">
<polygon fill="#e0e0e0" stroke="#999999" points="600.25,-19.25 558,-19.25 558,0 600.25,0 600.25,-19.25"/>
<text text-anchor="middle" x="579.12" y="-5.75" font-family="Helvetica,sans-Serif" font-size="10.00">TH2.h</text>
</a>
</g>
</g>
<!-- Node27&#45;&gt;Node29 -->
<g id="edge29_Node000027_Node000029" class="edge">
<title>Node27&#45;&gt;Node29</title>
<g id="a_edge29_Node000027_Node000029"><a xlink:title=" ">
<path fill="none" stroke="#63b8ff" d="M579.12,-55.08C579.12,-48.57 579.12,-39.42 579.12,-31.12"/>
<polygon fill="#63b8ff" stroke="#63b8ff" points="582.63,-31.12 579.13,-21.12 575.63,-31.12 582.63,-31.12"/>
</a>
</g>
</g>
<!-- Node30 -->
<g id="Node000030" class="node">
<title>Node30</title>
<g id="a_Node000030"><a xlink:title=" ">
<polygon fill="#e0e0e0" stroke="#999999" points="664.12,-19.25 618.12,-19.25 618.12,0 664.12,0 664.12,-19.25"/>
<text text-anchor="middle" x="641.12" y="-5.75" font-family="Helvetica,sans-Serif" font-size="10.00">TList.h</text>
</a>
</g>
</g>
<!-- Node27&#45;&gt;Node30 -->
<g id="edge30_Node000027_Node000030" class="edge">
<title>Node27&#45;&gt;Node30</title>
<g id="a_edge30_Node000027_Node000030"><a xlink:title=" ">
<path fill="none" stroke="#63b8ff" d="M589.64,-54.84C598.51,-47.22 611.44,-36.12 622.11,-26.95"/>
<polygon fill="#63b8ff" stroke="#63b8ff" points="624.31,-29.68 629.61,-20.51 619.75,-24.37 624.31,-29.68"/>
</a>
</g>
</g>
</g>
</svg>

<g id="navigator" transform="translate(0 0)" fill="#404254">
  <rect fill="#f2f5e9" fill-opacity="0.5" stroke="#606060" stroke-width=".5" x="0" y="0" width="60" height="60"/>
  <use id="zoomplus" xlink:href="#zoomPlus" x="17" y="9" onmousedown="handleZoom(evt,'in')"/>
  <use id="zoomminus" xlink:href="#zoomMin" x="42" y="9" onmousedown="handleZoom(evt,'out')"/>
  <use id="reset" xlink:href="#resetDef" x="30" y="36" onmousedown="handleReset()"/>
   <use id="arrowup" xlink:href="#arrowUp" x="0" y="0" onmousedown="handlePan(0,-1)"/>
  <use id="arrowright" xlink:href="#arrowRight" x="0" y="0" onmousedown="handlePan(1,0)"/>
  <use id="arrowdown" xlink:href="#arrowDown" x="0" y="0" onmousedown="handlePan(0,1)"/>
  <use id="arrowleft" xlink:href="#arrowLeft" x="0" y="0" onmousedown="handlePan(-1,0)"/>
</g>
<svg viewBox="0 0 15 15" width="100%" height="30px" preserveAspectRatio="xMaxYMin meet">
 <g id="arrow_out" transform="scale(0.3 0.3)">
  <a xlink:href="_g_gaus_8cxx__incl_org.svg" target="_base">
   <rect id="button" ry="5" rx="5" y="6" x="6" height="38" width="38"
        fill="#f2f5e9" fill-opacity="0.5" stroke="#606060" stroke-width="1.0"/>
   <path id="arrow"
     d="M 11.500037,31.436501 C 11.940474,20.09759 22.043105,11.32322 32.158766,21.979434 L 37.068811,17.246167 C 37.068811,17.246167 37.088388,32 37.088388,32 L 22.160133,31.978069 C 22.160133,31.978069 26.997745,27.140456 26.997745,27.140456 C 18.528582,18.264221 13.291696,25.230495 11.500037,31.436501 z"
     style="fill:#404040;"/>
  </a>
 </g>
</svg>

<style type='text/css'>
<![CDATA[
[data-mouse-over-selected='false'] { opacity: 0.7; }
[data-mouse-over-selected='true']  { opacity: 1.0; }
]]>
</style>
<script type="application/ecmascript"><![CDATA[
document.addEventListener('DOMContentLoaded', (event) => {
  highlightEdges();
  highlightAdjacentNodes();
});
]]></script>
</svg>
