<?xml version="1.0" encoding="UTF-8" standalone="no"?>
<!DOCTYPE svg PUBLIC "-//W3C//DTD SVG 1.1//EN"
 "http://www.w3.org/Graphics/SVG/1.1/DTD/svg11.dtd">
<!-- Generated by graphviz version 12.2.0 (20241103.1931)
 -->
<!-- Title: GGaus.cxx Pages: 1 -->
<svg width="1639pt" height="193pt"
 viewBox="0.00 0.00 1639.00 193.00" xmlns="http://www.w3.org/2000/svg" xmlns:xlink="http://www.w3.org/1999/xlink">
<g id="graph0" class="graph" transform="scale(1 1) rotate(0) translate(4 189)">
<title>GGaus.cxx</title>
<!-- Node1 -->
<g id="Node000001" class="node">
<title>Node1</title>
<g id="a_Node000001"><a xlink:title=" ">
<polygon fill="#999999" stroke="#666666" points="355.75,-185 292.5,-185 292.5,-165.75 355.75,-165.75 355.75,-185"/>
<text text-anchor="middle" x="324.12" y="-171.5" font-family="Helvetica,sans-Serif" font-size="10.00">GGaus.cxx</text>
</a>
</g>
</g>
<!-- Node2 -->
<g id="Node000002" class="node">
<title>Node2</title>
<g id="a_Node000002"><a xlink:href="_g_gaus_8h.html" target="_top" xlink:title=" ">
<polygon fill="white" stroke="#666666" points="54.25,-129.75 0,-129.75 0,-110.5 54.25,-110.5 54.25,-129.75"/>
<text text-anchor="middle" x="27.12" y="-116.25" font-family="Helvetica,sans-Serif" font-size="10.00">GGaus.h</text>
</a>
</g>
</g>
<!-- Node1&#45;&gt;Node2 -->
<g id="edge1_Node000001_Node000002" class="edge">
<title>Node1&#45;&gt;Node2</title>
<g id="a_edge1_Node000001_Node000002"><a xlink:title=" ">
<path fill="none" stroke="#63b8ff" d="M292.26,-169.62C244.98,-162.41 153.24,-147.86 65.79,-130.19"/>
<polygon fill="#63b8ff" stroke="#63b8ff" points="66.58,-126.78 56.08,-128.21 65.18,-133.64 66.58,-126.78"/>
</a>
</g>
</g>
<!-- Node4 -->
<g id="Node000004" class="node">
<title>Node4</title>
<g id="a_Node000004"><a xlink:title=" ">
<polygon fill="#e0e0e0" stroke="#999999" points="128,-129.75 72.25,-129.75 72.25,-110.5 128,-110.5 128,-129.75"/>
<text text-anchor="middle" x="100.12" y="-116.25" font-family="Helvetica,sans-Serif" font-size="10.00">TGraph.h</text>
</a>
</g>
</g>
<!-- Node1&#45;&gt;Node4 -->
<g id="edge3_Node000001_Node000004" class="edge">
<title>Node1&#45;&gt;Node4</title>
<g id="a_edge3_Node000001_Node000004"><a xlink:title=" ">
<path fill="none" stroke="#63b8ff" d="M292.03,-166.75C251.72,-157.16 182.59,-140.73 139.23,-130.42"/>
<polygon fill="#63b8ff" stroke="#63b8ff" points="140.28,-127.07 129.74,-128.16 138.66,-133.88 140.28,-127.07"/>
</a>
</g>
</g>
<!-- Node5 -->
<g id="Node000005" class="node">
<title>Node5</title>
<g id="a_Node000005"><a xlink:title=" ">
<polygon fill="#e0e0e0" stroke="#999999" points="226,-129.75 146.25,-129.75 146.25,-110.5 226,-110.5 226,-129.75"/>
<text text-anchor="middle" x="186.12" y="-116.25" font-family="Helvetica,sans-Serif" font-size="10.00">TVirtualFitter.h</text>
</a>
</g>
</g>
<!-- Node1&#45;&gt;Node5 -->
<g id="edge4_Node000001_Node000005" class="edge">
<title>Node1&#45;&gt;Node5</title>
<g id="a_edge4_Node000001_Node000005"><a xlink:title=" ">
<path fill="none" stroke="#63b8ff" d="M300.72,-165.34C278.61,-156.81 245.21,-143.92 220.16,-134.26"/>
<polygon fill="#63b8ff" stroke="#63b8ff" points="221.65,-131.08 211.06,-130.75 219.13,-137.61 221.65,-131.08"/>
</a>
</g>
</g>
<!-- Node6 -->
<g id="Node000006" class="node">
<title>Node6</title>
<g id="a_Node000006"><a xlink:title=" ">
<polygon fill="#e0e0e0" stroke="#999999" points="312.38,-129.75 243.88,-129.75 243.88,-110.5 312.38,-110.5 312.38,-129.75"/>
<text text-anchor="middle" x="278.12" y="-116.25" font-family="Helvetica,sans-Serif" font-size="10.00">TFitResult.h</text>
</a>
</g>
</g>
<!-- Node1&#45;&gt;Node6 -->
<g id="edge5_Node000001_Node000006" class="edge">
<title>Node1&#45;&gt;Node6</title>
<g id="a_edge5_Node000001_Node000006"><a xlink:title=" ">
<path fill="none" stroke="#63b8ff" d="M316.53,-165.58C310.24,-158.3 301.11,-147.73 293.33,-138.73"/>
<polygon fill="#63b8ff" stroke="#63b8ff" points="296.06,-136.53 286.88,-131.25 290.76,-141.11 296.06,-136.53"/>
</a>
</g>
</g>
<!-- Node7 -->
<g id="Node000007" class="node">
<title>Node7</title>
<g id="a_Node000007"><a xlink:title=" ">
<polygon fill="#e0e0e0" stroke="#999999" points="411.75,-129.75 330.5,-129.75 330.5,-110.5 411.75,-110.5 411.75,-129.75"/>
<text text-anchor="middle" x="371.12" y="-116.25" font-family="Helvetica,sans-Serif" font-size="10.00">TFitResultPtr.h</text>
</a>
</g>
</g>
<!-- Node1&#45;&gt;Node7 -->
<g id="edge6_Node000001_Node000007" class="edge">
<title>Node1&#45;&gt;Node7</title>
<g id="a_edge6_Node000001_Node000007"><a xlink:title=" ">
<path fill="none" stroke="#63b8ff" d="M331.89,-165.58C338.31,-158.3 347.64,-147.73 355.59,-138.73"/>
<polygon fill="#63b8ff" stroke="#63b8ff" points="358.2,-141.06 362.19,-131.24 352.95,-136.43 358.2,-141.06"/>
</a>
</g>
</g>
<!-- Node8 -->
<g id="Node000008" class="node">
<title>Node8</title>
<g id="a_Node000008"><a xlink:href="_globals_8h.html" target="_top" xlink:title=" ">
<polygon fill="white" stroke="#666666" points="1079.38,-129.75 1022.88,-129.75 1022.88,-110.5 1079.38,-110.5 1079.38,-129.75"/>
<text text-anchor="middle" x="1051.12" y="-116.25" font-family="Helvetica,sans-Serif" font-size="10.00">Globals.h</text>
</a>
</g>
</g>
<!-- Node1&#45;&gt;Node8 -->
<g id="edge7_Node000001_Node000008" class="edge">
<title>Node1&#45;&gt;Node8</title>
<g id="a_edge7_Node000001_Node000008"><a xlink:title=" ">
<path fill="none" stroke="#63b8ff" d="M355.83,-172.05C472.97,-163.47 881.26,-133.57 1011.13,-124.05"/>
<polygon fill="#63b8ff" stroke="#63b8ff" points="1011.24,-127.56 1020.95,-123.33 1010.72,-120.57 1011.24,-127.56"/>
</a>
</g>
</g>
<!-- Node23 -->
<g id="Node000023" class="node">
<title>Node23</title>
<g id="a_Node000023"><a xlink:href="_g_root_functions_8h.html" target="_top" xlink:title=" ">
<polygon fill="white" stroke="#666666" points="1416.12,-129.75 1322.12,-129.75 1322.12,-110.5 1416.12,-110.5 1416.12,-129.75"/>
<text text-anchor="middle" x="1369.12" y="-116.25" font-family="Helvetica,sans-Serif" font-size="10.00">GRootFunctions.h</text>
</a>
</g>
</g>
<!-- Node1&#45;&gt;Node23 -->
<g id="edge22_Node000001_Node000023" class="edge">
<title>Node1&#45;&gt;Node23</title>
<g id="a_edge22_Node000001_Node000023"><a xlink:title=" ">
<path fill="none" stroke="#63b8ff" d="M355.97,-172.75C502.96,-165.26 1116.9,-133.98 1310.43,-124.12"/>
<polygon fill="#63b8ff" stroke="#63b8ff" points="1310.44,-127.62 1320.24,-123.62 1310.08,-120.63 1310.44,-127.62"/>
</a>
</g>
</g>
<!-- Node25 -->
<g id="Node000025" class="node">
<title>Node25</title>
<g id="a_Node000025"><a xlink:href="_g_canvas_8h.html" target="_top" xlink:title=" ">
<polygon fill="white" stroke="#666666" points="494.12,-129.75 430.12,-129.75 430.12,-110.5 494.12,-110.5 494.12,-129.75"/>
<text text-anchor="middle" x="462.12" y="-116.25" font-family="Helvetica,sans-Serif" font-size="10.00">GCanvas.h</text>
</a>
</g>
</g>
<!-- Node1&#45;&gt;Node25 -->
<g id="edge24_Node000001_Node000025" class="edge">
<title>Node1&#45;&gt;Node25</title>
<g id="a_edge24_Node000001_Node000025"><a xlink:title=" ">
<path fill="none" stroke="#63b8ff" d="M347.53,-165.34C369.64,-156.81 403.04,-143.92 428.09,-134.26"/>
<polygon fill="#63b8ff" stroke="#63b8ff" points="429.12,-137.61 437.19,-130.75 426.6,-131.08 429.12,-137.61"/>
</a>
</g>
</g>
<!-- Node3 -->
<g id="Node000003" class="node">
<title>Node3</title>
<g id="a_Node000003"><a xlink:title=" ">
<polygon fill="#e0e0e0" stroke="#999999" points="47.5,-74.5 6.75,-74.5 6.75,-55.25 47.5,-55.25 47.5,-74.5"/>
<text text-anchor="middle" x="27.12" y="-61" font-family="Helvetica,sans-Serif" font-size="10.00">TF1.h</text>
</a>
</g>
</g>
<!-- Node2&#45;&gt;Node3 -->
<g id="edge2_Node000002_Node000003" class="edge">
<title>Node2&#45;&gt;Node3</title>
<g id="a_edge2_Node000002_Node000003"><a xlink:title=" ">
<path fill="none" stroke="#63b8ff" d="M27.12,-110.33C27.12,-103.82 27.12,-94.67 27.12,-86.37"/>
<polygon fill="#63b8ff" stroke="#63b8ff" points="30.63,-86.37 27.13,-76.37 23.63,-86.37 30.63,-86.37"/>
</a>
</g>
</g>
<!-- Node9 -->
<g id="Node000009" class="node">
<title>Node9</title>
<g id="a_Node000009"><a xlink:title=" ">
<polygon fill="#e0e0e0" stroke="#999999" points="673.88,-74.5 620.38,-74.5 620.38,-55.25 673.88,-55.25 673.88,-74.5"/>
<text text-anchor="middle" x="647.12" y="-61" font-family="Helvetica,sans-Serif" font-size="10.00">iostream</text>
</a>
</g>
</g>
<!-- Node8&#45;&gt;Node9 -->
<g id="edge8_Node000008_Node000009" class="edge">
<title>Node8&#45;&gt;Node9</title>
<g id="a_edge8_Node000008_Node000009"><a xlink:title=" ">
<path fill="none" stroke="#63b8ff" d="M1022.8,-116.8C962.55,-111.63 817.1,-97.89 685.27,-74.69"/>
<polygon fill="#63b8ff" stroke="#63b8ff" points="686.13,-71.29 675.67,-72.97 684.9,-78.18 686.13,-71.29"/>
</a>
</g>
</g>
<!-- Node10 -->
<g id="Node000010" class="node">
<title>Node10</title>
<g id="a_Node000010"><a xlink:title=" ">
<polygon fill="#e0e0e0" stroke="#999999" points="1004,-74.5 954.25,-74.5 954.25,-55.25 1004,-55.25 1004,-74.5"/>
<text text-anchor="middle" x="979.12" y="-61" font-family="Helvetica,sans-Serif" font-size="10.00">iomanip</text>
</a>
</g>
</g>
<!-- Node8&#45;&gt;Node10 -->
<g id="edge9_Node000008_Node000010" class="edge">
<title>Node8&#45;&gt;Node10</title>
<g id="a_edge9_Node000008_Node000010"><a xlink:title=" ">
<path fill="none" stroke="#63b8ff" d="M1038.91,-110.09C1028.3,-102.24 1012.69,-90.7 1000.08,-81.37"/>
<polygon fill="#63b8ff" stroke="#63b8ff" points="1002.5,-78.81 992.38,-75.67 998.33,-84.44 1002.5,-78.81"/>
</a>
</g>
</g>
<!-- Node11 -->
<g id="Node000011" class="node">
<title>Node11</title>
<g id="a_Node000011"><a xlink:title=" ">
<polygon fill="#e0e0e0" stroke="#999999" points="1080.12,-74.5 1022.12,-74.5 1022.12,-55.25 1080.12,-55.25 1080.12,-74.5"/>
<text text-anchor="middle" x="1051.12" y="-61" font-family="Helvetica,sans-Serif" font-size="10.00">stdexcept</text>
</a>
</g>
</g>
<!-- Node8&#45;&gt;Node11 -->
<g id="edge10_Node000008_Node000011" class="edge">
<title>Node8&#45;&gt;Node11</title>
<g id="a_edge10_Node000008_Node000011"><a xlink:title=" ">
<path fill="none" stroke="#63b8ff" d="M1051.12,-110.33C1051.12,-103.82 1051.12,-94.67 1051.12,-86.37"/>
<polygon fill="#63b8ff" stroke="#63b8ff" points="1054.63,-86.37 1051.13,-76.37 1047.63,-86.37 1054.63,-86.37"/>
</a>
</g>
</g>
<!-- Node12 -->
<g id="Node000012" class="node">
<title>Node12</title>
<g id="a_Node000012"><a xlink:title=" ">
<polygon fill="#e0e0e0" stroke="#999999" points="1138.12,-74.5 1098.12,-74.5 1098.12,-55.25 1138.12,-55.25 1138.12,-74.5"/>
<text text-anchor="middle" x="1118.12" y="-61" font-family="Helvetica,sans-Serif" font-size="10.00">string</text>
</a>
</g>
</g>
<!-- Node8&#45;&gt;Node12 -->
<g id="edge11_Node000008_Node000012" class="edge">
<title>Node8&#45;&gt;Node12</title>
<g id="a_edge11_Node000008_Node000012"><a xlink:title=" ">
<path fill="none" stroke="#63b8ff" d="M1062.49,-110.09C1072.17,-102.4 1086.32,-91.15 1097.93,-81.93"/>
<polygon fill="#63b8ff" stroke="#63b8ff" points="1100.09,-84.68 1105.74,-75.72 1095.74,-79.2 1100.09,-84.68"/>
</a>
</g>
</g>
<!-- Node13 -->
<g id="Node000013" class="node">
<title>Node13</title>
<g id="a_Node000013"><a xlink:title=" ">
<polygon fill="#e0e0e0" stroke="#999999" points="603.25,-19.25 561,-19.25 561,0 603.25,0 603.25,-19.25"/>
<text text-anchor="middle" x="582.12" y="-5.75" font-family="Helvetica,sans-Serif" font-size="10.00">cstdio</text>
</a>
</g>
</g>
<!-- Node8&#45;&gt;Node13 -->
<g id="edge12_Node000008_Node000013" class="edge">
<title>Node8&#45;&gt;Node13</title>
<g id="a_edge12_Node000008_Node000013"><a xlink:title=" ">
<path fill="none" stroke="#63b8ff" d="M1028.18,-110.01C1006.57,-101.3 973.39,-87.59 945.12,-74.5 927.95,-66.54 925.2,-60.89 907.12,-55.25 803.62,-22.93 674.32,-14 614.83,-11.55"/>
<polygon fill="#63b8ff" stroke="#63b8ff" points="615.2,-8.06 605.08,-11.18 614.94,-15.05 615.2,-8.06"/>
</a>
</g>
</g>
<!-- Node14 -->
<g id="Node000014" class="node">
<title>Node14</title>
<g id="a_Node000014"><a xlink:title=" ">
<polygon fill="#e0e0e0" stroke="#999999" points="1200.38,-74.5 1155.88,-74.5 1155.88,-55.25 1200.38,-55.25 1200.38,-74.5"/>
<text text-anchor="middle" x="1178.12" y="-61" font-family="Helvetica,sans-Serif" font-size="10.00">cstdlib</text>
</a>
</g>
</g>
<!-- Node8&#45;&gt;Node14 -->
<g id="edge13_Node000008_Node000014" class="edge">
<title>Node8&#45;&gt;Node14</title>
<g id="a_edge13_Node000008_Node000014"><a xlink:title=" ">
<path fill="none" stroke="#63b8ff" d="M1072.67,-110.09C1092.74,-101.68 1122.93,-89.02 1145.87,-79.4"/>
<polygon fill="#63b8ff" stroke="#63b8ff" points="1147.21,-82.63 1155.08,-75.54 1144.5,-76.18 1147.21,-82.63"/>
</a>
</g>
</g>
<!-- Node15 -->
<g id="Node000015" class="node">
<title>Node15</title>
<g id="a_Node000015"><a xlink:title=" ">
<polygon fill="#e0e0e0" stroke="#999999" points="1277.88,-74.5 1218.38,-74.5 1218.38,-55.25 1277.88,-55.25 1277.88,-74.5"/>
<text text-anchor="middle" x="1248.12" y="-61" font-family="Helvetica,sans-Serif" font-size="10.00">execinfo.h</text>
</a>
</g>
</g>
<!-- Node8&#45;&gt;Node15 -->
<g id="edge14_Node000008_Node000015" class="edge">
<title>Node8&#45;&gt;Node15</title>
<g id="a_edge14_Node000008_Node000015"><a xlink:title=" ">
<path fill="none" stroke="#63b8ff" d="M1079.77,-111.38C1113.38,-102.3 1169.33,-87.17 1207.43,-76.87"/>
<polygon fill="#63b8ff" stroke="#63b8ff" points="1207.95,-80.36 1216.69,-74.37 1206.13,-73.6 1207.95,-80.36"/>
</a>
</g>
</g>
<!-- Node16 -->
<g id="Node000016" class="node">
<title>Node16</title>
<g id="a_Node000016"><a xlink:title=" ">
<polygon fill="#e0e0e0" stroke="#999999" points="1346.38,-74.5 1295.88,-74.5 1295.88,-55.25 1346.38,-55.25 1346.38,-74.5"/>
<text text-anchor="middle" x="1321.12" y="-61" font-family="Helvetica,sans-Serif" font-size="10.00">cxxabi.h</text>
</a>
</g>
</g>
<!-- Node8&#45;&gt;Node16 -->
<g id="edge15_Node000008_Node000016" class="edge">
<title>Node8&#45;&gt;Node16</title>
<g id="a_edge15_Node000008_Node000016"><a xlink:title=" ">
<path fill="none" stroke="#63b8ff" d="M1079.58,-114.33C1122.04,-107.04 1204.75,-92.37 1284.34,-75.01"/>
<polygon fill="#63b8ff" stroke="#63b8ff" points="1285.05,-78.44 1294.07,-72.87 1283.55,-71.6 1285.05,-78.44"/>
</a>
</g>
</g>
<!-- Node17 -->
<g id="Node000017" class="node">
<title>Node17</title>
<g id="a_Node000017"><a xlink:title=" ">
<polygon fill="#e0e0e0" stroke="#999999" points="1415.75,-74.5 1364.5,-74.5 1364.5,-55.25 1415.75,-55.25 1415.75,-74.5"/>
<text text-anchor="middle" x="1390.12" y="-61" font-family="Helvetica,sans-Serif" font-size="10.00">sstream</text>
</a>
</g>
</g>
<!-- Node8&#45;&gt;Node17 -->
<g id="edge16_Node000008_Node000017" class="edge">
<title>Node8&#45;&gt;Node17</title>
<g id="a_edge16_Node000008_Node000017"><a xlink:title=" ">
<path fill="none" stroke="#63b8ff" d="M1079.78,-115.85C1132.02,-109.68 1246.44,-95.24 1352.92,-74.76"/>
<polygon fill="#63b8ff" stroke="#63b8ff" points="1353.56,-78.2 1362.71,-72.85 1352.22,-71.33 1353.56,-78.2"/>
</a>
</g>
</g>
<!-- Node18 -->
<g id="Node000018" class="node">
<title>Node18</title>
<g id="a_Node000018"><a xlink:title=" ">
<polygon fill="#e0e0e0" stroke="#999999" points="1470.62,-74.5 1433.62,-74.5 1433.62,-55.25 1470.62,-55.25 1470.62,-74.5"/>
<text text-anchor="middle" x="1452.12" y="-61" font-family="Helvetica,sans-Serif" font-size="10.00">array</text>
</a>
</g>
</g>
<!-- Node8&#45;&gt;Node18 -->
<g id="edge17_Node000008_Node000018" class="edge">
<title>Node8&#45;&gt;Node18</title>
<g id="a_edge17_Node000008_Node000018"><a xlink:title=" ">
<path fill="none" stroke="#63b8ff" d="M1079.58,-117.58C1140.78,-113.87 1289.53,-102.76 1422.22,-74.77"/>
<polygon fill="#63b8ff" stroke="#63b8ff" points="1422.85,-78.22 1431.89,-72.69 1421.37,-71.37 1422.85,-78.22"/>
</a>
</g>
</g>
<!-- Node19 -->
<g id="Node000019" class="node">
<title>Node19</title>
<g id="a_Node000019"><a xlink:title=" ">
<polygon fill="#e0e0e0" stroke="#999999" points="1539.38,-74.5 1488.88,-74.5 1488.88,-55.25 1539.38,-55.25 1539.38,-74.5"/>
<text text-anchor="middle" x="1514.12" y="-61" font-family="Helvetica,sans-Serif" font-size="10.00">memory</text>
</a>
</g>
</g>
<!-- Node8&#45;&gt;Node19 -->
<g id="edge18_Node000008_Node000019" class="edge">
<title>Node8&#45;&gt;Node19</title>
<g id="a_edge18_Node000008_Node000019"><a xlink:title=" ">
<path fill="none" stroke="#63b8ff" d="M1079.69,-117.59C1147.23,-113.65 1322.19,-101.67 1477.45,-74.74"/>
<polygon fill="#63b8ff" stroke="#63b8ff" points="1477.86,-78.22 1487.1,-73.04 1476.65,-71.33 1477.86,-78.22"/>
</a>
</g>
</g>
<!-- Node20 -->
<g id="Node000020" class="node">
<title>Node20</title>
<g id="a_Node000020"><a xlink:title=" ">
<polygon fill="#e0e0e0" stroke="#999999" points="742,-74.5 692.25,-74.5 692.25,-55.25 742,-55.25 742,-74.5"/>
<text text-anchor="middle" x="717.12" y="-61" font-family="Helvetica,sans-Serif" font-size="10.00">unistd.h</text>
</a>
</g>
</g>
<!-- Node8&#45;&gt;Node20 -->
<g id="edge19_Node000008_Node000020" class="edge">
<title>Node8&#45;&gt;Node20</title>
<g id="a_edge19_Node000008_Node000020"><a xlink:title=" ">
<path fill="none" stroke="#63b8ff" d="M1022.42,-115.83C970.65,-109.69 858.04,-95.36 753.39,-74.77"/>
<polygon fill="#63b8ff" stroke="#63b8ff" points="754.29,-71.38 743.8,-72.86 752.92,-78.25 754.29,-71.38"/>
</a>
</g>
</g>
<!-- Node21 -->
<g id="Node000021" class="node">
<title>Node21</title>
<g id="a_Node000021"><a xlink:title=" ">
<polygon fill="#e0e0e0" stroke="#999999" points="819.88,-74.5 760.38,-74.5 760.38,-55.25 819.88,-55.25 819.88,-74.5"/>
<text text-anchor="middle" x="790.12" y="-61" font-family="Helvetica,sans-Serif" font-size="10.00">sys/wait.h</text>
</a>
</g>
</g>
<!-- Node8&#45;&gt;Node21 -->
<g id="edge20_Node000008_Node000021" class="edge">
<title>Node8&#45;&gt;Node21</title>
<g id="a_edge20_Node000008_Node000021"><a xlink:title=" ">
<path fill="none" stroke="#63b8ff" d="M1022.7,-113.59C982.42,-105.72 906.14,-90.65 831.36,-74.94"/>
<polygon fill="#63b8ff" stroke="#63b8ff" points="832.33,-71.57 821.83,-72.93 830.89,-78.42 832.33,-71.57"/>
</a>
</g>
</g>
<!-- Node22 -->
<g id="Node000022" class="node">
<title>Node22</title>
<g id="a_Node000022"><a xlink:title=" ">
<polygon fill="#e0e0e0" stroke="#999999" points="898.25,-74.5 838,-74.5 838,-55.25 898.25,-55.25 898.25,-74.5"/>
<text text-anchor="middle" x="868.12" y="-61" font-family="Helvetica,sans-Serif" font-size="10.00">sys/prctl.h</text>
</a>
</g>
</g>
<!-- Node8&#45;&gt;Node22 -->
<g id="edge21_Node000008_Node000022" class="edge">
<title>Node8&#45;&gt;Node22</title>
<g id="a_edge21_Node000008_Node000022"><a xlink:title=" ">
<path fill="none" stroke="#63b8ff" d="M1022.53,-110.8C992.14,-101.96 943.82,-87.9 909.32,-77.86"/>
<polygon fill="#63b8ff" stroke="#63b8ff" points="910.68,-74.61 900.11,-75.18 908.73,-81.34 910.68,-74.61"/>
</a>
</g>
</g>
<!-- Node24 -->
<g id="Node000024" class="node">
<title>Node24</title>
<g id="a_Node000024"><a xlink:title=" ">
<polygon fill="#e0e0e0" stroke="#999999" points="1631,-74.5 1557.25,-74.5 1557.25,-55.25 1631,-55.25 1631,-74.5"/>
<text text-anchor="middle" x="1594.12" y="-61" font-family="Helvetica,sans-Serif" font-size="10.00">RtypesCore.h</text>
</a>
</g>
</g>
<!-- Node23&#45;&gt;Node24 -->
<g id="edge23_Node000023_Node000024" class="edge">
<title>Node23&#45;&gt;Node24</title>
<g id="a_edge23_Node000023_Node000024"><a xlink:title=" ">
<path fill="none" stroke="#63b8ff" d="M1407.55,-110.03C1445.75,-100.99 1504.47,-87.09 1545.81,-77.31"/>
<polygon fill="#63b8ff" stroke="#63b8ff" points="1546.58,-80.72 1555.51,-75.01 1544.97,-73.91 1546.58,-80.72"/>
</a>
</g>
</g>
<!-- Node25&#45;&gt;Node9 -->
<g id="edge36_Node000025_Node000009" class="edge">
<title>Node25&#45;&gt;Node9</title>
<g id="a_edge36_Node000025_Node000009"><a xlink:title=" ">
<path fill="none" stroke="#63b8ff" d="M493.51,-110.09C525.46,-100.89 575.03,-86.63 609.17,-76.8"/>
<polygon fill="#63b8ff" stroke="#63b8ff" points="610.01,-80.2 618.65,-74.07 608.08,-73.47 610.01,-80.2"/>
</a>
</g>
</g>
<!-- Node26 -->
<g id="Node000026" class="node">
<title>Node26</title>
<g id="a_Node000026"><a xlink:href="_g_h2_base_8h.html" target="_top" xlink:title=" ">
<polygon fill="white" stroke="#666666" points="148.25,-74.5 82,-74.5 82,-55.25 148.25,-55.25 148.25,-74.5"/>
<text text-anchor="middle" x="115.12" y="-61" font-family="Helvetica,sans-Serif" font-size="10.00">GH2Base.h</text>
</a>
</g>
</g>
<!-- Node25&#45;&gt;Node26 -->
<g id="edge25_Node000025_Node000026" class="edge">
<title>Node25&#45;&gt;Node26</title>
<g id="a_edge25_Node000025_Node000026"><a xlink:title=" ">
<path fill="none" stroke="#63b8ff" d="M429.94,-112.13C426.96,-111.55 423.99,-111 421.12,-110.5 307.97,-90.91 275.79,-94.19 159.68,-74.83"/>
<polygon fill="#63b8ff" stroke="#63b8ff" points="160.49,-71.42 150.05,-73.2 159.33,-78.32 160.49,-71.42"/>
</a>
</g>
</g>
<!-- Node30 -->
<g id="Node000030" class="node">
<title>Node30</title>
<g id="a_Node000030"><a xlink:title=" ">
<polygon fill="#e0e0e0" stroke="#999999" points="223.75,-74.5 166.5,-74.5 166.5,-55.25 223.75,-55.25 223.75,-74.5"/>
<text text-anchor="middle" x="195.12" y="-61" font-family="Helvetica,sans-Serif" font-size="10.00">TROOT.h</text>
</a>
</g>
</g>
<!-- Node25&#45;&gt;Node30 -->
<g id="edge30_Node000025_Node000030" class="edge">
<title>Node25&#45;&gt;Node30</title>
<g id="a_edge30_Node000025_Node000030"><a xlink:title=" ">
<path fill="none" stroke="#63b8ff" d="M429.91,-112.29C426.94,-111.68 423.98,-111.07 421.12,-110.5 341.22,-94.45 318.3,-92.1 235.4,-74.92"/>
<polygon fill="#63b8ff" stroke="#63b8ff" points="236.13,-71.49 225.63,-72.88 234.71,-78.35 236.13,-71.49"/>
</a>
</g>
</g>
<!-- Node31 -->
<g id="Node000031" class="node">
<title>Node31</title>
<g id="a_Node000031"><a xlink:title=" ">
<polygon fill="#e0e0e0" stroke="#999999" points="304.38,-74.5 241.88,-74.5 241.88,-55.25 304.38,-55.25 304.38,-74.5"/>
<text text-anchor="middle" x="273.12" y="-61" font-family="Helvetica,sans-Serif" font-size="10.00">TCanvas.h</text>
</a>
</g>
</g>
<!-- Node25&#45;&gt;Node31 -->
<g id="edge31_Node000025_Node000031" class="edge">
<title>Node25&#45;&gt;Node31</title>
<g id="a_edge31_Node000025_Node000031"><a xlink:title=" ">
<path fill="none" stroke="#63b8ff" d="M430.06,-110.09C398.51,-101.2 350.15,-87.58 315.46,-77.8"/>
<polygon fill="#63b8ff" stroke="#63b8ff" points="316.74,-74.53 306.17,-75.19 314.85,-81.27 316.74,-74.53"/>
</a>
</g>
</g>
<!-- Node32 -->
<g id="Node000032" class="node">
<title>Node32</title>
<g id="a_Node000032"><a xlink:title=" ">
<polygon fill="#e0e0e0" stroke="#999999" points="405.5,-74.5 322.75,-74.5 322.75,-55.25 405.5,-55.25 405.5,-74.5"/>
<text text-anchor="middle" x="364.12" y="-61" font-family="Helvetica,sans-Serif" font-size="10.00">TRootCanvas.h</text>
</a>
</g>
</g>
<!-- Node25&#45;&gt;Node32 -->
<g id="edge32_Node000025_Node000032" class="edge">
<title>Node25&#45;&gt;Node32</title>
<g id="a_edge32_Node000025_Node000032"><a xlink:title=" ">
<path fill="none" stroke="#63b8ff" d="M445.5,-110.09C430.44,-101.91 407.98,-89.71 390.47,-80.19"/>
<polygon fill="#63b8ff" stroke="#63b8ff" points="392.62,-77.37 382.16,-75.68 389.28,-83.52 392.62,-77.37"/>
</a>
</g>
</g>
<!-- Node33 -->
<g id="Node000033" class="node">
<title>Node33</title>
<g id="a_Node000033"><a xlink:title=" ">
<polygon fill="#e0e0e0" stroke="#999999" points="466.25,-74.5 424,-74.5 424,-55.25 466.25,-55.25 466.25,-74.5"/>
<text text-anchor="middle" x="445.12" y="-61" font-family="Helvetica,sans-Serif" font-size="10.00">TH1.h</text>
</a>
</g>
</g>
<!-- Node25&#45;&gt;Node33 -->
<g id="edge33_Node000025_Node000033" class="edge">
<title>Node25&#45;&gt;Node33</title>
<g id="a_edge33_Node000025_Node000033"><a xlink:title=" ">
<path fill="none" stroke="#63b8ff" d="M459.32,-110.33C457.19,-103.67 454.18,-94.24 451.48,-85.78"/>
<polygon fill="#63b8ff" stroke="#63b8ff" points="454.83,-84.76 448.45,-76.3 448.16,-86.89 454.83,-84.76"/>
</a>
</g>
</g>
<!-- Node34 -->
<g id="Node000034" class="node">
<title>Node34</title>
<g id="a_Node000034"><a xlink:title=" ">
<polygon fill="#e0e0e0" stroke="#999999" points="532.25,-74.5 484,-74.5 484,-55.25 532.25,-55.25 532.25,-74.5"/>
<text text-anchor="middle" x="508.12" y="-61" font-family="Helvetica,sans-Serif" font-size="10.00">TLine.h</text>
</a>
</g>
</g>
<!-- Node25&#45;&gt;Node34 -->
<g id="edge34_Node000025_Node000034" class="edge">
<title>Node25&#45;&gt;Node34</title>
<g id="a_edge34_Node000025_Node000034"><a xlink:title=" ">
<path fill="none" stroke="#63b8ff" d="M469.72,-110.33C476.01,-103.05 485.14,-92.48 492.92,-83.48"/>
<polygon fill="#63b8ff" stroke="#63b8ff" points="495.49,-85.86 499.37,-76 490.19,-81.28 495.49,-85.86"/>
</a>
</g>
</g>
<!-- Node35 -->
<g id="Node000035" class="node">
<title>Node35</title>
<g id="a_Node000035"><a xlink:title=" ">
<polygon fill="#e0e0e0" stroke="#999999" points="602.12,-74.5 550.12,-74.5 550.12,-55.25 602.12,-55.25 602.12,-74.5"/>
<text text-anchor="middle" x="576.12" y="-61" font-family="Helvetica,sans-Serif" font-size="10.00">TCutG.h</text>
</a>
</g>
</g>
<!-- Node25&#45;&gt;Node35 -->
<g id="edge35_Node000025_Node000035" class="edge">
<title>Node25&#45;&gt;Node35</title>
<g id="a_edge35_Node000025_Node000035"><a xlink:title=" ">
<path fill="none" stroke="#63b8ff" d="M481.46,-110.09C499.23,-101.79 525.84,-89.36 546.33,-79.79"/>
<polygon fill="#63b8ff" stroke="#63b8ff" points="547.74,-83 555.32,-75.59 544.78,-76.65 547.74,-83"/>
</a>
</g>
</g>
<!-- Node26&#45;&gt;Node13 -->
<g id="edge26_Node000026_Node000013" class="edge">
<title>Node26&#45;&gt;Node13</title>
<g id="a_edge26_Node000026_Node000013"><a xlink:title=" ">
<path fill="none" stroke="#63b8ff" d="M148.54,-56.71C151.44,-56.18 154.33,-55.68 157.12,-55.25 302.67,-32.72 478.05,-18.3 549.48,-12.96"/>
<polygon fill="#63b8ff" stroke="#63b8ff" points="549.58,-16.46 559.29,-12.23 549.06,-9.48 549.58,-16.46"/>
</a>
</g>
</g>
<!-- Node27 -->
<g id="Node000027" class="node">
<title>Node27</title>
<g id="a_Node000027"><a xlink:title=" ">
<polygon fill="#e0e0e0" stroke="#999999" points="75.62,-19.25 14.63,-19.25 14.63,0 75.62,0 75.62,-19.25"/>
<text text-anchor="middle" x="45.12" y="-5.75" font-family="Helvetica,sans-Serif" font-size="10.00">TNamed.h</text>
</a>
</g>
</g>
<!-- Node26&#45;&gt;Node27 -->
<g id="edge27_Node000026_Node000027" class="edge">
<title>Node26&#45;&gt;Node27</title>
<g id="a_edge27_Node000026_Node000027"><a xlink:title=" ">
<path fill="none" stroke="#63b8ff" d="M103.25,-54.84C93.03,-47.07 78.05,-35.67 65.86,-26.4"/>
<polygon fill="#63b8ff" stroke="#63b8ff" points="68.11,-23.71 58.03,-20.44 63.87,-29.28 68.11,-23.71"/>
</a>
</g>
</g>
<!-- Node28 -->
<g id="Node000028" class="node">
<title>Node28</title>
<g id="a_Node000028"><a xlink:title=" ">
<polygon fill="#e0e0e0" stroke="#999999" points="136.25,-19.25 94,-19.25 94,0 136.25,0 136.25,-19.25"/>
<text text-anchor="middle" x="115.12" y="-5.75" font-family="Helvetica,sans-Serif" font-size="10.00">TH2.h</text>
</a>
</g>
</g>
<!-- Node26&#45;&gt;Node28 -->
<g id="edge28_Node000026_Node000028" class="edge">
<title>Node26&#45;&gt;Node28</title>
<g id="a_edge28_Node000026_Node000028"><a xlink:title=" ">
<path fill="none" stroke="#63b8ff" d="M115.12,-55.08C115.12,-48.57 115.12,-39.42 115.12,-31.12"/>
<polygon fill="#63b8ff" stroke="#63b8ff" points="118.63,-31.12 115.13,-21.12 111.63,-31.12 118.63,-31.12"/>
</a>
</g>
</g>
<!-- Node29 -->
<g id="Node000029" class="node">
<title>Node29</title>
<g id="a_Node000029"><a xlink:title=" ">
<polygon fill="#e0e0e0" stroke="#999999" points="200.12,-19.25 154.12,-19.25 154.12,0 200.12,0 200.12,-19.25"/>
<text text-anchor="middle" x="177.12" y="-5.75" font-family="Helvetica,sans-Serif" font-size="10.00">TList.h</text>
</a>
</g>
</g>
<!-- Node26&#45;&gt;Node29 -->
<g id="edge29_Node000026_Node000029" class="edge">
<title>Node26&#45;&gt;Node29</title>
<g id="a_edge29_Node000026_Node000029"><a xlink:title=" ">
<path fill="none" stroke="#63b8ff" d="M125.64,-54.84C134.51,-47.22 147.44,-36.12 158.11,-26.95"/>
<polygon fill="#63b8ff" stroke="#63b8ff" points="160.31,-29.68 165.61,-20.51 155.75,-24.37 160.31,-29.68"/>
</a>
</g>
</g>
</g>
</svg>
