<?xml version="1.0" encoding="UTF-8" standalone="no"?>
<!DOCTYPE svg PUBLIC "-//W3C//DTD SVG 1.1//EN"
 "http://www.w3.org/Graphics/SVG/1.1/DTD/svg11.dtd">
<!-- Generated by graphviz version 12.2.0 (20241103.1931)
 -->
<!-- Title: GH2D.cxx Pages: 1 -->
<!--zoomable 248 -->

<svg id="main" version="1.1" xmlns="http://www.w3.org/2000/svg" xmlns:xlink="http://www.w3.org/1999/xlink" xml:space="preserve" onload="init(evt)">

<style type="text/css"><![CDATA[
.node, .edge {opacity: 0.7;}
.node.selected, .edge.selected {opacity: 1;}
.edge:hover path { stroke: red; }
.edge:hover polygon { stroke: red; fill: red; }
]]></style>

<defs>
  <circle id="rim" cx="0" cy="0" r="7"/>
  <circle id="rim2" cx="0" cy="0" r="3.5"/>
  <g id="zoomPlus">
    <use xlink:href="#rim" fill="#404040"><set attributeName="fill" to="#808080" begin="zoomplus.mouseover" end="zoomplus.mouseout"/></use>
    <path d="M-4,0h8M0,-4v8" fill="none" stroke="white" stroke-width="1.5" pointer-events="none"/>
  </g>
  <g id="zoomMin">
    <use xlink:href="#rim" fill="#404040"><set attributeName="fill" to="#808080" begin="zoomminus.mouseover" end="zoomminus.mouseout"/></use>
    <path d="M-4,0h8" fill="none" stroke="white" stroke-width="1.5" pointer-events="none"/>
  </g>
  <g id="arrowUp" transform="translate(30 24)">
    <use xlink:href="#rim"/>
    <path pointer-events="none" fill="none" stroke="white" stroke-width="1.5" d="M0,-3.0v7 M-2.5,-0.5L0,-3.0L2.5,-0.5"/>
  </g>
  <g id="arrowRight" transform="rotate(90) translate(36 -43)">
    <use xlink:href="#rim"/>
    <path pointer-events="none" fill="none" stroke="white" stroke-width="1.5" d="M0,-3.0v7 M-2.5,-0.5L0,-3.0L2.5,-0.5"/>
  </g>
  <g id="arrowDown" transform="rotate(180) translate(-30 -48)">
    <use xlink:href="#rim"/>
    <path pointer-events="none" fill="none" stroke="white" stroke-width="1.5" d="M0,-3.0v7 M-2.5,-0.5L0,-3.0L2.5,-0.5"/>
  </g>
  <g id="arrowLeft" transform="rotate(270) translate(-36 17)">
    <use xlink:href="#rim"/>
    <path pointer-events="none" fill="none" stroke="white" stroke-width="1.5" d="M0,-3.0v7 M-2.5,-0.5L0,-3.0L2.5,-0.5"/>
  </g>
  <g id="resetDef">
    <use xlink:href="#rim2" fill="#404040"><set attributeName="fill" to="#808080" begin="reset.mouseover" end="reset.mouseout"/></use>
  </g>
</defs>
<script type="application/ecmascript">
var viewWidth = 1630;
var viewHeight = 248;
var sectionId = 'dynsection-0';
</script>
<script type="application/ecmascript" xlink:href="svg.min.js"/>
<svg id="graph" class="graph">
<g id="viewport">
<title>GH2D.cxx</title>
<!-- Node1 -->
<g id="Node000001" class="node">
<title>Node1</title>
<g id="a_Node000001"><a xlink:title=" ">
<polygon fill="#999999" stroke="#666666" points="604.75,-240.25 545.25,-240.25 545.25,-221 604.75,-221 604.75,-240.25"/>
<text text-anchor="middle" x="575" y="-226.75" font-family="Helvetica,sans-Serif" font-size="10.00">GH2D.cxx</text>
</a>
</g>
</g>
<!-- Node2 -->
<g id="Node000002" class="node">
<title>Node2</title>
<g id="a_Node000002"><a xlink:href="_g_h2_d_8h.html" target="_top" xlink:title=" ">
<polygon fill="white" stroke="#666666" points="238.25,-129.75 187.75,-129.75 187.75,-110.5 238.25,-110.5 238.25,-129.75"/>
<text text-anchor="middle" x="213" y="-116.25" font-family="Helvetica,sans-Serif" font-size="10.00">GH2D.h</text>
</a>
</g>
</g>
<!-- Node1&#45;&gt;Node2 -->
<g id="edge1_Node000001_Node000002" class="edge">
<title>Node1&#45;&gt;Node2</title>
<g id="a_edge1_Node000001_Node000002"><a xlink:title=" ">
<path fill="none" stroke="#63b8ff" d="M544.76,-220.56C478.46,-200.69 320.58,-153.37 249.17,-131.97"/>
<polygon fill="#63b8ff" stroke="#63b8ff" points="250.52,-128.72 239.93,-129.2 248.51,-135.42 250.52,-128.72"/>
</a>
</g>
</g>
<!-- Node11 -->
<g id="Node000011" class="node">
<title>Node11</title>
<g id="a_Node000011"><a xlink:title=" ">
<polygon fill="#e0e0e0" stroke="#999999" points="1608.75,-74.5 1555.25,-74.5 1555.25,-55.25 1608.75,-55.25 1608.75,-74.5"/>
<text text-anchor="middle" x="1582" y="-61" font-family="Helvetica,sans-Serif" font-size="10.00">iostream</text>
</a>
</g>
</g>
<!-- Node1&#45;&gt;Node11 -->
<g id="edge14_Node000001_Node000011" class="edge">
<title>Node1&#45;&gt;Node11</title>
<g id="a_edge14_Node000001_Node000011"><a xlink:title=" ">
<path fill="none" stroke="#63b8ff" d="M604.99,-225.77C723.33,-210.35 1169.29,-150.44 1543.86,-75.02"/>
<polygon fill="#63b8ff" stroke="#63b8ff" points="1544.33,-78.5 1553.43,-73.09 1542.94,-71.64 1544.33,-78.5"/>
</a>
</g>
</g>
<!-- Node12 -->
<g id="Node000012" class="node">
<title>Node12</title>
<g id="a_Node000012"><a xlink:title=" ">
<polygon fill="#e0e0e0" stroke="#999999" points="647.88,-185 580.12,-185 580.12,-165.75 647.88,-165.75 647.88,-185"/>
<text text-anchor="middle" x="614" y="-171.5" font-family="Helvetica,sans-Serif" font-size="10.00">TDirectory.h</text>
</a>
</g>
</g>
<!-- Node1&#45;&gt;Node12 -->
<g id="edge15_Node000001_Node000012" class="edge">
<title>Node1&#45;&gt;Node12</title>
<g id="a_edge15_Node000001_Node000012"><a xlink:title=" ">
<path fill="none" stroke="#63b8ff" d="M581.44,-220.83C586.66,-213.71 594.19,-203.43 600.69,-194.55"/>
<polygon fill="#63b8ff" stroke="#63b8ff" points="603.44,-196.72 606.53,-186.58 597.79,-192.58 603.44,-196.72"/>
</a>
</g>
</g>
<!-- Node13 -->
<g id="Node000013" class="node">
<title>Node13</title>
<g id="a_Node000013"><a xlink:href="_g_h1_d_8h.html" target="_top" xlink:title=" ">
<polygon fill="white" stroke="#666666" points="562.25,-185 511.75,-185 511.75,-165.75 562.25,-165.75 562.25,-185"/>
<text text-anchor="middle" x="537" y="-171.5" font-family="Helvetica,sans-Serif" font-size="10.00">GH1D.h</text>
</a>
</g>
</g>
<!-- Node1&#45;&gt;Node13 -->
<g id="edge16_Node000001_Node000013" class="edge">
<title>Node1&#45;&gt;Node13</title>
<g id="a_edge16_Node000001_Node000013"><a xlink:title=" ">
<path fill="none" stroke="#63b8ff" d="M568.73,-220.83C563.64,-213.71 556.3,-203.43 549.97,-194.55"/>
<polygon fill="#63b8ff" stroke="#63b8ff" points="552.95,-192.7 544.29,-186.59 547.25,-196.76 552.95,-192.7"/>
</a>
</g>
</g>
<!-- Node3 -->
<g id="Node000003" class="node">
<title>Node3</title>
<g id="a_Node000003"><a xlink:title=" ">
<polygon fill="#e0e0e0" stroke="#999999" points="524.12,-19.25 481.88,-19.25 481.88,0 524.12,0 524.12,-19.25"/>
<text text-anchor="middle" x="503" y="-5.75" font-family="Helvetica,sans-Serif" font-size="10.00">cstdio</text>
</a>
</g>
</g>
<!-- Node2&#45;&gt;Node3 -->
<g id="edge2_Node000002_Node000003" class="edge">
<title>Node2&#45;&gt;Node3</title>
<g id="a_edge2_Node000002_Node000003"><a xlink:title=" ">
<path fill="none" stroke="#63b8ff" d="M200.88,-110.19C184.67,-97.18 159.65,-72.68 175,-55.25 216.75,-7.83 394.59,-29.08 457,-19.25 461.39,-18.56 466,-17.77 470.54,-16.96"/>
<polygon fill="#63b8ff" stroke="#63b8ff" points="470.83,-20.46 480.03,-15.2 469.56,-13.58 470.83,-20.46"/>
</a>
</g>
</g>
<!-- Node4 -->
<g id="Node000004" class="node">
<title>Node4</title>
<g id="a_Node000004"><a xlink:title=" ">
<polygon fill="#e0e0e0" stroke="#999999" points="387.5,-19.25 326.5,-19.25 326.5,0 387.5,0 387.5,-19.25"/>
<text text-anchor="middle" x="357" y="-5.75" font-family="Helvetica,sans-Serif" font-size="10.00">TNamed.h</text>
</a>
</g>
</g>
<!-- Node2&#45;&gt;Node4 -->
<g id="edge3_Node000002_Node000004" class="edge">
<title>Node2&#45;&gt;Node4</title>
<g id="a_edge3_Node000002_Node000004"><a xlink:title=" ">
<path fill="none" stroke="#63b8ff" d="M187.45,-114.49C147.57,-106.17 77.71,-86.59 104,-55.25 130.45,-23.73 250.2,-14.46 315.02,-11.75"/>
<polygon fill="#63b8ff" stroke="#63b8ff" points="315.08,-15.25 324.94,-11.37 314.81,-8.25 315.08,-15.25"/>
</a>
</g>
</g>
<!-- Node5 -->
<g id="Node000005" class="node">
<title>Node5</title>
<g id="a_Node000005"><a xlink:title=" ">
<polygon fill="#e0e0e0" stroke="#999999" points="448.12,-19.25 405.88,-19.25 405.88,0 448.12,0 448.12,-19.25"/>
<text text-anchor="middle" x="427" y="-5.75" font-family="Helvetica,sans-Serif" font-size="10.00">TH2.h</text>
</a>
</g>
</g>
<!-- Node2&#45;&gt;Node5 -->
<g id="edge4_Node000002_Node000005" class="edge">
<title>Node2&#45;&gt;Node5</title>
<g id="a_edge4_Node000002_Node000005"><a xlink:title=" ">
<path fill="none" stroke="#63b8ff" d="M189.52,-110.17C162.23,-98.47 123.19,-76.91 142,-55.25 177.4,-14.47 323.58,-29.11 394.33,-18.96"/>
<polygon fill="#63b8ff" stroke="#63b8ff" points="394.67,-22.45 403.92,-17.28 393.46,-15.56 394.67,-22.45"/>
</a>
</g>
</g>
<!-- Node6 -->
<g id="Node000006" class="node">
<title>Node6</title>
<g id="a_Node000006"><a xlink:title=" ">
<polygon fill="#e0e0e0" stroke="#999999" points="640,-19.25 594,-19.25 594,0 640,0 640,-19.25"/>
<text text-anchor="middle" x="617" y="-5.75" font-family="Helvetica,sans-Serif" font-size="10.00">TList.h</text>
</a>
</g>
</g>
<!-- Node2&#45;&gt;Node6 -->
<g id="edge5_Node000002_Node000006" class="edge">
<title>Node2&#45;&gt;Node6</title>
<g id="a_edge5_Node000002_Node000006"><a xlink:title=" ">
<path fill="none" stroke="#63b8ff" d="M238.37,-114.71C301.23,-103.76 459.54,-76.11 465,-74.5 509.75,-61.31 559.13,-39.03 589.11,-24.57"/>
<polygon fill="#63b8ff" stroke="#63b8ff" points="590.42,-27.83 597.87,-20.3 587.34,-21.54 590.42,-27.83"/>
</a>
</g>
</g>
<!-- Node7 -->
<g id="Node000007" class="node">
<title>Node7</title>
<g id="a_Node000007"><a xlink:title=" ">
<polygon fill="#e0e0e0" stroke="#999999" points="334.25,-74.5 259.75,-74.5 259.75,-55.25 334.25,-55.25 334.25,-74.5"/>
<text text-anchor="middle" x="297" y="-61" font-family="Helvetica,sans-Serif" font-size="10.00">TVirtualPad.h</text>
</a>
</g>
</g>
<!-- Node2&#45;&gt;Node7 -->
<g id="edge6_Node000002_Node000007" class="edge">
<title>Node2&#45;&gt;Node7</title>
<g id="a_edge6_Node000002_Node000007"><a xlink:title=" ">
<path fill="none" stroke="#63b8ff" d="M227.25,-110.09C239.8,-102.14 258.33,-90.39 273.14,-81"/>
<polygon fill="#63b8ff" stroke="#63b8ff" points="274.83,-84.07 281.4,-75.76 271.08,-78.16 274.83,-84.07"/>
</a>
</g>
</g>
<!-- Node8 -->
<g id="Node000008" class="node">
<title>Node8</title>
<g id="a_Node000008"><a xlink:title=" ">
<polygon fill="#e0e0e0" stroke="#999999" points="241.62,-74.5 184.38,-74.5 184.38,-55.25 241.62,-55.25 241.62,-74.5"/>
<text text-anchor="middle" x="213" y="-61" font-family="Helvetica,sans-Serif" font-size="10.00">TFrame.h</text>
</a>
</g>
</g>
<!-- Node2&#45;&gt;Node8 -->
<g id="edge7_Node000002_Node000008" class="edge">
<title>Node2&#45;&gt;Node8</title>
<g id="a_edge7_Node000002_Node000008"><a xlink:title=" ">
<path fill="none" stroke="#63b8ff" d="M213,-110.33C213,-103.82 213,-94.67 213,-86.37"/>
<polygon fill="#63b8ff" stroke="#63b8ff" points="216.5,-86.37 213,-76.37 209.5,-86.37 216.5,-86.37"/>
</a>
</g>
</g>
<!-- Node9 -->
<g id="Node000009" class="node">
<title>Node9</title>
<g id="a_Node000009"><a xlink:title=" ">
<polygon fill="#e0e0e0" stroke="#999999" points="52,-74.5 0,-74.5 0,-55.25 52,-55.25 52,-74.5"/>
<text text-anchor="middle" x="26" y="-61" font-family="Helvetica,sans-Serif" font-size="10.00">TCutG.h</text>
</a>
</g>
</g>
<!-- Node2&#45;&gt;Node9 -->
<g id="edge8_Node000002_Node000009" class="edge">
<title>Node2&#45;&gt;Node9</title>
<g id="a_edge8_Node000002_Node000009"><a xlink:title=" ">
<path fill="none" stroke="#63b8ff" d="M187.39,-111.83C155.21,-102.67 99.75,-86.88 62.97,-76.4"/>
<polygon fill="#63b8ff" stroke="#63b8ff" points="64.23,-73.12 53.66,-73.75 62.32,-79.86 64.23,-73.12"/>
</a>
</g>
</g>
<!-- Node10 -->
<g id="Node000010" class="node">
<title>Node10</title>
<g id="a_Node000010"><a xlink:href="_g_h2_base_8h.html" target="_top" xlink:title=" ">
<polygon fill="white" stroke="#666666" points="456.12,-74.5 389.88,-74.5 389.88,-55.25 456.12,-55.25 456.12,-74.5"/>
<text text-anchor="middle" x="423" y="-61" font-family="Helvetica,sans-Serif" font-size="10.00">GH2Base.h</text>
</a>
</g>
</g>
<!-- Node2&#45;&gt;Node10 -->
<g id="edge9_Node000002_Node000010" class="edge">
<title>Node2&#45;&gt;Node10</title>
<g id="a_edge9_Node000002_Node000010"><a xlink:title=" ">
<path fill="none" stroke="#63b8ff" d="M238.33,-112.7C273.08,-103.89 336.07,-87.92 378.71,-77.11"/>
<polygon fill="#63b8ff" stroke="#63b8ff" points="379.32,-80.56 388.15,-74.71 377.6,-73.78 379.32,-80.56"/>
</a>
</g>
</g>
<!-- Node10&#45;&gt;Node3 -->
<g id="edge10_Node000010_Node000003" class="edge">
<title>Node10&#45;&gt;Node3</title>
<g id="a_edge10_Node000010_Node000003"><a xlink:title=" ">
<path fill="none" stroke="#63b8ff" d="M436.57,-54.84C448.41,-46.96 465.84,-35.36 479.87,-26.02"/>
<polygon fill="#63b8ff" stroke="#63b8ff" points="481.72,-29 488.1,-20.54 477.84,-23.17 481.72,-29"/>
</a>
</g>
</g>
<!-- Node10&#45;&gt;Node4 -->
<g id="edge11_Node000010_Node000004" class="edge">
<title>Node10&#45;&gt;Node4</title>
<g id="a_edge11_Node000010_Node000004"><a xlink:title=" ">
<path fill="none" stroke="#63b8ff" d="M411.8,-54.84C402.26,-47.15 388.33,-35.9 376.89,-26.68"/>
<polygon fill="#63b8ff" stroke="#63b8ff" points="379.19,-24.03 369.21,-20.48 374.79,-29.48 379.19,-24.03"/>
</a>
</g>
</g>
<!-- Node10&#45;&gt;Node5 -->
<g id="edge12_Node000010_Node000005" class="edge">
<title>Node10&#45;&gt;Node5</title>
<g id="a_edge12_Node000010_Node000005"><a xlink:title=" ">
<path fill="none" stroke="#63b8ff" d="M423.66,-55.08C424.16,-48.49 424.85,-39.21 425.48,-30.82"/>
<polygon fill="#63b8ff" stroke="#63b8ff" points="428.95,-31.35 426.21,-21.12 421.97,-30.83 428.95,-31.35"/>
</a>
</g>
</g>
<!-- Node10&#45;&gt;Node6 -->
<g id="edge13_Node000010_Node000006" class="edge">
<title>Node10&#45;&gt;Node6</title>
<g id="a_edge13_Node000010_Node000006"><a xlink:title=" ">
<path fill="none" stroke="#63b8ff" d="M455.91,-54.84C491.22,-45.15 547.04,-29.83 582.83,-20"/>
<polygon fill="#63b8ff" stroke="#63b8ff" points="583.52,-23.44 592.24,-17.42 581.67,-16.69 583.52,-23.44"/>
</a>
</g>
</g>
<!-- Node13&#45;&gt;Node6 -->
<g id="edge21_Node000013_Node000006" class="edge">
<title>Node13&#45;&gt;Node6</title>
<g id="a_edge21_Node000013_Node000006"><a xlink:title=" ">
<path fill="none" stroke="#63b8ff" d="M562.51,-167.36C565.36,-166.74 568.23,-166.19 571,-165.75 686.36,-147.61 1540.28,-161.66 1618,-74.5 1623.69,-68.11 1623.91,-61.43 1618,-55.25 1583.91,-19.61 824.51,-12.09 651.75,-10.84"/>
<polygon fill="#63b8ff" stroke="#63b8ff" points="651.88,-7.34 641.86,-10.77 651.84,-14.34 651.88,-7.34"/>
</a>
</g>
</g>
<!-- Node14 -->
<g id="Node000014" class="node">
<title>Node14</title>
<g id="a_Node000014"><a xlink:title=" ">
<polygon fill="#e0e0e0" stroke="#999999" points="590.12,-129.75 547.88,-129.75 547.88,-110.5 590.12,-110.5 590.12,-129.75"/>
<text text-anchor="middle" x="569" y="-116.25" font-family="Helvetica,sans-Serif" font-size="10.00">TH1.h</text>
</a>
</g>
</g>
<!-- Node13&#45;&gt;Node14 -->
<g id="edge17_Node000013_Node000014" class="edge">
<title>Node13&#45;&gt;Node14</title>
<g id="a_edge17_Node000013_Node000014"><a xlink:title=" ">
<path fill="none" stroke="#63b8ff" d="M542.28,-165.58C546.47,-158.61 552.48,-148.62 557.73,-139.87"/>
<polygon fill="#63b8ff" stroke="#63b8ff" points="560.67,-141.78 562.82,-131.41 554.67,-138.18 560.67,-141.78"/>
</a>
</g>
</g>
<!-- Node15 -->
<g id="Node000015" class="node">
<title>Node15</title>
<g id="a_Node000015"><a xlink:title=" ">
<polygon fill="#e0e0e0" stroke="#999999" points="1128.25,-129.75 1083.75,-129.75 1083.75,-110.5 1128.25,-110.5 1128.25,-129.75"/>
<text text-anchor="middle" x="1106" y="-116.25" font-family="Helvetica,sans-Serif" font-size="10.00">TRef.h</text>
</a>
</g>
</g>
<!-- Node13&#45;&gt;Node15 -->
<g id="edge18_Node000013_Node000015" class="edge">
<title>Node13&#45;&gt;Node15</title>
<g id="a_edge18_Node000013_Node000015"><a xlink:title=" ">
<path fill="none" stroke="#63b8ff" d="M562.52,-167.39C565.37,-166.76 568.23,-166.2 571,-165.75 788.59,-130.65 850.94,-165.88 1072.06,-129.69"/>
<polygon fill="#63b8ff" stroke="#63b8ff" points="1072.61,-133.14 1081.9,-128.04 1071.46,-126.24 1072.61,-133.14"/>
</a>
</g>
</g>
<!-- Node16 -->
<g id="Node000016" class="node">
<title>Node16</title>
<g id="a_Node000016"><a xlink:title=" ">
<polygon fill="#e0e0e0" stroke="#999999" points="318.38,-129.75 271.62,-129.75 271.62,-110.5 318.38,-110.5 318.38,-129.75"/>
<text text-anchor="middle" x="295" y="-116.25" font-family="Helvetica,sans-Serif" font-size="10.00">TPad.h</text>
</a>
</g>
</g>
<!-- Node13&#45;&gt;Node16 -->
<g id="edge19_Node000013_Node000016" class="edge">
<title>Node13&#45;&gt;Node16</title>
<g id="a_edge19_Node000013_Node000016"><a xlink:title=" ">
<path fill="none" stroke="#63b8ff" d="M511.5,-169.32C473.97,-161.79 401.42,-146.93 329.78,-130.08"/>
<polygon fill="#63b8ff" stroke="#63b8ff" points="330.77,-126.72 320.23,-127.82 329.16,-133.53 330.77,-126.72"/>
</a>
</g>
</g>
<!-- Node17 -->
<g id="Node000017" class="node">
<title>Node17</title>
<g id="a_Node000017"><a xlink:title=" ">
<polygon fill="#e0e0e0" stroke="#999999" points="401.38,-129.75 336.62,-129.75 336.62,-110.5 401.38,-110.5 401.38,-129.75"/>
<text text-anchor="middle" x="369" y="-116.25" font-family="Helvetica,sans-Serif" font-size="10.00">GuiTypes.h</text>
</a>
</g>
</g>
<!-- Node13&#45;&gt;Node17 -->
<g id="edge20_Node000013_Node000017" class="edge">
<title>Node13&#45;&gt;Node17</title>
<g id="a_edge20_Node000013_Node000017"><a xlink:title=" ">
<path fill="none" stroke="#63b8ff" d="M511.48,-166.29C484.06,-157.59 440.12,-143.67 408.28,-133.58"/>
<polygon fill="#63b8ff" stroke="#63b8ff" points="409.61,-130.32 399.02,-130.64 407.49,-137 409.61,-130.32"/>
</a>
</g>
</g>
<!-- Node18 -->
<g id="Node000018" class="node">
<title>Node18</title>
<g id="a_Node000018"><a xlink:title=" ">
<polygon fill="#e0e0e0" stroke="#999999" points="465,-129.75 419,-129.75 419,-110.5 465,-110.5 465,-129.75"/>
<text text-anchor="middle" x="442" y="-116.25" font-family="Helvetica,sans-Serif" font-size="10.00">TBox.h</text>
</a>
</g>
</g>
<!-- Node13&#45;&gt;Node18 -->
<g id="edge22_Node000013_Node000018" class="edge">
<title>Node13&#45;&gt;Node18</title>
<g id="a_edge22_Node000013_Node000018"><a xlink:title=" ">
<path fill="none" stroke="#63b8ff" d="M520.88,-165.34C506.42,-157.23 484.92,-145.18 468.02,-135.71"/>
<polygon fill="#63b8ff" stroke="#63b8ff" points="469.95,-132.78 459.51,-130.94 466.53,-138.89 469.95,-132.78"/>
</a>
</g>
</g>
<!-- Node19 -->
<g id="Node000019" class="node">
<title>Node19</title>
<g id="a_Node000019"><a xlink:href="_globals_8h.html" target="_top" xlink:title=" ">
<polygon fill="white" stroke="#666666" points="1065.25,-129.75 1008.75,-129.75 1008.75,-110.5 1065.25,-110.5 1065.25,-129.75"/>
<text text-anchor="middle" x="1037" y="-116.25" font-family="Helvetica,sans-Serif" font-size="10.00">Globals.h</text>
</a>
</g>
</g>
<!-- Node13&#45;&gt;Node19 -->
<g id="edge23_Node000013_Node000019" class="edge">
<title>Node13&#45;&gt;Node19</title>
<g id="a_edge23_Node000013_Node000019"><a xlink:title=" ">
<path fill="none" stroke="#63b8ff" d="M562.53,-167.45C565.37,-166.81 568.24,-166.23 571,-165.75 727.3,-138.61 916.16,-126.91 997.07,-122.89"/>
<polygon fill="#63b8ff" stroke="#63b8ff" points="997.1,-126.39 1006.92,-122.41 996.76,-119.4 997.1,-126.39"/>
</a>
</g>
</g>
<!-- Node33 -->
<g id="Node000033" class="node">
<title>Node33</title>
<g id="a_Node000033"><a xlink:href="_g_h2_i_8h.html" target="_top" xlink:title=" ">
<polygon fill="white" stroke="#666666" points="529.38,-129.75 482.62,-129.75 482.62,-110.5 529.38,-110.5 529.38,-129.75"/>
<text text-anchor="middle" x="506" y="-116.25" font-family="Helvetica,sans-Serif" font-size="10.00">GH2I.h</text>
</a>
</g>
</g>
<!-- Node13&#45;&gt;Node33 -->
<g id="edge39_Node000013_Node000033" class="edge">
<title>Node13&#45;&gt;Node33</title>
<g id="a_edge39_Node000013_Node000033"><a xlink:title=" ">
<path fill="none" stroke="#63b8ff" d="M531.88,-165.58C527.82,-158.61 522.01,-148.62 516.91,-139.87"/>
<polygon fill="#63b8ff" stroke="#63b8ff" points="520.05,-138.3 511.99,-131.42 514,-141.82 520.05,-138.3"/>
</a>
</g>
</g>
<!-- Node19&#45;&gt;Node3 -->
<g id="edge28_Node000019_Node000003" class="edge">
<title>Node19&#45;&gt;Node3</title>
<g id="a_edge28_Node000019_Node000003"><a xlink:title=" ">
<path fill="none" stroke="#63b8ff" d="M1008.7,-118.53C944.66,-116.59 784.15,-108.45 655,-74.5 609.39,-62.51 559.52,-39.49 529.78,-24.61"/>
<polygon fill="#63b8ff" stroke="#63b8ff" points="531.62,-21.62 521.12,-20.22 528.45,-27.87 531.62,-21.62"/>
</a>
</g>
</g>
<!-- Node19&#45;&gt;Node11 -->
<g id="edge24_Node000019_Node000011" class="edge">
<title>Node19&#45;&gt;Node11</title>
<g id="a_edge24_Node000019_Node000011"><a xlink:title=" ">
<path fill="none" stroke="#63b8ff" d="M1065.55,-112.17C1068.72,-111.54 1071.92,-110.96 1075,-110.5 1279.38,-79.68 1337.24,-106.79 1543.73,-74.78"/>
<polygon fill="#63b8ff" stroke="#63b8ff" points="1544.13,-78.26 1553.46,-73.24 1543.04,-71.35 1544.13,-78.26"/>
</a>
</g>
</g>
<!-- Node20 -->
<g id="Node000020" class="node">
<title>Node20</title>
<g id="a_Node000020"><a xlink:title=" ">
<polygon fill="#e0e0e0" stroke="#999999" points="1061.88,-74.5 1012.12,-74.5 1012.12,-55.25 1061.88,-55.25 1061.88,-74.5"/>
<text text-anchor="middle" x="1037" y="-61" font-family="Helvetica,sans-Serif" font-size="10.00">iomanip</text>
</a>
</g>
</g>
<!-- Node19&#45;&gt;Node20 -->
<g id="edge25_Node000019_Node000020" class="edge">
<title>Node19&#45;&gt;Node20</title>
<g id="a_edge25_Node000019_Node000020"><a xlink:title=" ">
<path fill="none" stroke="#63b8ff" d="M1037,-110.33C1037,-103.82 1037,-94.67 1037,-86.37"/>
<polygon fill="#63b8ff" stroke="#63b8ff" points="1040.5,-86.37 1037,-76.37 1033.5,-86.37 1040.5,-86.37"/>
</a>
</g>
</g>
<!-- Node21 -->
<g id="Node000021" class="node">
<title>Node21</title>
<g id="a_Node000021"><a xlink:title=" ">
<polygon fill="#e0e0e0" stroke="#999999" points="1138,-74.5 1080,-74.5 1080,-55.25 1138,-55.25 1138,-74.5"/>
<text text-anchor="middle" x="1109" y="-61" font-family="Helvetica,sans-Serif" font-size="10.00">stdexcept</text>
</a>
</g>
</g>
<!-- Node19&#45;&gt;Node21 -->
<g id="edge26_Node000019_Node000021" class="edge">
<title>Node19&#45;&gt;Node21</title>
<g id="a_edge26_Node000019_Node000021"><a xlink:title=" ">
<path fill="none" stroke="#63b8ff" d="M1049.21,-110.09C1059.83,-102.24 1075.44,-90.7 1088.04,-81.37"/>
<polygon fill="#63b8ff" stroke="#63b8ff" points="1089.79,-84.44 1095.75,-75.67 1085.63,-78.81 1089.79,-84.44"/>
</a>
</g>
</g>
<!-- Node22 -->
<g id="Node000022" class="node">
<title>Node22</title>
<g id="a_Node000022"><a xlink:title=" ">
<polygon fill="#e0e0e0" stroke="#999999" points="1196,-74.5 1156,-74.5 1156,-55.25 1196,-55.25 1196,-74.5"/>
<text text-anchor="middle" x="1176" y="-61" font-family="Helvetica,sans-Serif" font-size="10.00">string</text>
</a>
</g>
</g>
<!-- Node19&#45;&gt;Node22 -->
<g id="edge27_Node000019_Node000022" class="edge">
<title>Node19&#45;&gt;Node22</title>
<g id="a_edge27_Node000019_Node000022"><a xlink:title=" ">
<path fill="none" stroke="#63b8ff" d="M1060.58,-110.09C1083.92,-101.15 1119.78,-87.41 1145.33,-77.62"/>
<polygon fill="#63b8ff" stroke="#63b8ff" points="1146.42,-80.95 1154.51,-74.11 1143.92,-74.42 1146.42,-80.95"/>
</a>
</g>
</g>
<!-- Node23 -->
<g id="Node000023" class="node">
<title>Node23</title>
<g id="a_Node000023"><a xlink:title=" ">
<polygon fill="#e0e0e0" stroke="#999999" points="1259.62,-74.5 1214.38,-74.5 1214.38,-55.25 1259.62,-55.25 1259.62,-74.5"/>
<text text-anchor="middle" x="1237" y="-61" font-family="Helvetica,sans-Serif" font-size="10.00">cstdint</text>
</a>
</g>
</g>
<!-- Node19&#45;&gt;Node23 -->
<g id="edge29_Node000019_Node000023" class="edge">
<title>Node19&#45;&gt;Node23</title>
<g id="a_edge29_Node000019_Node000023"><a xlink:title=" ">
<path fill="none" stroke="#63b8ff" d="M1065.55,-111.58C1096.89,-103.28 1148.99,-89.47 1203.09,-75"/>
<polygon fill="#63b8ff" stroke="#63b8ff" points="1203.71,-78.46 1212.47,-72.49 1201.9,-71.7 1203.71,-78.46"/>
</a>
</g>
</g>
<!-- Node24 -->
<g id="Node000024" class="node">
<title>Node24</title>
<g id="a_Node000024"><a xlink:title=" ">
<polygon fill="#e0e0e0" stroke="#999999" points="1322.25,-74.5 1277.75,-74.5 1277.75,-55.25 1322.25,-55.25 1322.25,-74.5"/>
<text text-anchor="middle" x="1300" y="-61" font-family="Helvetica,sans-Serif" font-size="10.00">cstdlib</text>
</a>
</g>
</g>
<!-- Node19&#45;&gt;Node24 -->
<g id="edge30_Node000019_Node000024" class="edge">
<title>Node19&#45;&gt;Node24</title>
<g id="a_edge30_Node000019_Node000024"><a xlink:title=" ">
<path fill="none" stroke="#63b8ff" d="M1065.61,-112.5C1068.77,-111.81 1071.95,-111.13 1075,-110.5 1157.36,-93.52 1181.6,-94.18 1266.18,-74.99"/>
<polygon fill="#63b8ff" stroke="#63b8ff" points="1266.94,-78.41 1275.9,-72.76 1265.37,-71.59 1266.94,-78.41"/>
</a>
</g>
</g>
<!-- Node25 -->
<g id="Node000025" class="node">
<title>Node25</title>
<g id="a_Node000025"><a xlink:title=" ">
<polygon fill="#e0e0e0" stroke="#999999" points="1399.75,-74.5 1340.25,-74.5 1340.25,-55.25 1399.75,-55.25 1399.75,-74.5"/>
<text text-anchor="middle" x="1370" y="-61" font-family="Helvetica,sans-Serif" font-size="10.00">execinfo.h</text>
</a>
</g>
</g>
<!-- Node19&#45;&gt;Node25 -->
<g id="edge31_Node000019_Node000025" class="edge">
<title>Node19&#45;&gt;Node25</title>
<g id="a_edge31_Node000019_Node000025"><a xlink:title=" ">
<path fill="none" stroke="#63b8ff" d="M1065.58,-112.37C1068.75,-111.7 1071.94,-111.06 1075,-110.5 1184.48,-90.41 1215.98,-94.62 1328.65,-74.79"/>
<polygon fill="#63b8ff" stroke="#63b8ff" points="1329.1,-78.27 1338.32,-73.06 1327.86,-71.38 1329.1,-78.27"/>
</a>
</g>
</g>
<!-- Node26 -->
<g id="Node000026" class="node">
<title>Node26</title>
<g id="a_Node000026"><a xlink:title=" ">
<polygon fill="#e0e0e0" stroke="#999999" points="1468.25,-74.5 1417.75,-74.5 1417.75,-55.25 1468.25,-55.25 1468.25,-74.5"/>
<text text-anchor="middle" x="1443" y="-61" font-family="Helvetica,sans-Serif" font-size="10.00">cxxabi.h</text>
</a>
</g>
</g>
<!-- Node19&#45;&gt;Node26 -->
<g id="edge32_Node000019_Node000026" class="edge">
<title>Node19&#45;&gt;Node26</title>
<g id="a_edge32_Node000019_Node000026"><a xlink:title=" ">
<path fill="none" stroke="#63b8ff" d="M1065.56,-112.27C1068.74,-111.62 1071.93,-111.01 1075,-110.5 1218.67,-86.53 1260.05,-100.21 1406.29,-74.75"/>
<polygon fill="#63b8ff" stroke="#63b8ff" points="1406.74,-78.22 1415.97,-73.03 1405.52,-71.33 1406.74,-78.22"/>
</a>
</g>
</g>
<!-- Node27 -->
<g id="Node000027" class="node">
<title>Node27</title>
<g id="a_Node000027"><a xlink:title=" ">
<polygon fill="#e0e0e0" stroke="#999999" points="1537.62,-74.5 1486.38,-74.5 1486.38,-55.25 1537.62,-55.25 1537.62,-74.5"/>
<text text-anchor="middle" x="1512" y="-61" font-family="Helvetica,sans-Serif" font-size="10.00">sstream</text>
</a>
</g>
</g>
<!-- Node19&#45;&gt;Node27 -->
<g id="edge33_Node000019_Node000027" class="edge">
<title>Node19&#45;&gt;Node27</title>
<g id="a_edge33_Node000019_Node000027"><a xlink:title=" ">
<path fill="none" stroke="#63b8ff" d="M1065.55,-112.21C1068.73,-111.57 1071.93,-110.98 1075,-110.5 1248.56,-83.16 1298.05,-103.19 1474.82,-74.59"/>
<polygon fill="#63b8ff" stroke="#63b8ff" points="1475.31,-78.05 1484.6,-72.97 1474.17,-71.15 1475.31,-78.05"/>
</a>
</g>
</g>
<!-- Node28 -->
<g id="Node000028" class="node">
<title>Node28</title>
<g id="a_Node000028"><a xlink:title=" ">
<polygon fill="#e0e0e0" stroke="#999999" points="701.5,-74.5 664.5,-74.5 664.5,-55.25 701.5,-55.25 701.5,-74.5"/>
<text text-anchor="middle" x="683" y="-61" font-family="Helvetica,sans-Serif" font-size="10.00">array</text>
</a>
</g>
</g>
<!-- Node19&#45;&gt;Node28 -->
<g id="edge34_Node000019_Node000028" class="edge">
<title>Node19&#45;&gt;Node28</title>
<g id="a_edge34_Node000019_Node000028"><a xlink:title=" ">
<path fill="none" stroke="#63b8ff" d="M1008.38,-116.79C953.09,-111.93 827.66,-99.29 712.93,-74.57"/>
<polygon fill="#63b8ff" stroke="#63b8ff" points="713.86,-71.19 703.34,-72.47 712.36,-78.03 713.86,-71.19"/>
</a>
</g>
</g>
<!-- Node29 -->
<g id="Node000029" class="node">
<title>Node29</title>
<g id="a_Node000029"><a xlink:title=" ">
<polygon fill="#e0e0e0" stroke="#999999" points="770.25,-74.5 719.75,-74.5 719.75,-55.25 770.25,-55.25 770.25,-74.5"/>
<text text-anchor="middle" x="745" y="-61" font-family="Helvetica,sans-Serif" font-size="10.00">memory</text>
</a>
</g>
</g>
<!-- Node19&#45;&gt;Node29 -->
<g id="edge35_Node000019_Node000029" class="edge">
<title>Node19&#45;&gt;Node29</title>
<g id="a_edge35_Node000019_Node000029"><a xlink:title=" ">
<path fill="none" stroke="#63b8ff" d="M1008.61,-114.95C962.86,-108.06 869.77,-93.4 781.58,-74.92"/>
<polygon fill="#63b8ff" stroke="#63b8ff" points="782.56,-71.55 772.05,-72.9 781.11,-78.4 782.56,-71.55"/>
</a>
</g>
</g>
<!-- Node30 -->
<g id="Node000030" class="node">
<title>Node30</title>
<g id="a_Node000030"><a xlink:title=" ">
<polygon fill="#e0e0e0" stroke="#999999" points="837.88,-74.5 788.12,-74.5 788.12,-55.25 837.88,-55.25 837.88,-74.5"/>
<text text-anchor="middle" x="813" y="-61" font-family="Helvetica,sans-Serif" font-size="10.00">unistd.h</text>
</a>
</g>
</g>
<!-- Node19&#45;&gt;Node30 -->
<g id="edge36_Node000019_Node000030" class="edge">
<title>Node19&#45;&gt;Node30</title>
<g id="a_edge36_Node000019_Node000030"><a xlink:title=" ">
<path fill="none" stroke="#63b8ff" d="M1008.31,-112.55C973.12,-104.46 911.35,-90.13 849.05,-74.97"/>
<polygon fill="#63b8ff" stroke="#63b8ff" points="850.25,-71.66 839.71,-72.69 848.59,-78.46 850.25,-71.66"/>
</a>
</g>
</g>
<!-- Node31 -->
<g id="Node000031" class="node">
<title>Node31</title>
<g id="a_Node000031"><a xlink:title=" ">
<polygon fill="#e0e0e0" stroke="#999999" points="915.75,-74.5 856.25,-74.5 856.25,-55.25 915.75,-55.25 915.75,-74.5"/>
<text text-anchor="middle" x="886" y="-61" font-family="Helvetica,sans-Serif" font-size="10.00">sys/wait.h</text>
</a>
</g>
</g>
<!-- Node19&#45;&gt;Node31 -->
<g id="edge37_Node000019_Node000031" class="edge">
<title>Node19&#45;&gt;Node31</title>
<g id="a_edge37_Node000019_Node000031"><a xlink:title=" ">
<path fill="none" stroke="#63b8ff" d="M1011.38,-110.09C986.98,-101.49 949.99,-88.44 922.5,-78.75"/>
<polygon fill="#63b8ff" stroke="#63b8ff" points="923.76,-75.48 913.17,-75.46 921.43,-82.08 923.76,-75.48"/>
</a>
</g>
</g>
<!-- Node32 -->
<g id="Node000032" class="node">
<title>Node32</title>
<g id="a_Node000032"><a xlink:title=" ">
<polygon fill="#e0e0e0" stroke="#999999" points="994.12,-74.5 933.88,-74.5 933.88,-55.25 994.12,-55.25 994.12,-74.5"/>
<text text-anchor="middle" x="964" y="-61" font-family="Helvetica,sans-Serif" font-size="10.00">sys/prctl.h</text>
</a>
</g>
</g>
<!-- Node19&#45;&gt;Node32 -->
<g id="edge38_Node000019_Node000032" class="edge">
<title>Node19&#45;&gt;Node32</title>
<g id="a_edge38_Node000019_Node000032"><a xlink:title=" ">
<path fill="none" stroke="#63b8ff" d="M1024.62,-110.09C1013.85,-102.24 998.03,-90.7 985.25,-81.37"/>
<polygon fill="#63b8ff" stroke="#63b8ff" points="987.56,-78.73 977.42,-75.67 983.44,-84.39 987.56,-78.73"/>
</a>
</g>
</g>
<!-- Node33&#45;&gt;Node3 -->
<g id="edge40_Node000033_Node000003" class="edge">
<title>Node33&#45;&gt;Node3</title>
<g id="a_edge40_Node000033_Node000003"><a xlink:title=" ">
<path fill="none" stroke="#63b8ff" d="M505.75,-110.25C505.28,-93 504.22,-54.58 503.56,-30.81"/>
<polygon fill="#63b8ff" stroke="#63b8ff" points="507.07,-31.04 503.29,-21.14 500.07,-31.23 507.07,-31.04"/>
</a>
</g>
</g>
<!-- Node33&#45;&gt;Node4 -->
<g id="edge41_Node000033_Node000004" class="edge">
<title>Node33&#45;&gt;Node4</title>
<g id="a_edge41_Node000033_Node000004"><a xlink:title=" ">
<path fill="none" stroke="#63b8ff" d="M482.3,-111.85C448.17,-101.2 388.45,-81.83 381,-74.5 368.98,-62.68 362.91,-44.26 359.88,-30.23"/>
<polygon fill="#63b8ff" stroke="#63b8ff" points="363.4,-30.03 358.21,-20.8 356.51,-31.26 363.4,-30.03"/>
</a>
</g>
</g>
<!-- Node33&#45;&gt;Node5 -->
<g id="edge42_Node000033_Node000005" class="edge">
<title>Node33&#45;&gt;Node5</title>
<g id="a_edge42_Node000033_Node000005"><a xlink:title=" ">
<path fill="none" stroke="#63b8ff" d="M500.79,-110.2C493.33,-97.61 478.97,-74.09 465,-55.25 458.12,-45.97 449.86,-36.14 442.81,-28.08"/>
<polygon fill="#63b8ff" stroke="#63b8ff" points="445.5,-25.84 436.24,-20.69 440.27,-30.49 445.5,-25.84"/>
</a>
</g>
</g>
<!-- Node33&#45;&gt;Node6 -->
<g id="edge43_Node000033_Node000006" class="edge">
<title>Node33&#45;&gt;Node6</title>
<g id="a_edge43_Node000033_Node000006"><a xlink:title=" ">
<path fill="none" stroke="#63b8ff" d="M529.5,-112.36C557.55,-103.78 601.95,-88.42 612,-74.5 621.07,-61.93 621.75,-44.12 620.48,-30.5"/>
<polygon fill="#63b8ff" stroke="#63b8ff" points="624,-30.36 619.16,-20.94 617.06,-31.32 624,-30.36"/>
</a>
</g>
</g>
<!-- Node33&#45;&gt;Node7 -->
<g id="edge44_Node000033_Node000007" class="edge">
<title>Node33&#45;&gt;Node7</title>
<g id="a_edge44_Node000033_Node000007"><a xlink:title=" ">
<path fill="none" stroke="#63b8ff" d="M482.25,-112.68C479.47,-111.94 476.67,-111.2 474,-110.5 430.28,-99.1 380.36,-86.56 344.7,-77.68"/>
<polygon fill="#63b8ff" stroke="#63b8ff" points="345.67,-74.31 335.12,-75.3 343.98,-81.11 345.67,-74.31"/>
</a>
</g>
</g>
<!-- Node33&#45;&gt;Node8 -->
<g id="edge45_Node000033_Node000008" class="edge">
<title>Node33&#45;&gt;Node8</title>
<g id="a_edge45_Node000033_Node000008"><a xlink:title=" ">
<path fill="none" stroke="#63b8ff" d="M482.3,-112.45C479.51,-111.75 476.7,-111.08 474,-110.5 379.3,-90.15 351.49,-93.36 253.05,-74.78"/>
<polygon fill="#63b8ff" stroke="#63b8ff" points="253.97,-71.39 243.49,-72.94 252.65,-78.26 253.97,-71.39"/>
</a>
</g>
</g>
<!-- Node33&#45;&gt;Node10 -->
<g id="edge46_Node000033_Node000010" class="edge">
<title>Node33&#45;&gt;Node10</title>
<g id="a_edge46_Node000033_Node000010"><a xlink:title=" ">
<path fill="none" stroke="#63b8ff" d="M491.92,-110.09C479.52,-102.14 461.21,-90.39 446.57,-81"/>
<polygon fill="#63b8ff" stroke="#63b8ff" points="448.73,-78.22 438.42,-75.77 444.95,-84.12 448.73,-78.22"/>
</a>
</g>
</g>
</g>
</svg>

<g id="navigator" transform="translate(0 0)" fill="#404254">
  <rect fill="#f2f5e9" fill-opacity="0.5" stroke="#606060" stroke-width=".5" x="0" y="0" width="60" height="60"/>
  <use id="zoomplus" xlink:href="#zoomPlus" x="17" y="9" onmousedown="handleZoom(evt,'in')"/>
  <use id="zoomminus" xlink:href="#zoomMin" x="42" y="9" onmousedown="handleZoom(evt,'out')"/>
  <use id="reset" xlink:href="#resetDef" x="30" y="36" onmousedown="handleReset()"/>
   <use id="arrowup" xlink:href="#arrowUp" x="0" y="0" onmousedown="handlePan(0,-1)"/>
  <use id="arrowright" xlink:href="#arrowRight" x="0" y="0" onmousedown="handlePan(1,0)"/>
  <use id="arrowdown" xlink:href="#arrowDown" x="0" y="0" onmousedown="handlePan(0,1)"/>
  <use id="arrowleft" xlink:href="#arrowLeft" x="0" y="0" onmousedown="handlePan(-1,0)"/>
</g>
<svg viewBox="0 0 15 15" width="100%" height="30px" preserveAspectRatio="xMaxYMin meet">
 <g id="arrow_out" transform="scale(0.3 0.3)">
  <a xlink:href="_g_h2_d_8cxx__incl_org.svg" target="_base">
   <rect id="button" ry="5" rx="5" y="6" x="6" height="38" width="38"
        fill="#f2f5e9" fill-opacity="0.5" stroke="#606060" stroke-width="1.0"/>
   <path id="arrow"
     d="M 11.500037,31.436501 C 11.940474,20.09759 22.043105,11.32322 32.158766,21.979434 L 37.068811,17.246167 C 37.068811,17.246167 37.088388,32 37.088388,32 L 22.160133,31.978069 C 22.160133,31.978069 26.997745,27.140456 26.997745,27.140456 C 18.528582,18.264221 13.291696,25.230495 11.500037,31.436501 z"
     style="fill:#404040;"/>
  </a>
 </g>
</svg>

<style type='text/css'>
<![CDATA[
[data-mouse-over-selected='false'] { opacity: 0.7; }
[data-mouse-over-selected='true']  { opacity: 1.0; }
]]>
</style>
<script type="application/ecmascript"><![CDATA[
document.addEventListener('DOMContentLoaded', (event) => {
  highlightEdges();
  highlightAdjacentNodes();
});
]]></script>
</svg>
