<?xml version="1.0" encoding="UTF-8" standalone="no"?>
<!DOCTYPE svg PUBLIC "-//W3C//DTD SVG 1.1//EN"
 "http://www.w3.org/Graphics/SVG/1.1/DTD/svg11.dtd">
<!-- Generated by graphviz version 12.2.0 (20241103.1931)
 -->
<!-- Title: GH1D.cxx Pages: 1 -->
<svg width="2137pt" height="248pt"
 viewBox="0.00 0.00 2137.12 248.25" xmlns="http://www.w3.org/2000/svg" xmlns:xlink="http://www.w3.org/1999/xlink">
<g id="graph0" class="graph" transform="scale(1 1) rotate(0) translate(4 244.25)">
<title>GH1D.cxx</title>
<!-- Node1 -->
<g id="Node000001" class="node">
<title>Node1</title>
<g id="a_Node000001"><a xlink:title=" ">
<polygon fill="#999999" stroke="#666666" points="1434.5,-240.25 1375,-240.25 1375,-221 1434.5,-221 1434.5,-240.25"/>
<text text-anchor="middle" x="1404.75" y="-226.75" font-family="Helvetica,sans-Serif" font-size="10.00">GH1D.cxx</text>
</a>
</g>
</g>
<!-- Node2 -->
<g id="Node000002" class="node">
<title>Node2</title>
<g id="a_Node000002"><a xlink:href="_g_h1_d_8h.html" target="_top" xlink:title=" ">
<polygon fill="white" stroke="#666666" points="1086,-185 1035.5,-185 1035.5,-165.75 1086,-165.75 1086,-185"/>
<text text-anchor="middle" x="1060.75" y="-171.5" font-family="Helvetica,sans-Serif" font-size="10.00">GH1D.h</text>
</a>
</g>
</g>
<!-- Node1&#45;&gt;Node2 -->
<g id="edge1_Node000001_Node000002" class="edge">
<title>Node1&#45;&gt;Node2</title>
<g id="a_edge1_Node000001_Node000002"><a xlink:title=" ">
<path fill="none" stroke="#63b8ff" d="M1374.52,-224.95C1311.29,-215.16 1165.27,-192.55 1097.07,-182"/>
<polygon fill="#63b8ff" stroke="#63b8ff" points="1097.96,-178.59 1087.55,-180.52 1096.89,-185.51 1097.96,-178.59"/>
</a>
</g>
</g>
<!-- Node9 -->
<g id="Node000009" class="node">
<title>Node9</title>
<g id="a_Node000009"><a xlink:href="_globals_8h.html" target="_top" xlink:title=" ">
<polygon fill="white" stroke="#666666" points="582,-129.75 525.5,-129.75 525.5,-110.5 582,-110.5 582,-129.75"/>
<text text-anchor="middle" x="553.75" y="-116.25" font-family="Helvetica,sans-Serif" font-size="10.00">Globals.h</text>
</a>
</g>
</g>
<!-- Node1&#45;&gt;Node9 -->
<g id="edge46_Node000001_Node000009" class="edge">
<title>Node1&#45;&gt;Node9</title>
<g id="a_edge46_Node000001_Node000009"><a xlink:title=" ">
<path fill="none" stroke="#63b8ff" d="M1374.78,-229.01C1288.32,-226.87 1031.21,-218 820.75,-185 738.89,-172.16 645.08,-147.3 593.3,-132.67"/>
<polygon fill="#63b8ff" stroke="#63b8ff" points="594.33,-129.32 583.75,-129.95 592.41,-136.06 594.33,-129.32"/>
</a>
</g>
</g>
<!-- Node10 -->
<g id="Node000010" class="node">
<title>Node10</title>
<g id="a_Node000010"><a xlink:title=" ">
<polygon fill="#e0e0e0" stroke="#999999" points="957.5,-74.5 904,-74.5 904,-55.25 957.5,-55.25 957.5,-74.5"/>
<text text-anchor="middle" x="930.75" y="-61" font-family="Helvetica,sans-Serif" font-size="10.00">iostream</text>
</a>
</g>
</g>
<!-- Node1&#45;&gt;Node10 -->
<g id="edge37_Node000001_Node000010" class="edge">
<title>Node1&#45;&gt;Node10</title>
<g id="a_edge37_Node000001_Node000010"><a xlink:title=" ">
<path fill="none" stroke="#63b8ff" d="M1374.58,-229.09C1271.78,-226.54 938.4,-211.96 881.75,-129.75 870.04,-112.76 888.14,-94.12 905.56,-81.38"/>
<polygon fill="#63b8ff" stroke="#63b8ff" points="907.43,-84.34 913.72,-75.82 903.49,-78.56 907.43,-84.34"/>
</a>
</g>
</g>
<!-- Node25 -->
<g id="Node000025" class="node">
<title>Node25</title>
<g id="a_Node000025"><a xlink:href="_g_h2_i_8h.html" target="_top" xlink:title=" ">
<polygon fill="white" stroke="#666666" points="1221.12,-129.75 1174.38,-129.75 1174.38,-110.5 1221.12,-110.5 1221.12,-129.75"/>
<text text-anchor="middle" x="1197.75" y="-116.25" font-family="Helvetica,sans-Serif" font-size="10.00">GH2I.h</text>
</a>
</g>
</g>
<!-- Node1&#45;&gt;Node25 -->
<g id="edge60_Node000001_Node000025" class="edge">
<title>Node1&#45;&gt;Node25</title>
<g id="a_edge60_Node000001_Node000025"><a xlink:title=" ">
<path fill="none" stroke="#63b8ff" d="M1374.7,-228.59C1338.16,-225.91 1276.25,-216.63 1234.75,-185 1220.1,-173.83 1210.23,-155.07 1204.4,-140.76"/>
<polygon fill="#63b8ff" stroke="#63b8ff" points="1207.72,-139.63 1200.96,-131.47 1201.15,-142.06 1207.72,-139.63"/>
</a>
</g>
</g>
<!-- Node28 -->
<g id="Node000028" class="node">
<title>Node28</title>
<g id="a_Node000028"><a xlink:title=" ">
<polygon fill="#e0e0e0" stroke="#999999" points="1240,-74.5 1165.5,-74.5 1165.5,-55.25 1240,-55.25 1240,-74.5"/>
<text text-anchor="middle" x="1202.75" y="-61" font-family="Helvetica,sans-Serif" font-size="10.00">TVirtualPad.h</text>
</a>
</g>
</g>
<!-- Node1&#45;&gt;Node28 -->
<g id="edge40_Node000001_Node000028" class="edge">
<title>Node1&#45;&gt;Node28</title>
<g id="a_edge40_Node000001_Node000028"><a xlink:title=" ">
<path fill="none" stroke="#63b8ff" d="M1374.92,-222.53C1350.97,-215.76 1317.38,-203.78 1292.75,-185 1273.57,-170.37 1234.7,-114.04 1214.91,-84.38"/>
<polygon fill="#63b8ff" stroke="#63b8ff" points="1217.83,-82.45 1209.39,-76.05 1212,-86.32 1217.83,-82.45"/>
</a>
</g>
</g>
<!-- Node29 -->
<g id="Node000029" class="node">
<title>Node29</title>
<g id="a_Node000029"><a xlink:title=" ">
<polygon fill="#e0e0e0" stroke="#999999" points="1315.38,-74.5 1258.12,-74.5 1258.12,-55.25 1315.38,-55.25 1315.38,-74.5"/>
<text text-anchor="middle" x="1286.75" y="-61" font-family="Helvetica,sans-Serif" font-size="10.00">TFrame.h</text>
</a>
</g>
</g>
<!-- Node1&#45;&gt;Node29 -->
<g id="edge43_Node000001_Node000029" class="edge">
<title>Node1&#45;&gt;Node29</title>
<g id="a_edge43_Node000001_Node000029"><a xlink:title=" ">
<path fill="none" stroke="#63b8ff" d="M1374.77,-223.86C1352.51,-217.96 1323.26,-206.5 1306.75,-185 1284.57,-156.12 1283.28,-111.6 1284.74,-85.95"/>
<polygon fill="#63b8ff" stroke="#63b8ff" points="1288.21,-86.49 1285.51,-76.25 1281.23,-85.94 1288.21,-86.49"/>
</a>
</g>
</g>
<!-- Node31 -->
<g id="Node000031" class="node">
<title>Node31</title>
<g id="a_Node000031"><a xlink:title=" ">
<polygon fill="#e0e0e0" stroke="#999999" points="1364.25,-185 1315.25,-185 1315.25,-165.75 1364.25,-165.75 1364.25,-185"/>
<text text-anchor="middle" x="1339.75" y="-171.5" font-family="Helvetica,sans-Serif" font-size="10.00">fstream</text>
</a>
</g>
</g>
<!-- Node1&#45;&gt;Node31 -->
<g id="edge38_Node000001_Node000031" class="edge">
<title>Node1&#45;&gt;Node31</title>
<g id="a_edge38_Node000001_Node000031"><a xlink:title=" ">
<path fill="none" stroke="#63b8ff" d="M1393.72,-220.59C1384.33,-212.9 1370.6,-201.65 1359.34,-192.43"/>
<polygon fill="#63b8ff" stroke="#63b8ff" points="1361.74,-189.86 1351.78,-186.23 1357.3,-195.28 1361.74,-189.86"/>
</a>
</g>
</g>
<!-- Node32 -->
<g id="Node000032" class="node">
<title>Node32</title>
<g id="a_Node000032"><a xlink:title=" ">
<polygon fill="#e0e0e0" stroke="#999999" points="1427.38,-185 1382.12,-185 1382.12,-165.75 1427.38,-165.75 1427.38,-185"/>
<text text-anchor="middle" x="1404.75" y="-171.5" font-family="Helvetica,sans-Serif" font-size="10.00">cstring</text>
</a>
</g>
</g>
<!-- Node1&#45;&gt;Node32 -->
<g id="edge39_Node000001_Node000032" class="edge">
<title>Node1&#45;&gt;Node32</title>
<g id="a_edge39_Node000001_Node000032"><a xlink:title=" ">
<path fill="none" stroke="#63b8ff" d="M1404.75,-220.83C1404.75,-214.32 1404.75,-205.17 1404.75,-196.87"/>
<polygon fill="#63b8ff" stroke="#63b8ff" points="1408.25,-196.87 1404.75,-186.87 1401.25,-196.87 1408.25,-196.87"/>
</a>
</g>
</g>
<!-- Node33 -->
<g id="Node000033" class="node">
<title>Node33</title>
<g id="a_Node000033"><a xlink:title=" ">
<polygon fill="#e0e0e0" stroke="#999999" points="1500.25,-185 1445.25,-185 1445.25,-165.75 1500.25,-165.75 1500.25,-185"/>
<text text-anchor="middle" x="1472.75" y="-171.5" font-family="Helvetica,sans-Serif" font-size="10.00">TString.h</text>
</a>
</g>
</g>
<!-- Node1&#45;&gt;Node33 -->
<g id="edge41_Node000001_Node000033" class="edge">
<title>Node1&#45;&gt;Node33</title>
<g id="a_edge41_Node000001_Node000033"><a xlink:title=" ">
<path fill="none" stroke="#63b8ff" d="M1416.29,-220.59C1426.21,-212.82 1440.76,-201.42 1452.61,-192.15"/>
<polygon fill="#63b8ff" stroke="#63b8ff" points="1454.48,-195.13 1460.19,-186.21 1450.16,-189.62 1454.48,-195.13"/>
</a>
</g>
</g>
<!-- Node34 -->
<g id="Node000034" class="node">
<title>Node34</title>
<g id="a_Node000034"><a xlink:title=" ">
<polygon fill="#e0e0e0" stroke="#999999" points="1559.12,-185 1518.38,-185 1518.38,-165.75 1559.12,-165.75 1559.12,-185"/>
<text text-anchor="middle" x="1538.75" y="-171.5" font-family="Helvetica,sans-Serif" font-size="10.00">TF1.h</text>
</a>
</g>
</g>
<!-- Node1&#45;&gt;Node34 -->
<g id="edge42_Node000001_Node000034" class="edge">
<title>Node1&#45;&gt;Node34</title>
<g id="a_edge42_Node000001_Node000034"><a xlink:title=" ">
<path fill="none" stroke="#63b8ff" d="M1427.48,-220.59C1449.5,-211.84 1483.06,-198.51 1507.56,-188.77"/>
<polygon fill="#63b8ff" stroke="#63b8ff" points="1508.7,-192.08 1516.7,-185.14 1506.12,-185.58 1508.7,-192.08"/>
</a>
</g>
</g>
<!-- Node35 -->
<g id="Node000035" class="node">
<title>Node35</title>
<g id="a_Node000035"><a xlink:title=" ">
<polygon fill="#e0e0e0" stroke="#999999" points="1654.5,-185 1577,-185 1577,-165.75 1654.5,-165.75 1654.5,-185"/>
<text text-anchor="middle" x="1615.75" y="-171.5" font-family="Helvetica,sans-Serif" font-size="10.00">KeySymbols.h</text>
</a>
</g>
</g>
<!-- Node1&#45;&gt;Node35 -->
<g id="edge44_Node000001_Node000035" class="edge">
<title>Node1&#45;&gt;Node35</title>
<g id="a_edge44_Node000001_Node000035"><a xlink:title=" ">
<path fill="none" stroke="#63b8ff" d="M1434.98,-222C1469.98,-213.16 1528.03,-198.51 1568.89,-188.2"/>
<polygon fill="#63b8ff" stroke="#63b8ff" points="1569.62,-191.63 1578.46,-185.79 1567.91,-184.84 1569.62,-191.63"/>
</a>
</g>
</g>
<!-- Node36 -->
<g id="Node000036" class="node">
<title>Node36</title>
<g id="a_Node000036"><a xlink:title=" ">
<polygon fill="#e0e0e0" stroke="#999999" points="1736.75,-185 1672.75,-185 1672.75,-165.75 1736.75,-165.75 1736.75,-185"/>
<text text-anchor="middle" x="1704.75" y="-171.5" font-family="Helvetica,sans-Serif" font-size="10.00">TVirtualX.h</text>
</a>
</g>
</g>
<!-- Node1&#45;&gt;Node36 -->
<g id="edge45_Node000001_Node000036" class="edge">
<title>Node1&#45;&gt;Node36</title>
<g id="a_edge45_Node000001_Node000036"><a xlink:title=" ">
<path fill="none" stroke="#63b8ff" d="M1434.73,-224.83C1481.05,-217.33 1573.11,-202.13 1661.26,-185.42"/>
<polygon fill="#63b8ff" stroke="#63b8ff" points="1661.89,-188.86 1671.06,-183.55 1660.58,-181.99 1661.89,-188.86"/>
</a>
</g>
</g>
<!-- Node37 -->
<g id="Node000037" class="node">
<title>Node37</title>
<g id="a_Node000037"><a xlink:href="_g_root_commands_8h.html" target="_top" xlink:title=" ">
<polygon fill="white" stroke="#666666" points="1482.12,-129.75 1381.38,-129.75 1381.38,-110.5 1482.12,-110.5 1482.12,-129.75"/>
<text text-anchor="middle" x="1431.75" y="-116.25" font-family="Helvetica,sans-Serif" font-size="10.00">GRootCommands.h</text>
</a>
</g>
</g>
<!-- Node1&#45;&gt;Node37 -->
<g id="edge47_Node000001_Node000037" class="edge">
<title>Node1&#45;&gt;Node37</title>
<g id="a_edge47_Node000001_Node000037"><a xlink:title=" ">
<path fill="none" stroke="#63b8ff" d="M1434.92,-227.92C1514.49,-223.1 1725.34,-208.25 1745.75,-185 1751.39,-178.57 1751.36,-172.21 1745.75,-165.75 1729.49,-147.02 1580.6,-132.55 1493.81,-125.62"/>
<polygon fill="#63b8ff" stroke="#63b8ff" points="1494.27,-122.15 1484.03,-124.85 1493.72,-129.13 1494.27,-122.15"/>
</a>
</g>
</g>
<!-- Node39 -->
<g id="Node000039" class="node">
<title>Node39</title>
<g id="a_Node000039"><a xlink:href="_g_canvas_8h.html" target="_top" xlink:title=" ">
<polygon fill="white" stroke="#666666" points="1872.75,-129.75 1808.75,-129.75 1808.75,-110.5 1872.75,-110.5 1872.75,-129.75"/>
<text text-anchor="middle" x="1840.75" y="-116.25" font-family="Helvetica,sans-Serif" font-size="10.00">GCanvas.h</text>
</a>
</g>
</g>
<!-- Node1&#45;&gt;Node39 -->
<g id="edge51_Node000001_Node000039" class="edge">
<title>Node1&#45;&gt;Node39</title>
<g id="a_edge51_Node000001_Node000039"><a xlink:title=" ">
<path fill="none" stroke="#63b8ff" d="M1434.88,-228.65C1512.83,-225.71 1719.27,-215.22 1779.75,-185 1800.48,-174.64 1817.99,-154.25 1828.86,-139.29"/>
<polygon fill="#63b8ff" stroke="#63b8ff" points="1831.63,-141.44 1834.42,-131.23 1825.86,-137.47 1831.63,-141.44"/>
</a>
</g>
</g>
<!-- Node45 -->
<g id="Node000045" class="node">
<title>Node45</title>
<g id="a_Node000045"><a xlink:href="_g_h2_d_8h.html" target="_top" xlink:title=" ">
<polygon fill="white" stroke="#666666" points="1615,-129.75 1564.5,-129.75 1564.5,-110.5 1615,-110.5 1615,-129.75"/>
<text text-anchor="middle" x="1589.75" y="-116.25" font-family="Helvetica,sans-Serif" font-size="10.00">GH2D.h</text>
</a>
</g>
</g>
<!-- Node1&#45;&gt;Node45 -->
<g id="edge61_Node000001_Node000045" class="edge">
<title>Node1&#45;&gt;Node45</title>
<g id="a_edge61_Node000001_Node000045"><a xlink:title=" ">
<path fill="none" stroke="#63b8ff" d="M1434.84,-228.11C1516.94,-223.66 1740.2,-209.41 1761.75,-185 1801.76,-139.68 1687.93,-126.45 1626.36,-122.64"/>
<polygon fill="#63b8ff" stroke="#63b8ff" points="1626.86,-119.16 1616.68,-122.1 1626.47,-126.15 1626.86,-119.16"/>
</a>
</g>
</g>
<!-- Node3 -->
<g id="Node000003" class="node">
<title>Node3</title>
<g id="a_Node000003"><a xlink:title=" ">
<polygon fill="#e0e0e0" stroke="#999999" points="1805.88,-74.5 1763.62,-74.5 1763.62,-55.25 1805.88,-55.25 1805.88,-74.5"/>
<text text-anchor="middle" x="1784.75" y="-61" font-family="Helvetica,sans-Serif" font-size="10.00">TH1.h</text>
</a>
</g>
</g>
<!-- Node2&#45;&gt;Node3 -->
<g id="edge2_Node000002_Node000003" class="edge">
<title>Node2&#45;&gt;Node3</title>
<g id="a_edge2_Node000002_Node000003"><a xlink:title=" ">
<path fill="none" stroke="#63b8ff" d="M1086.41,-173.36C1182.27,-169.4 1519.29,-154.03 1623.75,-129.75 1672.22,-118.48 1725.3,-95.09 1756.78,-79.96"/>
<polygon fill="#63b8ff" stroke="#63b8ff" points="1758.16,-83.18 1765.61,-75.65 1755.09,-76.89 1758.16,-83.18"/>
</a>
</g>
</g>
<!-- Node4 -->
<g id="Node000004" class="node">
<title>Node4</title>
<g id="a_Node000004"><a xlink:title=" ">
<polygon fill="#e0e0e0" stroke="#999999" points="945,-129.75 900.5,-129.75 900.5,-110.5 945,-110.5 945,-129.75"/>
<text text-anchor="middle" x="922.75" y="-116.25" font-family="Helvetica,sans-Serif" font-size="10.00">TRef.h</text>
</a>
</g>
</g>
<!-- Node2&#45;&gt;Node4 -->
<g id="edge3_Node000002_Node000004" class="edge">
<title>Node2&#45;&gt;Node4</title>
<g id="a_edge3_Node000002_Node000004"><a xlink:title=" ">
<path fill="none" stroke="#63b8ff" d="M1037.34,-165.34C1014.97,-156.71 981.02,-143.61 955.87,-133.91"/>
<polygon fill="#63b8ff" stroke="#63b8ff" points="957.36,-130.73 946.77,-130.39 954.84,-137.26 957.36,-130.73"/>
</a>
</g>
</g>
<!-- Node5 -->
<g id="Node000005" class="node">
<title>Node5</title>
<g id="a_Node000005"><a xlink:title=" ">
<polygon fill="#e0e0e0" stroke="#999999" points="1010.12,-129.75 963.38,-129.75 963.38,-110.5 1010.12,-110.5 1010.12,-129.75"/>
<text text-anchor="middle" x="986.75" y="-116.25" font-family="Helvetica,sans-Serif" font-size="10.00">TPad.h</text>
</a>
</g>
</g>
<!-- Node2&#45;&gt;Node5 -->
<g id="edge4_Node000002_Node000005" class="edge">
<title>Node2&#45;&gt;Node5</title>
<g id="a_edge4_Node000002_Node000005"><a xlink:title=" ">
<path fill="none" stroke="#63b8ff" d="M1048.2,-165.34C1037.29,-157.49 1021.25,-145.95 1008.29,-136.62"/>
<polygon fill="#63b8ff" stroke="#63b8ff" points="1010.51,-133.91 1000.35,-130.91 1006.42,-139.59 1010.51,-133.91"/>
</a>
</g>
</g>
<!-- Node6 -->
<g id="Node000006" class="node">
<title>Node6</title>
<g id="a_Node000006"><a xlink:title=" ">
<polygon fill="#e0e0e0" stroke="#999999" points="1093.12,-129.75 1028.38,-129.75 1028.38,-110.5 1093.12,-110.5 1093.12,-129.75"/>
<text text-anchor="middle" x="1060.75" y="-116.25" font-family="Helvetica,sans-Serif" font-size="10.00">GuiTypes.h</text>
</a>
</g>
</g>
<!-- Node2&#45;&gt;Node6 -->
<g id="edge5_Node000002_Node000006" class="edge">
<title>Node2&#45;&gt;Node6</title>
<g id="a_edge5_Node000002_Node000006"><a xlink:title=" ">
<path fill="none" stroke="#63b8ff" d="M1060.75,-165.58C1060.75,-159.07 1060.75,-149.92 1060.75,-141.62"/>
<polygon fill="#63b8ff" stroke="#63b8ff" points="1064.25,-141.62 1060.75,-131.62 1057.25,-141.62 1064.25,-141.62"/>
</a>
</g>
</g>
<!-- Node7 -->
<g id="Node000007" class="node">
<title>Node7</title>
<g id="a_Node000007"><a xlink:title=" ">
<polygon fill="#e0e0e0" stroke="#999999" points="1132.75,-19.25 1086.75,-19.25 1086.75,0 1132.75,0 1132.75,-19.25"/>
<text text-anchor="middle" x="1109.75" y="-5.75" font-family="Helvetica,sans-Serif" font-size="10.00">TList.h</text>
</a>
</g>
</g>
<!-- Node2&#45;&gt;Node7 -->
<g id="edge6_Node000002_Node000007" class="edge">
<title>Node2&#45;&gt;Node7</title>
<g id="a_edge6_Node000002_Node000007"><a xlink:title=" ">
<path fill="none" stroke="#63b8ff" d="M1035.16,-174.12C980.08,-172.58 857.87,-163.29 891.75,-110.5 893.13,-108.36 1019.94,-51.06 1079.49,-24.24"/>
<polygon fill="#63b8ff" stroke="#63b8ff" points="1080.72,-27.52 1088.41,-20.22 1077.85,-21.14 1080.72,-27.52"/>
</a>
</g>
</g>
<!-- Node8 -->
<g id="Node000008" class="node">
<title>Node8</title>
<g id="a_Node000008"><a xlink:title=" ">
<polygon fill="#e0e0e0" stroke="#999999" points="1156.75,-129.75 1110.75,-129.75 1110.75,-110.5 1156.75,-110.5 1156.75,-129.75"/>
<text text-anchor="middle" x="1133.75" y="-116.25" font-family="Helvetica,sans-Serif" font-size="10.00">TBox.h</text>
</a>
</g>
</g>
<!-- Node2&#45;&gt;Node8 -->
<g id="edge7_Node000002_Node000008" class="edge">
<title>Node2&#45;&gt;Node8</title>
<g id="a_edge7_Node000002_Node000008"><a xlink:title=" ">
<path fill="none" stroke="#63b8ff" d="M1073.13,-165.34C1083.9,-157.49 1099.72,-145.95 1112.5,-136.62"/>
<polygon fill="#63b8ff" stroke="#63b8ff" points="1114.31,-139.64 1120.33,-130.92 1110.19,-133.98 1114.31,-139.64"/>
</a>
</g>
</g>
<!-- Node2&#45;&gt;Node9 -->
<g id="edge8_Node000002_Node000009" class="edge">
<title>Node2&#45;&gt;Node9</title>
<g id="a_edge8_Node000002_Node000009"><a xlink:title=" ">
<path fill="none" stroke="#63b8ff" d="M1035.26,-171.7C952.96,-163.05 693.89,-135.84 593.78,-125.33"/>
<polygon fill="#63b8ff" stroke="#63b8ff" points="594.2,-121.85 583.89,-124.29 593.47,-128.82 594.2,-121.85"/>
</a>
</g>
</g>
<!-- Node2&#45;&gt;Node25 -->
<g id="edge24_Node000002_Node000025" class="edge">
<title>Node2&#45;&gt;Node25</title>
<g id="a_edge24_Node000002_Node000025"><a xlink:title=" ">
<path fill="none" stroke="#63b8ff" d="M1083.99,-165.34C1105.94,-156.81 1139.1,-143.92 1163.96,-134.26"/>
<polygon fill="#63b8ff" stroke="#63b8ff" points="1164.93,-137.64 1172.99,-130.75 1162.4,-131.11 1164.93,-137.64"/>
</a>
</g>
</g>
<!-- Node9&#45;&gt;Node10 -->
<g id="edge9_Node000009_Node000010" class="edge">
<title>Node9&#45;&gt;Node10</title>
<g id="a_edge9_Node000009_Node000010"><a xlink:title=" ">
<path fill="none" stroke="#63b8ff" d="M582.2,-116.42C639.14,-110.8 771.34,-96.65 892.39,-74.75"/>
<polygon fill="#63b8ff" stroke="#63b8ff" points="893,-78.2 902.2,-72.95 891.73,-71.32 893,-78.2"/>
</a>
</g>
</g>
<!-- Node11 -->
<g id="Node000011" class="node">
<title>Node11</title>
<g id="a_Node000011"><a xlink:title=" ">
<polygon fill="#e0e0e0" stroke="#999999" points="651.62,-74.5 601.88,-74.5 601.88,-55.25 651.62,-55.25 651.62,-74.5"/>
<text text-anchor="middle" x="626.75" y="-61" font-family="Helvetica,sans-Serif" font-size="10.00">iomanip</text>
</a>
</g>
</g>
<!-- Node9&#45;&gt;Node11 -->
<g id="edge10_Node000009_Node000011" class="edge">
<title>Node9&#45;&gt;Node11</title>
<g id="a_edge10_Node000009_Node000011"><a xlink:title=" ">
<path fill="none" stroke="#63b8ff" d="M566.13,-110.09C576.9,-102.24 592.72,-90.7 605.5,-81.37"/>
<polygon fill="#63b8ff" stroke="#63b8ff" points="607.31,-84.39 613.33,-75.67 603.19,-78.73 607.31,-84.39"/>
</a>
</g>
</g>
<!-- Node12 -->
<g id="Node000012" class="node">
<title>Node12</title>
<g id="a_Node000012"><a xlink:title=" ">
<polygon fill="#e0e0e0" stroke="#999999" points="727.75,-74.5 669.75,-74.5 669.75,-55.25 727.75,-55.25 727.75,-74.5"/>
<text text-anchor="middle" x="698.75" y="-61" font-family="Helvetica,sans-Serif" font-size="10.00">stdexcept</text>
</a>
</g>
</g>
<!-- Node9&#45;&gt;Node12 -->
<g id="edge11_Node000009_Node000012" class="edge">
<title>Node9&#45;&gt;Node12</title>
<g id="a_edge11_Node000009_Node000012"><a xlink:title=" ">
<path fill="none" stroke="#63b8ff" d="M578.35,-110.09C601.68,-101.52 636.99,-88.56 663.35,-78.88"/>
<polygon fill="#63b8ff" stroke="#63b8ff" points="664.43,-82.21 672.61,-75.47 662.02,-75.64 664.43,-82.21"/>
</a>
</g>
</g>
<!-- Node13 -->
<g id="Node000013" class="node">
<title>Node13</title>
<g id="a_Node000013"><a xlink:title=" ">
<polygon fill="#e0e0e0" stroke="#999999" points="885.75,-74.5 845.75,-74.5 845.75,-55.25 885.75,-55.25 885.75,-74.5"/>
<text text-anchor="middle" x="865.75" y="-61" font-family="Helvetica,sans-Serif" font-size="10.00">string</text>
</a>
</g>
</g>
<!-- Node9&#45;&gt;Node13 -->
<g id="edge12_Node000009_Node000013" class="edge">
<title>Node9&#45;&gt;Node13</title>
<g id="a_edge12_Node000009_Node000013"><a xlink:title=" ">
<path fill="none" stroke="#63b8ff" d="M582.32,-115.4C632.87,-108.61 741.28,-93.2 831.75,-74.5 832.58,-74.33 833.42,-74.15 834.26,-73.97"/>
<polygon fill="#63b8ff" stroke="#63b8ff" points="834.91,-77.41 843.85,-71.72 833.31,-70.59 834.91,-77.41"/>
</a>
</g>
</g>
<!-- Node14 -->
<g id="Node000014" class="node">
<title>Node14</title>
<g id="a_Node000014"><a xlink:title=" ">
<polygon fill="#e0e0e0" stroke="#999999" points="1279.88,-19.25 1237.62,-19.25 1237.62,0 1279.88,0 1279.88,-19.25"/>
<text text-anchor="middle" x="1258.75" y="-5.75" font-family="Helvetica,sans-Serif" font-size="10.00">cstdio</text>
</a>
</g>
</g>
<!-- Node9&#45;&gt;Node14 -->
<g id="edge13_Node000009_Node000014" class="edge">
<title>Node9&#45;&gt;Node14</title>
<g id="a_edge13_Node000009_Node000014"><a xlink:title=" ">
<path fill="none" stroke="#63b8ff" d="M582.34,-116.62C628.75,-111.95 722.94,-100 798.75,-74.5 816.69,-68.46 818.59,-60.61 836.75,-55.25 873.77,-44.32 1133.03,-21.37 1225.82,-13.42"/>
<polygon fill="#63b8ff" stroke="#63b8ff" points="1226.1,-16.9 1235.77,-12.57 1225.51,-9.93 1226.1,-16.9"/>
</a>
</g>
</g>
<!-- Node15 -->
<g id="Node000015" class="node">
<title>Node15</title>
<g id="a_Node000015"><a xlink:title=" ">
<polygon fill="#e0e0e0" stroke="#999999" points="701.38,-19.25 656.12,-19.25 656.12,0 701.38,0 701.38,-19.25"/>
<text text-anchor="middle" x="678.75" y="-5.75" font-family="Helvetica,sans-Serif" font-size="10.00">cstdint</text>
</a>
</g>
</g>
<!-- Node9&#45;&gt;Node15 -->
<g id="edge14_Node000009_Node000015" class="edge">
<title>Node9&#45;&gt;Node15</title>
<g id="a_edge14_Node000009_Node000015"><a xlink:title=" ">
<path fill="none" stroke="#63b8ff" d="M525.16,-119.52C455.67,-119.82 280.94,-116.29 244.75,-74.5 239.15,-68.03 239.02,-61.6 244.75,-55.25 271.42,-25.7 546.97,-14.59 644.65,-11.56"/>
<polygon fill="#63b8ff" stroke="#63b8ff" points="644.51,-15.07 654.4,-11.27 644.3,-8.07 644.51,-15.07"/>
</a>
</g>
</g>
<!-- Node16 -->
<g id="Node000016" class="node">
<title>Node16</title>
<g id="a_Node000016"><a xlink:title=" ">
<polygon fill="#e0e0e0" stroke="#999999" points="790,-74.5 745.5,-74.5 745.5,-55.25 790,-55.25 790,-74.5"/>
<text text-anchor="middle" x="767.75" y="-61" font-family="Helvetica,sans-Serif" font-size="10.00">cstdlib</text>
</a>
</g>
</g>
<!-- Node9&#45;&gt;Node16 -->
<g id="edge15_Node000009_Node000016" class="edge">
<title>Node9&#45;&gt;Node16</title>
<g id="a_edge15_Node000009_Node000016"><a xlink:title=" ">
<path fill="none" stroke="#63b8ff" d="M582.35,-112.45C616.31,-104.46 674.93,-90.47 734.05,-75.15"/>
<polygon fill="#63b8ff" stroke="#63b8ff" points="734.83,-78.56 743.62,-72.65 733.06,-71.79 734.83,-78.56"/>
</a>
</g>
</g>
<!-- Node17 -->
<g id="Node000017" class="node">
<title>Node17</title>
<g id="a_Node000017"><a xlink:title=" ">
<polygon fill="#e0e0e0" stroke="#999999" points="59.5,-74.5 0,-74.5 0,-55.25 59.5,-55.25 59.5,-74.5"/>
<text text-anchor="middle" x="29.75" y="-61" font-family="Helvetica,sans-Serif" font-size="10.00">execinfo.h</text>
</a>
</g>
</g>
<!-- Node9&#45;&gt;Node17 -->
<g id="edge16_Node000009_Node000017" class="edge">
<title>Node9&#45;&gt;Node17</title>
<g id="a_edge16_Node000009_Node000017"><a xlink:title=" ">
<path fill="none" stroke="#63b8ff" d="M525.17,-117.75C451.57,-113.96 249.38,-101.85 71.08,-74.67"/>
<polygon fill="#63b8ff" stroke="#63b8ff" points="71.83,-71.24 61.41,-73.17 70.76,-78.16 71.83,-71.24"/>
</a>
</g>
</g>
<!-- Node18 -->
<g id="Node000018" class="node">
<title>Node18</title>
<g id="a_Node000018"><a xlink:title=" ">
<polygon fill="#e0e0e0" stroke="#999999" points="128,-74.5 77.5,-74.5 77.5,-55.25 128,-55.25 128,-74.5"/>
<text text-anchor="middle" x="102.75" y="-61" font-family="Helvetica,sans-Serif" font-size="10.00">cxxabi.h</text>
</a>
</g>
</g>
<!-- Node9&#45;&gt;Node18 -->
<g id="edge17_Node000009_Node000018" class="edge">
<title>Node9&#45;&gt;Node18</title>
<g id="a_edge17_Node000009_Node000018"><a xlink:title=" ">
<path fill="none" stroke="#63b8ff" d="M525.24,-117.47C459.11,-113.34 290.04,-101.09 139.55,-74.77"/>
<polygon fill="#63b8ff" stroke="#63b8ff" points="140.23,-71.34 129.78,-73.03 139.01,-78.23 140.23,-71.34"/>
</a>
</g>
</g>
<!-- Node19 -->
<g id="Node000019" class="node">
<title>Node19</title>
<g id="a_Node000019"><a xlink:title=" ">
<polygon fill="#e0e0e0" stroke="#999999" points="197.38,-74.5 146.12,-74.5 146.12,-55.25 197.38,-55.25 197.38,-74.5"/>
<text text-anchor="middle" x="171.75" y="-61" font-family="Helvetica,sans-Serif" font-size="10.00">sstream</text>
</a>
</g>
</g>
<!-- Node9&#45;&gt;Node19 -->
<g id="edge18_Node000009_Node000019" class="edge">
<title>Node9&#45;&gt;Node19</title>
<g id="a_edge18_Node000009_Node000019"><a xlink:title=" ">
<path fill="none" stroke="#63b8ff" d="M525.25,-116.21C466.43,-110.02 327.4,-94.48 211.75,-74.5 210.74,-74.33 209.72,-74.14 208.68,-73.95"/>
<polygon fill="#63b8ff" stroke="#63b8ff" points="209.48,-70.54 198.99,-72.05 208.13,-77.41 209.48,-70.54"/>
</a>
</g>
</g>
<!-- Node20 -->
<g id="Node000020" class="node">
<title>Node20</title>
<g id="a_Node000020"><a xlink:title=" ">
<polygon fill="#e0e0e0" stroke="#999999" points="291.25,-74.5 254.25,-74.5 254.25,-55.25 291.25,-55.25 291.25,-74.5"/>
<text text-anchor="middle" x="272.75" y="-61" font-family="Helvetica,sans-Serif" font-size="10.00">array</text>
</a>
</g>
</g>
<!-- Node9&#45;&gt;Node20 -->
<g id="edge19_Node000009_Node000020" class="edge">
<title>Node9&#45;&gt;Node20</title>
<g id="a_edge19_Node000009_Node000020"><a xlink:title=" ">
<path fill="none" stroke="#63b8ff" d="M525.05,-115.25C479.82,-108.89 389.03,-95.09 302.69,-74.7"/>
<polygon fill="#63b8ff" stroke="#63b8ff" points="303.65,-71.33 293.11,-72.4 302.02,-78.13 303.65,-71.33"/>
</a>
</g>
</g>
<!-- Node21 -->
<g id="Node000021" class="node">
<title>Node21</title>
<g id="a_Node000021"><a xlink:title=" ">
<polygon fill="#e0e0e0" stroke="#999999" points="360,-74.5 309.5,-74.5 309.5,-55.25 360,-55.25 360,-74.5"/>
<text text-anchor="middle" x="334.75" y="-61" font-family="Helvetica,sans-Serif" font-size="10.00">memory</text>
</a>
</g>
</g>
<!-- Node9&#45;&gt;Node21 -->
<g id="edge20_Node000009_Node000021" class="edge">
<title>Node9&#45;&gt;Node21</title>
<g id="a_edge20_Node000009_Node000021"><a xlink:title=" ">
<path fill="none" stroke="#63b8ff" d="M525.2,-112.35C490.9,-104.18 431.32,-89.92 371.19,-75.08"/>
<polygon fill="#63b8ff" stroke="#63b8ff" points="372.38,-71.77 361.83,-72.77 370.7,-78.57 372.38,-71.77"/>
</a>
</g>
</g>
<!-- Node22 -->
<g id="Node000022" class="node">
<title>Node22</title>
<g id="a_Node000022"><a xlink:title=" ">
<polygon fill="#e0e0e0" stroke="#999999" points="427.62,-74.5 377.88,-74.5 377.88,-55.25 427.62,-55.25 427.62,-74.5"/>
<text text-anchor="middle" x="402.75" y="-61" font-family="Helvetica,sans-Serif" font-size="10.00">unistd.h</text>
</a>
</g>
</g>
<!-- Node9&#45;&gt;Node22 -->
<g id="edge21_Node000009_Node000022" class="edge">
<title>Node9&#45;&gt;Node22</title>
<g id="a_edge21_Node000009_Node000022"><a xlink:title=" ">
<path fill="none" stroke="#63b8ff" d="M528.13,-110.09C503.58,-101.43 466.29,-88.28 438.75,-78.57"/>
<polygon fill="#63b8ff" stroke="#63b8ff" points="440.01,-75.3 429.41,-75.28 437.68,-81.9 440.01,-75.3"/>
</a>
</g>
</g>
<!-- Node23 -->
<g id="Node000023" class="node">
<title>Node23</title>
<g id="a_Node000023"><a xlink:title=" ">
<polygon fill="#e0e0e0" stroke="#999999" points="505.5,-74.5 446,-74.5 446,-55.25 505.5,-55.25 505.5,-74.5"/>
<text text-anchor="middle" x="475.75" y="-61" font-family="Helvetica,sans-Serif" font-size="10.00">sys/wait.h</text>
</a>
</g>
</g>
<!-- Node9&#45;&gt;Node23 -->
<g id="edge22_Node000009_Node000023" class="edge">
<title>Node9&#45;&gt;Node23</title>
<g id="a_edge22_Node000009_Node000023"><a xlink:title=" ">
<path fill="none" stroke="#63b8ff" d="M540.52,-110.09C528.98,-102.21 511.98,-90.61 498.3,-81.27"/>
<polygon fill="#63b8ff" stroke="#63b8ff" points="500.53,-78.55 490.3,-75.81 496.58,-84.33 500.53,-78.55"/>
</a>
</g>
</g>
<!-- Node24 -->
<g id="Node000024" class="node">
<title>Node24</title>
<g id="a_Node000024"><a xlink:title=" ">
<polygon fill="#e0e0e0" stroke="#999999" points="583.88,-74.5 523.62,-74.5 523.62,-55.25 583.88,-55.25 583.88,-74.5"/>
<text text-anchor="middle" x="553.75" y="-61" font-family="Helvetica,sans-Serif" font-size="10.00">sys/prctl.h</text>
</a>
</g>
</g>
<!-- Node9&#45;&gt;Node24 -->
<g id="edge23_Node000009_Node000024" class="edge">
<title>Node9&#45;&gt;Node24</title>
<g id="a_edge23_Node000009_Node000024"><a xlink:title=" ">
<path fill="none" stroke="#63b8ff" d="M553.75,-110.33C553.75,-103.82 553.75,-94.67 553.75,-86.37"/>
<polygon fill="#63b8ff" stroke="#63b8ff" points="557.25,-86.37 553.75,-76.37 550.25,-86.37 557.25,-86.37"/>
</a>
</g>
</g>
<!-- Node25&#45;&gt;Node7 -->
<g id="edge28_Node000025_Node000007" class="edge">
<title>Node25&#45;&gt;Node7</title>
<g id="a_edge28_Node000025_Node000007"><a xlink:title=" ">
<path fill="none" stroke="#63b8ff" d="M1174.09,-111.92C1140.78,-101.54 1083.47,-82.74 1077.75,-74.5 1067.3,-59.46 1079.55,-40.52 1091.79,-27.18"/>
<polygon fill="#63b8ff" stroke="#63b8ff" points="1093.97,-29.96 1098.53,-20.4 1089,-25.03 1093.97,-29.96"/>
</a>
</g>
</g>
<!-- Node25&#45;&gt;Node14 -->
<g id="edge25_Node000025_Node000014" class="edge">
<title>Node25&#45;&gt;Node14</title>
<g id="a_edge25_Node000025_Node000014"><a xlink:title=" ">
<path fill="none" stroke="#63b8ff" d="M1174.09,-111.28C1142.79,-100.67 1090.96,-82.19 1085.75,-74.5 1080.95,-67.42 1080.51,-62.01 1085.75,-55.25 1102.8,-33.25 1180.96,-20.16 1226.18,-14.31"/>
<polygon fill="#63b8ff" stroke="#63b8ff" points="1226.45,-17.8 1235.94,-13.09 1225.58,-10.85 1226.45,-17.8"/>
</a>
</g>
</g>
<!-- Node26 -->
<g id="Node000026" class="node">
<title>Node26</title>
<g id="a_Node000026"><a xlink:title=" ">
<polygon fill="#e0e0e0" stroke="#999999" points="1591.25,-19.25 1530.25,-19.25 1530.25,0 1591.25,0 1591.25,-19.25"/>
<text text-anchor="middle" x="1560.75" y="-5.75" font-family="Helvetica,sans-Serif" font-size="10.00">TNamed.h</text>
</a>
</g>
</g>
<!-- Node25&#45;&gt;Node26 -->
<g id="edge26_Node000025_Node000026" class="edge">
<title>Node25&#45;&gt;Node26</title>
<g id="a_edge26_Node000025_Node000026"><a xlink:title=" ">
<path fill="none" stroke="#63b8ff" d="M1184.56,-110.01C1167.27,-96.99 1140.91,-72.73 1156.75,-55.25 1209.14,2.58 1422.38,-29.04 1518.42,-19.13"/>
<polygon fill="#63b8ff" stroke="#63b8ff" points="1518.83,-22.6 1528.31,-17.85 1517.94,-15.66 1518.83,-22.6"/>
</a>
</g>
</g>
<!-- Node27 -->
<g id="Node000027" class="node">
<title>Node27</title>
<g id="a_Node000027"><a xlink:title=" ">
<polygon fill="#e0e0e0" stroke="#999999" points="1511.88,-19.25 1469.62,-19.25 1469.62,0 1511.88,0 1511.88,-19.25"/>
<text text-anchor="middle" x="1490.75" y="-5.75" font-family="Helvetica,sans-Serif" font-size="10.00">TH2.h</text>
</a>
</g>
</g>
<!-- Node25&#45;&gt;Node27 -->
<g id="edge27_Node000025_Node000027" class="edge">
<title>Node25&#45;&gt;Node27</title>
<g id="a_edge27_Node000025_Node000027"><a xlink:title=" ">
<path fill="none" stroke="#63b8ff" d="M1174.3,-110.66C1145.87,-99.17 1104.06,-77.48 1123.75,-55.25 1145.75,-30.41 1371.7,-16.58 1457.73,-12.18"/>
<polygon fill="#63b8ff" stroke="#63b8ff" points="1457.82,-15.68 1467.63,-11.69 1457.47,-8.69 1457.82,-15.68"/>
</a>
</g>
</g>
<!-- Node25&#45;&gt;Node28 -->
<g id="edge29_Node000025_Node000028" class="edge">
<title>Node25&#45;&gt;Node28</title>
<g id="a_edge29_Node000025_Node000028"><a xlink:title=" ">
<path fill="none" stroke="#63b8ff" d="M1198.58,-110.33C1199.19,-103.74 1200.07,-94.46 1200.85,-86.07"/>
<polygon fill="#63b8ff" stroke="#63b8ff" points="1204.31,-86.65 1201.76,-76.37 1197.35,-86 1204.31,-86.65"/>
</a>
</g>
</g>
<!-- Node25&#45;&gt;Node29 -->
<g id="edge30_Node000025_Node000029" class="edge">
<title>Node25&#45;&gt;Node29</title>
<g id="a_edge30_Node000025_Node000029"><a xlink:title=" ">
<path fill="none" stroke="#63b8ff" d="M1212.85,-110.09C1226.27,-102.06 1246.16,-90.16 1261.92,-80.73"/>
<polygon fill="#63b8ff" stroke="#63b8ff" points="1263.5,-83.87 1270.28,-75.73 1259.9,-77.86 1263.5,-83.87"/>
</a>
</g>
</g>
<!-- Node30 -->
<g id="Node000030" class="node">
<title>Node30</title>
<g id="a_Node000030"><a xlink:href="_g_h2_base_8h.html" target="_top" xlink:title=" ">
<polygon fill="white" stroke="#666666" points="1523.88,-74.5 1457.62,-74.5 1457.62,-55.25 1523.88,-55.25 1523.88,-74.5"/>
<text text-anchor="middle" x="1490.75" y="-61" font-family="Helvetica,sans-Serif" font-size="10.00">GH2Base.h</text>
</a>
</g>
</g>
<!-- Node25&#45;&gt;Node30 -->
<g id="edge31_Node000025_Node000030" class="edge">
<title>Node25&#45;&gt;Node30</title>
<g id="a_edge31_Node000025_Node000030"><a xlink:title=" ">
<path fill="none" stroke="#63b8ff" d="M1221.23,-114.86C1270.07,-105.98 1383.26,-85.41 1446.32,-73.95"/>
<polygon fill="#63b8ff" stroke="#63b8ff" points="1446.78,-77.42 1455.99,-72.19 1445.53,-70.54 1446.78,-77.42"/>
</a>
</g>
</g>
<!-- Node30&#45;&gt;Node7 -->
<g id="edge36_Node000030_Node000007" class="edge">
<title>Node30&#45;&gt;Node7</title>
<g id="a_edge36_Node000030_Node000007"><a xlink:title=" ">
<path fill="none" stroke="#63b8ff" d="M1457.15,-57.5C1452.65,-56.71 1448.09,-55.94 1443.75,-55.25 1334.6,-37.95 1204.67,-21.88 1144.06,-14.65"/>
<polygon fill="#63b8ff" stroke="#63b8ff" points="1144.73,-11.21 1134.39,-13.5 1143.91,-18.16 1144.73,-11.21"/>
</a>
</g>
</g>
<!-- Node30&#45;&gt;Node14 -->
<g id="edge32_Node000030_Node000014" class="edge">
<title>Node30&#45;&gt;Node14</title>
<g id="a_edge32_Node000030_Node000014"><a xlink:title=" ">
<path fill="none" stroke="#63b8ff" d="M1457.51,-56.25C1413.21,-46.08 1335.3,-28.2 1291.34,-18.1"/>
<polygon fill="#63b8ff" stroke="#63b8ff" points="1292.16,-14.7 1281.63,-15.88 1290.59,-21.52 1292.16,-14.7"/>
</a>
</g>
</g>
<!-- Node30&#45;&gt;Node15 -->
<g id="edge33_Node000030_Node000015" class="edge">
<title>Node30&#45;&gt;Node15</title>
<g id="a_edge33_Node000030_Node000015"><a xlink:title=" ">
<path fill="none" stroke="#63b8ff" d="M1457.31,-59.92C1442.99,-58.32 1426.06,-56.54 1410.75,-55.25 1142.57,-32.63 818.2,-16.94 713.27,-12.16"/>
<polygon fill="#63b8ff" stroke="#63b8ff" points="713.52,-8.67 703.37,-11.71 713.2,-15.66 713.52,-8.67"/>
</a>
</g>
</g>
<!-- Node30&#45;&gt;Node26 -->
<g id="edge34_Node000030_Node000026" class="edge">
<title>Node30&#45;&gt;Node26</title>
<g id="a_edge34_Node000030_Node000026"><a xlink:title=" ">
<path fill="none" stroke="#63b8ff" d="M1502.62,-54.84C1512.84,-47.07 1527.82,-35.67 1540.01,-26.4"/>
<polygon fill="#63b8ff" stroke="#63b8ff" points="1542.01,-29.28 1547.85,-20.44 1537.77,-23.71 1542.01,-29.28"/>
</a>
</g>
</g>
<!-- Node30&#45;&gt;Node27 -->
<g id="edge35_Node000030_Node000027" class="edge">
<title>Node30&#45;&gt;Node27</title>
<g id="a_edge35_Node000030_Node000027"><a xlink:title=" ">
<path fill="none" stroke="#63b8ff" d="M1490.75,-55.08C1490.75,-48.57 1490.75,-39.42 1490.75,-31.12"/>
<polygon fill="#63b8ff" stroke="#63b8ff" points="1494.25,-31.12 1490.75,-21.12 1487.25,-31.12 1494.25,-31.12"/>
</a>
</g>
</g>
<!-- Node37&#45;&gt;Node13 -->
<g id="edge48_Node000037_Node000013" class="edge">
<title>Node37&#45;&gt;Node13</title>
<g id="a_edge48_Node000037_Node000013"><a xlink:title=" ">
<path fill="none" stroke="#63b8ff" d="M1381.26,-116.26C1270.23,-109.76 1006.67,-93.13 897.52,-74.57"/>
<polygon fill="#63b8ff" stroke="#63b8ff" points="898.17,-71.13 887.71,-72.8 896.93,-78.02 898.17,-71.13"/>
</a>
</g>
</g>
<!-- Node37&#45;&gt;Node27 -->
<g id="edge50_Node000037_Node000027" class="edge">
<title>Node37&#45;&gt;Node27</title>
<g id="a_edge50_Node000037_Node000027"><a xlink:title=" ">
<path fill="none" stroke="#63b8ff" d="M1479.49,-110.07C1499.49,-103.66 1520.82,-92.81 1532.75,-74.5 1543.41,-58.14 1527.94,-39.49 1512.86,-26.58"/>
<polygon fill="#63b8ff" stroke="#63b8ff" points="1515.41,-24.14 1505.41,-20.65 1511.05,-29.61 1515.41,-24.14"/>
</a>
</g>
</g>
<!-- Node38 -->
<g id="Node000038" class="node">
<title>Node38</title>
<g id="a_Node000038"><a xlink:title=" ">
<polygon fill="#e0e0e0" stroke="#999999" points="1401.62,-74.5 1333.88,-74.5 1333.88,-55.25 1401.62,-55.25 1401.62,-74.5"/>
<text text-anchor="middle" x="1367.75" y="-61" font-family="Helvetica,sans-Serif" font-size="10.00">TDirectory.h</text>
</a>
</g>
</g>
<!-- Node37&#45;&gt;Node38 -->
<g id="edge49_Node000037_Node000038" class="edge">
<title>Node37&#45;&gt;Node38</title>
<g id="a_edge49_Node000037_Node000038"><a xlink:title=" ">
<path fill="none" stroke="#63b8ff" d="M1420.89,-110.09C1411.64,-102.4 1398.13,-91.15 1387.04,-81.93"/>
<polygon fill="#63b8ff" stroke="#63b8ff" points="1389.54,-79.45 1379.61,-75.74 1385.06,-84.83 1389.54,-79.45"/>
</a>
</g>
</g>
<!-- Node39&#45;&gt;Node3 -->
<g id="edge56_Node000039_Node000003" class="edge">
<title>Node39&#45;&gt;Node3</title>
<g id="a_edge56_Node000039_Node000003"><a xlink:title=" ">
<path fill="none" stroke="#63b8ff" d="M1831.25,-110.09C1823.32,-102.55 1811.8,-91.6 1802.21,-82.48"/>
<polygon fill="#63b8ff" stroke="#63b8ff" points="1804.86,-80.17 1795.21,-75.82 1800.04,-85.24 1804.86,-80.17"/>
</a>
</g>
</g>
<!-- Node39&#45;&gt;Node10 -->
<g id="edge59_Node000039_Node000010" class="edge">
<title>Node39&#45;&gt;Node10</title>
<g id="a_edge59_Node000039_Node000010"><a xlink:title=" ">
<path fill="none" stroke="#63b8ff" d="M1808.36,-117.23C1668.87,-109.07 1119.62,-76.93 969.08,-68.12"/>
<polygon fill="#63b8ff" stroke="#63b8ff" points="969.45,-64.63 959.26,-67.54 969.04,-71.62 969.45,-64.63"/>
</a>
</g>
</g>
<!-- Node39&#45;&gt;Node30 -->
<g id="edge52_Node000039_Node000030" class="edge">
<title>Node39&#45;&gt;Node30</title>
<g id="a_edge52_Node000039_Node000030"><a xlink:title=" ">
<path fill="none" stroke="#63b8ff" d="M1808.45,-114.21C1745.69,-104.66 1607.17,-83.59 1535.56,-72.69"/>
<polygon fill="#63b8ff" stroke="#63b8ff" points="1536.16,-69.24 1525.75,-71.2 1535.11,-76.16 1536.16,-69.24"/>
</a>
</g>
</g>
<!-- Node40 -->
<g id="Node000040" class="node">
<title>Node40</title>
<g id="a_Node000040"><a xlink:title=" ">
<polygon fill="#e0e0e0" stroke="#999999" points="1947.38,-74.5 1890.12,-74.5 1890.12,-55.25 1947.38,-55.25 1947.38,-74.5"/>
<text text-anchor="middle" x="1918.75" y="-61" font-family="Helvetica,sans-Serif" font-size="10.00">TROOT.h</text>
</a>
</g>
</g>
<!-- Node39&#45;&gt;Node40 -->
<g id="edge53_Node000039_Node000040" class="edge">
<title>Node39&#45;&gt;Node40</title>
<g id="a_edge53_Node000039_Node000040"><a xlink:title=" ">
<path fill="none" stroke="#63b8ff" d="M1853.98,-110.09C1865.52,-102.21 1882.52,-90.61 1896.2,-81.27"/>
<polygon fill="#63b8ff" stroke="#63b8ff" points="1897.92,-84.33 1904.2,-75.81 1893.97,-78.55 1897.92,-84.33"/>
</a>
</g>
</g>
<!-- Node41 -->
<g id="Node000041" class="node">
<title>Node41</title>
<g id="a_Node000041"><a xlink:title=" ">
<polygon fill="#e0e0e0" stroke="#999999" points="2028,-74.5 1965.5,-74.5 1965.5,-55.25 2028,-55.25 2028,-74.5"/>
<text text-anchor="middle" x="1996.75" y="-61" font-family="Helvetica,sans-Serif" font-size="10.00">TCanvas.h</text>
</a>
</g>
</g>
<!-- Node39&#45;&gt;Node41 -->
<g id="edge54_Node000039_Node000041" class="edge">
<title>Node39&#45;&gt;Node41</title>
<g id="a_edge54_Node000039_Node000041"><a xlink:title=" ">
<path fill="none" stroke="#63b8ff" d="M1867.21,-110.09C1892.54,-101.45 1930.98,-88.32 1959.42,-78.62"/>
<polygon fill="#63b8ff" stroke="#63b8ff" points="1960.39,-81.98 1968.72,-75.44 1958.13,-75.36 1960.39,-81.98"/>
</a>
</g>
</g>
<!-- Node42 -->
<g id="Node000042" class="node">
<title>Node42</title>
<g id="a_Node000042"><a xlink:title=" ">
<polygon fill="#e0e0e0" stroke="#999999" points="2129.12,-74.5 2046.38,-74.5 2046.38,-55.25 2129.12,-55.25 2129.12,-74.5"/>
<text text-anchor="middle" x="2087.75" y="-61" font-family="Helvetica,sans-Serif" font-size="10.00">TRootCanvas.h</text>
</a>
</g>
</g>
<!-- Node39&#45;&gt;Node42 -->
<g id="edge55_Node000039_Node000042" class="edge">
<title>Node39&#45;&gt;Node42</title>
<g id="a_edge55_Node000039_Node000042"><a xlink:title=" ">
<path fill="none" stroke="#63b8ff" d="M1873.04,-112.16C1914.17,-103.3 1985.78,-87.86 2034.91,-77.27"/>
<polygon fill="#63b8ff" stroke="#63b8ff" points="2035.44,-80.73 2044.48,-75.2 2033.97,-73.89 2035.44,-80.73"/>
</a>
</g>
</g>
<!-- Node43 -->
<g id="Node000043" class="node">
<title>Node43</title>
<g id="a_Node000043"><a xlink:title=" ">
<polygon fill="#e0e0e0" stroke="#999999" points="1871.88,-74.5 1823.62,-74.5 1823.62,-55.25 1871.88,-55.25 1871.88,-74.5"/>
<text text-anchor="middle" x="1847.75" y="-61" font-family="Helvetica,sans-Serif" font-size="10.00">TLine.h</text>
</a>
</g>
</g>
<!-- Node39&#45;&gt;Node43 -->
<g id="edge57_Node000039_Node000043" class="edge">
<title>Node39&#45;&gt;Node43</title>
<g id="a_edge57_Node000039_Node000043"><a xlink:title=" ">
<path fill="none" stroke="#63b8ff" d="M1841.91,-110.33C1842.77,-103.74 1843.99,-94.46 1845.09,-86.07"/>
<polygon fill="#63b8ff" stroke="#63b8ff" points="1848.54,-86.73 1846.37,-76.36 1841.6,-85.82 1848.54,-86.73"/>
</a>
</g>
</g>
<!-- Node44 -->
<g id="Node000044" class="node">
<title>Node44</title>
<g id="a_Node000044"><a xlink:title=" ">
<polygon fill="#e0e0e0" stroke="#999999" points="1745.75,-74.5 1693.75,-74.5 1693.75,-55.25 1745.75,-55.25 1745.75,-74.5"/>
<text text-anchor="middle" x="1719.75" y="-61" font-family="Helvetica,sans-Serif" font-size="10.00">TCutG.h</text>
</a>
</g>
</g>
<!-- Node39&#45;&gt;Node44 -->
<g id="edge58_Node000039_Node000044" class="edge">
<title>Node39&#45;&gt;Node44</title>
<g id="a_edge58_Node000039_Node000044"><a xlink:title=" ">
<path fill="none" stroke="#63b8ff" d="M1820.22,-110.09C1801.19,-101.72 1772.6,-89.13 1750.78,-79.53"/>
<polygon fill="#63b8ff" stroke="#63b8ff" points="1752.32,-76.39 1741.76,-75.56 1749.51,-82.79 1752.32,-76.39"/>
</a>
</g>
</g>
<!-- Node45&#45;&gt;Node7 -->
<g id="edge65_Node000045_Node000007" class="edge">
<title>Node45&#45;&gt;Node7</title>
<g id="a_edge65_Node000045_Node000007"><a xlink:title=" ">
<path fill="none" stroke="#63b8ff" d="M1564.09,-112.36C1535.49,-104.51 1488.09,-90.57 1448.75,-74.5 1431.22,-67.34 1428.79,-60.99 1410.75,-55.25 1317.22,-25.49 1200.92,-15.42 1144.15,-12.14"/>
<polygon fill="#63b8ff" stroke="#63b8ff" points="1144.66,-8.66 1134.48,-11.62 1144.28,-15.65 1144.66,-8.66"/>
</a>
</g>
</g>
<!-- Node45&#45;&gt;Node14 -->
<g id="edge62_Node000045_Node000014" class="edge">
<title>Node45&#45;&gt;Node14</title>
<g id="a_edge62_Node000045_Node000014"><a xlink:title=" ">
<path fill="none" stroke="#63b8ff" d="M1584.73,-110.39C1576.09,-96.24 1556.99,-68.55 1532.75,-55.25 1491.67,-32.71 1354.89,-18.66 1291.51,-13.21"/>
<polygon fill="#63b8ff" stroke="#63b8ff" points="1291.98,-9.74 1281.72,-12.39 1291.4,-16.72 1291.98,-9.74"/>
</a>
</g>
</g>
<!-- Node45&#45;&gt;Node26 -->
<g id="edge63_Node000045_Node000026" class="edge">
<title>Node45&#45;&gt;Node26</title>
<g id="a_edge63_Node000045_Node000026"><a xlink:title=" ">
<path fill="none" stroke="#63b8ff" d="M1606.57,-110.05C1626.16,-98.23 1654.33,-76.55 1641.75,-55.25 1632.92,-40.31 1617.12,-30.03 1601.79,-23.14"/>
<polygon fill="#63b8ff" stroke="#63b8ff" points="1603.34,-19.99 1592.76,-19.47 1600.7,-26.48 1603.34,-19.99"/>
</a>
</g>
</g>
<!-- Node45&#45;&gt;Node27 -->
<g id="edge64_Node000045_Node000027" class="edge">
<title>Node45&#45;&gt;Node27</title>
<g id="a_edge64_Node000045_Node000027"><a xlink:title=" ">
<path fill="none" stroke="#63b8ff" d="M1595.76,-110.05C1603.65,-96.86 1615.24,-72.15 1603.75,-55.25 1598.92,-48.15 1554.53,-32.03 1522.85,-21.24"/>
<polygon fill="#63b8ff" stroke="#63b8ff" points="1524.29,-18.03 1513.7,-18.15 1522.05,-24.66 1524.29,-18.03"/>
</a>
</g>
</g>
<!-- Node45&#45;&gt;Node28 -->
<g id="edge66_Node000045_Node000028" class="edge">
<title>Node45&#45;&gt;Node28</title>
<g id="a_edge66_Node000045_Node000028"><a xlink:title=" ">
<path fill="none" stroke="#63b8ff" d="M1564.01,-116.25C1508.73,-109.97 1374.28,-94.13 1251.46,-74.86"/>
<polygon fill="#63b8ff" stroke="#63b8ff" points="1252.3,-71.45 1241.87,-73.34 1251.2,-78.36 1252.3,-71.45"/>
</a>
</g>
</g>
<!-- Node45&#45;&gt;Node29 -->
<g id="edge67_Node000045_Node000029" class="edge">
<title>Node45&#45;&gt;Node29</title>
<g id="a_edge67_Node000045_Node000029"><a xlink:title=" ">
<path fill="none" stroke="#63b8ff" d="M1564.08,-115.29C1518.46,-108.38 1420.05,-93 1326.81,-74.81"/>
<polygon fill="#63b8ff" stroke="#63b8ff" points="1327.73,-71.42 1317.25,-72.93 1326.38,-78.29 1327.73,-71.42"/>
</a>
</g>
</g>
<!-- Node45&#45;&gt;Node30 -->
<g id="edge69_Node000045_Node000030" class="edge">
<title>Node45&#45;&gt;Node30</title>
<g id="a_edge69_Node000045_Node000030"><a xlink:title=" ">
<path fill="none" stroke="#63b8ff" d="M1572.96,-110.09C1557.74,-101.91 1535.05,-89.71 1517.37,-80.19"/>
<polygon fill="#63b8ff" stroke="#63b8ff" points="1519.42,-77.32 1508.96,-75.67 1516.11,-83.49 1519.42,-77.32"/>
</a>
</g>
</g>
<!-- Node45&#45;&gt;Node44 -->
<g id="edge68_Node000045_Node000044" class="edge">
<title>Node45&#45;&gt;Node44</title>
<g id="a_edge68_Node000045_Node000044"><a xlink:title=" ">
<path fill="none" stroke="#63b8ff" d="M1611.8,-110.09C1632.44,-101.64 1663.53,-88.9 1687.05,-79.27"/>
<polygon fill="#63b8ff" stroke="#63b8ff" points="1688.26,-82.56 1696.19,-75.53 1685.61,-76.08 1688.26,-82.56"/>
</a>
</g>
</g>
</g>
</svg>
