<?xml version="1.0" encoding="UTF-8" standalone="no"?>
<!DOCTYPE svg PUBLIC "-//W3C//DTD SVG 1.1//EN"
 "http://www.w3.org/Graphics/SVG/1.1/DTD/svg11.dtd">
<!-- Generated by graphviz version 12.2.0 (20241103.1931)
 -->
<!-- Title: GH2I.cxx Pages: 1 -->
<svg width="1446pt" height="248pt"
 viewBox="0.00 0.00 1446.25 248.25" xmlns="http://www.w3.org/2000/svg" xmlns:xlink="http://www.w3.org/1999/xlink">
<g id="graph0" class="graph" transform="scale(1 1) rotate(0) translate(4 244.25)">
<title>GH2I.cxx</title>
<!-- Node1 -->
<g id="Node000001" class="node">
<title>Node1</title>
<g id="a_Node000001"><a xlink:title=" ">
<polygon fill="#999999" stroke="#666666" points="681.38,-240.25 625.62,-240.25 625.62,-221 681.38,-221 681.38,-240.25"/>
<text text-anchor="middle" x="653.5" y="-226.75" font-family="Helvetica,sans-Serif" font-size="10.00">GH2I.cxx</text>
</a>
</g>
</g>
<!-- Node2 -->
<g id="Node000002" class="node">
<title>Node2</title>
<g id="a_Node000002"><a xlink:href="_g_h2_i_8h.html" target="_top" xlink:title=" ">
<polygon fill="white" stroke="#666666" points="176.88,-129.75 130.12,-129.75 130.12,-110.5 176.88,-110.5 176.88,-129.75"/>
<text text-anchor="middle" x="153.5" y="-116.25" font-family="Helvetica,sans-Serif" font-size="10.00">GH2I.h</text>
</a>
</g>
</g>
<!-- Node1&#45;&gt;Node2 -->
<g id="edge1_Node000001_Node000002" class="edge">
<title>Node1&#45;&gt;Node2</title>
<g id="a_edge1_Node000001_Node000002"><a xlink:title=" ">
<path fill="none" stroke="#63b8ff" d="M625.5,-226.07C575.98,-219.56 469.8,-204.55 381.5,-185 312.09,-169.63 232.4,-145.88 188.01,-132.08"/>
<polygon fill="#63b8ff" stroke="#63b8ff" points="189.28,-128.81 178.69,-129.17 187.19,-135.49 189.28,-128.81"/>
</a>
</g>
</g>
<!-- Node10 -->
<g id="Node000010" class="node">
<title>Node10</title>
<g id="a_Node000010"><a xlink:title=" ">
<polygon fill="#e0e0e0" stroke="#999999" points="1438.25,-74.5 1384.75,-74.5 1384.75,-55.25 1438.25,-55.25 1438.25,-74.5"/>
<text text-anchor="middle" x="1411.5" y="-61" font-family="Helvetica,sans-Serif" font-size="10.00">iostream</text>
</a>
</g>
</g>
<!-- Node1&#45;&gt;Node10 -->
<g id="edge13_Node000001_Node000010" class="edge">
<title>Node1&#45;&gt;Node10</title>
<g id="a_edge13_Node000001_Node000010"><a xlink:title=" ">
<path fill="none" stroke="#63b8ff" d="M681.68,-223.26C733.22,-211.65 846.13,-186.33 941.5,-165.75 1131.01,-124.86 1182.02,-118.64 1373.38,-75.16"/>
<polygon fill="#63b8ff" stroke="#63b8ff" points="1373.94,-78.62 1382.91,-72.99 1372.39,-71.8 1373.94,-78.62"/>
</a>
</g>
</g>
<!-- Node11 -->
<g id="Node000011" class="node">
<title>Node11</title>
<g id="a_Node000011"><a xlink:title=" ">
<polygon fill="#e0e0e0" stroke="#999999" points="1018.38,-185 950.62,-185 950.62,-165.75 1018.38,-165.75 1018.38,-185"/>
<text text-anchor="middle" x="984.5" y="-171.5" font-family="Helvetica,sans-Serif" font-size="10.00">TDirectory.h</text>
</a>
</g>
</g>
<!-- Node1&#45;&gt;Node11 -->
<g id="edge14_Node000001_Node000011" class="edge">
<title>Node1&#45;&gt;Node11</title>
<g id="a_edge14_Node000001_Node000011"><a xlink:title=" ">
<path fill="none" stroke="#63b8ff" d="M681.65,-225.39C732.56,-217.69 843.31,-200.72 936.5,-185 937.33,-184.86 938.17,-184.72 939.01,-184.57"/>
<polygon fill="#63b8ff" stroke="#63b8ff" points="939.42,-188.06 948.68,-182.9 938.22,-181.16 939.42,-188.06"/>
</a>
</g>
</g>
<!-- Node12 -->
<g id="Node000012" class="node">
<title>Node12</title>
<g id="a_Node000012"><a xlink:href="_g_h1_d_8h.html" target="_top" xlink:title=" ">
<polygon fill="white" stroke="#666666" points="440.75,-185 390.25,-185 390.25,-165.75 440.75,-165.75 440.75,-185"/>
<text text-anchor="middle" x="415.5" y="-171.5" font-family="Helvetica,sans-Serif" font-size="10.00">GH1D.h</text>
</a>
</g>
</g>
<!-- Node1&#45;&gt;Node12 -->
<g id="edge15_Node000001_Node000012" class="edge">
<title>Node1&#45;&gt;Node12</title>
<g id="a_edge15_Node000001_Node000012"><a xlink:title=" ">
<path fill="none" stroke="#63b8ff" d="M625.26,-223.31C582.15,-213.66 499.91,-195.26 452.21,-184.59"/>
<polygon fill="#63b8ff" stroke="#63b8ff" points="453.16,-181.22 442.64,-182.45 451.63,-188.05 453.16,-181.22"/>
</a>
</g>
</g>
<!-- Node3 -->
<g id="Node000003" class="node">
<title>Node3</title>
<g id="a_Node000003"><a xlink:title=" ">
<polygon fill="#e0e0e0" stroke="#999999" points="410.62,-19.25 368.38,-19.25 368.38,0 410.62,0 410.62,-19.25"/>
<text text-anchor="middle" x="389.5" y="-5.75" font-family="Helvetica,sans-Serif" font-size="10.00">cstdio</text>
</a>
</g>
</g>
<!-- Node2&#45;&gt;Node3 -->
<g id="edge2_Node000002_Node000003" class="edge">
<title>Node2&#45;&gt;Node3</title>
<g id="a_edge2_Node000002_Node000003"><a xlink:title=" ">
<path fill="none" stroke="#63b8ff" d="M177.25,-112.73C180.35,-111.95 183.5,-111.19 186.5,-110.5 267.74,-91.96 308.82,-130.53 370.5,-74.5 382.69,-63.43 387.2,-44.93 388.8,-30.68"/>
<polygon fill="#63b8ff" stroke="#63b8ff" points="392.26,-31.27 389.47,-21.05 385.28,-30.79 392.26,-31.27"/>
</a>
</g>
</g>
<!-- Node4 -->
<g id="Node000004" class="node">
<title>Node4</title>
<g id="a_Node000004"><a xlink:title=" ">
<polygon fill="#e0e0e0" stroke="#999999" points="61,-19.25 0,-19.25 0,0 61,0 61,-19.25"/>
<text text-anchor="middle" x="30.5" y="-5.75" font-family="Helvetica,sans-Serif" font-size="10.00">TNamed.h</text>
</a>
</g>
</g>
<!-- Node2&#45;&gt;Node4 -->
<g id="edge3_Node000002_Node000004" class="edge">
<title>Node2&#45;&gt;Node4</title>
<g id="a_edge3_Node000002_Node000004"><a xlink:title=" ">
<path fill="none" stroke="#63b8ff" d="M131,-110.04C113.88,-102.35 90.47,-90.11 73.5,-74.5 59.37,-61.5 47.56,-42.99 39.92,-29.24"/>
<polygon fill="#63b8ff" stroke="#63b8ff" points="43.2,-27.95 35.42,-20.76 37.01,-31.23 43.2,-27.95"/>
</a>
</g>
</g>
<!-- Node5 -->
<g id="Node000005" class="node">
<title>Node5</title>
<g id="a_Node000005"><a xlink:title=" ">
<polygon fill="#e0e0e0" stroke="#999999" points="135.62,-19.25 93.38,-19.25 93.38,0 135.62,0 135.62,-19.25"/>
<text text-anchor="middle" x="114.5" y="-5.75" font-family="Helvetica,sans-Serif" font-size="10.00">TH2.h</text>
</a>
</g>
</g>
<!-- Node2&#45;&gt;Node5 -->
<g id="edge4_Node000002_Node000005" class="edge">
<title>Node2&#45;&gt;Node5</title>
<g id="a_edge4_Node000002_Node000005"><a xlink:title=" ">
<path fill="none" stroke="#63b8ff" d="M129.82,-111.69C112.75,-104.94 90.96,-93.16 80.5,-74.5 71.61,-58.65 83.62,-40.32 95.75,-27.38"/>
<polygon fill="#63b8ff" stroke="#63b8ff" points="98.14,-29.93 102.83,-20.43 93.24,-24.93 98.14,-29.93"/>
</a>
</g>
</g>
<!-- Node6 -->
<g id="Node000006" class="node">
<title>Node6</title>
<g id="a_Node000006"><a xlink:title=" ">
<polygon fill="#e0e0e0" stroke="#999999" points="206.5,-19.25 160.5,-19.25 160.5,0 206.5,0 206.5,-19.25"/>
<text text-anchor="middle" x="183.5" y="-5.75" font-family="Helvetica,sans-Serif" font-size="10.00">TList.h</text>
</a>
</g>
</g>
<!-- Node2&#45;&gt;Node6 -->
<g id="edge5_Node000002_Node000006" class="edge">
<title>Node2&#45;&gt;Node6</title>
<g id="a_edge5_Node000002_Node000006"><a xlink:title=" ">
<path fill="none" stroke="#63b8ff" d="M155.96,-110.25C160.75,-92.92 171.44,-54.23 178.01,-30.49"/>
<polygon fill="#63b8ff" stroke="#63b8ff" points="181.32,-31.66 180.61,-21.09 174.57,-29.79 181.32,-31.66"/>
</a>
</g>
</g>
<!-- Node7 -->
<g id="Node000007" class="node">
<title>Node7</title>
<g id="a_Node000007"><a xlink:title=" ">
<polygon fill="#e0e0e0" stroke="#999999" points="285.75,-74.5 211.25,-74.5 211.25,-55.25 285.75,-55.25 285.75,-74.5"/>
<text text-anchor="middle" x="248.5" y="-61" font-family="Helvetica,sans-Serif" font-size="10.00">TVirtualPad.h</text>
</a>
</g>
</g>
<!-- Node2&#45;&gt;Node7 -->
<g id="edge6_Node000002_Node000007" class="edge">
<title>Node2&#45;&gt;Node7</title>
<g id="a_edge6_Node000002_Node000007"><a xlink:title=" ">
<path fill="none" stroke="#63b8ff" d="M169.62,-110.09C184.08,-101.98 205.58,-89.93 222.48,-80.46"/>
<polygon fill="#63b8ff" stroke="#63b8ff" points="223.97,-83.64 230.99,-75.69 220.55,-77.53 223.97,-83.64"/>
</a>
</g>
</g>
<!-- Node8 -->
<g id="Node000008" class="node">
<title>Node8</title>
<g id="a_Node000008"><a xlink:title=" ">
<polygon fill="#e0e0e0" stroke="#999999" points="361.12,-74.5 303.88,-74.5 303.88,-55.25 361.12,-55.25 361.12,-74.5"/>
<text text-anchor="middle" x="332.5" y="-61" font-family="Helvetica,sans-Serif" font-size="10.00">TFrame.h</text>
</a>
</g>
</g>
<!-- Node2&#45;&gt;Node8 -->
<g id="edge7_Node000002_Node000008" class="edge">
<title>Node2&#45;&gt;Node8</title>
<g id="a_edge7_Node000002_Node000008"><a xlink:title=" ">
<path fill="none" stroke="#63b8ff" d="M177.27,-112.05C206.7,-103.3 257.28,-88.25 292.68,-77.72"/>
<polygon fill="#63b8ff" stroke="#63b8ff" points="293.55,-81.11 302.14,-74.91 291.56,-74.4 293.55,-81.11"/>
</a>
</g>
</g>
<!-- Node9 -->
<g id="Node000009" class="node">
<title>Node9</title>
<g id="a_Node000009"><a xlink:href="_g_h2_base_8h.html" target="_top" xlink:title=" ">
<polygon fill="white" stroke="#666666" points="155.62,-74.5 89.38,-74.5 89.38,-55.25 155.62,-55.25 155.62,-74.5"/>
<text text-anchor="middle" x="122.5" y="-61" font-family="Helvetica,sans-Serif" font-size="10.00">GH2Base.h</text>
</a>
</g>
</g>
<!-- Node2&#45;&gt;Node9 -->
<g id="edge8_Node000002_Node000009" class="edge">
<title>Node2&#45;&gt;Node9</title>
<g id="a_edge8_Node000002_Node000009"><a xlink:title=" ">
<path fill="none" stroke="#63b8ff" d="M148.38,-110.33C144.32,-103.36 138.51,-93.37 133.41,-84.62"/>
<polygon fill="#63b8ff" stroke="#63b8ff" points="136.55,-83.05 128.49,-76.17 130.5,-86.57 136.55,-83.05"/>
</a>
</g>
</g>
<!-- Node9&#45;&gt;Node3 -->
<g id="edge9_Node000009_Node000003" class="edge">
<title>Node9&#45;&gt;Node3</title>
<g id="a_edge9_Node000009_Node000003"><a xlink:title=" ">
<path fill="none" stroke="#63b8ff" d="M156.05,-57.18C207.76,-46.87 306.3,-27.22 357.23,-17.06"/>
<polygon fill="#63b8ff" stroke="#63b8ff" points="357.62,-20.55 366.74,-15.16 356.25,-13.69 357.62,-20.55"/>
</a>
</g>
</g>
<!-- Node9&#45;&gt;Node4 -->
<g id="edge10_Node000009_Node000004" class="edge">
<title>Node9&#45;&gt;Node4</title>
<g id="a_edge10_Node000009_Node000004"><a xlink:title=" ">
<path fill="none" stroke="#63b8ff" d="M106.89,-54.84C92.88,-46.73 72.07,-34.68 55.7,-25.21"/>
<polygon fill="#63b8ff" stroke="#63b8ff" points="57.9,-22.44 47.49,-20.46 54.39,-28.5 57.9,-22.44"/>
</a>
</g>
</g>
<!-- Node9&#45;&gt;Node5 -->
<g id="edge11_Node000009_Node000005" class="edge">
<title>Node9&#45;&gt;Node5</title>
<g id="a_edge11_Node000009_Node000005"><a xlink:title=" ">
<path fill="none" stroke="#63b8ff" d="M121.18,-55.08C120.19,-48.49 118.79,-39.21 117.53,-30.82"/>
<polygon fill="#63b8ff" stroke="#63b8ff" points="121.02,-30.47 116.07,-21.11 114.1,-31.51 121.02,-30.47"/>
</a>
</g>
</g>
<!-- Node9&#45;&gt;Node6 -->
<g id="edge12_Node000009_Node000006" class="edge">
<title>Node9&#45;&gt;Node6</title>
<g id="a_edge12_Node000009_Node000006"><a xlink:title=" ">
<path fill="none" stroke="#63b8ff" d="M132.85,-54.84C141.58,-47.22 154.29,-36.12 164.8,-26.95"/>
<polygon fill="#63b8ff" stroke="#63b8ff" points="166.93,-29.73 172.16,-20.52 162.33,-24.46 166.93,-29.73"/>
</a>
</g>
</g>
<!-- Node12&#45;&gt;Node2 -->
<g id="edge38_Node000012_Node000002" class="edge">
<title>Node12&#45;&gt;Node2</title>
<g id="a_edge38_Node000012_Node000002"><a xlink:title=" ">
<path fill="none" stroke="#63b8ff" d="M389.97,-169.94C349.46,-162.8 267.74,-147.91 188.42,-130.06"/>
<polygon fill="#63b8ff" stroke="#63b8ff" points="189.25,-126.66 178.72,-127.86 187.7,-133.49 189.25,-126.66"/>
</a>
</g>
</g>
<!-- Node12&#45;&gt;Node6 -->
<g id="edge20_Node000012_Node000006" class="edge">
<title>Node12&#45;&gt;Node6</title>
<g id="a_edge20_Node000012_Node000006"><a xlink:title=" ">
<path fill="none" stroke="#63b8ff" d="M441.07,-169.7C478.89,-161.61 542.96,-142.7 520.5,-110.5 510.34,-95.93 387.5,-60.39 370.5,-55.25 317.8,-39.32 255.39,-25.39 217.65,-17.5"/>
<polygon fill="#63b8ff" stroke="#63b8ff" points="218.75,-14.15 208.25,-15.56 217.33,-21.01 218.75,-14.15"/>
</a>
</g>
</g>
<!-- Node13 -->
<g id="Node000013" class="node">
<title>Node13</title>
<g id="a_Node000013"><a xlink:title=" ">
<polygon fill="#e0e0e0" stroke="#999999" points="237.62,-129.75 195.38,-129.75 195.38,-110.5 237.62,-110.5 237.62,-129.75"/>
<text text-anchor="middle" x="216.5" y="-116.25" font-family="Helvetica,sans-Serif" font-size="10.00">TH1.h</text>
</a>
</g>
</g>
<!-- Node12&#45;&gt;Node13 -->
<g id="edge16_Node000012_Node000013" class="edge">
<title>Node12&#45;&gt;Node13</title>
<g id="a_edge16_Node000012_Node000013"><a xlink:title=" ">
<path fill="none" stroke="#63b8ff" d="M389.97,-167.82C358.91,-159.8 304.6,-145.66 249.2,-130.45"/>
<polygon fill="#63b8ff" stroke="#63b8ff" points="250.14,-127.08 239.57,-127.8 248.29,-133.83 250.14,-127.08"/>
</a>
</g>
</g>
<!-- Node14 -->
<g id="Node000014" class="node">
<title>Node14</title>
<g id="a_Node000014"><a xlink:title=" ">
<polygon fill="#e0e0e0" stroke="#999999" points="299.75,-129.75 255.25,-129.75 255.25,-110.5 299.75,-110.5 299.75,-129.75"/>
<text text-anchor="middle" x="277.5" y="-116.25" font-family="Helvetica,sans-Serif" font-size="10.00">TRef.h</text>
</a>
</g>
</g>
<!-- Node12&#45;&gt;Node14 -->
<g id="edge17_Node000012_Node000014" class="edge">
<title>Node12&#45;&gt;Node14</title>
<g id="a_edge17_Node000012_Node000014"><a xlink:title=" ">
<path fill="none" stroke="#63b8ff" d="M392.09,-165.34C369.72,-156.71 335.77,-143.61 310.62,-133.91"/>
<polygon fill="#63b8ff" stroke="#63b8ff" points="312.11,-130.73 301.52,-130.39 309.59,-137.26 312.11,-130.73"/>
</a>
</g>
</g>
<!-- Node15 -->
<g id="Node000015" class="node">
<title>Node15</title>
<g id="a_Node000015"><a xlink:title=" ">
<polygon fill="#e0e0e0" stroke="#999999" points="364.88,-129.75 318.12,-129.75 318.12,-110.5 364.88,-110.5 364.88,-129.75"/>
<text text-anchor="middle" x="341.5" y="-116.25" font-family="Helvetica,sans-Serif" font-size="10.00">TPad.h</text>
</a>
</g>
</g>
<!-- Node12&#45;&gt;Node15 -->
<g id="edge18_Node000012_Node000015" class="edge">
<title>Node12&#45;&gt;Node15</title>
<g id="a_edge18_Node000012_Node000015"><a xlink:title=" ">
<path fill="none" stroke="#63b8ff" d="M402.95,-165.34C392.04,-157.49 376,-145.95 363.04,-136.62"/>
<polygon fill="#63b8ff" stroke="#63b8ff" points="365.26,-133.91 355.1,-130.91 361.17,-139.59 365.26,-133.91"/>
</a>
</g>
</g>
<!-- Node16 -->
<g id="Node000016" class="node">
<title>Node16</title>
<g id="a_Node000016"><a xlink:title=" ">
<polygon fill="#e0e0e0" stroke="#999999" points="447.88,-129.75 383.12,-129.75 383.12,-110.5 447.88,-110.5 447.88,-129.75"/>
<text text-anchor="middle" x="415.5" y="-116.25" font-family="Helvetica,sans-Serif" font-size="10.00">GuiTypes.h</text>
</a>
</g>
</g>
<!-- Node12&#45;&gt;Node16 -->
<g id="edge19_Node000012_Node000016" class="edge">
<title>Node12&#45;&gt;Node16</title>
<g id="a_edge19_Node000012_Node000016"><a xlink:title=" ">
<path fill="none" stroke="#63b8ff" d="M415.5,-165.58C415.5,-159.07 415.5,-149.92 415.5,-141.62"/>
<polygon fill="#63b8ff" stroke="#63b8ff" points="419,-141.62 415.5,-131.62 412,-141.62 419,-141.62"/>
</a>
</g>
</g>
<!-- Node17 -->
<g id="Node000017" class="node">
<title>Node17</title>
<g id="a_Node000017"><a xlink:title=" ">
<polygon fill="#e0e0e0" stroke="#999999" points="511.5,-129.75 465.5,-129.75 465.5,-110.5 511.5,-110.5 511.5,-129.75"/>
<text text-anchor="middle" x="488.5" y="-116.25" font-family="Helvetica,sans-Serif" font-size="10.00">TBox.h</text>
</a>
</g>
</g>
<!-- Node12&#45;&gt;Node17 -->
<g id="edge21_Node000012_Node000017" class="edge">
<title>Node12&#45;&gt;Node17</title>
<g id="a_edge21_Node000012_Node000017"><a xlink:title=" ">
<path fill="none" stroke="#63b8ff" d="M427.88,-165.34C438.65,-157.49 454.47,-145.95 467.25,-136.62"/>
<polygon fill="#63b8ff" stroke="#63b8ff" points="469.06,-139.64 475.08,-130.92 464.94,-133.98 469.06,-139.64"/>
</a>
</g>
</g>
<!-- Node18 -->
<g id="Node000018" class="node">
<title>Node18</title>
<g id="a_Node000018"><a xlink:href="_globals_8h.html" target="_top" xlink:title=" ">
<polygon fill="white" stroke="#666666" points="894.75,-129.75 838.25,-129.75 838.25,-110.5 894.75,-110.5 894.75,-129.75"/>
<text text-anchor="middle" x="866.5" y="-116.25" font-family="Helvetica,sans-Serif" font-size="10.00">Globals.h</text>
</a>
</g>
</g>
<!-- Node12&#45;&gt;Node18 -->
<g id="edge22_Node000012_Node000018" class="edge">
<title>Node12&#45;&gt;Node18</title>
<g id="a_edge22_Node000012_Node000018"><a xlink:title=" ">
<path fill="none" stroke="#63b8ff" d="M441.04,-171.36C516.02,-162.51 735.91,-136.54 826.64,-125.83"/>
<polygon fill="#63b8ff" stroke="#63b8ff" points="826.78,-129.34 836.3,-124.69 825.96,-122.39 826.78,-129.34"/>
</a>
</g>
</g>
<!-- Node18&#45;&gt;Node3 -->
<g id="edge27_Node000018_Node000003" class="edge">
<title>Node18&#45;&gt;Node3</title>
<g id="a_edge27_Node000018_Node000003"><a xlink:title=" ">
<path fill="none" stroke="#63b8ff" d="M837.84,-117.53C760.6,-112.95 549.55,-98.55 484.5,-74.5 455.13,-63.64 425.93,-41.96 407.82,-26.89"/>
<polygon fill="#63b8ff" stroke="#63b8ff" points="410.44,-24.52 400.56,-20.68 405.89,-29.84 410.44,-24.52"/>
</a>
</g>
</g>
<!-- Node18&#45;&gt;Node10 -->
<g id="edge23_Node000018_Node000010" class="edge">
<title>Node18&#45;&gt;Node10</title>
<g id="a_edge23_Node000018_Node000010"><a xlink:title=" ">
<path fill="none" stroke="#63b8ff" d="M894.88,-112.79C899.42,-111.93 904.08,-111.12 908.5,-110.5 1111.45,-81.97 1168.53,-106.67 1373.32,-74.77"/>
<polygon fill="#63b8ff" stroke="#63b8ff" points="1373.63,-78.27 1382.96,-73.24 1372.54,-71.35 1373.63,-78.27"/>
</a>
</g>
</g>
<!-- Node19 -->
<g id="Node000019" class="node">
<title>Node19</title>
<g id="a_Node000019"><a xlink:title=" ">
<polygon fill="#e0e0e0" stroke="#999999" points="891.38,-74.5 841.62,-74.5 841.62,-55.25 891.38,-55.25 891.38,-74.5"/>
<text text-anchor="middle" x="866.5" y="-61" font-family="Helvetica,sans-Serif" font-size="10.00">iomanip</text>
</a>
</g>
</g>
<!-- Node18&#45;&gt;Node19 -->
<g id="edge24_Node000018_Node000019" class="edge">
<title>Node18&#45;&gt;Node19</title>
<g id="a_edge24_Node000018_Node000019"><a xlink:title=" ">
<path fill="none" stroke="#63b8ff" d="M866.5,-110.33C866.5,-103.82 866.5,-94.67 866.5,-86.37"/>
<polygon fill="#63b8ff" stroke="#63b8ff" points="870,-86.37 866.5,-76.37 863,-86.37 870,-86.37"/>
</a>
</g>
</g>
<!-- Node20 -->
<g id="Node000020" class="node">
<title>Node20</title>
<g id="a_Node000020"><a xlink:title=" ">
<polygon fill="#e0e0e0" stroke="#999999" points="967.5,-74.5 909.5,-74.5 909.5,-55.25 967.5,-55.25 967.5,-74.5"/>
<text text-anchor="middle" x="938.5" y="-61" font-family="Helvetica,sans-Serif" font-size="10.00">stdexcept</text>
</a>
</g>
</g>
<!-- Node18&#45;&gt;Node20 -->
<g id="edge25_Node000018_Node000020" class="edge">
<title>Node18&#45;&gt;Node20</title>
<g id="a_edge25_Node000018_Node000020"><a xlink:title=" ">
<path fill="none" stroke="#63b8ff" d="M878.71,-110.09C889.33,-102.24 904.94,-90.7 917.54,-81.37"/>
<polygon fill="#63b8ff" stroke="#63b8ff" points="919.29,-84.44 925.25,-75.67 915.13,-78.81 919.29,-84.44"/>
</a>
</g>
</g>
<!-- Node21 -->
<g id="Node000021" class="node">
<title>Node21</title>
<g id="a_Node000021"><a xlink:title=" ">
<polygon fill="#e0e0e0" stroke="#999999" points="1025.5,-74.5 985.5,-74.5 985.5,-55.25 1025.5,-55.25 1025.5,-74.5"/>
<text text-anchor="middle" x="1005.5" y="-61" font-family="Helvetica,sans-Serif" font-size="10.00">string</text>
</a>
</g>
</g>
<!-- Node18&#45;&gt;Node21 -->
<g id="edge26_Node000018_Node000021" class="edge">
<title>Node18&#45;&gt;Node21</title>
<g id="a_edge26_Node000018_Node000021"><a xlink:title=" ">
<path fill="none" stroke="#63b8ff" d="M890.08,-110.09C913.42,-101.15 949.28,-87.41 974.83,-77.62"/>
<polygon fill="#63b8ff" stroke="#63b8ff" points="975.92,-80.95 984.01,-74.11 973.42,-74.42 975.92,-80.95"/>
</a>
</g>
</g>
<!-- Node22 -->
<g id="Node000022" class="node">
<title>Node22</title>
<g id="a_Node000022"><a xlink:title=" ">
<polygon fill="#e0e0e0" stroke="#999999" points="1089.12,-74.5 1043.88,-74.5 1043.88,-55.25 1089.12,-55.25 1089.12,-74.5"/>
<text text-anchor="middle" x="1066.5" y="-61" font-family="Helvetica,sans-Serif" font-size="10.00">cstdint</text>
</a>
</g>
</g>
<!-- Node18&#45;&gt;Node22 -->
<g id="edge28_Node000018_Node000022" class="edge">
<title>Node18&#45;&gt;Node22</title>
<g id="a_edge28_Node000018_Node000022"><a xlink:title=" ">
<path fill="none" stroke="#63b8ff" d="M895.05,-111.58C926.39,-103.28 978.49,-89.47 1032.59,-75"/>
<polygon fill="#63b8ff" stroke="#63b8ff" points="1033.21,-78.46 1041.97,-72.49 1031.4,-71.7 1033.21,-78.46"/>
</a>
</g>
</g>
<!-- Node23 -->
<g id="Node000023" class="node">
<title>Node23</title>
<g id="a_Node000023"><a xlink:title=" ">
<polygon fill="#e0e0e0" stroke="#999999" points="1151.75,-74.5 1107.25,-74.5 1107.25,-55.25 1151.75,-55.25 1151.75,-74.5"/>
<text text-anchor="middle" x="1129.5" y="-61" font-family="Helvetica,sans-Serif" font-size="10.00">cstdlib</text>
</a>
</g>
</g>
<!-- Node18&#45;&gt;Node23 -->
<g id="edge29_Node000018_Node000023" class="edge">
<title>Node18&#45;&gt;Node23</title>
<g id="a_edge29_Node000018_Node000023"><a xlink:title=" ">
<path fill="none" stroke="#63b8ff" d="M894.95,-113.22C899.48,-112.3 904.12,-111.36 908.5,-110.5 989.36,-94.54 1012.89,-94.05 1095.89,-74.96"/>
<polygon fill="#63b8ff" stroke="#63b8ff" points="1096.45,-78.42 1105.4,-72.75 1094.86,-71.61 1096.45,-78.42"/>
</a>
</g>
</g>
<!-- Node24 -->
<g id="Node000024" class="node">
<title>Node24</title>
<g id="a_Node000024"><a xlink:title=" ">
<polygon fill="#e0e0e0" stroke="#999999" points="1229.25,-74.5 1169.75,-74.5 1169.75,-55.25 1229.25,-55.25 1229.25,-74.5"/>
<text text-anchor="middle" x="1199.5" y="-61" font-family="Helvetica,sans-Serif" font-size="10.00">execinfo.h</text>
</a>
</g>
</g>
<!-- Node18&#45;&gt;Node24 -->
<g id="edge30_Node000018_Node000024" class="edge">
<title>Node18&#45;&gt;Node24</title>
<g id="a_edge30_Node000018_Node000024"><a xlink:title=" ">
<path fill="none" stroke="#63b8ff" d="M894.92,-113.05C899.46,-112.15 904.1,-111.27 908.5,-110.5 1016.48,-91.72 1047.28,-94.53 1158.31,-74.77"/>
<polygon fill="#63b8ff" stroke="#63b8ff" points="1158.6,-78.28 1167.82,-73.06 1157.36,-71.39 1158.6,-78.28"/>
</a>
</g>
</g>
<!-- Node25 -->
<g id="Node000025" class="node">
<title>Node25</title>
<g id="a_Node000025"><a xlink:title=" ">
<polygon fill="#e0e0e0" stroke="#999999" points="1297.75,-74.5 1247.25,-74.5 1247.25,-55.25 1297.75,-55.25 1297.75,-74.5"/>
<text text-anchor="middle" x="1272.5" y="-61" font-family="Helvetica,sans-Serif" font-size="10.00">cxxabi.h</text>
</a>
</g>
</g>
<!-- Node18&#45;&gt;Node25 -->
<g id="edge31_Node000018_Node000025" class="edge">
<title>Node18&#45;&gt;Node25</title>
<g id="a_edge31_Node000018_Node000025"><a xlink:title=" ">
<path fill="none" stroke="#63b8ff" d="M894.9,-112.92C899.44,-112.03 904.09,-111.19 908.5,-110.5 1050.7,-88.19 1091.34,-100.09 1235.91,-74.73"/>
<polygon fill="#63b8ff" stroke="#63b8ff" points="1236.25,-78.23 1245.47,-73.03 1235.01,-71.34 1236.25,-78.23"/>
</a>
</g>
</g>
<!-- Node26 -->
<g id="Node000026" class="node">
<title>Node26</title>
<g id="a_Node000026"><a xlink:title=" ">
<polygon fill="#e0e0e0" stroke="#999999" points="1367.12,-74.5 1315.88,-74.5 1315.88,-55.25 1367.12,-55.25 1367.12,-74.5"/>
<text text-anchor="middle" x="1341.5" y="-61" font-family="Helvetica,sans-Serif" font-size="10.00">sstream</text>
</a>
</g>
</g>
<!-- Node18&#45;&gt;Node26 -->
<g id="edge32_Node000018_Node000026" class="edge">
<title>Node18&#45;&gt;Node26</title>
<g id="a_edge32_Node000018_Node000026"><a xlink:title=" ">
<path fill="none" stroke="#63b8ff" d="M894.89,-112.84C899.43,-111.97 904.08,-111.15 908.5,-110.5 1080.61,-85.13 1129.34,-103.06 1304.43,-74.57"/>
<polygon fill="#63b8ff" stroke="#63b8ff" points="1304.81,-78.06 1314.1,-72.97 1303.67,-71.15 1304.81,-78.06"/>
</a>
</g>
</g>
<!-- Node27 -->
<g id="Node000027" class="node">
<title>Node27</title>
<g id="a_Node000027"><a xlink:title=" ">
<polygon fill="#e0e0e0" stroke="#999999" points="531,-74.5 494,-74.5 494,-55.25 531,-55.25 531,-74.5"/>
<text text-anchor="middle" x="512.5" y="-61" font-family="Helvetica,sans-Serif" font-size="10.00">array</text>
</a>
</g>
</g>
<!-- Node18&#45;&gt;Node27 -->
<g id="edge33_Node000018_Node000027" class="edge">
<title>Node18&#45;&gt;Node27</title>
<g id="a_edge33_Node000018_Node000027"><a xlink:title=" ">
<path fill="none" stroke="#63b8ff" d="M837.88,-116.79C782.59,-111.93 657.16,-99.29 542.43,-74.57"/>
<polygon fill="#63b8ff" stroke="#63b8ff" points="543.36,-71.19 532.84,-72.47 541.86,-78.03 543.36,-71.19"/>
</a>
</g>
</g>
<!-- Node28 -->
<g id="Node000028" class="node">
<title>Node28</title>
<g id="a_Node000028"><a xlink:title=" ">
<polygon fill="#e0e0e0" stroke="#999999" points="599.75,-74.5 549.25,-74.5 549.25,-55.25 599.75,-55.25 599.75,-74.5"/>
<text text-anchor="middle" x="574.5" y="-61" font-family="Helvetica,sans-Serif" font-size="10.00">memory</text>
</a>
</g>
</g>
<!-- Node18&#45;&gt;Node28 -->
<g id="edge34_Node000018_Node000028" class="edge">
<title>Node18&#45;&gt;Node28</title>
<g id="a_edge34_Node000018_Node000028"><a xlink:title=" ">
<path fill="none" stroke="#63b8ff" d="M838.11,-114.95C792.36,-108.06 699.27,-93.4 611.08,-74.92"/>
<polygon fill="#63b8ff" stroke="#63b8ff" points="612.06,-71.55 601.55,-72.9 610.61,-78.4 612.06,-71.55"/>
</a>
</g>
</g>
<!-- Node29 -->
<g id="Node000029" class="node">
<title>Node29</title>
<g id="a_Node000029"><a xlink:title=" ">
<polygon fill="#e0e0e0" stroke="#999999" points="667.38,-74.5 617.62,-74.5 617.62,-55.25 667.38,-55.25 667.38,-74.5"/>
<text text-anchor="middle" x="642.5" y="-61" font-family="Helvetica,sans-Serif" font-size="10.00">unistd.h</text>
</a>
</g>
</g>
<!-- Node18&#45;&gt;Node29 -->
<g id="edge35_Node000018_Node000029" class="edge">
<title>Node18&#45;&gt;Node29</title>
<g id="a_edge35_Node000018_Node000029"><a xlink:title=" ">
<path fill="none" stroke="#63b8ff" d="M837.81,-112.55C802.62,-104.46 740.85,-90.13 678.55,-74.97"/>
<polygon fill="#63b8ff" stroke="#63b8ff" points="679.75,-71.66 669.21,-72.69 678.09,-78.46 679.75,-71.66"/>
</a>
</g>
</g>
<!-- Node30 -->
<g id="Node000030" class="node">
<title>Node30</title>
<g id="a_Node000030"><a xlink:title=" ">
<polygon fill="#e0e0e0" stroke="#999999" points="745.25,-74.5 685.75,-74.5 685.75,-55.25 745.25,-55.25 745.25,-74.5"/>
<text text-anchor="middle" x="715.5" y="-61" font-family="Helvetica,sans-Serif" font-size="10.00">sys/wait.h</text>
</a>
</g>
</g>
<!-- Node18&#45;&gt;Node30 -->
<g id="edge36_Node000018_Node000030" class="edge">
<title>Node18&#45;&gt;Node30</title>
<g id="a_edge36_Node000018_Node000030"><a xlink:title=" ">
<path fill="none" stroke="#63b8ff" d="M840.88,-110.09C816.48,-101.49 779.49,-88.44 752,-78.75"/>
<polygon fill="#63b8ff" stroke="#63b8ff" points="753.26,-75.48 742.67,-75.46 750.93,-82.08 753.26,-75.48"/>
</a>
</g>
</g>
<!-- Node31 -->
<g id="Node000031" class="node">
<title>Node31</title>
<g id="a_Node000031"><a xlink:title=" ">
<polygon fill="#e0e0e0" stroke="#999999" points="823.62,-74.5 763.38,-74.5 763.38,-55.25 823.62,-55.25 823.62,-74.5"/>
<text text-anchor="middle" x="793.5" y="-61" font-family="Helvetica,sans-Serif" font-size="10.00">sys/prctl.h</text>
</a>
</g>
</g>
<!-- Node18&#45;&gt;Node31 -->
<g id="edge37_Node000018_Node000031" class="edge">
<title>Node18&#45;&gt;Node31</title>
<g id="a_edge37_Node000018_Node000031"><a xlink:title=" ">
<path fill="none" stroke="#63b8ff" d="M854.12,-110.09C843.35,-102.24 827.53,-90.7 814.75,-81.37"/>
<polygon fill="#63b8ff" stroke="#63b8ff" points="817.06,-78.73 806.92,-75.67 812.94,-84.39 817.06,-78.73"/>
</a>
</g>
</g>
</g>
</svg>
