<?xml version="1.0" encoding="UTF-8" standalone="no"?>
<!DOCTYPE svg PUBLIC "-//W3C//DTD SVG 1.1//EN"
 "http://www.w3.org/Graphics/SVG/1.1/DTD/svg11.dtd">
<!-- Generated by graphviz version 12.2.0 (20241103.1931)
 -->
<!-- Title: GH1D.cxx Pages: 1 -->
<svg width="2164pt" height="248pt"
 viewBox="0.00 0.00 2163.62 248.25" xmlns="http://www.w3.org/2000/svg" xmlns:xlink="http://www.w3.org/1999/xlink">
<g id="graph0" class="graph" transform="scale(1 1) rotate(0) translate(4 244.25)">
<title>GH1D.cxx</title>
<!-- Node1 -->
<g id="Node000001" class="node">
<title>Node1</title>
<g id="a_Node000001"><a xlink:title=" ">
<polygon fill="#999999" stroke="#666666" points="1346.25,-240.25 1286.75,-240.25 1286.75,-221 1346.25,-221 1346.25,-240.25"/>
<text text-anchor="middle" x="1316.5" y="-226.75" font-family="Helvetica,sans-Serif" font-size="10.00">GH1D.cxx</text>
</a>
</g>
</g>
<!-- Node2 -->
<g id="Node000002" class="node">
<title>Node2</title>
<g id="a_Node000002"><a xlink:href="_g_h1_d_8h.html" target="_top" xlink:title=" ">
<polygon fill="white" stroke="#666666" points="868.75,-185 818.25,-185 818.25,-165.75 868.75,-165.75 868.75,-185"/>
<text text-anchor="middle" x="843.5" y="-171.5" font-family="Helvetica,sans-Serif" font-size="10.00">GH1D.h</text>
</a>
</g>
</g>
<!-- Node1&#45;&gt;Node2 -->
<g id="edge1_Node000001_Node000002" class="edge">
<title>Node1&#45;&gt;Node2</title>
<g id="a_edge1_Node000001_Node000002"><a xlink:title=" ">
<path fill="none" stroke="#63b8ff" d="M1286.55,-226.25C1203.66,-216.92 971.35,-190.77 880.54,-180.55"/>
<polygon fill="#63b8ff" stroke="#63b8ff" points="881.03,-177.08 870.7,-179.44 880.24,-184.03 881.03,-177.08"/>
</a>
</g>
</g>
<!-- Node9 -->
<g id="Node000009" class="node">
<title>Node9</title>
<g id="a_Node000009"><a xlink:href="_globals_8h.html" target="_top" xlink:title=" ">
<polygon fill="white" stroke="#666666" points="603.75,-129.75 547.25,-129.75 547.25,-110.5 603.75,-110.5 603.75,-129.75"/>
<text text-anchor="middle" x="575.5" y="-116.25" font-family="Helvetica,sans-Serif" font-size="10.00">Globals.h</text>
</a>
</g>
</g>
<!-- Node1&#45;&gt;Node9 -->
<g id="edge45_Node000001_Node000009" class="edge">
<title>Node1&#45;&gt;Node9</title>
<g id="a_edge45_Node000001_Node000009"><a xlink:title=" ">
<path fill="none" stroke="#63b8ff" d="M1286.25,-228.84C1207.25,-226.4 988.46,-217.04 809.5,-185 739.19,-172.41 659.32,-148.46 613.43,-133.73"/>
<polygon fill="#63b8ff" stroke="#63b8ff" points="614.55,-130.42 603.96,-130.67 612.39,-137.08 614.55,-130.42"/>
</a>
</g>
</g>
<!-- Node10 -->
<g id="Node000010" class="node">
<title>Node10</title>
<g id="a_Node000010"><a xlink:title=" ">
<polygon fill="#e0e0e0" stroke="#999999" points="1021.25,-74.5 967.75,-74.5 967.75,-55.25 1021.25,-55.25 1021.25,-74.5"/>
<text text-anchor="middle" x="994.5" y="-61" font-family="Helvetica,sans-Serif" font-size="10.00">iostream</text>
</a>
</g>
</g>
<!-- Node1&#45;&gt;Node10 -->
<g id="edge36_Node000001_Node000010" class="edge">
<title>Node1&#45;&gt;Node10</title>
<g id="a_edge36_Node000001_Node000010"><a xlink:title=" ">
<path fill="none" stroke="#63b8ff" d="M1286.41,-227.3C1247.34,-223.27 1177.95,-212.56 1125.5,-185 1076.03,-159.01 1030.77,-109.87 1008.68,-83.56"/>
<polygon fill="#63b8ff" stroke="#63b8ff" points="1011.4,-81.36 1002.34,-75.85 1005.99,-85.8 1011.4,-81.36"/>
</a>
</g>
</g>
<!-- Node25 -->
<g id="Node000025" class="node">
<title>Node25</title>
<g id="a_Node000025"><a xlink:href="_g_h2_i_8h.html" target="_top" xlink:title=" ">
<polygon fill="white" stroke="#666666" points="1132.88,-129.75 1086.12,-129.75 1086.12,-110.5 1132.88,-110.5 1132.88,-129.75"/>
<text text-anchor="middle" x="1109.5" y="-116.25" font-family="Helvetica,sans-Serif" font-size="10.00">GH2I.h</text>
</a>
</g>
</g>
<!-- Node1&#45;&gt;Node25 -->
<g id="edge59_Node000001_Node000025" class="edge">
<title>Node1&#45;&gt;Node25</title>
<g id="a_edge59_Node000001_Node000025"><a xlink:title=" ">
<path fill="none" stroke="#63b8ff" d="M1286.45,-228.59C1249.91,-225.91 1188,-216.63 1146.5,-185 1131.85,-173.83 1121.98,-155.07 1116.15,-140.76"/>
<polygon fill="#63b8ff" stroke="#63b8ff" points="1119.47,-139.63 1112.71,-131.47 1112.9,-142.06 1119.47,-139.63"/>
</a>
</g>
</g>
<!-- Node28 -->
<g id="Node000028" class="node">
<title>Node28</title>
<g id="a_Node000028"><a xlink:title=" ">
<polygon fill="#e0e0e0" stroke="#999999" points="1265.75,-74.5 1191.25,-74.5 1191.25,-55.25 1265.75,-55.25 1265.75,-74.5"/>
<text text-anchor="middle" x="1228.5" y="-61" font-family="Helvetica,sans-Serif" font-size="10.00">TVirtualPad.h</text>
</a>
</g>
</g>
<!-- Node1&#45;&gt;Node28 -->
<g id="edge39_Node000001_Node000028" class="edge">
<title>Node1&#45;&gt;Node28</title>
<g id="a_edge39_Node000001_Node000028"><a xlink:title=" ">
<path fill="none" stroke="#63b8ff" d="M1286.5,-226.3C1260.96,-221.7 1225.76,-210.8 1208.5,-185 1188.08,-154.46 1204.97,-109.94 1217.67,-84.87"/>
<polygon fill="#63b8ff" stroke="#63b8ff" points="1220.69,-86.64 1222.35,-76.17 1214.53,-83.32 1220.69,-86.64"/>
</a>
</g>
</g>
<!-- Node29 -->
<g id="Node000029" class="node">
<title>Node29</title>
<g id="a_Node000029"><a xlink:title=" ">
<polygon fill="#e0e0e0" stroke="#999999" points="1341.12,-74.5 1283.88,-74.5 1283.88,-55.25 1341.12,-55.25 1341.12,-74.5"/>
<text text-anchor="middle" x="1312.5" y="-61" font-family="Helvetica,sans-Serif" font-size="10.00">TFrame.h</text>
</a>
</g>
</g>
<!-- Node1&#45;&gt;Node29 -->
<g id="edge42_Node000001_Node000029" class="edge">
<title>Node1&#45;&gt;Node29</title>
<g id="a_edge42_Node000001_Node000029"><a xlink:title=" ">
<path fill="none" stroke="#63b8ff" d="M1286.42,-224.81C1263.48,-219.39 1233.37,-208.11 1218.5,-185 1192.83,-145.11 1249.78,-102.4 1285.82,-80.57"/>
<polygon fill="#63b8ff" stroke="#63b8ff" points="1287.18,-83.83 1294.04,-75.75 1283.64,-77.79 1287.18,-83.83"/>
</a>
</g>
</g>
<!-- Node31 -->
<g id="Node000031" class="node">
<title>Node31</title>
<g id="a_Node000031"><a xlink:title=" ">
<polygon fill="#e0e0e0" stroke="#999999" points="1276,-185 1227,-185 1227,-165.75 1276,-165.75 1276,-185"/>
<text text-anchor="middle" x="1251.5" y="-171.5" font-family="Helvetica,sans-Serif" font-size="10.00">fstream</text>
</a>
</g>
</g>
<!-- Node1&#45;&gt;Node31 -->
<g id="edge37_Node000001_Node000031" class="edge">
<title>Node1&#45;&gt;Node31</title>
<g id="a_edge37_Node000001_Node000031"><a xlink:title=" ">
<path fill="none" stroke="#63b8ff" d="M1305.47,-220.59C1296.08,-212.9 1282.35,-201.65 1271.09,-192.43"/>
<polygon fill="#63b8ff" stroke="#63b8ff" points="1273.49,-189.86 1263.53,-186.23 1269.05,-195.28 1273.49,-189.86"/>
</a>
</g>
</g>
<!-- Node32 -->
<g id="Node000032" class="node">
<title>Node32</title>
<g id="a_Node000032"><a xlink:title=" ">
<polygon fill="#e0e0e0" stroke="#999999" points="1339.12,-185 1293.88,-185 1293.88,-165.75 1339.12,-165.75 1339.12,-185"/>
<text text-anchor="middle" x="1316.5" y="-171.5" font-family="Helvetica,sans-Serif" font-size="10.00">cstring</text>
</a>
</g>
</g>
<!-- Node1&#45;&gt;Node32 -->
<g id="edge38_Node000001_Node000032" class="edge">
<title>Node1&#45;&gt;Node32</title>
<g id="a_edge38_Node000001_Node000032"><a xlink:title=" ">
<path fill="none" stroke="#63b8ff" d="M1316.5,-220.83C1316.5,-214.32 1316.5,-205.17 1316.5,-196.87"/>
<polygon fill="#63b8ff" stroke="#63b8ff" points="1320,-196.87 1316.5,-186.87 1313,-196.87 1320,-196.87"/>
</a>
</g>
</g>
<!-- Node33 -->
<g id="Node000033" class="node">
<title>Node33</title>
<g id="a_Node000033"><a xlink:title=" ">
<polygon fill="#e0e0e0" stroke="#999999" points="1412,-185 1357,-185 1357,-165.75 1412,-165.75 1412,-185"/>
<text text-anchor="middle" x="1384.5" y="-171.5" font-family="Helvetica,sans-Serif" font-size="10.00">TString.h</text>
</a>
</g>
</g>
<!-- Node1&#45;&gt;Node33 -->
<g id="edge40_Node000001_Node000033" class="edge">
<title>Node1&#45;&gt;Node33</title>
<g id="a_edge40_Node000001_Node000033"><a xlink:title=" ">
<path fill="none" stroke="#63b8ff" d="M1328.04,-220.59C1337.96,-212.82 1352.51,-201.42 1364.36,-192.15"/>
<polygon fill="#63b8ff" stroke="#63b8ff" points="1366.23,-195.13 1371.94,-186.21 1361.91,-189.62 1366.23,-195.13"/>
</a>
</g>
</g>
<!-- Node34 -->
<g id="Node000034" class="node">
<title>Node34</title>
<g id="a_Node000034"><a xlink:title=" ">
<polygon fill="#e0e0e0" stroke="#999999" points="1470.88,-185 1430.12,-185 1430.12,-165.75 1470.88,-165.75 1470.88,-185"/>
<text text-anchor="middle" x="1450.5" y="-171.5" font-family="Helvetica,sans-Serif" font-size="10.00">TF1.h</text>
</a>
</g>
</g>
<!-- Node1&#45;&gt;Node34 -->
<g id="edge41_Node000001_Node000034" class="edge">
<title>Node1&#45;&gt;Node34</title>
<g id="a_edge41_Node000001_Node000034"><a xlink:title=" ">
<path fill="none" stroke="#63b8ff" d="M1339.23,-220.59C1361.25,-211.84 1394.81,-198.51 1419.31,-188.77"/>
<polygon fill="#63b8ff" stroke="#63b8ff" points="1420.45,-192.08 1428.45,-185.14 1417.87,-185.58 1420.45,-192.08"/>
</a>
</g>
</g>
<!-- Node35 -->
<g id="Node000035" class="node">
<title>Node35</title>
<g id="a_Node000035"><a xlink:title=" ">
<polygon fill="#e0e0e0" stroke="#999999" points="1566.25,-185 1488.75,-185 1488.75,-165.75 1566.25,-165.75 1566.25,-185"/>
<text text-anchor="middle" x="1527.5" y="-171.5" font-family="Helvetica,sans-Serif" font-size="10.00">KeySymbols.h</text>
</a>
</g>
</g>
<!-- Node1&#45;&gt;Node35 -->
<g id="edge43_Node000001_Node000035" class="edge">
<title>Node1&#45;&gt;Node35</title>
<g id="a_edge43_Node000001_Node000035"><a xlink:title=" ">
<path fill="none" stroke="#63b8ff" d="M1346.73,-222C1381.73,-213.16 1439.78,-198.51 1480.64,-188.2"/>
<polygon fill="#63b8ff" stroke="#63b8ff" points="1481.37,-191.63 1490.21,-185.79 1479.66,-184.84 1481.37,-191.63"/>
</a>
</g>
</g>
<!-- Node36 -->
<g id="Node000036" class="node">
<title>Node36</title>
<g id="a_Node000036"><a xlink:title=" ">
<polygon fill="#e0e0e0" stroke="#999999" points="1648.5,-185 1584.5,-185 1584.5,-165.75 1648.5,-165.75 1648.5,-185"/>
<text text-anchor="middle" x="1616.5" y="-171.5" font-family="Helvetica,sans-Serif" font-size="10.00">TVirtualX.h</text>
</a>
</g>
</g>
<!-- Node1&#45;&gt;Node36 -->
<g id="edge44_Node000001_Node000036" class="edge">
<title>Node1&#45;&gt;Node36</title>
<g id="a_edge44_Node000001_Node000036"><a xlink:title=" ">
<path fill="none" stroke="#63b8ff" d="M1346.48,-224.83C1392.8,-217.33 1484.86,-202.13 1573.01,-185.42"/>
<polygon fill="#63b8ff" stroke="#63b8ff" points="1573.64,-188.86 1582.81,-183.55 1572.33,-181.99 1573.64,-188.86"/>
</a>
</g>
</g>
<!-- Node37 -->
<g id="Node000037" class="node">
<title>Node37</title>
<g id="a_Node000037"><a xlink:href="_g_root_commands_8h.html" target="_top" xlink:title=" ">
<polygon fill="white" stroke="#666666" points="1749.88,-129.75 1649.12,-129.75 1649.12,-110.5 1749.88,-110.5 1749.88,-129.75"/>
<text text-anchor="middle" x="1699.5" y="-116.25" font-family="Helvetica,sans-Serif" font-size="10.00">GRootCommands.h</text>
</a>
</g>
</g>
<!-- Node1&#45;&gt;Node37 -->
<g id="edge46_Node000001_Node000037" class="edge">
<title>Node1&#45;&gt;Node37</title>
<g id="a_edge46_Node000001_Node000037"><a xlink:title=" ">
<path fill="none" stroke="#63b8ff" d="M1346.7,-229.77C1423.68,-229.53 1624.76,-225 1675.5,-185 1688.74,-174.56 1694.68,-155.99 1697.34,-141.55"/>
<polygon fill="#63b8ff" stroke="#63b8ff" points="1700.79,-142.13 1698.72,-131.74 1693.86,-141.15 1700.79,-142.13"/>
</a>
</g>
</g>
<!-- Node39 -->
<g id="Node000039" class="node">
<title>Node39</title>
<g id="a_Node000039"><a xlink:href="_g_canvas_8h.html" target="_top" xlink:title=" ">
<polygon fill="white" stroke="#666666" points="1869.5,-129.75 1805.5,-129.75 1805.5,-110.5 1869.5,-110.5 1869.5,-129.75"/>
<text text-anchor="middle" x="1837.5" y="-116.25" font-family="Helvetica,sans-Serif" font-size="10.00">GCanvas.h</text>
</a>
</g>
</g>
<!-- Node1&#45;&gt;Node39 -->
<g id="edge50_Node000001_Node000039" class="edge">
<title>Node1&#45;&gt;Node39</title>
<g id="a_edge50_Node000001_Node000039"><a xlink:title=" ">
<path fill="none" stroke="#63b8ff" d="M1346.66,-229.22C1411.76,-227.66 1569.78,-220.22 1696.5,-185 1738.79,-173.25 1784.51,-150.49 1812.07,-135.56"/>
<polygon fill="#63b8ff" stroke="#63b8ff" points="1813.64,-138.69 1820.71,-130.8 1810.26,-132.56 1813.64,-138.69"/>
</a>
</g>
</g>
<!-- Node45 -->
<g id="Node000045" class="node">
<title>Node45</title>
<g id="a_Node000045"><a xlink:href="_g_h2_d_8h.html" target="_top" xlink:title=" ">
<polygon fill="white" stroke="#666666" points="1493.75,-129.75 1443.25,-129.75 1443.25,-110.5 1493.75,-110.5 1493.75,-129.75"/>
<text text-anchor="middle" x="1468.5" y="-116.25" font-family="Helvetica,sans-Serif" font-size="10.00">GH2D.h</text>
</a>
</g>
</g>
<!-- Node1&#45;&gt;Node45 -->
<g id="edge60_Node000001_Node000045" class="edge">
<title>Node1&#45;&gt;Node45</title>
<g id="a_edge60_Node000001_Node000045"><a xlink:title=" ">
<path fill="none" stroke="#63b8ff" d="M1346.67,-227.92C1426.24,-223.1 1637.09,-208.25 1657.5,-185 1701.58,-134.78 1571.89,-123.98 1505.3,-121.7"/>
<polygon fill="#63b8ff" stroke="#63b8ff" points="1505.65,-118.21 1495.55,-121.42 1505.45,-125.21 1505.65,-118.21"/>
</a>
</g>
</g>
<!-- Node3 -->
<g id="Node000003" class="node">
<title>Node3</title>
<g id="a_Node000003"><a xlink:title=" ">
<polygon fill="#e0e0e0" stroke="#999999" points="1831.62,-74.5 1789.38,-74.5 1789.38,-55.25 1831.62,-55.25 1831.62,-74.5"/>
<text text-anchor="middle" x="1810.5" y="-61" font-family="Helvetica,sans-Serif" font-size="10.00">TH1.h</text>
</a>
</g>
</g>
<!-- Node2&#45;&gt;Node3 -->
<g id="edge2_Node000002_Node000003" class="edge">
<title>Node2&#45;&gt;Node3</title>
<g id="a_edge2_Node000002_Node000003"><a xlink:title=" ">
<path fill="none" stroke="#63b8ff" d="M869.1,-173.71C1013.17,-169.92 1717.74,-150.36 1758.5,-129.75 1777.6,-120.09 1792.14,-99.89 1800.92,-84.78"/>
<polygon fill="#63b8ff" stroke="#63b8ff" points="1803.87,-86.69 1805.56,-76.23 1797.72,-83.35 1803.87,-86.69"/>
</a>
</g>
</g>
<!-- Node4 -->
<g id="Node000004" class="node">
<title>Node4</title>
<g id="a_Node000004"><a xlink:title=" ">
<polygon fill="#e0e0e0" stroke="#999999" points="915.75,-129.75 871.25,-129.75 871.25,-110.5 915.75,-110.5 915.75,-129.75"/>
<text text-anchor="middle" x="893.5" y="-116.25" font-family="Helvetica,sans-Serif" font-size="10.00">TRef.h</text>
</a>
</g>
</g>
<!-- Node2&#45;&gt;Node4 -->
<g id="edge3_Node000002_Node000004" class="edge">
<title>Node2&#45;&gt;Node4</title>
<g id="a_edge3_Node000002_Node000004"><a xlink:title=" ">
<path fill="none" stroke="#63b8ff" d="M851.76,-165.58C858.66,-158.23 868.72,-147.51 877.24,-138.44"/>
<polygon fill="#63b8ff" stroke="#63b8ff" points="879.73,-140.9 884.03,-131.21 874.63,-136.11 879.73,-140.9"/>
</a>
</g>
</g>
<!-- Node5 -->
<g id="Node000005" class="node">
<title>Node5</title>
<g id="a_Node000005"><a xlink:title=" ">
<polygon fill="#e0e0e0" stroke="#999999" points="668.88,-129.75 622.12,-129.75 622.12,-110.5 668.88,-110.5 668.88,-129.75"/>
<text text-anchor="middle" x="645.5" y="-116.25" font-family="Helvetica,sans-Serif" font-size="10.00">TPad.h</text>
</a>
</g>
</g>
<!-- Node2&#45;&gt;Node5 -->
<g id="edge4_Node000002_Node000005" class="edge">
<title>Node2&#45;&gt;Node5</title>
<g id="a_edge4_Node000002_Node000005"><a xlink:title=" ">
<path fill="none" stroke="#63b8ff" d="M818.02,-167.52C782.94,-158.09 719.65,-141.07 680.25,-130.47"/>
<polygon fill="#63b8ff" stroke="#63b8ff" points="681.36,-127.15 670.8,-127.93 679.55,-133.91 681.36,-127.15"/>
</a>
</g>
</g>
<!-- Node6 -->
<g id="Node000006" class="node">
<title>Node6</title>
<g id="a_Node000006"><a xlink:title=" ">
<polygon fill="#e0e0e0" stroke="#999999" points="751.88,-129.75 687.12,-129.75 687.12,-110.5 751.88,-110.5 751.88,-129.75"/>
<text text-anchor="middle" x="719.5" y="-116.25" font-family="Helvetica,sans-Serif" font-size="10.00">GuiTypes.h</text>
</a>
</g>
</g>
<!-- Node2&#45;&gt;Node6 -->
<g id="edge5_Node000002_Node000006" class="edge">
<title>Node2&#45;&gt;Node6</title>
<g id="a_edge5_Node000002_Node000006"><a xlink:title=" ">
<path fill="none" stroke="#63b8ff" d="M822.47,-165.34C802.87,-156.93 773.39,-144.27 750.99,-134.65"/>
<polygon fill="#63b8ff" stroke="#63b8ff" points="752.6,-131.53 742.03,-130.8 749.84,-137.96 752.6,-131.53"/>
</a>
</g>
</g>
<!-- Node7 -->
<g id="Node000007" class="node">
<title>Node7</title>
<g id="a_Node000007"><a xlink:title=" ">
<polygon fill="#e0e0e0" stroke="#999999" points="1144.5,-19.25 1098.5,-19.25 1098.5,0 1144.5,0 1144.5,-19.25"/>
<text text-anchor="middle" x="1121.5" y="-5.75" font-family="Helvetica,sans-Serif" font-size="10.00">TList.h</text>
</a>
</g>
</g>
<!-- Node2&#45;&gt;Node7 -->
<g id="edge6_Node000002_Node000007" class="edge">
<title>Node2&#45;&gt;Node7</title>
<g id="a_edge6_Node000002_Node000007"><a xlink:title=" ">
<path fill="none" stroke="#63b8ff" d="M844.66,-165.5C848.2,-142.55 861.09,-81.28 900.5,-55.25 957.76,-17.42 1040.25,-10.48 1086.56,-9.86"/>
<polygon fill="#63b8ff" stroke="#63b8ff" points="1086.55,-13.36 1096.54,-9.83 1086.53,-6.36 1086.55,-13.36"/>
</a>
</g>
</g>
<!-- Node8 -->
<g id="Node000008" class="node">
<title>Node8</title>
<g id="a_Node000008"><a xlink:title=" ">
<polygon fill="#e0e0e0" stroke="#999999" points="815.5,-129.75 769.5,-129.75 769.5,-110.5 815.5,-110.5 815.5,-129.75"/>
<text text-anchor="middle" x="792.5" y="-116.25" font-family="Helvetica,sans-Serif" font-size="10.00">TBox.h</text>
</a>
</g>
</g>
<!-- Node2&#45;&gt;Node8 -->
<g id="edge7_Node000002_Node000008" class="edge">
<title>Node2&#45;&gt;Node8</title>
<g id="a_edge7_Node000002_Node000008"><a xlink:title=" ">
<path fill="none" stroke="#63b8ff" d="M835.08,-165.58C827.96,-158.15 817.56,-147.29 808.81,-138.16"/>
<polygon fill="#63b8ff" stroke="#63b8ff" points="811.6,-136 802.15,-131.2 806.54,-140.85 811.6,-136"/>
</a>
</g>
</g>
<!-- Node2&#45;&gt;Node9 -->
<g id="edge8_Node000002_Node000009" class="edge">
<title>Node2&#45;&gt;Node9</title>
<g id="a_edge8_Node000002_Node000009"><a xlink:title=" ">
<path fill="none" stroke="#63b8ff" d="M817.92,-169.68C777.31,-162.18 695.34,-146.79 615.38,-130.09"/>
<polygon fill="#63b8ff" stroke="#63b8ff" points="616.1,-126.66 605.59,-128.03 614.66,-133.51 616.1,-126.66"/>
</a>
</g>
</g>
<!-- Node2&#45;&gt;Node25 -->
<g id="edge24_Node000002_Node000025" class="edge">
<title>Node2&#45;&gt;Node25</title>
<g id="a_edge24_Node000002_Node000025"><a xlink:title=" ">
<path fill="none" stroke="#63b8ff" d="M869.01,-169.27C916.98,-159.67 1020.68,-138.9 1074.9,-128.05"/>
<polygon fill="#63b8ff" stroke="#63b8ff" points="1075.39,-131.52 1084.51,-126.13 1074.01,-124.66 1075.39,-131.52"/>
</a>
</g>
</g>
<!-- Node9&#45;&gt;Node10 -->
<g id="edge9_Node000009_Node000010" class="edge">
<title>Node9&#45;&gt;Node10</title>
<g id="a_edge9_Node000009_Node000010"><a xlink:title=" ">
<path fill="none" stroke="#63b8ff" d="M604.06,-112.26C607.24,-111.61 610.43,-111.01 613.5,-110.5 762.04,-85.98 804.57,-99.83 956.33,-74.64"/>
<polygon fill="#63b8ff" stroke="#63b8ff" points="956.68,-78.13 965.96,-73.01 955.52,-71.23 956.68,-78.13"/>
</a>
</g>
</g>
<!-- Node11 -->
<g id="Node000011" class="node">
<title>Node11</title>
<g id="a_Node000011"><a xlink:title=" ">
<polygon fill="#e0e0e0" stroke="#999999" points="397.38,-74.5 347.62,-74.5 347.62,-55.25 397.38,-55.25 397.38,-74.5"/>
<text text-anchor="middle" x="372.5" y="-61" font-family="Helvetica,sans-Serif" font-size="10.00">iomanip</text>
</a>
</g>
</g>
<!-- Node9&#45;&gt;Node11 -->
<g id="edge10_Node000009_Node000011" class="edge">
<title>Node9&#45;&gt;Node11</title>
<g id="a_edge10_Node000009_Node000011"><a xlink:title=" ">
<path fill="none" stroke="#63b8ff" d="M546.85,-111.61C510.64,-102.11 448.29,-85.76 408.79,-75.39"/>
<polygon fill="#63b8ff" stroke="#63b8ff" points="409.83,-72.05 399.27,-72.9 408.06,-78.82 409.83,-72.05"/>
</a>
</g>
</g>
<!-- Node12 -->
<g id="Node000012" class="node">
<title>Node12</title>
<g id="a_Node000012"><a xlink:title=" ">
<polygon fill="#e0e0e0" stroke="#999999" points="473.5,-74.5 415.5,-74.5 415.5,-55.25 473.5,-55.25 473.5,-74.5"/>
<text text-anchor="middle" x="444.5" y="-61" font-family="Helvetica,sans-Serif" font-size="10.00">stdexcept</text>
</a>
</g>
</g>
<!-- Node9&#45;&gt;Node12 -->
<g id="edge11_Node000009_Node000012" class="edge">
<title>Node9&#45;&gt;Node12</title>
<g id="a_edge11_Node000009_Node000012"><a xlink:title=" ">
<path fill="none" stroke="#63b8ff" d="M553.28,-110.09C532.48,-101.64 501.15,-88.9 477.45,-79.27"/>
<polygon fill="#63b8ff" stroke="#63b8ff" points="478.82,-76.05 468.23,-75.52 476.18,-82.53 478.82,-76.05"/>
</a>
</g>
</g>
<!-- Node13 -->
<g id="Node000013" class="node">
<title>Node13</title>
<g id="a_Node000013"><a xlink:title=" ">
<polygon fill="#e0e0e0" stroke="#999999" points="949.5,-74.5 909.5,-74.5 909.5,-55.25 949.5,-55.25 949.5,-74.5"/>
<text text-anchor="middle" x="929.5" y="-61" font-family="Helvetica,sans-Serif" font-size="10.00">string</text>
</a>
</g>
</g>
<!-- Node9&#45;&gt;Node13 -->
<g id="edge12_Node000009_Node000013" class="edge">
<title>Node9&#45;&gt;Node13</title>
<g id="a_edge12_Node000009_Node000013"><a xlink:title=" ">
<path fill="none" stroke="#63b8ff" d="M604.07,-112.33C607.25,-111.67 610.44,-111.04 613.5,-110.5 737.92,-88.49 771.37,-98.08 895.5,-74.5 896.33,-74.34 897.17,-74.18 898.02,-74"/>
<polygon fill="#63b8ff" stroke="#63b8ff" points="898.65,-77.45 907.62,-71.82 897.09,-70.63 898.65,-77.45"/>
</a>
</g>
</g>
<!-- Node14 -->
<g id="Node000014" class="node">
<title>Node14</title>
<g id="a_Node000014"><a xlink:title=" ">
<polygon fill="#e0e0e0" stroke="#999999" points="1347.62,-19.25 1305.38,-19.25 1305.38,0 1347.62,0 1347.62,-19.25"/>
<text text-anchor="middle" x="1326.5" y="-5.75" font-family="Helvetica,sans-Serif" font-size="10.00">cstdio</text>
</a>
</g>
</g>
<!-- Node9&#45;&gt;Node14 -->
<g id="edge13_Node000009_Node000014" class="edge">
<title>Node9&#45;&gt;Node14</title>
<g id="a_edge13_Node000009_Node000014"><a xlink:title=" ">
<path fill="none" stroke="#63b8ff" d="M604.1,-112.46C607.27,-111.77 610.45,-111.11 613.5,-110.5 706.81,-91.96 731.43,-94.19 824.5,-74.5 858.59,-67.29 866.2,-61.36 900.5,-55.25 1045.84,-29.37 1221.93,-16.79 1293.69,-12.45"/>
<polygon fill="#63b8ff" stroke="#63b8ff" points="1293.78,-15.95 1303.56,-11.87 1293.37,-8.96 1293.78,-15.95"/>
</a>
</g>
</g>
<!-- Node15 -->
<g id="Node000015" class="node">
<title>Node15</title>
<g id="a_Node000015"><a xlink:title=" ">
<polygon fill="#e0e0e0" stroke="#999999" points="537.12,-74.5 491.88,-74.5 491.88,-55.25 537.12,-55.25 537.12,-74.5"/>
<text text-anchor="middle" x="514.5" y="-61" font-family="Helvetica,sans-Serif" font-size="10.00">cstdint</text>
</a>
</g>
</g>
<!-- Node9&#45;&gt;Node15 -->
<g id="edge14_Node000009_Node000015" class="edge">
<title>Node9&#45;&gt;Node15</title>
<g id="a_edge14_Node000009_Node000015"><a xlink:title=" ">
<path fill="none" stroke="#63b8ff" d="M565.15,-110.09C556.42,-102.47 543.71,-91.37 533.2,-82.2"/>
<polygon fill="#63b8ff" stroke="#63b8ff" points="535.67,-79.71 525.84,-75.77 531.07,-84.98 535.67,-79.71"/>
</a>
</g>
</g>
<!-- Node16 -->
<g id="Node000016" class="node">
<title>Node16</title>
<g id="a_Node000016"><a xlink:title=" ">
<polygon fill="#e0e0e0" stroke="#999999" points="599.75,-74.5 555.25,-74.5 555.25,-55.25 599.75,-55.25 599.75,-74.5"/>
<text text-anchor="middle" x="577.5" y="-61" font-family="Helvetica,sans-Serif" font-size="10.00">cstdlib</text>
</a>
</g>
</g>
<!-- Node9&#45;&gt;Node16 -->
<g id="edge15_Node000009_Node000016" class="edge">
<title>Node9&#45;&gt;Node16</title>
<g id="a_edge15_Node000009_Node000016"><a xlink:title=" ">
<path fill="none" stroke="#63b8ff" d="M575.83,-110.33C576.08,-103.74 576.43,-94.46 576.74,-86.07"/>
<polygon fill="#63b8ff" stroke="#63b8ff" points="580.23,-86.5 577.11,-76.37 573.23,-86.23 580.23,-86.5"/>
</a>
</g>
</g>
<!-- Node17 -->
<g id="Node000017" class="node">
<title>Node17</title>
<g id="a_Node000017"><a xlink:title=" ">
<polygon fill="#e0e0e0" stroke="#999999" points="677.25,-74.5 617.75,-74.5 617.75,-55.25 677.25,-55.25 677.25,-74.5"/>
<text text-anchor="middle" x="647.5" y="-61" font-family="Helvetica,sans-Serif" font-size="10.00">execinfo.h</text>
</a>
</g>
</g>
<!-- Node9&#45;&gt;Node17 -->
<g id="edge16_Node000009_Node000017" class="edge">
<title>Node9&#45;&gt;Node17</title>
<g id="a_edge16_Node000009_Node000017"><a xlink:title=" ">
<path fill="none" stroke="#63b8ff" d="M587.71,-110.09C598.33,-102.24 613.94,-90.7 626.54,-81.37"/>
<polygon fill="#63b8ff" stroke="#63b8ff" points="628.29,-84.44 634.25,-75.67 624.13,-78.81 628.29,-84.44"/>
</a>
</g>
</g>
<!-- Node18 -->
<g id="Node000018" class="node">
<title>Node18</title>
<g id="a_Node000018"><a xlink:title=" ">
<polygon fill="#e0e0e0" stroke="#999999" points="745.75,-74.5 695.25,-74.5 695.25,-55.25 745.75,-55.25 745.75,-74.5"/>
<text text-anchor="middle" x="720.5" y="-61" font-family="Helvetica,sans-Serif" font-size="10.00">cxxabi.h</text>
</a>
</g>
</g>
<!-- Node9&#45;&gt;Node18 -->
<g id="edge17_Node000009_Node000018" class="edge">
<title>Node9&#45;&gt;Node18</title>
<g id="a_edge17_Node000009_Node000018"><a xlink:title=" ">
<path fill="none" stroke="#63b8ff" d="M600.1,-110.09C623.43,-101.52 658.74,-88.56 685.1,-78.88"/>
<polygon fill="#63b8ff" stroke="#63b8ff" points="686.18,-82.21 694.36,-75.47 683.77,-75.64 686.18,-82.21"/>
</a>
</g>
</g>
<!-- Node19 -->
<g id="Node000019" class="node">
<title>Node19</title>
<g id="a_Node000019"><a xlink:title=" ">
<polygon fill="#e0e0e0" stroke="#999999" points="815.12,-74.5 763.88,-74.5 763.88,-55.25 815.12,-55.25 815.12,-74.5"/>
<text text-anchor="middle" x="789.5" y="-61" font-family="Helvetica,sans-Serif" font-size="10.00">sstream</text>
</a>
</g>
</g>
<!-- Node9&#45;&gt;Node19 -->
<g id="edge18_Node000009_Node000019" class="edge">
<title>Node9&#45;&gt;Node19</title>
<g id="a_edge18_Node000009_Node000019"><a xlink:title=" ">
<path fill="none" stroke="#63b8ff" d="M603.92,-112.05C642.24,-102.52 710.55,-85.52 752.74,-75.02"/>
<polygon fill="#63b8ff" stroke="#63b8ff" points="753.32,-78.48 762.18,-72.67 751.63,-71.69 753.32,-78.48"/>
</a>
</g>
</g>
<!-- Node20 -->
<g id="Node000020" class="node">
<title>Node20</title>
<g id="a_Node000020"><a xlink:title=" ">
<polygon fill="#e0e0e0" stroke="#999999" points="37,-74.5 0,-74.5 0,-55.25 37,-55.25 37,-74.5"/>
<text text-anchor="middle" x="18.5" y="-61" font-family="Helvetica,sans-Serif" font-size="10.00">array</text>
</a>
</g>
</g>
<!-- Node9&#45;&gt;Node20 -->
<g id="edge19_Node000009_Node000020" class="edge">
<title>Node9&#45;&gt;Node20</title>
<g id="a_edge19_Node000009_Node000020"><a xlink:title=" ">
<path fill="none" stroke="#63b8ff" d="M546.82,-118.86C468.34,-117.68 243.48,-111.27 48.37,-74.4"/>
<polygon fill="#63b8ff" stroke="#63b8ff" points="49.31,-71.02 38.82,-72.57 47.98,-77.89 49.31,-71.02"/>
</a>
</g>
</g>
<!-- Node21 -->
<g id="Node000021" class="node">
<title>Node21</title>
<g id="a_Node000021"><a xlink:title=" ">
<polygon fill="#e0e0e0" stroke="#999999" points="105.75,-74.5 55.25,-74.5 55.25,-55.25 105.75,-55.25 105.75,-74.5"/>
<text text-anchor="middle" x="80.5" y="-61" font-family="Helvetica,sans-Serif" font-size="10.00">memory</text>
</a>
</g>
</g>
<!-- Node9&#45;&gt;Node21 -->
<g id="edge20_Node000009_Node000021" class="edge">
<title>Node9&#45;&gt;Node21</title>
<g id="a_edge20_Node000009_Node000021"><a xlink:title=" ">
<path fill="none" stroke="#63b8ff" d="M546.97,-117.87C475.93,-114.44 285.32,-103.26 117.32,-74.74"/>
<polygon fill="#63b8ff" stroke="#63b8ff" points="117.97,-71.3 107.52,-73.05 116.78,-78.2 117.97,-71.3"/>
</a>
</g>
</g>
<!-- Node22 -->
<g id="Node000022" class="node">
<title>Node22</title>
<g id="a_Node000022"><a xlink:title=" ">
<polygon fill="#e0e0e0" stroke="#999999" points="173.38,-74.5 123.62,-74.5 123.62,-55.25 173.38,-55.25 173.38,-74.5"/>
<text text-anchor="middle" x="148.5" y="-61" font-family="Helvetica,sans-Serif" font-size="10.00">unistd.h</text>
</a>
</g>
</g>
<!-- Node9&#45;&gt;Node22 -->
<g id="edge21_Node000009_Node000022" class="edge">
<title>Node9&#45;&gt;Node22</title>
<g id="a_edge21_Node000009_Node000022"><a xlink:title=" ">
<path fill="none" stroke="#63b8ff" d="M547.19,-117.23C483.94,-112.72 326.22,-99.92 184.69,-74.66"/>
<polygon fill="#63b8ff" stroke="#63b8ff" points="185.62,-71.27 175.16,-72.93 184.37,-78.16 185.62,-71.27"/>
</a>
</g>
</g>
<!-- Node23 -->
<g id="Node000023" class="node">
<title>Node23</title>
<g id="a_Node000023"><a xlink:title=" ">
<polygon fill="#e0e0e0" stroke="#999999" points="251.25,-74.5 191.75,-74.5 191.75,-55.25 251.25,-55.25 251.25,-74.5"/>
<text text-anchor="middle" x="221.5" y="-61" font-family="Helvetica,sans-Serif" font-size="10.00">sys/wait.h</text>
</a>
</g>
</g>
<!-- Node9&#45;&gt;Node23 -->
<g id="edge22_Node000009_Node000023" class="edge">
<title>Node9&#45;&gt;Node23</title>
<g id="a_edge22_Node000009_Node000023"><a xlink:title=" ">
<path fill="none" stroke="#63b8ff" d="M547.15,-115.85C493.6,-109.51 373.72,-94.55 262.74,-74.78"/>
<polygon fill="#63b8ff" stroke="#63b8ff" points="263.64,-71.39 253.18,-73.06 262.4,-78.28 263.64,-71.39"/>
</a>
</g>
</g>
<!-- Node24 -->
<g id="Node000024" class="node">
<title>Node24</title>
<g id="a_Node000024"><a xlink:title=" ">
<polygon fill="#e0e0e0" stroke="#999999" points="329.62,-74.5 269.38,-74.5 269.38,-55.25 329.62,-55.25 329.62,-74.5"/>
<text text-anchor="middle" x="299.5" y="-61" font-family="Helvetica,sans-Serif" font-size="10.00">sys/prctl.h</text>
</a>
</g>
</g>
<!-- Node9&#45;&gt;Node24 -->
<g id="edge23_Node000009_Node000024" class="edge">
<title>Node9&#45;&gt;Node24</title>
<g id="a_edge23_Node000009_Node000024"><a xlink:title=" ">
<path fill="none" stroke="#63b8ff" d="M546.99,-114.06C504.33,-106.41 421.12,-91.24 340.55,-74.87"/>
<polygon fill="#63b8ff" stroke="#63b8ff" points="341.69,-71.53 331.2,-72.96 340.29,-78.39 341.69,-71.53"/>
</a>
</g>
</g>
<!-- Node25&#45;&gt;Node7 -->
<g id="edge28_Node000025_Node000007" class="edge">
<title>Node25&#45;&gt;Node7</title>
<g id="a_edge28_Node000025_Node000007"><a xlink:title=" ">
<path fill="none" stroke="#63b8ff" d="M1098.53,-110.33C1084.92,-98.28 1064.55,-75.79 1073.5,-55.25 1078.54,-43.67 1088.24,-33.74 1097.6,-26.21"/>
<polygon fill="#63b8ff" stroke="#63b8ff" points="1099.49,-29.17 1105.45,-20.41 1095.33,-23.54 1099.49,-29.17"/>
</a>
</g>
</g>
<!-- Node25&#45;&gt;Node14 -->
<g id="edge25_Node000025_Node000014" class="edge">
<title>Node25&#45;&gt;Node14</title>
<g id="a_edge25_Node000025_Node000014"><a xlink:title=" ">
<path fill="none" stroke="#63b8ff" d="M1106.65,-110.07C1102.98,-96.47 1098.51,-70.71 1111.5,-55.25 1134.53,-27.84 1239.47,-16.63 1293.75,-12.6"/>
<polygon fill="#63b8ff" stroke="#63b8ff" points="1293.9,-16.1 1303.63,-11.91 1293.41,-9.12 1293.9,-16.1"/>
</a>
</g>
</g>
<!-- Node26 -->
<g id="Node000026" class="node">
<title>Node26</title>
<g id="a_Node000026"><a xlink:title=" ">
<polygon fill="#e0e0e0" stroke="#999999" points="1499,-19.25 1438,-19.25 1438,0 1499,0 1499,-19.25"/>
<text text-anchor="middle" x="1468.5" y="-5.75" font-family="Helvetica,sans-Serif" font-size="10.00">TNamed.h</text>
</a>
</g>
</g>
<!-- Node25&#45;&gt;Node26 -->
<g id="edge26_Node000025_Node000026" class="edge">
<title>Node25&#45;&gt;Node26</title>
<g id="a_edge26_Node000025_Node000026"><a xlink:title=" ">
<path fill="none" stroke="#63b8ff" d="M1112.26,-110.38C1117.22,-96.21 1129.08,-68.49 1149.5,-55.25 1172.34,-40.45 1344.92,-22.35 1426.29,-14.53"/>
<polygon fill="#63b8ff" stroke="#63b8ff" points="1426.47,-18.03 1436.09,-13.6 1425.81,-11.06 1426.47,-18.03"/>
</a>
</g>
</g>
<!-- Node27 -->
<g id="Node000027" class="node">
<title>Node27</title>
<g id="a_Node000027"><a xlink:title=" ">
<polygon fill="#e0e0e0" stroke="#999999" points="1573.62,-19.25 1531.38,-19.25 1531.38,0 1573.62,0 1573.62,-19.25"/>
<text text-anchor="middle" x="1552.5" y="-5.75" font-family="Helvetica,sans-Serif" font-size="10.00">TH2.h</text>
</a>
</g>
</g>
<!-- Node25&#45;&gt;Node27 -->
<g id="edge27_Node000025_Node000027" class="edge">
<title>Node25&#45;&gt;Node27</title>
<g id="a_edge27_Node000025_Node000027"><a xlink:title=" ">
<path fill="none" stroke="#63b8ff" d="M1116.46,-110.24C1128.28,-95.87 1153.83,-67.86 1182.5,-55.25 1315.93,3.44 1364.41,-41.29 1508.5,-19.25 1512.19,-18.69 1516.05,-18.03 1519.88,-17.34"/>
<polygon fill="#63b8ff" stroke="#63b8ff" points="1520.43,-20.79 1529.59,-15.48 1519.11,-13.92 1520.43,-20.79"/>
</a>
</g>
</g>
<!-- Node25&#45;&gt;Node28 -->
<g id="edge29_Node000025_Node000028" class="edge">
<title>Node25&#45;&gt;Node28</title>
<g id="a_edge29_Node000025_Node000028"><a xlink:title=" ">
<path fill="none" stroke="#63b8ff" d="M1129.69,-110.09C1148.41,-101.72 1176.52,-89.13 1197.98,-79.53"/>
<polygon fill="#63b8ff" stroke="#63b8ff" points="1199.13,-82.85 1206.83,-75.57 1196.28,-76.46 1199.13,-82.85"/>
</a>
</g>
</g>
<!-- Node25&#45;&gt;Node29 -->
<g id="edge30_Node000025_Node000029" class="edge">
<title>Node25&#45;&gt;Node29</title>
<g id="a_edge30_Node000025_Node000029"><a xlink:title=" ">
<path fill="none" stroke="#63b8ff" d="M1133.18,-112.91C1167.31,-103.96 1230.78,-87.31 1272.32,-76.41"/>
<polygon fill="#63b8ff" stroke="#63b8ff" points="1273.17,-79.81 1281.95,-73.89 1271.39,-73.04 1273.17,-79.81"/>
</a>
</g>
</g>
<!-- Node30 -->
<g id="Node000030" class="node">
<title>Node30</title>
<g id="a_Node000030"><a xlink:href="_g_h2_base_8h.html" target="_top" xlink:title=" ">
<polygon fill="white" stroke="#666666" points="1501.62,-74.5 1435.38,-74.5 1435.38,-55.25 1501.62,-55.25 1501.62,-74.5"/>
<text text-anchor="middle" x="1468.5" y="-61" font-family="Helvetica,sans-Serif" font-size="10.00">GH2Base.h</text>
</a>
</g>
</g>
<!-- Node25&#45;&gt;Node30 -->
<g id="edge31_Node000025_Node000030" class="edge">
<title>Node25&#45;&gt;Node30</title>
<g id="a_edge31_Node000025_Node000030"><a xlink:title=" ">
<path fill="none" stroke="#63b8ff" d="M1133.33,-115.59C1192.54,-106.81 1347.08,-83.89 1423.86,-72.5"/>
<polygon fill="#63b8ff" stroke="#63b8ff" points="1424.17,-75.99 1433.55,-71.06 1423.15,-69.06 1424.17,-75.99"/>
</a>
</g>
</g>
<!-- Node30&#45;&gt;Node7 -->
<g id="edge35_Node000030_Node000007" class="edge">
<title>Node30&#45;&gt;Node7</title>
<g id="a_edge35_Node000030_Node000007"><a xlink:title=" ">
<path fill="none" stroke="#63b8ff" d="M1434.91,-58.72C1368.81,-48.58 1222.46,-26.12 1155.79,-15.89"/>
<polygon fill="#63b8ff" stroke="#63b8ff" points="1156.59,-12.47 1146.17,-14.41 1155.53,-19.39 1156.59,-12.47"/>
</a>
</g>
</g>
<!-- Node30&#45;&gt;Node14 -->
<g id="edge32_Node000030_Node000014" class="edge">
<title>Node30&#45;&gt;Node14</title>
<g id="a_edge32_Node000030_Node000014"><a xlink:title=" ">
<path fill="none" stroke="#63b8ff" d="M1444.41,-54.84C1420.73,-45.96 1384.45,-32.36 1358.39,-22.58"/>
<polygon fill="#63b8ff" stroke="#63b8ff" points="1359.92,-19.42 1349.33,-19.19 1357.47,-25.98 1359.92,-19.42"/>
</a>
</g>
</g>
<!-- Node30&#45;&gt;Node26 -->
<g id="edge33_Node000030_Node000026" class="edge">
<title>Node30&#45;&gt;Node26</title>
<g id="a_edge33_Node000030_Node000026"><a xlink:title=" ">
<path fill="none" stroke="#63b8ff" d="M1468.5,-55.08C1468.5,-48.57 1468.5,-39.42 1468.5,-31.12"/>
<polygon fill="#63b8ff" stroke="#63b8ff" points="1472,-31.12 1468.5,-21.12 1465,-31.12 1472,-31.12"/>
</a>
</g>
</g>
<!-- Node30&#45;&gt;Node27 -->
<g id="edge34_Node000030_Node000027" class="edge">
<title>Node30&#45;&gt;Node27</title>
<g id="a_edge34_Node000030_Node000027"><a xlink:title=" ">
<path fill="none" stroke="#63b8ff" d="M1482.75,-54.84C1495.3,-46.89 1513.83,-35.14 1528.64,-25.75"/>
<polygon fill="#63b8ff" stroke="#63b8ff" points="1530.33,-28.82 1536.9,-20.51 1526.58,-22.91 1530.33,-28.82"/>
</a>
</g>
</g>
<!-- Node37&#45;&gt;Node13 -->
<g id="edge47_Node000037_Node000013" class="edge">
<title>Node37&#45;&gt;Node13</title>
<g id="a_edge47_Node000037_Node000013"><a xlink:title=" ">
<path fill="none" stroke="#63b8ff" d="M1648.7,-116.74C1498.94,-109.62 1063.72,-88.26 961.23,-74.33"/>
<polygon fill="#63b8ff" stroke="#63b8ff" points="961.87,-70.89 951.45,-72.82 960.8,-77.81 961.87,-70.89"/>
</a>
</g>
</g>
<!-- Node37&#45;&gt;Node27 -->
<g id="edge49_Node000037_Node000027" class="edge">
<title>Node37&#45;&gt;Node27</title>
<g id="a_edge49_Node000037_Node000027"><a xlink:title=" ">
<path fill="none" stroke="#63b8ff" d="M1713.16,-110.14C1730.72,-97.5 1757.28,-73.9 1742.5,-55.25 1723.21,-30.9 1634.06,-18.54 1585.04,-13.48"/>
<polygon fill="#63b8ff" stroke="#63b8ff" points="1585.59,-10.02 1575.3,-12.53 1584.91,-16.99 1585.59,-10.02"/>
</a>
</g>
</g>
<!-- Node38 -->
<g id="Node000038" class="node">
<title>Node38</title>
<g id="a_Node000038"><a xlink:title=" ">
<polygon fill="#e0e0e0" stroke="#999999" points="1733.38,-74.5 1665.62,-74.5 1665.62,-55.25 1733.38,-55.25 1733.38,-74.5"/>
<text text-anchor="middle" x="1699.5" y="-61" font-family="Helvetica,sans-Serif" font-size="10.00">TDirectory.h</text>
</a>
</g>
</g>
<!-- Node37&#45;&gt;Node38 -->
<g id="edge48_Node000037_Node000038" class="edge">
<title>Node37&#45;&gt;Node38</title>
<g id="a_edge48_Node000037_Node000038"><a xlink:title=" ">
<path fill="none" stroke="#63b8ff" d="M1699.5,-110.33C1699.5,-103.82 1699.5,-94.67 1699.5,-86.37"/>
<polygon fill="#63b8ff" stroke="#63b8ff" points="1703,-86.37 1699.5,-76.37 1696,-86.37 1703,-86.37"/>
</a>
</g>
</g>
<!-- Node39&#45;&gt;Node3 -->
<g id="edge55_Node000039_Node000003" class="edge">
<title>Node39&#45;&gt;Node3</title>
<g id="a_edge55_Node000039_Node000003"><a xlink:title=" ">
<path fill="none" stroke="#63b8ff" d="M1833.04,-110.33C1829.55,-103.44 1824.55,-93.59 1820.15,-84.91"/>
<polygon fill="#63b8ff" stroke="#63b8ff" points="1823.38,-83.55 1815.74,-76.21 1817.14,-86.71 1823.38,-83.55"/>
</a>
</g>
</g>
<!-- Node39&#45;&gt;Node10 -->
<g id="edge58_Node000039_Node000010" class="edge">
<title>Node39&#45;&gt;Node10</title>
<g id="a_edge58_Node000039_Node000010"><a xlink:title=" ">
<path fill="none" stroke="#63b8ff" d="M1805.25,-115.23C1790.94,-113.6 1773.9,-111.79 1758.5,-110.5 1615.04,-98.49 1166.98,-74.83 1032.83,-67.86"/>
<polygon fill="#63b8ff" stroke="#63b8ff" points="1033.23,-64.37 1023.07,-67.35 1032.87,-71.36 1033.23,-64.37"/>
</a>
</g>
</g>
<!-- Node39&#45;&gt;Node30 -->
<g id="edge51_Node000039_Node000030" class="edge">
<title>Node39&#45;&gt;Node30</title>
<g id="a_edge51_Node000039_Node000030"><a xlink:title=" ">
<path fill="none" stroke="#63b8ff" d="M1805.08,-114.45C1738.92,-104.9 1588.28,-83.16 1513.02,-72.3"/>
<polygon fill="#63b8ff" stroke="#63b8ff" points="1513.94,-68.9 1503.54,-70.93 1512.94,-75.82 1513.94,-68.9"/>
</a>
</g>
</g>
<!-- Node40 -->
<g id="Node000040" class="node">
<title>Node40</title>
<g id="a_Node000040"><a xlink:title=" ">
<polygon fill="#e0e0e0" stroke="#999999" points="1907.12,-74.5 1849.88,-74.5 1849.88,-55.25 1907.12,-55.25 1907.12,-74.5"/>
<text text-anchor="middle" x="1878.5" y="-61" font-family="Helvetica,sans-Serif" font-size="10.00">TROOT.h</text>
</a>
</g>
</g>
<!-- Node39&#45;&gt;Node40 -->
<g id="edge52_Node000039_Node000040" class="edge">
<title>Node39&#45;&gt;Node40</title>
<g id="a_edge52_Node000039_Node000040"><a xlink:title=" ">
<path fill="none" stroke="#63b8ff" d="M1844.27,-110.33C1849.82,-103.13 1857.84,-92.71 1864.73,-83.76"/>
<polygon fill="#63b8ff" stroke="#63b8ff" points="1867.33,-86.12 1870.66,-76.06 1861.79,-81.85 1867.33,-86.12"/>
</a>
</g>
</g>
<!-- Node41 -->
<g id="Node000041" class="node">
<title>Node41</title>
<g id="a_Node000041"><a xlink:title=" ">
<polygon fill="#e0e0e0" stroke="#999999" points="1987.75,-74.5 1925.25,-74.5 1925.25,-55.25 1987.75,-55.25 1987.75,-74.5"/>
<text text-anchor="middle" x="1956.5" y="-61" font-family="Helvetica,sans-Serif" font-size="10.00">TCanvas.h</text>
</a>
</g>
</g>
<!-- Node39&#45;&gt;Node41 -->
<g id="edge53_Node000039_Node000041" class="edge">
<title>Node39&#45;&gt;Node41</title>
<g id="a_edge53_Node000039_Node000041"><a xlink:title=" ">
<path fill="none" stroke="#63b8ff" d="M1857.69,-110.09C1876.41,-101.72 1904.52,-89.13 1925.98,-79.53"/>
<polygon fill="#63b8ff" stroke="#63b8ff" points="1927.13,-82.85 1934.83,-75.57 1924.28,-76.46 1927.13,-82.85"/>
</a>
</g>
</g>
<!-- Node42 -->
<g id="Node000042" class="node">
<title>Node42</title>
<g id="a_Node000042"><a xlink:title=" ">
<polygon fill="#e0e0e0" stroke="#999999" points="2088.88,-74.5 2006.12,-74.5 2006.12,-55.25 2088.88,-55.25 2088.88,-74.5"/>
<text text-anchor="middle" x="2047.5" y="-61" font-family="Helvetica,sans-Serif" font-size="10.00">TRootCanvas.h</text>
</a>
</g>
</g>
<!-- Node39&#45;&gt;Node42 -->
<g id="edge54_Node000039_Node000042" class="edge">
<title>Node39&#45;&gt;Node42</title>
<g id="a_edge54_Node000039_Node000042"><a xlink:title=" ">
<path fill="none" stroke="#63b8ff" d="M1869.85,-110.92C1904.8,-102.06 1960.8,-87.86 2000.58,-77.77"/>
<polygon fill="#63b8ff" stroke="#63b8ff" points="2001.29,-81.2 2010.12,-75.35 1999.57,-74.42 2001.29,-81.2"/>
</a>
</g>
</g>
<!-- Node43 -->
<g id="Node000043" class="node">
<title>Node43</title>
<g id="a_Node000043"><a xlink:title=" ">
<polygon fill="#e0e0e0" stroke="#999999" points="2155.62,-74.5 2107.38,-74.5 2107.38,-55.25 2155.62,-55.25 2155.62,-74.5"/>
<text text-anchor="middle" x="2131.5" y="-61" font-family="Helvetica,sans-Serif" font-size="10.00">TLine.h</text>
</a>
</g>
</g>
<!-- Node39&#45;&gt;Node43 -->
<g id="edge56_Node000039_Node000043" class="edge">
<title>Node39&#45;&gt;Node43</title>
<g id="a_edge56_Node000039_Node000043"><a xlink:title=" ">
<path fill="none" stroke="#63b8ff" d="M1869.68,-114.43C1916.93,-107.37 2008.09,-93.05 2095.81,-74.7"/>
<polygon fill="#63b8ff" stroke="#63b8ff" points="2096.5,-78.13 2105.56,-72.64 2095.05,-71.28 2096.5,-78.13"/>
</a>
</g>
</g>
<!-- Node44 -->
<g id="Node000044" class="node">
<title>Node44</title>
<g id="a_Node000044"><a xlink:title=" ">
<polygon fill="#e0e0e0" stroke="#999999" points="1647.5,-74.5 1595.5,-74.5 1595.5,-55.25 1647.5,-55.25 1647.5,-74.5"/>
<text text-anchor="middle" x="1621.5" y="-61" font-family="Helvetica,sans-Serif" font-size="10.00">TCutG.h</text>
</a>
</g>
</g>
<!-- Node39&#45;&gt;Node44 -->
<g id="edge57_Node000039_Node000044" class="edge">
<title>Node39&#45;&gt;Node44</title>
<g id="a_edge57_Node000039_Node000044"><a xlink:title=" ">
<path fill="none" stroke="#63b8ff" d="M1805.16,-111.15C1766.01,-101.5 1700.18,-85.27 1658.88,-75.09"/>
<polygon fill="#63b8ff" stroke="#63b8ff" points="1659.95,-71.75 1649.4,-72.75 1658.27,-78.54 1659.95,-71.75"/>
</a>
</g>
</g>
<!-- Node45&#45;&gt;Node7 -->
<g id="edge64_Node000045_Node000007" class="edge">
<title>Node45&#45;&gt;Node7</title>
<g id="a_edge64_Node000045_Node000007"><a xlink:title=" ">
<path fill="none" stroke="#63b8ff" d="M1451.05,-110.03C1434.01,-101.11 1407.38,-87.05 1384.5,-74.5 1369.28,-66.15 1366.79,-61.27 1350.5,-55.25 1284.23,-30.77 1201.96,-18.93 1156.26,-13.88"/>
<polygon fill="#63b8ff" stroke="#63b8ff" points="1156.74,-10.41 1146.42,-12.84 1156,-17.37 1156.74,-10.41"/>
</a>
</g>
</g>
<!-- Node45&#45;&gt;Node14 -->
<g id="edge61_Node000045_Node000014" class="edge">
<title>Node45&#45;&gt;Node14</title>
<g id="a_edge61_Node000045_Node000014"><a xlink:title=" ">
<path fill="none" stroke="#63b8ff" d="M1456.88,-110.25C1432.85,-91.89 1377.43,-49.54 1347.15,-26.41"/>
<polygon fill="#63b8ff" stroke="#63b8ff" points="1349.55,-23.84 1339.48,-20.55 1345.3,-29.4 1349.55,-23.84"/>
</a>
</g>
</g>
<!-- Node45&#45;&gt;Node26 -->
<g id="edge62_Node000045_Node000026" class="edge">
<title>Node45&#45;&gt;Node26</title>
<g id="a_edge62_Node000045_Node000026"><a xlink:title=" ">
<path fill="none" stroke="#63b8ff" d="M1481.55,-110.07C1496.81,-98.26 1518.96,-76.59 1510.5,-55.25 1506.18,-44.36 1497.8,-34.57 1489.66,-26.97"/>
<polygon fill="#63b8ff" stroke="#63b8ff" points="1492.12,-24.47 1482.26,-20.6 1487.56,-29.78 1492.12,-24.47"/>
</a>
</g>
</g>
<!-- Node45&#45;&gt;Node27 -->
<g id="edge63_Node000045_Node000027" class="edge">
<title>Node45&#45;&gt;Node27</title>
<g id="a_edge63_Node000045_Node000027"><a xlink:title=" ">
<path fill="none" stroke="#63b8ff" d="M1484.08,-110.05C1496.68,-102.05 1514.12,-89.37 1525.5,-74.5 1535.58,-61.32 1542.64,-43.82 1547,-30.47"/>
<polygon fill="#63b8ff" stroke="#63b8ff" points="1550.3,-31.65 1549.82,-21.07 1543.59,-29.64 1550.3,-31.65"/>
</a>
</g>
</g>
<!-- Node45&#45;&gt;Node28 -->
<g id="edge65_Node000045_Node000028" class="edge">
<title>Node45&#45;&gt;Node28</title>
<g id="a_edge65_Node000045_Node000028"><a xlink:title=" ">
<path fill="none" stroke="#63b8ff" d="M1442.82,-113.43C1403.44,-104.69 1327.46,-87.83 1277.36,-76.72"/>
<polygon fill="#63b8ff" stroke="#63b8ff" points="1278.16,-73.31 1267.63,-74.56 1276.64,-80.14 1278.16,-73.31"/>
</a>
</g>
</g>
<!-- Node45&#45;&gt;Node29 -->
<g id="edge66_Node000045_Node000029" class="edge">
<title>Node45&#45;&gt;Node29</title>
<g id="a_edge66_Node000045_Node000029"><a xlink:title=" ">
<path fill="none" stroke="#63b8ff" d="M1443.09,-110.45C1417.86,-101.84 1378.89,-88.54 1350.09,-78.7"/>
<polygon fill="#63b8ff" stroke="#63b8ff" points="1351.23,-75.4 1340.64,-75.48 1348.97,-82.02 1351.23,-75.4"/>
</a>
</g>
</g>
<!-- Node45&#45;&gt;Node30 -->
<g id="edge68_Node000045_Node000030" class="edge">
<title>Node45&#45;&gt;Node30</title>
<g id="a_edge68_Node000045_Node000030"><a xlink:title=" ">
<path fill="none" stroke="#63b8ff" d="M1468.5,-110.33C1468.5,-103.82 1468.5,-94.67 1468.5,-86.37"/>
<polygon fill="#63b8ff" stroke="#63b8ff" points="1472,-86.37 1468.5,-76.37 1465,-86.37 1472,-86.37"/>
</a>
</g>
</g>
<!-- Node45&#45;&gt;Node44 -->
<g id="edge67_Node000045_Node000044" class="edge">
<title>Node45&#45;&gt;Node44</title>
<g id="a_edge67_Node000045_Node000044"><a xlink:title=" ">
<path fill="none" stroke="#63b8ff" d="M1494.11,-110.21C1518.89,-101.59 1556.72,-88.42 1584.72,-78.68"/>
<polygon fill="#63b8ff" stroke="#63b8ff" points="1585.57,-82.09 1593.87,-75.49 1583.27,-75.47 1585.57,-82.09"/>
</a>
</g>
</g>
</g>
</svg>
