<?xml version="1.0" encoding="UTF-8" standalone="no"?>
<!DOCTYPE svg PUBLIC "-//W3C//DTD SVG 1.1//EN"
 "http://www.w3.org/Graphics/SVG/1.1/DTD/svg11.dtd">
<!-- Generated by graphviz version 9.0.0 (20230911.1827)
 -->
<!-- Title: GHSym.h Pages: 1 -->
<!--zoomable 193 -->

<svg id="main" version="1.1" xmlns="http://www.w3.org/2000/svg" xmlns:xlink="http://www.w3.org/1999/xlink" xml:space="preserve" onload="init(evt)">
<style type="text/css"><![CDATA[
.node, .edge {opacity: 0.7;}
.node.selected, .edge.selected {opacity: 1;}
.edge:hover path { stroke: red; }
.edge:hover polygon { stroke: red; fill: red; }
]]></style>

<defs>
  <circle id="rim" cx="0" cy="0" r="7"/>
  <circle id="rim2" cx="0" cy="0" r="3.5"/>
  <g id="zoomPlus">
    <use xlink:href="#rim" fill="#404040"><set attributeName="fill" to="#808080" begin="zoomplus.mouseover" end="zoomplus.mouseout"/></use>
    <path d="M-4,0h8M0,-4v8" fill="none" stroke="white" stroke-width="1.5" pointer-events="none"/>
  </g>
  <g id="zoomMin">
    <use xlink:href="#rim" fill="#404040"><set attributeName="fill" to="#808080" begin="zoomminus.mouseover" end="zoomminus.mouseout"/></use>
    <path d="M-4,0h8" fill="none" stroke="white" stroke-width="1.5" pointer-events="none"/>
  </g>
  <g id="arrowUp" transform="translate(30 24)">
    <use xlink:href="#rim"/>
    <path pointer-events="none" fill="none" stroke="white" stroke-width="1.5" d="M0,-3.0v7 M-2.5,-0.5L0,-3.0L2.5,-0.5"/>
  </g>
  <g id="arrowRight" transform="rotate(90) translate(36 -43)">
    <use xlink:href="#rim"/>
    <path pointer-events="none" fill="none" stroke="white" stroke-width="1.5" d="M0,-3.0v7 M-2.5,-0.5L0,-3.0L2.5,-0.5"/>
  </g>
  <g id="arrowDown" transform="rotate(180) translate(-30 -48)">
    <use xlink:href="#rim"/>
    <path pointer-events="none" fill="none" stroke="white" stroke-width="1.5" d="M0,-3.0v7 M-2.5,-0.5L0,-3.0L2.5,-0.5"/>
  </g>
  <g id="arrowLeft" transform="rotate(270) translate(-36 17)">
    <use xlink:href="#rim"/>
    <path pointer-events="none" fill="none" stroke="white" stroke-width="1.5" d="M0,-3.0v7 M-2.5,-0.5L0,-3.0L2.5,-0.5"/>
  </g>
  <g id="resetDef">
    <use xlink:href="#rim2" fill="#404040"><set attributeName="fill" to="#808080" begin="reset.mouseover" end="reset.mouseout"/></use>
  </g>
</defs>
<script type="application/ecmascript">
var viewWidth = 3126;
var viewHeight = 193;
var sectionId = 'dynsection-1';
</script>
<script type="application/ecmascript" xlink:href="svg.min.js"/>
<svg id="graph" class="graph">
<g id="viewport">
<title>GHSym.h</title>
<!-- Node1 -->
<g id="Node000001" class="node">
<title>Node1</title>
<g id="a_Node000001"><a xlink:title=" ">
<polygon fill="#999999" stroke="#666666" points="1039.12,-185 981.12,-185 981.12,-165.75 1039.12,-165.75 1039.12,-185"/>
<text text-anchor="middle" x="1010.12" y="-171.5" font-family="Helvetica,sans-Serif" font-size="10.00">GHSym.h</text>
</a>
</g>
</g>
<!-- Node2 -->
<g id="Node000002" class="node">
<title>Node2</title>
<g id="a_Node000002"><a xlink:href="_g_h_sym_8cxx.html" target="_top" xlink:title=" ">
<polygon fill="white" stroke="#666666" points="950.62,-129.75 883.62,-129.75 883.62,-110.5 950.62,-110.5 950.62,-129.75"/>
<text text-anchor="middle" x="917.12" y="-116.25" font-family="Helvetica,sans-Serif" font-size="10.00">GHSym.cxx</text>
</a>
</g>
</g>
<!-- Node1&#45;&gt;Node2 -->
<g id="edge1_Node000001_Node000002" class="edge">
<title>Node1&#45;&gt;Node2</title>
<g id="a_edge1_Node000001_Node000002"><a xlink:title=" ">
<path fill="none" stroke="#63b8ff" d="M984.74,-159.84C968.21,-150.38 947.17,-138.33 932.98,-130.2"/>
<polygon fill="#63b8ff" stroke="#63b8ff" points="982.62,-162.66 993.04,-164.59 986.1,-156.58 982.62,-162.66"/>
</a>
</g>
</g>
<!-- Node3 -->
<g id="Node000003" class="node">
<title>Node3</title>
<g id="a_Node000003"><a xlink:href="_t_g_r_s_i_helper_8h.html" target="_top" xlink:title=" ">
<polygon fill="white" stroke="#666666" points="1051.12,-129.75 969.12,-129.75 969.12,-110.5 1051.12,-110.5 1051.12,-129.75"/>
<text text-anchor="middle" x="1010.12" y="-116.25" font-family="Helvetica,sans-Serif" font-size="10.00">TGRSIHelper.h</text>
</a>
</g>
</g>
<!-- Node1&#45;&gt;Node3 -->
<g id="edge2_Node000001_Node000003" class="edge">
<title>Node1&#45;&gt;Node3</title>
<g id="a_edge2_Node000001_Node000003"><a xlink:title=" ">
<path fill="none" stroke="#63b8ff" d="M1010.12,-154.13C1010.12,-145.84 1010.12,-136.67 1010.12,-130.11"/>
<polygon fill="#63b8ff" stroke="#63b8ff" points="1006.63,-154.07 1010.13,-164.07 1013.63,-154.07 1006.63,-154.07"/>
</a>
</g>
</g>
<!-- Node30 -->
<g id="Node000030" class="node">
<title>Node30</title>
<g id="a_Node000030"><a xlink:href="_t_g_r_s_i_selector_8h.html" target="_top" xlink:title=" ">
<polygon fill="white" stroke="#666666" points="2443.88,-129.75 2354.38,-129.75 2354.38,-110.5 2443.88,-110.5 2443.88,-129.75"/>
<text text-anchor="middle" x="2399.12" y="-116.25" font-family="Helvetica,sans-Serif" font-size="10.00">TGRSISelector.h</text>
</a>
</g>
</g>
<!-- Node1&#45;&gt;Node30 -->
<g id="edge29_Node000001_Node000030" class="edge">
<title>Node1&#45;&gt;Node30</title>
<g id="a_edge29_Node000001_Node000030"><a xlink:title=" ">
<path fill="none" stroke="#63b8ff" d="M1050.95,-172.81C1252.81,-165.07 2142.86,-130.95 2354.06,-122.85"/>
<polygon fill="#63b8ff" stroke="#63b8ff" points="1050.83,-169.31 1040.97,-173.19 1051.1,-176.31 1050.83,-169.31"/>
</a>
</g>
</g>
<!-- Node4 -->
<g id="Node000004" class="node">
<title>Node4</title>
<g id="a_Node000004"><a xlink:href="_alphanumeric_helper_8hh.html" target="_top" xlink:title=" ">
<polygon fill="white" stroke="#666666" points="119.38,-74.5 2.88,-74.5 2.88,-55.25 119.38,-55.25 119.38,-74.5"/>
<text text-anchor="middle" x="61.12" y="-61" font-family="Helvetica,sans-Serif" font-size="10.00">AlphanumericHelper.hh</text>
</a>
</g>
</g>
<!-- Node3&#45;&gt;Node4 -->
<g id="edge3_Node000003_Node000004" class="edge">
<title>Node3&#45;&gt;Node4</title>
<g id="a_edge3_Node000003_Node000004"><a xlink:title=" ">
<path fill="none" stroke="#63b8ff" d="M957.5,-110.5C590.46,-72.35 493.94,-105.09 130.12,-74.5 126.76,-74.22 123.3,-73.89 119.81,-73.54"/>
<polygon fill="#63b8ff" stroke="#63b8ff" points="956.9,-113.96 967.21,-111.52 957.63,-106.99 956.9,-113.96"/>
</a>
</g>
</g>
<!-- Node6 -->
<g id="Node000006" class="node">
<title>Node6</title>
<g id="a_Node000006"><a xlink:href="_angular_correlation_helper_8hh.html" target="_top" xlink:title=" ">
<polygon fill="white" stroke="#666666" points="275.5,-74.5 138.75,-74.5 138.75,-55.25 275.5,-55.25 275.5,-74.5"/>
<text text-anchor="middle" x="207.12" y="-61" font-family="Helvetica,sans-Serif" font-size="10.00">AngularCorrelationHelper.hh</text>
</a>
</g>
</g>
<!-- Node3&#45;&gt;Node6 -->
<g id="edge5_Node000003_Node000006" class="edge">
<title>Node3&#45;&gt;Node6</title>
<g id="a_edge5_Node000003_Node000006"><a xlink:title=" ">
<path fill="none" stroke="#63b8ff" d="M957.52,-110.48C658.61,-77.92 579.88,-98.93 284.12,-74.5 281.44,-74.28 278.71,-74.04 275.95,-73.79"/>
<polygon fill="#63b8ff" stroke="#63b8ff" points="956.88,-113.93 967.2,-111.55 957.65,-106.97 956.88,-113.93"/>
</a>
</g>
</g>
<!-- Node8 -->
<g id="Node000008" class="node">
<title>Node8</title>
<g id="a_Node000008"><a xlink:href="_compton_polarimetry_helper_8hh.html" target="_top" xlink:title=" ">
<polygon fill="white" stroke="#666666" points="438.62,-74.5 293.62,-74.5 293.62,-55.25 438.62,-55.25 438.62,-74.5"/>
<text text-anchor="middle" x="366.12" y="-61" font-family="Helvetica,sans-Serif" font-size="10.00">ComptonPolarimetryHelper.hh</text>
</a>
</g>
</g>
<!-- Node3&#45;&gt;Node8 -->
<g id="edge7_Node000003_Node000008" class="edge">
<title>Node3&#45;&gt;Node8</title>
<g id="a_edge7_Node000003_Node000008"><a xlink:title=" ">
<path fill="none" stroke="#63b8ff" d="M957.43,-110.43C730.7,-83.8 670.7,-94.26 447.12,-74.5 444.45,-74.26 441.72,-74.01 438.97,-73.76"/>
<polygon fill="#63b8ff" stroke="#63b8ff" points="956.86,-113.89 967.2,-111.59 957.68,-106.94 956.86,-113.89"/>
</a>
</g>
</g>
<!-- Node9 -->
<g id="Node000009" class="node">
<title>Node9</title>
<g id="a_Node000009"><a xlink:href="_cross_talk_helper_8hh.html" target="_top" xlink:title=" ">
<polygon fill="white" stroke="#666666" points="557.88,-74.5 456.38,-74.5 456.38,-55.25 557.88,-55.25 557.88,-74.5"/>
<text text-anchor="middle" x="507.12" y="-61" font-family="Helvetica,sans-Serif" font-size="10.00">CrossTalkHelper.hh</text>
</a>
</g>
</g>
<!-- Node3&#45;&gt;Node9 -->
<g id="edge8_Node000003_Node000009" class="edge">
<title>Node3&#45;&gt;Node9</title>
<g id="a_edge8_Node000003_Node000009"><a xlink:title=" ">
<path fill="none" stroke="#63b8ff" d="M957.34,-110.38C783.7,-88.18 737.23,-94.52 567.12,-74.5 564.2,-74.16 561.19,-73.78 558.16,-73.39"/>
<polygon fill="#63b8ff" stroke="#63b8ff" points="956.82,-113.84 967.19,-111.65 957.72,-106.9 956.82,-113.84"/>
</a>
</g>
</g>
<!-- Node11 -->
<g id="Node000011" class="node">
<title>Node11</title>
<g id="a_Node000011"><a xlink:href="_directory_helper_8hh.html" target="_top" xlink:title=" ">
<polygon fill="white" stroke="#666666" points="671.88,-74.5 576.38,-74.5 576.38,-55.25 671.88,-55.25 671.88,-74.5"/>
<text text-anchor="middle" x="624.12" y="-61" font-family="Helvetica,sans-Serif" font-size="10.00">DirectoryHelper.hh</text>
</a>
</g>
</g>
<!-- Node3&#45;&gt;Node11 -->
<g id="edge10_Node000003_Node000011" class="edge">
<title>Node3&#45;&gt;Node11</title>
<g id="a_edge10_Node000003_Node000011"><a xlink:title=" ">
<path fill="none" stroke="#63b8ff" d="M957.63,-110.34C834.05,-92.08 801.01,-91.33 681.12,-74.5 678.25,-74.1 675.3,-73.67 672.32,-73.24"/>
<polygon fill="#63b8ff" stroke="#63b8ff" points="956.77,-113.75 967.18,-111.75 957.8,-106.82 956.77,-113.75"/>
</a>
</g>
</g>
<!-- Node13 -->
<g id="Node000013" class="node">
<title>Node13</title>
<g id="a_Node000013"><a xlink:href="_efficiency_helper_8hh.html" target="_top" xlink:title=" ">
<polygon fill="white" stroke="#666666" points="788,-74.5 690.25,-74.5 690.25,-55.25 788,-55.25 788,-74.5"/>
<text text-anchor="middle" x="739.12" y="-61" font-family="Helvetica,sans-Serif" font-size="10.00">EfficiencyHelper.hh</text>
</a>
</g>
</g>
<!-- Node3&#45;&gt;Node13 -->
<g id="edge12_Node000003_Node000013" class="edge">
<title>Node3&#45;&gt;Node13</title>
<g id="a_edge12_Node000003_Node000013"><a xlink:title=" ">
<path fill="none" stroke="#63b8ff" d="M957.44,-108.77C907.37,-98.93 832.84,-84.29 785.11,-74.91"/>
<polygon fill="#63b8ff" stroke="#63b8ff" points="956.7,-112.19 967.19,-110.69 958.05,-105.33 956.7,-112.19"/>
</a>
</g>
</g>
<!-- Node15 -->
<g id="Node000015" class="node">
<title>Node15</title>
<g id="a_Node000015"><a xlink:href="_example_event_helper_8hh.html" target="_top" xlink:title=" ">
<polygon fill="white" stroke="#666666" points="924.5,-74.5 805.75,-74.5 805.75,-55.25 924.5,-55.25 924.5,-74.5"/>
<text text-anchor="middle" x="865.12" y="-61" font-family="Helvetica,sans-Serif" font-size="10.00">ExampleEventHelper.hh</text>
</a>
</g>
</g>
<!-- Node3&#45;&gt;Node15 -->
<g id="edge14_Node000003_Node000015" class="edge">
<title>Node3&#45;&gt;Node15</title>
<g id="a_edge14_Node000003_Node000015"><a xlink:title=" ">
<path fill="none" stroke="#63b8ff" d="M974.86,-106.17C948.53,-96.5 913.21,-83.54 889.84,-74.95"/>
<polygon fill="#63b8ff" stroke="#63b8ff" points="973.51,-109.41 984.11,-109.57 975.93,-102.84 973.51,-109.41"/>
</a>
</g>
</g>
<!-- Node17 -->
<g id="Node000017" class="node">
<title>Node17</title>
<g id="a_Node000017"><a xlink:href="_example_fragment_helper_8hh.html" target="_top" xlink:title=" ">
<polygon fill="white" stroke="#666666" points="1077.75,-74.5 942.5,-74.5 942.5,-55.25 1077.75,-55.25 1077.75,-74.5"/>
<text text-anchor="middle" x="1010.12" y="-61" font-family="Helvetica,sans-Serif" font-size="10.00">ExampleFragmentHelper.hh</text>
</a>
</g>
</g>
<!-- Node3&#45;&gt;Node17 -->
<g id="edge16_Node000003_Node000017" class="edge">
<title>Node3&#45;&gt;Node17</title>
<g id="a_edge16_Node000003_Node000017"><a xlink:title=" ">
<path fill="none" stroke="#63b8ff" d="M1010.12,-98.88C1010.12,-90.59 1010.12,-81.42 1010.12,-74.86"/>
<polygon fill="#63b8ff" stroke="#63b8ff" points="1006.63,-98.82 1010.13,-108.82 1013.63,-98.82 1006.63,-98.82"/>
</a>
</g>
</g>
<!-- Node19 -->
<g id="Node000019" class="node">
<title>Node19</title>
<g id="a_Node000019"><a xlink:href="_example_tree_helper_8hh.html" target="_top" xlink:title=" ">
<polygon fill="white" stroke="#666666" points="1208.88,-74.5 1095.38,-74.5 1095.38,-55.25 1208.88,-55.25 1208.88,-74.5"/>
<text text-anchor="middle" x="1152.12" y="-61" font-family="Helvetica,sans-Serif" font-size="10.00">ExampleTreeHelper.hh</text>
</a>
</g>
</g>
<!-- Node3&#45;&gt;Node19 -->
<g id="edge18_Node000003_Node000019" class="edge">
<title>Node3&#45;&gt;Node19</title>
<g id="a_edge18_Node000003_Node000019"><a xlink:title=" ">
<path fill="none" stroke="#63b8ff" d="M1044.66,-106.17C1070.45,-96.5 1105.03,-83.54 1127.92,-74.95"/>
<polygon fill="#63b8ff" stroke="#63b8ff" points="1043.76,-102.77 1035.63,-109.56 1046.22,-109.33 1043.76,-102.77"/>
</a>
</g>
</g>
<!-- Node21 -->
<g id="Node000021" class="node">
<title>Node21</title>
<g id="a_Node000021"><a xlink:href="_griffin_k_value_helper_8hh.html" target="_top" xlink:title=" ">
<polygon fill="white" stroke="#666666" points="1340.88,-74.5 1227.38,-74.5 1227.38,-55.25 1340.88,-55.25 1340.88,-74.5"/>
<text text-anchor="middle" x="1284.12" y="-61" font-family="Helvetica,sans-Serif" font-size="10.00">GriffinKValueHelper.hh</text>
</a>
</g>
</g>
<!-- Node3&#45;&gt;Node21 -->
<g id="edge20_Node000003_Node000021" class="edge">
<title>Node3&#45;&gt;Node21</title>
<g id="a_edge20_Node000003_Node000021"><a xlink:title=" ">
<path fill="none" stroke="#63b8ff" d="M1062.45,-108.96C1113,-99.13 1188.85,-84.39 1237.42,-74.95"/>
<polygon fill="#63b8ff" stroke="#63b8ff" points="1062.08,-105.46 1052.93,-110.81 1063.41,-112.33 1062.08,-105.46"/>
</a>
</g>
</g>
<!-- Node23 -->
<g id="Node000023" class="node">
<title>Node23</title>
<g id="a_Node000023"><a xlink:href="_t_data_frame_library_8h.html" target="_top" xlink:title=" ">
<polygon fill="white" stroke="#666666" points="1465.5,-74.5 1358.75,-74.5 1358.75,-55.25 1465.5,-55.25 1465.5,-74.5"/>
<text text-anchor="middle" x="1412.12" y="-61" font-family="Helvetica,sans-Serif" font-size="10.00">TDataFrameLibrary.h</text>
</a>
</g>
</g>
<!-- Node3&#45;&gt;Node23 -->
<g id="edge22_Node000003_Node000023" class="edge">
<title>Node3&#45;&gt;Node23</title>
<g id="a_edge22_Node000003_Node000023"><a xlink:title=" ">
<path fill="none" stroke="#63b8ff" d="M1062.54,-112.37C1129.33,-103.74 1248.34,-88.26 1350.12,-74.5 1352.82,-74.14 1355.58,-73.76 1358.36,-73.38"/>
<polygon fill="#63b8ff" stroke="#63b8ff" points="1062.46,-108.85 1052.99,-113.61 1063.35,-115.8 1062.46,-108.85"/>
</a>
</g>
</g>
<!-- Node26 -->
<g id="Node000026" class="node">
<title>Node26</title>
<g id="a_Node000026"><a xlink:href="_t_g_r_s_i_helper_8cxx.html" target="_top" xlink:title=" ">
<polygon fill="white" stroke="#666666" points="1574.62,-74.5 1483.62,-74.5 1483.62,-55.25 1574.62,-55.25 1574.62,-74.5"/>
<text text-anchor="middle" x="1529.12" y="-61" font-family="Helvetica,sans-Serif" font-size="10.00">TGRSIHelper.cxx</text>
</a>
</g>
</g>
<!-- Node3&#45;&gt;Node26 -->
<g id="edge25_Node000003_Node000026" class="edge">
<title>Node3&#45;&gt;Node26</title>
<g id="a_edge25_Node000003_Node000026"><a xlink:title=" ">
<path fill="none" stroke="#63b8ff" d="M1062.8,-115.09C1148.97,-108.26 1325.4,-93.3 1474.12,-74.5 1477.1,-74.12 1480.16,-73.71 1483.24,-73.28"/>
<polygon fill="#63b8ff" stroke="#63b8ff" points="1062.7,-111.59 1053,-115.86 1063.25,-118.56 1062.7,-111.59"/>
</a>
</g>
</g>
<!-- Node27 -->
<g id="Node000027" class="node">
<title>Node27</title>
<g id="a_Node000027"><a xlink:href="_test_helper_8hh.html" target="_top" xlink:title=" ">
<polygon fill="white" stroke="#666666" points="1669.5,-74.5 1592.75,-74.5 1592.75,-55.25 1669.5,-55.25 1669.5,-74.5"/>
<text text-anchor="middle" x="1631.12" y="-61" font-family="Helvetica,sans-Serif" font-size="10.00">TestHelper.hh</text>
</a>
</g>
</g>
<!-- Node3&#45;&gt;Node27 -->
<g id="edge26_Node000003_Node000027" class="edge">
<title>Node3&#45;&gt;Node27</title>
<g id="a_edge26_Node000003_Node000027"><a xlink:title=" ">
<path fill="none" stroke="#63b8ff" d="M1063.04,-116.78C1164.33,-111.89 1392.49,-98.99 1583.12,-74.5 1586.15,-74.11 1589.27,-73.66 1592.4,-73.18"/>
<polygon fill="#63b8ff" stroke="#63b8ff" points="1062.95,-113.28 1053.13,-117.25 1063.28,-120.27 1062.95,-113.28"/>
</a>
</g>
</g>
<!-- Node28 -->
<g id="Node000028" class="node">
<title>Node28</title>
<g id="a_Node000028"><a xlink:href="_time_walk_helper_8hh.html" target="_top" xlink:title=" ">
<polygon fill="white" stroke="#666666" points="1788.5,-74.5 1687.75,-74.5 1687.75,-55.25 1788.5,-55.25 1788.5,-74.5"/>
<text text-anchor="middle" x="1738.12" y="-61" font-family="Helvetica,sans-Serif" font-size="10.00">TimeWalkHelper.hh</text>
</a>
</g>
</g>
<!-- Node3&#45;&gt;Node28 -->
<g id="edge27_Node000003_Node000028" class="edge">
<title>Node3&#45;&gt;Node28</title>
<g id="a_edge27_Node000003_Node000028"><a xlink:title=" ">
<path fill="none" stroke="#63b8ff" d="M1062.63,-116.98C1175.5,-112.06 1449.54,-98.53 1678.12,-74.5 1681.16,-74.18 1684.28,-73.82 1687.42,-73.44"/>
<polygon fill="#63b8ff" stroke="#63b8ff" points="1062.62,-113.47 1052.78,-117.4 1062.92,-120.47 1062.62,-113.47"/>
</a>
</g>
</g>
<!-- Node5 -->
<g id="Node000005" class="node">
<title>Node5</title>
<g id="a_Node000005"><a xlink:href="_alphanumeric_helper_8cxx.html" target="_top" xlink:title=" ">
<polygon fill="white" stroke="#666666" points="120.25,-19.25 0,-19.25 0,0 120.25,0 120.25,-19.25"/>
<text text-anchor="middle" x="60.12" y="-5.75" font-family="Helvetica,sans-Serif" font-size="10.00">AlphanumericHelper.cxx</text>
</a>
</g>
</g>
<!-- Node4&#45;&gt;Node5 -->
<g id="edge4_Node000004_Node000005" class="edge">
<title>Node4&#45;&gt;Node5</title>
<g id="a_edge4_Node000004_Node000005"><a xlink:title=" ">
<path fill="none" stroke="#63b8ff" d="M60.74,-43.63C60.59,-35.34 60.42,-26.17 60.29,-19.61"/>
<polygon fill="#63b8ff" stroke="#63b8ff" points="57.24,-43.64 60.93,-53.57 64.24,-43.5 57.24,-43.64"/>
</a>
</g>
</g>
<!-- Node7 -->
<g id="Node000007" class="node">
<title>Node7</title>
<g id="a_Node000007"><a xlink:href="_angular_correlation_helper_8cxx.html" target="_top" xlink:title=" ">
<polygon fill="white" stroke="#666666" points="278.38,-19.25 137.88,-19.25 137.88,0 278.38,0 278.38,-19.25"/>
<text text-anchor="middle" x="208.12" y="-5.75" font-family="Helvetica,sans-Serif" font-size="10.00">AngularCorrelationHelper.cxx</text>
</a>
</g>
</g>
<!-- Node6&#45;&gt;Node7 -->
<g id="edge6_Node000006_Node000007" class="edge">
<title>Node6&#45;&gt;Node7</title>
<g id="a_edge6_Node000006_Node000007"><a xlink:title=" ">
<path fill="none" stroke="#63b8ff" d="M207.51,-43.63C207.66,-35.34 207.83,-26.17 207.96,-19.61"/>
<polygon fill="#63b8ff" stroke="#63b8ff" points="204.01,-43.5 207.32,-53.57 211.01,-43.64 204.01,-43.5"/>
</a>
</g>
</g>
<!-- Node10 -->
<g id="Node000010" class="node">
<title>Node10</title>
<g id="a_Node000010"><a xlink:href="_cross_talk_helper_8cxx.html" target="_top" xlink:title=" ">
<polygon fill="white" stroke="#666666" points="545.75,-19.25 440.5,-19.25 440.5,0 545.75,0 545.75,-19.25"/>
<text text-anchor="middle" x="493.12" y="-5.75" font-family="Helvetica,sans-Serif" font-size="10.00">CrossTalkHelper.cxx</text>
</a>
</g>
</g>
<!-- Node9&#45;&gt;Node10 -->
<g id="edge9_Node000009_Node000010" class="edge">
<title>Node9&#45;&gt;Node10</title>
<g id="a_edge9_Node000009_Node000010"><a xlink:title=" ">
<path fill="none" stroke="#63b8ff" d="M501.95,-44.21C499.74,-35.77 497.25,-26.33 495.49,-19.61"/>
<polygon fill="#63b8ff" stroke="#63b8ff" points="498.5,-44.84 504.43,-53.62 505.27,-43.06 498.5,-44.84"/>
</a>
</g>
</g>
<!-- Node12 -->
<g id="Node000012" class="node">
<title>Node12</title>
<g id="a_Node000012"><a xlink:href="_directory_helper_8cxx.html" target="_top" xlink:title=" ">
<polygon fill="white" stroke="#666666" points="662.75,-19.25 563.5,-19.25 563.5,0 662.75,0 662.75,-19.25"/>
<text text-anchor="middle" x="613.12" y="-5.75" font-family="Helvetica,sans-Serif" font-size="10.00">DirectoryHelper.cxx</text>
</a>
</g>
</g>
<!-- Node11&#45;&gt;Node12 -->
<g id="edge11_Node000011_Node000012" class="edge">
<title>Node11&#45;&gt;Node12</title>
<g id="a_edge11_Node000011_Node000012"><a xlink:title=" ">
<path fill="none" stroke="#63b8ff" d="M620,-43.92C618.27,-35.55 616.35,-26.25 614.98,-19.61"/>
<polygon fill="#63b8ff" stroke="#63b8ff" points="616.55,-44.51 622,-53.6 623.41,-43.1 616.55,-44.51"/>
</a>
</g>
</g>
<!-- Node14 -->
<g id="Node000014" class="node">
<title>Node14</title>
<g id="a_Node000014"><a xlink:href="_efficiency_helper_8cxx.html" target="_top" xlink:title=" ">
<polygon fill="white" stroke="#666666" points="781.88,-19.25 680.38,-19.25 680.38,0 781.88,0 781.88,-19.25"/>
<text text-anchor="middle" x="731.12" y="-5.75" font-family="Helvetica,sans-Serif" font-size="10.00">EfficiencyHelper.cxx</text>
</a>
</g>
</g>
<!-- Node13&#45;&gt;Node14 -->
<g id="edge13_Node000013_Node000014" class="edge">
<title>Node13&#45;&gt;Node14</title>
<g id="a_edge13_Node000013_Node000014"><a xlink:title=" ">
<path fill="none" stroke="#63b8ff" d="M736.13,-43.92C734.87,-35.55 733.47,-26.25 732.47,-19.61"/>
<polygon fill="#63b8ff" stroke="#63b8ff" points="732.63,-44.22 737.58,-53.59 739.55,-43.18 732.63,-44.22"/>
</a>
</g>
</g>
<!-- Node16 -->
<g id="Node000016" class="node">
<title>Node16</title>
<g id="a_Node000016"><a xlink:href="_example_event_helper_8cxx.html" target="_top" xlink:title=" ">
<polygon fill="white" stroke="#666666" points="922.38,-19.25 799.88,-19.25 799.88,0 922.38,0 922.38,-19.25"/>
<text text-anchor="middle" x="861.12" y="-5.75" font-family="Helvetica,sans-Serif" font-size="10.00">ExampleEventHelper.cxx</text>
</a>
</g>
</g>
<!-- Node15&#45;&gt;Node16 -->
<g id="edge15_Node000015_Node000016" class="edge">
<title>Node15&#45;&gt;Node16</title>
<g id="a_edge15_Node000015_Node000016"><a xlink:title=" ">
<path fill="none" stroke="#63b8ff" d="M863.6,-43.63C862.98,-35.34 862.29,-26.17 861.8,-19.61"/>
<polygon fill="#63b8ff" stroke="#63b8ff" points="860.11,-43.86 864.35,-53.57 867.09,-43.34 860.11,-43.86"/>
</a>
</g>
</g>
<!-- Node18 -->
<g id="Node000018" class="node">
<title>Node18</title>
<g id="a_Node000018"><a xlink:href="_example_fragment_helper_8cxx.html" target="_top" xlink:title=" ">
<polygon fill="white" stroke="#666666" points="1079.62,-19.25 940.62,-19.25 940.62,0 1079.62,0 1079.62,-19.25"/>
<text text-anchor="middle" x="1010.12" y="-5.75" font-family="Helvetica,sans-Serif" font-size="10.00">ExampleFragmentHelper.cxx</text>
</a>
</g>
</g>
<!-- Node17&#45;&gt;Node18 -->
<g id="edge17_Node000017_Node000018" class="edge">
<title>Node17&#45;&gt;Node18</title>
<g id="a_edge17_Node000017_Node000018"><a xlink:title=" ">
<path fill="none" stroke="#63b8ff" d="M1010.12,-43.63C1010.12,-35.34 1010.12,-26.17 1010.12,-19.61"/>
<polygon fill="#63b8ff" stroke="#63b8ff" points="1006.63,-43.57 1010.13,-53.57 1013.63,-43.57 1006.63,-43.57"/>
</a>
</g>
</g>
<!-- Node20 -->
<g id="Node000020" class="node">
<title>Node20</title>
<g id="a_Node000020"><a xlink:href="_example_tree_helper_8cxx.html" target="_top" xlink:title=" ">
<polygon fill="white" stroke="#666666" points="1214.75,-19.25 1097.5,-19.25 1097.5,0 1214.75,0 1214.75,-19.25"/>
<text text-anchor="middle" x="1156.12" y="-5.75" font-family="Helvetica,sans-Serif" font-size="10.00">ExampleTreeHelper.cxx</text>
</a>
</g>
</g>
<!-- Node19&#45;&gt;Node20 -->
<g id="edge19_Node000019_Node000020" class="edge">
<title>Node19&#45;&gt;Node20</title>
<g id="a_edge19_Node000019_Node000020"><a xlink:title=" ">
<path fill="none" stroke="#63b8ff" d="M1153.65,-43.63C1154.27,-35.34 1154.96,-26.17 1155.45,-19.61"/>
<polygon fill="#63b8ff" stroke="#63b8ff" points="1150.16,-43.34 1152.9,-53.57 1157.14,-43.86 1150.16,-43.34"/>
</a>
</g>
</g>
<!-- Node22 -->
<g id="Node000022" class="node">
<title>Node22</title>
<g id="a_Node000022"><a xlink:href="_griffin_k_value_helper_8cxx.html" target="_top" xlink:title=" ">
<polygon fill="white" stroke="#666666" points="1349.75,-19.25 1232.5,-19.25 1232.5,0 1349.75,0 1349.75,-19.25"/>
<text text-anchor="middle" x="1291.12" y="-5.75" font-family="Helvetica,sans-Serif" font-size="10.00">GriffinKValueHelper.cxx</text>
</a>
</g>
</g>
<!-- Node21&#45;&gt;Node22 -->
<g id="edge21_Node000021_Node000022" class="edge">
<title>Node21&#45;&gt;Node22</title>
<g id="a_edge21_Node000021_Node000022"><a xlink:title=" ">
<path fill="none" stroke="#63b8ff" d="M1286.75,-43.92C1287.85,-35.55 1289.07,-26.25 1289.94,-19.61"/>
<polygon fill="#63b8ff" stroke="#63b8ff" points="1283.31,-43.21 1285.48,-53.58 1290.25,-44.12 1283.31,-43.21"/>
</a>
</g>
</g>
<!-- Node24 -->
<g id="Node000024" class="node">
<title>Node24</title>
<g id="a_Node000024"><a xlink:href="_t_data_frame_library_8cxx.html" target="_top" xlink:title=" ">
<polygon fill="white" stroke="#666666" points="1484,-19.25 1368.25,-19.25 1368.25,0 1484,0 1484,-19.25"/>
<text text-anchor="middle" x="1426.12" y="-5.75" font-family="Helvetica,sans-Serif" font-size="10.00">TDataFrameLibrary.cxx</text>
</a>
</g>
</g>
<!-- Node23&#45;&gt;Node24 -->
<g id="edge23_Node000023_Node000024" class="edge">
<title>Node23&#45;&gt;Node24</title>
<g id="a_edge23_Node000023_Node000024"><a xlink:title=" ">
<path fill="none" stroke="#63b8ff" d="M1417.3,-44.21C1419.51,-35.77 1422,-26.33 1423.76,-19.61"/>
<polygon fill="#63b8ff" stroke="#63b8ff" points="1413.98,-43.06 1414.82,-53.62 1420.75,-44.84 1413.98,-43.06"/>
</a>
</g>
</g>
<!-- Node25 -->
<g id="Node000025" class="node">
<title>Node25</title>
<g id="a_Node000025"><a xlink:href="_t_g_r_s_i_frame_8cxx.html" target="_top" xlink:title=" ">
<polygon fill="white" stroke="#666666" points="1592.25,-19.25 1502,-19.25 1502,0 1592.25,0 1592.25,-19.25"/>
<text text-anchor="middle" x="1547.12" y="-5.75" font-family="Helvetica,sans-Serif" font-size="10.00">TGRSIFrame.cxx</text>
</a>
</g>
</g>
<!-- Node23&#45;&gt;Node25 -->
<g id="edge24_Node000023_Node000025" class="edge">
<title>Node23&#45;&gt;Node25</title>
<g id="a_edge24_Node000023_Node000025"><a xlink:title=" ">
<path fill="none" stroke="#63b8ff" d="M1445.62,-50.66C1470.06,-41.02 1502.55,-28.21 1524.11,-19.7"/>
<polygon fill="#63b8ff" stroke="#63b8ff" points="1444.45,-47.36 1436.43,-54.29 1447.02,-53.87 1444.45,-47.36"/>
</a>
</g>
</g>
<!-- Node29 -->
<g id="Node000029" class="node">
<title>Node29</title>
<g id="a_Node000029"><a xlink:href="_time_walk_helper_8cxx.html" target="_top" xlink:title=" ">
<polygon fill="white" stroke="#666666" points="1789.38,-19.25 1684.88,-19.25 1684.88,0 1789.38,0 1789.38,-19.25"/>
<text text-anchor="middle" x="1737.12" y="-5.75" font-family="Helvetica,sans-Serif" font-size="10.00">TimeWalkHelper.cxx</text>
</a>
</g>
</g>
<!-- Node28&#45;&gt;Node29 -->
<g id="edge28_Node000028_Node000029" class="edge">
<title>Node28&#45;&gt;Node29</title>
<g id="a_edge28_Node000028_Node000029"><a xlink:title=" ">
<path fill="none" stroke="#63b8ff" d="M1737.74,-43.63C1737.59,-35.34 1737.42,-26.17 1737.29,-19.61"/>
<polygon fill="#63b8ff" stroke="#63b8ff" points="1734.24,-43.64 1737.93,-53.57 1741.24,-43.5 1734.24,-43.64"/>
</a>
</g>
</g>
<!-- Node31 -->
<g id="Node000031" class="node">
<title>Node31</title>
<g id="a_Node000031"><a xlink:href="_alphanumeric_selector_8h.html" target="_top" xlink:title=" ">
<polygon fill="white" stroke="#666666" points="1928.5,-74.5 1809.75,-74.5 1809.75,-55.25 1928.5,-55.25 1928.5,-74.5"/>
<text text-anchor="middle" x="1869.12" y="-61" font-family="Helvetica,sans-Serif" font-size="10.00">AlphanumericSelector.h</text>
</a>
</g>
</g>
<!-- Node30&#45;&gt;Node31 -->
<g id="edge30_Node000030_Node000031" class="edge">
<title>Node30&#45;&gt;Node31</title>
<g id="a_edge30_Node000030_Node000031"><a xlink:title=" ">
<path fill="none" stroke="#63b8ff" d="M2342.61,-114.12C2255.78,-106.32 2084.38,-90.49 1939.12,-74.5 1935.72,-74.12 1932.22,-73.73 1928.69,-73.32"/>
<polygon fill="#63b8ff" stroke="#63b8ff" points="2342.25,-117.6 2352.52,-115.01 2342.88,-110.63 2342.25,-117.6"/>
</a>
</g>
</g>
<!-- Node33 -->
<g id="Node000033" class="node">
<title>Node33</title>
<g id="a_Node000033"><a xlink:href="_angular_correlation_selector_8h.html" target="_top" xlink:title=" ">
<polygon fill="white" stroke="#666666" points="2087.62,-74.5 1948.62,-74.5 1948.62,-55.25 2087.62,-55.25 2087.62,-74.5"/>
<text text-anchor="middle" x="2018.12" y="-61" font-family="Helvetica,sans-Serif" font-size="10.00">AngularCorrelationSelector.h</text>
</a>
</g>
</g>
<!-- Node30&#45;&gt;Node33 -->
<g id="edge32_Node000030_Node000033" class="edge">
<title>Node30&#45;&gt;Node33</title>
<g id="a_edge32_Node000030_Node000033"><a xlink:title=" ">
<path fill="none" stroke="#63b8ff" d="M2342.83,-111.26C2273.62,-101.58 2156.38,-85.2 2083.32,-74.99"/>
<polygon fill="#63b8ff" stroke="#63b8ff" points="2342.04,-114.68 2352.42,-112.6 2343,-107.75 2342.04,-114.68"/>
</a>
</g>
</g>
<!-- Node35 -->
<g id="Node000035" class="node">
<title>Node35</title>
<g id="a_Node000035"><a xlink:href="_cross_talk_8h.html" target="_top" xlink:title=" ">
<polygon fill="white" stroke="#666666" points="2174,-74.5 2106.25,-74.5 2106.25,-55.25 2174,-55.25 2174,-74.5"/>
<text text-anchor="middle" x="2140.12" y="-61" font-family="Helvetica,sans-Serif" font-size="10.00">CrossTalk.h</text>
</a>
</g>
</g>
<!-- Node30&#45;&gt;Node35 -->
<g id="edge34_Node000030_Node000035" class="edge">
<title>Node30&#45;&gt;Node35</title>
<g id="a_edge34_Node000030_Node000035"><a xlink:title=" ">
<path fill="none" stroke="#63b8ff" d="M2343.66,-107.72C2292.25,-97.15 2217.4,-81.76 2174.25,-72.89"/>
<polygon fill="#63b8ff" stroke="#63b8ff" points="2342.91,-111.14 2353.41,-109.73 2344.32,-104.28 2342.91,-111.14"/>
</a>
</g>
</g>
<!-- Node37 -->
<g id="Node000037" class="node">
<title>Node37</title>
<g id="a_Node000037"><a xlink:href="_example_event_selector_8h.html" target="_top" xlink:title=" ">
<polygon fill="white" stroke="#666666" points="2312.62,-74.5 2191.62,-74.5 2191.62,-55.25 2312.62,-55.25 2312.62,-74.5"/>
<text text-anchor="middle" x="2252.12" y="-61" font-family="Helvetica,sans-Serif" font-size="10.00">ExampleEventSelector.h</text>
</a>
</g>
</g>
<!-- Node30&#45;&gt;Node37 -->
<g id="edge36_Node000030_Node000037" class="edge">
<title>Node30&#45;&gt;Node37</title>
<g id="a_edge36_Node000030_Node000037"><a xlink:title=" ">
<path fill="none" stroke="#63b8ff" d="M2363.37,-106.17C2336.68,-96.5 2300.88,-83.54 2277.18,-74.95"/>
<polygon fill="#63b8ff" stroke="#63b8ff" points="2362.17,-109.46 2372.77,-109.58 2364.56,-102.88 2362.17,-109.46"/>
</a>
</g>
</g>
<!-- Node39 -->
<g id="Node000039" class="node">
<title>Node39</title>
<g id="a_Node000039"><a xlink:href="_example_fragment_selector_8h.html" target="_top" xlink:title=" ">
<polygon fill="white" stroke="#666666" points="2467.88,-74.5 2330.38,-74.5 2330.38,-55.25 2467.88,-55.25 2467.88,-74.5"/>
<text text-anchor="middle" x="2399.12" y="-61" font-family="Helvetica,sans-Serif" font-size="10.00">ExampleFragmentSelector.h</text>
</a>
</g>
</g>
<!-- Node30&#45;&gt;Node39 -->
<g id="edge38_Node000030_Node000039" class="edge">
<title>Node30&#45;&gt;Node39</title>
<g id="a_edge38_Node000030_Node000039"><a xlink:title=" ">
<path fill="none" stroke="#63b8ff" d="M2399.12,-98.88C2399.12,-90.59 2399.12,-81.42 2399.12,-74.86"/>
<polygon fill="#63b8ff" stroke="#63b8ff" points="2395.63,-98.82 2399.13,-108.82 2402.63,-98.82 2395.63,-98.82"/>
</a>
</g>
</g>
<!-- Node41 -->
<g id="Node000041" class="node">
<title>Node41</title>
<g id="a_Node000041"><a xlink:href="_example_tree_selector_8h.html" target="_top" xlink:title=" ">
<polygon fill="white" stroke="#666666" points="2602,-74.5 2486.25,-74.5 2486.25,-55.25 2602,-55.25 2602,-74.5"/>
<text text-anchor="middle" x="2544.12" y="-61" font-family="Helvetica,sans-Serif" font-size="10.00">ExampleTreeSelector.h</text>
</a>
</g>
</g>
<!-- Node30&#45;&gt;Node41 -->
<g id="edge40_Node000030_Node000041" class="edge">
<title>Node30&#45;&gt;Node41</title>
<g id="a_edge40_Node000030_Node000041"><a xlink:title=" ">
<path fill="none" stroke="#63b8ff" d="M2434.39,-106.17C2460.72,-96.5 2496.04,-83.54 2519.41,-74.95"/>
<polygon fill="#63b8ff" stroke="#63b8ff" points="2433.32,-102.84 2425.14,-109.57 2435.74,-109.41 2433.32,-102.84"/>
</a>
</g>
</g>
<!-- Node43 -->
<g id="Node000043" class="node">
<title>Node43</title>
<g id="a_Node000043"><a xlink:href="_fast_timing_hist_selector_8h.html" target="_top" xlink:title=" ">
<polygon fill="white" stroke="#666666" points="2746.25,-74.5 2620,-74.5 2620,-55.25 2746.25,-55.25 2746.25,-74.5"/>
<text text-anchor="middle" x="2683.12" y="-61" font-family="Helvetica,sans-Serif" font-size="10.00">FastTimingHistSelector.h</text>
</a>
</g>
</g>
<!-- Node30&#45;&gt;Node43 -->
<g id="edge42_Node000030_Node000043" class="edge">
<title>Node30&#45;&gt;Node43</title>
<g id="a_edge42_Node000030_Node000043"><a xlink:title=" ">
<path fill="none" stroke="#63b8ff" d="M2455.22,-108.61C2507.54,-98.8 2584.78,-84.31 2634.53,-74.99"/>
<polygon fill="#63b8ff" stroke="#63b8ff" points="2454.8,-105.13 2445.61,-110.41 2456.09,-112.01 2454.8,-105.13"/>
</a>
</g>
</g>
<!-- Node45 -->
<g id="Node000045" class="node">
<title>Node45</title>
<g id="a_Node000045"><a xlink:href="_griffin_k_value_selector_8h.html" target="_top" xlink:title=" ">
<polygon fill="white" stroke="#666666" points="2880,-74.5 2764.25,-74.5 2764.25,-55.25 2880,-55.25 2880,-74.5"/>
<text text-anchor="middle" x="2822.12" y="-61" font-family="Helvetica,sans-Serif" font-size="10.00">GriffinKValueSelector.h</text>
</a>
</g>
</g>
<!-- Node30&#45;&gt;Node45 -->
<g id="edge44_Node000030_Node000045" class="edge">
<title>Node30&#45;&gt;Node45</title>
<g id="a_edge44_Node000030_Node000045"><a xlink:title=" ">
<path fill="none" stroke="#63b8ff" d="M2455.59,-112.11C2525.8,-103.36 2649.32,-87.94 2755.12,-74.5 2758.03,-74.13 2761.01,-73.75 2764.02,-73.37"/>
<polygon fill="#63b8ff" stroke="#63b8ff" points="2455.36,-108.61 2445.87,-113.32 2456.23,-115.55 2455.36,-108.61"/>
</a>
</g>
</g>
<!-- Node47 -->
<g id="Node000047" class="node">
<title>Node47</title>
<g id="a_Node000047"><a xlink:href="_t_g_r_s_i_selector_8cxx.html" target="_top" xlink:title=" ">
<polygon fill="white" stroke="#666666" points="2996.38,-74.5 2897.88,-74.5 2897.88,-55.25 2996.38,-55.25 2996.38,-74.5"/>
<text text-anchor="middle" x="2947.12" y="-61" font-family="Helvetica,sans-Serif" font-size="10.00">TGRSISelector.cxx</text>
</a>
</g>
</g>
<!-- Node30&#45;&gt;Node47 -->
<g id="edge46_Node000030_Node000047" class="edge">
<title>Node30&#45;&gt;Node47</title>
<g id="a_edge46_Node000030_Node000047"><a xlink:title=" ">
<path fill="none" stroke="#63b8ff" d="M2455.59,-115.03C2546.89,-108.18 2732.51,-93.26 2889.12,-74.5 2891.85,-74.17 2894.65,-73.82 2897.48,-73.45"/>
<polygon fill="#63b8ff" stroke="#63b8ff" points="2455.36,-111.54 2445.65,-115.77 2455.88,-118.52 2455.36,-111.54"/>
</a>
</g>
</g>
<!-- Node48 -->
<g id="Node000048" class="node">
<title>Node48</title>
<g id="a_Node000048"><a xlink:href="_time_walk_selector_8h.html" target="_top" xlink:title=" ">
<polygon fill="white" stroke="#666666" points="3117.62,-74.5 3014.62,-74.5 3014.62,-55.25 3117.62,-55.25 3117.62,-74.5"/>
<text text-anchor="middle" x="3066.12" y="-61" font-family="Helvetica,sans-Serif" font-size="10.00">TimeWalkSelector.h</text>
</a>
</g>
</g>
<!-- Node30&#45;&gt;Node48 -->
<g id="edge47_Node000030_Node000048" class="edge">
<title>Node30&#45;&gt;Node48</title>
<g id="a_edge47_Node000030_Node000048"><a xlink:title=" ">
<path fill="none" stroke="#63b8ff" d="M2455.56,-116.23C2562.83,-110.46 2803.43,-96.16 3005.12,-74.5 3008.1,-74.18 3011.16,-73.83 3014.24,-73.45"/>
<polygon fill="#63b8ff" stroke="#63b8ff" points="2455.38,-112.74 2445.58,-116.77 2455.76,-119.73 2455.38,-112.74"/>
</a>
</g>
</g>
<!-- Node32 -->
<g id="Node000032" class="node">
<title>Node32</title>
<g id="a_Node000032"><a xlink:href="_alphanumeric_selector_8_c.html" target="_top" xlink:title=" ">
<polygon fill="white" stroke="#666666" points="1927.25,-19.25 1807,-19.25 1807,0 1927.25,0 1927.25,-19.25"/>
<text text-anchor="middle" x="1867.12" y="-5.75" font-family="Helvetica,sans-Serif" font-size="10.00">AlphanumericSelector.C</text>
</a>
</g>
</g>
<!-- Node31&#45;&gt;Node32 -->
<g id="edge31_Node000031_Node000032" class="edge">
<title>Node31&#45;&gt;Node32</title>
<g id="a_edge31_Node000031_Node000032"><a xlink:title=" ">
<path fill="none" stroke="#63b8ff" d="M1868.36,-43.63C1868.05,-35.34 1867.71,-26.17 1867.46,-19.61"/>
<polygon fill="#63b8ff" stroke="#63b8ff" points="1864.86,-43.71 1868.74,-53.57 1871.86,-43.45 1864.86,-43.71"/>
</a>
</g>
</g>
<!-- Node34 -->
<g id="Node000034" class="node">
<title>Node34</title>
<g id="a_Node000034"><a xlink:href="_angular_correlation_selector_8_c.html" target="_top" xlink:title=" ">
<polygon fill="white" stroke="#666666" points="2085.38,-19.25 1944.88,-19.25 1944.88,0 2085.38,0 2085.38,-19.25"/>
<text text-anchor="middle" x="2015.12" y="-5.75" font-family="Helvetica,sans-Serif" font-size="10.00">AngularCorrelationSelector.C</text>
</a>
</g>
</g>
<!-- Node33&#45;&gt;Node34 -->
<g id="edge33_Node000033_Node000034" class="edge">
<title>Node33&#45;&gt;Node34</title>
<g id="a_edge33_Node000033_Node000034"><a xlink:title=" ">
<path fill="none" stroke="#63b8ff" d="M2016.98,-43.63C2016.52,-35.34 2016,-26.17 2015.63,-19.61"/>
<polygon fill="#63b8ff" stroke="#63b8ff" points="2013.49,-43.78 2017.54,-53.57 2020.48,-43.39 2013.49,-43.78"/>
</a>
</g>
</g>
<!-- Node36 -->
<g id="Node000036" class="node">
<title>Node36</title>
<g id="a_Node000036"><a xlink:href="_cross_talk_8_c.html" target="_top" xlink:title=" ">
<polygon fill="white" stroke="#666666" points="2172.75,-19.25 2103.5,-19.25 2103.5,0 2172.75,0 2172.75,-19.25"/>
<text text-anchor="middle" x="2138.12" y="-5.75" font-family="Helvetica,sans-Serif" font-size="10.00">CrossTalk.C</text>
</a>
</g>
</g>
<!-- Node35&#45;&gt;Node36 -->
<g id="edge35_Node000035_Node000036" class="edge">
<title>Node35&#45;&gt;Node36</title>
<g id="a_edge35_Node000035_Node000036"><a xlink:title=" ">
<path fill="none" stroke="#63b8ff" d="M2139.36,-43.63C2139.05,-35.34 2138.71,-26.17 2138.46,-19.61"/>
<polygon fill="#63b8ff" stroke="#63b8ff" points="2135.86,-43.71 2139.74,-53.57 2142.86,-43.45 2135.86,-43.71"/>
</a>
</g>
</g>
<!-- Node38 -->
<g id="Node000038" class="node">
<title>Node38</title>
<g id="a_Node000038"><a xlink:href="_example_event_selector_8_c.html" target="_top" xlink:title=" ">
<polygon fill="white" stroke="#666666" points="2313.38,-19.25 2190.88,-19.25 2190.88,0 2313.38,0 2313.38,-19.25"/>
<text text-anchor="middle" x="2252.12" y="-5.75" font-family="Helvetica,sans-Serif" font-size="10.00">ExampleEventSelector.C</text>
</a>
</g>
</g>
<!-- Node37&#45;&gt;Node38 -->
<g id="edge37_Node000037_Node000038" class="edge">
<title>Node37&#45;&gt;Node38</title>
<g id="a_edge37_Node000037_Node000038"><a xlink:title=" ">
<path fill="none" stroke="#63b8ff" d="M2252.12,-43.63C2252.12,-35.34 2252.12,-26.17 2252.12,-19.61"/>
<polygon fill="#63b8ff" stroke="#63b8ff" points="2248.63,-43.57 2252.13,-53.57 2255.63,-43.57 2248.63,-43.57"/>
</a>
</g>
</g>
<!-- Node40 -->
<g id="Node000040" class="node">
<title>Node40</title>
<g id="a_Node000040"><a xlink:href="_example_fragment_selector_8_c.html" target="_top" xlink:title=" ">
<polygon fill="white" stroke="#666666" points="2470.62,-19.25 2331.62,-19.25 2331.62,0 2470.62,0 2470.62,-19.25"/>
<text text-anchor="middle" x="2401.12" y="-5.75" font-family="Helvetica,sans-Serif" font-size="10.00">ExampleFragmentSelector.C</text>
</a>
</g>
</g>
<!-- Node39&#45;&gt;Node40 -->
<g id="edge39_Node000039_Node000040" class="edge">
<title>Node39&#45;&gt;Node40</title>
<g id="a_edge39_Node000039_Node000040"><a xlink:title=" ">
<path fill="none" stroke="#63b8ff" d="M2399.89,-43.63C2400.2,-35.34 2400.54,-26.17 2400.79,-19.61"/>
<polygon fill="#63b8ff" stroke="#63b8ff" points="2396.39,-43.45 2399.51,-53.57 2403.39,-43.71 2396.39,-43.45"/>
</a>
</g>
</g>
<!-- Node42 -->
<g id="Node000042" class="node">
<title>Node42</title>
<g id="a_Node000042"><a xlink:href="_example_tree_selector_8_c.html" target="_top" xlink:title=" ">
<polygon fill="white" stroke="#666666" points="2605.75,-19.25 2488.5,-19.25 2488.5,0 2605.75,0 2605.75,-19.25"/>
<text text-anchor="middle" x="2547.12" y="-5.75" font-family="Helvetica,sans-Serif" font-size="10.00">ExampleTreeSelector.C</text>
</a>
</g>
</g>
<!-- Node41&#45;&gt;Node42 -->
<g id="edge41_Node000041_Node000042" class="edge">
<title>Node41&#45;&gt;Node42</title>
<g id="a_edge41_Node000041_Node000042"><a xlink:title=" ">
<path fill="none" stroke="#63b8ff" d="M2545.27,-43.63C2545.73,-35.34 2546.25,-26.17 2546.62,-19.61"/>
<polygon fill="#63b8ff" stroke="#63b8ff" points="2541.77,-43.39 2544.71,-53.57 2548.76,-43.78 2541.77,-43.39"/>
</a>
</g>
</g>
<!-- Node44 -->
<g id="Node000044" class="node">
<title>Node44</title>
<g id="a_Node000044"><a xlink:href="_fast_timing_hist_selector_8_c.html" target="_top" xlink:title=" ">
<polygon fill="white" stroke="#666666" points="2752,-19.25 2624.25,-19.25 2624.25,0 2752,0 2752,-19.25"/>
<text text-anchor="middle" x="2688.12" y="-5.75" font-family="Helvetica,sans-Serif" font-size="10.00">FastTimingHistSelector.C</text>
</a>
</g>
</g>
<!-- Node43&#45;&gt;Node44 -->
<g id="edge43_Node000043_Node000044" class="edge">
<title>Node43&#45;&gt;Node44</title>
<g id="a_edge43_Node000043_Node000044"><a xlink:title=" ">
<path fill="none" stroke="#63b8ff" d="M2685.03,-43.63C2685.8,-35.34 2686.67,-26.17 2687.28,-19.61"/>
<polygon fill="#63b8ff" stroke="#63b8ff" points="2681.54,-43.29 2684.09,-53.57 2688.51,-43.95 2681.54,-43.29"/>
</a>
</g>
</g>
<!-- Node46 -->
<g id="Node000046" class="node">
<title>Node46</title>
<g id="a_Node000046"><a xlink:href="_griffin_k_value_selector_8_c.html" target="_top" xlink:title=" ">
<polygon fill="white" stroke="#666666" points="2887.75,-19.25 2770.5,-19.25 2770.5,0 2887.75,0 2887.75,-19.25"/>
<text text-anchor="middle" x="2829.12" y="-5.75" font-family="Helvetica,sans-Serif" font-size="10.00">GriffinKValueSelector.C</text>
</a>
</g>
</g>
<!-- Node45&#45;&gt;Node46 -->
<g id="edge45_Node000045_Node000046" class="edge">
<title>Node45&#45;&gt;Node46</title>
<g id="a_edge45_Node000045_Node000046"><a xlink:title=" ">
<path fill="none" stroke="#63b8ff" d="M2824.75,-43.92C2825.85,-35.55 2827.07,-26.25 2827.94,-19.61"/>
<polygon fill="#63b8ff" stroke="#63b8ff" points="2821.31,-43.21 2823.48,-53.58 2828.25,-44.12 2821.31,-43.21"/>
</a>
</g>
</g>
<!-- Node49 -->
<g id="Node000049" class="node">
<title>Node49</title>
<g id="a_Node000049"><a xlink:href="_time_walk_selector_8_c.html" target="_top" xlink:title=" ">
<polygon fill="white" stroke="#666666" points="3118.38,-19.25 3013.88,-19.25 3013.88,0 3118.38,0 3118.38,-19.25"/>
<text text-anchor="middle" x="3066.12" y="-5.75" font-family="Helvetica,sans-Serif" font-size="10.00">TimeWalkSelector.C</text>
</a>
</g>
</g>
<!-- Node48&#45;&gt;Node49 -->
<g id="edge48_Node000048_Node000049" class="edge">
<title>Node48&#45;&gt;Node49</title>
<g id="a_edge48_Node000048_Node000049"><a xlink:title=" ">
<path fill="none" stroke="#63b8ff" d="M3066.12,-43.63C3066.12,-35.34 3066.12,-26.17 3066.12,-19.61"/>
<polygon fill="#63b8ff" stroke="#63b8ff" points="3062.63,-43.57 3066.13,-53.57 3069.63,-43.57 3062.63,-43.57"/>
</a>
</g>
</g>
</g>
</svg>

<g id="navigator" transform="translate(0 0)" fill="#404254">
  <rect fill="#f2f5e9" fill-opacity="0.5" stroke="#606060" stroke-width=".5" x="0" y="0" width="60" height="60"/>
  <use id="zoomplus" xlink:href="#zoomPlus" x="17" y="9" onmousedown="handleZoom(evt,'in')"/>
  <use id="zoomminus" xlink:href="#zoomMin" x="42" y="9" onmousedown="handleZoom(evt,'out')"/>
  <use id="reset" xlink:href="#resetDef" x="30" y="36" onmousedown="handleReset()"/>
   <use id="arrowup" xlink:href="#arrowUp" x="0" y="0" onmousedown="handlePan(0,-1)"/>
  <use id="arrowright" xlink:href="#arrowRight" x="0" y="0" onmousedown="handlePan(1,0)"/>
  <use id="arrowdown" xlink:href="#arrowDown" x="0" y="0" onmousedown="handlePan(0,1)"/>
  <use id="arrowleft" xlink:href="#arrowLeft" x="0" y="0" onmousedown="handlePan(-1,0)"/>
</g>
<svg viewBox="0 0 15 15" width="100%" height="30px" preserveAspectRatio="xMaxYMin meet">
 <g id="arrow_out" transform="scale(0.3 0.3)">
  <a xlink:href="_g_h_sym_8h__dep__incl_org.svg" target="_base">
   <rect id="button" ry="5" rx="5" y="6" x="6" height="38" width="38"
        fill="#f2f5e9" fill-opacity="0.5" stroke="#606060" stroke-width="1.0"/>
   <path id="arrow"
     d="M 11.500037,31.436501 C 11.940474,20.09759 22.043105,11.32322 32.158766,21.979434 L 37.068811,17.246167 C 37.068811,17.246167 37.088388,32 37.088388,32 L 22.160133,31.978069 C 22.160133,31.978069 26.997745,27.140456 26.997745,27.140456 C 18.528582,18.264221 13.291696,25.230495 11.500037,31.436501 z"
     style="fill:#404040;"/>
  </a>
 </g>
</svg>

<style type='text/css'>
<![CDATA[
[data-mouse-over-selected='false'] { opacity: 0.7; }
[data-mouse-over-selected='true']  { opacity: 1.0; }
]]>
</style>
<script type="application/ecmascript"><![CDATA[
document.addEventListener('DOMContentLoaded', (event) => {
  highlightEdges();
  highlightAdjacentNodes();
});
]]></script>
</svg>
