<?xml version="1.0" encoding="UTF-8" standalone="no"?>
<!DOCTYPE svg PUBLIC "-//W3C//DTD SVG 1.1//EN"
 "http://www.w3.org/Graphics/SVG/1.1/DTD/svg11.dtd">
<!-- Generated by graphviz version 12.2.0 (20241103.1931)
 -->
<!-- Title: GH1D.h Pages: 1 -->
<!--zoomable 193 -->

<svg id="main" version="1.1" xmlns="http://www.w3.org/2000/svg" xmlns:xlink="http://www.w3.org/1999/xlink" xml:space="preserve" onload="init(evt)">

<style type="text/css"><![CDATA[
.node, .edge {opacity: 0.7;}
.node.selected, .edge.selected {opacity: 1;}
.edge:hover path { stroke: red; }
.edge:hover polygon { stroke: red; fill: red; }
]]></style>

<defs>
  <circle id="rim" cx="0" cy="0" r="7"/>
  <circle id="rim2" cx="0" cy="0" r="3.5"/>
  <g id="zoomPlus">
    <use xlink:href="#rim" fill="#404040"><set attributeName="fill" to="#808080" begin="zoomplus.mouseover" end="zoomplus.mouseout"/></use>
    <path d="M-4,0h8M0,-4v8" fill="none" stroke="white" stroke-width="1.5" pointer-events="none"/>
  </g>
  <g id="zoomMin">
    <use xlink:href="#rim" fill="#404040"><set attributeName="fill" to="#808080" begin="zoomminus.mouseover" end="zoomminus.mouseout"/></use>
    <path d="M-4,0h8" fill="none" stroke="white" stroke-width="1.5" pointer-events="none"/>
  </g>
  <g id="arrowUp" transform="translate(30 24)">
    <use xlink:href="#rim"/>
    <path pointer-events="none" fill="none" stroke="white" stroke-width="1.5" d="M0,-3.0v7 M-2.5,-0.5L0,-3.0L2.5,-0.5"/>
  </g>
  <g id="arrowRight" transform="rotate(90) translate(36 -43)">
    <use xlink:href="#rim"/>
    <path pointer-events="none" fill="none" stroke="white" stroke-width="1.5" d="M0,-3.0v7 M-2.5,-0.5L0,-3.0L2.5,-0.5"/>
  </g>
  <g id="arrowDown" transform="rotate(180) translate(-30 -48)">
    <use xlink:href="#rim"/>
    <path pointer-events="none" fill="none" stroke="white" stroke-width="1.5" d="M0,-3.0v7 M-2.5,-0.5L0,-3.0L2.5,-0.5"/>
  </g>
  <g id="arrowLeft" transform="rotate(270) translate(-36 17)">
    <use xlink:href="#rim"/>
    <path pointer-events="none" fill="none" stroke="white" stroke-width="1.5" d="M0,-3.0v7 M-2.5,-0.5L0,-3.0L2.5,-0.5"/>
  </g>
  <g id="resetDef">
    <use xlink:href="#rim2" fill="#404040"><set attributeName="fill" to="#808080" begin="reset.mouseover" end="reset.mouseout"/></use>
  </g>
</defs>
<script type="application/ecmascript">
var viewWidth = 1559;
var viewHeight = 193;
var sectionId = 'dynsection-0';
</script>
<script type="application/ecmascript" xlink:href="svg.min.js"/>
<svg id="graph" class="graph">
<g id="viewport">
<title>GH1D.h</title>
<!-- Node1 -->
<g id="Node000001" class="node">
<title>Node1</title>
<g id="a_Node000001"><a xlink:title=" ">
<polygon fill="#999999" stroke="#666666" points="275.38,-185 224.88,-185 224.88,-165.75 275.38,-165.75 275.38,-185"/>
<text text-anchor="middle" x="250.12" y="-171.5" font-family="Helvetica,sans-Serif" font-size="10.00">GH1D.h</text>
</a>
</g>
</g>
<!-- Node2 -->
<g id="Node000002" class="node">
<title>Node2</title>
<g id="a_Node000002"><a xlink:title=" ">
<polygon fill="#e0e0e0" stroke="#999999" points="42.25,-129.75 0,-129.75 0,-110.5 42.25,-110.5 42.25,-129.75"/>
<text text-anchor="middle" x="21.12" y="-116.25" font-family="Helvetica,sans-Serif" font-size="10.00">TH1.h</text>
</a>
</g>
</g>
<!-- Node1&#45;&gt;Node2 -->
<g id="edge1_Node000001_Node000002" class="edge">
<title>Node1&#45;&gt;Node2</title>
<g id="a_edge1_Node000001_Node000002"><a xlink:title=" ">
<path fill="none" stroke="#63b8ff" d="M224.56,-169.15C188.58,-161.69 120.7,-147.21 53.86,-130.34"/>
<polygon fill="#63b8ff" stroke="#63b8ff" points="54.73,-126.95 44.18,-127.87 53.01,-133.73 54.73,-126.95"/>
</a>
</g>
</g>
<!-- Node3 -->
<g id="Node000003" class="node">
<title>Node3</title>
<g id="a_Node000003"><a xlink:title=" ">
<polygon fill="#e0e0e0" stroke="#999999" points="104.38,-129.75 59.88,-129.75 59.88,-110.5 104.38,-110.5 104.38,-129.75"/>
<text text-anchor="middle" x="82.12" y="-116.25" font-family="Helvetica,sans-Serif" font-size="10.00">TRef.h</text>
</a>
</g>
</g>
<!-- Node1&#45;&gt;Node3 -->
<g id="edge2_Node000001_Node000003" class="edge">
<title>Node1&#45;&gt;Node3</title>
<g id="a_edge2_Node000001_Node000003"><a xlink:title=" ">
<path fill="none" stroke="#63b8ff" d="M224.61,-166.29C195.38,-157.02 147.39,-141.81 115.28,-131.63"/>
<polygon fill="#63b8ff" stroke="#63b8ff" points="116.68,-128.41 106.09,-128.72 114.56,-135.08 116.68,-128.41"/>
</a>
</g>
</g>
<!-- Node4 -->
<g id="Node000004" class="node">
<title>Node4</title>
<g id="a_Node000004"><a xlink:title=" ">
<polygon fill="#e0e0e0" stroke="#999999" points="169.5,-129.75 122.75,-129.75 122.75,-110.5 169.5,-110.5 169.5,-129.75"/>
<text text-anchor="middle" x="146.12" y="-116.25" font-family="Helvetica,sans-Serif" font-size="10.00">TPad.h</text>
</a>
</g>
</g>
<!-- Node1&#45;&gt;Node4 -->
<g id="edge3_Node000001_Node000004" class="edge">
<title>Node1&#45;&gt;Node4</title>
<g id="a_edge3_Node000001_Node000004"><a xlink:title=" ">
<path fill="none" stroke="#63b8ff" d="M232.48,-165.34C216.5,-157.16 192.67,-144.96 174.09,-135.44"/>
<polygon fill="#63b8ff" stroke="#63b8ff" points="175.7,-132.33 165.2,-130.89 172.51,-138.57 175.7,-132.33"/>
</a>
</g>
</g>
<!-- Node5 -->
<g id="Node000005" class="node">
<title>Node5</title>
<g id="a_Node000005"><a xlink:title=" ">
<polygon fill="#e0e0e0" stroke="#999999" points="252.5,-129.75 187.75,-129.75 187.75,-110.5 252.5,-110.5 252.5,-129.75"/>
<text text-anchor="middle" x="220.12" y="-116.25" font-family="Helvetica,sans-Serif" font-size="10.00">GuiTypes.h</text>
</a>
</g>
</g>
<!-- Node1&#45;&gt;Node5 -->
<g id="edge4_Node000001_Node000005" class="edge">
<title>Node1&#45;&gt;Node5</title>
<g id="a_edge4_Node000001_Node000005"><a xlink:title=" ">
<path fill="none" stroke="#63b8ff" d="M245.17,-165.58C241.24,-158.61 235.61,-148.62 230.69,-139.87"/>
<polygon fill="#63b8ff" stroke="#63b8ff" points="233.89,-138.42 225.93,-131.43 227.79,-141.86 233.89,-138.42"/>
</a>
</g>
</g>
<!-- Node6 -->
<g id="Node000006" class="node">
<title>Node6</title>
<g id="a_Node000006"><a xlink:title=" ">
<polygon fill="#e0e0e0" stroke="#999999" points="341.12,-19.25 295.12,-19.25 295.12,0 341.12,0 341.12,-19.25"/>
<text text-anchor="middle" x="318.12" y="-5.75" font-family="Helvetica,sans-Serif" font-size="10.00">TList.h</text>
</a>
</g>
</g>
<!-- Node1&#45;&gt;Node6 -->
<g id="edge5_Node000001_Node000006" class="edge">
<title>Node1&#45;&gt;Node6</title>
<g id="a_edge5_Node000001_Node000006"><a xlink:title=" ">
<path fill="none" stroke="#63b8ff" d="M253.78,-165.57C264.39,-140.03 295.36,-65.45 310.12,-29.9"/>
<polygon fill="#63b8ff" stroke="#63b8ff" points="313.27,-31.45 313.87,-20.87 306.8,-28.76 313.27,-31.45"/>
</a>
</g>
</g>
<!-- Node7 -->
<g id="Node000007" class="node">
<title>Node7</title>
<g id="a_Node000007"><a xlink:title=" ">
<polygon fill="#e0e0e0" stroke="#999999" points="557.12,-129.75 511.12,-129.75 511.12,-110.5 557.12,-110.5 557.12,-129.75"/>
<text text-anchor="middle" x="534.12" y="-116.25" font-family="Helvetica,sans-Serif" font-size="10.00">TBox.h</text>
</a>
</g>
</g>
<!-- Node1&#45;&gt;Node7 -->
<g id="edge6_Node000001_Node000007" class="edge">
<title>Node1&#45;&gt;Node7</title>
<g id="a_edge6_Node000001_Node000007"><a xlink:title=" ">
<path fill="none" stroke="#63b8ff" d="M275.81,-170.17C320.79,-162.72 416.69,-146.38 497.12,-129.75 497.95,-129.58 498.78,-129.41 499.62,-129.23"/>
<polygon fill="#63b8ff" stroke="#63b8ff" points="500.19,-132.69 509.2,-127.11 498.68,-125.85 500.19,-132.69"/>
</a>
</g>
</g>
<!-- Node8 -->
<g id="Node000008" class="node">
<title>Node8</title>
<g id="a_Node000008"><a xlink:href="_globals_8h.html" target="_top" xlink:title=" ">
<polygon fill="white" stroke="#666666" points="1031.38,-74.5 974.88,-74.5 974.88,-55.25 1031.38,-55.25 1031.38,-74.5"/>
<text text-anchor="middle" x="1003.12" y="-61" font-family="Helvetica,sans-Serif" font-size="10.00">Globals.h</text>
</a>
</g>
</g>
<!-- Node1&#45;&gt;Node8 -->
<g id="edge7_Node000001_Node000008" class="edge">
<title>Node1&#45;&gt;Node8</title>
<g id="a_edge7_Node000001_Node000008"><a xlink:title=" ">
<path fill="none" stroke="#63b8ff" d="M275.75,-171.25C316.5,-165.8 398.23,-152.86 464.12,-129.75 481.99,-123.49 483.92,-115.71 502.12,-110.5 588.63,-85.73 860.55,-71.92 963.29,-67.48"/>
<polygon fill="#63b8ff" stroke="#63b8ff" points="963.32,-70.98 973.16,-67.06 963.02,-63.99 963.32,-70.98"/>
</a>
</g>
</g>
<!-- Node24 -->
<g id="Node000024" class="node">
<title>Node24</title>
<g id="a_Node000024"><a xlink:href="_g_h2_i_8h.html" target="_top" xlink:title=" ">
<polygon fill="white" stroke="#666666" points="455.5,-129.75 408.75,-129.75 408.75,-110.5 455.5,-110.5 455.5,-129.75"/>
<text text-anchor="middle" x="432.12" y="-116.25" font-family="Helvetica,sans-Serif" font-size="10.00">GH2I.h</text>
</a>
</g>
</g>
<!-- Node1&#45;&gt;Node24 -->
<g id="edge23_Node000001_Node000024" class="edge">
<title>Node1&#45;&gt;Node24</title>
<g id="a_edge23_Node000001_Node000024"><a xlink:title=" ">
<path fill="none" stroke="#63b8ff" d="M275.82,-166.86C307.65,-157.55 362.01,-141.64 397.5,-131.26"/>
<polygon fill="#63b8ff" stroke="#63b8ff" points="398.24,-134.69 406.85,-128.52 396.27,-127.97 398.24,-134.69"/>
</a>
</g>
</g>
<!-- Node9 -->
<g id="Node000009" class="node">
<title>Node9</title>
<g id="a_Node000009"><a xlink:title=" ">
<polygon fill="#e0e0e0" stroke="#999999" points="1482.88,-19.25 1429.38,-19.25 1429.38,0 1482.88,0 1482.88,-19.25"/>
<text text-anchor="middle" x="1456.12" y="-5.75" font-family="Helvetica,sans-Serif" font-size="10.00">iostream</text>
</a>
</g>
</g>
<!-- Node8&#45;&gt;Node9 -->
<g id="edge8_Node000008_Node000009" class="edge">
<title>Node8&#45;&gt;Node9</title>
<g id="a_edge8_Node000008_Node000009"><a xlink:title=" ">
<path fill="none" stroke="#63b8ff" d="M1031.87,-62.08C1098.13,-57.66 1266.86,-44.87 1417.78,-19.43"/>
<polygon fill="#63b8ff" stroke="#63b8ff" points="1418.32,-22.89 1427.58,-17.76 1417.14,-15.99 1418.32,-22.89"/>
</a>
</g>
</g>
<!-- Node10 -->
<g id="Node000010" class="node">
<title>Node10</title>
<g id="a_Node000010"><a xlink:title=" ">
<polygon fill="#e0e0e0" stroke="#999999" points="1551,-19.25 1501.25,-19.25 1501.25,0 1551,0 1551,-19.25"/>
<text text-anchor="middle" x="1526.12" y="-5.75" font-family="Helvetica,sans-Serif" font-size="10.00">iomanip</text>
</a>
</g>
</g>
<!-- Node8&#45;&gt;Node10 -->
<g id="edge9_Node000008_Node000010" class="edge">
<title>Node8&#45;&gt;Node10</title>
<g id="a_edge9_Node000008_Node000010"><a xlink:title=" ">
<path fill="none" stroke="#63b8ff" d="M1031.72,-62.84C1105.81,-59.82 1310.21,-49.39 1489.73,-19.39"/>
<polygon fill="#63b8ff" stroke="#63b8ff" points="1490.2,-22.86 1499.48,-17.73 1489.03,-15.95 1490.2,-22.86"/>
</a>
</g>
</g>
<!-- Node11 -->
<g id="Node000011" class="node">
<title>Node11</title>
<g id="a_Node000011"><a xlink:title=" ">
<polygon fill="#e0e0e0" stroke="#999999" points="728.12,-19.25 670.12,-19.25 670.12,0 728.12,0 728.12,-19.25"/>
<text text-anchor="middle" x="699.12" y="-5.75" font-family="Helvetica,sans-Serif" font-size="10.00">stdexcept</text>
</a>
</g>
</g>
<!-- Node8&#45;&gt;Node11 -->
<g id="edge10_Node000008_Node000011" class="edge">
<title>Node8&#45;&gt;Node11</title>
<g id="a_edge10_Node000008_Node000011"><a xlink:title=" ">
<path fill="none" stroke="#63b8ff" d="M974.68,-59.65C927.82,-52.57 831.2,-37.48 739.68,-19.66"/>
<polygon fill="#63b8ff" stroke="#63b8ff" points="740.52,-16.26 730.03,-17.77 739.17,-23.13 740.52,-16.26"/>
</a>
</g>
</g>
<!-- Node12 -->
<g id="Node000012" class="node">
<title>Node12</title>
<g id="a_Node000012"><a xlink:title=" ">
<polygon fill="#e0e0e0" stroke="#999999" points="786.12,-19.25 746.12,-19.25 746.12,0 786.12,0 786.12,-19.25"/>
<text text-anchor="middle" x="766.12" y="-5.75" font-family="Helvetica,sans-Serif" font-size="10.00">string</text>
</a>
</g>
</g>
<!-- Node8&#45;&gt;Node12 -->
<g id="edge11_Node000008_Node000012" class="edge">
<title>Node8&#45;&gt;Node12</title>
<g id="a_edge11_Node000008_Node000012"><a xlink:title=" ">
<path fill="none" stroke="#63b8ff" d="M974.7,-58.5C936.54,-51.14 866.41,-37.05 797.41,-19.68"/>
<polygon fill="#63b8ff" stroke="#63b8ff" points="798.37,-16.31 787.82,-17.23 796.64,-23.09 798.37,-16.31"/>
</a>
</g>
</g>
<!-- Node13 -->
<g id="Node000013" class="node">
<title>Node13</title>
<g id="a_Node000013"><a xlink:title=" ">
<polygon fill="#e0e0e0" stroke="#999999" points="588.25,-19.25 546,-19.25 546,0 588.25,0 588.25,-19.25"/>
<text text-anchor="middle" x="567.12" y="-5.75" font-family="Helvetica,sans-Serif" font-size="10.00">cstdio</text>
</a>
</g>
</g>
<!-- Node8&#45;&gt;Node13 -->
<g id="edge12_Node000008_Node000013" class="edge">
<title>Node8&#45;&gt;Node13</title>
<g id="a_edge12_Node000008_Node000013"><a xlink:title=" ">
<path fill="none" stroke="#63b8ff" d="M974.82,-62.43C909.97,-58.76 745.6,-47.47 599.57,-19.43"/>
<polygon fill="#63b8ff" stroke="#63b8ff" points="600.62,-16.06 590.13,-17.58 599.28,-22.93 600.62,-16.06"/>
</a>
</g>
</g>
<!-- Node14 -->
<g id="Node000014" class="node">
<title>Node14</title>
<g id="a_Node000014"><a xlink:title=" ">
<polygon fill="#e0e0e0" stroke="#999999" points="651.75,-19.25 606.5,-19.25 606.5,0 651.75,0 651.75,-19.25"/>
<text text-anchor="middle" x="629.12" y="-5.75" font-family="Helvetica,sans-Serif" font-size="10.00">cstdint</text>
</a>
</g>
</g>
<!-- Node8&#45;&gt;Node14 -->
<g id="edge13_Node000008_Node000014" class="edge">
<title>Node8&#45;&gt;Node14</title>
<g id="a_edge13_Node000008_Node000014"><a xlink:title=" ">
<path fill="none" stroke="#63b8ff" d="M974.54,-61.45C917.28,-56.3 784.32,-42.98 663.06,-19.38"/>
<polygon fill="#63b8ff" stroke="#63b8ff" points="664.08,-16.01 653.6,-17.51 662.73,-22.88 664.08,-16.01"/>
</a>
</g>
</g>
<!-- Node15 -->
<g id="Node000015" class="node">
<title>Node15</title>
<g id="a_Node000015"><a xlink:title=" ">
<polygon fill="#e0e0e0" stroke="#999999" points="848.38,-19.25 803.88,-19.25 803.88,0 848.38,0 848.38,-19.25"/>
<text text-anchor="middle" x="826.12" y="-5.75" font-family="Helvetica,sans-Serif" font-size="10.00">cstdlib</text>
</a>
</g>
</g>
<!-- Node8&#45;&gt;Node15 -->
<g id="edge14_Node000008_Node000015" class="edge">
<title>Node8&#45;&gt;Node15</title>
<g id="a_edge14_Node000008_Node000015"><a xlink:title=" ">
<path fill="none" stroke="#63b8ff" d="M974.69,-55.32C943.39,-45.9 893.13,-30.78 859.86,-20.77"/>
<polygon fill="#63b8ff" stroke="#63b8ff" points="860.9,-17.43 850.31,-17.9 858.88,-24.14 860.9,-17.43"/>
</a>
</g>
</g>
<!-- Node16 -->
<g id="Node000016" class="node">
<title>Node16</title>
<g id="a_Node000016"><a xlink:title=" ">
<polygon fill="#e0e0e0" stroke="#999999" points="925.88,-19.25 866.38,-19.25 866.38,0 925.88,0 925.88,-19.25"/>
<text text-anchor="middle" x="896.12" y="-5.75" font-family="Helvetica,sans-Serif" font-size="10.00">execinfo.h</text>
</a>
</g>
</g>
<!-- Node8&#45;&gt;Node16 -->
<g id="edge15_Node000008_Node000016" class="edge">
<title>Node8&#45;&gt;Node16</title>
<g id="a_edge15_Node000008_Node000016"><a xlink:title=" ">
<path fill="none" stroke="#63b8ff" d="M984.97,-54.84C968.45,-46.62 943.78,-34.34 924.63,-24.81"/>
<polygon fill="#63b8ff" stroke="#63b8ff" points="926.23,-21.7 915.72,-20.38 923.11,-27.97 926.23,-21.7"/>
</a>
</g>
</g>
<!-- Node17 -->
<g id="Node000017" class="node">
<title>Node17</title>
<g id="a_Node000017"><a xlink:title=" ">
<polygon fill="#e0e0e0" stroke="#999999" points="994.38,-19.25 943.88,-19.25 943.88,0 994.38,0 994.38,-19.25"/>
<text text-anchor="middle" x="969.12" y="-5.75" font-family="Helvetica,sans-Serif" font-size="10.00">cxxabi.h</text>
</a>
</g>
</g>
<!-- Node8&#45;&gt;Node17 -->
<g id="edge16_Node000008_Node000017" class="edge">
<title>Node8&#45;&gt;Node17</title>
<g id="a_edge16_Node000008_Node000017"><a xlink:title=" ">
<path fill="none" stroke="#63b8ff" d="M997.51,-55.08C993.01,-48.03 986.54,-37.9 980.91,-29.08"/>
<polygon fill="#63b8ff" stroke="#63b8ff" points="984.01,-27.43 975.68,-20.88 978.11,-31.2 984.01,-27.43"/>
</a>
</g>
</g>
<!-- Node18 -->
<g id="Node000018" class="node">
<title>Node18</title>
<g id="a_Node000018"><a xlink:title=" ">
<polygon fill="#e0e0e0" stroke="#999999" points="1063.75,-19.25 1012.5,-19.25 1012.5,0 1063.75,0 1063.75,-19.25"/>
<text text-anchor="middle" x="1038.12" y="-5.75" font-family="Helvetica,sans-Serif" font-size="10.00">sstream</text>
</a>
</g>
</g>
<!-- Node8&#45;&gt;Node18 -->
<g id="edge17_Node000008_Node000018" class="edge">
<title>Node8&#45;&gt;Node18</title>
<g id="a_edge17_Node000008_Node000018"><a xlink:title=" ">
<path fill="none" stroke="#63b8ff" d="M1008.9,-55.08C1013.54,-48.03 1020.2,-37.9 1025.99,-29.08"/>
<polygon fill="#63b8ff" stroke="#63b8ff" points="1028.82,-31.15 1031.39,-20.87 1022.97,-27.31 1028.82,-31.15"/>
</a>
</g>
</g>
<!-- Node19 -->
<g id="Node000019" class="node">
<title>Node19</title>
<g id="a_Node000019"><a xlink:title=" ">
<polygon fill="#e0e0e0" stroke="#999999" points="1118.62,-19.25 1081.62,-19.25 1081.62,0 1118.62,0 1118.62,-19.25"/>
<text text-anchor="middle" x="1100.12" y="-5.75" font-family="Helvetica,sans-Serif" font-size="10.00">array</text>
</a>
</g>
</g>
<!-- Node8&#45;&gt;Node19 -->
<g id="edge18_Node000008_Node000019" class="edge">
<title>Node8&#45;&gt;Node19</title>
<g id="a_edge18_Node000008_Node000019"><a xlink:title=" ">
<path fill="none" stroke="#63b8ff" d="M1019.58,-54.84C1034.35,-46.73 1056.3,-34.68 1073.56,-25.21"/>
<polygon fill="#63b8ff" stroke="#63b8ff" points="1075.18,-28.31 1082.26,-20.43 1071.81,-22.18 1075.18,-28.31"/>
</a>
</g>
</g>
<!-- Node20 -->
<g id="Node000020" class="node">
<title>Node20</title>
<g id="a_Node000020"><a xlink:title=" ">
<polygon fill="#e0e0e0" stroke="#999999" points="1187.38,-19.25 1136.88,-19.25 1136.88,0 1187.38,0 1187.38,-19.25"/>
<text text-anchor="middle" x="1162.12" y="-5.75" font-family="Helvetica,sans-Serif" font-size="10.00">memory</text>
</a>
</g>
</g>
<!-- Node8&#45;&gt;Node20 -->
<g id="edge19_Node000008_Node000020" class="edge">
<title>Node8&#45;&gt;Node20</title>
<g id="a_edge19_Node000008_Node000020"><a xlink:title=" ">
<path fill="none" stroke="#63b8ff" d="M1030.1,-54.84C1056.49,-46 1096.88,-32.48 1126.03,-22.71"/>
<polygon fill="#63b8ff" stroke="#63b8ff" points="1126.79,-26.15 1135.17,-19.65 1124.57,-19.51 1126.79,-26.15"/>
</a>
</g>
</g>
<!-- Node21 -->
<g id="Node000021" class="node">
<title>Node21</title>
<g id="a_Node000021"><a xlink:title=" ">
<polygon fill="#e0e0e0" stroke="#999999" points="1255,-19.25 1205.25,-19.25 1205.25,0 1255,0 1255,-19.25"/>
<text text-anchor="middle" x="1230.12" y="-5.75" font-family="Helvetica,sans-Serif" font-size="10.00">unistd.h</text>
</a>
</g>
</g>
<!-- Node8&#45;&gt;Node21 -->
<g id="edge20_Node000008_Node000021" class="edge">
<title>Node8&#45;&gt;Node21</title>
<g id="a_edge20_Node000008_Node000021"><a xlink:title=" ">
<path fill="none" stroke="#63b8ff" d="M1031.62,-57.49C1067.25,-49.45 1130.4,-35.07 1193.88,-19.76"/>
<polygon fill="#63b8ff" stroke="#63b8ff" points="1194.52,-23.2 1203.42,-17.45 1192.87,-16.4 1194.52,-23.2"/>
</a>
</g>
</g>
<!-- Node22 -->
<g id="Node000022" class="node">
<title>Node22</title>
<g id="a_Node000022"><a xlink:title=" ">
<polygon fill="#e0e0e0" stroke="#999999" points="1332.88,-19.25 1273.38,-19.25 1273.38,0 1332.88,0 1332.88,-19.25"/>
<text text-anchor="middle" x="1303.12" y="-5.75" font-family="Helvetica,sans-Serif" font-size="10.00">sys/wait.h</text>
</a>
</g>
</g>
<!-- Node8&#45;&gt;Node22 -->
<g id="edge21_Node000008_Node000022" class="edge">
<title>Node8&#45;&gt;Node22</title>
<g id="a_edge21_Node000008_Node000022"><a xlink:title=" ">
<path fill="none" stroke="#63b8ff" d="M1031.79,-59.44C1077.99,-52.19 1172.06,-37.02 1261.73,-19.64"/>
<polygon fill="#63b8ff" stroke="#63b8ff" points="1262.29,-23.1 1271.44,-17.75 1260.95,-16.23 1262.29,-23.1"/>
</a>
</g>
</g>
<!-- Node23 -->
<g id="Node000023" class="node">
<title>Node23</title>
<g id="a_Node000023"><a xlink:title=" ">
<polygon fill="#e0e0e0" stroke="#999999" points="1411.25,-19.25 1351,-19.25 1351,0 1411.25,0 1411.25,-19.25"/>
<text text-anchor="middle" x="1381.12" y="-5.75" font-family="Helvetica,sans-Serif" font-size="10.00">sys/prctl.h</text>
</a>
</g>
</g>
<!-- Node8&#45;&gt;Node23 -->
<g id="edge22_Node000008_Node000023" class="edge">
<title>Node8&#45;&gt;Node23</title>
<g id="a_edge22_Node000008_Node000023"><a xlink:title=" ">
<path fill="none" stroke="#63b8ff" d="M1031.83,-60.95C1088.63,-54.97 1219.58,-40.3 1339.34,-19.61"/>
<polygon fill="#63b8ff" stroke="#63b8ff" points="1339.78,-23.09 1349.03,-17.92 1338.57,-16.19 1339.78,-23.09"/>
</a>
</g>
</g>
<!-- Node24&#45;&gt;Node6 -->
<g id="edge27_Node000024_Node000006" class="edge">
<title>Node24&#45;&gt;Node6</title>
<g id="a_edge27_Node000024_Node000006"><a xlink:title=" ">
<path fill="none" stroke="#63b8ff" d="M408.45,-113.88C386.88,-107.91 355.66,-96.05 337.12,-74.5 326.61,-62.28 321.91,-44.44 319.82,-30.71"/>
<polygon fill="#63b8ff" stroke="#63b8ff" points="323.32,-30.59 318.7,-21.05 316.37,-31.39 323.32,-30.59"/>
</a>
</g>
</g>
<!-- Node24&#45;&gt;Node13 -->
<g id="edge24_Node000024_Node000013" class="edge">
<title>Node24&#45;&gt;Node13</title>
<g id="a_edge24_Node000024_Node000013"><a xlink:title=" ">
<path fill="none" stroke="#63b8ff" d="M455.94,-113.02C486.8,-104.65 538.19,-88.99 551.12,-74.5 561.73,-62.62 565.53,-44.74 566.79,-30.92"/>
<polygon fill="#63b8ff" stroke="#63b8ff" points="570.28,-31.33 567.28,-21.17 563.29,-30.98 570.28,-31.33"/>
</a>
</g>
</g>
<!-- Node25 -->
<g id="Node000025" class="node">
<title>Node25</title>
<g id="a_Node000025"><a xlink:title=" ">
<polygon fill="#e0e0e0" stroke="#999999" points="527.62,-19.25 466.62,-19.25 466.62,0 527.62,0 527.62,-19.25"/>
<text text-anchor="middle" x="497.12" y="-5.75" font-family="Helvetica,sans-Serif" font-size="10.00">TNamed.h</text>
</a>
</g>
</g>
<!-- Node24&#45;&gt;Node25 -->
<g id="edge25_Node000024_Node000025" class="edge">
<title>Node24&#45;&gt;Node25</title>
<g id="a_edge25_Node000024_Node000025"><a xlink:title=" ">
<path fill="none" stroke="#63b8ff" d="M455.63,-112.24C483.1,-103.66 525.98,-88.43 535.12,-74.5 545.51,-58.69 531.54,-40.04 517.71,-26.99"/>
<polygon fill="#63b8ff" stroke="#63b8ff" points="520.3,-24.61 510.47,-20.66 515.69,-29.88 520.3,-24.61"/>
</a>
</g>
</g>
<!-- Node26 -->
<g id="Node000026" class="node">
<title>Node26</title>
<g id="a_Node000026"><a xlink:title=" ">
<polygon fill="#e0e0e0" stroke="#999999" points="448.25,-19.25 406,-19.25 406,0 448.25,0 448.25,-19.25"/>
<text text-anchor="middle" x="427.12" y="-5.75" font-family="Helvetica,sans-Serif" font-size="10.00">TH2.h</text>
</a>
</g>
</g>
<!-- Node24&#45;&gt;Node26 -->
<g id="edge26_Node000024_Node000026" class="edge">
<title>Node24&#45;&gt;Node26</title>
<g id="a_edge26_Node000024_Node000026"><a xlink:title=" ">
<path fill="none" stroke="#63b8ff" d="M431.72,-110.25C430.92,-93 429.15,-54.58 428.06,-30.81"/>
<polygon fill="#63b8ff" stroke="#63b8ff" points="431.57,-30.97 427.61,-21.14 424.57,-31.29 431.57,-30.97"/>
</a>
</g>
</g>
<!-- Node27 -->
<g id="Node000027" class="node">
<title>Node27</title>
<g id="a_Node000027"><a xlink:title=" ">
<polygon fill="#e0e0e0" stroke="#999999" points="694.38,-74.5 619.88,-74.5 619.88,-55.25 694.38,-55.25 694.38,-74.5"/>
<text text-anchor="middle" x="657.12" y="-61" font-family="Helvetica,sans-Serif" font-size="10.00">TVirtualPad.h</text>
</a>
</g>
</g>
<!-- Node24&#45;&gt;Node27 -->
<g id="edge28_Node000024_Node000027" class="edge">
<title>Node24&#45;&gt;Node27</title>
<g id="a_edge28_Node000024_Node000027"><a xlink:title=" ">
<path fill="none" stroke="#63b8ff" d="M455.78,-113.53C491.84,-104.99 561.35,-88.54 608.49,-77.38"/>
<polygon fill="#63b8ff" stroke="#63b8ff" points="609.27,-80.8 618.19,-75.09 607.65,-73.99 609.27,-80.8"/>
</a>
</g>
</g>
<!-- Node28 -->
<g id="Node000028" class="node">
<title>Node28</title>
<g id="a_Node000028"><a xlink:title=" ">
<polygon fill="#e0e0e0" stroke="#999999" points="403.75,-74.5 346.5,-74.5 346.5,-55.25 403.75,-55.25 403.75,-74.5"/>
<text text-anchor="middle" x="375.12" y="-61" font-family="Helvetica,sans-Serif" font-size="10.00">TFrame.h</text>
</a>
</g>
</g>
<!-- Node24&#45;&gt;Node28 -->
<g id="edge29_Node000024_Node000028" class="edge">
<title>Node24&#45;&gt;Node28</title>
<g id="a_edge29_Node000024_Node000028"><a xlink:title=" ">
<path fill="none" stroke="#63b8ff" d="M422.46,-110.09C414.38,-102.55 402.66,-91.6 392.9,-82.48"/>
<polygon fill="#63b8ff" stroke="#63b8ff" points="395.45,-80.08 385.76,-75.81 390.68,-85.19 395.45,-80.08"/>
</a>
</g>
</g>
<!-- Node29 -->
<g id="Node000029" class="node">
<title>Node29</title>
<g id="a_Node000029"><a xlink:href="_g_h2_base_8h.html" target="_top" xlink:title=" ">
<polygon fill="white" stroke="#666666" points="526.25,-74.5 460,-74.5 460,-55.25 526.25,-55.25 526.25,-74.5"/>
<text text-anchor="middle" x="493.12" y="-61" font-family="Helvetica,sans-Serif" font-size="10.00">GH2Base.h</text>
</a>
</g>
</g>
<!-- Node24&#45;&gt;Node29 -->
<g id="edge30_Node000024_Node000029" class="edge">
<title>Node24&#45;&gt;Node29</title>
<g id="a_edge30_Node000024_Node000029"><a xlink:title=" ">
<path fill="none" stroke="#63b8ff" d="M442.47,-110.09C451.2,-102.47 463.91,-91.37 474.42,-82.2"/>
<polygon fill="#63b8ff" stroke="#63b8ff" points="476.56,-84.98 481.79,-75.77 471.95,-79.71 476.56,-84.98"/>
</a>
</g>
</g>
<!-- Node29&#45;&gt;Node6 -->
<g id="edge35_Node000029_Node000006" class="edge">
<title>Node29&#45;&gt;Node6</title>
<g id="a_edge35_Node000029_Node000006"><a xlink:title=" ">
<path fill="none" stroke="#63b8ff" d="M463.44,-54.84C432.65,-45.47 384.56,-30.84 352.23,-21"/>
<polygon fill="#63b8ff" stroke="#63b8ff" points="353.54,-17.74 342.95,-18.18 351.5,-24.44 353.54,-17.74"/>
</a>
</g>
</g>
<!-- Node29&#45;&gt;Node13 -->
<g id="edge31_Node000029_Node000013" class="edge">
<title>Node29&#45;&gt;Node13</title>
<g id="a_edge31_Node000029_Node000013"><a xlink:title=" ">
<path fill="none" stroke="#63b8ff" d="M505.68,-54.84C516.59,-46.99 532.63,-35.45 545.59,-26.12"/>
<polygon fill="#63b8ff" stroke="#63b8ff" points="547.46,-29.09 553.53,-20.41 543.37,-23.41 547.46,-29.09"/>
</a>
</g>
</g>
<!-- Node29&#45;&gt;Node14 -->
<g id="edge32_Node000029_Node000014" class="edge">
<title>Node29&#45;&gt;Node14</title>
<g id="a_edge32_Node000029_Node000014"><a xlink:title=" ">
<path fill="none" stroke="#63b8ff" d="M516.2,-54.84C538.01,-46.3 571,-33.38 595.7,-23.71"/>
<polygon fill="#63b8ff" stroke="#63b8ff" points="596.95,-26.98 604.99,-20.08 594.4,-20.46 596.95,-26.98"/>
</a>
</g>
</g>
<!-- Node29&#45;&gt;Node25 -->
<g id="edge33_Node000029_Node000025" class="edge">
<title>Node29&#45;&gt;Node25</title>
<g id="a_edge33_Node000029_Node000025"><a xlink:title=" ">
<path fill="none" stroke="#63b8ff" d="M493.79,-55.08C494.28,-48.49 494.98,-39.21 495.61,-30.82"/>
<polygon fill="#63b8ff" stroke="#63b8ff" points="499.08,-31.35 496.34,-21.12 492.1,-30.83 499.08,-31.35"/>
</a>
</g>
</g>
<!-- Node29&#45;&gt;Node26 -->
<g id="edge34_Node000029_Node000026" class="edge">
<title>Node29&#45;&gt;Node26</title>
<g id="a_edge34_Node000029_Node000026"><a xlink:title=" ">
<path fill="none" stroke="#63b8ff" d="M481.93,-54.84C472.39,-47.15 458.45,-35.9 447.02,-26.68"/>
<polygon fill="#63b8ff" stroke="#63b8ff" points="449.31,-24.03 439.33,-20.48 444.92,-29.48 449.31,-24.03"/>
</a>
</g>
</g>
</g>
</svg>

<g id="navigator" transform="translate(0 0)" fill="#404254">
  <rect fill="#f2f5e9" fill-opacity="0.5" stroke="#606060" stroke-width=".5" x="0" y="0" width="60" height="60"/>
  <use id="zoomplus" xlink:href="#zoomPlus" x="17" y="9" onmousedown="handleZoom(evt,'in')"/>
  <use id="zoomminus" xlink:href="#zoomMin" x="42" y="9" onmousedown="handleZoom(evt,'out')"/>
  <use id="reset" xlink:href="#resetDef" x="30" y="36" onmousedown="handleReset()"/>
   <use id="arrowup" xlink:href="#arrowUp" x="0" y="0" onmousedown="handlePan(0,-1)"/>
  <use id="arrowright" xlink:href="#arrowRight" x="0" y="0" onmousedown="handlePan(1,0)"/>
  <use id="arrowdown" xlink:href="#arrowDown" x="0" y="0" onmousedown="handlePan(0,1)"/>
  <use id="arrowleft" xlink:href="#arrowLeft" x="0" y="0" onmousedown="handlePan(-1,0)"/>
</g>
<svg viewBox="0 0 15 15" width="100%" height="30px" preserveAspectRatio="xMaxYMin meet">
 <g id="arrow_out" transform="scale(0.3 0.3)">
  <a xlink:href="_g_h1_d_8h__incl_org.svg" target="_base">
   <rect id="button" ry="5" rx="5" y="6" x="6" height="38" width="38"
        fill="#f2f5e9" fill-opacity="0.5" stroke="#606060" stroke-width="1.0"/>
   <path id="arrow"
     d="M 11.500037,31.436501 C 11.940474,20.09759 22.043105,11.32322 32.158766,21.979434 L 37.068811,17.246167 C 37.068811,17.246167 37.088388,32 37.088388,32 L 22.160133,31.978069 C 22.160133,31.978069 26.997745,27.140456 26.997745,27.140456 C 18.528582,18.264221 13.291696,25.230495 11.500037,31.436501 z"
     style="fill:#404040;"/>
  </a>
 </g>
</svg>

<style type='text/css'>
<![CDATA[
[data-mouse-over-selected='false'] { opacity: 0.7; }
[data-mouse-over-selected='true']  { opacity: 1.0; }
]]>
</style>
<script type="application/ecmascript"><![CDATA[
document.addEventListener('DOMContentLoaded', (event) => {
  highlightEdges();
  highlightAdjacentNodes();
});
]]></script>
</svg>
