<?xml version="1.0" encoding="UTF-8" standalone="no"?>
<!DOCTYPE svg PUBLIC "-//W3C//DTD SVG 1.1//EN"
 "http://www.w3.org/Graphics/SVG/1.1/DTD/svg11.dtd">
<!-- Generated by graphviz version 12.2.0 (20241103.1931)
 -->
<!-- Title: GH2I.cxx Pages: 1 -->
<svg width="1382pt" height="248pt"
 viewBox="0.00 0.00 1381.75 248.25" xmlns="http://www.w3.org/2000/svg" xmlns:xlink="http://www.w3.org/1999/xlink">
<g id="graph0" class="graph" transform="scale(1 1) rotate(0) translate(4 244.25)">
<title>GH2I.cxx</title>
<!-- Node1 -->
<g id="Node000001" class="node">
<title>Node1</title>
<g id="a_Node000001"><a xlink:title=" ">
<polygon fill="#999999" stroke="#666666" points="680.88,-240.25 625.12,-240.25 625.12,-221 680.88,-221 680.88,-240.25"/>
<text text-anchor="middle" x="653" y="-226.75" font-family="Helvetica,sans-Serif" font-size="10.00">GH2I.cxx</text>
</a>
</g>
</g>
<!-- Node2 -->
<g id="Node000002" class="node">
<title>Node2</title>
<g id="a_Node000002"><a xlink:href="_g_h2_i_8h.html" target="_top" xlink:title=" ">
<polygon fill="white" stroke="#666666" points="351.38,-129.75 304.62,-129.75 304.62,-110.5 351.38,-110.5 351.38,-129.75"/>
<text text-anchor="middle" x="328" y="-116.25" font-family="Helvetica,sans-Serif" font-size="10.00">GH2I.h</text>
</a>
</g>
</g>
<!-- Node1&#45;&gt;Node2 -->
<g id="edge1_Node000001_Node000002" class="edge">
<title>Node1&#45;&gt;Node2</title>
<g id="a_edge1_Node000001_Node000002"><a xlink:title=" ">
<path fill="none" stroke="#63b8ff" d="M625.85,-220.56C566.99,-200.91 427.7,-154.41 362.62,-132.68"/>
<polygon fill="#63b8ff" stroke="#63b8ff" points="363.77,-129.38 353.17,-129.53 361.55,-136.02 363.77,-129.38"/>
</a>
</g>
</g>
<!-- Node11 -->
<g id="Node000011" class="node">
<title>Node11</title>
<g id="a_Node000011"><a xlink:title=" ">
<polygon fill="#e0e0e0" stroke="#999999" points="1373.75,-74.5 1320.25,-74.5 1320.25,-55.25 1373.75,-55.25 1373.75,-74.5"/>
<text text-anchor="middle" x="1347" y="-61" font-family="Helvetica,sans-Serif" font-size="10.00">iostream</text>
</a>
</g>
</g>
<!-- Node1&#45;&gt;Node11 -->
<g id="edge14_Node000001_Node000011" class="edge">
<title>Node1&#45;&gt;Node11</title>
<g id="a_edge14_Node000001_Node000011"><a xlink:title=" ">
<path fill="none" stroke="#63b8ff" d="M681.23,-223.01C771.06,-201.95 1058.62,-134.46 1308.75,-75.03"/>
<polygon fill="#63b8ff" stroke="#63b8ff" points="1309.48,-78.45 1318.4,-72.73 1307.86,-71.64 1309.48,-78.45"/>
</a>
</g>
</g>
<!-- Node12 -->
<g id="Node000012" class="node">
<title>Node12</title>
<g id="a_Node000012"><a xlink:title=" ">
<polygon fill="#e0e0e0" stroke="#999999" points="1020.88,-185 953.12,-185 953.12,-165.75 1020.88,-165.75 1020.88,-185"/>
<text text-anchor="middle" x="987" y="-171.5" font-family="Helvetica,sans-Serif" font-size="10.00">TDirectory.h</text>
</a>
</g>
</g>
<!-- Node1&#45;&gt;Node12 -->
<g id="edge15_Node000001_Node000012" class="edge">
<title>Node1&#45;&gt;Node12</title>
<g id="a_edge15_Node000001_Node000012"><a xlink:title=" ">
<path fill="none" stroke="#63b8ff" d="M681.05,-225.47C732.32,-217.82 844.59,-200.85 939,-185 939.83,-184.86 940.67,-184.72 941.51,-184.58"/>
<polygon fill="#63b8ff" stroke="#63b8ff" points="941.92,-188.06 951.18,-182.9 940.73,-181.16 941.92,-188.06"/>
</a>
</g>
</g>
<!-- Node13 -->
<g id="Node000013" class="node">
<title>Node13</title>
<g id="a_Node000013"><a xlink:href="_g_h1_d_8h.html" target="_top" xlink:title=" ">
<polygon fill="white" stroke="#666666" points="353.25,-185 302.75,-185 302.75,-165.75 353.25,-165.75 353.25,-185"/>
<text text-anchor="middle" x="328" y="-171.5" font-family="Helvetica,sans-Serif" font-size="10.00">GH1D.h</text>
</a>
</g>
</g>
<!-- Node1&#45;&gt;Node13 -->
<g id="edge16_Node000001_Node000013" class="edge">
<title>Node1&#45;&gt;Node13</title>
<g id="a_edge16_Node000001_Node000013"><a xlink:title=" ">
<path fill="none" stroke="#63b8ff" d="M624.73,-224.99C565.87,-215.35 430.22,-193.12 364.72,-182.39"/>
<polygon fill="#63b8ff" stroke="#63b8ff" points="365.64,-179 355.2,-180.83 364.51,-185.9 365.64,-179"/>
</a>
</g>
</g>
<!-- Node3 -->
<g id="Node000003" class="node">
<title>Node3</title>
<g id="a_Node000003"><a xlink:title=" ">
<polygon fill="#e0e0e0" stroke="#999999" points="410.12,-19.25 367.88,-19.25 367.88,0 410.12,0 410.12,-19.25"/>
<text text-anchor="middle" x="389" y="-5.75" font-family="Helvetica,sans-Serif" font-size="10.00">cstdio</text>
</a>
</g>
</g>
<!-- Node2&#45;&gt;Node3 -->
<g id="edge2_Node000002_Node000003" class="edge">
<title>Node2&#45;&gt;Node3</title>
<g id="a_edge2_Node000002_Node000003"><a xlink:title=" ">
<path fill="none" stroke="#63b8ff" d="M338.8,-110.28C348.29,-101.97 361.83,-88.7 370,-74.5 377.87,-60.82 382.75,-43.58 385.59,-30.46"/>
<polygon fill="#63b8ff" stroke="#63b8ff" points="388.98,-31.37 387.43,-20.88 382.1,-30.04 388.98,-31.37"/>
</a>
</g>
</g>
<!-- Node4 -->
<g id="Node000004" class="node">
<title>Node4</title>
<g id="a_Node000004"><a xlink:title=" ">
<polygon fill="#e0e0e0" stroke="#999999" points="266.5,-19.25 205.5,-19.25 205.5,0 266.5,0 266.5,-19.25"/>
<text text-anchor="middle" x="236" y="-5.75" font-family="Helvetica,sans-Serif" font-size="10.00">TNamed.h</text>
</a>
</g>
</g>
<!-- Node2&#45;&gt;Node4 -->
<g id="edge3_Node000002_Node000004" class="edge">
<title>Node2&#45;&gt;Node4</title>
<g id="a_edge3_Node000002_Node000004"><a xlink:title=" ">
<path fill="none" stroke="#63b8ff" d="M317.06,-110.17C306.89,-101.56 291.6,-87.93 280,-74.5 267.64,-60.19 255.59,-42.35 247.24,-29.17"/>
<polygon fill="#63b8ff" stroke="#63b8ff" points="250.44,-27.69 242.2,-21.04 244.49,-31.38 250.44,-27.69"/>
</a>
</g>
</g>
<!-- Node5 -->
<g id="Node000005" class="node">
<title>Node5</title>
<g id="a_Node000005"><a xlink:title=" ">
<polygon fill="#e0e0e0" stroke="#999999" points="335.12,-19.25 292.88,-19.25 292.88,0 335.12,0 335.12,-19.25"/>
<text text-anchor="middle" x="314" y="-5.75" font-family="Helvetica,sans-Serif" font-size="10.00">TH2.h</text>
</a>
</g>
</g>
<!-- Node2&#45;&gt;Node5 -->
<g id="edge4_Node000002_Node000005" class="edge">
<title>Node2&#45;&gt;Node5</title>
<g id="a_edge4_Node000002_Node000005"><a xlink:title=" ">
<path fill="none" stroke="#63b8ff" d="M315.39,-110.14C305.29,-102.11 291.88,-89.33 286,-74.5 279.74,-58.71 288.74,-41.05 298.16,-28.31"/>
<polygon fill="#63b8ff" stroke="#63b8ff" points="300.67,-30.78 304.25,-20.81 295.23,-26.37 300.67,-30.78"/>
</a>
</g>
</g>
<!-- Node6 -->
<g id="Node000006" class="node">
<title>Node6</title>
<g id="a_Node000006"><a xlink:title=" ">
<polygon fill="#e0e0e0" stroke="#999999" points="46,-19.25 0,-19.25 0,0 46,0 46,-19.25"/>
<text text-anchor="middle" x="23" y="-5.75" font-family="Helvetica,sans-Serif" font-size="10.00">TList.h</text>
</a>
</g>
</g>
<!-- Node2&#45;&gt;Node6 -->
<g id="edge5_Node000002_Node000006" class="edge">
<title>Node2&#45;&gt;Node6</title>
<g id="a_edge5_Node000002_Node000006"><a xlink:title=" ">
<path fill="none" stroke="#63b8ff" d="M304.31,-112.39C301.52,-111.7 298.71,-111.05 296,-110.5 240.15,-99.06 85.19,-111.71 42,-74.5 29.53,-63.75 25.05,-45.21 23.53,-30.87"/>
<polygon fill="#63b8ff" stroke="#63b8ff" points="27.04,-30.92 22.93,-21.15 20.06,-31.35 27.04,-30.92"/>
</a>
</g>
</g>
<!-- Node7 -->
<g id="Node000007" class="node">
<title>Node7</title>
<g id="a_Node000007"><a xlink:title=" ">
<polygon fill="#e0e0e0" stroke="#999999" points="125.25,-74.5 50.75,-74.5 50.75,-55.25 125.25,-55.25 125.25,-74.5"/>
<text text-anchor="middle" x="88" y="-61" font-family="Helvetica,sans-Serif" font-size="10.00">TVirtualPad.h</text>
</a>
</g>
</g>
<!-- Node2&#45;&gt;Node7 -->
<g id="edge6_Node000002_Node000007" class="edge">
<title>Node2&#45;&gt;Node7</title>
<g id="a_edge6_Node000002_Node000007"><a xlink:title=" ">
<path fill="none" stroke="#63b8ff" d="M304.27,-112.58C301.49,-111.86 298.68,-111.15 296,-110.5 241.74,-97.38 179.05,-84.19 136.79,-75.6"/>
<polygon fill="#63b8ff" stroke="#63b8ff" points="137.69,-72.21 127.19,-73.65 136.3,-79.07 137.69,-72.21"/>
</a>
</g>
</g>
<!-- Node8 -->
<g id="Node000008" class="node">
<title>Node8</title>
<g id="a_Node000008"><a xlink:title=" ">
<polygon fill="#e0e0e0" stroke="#999999" points="200.62,-74.5 143.38,-74.5 143.38,-55.25 200.62,-55.25 200.62,-74.5"/>
<text text-anchor="middle" x="172" y="-61" font-family="Helvetica,sans-Serif" font-size="10.00">TFrame.h</text>
</a>
</g>
</g>
<!-- Node2&#45;&gt;Node8 -->
<g id="edge7_Node000002_Node000008" class="edge">
<title>Node2&#45;&gt;Node8</title>
<g id="a_edge7_Node000002_Node000008"><a xlink:title=" ">
<path fill="none" stroke="#63b8ff" d="M304.31,-111.04C279.06,-102.42 238.75,-88.66 209.25,-78.59"/>
<polygon fill="#63b8ff" stroke="#63b8ff" points="210.56,-75.34 199.96,-75.42 208.3,-81.96 210.56,-75.34"/>
</a>
</g>
</g>
<!-- Node9 -->
<g id="Node000009" class="node">
<title>Node9</title>
<g id="a_Node000009"><a xlink:href="_g_h2_base_8h.html" target="_top" xlink:title=" ">
<polygon fill="white" stroke="#666666" points="361.12,-74.5 294.88,-74.5 294.88,-55.25 361.12,-55.25 361.12,-74.5"/>
<text text-anchor="middle" x="328" y="-61" font-family="Helvetica,sans-Serif" font-size="10.00">GH2Base.h</text>
</a>
</g>
</g>
<!-- Node2&#45;&gt;Node9 -->
<g id="edge8_Node000002_Node000009" class="edge">
<title>Node2&#45;&gt;Node9</title>
<g id="a_edge8_Node000002_Node000009"><a xlink:title=" ">
<path fill="none" stroke="#63b8ff" d="M328,-110.33C328,-103.82 328,-94.67 328,-86.37"/>
<polygon fill="#63b8ff" stroke="#63b8ff" points="331.5,-86.37 328,-76.37 324.5,-86.37 331.5,-86.37"/>
</a>
</g>
</g>
<!-- Node9&#45;&gt;Node3 -->
<g id="edge9_Node000009_Node000003" class="edge">
<title>Node9&#45;&gt;Node3</title>
<g id="a_edge9_Node000009_Node000003"><a xlink:title=" ">
<path fill="none" stroke="#63b8ff" d="M338.35,-54.84C347.08,-47.22 359.79,-36.12 370.3,-26.95"/>
<polygon fill="#63b8ff" stroke="#63b8ff" points="372.43,-29.73 377.66,-20.52 367.83,-24.46 372.43,-29.73"/>
</a>
</g>
</g>
<!-- Node9&#45;&gt;Node4 -->
<g id="edge11_Node000009_Node000004" class="edge">
<title>Node9&#45;&gt;Node4</title>
<g id="a_edge11_Node000009_Node000004"><a xlink:title=" ">
<path fill="none" stroke="#63b8ff" d="M312.39,-54.84C298.38,-46.73 277.57,-34.68 261.2,-25.21"/>
<polygon fill="#63b8ff" stroke="#63b8ff" points="263.4,-22.44 252.99,-20.46 259.89,-28.5 263.4,-22.44"/>
</a>
</g>
</g>
<!-- Node9&#45;&gt;Node5 -->
<g id="edge12_Node000009_Node000005" class="edge">
<title>Node9&#45;&gt;Node5</title>
<g id="a_edge12_Node000009_Node000005"><a xlink:title=" ">
<path fill="none" stroke="#63b8ff" d="M325.69,-55.08C323.94,-48.42 321.46,-38.99 319.23,-30.53"/>
<polygon fill="#63b8ff" stroke="#63b8ff" points="322.67,-29.85 316.75,-21.07 315.9,-31.63 322.67,-29.85"/>
</a>
</g>
</g>
<!-- Node9&#45;&gt;Node6 -->
<g id="edge13_Node000009_Node000006" class="edge">
<title>Node9&#45;&gt;Node6</title>
<g id="a_edge13_Node000009_Node000006"><a xlink:title=" ">
<path fill="none" stroke="#63b8ff" d="M294.49,-58.02C236.14,-47.84 116.51,-26.95 57.49,-16.65"/>
<polygon fill="#63b8ff" stroke="#63b8ff" points="58.14,-13.21 47.69,-14.93 56.93,-20.1 58.14,-13.21"/>
</a>
</g>
</g>
<!-- Node10 -->
<g id="Node000010" class="node">
<title>Node10</title>
<g id="a_Node000010"><a xlink:title=" ">
<polygon fill="#e0e0e0" stroke="#999999" points="821.62,-19.25 776.38,-19.25 776.38,0 821.62,0 821.62,-19.25"/>
<text text-anchor="middle" x="799" y="-5.75" font-family="Helvetica,sans-Serif" font-size="10.00">cstdint</text>
</a>
</g>
</g>
<!-- Node9&#45;&gt;Node10 -->
<g id="edge10_Node000009_Node000010" class="edge">
<title>Node9&#45;&gt;Node10</title>
<g id="a_edge10_Node000009_Node000010"><a xlink:title=" ">
<path fill="none" stroke="#63b8ff" d="M361.5,-60.09C447.81,-50.33 677.14,-24.4 764.52,-14.52"/>
<polygon fill="#63b8ff" stroke="#63b8ff" points="764.84,-18.01 774.38,-13.41 764.05,-11.05 764.84,-18.01"/>
</a>
</g>
</g>
<!-- Node13&#45;&gt;Node2 -->
<g id="edge39_Node000013_Node000002" class="edge">
<title>Node13&#45;&gt;Node2</title>
<g id="a_edge39_Node000013_Node000002"><a xlink:title=" ">
<path fill="none" stroke="#63b8ff" d="M328,-165.58C328,-159.07 328,-149.92 328,-141.62"/>
<polygon fill="#63b8ff" stroke="#63b8ff" points="331.5,-141.62 328,-131.62 324.5,-141.62 331.5,-141.62"/>
</a>
</g>
</g>
<!-- Node13&#45;&gt;Node6 -->
<g id="edge21_Node000013_Node000006" class="edge">
<title>Node13&#45;&gt;Node6</title>
<g id="a_edge21_Node000013_Node000006"><a xlink:title=" ">
<path fill="none" stroke="#63b8ff" d="M302.41,-174.26C256.45,-173.1 157.92,-166.14 85,-129.75 52.56,-113.56 40.08,-107.47 25,-74.5 18.71,-60.74 18.55,-43.51 19.78,-30.41"/>
<polygon fill="#63b8ff" stroke="#63b8ff" points="23.2,-31.24 21.03,-20.87 16.26,-30.33 23.2,-31.24"/>
</a>
</g>
</g>
<!-- Node14 -->
<g id="Node000014" class="node">
<title>Node14</title>
<g id="a_Node000014"><a xlink:title=" ">
<polygon fill="#e0e0e0" stroke="#999999" points="835.12,-129.75 792.88,-129.75 792.88,-110.5 835.12,-110.5 835.12,-129.75"/>
<text text-anchor="middle" x="814" y="-116.25" font-family="Helvetica,sans-Serif" font-size="10.00">TH1.h</text>
</a>
</g>
</g>
<!-- Node13&#45;&gt;Node14 -->
<g id="edge17_Node000013_Node000014" class="edge">
<title>Node13&#45;&gt;Node14</title>
<g id="a_edge17_Node000013_Node000014"><a xlink:title=" ">
<path fill="none" stroke="#63b8ff" d="M353.69,-173.5C421.93,-170.84 613.41,-161.12 781.21,-129.95"/>
<polygon fill="#63b8ff" stroke="#63b8ff" points="781.82,-133.4 791,-128.1 780.52,-126.52 781.82,-133.4"/>
</a>
</g>
</g>
<!-- Node15 -->
<g id="Node000015" class="node">
<title>Node15</title>
<g id="a_Node000015"><a xlink:title=" ">
<polygon fill="#e0e0e0" stroke="#999999" points="897.25,-129.75 852.75,-129.75 852.75,-110.5 897.25,-110.5 897.25,-129.75"/>
<text text-anchor="middle" x="875" y="-116.25" font-family="Helvetica,sans-Serif" font-size="10.00">TRef.h</text>
</a>
</g>
</g>
<!-- Node13&#45;&gt;Node15 -->
<g id="edge18_Node000013_Node000015" class="edge">
<title>Node13&#45;&gt;Node15</title>
<g id="a_edge18_Node000013_Node000015"><a xlink:title=" ">
<path fill="none" stroke="#63b8ff" d="M353.72,-173.83C428.01,-171.91 649.31,-163.7 841.28,-129.92"/>
<polygon fill="#63b8ff" stroke="#63b8ff" points="841.71,-133.4 850.94,-128.19 840.47,-126.51 841.71,-133.4"/>
</a>
</g>
</g>
<!-- Node16 -->
<g id="Node000016" class="node">
<title>Node16</title>
<g id="a_Node000016"><a xlink:title=" ">
<polygon fill="#e0e0e0" stroke="#999999" points="140.38,-129.75 93.62,-129.75 93.62,-110.5 140.38,-110.5 140.38,-129.75"/>
<text text-anchor="middle" x="117" y="-116.25" font-family="Helvetica,sans-Serif" font-size="10.00">TPad.h</text>
</a>
</g>
</g>
<!-- Node13&#45;&gt;Node16 -->
<g id="edge19_Node000013_Node000016" class="edge">
<title>Node13&#45;&gt;Node16</title>
<g id="a_edge19_Node000013_Node000016"><a xlink:title=" ">
<path fill="none" stroke="#63b8ff" d="M302.33,-168.03C269.75,-159.95 211.51,-145.45 151.92,-130.22"/>
<polygon fill="#63b8ff" stroke="#63b8ff" points="152.81,-126.84 142.25,-127.75 151.07,-133.62 152.81,-126.84"/>
</a>
</g>
</g>
<!-- Node17 -->
<g id="Node000017" class="node">
<title>Node17</title>
<g id="a_Node000017"><a xlink:title=" ">
<polygon fill="#e0e0e0" stroke="#999999" points="223.38,-129.75 158.62,-129.75 158.62,-110.5 223.38,-110.5 223.38,-129.75"/>
<text text-anchor="middle" x="191" y="-116.25" font-family="Helvetica,sans-Serif" font-size="10.00">GuiTypes.h</text>
</a>
</g>
</g>
<!-- Node13&#45;&gt;Node17 -->
<g id="edge20_Node000013_Node000017" class="edge">
<title>Node13&#45;&gt;Node17</title>
<g id="a_edge20_Node000013_Node000017"><a xlink:title=" ">
<path fill="none" stroke="#63b8ff" d="M304.76,-165.34C282.81,-156.81 249.65,-143.92 224.79,-134.26"/>
<polygon fill="#63b8ff" stroke="#63b8ff" points="226.35,-131.11 215.76,-130.75 223.82,-137.64 226.35,-131.11"/>
</a>
</g>
</g>
<!-- Node18 -->
<g id="Node000018" class="node">
<title>Node18</title>
<g id="a_Node000018"><a xlink:title=" ">
<polygon fill="#e0e0e0" stroke="#999999" points="287,-129.75 241,-129.75 241,-110.5 287,-110.5 287,-129.75"/>
<text text-anchor="middle" x="264" y="-116.25" font-family="Helvetica,sans-Serif" font-size="10.00">TBox.h</text>
</a>
</g>
</g>
<!-- Node13&#45;&gt;Node18 -->
<g id="edge22_Node000013_Node000018" class="edge">
<title>Node13&#45;&gt;Node18</title>
<g id="a_edge22_Node000013_Node000018"><a xlink:title=" ">
<path fill="none" stroke="#63b8ff" d="M317.14,-165.34C307.89,-157.65 294.38,-146.4 283.29,-137.18"/>
<polygon fill="#63b8ff" stroke="#63b8ff" points="285.79,-134.7 275.86,-130.99 281.31,-140.08 285.79,-134.7"/>
</a>
</g>
</g>
<!-- Node19 -->
<g id="Node000019" class="node">
<title>Node19</title>
<g id="a_Node000019"><a xlink:href="_globals_8h.html" target="_top" xlink:title=" ">
<polygon fill="white" stroke="#666666" points="775.25,-129.75 718.75,-129.75 718.75,-110.5 775.25,-110.5 775.25,-129.75"/>
<text text-anchor="middle" x="747" y="-116.25" font-family="Helvetica,sans-Serif" font-size="10.00">Globals.h</text>
</a>
</g>
</g>
<!-- Node13&#45;&gt;Node19 -->
<g id="edge23_Node000013_Node000019" class="edge">
<title>Node13&#45;&gt;Node19</title>
<g id="a_edge23_Node000013_Node000019"><a xlink:title=" ">
<path fill="none" stroke="#63b8ff" d="M353.58,-171.12C424.17,-162.15 622.11,-137 707.25,-126.18"/>
<polygon fill="#63b8ff" stroke="#63b8ff" points="707.51,-129.67 716.99,-124.94 706.63,-122.73 707.51,-129.67"/>
</a>
</g>
</g>
<!-- Node19&#45;&gt;Node3 -->
<g id="edge28_Node000019_Node000003" class="edge">
<title>Node19&#45;&gt;Node3</title>
<g id="a_edge28_Node000019_Node000003"><a xlink:title=" ">
<path fill="none" stroke="#63b8ff" d="M718.25,-117.35C652.43,-112.91 492.84,-99.77 446,-74.5 426.42,-63.94 410.25,-43.89 400.2,-29.06"/>
<polygon fill="#63b8ff" stroke="#63b8ff" points="403.16,-27.2 394.81,-20.67 397.27,-30.98 403.16,-27.2"/>
</a>
</g>
</g>
<!-- Node19&#45;&gt;Node10 -->
<g id="edge29_Node000019_Node000010" class="edge">
<title>Node19&#45;&gt;Node10</title>
<g id="a_edge29_Node000019_Node000010"><a xlink:title=" ">
<path fill="none" stroke="#63b8ff" d="M775.61,-112.08C778.44,-111.5 781.27,-110.96 784,-110.5 860.02,-97.73 1077.4,-131.76 1129,-74.5 1134.73,-68.14 1134.63,-61.69 1129,-55.25 1090.81,-11.55 909.57,-8.95 833.13,-9.86"/>
<polygon fill="#63b8ff" stroke="#63b8ff" points="833.26,-6.36 823.31,-10.01 833.37,-13.35 833.26,-6.36"/>
</a>
</g>
</g>
<!-- Node19&#45;&gt;Node11 -->
<g id="edge24_Node000019_Node000011" class="edge">
<title>Node19&#45;&gt;Node11</title>
<g id="a_edge24_Node000019_Node000011"><a xlink:title=" ">
<path fill="none" stroke="#63b8ff" d="M775.6,-111.98C778.42,-111.42 781.26,-110.91 784,-110.5 1012.55,-76.28 1076.93,-108.92 1308.8,-74.55"/>
<polygon fill="#63b8ff" stroke="#63b8ff" points="1309.11,-78.04 1318.47,-73.09 1308.06,-71.12 1309.11,-78.04"/>
</a>
</g>
</g>
<!-- Node20 -->
<g id="Node000020" class="node">
<title>Node20</title>
<g id="a_Node000020"><a xlink:title=" ">
<polygon fill="#e0e0e0" stroke="#999999" points="1225.88,-74.5 1176.12,-74.5 1176.12,-55.25 1225.88,-55.25 1225.88,-74.5"/>
<text text-anchor="middle" x="1201" y="-61" font-family="Helvetica,sans-Serif" font-size="10.00">iomanip</text>
</a>
</g>
</g>
<!-- Node19&#45;&gt;Node20 -->
<g id="edge25_Node000019_Node000020" class="edge">
<title>Node19&#45;&gt;Node20</title>
<g id="a_edge25_Node000019_Node000020"><a xlink:title=" ">
<path fill="none" stroke="#63b8ff" d="M775.61,-112.06C778.43,-111.48 781.27,-110.95 784,-110.5 950.55,-83.28 995.3,-100.77 1162,-74.5 1162.99,-74.34 1163.99,-74.18 1165,-74"/>
<polygon fill="#63b8ff" stroke="#63b8ff" points="1165.27,-77.52 1174.42,-72.19 1163.94,-70.64 1165.27,-77.52"/>
</a>
</g>
</g>
<!-- Node21 -->
<g id="Node000021" class="node">
<title>Node21</title>
<g id="a_Node000021"><a xlink:title=" ">
<polygon fill="#e0e0e0" stroke="#999999" points="1302,-74.5 1244,-74.5 1244,-55.25 1302,-55.25 1302,-74.5"/>
<text text-anchor="middle" x="1273" y="-61" font-family="Helvetica,sans-Serif" font-size="10.00">stdexcept</text>
</a>
</g>
</g>
<!-- Node19&#45;&gt;Node21 -->
<g id="edge26_Node000019_Node000021" class="edge">
<title>Node19&#45;&gt;Node21</title>
<g id="a_edge26_Node000019_Node000021"><a xlink:title=" ">
<path fill="none" stroke="#63b8ff" d="M775.6,-112.01C778.43,-111.44 781.26,-110.93 784,-110.5 979.1,-80.15 1034.24,-103.94 1232.53,-74.65"/>
<polygon fill="#63b8ff" stroke="#63b8ff" points="1232.76,-78.16 1242.12,-73.21 1231.71,-71.24 1232.76,-78.16"/>
</a>
</g>
</g>
<!-- Node22 -->
<g id="Node000022" class="node">
<title>Node22</title>
<g id="a_Node000022"><a xlink:title=" ">
<polygon fill="#e0e0e0" stroke="#999999" points="495,-74.5 455,-74.5 455,-55.25 495,-55.25 495,-74.5"/>
<text text-anchor="middle" x="475" y="-61" font-family="Helvetica,sans-Serif" font-size="10.00">string</text>
</a>
</g>
</g>
<!-- Node19&#45;&gt;Node22 -->
<g id="edge27_Node000019_Node000022" class="edge">
<title>Node19&#45;&gt;Node22</title>
<g id="a_edge27_Node000019_Node000022"><a xlink:title=" ">
<path fill="none" stroke="#63b8ff" d="M718.36,-114.89C674.67,-108.21 588.56,-94.18 506.26,-74.83"/>
<polygon fill="#63b8ff" stroke="#63b8ff" points="507.22,-71.45 496.68,-72.54 505.59,-78.26 507.22,-71.45"/>
</a>
</g>
</g>
<!-- Node23 -->
<g id="Node000023" class="node">
<title>Node23</title>
<g id="a_Node000023"><a xlink:title=" ">
<polygon fill="#e0e0e0" stroke="#999999" points="557.25,-74.5 512.75,-74.5 512.75,-55.25 557.25,-55.25 557.25,-74.5"/>
<text text-anchor="middle" x="535" y="-61" font-family="Helvetica,sans-Serif" font-size="10.00">cstdlib</text>
</a>
</g>
</g>
<!-- Node19&#45;&gt;Node23 -->
<g id="edge30_Node000019_Node000023" class="edge">
<title>Node19&#45;&gt;Node23</title>
<g id="a_edge30_Node000019_Node000023"><a xlink:title=" ">
<path fill="none" stroke="#63b8ff" d="M718.41,-112.35C684.77,-104.32 626.98,-90.35 568.57,-75.12"/>
<polygon fill="#63b8ff" stroke="#63b8ff" points="569.69,-71.8 559.13,-72.65 567.92,-78.57 569.69,-71.8"/>
</a>
</g>
</g>
<!-- Node24 -->
<g id="Node000024" class="node">
<title>Node24</title>
<g id="a_Node000024"><a xlink:title=" ">
<polygon fill="#e0e0e0" stroke="#999999" points="634.75,-74.5 575.25,-74.5 575.25,-55.25 634.75,-55.25 634.75,-74.5"/>
<text text-anchor="middle" x="605" y="-61" font-family="Helvetica,sans-Serif" font-size="10.00">execinfo.h</text>
</a>
</g>
</g>
<!-- Node19&#45;&gt;Node24 -->
<g id="edge31_Node000019_Node000024" class="edge">
<title>Node19&#45;&gt;Node24</title>
<g id="a_edge31_Node000019_Node000024"><a xlink:title=" ">
<path fill="none" stroke="#63b8ff" d="M722.91,-110.09C700.06,-101.52 665.48,-88.56 639.67,-78.88"/>
<polygon fill="#63b8ff" stroke="#63b8ff" points="641.22,-75.72 630.62,-75.48 638.76,-82.27 641.22,-75.72"/>
</a>
</g>
</g>
<!-- Node25 -->
<g id="Node000025" class="node">
<title>Node25</title>
<g id="a_Node000025"><a xlink:title=" ">
<polygon fill="#e0e0e0" stroke="#999999" points="703.25,-74.5 652.75,-74.5 652.75,-55.25 703.25,-55.25 703.25,-74.5"/>
<text text-anchor="middle" x="678" y="-61" font-family="Helvetica,sans-Serif" font-size="10.00">cxxabi.h</text>
</a>
</g>
</g>
<!-- Node19&#45;&gt;Node25 -->
<g id="edge32_Node000019_Node000025" class="edge">
<title>Node19&#45;&gt;Node25</title>
<g id="a_edge32_Node000019_Node000025"><a xlink:title=" ">
<path fill="none" stroke="#63b8ff" d="M735.3,-110.09C725.22,-102.32 710.46,-90.92 698.44,-81.65"/>
<polygon fill="#63b8ff" stroke="#63b8ff" points="700.79,-79.04 690.73,-75.7 696.51,-84.58 700.79,-79.04"/>
</a>
</g>
</g>
<!-- Node26 -->
<g id="Node000026" class="node">
<title>Node26</title>
<g id="a_Node000026"><a xlink:title=" ">
<polygon fill="#e0e0e0" stroke="#999999" points="772.62,-74.5 721.38,-74.5 721.38,-55.25 772.62,-55.25 772.62,-74.5"/>
<text text-anchor="middle" x="747" y="-61" font-family="Helvetica,sans-Serif" font-size="10.00">sstream</text>
</a>
</g>
</g>
<!-- Node19&#45;&gt;Node26 -->
<g id="edge33_Node000019_Node000026" class="edge">
<title>Node19&#45;&gt;Node26</title>
<g id="a_edge33_Node000019_Node000026"><a xlink:title=" ">
<path fill="none" stroke="#63b8ff" d="M747,-110.33C747,-103.82 747,-94.67 747,-86.37"/>
<polygon fill="#63b8ff" stroke="#63b8ff" points="750.5,-86.37 747,-76.37 743.5,-86.37 750.5,-86.37"/>
</a>
</g>
</g>
<!-- Node27 -->
<g id="Node000027" class="node">
<title>Node27</title>
<g id="a_Node000027"><a xlink:title=" ">
<polygon fill="#e0e0e0" stroke="#999999" points="827.5,-74.5 790.5,-74.5 790.5,-55.25 827.5,-55.25 827.5,-74.5"/>
<text text-anchor="middle" x="809" y="-61" font-family="Helvetica,sans-Serif" font-size="10.00">array</text>
</a>
</g>
</g>
<!-- Node19&#45;&gt;Node27 -->
<g id="edge34_Node000019_Node000027" class="edge">
<title>Node19&#45;&gt;Node27</title>
<g id="a_edge34_Node000019_Node000027"><a xlink:title=" ">
<path fill="none" stroke="#63b8ff" d="M757.52,-110.09C766.39,-102.47 779.31,-91.37 789.99,-82.2"/>
<polygon fill="#63b8ff" stroke="#63b8ff" points="792.18,-84.93 797.49,-75.76 787.62,-79.62 792.18,-84.93"/>
</a>
</g>
</g>
<!-- Node28 -->
<g id="Node000028" class="node">
<title>Node28</title>
<g id="a_Node000028"><a xlink:title=" ">
<polygon fill="#e0e0e0" stroke="#999999" points="896.25,-74.5 845.75,-74.5 845.75,-55.25 896.25,-55.25 896.25,-74.5"/>
<text text-anchor="middle" x="871" y="-61" font-family="Helvetica,sans-Serif" font-size="10.00">memory</text>
</a>
</g>
</g>
<!-- Node19&#45;&gt;Node28 -->
<g id="edge35_Node000019_Node000028" class="edge">
<title>Node19&#45;&gt;Node28</title>
<g id="a_edge35_Node000019_Node000028"><a xlink:title=" ">
<path fill="none" stroke="#63b8ff" d="M768.03,-110.09C787.63,-101.68 817.11,-89.02 839.51,-79.4"/>
<polygon fill="#63b8ff" stroke="#63b8ff" points="840.66,-82.71 848.47,-75.55 837.9,-76.28 840.66,-82.71"/>
</a>
</g>
</g>
<!-- Node29 -->
<g id="Node000029" class="node">
<title>Node29</title>
<g id="a_Node000029"><a xlink:title=" ">
<polygon fill="#e0e0e0" stroke="#999999" points="963.88,-74.5 914.12,-74.5 914.12,-55.25 963.88,-55.25 963.88,-74.5"/>
<text text-anchor="middle" x="939" y="-61" font-family="Helvetica,sans-Serif" font-size="10.00">unistd.h</text>
</a>
</g>
</g>
<!-- Node19&#45;&gt;Node29 -->
<g id="edge36_Node000019_Node000029" class="edge">
<title>Node19&#45;&gt;Node29</title>
<g id="a_edge36_Node000019_Node000029"><a xlink:title=" ">
<path fill="none" stroke="#63b8ff" d="M775.74,-111.15C809.68,-101.74 866.16,-86.08 902.99,-75.86"/>
<polygon fill="#63b8ff" stroke="#63b8ff" points="903.58,-79.33 912.28,-73.29 901.71,-72.58 903.58,-79.33"/>
</a>
</g>
</g>
<!-- Node30 -->
<g id="Node000030" class="node">
<title>Node30</title>
<g id="a_Node000030"><a xlink:title=" ">
<polygon fill="#e0e0e0" stroke="#999999" points="1041.75,-74.5 982.25,-74.5 982.25,-55.25 1041.75,-55.25 1041.75,-74.5"/>
<text text-anchor="middle" x="1012" y="-61" font-family="Helvetica,sans-Serif" font-size="10.00">sys/wait.h</text>
</a>
</g>
</g>
<!-- Node19&#45;&gt;Node30 -->
<g id="edge37_Node000019_Node000030" class="edge">
<title>Node19&#45;&gt;Node30</title>
<g id="a_edge37_Node000019_Node000030"><a xlink:title=" ">
<path fill="none" stroke="#63b8ff" d="M775.66,-112.32C778.47,-111.69 781.29,-111.07 784,-110.5 864.22,-93.52 887.37,-91.85 970.75,-74.91"/>
<polygon fill="#63b8ff" stroke="#63b8ff" points="971.21,-78.39 980.3,-72.95 969.8,-71.53 971.21,-78.39"/>
</a>
</g>
</g>
<!-- Node31 -->
<g id="Node000031" class="node">
<title>Node31</title>
<g id="a_Node000031"><a xlink:title=" ">
<polygon fill="#e0e0e0" stroke="#999999" points="1120.12,-74.5 1059.88,-74.5 1059.88,-55.25 1120.12,-55.25 1120.12,-74.5"/>
<text text-anchor="middle" x="1090" y="-61" font-family="Helvetica,sans-Serif" font-size="10.00">sys/prctl.h</text>
</a>
</g>
</g>
<!-- Node19&#45;&gt;Node31 -->
<g id="edge38_Node000019_Node000031" class="edge">
<title>Node19&#45;&gt;Node31</title>
<g id="a_edge38_Node000019_Node000031"><a xlink:title=" ">
<path fill="none" stroke="#63b8ff" d="M775.63,-112.17C778.45,-111.57 781.28,-111 784,-110.5 898.21,-89.54 931.13,-95.07 1048.18,-74.87"/>
<polygon fill="#63b8ff" stroke="#63b8ff" points="1048.66,-78.34 1057.9,-73.16 1047.45,-71.44 1048.66,-78.34"/>
</a>
</g>
</g>
</g>
</svg>
