<?xml version="1.0" encoding="UTF-8" standalone="no"?>
<!DOCTYPE svg PUBLIC "-//W3C//DTD SVG 1.1//EN"
 "http://www.w3.org/Graphics/SVG/1.1/DTD/svg11.dtd">
<!-- Generated by graphviz version 12.2.0 (20241103.1931)
 -->
<!-- Title: GH1D.h Pages: 1 -->
<svg width="1433pt" height="193pt"
 viewBox="0.00 0.00 1432.88 193.00" xmlns="http://www.w3.org/2000/svg" xmlns:xlink="http://www.w3.org/1999/xlink">
<g id="graph0" class="graph" transform="scale(1 1) rotate(0) translate(4 189)">
<title>GH1D.h</title>
<!-- Node1 -->
<g id="Node000001" class="node">
<title>Node1</title>
<g id="a_Node000001"><a xlink:title=" ">
<polygon fill="#999999" stroke="#666666" points="572.88,-185 522.38,-185 522.38,-165.75 572.88,-165.75 572.88,-185"/>
<text text-anchor="middle" x="547.62" y="-171.5" font-family="Helvetica,sans-Serif" font-size="10.00">GH1D.h</text>
</a>
</g>
</g>
<!-- Node2 -->
<g id="Node000002" class="node">
<title>Node2</title>
<g id="a_Node000002"><a xlink:title=" ">
<polygon fill="#e0e0e0" stroke="#999999" points="330.75,-129.75 288.5,-129.75 288.5,-110.5 330.75,-110.5 330.75,-129.75"/>
<text text-anchor="middle" x="309.62" y="-116.25" font-family="Helvetica,sans-Serif" font-size="10.00">TH1.h</text>
</a>
</g>
</g>
<!-- Node1&#45;&gt;Node2 -->
<g id="edge1_Node000001_Node000002" class="edge">
<title>Node1&#45;&gt;Node2</title>
<g id="a_edge1_Node000001_Node000002"><a xlink:title=" ">
<path fill="none" stroke="#63b8ff" d="M521.88,-169.44C484.37,-162.13 412.31,-147.61 342.01,-130.22"/>
<polygon fill="#63b8ff" stroke="#63b8ff" points="343.23,-126.92 332.68,-127.89 341.53,-133.71 343.23,-126.92"/>
</a>
</g>
</g>
<!-- Node3 -->
<g id="Node000003" class="node">
<title>Node3</title>
<g id="a_Node000003"><a xlink:title=" ">
<polygon fill="#e0e0e0" stroke="#999999" points="392.88,-129.75 348.38,-129.75 348.38,-110.5 392.88,-110.5 392.88,-129.75"/>
<text text-anchor="middle" x="370.62" y="-116.25" font-family="Helvetica,sans-Serif" font-size="10.00">TRef.h</text>
</a>
</g>
</g>
<!-- Node1&#45;&gt;Node3 -->
<g id="edge2_Node000001_Node000003" class="edge">
<title>Node1&#45;&gt;Node3</title>
<g id="a_edge2_Node000001_Node000003"><a xlink:title=" ">
<path fill="none" stroke="#63b8ff" d="M521.89,-166.63C490.79,-157.28 438.39,-141.51 404.16,-131.21"/>
<polygon fill="#63b8ff" stroke="#63b8ff" points="405.34,-127.91 394.75,-128.38 403.32,-134.62 405.34,-127.91"/>
</a>
</g>
</g>
<!-- Node4 -->
<g id="Node000004" class="node">
<title>Node4</title>
<g id="a_Node000004"><a xlink:title=" ">
<polygon fill="#e0e0e0" stroke="#999999" points="458,-129.75 411.25,-129.75 411.25,-110.5 458,-110.5 458,-129.75"/>
<text text-anchor="middle" x="434.62" y="-116.25" font-family="Helvetica,sans-Serif" font-size="10.00">TPad.h</text>
</a>
</g>
</g>
<!-- Node1&#45;&gt;Node4 -->
<g id="edge3_Node000001_Node000004" class="edge">
<title>Node1&#45;&gt;Node4</title>
<g id="a_edge3_Node000001_Node000004"><a xlink:title=" ">
<path fill="none" stroke="#63b8ff" d="M528.46,-165.34C510.84,-157.04 484.47,-144.61 464.16,-135.04"/>
<polygon fill="#63b8ff" stroke="#63b8ff" points="465.8,-131.94 455.26,-130.85 462.81,-138.28 465.8,-131.94"/>
</a>
</g>
</g>
<!-- Node5 -->
<g id="Node000005" class="node">
<title>Node5</title>
<g id="a_Node000005"><a xlink:title=" ">
<polygon fill="#e0e0e0" stroke="#999999" points="541,-129.75 476.25,-129.75 476.25,-110.5 541,-110.5 541,-129.75"/>
<text text-anchor="middle" x="508.62" y="-116.25" font-family="Helvetica,sans-Serif" font-size="10.00">GuiTypes.h</text>
</a>
</g>
</g>
<!-- Node1&#45;&gt;Node5 -->
<g id="edge4_Node000001_Node000005" class="edge">
<title>Node1&#45;&gt;Node5</title>
<g id="a_edge4_Node000001_Node000005"><a xlink:title=" ">
<path fill="none" stroke="#63b8ff" d="M541.18,-165.58C535.97,-158.46 528.44,-148.18 521.93,-139.3"/>
<polygon fill="#63b8ff" stroke="#63b8ff" points="524.83,-137.33 516.1,-131.33 519.18,-141.47 524.83,-137.33"/>
</a>
</g>
</g>
<!-- Node6 -->
<g id="Node000006" class="node">
<title>Node6</title>
<g id="a_Node000006"><a xlink:title=" ">
<polygon fill="#e0e0e0" stroke="#999999" points="1185.62,-19.25 1139.62,-19.25 1139.62,0 1185.62,0 1185.62,-19.25"/>
<text text-anchor="middle" x="1162.62" y="-5.75" font-family="Helvetica,sans-Serif" font-size="10.00">TList.h</text>
</a>
</g>
</g>
<!-- Node1&#45;&gt;Node6 -->
<g id="edge5_Node000001_Node000006" class="edge">
<title>Node1&#45;&gt;Node6</title>
<g id="a_edge5_Node000001_Node000006"><a xlink:title=" ">
<path fill="none" stroke="#63b8ff" d="M572.97,-169.93C641.32,-157.67 834.88,-121.17 991.62,-74.5 1041.23,-59.73 1097.14,-37.81 1131.12,-23.87"/>
<polygon fill="#63b8ff" stroke="#63b8ff" points="1132.05,-27.28 1139.95,-20.22 1129.37,-20.81 1132.05,-27.28"/>
</a>
</g>
</g>
<!-- Node7 -->
<g id="Node000007" class="node">
<title>Node7</title>
<g id="a_Node000007"><a xlink:title=" ">
<polygon fill="#e0e0e0" stroke="#999999" points="1249.62,-129.75 1203.62,-129.75 1203.62,-110.5 1249.62,-110.5 1249.62,-129.75"/>
<text text-anchor="middle" x="1226.62" y="-116.25" font-family="Helvetica,sans-Serif" font-size="10.00">TBox.h</text>
</a>
</g>
</g>
<!-- Node1&#45;&gt;Node7 -->
<g id="edge6_Node000001_Node000007" class="edge">
<title>Node1&#45;&gt;Node7</title>
<g id="a_edge6_Node000001_Node000007"><a xlink:title=" ">
<path fill="none" stroke="#63b8ff" d="M573.11,-174.39C659.11,-174.07 946.44,-169.99 1192.03,-129.84"/>
<polygon fill="#63b8ff" stroke="#63b8ff" points="1192.54,-133.31 1201.83,-128.22 1191.39,-126.4 1192.54,-133.31"/>
</a>
</g>
</g>
<!-- Node8 -->
<g id="Node000008" class="node">
<title>Node8</title>
<g id="a_Node000008"><a xlink:href="_globals_8h.html" target="_top" xlink:title=" ">
<polygon fill="white" stroke="#666666" points="615.88,-129.75 559.38,-129.75 559.38,-110.5 615.88,-110.5 615.88,-129.75"/>
<text text-anchor="middle" x="587.62" y="-116.25" font-family="Helvetica,sans-Serif" font-size="10.00">Globals.h</text>
</a>
</g>
</g>
<!-- Node1&#45;&gt;Node8 -->
<g id="edge7_Node000001_Node000008" class="edge">
<title>Node1&#45;&gt;Node8</title>
<g id="a_edge7_Node000001_Node000008"><a xlink:title=" ">
<path fill="none" stroke="#63b8ff" d="M554.23,-165.58C559.58,-158.46 567.3,-148.18 573.97,-139.3"/>
<polygon fill="#63b8ff" stroke="#63b8ff" points="576.76,-141.42 579.97,-131.32 571.16,-137.21 576.76,-141.42"/>
</a>
</g>
</g>
<!-- Node24 -->
<g id="Node000024" class="node">
<title>Node24</title>
<g id="a_Node000024"><a xlink:href="_g_h2_i_8h.html" target="_top" xlink:title=" ">
<polygon fill="white" stroke="#666666" points="1186,-129.75 1139.25,-129.75 1139.25,-110.5 1186,-110.5 1186,-129.75"/>
<text text-anchor="middle" x="1162.62" y="-116.25" font-family="Helvetica,sans-Serif" font-size="10.00">GH2I.h</text>
</a>
</g>
</g>
<!-- Node1&#45;&gt;Node24 -->
<g id="edge23_Node000001_Node000024" class="edge">
<title>Node1&#45;&gt;Node24</title>
<g id="a_edge23_Node000001_Node000024"><a xlink:title=" ">
<path fill="none" stroke="#63b8ff" d="M573.27,-172.15C670.43,-163.74 1016.1,-133.81 1127.65,-124.15"/>
<polygon fill="#63b8ff" stroke="#63b8ff" points="1127.72,-127.66 1137.38,-123.31 1127.11,-120.69 1127.72,-127.66"/>
</a>
</g>
</g>
<!-- Node9 -->
<g id="Node000009" class="node">
<title>Node9</title>
<g id="a_Node000009"><a xlink:title=" ">
<polygon fill="#e0e0e0" stroke="#999999" points="470.38,-74.5 416.88,-74.5 416.88,-55.25 470.38,-55.25 470.38,-74.5"/>
<text text-anchor="middle" x="443.62" y="-61" font-family="Helvetica,sans-Serif" font-size="10.00">iostream</text>
</a>
</g>
</g>
<!-- Node8&#45;&gt;Node9 -->
<g id="edge8_Node000008_Node000009" class="edge">
<title>Node8&#45;&gt;Node9</title>
<g id="a_edge8_Node000008_Node000009"><a xlink:title=" ">
<path fill="none" stroke="#63b8ff" d="M563.2,-110.09C540.03,-101.52 504.96,-88.56 478.79,-78.88"/>
<polygon fill="#63b8ff" stroke="#63b8ff" points="480.19,-75.66 469.59,-75.48 477.76,-82.23 480.19,-75.66"/>
</a>
</g>
</g>
<!-- Node10 -->
<g id="Node000010" class="node">
<title>Node10</title>
<g id="a_Node000010"><a xlink:title=" ">
<polygon fill="#e0e0e0" stroke="#999999" points="576.5,-74.5 526.75,-74.5 526.75,-55.25 576.5,-55.25 576.5,-74.5"/>
<text text-anchor="middle" x="551.62" y="-61" font-family="Helvetica,sans-Serif" font-size="10.00">iomanip</text>
</a>
</g>
</g>
<!-- Node8&#45;&gt;Node10 -->
<g id="edge9_Node000008_Node000010" class="edge">
<title>Node8&#45;&gt;Node10</title>
<g id="a_edge9_Node000008_Node000010"><a xlink:title=" ">
<path fill="none" stroke="#63b8ff" d="M581.68,-110.33C576.91,-103.28 570.06,-93.15 564.1,-84.33"/>
<polygon fill="#63b8ff" stroke="#63b8ff" points="567.05,-82.44 558.55,-76.11 561.25,-86.36 567.05,-82.44"/>
</a>
</g>
</g>
<!-- Node11 -->
<g id="Node000011" class="node">
<title>Node11</title>
<g id="a_Node000011"><a xlink:title=" ">
<polygon fill="#e0e0e0" stroke="#999999" points="652.62,-74.5 594.62,-74.5 594.62,-55.25 652.62,-55.25 652.62,-74.5"/>
<text text-anchor="middle" x="623.62" y="-61" font-family="Helvetica,sans-Serif" font-size="10.00">stdexcept</text>
</a>
</g>
</g>
<!-- Node8&#45;&gt;Node11 -->
<g id="edge10_Node000008_Node000011" class="edge">
<title>Node8&#45;&gt;Node11</title>
<g id="a_edge10_Node000008_Node000011"><a xlink:title=" ">
<path fill="none" stroke="#63b8ff" d="M593.57,-110.33C598.34,-103.28 605.19,-93.15 611.15,-84.33"/>
<polygon fill="#63b8ff" stroke="#63b8ff" points="614,-86.36 616.7,-76.11 608.2,-82.44 614,-86.36"/>
</a>
</g>
</g>
<!-- Node12 -->
<g id="Node000012" class="node">
<title>Node12</title>
<g id="a_Node000012"><a xlink:title=" ">
<polygon fill="#e0e0e0" stroke="#999999" points="710.62,-74.5 670.62,-74.5 670.62,-55.25 710.62,-55.25 710.62,-74.5"/>
<text text-anchor="middle" x="690.62" y="-61" font-family="Helvetica,sans-Serif" font-size="10.00">string</text>
</a>
</g>
</g>
<!-- Node8&#45;&gt;Node12 -->
<g id="edge11_Node000008_Node000012" class="edge">
<title>Node8&#45;&gt;Node12</title>
<g id="a_edge11_Node000008_Node000012"><a xlink:title=" ">
<path fill="none" stroke="#63b8ff" d="M605.1,-110.09C620.93,-101.91 644.53,-89.71 662.93,-80.19"/>
<polygon fill="#63b8ff" stroke="#63b8ff" points="664.45,-83.35 671.72,-75.65 661.23,-77.13 664.45,-83.35"/>
</a>
</g>
</g>
<!-- Node13 -->
<g id="Node000013" class="node">
<title>Node13</title>
<g id="a_Node000013"><a xlink:title=" ">
<polygon fill="#e0e0e0" stroke="#999999" points="1069.75,-19.25 1027.5,-19.25 1027.5,0 1069.75,0 1069.75,-19.25"/>
<text text-anchor="middle" x="1048.62" y="-5.75" font-family="Helvetica,sans-Serif" font-size="10.00">cstdio</text>
</a>
</g>
</g>
<!-- Node8&#45;&gt;Node13 -->
<g id="edge12_Node000008_Node000013" class="edge">
<title>Node8&#45;&gt;Node13</title>
<g id="a_edge12_Node000008_Node000013"><a xlink:title=" ">
<path fill="none" stroke="#63b8ff" d="M564.72,-110.15C537.55,-98.26 498.25,-76.32 517.62,-55.25 551.39,-18.53 905.12,-12.01 1015.75,-10.86"/>
<polygon fill="#63b8ff" stroke="#63b8ff" points="1015.65,-14.37 1025.62,-10.77 1015.59,-7.37 1015.65,-14.37"/>
</a>
</g>
</g>
<!-- Node14 -->
<g id="Node000014" class="node">
<title>Node14</title>
<g id="a_Node000014"><a xlink:title=" ">
<polygon fill="#e0e0e0" stroke="#999999" points="774.25,-74.5 729,-74.5 729,-55.25 774.25,-55.25 774.25,-74.5"/>
<text text-anchor="middle" x="751.62" y="-61" font-family="Helvetica,sans-Serif" font-size="10.00">cstdint</text>
</a>
</g>
</g>
<!-- Node8&#45;&gt;Node14 -->
<g id="edge13_Node000008_Node000014" class="edge">
<title>Node8&#45;&gt;Node14</title>
<g id="a_edge13_Node000008_Node000014"><a xlink:title=" ">
<path fill="none" stroke="#63b8ff" d="M615.45,-110.09C643.73,-100.91 687.57,-86.67 717.83,-76.85"/>
<polygon fill="#63b8ff" stroke="#63b8ff" points="718.83,-80.2 727.26,-73.78 716.67,-73.54 718.83,-80.2"/>
</a>
</g>
</g>
<!-- Node15 -->
<g id="Node000015" class="node">
<title>Node15</title>
<g id="a_Node000015"><a xlink:title=" ">
<polygon fill="#e0e0e0" stroke="#999999" points="836.88,-74.5 792.38,-74.5 792.38,-55.25 836.88,-55.25 836.88,-74.5"/>
<text text-anchor="middle" x="814.62" y="-61" font-family="Helvetica,sans-Serif" font-size="10.00">cstdlib</text>
</a>
</g>
</g>
<!-- Node8&#45;&gt;Node15 -->
<g id="edge14_Node000008_Node000015" class="edge">
<title>Node8&#45;&gt;Node15</title>
<g id="a_edge14_Node000008_Node000015"><a xlink:title=" ">
<path fill="none" stroke="#63b8ff" d="M616.29,-113.05C652.47,-105.27 716.87,-91.13 780.87,-75.11"/>
<polygon fill="#63b8ff" stroke="#63b8ff" points="781.66,-78.52 790.5,-72.68 779.95,-71.73 781.66,-78.52"/>
</a>
</g>
</g>
<!-- Node16 -->
<g id="Node000016" class="node">
<title>Node16</title>
<g id="a_Node000016"><a xlink:title=" ">
<polygon fill="#e0e0e0" stroke="#999999" points="914.38,-74.5 854.88,-74.5 854.88,-55.25 914.38,-55.25 914.38,-74.5"/>
<text text-anchor="middle" x="884.62" y="-61" font-family="Helvetica,sans-Serif" font-size="10.00">execinfo.h</text>
</a>
</g>
</g>
<!-- Node8&#45;&gt;Node16 -->
<g id="edge15_Node000008_Node000016" class="edge">
<title>Node8&#45;&gt;Node16</title>
<g id="a_edge15_Node000008_Node000016"><a xlink:title=" ">
<path fill="none" stroke="#63b8ff" d="M616.34,-114.6C662.15,-107.3 754.85,-92.12 843.37,-74.87"/>
<polygon fill="#63b8ff" stroke="#63b8ff" points="843.8,-78.35 852.94,-72.99 842.45,-71.48 843.8,-78.35"/>
</a>
</g>
</g>
<!-- Node17 -->
<g id="Node000017" class="node">
<title>Node17</title>
<g id="a_Node000017"><a xlink:title=" ">
<polygon fill="#e0e0e0" stroke="#999999" points="982.88,-74.5 932.38,-74.5 932.38,-55.25 982.88,-55.25 982.88,-74.5"/>
<text text-anchor="middle" x="957.62" y="-61" font-family="Helvetica,sans-Serif" font-size="10.00">cxxabi.h</text>
</a>
</g>
</g>
<!-- Node8&#45;&gt;Node17 -->
<g id="edge16_Node000008_Node000017" class="edge">
<title>Node8&#45;&gt;Node17</title>
<g id="a_edge16_Node000008_Node000017"><a xlink:title=" ">
<path fill="none" stroke="#63b8ff" d="M616.12,-116.47C672.52,-110.98 802.47,-97.13 921.01,-74.81"/>
<polygon fill="#63b8ff" stroke="#63b8ff" points="921.43,-78.29 930.59,-72.98 920.11,-71.42 921.43,-78.29"/>
</a>
</g>
</g>
<!-- Node18 -->
<g id="Node000018" class="node">
<title>Node18</title>
<g id="a_Node000018"><a xlink:title=" ">
<polygon fill="#e0e0e0" stroke="#999999" points="51.25,-74.5 0,-74.5 0,-55.25 51.25,-55.25 51.25,-74.5"/>
<text text-anchor="middle" x="25.62" y="-61" font-family="Helvetica,sans-Serif" font-size="10.00">sstream</text>
</a>
</g>
</g>
<!-- Node8&#45;&gt;Node18 -->
<g id="edge17_Node000008_Node000018" class="edge">
<title>Node8&#45;&gt;Node18</title>
<g id="a_edge17_Node000008_Node000018"><a xlink:title=" ">
<path fill="none" stroke="#63b8ff" d="M559.08,-112.16C555.9,-111.53 552.7,-110.96 549.62,-110.5 337.35,-78.79 277.21,-108.43 62.84,-74.75"/>
<polygon fill="#63b8ff" stroke="#63b8ff" points="63.44,-71.31 53.01,-73.18 62.33,-78.22 63.44,-71.31"/>
</a>
</g>
</g>
<!-- Node19 -->
<g id="Node000019" class="node">
<title>Node19</title>
<g id="a_Node000019"><a xlink:title=" ">
<polygon fill="#e0e0e0" stroke="#999999" points="106.12,-74.5 69.12,-74.5 69.12,-55.25 106.12,-55.25 106.12,-74.5"/>
<text text-anchor="middle" x="87.62" y="-61" font-family="Helvetica,sans-Serif" font-size="10.00">array</text>
</a>
</g>
</g>
<!-- Node8&#45;&gt;Node19 -->
<g id="edge18_Node000008_Node000019" class="edge">
<title>Node8&#45;&gt;Node19</title>
<g id="a_edge18_Node000008_Node000019"><a xlink:title=" ">
<path fill="none" stroke="#63b8ff" d="M559.07,-112.19C555.9,-111.56 552.7,-110.97 549.62,-110.5 361.98,-81.57 307.72,-110.07 117.68,-74.43"/>
<polygon fill="#63b8ff" stroke="#63b8ff" points="118.43,-71.01 107.95,-72.57 117.11,-77.89 118.43,-71.01"/>
</a>
</g>
</g>
<!-- Node20 -->
<g id="Node000020" class="node">
<title>Node20</title>
<g id="a_Node000020"><a xlink:title=" ">
<polygon fill="#e0e0e0" stroke="#999999" points="174.88,-74.5 124.38,-74.5 124.38,-55.25 174.88,-55.25 174.88,-74.5"/>
<text text-anchor="middle" x="149.62" y="-61" font-family="Helvetica,sans-Serif" font-size="10.00">memory</text>
</a>
</g>
</g>
<!-- Node8&#45;&gt;Node20 -->
<g id="edge19_Node000008_Node000020" class="edge">
<title>Node8&#45;&gt;Node20</title>
<g id="a_edge19_Node000008_Node000020"><a xlink:title=" ">
<path fill="none" stroke="#63b8ff" d="M559.07,-112.24C555.89,-111.59 552.7,-111 549.62,-110.5 391.9,-84.95 346.65,-101.87 186.39,-74.73"/>
<polygon fill="#63b8ff" stroke="#63b8ff" points="187.1,-71.3 176.65,-73.05 185.9,-78.2 187.1,-71.3"/>
</a>
</g>
</g>
<!-- Node21 -->
<g id="Node000021" class="node">
<title>Node21</title>
<g id="a_Node000021"><a xlink:title=" ">
<polygon fill="#e0e0e0" stroke="#999999" points="242.5,-74.5 192.75,-74.5 192.75,-55.25 242.5,-55.25 242.5,-74.5"/>
<text text-anchor="middle" x="217.62" y="-61" font-family="Helvetica,sans-Serif" font-size="10.00">unistd.h</text>
</a>
</g>
</g>
<!-- Node8&#45;&gt;Node21 -->
<g id="edge20_Node000008_Node000021" class="edge">
<title>Node8&#45;&gt;Node21</title>
<g id="a_edge20_Node000008_Node000021"><a xlink:title=" ">
<path fill="none" stroke="#63b8ff" d="M559.05,-112.31C555.88,-111.65 552.69,-111.03 549.62,-110.5 421.77,-88.33 384.78,-98.36 254.05,-74.72"/>
<polygon fill="#63b8ff" stroke="#63b8ff" points="254.75,-71.29 244.28,-72.92 253.48,-78.17 254.75,-71.29"/>
</a>
</g>
</g>
<!-- Node22 -->
<g id="Node000022" class="node">
<title>Node22</title>
<g id="a_Node000022"><a xlink:title=" ">
<polygon fill="#e0e0e0" stroke="#999999" points="320.38,-74.5 260.88,-74.5 260.88,-55.25 320.38,-55.25 320.38,-74.5"/>
<text text-anchor="middle" x="290.62" y="-61" font-family="Helvetica,sans-Serif" font-size="10.00">sys/wait.h</text>
</a>
</g>
</g>
<!-- Node8&#45;&gt;Node22 -->
<g id="edge21_Node000008_Node000022" class="edge">
<title>Node8&#45;&gt;Node22</title>
<g id="a_edge21_Node000008_Node000022"><a xlink:title=" ">
<path fill="none" stroke="#63b8ff" d="M559.03,-112.44C555.86,-111.76 552.68,-111.1 549.62,-110.5 455.89,-92.21 428.86,-93.11 332.02,-74.86"/>
<polygon fill="#63b8ff" stroke="#63b8ff" points="332.79,-71.45 322.31,-73.01 331.48,-78.32 332.79,-71.45"/>
</a>
</g>
</g>
<!-- Node23 -->
<g id="Node000023" class="node">
<title>Node23</title>
<g id="a_Node000023"><a xlink:title=" ">
<polygon fill="#e0e0e0" stroke="#999999" points="398.75,-74.5 338.5,-74.5 338.5,-55.25 398.75,-55.25 398.75,-74.5"/>
<text text-anchor="middle" x="368.62" y="-61" font-family="Helvetica,sans-Serif" font-size="10.00">sys/prctl.h</text>
</a>
</g>
</g>
<!-- Node8&#45;&gt;Node23 -->
<g id="edge22_Node000008_Node000023" class="edge">
<title>Node8&#45;&gt;Node23</title>
<g id="a_edge22_Node000008_Node000023"><a xlink:title=" ">
<path fill="none" stroke="#63b8ff" d="M558.99,-112.16C521,-102.92 453.65,-86.55 410.09,-75.96"/>
<polygon fill="#63b8ff" stroke="#63b8ff" points="411.04,-72.59 400.49,-73.62 409.38,-79.39 411.04,-72.59"/>
</a>
</g>
</g>
<!-- Node24&#45;&gt;Node6 -->
<g id="edge27_Node000024_Node000006" class="edge">
<title>Node24&#45;&gt;Node6</title>
<g id="a_edge27_Node000024_Node000006"><a xlink:title=" ">
<path fill="none" stroke="#63b8ff" d="M1162.62,-110.25C1162.62,-93 1162.62,-54.58 1162.62,-30.81"/>
<polygon fill="#63b8ff" stroke="#63b8ff" points="1166.13,-31.14 1162.63,-21.14 1159.13,-31.14 1166.13,-31.14"/>
</a>
</g>
</g>
<!-- Node24&#45;&gt;Node13 -->
<g id="edge24_Node000024_Node000013" class="edge">
<title>Node24&#45;&gt;Node13</title>
<g id="a_edge24_Node000024_Node000013"><a xlink:title=" ">
<path fill="none" stroke="#63b8ff" d="M1138.95,-113.88C1117.38,-107.91 1086.16,-96.05 1067.62,-74.5 1057.11,-62.28 1052.41,-44.44 1050.32,-30.71"/>
<polygon fill="#63b8ff" stroke="#63b8ff" points="1053.82,-30.59 1049.2,-21.05 1046.87,-31.39 1053.82,-30.59"/>
</a>
</g>
</g>
<!-- Node25 -->
<g id="Node000025" class="node">
<title>Node25</title>
<g id="a_Node000025"><a xlink:title=" ">
<polygon fill="#e0e0e0" stroke="#999999" points="1274.12,-19.25 1213.12,-19.25 1213.12,0 1274.12,0 1274.12,-19.25"/>
<text text-anchor="middle" x="1243.62" y="-5.75" font-family="Helvetica,sans-Serif" font-size="10.00">TNamed.h</text>
</a>
</g>
</g>
<!-- Node24&#45;&gt;Node25 -->
<g id="edge25_Node000024_Node000025" class="edge">
<title>Node24&#45;&gt;Node25</title>
<g id="a_edge25_Node000024_Node000025"><a xlink:title=" ">
<path fill="none" stroke="#63b8ff" d="M1186.13,-112.24C1213.6,-103.66 1256.48,-88.43 1265.62,-74.5 1274.86,-60.44 1266.84,-42.08 1258,-28.66"/>
<polygon fill="#63b8ff" stroke="#63b8ff" points="1260.95,-26.76 1252.24,-20.73 1255.29,-30.88 1260.95,-26.76"/>
</a>
</g>
</g>
<!-- Node26 -->
<g id="Node000026" class="node">
<title>Node26</title>
<g id="a_Node000026"><a xlink:title=" ">
<polygon fill="#e0e0e0" stroke="#999999" points="1338.75,-19.25 1296.5,-19.25 1296.5,0 1338.75,0 1338.75,-19.25"/>
<text text-anchor="middle" x="1317.62" y="-5.75" font-family="Helvetica,sans-Serif" font-size="10.00">TH2.h</text>
</a>
</g>
</g>
<!-- Node24&#45;&gt;Node26 -->
<g id="edge26_Node000024_Node000026" class="edge">
<title>Node24&#45;&gt;Node26</title>
<g id="a_edge26_Node000024_Node000026"><a xlink:title=" ">
<path fill="none" stroke="#63b8ff" d="M1186.42,-112.32C1216.74,-103.3 1266.96,-87.06 1281.62,-74.5 1295.52,-62.6 1305.16,-43.92 1310.95,-29.83"/>
<polygon fill="#63b8ff" stroke="#63b8ff" points="1314.12,-31.33 1314.37,-20.74 1307.57,-28.87 1314.12,-31.33"/>
</a>
</g>
</g>
<!-- Node27 -->
<g id="Node000027" class="node">
<title>Node27</title>
<g id="a_Node000027"><a xlink:title=" ">
<polygon fill="#e0e0e0" stroke="#999999" points="1424.88,-74.5 1350.38,-74.5 1350.38,-55.25 1424.88,-55.25 1424.88,-74.5"/>
<text text-anchor="middle" x="1387.62" y="-61" font-family="Helvetica,sans-Serif" font-size="10.00">TVirtualPad.h</text>
</a>
</g>
</g>
<!-- Node24&#45;&gt;Node27 -->
<g id="edge28_Node000024_Node000027" class="edge">
<title>Node24&#45;&gt;Node27</title>
<g id="a_edge28_Node000024_Node000027"><a xlink:title=" ">
<path fill="none" stroke="#63b8ff" d="M1186.37,-112.62C1189.15,-111.89 1191.95,-111.17 1194.62,-110.5 1243.66,-98.23 1300.02,-85.34 1339.12,-76.58"/>
<polygon fill="#63b8ff" stroke="#63b8ff" points="1339.69,-80.04 1348.69,-74.45 1338.17,-73.21 1339.69,-80.04"/>
</a>
</g>
</g>
<!-- Node28 -->
<g id="Node000028" class="node">
<title>Node28</title>
<g id="a_Node000028"><a xlink:title=" ">
<polygon fill="#e0e0e0" stroke="#999999" points="1134.25,-74.5 1077,-74.5 1077,-55.25 1134.25,-55.25 1134.25,-74.5"/>
<text text-anchor="middle" x="1105.62" y="-61" font-family="Helvetica,sans-Serif" font-size="10.00">TFrame.h</text>
</a>
</g>
</g>
<!-- Node24&#45;&gt;Node28 -->
<g id="edge29_Node000024_Node000028" class="edge">
<title>Node24&#45;&gt;Node28</title>
<g id="a_edge29_Node000024_Node000028"><a xlink:title=" ">
<path fill="none" stroke="#63b8ff" d="M1152.96,-110.09C1144.88,-102.55 1133.16,-91.6 1123.4,-82.48"/>
<polygon fill="#63b8ff" stroke="#63b8ff" points="1125.95,-80.08 1116.26,-75.81 1121.18,-85.19 1125.95,-80.08"/>
</a>
</g>
</g>
<!-- Node29 -->
<g id="Node000029" class="node">
<title>Node29</title>
<g id="a_Node000029"><a xlink:href="_g_h2_base_8h.html" target="_top" xlink:title=" ">
<polygon fill="white" stroke="#666666" points="1256.75,-74.5 1190.5,-74.5 1190.5,-55.25 1256.75,-55.25 1256.75,-74.5"/>
<text text-anchor="middle" x="1223.62" y="-61" font-family="Helvetica,sans-Serif" font-size="10.00">GH2Base.h</text>
</a>
</g>
</g>
<!-- Node24&#45;&gt;Node29 -->
<g id="edge30_Node000024_Node000029" class="edge">
<title>Node24&#45;&gt;Node29</title>
<g id="a_edge30_Node000024_Node000029"><a xlink:title=" ">
<path fill="none" stroke="#63b8ff" d="M1172.97,-110.09C1181.7,-102.47 1194.41,-91.37 1204.92,-82.2"/>
<polygon fill="#63b8ff" stroke="#63b8ff" points="1207.06,-84.98 1212.29,-75.77 1202.45,-79.71 1207.06,-84.98"/>
</a>
</g>
</g>
<!-- Node29&#45;&gt;Node6 -->
<g id="edge34_Node000029_Node000006" class="edge">
<title>Node29&#45;&gt;Node6</title>
<g id="a_edge34_Node000029_Node000006"><a xlink:title=" ">
<path fill="none" stroke="#63b8ff" d="M1213.28,-54.84C1204.55,-47.22 1191.84,-36.12 1181.33,-26.95"/>
<polygon fill="#63b8ff" stroke="#63b8ff" points="1183.8,-24.46 1173.96,-20.52 1179.19,-29.73 1183.8,-24.46"/>
</a>
</g>
</g>
<!-- Node29&#45;&gt;Node13 -->
<g id="edge31_Node000029_Node000013" class="edge">
<title>Node29&#45;&gt;Node13</title>
<g id="a_edge31_Node000029_Node000013"><a xlink:title=" ">
<path fill="none" stroke="#63b8ff" d="M1193.94,-54.84C1162.54,-45.29 1113.15,-30.26 1080.82,-20.42"/>
<polygon fill="#63b8ff" stroke="#63b8ff" points="1082.19,-17.18 1071.61,-17.62 1080.16,-23.88 1082.19,-17.18"/>
</a>
</g>
</g>
<!-- Node29&#45;&gt;Node25 -->
<g id="edge32_Node000029_Node000025" class="edge">
<title>Node29&#45;&gt;Node25</title>
<g id="a_edge32_Node000029_Node000025"><a xlink:title=" ">
<path fill="none" stroke="#63b8ff" d="M1226.93,-55.08C1229.46,-48.34 1233.05,-38.77 1236.26,-30.24"/>
<polygon fill="#63b8ff" stroke="#63b8ff" points="1239.48,-31.62 1239.72,-21.03 1232.93,-29.16 1239.48,-31.62"/>
</a>
</g>
</g>
<!-- Node29&#45;&gt;Node26 -->
<g id="edge33_Node000029_Node000026" class="edge">
<title>Node29&#45;&gt;Node26</title>
<g id="a_edge33_Node000029_Node000026"><a xlink:title=" ">
<path fill="none" stroke="#63b8ff" d="M1239.57,-54.84C1253.89,-46.73 1275.16,-34.68 1291.88,-25.21"/>
<polygon fill="#63b8ff" stroke="#63b8ff" points="1293.31,-28.42 1300.28,-20.45 1289.86,-22.33 1293.31,-28.42"/>
</a>
</g>
</g>
</g>
</svg>
