<?xml version="1.0" encoding="UTF-8" standalone="no"?>
<!DOCTYPE svg PUBLIC "-//W3C//DTD SVG 1.1//EN"
 "http://www.w3.org/Graphics/SVG/1.1/DTD/svg11.dtd">
<!-- Generated by graphviz version 12.2.0 (20241103.1931)
 -->
<!-- Title: GH2D.cxx Pages: 1 -->
<!--zoomable 248 -->

<svg id="main" version="1.1" xmlns="http://www.w3.org/2000/svg" xmlns:xlink="http://www.w3.org/1999/xlink" xml:space="preserve" onload="init(evt)">

<style type="text/css"><![CDATA[
.node, .edge {opacity: 0.7;}
.node.selected, .edge.selected {opacity: 1;}
.edge:hover path { stroke: red; }
.edge:hover polygon { stroke: red; fill: red; }
]]></style>

<defs>
  <circle id="rim" cx="0" cy="0" r="7"/>
  <circle id="rim2" cx="0" cy="0" r="3.5"/>
  <g id="zoomPlus">
    <use xlink:href="#rim" fill="#404040"><set attributeName="fill" to="#808080" begin="zoomplus.mouseover" end="zoomplus.mouseout"/></use>
    <path d="M-4,0h8M0,-4v8" fill="none" stroke="white" stroke-width="1.5" pointer-events="none"/>
  </g>
  <g id="zoomMin">
    <use xlink:href="#rim" fill="#404040"><set attributeName="fill" to="#808080" begin="zoomminus.mouseover" end="zoomminus.mouseout"/></use>
    <path d="M-4,0h8" fill="none" stroke="white" stroke-width="1.5" pointer-events="none"/>
  </g>
  <g id="arrowUp" transform="translate(30 24)">
    <use xlink:href="#rim"/>
    <path pointer-events="none" fill="none" stroke="white" stroke-width="1.5" d="M0,-3.0v7 M-2.5,-0.5L0,-3.0L2.5,-0.5"/>
  </g>
  <g id="arrowRight" transform="rotate(90) translate(36 -43)">
    <use xlink:href="#rim"/>
    <path pointer-events="none" fill="none" stroke="white" stroke-width="1.5" d="M0,-3.0v7 M-2.5,-0.5L0,-3.0L2.5,-0.5"/>
  </g>
  <g id="arrowDown" transform="rotate(180) translate(-30 -48)">
    <use xlink:href="#rim"/>
    <path pointer-events="none" fill="none" stroke="white" stroke-width="1.5" d="M0,-3.0v7 M-2.5,-0.5L0,-3.0L2.5,-0.5"/>
  </g>
  <g id="arrowLeft" transform="rotate(270) translate(-36 17)">
    <use xlink:href="#rim"/>
    <path pointer-events="none" fill="none" stroke="white" stroke-width="1.5" d="M0,-3.0v7 M-2.5,-0.5L0,-3.0L2.5,-0.5"/>
  </g>
  <g id="resetDef">
    <use xlink:href="#rim2" fill="#404040"><set attributeName="fill" to="#808080" begin="reset.mouseover" end="reset.mouseout"/></use>
  </g>
</defs>
<script type="application/ecmascript">
var viewWidth = 1629;
var viewHeight = 248;
var sectionId = 'dynsection-0';
</script>
<script type="application/ecmascript" xlink:href="svg.min.js"/>
<svg id="graph" class="graph">
<g id="viewport">
<title>GH2D.cxx</title>
<!-- Node1 -->
<g id="Node000001" class="node">
<title>Node1</title>
<g id="a_Node000001"><a xlink:title=" ">
<polygon fill="#999999" stroke="#666666" points="646.75,-240.25 587.25,-240.25 587.25,-221 646.75,-221 646.75,-240.25"/>
<text text-anchor="middle" x="617" y="-226.75" font-family="Helvetica,sans-Serif" font-size="10.00">GH2D.cxx</text>
</a>
</g>
</g>
<!-- Node2 -->
<g id="Node000002" class="node">
<title>Node2</title>
<g id="a_Node000002"><a xlink:href="_g_h2_d_8h.html" target="_top" xlink:title=" ">
<polygon fill="white" stroke="#666666" points="238.25,-129.75 187.75,-129.75 187.75,-110.5 238.25,-110.5 238.25,-129.75"/>
<text text-anchor="middle" x="213" y="-116.25" font-family="Helvetica,sans-Serif" font-size="10.00">GH2D.h</text>
</a>
</g>
</g>
<!-- Node1&#45;&gt;Node2 -->
<g id="edge1_Node000001_Node000002" class="edge">
<title>Node1&#45;&gt;Node2</title>
<g id="a_edge1_Node000001_Node000002"><a xlink:title=" ">
<path fill="none" stroke="#63b8ff" d="M586.96,-221.56C514.2,-202.02 328.65,-152.18 249.58,-130.95"/>
<polygon fill="#63b8ff" stroke="#63b8ff" points="250.74,-127.64 240.18,-128.42 248.93,-134.4 250.74,-127.64"/>
</a>
</g>
</g>
<!-- Node12 -->
<g id="Node000012" class="node">
<title>Node12</title>
<g id="a_Node000012"><a xlink:title=" ">
<polygon fill="#e0e0e0" stroke="#999999" points="1620.75,-74.5 1567.25,-74.5 1567.25,-55.25 1620.75,-55.25 1620.75,-74.5"/>
<text text-anchor="middle" x="1594" y="-61" font-family="Helvetica,sans-Serif" font-size="10.00">iostream</text>
</a>
</g>
</g>
<!-- Node1&#45;&gt;Node12 -->
<g id="edge15_Node000001_Node000012" class="edge">
<title>Node1&#45;&gt;Node12</title>
<g id="a_edge15_Node000001_Node000012"><a xlink:title=" ">
<path fill="none" stroke="#63b8ff" d="M647.04,-224.59C789.51,-200.71 1396.72,-98.94 1555.75,-72.29"/>
<polygon fill="#63b8ff" stroke="#63b8ff" points="1556.06,-75.78 1565.34,-70.68 1554.9,-68.88 1556.06,-75.78"/>
</a>
</g>
</g>
<!-- Node13 -->
<g id="Node000013" class="node">
<title>Node13</title>
<g id="a_Node000013"><a xlink:title=" ">
<polygon fill="#e0e0e0" stroke="#999999" points="689.88,-185 622.12,-185 622.12,-165.75 689.88,-165.75 689.88,-185"/>
<text text-anchor="middle" x="656" y="-171.5" font-family="Helvetica,sans-Serif" font-size="10.00">TDirectory.h</text>
</a>
</g>
</g>
<!-- Node1&#45;&gt;Node13 -->
<g id="edge16_Node000001_Node000013" class="edge">
<title>Node1&#45;&gt;Node13</title>
<g id="a_edge16_Node000001_Node000013"><a xlink:title=" ">
<path fill="none" stroke="#63b8ff" d="M623.44,-220.83C628.66,-213.71 636.19,-203.43 642.69,-194.55"/>
<polygon fill="#63b8ff" stroke="#63b8ff" points="645.44,-196.72 648.53,-186.58 639.79,-192.58 645.44,-196.72"/>
</a>
</g>
</g>
<!-- Node14 -->
<g id="Node000014" class="node">
<title>Node14</title>
<g id="a_Node000014"><a xlink:href="_g_h1_d_8h.html" target="_top" xlink:title=" ">
<polygon fill="white" stroke="#666666" points="604.25,-185 553.75,-185 553.75,-165.75 604.25,-165.75 604.25,-185"/>
<text text-anchor="middle" x="579" y="-171.5" font-family="Helvetica,sans-Serif" font-size="10.00">GH1D.h</text>
</a>
</g>
</g>
<!-- Node1&#45;&gt;Node14 -->
<g id="edge17_Node000001_Node000014" class="edge">
<title>Node1&#45;&gt;Node14</title>
<g id="a_edge17_Node000001_Node000014"><a xlink:title=" ">
<path fill="none" stroke="#63b8ff" d="M610.73,-220.83C605.64,-213.71 598.3,-203.43 591.97,-194.55"/>
<polygon fill="#63b8ff" stroke="#63b8ff" points="594.95,-192.7 586.29,-186.59 589.25,-196.76 594.95,-192.7"/>
</a>
</g>
</g>
<!-- Node3 -->
<g id="Node000003" class="node">
<title>Node3</title>
<g id="a_Node000003"><a xlink:title=" ">
<polygon fill="#e0e0e0" stroke="#999999" points="599.12,-19.25 556.88,-19.25 556.88,0 599.12,0 599.12,-19.25"/>
<text text-anchor="middle" x="578" y="-5.75" font-family="Helvetica,sans-Serif" font-size="10.00">cstdio</text>
</a>
</g>
</g>
<!-- Node2&#45;&gt;Node3 -->
<g id="edge2_Node000002_Node000003" class="edge">
<title>Node2&#45;&gt;Node3</title>
<g id="a_edge2_Node000002_Node000003"><a xlink:title=" ">
<path fill="none" stroke="#63b8ff" d="M238.74,-115.55C307.48,-105.96 490.97,-80 503,-74.5 526.96,-63.54 549.24,-42.64 563.18,-27.74"/>
<polygon fill="#63b8ff" stroke="#63b8ff" points="565.62,-30.26 569.72,-20.5 560.42,-25.58 565.62,-30.26"/>
</a>
</g>
</g>
<!-- Node4 -->
<g id="Node000004" class="node">
<title>Node4</title>
<g id="a_Node000004"><a xlink:title=" ">
<polygon fill="#e0e0e0" stroke="#999999" points="445.5,-19.25 384.5,-19.25 384.5,0 445.5,0 445.5,-19.25"/>
<text text-anchor="middle" x="415" y="-5.75" font-family="Helvetica,sans-Serif" font-size="10.00">TNamed.h</text>
</a>
</g>
</g>
<!-- Node2&#45;&gt;Node4 -->
<g id="edge3_Node000002_Node000004" class="edge">
<title>Node2&#45;&gt;Node4</title>
<g id="a_edge3_Node000002_Node000004"><a xlink:title=" ">
<path fill="none" stroke="#63b8ff" d="M189.56,-110.2C162.32,-98.54 123.33,-77.03 142,-55.25 174.17,-17.73 307.15,-27.44 372.94,-19.19"/>
<polygon fill="#63b8ff" stroke="#63b8ff" points="373.17,-22.69 382.53,-17.72 372.12,-15.77 373.17,-22.69"/>
</a>
</g>
</g>
<!-- Node5 -->
<g id="Node000005" class="node">
<title>Node5</title>
<g id="a_Node000005"><a xlink:title=" ">
<polygon fill="#e0e0e0" stroke="#999999" points="366.12,-19.25 323.88,-19.25 323.88,0 366.12,0 366.12,-19.25"/>
<text text-anchor="middle" x="345" y="-5.75" font-family="Helvetica,sans-Serif" font-size="10.00">TH2.h</text>
</a>
</g>
</g>
<!-- Node2&#45;&gt;Node5 -->
<g id="edge4_Node000002_Node000005" class="edge">
<title>Node2&#45;&gt;Node5</title>
<g id="a_edge4_Node000002_Node000005"><a xlink:title=" ">
<path fill="none" stroke="#63b8ff" d="M187.48,-114.51C147.65,-106.23 77.84,-86.7 104,-55.25 130.09,-23.88 252.35,-14.47 312.04,-11.72"/>
<polygon fill="#63b8ff" stroke="#63b8ff" points="312.08,-15.22 321.93,-11.3 311.79,-8.23 312.08,-15.22"/>
</a>
</g>
</g>
<!-- Node6 -->
<g id="Node000006" class="node">
<title>Node6</title>
<g id="a_Node000006"><a xlink:title=" ">
<polygon fill="#e0e0e0" stroke="#999999" points="526,-19.25 480,-19.25 480,0 526,0 526,-19.25"/>
<text text-anchor="middle" x="503" y="-5.75" font-family="Helvetica,sans-Serif" font-size="10.00">TList.h</text>
</a>
</g>
</g>
<!-- Node2&#45;&gt;Node6 -->
<g id="edge5_Node000002_Node000006" class="edge">
<title>Node2&#45;&gt;Node6</title>
<g id="a_edge5_Node000002_Node000006"><a xlink:title=" ">
<path fill="none" stroke="#63b8ff" d="M200.89,-110.19C184.68,-97.19 159.66,-72.69 175,-55.25 216.28,-8.3 392.2,-28.67 454,-19.25 458.71,-18.53 463.66,-17.72 468.53,-16.9"/>
<polygon fill="#63b8ff" stroke="#63b8ff" points="468.87,-20.39 478.12,-15.23 467.66,-13.5 468.87,-20.39"/>
</a>
</g>
</g>
<!-- Node7 -->
<g id="Node000007" class="node">
<title>Node7</title>
<g id="a_Node000007"><a xlink:title=" ">
<polygon fill="#e0e0e0" stroke="#999999" points="334.25,-74.5 259.75,-74.5 259.75,-55.25 334.25,-55.25 334.25,-74.5"/>
<text text-anchor="middle" x="297" y="-61" font-family="Helvetica,sans-Serif" font-size="10.00">TVirtualPad.h</text>
</a>
</g>
</g>
<!-- Node2&#45;&gt;Node7 -->
<g id="edge6_Node000002_Node000007" class="edge">
<title>Node2&#45;&gt;Node7</title>
<g id="a_edge6_Node000002_Node000007"><a xlink:title=" ">
<path fill="none" stroke="#63b8ff" d="M227.25,-110.09C239.8,-102.14 258.33,-90.39 273.14,-81"/>
<polygon fill="#63b8ff" stroke="#63b8ff" points="274.83,-84.07 281.4,-75.76 271.08,-78.16 274.83,-84.07"/>
</a>
</g>
</g>
<!-- Node8 -->
<g id="Node000008" class="node">
<title>Node8</title>
<g id="a_Node000008"><a xlink:title=" ">
<polygon fill="#e0e0e0" stroke="#999999" points="241.62,-74.5 184.38,-74.5 184.38,-55.25 241.62,-55.25 241.62,-74.5"/>
<text text-anchor="middle" x="213" y="-61" font-family="Helvetica,sans-Serif" font-size="10.00">TFrame.h</text>
</a>
</g>
</g>
<!-- Node2&#45;&gt;Node8 -->
<g id="edge7_Node000002_Node000008" class="edge">
<title>Node2&#45;&gt;Node8</title>
<g id="a_edge7_Node000002_Node000008"><a xlink:title=" ">
<path fill="none" stroke="#63b8ff" d="M213,-110.33C213,-103.82 213,-94.67 213,-86.37"/>
<polygon fill="#63b8ff" stroke="#63b8ff" points="216.5,-86.37 213,-76.37 209.5,-86.37 216.5,-86.37"/>
</a>
</g>
</g>
<!-- Node9 -->
<g id="Node000009" class="node">
<title>Node9</title>
<g id="a_Node000009"><a xlink:title=" ">
<polygon fill="#e0e0e0" stroke="#999999" points="52,-74.5 0,-74.5 0,-55.25 52,-55.25 52,-74.5"/>
<text text-anchor="middle" x="26" y="-61" font-family="Helvetica,sans-Serif" font-size="10.00">TCutG.h</text>
</a>
</g>
</g>
<!-- Node2&#45;&gt;Node9 -->
<g id="edge8_Node000002_Node000009" class="edge">
<title>Node2&#45;&gt;Node9</title>
<g id="a_edge8_Node000002_Node000009"><a xlink:title=" ">
<path fill="none" stroke="#63b8ff" d="M187.39,-111.83C155.21,-102.67 99.75,-86.88 62.97,-76.4"/>
<polygon fill="#63b8ff" stroke="#63b8ff" points="64.23,-73.12 53.66,-73.75 62.32,-79.86 64.23,-73.12"/>
</a>
</g>
</g>
<!-- Node10 -->
<g id="Node000010" class="node">
<title>Node10</title>
<g id="a_Node000010"><a xlink:href="_g_h2_base_8h.html" target="_top" xlink:title=" ">
<polygon fill="white" stroke="#666666" points="494.12,-74.5 427.88,-74.5 427.88,-55.25 494.12,-55.25 494.12,-74.5"/>
<text text-anchor="middle" x="461" y="-61" font-family="Helvetica,sans-Serif" font-size="10.00">GH2Base.h</text>
</a>
</g>
</g>
<!-- Node2&#45;&gt;Node10 -->
<g id="edge9_Node000002_Node000010" class="edge">
<title>Node2&#45;&gt;Node10</title>
<g id="a_edge9_Node000002_Node000010"><a xlink:title=" ">
<path fill="none" stroke="#63b8ff" d="M238.61,-113.63C280.6,-104.61 364.62,-86.57 416.51,-75.43"/>
<polygon fill="#63b8ff" stroke="#63b8ff" points="417.18,-78.86 426.22,-73.34 415.71,-72.02 417.18,-78.86"/>
</a>
</g>
</g>
<!-- Node10&#45;&gt;Node3 -->
<g id="edge10_Node000010_Node000003" class="edge">
<title>Node10&#45;&gt;Node3</title>
<g id="a_edge10_Node000010_Node000003"><a xlink:title=" ">
<path fill="none" stroke="#63b8ff" d="M480.85,-54.84C499.17,-46.5 526.65,-34 547.71,-24.41"/>
<polygon fill="#63b8ff" stroke="#63b8ff" points="549.03,-27.66 556.68,-20.33 546.13,-21.29 549.03,-27.66"/>
</a>
</g>
</g>
<!-- Node10&#45;&gt;Node4 -->
<g id="edge12_Node000010_Node000004" class="edge">
<title>Node10&#45;&gt;Node4</title>
<g id="a_edge12_Node000010_Node000004"><a xlink:title=" ">
<path fill="none" stroke="#63b8ff" d="M453.4,-55.08C447.12,-47.8 437.99,-37.23 430.2,-28.23"/>
<polygon fill="#63b8ff" stroke="#63b8ff" points="432.94,-26.03 423.75,-20.75 427.64,-30.61 432.94,-26.03"/>
</a>
</g>
</g>
<!-- Node10&#45;&gt;Node5 -->
<g id="edge13_Node000010_Node000005" class="edge">
<title>Node10&#45;&gt;Node5</title>
<g id="a_edge13_Node000010_Node000005"><a xlink:title=" ">
<path fill="none" stroke="#63b8ff" d="M441.32,-54.84C423.16,-46.5 395.92,-34 375.03,-24.41"/>
<polygon fill="#63b8ff" stroke="#63b8ff" points="376.7,-21.33 366.15,-20.33 373.78,-27.69 376.7,-21.33"/>
</a>
</g>
</g>
<!-- Node10&#45;&gt;Node6 -->
<g id="edge14_Node000010_Node000006" class="edge">
<title>Node10&#45;&gt;Node6</title>
<g id="a_edge14_Node000010_Node000006"><a xlink:title=" ">
<path fill="none" stroke="#63b8ff" d="M467.94,-55.08C473.62,-47.88 481.84,-37.46 488.89,-28.51"/>
<polygon fill="#63b8ff" stroke="#63b8ff" points="491.53,-30.82 494.98,-20.8 486.04,-26.48 491.53,-30.82"/>
</a>
</g>
</g>
<!-- Node11 -->
<g id="Node000011" class="node">
<title>Node11</title>
<g id="a_Node000011"><a xlink:title=" ">
<polygon fill="#e0e0e0" stroke="#999999" points="1120.62,-19.25 1075.38,-19.25 1075.38,0 1120.62,0 1120.62,-19.25"/>
<text text-anchor="middle" x="1098" y="-5.75" font-family="Helvetica,sans-Serif" font-size="10.00">cstdint</text>
</a>
</g>
</g>
<!-- Node10&#45;&gt;Node11 -->
<g id="edge11_Node000010_Node000011" class="edge">
<title>Node10&#45;&gt;Node11</title>
<g id="a_edge11_Node000010_Node000011"><a xlink:title=" ">
<path fill="none" stroke="#63b8ff" d="M494.35,-61.09C604.02,-51.92 952.76,-22.77 1063.74,-13.49"/>
<polygon fill="#63b8ff" stroke="#63b8ff" points="1063.72,-17 1073.39,-12.68 1063.13,-10.03 1063.72,-17"/>
</a>
</g>
</g>
<!-- Node14&#45;&gt;Node6 -->
<g id="edge22_Node000014_Node000006" class="edge">
<title>Node14&#45;&gt;Node6</title>
<g id="a_edge22_Node000014_Node000006"><a xlink:title=" ">
<path fill="none" stroke="#63b8ff" d="M575.86,-165.59C571.37,-153.17 562.66,-129.85 554,-110.5 542.75,-85.38 538.53,-79.76 526,-55.25 521.69,-46.81 516.89,-37.49 512.79,-29.56"/>
<polygon fill="#63b8ff" stroke="#63b8ff" points="516,-28.13 508.29,-20.85 509.78,-31.34 516,-28.13"/>
</a>
</g>
</g>
<!-- Node15 -->
<g id="Node000015" class="node">
<title>Node15</title>
<g id="a_Node000015"><a xlink:title=" ">
<polygon fill="#e0e0e0" stroke="#999999" points="706.12,-129.75 663.88,-129.75 663.88,-110.5 706.12,-110.5 706.12,-129.75"/>
<text text-anchor="middle" x="685" y="-116.25" font-family="Helvetica,sans-Serif" font-size="10.00">TH1.h</text>
</a>
</g>
</g>
<!-- Node14&#45;&gt;Node15 -->
<g id="edge18_Node000014_Node000015" class="edge">
<title>Node14&#45;&gt;Node15</title>
<g id="a_edge18_Node000014_Node000015"><a xlink:title=" ">
<path fill="none" stroke="#63b8ff" d="M596.98,-165.34C613.35,-157.12 637.79,-144.84 656.76,-135.31"/>
<polygon fill="#63b8ff" stroke="#63b8ff" points="658.21,-138.5 665.58,-130.88 655.07,-132.24 658.21,-138.5"/>
</a>
</g>
</g>
<!-- Node16 -->
<g id="Node000016" class="node">
<title>Node16</title>
<g id="a_Node000016"><a xlink:title=" ">
<polygon fill="#e0e0e0" stroke="#999999" points="768.25,-129.75 723.75,-129.75 723.75,-110.5 768.25,-110.5 768.25,-129.75"/>
<text text-anchor="middle" x="746" y="-116.25" font-family="Helvetica,sans-Serif" font-size="10.00">TRef.h</text>
</a>
</g>
</g>
<!-- Node14&#45;&gt;Node16 -->
<g id="edge19_Node000014_Node000016" class="edge">
<title>Node14&#45;&gt;Node16</title>
<g id="a_edge19_Node000014_Node000016"><a xlink:title=" ">
<path fill="none" stroke="#63b8ff" d="M604.73,-166.17C633.66,-156.95 680.73,-141.94 712.5,-131.81"/>
<polygon fill="#63b8ff" stroke="#63b8ff" points="713.55,-135.15 722.02,-128.77 711.43,-128.48 713.55,-135.15"/>
</a>
</g>
</g>
<!-- Node17 -->
<g id="Node000017" class="node">
<title>Node17</title>
<g id="a_Node000017"><a xlink:title=" ">
<polygon fill="#e0e0e0" stroke="#999999" points="334.38,-129.75 287.62,-129.75 287.62,-110.5 334.38,-110.5 334.38,-129.75"/>
<text text-anchor="middle" x="311" y="-116.25" font-family="Helvetica,sans-Serif" font-size="10.00">TPad.h</text>
</a>
</g>
</g>
<!-- Node14&#45;&gt;Node17 -->
<g id="edge20_Node000014_Node000017" class="edge">
<title>Node14&#45;&gt;Node17</title>
<g id="a_edge20_Node000014_Node000017"><a xlink:title=" ">
<path fill="none" stroke="#63b8ff" d="M553.5,-170.12C512.09,-163.08 427.44,-148.18 345.73,-130"/>
<polygon fill="#63b8ff" stroke="#63b8ff" points="346.75,-126.65 336.22,-127.87 345.21,-133.48 346.75,-126.65"/>
</a>
</g>
</g>
<!-- Node18 -->
<g id="Node000018" class="node">
<title>Node18</title>
<g id="a_Node000018"><a xlink:title=" ">
<polygon fill="#e0e0e0" stroke="#999999" points="417.38,-129.75 352.62,-129.75 352.62,-110.5 417.38,-110.5 417.38,-129.75"/>
<text text-anchor="middle" x="385" y="-116.25" font-family="Helvetica,sans-Serif" font-size="10.00">GuiTypes.h</text>
</a>
</g>
</g>
<!-- Node14&#45;&gt;Node18 -->
<g id="edge21_Node000014_Node000018" class="edge">
<title>Node14&#45;&gt;Node18</title>
<g id="a_edge21_Node000014_Node000018"><a xlink:title=" ">
<path fill="none" stroke="#63b8ff" d="M553.64,-167.41C521.95,-158.72 467.21,-143.69 428.71,-133.12"/>
<polygon fill="#63b8ff" stroke="#63b8ff" points="429.85,-129.81 419.28,-130.54 428,-136.56 429.85,-129.81"/>
</a>
</g>
</g>
<!-- Node19 -->
<g id="Node000019" class="node">
<title>Node19</title>
<g id="a_Node000019"><a xlink:title=" ">
<polygon fill="#e0e0e0" stroke="#999999" points="481,-129.75 435,-129.75 435,-110.5 481,-110.5 481,-129.75"/>
<text text-anchor="middle" x="458" y="-116.25" font-family="Helvetica,sans-Serif" font-size="10.00">TBox.h</text>
</a>
</g>
</g>
<!-- Node14&#45;&gt;Node19 -->
<g id="edge23_Node000014_Node000019" class="edge">
<title>Node14&#45;&gt;Node19</title>
<g id="a_edge23_Node000014_Node000019"><a xlink:title=" ">
<path fill="none" stroke="#63b8ff" d="M558.47,-165.34C539.44,-156.97 510.85,-144.38 489.03,-134.78"/>
<polygon fill="#63b8ff" stroke="#63b8ff" points="490.57,-131.64 480.01,-130.81 487.76,-138.04 490.57,-131.64"/>
</a>
</g>
</g>
<!-- Node20 -->
<g id="Node000020" class="node">
<title>Node20</title>
<g id="a_Node000020"><a xlink:href="_globals_8h.html" target="_top" xlink:title=" ">
<polygon fill="white" stroke="#666666" points="1178.25,-129.75 1121.75,-129.75 1121.75,-110.5 1178.25,-110.5 1178.25,-129.75"/>
<text text-anchor="middle" x="1150" y="-116.25" font-family="Helvetica,sans-Serif" font-size="10.00">Globals.h</text>
</a>
</g>
</g>
<!-- Node14&#45;&gt;Node20 -->
<g id="edge24_Node000014_Node000020" class="edge">
<title>Node14&#45;&gt;Node20</title>
<g id="a_edge24_Node000014_Node000020"><a xlink:title=" ">
<path fill="none" stroke="#63b8ff" d="M604.52,-167.42C607.37,-166.79 610.24,-166.21 613,-165.75 797.12,-134.96 1020.47,-125.06 1110.03,-122.19"/>
<polygon fill="#63b8ff" stroke="#63b8ff" points="1109.87,-125.69 1119.75,-121.89 1109.65,-118.7 1109.87,-125.69"/>
</a>
</g>
</g>
<!-- Node33 -->
<g id="Node000033" class="node">
<title>Node33</title>
<g id="a_Node000033"><a xlink:href="_g_h2_i_8h.html" target="_top" xlink:title=" ">
<polygon fill="white" stroke="#666666" points="545.38,-129.75 498.62,-129.75 498.62,-110.5 545.38,-110.5 545.38,-129.75"/>
<text text-anchor="middle" x="522" y="-116.25" font-family="Helvetica,sans-Serif" font-size="10.00">GH2I.h</text>
</a>
</g>
</g>
<!-- Node14&#45;&gt;Node33 -->
<g id="edge40_Node000014_Node000033" class="edge">
<title>Node14&#45;&gt;Node33</title>
<g id="a_edge40_Node000014_Node000033"><a xlink:title=" ">
<path fill="none" stroke="#63b8ff" d="M569.33,-165.34C561.26,-157.8 549.53,-146.85 539.78,-137.73"/>
<polygon fill="#63b8ff" stroke="#63b8ff" points="542.33,-135.33 532.63,-131.06 537.55,-140.44 542.33,-135.33"/>
</a>
</g>
</g>
<!-- Node20&#45;&gt;Node3 -->
<g id="edge29_Node000020_Node000003" class="edge">
<title>Node20&#45;&gt;Node3</title>
<g id="a_edge29_Node000020_Node000003"><a xlink:title=" ">
<path fill="none" stroke="#63b8ff" d="M1178.53,-119.84C1251.62,-121.01 1442.57,-119.59 1482,-74.5 1487.63,-68.06 1487.9,-61.45 1482,-55.25 1451.38,-23.08 769.63,-12.93 610.84,-10.99"/>
<polygon fill="#63b8ff" stroke="#63b8ff" points="611.07,-7.49 601.03,-10.88 610.99,-14.49 611.07,-7.49"/>
</a>
</g>
</g>
<!-- Node20&#45;&gt;Node11 -->
<g id="edge30_Node000020_Node000011" class="edge">
<title>Node20&#45;&gt;Node11</title>
<g id="a_edge30_Node000020_Node000011"><a xlink:title=" ">
<path fill="none" stroke="#63b8ff" d="M1178.65,-118.69C1272.36,-116.78 1561.23,-106.69 1515,-55.25 1489.56,-26.95 1227.58,-15.11 1132.35,-11.72"/>
<polygon fill="#63b8ff" stroke="#63b8ff" points="1132.71,-8.23 1122.6,-11.38 1132.47,-15.23 1132.71,-8.23"/>
</a>
</g>
</g>
<!-- Node20&#45;&gt;Node12 -->
<g id="edge25_Node000020_Node000012" class="edge">
<title>Node20&#45;&gt;Node12</title>
<g id="a_edge25_Node000020_Node000012"><a xlink:title=" ">
<path fill="none" stroke="#63b8ff" d="M1178.47,-116.93C1244.53,-111.62 1413.29,-96.88 1553,-74.5 1554.01,-74.34 1555.02,-74.17 1556.05,-73.99"/>
<polygon fill="#63b8ff" stroke="#63b8ff" points="1556.49,-77.47 1565.68,-72.19 1555.2,-70.59 1556.49,-77.47"/>
</a>
</g>
</g>
<!-- Node21 -->
<g id="Node000021" class="node">
<title>Node21</title>
<g id="a_Node000021"><a xlink:title=" ">
<polygon fill="#e0e0e0" stroke="#999999" points="1005.88,-74.5 956.12,-74.5 956.12,-55.25 1005.88,-55.25 1005.88,-74.5"/>
<text text-anchor="middle" x="981" y="-61" font-family="Helvetica,sans-Serif" font-size="10.00">iomanip</text>
</a>
</g>
</g>
<!-- Node20&#45;&gt;Node21 -->
<g id="edge26_Node000020_Node000021" class="edge">
<title>Node20&#45;&gt;Node21</title>
<g id="a_edge26_Node000020_Node000021"><a xlink:title=" ">
<path fill="none" stroke="#63b8ff" d="M1121.33,-110.09C1092.56,-101.03 1048.17,-87.04 1017.03,-77.23"/>
<polygon fill="#63b8ff" stroke="#63b8ff" points="1018.25,-73.94 1007.66,-74.28 1016.15,-80.62 1018.25,-73.94"/>
</a>
</g>
</g>
<!-- Node22 -->
<g id="Node000022" class="node">
<title>Node22</title>
<g id="a_Node000022"><a xlink:title=" ">
<polygon fill="#e0e0e0" stroke="#999999" points="1082,-74.5 1024,-74.5 1024,-55.25 1082,-55.25 1082,-74.5"/>
<text text-anchor="middle" x="1053" y="-61" font-family="Helvetica,sans-Serif" font-size="10.00">stdexcept</text>
</a>
</g>
</g>
<!-- Node20&#45;&gt;Node22 -->
<g id="edge27_Node000020_Node000022" class="edge">
<title>Node20&#45;&gt;Node22</title>
<g id="a_edge27_Node000020_Node000022"><a xlink:title=" ">
<path fill="none" stroke="#63b8ff" d="M1133.55,-110.09C1118.77,-101.98 1096.82,-89.93 1079.57,-80.46"/>
<polygon fill="#63b8ff" stroke="#63b8ff" points="1081.31,-77.43 1070.86,-75.68 1077.94,-83.56 1081.31,-77.43"/>
</a>
</g>
</g>
<!-- Node23 -->
<g id="Node000023" class="node">
<title>Node23</title>
<g id="a_Node000023"><a xlink:title=" ">
<polygon fill="#e0e0e0" stroke="#999999" points="1140,-74.5 1100,-74.5 1100,-55.25 1140,-55.25 1140,-74.5"/>
<text text-anchor="middle" x="1120" y="-61" font-family="Helvetica,sans-Serif" font-size="10.00">string</text>
</a>
</g>
</g>
<!-- Node20&#45;&gt;Node23 -->
<g id="edge28_Node000020_Node000023" class="edge">
<title>Node20&#45;&gt;Node23</title>
<g id="a_edge28_Node000020_Node000023"><a xlink:title=" ">
<path fill="none" stroke="#63b8ff" d="M1145.05,-110.33C1141.12,-103.36 1135.49,-93.37 1130.56,-84.62"/>
<polygon fill="#63b8ff" stroke="#63b8ff" points="1133.76,-83.17 1125.8,-76.18 1127.66,-86.61 1133.76,-83.17"/>
</a>
</g>
</g>
<!-- Node24 -->
<g id="Node000024" class="node">
<title>Node24</title>
<g id="a_Node000024"><a xlink:title=" ">
<polygon fill="#e0e0e0" stroke="#999999" points="1202.25,-74.5 1157.75,-74.5 1157.75,-55.25 1202.25,-55.25 1202.25,-74.5"/>
<text text-anchor="middle" x="1180" y="-61" font-family="Helvetica,sans-Serif" font-size="10.00">cstdlib</text>
</a>
</g>
</g>
<!-- Node20&#45;&gt;Node24 -->
<g id="edge31_Node000020_Node000024" class="edge">
<title>Node20&#45;&gt;Node24</title>
<g id="a_edge31_Node000020_Node000024"><a xlink:title=" ">
<path fill="none" stroke="#63b8ff" d="M1154.95,-110.33C1158.88,-103.36 1164.51,-93.37 1169.44,-84.62"/>
<polygon fill="#63b8ff" stroke="#63b8ff" points="1172.34,-86.61 1174.2,-76.18 1166.24,-83.17 1172.34,-86.61"/>
</a>
</g>
</g>
<!-- Node25 -->
<g id="Node000025" class="node">
<title>Node25</title>
<g id="a_Node000025"><a xlink:title=" ">
<polygon fill="#e0e0e0" stroke="#999999" points="1279.75,-74.5 1220.25,-74.5 1220.25,-55.25 1279.75,-55.25 1279.75,-74.5"/>
<text text-anchor="middle" x="1250" y="-61" font-family="Helvetica,sans-Serif" font-size="10.00">execinfo.h</text>
</a>
</g>
</g>
<!-- Node20&#45;&gt;Node25 -->
<g id="edge32_Node000020_Node000025" class="edge">
<title>Node20&#45;&gt;Node25</title>
<g id="a_edge32_Node000020_Node000025"><a xlink:title=" ">
<path fill="none" stroke="#63b8ff" d="M1166.96,-110.09C1182.26,-101.94 1205.03,-89.82 1222.86,-80.33"/>
<polygon fill="#63b8ff" stroke="#63b8ff" points="1224.44,-83.45 1231.62,-75.66 1221.15,-77.27 1224.44,-83.45"/>
</a>
</g>
</g>
<!-- Node26 -->
<g id="Node000026" class="node">
<title>Node26</title>
<g id="a_Node000026"><a xlink:title=" ">
<polygon fill="#e0e0e0" stroke="#999999" points="1348.25,-74.5 1297.75,-74.5 1297.75,-55.25 1348.25,-55.25 1348.25,-74.5"/>
<text text-anchor="middle" x="1323" y="-61" font-family="Helvetica,sans-Serif" font-size="10.00">cxxabi.h</text>
</a>
</g>
</g>
<!-- Node20&#45;&gt;Node26 -->
<g id="edge33_Node000020_Node000026" class="edge">
<title>Node20&#45;&gt;Node26</title>
<g id="a_edge33_Node000020_Node000026"><a xlink:title=" ">
<path fill="none" stroke="#63b8ff" d="M1178.57,-110.33C1208.19,-101.22 1254.57,-86.94 1286.75,-77.03"/>
<polygon fill="#63b8ff" stroke="#63b8ff" points="1287.52,-80.46 1296.05,-74.17 1285.46,-73.77 1287.52,-80.46"/>
</a>
</g>
</g>
<!-- Node27 -->
<g id="Node000027" class="node">
<title>Node27</title>
<g id="a_Node000027"><a xlink:title=" ">
<polygon fill="#e0e0e0" stroke="#999999" points="1417.62,-74.5 1366.38,-74.5 1366.38,-55.25 1417.62,-55.25 1417.62,-74.5"/>
<text text-anchor="middle" x="1392" y="-61" font-family="Helvetica,sans-Serif" font-size="10.00">sstream</text>
</a>
</g>
</g>
<!-- Node20&#45;&gt;Node27 -->
<g id="edge34_Node000020_Node000027" class="edge">
<title>Node20&#45;&gt;Node27</title>
<g id="a_edge34_Node000020_Node000027"><a xlink:title=" ">
<path fill="none" stroke="#63b8ff" d="M1178.52,-113.25C1216.46,-105.38 1285.9,-90.77 1354.95,-74.92"/>
<polygon fill="#63b8ff" stroke="#63b8ff" points="1355.59,-78.36 1364.55,-72.71 1354.02,-71.54 1355.59,-78.36"/>
</a>
</g>
</g>
<!-- Node28 -->
<g id="Node000028" class="node">
<title>Node28</title>
<g id="a_Node000028"><a xlink:title=" ">
<polygon fill="#e0e0e0" stroke="#999999" points="1472.5,-74.5 1435.5,-74.5 1435.5,-55.25 1472.5,-55.25 1472.5,-74.5"/>
<text text-anchor="middle" x="1454" y="-61" font-family="Helvetica,sans-Serif" font-size="10.00">array</text>
</a>
</g>
</g>
<!-- Node20&#45;&gt;Node28 -->
<g id="edge35_Node000020_Node000028" class="edge">
<title>Node20&#45;&gt;Node28</title>
<g id="a_edge35_Node000020_Node000028"><a xlink:title=" ">
<path fill="none" stroke="#63b8ff" d="M1178.59,-115.95C1227.27,-110.24 1329.5,-96.93 1424.29,-74.86"/>
<polygon fill="#63b8ff" stroke="#63b8ff" points="1424.82,-78.33 1433.75,-72.62 1423.21,-71.52 1424.82,-78.33"/>
</a>
</g>
</g>
<!-- Node29 -->
<g id="Node000029" class="node">
<title>Node29</title>
<g id="a_Node000029"><a xlink:title=" ">
<polygon fill="#e0e0e0" stroke="#999999" points="714.25,-74.5 663.75,-74.5 663.75,-55.25 714.25,-55.25 714.25,-74.5"/>
<text text-anchor="middle" x="689" y="-61" font-family="Helvetica,sans-Serif" font-size="10.00">memory</text>
</a>
</g>
</g>
<!-- Node20&#45;&gt;Node29 -->
<g id="edge36_Node000020_Node000029" class="edge">
<title>Node20&#45;&gt;Node29</title>
<g id="a_edge36_Node000020_Node000029"><a xlink:title=" ">
<path fill="none" stroke="#63b8ff" d="M1121.32,-117.56C1053.9,-113.58 880,-101.55 725.61,-74.73"/>
<polygon fill="#63b8ff" stroke="#63b8ff" points="726.48,-71.33 716.02,-73.04 725.26,-78.22 726.48,-71.33"/>
</a>
</g>
</g>
<!-- Node30 -->
<g id="Node000030" class="node">
<title>Node30</title>
<g id="a_Node000030"><a xlink:title=" ">
<polygon fill="#e0e0e0" stroke="#999999" points="781.88,-74.5 732.12,-74.5 732.12,-55.25 781.88,-55.25 781.88,-74.5"/>
<text text-anchor="middle" x="757" y="-61" font-family="Helvetica,sans-Serif" font-size="10.00">unistd.h</text>
</a>
</g>
</g>
<!-- Node20&#45;&gt;Node30 -->
<g id="edge37_Node000020_Node000030" class="edge">
<title>Node20&#45;&gt;Node30</title>
<g id="a_edge37_Node000020_Node000030"><a xlink:title=" ">
<path fill="none" stroke="#63b8ff" d="M1121.42,-116.79C1062.11,-111.7 921.19,-98.24 793.32,-74.72"/>
<polygon fill="#63b8ff" stroke="#63b8ff" points="794.13,-71.31 783.66,-72.91 792.85,-78.19 794.13,-71.31"/>
</a>
</g>
</g>
<!-- Node31 -->
<g id="Node000031" class="node">
<title>Node31</title>
<g id="a_Node000031"><a xlink:title=" ">
<polygon fill="#e0e0e0" stroke="#999999" points="859.75,-74.5 800.25,-74.5 800.25,-55.25 859.75,-55.25 859.75,-74.5"/>
<text text-anchor="middle" x="830" y="-61" font-family="Helvetica,sans-Serif" font-size="10.00">sys/wait.h</text>
</a>
</g>
</g>
<!-- Node20&#45;&gt;Node31 -->
<g id="edge38_Node000020_Node000031" class="edge">
<title>Node20&#45;&gt;Node31</title>
<g id="a_edge38_Node000020_Node000031"><a xlink:title=" ">
<path fill="none" stroke="#63b8ff" d="M1121.58,-115.19C1072.64,-108.29 969.03,-93.14 871.45,-74.87"/>
<polygon fill="#63b8ff" stroke="#63b8ff" points="872.16,-71.44 861.68,-73.02 870.86,-78.32 872.16,-71.44"/>
</a>
</g>
</g>
<!-- Node32 -->
<g id="Node000032" class="node">
<title>Node32</title>
<g id="a_Node000032"><a xlink:title=" ">
<polygon fill="#e0e0e0" stroke="#999999" points="938.12,-74.5 877.88,-74.5 877.88,-55.25 938.12,-55.25 938.12,-74.5"/>
<text text-anchor="middle" x="908" y="-61" font-family="Helvetica,sans-Serif" font-size="10.00">sys/prctl.h</text>
</a>
</g>
</g>
<!-- Node20&#45;&gt;Node32 -->
<g id="edge39_Node000020_Node000032" class="edge">
<title>Node20&#45;&gt;Node32</title>
<g id="a_edge39_Node000020_Node000032"><a xlink:title=" ">
<path fill="none" stroke="#63b8ff" d="M1121.42,-112.85C1084.2,-104.68 1016.79,-89.88 949.47,-75.04"/>
<polygon fill="#63b8ff" stroke="#63b8ff" points="950.23,-71.63 939.71,-72.89 948.72,-78.46 950.23,-71.63"/>
</a>
</g>
</g>
<!-- Node33&#45;&gt;Node3 -->
<g id="edge41_Node000033_Node000003" class="edge">
<title>Node33&#45;&gt;Node3</title>
<g id="a_edge41_Node000033_Node000003"><a xlink:title=" ">
<path fill="none" stroke="#63b8ff" d="M538.26,-110.1C550.43,-102.38 566.26,-90.05 574,-74.5 580.76,-60.93 581.45,-43.69 580.62,-30.54"/>
<polygon fill="#63b8ff" stroke="#63b8ff" points="584.14,-30.55 579.66,-20.94 577.17,-31.24 584.14,-30.55"/>
</a>
</g>
</g>
<!-- Node33&#45;&gt;Node4 -->
<g id="edge42_Node000033_Node000004" class="edge">
<title>Node33&#45;&gt;Node4</title>
<g id="a_edge42_Node000033_Node000004"><a xlink:title=" ">
<path fill="none" stroke="#63b8ff" d="M498.16,-111.99C470.82,-103.29 428.52,-88.06 419,-74.5 410.1,-61.83 409.71,-44.03 411.19,-30.43"/>
<polygon fill="#63b8ff" stroke="#63b8ff" points="414.6,-31.32 412.67,-20.9 407.68,-30.25 414.6,-31.32"/>
</a>
</g>
</g>
<!-- Node33&#45;&gt;Node5 -->
<g id="edge43_Node000033_Node000005" class="edge">
<title>Node33&#45;&gt;Node5</title>
<g id="a_edge43_Node000033_Node000005"><a xlink:title=" ">
<path fill="none" stroke="#63b8ff" d="M498.16,-111.11C469.48,-101.25 423.26,-84.56 408,-74.5 388.77,-61.83 370.73,-42.48 358.93,-28.4"/>
<polygon fill="#63b8ff" stroke="#63b8ff" points="361.79,-26.37 352.77,-20.82 356.36,-30.78 361.79,-26.37"/>
</a>
</g>
</g>
<!-- Node33&#45;&gt;Node6 -->
<g id="edge44_Node000033_Node000006" class="edge">
<title>Node33&#45;&gt;Node6</title>
<g id="a_edge44_Node000033_Node000006"><a xlink:title=" ">
<path fill="none" stroke="#63b8ff" d="M520.45,-110.25C517.43,-93 510.7,-54.58 506.54,-30.81"/>
<polygon fill="#63b8ff" stroke="#63b8ff" points="510.01,-30.36 504.84,-21.12 503.11,-31.57 510.01,-30.36"/>
</a>
</g>
</g>
<!-- Node33&#45;&gt;Node7 -->
<g id="edge45_Node000033_Node000007" class="edge">
<title>Node33&#45;&gt;Node7</title>
<g id="a_edge45_Node000033_Node000007"><a xlink:title=" ">
<path fill="none" stroke="#63b8ff" d="M498.26,-112.62C495.48,-111.89 492.68,-111.17 490,-110.5 440.96,-98.23 384.61,-85.34 345.51,-76.58"/>
<polygon fill="#63b8ff" stroke="#63b8ff" points="346.46,-73.21 335.93,-74.45 344.93,-80.04 346.46,-73.21"/>
</a>
</g>
</g>
<!-- Node33&#45;&gt;Node8 -->
<g id="edge46_Node000033_Node000008" class="edge">
<title>Node33&#45;&gt;Node8</title>
<g id="a_edge46_Node000033_Node000008"><a xlink:title=" ">
<path fill="none" stroke="#63b8ff" d="M498.31,-112.42C495.52,-111.72 492.7,-111.07 490,-110.5 388.35,-89.22 358.52,-94.04 253.13,-74.76"/>
<polygon fill="#63b8ff" stroke="#63b8ff" points="253.96,-71.36 243.49,-72.97 252.68,-78.24 253.96,-71.36"/>
</a>
</g>
</g>
<!-- Node33&#45;&gt;Node10 -->
<g id="edge47_Node000033_Node000010" class="edge">
<title>Node33&#45;&gt;Node10</title>
<g id="a_edge47_Node000033_Node000010"><a xlink:title=" ">
<path fill="none" stroke="#63b8ff" d="M511.65,-110.09C502.92,-102.47 490.21,-91.37 479.7,-82.2"/>
<polygon fill="#63b8ff" stroke="#63b8ff" points="482.17,-79.71 472.34,-75.77 477.57,-84.98 482.17,-79.71"/>
</a>
</g>
</g>
</g>
</svg>

<g id="navigator" transform="translate(0 0)" fill="#404254">
  <rect fill="#f2f5e9" fill-opacity="0.5" stroke="#606060" stroke-width=".5" x="0" y="0" width="60" height="60"/>
  <use id="zoomplus" xlink:href="#zoomPlus" x="17" y="9" onmousedown="handleZoom(evt,'in')"/>
  <use id="zoomminus" xlink:href="#zoomMin" x="42" y="9" onmousedown="handleZoom(evt,'out')"/>
  <use id="reset" xlink:href="#resetDef" x="30" y="36" onmousedown="handleReset()"/>
   <use id="arrowup" xlink:href="#arrowUp" x="0" y="0" onmousedown="handlePan(0,-1)"/>
  <use id="arrowright" xlink:href="#arrowRight" x="0" y="0" onmousedown="handlePan(1,0)"/>
  <use id="arrowdown" xlink:href="#arrowDown" x="0" y="0" onmousedown="handlePan(0,1)"/>
  <use id="arrowleft" xlink:href="#arrowLeft" x="0" y="0" onmousedown="handlePan(-1,0)"/>
</g>
<svg viewBox="0 0 15 15" width="100%" height="30px" preserveAspectRatio="xMaxYMin meet">
 <g id="arrow_out" transform="scale(0.3 0.3)">
  <a xlink:href="_g_h2_d_8cxx__incl_org.svg" target="_base">
   <rect id="button" ry="5" rx="5" y="6" x="6" height="38" width="38"
        fill="#f2f5e9" fill-opacity="0.5" stroke="#606060" stroke-width="1.0"/>
   <path id="arrow"
     d="M 11.500037,31.436501 C 11.940474,20.09759 22.043105,11.32322 32.158766,21.979434 L 37.068811,17.246167 C 37.068811,17.246167 37.088388,32 37.088388,32 L 22.160133,31.978069 C 22.160133,31.978069 26.997745,27.140456 26.997745,27.140456 C 18.528582,18.264221 13.291696,25.230495 11.500037,31.436501 z"
     style="fill:#404040;"/>
  </a>
 </g>
</svg>

<style type='text/css'>
<![CDATA[
[data-mouse-over-selected='false'] { opacity: 0.7; }
[data-mouse-over-selected='true']  { opacity: 1.0; }
]]>
</style>
<script type="application/ecmascript"><![CDATA[
document.addEventListener('DOMContentLoaded', (event) => {
  highlightEdges();
  highlightAdjacentNodes();
});
]]></script>
</svg>
