<?xml version="1.0" encoding="UTF-8" standalone="no"?>
<!DOCTYPE svg PUBLIC "-//W3C//DTD SVG 1.1//EN"
 "http://www.w3.org/Graphics/SVG/1.1/DTD/svg11.dtd">
<!-- Generated by graphviz version 12.2.0 (20241103.1931)
 -->
<!-- Title: GH2D.cxx Pages: 1 -->
<!--zoomable 248 -->

<svg id="main" version="1.1" xmlns="http://www.w3.org/2000/svg" xmlns:xlink="http://www.w3.org/1999/xlink" xml:space="preserve" onload="init(evt)">

<style type="text/css"><![CDATA[
.node, .edge {opacity: 0.7;}
.node.selected, .edge.selected {opacity: 1;}
.edge:hover path { stroke: red; }
.edge:hover polygon { stroke: red; fill: red; }
]]></style>

<defs>
  <circle id="rim" cx="0" cy="0" r="7"/>
  <circle id="rim2" cx="0" cy="0" r="3.5"/>
  <g id="zoomPlus">
    <use xlink:href="#rim" fill="#404040"><set attributeName="fill" to="#808080" begin="zoomplus.mouseover" end="zoomplus.mouseout"/></use>
    <path d="M-4,0h8M0,-4v8" fill="none" stroke="white" stroke-width="1.5" pointer-events="none"/>
  </g>
  <g id="zoomMin">
    <use xlink:href="#rim" fill="#404040"><set attributeName="fill" to="#808080" begin="zoomminus.mouseover" end="zoomminus.mouseout"/></use>
    <path d="M-4,0h8" fill="none" stroke="white" stroke-width="1.5" pointer-events="none"/>
  </g>
  <g id="arrowUp" transform="translate(30 24)">
    <use xlink:href="#rim"/>
    <path pointer-events="none" fill="none" stroke="white" stroke-width="1.5" d="M0,-3.0v7 M-2.5,-0.5L0,-3.0L2.5,-0.5"/>
  </g>
  <g id="arrowRight" transform="rotate(90) translate(36 -43)">
    <use xlink:href="#rim"/>
    <path pointer-events="none" fill="none" stroke="white" stroke-width="1.5" d="M0,-3.0v7 M-2.5,-0.5L0,-3.0L2.5,-0.5"/>
  </g>
  <g id="arrowDown" transform="rotate(180) translate(-30 -48)">
    <use xlink:href="#rim"/>
    <path pointer-events="none" fill="none" stroke="white" stroke-width="1.5" d="M0,-3.0v7 M-2.5,-0.5L0,-3.0L2.5,-0.5"/>
  </g>
  <g id="arrowLeft" transform="rotate(270) translate(-36 17)">
    <use xlink:href="#rim"/>
    <path pointer-events="none" fill="none" stroke="white" stroke-width="1.5" d="M0,-3.0v7 M-2.5,-0.5L0,-3.0L2.5,-0.5"/>
  </g>
  <g id="resetDef">
    <use xlink:href="#rim2" fill="#404040"><set attributeName="fill" to="#808080" begin="reset.mouseover" end="reset.mouseout"/></use>
  </g>
</defs>
<script type="application/ecmascript">
var viewWidth = 1591;
var viewHeight = 248;
var sectionId = 'dynsection-0';
</script>
<script type="application/ecmascript" xlink:href="svg.min.js"/>
<svg id="graph" class="graph">
<g id="viewport">
<title>GH2D.cxx</title>
<!-- Node1 -->
<g id="Node000001" class="node">
<title>Node1</title>
<g id="a_Node000001"><a xlink:title=" ">
<polygon fill="#999999" stroke="#666666" points="1131.75,-240.25 1072.25,-240.25 1072.25,-221 1131.75,-221 1131.75,-240.25"/>
<text text-anchor="middle" x="1102" y="-226.75" font-family="Helvetica,sans-Serif" font-size="10.00">GH2D.cxx</text>
</a>
</g>
</g>
<!-- Node2 -->
<g id="Node000002" class="node">
<title>Node2</title>
<g id="a_Node000002"><a xlink:href="_g_h2_d_8h.html" target="_top" xlink:title=" ">
<polygon fill="white" stroke="#666666" points="265.25,-129.75 214.75,-129.75 214.75,-110.5 265.25,-110.5 265.25,-129.75"/>
<text text-anchor="middle" x="240" y="-116.25" font-family="Helvetica,sans-Serif" font-size="10.00">GH2D.h</text>
</a>
</g>
</g>
<!-- Node1&#45;&gt;Node2 -->
<g id="edge1_Node000001_Node000002" class="edge">
<title>Node1&#45;&gt;Node2</title>
<g id="a_edge1_Node000001_Node000002"><a xlink:title=" ">
<path fill="none" stroke="#63b8ff" d="M1071.83,-225.83C940.68,-209.32 420.33,-143.82 276.82,-125.76"/>
<polygon fill="#63b8ff" stroke="#63b8ff" points="277.49,-122.32 267.13,-124.54 276.61,-129.26 277.49,-122.32"/>
</a>
</g>
</g>
<!-- Node11 -->
<g id="Node000011" class="node">
<title>Node11</title>
<g id="a_Node000011"><a xlink:title=" ">
<polygon fill="#e0e0e0" stroke="#999999" points="1582.75,-74.5 1529.25,-74.5 1529.25,-55.25 1582.75,-55.25 1582.75,-74.5"/>
<text text-anchor="middle" x="1556" y="-61" font-family="Helvetica,sans-Serif" font-size="10.00">iostream</text>
</a>
</g>
</g>
<!-- Node1&#45;&gt;Node11 -->
<g id="edge14_Node000001_Node000011" class="edge">
<title>Node1&#45;&gt;Node11</title>
<g id="a_edge14_Node000001_Node000011"><a xlink:title=" ">
<path fill="none" stroke="#63b8ff" d="M1127.06,-220.59C1203.09,-193.16 1431.37,-110.83 1520.14,-78.81"/>
<polygon fill="#63b8ff" stroke="#63b8ff" points="1521.1,-82.18 1529.32,-75.5 1518.72,-75.6 1521.1,-82.18"/>
</a>
</g>
</g>
<!-- Node12 -->
<g id="Node000012" class="node">
<title>Node12</title>
<g id="a_Node000012"><a xlink:title=" ">
<polygon fill="#e0e0e0" stroke="#999999" points="1174.88,-185 1107.12,-185 1107.12,-165.75 1174.88,-165.75 1174.88,-185"/>
<text text-anchor="middle" x="1141" y="-171.5" font-family="Helvetica,sans-Serif" font-size="10.00">TDirectory.h</text>
</a>
</g>
</g>
<!-- Node1&#45;&gt;Node12 -->
<g id="edge15_Node000001_Node000012" class="edge">
<title>Node1&#45;&gt;Node12</title>
<g id="a_edge15_Node000001_Node000012"><a xlink:title=" ">
<path fill="none" stroke="#63b8ff" d="M1108.44,-220.83C1113.66,-213.71 1121.19,-203.43 1127.69,-194.55"/>
<polygon fill="#63b8ff" stroke="#63b8ff" points="1130.44,-196.72 1133.53,-186.58 1124.79,-192.58 1130.44,-196.72"/>
</a>
</g>
</g>
<!-- Node13 -->
<g id="Node000013" class="node">
<title>Node13</title>
<g id="a_Node000013"><a xlink:href="_g_h1_d_8h.html" target="_top" xlink:title=" ">
<polygon fill="white" stroke="#666666" points="1089.25,-185 1038.75,-185 1038.75,-165.75 1089.25,-165.75 1089.25,-185"/>
<text text-anchor="middle" x="1064" y="-171.5" font-family="Helvetica,sans-Serif" font-size="10.00">GH1D.h</text>
</a>
</g>
</g>
<!-- Node1&#45;&gt;Node13 -->
<g id="edge16_Node000001_Node000013" class="edge">
<title>Node1&#45;&gt;Node13</title>
<g id="a_edge16_Node000001_Node000013"><a xlink:title=" ">
<path fill="none" stroke="#63b8ff" d="M1095.73,-220.83C1090.64,-213.71 1083.3,-203.43 1076.97,-194.55"/>
<polygon fill="#63b8ff" stroke="#63b8ff" points="1079.95,-192.7 1071.29,-186.59 1074.25,-196.76 1079.95,-192.7"/>
</a>
</g>
</g>
<!-- Node3 -->
<g id="Node000003" class="node">
<title>Node3</title>
<g id="a_Node000003"><a xlink:title=" ">
<polygon fill="#e0e0e0" stroke="#999999" points="448.12,-19.25 405.88,-19.25 405.88,0 448.12,0 448.12,-19.25"/>
<text text-anchor="middle" x="427" y="-5.75" font-family="Helvetica,sans-Serif" font-size="10.00">cstdio</text>
</a>
</g>
</g>
<!-- Node2&#45;&gt;Node3 -->
<g id="edge2_Node000002_Node000003" class="edge">
<title>Node2&#45;&gt;Node3</title>
<g id="a_edge2_Node000002_Node000003"><a xlink:title=" ">
<path fill="none" stroke="#63b8ff" d="M240.81,-110.29C242.54,-96.51 247.89,-69.94 264,-55.25 300.04,-22.39 357.99,-13.39 394.21,-11.12"/>
<polygon fill="#63b8ff" stroke="#63b8ff" points="394.26,-14.62 404.08,-10.65 393.93,-7.63 394.26,-14.62"/>
</a>
</g>
</g>
<!-- Node4 -->
<g id="Node000004" class="node">
<title>Node4</title>
<g id="a_Node000004"><a xlink:title=" ">
<polygon fill="#e0e0e0" stroke="#999999" points="244.5,-19.25 183.5,-19.25 183.5,0 244.5,0 244.5,-19.25"/>
<text text-anchor="middle" x="214" y="-5.75" font-family="Helvetica,sans-Serif" font-size="10.00">TNamed.h</text>
</a>
</g>
</g>
<!-- Node2&#45;&gt;Node4 -->
<g id="edge3_Node000002_Node000004" class="edge">
<title>Node2&#45;&gt;Node4</title>
<g id="a_edge3_Node000002_Node000004"><a xlink:title=" ">
<path fill="none" stroke="#63b8ff" d="M214.63,-116C190.07,-111.48 154.11,-100.56 137,-74.5 123.05,-53.25 150.21,-35.42 176.04,-24.05"/>
<polygon fill="#63b8ff" stroke="#63b8ff" points="177.22,-27.35 185.13,-20.3 174.55,-20.88 177.22,-27.35"/>
</a>
</g>
</g>
<!-- Node5 -->
<g id="Node000005" class="node">
<title>Node5</title>
<g id="a_Node000005"><a xlink:title=" ">
<polygon fill="#e0e0e0" stroke="#999999" points="165.12,-19.25 122.88,-19.25 122.88,0 165.12,0 165.12,-19.25"/>
<text text-anchor="middle" x="144" y="-5.75" font-family="Helvetica,sans-Serif" font-size="10.00">TH2.h</text>
</a>
</g>
</g>
<!-- Node2&#45;&gt;Node5 -->
<g id="edge4_Node000002_Node000005" class="edge">
<title>Node2&#45;&gt;Node5</title>
<g id="a_edge4_Node000002_Node000005"><a xlink:title=" ">
<path fill="none" stroke="#63b8ff" d="M214.69,-116.91C188.26,-113.1 148.07,-102.72 129,-74.5 119.94,-61.09 125.55,-42.9 132.34,-29.36"/>
<polygon fill="#63b8ff" stroke="#63b8ff" points="135.19,-31.43 137.04,-21 129.09,-28 135.19,-31.43"/>
</a>
</g>
</g>
<!-- Node6 -->
<g id="Node000006" class="node">
<title>Node6</title>
<g id="a_Node000006"><a xlink:title=" ">
<polygon fill="#e0e0e0" stroke="#999999" points="584,-19.25 538,-19.25 538,0 584,0 584,-19.25"/>
<text text-anchor="middle" x="561" y="-5.75" font-family="Helvetica,sans-Serif" font-size="10.00">TList.h</text>
</a>
</g>
</g>
<!-- Node2&#45;&gt;Node6 -->
<g id="edge5_Node000002_Node000006" class="edge">
<title>Node2&#45;&gt;Node6</title>
<g id="a_edge5_Node000002_Node000006"><a xlink:title=" ">
<path fill="none" stroke="#63b8ff" d="M245.03,-110.41C253.68,-96.28 272.8,-68.62 297,-55.25 335.99,-33.71 464.56,-19.41 526.73,-13.58"/>
<polygon fill="#63b8ff" stroke="#63b8ff" points="526.74,-17.1 536.38,-12.7 526.1,-10.13 526.74,-17.1"/>
</a>
</g>
</g>
<!-- Node7 -->
<g id="Node000007" class="node">
<title>Node7</title>
<g id="a_Node000007"><a xlink:title=" ">
<polygon fill="#e0e0e0" stroke="#999999" points="380.25,-74.5 305.75,-74.5 305.75,-55.25 380.25,-55.25 380.25,-74.5"/>
<text text-anchor="middle" x="343" y="-61" font-family="Helvetica,sans-Serif" font-size="10.00">TVirtualPad.h</text>
</a>
</g>
</g>
<!-- Node2&#45;&gt;Node7 -->
<g id="edge6_Node000002_Node000007" class="edge">
<title>Node2&#45;&gt;Node7</title>
<g id="a_edge6_Node000002_Node000007"><a xlink:title=" ">
<path fill="none" stroke="#63b8ff" d="M257.47,-110.09C273.31,-101.91 296.91,-89.71 315.31,-80.19"/>
<polygon fill="#63b8ff" stroke="#63b8ff" points="316.82,-83.35 324.1,-75.65 313.61,-77.13 316.82,-83.35"/>
</a>
</g>
</g>
<!-- Node8 -->
<g id="Node000008" class="node">
<title>Node8</title>
<g id="a_Node000008"><a xlink:title=" ">
<polygon fill="#e0e0e0" stroke="#999999" points="455.62,-74.5 398.38,-74.5 398.38,-55.25 455.62,-55.25 455.62,-74.5"/>
<text text-anchor="middle" x="427" y="-61" font-family="Helvetica,sans-Serif" font-size="10.00">TFrame.h</text>
</a>
</g>
</g>
<!-- Node2&#45;&gt;Node8 -->
<g id="edge7_Node000002_Node000008" class="edge">
<title>Node2&#45;&gt;Node8</title>
<g id="a_edge7_Node000002_Node000008"><a xlink:title=" ">
<path fill="none" stroke="#63b8ff" d="M265.61,-111.83C296.97,-102.9 350.45,-87.67 387.2,-77.21"/>
<polygon fill="#63b8ff" stroke="#63b8ff" points="387.91,-80.65 396.56,-74.54 385.99,-73.91 387.91,-80.65"/>
</a>
</g>
</g>
<!-- Node9 -->
<g id="Node000009" class="node">
<title>Node9</title>
<g id="a_Node000009"><a xlink:title=" ">
<polygon fill="#e0e0e0" stroke="#999999" points="52,-74.5 0,-74.5 0,-55.25 52,-55.25 52,-74.5"/>
<text text-anchor="middle" x="26" y="-61" font-family="Helvetica,sans-Serif" font-size="10.00">TCutG.h</text>
</a>
</g>
</g>
<!-- Node2&#45;&gt;Node9 -->
<g id="edge8_Node000002_Node000009" class="edge">
<title>Node2&#45;&gt;Node9</title>
<g id="a_edge8_Node000002_Node000009"><a xlink:title=" ">
<path fill="none" stroke="#63b8ff" d="M214.61,-112.81C177.11,-103.48 106.67,-85.95 63.3,-75.16"/>
<polygon fill="#63b8ff" stroke="#63b8ff" points="64.38,-71.82 53.83,-72.8 62.69,-78.61 64.38,-71.82"/>
</a>
</g>
</g>
<!-- Node10 -->
<g id="Node000010" class="node">
<title>Node10</title>
<g id="a_Node000010"><a xlink:href="_g_h2_base_8h.html" target="_top" xlink:title=" ">
<polygon fill="white" stroke="#666666" points="212.12,-74.5 145.88,-74.5 145.88,-55.25 212.12,-55.25 212.12,-74.5"/>
<text text-anchor="middle" x="179" y="-61" font-family="Helvetica,sans-Serif" font-size="10.00">GH2Base.h</text>
</a>
</g>
</g>
<!-- Node2&#45;&gt;Node10 -->
<g id="edge9_Node000002_Node000010" class="edge">
<title>Node2&#45;&gt;Node10</title>
<g id="a_edge9_Node000002_Node000010"><a xlink:title=" ">
<path fill="none" stroke="#63b8ff" d="M229.65,-110.09C220.92,-102.47 208.21,-91.37 197.7,-82.2"/>
<polygon fill="#63b8ff" stroke="#63b8ff" points="200.17,-79.71 190.34,-75.77 195.57,-84.98 200.17,-79.71"/>
</a>
</g>
</g>
<!-- Node10&#45;&gt;Node3 -->
<g id="edge10_Node000010_Node000003" class="edge">
<title>Node10&#45;&gt;Node3</title>
<g id="a_edge10_Node000010_Node000003"><a xlink:title=" ">
<path fill="none" stroke="#63b8ff" d="M212.45,-56.69C260.1,-46.46 347,-27.8 394.26,-17.65"/>
<polygon fill="#63b8ff" stroke="#63b8ff" points="394.85,-21.11 403.9,-15.59 393.38,-14.26 394.85,-21.11"/>
</a>
</g>
</g>
<!-- Node10&#45;&gt;Node4 -->
<g id="edge11_Node000010_Node000004" class="edge">
<title>Node10&#45;&gt;Node4</title>
<g id="a_edge11_Node000010_Node000004"><a xlink:title=" ">
<path fill="none" stroke="#63b8ff" d="M184.78,-55.08C189.41,-48.03 196.07,-37.9 201.87,-29.08"/>
<polygon fill="#63b8ff" stroke="#63b8ff" points="204.7,-31.15 207.26,-20.87 198.85,-27.31 204.7,-31.15"/>
</a>
</g>
</g>
<!-- Node10&#45;&gt;Node5 -->
<g id="edge12_Node000010_Node000005" class="edge">
<title>Node10&#45;&gt;Node5</title>
<g id="a_edge12_Node000010_Node000005"><a xlink:title=" ">
<path fill="none" stroke="#63b8ff" d="M173.22,-55.08C168.59,-48.03 161.93,-37.9 156.13,-29.08"/>
<polygon fill="#63b8ff" stroke="#63b8ff" points="159.15,-27.31 150.74,-20.87 153.3,-31.15 159.15,-27.31"/>
</a>
</g>
</g>
<!-- Node10&#45;&gt;Node6 -->
<g id="edge13_Node000010_Node000006" class="edge">
<title>Node10&#45;&gt;Node6</title>
<g id="a_edge13_Node000010_Node000006"><a xlink:title=" ">
<path fill="none" stroke="#63b8ff" d="M212.57,-59.2C284.65,-49.15 453.63,-25.59 526.53,-15.43"/>
<polygon fill="#63b8ff" stroke="#63b8ff" points="526.85,-18.92 536.28,-14.07 525.89,-11.99 526.85,-18.92"/>
</a>
</g>
</g>
<!-- Node13&#45;&gt;Node6 -->
<g id="edge21_Node000013_Node000006" class="edge">
<title>Node13&#45;&gt;Node6</title>
<g id="a_edge21_Node000013_Node000006"><a xlink:title=" ">
<path fill="none" stroke="#63b8ff" d="M1038.56,-171.37C972.71,-162.92 792.26,-135.5 655,-74.5 626.9,-62.01 598.18,-41.06 580.01,-26.57"/>
<polygon fill="#63b8ff" stroke="#63b8ff" points="582.66,-24.22 572.7,-20.62 578.24,-29.65 582.66,-24.22"/>
</a>
</g>
</g>
<!-- Node14 -->
<g id="Node000014" class="node">
<title>Node14</title>
<g id="a_Node000014"><a xlink:title=" ">
<polygon fill="#e0e0e0" stroke="#999999" points="1119.12,-129.75 1076.88,-129.75 1076.88,-110.5 1119.12,-110.5 1119.12,-129.75"/>
<text text-anchor="middle" x="1098" y="-116.25" font-family="Helvetica,sans-Serif" font-size="10.00">TH1.h</text>
</a>
</g>
</g>
<!-- Node13&#45;&gt;Node14 -->
<g id="edge17_Node000013_Node000014" class="edge">
<title>Node13&#45;&gt;Node14</title>
<g id="a_edge17_Node000013_Node000014"><a xlink:title=" ">
<path fill="none" stroke="#63b8ff" d="M1069.61,-165.58C1074.12,-158.53 1080.59,-148.4 1086.21,-139.58"/>
<polygon fill="#63b8ff" stroke="#63b8ff" points="1089.02,-141.7 1091.45,-131.38 1083.12,-137.93 1089.02,-141.7"/>
</a>
</g>
</g>
<!-- Node15 -->
<g id="Node000015" class="node">
<title>Node15</title>
<g id="a_Node000015"><a xlink:title=" ">
<polygon fill="#e0e0e0" stroke="#999999" points="1181.25,-129.75 1136.75,-129.75 1136.75,-110.5 1181.25,-110.5 1181.25,-129.75"/>
<text text-anchor="middle" x="1159" y="-116.25" font-family="Helvetica,sans-Serif" font-size="10.00">TRef.h</text>
</a>
</g>
</g>
<!-- Node13&#45;&gt;Node15 -->
<g id="edge18_Node000013_Node000015" class="edge">
<title>Node13&#45;&gt;Node15</title>
<g id="a_edge18_Node000013_Node000015"><a xlink:title=" ">
<path fill="none" stroke="#63b8ff" d="M1080.12,-165.34C1094.58,-157.23 1116.08,-145.18 1132.98,-135.71"/>
<polygon fill="#63b8ff" stroke="#63b8ff" points="1134.47,-138.89 1141.49,-130.94 1131.05,-132.78 1134.47,-138.89"/>
</a>
</g>
</g>
<!-- Node16 -->
<g id="Node000016" class="node">
<title>Node16</title>
<g id="a_Node000016"><a xlink:title=" ">
<polygon fill="#e0e0e0" stroke="#999999" points="1246.38,-129.75 1199.62,-129.75 1199.62,-110.5 1246.38,-110.5 1246.38,-129.75"/>
<text text-anchor="middle" x="1223" y="-116.25" font-family="Helvetica,sans-Serif" font-size="10.00">TPad.h</text>
</a>
</g>
</g>
<!-- Node13&#45;&gt;Node16 -->
<g id="edge19_Node000013_Node000016" class="edge">
<title>Node13&#45;&gt;Node16</title>
<g id="a_edge19_Node000013_Node000016"><a xlink:title=" ">
<path fill="none" stroke="#63b8ff" d="M1089.55,-165.82C1116.4,-156.83 1158.81,-142.62 1188.59,-132.65"/>
<polygon fill="#63b8ff" stroke="#63b8ff" points="1189.53,-136.03 1197.9,-129.53 1187.31,-129.39 1189.53,-136.03"/>
</a>
</g>
</g>
<!-- Node17 -->
<g id="Node000017" class="node">
<title>Node17</title>
<g id="a_Node000017"><a xlink:title=" ">
<polygon fill="#e0e0e0" stroke="#999999" points="1329.38,-129.75 1264.62,-129.75 1264.62,-110.5 1329.38,-110.5 1329.38,-129.75"/>
<text text-anchor="middle" x="1297" y="-116.25" font-family="Helvetica,sans-Serif" font-size="10.00">GuiTypes.h</text>
</a>
</g>
</g>
<!-- Node13&#45;&gt;Node17 -->
<g id="edge20_Node000013_Node000017" class="edge">
<title>Node13&#45;&gt;Node17</title>
<g id="a_edge20_Node000013_Node000017"><a xlink:title=" ">
<path fill="none" stroke="#63b8ff" d="M1089.6,-167.8C1092.43,-167.1 1095.28,-166.4 1098,-165.75 1151.24,-153.03 1212.75,-139.4 1253.13,-130.6"/>
<polygon fill="#63b8ff" stroke="#63b8ff" points="1253.68,-134.06 1262.71,-128.51 1252.19,-127.22 1253.68,-134.06"/>
</a>
</g>
</g>
<!-- Node18 -->
<g id="Node000018" class="node">
<title>Node18</title>
<g id="a_Node000018"><a xlink:title=" ">
<polygon fill="#e0e0e0" stroke="#999999" points="481,-129.75 435,-129.75 435,-110.5 481,-110.5 481,-129.75"/>
<text text-anchor="middle" x="458" y="-116.25" font-family="Helvetica,sans-Serif" font-size="10.00">TBox.h</text>
</a>
</g>
</g>
<!-- Node13&#45;&gt;Node18 -->
<g id="edge22_Node000013_Node000018" class="edge">
<title>Node13&#45;&gt;Node18</title>
<g id="a_edge22_Node000013_Node000018"><a xlink:title=" ">
<path fill="none" stroke="#63b8ff" d="M1038.33,-174.07C958.63,-172.78 708.33,-166.05 492.53,-129.86"/>
<polygon fill="#63b8ff" stroke="#63b8ff" points="493.25,-126.43 482.8,-128.2 492.07,-133.33 493.25,-126.43"/>
</a>
</g>
</g>
<!-- Node19 -->
<g id="Node000019" class="node">
<title>Node19</title>
<g id="a_Node000019"><a xlink:href="_globals_8h.html" target="_top" xlink:title=" ">
<polygon fill="white" stroke="#666666" points="1059.25,-129.75 1002.75,-129.75 1002.75,-110.5 1059.25,-110.5 1059.25,-129.75"/>
<text text-anchor="middle" x="1031" y="-116.25" font-family="Helvetica,sans-Serif" font-size="10.00">Globals.h</text>
</a>
</g>
</g>
<!-- Node13&#45;&gt;Node19 -->
<g id="edge23_Node000013_Node000019" class="edge">
<title>Node13&#45;&gt;Node19</title>
<g id="a_edge23_Node000013_Node000019"><a xlink:title=" ">
<path fill="none" stroke="#63b8ff" d="M1058.55,-165.58C1054.23,-158.61 1048.04,-148.62 1042.62,-139.87"/>
<polygon fill="#63b8ff" stroke="#63b8ff" points="1045.61,-138.05 1037.36,-131.4 1039.66,-141.74 1045.61,-138.05"/>
</a>
</g>
</g>
<!-- Node32 -->
<g id="Node000032" class="node">
<title>Node32</title>
<g id="a_Node000032"><a xlink:href="_g_h2_i_8h.html" target="_top" xlink:title=" ">
<polygon fill="white" stroke="#666666" points="545.38,-129.75 498.62,-129.75 498.62,-110.5 545.38,-110.5 545.38,-129.75"/>
<text text-anchor="middle" x="522" y="-116.25" font-family="Helvetica,sans-Serif" font-size="10.00">GH2I.h</text>
</a>
</g>
</g>
<!-- Node13&#45;&gt;Node32 -->
<g id="edge38_Node000013_Node000032" class="edge">
<title>Node13&#45;&gt;Node32</title>
<g id="a_edge38_Node000013_Node000032"><a xlink:title=" ">
<path fill="none" stroke="#63b8ff" d="M1038.59,-171.88C950.6,-163.23 658.81,-134.57 557.23,-124.59"/>
<polygon fill="#63b8ff" stroke="#63b8ff" points="557.61,-121.11 547.32,-123.61 556.93,-128.07 557.61,-121.11"/>
</a>
</g>
</g>
<!-- Node19&#45;&gt;Node3 -->
<g id="edge28_Node000019_Node000003" class="edge">
<title>Node19&#45;&gt;Node3</title>
<g id="a_edge28_Node000019_Node000003"><a xlink:title=" ">
<path fill="none" stroke="#63b8ff" d="M1059.6,-112.03C1062.43,-111.46 1065.26,-110.94 1068,-110.5 1159.66,-95.91 1546.38,-122.11 1482,-55.25 1445.25,-17.09 581.88,-22.48 529,-19.25 505.83,-17.83 479.75,-15.62 459.76,-13.79"/>
<polygon fill="#63b8ff" stroke="#63b8ff" points="460.26,-10.32 449.98,-12.87 459.61,-17.29 460.26,-10.32"/>
</a>
</g>
</g>
<!-- Node19&#45;&gt;Node11 -->
<g id="edge24_Node000019_Node000011" class="edge">
<title>Node19&#45;&gt;Node11</title>
<g id="a_edge24_Node000019_Node000011"><a xlink:title=" ">
<path fill="none" stroke="#63b8ff" d="M1059.6,-112.02C1062.43,-111.45 1065.26,-110.93 1068,-110.5 1264.93,-79.79 1317.75,-103.07 1515,-74.5 1516.01,-74.35 1517.03,-74.2 1518.06,-74.03"/>
<polygon fill="#63b8ff" stroke="#63b8ff" points="1518.47,-77.52 1527.69,-72.3 1517.23,-70.63 1518.47,-77.52"/>
</a>
</g>
</g>
<!-- Node20 -->
<g id="Node000020" class="node">
<title>Node20</title>
<g id="a_Node000020"><a xlink:title=" ">
<polygon fill="#e0e0e0" stroke="#999999" points="713.88,-74.5 664.12,-74.5 664.12,-55.25 713.88,-55.25 713.88,-74.5"/>
<text text-anchor="middle" x="689" y="-61" font-family="Helvetica,sans-Serif" font-size="10.00">iomanip</text>
</a>
</g>
</g>
<!-- Node19&#45;&gt;Node20 -->
<g id="edge25_Node000019_Node000020" class="edge">
<title>Node19&#45;&gt;Node20</title>
<g id="a_edge25_Node000019_Node000020"><a xlink:title=" ">
<path fill="none" stroke="#63b8ff" d="M1002.38,-115.99C949.58,-110 833.09,-95.76 725.26,-74.76"/>
<polygon fill="#63b8ff" stroke="#63b8ff" points="726.16,-71.37 715.67,-72.87 724.8,-78.24 726.16,-71.37"/>
</a>
</g>
</g>
<!-- Node21 -->
<g id="Node000021" class="node">
<title>Node21</title>
<g id="a_Node000021"><a xlink:title=" ">
<polygon fill="#e0e0e0" stroke="#999999" points="790,-74.5 732,-74.5 732,-55.25 790,-55.25 790,-74.5"/>
<text text-anchor="middle" x="761" y="-61" font-family="Helvetica,sans-Serif" font-size="10.00">stdexcept</text>
</a>
</g>
</g>
<!-- Node19&#45;&gt;Node21 -->
<g id="edge26_Node000019_Node000021" class="edge">
<title>Node19&#45;&gt;Node21</title>
<g id="a_edge26_Node000019_Node000021"><a xlink:title=" ">
<path fill="none" stroke="#63b8ff" d="M1002.37,-113.93C960.47,-106.27 879.74,-91.24 801.46,-74.96"/>
<polygon fill="#63b8ff" stroke="#63b8ff" points="802.42,-71.59 791.92,-72.97 800.99,-78.44 802.42,-71.59"/>
</a>
</g>
</g>
<!-- Node22 -->
<g id="Node000022" class="node">
<title>Node22</title>
<g id="a_Node000022"><a xlink:title=" ">
<polygon fill="#e0e0e0" stroke="#999999" points="848,-74.5 808,-74.5 808,-55.25 848,-55.25 848,-74.5"/>
<text text-anchor="middle" x="828" y="-61" font-family="Helvetica,sans-Serif" font-size="10.00">string</text>
</a>
</g>
</g>
<!-- Node19&#45;&gt;Node22 -->
<g id="edge27_Node000019_Node000022" class="edge">
<title>Node19&#45;&gt;Node22</title>
<g id="a_edge27_Node000019_Node000022"><a xlink:title=" ">
<path fill="none" stroke="#63b8ff" d="M1002.28,-112.11C969.8,-104.11 915.09,-90.39 859.09,-75"/>
<polygon fill="#63b8ff" stroke="#63b8ff" points="860.28,-71.7 849.71,-72.41 858.42,-78.45 860.28,-71.7"/>
</a>
</g>
</g>
<!-- Node23 -->
<g id="Node000023" class="node">
<title>Node23</title>
<g id="a_Node000023"><a xlink:title=" ">
<polygon fill="#e0e0e0" stroke="#999999" points="910.25,-74.5 865.75,-74.5 865.75,-55.25 910.25,-55.25 910.25,-74.5"/>
<text text-anchor="middle" x="888" y="-61" font-family="Helvetica,sans-Serif" font-size="10.00">cstdlib</text>
</a>
</g>
</g>
<!-- Node19&#45;&gt;Node23 -->
<g id="edge29_Node000019_Node000023" class="edge">
<title>Node19&#45;&gt;Node23</title>
<g id="a_edge29_Node000019_Node000023"><a xlink:title=" ">
<path fill="none" stroke="#63b8ff" d="M1006.74,-110.09C983.18,-101.32 947.21,-87.93 921.04,-78.18"/>
<polygon fill="#63b8ff" stroke="#63b8ff" points="922.5,-74.99 911.91,-74.78 920.06,-81.55 922.5,-74.99"/>
</a>
</g>
</g>
<!-- Node24 -->
<g id="Node000024" class="node">
<title>Node24</title>
<g id="a_Node000024"><a xlink:title=" ">
<polygon fill="#e0e0e0" stroke="#999999" points="987.75,-74.5 928.25,-74.5 928.25,-55.25 987.75,-55.25 987.75,-74.5"/>
<text text-anchor="middle" x="958" y="-61" font-family="Helvetica,sans-Serif" font-size="10.00">execinfo.h</text>
</a>
</g>
</g>
<!-- Node19&#45;&gt;Node24 -->
<g id="edge30_Node000019_Node000024" class="edge">
<title>Node19&#45;&gt;Node24</title>
<g id="a_edge30_Node000019_Node000024"><a xlink:title=" ">
<path fill="none" stroke="#63b8ff" d="M1018.62,-110.09C1007.85,-102.24 992.03,-90.7 979.25,-81.37"/>
<polygon fill="#63b8ff" stroke="#63b8ff" points="981.56,-78.73 971.42,-75.67 977.44,-84.39 981.56,-78.73"/>
</a>
</g>
</g>
<!-- Node25 -->
<g id="Node000025" class="node">
<title>Node25</title>
<g id="a_Node000025"><a xlink:title=" ">
<polygon fill="#e0e0e0" stroke="#999999" points="1056.25,-74.5 1005.75,-74.5 1005.75,-55.25 1056.25,-55.25 1056.25,-74.5"/>
<text text-anchor="middle" x="1031" y="-61" font-family="Helvetica,sans-Serif" font-size="10.00">cxxabi.h</text>
</a>
</g>
</g>
<!-- Node19&#45;&gt;Node25 -->
<g id="edge31_Node000019_Node000025" class="edge">
<title>Node19&#45;&gt;Node25</title>
<g id="a_edge31_Node000019_Node000025"><a xlink:title=" ">
<path fill="none" stroke="#63b8ff" d="M1031,-110.33C1031,-103.82 1031,-94.67 1031,-86.37"/>
<polygon fill="#63b8ff" stroke="#63b8ff" points="1034.5,-86.37 1031,-76.37 1027.5,-86.37 1034.5,-86.37"/>
</a>
</g>
</g>
<!-- Node26 -->
<g id="Node000026" class="node">
<title>Node26</title>
<g id="a_Node000026"><a xlink:title=" ">
<polygon fill="#e0e0e0" stroke="#999999" points="1125.62,-74.5 1074.38,-74.5 1074.38,-55.25 1125.62,-55.25 1125.62,-74.5"/>
<text text-anchor="middle" x="1100" y="-61" font-family="Helvetica,sans-Serif" font-size="10.00">sstream</text>
</a>
</g>
</g>
<!-- Node19&#45;&gt;Node26 -->
<g id="edge32_Node000019_Node000026" class="edge">
<title>Node19&#45;&gt;Node26</title>
<g id="a_edge32_Node000019_Node000026"><a xlink:title=" ">
<path fill="none" stroke="#63b8ff" d="M1042.7,-110.09C1052.78,-102.32 1067.54,-90.92 1079.56,-81.65"/>
<polygon fill="#63b8ff" stroke="#63b8ff" points="1081.49,-84.58 1087.27,-75.7 1077.21,-79.04 1081.49,-84.58"/>
</a>
</g>
</g>
<!-- Node27 -->
<g id="Node000027" class="node">
<title>Node27</title>
<g id="a_Node000027"><a xlink:title=" ">
<polygon fill="#e0e0e0" stroke="#999999" points="1180.5,-74.5 1143.5,-74.5 1143.5,-55.25 1180.5,-55.25 1180.5,-74.5"/>
<text text-anchor="middle" x="1162" y="-61" font-family="Helvetica,sans-Serif" font-size="10.00">array</text>
</a>
</g>
</g>
<!-- Node19&#45;&gt;Node27 -->
<g id="edge33_Node000019_Node000027" class="edge">
<title>Node19&#45;&gt;Node27</title>
<g id="a_edge33_Node000019_Node000027"><a xlink:title=" ">
<path fill="none" stroke="#63b8ff" d="M1053.22,-110.09C1075.03,-101.23 1108.41,-87.66 1132.44,-77.89"/>
<polygon fill="#63b8ff" stroke="#63b8ff" points="1133.73,-81.15 1141.67,-74.14 1131.09,-74.66 1133.73,-81.15"/>
</a>
</g>
</g>
<!-- Node28 -->
<g id="Node000028" class="node">
<title>Node28</title>
<g id="a_Node000028"><a xlink:title=" ">
<polygon fill="#e0e0e0" stroke="#999999" points="1249.25,-74.5 1198.75,-74.5 1198.75,-55.25 1249.25,-55.25 1249.25,-74.5"/>
<text text-anchor="middle" x="1224" y="-61" font-family="Helvetica,sans-Serif" font-size="10.00">memory</text>
</a>
</g>
</g>
<!-- Node19&#45;&gt;Node28 -->
<g id="edge34_Node000019_Node000028" class="edge">
<title>Node19&#45;&gt;Node28</title>
<g id="a_edge34_Node000019_Node000028"><a xlink:title=" ">
<path fill="none" stroke="#63b8ff" d="M1059.48,-111.27C1093.5,-101.88 1150.46,-86.16 1187.64,-75.91"/>
<polygon fill="#63b8ff" stroke="#63b8ff" points="1188.32,-79.35 1197.03,-73.32 1186.46,-72.6 1188.32,-79.35"/>
</a>
</g>
</g>
<!-- Node29 -->
<g id="Node000029" class="node">
<title>Node29</title>
<g id="a_Node000029"><a xlink:title=" ">
<polygon fill="#e0e0e0" stroke="#999999" points="1316.88,-74.5 1267.12,-74.5 1267.12,-55.25 1316.88,-55.25 1316.88,-74.5"/>
<text text-anchor="middle" x="1292" y="-61" font-family="Helvetica,sans-Serif" font-size="10.00">unistd.h</text>
</a>
</g>
</g>
<!-- Node19&#45;&gt;Node29 -->
<g id="edge35_Node000019_Node000029" class="edge">
<title>Node19&#45;&gt;Node29</title>
<g id="a_edge35_Node000019_Node000029"><a xlink:title=" ">
<path fill="none" stroke="#63b8ff" d="M1059.66,-112.32C1062.47,-111.69 1065.29,-111.07 1068,-110.5 1148.64,-93.47 1172.18,-93.08 1255.73,-74.89"/>
<polygon fill="#63b8ff" stroke="#63b8ff" points="1256.3,-78.35 1265.31,-72.78 1254.79,-71.51 1256.3,-78.35"/>
</a>
</g>
</g>
<!-- Node30 -->
<g id="Node000030" class="node">
<title>Node30</title>
<g id="a_Node000030"><a xlink:title=" ">
<polygon fill="#e0e0e0" stroke="#999999" points="1394.75,-74.5 1335.25,-74.5 1335.25,-55.25 1394.75,-55.25 1394.75,-74.5"/>
<text text-anchor="middle" x="1365" y="-61" font-family="Helvetica,sans-Serif" font-size="10.00">sys/wait.h</text>
</a>
</g>
</g>
<!-- Node19&#45;&gt;Node30 -->
<g id="edge36_Node000019_Node000030" class="edge">
<title>Node19&#45;&gt;Node30</title>
<g id="a_edge36_Node000019_Node000030"><a xlink:title=" ">
<path fill="none" stroke="#63b8ff" d="M1059.63,-112.18C1062.45,-111.58 1065.28,-111.01 1068,-110.5 1178.27,-90 1210.08,-94.69 1323.57,-74.8"/>
<polygon fill="#63b8ff" stroke="#63b8ff" points="1324.09,-78.26 1333.32,-73.06 1322.86,-71.37 1324.09,-78.26"/>
</a>
</g>
</g>
<!-- Node31 -->
<g id="Node000031" class="node">
<title>Node31</title>
<g id="a_Node000031"><a xlink:title=" ">
<polygon fill="#e0e0e0" stroke="#999999" points="1473.12,-74.5 1412.88,-74.5 1412.88,-55.25 1473.12,-55.25 1473.12,-74.5"/>
<text text-anchor="middle" x="1443" y="-61" font-family="Helvetica,sans-Serif" font-size="10.00">sys/prctl.h</text>
</a>
</g>
</g>
<!-- Node19&#45;&gt;Node31 -->
<g id="edge37_Node000019_Node000031" class="edge">
<title>Node19&#45;&gt;Node31</title>
<g id="a_edge37_Node000019_Node000031"><a xlink:title=" ">
<path fill="none" stroke="#63b8ff" d="M1059.61,-112.09C1062.44,-111.51 1065.27,-110.96 1068,-110.5 1212.46,-86.02 1253.78,-98.12 1401.14,-74.8"/>
<polygon fill="#63b8ff" stroke="#63b8ff" points="1401.6,-78.27 1410.91,-73.22 1400.48,-71.36 1401.6,-78.27"/>
</a>
</g>
</g>
<!-- Node32&#45;&gt;Node3 -->
<g id="edge39_Node000032_Node000003" class="edge">
<title>Node32&#45;&gt;Node3</title>
<g id="a_edge39_Node000032_Node000003"><a xlink:title=" ">
<path fill="none" stroke="#63b8ff" d="M527.98,-110.07C535.84,-96.9 547.39,-72.22 536,-55.25 519,-29.93 484.81,-18.96 459.23,-14.22"/>
<polygon fill="#63b8ff" stroke="#63b8ff" points="460.1,-10.82 449.67,-12.69 458.99,-17.73 460.1,-10.82"/>
</a>
</g>
</g>
<!-- Node32&#45;&gt;Node4 -->
<g id="edge40_Node000032_Node000004" class="edge">
<title>Node32&#45;&gt;Node4</title>
<g id="a_edge40_Node000032_Node000004"><a xlink:title=" ">
<path fill="none" stroke="#63b8ff" d="M521.38,-110.08C519.9,-95.99 514.9,-69.02 498,-55.25 461.7,-25.67 326.03,-15.48 256.17,-12.14"/>
<polygon fill="#63b8ff" stroke="#63b8ff" points="256.39,-8.65 246.25,-11.7 256.08,-15.64 256.39,-8.65"/>
</a>
</g>
</g>
<!-- Node32&#45;&gt;Node5 -->
<g id="edge41_Node000032_Node000005" class="edge">
<title>Node32&#45;&gt;Node5</title>
<g id="a_edge41_Node000032_Node000005"><a xlink:title=" ">
<path fill="none" stroke="#63b8ff" d="M517.04,-110.29C508.48,-95.99 489.49,-68.08 465,-55.25 352.72,3.58 304.35,-42.65 176.5,-19.38"/>
<polygon fill="#63b8ff" stroke="#63b8ff" points="177.5,-16.01 167.02,-17.54 176.16,-22.88 177.5,-16.01"/>
</a>
</g>
</g>
<!-- Node32&#45;&gt;Node6 -->
<g id="edge42_Node000032_Node000006" class="edge">
<title>Node32&#45;&gt;Node6</title>
<g id="a_edge42_Node000032_Node000006"><a xlink:title=" ">
<path fill="none" stroke="#63b8ff" d="M538.79,-110.07C551.07,-102.41 566.8,-90.17 574,-74.5 580.51,-60.34 576.25,-42.94 570.93,-29.88"/>
<polygon fill="#63b8ff" stroke="#63b8ff" points="574.24,-28.68 566.86,-21.08 567.89,-31.62 574.24,-28.68"/>
</a>
</g>
</g>
<!-- Node32&#45;&gt;Node7 -->
<g id="edge43_Node000032_Node000007" class="edge">
<title>Node32&#45;&gt;Node7</title>
<g id="a_edge43_Node000032_Node000007"><a xlink:title=" ">
<path fill="none" stroke="#63b8ff" d="M498.23,-112.05C469.23,-103.43 419.69,-88.69 384.38,-78.19"/>
<polygon fill="#63b8ff" stroke="#63b8ff" points="385.5,-74.87 374.91,-75.37 383.5,-81.57 385.5,-74.87"/>
</a>
</g>
</g>
<!-- Node32&#45;&gt;Node8 -->
<g id="edge44_Node000032_Node000008" class="edge">
<title>Node32&#45;&gt;Node8</title>
<g id="a_edge44_Node000032_Node000008"><a xlink:title=" ">
<path fill="none" stroke="#63b8ff" d="M505.88,-110.09C491.42,-101.98 469.92,-89.93 453.02,-80.46"/>
<polygon fill="#63b8ff" stroke="#63b8ff" points="454.95,-77.53 444.51,-75.69 451.53,-83.64 454.95,-77.53"/>
</a>
</g>
</g>
<!-- Node32&#45;&gt;Node10 -->
<g id="edge45_Node000032_Node000010" class="edge">
<title>Node32&#45;&gt;Node10</title>
<g id="a_edge45_Node000032_Node000010"><a xlink:title=" ">
<path fill="none" stroke="#63b8ff" d="M498.31,-112.4C495.52,-111.71 492.71,-111.06 490,-110.5 396.09,-91.18 284.51,-77.35 223.81,-70.58"/>
<polygon fill="#63b8ff" stroke="#63b8ff" points="224.19,-67.1 213.87,-69.49 223.43,-74.06 224.19,-67.1"/>
</a>
</g>
</g>
</g>
</svg>

<g id="navigator" transform="translate(0 0)" fill="#404254">
  <rect fill="#f2f5e9" fill-opacity="0.5" stroke="#606060" stroke-width=".5" x="0" y="0" width="60" height="60"/>
  <use id="zoomplus" xlink:href="#zoomPlus" x="17" y="9" onmousedown="handleZoom(evt,'in')"/>
  <use id="zoomminus" xlink:href="#zoomMin" x="42" y="9" onmousedown="handleZoom(evt,'out')"/>
  <use id="reset" xlink:href="#resetDef" x="30" y="36" onmousedown="handleReset()"/>
   <use id="arrowup" xlink:href="#arrowUp" x="0" y="0" onmousedown="handlePan(0,-1)"/>
  <use id="arrowright" xlink:href="#arrowRight" x="0" y="0" onmousedown="handlePan(1,0)"/>
  <use id="arrowdown" xlink:href="#arrowDown" x="0" y="0" onmousedown="handlePan(0,1)"/>
  <use id="arrowleft" xlink:href="#arrowLeft" x="0" y="0" onmousedown="handlePan(-1,0)"/>
</g>
<svg viewBox="0 0 15 15" width="100%" height="30px" preserveAspectRatio="xMaxYMin meet">
 <g id="arrow_out" transform="scale(0.3 0.3)">
  <a xlink:href="_g_h2_d_8cxx__incl_org.svg" target="_base">
   <rect id="button" ry="5" rx="5" y="6" x="6" height="38" width="38"
        fill="#f2f5e9" fill-opacity="0.5" stroke="#606060" stroke-width="1.0"/>
   <path id="arrow"
     d="M 11.500037,31.436501 C 11.940474,20.09759 22.043105,11.32322 32.158766,21.979434 L 37.068811,17.246167 C 37.068811,17.246167 37.088388,32 37.088388,32 L 22.160133,31.978069 C 22.160133,31.978069 26.997745,27.140456 26.997745,27.140456 C 18.528582,18.264221 13.291696,25.230495 11.500037,31.436501 z"
     style="fill:#404040;"/>
  </a>
 </g>
</svg>

<style type='text/css'>
<![CDATA[
[data-mouse-over-selected='false'] { opacity: 0.7; }
[data-mouse-over-selected='true']  { opacity: 1.0; }
]]>
</style>
<script type="application/ecmascript"><![CDATA[
document.addEventListener('DOMContentLoaded', (event) => {
  highlightEdges();
  highlightAdjacentNodes();
});
]]></script>
</svg>
