<?xml version="1.0" encoding="UTF-8" standalone="no"?>
<!DOCTYPE svg PUBLIC "-//W3C//DTD SVG 1.1//EN"
 "http://www.w3.org/Graphics/SVG/1.1/DTD/svg11.dtd">
<!-- Generated by graphviz version 12.2.0 (20241103.1931)
 -->
<!-- Title: GH1D.h Pages: 1 -->
<svg width="1344pt" height="193pt"
 viewBox="0.00 0.00 1343.88 193.00" xmlns="http://www.w3.org/2000/svg" xmlns:xlink="http://www.w3.org/1999/xlink">
<g id="graph0" class="graph" transform="scale(1 1) rotate(0) translate(4 189)">
<title>GH1D.h</title>
<!-- Node1 -->
<g id="Node000001" class="node">
<title>Node1</title>
<g id="a_Node000001"><a xlink:title=" ">
<polygon fill="#999999" stroke="#666666" points="540.12,-185 489.62,-185 489.62,-165.75 540.12,-165.75 540.12,-185"/>
<text text-anchor="middle" x="514.88" y="-171.5" font-family="Helvetica,sans-Serif" font-size="10.00">GH1D.h</text>
</a>
</g>
</g>
<!-- Node2 -->
<g id="Node000002" class="node">
<title>Node2</title>
<g id="a_Node000002"><a xlink:title=" ">
<polygon fill="#e0e0e0" stroke="#999999" points="298,-129.75 255.75,-129.75 255.75,-110.5 298,-110.5 298,-129.75"/>
<text text-anchor="middle" x="276.88" y="-116.25" font-family="Helvetica,sans-Serif" font-size="10.00">TH1.h</text>
</a>
</g>
</g>
<!-- Node1&#45;&gt;Node2 -->
<g id="edge1_Node000001_Node000002" class="edge">
<title>Node1&#45;&gt;Node2</title>
<g id="a_edge1_Node000001_Node000002"><a xlink:title=" ">
<path fill="none" stroke="#63b8ff" d="M489.13,-169.44C451.62,-162.13 379.56,-147.61 309.26,-130.22"/>
<polygon fill="#63b8ff" stroke="#63b8ff" points="310.48,-126.92 299.93,-127.89 308.78,-133.71 310.48,-126.92"/>
</a>
</g>
</g>
<!-- Node3 -->
<g id="Node000003" class="node">
<title>Node3</title>
<g id="a_Node000003"><a xlink:title=" ">
<polygon fill="#e0e0e0" stroke="#999999" points="360.12,-129.75 315.62,-129.75 315.62,-110.5 360.12,-110.5 360.12,-129.75"/>
<text text-anchor="middle" x="337.88" y="-116.25" font-family="Helvetica,sans-Serif" font-size="10.00">TRef.h</text>
</a>
</g>
</g>
<!-- Node1&#45;&gt;Node3 -->
<g id="edge2_Node000001_Node000003" class="edge">
<title>Node1&#45;&gt;Node3</title>
<g id="a_edge2_Node000001_Node000003"><a xlink:title=" ">
<path fill="none" stroke="#63b8ff" d="M489.14,-166.63C458.04,-157.28 405.64,-141.51 371.41,-131.21"/>
<polygon fill="#63b8ff" stroke="#63b8ff" points="372.59,-127.91 362,-128.38 370.57,-134.62 372.59,-127.91"/>
</a>
</g>
</g>
<!-- Node4 -->
<g id="Node000004" class="node">
<title>Node4</title>
<g id="a_Node000004"><a xlink:title=" ">
<polygon fill="#e0e0e0" stroke="#999999" points="425.25,-129.75 378.5,-129.75 378.5,-110.5 425.25,-110.5 425.25,-129.75"/>
<text text-anchor="middle" x="401.88" y="-116.25" font-family="Helvetica,sans-Serif" font-size="10.00">TPad.h</text>
</a>
</g>
</g>
<!-- Node1&#45;&gt;Node4 -->
<g id="edge3_Node000001_Node000004" class="edge">
<title>Node1&#45;&gt;Node4</title>
<g id="a_edge3_Node000001_Node000004"><a xlink:title=" ">
<path fill="none" stroke="#63b8ff" d="M495.71,-165.34C478.09,-157.04 451.72,-144.61 431.41,-135.04"/>
<polygon fill="#63b8ff" stroke="#63b8ff" points="433.05,-131.94 422.51,-130.85 430.06,-138.28 433.05,-131.94"/>
</a>
</g>
</g>
<!-- Node5 -->
<g id="Node000005" class="node">
<title>Node5</title>
<g id="a_Node000005"><a xlink:title=" ">
<polygon fill="#e0e0e0" stroke="#999999" points="508.25,-129.75 443.5,-129.75 443.5,-110.5 508.25,-110.5 508.25,-129.75"/>
<text text-anchor="middle" x="475.88" y="-116.25" font-family="Helvetica,sans-Serif" font-size="10.00">GuiTypes.h</text>
</a>
</g>
</g>
<!-- Node1&#45;&gt;Node5 -->
<g id="edge4_Node000001_Node000005" class="edge">
<title>Node1&#45;&gt;Node5</title>
<g id="a_edge4_Node000001_Node000005"><a xlink:title=" ">
<path fill="none" stroke="#63b8ff" d="M508.43,-165.58C503.22,-158.46 495.69,-148.18 489.18,-139.3"/>
<polygon fill="#63b8ff" stroke="#63b8ff" points="492.08,-137.33 483.35,-131.33 486.43,-141.47 492.08,-137.33"/>
</a>
</g>
</g>
<!-- Node6 -->
<g id="Node000006" class="node">
<title>Node6</title>
<g id="a_Node000006"><a xlink:title=" ">
<polygon fill="#e0e0e0" stroke="#999999" points="1335.88,-19.25 1289.88,-19.25 1289.88,0 1335.88,0 1335.88,-19.25"/>
<text text-anchor="middle" x="1312.88" y="-5.75" font-family="Helvetica,sans-Serif" font-size="10.00">TList.h</text>
</a>
</g>
</g>
<!-- Node1&#45;&gt;Node6 -->
<g id="edge5_Node000001_Node000006" class="edge">
<title>Node1&#45;&gt;Node6</title>
<g id="a_edge5_Node000001_Node000006"><a xlink:title=" ">
<path fill="none" stroke="#63b8ff" d="M540.4,-174.67C624.61,-175.2 900.95,-173.28 1123.88,-129.75 1202.26,-114.44 1239.48,-132.03 1294.88,-74.5 1306.13,-62.81 1310.45,-44.64 1312.06,-30.67"/>
<polygon fill="#63b8ff" stroke="#63b8ff" points="1315.54,-31.06 1312.78,-20.83 1308.56,-30.54 1315.54,-31.06"/>
</a>
</g>
</g>
<!-- Node7 -->
<g id="Node000007" class="node">
<title>Node7</title>
<g id="a_Node000007"><a xlink:title=" ">
<polygon fill="#e0e0e0" stroke="#999999" points="646.88,-129.75 600.88,-129.75 600.88,-110.5 646.88,-110.5 646.88,-129.75"/>
<text text-anchor="middle" x="623.88" y="-116.25" font-family="Helvetica,sans-Serif" font-size="10.00">TBox.h</text>
</a>
</g>
</g>
<!-- Node1&#45;&gt;Node7 -->
<g id="edge6_Node000001_Node000007" class="edge">
<title>Node1&#45;&gt;Node7</title>
<g id="a_edge6_Node000001_Node000007"><a xlink:title=" ">
<path fill="none" stroke="#63b8ff" d="M533.37,-165.34C550.28,-157.08 575.56,-144.73 595.11,-135.18"/>
<polygon fill="#63b8ff" stroke="#63b8ff" points="596.49,-138.4 603.93,-130.87 593.41,-132.11 596.49,-138.4"/>
</a>
</g>
</g>
<!-- Node8 -->
<g id="Node000008" class="node">
<title>Node8</title>
<g id="a_Node000008"><a xlink:href="_globals_8h.html" target="_top" xlink:title=" ">
<polygon fill="white" stroke="#666666" points="583.12,-129.75 526.62,-129.75 526.62,-110.5 583.12,-110.5 583.12,-129.75"/>
<text text-anchor="middle" x="554.88" y="-116.25" font-family="Helvetica,sans-Serif" font-size="10.00">Globals.h</text>
</a>
</g>
</g>
<!-- Node1&#45;&gt;Node8 -->
<g id="edge7_Node000001_Node000008" class="edge">
<title>Node1&#45;&gt;Node8</title>
<g id="a_edge7_Node000001_Node000008"><a xlink:title=" ">
<path fill="none" stroke="#63b8ff" d="M521.48,-165.58C526.83,-158.46 534.55,-148.18 541.22,-139.3"/>
<polygon fill="#63b8ff" stroke="#63b8ff" points="544.01,-141.42 547.22,-131.32 538.41,-137.21 544.01,-141.42"/>
</a>
</g>
</g>
<!-- Node23 -->
<g id="Node000023" class="node">
<title>Node23</title>
<g id="a_Node000023"><a xlink:href="_g_h2_i_8h.html" target="_top" xlink:title=" ">
<polygon fill="white" stroke="#666666" points="1115.25,-129.75 1068.5,-129.75 1068.5,-110.5 1115.25,-110.5 1115.25,-129.75"/>
<text text-anchor="middle" x="1091.88" y="-116.25" font-family="Helvetica,sans-Serif" font-size="10.00">GH2I.h</text>
</a>
</g>
</g>
<!-- Node1&#45;&gt;Node23 -->
<g id="edge22_Node000001_Node000023" class="edge">
<title>Node1&#45;&gt;Node23</title>
<g id="a_edge22_Node000001_Node000023"><a xlink:title=" ">
<path fill="none" stroke="#63b8ff" d="M540.41,-172.02C632.92,-163.48 950.62,-134.16 1056.91,-124.35"/>
<polygon fill="#63b8ff" stroke="#63b8ff" points="1057.09,-127.85 1066.73,-123.45 1056.45,-120.88 1057.09,-127.85"/>
</a>
</g>
</g>
<!-- Node9 -->
<g id="Node000009" class="node">
<title>Node9</title>
<g id="a_Node000009"><a xlink:title=" ">
<polygon fill="#e0e0e0" stroke="#999999" points="277.62,-74.5 224.12,-74.5 224.12,-55.25 277.62,-55.25 277.62,-74.5"/>
<text text-anchor="middle" x="250.88" y="-61" font-family="Helvetica,sans-Serif" font-size="10.00">iostream</text>
</a>
</g>
</g>
<!-- Node8&#45;&gt;Node9 -->
<g id="edge8_Node000008_Node000009" class="edge">
<title>Node8&#45;&gt;Node9</title>
<g id="a_edge8_Node000008_Node000009"><a xlink:title=" ">
<path fill="none" stroke="#63b8ff" d="M526.28,-112.42C523.12,-111.74 519.93,-111.09 516.88,-110.5 418.73,-91.7 390.3,-94.35 288.99,-74.77"/>
<polygon fill="#63b8ff" stroke="#63b8ff" points="289.92,-71.39 279.44,-72.9 288.58,-78.26 289.92,-71.39"/>
</a>
</g>
</g>
<!-- Node10 -->
<g id="Node000010" class="node">
<title>Node10</title>
<g id="a_Node000010"><a xlink:title=" ">
<polygon fill="#e0e0e0" stroke="#999999" points="345.75,-74.5 296,-74.5 296,-55.25 345.75,-55.25 345.75,-74.5"/>
<text text-anchor="middle" x="320.88" y="-61" font-family="Helvetica,sans-Serif" font-size="10.00">iomanip</text>
</a>
</g>
</g>
<!-- Node8&#45;&gt;Node10 -->
<g id="edge9_Node000008_Node000010" class="edge">
<title>Node8&#45;&gt;Node10</title>
<g id="a_edge9_Node000008_Node000010"><a xlink:title=" ">
<path fill="none" stroke="#63b8ff" d="M526.24,-112.61C523.08,-111.9 519.91,-111.18 516.88,-110.5 448.28,-95.09 428.46,-91.86 357.03,-74.96"/>
<polygon fill="#63b8ff" stroke="#63b8ff" points="358.12,-71.62 347.58,-72.71 356.5,-78.43 358.12,-71.62"/>
</a>
</g>
</g>
<!-- Node11 -->
<g id="Node000011" class="node">
<title>Node11</title>
<g id="a_Node000011"><a xlink:title=" ">
<polygon fill="#e0e0e0" stroke="#999999" points="421.88,-74.5 363.88,-74.5 363.88,-55.25 421.88,-55.25 421.88,-74.5"/>
<text text-anchor="middle" x="392.88" y="-61" font-family="Helvetica,sans-Serif" font-size="10.00">stdexcept</text>
</a>
</g>
</g>
<!-- Node8&#45;&gt;Node11 -->
<g id="edge10_Node000008_Node000011" class="edge">
<title>Node8&#45;&gt;Node11</title>
<g id="a_edge10_Node000008_Node000011"><a xlink:title=" ">
<path fill="none" stroke="#63b8ff" d="M527.39,-110.09C500.98,-101.41 460.82,-88.21 431.25,-78.49"/>
<polygon fill="#63b8ff" stroke="#63b8ff" points="432.52,-75.22 421.93,-75.43 430.34,-81.87 432.52,-75.22"/>
</a>
</g>
</g>
<!-- Node12 -->
<g id="Node000012" class="node">
<title>Node12</title>
<g id="a_Node000012"><a xlink:title=" ">
<polygon fill="#e0e0e0" stroke="#999999" points="479.88,-74.5 439.88,-74.5 439.88,-55.25 479.88,-55.25 479.88,-74.5"/>
<text text-anchor="middle" x="459.88" y="-61" font-family="Helvetica,sans-Serif" font-size="10.00">string</text>
</a>
</g>
</g>
<!-- Node8&#45;&gt;Node12 -->
<g id="edge11_Node000008_Node000012" class="edge">
<title>Node8&#45;&gt;Node12</title>
<g id="a_edge11_Node000008_Node000012"><a xlink:title=" ">
<path fill="none" stroke="#63b8ff" d="M538.76,-110.09C524.29,-101.98 502.8,-89.93 485.89,-80.46"/>
<polygon fill="#63b8ff" stroke="#63b8ff" points="487.82,-77.53 477.39,-75.69 484.4,-83.64 487.82,-77.53"/>
</a>
</g>
</g>
<!-- Node13 -->
<g id="Node000013" class="node">
<title>Node13</title>
<g id="a_Node000013"><a xlink:title=" ">
<polygon fill="#e0e0e0" stroke="#999999" points="968,-19.25 925.75,-19.25 925.75,0 968,0 968,-19.25"/>
<text text-anchor="middle" x="946.88" y="-5.75" font-family="Helvetica,sans-Serif" font-size="10.00">cstdio</text>
</a>
</g>
</g>
<!-- Node8&#45;&gt;Node13 -->
<g id="edge12_Node000008_Node000013" class="edge">
<title>Node8&#45;&gt;Node13</title>
<g id="a_edge12_Node000008_Node000013"><a xlink:title=" ">
<path fill="none" stroke="#63b8ff" d="M583.49,-112.13C586.32,-111.54 589.15,-110.98 591.88,-110.5 723.25,-87.32 771.62,-136.25 889.88,-74.5 909.79,-64.1 926.05,-43.72 936.04,-28.77"/>
<polygon fill="#63b8ff" stroke="#63b8ff" points="938.72,-31.07 941.11,-20.75 932.81,-27.33 938.72,-31.07"/>
</a>
</g>
</g>
<!-- Node14 -->
<g id="Node000014" class="node">
<title>Node14</title>
<g id="a_Node000014"><a xlink:title=" ">
<polygon fill="#e0e0e0" stroke="#999999" points="542.12,-74.5 497.62,-74.5 497.62,-55.25 542.12,-55.25 542.12,-74.5"/>
<text text-anchor="middle" x="519.88" y="-61" font-family="Helvetica,sans-Serif" font-size="10.00">cstdlib</text>
</a>
</g>
</g>
<!-- Node8&#45;&gt;Node14 -->
<g id="edge13_Node000008_Node000014" class="edge">
<title>Node8&#45;&gt;Node14</title>
<g id="a_edge13_Node000008_Node000014"><a xlink:title=" ">
<path fill="none" stroke="#63b8ff" d="M549.1,-110.33C544.46,-103.28 537.8,-93.15 532.01,-84.33"/>
<polygon fill="#63b8ff" stroke="#63b8ff" points="535.03,-82.56 526.61,-76.12 529.18,-86.4 535.03,-82.56"/>
</a>
</g>
</g>
<!-- Node15 -->
<g id="Node000015" class="node">
<title>Node15</title>
<g id="a_Node000015"><a xlink:title=" ">
<polygon fill="#e0e0e0" stroke="#999999" points="619.62,-74.5 560.12,-74.5 560.12,-55.25 619.62,-55.25 619.62,-74.5"/>
<text text-anchor="middle" x="589.88" y="-61" font-family="Helvetica,sans-Serif" font-size="10.00">execinfo.h</text>
</a>
</g>
</g>
<!-- Node8&#45;&gt;Node15 -->
<g id="edge14_Node000008_Node000015" class="edge">
<title>Node8&#45;&gt;Node15</title>
<g id="a_edge14_Node000008_Node000015"><a xlink:title=" ">
<path fill="none" stroke="#63b8ff" d="M560.65,-110.33C565.29,-103.28 571.95,-93.15 577.74,-84.33"/>
<polygon fill="#63b8ff" stroke="#63b8ff" points="580.57,-86.4 583.14,-76.12 574.72,-82.56 580.57,-86.4"/>
</a>
</g>
</g>
<!-- Node16 -->
<g id="Node000016" class="node">
<title>Node16</title>
<g id="a_Node000016"><a xlink:title=" ">
<polygon fill="#e0e0e0" stroke="#999999" points="688.12,-74.5 637.62,-74.5 637.62,-55.25 688.12,-55.25 688.12,-74.5"/>
<text text-anchor="middle" x="662.88" y="-61" font-family="Helvetica,sans-Serif" font-size="10.00">cxxabi.h</text>
</a>
</g>
</g>
<!-- Node8&#45;&gt;Node16 -->
<g id="edge15_Node000008_Node000016" class="edge">
<title>Node8&#45;&gt;Node16</title>
<g id="a_edge15_Node000008_Node000016"><a xlink:title=" ">
<path fill="none" stroke="#63b8ff" d="M573.2,-110.09C589.95,-101.83 615.01,-89.48 634.38,-79.93"/>
<polygon fill="#63b8ff" stroke="#63b8ff" points="635.69,-83.18 643.11,-75.62 632.59,-76.9 635.69,-83.18"/>
</a>
</g>
</g>
<!-- Node17 -->
<g id="Node000017" class="node">
<title>Node17</title>
<g id="a_Node000017"><a xlink:title=" ">
<polygon fill="#e0e0e0" stroke="#999999" points="757.5,-74.5 706.25,-74.5 706.25,-55.25 757.5,-55.25 757.5,-74.5"/>
<text text-anchor="middle" x="731.88" y="-61" font-family="Helvetica,sans-Serif" font-size="10.00">sstream</text>
</a>
</g>
</g>
<!-- Node8&#45;&gt;Node17 -->
<g id="edge16_Node000008_Node000017" class="edge">
<title>Node8&#45;&gt;Node17</title>
<g id="a_edge16_Node000008_Node000017"><a xlink:title=" ">
<path fill="none" stroke="#63b8ff" d="M583.31,-110.57C613.69,-101.43 661.95,-86.91 695.17,-76.92"/>
<polygon fill="#63b8ff" stroke="#63b8ff" points="695.8,-80.38 704.37,-74.15 693.78,-73.68 695.8,-80.38"/>
</a>
</g>
</g>
<!-- Node18 -->
<g id="Node000018" class="node">
<title>Node18</title>
<g id="a_Node000018"><a xlink:title=" ">
<polygon fill="#e0e0e0" stroke="#999999" points="812.38,-74.5 775.38,-74.5 775.38,-55.25 812.38,-55.25 812.38,-74.5"/>
<text text-anchor="middle" x="793.88" y="-61" font-family="Helvetica,sans-Serif" font-size="10.00">array</text>
</a>
</g>
</g>
<!-- Node8&#45;&gt;Node18 -->
<g id="edge17_Node000008_Node000018" class="edge">
<title>Node8&#45;&gt;Node18</title>
<g id="a_edge17_Node000008_Node000018"><a xlink:title=" ">
<path fill="none" stroke="#63b8ff" d="M583.54,-112.36C586.36,-111.72 589.17,-111.09 591.88,-110.5 665.95,-94.25 688.09,-94.55 763.99,-75.05"/>
<polygon fill="#63b8ff" stroke="#63b8ff" points="764.81,-78.45 773.6,-72.55 763.04,-71.68 764.81,-78.45"/>
</a>
</g>
</g>
<!-- Node19 -->
<g id="Node000019" class="node">
<title>Node19</title>
<g id="a_Node000019"><a xlink:title=" ">
<polygon fill="#e0e0e0" stroke="#999999" points="881.12,-74.5 830.62,-74.5 830.62,-55.25 881.12,-55.25 881.12,-74.5"/>
<text text-anchor="middle" x="855.88" y="-61" font-family="Helvetica,sans-Serif" font-size="10.00">memory</text>
</a>
</g>
</g>
<!-- Node8&#45;&gt;Node19 -->
<g id="edge18_Node000008_Node000019" class="edge">
<title>Node8&#45;&gt;Node19</title>
<g id="a_edge18_Node000008_Node000019"><a xlink:title=" ">
<path fill="none" stroke="#63b8ff" d="M583.51,-112.23C586.33,-111.62 589.16,-111.03 591.88,-110.5 689.87,-91.44 718.51,-94.96 819.03,-74.92"/>
<polygon fill="#63b8ff" stroke="#63b8ff" points="819.73,-78.35 828.83,-72.93 818.33,-71.49 819.73,-78.35"/>
</a>
</g>
</g>
<!-- Node20 -->
<g id="Node000020" class="node">
<title>Node20</title>
<g id="a_Node000020"><a xlink:title=" ">
<polygon fill="#e0e0e0" stroke="#999999" points="49.75,-74.5 0,-74.5 0,-55.25 49.75,-55.25 49.75,-74.5"/>
<text text-anchor="middle" x="24.88" y="-61" font-family="Helvetica,sans-Serif" font-size="10.00">unistd.h</text>
</a>
</g>
</g>
<!-- Node8&#45;&gt;Node20 -->
<g id="edge19_Node000008_Node000020" class="edge">
<title>Node8&#45;&gt;Node20</title>
<g id="a_edge19_Node000008_Node000020"><a xlink:title=" ">
<path fill="none" stroke="#63b8ff" d="M526.33,-112.18C523.15,-111.55 519.95,-110.97 516.88,-110.5 318.66,-80.38 262.36,-106.73 61.27,-74.6"/>
<polygon fill="#63b8ff" stroke="#63b8ff" points="61.95,-71.16 51.52,-73.01 60.83,-78.07 61.95,-71.16"/>
</a>
</g>
</g>
<!-- Node21 -->
<g id="Node000021" class="node">
<title>Node21</title>
<g id="a_Node000021"><a xlink:title=" ">
<polygon fill="#e0e0e0" stroke="#999999" points="127.62,-74.5 68.12,-74.5 68.12,-55.25 127.62,-55.25 127.62,-74.5"/>
<text text-anchor="middle" x="97.88" y="-61" font-family="Helvetica,sans-Serif" font-size="10.00">sys/wait.h</text>
</a>
</g>
</g>
<!-- Node8&#45;&gt;Node21 -->
<g id="edge20_Node000008_Node000021" class="edge">
<title>Node8&#45;&gt;Node21</title>
<g id="a_edge20_Node000008_Node000021"><a xlink:title=" ">
<path fill="none" stroke="#63b8ff" d="M526.32,-112.23C523.14,-111.59 519.95,-110.99 516.88,-110.5 352.96,-84.25 306.44,-100.15 139.23,-74.67"/>
<polygon fill="#63b8ff" stroke="#63b8ff" points="139.95,-71.24 129.53,-73.16 138.88,-78.16 139.95,-71.24"/>
</a>
</g>
</g>
<!-- Node22 -->
<g id="Node000022" class="node">
<title>Node22</title>
<g id="a_Node000022"><a xlink:title=" ">
<polygon fill="#e0e0e0" stroke="#999999" points="206,-74.5 145.75,-74.5 145.75,-55.25 206,-55.25 206,-74.5"/>
<text text-anchor="middle" x="175.88" y="-61" font-family="Helvetica,sans-Serif" font-size="10.00">sys/prctl.h</text>
</a>
</g>
</g>
<!-- Node8&#45;&gt;Node22 -->
<g id="edge21_Node000008_Node000022" class="edge">
<title>Node8&#45;&gt;Node22</title>
<g id="a_edge21_Node000008_Node000022"><a xlink:title=" ">
<path fill="none" stroke="#63b8ff" d="M526.31,-112.3C523.13,-111.65 519.94,-111.03 516.88,-110.5 387.18,-88.12 350.08,-96.64 217.46,-74.79"/>
<polygon fill="#63b8ff" stroke="#63b8ff" points="218.41,-71.4 207.97,-73.19 217.25,-78.3 218.41,-71.4"/>
</a>
</g>
</g>
<!-- Node23&#45;&gt;Node6 -->
<g id="edge26_Node000023_Node000006" class="edge">
<title>Node23&#45;&gt;Node6</title>
<g id="a_edge26_Node000023_Node000006"><a xlink:title=" ">
<path fill="none" stroke="#63b8ff" d="M1115.45,-118.69C1152.19,-116.91 1223.85,-108.9 1271.88,-74.5 1287.43,-63.36 1298.53,-44.31 1305.22,-29.91"/>
<polygon fill="#63b8ff" stroke="#63b8ff" points="1308.32,-31.55 1309.05,-20.98 1301.89,-28.79 1308.32,-31.55"/>
</a>
</g>
</g>
<!-- Node23&#45;&gt;Node13 -->
<g id="edge23_Node000023_Node000013" class="edge">
<title>Node23&#45;&gt;Node13</title>
<g id="a_edge23_Node000023_Node000013"><a xlink:title=" ">
<path fill="none" stroke="#63b8ff" d="M1068.01,-111.67C1047.43,-104.43 1017.67,-91.97 995.88,-74.5 980.06,-61.82 966.44,-43.01 957.6,-29.08"/>
<polygon fill="#63b8ff" stroke="#63b8ff" points="960.79,-27.58 952.6,-20.86 954.8,-31.22 960.79,-27.58"/>
</a>
</g>
</g>
<!-- Node24 -->
<g id="Node000024" class="node">
<title>Node24</title>
<g id="a_Node000024"><a xlink:title=" ">
<polygon fill="#e0e0e0" stroke="#999999" points="1129.38,-19.25 1068.38,-19.25 1068.38,0 1129.38,0 1129.38,-19.25"/>
<text text-anchor="middle" x="1098.88" y="-5.75" font-family="Helvetica,sans-Serif" font-size="10.00">TNamed.h</text>
</a>
</g>
</g>
<!-- Node23&#45;&gt;Node24 -->
<g id="edge24_Node000023_Node000024" class="edge">
<title>Node23&#45;&gt;Node24</title>
<g id="a_edge24_Node000023_Node000024"><a xlink:title=" ">
<path fill="none" stroke="#63b8ff" d="M1068.13,-113.09C1036.28,-103.75 985.71,-83.86 1003.88,-55.25 1015.69,-36.65 1037.54,-25.66 1057.31,-19.25"/>
<polygon fill="#63b8ff" stroke="#63b8ff" points="1058.23,-22.63 1066.86,-16.48 1056.28,-15.9 1058.23,-22.63"/>
</a>
</g>
</g>
<!-- Node25 -->
<g id="Node000025" class="node">
<title>Node25</title>
<g id="a_Node000025"><a xlink:title=" ">
<polygon fill="#e0e0e0" stroke="#999999" points="1253,-19.25 1210.75,-19.25 1210.75,0 1253,0 1253,-19.25"/>
<text text-anchor="middle" x="1231.88" y="-5.75" font-family="Helvetica,sans-Serif" font-size="10.00">TH2.h</text>
</a>
</g>
</g>
<!-- Node23&#45;&gt;Node25 -->
<g id="edge25_Node000023_Node000025" class="edge">
<title>Node23&#45;&gt;Node25</title>
<g id="a_edge25_Node000023_Node000025"><a xlink:title=" ">
<path fill="none" stroke="#63b8ff" d="M1115.56,-116.2C1156.76,-110.57 1238.85,-96.77 1255.88,-74.5 1266.29,-60.87 1257.24,-42.21 1247.41,-28.58"/>
<polygon fill="#63b8ff" stroke="#63b8ff" points="1250.27,-26.56 1241.33,-20.88 1244.78,-30.9 1250.27,-26.56"/>
</a>
</g>
</g>
<!-- Node26 -->
<g id="Node000026" class="node">
<title>Node26</title>
<g id="a_Node000026"><a xlink:title=" ">
<polygon fill="#e0e0e0" stroke="#999999" points="1087.12,-74.5 1012.62,-74.5 1012.62,-55.25 1087.12,-55.25 1087.12,-74.5"/>
<text text-anchor="middle" x="1049.88" y="-61" font-family="Helvetica,sans-Serif" font-size="10.00">TVirtualPad.h</text>
</a>
</g>
</g>
<!-- Node23&#45;&gt;Node26 -->
<g id="edge27_Node000023_Node000026" class="edge">
<title>Node23&#45;&gt;Node26</title>
<g id="a_edge27_Node000023_Node000026"><a xlink:title=" ">
<path fill="none" stroke="#63b8ff" d="M1084.94,-110.33C1079.26,-103.13 1071.04,-92.71 1063.98,-83.76"/>
<polygon fill="#63b8ff" stroke="#63b8ff" points="1066.84,-81.73 1057.9,-76.05 1061.34,-86.07 1066.84,-81.73"/>
</a>
</g>
</g>
<!-- Node27 -->
<g id="Node000027" class="node">
<title>Node27</title>
<g id="a_Node000027"><a xlink:title=" ">
<polygon fill="#e0e0e0" stroke="#999999" points="1162.5,-74.5 1105.25,-74.5 1105.25,-55.25 1162.5,-55.25 1162.5,-74.5"/>
<text text-anchor="middle" x="1133.88" y="-61" font-family="Helvetica,sans-Serif" font-size="10.00">TFrame.h</text>
</a>
</g>
</g>
<!-- Node23&#45;&gt;Node27 -->
<g id="edge28_Node000023_Node000027" class="edge">
<title>Node23&#45;&gt;Node27</title>
<g id="a_edge28_Node000023_Node000027"><a xlink:title=" ">
<path fill="none" stroke="#63b8ff" d="M1098.81,-110.33C1104.49,-103.13 1112.71,-92.71 1119.77,-83.76"/>
<polygon fill="#63b8ff" stroke="#63b8ff" points="1122.41,-86.07 1125.85,-76.05 1116.91,-81.73 1122.41,-86.07"/>
</a>
</g>
</g>
<!-- Node28 -->
<g id="Node000028" class="node">
<title>Node28</title>
<g id="a_Node000028"><a xlink:href="_g_h2_base_8h.html" target="_top" xlink:title=" ">
<polygon fill="white" stroke="#666666" points="1247,-74.5 1180.75,-74.5 1180.75,-55.25 1247,-55.25 1247,-74.5"/>
<text text-anchor="middle" x="1213.88" y="-61" font-family="Helvetica,sans-Serif" font-size="10.00">GH2Base.h</text>
</a>
</g>
</g>
<!-- Node23&#45;&gt;Node28 -->
<g id="edge29_Node000023_Node000028" class="edge">
<title>Node23&#45;&gt;Node28</title>
<g id="a_edge29_Node000023_Node000028"><a xlink:title=" ">
<path fill="none" stroke="#63b8ff" d="M1112.57,-110.09C1131.76,-101.72 1160.59,-89.13 1182.59,-79.53"/>
<polygon fill="#63b8ff" stroke="#63b8ff" points="1183.93,-82.77 1191.69,-75.56 1181.13,-76.35 1183.93,-82.77"/>
</a>
</g>
</g>
<!-- Node28&#45;&gt;Node6 -->
<g id="edge33_Node000028_Node000006" class="edge">
<title>Node28&#45;&gt;Node6</title>
<g id="a_edge33_Node000028_Node000006"><a xlink:title=" ">
<path fill="none" stroke="#63b8ff" d="M1230.67,-54.84C1245.89,-46.66 1268.57,-34.46 1286.26,-24.94"/>
<polygon fill="#63b8ff" stroke="#63b8ff" points="1287.52,-28.24 1294.67,-20.42 1284.2,-22.07 1287.52,-28.24"/>
</a>
</g>
</g>
<!-- Node28&#45;&gt;Node13 -->
<g id="edge30_Node000028_Node000013" class="edge">
<title>Node28&#45;&gt;Node13</title>
<g id="a_edge30_Node000028_Node000013"><a xlink:title=" ">
<path fill="none" stroke="#63b8ff" d="M1180.41,-56.98C1177.52,-56.39 1174.65,-55.81 1171.88,-55.25 1103.4,-41.43 1023.12,-25.6 979.37,-17"/>
<polygon fill="#63b8ff" stroke="#63b8ff" points="980.26,-13.61 969.78,-15.11 978.91,-20.48 980.26,-13.61"/>
</a>
</g>
</g>
<!-- Node28&#45;&gt;Node24 -->
<g id="edge31_Node000028_Node000024" class="edge">
<title>Node28&#45;&gt;Node24</title>
<g id="a_edge31_Node000028_Node000024"><a xlink:title=" ">
<path fill="none" stroke="#63b8ff" d="M1194.37,-54.84C1176.36,-46.5 1149.35,-34 1128.65,-24.41"/>
<polygon fill="#63b8ff" stroke="#63b8ff" points="1130.4,-21.36 1119.85,-20.34 1127.46,-27.72 1130.4,-21.36"/>
</a>
</g>
</g>
<!-- Node28&#45;&gt;Node25 -->
<g id="edge32_Node000028_Node000025" class="edge">
<title>Node28&#45;&gt;Node25</title>
<g id="a_edge32_Node000028_Node000025"><a xlink:title=" ">
<path fill="none" stroke="#63b8ff" d="M1216.85,-55.08C1219.13,-48.34 1222.36,-38.77 1225.24,-30.24"/>
<polygon fill="#63b8ff" stroke="#63b8ff" points="1228.47,-31.64 1228.35,-21.04 1221.84,-29.4 1228.47,-31.64"/>
</a>
</g>
</g>
</g>
</svg>
