<?xml version="1.0" encoding="UTF-8" standalone="no"?>
<!DOCTYPE svg PUBLIC "-//W3C//DTD SVG 1.1//EN"
 "http://www.w3.org/Graphics/SVG/1.1/DTD/svg11.dtd">
<!-- Generated by graphviz version 12.2.0 (20241103.1931)
 -->
<!-- Title: GH2I.cxx Pages: 1 -->
<svg width="1369pt" height="248pt"
 viewBox="0.00 0.00 1369.00 248.25" xmlns="http://www.w3.org/2000/svg" xmlns:xlink="http://www.w3.org/1999/xlink">
<g id="graph0" class="graph" transform="scale(1 1) rotate(0) translate(4 244.25)">
<title>GH2I.cxx</title>
<!-- Node1 -->
<g id="Node000001" class="node">
<title>Node1</title>
<g id="a_Node000001"><a xlink:title=" ">
<polygon fill="#999999" stroke="#666666" points="849.12,-240.25 793.38,-240.25 793.38,-221 849.12,-221 849.12,-240.25"/>
<text text-anchor="middle" x="821.25" y="-226.75" font-family="Helvetica,sans-Serif" font-size="10.00">GH2I.cxx</text>
</a>
</g>
</g>
<!-- Node2 -->
<g id="Node000002" class="node">
<title>Node2</title>
<g id="a_Node000002"><a xlink:href="_g_h2_i_8h.html" target="_top" xlink:title=" ">
<polygon fill="white" stroke="#666666" points="300.62,-129.75 253.88,-129.75 253.88,-110.5 300.62,-110.5 300.62,-129.75"/>
<text text-anchor="middle" x="277.25" y="-116.25" font-family="Helvetica,sans-Serif" font-size="10.00">GH2I.h</text>
</a>
</g>
</g>
<!-- Node1&#45;&gt;Node2 -->
<g id="edge1_Node000001_Node000002" class="edge">
<title>Node1&#45;&gt;Node2</title>
<g id="a_edge1_Node000001_Node000002"><a xlink:title=" ">
<path fill="none" stroke="#63b8ff" d="M793.15,-224.02C701.69,-205.78 412.66,-148.13 312.13,-128.08"/>
<polygon fill="#63b8ff" stroke="#63b8ff" points="313.07,-124.7 302.58,-126.18 311.7,-131.57 313.07,-124.7"/>
</a>
</g>
</g>
<!-- Node10 -->
<g id="Node000010" class="node">
<title>Node10</title>
<g id="a_Node000010"><a xlink:title=" ">
<polygon fill="#e0e0e0" stroke="#999999" points="1361,-74.5 1307.5,-74.5 1307.5,-55.25 1361,-55.25 1361,-74.5"/>
<text text-anchor="middle" x="1334.25" y="-61" font-family="Helvetica,sans-Serif" font-size="10.00">iostream</text>
</a>
</g>
</g>
<!-- Node1&#45;&gt;Node10 -->
<g id="edge13_Node000001_Node000010" class="edge">
<title>Node1&#45;&gt;Node10</title>
<g id="a_edge13_Node000001_Node000010"><a xlink:title=" ">
<path fill="none" stroke="#63b8ff" d="M849.56,-220.59C936.24,-192.92 1198.05,-109.35 1296.38,-77.96"/>
<polygon fill="#63b8ff" stroke="#63b8ff" points="1297.37,-81.32 1305.83,-74.95 1295.24,-74.65 1297.37,-81.32"/>
</a>
</g>
</g>
<!-- Node11 -->
<g id="Node000011" class="node">
<title>Node11</title>
<g id="a_Node000011"><a xlink:title=" ">
<polygon fill="#e0e0e0" stroke="#999999" points="894.12,-185 826.38,-185 826.38,-165.75 894.12,-165.75 894.12,-185"/>
<text text-anchor="middle" x="860.25" y="-171.5" font-family="Helvetica,sans-Serif" font-size="10.00">TDirectory.h</text>
</a>
</g>
</g>
<!-- Node1&#45;&gt;Node11 -->
<g id="edge14_Node000001_Node000011" class="edge">
<title>Node1&#45;&gt;Node11</title>
<g id="a_edge14_Node000001_Node000011"><a xlink:title=" ">
<path fill="none" stroke="#63b8ff" d="M827.69,-220.83C832.91,-213.71 840.44,-203.43 846.94,-194.55"/>
<polygon fill="#63b8ff" stroke="#63b8ff" points="849.69,-196.72 852.78,-186.58 844.04,-192.58 849.69,-196.72"/>
</a>
</g>
</g>
<!-- Node12 -->
<g id="Node000012" class="node">
<title>Node12</title>
<g id="a_Node000012"><a xlink:href="_g_h1_d_8h.html" target="_top" xlink:title=" ">
<polygon fill="white" stroke="#666666" points="808.5,-185 758,-185 758,-165.75 808.5,-165.75 808.5,-185"/>
<text text-anchor="middle" x="783.25" y="-171.5" font-family="Helvetica,sans-Serif" font-size="10.00">GH1D.h</text>
</a>
</g>
</g>
<!-- Node1&#45;&gt;Node12 -->
<g id="edge15_Node000001_Node000012" class="edge">
<title>Node1&#45;&gt;Node12</title>
<g id="a_edge15_Node000001_Node000012"><a xlink:title=" ">
<path fill="none" stroke="#63b8ff" d="M814.98,-220.83C809.89,-213.71 802.55,-203.43 796.22,-194.55"/>
<polygon fill="#63b8ff" stroke="#63b8ff" points="799.2,-192.7 790.54,-186.59 793.5,-196.76 799.2,-192.7"/>
</a>
</g>
</g>
<!-- Node3 -->
<g id="Node000003" class="node">
<title>Node3</title>
<g id="a_Node000003"><a xlink:title=" ">
<polygon fill="#e0e0e0" stroke="#999999" points="408.38,-19.25 366.12,-19.25 366.12,0 408.38,0 408.38,-19.25"/>
<text text-anchor="middle" x="387.25" y="-5.75" font-family="Helvetica,sans-Serif" font-size="10.00">cstdio</text>
</a>
</g>
</g>
<!-- Node2&#45;&gt;Node3 -->
<g id="edge2_Node000002_Node000003" class="edge">
<title>Node2&#45;&gt;Node3</title>
<g id="a_edge2_Node000002_Node000003"><a xlink:title=" ">
<path fill="none" stroke="#63b8ff" d="M291.14,-110.09C303.61,-101.65 322.08,-88.3 336.25,-74.5 350.83,-60.3 365.08,-41.96 374.8,-28.58"/>
<polygon fill="#63b8ff" stroke="#63b8ff" points="377.46,-30.87 380.4,-20.69 371.75,-26.82 377.46,-30.87"/>
</a>
</g>
</g>
<!-- Node4 -->
<g id="Node000004" class="node">
<title>Node4</title>
<g id="a_Node000004"><a xlink:title=" ">
<polygon fill="#e0e0e0" stroke="#999999" points="221.75,-19.25 160.75,-19.25 160.75,0 221.75,0 221.75,-19.25"/>
<text text-anchor="middle" x="191.25" y="-5.75" font-family="Helvetica,sans-Serif" font-size="10.00">TNamed.h</text>
</a>
</g>
</g>
<!-- Node2&#45;&gt;Node4 -->
<g id="edge3_Node000002_Node000004" class="edge">
<title>Node2&#45;&gt;Node4</title>
<g id="a_edge3_Node000002_Node000004"><a xlink:title=" ">
<path fill="none" stroke="#63b8ff" d="M265.7,-110.01C255.39,-101.51 240.26,-88.13 229.25,-74.5 217.85,-60.38 207.51,-42.5 200.5,-29.25"/>
<polygon fill="#63b8ff" stroke="#63b8ff" points="203.82,-28.04 196.14,-20.74 197.59,-31.24 203.82,-28.04"/>
</a>
</g>
</g>
<!-- Node5 -->
<g id="Node000005" class="node">
<title>Node5</title>
<g id="a_Node000005"><a xlink:title=" ">
<polygon fill="#e0e0e0" stroke="#999999" points="348.38,-19.25 306.12,-19.25 306.12,0 348.38,0 348.38,-19.25"/>
<text text-anchor="middle" x="327.25" y="-5.75" font-family="Helvetica,sans-Serif" font-size="10.00">TH2.h</text>
</a>
</g>
</g>
<!-- Node2&#45;&gt;Node5 -->
<g id="edge4_Node000002_Node000005" class="edge">
<title>Node2&#45;&gt;Node5</title>
<g id="a_edge4_Node000002_Node000005"><a xlink:title=" ">
<path fill="none" stroke="#63b8ff" d="M289,-110.26C298.85,-102.12 312.36,-89.13 319.25,-74.5 325.67,-60.85 327.55,-43.83 327.88,-30.8"/>
<polygon fill="#63b8ff" stroke="#63b8ff" points="331.38,-30.85 327.83,-20.87 324.38,-30.89 331.38,-30.85"/>
</a>
</g>
</g>
<!-- Node6 -->
<g id="Node000006" class="node">
<title>Node6</title>
<g id="a_Node000006"><a xlink:title=" ">
<polygon fill="#e0e0e0" stroke="#999999" points="288.25,-19.25 242.25,-19.25 242.25,0 288.25,0 288.25,-19.25"/>
<text text-anchor="middle" x="265.25" y="-5.75" font-family="Helvetica,sans-Serif" font-size="10.00">TList.h</text>
</a>
</g>
</g>
<!-- Node2&#45;&gt;Node6 -->
<g id="edge5_Node000002_Node000006" class="edge">
<title>Node2&#45;&gt;Node6</title>
<g id="a_edge5_Node000002_Node000006"><a xlink:title=" ">
<path fill="none" stroke="#63b8ff" d="M264.64,-110.14C254.54,-102.11 241.13,-89.33 235.25,-74.5 228.92,-58.53 238.53,-40.88 248.51,-28.2"/>
<polygon fill="#63b8ff" stroke="#63b8ff" points="251.09,-30.57 254.97,-20.71 245.79,-25.99 251.09,-30.57"/>
</a>
</g>
</g>
<!-- Node7 -->
<g id="Node000007" class="node">
<title>Node7</title>
<g id="a_Node000007"><a xlink:title=" ">
<polygon fill="#e0e0e0" stroke="#999999" points="74.5,-74.5 0,-74.5 0,-55.25 74.5,-55.25 74.5,-74.5"/>
<text text-anchor="middle" x="37.25" y="-61" font-family="Helvetica,sans-Serif" font-size="10.00">TVirtualPad.h</text>
</a>
</g>
</g>
<!-- Node2&#45;&gt;Node7 -->
<g id="edge6_Node000002_Node000007" class="edge">
<title>Node2&#45;&gt;Node7</title>
<g id="a_edge6_Node000002_Node000007"><a xlink:title=" ">
<path fill="none" stroke="#63b8ff" d="M253.8,-113.92C215.09,-105.33 137.04,-88.02 85.98,-76.69"/>
<polygon fill="#63b8ff" stroke="#63b8ff" points="86.88,-73.3 76.36,-74.55 85.37,-80.14 86.88,-73.3"/>
</a>
</g>
</g>
<!-- Node8 -->
<g id="Node000008" class="node">
<title>Node8</title>
<g id="a_Node000008"><a xlink:title=" ">
<polygon fill="#e0e0e0" stroke="#999999" points="149.88,-74.5 92.62,-74.5 92.62,-55.25 149.88,-55.25 149.88,-74.5"/>
<text text-anchor="middle" x="121.25" y="-61" font-family="Helvetica,sans-Serif" font-size="10.00">TFrame.h</text>
</a>
</g>
</g>
<!-- Node2&#45;&gt;Node8 -->
<g id="edge7_Node000002_Node000008" class="edge">
<title>Node2&#45;&gt;Node8</title>
<g id="a_edge7_Node000002_Node000008"><a xlink:title=" ">
<path fill="none" stroke="#63b8ff" d="M253.56,-111.04C228.31,-102.42 188,-88.66 158.5,-78.59"/>
<polygon fill="#63b8ff" stroke="#63b8ff" points="159.81,-75.34 149.21,-75.42 157.55,-81.96 159.81,-75.34"/>
</a>
</g>
</g>
<!-- Node9 -->
<g id="Node000009" class="node">
<title>Node9</title>
<g id="a_Node000009"><a xlink:href="_g_h2_base_8h.html" target="_top" xlink:title=" ">
<polygon fill="white" stroke="#666666" points="310.38,-74.5 244.12,-74.5 244.12,-55.25 310.38,-55.25 310.38,-74.5"/>
<text text-anchor="middle" x="277.25" y="-61" font-family="Helvetica,sans-Serif" font-size="10.00">GH2Base.h</text>
</a>
</g>
</g>
<!-- Node2&#45;&gt;Node9 -->
<g id="edge8_Node000002_Node000009" class="edge">
<title>Node2&#45;&gt;Node9</title>
<g id="a_edge8_Node000002_Node000009"><a xlink:title=" ">
<path fill="none" stroke="#63b8ff" d="M277.25,-110.33C277.25,-103.82 277.25,-94.67 277.25,-86.37"/>
<polygon fill="#63b8ff" stroke="#63b8ff" points="280.75,-86.37 277.25,-76.37 273.75,-86.37 280.75,-86.37"/>
</a>
</g>
</g>
<!-- Node9&#45;&gt;Node3 -->
<g id="edge9_Node000009_Node000003" class="edge">
<title>Node9&#45;&gt;Node3</title>
<g id="a_edge9_Node000009_Node000003"><a xlink:title=" ">
<path fill="none" stroke="#63b8ff" d="M295.91,-54.84C312.98,-46.58 338.49,-34.23 358.22,-24.68"/>
<polygon fill="#63b8ff" stroke="#63b8ff" points="359.66,-27.87 367.14,-20.36 356.61,-21.57 359.66,-27.87"/>
</a>
</g>
</g>
<!-- Node9&#45;&gt;Node4 -->
<g id="edge10_Node000009_Node000004" class="edge">
<title>Node9&#45;&gt;Node4</title>
<g id="a_edge10_Node000009_Node000004"><a xlink:title=" ">
<path fill="none" stroke="#63b8ff" d="M262.66,-54.84C249.81,-46.89 230.84,-35.14 215.68,-25.75"/>
<polygon fill="#63b8ff" stroke="#63b8ff" points="217.54,-22.79 207.2,-20.5 213.86,-28.74 217.54,-22.79"/>
</a>
</g>
</g>
<!-- Node9&#45;&gt;Node5 -->
<g id="edge11_Node000009_Node000005" class="edge">
<title>Node9&#45;&gt;Node5</title>
<g id="a_edge11_Node000009_Node000005"><a xlink:title=" ">
<path fill="none" stroke="#63b8ff" d="M285.51,-55.08C292.41,-47.73 302.47,-37.01 310.99,-27.94"/>
<polygon fill="#63b8ff" stroke="#63b8ff" points="313.48,-30.4 317.78,-20.71 308.38,-25.61 313.48,-30.4"/>
</a>
</g>
</g>
<!-- Node9&#45;&gt;Node6 -->
<g id="edge12_Node000009_Node000006" class="edge">
<title>Node9&#45;&gt;Node6</title>
<g id="a_edge12_Node000009_Node000006"><a xlink:title=" ">
<path fill="none" stroke="#63b8ff" d="M275.27,-55.08C273.78,-48.49 271.69,-39.21 269.8,-30.82"/>
<polygon fill="#63b8ff" stroke="#63b8ff" points="273.22,-30.07 267.61,-21.09 266.39,-31.61 273.22,-30.07"/>
</a>
</g>
</g>
<!-- Node12&#45;&gt;Node2 -->
<g id="edge37_Node000012_Node000002" class="edge">
<title>Node12&#45;&gt;Node2</title>
<g id="a_edge37_Node000012_Node000002"><a xlink:title=" ">
<path fill="none" stroke="#63b8ff" d="M757.81,-171.7C674.31,-162.91 408.44,-134.93 312.33,-124.82"/>
<polygon fill="#63b8ff" stroke="#63b8ff" points="312.78,-121.34 302.47,-123.78 312.05,-128.31 312.78,-121.34"/>
</a>
</g>
</g>
<!-- Node12&#45;&gt;Node6 -->
<g id="edge20_Node000012_Node000006" class="edge">
<title>Node12&#45;&gt;Node6</title>
<g id="a_edge20_Node000012_Node000006"><a xlink:title=" ">
<path fill="none" stroke="#63b8ff" d="M757.55,-167.85C699.35,-152.89 553.19,-114.33 433.25,-74.5 385.63,-58.68 331.54,-37.53 297.9,-23.99"/>
<polygon fill="#63b8ff" stroke="#63b8ff" points="299.3,-20.78 288.72,-20.27 296.68,-27.27 299.3,-20.78"/>
</a>
</g>
</g>
<!-- Node13 -->
<g id="Node000013" class="node">
<title>Node13</title>
<g id="a_Node000013"><a xlink:title=" ">
<polygon fill="#e0e0e0" stroke="#999999" points="771.38,-129.75 729.12,-129.75 729.12,-110.5 771.38,-110.5 771.38,-129.75"/>
<text text-anchor="middle" x="750.25" y="-116.25" font-family="Helvetica,sans-Serif" font-size="10.00">TH1.h</text>
</a>
</g>
</g>
<!-- Node12&#45;&gt;Node13 -->
<g id="edge16_Node000012_Node000013" class="edge">
<title>Node12&#45;&gt;Node13</title>
<g id="a_edge16_Node000012_Node000013"><a xlink:title=" ">
<path fill="none" stroke="#63b8ff" d="M777.8,-165.58C773.48,-158.61 767.29,-148.62 761.87,-139.87"/>
<polygon fill="#63b8ff" stroke="#63b8ff" points="764.86,-138.05 756.61,-131.4 758.91,-141.74 764.86,-138.05"/>
</a>
</g>
</g>
<!-- Node14 -->
<g id="Node000014" class="node">
<title>Node14</title>
<g id="a_Node000014"><a xlink:title=" ">
<polygon fill="#e0e0e0" stroke="#999999" points="908.5,-129.75 864,-129.75 864,-110.5 908.5,-110.5 908.5,-129.75"/>
<text text-anchor="middle" x="886.25" y="-116.25" font-family="Helvetica,sans-Serif" font-size="10.00">TRef.h</text>
</a>
</g>
</g>
<!-- Node12&#45;&gt;Node14 -->
<g id="edge17_Node000012_Node000014" class="edge">
<title>Node12&#45;&gt;Node14</title>
<g id="a_edge17_Node000012_Node000014"><a xlink:title=" ">
<path fill="none" stroke="#63b8ff" d="M800.72,-165.34C816.56,-157.16 840.16,-144.96 858.56,-135.44"/>
<polygon fill="#63b8ff" stroke="#63b8ff" points="860.07,-138.6 867.35,-130.9 856.86,-132.38 860.07,-138.6"/>
</a>
</g>
</g>
<!-- Node15 -->
<g id="Node000015" class="node">
<title>Node15</title>
<g id="a_Node000015"><a xlink:title=" ">
<polygon fill="#e0e0e0" stroke="#999999" points="973.62,-129.75 926.88,-129.75 926.88,-110.5 973.62,-110.5 973.62,-129.75"/>
<text text-anchor="middle" x="950.25" y="-116.25" font-family="Helvetica,sans-Serif" font-size="10.00">TPad.h</text>
</a>
</g>
</g>
<!-- Node12&#45;&gt;Node15 -->
<g id="edge18_Node000012_Node000015" class="edge">
<title>Node12&#45;&gt;Node15</title>
<g id="a_edge18_Node000012_Node000015"><a xlink:title=" ">
<path fill="none" stroke="#63b8ff" d="M808.98,-166.17C837.62,-157.04 884.06,-142.23 915.82,-132.1"/>
<polygon fill="#63b8ff" stroke="#63b8ff" points="916.48,-135.57 924.95,-129.19 914.36,-128.9 916.48,-135.57"/>
</a>
</g>
</g>
<!-- Node16 -->
<g id="Node000016" class="node">
<title>Node16</title>
<g id="a_Node000016"><a xlink:title=" ">
<polygon fill="#e0e0e0" stroke="#999999" points="1056.62,-129.75 991.88,-129.75 991.88,-110.5 1056.62,-110.5 1056.62,-129.75"/>
<text text-anchor="middle" x="1024.25" y="-116.25" font-family="Helvetica,sans-Serif" font-size="10.00">GuiTypes.h</text>
</a>
</g>
</g>
<!-- Node12&#45;&gt;Node16 -->
<g id="edge19_Node000012_Node000016" class="edge">
<title>Node12&#45;&gt;Node16</title>
<g id="a_edge19_Node000012_Node000016"><a xlink:title=" ">
<path fill="none" stroke="#63b8ff" d="M808.85,-167.78C811.68,-167.08 814.52,-166.39 817.25,-165.75 847.78,-158.59 929.55,-141.16 980.7,-130.32"/>
<polygon fill="#63b8ff" stroke="#63b8ff" points="981.21,-133.79 990.27,-128.3 979.76,-126.94 981.21,-133.79"/>
</a>
</g>
</g>
<!-- Node17 -->
<g id="Node000017" class="node">
<title>Node17</title>
<g id="a_Node000017"><a xlink:title=" ">
<polygon fill="#e0e0e0" stroke="#999999" points="711.25,-129.75 665.25,-129.75 665.25,-110.5 711.25,-110.5 711.25,-129.75"/>
<text text-anchor="middle" x="688.25" y="-116.25" font-family="Helvetica,sans-Serif" font-size="10.00">TBox.h</text>
</a>
</g>
</g>
<!-- Node12&#45;&gt;Node17 -->
<g id="edge21_Node000012_Node000017" class="edge">
<title>Node12&#45;&gt;Node17</title>
<g id="a_edge21_Node000012_Node000017"><a xlink:title=" ">
<path fill="none" stroke="#63b8ff" d="M767.13,-165.34C752.67,-157.23 731.17,-145.18 714.27,-135.71"/>
<polygon fill="#63b8ff" stroke="#63b8ff" points="716.2,-132.78 705.76,-130.94 712.78,-138.89 716.2,-132.78"/>
</a>
</g>
</g>
<!-- Node18 -->
<g id="Node000018" class="node">
<title>Node18</title>
<g id="a_Node000018"><a xlink:href="_globals_8h.html" target="_top" xlink:title=" ">
<polygon fill="white" stroke="#666666" points="845.5,-129.75 789,-129.75 789,-110.5 845.5,-110.5 845.5,-129.75"/>
<text text-anchor="middle" x="817.25" y="-116.25" font-family="Helvetica,sans-Serif" font-size="10.00">Globals.h</text>
</a>
</g>
</g>
<!-- Node12&#45;&gt;Node18 -->
<g id="edge22_Node000012_Node000018" class="edge">
<title>Node12&#45;&gt;Node18</title>
<g id="a_edge22_Node000012_Node000018"><a xlink:title=" ">
<path fill="none" stroke="#63b8ff" d="M788.86,-165.58C793.37,-158.53 799.84,-148.4 805.46,-139.58"/>
<polygon fill="#63b8ff" stroke="#63b8ff" points="808.27,-141.7 810.7,-131.38 802.37,-137.93 808.27,-141.7"/>
</a>
</g>
</g>
<!-- Node18&#45;&gt;Node3 -->
<g id="edge27_Node000018_Node000003" class="edge">
<title>Node18&#45;&gt;Node3</title>
<g id="a_edge27_Node000018_Node000003"><a xlink:title=" ">
<path fill="none" stroke="#63b8ff" d="M789.29,-110.16C763.9,-101.77 725.6,-88.45 693.25,-74.5 675.87,-67 673.24,-61.15 655.25,-55.25 573.09,-28.3 471.19,-17.07 419.93,-12.86"/>
<polygon fill="#63b8ff" stroke="#63b8ff" points="420.37,-9.38 410.13,-12.09 419.83,-16.36 420.37,-9.38"/>
</a>
</g>
</g>
<!-- Node18&#45;&gt;Node10 -->
<g id="edge23_Node000018_Node000010" class="edge">
<title>Node18&#45;&gt;Node10</title>
<g id="a_edge23_Node000018_Node000010"><a xlink:title=" ">
<path fill="none" stroke="#63b8ff" d="M845.8,-112.19C848.98,-111.55 852.17,-110.97 855.25,-110.5 1046.88,-81.12 1101.17,-104.69 1296.01,-74.59"/>
<polygon fill="#63b8ff" stroke="#63b8ff" points="1296.38,-78.07 1305.72,-73.06 1295.29,-71.16 1296.38,-78.07"/>
</a>
</g>
</g>
<!-- Node19 -->
<g id="Node000019" class="node">
<title>Node19</title>
<g id="a_Node000019"><a xlink:title=" ">
<polygon fill="#e0e0e0" stroke="#999999" points="570.12,-74.5 520.38,-74.5 520.38,-55.25 570.12,-55.25 570.12,-74.5"/>
<text text-anchor="middle" x="545.25" y="-61" font-family="Helvetica,sans-Serif" font-size="10.00">iomanip</text>
</a>
</g>
</g>
<!-- Node18&#45;&gt;Node19 -->
<g id="edge24_Node000018_Node000019" class="edge">
<title>Node18&#45;&gt;Node19</title>
<g id="a_edge24_Node000018_Node000019"><a xlink:title=" ">
<path fill="none" stroke="#63b8ff" d="M788.6,-112.29C785.78,-111.67 782.96,-111.06 780.25,-110.5 694.83,-92.91 669.89,-93.58 581.55,-74.86"/>
<polygon fill="#63b8ff" stroke="#63b8ff" points="582.45,-71.48 571.93,-72.8 580.98,-78.32 582.45,-71.48"/>
</a>
</g>
</g>
<!-- Node20 -->
<g id="Node000020" class="node">
<title>Node20</title>
<g id="a_Node000020"><a xlink:title=" ">
<polygon fill="#e0e0e0" stroke="#999999" points="646.25,-74.5 588.25,-74.5 588.25,-55.25 646.25,-55.25 646.25,-74.5"/>
<text text-anchor="middle" x="617.25" y="-61" font-family="Helvetica,sans-Serif" font-size="10.00">stdexcept</text>
</a>
</g>
</g>
<!-- Node18&#45;&gt;Node20 -->
<g id="edge25_Node000018_Node000020" class="edge">
<title>Node18&#45;&gt;Node20</title>
<g id="a_edge25_Node000018_Node000020"><a xlink:title=" ">
<path fill="none" stroke="#63b8ff" d="M788.59,-111.5C754.19,-102.33 696.27,-86.91 657.41,-76.57"/>
<polygon fill="#63b8ff" stroke="#63b8ff" points="658.53,-73.24 647.96,-74.05 656.73,-80.01 658.53,-73.24"/>
</a>
</g>
</g>
<!-- Node21 -->
<g id="Node000021" class="node">
<title>Node21</title>
<g id="a_Node000021"><a xlink:title=" ">
<polygon fill="#e0e0e0" stroke="#999999" points="742.25,-74.5 702.25,-74.5 702.25,-55.25 742.25,-55.25 742.25,-74.5"/>
<text text-anchor="middle" x="722.25" y="-61" font-family="Helvetica,sans-Serif" font-size="10.00">string</text>
</a>
</g>
</g>
<!-- Node18&#45;&gt;Node21 -->
<g id="edge26_Node000018_Node000021" class="edge">
<title>Node18&#45;&gt;Node21</title>
<g id="a_edge26_Node000018_Node000021"><a xlink:title=" ">
<path fill="none" stroke="#63b8ff" d="M801.13,-110.09C786.67,-101.98 765.17,-89.93 748.27,-80.46"/>
<polygon fill="#63b8ff" stroke="#63b8ff" points="750.2,-77.53 739.76,-75.69 746.78,-83.64 750.2,-77.53"/>
</a>
</g>
</g>
<!-- Node22 -->
<g id="Node000022" class="node">
<title>Node22</title>
<g id="a_Node000022"><a xlink:title=" ">
<polygon fill="#e0e0e0" stroke="#999999" points="804.5,-74.5 760,-74.5 760,-55.25 804.5,-55.25 804.5,-74.5"/>
<text text-anchor="middle" x="782.25" y="-61" font-family="Helvetica,sans-Serif" font-size="10.00">cstdlib</text>
</a>
</g>
</g>
<!-- Node18&#45;&gt;Node22 -->
<g id="edge28_Node000018_Node000022" class="edge">
<title>Node18&#45;&gt;Node22</title>
<g id="a_edge28_Node000018_Node000022"><a xlink:title=" ">
<path fill="none" stroke="#63b8ff" d="M811.47,-110.33C806.84,-103.28 800.18,-93.15 794.38,-84.33"/>
<polygon fill="#63b8ff" stroke="#63b8ff" points="797.4,-82.56 788.99,-76.12 791.55,-86.4 797.4,-82.56"/>
</a>
</g>
</g>
<!-- Node23 -->
<g id="Node000023" class="node">
<title>Node23</title>
<g id="a_Node000023"><a xlink:title=" ">
<polygon fill="#e0e0e0" stroke="#999999" points="882,-74.5 822.5,-74.5 822.5,-55.25 882,-55.25 882,-74.5"/>
<text text-anchor="middle" x="852.25" y="-61" font-family="Helvetica,sans-Serif" font-size="10.00">execinfo.h</text>
</a>
</g>
</g>
<!-- Node18&#45;&gt;Node23 -->
<g id="edge29_Node000018_Node000023" class="edge">
<title>Node18&#45;&gt;Node23</title>
<g id="a_edge29_Node000018_Node000023"><a xlink:title=" ">
<path fill="none" stroke="#63b8ff" d="M823.03,-110.33C827.66,-103.28 834.32,-93.15 840.12,-84.33"/>
<polygon fill="#63b8ff" stroke="#63b8ff" points="842.95,-86.4 845.51,-76.12 837.1,-82.56 842.95,-86.4"/>
</a>
</g>
</g>
<!-- Node24 -->
<g id="Node000024" class="node">
<title>Node24</title>
<g id="a_Node000024"><a xlink:title=" ">
<polygon fill="#e0e0e0" stroke="#999999" points="950.5,-74.5 900,-74.5 900,-55.25 950.5,-55.25 950.5,-74.5"/>
<text text-anchor="middle" x="925.25" y="-61" font-family="Helvetica,sans-Serif" font-size="10.00">cxxabi.h</text>
</a>
</g>
</g>
<!-- Node18&#45;&gt;Node24 -->
<g id="edge30_Node000018_Node000024" class="edge">
<title>Node18&#45;&gt;Node24</title>
<g id="a_edge30_Node000018_Node000024"><a xlink:title=" ">
<path fill="none" stroke="#63b8ff" d="M835.57,-110.09C852.33,-101.83 877.38,-89.48 896.75,-79.93"/>
<polygon fill="#63b8ff" stroke="#63b8ff" points="898.06,-83.18 905.48,-75.62 894.97,-76.9 898.06,-83.18"/>
</a>
</g>
</g>
<!-- Node25 -->
<g id="Node000025" class="node">
<title>Node25</title>
<g id="a_Node000025"><a xlink:title=" ">
<polygon fill="#e0e0e0" stroke="#999999" points="1019.88,-74.5 968.62,-74.5 968.62,-55.25 1019.88,-55.25 1019.88,-74.5"/>
<text text-anchor="middle" x="994.25" y="-61" font-family="Helvetica,sans-Serif" font-size="10.00">sstream</text>
</a>
</g>
</g>
<!-- Node18&#45;&gt;Node25 -->
<g id="edge31_Node000018_Node000025" class="edge">
<title>Node18&#45;&gt;Node25</title>
<g id="a_edge31_Node000018_Node000025"><a xlink:title=" ">
<path fill="none" stroke="#63b8ff" d="M845.69,-110.57C876.07,-101.43 924.32,-86.91 957.55,-76.92"/>
<polygon fill="#63b8ff" stroke="#63b8ff" points="958.17,-80.38 966.74,-74.15 956.16,-73.68 958.17,-80.38"/>
</a>
</g>
</g>
<!-- Node26 -->
<g id="Node000026" class="node">
<title>Node26</title>
<g id="a_Node000026"><a xlink:title=" ">
<polygon fill="#e0e0e0" stroke="#999999" points="1074.75,-74.5 1037.75,-74.5 1037.75,-55.25 1074.75,-55.25 1074.75,-74.5"/>
<text text-anchor="middle" x="1056.25" y="-61" font-family="Helvetica,sans-Serif" font-size="10.00">array</text>
</a>
</g>
</g>
<!-- Node18&#45;&gt;Node26 -->
<g id="edge32_Node000018_Node000026" class="edge">
<title>Node18&#45;&gt;Node26</title>
<g id="a_edge32_Node000018_Node000026"><a xlink:title=" ">
<path fill="none" stroke="#63b8ff" d="M845.87,-112.57C849.03,-111.86 852.21,-111.16 855.25,-110.5 928.96,-94.51 950.91,-94.51 1026.42,-75.04"/>
<polygon fill="#63b8ff" stroke="#63b8ff" points="1027.19,-78.46 1035.98,-72.54 1025.42,-71.69 1027.19,-78.46"/>
</a>
</g>
</g>
<!-- Node27 -->
<g id="Node000027" class="node">
<title>Node27</title>
<g id="a_Node000027"><a xlink:title=" ">
<polygon fill="#e0e0e0" stroke="#999999" points="1143.5,-74.5 1093,-74.5 1093,-55.25 1143.5,-55.25 1143.5,-74.5"/>
<text text-anchor="middle" x="1118.25" y="-61" font-family="Helvetica,sans-Serif" font-size="10.00">memory</text>
</a>
</g>
</g>
<!-- Node18&#45;&gt;Node27 -->
<g id="edge33_Node000018_Node000027" class="edge">
<title>Node18&#45;&gt;Node27</title>
<g id="a_edge33_Node000018_Node000027"><a xlink:title=" ">
<path fill="none" stroke="#63b8ff" d="M845.84,-112.42C849.01,-111.74 852.19,-111.09 855.25,-110.5 952.88,-91.77 981.34,-94.93 1081.45,-74.91"/>
<polygon fill="#63b8ff" stroke="#63b8ff" points="1082.1,-78.35 1091.21,-72.93 1080.71,-71.49 1082.1,-78.35"/>
</a>
</g>
</g>
<!-- Node28 -->
<g id="Node000028" class="node">
<title>Node28</title>
<g id="a_Node000028"><a xlink:title=" ">
<polygon fill="#e0e0e0" stroke="#999999" points="1211.12,-74.5 1161.38,-74.5 1161.38,-55.25 1211.12,-55.25 1211.12,-74.5"/>
<text text-anchor="middle" x="1186.25" y="-61" font-family="Helvetica,sans-Serif" font-size="10.00">unistd.h</text>
</a>
</g>
</g>
<!-- Node18&#45;&gt;Node28 -->
<g id="edge34_Node000018_Node000028" class="edge">
<title>Node18&#45;&gt;Node28</title>
<g id="a_edge34_Node000018_Node000028"><a xlink:title=" ">
<path fill="none" stroke="#63b8ff" d="M845.82,-112.31C848.99,-111.65 852.18,-111.03 855.25,-110.5 982.67,-88.38 1019.54,-98.31 1149.86,-74.71"/>
<polygon fill="#63b8ff" stroke="#63b8ff" points="1150.39,-78.17 1159.59,-72.92 1149.12,-71.29 1150.39,-78.17"/>
</a>
</g>
</g>
<!-- Node29 -->
<g id="Node000029" class="node">
<title>Node29</title>
<g id="a_Node000029"><a xlink:title=" ">
<polygon fill="#e0e0e0" stroke="#999999" points="1289,-74.5 1229.5,-74.5 1229.5,-55.25 1289,-55.25 1289,-74.5"/>
<text text-anchor="middle" x="1259.25" y="-61" font-family="Helvetica,sans-Serif" font-size="10.00">sys/wait.h</text>
</a>
</g>
</g>
<!-- Node18&#45;&gt;Node29 -->
<g id="edge35_Node000018_Node000029" class="edge">
<title>Node18&#45;&gt;Node29</title>
<g id="a_edge35_Node000018_Node000029"><a xlink:title=" ">
<path fill="none" stroke="#63b8ff" d="M845.81,-112.24C848.98,-111.6 852.18,-111 855.25,-110.5 1012.54,-84.99 1057.27,-99.46 1217.83,-74.69"/>
<polygon fill="#63b8ff" stroke="#63b8ff" points="1218.25,-78.17 1227.59,-73.15 1217.17,-71.25 1218.25,-78.17"/>
</a>
</g>
</g>
<!-- Node30 -->
<g id="Node000030" class="node">
<title>Node30</title>
<g id="a_Node000030"><a xlink:title=" ">
<polygon fill="#e0e0e0" stroke="#999999" points="502.38,-74.5 442.12,-74.5 442.12,-55.25 502.38,-55.25 502.38,-74.5"/>
<text text-anchor="middle" x="472.25" y="-61" font-family="Helvetica,sans-Serif" font-size="10.00">sys/prctl.h</text>
</a>
</g>
</g>
<!-- Node18&#45;&gt;Node30 -->
<g id="edge36_Node000018_Node000030" class="edge">
<title>Node18&#45;&gt;Node30</title>
<g id="a_edge36_Node000018_Node000030"><a xlink:title=" ">
<path fill="none" stroke="#63b8ff" d="M788.62,-112.17C785.8,-111.57 782.97,-111 780.25,-110.5 665.19,-89.44 632.01,-95.16 514.15,-74.88"/>
<polygon fill="#63b8ff" stroke="#63b8ff" points="514.8,-71.44 504.35,-73.16 513.6,-78.33 514.8,-71.44"/>
</a>
</g>
</g>
</g>
</svg>
