<?xml version="1.0" encoding="UTF-8" standalone="no"?>
<!DOCTYPE svg PUBLIC "-//W3C//DTD SVG 1.1//EN"
 "http://www.w3.org/Graphics/SVG/1.1/DTD/svg11.dtd">
<!-- Generated by graphviz version 12.2.0 (20241103.1931)
 -->
<!-- Title: GH2Base.cxx Pages: 1 -->
<!--zoomable 248 -->

<svg id="main" version="1.1" xmlns="http://www.w3.org/2000/svg" xmlns:xlink="http://www.w3.org/1999/xlink" xml:space="preserve" onload="init(evt)">

<style type="text/css"><![CDATA[
.node, .edge {opacity: 0.7;}
.node.selected, .edge.selected {opacity: 1;}
.edge:hover path { stroke: red; }
.edge:hover polygon { stroke: red; fill: red; }
]]></style>

<defs>
  <circle id="rim" cx="0" cy="0" r="7"/>
  <circle id="rim2" cx="0" cy="0" r="3.5"/>
  <g id="zoomPlus">
    <use xlink:href="#rim" fill="#404040"><set attributeName="fill" to="#808080" begin="zoomplus.mouseover" end="zoomplus.mouseout"/></use>
    <path d="M-4,0h8M0,-4v8" fill="none" stroke="white" stroke-width="1.5" pointer-events="none"/>
  </g>
  <g id="zoomMin">
    <use xlink:href="#rim" fill="#404040"><set attributeName="fill" to="#808080" begin="zoomminus.mouseover" end="zoomminus.mouseout"/></use>
    <path d="M-4,0h8" fill="none" stroke="white" stroke-width="1.5" pointer-events="none"/>
  </g>
  <g id="arrowUp" transform="translate(30 24)">
    <use xlink:href="#rim"/>
    <path pointer-events="none" fill="none" stroke="white" stroke-width="1.5" d="M0,-3.0v7 M-2.5,-0.5L0,-3.0L2.5,-0.5"/>
  </g>
  <g id="arrowRight" transform="rotate(90) translate(36 -43)">
    <use xlink:href="#rim"/>
    <path pointer-events="none" fill="none" stroke="white" stroke-width="1.5" d="M0,-3.0v7 M-2.5,-0.5L0,-3.0L2.5,-0.5"/>
  </g>
  <g id="arrowDown" transform="rotate(180) translate(-30 -48)">
    <use xlink:href="#rim"/>
    <path pointer-events="none" fill="none" stroke="white" stroke-width="1.5" d="M0,-3.0v7 M-2.5,-0.5L0,-3.0L2.5,-0.5"/>
  </g>
  <g id="arrowLeft" transform="rotate(270) translate(-36 17)">
    <use xlink:href="#rim"/>
    <path pointer-events="none" fill="none" stroke="white" stroke-width="1.5" d="M0,-3.0v7 M-2.5,-0.5L0,-3.0L2.5,-0.5"/>
  </g>
  <g id="resetDef">
    <use xlink:href="#rim2" fill="#404040"><set attributeName="fill" to="#808080" begin="reset.mouseover" end="reset.mouseout"/></use>
  </g>
</defs>
<script type="application/ecmascript">
var viewWidth = 1425;
var viewHeight = 248;
var sectionId = 'dynsection-0';
</script>
<script type="application/ecmascript" xlink:href="svg.min.js"/>
<svg id="graph" class="graph">
<g id="viewport">
<title>GH2Base.cxx</title>
<!-- Node1 -->
<g id="Node000001" class="node">
<title>Node1</title>
<g id="a_Node000001"><a xlink:title=" ">
<polygon fill="#999999" stroke="#666666" points="838.38,-240.25 763.12,-240.25 763.12,-221 838.38,-221 838.38,-240.25"/>
<text text-anchor="middle" x="800.75" y="-226.75" font-family="Helvetica,sans-Serif" font-size="10.00">GH2Base.cxx</text>
</a>
</g>
</g>
<!-- Node2 -->
<g id="Node000002" class="node">
<title>Node2</title>
<g id="a_Node000002"><a xlink:href="_g_h2_base_8h.html" target="_top" xlink:title=" ">
<polygon fill="white" stroke="#666666" points="1285.88,-74.5 1219.62,-74.5 1219.62,-55.25 1285.88,-55.25 1285.88,-74.5"/>
<text text-anchor="middle" x="1252.75" y="-61" font-family="Helvetica,sans-Serif" font-size="10.00">GH2Base.h</text>
</a>
</g>
</g>
<!-- Node1&#45;&gt;Node2 -->
<g id="edge1_Node000001_Node000002" class="edge">
<title>Node1&#45;&gt;Node2</title>
<g id="a_edge1_Node000001_Node000002"><a xlink:title=" ">
<path fill="none" stroke="#63b8ff" d="M836.89,-220.56C897.46,-204.92 1022.84,-170.56 1124.75,-129.75 1161.26,-115.13 1201.59,-94.15 1227.03,-80.28"/>
<polygon fill="#63b8ff" stroke="#63b8ff" points="1228.57,-83.42 1235.65,-75.54 1225.2,-77.29 1228.57,-83.42"/>
</a>
</g>
</g>
<!-- Node7 -->
<g id="Node000007" class="node">
<title>Node7</title>
<g id="a_Node000007"><a xlink:title=" ">
<polygon fill="#e0e0e0" stroke="#999999" points="53.5,-74.5 0,-74.5 0,-55.25 53.5,-55.25 53.5,-74.5"/>
<text text-anchor="middle" x="26.75" y="-61" font-family="Helvetica,sans-Serif" font-size="10.00">iostream</text>
</a>
</g>
</g>
<!-- Node1&#45;&gt;Node7 -->
<g id="edge6_Node000001_Node000007" class="edge">
<title>Node1&#45;&gt;Node7</title>
<g id="a_edge6_Node000001_Node000007"><a xlink:title=" ">
<path fill="none" stroke="#63b8ff" d="M762.63,-221.56C631.05,-193.72 196.77,-101.85 65,-73.97"/>
<polygon fill="#63b8ff" stroke="#63b8ff" points="65.9,-70.58 55.39,-71.93 64.45,-77.43 65.9,-70.58"/>
</a>
</g>
</g>
<!-- Node8 -->
<g id="Node000008" class="node">
<title>Node8</title>
<g id="a_Node000008"><a xlink:title=" ">
<polygon fill="#e0e0e0" stroke="#999999" points="1416.62,-185 1348.88,-185 1348.88,-165.75 1416.62,-165.75 1416.62,-185"/>
<text text-anchor="middle" x="1382.75" y="-171.5" font-family="Helvetica,sans-Serif" font-size="10.00">TDirectory.h</text>
</a>
</g>
</g>
<!-- Node1&#45;&gt;Node8 -->
<g id="edge7_Node000001_Node000008" class="edge">
<title>Node1&#45;&gt;Node8</title>
<g id="a_edge7_Node000001_Node000008"><a xlink:title=" ">
<path fill="none" stroke="#63b8ff" d="M838.76,-227.68C926.45,-222.94 1149.58,-209.32 1334.75,-185 1335.58,-184.89 1336.43,-184.78 1337.27,-184.66"/>
<polygon fill="#63b8ff" stroke="#63b8ff" points="1337.61,-188.15 1346.97,-183.17 1336.55,-181.23 1337.61,-188.15"/>
</a>
</g>
</g>
<!-- Node9 -->
<g id="Node000009" class="node">
<title>Node9</title>
<g id="a_Node000009"><a xlink:href="_g_h1_d_8h.html" target="_top" xlink:title=" ">
<polygon fill="white" stroke="#666666" points="826,-185 775.5,-185 775.5,-165.75 826,-165.75 826,-185"/>
<text text-anchor="middle" x="800.75" y="-171.5" font-family="Helvetica,sans-Serif" font-size="10.00">GH1D.h</text>
</a>
</g>
</g>
<!-- Node1&#45;&gt;Node9 -->
<g id="edge8_Node000001_Node000009" class="edge">
<title>Node1&#45;&gt;Node9</title>
<g id="a_edge8_Node000001_Node000009"><a xlink:title=" ">
<path fill="none" stroke="#63b8ff" d="M800.75,-220.83C800.75,-214.32 800.75,-205.17 800.75,-196.87"/>
<polygon fill="#63b8ff" stroke="#63b8ff" points="804.25,-196.87 800.75,-186.87 797.25,-196.87 804.25,-196.87"/>
</a>
</g>
</g>
<!-- Node31 -->
<g id="Node000031" class="node">
<title>Node31</title>
<g id="a_Node000031"><a xlink:href="_suppress_t_h1_g_directory_8h.html" target="_top" xlink:title=" ">
<polygon fill="white" stroke="#666666" points="733.38,-185 604.12,-185 604.12,-165.75 733.38,-165.75 733.38,-185"/>
<text text-anchor="middle" x="668.75" y="-171.5" font-family="Helvetica,sans-Serif" font-size="10.00">SuppressTH1GDirectory.h</text>
</a>
</g>
</g>
<!-- Node1&#45;&gt;Node31 -->
<g id="edge38_Node000001_Node000031" class="edge">
<title>Node1&#45;&gt;Node31</title>
<g id="a_edge38_Node000001_Node000031"><a xlink:title=" ">
<path fill="none" stroke="#63b8ff" d="M778.36,-220.59C757.31,-212.1 725.55,-199.29 701.63,-189.64"/>
<polygon fill="#63b8ff" stroke="#63b8ff" points="703.24,-186.51 692.66,-186.02 700.62,-193.01 703.24,-186.51"/>
</a>
</g>
</g>
<!-- Node3 -->
<g id="Node000003" class="node">
<title>Node3</title>
<g id="a_Node000003"><a xlink:title=" ">
<polygon fill="#e0e0e0" stroke="#999999" points="968.88,-19.25 926.62,-19.25 926.62,0 968.88,0 968.88,-19.25"/>
<text text-anchor="middle" x="947.75" y="-5.75" font-family="Helvetica,sans-Serif" font-size="10.00">cstdio</text>
</a>
</g>
</g>
<!-- Node2&#45;&gt;Node3 -->
<g id="edge2_Node000002_Node000003" class="edge">
<title>Node2&#45;&gt;Node3</title>
<g id="a_edge2_Node000002_Node000003"><a xlink:title=" ">
<path fill="none" stroke="#63b8ff" d="M1219.24,-58.02C1160.31,-47.74 1038.88,-26.54 980.5,-16.34"/>
<polygon fill="#63b8ff" stroke="#63b8ff" points="981.32,-12.93 970.87,-14.66 980.11,-19.83 981.32,-12.93"/>
</a>
</g>
</g>
<!-- Node4 -->
<g id="Node000004" class="node">
<title>Node4</title>
<g id="a_Node000004"><a xlink:title=" ">
<polygon fill="#e0e0e0" stroke="#999999" points="1130.25,-19.25 1069.25,-19.25 1069.25,0 1130.25,0 1130.25,-19.25"/>
<text text-anchor="middle" x="1099.75" y="-5.75" font-family="Helvetica,sans-Serif" font-size="10.00">TNamed.h</text>
</a>
</g>
</g>
<!-- Node2&#45;&gt;Node4 -->
<g id="edge3_Node000002_Node000004" class="edge">
<title>Node2&#45;&gt;Node4</title>
<g id="a_edge3_Node000002_Node000004"><a xlink:title=" ">
<path fill="none" stroke="#63b8ff" d="M1226.8,-54.84C1201.96,-46.2 1164.25,-33.07 1136.37,-23.37"/>
<polygon fill="#63b8ff" stroke="#63b8ff" points="1137.86,-20.18 1127.26,-20.2 1135.56,-26.79 1137.86,-20.18"/>
</a>
</g>
</g>
<!-- Node5 -->
<g id="Node000005" class="node">
<title>Node5</title>
<g id="a_Node000005"><a xlink:title=" ">
<polygon fill="#e0e0e0" stroke="#999999" points="1242.88,-19.25 1200.62,-19.25 1200.62,0 1242.88,0 1242.88,-19.25"/>
<text text-anchor="middle" x="1221.75" y="-5.75" font-family="Helvetica,sans-Serif" font-size="10.00">TH2.h</text>
</a>
</g>
</g>
<!-- Node2&#45;&gt;Node5 -->
<g id="edge4_Node000002_Node000005" class="edge">
<title>Node2&#45;&gt;Node5</title>
<g id="a_edge4_Node000002_Node000005"><a xlink:title=" ">
<path fill="none" stroke="#63b8ff" d="M1247.63,-55.08C1243.57,-48.11 1237.76,-38.12 1232.66,-29.37"/>
<polygon fill="#63b8ff" stroke="#63b8ff" points="1235.8,-27.8 1227.74,-20.92 1229.75,-31.32 1235.8,-27.8"/>
</a>
</g>
</g>
<!-- Node6 -->
<g id="Node000006" class="node">
<title>Node6</title>
<g id="a_Node000006"><a xlink:title=" ">
<polygon fill="#e0e0e0" stroke="#999999" points="1336.75,-19.25 1290.75,-19.25 1290.75,0 1336.75,0 1336.75,-19.25"/>
<text text-anchor="middle" x="1313.75" y="-5.75" font-family="Helvetica,sans-Serif" font-size="10.00">TList.h</text>
</a>
</g>
</g>
<!-- Node2&#45;&gt;Node6 -->
<g id="edge5_Node000002_Node000006" class="edge">
<title>Node2&#45;&gt;Node6</title>
<g id="a_edge5_Node000002_Node000006"><a xlink:title=" ">
<path fill="none" stroke="#63b8ff" d="M1263.1,-54.84C1271.83,-47.22 1284.54,-36.12 1295.05,-26.95"/>
<polygon fill="#63b8ff" stroke="#63b8ff" points="1297.18,-29.73 1302.41,-20.52 1292.58,-24.46 1297.18,-29.73"/>
</a>
</g>
</g>
<!-- Node9&#45;&gt;Node6 -->
<g id="edge13_Node000009_Node000006" class="edge">
<title>Node9&#45;&gt;Node6</title>
<g id="a_edge13_Node000009_Node000006"><a xlink:title=" ">
<path fill="none" stroke="#63b8ff" d="M826.44,-173.7C922.08,-170.57 1255.06,-154.02 1314.75,-74.5 1324.12,-62.01 1322.89,-43.95 1319.87,-30.21"/>
<polygon fill="#63b8ff" stroke="#63b8ff" points="1323.36,-29.71 1317.38,-20.97 1316.6,-31.53 1323.36,-29.71"/>
</a>
</g>
</g>
<!-- Node10 -->
<g id="Node000010" class="node">
<title>Node10</title>
<g id="a_Node000010"><a xlink:title=" ">
<polygon fill="#e0e0e0" stroke="#999999" points="508.88,-129.75 466.62,-129.75 466.62,-110.5 508.88,-110.5 508.88,-129.75"/>
<text text-anchor="middle" x="487.75" y="-116.25" font-family="Helvetica,sans-Serif" font-size="10.00">TH1.h</text>
</a>
</g>
</g>
<!-- Node9&#45;&gt;Node10 -->
<g id="edge9_Node000009_Node000010" class="edge">
<title>Node9&#45;&gt;Node10</title>
<g id="a_edge9_Node000009_Node000010"><a xlink:title=" ">
<path fill="none" stroke="#63b8ff" d="M775.44,-170.57C716.2,-161.63 570.25,-139.47 520.43,-129.95"/>
<polygon fill="#63b8ff" stroke="#63b8ff" points="521.28,-126.55 510.78,-127.97 519.88,-133.4 521.28,-126.55"/>
</a>
</g>
</g>
<!-- Node11 -->
<g id="Node000011" class="node">
<title>Node11</title>
<g id="a_Node000011"><a xlink:title=" ">
<polygon fill="#e0e0e0" stroke="#999999" points="722,-129.75 677.5,-129.75 677.5,-110.5 722,-110.5 722,-129.75"/>
<text text-anchor="middle" x="699.75" y="-116.25" font-family="Helvetica,sans-Serif" font-size="10.00">TRef.h</text>
</a>
</g>
</g>
<!-- Node9&#45;&gt;Node11 -->
<g id="edge10_Node000009_Node000011" class="edge">
<title>Node9&#45;&gt;Node11</title>
<g id="a_edge10_Node000009_Node000011"><a xlink:title=" ">
<path fill="none" stroke="#63b8ff" d="M783.62,-165.34C768.09,-157.16 744.95,-144.96 726.91,-135.44"/>
<polygon fill="#63b8ff" stroke="#63b8ff" points="728.78,-132.48 718.31,-130.91 725.52,-138.67 728.78,-132.48"/>
</a>
</g>
</g>
<!-- Node12 -->
<g id="Node000012" class="node">
<title>Node12</title>
<g id="a_Node000012"><a xlink:title=" ">
<polygon fill="#e0e0e0" stroke="#999999" points="787.12,-129.75 740.38,-129.75 740.38,-110.5 787.12,-110.5 787.12,-129.75"/>
<text text-anchor="middle" x="763.75" y="-116.25" font-family="Helvetica,sans-Serif" font-size="10.00">TPad.h</text>
</a>
</g>
</g>
<!-- Node9&#45;&gt;Node12 -->
<g id="edge11_Node000009_Node000012" class="edge">
<title>Node9&#45;&gt;Node12</title>
<g id="a_edge11_Node000009_Node000012"><a xlink:title=" ">
<path fill="none" stroke="#63b8ff" d="M794.64,-165.58C789.69,-158.46 782.55,-148.18 776.38,-139.3"/>
<polygon fill="#63b8ff" stroke="#63b8ff" points="779.44,-137.57 770.86,-131.35 773.69,-141.56 779.44,-137.57"/>
</a>
</g>
</g>
<!-- Node13 -->
<g id="Node000013" class="node">
<title>Node13</title>
<g id="a_Node000013"><a xlink:title=" ">
<polygon fill="#e0e0e0" stroke="#999999" points="870.12,-129.75 805.38,-129.75 805.38,-110.5 870.12,-110.5 870.12,-129.75"/>
<text text-anchor="middle" x="837.75" y="-116.25" font-family="Helvetica,sans-Serif" font-size="10.00">GuiTypes.h</text>
</a>
</g>
</g>
<!-- Node9&#45;&gt;Node13 -->
<g id="edge12_Node000009_Node000013" class="edge">
<title>Node9&#45;&gt;Node13</title>
<g id="a_edge12_Node000009_Node000013"><a xlink:title=" ">
<path fill="none" stroke="#63b8ff" d="M806.86,-165.58C811.81,-158.46 818.95,-148.18 825.12,-139.3"/>
<polygon fill="#63b8ff" stroke="#63b8ff" points="827.81,-141.56 830.64,-131.35 822.06,-137.57 827.81,-141.56"/>
</a>
</g>
</g>
<!-- Node14 -->
<g id="Node000014" class="node">
<title>Node14</title>
<g id="a_Node000014"><a xlink:title=" ">
<polygon fill="#e0e0e0" stroke="#999999" points="933.75,-129.75 887.75,-129.75 887.75,-110.5 933.75,-110.5 933.75,-129.75"/>
<text text-anchor="middle" x="910.75" y="-116.25" font-family="Helvetica,sans-Serif" font-size="10.00">TBox.h</text>
</a>
</g>
</g>
<!-- Node9&#45;&gt;Node14 -->
<g id="edge14_Node000009_Node000014" class="edge">
<title>Node9&#45;&gt;Node14</title>
<g id="a_edge14_Node000009_Node000014"><a xlink:title=" ">
<path fill="none" stroke="#63b8ff" d="M819.41,-165.34C836.48,-157.08 861.99,-144.73 881.72,-135.18"/>
<polygon fill="#63b8ff" stroke="#63b8ff" points="883.16,-138.37 890.64,-130.86 880.11,-132.07 883.16,-138.37"/>
</a>
</g>
</g>
<!-- Node15 -->
<g id="Node000015" class="node">
<title>Node15</title>
<g id="a_Node000015"><a xlink:href="_globals_8h.html" target="_top" xlink:title=" ">
<polygon fill="white" stroke="#666666" points="583,-129.75 526.5,-129.75 526.5,-110.5 583,-110.5 583,-129.75"/>
<text text-anchor="middle" x="554.75" y="-116.25" font-family="Helvetica,sans-Serif" font-size="10.00">Globals.h</text>
</a>
</g>
</g>
<!-- Node9&#45;&gt;Node15 -->
<g id="edge15_Node000009_Node000015" class="edge">
<title>Node9&#45;&gt;Node15</title>
<g id="a_edge15_Node000009_Node000015"><a xlink:title=" ">
<path fill="none" stroke="#63b8ff" d="M775.35,-168.88C732.53,-159.61 645.66,-140.8 594.64,-129.76"/>
<polygon fill="#63b8ff" stroke="#63b8ff" points="595.4,-126.34 584.88,-127.65 593.92,-133.18 595.4,-126.34"/>
</a>
</g>
</g>
<!-- Node28 -->
<g id="Node000028" class="node">
<title>Node28</title>
<g id="a_Node000028"><a xlink:href="_g_h2_i_8h.html" target="_top" xlink:title=" ">
<polygon fill="white" stroke="#666666" points="1116.12,-129.75 1069.38,-129.75 1069.38,-110.5 1116.12,-110.5 1116.12,-129.75"/>
<text text-anchor="middle" x="1092.75" y="-116.25" font-family="Helvetica,sans-Serif" font-size="10.00">GH2I.h</text>
</a>
</g>
</g>
<!-- Node9&#45;&gt;Node28 -->
<g id="edge30_Node000009_Node000028" class="edge">
<title>Node9&#45;&gt;Node28</title>
<g id="a_edge30_Node000009_Node000028"><a xlink:title=" ">
<path fill="none" stroke="#63b8ff" d="M826.41,-169.7C878.86,-160.13 998.4,-138.33 1057.85,-127.49"/>
<polygon fill="#63b8ff" stroke="#63b8ff" points="1058.2,-130.98 1067.41,-125.75 1056.94,-124.1 1058.2,-130.98"/>
</a>
</g>
</g>
<!-- Node15&#45;&gt;Node3 -->
<g id="edge20_Node000015_Node000003" class="edge">
<title>Node15&#45;&gt;Node3</title>
<g id="a_edge20_Node000015_Node000003"><a xlink:title=" ">
<path fill="none" stroke="#63b8ff" d="M526.15,-112.03C523.32,-111.46 520.49,-110.93 517.75,-110.5 425.43,-95.83 36.41,-123.06 100.75,-55.25 129.27,-25.18 762.8,-13.49 915.06,-11.1"/>
<polygon fill="#63b8ff" stroke="#63b8ff" points="914.89,-14.61 924.84,-10.95 914.79,-7.61 914.89,-14.61"/>
</a>
</g>
</g>
<!-- Node15&#45;&gt;Node7 -->
<g id="edge16_Node000015_Node000007" class="edge">
<title>Node15&#45;&gt;Node7</title>
<g id="a_edge16_Node000015_Node000007"><a xlink:title=" ">
<path fill="none" stroke="#63b8ff" d="M526.15,-112.01C523.32,-111.44 520.49,-110.93 517.75,-110.5 319.5,-79.64 266.32,-103.21 67.75,-74.5 66.74,-74.35 65.72,-74.2 64.69,-74.03"/>
<polygon fill="#63b8ff" stroke="#63b8ff" points="65.52,-70.63 55.06,-72.3 64.28,-77.52 65.52,-70.63"/>
</a>
</g>
</g>
<!-- Node16 -->
<g id="Node000016" class="node">
<title>Node16</title>
<g id="a_Node000016"><a xlink:title=" ">
<polygon fill="#e0e0e0" stroke="#999999" points="507.62,-74.5 457.88,-74.5 457.88,-55.25 507.62,-55.25 507.62,-74.5"/>
<text text-anchor="middle" x="482.75" y="-61" font-family="Helvetica,sans-Serif" font-size="10.00">iomanip</text>
</a>
</g>
</g>
<!-- Node15&#45;&gt;Node16 -->
<g id="edge17_Node000015_Node000016" class="edge">
<title>Node15&#45;&gt;Node16</title>
<g id="a_edge17_Node000015_Node000016"><a xlink:title=" ">
<path fill="none" stroke="#63b8ff" d="M542.54,-110.09C531.92,-102.24 516.31,-90.7 503.71,-81.37"/>
<polygon fill="#63b8ff" stroke="#63b8ff" points="506.12,-78.81 496,-75.67 501.96,-84.44 506.12,-78.81"/>
</a>
</g>
</g>
<!-- Node17 -->
<g id="Node000017" class="node">
<title>Node17</title>
<g id="a_Node000017"><a xlink:title=" ">
<polygon fill="#e0e0e0" stroke="#999999" points="583.75,-74.5 525.75,-74.5 525.75,-55.25 583.75,-55.25 583.75,-74.5"/>
<text text-anchor="middle" x="554.75" y="-61" font-family="Helvetica,sans-Serif" font-size="10.00">stdexcept</text>
</a>
</g>
</g>
<!-- Node15&#45;&gt;Node17 -->
<g id="edge18_Node000015_Node000017" class="edge">
<title>Node15&#45;&gt;Node17</title>
<g id="a_edge18_Node000015_Node000017"><a xlink:title=" ">
<path fill="none" stroke="#63b8ff" d="M554.75,-110.33C554.75,-103.82 554.75,-94.67 554.75,-86.37"/>
<polygon fill="#63b8ff" stroke="#63b8ff" points="558.25,-86.37 554.75,-76.37 551.25,-86.37 558.25,-86.37"/>
</a>
</g>
</g>
<!-- Node18 -->
<g id="Node000018" class="node">
<title>Node18</title>
<g id="a_Node000018"><a xlink:title=" ">
<polygon fill="#e0e0e0" stroke="#999999" points="641.75,-74.5 601.75,-74.5 601.75,-55.25 641.75,-55.25 641.75,-74.5"/>
<text text-anchor="middle" x="621.75" y="-61" font-family="Helvetica,sans-Serif" font-size="10.00">string</text>
</a>
</g>
</g>
<!-- Node15&#45;&gt;Node18 -->
<g id="edge19_Node000015_Node000018" class="edge">
<title>Node15&#45;&gt;Node18</title>
<g id="a_edge19_Node000015_Node000018"><a xlink:title=" ">
<path fill="none" stroke="#63b8ff" d="M566.12,-110.09C575.8,-102.4 589.95,-91.15 601.56,-81.93"/>
<polygon fill="#63b8ff" stroke="#63b8ff" points="603.72,-84.68 609.37,-75.72 599.36,-79.2 603.72,-84.68"/>
</a>
</g>
</g>
<!-- Node19 -->
<g id="Node000019" class="node">
<title>Node19</title>
<g id="a_Node000019"><a xlink:title=" ">
<polygon fill="#e0e0e0" stroke="#999999" points="704,-74.5 659.5,-74.5 659.5,-55.25 704,-55.25 704,-74.5"/>
<text text-anchor="middle" x="681.75" y="-61" font-family="Helvetica,sans-Serif" font-size="10.00">cstdlib</text>
</a>
</g>
</g>
<!-- Node15&#45;&gt;Node19 -->
<g id="edge21_Node000015_Node000019" class="edge">
<title>Node15&#45;&gt;Node19</title>
<g id="a_edge21_Node000015_Node000019"><a xlink:title=" ">
<path fill="none" stroke="#63b8ff" d="M576.29,-110.09C596.36,-101.68 626.55,-89.02 649.5,-79.4"/>
<polygon fill="#63b8ff" stroke="#63b8ff" points="650.84,-82.63 658.7,-75.54 648.13,-76.18 650.84,-82.63"/>
</a>
</g>
</g>
<!-- Node20 -->
<g id="Node000020" class="node">
<title>Node20</title>
<g id="a_Node000020"><a xlink:title=" ">
<polygon fill="#e0e0e0" stroke="#999999" points="781.5,-74.5 722,-74.5 722,-55.25 781.5,-55.25 781.5,-74.5"/>
<text text-anchor="middle" x="751.75" y="-61" font-family="Helvetica,sans-Serif" font-size="10.00">execinfo.h</text>
</a>
</g>
</g>
<!-- Node15&#45;&gt;Node20 -->
<g id="edge22_Node000015_Node000020" class="edge">
<title>Node15&#45;&gt;Node20</title>
<g id="a_edge22_Node000015_Node000020"><a xlink:title=" ">
<path fill="none" stroke="#63b8ff" d="M583.4,-111.38C617,-102.3 672.96,-87.17 711.06,-76.87"/>
<polygon fill="#63b8ff" stroke="#63b8ff" points="711.58,-80.36 720.32,-74.37 709.75,-73.6 711.58,-80.36"/>
</a>
</g>
</g>
<!-- Node21 -->
<g id="Node000021" class="node">
<title>Node21</title>
<g id="a_Node000021"><a xlink:title=" ">
<polygon fill="#e0e0e0" stroke="#999999" points="850,-74.5 799.5,-74.5 799.5,-55.25 850,-55.25 850,-74.5"/>
<text text-anchor="middle" x="824.75" y="-61" font-family="Helvetica,sans-Serif" font-size="10.00">cxxabi.h</text>
</a>
</g>
</g>
<!-- Node15&#45;&gt;Node21 -->
<g id="edge23_Node000015_Node000021" class="edge">
<title>Node15&#45;&gt;Node21</title>
<g id="a_edge23_Node000015_Node000021"><a xlink:title=" ">
<path fill="none" stroke="#63b8ff" d="M583.2,-114.33C625.66,-107.04 708.37,-92.37 787.96,-75.01"/>
<polygon fill="#63b8ff" stroke="#63b8ff" points="788.68,-78.44 797.69,-72.87 787.17,-71.6 788.68,-78.44"/>
</a>
</g>
</g>
<!-- Node22 -->
<g id="Node000022" class="node">
<title>Node22</title>
<g id="a_Node000022"><a xlink:title=" ">
<polygon fill="#e0e0e0" stroke="#999999" points="919.38,-74.5 868.12,-74.5 868.12,-55.25 919.38,-55.25 919.38,-74.5"/>
<text text-anchor="middle" x="893.75" y="-61" font-family="Helvetica,sans-Serif" font-size="10.00">sstream</text>
</a>
</g>
</g>
<!-- Node15&#45;&gt;Node22 -->
<g id="edge24_Node000015_Node000022" class="edge">
<title>Node15&#45;&gt;Node22</title>
<g id="a_edge24_Node000015_Node000022"><a xlink:title=" ">
<path fill="none" stroke="#63b8ff" d="M583.41,-115.85C635.65,-109.68 750.07,-95.24 856.55,-74.76"/>
<polygon fill="#63b8ff" stroke="#63b8ff" points="857.19,-78.2 866.33,-72.85 855.85,-71.33 857.19,-78.2"/>
</a>
</g>
</g>
<!-- Node23 -->
<g id="Node000023" class="node">
<title>Node23</title>
<g id="a_Node000023"><a xlink:title=" ">
<polygon fill="#e0e0e0" stroke="#999999" points="147.25,-74.5 110.25,-74.5 110.25,-55.25 147.25,-55.25 147.25,-74.5"/>
<text text-anchor="middle" x="128.75" y="-61" font-family="Helvetica,sans-Serif" font-size="10.00">array</text>
</a>
</g>
</g>
<!-- Node15&#45;&gt;Node23 -->
<g id="edge25_Node000015_Node000023" class="edge">
<title>Node15&#45;&gt;Node23</title>
<g id="a_edge25_Node000015_Node000023"><a xlink:title=" ">
<path fill="none" stroke="#63b8ff" d="M526.14,-112.07C523.32,-111.49 520.48,-110.95 517.75,-110.5 362.25,-84.73 316.83,-105.42 158.68,-74.46"/>
<polygon fill="#63b8ff" stroke="#63b8ff" points="159.57,-71.07 149.08,-72.54 158.2,-77.93 159.57,-71.07"/>
</a>
</g>
</g>
<!-- Node24 -->
<g id="Node000024" class="node">
<title>Node24</title>
<g id="a_Node000024"><a xlink:title=" ">
<polygon fill="#e0e0e0" stroke="#999999" points="216,-74.5 165.5,-74.5 165.5,-55.25 216,-55.25 216,-74.5"/>
<text text-anchor="middle" x="190.75" y="-61" font-family="Helvetica,sans-Serif" font-size="10.00">memory</text>
</a>
</g>
</g>
<!-- Node15&#45;&gt;Node24 -->
<g id="edge26_Node000015_Node000024" class="edge">
<title>Node15&#45;&gt;Node24</title>
<g id="a_edge26_Node000015_Node000024"><a xlink:title=" ">
<path fill="none" stroke="#63b8ff" d="M526.13,-112.14C523.31,-111.54 520.48,-110.98 517.75,-110.5 392.1,-88.2 355.68,-98.1 227.34,-74.77"/>
<polygon fill="#63b8ff" stroke="#63b8ff" points="228.25,-71.38 217.78,-73 226.98,-78.26 228.25,-71.38"/>
</a>
</g>
</g>
<!-- Node25 -->
<g id="Node000025" class="node">
<title>Node25</title>
<g id="a_Node000025"><a xlink:title=" ">
<polygon fill="#e0e0e0" stroke="#999999" points="283.62,-74.5 233.88,-74.5 233.88,-55.25 283.62,-55.25 283.62,-74.5"/>
<text text-anchor="middle" x="258.75" y="-61" font-family="Helvetica,sans-Serif" font-size="10.00">unistd.h</text>
</a>
</g>
</g>
<!-- Node15&#45;&gt;Node25 -->
<g id="edge27_Node000015_Node000025" class="edge">
<title>Node15&#45;&gt;Node25</title>
<g id="a_edge27_Node000015_Node000025"><a xlink:title=" ">
<path fill="none" stroke="#63b8ff" d="M526.11,-112.24C523.29,-111.62 520.47,-111.03 517.75,-110.5 421.87,-91.68 393.88,-94.72 295.04,-74.8"/>
<polygon fill="#63b8ff" stroke="#63b8ff" points="295.92,-71.41 285.43,-72.84 294.52,-78.27 295.92,-71.41"/>
</a>
</g>
</g>
<!-- Node26 -->
<g id="Node000026" class="node">
<title>Node26</title>
<g id="a_Node000026"><a xlink:title=" ">
<polygon fill="#e0e0e0" stroke="#999999" points="361.5,-74.5 302,-74.5 302,-55.25 361.5,-55.25 361.5,-74.5"/>
<text text-anchor="middle" x="331.75" y="-61" font-family="Helvetica,sans-Serif" font-size="10.00">sys/wait.h</text>
</a>
</g>
</g>
<!-- Node15&#45;&gt;Node26 -->
<g id="edge28_Node000015_Node000026" class="edge">
<title>Node15&#45;&gt;Node26</title>
<g id="a_edge28_Node000015_Node000026"><a xlink:title=" ">
<path fill="none" stroke="#63b8ff" d="M526.05,-112.27C487.1,-102.97 417.24,-86.29 372.76,-75.67"/>
<polygon fill="#63b8ff" stroke="#63b8ff" points="373.77,-72.31 363.23,-73.39 372.15,-79.12 373.77,-72.31"/>
</a>
</g>
</g>
<!-- Node27 -->
<g id="Node000027" class="node">
<title>Node27</title>
<g id="a_Node000027"><a xlink:title=" ">
<polygon fill="#e0e0e0" stroke="#999999" points="439.88,-74.5 379.62,-74.5 379.62,-55.25 439.88,-55.25 439.88,-74.5"/>
<text text-anchor="middle" x="409.75" y="-61" font-family="Helvetica,sans-Serif" font-size="10.00">sys/prctl.h</text>
</a>
</g>
</g>
<!-- Node15&#45;&gt;Node27 -->
<g id="edge29_Node000015_Node000027" class="edge">
<title>Node15&#45;&gt;Node27</title>
<g id="a_edge29_Node000015_Node000027"><a xlink:title=" ">
<path fill="none" stroke="#63b8ff" d="M530.15,-110.09C506.82,-101.52 471.51,-88.56 445.15,-78.88"/>
<polygon fill="#63b8ff" stroke="#63b8ff" points="446.48,-75.64 435.89,-75.47 444.07,-82.21 446.48,-75.64"/>
</a>
</g>
</g>
<!-- Node28&#45;&gt;Node2 -->
<g id="edge37_Node000028_Node000002" class="edge">
<title>Node28&#45;&gt;Node2</title>
<g id="a_edge37_Node000028_Node000002"><a xlink:title=" ">
<path fill="none" stroke="#63b8ff" d="M1116.36,-111.27C1142.29,-102.64 1184.32,-88.65 1214.87,-78.48"/>
<polygon fill="#63b8ff" stroke="#63b8ff" points="1215.74,-81.88 1224.12,-75.4 1213.53,-75.24 1215.74,-81.88"/>
</a>
</g>
</g>
<!-- Node28&#45;&gt;Node3 -->
<g id="edge31_Node000028_Node000003" class="edge">
<title>Node28&#45;&gt;Node3</title>
<g id="a_edge31_Node000028_Node000003"><a xlink:title=" ">
<path fill="none" stroke="#63b8ff" d="M1068.88,-111.67C1048.3,-104.43 1018.55,-91.97 996.75,-74.5 980.93,-61.82 967.31,-43.01 958.47,-29.08"/>
<polygon fill="#63b8ff" stroke="#63b8ff" points="961.66,-27.58 953.48,-20.86 955.68,-31.22 961.66,-27.58"/>
</a>
</g>
</g>
<!-- Node28&#45;&gt;Node4 -->
<g id="edge32_Node000028_Node000004" class="edge">
<title>Node28&#45;&gt;Node4</title>
<g id="a_edge32_Node000028_Node000004"><a xlink:title=" ">
<path fill="none" stroke="#63b8ff" d="M1069,-113.09C1037.16,-103.75 986.58,-83.86 1004.75,-55.25 1016.56,-36.65 1038.42,-25.66 1058.19,-19.25"/>
<polygon fill="#63b8ff" stroke="#63b8ff" points="1059.11,-22.63 1067.73,-16.48 1057.15,-15.9 1059.11,-22.63"/>
</a>
</g>
</g>
<!-- Node28&#45;&gt;Node5 -->
<g id="edge33_Node000028_Node000005" class="edge">
<title>Node28&#45;&gt;Node5</title>
<g id="a_edge33_Node000028_Node000005"><a xlink:title=" ">
<path fill="none" stroke="#63b8ff" d="M1114.29,-110.06C1131.31,-102.23 1155.06,-89.79 1172.75,-74.5 1188.09,-61.25 1201.77,-42.51 1210.76,-28.76"/>
<polygon fill="#63b8ff" stroke="#63b8ff" points="1213.49,-30.99 1215.85,-20.66 1207.56,-27.26 1213.49,-30.99"/>
</a>
</g>
</g>
<!-- Node28&#45;&gt;Node6 -->
<g id="edge34_Node000028_Node000006" class="edge">
<title>Node28&#45;&gt;Node6</title>
<g id="a_edge34_Node000028_Node000006"><a xlink:title=" ">
<path fill="none" stroke="#63b8ff" d="M1116.59,-116.87C1164.26,-111.9 1268.99,-98.48 1294.75,-74.5 1306.8,-63.28 1311.33,-44.8 1312.97,-30.59"/>
<polygon fill="#63b8ff" stroke="#63b8ff" points="1316.43,-31.24 1313.67,-21.01 1309.45,-30.72 1316.43,-31.24"/>
</a>
</g>
</g>
<!-- Node29 -->
<g id="Node000029" class="node">
<title>Node29</title>
<g id="a_Node000029"><a xlink:title=" ">
<polygon fill="#e0e0e0" stroke="#999999" points="1088,-74.5 1013.5,-74.5 1013.5,-55.25 1088,-55.25 1088,-74.5"/>
<text text-anchor="middle" x="1050.75" y="-61" font-family="Helvetica,sans-Serif" font-size="10.00">TVirtualPad.h</text>
</a>
</g>
</g>
<!-- Node28&#45;&gt;Node29 -->
<g id="edge35_Node000028_Node000029" class="edge">
<title>Node28&#45;&gt;Node29</title>
<g id="a_edge35_Node000028_Node000029"><a xlink:title=" ">
<path fill="none" stroke="#63b8ff" d="M1085.81,-110.33C1080.13,-103.13 1071.91,-92.71 1064.86,-83.76"/>
<polygon fill="#63b8ff" stroke="#63b8ff" points="1067.71,-81.73 1058.77,-76.05 1062.22,-86.07 1067.71,-81.73"/>
</a>
</g>
</g>
<!-- Node30 -->
<g id="Node000030" class="node">
<title>Node30</title>
<g id="a_Node000030"><a xlink:title=" ">
<polygon fill="#e0e0e0" stroke="#999999" points="1163.38,-74.5 1106.12,-74.5 1106.12,-55.25 1163.38,-55.25 1163.38,-74.5"/>
<text text-anchor="middle" x="1134.75" y="-61" font-family="Helvetica,sans-Serif" font-size="10.00">TFrame.h</text>
</a>
</g>
</g>
<!-- Node28&#45;&gt;Node30 -->
<g id="edge36_Node000028_Node000030" class="edge">
<title>Node28&#45;&gt;Node30</title>
<g id="a_edge36_Node000028_Node000030"><a xlink:title=" ">
<path fill="none" stroke="#63b8ff" d="M1099.69,-110.33C1105.37,-103.13 1113.59,-92.71 1120.64,-83.76"/>
<polygon fill="#63b8ff" stroke="#63b8ff" points="1123.28,-86.07 1126.73,-76.05 1117.79,-81.73 1123.28,-86.07"/>
</a>
</g>
</g>
<!-- Node31&#45;&gt;Node10 -->
<g id="edge39_Node000031_Node000010" class="edge">
<title>Node31&#45;&gt;Node10</title>
<g id="a_edge39_Node000031_Node000010"><a xlink:title=" ">
<path fill="none" stroke="#63b8ff" d="M638.05,-165.34C605.3,-155.71 553.63,-140.51 520.22,-130.68"/>
<polygon fill="#63b8ff" stroke="#63b8ff" points="521.26,-127.33 510.68,-127.87 519.28,-134.05 521.26,-127.33"/>
</a>
</g>
</g>
</g>
</svg>

<g id="navigator" transform="translate(0 0)" fill="#404254">
  <rect fill="#f2f5e9" fill-opacity="0.5" stroke="#606060" stroke-width=".5" x="0" y="0" width="60" height="60"/>
  <use id="zoomplus" xlink:href="#zoomPlus" x="17" y="9" onmousedown="handleZoom(evt,'in')"/>
  <use id="zoomminus" xlink:href="#zoomMin" x="42" y="9" onmousedown="handleZoom(evt,'out')"/>
  <use id="reset" xlink:href="#resetDef" x="30" y="36" onmousedown="handleReset()"/>
   <use id="arrowup" xlink:href="#arrowUp" x="0" y="0" onmousedown="handlePan(0,-1)"/>
  <use id="arrowright" xlink:href="#arrowRight" x="0" y="0" onmousedown="handlePan(1,0)"/>
  <use id="arrowdown" xlink:href="#arrowDown" x="0" y="0" onmousedown="handlePan(0,1)"/>
  <use id="arrowleft" xlink:href="#arrowLeft" x="0" y="0" onmousedown="handlePan(-1,0)"/>
</g>
<svg viewBox="0 0 15 15" width="100%" height="30px" preserveAspectRatio="xMaxYMin meet">
 <g id="arrow_out" transform="scale(0.3 0.3)">
  <a xlink:href="_g_h2_base_8cxx__incl_org.svg" target="_base">
   <rect id="button" ry="5" rx="5" y="6" x="6" height="38" width="38"
        fill="#f2f5e9" fill-opacity="0.5" stroke="#606060" stroke-width="1.0"/>
   <path id="arrow"
     d="M 11.500037,31.436501 C 11.940474,20.09759 22.043105,11.32322 32.158766,21.979434 L 37.068811,17.246167 C 37.068811,17.246167 37.088388,32 37.088388,32 L 22.160133,31.978069 C 22.160133,31.978069 26.997745,27.140456 26.997745,27.140456 C 18.528582,18.264221 13.291696,25.230495 11.500037,31.436501 z"
     style="fill:#404040;"/>
  </a>
 </g>
</svg>

<style type='text/css'>
<![CDATA[
[data-mouse-over-selected='false'] { opacity: 0.7; }
[data-mouse-over-selected='true']  { opacity: 1.0; }
]]>
</style>
<script type="application/ecmascript"><![CDATA[
document.addEventListener('DOMContentLoaded', (event) => {
  highlightEdges();
  highlightAdjacentNodes();
});
]]></script>
</svg>
