<?xml version="1.0" encoding="UTF-8" standalone="no"?>
<!DOCTYPE svg PUBLIC "-//W3C//DTD SVG 1.1//EN"
 "http://www.w3.org/Graphics/SVG/1.1/DTD/svg11.dtd">
<!-- Generated by graphviz version 12.2.0 (20241103.1931)
 -->
<!-- Title: GH2Base.cxx Pages: 1 -->
<!--zoomable 248 -->

<svg id="main" version="1.1" xmlns="http://www.w3.org/2000/svg" xmlns:xlink="http://www.w3.org/1999/xlink" xml:space="preserve" onload="init(evt)">

<style type="text/css"><![CDATA[
.node, .edge {opacity: 0.7;}
.node.selected, .edge.selected {opacity: 1;}
.edge:hover path { stroke: red; }
.edge:hover polygon { stroke: red; fill: red; }
]]></style>

<defs>
  <circle id="rim" cx="0" cy="0" r="7"/>
  <circle id="rim2" cx="0" cy="0" r="3.5"/>
  <g id="zoomPlus">
    <use xlink:href="#rim" fill="#404040"><set attributeName="fill" to="#808080" begin="zoomplus.mouseover" end="zoomplus.mouseout"/></use>
    <path d="M-4,0h8M0,-4v8" fill="none" stroke="white" stroke-width="1.5" pointer-events="none"/>
  </g>
  <g id="zoomMin">
    <use xlink:href="#rim" fill="#404040"><set attributeName="fill" to="#808080" begin="zoomminus.mouseover" end="zoomminus.mouseout"/></use>
    <path d="M-4,0h8" fill="none" stroke="white" stroke-width="1.5" pointer-events="none"/>
  </g>
  <g id="arrowUp" transform="translate(30 24)">
    <use xlink:href="#rim"/>
    <path pointer-events="none" fill="none" stroke="white" stroke-width="1.5" d="M0,-3.0v7 M-2.5,-0.5L0,-3.0L2.5,-0.5"/>
  </g>
  <g id="arrowRight" transform="rotate(90) translate(36 -43)">
    <use xlink:href="#rim"/>
    <path pointer-events="none" fill="none" stroke="white" stroke-width="1.5" d="M0,-3.0v7 M-2.5,-0.5L0,-3.0L2.5,-0.5"/>
  </g>
  <g id="arrowDown" transform="rotate(180) translate(-30 -48)">
    <use xlink:href="#rim"/>
    <path pointer-events="none" fill="none" stroke="white" stroke-width="1.5" d="M0,-3.0v7 M-2.5,-0.5L0,-3.0L2.5,-0.5"/>
  </g>
  <g id="arrowLeft" transform="rotate(270) translate(-36 17)">
    <use xlink:href="#rim"/>
    <path pointer-events="none" fill="none" stroke="white" stroke-width="1.5" d="M0,-3.0v7 M-2.5,-0.5L0,-3.0L2.5,-0.5"/>
  </g>
  <g id="resetDef">
    <use xlink:href="#rim2" fill="#404040"><set attributeName="fill" to="#808080" begin="reset.mouseover" end="reset.mouseout"/></use>
  </g>
</defs>
<script type="application/ecmascript">
var viewWidth = 1407;
var viewHeight = 248;
var sectionId = 'dynsection-0';
</script>
<script type="application/ecmascript" xlink:href="svg.min.js"/>
<svg id="graph" class="graph">
<g id="viewport">
<title>GH2Base.cxx</title>
<!-- Node1 -->
<g id="Node000001" class="node">
<title>Node1</title>
<g id="a_Node000001"><a xlink:title=" ">
<polygon fill="#999999" stroke="#666666" points="863.38,-240.25 788.12,-240.25 788.12,-221 863.38,-221 863.38,-240.25"/>
<text text-anchor="middle" x="825.75" y="-226.75" font-family="Helvetica,sans-Serif" font-size="10.00">GH2Base.cxx</text>
</a>
</g>
</g>
<!-- Node2 -->
<g id="Node000002" class="node">
<title>Node2</title>
<g id="a_Node000002"><a xlink:href="_g_h2_base_8h.html" target="_top" xlink:title=" ">
<polygon fill="white" stroke="#666666" points="1347.88,-74.5 1281.62,-74.5 1281.62,-55.25 1347.88,-55.25 1347.88,-74.5"/>
<text text-anchor="middle" x="1314.75" y="-61" font-family="Helvetica,sans-Serif" font-size="10.00">GH2Base.h</text>
</a>
</g>
</g>
<!-- Node1&#45;&gt;Node2 -->
<g id="edge1_Node000001_Node000002" class="edge">
<title>Node1&#45;&gt;Node2</title>
<g id="a_edge1_Node000001_Node000002"><a xlink:title=" ">
<path fill="none" stroke="#63b8ff" d="M855.01,-220.59C910.27,-203.45 1033.66,-164.79 1136.75,-129.75 1186.75,-112.75 1244.2,-91.9 1279.99,-78.74"/>
<polygon fill="#63b8ff" stroke="#63b8ff" points="1280.77,-82.18 1288.95,-75.44 1278.35,-75.61 1280.77,-82.18"/>
</a>
</g>
</g>
<!-- Node7 -->
<g id="Node000007" class="node">
<title>Node7</title>
<g id="a_Node000007"><a xlink:title=" ">
<polygon fill="#e0e0e0" stroke="#999999" points="53.5,-74.5 0,-74.5 0,-55.25 53.5,-55.25 53.5,-74.5"/>
<text text-anchor="middle" x="26.75" y="-61" font-family="Helvetica,sans-Serif" font-size="10.00">iostream</text>
</a>
</g>
</g>
<!-- Node1&#45;&gt;Node7 -->
<g id="edge6_Node000001_Node000007" class="edge">
<title>Node1&#45;&gt;Node7</title>
<g id="a_edge6_Node000001_Node000007"><a xlink:title=" ">
<path fill="none" stroke="#63b8ff" d="M787.87,-222.51C677.73,-201.69 347.91,-138.5 64.76,-75.12"/>
<polygon fill="#63b8ff" stroke="#63b8ff" points="65.86,-71.78 55.33,-73 64.32,-78.61 65.86,-71.78"/>
</a>
</g>
</g>
<!-- Node8 -->
<g id="Node000008" class="node">
<title>Node8</title>
<g id="a_Node000008"><a xlink:title=" ">
<polygon fill="#e0e0e0" stroke="#999999" points="1251.62,-185 1183.88,-185 1183.88,-165.75 1251.62,-165.75 1251.62,-185"/>
<text text-anchor="middle" x="1217.75" y="-171.5" font-family="Helvetica,sans-Serif" font-size="10.00">TDirectory.h</text>
</a>
</g>
</g>
<!-- Node1&#45;&gt;Node8 -->
<g id="edge7_Node000001_Node000008" class="edge">
<title>Node1&#45;&gt;Node8</title>
<g id="a_edge7_Node000001_Node000008"><a xlink:title=" ">
<path fill="none" stroke="#63b8ff" d="M863.76,-225.31C927.26,-217.96 1058.9,-202.14 1169.75,-185 1170.58,-184.87 1171.42,-184.74 1172.27,-184.61"/>
<polygon fill="#63b8ff" stroke="#63b8ff" points="1172.65,-188.09 1181.94,-183 1171.5,-181.18 1172.65,-188.09"/>
</a>
</g>
</g>
<!-- Node9 -->
<g id="Node000009" class="node">
<title>Node9</title>
<g id="a_Node000009"><a xlink:href="_g_h1_d_8h.html" target="_top" xlink:title=" ">
<polygon fill="white" stroke="#666666" points="851,-185 800.5,-185 800.5,-165.75 851,-165.75 851,-185"/>
<text text-anchor="middle" x="825.75" y="-171.5" font-family="Helvetica,sans-Serif" font-size="10.00">GH1D.h</text>
</a>
</g>
</g>
<!-- Node1&#45;&gt;Node9 -->
<g id="edge8_Node000001_Node000009" class="edge">
<title>Node1&#45;&gt;Node9</title>
<g id="a_edge8_Node000001_Node000009"><a xlink:title=" ">
<path fill="none" stroke="#63b8ff" d="M825.75,-220.83C825.75,-214.32 825.75,-205.17 825.75,-196.87"/>
<polygon fill="#63b8ff" stroke="#63b8ff" points="829.25,-196.87 825.75,-186.87 822.25,-196.87 829.25,-196.87"/>
</a>
</g>
</g>
<!-- Node32 -->
<g id="Node000032" class="node">
<title>Node32</title>
<g id="a_Node000032"><a xlink:href="_suppress_t_h1_g_directory_8h.html" target="_top" xlink:title=" ">
<polygon fill="white" stroke="#666666" points="758.38,-185 629.12,-185 629.12,-165.75 758.38,-165.75 758.38,-185"/>
<text text-anchor="middle" x="693.75" y="-171.5" font-family="Helvetica,sans-Serif" font-size="10.00">SuppressTH1GDirectory.h</text>
</a>
</g>
</g>
<!-- Node1&#45;&gt;Node32 -->
<g id="edge39_Node000001_Node000032" class="edge">
<title>Node1&#45;&gt;Node32</title>
<g id="a_edge39_Node000001_Node000032"><a xlink:title=" ">
<path fill="none" stroke="#63b8ff" d="M803.36,-220.59C782.31,-212.1 750.55,-199.29 726.63,-189.64"/>
<polygon fill="#63b8ff" stroke="#63b8ff" points="728.24,-186.51 717.66,-186.02 725.62,-193.01 728.24,-186.51"/>
</a>
</g>
</g>
<!-- Node3 -->
<g id="Node000003" class="node">
<title>Node3</title>
<g id="a_Node000003"><a xlink:title=" ">
<polygon fill="#e0e0e0" stroke="#999999" points="1030.88,-19.25 988.62,-19.25 988.62,0 1030.88,0 1030.88,-19.25"/>
<text text-anchor="middle" x="1009.75" y="-5.75" font-family="Helvetica,sans-Serif" font-size="10.00">cstdio</text>
</a>
</g>
</g>
<!-- Node2&#45;&gt;Node3 -->
<g id="edge2_Node000002_Node000003" class="edge">
<title>Node2&#45;&gt;Node3</title>
<g id="a_edge2_Node000002_Node000003"><a xlink:title=" ">
<path fill="none" stroke="#63b8ff" d="M1281.3,-56.9C1278.41,-56.33 1275.53,-55.77 1272.75,-55.25 1190.12,-39.76 1092.43,-23.8 1042.59,-15.82"/>
<polygon fill="#63b8ff" stroke="#63b8ff" points="1043.19,-12.38 1032.77,-14.26 1042.09,-19.29 1043.19,-12.38"/>
</a>
</g>
</g>
<!-- Node4 -->
<g id="Node000004" class="node">
<title>Node4</title>
<g id="a_Node000004"><a xlink:title=" ">
<polygon fill="#e0e0e0" stroke="#999999" points="1192.25,-19.25 1131.25,-19.25 1131.25,0 1192.25,0 1192.25,-19.25"/>
<text text-anchor="middle" x="1161.75" y="-5.75" font-family="Helvetica,sans-Serif" font-size="10.00">TNamed.h</text>
</a>
</g>
</g>
<!-- Node2&#45;&gt;Node4 -->
<g id="edge3_Node000002_Node000004" class="edge">
<title>Node2&#45;&gt;Node4</title>
<g id="a_edge3_Node000002_Node000004"><a xlink:title=" ">
<path fill="none" stroke="#63b8ff" d="M1288.8,-54.84C1263.96,-46.2 1226.25,-33.07 1198.37,-23.37"/>
<polygon fill="#63b8ff" stroke="#63b8ff" points="1199.86,-20.18 1189.26,-20.2 1197.56,-26.79 1199.86,-20.18"/>
</a>
</g>
</g>
<!-- Node5 -->
<g id="Node000005" class="node">
<title>Node5</title>
<g id="a_Node000005"><a xlink:title=" ">
<polygon fill="#e0e0e0" stroke="#999999" points="1258.88,-19.25 1216.62,-19.25 1216.62,0 1258.88,0 1258.88,-19.25"/>
<text text-anchor="middle" x="1237.75" y="-5.75" font-family="Helvetica,sans-Serif" font-size="10.00">TH2.h</text>
</a>
</g>
</g>
<!-- Node2&#45;&gt;Node5 -->
<g id="edge4_Node000002_Node000005" class="edge">
<title>Node2&#45;&gt;Node5</title>
<g id="a_edge4_Node000002_Node000005"><a xlink:title=" ">
<path fill="none" stroke="#63b8ff" d="M1301.69,-54.84C1290.29,-46.96 1273.52,-35.36 1260.01,-26.02"/>
<polygon fill="#63b8ff" stroke="#63b8ff" points="1262.34,-23.37 1252.12,-20.56 1258.35,-29.13 1262.34,-23.37"/>
</a>
</g>
</g>
<!-- Node6 -->
<g id="Node000006" class="node">
<title>Node6</title>
<g id="a_Node000006"><a xlink:title=" ">
<polygon fill="#e0e0e0" stroke="#999999" points="1398.75,-19.25 1352.75,-19.25 1352.75,0 1398.75,0 1398.75,-19.25"/>
<text text-anchor="middle" x="1375.75" y="-5.75" font-family="Helvetica,sans-Serif" font-size="10.00">TList.h</text>
</a>
</g>
</g>
<!-- Node2&#45;&gt;Node6 -->
<g id="edge5_Node000002_Node000006" class="edge">
<title>Node2&#45;&gt;Node6</title>
<g id="a_edge5_Node000002_Node000006"><a xlink:title=" ">
<path fill="none" stroke="#63b8ff" d="M1325.1,-54.84C1333.83,-47.22 1346.54,-36.12 1357.05,-26.95"/>
<polygon fill="#63b8ff" stroke="#63b8ff" points="1359.18,-29.73 1364.41,-20.52 1354.58,-24.46 1359.18,-29.73"/>
</a>
</g>
</g>
<!-- Node9&#45;&gt;Node6 -->
<g id="edge13_Node000009_Node000006" class="edge">
<title>Node9&#45;&gt;Node6</title>
<g id="a_edge13_Node000009_Node000006"><a xlink:title=" ">
<path fill="none" stroke="#63b8ff" d="M851.42,-173.97C951.09,-171.79 1310.15,-158.17 1376.75,-74.5 1386.47,-62.28 1385.2,-44.19 1382.09,-30.38"/>
<polygon fill="#63b8ff" stroke="#63b8ff" points="1385.55,-29.76 1379.51,-21.05 1378.8,-31.62 1385.55,-29.76"/>
</a>
</g>
</g>
<!-- Node10 -->
<g id="Node000010" class="node">
<title>Node10</title>
<g id="a_Node000010"><a xlink:title=" ">
<polygon fill="#e0e0e0" stroke="#999999" points="540.88,-129.75 498.62,-129.75 498.62,-110.5 540.88,-110.5 540.88,-129.75"/>
<text text-anchor="middle" x="519.75" y="-116.25" font-family="Helvetica,sans-Serif" font-size="10.00">TH1.h</text>
</a>
</g>
</g>
<!-- Node9&#45;&gt;Node10 -->
<g id="edge9_Node000009_Node000010" class="edge">
<title>Node9&#45;&gt;Node10</title>
<g id="a_edge9_Node000009_Node000010"><a xlink:title=" ">
<path fill="none" stroke="#63b8ff" d="M800.14,-170.41C741.88,-161.38 601.21,-139.42 552.47,-129.97"/>
<polygon fill="#63b8ff" stroke="#63b8ff" points="553.28,-126.56 542.78,-127.96 551.86,-133.42 553.28,-126.56"/>
</a>
</g>
</g>
<!-- Node11 -->
<g id="Node000011" class="node">
<title>Node11</title>
<g id="a_Node000011"><a xlink:title=" ">
<polygon fill="#e0e0e0" stroke="#999999" points="747,-129.75 702.5,-129.75 702.5,-110.5 747,-110.5 747,-129.75"/>
<text text-anchor="middle" x="724.75" y="-116.25" font-family="Helvetica,sans-Serif" font-size="10.00">TRef.h</text>
</a>
</g>
</g>
<!-- Node9&#45;&gt;Node11 -->
<g id="edge10_Node000009_Node000011" class="edge">
<title>Node9&#45;&gt;Node11</title>
<g id="a_edge10_Node000009_Node000011"><a xlink:title=" ">
<path fill="none" stroke="#63b8ff" d="M808.62,-165.34C793.09,-157.16 769.95,-144.96 751.91,-135.44"/>
<polygon fill="#63b8ff" stroke="#63b8ff" points="753.78,-132.48 743.31,-130.91 750.52,-138.67 753.78,-132.48"/>
</a>
</g>
</g>
<!-- Node12 -->
<g id="Node000012" class="node">
<title>Node12</title>
<g id="a_Node000012"><a xlink:title=" ">
<polygon fill="#e0e0e0" stroke="#999999" points="812.12,-129.75 765.38,-129.75 765.38,-110.5 812.12,-110.5 812.12,-129.75"/>
<text text-anchor="middle" x="788.75" y="-116.25" font-family="Helvetica,sans-Serif" font-size="10.00">TPad.h</text>
</a>
</g>
</g>
<!-- Node9&#45;&gt;Node12 -->
<g id="edge11_Node000009_Node000012" class="edge">
<title>Node9&#45;&gt;Node12</title>
<g id="a_edge11_Node000009_Node000012"><a xlink:title=" ">
<path fill="none" stroke="#63b8ff" d="M819.64,-165.58C814.69,-158.46 807.55,-148.18 801.38,-139.3"/>
<polygon fill="#63b8ff" stroke="#63b8ff" points="804.44,-137.57 795.86,-131.35 798.69,-141.56 804.44,-137.57"/>
</a>
</g>
</g>
<!-- Node13 -->
<g id="Node000013" class="node">
<title>Node13</title>
<g id="a_Node000013"><a xlink:title=" ">
<polygon fill="#e0e0e0" stroke="#999999" points="895.12,-129.75 830.38,-129.75 830.38,-110.5 895.12,-110.5 895.12,-129.75"/>
<text text-anchor="middle" x="862.75" y="-116.25" font-family="Helvetica,sans-Serif" font-size="10.00">GuiTypes.h</text>
</a>
</g>
</g>
<!-- Node9&#45;&gt;Node13 -->
<g id="edge12_Node000009_Node000013" class="edge">
<title>Node9&#45;&gt;Node13</title>
<g id="a_edge12_Node000009_Node000013"><a xlink:title=" ">
<path fill="none" stroke="#63b8ff" d="M831.86,-165.58C836.81,-158.46 843.95,-148.18 850.12,-139.3"/>
<polygon fill="#63b8ff" stroke="#63b8ff" points="852.81,-141.56 855.64,-131.35 847.06,-137.57 852.81,-141.56"/>
</a>
</g>
</g>
<!-- Node14 -->
<g id="Node000014" class="node">
<title>Node14</title>
<g id="a_Node000014"><a xlink:title=" ">
<polygon fill="#e0e0e0" stroke="#999999" points="958.75,-129.75 912.75,-129.75 912.75,-110.5 958.75,-110.5 958.75,-129.75"/>
<text text-anchor="middle" x="935.75" y="-116.25" font-family="Helvetica,sans-Serif" font-size="10.00">TBox.h</text>
</a>
</g>
</g>
<!-- Node9&#45;&gt;Node14 -->
<g id="edge14_Node000009_Node000014" class="edge">
<title>Node9&#45;&gt;Node14</title>
<g id="a_edge14_Node000009_Node000014"><a xlink:title=" ">
<path fill="none" stroke="#63b8ff" d="M844.41,-165.34C861.48,-157.08 886.99,-144.73 906.72,-135.18"/>
<polygon fill="#63b8ff" stroke="#63b8ff" points="908.16,-138.37 915.64,-130.86 905.11,-132.07 908.16,-138.37"/>
</a>
</g>
</g>
<!-- Node15 -->
<g id="Node000015" class="node">
<title>Node15</title>
<g id="a_Node000015"><a xlink:href="_globals_8h.html" target="_top" xlink:title=" ">
<polygon fill="white" stroke="#666666" points="615,-129.75 558.5,-129.75 558.5,-110.5 615,-110.5 615,-129.75"/>
<text text-anchor="middle" x="586.75" y="-116.25" font-family="Helvetica,sans-Serif" font-size="10.00">Globals.h</text>
</a>
</g>
</g>
<!-- Node9&#45;&gt;Node15 -->
<g id="edge15_Node000009_Node000015" class="edge">
<title>Node9&#45;&gt;Node15</title>
<g id="a_edge15_Node000009_Node000015"><a xlink:title=" ">
<path fill="none" stroke="#63b8ff" d="M800.17,-168.68C758.59,-159.41 676.02,-141.01 626.66,-130.02"/>
<polygon fill="#63b8ff" stroke="#63b8ff" points="627.47,-126.61 616.94,-127.85 625.94,-133.44 627.47,-126.61"/>
</a>
</g>
</g>
<!-- Node29 -->
<g id="Node000029" class="node">
<title>Node29</title>
<g id="a_Node000029"><a xlink:href="_g_h2_i_8h.html" target="_top" xlink:title=" ">
<polygon fill="white" stroke="#666666" points="1128.12,-129.75 1081.38,-129.75 1081.38,-110.5 1128.12,-110.5 1128.12,-129.75"/>
<text text-anchor="middle" x="1104.75" y="-116.25" font-family="Helvetica,sans-Serif" font-size="10.00">GH2I.h</text>
</a>
</g>
</g>
<!-- Node9&#45;&gt;Node29 -->
<g id="edge31_Node000009_Node000029" class="edge">
<title>Node9&#45;&gt;Node29</title>
<g id="a_edge31_Node000009_Node000029"><a xlink:title=" ">
<path fill="none" stroke="#63b8ff" d="M851.5,-169.46C901.75,-159.87 1012.93,-138.65 1069.79,-127.8"/>
<polygon fill="#63b8ff" stroke="#63b8ff" points="1070.4,-131.24 1079.57,-125.93 1069.09,-124.37 1070.4,-131.24"/>
</a>
</g>
</g>
<!-- Node15&#45;&gt;Node3 -->
<g id="edge20_Node000015_Node000003" class="edge">
<title>Node15&#45;&gt;Node3</title>
<g id="a_edge20_Node000015_Node000003"><a xlink:title=" ">
<path fill="none" stroke="#63b8ff" d="M563.86,-110.17C536.72,-98.3 497.44,-76.38 516.75,-55.25 547.77,-21.3 871.51,-12.93 976.84,-11.09"/>
<polygon fill="#63b8ff" stroke="#63b8ff" points="976.83,-14.59 986.78,-10.93 976.72,-7.59 976.83,-14.59"/>
</a>
</g>
</g>
<!-- Node15&#45;&gt;Node7 -->
<g id="edge16_Node000015_Node000007" class="edge">
<title>Node15&#45;&gt;Node7</title>
<g id="a_edge16_Node000015_Node000007"><a xlink:title=" ">
<path fill="none" stroke="#63b8ff" d="M558.15,-112C555.32,-111.43 552.49,-110.92 549.75,-110.5 338.43,-78.28 278.57,-107.6 65.07,-74.78"/>
<polygon fill="#63b8ff" stroke="#63b8ff" points="65.71,-71.34 55.29,-73.25 64.62,-78.26 65.71,-71.34"/>
</a>
</g>
</g>
<!-- Node16 -->
<g id="Node000016" class="node">
<title>Node16</title>
<g id="a_Node000016"><a xlink:title=" ">
<polygon fill="#e0e0e0" stroke="#999999" points="575.62,-74.5 525.88,-74.5 525.88,-55.25 575.62,-55.25 575.62,-74.5"/>
<text text-anchor="middle" x="550.75" y="-61" font-family="Helvetica,sans-Serif" font-size="10.00">iomanip</text>
</a>
</g>
</g>
<!-- Node15&#45;&gt;Node16 -->
<g id="edge17_Node000015_Node000016" class="edge">
<title>Node15&#45;&gt;Node16</title>
<g id="a_edge17_Node000015_Node000016"><a xlink:title=" ">
<path fill="none" stroke="#63b8ff" d="M580.81,-110.33C576.04,-103.28 569.19,-93.15 563.23,-84.33"/>
<polygon fill="#63b8ff" stroke="#63b8ff" points="566.17,-82.44 557.67,-76.11 560.37,-86.36 566.17,-82.44"/>
</a>
</g>
</g>
<!-- Node17 -->
<g id="Node000017" class="node">
<title>Node17</title>
<g id="a_Node000017"><a xlink:title=" ">
<polygon fill="#e0e0e0" stroke="#999999" points="651.75,-74.5 593.75,-74.5 593.75,-55.25 651.75,-55.25 651.75,-74.5"/>
<text text-anchor="middle" x="622.75" y="-61" font-family="Helvetica,sans-Serif" font-size="10.00">stdexcept</text>
</a>
</g>
</g>
<!-- Node15&#45;&gt;Node17 -->
<g id="edge18_Node000015_Node000017" class="edge">
<title>Node15&#45;&gt;Node17</title>
<g id="a_edge18_Node000015_Node000017"><a xlink:title=" ">
<path fill="none" stroke="#63b8ff" d="M592.69,-110.33C597.46,-103.28 604.31,-93.15 610.27,-84.33"/>
<polygon fill="#63b8ff" stroke="#63b8ff" points="613.13,-86.36 615.83,-76.11 607.33,-82.44 613.13,-86.36"/>
</a>
</g>
</g>
<!-- Node18 -->
<g id="Node000018" class="node">
<title>Node18</title>
<g id="a_Node000018"><a xlink:title=" ">
<polygon fill="#e0e0e0" stroke="#999999" points="709.75,-74.5 669.75,-74.5 669.75,-55.25 709.75,-55.25 709.75,-74.5"/>
<text text-anchor="middle" x="689.75" y="-61" font-family="Helvetica,sans-Serif" font-size="10.00">string</text>
</a>
</g>
</g>
<!-- Node15&#45;&gt;Node18 -->
<g id="edge19_Node000015_Node000018" class="edge">
<title>Node15&#45;&gt;Node18</title>
<g id="a_edge19_Node000015_Node000018"><a xlink:title=" ">
<path fill="none" stroke="#63b8ff" d="M604.22,-110.09C620.06,-101.91 643.66,-89.71 662.06,-80.19"/>
<polygon fill="#63b8ff" stroke="#63b8ff" points="663.57,-83.35 670.85,-75.65 660.36,-77.13 663.57,-83.35"/>
</a>
</g>
</g>
<!-- Node19 -->
<g id="Node000019" class="node">
<title>Node19</title>
<g id="a_Node000019"><a xlink:title=" ">
<polygon fill="#e0e0e0" stroke="#999999" points="773.38,-74.5 728.12,-74.5 728.12,-55.25 773.38,-55.25 773.38,-74.5"/>
<text text-anchor="middle" x="750.75" y="-61" font-family="Helvetica,sans-Serif" font-size="10.00">cstdint</text>
</a>
</g>
</g>
<!-- Node15&#45;&gt;Node19 -->
<g id="edge21_Node000015_Node000019" class="edge">
<title>Node15&#45;&gt;Node19</title>
<g id="a_edge21_Node000015_Node000019"><a xlink:title=" ">
<path fill="none" stroke="#63b8ff" d="M614.57,-110.09C642.85,-100.91 686.7,-86.67 716.96,-76.85"/>
<polygon fill="#63b8ff" stroke="#63b8ff" points="717.96,-80.2 726.39,-73.78 715.8,-73.54 717.96,-80.2"/>
</a>
</g>
</g>
<!-- Node20 -->
<g id="Node000020" class="node">
<title>Node20</title>
<g id="a_Node000020"><a xlink:title=" ">
<polygon fill="#e0e0e0" stroke="#999999" points="836,-74.5 791.5,-74.5 791.5,-55.25 836,-55.25 836,-74.5"/>
<text text-anchor="middle" x="813.75" y="-61" font-family="Helvetica,sans-Serif" font-size="10.00">cstdlib</text>
</a>
</g>
</g>
<!-- Node15&#45;&gt;Node20 -->
<g id="edge22_Node000015_Node000020" class="edge">
<title>Node15&#45;&gt;Node20</title>
<g id="a_edge22_Node000015_Node000020"><a xlink:title=" ">
<path fill="none" stroke="#63b8ff" d="M615.42,-113.05C651.6,-105.27 715.99,-91.13 780,-75.11"/>
<polygon fill="#63b8ff" stroke="#63b8ff" points="780.79,-78.52 789.63,-72.68 779.08,-71.73 780.79,-78.52"/>
</a>
</g>
</g>
<!-- Node21 -->
<g id="Node000021" class="node">
<title>Node21</title>
<g id="a_Node000021"><a xlink:title=" ">
<polygon fill="#e0e0e0" stroke="#999999" points="913.5,-74.5 854,-74.5 854,-55.25 913.5,-55.25 913.5,-74.5"/>
<text text-anchor="middle" x="883.75" y="-61" font-family="Helvetica,sans-Serif" font-size="10.00">execinfo.h</text>
</a>
</g>
</g>
<!-- Node15&#45;&gt;Node21 -->
<g id="edge23_Node000015_Node000021" class="edge">
<title>Node15&#45;&gt;Node21</title>
<g id="a_edge23_Node000015_Node000021"><a xlink:title=" ">
<path fill="none" stroke="#63b8ff" d="M615.46,-114.6C661.28,-107.3 753.98,-92.12 842.5,-74.87"/>
<polygon fill="#63b8ff" stroke="#63b8ff" points="842.92,-78.35 852.06,-72.99 841.57,-71.48 842.92,-78.35"/>
</a>
</g>
</g>
<!-- Node22 -->
<g id="Node000022" class="node">
<title>Node22</title>
<g id="a_Node000022"><a xlink:title=" ">
<polygon fill="#e0e0e0" stroke="#999999" points="982,-74.5 931.5,-74.5 931.5,-55.25 982,-55.25 982,-74.5"/>
<text text-anchor="middle" x="956.75" y="-61" font-family="Helvetica,sans-Serif" font-size="10.00">cxxabi.h</text>
</a>
</g>
</g>
<!-- Node15&#45;&gt;Node22 -->
<g id="edge24_Node000015_Node000022" class="edge">
<title>Node15&#45;&gt;Node22</title>
<g id="a_edge24_Node000015_Node000022"><a xlink:title=" ">
<path fill="none" stroke="#63b8ff" d="M615.25,-116.47C671.64,-110.98 801.6,-97.13 920.14,-74.81"/>
<polygon fill="#63b8ff" stroke="#63b8ff" points="920.55,-78.29 929.72,-72.98 919.24,-71.42 920.55,-78.29"/>
</a>
</g>
</g>
<!-- Node23 -->
<g id="Node000023" class="node">
<title>Node23</title>
<g id="a_Node000023"><a xlink:title=" ">
<polygon fill="#e0e0e0" stroke="#999999" points="122.38,-74.5 71.12,-74.5 71.12,-55.25 122.38,-55.25 122.38,-74.5"/>
<text text-anchor="middle" x="96.75" y="-61" font-family="Helvetica,sans-Serif" font-size="10.00">sstream</text>
</a>
</g>
</g>
<!-- Node15&#45;&gt;Node23 -->
<g id="edge25_Node000015_Node000023" class="edge">
<title>Node15&#45;&gt;Node23</title>
<g id="a_edge25_Node000015_Node000023"><a xlink:title=" ">
<path fill="none" stroke="#63b8ff" d="M558.15,-112.03C555.32,-111.46 552.49,-110.93 549.75,-110.5 368.76,-81.78 317.06,-104.65 133.76,-74.76"/>
<polygon fill="#63b8ff" stroke="#63b8ff" points="134.58,-71.34 124.14,-73.16 133.43,-78.25 134.58,-71.34"/>
</a>
</g>
</g>
<!-- Node24 -->
<g id="Node000024" class="node">
<title>Node24</title>
<g id="a_Node000024"><a xlink:title=" ">
<polygon fill="#e0e0e0" stroke="#999999" points="177.25,-74.5 140.25,-74.5 140.25,-55.25 177.25,-55.25 177.25,-74.5"/>
<text text-anchor="middle" x="158.75" y="-61" font-family="Helvetica,sans-Serif" font-size="10.00">array</text>
</a>
</g>
</g>
<!-- Node15&#45;&gt;Node24 -->
<g id="edge26_Node000015_Node000024" class="edge">
<title>Node15&#45;&gt;Node24</title>
<g id="a_edge26_Node000015_Node000024"><a xlink:title=" ">
<path fill="none" stroke="#63b8ff" d="M558.14,-112.07C555.32,-111.49 552.48,-110.95 549.75,-110.5 393.39,-84.64 347.72,-105.54 188.74,-74.47"/>
<polygon fill="#63b8ff" stroke="#63b8ff" points="189.57,-71.06 179.08,-72.54 188.2,-77.93 189.57,-71.06"/>
</a>
</g>
</g>
<!-- Node25 -->
<g id="Node000025" class="node">
<title>Node25</title>
<g id="a_Node000025"><a xlink:title=" ">
<polygon fill="#e0e0e0" stroke="#999999" points="246,-74.5 195.5,-74.5 195.5,-55.25 246,-55.25 246,-74.5"/>
<text text-anchor="middle" x="220.75" y="-61" font-family="Helvetica,sans-Serif" font-size="10.00">memory</text>
</a>
</g>
</g>
<!-- Node15&#45;&gt;Node25 -->
<g id="edge27_Node000015_Node000025" class="edge">
<title>Node15&#45;&gt;Node25</title>
<g id="a_edge27_Node000015_Node000025"><a xlink:title=" ">
<path fill="none" stroke="#63b8ff" d="M558.13,-112.13C555.31,-111.54 552.48,-110.98 549.75,-110.5 423.25,-88.1 386.57,-98.19 257.41,-74.78"/>
<polygon fill="#63b8ff" stroke="#63b8ff" points="258.25,-71.38 247.78,-73 256.98,-78.26 258.25,-71.38"/>
</a>
</g>
</g>
<!-- Node26 -->
<g id="Node000026" class="node">
<title>Node26</title>
<g id="a_Node000026"><a xlink:title=" ">
<polygon fill="#e0e0e0" stroke="#999999" points="313.62,-74.5 263.88,-74.5 263.88,-55.25 313.62,-55.25 313.62,-74.5"/>
<text text-anchor="middle" x="288.75" y="-61" font-family="Helvetica,sans-Serif" font-size="10.00">unistd.h</text>
</a>
</g>
</g>
<!-- Node15&#45;&gt;Node26 -->
<g id="edge28_Node000015_Node000026" class="edge">
<title>Node15&#45;&gt;Node26</title>
<g id="a_edge28_Node000015_Node000026"><a xlink:title=" ">
<path fill="none" stroke="#63b8ff" d="M558.11,-112.24C555.29,-111.62 552.47,-111.03 549.75,-110.5 453.02,-91.58 424.77,-94.82 325.13,-74.82"/>
<polygon fill="#63b8ff" stroke="#63b8ff" points="325.92,-71.41 315.42,-72.84 324.52,-78.27 325.92,-71.41"/>
</a>
</g>
</g>
<!-- Node27 -->
<g id="Node000027" class="node">
<title>Node27</title>
<g id="a_Node000027"><a xlink:title=" ">
<polygon fill="#e0e0e0" stroke="#999999" points="391.5,-74.5 332,-74.5 332,-55.25 391.5,-55.25 391.5,-74.5"/>
<text text-anchor="middle" x="361.75" y="-61" font-family="Helvetica,sans-Serif" font-size="10.00">sys/wait.h</text>
</a>
</g>
</g>
<!-- Node15&#45;&gt;Node27 -->
<g id="edge29_Node000015_Node000027" class="edge">
<title>Node15&#45;&gt;Node27</title>
<g id="a_edge29_Node000015_Node000027"><a xlink:title=" ">
<path fill="none" stroke="#63b8ff" d="M558.25,-112.38C518.98,-103.09 447.99,-86.28 402.94,-75.62"/>
<polygon fill="#63b8ff" stroke="#63b8ff" points="403.81,-72.23 393.28,-73.34 402.2,-79.05 403.81,-72.23"/>
</a>
</g>
</g>
<!-- Node28 -->
<g id="Node000028" class="node">
<title>Node28</title>
<g id="a_Node000028"><a xlink:title=" ">
<polygon fill="#e0e0e0" stroke="#999999" points="469.88,-74.5 409.62,-74.5 409.62,-55.25 469.88,-55.25 469.88,-74.5"/>
<text text-anchor="middle" x="439.75" y="-61" font-family="Helvetica,sans-Serif" font-size="10.00">sys/prctl.h</text>
</a>
</g>
</g>
<!-- Node15&#45;&gt;Node28 -->
<g id="edge30_Node000015_Node000028" class="edge">
<title>Node15&#45;&gt;Node28</title>
<g id="a_edge30_Node000015_Node000028"><a xlink:title=" ">
<path fill="none" stroke="#63b8ff" d="M561.81,-110.09C538.06,-101.49 502.04,-88.44 475.29,-78.75"/>
<polygon fill="#63b8ff" stroke="#63b8ff" points="476.83,-75.58 466.23,-75.47 474.44,-82.16 476.83,-75.58"/>
</a>
</g>
</g>
<!-- Node29&#45;&gt;Node2 -->
<g id="edge38_Node000029_Node000002" class="edge">
<title>Node29&#45;&gt;Node2</title>
<g id="a_edge38_Node000029_Node000002"><a xlink:title=" ">
<path fill="none" stroke="#63b8ff" d="M1128.43,-113.12C1162.7,-104.43 1226.74,-88.19 1270.06,-77.21"/>
<polygon fill="#63b8ff" stroke="#63b8ff" points="1270.84,-80.62 1279.67,-74.77 1269.12,-73.84 1270.84,-80.62"/>
</a>
</g>
</g>
<!-- Node29&#45;&gt;Node3 -->
<g id="edge32_Node000029_Node000003" class="edge">
<title>Node29&#45;&gt;Node3</title>
<g id="a_edge32_Node000029_Node000003"><a xlink:title=" ">
<path fill="none" stroke="#63b8ff" d="M1095.09,-110.22C1085.74,-101.44 1071.3,-87.49 1059.75,-74.5 1046.48,-59.57 1032.56,-41.58 1022.79,-28.5"/>
<polygon fill="#63b8ff" stroke="#63b8ff" points="1025.86,-26.77 1017.11,-20.8 1020.23,-30.92 1025.86,-26.77"/>
</a>
</g>
</g>
<!-- Node29&#45;&gt;Node4 -->
<g id="edge33_Node000029_Node000004" class="edge">
<title>Node29&#45;&gt;Node4</title>
<g id="a_edge33_Node000029_Node000004"><a xlink:title=" ">
<path fill="none" stroke="#63b8ff" d="M1092.63,-110.14C1077.36,-97.68 1054.51,-74.53 1066.75,-55.25 1078.56,-36.65 1100.42,-25.66 1120.19,-19.25"/>
<polygon fill="#63b8ff" stroke="#63b8ff" points="1121.11,-22.63 1129.73,-16.48 1119.15,-15.9 1121.11,-22.63"/>
</a>
</g>
</g>
<!-- Node29&#45;&gt;Node5 -->
<g id="edge34_Node000029_Node000005" class="edge">
<title>Node29&#45;&gt;Node5</title>
<g id="a_edge34_Node000029_Node000005"><a xlink:title=" ">
<path fill="none" stroke="#63b8ff" d="M1114.98,-110.33C1129.49,-97.91 1156.92,-74.58 1180.75,-55.25 1192.56,-45.67 1205.93,-35.18 1216.76,-26.78"/>
<polygon fill="#63b8ff" stroke="#63b8ff" points="1218.9,-29.55 1224.67,-20.66 1214.62,-24.01 1218.9,-29.55"/>
</a>
</g>
</g>
<!-- Node29&#45;&gt;Node6 -->
<g id="edge35_Node000029_Node000006" class="edge">
<title>Node29&#45;&gt;Node6</title>
<g id="a_edge35_Node000029_Node000006"><a xlink:title=" ">
<path fill="none" stroke="#63b8ff" d="M1128.35,-118.04C1184.36,-114.99 1323.1,-104.52 1356.75,-74.5 1369.04,-63.54 1373.53,-45.02 1375.11,-30.74"/>
<polygon fill="#63b8ff" stroke="#63b8ff" points="1378.58,-31.3 1375.75,-21.09 1371.59,-30.83 1378.58,-31.3"/>
</a>
</g>
</g>
<!-- Node30 -->
<g id="Node000030" class="node">
<title>Node30</title>
<g id="a_Node000030"><a xlink:title=" ">
<polygon fill="#e0e0e0" stroke="#999999" points="1264,-74.5 1189.5,-74.5 1189.5,-55.25 1264,-55.25 1264,-74.5"/>
<text text-anchor="middle" x="1226.75" y="-61" font-family="Helvetica,sans-Serif" font-size="10.00">TVirtualPad.h</text>
</a>
</g>
</g>
<!-- Node29&#45;&gt;Node30 -->
<g id="edge36_Node000029_Node000030" class="edge">
<title>Node29&#45;&gt;Node30</title>
<g id="a_edge36_Node000029_Node000030"><a xlink:title=" ">
<path fill="none" stroke="#63b8ff" d="M1125.45,-110.09C1144.64,-101.72 1173.46,-89.13 1195.47,-79.53"/>
<polygon fill="#63b8ff" stroke="#63b8ff" points="1196.8,-82.77 1204.57,-75.56 1194,-76.35 1196.8,-82.77"/>
</a>
</g>
</g>
<!-- Node31 -->
<g id="Node000031" class="node">
<title>Node31</title>
<g id="a_Node000031"><a xlink:title=" ">
<polygon fill="#e0e0e0" stroke="#999999" points="1133.38,-74.5 1076.12,-74.5 1076.12,-55.25 1133.38,-55.25 1133.38,-74.5"/>
<text text-anchor="middle" x="1104.75" y="-61" font-family="Helvetica,sans-Serif" font-size="10.00">TFrame.h</text>
</a>
</g>
</g>
<!-- Node29&#45;&gt;Node31 -->
<g id="edge37_Node000029_Node000031" class="edge">
<title>Node29&#45;&gt;Node31</title>
<g id="a_edge37_Node000029_Node000031"><a xlink:title=" ">
<path fill="none" stroke="#63b8ff" d="M1104.75,-110.33C1104.75,-103.82 1104.75,-94.67 1104.75,-86.37"/>
<polygon fill="#63b8ff" stroke="#63b8ff" points="1108.25,-86.37 1104.75,-76.37 1101.25,-86.37 1108.25,-86.37"/>
</a>
</g>
</g>
<!-- Node32&#45;&gt;Node10 -->
<g id="edge40_Node000032_Node000010" class="edge">
<title>Node32&#45;&gt;Node10</title>
<g id="a_edge40_Node000032_Node000010"><a xlink:title=" ">
<path fill="none" stroke="#63b8ff" d="M664.23,-165.34C633.01,-155.79 583.91,-140.76 551.77,-130.92"/>
<polygon fill="#63b8ff" stroke="#63b8ff" points="553.2,-127.7 542.61,-128.12 551.15,-134.39 553.2,-127.7"/>
</a>
</g>
</g>
</g>
</svg>

<g id="navigator" transform="translate(0 0)" fill="#404254">
  <rect fill="#f2f5e9" fill-opacity="0.5" stroke="#606060" stroke-width=".5" x="0" y="0" width="60" height="60"/>
  <use id="zoomplus" xlink:href="#zoomPlus" x="17" y="9" onmousedown="handleZoom(evt,'in')"/>
  <use id="zoomminus" xlink:href="#zoomMin" x="42" y="9" onmousedown="handleZoom(evt,'out')"/>
  <use id="reset" xlink:href="#resetDef" x="30" y="36" onmousedown="handleReset()"/>
   <use id="arrowup" xlink:href="#arrowUp" x="0" y="0" onmousedown="handlePan(0,-1)"/>
  <use id="arrowright" xlink:href="#arrowRight" x="0" y="0" onmousedown="handlePan(1,0)"/>
  <use id="arrowdown" xlink:href="#arrowDown" x="0" y="0" onmousedown="handlePan(0,1)"/>
  <use id="arrowleft" xlink:href="#arrowLeft" x="0" y="0" onmousedown="handlePan(-1,0)"/>
</g>
<svg viewBox="0 0 15 15" width="100%" height="30px" preserveAspectRatio="xMaxYMin meet">
 <g id="arrow_out" transform="scale(0.3 0.3)">
  <a xlink:href="_g_h2_base_8cxx__incl_org.svg" target="_base">
   <rect id="button" ry="5" rx="5" y="6" x="6" height="38" width="38"
        fill="#f2f5e9" fill-opacity="0.5" stroke="#606060" stroke-width="1.0"/>
   <path id="arrow"
     d="M 11.500037,31.436501 C 11.940474,20.09759 22.043105,11.32322 32.158766,21.979434 L 37.068811,17.246167 C 37.068811,17.246167 37.088388,32 37.088388,32 L 22.160133,31.978069 C 22.160133,31.978069 26.997745,27.140456 26.997745,27.140456 C 18.528582,18.264221 13.291696,25.230495 11.500037,31.436501 z"
     style="fill:#404040;"/>
  </a>
 </g>
</svg>

<style type='text/css'>
<![CDATA[
[data-mouse-over-selected='false'] { opacity: 0.7; }
[data-mouse-over-selected='true']  { opacity: 1.0; }
]]>
</style>
<script type="application/ecmascript"><![CDATA[
document.addEventListener('DOMContentLoaded', (event) => {
  highlightEdges();
  highlightAdjacentNodes();
});
]]></script>
</svg>
