<?xml version="1.0" encoding="UTF-8" standalone="no"?>
<!DOCTYPE svg PUBLIC "-//W3C//DTD SVG 1.1//EN"
 "http://www.w3.org/Graphics/SVG/1.1/DTD/svg11.dtd">
<!-- Generated by graphviz version 12.2.0 (20241103.1931)
 -->
<!-- Title: GH2I.h Pages: 1 -->
<svg width="408pt" height="138pt"
 viewBox="0.00 0.00 407.75 137.75" xmlns="http://www.w3.org/2000/svg" xmlns:xlink="http://www.w3.org/1999/xlink">

<svg id="main" version="1.1" xmlns="http://www.w3.org/2000/svg" xmlns:xlink="http://www.w3.org/1999/xlink" xml:space="preserve">

<style type="text/css"><![CDATA[
.node, .edge {opacity: 0.7;}
.node.selected, .edge.selected {opacity: 1;}
.edge:hover path { stroke: red; }
.edge:hover polygon { stroke: red; fill: red; }
]]></style>
<script type="application/ecmascript" xlink:href="svg.min.js"/>
<svg id="graph" class="graph">
<g id="graph0" class="graph" transform="scale(1 1) rotate(0) translate(4 133.75)">
<title>GH2I.h</title>
<!-- Node1 -->
<g id="Node000001" class="node">
<title>Node1</title>
<g id="a_Node000001"><a xlink:title=" ">
<polygon fill="#999999" stroke="#666666" points="207.5,-129.75 160.75,-129.75 160.75,-110.5 207.5,-110.5 207.5,-129.75"/>
<text text-anchor="middle" x="184.12" y="-116.25" font-family="Helvetica,sans-Serif" font-size="10.00">GH2I.h</text>
</a>
</g>
</g>
<!-- Node2 -->
<g id="Node000002" class="node">
<title>Node2</title>
<g id="a_Node000002"><a xlink:title=" ">
<polygon fill="#e0e0e0" stroke="#999999" points="42.25,-19.25 0,-19.25 0,0 42.25,0 42.25,-19.25"/>
<text text-anchor="middle" x="21.12" y="-5.75" font-family="Helvetica,sans-Serif" font-size="10.00">cstdio</text>
</a>
</g>
</g>
<!-- Node1&#45;&gt;Node2 -->
<g id="edge1_Node000001_Node000002" class="edge">
<title>Node1&#45;&gt;Node2</title>
<g id="a_edge1_Node000001_Node000002"><a xlink:title=" ">
<path fill="none" stroke="#63b8ff" d="M160.48,-113.54C136.51,-107.05 99.19,-94.57 72.12,-74.5 55.59,-62.24 41.42,-43.37 32.25,-29.32"/>
<polygon fill="#63b8ff" stroke="#63b8ff" points="35.31,-27.61 27.05,-20.98 29.37,-31.32 35.31,-27.61"/>
</a>
</g>
</g>
<!-- Node3 -->
<g id="Node000003" class="node">
<title>Node3</title>
<g id="a_Node000003"><a xlink:title=" ">
<polygon fill="#e0e0e0" stroke="#999999" points="121.62,-19.25 60.62,-19.25 60.62,0 121.62,0 121.62,-19.25"/>
<text text-anchor="middle" x="91.12" y="-5.75" font-family="Helvetica,sans-Serif" font-size="10.00">TNamed.h</text>
</a>
</g>
</g>
<!-- Node1&#45;&gt;Node3 -->
<g id="edge2_Node000001_Node000003" class="edge">
<title>Node1&#45;&gt;Node3</title>
<g id="a_edge2_Node000001_Node000003"><a xlink:title=" ">
<path fill="none" stroke="#63b8ff" d="M160.58,-116.33C136,-112.02 98.67,-101.22 81.12,-74.5 72.55,-61.44 76.26,-43.69 81.43,-30.22"/>
<polygon fill="#63b8ff" stroke="#63b8ff" points="84.62,-31.65 85.46,-21.09 78.22,-28.82 84.62,-31.65"/>
</a>
</g>
</g>
<!-- Node4 -->
<g id="Node000004" class="node">
<title>Node4</title>
<g id="a_Node000004"><a xlink:title=" ">
<polygon fill="#e0e0e0" stroke="#999999" points="182.25,-19.25 140,-19.25 140,0 182.25,0 182.25,-19.25"/>
<text text-anchor="middle" x="161.12" y="-5.75" font-family="Helvetica,sans-Serif" font-size="10.00">TH2.h</text>
</a>
</g>
</g>
<!-- Node1&#45;&gt;Node4 -->
<g id="edge3_Node000001_Node000004" class="edge">
<title>Node1&#45;&gt;Node4</title>
<g id="a_edge3_Node000001_Node000004"><a xlink:title=" ">
<path fill="none" stroke="#63b8ff" d="M182.24,-110.25C178.59,-93 170.44,-54.58 165.4,-30.81"/>
<polygon fill="#63b8ff" stroke="#63b8ff" points="168.84,-30.16 163.35,-21.11 162,-31.62 168.84,-30.16"/>
</a>
</g>
</g>
<!-- Node5 -->
<g id="Node000005" class="node">
<title>Node5</title>
<g id="a_Node000005"><a xlink:title=" ">
<polygon fill="#e0e0e0" stroke="#999999" points="246.12,-19.25 200.12,-19.25 200.12,0 246.12,0 246.12,-19.25"/>
<text text-anchor="middle" x="223.12" y="-5.75" font-family="Helvetica,sans-Serif" font-size="10.00">TList.h</text>
</a>
</g>
</g>
<!-- Node1&#45;&gt;Node5 -->
<g id="edge4_Node000001_Node000005" class="edge">
<title>Node1&#45;&gt;Node5</title>
<g id="a_edge4_Node000001_Node000005"><a xlink:title=" ">
<path fill="none" stroke="#63b8ff" d="M187.32,-110.25C193.57,-92.84 207.58,-53.87 216.1,-30.16"/>
<polygon fill="#63b8ff" stroke="#63b8ff" points="219.29,-31.65 219.38,-21.05 212.7,-29.28 219.29,-31.65"/>
</a>
</g>
</g>
<!-- Node6 -->
<g id="Node000006" class="node">
<title>Node6</title>
<g id="a_Node000006"><a xlink:title=" ">
<polygon fill="#e0e0e0" stroke="#999999" points="324.38,-74.5 249.88,-74.5 249.88,-55.25 324.38,-55.25 324.38,-74.5"/>
<text text-anchor="middle" x="287.12" y="-61" font-family="Helvetica,sans-Serif" font-size="10.00">TVirtualPad.h</text>
</a>
</g>
</g>
<!-- Node1&#45;&gt;Node6 -->
<g id="edge5_Node000001_Node000006" class="edge">
<title>Node1&#45;&gt;Node6</title>
<g id="a_edge5_Node000001_Node000006"><a xlink:title=" ">
<path fill="none" stroke="#63b8ff" d="M201.6,-110.09C217.43,-101.91 241.03,-89.71 259.43,-80.19"/>
<polygon fill="#63b8ff" stroke="#63b8ff" points="260.95,-83.35 268.22,-75.65 257.73,-77.13 260.95,-83.35"/>
</a>
</g>
</g>
<!-- Node7 -->
<g id="Node000007" class="node">
<title>Node7</title>
<g id="a_Node000007"><a xlink:title=" ">
<polygon fill="#e0e0e0" stroke="#999999" points="399.75,-74.5 342.5,-74.5 342.5,-55.25 399.75,-55.25 399.75,-74.5"/>
<text text-anchor="middle" x="371.12" y="-61" font-family="Helvetica,sans-Serif" font-size="10.00">TFrame.h</text>
</a>
</g>
</g>
<!-- Node1&#45;&gt;Node7 -->
<g id="edge6_Node000001_Node000007" class="edge">
<title>Node1&#45;&gt;Node7</title>
<g id="a_edge6_Node000001_Node000007"><a xlink:title=" ">
<path fill="none" stroke="#63b8ff" d="M207.81,-112.38C238.8,-103.55 293.58,-87.96 331.08,-77.28"/>
<polygon fill="#63b8ff" stroke="#63b8ff" points="332,-80.65 340.66,-74.55 330.09,-73.92 332,-80.65"/>
</a>
</g>
</g>
<!-- Node8 -->
<g id="Node000008" class="node">
<title>Node8</title>
<g id="a_Node000008"><a xlink:href="_g_h2_base_8h.html" target="_top" xlink:title=" ">
<polygon fill="white" stroke="#666666" points="156.25,-74.5 90,-74.5 90,-55.25 156.25,-55.25 156.25,-74.5"/>
<text text-anchor="middle" x="123.12" y="-61" font-family="Helvetica,sans-Serif" font-size="10.00">GH2Base.h</text>
</a>
</g>
</g>
<!-- Node1&#45;&gt;Node8 -->
<g id="edge7_Node000001_Node000008" class="edge">
<title>Node1&#45;&gt;Node8</title>
<g id="a_edge7_Node000001_Node000008"><a xlink:title=" ">
<path fill="none" stroke="#63b8ff" d="M173.78,-110.09C165.05,-102.47 152.34,-91.37 141.83,-82.2"/>
<polygon fill="#63b8ff" stroke="#63b8ff" points="144.3,-79.71 134.46,-75.77 139.69,-84.98 144.3,-79.71"/>
</a>
</g>
</g>
<!-- Node8&#45;&gt;Node2 -->
<g id="edge8_Node000008_Node000002" class="edge">
<title>Node8&#45;&gt;Node2</title>
<g id="a_edge8_Node000008_Node000002"><a xlink:title=" ">
<path fill="none" stroke="#63b8ff" d="M105.82,-54.84C90.14,-46.66 66.77,-34.46 48.55,-24.94"/>
<polygon fill="#63b8ff" stroke="#63b8ff" points="50.34,-21.93 39.85,-20.4 47.1,-28.13 50.34,-21.93"/>
</a>
</g>
</g>
<!-- Node8&#45;&gt;Node3 -->
<g id="edge9_Node000008_Node000003" class="edge">
<title>Node8&#45;&gt;Node3</title>
<g id="a_edge9_Node000008_Node000003"><a xlink:title=" ">
<path fill="none" stroke="#63b8ff" d="M117.84,-55.08C113.65,-48.11 107.65,-38.12 102.39,-29.37"/>
<polygon fill="#63b8ff" stroke="#63b8ff" points="105.45,-27.68 97.3,-20.91 99.45,-31.28 105.45,-27.68"/>
</a>
</g>
</g>
<!-- Node8&#45;&gt;Node4 -->
<g id="edge10_Node000008_Node000004" class="edge">
<title>Node8&#45;&gt;Node4</title>
<g id="a_edge10_Node000008_Node000004"><a xlink:title=" ">
<path fill="none" stroke="#63b8ff" d="M129.4,-55.08C134.48,-47.96 141.82,-37.68 148.16,-28.8"/>
<polygon fill="#63b8ff" stroke="#63b8ff" points="150.87,-31.01 153.83,-20.84 145.18,-26.95 150.87,-31.01"/>
</a>
</g>
</g>
<!-- Node8&#45;&gt;Node5 -->
<g id="edge11_Node000008_Node000005" class="edge">
<title>Node8&#45;&gt;Node5</title>
<g id="a_edge11_Node000008_Node000005"><a xlink:title=" ">
<path fill="none" stroke="#63b8ff" d="M140.09,-54.84C155.39,-46.69 178.16,-34.57 195.99,-25.08"/>
<polygon fill="#63b8ff" stroke="#63b8ff" points="197.56,-28.2 204.74,-20.41 194.27,-22.02 197.56,-28.2"/>
</a>
</g>
</g>
</g>
</svg>
</svg>

<style type='text/css'>
<![CDATA[
[data-mouse-over-selected='false'] { opacity: 0.7; }
[data-mouse-over-selected='true']  { opacity: 1.0; }
]]>
</style>
<script type="application/ecmascript"><![CDATA[
document.addEventListener('DOMContentLoaded', (event) => {
  highlightEdges();
  highlightAdjacentNodes();
});
]]></script>
</svg>
