<?xml version="1.0" encoding="UTF-8" standalone="no"?>
<!DOCTYPE svg PUBLIC "-//W3C//DTD SVG 1.1//EN"
 "http://www.w3.org/Graphics/SVG/1.1/DTD/svg11.dtd">
<!-- Generated by graphviz version 12.2.0 (20241103.1931)
 -->
<!-- Title: GH1D.cxx Pages: 1 -->
<svg width="2158pt" height="248pt"
 viewBox="0.00 0.00 2157.62 248.25" xmlns="http://www.w3.org/2000/svg" xmlns:xlink="http://www.w3.org/1999/xlink">
<g id="graph0" class="graph" transform="scale(1 1) rotate(0) translate(4 244.25)">
<title>GH1D.cxx</title>
<!-- Node1 -->
<g id="Node000001" class="node">
<title>Node1</title>
<g id="a_Node000001"><a xlink:title=" ">
<polygon fill="#999999" stroke="#666666" points="1337.75,-240.25 1278.25,-240.25 1278.25,-221 1337.75,-221 1337.75,-240.25"/>
<text text-anchor="middle" x="1308" y="-226.75" font-family="Helvetica,sans-Serif" font-size="10.00">GH1D.cxx</text>
</a>
</g>
</g>
<!-- Node2 -->
<g id="Node000002" class="node">
<title>Node2</title>
<g id="a_Node000002"><a xlink:href="_g_h1_d_8h.html" target="_top" xlink:title=" ">
<polygon fill="white" stroke="#666666" points="309.25,-185 258.75,-185 258.75,-165.75 309.25,-165.75 309.25,-185"/>
<text text-anchor="middle" x="284" y="-171.5" font-family="Helvetica,sans-Serif" font-size="10.00">GH1D.h</text>
</a>
</g>
</g>
<!-- Node1&#45;&gt;Node2 -->
<g id="edge1_Node000001_Node000002" class="edge">
<title>Node1&#45;&gt;Node2</title>
<g id="a_edge1_Node000001_Node000002"><a xlink:title=" ">
<path fill="none" stroke="#63b8ff" d="M1277.91,-228.06C1130.14,-220.38 481.96,-186.67 320.52,-178.27"/>
<polygon fill="#63b8ff" stroke="#63b8ff" points="321.01,-174.79 310.84,-177.77 320.64,-181.79 321.01,-174.79"/>
</a>
</g>
</g>
<!-- Node9 -->
<g id="Node000009" class="node">
<title>Node9</title>
<g id="a_Node000009"><a xlink:href="_globals_8h.html" target="_top" xlink:title=" ">
<polygon fill="white" stroke="#666666" points="618.25,-129.75 561.75,-129.75 561.75,-110.5 618.25,-110.5 618.25,-129.75"/>
<text text-anchor="middle" x="590" y="-116.25" font-family="Helvetica,sans-Serif" font-size="10.00">Globals.h</text>
</a>
</g>
</g>
<!-- Node1&#45;&gt;Node9 -->
<g id="edge44_Node000001_Node000009" class="edge">
<title>Node1&#45;&gt;Node9</title>
<g id="a_edge44_Node000001_Node000009"><a xlink:title=" ">
<path fill="none" stroke="#63b8ff" d="M1278.2,-225.93C1220.02,-218.64 1087.29,-201.68 976,-185 849.32,-166.01 699.8,-140.33 629.85,-128.13"/>
<polygon fill="#63b8ff" stroke="#63b8ff" points="630.47,-124.68 620.01,-126.41 629.26,-131.58 630.47,-124.68"/>
</a>
</g>
</g>
<!-- Node10 -->
<g id="Node000010" class="node">
<title>Node10</title>
<g id="a_Node000010"><a xlink:title=" ">
<polygon fill="#e0e0e0" stroke="#999999" points="957.75,-74.5 904.25,-74.5 904.25,-55.25 957.75,-55.25 957.75,-74.5"/>
<text text-anchor="middle" x="931" y="-61" font-family="Helvetica,sans-Serif" font-size="10.00">iostream</text>
</a>
</g>
</g>
<!-- Node1&#45;&gt;Node10 -->
<g id="edge35_Node000001_Node000010" class="edge">
<title>Node1&#45;&gt;Node10</title>
<g id="a_edge35_Node000001_Node000010"><a xlink:title=" ">
<path fill="none" stroke="#63b8ff" d="M1277.9,-225.82C1239.42,-220.24 1171.27,-207.92 1117,-185 1051.69,-157.42 983.71,-107.55 950.97,-81.96"/>
<polygon fill="#63b8ff" stroke="#63b8ff" points="953.19,-79.25 943.17,-75.8 948.84,-84.74 953.19,-79.25"/>
</a>
</g>
</g>
<!-- Node24 -->
<g id="Node000024" class="node">
<title>Node24</title>
<g id="a_Node000024"><a xlink:href="_g_h2_i_8h.html" target="_top" xlink:title=" ">
<polygon fill="white" stroke="#666666" points="1124.38,-129.75 1077.62,-129.75 1077.62,-110.5 1124.38,-110.5 1124.38,-129.75"/>
<text text-anchor="middle" x="1101" y="-116.25" font-family="Helvetica,sans-Serif" font-size="10.00">GH2I.h</text>
</a>
</g>
</g>
<!-- Node1&#45;&gt;Node24 -->
<g id="edge58_Node000001_Node000024" class="edge">
<title>Node1&#45;&gt;Node24</title>
<g id="a_edge58_Node000001_Node000024"><a xlink:title=" ">
<path fill="none" stroke="#63b8ff" d="M1277.95,-228.59C1241.41,-225.91 1179.5,-216.63 1138,-185 1123.35,-173.83 1113.48,-155.07 1107.65,-140.76"/>
<polygon fill="#63b8ff" stroke="#63b8ff" points="1110.97,-139.63 1104.21,-131.47 1104.4,-142.06 1110.97,-139.63"/>
</a>
</g>
</g>
<!-- Node27 -->
<g id="Node000027" class="node">
<title>Node27</title>
<g id="a_Node000027"><a xlink:title=" ">
<polygon fill="#e0e0e0" stroke="#999999" points="1260.25,-74.5 1185.75,-74.5 1185.75,-55.25 1260.25,-55.25 1260.25,-74.5"/>
<text text-anchor="middle" x="1223" y="-61" font-family="Helvetica,sans-Serif" font-size="10.00">TVirtualPad.h</text>
</a>
</g>
</g>
<!-- Node1&#45;&gt;Node27 -->
<g id="edge38_Node000001_Node000027" class="edge">
<title>Node1&#45;&gt;Node27</title>
<g id="a_edge38_Node000001_Node000027"><a xlink:title=" ">
<path fill="none" stroke="#63b8ff" d="M1278,-226.3C1252.46,-221.7 1217.26,-210.8 1200,-185 1179.4,-154.19 1197.98,-109.46 1211.62,-84.49"/>
<polygon fill="#63b8ff" stroke="#63b8ff" points="1214.48,-86.54 1216.45,-76.13 1208.42,-83.04 1214.48,-86.54"/>
</a>
</g>
</g>
<!-- Node28 -->
<g id="Node000028" class="node">
<title>Node28</title>
<g id="a_Node000028"><a xlink:title=" ">
<polygon fill="#e0e0e0" stroke="#999999" points="1335.62,-74.5 1278.38,-74.5 1278.38,-55.25 1335.62,-55.25 1335.62,-74.5"/>
<text text-anchor="middle" x="1307" y="-61" font-family="Helvetica,sans-Serif" font-size="10.00">TFrame.h</text>
</a>
</g>
</g>
<!-- Node1&#45;&gt;Node28 -->
<g id="edge41_Node000001_Node000028" class="edge">
<title>Node1&#45;&gt;Node28</title>
<g id="a_edge41_Node000001_Node000028"><a xlink:title=" ">
<path fill="none" stroke="#63b8ff" d="M1277.92,-224.81C1254.98,-219.39 1224.87,-208.11 1210,-185 1184.01,-144.61 1242.58,-102.1 1279.6,-80.44"/>
<polygon fill="#63b8ff" stroke="#63b8ff" points="1281.09,-83.62 1288.07,-75.65 1277.64,-77.53 1281.09,-83.62"/>
</a>
</g>
</g>
<!-- Node30 -->
<g id="Node000030" class="node">
<title>Node30</title>
<g id="a_Node000030"><a xlink:title=" ">
<polygon fill="#e0e0e0" stroke="#999999" points="1267.5,-185 1218.5,-185 1218.5,-165.75 1267.5,-165.75 1267.5,-185"/>
<text text-anchor="middle" x="1243" y="-171.5" font-family="Helvetica,sans-Serif" font-size="10.00">fstream</text>
</a>
</g>
</g>
<!-- Node1&#45;&gt;Node30 -->
<g id="edge36_Node000001_Node000030" class="edge">
<title>Node1&#45;&gt;Node30</title>
<g id="a_edge36_Node000001_Node000030"><a xlink:title=" ">
<path fill="none" stroke="#63b8ff" d="M1296.97,-220.59C1287.58,-212.9 1273.85,-201.65 1262.59,-192.43"/>
<polygon fill="#63b8ff" stroke="#63b8ff" points="1264.99,-189.86 1255.03,-186.23 1260.55,-195.28 1264.99,-189.86"/>
</a>
</g>
</g>
<!-- Node31 -->
<g id="Node000031" class="node">
<title>Node31</title>
<g id="a_Node000031"><a xlink:title=" ">
<polygon fill="#e0e0e0" stroke="#999999" points="1330.62,-185 1285.38,-185 1285.38,-165.75 1330.62,-165.75 1330.62,-185"/>
<text text-anchor="middle" x="1308" y="-171.5" font-family="Helvetica,sans-Serif" font-size="10.00">cstring</text>
</a>
</g>
</g>
<!-- Node1&#45;&gt;Node31 -->
<g id="edge37_Node000001_Node000031" class="edge">
<title>Node1&#45;&gt;Node31</title>
<g id="a_edge37_Node000001_Node000031"><a xlink:title=" ">
<path fill="none" stroke="#63b8ff" d="M1308,-220.83C1308,-214.32 1308,-205.17 1308,-196.87"/>
<polygon fill="#63b8ff" stroke="#63b8ff" points="1311.5,-196.87 1308,-186.87 1304.5,-196.87 1311.5,-196.87"/>
</a>
</g>
</g>
<!-- Node32 -->
<g id="Node000032" class="node">
<title>Node32</title>
<g id="a_Node000032"><a xlink:title=" ">
<polygon fill="#e0e0e0" stroke="#999999" points="1403.5,-185 1348.5,-185 1348.5,-165.75 1403.5,-165.75 1403.5,-185"/>
<text text-anchor="middle" x="1376" y="-171.5" font-family="Helvetica,sans-Serif" font-size="10.00">TString.h</text>
</a>
</g>
</g>
<!-- Node1&#45;&gt;Node32 -->
<g id="edge39_Node000001_Node000032" class="edge">
<title>Node1&#45;&gt;Node32</title>
<g id="a_edge39_Node000001_Node000032"><a xlink:title=" ">
<path fill="none" stroke="#63b8ff" d="M1319.54,-220.59C1329.46,-212.82 1344.01,-201.42 1355.86,-192.15"/>
<polygon fill="#63b8ff" stroke="#63b8ff" points="1357.73,-195.13 1363.44,-186.21 1353.41,-189.62 1357.73,-195.13"/>
</a>
</g>
</g>
<!-- Node33 -->
<g id="Node000033" class="node">
<title>Node33</title>
<g id="a_Node000033"><a xlink:title=" ">
<polygon fill="#e0e0e0" stroke="#999999" points="1462.38,-185 1421.62,-185 1421.62,-165.75 1462.38,-165.75 1462.38,-185"/>
<text text-anchor="middle" x="1442" y="-171.5" font-family="Helvetica,sans-Serif" font-size="10.00">TF1.h</text>
</a>
</g>
</g>
<!-- Node1&#45;&gt;Node33 -->
<g id="edge40_Node000001_Node000033" class="edge">
<title>Node1&#45;&gt;Node33</title>
<g id="a_edge40_Node000001_Node000033"><a xlink:title=" ">
<path fill="none" stroke="#63b8ff" d="M1330.73,-220.59C1352.75,-211.84 1386.31,-198.51 1410.81,-188.77"/>
<polygon fill="#63b8ff" stroke="#63b8ff" points="1411.95,-192.08 1419.95,-185.14 1409.37,-185.58 1411.95,-192.08"/>
</a>
</g>
</g>
<!-- Node34 -->
<g id="Node000034" class="node">
<title>Node34</title>
<g id="a_Node000034"><a xlink:title=" ">
<polygon fill="#e0e0e0" stroke="#999999" points="1557.75,-185 1480.25,-185 1480.25,-165.75 1557.75,-165.75 1557.75,-185"/>
<text text-anchor="middle" x="1519" y="-171.5" font-family="Helvetica,sans-Serif" font-size="10.00">KeySymbols.h</text>
</a>
</g>
</g>
<!-- Node1&#45;&gt;Node34 -->
<g id="edge42_Node000001_Node000034" class="edge">
<title>Node1&#45;&gt;Node34</title>
<g id="a_edge42_Node000001_Node000034"><a xlink:title=" ">
<path fill="none" stroke="#63b8ff" d="M1338.23,-222C1373.23,-213.16 1431.28,-198.51 1472.14,-188.2"/>
<polygon fill="#63b8ff" stroke="#63b8ff" points="1472.87,-191.63 1481.71,-185.79 1471.16,-184.84 1472.87,-191.63"/>
</a>
</g>
</g>
<!-- Node35 -->
<g id="Node000035" class="node">
<title>Node35</title>
<g id="a_Node000035"><a xlink:title=" ">
<polygon fill="#e0e0e0" stroke="#999999" points="1640,-185 1576,-185 1576,-165.75 1640,-165.75 1640,-185"/>
<text text-anchor="middle" x="1608" y="-171.5" font-family="Helvetica,sans-Serif" font-size="10.00">TVirtualX.h</text>
</a>
</g>
</g>
<!-- Node1&#45;&gt;Node35 -->
<g id="edge43_Node000001_Node000035" class="edge">
<title>Node1&#45;&gt;Node35</title>
<g id="a_edge43_Node000001_Node000035"><a xlink:title=" ">
<path fill="none" stroke="#63b8ff" d="M1337.98,-224.83C1384.3,-217.33 1476.36,-202.13 1564.51,-185.42"/>
<polygon fill="#63b8ff" stroke="#63b8ff" points="1565.14,-188.86 1574.31,-183.55 1563.83,-181.99 1565.14,-188.86"/>
</a>
</g>
</g>
<!-- Node36 -->
<g id="Node000036" class="node">
<title>Node36</title>
<g id="a_Node000036"><a xlink:href="_g_root_commands_8h.html" target="_top" xlink:title=" ">
<polygon fill="white" stroke="#666666" points="1490.38,-129.75 1389.62,-129.75 1389.62,-110.5 1490.38,-110.5 1490.38,-129.75"/>
<text text-anchor="middle" x="1440" y="-116.25" font-family="Helvetica,sans-Serif" font-size="10.00">GRootCommands.h</text>
</a>
</g>
</g>
<!-- Node1&#45;&gt;Node36 -->
<g id="edge45_Node000001_Node000036" class="edge">
<title>Node1&#45;&gt;Node36</title>
<g id="a_edge45_Node000001_Node000036"><a xlink:title=" ">
<path fill="none" stroke="#63b8ff" d="M1338.17,-227.92C1417.74,-223.1 1628.59,-208.25 1649,-185 1654.64,-178.57 1654.38,-172.4 1649,-165.75 1630.75,-143.2 1556.81,-131.55 1502.03,-125.89"/>
<polygon fill="#63b8ff" stroke="#63b8ff" points="1502.46,-122.42 1492.16,-124.92 1501.77,-129.38 1502.46,-122.42"/>
</a>
</g>
</g>
<!-- Node38 -->
<g id="Node000038" class="node">
<title>Node38</title>
<g id="a_Node000038"><a xlink:href="_g_canvas_8h.html" target="_top" xlink:title=" ">
<polygon fill="white" stroke="#666666" points="1837,-129.75 1773,-129.75 1773,-110.5 1837,-110.5 1837,-129.75"/>
<text text-anchor="middle" x="1805" y="-116.25" font-family="Helvetica,sans-Serif" font-size="10.00">GCanvas.h</text>
</a>
</g>
</g>
<!-- Node1&#45;&gt;Node38 -->
<g id="edge49_Node000001_Node000038" class="edge">
<title>Node1&#45;&gt;Node38</title>
<g id="a_edge49_Node000001_Node000038"><a xlink:title=" ">
<path fill="none" stroke="#63b8ff" d="M1337.84,-229.66C1402.2,-228.97 1558.27,-223.12 1682,-185 1719.06,-173.58 1758.2,-151.23 1782.12,-136.23"/>
<polygon fill="#63b8ff" stroke="#63b8ff" points="1783.87,-139.27 1790.41,-130.93 1780.1,-133.37 1783.87,-139.27"/>
</a>
</g>
</g>
<!-- Node44 -->
<g id="Node000044" class="node">
<title>Node44</title>
<g id="a_Node000044"><a xlink:href="_g_h2_d_8h.html" target="_top" xlink:title=" ">
<polygon fill="white" stroke="#666666" points="1612.25,-129.75 1561.75,-129.75 1561.75,-110.5 1612.25,-110.5 1612.25,-129.75"/>
<text text-anchor="middle" x="1587" y="-116.25" font-family="Helvetica,sans-Serif" font-size="10.00">GH2D.h</text>
</a>
</g>
</g>
<!-- Node1&#45;&gt;Node44 -->
<g id="edge59_Node000001_Node000044" class="edge">
<title>Node1&#45;&gt;Node44</title>
<g id="a_edge59_Node000001_Node000044"><a xlink:title=" ">
<path fill="none" stroke="#63b8ff" d="M1338.09,-228.11C1420.19,-223.66 1643.45,-209.41 1665,-185 1682.77,-164.87 1651.24,-145.93 1623.1,-133.98"/>
<polygon fill="#63b8ff" stroke="#63b8ff" points="1624.59,-130.81 1614,-130.32 1621.98,-137.3 1624.59,-130.81"/>
</a>
</g>
</g>
<!-- Node3 -->
<g id="Node000003" class="node">
<title>Node3</title>
<g id="a_Node000003"><a xlink:title=" ">
<polygon fill="#e0e0e0" stroke="#999999" points="1826.12,-74.5 1783.88,-74.5 1783.88,-55.25 1826.12,-55.25 1826.12,-74.5"/>
<text text-anchor="middle" x="1805" y="-61" font-family="Helvetica,sans-Serif" font-size="10.00">TH1.h</text>
</a>
</g>
</g>
<!-- Node2&#45;&gt;Node3 -->
<g id="edge2_Node000002_Node000003" class="edge">
<title>Node2&#45;&gt;Node3</title>
<g id="a_edge2_Node000002_Node000003"><a xlink:title=" ">
<path fill="none" stroke="#63b8ff" d="M309.54,-174.57C471.37,-175.62 1355.84,-179.03 1621,-129.75 1677.19,-119.31 1739.39,-94.81 1775.17,-79.37"/>
<polygon fill="#63b8ff" stroke="#63b8ff" points="1776.25,-82.72 1784,-75.5 1773.44,-76.31 1776.25,-82.72"/>
</a>
</g>
</g>
<!-- Node4 -->
<g id="Node000004" class="node">
<title>Node4</title>
<g id="a_Node000004"><a xlink:title=" ">
<polygon fill="#e0e0e0" stroke="#999999" points="108.25,-129.75 63.75,-129.75 63.75,-110.5 108.25,-110.5 108.25,-129.75"/>
<text text-anchor="middle" x="86" y="-116.25" font-family="Helvetica,sans-Serif" font-size="10.00">TRef.h</text>
</a>
</g>
</g>
<!-- Node2&#45;&gt;Node4 -->
<g id="edge3_Node000002_Node000004" class="edge">
<title>Node2&#45;&gt;Node4</title>
<g id="a_edge3_Node000002_Node000004"><a xlink:title=" ">
<path fill="none" stroke="#63b8ff" d="M258.4,-167.5C227.84,-159.29 174.87,-145.06 119.77,-130.22"/>
<polygon fill="#63b8ff" stroke="#63b8ff" points="120.75,-126.87 110.19,-127.65 118.93,-133.62 120.75,-126.87"/>
</a>
</g>
</g>
<!-- Node5 -->
<g id="Node000005" class="node">
<title>Node5</title>
<g id="a_Node000005"><a xlink:title=" ">
<polygon fill="#e0e0e0" stroke="#999999" points="173.38,-129.75 126.62,-129.75 126.62,-110.5 173.38,-110.5 173.38,-129.75"/>
<text text-anchor="middle" x="150" y="-116.25" font-family="Helvetica,sans-Serif" font-size="10.00">TPad.h</text>
</a>
</g>
</g>
<!-- Node2&#45;&gt;Node5 -->
<g id="edge4_Node000002_Node000005" class="edge">
<title>Node2&#45;&gt;Node5</title>
<g id="a_edge4_Node000002_Node000005"><a xlink:title=" ">
<path fill="none" stroke="#63b8ff" d="M261.27,-165.34C239.9,-156.85 207.66,-144.04 183.37,-134.39"/>
<polygon fill="#63b8ff" stroke="#63b8ff" points="184.84,-131.2 174.25,-130.76 182.25,-137.71 184.84,-131.2"/>
</a>
</g>
</g>
<!-- Node6 -->
<g id="Node000006" class="node">
<title>Node6</title>
<g id="a_Node000006"><a xlink:title=" ">
<polygon fill="#e0e0e0" stroke="#999999" points="256.38,-129.75 191.62,-129.75 191.62,-110.5 256.38,-110.5 256.38,-129.75"/>
<text text-anchor="middle" x="224" y="-116.25" font-family="Helvetica,sans-Serif" font-size="10.00">GuiTypes.h</text>
</a>
</g>
</g>
<!-- Node2&#45;&gt;Node6 -->
<g id="edge5_Node000002_Node000006" class="edge">
<title>Node2&#45;&gt;Node6</title>
<g id="a_edge5_Node000002_Node000006"><a xlink:title=" ">
<path fill="none" stroke="#63b8ff" d="M273.82,-165.34C265.24,-157.72 252.73,-146.62 242.4,-137.45"/>
<polygon fill="#63b8ff" stroke="#63b8ff" points="244.96,-135.05 235.16,-131.03 240.32,-140.29 244.96,-135.05"/>
</a>
</g>
</g>
<!-- Node7 -->
<g id="Node000007" class="node">
<title>Node7</title>
<g id="a_Node000007"><a xlink:title=" ">
<polygon fill="#e0e0e0" stroke="#999999" points="1218,-19.25 1172,-19.25 1172,0 1218,0 1218,-19.25"/>
<text text-anchor="middle" x="1195" y="-5.75" font-family="Helvetica,sans-Serif" font-size="10.00">TList.h</text>
</a>
</g>
</g>
<!-- Node2&#45;&gt;Node7 -->
<g id="edge6_Node000002_Node000007" class="edge">
<title>Node2&#45;&gt;Node7</title>
<g id="a_edge6_Node000002_Node000007"><a xlink:title=" ">
<path fill="none" stroke="#63b8ff" d="M284.06,-165.47C283.65,-151.58 280.7,-124.87 265,-110.5 204.21,-54.86 30.91,-114.68 88,-55.25 126.03,-15.65 977.14,-11.19 1160.43,-10.69"/>
<polygon fill="#63b8ff" stroke="#63b8ff" points="1160.25,-14.19 1170.24,-10.66 1160.23,-7.19 1160.25,-14.19"/>
</a>
</g>
</g>
<!-- Node8 -->
<g id="Node000008" class="node">
<title>Node8</title>
<g id="a_Node000008"><a xlink:title=" ">
<polygon fill="#e0e0e0" stroke="#999999" points="46,-129.75 0,-129.75 0,-110.5 46,-110.5 46,-129.75"/>
<text text-anchor="middle" x="23" y="-116.25" font-family="Helvetica,sans-Serif" font-size="10.00">TBox.h</text>
</a>
</g>
</g>
<!-- Node2&#45;&gt;Node8 -->
<g id="edge7_Node000002_Node000008" class="edge">
<title>Node2&#45;&gt;Node8</title>
<g id="a_edge7_Node000002_Node000008"><a xlink:title=" ">
<path fill="none" stroke="#63b8ff" d="M258.46,-170.01C217.93,-162.95 136.17,-148.18 57.45,-130.19"/>
<polygon fill="#63b8ff" stroke="#63b8ff" points="58.38,-126.81 47.85,-127.97 56.8,-133.63 58.38,-126.81"/>
</a>
</g>
</g>
<!-- Node2&#45;&gt;Node9 -->
<g id="edge8_Node000002_Node000009" class="edge">
<title>Node2&#45;&gt;Node9</title>
<g id="a_edge8_Node000002_Node000009"><a xlink:title=" ">
<path fill="none" stroke="#63b8ff" d="M309.56,-169.93C362.98,-160.63 486.73,-139.1 550.47,-128"/>
<polygon fill="#63b8ff" stroke="#63b8ff" points="550.91,-131.48 560.16,-126.32 549.71,-124.58 550.91,-131.48"/>
</a>
</g>
</g>
<!-- Node2&#45;&gt;Node24 -->
<g id="edge23_Node000002_Node000024" class="edge">
<title>Node2&#45;&gt;Node24</title>
<g id="a_edge23_Node000002_Node000024"><a xlink:title=" ">
<path fill="none" stroke="#63b8ff" d="M309.35,-172.72C427.91,-165 927.82,-132.41 1065.67,-123.43"/>
<polygon fill="#63b8ff" stroke="#63b8ff" points="1065.88,-126.92 1075.63,-122.78 1065.42,-119.94 1065.88,-126.92"/>
</a>
</g>
</g>
<!-- Node9&#45;&gt;Node10 -->
<g id="edge9_Node000009_Node000010" class="edge">
<title>Node9&#45;&gt;Node10</title>
<g id="a_edge9_Node000009_Node000010"><a xlink:title=" ">
<path fill="none" stroke="#63b8ff" d="M618.63,-115.44C672.11,-108.44 790.75,-92.31 890,-74.5 891,-74.32 892.02,-74.13 893.04,-73.94"/>
<polygon fill="#63b8ff" stroke="#63b8ff" points="893.51,-77.42 902.65,-72.06 892.17,-70.55 893.51,-77.42"/>
</a>
</g>
</g>
<!-- Node11 -->
<g id="Node000011" class="node">
<title>Node11</title>
<g id="a_Node000011"><a xlink:title=" ">
<polygon fill="#e0e0e0" stroke="#999999" points="438.88,-74.5 389.12,-74.5 389.12,-55.25 438.88,-55.25 438.88,-74.5"/>
<text text-anchor="middle" x="414" y="-61" font-family="Helvetica,sans-Serif" font-size="10.00">iomanip</text>
</a>
</g>
</g>
<!-- Node9&#45;&gt;Node11 -->
<g id="edge10_Node000009_Node000011" class="edge">
<title>Node9&#45;&gt;Node11</title>
<g id="a_edge10_Node000009_Node000011"><a xlink:title=" ">
<path fill="none" stroke="#63b8ff" d="M561.33,-110.45C531.01,-101.28 483.1,-86.78 450.19,-76.82"/>
<polygon fill="#63b8ff" stroke="#63b8ff" points="451.26,-73.49 440.68,-73.95 449.24,-80.19 451.26,-73.49"/>
</a>
</g>
</g>
<!-- Node12 -->
<g id="Node000012" class="node">
<title>Node12</title>
<g id="a_Node000012"><a xlink:title=" ">
<polygon fill="#e0e0e0" stroke="#999999" points="515,-74.5 457,-74.5 457,-55.25 515,-55.25 515,-74.5"/>
<text text-anchor="middle" x="486" y="-61" font-family="Helvetica,sans-Serif" font-size="10.00">stdexcept</text>
</a>
</g>
</g>
<!-- Node9&#45;&gt;Node12 -->
<g id="edge11_Node000009_Node000012" class="edge">
<title>Node9&#45;&gt;Node12</title>
<g id="a_edge11_Node000009_Node000012"><a xlink:title=" ">
<path fill="none" stroke="#63b8ff" d="M572.36,-110.09C556.37,-101.91 532.54,-89.71 513.96,-80.19"/>
<polygon fill="#63b8ff" stroke="#63b8ff" points="515.57,-77.08 505.08,-75.64 512.38,-83.32 515.57,-77.08"/>
</a>
</g>
</g>
<!-- Node13 -->
<g id="Node000013" class="node">
<title>Node13</title>
<g id="a_Node000013"><a xlink:title=" ">
<polygon fill="#e0e0e0" stroke="#999999" points="1054,-74.5 1014,-74.5 1014,-55.25 1054,-55.25 1054,-74.5"/>
<text text-anchor="middle" x="1034" y="-61" font-family="Helvetica,sans-Serif" font-size="10.00">string</text>
</a>
</g>
</g>
<!-- Node9&#45;&gt;Node13 -->
<g id="edge12_Node000009_Node000013" class="edge">
<title>Node9&#45;&gt;Node13</title>
<g id="a_edge12_Node000009_Node000013"><a xlink:title=" ">
<path fill="none" stroke="#63b8ff" d="M618.39,-115.87C681.23,-108.63 836.83,-90.58 967,-74.5 978.54,-73.07 991.19,-71.46 1002.36,-70.02"/>
<polygon fill="#63b8ff" stroke="#63b8ff" points="1002.81,-73.49 1012.28,-68.73 1001.91,-66.54 1002.81,-73.49"/>
</a>
</g>
</g>
<!-- Node14 -->
<g id="Node000014" class="node">
<title>Node14</title>
<g id="a_Node000014"><a xlink:title=" ">
<polygon fill="#e0e0e0" stroke="#999999" points="1295.12,-19.25 1252.88,-19.25 1252.88,0 1295.12,0 1295.12,-19.25"/>
<text text-anchor="middle" x="1274" y="-5.75" font-family="Helvetica,sans-Serif" font-size="10.00">cstdio</text>
</a>
</g>
</g>
<!-- Node9&#45;&gt;Node14 -->
<g id="edge13_Node000009_Node000014" class="edge">
<title>Node9&#45;&gt;Node14</title>
<g id="a_edge13_Node000009_Node000014"><a xlink:title=" ">
<path fill="none" stroke="#63b8ff" d="M618.6,-117.08C668.04,-112.94 772.23,-101.55 856,-74.5 874.39,-68.56 876.44,-60.65 895,-55.25 1037.51,-13.77 1080.13,-40.66 1227,-19.25 1231.71,-18.56 1236.67,-17.75 1241.53,-16.9"/>
<polygon fill="#63b8ff" stroke="#63b8ff" points="1241.83,-20.41 1251.04,-15.18 1240.58,-13.52 1241.83,-20.41"/>
</a>
</g>
</g>
<!-- Node15 -->
<g id="Node000015" class="node">
<title>Node15</title>
<g id="a_Node000015"><a xlink:title=" ">
<polygon fill="#e0e0e0" stroke="#999999" points="577.25,-74.5 532.75,-74.5 532.75,-55.25 577.25,-55.25 577.25,-74.5"/>
<text text-anchor="middle" x="555" y="-61" font-family="Helvetica,sans-Serif" font-size="10.00">cstdlib</text>
</a>
</g>
</g>
<!-- Node9&#45;&gt;Node15 -->
<g id="edge14_Node000009_Node000015" class="edge">
<title>Node9&#45;&gt;Node15</title>
<g id="a_edge14_Node000009_Node000015"><a xlink:title=" ">
<path fill="none" stroke="#63b8ff" d="M584.22,-110.33C579.59,-103.28 572.93,-93.15 567.13,-84.33"/>
<polygon fill="#63b8ff" stroke="#63b8ff" points="570.15,-82.56 561.74,-76.12 564.3,-86.4 570.15,-82.56"/>
</a>
</g>
</g>
<!-- Node16 -->
<g id="Node000016" class="node">
<title>Node16</title>
<g id="a_Node000016"><a xlink:title=" ">
<polygon fill="#e0e0e0" stroke="#999999" points="654.75,-74.5 595.25,-74.5 595.25,-55.25 654.75,-55.25 654.75,-74.5"/>
<text text-anchor="middle" x="625" y="-61" font-family="Helvetica,sans-Serif" font-size="10.00">execinfo.h</text>
</a>
</g>
</g>
<!-- Node9&#45;&gt;Node16 -->
<g id="edge15_Node000009_Node000016" class="edge">
<title>Node9&#45;&gt;Node16</title>
<g id="a_edge15_Node000009_Node000016"><a xlink:title=" ">
<path fill="none" stroke="#63b8ff" d="M595.78,-110.33C600.41,-103.28 607.07,-93.15 612.87,-84.33"/>
<polygon fill="#63b8ff" stroke="#63b8ff" points="615.7,-86.4 618.26,-76.12 609.85,-82.56 615.7,-86.4"/>
</a>
</g>
</g>
<!-- Node17 -->
<g id="Node000017" class="node">
<title>Node17</title>
<g id="a_Node000017"><a xlink:title=" ">
<polygon fill="#e0e0e0" stroke="#999999" points="723.25,-74.5 672.75,-74.5 672.75,-55.25 723.25,-55.25 723.25,-74.5"/>
<text text-anchor="middle" x="698" y="-61" font-family="Helvetica,sans-Serif" font-size="10.00">cxxabi.h</text>
</a>
</g>
</g>
<!-- Node9&#45;&gt;Node17 -->
<g id="edge16_Node000009_Node000017" class="edge">
<title>Node9&#45;&gt;Node17</title>
<g id="a_edge16_Node000009_Node000017"><a xlink:title=" ">
<path fill="none" stroke="#63b8ff" d="M608.32,-110.09C625.08,-101.83 650.13,-89.48 669.5,-79.93"/>
<polygon fill="#63b8ff" stroke="#63b8ff" points="670.81,-83.18 678.23,-75.62 667.72,-76.9 670.81,-83.18"/>
</a>
</g>
</g>
<!-- Node18 -->
<g id="Node000018" class="node">
<title>Node18</title>
<g id="a_Node000018"><a xlink:title=" ">
<polygon fill="#e0e0e0" stroke="#999999" points="792.62,-74.5 741.38,-74.5 741.38,-55.25 792.62,-55.25 792.62,-74.5"/>
<text text-anchor="middle" x="767" y="-61" font-family="Helvetica,sans-Serif" font-size="10.00">sstream</text>
</a>
</g>
</g>
<!-- Node9&#45;&gt;Node18 -->
<g id="edge17_Node000009_Node000018" class="edge">
<title>Node9&#45;&gt;Node18</title>
<g id="a_edge17_Node000009_Node000018"><a xlink:title=" ">
<path fill="none" stroke="#63b8ff" d="M618.44,-110.57C648.82,-101.43 697.07,-86.91 730.3,-76.92"/>
<polygon fill="#63b8ff" stroke="#63b8ff" points="730.92,-80.38 739.49,-74.15 728.91,-73.68 730.92,-80.38"/>
</a>
</g>
</g>
<!-- Node19 -->
<g id="Node000019" class="node">
<title>Node19</title>
<g id="a_Node000019"><a xlink:title=" ">
<polygon fill="#e0e0e0" stroke="#999999" points="847.5,-74.5 810.5,-74.5 810.5,-55.25 847.5,-55.25 847.5,-74.5"/>
<text text-anchor="middle" x="829" y="-61" font-family="Helvetica,sans-Serif" font-size="10.00">array</text>
</a>
</g>
</g>
<!-- Node9&#45;&gt;Node19 -->
<g id="edge18_Node000009_Node000019" class="edge">
<title>Node9&#45;&gt;Node19</title>
<g id="a_edge18_Node000009_Node000019"><a xlink:title=" ">
<path fill="none" stroke="#63b8ff" d="M618.68,-114.05C657.63,-106.95 729.61,-93.09 799.45,-74.98"/>
<polygon fill="#63b8ff" stroke="#63b8ff" points="799.94,-78.47 808.73,-72.54 798.16,-71.7 799.94,-78.47"/>
</a>
</g>
</g>
<!-- Node20 -->
<g id="Node000020" class="node">
<title>Node20</title>
<g id="a_Node000020"><a xlink:title=" ">
<polygon fill="#e0e0e0" stroke="#999999" points="147.25,-74.5 96.75,-74.5 96.75,-55.25 147.25,-55.25 147.25,-74.5"/>
<text text-anchor="middle" x="122" y="-61" font-family="Helvetica,sans-Serif" font-size="10.00">memory</text>
</a>
</g>
</g>
<!-- Node9&#45;&gt;Node20 -->
<g id="edge19_Node000009_Node000020" class="edge">
<title>Node9&#45;&gt;Node20</title>
<g id="a_edge19_Node000009_Node000020"><a xlink:title=" ">
<path fill="none" stroke="#63b8ff" d="M561.36,-117.63C493.22,-113.77 315.97,-101.91 158.81,-74.76"/>
<polygon fill="#63b8ff" stroke="#63b8ff" points="159.48,-71.32 149.02,-73.04 158.27,-78.22 159.48,-71.32"/>
</a>
</g>
</g>
<!-- Node21 -->
<g id="Node000021" class="node">
<title>Node21</title>
<g id="a_Node000021"><a xlink:title=" ">
<polygon fill="#e0e0e0" stroke="#999999" points="214.88,-74.5 165.12,-74.5 165.12,-55.25 214.88,-55.25 214.88,-74.5"/>
<text text-anchor="middle" x="190" y="-61" font-family="Helvetica,sans-Serif" font-size="10.00">unistd.h</text>
</a>
</g>
</g>
<!-- Node9&#45;&gt;Node21 -->
<g id="edge20_Node000009_Node000021" class="edge">
<title>Node9&#45;&gt;Node21</title>
<g id="a_edge20_Node000009_Node000021"><a xlink:title=" ">
<path fill="none" stroke="#63b8ff" d="M561.34,-116.88C501.09,-111.89 356.77,-98.56 226.15,-74.68"/>
<polygon fill="#63b8ff" stroke="#63b8ff" points="227.13,-71.3 216.66,-72.92 225.85,-78.18 227.13,-71.3"/>
</a>
</g>
</g>
<!-- Node22 -->
<g id="Node000022" class="node">
<title>Node22</title>
<g id="a_Node000022"><a xlink:title=" ">
<polygon fill="#e0e0e0" stroke="#999999" points="292.75,-74.5 233.25,-74.5 233.25,-55.25 292.75,-55.25 292.75,-74.5"/>
<text text-anchor="middle" x="263" y="-61" font-family="Helvetica,sans-Serif" font-size="10.00">sys/wait.h</text>
</a>
</g>
</g>
<!-- Node9&#45;&gt;Node22 -->
<g id="edge21_Node000009_Node000022" class="edge">
<title>Node9&#45;&gt;Node22</title>
<g id="a_edge21_Node000009_Node000022"><a xlink:title=" ">
<path fill="none" stroke="#63b8ff" d="M561.28,-115.3C511.24,-108.49 404.56,-93.39 304.42,-74.85"/>
<polygon fill="#63b8ff" stroke="#63b8ff" points="305.16,-71.43 294.68,-73.03 303.87,-78.31 305.16,-71.43"/>
</a>
</g>
</g>
<!-- Node23 -->
<g id="Node000023" class="node">
<title>Node23</title>
<g id="a_Node000023"><a xlink:title=" ">
<polygon fill="#e0e0e0" stroke="#999999" points="371.12,-74.5 310.88,-74.5 310.88,-55.25 371.12,-55.25 371.12,-74.5"/>
<text text-anchor="middle" x="341" y="-61" font-family="Helvetica,sans-Serif" font-size="10.00">sys/prctl.h</text>
</a>
</g>
</g>
<!-- Node9&#45;&gt;Node23 -->
<g id="edge22_Node000009_Node000023" class="edge">
<title>Node9&#45;&gt;Node23</title>
<g id="a_edge22_Node000009_Node000023"><a xlink:title=" ">
<path fill="none" stroke="#63b8ff" d="M561.45,-113.14C523.09,-105.07 452.48,-90.17 382.46,-75.02"/>
<polygon fill="#63b8ff" stroke="#63b8ff" points="383.22,-71.6 372.71,-72.91 381.74,-78.44 383.22,-71.6"/>
</a>
</g>
</g>
<!-- Node24&#45;&gt;Node7 -->
<g id="edge27_Node000024_Node000007" class="edge">
<title>Node24&#45;&gt;Node7</title>
<g id="a_edge27_Node000024_Node000007"><a xlink:title=" ">
<path fill="none" stroke="#63b8ff" d="M1077.35,-113.73C1042.05,-104.6 982.06,-84.2 1005,-55.25 1024,-31.27 1110.76,-18.91 1160.21,-13.72"/>
<polygon fill="#63b8ff" stroke="#63b8ff" points="1160.52,-17.2 1170.12,-12.73 1159.82,-10.24 1160.52,-17.2"/>
</a>
</g>
</g>
<!-- Node24&#45;&gt;Node14 -->
<g id="edge24_Node000024_Node000014" class="edge">
<title>Node24&#45;&gt;Node14</title>
<g id="a_edge24_Node000024_Node000014"><a xlink:title=" ">
<path fill="none" stroke="#63b8ff" d="M1098.76,-110.1C1095.98,-96.53 1093.04,-70.8 1106,-55.25 1114.73,-44.77 1194.89,-26.84 1241.26,-17.21"/>
<polygon fill="#63b8ff" stroke="#63b8ff" points="1241.96,-20.64 1251.05,-15.2 1240.55,-13.78 1241.96,-20.64"/>
</a>
</g>
</g>
<!-- Node25 -->
<g id="Node000025" class="node">
<title>Node25</title>
<g id="a_Node000025"><a xlink:title=" ">
<polygon fill="#e0e0e0" stroke="#999999" points="1626.5,-19.25 1565.5,-19.25 1565.5,0 1626.5,0 1626.5,-19.25"/>
<text text-anchor="middle" x="1596" y="-5.75" font-family="Helvetica,sans-Serif" font-size="10.00">TNamed.h</text>
</a>
</g>
</g>
<!-- Node24&#45;&gt;Node25 -->
<g id="edge25_Node000024_Node000025" class="edge">
<title>Node24&#45;&gt;Node25</title>
<g id="a_edge25_Node000024_Node000025"><a xlink:title=" ">
<path fill="none" stroke="#63b8ff" d="M1108.31,-110.19C1120.71,-95.74 1147.43,-67.64 1177,-55.25 1329.7,8.74 1386.35,-42.81 1553.86,-19.33"/>
<polygon fill="#63b8ff" stroke="#63b8ff" points="1554.18,-22.82 1563.56,-17.89 1553.16,-15.9 1554.18,-22.82"/>
</a>
</g>
</g>
<!-- Node26 -->
<g id="Node000026" class="node">
<title>Node26</title>
<g id="a_Node000026"><a xlink:title=" ">
<polygon fill="#e0e0e0" stroke="#999999" points="1547.12,-19.25 1504.88,-19.25 1504.88,0 1547.12,0 1547.12,-19.25"/>
<text text-anchor="middle" x="1526" y="-5.75" font-family="Helvetica,sans-Serif" font-size="10.00">TH2.h</text>
</a>
</g>
</g>
<!-- Node24&#45;&gt;Node26 -->
<g id="edge26_Node000024_Node000026" class="edge">
<title>Node24&#45;&gt;Node26</title>
<g id="a_edge26_Node000024_Node000026"><a xlink:title=" ">
<path fill="none" stroke="#63b8ff" d="M1104.12,-110.31C1109.69,-96.05 1122.77,-68.19 1144,-55.25 1202.36,-19.69 1411.65,-12.46 1493.17,-11"/>
<polygon fill="#63b8ff" stroke="#63b8ff" points="1493,-14.5 1502.95,-10.84 1492.89,-7.5 1493,-14.5"/>
</a>
</g>
</g>
<!-- Node24&#45;&gt;Node27 -->
<g id="edge28_Node000024_Node000027" class="edge">
<title>Node24&#45;&gt;Node27</title>
<g id="a_edge28_Node000024_Node000027"><a xlink:title=" ">
<path fill="none" stroke="#63b8ff" d="M1121.7,-110.09C1140.89,-101.72 1169.71,-89.13 1191.72,-79.53"/>
<polygon fill="#63b8ff" stroke="#63b8ff" points="1193.05,-82.77 1200.82,-75.56 1190.25,-76.35 1193.05,-82.77"/>
</a>
</g>
</g>
<!-- Node24&#45;&gt;Node28 -->
<g id="edge29_Node000024_Node000028" class="edge">
<title>Node24&#45;&gt;Node28</title>
<g id="a_edge29_Node000024_Node000028"><a xlink:title=" ">
<path fill="none" stroke="#63b8ff" d="M1124.63,-113.02C1159.38,-104.03 1224.73,-87.14 1267.03,-76.21"/>
<polygon fill="#63b8ff" stroke="#63b8ff" points="1267.77,-79.63 1276.58,-73.74 1266.02,-72.85 1267.77,-79.63"/>
</a>
</g>
</g>
<!-- Node29 -->
<g id="Node000029" class="node">
<title>Node29</title>
<g id="a_Node000029"><a xlink:href="_g_h2_base_8h.html" target="_top" xlink:title=" ">
<polygon fill="white" stroke="#666666" points="1620.12,-74.5 1553.88,-74.5 1553.88,-55.25 1620.12,-55.25 1620.12,-74.5"/>
<text text-anchor="middle" x="1587" y="-61" font-family="Helvetica,sans-Serif" font-size="10.00">GH2Base.h</text>
</a>
</g>
</g>
<!-- Node24&#45;&gt;Node29 -->
<g id="edge30_Node000024_Node000029" class="edge">
<title>Node24&#45;&gt;Node29</title>
<g id="a_edge30_Node000024_Node000029"><a xlink:title=" ">
<path fill="none" stroke="#63b8ff" d="M1124.77,-116.52C1201.3,-108.13 1442.16,-81.74 1542.47,-70.75"/>
<polygon fill="#63b8ff" stroke="#63b8ff" points="1542.64,-74.26 1552.2,-69.69 1541.88,-67.3 1542.64,-74.26"/>
</a>
</g>
</g>
<!-- Node29&#45;&gt;Node7 -->
<g id="edge34_Node000029_Node000007" class="edge">
<title>Node29&#45;&gt;Node7</title>
<g id="a_edge34_Node000029_Node000007"><a xlink:title=" ">
<path fill="none" stroke="#63b8ff" d="M1553.82,-60.06C1492.51,-52.9 1357.38,-36.59 1244,-19.25 1239.29,-18.53 1234.34,-17.72 1229.47,-16.89"/>
<polygon fill="#63b8ff" stroke="#63b8ff" points="1230.34,-13.49 1219.88,-15.22 1229.14,-20.39 1230.34,-13.49"/>
</a>
</g>
</g>
<!-- Node29&#45;&gt;Node14 -->
<g id="edge31_Node000029_Node000014" class="edge">
<title>Node29&#45;&gt;Node14</title>
<g id="a_edge31_Node000029_Node000014"><a xlink:title=" ">
<path fill="none" stroke="#63b8ff" d="M1553.5,-58.18C1493.03,-47.89 1366.37,-26.34 1306.58,-16.17"/>
<polygon fill="#63b8ff" stroke="#63b8ff" points="1307.49,-12.77 1297.04,-14.55 1306.32,-19.67 1307.49,-12.77"/>
</a>
</g>
</g>
<!-- Node29&#45;&gt;Node25 -->
<g id="edge32_Node000029_Node000025" class="edge">
<title>Node29&#45;&gt;Node25</title>
<g id="a_edge32_Node000029_Node000025"><a xlink:title=" ">
<path fill="none" stroke="#63b8ff" d="M1588.49,-55.08C1589.6,-48.49 1591.17,-39.21 1592.59,-30.82"/>
<polygon fill="#63b8ff" stroke="#63b8ff" points="1596.01,-31.55 1594.23,-21.1 1589.11,-30.38 1596.01,-31.55"/>
</a>
</g>
</g>
<!-- Node29&#45;&gt;Node26 -->
<g id="edge33_Node000029_Node000026" class="edge">
<title>Node29&#45;&gt;Node26</title>
<g id="a_edge33_Node000029_Node000026"><a xlink:title=" ">
<path fill="none" stroke="#63b8ff" d="M1576.65,-54.84C1567.92,-47.22 1555.21,-36.12 1544.7,-26.95"/>
<polygon fill="#63b8ff" stroke="#63b8ff" points="1547.17,-24.46 1537.34,-20.52 1542.57,-29.73 1547.17,-24.46"/>
</a>
</g>
</g>
<!-- Node36&#45;&gt;Node13 -->
<g id="edge46_Node000036_Node000013" class="edge">
<title>Node36&#45;&gt;Node13</title>
<g id="a_edge46_Node000036_Node000013"><a xlink:title=" ">
<path fill="none" stroke="#63b8ff" d="M1389.4,-112.49C1304.4,-101.34 1135.39,-79.17 1065.44,-70"/>
<polygon fill="#63b8ff" stroke="#63b8ff" points="1066.2,-66.57 1055.83,-68.74 1065.29,-73.51 1066.2,-66.57"/>
</a>
</g>
</g>
<!-- Node36&#45;&gt;Node26 -->
<g id="edge48_Node000036_Node000026" class="edge">
<title>Node36&#45;&gt;Node26</title>
<g id="a_edge48_Node000036_Node000026"><a xlink:title=" ">
<path fill="none" stroke="#63b8ff" d="M1447.04,-110.25C1461.15,-92.44 1493.14,-52.08 1511.78,-28.56"/>
<polygon fill="#63b8ff" stroke="#63b8ff" points="1514.46,-30.82 1517.92,-20.81 1508.97,-26.48 1514.46,-30.82"/>
</a>
</g>
</g>
<!-- Node37 -->
<g id="Node000037" class="node">
<title>Node37</title>
<g id="a_Node000037"><a xlink:title=" ">
<polygon fill="#e0e0e0" stroke="#999999" points="1421.88,-74.5 1354.12,-74.5 1354.12,-55.25 1421.88,-55.25 1421.88,-74.5"/>
<text text-anchor="middle" x="1388" y="-61" font-family="Helvetica,sans-Serif" font-size="10.00">TDirectory.h</text>
</a>
</g>
</g>
<!-- Node36&#45;&gt;Node37 -->
<g id="edge47_Node000036_Node000037" class="edge">
<title>Node36&#45;&gt;Node37</title>
<g id="a_edge47_Node000036_Node000037"><a xlink:title=" ">
<path fill="none" stroke="#63b8ff" d="M1431.41,-110.33C1424.16,-102.9 1413.55,-92.04 1404.63,-82.91"/>
<polygon fill="#63b8ff" stroke="#63b8ff" points="1407.32,-80.65 1397.83,-75.94 1402.31,-85.54 1407.32,-80.65"/>
</a>
</g>
</g>
<!-- Node38&#45;&gt;Node3 -->
<g id="edge54_Node000038_Node000003" class="edge">
<title>Node38&#45;&gt;Node3</title>
<g id="a_edge54_Node000038_Node000003"><a xlink:title=" ">
<path fill="none" stroke="#63b8ff" d="M1805,-110.33C1805,-103.82 1805,-94.67 1805,-86.37"/>
<polygon fill="#63b8ff" stroke="#63b8ff" points="1808.5,-86.37 1805,-76.37 1801.5,-86.37 1808.5,-86.37"/>
</a>
</g>
</g>
<!-- Node38&#45;&gt;Node10 -->
<g id="edge57_Node000038_Node000010" class="edge">
<title>Node38&#45;&gt;Node10</title>
<g id="a_edge57_Node000038_Node000010"><a xlink:title=" ">
<path fill="none" stroke="#63b8ff" d="M1772.82,-117.59C1643.08,-111.36 1158.14,-87.68 1005,-74.5 993.43,-73.5 980.87,-72.15 969.44,-70.8"/>
<polygon fill="#63b8ff" stroke="#63b8ff" points="969.87,-67.33 959.53,-69.6 969.03,-74.28 969.87,-67.33"/>
</a>
</g>
</g>
<!-- Node38&#45;&gt;Node29 -->
<g id="edge50_Node000038_Node000029" class="edge">
<title>Node38&#45;&gt;Node29</title>
<g id="a_edge50_Node000038_Node000029"><a xlink:title=" ">
<path fill="none" stroke="#63b8ff" d="M1772.83,-111.27C1735.4,-102.13 1673.38,-86.97 1631.38,-76.72"/>
<polygon fill="#63b8ff" stroke="#63b8ff" points="1632.39,-73.36 1621.84,-74.39 1630.73,-80.16 1632.39,-73.36"/>
</a>
</g>
</g>
<!-- Node39 -->
<g id="Node000039" class="node">
<title>Node39</title>
<g id="a_Node000039"><a xlink:title=" ">
<polygon fill="#e0e0e0" stroke="#999999" points="2149.62,-74.5 2092.38,-74.5 2092.38,-55.25 2149.62,-55.25 2149.62,-74.5"/>
<text text-anchor="middle" x="2121" y="-61" font-family="Helvetica,sans-Serif" font-size="10.00">TROOT.h</text>
</a>
</g>
</g>
<!-- Node38&#45;&gt;Node39 -->
<g id="edge51_Node000038_Node000039" class="edge">
<title>Node38&#45;&gt;Node39</title>
<g id="a_edge51_Node000038_Node000039"><a xlink:title=" ">
<path fill="none" stroke="#63b8ff" d="M1837.22,-114.64C1887.17,-107.53 1986.51,-92.81 2080.82,-74.81"/>
<polygon fill="#63b8ff" stroke="#63b8ff" points="2081.35,-78.27 2090.51,-72.95 2080.03,-71.4 2081.35,-78.27"/>
</a>
</g>
</g>
<!-- Node40 -->
<g id="Node000040" class="node">
<title>Node40</title>
<g id="a_Node000040"><a xlink:title=" ">
<polygon fill="#e0e0e0" stroke="#999999" points="1906.25,-74.5 1843.75,-74.5 1843.75,-55.25 1906.25,-55.25 1906.25,-74.5"/>
<text text-anchor="middle" x="1875" y="-61" font-family="Helvetica,sans-Serif" font-size="10.00">TCanvas.h</text>
</a>
</g>
</g>
<!-- Node38&#45;&gt;Node40 -->
<g id="edge52_Node000038_Node000040" class="edge">
<title>Node38&#45;&gt;Node40</title>
<g id="a_edge52_Node000038_Node000040"><a xlink:title=" ">
<path fill="none" stroke="#63b8ff" d="M1816.87,-110.09C1827.09,-102.32 1842.07,-90.92 1854.26,-81.65"/>
<polygon fill="#63b8ff" stroke="#63b8ff" points="1856.26,-84.53 1862.1,-75.69 1852.02,-78.96 1856.26,-84.53"/>
</a>
</g>
</g>
<!-- Node41 -->
<g id="Node000041" class="node">
<title>Node41</title>
<g id="a_Node000041"><a xlink:title=" ">
<polygon fill="#e0e0e0" stroke="#999999" points="2007.38,-74.5 1924.62,-74.5 1924.62,-55.25 2007.38,-55.25 2007.38,-74.5"/>
<text text-anchor="middle" x="1966" y="-61" font-family="Helvetica,sans-Serif" font-size="10.00">TRootCanvas.h</text>
</a>
</g>
</g>
<!-- Node38&#45;&gt;Node41 -->
<g id="edge53_Node000038_Node000041" class="edge">
<title>Node38&#45;&gt;Node41</title>
<g id="a_edge53_Node000038_Node000041"><a xlink:title=" ">
<path fill="none" stroke="#63b8ff" d="M1832.31,-110.09C1858.56,-101.41 1898.48,-88.21 1927.86,-78.49"/>
<polygon fill="#63b8ff" stroke="#63b8ff" points="1928.72,-81.89 1937.12,-75.43 1926.52,-75.24 1928.72,-81.89"/>
</a>
</g>
</g>
<!-- Node42 -->
<g id="Node000042" class="node">
<title>Node42</title>
<g id="a_Node000042"><a xlink:title=" ">
<polygon fill="#e0e0e0" stroke="#999999" points="2074.12,-74.5 2025.88,-74.5 2025.88,-55.25 2074.12,-55.25 2074.12,-74.5"/>
<text text-anchor="middle" x="2050" y="-61" font-family="Helvetica,sans-Serif" font-size="10.00">TLine.h</text>
</a>
</g>
</g>
<!-- Node38&#45;&gt;Node42 -->
<g id="edge55_Node000038_Node000042" class="edge">
<title>Node38&#45;&gt;Node42</title>
<g id="a_edge55_Node000038_Node000042"><a xlink:title=" ">
<path fill="none" stroke="#63b8ff" d="M1837.26,-112.72C1876.62,-104.81 1945.46,-90.7 2014.45,-74.78"/>
<polygon fill="#63b8ff" stroke="#63b8ff" points="2015.09,-78.22 2024.04,-72.55 2013.51,-71.4 2015.09,-78.22"/>
</a>
</g>
</g>
<!-- Node43 -->
<g id="Node000043" class="node">
<title>Node43</title>
<g id="a_Node000043"><a xlink:title=" ">
<polygon fill="#e0e0e0" stroke="#999999" points="1766,-74.5 1714,-74.5 1714,-55.25 1766,-55.25 1766,-74.5"/>
<text text-anchor="middle" x="1740" y="-61" font-family="Helvetica,sans-Serif" font-size="10.00">TCutG.h</text>
</a>
</g>
</g>
<!-- Node38&#45;&gt;Node43 -->
<g id="edge56_Node000038_Node000043" class="edge">
<title>Node38&#45;&gt;Node43</title>
<g id="a_edge56_Node000038_Node000043"><a xlink:title=" ">
<path fill="none" stroke="#63b8ff" d="M1793.97,-110.09C1784.58,-102.4 1770.85,-91.15 1759.59,-81.93"/>
<polygon fill="#63b8ff" stroke="#63b8ff" points="1761.99,-79.36 1752.03,-75.73 1757.55,-84.78 1761.99,-79.36"/>
</a>
</g>
</g>
<!-- Node44&#45;&gt;Node7 -->
<g id="edge63_Node000044_Node000007" class="edge">
<title>Node44&#45;&gt;Node7</title>
<g id="a_edge63_Node000044_Node000007"><a xlink:title=" ">
<path fill="none" stroke="#63b8ff" d="M1561.49,-111.36C1536.23,-103.32 1496.71,-89.82 1464,-74.5 1448.62,-67.3 1446.91,-61.19 1431,-55.25 1421.58,-51.73 1292.24,-28.16 1229.14,-16.77"/>
<polygon fill="#63b8ff" stroke="#63b8ff" points="1230.13,-13.39 1219.66,-15.06 1228.89,-20.28 1230.13,-13.39"/>
</a>
</g>
</g>
<!-- Node44&#45;&gt;Node14 -->
<g id="edge60_Node000044_Node000014" class="edge">
<title>Node44&#45;&gt;Node14</title>
<g id="a_edge60_Node000044_Node000014"><a xlink:title=" ">
<path fill="none" stroke="#63b8ff" d="M1572.4,-110.01C1549.91,-96.33 1505.06,-70.46 1464,-55.25 1410.56,-35.45 1345.32,-22.4 1306.86,-15.78"/>
<polygon fill="#63b8ff" stroke="#63b8ff" points="1307.53,-12.35 1297.09,-14.15 1306.37,-19.25 1307.53,-12.35"/>
</a>
</g>
</g>
<!-- Node44&#45;&gt;Node25 -->
<g id="edge61_Node000044_Node000025" class="edge">
<title>Node44&#45;&gt;Node25</title>
<g id="a_edge61_Node000044_Node000025"><a xlink:title=" ">
<path fill="none" stroke="#63b8ff" d="M1612.41,-111.44C1629.76,-104.72 1651.44,-93.07 1662,-74.5 1673.5,-54.28 1650.46,-36.36 1628.51,-24.69"/>
<polygon fill="#63b8ff" stroke="#63b8ff" points="1630.17,-21.6 1619.66,-20.3 1627.06,-27.88 1630.17,-21.6"/>
</a>
</g>
</g>
<!-- Node44&#45;&gt;Node26 -->
<g id="edge62_Node000044_Node000026" class="edge">
<title>Node44&#45;&gt;Node26</title>
<g id="a_edge62_Node000044_Node000026"><a xlink:title=" ">
<path fill="none" stroke="#63b8ff" d="M1600.5,-110.03C1617.16,-97.64 1641.82,-74.78 1629,-55.25 1620.81,-42.78 1585.57,-29.26 1558.56,-20.41"/>
<polygon fill="#63b8ff" stroke="#63b8ff" points="1559.63,-17.08 1549.04,-17.38 1557.51,-23.75 1559.63,-17.08"/>
</a>
</g>
</g>
<!-- Node44&#45;&gt;Node27 -->
<g id="edge64_Node000044_Node000027" class="edge">
<title>Node44&#45;&gt;Node27</title>
<g id="a_edge64_Node000044_Node000027"><a xlink:title=" ">
<path fill="none" stroke="#63b8ff" d="M1561.38,-115.94C1509.01,-109.33 1385.67,-93.33 1271.96,-74.92"/>
<polygon fill="#63b8ff" stroke="#63b8ff" points="1272.56,-71.48 1262.12,-73.32 1271.43,-78.38 1272.56,-71.48"/>
</a>
</g>
</g>
<!-- Node44&#45;&gt;Node28 -->
<g id="edge65_Node000044_Node000028" class="edge">
<title>Node44&#45;&gt;Node28</title>
<g id="a_edge65_Node000044_Node000028"><a xlink:title=" ">
<path fill="none" stroke="#63b8ff" d="M1561.5,-114.78C1519.16,-107.48 1431.45,-92.04 1347.09,-74.86"/>
<polygon fill="#63b8ff" stroke="#63b8ff" points="1348,-71.47 1337.5,-72.89 1346.6,-78.33 1348,-71.47"/>
</a>
</g>
</g>
<!-- Node44&#45;&gt;Node29 -->
<g id="edge67_Node000044_Node000029" class="edge">
<title>Node44&#45;&gt;Node29</title>
<g id="a_edge67_Node000044_Node000029"><a xlink:title=" ">
<path fill="none" stroke="#63b8ff" d="M1587,-110.33C1587,-103.82 1587,-94.67 1587,-86.37"/>
<polygon fill="#63b8ff" stroke="#63b8ff" points="1590.5,-86.37 1587,-76.37 1583.5,-86.37 1590.5,-86.37"/>
</a>
</g>
</g>
<!-- Node44&#45;&gt;Node43 -->
<g id="edge66_Node000044_Node000043" class="edge">
<title>Node44&#45;&gt;Node43</title>
<g id="a_edge66_Node000044_Node000043"><a xlink:title=" ">
<path fill="none" stroke="#63b8ff" d="M1612.61,-110.21C1637.39,-101.59 1675.22,-88.42 1703.22,-78.68"/>
<polygon fill="#63b8ff" stroke="#63b8ff" points="1704.07,-82.09 1712.37,-75.49 1701.77,-75.47 1704.07,-82.09"/>
</a>
</g>
</g>
</g>
</svg>
