<?xml version="1.0" encoding="UTF-8" standalone="no"?>
<!DOCTYPE svg PUBLIC "-//W3C//DTD SVG 1.1//EN"
 "http://www.w3.org/Graphics/SVG/1.1/DTD/svg11.dtd">
<!-- Generated by graphviz version 12.2.0 (20241103.1931)
 -->
<!-- Title: GH2Base.cxx Pages: 1 -->
<svg width="1441pt" height="248pt"
 viewBox="0.00 0.00 1441.02 248.25" xmlns="http://www.w3.org/2000/svg" xmlns:xlink="http://www.w3.org/1999/xlink">
<g id="graph0" class="graph" transform="scale(1 1) rotate(0) translate(4 244.25)">
<title>GH2Base.cxx</title>
<!-- Node1 -->
<g id="Node000001" class="node">
<title>Node1</title>
<g id="a_Node000001"><a xlink:title=" ">
<polygon fill="#999999" stroke="#666666" points="265.89,-240.25 190.64,-240.25 190.64,-221 265.89,-221 265.89,-240.25"/>
<text text-anchor="middle" x="228.27" y="-226.75" font-family="Helvetica,sans-Serif" font-size="10.00">GH2Base.cxx</text>
</a>
</g>
</g>
<!-- Node2 -->
<g id="Node000002" class="node">
<title>Node2</title>
<g id="a_Node000002"><a xlink:href="_g_h2_base_8h.html" target="_top" xlink:title=" ">
<polygon fill="white" stroke="#666666" points="214.39,-74.5 148.14,-74.5 148.14,-55.25 214.39,-55.25 214.39,-74.5"/>
<text text-anchor="middle" x="181.27" y="-61" font-family="Helvetica,sans-Serif" font-size="10.00">GH2Base.h</text>
</a>
</g>
</g>
<!-- Node1&#45;&gt;Node2 -->
<g id="edge1_Node000001_Node000002" class="edge">
<title>Node1&#45;&gt;Node2</title>
<g id="a_edge1_Node000001_Node000002"><a xlink:title=" ">
<path fill="none" stroke="#63b8ff" d="M190.29,-228.45C150.06,-225.51 86.27,-215.87 41.27,-185 16.69,-168.14 12.11,-158.21 3.27,-129.75 0.73,-121.58 -2,-117.25 3.27,-110.5 19.52,-89.67 89.4,-77.1 136.62,-70.83"/>
<polygon fill="#63b8ff" stroke="#63b8ff" points="136.81,-74.34 146.29,-69.6 135.93,-67.39 136.81,-74.34"/>
</a>
</g>
</g>
<!-- Node8 -->
<g id="Node000008" class="node">
<title>Node8</title>
<g id="a_Node000008"><a xlink:title=" ">
<polygon fill="#e0e0e0" stroke="#999999" points="1433.02,-74.5 1379.52,-74.5 1379.52,-55.25 1433.02,-55.25 1433.02,-74.5"/>
<text text-anchor="middle" x="1406.27" y="-61" font-family="Helvetica,sans-Serif" font-size="10.00">iostream</text>
</a>
</g>
</g>
<!-- Node1&#45;&gt;Node8 -->
<g id="edge7_Node000001_Node000008" class="edge">
<title>Node1&#45;&gt;Node8</title>
<g id="a_edge7_Node000001_Node000008"><a xlink:title=" ">
<path fill="none" stroke="#63b8ff" d="M265.95,-225.89C408.79,-211.46 930.54,-156.09 1367.91,-74.77"/>
<polygon fill="#63b8ff" stroke="#63b8ff" points="1368.53,-78.22 1377.71,-72.94 1367.24,-71.34 1368.53,-78.22"/>
</a>
</g>
</g>
<!-- Node9 -->
<g id="Node000009" class="node">
<title>Node9</title>
<g id="a_Node000009"><a xlink:title=" ">
<polygon fill="#e0e0e0" stroke="#999999" points="1054.14,-185 986.39,-185 986.39,-165.75 1054.14,-165.75 1054.14,-185"/>
<text text-anchor="middle" x="1020.27" y="-171.5" font-family="Helvetica,sans-Serif" font-size="10.00">TDirectory.h</text>
</a>
</g>
</g>
<!-- Node1&#45;&gt;Node9 -->
<g id="edge8_Node000001_Node000009" class="edge">
<title>Node1&#45;&gt;Node9</title>
<g id="a_edge8_Node000001_Node000009"><a xlink:title=" ">
<path fill="none" stroke="#63b8ff" d="M266.35,-228.92C376.21,-226.56 703.09,-217.14 972.27,-185 973.1,-184.9 973.94,-184.8 974.79,-184.69"/>
<polygon fill="#63b8ff" stroke="#63b8ff" points="975.11,-188.18 984.49,-183.26 974.09,-181.25 975.11,-188.18"/>
</a>
</g>
</g>
<!-- Node10 -->
<g id="Node000010" class="node">
<title>Node10</title>
<g id="a_Node000010"><a xlink:href="_g_h1_d_8h.html" target="_top" xlink:title=" ">
<polygon fill="white" stroke="#666666" points="253.52,-185 203.02,-185 203.02,-165.75 253.52,-165.75 253.52,-185"/>
<text text-anchor="middle" x="228.27" y="-171.5" font-family="Helvetica,sans-Serif" font-size="10.00">GH1D.h</text>
</a>
</g>
</g>
<!-- Node1&#45;&gt;Node10 -->
<g id="edge9_Node000001_Node000010" class="edge">
<title>Node1&#45;&gt;Node10</title>
<g id="a_edge9_Node000001_Node000010"><a xlink:title=" ">
<path fill="none" stroke="#63b8ff" d="M228.27,-220.83C228.27,-214.32 228.27,-205.17 228.27,-196.87"/>
<polygon fill="#63b8ff" stroke="#63b8ff" points="231.77,-196.87 228.27,-186.87 224.77,-196.87 231.77,-196.87"/>
</a>
</g>
</g>
<!-- Node32 -->
<g id="Node000032" class="node">
<title>Node32</title>
<g id="a_Node000032"><a xlink:href="_suppress_t_h1_g_directory_8h.html" target="_top" xlink:title=" ">
<polygon fill="white" stroke="#666666" points="179.89,-185 50.64,-185 50.64,-165.75 179.89,-165.75 179.89,-185"/>
<text text-anchor="middle" x="115.27" y="-171.5" font-family="Helvetica,sans-Serif" font-size="10.00">SuppressTH1GDirectory.h</text>
</a>
</g>
</g>
<!-- Node1&#45;&gt;Node32 -->
<g id="edge40_Node000001_Node000032" class="edge">
<title>Node1&#45;&gt;Node32</title>
<g id="a_edge40_Node000001_Node000032"><a xlink:title=" ">
<path fill="none" stroke="#63b8ff" d="M209.1,-220.59C191.48,-212.29 165.11,-199.86 144.8,-190.29"/>
<polygon fill="#63b8ff" stroke="#63b8ff" points="146.44,-187.19 135.9,-186.1 143.45,-193.53 146.44,-187.19"/>
</a>
</g>
</g>
<!-- Node3 -->
<g id="Node000003" class="node">
<title>Node3</title>
<g id="a_Node000003"><a xlink:title=" ">
<polygon fill="#e0e0e0" stroke="#999999" points="469.39,-19.25 427.14,-19.25 427.14,0 469.39,0 469.39,-19.25"/>
<text text-anchor="middle" x="448.27" y="-5.75" font-family="Helvetica,sans-Serif" font-size="10.00">cstdio</text>
</a>
</g>
</g>
<!-- Node2&#45;&gt;Node3 -->
<g id="edge2_Node000002_Node000003" class="edge">
<title>Node2&#45;&gt;Node3</title>
<g id="a_edge2_Node000002_Node000003"><a xlink:title=" ">
<path fill="none" stroke="#63b8ff" d="M214.73,-56.98C217.62,-56.39 220.49,-55.81 223.27,-55.25 291.74,-41.43 372.02,-25.6 415.77,-17"/>
<polygon fill="#63b8ff" stroke="#63b8ff" points="416.23,-20.48 425.37,-15.11 414.88,-13.61 416.23,-20.48"/>
</a>
</g>
</g>
<!-- Node4 -->
<g id="Node000004" class="node">
<title>Node4</title>
<g id="a_Node000004"><a xlink:title=" ">
<polygon fill="#e0e0e0" stroke="#999999" points="856.89,-19.25 811.64,-19.25 811.64,0 856.89,0 856.89,-19.25"/>
<text text-anchor="middle" x="834.27" y="-5.75" font-family="Helvetica,sans-Serif" font-size="10.00">cstdint</text>
</a>
</g>
</g>
<!-- Node2&#45;&gt;Node4 -->
<g id="edge3_Node000002_Node000004" class="edge">
<title>Node2&#45;&gt;Node4</title>
<g id="a_edge3_Node000002_Node000004"><a xlink:title=" ">
<path fill="none" stroke="#63b8ff" d="M214.67,-56.61C217.57,-56.1 220.46,-55.64 223.27,-55.25 441.55,-25 706.74,-14.48 799.92,-11.57"/>
<polygon fill="#63b8ff" stroke="#63b8ff" points="800,-15.07 809.89,-11.27 799.79,-8.08 800,-15.07"/>
</a>
</g>
</g>
<!-- Node5 -->
<g id="Node000005" class="node">
<title>Node5</title>
<g id="a_Node000005"><a xlink:title=" ">
<polygon fill="#e0e0e0" stroke="#999999" points="198.77,-19.25 137.77,-19.25 137.77,0 198.77,0 198.77,-19.25"/>
<text text-anchor="middle" x="168.27" y="-5.75" font-family="Helvetica,sans-Serif" font-size="10.00">TNamed.h</text>
</a>
</g>
</g>
<!-- Node2&#45;&gt;Node5 -->
<g id="edge4_Node000002_Node000005" class="edge">
<title>Node2&#45;&gt;Node5</title>
<g id="a_edge4_Node000002_Node000005"><a xlink:title=" ">
<path fill="none" stroke="#63b8ff" d="M179.12,-55.08C177.49,-48.42 175.19,-38.99 173.13,-30.53"/>
<polygon fill="#63b8ff" stroke="#63b8ff" points="176.59,-29.96 170.82,-21.08 169.79,-31.62 176.59,-29.96"/>
</a>
</g>
</g>
<!-- Node6 -->
<g id="Node000006" class="node">
<title>Node6</title>
<g id="a_Node000006"><a xlink:title=" ">
<polygon fill="#e0e0e0" stroke="#999999" points="334.39,-19.25 292.14,-19.25 292.14,0 334.39,0 334.39,-19.25"/>
<text text-anchor="middle" x="313.27" y="-5.75" font-family="Helvetica,sans-Serif" font-size="10.00">TH2.h</text>
</a>
</g>
</g>
<!-- Node2&#45;&gt;Node6 -->
<g id="edge5_Node000002_Node000006" class="edge">
<title>Node2&#45;&gt;Node6</title>
<g id="a_edge5_Node000002_Node000006"><a xlink:title=" ">
<path fill="none" stroke="#63b8ff" d="M203.66,-54.84C224.96,-46.25 257.24,-33.23 281.26,-23.54"/>
<polygon fill="#63b8ff" stroke="#63b8ff" points="282.27,-26.9 290.24,-19.91 279.66,-20.41 282.27,-26.9"/>
</a>
</g>
</g>
<!-- Node7 -->
<g id="Node000007" class="node">
<title>Node7</title>
<g id="a_Node000007"><a xlink:title=" ">
<polygon fill="#e0e0e0" stroke="#999999" points="105.27,-19.25 59.27,-19.25 59.27,0 105.27,0 105.27,-19.25"/>
<text text-anchor="middle" x="82.27" y="-5.75" font-family="Helvetica,sans-Serif" font-size="10.00">TList.h</text>
</a>
</g>
</g>
<!-- Node2&#45;&gt;Node7 -->
<g id="edge6_Node000002_Node000007" class="edge">
<title>Node2&#45;&gt;Node7</title>
<g id="a_edge6_Node000002_Node000007"><a xlink:title=" ">
<path fill="none" stroke="#63b8ff" d="M164.47,-54.84C149.25,-46.66 126.57,-34.46 108.88,-24.94"/>
<polygon fill="#63b8ff" stroke="#63b8ff" points="110.94,-22.07 100.48,-20.42 107.62,-28.24 110.94,-22.07"/>
</a>
</g>
</g>
<!-- Node10&#45;&gt;Node7 -->
<g id="edge14_Node000010_Node000007" class="edge">
<title>Node10&#45;&gt;Node7</title>
<g id="a_edge14_Node000010_Node000007"><a xlink:title=" ">
<path fill="none" stroke="#63b8ff" d="M202.67,-168.65C169.53,-160.71 114.44,-145.54 101.27,-129.75 77.96,-101.83 77.53,-56.97 79.67,-31"/>
<polygon fill="#63b8ff" stroke="#63b8ff" points="83.14,-31.45 80.71,-21.14 76.18,-30.71 83.14,-31.45"/>
</a>
</g>
</g>
<!-- Node11 -->
<g id="Node000011" class="node">
<title>Node11</title>
<g id="a_Node000011"><a xlink:title=" ">
<polygon fill="#e0e0e0" stroke="#999999" points="54.39,-129.75 12.14,-129.75 12.14,-110.5 54.39,-110.5 54.39,-129.75"/>
<text text-anchor="middle" x="33.27" y="-116.25" font-family="Helvetica,sans-Serif" font-size="10.00">TH1.h</text>
</a>
</g>
</g>
<!-- Node10&#45;&gt;Node11 -->
<g id="edge10_Node000010_Node000011" class="edge">
<title>Node10&#45;&gt;Node11</title>
<g id="a_edge10_Node000010_Node000011"><a xlink:title=" ">
<path fill="none" stroke="#63b8ff" d="M202.77,-167.41C167.69,-157.83 104.5,-140.58 65.97,-130.06"/>
<polygon fill="#63b8ff" stroke="#63b8ff" points="66.89,-126.68 56.32,-127.42 65.05,-133.43 66.89,-126.68"/>
</a>
</g>
</g>
<!-- Node12 -->
<g id="Node000012" class="node">
<title>Node12</title>
<g id="a_Node000012"><a xlink:title=" ">
<polygon fill="#e0e0e0" stroke="#999999" points="154.52,-129.75 110.02,-129.75 110.02,-110.5 154.52,-110.5 154.52,-129.75"/>
<text text-anchor="middle" x="132.27" y="-116.25" font-family="Helvetica,sans-Serif" font-size="10.00">TRef.h</text>
</a>
</g>
</g>
<!-- Node10&#45;&gt;Node12 -->
<g id="edge11_Node000010_Node000012" class="edge">
<title>Node10&#45;&gt;Node12</title>
<g id="a_edge11_Node000010_Node000012"><a xlink:title=" ">
<path fill="none" stroke="#63b8ff" d="M211.98,-165.34C197.36,-157.23 175.64,-145.18 158.56,-135.71"/>
<polygon fill="#63b8ff" stroke="#63b8ff" points="160.4,-132.73 149.95,-130.94 157,-138.85 160.4,-132.73"/>
</a>
</g>
</g>
<!-- Node13 -->
<g id="Node000013" class="node">
<title>Node13</title>
<g id="a_Node000013"><a xlink:title=" ">
<polygon fill="#e0e0e0" stroke="#999999" points="219.64,-129.75 172.89,-129.75 172.89,-110.5 219.64,-110.5 219.64,-129.75"/>
<text text-anchor="middle" x="196.27" y="-116.25" font-family="Helvetica,sans-Serif" font-size="10.00">TPad.h</text>
</a>
</g>
</g>
<!-- Node10&#45;&gt;Node13 -->
<g id="edge12_Node000010_Node000013" class="edge">
<title>Node10&#45;&gt;Node13</title>
<g id="a_edge12_Node000010_Node000013"><a xlink:title=" ">
<path fill="none" stroke="#63b8ff" d="M222.98,-165.58C218.79,-158.61 212.79,-148.62 207.53,-139.87"/>
<polygon fill="#63b8ff" stroke="#63b8ff" points="210.6,-138.18 202.44,-131.41 204.6,-141.78 210.6,-138.18"/>
</a>
</g>
</g>
<!-- Node14 -->
<g id="Node000014" class="node">
<title>Node14</title>
<g id="a_Node000014"><a xlink:title=" ">
<polygon fill="#e0e0e0" stroke="#999999" points="367.64,-129.75 302.89,-129.75 302.89,-110.5 367.64,-110.5 367.64,-129.75"/>
<text text-anchor="middle" x="335.27" y="-116.25" font-family="Helvetica,sans-Serif" font-size="10.00">GuiTypes.h</text>
</a>
</g>
</g>
<!-- Node10&#45;&gt;Node14 -->
<g id="edge13_Node000010_Node000014" class="edge">
<title>Node10&#45;&gt;Node14</title>
<g id="a_edge13_Node000010_Node000014"><a xlink:title=" ">
<path fill="none" stroke="#63b8ff" d="M246.42,-165.34C262.94,-157.12 287.61,-144.84 306.76,-135.31"/>
<polygon fill="#63b8ff" stroke="#63b8ff" points="308.28,-138.47 315.67,-130.88 305.16,-132.2 308.28,-138.47"/>
</a>
</g>
</g>
<!-- Node15 -->
<g id="Node000015" class="node">
<title>Node15</title>
<g id="a_Node000015"><a xlink:title=" ">
<polygon fill="#e0e0e0" stroke="#999999" points="431.27,-129.75 385.27,-129.75 385.27,-110.5 431.27,-110.5 431.27,-129.75"/>
<text text-anchor="middle" x="408.27" y="-116.25" font-family="Helvetica,sans-Serif" font-size="10.00">TBox.h</text>
</a>
</g>
</g>
<!-- Node10&#45;&gt;Node15 -->
<g id="edge15_Node000010_Node000015" class="edge">
<title>Node10&#45;&gt;Node15</title>
<g id="a_edge15_Node000010_Node000015"><a xlink:title=" ">
<path fill="none" stroke="#63b8ff" d="M253.67,-166.86C285.24,-157.52 339.22,-141.55 374.31,-131.17"/>
<polygon fill="#63b8ff" stroke="#63b8ff" points="374.94,-134.63 383.54,-128.44 372.95,-127.92 374.94,-134.63"/>
</a>
</g>
</g>
<!-- Node16 -->
<g id="Node000016" class="node">
<title>Node16</title>
<g id="a_Node000016"><a xlink:href="_globals_8h.html" target="_top" xlink:title=" ">
<polygon fill="white" stroke="#666666" points="930.52,-129.75 874.02,-129.75 874.02,-110.5 930.52,-110.5 930.52,-129.75"/>
<text text-anchor="middle" x="902.27" y="-116.25" font-family="Helvetica,sans-Serif" font-size="10.00">Globals.h</text>
</a>
</g>
</g>
<!-- Node10&#45;&gt;Node16 -->
<g id="edge16_Node000010_Node000016" class="edge">
<title>Node10&#45;&gt;Node16</title>
<g id="a_edge16_Node000010_Node000016"><a xlink:title=" ">
<path fill="none" stroke="#63b8ff" d="M253.86,-172.35C356.36,-164.25 737.6,-134.13 862.42,-124.27"/>
<polygon fill="#63b8ff" stroke="#63b8ff" points="862.48,-127.78 872.17,-123.5 861.93,-120.8 862.48,-127.78"/>
</a>
</g>
</g>
<!-- Node29 -->
<g id="Node000029" class="node">
<title>Node29</title>
<g id="a_Node000029"><a xlink:href="_g_h2_i_8h.html" target="_top" xlink:title=" ">
<polygon fill="white" stroke="#666666" points="284.64,-129.75 237.89,-129.75 237.89,-110.5 284.64,-110.5 284.64,-129.75"/>
<text text-anchor="middle" x="261.27" y="-116.25" font-family="Helvetica,sans-Serif" font-size="10.00">GH2I.h</text>
</a>
</g>
</g>
<!-- Node10&#45;&gt;Node29 -->
<g id="edge32_Node000010_Node000029" class="edge">
<title>Node10&#45;&gt;Node29</title>
<g id="a_edge32_Node000010_Node000029"><a xlink:title=" ">
<path fill="none" stroke="#63b8ff" d="M233.72,-165.58C238.04,-158.61 244.23,-148.62 249.65,-139.87"/>
<polygon fill="#63b8ff" stroke="#63b8ff" points="252.61,-141.74 254.9,-131.4 246.66,-138.05 252.61,-141.74"/>
</a>
</g>
</g>
<!-- Node16&#45;&gt;Node3 -->
<g id="edge21_Node000016_Node000003" class="edge">
<title>Node16&#45;&gt;Node3</title>
<g id="a_edge21_Node000016_Node000003"><a xlink:title=" ">
<path fill="none" stroke="#63b8ff" d="M873.55,-118.53C793.52,-116.46 569.65,-107.78 505.27,-74.5 485.31,-64.19 469.05,-43.79 459.08,-28.81"/>
<polygon fill="#63b8ff" stroke="#63b8ff" points="462.31,-27.37 454.02,-20.77 456.39,-31.1 462.31,-27.37"/>
</a>
</g>
</g>
<!-- Node16&#45;&gt;Node4 -->
<g id="edge22_Node000016_Node000004" class="edge">
<title>Node16&#45;&gt;Node4</title>
<g id="a_edge22_Node000016_Node000004"><a xlink:title=" ">
<path fill="none" stroke="#63b8ff" d="M930.72,-113.2C935.25,-112.28 939.88,-111.35 944.27,-110.5 1032.68,-93.26 1198.17,-123.4 1139.27,-55.25 1104.54,-15.08 940.37,-10.37 868.31,-10.29"/>
<polygon fill="#63b8ff" stroke="#63b8ff" points="868.68,-6.79 858.68,-10.31 868.69,-13.78 868.68,-6.79"/>
</a>
</g>
</g>
<!-- Node16&#45;&gt;Node8 -->
<g id="edge17_Node000016_Node000008" class="edge">
<title>Node16&#45;&gt;Node8</title>
<g id="a_edge17_Node000016_Node000008"><a xlink:title=" ">
<path fill="none" stroke="#63b8ff" d="M930.65,-112.82C935.19,-111.95 939.85,-111.14 944.27,-110.5 1128.65,-83.87 1180.66,-103.9 1367.88,-74.62"/>
<polygon fill="#63b8ff" stroke="#63b8ff" points="1368.41,-78.08 1377.73,-73.05 1367.31,-71.17 1368.41,-78.08"/>
</a>
</g>
</g>
<!-- Node17 -->
<g id="Node000017" class="node">
<title>Node17</title>
<g id="a_Node000017"><a xlink:title=" ">
<polygon fill="#e0e0e0" stroke="#999999" points="788.14,-74.5 738.39,-74.5 738.39,-55.25 788.14,-55.25 788.14,-74.5"/>
<text text-anchor="middle" x="763.27" y="-61" font-family="Helvetica,sans-Serif" font-size="10.00">iomanip</text>
</a>
</g>
</g>
<!-- Node16&#45;&gt;Node17 -->
<g id="edge18_Node000016_Node000017" class="edge">
<title>Node16&#45;&gt;Node17</title>
<g id="a_edge18_Node000016_Node000017"><a xlink:title=" ">
<path fill="none" stroke="#63b8ff" d="M878.69,-110.09C856.42,-101.56 822.77,-88.67 797.54,-79.01"/>
<polygon fill="#63b8ff" stroke="#63b8ff" points="798.96,-75.8 788.37,-75.49 796.46,-82.34 798.96,-75.8"/>
</a>
</g>
</g>
<!-- Node18 -->
<g id="Node000018" class="node">
<title>Node18</title>
<g id="a_Node000018"><a xlink:title=" ">
<polygon fill="#e0e0e0" stroke="#999999" points="864.27,-74.5 806.27,-74.5 806.27,-55.25 864.27,-55.25 864.27,-74.5"/>
<text text-anchor="middle" x="835.27" y="-61" font-family="Helvetica,sans-Serif" font-size="10.00">stdexcept</text>
</a>
</g>
</g>
<!-- Node16&#45;&gt;Node18 -->
<g id="edge19_Node000016_Node000018" class="edge">
<title>Node16&#45;&gt;Node18</title>
<g id="a_edge19_Node000016_Node000018"><a xlink:title=" ">
<path fill="none" stroke="#63b8ff" d="M890.9,-110.09C881.22,-102.4 867.07,-91.15 855.46,-81.93"/>
<polygon fill="#63b8ff" stroke="#63b8ff" points="857.66,-79.2 847.65,-75.72 853.3,-84.68 857.66,-79.2"/>
</a>
</g>
</g>
<!-- Node19 -->
<g id="Node000019" class="node">
<title>Node19</title>
<g id="a_Node000019"><a xlink:title=" ">
<polygon fill="#e0e0e0" stroke="#999999" points="922.27,-74.5 882.27,-74.5 882.27,-55.25 922.27,-55.25 922.27,-74.5"/>
<text text-anchor="middle" x="902.27" y="-61" font-family="Helvetica,sans-Serif" font-size="10.00">string</text>
</a>
</g>
</g>
<!-- Node16&#45;&gt;Node19 -->
<g id="edge20_Node000016_Node000019" class="edge">
<title>Node16&#45;&gt;Node19</title>
<g id="a_edge20_Node000016_Node000019"><a xlink:title=" ">
<path fill="none" stroke="#63b8ff" d="M902.27,-110.33C902.27,-103.82 902.27,-94.67 902.27,-86.37"/>
<polygon fill="#63b8ff" stroke="#63b8ff" points="905.77,-86.37 902.27,-76.37 898.77,-86.37 905.77,-86.37"/>
</a>
</g>
</g>
<!-- Node20 -->
<g id="Node000020" class="node">
<title>Node20</title>
<g id="a_Node000020"><a xlink:title=" ">
<polygon fill="#e0e0e0" stroke="#999999" points="984.52,-74.5 940.02,-74.5 940.02,-55.25 984.52,-55.25 984.52,-74.5"/>
<text text-anchor="middle" x="962.27" y="-61" font-family="Helvetica,sans-Serif" font-size="10.00">cstdlib</text>
</a>
</g>
</g>
<!-- Node16&#45;&gt;Node20 -->
<g id="edge23_Node000016_Node000020" class="edge">
<title>Node16&#45;&gt;Node20</title>
<g id="a_edge23_Node000016_Node000020"><a xlink:title=" ">
<path fill="none" stroke="#63b8ff" d="M912.44,-110.09C921.03,-102.47 933.53,-91.37 943.87,-82.2"/>
<polygon fill="#63b8ff" stroke="#63b8ff" points="945.95,-85.04 951.11,-75.78 941.3,-79.8 945.95,-85.04"/>
</a>
</g>
</g>
<!-- Node21 -->
<g id="Node000021" class="node">
<title>Node21</title>
<g id="a_Node000021"><a xlink:title=" ">
<polygon fill="#e0e0e0" stroke="#999999" points="1062.02,-74.5 1002.52,-74.5 1002.52,-55.25 1062.02,-55.25 1062.02,-74.5"/>
<text text-anchor="middle" x="1032.27" y="-61" font-family="Helvetica,sans-Serif" font-size="10.00">execinfo.h</text>
</a>
</g>
</g>
<!-- Node16&#45;&gt;Node21 -->
<g id="edge24_Node000016_Node000021" class="edge">
<title>Node16&#45;&gt;Node21</title>
<g id="a_edge24_Node000016_Node000021"><a xlink:title=" ">
<path fill="none" stroke="#63b8ff" d="M924.32,-110.09C944.96,-101.64 976.05,-88.9 999.57,-79.27"/>
<polygon fill="#63b8ff" stroke="#63b8ff" points="1000.78,-82.56 1008.7,-75.53 998.12,-76.08 1000.78,-82.56"/>
</a>
</g>
</g>
<!-- Node22 -->
<g id="Node000022" class="node">
<title>Node22</title>
<g id="a_Node000022"><a xlink:title=" ">
<polygon fill="#e0e0e0" stroke="#999999" points="1130.52,-74.5 1080.02,-74.5 1080.02,-55.25 1130.52,-55.25 1130.52,-74.5"/>
<text text-anchor="middle" x="1105.27" y="-61" font-family="Helvetica,sans-Serif" font-size="10.00">cxxabi.h</text>
</a>
</g>
</g>
<!-- Node16&#45;&gt;Node22 -->
<g id="edge25_Node000016_Node000022" class="edge">
<title>Node16&#45;&gt;Node22</title>
<g id="a_edge25_Node000016_Node000022"><a xlink:title=" ">
<path fill="none" stroke="#63b8ff" d="M930.92,-111.61C967.03,-102.14 1029.13,-85.85 1068.65,-75.48"/>
<polygon fill="#63b8ff" stroke="#63b8ff" points="1069.39,-78.9 1078.18,-72.98 1067.62,-72.13 1069.39,-78.9"/>
</a>
</g>
</g>
<!-- Node23 -->
<g id="Node000023" class="node">
<title>Node23</title>
<g id="a_Node000023"><a xlink:title=" ">
<polygon fill="#e0e0e0" stroke="#999999" points="1237.89,-74.5 1186.64,-74.5 1186.64,-55.25 1237.89,-55.25 1237.89,-74.5"/>
<text text-anchor="middle" x="1212.27" y="-61" font-family="Helvetica,sans-Serif" font-size="10.00">sstream</text>
</a>
</g>
</g>
<!-- Node16&#45;&gt;Node23 -->
<g id="edge26_Node000016_Node000023" class="edge">
<title>Node16&#45;&gt;Node23</title>
<g id="a_edge26_Node000016_Node000023"><a xlink:title=" ">
<path fill="none" stroke="#63b8ff" d="M930.7,-113.1C935.23,-112.2 939.87,-111.3 944.27,-110.5 1045.21,-92.18 1071.42,-93.32 1172.27,-74.5 1173.27,-74.31 1174.3,-74.12 1175.33,-73.92"/>
<polygon fill="#63b8ff" stroke="#63b8ff" points="1175.9,-77.37 1185,-71.96 1174.51,-70.51 1175.9,-77.37"/>
</a>
</g>
</g>
<!-- Node24 -->
<g id="Node000024" class="node">
<title>Node24</title>
<g id="a_Node000024"><a xlink:title=" ">
<polygon fill="#e0e0e0" stroke="#999999" points="1292.77,-74.5 1255.77,-74.5 1255.77,-55.25 1292.77,-55.25 1292.77,-74.5"/>
<text text-anchor="middle" x="1274.27" y="-61" font-family="Helvetica,sans-Serif" font-size="10.00">array</text>
</a>
</g>
</g>
<!-- Node16&#45;&gt;Node24 -->
<g id="edge27_Node000016_Node000024" class="edge">
<title>Node16&#45;&gt;Node24</title>
<g id="a_edge27_Node000016_Node000024"><a xlink:title=" ">
<path fill="none" stroke="#63b8ff" d="M930.67,-112.95C935.21,-112.07 939.86,-111.21 944.27,-110.5 1074.61,-89.41 1112.74,-102.53 1244.59,-74.72"/>
<polygon fill="#63b8ff" stroke="#63b8ff" points="1244.99,-78.22 1254.03,-72.69 1243.52,-71.37 1244.99,-78.22"/>
</a>
</g>
</g>
<!-- Node25 -->
<g id="Node000025" class="node">
<title>Node25</title>
<g id="a_Node000025"><a xlink:title=" ">
<polygon fill="#e0e0e0" stroke="#999999" points="1361.52,-74.5 1311.02,-74.5 1311.02,-55.25 1361.52,-55.25 1361.52,-74.5"/>
<text text-anchor="middle" x="1336.27" y="-61" font-family="Helvetica,sans-Serif" font-size="10.00">memory</text>
</a>
</g>
</g>
<!-- Node16&#45;&gt;Node25 -->
<g id="edge28_Node000016_Node000025" class="edge">
<title>Node16&#45;&gt;Node25</title>
<g id="a_edge28_Node000016_Node000025"><a xlink:title=" ">
<path fill="none" stroke="#63b8ff" d="M930.66,-112.88C935.2,-112.01 939.85,-111.17 944.27,-110.5 1098.8,-86.93 1142.81,-101.54 1299.74,-74.7"/>
<polygon fill="#63b8ff" stroke="#63b8ff" points="1299.99,-78.21 1309.24,-73.04 1298.79,-71.31 1299.99,-78.21"/>
</a>
</g>
</g>
<!-- Node26 -->
<g id="Node000026" class="node">
<title>Node26</title>
<g id="a_Node000026"><a xlink:title=" ">
<polygon fill="#e0e0e0" stroke="#999999" points="564.14,-74.5 514.39,-74.5 514.39,-55.25 564.14,-55.25 564.14,-74.5"/>
<text text-anchor="middle" x="539.27" y="-61" font-family="Helvetica,sans-Serif" font-size="10.00">unistd.h</text>
</a>
</g>
</g>
<!-- Node16&#45;&gt;Node26 -->
<g id="edge29_Node000016_Node000026" class="edge">
<title>Node16&#45;&gt;Node26</title>
<g id="a_edge29_Node000016_Node000026"><a xlink:title=" ">
<path fill="none" stroke="#63b8ff" d="M873.92,-116.38C818.53,-110.77 691.86,-96.82 575.66,-74.76"/>
<polygon fill="#63b8ff" stroke="#63b8ff" points="576.41,-71.34 565.93,-72.89 575.09,-78.22 576.41,-71.34"/>
</a>
</g>
</g>
<!-- Node27 -->
<g id="Node000027" class="node">
<title>Node27</title>
<g id="a_Node000027"><a xlink:title=" ">
<polygon fill="#e0e0e0" stroke="#999999" points="642.02,-74.5 582.52,-74.5 582.52,-55.25 642.02,-55.25 642.02,-74.5"/>
<text text-anchor="middle" x="612.27" y="-61" font-family="Helvetica,sans-Serif" font-size="10.00">sys/wait.h</text>
</a>
</g>
</g>
<!-- Node16&#45;&gt;Node27 -->
<g id="edge30_Node000016_Node000027" class="edge">
<title>Node16&#45;&gt;Node27</title>
<g id="a_edge30_Node000016_Node000027"><a xlink:title=" ">
<path fill="none" stroke="#63b8ff" d="M873.58,-114.43C828.85,-107.01 739.49,-91.85 653.73,-74.92"/>
<polygon fill="#63b8ff" stroke="#63b8ff" points="654.45,-71.5 643.96,-72.98 653.08,-78.36 654.45,-71.5"/>
</a>
</g>
</g>
<!-- Node28 -->
<g id="Node000028" class="node">
<title>Node28</title>
<g id="a_Node000028"><a xlink:title=" ">
<polygon fill="#e0e0e0" stroke="#999999" points="720.39,-74.5 660.14,-74.5 660.14,-55.25 720.39,-55.25 720.39,-74.5"/>
<text text-anchor="middle" x="690.27" y="-61" font-family="Helvetica,sans-Serif" font-size="10.00">sys/prctl.h</text>
</a>
</g>
</g>
<!-- Node16&#45;&gt;Node28 -->
<g id="edge31_Node000016_Node000028" class="edge">
<title>Node16&#45;&gt;Node28</title>
<g id="a_edge31_Node000016_Node000028"><a xlink:title=" ">
<path fill="none" stroke="#63b8ff" d="M873.67,-111.94C837.13,-102.76 773.59,-86.8 731.73,-76.29"/>
<polygon fill="#63b8ff" stroke="#63b8ff" points="732.82,-72.96 722.27,-73.91 731.11,-79.74 732.82,-72.96"/>
</a>
</g>
</g>
<!-- Node29&#45;&gt;Node2 -->
<g id="edge39_Node000029_Node000002" class="edge">
<title>Node29&#45;&gt;Node2</title>
<g id="a_edge39_Node000029_Node000002"><a xlink:title=" ">
<path fill="none" stroke="#63b8ff" d="M247.7,-110.09C235.86,-102.21 218.43,-90.61 204.4,-81.27"/>
<polygon fill="#63b8ff" stroke="#63b8ff" points="206.43,-78.42 196.16,-75.79 202.55,-84.25 206.43,-78.42"/>
</a>
</g>
</g>
<!-- Node29&#45;&gt;Node3 -->
<g id="edge33_Node000029_Node000003" class="edge">
<title>Node29&#45;&gt;Node3</title>
<g id="a_edge33_Node000029_Node000003"><a xlink:title=" ">
<path fill="none" stroke="#63b8ff" d="M284.9,-112.86C323.65,-102.45 397.36,-82 407.27,-74.5 422.52,-62.95 433.66,-43.95 440.44,-29.67"/>
<polygon fill="#63b8ff" stroke="#63b8ff" points="443.5,-31.41 444.34,-20.85 437.1,-28.59 443.5,-31.41"/>
</a>
</g>
</g>
<!-- Node29&#45;&gt;Node5 -->
<g id="edge34_Node000029_Node000005" class="edge">
<title>Node29&#45;&gt;Node5</title>
<g id="a_edge34_Node000029_Node000005"><a xlink:title=" ">
<path fill="none" stroke="#63b8ff" d="M237.49,-112.03C203.68,-101.71 145.11,-82.86 139.27,-74.5 129.06,-59.9 139.98,-41.14 151.22,-27.73"/>
<polygon fill="#63b8ff" stroke="#63b8ff" points="153.62,-30.29 157.78,-20.54 148.45,-25.57 153.62,-30.29"/>
</a>
</g>
</g>
<!-- Node29&#45;&gt;Node6 -->
<g id="edge35_Node000029_Node000006" class="edge">
<title>Node29&#45;&gt;Node6</title>
<g id="a_edge35_Node000029_Node000006"><a xlink:title=" ">
<path fill="none" stroke="#63b8ff" d="M285.11,-112.56C320.87,-102.47 384.91,-83.41 391.27,-74.5 407.43,-51.86 373.47,-32.72 345.39,-21.45"/>
<polygon fill="#63b8ff" stroke="#63b8ff" points="346.66,-18.19 336.06,-17.93 344.18,-24.74 346.66,-18.19"/>
</a>
</g>
</g>
<!-- Node29&#45;&gt;Node7 -->
<g id="edge36_Node000029_Node000007" class="edge">
<title>Node29&#45;&gt;Node7</title>
<g id="a_edge36_Node000029_Node000007"><a xlink:title=" ">
<path fill="none" stroke="#63b8ff" d="M237.49,-112.75C204.94,-103.73 148.56,-86.94 131.27,-74.5 114.63,-62.53 100.98,-43.32 92.35,-29.09"/>
<polygon fill="#63b8ff" stroke="#63b8ff" points="95.53,-27.61 87.51,-20.69 89.47,-31.1 95.53,-27.61"/>
</a>
</g>
</g>
<!-- Node30 -->
<g id="Node000030" class="node">
<title>Node30</title>
<g id="a_Node000030"><a xlink:title=" ">
<polygon fill="#e0e0e0" stroke="#999999" points="382.52,-74.5 308.02,-74.5 308.02,-55.25 382.52,-55.25 382.52,-74.5"/>
<text text-anchor="middle" x="345.27" y="-61" font-family="Helvetica,sans-Serif" font-size="10.00">TVirtualPad.h</text>
</a>
</g>
</g>
<!-- Node29&#45;&gt;Node30 -->
<g id="edge37_Node000029_Node000030" class="edge">
<title>Node29&#45;&gt;Node30</title>
<g id="a_edge37_Node000029_Node000030"><a xlink:title=" ">
<path fill="none" stroke="#63b8ff" d="M275.52,-110.09C288.07,-102.14 306.6,-90.39 321.41,-81"/>
<polygon fill="#63b8ff" stroke="#63b8ff" points="323.1,-84.07 329.67,-75.76 319.35,-78.16 323.1,-84.07"/>
</a>
</g>
</g>
<!-- Node31 -->
<g id="Node000031" class="node">
<title>Node31</title>
<g id="a_Node000031"><a xlink:title=" ">
<polygon fill="#e0e0e0" stroke="#999999" points="289.89,-74.5 232.64,-74.5 232.64,-55.25 289.89,-55.25 289.89,-74.5"/>
<text text-anchor="middle" x="261.27" y="-61" font-family="Helvetica,sans-Serif" font-size="10.00">TFrame.h</text>
</a>
</g>
</g>
<!-- Node29&#45;&gt;Node31 -->
<g id="edge38_Node000029_Node000031" class="edge">
<title>Node29&#45;&gt;Node31</title>
<g id="a_edge38_Node000029_Node000031"><a xlink:title=" ">
<path fill="none" stroke="#63b8ff" d="M261.27,-110.33C261.27,-103.82 261.27,-94.67 261.27,-86.37"/>
<polygon fill="#63b8ff" stroke="#63b8ff" points="264.77,-86.37 261.27,-76.37 257.77,-86.37 264.77,-86.37"/>
</a>
</g>
</g>
<!-- Node32&#45;&gt;Node11 -->
<g id="edge41_Node000032_Node000011" class="edge">
<title>Node32&#45;&gt;Node11</title>
<g id="a_edge41_Node000032_Node000011"><a xlink:title=" ">
<path fill="none" stroke="#63b8ff" d="M101.36,-165.34C89.1,-157.39 71.01,-145.64 56.56,-136.25"/>
<polygon fill="#63b8ff" stroke="#63b8ff" points="58.81,-133.54 48.51,-131.03 54.99,-139.41 58.81,-133.54"/>
</a>
</g>
</g>
</g>
</svg>
