<?xml version="1.0" encoding="UTF-8" standalone="no"?>
<!DOCTYPE svg PUBLIC "-//W3C//DTD SVG 1.1//EN"
 "http://www.w3.org/Graphics/SVG/1.1/DTD/svg11.dtd">
<!-- Generated by graphviz version 12.2.0 (20241103.1931)
 -->
<!-- Title: GPeak.cxx Pages: 1 -->
<svg width="1953pt" height="193pt"
 viewBox="0.00 0.00 1952.88 193.00" xmlns="http://www.w3.org/2000/svg" xmlns:xlink="http://www.w3.org/1999/xlink">
<g id="graph0" class="graph" transform="scale(1 1) rotate(0) translate(4 189)">
<title>GPeak.cxx</title>
<!-- Node1 -->
<g id="Node000001" class="node">
<title>Node1</title>
<g id="a_Node000001"><a xlink:title=" ">
<polygon fill="#999999" stroke="#666666" points="371,-185 308.5,-185 308.5,-165.75 371,-165.75 371,-185"/>
<text text-anchor="middle" x="339.75" y="-171.5" font-family="Helvetica,sans-Serif" font-size="10.00">GPeak.cxx</text>
</a>
</g>
</g>
<!-- Node2 -->
<g id="Node000002" class="node">
<title>Node2</title>
<g id="a_Node000002"><a xlink:href="_g_peak_8h.html" target="_top" xlink:title=" ">
<polygon fill="white" stroke="#666666" points="53.5,-129.75 0,-129.75 0,-110.5 53.5,-110.5 53.5,-129.75"/>
<text text-anchor="middle" x="26.75" y="-116.25" font-family="Helvetica,sans-Serif" font-size="10.00">GPeak.h</text>
</a>
</g>
</g>
<!-- Node1&#45;&gt;Node2 -->
<g id="edge1_Node000001_Node000002" class="edge">
<title>Node1&#45;&gt;Node2</title>
<g id="a_edge1_Node000001_Node000002"><a xlink:title=" ">
<path fill="none" stroke="#63b8ff" d="M308.04,-170.06C258.39,-163.13 159.06,-148.59 64.98,-130.06"/>
<polygon fill="#63b8ff" stroke="#63b8ff" points="65.8,-126.66 55.31,-128.14 64.44,-133.52 65.8,-126.66"/>
</a>
</g>
</g>
<!-- Node4 -->
<g id="Node000004" class="node">
<title>Node4</title>
<g id="a_Node000004"><a xlink:title=" ">
<polygon fill="#e0e0e0" stroke="#999999" points="127.62,-129.75 71.88,-129.75 71.88,-110.5 127.62,-110.5 127.62,-129.75"/>
<text text-anchor="middle" x="99.75" y="-116.25" font-family="Helvetica,sans-Serif" font-size="10.00">TGraph.h</text>
</a>
</g>
</g>
<!-- Node1&#45;&gt;Node4 -->
<g id="edge3_Node000001_Node000004" class="edge">
<title>Node1&#45;&gt;Node4</title>
<g id="a_edge3_Node000001_Node000004"><a xlink:title=" ">
<path fill="none" stroke="#63b8ff" d="M308.08,-167.54C270.22,-159.35 204.67,-145.07 138.99,-130.24"/>
<polygon fill="#63b8ff" stroke="#63b8ff" points="140.03,-126.88 129.5,-128.09 138.48,-133.71 140.03,-126.88"/>
</a>
</g>
</g>
<!-- Node5 -->
<g id="Node000005" class="node">
<title>Node5</title>
<g id="a_Node000005"><a xlink:title=" ">
<polygon fill="#e0e0e0" stroke="#999999" points="225.62,-129.75 145.88,-129.75 145.88,-110.5 225.62,-110.5 225.62,-129.75"/>
<text text-anchor="middle" x="185.75" y="-116.25" font-family="Helvetica,sans-Serif" font-size="10.00">TVirtualFitter.h</text>
</a>
</g>
</g>
<!-- Node1&#45;&gt;Node5 -->
<g id="edge4_Node000001_Node000005" class="edge">
<title>Node1&#45;&gt;Node5</title>
<g id="a_edge4_Node000001_Node000005"><a xlink:title=" ">
<path fill="none" stroke="#63b8ff" d="M313.63,-165.34C288.63,-156.7 250.67,-143.57 222.6,-133.87"/>
<polygon fill="#63b8ff" stroke="#63b8ff" points="224.03,-130.66 213.43,-130.7 221.74,-137.27 224.03,-130.66"/>
</a>
</g>
</g>
<!-- Node6 -->
<g id="Node000006" class="node">
<title>Node6</title>
<g id="a_Node000006"><a xlink:title=" ">
<polygon fill="#e0e0e0" stroke="#999999" points="312,-129.75 243.5,-129.75 243.5,-110.5 312,-110.5 312,-129.75"/>
<text text-anchor="middle" x="277.75" y="-116.25" font-family="Helvetica,sans-Serif" font-size="10.00">TFitResult.h</text>
</a>
</g>
</g>
<!-- Node1&#45;&gt;Node6 -->
<g id="edge5_Node000001_Node000006" class="edge">
<title>Node1&#45;&gt;Node6</title>
<g id="a_edge5_Node000001_Node000006"><a xlink:title=" ">
<path fill="none" stroke="#63b8ff" d="M329.23,-165.34C320.36,-157.72 307.44,-146.62 296.76,-137.45"/>
<polygon fill="#63b8ff" stroke="#63b8ff" points="299.13,-134.87 289.26,-131.01 294.57,-140.18 299.13,-134.87"/>
</a>
</g>
</g>
<!-- Node7 -->
<g id="Node000007" class="node">
<title>Node7</title>
<g id="a_Node000007"><a xlink:title=" ">
<polygon fill="#e0e0e0" stroke="#999999" points="316.38,-74.5 235.12,-74.5 235.12,-55.25 316.38,-55.25 316.38,-74.5"/>
<text text-anchor="middle" x="275.75" y="-61" font-family="Helvetica,sans-Serif" font-size="10.00">TFitResultPtr.h</text>
</a>
</g>
</g>
<!-- Node1&#45;&gt;Node7 -->
<g id="edge6_Node000001_Node000007" class="edge">
<title>Node1&#45;&gt;Node7</title>
<g id="a_edge6_Node000001_Node000007"><a xlink:title=" ">
<path fill="none" stroke="#63b8ff" d="M338.55,-165.55C336.49,-152.69 331.45,-128.37 320.75,-110.5 314.38,-99.85 304.88,-89.92 296.25,-82.14"/>
<polygon fill="#63b8ff" stroke="#63b8ff" points="298.77,-79.69 288.89,-75.86 294.23,-85.02 298.77,-79.69"/>
</a>
</g>
</g>
<!-- Node8 -->
<g id="Node000008" class="node">
<title>Node8</title>
<g id="a_Node000008"><a xlink:href="_globals_8h.html" target="_top" xlink:title=" ">
<polygon fill="white" stroke="#666666" points="840,-129.75 783.5,-129.75 783.5,-110.5 840,-110.5 840,-129.75"/>
<text text-anchor="middle" x="811.75" y="-116.25" font-family="Helvetica,sans-Serif" font-size="10.00">Globals.h</text>
</a>
</g>
</g>
<!-- Node1&#45;&gt;Node8 -->
<g id="edge7_Node000001_Node000008" class="edge">
<title>Node1&#45;&gt;Node8</title>
<g id="a_edge7_Node000001_Node000008"><a xlink:title=" ">
<path fill="none" stroke="#63b8ff" d="M371.45,-170.8C454.82,-161.39 680.06,-135.98 771.93,-125.62"/>
<polygon fill="#63b8ff" stroke="#63b8ff" points="772.17,-129.11 781.71,-124.51 771.38,-122.16 772.17,-129.11"/>
</a>
</g>
</g>
<!-- Node23 -->
<g id="Node000023" class="node">
<title>Node23</title>
<g id="a_Node000023"><a xlink:href="_g_root_functions_8h.html" target="_top" xlink:title=" ">
<polygon fill="white" stroke="#666666" points="1148.75,-129.75 1054.75,-129.75 1054.75,-110.5 1148.75,-110.5 1148.75,-129.75"/>
<text text-anchor="middle" x="1101.75" y="-116.25" font-family="Helvetica,sans-Serif" font-size="10.00">GRootFunctions.h</text>
</a>
</g>
</g>
<!-- Node1&#45;&gt;Node23 -->
<g id="edge22_Node000001_Node000023" class="edge">
<title>Node1&#45;&gt;Node23</title>
<g id="a_edge22_Node000001_Node000023"><a xlink:title=" ">
<path fill="none" stroke="#63b8ff" d="M371.04,-172.19C486.63,-164.11 890.72,-135.87 1043.05,-125.23"/>
<polygon fill="#63b8ff" stroke="#63b8ff" points="1043.19,-128.73 1052.92,-124.54 1042.7,-121.74 1043.19,-128.73"/>
</a>
</g>
</g>
<!-- Node25 -->
<g id="Node000025" class="node">
<title>Node25</title>
<g id="a_Node000025"><a xlink:href="_t_g_r_s_i_functions_8h.html" target="_top" xlink:title=" ">
<polygon fill="white" stroke="#666666" points="463.88,-129.75 367.62,-129.75 367.62,-110.5 463.88,-110.5 463.88,-129.75"/>
<text text-anchor="middle" x="415.75" y="-116.25" font-family="Helvetica,sans-Serif" font-size="10.00">TGRSIFunctions.h</text>
</a>
</g>
</g>
<!-- Node1&#45;&gt;Node25 -->
<g id="edge24_Node000001_Node000025" class="edge">
<title>Node1&#45;&gt;Node25</title>
<g id="a_edge24_Node000001_Node000025"><a xlink:title=" ">
<path fill="none" stroke="#63b8ff" d="M352.64,-165.34C363.78,-157.54 380.12,-146.09 393.39,-136.79"/>
<polygon fill="#63b8ff" stroke="#63b8ff" points="395.37,-139.68 401.55,-131.07 391.36,-133.94 395.37,-139.68"/>
</a>
</g>
</g>
<!-- Node27 -->
<g id="Node000027" class="node">
<title>Node27</title>
<g id="a_Node000027"><a xlink:href="_g_canvas_8h.html" target="_top" xlink:title=" ">
<polygon fill="white" stroke="#666666" points="1625.75,-129.75 1561.75,-129.75 1561.75,-110.5 1625.75,-110.5 1625.75,-129.75"/>
<text text-anchor="middle" x="1593.75" y="-116.25" font-family="Helvetica,sans-Serif" font-size="10.00">GCanvas.h</text>
</a>
</g>
</g>
<!-- Node1&#45;&gt;Node27 -->
<g id="edge28_Node000001_Node000027" class="edge">
<title>Node1&#45;&gt;Node27</title>
<g id="a_edge28_Node000001_Node000027"><a xlink:title=" ">
<path fill="none" stroke="#63b8ff" d="M371.38,-173.03C541.96,-165.79 1351.96,-131.39 1549.99,-122.98"/>
<polygon fill="#63b8ff" stroke="#63b8ff" points="1550,-126.49 1559.84,-122.57 1549.7,-119.49 1550,-126.49"/>
</a>
</g>
</g>
<!-- Node3 -->
<g id="Node000003" class="node">
<title>Node3</title>
<g id="a_Node000003"><a xlink:title=" ">
<polygon fill="#e0e0e0" stroke="#999999" points="47.12,-74.5 6.38,-74.5 6.38,-55.25 47.12,-55.25 47.12,-74.5"/>
<text text-anchor="middle" x="26.75" y="-61" font-family="Helvetica,sans-Serif" font-size="10.00">TF1.h</text>
</a>
</g>
</g>
<!-- Node2&#45;&gt;Node3 -->
<g id="edge2_Node000002_Node000003" class="edge">
<title>Node2&#45;&gt;Node3</title>
<g id="a_edge2_Node000002_Node000003"><a xlink:title=" ">
<path fill="none" stroke="#63b8ff" d="M26.75,-110.33C26.75,-103.82 26.75,-94.67 26.75,-86.37"/>
<polygon fill="#63b8ff" stroke="#63b8ff" points="30.25,-86.37 26.75,-76.37 23.25,-86.37 30.25,-86.37"/>
</a>
</g>
</g>
<!-- Node9 -->
<g id="Node000009" class="node">
<title>Node9</title>
<g id="a_Node000009"><a xlink:title=" ">
<polygon fill="#e0e0e0" stroke="#999999" points="1406.5,-74.5 1353,-74.5 1353,-55.25 1406.5,-55.25 1406.5,-74.5"/>
<text text-anchor="middle" x="1379.75" y="-61" font-family="Helvetica,sans-Serif" font-size="10.00">iostream</text>
</a>
</g>
</g>
<!-- Node8&#45;&gt;Node9 -->
<g id="edge8_Node000008_Node000009" class="edge">
<title>Node8&#45;&gt;Node9</title>
<g id="a_edge8_Node000008_Node000009"><a xlink:title=" ">
<path fill="none" stroke="#63b8ff" d="M840.48,-118.24C919.12,-115.51 1144.6,-105.52 1341.57,-74.59"/>
<polygon fill="#63b8ff" stroke="#63b8ff" points="1341.89,-78.09 1351.22,-73.06 1340.79,-71.17 1341.89,-78.09"/>
</a>
</g>
</g>
<!-- Node10 -->
<g id="Node000010" class="node">
<title>Node10</title>
<g id="a_Node000010"><a xlink:title=" ">
<polygon fill="#e0e0e0" stroke="#999999" points="1128.62,-74.5 1078.88,-74.5 1078.88,-55.25 1128.62,-55.25 1128.62,-74.5"/>
<text text-anchor="middle" x="1103.75" y="-61" font-family="Helvetica,sans-Serif" font-size="10.00">iomanip</text>
</a>
</g>
</g>
<!-- Node8&#45;&gt;Node10 -->
<g id="edge9_Node000008_Node000010" class="edge">
<title>Node8&#45;&gt;Node10</title>
<g id="a_edge9_Node000008_Node000010"><a xlink:title=" ">
<path fill="none" stroke="#63b8ff" d="M840.14,-114.95C885.89,-108.06 978.98,-93.4 1067.5,-74.84"/>
<polygon fill="#63b8ff" stroke="#63b8ff" points="1068.01,-78.31 1077.07,-72.81 1066.56,-71.46 1068.01,-78.31"/>
</a>
</g>
</g>
<!-- Node11 -->
<g id="Node000011" class="node">
<title>Node11</title>
<g id="a_Node000011"><a xlink:title=" ">
<polygon fill="#e0e0e0" stroke="#999999" points="1204.75,-74.5 1146.75,-74.5 1146.75,-55.25 1204.75,-55.25 1204.75,-74.5"/>
<text text-anchor="middle" x="1175.75" y="-61" font-family="Helvetica,sans-Serif" font-size="10.00">stdexcept</text>
</a>
</g>
</g>
<!-- Node8&#45;&gt;Node11 -->
<g id="edge10_Node000008_Node000011" class="edge">
<title>Node8&#45;&gt;Node11</title>
<g id="a_edge10_Node000008_Node000011"><a xlink:title=" ">
<path fill="none" stroke="#63b8ff" d="M840.23,-116.07C895.27,-109.99 1020.29,-95.31 1135.25,-74.82"/>
<polygon fill="#63b8ff" stroke="#63b8ff" points="1135.63,-78.3 1144.85,-73.08 1134.39,-71.42 1135.63,-78.3"/>
</a>
</g>
</g>
<!-- Node12 -->
<g id="Node000012" class="node">
<title>Node12</title>
<g id="a_Node000012"><a xlink:title=" ">
<polygon fill="#e0e0e0" stroke="#999999" points="435.75,-74.5 395.75,-74.5 395.75,-55.25 435.75,-55.25 435.75,-74.5"/>
<text text-anchor="middle" x="415.75" y="-61" font-family="Helvetica,sans-Serif" font-size="10.00">string</text>
</a>
</g>
</g>
<!-- Node8&#45;&gt;Node12 -->
<g id="edge11_Node000008_Node000012" class="edge">
<title>Node8&#45;&gt;Node12</title>
<g id="a_edge11_Node000008_Node000012"><a xlink:title=" ">
<path fill="none" stroke="#63b8ff" d="M783.4,-117.31C723.13,-113.1 577.73,-101.12 447.21,-74.69"/>
<polygon fill="#63b8ff" stroke="#63b8ff" points="448.22,-71.33 437.72,-72.74 446.81,-78.19 448.22,-71.33"/>
</a>
</g>
</g>
<!-- Node13 -->
<g id="Node000013" class="node">
<title>Node13</title>
<g id="a_Node000013"><a xlink:title=" ">
<polygon fill="#e0e0e0" stroke="#999999" points="1364.88,-19.25 1322.62,-19.25 1322.62,0 1364.88,0 1364.88,-19.25"/>
<text text-anchor="middle" x="1343.75" y="-5.75" font-family="Helvetica,sans-Serif" font-size="10.00">cstdio</text>
</a>
</g>
</g>
<!-- Node8&#45;&gt;Node13 -->
<g id="edge12_Node000008_Node000013" class="edge">
<title>Node8&#45;&gt;Node13</title>
<g id="a_edge12_Node000008_Node000013"><a xlink:title=" ">
<path fill="none" stroke="#63b8ff" d="M840.21,-119.41C906.96,-119.36 1078.15,-114.92 1213.75,-74.5 1231.89,-69.09 1234.79,-63.66 1251.75,-55.25 1272.79,-44.82 1296.65,-33.25 1314.8,-24.51"/>
<polygon fill="#63b8ff" stroke="#63b8ff" points="1316.17,-27.74 1323.66,-20.25 1313.13,-21.43 1316.17,-27.74"/>
</a>
</g>
</g>
<!-- Node14 -->
<g id="Node000014" class="node">
<title>Node14</title>
<g id="a_Node000014"><a xlink:title=" ">
<polygon fill="#e0e0e0" stroke="#999999" points="498,-74.5 453.5,-74.5 453.5,-55.25 498,-55.25 498,-74.5"/>
<text text-anchor="middle" x="475.75" y="-61" font-family="Helvetica,sans-Serif" font-size="10.00">cstdlib</text>
</a>
</g>
</g>
<!-- Node8&#45;&gt;Node14 -->
<g id="edge13_Node000008_Node000014" class="edge">
<title>Node8&#45;&gt;Node14</title>
<g id="a_edge13_Node000008_Node000014"><a xlink:title=" ">
<path fill="none" stroke="#63b8ff" d="M783.37,-116.18C731.06,-110.5 615.78,-96.79 509.59,-74.88"/>
<polygon fill="#63b8ff" stroke="#63b8ff" points="510.34,-71.46 499.84,-72.83 508.91,-78.31 510.34,-71.46"/>
</a>
</g>
</g>
<!-- Node15 -->
<g id="Node000015" class="node">
<title>Node15</title>
<g id="a_Node000015"><a xlink:title=" ">
<polygon fill="#e0e0e0" stroke="#999999" points="575.5,-74.5 516,-74.5 516,-55.25 575.5,-55.25 575.5,-74.5"/>
<text text-anchor="middle" x="545.75" y="-61" font-family="Helvetica,sans-Serif" font-size="10.00">execinfo.h</text>
</a>
</g>
</g>
<!-- Node8&#45;&gt;Node15 -->
<g id="edge14_Node000008_Node000015" class="edge">
<title>Node8&#45;&gt;Node15</title>
<g id="a_edge14_Node000008_Node000015"><a xlink:title=" ">
<path fill="none" stroke="#63b8ff" d="M783.04,-113.71C741.94,-105.9 663.7,-90.86 587.23,-74.98"/>
<polygon fill="#63b8ff" stroke="#63b8ff" points="587.95,-71.55 577.45,-72.94 586.53,-78.41 587.95,-71.55"/>
</a>
</g>
</g>
<!-- Node16 -->
<g id="Node000016" class="node">
<title>Node16</title>
<g id="a_Node000016"><a xlink:title=" ">
<polygon fill="#e0e0e0" stroke="#999999" points="644,-74.5 593.5,-74.5 593.5,-55.25 644,-55.25 644,-74.5"/>
<text text-anchor="middle" x="618.75" y="-61" font-family="Helvetica,sans-Serif" font-size="10.00">cxxabi.h</text>
</a>
</g>
</g>
<!-- Node8&#45;&gt;Node16 -->
<g id="edge15_Node000008_Node000016" class="edge">
<title>Node8&#45;&gt;Node16</title>
<g id="a_edge15_Node000008_Node000016"><a xlink:title=" ">
<path fill="none" stroke="#63b8ff" d="M783.27,-111.27C749.25,-101.88 692.29,-86.16 655.11,-75.91"/>
<polygon fill="#63b8ff" stroke="#63b8ff" points="656.29,-72.6 645.72,-73.32 654.43,-79.35 656.29,-72.6"/>
</a>
</g>
</g>
<!-- Node17 -->
<g id="Node000017" class="node">
<title>Node17</title>
<g id="a_Node000017"><a xlink:title=" ">
<polygon fill="#e0e0e0" stroke="#999999" points="713.38,-74.5 662.12,-74.5 662.12,-55.25 713.38,-55.25 713.38,-74.5"/>
<text text-anchor="middle" x="687.75" y="-61" font-family="Helvetica,sans-Serif" font-size="10.00">sstream</text>
</a>
</g>
</g>
<!-- Node8&#45;&gt;Node17 -->
<g id="edge16_Node000008_Node000017" class="edge">
<title>Node8&#45;&gt;Node17</title>
<g id="a_edge16_Node000008_Node000017"><a xlink:title=" ">
<path fill="none" stroke="#63b8ff" d="M790.72,-110.09C771.12,-101.68 741.64,-89.02 719.24,-79.4"/>
<polygon fill="#63b8ff" stroke="#63b8ff" points="720.85,-76.28 710.28,-75.55 718.09,-82.71 720.85,-76.28"/>
</a>
</g>
</g>
<!-- Node18 -->
<g id="Node000018" class="node">
<title>Node18</title>
<g id="a_Node000018"><a xlink:title=" ">
<polygon fill="#e0e0e0" stroke="#999999" points="768.25,-74.5 731.25,-74.5 731.25,-55.25 768.25,-55.25 768.25,-74.5"/>
<text text-anchor="middle" x="749.75" y="-61" font-family="Helvetica,sans-Serif" font-size="10.00">array</text>
</a>
</g>
</g>
<!-- Node8&#45;&gt;Node18 -->
<g id="edge17_Node000008_Node000018" class="edge">
<title>Node8&#45;&gt;Node18</title>
<g id="a_edge17_Node000008_Node000018"><a xlink:title=" ">
<path fill="none" stroke="#63b8ff" d="M801.23,-110.09C792.36,-102.47 779.44,-91.37 768.76,-82.2"/>
<polygon fill="#63b8ff" stroke="#63b8ff" points="771.13,-79.62 761.26,-75.76 766.57,-84.93 771.13,-79.62"/>
</a>
</g>
</g>
<!-- Node19 -->
<g id="Node000019" class="node">
<title>Node19</title>
<g id="a_Node000019"><a xlink:title=" ">
<polygon fill="#e0e0e0" stroke="#999999" points="837,-74.5 786.5,-74.5 786.5,-55.25 837,-55.25 837,-74.5"/>
<text text-anchor="middle" x="811.75" y="-61" font-family="Helvetica,sans-Serif" font-size="10.00">memory</text>
</a>
</g>
</g>
<!-- Node8&#45;&gt;Node19 -->
<g id="edge18_Node000008_Node000019" class="edge">
<title>Node8&#45;&gt;Node19</title>
<g id="a_edge18_Node000008_Node000019"><a xlink:title=" ">
<path fill="none" stroke="#63b8ff" d="M811.75,-110.33C811.75,-103.82 811.75,-94.67 811.75,-86.37"/>
<polygon fill="#63b8ff" stroke="#63b8ff" points="815.25,-86.37 811.75,-76.37 808.25,-86.37 815.25,-86.37"/>
</a>
</g>
</g>
<!-- Node20 -->
<g id="Node000020" class="node">
<title>Node20</title>
<g id="a_Node000020"><a xlink:title=" ">
<polygon fill="#e0e0e0" stroke="#999999" points="904.62,-74.5 854.88,-74.5 854.88,-55.25 904.62,-55.25 904.62,-74.5"/>
<text text-anchor="middle" x="879.75" y="-61" font-family="Helvetica,sans-Serif" font-size="10.00">unistd.h</text>
</a>
</g>
</g>
<!-- Node8&#45;&gt;Node20 -->
<g id="edge19_Node000008_Node000020" class="edge">
<title>Node8&#45;&gt;Node20</title>
<g id="a_edge19_Node000008_Node000020"><a xlink:title=" ">
<path fill="none" stroke="#63b8ff" d="M823.29,-110.09C833.21,-102.32 847.76,-90.92 859.61,-81.65"/>
<polygon fill="#63b8ff" stroke="#63b8ff" points="861.48,-84.63 867.19,-75.71 857.16,-79.12 861.48,-84.63"/>
</a>
</g>
</g>
<!-- Node21 -->
<g id="Node000021" class="node">
<title>Node21</title>
<g id="a_Node000021"><a xlink:title=" ">
<polygon fill="#e0e0e0" stroke="#999999" points="982.5,-74.5 923,-74.5 923,-55.25 982.5,-55.25 982.5,-74.5"/>
<text text-anchor="middle" x="952.75" y="-61" font-family="Helvetica,sans-Serif" font-size="10.00">sys/wait.h</text>
</a>
</g>
</g>
<!-- Node8&#45;&gt;Node21 -->
<g id="edge20_Node000008_Node000021" class="edge">
<title>Node8&#45;&gt;Node21</title>
<g id="a_edge20_Node000008_Node000021"><a xlink:title=" ">
<path fill="none" stroke="#63b8ff" d="M835.67,-110.09C858.25,-101.56 892.39,-88.67 917.98,-79.01"/>
<polygon fill="#63b8ff" stroke="#63b8ff" points="919.18,-82.29 927.3,-75.49 916.71,-75.75 919.18,-82.29"/>
</a>
</g>
</g>
<!-- Node22 -->
<g id="Node000022" class="node">
<title>Node22</title>
<g id="a_Node000022"><a xlink:title=" ">
<polygon fill="#e0e0e0" stroke="#999999" points="1060.88,-74.5 1000.62,-74.5 1000.62,-55.25 1060.88,-55.25 1060.88,-74.5"/>
<text text-anchor="middle" x="1030.75" y="-61" font-family="Helvetica,sans-Serif" font-size="10.00">sys/prctl.h</text>
</a>
</g>
</g>
<!-- Node8&#45;&gt;Node22 -->
<g id="edge21_Node000008_Node000022" class="edge">
<title>Node8&#45;&gt;Node22</title>
<g id="a_edge21_Node000008_Node000022"><a xlink:title=" ">
<path fill="none" stroke="#63b8ff" d="M840.38,-112.16C878.38,-102.92 945.72,-86.55 989.28,-75.96"/>
<polygon fill="#63b8ff" stroke="#63b8ff" points="989.99,-79.39 998.88,-73.62 988.34,-72.59 989.99,-79.39"/>
</a>
</g>
</g>
<!-- Node24 -->
<g id="Node000024" class="node">
<title>Node24</title>
<g id="a_Node000024"><a xlink:title=" ">
<polygon fill="#e0e0e0" stroke="#999999" points="1334.62,-74.5 1260.88,-74.5 1260.88,-55.25 1334.62,-55.25 1334.62,-74.5"/>
<text text-anchor="middle" x="1297.75" y="-61" font-family="Helvetica,sans-Serif" font-size="10.00">RtypesCore.h</text>
</a>
</g>
</g>
<!-- Node23&#45;&gt;Node24 -->
<g id="edge23_Node000023_Node000024" class="edge">
<title>Node23&#45;&gt;Node24</title>
<g id="a_edge23_Node000023_Node000024"><a xlink:title=" ">
<path fill="none" stroke="#63b8ff" d="M1135,-110.09C1167.66,-101.22 1217.69,-87.62 1253.66,-77.85"/>
<polygon fill="#63b8ff" stroke="#63b8ff" points="1254.15,-81.35 1262.88,-75.35 1252.31,-74.59 1254.15,-81.35"/>
</a>
</g>
</g>
<!-- Node25&#45;&gt;Node7 -->
<g id="edge27_Node000025_Node000007" class="edge">
<title>Node25&#45;&gt;Node7</title>
<g id="a_edge27_Node000025_Node000007"><a xlink:title=" ">
<path fill="none" stroke="#63b8ff" d="M392,-110.09C369.58,-101.56 335.69,-88.67 310.28,-79.01"/>
<polygon fill="#63b8ff" stroke="#63b8ff" points="311.62,-75.77 301.03,-75.49 309.13,-82.32 311.62,-75.77"/>
</a>
</g>
</g>
<!-- Node25&#45;&gt;Node12 -->
<g id="edge25_Node000025_Node000012" class="edge">
<title>Node25&#45;&gt;Node12</title>
<g id="a_edge25_Node000025_Node000012"><a xlink:title=" ">
<path fill="none" stroke="#63b8ff" d="M415.75,-110.33C415.75,-103.82 415.75,-94.67 415.75,-86.37"/>
<polygon fill="#63b8ff" stroke="#63b8ff" points="419.25,-86.37 415.75,-76.37 412.25,-86.37 419.25,-86.37"/>
</a>
</g>
</g>
<!-- Node26 -->
<g id="Node000026" class="node">
<title>Node26</title>
<g id="a_Node000026"><a xlink:title=" ">
<polygon fill="#e0e0e0" stroke="#999999" points="377.25,-74.5 334.25,-74.5 334.25,-55.25 377.25,-55.25 377.25,-74.5"/>
<text text-anchor="middle" x="355.75" y="-61" font-family="Helvetica,sans-Serif" font-size="10.00">cmath</text>
</a>
</g>
</g>
<!-- Node25&#45;&gt;Node26 -->
<g id="edge26_Node000025_Node000026" class="edge">
<title>Node25&#45;&gt;Node26</title>
<g id="a_edge26_Node000025_Node000026"><a xlink:title=" ">
<path fill="none" stroke="#63b8ff" d="M405.57,-110.09C396.99,-102.47 384.48,-91.37 374.15,-82.2"/>
<polygon fill="#63b8ff" stroke="#63b8ff" points="376.71,-79.8 366.91,-75.78 372.07,-85.04 376.71,-79.8"/>
</a>
</g>
</g>
<!-- Node27&#45;&gt;Node9 -->
<g id="edge40_Node000027_Node000009" class="edge">
<title>Node27&#45;&gt;Node9</title>
<g id="a_edge40_Node000027_Node000009"><a xlink:title=" ">
<path fill="none" stroke="#63b8ff" d="M1561.71,-111.15C1523.32,-101.6 1459.05,-85.61 1418.07,-75.41"/>
<polygon fill="#63b8ff" stroke="#63b8ff" points="1418.93,-72.02 1408.38,-73 1417.24,-78.81 1418.93,-72.02"/>
</a>
</g>
</g>
<!-- Node28 -->
<g id="Node000028" class="node">
<title>Node28</title>
<g id="a_Node000028"><a xlink:href="_g_h2_base_8h.html" target="_top" xlink:title=" ">
<polygon fill="white" stroke="#666666" points="1626.88,-74.5 1560.62,-74.5 1560.62,-55.25 1626.88,-55.25 1626.88,-74.5"/>
<text text-anchor="middle" x="1593.75" y="-61" font-family="Helvetica,sans-Serif" font-size="10.00">GH2Base.h</text>
</a>
</g>
</g>
<!-- Node27&#45;&gt;Node28 -->
<g id="edge29_Node000027_Node000028" class="edge">
<title>Node27&#45;&gt;Node28</title>
<g id="a_edge29_Node000027_Node000028"><a xlink:title=" ">
<path fill="none" stroke="#63b8ff" d="M1593.75,-110.33C1593.75,-103.82 1593.75,-94.67 1593.75,-86.37"/>
<polygon fill="#63b8ff" stroke="#63b8ff" points="1597.25,-86.37 1593.75,-76.37 1590.25,-86.37 1597.25,-86.37"/>
</a>
</g>
</g>
<!-- Node32 -->
<g id="Node000032" class="node">
<title>Node32</title>
<g id="a_Node000032"><a xlink:title=" ">
<polygon fill="#e0e0e0" stroke="#999999" points="1702.38,-74.5 1645.12,-74.5 1645.12,-55.25 1702.38,-55.25 1702.38,-74.5"/>
<text text-anchor="middle" x="1673.75" y="-61" font-family="Helvetica,sans-Serif" font-size="10.00">TROOT.h</text>
</a>
</g>
</g>
<!-- Node27&#45;&gt;Node32 -->
<g id="edge34_Node000027_Node000032" class="edge">
<title>Node27&#45;&gt;Node32</title>
<g id="a_edge34_Node000027_Node000032"><a xlink:title=" ">
<path fill="none" stroke="#63b8ff" d="M1607.32,-110.09C1619.16,-102.21 1636.59,-90.61 1650.62,-81.27"/>
<polygon fill="#63b8ff" stroke="#63b8ff" points="1652.47,-84.25 1658.85,-75.79 1648.59,-78.42 1652.47,-84.25"/>
</a>
</g>
</g>
<!-- Node33 -->
<g id="Node000033" class="node">
<title>Node33</title>
<g id="a_Node000033"><a xlink:title=" ">
<polygon fill="#e0e0e0" stroke="#999999" points="1783,-74.5 1720.5,-74.5 1720.5,-55.25 1783,-55.25 1783,-74.5"/>
<text text-anchor="middle" x="1751.75" y="-61" font-family="Helvetica,sans-Serif" font-size="10.00">TCanvas.h</text>
</a>
</g>
</g>
<!-- Node27&#45;&gt;Node33 -->
<g id="edge35_Node000027_Node000033" class="edge">
<title>Node27&#45;&gt;Node33</title>
<g id="a_edge35_Node000027_Node000033"><a xlink:title=" ">
<path fill="none" stroke="#63b8ff" d="M1620.55,-110.09C1646.2,-101.45 1685.14,-88.32 1713.94,-78.62"/>
<polygon fill="#63b8ff" stroke="#63b8ff" points="1715.02,-81.95 1723.38,-75.44 1712.79,-75.31 1715.02,-81.95"/>
</a>
</g>
</g>
<!-- Node34 -->
<g id="Node000034" class="node">
<title>Node34</title>
<g id="a_Node000034"><a xlink:title=" ">
<polygon fill="#e0e0e0" stroke="#999999" points="1884.12,-74.5 1801.38,-74.5 1801.38,-55.25 1884.12,-55.25 1884.12,-74.5"/>
<text text-anchor="middle" x="1842.75" y="-61" font-family="Helvetica,sans-Serif" font-size="10.00">TRootCanvas.h</text>
</a>
</g>
</g>
<!-- Node27&#45;&gt;Node34 -->
<g id="edge36_Node000027_Node000034" class="edge">
<title>Node27&#45;&gt;Node34</title>
<g id="a_edge36_Node000027_Node000034"><a xlink:title=" ">
<path fill="none" stroke="#63b8ff" d="M1626.05,-112.22C1667.55,-103.34 1740.17,-87.81 1789.81,-77.2"/>
<polygon fill="#63b8ff" stroke="#63b8ff" points="1790.43,-80.64 1799.48,-75.13 1788.97,-73.8 1790.43,-80.64"/>
</a>
</g>
</g>
<!-- Node35 -->
<g id="Node000035" class="node">
<title>Node35</title>
<g id="a_Node000035"><a xlink:title=" ">
<polygon fill="#e0e0e0" stroke="#999999" points="1944.88,-74.5 1902.62,-74.5 1902.62,-55.25 1944.88,-55.25 1944.88,-74.5"/>
<text text-anchor="middle" x="1923.75" y="-61" font-family="Helvetica,sans-Serif" font-size="10.00">TH1.h</text>
</a>
</g>
</g>
<!-- Node27&#45;&gt;Node35 -->
<g id="edge37_Node000027_Node000035" class="edge">
<title>Node27&#45;&gt;Node35</title>
<g id="a_edge37_Node000027_Node000035"><a xlink:title=" ">
<path fill="none" stroke="#63b8ff" d="M1625.84,-115.65C1678.91,-109.62 1788.44,-95.99 1890.98,-74.62"/>
<polygon fill="#63b8ff" stroke="#63b8ff" points="1891.62,-78.06 1900.67,-72.56 1890.16,-71.21 1891.62,-78.06"/>
</a>
</g>
</g>
<!-- Node36 -->
<g id="Node000036" class="node">
<title>Node36</title>
<g id="a_Node000036"><a xlink:title=" ">
<polygon fill="#e0e0e0" stroke="#999999" points="1472.88,-74.5 1424.62,-74.5 1424.62,-55.25 1472.88,-55.25 1472.88,-74.5"/>
<text text-anchor="middle" x="1448.75" y="-61" font-family="Helvetica,sans-Serif" font-size="10.00">TLine.h</text>
</a>
</g>
</g>
<!-- Node27&#45;&gt;Node36 -->
<g id="edge38_Node000027_Node000036" class="edge">
<title>Node27&#45;&gt;Node36</title>
<g id="a_edge38_Node000027_Node000036"><a xlink:title=" ">
<path fill="none" stroke="#63b8ff" d="M1569.15,-110.09C1545.68,-101.47 1510.08,-88.4 1483.68,-78.7"/>
<polygon fill="#63b8ff" stroke="#63b8ff" points="1485,-75.46 1474.4,-75.3 1482.59,-82.03 1485,-75.46"/>
</a>
</g>
</g>
<!-- Node37 -->
<g id="Node000037" class="node">
<title>Node37</title>
<g id="a_Node000037"><a xlink:title=" ">
<polygon fill="#e0e0e0" stroke="#999999" points="1542.75,-74.5 1490.75,-74.5 1490.75,-55.25 1542.75,-55.25 1542.75,-74.5"/>
<text text-anchor="middle" x="1516.75" y="-61" font-family="Helvetica,sans-Serif" font-size="10.00">TCutG.h</text>
</a>
</g>
</g>
<!-- Node27&#45;&gt;Node37 -->
<g id="edge39_Node000027_Node000037" class="edge">
<title>Node27&#45;&gt;Node37</title>
<g id="a_edge39_Node000027_Node000037"><a xlink:title=" ">
<path fill="none" stroke="#63b8ff" d="M1580.69,-110.09C1569.29,-102.21 1552.52,-90.61 1539.01,-81.27"/>
<polygon fill="#63b8ff" stroke="#63b8ff" points="1541.34,-78.62 1531.12,-75.81 1537.35,-84.38 1541.34,-78.62"/>
</a>
</g>
</g>
<!-- Node28&#45;&gt;Node13 -->
<g id="edge30_Node000028_Node000013" class="edge">
<title>Node28&#45;&gt;Node13</title>
<g id="a_edge30_Node000028_Node000013"><a xlink:title=" ">
<path fill="none" stroke="#63b8ff" d="M1560.29,-56.75C1512.21,-46.51 1424.13,-27.75 1376.46,-17.59"/>
<polygon fill="#63b8ff" stroke="#63b8ff" points="1377.25,-14.18 1366.74,-15.52 1375.8,-21.03 1377.25,-14.18"/>
</a>
</g>
</g>
<!-- Node29 -->
<g id="Node000029" class="node">
<title>Node29</title>
<g id="a_Node000029"><a xlink:title=" ">
<polygon fill="#e0e0e0" stroke="#999999" points="1554.25,-19.25 1493.25,-19.25 1493.25,0 1554.25,0 1554.25,-19.25"/>
<text text-anchor="middle" x="1523.75" y="-5.75" font-family="Helvetica,sans-Serif" font-size="10.00">TNamed.h</text>
</a>
</g>
</g>
<!-- Node28&#45;&gt;Node29 -->
<g id="edge31_Node000028_Node000029" class="edge">
<title>Node28&#45;&gt;Node29</title>
<g id="a_edge31_Node000028_Node000029"><a xlink:title=" ">
<path fill="none" stroke="#63b8ff" d="M1581.88,-54.84C1571.66,-47.07 1556.68,-35.67 1544.49,-26.4"/>
<polygon fill="#63b8ff" stroke="#63b8ff" points="1546.73,-23.71 1536.65,-20.44 1542.49,-29.28 1546.73,-23.71"/>
</a>
</g>
</g>
<!-- Node30 -->
<g id="Node000030" class="node">
<title>Node30</title>
<g id="a_Node000030"><a xlink:title=" ">
<polygon fill="#e0e0e0" stroke="#999999" points="1614.88,-19.25 1572.62,-19.25 1572.62,0 1614.88,0 1614.88,-19.25"/>
<text text-anchor="middle" x="1593.75" y="-5.75" font-family="Helvetica,sans-Serif" font-size="10.00">TH2.h</text>
</a>
</g>
</g>
<!-- Node28&#45;&gt;Node30 -->
<g id="edge32_Node000028_Node000030" class="edge">
<title>Node28&#45;&gt;Node30</title>
<g id="a_edge32_Node000028_Node000030"><a xlink:title=" ">
<path fill="none" stroke="#63b8ff" d="M1593.75,-55.08C1593.75,-48.57 1593.75,-39.42 1593.75,-31.12"/>
<polygon fill="#63b8ff" stroke="#63b8ff" points="1597.25,-31.12 1593.75,-21.12 1590.25,-31.12 1597.25,-31.12"/>
</a>
</g>
</g>
<!-- Node31 -->
<g id="Node000031" class="node">
<title>Node31</title>
<g id="a_Node000031"><a xlink:title=" ">
<polygon fill="#e0e0e0" stroke="#999999" points="1678.75,-19.25 1632.75,-19.25 1632.75,0 1678.75,0 1678.75,-19.25"/>
<text text-anchor="middle" x="1655.75" y="-5.75" font-family="Helvetica,sans-Serif" font-size="10.00">TList.h</text>
</a>
</g>
</g>
<!-- Node28&#45;&gt;Node31 -->
<g id="edge33_Node000028_Node000031" class="edge">
<title>Node28&#45;&gt;Node31</title>
<g id="a_edge33_Node000028_Node000031"><a xlink:title=" ">
<path fill="none" stroke="#63b8ff" d="M1604.27,-54.84C1613.14,-47.22 1626.06,-36.12 1636.74,-26.95"/>
<polygon fill="#63b8ff" stroke="#63b8ff" points="1638.93,-29.68 1644.24,-20.51 1634.37,-24.37 1638.93,-29.68"/>
</a>
</g>
</g>
</g>
</svg>
