<?xml version="1.0" encoding="UTF-8" standalone="no"?>
<!DOCTYPE svg PUBLIC "-//W3C//DTD SVG 1.1//EN"
 "http://www.w3.org/Graphics/SVG/1.1/DTD/svg11.dtd">
<!-- Generated by graphviz version 12.2.0 (20241103.1931)
 -->
<!-- Title: GPeak.cxx Pages: 1 -->
<!--zoomable 193 -->

<svg id="main" version="1.1" xmlns="http://www.w3.org/2000/svg" xmlns:xlink="http://www.w3.org/1999/xlink" xml:space="preserve" onload="init(evt)">

<style type="text/css"><![CDATA[
.node, .edge {opacity: 0.7;}
.node.selected, .edge.selected {opacity: 1;}
.edge:hover path { stroke: red; }
.edge:hover polygon { stroke: red; fill: red; }
]]></style>

<defs>
  <circle id="rim" cx="0" cy="0" r="7"/>
  <circle id="rim2" cx="0" cy="0" r="3.5"/>
  <g id="zoomPlus">
    <use xlink:href="#rim" fill="#404040"><set attributeName="fill" to="#808080" begin="zoomplus.mouseover" end="zoomplus.mouseout"/></use>
    <path d="M-4,0h8M0,-4v8" fill="none" stroke="white" stroke-width="1.5" pointer-events="none"/>
  </g>
  <g id="zoomMin">
    <use xlink:href="#rim" fill="#404040"><set attributeName="fill" to="#808080" begin="zoomminus.mouseover" end="zoomminus.mouseout"/></use>
    <path d="M-4,0h8" fill="none" stroke="white" stroke-width="1.5" pointer-events="none"/>
  </g>
  <g id="arrowUp" transform="translate(30 24)">
    <use xlink:href="#rim"/>
    <path pointer-events="none" fill="none" stroke="white" stroke-width="1.5" d="M0,-3.0v7 M-2.5,-0.5L0,-3.0L2.5,-0.5"/>
  </g>
  <g id="arrowRight" transform="rotate(90) translate(36 -43)">
    <use xlink:href="#rim"/>
    <path pointer-events="none" fill="none" stroke="white" stroke-width="1.5" d="M0,-3.0v7 M-2.5,-0.5L0,-3.0L2.5,-0.5"/>
  </g>
  <g id="arrowDown" transform="rotate(180) translate(-30 -48)">
    <use xlink:href="#rim"/>
    <path pointer-events="none" fill="none" stroke="white" stroke-width="1.5" d="M0,-3.0v7 M-2.5,-0.5L0,-3.0L2.5,-0.5"/>
  </g>
  <g id="arrowLeft" transform="rotate(270) translate(-36 17)">
    <use xlink:href="#rim"/>
    <path pointer-events="none" fill="none" stroke="white" stroke-width="1.5" d="M0,-3.0v7 M-2.5,-0.5L0,-3.0L2.5,-0.5"/>
  </g>
  <g id="resetDef">
    <use xlink:href="#rim2" fill="#404040"><set attributeName="fill" to="#808080" begin="reset.mouseover" end="reset.mouseout"/></use>
  </g>
</defs>
<script type="application/ecmascript">
var viewWidth = 2069;
var viewHeight = 193;
var sectionId = 'dynsection-0';
</script>
<script type="application/ecmascript" xlink:href="svg.min.js"/>
<svg id="graph" class="graph">
<g id="viewport">
<title>GPeak.cxx</title>
<!-- Node1 -->
<g id="Node000001" class="node">
<title>Node1</title>
<g id="a_Node000001"><a xlink:title=" ">
<polygon fill="#999999" stroke="#666666" points="371,-185 308.5,-185 308.5,-165.75 371,-165.75 371,-185"/>
<text text-anchor="middle" x="339.75" y="-171.5" font-family="Helvetica,sans-Serif" font-size="10.00">GPeak.cxx</text>
</a>
</g>
</g>
<!-- Node2 -->
<g id="Node000002" class="node">
<title>Node2</title>
<g id="a_Node000002"><a xlink:href="_g_peak_8h.html" target="_top" xlink:title=" ">
<polygon fill="white" stroke="#666666" points="53.5,-129.75 0,-129.75 0,-110.5 53.5,-110.5 53.5,-129.75"/>
<text text-anchor="middle" x="26.75" y="-116.25" font-family="Helvetica,sans-Serif" font-size="10.00">GPeak.h</text>
</a>
</g>
</g>
<!-- Node1&#45;&gt;Node2 -->
<g id="edge1_Node000001_Node000002" class="edge">
<title>Node1&#45;&gt;Node2</title>
<g id="a_edge1_Node000001_Node000002"><a xlink:title=" ">
<path fill="none" stroke="#63b8ff" d="M308.04,-170.06C258.39,-163.13 159.06,-148.59 64.98,-130.06"/>
<polygon fill="#63b8ff" stroke="#63b8ff" points="65.8,-126.66 55.31,-128.14 64.44,-133.52 65.8,-126.66"/>
</a>
</g>
</g>
<!-- Node4 -->
<g id="Node000004" class="node">
<title>Node4</title>
<g id="a_Node000004"><a xlink:title=" ">
<polygon fill="#e0e0e0" stroke="#999999" points="127.62,-129.75 71.88,-129.75 71.88,-110.5 127.62,-110.5 127.62,-129.75"/>
<text text-anchor="middle" x="99.75" y="-116.25" font-family="Helvetica,sans-Serif" font-size="10.00">TGraph.h</text>
</a>
</g>
</g>
<!-- Node1&#45;&gt;Node4 -->
<g id="edge3_Node000001_Node000004" class="edge">
<title>Node1&#45;&gt;Node4</title>
<g id="a_edge3_Node000001_Node000004"><a xlink:title=" ">
<path fill="none" stroke="#63b8ff" d="M308.08,-167.54C270.22,-159.35 204.67,-145.07 138.99,-130.24"/>
<polygon fill="#63b8ff" stroke="#63b8ff" points="140.03,-126.88 129.5,-128.09 138.48,-133.71 140.03,-126.88"/>
</a>
</g>
</g>
<!-- Node5 -->
<g id="Node000005" class="node">
<title>Node5</title>
<g id="a_Node000005"><a xlink:title=" ">
<polygon fill="#e0e0e0" stroke="#999999" points="225.62,-129.75 145.88,-129.75 145.88,-110.5 225.62,-110.5 225.62,-129.75"/>
<text text-anchor="middle" x="185.75" y="-116.25" font-family="Helvetica,sans-Serif" font-size="10.00">TVirtualFitter.h</text>
</a>
</g>
</g>
<!-- Node1&#45;&gt;Node5 -->
<g id="edge4_Node000001_Node000005" class="edge">
<title>Node1&#45;&gt;Node5</title>
<g id="a_edge4_Node000001_Node000005"><a xlink:title=" ">
<path fill="none" stroke="#63b8ff" d="M313.63,-165.34C288.63,-156.7 250.67,-143.57 222.6,-133.87"/>
<polygon fill="#63b8ff" stroke="#63b8ff" points="224.03,-130.66 213.43,-130.7 221.74,-137.27 224.03,-130.66"/>
</a>
</g>
</g>
<!-- Node6 -->
<g id="Node000006" class="node">
<title>Node6</title>
<g id="a_Node000006"><a xlink:title=" ">
<polygon fill="#e0e0e0" stroke="#999999" points="312,-129.75 243.5,-129.75 243.5,-110.5 312,-110.5 312,-129.75"/>
<text text-anchor="middle" x="277.75" y="-116.25" font-family="Helvetica,sans-Serif" font-size="10.00">TFitResult.h</text>
</a>
</g>
</g>
<!-- Node1&#45;&gt;Node6 -->
<g id="edge5_Node000001_Node000006" class="edge">
<title>Node1&#45;&gt;Node6</title>
<g id="a_edge5_Node000001_Node000006"><a xlink:title=" ">
<path fill="none" stroke="#63b8ff" d="M329.23,-165.34C320.36,-157.72 307.44,-146.62 296.76,-137.45"/>
<polygon fill="#63b8ff" stroke="#63b8ff" points="299.13,-134.87 289.26,-131.01 294.57,-140.18 299.13,-134.87"/>
</a>
</g>
</g>
<!-- Node7 -->
<g id="Node000007" class="node">
<title>Node7</title>
<g id="a_Node000007"><a xlink:title=" ">
<polygon fill="#e0e0e0" stroke="#999999" points="316.38,-74.5 235.12,-74.5 235.12,-55.25 316.38,-55.25 316.38,-74.5"/>
<text text-anchor="middle" x="275.75" y="-61" font-family="Helvetica,sans-Serif" font-size="10.00">TFitResultPtr.h</text>
</a>
</g>
</g>
<!-- Node1&#45;&gt;Node7 -->
<g id="edge6_Node000001_Node000007" class="edge">
<title>Node1&#45;&gt;Node7</title>
<g id="a_edge6_Node000001_Node000007"><a xlink:title=" ">
<path fill="none" stroke="#63b8ff" d="M338.55,-165.55C336.49,-152.69 331.45,-128.37 320.75,-110.5 314.38,-99.85 304.88,-89.92 296.25,-82.14"/>
<polygon fill="#63b8ff" stroke="#63b8ff" points="298.77,-79.69 288.89,-75.86 294.23,-85.02 298.77,-79.69"/>
</a>
</g>
</g>
<!-- Node8 -->
<g id="Node000008" class="node">
<title>Node8</title>
<g id="a_Node000008"><a xlink:href="_globals_8h.html" target="_top" xlink:title=" ">
<polygon fill="white" stroke="#666666" points="856,-129.75 799.5,-129.75 799.5,-110.5 856,-110.5 856,-129.75"/>
<text text-anchor="middle" x="827.75" y="-116.25" font-family="Helvetica,sans-Serif" font-size="10.00">Globals.h</text>
</a>
</g>
</g>
<!-- Node1&#45;&gt;Node8 -->
<g id="edge7_Node000001_Node000008" class="edge">
<title>Node1&#45;&gt;Node8</title>
<g id="a_edge7_Node000001_Node000008"><a xlink:title=" ">
<path fill="none" stroke="#63b8ff" d="M371.39,-170.92C457.07,-161.57 693.45,-135.78 787.95,-125.47"/>
<polygon fill="#63b8ff" stroke="#63b8ff" points="788.21,-128.96 797.77,-124.4 787.45,-122 788.21,-128.96"/>
</a>
</g>
</g>
<!-- Node24 -->
<g id="Node000024" class="node">
<title>Node24</title>
<g id="a_Node000024"><a xlink:href="_g_root_functions_8h.html" target="_top" xlink:title=" ">
<polygon fill="white" stroke="#666666" points="1224.75,-129.75 1130.75,-129.75 1130.75,-110.5 1224.75,-110.5 1224.75,-129.75"/>
<text text-anchor="middle" x="1177.75" y="-116.25" font-family="Helvetica,sans-Serif" font-size="10.00">GRootFunctions.h</text>
</a>
</g>
</g>
<!-- Node1&#45;&gt;Node24 -->
<g id="edge23_Node000001_Node000024" class="edge">
<title>Node1&#45;&gt;Node24</title>
<g id="a_edge23_Node000001_Node000024"><a xlink:title=" ">
<path fill="none" stroke="#63b8ff" d="M371.32,-172.37C495.97,-164.45 955.04,-135.28 1119.03,-124.86"/>
<polygon fill="#63b8ff" stroke="#63b8ff" points="1119.05,-128.36 1128.81,-124.23 1118.61,-121.38 1119.05,-128.36"/>
</a>
</g>
</g>
<!-- Node26 -->
<g id="Node000026" class="node">
<title>Node26</title>
<g id="a_Node000026"><a xlink:href="_t_g_r_s_i_functions_8h.html" target="_top" xlink:title=" ">
<polygon fill="white" stroke="#666666" points="463.88,-129.75 367.62,-129.75 367.62,-110.5 463.88,-110.5 463.88,-129.75"/>
<text text-anchor="middle" x="415.75" y="-116.25" font-family="Helvetica,sans-Serif" font-size="10.00">TGRSIFunctions.h</text>
</a>
</g>
</g>
<!-- Node1&#45;&gt;Node26 -->
<g id="edge25_Node000001_Node000026" class="edge">
<title>Node1&#45;&gt;Node26</title>
<g id="a_edge25_Node000001_Node000026"><a xlink:title=" ">
<path fill="none" stroke="#63b8ff" d="M352.64,-165.34C363.78,-157.54 380.12,-146.09 393.39,-136.79"/>
<polygon fill="#63b8ff" stroke="#63b8ff" points="395.37,-139.68 401.55,-131.07 391.36,-133.94 395.37,-139.68"/>
</a>
</g>
</g>
<!-- Node28 -->
<g id="Node000028" class="node">
<title>Node28</title>
<g id="a_Node000028"><a xlink:href="_g_canvas_8h.html" target="_top" xlink:title=" ">
<polygon fill="white" stroke="#666666" points="1718.75,-129.75 1654.75,-129.75 1654.75,-110.5 1718.75,-110.5 1718.75,-129.75"/>
<text text-anchor="middle" x="1686.75" y="-116.25" font-family="Helvetica,sans-Serif" font-size="10.00">GCanvas.h</text>
</a>
</g>
</g>
<!-- Node1&#45;&gt;Node28 -->
<g id="edge29_Node000001_Node000028" class="edge">
<title>Node1&#45;&gt;Node28</title>
<g id="a_edge29_Node000001_Node000028"><a xlink:title=" ">
<path fill="none" stroke="#63b8ff" d="M371.39,-173.12C550.4,-166.05 1435.57,-131.05 1643.14,-122.85"/>
<polygon fill="#63b8ff" stroke="#63b8ff" points="1643.08,-126.35 1652.94,-122.46 1642.81,-119.36 1643.08,-126.35"/>
</a>
</g>
</g>
<!-- Node3 -->
<g id="Node000003" class="node">
<title>Node3</title>
<g id="a_Node000003"><a xlink:title=" ">
<polygon fill="#e0e0e0" stroke="#999999" points="47.12,-74.5 6.38,-74.5 6.38,-55.25 47.12,-55.25 47.12,-74.5"/>
<text text-anchor="middle" x="26.75" y="-61" font-family="Helvetica,sans-Serif" font-size="10.00">TF1.h</text>
</a>
</g>
</g>
<!-- Node2&#45;&gt;Node3 -->
<g id="edge2_Node000002_Node000003" class="edge">
<title>Node2&#45;&gt;Node3</title>
<g id="a_edge2_Node000002_Node000003"><a xlink:title=" ">
<path fill="none" stroke="#63b8ff" d="M26.75,-110.33C26.75,-103.82 26.75,-94.67 26.75,-86.37"/>
<polygon fill="#63b8ff" stroke="#63b8ff" points="30.25,-86.37 26.75,-76.37 23.25,-86.37 30.25,-86.37"/>
</a>
</g>
</g>
<!-- Node9 -->
<g id="Node000009" class="node">
<title>Node9</title>
<g id="a_Node000009"><a xlink:title=" ">
<polygon fill="#e0e0e0" stroke="#999999" points="1378.5,-74.5 1325,-74.5 1325,-55.25 1378.5,-55.25 1378.5,-74.5"/>
<text text-anchor="middle" x="1351.75" y="-61" font-family="Helvetica,sans-Serif" font-size="10.00">iostream</text>
</a>
</g>
</g>
<!-- Node8&#45;&gt;Node9 -->
<g id="edge8_Node000008_Node000009" class="edge">
<title>Node8&#45;&gt;Node9</title>
<g id="a_edge8_Node000008_Node000009"><a xlink:title=" ">
<path fill="none" stroke="#63b8ff" d="M856.26,-117.95C930.15,-114.61 1134.02,-103.47 1313.47,-74.63"/>
<polygon fill="#63b8ff" stroke="#63b8ff" points="1313.91,-78.1 1323.21,-73.04 1312.78,-71.2 1313.91,-78.1"/>
</a>
</g>
</g>
<!-- Node10 -->
<g id="Node000010" class="node">
<title>Node10</title>
<g id="a_Node000010"><a xlink:title=" ">
<polygon fill="#e0e0e0" stroke="#999999" points="503.62,-74.5 453.88,-74.5 453.88,-55.25 503.62,-55.25 503.62,-74.5"/>
<text text-anchor="middle" x="478.75" y="-61" font-family="Helvetica,sans-Serif" font-size="10.00">iomanip</text>
</a>
</g>
</g>
<!-- Node8&#45;&gt;Node10 -->
<g id="edge9_Node000008_Node000010" class="edge">
<title>Node8&#45;&gt;Node10</title>
<g id="a_edge9_Node000008_Node000010"><a xlink:title=" ">
<path fill="none" stroke="#63b8ff" d="M799.34,-116.14C745.7,-110.28 625.68,-96.12 514.96,-74.74"/>
<polygon fill="#63b8ff" stroke="#63b8ff" points="515.9,-71.36 505.42,-72.88 514.56,-78.23 515.9,-71.36"/>
</a>
</g>
</g>
<!-- Node11 -->
<g id="Node000011" class="node">
<title>Node11</title>
<g id="a_Node000011"><a xlink:title=" ">
<polygon fill="#e0e0e0" stroke="#999999" points="579.75,-74.5 521.75,-74.5 521.75,-55.25 579.75,-55.25 579.75,-74.5"/>
<text text-anchor="middle" x="550.75" y="-61" font-family="Helvetica,sans-Serif" font-size="10.00">stdexcept</text>
</a>
</g>
</g>
<!-- Node8&#45;&gt;Node11 -->
<g id="edge10_Node000008_Node000011" class="edge">
<title>Node8&#45;&gt;Node11</title>
<g id="a_edge10_Node000008_Node000011"><a xlink:title=" ">
<path fill="none" stroke="#63b8ff" d="M799.28,-113.79C755.21,-105.5 667.82,-88.99 593.75,-74.5 592.77,-74.31 591.78,-74.11 590.77,-73.92"/>
<polygon fill="#63b8ff" stroke="#63b8ff" points="591.86,-70.56 581.37,-72.05 590.5,-77.43 591.86,-70.56"/>
</a>
</g>
</g>
<!-- Node12 -->
<g id="Node000012" class="node">
<title>Node12</title>
<g id="a_Node000012"><a xlink:title=" ">
<polygon fill="#e0e0e0" stroke="#999999" points="435.75,-74.5 395.75,-74.5 395.75,-55.25 435.75,-55.25 435.75,-74.5"/>
<text text-anchor="middle" x="415.75" y="-61" font-family="Helvetica,sans-Serif" font-size="10.00">string</text>
</a>
</g>
</g>
<!-- Node8&#45;&gt;Node12 -->
<g id="edge11_Node000008_Node000012" class="edge">
<title>Node8&#45;&gt;Node12</title>
<g id="a_edge11_Node000008_Node000012"><a xlink:title=" ">
<path fill="none" stroke="#63b8ff" d="M799.13,-117.49C736.78,-113.57 583.92,-102 447.3,-74.7"/>
<polygon fill="#63b8ff" stroke="#63b8ff" points="448.21,-71.31 437.72,-72.75 446.82,-78.17 448.21,-71.31"/>
</a>
</g>
</g>
<!-- Node13 -->
<g id="Node000013" class="node">
<title>Node13</title>
<g id="a_Node000013"><a xlink:title=" ">
<polygon fill="#e0e0e0" stroke="#999999" points="1242.88,-19.25 1200.62,-19.25 1200.62,0 1242.88,0 1242.88,-19.25"/>
<text text-anchor="middle" x="1221.75" y="-5.75" font-family="Helvetica,sans-Serif" font-size="10.00">cstdio</text>
</a>
</g>
</g>
<!-- Node8&#45;&gt;Node13 -->
<g id="edge12_Node000008_Node000013" class="edge">
<title>Node8&#45;&gt;Node13</title>
<g id="a_edge12_Node000008_Node000013"><a xlink:title=" ">
<path fill="none" stroke="#63b8ff" d="M799.46,-119.06C732.98,-118.02 576.07,-109.87 626.75,-55.25 665.19,-13.82 1070.56,-10.6 1189.27,-10.55"/>
<polygon fill="#63b8ff" stroke="#63b8ff" points="1188.94,-14.05 1198.94,-10.55 1188.94,-7.05 1188.94,-14.05"/>
</a>
</g>
</g>
<!-- Node14 -->
<g id="Node000014" class="node">
<title>Node14</title>
<g id="a_Node000014"><a xlink:title=" ">
<polygon fill="#e0e0e0" stroke="#999999" points="681.38,-74.5 636.12,-74.5 636.12,-55.25 681.38,-55.25 681.38,-74.5"/>
<text text-anchor="middle" x="658.75" y="-61" font-family="Helvetica,sans-Serif" font-size="10.00">cstdint</text>
</a>
</g>
</g>
<!-- Node8&#45;&gt;Node14 -->
<g id="edge13_Node000008_Node000014" class="edge">
<title>Node8&#45;&gt;Node14</title>
<g id="a_edge13_Node000008_Node000014"><a xlink:title=" ">
<path fill="none" stroke="#63b8ff" d="M799.08,-110.09C769.64,-100.82 723.84,-86.38 692.63,-76.55"/>
<polygon fill="#63b8ff" stroke="#63b8ff" points="693.88,-73.27 683.29,-73.61 691.78,-79.95 693.88,-73.27"/>
</a>
</g>
</g>
<!-- Node15 -->
<g id="Node000015" class="node">
<title>Node15</title>
<g id="a_Node000015"><a xlink:title=" ">
<polygon fill="#e0e0e0" stroke="#999999" points="744,-74.5 699.5,-74.5 699.5,-55.25 744,-55.25 744,-74.5"/>
<text text-anchor="middle" x="721.75" y="-61" font-family="Helvetica,sans-Serif" font-size="10.00">cstdlib</text>
</a>
</g>
</g>
<!-- Node8&#45;&gt;Node15 -->
<g id="edge14_Node000008_Node000015" class="edge">
<title>Node8&#45;&gt;Node15</title>
<g id="a_edge14_Node000008_Node000015"><a xlink:title=" ">
<path fill="none" stroke="#63b8ff" d="M809.77,-110.09C793.4,-101.87 768.96,-89.59 749.99,-80.06"/>
<polygon fill="#63b8ff" stroke="#63b8ff" points="751.68,-76.99 741.17,-75.63 748.54,-83.25 751.68,-76.99"/>
</a>
</g>
</g>
<!-- Node16 -->
<g id="Node000016" class="node">
<title>Node16</title>
<g id="a_Node000016"><a xlink:title=" ">
<polygon fill="#e0e0e0" stroke="#999999" points="821.5,-74.5 762,-74.5 762,-55.25 821.5,-55.25 821.5,-74.5"/>
<text text-anchor="middle" x="791.75" y="-61" font-family="Helvetica,sans-Serif" font-size="10.00">execinfo.h</text>
</a>
</g>
</g>
<!-- Node8&#45;&gt;Node16 -->
<g id="edge15_Node000008_Node000016" class="edge">
<title>Node8&#45;&gt;Node16</title>
<g id="a_edge15_Node000008_Node000016"><a xlink:title=" ">
<path fill="none" stroke="#63b8ff" d="M821.81,-110.33C817.04,-103.28 810.19,-93.15 804.23,-84.33"/>
<polygon fill="#63b8ff" stroke="#63b8ff" points="807.17,-82.44 798.67,-76.11 801.37,-86.36 807.17,-82.44"/>
</a>
</g>
</g>
<!-- Node17 -->
<g id="Node000017" class="node">
<title>Node17</title>
<g id="a_Node000017"><a xlink:title=" ">
<polygon fill="#e0e0e0" stroke="#999999" points="890,-74.5 839.5,-74.5 839.5,-55.25 890,-55.25 890,-74.5"/>
<text text-anchor="middle" x="864.75" y="-61" font-family="Helvetica,sans-Serif" font-size="10.00">cxxabi.h</text>
</a>
</g>
</g>
<!-- Node8&#45;&gt;Node17 -->
<g id="edge16_Node000008_Node000017" class="edge">
<title>Node8&#45;&gt;Node17</title>
<g id="a_edge16_Node000008_Node000017"><a xlink:title=" ">
<path fill="none" stroke="#63b8ff" d="M833.86,-110.33C838.81,-103.21 845.95,-92.93 852.12,-84.05"/>
<polygon fill="#63b8ff" stroke="#63b8ff" points="854.81,-86.31 857.64,-76.1 849.06,-82.32 854.81,-86.31"/>
</a>
</g>
</g>
<!-- Node18 -->
<g id="Node000018" class="node">
<title>Node18</title>
<g id="a_Node000018"><a xlink:title=" ">
<polygon fill="#e0e0e0" stroke="#999999" points="959.38,-74.5 908.12,-74.5 908.12,-55.25 959.38,-55.25 959.38,-74.5"/>
<text text-anchor="middle" x="933.75" y="-61" font-family="Helvetica,sans-Serif" font-size="10.00">sstream</text>
</a>
</g>
</g>
<!-- Node8&#45;&gt;Node18 -->
<g id="edge17_Node000008_Node000018" class="edge">
<title>Node8&#45;&gt;Node18</title>
<g id="a_edge17_Node000008_Node000018"><a xlink:title=" ">
<path fill="none" stroke="#63b8ff" d="M845.73,-110.09C862.1,-101.87 886.54,-89.59 905.51,-80.06"/>
<polygon fill="#63b8ff" stroke="#63b8ff" points="906.96,-83.25 914.33,-75.63 903.82,-76.99 906.96,-83.25"/>
</a>
</g>
</g>
<!-- Node19 -->
<g id="Node000019" class="node">
<title>Node19</title>
<g id="a_Node000019"><a xlink:title=" ">
<polygon fill="#e0e0e0" stroke="#999999" points="1014.25,-74.5 977.25,-74.5 977.25,-55.25 1014.25,-55.25 1014.25,-74.5"/>
<text text-anchor="middle" x="995.75" y="-61" font-family="Helvetica,sans-Serif" font-size="10.00">array</text>
</a>
</g>
</g>
<!-- Node8&#45;&gt;Node19 -->
<g id="edge18_Node000008_Node000019" class="edge">
<title>Node8&#45;&gt;Node19</title>
<g id="a_edge18_Node000008_Node000019"><a xlink:title=" ">
<path fill="none" stroke="#63b8ff" d="M856.38,-110.09C882.7,-101.77 923.09,-89.01 966.17,-75.32"/>
<polygon fill="#63b8ff" stroke="#63b8ff" points="966.96,-78.74 975.43,-72.37 964.84,-72.07 966.96,-78.74"/>
</a>
</g>
</g>
<!-- Node20 -->
<g id="Node000020" class="node">
<title>Node20</title>
<g id="a_Node000020"><a xlink:title=" ">
<polygon fill="#e0e0e0" stroke="#999999" points="1083,-74.5 1032.5,-74.5 1032.5,-55.25 1083,-55.25 1083,-74.5"/>
<text text-anchor="middle" x="1057.75" y="-61" font-family="Helvetica,sans-Serif" font-size="10.00">memory</text>
</a>
</g>
</g>
<!-- Node8&#45;&gt;Node20 -->
<g id="edge19_Node000008_Node000020" class="edge">
<title>Node8&#45;&gt;Node20</title>
<g id="a_edge19_Node000008_Node000020"><a xlink:title=" ">
<path fill="none" stroke="#63b8ff" d="M856.37,-112.84C892.49,-104.86 956.83,-90.47 1021.02,-75.12"/>
<polygon fill="#63b8ff" stroke="#63b8ff" points="1021.77,-78.53 1030.68,-72.8 1020.13,-71.73 1021.77,-78.53"/>
</a>
</g>
</g>
<!-- Node21 -->
<g id="Node000021" class="node">
<title>Node21</title>
<g id="a_Node000021"><a xlink:title=" ">
<polygon fill="#e0e0e0" stroke="#999999" points="1150.62,-74.5 1100.88,-74.5 1100.88,-55.25 1150.62,-55.25 1150.62,-74.5"/>
<text text-anchor="middle" x="1125.75" y="-61" font-family="Helvetica,sans-Serif" font-size="10.00">unistd.h</text>
</a>
</g>
</g>
<!-- Node8&#45;&gt;Node21 -->
<g id="edge20_Node000008_Node000021" class="edge">
<title>Node8&#45;&gt;Node21</title>
<g id="a_edge20_Node000008_Node000021"><a xlink:title=" ">
<path fill="none" stroke="#63b8ff" d="M856.41,-115.06C903.14,-108.26 998.84,-93.65 1089.52,-74.82"/>
<polygon fill="#63b8ff" stroke="#63b8ff" points="1090,-78.3 1099.07,-72.82 1088.56,-71.45 1090,-78.3"/>
</a>
</g>
</g>
<!-- Node22 -->
<g id="Node000022" class="node">
<title>Node22</title>
<g id="a_Node000022"><a xlink:title=" ">
<polygon fill="#e0e0e0" stroke="#999999" points="1228.5,-74.5 1169,-74.5 1169,-55.25 1228.5,-55.25 1228.5,-74.5"/>
<text text-anchor="middle" x="1198.75" y="-61" font-family="Helvetica,sans-Serif" font-size="10.00">sys/wait.h</text>
</a>
</g>
</g>
<!-- Node8&#45;&gt;Node22 -->
<g id="edge21_Node000008_Node000022" class="edge">
<title>Node8&#45;&gt;Node22</title>
<g id="a_edge21_Node000008_Node000022"><a xlink:title=" ">
<path fill="none" stroke="#63b8ff" d="M856.3,-116.11C912.1,-110.03 1039.78,-95.28 1157.23,-74.81"/>
<polygon fill="#63b8ff" stroke="#63b8ff" points="1157.84,-78.26 1167.08,-73.08 1156.62,-71.37 1157.84,-78.26"/>
</a>
</g>
</g>
<!-- Node23 -->
<g id="Node000023" class="node">
<title>Node23</title>
<g id="a_Node000023"><a xlink:title=" ">
<polygon fill="#e0e0e0" stroke="#999999" points="1306.88,-74.5 1246.62,-74.5 1246.62,-55.25 1306.88,-55.25 1306.88,-74.5"/>
<text text-anchor="middle" x="1276.75" y="-61" font-family="Helvetica,sans-Serif" font-size="10.00">sys/prctl.h</text>
</a>
</g>
</g>
<!-- Node8&#45;&gt;Node23 -->
<g id="edge22_Node000008_Node000023" class="edge">
<title>Node8&#45;&gt;Node23</title>
<g id="a_edge22_Node000008_Node000023"><a xlink:title=" ">
<path fill="none" stroke="#63b8ff" d="M856.23,-117.1C921.49,-112.24 1087.04,-98.61 1235.08,-74.78"/>
<polygon fill="#63b8ff" stroke="#63b8ff" points="1235.35,-78.28 1244.66,-73.22 1234.23,-71.37 1235.35,-78.28"/>
</a>
</g>
</g>
<!-- Node25 -->
<g id="Node000025" class="node">
<title>Node25</title>
<g id="a_Node000025"><a xlink:title=" ">
<polygon fill="#e0e0e0" stroke="#999999" points="1470.62,-74.5 1396.88,-74.5 1396.88,-55.25 1470.62,-55.25 1470.62,-74.5"/>
<text text-anchor="middle" x="1433.75" y="-61" font-family="Helvetica,sans-Serif" font-size="10.00">RtypesCore.h</text>
</a>
</g>
</g>
<!-- Node24&#45;&gt;Node25 -->
<g id="edge24_Node000024_Node000025" class="edge">
<title>Node24&#45;&gt;Node25</title>
<g id="a_edge24_Node000024_Node000025"><a xlink:title=" ">
<path fill="none" stroke="#63b8ff" d="M1221.47,-110.03C1266.98,-100.56 1338.09,-85.77 1385.29,-75.95"/>
<polygon fill="#63b8ff" stroke="#63b8ff" points="1385.89,-79.4 1394.97,-73.94 1384.47,-72.55 1385.89,-79.4"/>
</a>
</g>
</g>
<!-- Node26&#45;&gt;Node7 -->
<g id="edge28_Node000026_Node000007" class="edge">
<title>Node26&#45;&gt;Node7</title>
<g id="a_edge28_Node000026_Node000007"><a xlink:title=" ">
<path fill="none" stroke="#63b8ff" d="M392,-110.09C369.58,-101.56 335.69,-88.67 310.28,-79.01"/>
<polygon fill="#63b8ff" stroke="#63b8ff" points="311.62,-75.77 301.03,-75.49 309.13,-82.32 311.62,-75.77"/>
</a>
</g>
</g>
<!-- Node26&#45;&gt;Node12 -->
<g id="edge26_Node000026_Node000012" class="edge">
<title>Node26&#45;&gt;Node12</title>
<g id="a_edge26_Node000026_Node000012"><a xlink:title=" ">
<path fill="none" stroke="#63b8ff" d="M415.75,-110.33C415.75,-103.82 415.75,-94.67 415.75,-86.37"/>
<polygon fill="#63b8ff" stroke="#63b8ff" points="419.25,-86.37 415.75,-76.37 412.25,-86.37 419.25,-86.37"/>
</a>
</g>
</g>
<!-- Node27 -->
<g id="Node000027" class="node">
<title>Node27</title>
<g id="a_Node000027"><a xlink:title=" ">
<polygon fill="#e0e0e0" stroke="#999999" points="377.25,-74.5 334.25,-74.5 334.25,-55.25 377.25,-55.25 377.25,-74.5"/>
<text text-anchor="middle" x="355.75" y="-61" font-family="Helvetica,sans-Serif" font-size="10.00">cmath</text>
</a>
</g>
</g>
<!-- Node26&#45;&gt;Node27 -->
<g id="edge27_Node000026_Node000027" class="edge">
<title>Node26&#45;&gt;Node27</title>
<g id="a_edge27_Node000026_Node000027"><a xlink:title=" ">
<path fill="none" stroke="#63b8ff" d="M405.57,-110.09C396.99,-102.47 384.48,-91.37 374.15,-82.2"/>
<polygon fill="#63b8ff" stroke="#63b8ff" points="376.71,-79.8 366.91,-75.78 372.07,-85.04 376.71,-79.8"/>
</a>
</g>
</g>
<!-- Node28&#45;&gt;Node9 -->
<g id="edge41_Node000028_Node000009" class="edge">
<title>Node28&#45;&gt;Node9</title>
<g id="a_edge41_Node000028_Node000009"><a xlink:title=" ">
<path fill="none" stroke="#63b8ff" d="M1654.29,-115.22C1601.17,-108.63 1492.12,-94.25 1389.96,-74.78"/>
<polygon fill="#63b8ff" stroke="#63b8ff" points="1390.79,-71.37 1380.31,-72.91 1389.46,-78.25 1390.79,-71.37"/>
</a>
</g>
</g>
<!-- Node29 -->
<g id="Node000029" class="node">
<title>Node29</title>
<g id="a_Node000029"><a xlink:href="_g_h2_base_8h.html" target="_top" xlink:title=" ">
<polygon fill="white" stroke="#666666" points="2008.88,-74.5 1942.62,-74.5 1942.62,-55.25 2008.88,-55.25 2008.88,-74.5"/>
<text text-anchor="middle" x="1975.75" y="-61" font-family="Helvetica,sans-Serif" font-size="10.00">GH2Base.h</text>
</a>
</g>
</g>
<!-- Node28&#45;&gt;Node29 -->
<g id="edge30_Node000028_Node000029" class="edge">
<title>Node28&#45;&gt;Node29</title>
<g id="a_edge30_Node000028_Node000029"><a xlink:title=" ">
<path fill="none" stroke="#63b8ff" d="M1719.16,-113.52C1764.34,-105.66 1849.07,-90.71 1931.02,-74.99"/>
<polygon fill="#63b8ff" stroke="#63b8ff" points="1931.65,-78.43 1940.81,-73.11 1930.33,-71.56 1931.65,-78.43"/>
</a>
</g>
</g>
<!-- Node33 -->
<g id="Node000033" class="node">
<title>Node33</title>
<g id="a_Node000033"><a xlink:title=" ">
<polygon fill="#e0e0e0" stroke="#999999" points="1546.38,-74.5 1489.12,-74.5 1489.12,-55.25 1546.38,-55.25 1546.38,-74.5"/>
<text text-anchor="middle" x="1517.75" y="-61" font-family="Helvetica,sans-Serif" font-size="10.00">TROOT.h</text>
</a>
</g>
</g>
<!-- Node28&#45;&gt;Node33 -->
<g id="edge35_Node000028_Node000033" class="edge">
<title>Node28&#45;&gt;Node33</title>
<g id="a_edge35_Node000028_Node000033"><a xlink:title=" ">
<path fill="none" stroke="#63b8ff" d="M1658.08,-110.09C1630.4,-101.37 1588.26,-88.09 1557.38,-78.36"/>
<polygon fill="#63b8ff" stroke="#63b8ff" points="1558.59,-75.07 1548,-75.41 1556.49,-81.75 1558.59,-75.07"/>
</a>
</g>
</g>
<!-- Node34 -->
<g id="Node000034" class="node">
<title>Node34</title>
<g id="a_Node000034"><a xlink:title=" ">
<polygon fill="#e0e0e0" stroke="#999999" points="1627,-74.5 1564.5,-74.5 1564.5,-55.25 1627,-55.25 1627,-74.5"/>
<text text-anchor="middle" x="1595.75" y="-61" font-family="Helvetica,sans-Serif" font-size="10.00">TCanvas.h</text>
</a>
</g>
</g>
<!-- Node28&#45;&gt;Node34 -->
<g id="edge36_Node000028_Node000034" class="edge">
<title>Node28&#45;&gt;Node34</title>
<g id="a_edge36_Node000028_Node000034"><a xlink:title=" ">
<path fill="none" stroke="#63b8ff" d="M1671.31,-110.09C1657.59,-102.06 1637.25,-90.16 1621.13,-80.73"/>
<polygon fill="#63b8ff" stroke="#63b8ff" points="1622.97,-77.75 1612.57,-75.72 1619.43,-83.79 1622.97,-77.75"/>
</a>
</g>
</g>
<!-- Node35 -->
<g id="Node000035" class="node">
<title>Node35</title>
<g id="a_Node000035"><a xlink:title=" ">
<polygon fill="#e0e0e0" stroke="#999999" points="1728.12,-74.5 1645.38,-74.5 1645.38,-55.25 1728.12,-55.25 1728.12,-74.5"/>
<text text-anchor="middle" x="1686.75" y="-61" font-family="Helvetica,sans-Serif" font-size="10.00">TRootCanvas.h</text>
</a>
</g>
</g>
<!-- Node28&#45;&gt;Node35 -->
<g id="edge37_Node000028_Node000035" class="edge">
<title>Node28&#45;&gt;Node35</title>
<g id="a_edge37_Node000028_Node000035"><a xlink:title=" ">
<path fill="none" stroke="#63b8ff" d="M1686.75,-110.33C1686.75,-103.82 1686.75,-94.67 1686.75,-86.37"/>
<polygon fill="#63b8ff" stroke="#63b8ff" points="1690.25,-86.37 1686.75,-76.37 1683.25,-86.37 1690.25,-86.37"/>
</a>
</g>
</g>
<!-- Node36 -->
<g id="Node000036" class="node">
<title>Node36</title>
<g id="a_Node000036"><a xlink:title=" ">
<polygon fill="#e0e0e0" stroke="#999999" points="1788.88,-74.5 1746.62,-74.5 1746.62,-55.25 1788.88,-55.25 1788.88,-74.5"/>
<text text-anchor="middle" x="1767.75" y="-61" font-family="Helvetica,sans-Serif" font-size="10.00">TH1.h</text>
</a>
</g>
</g>
<!-- Node28&#45;&gt;Node36 -->
<g id="edge38_Node000028_Node000036" class="edge">
<title>Node28&#45;&gt;Node36</title>
<g id="a_edge38_Node000028_Node000036"><a xlink:title=" ">
<path fill="none" stroke="#63b8ff" d="M1700.49,-110.09C1712.48,-102.21 1730.12,-90.61 1744.33,-81.27"/>
<polygon fill="#63b8ff" stroke="#63b8ff" points="1746.24,-84.2 1752.68,-75.78 1742.4,-78.35 1746.24,-84.2"/>
</a>
</g>
</g>
<!-- Node37 -->
<g id="Node000037" class="node">
<title>Node37</title>
<g id="a_Node000037"><a xlink:title=" ">
<polygon fill="#e0e0e0" stroke="#999999" points="1854.88,-74.5 1806.62,-74.5 1806.62,-55.25 1854.88,-55.25 1854.88,-74.5"/>
<text text-anchor="middle" x="1830.75" y="-61" font-family="Helvetica,sans-Serif" font-size="10.00">TLine.h</text>
</a>
</g>
</g>
<!-- Node28&#45;&gt;Node37 -->
<g id="edge39_Node000028_Node000037" class="edge">
<title>Node28&#45;&gt;Node37</title>
<g id="a_edge39_Node000028_Node000037"><a xlink:title=" ">
<path fill="none" stroke="#63b8ff" d="M1711.18,-110.09C1734.35,-101.52 1769.41,-88.56 1795.59,-78.88"/>
<polygon fill="#63b8ff" stroke="#63b8ff" points="1796.62,-82.23 1804.78,-75.48 1794.19,-75.66 1796.62,-82.23"/>
</a>
</g>
</g>
<!-- Node38 -->
<g id="Node000038" class="node">
<title>Node38</title>
<g id="a_Node000038"><a xlink:title=" ">
<polygon fill="#e0e0e0" stroke="#999999" points="1924.75,-74.5 1872.75,-74.5 1872.75,-55.25 1924.75,-55.25 1924.75,-74.5"/>
<text text-anchor="middle" x="1898.75" y="-61" font-family="Helvetica,sans-Serif" font-size="10.00">TCutG.h</text>
</a>
</g>
</g>
<!-- Node28&#45;&gt;Node38 -->
<g id="edge40_Node000028_Node000038" class="edge">
<title>Node28&#45;&gt;Node38</title>
<g id="a_edge40_Node000028_Node000038"><a xlink:title=" ">
<path fill="none" stroke="#63b8ff" d="M1718.95,-111.04C1757.19,-101.43 1820.89,-85.43 1861.3,-75.28"/>
<polygon fill="#63b8ff" stroke="#63b8ff" points="1861.98,-78.72 1870.82,-72.89 1860.27,-71.93 1861.98,-78.72"/>
</a>
</g>
</g>
<!-- Node29&#45;&gt;Node13 -->
<g id="edge31_Node000029_Node000013" class="edge">
<title>Node29&#45;&gt;Node13</title>
<g id="a_edge31_Node000029_Node000013"><a xlink:title=" ">
<path fill="none" stroke="#63b8ff" d="M1942.35,-56.58C1939.45,-56.08 1936.55,-55.62 1933.75,-55.25 1673.33,-20.52 1355.62,-12.71 1254.37,-11.05"/>
<polygon fill="#63b8ff" stroke="#63b8ff" points="1254.68,-7.55 1244.63,-10.9 1254.57,-14.55 1254.68,-7.55"/>
</a>
</g>
</g>
<!-- Node30 -->
<g id="Node000030" class="node">
<title>Node30</title>
<g id="a_Node000030"><a xlink:title=" ">
<polygon fill="#e0e0e0" stroke="#999999" points="1936.25,-19.25 1875.25,-19.25 1875.25,0 1936.25,0 1936.25,-19.25"/>
<text text-anchor="middle" x="1905.75" y="-5.75" font-family="Helvetica,sans-Serif" font-size="10.00">TNamed.h</text>
</a>
</g>
</g>
<!-- Node29&#45;&gt;Node30 -->
<g id="edge32_Node000029_Node000030" class="edge">
<title>Node29&#45;&gt;Node30</title>
<g id="a_edge32_Node000029_Node000030"><a xlink:title=" ">
<path fill="none" stroke="#63b8ff" d="M1963.88,-54.84C1953.66,-47.07 1938.68,-35.67 1926.49,-26.4"/>
<polygon fill="#63b8ff" stroke="#63b8ff" points="1928.73,-23.71 1918.65,-20.44 1924.49,-29.28 1928.73,-23.71"/>
</a>
</g>
</g>
<!-- Node31 -->
<g id="Node000031" class="node">
<title>Node31</title>
<g id="a_Node000031"><a xlink:title=" ">
<polygon fill="#e0e0e0" stroke="#999999" points="1996.88,-19.25 1954.62,-19.25 1954.62,0 1996.88,0 1996.88,-19.25"/>
<text text-anchor="middle" x="1975.75" y="-5.75" font-family="Helvetica,sans-Serif" font-size="10.00">TH2.h</text>
</a>
</g>
</g>
<!-- Node29&#45;&gt;Node31 -->
<g id="edge33_Node000029_Node000031" class="edge">
<title>Node29&#45;&gt;Node31</title>
<g id="a_edge33_Node000029_Node000031"><a xlink:title=" ">
<path fill="none" stroke="#63b8ff" d="M1975.75,-55.08C1975.75,-48.57 1975.75,-39.42 1975.75,-31.12"/>
<polygon fill="#63b8ff" stroke="#63b8ff" points="1979.25,-31.12 1975.75,-21.12 1972.25,-31.12 1979.25,-31.12"/>
</a>
</g>
</g>
<!-- Node32 -->
<g id="Node000032" class="node">
<title>Node32</title>
<g id="a_Node000032"><a xlink:title=" ">
<polygon fill="#e0e0e0" stroke="#999999" points="2060.75,-19.25 2014.75,-19.25 2014.75,0 2060.75,0 2060.75,-19.25"/>
<text text-anchor="middle" x="2037.75" y="-5.75" font-family="Helvetica,sans-Serif" font-size="10.00">TList.h</text>
</a>
</g>
</g>
<!-- Node29&#45;&gt;Node32 -->
<g id="edge34_Node000029_Node000032" class="edge">
<title>Node29&#45;&gt;Node32</title>
<g id="a_edge34_Node000029_Node000032"><a xlink:title=" ">
<path fill="none" stroke="#63b8ff" d="M1986.27,-54.84C1995.14,-47.22 2008.06,-36.12 2018.74,-26.95"/>
<polygon fill="#63b8ff" stroke="#63b8ff" points="2020.93,-29.68 2026.24,-20.51 2016.37,-24.37 2020.93,-29.68"/>
</a>
</g>
</g>
</g>
</svg>

<g id="navigator" transform="translate(0 0)" fill="#404254">
  <rect fill="#f2f5e9" fill-opacity="0.5" stroke="#606060" stroke-width=".5" x="0" y="0" width="60" height="60"/>
  <use id="zoomplus" xlink:href="#zoomPlus" x="17" y="9" onmousedown="handleZoom(evt,'in')"/>
  <use id="zoomminus" xlink:href="#zoomMin" x="42" y="9" onmousedown="handleZoom(evt,'out')"/>
  <use id="reset" xlink:href="#resetDef" x="30" y="36" onmousedown="handleReset()"/>
   <use id="arrowup" xlink:href="#arrowUp" x="0" y="0" onmousedown="handlePan(0,-1)"/>
  <use id="arrowright" xlink:href="#arrowRight" x="0" y="0" onmousedown="handlePan(1,0)"/>
  <use id="arrowdown" xlink:href="#arrowDown" x="0" y="0" onmousedown="handlePan(0,1)"/>
  <use id="arrowleft" xlink:href="#arrowLeft" x="0" y="0" onmousedown="handlePan(-1,0)"/>
</g>
<svg viewBox="0 0 15 15" width="100%" height="30px" preserveAspectRatio="xMaxYMin meet">
 <g id="arrow_out" transform="scale(0.3 0.3)">
  <a xlink:href="_g_peak_8cxx__incl_org.svg" target="_base">
   <rect id="button" ry="5" rx="5" y="6" x="6" height="38" width="38"
        fill="#f2f5e9" fill-opacity="0.5" stroke="#606060" stroke-width="1.0"/>
   <path id="arrow"
     d="M 11.500037,31.436501 C 11.940474,20.09759 22.043105,11.32322 32.158766,21.979434 L 37.068811,17.246167 C 37.068811,17.246167 37.088388,32 37.088388,32 L 22.160133,31.978069 C 22.160133,31.978069 26.997745,27.140456 26.997745,27.140456 C 18.528582,18.264221 13.291696,25.230495 11.500037,31.436501 z"
     style="fill:#404040;"/>
  </a>
 </g>
</svg>

<style type='text/css'>
<![CDATA[
[data-mouse-over-selected='false'] { opacity: 0.7; }
[data-mouse-over-selected='true']  { opacity: 1.0; }
]]>
</style>
<script type="application/ecmascript"><![CDATA[
document.addEventListener('DOMContentLoaded', (event) => {
  highlightEdges();
  highlightAdjacentNodes();
});
]]></script>
</svg>
