<?xml version="1.0" encoding="UTF-8" standalone="no"?>
<!DOCTYPE svg PUBLIC "-//W3C//DTD SVG 1.1//EN"
 "http://www.w3.org/Graphics/SVG/1.1/DTD/svg11.dtd">
<!-- Generated by graphviz version 12.2.0 (20241103.1931)
 -->
<!-- Title: GValue.h Pages: 1 -->
<!--zoomable 138 -->

<svg id="main" version="1.1" xmlns="http://www.w3.org/2000/svg" xmlns:xlink="http://www.w3.org/1999/xlink" xml:space="preserve" onload="init(evt)">

<style type="text/css"><![CDATA[
.node, .edge {opacity: 0.7;}
.node.selected, .edge.selected {opacity: 1;}
.edge:hover path { stroke: red; }
.edge:hover polygon { stroke: red; fill: red; }
]]></style>

<defs>
  <circle id="rim" cx="0" cy="0" r="7"/>
  <circle id="rim2" cx="0" cy="0" r="3.5"/>
  <g id="zoomPlus">
    <use xlink:href="#rim" fill="#404040"><set attributeName="fill" to="#808080" begin="zoomplus.mouseover" end="zoomplus.mouseout"/></use>
    <path d="M-4,0h8M0,-4v8" fill="none" stroke="white" stroke-width="1.5" pointer-events="none"/>
  </g>
  <g id="zoomMin">
    <use xlink:href="#rim" fill="#404040"><set attributeName="fill" to="#808080" begin="zoomminus.mouseover" end="zoomminus.mouseout"/></use>
    <path d="M-4,0h8" fill="none" stroke="white" stroke-width="1.5" pointer-events="none"/>
  </g>
  <g id="arrowUp" transform="translate(30 24)">
    <use xlink:href="#rim"/>
    <path pointer-events="none" fill="none" stroke="white" stroke-width="1.5" d="M0,-3.0v7 M-2.5,-0.5L0,-3.0L2.5,-0.5"/>
  </g>
  <g id="arrowRight" transform="rotate(90) translate(36 -43)">
    <use xlink:href="#rim"/>
    <path pointer-events="none" fill="none" stroke="white" stroke-width="1.5" d="M0,-3.0v7 M-2.5,-0.5L0,-3.0L2.5,-0.5"/>
  </g>
  <g id="arrowDown" transform="rotate(180) translate(-30 -48)">
    <use xlink:href="#rim"/>
    <path pointer-events="none" fill="none" stroke="white" stroke-width="1.5" d="M0,-3.0v7 M-2.5,-0.5L0,-3.0L2.5,-0.5"/>
  </g>
  <g id="arrowLeft" transform="rotate(270) translate(-36 17)">
    <use xlink:href="#rim"/>
    <path pointer-events="none" fill="none" stroke="white" stroke-width="1.5" d="M0,-3.0v7 M-2.5,-0.5L0,-3.0L2.5,-0.5"/>
  </g>
  <g id="resetDef">
    <use xlink:href="#rim2" fill="#404040"><set attributeName="fill" to="#808080" begin="reset.mouseover" end="reset.mouseout"/></use>
  </g>
</defs>
<script type="application/ecmascript">
var viewWidth = 2129;
var viewHeight = 138;
var sectionId = 'dynsection-1';
</script>
<script type="application/ecmascript" xlink:href="svg.min.js"/>
<svg id="graph" class="graph">
<g id="viewport">
<title>GValue.h</title>
<!-- Node1 -->
<g id="Node000001" class="node">
<title>Node1</title>
<g id="a_Node000001"><a xlink:title=" ">
<polygon fill="#999999" stroke="#666666" points="1098.75,-129.75 1043,-129.75 1043,-110.5 1098.75,-110.5 1098.75,-129.75"/>
<text text-anchor="middle" x="1070.88" y="-116.25" font-family="Helvetica,sans-Serif" font-size="10.00">GValue.h</text>
</a>
</g>
</g>
<!-- Node2 -->
<g id="Node000002" class="node">
<title>Node2</title>
<g id="a_Node000002"><a xlink:href="_fast_timing_hist_selector_8h.html" target="_top" xlink:title=" ">
<polygon fill="white" stroke="#666666" points="127,-74.5 0.75,-74.5 0.75,-55.25 127,-55.25 127,-74.5"/>
<text text-anchor="middle" x="63.88" y="-61" font-family="Helvetica,sans-Serif" font-size="10.00">FastTimingHistSelector.h</text>
</a>
</g>
</g>
<!-- Node1&#45;&gt;Node2 -->
<g id="edge1_Node000001_Node000002" class="edge">
<title>Node1&#45;&gt;Node2</title>
<g id="a_edge1_Node000001_Node000002"><a xlink:title=" ">
<path fill="none" stroke="#63b8ff" d="M1031.34,-118.22C902.46,-115.08 482.81,-103.16 136.88,-74.5 133.7,-74.24 130.44,-73.94 127.16,-73.63"/>
<polygon fill="#63b8ff" stroke="#63b8ff" points="1030.96,-121.72 1041.04,-118.46 1031.13,-114.72 1030.96,-121.72"/>
</a>
</g>
</g>
<!-- Node4 -->
<g id="Node000004" class="node">
<title>Node4</title>
<g id="a_Node000004"><a xlink:href="_g_notifier_8cxx.html" target="_top" xlink:title=" ">
<polygon fill="white" stroke="#666666" points="216.25,-74.5 145.5,-74.5 145.5,-55.25 216.25,-55.25 216.25,-74.5"/>
<text text-anchor="middle" x="180.88" y="-61" font-family="Helvetica,sans-Serif" font-size="10.00">GNotifier.cxx</text>
</a>
</g>
</g>
<!-- Node1&#45;&gt;Node4 -->
<g id="edge3_Node000001_Node000004" class="edge">
<title>Node1&#45;&gt;Node4</title>
<g id="a_edge3_Node000001_Node000004"><a xlink:title=" ">
<path fill="none" stroke="#63b8ff" d="M1031.46,-118.95C910.58,-118.02 534.6,-112.06 225.88,-74.5 222.87,-74.13 219.77,-73.69 216.67,-73.19"/>
<polygon fill="#63b8ff" stroke="#63b8ff" points="1031.13,-122.45 1041.16,-119.02 1031.18,-115.45 1031.13,-122.45"/>
</a>
</g>
</g>
<!-- Node5 -->
<g id="Node000005" class="node">
<title>Node5</title>
<g id="a_Node000005"><a xlink:href="_g_value_8cxx.html" target="_top" xlink:title=" ">
<polygon fill="white" stroke="#666666" points="299.25,-74.5 234.5,-74.5 234.5,-55.25 299.25,-55.25 299.25,-74.5"/>
<text text-anchor="middle" x="266.88" y="-61" font-family="Helvetica,sans-Serif" font-size="10.00">GValue.cxx</text>
</a>
</g>
</g>
<!-- Node1&#45;&gt;Node5 -->
<g id="edge4_Node000001_Node000005" class="edge">
<title>Node1&#45;&gt;Node5</title>
<g id="a_edge4_Node000001_Node000005"><a xlink:title=" ">
<path fill="none" stroke="#63b8ff" d="M1031.23,-118.81C918.01,-117.49 583.65,-110.57 308.88,-74.5 305.78,-74.09 302.56,-73.59 299.36,-73.03"/>
<polygon fill="#63b8ff" stroke="#63b8ff" points="1031.16,-122.31 1041.2,-118.92 1031.24,-115.31 1031.16,-122.31"/>
</a>
</g>
</g>
<!-- Node6 -->
<g id="Node000006" class="node">
<title>Node6</title>
<g id="a_Node000006"><a xlink:href="_t_analysis_hist_loop_8cxx.html" target="_top" xlink:title=" ">
<polygon fill="white" stroke="#666666" points="432.38,-74.5 317.38,-74.5 317.38,-55.25 432.38,-55.25 432.38,-74.5"/>
<text text-anchor="middle" x="374.88" y="-61" font-family="Helvetica,sans-Serif" font-size="10.00">TAnalysisHistLoop.cxx</text>
</a>
</g>
</g>
<!-- Node1&#45;&gt;Node6 -->
<g id="edge5_Node000001_Node000006" class="edge">
<title>Node1&#45;&gt;Node6</title>
<g id="a_edge5_Node000001_Node000006"><a xlink:title=" ">
<path fill="none" stroke="#63b8ff" d="M1031.29,-117.14C931.87,-111.97 663.65,-96.93 440.88,-74.5 438.23,-74.23 435.53,-73.95 432.8,-73.64"/>
<polygon fill="#63b8ff" stroke="#63b8ff" points="1030.89,-120.62 1041.06,-117.64 1031.25,-113.63 1030.89,-120.62"/>
</a>
</g>
</g>
<!-- Node7 -->
<g id="Node000007" class="node">
<title>Node7</title>
<g id="a_Node000007"><a xlink:href="_t_analysis_write_loop_8cxx.html" target="_top" xlink:title=" ">
<polygon fill="white" stroke="#666666" points="569.62,-74.5 450.12,-74.5 450.12,-55.25 569.62,-55.25 569.62,-74.5"/>
<text text-anchor="middle" x="509.88" y="-61" font-family="Helvetica,sans-Serif" font-size="10.00">TAnalysisWriteLoop.cxx</text>
</a>
</g>
</g>
<!-- Node1&#45;&gt;Node7 -->
<g id="edge6_Node000001_Node000007" class="edge">
<title>Node1&#45;&gt;Node7</title>
<g id="a_edge6_Node000001_Node000007"><a xlink:title=" ">
<path fill="none" stroke="#63b8ff" d="M1031.32,-116C947.7,-109.28 746.88,-92.61 578.88,-74.5 575.99,-74.19 573.05,-73.86 570.07,-73.52"/>
<polygon fill="#63b8ff" stroke="#63b8ff" points="1030.8,-119.46 1041.05,-116.77 1031.36,-112.49 1030.8,-119.46"/>
</a>
</g>
</g>
<!-- Node8 -->
<g id="Node000008" class="node">
<title>Node8</title>
<g id="a_Node000008"><a xlink:href="_t_bgo_hit_8cxx.html" target="_top" xlink:title=" ">
<polygon fill="white" stroke="#666666" points="656.12,-74.5 587.62,-74.5 587.62,-55.25 656.12,-55.25 656.12,-74.5"/>
<text text-anchor="middle" x="621.88" y="-61" font-family="Helvetica,sans-Serif" font-size="10.00">TBgoHit.cxx</text>
</a>
</g>
</g>
<!-- Node1&#45;&gt;Node8 -->
<g id="edge7_Node000001_Node000008" class="edge">
<title>Node1&#45;&gt;Node8</title>
<g id="a_edge7_Node000001_Node000008"><a xlink:title=" ">
<path fill="none" stroke="#63b8ff" d="M1031.39,-115.95C958.63,-109.85 798.63,-95.22 664.88,-74.5 662.17,-74.08 659.37,-73.61 656.56,-73.11"/>
<polygon fill="#63b8ff" stroke="#63b8ff" points="1030.94,-119.43 1041.2,-116.77 1031.52,-112.45 1030.94,-119.43"/>
</a>
</g>
</g>
<!-- Node9 -->
<g id="Node000009" class="node">
<title>Node9</title>
<g id="a_Node000009"><a xlink:href="_t_descant_hit_8cxx.html" target="_top" xlink:title=" ">
<polygon fill="white" stroke="#666666" points="761.5,-74.5 674.25,-74.5 674.25,-55.25 761.5,-55.25 761.5,-74.5"/>
<text text-anchor="middle" x="717.88" y="-61" font-family="Helvetica,sans-Serif" font-size="10.00">TDescantHit.cxx</text>
</a>
</g>
</g>
<!-- Node1&#45;&gt;Node9 -->
<g id="edge8_Node000001_Node000009" class="edge">
<title>Node1&#45;&gt;Node9</title>
<g id="a_edge8_Node000001_Node000009"><a xlink:title=" ">
<path fill="none" stroke="#63b8ff" d="M1031.66,-113.47C974.34,-105.15 864.33,-89.05 770.88,-74.5 767.93,-74.04 764.89,-73.56 761.83,-73.08"/>
<polygon fill="#63b8ff" stroke="#63b8ff" points="1030.83,-116.88 1041.23,-114.85 1031.84,-109.96 1030.83,-116.88"/>
</a>
</g>
</g>
<!-- Node10 -->
<g id="Node000010" class="node">
<title>Node10</title>
<g id="a_Node000010"><a xlink:href="_t_fipps_bgo_hit_8cxx.html" target="_top" xlink:title=" ">
<polygon fill="white" stroke="#666666" points="872.12,-74.5 779.62,-74.5 779.62,-55.25 872.12,-55.25 872.12,-74.5"/>
<text text-anchor="middle" x="825.88" y="-61" font-family="Helvetica,sans-Serif" font-size="10.00">TFippsBgoHit.cxx</text>
</a>
</g>
</g>
<!-- Node1&#45;&gt;Node10 -->
<g id="edge9_Node000001_Node000010" class="edge">
<title>Node1&#45;&gt;Node10</title>
<g id="a_edge9_Node000001_Node000010"><a xlink:title=" ">
<path fill="none" stroke="#63b8ff" d="M1031.72,-110.62C986.81,-100.85 913.45,-84.91 867.51,-74.93"/>
<polygon fill="#63b8ff" stroke="#63b8ff" points="1030.78,-113.99 1041.29,-112.7 1032.26,-107.15 1030.78,-113.99"/>
</a>
</g>
</g>
<!-- Node11 -->
<g id="Node000011" class="node">
<title>Node11</title>
<g id="a_Node000011"><a xlink:href="_t_fipps_la_br_bgo_hit_8cxx.html" target="_top" xlink:title=" ">
<polygon fill="white" stroke="#666666" points="1003.62,-74.5 890.12,-74.5 890.12,-55.25 1003.62,-55.25 1003.62,-74.5"/>
<text text-anchor="middle" x="946.88" y="-61" font-family="Helvetica,sans-Serif" font-size="10.00">TFippsLaBrBgoHit.cxx</text>
</a>
</g>
</g>
<!-- Node1&#45;&gt;Node11 -->
<g id="edge10_Node000001_Node000011" class="edge">
<title>Node1&#45;&gt;Node11</title>
<g id="a_edge10_Node000001_Node000011"><a xlink:title=" ">
<path fill="none" stroke="#63b8ff" d="M1039.5,-105.65C1017.13,-96.04 987.64,-83.38 968.01,-74.95"/>
<polygon fill="#63b8ff" stroke="#63b8ff" points="1037.88,-108.76 1048.45,-109.49 1040.64,-102.33 1037.88,-108.76"/>
</a>
</g>
</g>
<!-- Node12 -->
<g id="Node000012" class="node">
<title>Node12</title>
<g id="a_Node000012"><a xlink:href="_t_frag_hist_loop_8cxx.html" target="_top" xlink:title=" ">
<polygon fill="white" stroke="#666666" points="1119.75,-74.5 1022,-74.5 1022,-55.25 1119.75,-55.25 1119.75,-74.5"/>
<text text-anchor="middle" x="1070.88" y="-61" font-family="Helvetica,sans-Serif" font-size="10.00">TFragHistLoop.cxx</text>
</a>
</g>
</g>
<!-- Node1&#45;&gt;Node12 -->
<g id="edge11_Node000001_Node000012" class="edge">
<title>Node1&#45;&gt;Node12</title>
<g id="a_edge11_Node000001_Node000012"><a xlink:title=" ">
<path fill="none" stroke="#63b8ff" d="M1070.88,-98.88C1070.88,-90.59 1070.88,-81.42 1070.88,-74.86"/>
<polygon fill="#63b8ff" stroke="#63b8ff" points="1067.38,-98.82 1070.88,-108.82 1074.38,-98.82 1067.38,-98.82"/>
</a>
</g>
</g>
<!-- Node13 -->
<g id="Node000013" class="node">
<title>Node13</title>
<g id="a_Node000013"><a xlink:href="_t_frag_write_loop_8cxx.html" target="_top" xlink:title=" ">
<polygon fill="white" stroke="#666666" points="1240,-74.5 1137.75,-74.5 1137.75,-55.25 1240,-55.25 1240,-74.5"/>
<text text-anchor="middle" x="1188.88" y="-61" font-family="Helvetica,sans-Serif" font-size="10.00">TFragWriteLoop.cxx</text>
</a>
</g>
</g>
<!-- Node1&#45;&gt;Node13 -->
<g id="edge12_Node000001_Node000013" class="edge">
<title>Node1&#45;&gt;Node13</title>
<g id="a_edge12_Node000001_Node000013"><a xlink:title=" ">
<path fill="none" stroke="#63b8ff" d="M1101.31,-105.39C1122.53,-95.81 1150.25,-83.31 1168.76,-74.95"/>
<polygon fill="#63b8ff" stroke="#63b8ff" points="1099.95,-102.17 1092.27,-109.47 1102.83,-108.55 1099.95,-102.17"/>
</a>
</g>
</g>
<!-- Node14 -->
<g id="Node000014" class="node">
<title>Node14</title>
<g id="a_Node000014"><a xlink:href="_t_g_r_s_i_helper_8cxx.html" target="_top" xlink:title=" ">
<polygon fill="white" stroke="#666666" points="1349.38,-74.5 1258.38,-74.5 1258.38,-55.25 1349.38,-55.25 1349.38,-74.5"/>
<text text-anchor="middle" x="1303.88" y="-61" font-family="Helvetica,sans-Serif" font-size="10.00">TGRSIHelper.cxx</text>
</a>
</g>
</g>
<!-- Node1&#45;&gt;Node14 -->
<g id="edge13_Node000001_Node000014" class="edge">
<title>Node1&#45;&gt;Node14</title>
<g id="a_edge13_Node000001_Node000014"><a xlink:title=" ">
<path fill="none" stroke="#63b8ff" d="M1110.07,-110.17C1152.83,-100.39 1220.93,-84.83 1263.97,-74.99"/>
<polygon fill="#63b8ff" stroke="#63b8ff" points="1109.42,-106.72 1100.46,-112.36 1110.98,-113.55 1109.42,-106.72"/>
</a>
</g>
</g>
<!-- Node15 -->
<g id="Node000015" class="node">
<title>Node15</title>
<g id="a_Node000015"><a xlink:href="_t_g_r_s_i_selector_8cxx.html" target="_top" xlink:title=" ">
<polygon fill="white" stroke="#666666" points="1466.12,-74.5 1367.62,-74.5 1367.62,-55.25 1466.12,-55.25 1466.12,-74.5"/>
<text text-anchor="middle" x="1416.88" y="-61" font-family="Helvetica,sans-Serif" font-size="10.00">TGRSISelector.cxx</text>
</a>
</g>
</g>
<!-- Node1&#45;&gt;Node15 -->
<g id="edge14_Node000001_Node000015" class="edge">
<title>Node1&#45;&gt;Node15</title>
<g id="a_edge14_Node000001_Node000015"><a xlink:title=" ">
<path fill="none" stroke="#63b8ff" d="M1110.28,-113.06C1173.64,-103.31 1298.03,-84.16 1367.31,-73.5"/>
<polygon fill="#63b8ff" stroke="#63b8ff" points="1110.04,-109.56 1100.69,-114.54 1111.1,-116.48 1110.04,-109.56"/>
</a>
</g>
</g>
<!-- Node16 -->
<g id="Node000016" class="node">
<title>Node16</title>
<g id="a_Node000016"><a xlink:href="_t_g_r_s_iint_8cxx.html" target="_top" xlink:title=" ">
<polygon fill="white" stroke="#666666" points="1557.38,-74.5 1484.38,-74.5 1484.38,-55.25 1557.38,-55.25 1557.38,-74.5"/>
<text text-anchor="middle" x="1520.88" y="-61" font-family="Helvetica,sans-Serif" font-size="10.00">TGRSIint.cxx</text>
</a>
</g>
</g>
<!-- Node1&#45;&gt;Node16 -->
<g id="edge15_Node000001_Node000016" class="edge">
<title>Node1&#45;&gt;Node16</title>
<g id="a_edge15_Node000001_Node000016"><a xlink:title=" ">
<path fill="none" stroke="#63b8ff" d="M1110.14,-115.78C1182.5,-109.39 1341.65,-94.32 1474.88,-74.5 1477.85,-74.06 1480.92,-73.56 1484.01,-73.04"/>
<polygon fill="#63b8ff" stroke="#63b8ff" points="1110.05,-112.27 1100.39,-116.63 1110.66,-119.25 1110.05,-112.27"/>
</a>
</g>
</g>
<!-- Node17 -->
<g id="Node000017" class="node">
<title>Node17</title>
<g id="a_Node000017"><a xlink:href="_t_griffin_bgo_hit_8cxx.html" target="_top" xlink:title=" ">
<polygon fill="white" stroke="#666666" points="1668.5,-74.5 1575.25,-74.5 1575.25,-55.25 1668.5,-55.25 1668.5,-74.5"/>
<text text-anchor="middle" x="1621.88" y="-61" font-family="Helvetica,sans-Serif" font-size="10.00">TGriffinBgoHit.cxx</text>
</a>
</g>
</g>
<!-- Node1&#45;&gt;Node17 -->
<g id="edge16_Node000001_Node000017" class="edge">
<title>Node1&#45;&gt;Node17</title>
<g id="a_edge16_Node000001_Node000017"><a xlink:title=" ">
<path fill="none" stroke="#63b8ff" d="M1110.5,-116.45C1194.7,-110.57 1397.61,-95.36 1566.88,-74.5 1569.47,-74.18 1572.12,-73.83 1574.8,-73.47"/>
<polygon fill="#63b8ff" stroke="#63b8ff" points="1110.43,-112.95 1100.7,-117.13 1110.91,-119.93 1110.43,-112.95"/>
</a>
</g>
</g>
<!-- Node18 -->
<g id="Node000018" class="node">
<title>Node18</title>
<g id="a_Node000018"><a xlink:href="_t_ifin_bgo_hit_8cxx.html" target="_top" xlink:title=" ">
<polygon fill="white" stroke="#666666" points="1767.5,-74.5 1686.25,-74.5 1686.25,-55.25 1767.5,-55.25 1767.5,-74.5"/>
<text text-anchor="middle" x="1726.88" y="-61" font-family="Helvetica,sans-Serif" font-size="10.00">TIfinBgoHit.cxx</text>
</a>
</g>
</g>
<!-- Node1&#45;&gt;Node18 -->
<g id="edge17_Node000001_Node000018" class="edge">
<title>Node1&#45;&gt;Node18</title>
<g id="a_edge17_Node000001_Node000018"><a xlink:title=" ">
<path fill="none" stroke="#63b8ff" d="M1110.39,-117.6C1207.37,-113.56 1464.73,-101.03 1677.88,-74.5 1680.53,-74.17 1683.26,-73.79 1686.01,-73.38"/>
<polygon fill="#63b8ff" stroke="#63b8ff" points="1110.47,-114.1 1100.62,-118 1110.76,-121.09 1110.47,-114.1"/>
</a>
</g>
</g>
<!-- Node19 -->
<g id="Node000019" class="node">
<title>Node19</title>
<g id="a_Node000019"><a xlink:href="_t_la_br_bgo_hit_8cxx.html" target="_top" xlink:title=" ">
<polygon fill="white" stroke="#666666" points="1874.62,-74.5 1785.12,-74.5 1785.12,-55.25 1874.62,-55.25 1874.62,-74.5"/>
<text text-anchor="middle" x="1829.88" y="-61" font-family="Helvetica,sans-Serif" font-size="10.00">TLaBrBgoHit.cxx</text>
</a>
</g>
</g>
<!-- Node1&#45;&gt;Node19 -->
<g id="edge18_Node000001_Node000019" class="edge">
<title>Node1&#45;&gt;Node19</title>
<g id="a_edge18_Node000001_Node000019"><a xlink:title=" ">
<path fill="none" stroke="#63b8ff" d="M1110.44,-117.99C1217.88,-114.6 1523.97,-103 1776.88,-74.5 1779.47,-74.21 1782.13,-73.88 1784.81,-73.52"/>
<polygon fill="#63b8ff" stroke="#63b8ff" points="1110.61,-114.48 1100.72,-118.29 1110.83,-121.48 1110.61,-114.48"/>
</a>
</g>
</g>
<!-- Node20 -->
<g id="Node000020" class="node">
<title>Node20</title>
<g id="a_Node000020"><a xlink:href="_t_runtime_objects_8cxx.html" target="_top" xlink:title=" ">
<polygon fill="white" stroke="#666666" points="2001,-74.5 1892.75,-74.5 1892.75,-55.25 2001,-55.25 2001,-74.5"/>
<text text-anchor="middle" x="1946.88" y="-61" font-family="Helvetica,sans-Serif" font-size="10.00">TRuntimeObjects.cxx</text>
</a>
</g>
</g>
<!-- Node1&#45;&gt;Node20 -->
<g id="edge19_Node000001_Node000020" class="edge">
<title>Node1&#45;&gt;Node20</title>
<g id="a_edge19_Node000001_Node000020"><a xlink:title=" ">
<path fill="none" stroke="#63b8ff" d="M1110.28,-118.1C1228.01,-114.78 1587.3,-102.89 1883.88,-74.5 1886.62,-74.24 1889.43,-73.94 1892.27,-73.63"/>
<polygon fill="#63b8ff" stroke="#63b8ff" points="1110.43,-114.59 1100.53,-118.37 1110.63,-121.59 1110.43,-114.59"/>
</a>
</g>
</g>
<!-- Node21 -->
<g id="Node000021" class="node">
<title>Node21</title>
<g id="a_Node000021"><a xlink:href="_t_zero_degree_hit_8cxx.html" target="_top" xlink:title=" ">
<polygon fill="white" stroke="#666666" points="2120.62,-74.5 2019.12,-74.5 2019.12,-55.25 2120.62,-55.25 2120.62,-74.5"/>
<text text-anchor="middle" x="2069.88" y="-61" font-family="Helvetica,sans-Serif" font-size="10.00">TZeroDegreeHit.cxx</text>
</a>
</g>
</g>
<!-- Node1&#45;&gt;Node21 -->
<g id="edge20_Node000001_Node000021" class="edge">
<title>Node1&#45;&gt;Node21</title>
<g id="a_edge20_Node000001_Node000021"><a xlink:title=" ">
<path fill="none" stroke="#63b8ff" d="M1110.21,-118.6C1239.36,-116.57 1662.09,-107.69 2009.88,-74.5 2012.81,-74.22 2015.82,-73.9 2018.85,-73.55"/>
<polygon fill="#63b8ff" stroke="#63b8ff" points="1110.44,-115.09 1100.5,-118.74 1110.55,-122.09 1110.44,-115.09"/>
</a>
</g>
</g>
<!-- Node3 -->
<g id="Node000003" class="node">
<title>Node3</title>
<g id="a_Node000003"><a xlink:href="_fast_timing_hist_selector_8_c.html" target="_top" xlink:title=" ">
<polygon fill="white" stroke="#666666" points="127.75,-19.25 0,-19.25 0,0 127.75,0 127.75,-19.25"/>
<text text-anchor="middle" x="63.88" y="-5.75" font-family="Helvetica,sans-Serif" font-size="10.00">FastTimingHistSelector.C</text>
</a>
</g>
</g>
<!-- Node2&#45;&gt;Node3 -->
<g id="edge2_Node000002_Node000003" class="edge">
<title>Node2&#45;&gt;Node3</title>
<g id="a_edge2_Node000002_Node000003"><a xlink:title=" ">
<path fill="none" stroke="#63b8ff" d="M63.88,-43.63C63.88,-35.34 63.88,-26.17 63.88,-19.61"/>
<polygon fill="#63b8ff" stroke="#63b8ff" points="60.38,-43.57 63.88,-53.57 67.38,-43.57 60.38,-43.57"/>
</a>
</g>
</g>
</g>
</svg>

<g id="navigator" transform="translate(0 0)" fill="#404254">
  <rect fill="#f2f5e9" fill-opacity="0.5" stroke="#606060" stroke-width=".5" x="0" y="0" width="60" height="60"/>
  <use id="zoomplus" xlink:href="#zoomPlus" x="17" y="9" onmousedown="handleZoom(evt,'in')"/>
  <use id="zoomminus" xlink:href="#zoomMin" x="42" y="9" onmousedown="handleZoom(evt,'out')"/>
  <use id="reset" xlink:href="#resetDef" x="30" y="36" onmousedown="handleReset()"/>
   <use id="arrowup" xlink:href="#arrowUp" x="0" y="0" onmousedown="handlePan(0,-1)"/>
  <use id="arrowright" xlink:href="#arrowRight" x="0" y="0" onmousedown="handlePan(1,0)"/>
  <use id="arrowdown" xlink:href="#arrowDown" x="0" y="0" onmousedown="handlePan(0,1)"/>
  <use id="arrowleft" xlink:href="#arrowLeft" x="0" y="0" onmousedown="handlePan(-1,0)"/>
</g>
<svg viewBox="0 0 15 15" width="100%" height="30px" preserveAspectRatio="xMaxYMin meet">
 <g id="arrow_out" transform="scale(0.3 0.3)">
  <a xlink:href="_g_value_8h__dep__incl_org.svg" target="_base">
   <rect id="button" ry="5" rx="5" y="6" x="6" height="38" width="38"
        fill="#f2f5e9" fill-opacity="0.5" stroke="#606060" stroke-width="1.0"/>
   <path id="arrow"
     d="M 11.500037,31.436501 C 11.940474,20.09759 22.043105,11.32322 32.158766,21.979434 L 37.068811,17.246167 C 37.068811,17.246167 37.088388,32 37.088388,32 L 22.160133,31.978069 C 22.160133,31.978069 26.997745,27.140456 26.997745,27.140456 C 18.528582,18.264221 13.291696,25.230495 11.500037,31.436501 z"
     style="fill:#404040;"/>
  </a>
 </g>
</svg>

<style type='text/css'>
<![CDATA[
[data-mouse-over-selected='false'] { opacity: 0.7; }
[data-mouse-over-selected='true']  { opacity: 1.0; }
]]>
</style>
<script type="application/ecmascript"><![CDATA[
document.addEventListener('DOMContentLoaded', (event) => {
  highlightEdges();
  highlightAdjacentNodes();
});
]]></script>
</svg>
