<?xml version="1.0" encoding="UTF-8" standalone="no"?>
<!DOCTYPE svg PUBLIC "-//W3C//DTD SVG 1.1//EN"
 "http://www.w3.org/Graphics/SVG/1.1/DTD/svg11.dtd">
<!-- Generated by graphviz version 9.0.0 (20230911.1827)
 -->
<!-- Title: GValue.h Pages: 1 -->
<!--zoomable 193 -->

<svg id="main" version="1.1" xmlns="http://www.w3.org/2000/svg" xmlns:xlink="http://www.w3.org/1999/xlink" xml:space="preserve" onload="init(evt)">
<style type="text/css"><![CDATA[
.node, .edge {opacity: 0.7;}
.node.selected, .edge.selected {opacity: 1;}
.edge:hover path { stroke: red; }
.edge:hover polygon { stroke: red; fill: red; }
]]></style>

<defs>
  <circle id="rim" cx="0" cy="0" r="7"/>
  <circle id="rim2" cx="0" cy="0" r="3.5"/>
  <g id="zoomPlus">
    <use xlink:href="#rim" fill="#404040"><set attributeName="fill" to="#808080" begin="zoomplus.mouseover" end="zoomplus.mouseout"/></use>
    <path d="M-4,0h8M0,-4v8" fill="none" stroke="white" stroke-width="1.5" pointer-events="none"/>
  </g>
  <g id="zoomMin">
    <use xlink:href="#rim" fill="#404040"><set attributeName="fill" to="#808080" begin="zoomminus.mouseover" end="zoomminus.mouseout"/></use>
    <path d="M-4,0h8" fill="none" stroke="white" stroke-width="1.5" pointer-events="none"/>
  </g>
  <g id="arrowUp" transform="translate(30 24)">
    <use xlink:href="#rim"/>
    <path pointer-events="none" fill="none" stroke="white" stroke-width="1.5" d="M0,-3.0v7 M-2.5,-0.5L0,-3.0L2.5,-0.5"/>
  </g>
  <g id="arrowRight" transform="rotate(90) translate(36 -43)">
    <use xlink:href="#rim"/>
    <path pointer-events="none" fill="none" stroke="white" stroke-width="1.5" d="M0,-3.0v7 M-2.5,-0.5L0,-3.0L2.5,-0.5"/>
  </g>
  <g id="arrowDown" transform="rotate(180) translate(-30 -48)">
    <use xlink:href="#rim"/>
    <path pointer-events="none" fill="none" stroke="white" stroke-width="1.5" d="M0,-3.0v7 M-2.5,-0.5L0,-3.0L2.5,-0.5"/>
  </g>
  <g id="arrowLeft" transform="rotate(270) translate(-36 17)">
    <use xlink:href="#rim"/>
    <path pointer-events="none" fill="none" stroke="white" stroke-width="1.5" d="M0,-3.0v7 M-2.5,-0.5L0,-3.0L2.5,-0.5"/>
  </g>
  <g id="resetDef">
    <use xlink:href="#rim2" fill="#404040"><set attributeName="fill" to="#808080" begin="reset.mouseover" end="reset.mouseout"/></use>
  </g>
</defs>
<script type="application/ecmascript">
var viewWidth = 2306;
var viewHeight = 193;
var sectionId = 'dynsection-1';
</script>
<script type="application/ecmascript" xlink:href="svg.min.js"/>
<svg id="graph" class="graph">
<g id="viewport">
<title>GValue.h</title>
<!-- Node1 -->
<g id="Node000001" class="node">
<title>Node1</title>
<g id="a_Node000001"><a xlink:title=" ">
<polygon fill="#999999" stroke="#666666" points="1183.75,-185 1128,-185 1128,-165.75 1183.75,-165.75 1183.75,-185"/>
<text text-anchor="middle" x="1155.88" y="-171.5" font-family="Helvetica,sans-Serif" font-size="10.00">GValue.h</text>
</a>
</g>
</g>
<!-- Node2 -->
<g id="Node000002" class="node">
<title>Node2</title>
<g id="a_Node000002"><a xlink:href="_fast_timing_hist_selector_8h.html" target="_top" xlink:title=" ">
<polygon fill="white" stroke="#666666" points="127,-129.75 0.75,-129.75 0.75,-110.5 127,-110.5 127,-129.75"/>
<text text-anchor="middle" x="63.88" y="-116.25" font-family="Helvetica,sans-Serif" font-size="10.00">FastTimingHistSelector.h</text>
</a>
</g>
</g>
<!-- Node1&#45;&gt;Node2 -->
<g id="edge1_Node000001_Node000002" class="edge">
<title>Node1&#45;&gt;Node2</title>
<g id="a_edge1_Node000001_Node000002"><a xlink:title=" ">
<path fill="none" stroke="#63b8ff" d="M1116.45,-173.7C980.33,-171.13 517.66,-160.54 136.88,-129.75 133.69,-129.49 130.44,-129.2 127.15,-128.89"/>
<polygon fill="#63b8ff" stroke="#63b8ff" points="1116.29,-177.19 1126.35,-173.88 1116.42,-170.19 1116.29,-177.19"/>
</a>
</g>
</g>
<!-- Node4 -->
<g id="Node000004" class="node">
<title>Node4</title>
<g id="a_Node000004"><a xlink:href="_g_notifier_8cxx.html" target="_top" xlink:title=" ">
<polygon fill="white" stroke="#666666" points="216.25,-129.75 145.5,-129.75 145.5,-110.5 216.25,-110.5 216.25,-129.75"/>
<text text-anchor="middle" x="180.88" y="-116.25" font-family="Helvetica,sans-Serif" font-size="10.00">GNotifier.cxx</text>
</a>
</g>
</g>
<!-- Node1&#45;&gt;Node4 -->
<g id="edge3_Node000001_Node000004" class="edge">
<title>Node1&#45;&gt;Node4</title>
<g id="a_edge3_Node000001_Node000004"><a xlink:title=" ">
<path fill="none" stroke="#63b8ff" d="M1116.41,-174.47C987.77,-174.36 569.08,-170.67 225.88,-129.75 222.87,-129.39 219.77,-128.95 216.67,-128.46"/>
<polygon fill="#63b8ff" stroke="#63b8ff" points="1116.09,-177.97 1126.09,-174.47 1116.09,-170.97 1116.09,-177.97"/>
</a>
</g>
</g>
<!-- Node5 -->
<g id="Node000005" class="node">
<title>Node5</title>
<g id="a_Node000005"><a xlink:href="_g_value_8cxx.html" target="_top" xlink:title=" ">
<polygon fill="white" stroke="#666666" points="299.25,-129.75 234.5,-129.75 234.5,-110.5 299.25,-110.5 299.25,-129.75"/>
<text text-anchor="middle" x="266.88" y="-116.25" font-family="Helvetica,sans-Serif" font-size="10.00">GValue.cxx</text>
</a>
</g>
</g>
<!-- Node1&#45;&gt;Node5 -->
<g id="edge4_Node000001_Node000005" class="edge">
<title>Node1&#45;&gt;Node5</title>
<g id="a_edge4_Node000001_Node000005"><a xlink:title=" ">
<path fill="none" stroke="#63b8ff" d="M1116.28,-174.46C994.89,-174.27 617.34,-170.2 307.88,-129.75 305.13,-129.39 302.3,-128.95 299.47,-128.46"/>
<polygon fill="#63b8ff" stroke="#63b8ff" points="1116.03,-177.96 1126.03,-174.47 1116.04,-170.96 1116.03,-177.96"/>
</a>
</g>
</g>
<!-- Node6 -->
<g id="Node000006" class="node">
<title>Node6</title>
<g id="a_Node000006"><a xlink:href="_t_analysis_hist_loop_8cxx.html" target="_top" xlink:title=" ">
<polygon fill="white" stroke="#666666" points="432.38,-129.75 317.38,-129.75 317.38,-110.5 432.38,-110.5 432.38,-129.75"/>
<text text-anchor="middle" x="374.88" y="-116.25" font-family="Helvetica,sans-Serif" font-size="10.00">TAnalysisHistLoop.cxx</text>
</a>
</g>
</g>
<!-- Node1&#45;&gt;Node6 -->
<g id="edge5_Node000001_Node000006" class="edge">
<title>Node1&#45;&gt;Node6</title>
<g id="a_edge5_Node000001_Node000006"><a xlink:title=" ">
<path fill="none" stroke="#63b8ff" d="M1116.23,-172.84C1007.87,-168.45 697.72,-154.52 440.88,-129.75 438.23,-129.49 435.53,-129.22 432.8,-128.92"/>
<polygon fill="#63b8ff" stroke="#63b8ff" points="1115.9,-176.33 1126.04,-173.24 1116.18,-169.34 1115.9,-176.33"/>
</a>
</g>
</g>
<!-- Node7 -->
<g id="Node000007" class="node">
<title>Node7</title>
<g id="a_Node000007"><a xlink:href="_t_analysis_write_loop_8cxx.html" target="_top" xlink:title=" ">
<polygon fill="white" stroke="#666666" points="569.62,-129.75 450.12,-129.75 450.12,-110.5 569.62,-110.5 569.62,-129.75"/>
<text text-anchor="middle" x="509.88" y="-116.25" font-family="Helvetica,sans-Serif" font-size="10.00">TAnalysisWriteLoop.cxx</text>
</a>
</g>
</g>
<!-- Node1&#45;&gt;Node7 -->
<g id="edge6_Node000001_Node000007" class="edge">
<title>Node1&#45;&gt;Node7</title>
<g id="a_edge6_Node000001_Node000007"><a xlink:title=" ">
<path fill="none" stroke="#63b8ff" d="M1116.17,-171.95C1022.5,-166.09 780.46,-150.13 578.88,-129.75 575.99,-129.46 573.04,-129.15 570.07,-128.82"/>
<polygon fill="#63b8ff" stroke="#63b8ff" points="1115.91,-175.44 1126.1,-172.57 1116.34,-168.46 1115.91,-175.44"/>
</a>
</g>
</g>
<!-- Node8 -->
<g id="Node000008" class="node">
<title>Node8</title>
<g id="a_Node000008"><a xlink:href="_t_bgo_hit_8cxx.html" target="_top" xlink:title=" ">
<polygon fill="white" stroke="#666666" points="656.12,-129.75 587.62,-129.75 587.62,-110.5 656.12,-110.5 656.12,-129.75"/>
<text text-anchor="middle" x="621.88" y="-116.25" font-family="Helvetica,sans-Serif" font-size="10.00">TBgoHit.cxx</text>
</a>
</g>
</g>
<!-- Node1&#45;&gt;Node8 -->
<g id="edge7_Node000001_Node000008" class="edge">
<title>Node1&#45;&gt;Node8</title>
<g id="a_edge7_Node000001_Node000008"><a xlink:title=" ">
<path fill="none" stroke="#63b8ff" d="M1116.27,-172.22C1032.6,-167.36 831.76,-154 664.88,-129.75 662.16,-129.36 659.36,-128.9 656.55,-128.41"/>
<polygon fill="#63b8ff" stroke="#63b8ff" points="1115.83,-175.7 1126.01,-172.78 1116.23,-168.71 1115.83,-175.7"/>
</a>
</g>
</g>
<!-- Node9 -->
<g id="Node000009" class="node">
<title>Node9</title>
<g id="a_Node000009"><a xlink:href="_t_compiled_histograms_8cxx.html" target="_top" xlink:title=" ">
<polygon fill="white" stroke="#666666" points="803.5,-129.75 674.25,-129.75 674.25,-110.5 803.5,-110.5 803.5,-129.75"/>
<text text-anchor="middle" x="738.88" y="-116.25" font-family="Helvetica,sans-Serif" font-size="10.00">TCompiledHistograms.cxx</text>
</a>
</g>
</g>
<!-- Node1&#45;&gt;Node9 -->
<g id="edge8_Node000001_Node000009" class="edge">
<title>Node1&#45;&gt;Node9</title>
<g id="a_edge8_Node000001_Node000009"><a xlink:title=" ">
<path fill="none" stroke="#63b8ff" d="M1116.3,-169.32C1044.31,-160.13 891.34,-140.59 803.85,-129.42"/>
<polygon fill="#63b8ff" stroke="#63b8ff" points="1115.68,-172.77 1126.04,-170.57 1116.56,-165.83 1115.68,-172.77"/>
</a>
</g>
</g>
<!-- Node10 -->
<g id="Node000010" class="node">
<title>Node10</title>
<g id="a_Node000010"><a xlink:href="_t_descant_hit_8cxx.html" target="_top" xlink:title=" ">
<polygon fill="white" stroke="#666666" points="908.5,-129.75 821.25,-129.75 821.25,-110.5 908.5,-110.5 908.5,-129.75"/>
<text text-anchor="middle" x="864.88" y="-116.25" font-family="Helvetica,sans-Serif" font-size="10.00">TDescantHit.cxx</text>
</a>
</g>
</g>
<!-- Node1&#45;&gt;Node10 -->
<g id="edge9_Node000001_Node000010" class="edge">
<title>Node1&#45;&gt;Node10</title>
<g id="a_edge9_Node000001_Node000010"><a xlink:title=" ">
<path fill="none" stroke="#63b8ff" d="M1116.52,-167.17C1062.39,-157.27 965.25,-139.49 908.81,-129.16"/>
<polygon fill="#63b8ff" stroke="#63b8ff" points="1115.75,-170.59 1126.22,-168.95 1117.01,-163.71 1115.75,-170.59"/>
</a>
</g>
</g>
<!-- Node11 -->
<g id="Node000011" class="node">
<title>Node11</title>
<g id="a_Node000011"><a xlink:href="_t_fipps_bgo_hit_8cxx.html" target="_top" xlink:title=" ">
<polygon fill="white" stroke="#666666" points="1019.12,-129.75 926.62,-129.75 926.62,-110.5 1019.12,-110.5 1019.12,-129.75"/>
<text text-anchor="middle" x="972.88" y="-116.25" font-family="Helvetica,sans-Serif" font-size="10.00">TFippsBgoHit.cxx</text>
</a>
</g>
</g>
<!-- Node1&#45;&gt;Node11 -->
<g id="edge10_Node000001_Node000011" class="edge">
<title>Node1&#45;&gt;Node11</title>
<g id="a_edge10_Node000001_Node000011"><a xlink:title=" ">
<path fill="none" stroke="#63b8ff" d="M1116.87,-163.03C1083.25,-153.24 1035.33,-139.3 1004.17,-130.23"/>
<polygon fill="#63b8ff" stroke="#63b8ff" points="1115.65,-166.32 1126.23,-165.75 1117.61,-159.59 1115.65,-166.32"/>
</a>
</g>
</g>
<!-- Node12 -->
<g id="Node000012" class="node">
<title>Node12</title>
<g id="a_Node000012"><a xlink:href="_t_fipps_la_br_bgo_hit_8cxx.html" target="_top" xlink:title=" ">
<polygon fill="white" stroke="#666666" points="1150.62,-129.75 1037.12,-129.75 1037.12,-110.5 1150.62,-110.5 1150.62,-129.75"/>
<text text-anchor="middle" x="1093.88" y="-116.25" font-family="Helvetica,sans-Serif" font-size="10.00">TFippsLaBrBgoHit.cxx</text>
</a>
</g>
</g>
<!-- Node1&#45;&gt;Node12 -->
<g id="edge11_Node000001_Node000012" class="edge">
<title>Node1&#45;&gt;Node12</title>
<g id="a_edge11_Node000001_Node000012"><a xlink:title=" ">
<path fill="none" stroke="#63b8ff" d="M1136.68,-157.89C1125.97,-148.69 1113.06,-137.6 1104.24,-130.02"/>
<polygon fill="#63b8ff" stroke="#63b8ff" points="1134.34,-160.5 1144.21,-164.36 1138.9,-155.19 1134.34,-160.5"/>
</a>
</g>
</g>
<!-- Node13 -->
<g id="Node000013" class="node">
<title>Node13</title>
<g id="a_Node000013"><a xlink:href="_t_frag_hist_loop_8cxx.html" target="_top" xlink:title=" ">
<polygon fill="white" stroke="#666666" points="1266.75,-129.75 1169,-129.75 1169,-110.5 1266.75,-110.5 1266.75,-129.75"/>
<text text-anchor="middle" x="1217.88" y="-116.25" font-family="Helvetica,sans-Serif" font-size="10.00">TFragHistLoop.cxx</text>
</a>
</g>
</g>
<!-- Node1&#45;&gt;Node13 -->
<g id="edge12_Node000001_Node000013" class="edge">
<title>Node1&#45;&gt;Node13</title>
<g id="a_edge12_Node000001_Node000013"><a xlink:title=" ">
<path fill="none" stroke="#63b8ff" d="M1175.07,-157.89C1185.78,-148.69 1198.69,-137.6 1207.51,-130.02"/>
<polygon fill="#63b8ff" stroke="#63b8ff" points="1172.85,-155.19 1167.54,-164.36 1177.41,-160.5 1172.85,-155.19"/>
</a>
</g>
</g>
<!-- Node14 -->
<g id="Node000014" class="node">
<title>Node14</title>
<g id="a_Node000014"><a xlink:href="_t_frag_write_loop_8cxx.html" target="_top" xlink:title=" ">
<polygon fill="white" stroke="#666666" points="1387,-129.75 1284.75,-129.75 1284.75,-110.5 1387,-110.5 1387,-129.75"/>
<text text-anchor="middle" x="1335.88" y="-116.25" font-family="Helvetica,sans-Serif" font-size="10.00">TFragWriteLoop.cxx</text>
</a>
</g>
</g>
<!-- Node1&#45;&gt;Node14 -->
<g id="edge13_Node000001_Node000014" class="edge">
<title>Node1&#45;&gt;Node14</title>
<g id="a_edge13_Node000001_Node000014"><a xlink:title=" ">
<path fill="none" stroke="#63b8ff" d="M1194.65,-162.9C1227.75,-153.11 1274.72,-139.22 1305.24,-130.19"/>
<polygon fill="#63b8ff" stroke="#63b8ff" points="1194.05,-159.43 1185.45,-165.63 1196.03,-166.14 1194.05,-159.43"/>
</a>
</g>
</g>
<!-- Node15 -->
<g id="Node000015" class="node">
<title>Node15</title>
<g id="a_Node000015"><a xlink:href="_t_g_r_s_i_helper_8h.html" target="_top" xlink:title=" ">
<polygon fill="white" stroke="#666666" points="1486.88,-129.75 1404.88,-129.75 1404.88,-110.5 1486.88,-110.5 1486.88,-129.75"/>
<text text-anchor="middle" x="1445.88" y="-116.25" font-family="Helvetica,sans-Serif" font-size="10.00">TGRSIHelper.h</text>
</a>
</g>
</g>
<!-- Node1&#45;&gt;Node15 -->
<g id="edge14_Node000001_Node000015" class="edge">
<title>Node1&#45;&gt;Node15</title>
<g id="a_edge14_Node000001_Node000015"><a xlink:title=" ">
<path fill="none" stroke="#63b8ff" d="M1195.53,-167.09C1250.33,-157.03 1348.73,-138.96 1404.45,-128.73"/>
<polygon fill="#63b8ff" stroke="#63b8ff" points="1194.9,-163.65 1185.7,-168.9 1196.17,-170.54 1194.9,-163.65"/>
</a>
</g>
</g>
<!-- Node42 -->
<g id="Node000042" class="node">
<title>Node42</title>
<g id="a_Node000042"><a xlink:href="_t_g_r_s_i_selector_8cxx.html" target="_top" xlink:title=" ">
<polygon fill="white" stroke="#666666" points="1603.12,-129.75 1504.62,-129.75 1504.62,-110.5 1603.12,-110.5 1603.12,-129.75"/>
<text text-anchor="middle" x="1553.88" y="-116.25" font-family="Helvetica,sans-Serif" font-size="10.00">TGRSISelector.cxx</text>
</a>
</g>
</g>
<!-- Node1&#45;&gt;Node42 -->
<g id="edge41_Node000001_Node000042" class="edge">
<title>Node1&#45;&gt;Node42</title>
<g id="a_edge41_Node000001_Node000042"><a xlink:title=" ">
<path fill="none" stroke="#63b8ff" d="M1195.15,-169.44C1258.49,-161.44 1387.09,-144.98 1495.88,-129.75 1498.6,-129.37 1501.39,-128.97 1504.21,-128.57"/>
<polygon fill="#63b8ff" stroke="#63b8ff" points="1195.09,-165.92 1185.61,-170.65 1195.97,-172.87 1195.09,-165.92"/>
</a>
</g>
</g>
<!-- Node43 -->
<g id="Node000043" class="node">
<title>Node43</title>
<g id="a_Node000043"><a xlink:href="_t_g_r_s_iint_8cxx.html" target="_top" xlink:title=" ">
<polygon fill="white" stroke="#666666" points="1694.38,-129.75 1621.38,-129.75 1621.38,-110.5 1694.38,-110.5 1694.38,-129.75"/>
<text text-anchor="middle" x="1657.88" y="-116.25" font-family="Helvetica,sans-Serif" font-size="10.00">TGRSIint.cxx</text>
</a>
</g>
</g>
<!-- Node1&#45;&gt;Node43 -->
<g id="edge42_Node000001_Node000043" class="edge">
<title>Node1&#45;&gt;Node43</title>
<g id="a_edge42_Node000001_Node000043"><a xlink:title=" ">
<path fill="none" stroke="#63b8ff" d="M1195.35,-171.68C1274.58,-166.03 1458.51,-151.59 1611.88,-129.75 1614.85,-129.33 1617.93,-128.84 1621.01,-128.33"/>
<polygon fill="#63b8ff" stroke="#63b8ff" points="1195.24,-168.18 1185.51,-172.38 1195.73,-175.17 1195.24,-168.18"/>
</a>
</g>
</g>
<!-- Node44 -->
<g id="Node000044" class="node">
<title>Node44</title>
<g id="a_Node000044"><a xlink:href="_t_griffin_bgo_hit_8cxx.html" target="_top" xlink:title=" ">
<polygon fill="white" stroke="#666666" points="1805.5,-129.75 1712.25,-129.75 1712.25,-110.5 1805.5,-110.5 1805.5,-129.75"/>
<text text-anchor="middle" x="1758.88" y="-116.25" font-family="Helvetica,sans-Serif" font-size="10.00">TGriffinBgoHit.cxx</text>
</a>
</g>
</g>
<!-- Node1&#45;&gt;Node44 -->
<g id="edge43_Node000001_Node000044" class="edge">
<title>Node1&#45;&gt;Node44</title>
<g id="a_edge43_Node000001_Node000044"><a xlink:title=" ">
<path fill="none" stroke="#63b8ff" d="M1195.43,-172.12C1285.62,-166.77 1513.37,-152.04 1702.88,-129.75 1705.81,-129.41 1708.82,-129.02 1711.85,-128.62"/>
<polygon fill="#63b8ff" stroke="#63b8ff" points="1195.42,-168.61 1185.64,-172.7 1195.83,-175.6 1195.42,-168.61"/>
</a>
</g>
</g>
<!-- Node45 -->
<g id="Node000045" class="node">
<title>Node45</title>
<g id="a_Node000045"><a xlink:href="_t_ifin_bgo_hit_8cxx.html" target="_top" xlink:title=" ">
<polygon fill="white" stroke="#666666" points="1904.5,-129.75 1823.25,-129.75 1823.25,-110.5 1904.5,-110.5 1904.5,-129.75"/>
<text text-anchor="middle" x="1863.88" y="-116.25" font-family="Helvetica,sans-Serif" font-size="10.00">TIfinBgoHit.cxx</text>
</a>
</g>
</g>
<!-- Node1&#45;&gt;Node45 -->
<g id="edge44_Node000001_Node000045" class="edge">
<title>Node1&#45;&gt;Node45</title>
<g id="a_edge44_Node000001_Node000045"><a xlink:title=" ">
<path fill="none" stroke="#63b8ff" d="M1195.58,-173.16C1298.3,-169.71 1581.09,-158.16 1814.88,-129.75 1817.45,-129.44 1820.09,-129.08 1822.75,-128.69"/>
<polygon fill="#63b8ff" stroke="#63b8ff" points="1195.63,-169.66 1185.75,-173.49 1195.86,-176.65 1195.63,-169.66"/>
</a>
</g>
</g>
<!-- Node46 -->
<g id="Node000046" class="node">
<title>Node46</title>
<g id="a_Node000046"><a xlink:href="_t_la_br_bgo_hit_8cxx.html" target="_top" xlink:title=" ">
<polygon fill="white" stroke="#666666" points="2011.62,-129.75 1922.12,-129.75 1922.12,-110.5 2011.62,-110.5 2011.62,-129.75"/>
<text text-anchor="middle" x="1966.88" y="-116.25" font-family="Helvetica,sans-Serif" font-size="10.00">TLaBrBgoHit.cxx</text>
</a>
</g>
</g>
<!-- Node1&#45;&gt;Node46 -->
<g id="edge45_Node000001_Node000046" class="edge">
<title>Node1&#45;&gt;Node46</title>
<g id="a_edge45_Node000001_Node000046"><a xlink:title=" ">
<path fill="none" stroke="#63b8ff" d="M1195.63,-173.47C1308.45,-170.59 1640.17,-160 1913.88,-129.75 1916.47,-129.46 1919.13,-129.14 1921.81,-128.78"/>
<polygon fill="#63b8ff" stroke="#63b8ff" points="1195.61,-169.97 1185.7,-173.72 1195.78,-176.97 1195.61,-169.97"/>
</a>
</g>
</g>
<!-- Node47 -->
<g id="Node000047" class="node">
<title>Node47</title>
<g id="a_Node000047"><a xlink:href="_t_runtime_objects_8cxx.html" target="_top" xlink:title=" ">
<polygon fill="white" stroke="#666666" points="2138,-129.75 2029.75,-129.75 2029.75,-110.5 2138,-110.5 2138,-129.75"/>
<text text-anchor="middle" x="2083.88" y="-116.25" font-family="Helvetica,sans-Serif" font-size="10.00">TRuntimeObjects.cxx</text>
</a>
</g>
</g>
<!-- Node1&#45;&gt;Node47 -->
<g id="edge46_Node000001_Node000047" class="edge">
<title>Node1&#45;&gt;Node47</title>
<g id="a_edge46_Node000001_Node000047"><a xlink:title=" ">
<path fill="none" stroke="#63b8ff" d="M1195.3,-173.53C1317.89,-170.64 1703.21,-159.64 2020.88,-129.75 2023.62,-129.49 2026.43,-129.2 2029.27,-128.89"/>
<polygon fill="#63b8ff" stroke="#63b8ff" points="1195.37,-170.02 1185.45,-173.75 1195.53,-177.02 1195.37,-170.02"/>
</a>
</g>
</g>
<!-- Node48 -->
<g id="Node000048" class="node">
<title>Node48</title>
<g id="a_Node000048"><a xlink:href="_t_zero_degree_hit_8cxx.html" target="_top" xlink:title=" ">
<polygon fill="white" stroke="#666666" points="2257.62,-129.75 2156.12,-129.75 2156.12,-110.5 2257.62,-110.5 2257.62,-129.75"/>
<text text-anchor="middle" x="2206.88" y="-116.25" font-family="Helvetica,sans-Serif" font-size="10.00">TZeroDegreeHit.cxx</text>
</a>
</g>
</g>
<!-- Node1&#45;&gt;Node48 -->
<g id="edge47_Node000001_Node000048" class="edge">
<title>Node1&#45;&gt;Node48</title>
<g id="a_edge47_Node000001_Node000048"><a xlink:title=" ">
<path fill="none" stroke="#63b8ff" d="M1195.15,-173.98C1328.75,-172.36 1777.79,-164.5 2146.88,-129.75 2149.81,-129.47 2152.82,-129.15 2155.85,-128.81"/>
<polygon fill="#63b8ff" stroke="#63b8ff" points="1195.4,-170.48 1185.44,-174.1 1195.48,-177.48 1195.4,-170.48"/>
</a>
</g>
</g>
<!-- Node3 -->
<g id="Node000003" class="node">
<title>Node3</title>
<g id="a_Node000003"><a xlink:href="_fast_timing_hist_selector_8_c.html" target="_top" xlink:title=" ">
<polygon fill="white" stroke="#666666" points="127.75,-74.5 0,-74.5 0,-55.25 127.75,-55.25 127.75,-74.5"/>
<text text-anchor="middle" x="63.88" y="-61" font-family="Helvetica,sans-Serif" font-size="10.00">FastTimingHistSelector.C</text>
</a>
</g>
</g>
<!-- Node2&#45;&gt;Node3 -->
<g id="edge2_Node000002_Node000003" class="edge">
<title>Node2&#45;&gt;Node3</title>
<g id="a_edge2_Node000002_Node000003"><a xlink:title=" ">
<path fill="none" stroke="#63b8ff" d="M63.88,-98.88C63.88,-90.59 63.88,-81.42 63.88,-74.86"/>
<polygon fill="#63b8ff" stroke="#63b8ff" points="60.38,-98.82 63.88,-108.82 67.38,-98.82 60.38,-98.82"/>
</a>
</g>
</g>
<!-- Node16 -->
<g id="Node000016" class="node">
<title>Node16</title>
<g id="a_Node000016"><a xlink:href="_alphanumeric_helper_8hh.html" target="_top" xlink:title=" ">
<polygon fill="white" stroke="#666666" points="627.12,-74.5 510.62,-74.5 510.62,-55.25 627.12,-55.25 627.12,-74.5"/>
<text text-anchor="middle" x="568.88" y="-61" font-family="Helvetica,sans-Serif" font-size="10.00">AlphanumericHelper.hh</text>
</a>
</g>
</g>
<!-- Node15&#45;&gt;Node16 -->
<g id="edge15_Node000015_Node000016" class="edge">
<title>Node15&#45;&gt;Node16</title>
<g id="a_edge15_Node000015_Node000016"><a xlink:title=" ">
<path fill="none" stroke="#63b8ff" d="M1393.47,-110.38C1058.72,-74.39 970.29,-103.13 637.88,-74.5 634.51,-74.21 631.05,-73.88 627.57,-73.52"/>
<polygon fill="#63b8ff" stroke="#63b8ff" points="1392.63,-113.81 1402.95,-111.41 1393.39,-106.85 1392.63,-113.81"/>
</a>
</g>
</g>
<!-- Node18 -->
<g id="Node000018" class="node">
<title>Node18</title>
<g id="a_Node000018"><a xlink:href="_angular_correlation_helper_8hh.html" target="_top" xlink:title=" ">
<polygon fill="white" stroke="#666666" points="783.25,-74.5 646.5,-74.5 646.5,-55.25 783.25,-55.25 783.25,-74.5"/>
<text text-anchor="middle" x="714.88" y="-61" font-family="Helvetica,sans-Serif" font-size="10.00">AngularCorrelationHelper.hh</text>
</a>
</g>
</g>
<!-- Node15&#45;&gt;Node18 -->
<g id="edge17_Node000015_Node000018" class="edge">
<title>Node15&#45;&gt;Node18</title>
<g id="a_edge17_Node000015_Node000018"><a xlink:title=" ">
<path fill="none" stroke="#63b8ff" d="M1393.26,-110.33C1126.81,-80.08 1056.15,-97.16 791.88,-74.5 789.19,-74.27 786.46,-74.02 783.7,-73.76"/>
<polygon fill="#63b8ff" stroke="#63b8ff" points="1392.62,-113.78 1402.95,-111.44 1393.42,-106.82 1392.62,-113.78"/>
</a>
</g>
</g>
<!-- Node20 -->
<g id="Node000020" class="node">
<title>Node20</title>
<g id="a_Node000020"><a xlink:href="_compton_polarimetry_helper_8hh.html" target="_top" xlink:title=" ">
<polygon fill="white" stroke="#666666" points="946.38,-74.5 801.38,-74.5 801.38,-55.25 946.38,-55.25 946.38,-74.5"/>
<text text-anchor="middle" x="873.88" y="-61" font-family="Helvetica,sans-Serif" font-size="10.00">ComptonPolarimetryHelper.hh</text>
</a>
</g>
</g>
<!-- Node15&#45;&gt;Node20 -->
<g id="edge19_Node000015_Node000020" class="edge">
<title>Node15&#45;&gt;Node20</title>
<g id="a_edge19_Node000015_Node000020"><a xlink:title=" ">
<path fill="none" stroke="#63b8ff" d="M1393.27,-110.28C1198.88,-86.02 1147.03,-92.57 954.88,-74.5 952.2,-74.25 949.48,-73.99 946.72,-73.72"/>
<polygon fill="#63b8ff" stroke="#63b8ff" points="1392.59,-113.72 1402.94,-111.5 1393.46,-106.77 1392.59,-113.72"/>
</a>
</g>
</g>
<!-- Node21 -->
<g id="Node000021" class="node">
<title>Node21</title>
<g id="a_Node000021"><a xlink:href="_cross_talk_helper_8hh.html" target="_top" xlink:title=" ">
<polygon fill="white" stroke="#666666" points="1065.62,-74.5 964.12,-74.5 964.12,-55.25 1065.62,-55.25 1065.62,-74.5"/>
<text text-anchor="middle" x="1014.88" y="-61" font-family="Helvetica,sans-Serif" font-size="10.00">CrossTalkHelper.hh</text>
</a>
</g>
</g>
<!-- Node15&#45;&gt;Node21 -->
<g id="edge20_Node000015_Node000021" class="edge">
<title>Node15&#45;&gt;Node21</title>
<g id="a_edge20_Node000015_Node000021"><a xlink:title=" ">
<path fill="none" stroke="#63b8ff" d="M1393.17,-110.19C1251.82,-90.4 1213.66,-92.25 1074.88,-74.5 1071.95,-74.13 1068.95,-73.73 1065.92,-73.32"/>
<polygon fill="#63b8ff" stroke="#63b8ff" points="1392.54,-113.64 1402.93,-111.57 1393.52,-106.71 1392.54,-113.64"/>
</a>
</g>
</g>
<!-- Node23 -->
<g id="Node000023" class="node">
<title>Node23</title>
<g id="a_Node000023"><a xlink:href="_directory_helper_8hh.html" target="_top" xlink:title=" ">
<polygon fill="white" stroke="#666666" points="1179.62,-74.5 1084.12,-74.5 1084.12,-55.25 1179.62,-55.25 1179.62,-74.5"/>
<text text-anchor="middle" x="1131.88" y="-61" font-family="Helvetica,sans-Serif" font-size="10.00">DirectoryHelper.hh</text>
</a>
</g>
</g>
<!-- Node15&#45;&gt;Node23 -->
<g id="edge22_Node000015_Node000023" class="edge">
<title>Node15&#45;&gt;Node23</title>
<g id="a_edge22_Node000015_Node000023"><a xlink:title=" ">
<path fill="none" stroke="#63b8ff" d="M1393.08,-110.03C1312.71,-96.31 1230.61,-82.47 1180.06,-73.97"/>
<polygon fill="#63b8ff" stroke="#63b8ff" points="1392.47,-113.47 1402.91,-111.71 1393.65,-106.57 1392.47,-113.47"/>
</a>
</g>
</g>
<!-- Node25 -->
<g id="Node000025" class="node">
<title>Node25</title>
<g id="a_Node000025"><a xlink:href="_efficiency_helper_8hh.html" target="_top" xlink:title=" ">
<polygon fill="white" stroke="#666666" points="1295.75,-74.5 1198,-74.5 1198,-55.25 1295.75,-55.25 1295.75,-74.5"/>
<text text-anchor="middle" x="1246.88" y="-61" font-family="Helvetica,sans-Serif" font-size="10.00">EfficiencyHelper.hh</text>
</a>
</g>
</g>
<!-- Node15&#45;&gt;Node25 -->
<g id="edge24_Node000015_Node000025" class="edge">
<title>Node15&#45;&gt;Node25</title>
<g id="a_edge24_Node000015_Node000025"><a xlink:title=" ">
<path fill="none" stroke="#63b8ff" d="M1401.29,-107.2C1364.82,-97.44 1314.02,-83.84 1280.8,-74.95"/>
<polygon fill="#63b8ff" stroke="#63b8ff" points="1400.09,-110.5 1410.66,-109.7 1401.9,-103.73 1400.09,-110.5"/>
</a>
</g>
</g>
<!-- Node27 -->
<g id="Node000027" class="node">
<title>Node27</title>
<g id="a_Node000027"><a xlink:href="_example_event_helper_8hh.html" target="_top" xlink:title=" ">
<polygon fill="white" stroke="#666666" points="1432.25,-74.5 1313.5,-74.5 1313.5,-55.25 1432.25,-55.25 1432.25,-74.5"/>
<text text-anchor="middle" x="1372.88" y="-61" font-family="Helvetica,sans-Serif" font-size="10.00">ExampleEventHelper.hh</text>
</a>
</g>
</g>
<!-- Node15&#45;&gt;Node27 -->
<g id="edge26_Node000015_Node000027" class="edge">
<title>Node15&#45;&gt;Node27</title>
<g id="a_edge26_Node000015_Node000027"><a xlink:title=" ">
<path fill="none" stroke="#63b8ff" d="M1424.41,-103.47C1411.59,-94.12 1395.78,-82.58 1385.08,-74.77"/>
<polygon fill="#63b8ff" stroke="#63b8ff" points="1422.13,-106.13 1432.27,-109.2 1426.25,-100.48 1422.13,-106.13"/>
</a>
</g>
</g>
<!-- Node29 -->
<g id="Node000029" class="node">
<title>Node29</title>
<g id="a_Node000029"><a xlink:href="_example_fragment_helper_8hh.html" target="_top" xlink:title=" ">
<polygon fill="white" stroke="#666666" points="1585.5,-74.5 1450.25,-74.5 1450.25,-55.25 1585.5,-55.25 1585.5,-74.5"/>
<text text-anchor="middle" x="1517.88" y="-61" font-family="Helvetica,sans-Serif" font-size="10.00">ExampleFragmentHelper.hh</text>
</a>
</g>
</g>
<!-- Node15&#45;&gt;Node29 -->
<g id="edge28_Node000015_Node000029" class="edge">
<title>Node15&#45;&gt;Node29</title>
<g id="a_edge28_Node000015_Node000029"><a xlink:title=" ">
<path fill="none" stroke="#63b8ff" d="M1467.05,-103.47C1479.69,-94.12 1495.28,-82.58 1505.84,-74.77"/>
<polygon fill="#63b8ff" stroke="#63b8ff" points="1465.26,-100.43 1459.31,-109.19 1469.43,-106.06 1465.26,-100.43"/>
</a>
</g>
</g>
<!-- Node31 -->
<g id="Node000031" class="node">
<title>Node31</title>
<g id="a_Node000031"><a xlink:href="_example_tree_helper_8hh.html" target="_top" xlink:title=" ">
<polygon fill="white" stroke="#666666" points="1716.62,-74.5 1603.12,-74.5 1603.12,-55.25 1716.62,-55.25 1716.62,-74.5"/>
<text text-anchor="middle" x="1659.88" y="-61" font-family="Helvetica,sans-Serif" font-size="10.00">ExampleTreeHelper.hh</text>
</a>
</g>
</g>
<!-- Node15&#45;&gt;Node31 -->
<g id="edge30_Node000015_Node000031" class="edge">
<title>Node15&#45;&gt;Node31</title>
<g id="a_edge30_Node000015_Node000031"><a xlink:title=" ">
<path fill="none" stroke="#63b8ff" d="M1493.31,-107.32C1532.56,-97.55 1587.52,-83.88 1623.39,-74.95"/>
<polygon fill="#63b8ff" stroke="#63b8ff" points="1492.5,-103.92 1483.65,-109.73 1494.2,-110.71 1492.5,-103.92"/>
</a>
</g>
</g>
<!-- Node33 -->
<g id="Node000033" class="node">
<title>Node33</title>
<g id="a_Node000033"><a xlink:href="_griffin_k_value_helper_8hh.html" target="_top" xlink:title=" ">
<polygon fill="white" stroke="#666666" points="1848.62,-74.5 1735.12,-74.5 1735.12,-55.25 1848.62,-55.25 1848.62,-74.5"/>
<text text-anchor="middle" x="1791.88" y="-61" font-family="Helvetica,sans-Serif" font-size="10.00">GriffinKValueHelper.hh</text>
</a>
</g>
</g>
<!-- Node15&#45;&gt;Node33 -->
<g id="edge32_Node000015_Node000033" class="edge">
<title>Node15&#45;&gt;Node33</title>
<g id="a_edge32_Node000015_Node000033"><a xlink:title=" ">
<path fill="none" stroke="#63b8ff" d="M1498.62,-110.08C1586.7,-95.93 1677.59,-82.45 1734.8,-74.11"/>
<polygon fill="#63b8ff" stroke="#63b8ff" points="1498.14,-106.61 1488.83,-111.66 1499.26,-113.53 1498.14,-106.61"/>
</a>
</g>
</g>
<!-- Node35 -->
<g id="Node000035" class="node">
<title>Node35</title>
<g id="a_Node000035"><a xlink:href="_t_data_frame_library_8h.html" target="_top" xlink:title=" ">
<polygon fill="white" stroke="#666666" points="1973.25,-74.5 1866.5,-74.5 1866.5,-55.25 1973.25,-55.25 1973.25,-74.5"/>
<text text-anchor="middle" x="1919.88" y="-61" font-family="Helvetica,sans-Serif" font-size="10.00">TDataFrameLibrary.h</text>
</a>
</g>
</g>
<!-- Node15&#45;&gt;Node35 -->
<g id="edge34_Node000015_Node000035" class="edge">
<title>Node15&#45;&gt;Node35</title>
<g id="a_edge34_Node000015_Node000035"><a xlink:title=" ">
<path fill="none" stroke="#63b8ff" d="M1498.49,-110.23C1658,-88.95 1700.94,-93.21 1857.88,-74.5 1860.57,-74.18 1863.33,-73.84 1866.12,-73.48"/>
<polygon fill="#63b8ff" stroke="#63b8ff" points="1498.25,-106.73 1488.81,-111.54 1499.19,-113.67 1498.25,-106.73"/>
</a>
</g>
</g>
<!-- Node38 -->
<g id="Node000038" class="node">
<title>Node38</title>
<g id="a_Node000038"><a xlink:href="_t_g_r_s_i_helper_8cxx.html" target="_top" xlink:title=" ">
<polygon fill="white" stroke="#666666" points="2082.38,-74.5 1991.38,-74.5 1991.38,-55.25 2082.38,-55.25 2082.38,-74.5"/>
<text text-anchor="middle" x="2036.88" y="-61" font-family="Helvetica,sans-Serif" font-size="10.00">TGRSIHelper.cxx</text>
</a>
</g>
</g>
<!-- Node15&#45;&gt;Node38 -->
<g id="edge37_Node000015_Node000038" class="edge">
<title>Node15&#45;&gt;Node38</title>
<g id="a_edge37_Node000015_Node000038"><a xlink:title=" ">
<path fill="none" stroke="#63b8ff" d="M1498.62,-110.28C1712.8,-84.57 1770.38,-98.87 1981.88,-74.5 1984.85,-74.16 1987.91,-73.77 1991,-73.36"/>
<polygon fill="#63b8ff" stroke="#63b8ff" points="1498.31,-106.79 1488.8,-111.48 1499.15,-113.74 1498.31,-106.79"/>
</a>
</g>
</g>
<!-- Node39 -->
<g id="Node000039" class="node">
<title>Node39</title>
<g id="a_Node000039"><a xlink:href="_test_helper_8hh.html" target="_top" xlink:title=" ">
<polygon fill="white" stroke="#666666" points="2177.25,-74.5 2100.5,-74.5 2100.5,-55.25 2177.25,-55.25 2177.25,-74.5"/>
<text text-anchor="middle" x="2138.88" y="-61" font-family="Helvetica,sans-Serif" font-size="10.00">TestHelper.hh</text>
</a>
</g>
</g>
<!-- Node15&#45;&gt;Node39 -->
<g id="edge38_Node000015_Node000039" class="edge">
<title>Node15&#45;&gt;Node39</title>
<g id="a_edge38_Node000015_Node000039"><a xlink:title=" ">
<path fill="none" stroke="#63b8ff" d="M1498.72,-110.31C1761.02,-80.66 1831.55,-105.54 2090.88,-74.5 2093.9,-74.14 2097.03,-73.71 2100.16,-73.23"/>
<polygon fill="#63b8ff" stroke="#63b8ff" points="1498.33,-106.83 1488.8,-111.44 1499.13,-113.78 1498.33,-106.83"/>
</a>
</g>
</g>
<!-- Node40 -->
<g id="Node000040" class="node">
<title>Node40</title>
<g id="a_Node000040"><a xlink:href="_time_walk_helper_8hh.html" target="_top" xlink:title=" ">
<polygon fill="white" stroke="#666666" points="2296.25,-74.5 2195.5,-74.5 2195.5,-55.25 2296.25,-55.25 2296.25,-74.5"/>
<text text-anchor="middle" x="2245.88" y="-61" font-family="Helvetica,sans-Serif" font-size="10.00">TimeWalkHelper.hh</text>
</a>
</g>
</g>
<!-- Node15&#45;&gt;Node40 -->
<g id="edge39_Node000015_Node000040" class="edge">
<title>Node15&#45;&gt;Node40</title>
<g id="a_edge39_Node000015_Node000040"><a xlink:title=" ">
<path fill="none" stroke="#63b8ff" d="M1498.68,-110.33C1803.02,-77.02 1883.98,-104.01 2185.88,-74.5 2188.91,-74.2 2192.03,-73.86 2195.18,-73.49"/>
<polygon fill="#63b8ff" stroke="#63b8ff" points="1498.35,-106.84 1488.8,-111.42 1499.12,-113.8 1498.35,-106.84"/>
</a>
</g>
</g>
<!-- Node17 -->
<g id="Node000017" class="node">
<title>Node17</title>
<g id="a_Node000017"><a xlink:href="_alphanumeric_helper_8cxx.html" target="_top" xlink:title=" ">
<polygon fill="white" stroke="#666666" points="628,-19.25 507.75,-19.25 507.75,0 628,0 628,-19.25"/>
<text text-anchor="middle" x="567.88" y="-5.75" font-family="Helvetica,sans-Serif" font-size="10.00">AlphanumericHelper.cxx</text>
</a>
</g>
</g>
<!-- Node16&#45;&gt;Node17 -->
<g id="edge16_Node000016_Node000017" class="edge">
<title>Node16&#45;&gt;Node17</title>
<g id="a_edge16_Node000016_Node000017"><a xlink:title=" ">
<path fill="none" stroke="#63b8ff" d="M568.49,-43.63C568.34,-35.34 568.17,-26.17 568.04,-19.61"/>
<polygon fill="#63b8ff" stroke="#63b8ff" points="564.99,-43.64 568.68,-53.57 571.99,-43.5 564.99,-43.64"/>
</a>
</g>
</g>
<!-- Node19 -->
<g id="Node000019" class="node">
<title>Node19</title>
<g id="a_Node000019"><a xlink:href="_angular_correlation_helper_8cxx.html" target="_top" xlink:title=" ">
<polygon fill="white" stroke="#666666" points="786.12,-19.25 645.62,-19.25 645.62,0 786.12,0 786.12,-19.25"/>
<text text-anchor="middle" x="715.88" y="-5.75" font-family="Helvetica,sans-Serif" font-size="10.00">AngularCorrelationHelper.cxx</text>
</a>
</g>
</g>
<!-- Node18&#45;&gt;Node19 -->
<g id="edge18_Node000018_Node000019" class="edge">
<title>Node18&#45;&gt;Node19</title>
<g id="a_edge18_Node000018_Node000019"><a xlink:title=" ">
<path fill="none" stroke="#63b8ff" d="M715.26,-43.63C715.41,-35.34 715.58,-26.17 715.71,-19.61"/>
<polygon fill="#63b8ff" stroke="#63b8ff" points="711.76,-43.5 715.07,-53.57 718.76,-43.64 711.76,-43.5"/>
</a>
</g>
</g>
<!-- Node22 -->
<g id="Node000022" class="node">
<title>Node22</title>
<g id="a_Node000022"><a xlink:href="_cross_talk_helper_8cxx.html" target="_top" xlink:title=" ">
<polygon fill="white" stroke="#666666" points="1053.5,-19.25 948.25,-19.25 948.25,0 1053.5,0 1053.5,-19.25"/>
<text text-anchor="middle" x="1000.88" y="-5.75" font-family="Helvetica,sans-Serif" font-size="10.00">CrossTalkHelper.cxx</text>
</a>
</g>
</g>
<!-- Node21&#45;&gt;Node22 -->
<g id="edge21_Node000021_Node000022" class="edge">
<title>Node21&#45;&gt;Node22</title>
<g id="a_edge21_Node000021_Node000022"><a xlink:title=" ">
<path fill="none" stroke="#63b8ff" d="M1009.7,-44.21C1007.49,-35.77 1005,-26.33 1003.24,-19.61"/>
<polygon fill="#63b8ff" stroke="#63b8ff" points="1006.25,-44.84 1012.18,-53.62 1013.02,-43.06 1006.25,-44.84"/>
</a>
</g>
</g>
<!-- Node24 -->
<g id="Node000024" class="node">
<title>Node24</title>
<g id="a_Node000024"><a xlink:href="_directory_helper_8cxx.html" target="_top" xlink:title=" ">
<polygon fill="white" stroke="#666666" points="1170.5,-19.25 1071.25,-19.25 1071.25,0 1170.5,0 1170.5,-19.25"/>
<text text-anchor="middle" x="1120.88" y="-5.75" font-family="Helvetica,sans-Serif" font-size="10.00">DirectoryHelper.cxx</text>
</a>
</g>
</g>
<!-- Node23&#45;&gt;Node24 -->
<g id="edge23_Node000023_Node000024" class="edge">
<title>Node23&#45;&gt;Node24</title>
<g id="a_edge23_Node000023_Node000024"><a xlink:title=" ">
<path fill="none" stroke="#63b8ff" d="M1127.75,-43.92C1126.02,-35.55 1124.1,-26.25 1122.73,-19.61"/>
<polygon fill="#63b8ff" stroke="#63b8ff" points="1124.3,-44.51 1129.75,-53.6 1131.16,-43.1 1124.3,-44.51"/>
</a>
</g>
</g>
<!-- Node26 -->
<g id="Node000026" class="node">
<title>Node26</title>
<g id="a_Node000026"><a xlink:href="_efficiency_helper_8cxx.html" target="_top" xlink:title=" ">
<polygon fill="white" stroke="#666666" points="1289.62,-19.25 1188.12,-19.25 1188.12,0 1289.62,0 1289.62,-19.25"/>
<text text-anchor="middle" x="1238.88" y="-5.75" font-family="Helvetica,sans-Serif" font-size="10.00">EfficiencyHelper.cxx</text>
</a>
</g>
</g>
<!-- Node25&#45;&gt;Node26 -->
<g id="edge25_Node000025_Node000026" class="edge">
<title>Node25&#45;&gt;Node26</title>
<g id="a_edge25_Node000025_Node000026"><a xlink:title=" ">
<path fill="none" stroke="#63b8ff" d="M1243.88,-43.92C1242.62,-35.55 1241.22,-26.25 1240.22,-19.61"/>
<polygon fill="#63b8ff" stroke="#63b8ff" points="1240.38,-44.22 1245.33,-53.59 1247.3,-43.18 1240.38,-44.22"/>
</a>
</g>
</g>
<!-- Node28 -->
<g id="Node000028" class="node">
<title>Node28</title>
<g id="a_Node000028"><a xlink:href="_example_event_helper_8cxx.html" target="_top" xlink:title=" ">
<polygon fill="white" stroke="#666666" points="1430.12,-19.25 1307.62,-19.25 1307.62,0 1430.12,0 1430.12,-19.25"/>
<text text-anchor="middle" x="1368.88" y="-5.75" font-family="Helvetica,sans-Serif" font-size="10.00">ExampleEventHelper.cxx</text>
</a>
</g>
</g>
<!-- Node27&#45;&gt;Node28 -->
<g id="edge27_Node000027_Node000028" class="edge">
<title>Node27&#45;&gt;Node28</title>
<g id="a_edge27_Node000027_Node000028"><a xlink:title=" ">
<path fill="none" stroke="#63b8ff" d="M1371.35,-43.63C1370.73,-35.34 1370.04,-26.17 1369.55,-19.61"/>
<polygon fill="#63b8ff" stroke="#63b8ff" points="1367.86,-43.86 1372.1,-53.57 1374.84,-43.34 1367.86,-43.86"/>
</a>
</g>
</g>
<!-- Node30 -->
<g id="Node000030" class="node">
<title>Node30</title>
<g id="a_Node000030"><a xlink:href="_example_fragment_helper_8cxx.html" target="_top" xlink:title=" ">
<polygon fill="white" stroke="#666666" points="1587.38,-19.25 1448.38,-19.25 1448.38,0 1587.38,0 1587.38,-19.25"/>
<text text-anchor="middle" x="1517.88" y="-5.75" font-family="Helvetica,sans-Serif" font-size="10.00">ExampleFragmentHelper.cxx</text>
</a>
</g>
</g>
<!-- Node29&#45;&gt;Node30 -->
<g id="edge29_Node000029_Node000030" class="edge">
<title>Node29&#45;&gt;Node30</title>
<g id="a_edge29_Node000029_Node000030"><a xlink:title=" ">
<path fill="none" stroke="#63b8ff" d="M1517.88,-43.63C1517.88,-35.34 1517.88,-26.17 1517.88,-19.61"/>
<polygon fill="#63b8ff" stroke="#63b8ff" points="1514.38,-43.57 1517.88,-53.57 1521.38,-43.57 1514.38,-43.57"/>
</a>
</g>
</g>
<!-- Node32 -->
<g id="Node000032" class="node">
<title>Node32</title>
<g id="a_Node000032"><a xlink:href="_example_tree_helper_8cxx.html" target="_top" xlink:title=" ">
<polygon fill="white" stroke="#666666" points="1722.5,-19.25 1605.25,-19.25 1605.25,0 1722.5,0 1722.5,-19.25"/>
<text text-anchor="middle" x="1663.88" y="-5.75" font-family="Helvetica,sans-Serif" font-size="10.00">ExampleTreeHelper.cxx</text>
</a>
</g>
</g>
<!-- Node31&#45;&gt;Node32 -->
<g id="edge31_Node000031_Node000032" class="edge">
<title>Node31&#45;&gt;Node32</title>
<g id="a_edge31_Node000031_Node000032"><a xlink:title=" ">
<path fill="none" stroke="#63b8ff" d="M1661.4,-43.63C1662.02,-35.34 1662.71,-26.17 1663.2,-19.61"/>
<polygon fill="#63b8ff" stroke="#63b8ff" points="1657.91,-43.34 1660.65,-53.57 1664.89,-43.86 1657.91,-43.34"/>
</a>
</g>
</g>
<!-- Node34 -->
<g id="Node000034" class="node">
<title>Node34</title>
<g id="a_Node000034"><a xlink:href="_griffin_k_value_helper_8cxx.html" target="_top" xlink:title=" ">
<polygon fill="white" stroke="#666666" points="1857.5,-19.25 1740.25,-19.25 1740.25,0 1857.5,0 1857.5,-19.25"/>
<text text-anchor="middle" x="1798.88" y="-5.75" font-family="Helvetica,sans-Serif" font-size="10.00">GriffinKValueHelper.cxx</text>
</a>
</g>
</g>
<!-- Node33&#45;&gt;Node34 -->
<g id="edge33_Node000033_Node000034" class="edge">
<title>Node33&#45;&gt;Node34</title>
<g id="a_edge33_Node000033_Node000034"><a xlink:title=" ">
<path fill="none" stroke="#63b8ff" d="M1794.5,-43.92C1795.6,-35.55 1796.82,-26.25 1797.69,-19.61"/>
<polygon fill="#63b8ff" stroke="#63b8ff" points="1791.06,-43.21 1793.23,-53.58 1798,-44.12 1791.06,-43.21"/>
</a>
</g>
</g>
<!-- Node36 -->
<g id="Node000036" class="node">
<title>Node36</title>
<g id="a_Node000036"><a xlink:href="_t_data_frame_library_8cxx.html" target="_top" xlink:title=" ">
<polygon fill="white" stroke="#666666" points="1991.75,-19.25 1876,-19.25 1876,0 1991.75,0 1991.75,-19.25"/>
<text text-anchor="middle" x="1933.88" y="-5.75" font-family="Helvetica,sans-Serif" font-size="10.00">TDataFrameLibrary.cxx</text>
</a>
</g>
</g>
<!-- Node35&#45;&gt;Node36 -->
<g id="edge35_Node000035_Node000036" class="edge">
<title>Node35&#45;&gt;Node36</title>
<g id="a_edge35_Node000035_Node000036"><a xlink:title=" ">
<path fill="none" stroke="#63b8ff" d="M1925.05,-44.21C1927.26,-35.77 1929.75,-26.33 1931.51,-19.61"/>
<polygon fill="#63b8ff" stroke="#63b8ff" points="1921.73,-43.06 1922.57,-53.62 1928.5,-44.84 1921.73,-43.06"/>
</a>
</g>
</g>
<!-- Node37 -->
<g id="Node000037" class="node">
<title>Node37</title>
<g id="a_Node000037"><a xlink:href="_t_g_r_s_i_frame_8cxx.html" target="_top" xlink:title=" ">
<polygon fill="white" stroke="#666666" points="2100,-19.25 2009.75,-19.25 2009.75,0 2100,0 2100,-19.25"/>
<text text-anchor="middle" x="2054.88" y="-5.75" font-family="Helvetica,sans-Serif" font-size="10.00">TGRSIFrame.cxx</text>
</a>
</g>
</g>
<!-- Node35&#45;&gt;Node37 -->
<g id="edge36_Node000035_Node000037" class="edge">
<title>Node35&#45;&gt;Node37</title>
<g id="a_edge36_Node000035_Node000037"><a xlink:title=" ">
<path fill="none" stroke="#63b8ff" d="M1953.37,-50.66C1977.81,-41.02 2010.3,-28.21 2031.86,-19.7"/>
<polygon fill="#63b8ff" stroke="#63b8ff" points="1952.2,-47.36 1944.18,-54.29 1954.77,-53.87 1952.2,-47.36"/>
</a>
</g>
</g>
<!-- Node41 -->
<g id="Node000041" class="node">
<title>Node41</title>
<g id="a_Node000041"><a xlink:href="_time_walk_helper_8cxx.html" target="_top" xlink:title=" ">
<polygon fill="white" stroke="#666666" points="2298.12,-19.25 2193.62,-19.25 2193.62,0 2298.12,0 2298.12,-19.25"/>
<text text-anchor="middle" x="2245.88" y="-5.75" font-family="Helvetica,sans-Serif" font-size="10.00">TimeWalkHelper.cxx</text>
</a>
</g>
</g>
<!-- Node40&#45;&gt;Node41 -->
<g id="edge40_Node000040_Node000041" class="edge">
<title>Node40&#45;&gt;Node41</title>
<g id="a_edge40_Node000040_Node000041"><a xlink:title=" ">
<path fill="none" stroke="#63b8ff" d="M2245.88,-43.63C2245.88,-35.34 2245.88,-26.17 2245.88,-19.61"/>
<polygon fill="#63b8ff" stroke="#63b8ff" points="2242.38,-43.57 2245.88,-53.57 2249.38,-43.57 2242.38,-43.57"/>
</a>
</g>
</g>
</g>
</svg>

<g id="navigator" transform="translate(0 0)" fill="#404254">
  <rect fill="#f2f5e9" fill-opacity="0.5" stroke="#606060" stroke-width=".5" x="0" y="0" width="60" height="60"/>
  <use id="zoomplus" xlink:href="#zoomPlus" x="17" y="9" onmousedown="handleZoom(evt,'in')"/>
  <use id="zoomminus" xlink:href="#zoomMin" x="42" y="9" onmousedown="handleZoom(evt,'out')"/>
  <use id="reset" xlink:href="#resetDef" x="30" y="36" onmousedown="handleReset()"/>
   <use id="arrowup" xlink:href="#arrowUp" x="0" y="0" onmousedown="handlePan(0,-1)"/>
  <use id="arrowright" xlink:href="#arrowRight" x="0" y="0" onmousedown="handlePan(1,0)"/>
  <use id="arrowdown" xlink:href="#arrowDown" x="0" y="0" onmousedown="handlePan(0,1)"/>
  <use id="arrowleft" xlink:href="#arrowLeft" x="0" y="0" onmousedown="handlePan(-1,0)"/>
</g>
<svg viewBox="0 0 15 15" width="100%" height="30px" preserveAspectRatio="xMaxYMin meet">
 <g id="arrow_out" transform="scale(0.3 0.3)">
  <a xlink:href="_g_value_8h__dep__incl_org.svg" target="_base">
   <rect id="button" ry="5" rx="5" y="6" x="6" height="38" width="38"
        fill="#f2f5e9" fill-opacity="0.5" stroke="#606060" stroke-width="1.0"/>
   <path id="arrow"
     d="M 11.500037,31.436501 C 11.940474,20.09759 22.043105,11.32322 32.158766,21.979434 L 37.068811,17.246167 C 37.068811,17.246167 37.088388,32 37.088388,32 L 22.160133,31.978069 C 22.160133,31.978069 26.997745,27.140456 26.997745,27.140456 C 18.528582,18.264221 13.291696,25.230495 11.500037,31.436501 z"
     style="fill:#404040;"/>
  </a>
 </g>
</svg>

<style type='text/css'>
<![CDATA[
[data-mouse-over-selected='false'] { opacity: 0.7; }
[data-mouse-over-selected='true']  { opacity: 1.0; }
]]>
</style>
<script type="application/ecmascript"><![CDATA[
document.addEventListener('DOMContentLoaded', (event) => {
  highlightEdges();
  highlightAdjacentNodes();
});
]]></script>
</svg>
