<?xml version="1.0" encoding="UTF-8" standalone="no"?>
<!DOCTYPE svg PUBLIC "-//W3C//DTD SVG 1.1//EN"
 "http://www.w3.org/Graphics/SVG/1.1/DTD/svg11.dtd">
<!-- Generated by graphviz version 12.2.0 (20241103.1931)
 -->
<!-- Title: Globals.h Pages: 1 -->
<svg width="949pt" height="83pt"
 viewBox="0.00 0.00 948.88 82.50" xmlns="http://www.w3.org/2000/svg" xmlns:xlink="http://www.w3.org/1999/xlink">
<g id="graph0" class="graph" transform="scale(1 1) rotate(0) translate(4 78.5)">
<title>Globals.h</title>
<!-- Node1 -->
<g id="Node000001" class="node">
<title>Node1</title>
<g id="a_Node000001"><a xlink:title=" ">
<polygon fill="#999999" stroke="#666666" points="490,-74.5 433.5,-74.5 433.5,-55.25 490,-55.25 490,-74.5"/>
<text text-anchor="middle" x="461.75" y="-61" font-family="Helvetica,sans-Serif" font-size="10.00">Globals.h</text>
</a>
</g>
</g>
<!-- Node2 -->
<g id="Node000002" class="node">
<title>Node2</title>
<g id="a_Node000002"><a xlink:title=" ">
<polygon fill="#e0e0e0" stroke="#999999" points="53.5,-19.25 0,-19.25 0,0 53.5,0 53.5,-19.25"/>
<text text-anchor="middle" x="26.75" y="-5.75" font-family="Helvetica,sans-Serif" font-size="10.00">iostream</text>
</a>
</g>
</g>
<!-- Node1&#45;&gt;Node2 -->
<g id="edge1_Node000001_Node000002" class="edge">
<title>Node1&#45;&gt;Node2</title>
<g id="a_edge1_Node000001_Node000002"><a xlink:title=" ">
<path fill="none" stroke="#63b8ff" d="M433.03,-61.89C368.86,-57.19 208.82,-44.03 65.01,-19.43"/>
<polygon fill="#63b8ff" stroke="#63b8ff" points="65.74,-16.01 55.29,-17.74 64.55,-22.9 65.74,-16.01"/>
</a>
</g>
</g>
<!-- Node3 -->
<g id="Node000003" class="node">
<title>Node3</title>
<g id="a_Node000003"><a xlink:title=" ">
<polygon fill="#e0e0e0" stroke="#999999" points="121.62,-19.25 71.88,-19.25 71.88,0 121.62,0 121.62,-19.25"/>
<text text-anchor="middle" x="96.75" y="-5.75" font-family="Helvetica,sans-Serif" font-size="10.00">iomanip</text>
</a>
</g>
</g>
<!-- Node1&#45;&gt;Node3 -->
<g id="edge2_Node000001_Node000003" class="edge">
<title>Node1&#45;&gt;Node3</title>
<g id="a_edge2_Node000001_Node000003"><a xlink:title=" ">
<path fill="none" stroke="#63b8ff" d="M433.23,-61.14C377.5,-55.56 250.06,-41.65 133.2,-19.52"/>
<polygon fill="#63b8ff" stroke="#63b8ff" points="133.9,-16.09 123.42,-17.64 132.57,-22.96 133.9,-16.09"/>
</a>
</g>
</g>
<!-- Node4 -->
<g id="Node000004" class="node">
<title>Node4</title>
<g id="a_Node000004"><a xlink:title=" ">
<polygon fill="#e0e0e0" stroke="#999999" points="197.75,-19.25 139.75,-19.25 139.75,0 197.75,0 197.75,-19.25"/>
<text text-anchor="middle" x="168.75" y="-5.75" font-family="Helvetica,sans-Serif" font-size="10.00">stdexcept</text>
</a>
</g>
</g>
<!-- Node1&#45;&gt;Node4 -->
<g id="edge3_Node000001_Node000004" class="edge">
<title>Node1&#45;&gt;Node4</title>
<g id="a_edge3_Node000001_Node000004"><a xlink:title=" ">
<path fill="none" stroke="#63b8ff" d="M433.36,-59.38C388.12,-52.12 296.62,-37.02 209.35,-19.69"/>
<polygon fill="#63b8ff" stroke="#63b8ff" points="210.15,-16.28 199.66,-17.75 208.78,-23.15 210.15,-16.28"/>
</a>
</g>
</g>
<!-- Node5 -->
<g id="Node000005" class="node">
<title>Node5</title>
<g id="a_Node000005"><a xlink:title=" ">
<polygon fill="#e0e0e0" stroke="#999999" points="255.75,-19.25 215.75,-19.25 215.75,0 255.75,0 255.75,-19.25"/>
<text text-anchor="middle" x="235.75" y="-5.75" font-family="Helvetica,sans-Serif" font-size="10.00">string</text>
</a>
</g>
</g>
<!-- Node1&#45;&gt;Node5 -->
<g id="edge4_Node000001_Node000005" class="edge">
<title>Node1&#45;&gt;Node5</title>
<g id="a_edge4_Node000001_Node000005"><a xlink:title=" ">
<path fill="none" stroke="#63b8ff" d="M433.22,-58.03C396.81,-50.44 331.64,-36.41 266.8,-19.65"/>
<polygon fill="#63b8ff" stroke="#63b8ff" points="268.01,-16.35 257.45,-17.21 266.24,-23.12 268.01,-16.35"/>
</a>
</g>
</g>
<!-- Node6 -->
<g id="Node000006" class="node">
<title>Node6</title>
<g id="a_Node000006"><a xlink:title=" ">
<polygon fill="#e0e0e0" stroke="#999999" points="315.88,-19.25 273.62,-19.25 273.62,0 315.88,0 315.88,-19.25"/>
<text text-anchor="middle" x="294.75" y="-5.75" font-family="Helvetica,sans-Serif" font-size="10.00">cstdio</text>
</a>
</g>
</g>
<!-- Node1&#45;&gt;Node6 -->
<g id="edge5_Node000001_Node000006" class="edge">
<title>Node1&#45;&gt;Node6</title>
<g id="a_edge5_Node000001_Node000006"><a xlink:title=" ">
<path fill="none" stroke="#63b8ff" d="M433.42,-54.84C403.92,-45.43 357.77,-30.72 326.92,-20.88"/>
<polygon fill="#63b8ff" stroke="#63b8ff" points="328.33,-17.66 317.74,-17.96 326.21,-24.33 328.33,-17.66"/>
</a>
</g>
</g>
<!-- Node7 -->
<g id="Node000007" class="node">
<title>Node7</title>
<g id="a_Node000007"><a xlink:title=" ">
<polygon fill="#e0e0e0" stroke="#999999" points="378,-19.25 333.5,-19.25 333.5,0 378,0 378,-19.25"/>
<text text-anchor="middle" x="355.75" y="-5.75" font-family="Helvetica,sans-Serif" font-size="10.00">cstdlib</text>
</a>
</g>
</g>
<!-- Node1&#45;&gt;Node7 -->
<g id="edge6_Node000001_Node000007" class="edge">
<title>Node1&#45;&gt;Node7</title>
<g id="a_edge6_Node000001_Node000007"><a xlink:title=" ">
<path fill="none" stroke="#63b8ff" d="M443.77,-54.84C427.4,-46.62 402.96,-34.34 383.99,-24.81"/>
<polygon fill="#63b8ff" stroke="#63b8ff" points="385.68,-21.74 375.17,-20.38 382.54,-28 385.68,-21.74"/>
</a>
</g>
</g>
<!-- Node8 -->
<g id="Node000008" class="node">
<title>Node8</title>
<g id="a_Node000008"><a xlink:title=" ">
<polygon fill="#e0e0e0" stroke="#999999" points="455.5,-19.25 396,-19.25 396,0 455.5,0 455.5,-19.25"/>
<text text-anchor="middle" x="425.75" y="-5.75" font-family="Helvetica,sans-Serif" font-size="10.00">execinfo.h</text>
</a>
</g>
</g>
<!-- Node1&#45;&gt;Node8 -->
<g id="edge7_Node000001_Node000008" class="edge">
<title>Node1&#45;&gt;Node8</title>
<g id="a_edge7_Node000001_Node000008"><a xlink:title=" ">
<path fill="none" stroke="#63b8ff" d="M455.81,-55.08C451.04,-48.03 444.19,-37.9 438.23,-29.08"/>
<polygon fill="#63b8ff" stroke="#63b8ff" points="441.17,-27.19 432.67,-20.86 435.37,-31.11 441.17,-27.19"/>
</a>
</g>
</g>
<!-- Node9 -->
<g id="Node000009" class="node">
<title>Node9</title>
<g id="a_Node000009"><a xlink:title=" ">
<polygon fill="#e0e0e0" stroke="#999999" points="524,-19.25 473.5,-19.25 473.5,0 524,0 524,-19.25"/>
<text text-anchor="middle" x="498.75" y="-5.75" font-family="Helvetica,sans-Serif" font-size="10.00">cxxabi.h</text>
</a>
</g>
</g>
<!-- Node1&#45;&gt;Node9 -->
<g id="edge8_Node000001_Node000009" class="edge">
<title>Node1&#45;&gt;Node9</title>
<g id="a_edge8_Node000001_Node000009"><a xlink:title=" ">
<path fill="none" stroke="#63b8ff" d="M467.86,-55.08C472.81,-47.96 479.95,-37.68 486.12,-28.8"/>
<polygon fill="#63b8ff" stroke="#63b8ff" points="488.81,-31.06 491.64,-20.85 483.06,-27.07 488.81,-31.06"/>
</a>
</g>
</g>
<!-- Node10 -->
<g id="Node000010" class="node">
<title>Node10</title>
<g id="a_Node000010"><a xlink:title=" ">
<polygon fill="#e0e0e0" stroke="#999999" points="593.38,-19.25 542.12,-19.25 542.12,0 593.38,0 593.38,-19.25"/>
<text text-anchor="middle" x="567.75" y="-5.75" font-family="Helvetica,sans-Serif" font-size="10.00">sstream</text>
</a>
</g>
</g>
<!-- Node1&#45;&gt;Node10 -->
<g id="edge9_Node000001_Node000010" class="edge">
<title>Node1&#45;&gt;Node10</title>
<g id="a_edge9_Node000001_Node000010"><a xlink:title=" ">
<path fill="none" stroke="#63b8ff" d="M479.73,-54.84C496.1,-46.62 520.54,-34.34 539.51,-24.81"/>
<polygon fill="#63b8ff" stroke="#63b8ff" points="540.96,-28 548.33,-20.38 537.82,-21.74 540.96,-28"/>
</a>
</g>
</g>
<!-- Node11 -->
<g id="Node000011" class="node">
<title>Node11</title>
<g id="a_Node000011"><a xlink:title=" ">
<polygon fill="#e0e0e0" stroke="#999999" points="648.25,-19.25 611.25,-19.25 611.25,0 648.25,0 648.25,-19.25"/>
<text text-anchor="middle" x="629.75" y="-5.75" font-family="Helvetica,sans-Serif" font-size="10.00">array</text>
</a>
</g>
</g>
<!-- Node1&#45;&gt;Node11 -->
<g id="edge10_Node000001_Node000011" class="edge">
<title>Node1&#45;&gt;Node11</title>
<g id="a_edge10_Node000001_Node000011"><a xlink:title=" ">
<path fill="none" stroke="#63b8ff" d="M490.38,-54.84C516.7,-46.52 557.09,-33.76 600.17,-20.07"/>
<polygon fill="#63b8ff" stroke="#63b8ff" points="600.96,-23.49 609.43,-17.12 598.84,-16.82 600.96,-23.49"/>
</a>
</g>
</g>
<!-- Node12 -->
<g id="Node000012" class="node">
<title>Node12</title>
<g id="a_Node000012"><a xlink:title=" ">
<polygon fill="#e0e0e0" stroke="#999999" points="717,-19.25 666.5,-19.25 666.5,0 717,0 717,-19.25"/>
<text text-anchor="middle" x="691.75" y="-5.75" font-family="Helvetica,sans-Serif" font-size="10.00">memory</text>
</a>
</g>
</g>
<!-- Node1&#45;&gt;Node12 -->
<g id="edge11_Node000001_Node000012" class="edge">
<title>Node1&#45;&gt;Node12</title>
<g id="a_edge11_Node000001_Node000012"><a xlink:title=" ">
<path fill="none" stroke="#63b8ff" d="M490.37,-57.59C526.49,-49.61 590.83,-35.22 655.02,-19.87"/>
<polygon fill="#63b8ff" stroke="#63b8ff" points="655.77,-23.28 664.68,-17.55 654.13,-16.48 655.77,-23.28"/>
</a>
</g>
</g>
<!-- Node13 -->
<g id="Node000013" class="node">
<title>Node13</title>
<g id="a_Node000013"><a xlink:title=" ">
<polygon fill="#e0e0e0" stroke="#999999" points="784.62,-19.25 734.88,-19.25 734.88,0 784.62,0 784.62,-19.25"/>
<text text-anchor="middle" x="759.75" y="-5.75" font-family="Helvetica,sans-Serif" font-size="10.00">unistd.h</text>
</a>
</g>
</g>
<!-- Node1&#45;&gt;Node13 -->
<g id="edge12_Node000001_Node000013" class="edge">
<title>Node1&#45;&gt;Node13</title>
<g id="a_edge12_Node000001_Node000013"><a xlink:title=" ">
<path fill="none" stroke="#63b8ff" d="M490.41,-59.81C537.14,-53.01 632.84,-38.4 723.52,-19.57"/>
<polygon fill="#63b8ff" stroke="#63b8ff" points="724,-23.05 733.07,-17.57 722.56,-16.2 724,-23.05"/>
</a>
</g>
</g>
<!-- Node14 -->
<g id="Node000014" class="node">
<title>Node14</title>
<g id="a_Node000014"><a xlink:title=" ">
<polygon fill="#e0e0e0" stroke="#999999" points="862.5,-19.25 803,-19.25 803,0 862.5,0 862.5,-19.25"/>
<text text-anchor="middle" x="832.75" y="-5.75" font-family="Helvetica,sans-Serif" font-size="10.00">sys/wait.h</text>
</a>
</g>
</g>
<!-- Node1&#45;&gt;Node14 -->
<g id="edge13_Node000001_Node000014" class="edge">
<title>Node1&#45;&gt;Node14</title>
<g id="a_edge13_Node000001_Node000014"><a xlink:title=" ">
<path fill="none" stroke="#63b8ff" d="M490.3,-60.86C546.1,-54.78 673.78,-40.03 791.23,-19.56"/>
<polygon fill="#63b8ff" stroke="#63b8ff" points="791.84,-23.01 801.08,-17.83 790.62,-16.12 791.84,-23.01"/>
</a>
</g>
</g>
<!-- Node15 -->
<g id="Node000015" class="node">
<title>Node15</title>
<g id="a_Node000015"><a xlink:title=" ">
<polygon fill="#e0e0e0" stroke="#999999" points="940.88,-19.25 880.62,-19.25 880.62,0 940.88,0 940.88,-19.25"/>
<text text-anchor="middle" x="910.75" y="-5.75" font-family="Helvetica,sans-Serif" font-size="10.00">sys/prctl.h</text>
</a>
</g>
</g>
<!-- Node1&#45;&gt;Node15 -->
<g id="edge14_Node000001_Node000015" class="edge">
<title>Node1&#45;&gt;Node15</title>
<g id="a_edge14_Node000001_Node000015"><a xlink:title=" ">
<path fill="none" stroke="#63b8ff" d="M490.23,-61.85C555.49,-56.99 721.04,-43.36 869.08,-19.53"/>
<polygon fill="#63b8ff" stroke="#63b8ff" points="869.35,-23.03 878.66,-17.97 868.23,-16.12 869.35,-23.03"/>
</a>
</g>
</g>
</g>
</svg>
