<?xml version="1.0" encoding="UTF-8" standalone="no"?>
<!DOCTYPE svg PUBLIC "-//W3C//DTD SVG 1.1//EN"
 "http://www.w3.org/Graphics/SVG/1.1/DTD/svg11.dtd">
<!-- Generated by graphviz version 12.2.0 (20241103.1931)
 -->
<!-- Title: TAriesHit.h Pages: 1 -->
<!--zoomable 359 -->

<svg id="main" version="1.1" xmlns="http://www.w3.org/2000/svg" xmlns:xlink="http://www.w3.org/1999/xlink" xml:space="preserve" onload="init(evt)">

<style type="text/css"><![CDATA[
.node, .edge {opacity: 0.7;}
.node.selected, .edge.selected {opacity: 1;}
.edge:hover path { stroke: red; }
.edge:hover polygon { stroke: red; fill: red; }
]]></style>

<defs>
  <circle id="rim" cx="0" cy="0" r="7"/>
  <circle id="rim2" cx="0" cy="0" r="3.5"/>
  <g id="zoomPlus">
    <use xlink:href="#rim" fill="#404040"><set attributeName="fill" to="#808080" begin="zoomplus.mouseover" end="zoomplus.mouseout"/></use>
    <path d="M-4,0h8M0,-4v8" fill="none" stroke="white" stroke-width="1.5" pointer-events="none"/>
  </g>
  <g id="zoomMin">
    <use xlink:href="#rim" fill="#404040"><set attributeName="fill" to="#808080" begin="zoomminus.mouseover" end="zoomminus.mouseout"/></use>
    <path d="M-4,0h8" fill="none" stroke="white" stroke-width="1.5" pointer-events="none"/>
  </g>
  <g id="arrowUp" transform="translate(30 24)">
    <use xlink:href="#rim"/>
    <path pointer-events="none" fill="none" stroke="white" stroke-width="1.5" d="M0,-3.0v7 M-2.5,-0.5L0,-3.0L2.5,-0.5"/>
  </g>
  <g id="arrowRight" transform="rotate(90) translate(36 -43)">
    <use xlink:href="#rim"/>
    <path pointer-events="none" fill="none" stroke="white" stroke-width="1.5" d="M0,-3.0v7 M-2.5,-0.5L0,-3.0L2.5,-0.5"/>
  </g>
  <g id="arrowDown" transform="rotate(180) translate(-30 -48)">
    <use xlink:href="#rim"/>
    <path pointer-events="none" fill="none" stroke="white" stroke-width="1.5" d="M0,-3.0v7 M-2.5,-0.5L0,-3.0L2.5,-0.5"/>
  </g>
  <g id="arrowLeft" transform="rotate(270) translate(-36 17)">
    <use xlink:href="#rim"/>
    <path pointer-events="none" fill="none" stroke="white" stroke-width="1.5" d="M0,-3.0v7 M-2.5,-0.5L0,-3.0L2.5,-0.5"/>
  </g>
  <g id="resetDef">
    <use xlink:href="#rim2" fill="#404040"><set attributeName="fill" to="#808080" begin="reset.mouseover" end="reset.mouseout"/></use>
  </g>
</defs>
<script type="application/ecmascript">
var viewWidth = 1499;
var viewHeight = 359;
var sectionId = 'dynsection-0';
</script>
<script type="application/ecmascript" xlink:href="svg.min.js"/>
<svg id="graph" class="graph">
<g id="viewport">
<title>TAriesHit.h</title>
<!-- Node1 -->
<g id="Node000001" class="node">
<title>Node1</title>
<g id="a_Node000001"><a xlink:title=" ">
<polygon fill="#999999" stroke="#666666" points="679.38,-350.75 614.62,-350.75 614.62,-331.5 679.38,-331.5 679.38,-350.75"/>
<text text-anchor="middle" x="647" y="-337.25" font-family="Helvetica,sans-Serif" font-size="10.00">TAriesHit.h</text>
</a>
</g>
</g>
<!-- Node2 -->
<g id="Node000002" class="node">
<title>Node2</title>
<g id="a_Node000002"><a xlink:title=" ">
<polygon fill="#e0e0e0" stroke="#999999" points="247.12,-19.25 204.88,-19.25 204.88,0 247.12,0 247.12,-19.25"/>
<text text-anchor="middle" x="226" y="-5.75" font-family="Helvetica,sans-Serif" font-size="10.00">cstdio</text>
</a>
</g>
</g>
<!-- Node1&#45;&gt;Node2 -->
<g id="edge1_Node000001_Node000002" class="edge">
<title>Node1&#45;&gt;Node2</title>
<g id="a_edge1_Node000001_Node000002"><a xlink:title=" ">
<path fill="none" stroke="#63b8ff" d="M614.47,-338.15C483.27,-329.77 0,-294.62 0,-231.62 0,-231.62 0,-231.62 0,-119.12 0,-34.28 131.04,-15.74 193.56,-11.72"/>
<polygon fill="#63b8ff" stroke="#63b8ff" points="193.43,-15.23 203.23,-11.19 193.05,-8.24 193.43,-15.23"/>
</a>
</g>
</g>
<!-- Node3 -->
<g id="Node000003" class="node">
<title>Node3</title>
<g id="a_Node000003"><a xlink:title=" ">
<polygon fill="#e0e0e0" stroke="#999999" points="71.5,-129.75 28.5,-129.75 28.5,-110.5 71.5,-110.5 71.5,-129.75"/>
<text text-anchor="middle" x="50" y="-116.25" font-family="Helvetica,sans-Serif" font-size="10.00">cmath</text>
</a>
</g>
</g>
<!-- Node1&#45;&gt;Node3 -->
<g id="edge2_Node000001_Node000003" class="edge">
<title>Node1&#45;&gt;Node3</title>
<g id="a_edge2_Node000001_Node000003"><a xlink:title=" ">
<path fill="none" stroke="#63b8ff" d="M622.48,-331.13C528.28,-296.57 189.49,-172.29 82.57,-133.07"/>
<polygon fill="#63b8ff" stroke="#63b8ff" points="83.84,-129.81 73.25,-129.65 81.43,-136.38 83.84,-129.81"/>
</a>
</g>
</g>
<!-- Node4 -->
<g id="Node000004" class="node">
<title>Node4</title>
<g id="a_Node000004"><a xlink:title=" ">
<polygon fill="#e0e0e0" stroke="#999999" points="689.5,-74.5 646.5,-74.5 646.5,-55.25 689.5,-55.25 689.5,-74.5"/>
<text text-anchor="middle" x="668" y="-61" font-family="Helvetica,sans-Serif" font-size="10.00">vector</text>
</a>
</g>
</g>
<!-- Node1&#45;&gt;Node4 -->
<g id="edge3_Node000001_Node000004" class="edge">
<title>Node1&#45;&gt;Node4</title>
<g id="a_edge3_Node000001_Node000004"><a xlink:title=" ">
<path fill="none" stroke="#63b8ff" d="M647.7,-331C650.66,-292.28 662.24,-141.04 666.46,-86.03"/>
<polygon fill="#63b8ff" stroke="#63b8ff" points="669.93,-86.5 667.2,-76.27 662.95,-85.97 669.93,-86.5"/>
</a>
</g>
</g>
<!-- Node5 -->
<g id="Node000005" class="node">
<title>Node5</title>
<g id="a_Node000005"><a xlink:href="_t_fragment_8h.html" target="_top" xlink:title=" ">
<polygon fill="white" stroke="#666666" points="990.38,-295.5 919.62,-295.5 919.62,-276.25 990.38,-276.25 990.38,-295.5"/>
<text text-anchor="middle" x="955" y="-282" font-family="Helvetica,sans-Serif" font-size="10.00">TFragment.h</text>
</a>
</g>
</g>
<!-- Node1&#45;&gt;Node5 -->
<g id="edge4_Node000001_Node000005" class="edge">
<title>Node1&#45;&gt;Node5</title>
<g id="a_edge4_Node000001_Node000005"><a xlink:title=" ">
<path fill="none" stroke="#63b8ff" d="M679.67,-334.48C734.47,-325 845.1,-305.88 908.16,-294.97"/>
<polygon fill="#63b8ff" stroke="#63b8ff" points="908.61,-298.45 917.87,-293.29 907.42,-291.55 908.61,-298.45"/>
</a>
</g>
</g>
<!-- Node6 -->
<g id="Node000006" class="node">
<title>Node6</title>
<g id="a_Node000006"><a xlink:href="_t_detector_hit_8h.html" target="_top" xlink:title=" ">
<polygon fill="white" stroke="#666666" points="893.5,-240.25 814.5,-240.25 814.5,-221 893.5,-221 893.5,-240.25"/>
<text text-anchor="middle" x="854" y="-226.75" font-family="Helvetica,sans-Serif" font-size="10.00">TDetectorHit.h</text>
</a>
</g>
</g>
<!-- Node1&#45;&gt;Node6 -->
<g id="edge63_Node000001_Node000006" class="edge">
<title>Node1&#45;&gt;Node6</title>
<g id="a_edge63_Node000001_Node000006"><a xlink:title=" ">
<path fill="none" stroke="#63b8ff" d="M664.29,-331.06C700.21,-312.23 783.16,-268.76 826.5,-246.04"/>
<polygon fill="#63b8ff" stroke="#63b8ff" points="828.04,-249.18 835.27,-241.44 824.79,-242.98 828.04,-249.18"/>
</a>
</g>
</g>
<!-- Node7 -->
<g id="Node000007" class="node">
<title>Node7</title>
<g id="a_Node000007"><a xlink:href="_t_channel_8h.html" target="_top" xlink:title=" ">
<polygon fill="white" stroke="#666666" points="452.38,-185 387.62,-185 387.62,-165.75 452.38,-165.75 452.38,-185"/>
<text text-anchor="middle" x="420" y="-171.5" font-family="Helvetica,sans-Serif" font-size="10.00">TChannel.h</text>
</a>
</g>
</g>
<!-- Node1&#45;&gt;Node7 -->
<g id="edge61_Node000001_Node000007" class="edge">
<title>Node1&#45;&gt;Node7</title>
<g id="a_edge61_Node000001_Node000007"><a xlink:title=" ">
<path fill="none" stroke="#63b8ff" d="M634.47,-331.09C597.5,-304.42 488.51,-225.79 441.73,-192.05"/>
<polygon fill="#63b8ff" stroke="#63b8ff" points="443.87,-189.28 433.72,-186.27 439.78,-194.96 443.87,-189.28"/>
</a>
</g>
</g>
<!-- Node17 -->
<g id="Node000017" class="node">
<title>Node17</title>
<g id="a_Node000017"><a xlink:title=" ">
<polygon fill="#e0e0e0" stroke="#999999" points="1490.62,-185 1427.38,-185 1427.38,-165.75 1490.62,-165.75 1490.62,-185"/>
<text text-anchor="middle" x="1459" y="-171.5" font-family="Helvetica,sans-Serif" font-size="10.00">TVector3.h</text>
</a>
</g>
</g>
<!-- Node1&#45;&gt;Node17 -->
<g id="edge62_Node000001_Node000017" class="edge">
<title>Node1&#45;&gt;Node17</title>
<g id="a_edge62_Node000001_Node000017"><a xlink:title=" ">
<path fill="none" stroke="#63b8ff" d="M679.79,-339.28C809.54,-335.42 1286.16,-316.23 1413,-240.25 1430.38,-229.84 1443.05,-210.07 1450.64,-195.27"/>
<polygon fill="#63b8ff" stroke="#63b8ff" points="1453.67,-197.06 1454.8,-186.53 1447.35,-194.06 1453.67,-197.06"/>
</a>
</g>
</g>
<!-- Node5&#45;&gt;Node4 -->
<g id="edge58_Node000005_Node000004" class="edge">
<title>Node5&#45;&gt;Node4</title>
<g id="a_edge58_Node000005_Node000004"><a xlink:title=" ">
<path fill="none" stroke="#63b8ff" d="M919.54,-281.49C864.34,-274.22 758.52,-251.89 704,-185 680.29,-155.92 672.18,-111.47 669.42,-85.89"/>
<polygon fill="#63b8ff" stroke="#63b8ff" points="672.93,-85.87 668.56,-76.21 665.96,-86.49 672.93,-85.87"/>
</a>
</g>
</g>
<!-- Node5&#45;&gt;Node6 -->
<g id="edge5_Node000005_Node000006" class="edge">
<title>Node5&#45;&gt;Node6</title>
<g id="a_edge5_Node000005_Node000006"><a xlink:title=" ">
<path fill="none" stroke="#63b8ff" d="M937.87,-275.84C922.34,-267.66 899.2,-255.46 881.16,-245.94"/>
<polygon fill="#63b8ff" stroke="#63b8ff" points="883.03,-242.98 872.56,-241.41 879.77,-249.17 883.03,-242.98"/>
</a>
</g>
</g>
<!-- Node19 -->
<g id="Node000019" class="node">
<title>Node19</title>
<g id="a_Node000019"><a xlink:title=" ">
<polygon fill="#e0e0e0" stroke="#999999" points="1031.75,-185 978.25,-185 978.25,-165.75 1031.75,-165.75 1031.75,-185"/>
<text text-anchor="middle" x="1005" y="-171.5" font-family="Helvetica,sans-Serif" font-size="10.00">Rtypes.h</text>
</a>
</g>
</g>
<!-- Node5&#45;&gt;Node19 -->
<g id="edge60_Node000005_Node000019" class="edge">
<title>Node5&#45;&gt;Node19</title>
<g id="a_edge60_Node000005_Node000019"><a xlink:title=" ">
<path fill="none" stroke="#63b8ff" d="M956.73,-275.87C959.38,-263.19 965.08,-239.56 974,-221 978.48,-211.67 984.82,-202.15 990.59,-194.3"/>
<polygon fill="#63b8ff" stroke="#63b8ff" points="993.18,-196.67 996.5,-186.61 987.63,-192.41 993.18,-196.67"/>
</a>
</g>
</g>
<!-- Node21 -->
<g id="Node000021" class="node">
<title>Node21</title>
<g id="a_Node000021"><a xlink:href="_t_p_p_g_8h.html" target="_top" xlink:title=" ">
<polygon fill="white" stroke="#666666" points="1100.25,-185 1049.75,-185 1049.75,-165.75 1100.25,-165.75 1100.25,-185"/>
<text text-anchor="middle" x="1075" y="-171.5" font-family="Helvetica,sans-Serif" font-size="10.00">TPPG.h</text>
</a>
</g>
</g>
<!-- Node5&#45;&gt;Node21 -->
<g id="edge56_Node000005_Node000021" class="edge">
<title>Node5&#45;&gt;Node21</title>
<g id="a_edge56_Node000005_Node000021"><a xlink:title=" ">
<path fill="none" stroke="#63b8ff" d="M976.31,-275.77C992.79,-268 1015.52,-255.66 1032,-240.25 1046.02,-227.14 1057.85,-208.64 1065.52,-194.92"/>
<polygon fill="#63b8ff" stroke="#63b8ff" points="1068.41,-196.94 1070.04,-186.47 1062.24,-193.64 1068.41,-196.94"/>
</a>
</g>
</g>
<!-- Node23 -->
<g id="Node000023" class="node">
<title>Node23</title>
<g id="a_Node000023"><a xlink:title=" ">
<polygon fill="#e0e0e0" stroke="#999999" points="1384.75,-19.25 1331.25,-19.25 1331.25,0 1384.75,0 1384.75,-19.25"/>
<text text-anchor="middle" x="1358" y="-5.75" font-family="Helvetica,sans-Serif" font-size="10.00">iostream</text>
</a>
</g>
</g>
<!-- Node5&#45;&gt;Node23 -->
<g id="edge57_Node000005_Node000023" class="edge">
<title>Node5&#45;&gt;Node23</title>
<g id="a_edge57_Node000005_Node000023"><a xlink:title=" ">
<path fill="none" stroke="#63b8ff" d="M990.58,-283.79C1095.94,-279.61 1399,-260.29 1399,-176.38 1399,-176.38 1399,-176.38 1399,-119.12 1399,-85.84 1381.91,-50.3 1369.79,-29.3"/>
<polygon fill="#63b8ff" stroke="#63b8ff" points="1372.82,-27.53 1364.66,-20.78 1366.82,-31.15 1372.82,-27.53"/>
</a>
</g>
</g>
<!-- Node44 -->
<g id="Node000044" class="node">
<title>Node44</title>
<g id="a_Node000044"><a xlink:title=" ">
<polygon fill="#e0e0e0" stroke="#999999" points="1023,-240.25 983,-240.25 983,-221 1023,-221 1023,-240.25"/>
<text text-anchor="middle" x="1003" y="-226.75" font-family="Helvetica,sans-Serif" font-size="10.00">ctime</text>
</a>
</g>
</g>
<!-- Node5&#45;&gt;Node44 -->
<g id="edge59_Node000005_Node000044" class="edge">
<title>Node5&#45;&gt;Node44</title>
<g id="a_edge59_Node000005_Node000044"><a xlink:title=" ">
<path fill="none" stroke="#63b8ff" d="M962.93,-276.08C969.56,-268.73 979.22,-258.01 987.39,-248.94"/>
<polygon fill="#63b8ff" stroke="#63b8ff" points="989.79,-251.5 993.89,-241.73 984.59,-246.82 989.79,-251.5"/>
</a>
</g>
</g>
<!-- Node6&#45;&gt;Node4 -->
<g id="edge6_Node000006_Node000004" class="edge">
<title>Node6&#45;&gt;Node4</title>
<g id="a_edge6_Node000006_Node000004"><a xlink:title=" ">
<path fill="none" stroke="#63b8ff" d="M850.67,-220.5C842.22,-198.54 817.9,-142.23 780,-110.5 757.11,-91.33 724.95,-79.67 700.96,-73.1"/>
<polygon fill="#63b8ff" stroke="#63b8ff" points="701.94,-69.74 691.38,-70.65 700.2,-76.52 701.94,-69.74"/>
</a>
</g>
</g>
<!-- Node6&#45;&gt;Node7 -->
<g id="edge7_Node000006_Node000007" class="edge">
<title>Node6&#45;&gt;Node7</title>
<g id="a_edge7_Node000006_Node000007"><a xlink:title=" ">
<path fill="none" stroke="#63b8ff" d="M814.33,-224.76C733.19,-214.8 548.78,-192.18 464.05,-181.78"/>
<polygon fill="#63b8ff" stroke="#63b8ff" points="464.64,-178.33 454.29,-180.58 463.78,-185.27 464.64,-178.33"/>
</a>
</g>
</g>
<!-- Node6&#45;&gt;Node17 -->
<g id="edge20_Node000006_Node000017" class="edge">
<title>Node6&#45;&gt;Node17</title>
<g id="a_edge20_Node000006_Node000017"><a xlink:title=" ">
<path fill="none" stroke="#63b8ff" d="M893.7,-226.13C1002.24,-216.58 1303.35,-190.08 1415.85,-180.17"/>
<polygon fill="#63b8ff" stroke="#63b8ff" points="1415.91,-183.68 1425.56,-179.32 1415.3,-176.71 1415.91,-183.68"/>
</a>
</g>
</g>
<!-- Node18 -->
<g id="Node000018" class="node">
<title>Node18</title>
<g id="a_Node000018"><a xlink:title=" ">
<polygon fill="#e0e0e0" stroke="#999999" points="905,-74.5 847,-74.5 847,-55.25 905,-55.25 905,-74.5"/>
<text text-anchor="middle" x="876" y="-61" font-family="Helvetica,sans-Serif" font-size="10.00">TObject.h</text>
</a>
</g>
</g>
<!-- Node6&#45;&gt;Node18 -->
<g id="edge21_Node000006_Node000018" class="edge">
<title>Node6&#45;&gt;Node18</title>
<g id="a_edge21_Node000006_Node000018"><a xlink:title=" ">
<path fill="none" stroke="#63b8ff" d="M853.24,-220.53C851.79,-200.42 849.48,-150.79 858,-110.5 859.81,-101.92 863.16,-92.88 866.49,-85.2"/>
<polygon fill="#63b8ff" stroke="#63b8ff" points="869.64,-86.73 870.67,-76.18 863.29,-83.78 869.64,-86.73"/>
</a>
</g>
</g>
<!-- Node6&#45;&gt;Node19 -->
<g id="edge22_Node000006_Node000019" class="edge">
<title>Node6&#45;&gt;Node19</title>
<g id="a_edge22_Node000006_Node000019"><a xlink:title=" ">
<path fill="none" stroke="#63b8ff" d="M879.62,-220.59C904.02,-211.99 941.01,-198.94 968.5,-189.25"/>
<polygon fill="#63b8ff" stroke="#63b8ff" points="969.57,-192.58 977.83,-185.96 967.24,-185.98 969.57,-192.58"/>
</a>
</g>
</g>
<!-- Node20 -->
<g id="Node000020" class="node">
<title>Node20</title>
<g id="a_Node000020"><a xlink:title=" ">
<polygon fill="#e0e0e0" stroke="#999999" points="778.75,-185 713.25,-185 713.25,-165.75 778.75,-165.75 778.75,-185"/>
<text text-anchor="middle" x="746" y="-171.5" font-family="Helvetica,sans-Serif" font-size="10.00">TRandom.h</text>
</a>
</g>
</g>
<!-- Node6&#45;&gt;Node20 -->
<g id="edge23_Node000006_Node000020" class="edge">
<title>Node6&#45;&gt;Node20</title>
<g id="a_edge23_Node000006_Node000020"><a xlink:title=" ">
<path fill="none" stroke="#63b8ff" d="M835.68,-220.59C818.92,-212.33 793.87,-199.98 774.5,-190.43"/>
<polygon fill="#63b8ff" stroke="#63b8ff" points="776.28,-187.4 765.77,-186.12 773.19,-193.68 776.28,-187.4"/>
</a>
</g>
</g>
<!-- Node6&#45;&gt;Node21 -->
<g id="edge24_Node000006_Node000021" class="edge">
<title>Node6&#45;&gt;Node21</title>
<g id="a_edge24_Node000006_Node000021"><a xlink:title=" ">
<path fill="none" stroke="#63b8ff" d="M892.72,-220.55C928.2,-212.21 982.47,-199.34 1038.22,-185.66"/>
<polygon fill="#63b8ff" stroke="#63b8ff" points="1039.05,-189.06 1047.92,-183.27 1037.37,-182.26 1039.05,-189.06"/>
</a>
</g>
</g>
<!-- Node42 -->
<g id="Node000042" class="node">
<title>Node42</title>
<g id="a_Node000042"><a xlink:href="_t_transient_bits_8h.html" target="_top" xlink:title=" ">
<polygon fill="white" stroke="#666666" points="960.62,-185 873.38,-185 873.38,-165.75 960.62,-165.75 960.62,-185"/>
<text text-anchor="middle" x="917" y="-171.5" font-family="Helvetica,sans-Serif" font-size="10.00">TTransientBits.h</text>
</a>
</g>
</g>
<!-- Node6&#45;&gt;Node42 -->
<g id="edge53_Node000006_Node000042" class="edge">
<title>Node6&#45;&gt;Node42</title>
<g id="a_edge53_Node000006_Node000042"><a xlink:title=" ">
<path fill="none" stroke="#63b8ff" d="M864.69,-220.59C873.7,-212.97 886.83,-201.87 897.68,-192.7"/>
<polygon fill="#63b8ff" stroke="#63b8ff" points="899.94,-195.38 905.31,-186.25 895.42,-190.03 899.94,-195.38"/>
</a>
</g>
</g>
<!-- Node7&#45;&gt;Node3 -->
<g id="edge9_Node000007_Node000003" class="edge">
<title>Node7&#45;&gt;Node3</title>
<g id="a_edge9_Node000007_Node000003"><a xlink:title=" ">
<path fill="none" stroke="#63b8ff" d="M387.38,-171.73C328.4,-166.59 199.97,-153.82 83.13,-130.14"/>
<polygon fill="#63b8ff" stroke="#63b8ff" points="83.84,-126.72 73.34,-128.12 82.43,-133.57 83.84,-126.72"/>
</a>
</g>
</g>
<!-- Node8 -->
<g id="Node000008" class="node">
<title>Node8</title>
<g id="a_Node000008"><a xlink:title=" ">
<polygon fill="#e0e0e0" stroke="#999999" points="532,-19.25 492,-19.25 492,0 532,0 532,-19.25"/>
<text text-anchor="middle" x="512" y="-5.75" font-family="Helvetica,sans-Serif" font-size="10.00">string</text>
</a>
</g>
</g>
<!-- Node7&#45;&gt;Node8 -->
<g id="edge8_Node000007_Node000008" class="edge">
<title>Node7&#45;&gt;Node8</title>
<g id="a_edge8_Node000007_Node000008"><a xlink:title=" ">
<path fill="none" stroke="#63b8ff" d="M387.4,-171.89C338.04,-166.76 252.83,-151.78 280,-110.5 325.07,-42.03 428.03,-20.3 480.3,-13.56"/>
<polygon fill="#63b8ff" stroke="#63b8ff" points="480.51,-17.06 490.03,-12.42 479.7,-10.11 480.51,-17.06"/>
</a>
</g>
</g>
<!-- Node9 -->
<g id="Node000009" class="node">
<title>Node9</title>
<g id="a_Node000009"><a xlink:title=" ">
<polygon fill="#e0e0e0" stroke="#999999" points="771.25,-129.75 732.75,-129.75 732.75,-110.5 771.25,-110.5 771.25,-129.75"/>
<text text-anchor="middle" x="752" y="-116.25" font-family="Helvetica,sans-Serif" font-size="10.00">utility</text>
</a>
</g>
</g>
<!-- Node7&#45;&gt;Node9 -->
<g id="edge10_Node000007_Node000009" class="edge">
<title>Node7&#45;&gt;Node9</title>
<g id="a_edge10_Node000007_Node000009"><a xlink:title=" ">
<path fill="none" stroke="#63b8ff" d="M452.74,-169.12C516.98,-158.82 658.72,-136.09 721.29,-126.05"/>
<polygon fill="#63b8ff" stroke="#63b8ff" points="721.54,-129.55 730.86,-124.52 720.43,-122.64 721.54,-129.55"/>
</a>
</g>
</g>
<!-- Node10 -->
<g id="Node000010" class="node">
<title>Node10</title>
<g id="a_Node000010"><a xlink:title=" ">
<polygon fill="#e0e0e0" stroke="#999999" points="371.38,-129.75 288.62,-129.75 288.62,-110.5 371.38,-110.5 371.38,-129.75"/>
<text text-anchor="middle" x="330" y="-116.25" font-family="Helvetica,sans-Serif" font-size="10.00">unordered_map</text>
</a>
</g>
</g>
<!-- Node7&#45;&gt;Node10 -->
<g id="edge11_Node000007_Node000010" class="edge">
<title>Node7&#45;&gt;Node10</title>
<g id="a_edge11_Node000007_Node000010"><a xlink:title=" ">
<path fill="none" stroke="#63b8ff" d="M404.73,-165.34C391.16,-157.31 371.05,-145.41 355.1,-135.98"/>
<polygon fill="#63b8ff" stroke="#63b8ff" points="357.03,-133.05 346.64,-130.97 353.47,-139.08 357.03,-133.05"/>
</a>
</g>
</g>
<!-- Node11 -->
<g id="Node000011" class="node">
<title>Node11</title>
<g id="a_Node000011"><a xlink:title=" ">
<polygon fill="#e0e0e0" stroke="#999999" points="450.5,-129.75 389.5,-129.75 389.5,-110.5 450.5,-110.5 450.5,-129.75"/>
<text text-anchor="middle" x="420" y="-116.25" font-family="Helvetica,sans-Serif" font-size="10.00">TNamed.h</text>
</a>
</g>
</g>
<!-- Node7&#45;&gt;Node11 -->
<g id="edge12_Node000007_Node000011" class="edge">
<title>Node7&#45;&gt;Node11</title>
<g id="a_edge12_Node000007_Node000011"><a xlink:title=" ">
<path fill="none" stroke="#63b8ff" d="M420,-165.58C420,-159.07 420,-149.92 420,-141.62"/>
<polygon fill="#63b8ff" stroke="#63b8ff" points="423.5,-141.62 420,-131.62 416.5,-141.62 423.5,-141.62"/>
</a>
</g>
</g>
<!-- Node12 -->
<g id="Node000012" class="node">
<title>Node12</title>
<g id="a_Node000012"><a xlink:title=" ">
<polygon fill="#e0e0e0" stroke="#999999" points="620.5,-129.75 571.5,-129.75 571.5,-110.5 620.5,-110.5 620.5,-129.75"/>
<text text-anchor="middle" x="596" y="-116.25" font-family="Helvetica,sans-Serif" font-size="10.00">TTree.h</text>
</a>
</g>
</g>
<!-- Node7&#45;&gt;Node12 -->
<g id="edge13_Node000007_Node000012" class="edge">
<title>Node7&#45;&gt;Node12</title>
<g id="a_edge13_Node000007_Node000012"><a xlink:title=" ">
<path fill="none" stroke="#63b8ff" d="M449.86,-165.34C480.39,-156.1 527.82,-141.75 560.31,-131.92"/>
<polygon fill="#63b8ff" stroke="#63b8ff" points="561.12,-135.33 569.68,-129.09 559.09,-128.63 561.12,-135.33"/>
</a>
</g>
</g>
<!-- Node13 -->
<g id="Node000013" class="node">
<title>Node13</title>
<g id="a_Node000013"><a xlink:title=" ">
<polygon fill="#e0e0e0" stroke="#999999" points="144.88,-129.75 89.12,-129.75 89.12,-110.5 144.88,-110.5 144.88,-129.75"/>
<text text-anchor="middle" x="117" y="-116.25" font-family="Helvetica,sans-Serif" font-size="10.00">TGraph.h</text>
</a>
</g>
</g>
<!-- Node7&#45;&gt;Node13 -->
<g id="edge14_Node000007_Node000013" class="edge">
<title>Node7&#45;&gt;Node13</title>
<g id="a_edge14_Node000007_Node000013"><a xlink:title=" ">
<path fill="none" stroke="#63b8ff" d="M387.53,-169.6C339.31,-162.37 245.68,-147.76 156.39,-130.12"/>
<polygon fill="#63b8ff" stroke="#63b8ff" points="157.22,-126.72 146.73,-128.2 155.85,-133.58 157.22,-126.72"/>
</a>
</g>
</g>
<!-- Node14 -->
<g id="Node000014" class="node">
<title>Node14</title>
<g id="a_Node000014"><a xlink:title=" ">
<polygon fill="#e0e0e0" stroke="#999999" points="232.62,-129.75 163.38,-129.75 163.38,-110.5 232.62,-110.5 232.62,-129.75"/>
<text text-anchor="middle" x="198" y="-116.25" font-family="Helvetica,sans-Serif" font-size="10.00">TClassRef.h</text>
</a>
</g>
</g>
<!-- Node7&#45;&gt;Node14 -->
<g id="edge15_Node000007_Node000014" class="edge">
<title>Node7&#45;&gt;Node14</title>
<g id="a_edge15_Node000007_Node000014"><a xlink:title=" ">
<path fill="none" stroke="#63b8ff" d="M387.24,-166.52C349.38,-157.44 286.8,-142.42 244.05,-132.17"/>
<polygon fill="#63b8ff" stroke="#63b8ff" points="245.1,-128.82 234.56,-129.9 243.47,-135.63 245.1,-128.82"/>
</a>
</g>
</g>
<!-- Node15 -->
<g id="Node000015" class="node">
<title>Node15</title>
<g id="a_Node000015"><a xlink:href="_t_priority_value_8h.html" target="_top" xlink:title=" ">
<polygon fill="white" stroke="#666666" points="553.12,-129.75 468.88,-129.75 468.88,-110.5 553.12,-110.5 553.12,-129.75"/>
<text text-anchor="middle" x="511" y="-116.25" font-family="Helvetica,sans-Serif" font-size="10.00">TPriorityValue.h</text>
</a>
</g>
</g>
<!-- Node7&#45;&gt;Node15 -->
<g id="edge16_Node000007_Node000015" class="edge">
<title>Node7&#45;&gt;Node15</title>
<g id="a_edge16_Node000007_Node000015"><a xlink:title=" ">
<path fill="none" stroke="#63b8ff" d="M435.44,-165.34C449.16,-157.31 469.5,-145.41 485.62,-135.98"/>
<polygon fill="#63b8ff" stroke="#63b8ff" points="487.32,-139.04 494.18,-130.97 483.78,-133 487.32,-139.04"/>
</a>
</g>
</g>
<!-- Node15&#45;&gt;Node4 -->
<g id="edge19_Node000015_Node000004" class="edge">
<title>Node15&#45;&gt;Node4</title>
<g id="a_edge19_Node000015_Node000004"><a xlink:title=" ">
<path fill="none" stroke="#63b8ff" d="M537.63,-110.09C564.66,-100.92 606.55,-86.72 635.51,-76.89"/>
<polygon fill="#63b8ff" stroke="#63b8ff" points="636.52,-80.25 644.87,-73.72 634.27,-73.62 636.52,-80.25"/>
</a>
</g>
</g>
<!-- Node15&#45;&gt;Node8 -->
<g id="edge18_Node000015_Node000008" class="edge">
<title>Node15&#45;&gt;Node8</title>
<g id="a_edge18_Node000015_Node000008"><a xlink:title=" ">
<path fill="none" stroke="#63b8ff" d="M511.08,-110.25C511.24,-93 511.59,-54.58 511.81,-30.81"/>
<polygon fill="#63b8ff" stroke="#63b8ff" points="515.31,-31.17 511.9,-21.14 508.31,-31.11 515.31,-31.17"/>
</a>
</g>
</g>
<!-- Node16 -->
<g id="Node000016" class="node">
<title>Node16</title>
<g id="a_Node000016"><a xlink:title=" ">
<polygon fill="#e0e0e0" stroke="#999999" points="483.62,-74.5 432.38,-74.5 432.38,-55.25 483.62,-55.25 483.62,-74.5"/>
<text text-anchor="middle" x="458" y="-61" font-family="Helvetica,sans-Serif" font-size="10.00">ostream</text>
</a>
</g>
</g>
<!-- Node15&#45;&gt;Node16 -->
<g id="edge17_Node000015_Node000016" class="edge">
<title>Node15&#45;&gt;Node16</title>
<g id="a_edge17_Node000015_Node000016"><a xlink:title=" ">
<path fill="none" stroke="#63b8ff" d="M502.25,-110.33C494.85,-102.9 484.04,-92.04 474.95,-82.91"/>
<polygon fill="#63b8ff" stroke="#63b8ff" points="477.54,-80.55 468.01,-75.93 472.58,-85.49 477.54,-80.55"/>
</a>
</g>
</g>
<!-- Node21&#45;&gt;Node9 -->
<g id="edge26_Node000021_Node000009" class="edge">
<title>Node21&#45;&gt;Node9</title>
<g id="a_edge26_Node000021_Node000009"><a xlink:title=" ">
<path fill="none" stroke="#63b8ff" d="M1049.44,-167.61C1046.6,-166.95 1043.74,-166.31 1041,-165.75 947.77,-146.77 836.17,-131.67 783.05,-124.93"/>
<polygon fill="#63b8ff" stroke="#63b8ff" points="783.6,-121.47 773.24,-123.7 782.73,-128.42 783.6,-121.47"/>
</a>
</g>
</g>
<!-- Node21&#45;&gt;Node18 -->
<g id="edge28_Node000021_Node000018" class="edge">
<title>Node21&#45;&gt;Node18</title>
<g id="a_edge28_Node000021_Node000018"><a xlink:title=" ">
<path fill="none" stroke="#63b8ff" d="M1058.38,-165.31C1023.92,-146.52 944.44,-103.19 902.7,-80.43"/>
<polygon fill="#63b8ff" stroke="#63b8ff" points="904.5,-77.43 894.05,-75.71 901.15,-83.57 904.5,-77.43"/>
</a>
</g>
</g>
<!-- Node22 -->
<g id="Node000022" class="node">
<title>Node22</title>
<g id="a_Node000022"><a xlink:title=" ">
<polygon fill="#e0e0e0" stroke="#999999" points="1107.38,-129.75 1072.62,-129.75 1072.62,-110.5 1107.38,-110.5 1107.38,-129.75"/>
<text text-anchor="middle" x="1090" y="-116.25" font-family="Helvetica,sans-Serif" font-size="10.00">map</text>
</a>
</g>
</g>
<!-- Node21&#45;&gt;Node22 -->
<g id="edge25_Node000021_Node000022" class="edge">
<title>Node21&#45;&gt;Node22</title>
<g id="a_edge25_Node000021_Node000022"><a xlink:title=" ">
<path fill="none" stroke="#63b8ff" d="M1077.48,-165.58C1079.35,-158.92 1082.01,-149.49 1084.39,-141.03"/>
<polygon fill="#63b8ff" stroke="#63b8ff" points="1087.72,-142.14 1087.06,-131.57 1080.98,-140.24 1087.72,-142.14"/>
</a>
</g>
</g>
<!-- Node21&#45;&gt;Node23 -->
<g id="edge27_Node000021_Node000023" class="edge">
<title>Node21&#45;&gt;Node23</title>
<g id="a_edge27_Node000021_Node000023"><a xlink:title=" ">
<path fill="none" stroke="#63b8ff" d="M1100.48,-171.84C1151.5,-166.35 1263.98,-152.03 1295,-129.75 1328.78,-105.48 1346.02,-57.47 1353.41,-30.4"/>
<polygon fill="#63b8ff" stroke="#63b8ff" points="1356.71,-31.61 1355.76,-21.06 1349.93,-29.9 1356.71,-31.61"/>
</a>
</g>
</g>
<!-- Node24 -->
<g id="Node000024" class="node">
<title>Node24</title>
<g id="a_Node000024"><a xlink:title=" ">
<polygon fill="#e0e0e0" stroke="#999999" points="1198.12,-129.75 1125.88,-129.75 1125.88,-110.5 1198.12,-110.5 1198.12,-129.75"/>
<text text-anchor="middle" x="1162" y="-116.25" font-family="Helvetica,sans-Serif" font-size="10.00">TCollection.h</text>
</a>
</g>
</g>
<!-- Node21&#45;&gt;Node24 -->
<g id="edge29_Node000021_Node000024" class="edge">
<title>Node21&#45;&gt;Node24</title>
<g id="a_edge29_Node000021_Node000024"><a xlink:title=" ">
<path fill="none" stroke="#63b8ff" d="M1089.76,-165.34C1102.88,-157.31 1122.32,-145.41 1137.73,-135.98"/>
<polygon fill="#63b8ff" stroke="#63b8ff" points="1139.18,-139.2 1145.88,-130.99 1135.52,-133.23 1139.18,-139.2"/>
</a>
</g>
</g>
<!-- Node25 -->
<g id="Node000025" class="node">
<title>Node25</title>
<g id="a_Node000025"><a xlink:href="_globals_8h.html" target="_top" xlink:title=" ">
<polygon fill="white" stroke="#666666" points="979.25,-74.5 922.75,-74.5 922.75,-55.25 979.25,-55.25 979.25,-74.5"/>
<text text-anchor="middle" x="951" y="-61" font-family="Helvetica,sans-Serif" font-size="10.00">Globals.h</text>
</a>
</g>
</g>
<!-- Node21&#45;&gt;Node25 -->
<g id="edge30_Node000021_Node000025" class="edge">
<title>Node21&#45;&gt;Node25</title>
<g id="a_edge30_Node000021_Node000025"><a xlink:title=" ">
<path fill="none" stroke="#63b8ff" d="M1064.85,-165.5C1044.05,-147.3 996.31,-105.52 969.73,-82.26"/>
<polygon fill="#63b8ff" stroke="#63b8ff" points="972.26,-79.82 962.43,-75.87 967.65,-85.09 972.26,-79.82"/>
</a>
</g>
</g>
<!-- Node37 -->
<g id="Node000037" class="node">
<title>Node37</title>
<g id="a_Node000037"><a xlink:href="_t_singleton_8h.html" target="_top" xlink:title=" ">
<polygon fill="white" stroke="#666666" points="1286,-129.75 1216,-129.75 1216,-110.5 1286,-110.5 1286,-129.75"/>
<text text-anchor="middle" x="1251" y="-116.25" font-family="Helvetica,sans-Serif" font-size="10.00">TSingleton.h</text>
</a>
</g>
</g>
<!-- Node21&#45;&gt;Node37 -->
<g id="edge45_Node000021_Node000037" class="edge">
<title>Node21&#45;&gt;Node37</title>
<g id="a_edge45_Node000021_Node000037"><a xlink:title=" ">
<path fill="none" stroke="#63b8ff" d="M1100.59,-166.63C1129.29,-157.95 1176.22,-143.75 1210.03,-133.52"/>
<polygon fill="#63b8ff" stroke="#63b8ff" points="1210.95,-136.9 1219.5,-130.65 1208.92,-130.2 1210.95,-136.9"/>
</a>
</g>
</g>
<!-- Node25&#45;&gt;Node2 -->
<g id="edge35_Node000025_Node000002" class="edge">
<title>Node25&#45;&gt;Node2</title>
<g id="a_edge35_Node000025_Node000002"><a xlink:title=" ">
<path fill="none" stroke="#63b8ff" d="M922.41,-56.72C919.58,-56.16 916.74,-55.66 914,-55.25 785.07,-36.17 377.63,-17.26 258.82,-12.04"/>
<polygon fill="#63b8ff" stroke="#63b8ff" points="259.28,-8.55 249.13,-11.61 258.97,-15.55 259.28,-8.55"/>
</a>
</g>
</g>
<!-- Node25&#45;&gt;Node8 -->
<g id="edge34_Node000025_Node000008" class="edge">
<title>Node25&#45;&gt;Node8</title>
<g id="a_edge34_Node000025_Node000008"><a xlink:title=" ">
<path fill="none" stroke="#63b8ff" d="M922.39,-56.82C919.57,-56.24 916.73,-55.7 914,-55.25 754.93,-28.89 712.35,-43.88 553,-19.25 549.94,-18.78 546.76,-18.22 543.59,-17.63"/>
<polygon fill="#63b8ff" stroke="#63b8ff" points="544.34,-14.21 533.84,-15.66 542.95,-21.07 544.34,-14.21"/>
</a>
</g>
</g>
<!-- Node25&#45;&gt;Node23 -->
<g id="edge31_Node000025_Node000023" class="edge">
<title>Node25&#45;&gt;Node23</title>
<g id="a_edge31_Node000025_Node000023"><a xlink:title=" ">
<path fill="none" stroke="#63b8ff" d="M979.4,-57.67C983.94,-56.78 988.59,-55.94 993,-55.25 1134.77,-32.99 1175.12,-43.87 1319.88,-19.4"/>
<polygon fill="#63b8ff" stroke="#63b8ff" points="1320.2,-22.9 1329.46,-17.75 1319.01,-16 1320.2,-22.9"/>
</a>
</g>
</g>
<!-- Node26 -->
<g id="Node000026" class="node">
<title>Node26</title>
<g id="a_Node000026"><a xlink:title=" ">
<polygon fill="#e0e0e0" stroke="#999999" points="1096.88,-19.25 1047.12,-19.25 1047.12,0 1096.88,0 1096.88,-19.25"/>
<text text-anchor="middle" x="1072" y="-5.75" font-family="Helvetica,sans-Serif" font-size="10.00">iomanip</text>
</a>
</g>
</g>
<!-- Node25&#45;&gt;Node26 -->
<g id="edge32_Node000025_Node000026" class="edge">
<title>Node25&#45;&gt;Node26</title>
<g id="a_edge32_Node000025_Node000026"><a xlink:title=" ">
<path fill="none" stroke="#63b8ff" d="M971.53,-54.84C990.56,-46.47 1019.15,-33.88 1040.97,-24.28"/>
<polygon fill="#63b8ff" stroke="#63b8ff" points="1042.24,-27.54 1049.99,-20.31 1039.43,-21.14 1042.24,-27.54"/>
</a>
</g>
</g>
<!-- Node27 -->
<g id="Node000027" class="node">
<title>Node27</title>
<g id="a_Node000027"><a xlink:title=" ">
<polygon fill="#e0e0e0" stroke="#999999" points="1173,-19.25 1115,-19.25 1115,0 1173,0 1173,-19.25"/>
<text text-anchor="middle" x="1144" y="-5.75" font-family="Helvetica,sans-Serif" font-size="10.00">stdexcept</text>
</a>
</g>
</g>
<!-- Node25&#45;&gt;Node27 -->
<g id="edge33_Node000025_Node000027" class="edge">
<title>Node25&#45;&gt;Node27</title>
<g id="a_edge33_Node000025_Node000027"><a xlink:title=" ">
<path fill="none" stroke="#63b8ff" d="M979.48,-56.02C1012.36,-46.95 1066.67,-31.96 1103.83,-21.71"/>
<polygon fill="#63b8ff" stroke="#63b8ff" points="1104.6,-25.13 1113.31,-19.09 1102.74,-18.38 1104.6,-25.13"/>
</a>
</g>
</g>
<!-- Node28 -->
<g id="Node000028" class="node">
<title>Node28</title>
<g id="a_Node000028"><a xlink:title=" ">
<polygon fill="#e0e0e0" stroke="#999999" points="1235.25,-19.25 1190.75,-19.25 1190.75,0 1235.25,0 1235.25,-19.25"/>
<text text-anchor="middle" x="1213" y="-5.75" font-family="Helvetica,sans-Serif" font-size="10.00">cstdlib</text>
</a>
</g>
</g>
<!-- Node25&#45;&gt;Node28 -->
<g id="edge36_Node000025_Node000028" class="edge">
<title>Node25&#45;&gt;Node28</title>
<g id="a_edge36_Node000025_Node000028"><a xlink:title=" ">
<path fill="none" stroke="#63b8ff" d="M979.46,-57.97C983.98,-57.05 988.62,-56.12 993,-55.25 1073.36,-39.35 1096.79,-38.75 1179.18,-19.76"/>
<polygon fill="#63b8ff" stroke="#63b8ff" points="1179.95,-23.18 1188.89,-17.5 1178.36,-16.36 1179.95,-23.18"/>
</a>
</g>
</g>
<!-- Node29 -->
<g id="Node000029" class="node">
<title>Node29</title>
<g id="a_Node000029"><a xlink:title=" ">
<polygon fill="#e0e0e0" stroke="#999999" points="1312.75,-19.25 1253.25,-19.25 1253.25,0 1312.75,0 1312.75,-19.25"/>
<text text-anchor="middle" x="1283" y="-5.75" font-family="Helvetica,sans-Serif" font-size="10.00">execinfo.h</text>
</a>
</g>
</g>
<!-- Node25&#45;&gt;Node29 -->
<g id="edge37_Node000025_Node000029" class="edge">
<title>Node25&#45;&gt;Node29</title>
<g id="a_edge37_Node000025_Node000029"><a xlink:title=" ">
<path fill="none" stroke="#63b8ff" d="M979.42,-57.8C983.96,-56.9 988.6,-56.02 993,-55.25 1100.45,-36.53 1131.16,-39.23 1241.52,-19.58"/>
<polygon fill="#63b8ff" stroke="#63b8ff" points="1242.1,-23.03 1251.32,-17.81 1240.86,-16.14 1242.1,-23.03"/>
</a>
</g>
</g>
<!-- Node30 -->
<g id="Node000030" class="node">
<title>Node30</title>
<g id="a_Node000030"><a xlink:title=" ">
<polygon fill="#e0e0e0" stroke="#999999" points="612.25,-19.25 561.75,-19.25 561.75,0 612.25,0 612.25,-19.25"/>
<text text-anchor="middle" x="587" y="-5.75" font-family="Helvetica,sans-Serif" font-size="10.00">cxxabi.h</text>
</a>
</g>
</g>
<!-- Node25&#45;&gt;Node30 -->
<g id="edge38_Node000025_Node000030" class="edge">
<title>Node25&#45;&gt;Node30</title>
<g id="a_edge38_Node000025_Node000030"><a xlink:title=" ">
<path fill="none" stroke="#63b8ff" d="M922.38,-56.89C919.56,-56.29 916.73,-55.73 914,-55.25 788.35,-32.95 751.93,-42.85 623.59,-19.52"/>
<polygon fill="#63b8ff" stroke="#63b8ff" points="624.5,-16.13 614.03,-17.75 623.23,-23.01 624.5,-16.13"/>
</a>
</g>
</g>
<!-- Node31 -->
<g id="Node000031" class="node">
<title>Node31</title>
<g id="a_Node000031"><a xlink:title=" ">
<polygon fill="#e0e0e0" stroke="#999999" points="681.62,-19.25 630.38,-19.25 630.38,0 681.62,0 681.62,-19.25"/>
<text text-anchor="middle" x="656" y="-5.75" font-family="Helvetica,sans-Serif" font-size="10.00">sstream</text>
</a>
</g>
</g>
<!-- Node25&#45;&gt;Node31 -->
<g id="edge39_Node000025_Node000031" class="edge">
<title>Node25&#45;&gt;Node31</title>
<g id="a_edge39_Node000025_Node000031"><a xlink:title=" ">
<path fill="none" stroke="#63b8ff" d="M922.36,-56.99C919.54,-56.38 916.72,-55.79 914,-55.25 818.96,-36.52 791.3,-39.06 692.98,-19.5"/>
<polygon fill="#63b8ff" stroke="#63b8ff" points="693.92,-16.12 683.42,-17.57 692.53,-22.98 693.92,-16.12"/>
</a>
</g>
</g>
<!-- Node32 -->
<g id="Node000032" class="node">
<title>Node32</title>
<g id="a_Node000032"><a xlink:title=" ">
<polygon fill="#e0e0e0" stroke="#999999" points="736.5,-19.25 699.5,-19.25 699.5,0 736.5,0 736.5,-19.25"/>
<text text-anchor="middle" x="718" y="-5.75" font-family="Helvetica,sans-Serif" font-size="10.00">array</text>
</a>
</g>
</g>
<!-- Node25&#45;&gt;Node32 -->
<g id="edge40_Node000025_Node000032" class="edge">
<title>Node25&#45;&gt;Node32</title>
<g id="a_edge40_Node000025_Node000032"><a xlink:title=" ">
<path fill="none" stroke="#63b8ff" d="M922.33,-57.14C919.52,-56.49 916.7,-55.85 914,-55.25 842.83,-39.33 821.76,-38.55 747.72,-19.51"/>
<polygon fill="#63b8ff" stroke="#63b8ff" points="748.94,-16.21 738.38,-17.08 747.18,-22.98 748.94,-16.21"/>
</a>
</g>
</g>
<!-- Node33 -->
<g id="Node000033" class="node">
<title>Node33</title>
<g id="a_Node000033"><a xlink:title=" ">
<polygon fill="#e0e0e0" stroke="#999999" points="805.25,-19.25 754.75,-19.25 754.75,0 805.25,0 805.25,-19.25"/>
<text text-anchor="middle" x="780" y="-5.75" font-family="Helvetica,sans-Serif" font-size="10.00">memory</text>
</a>
</g>
</g>
<!-- Node25&#45;&gt;Node33 -->
<g id="edge41_Node000025_Node000033" class="edge">
<title>Node25&#45;&gt;Node33</title>
<g id="a_edge41_Node000025_Node000033"><a xlink:title=" ">
<path fill="none" stroke="#63b8ff" d="M922.38,-54.96C893.33,-45.92 848.26,-31.88 816.63,-22.03"/>
<polygon fill="#63b8ff" stroke="#63b8ff" points="817.67,-18.69 807.08,-19.06 815.59,-25.37 817.67,-18.69"/>
</a>
</g>
</g>
<!-- Node34 -->
<g id="Node000034" class="node">
<title>Node34</title>
<g id="a_Node000034"><a xlink:title=" ">
<polygon fill="#e0e0e0" stroke="#999999" points="872.88,-19.25 823.12,-19.25 823.12,0 872.88,0 872.88,-19.25"/>
<text text-anchor="middle" x="848" y="-5.75" font-family="Helvetica,sans-Serif" font-size="10.00">unistd.h</text>
</a>
</g>
</g>
<!-- Node25&#45;&gt;Node34 -->
<g id="edge42_Node000025_Node000034" class="edge">
<title>Node25&#45;&gt;Node34</title>
<g id="a_edge42_Node000025_Node000034"><a xlink:title=" ">
<path fill="none" stroke="#63b8ff" d="M933.53,-54.84C917.69,-46.66 894.09,-34.46 875.69,-24.94"/>
<polygon fill="#63b8ff" stroke="#63b8ff" points="877.39,-21.88 866.9,-20.4 874.18,-28.1 877.39,-21.88"/>
</a>
</g>
</g>
<!-- Node35 -->
<g id="Node000035" class="node">
<title>Node35</title>
<g id="a_Node000035"><a xlink:title=" ">
<polygon fill="#e0e0e0" stroke="#999999" points="950.75,-19.25 891.25,-19.25 891.25,0 950.75,0 950.75,-19.25"/>
<text text-anchor="middle" x="921" y="-5.75" font-family="Helvetica,sans-Serif" font-size="10.00">sys/wait.h</text>
</a>
</g>
</g>
<!-- Node25&#45;&gt;Node35 -->
<g id="edge43_Node000025_Node000035" class="edge">
<title>Node25&#45;&gt;Node35</title>
<g id="a_edge43_Node000025_Node000035"><a xlink:title=" ">
<path fill="none" stroke="#63b8ff" d="M946.05,-55.08C942.12,-48.11 936.49,-38.12 931.56,-29.37"/>
<polygon fill="#63b8ff" stroke="#63b8ff" points="934.76,-27.92 926.8,-20.93 928.66,-31.36 934.76,-27.92"/>
</a>
</g>
</g>
<!-- Node36 -->
<g id="Node000036" class="node">
<title>Node36</title>
<g id="a_Node000036"><a xlink:title=" ">
<polygon fill="#e0e0e0" stroke="#999999" points="1029.12,-19.25 968.88,-19.25 968.88,0 1029.12,0 1029.12,-19.25"/>
<text text-anchor="middle" x="999" y="-5.75" font-family="Helvetica,sans-Serif" font-size="10.00">sys/prctl.h</text>
</a>
</g>
</g>
<!-- Node25&#45;&gt;Node36 -->
<g id="edge44_Node000025_Node000036" class="edge">
<title>Node25&#45;&gt;Node36</title>
<g id="a_edge44_Node000025_Node000036"><a xlink:title=" ">
<path fill="none" stroke="#63b8ff" d="M958.93,-55.08C965.56,-47.73 975.22,-37.01 983.39,-27.94"/>
<polygon fill="#63b8ff" stroke="#63b8ff" points="985.79,-30.5 989.89,-20.73 980.59,-25.82 985.79,-30.5"/>
</a>
</g>
</g>
<!-- Node37&#45;&gt;Node18 -->
<g id="edge47_Node000037_Node000018" class="edge">
<title>Node37&#45;&gt;Node18</title>
<g id="a_edge47_Node000037_Node000018"><a xlink:title=" ">
<path fill="none" stroke="#63b8ff" d="M1215.98,-112.03C1212.94,-111.48 1209.92,-110.97 1207,-110.5 1080.97,-90.43 1045.19,-96.68 916.48,-74.77"/>
<polygon fill="#63b8ff" stroke="#63b8ff" points="917.34,-71.37 906.89,-73.11 916.15,-78.27 917.34,-71.37"/>
</a>
</g>
</g>
<!-- Node37&#45;&gt;Node23 -->
<g id="edge46_Node000037_Node000023" class="edge">
<title>Node37&#45;&gt;Node23</title>
<g id="a_edge46_Node000037_Node000023"><a xlink:title=" ">
<path fill="none" stroke="#63b8ff" d="M1262.86,-110.08C1273.94,-101.43 1290.72,-87.76 1304,-74.5 1318.58,-59.95 1333.58,-41.91 1344.06,-28.72"/>
<polygon fill="#63b8ff" stroke="#63b8ff" points="1346.77,-30.94 1350.18,-20.91 1341.26,-26.62 1346.77,-30.94"/>
</a>
</g>
</g>
<!-- Node37&#45;&gt;Node25 -->
<g id="edge52_Node000037_Node000025" class="edge">
<title>Node37&#45;&gt;Node25</title>
<g id="a_edge52_Node000037_Node000025"><a xlink:title=" ">
<path fill="none" stroke="#63b8ff" d="M1215.95,-112.19C1212.92,-111.61 1209.91,-111.04 1207,-110.5 1130.61,-96.36 1041.16,-81.05 990.78,-72.54"/>
<polygon fill="#63b8ff" stroke="#63b8ff" points="991.38,-69.1 980.94,-70.88 990.22,-76 991.38,-69.1"/>
</a>
</g>
</g>
<!-- Node38 -->
<g id="Node000038" class="node">
<title>Node38</title>
<g id="a_Node000038"><a xlink:title=" ">
<polygon fill="#e0e0e0" stroke="#999999" points="1294.88,-74.5 1227.12,-74.5 1227.12,-55.25 1294.88,-55.25 1294.88,-74.5"/>
<text text-anchor="middle" x="1261" y="-61" font-family="Helvetica,sans-Serif" font-size="10.00">TDirectory.h</text>
</a>
</g>
</g>
<!-- Node37&#45;&gt;Node38 -->
<g id="edge48_Node000037_Node000038" class="edge">
<title>Node37&#45;&gt;Node38</title>
<g id="a_edge48_Node000037_Node000038"><a xlink:title=" ">
<path fill="none" stroke="#63b8ff" d="M1252.65,-110.33C1253.89,-103.74 1255.63,-94.46 1257.21,-86.07"/>
<polygon fill="#63b8ff" stroke="#63b8ff" points="1260.63,-86.82 1259.03,-76.35 1253.75,-85.53 1260.63,-86.82"/>
</a>
</g>
</g>
<!-- Node39 -->
<g id="Node000039" class="node">
<title>Node39</title>
<g id="a_Node000039"><a xlink:title=" ">
<polygon fill="#e0e0e0" stroke="#999999" points="1080.62,-74.5 1035.38,-74.5 1035.38,-55.25 1080.62,-55.25 1080.62,-74.5"/>
<text text-anchor="middle" x="1058" y="-61" font-family="Helvetica,sans-Serif" font-size="10.00">TFile.h</text>
</a>
</g>
</g>
<!-- Node37&#45;&gt;Node39 -->
<g id="edge49_Node000037_Node000039" class="edge">
<title>Node37&#45;&gt;Node39</title>
<g id="a_edge49_Node000037_Node000039"><a xlink:title=" ">
<path fill="none" stroke="#63b8ff" d="M1218.26,-110.09C1183.03,-100.37 1127.29,-84.99 1091.7,-75.17"/>
<polygon fill="#63b8ff" stroke="#63b8ff" points="1092.93,-71.88 1082.36,-72.6 1091.07,-78.63 1092.93,-71.88"/>
</a>
</g>
</g>
<!-- Node40 -->
<g id="Node000040" class="node">
<title>Node40</title>
<g id="a_Node000040"><a xlink:title=" ">
<polygon fill="#e0e0e0" stroke="#999999" points="1145,-74.5 1099,-74.5 1099,-55.25 1145,-55.25 1145,-74.5"/>
<text text-anchor="middle" x="1122" y="-61" font-family="Helvetica,sans-Serif" font-size="10.00">TList.h</text>
</a>
</g>
</g>
<!-- Node37&#45;&gt;Node40 -->
<g id="edge50_Node000037_Node000040" class="edge">
<title>Node37&#45;&gt;Node40</title>
<g id="a_edge50_Node000037_Node000040"><a xlink:title=" ">
<path fill="none" stroke="#63b8ff" d="M1229.12,-110.09C1208.64,-101.64 1177.79,-88.9 1154.44,-79.27"/>
<polygon fill="#63b8ff" stroke="#63b8ff" points="1155.97,-76.11 1145.39,-75.53 1153.3,-82.58 1155.97,-76.11"/>
</a>
</g>
</g>
<!-- Node41 -->
<g id="Node000041" class="node">
<title>Node41</title>
<g id="a_Node000041"><a xlink:title=" ">
<polygon fill="#e0e0e0" stroke="#999999" points="1209,-74.5 1163,-74.5 1163,-55.25 1209,-55.25 1209,-74.5"/>
<text text-anchor="middle" x="1186" y="-61" font-family="Helvetica,sans-Serif" font-size="10.00">TKey.h</text>
</a>
</g>
</g>
<!-- Node37&#45;&gt;Node41 -->
<g id="edge51_Node000037_Node000041" class="edge">
<title>Node37&#45;&gt;Node41</title>
<g id="a_edge51_Node000037_Node000041"><a xlink:title=" ">
<path fill="none" stroke="#63b8ff" d="M1239.97,-110.09C1230.58,-102.4 1216.85,-91.15 1205.59,-81.93"/>
<polygon fill="#63b8ff" stroke="#63b8ff" points="1207.99,-79.36 1198.03,-75.73 1203.55,-84.78 1207.99,-79.36"/>
</a>
</g>
</g>
<!-- Node42&#45;&gt;Node23 -->
<g id="edge54_Node000042_Node000023" class="edge">
<title>Node42&#45;&gt;Node23</title>
<g id="a_edge54_Node000042_Node000023"><a xlink:title=" ">
<path fill="none" stroke="#63b8ff" d="M923.76,-165.52C943.25,-140.25 999.83,-68.72 1026,-55.25 1140.61,3.75 1188.91,-40.18 1319.71,-19.37"/>
<polygon fill="#63b8ff" stroke="#63b8ff" points="1320.18,-22.84 1329.45,-17.71 1319.01,-15.94 1320.18,-22.84"/>
</a>
</g>
</g>
<!-- Node43 -->
<g id="Node000043" class="node">
<title>Node43</title>
<g id="a_Node000043"><a xlink:title=" ">
<polygon fill="#e0e0e0" stroke="#999999" points="940.88,-129.75 867.12,-129.75 867.12,-110.5 940.88,-110.5 940.88,-129.75"/>
<text text-anchor="middle" x="904" y="-116.25" font-family="Helvetica,sans-Serif" font-size="10.00">RtypesCore.h</text>
</a>
</g>
</g>
<!-- Node42&#45;&gt;Node43 -->
<g id="edge55_Node000042_Node000043" class="edge">
<title>Node42&#45;&gt;Node43</title>
<g id="a_edge55_Node000042_Node000043"><a xlink:title=" ">
<path fill="none" stroke="#63b8ff" d="M914.85,-165.58C913.23,-158.92 910.92,-149.49 908.86,-141.03"/>
<polygon fill="#63b8ff" stroke="#63b8ff" points="912.32,-140.46 906.55,-131.58 905.52,-142.12 912.32,-140.46"/>
</a>
</g>
</g>
</g>
</svg>

<g id="navigator" transform="translate(0 0)" fill="#404254">
  <rect fill="#f2f5e9" fill-opacity="0.5" stroke="#606060" stroke-width=".5" x="0" y="0" width="60" height="60"/>
  <use id="zoomplus" xlink:href="#zoomPlus" x="17" y="9" onmousedown="handleZoom(evt,'in')"/>
  <use id="zoomminus" xlink:href="#zoomMin" x="42" y="9" onmousedown="handleZoom(evt,'out')"/>
  <use id="reset" xlink:href="#resetDef" x="30" y="36" onmousedown="handleReset()"/>
   <use id="arrowup" xlink:href="#arrowUp" x="0" y="0" onmousedown="handlePan(0,-1)"/>
  <use id="arrowright" xlink:href="#arrowRight" x="0" y="0" onmousedown="handlePan(1,0)"/>
  <use id="arrowdown" xlink:href="#arrowDown" x="0" y="0" onmousedown="handlePan(0,1)"/>
  <use id="arrowleft" xlink:href="#arrowLeft" x="0" y="0" onmousedown="handlePan(-1,0)"/>
</g>
<svg viewBox="0 0 15 15" width="100%" height="30px" preserveAspectRatio="xMaxYMin meet">
 <g id="arrow_out" transform="scale(0.3 0.3)">
  <a xlink:href="_t_aries_hit_8h__incl_org.svg" target="_base">
   <rect id="button" ry="5" rx="5" y="6" x="6" height="38" width="38"
        fill="#f2f5e9" fill-opacity="0.5" stroke="#606060" stroke-width="1.0"/>
   <path id="arrow"
     d="M 11.500037,31.436501 C 11.940474,20.09759 22.043105,11.32322 32.158766,21.979434 L 37.068811,17.246167 C 37.068811,17.246167 37.088388,32 37.088388,32 L 22.160133,31.978069 C 22.160133,31.978069 26.997745,27.140456 26.997745,27.140456 C 18.528582,18.264221 13.291696,25.230495 11.500037,31.436501 z"
     style="fill:#404040;"/>
  </a>
 </g>
</svg>

<style type='text/css'>
<![CDATA[
[data-mouse-over-selected='false'] { opacity: 0.7; }
[data-mouse-over-selected='true']  { opacity: 1.0; }
]]>
</style>
<script type="application/ecmascript"><![CDATA[
document.addEventListener('DOMContentLoaded', (event) => {
  highlightEdges();
  highlightAdjacentNodes();
});
]]></script>
</svg>
