<?xml version="1.0" encoding="UTF-8" standalone="no"?>
<!DOCTYPE svg PUBLIC "-//W3C//DTD SVG 1.1//EN"
 "http://www.w3.org/Graphics/SVG/1.1/DTD/svg11.dtd">
<!-- Generated by graphviz version 12.2.0 (20241103.1931)
 -->
<!-- Title: TAriesHit.h Pages: 1 -->
<svg width="1507pt" height="359pt"
 viewBox="0.00 0.00 1506.62 358.75" xmlns="http://www.w3.org/2000/svg" xmlns:xlink="http://www.w3.org/1999/xlink">
<g id="graph0" class="graph" transform="scale(1 1) rotate(0) translate(4 354.75)">
<title>TAriesHit.h</title>
<!-- Node1 -->
<g id="Node000001" class="node">
<title>Node1</title>
<g id="a_Node000001"><a xlink:title=" ">
<polygon fill="#999999" stroke="#666666" points="681.38,-350.75 616.62,-350.75 616.62,-331.5 681.38,-331.5 681.38,-350.75"/>
<text text-anchor="middle" x="649" y="-337.25" font-family="Helvetica,sans-Serif" font-size="10.00">TAriesHit.h</text>
</a>
</g>
</g>
<!-- Node2 -->
<g id="Node000002" class="node">
<title>Node2</title>
<g id="a_Node000002"><a xlink:title=" ">
<polygon fill="#e0e0e0" stroke="#999999" points="227.12,-19.25 184.88,-19.25 184.88,0 227.12,0 227.12,-19.25"/>
<text text-anchor="middle" x="206" y="-5.75" font-family="Helvetica,sans-Serif" font-size="10.00">cstdio</text>
</a>
</g>
</g>
<!-- Node1&#45;&gt;Node2 -->
<g id="edge1_Node000001_Node000002" class="edge">
<title>Node1&#45;&gt;Node2</title>
<g id="a_edge1_Node000001_Node000002"><a xlink:title=" ">
<path fill="none" stroke="#63b8ff" d="M616.37,-338.16C484.77,-329.82 0,-294.81 0,-231.62 0,-231.62 0,-231.62 0,-119.12 0,-41.6 115.62,-19.34 173.62,-13.05"/>
<polygon fill="#63b8ff" stroke="#63b8ff" points="173.61,-16.56 183.22,-12.11 172.93,-9.6 173.61,-16.56"/>
</a>
</g>
</g>
<!-- Node3 -->
<g id="Node000003" class="node">
<title>Node3</title>
<g id="a_Node000003"><a xlink:title=" ">
<polygon fill="#e0e0e0" stroke="#999999" points="71.5,-129.75 28.5,-129.75 28.5,-110.5 71.5,-110.5 71.5,-129.75"/>
<text text-anchor="middle" x="50" y="-116.25" font-family="Helvetica,sans-Serif" font-size="10.00">cmath</text>
</a>
</g>
</g>
<!-- Node1&#45;&gt;Node3 -->
<g id="edge2_Node000001_Node000003" class="edge">
<title>Node1&#45;&gt;Node3</title>
<g id="a_edge2_Node000001_Node000003"><a xlink:title=" ">
<path fill="none" stroke="#63b8ff" d="M624.4,-331.13C529.88,-296.57 189.95,-172.29 82.68,-133.07"/>
<polygon fill="#63b8ff" stroke="#63b8ff" points="83.92,-129.8 73.32,-129.65 81.51,-136.37 83.92,-129.8"/>
</a>
</g>
</g>
<!-- Node4 -->
<g id="Node000004" class="node">
<title>Node4</title>
<g id="a_Node000004"><a xlink:title=" ">
<polygon fill="#e0e0e0" stroke="#999999" points="689.5,-74.5 646.5,-74.5 646.5,-55.25 689.5,-55.25 689.5,-74.5"/>
<text text-anchor="middle" x="668" y="-61" font-family="Helvetica,sans-Serif" font-size="10.00">vector</text>
</a>
</g>
</g>
<!-- Node1&#45;&gt;Node4 -->
<g id="edge3_Node000001_Node000004" class="edge">
<title>Node1&#45;&gt;Node4</title>
<g id="a_edge3_Node000001_Node000004"><a xlink:title=" ">
<path fill="none" stroke="#63b8ff" d="M649,-331.12C649,-312.53 649,-268.55 649,-231.62 649,-231.62 649,-231.62 649,-174.38 649,-143.04 656.78,-107.37 662.39,-85.75"/>
<polygon fill="#63b8ff" stroke="#63b8ff" points="665.72,-86.81 664.96,-76.25 658.97,-84.98 665.72,-86.81"/>
</a>
</g>
</g>
<!-- Node5 -->
<g id="Node000005" class="node">
<title>Node5</title>
<g id="a_Node000005"><a xlink:href="_t_fragment_8h.html" target="_top" xlink:title=" ">
<polygon fill="white" stroke="#666666" points="992.38,-295.5 921.62,-295.5 921.62,-276.25 992.38,-276.25 992.38,-295.5"/>
<text text-anchor="middle" x="957" y="-282" font-family="Helvetica,sans-Serif" font-size="10.00">TFragment.h</text>
</a>
</g>
</g>
<!-- Node1&#45;&gt;Node5 -->
<g id="edge4_Node000001_Node000005" class="edge">
<title>Node1&#45;&gt;Node5</title>
<g id="a_edge4_Node000001_Node000005"><a xlink:title=" ">
<path fill="none" stroke="#63b8ff" d="M681.67,-334.48C736.47,-325 847.1,-305.88 910.16,-294.97"/>
<polygon fill="#63b8ff" stroke="#63b8ff" points="910.61,-298.45 919.87,-293.29 909.42,-291.55 910.61,-298.45"/>
</a>
</g>
</g>
<!-- Node6 -->
<g id="Node000006" class="node">
<title>Node6</title>
<g id="a_Node000006"><a xlink:href="_t_detector_hit_8h.html" target="_top" xlink:title=" ">
<polygon fill="white" stroke="#666666" points="895.5,-240.25 816.5,-240.25 816.5,-221 895.5,-221 895.5,-240.25"/>
<text text-anchor="middle" x="856" y="-226.75" font-family="Helvetica,sans-Serif" font-size="10.00">TDetectorHit.h</text>
</a>
</g>
</g>
<!-- Node1&#45;&gt;Node6 -->
<g id="edge64_Node000001_Node000006" class="edge">
<title>Node1&#45;&gt;Node6</title>
<g id="a_edge64_Node000001_Node000006"><a xlink:title=" ">
<path fill="none" stroke="#63b8ff" d="M666.29,-331.06C702.21,-312.23 785.16,-268.76 828.5,-246.04"/>
<polygon fill="#63b8ff" stroke="#63b8ff" points="830.04,-249.18 837.27,-241.44 826.79,-242.98 830.04,-249.18"/>
</a>
</g>
</g>
<!-- Node7 -->
<g id="Node000007" class="node">
<title>Node7</title>
<g id="a_Node000007"><a xlink:href="_t_channel_8h.html" target="_top" xlink:title=" ">
<polygon fill="white" stroke="#666666" points="452.38,-185 387.62,-185 387.62,-165.75 452.38,-165.75 452.38,-185"/>
<text text-anchor="middle" x="420" y="-171.5" font-family="Helvetica,sans-Serif" font-size="10.00">TChannel.h</text>
</a>
</g>
</g>
<!-- Node1&#45;&gt;Node7 -->
<g id="edge62_Node000001_Node000007" class="edge">
<title>Node1&#45;&gt;Node7</title>
<g id="a_edge62_Node000001_Node000007"><a xlink:title=" ">
<path fill="none" stroke="#63b8ff" d="M636.36,-331.09C599.06,-304.42 489.11,-225.79 441.92,-192.05"/>
<polygon fill="#63b8ff" stroke="#63b8ff" points="444,-189.23 433.83,-186.26 439.93,-194.93 444,-189.23"/>
</a>
</g>
</g>
<!-- Node17 -->
<g id="Node000017" class="node">
<title>Node17</title>
<g id="a_Node000017"><a xlink:title=" ">
<polygon fill="#e0e0e0" stroke="#999999" points="1498.62,-185 1435.38,-185 1435.38,-165.75 1498.62,-165.75 1498.62,-185"/>
<text text-anchor="middle" x="1467" y="-171.5" font-family="Helvetica,sans-Serif" font-size="10.00">TVector3.h</text>
</a>
</g>
</g>
<!-- Node1&#45;&gt;Node17 -->
<g id="edge63_Node000001_Node000017" class="edge">
<title>Node1&#45;&gt;Node17</title>
<g id="a_edge63_Node000001_Node000017"><a xlink:title=" ">
<path fill="none" stroke="#63b8ff" d="M681.6,-339.32C811.7,-335.59 1292.96,-316.78 1421,-240.25 1438.39,-229.86 1451.06,-210.09 1458.65,-195.28"/>
<polygon fill="#63b8ff" stroke="#63b8ff" points="1461.68,-197.07 1462.81,-186.53 1455.35,-194.06 1461.68,-197.07"/>
</a>
</g>
</g>
<!-- Node5&#45;&gt;Node4 -->
<g id="edge59_Node000005_Node000004" class="edge">
<title>Node5&#45;&gt;Node4</title>
<g id="a_edge59_Node000005_Node000004"><a xlink:title=" ">
<path fill="none" stroke="#63b8ff" d="M921.21,-281.33C866.05,-273.86 760.89,-251.29 706,-185 681.96,-155.96 673.05,-111.5 669.8,-85.91"/>
<polygon fill="#63b8ff" stroke="#63b8ff" points="673.31,-85.79 668.76,-76.22 666.35,-86.54 673.31,-85.79"/>
</a>
</g>
</g>
<!-- Node5&#45;&gt;Node6 -->
<g id="edge5_Node000005_Node000006" class="edge">
<title>Node5&#45;&gt;Node6</title>
<g id="a_edge5_Node000005_Node000006"><a xlink:title=" ">
<path fill="none" stroke="#63b8ff" d="M939.87,-275.84C924.34,-267.66 901.2,-255.46 883.16,-245.94"/>
<polygon fill="#63b8ff" stroke="#63b8ff" points="885.03,-242.98 874.56,-241.41 881.77,-249.17 885.03,-242.98"/>
</a>
</g>
</g>
<!-- Node19 -->
<g id="Node000019" class="node">
<title>Node19</title>
<g id="a_Node000019"><a xlink:title=" ">
<polygon fill="#e0e0e0" stroke="#999999" points="1033.75,-185 980.25,-185 980.25,-165.75 1033.75,-165.75 1033.75,-185"/>
<text text-anchor="middle" x="1007" y="-171.5" font-family="Helvetica,sans-Serif" font-size="10.00">Rtypes.h</text>
</a>
</g>
</g>
<!-- Node5&#45;&gt;Node19 -->
<g id="edge61_Node000005_Node000019" class="edge">
<title>Node5&#45;&gt;Node19</title>
<g id="a_edge61_Node000005_Node000019"><a xlink:title=" ">
<path fill="none" stroke="#63b8ff" d="M958.73,-275.87C961.38,-263.19 967.08,-239.56 976,-221 980.48,-211.67 986.82,-202.15 992.59,-194.3"/>
<polygon fill="#63b8ff" stroke="#63b8ff" points="995.18,-196.67 998.5,-186.61 989.63,-192.41 995.18,-196.67"/>
</a>
</g>
</g>
<!-- Node21 -->
<g id="Node000021" class="node">
<title>Node21</title>
<g id="a_Node000021"><a xlink:href="_t_p_p_g_8h.html" target="_top" xlink:title=" ">
<polygon fill="white" stroke="#666666" points="1102.25,-185 1051.75,-185 1051.75,-165.75 1102.25,-165.75 1102.25,-185"/>
<text text-anchor="middle" x="1077" y="-171.5" font-family="Helvetica,sans-Serif" font-size="10.00">TPPG.h</text>
</a>
</g>
</g>
<!-- Node5&#45;&gt;Node21 -->
<g id="edge57_Node000005_Node000021" class="edge">
<title>Node5&#45;&gt;Node21</title>
<g id="a_edge57_Node000005_Node000021"><a xlink:title=" ">
<path fill="none" stroke="#63b8ff" d="M978.31,-275.77C994.79,-268 1017.52,-255.66 1034,-240.25 1048.02,-227.14 1059.85,-208.64 1067.52,-194.92"/>
<polygon fill="#63b8ff" stroke="#63b8ff" points="1070.41,-196.94 1072.04,-186.47 1064.24,-193.64 1070.41,-196.94"/>
</a>
</g>
</g>
<!-- Node23 -->
<g id="Node000023" class="node">
<title>Node23</title>
<g id="a_Node000023"><a xlink:title=" ">
<polygon fill="#e0e0e0" stroke="#999999" points="1401.75,-19.25 1348.25,-19.25 1348.25,0 1401.75,0 1401.75,-19.25"/>
<text text-anchor="middle" x="1375" y="-5.75" font-family="Helvetica,sans-Serif" font-size="10.00">iostream</text>
</a>
</g>
</g>
<!-- Node5&#45;&gt;Node23 -->
<g id="edge58_Node000005_Node000023" class="edge">
<title>Node5&#45;&gt;Node23</title>
<g id="a_edge58_Node000005_Node000023"><a xlink:title=" ">
<path fill="none" stroke="#63b8ff" d="M992.69,-283.9C1099.12,-280.02 1407,-261.46 1407,-176.38 1407,-176.38 1407,-176.38 1407,-119.12 1407,-86.81 1393.78,-51.22 1384.34,-29.91"/>
<polygon fill="#63b8ff" stroke="#63b8ff" points="1387.6,-28.62 1380.22,-21.02 1381.25,-31.57 1387.6,-28.62"/>
</a>
</g>
</g>
<!-- Node45 -->
<g id="Node000045" class="node">
<title>Node45</title>
<g id="a_Node000045"><a xlink:title=" ">
<polygon fill="#e0e0e0" stroke="#999999" points="1025,-240.25 985,-240.25 985,-221 1025,-221 1025,-240.25"/>
<text text-anchor="middle" x="1005" y="-226.75" font-family="Helvetica,sans-Serif" font-size="10.00">ctime</text>
</a>
</g>
</g>
<!-- Node5&#45;&gt;Node45 -->
<g id="edge60_Node000005_Node000045" class="edge">
<title>Node5&#45;&gt;Node45</title>
<g id="a_edge60_Node000005_Node000045"><a xlink:title=" ">
<path fill="none" stroke="#63b8ff" d="M964.93,-276.08C971.56,-268.73 981.22,-258.01 989.39,-248.94"/>
<polygon fill="#63b8ff" stroke="#63b8ff" points="991.79,-251.5 995.89,-241.73 986.59,-246.82 991.79,-251.5"/>
</a>
</g>
</g>
<!-- Node6&#45;&gt;Node4 -->
<g id="edge6_Node000006_Node000004" class="edge">
<title>Node6&#45;&gt;Node4</title>
<g id="a_edge6_Node000006_Node000004"><a xlink:title=" ">
<path fill="none" stroke="#63b8ff" d="M852.17,-220.54C842.51,-198.66 815.14,-142.52 776,-110.5 753.97,-92.48 723.65,-80.81 700.74,-73.94"/>
<polygon fill="#63b8ff" stroke="#63b8ff" points="701.87,-70.62 691.3,-71.27 699.97,-77.36 701.87,-70.62"/>
</a>
</g>
</g>
<!-- Node6&#45;&gt;Node7 -->
<g id="edge7_Node000006_Node000007" class="edge">
<title>Node6&#45;&gt;Node7</title>
<g id="a_edge7_Node000006_Node000007"><a xlink:title=" ">
<path fill="none" stroke="#63b8ff" d="M816.15,-224.76C734.54,-214.79 548.91,-192.12 463.94,-181.74"/>
<polygon fill="#63b8ff" stroke="#63b8ff" points="464.5,-178.28 454.15,-180.55 463.65,-185.23 464.5,-178.28"/>
</a>
</g>
</g>
<!-- Node6&#45;&gt;Node17 -->
<g id="edge20_Node000006_Node000017" class="edge">
<title>Node6&#45;&gt;Node17</title>
<g id="a_edge20_Node000006_Node000017"><a xlink:title=" ">
<path fill="none" stroke="#63b8ff" d="M895.62,-226.17C1004.93,-216.65 1310.18,-190.04 1423.73,-180.15"/>
<polygon fill="#63b8ff" stroke="#63b8ff" points="1423.88,-183.65 1433.54,-179.29 1423.27,-176.67 1423.88,-183.65"/>
</a>
</g>
</g>
<!-- Node18 -->
<g id="Node000018" class="node">
<title>Node18</title>
<g id="a_Node000018"><a xlink:title=" ">
<polygon fill="#e0e0e0" stroke="#999999" points="909,-74.5 851,-74.5 851,-55.25 909,-55.25 909,-74.5"/>
<text text-anchor="middle" x="880" y="-61" font-family="Helvetica,sans-Serif" font-size="10.00">TObject.h</text>
</a>
</g>
</g>
<!-- Node6&#45;&gt;Node18 -->
<g id="edge21_Node000006_Node000018" class="edge">
<title>Node6&#45;&gt;Node18</title>
<g id="a_edge21_Node000006_Node000018"><a xlink:title=" ">
<path fill="none" stroke="#63b8ff" d="M856.08,-220.57C856.41,-200.53 858.04,-151.03 866,-110.5 867.62,-102.24 870.23,-93.35 872.75,-85.69"/>
<polygon fill="#63b8ff" stroke="#63b8ff" points="876.01,-86.98 876,-76.38 869.4,-84.67 876.01,-86.98"/>
</a>
</g>
</g>
<!-- Node6&#45;&gt;Node19 -->
<g id="edge22_Node000006_Node000019" class="edge">
<title>Node6&#45;&gt;Node19</title>
<g id="a_edge22_Node000006_Node000019"><a xlink:title=" ">
<path fill="none" stroke="#63b8ff" d="M881.62,-220.59C906.02,-211.99 943.01,-198.94 970.5,-189.25"/>
<polygon fill="#63b8ff" stroke="#63b8ff" points="971.57,-192.58 979.83,-185.96 969.24,-185.98 971.57,-192.58"/>
</a>
</g>
</g>
<!-- Node20 -->
<g id="Node000020" class="node">
<title>Node20</title>
<g id="a_Node000020"><a xlink:title=" ">
<polygon fill="#e0e0e0" stroke="#999999" points="780.75,-185 715.25,-185 715.25,-165.75 780.75,-165.75 780.75,-185"/>
<text text-anchor="middle" x="748" y="-171.5" font-family="Helvetica,sans-Serif" font-size="10.00">TRandom.h</text>
</a>
</g>
</g>
<!-- Node6&#45;&gt;Node20 -->
<g id="edge23_Node000006_Node000020" class="edge">
<title>Node6&#45;&gt;Node20</title>
<g id="a_edge23_Node000006_Node000020"><a xlink:title=" ">
<path fill="none" stroke="#63b8ff" d="M837.68,-220.59C820.92,-212.33 795.87,-199.98 776.5,-190.43"/>
<polygon fill="#63b8ff" stroke="#63b8ff" points="778.28,-187.4 767.77,-186.12 775.19,-193.68 778.28,-187.4"/>
</a>
</g>
</g>
<!-- Node6&#45;&gt;Node21 -->
<g id="edge24_Node000006_Node000021" class="edge">
<title>Node6&#45;&gt;Node21</title>
<g id="a_edge24_Node000006_Node000021"><a xlink:title=" ">
<path fill="none" stroke="#63b8ff" d="M894.72,-220.55C930.2,-212.21 984.47,-199.34 1040.22,-185.66"/>
<polygon fill="#63b8ff" stroke="#63b8ff" points="1041.05,-189.06 1049.92,-183.27 1039.37,-182.26 1041.05,-189.06"/>
</a>
</g>
</g>
<!-- Node43 -->
<g id="Node000043" class="node">
<title>Node43</title>
<g id="a_Node000043"><a xlink:href="_t_transient_bits_8h.html" target="_top" xlink:title=" ">
<polygon fill="white" stroke="#666666" points="962.62,-185 875.38,-185 875.38,-165.75 962.62,-165.75 962.62,-185"/>
<text text-anchor="middle" x="919" y="-171.5" font-family="Helvetica,sans-Serif" font-size="10.00">TTransientBits.h</text>
</a>
</g>
</g>
<!-- Node6&#45;&gt;Node43 -->
<g id="edge54_Node000006_Node000043" class="edge">
<title>Node6&#45;&gt;Node43</title>
<g id="a_edge54_Node000006_Node000043"><a xlink:title=" ">
<path fill="none" stroke="#63b8ff" d="M866.69,-220.59C875.7,-212.97 888.83,-201.87 899.68,-192.7"/>
<polygon fill="#63b8ff" stroke="#63b8ff" points="901.94,-195.38 907.31,-186.25 897.42,-190.03 901.94,-195.38"/>
</a>
</g>
</g>
<!-- Node7&#45;&gt;Node3 -->
<g id="edge9_Node000007_Node000003" class="edge">
<title>Node7&#45;&gt;Node3</title>
<g id="a_edge9_Node000007_Node000003"><a xlink:title=" ">
<path fill="none" stroke="#63b8ff" d="M387.38,-171.73C328.4,-166.59 199.97,-153.82 83.13,-130.14"/>
<polygon fill="#63b8ff" stroke="#63b8ff" points="83.84,-126.72 73.34,-128.12 82.43,-133.57 83.84,-126.72"/>
</a>
</g>
</g>
<!-- Node8 -->
<g id="Node000008" class="node">
<title>Node8</title>
<g id="a_Node000008"><a xlink:title=" ">
<polygon fill="#e0e0e0" stroke="#999999" points="497,-19.25 457,-19.25 457,0 497,0 497,-19.25"/>
<text text-anchor="middle" x="477" y="-5.75" font-family="Helvetica,sans-Serif" font-size="10.00">string</text>
</a>
</g>
</g>
<!-- Node7&#45;&gt;Node8 -->
<g id="edge8_Node000007_Node000008" class="edge">
<title>Node7&#45;&gt;Node8</title>
<g id="a_edge8_Node000007_Node000008"><a xlink:title=" ">
<path fill="none" stroke="#63b8ff" d="M387.3,-172.04C338.31,-167.14 254.2,-152.5 280,-110.5 316.37,-51.29 399.97,-25.86 445.7,-16.05"/>
<polygon fill="#63b8ff" stroke="#63b8ff" points="446.13,-19.54 455.25,-14.14 444.75,-12.68 446.13,-19.54"/>
</a>
</g>
</g>
<!-- Node9 -->
<g id="Node000009" class="node">
<title>Node9</title>
<g id="a_Node000009"><a xlink:title=" ">
<polygon fill="#e0e0e0" stroke="#999999" points="767.25,-129.75 728.75,-129.75 728.75,-110.5 767.25,-110.5 767.25,-129.75"/>
<text text-anchor="middle" x="748" y="-116.25" font-family="Helvetica,sans-Serif" font-size="10.00">utility</text>
</a>
</g>
</g>
<!-- Node7&#45;&gt;Node9 -->
<g id="edge10_Node000007_Node000009" class="edge">
<title>Node7&#45;&gt;Node9</title>
<g id="a_edge10_Node000007_Node000009"><a xlink:title=" ">
<path fill="none" stroke="#63b8ff" d="M452.65,-169.07C516.15,-158.77 655.46,-136.15 717.34,-126.1"/>
<polygon fill="#63b8ff" stroke="#63b8ff" points="717.83,-129.57 727.14,-124.51 716.71,-122.66 717.83,-129.57"/>
</a>
</g>
</g>
<!-- Node10 -->
<g id="Node000010" class="node">
<title>Node10</title>
<g id="a_Node000010"><a xlink:title=" ">
<polygon fill="#e0e0e0" stroke="#999999" points="371.38,-129.75 288.62,-129.75 288.62,-110.5 371.38,-110.5 371.38,-129.75"/>
<text text-anchor="middle" x="330" y="-116.25" font-family="Helvetica,sans-Serif" font-size="10.00">unordered_map</text>
</a>
</g>
</g>
<!-- Node7&#45;&gt;Node10 -->
<g id="edge11_Node000007_Node000010" class="edge">
<title>Node7&#45;&gt;Node10</title>
<g id="a_edge11_Node000007_Node000010"><a xlink:title=" ">
<path fill="none" stroke="#63b8ff" d="M404.73,-165.34C391.16,-157.31 371.05,-145.41 355.1,-135.98"/>
<polygon fill="#63b8ff" stroke="#63b8ff" points="357.03,-133.05 346.64,-130.97 353.47,-139.08 357.03,-133.05"/>
</a>
</g>
</g>
<!-- Node11 -->
<g id="Node000011" class="node">
<title>Node11</title>
<g id="a_Node000011"><a xlink:title=" ">
<polygon fill="#e0e0e0" stroke="#999999" points="450.5,-129.75 389.5,-129.75 389.5,-110.5 450.5,-110.5 450.5,-129.75"/>
<text text-anchor="middle" x="420" y="-116.25" font-family="Helvetica,sans-Serif" font-size="10.00">TNamed.h</text>
</a>
</g>
</g>
<!-- Node7&#45;&gt;Node11 -->
<g id="edge12_Node000007_Node000011" class="edge">
<title>Node7&#45;&gt;Node11</title>
<g id="a_edge12_Node000007_Node000011"><a xlink:title=" ">
<path fill="none" stroke="#63b8ff" d="M420,-165.58C420,-159.07 420,-149.92 420,-141.62"/>
<polygon fill="#63b8ff" stroke="#63b8ff" points="423.5,-141.62 420,-131.62 416.5,-141.62 423.5,-141.62"/>
</a>
</g>
</g>
<!-- Node12 -->
<g id="Node000012" class="node">
<title>Node12</title>
<g id="a_Node000012"><a xlink:title=" ">
<polygon fill="#e0e0e0" stroke="#999999" points="620.5,-129.75 571.5,-129.75 571.5,-110.5 620.5,-110.5 620.5,-129.75"/>
<text text-anchor="middle" x="596" y="-116.25" font-family="Helvetica,sans-Serif" font-size="10.00">TTree.h</text>
</a>
</g>
</g>
<!-- Node7&#45;&gt;Node12 -->
<g id="edge13_Node000007_Node000012" class="edge">
<title>Node7&#45;&gt;Node12</title>
<g id="a_edge13_Node000007_Node000012"><a xlink:title=" ">
<path fill="none" stroke="#63b8ff" d="M449.86,-165.34C480.39,-156.1 527.82,-141.75 560.31,-131.92"/>
<polygon fill="#63b8ff" stroke="#63b8ff" points="561.12,-135.33 569.68,-129.09 559.09,-128.63 561.12,-135.33"/>
</a>
</g>
</g>
<!-- Node13 -->
<g id="Node000013" class="node">
<title>Node13</title>
<g id="a_Node000013"><a xlink:title=" ">
<polygon fill="#e0e0e0" stroke="#999999" points="144.88,-129.75 89.12,-129.75 89.12,-110.5 144.88,-110.5 144.88,-129.75"/>
<text text-anchor="middle" x="117" y="-116.25" font-family="Helvetica,sans-Serif" font-size="10.00">TGraph.h</text>
</a>
</g>
</g>
<!-- Node7&#45;&gt;Node13 -->
<g id="edge14_Node000007_Node000013" class="edge">
<title>Node7&#45;&gt;Node13</title>
<g id="a_edge14_Node000007_Node000013"><a xlink:title=" ">
<path fill="none" stroke="#63b8ff" d="M387.53,-169.6C339.31,-162.37 245.68,-147.76 156.39,-130.12"/>
<polygon fill="#63b8ff" stroke="#63b8ff" points="157.22,-126.72 146.73,-128.2 155.85,-133.58 157.22,-126.72"/>
</a>
</g>
</g>
<!-- Node14 -->
<g id="Node000014" class="node">
<title>Node14</title>
<g id="a_Node000014"><a xlink:title=" ">
<polygon fill="#e0e0e0" stroke="#999999" points="232.62,-129.75 163.38,-129.75 163.38,-110.5 232.62,-110.5 232.62,-129.75"/>
<text text-anchor="middle" x="198" y="-116.25" font-family="Helvetica,sans-Serif" font-size="10.00">TClassRef.h</text>
</a>
</g>
</g>
<!-- Node7&#45;&gt;Node14 -->
<g id="edge15_Node000007_Node000014" class="edge">
<title>Node7&#45;&gt;Node14</title>
<g id="a_edge15_Node000007_Node000014"><a xlink:title=" ">
<path fill="none" stroke="#63b8ff" d="M387.24,-166.52C349.38,-157.44 286.8,-142.42 244.05,-132.17"/>
<polygon fill="#63b8ff" stroke="#63b8ff" points="245.1,-128.82 234.56,-129.9 243.47,-135.63 245.1,-128.82"/>
</a>
</g>
</g>
<!-- Node15 -->
<g id="Node000015" class="node">
<title>Node15</title>
<g id="a_Node000015"><a xlink:href="_t_priority_value_8h.html" target="_top" xlink:title=" ">
<polygon fill="white" stroke="#666666" points="553.12,-129.75 468.88,-129.75 468.88,-110.5 553.12,-110.5 553.12,-129.75"/>
<text text-anchor="middle" x="511" y="-116.25" font-family="Helvetica,sans-Serif" font-size="10.00">TPriorityValue.h</text>
</a>
</g>
</g>
<!-- Node7&#45;&gt;Node15 -->
<g id="edge16_Node000007_Node000015" class="edge">
<title>Node7&#45;&gt;Node15</title>
<g id="a_edge16_Node000007_Node000015"><a xlink:title=" ">
<path fill="none" stroke="#63b8ff" d="M435.44,-165.34C449.16,-157.31 469.5,-145.41 485.62,-135.98"/>
<polygon fill="#63b8ff" stroke="#63b8ff" points="487.32,-139.04 494.18,-130.97 483.78,-133 487.32,-139.04"/>
</a>
</g>
</g>
<!-- Node15&#45;&gt;Node4 -->
<g id="edge19_Node000015_Node000004" class="edge">
<title>Node15&#45;&gt;Node4</title>
<g id="a_edge19_Node000015_Node000004"><a xlink:title=" ">
<path fill="none" stroke="#63b8ff" d="M537.63,-110.09C564.66,-100.92 606.55,-86.72 635.51,-76.89"/>
<polygon fill="#63b8ff" stroke="#63b8ff" points="636.52,-80.25 644.87,-73.72 634.27,-73.62 636.52,-80.25"/>
</a>
</g>
</g>
<!-- Node15&#45;&gt;Node8 -->
<g id="edge18_Node000015_Node000008" class="edge">
<title>Node15&#45;&gt;Node8</title>
<g id="a_edge18_Node000015_Node000008"><a xlink:title=" ">
<path fill="none" stroke="#63b8ff" d="M508.51,-110.42C504.97,-98.09 498.22,-74.88 492,-55.25 489.41,-47.07 486.42,-38.09 483.8,-30.35"/>
<polygon fill="#63b8ff" stroke="#63b8ff" points="487.12,-29.25 480.57,-20.92 480.49,-31.51 487.12,-29.25"/>
</a>
</g>
</g>
<!-- Node16 -->
<g id="Node000016" class="node">
<title>Node16</title>
<g id="a_Node000016"><a xlink:title=" ">
<polygon fill="#e0e0e0" stroke="#999999" points="482.62,-74.5 431.38,-74.5 431.38,-55.25 482.62,-55.25 482.62,-74.5"/>
<text text-anchor="middle" x="457" y="-61" font-family="Helvetica,sans-Serif" font-size="10.00">ostream</text>
</a>
</g>
</g>
<!-- Node15&#45;&gt;Node16 -->
<g id="edge17_Node000015_Node000016" class="edge">
<title>Node15&#45;&gt;Node16</title>
<g id="a_edge17_Node000015_Node000016"><a xlink:title=" ">
<path fill="none" stroke="#63b8ff" d="M502.08,-110.33C494.55,-102.9 483.53,-92.04 474.27,-82.91"/>
<polygon fill="#63b8ff" stroke="#63b8ff" points="476.77,-80.45 467.19,-75.92 471.85,-85.44 476.77,-80.45"/>
</a>
</g>
</g>
<!-- Node21&#45;&gt;Node9 -->
<g id="edge26_Node000021_Node000009" class="edge">
<title>Node21&#45;&gt;Node9</title>
<g id="a_edge26_Node000021_Node000009"><a xlink:title=" ">
<path fill="none" stroke="#63b8ff" d="M1051.44,-167.6C1048.6,-166.94 1045.75,-166.3 1043,-165.75 947.18,-146.4 832.31,-131.33 778.56,-124.74"/>
<polygon fill="#63b8ff" stroke="#63b8ff" points="779.3,-121.3 768.95,-123.58 778.45,-128.25 779.3,-121.3"/>
</a>
</g>
</g>
<!-- Node21&#45;&gt;Node18 -->
<g id="edge28_Node000021_Node000018" class="edge">
<title>Node21&#45;&gt;Node18</title>
<g id="a_edge28_Node000021_Node000018"><a xlink:title=" ">
<path fill="none" stroke="#63b8ff" d="M1060.54,-165.31C1026.43,-146.52 947.75,-103.19 906.44,-80.43"/>
<polygon fill="#63b8ff" stroke="#63b8ff" points="908.32,-77.48 897.87,-75.72 904.95,-83.61 908.32,-77.48"/>
</a>
</g>
</g>
<!-- Node22 -->
<g id="Node000022" class="node">
<title>Node22</title>
<g id="a_Node000022"><a xlink:title=" ">
<polygon fill="#e0e0e0" stroke="#999999" points="1115.38,-129.75 1080.62,-129.75 1080.62,-110.5 1115.38,-110.5 1115.38,-129.75"/>
<text text-anchor="middle" x="1098" y="-116.25" font-family="Helvetica,sans-Serif" font-size="10.00">map</text>
</a>
</g>
</g>
<!-- Node21&#45;&gt;Node22 -->
<g id="edge25_Node000021_Node000022" class="edge">
<title>Node21&#45;&gt;Node22</title>
<g id="a_edge25_Node000021_Node000022"><a xlink:title=" ">
<path fill="none" stroke="#63b8ff" d="M1080.47,-165.58C1083.13,-158.84 1086.9,-149.27 1090.26,-140.74"/>
<polygon fill="#63b8ff" stroke="#63b8ff" points="1093.49,-142.1 1093.9,-131.52 1086.98,-139.54 1093.49,-142.1"/>
</a>
</g>
</g>
<!-- Node21&#45;&gt;Node23 -->
<g id="edge27_Node000021_Node000023" class="edge">
<title>Node21&#45;&gt;Node23</title>
<g id="a_edge27_Node000021_Node000023"><a xlink:title=" ">
<path fill="none" stroke="#63b8ff" d="M1102.73,-171.92C1154.89,-166.52 1270.82,-152.29 1303,-129.75 1338.19,-105.1 1359.22,-57.24 1368.8,-30.29"/>
<polygon fill="#63b8ff" stroke="#63b8ff" points="1372.06,-31.57 1371.92,-20.98 1365.42,-29.35 1372.06,-31.57"/>
</a>
</g>
</g>
<!-- Node24 -->
<g id="Node000024" class="node">
<title>Node24</title>
<g id="a_Node000024"><a xlink:title=" ">
<polygon fill="#e0e0e0" stroke="#999999" points="1206.12,-129.75 1133.88,-129.75 1133.88,-110.5 1206.12,-110.5 1206.12,-129.75"/>
<text text-anchor="middle" x="1170" y="-116.25" font-family="Helvetica,sans-Serif" font-size="10.00">TCollection.h</text>
</a>
</g>
</g>
<!-- Node21&#45;&gt;Node24 -->
<g id="edge29_Node000021_Node000024" class="edge">
<title>Node21&#45;&gt;Node24</title>
<g id="a_edge29_Node000021_Node000024"><a xlink:title=" ">
<path fill="none" stroke="#63b8ff" d="M1092.78,-165.34C1106.94,-157.23 1127.98,-145.18 1144.53,-135.71"/>
<polygon fill="#63b8ff" stroke="#63b8ff" points="1145.89,-138.96 1152.83,-130.95 1142.42,-132.89 1145.89,-138.96"/>
</a>
</g>
</g>
<!-- Node25 -->
<g id="Node000025" class="node">
<title>Node25</title>
<g id="a_Node000025"><a xlink:href="_globals_8h.html" target="_top" xlink:title=" ">
<polygon fill="white" stroke="#666666" points="983.25,-74.5 926.75,-74.5 926.75,-55.25 983.25,-55.25 983.25,-74.5"/>
<text text-anchor="middle" x="955" y="-61" font-family="Helvetica,sans-Serif" font-size="10.00">Globals.h</text>
</a>
</g>
</g>
<!-- Node21&#45;&gt;Node25 -->
<g id="edge30_Node000021_Node000025" class="edge">
<title>Node21&#45;&gt;Node25</title>
<g id="a_edge30_Node000021_Node000025"><a xlink:title=" ">
<path fill="none" stroke="#63b8ff" d="M1067.02,-165.5C1046.55,-147.3 999.58,-105.52 973.43,-82.26"/>
<polygon fill="#63b8ff" stroke="#63b8ff" points="976.05,-79.91 966.25,-75.88 971.4,-85.14 976.05,-79.91"/>
</a>
</g>
</g>
<!-- Node38 -->
<g id="Node000038" class="node">
<title>Node38</title>
<g id="a_Node000038"><a xlink:href="_t_singleton_8h.html" target="_top" xlink:title=" ">
<polygon fill="white" stroke="#666666" points="1294,-129.75 1224,-129.75 1224,-110.5 1294,-110.5 1294,-129.75"/>
<text text-anchor="middle" x="1259" y="-116.25" font-family="Helvetica,sans-Serif" font-size="10.00">TSingleton.h</text>
</a>
</g>
</g>
<!-- Node21&#45;&gt;Node38 -->
<g id="edge46_Node000021_Node000038" class="edge">
<title>Node21&#45;&gt;Node38</title>
<g id="a_edge46_Node000021_Node000038"><a xlink:title=" ">
<path fill="none" stroke="#63b8ff" d="M1102.69,-166.86C1132.4,-158.17 1181.73,-143.73 1217.03,-133.4"/>
<polygon fill="#63b8ff" stroke="#63b8ff" points="1217.89,-136.8 1226.51,-130.63 1215.93,-130.08 1217.89,-136.8"/>
</a>
</g>
</g>
<!-- Node25&#45;&gt;Node2 -->
<g id="edge35_Node000025_Node000002" class="edge">
<title>Node25&#45;&gt;Node2</title>
<g id="a_edge35_Node000025_Node000002"><a xlink:title=" ">
<path fill="none" stroke="#63b8ff" d="M926.41,-56.71C923.58,-56.16 920.74,-55.65 918,-55.25 784.13,-35.59 360.11,-16.98 238.75,-11.95"/>
<polygon fill="#63b8ff" stroke="#63b8ff" points="238.98,-8.46 228.85,-11.54 238.7,-15.45 238.98,-8.46"/>
</a>
</g>
</g>
<!-- Node25&#45;&gt;Node8 -->
<g id="edge34_Node000025_Node000008" class="edge">
<title>Node25&#45;&gt;Node8</title>
<g id="a_edge34_Node000025_Node000008"><a xlink:title=" ">
<path fill="none" stroke="#63b8ff" d="M926.4,-56.78C923.57,-56.21 920.74,-55.69 918,-55.25 740.12,-26.89 688.62,-52.55 508.66,-19.38"/>
<polygon fill="#63b8ff" stroke="#63b8ff" points="509.43,-15.96 498.96,-17.55 508.14,-22.84 509.43,-15.96"/>
</a>
</g>
</g>
<!-- Node25&#45;&gt;Node23 -->
<g id="edge31_Node000025_Node000023" class="edge">
<title>Node25&#45;&gt;Node23</title>
<g id="a_edge31_Node000025_Node000023"><a xlink:title=" ">
<path fill="none" stroke="#63b8ff" d="M983.65,-58.14C989.38,-57.1 995.37,-56.08 1001,-55.25 1146.97,-33.83 1188.2,-44.38 1337.05,-19.36"/>
<polygon fill="#63b8ff" stroke="#63b8ff" points="1337.19,-22.89 1346.46,-17.76 1336.01,-15.99 1337.19,-22.89"/>
</a>
</g>
</g>
<!-- Node26 -->
<g id="Node000026" class="node">
<title>Node26</title>
<g id="a_Node000026"><a xlink:title=" ">
<polygon fill="#e0e0e0" stroke="#999999" points="1127.88,-19.25 1078.12,-19.25 1078.12,0 1127.88,0 1127.88,-19.25"/>
<text text-anchor="middle" x="1103" y="-5.75" font-family="Helvetica,sans-Serif" font-size="10.00">iomanip</text>
</a>
</g>
</g>
<!-- Node25&#45;&gt;Node26 -->
<g id="edge32_Node000025_Node000026" class="edge">
<title>Node25&#45;&gt;Node26</title>
<g id="a_edge32_Node000025_Node000026"><a xlink:title=" ">
<path fill="none" stroke="#63b8ff" d="M980.11,-54.84C1004.03,-46.24 1040.28,-33.19 1067.22,-23.5"/>
<polygon fill="#63b8ff" stroke="#63b8ff" points="1068.12,-26.89 1076.35,-20.21 1065.75,-20.31 1068.12,-26.89"/>
</a>
</g>
</g>
<!-- Node27 -->
<g id="Node000027" class="node">
<title>Node27</title>
<g id="a_Node000027"><a xlink:title=" ">
<polygon fill="#e0e0e0" stroke="#999999" points="1204,-19.25 1146,-19.25 1146,0 1204,0 1204,-19.25"/>
<text text-anchor="middle" x="1175" y="-5.75" font-family="Helvetica,sans-Serif" font-size="10.00">stdexcept</text>
</a>
</g>
</g>
<!-- Node25&#45;&gt;Node27 -->
<g id="edge33_Node000025_Node000027" class="edge">
<title>Node25&#45;&gt;Node27</title>
<g id="a_edge33_Node000025_Node000027"><a xlink:title=" ">
<path fill="none" stroke="#63b8ff" d="M983.31,-57.02C1021.77,-47.71 1090.75,-31.02 1134.63,-20.4"/>
<polygon fill="#63b8ff" stroke="#63b8ff" points="1135.38,-23.82 1144.28,-18.06 1133.73,-17.01 1135.38,-23.82"/>
</a>
</g>
</g>
<!-- Node28 -->
<g id="Node000028" class="node">
<title>Node28</title>
<g id="a_Node000028"><a xlink:title=" ">
<polygon fill="#e0e0e0" stroke="#999999" points="1267.62,-19.25 1222.38,-19.25 1222.38,0 1267.62,0 1267.62,-19.25"/>
<text text-anchor="middle" x="1245" y="-5.75" font-family="Helvetica,sans-Serif" font-size="10.00">cstdint</text>
</a>
</g>
</g>
<!-- Node25&#45;&gt;Node28 -->
<g id="edge36_Node000025_Node000028" class="edge">
<title>Node25&#45;&gt;Node28</title>
<g id="a_edge36_Node000025_Node000028"><a xlink:title=" ">
<path fill="none" stroke="#63b8ff" d="M983.7,-58.42C989.42,-57.35 995.4,-56.25 1001,-55.25 1091.59,-39.07 1117.73,-39.64 1210.91,-19.53"/>
<polygon fill="#63b8ff" stroke="#63b8ff" points="1211.49,-22.98 1220.51,-17.43 1210,-16.14 1211.49,-22.98"/>
</a>
</g>
</g>
<!-- Node29 -->
<g id="Node000029" class="node">
<title>Node29</title>
<g id="a_Node000029"><a xlink:title=" ">
<polygon fill="#e0e0e0" stroke="#999999" points="1330.25,-19.25 1285.75,-19.25 1285.75,0 1330.25,0 1330.25,-19.25"/>
<text text-anchor="middle" x="1308" y="-5.75" font-family="Helvetica,sans-Serif" font-size="10.00">cstdlib</text>
</a>
</g>
</g>
<!-- Node25&#45;&gt;Node29 -->
<g id="edge37_Node000025_Node000029" class="edge">
<title>Node25&#45;&gt;Node29</title>
<g id="a_edge37_Node000025_Node000029"><a xlink:title=" ">
<path fill="none" stroke="#63b8ff" d="M983.67,-58.25C989.4,-57.19 995.38,-56.14 1001,-55.25 1119.59,-36.41 1153.79,-43.44 1274.25,-19.56"/>
<polygon fill="#63b8ff" stroke="#63b8ff" points="1274.81,-23.02 1283.92,-17.61 1273.42,-16.16 1274.81,-23.02"/>
</a>
</g>
</g>
<!-- Node30 -->
<g id="Node000030" class="node">
<title>Node30</title>
<g id="a_Node000030"><a xlink:title=" ">
<polygon fill="#e0e0e0" stroke="#999999" points="574.75,-19.25 515.25,-19.25 515.25,0 574.75,0 574.75,-19.25"/>
<text text-anchor="middle" x="545" y="-5.75" font-family="Helvetica,sans-Serif" font-size="10.00">execinfo.h</text>
</a>
</g>
</g>
<!-- Node25&#45;&gt;Node30 -->
<g id="edge38_Node000025_Node000030" class="edge">
<title>Node25&#45;&gt;Node30</title>
<g id="a_edge38_Node000025_Node000030"><a xlink:title=" ">
<path fill="none" stroke="#63b8ff" d="M926.39,-56.84C923.56,-56.26 920.73,-55.71 918,-55.25 774.4,-30.87 733.33,-42.79 586.4,-19.46"/>
<polygon fill="#63b8ff" stroke="#63b8ff" points="587.1,-16.03 576.66,-17.88 585.98,-22.94 587.1,-16.03"/>
</a>
</g>
</g>
<!-- Node31 -->
<g id="Node000031" class="node">
<title>Node31</title>
<g id="a_Node000031"><a xlink:title=" ">
<polygon fill="#e0e0e0" stroke="#999999" points="643.25,-19.25 592.75,-19.25 592.75,0 643.25,0 643.25,-19.25"/>
<text text-anchor="middle" x="618" y="-5.75" font-family="Helvetica,sans-Serif" font-size="10.00">cxxabi.h</text>
</a>
</g>
</g>
<!-- Node25&#45;&gt;Node31 -->
<g id="edge39_Node000025_Node000031" class="edge">
<title>Node25&#45;&gt;Node31</title>
<g id="a_edge39_Node000025_Node000031"><a xlink:title=" ">
<path fill="none" stroke="#63b8ff" d="M926.37,-56.92C923.55,-56.32 920.72,-55.75 918,-55.25 804.22,-34.34 771.11,-41.48 654.7,-19.58"/>
<polygon fill="#63b8ff" stroke="#63b8ff" points="655.52,-16.17 645.04,-17.72 654.2,-23.04 655.52,-16.17"/>
</a>
</g>
</g>
<!-- Node32 -->
<g id="Node000032" class="node">
<title>Node32</title>
<g id="a_Node000032"><a xlink:title=" ">
<polygon fill="#e0e0e0" stroke="#999999" points="712.62,-19.25 661.38,-19.25 661.38,0 712.62,0 712.62,-19.25"/>
<text text-anchor="middle" x="687" y="-5.75" font-family="Helvetica,sans-Serif" font-size="10.00">sstream</text>
</a>
</g>
</g>
<!-- Node25&#45;&gt;Node32 -->
<g id="edge40_Node000025_Node000032" class="edge">
<title>Node25&#45;&gt;Node32</title>
<g id="a_edge40_Node000025_Node000032"><a xlink:title=" ">
<path fill="none" stroke="#63b8ff" d="M926.35,-57.05C923.53,-56.43 920.71,-55.81 918,-55.25 834.76,-37.91 810.51,-37.83 724.1,-19.58"/>
<polygon fill="#63b8ff" stroke="#63b8ff" points="724.94,-16.19 714.43,-17.52 723.48,-23.03 724.94,-16.19"/>
</a>
</g>
</g>
<!-- Node33 -->
<g id="Node000033" class="node">
<title>Node33</title>
<g id="a_Node000033"><a xlink:title=" ">
<polygon fill="#e0e0e0" stroke="#999999" points="767.5,-19.25 730.5,-19.25 730.5,0 767.5,0 767.5,-19.25"/>
<text text-anchor="middle" x="749" y="-5.75" font-family="Helvetica,sans-Serif" font-size="10.00">array</text>
</a>
</g>
</g>
<!-- Node25&#45;&gt;Node33 -->
<g id="edge41_Node000025_Node000033" class="edge">
<title>Node25&#45;&gt;Node33</title>
<g id="a_edge41_Node000025_Node000033"><a xlink:title=" ">
<path fill="none" stroke="#63b8ff" d="M926.52,-57.23C893.33,-49.38 836.62,-35.63 778.75,-19.62"/>
<polygon fill="#63b8ff" stroke="#63b8ff" points="779.97,-16.33 769.4,-17.01 778.09,-23.07 779.97,-16.33"/>
</a>
</g>
</g>
<!-- Node34 -->
<g id="Node000034" class="node">
<title>Node34</title>
<g id="a_Node000034"><a xlink:title=" ">
<polygon fill="#e0e0e0" stroke="#999999" points="836.25,-19.25 785.75,-19.25 785.75,0 836.25,0 836.25,-19.25"/>
<text text-anchor="middle" x="811" y="-5.75" font-family="Helvetica,sans-Serif" font-size="10.00">memory</text>
</a>
</g>
</g>
<!-- Node25&#45;&gt;Node34 -->
<g id="edge42_Node000025_Node000034" class="edge">
<title>Node25&#45;&gt;Node34</title>
<g id="a_edge42_Node000025_Node000034"><a xlink:title=" ">
<path fill="none" stroke="#63b8ff" d="M930.57,-54.84C907.4,-46.27 872.34,-33.31 846.16,-23.63"/>
<polygon fill="#63b8ff" stroke="#63b8ff" points="847.56,-20.41 836.97,-20.23 845.13,-26.98 847.56,-20.41"/>
</a>
</g>
</g>
<!-- Node35 -->
<g id="Node000035" class="node">
<title>Node35</title>
<g id="a_Node000035"><a xlink:title=" ">
<polygon fill="#e0e0e0" stroke="#999999" points="903.88,-19.25 854.12,-19.25 854.12,0 903.88,0 903.88,-19.25"/>
<text text-anchor="middle" x="879" y="-5.75" font-family="Helvetica,sans-Serif" font-size="10.00">unistd.h</text>
</a>
</g>
</g>
<!-- Node25&#45;&gt;Node35 -->
<g id="edge43_Node000025_Node000035" class="edge">
<title>Node25&#45;&gt;Node35</title>
<g id="a_edge43_Node000025_Node000035"><a xlink:title=" ">
<path fill="none" stroke="#63b8ff" d="M942.11,-54.84C930.97,-47.04 914.63,-35.59 901.36,-26.29"/>
<polygon fill="#63b8ff" stroke="#63b8ff" points="903.39,-23.44 893.2,-20.57 899.38,-29.18 903.39,-23.44"/>
</a>
</g>
</g>
<!-- Node36 -->
<g id="Node000036" class="node">
<title>Node36</title>
<g id="a_Node000036"><a xlink:title=" ">
<polygon fill="#e0e0e0" stroke="#999999" points="981.75,-19.25 922.25,-19.25 922.25,0 981.75,0 981.75,-19.25"/>
<text text-anchor="middle" x="952" y="-5.75" font-family="Helvetica,sans-Serif" font-size="10.00">sys/wait.h</text>
</a>
</g>
</g>
<!-- Node25&#45;&gt;Node36 -->
<g id="edge44_Node000025_Node000036" class="edge">
<title>Node25&#45;&gt;Node36</title>
<g id="a_edge44_Node000025_Node000036"><a xlink:title=" ">
<path fill="none" stroke="#63b8ff" d="M954.5,-55.08C954.13,-48.49 953.61,-39.21 953.14,-30.82"/>
<polygon fill="#63b8ff" stroke="#63b8ff" points="956.65,-30.91 952.59,-21.12 949.66,-31.3 956.65,-30.91"/>
</a>
</g>
</g>
<!-- Node37 -->
<g id="Node000037" class="node">
<title>Node37</title>
<g id="a_Node000037"><a xlink:title=" ">
<polygon fill="#e0e0e0" stroke="#999999" points="1060.12,-19.25 999.88,-19.25 999.88,0 1060.12,0 1060.12,-19.25"/>
<text text-anchor="middle" x="1030" y="-5.75" font-family="Helvetica,sans-Serif" font-size="10.00">sys/prctl.h</text>
</a>
</g>
</g>
<!-- Node25&#45;&gt;Node37 -->
<g id="edge45_Node000025_Node000037" class="edge">
<title>Node25&#45;&gt;Node37</title>
<g id="a_edge45_Node000025_Node000037"><a xlink:title=" ">
<path fill="none" stroke="#63b8ff" d="M967.72,-54.84C978.71,-47.04 994.84,-35.59 1007.93,-26.29"/>
<polygon fill="#63b8ff" stroke="#63b8ff" points="1009.85,-29.22 1015.98,-20.58 1005.8,-23.51 1009.85,-29.22"/>
</a>
</g>
</g>
<!-- Node38&#45;&gt;Node18 -->
<g id="edge48_Node000038_Node000018" class="edge">
<title>Node38&#45;&gt;Node18</title>
<g id="a_edge48_Node000038_Node000018"><a xlink:title=" ">
<path fill="none" stroke="#63b8ff" d="M1223.98,-112.02C1220.95,-111.48 1217.92,-110.96 1215,-110.5 1087.26,-90.27 1050.97,-96.85 920.62,-74.79"/>
<polygon fill="#63b8ff" stroke="#63b8ff" points="921.34,-71.36 910.89,-73.12 920.15,-78.26 921.34,-71.36"/>
</a>
</g>
</g>
<!-- Node38&#45;&gt;Node23 -->
<g id="edge47_Node000038_Node000023" class="edge">
<title>Node38&#45;&gt;Node23</title>
<g id="a_edge47_Node000038_Node000023"><a xlink:title=" ">
<path fill="none" stroke="#63b8ff" d="M1270.22,-110.18C1281.13,-101.37 1298.04,-87.4 1312,-74.5 1328.54,-59.21 1346.5,-40.81 1359,-27.69"/>
<polygon fill="#63b8ff" stroke="#63b8ff" points="1361.32,-30.33 1365.65,-20.66 1356.23,-25.52 1361.32,-30.33"/>
</a>
</g>
</g>
<!-- Node38&#45;&gt;Node25 -->
<g id="edge53_Node000038_Node000025" class="edge">
<title>Node38&#45;&gt;Node25</title>
<g id="a_edge53_Node000038_Node000025"><a xlink:title=" ">
<path fill="none" stroke="#63b8ff" d="M1223.95,-112.18C1220.92,-111.6 1217.91,-111.03 1215,-110.5 1137.06,-96.18 1045.71,-80.83 994.68,-72.39"/>
<polygon fill="#63b8ff" stroke="#63b8ff" points="995.44,-68.96 985,-70.79 994.3,-75.87 995.44,-68.96"/>
</a>
</g>
</g>
<!-- Node39 -->
<g id="Node000039" class="node">
<title>Node39</title>
<g id="a_Node000039"><a xlink:title=" ">
<polygon fill="#e0e0e0" stroke="#999999" points="1302.88,-74.5 1235.12,-74.5 1235.12,-55.25 1302.88,-55.25 1302.88,-74.5"/>
<text text-anchor="middle" x="1269" y="-61" font-family="Helvetica,sans-Serif" font-size="10.00">TDirectory.h</text>
</a>
</g>
</g>
<!-- Node38&#45;&gt;Node39 -->
<g id="edge49_Node000038_Node000039" class="edge">
<title>Node38&#45;&gt;Node39</title>
<g id="a_edge49_Node000038_Node000039"><a xlink:title=" ">
<path fill="none" stroke="#63b8ff" d="M1260.65,-110.33C1261.89,-103.74 1263.63,-94.46 1265.21,-86.07"/>
<polygon fill="#63b8ff" stroke="#63b8ff" points="1268.63,-86.82 1267.03,-76.35 1261.75,-85.53 1268.63,-86.82"/>
</a>
</g>
</g>
<!-- Node40 -->
<g id="Node000040" class="node">
<title>Node40</title>
<g id="a_Node000040"><a xlink:title=" ">
<polygon fill="#e0e0e0" stroke="#999999" points="1088.62,-74.5 1043.38,-74.5 1043.38,-55.25 1088.62,-55.25 1088.62,-74.5"/>
<text text-anchor="middle" x="1066" y="-61" font-family="Helvetica,sans-Serif" font-size="10.00">TFile.h</text>
</a>
</g>
</g>
<!-- Node38&#45;&gt;Node40 -->
<g id="edge50_Node000038_Node000040" class="edge">
<title>Node38&#45;&gt;Node40</title>
<g id="a_edge50_Node000038_Node000040"><a xlink:title=" ">
<path fill="none" stroke="#63b8ff" d="M1226.26,-110.09C1191.03,-100.37 1135.29,-84.99 1099.7,-75.17"/>
<polygon fill="#63b8ff" stroke="#63b8ff" points="1100.93,-71.88 1090.36,-72.6 1099.07,-78.63 1100.93,-71.88"/>
</a>
</g>
</g>
<!-- Node41 -->
<g id="Node000041" class="node">
<title>Node41</title>
<g id="a_Node000041"><a xlink:title=" ">
<polygon fill="#e0e0e0" stroke="#999999" points="1153,-74.5 1107,-74.5 1107,-55.25 1153,-55.25 1153,-74.5"/>
<text text-anchor="middle" x="1130" y="-61" font-family="Helvetica,sans-Serif" font-size="10.00">TList.h</text>
</a>
</g>
</g>
<!-- Node38&#45;&gt;Node41 -->
<g id="edge51_Node000038_Node000041" class="edge">
<title>Node38&#45;&gt;Node41</title>
<g id="a_edge51_Node000038_Node000041"><a xlink:title=" ">
<path fill="none" stroke="#63b8ff" d="M1237.12,-110.09C1216.64,-101.64 1185.79,-88.9 1162.44,-79.27"/>
<polygon fill="#63b8ff" stroke="#63b8ff" points="1163.97,-76.11 1153.39,-75.53 1161.3,-82.58 1163.97,-76.11"/>
</a>
</g>
</g>
<!-- Node42 -->
<g id="Node000042" class="node">
<title>Node42</title>
<g id="a_Node000042"><a xlink:title=" ">
<polygon fill="#e0e0e0" stroke="#999999" points="1217,-74.5 1171,-74.5 1171,-55.25 1217,-55.25 1217,-74.5"/>
<text text-anchor="middle" x="1194" y="-61" font-family="Helvetica,sans-Serif" font-size="10.00">TKey.h</text>
</a>
</g>
</g>
<!-- Node38&#45;&gt;Node42 -->
<g id="edge52_Node000038_Node000042" class="edge">
<title>Node38&#45;&gt;Node42</title>
<g id="a_edge52_Node000038_Node000042"><a xlink:title=" ">
<path fill="none" stroke="#63b8ff" d="M1247.97,-110.09C1238.58,-102.4 1224.85,-91.15 1213.59,-81.93"/>
<polygon fill="#63b8ff" stroke="#63b8ff" points="1215.99,-79.36 1206.03,-75.73 1211.55,-84.78 1215.99,-79.36"/>
</a>
</g>
</g>
<!-- Node43&#45;&gt;Node23 -->
<g id="edge55_Node000043_Node000023" class="edge">
<title>Node43&#45;&gt;Node23</title>
<g id="a_edge55_Node000043_Node000023"><a xlink:title=" ">
<path fill="none" stroke="#63b8ff" d="M927.15,-165.25C951.1,-138.54 1020.41,-61.99 1034,-55.25 1153.07,3.78 1202.02,-40.71 1336.8,-19.35"/>
<polygon fill="#63b8ff" stroke="#63b8ff" points="1337.18,-22.84 1346.45,-17.72 1336.01,-15.94 1337.18,-22.84"/>
</a>
</g>
</g>
<!-- Node44 -->
<g id="Node000044" class="node">
<title>Node44</title>
<g id="a_Node000044"><a xlink:title=" ">
<polygon fill="#e0e0e0" stroke="#999999" points="948.88,-129.75 875.12,-129.75 875.12,-110.5 948.88,-110.5 948.88,-129.75"/>
<text text-anchor="middle" x="912" y="-116.25" font-family="Helvetica,sans-Serif" font-size="10.00">RtypesCore.h</text>
</a>
</g>
</g>
<!-- Node43&#45;&gt;Node44 -->
<g id="edge56_Node000043_Node000044" class="edge">
<title>Node43&#45;&gt;Node44</title>
<g id="a_edge56_Node000043_Node000044"><a xlink:title=" ">
<path fill="none" stroke="#63b8ff" d="M917.84,-165.58C916.98,-158.99 915.76,-149.71 914.66,-141.32"/>
<polygon fill="#63b8ff" stroke="#63b8ff" points="918.15,-141.07 913.38,-131.61 911.21,-141.98 918.15,-141.07"/>
</a>
</g>
</g>
</g>
</svg>
