<?xml version="1.0" encoding="UTF-8" standalone="no"?>
<!DOCTYPE svg PUBLIC "-//W3C//DTD SVG 1.1//EN"
 "http://www.w3.org/Graphics/SVG/1.1/DTD/svg11.dtd">
<!-- Generated by graphviz version 12.2.0 (20241103.1931)
 -->
<!-- Title: TAnalysisOptions.cxx Pages: 1 -->
<!--zoomable 138 -->

<svg id="main" version="1.1" xmlns="http://www.w3.org/2000/svg" xmlns:xlink="http://www.w3.org/1999/xlink" xml:space="preserve" onload="init(evt)">

<style type="text/css"><![CDATA[
.node, .edge {opacity: 0.7;}
.node.selected, .edge.selected {opacity: 1;}
.edge:hover path { stroke: red; }
.edge:hover polygon { stroke: red; fill: red; }
]]></style>

<defs>
  <circle id="rim" cx="0" cy="0" r="7"/>
  <circle id="rim2" cx="0" cy="0" r="3.5"/>
  <g id="zoomPlus">
    <use xlink:href="#rim" fill="#404040"><set attributeName="fill" to="#808080" begin="zoomplus.mouseover" end="zoomplus.mouseout"/></use>
    <path d="M-4,0h8M0,-4v8" fill="none" stroke="white" stroke-width="1.5" pointer-events="none"/>
  </g>
  <g id="zoomMin">
    <use xlink:href="#rim" fill="#404040"><set attributeName="fill" to="#808080" begin="zoomminus.mouseover" end="zoomminus.mouseout"/></use>
    <path d="M-4,0h8" fill="none" stroke="white" stroke-width="1.5" pointer-events="none"/>
  </g>
  <g id="arrowUp" transform="translate(30 24)">
    <use xlink:href="#rim"/>
    <path pointer-events="none" fill="none" stroke="white" stroke-width="1.5" d="M0,-3.0v7 M-2.5,-0.5L0,-3.0L2.5,-0.5"/>
  </g>
  <g id="arrowRight" transform="rotate(90) translate(36 -43)">
    <use xlink:href="#rim"/>
    <path pointer-events="none" fill="none" stroke="white" stroke-width="1.5" d="M0,-3.0v7 M-2.5,-0.5L0,-3.0L2.5,-0.5"/>
  </g>
  <g id="arrowDown" transform="rotate(180) translate(-30 -48)">
    <use xlink:href="#rim"/>
    <path pointer-events="none" fill="none" stroke="white" stroke-width="1.5" d="M0,-3.0v7 M-2.5,-0.5L0,-3.0L2.5,-0.5"/>
  </g>
  <g id="arrowLeft" transform="rotate(270) translate(-36 17)">
    <use xlink:href="#rim"/>
    <path pointer-events="none" fill="none" stroke="white" stroke-width="1.5" d="M0,-3.0v7 M-2.5,-0.5L0,-3.0L2.5,-0.5"/>
  </g>
  <g id="resetDef">
    <use xlink:href="#rim2" fill="#404040"><set attributeName="fill" to="#808080" begin="reset.mouseover" end="reset.mouseout"/></use>
  </g>
</defs>
<script type="application/ecmascript">
var viewWidth = 1362;
var viewHeight = 138;
var sectionId = 'dynsection-0';
</script>
<script type="application/ecmascript" xlink:href="svg.min.js"/>
<svg id="graph" class="graph">
<g id="viewport">
<title>TAnalysisOptions.cxx</title>
<!-- Node1 -->
<g id="Node000001" class="node">
<title>Node1</title>
<g id="a_Node000001"><a xlink:title=" ">
<polygon fill="#999999" stroke="#666666" points="602.5,-129.75 493.5,-129.75 493.5,-110.5 602.5,-110.5 602.5,-129.75"/>
<text text-anchor="middle" x="548" y="-116.25" font-family="Helvetica,sans-Serif" font-size="10.00">TAnalysisOptions.cxx</text>
</a>
</g>
</g>
<!-- Node2 -->
<g id="Node000002" class="node">
<title>Node2</title>
<g id="a_Node000002"><a xlink:href="_t_analysis_options_8h.html" target="_top" xlink:title=" ">
<polygon fill="white" stroke="#666666" points="149,-74.5 49,-74.5 49,-55.25 149,-55.25 149,-74.5"/>
<text text-anchor="middle" x="99" y="-61" font-family="Helvetica,sans-Serif" font-size="10.00">TAnalysisOptions.h</text>
</a>
</g>
</g>
<!-- Node1&#45;&gt;Node2 -->
<g id="edge1_Node000001_Node000002" class="edge">
<title>Node1&#45;&gt;Node2</title>
<g id="a_edge1_Node000001_Node000002"><a xlink:title=" ">
<path fill="none" stroke="#63b8ff" d="M493.39,-112.65C409.41,-102.69 249.02,-83.67 160.86,-73.21"/>
<polygon fill="#63b8ff" stroke="#63b8ff" points="161.28,-69.74 150.94,-72.03 160.46,-76.69 161.28,-69.74"/>
</a>
</g>
</g>
<!-- Node5 -->
<g id="Node000005" class="node">
<title>Node5</title>
<g id="a_Node000005"><a xlink:title=" ">
<polygon fill="#e0e0e0" stroke="#999999" points="374.88,-74.5 319.12,-74.5 319.12,-55.25 374.88,-55.25 374.88,-74.5"/>
<text text-anchor="middle" x="347" y="-61" font-family="Helvetica,sans-Serif" font-size="10.00">algorithm</text>
</a>
</g>
</g>
<!-- Node1&#45;&gt;Node5 -->
<g id="edge4_Node000001_Node000005" class="edge">
<title>Node1&#45;&gt;Node5</title>
<g id="a_edge4_Node000001_Node000005"><a xlink:title=" ">
<path fill="none" stroke="#63b8ff" d="M513.9,-110.09C478.48,-100.71 423.13,-86.04 385.99,-76.2"/>
<polygon fill="#63b8ff" stroke="#63b8ff" points="387.12,-72.88 376.56,-73.7 385.33,-79.65 387.12,-72.88"/>
</a>
</g>
</g>
<!-- Node6 -->
<g id="Node000006" class="node">
<title>Node6</title>
<g id="a_Node000006"><a xlink:title=" ">
<polygon fill="#e0e0e0" stroke="#999999" points="437.25,-74.5 392.75,-74.5 392.75,-55.25 437.25,-55.25 437.25,-74.5"/>
<text text-anchor="middle" x="415" y="-61" font-family="Helvetica,sans-Serif" font-size="10.00">cctype</text>
</a>
</g>
</g>
<!-- Node1&#45;&gt;Node6 -->
<g id="edge5_Node000001_Node000006" class="edge">
<title>Node1&#45;&gt;Node6</title>
<g id="a_edge5_Node000001_Node000006"><a xlink:title=" ">
<path fill="none" stroke="#63b8ff" d="M525.44,-110.09C504.23,-101.6 472.23,-88.79 448.12,-79.14"/>
<polygon fill="#63b8ff" stroke="#63b8ff" points="449.66,-75.98 439.08,-75.52 447.06,-82.48 449.66,-75.98"/>
</a>
</g>
</g>
<!-- Node7 -->
<g id="Node000007" class="node">
<title>Node7</title>
<g id="a_Node000007"><a xlink:title=" ">
<polygon fill="#e0e0e0" stroke="#999999" points="192.75,-19.25 139.25,-19.25 139.25,0 192.75,0 192.75,-19.25"/>
<text text-anchor="middle" x="166" y="-5.75" font-family="Helvetica,sans-Serif" font-size="10.00">iostream</text>
</a>
</g>
</g>
<!-- Node1&#45;&gt;Node7 -->
<g id="edge6_Node000001_Node000007" class="edge">
<title>Node1&#45;&gt;Node7</title>
<g id="a_edge6_Node000001_Node000007"><a xlink:title=" ">
<path fill="none" stroke="#63b8ff" d="M535.23,-110.2C512.29,-94.31 464.72,-62.15 446,-55.25 346.45,-18.58 311.86,-38.64 204.09,-19.44"/>
<polygon fill="#63b8ff" stroke="#63b8ff" points="205.03,-16.05 194.56,-17.66 203.75,-22.93 205.03,-16.05"/>
</a>
</g>
</g>
<!-- Node8 -->
<g id="Node000008" class="node">
<title>Node8</title>
<g id="a_Node000008"><a xlink:title=" ">
<polygon fill="#e0e0e0" stroke="#999999" points="539,-74.5 493,-74.5 493,-55.25 539,-55.25 539,-74.5"/>
<text text-anchor="middle" x="516" y="-61" font-family="Helvetica,sans-Serif" font-size="10.00">TEnv.h</text>
</a>
</g>
</g>
<!-- Node1&#45;&gt;Node8 -->
<g id="edge7_Node000001_Node000008" class="edge">
<title>Node1&#45;&gt;Node8</title>
<g id="a_edge7_Node000001_Node000008"><a xlink:title=" ">
<path fill="none" stroke="#63b8ff" d="M542.72,-110.33C538.53,-103.36 532.52,-93.37 527.27,-84.62"/>
<polygon fill="#63b8ff" stroke="#63b8ff" points="530.33,-82.93 522.18,-76.16 524.33,-86.53 530.33,-82.93"/>
</a>
</g>
</g>
<!-- Node9 -->
<g id="Node000009" class="node">
<title>Node9</title>
<g id="a_Node000009"><a xlink:title=" ">
<polygon fill="#e0e0e0" stroke="#999999" points="603,-74.5 557,-74.5 557,-55.25 603,-55.25 603,-74.5"/>
<text text-anchor="middle" x="580" y="-61" font-family="Helvetica,sans-Serif" font-size="10.00">TKey.h</text>
</a>
</g>
</g>
<!-- Node1&#45;&gt;Node9 -->
<g id="edge8_Node000001_Node000009" class="edge">
<title>Node1&#45;&gt;Node9</title>
<g id="a_edge8_Node000001_Node000009"><a xlink:title=" ">
<path fill="none" stroke="#63b8ff" d="M553.28,-110.33C557.47,-103.36 563.48,-93.37 568.73,-84.62"/>
<polygon fill="#63b8ff" stroke="#63b8ff" points="571.67,-86.53 573.82,-76.16 565.67,-82.93 571.67,-86.53"/>
</a>
</g>
</g>
<!-- Node10 -->
<g id="Node000010" class="node">
<title>Node10</title>
<g id="a_Node000010"><a xlink:href="_globals_8h.html" target="_top" xlink:title=" ">
<polygon fill="white" stroke="#666666" points="677.25,-74.5 620.75,-74.5 620.75,-55.25 677.25,-55.25 677.25,-74.5"/>
<text text-anchor="middle" x="649" y="-61" font-family="Helvetica,sans-Serif" font-size="10.00">Globals.h</text>
</a>
</g>
</g>
<!-- Node1&#45;&gt;Node10 -->
<g id="edge9_Node000001_Node000010" class="edge">
<title>Node1&#45;&gt;Node10</title>
<g id="a_edge9_Node000001_Node000010"><a xlink:title=" ">
<path fill="none" stroke="#63b8ff" d="M565.13,-110.09C580.66,-101.91 603.8,-89.71 621.84,-80.19"/>
<polygon fill="#63b8ff" stroke="#63b8ff" points="623.23,-83.42 630.44,-75.66 619.97,-77.23 623.23,-83.42"/>
</a>
</g>
</g>
<!-- Node24 -->
<g id="Node000024" class="node">
<title>Node24</title>
<g id="a_Node000024"><a xlink:href="_dynamic_library_8h.html" target="_top" xlink:title=" ">
<polygon fill="white" stroke="#666666" points="914.12,-74.5 823.88,-74.5 823.88,-55.25 914.12,-55.25 914.12,-74.5"/>
<text text-anchor="middle" x="869" y="-61" font-family="Helvetica,sans-Serif" font-size="10.00">DynamicLibrary.h</text>
</a>
</g>
</g>
<!-- Node1&#45;&gt;Node24 -->
<g id="edge24_Node000001_Node000024" class="edge">
<title>Node1&#45;&gt;Node24</title>
<g id="a_edge24_Node000001_Node000024"><a xlink:title=" ">
<path fill="none" stroke="#63b8ff" d="M602.82,-110.03C661.27,-100.33 753.4,-85.05 812.5,-75.25"/>
<polygon fill="#63b8ff" stroke="#63b8ff" points="812.71,-78.76 822,-73.67 811.56,-71.86 812.71,-78.76"/>
</a>
</g>
</g>
<!-- Node25 -->
<g id="Node000025" class="node">
<title>Node25</title>
<g id="a_Node000025"><a xlink:href="_t_g_r_s_i_utilities_8h.html" target="_top" xlink:title=" ">
<polygon fill="white" stroke="#666666" points="1125.25,-74.5 1038.75,-74.5 1038.75,-55.25 1125.25,-55.25 1125.25,-74.5"/>
<text text-anchor="middle" x="1082" y="-61" font-family="Helvetica,sans-Serif" font-size="10.00">TGRSIUtilities.h</text>
</a>
</g>
</g>
<!-- Node1&#45;&gt;Node25 -->
<g id="edge26_Node000001_Node000025" class="edge">
<title>Node1&#45;&gt;Node25</title>
<g id="a_edge26_Node000001_Node000025"><a xlink:title=" ">
<path fill="none" stroke="#63b8ff" d="M602.64,-113.68C705.02,-103.47 924.63,-81.57 1027.17,-71.34"/>
<polygon fill="#63b8ff" stroke="#63b8ff" points="1027.38,-74.84 1036.98,-70.36 1026.68,-67.87 1027.38,-74.84"/>
</a>
</g>
</g>
<!-- Node28 -->
<g id="Node000028" class="node">
<title>Node28</title>
<g id="a_Node000028"><a xlink:href="_g_root_commands_8h.html" target="_top" xlink:title=" ">
<polygon fill="white" stroke="#666666" points="1288.38,-74.5 1187.62,-74.5 1187.62,-55.25 1288.38,-55.25 1288.38,-74.5"/>
<text text-anchor="middle" x="1238" y="-61" font-family="Helvetica,sans-Serif" font-size="10.00">GRootCommands.h</text>
</a>
</g>
</g>
<!-- Node1&#45;&gt;Node28 -->
<g id="edge30_Node000001_Node000028" class="edge">
<title>Node1&#45;&gt;Node28</title>
<g id="a_edge30_Node000001_Node000028"><a xlink:title=" ">
<path fill="none" stroke="#63b8ff" d="M602.95,-115.06C706.73,-107.37 938.72,-90.03 1134,-74.5 1147.55,-73.42 1162.08,-72.24 1175.86,-71.1"/>
<polygon fill="#63b8ff" stroke="#63b8ff" points="1176.04,-74.59 1185.72,-70.28 1175.46,-67.62 1176.04,-74.59"/>
</a>
</g>
</g>
<!-- Node3 -->
<g id="Node000003" class="node">
<title>Node3</title>
<g id="a_Node000003"><a xlink:title=" ">
<polygon fill="#e0e0e0" stroke="#999999" points="58,-19.25 0,-19.25 0,0 58,0 58,-19.25"/>
<text text-anchor="middle" x="29" y="-5.75" font-family="Helvetica,sans-Serif" font-size="10.00">TObject.h</text>
</a>
</g>
</g>
<!-- Node2&#45;&gt;Node3 -->
<g id="edge2_Node000002_Node000003" class="edge">
<title>Node2&#45;&gt;Node3</title>
<g id="a_edge2_Node000002_Node000003"><a xlink:title=" ">
<path fill="none" stroke="#63b8ff" d="M87.13,-54.84C76.91,-47.07 61.93,-35.67 49.74,-26.4"/>
<polygon fill="#63b8ff" stroke="#63b8ff" points="51.98,-23.71 41.9,-20.44 47.74,-29.28 51.98,-23.71"/>
</a>
</g>
</g>
<!-- Node4 -->
<g id="Node000004" class="node">
<title>Node4</title>
<g id="a_Node000004"><a xlink:title=" ">
<polygon fill="#e0e0e0" stroke="#999999" points="121.62,-19.25 76.38,-19.25 76.38,0 121.62,0 121.62,-19.25"/>
<text text-anchor="middle" x="99" y="-5.75" font-family="Helvetica,sans-Serif" font-size="10.00">TFile.h</text>
</a>
</g>
</g>
<!-- Node2&#45;&gt;Node4 -->
<g id="edge3_Node000002_Node000004" class="edge">
<title>Node2&#45;&gt;Node4</title>
<g id="a_edge3_Node000002_Node000004"><a xlink:title=" ">
<path fill="none" stroke="#63b8ff" d="M99,-55.08C99,-48.57 99,-39.42 99,-31.12"/>
<polygon fill="#63b8ff" stroke="#63b8ff" points="102.5,-31.12 99,-21.12 95.5,-31.12 102.5,-31.12"/>
</a>
</g>
</g>
<!-- Node10&#45;&gt;Node7 -->
<g id="edge10_Node000010_Node000007" class="edge">
<title>Node10&#45;&gt;Node7</title>
<g id="a_edge10_Node000010_Node000007"><a xlink:title=" ">
<path fill="none" stroke="#63b8ff" d="M620.4,-56.79C617.57,-56.21 614.74,-55.69 612,-55.25 434.98,-26.99 384.55,-47.77 204.25,-19.36"/>
<polygon fill="#63b8ff" stroke="#63b8ff" points="204.96,-15.93 194.53,-17.8 203.85,-22.84 204.96,-15.93"/>
</a>
</g>
</g>
<!-- Node11 -->
<g id="Node000011" class="node">
<title>Node11</title>
<g id="a_Node000011"><a xlink:title=" ">
<polygon fill="#e0e0e0" stroke="#999999" points="260.88,-19.25 211.12,-19.25 211.12,0 260.88,0 260.88,-19.25"/>
<text text-anchor="middle" x="236" y="-5.75" font-family="Helvetica,sans-Serif" font-size="10.00">iomanip</text>
</a>
</g>
</g>
<!-- Node10&#45;&gt;Node11 -->
<g id="edge11_Node000010_Node000011" class="edge">
<title>Node10&#45;&gt;Node11</title>
<g id="a_edge11_Node000010_Node000011"><a xlink:title=" ">
<path fill="none" stroke="#63b8ff" d="M620.39,-56.84C617.56,-56.25 614.73,-55.71 612,-55.25 464.82,-30.45 422.44,-45.37 272.17,-19.38"/>
<polygon fill="#63b8ff" stroke="#63b8ff" points="273.11,-15.99 262.65,-17.7 271.89,-22.88 273.11,-15.99"/>
</a>
</g>
</g>
<!-- Node12 -->
<g id="Node000012" class="node">
<title>Node12</title>
<g id="a_Node000012"><a xlink:title=" ">
<polygon fill="#e0e0e0" stroke="#999999" points="337,-19.25 279,-19.25 279,0 337,0 337,-19.25"/>
<text text-anchor="middle" x="308" y="-5.75" font-family="Helvetica,sans-Serif" font-size="10.00">stdexcept</text>
</a>
</g>
</g>
<!-- Node10&#45;&gt;Node12 -->
<g id="edge12_Node000010_Node000012" class="edge">
<title>Node10&#45;&gt;Node12</title>
<g id="a_edge12_Node000010_Node000012"><a xlink:title=" ">
<path fill="none" stroke="#63b8ff" d="M620.37,-56.92C617.55,-56.32 614.72,-55.75 612,-55.25 498.22,-34.34 465.37,-40.09 348.59,-19.57"/>
<polygon fill="#63b8ff" stroke="#63b8ff" points="349.36,-16.15 338.9,-17.84 348.12,-23.04 349.36,-16.15"/>
</a>
</g>
</g>
<!-- Node13 -->
<g id="Node000013" class="node">
<title>Node13</title>
<g id="a_Node000013"><a xlink:title=" ">
<polygon fill="#e0e0e0" stroke="#999999" points="1080,-19.25 1040,-19.25 1040,0 1080,0 1080,-19.25"/>
<text text-anchor="middle" x="1060" y="-5.75" font-family="Helvetica,sans-Serif" font-size="10.00">string</text>
</a>
</g>
</g>
<!-- Node10&#45;&gt;Node13 -->
<g id="edge13_Node000010_Node000013" class="edge">
<title>Node10&#45;&gt;Node13</title>
<g id="a_edge13_Node000010_Node000013"><a xlink:title=" ">
<path fill="none" stroke="#63b8ff" d="M677.54,-62.23C739.73,-58.29 892.2,-46.7 1028.48,-19.44"/>
<polygon fill="#63b8ff" stroke="#63b8ff" points="1028.93,-22.92 1038.03,-17.5 1027.54,-16.06 1028.93,-22.92"/>
</a>
</g>
</g>
<!-- Node14 -->
<g id="Node000014" class="node">
<title>Node14</title>
<g id="a_Node000014"><a xlink:title=" ">
<polygon fill="#e0e0e0" stroke="#999999" points="397.12,-19.25 354.88,-19.25 354.88,0 397.12,0 397.12,-19.25"/>
<text text-anchor="middle" x="376" y="-5.75" font-family="Helvetica,sans-Serif" font-size="10.00">cstdio</text>
</a>
</g>
</g>
<!-- Node10&#45;&gt;Node14 -->
<g id="edge14_Node000010_Node000014" class="edge">
<title>Node10&#45;&gt;Node14</title>
<g id="a_edge14_Node000010_Node000014"><a xlink:title=" ">
<path fill="none" stroke="#63b8ff" d="M620.35,-57.03C617.53,-56.41 614.71,-55.8 612,-55.25 524.4,-37.4 498.52,-39.89 408.55,-19.64"/>
<polygon fill="#63b8ff" stroke="#63b8ff" points="409.56,-16.28 399.03,-17.46 408,-23.1 409.56,-16.28"/>
</a>
</g>
</g>
<!-- Node15 -->
<g id="Node000015" class="node">
<title>Node15</title>
<g id="a_Node000015"><a xlink:title=" ">
<polygon fill="#e0e0e0" stroke="#999999" points="459.25,-19.25 414.75,-19.25 414.75,0 459.25,0 459.25,-19.25"/>
<text text-anchor="middle" x="437" y="-5.75" font-family="Helvetica,sans-Serif" font-size="10.00">cstdlib</text>
</a>
</g>
</g>
<!-- Node10&#45;&gt;Node15 -->
<g id="edge15_Node000010_Node000015" class="edge">
<title>Node10&#45;&gt;Node15</title>
<g id="a_edge15_Node000010_Node000015"><a xlink:title=" ">
<path fill="none" stroke="#63b8ff" d="M620.41,-57.1C586.77,-49.07 528.98,-35.1 470.57,-19.87"/>
<polygon fill="#63b8ff" stroke="#63b8ff" points="471.69,-16.55 461.13,-17.4 469.92,-23.32 471.69,-16.55"/>
</a>
</g>
</g>
<!-- Node16 -->
<g id="Node000016" class="node">
<title>Node16</title>
<g id="a_Node000016"><a xlink:title=" ">
<polygon fill="#e0e0e0" stroke="#999999" points="536.75,-19.25 477.25,-19.25 477.25,0 536.75,0 536.75,-19.25"/>
<text text-anchor="middle" x="507" y="-5.75" font-family="Helvetica,sans-Serif" font-size="10.00">execinfo.h</text>
</a>
</g>
</g>
<!-- Node10&#45;&gt;Node16 -->
<g id="edge16_Node000010_Node000016" class="edge">
<title>Node10&#45;&gt;Node16</title>
<g id="a_edge16_Node000010_Node000016"><a xlink:title=" ">
<path fill="none" stroke="#63b8ff" d="M624.91,-54.84C602.06,-46.27 567.48,-33.31 541.67,-23.63"/>
<polygon fill="#63b8ff" stroke="#63b8ff" points="543.22,-20.47 532.62,-20.23 540.76,-27.02 543.22,-20.47"/>
</a>
</g>
</g>
<!-- Node17 -->
<g id="Node000017" class="node">
<title>Node17</title>
<g id="a_Node000017"><a xlink:title=" ">
<polygon fill="#e0e0e0" stroke="#999999" points="605.25,-19.25 554.75,-19.25 554.75,0 605.25,0 605.25,-19.25"/>
<text text-anchor="middle" x="580" y="-5.75" font-family="Helvetica,sans-Serif" font-size="10.00">cxxabi.h</text>
</a>
</g>
</g>
<!-- Node10&#45;&gt;Node17 -->
<g id="edge17_Node000010_Node000017" class="edge">
<title>Node10&#45;&gt;Node17</title>
<g id="a_edge17_Node000010_Node000017"><a xlink:title=" ">
<path fill="none" stroke="#63b8ff" d="M637.3,-54.84C627.22,-47.07 612.46,-35.67 600.44,-26.4"/>
<polygon fill="#63b8ff" stroke="#63b8ff" points="602.79,-23.79 592.73,-20.45 598.51,-29.33 602.79,-23.79"/>
</a>
</g>
</g>
<!-- Node18 -->
<g id="Node000018" class="node">
<title>Node18</title>
<g id="a_Node000018"><a xlink:title=" ">
<polygon fill="#e0e0e0" stroke="#999999" points="674.62,-19.25 623.38,-19.25 623.38,0 674.62,0 674.62,-19.25"/>
<text text-anchor="middle" x="649" y="-5.75" font-family="Helvetica,sans-Serif" font-size="10.00">sstream</text>
</a>
</g>
</g>
<!-- Node10&#45;&gt;Node18 -->
<g id="edge18_Node000010_Node000018" class="edge">
<title>Node10&#45;&gt;Node18</title>
<g id="a_edge18_Node000010_Node000018"><a xlink:title=" ">
<path fill="none" stroke="#63b8ff" d="M649,-55.08C649,-48.57 649,-39.42 649,-31.12"/>
<polygon fill="#63b8ff" stroke="#63b8ff" points="652.5,-31.12 649,-21.12 645.5,-31.12 652.5,-31.12"/>
</a>
</g>
</g>
<!-- Node19 -->
<g id="Node000019" class="node">
<title>Node19</title>
<g id="a_Node000019"><a xlink:title=" ">
<polygon fill="#e0e0e0" stroke="#999999" points="729.5,-19.25 692.5,-19.25 692.5,0 729.5,0 729.5,-19.25"/>
<text text-anchor="middle" x="711" y="-5.75" font-family="Helvetica,sans-Serif" font-size="10.00">array</text>
</a>
</g>
</g>
<!-- Node10&#45;&gt;Node19 -->
<g id="edge19_Node000010_Node000019" class="edge">
<title>Node10&#45;&gt;Node19</title>
<g id="a_edge19_Node000010_Node000019"><a xlink:title=" ">
<path fill="none" stroke="#63b8ff" d="M659.52,-54.84C668.39,-47.22 681.31,-36.12 691.99,-26.95"/>
<polygon fill="#63b8ff" stroke="#63b8ff" points="694.18,-29.68 699.49,-20.51 689.62,-24.37 694.18,-29.68"/>
</a>
</g>
</g>
<!-- Node20 -->
<g id="Node000020" class="node">
<title>Node20</title>
<g id="a_Node000020"><a xlink:title=" ">
<polygon fill="#e0e0e0" stroke="#999999" points="798.25,-19.25 747.75,-19.25 747.75,0 798.25,0 798.25,-19.25"/>
<text text-anchor="middle" x="773" y="-5.75" font-family="Helvetica,sans-Serif" font-size="10.00">memory</text>
</a>
</g>
</g>
<!-- Node10&#45;&gt;Node20 -->
<g id="edge20_Node000010_Node000020" class="edge">
<title>Node10&#45;&gt;Node20</title>
<g id="a_edge20_Node000010_Node000020"><a xlink:title=" ">
<path fill="none" stroke="#63b8ff" d="M670.03,-54.84C689.63,-46.43 719.11,-33.77 741.51,-24.15"/>
<polygon fill="#63b8ff" stroke="#63b8ff" points="742.66,-27.46 750.47,-20.3 739.9,-21.03 742.66,-27.46"/>
</a>
</g>
</g>
<!-- Node21 -->
<g id="Node000021" class="node">
<title>Node21</title>
<g id="a_Node000021"><a xlink:title=" ">
<polygon fill="#e0e0e0" stroke="#999999" points="865.88,-19.25 816.12,-19.25 816.12,0 865.88,0 865.88,-19.25"/>
<text text-anchor="middle" x="841" y="-5.75" font-family="Helvetica,sans-Serif" font-size="10.00">unistd.h</text>
</a>
</g>
</g>
<!-- Node10&#45;&gt;Node21 -->
<g id="edge21_Node000010_Node000021" class="edge">
<title>Node10&#45;&gt;Node21</title>
<g id="a_edge21_Node000010_Node000021"><a xlink:title=" ">
<path fill="none" stroke="#63b8ff" d="M677.74,-55.9C711.68,-46.49 768.16,-30.83 804.99,-20.61"/>
<polygon fill="#63b8ff" stroke="#63b8ff" points="805.58,-24.08 814.28,-18.04 803.71,-17.33 805.58,-24.08"/>
</a>
</g>
</g>
<!-- Node22 -->
<g id="Node000022" class="node">
<title>Node22</title>
<g id="a_Node000022"><a xlink:title=" ">
<polygon fill="#e0e0e0" stroke="#999999" points="943.75,-19.25 884.25,-19.25 884.25,0 943.75,0 943.75,-19.25"/>
<text text-anchor="middle" x="914" y="-5.75" font-family="Helvetica,sans-Serif" font-size="10.00">sys/wait.h</text>
</a>
</g>
</g>
<!-- Node10&#45;&gt;Node22 -->
<g id="edge22_Node000010_Node000022" class="edge">
<title>Node10&#45;&gt;Node22</title>
<g id="a_edge22_Node000010_Node000022"><a xlink:title=" ">
<path fill="none" stroke="#63b8ff" d="M677.58,-58.45C718.5,-50.63 796.39,-35.58 872.56,-19.72"/>
<polygon fill="#63b8ff" stroke="#63b8ff" points="873.23,-23.16 882.3,-17.69 871.79,-16.31 873.23,-23.16"/>
</a>
</g>
</g>
<!-- Node23 -->
<g id="Node000023" class="node">
<title>Node23</title>
<g id="a_Node000023"><a xlink:title=" ">
<polygon fill="#e0e0e0" stroke="#999999" points="1022.12,-19.25 961.88,-19.25 961.88,0 1022.12,0 1022.12,-19.25"/>
<text text-anchor="middle" x="992" y="-5.75" font-family="Helvetica,sans-Serif" font-size="10.00">sys/prctl.h</text>
</a>
</g>
</g>
<!-- Node10&#45;&gt;Node23 -->
<g id="edge23_Node000010_Node000023" class="edge">
<title>Node10&#45;&gt;Node23</title>
<g id="a_edge23_Node000010_Node000023"><a xlink:title=" ">
<path fill="none" stroke="#63b8ff" d="M677.61,-60.37C729.79,-53.84 844.1,-38.83 950.16,-19.66"/>
<polygon fill="#63b8ff" stroke="#63b8ff" points="950.69,-23.13 959.9,-17.89 949.43,-16.24 950.69,-23.13"/>
</a>
</g>
</g>
<!-- Node24&#45;&gt;Node13 -->
<g id="edge25_Node000024_Node000013" class="edge">
<title>Node24&#45;&gt;Node13</title>
<g id="a_edge25_Node000024_Node000013"><a xlink:title=" ">
<path fill="none" stroke="#63b8ff" d="M902.88,-54.76C933.45,-46.48 979.92,-33.79 1028.91,-19.81"/>
<polygon fill="#63b8ff" stroke="#63b8ff" points="1029.63,-23.24 1038.28,-17.13 1027.7,-16.51 1029.63,-23.24"/>
</a>
</g>
</g>
<!-- Node25&#45;&gt;Node13 -->
<g id="edge28_Node000025_Node000013" class="edge">
<title>Node25&#45;&gt;Node13</title>
<g id="a_edge28_Node000025_Node000013"><a xlink:title=" ">
<path fill="none" stroke="#63b8ff" d="M1078.37,-55.08C1075.58,-48.34 1071.63,-38.77 1068.1,-30.24"/>
<polygon fill="#63b8ff" stroke="#63b8ff" points="1071.34,-28.91 1064.29,-21.01 1064.87,-31.59 1071.34,-28.91"/>
</a>
</g>
</g>
<!-- Node26 -->
<g id="Node000026" class="node">
<title>Node26</title>
<g id="a_Node000026"><a xlink:title=" ">
<polygon fill="#e0e0e0" stroke="#999999" points="1147.5,-19.25 1098.5,-19.25 1098.5,0 1147.5,0 1147.5,-19.25"/>
<text text-anchor="middle" x="1123" y="-5.75" font-family="Helvetica,sans-Serif" font-size="10.00">fstream</text>
</a>
</g>
</g>
<!-- Node25&#45;&gt;Node26 -->
<g id="edge27_Node000025_Node000026" class="edge">
<title>Node25&#45;&gt;Node26</title>
<g id="a_edge27_Node000025_Node000026"><a xlink:title=" ">
<path fill="none" stroke="#63b8ff" d="M1088.77,-55.08C1094.32,-47.88 1102.34,-37.46 1109.23,-28.51"/>
<polygon fill="#63b8ff" stroke="#63b8ff" points="1111.83,-30.87 1115.16,-20.81 1106.29,-26.6 1111.83,-30.87"/>
</a>
</g>
</g>
<!-- Node27 -->
<g id="Node000027" class="node">
<title>Node27</title>
<g id="a_Node000027"><a xlink:title=" ">
<polygon fill="#e0e0e0" stroke="#999999" points="1208.5,-19.25 1165.5,-19.25 1165.5,0 1208.5,0 1208.5,-19.25"/>
<text text-anchor="middle" x="1187" y="-5.75" font-family="Helvetica,sans-Serif" font-size="10.00">vector</text>
</a>
</g>
</g>
<!-- Node25&#45;&gt;Node27 -->
<g id="edge29_Node000025_Node000027" class="edge">
<title>Node25&#45;&gt;Node27</title>
<g id="a_edge29_Node000025_Node000027"><a xlink:title=" ">
<path fill="none" stroke="#63b8ff" d="M1099.81,-54.84C1116.03,-46.62 1140.24,-34.34 1159.03,-24.81"/>
<polygon fill="#63b8ff" stroke="#63b8ff" points="1160.42,-28.03 1167.75,-20.39 1157.25,-21.79 1160.42,-28.03"/>
</a>
</g>
</g>
<!-- Node28&#45;&gt;Node13 -->
<g id="edge31_Node000028_Node000013" class="edge">
<title>Node28&#45;&gt;Node13</title>
<g id="a_edge31_Node000028_Node000013"><a xlink:title=" ">
<path fill="none" stroke="#63b8ff" d="M1207.8,-54.84C1175.33,-45.13 1123.95,-29.76 1091.12,-19.94"/>
<polygon fill="#63b8ff" stroke="#63b8ff" points="1092.38,-16.66 1081.8,-17.15 1090.37,-23.36 1092.38,-16.66"/>
</a>
</g>
</g>
<!-- Node29 -->
<g id="Node000029" class="node">
<title>Node29</title>
<g id="a_Node000029"><a xlink:title=" ">
<polygon fill="#e0e0e0" stroke="#999999" points="1293.88,-19.25 1226.12,-19.25 1226.12,0 1293.88,0 1293.88,-19.25"/>
<text text-anchor="middle" x="1260" y="-5.75" font-family="Helvetica,sans-Serif" font-size="10.00">TDirectory.h</text>
</a>
</g>
</g>
<!-- Node28&#45;&gt;Node29 -->
<g id="edge32_Node000028_Node000029" class="edge">
<title>Node28&#45;&gt;Node29</title>
<g id="a_edge32_Node000028_Node000029"><a xlink:title=" ">
<path fill="none" stroke="#63b8ff" d="M1241.63,-55.08C1244.42,-48.34 1248.37,-38.77 1251.9,-30.24"/>
<polygon fill="#63b8ff" stroke="#63b8ff" points="1255.13,-31.59 1255.71,-21.01 1248.66,-28.91 1255.13,-31.59"/>
</a>
</g>
</g>
<!-- Node30 -->
<g id="Node000030" class="node">
<title>Node30</title>
<g id="a_Node000030"><a xlink:title=" ">
<polygon fill="#e0e0e0" stroke="#999999" points="1354.12,-19.25 1311.88,-19.25 1311.88,0 1354.12,0 1354.12,-19.25"/>
<text text-anchor="middle" x="1333" y="-5.75" font-family="Helvetica,sans-Serif" font-size="10.00">TH2.h</text>
</a>
</g>
</g>
<!-- Node28&#45;&gt;Node30 -->
<g id="edge33_Node000028_Node000030" class="edge">
<title>Node28&#45;&gt;Node30</title>
<g id="a_edge33_Node000028_Node000030"><a xlink:title=" ">
<path fill="none" stroke="#63b8ff" d="M1254.12,-54.84C1268.58,-46.73 1290.08,-34.68 1306.98,-25.21"/>
<polygon fill="#63b8ff" stroke="#63b8ff" points="1308.47,-28.39 1315.49,-20.44 1305.05,-22.28 1308.47,-28.39"/>
</a>
</g>
</g>
</g>
</svg>

<g id="navigator" transform="translate(0 0)" fill="#404254">
  <rect fill="#f2f5e9" fill-opacity="0.5" stroke="#606060" stroke-width=".5" x="0" y="0" width="60" height="60"/>
  <use id="zoomplus" xlink:href="#zoomPlus" x="17" y="9" onmousedown="handleZoom(evt,'in')"/>
  <use id="zoomminus" xlink:href="#zoomMin" x="42" y="9" onmousedown="handleZoom(evt,'out')"/>
  <use id="reset" xlink:href="#resetDef" x="30" y="36" onmousedown="handleReset()"/>
   <use id="arrowup" xlink:href="#arrowUp" x="0" y="0" onmousedown="handlePan(0,-1)"/>
  <use id="arrowright" xlink:href="#arrowRight" x="0" y="0" onmousedown="handlePan(1,0)"/>
  <use id="arrowdown" xlink:href="#arrowDown" x="0" y="0" onmousedown="handlePan(0,1)"/>
  <use id="arrowleft" xlink:href="#arrowLeft" x="0" y="0" onmousedown="handlePan(-1,0)"/>
</g>
<svg viewBox="0 0 15 15" width="100%" height="30px" preserveAspectRatio="xMaxYMin meet">
 <g id="arrow_out" transform="scale(0.3 0.3)">
  <a xlink:href="_t_analysis_options_8cxx__incl_org.svg" target="_base">
   <rect id="button" ry="5" rx="5" y="6" x="6" height="38" width="38"
        fill="#f2f5e9" fill-opacity="0.5" stroke="#606060" stroke-width="1.0"/>
   <path id="arrow"
     d="M 11.500037,31.436501 C 11.940474,20.09759 22.043105,11.32322 32.158766,21.979434 L 37.068811,17.246167 C 37.068811,17.246167 37.088388,32 37.088388,32 L 22.160133,31.978069 C 22.160133,31.978069 26.997745,27.140456 26.997745,27.140456 C 18.528582,18.264221 13.291696,25.230495 11.500037,31.436501 z"
     style="fill:#404040;"/>
  </a>
 </g>
</svg>

<style type='text/css'>
<![CDATA[
[data-mouse-over-selected='false'] { opacity: 0.7; }
[data-mouse-over-selected='true']  { opacity: 1.0; }
]]>
</style>
<script type="application/ecmascript"><![CDATA[
document.addEventListener('DOMContentLoaded', (event) => {
  highlightEdges();
  highlightAdjacentNodes();
});
]]></script>
</svg>
