<?xml version="1.0" encoding="UTF-8" standalone="no"?>
<!DOCTYPE svg PUBLIC "-//W3C//DTD SVG 1.1//EN"
 "http://www.w3.org/Graphics/SVG/1.1/DTD/svg11.dtd">
<!-- Generated by graphviz version 12.2.0 (20241103.1931)
 -->
<!-- Title: TAnalysisOptions.cxx Pages: 1 -->
<!--zoomable 138 -->

<svg id="main" version="1.1" xmlns="http://www.w3.org/2000/svg" xmlns:xlink="http://www.w3.org/1999/xlink" xml:space="preserve" onload="init(evt)">

<style type="text/css"><![CDATA[
.node, .edge {opacity: 0.7;}
.node.selected, .edge.selected {opacity: 1;}
.edge:hover path { stroke: red; }
.edge:hover polygon { stroke: red; fill: red; }
]]></style>

<defs>
  <circle id="rim" cx="0" cy="0" r="7"/>
  <circle id="rim2" cx="0" cy="0" r="3.5"/>
  <g id="zoomPlus">
    <use xlink:href="#rim" fill="#404040"><set attributeName="fill" to="#808080" begin="zoomplus.mouseover" end="zoomplus.mouseout"/></use>
    <path d="M-4,0h8M0,-4v8" fill="none" stroke="white" stroke-width="1.5" pointer-events="none"/>
  </g>
  <g id="zoomMin">
    <use xlink:href="#rim" fill="#404040"><set attributeName="fill" to="#808080" begin="zoomminus.mouseover" end="zoomminus.mouseout"/></use>
    <path d="M-4,0h8" fill="none" stroke="white" stroke-width="1.5" pointer-events="none"/>
  </g>
  <g id="arrowUp" transform="translate(30 24)">
    <use xlink:href="#rim"/>
    <path pointer-events="none" fill="none" stroke="white" stroke-width="1.5" d="M0,-3.0v7 M-2.5,-0.5L0,-3.0L2.5,-0.5"/>
  </g>
  <g id="arrowRight" transform="rotate(90) translate(36 -43)">
    <use xlink:href="#rim"/>
    <path pointer-events="none" fill="none" stroke="white" stroke-width="1.5" d="M0,-3.0v7 M-2.5,-0.5L0,-3.0L2.5,-0.5"/>
  </g>
  <g id="arrowDown" transform="rotate(180) translate(-30 -48)">
    <use xlink:href="#rim"/>
    <path pointer-events="none" fill="none" stroke="white" stroke-width="1.5" d="M0,-3.0v7 M-2.5,-0.5L0,-3.0L2.5,-0.5"/>
  </g>
  <g id="arrowLeft" transform="rotate(270) translate(-36 17)">
    <use xlink:href="#rim"/>
    <path pointer-events="none" fill="none" stroke="white" stroke-width="1.5" d="M0,-3.0v7 M-2.5,-0.5L0,-3.0L2.5,-0.5"/>
  </g>
  <g id="resetDef">
    <use xlink:href="#rim2" fill="#404040"><set attributeName="fill" to="#808080" begin="reset.mouseover" end="reset.mouseout"/></use>
  </g>
</defs>
<script type="application/ecmascript">
var viewWidth = 1428;
var viewHeight = 138;
var sectionId = 'dynsection-0';
</script>
<script type="application/ecmascript" xlink:href="svg.min.js"/>
<svg id="graph" class="graph">
<g id="viewport">
<title>TAnalysisOptions.cxx</title>
<!-- Node1 -->
<g id="Node000001" class="node">
<title>Node1</title>
<g id="a_Node000001"><a xlink:title=" ">
<polygon fill="#999999" stroke="#666666" points="646.12,-129.75 537.12,-129.75 537.12,-110.5 646.12,-110.5 646.12,-129.75"/>
<text text-anchor="middle" x="591.62" y="-116.25" font-family="Helvetica,sans-Serif" font-size="10.00">TAnalysisOptions.cxx</text>
</a>
</g>
</g>
<!-- Node2 -->
<g id="Node000002" class="node">
<title>Node2</title>
<g id="a_Node000002"><a xlink:href="_t_analysis_options_8h.html" target="_top" xlink:title=" ">
<polygon fill="white" stroke="#666666" points="142.62,-74.5 42.62,-74.5 42.62,-55.25 142.62,-55.25 142.62,-74.5"/>
<text text-anchor="middle" x="92.62" y="-61" font-family="Helvetica,sans-Serif" font-size="10.00">TAnalysisOptions.h</text>
</a>
</g>
</g>
<!-- Node1&#45;&gt;Node2 -->
<g id="edge1_Node000001_Node000002" class="edge">
<title>Node1&#45;&gt;Node2</title>
<g id="a_edge1_Node000001_Node000002"><a xlink:title=" ">
<path fill="none" stroke="#63b8ff" d="M536.8,-113.27C443.04,-103.27 252.53,-82.94 154.29,-72.45"/>
<polygon fill="#63b8ff" stroke="#63b8ff" points="154.88,-69 144.57,-71.42 154.14,-75.96 154.88,-69"/>
</a>
</g>
</g>
<!-- Node5 -->
<g id="Node000005" class="node">
<title>Node5</title>
<g id="a_Node000005"><a xlink:title=" ">
<polygon fill="#e0e0e0" stroke="#999999" points="418.5,-74.5 362.75,-74.5 362.75,-55.25 418.5,-55.25 418.5,-74.5"/>
<text text-anchor="middle" x="390.62" y="-61" font-family="Helvetica,sans-Serif" font-size="10.00">algorithm</text>
</a>
</g>
</g>
<!-- Node1&#45;&gt;Node5 -->
<g id="edge4_Node000001_Node000005" class="edge">
<title>Node1&#45;&gt;Node5</title>
<g id="a_edge4_Node000001_Node000005"><a xlink:title=" ">
<path fill="none" stroke="#63b8ff" d="M557.53,-110.09C522.1,-100.71 466.75,-86.04 429.62,-76.2"/>
<polygon fill="#63b8ff" stroke="#63b8ff" points="430.74,-72.88 420.18,-73.7 428.95,-79.65 430.74,-72.88"/>
</a>
</g>
</g>
<!-- Node6 -->
<g id="Node000006" class="node">
<title>Node6</title>
<g id="a_Node000006"><a xlink:title=" ">
<polygon fill="#e0e0e0" stroke="#999999" points="480.88,-74.5 436.38,-74.5 436.38,-55.25 480.88,-55.25 480.88,-74.5"/>
<text text-anchor="middle" x="458.62" y="-61" font-family="Helvetica,sans-Serif" font-size="10.00">cctype</text>
</a>
</g>
</g>
<!-- Node1&#45;&gt;Node6 -->
<g id="edge5_Node000001_Node000006" class="edge">
<title>Node1&#45;&gt;Node6</title>
<g id="a_edge5_Node000001_Node000006"><a xlink:title=" ">
<path fill="none" stroke="#63b8ff" d="M569.06,-110.09C547.85,-101.6 515.85,-88.79 491.75,-79.14"/>
<polygon fill="#63b8ff" stroke="#63b8ff" points="493.29,-75.98 482.7,-75.52 490.69,-82.48 493.29,-75.98"/>
</a>
</g>
</g>
<!-- Node7 -->
<g id="Node000007" class="node">
<title>Node7</title>
<g id="a_Node000007"><a xlink:title=" ">
<polygon fill="#e0e0e0" stroke="#999999" points="193.38,-19.25 139.88,-19.25 139.88,0 193.38,0 193.38,-19.25"/>
<text text-anchor="middle" x="166.62" y="-5.75" font-family="Helvetica,sans-Serif" font-size="10.00">iostream</text>
</a>
</g>
</g>
<!-- Node1&#45;&gt;Node7 -->
<g id="edge6_Node000001_Node000007" class="edge">
<title>Node1&#45;&gt;Node7</title>
<g id="a_edge6_Node000001_Node000007"><a xlink:title=" ">
<path fill="none" stroke="#63b8ff" d="M578.87,-110.16C555.95,-94.21 508.42,-61.94 489.62,-55.25 371.95,-13.34 331.4,-40.61 204.96,-19.43"/>
<polygon fill="#63b8ff" stroke="#63b8ff" points="205.63,-15.99 195.17,-17.71 204.42,-22.88 205.63,-15.99"/>
</a>
</g>
</g>
<!-- Node8 -->
<g id="Node000008" class="node">
<title>Node8</title>
<g id="a_Node000008"><a xlink:title=" ">
<polygon fill="#e0e0e0" stroke="#999999" points="582.62,-74.5 536.62,-74.5 536.62,-55.25 582.62,-55.25 582.62,-74.5"/>
<text text-anchor="middle" x="559.62" y="-61" font-family="Helvetica,sans-Serif" font-size="10.00">TEnv.h</text>
</a>
</g>
</g>
<!-- Node1&#45;&gt;Node8 -->
<g id="edge7_Node000001_Node000008" class="edge">
<title>Node1&#45;&gt;Node8</title>
<g id="a_edge7_Node000001_Node000008"><a xlink:title=" ">
<path fill="none" stroke="#63b8ff" d="M586.34,-110.33C582.15,-103.36 576.15,-93.37 570.89,-84.62"/>
<polygon fill="#63b8ff" stroke="#63b8ff" points="573.95,-82.93 565.8,-76.16 567.95,-86.53 573.95,-82.93"/>
</a>
</g>
</g>
<!-- Node9 -->
<g id="Node000009" class="node">
<title>Node9</title>
<g id="a_Node000009"><a xlink:title=" ">
<polygon fill="#e0e0e0" stroke="#999999" points="646.62,-74.5 600.62,-74.5 600.62,-55.25 646.62,-55.25 646.62,-74.5"/>
<text text-anchor="middle" x="623.62" y="-61" font-family="Helvetica,sans-Serif" font-size="10.00">TKey.h</text>
</a>
</g>
</g>
<!-- Node1&#45;&gt;Node9 -->
<g id="edge8_Node000001_Node000009" class="edge">
<title>Node1&#45;&gt;Node9</title>
<g id="a_edge8_Node000001_Node000009"><a xlink:title=" ">
<path fill="none" stroke="#63b8ff" d="M596.91,-110.33C601.1,-103.36 607.1,-93.37 612.36,-84.62"/>
<polygon fill="#63b8ff" stroke="#63b8ff" points="615.3,-86.53 617.45,-76.16 609.3,-82.93 615.3,-86.53"/>
</a>
</g>
</g>
<!-- Node10 -->
<g id="Node000010" class="node">
<title>Node10</title>
<g id="a_Node000010"><a xlink:href="_globals_8h.html" target="_top" xlink:title=" ">
<polygon fill="white" stroke="#666666" points="720.88,-74.5 664.38,-74.5 664.38,-55.25 720.88,-55.25 720.88,-74.5"/>
<text text-anchor="middle" x="692.62" y="-61" font-family="Helvetica,sans-Serif" font-size="10.00">Globals.h</text>
</a>
</g>
</g>
<!-- Node1&#45;&gt;Node10 -->
<g id="edge9_Node000001_Node000010" class="edge">
<title>Node1&#45;&gt;Node10</title>
<g id="a_edge9_Node000001_Node000010"><a xlink:title=" ">
<path fill="none" stroke="#63b8ff" d="M608.76,-110.09C624.28,-101.91 647.43,-89.71 665.47,-80.19"/>
<polygon fill="#63b8ff" stroke="#63b8ff" points="666.86,-83.42 674.07,-75.66 663.59,-77.23 666.86,-83.42"/>
</a>
</g>
</g>
<!-- Node25 -->
<g id="Node000025" class="node">
<title>Node25</title>
<g id="a_Node000025"><a xlink:href="_dynamic_library_8h.html" target="_top" xlink:title=" ">
<polygon fill="white" stroke="#666666" points="947.75,-74.5 857.5,-74.5 857.5,-55.25 947.75,-55.25 947.75,-74.5"/>
<text text-anchor="middle" x="902.62" y="-61" font-family="Helvetica,sans-Serif" font-size="10.00">DynamicLibrary.h</text>
</a>
</g>
</g>
<!-- Node1&#45;&gt;Node25 -->
<g id="edge25_Node000001_Node000025" class="edge">
<title>Node1&#45;&gt;Node25</title>
<g id="a_edge25_Node000001_Node000025"><a xlink:title=" ">
<path fill="none" stroke="#63b8ff" d="M644.73,-110.03C700.85,-100.42 788.98,-85.33 846.29,-75.52"/>
<polygon fill="#63b8ff" stroke="#63b8ff" points="846.56,-79.03 855.82,-73.89 845.38,-72.13 846.56,-79.03"/>
</a>
</g>
</g>
<!-- Node26 -->
<g id="Node000026" class="node">
<title>Node26</title>
<g id="a_Node000026"><a xlink:href="_t_g_r_s_i_utilities_8h.html" target="_top" xlink:title=" ">
<polygon fill="white" stroke="#666666" points="1186.88,-74.5 1100.38,-74.5 1100.38,-55.25 1186.88,-55.25 1186.88,-74.5"/>
<text text-anchor="middle" x="1143.62" y="-61" font-family="Helvetica,sans-Serif" font-size="10.00">TGRSIUtilities.h</text>
</a>
</g>
</g>
<!-- Node1&#45;&gt;Node26 -->
<g id="edge27_Node000001_Node000026" class="edge">
<title>Node1&#45;&gt;Node26</title>
<g id="a_edge27_Node000001_Node000026"><a xlink:title=" ">
<path fill="none" stroke="#63b8ff" d="M646.57,-113.82C752.37,-103.62 983.22,-81.35 1088.87,-71.16"/>
<polygon fill="#63b8ff" stroke="#63b8ff" points="1089.08,-74.65 1098.7,-70.21 1088.41,-67.69 1089.08,-74.65"/>
</a>
</g>
</g>
<!-- Node29 -->
<g id="Node000029" class="node">
<title>Node29</title>
<g id="a_Node000029"><a xlink:href="_g_root_commands_8h.html" target="_top" xlink:title=" ">
<polygon fill="white" stroke="#666666" points="1344,-74.5 1243.25,-74.5 1243.25,-55.25 1344,-55.25 1344,-74.5"/>
<text text-anchor="middle" x="1293.62" y="-61" font-family="Helvetica,sans-Serif" font-size="10.00">GRootCommands.h</text>
</a>
</g>
</g>
<!-- Node1&#45;&gt;Node29 -->
<g id="edge31_Node000001_Node000029" class="edge">
<title>Node1&#45;&gt;Node29</title>
<g id="a_edge31_Node000001_Node000029"><a xlink:title=" ">
<path fill="none" stroke="#63b8ff" d="M646.61,-115.32C752.77,-107.92 993.35,-90.87 1195.62,-74.5 1207.24,-73.56 1219.62,-72.51 1231.53,-71.47"/>
<polygon fill="#63b8ff" stroke="#63b8ff" points="1231.61,-74.98 1241.26,-70.62 1231,-68.01 1231.61,-74.98"/>
</a>
</g>
</g>
<!-- Node3 -->
<g id="Node000003" class="node">
<title>Node3</title>
<g id="a_Node000003"><a xlink:title=" ">
<polygon fill="#e0e0e0" stroke="#999999" points="121.62,-19.25 63.62,-19.25 63.62,0 121.62,0 121.62,-19.25"/>
<text text-anchor="middle" x="92.62" y="-5.75" font-family="Helvetica,sans-Serif" font-size="10.00">TObject.h</text>
</a>
</g>
</g>
<!-- Node2&#45;&gt;Node3 -->
<g id="edge2_Node000002_Node000003" class="edge">
<title>Node2&#45;&gt;Node3</title>
<g id="a_edge2_Node000002_Node000003"><a xlink:title=" ">
<path fill="none" stroke="#63b8ff" d="M92.62,-55.08C92.62,-48.57 92.62,-39.42 92.62,-31.12"/>
<polygon fill="#63b8ff" stroke="#63b8ff" points="96.13,-31.12 92.63,-21.12 89.13,-31.12 96.13,-31.12"/>
</a>
</g>
</g>
<!-- Node4 -->
<g id="Node000004" class="node">
<title>Node4</title>
<g id="a_Node000004"><a xlink:title=" ">
<polygon fill="#e0e0e0" stroke="#999999" points="45.25,-19.25 0,-19.25 0,0 45.25,0 45.25,-19.25"/>
<text text-anchor="middle" x="22.62" y="-5.75" font-family="Helvetica,sans-Serif" font-size="10.00">TFile.h</text>
</a>
</g>
</g>
<!-- Node2&#45;&gt;Node4 -->
<g id="edge3_Node000002_Node000004" class="edge">
<title>Node2&#45;&gt;Node4</title>
<g id="a_edge3_Node000002_Node000004"><a xlink:title=" ">
<path fill="none" stroke="#63b8ff" d="M80.75,-54.84C70.53,-47.07 55.55,-35.67 43.36,-26.4"/>
<polygon fill="#63b8ff" stroke="#63b8ff" points="45.61,-23.71 35.53,-20.44 41.37,-29.28 45.61,-23.71"/>
</a>
</g>
</g>
<!-- Node10&#45;&gt;Node7 -->
<g id="edge10_Node000010_Node000007" class="edge">
<title>Node10&#45;&gt;Node7</title>
<g id="a_edge10_Node000010_Node000007"><a xlink:title=" ">
<path fill="none" stroke="#63b8ff" d="M664.02,-56.76C661.2,-56.19 658.36,-55.68 655.62,-55.25 459.66,-24.8 404.1,-49.93 204.81,-19.33"/>
<polygon fill="#63b8ff" stroke="#63b8ff" points="205.58,-15.9 195.16,-17.81 204.49,-22.82 205.58,-15.9"/>
</a>
</g>
</g>
<!-- Node11 -->
<g id="Node000011" class="node">
<title>Node11</title>
<g id="a_Node000011"><a xlink:title=" ">
<polygon fill="#e0e0e0" stroke="#999999" points="417.5,-19.25 367.75,-19.25 367.75,0 417.5,0 417.5,-19.25"/>
<text text-anchor="middle" x="392.62" y="-5.75" font-family="Helvetica,sans-Serif" font-size="10.00">iomanip</text>
</a>
</g>
</g>
<!-- Node10&#45;&gt;Node11 -->
<g id="edge11_Node000010_Node000011" class="edge">
<title>Node10&#45;&gt;Node11</title>
<g id="a_edge11_Node000010_Node000011"><a xlink:title=" ">
<path fill="none" stroke="#63b8ff" d="M663.99,-56.98C661.17,-56.37 658.34,-55.78 655.62,-55.25 558.05,-36.23 529.54,-39.66 429.09,-19.58"/>
<polygon fill="#63b8ff" stroke="#63b8ff" points="429.8,-16.15 419.3,-17.59 428.4,-23.01 429.8,-16.15"/>
</a>
</g>
</g>
<!-- Node12 -->
<g id="Node000012" class="node">
<title>Node12</title>
<g id="a_Node000012"><a xlink:title=" ">
<polygon fill="#e0e0e0" stroke="#999999" points="493.62,-19.25 435.62,-19.25 435.62,0 493.62,0 493.62,-19.25"/>
<text text-anchor="middle" x="464.62" y="-5.75" font-family="Helvetica,sans-Serif" font-size="10.00">stdexcept</text>
</a>
</g>
</g>
<!-- Node10&#45;&gt;Node12 -->
<g id="edge12_Node000010_Node000012" class="edge">
<title>Node10&#45;&gt;Node12</title>
<g id="a_edge12_Node000010_Node000012"><a xlink:title=" ">
<path fill="none" stroke="#63b8ff" d="M664.21,-57.24C624.15,-47.88 550.87,-30.77 505.12,-20.08"/>
<polygon fill="#63b8ff" stroke="#63b8ff" points="506.13,-16.72 495.6,-17.86 504.54,-23.54 506.13,-16.72"/>
</a>
</g>
</g>
<!-- Node13 -->
<g id="Node000013" class="node">
<title>Node13</title>
<g id="a_Node000013"><a xlink:title=" ">
<polygon fill="#e0e0e0" stroke="#999999" points="1144.62,-19.25 1104.62,-19.25 1104.62,0 1144.62,0 1144.62,-19.25"/>
<text text-anchor="middle" x="1124.62" y="-5.75" font-family="Helvetica,sans-Serif" font-size="10.00">string</text>
</a>
</g>
</g>
<!-- Node10&#45;&gt;Node13 -->
<g id="edge13_Node000010_Node000013" class="edge">
<title>Node10&#45;&gt;Node13</title>
<g id="a_edge13_Node000010_Node000013"><a xlink:title=" ">
<path fill="none" stroke="#63b8ff" d="M721.23,-62.47C785.91,-58.91 948.41,-47.89 1092.89,-19.47"/>
<polygon fill="#63b8ff" stroke="#63b8ff" points="1093.54,-22.91 1102.66,-17.51 1092.17,-16.04 1093.54,-22.91"/>
</a>
</g>
</g>
<!-- Node14 -->
<g id="Node000014" class="node">
<title>Node14</title>
<g id="a_Node000014"><a xlink:title=" ">
<polygon fill="#e0e0e0" stroke="#999999" points="553.75,-19.25 511.5,-19.25 511.5,0 553.75,0 553.75,-19.25"/>
<text text-anchor="middle" x="532.62" y="-5.75" font-family="Helvetica,sans-Serif" font-size="10.00">cstdio</text>
</a>
</g>
</g>
<!-- Node10&#45;&gt;Node14 -->
<g id="edge14_Node000010_Node000014" class="edge">
<title>Node10&#45;&gt;Node14</title>
<g id="a_edge14_Node000010_Node000014"><a xlink:title=" ">
<path fill="none" stroke="#63b8ff" d="M665.48,-54.84C637.65,-45.58 594.38,-31.18 564.84,-21.35"/>
<polygon fill="#63b8ff" stroke="#63b8ff" points="566.27,-18.14 555.68,-18.3 564.06,-24.78 566.27,-18.14"/>
</a>
</g>
</g>
<!-- Node15 -->
<g id="Node000015" class="node">
<title>Node15</title>
<g id="a_Node000015"><a xlink:title=" ">
<polygon fill="#e0e0e0" stroke="#999999" points="617.25,-19.25 572,-19.25 572,0 617.25,0 617.25,-19.25"/>
<text text-anchor="middle" x="594.62" y="-5.75" font-family="Helvetica,sans-Serif" font-size="10.00">cstdint</text>
</a>
</g>
</g>
<!-- Node10&#45;&gt;Node15 -->
<g id="edge15_Node000010_Node000015" class="edge">
<title>Node10&#45;&gt;Node15</title>
<g id="a_edge15_Node000010_Node000015"><a xlink:title=" ">
<path fill="none" stroke="#63b8ff" d="M676,-54.84C660.94,-46.66 638.48,-34.46 620.97,-24.94"/>
<polygon fill="#63b8ff" stroke="#63b8ff" points="623.12,-22.12 612.66,-20.43 619.78,-28.27 623.12,-22.12"/>
</a>
</g>
</g>
<!-- Node16 -->
<g id="Node000016" class="node">
<title>Node16</title>
<g id="a_Node000016"><a xlink:title=" ">
<polygon fill="#e0e0e0" stroke="#999999" points="679.88,-19.25 635.38,-19.25 635.38,0 679.88,0 679.88,-19.25"/>
<text text-anchor="middle" x="657.62" y="-5.75" font-family="Helvetica,sans-Serif" font-size="10.00">cstdlib</text>
</a>
</g>
</g>
<!-- Node10&#45;&gt;Node16 -->
<g id="edge16_Node000010_Node000016" class="edge">
<title>Node10&#45;&gt;Node16</title>
<g id="a_edge16_Node000010_Node000016"><a xlink:title=" ">
<path fill="none" stroke="#63b8ff" d="M686.85,-55.08C682.21,-48.03 675.55,-37.9 669.76,-29.08"/>
<polygon fill="#63b8ff" stroke="#63b8ff" points="672.78,-27.31 664.36,-20.87 666.93,-31.15 672.78,-27.31"/>
</a>
</g>
</g>
<!-- Node17 -->
<g id="Node000017" class="node">
<title>Node17</title>
<g id="a_Node000017"><a xlink:title=" ">
<polygon fill="#e0e0e0" stroke="#999999" points="757.38,-19.25 697.88,-19.25 697.88,0 757.38,0 757.38,-19.25"/>
<text text-anchor="middle" x="727.62" y="-5.75" font-family="Helvetica,sans-Serif" font-size="10.00">execinfo.h</text>
</a>
</g>
</g>
<!-- Node10&#45;&gt;Node17 -->
<g id="edge17_Node000010_Node000017" class="edge">
<title>Node10&#45;&gt;Node17</title>
<g id="a_edge17_Node000010_Node000017"><a xlink:title=" ">
<path fill="none" stroke="#63b8ff" d="M698.4,-55.08C703.04,-48.03 709.7,-37.9 715.49,-29.08"/>
<polygon fill="#63b8ff" stroke="#63b8ff" points="718.32,-31.15 720.89,-20.87 712.47,-27.31 718.32,-31.15"/>
</a>
</g>
</g>
<!-- Node18 -->
<g id="Node000018" class="node">
<title>Node18</title>
<g id="a_Node000018"><a xlink:title=" ">
<polygon fill="#e0e0e0" stroke="#999999" points="825.88,-19.25 775.38,-19.25 775.38,0 825.88,0 825.88,-19.25"/>
<text text-anchor="middle" x="800.62" y="-5.75" font-family="Helvetica,sans-Serif" font-size="10.00">cxxabi.h</text>
</a>
</g>
</g>
<!-- Node10&#45;&gt;Node18 -->
<g id="edge18_Node000010_Node000018" class="edge">
<title>Node10&#45;&gt;Node18</title>
<g id="a_edge18_Node000010_Node000018"><a xlink:title=" ">
<path fill="none" stroke="#63b8ff" d="M710.95,-54.84C727.7,-46.58 752.76,-34.23 772.13,-24.68"/>
<polygon fill="#63b8ff" stroke="#63b8ff" points="773.44,-27.93 780.86,-20.37 770.34,-21.65 773.44,-27.93"/>
</a>
</g>
</g>
<!-- Node19 -->
<g id="Node000019" class="node">
<title>Node19</title>
<g id="a_Node000019"><a xlink:title=" ">
<polygon fill="#e0e0e0" stroke="#999999" points="895.25,-19.25 844,-19.25 844,0 895.25,0 895.25,-19.25"/>
<text text-anchor="middle" x="869.62" y="-5.75" font-family="Helvetica,sans-Serif" font-size="10.00">sstream</text>
</a>
</g>
</g>
<!-- Node10&#45;&gt;Node19 -->
<g id="edge19_Node000010_Node000019" class="edge">
<title>Node10&#45;&gt;Node19</title>
<g id="a_edge19_Node000010_Node000019"><a xlink:title=" ">
<path fill="none" stroke="#63b8ff" d="M721.06,-55.32C751.44,-46.18 799.7,-31.66 832.92,-21.67"/>
<polygon fill="#63b8ff" stroke="#63b8ff" points="833.55,-25.13 842.12,-18.9 831.53,-18.43 833.55,-25.13"/>
</a>
</g>
</g>
<!-- Node20 -->
<g id="Node000020" class="node">
<title>Node20</title>
<g id="a_Node000020"><a xlink:title=" ">
<polygon fill="#e0e0e0" stroke="#999999" points="950.12,-19.25 913.12,-19.25 913.12,0 950.12,0 950.12,-19.25"/>
<text text-anchor="middle" x="931.62" y="-5.75" font-family="Helvetica,sans-Serif" font-size="10.00">array</text>
</a>
</g>
</g>
<!-- Node10&#45;&gt;Node20 -->
<g id="edge20_Node000010_Node000020" class="edge">
<title>Node10&#45;&gt;Node20</title>
<g id="a_edge20_Node000010_Node000020"><a xlink:title=" ">
<path fill="none" stroke="#63b8ff" d="M721.3,-58.8C760.25,-51.7 832.24,-37.84 902.08,-19.73"/>
<polygon fill="#63b8ff" stroke="#63b8ff" points="902.57,-23.22 911.35,-17.29 900.79,-16.45 902.57,-23.22"/>
</a>
</g>
</g>
<!-- Node21 -->
<g id="Node000021" class="node">
<title>Node21</title>
<g id="a_Node000021"><a xlink:title=" ">
<polygon fill="#e0e0e0" stroke="#999999" points="1018.88,-19.25 968.38,-19.25 968.38,0 1018.88,0 1018.88,-19.25"/>
<text text-anchor="middle" x="993.62" y="-5.75" font-family="Helvetica,sans-Serif" font-size="10.00">memory</text>
</a>
</g>
</g>
<!-- Node10&#45;&gt;Node21 -->
<g id="edge21_Node000010_Node000021" class="edge">
<title>Node10&#45;&gt;Node21</title>
<g id="a_edge21_Node000010_Node000021"><a xlink:title=" ">
<path fill="none" stroke="#63b8ff" d="M721.22,-59.89C768.33,-53.16 865.41,-38.56 956.93,-19.68"/>
<polygon fill="#63b8ff" stroke="#63b8ff" points="957.5,-23.13 966.58,-17.66 956.07,-16.28 957.5,-23.13"/>
</a>
</g>
</g>
<!-- Node22 -->
<g id="Node000022" class="node">
<title>Node22</title>
<g id="a_Node000022"><a xlink:title=" ">
<polygon fill="#e0e0e0" stroke="#999999" points="1086.5,-19.25 1036.75,-19.25 1036.75,0 1086.5,0 1086.5,-19.25"/>
<text text-anchor="middle" x="1061.62" y="-5.75" font-family="Helvetica,sans-Serif" font-size="10.00">unistd.h</text>
</a>
</g>
</g>
<!-- Node10&#45;&gt;Node22 -->
<g id="edge22_Node000010_Node000022" class="edge">
<title>Node10&#45;&gt;Node22</title>
<g id="a_edge22_Node000010_Node000022"><a xlink:title=" ">
<path fill="none" stroke="#63b8ff" d="M721.04,-61.21C777.26,-55.71 906.83,-41.84 1025.38,-19.48"/>
<polygon fill="#63b8ff" stroke="#63b8ff" points="1025.8,-22.96 1034.96,-17.64 1024.48,-16.09 1025.8,-22.96"/>
</a>
</g>
</g>
<!-- Node23 -->
<g id="Node000023" class="node">
<title>Node23</title>
<g id="a_Node000023"><a xlink:title=" ">
<polygon fill="#e0e0e0" stroke="#999999" points="271.38,-19.25 211.88,-19.25 211.88,0 271.38,0 271.38,-19.25"/>
<text text-anchor="middle" x="241.62" y="-5.75" font-family="Helvetica,sans-Serif" font-size="10.00">sys/wait.h</text>
</a>
</g>
</g>
<!-- Node10&#45;&gt;Node23 -->
<g id="edge23_Node000010_Node000023" class="edge">
<title>Node10&#45;&gt;Node23</title>
<g id="a_edge23_Node000010_Node000023"><a xlink:title=" ">
<path fill="none" stroke="#63b8ff" d="M664.02,-56.81C661.19,-56.23 658.36,-55.7 655.62,-55.25 493.94,-28.77 447.97,-44.66 282.84,-19.4"/>
<polygon fill="#63b8ff" stroke="#63b8ff" points="283.7,-15.99 273.28,-17.91 282.63,-22.91 283.7,-15.99"/>
</a>
</g>
</g>
<!-- Node24 -->
<g id="Node000024" class="node">
<title>Node24</title>
<g id="a_Node000024"><a xlink:title=" ">
<polygon fill="#e0e0e0" stroke="#999999" points="349.75,-19.25 289.5,-19.25 289.5,0 349.75,0 349.75,-19.25"/>
<text text-anchor="middle" x="319.62" y="-5.75" font-family="Helvetica,sans-Serif" font-size="10.00">sys/prctl.h</text>
</a>
</g>
</g>
<!-- Node10&#45;&gt;Node24 -->
<g id="edge24_Node000010_Node000024" class="edge">
<title>Node10&#45;&gt;Node24</title>
<g id="a_edge24_Node000010_Node000024"><a xlink:title=" ">
<path fill="none" stroke="#63b8ff" d="M664,-56.88C661.18,-56.29 658.35,-55.73 655.62,-55.25 528.27,-32.76 491.68,-41.14 361.44,-19.58"/>
<polygon fill="#63b8ff" stroke="#63b8ff" points="362.16,-16.15 351.72,-17.94 361,-23.05 362.16,-16.15"/>
</a>
</g>
</g>
<!-- Node25&#45;&gt;Node13 -->
<g id="edge26_Node000025_Node000013" class="edge">
<title>Node25&#45;&gt;Node13</title>
<g id="a_edge26_Node000025_Node000013"><a xlink:title=" ">
<path fill="none" stroke="#63b8ff" d="M945.36,-54.79C982.22,-46.78 1037.1,-34.43 1093.47,-19.69"/>
<polygon fill="#63b8ff" stroke="#63b8ff" points="1094.15,-23.14 1102.93,-17.2 1092.36,-16.37 1094.15,-23.14"/>
</a>
</g>
</g>
<!-- Node26&#45;&gt;Node13 -->
<g id="edge29_Node000026_Node000013" class="edge">
<title>Node26&#45;&gt;Node13</title>
<g id="a_edge29_Node000026_Node000013"><a xlink:title=" ">
<path fill="none" stroke="#63b8ff" d="M1140.49,-55.08C1138.08,-48.34 1134.67,-38.77 1131.62,-30.24"/>
<polygon fill="#63b8ff" stroke="#63b8ff" points="1135,-29.28 1128.34,-21.03 1128.4,-31.63 1135,-29.28"/>
</a>
</g>
</g>
<!-- Node27 -->
<g id="Node000027" class="node">
<title>Node27</title>
<g id="a_Node000027"><a xlink:title=" ">
<polygon fill="#e0e0e0" stroke="#999999" points="1273.12,-19.25 1224.12,-19.25 1224.12,0 1273.12,0 1273.12,-19.25"/>
<text text-anchor="middle" x="1248.62" y="-5.75" font-family="Helvetica,sans-Serif" font-size="10.00">fstream</text>
</a>
</g>
</g>
<!-- Node26&#45;&gt;Node27 -->
<g id="edge28_Node000026_Node000027" class="edge">
<title>Node26&#45;&gt;Node27</title>
<g id="a_edge28_Node000026_Node000027"><a xlink:title=" ">
<path fill="none" stroke="#63b8ff" d="M1161.44,-54.84C1177.65,-46.62 1201.86,-34.34 1220.66,-24.81"/>
<polygon fill="#63b8ff" stroke="#63b8ff" points="1222.04,-28.03 1229.38,-20.39 1218.87,-21.79 1222.04,-28.03"/>
</a>
</g>
</g>
<!-- Node28 -->
<g id="Node000028" class="node">
<title>Node28</title>
<g id="a_Node000028"><a xlink:title=" ">
<polygon fill="#e0e0e0" stroke="#999999" points="1206.12,-19.25 1163.12,-19.25 1163.12,0 1206.12,0 1206.12,-19.25"/>
<text text-anchor="middle" x="1184.62" y="-5.75" font-family="Helvetica,sans-Serif" font-size="10.00">vector</text>
</a>
</g>
</g>
<!-- Node26&#45;&gt;Node28 -->
<g id="edge30_Node000026_Node000028" class="edge">
<title>Node26&#45;&gt;Node28</title>
<g id="a_edge30_Node000026_Node000028"><a xlink:title=" ">
<path fill="none" stroke="#63b8ff" d="M1150.4,-55.08C1155.94,-47.88 1163.97,-37.46 1170.85,-28.51"/>
<polygon fill="#63b8ff" stroke="#63b8ff" points="1173.46,-30.87 1176.78,-20.81 1167.91,-26.6 1173.46,-30.87"/>
</a>
</g>
</g>
<!-- Node29&#45;&gt;Node13 -->
<g id="edge32_Node000029_Node000013" class="edge">
<title>Node29&#45;&gt;Node13</title>
<g id="a_edge32_Node000029_Node000013"><a xlink:title=" ">
<path fill="none" stroke="#63b8ff" d="M1264.96,-54.84C1234.59,-45.28 1186.83,-30.22 1155.61,-20.39"/>
<polygon fill="#63b8ff" stroke="#63b8ff" points="1156.96,-17.14 1146.37,-17.48 1154.85,-23.82 1156.96,-17.14"/>
</a>
</g>
</g>
<!-- Node30 -->
<g id="Node000030" class="node">
<title>Node30</title>
<g id="a_Node000030"><a xlink:title=" ">
<polygon fill="#e0e0e0" stroke="#999999" points="1419.5,-19.25 1351.75,-19.25 1351.75,0 1419.5,0 1419.5,-19.25"/>
<text text-anchor="middle" x="1385.62" y="-5.75" font-family="Helvetica,sans-Serif" font-size="10.00">TDirectory.h</text>
</a>
</g>
</g>
<!-- Node29&#45;&gt;Node30 -->
<g id="edge33_Node000029_Node000030" class="edge">
<title>Node29&#45;&gt;Node30</title>
<g id="a_edge33_Node000029_Node000030"><a xlink:title=" ">
<path fill="none" stroke="#63b8ff" d="M1309.23,-54.84C1323.24,-46.73 1344.06,-34.68 1360.43,-25.21"/>
<polygon fill="#63b8ff" stroke="#63b8ff" points="1361.73,-28.5 1368.63,-20.46 1358.22,-22.44 1361.73,-28.5"/>
</a>
</g>
</g>
<!-- Node31 -->
<g id="Node000031" class="node">
<title>Node31</title>
<g id="a_Node000031"><a xlink:title=" ">
<polygon fill="#e0e0e0" stroke="#999999" points="1333.75,-19.25 1291.5,-19.25 1291.5,0 1333.75,0 1333.75,-19.25"/>
<text text-anchor="middle" x="1312.62" y="-5.75" font-family="Helvetica,sans-Serif" font-size="10.00">TH2.h</text>
</a>
</g>
</g>
<!-- Node29&#45;&gt;Node31 -->
<g id="edge34_Node000029_Node000031" class="edge">
<title>Node29&#45;&gt;Node31</title>
<g id="a_edge34_Node000029_Node000031"><a xlink:title=" ">
<path fill="none" stroke="#63b8ff" d="M1296.76,-55.08C1299.17,-48.34 1302.58,-38.77 1305.63,-30.24"/>
<polygon fill="#63b8ff" stroke="#63b8ff" points="1308.85,-31.63 1308.91,-21.03 1302.25,-29.28 1308.85,-31.63"/>
</a>
</g>
</g>
</g>
</svg>

<g id="navigator" transform="translate(0 0)" fill="#404254">
  <rect fill="#f2f5e9" fill-opacity="0.5" stroke="#606060" stroke-width=".5" x="0" y="0" width="60" height="60"/>
  <use id="zoomplus" xlink:href="#zoomPlus" x="17" y="9" onmousedown="handleZoom(evt,'in')"/>
  <use id="zoomminus" xlink:href="#zoomMin" x="42" y="9" onmousedown="handleZoom(evt,'out')"/>
  <use id="reset" xlink:href="#resetDef" x="30" y="36" onmousedown="handleReset()"/>
   <use id="arrowup" xlink:href="#arrowUp" x="0" y="0" onmousedown="handlePan(0,-1)"/>
  <use id="arrowright" xlink:href="#arrowRight" x="0" y="0" onmousedown="handlePan(1,0)"/>
  <use id="arrowdown" xlink:href="#arrowDown" x="0" y="0" onmousedown="handlePan(0,1)"/>
  <use id="arrowleft" xlink:href="#arrowLeft" x="0" y="0" onmousedown="handlePan(-1,0)"/>
</g>
<svg viewBox="0 0 15 15" width="100%" height="30px" preserveAspectRatio="xMaxYMin meet">
 <g id="arrow_out" transform="scale(0.3 0.3)">
  <a xlink:href="_t_analysis_options_8cxx__incl_org.svg" target="_base">
   <rect id="button" ry="5" rx="5" y="6" x="6" height="38" width="38"
        fill="#f2f5e9" fill-opacity="0.5" stroke="#606060" stroke-width="1.0"/>
   <path id="arrow"
     d="M 11.500037,31.436501 C 11.940474,20.09759 22.043105,11.32322 32.158766,21.979434 L 37.068811,17.246167 C 37.068811,17.246167 37.088388,32 37.088388,32 L 22.160133,31.978069 C 22.160133,31.978069 26.997745,27.140456 26.997745,27.140456 C 18.528582,18.264221 13.291696,25.230495 11.500037,31.436501 z"
     style="fill:#404040;"/>
  </a>
 </g>
</svg>

<style type='text/css'>
<![CDATA[
[data-mouse-over-selected='false'] { opacity: 0.7; }
[data-mouse-over-selected='true']  { opacity: 1.0; }
]]>
</style>
<script type="application/ecmascript"><![CDATA[
document.addEventListener('DOMContentLoaded', (event) => {
  highlightEdges();
  highlightAdjacentNodes();
});
]]></script>
</svg>
