<?xml version="1.0" encoding="UTF-8" standalone="no"?>
<!DOCTYPE svg PUBLIC "-//W3C//DTD SVG 1.1//EN"
 "http://www.w3.org/Graphics/SVG/1.1/DTD/svg11.dtd">
<!-- Generated by graphviz version 12.2.0 (20241103.1931)
 -->
<!-- Title: TBGSubtraction.h Pages: 1 -->
<!--zoomable 193 -->

<svg id="main" version="1.1" xmlns="http://www.w3.org/2000/svg" xmlns:xlink="http://www.w3.org/1999/xlink" xml:space="preserve" onload="init(evt)">

<style type="text/css"><![CDATA[
.node, .edge {opacity: 0.7;}
.node.selected, .edge.selected {opacity: 1;}
.edge:hover path { stroke: red; }
.edge:hover polygon { stroke: red; fill: red; }
]]></style>

<defs>
  <circle id="rim" cx="0" cy="0" r="7"/>
  <circle id="rim2" cx="0" cy="0" r="3.5"/>
  <g id="zoomPlus">
    <use xlink:href="#rim" fill="#404040"><set attributeName="fill" to="#808080" begin="zoomplus.mouseover" end="zoomplus.mouseout"/></use>
    <path d="M-4,0h8M0,-4v8" fill="none" stroke="white" stroke-width="1.5" pointer-events="none"/>
  </g>
  <g id="zoomMin">
    <use xlink:href="#rim" fill="#404040"><set attributeName="fill" to="#808080" begin="zoomminus.mouseover" end="zoomminus.mouseout"/></use>
    <path d="M-4,0h8" fill="none" stroke="white" stroke-width="1.5" pointer-events="none"/>
  </g>
  <g id="arrowUp" transform="translate(30 24)">
    <use xlink:href="#rim"/>
    <path pointer-events="none" fill="none" stroke="white" stroke-width="1.5" d="M0,-3.0v7 M-2.5,-0.5L0,-3.0L2.5,-0.5"/>
  </g>
  <g id="arrowRight" transform="rotate(90) translate(36 -43)">
    <use xlink:href="#rim"/>
    <path pointer-events="none" fill="none" stroke="white" stroke-width="1.5" d="M0,-3.0v7 M-2.5,-0.5L0,-3.0L2.5,-0.5"/>
  </g>
  <g id="arrowDown" transform="rotate(180) translate(-30 -48)">
    <use xlink:href="#rim"/>
    <path pointer-events="none" fill="none" stroke="white" stroke-width="1.5" d="M0,-3.0v7 M-2.5,-0.5L0,-3.0L2.5,-0.5"/>
  </g>
  <g id="arrowLeft" transform="rotate(270) translate(-36 17)">
    <use xlink:href="#rim"/>
    <path pointer-events="none" fill="none" stroke="white" stroke-width="1.5" d="M0,-3.0v7 M-2.5,-0.5L0,-3.0L2.5,-0.5"/>
  </g>
  <g id="resetDef">
    <use xlink:href="#rim2" fill="#404040"><set attributeName="fill" to="#808080" begin="reset.mouseover" end="reset.mouseout"/></use>
  </g>
</defs>
<script type="application/ecmascript">
var viewWidth = 2344;
var viewHeight = 193;
var sectionId = 'dynsection-0';
</script>
<script type="application/ecmascript" xlink:href="svg.min.js"/>
<svg id="graph" class="graph">
<g id="viewport">
<title>TBGSubtraction.h</title>
<!-- Node1 -->
<g id="Node000001" class="node">
<title>Node1</title>
<g id="a_Node000001"><a xlink:title=" ">
<polygon fill="#999999" stroke="#666666" points="1534,-185 1440.75,-185 1440.75,-165.75 1534,-165.75 1534,-185"/>
<text text-anchor="middle" x="1487.38" y="-171.5" font-family="Helvetica,sans-Serif" font-size="10.00">TBGSubtraction.h</text>
</a>
</g>
</g>
<!-- Node2 -->
<g id="Node000002" class="node">
<title>Node2</title>
<g id="a_Node000002"><a xlink:title=" ">
<polygon fill="#e0e0e0" stroke="#999999" points="40.75,-19.25 0,-19.25 0,0 40.75,0 40.75,-19.25"/>
<text text-anchor="middle" x="20.38" y="-5.75" font-family="Helvetica,sans-Serif" font-size="10.00">TF1.h</text>
</a>
</g>
</g>
<!-- Node1&#45;&gt;Node2 -->
<g id="edge1_Node000001_Node000002" class="edge">
<title>Node1&#45;&gt;Node2</title>
<g id="a_edge1_Node000001_Node000002"><a xlink:title=" ">
<path fill="none" stroke="#63b8ff" d="M1440.55,-173.79C1223.25,-170.92 318.55,-157.42 195.38,-129.75 134.92,-116.17 115.87,-113.07 67.38,-74.5 51.9,-62.19 39,-43.59 30.65,-29.63"/>
<polygon fill="#63b8ff" stroke="#63b8ff" points="33.7,-27.92 25.72,-20.96 27.62,-31.38 33.7,-27.92"/>
</a>
</g>
</g>
<!-- Node3 -->
<g id="Node000003" class="node">
<title>Node3</title>
<g id="a_Node000003"><a xlink:title=" ">
<polygon fill="#e0e0e0" stroke="#999999" points="1270.12,-129.75 1204.62,-129.75 1204.62,-110.5 1270.12,-110.5 1270.12,-129.75"/>
<text text-anchor="middle" x="1237.38" y="-116.25" font-family="Helvetica,sans-Serif" font-size="10.00">TGButton.h</text>
</a>
</g>
</g>
<!-- Node1&#45;&gt;Node3 -->
<g id="edge2_Node000001_Node000003" class="edge">
<title>Node1&#45;&gt;Node3</title>
<g id="a_edge2_Node000001_Node000003"><a xlink:title=" ">
<path fill="none" stroke="#63b8ff" d="M1444.68,-165.28C1399.17,-155.59 1327.45,-140.31 1281.43,-130.51"/>
<polygon fill="#63b8ff" stroke="#63b8ff" points="1282.3,-127.12 1271.79,-128.46 1280.84,-133.96 1282.3,-127.12"/>
</a>
</g>
</g>
<!-- Node4 -->
<g id="Node000004" class="node">
<title>Node4</title>
<g id="a_Node000004"><a xlink:title=" ">
<polygon fill="#e0e0e0" stroke="#999999" points="1380.25,-129.75 1288.5,-129.75 1288.5,-110.5 1380.25,-110.5 1380.25,-129.75"/>
<text text-anchor="middle" x="1334.38" y="-116.25" font-family="Helvetica,sans-Serif" font-size="10.00">TGDoubleSlider.h</text>
</a>
</g>
</g>
<!-- Node1&#45;&gt;Node4 -->
<g id="edge3_Node000001_Node000004" class="edge">
<title>Node1&#45;&gt;Node4</title>
<g id="a_edge3_Node000001_Node000004"><a xlink:title=" ">
<path fill="none" stroke="#63b8ff" d="M1461.42,-165.34C1436.58,-156.7 1398.88,-143.57 1370.99,-133.87"/>
<polygon fill="#63b8ff" stroke="#63b8ff" points="1372.48,-130.68 1361.89,-130.7 1370.18,-137.29 1372.48,-130.68"/>
</a>
</g>
</g>
<!-- Node5 -->
<g id="Node000005" class="node">
<title>Node5</title>
<g id="a_Node000005"><a xlink:title=" ">
<polygon fill="#e0e0e0" stroke="#999999" points="1484.25,-129.75 1398.5,-129.75 1398.5,-110.5 1484.25,-110.5 1484.25,-129.75"/>
<text text-anchor="middle" x="1441.38" y="-116.25" font-family="Helvetica,sans-Serif" font-size="10.00">TGTripleSlider.h</text>
</a>
</g>
</g>
<!-- Node1&#45;&gt;Node5 -->
<g id="edge4_Node000001_Node000005" class="edge">
<title>Node1&#45;&gt;Node5</title>
<g id="a_edge4_Node000001_Node000005"><a xlink:title=" ">
<path fill="none" stroke="#63b8ff" d="M1479.78,-165.58C1473.49,-158.3 1464.36,-147.73 1456.58,-138.73"/>
<polygon fill="#63b8ff" stroke="#63b8ff" points="1459.31,-136.53 1450.13,-131.25 1454.01,-141.11 1459.31,-136.53"/>
</a>
</g>
</g>
<!-- Node6 -->
<g id="Node000006" class="node">
<title>Node6</title>
<g id="a_Node000006"><a xlink:title=" ">
<polygon fill="#e0e0e0" stroke="#999999" points="1564.25,-129.75 1502.5,-129.75 1502.5,-110.5 1564.25,-110.5 1564.25,-129.75"/>
<text text-anchor="middle" x="1533.38" y="-116.25" font-family="Helvetica,sans-Serif" font-size="10.00">TGSlider.h</text>
</a>
</g>
</g>
<!-- Node1&#45;&gt;Node6 -->
<g id="edge5_Node000001_Node000006" class="edge">
<title>Node1&#45;&gt;Node6</title>
<g id="a_edge5_Node000001_Node000006"><a xlink:title=" ">
<path fill="none" stroke="#63b8ff" d="M1494.97,-165.58C1501.26,-158.3 1510.39,-147.73 1518.17,-138.73"/>
<polygon fill="#63b8ff" stroke="#63b8ff" points="1520.74,-141.11 1524.62,-131.25 1515.44,-136.53 1520.74,-141.11"/>
</a>
</g>
</g>
<!-- Node7 -->
<g id="Node000007" class="node">
<title>Node7</title>
<g id="a_Node000007"><a xlink:title=" ">
<polygon fill="#e0e0e0" stroke="#999999" points="1652,-129.75 1582.75,-129.75 1582.75,-110.5 1652,-110.5 1652,-129.75"/>
<text text-anchor="middle" x="1617.38" y="-116.25" font-family="Helvetica,sans-Serif" font-size="10.00">TGToolTip.h</text>
</a>
</g>
</g>
<!-- Node1&#45;&gt;Node7 -->
<g id="edge6_Node000001_Node000007" class="edge">
<title>Node1&#45;&gt;Node7</title>
<g id="a_edge6_Node000001_Node000007"><a xlink:title=" ">
<path fill="none" stroke="#63b8ff" d="M1509.43,-165.34C1530.06,-156.89 1561.16,-144.15 1584.68,-134.52"/>
<polygon fill="#63b8ff" stroke="#63b8ff" points="1585.89,-137.81 1593.81,-130.78 1583.23,-131.33 1585.89,-137.81"/>
</a>
</g>
</g>
<!-- Node8 -->
<g id="Node000008" class="node">
<title>Node8</title>
<g id="a_Node000008"><a xlink:title=" ">
<polygon fill="#e0e0e0" stroke="#999999" points="1763,-129.75 1669.75,-129.75 1669.75,-110.5 1763,-110.5 1763,-129.75"/>
<text text-anchor="middle" x="1716.38" y="-116.25" font-family="Helvetica,sans-Serif" font-size="10.00">TGNumberEntry.h</text>
</a>
</g>
</g>
<!-- Node1&#45;&gt;Node8 -->
<g id="edge7_Node000001_Node000008" class="edge">
<title>Node1&#45;&gt;Node8</title>
<g id="a_edge7_Node000001_Node000008"><a xlink:title=" ">
<path fill="none" stroke="#63b8ff" d="M1526.48,-165.28C1565.1,-156.3 1624.31,-142.53 1666.33,-132.76"/>
<polygon fill="#63b8ff" stroke="#63b8ff" points="1667.01,-136.2 1675.96,-130.52 1665.42,-129.38 1667.01,-136.2"/>
</a>
</g>
</g>
<!-- Node9 -->
<g id="Node000009" class="node">
<title>Node9</title>
<g id="a_Node000009"><a xlink:title=" ">
<polygon fill="#e0e0e0" stroke="#999999" points="1841.88,-129.75 1780.88,-129.75 1780.88,-110.5 1841.88,-110.5 1841.88,-129.75"/>
<text text-anchor="middle" x="1811.38" y="-116.25" font-family="Helvetica,sans-Serif" font-size="10.00">TGLabel.h</text>
</a>
</g>
</g>
<!-- Node1&#45;&gt;Node9 -->
<g id="edge8_Node000001_Node000009" class="edge">
<title>Node1&#45;&gt;Node9</title>
<g id="a_edge8_Node000001_Node000009"><a xlink:title=" ">
<path fill="none" stroke="#63b8ff" d="M1534.43,-167.92C1588.79,-160.27 1681.18,-146.64 1769.7,-130.16"/>
<polygon fill="#63b8ff" stroke="#63b8ff" points="1770.09,-133.65 1779.27,-128.37 1768.79,-126.77 1770.09,-133.65"/>
</a>
</g>
</g>
<!-- Node10 -->
<g id="Node000010" class="node">
<title>Node10</title>
<g id="a_Node000010"><a xlink:title=" ">
<polygon fill="#e0e0e0" stroke="#999999" points="1940.62,-129.75 1860.12,-129.75 1860.12,-110.5 1940.62,-110.5 1940.62,-129.75"/>
<text text-anchor="middle" x="1900.38" y="-116.25" font-family="Helvetica,sans-Serif" font-size="10.00">TGStatusBar.h</text>
</a>
</g>
</g>
<!-- Node1&#45;&gt;Node10 -->
<g id="edge9_Node000001_Node000010" class="edge">
<title>Node1&#45;&gt;Node10</title>
<g id="a_edge9_Node000001_Node000010"><a xlink:title=" ">
<path fill="none" stroke="#63b8ff" d="M1534.31,-169.41C1601.65,-162.12 1729.81,-147.6 1848.66,-130.09"/>
<polygon fill="#63b8ff" stroke="#63b8ff" points="1848.89,-133.6 1858.26,-128.66 1847.86,-126.67 1848.89,-133.6"/>
</a>
</g>
</g>
<!-- Node11 -->
<g id="Node000011" class="node">
<title>Node11</title>
<g id="a_Node000011"><a xlink:title=" ">
<polygon fill="#e0e0e0" stroke="#999999" points="2023.75,-129.75 1959,-129.75 1959,-110.5 2023.75,-110.5 2023.75,-129.75"/>
<text text-anchor="middle" x="1991.38" y="-116.25" font-family="Helvetica,sans-Serif" font-size="10.00">TGFrame.h</text>
</a>
</g>
</g>
<!-- Node1&#45;&gt;Node11 -->
<g id="edge10_Node000001_Node000011" class="edge">
<title>Node1&#45;&gt;Node11</title>
<g id="a_edge10_Node000001_Node000011"><a xlink:title=" ">
<path fill="none" stroke="#63b8ff" d="M1534.47,-171.49C1616.29,-166.11 1790.17,-153.08 1947.57,-129.84"/>
<polygon fill="#63b8ff" stroke="#63b8ff" points="1948.01,-133.32 1957.38,-128.38 1946.97,-126.4 1948.01,-133.32"/>
</a>
</g>
</g>
<!-- Node12 -->
<g id="Node000012" class="node">
<title>Node12</title>
<g id="a_Node000012"><a xlink:title=" ">
<polygon fill="#e0e0e0" stroke="#999999" points="2126.5,-129.75 2042.25,-129.75 2042.25,-110.5 2126.5,-110.5 2126.5,-129.75"/>
<text text-anchor="middle" x="2084.38" y="-116.25" font-family="Helvetica,sans-Serif" font-size="10.00">TGComboBox.h</text>
</a>
</g>
</g>
<!-- Node1&#45;&gt;Node12 -->
<g id="edge11_Node000001_Node000012" class="edge">
<title>Node1&#45;&gt;Node12</title>
<g id="a_edge11_Node000001_Node000012"><a xlink:title=" ">
<path fill="none" stroke="#63b8ff" d="M1534.17,-171.85C1626.76,-166.57 1840.1,-153.01 2030.5,-129.87"/>
<polygon fill="#63b8ff" stroke="#63b8ff" points="2030.85,-133.35 2040.35,-128.66 2029.99,-126.4 2030.85,-133.35"/>
</a>
</g>
</g>
<!-- Node13 -->
<g id="Node000013" class="node">
<title>Node13</title>
<g id="a_Node000013"><a xlink:title=" ">
<polygon fill="#e0e0e0" stroke="#999999" points="2272.62,-129.75 2144.12,-129.75 2144.12,-110.5 2272.62,-110.5 2272.62,-129.75"/>
<text text-anchor="middle" x="2208.38" y="-116.25" font-family="Helvetica,sans-Serif" font-size="10.00">TRootEmbeddedCanvas.h</text>
</a>
</g>
</g>
<!-- Node1&#45;&gt;Node13 -->
<g id="edge12_Node000001_Node000013" class="edge">
<title>Node1&#45;&gt;Node13</title>
<g id="a_edge12_Node000001_Node000013"><a xlink:title=" ">
<path fill="none" stroke="#63b8ff" d="M1534.2,-171.94C1639.23,-166.3 1901.89,-151.26 2132.6,-129.97"/>
<polygon fill="#63b8ff" stroke="#63b8ff" points="2132.77,-133.47 2142.4,-129.06 2132.12,-126.5 2132.77,-133.47"/>
</a>
</g>
</g>
<!-- Node14 -->
<g id="Node000014" class="node">
<title>Node14</title>
<g id="a_Node000014"><a xlink:href="_t_peak_fitter_8h.html" target="_top" xlink:title=" ">
<polygon fill="white" stroke="#666666" points="318.62,-129.75 244.12,-129.75 244.12,-110.5 318.62,-110.5 318.62,-129.75"/>
<text text-anchor="middle" x="281.38" y="-116.25" font-family="Helvetica,sans-Serif" font-size="10.00">TPeakFitter.h</text>
</a>
</g>
</g>
<!-- Node1&#45;&gt;Node14 -->
<g id="edge13_Node000001_Node000014" class="edge">
<title>Node1&#45;&gt;Node14</title>
<g id="a_edge13_Node000001_Node000014"><a xlink:title=" ">
<path fill="none" stroke="#63b8ff" d="M1440.47,-172.3C1248.78,-163.84 525.87,-131.92 330.37,-123.29"/>
<polygon fill="#63b8ff" stroke="#63b8ff" points="330.72,-119.8 320.57,-122.86 330.41,-126.79 330.72,-119.8"/>
</a>
</g>
</g>
<!-- Node33 -->
<g id="Node000033" class="node">
<title>Node33</title>
<g id="a_Node000033"><a xlink:href="_t_single_peak_8h.html" target="_top" xlink:title=" ">
<polygon fill="white" stroke="#666666" points="188.88,-74.5 109.88,-74.5 109.88,-55.25 188.88,-55.25 188.88,-74.5"/>
<text text-anchor="middle" x="149.38" y="-61" font-family="Helvetica,sans-Serif" font-size="10.00">TSinglePeak.h</text>
</a>
</g>
</g>
<!-- Node1&#45;&gt;Node33 -->
<g id="edge40_Node000001_Node000033" class="edge">
<title>Node1&#45;&gt;Node33</title>
<g id="a_edge40_Node000001_Node000033"><a xlink:title=" ">
<path fill="none" stroke="#63b8ff" d="M1440.4,-174.35C1226.57,-174.01 350.57,-170.14 235.38,-129.75 207.54,-119.99 181.18,-97.8 165.15,-82.33"/>
<polygon fill="#63b8ff" stroke="#63b8ff" points="167.99,-80.22 158.44,-75.62 163.04,-85.17 167.99,-80.22"/>
</a>
</g>
</g>
<!-- Node36 -->
<g id="Node000036" class="node">
<title>Node36</title>
<g id="a_Node000036"><a xlink:title=" ">
<polygon fill="#e0e0e0" stroke="#999999" points="858.5,-74.5 816.25,-74.5 816.25,-55.25 858.5,-55.25 858.5,-74.5"/>
<text text-anchor="middle" x="837.38" y="-61" font-family="Helvetica,sans-Serif" font-size="10.00">TH1.h</text>
</a>
</g>
</g>
<!-- Node1&#45;&gt;Node36 -->
<g id="edge41_Node000001_Node000036" class="edge">
<title>Node1&#45;&gt;Node36</title>
<g id="a_edge41_Node000001_Node000036"><a xlink:title=" ">
<path fill="none" stroke="#63b8ff" d="M1440.39,-171.61C1363.54,-166.58 1206.41,-154.1 1075.38,-129.75 1000.7,-115.87 915.13,-90.52 869.69,-76.28"/>
<polygon fill="#63b8ff" stroke="#63b8ff" points="870.81,-72.97 860.22,-73.29 868.7,-79.64 870.81,-72.97"/>
</a>
</g>
</g>
<!-- Node37 -->
<g id="Node000037" class="node">
<title>Node37</title>
<g id="a_Node000037"><a xlink:title=" ">
<polygon fill="#e0e0e0" stroke="#999999" points="1480.5,-19.25 1438.25,-19.25 1438.25,0 1480.5,0 1480.5,-19.25"/>
<text text-anchor="middle" x="1459.38" y="-5.75" font-family="Helvetica,sans-Serif" font-size="10.00">TH2.h</text>
</a>
</g>
</g>
<!-- Node1&#45;&gt;Node37 -->
<g id="edge42_Node000001_Node000037" class="edge">
<title>Node1&#45;&gt;Node37</title>
<g id="a_edge42_Node000001_Node000037"><a xlink:title=" ">
<path fill="none" stroke="#63b8ff" d="M1440.49,-174.3C1366.14,-173.07 1226.41,-165.88 1195.38,-129.75 1189.8,-123.26 1189.92,-117.09 1195.38,-110.5 1249.58,-44.93 1306.55,-111.05 1383.38,-74.5 1407.09,-63.22 1429.5,-42.74 1443.76,-28"/>
<polygon fill="#63b8ff" stroke="#63b8ff" points="1446.21,-30.51 1450.48,-20.81 1441.1,-25.72 1446.21,-30.51"/>
</a>
</g>
</g>
<!-- Node38 -->
<g id="Node000038" class="node">
<title>Node38</title>
<g id="a_Node000038"><a xlink:href="_g_canvas_8h.html" target="_top" xlink:title=" ">
<polygon fill="white" stroke="#666666" points="1148.38,-129.75 1084.38,-129.75 1084.38,-110.5 1148.38,-110.5 1148.38,-129.75"/>
<text text-anchor="middle" x="1116.38" y="-116.25" font-family="Helvetica,sans-Serif" font-size="10.00">GCanvas.h</text>
</a>
</g>
</g>
<!-- Node1&#45;&gt;Node38 -->
<g id="edge43_Node000001_Node000038" class="edge">
<title>Node1&#45;&gt;Node38</title>
<g id="a_edge43_Node000001_Node000038"><a xlink:title=" ">
<path fill="none" stroke="#63b8ff" d="M1440.44,-168.66C1377.17,-160.79 1261.04,-145.76 1162.38,-129.75 1161.53,-129.61 1160.68,-129.47 1159.83,-129.33"/>
<polygon fill="#63b8ff" stroke="#63b8ff" points="1160.45,-125.89 1150,-127.62 1159.25,-132.78 1160.45,-125.89"/>
</a>
</g>
</g>
<!-- Node47 -->
<g id="Node000047" class="node">
<title>Node47</title>
<g id="a_Node000047"><a xlink:title=" ">
<polygon fill="#e0e0e0" stroke="#999999" points="2336,-129.75 2290.75,-129.75 2290.75,-110.5 2336,-110.5 2336,-129.75"/>
<text text-anchor="middle" x="2313.38" y="-116.25" font-family="Helvetica,sans-Serif" font-size="10.00">TFile.h</text>
</a>
</g>
</g>
<!-- Node1&#45;&gt;Node47 -->
<g id="edge56_Node000001_Node000047" class="edge">
<title>Node1&#45;&gt;Node47</title>
<g id="a_edge56_Node000001_Node000047"><a xlink:title=" ">
<path fill="none" stroke="#63b8ff" d="M1534.28,-175.11C1655.99,-176.3 1991.91,-175.01 2279.36,-129.69"/>
<polygon fill="#63b8ff" stroke="#63b8ff" points="2279.61,-133.2 2288.93,-128.16 2278.5,-126.28 2279.61,-133.2"/>
</a>
</g>
</g>
<!-- Node14&#45;&gt;Node2 -->
<g id="edge15_Node000014_Node000002" class="edge">
<title>Node14&#45;&gt;Node2</title>
<g id="a_edge15_Node000014_Node000002"><a xlink:title=" ">
<path fill="none" stroke="#63b8ff" d="M243.7,-114.66C205.92,-109.1 146.83,-97.38 100.38,-74.5 75.85,-62.42 51.92,-41.8 36.72,-27.26"/>
<polygon fill="#63b8ff" stroke="#63b8ff" points="39.5,-25.09 29.92,-20.57 34.59,-30.08 39.5,-25.09"/>
</a>
</g>
</g>
<!-- Node15 -->
<g id="Node000015" class="node">
<title>Node15</title>
<g id="a_Node000015"><a xlink:title=" ">
<polygon fill="#e0e0e0" stroke="#999999" points="244.5,-19.25 196.25,-19.25 196.25,0 244.5,0 244.5,-19.25"/>
<text text-anchor="middle" x="220.38" y="-5.75" font-family="Helvetica,sans-Serif" font-size="10.00">cstdarg</text>
</a>
</g>
</g>
<!-- Node14&#45;&gt;Node15 -->
<g id="edge14_Node000014_Node000015" class="edge">
<title>Node14&#45;&gt;Node15</title>
<g id="a_edge14_Node000014_Node000015"><a xlink:title=" ">
<path fill="none" stroke="#63b8ff" d="M287.48,-110.29C295.57,-97.41 307.65,-73.08 297.38,-55.25 288.29,-39.48 271.26,-28.77 255.52,-21.81"/>
<polygon fill="#63b8ff" stroke="#63b8ff" points="256.93,-18.6 246.35,-18.13 254.33,-25.1 256.93,-18.6"/>
</a>
</g>
</g>
<!-- Node16 -->
<g id="Node000016" class="node">
<title>Node16</title>
<g id="a_Node000016"><a xlink:title=" ">
<polygon fill="#e0e0e0" stroke="#999999" points="288,-74.5 206.75,-74.5 206.75,-55.25 288,-55.25 288,-74.5"/>
<text text-anchor="middle" x="247.38" y="-61" font-family="Helvetica,sans-Serif" font-size="10.00">TFitResultPtr.h</text>
</a>
</g>
</g>
<!-- Node14&#45;&gt;Node16 -->
<g id="edge16_Node000014_Node000016" class="edge">
<title>Node14&#45;&gt;Node16</title>
<g id="a_edge16_Node000014_Node000016"><a xlink:title=" ">
<path fill="none" stroke="#63b8ff" d="M275.76,-110.33C271.26,-103.28 264.79,-93.15 259.16,-84.33"/>
<polygon fill="#63b8ff" stroke="#63b8ff" points="262.26,-82.68 253.93,-76.13 256.36,-86.45 262.26,-82.68"/>
</a>
</g>
</g>
<!-- Node17 -->
<g id="Node000017" class="node">
<title>Node17</title>
<g id="a_Node000017"><a xlink:title=" ">
<polygon fill="#e0e0e0" stroke="#999999" points="318.25,-19.25 262.5,-19.25 262.5,0 318.25,0 318.25,-19.25"/>
<text text-anchor="middle" x="290.38" y="-5.75" font-family="Helvetica,sans-Serif" font-size="10.00">TGraph.h</text>
</a>
</g>
</g>
<!-- Node14&#45;&gt;Node17 -->
<g id="edge17_Node000014_Node000017" class="edge">
<title>Node14&#45;&gt;Node17</title>
<g id="a_edge17_Node000014_Node000017"><a xlink:title=" ">
<path fill="none" stroke="#63b8ff" d="M296.5,-110.32C308.19,-102.56 323.49,-90.08 330.38,-74.5 337.92,-57.42 324.62,-39.53 311.37,-27.04"/>
<polygon fill="#63b8ff" stroke="#63b8ff" points="313.88,-24.58 304.03,-20.67 309.29,-29.87 313.88,-24.58"/>
</a>
</g>
</g>
<!-- Node18 -->
<g id="Node000018" class="node">
<title>Node18</title>
<g id="a_Node000018"><a xlink:href="_globals_8h.html" target="_top" xlink:title=" ">
<polygon fill="white" stroke="#666666" points="798.62,-74.5 742.12,-74.5 742.12,-55.25 798.62,-55.25 798.62,-74.5"/>
<text text-anchor="middle" x="770.38" y="-61" font-family="Helvetica,sans-Serif" font-size="10.00">Globals.h</text>
</a>
</g>
</g>
<!-- Node14&#45;&gt;Node18 -->
<g id="edge18_Node000014_Node000018" class="edge">
<title>Node14&#45;&gt;Node18</title>
<g id="a_edge18_Node000014_Node000018"><a xlink:title=" ">
<path fill="none" stroke="#63b8ff" d="M318.93,-115.03C409.24,-105.2 637.9,-80.3 730.51,-70.22"/>
<polygon fill="#63b8ff" stroke="#63b8ff" points="730.82,-73.7 740.38,-69.14 730.06,-66.74 730.82,-73.7"/>
</a>
</g>
</g>
<!-- Node14&#45;&gt;Node33 -->
<g id="edge33_Node000014_Node000033" class="edge">
<title>Node14&#45;&gt;Node33</title>
<g id="a_edge33_Node000014_Node000033"><a xlink:title=" ">
<path fill="none" stroke="#63b8ff" d="M253.77,-110.09C231.15,-101.68 199.52,-89.02 176.93,-79.4"/>
<polygon fill="#63b8ff" stroke="#63b8ff" points="178.61,-76.31 168.04,-75.55 175.83,-82.73 178.61,-76.31"/>
</a>
</g>
</g>
<!-- Node19 -->
<g id="Node000019" class="node">
<title>Node19</title>
<g id="a_Node000019"><a xlink:title=" ">
<polygon fill="#e0e0e0" stroke="#999999" points="1216.12,-19.25 1162.62,-19.25 1162.62,0 1216.12,0 1216.12,-19.25"/>
<text text-anchor="middle" x="1189.38" y="-5.75" font-family="Helvetica,sans-Serif" font-size="10.00">iostream</text>
</a>
</g>
</g>
<!-- Node18&#45;&gt;Node19 -->
<g id="edge19_Node000018_Node000019" class="edge">
<title>Node18&#45;&gt;Node19</title>
<g id="a_edge19_Node000018_Node000019"><a xlink:title=" ">
<path fill="none" stroke="#63b8ff" d="M798.99,-56.83C801.81,-56.25 804.64,-55.71 807.38,-55.25 956.7,-30.2 999.63,-45.12 1151.22,-19.59"/>
<polygon fill="#63b8ff" stroke="#63b8ff" points="1151.57,-23.08 1160.83,-17.94 1150.38,-16.19 1151.57,-23.08"/>
</a>
</g>
</g>
<!-- Node20 -->
<g id="Node000020" class="node">
<title>Node20</title>
<g id="a_Node000020"><a xlink:title=" ">
<polygon fill="#e0e0e0" stroke="#999999" points="733.25,-19.25 683.5,-19.25 683.5,0 733.25,0 733.25,-19.25"/>
<text text-anchor="middle" x="708.38" y="-5.75" font-family="Helvetica,sans-Serif" font-size="10.00">iomanip</text>
</a>
</g>
</g>
<!-- Node18&#45;&gt;Node20 -->
<g id="edge20_Node000018_Node000020" class="edge">
<title>Node18&#45;&gt;Node20</title>
<g id="a_edge20_Node000018_Node000020"><a xlink:title=" ">
<path fill="none" stroke="#63b8ff" d="M759.86,-54.84C750.99,-47.22 738.06,-36.12 727.39,-26.95"/>
<polygon fill="#63b8ff" stroke="#63b8ff" points="729.75,-24.37 719.89,-20.51 725.19,-29.68 729.75,-24.37"/>
</a>
</g>
</g>
<!-- Node21 -->
<g id="Node000021" class="node">
<title>Node21</title>
<g id="a_Node000021"><a xlink:title=" ">
<polygon fill="#e0e0e0" stroke="#999999" points="809.38,-19.25 751.38,-19.25 751.38,0 809.38,0 809.38,-19.25"/>
<text text-anchor="middle" x="780.38" y="-5.75" font-family="Helvetica,sans-Serif" font-size="10.00">stdexcept</text>
</a>
</g>
</g>
<!-- Node18&#45;&gt;Node21 -->
<g id="edge21_Node000018_Node000021" class="edge">
<title>Node18&#45;&gt;Node21</title>
<g id="a_edge21_Node000018_Node000021"><a xlink:title=" ">
<path fill="none" stroke="#63b8ff" d="M772.03,-55.08C773.26,-48.49 775.01,-39.21 776.58,-30.82"/>
<polygon fill="#63b8ff" stroke="#63b8ff" points="780,-31.57 778.41,-21.1 773.12,-30.28 780,-31.57"/>
</a>
</g>
</g>
<!-- Node22 -->
<g id="Node000022" class="node">
<title>Node22</title>
<g id="a_Node000022"><a xlink:title=" ">
<polygon fill="#e0e0e0" stroke="#999999" points="867.38,-19.25 827.38,-19.25 827.38,0 867.38,0 867.38,-19.25"/>
<text text-anchor="middle" x="847.38" y="-5.75" font-family="Helvetica,sans-Serif" font-size="10.00">string</text>
</a>
</g>
</g>
<!-- Node18&#45;&gt;Node22 -->
<g id="edge22_Node000018_Node000022" class="edge">
<title>Node18&#45;&gt;Node22</title>
<g id="a_edge22_Node000018_Node000022"><a xlink:title=" ">
<path fill="none" stroke="#63b8ff" d="M783.44,-54.84C794.83,-46.96 811.6,-35.36 825.11,-26.02"/>
<polygon fill="#63b8ff" stroke="#63b8ff" points="826.77,-29.13 833,-20.56 822.79,-23.37 826.77,-29.13"/>
</a>
</g>
</g>
<!-- Node23 -->
<g id="Node000023" class="node">
<title>Node23</title>
<g id="a_Node000023"><a xlink:title=" ">
<polygon fill="#e0e0e0" stroke="#999999" points="1276.5,-19.25 1234.25,-19.25 1234.25,0 1276.5,0 1276.5,-19.25"/>
<text text-anchor="middle" x="1255.38" y="-5.75" font-family="Helvetica,sans-Serif" font-size="10.00">cstdio</text>
</a>
</g>
</g>
<!-- Node18&#45;&gt;Node23 -->
<g id="edge23_Node000018_Node000023" class="edge">
<title>Node18&#45;&gt;Node23</title>
<g id="a_edge23_Node000018_Node000023"><a xlink:title=" ">
<path fill="none" stroke="#63b8ff" d="M798.98,-56.78C801.8,-56.21 804.64,-55.68 807.38,-55.25 987.94,-26.58 1040,-52.13 1222.78,-19.38"/>
<polygon fill="#63b8ff" stroke="#63b8ff" points="1223.17,-22.87 1232.38,-17.62 1221.91,-15.98 1223.17,-22.87"/>
</a>
</g>
</g>
<!-- Node24 -->
<g id="Node000024" class="node">
<title>Node24</title>
<g id="a_Node000024"><a xlink:title=" ">
<polygon fill="#e0e0e0" stroke="#999999" points="929.62,-19.25 885.12,-19.25 885.12,0 929.62,0 929.62,-19.25"/>
<text text-anchor="middle" x="907.38" y="-5.75" font-family="Helvetica,sans-Serif" font-size="10.00">cstdlib</text>
</a>
</g>
</g>
<!-- Node18&#45;&gt;Node24 -->
<g id="edge24_Node000018_Node000024" class="edge">
<title>Node18&#45;&gt;Node24</title>
<g id="a_edge24_Node000018_Node000024"><a xlink:title=" ">
<path fill="none" stroke="#63b8ff" d="M793.62,-54.84C815.83,-46.21 849.53,-33.11 874.49,-23.41"/>
<polygon fill="#63b8ff" stroke="#63b8ff" points="875.47,-26.78 883.52,-19.9 872.93,-20.26 875.47,-26.78"/>
</a>
</g>
</g>
<!-- Node25 -->
<g id="Node000025" class="node">
<title>Node25</title>
<g id="a_Node000025"><a xlink:title=" ">
<polygon fill="#e0e0e0" stroke="#999999" points="1007.12,-19.25 947.62,-19.25 947.62,0 1007.12,0 1007.12,-19.25"/>
<text text-anchor="middle" x="977.38" y="-5.75" font-family="Helvetica,sans-Serif" font-size="10.00">execinfo.h</text>
</a>
</g>
</g>
<!-- Node18&#45;&gt;Node25 -->
<g id="edge25_Node000018_Node000025" class="edge">
<title>Node18&#45;&gt;Node25</title>
<g id="a_edge25_Node000018_Node000025"><a xlink:title=" ">
<path fill="none" stroke="#63b8ff" d="M798.72,-56.58C834.35,-47.42 895.75,-31.62 936.46,-21.15"/>
<polygon fill="#63b8ff" stroke="#63b8ff" points="937.08,-24.6 945.89,-18.72 935.34,-17.83 937.08,-24.6"/>
</a>
</g>
</g>
<!-- Node26 -->
<g id="Node000026" class="node">
<title>Node26</title>
<g id="a_Node000026"><a xlink:title=" ">
<polygon fill="#e0e0e0" stroke="#999999" points="1075.62,-19.25 1025.12,-19.25 1025.12,0 1075.62,0 1075.62,-19.25"/>
<text text-anchor="middle" x="1050.38" y="-5.75" font-family="Helvetica,sans-Serif" font-size="10.00">cxxabi.h</text>
</a>
</g>
</g>
<!-- Node18&#45;&gt;Node26 -->
<g id="edge26_Node000018_Node000026" class="edge">
<title>Node18&#45;&gt;Node26</title>
<g id="a_edge26_Node000018_Node000026"><a xlink:title=" ">
<path fill="none" stroke="#63b8ff" d="M799.02,-57.02C801.84,-56.4 804.66,-55.8 807.38,-55.25 896.24,-37.26 922.22,-38.71 1013.63,-19.7"/>
<polygon fill="#63b8ff" stroke="#63b8ff" points="1014.26,-23.14 1023.32,-17.65 1012.82,-16.29 1014.26,-23.14"/>
</a>
</g>
</g>
<!-- Node27 -->
<g id="Node000027" class="node">
<title>Node27</title>
<g id="a_Node000027"><a xlink:title=" ">
<polygon fill="#e0e0e0" stroke="#999999" points="1145,-19.25 1093.75,-19.25 1093.75,0 1145,0 1145,-19.25"/>
<text text-anchor="middle" x="1119.38" y="-5.75" font-family="Helvetica,sans-Serif" font-size="10.00">sstream</text>
</a>
</g>
</g>
<!-- Node18&#45;&gt;Node27 -->
<g id="edge27_Node000018_Node000027" class="edge">
<title>Node18&#45;&gt;Node27</title>
<g id="a_edge27_Node000018_Node000027"><a xlink:title=" ">
<path fill="none" stroke="#63b8ff" d="M799,-56.91C801.82,-56.31 804.65,-55.74 807.38,-55.25 925.96,-33.78 960.36,-41.64 1082.18,-19.45"/>
<polygon fill="#63b8ff" stroke="#63b8ff" points="1082.77,-22.9 1091.96,-17.63 1081.49,-16.02 1082.77,-22.9"/>
</a>
</g>
</g>
<!-- Node28 -->
<g id="Node000028" class="node">
<title>Node28</title>
<g id="a_Node000028"><a xlink:title=" ">
<polygon fill="#e0e0e0" stroke="#999999" points="372.88,-19.25 335.88,-19.25 335.88,0 372.88,0 372.88,-19.25"/>
<text text-anchor="middle" x="354.38" y="-5.75" font-family="Helvetica,sans-Serif" font-size="10.00">array</text>
</a>
</g>
</g>
<!-- Node18&#45;&gt;Node28 -->
<g id="edge28_Node000018_Node000028" class="edge">
<title>Node18&#45;&gt;Node28</title>
<g id="a_edge28_Node000018_Node000028"><a xlink:title=" ">
<path fill="none" stroke="#63b8ff" d="M741.85,-62.4C678.96,-58.76 523.58,-47.68 384.49,-19.29"/>
<polygon fill="#63b8ff" stroke="#63b8ff" points="385.21,-15.87 374.71,-17.26 383.79,-22.72 385.21,-15.87"/>
</a>
</g>
</g>
<!-- Node29 -->
<g id="Node000029" class="node">
<title>Node29</title>
<g id="a_Node000029"><a xlink:title=" ">
<polygon fill="#e0e0e0" stroke="#999999" points="441.62,-19.25 391.12,-19.25 391.12,0 441.62,0 441.62,-19.25"/>
<text text-anchor="middle" x="416.38" y="-5.75" font-family="Helvetica,sans-Serif" font-size="10.00">memory</text>
</a>
</g>
</g>
<!-- Node18&#45;&gt;Node29 -->
<g id="edge29_Node000018_Node000029" class="edge">
<title>Node18&#45;&gt;Node29</title>
<g id="a_edge29_Node000018_Node000029"><a xlink:title=" ">
<path fill="none" stroke="#63b8ff" d="M741.95,-60.97C687.68,-55.21 565.38,-41.12 453.11,-19.6"/>
<polygon fill="#63b8ff" stroke="#63b8ff" points="453.9,-16.19 443.41,-17.72 452.56,-23.06 453.9,-16.19"/>
</a>
</g>
</g>
<!-- Node30 -->
<g id="Node000030" class="node">
<title>Node30</title>
<g id="a_Node000030"><a xlink:title=" ">
<polygon fill="#e0e0e0" stroke="#999999" points="509.25,-19.25 459.5,-19.25 459.5,0 509.25,0 509.25,-19.25"/>
<text text-anchor="middle" x="484.38" y="-5.75" font-family="Helvetica,sans-Serif" font-size="10.00">unistd.h</text>
</a>
</g>
</g>
<!-- Node18&#45;&gt;Node30 -->
<g id="edge30_Node000018_Node000030" class="edge">
<title>Node18&#45;&gt;Node30</title>
<g id="a_edge30_Node000018_Node000030"><a xlink:title=" ">
<path fill="none" stroke="#63b8ff" d="M741.9,-59.53C696.99,-52.53 606.75,-37.85 520.6,-19.6"/>
<polygon fill="#63b8ff" stroke="#63b8ff" points="521.57,-16.23 511.06,-17.55 520.1,-23.07 521.57,-16.23"/>
</a>
</g>
</g>
<!-- Node31 -->
<g id="Node000031" class="node">
<title>Node31</title>
<g id="a_Node000031"><a xlink:title=" ">
<polygon fill="#e0e0e0" stroke="#999999" points="587.12,-19.25 527.62,-19.25 527.62,0 587.12,0 587.12,-19.25"/>
<text text-anchor="middle" x="557.38" y="-5.75" font-family="Helvetica,sans-Serif" font-size="10.00">sys/wait.h</text>
</a>
</g>
</g>
<!-- Node18&#45;&gt;Node31 -->
<g id="edge31_Node000018_Node000031" class="edge">
<title>Node18&#45;&gt;Node31</title>
<g id="a_edge31_Node000018_Node000031"><a xlink:title=" ">
<path fill="none" stroke="#63b8ff" d="M741.65,-56.69C704.72,-47.46 640.37,-31.37 598.32,-20.86"/>
<polygon fill="#63b8ff" stroke="#63b8ff" points="599.38,-17.52 588.83,-18.49 597.68,-24.31 599.38,-17.52"/>
</a>
</g>
</g>
<!-- Node32 -->
<g id="Node000032" class="node">
<title>Node32</title>
<g id="a_Node000032"><a xlink:title=" ">
<polygon fill="#e0e0e0" stroke="#999999" points="665.5,-19.25 605.25,-19.25 605.25,0 665.5,0 665.5,-19.25"/>
<text text-anchor="middle" x="635.38" y="-5.75" font-family="Helvetica,sans-Serif" font-size="10.00">sys/prctl.h</text>
</a>
</g>
</g>
<!-- Node18&#45;&gt;Node32 -->
<g id="edge32_Node000018_Node000032" class="edge">
<title>Node18&#45;&gt;Node32</title>
<g id="a_edge32_Node000018_Node000032"><a xlink:title=" ">
<path fill="none" stroke="#63b8ff" d="M747.47,-54.84C725.95,-46.35 693.46,-33.54 669,-23.89"/>
<polygon fill="#63b8ff" stroke="#63b8ff" points="670.38,-20.67 659.8,-20.26 667.81,-27.18 670.38,-20.67"/>
</a>
</g>
</g>
<!-- Node33&#45;&gt;Node2 -->
<g id="edge37_Node000033_Node000002" class="edge">
<title>Node33&#45;&gt;Node2</title>
<g id="a_edge37_Node000033_Node000002"><a xlink:title=" ">
<path fill="none" stroke="#63b8ff" d="M127.49,-54.84C106.64,-46.23 75.04,-33.19 51.55,-23.5"/>
<polygon fill="#63b8ff" stroke="#63b8ff" points="53.06,-20.33 42.48,-19.75 50.39,-26.8 53.06,-20.33"/>
</a>
</g>
</g>
<!-- Node33&#45;&gt;Node14 -->
<g id="edge39_Node000033_Node000014" class="edge">
<title>Node33&#45;&gt;Node14</title>
<g id="a_edge39_Node000033_Node000014"><a xlink:title=" ">
<path fill="none" stroke="#63b8ff" d="M177.1,-74.95C199.75,-83.38 231.38,-96.04 253.93,-105.65"/>
<polygon fill="#63b8ff" stroke="#63b8ff" points="252.24,-108.73 262.81,-109.49 255.02,-102.31 252.24,-108.73"/>
</a>
</g>
</g>
<!-- Node33&#45;&gt;Node15 -->
<g id="edge35_Node000033_Node000015" class="edge">
<title>Node33&#45;&gt;Node15</title>
<g id="a_edge35_Node000033_Node000015"><a xlink:title=" ">
<path fill="none" stroke="#63b8ff" d="M161.42,-54.84C171.78,-47.07 186.98,-35.67 199.34,-26.4"/>
<polygon fill="#63b8ff" stroke="#63b8ff" points="201.4,-29.23 207.3,-20.43 197.2,-23.63 201.4,-29.23"/>
</a>
</g>
</g>
<!-- Node33&#45;&gt;Node17 -->
<g id="edge38_Node000033_Node000017" class="edge">
<title>Node33&#45;&gt;Node17</title>
<g id="a_edge38_Node000033_Node000017"><a xlink:title=" ">
<path fill="none" stroke="#63b8ff" d="M173.29,-54.84C195.88,-46.31 230.01,-33.42 255.6,-23.76"/>
<polygon fill="#63b8ff" stroke="#63b8ff" points="256.8,-27.04 264.92,-20.24 254.33,-20.5 256.8,-27.04"/>
</a>
</g>
</g>
<!-- Node34 -->
<g id="Node000034" class="node">
<title>Node34</title>
<g id="a_Node000034"><a xlink:title=" ">
<polygon fill="#e0e0e0" stroke="#999999" points="101.88,-19.25 58.88,-19.25 58.88,0 101.88,0 101.88,-19.25"/>
<text text-anchor="middle" x="80.38" y="-5.75" font-family="Helvetica,sans-Serif" font-size="10.00">vector</text>
</a>
</g>
</g>
<!-- Node33&#45;&gt;Node34 -->
<g id="edge34_Node000033_Node000034" class="edge">
<title>Node33&#45;&gt;Node34</title>
<g id="a_edge34_Node000033_Node000034"><a xlink:title=" ">
<path fill="none" stroke="#63b8ff" d="M137.67,-54.84C127.6,-47.07 112.83,-35.67 100.81,-26.4"/>
<polygon fill="#63b8ff" stroke="#63b8ff" points="103.16,-23.79 93.11,-20.45 98.88,-29.33 103.16,-23.79"/>
</a>
</g>
</g>
<!-- Node35 -->
<g id="Node000035" class="node">
<title>Node35</title>
<g id="a_Node000035"><a xlink:title=" ">
<polygon fill="#e0e0e0" stroke="#999999" points="178.38,-19.25 120.38,-19.25 120.38,0 178.38,0 178.38,-19.25"/>
<text text-anchor="middle" x="149.38" y="-5.75" font-family="Helvetica,sans-Serif" font-size="10.00">TObject.h</text>
</a>
</g>
</g>
<!-- Node33&#45;&gt;Node35 -->
<g id="edge36_Node000033_Node000035" class="edge">
<title>Node33&#45;&gt;Node35</title>
<g id="a_edge36_Node000033_Node000035"><a xlink:title=" ">
<path fill="none" stroke="#63b8ff" d="M149.38,-55.08C149.38,-48.57 149.38,-39.42 149.38,-31.12"/>
<polygon fill="#63b8ff" stroke="#63b8ff" points="152.88,-31.12 149.38,-21.12 145.88,-31.12 152.88,-31.12"/>
</a>
</g>
</g>
<!-- Node38&#45;&gt;Node19 -->
<g id="edge55_Node000038_Node000019" class="edge">
<title>Node38&#45;&gt;Node19</title>
<g id="a_edge55_Node000038_Node000019"><a xlink:title=" ">
<path fill="none" stroke="#63b8ff" d="M1140.84,-110.1C1156.43,-102.96 1175.5,-91.37 1185.38,-74.5 1193.03,-61.42 1193.66,-44.14 1192.59,-30.86"/>
<polygon fill="#63b8ff" stroke="#63b8ff" points="1196.08,-30.61 1191.38,-21.11 1189.13,-31.46 1196.08,-30.61"/>
</a>
</g>
</g>
<!-- Node38&#45;&gt;Node36 -->
<g id="edge52_Node000038_Node000036" class="edge">
<title>Node38&#45;&gt;Node36</title>
<g id="a_edge52_Node000038_Node000036"><a xlink:title=" ">
<path fill="none" stroke="#63b8ff" d="M1083.93,-114.4C1038.24,-107.51 952.18,-93.67 869.98,-74.92"/>
<polygon fill="#63b8ff" stroke="#63b8ff" points="870.94,-71.55 860.41,-72.7 869.36,-78.37 870.94,-71.55"/>
</a>
</g>
</g>
<!-- Node39 -->
<g id="Node000039" class="node">
<title>Node39</title>
<g id="a_Node000039"><a xlink:href="_g_h2_base_8h.html" target="_top" xlink:title=" ">
<polygon fill="white" stroke="#666666" points="1298.5,-74.5 1232.25,-74.5 1232.25,-55.25 1298.5,-55.25 1298.5,-74.5"/>
<text text-anchor="middle" x="1265.38" y="-61" font-family="Helvetica,sans-Serif" font-size="10.00">GH2Base.h</text>
</a>
</g>
</g>
<!-- Node38&#45;&gt;Node39 -->
<g id="edge44_Node000038_Node000039" class="edge">
<title>Node38&#45;&gt;Node39</title>
<g id="a_edge44_Node000038_Node000039"><a xlink:title=" ">
<path fill="none" stroke="#63b8ff" d="M1141.65,-110.09C1165.73,-101.49 1202.23,-88.44 1229.36,-78.75"/>
<polygon fill="#63b8ff" stroke="#63b8ff" points="1230.31,-82.12 1238.55,-75.46 1227.96,-75.53 1230.31,-82.12"/>
</a>
</g>
</g>
<!-- Node42 -->
<g id="Node000042" class="node">
<title>Node42</title>
<g id="a_Node000042"><a xlink:title=" ">
<polygon fill="#e0e0e0" stroke="#999999" points="1374,-74.5 1316.75,-74.5 1316.75,-55.25 1374,-55.25 1374,-74.5"/>
<text text-anchor="middle" x="1345.38" y="-61" font-family="Helvetica,sans-Serif" font-size="10.00">TROOT.h</text>
</a>
</g>
</g>
<!-- Node38&#45;&gt;Node42 -->
<g id="edge49_Node000038_Node000042" class="edge">
<title>Node38&#45;&gt;Node42</title>
<g id="a_edge49_Node000038_Node000042"><a xlink:title=" ">
<path fill="none" stroke="#63b8ff" d="M1148.7,-111.61C1189.87,-102.04 1261,-85.5 1305.49,-75.15"/>
<polygon fill="#63b8ff" stroke="#63b8ff" points="1306.05,-78.61 1315,-72.94 1304.46,-71.79 1306.05,-78.61"/>
</a>
</g>
</g>
<!-- Node43 -->
<g id="Node000043" class="node">
<title>Node43</title>
<g id="a_Node000043"><a xlink:title=" ">
<polygon fill="#e0e0e0" stroke="#999999" points="938.62,-74.5 876.12,-74.5 876.12,-55.25 938.62,-55.25 938.62,-74.5"/>
<text text-anchor="middle" x="907.38" y="-61" font-family="Helvetica,sans-Serif" font-size="10.00">TCanvas.h</text>
</a>
</g>
</g>
<!-- Node38&#45;&gt;Node43 -->
<g id="edge50_Node000038_Node000043" class="edge">
<title>Node38&#45;&gt;Node43</title>
<g id="a_edge50_Node000038_Node000043"><a xlink:title=" ">
<path fill="none" stroke="#63b8ff" d="M1084.18,-110.92C1048.14,-101.74 989.62,-86.83 949.86,-76.7"/>
<polygon fill="#63b8ff" stroke="#63b8ff" points="950.95,-73.36 940.39,-74.29 949.22,-80.15 950.95,-73.36"/>
</a>
</g>
</g>
<!-- Node44 -->
<g id="Node000044" class="node">
<title>Node44</title>
<g id="a_Node000044"><a xlink:title=" ">
<polygon fill="#e0e0e0" stroke="#999999" points="1039.75,-74.5 957,-74.5 957,-55.25 1039.75,-55.25 1039.75,-74.5"/>
<text text-anchor="middle" x="998.38" y="-61" font-family="Helvetica,sans-Serif" font-size="10.00">TRootCanvas.h</text>
</a>
</g>
</g>
<!-- Node38&#45;&gt;Node44 -->
<g id="edge51_Node000038_Node000044" class="edge">
<title>Node38&#45;&gt;Node44</title>
<g id="a_edge51_Node000038_Node000044"><a xlink:title=" ">
<path fill="none" stroke="#63b8ff" d="M1096.36,-110.09C1077.88,-101.75 1050.17,-89.25 1028.93,-79.66"/>
<polygon fill="#63b8ff" stroke="#63b8ff" points="1030.42,-76.5 1019.87,-75.58 1027.55,-82.88 1030.42,-76.5"/>
</a>
</g>
</g>
<!-- Node45 -->
<g id="Node000045" class="node">
<title>Node45</title>
<g id="a_Node000045"><a xlink:title=" ">
<polygon fill="#e0e0e0" stroke="#999999" points="1106.5,-74.5 1058.25,-74.5 1058.25,-55.25 1106.5,-55.25 1106.5,-74.5"/>
<text text-anchor="middle" x="1082.38" y="-61" font-family="Helvetica,sans-Serif" font-size="10.00">TLine.h</text>
</a>
</g>
</g>
<!-- Node38&#45;&gt;Node45 -->
<g id="edge53_Node000038_Node000045" class="edge">
<title>Node38&#45;&gt;Node45</title>
<g id="a_edge53_Node000038_Node000045"><a xlink:title=" ">
<path fill="none" stroke="#63b8ff" d="M1110.76,-110.33C1106.26,-103.28 1099.79,-93.15 1094.16,-84.33"/>
<polygon fill="#63b8ff" stroke="#63b8ff" points="1097.26,-82.68 1088.93,-76.13 1091.36,-86.45 1097.26,-82.68"/>
</a>
</g>
</g>
<!-- Node46 -->
<g id="Node000046" class="node">
<title>Node46</title>
<g id="a_Node000046"><a xlink:title=" ">
<polygon fill="#e0e0e0" stroke="#999999" points="1176.38,-74.5 1124.38,-74.5 1124.38,-55.25 1176.38,-55.25 1176.38,-74.5"/>
<text text-anchor="middle" x="1150.38" y="-61" font-family="Helvetica,sans-Serif" font-size="10.00">TCutG.h</text>
</a>
</g>
</g>
<!-- Node38&#45;&gt;Node46 -->
<g id="edge54_Node000038_Node000046" class="edge">
<title>Node38&#45;&gt;Node46</title>
<g id="a_edge54_Node000038_Node000046"><a xlink:title=" ">
<path fill="none" stroke="#63b8ff" d="M1121.99,-110.33C1126.49,-103.28 1132.96,-93.15 1138.59,-84.33"/>
<polygon fill="#63b8ff" stroke="#63b8ff" points="1141.39,-86.45 1143.82,-76.13 1135.49,-82.68 1141.39,-86.45"/>
</a>
</g>
</g>
<!-- Node39&#45;&gt;Node23 -->
<g id="edge45_Node000039_Node000023" class="edge">
<title>Node39&#45;&gt;Node23</title>
<g id="a_edge45_Node000039_Node000023"><a xlink:title=" ">
<path fill="none" stroke="#63b8ff" d="M1263.72,-55.08C1262.49,-48.49 1260.74,-39.21 1259.17,-30.82"/>
<polygon fill="#63b8ff" stroke="#63b8ff" points="1262.63,-30.28 1257.34,-21.1 1255.75,-31.57 1262.63,-30.28"/>
</a>
</g>
</g>
<!-- Node39&#45;&gt;Node37 -->
<g id="edge47_Node000039_Node000037" class="edge">
<title>Node39&#45;&gt;Node37</title>
<g id="a_edge47_Node000039_Node000037"><a xlink:title=" ">
<path fill="none" stroke="#63b8ff" d="M1298.71,-54.95C1329.6,-46.65 1377.13,-33.8 1426.79,-19.95"/>
<polygon fill="#63b8ff" stroke="#63b8ff" points="1427.61,-23.35 1436.3,-17.29 1425.72,-16.61 1427.61,-23.35"/>
</a>
</g>
</g>
<!-- Node40 -->
<g id="Node000040" class="node">
<title>Node40</title>
<g id="a_Node000040"><a xlink:title=" ">
<polygon fill="#e0e0e0" stroke="#999999" points="1355.88,-19.25 1294.88,-19.25 1294.88,0 1355.88,0 1355.88,-19.25"/>
<text text-anchor="middle" x="1325.38" y="-5.75" font-family="Helvetica,sans-Serif" font-size="10.00">TNamed.h</text>
</a>
</g>
</g>
<!-- Node39&#45;&gt;Node40 -->
<g id="edge46_Node000039_Node000040" class="edge">
<title>Node39&#45;&gt;Node40</title>
<g id="a_edge46_Node000039_Node000040"><a xlink:title=" ">
<path fill="none" stroke="#63b8ff" d="M1275.55,-54.84C1284.14,-47.22 1296.64,-36.12 1306.98,-26.95"/>
<polygon fill="#63b8ff" stroke="#63b8ff" points="1309.06,-29.79 1314.22,-20.53 1304.41,-24.55 1309.06,-29.79"/>
</a>
</g>
</g>
<!-- Node41 -->
<g id="Node000041" class="node">
<title>Node41</title>
<g id="a_Node000041"><a xlink:title=" ">
<polygon fill="#e0e0e0" stroke="#999999" points="1420.38,-19.25 1374.38,-19.25 1374.38,0 1420.38,0 1420.38,-19.25"/>
<text text-anchor="middle" x="1397.38" y="-5.75" font-family="Helvetica,sans-Serif" font-size="10.00">TList.h</text>
</a>
</g>
</g>
<!-- Node39&#45;&gt;Node41 -->
<g id="edge48_Node000039_Node000041" class="edge">
<title>Node39&#45;&gt;Node41</title>
<g id="a_edge48_Node000039_Node000041"><a xlink:title=" ">
<path fill="none" stroke="#63b8ff" d="M1287.77,-54.84C1308.82,-46.35 1340.58,-33.54 1364.5,-23.89"/>
<polygon fill="#63b8ff" stroke="#63b8ff" points="1365.51,-27.26 1373.47,-20.27 1362.89,-20.76 1365.51,-27.26"/>
</a>
</g>
</g>
</g>
</svg>

<g id="navigator" transform="translate(0 0)" fill="#404254">
  <rect fill="#f2f5e9" fill-opacity="0.5" stroke="#606060" stroke-width=".5" x="0" y="0" width="60" height="60"/>
  <use id="zoomplus" xlink:href="#zoomPlus" x="17" y="9" onmousedown="handleZoom(evt,'in')"/>
  <use id="zoomminus" xlink:href="#zoomMin" x="42" y="9" onmousedown="handleZoom(evt,'out')"/>
  <use id="reset" xlink:href="#resetDef" x="30" y="36" onmousedown="handleReset()"/>
   <use id="arrowup" xlink:href="#arrowUp" x="0" y="0" onmousedown="handlePan(0,-1)"/>
  <use id="arrowright" xlink:href="#arrowRight" x="0" y="0" onmousedown="handlePan(1,0)"/>
  <use id="arrowdown" xlink:href="#arrowDown" x="0" y="0" onmousedown="handlePan(0,1)"/>
  <use id="arrowleft" xlink:href="#arrowLeft" x="0" y="0" onmousedown="handlePan(-1,0)"/>
</g>
<svg viewBox="0 0 15 15" width="100%" height="30px" preserveAspectRatio="xMaxYMin meet">
 <g id="arrow_out" transform="scale(0.3 0.3)">
  <a xlink:href="_t_b_g_subtraction_8h__incl_org.svg" target="_base">
   <rect id="button" ry="5" rx="5" y="6" x="6" height="38" width="38"
        fill="#f2f5e9" fill-opacity="0.5" stroke="#606060" stroke-width="1.0"/>
   <path id="arrow"
     d="M 11.500037,31.436501 C 11.940474,20.09759 22.043105,11.32322 32.158766,21.979434 L 37.068811,17.246167 C 37.068811,17.246167 37.088388,32 37.088388,32 L 22.160133,31.978069 C 22.160133,31.978069 26.997745,27.140456 26.997745,27.140456 C 18.528582,18.264221 13.291696,25.230495 11.500037,31.436501 z"
     style="fill:#404040;"/>
  </a>
 </g>
</svg>

<style type='text/css'>
<![CDATA[
[data-mouse-over-selected='false'] { opacity: 0.7; }
[data-mouse-over-selected='true']  { opacity: 1.0; }
]]>
</style>
<script type="application/ecmascript"><![CDATA[
document.addEventListener('DOMContentLoaded', (event) => {
  highlightEdges();
  highlightAdjacentNodes();
});
]]></script>
</svg>
