<?xml version="1.0" encoding="UTF-8" standalone="no"?>
<!DOCTYPE svg PUBLIC "-//W3C//DTD SVG 1.1//EN"
 "http://www.w3.org/Graphics/SVG/1.1/DTD/svg11.dtd">
<!-- Generated by graphviz version 12.2.0 (20241103.1931)
 -->
<!-- Title: TBgoHit.h Pages: 1 -->
<!--zoomable 359 -->

<svg id="main" version="1.1" xmlns="http://www.w3.org/2000/svg" xmlns:xlink="http://www.w3.org/1999/xlink" xml:space="preserve" onload="init(evt)">

<style type="text/css"><![CDATA[
.node, .edge {opacity: 0.7;}
.node.selected, .edge.selected {opacity: 1;}
.edge:hover path { stroke: red; }
.edge:hover polygon { stroke: red; fill: red; }
]]></style>

<defs>
  <circle id="rim" cx="0" cy="0" r="7"/>
  <circle id="rim2" cx="0" cy="0" r="3.5"/>
  <g id="zoomPlus">
    <use xlink:href="#rim" fill="#404040"><set attributeName="fill" to="#808080" begin="zoomplus.mouseover" end="zoomplus.mouseout"/></use>
    <path d="M-4,0h8M0,-4v8" fill="none" stroke="white" stroke-width="1.5" pointer-events="none"/>
  </g>
  <g id="zoomMin">
    <use xlink:href="#rim" fill="#404040"><set attributeName="fill" to="#808080" begin="zoomminus.mouseover" end="zoomminus.mouseout"/></use>
    <path d="M-4,0h8" fill="none" stroke="white" stroke-width="1.5" pointer-events="none"/>
  </g>
  <g id="arrowUp" transform="translate(30 24)">
    <use xlink:href="#rim"/>
    <path pointer-events="none" fill="none" stroke="white" stroke-width="1.5" d="M0,-3.0v7 M-2.5,-0.5L0,-3.0L2.5,-0.5"/>
  </g>
  <g id="arrowRight" transform="rotate(90) translate(36 -43)">
    <use xlink:href="#rim"/>
    <path pointer-events="none" fill="none" stroke="white" stroke-width="1.5" d="M0,-3.0v7 M-2.5,-0.5L0,-3.0L2.5,-0.5"/>
  </g>
  <g id="arrowDown" transform="rotate(180) translate(-30 -48)">
    <use xlink:href="#rim"/>
    <path pointer-events="none" fill="none" stroke="white" stroke-width="1.5" d="M0,-3.0v7 M-2.5,-0.5L0,-3.0L2.5,-0.5"/>
  </g>
  <g id="arrowLeft" transform="rotate(270) translate(-36 17)">
    <use xlink:href="#rim"/>
    <path pointer-events="none" fill="none" stroke="white" stroke-width="1.5" d="M0,-3.0v7 M-2.5,-0.5L0,-3.0L2.5,-0.5"/>
  </g>
  <g id="resetDef">
    <use xlink:href="#rim2" fill="#404040"><set attributeName="fill" to="#808080" begin="reset.mouseover" end="reset.mouseout"/></use>
  </g>
</defs>
<script type="application/ecmascript">
var viewWidth = 1348;
var viewHeight = 359;
var sectionId = 'dynsection-0';
</script>
<script type="application/ecmascript" xlink:href="svg.min.js"/>
<svg id="graph" class="graph">
<g id="viewport">
<title>TBgoHit.h</title>
<!-- Node1 -->
<g id="Node000001" class="node">
<title>Node1</title>
<g id="a_Node000001"><a xlink:title=" ">
<polygon fill="#999999" stroke="#666666" points="634.75,-350.75 575.25,-350.75 575.25,-331.5 634.75,-331.5 634.75,-350.75"/>
<text text-anchor="middle" x="605" y="-337.25" font-family="Helvetica,sans-Serif" font-size="10.00">TBgoHit.h</text>
</a>
</g>
</g>
<!-- Node2 -->
<g id="Node000002" class="node">
<title>Node2</title>
<g id="a_Node000002"><a xlink:title=" ">
<polygon fill="#e0e0e0" stroke="#999999" points="155.12,-19.25 112.88,-19.25 112.88,0 155.12,0 155.12,-19.25"/>
<text text-anchor="middle" x="134" y="-5.75" font-family="Helvetica,sans-Serif" font-size="10.00">cstdio</text>
</a>
</g>
</g>
<!-- Node1&#45;&gt;Node2 -->
<g id="edge1_Node000001_Node000002" class="edge">
<title>Node1&#45;&gt;Node2</title>
<g id="a_edge1_Node000001_Node000002"><a xlink:title=" ">
<path fill="none" stroke="#63b8ff" d="M575,-337.96C452.92,-328.78 0,-290.72 0,-231.62 0,-231.62 0,-231.62 0,-119.12 0,-66.98 62.06,-35.56 101.71,-20.8"/>
<polygon fill="#63b8ff" stroke="#63b8ff" points="102.78,-24.14 111.04,-17.5 100.45,-17.54 102.78,-24.14"/>
</a>
</g>
</g>
<!-- Node3 -->
<g id="Node000003" class="node">
<title>Node3</title>
<g id="a_Node000003"><a xlink:title=" ">
<polygon fill="#e0e0e0" stroke="#999999" points="71.5,-129.75 28.5,-129.75 28.5,-110.5 71.5,-110.5 71.5,-129.75"/>
<text text-anchor="middle" x="50" y="-116.25" font-family="Helvetica,sans-Serif" font-size="10.00">cmath</text>
</a>
</g>
</g>
<!-- Node1&#45;&gt;Node3 -->
<g id="edge2_Node000001_Node000003" class="edge">
<title>Node1&#45;&gt;Node3</title>
<g id="a_edge2_Node000001_Node000003"><a xlink:title=" ">
<path fill="none" stroke="#63b8ff" d="M582.21,-331.13C495.21,-296.8 183.84,-173.94 82.28,-133.86"/>
<polygon fill="#63b8ff" stroke="#63b8ff" points="83.76,-130.68 73.18,-130.27 81.19,-137.2 83.76,-130.68"/>
</a>
</g>
</g>
<!-- Node4 -->
<g id="Node000004" class="node">
<title>Node4</title>
<g id="a_Node000004"><a xlink:href="_t_fragment_8h.html" target="_top" xlink:title=" ">
<polygon fill="white" stroke="#666666" points="1031.38,-295.5 960.62,-295.5 960.62,-276.25 1031.38,-276.25 1031.38,-295.5"/>
<text text-anchor="middle" x="996" y="-282" font-family="Helvetica,sans-Serif" font-size="10.00">TFragment.h</text>
</a>
</g>
</g>
<!-- Node1&#45;&gt;Node4 -->
<g id="edge3_Node000001_Node000004" class="edge">
<title>Node1&#45;&gt;Node4</title>
<g id="a_edge3_Node000001_Node000004"><a xlink:title=" ">
<path fill="none" stroke="#63b8ff" d="M635.03,-336.03C702.7,-326.82 867.5,-304.37 948.91,-293.29"/>
<polygon fill="#63b8ff" stroke="#63b8ff" points="949.36,-296.76 958.79,-291.94 948.41,-289.82 949.36,-296.76"/>
</a>
</g>
</g>
<!-- Node5 -->
<g id="Node000005" class="node">
<title>Node5</title>
<g id="a_Node000005"><a xlink:href="_t_detector_hit_8h.html" target="_top" xlink:title=" ">
<polygon fill="white" stroke="#666666" points="930.5,-240.25 851.5,-240.25 851.5,-221 930.5,-221 930.5,-240.25"/>
<text text-anchor="middle" x="891" y="-226.75" font-family="Helvetica,sans-Serif" font-size="10.00">TDetectorHit.h</text>
</a>
</g>
</g>
<!-- Node1&#45;&gt;Node5 -->
<g id="edge61_Node000001_Node000005" class="edge">
<title>Node1&#45;&gt;Node5</title>
<g id="a_edge61_Node000001_Node000005"><a xlink:title=" ">
<path fill="none" stroke="#63b8ff" d="M628.89,-331.06C679.47,-311.87 797.52,-267.09 856.37,-244.76"/>
<polygon fill="#63b8ff" stroke="#63b8ff" points="857.45,-248.1 865.56,-241.28 854.97,-241.55 857.45,-248.1"/>
</a>
</g>
</g>
<!-- Node4&#45;&gt;Node5 -->
<g id="edge4_Node000004_Node000005" class="edge">
<title>Node4&#45;&gt;Node5</title>
<g id="a_edge4_Node000004_Node000005"><a xlink:title=" ">
<path fill="none" stroke="#63b8ff" d="M978.19,-275.84C961.97,-267.62 937.76,-255.34 918.97,-245.81"/>
<polygon fill="#63b8ff" stroke="#63b8ff" points="920.75,-242.79 910.25,-241.39 917.58,-249.03 920.75,-242.79"/>
</a>
</g>
</g>
<!-- Node6 -->
<g id="Node000006" class="node">
<title>Node6</title>
<g id="a_Node000006"><a xlink:title=" ">
<polygon fill="#e0e0e0" stroke="#999999" points="669.5,-74.5 626.5,-74.5 626.5,-55.25 669.5,-55.25 669.5,-74.5"/>
<text text-anchor="middle" x="648" y="-61" font-family="Helvetica,sans-Serif" font-size="10.00">vector</text>
</a>
</g>
</g>
<!-- Node4&#45;&gt;Node6 -->
<g id="edge58_Node000004_Node000006" class="edge">
<title>Node4&#45;&gt;Node6</title>
<g id="a_edge58_Node000004_Node000006"><a xlink:title=" ">
<path fill="none" stroke="#63b8ff" d="M960.3,-276.84C928.8,-269.19 881.96,-256.46 843,-240.25 796.12,-220.74 785.84,-212.26 743,-185 707.77,-162.58 691.12,-163.84 667,-129.75 657.89,-116.87 653.09,-99.58 650.6,-86.24"/>
<polygon fill="#63b8ff" stroke="#63b8ff" points="654.07,-85.77 649.08,-76.42 647.15,-86.84 654.07,-85.77"/>
</a>
</g>
</g>
<!-- Node19 -->
<g id="Node000019" class="node">
<title>Node19</title>
<g id="a_Node000019"><a xlink:title=" ">
<polygon fill="#e0e0e0" stroke="#999999" points="1311.75,-185 1258.25,-185 1258.25,-165.75 1311.75,-165.75 1311.75,-185"/>
<text text-anchor="middle" x="1285" y="-171.5" font-family="Helvetica,sans-Serif" font-size="10.00">Rtypes.h</text>
</a>
</g>
</g>
<!-- Node4&#45;&gt;Node19 -->
<g id="edge60_Node000004_Node000019" class="edge">
<title>Node4&#45;&gt;Node19</title>
<g id="a_edge60_Node000004_Node000019"><a xlink:title=" ">
<path fill="none" stroke="#63b8ff" d="M1020.14,-275.81C1071.25,-256.62 1190.54,-211.84 1250,-189.51"/>
<polygon fill="#63b8ff" stroke="#63b8ff" points="1251.17,-192.81 1259.31,-186.02 1248.71,-186.26 1251.17,-192.81"/>
</a>
</g>
</g>
<!-- Node21 -->
<g id="Node000021" class="node">
<title>Node21</title>
<g id="a_Node000021"><a xlink:href="_t_p_p_g_8h.html" target="_top" xlink:title=" ">
<polygon fill="white" stroke="#666666" points="1090.25,-185 1039.75,-185 1039.75,-165.75 1090.25,-165.75 1090.25,-185"/>
<text text-anchor="middle" x="1065" y="-171.5" font-family="Helvetica,sans-Serif" font-size="10.00">TPPG.h</text>
</a>
</g>
</g>
<!-- Node4&#45;&gt;Node21 -->
<g id="edge56_Node000004_Node000021" class="edge">
<title>Node4&#45;&gt;Node21</title>
<g id="a_edge56_Node000004_Node000021"><a xlink:title=" ">
<path fill="none" stroke="#63b8ff" d="M1001.82,-276.01C1007.71,-267.03 1017.05,-252.71 1025,-240.25 1034.79,-224.91 1045.74,-207.39 1053.71,-194.58"/>
<polygon fill="#63b8ff" stroke="#63b8ff" points="1056.51,-196.71 1058.81,-186.37 1050.56,-193.02 1056.51,-196.71"/>
</a>
</g>
</g>
<!-- Node23 -->
<g id="Node000023" class="node">
<title>Node23</title>
<g id="a_Node000023"><a xlink:title=" ">
<polygon fill="#e0e0e0" stroke="#999999" points="1252.75,-19.25 1199.25,-19.25 1199.25,0 1252.75,0 1252.75,-19.25"/>
<text text-anchor="middle" x="1226" y="-5.75" font-family="Helvetica,sans-Serif" font-size="10.00">iostream</text>
</a>
</g>
</g>
<!-- Node4&#45;&gt;Node23 -->
<g id="edge57_Node000004_Node000023" class="edge">
<title>Node4&#45;&gt;Node23</title>
<g id="a_edge57_Node000004_Node000023"><a xlink:title=" ">
<path fill="none" stroke="#63b8ff" d="M1031.84,-281.28C1119.95,-271.45 1340,-240.48 1340,-176.38 1340,-176.38 1340,-176.38 1340,-119.12 1340,-89.51 1340.31,-77.7 1321,-55.25 1306.23,-38.08 1283.41,-27.06 1263.83,-20.27"/>
<polygon fill="#63b8ff" stroke="#63b8ff" points="1265.1,-17 1254.51,-17.29 1262.97,-23.67 1265.1,-17"/>
</a>
</g>
</g>
<!-- Node45 -->
<g id="Node000045" class="node">
<title>Node45</title>
<g id="a_Node000045"><a xlink:title=" ">
<polygon fill="#e0e0e0" stroke="#999999" points="1016,-240.25 976,-240.25 976,-221 1016,-221 1016,-240.25"/>
<text text-anchor="middle" x="996" y="-226.75" font-family="Helvetica,sans-Serif" font-size="10.00">ctime</text>
</a>
</g>
</g>
<!-- Node4&#45;&gt;Node45 -->
<g id="edge59_Node000004_Node000045" class="edge">
<title>Node4&#45;&gt;Node45</title>
<g id="a_edge59_Node000004_Node000045"><a xlink:title=" ">
<path fill="none" stroke="#63b8ff" d="M996,-276.08C996,-269.57 996,-260.42 996,-252.12"/>
<polygon fill="#63b8ff" stroke="#63b8ff" points="999.5,-252.12 996,-242.12 992.5,-252.12 999.5,-252.12"/>
</a>
</g>
</g>
<!-- Node5&#45;&gt;Node6 -->
<g id="edge5_Node000005_Node000006" class="edge">
<title>Node5&#45;&gt;Node6</title>
<g id="a_edge5_Node000005_Node000006"><a xlink:title=" ">
<path fill="none" stroke="#63b8ff" d="M851.25,-224.05C823.26,-218.35 786.41,-207.06 761,-185 732.93,-160.63 748.41,-137.62 723,-110.5 711,-97.69 694.49,-87.33 680.02,-79.83"/>
<polygon fill="#63b8ff" stroke="#63b8ff" points="681.82,-76.81 671.3,-75.55 678.73,-83.1 681.82,-76.81"/>
</a>
</g>
</g>
<!-- Node7 -->
<g id="Node000007" class="node">
<title>Node7</title>
<g id="a_Node000007"><a xlink:href="_t_channel_8h.html" target="_top" xlink:title=" ">
<polygon fill="white" stroke="#666666" points="399.38,-185 334.62,-185 334.62,-165.75 399.38,-165.75 399.38,-185"/>
<text text-anchor="middle" x="367" y="-171.5" font-family="Helvetica,sans-Serif" font-size="10.00">TChannel.h</text>
</a>
</g>
</g>
<!-- Node5&#45;&gt;Node7 -->
<g id="edge6_Node000005_Node000007" class="edge">
<title>Node5&#45;&gt;Node7</title>
<g id="a_edge6_Node000005_Node000007"><a xlink:title=" ">
<path fill="none" stroke="#63b8ff" d="M851.18,-225.58C755.15,-215.82 511.35,-191.04 411.09,-180.86"/>
<polygon fill="#63b8ff" stroke="#63b8ff" points="411.68,-177.4 401.38,-179.87 410.97,-184.36 411.68,-177.4"/>
</a>
</g>
</g>
<!-- Node17 -->
<g id="Node000017" class="node">
<title>Node17</title>
<g id="a_Node000017"><a xlink:title=" ">
<polygon fill="#e0e0e0" stroke="#999999" points="833.62,-185 770.38,-185 770.38,-165.75 833.62,-165.75 833.62,-185"/>
<text text-anchor="middle" x="802" y="-171.5" font-family="Helvetica,sans-Serif" font-size="10.00">TVector3.h</text>
</a>
</g>
</g>
<!-- Node5&#45;&gt;Node17 -->
<g id="edge19_Node000005_Node000017" class="edge">
<title>Node5&#45;&gt;Node17</title>
<g id="a_edge19_Node000005_Node000017"><a xlink:title=" ">
<path fill="none" stroke="#63b8ff" d="M875.9,-220.59C862.48,-212.56 842.59,-200.66 826.83,-191.23"/>
<polygon fill="#63b8ff" stroke="#63b8ff" points="828.85,-188.36 818.47,-186.23 825.25,-194.37 828.85,-188.36"/>
</a>
</g>
</g>
<!-- Node18 -->
<g id="Node000018" class="node">
<title>Node18</title>
<g id="a_Node000018"><a xlink:title=" ">
<polygon fill="#e0e0e0" stroke="#999999" points="1312,-74.5 1254,-74.5 1254,-55.25 1312,-55.25 1312,-74.5"/>
<text text-anchor="middle" x="1283" y="-61" font-family="Helvetica,sans-Serif" font-size="10.00">TObject.h</text>
</a>
</g>
</g>
<!-- Node5&#45;&gt;Node18 -->
<g id="edge20_Node000005_Node000018" class="edge">
<title>Node5&#45;&gt;Node18</title>
<g id="a_edge20_Node000005_Node000018"><a xlink:title=" ">
<path fill="none" stroke="#63b8ff" d="M930.62,-223.22C972.85,-215.91 1041.44,-202.64 1099,-185 1161.77,-165.77 1184.13,-170 1236,-129.75 1251.78,-117.51 1264.76,-98.64 1273.06,-84.58"/>
<polygon fill="#63b8ff" stroke="#63b8ff" points="1275.87,-86.71 1277.71,-76.27 1269.77,-83.28 1275.87,-86.71"/>
</a>
</g>
</g>
<!-- Node5&#45;&gt;Node19 -->
<g id="edge21_Node000005_Node000019" class="edge">
<title>Node5&#45;&gt;Node19</title>
<g id="a_edge21_Node000005_Node000019"><a xlink:title=" ">
<path fill="none" stroke="#63b8ff" d="M930.85,-225C1009.99,-215.76 1184.45,-195.01 1244,-185 1245,-184.83 1246.02,-184.66 1247.05,-184.47"/>
<polygon fill="#63b8ff" stroke="#63b8ff" points="1247.5,-187.95 1256.67,-182.63 1246.19,-181.07 1247.5,-187.95"/>
</a>
</g>
</g>
<!-- Node20 -->
<g id="Node000020" class="node">
<title>Node20</title>
<g id="a_Node000020"><a xlink:title=" ">
<polygon fill="#e0e0e0" stroke="#999999" points="916.75,-185 851.25,-185 851.25,-165.75 916.75,-165.75 916.75,-185"/>
<text text-anchor="middle" x="884" y="-171.5" font-family="Helvetica,sans-Serif" font-size="10.00">TRandom.h</text>
</a>
</g>
</g>
<!-- Node5&#45;&gt;Node20 -->
<g id="edge22_Node000005_Node000020" class="edge">
<title>Node5&#45;&gt;Node20</title>
<g id="a_edge22_Node000005_Node000020"><a xlink:title=" ">
<path fill="none" stroke="#63b8ff" d="M889.84,-220.83C888.98,-214.24 887.76,-204.96 886.66,-196.57"/>
<polygon fill="#63b8ff" stroke="#63b8ff" points="890.15,-196.32 885.38,-186.86 883.21,-197.23 890.15,-196.32"/>
</a>
</g>
</g>
<!-- Node5&#45;&gt;Node21 -->
<g id="edge23_Node000005_Node000021" class="edge">
<title>Node5&#45;&gt;Node21</title>
<g id="a_edge23_Node000005_Node000021"><a xlink:title=" ">
<path fill="none" stroke="#63b8ff" d="M920.52,-220.59C950.35,-211.46 996.51,-197.33 1028.6,-187.51"/>
<polygon fill="#63b8ff" stroke="#63b8ff" points="1029.33,-190.95 1037.87,-184.68 1027.28,-184.26 1029.33,-190.95"/>
</a>
</g>
</g>
<!-- Node43 -->
<g id="Node000043" class="node">
<title>Node43</title>
<g id="a_Node000043"><a xlink:href="_t_transient_bits_8h.html" target="_top" xlink:title=" ">
<polygon fill="white" stroke="#666666" points="1021.62,-185 934.38,-185 934.38,-165.75 1021.62,-165.75 1021.62,-185"/>
<text text-anchor="middle" x="978" y="-171.5" font-family="Helvetica,sans-Serif" font-size="10.00">TTransientBits.h</text>
</a>
</g>
</g>
<!-- Node5&#45;&gt;Node43 -->
<g id="edge53_Node000005_Node000043" class="edge">
<title>Node5&#45;&gt;Node43</title>
<g id="a_edge53_Node000005_Node000043"><a xlink:title=" ">
<path fill="none" stroke="#63b8ff" d="M905.76,-220.59C918.88,-212.56 938.32,-200.66 953.73,-191.23"/>
<polygon fill="#63b8ff" stroke="#63b8ff" points="955.18,-194.45 961.88,-186.24 951.52,-188.48 955.18,-194.45"/>
</a>
</g>
</g>
<!-- Node7&#45;&gt;Node3 -->
<g id="edge8_Node000007_Node000003" class="edge">
<title>Node7&#45;&gt;Node3</title>
<g id="a_edge8_Node000007_Node000003"><a xlink:title=" ">
<path fill="none" stroke="#63b8ff" d="M334.4,-170.04C281.89,-162.86 175.39,-147.53 86,-129.75 84.83,-129.52 83.65,-129.27 82.45,-129.02"/>
<polygon fill="#63b8ff" stroke="#63b8ff" points="83.64,-125.7 73.12,-126.93 82.11,-132.53 83.64,-125.7"/>
</a>
</g>
</g>
<!-- Node8 -->
<g id="Node000008" class="node">
<title>Node8</title>
<g id="a_Node000008"><a xlink:title=" ">
<polygon fill="#e0e0e0" stroke="#999999" points="348,-19.25 308,-19.25 308,0 348,0 348,-19.25"/>
<text text-anchor="middle" x="328" y="-5.75" font-family="Helvetica,sans-Serif" font-size="10.00">string</text>
</a>
</g>
</g>
<!-- Node7&#45;&gt;Node8 -->
<g id="edge7_Node000007_Node000008" class="edge">
<title>Node7&#45;&gt;Node8</title>
<g id="a_edge7_Node000007_Node000008"><a xlink:title=" ">
<path fill="none" stroke="#63b8ff" d="M334.25,-173.48C273.28,-171.05 146.08,-162.14 119,-129.75 64.93,-65.08 226.02,-28.34 296.62,-15.68"/>
<polygon fill="#63b8ff" stroke="#63b8ff" points="297.16,-19.14 306.41,-13.99 295.96,-12.25 297.16,-19.14"/>
</a>
</g>
</g>
<!-- Node9 -->
<g id="Node000009" class="node">
<title>Node9</title>
<g id="a_Node000009"><a xlink:title=" ">
<polygon fill="#e0e0e0" stroke="#999999" points="714.25,-129.75 675.75,-129.75 675.75,-110.5 714.25,-110.5 714.25,-129.75"/>
<text text-anchor="middle" x="695" y="-116.25" font-family="Helvetica,sans-Serif" font-size="10.00">utility</text>
</a>
</g>
</g>
<!-- Node7&#45;&gt;Node9 -->
<g id="edge9_Node000007_Node000009" class="edge">
<title>Node7&#45;&gt;Node9</title>
<g id="a_edge9_Node000007_Node000009"><a xlink:title=" ">
<path fill="none" stroke="#63b8ff" d="M399.65,-169.07C463.15,-158.77 602.46,-136.15 664.34,-126.1"/>
<polygon fill="#63b8ff" stroke="#63b8ff" points="664.83,-129.57 674.14,-124.51 663.71,-122.66 664.83,-129.57"/>
</a>
</g>
</g>
<!-- Node10 -->
<g id="Node000010" class="node">
<title>Node10</title>
<g id="a_Node000010"><a xlink:title=" ">
<polygon fill="#e0e0e0" stroke="#999999" points="210.38,-129.75 127.62,-129.75 127.62,-110.5 210.38,-110.5 210.38,-129.75"/>
<text text-anchor="middle" x="169" y="-116.25" font-family="Helvetica,sans-Serif" font-size="10.00">unordered_map</text>
</a>
</g>
</g>
<!-- Node7&#45;&gt;Node10 -->
<g id="edge10_Node000007_Node000010" class="edge">
<title>Node7&#45;&gt;Node10</title>
<g id="a_edge10_Node000007_Node000010"><a xlink:title=" ">
<path fill="none" stroke="#63b8ff" d="M334.3,-165.58C301.36,-156.72 250.27,-142.98 213.62,-133.12"/>
<polygon fill="#63b8ff" stroke="#63b8ff" points="214.77,-129.81 204.2,-130.59 212.95,-136.57 214.77,-129.81"/>
</a>
</g>
</g>
<!-- Node11 -->
<g id="Node000011" class="node">
<title>Node11</title>
<g id="a_Node000011"><a xlink:title=" ">
<polygon fill="#e0e0e0" stroke="#999999" points="289.5,-129.75 228.5,-129.75 228.5,-110.5 289.5,-110.5 289.5,-129.75"/>
<text text-anchor="middle" x="259" y="-116.25" font-family="Helvetica,sans-Serif" font-size="10.00">TNamed.h</text>
</a>
</g>
</g>
<!-- Node7&#45;&gt;Node11 -->
<g id="edge11_Node000007_Node000011" class="edge">
<title>Node7&#45;&gt;Node11</title>
<g id="a_edge11_Node000007_Node000011"><a xlink:title=" ">
<path fill="none" stroke="#63b8ff" d="M348.68,-165.34C331.92,-157.08 306.87,-144.73 287.5,-135.18"/>
<polygon fill="#63b8ff" stroke="#63b8ff" points="289.28,-132.15 278.77,-130.87 286.19,-138.43 289.28,-132.15"/>
</a>
</g>
</g>
<!-- Node12 -->
<g id="Node000012" class="node">
<title>Node12</title>
<g id="a_Node000012"><a xlink:title=" ">
<polygon fill="#e0e0e0" stroke="#999999" points="356.5,-129.75 307.5,-129.75 307.5,-110.5 356.5,-110.5 356.5,-129.75"/>
<text text-anchor="middle" x="332" y="-116.25" font-family="Helvetica,sans-Serif" font-size="10.00">TTree.h</text>
</a>
</g>
</g>
<!-- Node7&#45;&gt;Node12 -->
<g id="edge12_Node000007_Node000012" class="edge">
<title>Node7&#45;&gt;Node12</title>
<g id="a_edge12_Node000007_Node000012"><a xlink:title=" ">
<path fill="none" stroke="#63b8ff" d="M361.22,-165.58C356.59,-158.53 349.93,-148.4 344.13,-139.58"/>
<polygon fill="#63b8ff" stroke="#63b8ff" points="347.15,-137.81 338.74,-131.37 341.3,-141.65 347.15,-137.81"/>
</a>
</g>
</g>
<!-- Node13 -->
<g id="Node000013" class="node">
<title>Node13</title>
<g id="a_Node000013"><a xlink:title=" ">
<polygon fill="#e0e0e0" stroke="#999999" points="429.88,-129.75 374.12,-129.75 374.12,-110.5 429.88,-110.5 429.88,-129.75"/>
<text text-anchor="middle" x="402" y="-116.25" font-family="Helvetica,sans-Serif" font-size="10.00">TGraph.h</text>
</a>
</g>
</g>
<!-- Node7&#45;&gt;Node13 -->
<g id="edge13_Node000007_Node000013" class="edge">
<title>Node7&#45;&gt;Node13</title>
<g id="a_edge13_Node000007_Node000013"><a xlink:title=" ">
<path fill="none" stroke="#63b8ff" d="M372.78,-165.58C377.41,-158.53 384.07,-148.4 389.87,-139.58"/>
<polygon fill="#63b8ff" stroke="#63b8ff" points="392.7,-141.65 395.26,-131.37 386.85,-137.81 392.7,-141.65"/>
</a>
</g>
</g>
<!-- Node14 -->
<g id="Node000014" class="node">
<title>Node14</title>
<g id="a_Node000014"><a xlink:title=" ">
<polygon fill="#e0e0e0" stroke="#999999" points="517.62,-129.75 448.38,-129.75 448.38,-110.5 517.62,-110.5 517.62,-129.75"/>
<text text-anchor="middle" x="483" y="-116.25" font-family="Helvetica,sans-Serif" font-size="10.00">TClassRef.h</text>
</a>
</g>
</g>
<!-- Node7&#45;&gt;Node14 -->
<g id="edge14_Node000007_Node000014" class="edge">
<title>Node7&#45;&gt;Node14</title>
<g id="a_edge14_Node000007_Node000014"><a xlink:title=" ">
<path fill="none" stroke="#63b8ff" d="M386.68,-165.34C404.84,-157 432.08,-144.5 452.97,-134.91"/>
<polygon fill="#63b8ff" stroke="#63b8ff" points="454.22,-138.19 461.85,-130.83 451.3,-131.83 454.22,-138.19"/>
</a>
</g>
</g>
<!-- Node15 -->
<g id="Node000015" class="node">
<title>Node15</title>
<g id="a_Node000015"><a xlink:href="_t_priority_value_8h.html" target="_top" xlink:title=" ">
<polygon fill="white" stroke="#666666" points="620.12,-129.75 535.88,-129.75 535.88,-110.5 620.12,-110.5 620.12,-129.75"/>
<text text-anchor="middle" x="578" y="-116.25" font-family="Helvetica,sans-Serif" font-size="10.00">TPriorityValue.h</text>
</a>
</g>
</g>
<!-- Node7&#45;&gt;Node15 -->
<g id="edge15_Node000007_Node000015" class="edge">
<title>Node7&#45;&gt;Node15</title>
<g id="a_edge15_Node000007_Node000015"><a xlink:title=" ">
<path fill="none" stroke="#63b8ff" d="M399.51,-166.17C434.62,-157.31 490.89,-143.11 530.85,-133.02"/>
<polygon fill="#63b8ff" stroke="#63b8ff" points="531.61,-136.44 540.45,-130.6 529.9,-129.65 531.61,-136.44"/>
</a>
</g>
</g>
<!-- Node15&#45;&gt;Node6 -->
<g id="edge18_Node000015_Node000006" class="edge">
<title>Node15&#45;&gt;Node6</title>
<g id="a_edge18_Node000015_Node000006"><a xlink:title=" ">
<path fill="none" stroke="#63b8ff" d="M589.87,-110.09C600.09,-102.32 615.07,-90.92 627.26,-81.65"/>
<polygon fill="#63b8ff" stroke="#63b8ff" points="629.26,-84.53 635.1,-75.69 625.02,-78.96 629.26,-84.53"/>
</a>
</g>
</g>
<!-- Node15&#45;&gt;Node8 -->
<g id="edge17_Node000015_Node000008" class="edge">
<title>Node15&#45;&gt;Node8</title>
<g id="a_edge17_Node000015_Node000008"><a xlink:title=" ">
<path fill="none" stroke="#63b8ff" d="M557.12,-110.06C513.05,-90.94 410.41,-46.39 358.79,-23.99"/>
<polygon fill="#63b8ff" stroke="#63b8ff" points="360.26,-20.81 349.69,-20.04 357.47,-27.23 360.26,-20.81"/>
</a>
</g>
</g>
<!-- Node16 -->
<g id="Node000016" class="node">
<title>Node16</title>
<g id="a_Node000016"><a xlink:title=" ">
<polygon fill="#e0e0e0" stroke="#999999" points="603.62,-74.5 552.38,-74.5 552.38,-55.25 603.62,-55.25 603.62,-74.5"/>
<text text-anchor="middle" x="578" y="-61" font-family="Helvetica,sans-Serif" font-size="10.00">ostream</text>
</a>
</g>
</g>
<!-- Node15&#45;&gt;Node16 -->
<g id="edge16_Node000015_Node000016" class="edge">
<title>Node15&#45;&gt;Node16</title>
<g id="a_edge16_Node000015_Node000016"><a xlink:title=" ">
<path fill="none" stroke="#63b8ff" d="M578,-110.33C578,-103.82 578,-94.67 578,-86.37"/>
<polygon fill="#63b8ff" stroke="#63b8ff" points="581.5,-86.37 578,-76.37 574.5,-86.37 581.5,-86.37"/>
</a>
</g>
</g>
<!-- Node21&#45;&gt;Node9 -->
<g id="edge25_Node000021_Node000009" class="edge">
<title>Node21&#45;&gt;Node9</title>
<g id="a_edge25_Node000021_Node000009"><a xlink:title=" ">
<path fill="none" stroke="#63b8ff" d="M1039.45,-167.55C1036.61,-166.9 1033.75,-166.28 1031,-165.75 1023.5,-164.31 807.27,-135.87 725.72,-125.16"/>
<polygon fill="#63b8ff" stroke="#63b8ff" points="726.36,-121.71 715.99,-123.88 725.45,-128.65 726.36,-121.71"/>
</a>
</g>
</g>
<!-- Node21&#45;&gt;Node18 -->
<g id="edge27_Node000021_Node000018" class="edge">
<title>Node21&#45;&gt;Node18</title>
<g id="a_edge27_Node000021_Node000018"><a xlink:title=" ">
<path fill="none" stroke="#63b8ff" d="M1066.34,-165.44C1068.9,-151.52 1075.88,-124.75 1093,-110.5 1104.47,-100.95 1190.14,-83.41 1242.45,-73.4"/>
<polygon fill="#63b8ff" stroke="#63b8ff" points="1243.04,-76.85 1252.21,-71.55 1241.73,-69.97 1243.04,-76.85"/>
</a>
</g>
</g>
<!-- Node22 -->
<g id="Node000022" class="node">
<title>Node22</title>
<g id="a_Node000022"><a xlink:title=" ">
<polygon fill="#e0e0e0" stroke="#999999" points="1136.38,-129.75 1101.62,-129.75 1101.62,-110.5 1136.38,-110.5 1136.38,-129.75"/>
<text text-anchor="middle" x="1119" y="-116.25" font-family="Helvetica,sans-Serif" font-size="10.00">map</text>
</a>
</g>
</g>
<!-- Node21&#45;&gt;Node22 -->
<g id="edge24_Node000021_Node000022" class="edge">
<title>Node21&#45;&gt;Node22</title>
<g id="a_edge24_Node000021_Node000022"><a xlink:title=" ">
<path fill="none" stroke="#63b8ff" d="M1073.92,-165.58C1081.45,-158.15 1092.47,-147.29 1101.73,-138.16"/>
<polygon fill="#63b8ff" stroke="#63b8ff" points="1104.15,-140.69 1108.81,-131.17 1099.23,-135.7 1104.15,-140.69"/>
</a>
</g>
</g>
<!-- Node21&#45;&gt;Node23 -->
<g id="edge26_Node000021_Node000023" class="edge">
<title>Node21&#45;&gt;Node23</title>
<g id="a_edge26_Node000021_Node000023"><a xlink:title=" ">
<path fill="none" stroke="#63b8ff" d="M1039.43,-165.45C989.77,-146.82 888.58,-101.63 929,-55.25 965.44,-13.44 1115.41,-28.26 1187.63,-19.17"/>
<polygon fill="#63b8ff" stroke="#63b8ff" points="1188.09,-22.64 1197.44,-17.64 1187.02,-15.72 1188.09,-22.64"/>
</a>
</g>
</g>
<!-- Node24 -->
<g id="Node000024" class="node">
<title>Node24</title>
<g id="a_Node000024"><a xlink:title=" ">
<polygon fill="#e0e0e0" stroke="#999999" points="1227.12,-129.75 1154.88,-129.75 1154.88,-110.5 1227.12,-110.5 1227.12,-129.75"/>
<text text-anchor="middle" x="1191" y="-116.25" font-family="Helvetica,sans-Serif" font-size="10.00">TCollection.h</text>
</a>
</g>
</g>
<!-- Node21&#45;&gt;Node24 -->
<g id="edge28_Node000021_Node000024" class="edge">
<title>Node21&#45;&gt;Node24</title>
<g id="a_edge28_Node000021_Node000024"><a xlink:title=" ">
<path fill="none" stroke="#63b8ff" d="M1086.37,-165.34C1106.29,-156.93 1136.24,-144.27 1159,-134.65"/>
<polygon fill="#63b8ff" stroke="#63b8ff" points="1160.28,-137.91 1168.13,-130.79 1157.55,-131.46 1160.28,-137.91"/>
</a>
</g>
</g>
<!-- Node25 -->
<g id="Node000025" class="node">
<title>Node25</title>
<g id="a_Node000025"><a xlink:href="_globals_8h.html" target="_top" xlink:title=" ">
<polygon fill="white" stroke="#666666" points="830.25,-74.5 773.75,-74.5 773.75,-55.25 830.25,-55.25 830.25,-74.5"/>
<text text-anchor="middle" x="802" y="-61" font-family="Helvetica,sans-Serif" font-size="10.00">Globals.h</text>
</a>
</g>
</g>
<!-- Node21&#45;&gt;Node25 -->
<g id="edge29_Node000021_Node000025" class="edge">
<title>Node21&#45;&gt;Node25</title>
<g id="a_edge29_Node000021_Node000025"><a xlink:title=" ">
<path fill="none" stroke="#63b8ff" d="M1039.55,-166.72C1012.9,-158.47 970.01,-144.53 934,-129.75 896.74,-114.46 855.12,-93.67 828.76,-80.02"/>
<polygon fill="#63b8ff" stroke="#63b8ff" points="830.61,-77.04 820.13,-75.52 827.38,-83.25 830.61,-77.04"/>
</a>
</g>
</g>
<!-- Node38 -->
<g id="Node000038" class="node">
<title>Node38</title>
<g id="a_Node000038"><a xlink:href="_t_singleton_8h.html" target="_top" xlink:title=" ">
<polygon fill="white" stroke="#666666" points="1046,-129.75 976,-129.75 976,-110.5 1046,-110.5 1046,-129.75"/>
<text text-anchor="middle" x="1011" y="-116.25" font-family="Helvetica,sans-Serif" font-size="10.00">TSingleton.h</text>
</a>
</g>
</g>
<!-- Node21&#45;&gt;Node38 -->
<g id="edge45_Node000021_Node000038" class="edge">
<title>Node21&#45;&gt;Node38</title>
<g id="a_edge45_Node000021_Node000038"><a xlink:title=" ">
<path fill="none" stroke="#63b8ff" d="M1056.08,-165.58C1048.55,-158.15 1037.53,-147.29 1028.27,-138.16"/>
<polygon fill="#63b8ff" stroke="#63b8ff" points="1030.77,-135.7 1021.19,-131.17 1025.85,-140.69 1030.77,-135.7"/>
</a>
</g>
</g>
<!-- Node25&#45;&gt;Node2 -->
<g id="edge34_Node000025_Node000002" class="edge">
<title>Node25&#45;&gt;Node2</title>
<g id="a_edge34_Node000025_Node000002"><a xlink:title=" ">
<path fill="none" stroke="#63b8ff" d="M773.3,-61.59C665,-52.95 281.54,-22.39 166.72,-13.23"/>
<polygon fill="#63b8ff" stroke="#63b8ff" points="167.32,-9.77 157.07,-12.46 166.76,-16.75 167.32,-9.77"/>
</a>
</g>
</g>
<!-- Node25&#45;&gt;Node8 -->
<g id="edge33_Node000025_Node000008" class="edge">
<title>Node25&#45;&gt;Node8</title>
<g id="a_edge33_Node000025_Node000008"><a xlink:title=" ">
<path fill="none" stroke="#63b8ff" d="M773.34,-61.71C691.48,-55.43 456.8,-36.65 359.62,-19.34"/>
<polygon fill="#63b8ff" stroke="#63b8ff" points="360.44,-15.93 349.96,-17.52 359.14,-22.81 360.44,-15.93"/>
</a>
</g>
</g>
<!-- Node25&#45;&gt;Node23 -->
<g id="edge30_Node000025_Node000023" class="edge">
<title>Node25&#45;&gt;Node23</title>
<g id="a_edge30_Node000025_Node000023"><a xlink:title=" ">
<path fill="none" stroke="#63b8ff" d="M830.74,-59.2C839.48,-57.84 849.12,-56.41 858,-55.25 1001.57,-36.42 1041.81,-44.19 1187.79,-19.42"/>
<polygon fill="#63b8ff" stroke="#63b8ff" points="1188.2,-22.9 1197.46,-17.75 1187.01,-16 1188.2,-22.9"/>
</a>
</g>
</g>
<!-- Node26 -->
<g id="Node000026" class="node">
<title>Node26</title>
<g id="a_Node000026"><a xlink:title=" ">
<polygon fill="#e0e0e0" stroke="#999999" points="1180.88,-19.25 1131.12,-19.25 1131.12,0 1180.88,0 1180.88,-19.25"/>
<text text-anchor="middle" x="1156" y="-5.75" font-family="Helvetica,sans-Serif" font-size="10.00">iomanip</text>
</a>
</g>
</g>
<!-- Node25&#45;&gt;Node26 -->
<g id="edge31_Node000025_Node000026" class="edge">
<title>Node25&#45;&gt;Node26</title>
<g id="a_edge31_Node000025_Node000026"><a xlink:title=" ">
<path fill="none" stroke="#63b8ff" d="M830.47,-59.39C839.29,-58.03 849.04,-56.55 858,-55.25 971.64,-38.75 1003.83,-41.65 1119.72,-19.5"/>
<polygon fill="#63b8ff" stroke="#63b8ff" points="1120.18,-22.97 1129.33,-17.64 1118.85,-16.1 1120.18,-22.97"/>
</a>
</g>
</g>
<!-- Node27 -->
<g id="Node000027" class="node">
<title>Node27</title>
<g id="a_Node000027"><a xlink:title=" ">
<polygon fill="#e0e0e0" stroke="#999999" points="424,-19.25 366,-19.25 366,0 424,0 424,-19.25"/>
<text text-anchor="middle" x="395" y="-5.75" font-family="Helvetica,sans-Serif" font-size="10.00">stdexcept</text>
</a>
</g>
</g>
<!-- Node25&#45;&gt;Node27 -->
<g id="edge32_Node000025_Node000027" class="edge">
<title>Node25&#45;&gt;Node27</title>
<g id="a_edge32_Node000025_Node000027"><a xlink:title=" ">
<path fill="none" stroke="#63b8ff" d="M773.62,-61.45C713.25,-56.07 567.47,-41.95 435.49,-19.52"/>
<polygon fill="#63b8ff" stroke="#63b8ff" points="436.34,-16.12 425.89,-17.87 435.15,-23.01 436.34,-16.12"/>
</a>
</g>
</g>
<!-- Node28 -->
<g id="Node000028" class="node">
<title>Node28</title>
<g id="a_Node000028"><a xlink:title=" ">
<polygon fill="#e0e0e0" stroke="#999999" points="487.62,-19.25 442.38,-19.25 442.38,0 487.62,0 487.62,-19.25"/>
<text text-anchor="middle" x="465" y="-5.75" font-family="Helvetica,sans-Serif" font-size="10.00">cstdint</text>
</a>
</g>
</g>
<!-- Node25&#45;&gt;Node28 -->
<g id="edge35_Node000025_Node000028" class="edge">
<title>Node25&#45;&gt;Node28</title>
<g id="a_edge35_Node000025_Node000028"><a xlink:title=" ">
<path fill="none" stroke="#63b8ff" d="M773.63,-60.86C721.3,-55.05 605.88,-41.11 498.98,-19.43"/>
<polygon fill="#63b8ff" stroke="#63b8ff" points="499.98,-16.07 489.48,-17.48 498.57,-22.92 499.98,-16.07"/>
</a>
</g>
</g>
<!-- Node29 -->
<g id="Node000029" class="node">
<title>Node29</title>
<g id="a_Node000029"><a xlink:title=" ">
<polygon fill="#e0e0e0" stroke="#999999" points="550.25,-19.25 505.75,-19.25 505.75,0 550.25,0 550.25,-19.25"/>
<text text-anchor="middle" x="528" y="-5.75" font-family="Helvetica,sans-Serif" font-size="10.00">cstdlib</text>
</a>
</g>
</g>
<!-- Node25&#45;&gt;Node29 -->
<g id="edge36_Node000025_Node000029" class="edge">
<title>Node25&#45;&gt;Node29</title>
<g id="a_edge36_Node000025_Node000029"><a xlink:title=" ">
<path fill="none" stroke="#63b8ff" d="M773.4,-59.48C729.75,-52.58 643.72,-38.27 561.65,-19.7"/>
<polygon fill="#63b8ff" stroke="#63b8ff" points="562.63,-16.33 552.1,-17.51 561.07,-23.16 562.63,-16.33"/>
</a>
</g>
</g>
<!-- Node30 -->
<g id="Node000030" class="node">
<title>Node30</title>
<g id="a_Node000030"><a xlink:title=" ">
<polygon fill="#e0e0e0" stroke="#999999" points="627.75,-19.25 568.25,-19.25 568.25,0 627.75,0 627.75,-19.25"/>
<text text-anchor="middle" x="598" y="-5.75" font-family="Helvetica,sans-Serif" font-size="10.00">execinfo.h</text>
</a>
</g>
</g>
<!-- Node25&#45;&gt;Node30 -->
<g id="edge37_Node000025_Node000030" class="edge">
<title>Node25&#45;&gt;Node30</title>
<g id="a_edge37_Node000025_Node000030"><a xlink:title=" ">
<path fill="none" stroke="#63b8ff" d="M773.63,-56.47C738.68,-47.35 679.04,-31.78 639.08,-21.35"/>
<polygon fill="#63b8ff" stroke="#63b8ff" points="640.14,-18.01 629.58,-18.87 638.37,-24.78 640.14,-18.01"/>
</a>
</g>
</g>
<!-- Node31 -->
<g id="Node000031" class="node">
<title>Node31</title>
<g id="a_Node000031"><a xlink:title=" ">
<polygon fill="#e0e0e0" stroke="#999999" points="696.25,-19.25 645.75,-19.25 645.75,0 696.25,0 696.25,-19.25"/>
<text text-anchor="middle" x="671" y="-5.75" font-family="Helvetica,sans-Serif" font-size="10.00">cxxabi.h</text>
</a>
</g>
</g>
<!-- Node25&#45;&gt;Node31 -->
<g id="edge38_Node000025_Node000031" class="edge">
<title>Node25&#45;&gt;Node31</title>
<g id="a_edge38_Node000025_Node000031"><a xlink:title=" ">
<path fill="none" stroke="#63b8ff" d="M779.78,-54.84C758.98,-46.39 727.65,-33.65 703.95,-24.02"/>
<polygon fill="#63b8ff" stroke="#63b8ff" points="705.32,-20.8 694.73,-20.27 702.68,-27.28 705.32,-20.8"/>
</a>
</g>
</g>
<!-- Node32 -->
<g id="Node000032" class="node">
<title>Node32</title>
<g id="a_Node000032"><a xlink:title=" ">
<polygon fill="#e0e0e0" stroke="#999999" points="765.62,-19.25 714.38,-19.25 714.38,0 765.62,0 765.62,-19.25"/>
<text text-anchor="middle" x="740" y="-5.75" font-family="Helvetica,sans-Serif" font-size="10.00">sstream</text>
</a>
</g>
</g>
<!-- Node25&#45;&gt;Node32 -->
<g id="edge39_Node000025_Node000032" class="edge">
<title>Node25&#45;&gt;Node32</title>
<g id="a_edge39_Node000025_Node000032"><a xlink:title=" ">
<path fill="none" stroke="#63b8ff" d="M791.48,-54.84C782.61,-47.22 769.69,-36.12 759.01,-26.95"/>
<polygon fill="#63b8ff" stroke="#63b8ff" points="761.38,-24.37 751.51,-20.51 756.82,-29.68 761.38,-24.37"/>
</a>
</g>
</g>
<!-- Node33 -->
<g id="Node000033" class="node">
<title>Node33</title>
<g id="a_Node000033"><a xlink:title=" ">
<polygon fill="#e0e0e0" stroke="#999999" points="820.5,-19.25 783.5,-19.25 783.5,0 820.5,0 820.5,-19.25"/>
<text text-anchor="middle" x="802" y="-5.75" font-family="Helvetica,sans-Serif" font-size="10.00">array</text>
</a>
</g>
</g>
<!-- Node25&#45;&gt;Node33 -->
<g id="edge40_Node000025_Node000033" class="edge">
<title>Node25&#45;&gt;Node33</title>
<g id="a_edge40_Node000025_Node000033"><a xlink:title=" ">
<path fill="none" stroke="#63b8ff" d="M802,-55.08C802,-48.57 802,-39.42 802,-31.12"/>
<polygon fill="#63b8ff" stroke="#63b8ff" points="805.5,-31.12 802,-21.12 798.5,-31.12 805.5,-31.12"/>
</a>
</g>
</g>
<!-- Node34 -->
<g id="Node000034" class="node">
<title>Node34</title>
<g id="a_Node000034"><a xlink:title=" ">
<polygon fill="#e0e0e0" stroke="#999999" points="889.25,-19.25 838.75,-19.25 838.75,0 889.25,0 889.25,-19.25"/>
<text text-anchor="middle" x="864" y="-5.75" font-family="Helvetica,sans-Serif" font-size="10.00">memory</text>
</a>
</g>
</g>
<!-- Node25&#45;&gt;Node34 -->
<g id="edge41_Node000025_Node000034" class="edge">
<title>Node25&#45;&gt;Node34</title>
<g id="a_edge41_Node000025_Node000034"><a xlink:title=" ">
<path fill="none" stroke="#63b8ff" d="M812.52,-54.84C821.39,-47.22 834.31,-36.12 844.99,-26.95"/>
<polygon fill="#63b8ff" stroke="#63b8ff" points="847.18,-29.68 852.49,-20.51 842.62,-24.37 847.18,-29.68"/>
</a>
</g>
</g>
<!-- Node35 -->
<g id="Node000035" class="node">
<title>Node35</title>
<g id="a_Node000035"><a xlink:title=" ">
<polygon fill="#e0e0e0" stroke="#999999" points="956.88,-19.25 907.12,-19.25 907.12,0 956.88,0 956.88,-19.25"/>
<text text-anchor="middle" x="932" y="-5.75" font-family="Helvetica,sans-Serif" font-size="10.00">unistd.h</text>
</a>
</g>
</g>
<!-- Node25&#45;&gt;Node35 -->
<g id="edge42_Node000025_Node000035" class="edge">
<title>Node25&#45;&gt;Node35</title>
<g id="a_edge42_Node000025_Node000035"><a xlink:title=" ">
<path fill="none" stroke="#63b8ff" d="M824.05,-54.84C844.69,-46.39 875.78,-33.65 899.3,-24.02"/>
<polygon fill="#63b8ff" stroke="#63b8ff" points="900.51,-27.31 908.44,-20.28 897.86,-20.83 900.51,-27.31"/>
</a>
</g>
</g>
<!-- Node36 -->
<g id="Node000036" class="node">
<title>Node36</title>
<g id="a_Node000036"><a xlink:title=" ">
<polygon fill="#e0e0e0" stroke="#999999" points="1034.75,-19.25 975.25,-19.25 975.25,0 1034.75,0 1034.75,-19.25"/>
<text text-anchor="middle" x="1005" y="-5.75" font-family="Helvetica,sans-Serif" font-size="10.00">sys/wait.h</text>
</a>
</g>
</g>
<!-- Node25&#45;&gt;Node36 -->
<g id="edge43_Node000025_Node000036" class="edge">
<title>Node25&#45;&gt;Node36</title>
<g id="a_edge43_Node000025_Node000036"><a xlink:title=" ">
<path fill="none" stroke="#63b8ff" d="M830.65,-56.36C865.37,-47.25 924.12,-31.84 963.71,-21.46"/>
<polygon fill="#63b8ff" stroke="#63b8ff" points="964.59,-24.84 973.37,-18.92 962.81,-18.07 964.59,-24.84"/>
</a>
</g>
</g>
<!-- Node37 -->
<g id="Node000037" class="node">
<title>Node37</title>
<g id="a_Node000037"><a xlink:title=" ">
<polygon fill="#e0e0e0" stroke="#999999" points="1113.12,-19.25 1052.88,-19.25 1052.88,0 1113.12,0 1113.12,-19.25"/>
<text text-anchor="middle" x="1083" y="-5.75" font-family="Helvetica,sans-Serif" font-size="10.00">sys/prctl.h</text>
</a>
</g>
</g>
<!-- Node25&#45;&gt;Node37 -->
<g id="edge44_Node000025_Node000037" class="edge">
<title>Node25&#45;&gt;Node37</title>
<g id="a_edge44_Node000025_Node000037"><a xlink:title=" ">
<path fill="none" stroke="#63b8ff" d="M830.75,-58.91C874.19,-51.34 959.43,-36.2 1041.73,-19.65"/>
<polygon fill="#63b8ff" stroke="#63b8ff" points="1042.2,-23.13 1051.31,-17.72 1040.81,-16.27 1042.2,-23.13"/>
</a>
</g>
</g>
<!-- Node38&#45;&gt;Node18 -->
<g id="edge47_Node000038_Node000018" class="edge">
<title>Node38&#45;&gt;Node18</title>
<g id="a_edge47_Node000038_Node000018"><a xlink:title=" ">
<path fill="none" stroke="#63b8ff" d="M1046.32,-112.3C1091.31,-103.6 1171.46,-88.05 1240,-74.5 1240.98,-74.31 1241.97,-74.11 1242.97,-73.91"/>
<polygon fill="#63b8ff" stroke="#63b8ff" points="1243.25,-77.42 1252.38,-72.04 1241.88,-70.56 1243.25,-77.42"/>
</a>
</g>
</g>
<!-- Node38&#45;&gt;Node23 -->
<g id="edge46_Node000038_Node000023" class="edge">
<title>Node38&#45;&gt;Node23</title>
<g id="a_edge46_Node000038_Node000023"><a xlink:title=" ">
<path fill="none" stroke="#63b8ff" d="M1046.06,-112.09C1100.84,-100.98 1201.09,-80.03 1207,-74.5 1219.02,-63.24 1223.54,-44.76 1225.2,-30.57"/>
<polygon fill="#63b8ff" stroke="#63b8ff" points="1228.66,-31.23 1225.91,-21 1221.68,-30.71 1228.66,-31.23"/>
</a>
</g>
</g>
<!-- Node38&#45;&gt;Node25 -->
<g id="edge52_Node000038_Node000025" class="edge">
<title>Node38&#45;&gt;Node25</title>
<g id="a_edge52_Node000038_Node000025"><a xlink:title=" ">
<path fill="none" stroke="#63b8ff" d="M975.55,-110.09C938.34,-100.61 880,-85.75 841.38,-75.91"/>
<polygon fill="#63b8ff" stroke="#63b8ff" points="842.58,-72.6 832.03,-73.53 840.86,-79.39 842.58,-72.6"/>
</a>
</g>
</g>
<!-- Node39 -->
<g id="Node000039" class="node">
<title>Node39</title>
<g id="a_Node000039"><a xlink:title=" ">
<polygon fill="#e0e0e0" stroke="#999999" points="1005.88,-74.5 938.12,-74.5 938.12,-55.25 1005.88,-55.25 1005.88,-74.5"/>
<text text-anchor="middle" x="972" y="-61" font-family="Helvetica,sans-Serif" font-size="10.00">TDirectory.h</text>
</a>
</g>
</g>
<!-- Node38&#45;&gt;Node39 -->
<g id="edge48_Node000038_Node000039" class="edge">
<title>Node38&#45;&gt;Node39</title>
<g id="a_edge48_Node000038_Node000039"><a xlink:title=" ">
<path fill="none" stroke="#63b8ff" d="M1004.56,-110.33C999.34,-103.21 991.81,-92.93 985.31,-84.05"/>
<polygon fill="#63b8ff" stroke="#63b8ff" points="988.21,-82.08 979.47,-76.08 982.56,-86.22 988.21,-82.08"/>
</a>
</g>
</g>
<!-- Node40 -->
<g id="Node000040" class="node">
<title>Node40</title>
<g id="a_Node000040"><a xlink:title=" ">
<polygon fill="#e0e0e0" stroke="#999999" points="1069.62,-74.5 1024.38,-74.5 1024.38,-55.25 1069.62,-55.25 1069.62,-74.5"/>
<text text-anchor="middle" x="1047" y="-61" font-family="Helvetica,sans-Serif" font-size="10.00">TFile.h</text>
</a>
</g>
</g>
<!-- Node38&#45;&gt;Node40 -->
<g id="edge49_Node000038_Node000040" class="edge">
<title>Node38&#45;&gt;Node40</title>
<g id="a_edge49_Node000038_Node000040"><a xlink:title=" ">
<path fill="none" stroke="#63b8ff" d="M1016.94,-110.33C1021.71,-103.28 1028.56,-93.15 1034.52,-84.33"/>
<polygon fill="#63b8ff" stroke="#63b8ff" points="1037.38,-86.36 1040.08,-76.11 1031.58,-82.44 1037.38,-86.36"/>
</a>
</g>
</g>
<!-- Node41 -->
<g id="Node000041" class="node">
<title>Node41</title>
<g id="a_Node000041"><a xlink:title=" ">
<polygon fill="#e0e0e0" stroke="#999999" points="1134,-74.5 1088,-74.5 1088,-55.25 1134,-55.25 1134,-74.5"/>
<text text-anchor="middle" x="1111" y="-61" font-family="Helvetica,sans-Serif" font-size="10.00">TList.h</text>
</a>
</g>
</g>
<!-- Node38&#45;&gt;Node41 -->
<g id="edge50_Node000038_Node000041" class="edge">
<title>Node38&#45;&gt;Node41</title>
<g id="a_edge50_Node000038_Node000041"><a xlink:title=" ">
<path fill="none" stroke="#63b8ff" d="M1027.96,-110.09C1043.26,-101.94 1066.03,-89.82 1083.86,-80.33"/>
<polygon fill="#63b8ff" stroke="#63b8ff" points="1085.44,-83.45 1092.62,-75.66 1082.15,-77.27 1085.44,-83.45"/>
</a>
</g>
</g>
<!-- Node42 -->
<g id="Node000042" class="node">
<title>Node42</title>
<g id="a_Node000042"><a xlink:title=" ">
<polygon fill="#e0e0e0" stroke="#999999" points="1198,-74.5 1152,-74.5 1152,-55.25 1198,-55.25 1198,-74.5"/>
<text text-anchor="middle" x="1175" y="-61" font-family="Helvetica,sans-Serif" font-size="10.00">TKey.h</text>
</a>
</g>
</g>
<!-- Node38&#45;&gt;Node42 -->
<g id="edge51_Node000038_Node000042" class="edge">
<title>Node38&#45;&gt;Node42</title>
<g id="a_edge51_Node000038_Node000042"><a xlink:title=" ">
<path fill="none" stroke="#63b8ff" d="M1038.82,-110.09C1066.94,-100.96 1110.44,-86.84 1140.69,-77.02"/>
<polygon fill="#63b8ff" stroke="#63b8ff" points="1141.7,-80.37 1150.13,-73.95 1139.54,-73.71 1141.7,-80.37"/>
</a>
</g>
</g>
<!-- Node43&#45;&gt;Node23 -->
<g id="edge54_Node000043_Node000023" class="edge">
<title>Node43&#45;&gt;Node23</title>
<g id="a_edge54_Node000043_Node000023"><a xlink:title=" ">
<path fill="none" stroke="#63b8ff" d="M966.74,-165.44C941.5,-144.36 884.94,-90.65 916,-55.25 954.44,-11.43 1112.37,-28.43 1187.6,-19.16"/>
<polygon fill="#63b8ff" stroke="#63b8ff" points="1188.08,-22.62 1197.44,-17.66 1187.03,-15.7 1188.08,-22.62"/>
</a>
</g>
</g>
<!-- Node44 -->
<g id="Node000044" class="node">
<title>Node44</title>
<g id="a_Node000044"><a xlink:title=" ">
<polygon fill="#e0e0e0" stroke="#999999" points="843.88,-129.75 770.12,-129.75 770.12,-110.5 843.88,-110.5 843.88,-129.75"/>
<text text-anchor="middle" x="807" y="-116.25" font-family="Helvetica,sans-Serif" font-size="10.00">RtypesCore.h</text>
</a>
</g>
</g>
<!-- Node43&#45;&gt;Node44 -->
<g id="edge55_Node000043_Node000044" class="edge">
<title>Node43&#45;&gt;Node44</title>
<g id="a_edge55_Node000043_Node000044"><a xlink:title=" ">
<path fill="none" stroke="#63b8ff" d="M948.99,-165.34C920.99,-156.62 878.34,-143.34 847.1,-133.61"/>
<polygon fill="#63b8ff" stroke="#63b8ff" points="848.18,-130.28 837.6,-130.65 846.1,-136.97 848.18,-130.28"/>
</a>
</g>
</g>
</g>
</svg>

<g id="navigator" transform="translate(0 0)" fill="#404254">
  <rect fill="#f2f5e9" fill-opacity="0.5" stroke="#606060" stroke-width=".5" x="0" y="0" width="60" height="60"/>
  <use id="zoomplus" xlink:href="#zoomPlus" x="17" y="9" onmousedown="handleZoom(evt,'in')"/>
  <use id="zoomminus" xlink:href="#zoomMin" x="42" y="9" onmousedown="handleZoom(evt,'out')"/>
  <use id="reset" xlink:href="#resetDef" x="30" y="36" onmousedown="handleReset()"/>
   <use id="arrowup" xlink:href="#arrowUp" x="0" y="0" onmousedown="handlePan(0,-1)"/>
  <use id="arrowright" xlink:href="#arrowRight" x="0" y="0" onmousedown="handlePan(1,0)"/>
  <use id="arrowdown" xlink:href="#arrowDown" x="0" y="0" onmousedown="handlePan(0,1)"/>
  <use id="arrowleft" xlink:href="#arrowLeft" x="0" y="0" onmousedown="handlePan(-1,0)"/>
</g>
<svg viewBox="0 0 15 15" width="100%" height="30px" preserveAspectRatio="xMaxYMin meet">
 <g id="arrow_out" transform="scale(0.3 0.3)">
  <a xlink:href="_t_bgo_hit_8h__incl_org.svg" target="_base">
   <rect id="button" ry="5" rx="5" y="6" x="6" height="38" width="38"
        fill="#f2f5e9" fill-opacity="0.5" stroke="#606060" stroke-width="1.0"/>
   <path id="arrow"
     d="M 11.500037,31.436501 C 11.940474,20.09759 22.043105,11.32322 32.158766,21.979434 L 37.068811,17.246167 C 37.068811,17.246167 37.088388,32 37.088388,32 L 22.160133,31.978069 C 22.160133,31.978069 26.997745,27.140456 26.997745,27.140456 C 18.528582,18.264221 13.291696,25.230495 11.500037,31.436501 z"
     style="fill:#404040;"/>
  </a>
 </g>
</svg>

<style type='text/css'>
<![CDATA[
[data-mouse-over-selected='false'] { opacity: 0.7; }
[data-mouse-over-selected='true']  { opacity: 1.0; }
]]>
</style>
<script type="application/ecmascript"><![CDATA[
document.addEventListener('DOMContentLoaded', (event) => {
  highlightEdges();
  highlightAdjacentNodes();
});
]]></script>
</svg>
