<?xml version="1.0" encoding="UTF-8" standalone="no"?>
<!DOCTYPE svg PUBLIC "-//W3C//DTD SVG 1.1//EN"
 "http://www.w3.org/Graphics/SVG/1.1/DTD/svg11.dtd">
<!-- Generated by graphviz version 12.2.0 (20241103.1931)
 -->
<!-- Title: TBgo.h Pages: 1 -->
<svg width="1542pt" height="414pt"
 viewBox="0.00 0.00 1542.25 414.00" xmlns="http://www.w3.org/2000/svg" xmlns:xlink="http://www.w3.org/1999/xlink">
<g id="graph0" class="graph" transform="scale(1 1) rotate(0) translate(4 410)">
<title>TBgo.h</title>
<!-- Node1 -->
<g id="Node000001" class="node">
<title>Node1</title>
<g id="a_Node000001"><a xlink:title=" ">
<polygon fill="#999999" stroke="#666666" points="343.38,-406 296.62,-406 296.62,-386.75 343.38,-386.75 343.38,-406"/>
<text text-anchor="middle" x="320" y="-392.5" font-family="Helvetica,sans-Serif" font-size="10.00">TBgo.h</text>
</a>
</g>
</g>
<!-- Node2 -->
<g id="Node000002" class="node">
<title>Node2</title>
<g id="a_Node000002"><a xlink:title=" ">
<polygon fill="#e0e0e0" stroke="#999999" points="116.12,-19.25 73.88,-19.25 73.88,0 116.12,0 116.12,-19.25"/>
<text text-anchor="middle" x="95" y="-5.75" font-family="Helvetica,sans-Serif" font-size="10.00">cstdio</text>
</a>
</g>
</g>
<!-- Node1&#45;&gt;Node2 -->
<g id="edge1_Node000001_Node000002" class="edge">
<title>Node1&#45;&gt;Node2</title>
<g id="a_edge1_Node000001_Node000002"><a xlink:title=" ">
<path fill="none" stroke="#63b8ff" d="M296.21,-392.54C222.05,-383.05 0,-349.42 0,-286.88 0,-286.88 0,-286.88 0,-119.12 0,-77.2 40.64,-43.71 68.76,-25.54"/>
<polygon fill="#63b8ff" stroke="#63b8ff" points="70.49,-28.59 77.16,-20.36 66.82,-22.63 70.49,-28.59"/>
</a>
</g>
</g>
<!-- Node3 -->
<g id="Node000003" class="node">
<title>Node3</title>
<g id="a_Node000003"><a xlink:title=" ">
<polygon fill="#e0e0e0" stroke="#999999" points="243.62,-185 180.38,-185 180.38,-165.75 243.62,-165.75 243.62,-185"/>
<text text-anchor="middle" x="212" y="-171.5" font-family="Helvetica,sans-Serif" font-size="10.00">TVector3.h</text>
</a>
</g>
</g>
<!-- Node1&#45;&gt;Node3 -->
<g id="edge2_Node000001_Node000003" class="edge">
<title>Node1&#45;&gt;Node3</title>
<g id="a_edge2_Node000001_Node000003"><a xlink:title=" ">
<path fill="none" stroke="#63b8ff" d="M315.63,-386.52C299.59,-353.98 243.67,-240.59 221.33,-195.29"/>
<polygon fill="#63b8ff" stroke="#63b8ff" points="224.53,-193.88 216.97,-186.46 218.26,-196.98 224.53,-193.88"/>
</a>
</g>
</g>
<!-- Node4 -->
<g id="Node000004" class="node">
<title>Node4</title>
<g id="a_Node000004"><a xlink:href="_t_bgo_hit_8h.html" target="_top" xlink:title=" ">
<polygon fill="white" stroke="#666666" points="631.75,-350.75 572.25,-350.75 572.25,-331.5 631.75,-331.5 631.75,-350.75"/>
<text text-anchor="middle" x="602" y="-337.25" font-family="Helvetica,sans-Serif" font-size="10.00">TBgoHit.h</text>
</a>
</g>
</g>
<!-- Node1&#45;&gt;Node4 -->
<g id="edge3_Node000001_Node000004" class="edge">
<title>Node1&#45;&gt;Node4</title>
<g id="a_edge3_Node000001_Node000004"><a xlink:title=" ">
<path fill="none" stroke="#63b8ff" d="M343.56,-390.93C391.46,-381.88 500.75,-361.24 560.73,-349.92"/>
<polygon fill="#63b8ff" stroke="#63b8ff" points="561.37,-353.36 570.54,-348.06 560.07,-346.48 561.37,-353.36"/>
</a>
</g>
</g>
<!-- Node46 -->
<g id="Node000046" class="node">
<title>Node46</title>
<g id="a_Node000046"><a xlink:href="_t_detector_8h.html" target="_top" xlink:title=" ">
<polygon fill="white" stroke="#666666" points="805.12,-350.75 738.88,-350.75 738.88,-331.5 805.12,-331.5 805.12,-350.75"/>
<text text-anchor="middle" x="772" y="-337.25" font-family="Helvetica,sans-Serif" font-size="10.00">TDetector.h</text>
</a>
</g>
</g>
<!-- Node1&#45;&gt;Node46 -->
<g id="edge64_Node000001_Node000046" class="edge">
<title>Node1&#45;&gt;Node46</title>
<g id="a_edge64_Node000001_Node000046"><a xlink:title=" ">
<path fill="none" stroke="#63b8ff" d="M343.67,-392.59C415.68,-384.1 633,-358.5 727.41,-347.38"/>
<polygon fill="#63b8ff" stroke="#63b8ff" points="727.54,-350.89 737.06,-346.24 726.72,-343.94 727.54,-350.89"/>
</a>
</g>
</g>
<!-- Node4&#45;&gt;Node2 -->
<g id="edge4_Node000004_Node000002" class="edge">
<title>Node4&#45;&gt;Node2</title>
<g id="a_edge4_Node000004_Node000002"><a xlink:title=" ">
<path fill="none" stroke="#63b8ff" d="M571.82,-339.29C469.13,-336.21 137.61,-324.09 100,-295.5 75.86,-277.15 76,-261.95 76,-231.62 76,-231.62 76,-231.62 76,-119.12 76,-87.79 83.78,-52.12 89.39,-30.5"/>
<polygon fill="#63b8ff" stroke="#63b8ff" points="92.72,-31.56 91.96,-21 85.97,-29.73 92.72,-31.56"/>
</a>
</g>
</g>
<!-- Node5 -->
<g id="Node000005" class="node">
<title>Node5</title>
<g id="a_Node000005"><a xlink:title=" ">
<polygon fill="#e0e0e0" stroke="#999999" points="868.5,-129.75 825.5,-129.75 825.5,-110.5 868.5,-110.5 868.5,-129.75"/>
<text text-anchor="middle" x="847" y="-116.25" font-family="Helvetica,sans-Serif" font-size="10.00">cmath</text>
</a>
</g>
</g>
<!-- Node4&#45;&gt;Node5 -->
<g id="edge5_Node000004_Node000005" class="edge">
<title>Node4&#45;&gt;Node5</title>
<g id="a_edge5_Node000004_Node000005"><a xlink:title=" ">
<path fill="none" stroke="#63b8ff" d="M631.78,-332.17C654.5,-325.1 685.74,-313.12 709,-295.5 768.15,-250.7 816.27,-174.88 836.58,-139.87"/>
<polygon fill="#63b8ff" stroke="#63b8ff" points="839.53,-141.77 841.43,-131.34 833.44,-138.31 839.53,-141.77"/>
</a>
</g>
</g>
<!-- Node6 -->
<g id="Node000006" class="node">
<title>Node6</title>
<g id="a_Node000006"><a xlink:href="_t_fragment_8h.html" target="_top" xlink:title=" ">
<polygon fill="white" stroke="#666666" points="700.38,-295.5 629.62,-295.5 629.62,-276.25 700.38,-276.25 700.38,-295.5"/>
<text text-anchor="middle" x="665" y="-282" font-family="Helvetica,sans-Serif" font-size="10.00">TFragment.h</text>
</a>
</g>
</g>
<!-- Node4&#45;&gt;Node6 -->
<g id="edge6_Node000004_Node000006" class="edge">
<title>Node4&#45;&gt;Node6</title>
<g id="a_edge6_Node000004_Node000006"><a xlink:title=" ">
<path fill="none" stroke="#63b8ff" d="M612.69,-331.09C621.7,-323.47 634.83,-312.37 645.68,-303.2"/>
<polygon fill="#63b8ff" stroke="#63b8ff" points="647.94,-305.88 653.31,-296.75 643.42,-300.53 647.94,-305.88"/>
</a>
</g>
</g>
<!-- Node7 -->
<g id="Node000007" class="node">
<title>Node7</title>
<g id="a_Node000007"><a xlink:href="_t_detector_hit_8h.html" target="_top" xlink:title=" ">
<polygon fill="white" stroke="#666666" points="704.5,-240.25 625.5,-240.25 625.5,-221 704.5,-221 704.5,-240.25"/>
<text text-anchor="middle" x="665" y="-226.75" font-family="Helvetica,sans-Serif" font-size="10.00">TDetectorHit.h</text>
</a>
</g>
</g>
<!-- Node4&#45;&gt;Node7 -->
<g id="edge63_Node000004_Node000007" class="edge">
<title>Node4&#45;&gt;Node7</title>
<g id="a_edge63_Node000004_Node000007"><a xlink:title=" ">
<path fill="none" stroke="#63b8ff" d="M603.23,-331.32C605.32,-318.47 610.41,-294.18 621,-276.25 627.18,-265.79 636.33,-255.97 644.7,-248.22"/>
<polygon fill="#63b8ff" stroke="#63b8ff" points="646.94,-250.91 652.14,-241.68 642.32,-245.65 646.94,-250.91"/>
</a>
</g>
</g>
<!-- Node6&#45;&gt;Node7 -->
<g id="edge7_Node000006_Node000007" class="edge">
<title>Node6&#45;&gt;Node7</title>
<g id="a_edge7_Node000006_Node000007"><a xlink:title=" ">
<path fill="none" stroke="#63b8ff" d="M665,-276.08C665,-269.57 665,-260.42 665,-252.12"/>
<polygon fill="#63b8ff" stroke="#63b8ff" points="668.5,-252.12 665,-242.12 661.5,-252.12 668.5,-252.12"/>
</a>
</g>
</g>
<!-- Node8 -->
<g id="Node000008" class="node">
<title>Node8</title>
<g id="a_Node000008"><a xlink:title=" ">
<polygon fill="#e0e0e0" stroke="#999999" points="1331.5,-74.5 1288.5,-74.5 1288.5,-55.25 1331.5,-55.25 1331.5,-74.5"/>
<text text-anchor="middle" x="1310" y="-61" font-family="Helvetica,sans-Serif" font-size="10.00">vector</text>
</a>
</g>
</g>
<!-- Node6&#45;&gt;Node8 -->
<g id="edge60_Node000006_Node000008" class="edge">
<title>Node6&#45;&gt;Node8</title>
<g id="a_edge60_Node000006_Node000008"><a xlink:title=" ">
<path fill="none" stroke="#63b8ff" d="M700.82,-280.33C819.42,-264.63 1196.83,-209.24 1286,-129.75 1298.58,-118.53 1304.59,-100.05 1307.45,-85.84"/>
<polygon fill="#63b8ff" stroke="#63b8ff" points="1310.86,-86.67 1308.99,-76.24 1303.95,-85.56 1310.86,-86.67"/>
</a>
</g>
</g>
<!-- Node20 -->
<g id="Node000020" class="node">
<title>Node20</title>
<g id="a_Node000020"><a xlink:title=" ">
<polygon fill="#e0e0e0" stroke="#999999" points="784.75,-185 731.25,-185 731.25,-165.75 784.75,-165.75 784.75,-185"/>
<text text-anchor="middle" x="758" y="-171.5" font-family="Helvetica,sans-Serif" font-size="10.00">Rtypes.h</text>
</a>
</g>
</g>
<!-- Node6&#45;&gt;Node20 -->
<g id="edge62_Node000006_Node000020" class="edge">
<title>Node6&#45;&gt;Node20</title>
<g id="a_edge62_Node000006_Node000020"><a xlink:title=" ">
<path fill="none" stroke="#63b8ff" d="M676.19,-275.96C686.58,-267.39 702.2,-253.77 714,-240.25 726.58,-225.84 738.74,-207.76 747.08,-194.52"/>
<polygon fill="#63b8ff" stroke="#63b8ff" points="749.83,-196.73 752.09,-186.38 743.87,-193.06 749.83,-196.73"/>
</a>
</g>
</g>
<!-- Node22 -->
<g id="Node000022" class="node">
<title>Node22</title>
<g id="a_Node000022"><a xlink:href="_t_p_p_g_8h.html" target="_top" xlink:title=" ">
<polygon fill="white" stroke="#666666" points="553.25,-185 502.75,-185 502.75,-165.75 553.25,-165.75 553.25,-185"/>
<text text-anchor="middle" x="528" y="-171.5" font-family="Helvetica,sans-Serif" font-size="10.00">TPPG.h</text>
</a>
</g>
</g>
<!-- Node6&#45;&gt;Node22 -->
<g id="edge58_Node000006_Node000022" class="edge">
<title>Node6&#45;&gt;Node22</title>
<g id="a_edge58_Node000006_Node000022"><a xlink:title=" ">
<path fill="none" stroke="#63b8ff" d="M629.29,-277.05C606.53,-270.5 577.7,-259.11 558,-240.25 545.54,-228.33 537.71,-210.2 533.19,-196.3"/>
<polygon fill="#63b8ff" stroke="#63b8ff" points="536.61,-195.52 530.45,-186.89 529.88,-197.47 536.61,-195.52"/>
</a>
</g>
</g>
<!-- Node24 -->
<g id="Node000024" class="node">
<title>Node24</title>
<g id="a_Node000024"><a xlink:title=" ">
<polygon fill="#e0e0e0" stroke="#999999" points="346.75,-19.25 293.25,-19.25 293.25,0 346.75,0 346.75,-19.25"/>
<text text-anchor="middle" x="320" y="-5.75" font-family="Helvetica,sans-Serif" font-size="10.00">iostream</text>
</a>
</g>
</g>
<!-- Node6&#45;&gt;Node24 -->
<g id="edge59_Node000006_Node000024" class="edge">
<title>Node6&#45;&gt;Node24</title>
<g id="a_edge59_Node000006_Node000024"><a xlink:title=" ">
<path fill="none" stroke="#63b8ff" d="M629.33,-284.95C513,-284.23 152,-274.12 152,-176.38 152,-176.38 152,-176.38 152,-119.12 152,-57.6 232.49,-29.26 282.04,-17.65"/>
<polygon fill="#63b8ff" stroke="#63b8ff" points="282.52,-21.13 291.53,-15.56 281.01,-14.29 282.52,-21.13"/>
</a>
</g>
</g>
<!-- Node45 -->
<g id="Node000045" class="node">
<title>Node45</title>
<g id="a_Node000045"><a xlink:title=" ">
<polygon fill="#e0e0e0" stroke="#999999" points="607,-240.25 567,-240.25 567,-221 607,-221 607,-240.25"/>
<text text-anchor="middle" x="587" y="-226.75" font-family="Helvetica,sans-Serif" font-size="10.00">ctime</text>
</a>
</g>
</g>
<!-- Node6&#45;&gt;Node45 -->
<g id="edge61_Node000006_Node000045" class="edge">
<title>Node6&#45;&gt;Node45</title>
<g id="a_edge61_Node000006_Node000045"><a xlink:title=" ">
<path fill="none" stroke="#63b8ff" d="M651.77,-275.84C640.23,-267.96 623.23,-256.36 609.55,-247.02"/>
<polygon fill="#63b8ff" stroke="#63b8ff" points="611.78,-244.3 601.55,-241.56 607.83,-250.08 611.78,-244.3"/>
</a>
</g>
</g>
<!-- Node7&#45;&gt;Node3 -->
<g id="edge22_Node000007_Node000003" class="edge">
<title>Node7&#45;&gt;Node3</title>
<g id="a_edge22_Node000007_Node000003"><a xlink:title=" ">
<path fill="none" stroke="#63b8ff" d="M625.19,-222.36C622.09,-221.87 619,-221.41 616,-221 458.56,-199.39 414.57,-209.68 255,-185.31"/>
<polygon fill="#63b8ff" stroke="#63b8ff" points="255.73,-181.88 245.31,-183.81 254.66,-188.8 255.73,-181.88"/>
</a>
</g>
</g>
<!-- Node7&#45;&gt;Node8 -->
<g id="edge8_Node000007_Node000008" class="edge">
<title>Node7&#45;&gt;Node8</title>
<g id="a_edge8_Node000007_Node000008"><a xlink:title=" ">
<path fill="none" stroke="#63b8ff" d="M671.61,-220.55C681.51,-207.37 701.27,-182.67 722,-165.75 759.84,-134.87 770.46,-125.33 817,-110.5 903.18,-83.03 1180.95,-70.57 1276.98,-67"/>
<polygon fill="#63b8ff" stroke="#63b8ff" points="1276.89,-70.51 1286.76,-66.65 1276.64,-63.51 1276.89,-70.51"/>
</a>
</g>
</g>
<!-- Node9 -->
<g id="Node000009" class="node">
<title>Node9</title>
<g id="a_Node000009"><a xlink:href="_t_channel_8h.html" target="_top" xlink:title=" ">
<polygon fill="white" stroke="#666666" points="1050.38,-185 985.62,-185 985.62,-165.75 1050.38,-165.75 1050.38,-185"/>
<text text-anchor="middle" x="1018" y="-171.5" font-family="Helvetica,sans-Serif" font-size="10.00">TChannel.h</text>
</a>
</g>
</g>
<!-- Node7&#45;&gt;Node9 -->
<g id="edge9_Node000007_Node000009" class="edge">
<title>Node7&#45;&gt;Node9</title>
<g id="a_edge9_Node000007_Node000009"><a xlink:title=" ">
<path fill="none" stroke="#63b8ff" d="M704.81,-223.62C771.45,-213.57 905.1,-193.41 974.27,-182.97"/>
<polygon fill="#63b8ff" stroke="#63b8ff" points="974.74,-186.44 984.11,-181.49 973.7,-179.52 974.74,-186.44"/>
</a>
</g>
</g>
<!-- Node19 -->
<g id="Node000019" class="node">
<title>Node19</title>
<g id="a_Node000019"><a xlink:title=" ">
<polygon fill="#e0e0e0" stroke="#999999" points="796,-74.5 738,-74.5 738,-55.25 796,-55.25 796,-74.5"/>
<text text-anchor="middle" x="767" y="-61" font-family="Helvetica,sans-Serif" font-size="10.00">TObject.h</text>
</a>
</g>
</g>
<!-- Node7&#45;&gt;Node19 -->
<g id="edge23_Node000007_Node000019" class="edge">
<title>Node7&#45;&gt;Node19</title>
<g id="a_edge23_Node000007_Node000019"><a xlink:title=" ">
<path fill="none" stroke="#63b8ff" d="M663.91,-220.56C661.83,-199.22 659.49,-144.98 684,-110.5 694.57,-95.62 711.69,-85.24 727.65,-78.25"/>
<polygon fill="#63b8ff" stroke="#63b8ff" points="728.5,-81.68 736.48,-74.71 725.89,-75.19 728.5,-81.68"/>
</a>
</g>
</g>
<!-- Node7&#45;&gt;Node20 -->
<g id="edge24_Node000007_Node000020" class="edge">
<title>Node7&#45;&gt;Node20</title>
<g id="a_edge24_Node000007_Node000020"><a xlink:title=" ">
<path fill="none" stroke="#63b8ff" d="M680.78,-220.59C694.94,-212.48 715.98,-200.43 732.53,-190.96"/>
<polygon fill="#63b8ff" stroke="#63b8ff" points="733.89,-194.21 740.83,-186.2 730.42,-188.14 733.89,-194.21"/>
</a>
</g>
</g>
<!-- Node21 -->
<g id="Node000021" class="node">
<title>Node21</title>
<g id="a_Node000021"><a xlink:title=" ">
<polygon fill="#e0e0e0" stroke="#999999" points="636.75,-185 571.25,-185 571.25,-165.75 636.75,-165.75 636.75,-185"/>
<text text-anchor="middle" x="604" y="-171.5" font-family="Helvetica,sans-Serif" font-size="10.00">TRandom.h</text>
</a>
</g>
</g>
<!-- Node7&#45;&gt;Node21 -->
<g id="edge25_Node000007_Node000021" class="edge">
<title>Node7&#45;&gt;Node21</title>
<g id="a_edge25_Node000007_Node000021"><a xlink:title=" ">
<path fill="none" stroke="#63b8ff" d="M654.65,-220.59C645.92,-212.97 633.21,-201.87 622.7,-192.7"/>
<polygon fill="#63b8ff" stroke="#63b8ff" points="625.17,-190.21 615.34,-186.27 620.57,-195.48 625.17,-190.21"/>
</a>
</g>
</g>
<!-- Node7&#45;&gt;Node22 -->
<g id="edge26_Node000007_Node000022" class="edge">
<title>Node7&#45;&gt;Node22</title>
<g id="a_edge26_Node000007_Node000022"><a xlink:title=" ">
<path fill="none" stroke="#63b8ff" d="M641.76,-220.59C619.81,-212.06 586.65,-199.17 561.79,-189.51"/>
<polygon fill="#63b8ff" stroke="#63b8ff" points="563.35,-186.36 552.76,-186 560.82,-192.89 563.35,-186.36"/>
</a>
</g>
</g>
<!-- Node43 -->
<g id="Node000043" class="node">
<title>Node43</title>
<g id="a_Node000043"><a xlink:href="_t_transient_bits_8h.html" target="_top" xlink:title=" ">
<polygon fill="white" stroke="#666666" points="348.62,-185 261.38,-185 261.38,-165.75 348.62,-165.75 348.62,-185"/>
<text text-anchor="middle" x="305" y="-171.5" font-family="Helvetica,sans-Serif" font-size="10.00">TTransientBits.h</text>
</a>
</g>
</g>
<!-- Node7&#45;&gt;Node43 -->
<g id="edge55_Node000007_Node000043" class="edge">
<title>Node7&#45;&gt;Node43</title>
<g id="a_edge55_Node000007_Node000043"><a xlink:title=" ">
<path fill="none" stroke="#63b8ff" d="M625.17,-222.51C622.07,-221.98 618.99,-221.48 616,-221 526.63,-206.73 422.46,-192.21 360.22,-183.76"/>
<polygon fill="#63b8ff" stroke="#63b8ff" points="360.98,-180.33 350.6,-182.46 360.04,-187.27 360.98,-180.33"/>
</a>
</g>
</g>
<!-- Node9&#45;&gt;Node5 -->
<g id="edge11_Node000009_Node000005" class="edge">
<title>Node9&#45;&gt;Node5</title>
<g id="a_edge11_Node000009_Node000005"><a xlink:title=" ">
<path fill="none" stroke="#63b8ff" d="M988.99,-165.34C958.7,-155.91 911.27,-141.14 879.67,-131.3"/>
<polygon fill="#63b8ff" stroke="#63b8ff" points="880.84,-128 870.25,-128.37 878.76,-134.68 880.84,-128"/>
</a>
</g>
</g>
<!-- Node10 -->
<g id="Node000010" class="node">
<title>Node10</title>
<g id="a_Node000010"><a xlink:title=" ">
<polygon fill="#e0e0e0" stroke="#999999" points="1455,-19.25 1415,-19.25 1415,0 1455,0 1455,-19.25"/>
<text text-anchor="middle" x="1435" y="-5.75" font-family="Helvetica,sans-Serif" font-size="10.00">string</text>
</a>
</g>
</g>
<!-- Node9&#45;&gt;Node10 -->
<g id="edge10_Node000009_Node000010" class="edge">
<title>Node9&#45;&gt;Node10</title>
<g id="a_edge10_Node000009_Node000010"><a xlink:title=" ">
<path fill="none" stroke="#63b8ff" d="M1050.54,-173.58C1148.62,-170.87 1436.33,-160.33 1464,-129.75 1489.48,-101.59 1465.36,-54.82 1448.4,-29.06"/>
<polygon fill="#63b8ff" stroke="#63b8ff" points="1451.36,-27.19 1442.8,-20.95 1445.6,-31.17 1451.36,-27.19"/>
</a>
</g>
</g>
<!-- Node11 -->
<g id="Node000011" class="node">
<title>Node11</title>
<g id="a_Node000011"><a xlink:title=" ">
<polygon fill="#e0e0e0" stroke="#999999" points="731.25,-129.75 692.75,-129.75 692.75,-110.5 731.25,-110.5 731.25,-129.75"/>
<text text-anchor="middle" x="712" y="-116.25" font-family="Helvetica,sans-Serif" font-size="10.00">utility</text>
</a>
</g>
</g>
<!-- Node9&#45;&gt;Node11 -->
<g id="edge12_Node000009_Node000011" class="edge">
<title>Node9&#45;&gt;Node11</title>
<g id="a_edge12_Node000009_Node000011"><a xlink:title=" ">
<path fill="none" stroke="#63b8ff" d="M985.25,-168.68C925.81,-158.33 800.93,-136.6 742.88,-126.5"/>
<polygon fill="#63b8ff" stroke="#63b8ff" points="743.5,-123.05 733.05,-124.79 742.3,-129.95 743.5,-123.05"/>
</a>
</g>
</g>
<!-- Node12 -->
<g id="Node000012" class="node">
<title>Node12</title>
<g id="a_Node000012"><a xlink:title=" ">
<polygon fill="#e0e0e0" stroke="#999999" points="969.38,-129.75 886.62,-129.75 886.62,-110.5 969.38,-110.5 969.38,-129.75"/>
<text text-anchor="middle" x="928" y="-116.25" font-family="Helvetica,sans-Serif" font-size="10.00">unordered_map</text>
</a>
</g>
</g>
<!-- Node9&#45;&gt;Node12 -->
<g id="edge13_Node000009_Node000012" class="edge">
<title>Node9&#45;&gt;Node12</title>
<g id="a_edge13_Node000009_Node000012"><a xlink:title=" ">
<path fill="none" stroke="#63b8ff" d="M1002.73,-165.34C989.16,-157.31 969.05,-145.41 953.1,-135.98"/>
<polygon fill="#63b8ff" stroke="#63b8ff" points="955.03,-133.05 944.64,-130.97 951.47,-139.08 955.03,-133.05"/>
</a>
</g>
</g>
<!-- Node13 -->
<g id="Node000013" class="node">
<title>Node13</title>
<g id="a_Node000013"><a xlink:title=" ">
<polygon fill="#e0e0e0" stroke="#999999" points="1048.5,-129.75 987.5,-129.75 987.5,-110.5 1048.5,-110.5 1048.5,-129.75"/>
<text text-anchor="middle" x="1018" y="-116.25" font-family="Helvetica,sans-Serif" font-size="10.00">TNamed.h</text>
</a>
</g>
</g>
<!-- Node9&#45;&gt;Node13 -->
<g id="edge14_Node000009_Node000013" class="edge">
<title>Node9&#45;&gt;Node13</title>
<g id="a_edge14_Node000009_Node000013"><a xlink:title=" ">
<path fill="none" stroke="#63b8ff" d="M1018,-165.58C1018,-159.07 1018,-149.92 1018,-141.62"/>
<polygon fill="#63b8ff" stroke="#63b8ff" points="1021.5,-141.62 1018,-131.62 1014.5,-141.62 1021.5,-141.62"/>
</a>
</g>
</g>
<!-- Node14 -->
<g id="Node000014" class="node">
<title>Node14</title>
<g id="a_Node000014"><a xlink:title=" ">
<polygon fill="#e0e0e0" stroke="#999999" points="1115.5,-129.75 1066.5,-129.75 1066.5,-110.5 1115.5,-110.5 1115.5,-129.75"/>
<text text-anchor="middle" x="1091" y="-116.25" font-family="Helvetica,sans-Serif" font-size="10.00">TTree.h</text>
</a>
</g>
</g>
<!-- Node9&#45;&gt;Node14 -->
<g id="edge15_Node000009_Node000014" class="edge">
<title>Node9&#45;&gt;Node14</title>
<g id="a_edge15_Node000009_Node000014"><a xlink:title=" ">
<path fill="none" stroke="#63b8ff" d="M1030.38,-165.34C1041.15,-157.49 1056.97,-145.95 1069.75,-136.62"/>
<polygon fill="#63b8ff" stroke="#63b8ff" points="1071.56,-139.64 1077.58,-130.92 1067.44,-133.98 1071.56,-139.64"/>
</a>
</g>
</g>
<!-- Node15 -->
<g id="Node000015" class="node">
<title>Node15</title>
<g id="a_Node000015"><a xlink:title=" ">
<polygon fill="#e0e0e0" stroke="#999999" points="1188.88,-129.75 1133.12,-129.75 1133.12,-110.5 1188.88,-110.5 1188.88,-129.75"/>
<text text-anchor="middle" x="1161" y="-116.25" font-family="Helvetica,sans-Serif" font-size="10.00">TGraph.h</text>
</a>
</g>
</g>
<!-- Node9&#45;&gt;Node15 -->
<g id="edge16_Node000009_Node000015" class="edge">
<title>Node9&#45;&gt;Node15</title>
<g id="a_edge16_Node000009_Node000015"><a xlink:title=" ">
<path fill="none" stroke="#63b8ff" d="M1042.26,-165.34C1065.27,-156.77 1100.09,-143.81 1126.08,-134.13"/>
<polygon fill="#63b8ff" stroke="#63b8ff" points="1127.05,-137.5 1135.2,-130.73 1124.61,-130.94 1127.05,-137.5"/>
</a>
</g>
</g>
<!-- Node16 -->
<g id="Node000016" class="node">
<title>Node16</title>
<g id="a_Node000016"><a xlink:title=" ">
<polygon fill="#e0e0e0" stroke="#999999" points="1276.62,-129.75 1207.38,-129.75 1207.38,-110.5 1276.62,-110.5 1276.62,-129.75"/>
<text text-anchor="middle" x="1242" y="-116.25" font-family="Helvetica,sans-Serif" font-size="10.00">TClassRef.h</text>
</a>
</g>
</g>
<!-- Node9&#45;&gt;Node16 -->
<g id="edge17_Node000009_Node000016" class="edge">
<title>Node9&#45;&gt;Node16</title>
<g id="a_edge17_Node000009_Node000016"><a xlink:title=" ">
<path fill="none" stroke="#63b8ff" d="M1050.57,-166.63C1088.89,-157.52 1152.76,-142.34 1196.09,-132.04"/>
<polygon fill="#63b8ff" stroke="#63b8ff" points="1196.78,-135.47 1205.7,-129.75 1195.17,-128.66 1196.78,-135.47"/>
</a>
</g>
</g>
<!-- Node17 -->
<g id="Node000017" class="node">
<title>Node17</title>
<g id="a_Node000017"><a xlink:href="_t_priority_value_8h.html" target="_top" xlink:title=" ">
<polygon fill="white" stroke="#666666" points="1455.12,-129.75 1370.88,-129.75 1370.88,-110.5 1455.12,-110.5 1455.12,-129.75"/>
<text text-anchor="middle" x="1413" y="-116.25" font-family="Helvetica,sans-Serif" font-size="10.00">TPriorityValue.h</text>
</a>
</g>
</g>
<!-- Node9&#45;&gt;Node17 -->
<g id="edge18_Node000009_Node000017" class="edge">
<title>Node9&#45;&gt;Node17</title>
<g id="a_edge18_Node000009_Node000017"><a xlink:title=" ">
<path fill="none" stroke="#63b8ff" d="M1050.66,-169.97C1118.71,-160.8 1276.26,-139.56 1359.4,-128.35"/>
<polygon fill="#63b8ff" stroke="#63b8ff" points="1359.68,-131.84 1369.12,-127.04 1358.75,-124.91 1359.68,-131.84"/>
</a>
</g>
</g>
<!-- Node17&#45;&gt;Node8 -->
<g id="edge21_Node000017_Node000008" class="edge">
<title>Node17&#45;&gt;Node8</title>
<g id="a_edge21_Node000017_Node000008"><a xlink:title=" ">
<path fill="none" stroke="#63b8ff" d="M1395.53,-110.09C1379.69,-101.91 1356.09,-89.71 1337.69,-80.19"/>
<polygon fill="#63b8ff" stroke="#63b8ff" points="1339.39,-77.13 1328.9,-75.65 1336.18,-83.35 1339.39,-77.13"/>
</a>
</g>
</g>
<!-- Node17&#45;&gt;Node10 -->
<g id="edge20_Node000017_Node000010" class="edge">
<title>Node17&#45;&gt;Node10</title>
<g id="a_edge20_Node000017_Node000010"><a xlink:title=" ">
<path fill="none" stroke="#63b8ff" d="M1414.8,-110.25C1418.3,-93 1426.09,-54.58 1430.91,-30.81"/>
<polygon fill="#63b8ff" stroke="#63b8ff" points="1434.32,-31.61 1432.87,-21.11 1427.46,-30.22 1434.32,-31.61"/>
</a>
</g>
</g>
<!-- Node18 -->
<g id="Node000018" class="node">
<title>Node18</title>
<g id="a_Node000018"><a xlink:title=" ">
<polygon fill="#e0e0e0" stroke="#999999" points="1406.62,-74.5 1355.38,-74.5 1355.38,-55.25 1406.62,-55.25 1406.62,-74.5"/>
<text text-anchor="middle" x="1381" y="-61" font-family="Helvetica,sans-Serif" font-size="10.00">ostream</text>
</a>
</g>
</g>
<!-- Node17&#45;&gt;Node18 -->
<g id="edge19_Node000017_Node000018" class="edge">
<title>Node17&#45;&gt;Node18</title>
<g id="a_edge19_Node000017_Node000018"><a xlink:title=" ">
<path fill="none" stroke="#63b8ff" d="M1407.72,-110.33C1403.53,-103.36 1397.52,-93.37 1392.27,-84.62"/>
<polygon fill="#63b8ff" stroke="#63b8ff" points="1395.33,-82.93 1387.18,-76.16 1389.33,-86.53 1395.33,-82.93"/>
</a>
</g>
</g>
<!-- Node22&#45;&gt;Node11 -->
<g id="edge28_Node000022_Node000011" class="edge">
<title>Node22&#45;&gt;Node11</title>
<g id="a_edge28_Node000022_Node000011"><a xlink:title=" ">
<path fill="none" stroke="#63b8ff" d="M553.58,-166.97C587.09,-157.28 645.75,-140.3 681.52,-129.95"/>
<polygon fill="#63b8ff" stroke="#63b8ff" points="682.18,-133.4 690.81,-127.26 680.23,-126.68 682.18,-133.4"/>
</a>
</g>
</g>
<!-- Node22&#45;&gt;Node19 -->
<g id="edge30_Node000022_Node000019" class="edge">
<title>Node22&#45;&gt;Node19</title>
<g id="a_edge30_Node000022_Node000019"><a xlink:title=" ">
<path fill="none" stroke="#63b8ff" d="M545.24,-165.28C576.55,-148.8 640.47,-115.24 651,-110.5 677.04,-98.77 707.16,-87.25 730.18,-78.84"/>
<polygon fill="#63b8ff" stroke="#63b8ff" points="731.22,-82.19 739.44,-75.5 728.84,-75.61 731.22,-82.19"/>
</a>
</g>
</g>
<!-- Node23 -->
<g id="Node000023" class="node">
<title>Node23</title>
<g id="a_Node000023"><a xlink:title=" ">
<polygon fill="#e0e0e0" stroke="#999999" points="470.38,-129.75 435.62,-129.75 435.62,-110.5 470.38,-110.5 470.38,-129.75"/>
<text text-anchor="middle" x="453" y="-116.25" font-family="Helvetica,sans-Serif" font-size="10.00">map</text>
</a>
</g>
</g>
<!-- Node22&#45;&gt;Node23 -->
<g id="edge27_Node000022_Node000023" class="edge">
<title>Node22&#45;&gt;Node23</title>
<g id="a_edge27_Node000022_Node000023"><a xlink:title=" ">
<path fill="none" stroke="#63b8ff" d="M515.28,-165.34C504.29,-157.54 488.16,-146.09 475.07,-136.79"/>
<polygon fill="#63b8ff" stroke="#63b8ff" points="477.2,-134.01 467.02,-131.08 473.15,-139.72 477.2,-134.01"/>
</a>
</g>
</g>
<!-- Node22&#45;&gt;Node24 -->
<g id="edge29_Node000022_Node000024" class="edge">
<title>Node22&#45;&gt;Node24</title>
<g id="a_edge29_Node000022_Node000024"><a xlink:title=" ">
<path fill="none" stroke="#63b8ff" d="M502.6,-171.85C456.33,-166.71 361.03,-153.46 339,-129.75 314.01,-102.85 314.34,-56.93 317.03,-30.65"/>
<polygon fill="#63b8ff" stroke="#63b8ff" points="320.46,-31.36 318.24,-21 313.52,-30.48 320.46,-31.36"/>
</a>
</g>
</g>
<!-- Node25 -->
<g id="Node000025" class="node">
<title>Node25</title>
<g id="a_Node000025"><a xlink:title=" ">
<polygon fill="#e0e0e0" stroke="#999999" points="561.12,-129.75 488.88,-129.75 488.88,-110.5 561.12,-110.5 561.12,-129.75"/>
<text text-anchor="middle" x="525" y="-116.25" font-family="Helvetica,sans-Serif" font-size="10.00">TCollection.h</text>
</a>
</g>
</g>
<!-- Node22&#45;&gt;Node25 -->
<g id="edge31_Node000022_Node000025" class="edge">
<title>Node22&#45;&gt;Node25</title>
<g id="a_edge31_Node000022_Node000025"><a xlink:title=" ">
<path fill="none" stroke="#63b8ff" d="M527.5,-165.58C527.13,-158.99 526.61,-149.71 526.14,-141.32"/>
<polygon fill="#63b8ff" stroke="#63b8ff" points="529.65,-141.41 525.59,-131.62 522.66,-141.8 529.65,-141.41"/>
</a>
</g>
</g>
<!-- Node26 -->
<g id="Node000026" class="node">
<title>Node26</title>
<g id="a_Node000026"><a xlink:href="_globals_8h.html" target="_top" xlink:title=" ">
<polygon fill="white" stroke="#666666" points="720.25,-74.5 663.75,-74.5 663.75,-55.25 720.25,-55.25 720.25,-74.5"/>
<text text-anchor="middle" x="692" y="-61" font-family="Helvetica,sans-Serif" font-size="10.00">Globals.h</text>
</a>
</g>
</g>
<!-- Node22&#45;&gt;Node26 -->
<g id="edge32_Node000022_Node000026" class="edge">
<title>Node22&#45;&gt;Node26</title>
<g id="a_edge32_Node000022_Node000026"><a xlink:title=" ">
<path fill="none" stroke="#63b8ff" d="M538.94,-165.42C554.81,-152.61 585.35,-128.59 613,-110.5 629.6,-99.64 648.99,-88.67 664.4,-80.32"/>
<polygon fill="#63b8ff" stroke="#63b8ff" points="665.85,-83.51 673.02,-75.7 662.55,-77.34 665.85,-83.51"/>
</a>
</g>
</g>
<!-- Node38 -->
<g id="Node000038" class="node">
<title>Node38</title>
<g id="a_Node000038"><a xlink:href="_t_singleton_8h.html" target="_top" xlink:title=" ">
<polygon fill="white" stroke="#666666" points="418,-129.75 348,-129.75 348,-110.5 418,-110.5 418,-129.75"/>
<text text-anchor="middle" x="383" y="-116.25" font-family="Helvetica,sans-Serif" font-size="10.00">TSingleton.h</text>
</a>
</g>
</g>
<!-- Node22&#45;&gt;Node38 -->
<g id="edge47_Node000022_Node000038" class="edge">
<title>Node22&#45;&gt;Node38</title>
<g id="a_edge47_Node000022_Node000038"><a xlink:title=" ">
<path fill="none" stroke="#63b8ff" d="M503.4,-165.34C480.07,-156.77 444.76,-143.81 418.4,-134.13"/>
<polygon fill="#63b8ff" stroke="#63b8ff" points="419.73,-130.89 409.14,-130.72 417.32,-137.46 419.73,-130.89"/>
</a>
</g>
</g>
<!-- Node26&#45;&gt;Node2 -->
<g id="edge37_Node000026_Node000002" class="edge">
<title>Node26&#45;&gt;Node2</title>
<g id="a_edge37_Node000026_Node000002"><a xlink:title=" ">
<path fill="none" stroke="#63b8ff" d="M663.53,-60.4C649.53,-58.75 632.39,-56.79 617,-55.25 432.16,-36.73 210.01,-19.36 127.72,-13.09"/>
<polygon fill="#63b8ff" stroke="#63b8ff" points="128.15,-9.61 117.91,-12.34 127.62,-16.59 128.15,-9.61"/>
</a>
</g>
</g>
<!-- Node26&#45;&gt;Node10 -->
<g id="edge36_Node000026_Node000010" class="edge">
<title>Node26&#45;&gt;Node10</title>
<g id="a_edge36_Node000026_Node000010"><a xlink:title=" ">
<path fill="none" stroke="#63b8ff" d="M720.59,-56.72C723.42,-56.16 726.26,-55.65 729,-55.25 987.36,-17.24 1303.59,-11.59 1403.32,-10.76"/>
<polygon fill="#63b8ff" stroke="#63b8ff" points="1403.16,-14.26 1413.14,-10.69 1403.12,-7.26 1403.16,-14.26"/>
</a>
</g>
</g>
<!-- Node26&#45;&gt;Node24 -->
<g id="edge33_Node000026_Node000024" class="edge">
<title>Node26&#45;&gt;Node24</title>
<g id="a_edge33_Node000026_Node000024"><a xlink:title=" ">
<path fill="none" stroke="#63b8ff" d="M663.59,-57.74C659.05,-56.85 654.41,-55.99 650,-55.25 527.12,-34.71 495.25,-37.45 372,-19.25 367.59,-18.6 362.98,-17.88 358.41,-17.15"/>
<polygon fill="#63b8ff" stroke="#63b8ff" points="359.16,-13.73 348.72,-15.57 358.03,-20.64 359.16,-13.73"/>
</a>
</g>
</g>
<!-- Node27 -->
<g id="Node000027" class="node">
<title>Node27</title>
<g id="a_Node000027"><a xlink:title=" ">
<polygon fill="#e0e0e0" stroke="#999999" points="924.88,-19.25 875.12,-19.25 875.12,0 924.88,0 924.88,-19.25"/>
<text text-anchor="middle" x="900" y="-5.75" font-family="Helvetica,sans-Serif" font-size="10.00">iomanip</text>
</a>
</g>
</g>
<!-- Node26&#45;&gt;Node27 -->
<g id="edge34_Node000026_Node000027" class="edge">
<title>Node26&#45;&gt;Node27</title>
<g id="a_edge34_Node000026_Node000027"><a xlink:title=" ">
<path fill="none" stroke="#63b8ff" d="M720.49,-56.58C757.73,-47.05 823.01,-30.34 863.74,-19.91"/>
<polygon fill="#63b8ff" stroke="#63b8ff" points="864.5,-23.33 873.32,-17.46 862.76,-16.54 864.5,-23.33"/>
</a>
</g>
</g>
<!-- Node28 -->
<g id="Node000028" class="node">
<title>Node28</title>
<g id="a_Node000028"><a xlink:title=" ">
<polygon fill="#e0e0e0" stroke="#999999" points="1001,-19.25 943,-19.25 943,0 1001,0 1001,-19.25"/>
<text text-anchor="middle" x="972" y="-5.75" font-family="Helvetica,sans-Serif" font-size="10.00">stdexcept</text>
</a>
</g>
</g>
<!-- Node26&#45;&gt;Node28 -->
<g id="edge35_Node000026_Node000028" class="edge">
<title>Node26&#45;&gt;Node28</title>
<g id="a_edge35_Node000026_Node000028"><a xlink:title=" ">
<path fill="none" stroke="#63b8ff" d="M720.65,-57.03C723.47,-56.41 726.29,-55.8 729,-55.25 816.18,-37.45 841.41,-37.46 931.55,-19.66"/>
<polygon fill="#63b8ff" stroke="#63b8ff" points="931.97,-23.14 941.09,-17.75 930.6,-16.28 931.97,-23.14"/>
</a>
</g>
</g>
<!-- Node29 -->
<g id="Node000029" class="node">
<title>Node29</title>
<g id="a_Node000029"><a xlink:title=" ">
<polygon fill="#e0e0e0" stroke="#999999" points="1063.25,-19.25 1018.75,-19.25 1018.75,0 1063.25,0 1063.25,-19.25"/>
<text text-anchor="middle" x="1041" y="-5.75" font-family="Helvetica,sans-Serif" font-size="10.00">cstdlib</text>
</a>
</g>
</g>
<!-- Node26&#45;&gt;Node29 -->
<g id="edge38_Node000026_Node000029" class="edge">
<title>Node26&#45;&gt;Node29</title>
<g id="a_edge38_Node000026_Node000029"><a xlink:title=" ">
<path fill="none" stroke="#63b8ff" d="M720.62,-56.9C723.45,-56.3 726.27,-55.74 729,-55.25 849.41,-33.56 884.61,-43.58 1007.44,-19.51"/>
<polygon fill="#63b8ff" stroke="#63b8ff" points="1007.8,-23.01 1016.92,-17.61 1006.43,-16.14 1007.8,-23.01"/>
</a>
</g>
</g>
<!-- Node30 -->
<g id="Node000030" class="node">
<title>Node30</title>
<g id="a_Node000030"><a xlink:title=" ">
<polygon fill="#e0e0e0" stroke="#999999" points="440.75,-19.25 381.25,-19.25 381.25,0 440.75,0 440.75,-19.25"/>
<text text-anchor="middle" x="411" y="-5.75" font-family="Helvetica,sans-Serif" font-size="10.00">execinfo.h</text>
</a>
</g>
</g>
<!-- Node26&#45;&gt;Node30 -->
<g id="edge39_Node000026_Node000030" class="edge">
<title>Node26&#45;&gt;Node30</title>
<g id="a_edge39_Node000026_Node000030"><a xlink:title=" ">
<path fill="none" stroke="#63b8ff" d="M663.55,-57.94C659.02,-57.02 654.39,-56.09 650,-55.25 564.78,-38.83 540.43,-37.12 452.28,-19.64"/>
<polygon fill="#63b8ff" stroke="#63b8ff" points="453.18,-16.25 442.69,-17.73 451.81,-23.12 453.18,-16.25"/>
</a>
</g>
</g>
<!-- Node31 -->
<g id="Node000031" class="node">
<title>Node31</title>
<g id="a_Node000031"><a xlink:title=" ">
<polygon fill="#e0e0e0" stroke="#999999" points="509.25,-19.25 458.75,-19.25 458.75,0 509.25,0 509.25,-19.25"/>
<text text-anchor="middle" x="484" y="-5.75" font-family="Helvetica,sans-Serif" font-size="10.00">cxxabi.h</text>
</a>
</g>
</g>
<!-- Node26&#45;&gt;Node31 -->
<g id="edge40_Node000026_Node000031" class="edge">
<title>Node26&#45;&gt;Node31</title>
<g id="a_edge40_Node000026_Node000031"><a xlink:title=" ">
<path fill="none" stroke="#63b8ff" d="M663.51,-56.58C626.37,-47.07 561.35,-30.43 520.59,-19.99"/>
<polygon fill="#63b8ff" stroke="#63b8ff" points="521.55,-16.63 511,-17.54 519.82,-23.41 521.55,-16.63"/>
</a>
</g>
</g>
<!-- Node32 -->
<g id="Node000032" class="node">
<title>Node32</title>
<g id="a_Node000032"><a xlink:title=" ">
<polygon fill="#e0e0e0" stroke="#999999" points="578.62,-19.25 527.38,-19.25 527.38,0 578.62,0 578.62,-19.25"/>
<text text-anchor="middle" x="553" y="-5.75" font-family="Helvetica,sans-Serif" font-size="10.00">sstream</text>
</a>
</g>
</g>
<!-- Node26&#45;&gt;Node32 -->
<g id="edge41_Node000026_Node000032" class="edge">
<title>Node26&#45;&gt;Node32</title>
<g id="a_edge41_Node000026_Node000032"><a xlink:title=" ">
<path fill="none" stroke="#63b8ff" d="M668.42,-54.84C646.16,-46.31 612.51,-33.42 587.28,-23.76"/>
<polygon fill="#63b8ff" stroke="#63b8ff" points="588.7,-20.55 578.11,-20.24 586.19,-27.09 588.7,-20.55"/>
</a>
</g>
</g>
<!-- Node33 -->
<g id="Node000033" class="node">
<title>Node33</title>
<g id="a_Node000033"><a xlink:title=" ">
<polygon fill="#e0e0e0" stroke="#999999" points="633.5,-19.25 596.5,-19.25 596.5,0 633.5,0 633.5,-19.25"/>
<text text-anchor="middle" x="615" y="-5.75" font-family="Helvetica,sans-Serif" font-size="10.00">array</text>
</a>
</g>
</g>
<!-- Node26&#45;&gt;Node33 -->
<g id="edge42_Node000026_Node000033" class="edge">
<title>Node26&#45;&gt;Node33</title>
<g id="a_edge42_Node000026_Node000033"><a xlink:title=" ">
<path fill="none" stroke="#63b8ff" d="M678.94,-54.84C667.54,-46.96 650.77,-35.36 637.26,-26.02"/>
<polygon fill="#63b8ff" stroke="#63b8ff" points="639.59,-23.37 629.37,-20.56 635.6,-29.13 639.59,-23.37"/>
</a>
</g>
</g>
<!-- Node34 -->
<g id="Node000034" class="node">
<title>Node34</title>
<g id="a_Node000034"><a xlink:title=" ">
<polygon fill="#e0e0e0" stroke="#999999" points="1534.25,-19.25 1483.75,-19.25 1483.75,0 1534.25,0 1534.25,-19.25"/>
<text text-anchor="middle" x="1509" y="-5.75" font-family="Helvetica,sans-Serif" font-size="10.00">memory</text>
</a>
</g>
</g>
<!-- Node26&#45;&gt;Node34 -->
<g id="edge43_Node000026_Node000034" class="edge">
<title>Node26&#45;&gt;Node34</title>
<g id="a_edge43_Node000026_Node000034"><a xlink:title=" ">
<path fill="none" stroke="#63b8ff" d="M720.59,-56.67C723.42,-56.12 726.26,-55.63 729,-55.25 1052.9,-9.94 1139.26,-58.13 1464,-19.25 1466.67,-18.93 1469.41,-18.55 1472.17,-18.12"/>
<polygon fill="#63b8ff" stroke="#63b8ff" points="1472.65,-21.59 1481.91,-16.43 1471.46,-14.69 1472.65,-21.59"/>
</a>
</g>
</g>
<!-- Node35 -->
<g id="Node000035" class="node">
<title>Node35</title>
<g id="a_Node000035"><a xlink:title=" ">
<polygon fill="#e0e0e0" stroke="#999999" points="700.88,-19.25 651.12,-19.25 651.12,0 700.88,0 700.88,-19.25"/>
<text text-anchor="middle" x="676" y="-5.75" font-family="Helvetica,sans-Serif" font-size="10.00">unistd.h</text>
</a>
</g>
</g>
<!-- Node26&#45;&gt;Node35 -->
<g id="edge44_Node000026_Node000035" class="edge">
<title>Node26&#45;&gt;Node35</title>
<g id="a_edge44_Node000026_Node000035"><a xlink:title=" ">
<path fill="none" stroke="#63b8ff" d="M689.36,-55.08C687.36,-48.42 684.52,-38.99 681.98,-30.53"/>
<polygon fill="#63b8ff" stroke="#63b8ff" points="685.36,-29.63 679.14,-21.06 678.66,-31.64 685.36,-29.63"/>
</a>
</g>
</g>
<!-- Node36 -->
<g id="Node000036" class="node">
<title>Node36</title>
<g id="a_Node000036"><a xlink:title=" ">
<polygon fill="#e0e0e0" stroke="#999999" points="778.75,-19.25 719.25,-19.25 719.25,0 778.75,0 778.75,-19.25"/>
<text text-anchor="middle" x="749" y="-5.75" font-family="Helvetica,sans-Serif" font-size="10.00">sys/wait.h</text>
</a>
</g>
</g>
<!-- Node26&#45;&gt;Node36 -->
<g id="edge45_Node000026_Node000036" class="edge">
<title>Node26&#45;&gt;Node36</title>
<g id="a_edge45_Node000026_Node000036"><a xlink:title=" ">
<path fill="none" stroke="#63b8ff" d="M701.67,-54.84C709.74,-47.3 721.47,-36.35 731.22,-27.23"/>
<polygon fill="#63b8ff" stroke="#63b8ff" points="733.45,-29.94 738.37,-20.56 728.67,-24.83 733.45,-29.94"/>
</a>
</g>
</g>
<!-- Node37 -->
<g id="Node000037" class="node">
<title>Node37</title>
<g id="a_Node000037"><a xlink:title=" ">
<polygon fill="#e0e0e0" stroke="#999999" points="857.12,-19.25 796.88,-19.25 796.88,0 857.12,0 857.12,-19.25"/>
<text text-anchor="middle" x="827" y="-5.75" font-family="Helvetica,sans-Serif" font-size="10.00">sys/prctl.h</text>
</a>
</g>
</g>
<!-- Node26&#45;&gt;Node37 -->
<g id="edge46_Node000026_Node000037" class="edge">
<title>Node26&#45;&gt;Node37</title>
<g id="a_edge46_Node000026_Node000037"><a xlink:title=" ">
<path fill="none" stroke="#63b8ff" d="M714.9,-54.84C736.43,-46.35 768.91,-33.54 793.38,-23.89"/>
<polygon fill="#63b8ff" stroke="#63b8ff" points="794.56,-27.18 802.58,-20.26 791.99,-20.67 794.56,-27.18"/>
</a>
</g>
</g>
<!-- Node38&#45;&gt;Node19 -->
<g id="edge49_Node000038_Node000019" class="edge">
<title>Node38&#45;&gt;Node19</title>
<g id="a_edge49_Node000038_Node000019"><a xlink:title=" ">
<path fill="none" stroke="#63b8ff" d="M418.02,-112.01C421.05,-111.47 424.08,-110.96 427,-110.5 557.01,-90.04 593.87,-97.09 726.6,-74.75"/>
<polygon fill="#63b8ff" stroke="#63b8ff" points="726.84,-78.26 736.11,-73.12 725.66,-71.36 726.84,-78.26"/>
</a>
</g>
</g>
<!-- Node38&#45;&gt;Node24 -->
<g id="edge48_Node000038_Node000024" class="edge">
<title>Node38&#45;&gt;Node24</title>
<g id="a_edge48_Node000038_Node000024"><a xlink:title=" ">
<path fill="none" stroke="#63b8ff" d="M418.06,-112.23C421.08,-111.64 424.1,-111.06 427,-110.5 513.35,-93.86 674.49,-121.8 617,-55.25 581.03,-13.61 426.37,-27.75 372,-19.25 367.6,-18.56 362.99,-17.82 358.42,-17.08"/>
<polygon fill="#63b8ff" stroke="#63b8ff" points="359.17,-13.66 348.74,-15.49 358.03,-20.56 359.17,-13.66"/>
</a>
</g>
</g>
<!-- Node38&#45;&gt;Node26 -->
<g id="edge54_Node000038_Node000026" class="edge">
<title>Node38&#45;&gt;Node26</title>
<g id="a_edge54_Node000038_Node000026"><a xlink:title=" ">
<path fill="none" stroke="#63b8ff" d="M418.04,-112.15C421.07,-111.58 424.09,-111.02 427,-110.5 525.83,-92.84 551.25,-92.6 650,-74.5 650.82,-74.35 651.66,-74.19 652.49,-74.04"/>
<polygon fill="#63b8ff" stroke="#63b8ff" points="652.93,-77.52 662.08,-72.17 651.6,-70.65 652.93,-77.52"/>
</a>
</g>
</g>
<!-- Node39 -->
<g id="Node000039" class="node">
<title>Node39</title>
<g id="a_Node000039"><a xlink:title=" ">
<polygon fill="#e0e0e0" stroke="#999999" points="479.88,-74.5 412.12,-74.5 412.12,-55.25 479.88,-55.25 479.88,-74.5"/>
<text text-anchor="middle" x="446" y="-61" font-family="Helvetica,sans-Serif" font-size="10.00">TDirectory.h</text>
</a>
</g>
</g>
<!-- Node38&#45;&gt;Node39 -->
<g id="edge50_Node000038_Node000039" class="edge">
<title>Node38&#45;&gt;Node39</title>
<g id="a_edge50_Node000038_Node000039"><a xlink:title=" ">
<path fill="none" stroke="#63b8ff" d="M393.69,-110.09C402.7,-102.47 415.83,-91.37 426.68,-82.2"/>
<polygon fill="#63b8ff" stroke="#63b8ff" points="428.94,-84.88 434.31,-75.75 424.42,-79.53 428.94,-84.88"/>
</a>
</g>
</g>
<!-- Node40 -->
<g id="Node000040" class="node">
<title>Node40</title>
<g id="a_Node000040"><a xlink:title=" ">
<polygon fill="#e0e0e0" stroke="#999999" points="543.62,-74.5 498.38,-74.5 498.38,-55.25 543.62,-55.25 543.62,-74.5"/>
<text text-anchor="middle" x="521" y="-61" font-family="Helvetica,sans-Serif" font-size="10.00">TFile.h</text>
</a>
</g>
</g>
<!-- Node38&#45;&gt;Node40 -->
<g id="edge51_Node000038_Node000040" class="edge">
<title>Node38&#45;&gt;Node40</title>
<g id="a_edge51_Node000038_Node000040"><a xlink:title=" ">
<path fill="none" stroke="#63b8ff" d="M406.41,-110.09C428.65,-101.51 462.33,-88.52 487.42,-78.83"/>
<polygon fill="#63b8ff" stroke="#63b8ff" points="488.45,-82.18 496.52,-75.32 485.93,-75.65 488.45,-82.18"/>
</a>
</g>
</g>
<!-- Node41 -->
<g id="Node000041" class="node">
<title>Node41</title>
<g id="a_Node000041"><a xlink:title=" ">
<polygon fill="#e0e0e0" stroke="#999999" points="608,-74.5 562,-74.5 562,-55.25 608,-55.25 608,-74.5"/>
<text text-anchor="middle" x="585" y="-61" font-family="Helvetica,sans-Serif" font-size="10.00">TList.h</text>
</a>
</g>
</g>
<!-- Node38&#45;&gt;Node41 -->
<g id="edge52_Node000038_Node000041" class="edge">
<title>Node38&#45;&gt;Node41</title>
<g id="a_edge52_Node000038_Node000041"><a xlink:title=" ">
<path fill="none" stroke="#63b8ff" d="M417.86,-110.05C449.95,-101.67 499.17,-88.79 550.59,-75.13"/>
<polygon fill="#63b8ff" stroke="#63b8ff" points="551.36,-78.55 560.12,-72.59 549.56,-71.78 551.36,-78.55"/>
</a>
</g>
</g>
<!-- Node42 -->
<g id="Node000042" class="node">
<title>Node42</title>
<g id="a_Node000042"><a xlink:title=" ">
<polygon fill="#e0e0e0" stroke="#999999" points="394,-74.5 348,-74.5 348,-55.25 394,-55.25 394,-74.5"/>
<text text-anchor="middle" x="371" y="-61" font-family="Helvetica,sans-Serif" font-size="10.00">TKey.h</text>
</a>
</g>
</g>
<!-- Node38&#45;&gt;Node42 -->
<g id="edge53_Node000038_Node000042" class="edge">
<title>Node38&#45;&gt;Node42</title>
<g id="a_edge53_Node000038_Node000042"><a xlink:title=" ">
<path fill="none" stroke="#63b8ff" d="M381.02,-110.33C379.53,-103.74 377.44,-94.46 375.55,-86.07"/>
<polygon fill="#63b8ff" stroke="#63b8ff" points="378.97,-85.32 373.36,-76.34 372.14,-86.86 378.97,-85.32"/>
</a>
</g>
</g>
<!-- Node43&#45;&gt;Node24 -->
<g id="edge56_Node000043_Node000024" class="edge">
<title>Node43&#45;&gt;Node24</title>
<g id="a_edge56_Node000043_Node000024"><a xlink:title=" ">
<path fill="none" stroke="#63b8ff" d="M304.17,-165.33C302.54,-145.34 299.6,-95.91 306,-55.25 307.31,-46.93 309.86,-38.03 312.42,-30.39"/>
<polygon fill="#63b8ff" stroke="#63b8ff" points="315.67,-31.68 315.78,-21.09 309.09,-29.3 315.67,-31.68"/>
</a>
</g>
</g>
<!-- Node44 -->
<g id="Node000044" class="node">
<title>Node44</title>
<g id="a_Node000044"><a xlink:title=" ">
<polygon fill="#e0e0e0" stroke="#999999" points="253.88,-129.75 180.12,-129.75 180.12,-110.5 253.88,-110.5 253.88,-129.75"/>
<text text-anchor="middle" x="217" y="-116.25" font-family="Helvetica,sans-Serif" font-size="10.00">RtypesCore.h</text>
</a>
</g>
</g>
<!-- Node43&#45;&gt;Node44 -->
<g id="edge57_Node000043_Node000044" class="edge">
<title>Node43&#45;&gt;Node44</title>
<g id="a_edge57_Node000043_Node000044"><a xlink:title=" ">
<path fill="none" stroke="#63b8ff" d="M290.07,-165.34C276.8,-157.31 257.13,-145.41 241.55,-135.98"/>
<polygon fill="#63b8ff" stroke="#63b8ff" points="243.66,-133.17 233.3,-130.99 240.04,-139.16 243.66,-133.17"/>
</a>
</g>
</g>
<!-- Node46&#45;&gt;Node2 -->
<g id="edge65_Node000046_Node000002" class="edge">
<title>Node46&#45;&gt;Node2</title>
<g id="a_edge65_Node000046_Node000002"><a xlink:title=" ">
<path fill="none" stroke="#63b8ff" d="M738.47,-336.39C604.38,-321.23 114,-263.61 114,-231.62 114,-231.62 114,-231.62 114,-119.12 114,-87.79 106.22,-52.12 100.61,-30.5"/>
<polygon fill="#63b8ff" stroke="#63b8ff" points="104.03,-29.73 98.04,-21 97.28,-31.56 104.03,-29.73"/>
</a>
</g>
</g>
<!-- Node46&#45;&gt;Node6 -->
<g id="edge69_Node000046_Node000006" class="edge">
<title>Node46&#45;&gt;Node6</title>
<g id="a_edge69_Node000046_Node000006"><a xlink:title=" ">
<path fill="none" stroke="#63b8ff" d="M753.85,-331.09C737.32,-322.87 712.66,-310.59 693.5,-301.06"/>
<polygon fill="#63b8ff" stroke="#63b8ff" points="695.11,-297.95 684.6,-296.63 691.99,-304.22 695.11,-297.95"/>
</a>
</g>
</g>
<!-- Node46&#45;&gt;Node7 -->
<g id="edge70_Node000046_Node000007" class="edge">
<title>Node46&#45;&gt;Node7</title>
<g id="a_edge70_Node000046_Node000007"><a xlink:title=" ">
<path fill="none" stroke="#63b8ff" d="M763.24,-331.25C745.45,-313.21 704.81,-272 681.77,-248.63"/>
<polygon fill="#63b8ff" stroke="#63b8ff" points="684.45,-246.37 674.94,-241.7 679.47,-251.28 684.45,-246.37"/>
</a>
</g>
</g>
<!-- Node46&#45;&gt;Node8 -->
<g id="edge66_Node000046_Node000008" class="edge">
<title>Node46&#45;&gt;Node8</title>
<g id="a_edge66_Node000046_Node000008"><a xlink:title=" ">
<path fill="none" stroke="#63b8ff" d="M805.59,-337.33C927.98,-326.72 1343,-286.68 1343,-231.62 1343,-231.62 1343,-231.62 1343,-174.38 1343,-141.98 1329.37,-106.41 1319.63,-85.12"/>
<polygon fill="#63b8ff" stroke="#63b8ff" points="1322.85,-83.76 1315.38,-76.25 1316.54,-86.78 1322.85,-83.76"/>
</a>
</g>
</g>
<!-- Node46&#45;&gt;Node9 -->
<g id="edge71_Node000046_Node000009" class="edge">
<title>Node46&#45;&gt;Node9</title>
<g id="a_edge71_Node000046_Node000009"><a xlink:title=" ">
<path fill="none" stroke="#63b8ff" d="M785.58,-331.09C825.81,-304.3 944.75,-225.13 995.09,-191.63"/>
<polygon fill="#63b8ff" stroke="#63b8ff" points="996.82,-194.68 1003.21,-186.22 992.94,-188.85 996.82,-194.68"/>
</a>
</g>
</g>
<!-- Node46&#45;&gt;Node19 -->
<g id="edge68_Node000046_Node000019" class="edge">
<title>Node46&#45;&gt;Node19</title>
<g id="a_edge68_Node000046_Node000019"><a xlink:title=" ">
<path fill="none" stroke="#63b8ff" d="M774.8,-331.04C782.42,-305.19 802.39,-228.97 794,-165.75 790.22,-137.29 780.64,-105.44 773.97,-85.52"/>
<polygon fill="#63b8ff" stroke="#63b8ff" points="777.33,-84.54 770.77,-76.23 770.72,-86.83 777.33,-84.54"/>
</a>
</g>
</g>
<!-- Node46&#45;&gt;Node34 -->
<g id="edge67_Node000046_Node000034" class="edge">
<title>Node46&#45;&gt;Node34</title>
<g id="a_edge67_Node000046_Node000034"><a xlink:title=" ">
<path fill="none" stroke="#63b8ff" d="M805.15,-338.87C950.1,-332.97 1521,-305.04 1521,-231.62 1521,-231.62 1521,-231.62 1521,-119.12 1521,-88.22 1516.13,-52.66 1512.6,-30.92"/>
<polygon fill="#63b8ff" stroke="#63b8ff" points="1516.05,-30.35 1510.92,-21.08 1509.15,-31.53 1516.05,-30.35"/>
</a>
</g>
</g>
</g>
</svg>
