<?xml version="1.0" encoding="UTF-8" standalone="no"?>
<!DOCTYPE svg PUBLIC "-//W3C//DTD SVG 1.1//EN"
 "http://www.w3.org/Graphics/SVG/1.1/DTD/svg11.dtd">
<!-- Generated by graphviz version 12.2.0 (20241103.1931)
 -->
<!-- Title: TChannel.cxx Pages: 1 -->
<svg width="2132pt" height="248pt"
 viewBox="0.00 0.00 2132.38 248.25" xmlns="http://www.w3.org/2000/svg" xmlns:xlink="http://www.w3.org/1999/xlink">
<g id="graph0" class="graph" transform="scale(1 1) rotate(0) translate(4 244.25)">
<title>TChannel.cxx</title>
<!-- Node1 -->
<g id="Node000001" class="node">
<title>Node1</title>
<g id="a_Node000001"><a xlink:title=" ">
<polygon fill="#999999" stroke="#666666" points="880.5,-240.25 806.75,-240.25 806.75,-221 880.5,-221 880.5,-240.25"/>
<text text-anchor="middle" x="843.62" y="-226.75" font-family="Helvetica,sans-Serif" font-size="10.00">TChannel.cxx</text>
</a>
</g>
</g>
<!-- Node2 -->
<g id="Node000002" class="node">
<title>Node2</title>
<g id="a_Node000002"><a xlink:href="_t_channel_8h.html" target="_top" xlink:title=" ">
<polygon fill="white" stroke="#666666" points="750,-129.75 685.25,-129.75 685.25,-110.5 750,-110.5 750,-129.75"/>
<text text-anchor="middle" x="717.62" y="-116.25" font-family="Helvetica,sans-Serif" font-size="10.00">TChannel.h</text>
</a>
</g>
</g>
<!-- Node1&#45;&gt;Node2 -->
<g id="edge1_Node000001_Node000002" class="edge">
<title>Node1&#45;&gt;Node2</title>
<g id="a_edge1_Node000001_Node000002"><a xlink:title=" ">
<path fill="none" stroke="#63b8ff" d="M806.36,-229.69C772.16,-227.51 723.19,-218.26 698.62,-185 688.77,-171.65 695.92,-153.21 704.12,-139.57"/>
<polygon fill="#63b8ff" stroke="#63b8ff" points="706.86,-141.77 709.49,-131.5 701.03,-137.89 706.86,-141.77"/>
</a>
</g>
</g>
<!-- Node6 -->
<g id="Node000006" class="node">
<title>Node6</title>
<g id="a_Node000006"><a xlink:title=" ">
<polygon fill="#e0e0e0" stroke="#999999" points="518,-74.5 435.25,-74.5 435.25,-55.25 518,-55.25 518,-74.5"/>
<text text-anchor="middle" x="476.62" y="-61" font-family="Helvetica,sans-Serif" font-size="10.00">unordered_map</text>
</a>
</g>
</g>
<!-- Node1&#45;&gt;Node6 -->
<g id="edge19_Node000001_Node000006" class="edge">
<title>Node1&#45;&gt;Node6</title>
<g id="a_edge19_Node000001_Node000006"><a xlink:title=" ">
<path fill="none" stroke="#63b8ff" d="M806.41,-221.37C774.71,-213.74 728.28,-201.16 689.62,-185 617.09,-154.67 537.8,-105.73 499.66,-81.08"/>
<polygon fill="#63b8ff" stroke="#63b8ff" points="501.59,-78.16 491.3,-75.64 497.77,-84.03 501.59,-78.16"/>
</a>
</g>
</g>
<!-- Node13 -->
<g id="Node000013" class="node">
<title>Node13</title>
<g id="a_Node000013"><a xlink:title=" ">
<polygon fill="#e0e0e0" stroke="#999999" points="404.12,-19.25 361.12,-19.25 361.12,0 404.12,0 404.12,-19.25"/>
<text text-anchor="middle" x="382.62" y="-5.75" font-family="Helvetica,sans-Serif" font-size="10.00">vector</text>
</a>
</g>
</g>
<!-- Node1&#45;&gt;Node13 -->
<g id="edge20_Node000001_Node000013" class="edge">
<title>Node1&#45;&gt;Node13</title>
<g id="a_edge20_Node000001_Node000013"><a xlink:title=" ">
<path fill="none" stroke="#63b8ff" d="M806.61,-228.7C702.71,-225.74 414.04,-214.88 384.62,-185 343.79,-143.52 363.16,-65.99 375.34,-29.95"/>
<polygon fill="#63b8ff" stroke="#63b8ff" points="378.52,-31.46 378.59,-20.86 371.93,-29.1 378.52,-31.46"/>
</a>
</g>
</g>
<!-- Node14 -->
<g id="Node000014" class="node">
<title>Node14</title>
<g id="a_Node000014"><a xlink:title=" ">
<polygon fill="#e0e0e0" stroke="#999999" points="1159.62,-74.5 1101.62,-74.5 1101.62,-55.25 1159.62,-55.25 1159.62,-74.5"/>
<text text-anchor="middle" x="1130.62" y="-61" font-family="Helvetica,sans-Serif" font-size="10.00">stdexcept</text>
</a>
</g>
</g>
<!-- Node1&#45;&gt;Node14 -->
<g id="edge14_Node000001_Node000014" class="edge">
<title>Node1&#45;&gt;Node14</title>
<g id="a_edge14_Node000001_Node000014"><a xlink:title=" ">
<path fill="none" stroke="#63b8ff" d="M831.01,-220.64C820.92,-212.61 807.51,-199.83 801.62,-185 787.92,-150.45 808.03,-130.08 839.62,-110.5 933.15,-52.54 978.08,-92.41 1090.16,-74.7"/>
<polygon fill="#63b8ff" stroke="#63b8ff" points="1090.46,-78.2 1099.72,-73.06 1089.28,-71.3 1090.46,-78.2"/>
</a>
</g>
</g>
<!-- Node15 -->
<g id="Node000015" class="node">
<title>Node15</title>
<g id="a_Node000015"><a xlink:title=" ">
<polygon fill="#e0e0e0" stroke="#999999" points="520.12,-129.75 471.12,-129.75 471.12,-110.5 520.12,-110.5 520.12,-129.75"/>
<text text-anchor="middle" x="495.62" y="-116.25" font-family="Helvetica,sans-Serif" font-size="10.00">fstream</text>
</a>
</g>
</g>
<!-- Node1&#45;&gt;Node15 -->
<g id="edge15_Node000001_Node000015" class="edge">
<title>Node1&#45;&gt;Node15</title>
<g id="a_edge15_Node000001_Node000015"><a xlink:title=" ">
<path fill="none" stroke="#63b8ff" d="M806.59,-229.97C751.93,-229.11 647.62,-222.17 568.62,-185 545.15,-173.95 523.5,-153.08 509.97,-138.2"/>
<polygon fill="#63b8ff" stroke="#63b8ff" points="512.88,-136.2 503.65,-130.99 507.61,-140.81 512.88,-136.2"/>
</a>
</g>
</g>
<!-- Node16 -->
<g id="Node000016" class="node">
<title>Node16</title>
<g id="a_Node000016"><a xlink:title=" ">
<polygon fill="#e0e0e0" stroke="#999999" points="1299.38,-74.5 1245.88,-74.5 1245.88,-55.25 1299.38,-55.25 1299.38,-74.5"/>
<text text-anchor="middle" x="1272.62" y="-61" font-family="Helvetica,sans-Serif" font-size="10.00">iostream</text>
</a>
</g>
</g>
<!-- Node1&#45;&gt;Node16 -->
<g id="edge16_Node000001_Node000016" class="edge">
<title>Node1&#45;&gt;Node16</title>
<g id="a_edge16_Node000001_Node000016"><a xlink:title=" ">
<path fill="none" stroke="#63b8ff" d="M880.75,-228.73C957.33,-226.23 1129.68,-217.1 1177.62,-185 1209.39,-163.73 1196.22,-139.92 1220.62,-110.5 1229.49,-99.81 1241.08,-89.6 1251.07,-81.64"/>
<polygon fill="#63b8ff" stroke="#63b8ff" points="1253.01,-84.56 1258.81,-75.69 1248.75,-79.01 1253.01,-84.56"/>
</a>
</g>
</g>
<!-- Node17 -->
<g id="Node000017" class="node">
<title>Node17</title>
<g id="a_Node000017"><a xlink:title=" ">
<polygon fill="#e0e0e0" stroke="#999999" points="749.75,-185 707.5,-185 707.5,-165.75 749.75,-165.75 749.75,-185"/>
<text text-anchor="middle" x="728.62" y="-171.5" font-family="Helvetica,sans-Serif" font-size="10.00">fcntl.h</text>
</a>
</g>
</g>
<!-- Node1&#45;&gt;Node17 -->
<g id="edge17_Node000001_Node000017" class="edge">
<title>Node1&#45;&gt;Node17</title>
<g id="a_edge17_Node000001_Node000017"><a xlink:title=" ">
<path fill="none" stroke="#63b8ff" d="M824.12,-220.59C806.11,-212.25 779.1,-199.75 758.4,-190.16"/>
<polygon fill="#63b8ff" stroke="#63b8ff" points="760.15,-187.11 749.6,-186.09 757.21,-193.47 760.15,-187.11"/>
</a>
</g>
</g>
<!-- Node18 -->
<g id="Node000018" class="node">
<title>Node18</title>
<g id="a_Node000018"><a xlink:title=" ">
<polygon fill="#e0e0e0" stroke="#999999" points="1227.5,-74.5 1177.75,-74.5 1177.75,-55.25 1227.5,-55.25 1227.5,-74.5"/>
<text text-anchor="middle" x="1202.62" y="-61" font-family="Helvetica,sans-Serif" font-size="10.00">unistd.h</text>
</a>
</g>
</g>
<!-- Node1&#45;&gt;Node18 -->
<g id="edge18_Node000001_Node000018" class="edge">
<title>Node1&#45;&gt;Node18</title>
<g id="a_edge18_Node000001_Node000018"><a xlink:title=" ">
<path fill="none" stroke="#63b8ff" d="M838.7,-220.76C832.02,-207.39 822.24,-181.94 834.62,-165.75 839.8,-158.98 1074.8,-98.47 1166.51,-75.06"/>
<polygon fill="#63b8ff" stroke="#63b8ff" points="1167.17,-78.51 1175.99,-72.64 1165.44,-71.72 1167.17,-78.51"/>
</a>
</g>
</g>
<!-- Node19 -->
<g id="Node000019" class="node">
<title>Node19</title>
<g id="a_Node000019"><a xlink:title=" ">
<polygon fill="#e0e0e0" stroke="#999999" points="1368.25,-74.5 1317,-74.5 1317,-55.25 1368.25,-55.25 1368.25,-74.5"/>
<text text-anchor="middle" x="1342.62" y="-61" font-family="Helvetica,sans-Serif" font-size="10.00">sstream</text>
</a>
</g>
</g>
<!-- Node1&#45;&gt;Node19 -->
<g id="edge21_Node000001_Node000019" class="edge">
<title>Node1&#45;&gt;Node19</title>
<g id="a_edge21_Node000001_Node000019"><a xlink:title=" ">
<path fill="none" stroke="#63b8ff" d="M880.97,-227.63C960.46,-222.96 1143.8,-209.78 1200.62,-185 1254.98,-161.3 1304.66,-110 1328.23,-83.11"/>
<polygon fill="#63b8ff" stroke="#63b8ff" points="1330.6,-85.72 1334.46,-75.85 1325.29,-81.16 1330.6,-85.72"/>
</a>
</g>
</g>
<!-- Node20 -->
<g id="Node000020" class="node">
<title>Node20</title>
<g id="a_Node000020"><a xlink:title=" ">
<polygon fill="#e0e0e0" stroke="#999999" points="899.5,-185 843.75,-185 843.75,-165.75 899.5,-165.75 899.5,-185"/>
<text text-anchor="middle" x="871.62" y="-171.5" font-family="Helvetica,sans-Serif" font-size="10.00">algorithm</text>
</a>
</g>
</g>
<!-- Node1&#45;&gt;Node20 -->
<g id="edge22_Node000001_Node000020" class="edge">
<title>Node1&#45;&gt;Node20</title>
<g id="a_edge22_Node000001_Node000020"><a xlink:title=" ">
<path fill="none" stroke="#63b8ff" d="M848.25,-220.83C851.87,-213.94 857.05,-204.09 861.62,-195.41"/>
<polygon fill="#63b8ff" stroke="#63b8ff" points="864.64,-197.18 866.2,-186.7 858.44,-193.92 864.64,-197.18"/>
</a>
</g>
</g>
<!-- Node21 -->
<g id="Node000021" class="node">
<title>Node21</title>
<g id="a_Node000021"><a xlink:title=" ">
<polygon fill="#e0e0e0" stroke="#999999" points="957.25,-185 918,-185 918,-165.75 957.25,-165.75 957.25,-185"/>
<text text-anchor="middle" x="937.62" y="-171.5" font-family="Helvetica,sans-Serif" font-size="10.00">regex</text>
</a>
</g>
</g>
<!-- Node1&#45;&gt;Node21 -->
<g id="edge23_Node000001_Node000021" class="edge">
<title>Node1&#45;&gt;Node21</title>
<g id="a_edge23_Node000001_Node000021"><a xlink:title=" ">
<path fill="none" stroke="#63b8ff" d="M859.57,-220.59C873.89,-212.48 895.16,-200.43 911.88,-190.96"/>
<polygon fill="#63b8ff" stroke="#63b8ff" points="913.31,-194.17 920.28,-186.2 909.86,-188.08 913.31,-194.17"/>
</a>
</g>
</g>
<!-- Node22 -->
<g id="Node000022" class="node">
<title>Node22</title>
<g id="a_Node000022"><a xlink:title=" ">
<polygon fill="#e0e0e0" stroke="#999999" points="1020.25,-185 975,-185 975,-165.75 1020.25,-165.75 1020.25,-185"/>
<text text-anchor="middle" x="997.62" y="-171.5" font-family="Helvetica,sans-Serif" font-size="10.00">TFile.h</text>
</a>
</g>
</g>
<!-- Node1&#45;&gt;Node22 -->
<g id="edge24_Node000001_Node000022" class="edge">
<title>Node1&#45;&gt;Node22</title>
<g id="a_edge24_Node000001_Node000022"><a xlink:title=" ">
<path fill="none" stroke="#63b8ff" d="M869.75,-220.59C895.81,-211.58 935.94,-197.7 964.29,-187.9"/>
<polygon fill="#63b8ff" stroke="#63b8ff" points="965.15,-191.31 973.46,-184.73 962.87,-184.69 965.15,-191.31"/>
</a>
</g>
</g>
<!-- Node23 -->
<g id="Node000023" class="node">
<title>Node23</title>
<g id="a_Node000023"><a xlink:title=" ">
<polygon fill="#e0e0e0" stroke="#999999" points="1084.62,-185 1038.62,-185 1038.62,-165.75 1084.62,-165.75 1084.62,-185"/>
<text text-anchor="middle" x="1061.62" y="-171.5" font-family="Helvetica,sans-Serif" font-size="10.00">TKey.h</text>
</a>
</g>
</g>
<!-- Node1&#45;&gt;Node23 -->
<g id="edge25_Node000001_Node000023" class="edge">
<title>Node1&#45;&gt;Node23</title>
<g id="a_edge25_Node000001_Node000023"><a xlink:title=" ">
<path fill="none" stroke="#63b8ff" d="M880.75,-221.04C916.08,-212.8 970.98,-199.81 1027.32,-185.54"/>
<polygon fill="#63b8ff" stroke="#63b8ff" points="1027.93,-188.99 1036.76,-183.14 1026.2,-182.21 1027.93,-188.99"/>
</a>
</g>
</g>
<!-- Node24 -->
<g id="Node000024" class="node">
<title>Node24</title>
<g id="a_Node000024"><a xlink:title=" ">
<polygon fill="#e0e0e0" stroke="#999999" points="1168.38,-185 1102.88,-185 1102.88,-165.75 1168.38,-165.75 1168.38,-185"/>
<text text-anchor="middle" x="1135.62" y="-171.5" font-family="Helvetica,sans-Serif" font-size="10.00">TRandom.h</text>
</a>
</g>
</g>
<!-- Node1&#45;&gt;Node24 -->
<g id="edge26_Node000001_Node000024" class="edge">
<title>Node1&#45;&gt;Node24</title>
<g id="a_edge26_Node000001_Node000024"><a xlink:title=" ">
<path fill="none" stroke="#63b8ff" d="M880.95,-223.27C927.76,-215.24 1010.76,-200.77 1091.73,-185.32"/>
<polygon fill="#63b8ff" stroke="#63b8ff" points="1091.98,-188.84 1101.14,-183.52 1090.66,-181.96 1091.98,-188.84"/>
</a>
</g>
</g>
<!-- Node25 -->
<g id="Node000025" class="node">
<title>Node25</title>
<g id="a_Node000025"><a xlink:href="_stoppable_thread_8h.html" target="_top" xlink:title=" ">
<polygon fill="white" stroke="#666666" points="303.12,-74.5 206.12,-74.5 206.12,-55.25 303.12,-55.25 303.12,-74.5"/>
<text text-anchor="middle" x="254.62" y="-61" font-family="Helvetica,sans-Serif" font-size="10.00">StoppableThread.h</text>
</a>
</g>
</g>
<!-- Node1&#45;&gt;Node25 -->
<g id="edge27_Node000001_Node000025" class="edge">
<title>Node1&#45;&gt;Node25</title>
<g id="a_edge27_Node000001_Node000025"><a xlink:title=" ">
<path fill="none" stroke="#63b8ff" d="M806.34,-228.51C693.06,-224.85 358.18,-211.83 317.62,-185 282.77,-161.94 265.88,-113.06 258.86,-85.62"/>
<polygon fill="#63b8ff" stroke="#63b8ff" points="262.33,-85.1 256.64,-76.16 255.52,-86.7 262.33,-85.1"/>
</a>
</g>
</g>
<!-- Node31 -->
<g id="Node000031" class="node">
<title>Node31</title>
<g id="a_Node000031"><a xlink:href="_globals_8h.html" target="_top" xlink:title=" ">
<polygon fill="white" stroke="#666666" points="1593.88,-129.75 1537.38,-129.75 1537.38,-110.5 1593.88,-110.5 1593.88,-129.75"/>
<text text-anchor="middle" x="1565.62" y="-116.25" font-family="Helvetica,sans-Serif" font-size="10.00">Globals.h</text>
</a>
</g>
</g>
<!-- Node1&#45;&gt;Node31 -->
<g id="edge35_Node000001_Node000031" class="edge">
<title>Node1&#45;&gt;Node31</title>
<g id="a_edge35_Node000001_Node000031"><a xlink:title=" ">
<path fill="none" stroke="#63b8ff" d="M880.69,-229.06C965.65,-227.18 1180.66,-219.15 1356.62,-185 1419.44,-172.81 1490.19,-148.96 1531.17,-134.1"/>
<polygon fill="#63b8ff" stroke="#63b8ff" points="1532.3,-137.42 1540.48,-130.69 1529.89,-130.84 1532.3,-137.42"/>
</a>
</g>
</g>
<!-- Node42 -->
<g id="Node000042" class="node">
<title>Node42</title>
<g id="a_Node000042"><a xlink:href="_t_g_r_s_i_utilities_8h.html" target="_top" xlink:title=" ">
<polygon fill="white" stroke="#666666" points="479.88,-185 393.38,-185 393.38,-165.75 479.88,-165.75 479.88,-185"/>
<text text-anchor="middle" x="436.62" y="-171.5" font-family="Helvetica,sans-Serif" font-size="10.00">TGRSIUtilities.h</text>
</a>
</g>
</g>
<!-- Node1&#45;&gt;Node42 -->
<g id="edge51_Node000001_Node000042" class="edge">
<title>Node1&#45;&gt;Node42</title>
<g id="a_edge51_Node000001_Node000042"><a xlink:title=" ">
<path fill="none" stroke="#63b8ff" d="M806.43,-224.76C734.46,-215.34 575.85,-194.59 491.65,-183.57"/>
<polygon fill="#63b8ff" stroke="#63b8ff" points="492.15,-180.11 481.78,-182.28 491.24,-187.05 492.15,-180.11"/>
</a>
</g>
</g>
<!-- Node43 -->
<g id="Node000043" class="node">
<title>Node43</title>
<g id="a_Node000043"><a xlink:href="_t_mnemonic_8h.html" target="_top" xlink:title=" ">
<polygon fill="white" stroke="#666666" points="1347.88,-185 1273.38,-185 1273.38,-165.75 1347.88,-165.75 1347.88,-185"/>
<text text-anchor="middle" x="1310.62" y="-171.5" font-family="Helvetica,sans-Serif" font-size="10.00">TMnemonic.h</text>
</a>
</g>
</g>
<!-- Node1&#45;&gt;Node43 -->
<g id="edge55_Node000001_Node000043" class="edge">
<title>Node1&#45;&gt;Node43</title>
<g id="a_edge55_Node000001_Node000043"><a xlink:title=" ">
<path fill="none" stroke="#63b8ff" d="M880.8,-225.89C952.17,-218.63 1113.32,-201.86 1248.62,-185 1252.93,-184.46 1257.4,-183.88 1261.88,-183.29"/>
<polygon fill="#63b8ff" stroke="#63b8ff" points="1262,-186.8 1271.44,-181.99 1261.06,-179.87 1262,-186.8"/>
</a>
</g>
</g>
<!-- Node3 -->
<g id="Node000003" class="node">
<title>Node3</title>
<g id="a_Node000003"><a xlink:title=" ">
<polygon fill="#e0e0e0" stroke="#999999" points="994.62,-19.25 954.62,-19.25 954.62,0 994.62,0 994.62,-19.25"/>
<text text-anchor="middle" x="974.62" y="-5.75" font-family="Helvetica,sans-Serif" font-size="10.00">string</text>
</a>
</g>
</g>
<!-- Node2&#45;&gt;Node3 -->
<g id="edge2_Node000002_Node000003" class="edge">
<title>Node2&#45;&gt;Node3</title>
<g id="a_edge2_Node000002_Node000003"><a xlink:title=" ">
<path fill="none" stroke="#63b8ff" d="M750.22,-112.99C814.65,-100.85 952.14,-74.92 952.62,-74.5 965.25,-63.58 970.63,-45.06 972.93,-30.77"/>
<polygon fill="#63b8ff" stroke="#63b8ff" points="976.37,-31.44 974.08,-21.09 969.42,-30.61 976.37,-31.44"/>
</a>
</g>
</g>
<!-- Node4 -->
<g id="Node000004" class="node">
<title>Node4</title>
<g id="a_Node000004"><a xlink:title=" ">
<polygon fill="#e0e0e0" stroke="#999999" points="807.12,-74.5 764.12,-74.5 764.12,-55.25 807.12,-55.25 807.12,-74.5"/>
<text text-anchor="middle" x="785.62" y="-61" font-family="Helvetica,sans-Serif" font-size="10.00">cmath</text>
</a>
</g>
</g>
<!-- Node2&#45;&gt;Node4 -->
<g id="edge3_Node000002_Node000004" class="edge">
<title>Node2&#45;&gt;Node4</title>
<g id="a_edge3_Node000002_Node000004"><a xlink:title=" ">
<path fill="none" stroke="#63b8ff" d="M729.16,-110.09C739.09,-102.32 753.64,-90.92 765.48,-81.65"/>
<polygon fill="#63b8ff" stroke="#63b8ff" points="767.35,-84.63 773.07,-75.71 763.04,-79.12 767.35,-84.63"/>
</a>
</g>
</g>
<!-- Node5 -->
<g id="Node000005" class="node">
<title>Node5</title>
<g id="a_Node000005"><a xlink:title=" ">
<polygon fill="#e0e0e0" stroke="#999999" points="863.88,-74.5 825.38,-74.5 825.38,-55.25 863.88,-55.25 863.88,-74.5"/>
<text text-anchor="middle" x="844.62" y="-61" font-family="Helvetica,sans-Serif" font-size="10.00">utility</text>
</a>
</g>
</g>
<!-- Node2&#45;&gt;Node5 -->
<g id="edge4_Node000002_Node000005" class="edge">
<title>Node2&#45;&gt;Node5</title>
<g id="a_edge4_Node000002_Node000005"><a xlink:title=" ">
<path fill="none" stroke="#63b8ff" d="M739.17,-110.09C759.94,-101.38 791.55,-88.13 814.75,-78.4"/>
<polygon fill="#63b8ff" stroke="#63b8ff" points="815.8,-81.76 823.67,-74.66 813.09,-75.3 815.8,-81.76"/>
</a>
</g>
</g>
<!-- Node2&#45;&gt;Node6 -->
<g id="edge5_Node000002_Node000006" class="edge">
<title>Node2&#45;&gt;Node6</title>
<g id="a_edge5_Node000002_Node000006"><a xlink:title=" ">
<path fill="none" stroke="#63b8ff" d="M684.87,-111.89C644.72,-103.02 576.18,-87.87 528.75,-77.39"/>
<polygon fill="#63b8ff" stroke="#63b8ff" points="529.78,-74.03 519.26,-75.29 528.27,-80.87 529.78,-74.03"/>
</a>
</g>
</g>
<!-- Node7 -->
<g id="Node000007" class="node">
<title>Node7</title>
<g id="a_Node000007"><a xlink:title=" ">
<polygon fill="#e0e0e0" stroke="#999999" points="943.12,-74.5 882.12,-74.5 882.12,-55.25 943.12,-55.25 943.12,-74.5"/>
<text text-anchor="middle" x="912.62" y="-61" font-family="Helvetica,sans-Serif" font-size="10.00">TNamed.h</text>
</a>
</g>
</g>
<!-- Node2&#45;&gt;Node7 -->
<g id="edge6_Node000002_Node000007" class="edge">
<title>Node2&#45;&gt;Node7</title>
<g id="a_edge6_Node000002_Node000007"><a xlink:title=" ">
<path fill="none" stroke="#63b8ff" d="M750.26,-110.21C783.47,-101.14 835.06,-87.06 871.15,-77.2"/>
<polygon fill="#63b8ff" stroke="#63b8ff" points="871.63,-80.7 880.35,-74.69 869.78,-73.95 871.63,-80.7"/>
</a>
</g>
</g>
<!-- Node8 -->
<g id="Node000008" class="node">
<title>Node8</title>
<g id="a_Node000008"><a xlink:title=" ">
<polygon fill="#e0e0e0" stroke="#999999" points="585.12,-74.5 536.12,-74.5 536.12,-55.25 585.12,-55.25 585.12,-74.5"/>
<text text-anchor="middle" x="560.62" y="-61" font-family="Helvetica,sans-Serif" font-size="10.00">TTree.h</text>
</a>
</g>
</g>
<!-- Node2&#45;&gt;Node8 -->
<g id="edge7_Node000002_Node000008" class="edge">
<title>Node2&#45;&gt;Node8</title>
<g id="a_edge7_Node000002_Node000008"><a xlink:title=" ">
<path fill="none" stroke="#63b8ff" d="M690.99,-110.09C664.96,-101.26 625.17,-87.77 596.39,-78.01"/>
<polygon fill="#63b8ff" stroke="#63b8ff" points="597.6,-74.72 587,-74.82 595.35,-81.35 597.6,-74.72"/>
</a>
</g>
</g>
<!-- Node9 -->
<g id="Node000009" class="node">
<title>Node9</title>
<g id="a_Node000009"><a xlink:title=" ">
<polygon fill="#e0e0e0" stroke="#999999" points="658.5,-74.5 602.75,-74.5 602.75,-55.25 658.5,-55.25 658.5,-74.5"/>
<text text-anchor="middle" x="630.62" y="-61" font-family="Helvetica,sans-Serif" font-size="10.00">TGraph.h</text>
</a>
</g>
</g>
<!-- Node2&#45;&gt;Node9 -->
<g id="edge8_Node000002_Node000009" class="edge">
<title>Node2&#45;&gt;Node9</title>
<g id="a_edge8_Node000002_Node000009"><a xlink:title=" ">
<path fill="none" stroke="#63b8ff" d="M702.87,-110.09C689.74,-102.06 670.3,-90.16 654.89,-80.73"/>
<polygon fill="#63b8ff" stroke="#63b8ff" points="657.1,-77.98 646.75,-75.74 653.45,-83.95 657.1,-77.98"/>
</a>
</g>
</g>
<!-- Node10 -->
<g id="Node000010" class="node">
<title>Node10</title>
<g id="a_Node000010"><a xlink:title=" ">
<polygon fill="#e0e0e0" stroke="#999999" points="746.25,-74.5 677,-74.5 677,-55.25 746.25,-55.25 746.25,-74.5"/>
<text text-anchor="middle" x="711.62" y="-61" font-family="Helvetica,sans-Serif" font-size="10.00">TClassRef.h</text>
</a>
</g>
</g>
<!-- Node2&#45;&gt;Node10 -->
<g id="edge9_Node000002_Node000010" class="edge">
<title>Node2&#45;&gt;Node10</title>
<g id="a_edge9_Node000002_Node000010"><a xlink:title=" ">
<path fill="none" stroke="#63b8ff" d="M716.63,-110.33C715.89,-103.74 714.85,-94.46 713.9,-86.07"/>
<polygon fill="#63b8ff" stroke="#63b8ff" points="717.4,-85.91 712.81,-76.36 710.45,-86.69 717.4,-85.91"/>
</a>
</g>
</g>
<!-- Node11 -->
<g id="Node000011" class="node">
<title>Node11</title>
<g id="a_Node000011"><a xlink:href="_t_priority_value_8h.html" target="_top" xlink:title=" ">
<polygon fill="white" stroke="#666666" points="1083.75,-74.5 999.5,-74.5 999.5,-55.25 1083.75,-55.25 1083.75,-74.5"/>
<text text-anchor="middle" x="1041.62" y="-61" font-family="Helvetica,sans-Serif" font-size="10.00">TPriorityValue.h</text>
</a>
</g>
</g>
<!-- Node2&#45;&gt;Node11 -->
<g id="edge10_Node000002_Node000011" class="edge">
<title>Node2&#45;&gt;Node11</title>
<g id="a_edge10_Node000002_Node000011"><a xlink:title=" ">
<path fill="none" stroke="#63b8ff" d="M750.27,-112.89C754.76,-112.07 759.3,-111.25 763.62,-110.5 805.62,-103.19 919.43,-85.13 987.71,-74.36"/>
<polygon fill="#63b8ff" stroke="#63b8ff" points="988.25,-77.82 997.58,-72.8 987.16,-70.9 988.25,-77.82"/>
</a>
</g>
</g>
<!-- Node11&#45;&gt;Node3 -->
<g id="edge12_Node000011_Node000003" class="edge">
<title>Node11&#45;&gt;Node3</title>
<g id="a_edge12_Node000011_Node000003"><a xlink:title=" ">
<path fill="none" stroke="#63b8ff" d="M1030.26,-54.84C1020.58,-47.15 1006.43,-35.9 994.82,-26.68"/>
<polygon fill="#63b8ff" stroke="#63b8ff" points="997.01,-23.95 987.01,-20.47 992.66,-29.43 997.01,-23.95"/>
</a>
</g>
</g>
<!-- Node12 -->
<g id="Node000012" class="node">
<title>Node12</title>
<g id="a_Node000012"><a xlink:title=" ">
<polygon fill="#e0e0e0" stroke="#999999" points="1067.25,-19.25 1016,-19.25 1016,0 1067.25,0 1067.25,-19.25"/>
<text text-anchor="middle" x="1041.62" y="-5.75" font-family="Helvetica,sans-Serif" font-size="10.00">ostream</text>
</a>
</g>
</g>
<!-- Node11&#45;&gt;Node12 -->
<g id="edge11_Node000011_Node000012" class="edge">
<title>Node11&#45;&gt;Node12</title>
<g id="a_edge11_Node000011_Node000012"><a xlink:title=" ">
<path fill="none" stroke="#63b8ff" d="M1041.62,-55.08C1041.62,-48.57 1041.62,-39.42 1041.62,-31.12"/>
<polygon fill="#63b8ff" stroke="#63b8ff" points="1045.13,-31.12 1041.63,-21.12 1038.13,-31.12 1045.13,-31.12"/>
</a>
</g>
</g>
<!-- Node11&#45;&gt;Node13 -->
<g id="edge13_Node000011_Node000013" class="edge">
<title>Node11&#45;&gt;Node13</title>
<g id="a_edge13_Node000011_Node000013"><a xlink:title=" ">
<path fill="none" stroke="#63b8ff" d="M999.09,-59.59C984.37,-58.15 967.78,-56.58 952.62,-55.25 748.63,-37.38 503.26,-19.33 415.67,-13"/>
<polygon fill="#63b8ff" stroke="#63b8ff" points="416.12,-9.52 405.89,-12.29 415.61,-16.5 416.12,-9.52"/>
</a>
</g>
</g>
<!-- Node25&#45;&gt;Node3 -->
<g id="edge31_Node000025_Node000003" class="edge">
<title>Node25&#45;&gt;Node3</title>
<g id="a_edge31_Node000025_Node000003"><a xlink:title=" ">
<path fill="none" stroke="#63b8ff" d="M303.55,-60.26C441.27,-50.07 829.63,-21.35 943.11,-12.96"/>
<polygon fill="#63b8ff" stroke="#63b8ff" points="943.17,-16.46 952.89,-12.23 942.66,-9.48 943.17,-16.46"/>
</a>
</g>
</g>
<!-- Node25&#45;&gt;Node13 -->
<g id="edge32_Node000025_Node000013" class="edge">
<title>Node25&#45;&gt;Node13</title>
<g id="a_edge32_Node000025_Node000013"><a xlink:title=" ">
<path fill="none" stroke="#63b8ff" d="M276.34,-54.84C296.66,-46.39 327.27,-33.65 350.43,-24.02"/>
<polygon fill="#63b8ff" stroke="#63b8ff" points="351.52,-27.36 359.41,-20.28 348.83,-20.89 351.52,-27.36"/>
</a>
</g>
</g>
<!-- Node26 -->
<g id="Node000026" class="node">
<title>Node26</title>
<g id="a_Node000026"><a xlink:title=" ">
<polygon fill="#e0e0e0" stroke="#999999" points="45.25,-19.25 0,-19.25 0,0 45.25,0 45.25,-19.25"/>
<text text-anchor="middle" x="22.62" y="-5.75" font-family="Helvetica,sans-Serif" font-size="10.00">atomic</text>
</a>
</g>
</g>
<!-- Node25&#45;&gt;Node26 -->
<g id="edge28_Node000025_Node000026" class="edge">
<title>Node25&#45;&gt;Node26</title>
<g id="a_edge28_Node000025_Node000026"><a xlink:title=" ">
<path fill="none" stroke="#63b8ff" d="M211.19,-54.76C172.97,-46.61 115.56,-34.05 56.67,-19.67"/>
<polygon fill="#63b8ff" stroke="#63b8ff" points="57.68,-16.31 47.14,-17.33 56.01,-23.11 57.68,-16.31"/>
</a>
</g>
</g>
<!-- Node27 -->
<g id="Node000027" class="node">
<title>Node27</title>
<g id="a_Node000027"><a xlink:title=" ">
<polygon fill="#e0e0e0" stroke="#999999" points="157.62,-19.25 63.62,-19.25 63.62,0 157.62,0 157.62,-19.25"/>
<text text-anchor="middle" x="110.62" y="-5.75" font-family="Helvetica,sans-Serif" font-size="10.00">condition_variable</text>
</a>
</g>
</g>
<!-- Node25&#45;&gt;Node27 -->
<g id="edge29_Node000025_Node000027" class="edge">
<title>Node25&#45;&gt;Node27</title>
<g id="a_edge29_Node000025_Node000027"><a xlink:title=" ">
<path fill="none" stroke="#63b8ff" d="M230.2,-54.84C207.03,-46.27 171.96,-33.31 145.79,-23.63"/>
<polygon fill="#63b8ff" stroke="#63b8ff" points="147.19,-20.41 136.59,-20.23 144.76,-26.98 147.19,-20.41"/>
</a>
</g>
</g>
<!-- Node28 -->
<g id="Node000028" class="node">
<title>Node28</title>
<g id="a_Node000028"><a xlink:title=" ">
<polygon fill="#e0e0e0" stroke="#999999" points="219.12,-19.25 176.12,-19.25 176.12,0 219.12,0 219.12,-19.25"/>
<text text-anchor="middle" x="197.62" y="-5.75" font-family="Helvetica,sans-Serif" font-size="10.00">thread</text>
</a>
</g>
</g>
<!-- Node25&#45;&gt;Node28 -->
<g id="edge30_Node000025_Node000028" class="edge">
<title>Node25&#45;&gt;Node28</title>
<g id="a_edge30_Node000025_Node000028"><a xlink:title=" ">
<path fill="none" stroke="#63b8ff" d="M244.96,-54.84C236.88,-47.3 225.16,-36.35 215.4,-27.23"/>
<polygon fill="#63b8ff" stroke="#63b8ff" points="217.95,-24.83 208.26,-20.56 213.18,-29.94 217.95,-24.83"/>
</a>
</g>
</g>
<!-- Node29 -->
<g id="Node000029" class="node">
<title>Node29</title>
<g id="a_Node000029"><a xlink:title=" ">
<polygon fill="#e0e0e0" stroke="#999999" points="272,-19.25 237.25,-19.25 237.25,0 272,0 272,-19.25"/>
<text text-anchor="middle" x="254.62" y="-5.75" font-family="Helvetica,sans-Serif" font-size="10.00">map</text>
</a>
</g>
</g>
<!-- Node25&#45;&gt;Node29 -->
<g id="edge33_Node000025_Node000029" class="edge">
<title>Node25&#45;&gt;Node29</title>
<g id="a_edge33_Node000025_Node000029"><a xlink:title=" ">
<path fill="none" stroke="#63b8ff" d="M254.62,-55.08C254.62,-48.57 254.62,-39.42 254.62,-31.12"/>
<polygon fill="#63b8ff" stroke="#63b8ff" points="258.13,-31.12 254.63,-21.12 251.13,-31.12 258.13,-31.12"/>
</a>
</g>
</g>
<!-- Node30 -->
<g id="Node000030" class="node">
<title>Node30</title>
<g id="a_Node000030"><a xlink:title=" ">
<polygon fill="#e0e0e0" stroke="#999999" points="343.38,-19.25 289.88,-19.25 289.88,0 343.38,0 343.38,-19.25"/>
<text text-anchor="middle" x="316.62" y="-5.75" font-family="Helvetica,sans-Serif" font-size="10.00">Rtypes.h</text>
</a>
</g>
</g>
<!-- Node25&#45;&gt;Node30 -->
<g id="edge34_Node000025_Node000030" class="edge">
<title>Node25&#45;&gt;Node30</title>
<g id="a_edge34_Node000025_Node000030"><a xlink:title=" ">
<path fill="none" stroke="#63b8ff" d="M265.14,-54.84C274.01,-47.22 286.94,-36.12 297.61,-26.95"/>
<polygon fill="#63b8ff" stroke="#63b8ff" points="299.81,-29.68 305.11,-20.51 295.25,-24.37 299.81,-29.68"/>
</a>
</g>
</g>
<!-- Node31&#45;&gt;Node3 -->
<g id="edge39_Node000031_Node000003" class="edge">
<title>Node31&#45;&gt;Node3</title>
<g id="a_edge39_Node000031_Node000003"><a xlink:title=" ">
<path fill="none" stroke="#63b8ff" d="M1541.91,-110.01C1519.16,-101.18 1483.89,-87.3 1453.62,-74.5 1434.34,-66.35 1430.89,-60.53 1410.62,-55.25 1236.18,-9.8 1184.1,-50.83 1006.62,-19.25 1006.38,-19.21 1006.14,-19.16 1005.9,-19.12"/>
<polygon fill="#63b8ff" stroke="#63b8ff" points="1006.82,-15.74 996.3,-16.97 1005.29,-22.57 1006.82,-15.74"/>
</a>
</g>
</g>
<!-- Node31&#45;&gt;Node14 -->
<g id="edge38_Node000031_Node000014" class="edge">
<title>Node31&#45;&gt;Node14</title>
<g id="a_edge38_Node000031_Node000014"><a xlink:title=" ">
<path fill="none" stroke="#63b8ff" d="M1537.06,-116.33C1461.88,-108.92 1258.85,-88.47 1171.33,-74.74"/>
<polygon fill="#63b8ff" stroke="#63b8ff" points="1171.95,-71.29 1161.51,-73.13 1170.82,-78.2 1171.95,-71.29"/>
</a>
</g>
</g>
<!-- Node31&#45;&gt;Node16 -->
<g id="edge36_Node000031_Node000016" class="edge">
<title>Node31&#45;&gt;Node16</title>
<g id="a_edge36_Node000031_Node000016"><a xlink:title=" ">
<path fill="none" stroke="#63b8ff" d="M1537.25,-114.89C1491.56,-107.92 1398.64,-93.15 1310.93,-75.09"/>
<polygon fill="#63b8ff" stroke="#63b8ff" points="1311.7,-71.67 1301.2,-73.06 1310.27,-78.52 1311.7,-71.67"/>
</a>
</g>
</g>
<!-- Node31&#45;&gt;Node18 -->
<g id="edge48_Node000031_Node000018" class="edge">
<title>Node31&#45;&gt;Node18</title>
<g id="a_edge48_Node000031_Node000018"><a xlink:title=" ">
<path fill="none" stroke="#63b8ff" d="M1537.28,-116.38C1481.89,-110.77 1355.21,-96.82 1239.01,-74.76"/>
<polygon fill="#63b8ff" stroke="#63b8ff" points="1239.77,-71.34 1229.29,-72.89 1238.45,-78.22 1239.77,-71.34"/>
</a>
</g>
</g>
<!-- Node31&#45;&gt;Node19 -->
<g id="edge45_Node000031_Node000019" class="edge">
<title>Node31&#45;&gt;Node19</title>
<g id="a_edge45_Node000031_Node000019"><a xlink:title=" ">
<path fill="none" stroke="#63b8ff" d="M1536.93,-112.27C1496.76,-102.68 1423.74,-85.24 1379.56,-74.69"/>
<polygon fill="#63b8ff" stroke="#63b8ff" points="1380.46,-71.31 1369.92,-72.39 1378.83,-78.12 1380.46,-71.31"/>
</a>
</g>
</g>
<!-- Node32 -->
<g id="Node000032" class="node">
<title>Node32</title>
<g id="a_Node000032"><a xlink:title=" ">
<polygon fill="#e0e0e0" stroke="#999999" points="1590.5,-74.5 1540.75,-74.5 1540.75,-55.25 1590.5,-55.25 1590.5,-74.5"/>
<text text-anchor="middle" x="1565.62" y="-61" font-family="Helvetica,sans-Serif" font-size="10.00">iomanip</text>
</a>
</g>
</g>
<!-- Node31&#45;&gt;Node32 -->
<g id="edge37_Node000031_Node000032" class="edge">
<title>Node31&#45;&gt;Node32</title>
<g id="a_edge37_Node000031_Node000032"><a xlink:title=" ">
<path fill="none" stroke="#63b8ff" d="M1565.62,-110.33C1565.62,-103.82 1565.62,-94.67 1565.62,-86.37"/>
<polygon fill="#63b8ff" stroke="#63b8ff" points="1569.13,-86.37 1565.63,-76.37 1562.13,-86.37 1569.13,-86.37"/>
</a>
</g>
</g>
<!-- Node33 -->
<g id="Node000033" class="node">
<title>Node33</title>
<g id="a_Node000033"><a xlink:title=" ">
<polygon fill="#e0e0e0" stroke="#999999" points="1650.75,-74.5 1608.5,-74.5 1608.5,-55.25 1650.75,-55.25 1650.75,-74.5"/>
<text text-anchor="middle" x="1629.62" y="-61" font-family="Helvetica,sans-Serif" font-size="10.00">cstdio</text>
</a>
</g>
</g>
<!-- Node31&#45;&gt;Node33 -->
<g id="edge40_Node000031_Node000033" class="edge">
<title>Node31&#45;&gt;Node33</title>
<g id="a_edge40_Node000031_Node000033"><a xlink:title=" ">
<path fill="none" stroke="#63b8ff" d="M1576.48,-110.09C1585.73,-102.4 1599.25,-91.15 1610.33,-81.93"/>
<polygon fill="#63b8ff" stroke="#63b8ff" points="1612.32,-84.83 1617.77,-75.74 1607.84,-79.45 1612.32,-84.83"/>
</a>
</g>
</g>
<!-- Node34 -->
<g id="Node000034" class="node">
<title>Node34</title>
<g id="a_Node000034"><a xlink:title=" ">
<polygon fill="#e0e0e0" stroke="#999999" points="1714.25,-74.5 1669,-74.5 1669,-55.25 1714.25,-55.25 1714.25,-74.5"/>
<text text-anchor="middle" x="1691.62" y="-61" font-family="Helvetica,sans-Serif" font-size="10.00">cstdint</text>
</a>
</g>
</g>
<!-- Node31&#45;&gt;Node34 -->
<g id="edge41_Node000031_Node000034" class="edge">
<title>Node31&#45;&gt;Node34</title>
<g id="a_edge41_Node000031_Node000034"><a xlink:title=" ">
<path fill="none" stroke="#63b8ff" d="M1587,-110.09C1606.91,-101.68 1636.86,-89.02 1659.63,-79.4"/>
<polygon fill="#63b8ff" stroke="#63b8ff" points="1660.9,-82.66 1668.75,-75.54 1658.18,-76.21 1660.9,-82.66"/>
</a>
</g>
</g>
<!-- Node35 -->
<g id="Node000035" class="node">
<title>Node35</title>
<g id="a_Node000035"><a xlink:title=" ">
<polygon fill="#e0e0e0" stroke="#999999" points="1776.88,-74.5 1732.38,-74.5 1732.38,-55.25 1776.88,-55.25 1776.88,-74.5"/>
<text text-anchor="middle" x="1754.62" y="-61" font-family="Helvetica,sans-Serif" font-size="10.00">cstdlib</text>
</a>
</g>
</g>
<!-- Node31&#45;&gt;Node35 -->
<g id="edge42_Node000031_Node000035" class="edge">
<title>Node31&#45;&gt;Node35</title>
<g id="a_edge42_Node000031_Node000035"><a xlink:title=" ">
<path fill="none" stroke="#63b8ff" d="M1594.33,-111.04C1628.34,-101.45 1684.93,-85.51 1720.97,-75.36"/>
<polygon fill="#63b8ff" stroke="#63b8ff" points="1721.76,-78.77 1730.44,-72.69 1719.86,-72.03 1721.76,-78.77"/>
</a>
</g>
</g>
<!-- Node36 -->
<g id="Node000036" class="node">
<title>Node36</title>
<g id="a_Node000036"><a xlink:title=" ">
<polygon fill="#e0e0e0" stroke="#999999" points="1854.38,-74.5 1794.88,-74.5 1794.88,-55.25 1854.38,-55.25 1854.38,-74.5"/>
<text text-anchor="middle" x="1824.62" y="-61" font-family="Helvetica,sans-Serif" font-size="10.00">execinfo.h</text>
</a>
</g>
</g>
<!-- Node31&#45;&gt;Node36 -->
<g id="edge43_Node000031_Node000036" class="edge">
<title>Node31&#45;&gt;Node36</title>
<g id="a_edge43_Node000031_Node000036"><a xlink:title=" ">
<path fill="none" stroke="#63b8ff" d="M1594.14,-113.51C1634.15,-105.59 1709.5,-90.54 1783.5,-74.92"/>
<polygon fill="#63b8ff" stroke="#63b8ff" points="1783.86,-78.42 1792.92,-72.93 1782.41,-71.57 1783.86,-78.42"/>
</a>
</g>
</g>
<!-- Node37 -->
<g id="Node000037" class="node">
<title>Node37</title>
<g id="a_Node000037"><a xlink:title=" ">
<polygon fill="#e0e0e0" stroke="#999999" points="1922.88,-74.5 1872.38,-74.5 1872.38,-55.25 1922.88,-55.25 1922.88,-74.5"/>
<text text-anchor="middle" x="1897.62" y="-61" font-family="Helvetica,sans-Serif" font-size="10.00">cxxabi.h</text>
</a>
</g>
</g>
<!-- Node31&#45;&gt;Node37 -->
<g id="edge44_Node000031_Node000037" class="edge">
<title>Node31&#45;&gt;Node37</title>
<g id="a_edge44_Node000031_Node000037"><a xlink:title=" ">
<path fill="none" stroke="#63b8ff" d="M1594.14,-115.82C1645.51,-109.65 1757.19,-95.31 1860.78,-74.9"/>
<polygon fill="#63b8ff" stroke="#63b8ff" points="1861.46,-78.34 1870.58,-72.95 1860.09,-71.47 1861.46,-78.34"/>
</a>
</g>
</g>
<!-- Node38 -->
<g id="Node000038" class="node">
<title>Node38</title>
<g id="a_Node000038"><a xlink:title=" ">
<polygon fill="#e0e0e0" stroke="#999999" points="1978.12,-74.5 1941.12,-74.5 1941.12,-55.25 1978.12,-55.25 1978.12,-74.5"/>
<text text-anchor="middle" x="1959.62" y="-61" font-family="Helvetica,sans-Serif" font-size="10.00">array</text>
</a>
</g>
</g>
<!-- Node31&#45;&gt;Node38 -->
<g id="edge46_Node000031_Node000038" class="edge">
<title>Node31&#45;&gt;Node38</title>
<g id="a_edge46_Node000031_Node000038"><a xlink:title=" ">
<path fill="none" stroke="#63b8ff" d="M1593.92,-117.39C1654.06,-113.35 1799.13,-101.66 1929.78,-74.51"/>
<polygon fill="#63b8ff" stroke="#63b8ff" points="1930.23,-77.99 1939.29,-72.5 1928.78,-71.14 1930.23,-77.99"/>
</a>
</g>
</g>
<!-- Node39 -->
<g id="Node000039" class="node">
<title>Node39</title>
<g id="a_Node000039"><a xlink:title=" ">
<polygon fill="#e0e0e0" stroke="#999999" points="2046.88,-74.5 1996.38,-74.5 1996.38,-55.25 2046.88,-55.25 2046.88,-74.5"/>
<text text-anchor="middle" x="2021.62" y="-61" font-family="Helvetica,sans-Serif" font-size="10.00">memory</text>
</a>
</g>
</g>
<!-- Node31&#45;&gt;Node39 -->
<g id="edge47_Node000031_Node000039" class="edge">
<title>Node31&#45;&gt;Node39</title>
<g id="a_edge47_Node000031_Node000039"><a xlink:title=" ">
<path fill="none" stroke="#63b8ff" d="M1594.22,-117.52C1661.03,-113.46 1832.65,-101.31 1985.15,-74.71"/>
<polygon fill="#63b8ff" stroke="#63b8ff" points="1985.36,-78.23 1994.6,-73.03 1984.14,-71.33 1985.36,-78.23"/>
</a>
</g>
</g>
<!-- Node40 -->
<g id="Node000040" class="node">
<title>Node40</title>
<g id="a_Node000040"><a xlink:title=" ">
<polygon fill="#e0e0e0" stroke="#999999" points="2124.38,-74.5 2064.88,-74.5 2064.88,-55.25 2124.38,-55.25 2124.38,-74.5"/>
<text text-anchor="middle" x="2094.62" y="-61" font-family="Helvetica,sans-Serif" font-size="10.00">sys/wait.h</text>
</a>
</g>
</g>
<!-- Node31&#45;&gt;Node40 -->
<g id="edge49_Node000031_Node000040" class="edge">
<title>Node31&#45;&gt;Node40</title>
<g id="a_edge49_Node000031_Node000040"><a xlink:title=" ">
<path fill="none" stroke="#63b8ff" d="M1594.22,-117.79C1668.35,-114.06 1872.91,-102.07 2053.17,-74.68"/>
<polygon fill="#63b8ff" stroke="#63b8ff" points="2053.62,-78.16 2062.97,-73.17 2052.55,-71.24 2053.62,-78.16"/>
</a>
</g>
</g>
<!-- Node41 -->
<g id="Node000041" class="node">
<title>Node41</title>
<g id="a_Node000041"><a xlink:title=" ">
<polygon fill="#e0e0e0" stroke="#999999" points="1522.75,-74.5 1462.5,-74.5 1462.5,-55.25 1522.75,-55.25 1522.75,-74.5"/>
<text text-anchor="middle" x="1492.62" y="-61" font-family="Helvetica,sans-Serif" font-size="10.00">sys/prctl.h</text>
</a>
</g>
</g>
<!-- Node31&#45;&gt;Node41 -->
<g id="edge50_Node000031_Node000041" class="edge">
<title>Node31&#45;&gt;Node41</title>
<g id="a_edge50_Node000031_Node000041"><a xlink:title=" ">
<path fill="none" stroke="#63b8ff" d="M1553.24,-110.09C1542.48,-102.24 1526.65,-90.7 1513.87,-81.37"/>
<polygon fill="#63b8ff" stroke="#63b8ff" points="1516.19,-78.73 1506.05,-75.67 1512.06,-84.39 1516.19,-78.73"/>
</a>
</g>
</g>
<!-- Node42&#45;&gt;Node3 -->
<g id="edge53_Node000042_Node000003" class="edge">
<title>Node42&#45;&gt;Node3</title>
<g id="a_edge53_Node000042_Node000003"><a xlink:title=" ">
<path fill="none" stroke="#63b8ff" d="M432,-165.48C421.32,-143.54 397.93,-86.38 426.62,-55.25 461.74,-17.16 831.45,-11.58 942.96,-10.76"/>
<polygon fill="#63b8ff" stroke="#63b8ff" points="942.89,-14.26 952.87,-10.7 942.85,-7.27 942.89,-14.26"/>
</a>
</g>
</g>
<!-- Node42&#45;&gt;Node13 -->
<g id="edge54_Node000042_Node000013" class="edge">
<title>Node42&#45;&gt;Node13</title>
<g id="a_edge54_Node000042_Node000013"><a xlink:title=" ">
<path fill="none" stroke="#63b8ff" d="M424.07,-165.31C413.95,-157.22 400.34,-144.42 393.62,-129.75 378.89,-97.58 378.9,-55.46 380.55,-30.89"/>
<polygon fill="#63b8ff" stroke="#63b8ff" points="384.03,-31.27 381.39,-21.01 377.05,-30.68 384.03,-31.27"/>
</a>
</g>
</g>
<!-- Node42&#45;&gt;Node15 -->
<g id="edge52_Node000042_Node000015" class="edge">
<title>Node42&#45;&gt;Node15</title>
<g id="a_edge52_Node000042_Node000015"><a xlink:title=" ">
<path fill="none" stroke="#63b8ff" d="M446.63,-165.34C454.99,-157.8 467.12,-146.85 477.23,-137.73"/>
<polygon fill="#63b8ff" stroke="#63b8ff" points="479.56,-140.34 484.64,-131.04 474.87,-135.14 479.56,-140.34"/>
</a>
</g>
</g>
<!-- Node43&#45;&gt;Node2 -->
<g id="edge63_Node000043_Node000002" class="edge">
<title>Node43&#45;&gt;Node2</title>
<g id="a_edge63_Node000043_Node000002"><a xlink:title=" ">
<path fill="none" stroke="#63b8ff" d="M1272.93,-171.26C1188.51,-164.25 977.8,-146.52 801.62,-129.75 788.66,-128.52 774.59,-127.1 761.73,-125.78"/>
<polygon fill="#63b8ff" stroke="#63b8ff" points="762.14,-122.3 751.83,-124.75 761.42,-129.26 762.14,-122.3"/>
</a>
</g>
</g>
<!-- Node43&#45;&gt;Node3 -->
<g id="edge56_Node000043_Node000003" class="edge">
<title>Node43&#45;&gt;Node3</title>
<g id="a_edge56_Node000043_Node000003"><a xlink:title=" ">
<path fill="none" stroke="#63b8ff" d="M1348.18,-165.56C1396.18,-154.12 1473.6,-134.99 1477.62,-129.75 1482.84,-122.96 1482.02,-117.84 1477.62,-110.5 1460.28,-81.49 1440.12,-91.02 1410.62,-74.5 1395.81,-66.2 1393.78,-60.47 1377.62,-55.25 1219.98,-4.33 1169.61,-48.91 1006.62,-19.25 1006.38,-19.21 1006.14,-19.16 1005.9,-19.12"/>
<polygon fill="#63b8ff" stroke="#63b8ff" points="1006.82,-15.74 996.3,-16.95 1005.28,-22.56 1006.82,-15.74"/>
</a>
</g>
</g>
<!-- Node43&#45;&gt;Node11 -->
<g id="edge62_Node000043_Node000011" class="edge">
<title>Node43&#45;&gt;Node11</title>
<g id="a_edge62_Node000043_Node000011"><a xlink:title=" ">
<path fill="none" stroke="#63b8ff" d="M1288.15,-165.31C1240.78,-146.2 1130.47,-101.71 1074.89,-79.29"/>
<polygon fill="#63b8ff" stroke="#63b8ff" points="1076.21,-76.05 1065.63,-75.56 1073.59,-82.54 1076.21,-76.05"/>
</a>
</g>
</g>
<!-- Node43&#45;&gt;Node16 -->
<g id="edge57_Node000043_Node000016" class="edge">
<title>Node43&#45;&gt;Node16</title>
<g id="a_edge57_Node000043_Node000016"><a xlink:title=" ">
<path fill="none" stroke="#63b8ff" d="M1307.52,-165.5C1301.45,-148.17 1287.9,-109.48 1279.58,-85.74"/>
<polygon fill="#63b8ff" stroke="#63b8ff" points="1282.89,-84.59 1276.28,-76.31 1276.28,-86.9 1282.89,-84.59"/>
</a>
</g>
</g>
<!-- Node43&#45;&gt;Node19 -->
<g id="edge58_Node000043_Node000019" class="edge">
<title>Node43&#45;&gt;Node19</title>
<g id="a_edge58_Node000043_Node000019"><a xlink:title=" ">
<path fill="none" stroke="#63b8ff" d="M1313.24,-165.5C1318.35,-148.17 1329.77,-109.48 1336.77,-85.74"/>
<polygon fill="#63b8ff" stroke="#63b8ff" points="1340.07,-86.91 1339.54,-76.33 1333.36,-84.93 1340.07,-86.91"/>
</a>
</g>
</g>
<!-- Node43&#45;&gt;Node31 -->
<g id="edge61_Node000043_Node000031" class="edge">
<title>Node43&#45;&gt;Node31</title>
<g id="a_edge61_Node000043_Node000031"><a xlink:title=" ">
<path fill="none" stroke="#63b8ff" d="M1348.25,-166.52C1395.83,-156.58 1477.4,-139.55 1525.94,-129.41"/>
<polygon fill="#63b8ff" stroke="#63b8ff" points="1526.39,-132.89 1535.46,-127.42 1524.96,-126.04 1526.39,-132.89"/>
</a>
</g>
</g>
<!-- Node44 -->
<g id="Node000044" class="node">
<title>Node44</title>
<g id="a_Node000044"><a xlink:title=" ">
<polygon fill="#e0e0e0" stroke="#999999" points="1396.62,-129.75 1338.62,-129.75 1338.62,-110.5 1396.62,-110.5 1396.62,-129.75"/>
<text text-anchor="middle" x="1367.62" y="-116.25" font-family="Helvetica,sans-Serif" font-size="10.00">TObject.h</text>
</a>
</g>
</g>
<!-- Node43&#45;&gt;Node44 -->
<g id="edge59_Node000043_Node000044" class="edge">
<title>Node43&#45;&gt;Node44</title>
<g id="a_edge59_Node000043_Node000044"><a xlink:title=" ">
<path fill="none" stroke="#63b8ff" d="M1320.29,-165.34C1328.37,-157.8 1340.09,-146.85 1349.85,-137.73"/>
<polygon fill="#63b8ff" stroke="#63b8ff" points="1352.07,-140.44 1356.99,-131.06 1347.3,-135.33 1352.07,-140.44"/>
</a>
</g>
</g>
<!-- Node45 -->
<g id="Node000045" class="node">
<title>Node45</title>
<g id="a_Node000045"><a xlink:title=" ">
<polygon fill="#e0e0e0" stroke="#999999" points="1468.75,-129.75 1414.5,-129.75 1414.5,-110.5 1468.75,-110.5 1468.75,-129.75"/>
<text text-anchor="middle" x="1441.62" y="-116.25" font-family="Helvetica,sans-Serif" font-size="10.00">TClass.h</text>
</a>
</g>
</g>
<!-- Node43&#45;&gt;Node45 -->
<g id="edge60_Node000043_Node000045" class="edge">
<title>Node43&#45;&gt;Node45</title>
<g id="a_edge60_Node000043_Node000045"><a xlink:title=" ">
<path fill="none" stroke="#63b8ff" d="M1332.85,-165.34C1353.64,-156.89 1384.97,-144.15 1408.68,-134.52"/>
<polygon fill="#63b8ff" stroke="#63b8ff" points="1409.95,-137.78 1417.89,-130.77 1407.31,-131.3 1409.95,-137.78"/>
</a>
</g>
</g>
</g>
</svg>
