<?xml version="1.0" encoding="UTF-8" standalone="no"?>
<!DOCTYPE svg PUBLIC "-//W3C//DTD SVG 1.1//EN"
 "http://www.w3.org/Graphics/SVG/1.1/DTD/svg11.dtd">
<!-- Generated by graphviz version 12.2.0 (20241103.1931)
 -->
<!-- Title: TCalManager.h Pages: 1 -->
<svg width="1104pt" height="248pt"
 viewBox="0.00 0.00 1104.47 248.25" xmlns="http://www.w3.org/2000/svg" xmlns:xlink="http://www.w3.org/1999/xlink">
<g id="graph0" class="graph" transform="scale(1 1) rotate(0) translate(4 244.25)">
<title>TCalManager.h</title>
<!-- Node1 -->
<g id="Node000001" class="node">
<title>Node1</title>
<g id="a_Node000001"><a xlink:title=" ">
<polygon fill="#999999" stroke="#666666" points="665.84,-240.25 584.59,-240.25 584.59,-221 665.84,-221 665.84,-240.25"/>
<text text-anchor="middle" x="625.22" y="-226.75" font-family="Helvetica,sans-Serif" font-size="10.00">TCalManager.h</text>
</a>
</g>
</g>
<!-- Node2 -->
<g id="Node000002" class="node">
<title>Node2</title>
<g id="a_Node000002"><a xlink:href="_t_cal_8h.html" target="_top" xlink:title=" ">
<polygon fill="white" stroke="#666666" points="340.09,-185 296.34,-185 296.34,-165.75 340.09,-165.75 340.09,-185"/>
<text text-anchor="middle" x="318.22" y="-171.5" font-family="Helvetica,sans-Serif" font-size="10.00">TCal.h</text>
</a>
</g>
</g>
<!-- Node1&#45;&gt;Node2 -->
<g id="edge1_Node000001_Node000002" class="edge">
<title>Node1&#45;&gt;Node2</title>
<g id="a_edge1_Node000001_Node000002"><a xlink:title=" ">
<path fill="none" stroke="#63b8ff" d="M584.13,-222.5C522.66,-211.84 407.94,-191.94 351.42,-182.13"/>
<polygon fill="#63b8ff" stroke="#63b8ff" points="352.23,-178.72 341.78,-180.46 351.03,-185.62 352.23,-178.72"/>
</a>
</g>
</g>
<!-- Node15 -->
<g id="Node000015" class="node">
<title>Node15</title>
<g id="a_Node000015"><a xlink:title=" ">
<polygon fill="#e0e0e0" stroke="#999999" points="749.72,-74.5 688.72,-74.5 688.72,-55.25 749.72,-55.25 749.72,-74.5"/>
<text text-anchor="middle" x="719.22" y="-61" font-family="Helvetica,sans-Serif" font-size="10.00">TNamed.h</text>
</a>
</g>
</g>
<!-- Node1&#45;&gt;Node15 -->
<g id="edge32_Node000001_Node000015" class="edge">
<title>Node1&#45;&gt;Node15</title>
<g id="a_edge32_Node000001_Node000015"><a xlink:title=" ">
<path fill="none" stroke="#63b8ff" d="M626.85,-220.57C629.39,-207.84 634.95,-184.14 644.22,-165.75 660.16,-134.11 686.3,-102.17 703.13,-83.21"/>
<polygon fill="#63b8ff" stroke="#63b8ff" points="705.64,-85.65 709.75,-75.89 700.45,-80.95 705.64,-85.65"/>
</a>
</g>
</g>
<!-- Node28 -->
<g id="Node000028" class="node">
<title>Node28</title>
<g id="a_Node000028"><a xlink:title=" ">
<polygon fill="#e0e0e0" stroke="#999999" points="707.34,-185 653.09,-185 653.09,-165.75 707.34,-165.75 707.34,-185"/>
<text text-anchor="middle" x="680.22" y="-171.5" font-family="Helvetica,sans-Serif" font-size="10.00">TClass.h</text>
</a>
</g>
</g>
<!-- Node1&#45;&gt;Node28 -->
<g id="edge33_Node000001_Node000028" class="edge">
<title>Node1&#45;&gt;Node28</title>
<g id="a_edge33_Node000001_Node000028"><a xlink:title=" ">
<path fill="none" stroke="#63b8ff" d="M634.3,-220.83C642.05,-213.32 653.43,-202.31 662.91,-193.13"/>
<polygon fill="#63b8ff" stroke="#63b8ff" points="665.1,-195.88 669.85,-186.41 660.23,-190.85 665.1,-195.88"/>
</a>
</g>
</g>
<!-- Node3 -->
<g id="Node000003" class="node">
<title>Node3</title>
<g id="a_Node000003"><a xlink:title=" ">
<polygon fill="#e0e0e0" stroke="#999999" points="295.72,-19.25 252.72,-19.25 252.72,0 295.72,0 295.72,-19.25"/>
<text text-anchor="middle" x="274.22" y="-5.75" font-family="Helvetica,sans-Serif" font-size="10.00">vector</text>
</a>
</g>
</g>
<!-- Node2&#45;&gt;Node3 -->
<g id="edge2_Node000002_Node000003" class="edge">
<title>Node2&#45;&gt;Node3</title>
<g id="a_edge2_Node000002_Node000003"><a xlink:title=" ">
<path fill="none" stroke="#63b8ff" d="M296.23,-174.69C232.53,-175.07 50.05,-172.36 13.22,-129.75 -54.06,-51.91 157.16,-22.13 241.25,-13.53"/>
<polygon fill="#63b8ff" stroke="#63b8ff" points="241.34,-17.04 250.95,-12.58 240.66,-10.07 241.34,-17.04"/>
</a>
</g>
</g>
<!-- Node4 -->
<g id="Node000004" class="node">
<title>Node4</title>
<g id="a_Node000004"><a xlink:title=" ">
<polygon fill="#e0e0e0" stroke="#999999" points="64.34,-129.75 22.09,-129.75 22.09,-110.5 64.34,-110.5 64.34,-129.75"/>
<text text-anchor="middle" x="43.22" y="-116.25" font-family="Helvetica,sans-Serif" font-size="10.00">TH1.h</text>
</a>
</g>
</g>
<!-- Node2&#45;&gt;Node4 -->
<g id="edge3_Node000002_Node000004" class="edge">
<title>Node2&#45;&gt;Node4</title>
<g id="a_edge3_Node000002_Node000004"><a xlink:title=" ">
<path fill="none" stroke="#63b8ff" d="M295.87,-170.98C254.53,-164.56 163.12,-149.67 75.99,-129.96"/>
<polygon fill="#63b8ff" stroke="#63b8ff" points="76.84,-126.57 66.31,-127.75 75.27,-133.39 76.84,-126.57"/>
</a>
</g>
</g>
<!-- Node5 -->
<g id="Node000005" class="node">
<title>Node5</title>
<g id="a_Node000005"><a xlink:title=" ">
<polygon fill="#e0e0e0" stroke="#999999" points="123.59,-129.75 82.84,-129.75 82.84,-110.5 123.59,-110.5 123.59,-129.75"/>
<text text-anchor="middle" x="103.22" y="-116.25" font-family="Helvetica,sans-Serif" font-size="10.00">TF1.h</text>
</a>
</g>
</g>
<!-- Node2&#45;&gt;Node5 -->
<g id="edge4_Node000002_Node000005" class="edge">
<title>Node2&#45;&gt;Node5</title>
<g id="a_edge4_Node000002_Node000005"><a xlink:title=" ">
<path fill="none" stroke="#63b8ff" d="M296.07,-169.47C263.03,-162.06 198.63,-147.28 135.1,-130.42"/>
<polygon fill="#63b8ff" stroke="#63b8ff" points="136.12,-127.07 125.55,-127.87 134.31,-133.83 136.12,-127.07"/>
</a>
</g>
</g>
<!-- Node6 -->
<g id="Node000006" class="node">
<title>Node6</title>
<g id="a_Node000006"><a xlink:title=" ">
<polygon fill="#e0e0e0" stroke="#999999" points="212.97,-129.75 141.47,-129.75 141.47,-110.5 212.97,-110.5 212.97,-129.75"/>
<text text-anchor="middle" x="177.22" y="-116.25" font-family="Helvetica,sans-Serif" font-size="10.00">TSpectrum.h</text>
</a>
</g>
</g>
<!-- Node2&#45;&gt;Node6 -->
<g id="edge5_Node000002_Node000006" class="edge">
<title>Node2&#45;&gt;Node6</title>
<g id="a_edge5_Node000002_Node000006"><a xlink:title=" ">
<path fill="none" stroke="#63b8ff" d="M295.88,-165.94C273.32,-157.42 238.16,-144.14 211.96,-134.25"/>
<polygon fill="#63b8ff" stroke="#63b8ff" points="213.35,-131.03 202.76,-130.77 210.88,-137.58 213.35,-131.03"/>
</a>
</g>
</g>
<!-- Node7 -->
<g id="Node000007" class="node">
<title>Node7</title>
<g id="a_Node000007"><a xlink:title=" ">
<polygon fill="#e0e0e0" stroke="#999999" points="307.59,-129.75 230.84,-129.75 230.84,-110.5 307.59,-110.5 307.59,-129.75"/>
<text text-anchor="middle" x="269.22" y="-116.25" font-family="Helvetica,sans-Serif" font-size="10.00">TMultiGraph.h</text>
</a>
</g>
</g>
<!-- Node2&#45;&gt;Node7 -->
<g id="edge6_Node000002_Node000007" class="edge">
<title>Node2&#45;&gt;Node7</title>
<g id="a_edge6_Node000002_Node000007"><a xlink:title=" ">
<path fill="none" stroke="#63b8ff" d="M310.13,-165.58C303.36,-158.23 293.5,-147.51 285.15,-138.44"/>
<polygon fill="#63b8ff" stroke="#63b8ff" points="287.86,-136.21 278.51,-131.22 282.7,-140.95 287.86,-136.21"/>
</a>
</g>
</g>
<!-- Node8 -->
<g id="Node000008" class="node">
<title>Node8</title>
<g id="a_Node000008"><a xlink:title=" ">
<polygon fill="#e0e0e0" stroke="#999999" points="406.84,-129.75 325.59,-129.75 325.59,-110.5 406.84,-110.5 406.84,-129.75"/>
<text text-anchor="middle" x="366.22" y="-116.25" font-family="Helvetica,sans-Serif" font-size="10.00">TGraphErrors.h</text>
</a>
</g>
</g>
<!-- Node2&#45;&gt;Node8 -->
<g id="edge7_Node000002_Node000008" class="edge">
<title>Node2&#45;&gt;Node8</title>
<g id="a_edge7_Node000002_Node000008"><a xlink:title=" ">
<path fill="none" stroke="#63b8ff" d="M326.14,-165.58C332.77,-158.23 342.43,-147.51 350.61,-138.44"/>
<polygon fill="#63b8ff" stroke="#63b8ff" points="353.01,-141 357.11,-131.23 347.81,-136.32 353.01,-141"/>
</a>
</g>
</g>
<!-- Node9 -->
<g id="Node000009" class="node">
<title>Node9</title>
<g id="a_Node000009"><a xlink:title=" ">
<polygon fill="#e0e0e0" stroke="#999999" points="469.47,-129.75 424.97,-129.75 424.97,-110.5 469.47,-110.5 469.47,-129.75"/>
<text text-anchor="middle" x="447.22" y="-116.25" font-family="Helvetica,sans-Serif" font-size="10.00">TRef.h</text>
</a>
</g>
</g>
<!-- Node2&#45;&gt;Node9 -->
<g id="edge8_Node000002_Node000009" class="edge">
<title>Node2&#45;&gt;Node9</title>
<g id="a_edge8_Node000002_Node000009"><a xlink:title=" ">
<path fill="none" stroke="#63b8ff" d="M340.1,-165.34C360.58,-156.89 391.43,-144.15 414.77,-134.52"/>
<polygon fill="#63b8ff" stroke="#63b8ff" points="415.92,-137.83 423.83,-130.78 413.25,-131.36 415.92,-137.83"/>
</a>
</g>
</g>
<!-- Node10 -->
<g id="Node000010" class="node">
<title>Node10</title>
<g id="a_Node000010"><a xlink:href="_t_channel_8h.html" target="_top" xlink:title=" ">
<polygon fill="white" stroke="#666666" points="552.59,-129.75 487.84,-129.75 487.84,-110.5 552.59,-110.5 552.59,-129.75"/>
<text text-anchor="middle" x="520.22" y="-116.25" font-family="Helvetica,sans-Serif" font-size="10.00">TChannel.h</text>
</a>
</g>
</g>
<!-- Node2&#45;&gt;Node10 -->
<g id="edge9_Node000002_Node000010" class="edge">
<title>Node2&#45;&gt;Node10</title>
<g id="a_edge9_Node000002_Node000010"><a xlink:title=" ">
<path fill="none" stroke="#63b8ff" d="M340.22,-168.57C372.81,-159.98 434.6,-143.7 476.59,-132.63"/>
<polygon fill="#63b8ff" stroke="#63b8ff" points="477.36,-136.04 486.13,-130.11 475.57,-129.27 477.36,-136.04"/>
</a>
</g>
</g>
<!-- Node21 -->
<g id="Node000021" class="node">
<title>Node21</title>
<g id="a_Node000021"><a xlink:href="_t_nucleus_8h.html" target="_top" xlink:title=" ">
<polygon fill="white" stroke="#666666" points="835.97,-129.75 770.47,-129.75 770.47,-110.5 835.97,-110.5 835.97,-129.75"/>
<text text-anchor="middle" x="803.22" y="-116.25" font-family="Helvetica,sans-Serif" font-size="10.00">TNucleus.h</text>
</a>
</g>
</g>
<!-- Node2&#45;&gt;Node21 -->
<g id="edge22_Node000002_Node000021" class="edge">
<title>Node2&#45;&gt;Node21</title>
<g id="a_edge22_Node000002_Node000021"><a xlink:title=" ">
<path fill="none" stroke="#63b8ff" d="M340.32,-171.95C414.83,-163.77 657.79,-137.09 758.67,-126.02"/>
<polygon fill="#63b8ff" stroke="#63b8ff" points="758.91,-129.51 768.47,-124.94 758.14,-122.55 758.91,-129.51"/>
</a>
</g>
</g>
<!-- Node11 -->
<g id="Node000011" class="node">
<title>Node11</title>
<g id="a_Node000011"><a xlink:title=" ">
<polygon fill="#e0e0e0" stroke="#999999" points="555.22,-19.25 515.22,-19.25 515.22,0 555.22,0 555.22,-19.25"/>
<text text-anchor="middle" x="535.22" y="-5.75" font-family="Helvetica,sans-Serif" font-size="10.00">string</text>
</a>
</g>
</g>
<!-- Node10&#45;&gt;Node11 -->
<g id="edge10_Node000010_Node000011" class="edge">
<title>Node10&#45;&gt;Node11</title>
<g id="a_edge10_Node000010_Node000011"><a xlink:title=" ">
<path fill="none" stroke="#63b8ff" d="M487.72,-112.12C484.51,-111.53 481.31,-110.98 478.22,-110.5 400.83,-98.58 77.97,-113.57 130.22,-55.25 155.04,-27.55 412.46,-15.24 503.52,-11.73"/>
<polygon fill="#63b8ff" stroke="#63b8ff" points="503.61,-15.23 513.47,-11.36 503.35,-8.24 503.61,-15.23"/>
</a>
</g>
</g>
<!-- Node12 -->
<g id="Node000012" class="node">
<title>Node12</title>
<g id="a_Node000012"><a xlink:title=" ">
<polygon fill="#e0e0e0" stroke="#999999" points="670.72,-74.5 627.72,-74.5 627.72,-55.25 670.72,-55.25 670.72,-74.5"/>
<text text-anchor="middle" x="649.22" y="-61" font-family="Helvetica,sans-Serif" font-size="10.00">cmath</text>
</a>
</g>
</g>
<!-- Node10&#45;&gt;Node12 -->
<g id="edge11_Node000010_Node000012" class="edge">
<title>Node10&#45;&gt;Node12</title>
<g id="a_edge11_Node000010_Node000012"><a xlink:title=" ">
<path fill="none" stroke="#63b8ff" d="M542.1,-110.09C562.58,-101.64 593.43,-88.9 616.77,-79.27"/>
<polygon fill="#63b8ff" stroke="#63b8ff" points="617.92,-82.58 625.83,-75.53 615.25,-76.11 617.92,-82.58"/>
</a>
</g>
</g>
<!-- Node13 -->
<g id="Node000013" class="node">
<title>Node13</title>
<g id="a_Node000013"><a xlink:title=" ">
<polygon fill="#e0e0e0" stroke="#999999" points="177.47,-74.5 138.97,-74.5 138.97,-55.25 177.47,-55.25 177.47,-74.5"/>
<text text-anchor="middle" x="158.22" y="-61" font-family="Helvetica,sans-Serif" font-size="10.00">utility</text>
</a>
</g>
</g>
<!-- Node10&#45;&gt;Node13 -->
<g id="edge12_Node000010_Node000013" class="edge">
<title>Node10&#45;&gt;Node13</title>
<g id="a_edge12_Node000010_Node000013"><a xlink:title=" ">
<path fill="none" stroke="#63b8ff" d="M487.71,-112.18C484.51,-111.58 481.3,-111.01 478.22,-110.5 353.14,-89.95 316.75,-100.55 188.77,-74.46"/>
<polygon fill="#63b8ff" stroke="#63b8ff" points="189.74,-71.08 179.24,-72.47 188.32,-77.94 189.74,-71.08"/>
</a>
</g>
</g>
<!-- Node14 -->
<g id="Node000014" class="node">
<title>Node14</title>
<g id="a_Node000014"><a xlink:title=" ">
<polygon fill="#e0e0e0" stroke="#999999" points="278.59,-74.5 195.84,-74.5 195.84,-55.25 278.59,-55.25 278.59,-74.5"/>
<text text-anchor="middle" x="237.22" y="-61" font-family="Helvetica,sans-Serif" font-size="10.00">unordered_map</text>
</a>
</g>
</g>
<!-- Node10&#45;&gt;Node14 -->
<g id="edge13_Node000010_Node000014" class="edge">
<title>Node10&#45;&gt;Node14</title>
<g id="a_edge13_Node000010_Node000014"><a xlink:title=" ">
<path fill="none" stroke="#63b8ff" d="M487.67,-112.38C484.48,-111.73 481.29,-111.1 478.22,-110.5 413.65,-97.89 339.17,-84.24 290.3,-75.4"/>
<polygon fill="#63b8ff" stroke="#63b8ff" points="291.01,-71.97 280.55,-73.64 289.77,-78.86 291.01,-71.97"/>
</a>
</g>
</g>
<!-- Node10&#45;&gt;Node15 -->
<g id="edge14_Node000010_Node000015" class="edge">
<title>Node10&#45;&gt;Node15</title>
<g id="a_edge14_Node000010_Node000015"><a xlink:title=" ">
<path fill="none" stroke="#63b8ff" d="M553.08,-110.33C587.09,-101.23 640.34,-86.98 677.35,-77.08"/>
<polygon fill="#63b8ff" stroke="#63b8ff" points="678.06,-80.51 686.81,-74.55 676.25,-73.75 678.06,-80.51"/>
</a>
</g>
</g>
<!-- Node16 -->
<g id="Node000016" class="node">
<title>Node16</title>
<g id="a_Node000016"><a xlink:title=" ">
<polygon fill="#e0e0e0" stroke="#999999" points="345.72,-74.5 296.72,-74.5 296.72,-55.25 345.72,-55.25 345.72,-74.5"/>
<text text-anchor="middle" x="321.22" y="-61" font-family="Helvetica,sans-Serif" font-size="10.00">TTree.h</text>
</a>
</g>
</g>
<!-- Node10&#45;&gt;Node16 -->
<g id="edge15_Node000010_Node000016" class="edge">
<title>Node10&#45;&gt;Node16</title>
<g id="a_edge15_Node000010_Node000016"><a xlink:title=" ">
<path fill="none" stroke="#63b8ff" d="M487.36,-110.33C451.34,-100.69 393.77,-85.29 356.73,-75.38"/>
<polygon fill="#63b8ff" stroke="#63b8ff" points="357.97,-72.09 347.41,-72.88 356.16,-78.85 357.97,-72.09"/>
</a>
</g>
</g>
<!-- Node17 -->
<g id="Node000017" class="node">
<title>Node17</title>
<g id="a_Node000017"><a xlink:title=" ">
<polygon fill="#e0e0e0" stroke="#999999" points="419.09,-74.5 363.34,-74.5 363.34,-55.25 419.09,-55.25 419.09,-74.5"/>
<text text-anchor="middle" x="391.22" y="-61" font-family="Helvetica,sans-Serif" font-size="10.00">TGraph.h</text>
</a>
</g>
</g>
<!-- Node10&#45;&gt;Node17 -->
<g id="edge16_Node000010_Node000017" class="edge">
<title>Node10&#45;&gt;Node17</title>
<g id="a_edge16_Node000010_Node000017"><a xlink:title=" ">
<path fill="none" stroke="#63b8ff" d="M498.33,-110.09C477.86,-101.64 447,-88.9 423.66,-79.27"/>
<polygon fill="#63b8ff" stroke="#63b8ff" points="425.19,-76.11 414.61,-75.53 422.51,-82.58 425.19,-76.11"/>
</a>
</g>
</g>
<!-- Node18 -->
<g id="Node000018" class="node">
<title>Node18</title>
<g id="a_Node000018"><a xlink:title=" ">
<polygon fill="#e0e0e0" stroke="#999999" points="506.84,-74.5 437.59,-74.5 437.59,-55.25 506.84,-55.25 506.84,-74.5"/>
<text text-anchor="middle" x="472.22" y="-61" font-family="Helvetica,sans-Serif" font-size="10.00">TClassRef.h</text>
</a>
</g>
</g>
<!-- Node10&#45;&gt;Node18 -->
<g id="edge17_Node000010_Node000018" class="edge">
<title>Node10&#45;&gt;Node18</title>
<g id="a_edge17_Node000010_Node000018"><a xlink:title=" ">
<path fill="none" stroke="#63b8ff" d="M512.29,-110.33C505.66,-102.98 496,-92.26 487.83,-83.19"/>
<polygon fill="#63b8ff" stroke="#63b8ff" points="490.62,-81.07 481.33,-75.98 485.42,-85.75 490.62,-81.07"/>
</a>
</g>
</g>
<!-- Node19 -->
<g id="Node000019" class="node">
<title>Node19</title>
<g id="a_Node000019"><a xlink:href="_t_priority_value_8h.html" target="_top" xlink:title=" ">
<polygon fill="white" stroke="#666666" points="609.34,-74.5 525.09,-74.5 525.09,-55.25 609.34,-55.25 609.34,-74.5"/>
<text text-anchor="middle" x="567.22" y="-61" font-family="Helvetica,sans-Serif" font-size="10.00">TPriorityValue.h</text>
</a>
</g>
</g>
<!-- Node10&#45;&gt;Node19 -->
<g id="edge18_Node000010_Node000019" class="edge">
<title>Node10&#45;&gt;Node19</title>
<g id="a_edge18_Node000010_Node000019"><a xlink:title=" ">
<path fill="none" stroke="#63b8ff" d="M527.98,-110.33C534.4,-103.05 543.73,-92.48 551.68,-83.48"/>
<polygon fill="#63b8ff" stroke="#63b8ff" points="554.29,-85.81 558.29,-75.99 549.04,-81.18 554.29,-85.81"/>
</a>
</g>
</g>
<!-- Node19&#45;&gt;Node3 -->
<g id="edge21_Node000019_Node000003" class="edge">
<title>Node19&#45;&gt;Node3</title>
<g id="a_edge21_Node000019_Node000003"><a xlink:title=" ">
<path fill="none" stroke="#63b8ff" d="M524.61,-56.13C465.74,-45.43 360.74,-26.35 307.35,-16.65"/>
<polygon fill="#63b8ff" stroke="#63b8ff" points="308.12,-13.23 297.66,-14.89 306.87,-20.12 308.12,-13.23"/>
</a>
</g>
</g>
<!-- Node19&#45;&gt;Node11 -->
<g id="edge20_Node000019_Node000011" class="edge">
<title>Node19&#45;&gt;Node11</title>
<g id="a_edge20_Node000019_Node000011"><a xlink:title=" ">
<path fill="none" stroke="#63b8ff" d="M561.93,-55.08C557.74,-48.11 551.74,-38.12 546.48,-29.37"/>
<polygon fill="#63b8ff" stroke="#63b8ff" points="549.55,-27.68 541.4,-20.91 543.55,-31.28 549.55,-27.68"/>
</a>
</g>
</g>
<!-- Node20 -->
<g id="Node000020" class="node">
<title>Node20</title>
<g id="a_Node000020"><a xlink:title=" ">
<polygon fill="#e0e0e0" stroke="#999999" points="624.84,-19.25 573.59,-19.25 573.59,0 624.84,0 624.84,-19.25"/>
<text text-anchor="middle" x="599.22" y="-5.75" font-family="Helvetica,sans-Serif" font-size="10.00">ostream</text>
</a>
</g>
</g>
<!-- Node19&#45;&gt;Node20 -->
<g id="edge19_Node000019_Node000020" class="edge">
<title>Node19&#45;&gt;Node20</title>
<g id="a_edge19_Node000019_Node000020"><a xlink:title=" ">
<path fill="none" stroke="#63b8ff" d="M572.5,-55.08C576.69,-48.11 582.7,-38.12 587.95,-29.37"/>
<polygon fill="#63b8ff" stroke="#63b8ff" points="590.89,-31.28 593.04,-20.91 584.89,-27.68 590.89,-31.28"/>
</a>
</g>
</g>
<!-- Node21&#45;&gt;Node11 -->
<g id="edge26_Node000021_Node000011" class="edge">
<title>Node21&#45;&gt;Node11</title>
<g id="a_edge26_Node000021_Node000011"><a xlink:title=" ">
<path fill="none" stroke="#63b8ff" d="M799.67,-110.01C793.64,-95.83 780.01,-68.73 759.22,-55.25 688.22,-9.23 652.8,-37.37 566.5,-19.43"/>
<polygon fill="#63b8ff" stroke="#63b8ff" points="567.43,-16.05 556.9,-17.27 565.89,-22.88 567.43,-16.05"/>
</a>
</g>
</g>
<!-- Node21&#45;&gt;Node12 -->
<g id="edge23_Node000021_Node000012" class="edge">
<title>Node21&#45;&gt;Node12</title>
<g id="a_edge23_Node000021_Node000012"><a xlink:title=" ">
<path fill="none" stroke="#63b8ff" d="M777.09,-110.09C750.73,-100.98 709.96,-86.88 681.57,-77.06"/>
<polygon fill="#63b8ff" stroke="#63b8ff" points="683.01,-73.86 672.41,-73.89 680.72,-80.47 683.01,-73.86"/>
</a>
</g>
</g>
<!-- Node21&#45;&gt;Node15 -->
<g id="edge30_Node000021_Node000015" class="edge">
<title>Node21&#45;&gt;Node15</title>
<g id="a_edge30_Node000021_Node000015"><a xlink:title=" ">
<path fill="none" stroke="#63b8ff" d="M788.97,-110.09C776.42,-102.14 757.88,-90.39 743.07,-81"/>
<polygon fill="#63b8ff" stroke="#63b8ff" points="745.13,-78.16 734.81,-75.76 741.39,-84.07 745.13,-78.16"/>
</a>
</g>
</g>
<!-- Node22 -->
<g id="Node000022" class="node">
<title>Node22</title>
<g id="a_Node000022"><a xlink:title=" ">
<polygon fill="#e0e0e0" stroke="#999999" points="851.84,-74.5 806.59,-74.5 806.59,-55.25 851.84,-55.25 851.84,-74.5"/>
<text text-anchor="middle" x="829.22" y="-61" font-family="Helvetica,sans-Serif" font-size="10.00">cstring</text>
</a>
</g>
</g>
<!-- Node21&#45;&gt;Node22 -->
<g id="edge24_Node000021_Node000022" class="edge">
<title>Node21&#45;&gt;Node22</title>
<g id="a_edge24_Node000021_Node000022"><a xlink:title=" ">
<path fill="none" stroke="#63b8ff" d="M807.51,-110.33C810.84,-103.51 815.58,-93.81 819.78,-85.2"/>
<polygon fill="#63b8ff" stroke="#63b8ff" points="822.92,-86.74 824.17,-76.22 816.63,-83.67 822.92,-86.74"/>
</a>
</g>
</g>
<!-- Node23 -->
<g id="Node000023" class="node">
<title>Node23</title>
<g id="a_Node000023"><a xlink:title=" ">
<polygon fill="#e0e0e0" stroke="#999999" points="914.47,-74.5 869.97,-74.5 869.97,-55.25 914.47,-55.25 914.47,-74.5"/>
<text text-anchor="middle" x="892.22" y="-61" font-family="Helvetica,sans-Serif" font-size="10.00">cstdlib</text>
</a>
</g>
</g>
<!-- Node21&#45;&gt;Node23 -->
<g id="edge25_Node000021_Node000023" class="edge">
<title>Node21&#45;&gt;Node23</title>
<g id="a_edge25_Node000021_Node000023"><a xlink:title=" ">
<path fill="none" stroke="#63b8ff" d="M818.31,-110.09C831.74,-102.06 851.63,-90.16 867.39,-80.73"/>
<polygon fill="#63b8ff" stroke="#63b8ff" points="868.96,-83.87 875.75,-75.73 865.37,-77.86 868.96,-83.87"/>
</a>
</g>
</g>
<!-- Node24 -->
<g id="Node000024" class="node">
<title>Node24</title>
<g id="a_Node000024"><a xlink:href="_t_transition_8h.html" target="_top" xlink:title=" ">
<polygon fill="white" stroke="#666666" points="1004.34,-74.5 932.09,-74.5 932.09,-55.25 1004.34,-55.25 1004.34,-74.5"/>
<text text-anchor="middle" x="968.22" y="-61" font-family="Helvetica,sans-Serif" font-size="10.00">TTransition.h</text>
</a>
</g>
</g>
<!-- Node21&#45;&gt;Node24 -->
<g id="edge27_Node000021_Node000024" class="edge">
<title>Node21&#45;&gt;Node24</title>
<g id="a_edge27_Node000021_Node000024"><a xlink:title=" ">
<path fill="none" stroke="#63b8ff" d="M831.21,-110.09C858.23,-101.37 899.38,-88.09 929.53,-78.36"/>
<polygon fill="#63b8ff" stroke="#63b8ff" points="930.21,-81.82 938.65,-75.42 928.06,-75.16 930.21,-81.82"/>
</a>
</g>
</g>
<!-- Node27 -->
<g id="Node000027" class="node">
<title>Node27</title>
<g id="a_Node000027"><a xlink:title=" ">
<polygon fill="#e0e0e0" stroke="#999999" points="1096.47,-74.5 1021.97,-74.5 1021.97,-55.25 1096.47,-55.25 1096.47,-74.5"/>
<text text-anchor="middle" x="1059.22" y="-61" font-family="Helvetica,sans-Serif" font-size="10.00">TSortedList.h</text>
</a>
</g>
</g>
<!-- Node21&#45;&gt;Node27 -->
<g id="edge31_Node000021_Node000027" class="edge">
<title>Node21&#45;&gt;Node27</title>
<g id="a_edge31_Node000021_Node000027"><a xlink:title=" ">
<path fill="none" stroke="#63b8ff" d="M836.42,-112.22C880.7,-103.01 959.39,-86.64 1010.42,-76.03"/>
<polygon fill="#63b8ff" stroke="#63b8ff" points="1010.94,-79.49 1020.01,-74.03 1009.51,-72.64 1010.94,-79.49"/>
</a>
</g>
</g>
<!-- Node25 -->
<g id="Node000025" class="node">
<title>Node25</title>
<g id="a_Node000025"><a xlink:title=" ">
<polygon fill="#e0e0e0" stroke="#999999" points="955.34,-19.25 913.09,-19.25 913.09,0 955.34,0 955.34,-19.25"/>
<text text-anchor="middle" x="934.22" y="-5.75" font-family="Helvetica,sans-Serif" font-size="10.00">cstdio</text>
</a>
</g>
</g>
<!-- Node24&#45;&gt;Node25 -->
<g id="edge28_Node000024_Node000025" class="edge">
<title>Node24&#45;&gt;Node25</title>
<g id="a_edge28_Node000024_Node000025"><a xlink:title=" ">
<path fill="none" stroke="#63b8ff" d="M962.6,-55.08C958.1,-48.03 951.63,-37.9 946,-29.08"/>
<polygon fill="#63b8ff" stroke="#63b8ff" points="949.1,-27.43 940.77,-20.88 943.2,-31.2 949.1,-27.43"/>
</a>
</g>
</g>
<!-- Node26 -->
<g id="Node000026" class="node">
<title>Node26</title>
<g id="a_Node000026"><a xlink:title=" ">
<polygon fill="#e0e0e0" stroke="#999999" points="1031.22,-19.25 973.22,-19.25 973.22,0 1031.22,0 1031.22,-19.25"/>
<text text-anchor="middle" x="1002.22" y="-5.75" font-family="Helvetica,sans-Serif" font-size="10.00">TObject.h</text>
</a>
</g>
</g>
<!-- Node24&#45;&gt;Node26 -->
<g id="edge29_Node000024_Node000026" class="edge">
<title>Node24&#45;&gt;Node26</title>
<g id="a_edge29_Node000024_Node000026"><a xlink:title=" ">
<path fill="none" stroke="#63b8ff" d="M973.83,-55.08C978.33,-48.03 984.8,-37.9 990.43,-29.08"/>
<polygon fill="#63b8ff" stroke="#63b8ff" points="993.23,-31.2 995.67,-20.88 987.33,-27.43 993.23,-31.2"/>
</a>
</g>
</g>
</g>
</svg>
