<?xml version="1.0" encoding="UTF-8" standalone="no"?>
<!DOCTYPE svg PUBLIC "-//W3C//DTD SVG 1.1//EN"
 "http://www.w3.org/Graphics/SVG/1.1/DTD/svg11.dtd">
<!-- Generated by graphviz version 12.2.0 (20241103.1931)
 -->
<!-- Title: TCalibrationGraph.cxx Pages: 1 -->
<!--zoomable 193 -->

<svg id="main" version="1.1" xmlns="http://www.w3.org/2000/svg" xmlns:xlink="http://www.w3.org/1999/xlink" xml:space="preserve" onload="init(evt)">

<style type="text/css"><![CDATA[
.node, .edge {opacity: 0.7;}
.node.selected, .edge.selected {opacity: 1;}
.edge:hover path { stroke: red; }
.edge:hover polygon { stroke: red; fill: red; }
]]></style>

<defs>
  <circle id="rim" cx="0" cy="0" r="7"/>
  <circle id="rim2" cx="0" cy="0" r="3.5"/>
  <g id="zoomPlus">
    <use xlink:href="#rim" fill="#404040"><set attributeName="fill" to="#808080" begin="zoomplus.mouseover" end="zoomplus.mouseout"/></use>
    <path d="M-4,0h8M0,-4v8" fill="none" stroke="white" stroke-width="1.5" pointer-events="none"/>
  </g>
  <g id="zoomMin">
    <use xlink:href="#rim" fill="#404040"><set attributeName="fill" to="#808080" begin="zoomminus.mouseover" end="zoomminus.mouseout"/></use>
    <path d="M-4,0h8" fill="none" stroke="white" stroke-width="1.5" pointer-events="none"/>
  </g>
  <g id="arrowUp" transform="translate(30 24)">
    <use xlink:href="#rim"/>
    <path pointer-events="none" fill="none" stroke="white" stroke-width="1.5" d="M0,-3.0v7 M-2.5,-0.5L0,-3.0L2.5,-0.5"/>
  </g>
  <g id="arrowRight" transform="rotate(90) translate(36 -43)">
    <use xlink:href="#rim"/>
    <path pointer-events="none" fill="none" stroke="white" stroke-width="1.5" d="M0,-3.0v7 M-2.5,-0.5L0,-3.0L2.5,-0.5"/>
  </g>
  <g id="arrowDown" transform="rotate(180) translate(-30 -48)">
    <use xlink:href="#rim"/>
    <path pointer-events="none" fill="none" stroke="white" stroke-width="1.5" d="M0,-3.0v7 M-2.5,-0.5L0,-3.0L2.5,-0.5"/>
  </g>
  <g id="arrowLeft" transform="rotate(270) translate(-36 17)">
    <use xlink:href="#rim"/>
    <path pointer-events="none" fill="none" stroke="white" stroke-width="1.5" d="M0,-3.0v7 M-2.5,-0.5L0,-3.0L2.5,-0.5"/>
  </g>
  <g id="resetDef">
    <use xlink:href="#rim2" fill="#404040"><set attributeName="fill" to="#808080" begin="reset.mouseover" end="reset.mouseout"/></use>
  </g>
</defs>
<script type="application/ecmascript">
var viewWidth = 1395;
var viewHeight = 193;
var sectionId = 'dynsection-0';
</script>
<script type="application/ecmascript" xlink:href="svg.min.js"/>
<svg id="graph" class="graph">
<g id="viewport">
<title>TCalibrationGraph.cxx</title>
<!-- Node1 -->
<g id="Node000001" class="node">
<title>Node1</title>
<g id="a_Node000001"><a xlink:title=" ">
<polygon fill="#999999" stroke="#666666" points="1186.25,-185 1075.75,-185 1075.75,-165.75 1186.25,-165.75 1186.25,-185"/>
<text text-anchor="middle" x="1131" y="-171.5" font-family="Helvetica,sans-Serif" font-size="10.00">TCalibrationGraph.cxx</text>
</a>
</g>
</g>
<!-- Node2 -->
<g id="Node000002" class="node">
<title>Node2</title>
<g id="a_Node000002"><a xlink:href="_t_calibration_graph_8h.html" target="_top" xlink:title=" ">
<polygon fill="white" stroke="#666666" points="742.75,-129.75 641.25,-129.75 641.25,-110.5 742.75,-110.5 742.75,-129.75"/>
<text text-anchor="middle" x="692" y="-116.25" font-family="Helvetica,sans-Serif" font-size="10.00">TCalibrationGraph.h</text>
</a>
</g>
</g>
<!-- Node1&#45;&gt;Node2 -->
<g id="edge1_Node000001_Node000002" class="edge">
<title>Node1&#45;&gt;Node2</title>
<g id="a_edge1_Node000001_Node000002"><a xlink:title=" ">
<path fill="none" stroke="#63b8ff" d="M1075.4,-167.63C993.34,-157.68 840.29,-139.11 754.47,-128.7"/>
<polygon fill="#63b8ff" stroke="#63b8ff" points="754.92,-125.23 744.57,-127.5 754.08,-132.18 754.92,-125.23"/>
</a>
</g>
</g>
<!-- Node5 -->
<g id="Node000005" class="node">
<title>Node5</title>
<g id="a_Node000005"><a xlink:title=" ">
<polygon fill="#e0e0e0" stroke="#999999" points="958.75,-19.25 905.25,-19.25 905.25,0 958.75,0 958.75,-19.25"/>
<text text-anchor="middle" x="932" y="-5.75" font-family="Helvetica,sans-Serif" font-size="10.00">iostream</text>
</a>
</g>
</g>
<!-- Node1&#45;&gt;Node5 -->
<g id="edge25_Node000001_Node000005" class="edge">
<title>Node1&#45;&gt;Node5</title>
<g id="a_edge25_Node000001_Node000005"><a xlink:title=" ">
<path fill="none" stroke="#63b8ff" d="M1075.28,-167.62C1046.73,-161.69 1013.01,-150.58 989,-129.75 958.5,-103.29 942.99,-56.86 936.28,-30.46"/>
<polygon fill="#63b8ff" stroke="#63b8ff" points="939.76,-29.99 934.07,-21.05 932.95,-31.59 939.76,-29.99"/>
</a>
</g>
</g>
<!-- Node24 -->
<g id="Node000024" class="node">
<title>Node24</title>
<g id="a_Node000024"><a xlink:title=" ">
<polygon fill="#e0e0e0" stroke="#999999" points="1053.88,-129.75 998.12,-129.75 998.12,-110.5 1053.88,-110.5 1053.88,-129.75"/>
<text text-anchor="middle" x="1026" y="-116.25" font-family="Helvetica,sans-Serif" font-size="10.00">algorithm</text>
</a>
</g>
</g>
<!-- Node1&#45;&gt;Node24 -->
<g id="edge26_Node000001_Node000024" class="edge">
<title>Node1&#45;&gt;Node24</title>
<g id="a_edge26_Node000001_Node000024"><a xlink:title=" ">
<path fill="none" stroke="#63b8ff" d="M1113.19,-165.34C1096.97,-157.12 1072.76,-144.84 1053.97,-135.31"/>
<polygon fill="#63b8ff" stroke="#63b8ff" points="1055.75,-132.29 1045.25,-130.89 1052.58,-138.53 1055.75,-132.29"/>
</a>
</g>
</g>
<!-- Node25 -->
<g id="Node000025" class="node">
<title>Node25</title>
<g id="a_Node000025"><a xlink:title=" ">
<polygon fill="#e0e0e0" stroke="#999999" points="1123.62,-129.75 1072.38,-129.75 1072.38,-110.5 1123.62,-110.5 1123.62,-129.75"/>
<text text-anchor="middle" x="1098" y="-116.25" font-family="Helvetica,sans-Serif" font-size="10.00">TMath.h</text>
</a>
</g>
</g>
<!-- Node1&#45;&gt;Node25 -->
<g id="edge27_Node000001_Node000025" class="edge">
<title>Node1&#45;&gt;Node25</title>
<g id="a_edge27_Node000001_Node000025"><a xlink:title=" ">
<path fill="none" stroke="#63b8ff" d="M1125.55,-165.58C1121.23,-158.61 1115.04,-148.62 1109.62,-139.87"/>
<polygon fill="#63b8ff" stroke="#63b8ff" points="1112.61,-138.05 1104.36,-131.4 1106.66,-141.74 1112.61,-138.05"/>
</a>
</g>
</g>
<!-- Node26 -->
<g id="Node000026" class="node">
<title>Node26</title>
<g id="a_Node000026"><a xlink:title=" ">
<polygon fill="#e0e0e0" stroke="#999999" points="1188.38,-129.75 1141.62,-129.75 1141.62,-110.5 1188.38,-110.5 1188.38,-129.75"/>
<text text-anchor="middle" x="1165" y="-116.25" font-family="Helvetica,sans-Serif" font-size="10.00">TPad.h</text>
</a>
</g>
</g>
<!-- Node1&#45;&gt;Node26 -->
<g id="edge28_Node000001_Node000026" class="edge">
<title>Node1&#45;&gt;Node26</title>
<g id="a_edge28_Node000001_Node000026"><a xlink:title=" ">
<path fill="none" stroke="#63b8ff" d="M1136.61,-165.58C1141.12,-158.53 1147.59,-148.4 1153.21,-139.58"/>
<polygon fill="#63b8ff" stroke="#63b8ff" points="1156.02,-141.7 1158.45,-131.38 1150.12,-137.93 1156.02,-141.7"/>
</a>
</g>
</g>
<!-- Node27 -->
<g id="Node000027" class="node">
<title>Node27</title>
<g id="a_Node000027"><a xlink:title=" ">
<polygon fill="#e0e0e0" stroke="#999999" points="1247.38,-129.75 1206.62,-129.75 1206.62,-110.5 1247.38,-110.5 1247.38,-129.75"/>
<text text-anchor="middle" x="1227" y="-116.25" font-family="Helvetica,sans-Serif" font-size="10.00">TF1.h</text>
</a>
</g>
</g>
<!-- Node1&#45;&gt;Node27 -->
<g id="edge29_Node000001_Node000027" class="edge">
<title>Node1&#45;&gt;Node27</title>
<g id="a_edge29_Node000001_Node000027"><a xlink:title=" ">
<path fill="none" stroke="#63b8ff" d="M1147.29,-165.34C1161.9,-157.23 1183.63,-145.18 1200.71,-135.71"/>
<polygon fill="#63b8ff" stroke="#63b8ff" points="1202.26,-138.85 1209.31,-130.94 1198.87,-132.73 1202.26,-138.85"/>
</a>
</g>
</g>
<!-- Node28 -->
<g id="Node000028" class="node">
<title>Node28</title>
<g id="a_Node000028"><a xlink:title=" ">
<polygon fill="#e0e0e0" stroke="#999999" points="1320.5,-129.75 1265.5,-129.75 1265.5,-110.5 1320.5,-110.5 1320.5,-129.75"/>
<text text-anchor="middle" x="1293" y="-116.25" font-family="Helvetica,sans-Serif" font-size="10.00">TBuffer.h</text>
</a>
</g>
</g>
<!-- Node1&#45;&gt;Node28 -->
<g id="edge30_Node000001_Node000028" class="edge">
<title>Node1&#45;&gt;Node28</title>
<g id="a_edge30_Node000001_Node000028"><a xlink:title=" ">
<path fill="none" stroke="#63b8ff" d="M1158.48,-165.34C1184.9,-156.66 1225.06,-143.46 1254.62,-133.74"/>
<polygon fill="#63b8ff" stroke="#63b8ff" points="1255.54,-137.12 1263.95,-130.68 1253.35,-130.47 1255.54,-137.12"/>
</a>
</g>
</g>
<!-- Node29 -->
<g id="Node000029" class="node">
<title>Node29</title>
<g id="a_Node000029"><a xlink:title=" ">
<polygon fill="#e0e0e0" stroke="#999999" points="1387.12,-129.75 1338.88,-129.75 1338.88,-110.5 1387.12,-110.5 1387.12,-129.75"/>
<text text-anchor="middle" x="1363" y="-116.25" font-family="Helvetica,sans-Serif" font-size="10.00">TH1F.h</text>
</a>
</g>
</g>
<!-- Node1&#45;&gt;Node29 -->
<g id="edge31_Node000001_Node000029" class="edge">
<title>Node1&#45;&gt;Node29</title>
<g id="a_edge31_Node000001_Node000029"><a xlink:title=" ">
<path fill="none" stroke="#63b8ff" d="M1173.41,-165.31C1211.41,-157.1 1268.92,-144.42 1327.56,-130.28"/>
<polygon fill="#63b8ff" stroke="#63b8ff" points="1328.15,-133.74 1337.04,-127.98 1326.5,-126.94 1328.15,-133.74"/>
</a>
</g>
</g>
<!-- Node3 -->
<g id="Node000003" class="node">
<title>Node3</title>
<g id="a_Node000003"><a xlink:title=" ">
<polygon fill="#e0e0e0" stroke="#999999" points="903.5,-74.5 860.5,-74.5 860.5,-55.25 903.5,-55.25 903.5,-74.5"/>
<text text-anchor="middle" x="882" y="-61" font-family="Helvetica,sans-Serif" font-size="10.00">vector</text>
</a>
</g>
</g>
<!-- Node2&#45;&gt;Node3 -->
<g id="edge2_Node000002_Node000003" class="edge">
<title>Node2&#45;&gt;Node3</title>
<g id="a_edge2_Node000002_Node000003"><a xlink:title=" ">
<path fill="none" stroke="#63b8ff" d="M724.81,-110.06C754.89,-101.72 800.96,-88.92 849.1,-75.31"/>
<polygon fill="#63b8ff" stroke="#63b8ff" points="849.93,-78.71 858.59,-72.62 848.02,-71.98 849.93,-78.71"/>
</a>
</g>
</g>
<!-- Node4 -->
<g id="Node000004" class="node">
<title>Node4</title>
<g id="a_Node000004"><a xlink:title=" ">
<polygon fill="#e0e0e0" stroke="#999999" points="40,-19.25 0,-19.25 0,0 40,0 40,-19.25"/>
<text text-anchor="middle" x="20" y="-5.75" font-family="Helvetica,sans-Serif" font-size="10.00">string</text>
</a>
</g>
</g>
<!-- Node2&#45;&gt;Node4 -->
<g id="edge3_Node000002_Node000004" class="edge">
<title>Node2&#45;&gt;Node4</title>
<g id="a_edge3_Node000002_Node000004"><a xlink:title=" ">
<path fill="none" stroke="#63b8ff" d="M641.07,-113.86C533.44,-102.16 275.05,-71.1 51.17,-19.52"/>
<polygon fill="#63b8ff" stroke="#63b8ff" points="52.21,-16.17 41.67,-17.31 50.62,-22.98 52.21,-16.17"/>
</a>
</g>
</g>
<!-- Node2&#45;&gt;Node5 -->
<g id="edge4_Node000002_Node000005" class="edge">
<title>Node2&#45;&gt;Node5</title>
<g id="a_edge4_Node000002_Node000005"><a xlink:title=" ">
<path fill="none" stroke="#63b8ff" d="M743.02,-114.87C800.35,-109.08 888.62,-96.78 913,-74.5 925.15,-63.39 929.67,-44.89 931.28,-30.66"/>
<polygon fill="#63b8ff" stroke="#63b8ff" points="934.74,-31.26 931.96,-21.04 927.76,-30.77 934.74,-31.26"/>
</a>
</g>
</g>
<!-- Node6 -->
<g id="Node000006" class="node">
<title>Node6</title>
<g id="a_Node000006"><a xlink:title=" ">
<polygon fill="#e0e0e0" stroke="#999999" points="515.5,-74.5 454.5,-74.5 454.5,-55.25 515.5,-55.25 515.5,-74.5"/>
<text text-anchor="middle" x="485" y="-61" font-family="Helvetica,sans-Serif" font-size="10.00">TNamed.h</text>
</a>
</g>
</g>
<!-- Node2&#45;&gt;Node6 -->
<g id="edge5_Node000002_Node000006" class="edge">
<title>Node2&#45;&gt;Node6</title>
<g id="a_edge5_Node000002_Node000006"><a xlink:title=" ">
<path fill="none" stroke="#63b8ff" d="M656.89,-110.09C620.88,-100.83 564.88,-86.42 526.65,-76.59"/>
<polygon fill="#63b8ff" stroke="#63b8ff" points="527.91,-73.3 517.35,-74.2 526.17,-80.08 527.91,-73.3"/>
</a>
</g>
</g>
<!-- Node7 -->
<g id="Node000007" class="node">
<title>Node7</title>
<g id="a_Node000007"><a xlink:title=" ">
<polygon fill="#e0e0e0" stroke="#999999" points="614.62,-74.5 533.38,-74.5 533.38,-55.25 614.62,-55.25 614.62,-74.5"/>
<text text-anchor="middle" x="574" y="-61" font-family="Helvetica,sans-Serif" font-size="10.00">TGraphErrors.h</text>
</a>
</g>
</g>
<!-- Node2&#45;&gt;Node7 -->
<g id="edge6_Node000002_Node000007" class="edge">
<title>Node2&#45;&gt;Node7</title>
<g id="a_edge6_Node000002_Node000007"><a xlink:title=" ">
<path fill="none" stroke="#63b8ff" d="M671.98,-110.09C653.51,-101.75 625.79,-89.25 604.55,-79.66"/>
<polygon fill="#63b8ff" stroke="#63b8ff" points="606.05,-76.5 595.49,-75.58 603.17,-82.88 606.05,-76.5"/>
</a>
</g>
</g>
<!-- Node8 -->
<g id="Node000008" class="node">
<title>Node8</title>
<g id="a_Node000008"><a xlink:title=" ">
<polygon fill="#e0e0e0" stroke="#999999" points="679,-74.5 633,-74.5 633,-55.25 679,-55.25 679,-74.5"/>
<text text-anchor="middle" x="656" y="-61" font-family="Helvetica,sans-Serif" font-size="10.00">TList.h</text>
</a>
</g>
</g>
<!-- Node2&#45;&gt;Node8 -->
<g id="edge7_Node000002_Node000008" class="edge">
<title>Node2&#45;&gt;Node8</title>
<g id="a_edge7_Node000002_Node000008"><a xlink:title=" ">
<path fill="none" stroke="#63b8ff" d="M686.06,-110.33C681.29,-103.28 674.44,-93.15 668.48,-84.33"/>
<polygon fill="#63b8ff" stroke="#63b8ff" points="671.42,-82.44 662.92,-76.11 665.62,-86.36 671.42,-82.44"/>
</a>
</g>
</g>
<!-- Node9 -->
<g id="Node000009" class="node">
<title>Node9</title>
<g id="a_Node000009"><a xlink:title=" ">
<polygon fill="#e0e0e0" stroke="#999999" points="758.88,-74.5 697.12,-74.5 697.12,-55.25 758.88,-55.25 758.88,-74.5"/>
<text text-anchor="middle" x="728" y="-61" font-family="Helvetica,sans-Serif" font-size="10.00">TLegend.h</text>
</a>
</g>
</g>
<!-- Node2&#45;&gt;Node9 -->
<g id="edge8_Node000002_Node000009" class="edge">
<title>Node2&#45;&gt;Node9</title>
<g id="a_edge8_Node000002_Node000009"><a xlink:title=" ">
<path fill="none" stroke="#63b8ff" d="M697.94,-110.33C702.71,-103.28 709.56,-93.15 715.52,-84.33"/>
<polygon fill="#63b8ff" stroke="#63b8ff" points="718.38,-86.36 721.08,-76.11 712.58,-82.44 718.38,-86.36"/>
</a>
</g>
</g>
<!-- Node10 -->
<g id="Node000010" class="node">
<title>Node10</title>
<g id="a_Node000010"><a xlink:title=" ">
<polygon fill="#e0e0e0" stroke="#999999" points="842.75,-74.5 777.25,-74.5 777.25,-55.25 842.75,-55.25 842.75,-74.5"/>
<text text-anchor="middle" x="810" y="-61" font-family="Helvetica,sans-Serif" font-size="10.00">TQObject.h</text>
</a>
</g>
</g>
<!-- Node2&#45;&gt;Node10 -->
<g id="edge9_Node000002_Node000010" class="edge">
<title>Node2&#45;&gt;Node10</title>
<g id="a_edge9_Node000002_Node000010"><a xlink:title=" ">
<path fill="none" stroke="#63b8ff" d="M712.02,-110.09C730.49,-101.75 758.21,-89.25 779.45,-79.66"/>
<polygon fill="#63b8ff" stroke="#63b8ff" points="780.83,-82.88 788.51,-75.58 777.95,-76.5 780.83,-82.88"/>
</a>
</g>
</g>
<!-- Node11 -->
<g id="Node000011" class="node">
<title>Node11</title>
<g id="a_Node000011"><a xlink:href="_globals_8h.html" target="_top" xlink:title=" ">
<polygon fill="white" stroke="#666666" points="436.25,-74.5 379.75,-74.5 379.75,-55.25 436.25,-55.25 436.25,-74.5"/>
<text text-anchor="middle" x="408" y="-61" font-family="Helvetica,sans-Serif" font-size="10.00">Globals.h</text>
</a>
</g>
</g>
<!-- Node2&#45;&gt;Node11 -->
<g id="edge10_Node000002_Node000011" class="edge">
<title>Node2&#45;&gt;Node11</title>
<g id="a_edge10_Node000002_Node000011"><a xlink:title=" ">
<path fill="none" stroke="#63b8ff" d="M640.99,-110.54C593.59,-102.42 520.74,-89.55 447.83,-74.79"/>
<polygon fill="#63b8ff" stroke="#63b8ff" points="448.59,-71.38 438.09,-72.81 447.19,-78.24 448.59,-71.38"/>
</a>
</g>
</g>
<!-- Node11&#45;&gt;Node4 -->
<g id="edge14_Node000011_Node000004" class="edge">
<title>Node11&#45;&gt;Node4</title>
<g id="a_edge14_Node000011_Node000004"><a xlink:title=" ">
<path fill="none" stroke="#63b8ff" d="M379.35,-61.93C319.89,-57.55 178.71,-45.38 51.57,-19.48"/>
<polygon fill="#63b8ff" stroke="#63b8ff" points="52.47,-16.09 41.97,-17.48 51.05,-22.94 52.47,-16.09"/>
</a>
</g>
</g>
<!-- Node11&#45;&gt;Node5 -->
<g id="edge11_Node000011_Node000005" class="edge">
<title>Node11&#45;&gt;Node5</title>
<g id="a_edge11_Node000011_Node000005"><a xlink:title=" ">
<path fill="none" stroke="#63b8ff" d="M436.55,-56.94C439.73,-56.31 442.92,-55.72 446,-55.25 636.41,-25.86 686.74,-42.46 878,-19.25 883.07,-18.64 888.39,-17.9 893.63,-17.12"/>
<polygon fill="#63b8ff" stroke="#63b8ff" points="894.02,-20.6 903.37,-15.6 892.95,-13.68 894.02,-20.6"/>
</a>
</g>
</g>
<!-- Node12 -->
<g id="Node000012" class="node">
<title>Node12</title>
<g id="a_Node000012"><a xlink:title=" ">
<polygon fill="#e0e0e0" stroke="#999999" points="107.88,-19.25 58.12,-19.25 58.12,0 107.88,0 107.88,-19.25"/>
<text text-anchor="middle" x="83" y="-5.75" font-family="Helvetica,sans-Serif" font-size="10.00">iomanip</text>
</a>
</g>
</g>
<!-- Node11&#45;&gt;Node12 -->
<g id="edge12_Node000011_Node000012" class="edge">
<title>Node11&#45;&gt;Node12</title>
<g id="a_edge12_Node000011_Node000012"><a xlink:title=" ">
<path fill="none" stroke="#63b8ff" d="M379.34,-60.41C328.81,-54.1 220.4,-39.68 119.22,-19.53"/>
<polygon fill="#63b8ff" stroke="#63b8ff" points="120.17,-16.15 109.67,-17.6 118.78,-23.01 120.17,-16.15"/>
</a>
</g>
</g>
<!-- Node13 -->
<g id="Node000013" class="node">
<title>Node13</title>
<g id="a_Node000013"><a xlink:title=" ">
<polygon fill="#e0e0e0" stroke="#999999" points="184,-19.25 126,-19.25 126,0 184,0 184,-19.25"/>
<text text-anchor="middle" x="155" y="-5.75" font-family="Helvetica,sans-Serif" font-size="10.00">stdexcept</text>
</a>
</g>
</g>
<!-- Node11&#45;&gt;Node13 -->
<g id="edge13_Node000011_Node000013" class="edge">
<title>Node11&#45;&gt;Node13</title>
<g id="a_edge13_Node000011_Node000013"><a xlink:title=" ">
<path fill="none" stroke="#63b8ff" d="M379.45,-58.12C340.24,-50.19 267.26,-35.29 195.49,-19.76"/>
<polygon fill="#63b8ff" stroke="#63b8ff" points="196.44,-16.39 185.93,-17.69 194.96,-23.23 196.44,-16.39"/>
</a>
</g>
</g>
<!-- Node14 -->
<g id="Node000014" class="node">
<title>Node14</title>
<g id="a_Node000014"><a xlink:title=" ">
<polygon fill="#e0e0e0" stroke="#999999" points="244.12,-19.25 201.88,-19.25 201.88,0 244.12,0 244.12,-19.25"/>
<text text-anchor="middle" x="223" y="-5.75" font-family="Helvetica,sans-Serif" font-size="10.00">cstdio</text>
</a>
</g>
</g>
<!-- Node11&#45;&gt;Node14 -->
<g id="edge15_Node000011_Node000014" class="edge">
<title>Node11&#45;&gt;Node14</title>
<g id="a_edge15_Node000011_Node000014"><a xlink:title=" ">
<path fill="none" stroke="#63b8ff" d="M379.5,-55.67C345.93,-46.01 290.32,-30 255.22,-19.9"/>
<polygon fill="#63b8ff" stroke="#63b8ff" points="256.63,-16.66 246.05,-17.26 254.69,-23.39 256.63,-16.66"/>
</a>
</g>
</g>
<!-- Node15 -->
<g id="Node000015" class="node">
<title>Node15</title>
<g id="a_Node000015"><a xlink:title=" ">
<polygon fill="#e0e0e0" stroke="#999999" points="306.25,-19.25 261.75,-19.25 261.75,0 306.25,0 306.25,-19.25"/>
<text text-anchor="middle" x="284" y="-5.75" font-family="Helvetica,sans-Serif" font-size="10.00">cstdlib</text>
</a>
</g>
</g>
<!-- Node11&#45;&gt;Node15 -->
<g id="edge16_Node000011_Node000015" class="edge">
<title>Node11&#45;&gt;Node15</title>
<g id="a_edge16_Node000011_Node000015"><a xlink:title=" ">
<path fill="none" stroke="#63b8ff" d="M386.97,-54.84C367.37,-46.43 337.89,-33.77 315.49,-24.15"/>
<polygon fill="#63b8ff" stroke="#63b8ff" points="317.1,-21.03 306.53,-20.3 314.34,-27.46 317.1,-21.03"/>
</a>
</g>
</g>
<!-- Node16 -->
<g id="Node000016" class="node">
<title>Node16</title>
<g id="a_Node000016"><a xlink:title=" ">
<polygon fill="#e0e0e0" stroke="#999999" points="383.75,-19.25 324.25,-19.25 324.25,0 383.75,0 383.75,-19.25"/>
<text text-anchor="middle" x="354" y="-5.75" font-family="Helvetica,sans-Serif" font-size="10.00">execinfo.h</text>
</a>
</g>
</g>
<!-- Node11&#45;&gt;Node16 -->
<g id="edge17_Node000011_Node000016" class="edge">
<title>Node11&#45;&gt;Node16</title>
<g id="a_edge17_Node000011_Node000016"><a xlink:title=" ">
<path fill="none" stroke="#63b8ff" d="M399.08,-55.08C391.55,-47.65 380.53,-36.79 371.27,-27.66"/>
<polygon fill="#63b8ff" stroke="#63b8ff" points="373.77,-25.2 364.19,-20.67 368.85,-30.19 373.77,-25.2"/>
</a>
</g>
</g>
<!-- Node17 -->
<g id="Node000017" class="node">
<title>Node17</title>
<g id="a_Node000017"><a xlink:title=" ">
<polygon fill="#e0e0e0" stroke="#999999" points="452.25,-19.25 401.75,-19.25 401.75,0 452.25,0 452.25,-19.25"/>
<text text-anchor="middle" x="427" y="-5.75" font-family="Helvetica,sans-Serif" font-size="10.00">cxxabi.h</text>
</a>
</g>
</g>
<!-- Node11&#45;&gt;Node17 -->
<g id="edge18_Node000011_Node000017" class="edge">
<title>Node11&#45;&gt;Node17</title>
<g id="a_edge18_Node000011_Node000017"><a xlink:title=" ">
<path fill="none" stroke="#63b8ff" d="M411.14,-55.08C413.54,-48.34 416.96,-38.77 420,-30.24"/>
<polygon fill="#63b8ff" stroke="#63b8ff" points="423.22,-31.63 423.29,-21.03 416.63,-29.28 423.22,-31.63"/>
</a>
</g>
</g>
<!-- Node18 -->
<g id="Node000018" class="node">
<title>Node18</title>
<g id="a_Node000018"><a xlink:title=" ">
<polygon fill="#e0e0e0" stroke="#999999" points="521.62,-19.25 470.38,-19.25 470.38,0 521.62,0 521.62,-19.25"/>
<text text-anchor="middle" x="496" y="-5.75" font-family="Helvetica,sans-Serif" font-size="10.00">sstream</text>
</a>
</g>
</g>
<!-- Node11&#45;&gt;Node18 -->
<g id="edge19_Node000011_Node000018" class="edge">
<title>Node11&#45;&gt;Node18</title>
<g id="a_edge19_Node000011_Node000018"><a xlink:title=" ">
<path fill="none" stroke="#63b8ff" d="M422.93,-54.84C436.2,-46.81 455.87,-34.91 471.45,-25.48"/>
<polygon fill="#63b8ff" stroke="#63b8ff" points="472.96,-28.66 479.7,-20.49 469.34,-22.67 472.96,-28.66"/>
</a>
</g>
</g>
<!-- Node19 -->
<g id="Node000019" class="node">
<title>Node19</title>
<g id="a_Node000019"><a xlink:title=" ">
<polygon fill="#e0e0e0" stroke="#999999" points="576.5,-19.25 539.5,-19.25 539.5,0 576.5,0 576.5,-19.25"/>
<text text-anchor="middle" x="558" y="-5.75" font-family="Helvetica,sans-Serif" font-size="10.00">array</text>
</a>
</g>
</g>
<!-- Node11&#45;&gt;Node19 -->
<g id="edge20_Node000011_Node000019" class="edge">
<title>Node11&#45;&gt;Node19</title>
<g id="a_edge20_Node000011_Node000019"><a xlink:title=" ">
<path fill="none" stroke="#63b8ff" d="M433.45,-54.84C459.75,-45.51 500.76,-30.94 528.47,-21.11"/>
<polygon fill="#63b8ff" stroke="#63b8ff" points="529.42,-24.49 537.67,-17.84 527.07,-17.89 529.42,-24.49"/>
</a>
</g>
</g>
<!-- Node20 -->
<g id="Node000020" class="node">
<title>Node20</title>
<g id="a_Node000020"><a xlink:title=" ">
<polygon fill="#e0e0e0" stroke="#999999" points="645.25,-19.25 594.75,-19.25 594.75,0 645.25,0 645.25,-19.25"/>
<text text-anchor="middle" x="620" y="-5.75" font-family="Helvetica,sans-Serif" font-size="10.00">memory</text>
</a>
</g>
</g>
<!-- Node11&#45;&gt;Node20 -->
<g id="edge21_Node000011_Node000020" class="edge">
<title>Node11&#45;&gt;Node20</title>
<g id="a_edge21_Node000011_Node000020"><a xlink:title=" ">
<path fill="none" stroke="#63b8ff" d="M436.68,-56.71C469.73,-48.45 525.98,-34.37 583.29,-19.93"/>
<polygon fill="#63b8ff" stroke="#63b8ff" points="584.07,-23.34 592.91,-17.5 582.36,-16.55 584.07,-23.34"/>
</a>
</g>
</g>
<!-- Node21 -->
<g id="Node000021" class="node">
<title>Node21</title>
<g id="a_Node000021"><a xlink:title=" ">
<polygon fill="#e0e0e0" stroke="#999999" points="712.88,-19.25 663.12,-19.25 663.12,0 712.88,0 712.88,-19.25"/>
<text text-anchor="middle" x="688" y="-5.75" font-family="Helvetica,sans-Serif" font-size="10.00">unistd.h</text>
</a>
</g>
</g>
<!-- Node11&#45;&gt;Node21 -->
<g id="edge22_Node000011_Node000021" class="edge">
<title>Node11&#45;&gt;Node21</title>
<g id="a_edge22_Node000011_Node000021"><a xlink:title=" ">
<path fill="none" stroke="#63b8ff" d="M436.6,-57.22C439.77,-56.53 442.95,-55.86 446,-55.25 534.5,-37.56 560.3,-38.68 651.63,-19.61"/>
<polygon fill="#63b8ff" stroke="#63b8ff" points="652.26,-23.06 661.32,-17.56 650.81,-16.21 652.26,-23.06"/>
</a>
</g>
</g>
<!-- Node22 -->
<g id="Node000022" class="node">
<title>Node22</title>
<g id="a_Node000022"><a xlink:title=" ">
<polygon fill="#e0e0e0" stroke="#999999" points="790.75,-19.25 731.25,-19.25 731.25,0 790.75,0 790.75,-19.25"/>
<text text-anchor="middle" x="761" y="-5.75" font-family="Helvetica,sans-Serif" font-size="10.00">sys/wait.h</text>
</a>
</g>
</g>
<!-- Node11&#45;&gt;Node22 -->
<g id="edge23_Node000011_Node000022" class="edge">
<title>Node11&#45;&gt;Node22</title>
<g id="a_edge23_Node000011_Node000022"><a xlink:title=" ">
<path fill="none" stroke="#63b8ff" d="M436.58,-57.09C439.75,-56.42 442.94,-55.8 446,-55.25 564.22,-34.17 598.18,-40.24 719.58,-19.52"/>
<polygon fill="#63b8ff" stroke="#63b8ff" points="720.07,-22.99 729.33,-17.83 718.88,-16.1 720.07,-22.99"/>
</a>
</g>
</g>
<!-- Node23 -->
<g id="Node000023" class="node">
<title>Node23</title>
<g id="a_Node000023"><a xlink:title=" ">
<polygon fill="#e0e0e0" stroke="#999999" points="869.12,-19.25 808.88,-19.25 808.88,0 869.12,0 869.12,-19.25"/>
<text text-anchor="middle" x="839" y="-5.75" font-family="Helvetica,sans-Serif" font-size="10.00">sys/prctl.h</text>
</a>
</g>
</g>
<!-- Node11&#45;&gt;Node23 -->
<g id="edge24_Node000011_Node000023" class="edge">
<title>Node11&#45;&gt;Node23</title>
<g id="a_edge24_Node000011_Node000023"><a xlink:title=" ">
<path fill="none" stroke="#63b8ff" d="M436.56,-57C439.73,-56.35 442.93,-55.75 446,-55.25 598.41,-30.3 641.84,-43.7 797.04,-19.55"/>
<polygon fill="#63b8ff" stroke="#63b8ff" points="797.59,-23.01 806.91,-17.98 796.49,-16.09 797.59,-23.01"/>
</a>
</g>
</g>
</g>
</svg>

<g id="navigator" transform="translate(0 0)" fill="#404254">
  <rect fill="#f2f5e9" fill-opacity="0.5" stroke="#606060" stroke-width=".5" x="0" y="0" width="60" height="60"/>
  <use id="zoomplus" xlink:href="#zoomPlus" x="17" y="9" onmousedown="handleZoom(evt,'in')"/>
  <use id="zoomminus" xlink:href="#zoomMin" x="42" y="9" onmousedown="handleZoom(evt,'out')"/>
  <use id="reset" xlink:href="#resetDef" x="30" y="36" onmousedown="handleReset()"/>
   <use id="arrowup" xlink:href="#arrowUp" x="0" y="0" onmousedown="handlePan(0,-1)"/>
  <use id="arrowright" xlink:href="#arrowRight" x="0" y="0" onmousedown="handlePan(1,0)"/>
  <use id="arrowdown" xlink:href="#arrowDown" x="0" y="0" onmousedown="handlePan(0,1)"/>
  <use id="arrowleft" xlink:href="#arrowLeft" x="0" y="0" onmousedown="handlePan(-1,0)"/>
</g>
<svg viewBox="0 0 15 15" width="100%" height="30px" preserveAspectRatio="xMaxYMin meet">
 <g id="arrow_out" transform="scale(0.3 0.3)">
  <a xlink:href="_t_calibration_graph_8cxx__incl_org.svg" target="_base">
   <rect id="button" ry="5" rx="5" y="6" x="6" height="38" width="38"
        fill="#f2f5e9" fill-opacity="0.5" stroke="#606060" stroke-width="1.0"/>
   <path id="arrow"
     d="M 11.500037,31.436501 C 11.940474,20.09759 22.043105,11.32322 32.158766,21.979434 L 37.068811,17.246167 C 37.068811,17.246167 37.088388,32 37.088388,32 L 22.160133,31.978069 C 22.160133,31.978069 26.997745,27.140456 26.997745,27.140456 C 18.528582,18.264221 13.291696,25.230495 11.500037,31.436501 z"
     style="fill:#404040;"/>
  </a>
 </g>
</svg>

<style type='text/css'>
<![CDATA[
[data-mouse-over-selected='false'] { opacity: 0.7; }
[data-mouse-over-selected='true']  { opacity: 1.0; }
]]>
</style>
<script type="application/ecmascript"><![CDATA[
document.addEventListener('DOMContentLoaded', (event) => {
  highlightEdges();
  highlightAdjacentNodes();
});
]]></script>
</svg>
