<?xml version="1.0" encoding="UTF-8" standalone="no"?>
<!DOCTYPE svg PUBLIC "-//W3C//DTD SVG 1.1//EN"
 "http://www.w3.org/Graphics/SVG/1.1/DTD/svg11.dtd">
<!-- Generated by graphviz version 9.0.0 (20230911.1827)
 -->
<!-- Title: TChannel.h Pages: 1 -->
<svg width="1773pt" height="193pt"
 viewBox="0.00 0.00 1773.25 193.00" xmlns="http://www.w3.org/2000/svg" xmlns:xlink="http://www.w3.org/1999/xlink">
<g id="graph0" class="graph" transform="scale(1 1) rotate(0) translate(4 189)">
<title>TChannel.h</title>
<!-- Node1 -->
<g id="Node000001" class="node">
<title>Node1</title>
<g id="a_Node000001"><a xlink:title=" ">
<polygon fill="#999999" stroke="#666666" points="1222,-185 1157.25,-185 1157.25,-165.75 1222,-165.75 1222,-185"/>
<text text-anchor="middle" x="1189.62" y="-171.5" font-family="Helvetica,sans-Serif" font-size="10.00">TChannel.h</text>
</a>
</g>
</g>
<!-- Node2 -->
<g id="Node000002" class="node">
<title>Node2</title>
<g id="a_Node000002"><a xlink:title=" ">
<polygon fill="#e0e0e0" stroke="#999999" points="1010.38,-19.25 956.88,-19.25 956.88,0 1010.38,0 1010.38,-19.25"/>
<text text-anchor="middle" x="983.62" y="-5.75" font-family="Helvetica,sans-Serif" font-size="10.00">iostream</text>
</a>
</g>
</g>
<!-- Node1&#45;&gt;Node2 -->
<g id="edge1_Node000001_Node000002" class="edge">
<title>Node1&#45;&gt;Node2</title>
<g id="a_edge1_Node000001_Node000002"><a xlink:title=" ">
<path fill="none" stroke="#63b8ff" d="M1156.86,-173C1099.21,-169.82 983.39,-159.76 958.62,-129.75 934.73,-100.8 956.03,-54.67 971.31,-29.14"/>
<polygon fill="#63b8ff" stroke="#63b8ff" points="974.17,-31.18 976.54,-20.85 968.24,-27.45 974.17,-31.18"/>
</a>
</g>
</g>
<!-- Node3 -->
<g id="Node000003" class="node">
<title>Node3</title>
<g id="a_Node000003"><a xlink:title=" ">
<polygon fill="#e0e0e0" stroke="#999999" points="1068.62,-19.25 1028.62,-19.25 1028.62,0 1068.62,0 1068.62,-19.25"/>
<text text-anchor="middle" x="1048.62" y="-5.75" font-family="Helvetica,sans-Serif" font-size="10.00">string</text>
</a>
</g>
</g>
<!-- Node1&#45;&gt;Node3 -->
<g id="edge2_Node000001_Node000003" class="edge">
<title>Node1&#45;&gt;Node3</title>
<g id="a_edge2_Node000001_Node000003"><a xlink:title=" ">
<path fill="none" stroke="#63b8ff" d="M1157.1,-172.66C1101.74,-169 992.94,-158.26 969.62,-129.75 941.16,-94.93 992.6,-49.7 1025.07,-26.26"/>
<polygon fill="#63b8ff" stroke="#63b8ff" points="1027,-29.18 1033.19,-20.58 1022.99,-23.44 1027,-29.18"/>
</a>
</g>
</g>
<!-- Node4 -->
<g id="Node000004" class="node">
<title>Node4</title>
<g id="a_Node000004"><a xlink:title=" ">
<polygon fill="#e0e0e0" stroke="#999999" points="1152.12,-129.75 1109.12,-129.75 1109.12,-110.5 1152.12,-110.5 1152.12,-129.75"/>
<text text-anchor="middle" x="1130.62" y="-116.25" font-family="Helvetica,sans-Serif" font-size="10.00">cmath</text>
</a>
</g>
</g>
<!-- Node1&#45;&gt;Node4 -->
<g id="edge3_Node000001_Node000004" class="edge">
<title>Node1&#45;&gt;Node4</title>
<g id="a_edge3_Node000001_Node000004"><a xlink:title=" ">
<path fill="none" stroke="#63b8ff" d="M1179.62,-165.34C1171.26,-157.8 1159.13,-146.85 1149.02,-137.73"/>
<polygon fill="#63b8ff" stroke="#63b8ff" points="1151.38,-135.14 1141.61,-131.04 1146.69,-140.34 1151.38,-135.14"/>
</a>
</g>
</g>
<!-- Node5 -->
<g id="Node000005" class="node">
<title>Node5</title>
<g id="a_Node000005"><a xlink:title=" ">
<polygon fill="#e0e0e0" stroke="#999999" points="1208.88,-129.75 1170.38,-129.75 1170.38,-110.5 1208.88,-110.5 1208.88,-129.75"/>
<text text-anchor="middle" x="1189.62" y="-116.25" font-family="Helvetica,sans-Serif" font-size="10.00">utility</text>
</a>
</g>
</g>
<!-- Node1&#45;&gt;Node5 -->
<g id="edge4_Node000001_Node000005" class="edge">
<title>Node1&#45;&gt;Node5</title>
<g id="a_edge4_Node000001_Node000005"><a xlink:title=" ">
<path fill="none" stroke="#63b8ff" d="M1189.62,-165.58C1189.62,-159.07 1189.62,-149.92 1189.62,-141.62"/>
<polygon fill="#63b8ff" stroke="#63b8ff" points="1193.13,-141.62 1189.63,-131.62 1186.13,-141.62 1193.13,-141.62"/>
</a>
</g>
</g>
<!-- Node6 -->
<g id="Node000006" class="node">
<title>Node6</title>
<g id="a_Node000006"><a xlink:title=" ">
<polygon fill="#e0e0e0" stroke="#999999" points="1310,-129.75 1227.25,-129.75 1227.25,-110.5 1310,-110.5 1310,-129.75"/>
<text text-anchor="middle" x="1268.62" y="-116.25" font-family="Helvetica,sans-Serif" font-size="10.00">unordered_map</text>
</a>
</g>
</g>
<!-- Node1&#45;&gt;Node6 -->
<g id="edge5_Node000001_Node000006" class="edge">
<title>Node1&#45;&gt;Node6</title>
<g id="a_edge5_Node000001_Node000006"><a xlink:title=" ">
<path fill="none" stroke="#63b8ff" d="M1203.03,-165.34C1214.72,-157.46 1231.93,-145.86 1245.79,-136.52"/>
<polygon fill="#63b8ff" stroke="#63b8ff" points="1247.57,-139.54 1253.9,-131.05 1243.65,-133.74 1247.57,-139.54"/>
</a>
</g>
</g>
<!-- Node7 -->
<g id="Node000007" class="node">
<title>Node7</title>
<g id="a_Node000007"><a xlink:title=" ">
<polygon fill="#e0e0e0" stroke="#999999" points="1389.12,-129.75 1328.12,-129.75 1328.12,-110.5 1389.12,-110.5 1389.12,-129.75"/>
<text text-anchor="middle" x="1358.62" y="-116.25" font-family="Helvetica,sans-Serif" font-size="10.00">TNamed.h</text>
</a>
</g>
</g>
<!-- Node1&#45;&gt;Node7 -->
<g id="edge6_Node000001_Node000007" class="edge">
<title>Node1&#45;&gt;Node7</title>
<g id="a_edge6_Node000001_Node000007"><a xlink:title=" ">
<path fill="none" stroke="#63b8ff" d="M1218.29,-165.34C1245.97,-156.62 1288.11,-143.34 1319,-133.61"/>
<polygon fill="#63b8ff" stroke="#63b8ff" points="1319.89,-137 1328.37,-130.66 1317.78,-130.32 1319.89,-137"/>
</a>
</g>
</g>
<!-- Node8 -->
<g id="Node000008" class="node">
<title>Node8</title>
<g id="a_Node000008"><a xlink:title=" ">
<polygon fill="#e0e0e0" stroke="#999999" points="1472.38,-129.75 1406.88,-129.75 1406.88,-110.5 1472.38,-110.5 1472.38,-129.75"/>
<text text-anchor="middle" x="1439.62" y="-116.25" font-family="Helvetica,sans-Serif" font-size="10.00">TRandom.h</text>
</a>
</g>
</g>
<!-- Node1&#45;&gt;Node8 -->
<g id="edge7_Node000001_Node000008" class="edge">
<title>Node1&#45;&gt;Node8</title>
<g id="a_edge7_Node000001_Node000008"><a xlink:title=" ">
<path fill="none" stroke="#63b8ff" d="M1222.31,-167.41C1266.64,-157.97 1345.96,-141.08 1395.52,-130.52"/>
<polygon fill="#63b8ff" stroke="#63b8ff" points="1396,-133.99 1405.06,-128.49 1394.55,-127.15 1396,-133.99"/>
</a>
</g>
</g>
<!-- Node9 -->
<g id="Node000009" class="node">
<title>Node9</title>
<g id="a_Node000009"><a xlink:title=" ">
<polygon fill="#e0e0e0" stroke="#999999" points="1536.62,-129.75 1490.62,-129.75 1490.62,-110.5 1536.62,-110.5 1536.62,-129.75"/>
<text text-anchor="middle" x="1513.62" y="-116.25" font-family="Helvetica,sans-Serif" font-size="10.00">TList.h</text>
</a>
</g>
</g>
<!-- Node1&#45;&gt;Node9 -->
<g id="edge8_Node000001_Node000009" class="edge">
<title>Node1&#45;&gt;Node9</title>
<g id="a_edge8_Node000001_Node000009"><a xlink:title=" ">
<path fill="none" stroke="#63b8ff" d="M1222.25,-170.6C1274.48,-164.29 1380.28,-150.45 1479.19,-130.06"/>
<polygon fill="#63b8ff" stroke="#63b8ff" points="1479.73,-133.52 1488.8,-128.05 1478.29,-126.67 1479.73,-133.52"/>
</a>
</g>
</g>
<!-- Node10 -->
<g id="Node000010" class="node">
<title>Node10</title>
<g id="a_Node000010"><a xlink:title=" ">
<polygon fill="#e0e0e0" stroke="#999999" points="1604.12,-129.75 1555.12,-129.75 1555.12,-110.5 1604.12,-110.5 1604.12,-129.75"/>
<text text-anchor="middle" x="1579.62" y="-116.25" font-family="Helvetica,sans-Serif" font-size="10.00">TTree.h</text>
</a>
</g>
</g>
<!-- Node1&#45;&gt;Node10 -->
<g id="edge9_Node000001_Node000010" class="edge">
<title>Node1&#45;&gt;Node10</title>
<g id="a_edge9_Node000001_Node000010"><a xlink:title=" ">
<path fill="none" stroke="#63b8ff" d="M1222.23,-171.65C1283.3,-166.25 1419.22,-152.86 1543.59,-129.9"/>
<polygon fill="#63b8ff" stroke="#63b8ff" points="1544.15,-133.36 1553.33,-128.07 1542.86,-126.48 1544.15,-133.36"/>
</a>
</g>
</g>
<!-- Node11 -->
<g id="Node000011" class="node">
<title>Node11</title>
<g id="a_Node000011"><a xlink:title=" ">
<polygon fill="#e0e0e0" stroke="#999999" points="1677.5,-129.75 1621.75,-129.75 1621.75,-110.5 1677.5,-110.5 1677.5,-129.75"/>
<text text-anchor="middle" x="1649.62" y="-116.25" font-family="Helvetica,sans-Serif" font-size="10.00">TGraph.h</text>
</a>
</g>
</g>
<!-- Node1&#45;&gt;Node11 -->
<g id="edge10_Node000001_Node000011" class="edge">
<title>Node1&#45;&gt;Node11</title>
<g id="a_edge10_Node000001_Node000011"><a xlink:title=" ">
<path fill="none" stroke="#63b8ff" d="M1222.27,-172.39C1291.91,-167.86 1460.33,-155.24 1610.18,-130.16"/>
<polygon fill="#63b8ff" stroke="#63b8ff" points="1610.63,-133.64 1619.91,-128.51 1609.46,-126.73 1610.63,-133.64"/>
</a>
</g>
</g>
<!-- Node12 -->
<g id="Node000012" class="node">
<title>Node12</title>
<g id="a_Node000012"><a xlink:href="_t_mnemonic_8h.html" target="_top" xlink:title=" ">
<polygon fill="white" stroke="#666666" points="1052.88,-129.75 978.38,-129.75 978.38,-110.5 1052.88,-110.5 1052.88,-129.75"/>
<text text-anchor="middle" x="1015.62" y="-116.25" font-family="Helvetica,sans-Serif" font-size="10.00">TMnemonic.h</text>
</a>
</g>
</g>
<!-- Node1&#45;&gt;Node12 -->
<g id="edge11_Node000001_Node000012" class="edge">
<title>Node1&#45;&gt;Node12</title>
<g id="a_edge11_Node000001_Node000012"><a xlink:title=" ">
<path fill="none" stroke="#63b8ff" d="M1156.97,-165.94C1126.7,-157.27 1082.01,-143.66 1050.94,-133.72"/>
<polygon fill="#63b8ff" stroke="#63b8ff" points="1052.2,-130.45 1041.6,-130.7 1050.04,-137.11 1052.2,-130.45"/>
</a>
</g>
</g>
<!-- Node15 -->
<g id="Node000015" class="node">
<title>Node15</title>
<g id="a_Node000015"><a xlink:href="_globals_8h.html" target="_top" xlink:title=" ">
<polygon fill="white" stroke="#666666" points="633.88,-74.5 577.38,-74.5 577.38,-55.25 633.88,-55.25 633.88,-74.5"/>
<text text-anchor="middle" x="605.62" y="-61" font-family="Helvetica,sans-Serif" font-size="10.00">Globals.h</text>
</a>
</g>
</g>
<!-- Node1&#45;&gt;Node15 -->
<g id="edge39_Node000001_Node000015" class="edge">
<title>Node1&#45;&gt;Node15</title>
<g id="a_edge39_Node000001_Node000015"><a xlink:title=" ">
<path fill="none" stroke="#63b8ff" d="M1157.09,-170.21C1102.46,-163.06 988.91,-147.48 893.62,-129.75 804.31,-113.13 700.5,-88.88 645.16,-75.55"/>
<polygon fill="#63b8ff" stroke="#63b8ff" points="646.12,-72.18 635.58,-73.23 644.47,-78.98 646.12,-72.18"/>
</a>
</g>
</g>
<!-- Node30 -->
<g id="Node000030" class="node">
<title>Node30</title>
<g id="a_Node000030"><a xlink:href="_t_priority_value_8h.html" target="_top" xlink:title=" ">
<polygon fill="white" stroke="#666666" points="1281.75,-74.5 1197.5,-74.5 1197.5,-55.25 1281.75,-55.25 1281.75,-74.5"/>
<text text-anchor="middle" x="1239.62" y="-61" font-family="Helvetica,sans-Serif" font-size="10.00">TPriorityValue.h</text>
</a>
</g>
</g>
<!-- Node1&#45;&gt;Node30 -->
<g id="edge40_Node000001_Node000030" class="edge">
<title>Node1&#45;&gt;Node30</title>
<g id="a_edge40_Node000001_Node000030"><a xlink:title=" ">
<path fill="none" stroke="#63b8ff" d="M1156.82,-165.67C1124.01,-155.3 1080.91,-136.1 1099.62,-110.5 1110.19,-96.05 1151.23,-84.03 1186.17,-76.13"/>
<polygon fill="#63b8ff" stroke="#63b8ff" points="1186.75,-79.58 1195.77,-74.03 1185.25,-72.74 1186.75,-79.58"/>
</a>
</g>
</g>
<!-- Node33 -->
<g id="Node000033" class="node">
<title>Node33</title>
<g id="a_Node000033"><a xlink:title=" ">
<polygon fill="#e0e0e0" stroke="#999999" points="1765.25,-129.75 1696,-129.75 1696,-110.5 1765.25,-110.5 1765.25,-129.75"/>
<text text-anchor="middle" x="1730.62" y="-116.25" font-family="Helvetica,sans-Serif" font-size="10.00">TClassRef.h</text>
</a>
</g>
</g>
<!-- Node1&#45;&gt;Node33 -->
<g id="edge38_Node000001_Node000033" class="edge">
<title>Node1&#45;&gt;Node33</title>
<g id="a_edge38_Node000001_Node000033"><a xlink:title=" ">
<path fill="none" stroke="#63b8ff" d="M1222.32,-172.62C1300.39,-168.18 1503.94,-155.11 1684.32,-129.93"/>
<polygon fill="#63b8ff" stroke="#63b8ff" points="1684.71,-133.41 1694.12,-128.54 1683.73,-126.48 1684.71,-133.41"/>
</a>
</g>
</g>
<!-- Node12&#45;&gt;Node1 -->
<g id="edge37_Node000012_Node000001" class="edge">
<title>Node12&#45;&gt;Node1</title>
<g id="a_edge37_Node000012_Node000001"><a xlink:title=" ">
<path fill="none" stroke="#63b8ff" d="M1050.51,-130.2C1080.74,-138.9 1124.08,-152.1 1154.4,-161.81"/>
<polygon fill="#63b8ff" stroke="#63b8ff" points="1153.29,-165.13 1163.89,-164.88 1155.45,-158.47 1153.29,-165.13"/>
</a>
</g>
</g>
<!-- Node12&#45;&gt;Node2 -->
<g id="edge13_Node000012_Node000002" class="edge">
<title>Node12&#45;&gt;Node2</title>
<g id="a_edge13_Node000012_Node000002"><a xlink:title=" ">
<path fill="none" stroke="#63b8ff" d="M1013.01,-110.25C1007.9,-92.92 996.48,-54.23 989.48,-30.49"/>
<polygon fill="#63b8ff" stroke="#63b8ff" points="992.89,-29.68 986.71,-21.08 986.18,-31.66 992.89,-29.68"/>
</a>
</g>
</g>
<!-- Node12&#45;&gt;Node3 -->
<g id="edge12_Node000012_Node000003" class="edge">
<title>Node12&#45;&gt;Node3</title>
<g id="a_edge12_Node000012_Node000003"><a xlink:title=" ">
<path fill="none" stroke="#63b8ff" d="M1018.33,-110.25C1023.6,-92.92 1035.36,-54.23 1042.58,-30.49"/>
<polygon fill="#63b8ff" stroke="#63b8ff" points="1045.89,-31.66 1045.45,-21.07 1039.19,-29.62 1045.89,-31.66"/>
</a>
</g>
</g>
<!-- Node13 -->
<g id="Node000013" class="node">
<title>Node13</title>
<g id="a_Node000013"><a xlink:title=" ">
<polygon fill="#e0e0e0" stroke="#999999" points="1107.62,-74.5 1049.62,-74.5 1049.62,-55.25 1107.62,-55.25 1107.62,-74.5"/>
<text text-anchor="middle" x="1078.62" y="-61" font-family="Helvetica,sans-Serif" font-size="10.00">TObject.h</text>
</a>
</g>
</g>
<!-- Node12&#45;&gt;Node13 -->
<g id="edge14_Node000012_Node000013" class="edge">
<title>Node12&#45;&gt;Node13</title>
<g id="a_edge14_Node000012_Node000013"><a xlink:title=" ">
<path fill="none" stroke="#63b8ff" d="M1026.31,-110.09C1035.33,-102.47 1048.46,-91.37 1059.31,-82.2"/>
<polygon fill="#63b8ff" stroke="#63b8ff" points="1061.56,-84.88 1066.94,-75.75 1057.04,-79.53 1061.56,-84.88"/>
</a>
</g>
</g>
<!-- Node14 -->
<g id="Node000014" class="node">
<title>Node14</title>
<g id="a_Node000014"><a xlink:title=" ">
<polygon fill="#e0e0e0" stroke="#999999" points="1179.75,-74.5 1125.5,-74.5 1125.5,-55.25 1179.75,-55.25 1179.75,-74.5"/>
<text text-anchor="middle" x="1152.62" y="-61" font-family="Helvetica,sans-Serif" font-size="10.00">TClass.h</text>
</a>
</g>
</g>
<!-- Node12&#45;&gt;Node14 -->
<g id="edge15_Node000012_Node000014" class="edge">
<title>Node12&#45;&gt;Node14</title>
<g id="a_edge15_Node000012_Node000014"><a xlink:title=" ">
<path fill="none" stroke="#63b8ff" d="M1038.87,-110.09C1060.81,-101.56 1093.97,-88.67 1118.84,-79.01"/>
<polygon fill="#63b8ff" stroke="#63b8ff" points="1119.81,-82.39 1127.86,-75.5 1117.27,-75.86 1119.81,-82.39"/>
</a>
</g>
</g>
<!-- Node12&#45;&gt;Node15 -->
<g id="edge16_Node000012_Node000015" class="edge">
<title>Node12&#45;&gt;Node15</title>
<g id="a_edge16_Node000012_Node000015"><a xlink:title=" ">
<path fill="none" stroke="#63b8ff" d="M978.15,-114.26C900.97,-104.23 724.85,-81.36 645.59,-71.07"/>
<polygon fill="#63b8ff" stroke="#63b8ff" points="646.04,-67.6 635.67,-69.78 645.14,-74.54 646.04,-67.6"/>
</a>
</g>
</g>
<!-- Node12&#45;&gt;Node30 -->
<g id="edge33_Node000012_Node000030" class="edge">
<title>Node12&#45;&gt;Node30</title>
<g id="a_edge33_Node000012_Node000030"><a xlink:title=" ">
<path fill="none" stroke="#63b8ff" d="M1053.37,-110.15C1090.98,-101.21 1148.92,-87.44 1190.18,-77.63"/>
<polygon fill="#63b8ff" stroke="#63b8ff" points="1190.96,-81.04 1199.88,-75.32 1189.34,-74.23 1190.96,-81.04"/>
</a>
</g>
</g>
<!-- Node15&#45;&gt;Node2 -->
<g id="edge18_Node000015_Node000002" class="edge">
<title>Node15&#45;&gt;Node2</title>
<g id="a_edge18_Node000015_Node000002"><a xlink:title=" ">
<path fill="none" stroke="#63b8ff" d="M634.16,-61.18C691.33,-55.56 824.13,-41.41 945.6,-19.44"/>
<polygon fill="#63b8ff" stroke="#63b8ff" points="945.87,-22.95 955.07,-17.7 944.61,-16.07 945.87,-22.95"/>
</a>
</g>
</g>
<!-- Node15&#45;&gt;Node3 -->
<g id="edge21_Node000015_Node000003" class="edge">
<title>Node15&#45;&gt;Node3</title>
<g id="a_edge21_Node000015_Node000003"><a xlink:title=" ">
<path fill="none" stroke="#63b8ff" d="M634.26,-62.58C700.24,-59.22 868.17,-48.51 1017.01,-19.43"/>
<polygon fill="#63b8ff" stroke="#63b8ff" points="1017.54,-22.9 1026.66,-17.51 1016.17,-16.03 1017.54,-22.9"/>
</a>
</g>
</g>
<!-- Node16 -->
<g id="Node000016" class="node">
<title>Node16</title>
<g id="a_Node000016"><a xlink:title=" ">
<polygon fill="#e0e0e0" stroke="#999999" points="526.25,-19.25 481,-19.25 481,0 526.25,0 526.25,-19.25"/>
<text text-anchor="middle" x="503.62" y="-5.75" font-family="Helvetica,sans-Serif" font-size="10.00">cstdint</text>
</a>
</g>
</g>
<!-- Node15&#45;&gt;Node16 -->
<g id="edge17_Node000015_Node000016" class="edge">
<title>Node15&#45;&gt;Node16</title>
<g id="a_edge17_Node000015_Node000016"><a xlink:title=" ">
<path fill="none" stroke="#63b8ff" d="M588.32,-54.84C572.64,-46.66 549.27,-34.46 531.05,-24.94"/>
<polygon fill="#63b8ff" stroke="#63b8ff" points="532.84,-21.93 522.35,-20.4 529.6,-28.13 532.84,-21.93"/>
</a>
</g>
</g>
<!-- Node17 -->
<g id="Node000017" class="node">
<title>Node17</title>
<g id="a_Node000017"><a xlink:title=" ">
<polygon fill="#e0e0e0" stroke="#999999" points="594.5,-19.25 544.75,-19.25 544.75,0 594.5,0 594.5,-19.25"/>
<text text-anchor="middle" x="569.62" y="-5.75" font-family="Helvetica,sans-Serif" font-size="10.00">iomanip</text>
</a>
</g>
</g>
<!-- Node15&#45;&gt;Node17 -->
<g id="edge19_Node000015_Node000017" class="edge">
<title>Node15&#45;&gt;Node17</title>
<g id="a_edge19_Node000015_Node000017"><a xlink:title=" ">
<path fill="none" stroke="#63b8ff" d="M599.68,-55.08C594.91,-48.03 588.06,-37.9 582.1,-29.08"/>
<polygon fill="#63b8ff" stroke="#63b8ff" points="585.05,-27.19 576.55,-20.86 579.25,-31.11 585.05,-27.19"/>
</a>
</g>
</g>
<!-- Node18 -->
<g id="Node000018" class="node">
<title>Node18</title>
<g id="a_Node000018"><a xlink:title=" ">
<polygon fill="#e0e0e0" stroke="#999999" points="670.62,-19.25 612.62,-19.25 612.62,0 670.62,0 670.62,-19.25"/>
<text text-anchor="middle" x="641.62" y="-5.75" font-family="Helvetica,sans-Serif" font-size="10.00">stdexcept</text>
</a>
</g>
</g>
<!-- Node15&#45;&gt;Node18 -->
<g id="edge20_Node000015_Node000018" class="edge">
<title>Node15&#45;&gt;Node18</title>
<g id="a_edge20_Node000015_Node000018"><a xlink:title=" ">
<path fill="none" stroke="#63b8ff" d="M611.57,-55.08C616.34,-48.03 623.19,-37.9 629.15,-29.08"/>
<polygon fill="#63b8ff" stroke="#63b8ff" points="632,-31.11 634.7,-20.86 626.2,-27.19 632,-31.11"/>
</a>
</g>
</g>
<!-- Node19 -->
<g id="Node000019" class="node">
<title>Node19</title>
<g id="a_Node000019"><a xlink:title=" ">
<polygon fill="#e0e0e0" stroke="#999999" points="730.75,-19.25 688.5,-19.25 688.5,0 730.75,0 730.75,-19.25"/>
<text text-anchor="middle" x="709.62" y="-5.75" font-family="Helvetica,sans-Serif" font-size="10.00">cstdio</text>
</a>
</g>
</g>
<!-- Node15&#45;&gt;Node19 -->
<g id="edge22_Node000015_Node000019" class="edge">
<title>Node15&#45;&gt;Node19</title>
<g id="a_edge22_Node000015_Node000019"><a xlink:title=" ">
<path fill="none" stroke="#63b8ff" d="M623.27,-54.84C639.25,-46.66 663.08,-34.46 681.66,-24.94"/>
<polygon fill="#63b8ff" stroke="#63b8ff" points="683.24,-28.07 690.55,-20.39 680.05,-21.83 683.24,-28.07"/>
</a>
</g>
</g>
<!-- Node20 -->
<g id="Node000020" class="node">
<title>Node20</title>
<g id="a_Node000020"><a xlink:title=" ">
<polygon fill="#e0e0e0" stroke="#999999" points="792.88,-19.25 748.38,-19.25 748.38,0 792.88,0 792.88,-19.25"/>
<text text-anchor="middle" x="770.62" y="-5.75" font-family="Helvetica,sans-Serif" font-size="10.00">cstdlib</text>
</a>
</g>
</g>
<!-- Node15&#45;&gt;Node20 -->
<g id="edge23_Node000015_Node000020" class="edge">
<title>Node15&#45;&gt;Node20</title>
<g id="a_edge23_Node000015_Node000020"><a xlink:title=" ">
<path fill="none" stroke="#63b8ff" d="M633.62,-54.84C662.23,-45.61 706.69,-31.26 737.15,-21.43"/>
<polygon fill="#63b8ff" stroke="#63b8ff" points="738.19,-24.77 746.64,-18.37 736.04,-18.11 738.19,-24.77"/>
</a>
</g>
</g>
<!-- Node21 -->
<g id="Node000021" class="node">
<title>Node21</title>
<g id="a_Node000021"><a xlink:title=" ">
<polygon fill="#e0e0e0" stroke="#999999" points="870.38,-19.25 810.88,-19.25 810.88,0 870.38,0 870.38,-19.25"/>
<text text-anchor="middle" x="840.62" y="-5.75" font-family="Helvetica,sans-Serif" font-size="10.00">execinfo.h</text>
</a>
</g>
</g>
<!-- Node15&#45;&gt;Node21 -->
<g id="edge24_Node000015_Node000021" class="edge">
<title>Node15&#45;&gt;Node21</title>
<g id="a_edge24_Node000015_Node000021"><a xlink:title=" ">
<path fill="none" stroke="#63b8ff" d="M633.97,-57.45C675.25,-48.1 752.13,-30.68 799.59,-19.92"/>
<polygon fill="#63b8ff" stroke="#63b8ff" points="800.24,-23.36 809.22,-17.74 798.69,-16.54 800.24,-23.36"/>
</a>
</g>
</g>
<!-- Node22 -->
<g id="Node000022" class="node">
<title>Node22</title>
<g id="a_Node000022"><a xlink:title=" ">
<polygon fill="#e0e0e0" stroke="#999999" points="938.88,-19.25 888.38,-19.25 888.38,0 938.88,0 938.88,-19.25"/>
<text text-anchor="middle" x="913.62" y="-5.75" font-family="Helvetica,sans-Serif" font-size="10.00">cxxabi.h</text>
</a>
</g>
</g>
<!-- Node15&#45;&gt;Node22 -->
<g id="edge25_Node000015_Node000022" class="edge">
<title>Node15&#45;&gt;Node22</title>
<g id="a_edge25_Node000015_Node000022"><a xlink:title=" ">
<path fill="none" stroke="#63b8ff" d="M634.18,-60.06C682.26,-53.46 782.64,-38.9 876.9,-19.67"/>
<polygon fill="#63b8ff" stroke="#63b8ff" points="877.49,-23.12 886.58,-17.67 876.08,-16.27 877.49,-23.12"/>
</a>
</g>
</g>
<!-- Node23 -->
<g id="Node000023" class="node">
<title>Node23</title>
<g id="a_Node000023"><a xlink:title=" ">
<polygon fill="#e0e0e0" stroke="#999999" points="51.25,-19.25 0,-19.25 0,0 51.25,0 51.25,-19.25"/>
<text text-anchor="middle" x="25.62" y="-5.75" font-family="Helvetica,sans-Serif" font-size="10.00">sstream</text>
</a>
</g>
</g>
<!-- Node15&#45;&gt;Node23 -->
<g id="edge26_Node000015_Node000023" class="edge">
<title>Node15&#45;&gt;Node23</title>
<g id="a_edge26_Node000015_Node000023"><a xlink:title=" ">
<path fill="none" stroke="#63b8ff" d="M577,-63.22C497.01,-61.02 264.32,-52.22 62.62,-19.5"/>
<polygon fill="#63b8ff" stroke="#63b8ff" points="63.45,-16.09 53.01,-17.91 62.31,-22.99 63.45,-16.09"/>
</a>
</g>
</g>
<!-- Node24 -->
<g id="Node000024" class="node">
<title>Node24</title>
<g id="a_Node000024"><a xlink:title=" ">
<polygon fill="#e0e0e0" stroke="#999999" points="106.12,-19.25 69.12,-19.25 69.12,0 106.12,0 106.12,-19.25"/>
<text text-anchor="middle" x="87.62" y="-5.75" font-family="Helvetica,sans-Serif" font-size="10.00">array</text>
</a>
</g>
</g>
<!-- Node15&#45;&gt;Node24 -->
<g id="edge27_Node000015_Node000024" class="edge">
<title>Node15&#45;&gt;Node24</title>
<g id="a_edge27_Node000015_Node000024"><a xlink:title=" ">
<path fill="none" stroke="#63b8ff" d="M576.88,-63.34C502.42,-61.51 297.13,-53.69 117.7,-19.21"/>
<polygon fill="#63b8ff" stroke="#63b8ff" points="118.44,-15.79 107.95,-17.3 117.09,-22.66 118.44,-15.79"/>
</a>
</g>
</g>
<!-- Node25 -->
<g id="Node000025" class="node">
<title>Node25</title>
<g id="a_Node000025"><a xlink:title=" ">
<polygon fill="#e0e0e0" stroke="#999999" points="174.88,-19.25 124.38,-19.25 124.38,0 174.88,0 174.88,-19.25"/>
<text text-anchor="middle" x="149.62" y="-5.75" font-family="Helvetica,sans-Serif" font-size="10.00">memory</text>
</a>
</g>
</g>
<!-- Node15&#45;&gt;Node25 -->
<g id="edge28_Node000015_Node000025" class="edge">
<title>Node15&#45;&gt;Node25</title>
<g id="a_edge28_Node000015_Node000025"><a xlink:title=" ">
<path fill="none" stroke="#63b8ff" d="M577.03,-62.27C510.22,-58.21 338.6,-46.06 186.1,-19.46"/>
<polygon fill="#63b8ff" stroke="#63b8ff" points="187.11,-16.08 176.65,-17.78 185.89,-22.98 187.11,-16.08"/>
</a>
</g>
</g>
<!-- Node26 -->
<g id="Node000026" class="node">
<title>Node26</title>
<g id="a_Node000026"><a xlink:title=" ">
<polygon fill="#e0e0e0" stroke="#999999" points="242.5,-19.25 192.75,-19.25 192.75,0 242.5,0 242.5,-19.25"/>
<text text-anchor="middle" x="217.62" y="-5.75" font-family="Helvetica,sans-Serif" font-size="10.00">unistd.h</text>
</a>
</g>
</g>
<!-- Node15&#45;&gt;Node26 -->
<g id="edge29_Node000015_Node000026" class="edge">
<title>Node15&#45;&gt;Node26</title>
<g id="a_edge29_Node000015_Node000026"><a xlink:title=" ">
<path fill="none" stroke="#63b8ff" d="M576.99,-61.47C518.24,-56.28 379.68,-42.72 253.77,-19.44"/>
<polygon fill="#63b8ff" stroke="#63b8ff" points="254.76,-16.06 244.29,-17.66 253.47,-22.94 254.76,-16.06"/>
</a>
</g>
</g>
<!-- Node27 -->
<g id="Node000027" class="node">
<title>Node27</title>
<g id="a_Node000027"><a xlink:title=" ">
<polygon fill="#e0e0e0" stroke="#999999" points="306.62,-19.25 260.62,-19.25 260.62,0 306.62,0 306.62,-19.25"/>
<text text-anchor="middle" x="283.62" y="-5.75" font-family="Helvetica,sans-Serif" font-size="10.00">TEnv.h</text>
</a>
</g>
</g>
<!-- Node15&#45;&gt;Node27 -->
<g id="edge30_Node000015_Node000027" class="edge">
<title>Node15&#45;&gt;Node27</title>
<g id="a_edge30_Node000015_Node000027"><a xlink:title=" ">
<path fill="none" stroke="#63b8ff" d="M577.03,-60.54C526.69,-54.44 418.75,-40.35 318.24,-19.6"/>
<polygon fill="#63b8ff" stroke="#63b8ff" points="318.96,-16.17 308.45,-17.55 317.52,-23.03 318.96,-16.17"/>
</a>
</g>
</g>
<!-- Node28 -->
<g id="Node000028" class="node">
<title>Node28</title>
<g id="a_Node000028"><a xlink:title=" ">
<polygon fill="#e0e0e0" stroke="#999999" points="384.38,-19.25 324.88,-19.25 324.88,0 384.38,0 384.38,-19.25"/>
<text text-anchor="middle" x="354.62" y="-5.75" font-family="Helvetica,sans-Serif" font-size="10.00">sys/wait.h</text>
</a>
</g>
</g>
<!-- Node15&#45;&gt;Node28 -->
<g id="edge31_Node000015_Node000028" class="edge">
<title>Node15&#45;&gt;Node28</title>
<g id="a_edge31_Node000015_Node000028"><a xlink:title=" ">
<path fill="none" stroke="#63b8ff" d="M577.14,-57.98C538.42,-49.93 466.7,-34.97 395.77,-19.7"/>
<polygon fill="#63b8ff" stroke="#63b8ff" points="396.84,-16.35 386.33,-17.66 395.37,-23.19 396.84,-16.35"/>
</a>
</g>
</g>
<!-- Node29 -->
<g id="Node000029" class="node">
<title>Node29</title>
<g id="a_Node000029"><a xlink:title=" ">
<polygon fill="#e0e0e0" stroke="#999999" points="462.75,-19.25 402.5,-19.25 402.5,0 462.75,0 462.75,-19.25"/>
<text text-anchor="middle" x="432.62" y="-5.75" font-family="Helvetica,sans-Serif" font-size="10.00">sys/prctl.h</text>
</a>
</g>
</g>
<!-- Node15&#45;&gt;Node29 -->
<g id="edge32_Node000015_Node000029" class="edge">
<title>Node15&#45;&gt;Node29</title>
<g id="a_edge32_Node000015_Node000029"><a xlink:title=" ">
<path fill="none" stroke="#63b8ff" d="M577.06,-55.08C548.64,-46.34 504.79,-32.84 472.86,-23.01"/>
<polygon fill="#63b8ff" stroke="#63b8ff" points="474.14,-19.74 463.55,-20.14 472.08,-26.43 474.14,-19.74"/>
</a>
</g>
</g>
<!-- Node30&#45;&gt;Node3 -->
<g id="edge35_Node000030_Node000003" class="edge">
<title>Node30&#45;&gt;Node3</title>
<g id="a_edge35_Node000030_Node000003"><a xlink:title=" ">
<path fill="none" stroke="#63b8ff" d="M1207.22,-54.84C1171.75,-44.95 1115.25,-29.2 1080.13,-19.41"/>
<polygon fill="#63b8ff" stroke="#63b8ff" points="1081.13,-16.05 1070.56,-16.74 1079.25,-22.8 1081.13,-16.05"/>
</a>
</g>
</g>
<!-- Node31 -->
<g id="Node000031" class="node">
<title>Node31</title>
<g id="a_Node000031"><a xlink:title=" ">
<polygon fill="#e0e0e0" stroke="#999999" points="1233.25,-19.25 1182,-19.25 1182,0 1233.25,0 1233.25,-19.25"/>
<text text-anchor="middle" x="1207.62" y="-5.75" font-family="Helvetica,sans-Serif" font-size="10.00">ostream</text>
</a>
</g>
</g>
<!-- Node30&#45;&gt;Node31 -->
<g id="edge34_Node000030_Node000031" class="edge">
<title>Node30&#45;&gt;Node31</title>
<g id="a_edge34_Node000030_Node000031"><a xlink:title=" ">
<path fill="none" stroke="#63b8ff" d="M1234.34,-55.08C1230.15,-48.11 1224.15,-38.12 1218.89,-29.37"/>
<polygon fill="#63b8ff" stroke="#63b8ff" points="1221.95,-27.68 1213.8,-20.91 1215.95,-31.28 1221.95,-27.68"/>
</a>
</g>
</g>
<!-- Node32 -->
<g id="Node000032" class="node">
<title>Node32</title>
<g id="a_Node000032"><a xlink:title=" ">
<polygon fill="#e0e0e0" stroke="#999999" points="1294.12,-19.25 1251.12,-19.25 1251.12,0 1294.12,0 1294.12,-19.25"/>
<text text-anchor="middle" x="1272.62" y="-5.75" font-family="Helvetica,sans-Serif" font-size="10.00">vector</text>
</a>
</g>
</g>
<!-- Node30&#45;&gt;Node32 -->
<g id="edge36_Node000030_Node000032" class="edge">
<title>Node30&#45;&gt;Node32</title>
<g id="a_edge36_Node000030_Node000032"><a xlink:title=" ">
<path fill="none" stroke="#63b8ff" d="M1245.07,-55.08C1249.4,-48.11 1255.59,-38.12 1261.01,-29.37"/>
<polygon fill="#63b8ff" stroke="#63b8ff" points="1263.97,-31.24 1266.26,-20.9 1258.02,-27.55 1263.97,-31.24"/>
</a>
</g>
</g>
</g>
</svg>
