<?xml version="1.0" encoding="UTF-8" standalone="no"?>
<!DOCTYPE svg PUBLIC "-//W3C//DTD SVG 1.1//EN"
 "http://www.w3.org/Graphics/SVG/1.1/DTD/svg11.dtd">
<!-- Generated by graphviz version 12.2.0 (20241103.1931)
 -->
<!-- Title: TCalibrateDescant.h Pages: 1 -->
<svg width="916pt" height="83pt"
 viewBox="0.00 0.00 916.00 82.50" xmlns="http://www.w3.org/2000/svg" xmlns:xlink="http://www.w3.org/1999/xlink">
<g id="graph0" class="graph" transform="scale(1 1) rotate(0) translate(4 78.5)">
<title>TCalibrateDescant.h</title>
<!-- Node1 -->
<g id="Node000001" class="node">
<title>Node1</title>
<g id="a_Node000001"><a xlink:title=" ">
<polygon fill="#999999" stroke="#666666" points="561.25,-74.5 457.5,-74.5 457.5,-55.25 561.25,-55.25 561.25,-74.5"/>
<text text-anchor="middle" x="509.38" y="-61" font-family="Helvetica,sans-Serif" font-size="10.00">TCalibrateDescant.h</text>
</a>
</g>
</g>
<!-- Node2 -->
<g id="Node000002" class="node">
<title>Node2</title>
<g id="a_Node000002"><a xlink:title=" ">
<polygon fill="#e0e0e0" stroke="#999999" points="64.75,-19.25 0,-19.25 0,0 64.75,0 64.75,-19.25"/>
<text text-anchor="middle" x="32.38" y="-5.75" font-family="Helvetica,sans-Serif" font-size="10.00">TGFrame.h</text>
</a>
</g>
</g>
<!-- Node1&#45;&gt;Node2 -->
<g id="edge1_Node000001_Node000002" class="edge">
<title>Node1&#45;&gt;Node2</title>
<g id="a_edge1_Node000001_Node000002"><a xlink:title=" ">
<path fill="none" stroke="#63b8ff" d="M457.27,-60.23C377.5,-54.27 220.13,-41.06 76.1,-19.35"/>
<polygon fill="#63b8ff" stroke="#63b8ff" points="76.79,-15.91 66.37,-17.86 75.73,-22.83 76.79,-15.91"/>
</a>
</g>
</g>
<!-- Node3 -->
<g id="Node000003" class="node">
<title>Node3</title>
<g id="a_Node000003"><a xlink:title=" ">
<polygon fill="#e0e0e0" stroke="#999999" points="211.62,-19.25 83.12,-19.25 83.12,0 211.62,0 211.62,-19.25"/>
<text text-anchor="middle" x="147.38" y="-5.75" font-family="Helvetica,sans-Serif" font-size="10.00">TRootEmbeddedCanvas.h</text>
</a>
</g>
</g>
<!-- Node1&#45;&gt;Node3 -->
<g id="edge2_Node000001_Node000003" class="edge">
<title>Node1&#45;&gt;Node3</title>
<g id="a_edge2_Node000001_Node000003"><a xlink:title=" ">
<path fill="none" stroke="#63b8ff" d="M457.12,-56.19C394.86,-47.03 290.46,-31.67 220.28,-21.35"/>
<polygon fill="#63b8ff" stroke="#63b8ff" points="221.22,-17.95 210.82,-19.96 220.2,-24.88 221.22,-17.95"/>
</a>
</g>
</g>
<!-- Node4 -->
<g id="Node000004" class="node">
<title>Node4</title>
<g id="a_Node000004"><a xlink:title=" ">
<polygon fill="#e0e0e0" stroke="#999999" points="310.62,-19.25 230.12,-19.25 230.12,0 310.62,0 310.62,-19.25"/>
<text text-anchor="middle" x="270.38" y="-5.75" font-family="Helvetica,sans-Serif" font-size="10.00">TGStatusBar.h</text>
</a>
</g>
</g>
<!-- Node1&#45;&gt;Node4 -->
<g id="edge3_Node000001_Node000004" class="edge">
<title>Node1&#45;&gt;Node4</title>
<g id="a_edge3_Node000001_Node000004"><a xlink:title=" ">
<path fill="none" stroke="#63b8ff" d="M468.56,-54.78C428.09,-45.76 365.94,-31.92 322.04,-22.14"/>
<polygon fill="#63b8ff" stroke="#63b8ff" points="323.02,-18.77 312.5,-20.01 321.5,-25.6 323.02,-18.77"/>
</a>
</g>
</g>
<!-- Node5 -->
<g id="Node000005" class="node">
<title>Node5</title>
<g id="a_Node000005"><a xlink:title=" ">
<polygon fill="#e0e0e0" stroke="#999999" points="394.12,-19.25 328.62,-19.25 328.62,0 394.12,0 394.12,-19.25"/>
<text text-anchor="middle" x="361.38" y="-5.75" font-family="Helvetica,sans-Serif" font-size="10.00">TGButton.h</text>
</a>
</g>
</g>
<!-- Node1&#45;&gt;Node5 -->
<g id="edge4_Node000001_Node000005" class="edge">
<title>Node1&#45;&gt;Node5</title>
<g id="a_edge4_Node000001_Node000005"><a xlink:title=" ">
<path fill="none" stroke="#63b8ff" d="M484.27,-54.84C460.35,-46.24 424.09,-33.19 397.15,-23.5"/>
<polygon fill="#63b8ff" stroke="#63b8ff" points="398.62,-20.31 388.03,-20.21 396.25,-26.89 398.62,-20.31"/>
</a>
</g>
</g>
<!-- Node6 -->
<g id="Node000006" class="node">
<title>Node6</title>
<g id="a_Node000006"><a xlink:title=" ">
<polygon fill="#e0e0e0" stroke="#999999" points="498.25,-19.25 412.5,-19.25 412.5,0 498.25,0 498.25,-19.25"/>
<text text-anchor="middle" x="455.38" y="-5.75" font-family="Helvetica,sans-Serif" font-size="10.00">TGTripleSlider.h</text>
</a>
</g>
</g>
<!-- Node1&#45;&gt;Node6 -->
<g id="edge5_Node000001_Node000006" class="edge">
<title>Node1&#45;&gt;Node6</title>
<g id="a_edge5_Node000001_Node000006"><a xlink:title=" ">
<path fill="none" stroke="#63b8ff" d="M500.46,-55.08C492.92,-47.65 481.91,-36.79 472.65,-27.66"/>
<polygon fill="#63b8ff" stroke="#63b8ff" points="475.14,-25.2 465.56,-20.67 470.23,-30.19 475.14,-25.2"/>
</a>
</g>
</g>
<!-- Node7 -->
<g id="Node000007" class="node">
<title>Node7</title>
<g id="a_Node000007"><a xlink:title=" ">
<polygon fill="#e0e0e0" stroke="#999999" points="610,-19.25 516.75,-19.25 516.75,0 610,0 610,-19.25"/>
<text text-anchor="middle" x="563.38" y="-5.75" font-family="Helvetica,sans-Serif" font-size="10.00">TGNumberEntry.h</text>
</a>
</g>
</g>
<!-- Node1&#45;&gt;Node7 -->
<g id="edge6_Node000001_Node000007" class="edge">
<title>Node1&#45;&gt;Node7</title>
<g id="a_edge6_Node000001_Node000007"><a xlink:title=" ">
<path fill="none" stroke="#63b8ff" d="M518.29,-55.08C525.83,-47.65 536.84,-36.79 546.1,-27.66"/>
<polygon fill="#63b8ff" stroke="#63b8ff" points="548.52,-30.19 553.19,-20.67 543.61,-25.2 548.52,-30.19"/>
</a>
</g>
</g>
<!-- Node8 -->
<g id="Node000008" class="node">
<title>Node8</title>
<g id="a_Node000008"><a xlink:title=" ">
<polygon fill="#e0e0e0" stroke="#999999" points="688.88,-19.25 627.88,-19.25 627.88,0 688.88,0 688.88,-19.25"/>
<text text-anchor="middle" x="658.38" y="-5.75" font-family="Helvetica,sans-Serif" font-size="10.00">TGLabel.h</text>
</a>
</g>
</g>
<!-- Node1&#45;&gt;Node8 -->
<g id="edge7_Node000001_Node000008" class="edge">
<title>Node1&#45;&gt;Node8</title>
<g id="a_edge7_Node000001_Node000008"><a xlink:title=" ">
<path fill="none" stroke="#63b8ff" d="M534.65,-54.84C558.73,-46.24 595.23,-33.19 622.36,-23.5"/>
<polygon fill="#63b8ff" stroke="#63b8ff" points="623.31,-26.87 631.55,-20.21 620.96,-20.28 623.31,-26.87"/>
</a>
</g>
</g>
<!-- Node9 -->
<g id="Node000009" class="node">
<title>Node9</title>
<g id="a_Node000009"><a xlink:title=" ">
<polygon fill="#e0e0e0" stroke="#999999" points="749.5,-19.25 707.25,-19.25 707.25,0 749.5,0 749.5,-19.25"/>
<text text-anchor="middle" x="728.38" y="-5.75" font-family="Helvetica,sans-Serif" font-size="10.00">TH2.h</text>
</a>
</g>
</g>
<!-- Node1&#45;&gt;Node9 -->
<g id="edge8_Node000001_Node000009" class="edge">
<title>Node1&#45;&gt;Node9</title>
<g id="a_edge8_Node000001_Node000009"><a xlink:title=" ">
<path fill="none" stroke="#63b8ff" d="M550.44,-54.78C586.42,-46.67 640.38,-34.2 695.7,-19.86"/>
<polygon fill="#63b8ff" stroke="#63b8ff" points="696.52,-23.26 705.31,-17.35 694.75,-16.49 696.52,-23.26"/>
</a>
</g>
</g>
<!-- Node10 -->
<g id="Node000010" class="node">
<title>Node10</title>
<g id="a_Node000010"><a xlink:title=" ">
<polygon fill="#e0e0e0" stroke="#999999" points="808.75,-19.25 768,-19.25 768,0 808.75,0 808.75,-19.25"/>
<text text-anchor="middle" x="788.38" y="-5.75" font-family="Helvetica,sans-Serif" font-size="10.00">TF1.h</text>
</a>
</g>
</g>
<!-- Node1&#45;&gt;Node10 -->
<g id="edge9_Node000001_Node000010" class="edge">
<title>Node1&#45;&gt;Node10</title>
<g id="a_edge9_Node000001_Node000010"><a xlink:title=" ">
<path fill="none" stroke="#63b8ff" d="M561.68,-56.1C609.91,-48.58 683.69,-36.16 756.98,-19.36"/>
<polygon fill="#63b8ff" stroke="#63b8ff" points="757.37,-22.86 766.32,-17.19 755.78,-16.04 757.37,-22.86"/>
</a>
</g>
</g>
<!-- Node11 -->
<g id="Node000011" class="node">
<title>Node11</title>
<g id="a_Node000011"><a xlink:title=" ">
<polygon fill="#e0e0e0" stroke="#999999" points="908,-19.25 826.75,-19.25 826.75,0 908,0 908,-19.25"/>
<text text-anchor="middle" x="867.38" y="-5.75" font-family="Helvetica,sans-Serif" font-size="10.00">TGraphErrors.h</text>
</a>
</g>
</g>
<!-- Node1&#45;&gt;Node11 -->
<g id="edge10_Node000001_Node000011" class="edge">
<title>Node1&#45;&gt;Node11</title>
<g id="a_edge10_Node000001_Node000011"><a xlink:title=" ">
<path fill="none" stroke="#63b8ff" d="M561.48,-56.76C620.45,-48.61 719.67,-34.61 815.14,-19.57"/>
<polygon fill="#63b8ff" stroke="#63b8ff" points="815.64,-23.03 824.96,-18.01 814.54,-16.12 815.64,-23.03"/>
</a>
</g>
</g>
</g>
</svg>
