<?xml version="1.0" encoding="UTF-8" standalone="no"?>
<!DOCTYPE svg PUBLIC "-//W3C//DTD SVG 1.1//EN"
 "http://www.w3.org/Graphics/SVG/1.1/DTD/svg11.dtd">
<!-- Generated by graphviz version 12.2.0 (20241103.1931)
 -->
<!-- Title: TChannel.h Pages: 1 -->
<svg width="644pt" height="138pt"
 viewBox="0.00 0.00 643.63 137.75" xmlns="http://www.w3.org/2000/svg" xmlns:xlink="http://www.w3.org/1999/xlink">
<g id="graph0" class="graph" transform="scale(1 1) rotate(0) translate(4 133.75)">
<title>TChannel.h</title>
<!-- Node1 -->
<g id="Node000001" class="node">
<title>Node1</title>
<g id="a_Node000001"><a xlink:title=" ">
<polygon fill="#999999" stroke="#666666" points="295.5,-129.75 230.75,-129.75 230.75,-110.5 295.5,-110.5 295.5,-129.75"/>
<text text-anchor="middle" x="263.13" y="-116.25" font-family="Helvetica,sans-Serif" font-size="10.00">TChannel.h</text>
</a>
</g>
</g>
<!-- Node2 -->
<g id="Node000002" class="node">
<title>Node2</title>
<g id="a_Node000002"><a xlink:title=" ">
<polygon fill="#e0e0e0" stroke="#999999" points="271.13,-19.25 231.13,-19.25 231.13,0 271.13,0 271.13,-19.25"/>
<text text-anchor="middle" x="251.13" y="-5.75" font-family="Helvetica,sans-Serif" font-size="10.00">string</text>
</a>
</g>
</g>
<!-- Node1&#45;&gt;Node2 -->
<g id="edge1_Node000001_Node000002" class="edge">
<title>Node1&#45;&gt;Node2</title>
<g id="a_edge1_Node000001_Node000002"><a xlink:title=" ">
<path fill="none" stroke="#63b8ff" d="M230.42,-118.51C167.37,-116.56 32.72,-108.44 4.13,-74.5 -1.38,-67.96 -1.36,-61.82 4.13,-55.25 31.25,-22.79 159.27,-13.9 219.57,-11.5"/>
<polygon fill="#63b8ff" stroke="#63b8ff" points="219.63,-15 229.5,-11.14 219.38,-8 219.63,-15"/>
</a>
</g>
</g>
<!-- Node3 -->
<g id="Node000003" class="node">
<title>Node3</title>
<g id="a_Node000003"><a xlink:title=" ">
<polygon fill="#e0e0e0" stroke="#999999" points="56.63,-74.5 13.63,-74.5 13.63,-55.25 56.63,-55.25 56.63,-74.5"/>
<text text-anchor="middle" x="35.13" y="-61" font-family="Helvetica,sans-Serif" font-size="10.00">cmath</text>
</a>
</g>
</g>
<!-- Node1&#45;&gt;Node3 -->
<g id="edge2_Node000001_Node000003" class="edge">
<title>Node1&#45;&gt;Node3</title>
<g id="a_edge2_Node000001_Node000003"><a xlink:title=" ">
<path fill="none" stroke="#63b8ff" d="M230.59,-112.26C193.58,-104.34 131.08,-90.64 68.05,-74.89"/>
<polygon fill="#63b8ff" stroke="#63b8ff" points="69.13,-71.55 58.58,-72.5 67.42,-78.34 69.13,-71.55"/>
</a>
</g>
</g>
<!-- Node4 -->
<g id="Node000004" class="node">
<title>Node4</title>
<g id="a_Node000004"><a xlink:title=" ">
<polygon fill="#e0e0e0" stroke="#999999" points="113.38,-74.5 74.88,-74.5 74.88,-55.25 113.38,-55.25 113.38,-74.5"/>
<text text-anchor="middle" x="94.13" y="-61" font-family="Helvetica,sans-Serif" font-size="10.00">utility</text>
</a>
</g>
</g>
<!-- Node1&#45;&gt;Node4 -->
<g id="edge3_Node000001_Node000004" class="edge">
<title>Node1&#45;&gt;Node4</title>
<g id="a_edge3_Node000001_Node000004"><a xlink:title=" ">
<path fill="none" stroke="#63b8ff" d="M234.46,-110.09C203.76,-100.42 155.27,-85.14 124.09,-75.31"/>
<polygon fill="#63b8ff" stroke="#63b8ff" points="125.48,-72.08 114.89,-72.42 123.37,-78.76 125.48,-72.08"/>
</a>
</g>
</g>
<!-- Node5 -->
<g id="Node000005" class="node">
<title>Node5</title>
<g id="a_Node000005"><a xlink:title=" ">
<polygon fill="#e0e0e0" stroke="#999999" points="214.5,-74.5 131.75,-74.5 131.75,-55.25 214.5,-55.25 214.5,-74.5"/>
<text text-anchor="middle" x="173.13" y="-61" font-family="Helvetica,sans-Serif" font-size="10.00">unordered_map</text>
</a>
</g>
</g>
<!-- Node1&#45;&gt;Node5 -->
<g id="edge4_Node000001_Node000005" class="edge">
<title>Node1&#45;&gt;Node5</title>
<g id="a_edge4_Node000001_Node000005"><a xlink:title=" ">
<path fill="none" stroke="#63b8ff" d="M247.86,-110.09C234.28,-102.06 214.17,-90.16 198.23,-80.73"/>
<polygon fill="#63b8ff" stroke="#63b8ff" points="200.16,-77.8 189.77,-75.72 196.6,-83.83 200.16,-77.8"/>
</a>
</g>
</g>
<!-- Node6 -->
<g id="Node000006" class="node">
<title>Node6</title>
<g id="a_Node000006"><a xlink:title=" ">
<polygon fill="#e0e0e0" stroke="#999999" points="293.63,-74.5 232.63,-74.5 232.63,-55.25 293.63,-55.25 293.63,-74.5"/>
<text text-anchor="middle" x="263.13" y="-61" font-family="Helvetica,sans-Serif" font-size="10.00">TNamed.h</text>
</a>
</g>
</g>
<!-- Node1&#45;&gt;Node6 -->
<g id="edge5_Node000001_Node000006" class="edge">
<title>Node1&#45;&gt;Node6</title>
<g id="a_edge5_Node000001_Node000006"><a xlink:title=" ">
<path fill="none" stroke="#63b8ff" d="M263.13,-110.33C263.13,-103.82 263.13,-94.67 263.13,-86.37"/>
<polygon fill="#63b8ff" stroke="#63b8ff" points="266.63,-86.37 263.13,-76.37 259.63,-86.37 266.63,-86.37"/>
</a>
</g>
</g>
<!-- Node7 -->
<g id="Node000007" class="node">
<title>Node7</title>
<g id="a_Node000007"><a xlink:title=" ">
<polygon fill="#e0e0e0" stroke="#999999" points="360.63,-74.5 311.63,-74.5 311.63,-55.25 360.63,-55.25 360.63,-74.5"/>
<text text-anchor="middle" x="336.13" y="-61" font-family="Helvetica,sans-Serif" font-size="10.00">TTree.h</text>
</a>
</g>
</g>
<!-- Node1&#45;&gt;Node7 -->
<g id="edge6_Node000001_Node000007" class="edge">
<title>Node1&#45;&gt;Node7</title>
<g id="a_edge6_Node000001_Node000007"><a xlink:title=" ">
<path fill="none" stroke="#63b8ff" d="M275.51,-110.09C286.27,-102.24 302.1,-90.7 314.88,-81.37"/>
<polygon fill="#63b8ff" stroke="#63b8ff" points="316.69,-84.39 322.7,-75.67 312.56,-78.73 316.69,-84.39"/>
</a>
</g>
</g>
<!-- Node8 -->
<g id="Node000008" class="node">
<title>Node8</title>
<g id="a_Node000008"><a xlink:title=" ">
<polygon fill="#e0e0e0" stroke="#999999" points="434,-74.5 378.25,-74.5 378.25,-55.25 434,-55.25 434,-74.5"/>
<text text-anchor="middle" x="406.13" y="-61" font-family="Helvetica,sans-Serif" font-size="10.00">TGraph.h</text>
</a>
</g>
</g>
<!-- Node1&#45;&gt;Node8 -->
<g id="edge7_Node000001_Node000008" class="edge">
<title>Node1&#45;&gt;Node8</title>
<g id="a_edge7_Node000001_Node000008"><a xlink:title=" ">
<path fill="none" stroke="#63b8ff" d="M287.39,-110.09C310.39,-101.52 345.22,-88.56 371.21,-78.88"/>
<polygon fill="#63b8ff" stroke="#63b8ff" points="372.18,-82.25 380.33,-75.48 369.74,-75.69 372.18,-82.25"/>
</a>
</g>
</g>
<!-- Node9 -->
<g id="Node000009" class="node">
<title>Node9</title>
<g id="a_Node000009"><a xlink:title=" ">
<polygon fill="#e0e0e0" stroke="#999999" points="521.75,-74.5 452.5,-74.5 452.5,-55.25 521.75,-55.25 521.75,-74.5"/>
<text text-anchor="middle" x="487.13" y="-61" font-family="Helvetica,sans-Serif" font-size="10.00">TClassRef.h</text>
</a>
</g>
</g>
<!-- Node1&#45;&gt;Node9 -->
<g id="edge8_Node000001_Node000009" class="edge">
<title>Node1&#45;&gt;Node9</title>
<g id="a_edge8_Node000001_Node000009"><a xlink:title=" ">
<path fill="none" stroke="#63b8ff" d="M295.7,-111.38C334.02,-102.27 397.89,-87.09 441.21,-76.79"/>
<polygon fill="#63b8ff" stroke="#63b8ff" points="441.91,-80.22 450.83,-74.5 440.29,-73.41 441.91,-80.22"/>
</a>
</g>
</g>
<!-- Node10 -->
<g id="Node000010" class="node">
<title>Node10</title>
<g id="a_Node000010"><a xlink:href="_t_priority_value_8h.html" target="_top" xlink:title=" ">
<polygon fill="white" stroke="#666666" points="624.25,-74.5 540,-74.5 540,-55.25 624.25,-55.25 624.25,-74.5"/>
<text text-anchor="middle" x="582.13" y="-61" font-family="Helvetica,sans-Serif" font-size="10.00">TPriorityValue.h</text>
</a>
</g>
</g>
<!-- Node1&#45;&gt;Node10 -->
<g id="edge9_Node000001_Node000010" class="edge">
<title>Node1&#45;&gt;Node10</title>
<g id="a_edge9_Node000001_Node000010"><a xlink:title=" ">
<path fill="none" stroke="#63b8ff" d="M295.72,-113.72C344.16,-105.69 438.3,-90.06 528.31,-74.97"/>
<polygon fill="#63b8ff" stroke="#63b8ff" points="528.78,-78.44 538.06,-73.33 527.62,-71.54 528.78,-78.44"/>
</a>
</g>
</g>
<!-- Node10&#45;&gt;Node2 -->
<g id="edge11_Node000010_Node000002" class="edge">
<title>Node10&#45;&gt;Node2</title>
<g id="a_edge11_Node000010_Node000002"><a xlink:title=" ">
<path fill="none" stroke="#63b8ff" d="M539.56,-56.64C536.7,-56.17 533.87,-55.7 531.13,-55.25 441,-40.45 334.43,-23.66 282.6,-15.54"/>
<polygon fill="#63b8ff" stroke="#63b8ff" points="283.43,-12.13 273.01,-14.04 282.35,-19.04 283.43,-12.13"/>
</a>
</g>
</g>
<!-- Node11 -->
<g id="Node000011" class="node">
<title>Node11</title>
<g id="a_Node000011"><a xlink:title=" ">
<polygon fill="#e0e0e0" stroke="#999999" points="574.75,-19.25 523.5,-19.25 523.5,0 574.75,0 574.75,-19.25"/>
<text text-anchor="middle" x="549.13" y="-5.75" font-family="Helvetica,sans-Serif" font-size="10.00">ostream</text>
</a>
</g>
</g>
<!-- Node10&#45;&gt;Node11 -->
<g id="edge10_Node000010_Node000011" class="edge">
<title>Node10&#45;&gt;Node11</title>
<g id="a_edge10_Node000010_Node000011"><a xlink:title=" ">
<path fill="none" stroke="#63b8ff" d="M576.68,-55.08C572.36,-48.11 566.17,-38.12 560.75,-29.37"/>
<polygon fill="#63b8ff" stroke="#63b8ff" points="563.74,-27.55 555.49,-20.9 557.79,-31.24 563.74,-27.55"/>
</a>
</g>
</g>
<!-- Node12 -->
<g id="Node000012" class="node">
<title>Node12</title>
<g id="a_Node000012"><a xlink:title=" ">
<polygon fill="#e0e0e0" stroke="#999999" points="635.63,-19.25 592.63,-19.25 592.63,0 635.63,0 635.63,-19.25"/>
<text text-anchor="middle" x="614.13" y="-5.75" font-family="Helvetica,sans-Serif" font-size="10.00">vector</text>
</a>
</g>
</g>
<!-- Node10&#45;&gt;Node12 -->
<g id="edge12_Node000010_Node000012" class="edge">
<title>Node10&#45;&gt;Node12</title>
<g id="a_edge12_Node000010_Node000012"><a xlink:title=" ">
<path fill="none" stroke="#63b8ff" d="M587.41,-55.08C591.6,-48.11 597.61,-38.12 602.86,-29.37"/>
<polygon fill="#63b8ff" stroke="#63b8ff" points="605.8,-31.28 607.95,-20.91 599.8,-27.68 605.8,-31.28"/>
</a>
</g>
</g>
</g>
</svg>
