<?xml version="1.0" encoding="UTF-8" standalone="no"?>
<!DOCTYPE svg PUBLIC "-//W3C//DTD SVG 1.1//EN"
 "http://www.w3.org/Graphics/SVG/1.1/DTD/svg11.dtd">
<!-- Generated by graphviz version 12.2.0 (20241103.1931)
 -->
<!-- Title: TCSMHit.h Pages: 1 -->
<svg width="1301pt" height="304pt"
 viewBox="0.00 0.00 1301.00 303.50" xmlns="http://www.w3.org/2000/svg" xmlns:xlink="http://www.w3.org/1999/xlink">
<g id="graph0" class="graph" transform="scale(1 1) rotate(0) translate(4 299.5)">
<title>TCSMHit.h</title>
<!-- Node1 -->
<g id="Node000001" class="node">
<title>Node1</title>
<g id="a_Node000001"><a xlink:title=" ">
<polygon fill="#999999" stroke="#666666" points="737,-295.5 673,-295.5 673,-276.25 737,-276.25 737,-295.5"/>
<text text-anchor="middle" x="705" y="-282" font-family="Helvetica,sans-Serif" font-size="10.00">TCSMHit.h</text>
</a>
</g>
</g>
<!-- Node2 -->
<g id="Node000002" class="node">
<title>Node2</title>
<g id="a_Node000002"><a xlink:title=" ">
<polygon fill="#e0e0e0" stroke="#999999" points="124.12,-19.25 81.88,-19.25 81.88,0 124.12,0 124.12,-19.25"/>
<text text-anchor="middle" x="103" y="-5.75" font-family="Helvetica,sans-Serif" font-size="10.00">cstdio</text>
</a>
</g>
</g>
<!-- Node1&#45;&gt;Node2 -->
<g id="edge1_Node000001_Node000002" class="edge">
<title>Node1&#45;&gt;Node2</title>
<g id="a_edge1_Node000001_Node000002"><a xlink:title=" ">
<path fill="none" stroke="#63b8ff" d="M672.88,-283.37C534.96,-276.5 0,-245.41 0,-176.38 0,-176.38 0,-176.38 0,-119.12 0,-75.72 43.89,-42.75 74.37,-25.09"/>
<polygon fill="#63b8ff" stroke="#63b8ff" points="75.73,-28.33 82.78,-20.42 72.34,-22.21 75.73,-28.33"/>
</a>
</g>
</g>
<!-- Node3 -->
<g id="Node000003" class="node">
<title>Node3</title>
<g id="a_Node000003"><a xlink:title=" ">
<polygon fill="#e0e0e0" stroke="#999999" points="677.25,-129.75 638.75,-129.75 638.75,-110.5 677.25,-110.5 677.25,-129.75"/>
<text text-anchor="middle" x="658" y="-116.25" font-family="Helvetica,sans-Serif" font-size="10.00">utility</text>
</a>
</g>
</g>
<!-- Node1&#45;&gt;Node3 -->
<g id="edge2_Node000001_Node000003" class="edge">
<title>Node1&#45;&gt;Node3</title>
<g id="a_edge2_Node000001_Node000003"><a xlink:title=" ">
<path fill="none" stroke="#63b8ff" d="M702.12,-276.01C699.23,-267.03 694.68,-252.71 691,-240.25 680.75,-205.53 669.68,-164.85 663.32,-141.13"/>
<polygon fill="#63b8ff" stroke="#63b8ff" points="666.73,-140.34 660.77,-131.58 659.97,-142.15 666.73,-140.34"/>
</a>
</g>
</g>
<!-- Node4 -->
<g id="Node000004" class="node">
<title>Node4</title>
<g id="a_Node000004"><a xlink:title=" ">
<polygon fill="#e0e0e0" stroke="#999999" points="1180.75,-19.25 1127.25,-19.25 1127.25,0 1180.75,0 1180.75,-19.25"/>
<text text-anchor="middle" x="1154" y="-5.75" font-family="Helvetica,sans-Serif" font-size="10.00">iostream</text>
</a>
</g>
</g>
<!-- Node1&#45;&gt;Node4 -->
<g id="edge3_Node000001_Node000004" class="edge">
<title>Node1&#45;&gt;Node4</title>
<g id="a_edge3_Node000001_Node000004"><a xlink:title=" ">
<path fill="none" stroke="#63b8ff" d="M737.45,-282.36C860.72,-272.38 1293,-233.34 1293,-176.38 1293,-176.38 1293,-176.38 1293,-119.12 1293,-67.67 1233.07,-37.01 1191.92,-22.02"/>
<polygon fill="#63b8ff" stroke="#63b8ff" points="1193.16,-18.74 1182.56,-18.78 1190.87,-25.36 1193.16,-18.74"/>
</a>
</g>
</g>
<!-- Node5 -->
<g id="Node000005" class="node">
<title>Node5</title>
<g id="a_Node000005"><a xlink:href="_t_channel_8h.html" target="_top" xlink:title=" ">
<polygon fill="white" stroke="#666666" points="448.38,-185 383.62,-185 383.62,-165.75 448.38,-165.75 448.38,-185"/>
<text text-anchor="middle" x="416" y="-171.5" font-family="Helvetica,sans-Serif" font-size="10.00">TChannel.h</text>
</a>
</g>
</g>
<!-- Node1&#45;&gt;Node5 -->
<g id="edge4_Node000001_Node000005" class="edge">
<title>Node1&#45;&gt;Node5</title>
<g id="a_edge4_Node000001_Node000005"><a xlink:title=" ">
<path fill="none" stroke="#63b8ff" d="M680.86,-275.81C629.75,-256.62 510.46,-211.84 451,-189.51"/>
<polygon fill="#63b8ff" stroke="#63b8ff" points="452.29,-186.26 441.69,-186.02 449.83,-192.81 452.29,-186.26"/>
</a>
</g>
</g>
<!-- Node16 -->
<g id="Node000016" class="node">
<title>Node16</title>
<g id="a_Node000016"><a xlink:title=" ">
<polygon fill="#e0e0e0" stroke="#999999" points="796.62,-185 733.38,-185 733.38,-165.75 796.62,-165.75 796.62,-185"/>
<text text-anchor="middle" x="765" y="-171.5" font-family="Helvetica,sans-Serif" font-size="10.00">TVector3.h</text>
</a>
</g>
</g>
<!-- Node1&#45;&gt;Node16 -->
<g id="edge17_Node000001_Node000016" class="edge">
<title>Node1&#45;&gt;Node16</title>
<g id="a_edge17_Node000001_Node000016"><a xlink:title=" ">
<path fill="none" stroke="#63b8ff" d="M709.91,-276C719.62,-258.43 741.48,-218.91 754.55,-195.27"/>
<polygon fill="#63b8ff" stroke="#63b8ff" points="757.51,-197.15 759.29,-186.7 751.39,-193.76 757.51,-197.15"/>
</a>
</g>
</g>
<!-- Node17 -->
<g id="Node000017" class="node">
<title>Node17</title>
<g id="a_Node000017"><a xlink:href="_globals_8h.html" target="_top" xlink:title=" ">
<polygon fill="white" stroke="#666666" points="688.25,-74.5 631.75,-74.5 631.75,-55.25 688.25,-55.25 688.25,-74.5"/>
<text text-anchor="middle" x="660" y="-61" font-family="Helvetica,sans-Serif" font-size="10.00">Globals.h</text>
</a>
</g>
</g>
<!-- Node1&#45;&gt;Node17 -->
<g id="edge18_Node000001_Node000017" class="edge">
<title>Node1&#45;&gt;Node17</title>
<g id="a_edge18_Node000001_Node000017"><a xlink:title=" ">
<path fill="none" stroke="#63b8ff" d="M705.32,-275.89C705.97,-249.67 706,-171.24 686,-110.5 682.99,-101.37 677.94,-92.05 673.09,-84.31"/>
<polygon fill="#63b8ff" stroke="#63b8ff" points="676.11,-82.53 667.64,-76.16 670.28,-86.42 676.11,-82.53"/>
</a>
</g>
</g>
<!-- Node30 -->
<g id="Node000030" class="node">
<title>Node30</title>
<g id="a_Node000030"><a xlink:href="_t_detector_hit_8h.html" target="_top" xlink:title=" ">
<polygon fill="white" stroke="#666666" points="973.5,-240.25 894.5,-240.25 894.5,-221 973.5,-221 973.5,-240.25"/>
<text text-anchor="middle" x="934" y="-226.75" font-family="Helvetica,sans-Serif" font-size="10.00">TDetectorHit.h</text>
</a>
</g>
</g>
<!-- Node1&#45;&gt;Node30 -->
<g id="edge34_Node000001_Node000030" class="edge">
<title>Node1&#45;&gt;Node30</title>
<g id="a_edge34_Node000001_Node000030"><a xlink:title=" ">
<path fill="none" stroke="#63b8ff" d="M737.32,-277.36C775.43,-268.5 839.21,-253.67 883.77,-243.3"/>
<polygon fill="#63b8ff" stroke="#63b8ff" points="884.52,-246.72 893.47,-241.05 882.94,-239.91 884.52,-246.72"/>
</a>
</g>
</g>
<!-- Node5&#45;&gt;Node3 -->
<g id="edge7_Node000005_Node000003" class="edge">
<title>Node5&#45;&gt;Node3</title>
<g id="a_edge7_Node000005_Node000003"><a xlink:title=" ">
<path fill="none" stroke="#63b8ff" d="M448.67,-168.4C488.51,-160.92 558.1,-147.26 627.31,-129.99"/>
<polygon fill="#63b8ff" stroke="#63b8ff" points="628.1,-133.4 636.94,-127.56 626.39,-126.62 628.1,-133.4"/>
</a>
</g>
</g>
<!-- Node6 -->
<g id="Node000006" class="node">
<title>Node6</title>
<g id="a_Node000006"><a xlink:title=" ">
<polygon fill="#e0e0e0" stroke="#999999" points="277,-19.25 237,-19.25 237,0 277,0 277,-19.25"/>
<text text-anchor="middle" x="257" y="-5.75" font-family="Helvetica,sans-Serif" font-size="10.00">string</text>
</a>
</g>
</g>
<!-- Node5&#45;&gt;Node6 -->
<g id="edge5_Node000005_Node000006" class="edge">
<title>Node5&#45;&gt;Node6</title>
<g id="a_edge5_Node000005_Node000006"><a xlink:title=" ">
<path fill="none" stroke="#63b8ff" d="M383.33,-172.74C298.89,-168.18 78.47,-154.05 57,-129.75 3.25,-68.91 157,-30.2 225.7,-16.35"/>
<polygon fill="#63b8ff" stroke="#63b8ff" points="226.09,-19.84 235.23,-14.49 224.74,-12.97 226.09,-19.84"/>
</a>
</g>
</g>
<!-- Node7 -->
<g id="Node000007" class="node">
<title>Node7</title>
<g id="a_Node000007"><a xlink:title=" ">
<polygon fill="#e0e0e0" stroke="#999999" points="519.5,-129.75 476.5,-129.75 476.5,-110.5 519.5,-110.5 519.5,-129.75"/>
<text text-anchor="middle" x="498" y="-116.25" font-family="Helvetica,sans-Serif" font-size="10.00">cmath</text>
</a>
</g>
</g>
<!-- Node5&#45;&gt;Node7 -->
<g id="edge6_Node000005_Node000007" class="edge">
<title>Node5&#45;&gt;Node7</title>
<g id="a_edge6_Node000005_Node000007"><a xlink:title=" ">
<path fill="none" stroke="#63b8ff" d="M429.91,-165.34C442.16,-157.39 460.25,-145.64 474.71,-136.25"/>
<polygon fill="#63b8ff" stroke="#63b8ff" points="476.27,-139.41 482.75,-131.03 472.46,-133.54 476.27,-139.41"/>
</a>
</g>
</g>
<!-- Node8 -->
<g id="Node000008" class="node">
<title>Node8</title>
<g id="a_Node000008"><a xlink:title=" ">
<polygon fill="#e0e0e0" stroke="#999999" points="620.38,-129.75 537.62,-129.75 537.62,-110.5 620.38,-110.5 620.38,-129.75"/>
<text text-anchor="middle" x="579" y="-116.25" font-family="Helvetica,sans-Serif" font-size="10.00">unordered_map</text>
</a>
</g>
</g>
<!-- Node5&#45;&gt;Node8 -->
<g id="edge8_Node000005_Node000008" class="edge">
<title>Node5&#45;&gt;Node8</title>
<g id="a_edge8_Node000005_Node000008"><a xlink:title=" ">
<path fill="none" stroke="#63b8ff" d="M443.65,-165.34C470.23,-156.66 510.64,-143.46 540.39,-133.74"/>
<polygon fill="#63b8ff" stroke="#63b8ff" points="541.36,-137.1 549.77,-130.67 539.18,-130.45 541.36,-137.1"/>
</a>
</g>
</g>
<!-- Node9 -->
<g id="Node000009" class="node">
<title>Node9</title>
<g id="a_Node000009"><a xlink:title=" ">
<polygon fill="#e0e0e0" stroke="#999999" points="127.5,-129.75 66.5,-129.75 66.5,-110.5 127.5,-110.5 127.5,-129.75"/>
<text text-anchor="middle" x="97" y="-116.25" font-family="Helvetica,sans-Serif" font-size="10.00">TNamed.h</text>
</a>
</g>
</g>
<!-- Node5&#45;&gt;Node9 -->
<g id="edge9_Node000005_Node000009" class="edge">
<title>Node5&#45;&gt;Node9</title>
<g id="a_edge9_Node000005_Node000009"><a xlink:title=" ">
<path fill="none" stroke="#63b8ff" d="M383.13,-169.78C332.7,-162.6 232.96,-147.84 138.78,-130.19"/>
<polygon fill="#63b8ff" stroke="#63b8ff" points="139.58,-126.78 129.11,-128.36 138.28,-133.66 139.58,-126.78"/>
</a>
</g>
</g>
<!-- Node10 -->
<g id="Node000010" class="node">
<title>Node10</title>
<g id="a_Node000010"><a xlink:title=" ">
<polygon fill="#e0e0e0" stroke="#999999" points="194.5,-129.75 145.5,-129.75 145.5,-110.5 194.5,-110.5 194.5,-129.75"/>
<text text-anchor="middle" x="170" y="-116.25" font-family="Helvetica,sans-Serif" font-size="10.00">TTree.h</text>
</a>
</g>
</g>
<!-- Node5&#45;&gt;Node10 -->
<g id="edge10_Node000005_Node000010" class="edge">
<title>Node5&#45;&gt;Node10</title>
<g id="a_edge10_Node000005_Node000010"><a xlink:title=" ">
<path fill="none" stroke="#63b8ff" d="M383.41,-168.06C343.66,-160.25 274.15,-146.24 205.79,-130.32"/>
<polygon fill="#63b8ff" stroke="#63b8ff" points="206.84,-126.98 196.31,-128.1 205.24,-133.79 206.84,-126.98"/>
</a>
</g>
</g>
<!-- Node11 -->
<g id="Node000011" class="node">
<title>Node11</title>
<g id="a_Node000011"><a xlink:title=" ">
<polygon fill="#e0e0e0" stroke="#999999" points="267.88,-129.75 212.12,-129.75 212.12,-110.5 267.88,-110.5 267.88,-129.75"/>
<text text-anchor="middle" x="240" y="-116.25" font-family="Helvetica,sans-Serif" font-size="10.00">TGraph.h</text>
</a>
</g>
</g>
<!-- Node5&#45;&gt;Node11 -->
<g id="edge11_Node000005_Node000011" class="edge">
<title>Node5&#45;&gt;Node11</title>
<g id="a_edge11_Node000005_Node000011"><a xlink:title=" ">
<path fill="none" stroke="#63b8ff" d="M386.14,-165.34C356.67,-156.42 311.44,-142.74 279.1,-132.96"/>
<polygon fill="#63b8ff" stroke="#63b8ff" points="280.29,-129.66 269.7,-130.11 278.26,-136.36 280.29,-129.66"/>
</a>
</g>
</g>
<!-- Node12 -->
<g id="Node000012" class="node">
<title>Node12</title>
<g id="a_Node000012"><a xlink:title=" ">
<polygon fill="#e0e0e0" stroke="#999999" points="355.62,-129.75 286.38,-129.75 286.38,-110.5 355.62,-110.5 355.62,-129.75"/>
<text text-anchor="middle" x="321" y="-116.25" font-family="Helvetica,sans-Serif" font-size="10.00">TClassRef.h</text>
</a>
</g>
</g>
<!-- Node5&#45;&gt;Node12 -->
<g id="edge12_Node000005_Node000012" class="edge">
<title>Node5&#45;&gt;Node12</title>
<g id="a_edge12_Node000005_Node000012"><a xlink:title=" ">
<path fill="none" stroke="#63b8ff" d="M399.88,-165.34C385.42,-157.23 363.92,-145.18 347.02,-135.71"/>
<polygon fill="#63b8ff" stroke="#63b8ff" points="348.95,-132.78 338.51,-130.94 345.53,-138.89 348.95,-132.78"/>
</a>
</g>
</g>
<!-- Node13 -->
<g id="Node000013" class="node">
<title>Node13</title>
<g id="a_Node000013"><a xlink:href="_t_priority_value_8h.html" target="_top" xlink:title=" ">
<polygon fill="white" stroke="#666666" points="458.12,-129.75 373.88,-129.75 373.88,-110.5 458.12,-110.5 458.12,-129.75"/>
<text text-anchor="middle" x="416" y="-116.25" font-family="Helvetica,sans-Serif" font-size="10.00">TPriorityValue.h</text>
</a>
</g>
</g>
<!-- Node5&#45;&gt;Node13 -->
<g id="edge13_Node000005_Node000013" class="edge">
<title>Node5&#45;&gt;Node13</title>
<g id="a_edge13_Node000005_Node000013"><a xlink:title=" ">
<path fill="none" stroke="#63b8ff" d="M416,-165.58C416,-159.07 416,-149.92 416,-141.62"/>
<polygon fill="#63b8ff" stroke="#63b8ff" points="419.5,-141.62 416,-131.62 412.5,-141.62 419.5,-141.62"/>
</a>
</g>
</g>
<!-- Node13&#45;&gt;Node6 -->
<g id="edge15_Node000013_Node000006" class="edge">
<title>Node13&#45;&gt;Node6</title>
<g id="a_edge15_Node000013_Node000006"><a xlink:title=" ">
<path fill="none" stroke="#63b8ff" d="M402.72,-110.06C375.53,-91.51 313.25,-49.01 279.59,-26.04"/>
<polygon fill="#63b8ff" stroke="#63b8ff" points="281.62,-23.19 271.38,-20.44 277.67,-28.97 281.62,-23.19"/>
</a>
</g>
</g>
<!-- Node14 -->
<g id="Node000014" class="node">
<title>Node14</title>
<g id="a_Node000014"><a xlink:title=" ">
<polygon fill="#e0e0e0" stroke="#999999" points="441.62,-74.5 390.38,-74.5 390.38,-55.25 441.62,-55.25 441.62,-74.5"/>
<text text-anchor="middle" x="416" y="-61" font-family="Helvetica,sans-Serif" font-size="10.00">ostream</text>
</a>
</g>
</g>
<!-- Node13&#45;&gt;Node14 -->
<g id="edge14_Node000013_Node000014" class="edge">
<title>Node13&#45;&gt;Node14</title>
<g id="a_edge14_Node000013_Node000014"><a xlink:title=" ">
<path fill="none" stroke="#63b8ff" d="M416,-110.33C416,-103.82 416,-94.67 416,-86.37"/>
<polygon fill="#63b8ff" stroke="#63b8ff" points="419.5,-86.37 416,-76.37 412.5,-86.37 419.5,-86.37"/>
</a>
</g>
</g>
<!-- Node15 -->
<g id="Node000015" class="node">
<title>Node15</title>
<g id="a_Node000015"><a xlink:title=" ">
<polygon fill="#e0e0e0" stroke="#999999" points="557.5,-74.5 514.5,-74.5 514.5,-55.25 557.5,-55.25 557.5,-74.5"/>
<text text-anchor="middle" x="536" y="-61" font-family="Helvetica,sans-Serif" font-size="10.00">vector</text>
</a>
</g>
</g>
<!-- Node13&#45;&gt;Node15 -->
<g id="edge16_Node000013_Node000015" class="edge">
<title>Node13&#45;&gt;Node15</title>
<g id="a_edge16_Node000013_Node000015"><a xlink:title=" ">
<path fill="none" stroke="#63b8ff" d="M436.36,-110.09C455.23,-101.72 483.59,-89.13 505.23,-79.53"/>
<polygon fill="#63b8ff" stroke="#63b8ff" points="506.44,-82.82 514.16,-75.57 503.6,-76.42 506.44,-82.82"/>
</a>
</g>
</g>
<!-- Node17&#45;&gt;Node2 -->
<g id="edge23_Node000017_Node000002" class="edge">
<title>Node17&#45;&gt;Node2</title>
<g id="a_edge23_Node000017_Node000002"><a xlink:title=" ">
<path fill="none" stroke="#63b8ff" d="M631.61,-61.16C537.45,-52.16 235.74,-23.32 135.63,-13.74"/>
<polygon fill="#63b8ff" stroke="#63b8ff" points="136.24,-10.29 125.95,-12.82 135.57,-17.26 136.24,-10.29"/>
</a>
</g>
</g>
<!-- Node17&#45;&gt;Node4 -->
<g id="edge19_Node000017_Node000004" class="edge">
<title>Node17&#45;&gt;Node4</title>
<g id="a_edge19_Node000017_Node000004"><a xlink:title=" ">
<path fill="none" stroke="#63b8ff" d="M688.6,-56.78C691.43,-56.21 694.26,-55.68 697,-55.25 879.29,-26.38 931.25,-48.94 1115.77,-19.55"/>
<polygon fill="#63b8ff" stroke="#63b8ff" points="1116.15,-23.04 1125.46,-17.98 1115.03,-16.13 1116.15,-23.04"/>
</a>
</g>
</g>
<!-- Node17&#45;&gt;Node6 -->
<g id="edge22_Node000017_Node000006" class="edge">
<title>Node17&#45;&gt;Node6</title>
<g id="a_edge22_Node000017_Node000006"><a xlink:title=" ">
<path fill="none" stroke="#63b8ff" d="M631.42,-61.1C559.37,-54.01 370.7,-34.83 288.57,-19.39"/>
<polygon fill="#63b8ff" stroke="#63b8ff" points="289.46,-16 278.97,-17.48 288.1,-22.86 289.46,-16"/>
</a>
</g>
</g>
<!-- Node18 -->
<g id="Node000018" class="node">
<title>Node18</title>
<g id="a_Node000018"><a xlink:title=" ">
<polygon fill="#e0e0e0" stroke="#999999" points="969.88,-19.25 920.12,-19.25 920.12,0 969.88,0 969.88,-19.25"/>
<text text-anchor="middle" x="945" y="-5.75" font-family="Helvetica,sans-Serif" font-size="10.00">iomanip</text>
</a>
</g>
</g>
<!-- Node17&#45;&gt;Node18 -->
<g id="edge20_Node000017_Node000018" class="edge">
<title>Node17&#45;&gt;Node18</title>
<g id="a_edge20_Node000017_Node000018"><a xlink:title=" ">
<path fill="none" stroke="#63b8ff" d="M688.64,-57.01C691.46,-56.39 694.28,-55.79 697,-55.25 788.06,-37 814.67,-38.94 908.63,-19.6"/>
<polygon fill="#63b8ff" stroke="#63b8ff" points="909.25,-23.04 918.32,-17.57 907.82,-16.19 909.25,-23.04"/>
</a>
</g>
</g>
<!-- Node19 -->
<g id="Node000019" class="node">
<title>Node19</title>
<g id="a_Node000019"><a xlink:title=" ">
<polygon fill="#e0e0e0" stroke="#999999" points="1046,-19.25 988,-19.25 988,0 1046,0 1046,-19.25"/>
<text text-anchor="middle" x="1017" y="-5.75" font-family="Helvetica,sans-Serif" font-size="10.00">stdexcept</text>
</a>
</g>
</g>
<!-- Node17&#45;&gt;Node19 -->
<g id="edge21_Node000017_Node000019" class="edge">
<title>Node17&#45;&gt;Node19</title>
<g id="a_edge21_Node000017_Node000019"><a xlink:title=" ">
<path fill="none" stroke="#63b8ff" d="M688.62,-56.9C691.45,-56.3 694.27,-55.74 697,-55.25 817.83,-33.51 852.63,-40.81 976.53,-19.53"/>
<polygon fill="#63b8ff" stroke="#63b8ff" points="976.86,-23.02 986.11,-17.85 975.65,-16.13 976.86,-23.02"/>
</a>
</g>
</g>
<!-- Node20 -->
<g id="Node000020" class="node">
<title>Node20</title>
<g id="a_Node000020"><a xlink:title=" ">
<polygon fill="#e0e0e0" stroke="#999999" points="1109.62,-19.25 1064.38,-19.25 1064.38,0 1109.62,0 1109.62,-19.25"/>
<text text-anchor="middle" x="1087" y="-5.75" font-family="Helvetica,sans-Serif" font-size="10.00">cstdint</text>
</a>
</g>
</g>
<!-- Node17&#45;&gt;Node20 -->
<g id="edge24_Node000017_Node000020" class="edge">
<title>Node17&#45;&gt;Node20</title>
<g id="a_edge24_Node000017_Node000020"><a xlink:title=" ">
<path fill="none" stroke="#63b8ff" d="M688.61,-56.82C691.44,-56.24 694.27,-55.7 697,-55.25 851.21,-29.63 895.73,-47.32 1053.01,-19.3"/>
<polygon fill="#63b8ff" stroke="#63b8ff" points="1053.33,-22.8 1062.54,-17.57 1052.08,-15.91 1053.33,-22.8"/>
</a>
</g>
</g>
<!-- Node21 -->
<g id="Node000021" class="node">
<title>Node21</title>
<g id="a_Node000021"><a xlink:title=" ">
<polygon fill="#e0e0e0" stroke="#999999" points="339.25,-19.25 294.75,-19.25 294.75,0 339.25,0 339.25,-19.25"/>
<text text-anchor="middle" x="317" y="-5.75" font-family="Helvetica,sans-Serif" font-size="10.00">cstdlib</text>
</a>
</g>
</g>
<!-- Node17&#45;&gt;Node21 -->
<g id="edge25_Node000017_Node000021" class="edge">
<title>Node17&#45;&gt;Node21</title>
<g id="a_edge25_Node000017_Node000021"><a xlink:title=" ">
<path fill="none" stroke="#63b8ff" d="M631.39,-61.04C578.04,-55.47 459.57,-41.87 350.78,-19.6"/>
<polygon fill="#63b8ff" stroke="#63b8ff" points="351.59,-16.2 341.09,-17.59 350.16,-23.05 351.59,-16.2"/>
</a>
</g>
</g>
<!-- Node22 -->
<g id="Node000022" class="node">
<title>Node22</title>
<g id="a_Node000022"><a xlink:title=" ">
<polygon fill="#e0e0e0" stroke="#999999" points="416.75,-19.25 357.25,-19.25 357.25,0 416.75,0 416.75,-19.25"/>
<text text-anchor="middle" x="387" y="-5.75" font-family="Helvetica,sans-Serif" font-size="10.00">execinfo.h</text>
</a>
</g>
</g>
<!-- Node17&#45;&gt;Node22 -->
<g id="edge26_Node000017_Node000022" class="edge">
<title>Node17&#45;&gt;Node22</title>
<g id="a_edge26_Node000017_Node000022"><a xlink:title=" ">
<path fill="none" stroke="#63b8ff" d="M631.49,-58.72C589.35,-51.03 507.7,-35.91 428.39,-19.69"/>
<polygon fill="#63b8ff" stroke="#63b8ff" points="429.2,-16.29 418.7,-17.7 427.79,-23.14 429.2,-16.29"/>
</a>
</g>
</g>
<!-- Node23 -->
<g id="Node000023" class="node">
<title>Node23</title>
<g id="a_Node000023"><a xlink:title=" ">
<polygon fill="#e0e0e0" stroke="#999999" points="485.25,-19.25 434.75,-19.25 434.75,0 485.25,0 485.25,-19.25"/>
<text text-anchor="middle" x="460" y="-5.75" font-family="Helvetica,sans-Serif" font-size="10.00">cxxabi.h</text>
</a>
</g>
</g>
<!-- Node17&#45;&gt;Node23 -->
<g id="edge27_Node000017_Node000023" class="edge">
<title>Node17&#45;&gt;Node23</title>
<g id="a_edge27_Node000017_Node000023"><a xlink:title=" ">
<path fill="none" stroke="#63b8ff" d="M631.34,-56.25C595.86,-46.8 535.35,-30.69 496.56,-20.36"/>
<polygon fill="#63b8ff" stroke="#63b8ff" points="497.77,-17.06 487.21,-17.87 495.97,-23.82 497.77,-17.06"/>
</a>
</g>
</g>
<!-- Node24 -->
<g id="Node000024" class="node">
<title>Node24</title>
<g id="a_Node000024"><a xlink:title=" ">
<polygon fill="#e0e0e0" stroke="#999999" points="554.62,-19.25 503.38,-19.25 503.38,0 554.62,0 554.62,-19.25"/>
<text text-anchor="middle" x="529" y="-5.75" font-family="Helvetica,sans-Serif" font-size="10.00">sstream</text>
</a>
</g>
</g>
<!-- Node17&#45;&gt;Node24 -->
<g id="edge28_Node000017_Node000024" class="edge">
<title>Node17&#45;&gt;Node24</title>
<g id="a_edge28_Node000017_Node000024"><a xlink:title=" ">
<path fill="none" stroke="#63b8ff" d="M637.78,-54.84C616.98,-46.39 585.65,-33.65 561.95,-24.02"/>
<polygon fill="#63b8ff" stroke="#63b8ff" points="563.32,-20.8 552.73,-20.27 560.68,-27.28 563.32,-20.8"/>
</a>
</g>
</g>
<!-- Node25 -->
<g id="Node000025" class="node">
<title>Node25</title>
<g id="a_Node000025"><a xlink:title=" ">
<polygon fill="#e0e0e0" stroke="#999999" points="609.5,-19.25 572.5,-19.25 572.5,0 609.5,0 609.5,-19.25"/>
<text text-anchor="middle" x="591" y="-5.75" font-family="Helvetica,sans-Serif" font-size="10.00">array</text>
</a>
</g>
</g>
<!-- Node17&#45;&gt;Node25 -->
<g id="edge29_Node000017_Node000025" class="edge">
<title>Node17&#45;&gt;Node25</title>
<g id="a_edge29_Node000017_Node000025"><a xlink:title=" ">
<path fill="none" stroke="#63b8ff" d="M648.3,-54.84C638.22,-47.07 623.46,-35.67 611.44,-26.4"/>
<polygon fill="#63b8ff" stroke="#63b8ff" points="613.79,-23.79 603.73,-20.45 609.51,-29.33 613.79,-23.79"/>
</a>
</g>
</g>
<!-- Node26 -->
<g id="Node000026" class="node">
<title>Node26</title>
<g id="a_Node000026"><a xlink:title=" ">
<polygon fill="#e0e0e0" stroke="#999999" points="678.25,-19.25 627.75,-19.25 627.75,0 678.25,0 678.25,-19.25"/>
<text text-anchor="middle" x="653" y="-5.75" font-family="Helvetica,sans-Serif" font-size="10.00">memory</text>
</a>
</g>
</g>
<!-- Node17&#45;&gt;Node26 -->
<g id="edge30_Node000017_Node000026" class="edge">
<title>Node17&#45;&gt;Node26</title>
<g id="a_edge30_Node000017_Node000026"><a xlink:title=" ">
<path fill="none" stroke="#63b8ff" d="M658.84,-55.08C657.98,-48.49 656.76,-39.21 655.66,-30.82"/>
<polygon fill="#63b8ff" stroke="#63b8ff" points="659.15,-30.57 654.38,-21.11 652.21,-31.48 659.15,-30.57"/>
</a>
</g>
</g>
<!-- Node27 -->
<g id="Node000027" class="node">
<title>Node27</title>
<g id="a_Node000027"><a xlink:title=" ">
<polygon fill="#e0e0e0" stroke="#999999" points="745.88,-19.25 696.12,-19.25 696.12,0 745.88,0 745.88,-19.25"/>
<text text-anchor="middle" x="721" y="-5.75" font-family="Helvetica,sans-Serif" font-size="10.00">unistd.h</text>
</a>
</g>
</g>
<!-- Node17&#45;&gt;Node27 -->
<g id="edge31_Node000017_Node000027" class="edge">
<title>Node17&#45;&gt;Node27</title>
<g id="a_edge31_Node000017_Node000027"><a xlink:title=" ">
<path fill="none" stroke="#63b8ff" d="M670.35,-54.84C679.08,-47.22 691.79,-36.12 702.3,-26.95"/>
<polygon fill="#63b8ff" stroke="#63b8ff" points="704.43,-29.73 709.66,-20.52 699.83,-24.46 704.43,-29.73"/>
</a>
</g>
</g>
<!-- Node28 -->
<g id="Node000028" class="node">
<title>Node28</title>
<g id="a_Node000028"><a xlink:title=" ">
<polygon fill="#e0e0e0" stroke="#999999" points="823.75,-19.25 764.25,-19.25 764.25,0 823.75,0 823.75,-19.25"/>
<text text-anchor="middle" x="794" y="-5.75" font-family="Helvetica,sans-Serif" font-size="10.00">sys/wait.h</text>
</a>
</g>
</g>
<!-- Node17&#45;&gt;Node28 -->
<g id="edge32_Node000017_Node000028" class="edge">
<title>Node17&#45;&gt;Node28</title>
<g id="a_edge32_Node000017_Node000028"><a xlink:title=" ">
<path fill="none" stroke="#63b8ff" d="M682.73,-54.84C704.1,-46.35 736.34,-33.54 760.63,-23.89"/>
<polygon fill="#63b8ff" stroke="#63b8ff" points="761.75,-27.21 769.75,-20.26 759.16,-20.7 761.75,-27.21"/>
</a>
</g>
</g>
<!-- Node29 -->
<g id="Node000029" class="node">
<title>Node29</title>
<g id="a_Node000029"><a xlink:title=" ">
<polygon fill="#e0e0e0" stroke="#999999" points="902.12,-19.25 841.88,-19.25 841.88,0 902.12,0 902.12,-19.25"/>
<text text-anchor="middle" x="872" y="-5.75" font-family="Helvetica,sans-Serif" font-size="10.00">sys/prctl.h</text>
</a>
</g>
</g>
<!-- Node17&#45;&gt;Node29 -->
<g id="edge33_Node000017_Node000029" class="edge">
<title>Node17&#45;&gt;Node29</title>
<g id="a_edge33_Node000017_Node000029"><a xlink:title=" ">
<path fill="none" stroke="#63b8ff" d="M688.59,-56.69C725.14,-47.51 788.68,-31.55 830.54,-21.04"/>
<polygon fill="#63b8ff" stroke="#63b8ff" points="831.15,-24.49 840,-18.66 829.45,-17.71 831.15,-24.49"/>
</a>
</g>
</g>
<!-- Node30&#45;&gt;Node5 -->
<g id="edge36_Node000030_Node000005" class="edge">
<title>Node30&#45;&gt;Node5</title>
<g id="a_edge36_Node000030_Node000005"><a xlink:title=" ">
<path fill="none" stroke="#63b8ff" d="M894.21,-225.53C799.17,-215.76 559.45,-191.12 460.15,-180.91"/>
<polygon fill="#63b8ff" stroke="#63b8ff" points="460.56,-177.44 450.26,-179.9 459.85,-184.4 460.56,-177.44"/>
</a>
</g>
</g>
<!-- Node30&#45;&gt;Node15 -->
<g id="edge35_Node000030_Node000015" class="edge">
<title>Node30&#45;&gt;Node15</title>
<g id="a_edge35_Node000030_Node000015"><a xlink:title=" ">
<path fill="none" stroke="#63b8ff" d="M916.28,-220.56C891.65,-208.02 845.64,-184.76 806,-165.75 753.06,-140.36 740.94,-131.2 686,-110.5 646.43,-95.59 599.54,-82.32 568.85,-74.2"/>
<polygon fill="#63b8ff" stroke="#63b8ff" points="569.96,-70.87 559.4,-71.73 568.19,-77.65 569.96,-70.87"/>
</a>
</g>
</g>
<!-- Node30&#45;&gt;Node16 -->
<g id="edge37_Node000030_Node000016" class="edge">
<title>Node30&#45;&gt;Node16</title>
<g id="a_edge37_Node000030_Node000016"><a xlink:title=" ">
<path fill="none" stroke="#63b8ff" d="M905.33,-220.59C877.65,-211.87 835.51,-198.59 804.63,-188.86"/>
<polygon fill="#63b8ff" stroke="#63b8ff" points="805.84,-185.57 795.25,-185.91 803.74,-192.25 805.84,-185.57"/>
</a>
</g>
</g>
<!-- Node31 -->
<g id="Node000031" class="node">
<title>Node31</title>
<g id="a_Node000031"><a xlink:title=" ">
<polygon fill="#e0e0e0" stroke="#999999" points="1080,-74.5 1022,-74.5 1022,-55.25 1080,-55.25 1080,-74.5"/>
<text text-anchor="middle" x="1051" y="-61" font-family="Helvetica,sans-Serif" font-size="10.00">TObject.h</text>
</a>
</g>
</g>
<!-- Node30&#45;&gt;Node31 -->
<g id="edge38_Node000030_Node000031" class="edge">
<title>Node30&#45;&gt;Node31</title>
<g id="a_edge38_Node000030_Node000031"><a xlink:title=" ">
<path fill="none" stroke="#63b8ff" d="M943.48,-220.89C957.51,-208.14 984.88,-183.96 1010,-165.75 1034.57,-147.94 1053.25,-156.26 1068,-129.75 1075.84,-115.65 1069.94,-97.76 1063.03,-84.51"/>
<polygon fill="#63b8ff" stroke="#63b8ff" points="1066.09,-82.82 1058.02,-75.96 1060.05,-86.35 1066.09,-82.82"/>
</a>
</g>
</g>
<!-- Node32 -->
<g id="Node000032" class="node">
<title>Node32</title>
<g id="a_Node000032"><a xlink:title=" ">
<polygon fill="#e0e0e0" stroke="#999999" points="1072.75,-185 1019.25,-185 1019.25,-165.75 1072.75,-165.75 1072.75,-185"/>
<text text-anchor="middle" x="1046" y="-171.5" font-family="Helvetica,sans-Serif" font-size="10.00">Rtypes.h</text>
</a>
</g>
</g>
<!-- Node30&#45;&gt;Node32 -->
<g id="edge39_Node000030_Node000032" class="edge">
<title>Node30&#45;&gt;Node32</title>
<g id="a_edge39_Node000030_Node000032"><a xlink:title=" ">
<path fill="none" stroke="#63b8ff" d="M953,-220.59C970.46,-212.29 996.6,-199.86 1016.72,-190.29"/>
<polygon fill="#63b8ff" stroke="#63b8ff" points="1018.01,-193.56 1025.54,-186.1 1015.01,-187.24 1018.01,-193.56"/>
</a>
</g>
</g>
<!-- Node33 -->
<g id="Node000033" class="node">
<title>Node33</title>
<g id="a_Node000033"><a xlink:title=" ">
<polygon fill="#e0e0e0" stroke="#999999" points="1156.75,-185 1091.25,-185 1091.25,-165.75 1156.75,-165.75 1156.75,-185"/>
<text text-anchor="middle" x="1124" y="-171.5" font-family="Helvetica,sans-Serif" font-size="10.00">TRandom.h</text>
</a>
</g>
</g>
<!-- Node30&#45;&gt;Node33 -->
<g id="edge40_Node000030_Node000033" class="edge">
<title>Node30&#45;&gt;Node33</title>
<g id="a_edge40_Node000030_Node000033"><a xlink:title=" ">
<path fill="none" stroke="#63b8ff" d="M966.23,-220.59C997.76,-211.76 1045.98,-198.24 1080.81,-188.48"/>
<polygon fill="#63b8ff" stroke="#63b8ff" points="1081.47,-191.93 1090.15,-185.86 1079.58,-185.19 1081.47,-191.93"/>
</a>
</g>
</g>
<!-- Node34 -->
<g id="Node000034" class="node">
<title>Node34</title>
<g id="a_Node000034"><a xlink:href="_t_p_p_g_8h.html" target="_top" xlink:title=" ">
<polygon fill="white" stroke="#666666" points="959.25,-185 908.75,-185 908.75,-165.75 959.25,-165.75 959.25,-185"/>
<text text-anchor="middle" x="934" y="-171.5" font-family="Helvetica,sans-Serif" font-size="10.00">TPPG.h</text>
</a>
</g>
</g>
<!-- Node30&#45;&gt;Node34 -->
<g id="edge41_Node000030_Node000034" class="edge">
<title>Node30&#45;&gt;Node34</title>
<g id="a_edge41_Node000030_Node000034"><a xlink:title=" ">
<path fill="none" stroke="#63b8ff" d="M934,-220.83C934,-214.32 934,-205.17 934,-196.87"/>
<polygon fill="#63b8ff" stroke="#63b8ff" points="937.5,-196.87 934,-186.87 930.5,-196.87 937.5,-196.87"/>
</a>
</g>
</g>
<!-- Node42 -->
<g id="Node000042" class="node">
<title>Node42</title>
<g id="a_Node000042"><a xlink:href="_t_transient_bits_8h.html" target="_top" xlink:title=" ">
<polygon fill="white" stroke="#666666" points="1261.62,-185 1174.38,-185 1174.38,-165.75 1261.62,-165.75 1261.62,-185"/>
<text text-anchor="middle" x="1218" y="-171.5" font-family="Helvetica,sans-Serif" font-size="10.00">TTransientBits.h</text>
</a>
</g>
</g>
<!-- Node30&#45;&gt;Node42 -->
<g id="edge56_Node000030_Node000042" class="edge">
<title>Node30&#45;&gt;Node42</title>
<g id="a_edge56_Node000030_Node000042"><a xlink:title=" ">
<path fill="none" stroke="#63b8ff" d="M973.79,-222.16C1023.2,-212.9 1107.75,-197.05 1163.25,-186.64"/>
<polygon fill="#63b8ff" stroke="#63b8ff" points="1163.62,-190.13 1172.8,-184.85 1162.33,-183.25 1163.62,-190.13"/>
</a>
</g>
</g>
<!-- Node34&#45;&gt;Node3 -->
<g id="edge43_Node000034_Node000003" class="edge">
<title>Node34&#45;&gt;Node3</title>
<g id="a_edge43_Node000034_Node000003"><a xlink:title=" ">
<path fill="none" stroke="#63b8ff" d="M908.53,-169.46C857.68,-159.65 743.76,-137.67 688.81,-127.07"/>
<polygon fill="#63b8ff" stroke="#63b8ff" points="689.68,-123.67 679.2,-125.21 688.35,-130.55 689.68,-123.67"/>
</a>
</g>
</g>
<!-- Node34&#45;&gt;Node4 -->
<g id="edge44_Node000034_Node000004" class="edge">
<title>Node34&#45;&gt;Node4</title>
<g id="a_edge44_Node000034_Node000004"><a xlink:title=" ">
<path fill="none" stroke="#63b8ff" d="M959.62,-170.69C988.31,-165.52 1035.1,-153.92 1068,-129.75 1104.53,-102.92 1131.79,-55.94 1145.04,-29.71"/>
<polygon fill="#63b8ff" stroke="#63b8ff" points="1148.09,-31.44 1149.32,-20.92 1141.8,-28.38 1148.09,-31.44"/>
</a>
</g>
</g>
<!-- Node34&#45;&gt;Node17 -->
<g id="edge47_Node000034_Node000017" class="edge">
<title>Node34&#45;&gt;Node17</title>
<g id="a_edge47_Node000034_Node000017"><a xlink:title=" ">
<path fill="none" stroke="#63b8ff" d="M908.27,-166.7C881.08,-158.38 837.08,-144.34 800,-129.75 794.49,-127.58 729.44,-97.77 689.98,-79.65"/>
<polygon fill="#63b8ff" stroke="#63b8ff" points="691.52,-76.51 680.97,-75.51 688.6,-82.87 691.52,-76.51"/>
</a>
</g>
</g>
<!-- Node34&#45;&gt;Node31 -->
<g id="edge45_Node000034_Node000031" class="edge">
<title>Node34&#45;&gt;Node31</title>
<g id="a_edge45_Node000034_Node000031"><a xlink:title=" ">
<path fill="none" stroke="#63b8ff" d="M943.57,-165.5C963.11,-147.38 1007.86,-105.88 1033,-82.57"/>
<polygon fill="#63b8ff" stroke="#63b8ff" points="1035.23,-85.27 1040.18,-75.91 1030.47,-80.14 1035.23,-85.27"/>
</a>
</g>
</g>
<!-- Node35 -->
<g id="Node000035" class="node">
<title>Node35</title>
<g id="a_Node000035"><a xlink:title=" ">
<polygon fill="#e0e0e0" stroke="#999999" points="1059.38,-129.75 1024.62,-129.75 1024.62,-110.5 1059.38,-110.5 1059.38,-129.75"/>
<text text-anchor="middle" x="1042" y="-116.25" font-family="Helvetica,sans-Serif" font-size="10.00">map</text>
</a>
</g>
</g>
<!-- Node34&#45;&gt;Node35 -->
<g id="edge42_Node000034_Node000035" class="edge">
<title>Node34&#45;&gt;Node35</title>
<g id="a_edge42_Node000034_Node000035"><a xlink:title=" ">
<path fill="none" stroke="#63b8ff" d="M952.32,-165.34C969.28,-156.98 994.74,-144.43 1014.2,-134.83"/>
<polygon fill="#63b8ff" stroke="#63b8ff" points="1015.53,-138.08 1022.95,-130.52 1012.43,-131.8 1015.53,-138.08"/>
</a>
</g>
</g>
<!-- Node36 -->
<g id="Node000036" class="node">
<title>Node36</title>
<g id="a_Node000036"><a xlink:title=" ">
<polygon fill="#e0e0e0" stroke="#999999" points="881.12,-129.75 808.88,-129.75 808.88,-110.5 881.12,-110.5 881.12,-129.75"/>
<text text-anchor="middle" x="845" y="-116.25" font-family="Helvetica,sans-Serif" font-size="10.00">TCollection.h</text>
</a>
</g>
</g>
<!-- Node34&#45;&gt;Node36 -->
<g id="edge46_Node000034_Node000036" class="edge">
<title>Node34&#45;&gt;Node36</title>
<g id="a_edge46_Node000034_Node000036"><a xlink:title=" ">
<path fill="none" stroke="#63b8ff" d="M918.9,-165.34C905.48,-157.31 885.59,-145.41 869.83,-135.98"/>
<polygon fill="#63b8ff" stroke="#63b8ff" points="871.85,-133.11 861.47,-130.98 868.25,-139.12 871.85,-133.11"/>
</a>
</g>
</g>
<!-- Node37 -->
<g id="Node000037" class="node">
<title>Node37</title>
<g id="a_Node000037"><a xlink:href="_t_singleton_8h.html" target="_top" xlink:title=" ">
<polygon fill="white" stroke="#666666" points="969,-129.75 899,-129.75 899,-110.5 969,-110.5 969,-129.75"/>
<text text-anchor="middle" x="934" y="-116.25" font-family="Helvetica,sans-Serif" font-size="10.00">TSingleton.h</text>
</a>
</g>
</g>
<!-- Node34&#45;&gt;Node37 -->
<g id="edge48_Node000034_Node000037" class="edge">
<title>Node34&#45;&gt;Node37</title>
<g id="a_edge48_Node000034_Node000037"><a xlink:title=" ">
<path fill="none" stroke="#63b8ff" d="M934,-165.58C934,-159.07 934,-149.92 934,-141.62"/>
<polygon fill="#63b8ff" stroke="#63b8ff" points="937.5,-141.62 934,-131.62 930.5,-141.62 937.5,-141.62"/>
</a>
</g>
</g>
<!-- Node37&#45;&gt;Node4 -->
<g id="edge49_Node000037_Node000004" class="edge">
<title>Node37&#45;&gt;Node4</title>
<g id="a_edge49_Node000037_Node000004"><a xlink:title=" ">
<path fill="none" stroke="#63b8ff" d="M942.9,-110.01C956.72,-96.32 984.73,-70.45 1013,-55.25 1030.91,-45.62 1080.62,-30.83 1115.93,-20.95"/>
<polygon fill="#63b8ff" stroke="#63b8ff" points="1116.67,-24.37 1125.37,-18.33 1114.8,-17.63 1116.67,-24.37"/>
</a>
</g>
</g>
<!-- Node37&#45;&gt;Node17 -->
<g id="edge55_Node000037_Node000017" class="edge">
<title>Node37&#45;&gt;Node17</title>
<g id="a_edge55_Node000037_Node000017"><a xlink:title=" ">
<path fill="none" stroke="#63b8ff" d="M898.94,-112.22C895.92,-111.64 892.91,-111.06 890,-110.5 807.81,-94.78 784.3,-92.57 699.84,-75.03"/>
<polygon fill="#63b8ff" stroke="#63b8ff" points="700.64,-71.62 690.14,-73 699.21,-78.47 700.64,-71.62"/>
</a>
</g>
</g>
<!-- Node37&#45;&gt;Node31 -->
<g id="edge50_Node000037_Node000031" class="edge">
<title>Node37&#45;&gt;Node31</title>
<g id="a_edge50_Node000037_Node000031"><a xlink:title=" ">
<path fill="none" stroke="#63b8ff" d="M953.85,-110.09C972.17,-101.75 999.65,-89.25 1020.71,-79.66"/>
<polygon fill="#63b8ff" stroke="#63b8ff" points="1022.03,-82.91 1029.68,-75.58 1019.13,-76.54 1022.03,-82.91"/>
</a>
</g>
</g>
<!-- Node38 -->
<g id="Node000038" class="node">
<title>Node38</title>
<g id="a_Node000038"><a xlink:title=" ">
<polygon fill="#e0e0e0" stroke="#999999" points="773.88,-74.5 706.12,-74.5 706.12,-55.25 773.88,-55.25 773.88,-74.5"/>
<text text-anchor="middle" x="740" y="-61" font-family="Helvetica,sans-Serif" font-size="10.00">TDirectory.h</text>
</a>
</g>
</g>
<!-- Node37&#45;&gt;Node38 -->
<g id="edge51_Node000037_Node000038" class="edge">
<title>Node37&#45;&gt;Node38</title>
<g id="a_edge51_Node000037_Node000038"><a xlink:title=" ">
<path fill="none" stroke="#63b8ff" d="M901.09,-110.09C868.9,-101.26 819.66,-87.74 784.1,-77.98"/>
<polygon fill="#63b8ff" stroke="#63b8ff" points="785.1,-74.62 774.53,-75.35 783.25,-81.38 785.1,-74.62"/>
</a>
</g>
</g>
<!-- Node39 -->
<g id="Node000039" class="node">
<title>Node39</title>
<g id="a_Node000039"><a xlink:title=" ">
<polygon fill="#e0e0e0" stroke="#999999" points="837.62,-74.5 792.38,-74.5 792.38,-55.25 837.62,-55.25 837.62,-74.5"/>
<text text-anchor="middle" x="815" y="-61" font-family="Helvetica,sans-Serif" font-size="10.00">TFile.h</text>
</a>
</g>
</g>
<!-- Node37&#45;&gt;Node39 -->
<g id="edge52_Node000037_Node000039" class="edge">
<title>Node37&#45;&gt;Node39</title>
<g id="a_edge52_Node000037_Node000039"><a xlink:title=" ">
<path fill="none" stroke="#63b8ff" d="M913.81,-110.09C895.09,-101.72 866.98,-89.13 845.52,-79.53"/>
<polygon fill="#63b8ff" stroke="#63b8ff" points="847.22,-76.46 836.67,-75.57 844.37,-82.85 847.22,-76.46"/>
</a>
</g>
</g>
<!-- Node40 -->
<g id="Node000040" class="node">
<title>Node40</title>
<g id="a_Node000040"><a xlink:title=" ">
<polygon fill="#e0e0e0" stroke="#999999" points="902,-74.5 856,-74.5 856,-55.25 902,-55.25 902,-74.5"/>
<text text-anchor="middle" x="879" y="-61" font-family="Helvetica,sans-Serif" font-size="10.00">TList.h</text>
</a>
</g>
</g>
<!-- Node37&#45;&gt;Node40 -->
<g id="edge53_Node000037_Node000040" class="edge">
<title>Node37&#45;&gt;Node40</title>
<g id="a_edge53_Node000037_Node000040"><a xlink:title=" ">
<path fill="none" stroke="#63b8ff" d="M924.92,-110.33C917.16,-102.82 905.79,-91.81 896.3,-82.63"/>
<polygon fill="#63b8ff" stroke="#63b8ff" points="898.99,-80.35 889.37,-75.91 894.12,-85.38 898.99,-80.35"/>
</a>
</g>
</g>
<!-- Node41 -->
<g id="Node000041" class="node">
<title>Node41</title>
<g id="a_Node000041"><a xlink:title=" ">
<polygon fill="#e0e0e0" stroke="#999999" points="966,-74.5 920,-74.5 920,-55.25 966,-55.25 966,-74.5"/>
<text text-anchor="middle" x="943" y="-61" font-family="Helvetica,sans-Serif" font-size="10.00">TKey.h</text>
</a>
</g>
</g>
<!-- Node37&#45;&gt;Node41 -->
<g id="edge54_Node000037_Node000041" class="edge">
<title>Node37&#45;&gt;Node41</title>
<g id="a_edge54_Node000037_Node000041"><a xlink:title=" ">
<path fill="none" stroke="#63b8ff" d="M935.49,-110.33C936.6,-103.74 938.17,-94.46 939.59,-86.07"/>
<polygon fill="#63b8ff" stroke="#63b8ff" points="943.01,-86.8 941.23,-76.35 936.11,-85.63 943.01,-86.8"/>
</a>
</g>
</g>
<!-- Node42&#45;&gt;Node4 -->
<g id="edge57_Node000042_Node000004" class="edge">
<title>Node42&#45;&gt;Node4</title>
<g id="a_edge57_Node000042_Node000004"><a xlink:title=" ">
<path fill="none" stroke="#63b8ff" d="M1208.62,-165.33C1200.39,-156.87 1188.73,-143.52 1182,-129.75 1166.1,-97.23 1158.96,-55.23 1155.96,-30.78"/>
<polygon fill="#63b8ff" stroke="#63b8ff" points="1159.46,-30.51 1154.89,-20.95 1152.5,-31.27 1159.46,-30.51"/>
</a>
</g>
</g>
<!-- Node43 -->
<g id="Node000043" class="node">
<title>Node43</title>
<g id="a_Node000043"><a xlink:title=" ">
<polygon fill="#e0e0e0" stroke="#999999" points="1264.88,-129.75 1191.12,-129.75 1191.12,-110.5 1264.88,-110.5 1264.88,-129.75"/>
<text text-anchor="middle" x="1228" y="-116.25" font-family="Helvetica,sans-Serif" font-size="10.00">RtypesCore.h</text>
</a>
</g>
</g>
<!-- Node42&#45;&gt;Node43 -->
<g id="edge58_Node000042_Node000043" class="edge">
<title>Node42&#45;&gt;Node43</title>
<g id="a_edge58_Node000042_Node000043"><a xlink:title=" ">
<path fill="none" stroke="#63b8ff" d="M1219.65,-165.58C1220.89,-158.99 1222.63,-149.71 1224.21,-141.32"/>
<polygon fill="#63b8ff" stroke="#63b8ff" points="1227.63,-142.07 1226.03,-131.6 1220.75,-140.78 1227.63,-142.07"/>
</a>
</g>
</g>
</g>
</svg>
