<?xml version="1.0" encoding="UTF-8" standalone="no"?>
<!DOCTYPE svg PUBLIC "-//W3C//DTD SVG 1.1//EN"
 "http://www.w3.org/Graphics/SVG/1.1/DTD/svg11.dtd">
<!-- Generated by graphviz version 9.0.0 (20230911.1827)
 -->
<!-- Title: TChannel.cxx Pages: 1 -->
<svg width="1676pt" height="248pt"
 viewBox="0.00 0.00 1676.08 248.25" xmlns="http://www.w3.org/2000/svg" xmlns:xlink="http://www.w3.org/1999/xlink">
<g id="graph0" class="graph" transform="scale(1 1) rotate(0) translate(4 244.25)">
<title>TChannel.cxx</title>
<!-- Node1 -->
<g id="Node000001" class="node">
<title>Node1</title>
<g id="a_Node000001"><a xlink:title=" ">
<polygon fill="#999999" stroke="#666666" points="1294.88,-240.25 1221.12,-240.25 1221.12,-221 1294.88,-221 1294.88,-240.25"/>
<text text-anchor="middle" x="1258" y="-226.75" font-family="Helvetica,sans-Serif" font-size="10.00">TChannel.cxx</text>
</a>
</g>
</g>
<!-- Node2 -->
<g id="Node000002" class="node">
<title>Node2</title>
<g id="a_Node000002"><a xlink:href="_t_channel_8h.html" target="_top" xlink:title=" ">
<polygon fill="white" stroke="#666666" points="825.38,-185 760.62,-185 760.62,-165.75 825.38,-165.75 825.38,-185"/>
<text text-anchor="middle" x="793" y="-171.5" font-family="Helvetica,sans-Serif" font-size="10.00">TChannel.h</text>
</a>
</g>
</g>
<!-- Node1&#45;&gt;Node2 -->
<g id="edge1_Node000001_Node000002" class="edge">
<title>Node1&#45;&gt;Node2</title>
<g id="a_edge1_Node000001_Node000002"><a xlink:title=" ">
<path fill="none" stroke="#63b8ff" d="M1220.73,-225.36C1135.77,-215.63 928.07,-191.84 837,-181.41"/>
<polygon fill="#63b8ff" stroke="#63b8ff" points="837.56,-177.95 827.22,-180.29 836.76,-184.91 837.56,-177.95"/>
</a>
</g>
</g>
<!-- Node3 -->
<g id="Node000003" class="node">
<title>Node3</title>
<g id="a_Node000003"><a xlink:title=" ">
<polygon fill="#e0e0e0" stroke="#999999" points="197.75,-19.25 144.25,-19.25 144.25,0 197.75,0 197.75,-19.25"/>
<text text-anchor="middle" x="171" y="-5.75" font-family="Helvetica,sans-Serif" font-size="10.00">iostream</text>
</a>
</g>
</g>
<!-- Node1&#45;&gt;Node3 -->
<g id="edge44_Node000001_Node000003" class="edge">
<title>Node1&#45;&gt;Node3</title>
<g id="a_edge44_Node000001_Node000003"><a xlink:title=" ">
<path fill="none" stroke="#63b8ff" d="M1220.86,-228.93C1046.3,-225.55 314.28,-209.93 273,-185 215.01,-149.97 186.46,-68.53 175.94,-30.65"/>
<polygon fill="#63b8ff" stroke="#63b8ff" points="179.35,-29.86 173.43,-21.07 172.58,-31.64 179.35,-29.86"/>
</a>
</g>
</g>
<!-- Node7 -->
<g id="Node000007" class="node">
<title>Node7</title>
<g id="a_Node000007"><a xlink:title=" ">
<polygon fill="#e0e0e0" stroke="#999999" points="1192.38,-129.75 1109.62,-129.75 1109.62,-110.5 1192.38,-110.5 1192.38,-129.75"/>
<text text-anchor="middle" x="1151" y="-116.25" font-family="Helvetica,sans-Serif" font-size="10.00">unordered_map</text>
</a>
</g>
</g>
<!-- Node1&#45;&gt;Node7 -->
<g id="edge48_Node000001_Node000007" class="edge">
<title>Node1&#45;&gt;Node7</title>
<g id="a_edge48_Node000001_Node000007"><a xlink:title=" ">
<path fill="none" stroke="#63b8ff" d="M1246.41,-220.52C1235.57,-211.81 1219.13,-198.11 1206,-185 1191.17,-170.19 1175.71,-151.96 1164.98,-138.77"/>
<polygon fill="#63b8ff" stroke="#63b8ff" points="1168.01,-136.96 1159.02,-131.36 1162.56,-141.34 1168.01,-136.96"/>
</a>
</g>
</g>
<!-- Node16 -->
<g id="Node000016" class="node">
<title>Node16</title>
<g id="a_Node000016"><a xlink:href="_globals_8h.html" target="_top" xlink:title=" ">
<polygon fill="white" stroke="#666666" points="454.25,-74.5 397.75,-74.5 397.75,-55.25 454.25,-55.25 454.25,-74.5"/>
<text text-anchor="middle" x="426" y="-61" font-family="Helvetica,sans-Serif" font-size="10.00">Globals.h</text>
</a>
</g>
</g>
<!-- Node1&#45;&gt;Node16 -->
<g id="edge64_Node000001_Node000016" class="edge">
<title>Node1&#45;&gt;Node16</title>
<g id="a_edge64_Node000001_Node000016"><a xlink:title=" ">
<path fill="none" stroke="#63b8ff" d="M1220.83,-229.33C1047.06,-227.79 321.75,-219.29 289,-185 266.13,-161.05 269.55,-137.29 289,-110.5 310.99,-80.21 354.07,-70.08 386.08,-66.9"/>
<polygon fill="#63b8ff" stroke="#63b8ff" points="386.11,-70.41 395.81,-66.13 385.56,-63.43 386.11,-70.41"/>
</a>
</g>
</g>
<!-- Node18 -->
<g id="Node000018" class="node">
<title>Node18</title>
<g id="a_Node000018"><a xlink:title=" ">
<polygon fill="#e0e0e0" stroke="#999999" points="941.88,-19.25 892.12,-19.25 892.12,0 941.88,0 941.88,-19.25"/>
<text text-anchor="middle" x="917" y="-5.75" font-family="Helvetica,sans-Serif" font-size="10.00">iomanip</text>
</a>
</g>
</g>
<!-- Node1&#45;&gt;Node18 -->
<g id="edge45_Node000001_Node000018" class="edge">
<title>Node1&#45;&gt;Node18</title>
<g id="a_edge45_Node000001_Node000018"><a xlink:title=" ">
<path fill="none" stroke="#63b8ff" d="M1220.76,-228.39C1058.34,-222.64 417.46,-195.87 360,-129.75 354.39,-123.29 354.49,-117.05 360,-110.5 396.25,-67.37 787.7,-34.64 880.72,-19.29"/>
<polygon fill="#63b8ff" stroke="#63b8ff" points="881.11,-22.78 890.31,-17.52 879.84,-15.9 881.11,-22.78"/>
</a>
</g>
</g>
<!-- Node19 -->
<g id="Node000019" class="node">
<title>Node19</title>
<g id="a_Node000019"><a xlink:title=" ">
<polygon fill="#e0e0e0" stroke="#999999" points="58,-19.25 0,-19.25 0,0 58,0 58,-19.25"/>
<text text-anchor="middle" x="29" y="-5.75" font-family="Helvetica,sans-Serif" font-size="10.00">stdexcept</text>
</a>
</g>
</g>
<!-- Node1&#45;&gt;Node19 -->
<g id="edge42_Node000001_Node000019" class="edge">
<title>Node1&#45;&gt;Node19</title>
<g id="a_edge42_Node000001_Node000019"><a xlink:title=" ">
<path fill="none" stroke="#63b8ff" d="M1220.8,-229.57C1045.69,-229.09 308.18,-224.74 214,-185 133.71,-151.12 67.23,-65.78 41.01,-28.51"/>
<polygon fill="#63b8ff" stroke="#63b8ff" points="44.12,-26.85 35.56,-20.6 38.35,-30.82 44.12,-26.85"/>
</a>
</g>
</g>
<!-- Node24 -->
<g id="Node000024" class="node">
<title>Node24</title>
<g id="a_Node000024"><a xlink:title=" ">
<polygon fill="#e0e0e0" stroke="#999999" points="1080.62,-19.25 1029.38,-19.25 1029.38,0 1080.62,0 1080.62,-19.25"/>
<text text-anchor="middle" x="1055" y="-5.75" font-family="Helvetica,sans-Serif" font-size="10.00">sstream</text>
</a>
</g>
</g>
<!-- Node1&#45;&gt;Node24 -->
<g id="edge50_Node000001_Node000024" class="edge">
<title>Node1&#45;&gt;Node24</title>
<g id="a_edge50_Node000001_Node000024"><a xlink:title=" ">
<path fill="none" stroke="#63b8ff" d="M1255.43,-220.7C1249.04,-199.65 1230.74,-146 1201,-110.5 1168.49,-71.69 1117.3,-41.45 1084.97,-24.83"/>
<polygon fill="#63b8ff" stroke="#63b8ff" points="1086.65,-21.76 1076.14,-20.4 1083.51,-28.01 1086.65,-21.76"/>
</a>
</g>
</g>
<!-- Node27 -->
<g id="Node000027" class="node">
<title>Node27</title>
<g id="a_Node000027"><a xlink:title=" ">
<polygon fill="#e0e0e0" stroke="#999999" points="125.88,-19.25 76.12,-19.25 76.12,0 125.88,0 125.88,-19.25"/>
<text text-anchor="middle" x="101" y="-5.75" font-family="Helvetica,sans-Serif" font-size="10.00">unistd.h</text>
</a>
</g>
</g>
<!-- Node1&#45;&gt;Node27 -->
<g id="edge47_Node000001_Node000027" class="edge">
<title>Node1&#45;&gt;Node27</title>
<g id="a_edge47_Node000001_Node000027"><a xlink:title=" ">
<path fill="none" stroke="#63b8ff" d="M1220.69,-229.76C1048.41,-230.12 334.57,-228.95 246,-185 177.28,-150.9 129.17,-67.7 110.11,-29.89"/>
<polygon fill="#63b8ff" stroke="#63b8ff" points="113.33,-28.52 105.8,-21.07 107.05,-31.6 113.33,-28.52"/>
</a>
</g>
</g>
<!-- Node33 -->
<g id="Node000033" class="node">
<title>Node33</title>
<g id="a_Node000033"><a xlink:title=" ">
<polygon fill="#e0e0e0" stroke="#999999" points="1637.5,-19.25 1594.5,-19.25 1594.5,0 1637.5,0 1637.5,-19.25"/>
<text text-anchor="middle" x="1616" y="-5.75" font-family="Helvetica,sans-Serif" font-size="10.00">vector</text>
</a>
</g>
</g>
<!-- Node1&#45;&gt;Node33 -->
<g id="edge49_Node000001_Node000033" class="edge">
<title>Node1&#45;&gt;Node33</title>
<g id="a_edge49_Node000001_Node000033"><a xlink:title=" ">
<path fill="none" stroke="#63b8ff" d="M1295.1,-228.17C1388.49,-224.14 1627.5,-211.31 1651,-185 1690.7,-140.54 1650.63,-63.99 1628.52,-29.02"/>
<polygon fill="#63b8ff" stroke="#63b8ff" points="1631.57,-27.29 1623.17,-20.85 1625.72,-31.13 1631.57,-27.29"/>
</a>
</g>
</g>
<!-- Node35 -->
<g id="Node000035" class="node">
<title>Node35</title>
<g id="a_Node000035"><a xlink:title=" ">
<polygon fill="#e0e0e0" stroke="#999999" points="1376.5,-74.5 1327.5,-74.5 1327.5,-55.25 1376.5,-55.25 1376.5,-74.5"/>
<text text-anchor="middle" x="1352" y="-61" font-family="Helvetica,sans-Serif" font-size="10.00">fstream</text>
</a>
</g>
</g>
<!-- Node1&#45;&gt;Node35 -->
<g id="edge43_Node000001_Node000035" class="edge">
<title>Node1&#45;&gt;Node35</title>
<g id="a_edge43_Node000001_Node000035"><a xlink:title=" ">
<path fill="none" stroke="#63b8ff" d="M1263.05,-220.82C1277.78,-195.17 1320.9,-120.05 1341.2,-84.69"/>
<polygon fill="#63b8ff" stroke="#63b8ff" points="1344.22,-86.45 1346.17,-76.04 1338.15,-82.97 1344.22,-86.45"/>
</a>
</g>
</g>
<!-- Node36 -->
<g id="Node000036" class="node">
<title>Node36</title>
<g id="a_Node000036"><a xlink:title=" ">
<polygon fill="#e0e0e0" stroke="#999999" points="1366.12,-185 1323.88,-185 1323.88,-165.75 1366.12,-165.75 1366.12,-185"/>
<text text-anchor="middle" x="1345" y="-171.5" font-family="Helvetica,sans-Serif" font-size="10.00">fcntl.h</text>
</a>
</g>
</g>
<!-- Node1&#45;&gt;Node36 -->
<g id="edge46_Node000001_Node000036" class="edge">
<title>Node1&#45;&gt;Node36</title>
<g id="a_edge46_Node000001_Node000036"><a xlink:title=" ">
<path fill="none" stroke="#63b8ff" d="M1272.76,-220.59C1285.88,-212.56 1305.32,-200.66 1320.73,-191.23"/>
<polygon fill="#63b8ff" stroke="#63b8ff" points="1322.18,-194.45 1328.88,-186.24 1318.52,-188.48 1322.18,-194.45"/>
</a>
</g>
</g>
<!-- Node37 -->
<g id="Node000037" class="node">
<title>Node37</title>
<g id="a_Node000037"><a xlink:title=" ">
<polygon fill="#e0e0e0" stroke="#999999" points="1439.88,-185 1384.12,-185 1384.12,-165.75 1439.88,-165.75 1439.88,-185"/>
<text text-anchor="middle" x="1412" y="-171.5" font-family="Helvetica,sans-Serif" font-size="10.00">algorithm</text>
</a>
</g>
</g>
<!-- Node1&#45;&gt;Node37 -->
<g id="edge51_Node000001_Node000037" class="edge">
<title>Node1&#45;&gt;Node37</title>
<g id="a_edge51_Node000001_Node000037"><a xlink:title=" ">
<path fill="none" stroke="#63b8ff" d="M1284.12,-220.59C1309.12,-211.95 1347.08,-198.82 1375.15,-189.12"/>
<polygon fill="#63b8ff" stroke="#63b8ff" points="1376.01,-192.52 1384.32,-185.95 1373.72,-185.91 1376.01,-192.52"/>
</a>
</g>
</g>
<!-- Node38 -->
<g id="Node000038" class="node">
<title>Node38</title>
<g id="a_Node000038"><a xlink:title=" ">
<polygon fill="#e0e0e0" stroke="#999999" points="1497.62,-185 1458.38,-185 1458.38,-165.75 1497.62,-165.75 1497.62,-185"/>
<text text-anchor="middle" x="1478" y="-171.5" font-family="Helvetica,sans-Serif" font-size="10.00">regex</text>
</a>
</g>
</g>
<!-- Node1&#45;&gt;Node38 -->
<g id="edge52_Node000001_Node000038" class="edge">
<title>Node1&#45;&gt;Node38</title>
<g id="a_edge52_Node000001_Node000038"><a xlink:title=" ">
<path fill="none" stroke="#63b8ff" d="M1295.13,-221.64C1331.48,-213.67 1388.65,-200.73 1447.14,-185.37"/>
<polygon fill="#63b8ff" stroke="#63b8ff" points="1447.84,-188.8 1456.61,-182.86 1446.05,-182.04 1447.84,-188.8"/>
</a>
</g>
</g>
<!-- Node39 -->
<g id="Node000039" class="node">
<title>Node39</title>
<g id="a_Node000039"><a xlink:title=" ">
<polygon fill="#e0e0e0" stroke="#999999" points="1560.62,-185 1515.38,-185 1515.38,-165.75 1560.62,-165.75 1560.62,-185"/>
<text text-anchor="middle" x="1538" y="-171.5" font-family="Helvetica,sans-Serif" font-size="10.00">TFile.h</text>
</a>
</g>
</g>
<!-- Node1&#45;&gt;Node39 -->
<g id="edge53_Node000001_Node000039" class="edge">
<title>Node1&#45;&gt;Node39</title>
<g id="a_edge53_Node000001_Node000039"><a xlink:title=" ">
<path fill="none" stroke="#63b8ff" d="M1295.34,-224.06C1342.04,-216.85 1424.65,-203.29 1503.88,-185.55"/>
<polygon fill="#63b8ff" stroke="#63b8ff" points="1504.58,-188.98 1513.56,-183.36 1503.04,-182.16 1504.58,-188.98"/>
</a>
</g>
</g>
<!-- Node40 -->
<g id="Node000040" class="node">
<title>Node40</title>
<g id="a_Node000040"><a xlink:title=" ">
<polygon fill="#e0e0e0" stroke="#999999" points="1625,-185 1579,-185 1579,-165.75 1625,-165.75 1625,-185"/>
<text text-anchor="middle" x="1602" y="-171.5" font-family="Helvetica,sans-Serif" font-size="10.00">TKey.h</text>
</a>
</g>
</g>
<!-- Node1&#45;&gt;Node40 -->
<g id="edge54_Node000001_Node000040" class="edge">
<title>Node1&#45;&gt;Node40</title>
<g id="a_edge54_Node000001_Node000040"><a xlink:title=" ">
<path fill="none" stroke="#63b8ff" d="M1295.23,-225.78C1351.98,-219.59 1463.67,-206.17 1567.65,-185.26"/>
<polygon fill="#63b8ff" stroke="#63b8ff" points="1568.08,-188.75 1577.18,-183.32 1566.68,-181.89 1568.08,-188.75"/>
</a>
</g>
</g>
<!-- Node41 -->
<g id="Node000041" class="node">
<title>Node41</title>
<g id="a_Node000041"><a xlink:href="_stoppable_thread_8h.html" target="_top" xlink:title=" ">
<polygon fill="white" stroke="#666666" points="1306.5,-74.5 1209.5,-74.5 1209.5,-55.25 1306.5,-55.25 1306.5,-74.5"/>
<text text-anchor="middle" x="1258" y="-61" font-family="Helvetica,sans-Serif" font-size="10.00">StoppableThread.h</text>
</a>
</g>
</g>
<!-- Node1&#45;&gt;Node41 -->
<g id="edge55_Node000001_Node000041" class="edge">
<title>Node1&#45;&gt;Node41</title>
<g id="a_edge55_Node000001_Node000041"><a xlink:title=" ">
<path fill="none" stroke="#63b8ff" d="M1258,-220.82C1258,-195.5 1258,-122 1258,-86.09"/>
<polygon fill="#63b8ff" stroke="#63b8ff" points="1261.5,-86.24 1258,-76.24 1254.5,-86.24 1261.5,-86.24"/>
</a>
</g>
</g>
<!-- Node46 -->
<g id="Node000046" class="node">
<title>Node46</title>
<g id="a_Node000046"><a xlink:href="_t_g_r_s_i_utilities_8h.html" target="_top" xlink:title=" ">
<polygon fill="white" stroke="#666666" points="1531.25,-129.75 1444.75,-129.75 1444.75,-110.5 1531.25,-110.5 1531.25,-129.75"/>
<text text-anchor="middle" x="1488" y="-116.25" font-family="Helvetica,sans-Serif" font-size="10.00">TGRSIUtilities.h</text>
</a>
</g>
</g>
<!-- Node1&#45;&gt;Node46 -->
<g id="edge65_Node000001_Node000046" class="edge">
<title>Node1&#45;&gt;Node46</title>
<g id="a_edge65_Node000001_Node000046"><a xlink:title=" ">
<path fill="none" stroke="#63b8ff" d="M1295.15,-227.97C1385.64,-223.55 1611.71,-210.09 1634,-185 1664.13,-151.08 1595.77,-134.41 1542.72,-126.81"/>
<polygon fill="#63b8ff" stroke="#63b8ff" points="1543.21,-123.34 1532.84,-125.48 1542.28,-130.28 1543.21,-123.34"/>
</a>
</g>
</g>
<!-- Node2&#45;&gt;Node3 -->
<g id="edge2_Node000002_Node000003" class="edge">
<title>Node2&#45;&gt;Node3</title>
<g id="a_edge2_Node000002_Node000003"><a xlink:title=" ">
<path fill="none" stroke="#63b8ff" d="M760.18,-173.1C671.12,-169.31 426.55,-156.7 351,-129.75 285.11,-106.25 219.59,-53.67 188.95,-26.93"/>
<polygon fill="#63b8ff" stroke="#63b8ff" points="191.53,-24.54 181.73,-20.52 186.89,-29.77 191.53,-24.54"/>
</a>
</g>
</g>
<!-- Node4 -->
<g id="Node000004" class="node">
<title>Node4</title>
<g id="a_Node000004"><a xlink:title=" ">
<polygon fill="#e0e0e0" stroke="#999999" points="1215,-19.25 1175,-19.25 1175,0 1215,0 1215,-19.25"/>
<text text-anchor="middle" x="1195" y="-5.75" font-family="Helvetica,sans-Serif" font-size="10.00">string</text>
</a>
</g>
</g>
<!-- Node2&#45;&gt;Node4 -->
<g id="edge3_Node000002_Node000004" class="edge">
<title>Node2&#45;&gt;Node4</title>
<g id="a_edge3_Node000002_Node000004"><a xlink:title=" ">
<path fill="none" stroke="#63b8ff" d="M825.62,-173.54C875.8,-171.2 974.09,-162.44 1050,-129.75 1105.14,-106 1156.03,-54.72 1180.22,-27.85"/>
<polygon fill="#63b8ff" stroke="#63b8ff" points="1182.63,-30.4 1186.62,-20.58 1177.38,-25.77 1182.63,-30.4"/>
</a>
</g>
</g>
<!-- Node5 -->
<g id="Node000005" class="node">
<title>Node5</title>
<g id="a_Node000005"><a xlink:title=" ">
<polygon fill="#e0e0e0" stroke="#999999" points="499.5,-129.75 456.5,-129.75 456.5,-110.5 499.5,-110.5 499.5,-129.75"/>
<text text-anchor="middle" x="478" y="-116.25" font-family="Helvetica,sans-Serif" font-size="10.00">cmath</text>
</a>
</g>
</g>
<!-- Node2&#45;&gt;Node5 -->
<g id="edge4_Node000002_Node000005" class="edge">
<title>Node2&#45;&gt;Node5</title>
<g id="a_edge4_Node000002_Node000005"><a xlink:title=" ">
<path fill="none" stroke="#63b8ff" d="M760.4,-170.5C709.33,-164.16 607.19,-150.4 511.03,-129.96"/>
<polygon fill="#63b8ff" stroke="#63b8ff" points="511.93,-126.57 501.42,-127.89 510.45,-133.42 511.93,-126.57"/>
</a>
</g>
</g>
<!-- Node6 -->
<g id="Node000006" class="node">
<title>Node6</title>
<g id="a_Node000006"><a xlink:title=" ">
<polygon fill="#e0e0e0" stroke="#999999" points="556.25,-129.75 517.75,-129.75 517.75,-110.5 556.25,-110.5 556.25,-129.75"/>
<text text-anchor="middle" x="537" y="-116.25" font-family="Helvetica,sans-Serif" font-size="10.00">utility</text>
</a>
</g>
</g>
<!-- Node2&#45;&gt;Node6 -->
<g id="edge5_Node000002_Node000006" class="edge">
<title>Node2&#45;&gt;Node6</title>
<g id="a_edge5_Node000002_Node000006"><a xlink:title=" ">
<path fill="none" stroke="#63b8ff" d="M760.29,-169.09C717.88,-162 641.45,-148.39 567.41,-130.15"/>
<polygon fill="#63b8ff" stroke="#63b8ff" points="568.53,-126.82 557.98,-127.79 566.83,-133.61 568.53,-126.82"/>
</a>
</g>
</g>
<!-- Node2&#45;&gt;Node7 -->
<g id="edge6_Node000002_Node000007" class="edge">
<title>Node2&#45;&gt;Node7</title>
<g id="a_edge6_Node000002_Node000007"><a xlink:title=" ">
<path fill="none" stroke="#63b8ff" d="M825.75,-169.65C881.33,-161.62 997.7,-144.7 1096,-129.75 1096.67,-129.65 1097.35,-129.54 1098.03,-129.44"/>
<polygon fill="#63b8ff" stroke="#63b8ff" points="1098.42,-132.92 1107.77,-127.94 1097.35,-126 1098.42,-132.92"/>
</a>
</g>
</g>
<!-- Node8 -->
<g id="Node000008" class="node">
<title>Node8</title>
<g id="a_Node000008"><a xlink:title=" ">
<polygon fill="#e0e0e0" stroke="#999999" points="635.5,-129.75 574.5,-129.75 574.5,-110.5 635.5,-110.5 635.5,-129.75"/>
<text text-anchor="middle" x="605" y="-116.25" font-family="Helvetica,sans-Serif" font-size="10.00">TNamed.h</text>
</a>
</g>
</g>
<!-- Node2&#45;&gt;Node8 -->
<g id="edge7_Node000002_Node000008" class="edge">
<title>Node2&#45;&gt;Node8</title>
<g id="a_edge7_Node000002_Node000008"><a xlink:title=" ">
<path fill="none" stroke="#63b8ff" d="M761.11,-165.34C729.54,-156.4 681.04,-142.66 646.49,-132.88"/>
<polygon fill="#63b8ff" stroke="#63b8ff" points="647.83,-129.62 637.25,-130.26 645.92,-136.35 647.83,-129.62"/>
</a>
</g>
</g>
<!-- Node9 -->
<g id="Node000009" class="node">
<title>Node9</title>
<g id="a_Node000009"><a xlink:title=" ">
<polygon fill="#e0e0e0" stroke="#999999" points="718.75,-129.75 653.25,-129.75 653.25,-110.5 718.75,-110.5 718.75,-129.75"/>
<text text-anchor="middle" x="686" y="-116.25" font-family="Helvetica,sans-Serif" font-size="10.00">TRandom.h</text>
</a>
</g>
</g>
<!-- Node2&#45;&gt;Node9 -->
<g id="edge8_Node000002_Node000009" class="edge">
<title>Node2&#45;&gt;Node9</title>
<g id="a_edge8_Node000002_Node000009"><a xlink:title=" ">
<path fill="none" stroke="#63b8ff" d="M774.85,-165.34C758.32,-157.12 733.66,-144.84 714.5,-135.31"/>
<polygon fill="#63b8ff" stroke="#63b8ff" points="716.11,-132.2 705.6,-130.88 712.99,-138.47 716.11,-132.2"/>
</a>
</g>
</g>
<!-- Node10 -->
<g id="Node000010" class="node">
<title>Node10</title>
<g id="a_Node000010"><a xlink:title=" ">
<polygon fill="#e0e0e0" stroke="#999999" points="783,-129.75 737,-129.75 737,-110.5 783,-110.5 783,-129.75"/>
<text text-anchor="middle" x="760" y="-116.25" font-family="Helvetica,sans-Serif" font-size="10.00">TList.h</text>
</a>
</g>
</g>
<!-- Node2&#45;&gt;Node10 -->
<g id="edge9_Node000002_Node000010" class="edge">
<title>Node2&#45;&gt;Node10</title>
<g id="a_edge9_Node000002_Node000010"><a xlink:title=" ">
<path fill="none" stroke="#63b8ff" d="M787.55,-165.58C783.23,-158.61 777.04,-148.62 771.62,-139.87"/>
<polygon fill="#63b8ff" stroke="#63b8ff" points="774.61,-138.05 766.36,-131.4 768.66,-141.74 774.61,-138.05"/>
</a>
</g>
</g>
<!-- Node11 -->
<g id="Node000011" class="node">
<title>Node11</title>
<g id="a_Node000011"><a xlink:title=" ">
<polygon fill="#e0e0e0" stroke="#999999" points="850.5,-129.75 801.5,-129.75 801.5,-110.5 850.5,-110.5 850.5,-129.75"/>
<text text-anchor="middle" x="826" y="-116.25" font-family="Helvetica,sans-Serif" font-size="10.00">TTree.h</text>
</a>
</g>
</g>
<!-- Node2&#45;&gt;Node11 -->
<g id="edge10_Node000002_Node000011" class="edge">
<title>Node2&#45;&gt;Node11</title>
<g id="a_edge10_Node000002_Node000011"><a xlink:title=" ">
<path fill="none" stroke="#63b8ff" d="M798.45,-165.58C802.77,-158.61 808.96,-148.62 814.38,-139.87"/>
<polygon fill="#63b8ff" stroke="#63b8ff" points="817.34,-141.74 819.64,-131.4 811.39,-138.05 817.34,-141.74"/>
</a>
</g>
</g>
<!-- Node12 -->
<g id="Node000012" class="node">
<title>Node12</title>
<g id="a_Node000012"><a xlink:title=" ">
<polygon fill="#e0e0e0" stroke="#999999" points="923.88,-129.75 868.12,-129.75 868.12,-110.5 923.88,-110.5 923.88,-129.75"/>
<text text-anchor="middle" x="896" y="-116.25" font-family="Helvetica,sans-Serif" font-size="10.00">TGraph.h</text>
</a>
</g>
</g>
<!-- Node2&#45;&gt;Node12 -->
<g id="edge11_Node000002_Node000012" class="edge">
<title>Node2&#45;&gt;Node12</title>
<g id="a_edge11_Node000002_Node000012"><a xlink:title=" ">
<path fill="none" stroke="#63b8ff" d="M810.47,-165.34C826.31,-157.16 849.91,-144.96 868.31,-135.44"/>
<polygon fill="#63b8ff" stroke="#63b8ff" points="869.82,-138.6 877.1,-130.9 866.61,-132.38 869.82,-138.6"/>
</a>
</g>
</g>
<!-- Node13 -->
<g id="Node000013" class="node">
<title>Node13</title>
<g id="a_Node000013"><a xlink:href="_t_mnemonic_8h.html" target="_top" xlink:title=" ">
<polygon fill="white" stroke="#666666" points="1016.25,-129.75 941.75,-129.75 941.75,-110.5 1016.25,-110.5 1016.25,-129.75"/>
<text text-anchor="middle" x="979" y="-116.25" font-family="Helvetica,sans-Serif" font-size="10.00">TMnemonic.h</text>
</a>
</g>
</g>
<!-- Node2&#45;&gt;Node13 -->
<g id="edge12_Node000002_Node000013" class="edge">
<title>Node2&#45;&gt;Node13</title>
<g id="a_edge12_Node000002_Node000013"><a xlink:title=" ">
<path fill="none" stroke="#63b8ff" d="M819.34,-165.34C848.48,-156.47 895.79,-142.87 931.42,-133.1"/>
<polygon fill="#63b8ff" stroke="#63b8ff" points="931.88,-136.61 940.61,-130.6 930.04,-129.85 931.88,-136.61"/>
</a>
</g>
</g>
<!-- Node2&#45;&gt;Node16 -->
<g id="edge40_Node000002_Node000016" class="edge">
<title>Node2&#45;&gt;Node16</title>
<g id="a_edge40_Node000002_Node000016"><a xlink:title=" ">
<path fill="none" stroke="#63b8ff" d="M760.38,-173.48C664.2,-170.5 386.74,-159.38 360,-129.75 343.74,-111.72 370.16,-92.55 394.25,-79.96"/>
<polygon fill="#63b8ff" stroke="#63b8ff" points="395.53,-83.24 402.95,-75.67 392.43,-76.96 395.53,-83.24"/>
</a>
</g>
</g>
<!-- Node31 -->
<g id="Node000031" class="node">
<title>Node31</title>
<g id="a_Node000031"><a xlink:href="_t_priority_value_8h.html" target="_top" xlink:title=" ">
<polygon fill="white" stroke="#666666" points="1115.12,-74.5 1030.88,-74.5 1030.88,-55.25 1115.12,-55.25 1115.12,-74.5"/>
<text text-anchor="middle" x="1073" y="-61" font-family="Helvetica,sans-Serif" font-size="10.00">TPriorityValue.h</text>
</a>
</g>
</g>
<!-- Node2&#45;&gt;Node31 -->
<g id="edge41_Node000002_Node000031" class="edge">
<title>Node2&#45;&gt;Node31</title>
<g id="a_edge41_Node000002_Node000031"><a xlink:title=" ">
<path fill="none" stroke="#63b8ff" d="M825.64,-175.25C873.12,-175.03 962.38,-168.85 1025,-129.75 1042.25,-118.98 1055.49,-99.59 1063.65,-84.99"/>
<polygon fill="#63b8ff" stroke="#63b8ff" points="1066.65,-86.81 1068.18,-76.32 1060.45,-83.56 1066.65,-86.81"/>
</a>
</g>
</g>
<!-- Node34 -->
<g id="Node000034" class="node">
<title>Node34</title>
<g id="a_Node000034"><a xlink:title=" ">
<polygon fill="#e0e0e0" stroke="#999999" points="438.62,-129.75 369.38,-129.75 369.38,-110.5 438.62,-110.5 438.62,-129.75"/>
<text text-anchor="middle" x="404" y="-116.25" font-family="Helvetica,sans-Serif" font-size="10.00">TClassRef.h</text>
</a>
</g>
</g>
<!-- Node2&#45;&gt;Node34 -->
<g id="edge39_Node000002_Node000034" class="edge">
<title>Node2&#45;&gt;Node34</title>
<g id="a_edge39_Node000002_Node000034"><a xlink:title=" ">
<path fill="none" stroke="#63b8ff" d="M760.45,-170.94C700.86,-164.49 569.99,-149.57 449.91,-130.13"/>
<polygon fill="#63b8ff" stroke="#63b8ff" points="450.62,-126.7 440.19,-128.54 449.49,-133.61 450.62,-126.7"/>
</a>
</g>
</g>
<!-- Node13&#45;&gt;Node2 -->
<g id="edge38_Node000013_Node000002" class="edge">
<title>Node13&#45;&gt;Node2</title>
<g id="a_edge38_Node000013_Node000002"><a xlink:title=" ">
<path fill="none" stroke="#63b8ff" d="M952.45,-130.22C922.15,-139.44 872.44,-153.71 836.5,-163.51"/>
<polygon fill="#63b8ff" stroke="#63b8ff" points="836.03,-160.02 827.29,-166.01 837.86,-166.77 836.03,-160.02"/>
</a>
</g>
</g>
<!-- Node13&#45;&gt;Node3 -->
<g id="edge14_Node000013_Node000003" class="edge">
<title>Node13&#45;&gt;Node3</title>
<g id="a_edge14_Node000013_Node000003"><a xlink:title=" ">
<path fill="none" stroke="#63b8ff" d="M941.4,-111.7C938.56,-111.25 935.74,-110.85 933,-110.5 692.61,-80.12 627.58,-116.82 389,-74.5 323.05,-62.8 248.67,-38.52 206.06,-23.49"/>
<polygon fill="#63b8ff" stroke="#63b8ff" points="207.45,-20.27 196.85,-20.21 205.1,-26.86 207.45,-20.27"/>
</a>
</g>
</g>
<!-- Node13&#45;&gt;Node4 -->
<g id="edge13_Node000013_Node000004" class="edge">
<title>Node13&#45;&gt;Node4</title>
<g id="a_edge13_Node000013_Node000004"><a xlink:title=" ">
<path fill="none" stroke="#63b8ff" d="M982.51,-110.16C988.46,-96.19 1001.86,-69.37 1022,-55.25 1073.16,-19.37 1099.51,-34.78 1163.67,-19.6"/>
<polygon fill="#63b8ff" stroke="#63b8ff" points="1164.46,-23.02 1173.28,-17.15 1162.73,-16.23 1164.46,-23.02"/>
</a>
</g>
</g>
<!-- Node14 -->
<g id="Node000014" class="node">
<title>Node14</title>
<g id="a_Node000014"><a xlink:title=" ">
<polygon fill="#e0e0e0" stroke="#999999" points="1157,-19.25 1099,-19.25 1099,0 1157,0 1157,-19.25"/>
<text text-anchor="middle" x="1128" y="-5.75" font-family="Helvetica,sans-Serif" font-size="10.00">TObject.h</text>
</a>
</g>
</g>
<!-- Node13&#45;&gt;Node14 -->
<g id="edge15_Node000013_Node000014" class="edge">
<title>Node13&#45;&gt;Node14</title>
<g id="a_edge15_Node000013_Node000014"><a xlink:title=" ">
<path fill="none" stroke="#63b8ff" d="M977.69,-110.09C976.27,-96.51 975.72,-70.77 989,-55.25 995.64,-47.49 1048.96,-31.83 1087.59,-21.28"/>
<polygon fill="#63b8ff" stroke="#63b8ff" points="1088.34,-24.7 1097.08,-18.71 1086.51,-17.94 1088.34,-24.7"/>
</a>
</g>
</g>
<!-- Node15 -->
<g id="Node000015" class="node">
<title>Node15</title>
<g id="a_Node000015"><a xlink:title=" ">
<polygon fill="#e0e0e0" stroke="#999999" points="937.12,-74.5 882.88,-74.5 882.88,-55.25 937.12,-55.25 937.12,-74.5"/>
<text text-anchor="middle" x="910" y="-61" font-family="Helvetica,sans-Serif" font-size="10.00">TClass.h</text>
</a>
</g>
</g>
<!-- Node13&#45;&gt;Node15 -->
<g id="edge16_Node000013_Node000015" class="edge">
<title>Node13&#45;&gt;Node15</title>
<g id="a_edge16_Node000013_Node000015"><a xlink:title=" ">
<path fill="none" stroke="#63b8ff" d="M967.3,-110.09C957.22,-102.32 942.46,-90.92 930.44,-81.65"/>
<polygon fill="#63b8ff" stroke="#63b8ff" points="932.79,-79.04 922.73,-75.7 928.51,-84.58 932.79,-79.04"/>
</a>
</g>
</g>
<!-- Node13&#45;&gt;Node16 -->
<g id="edge17_Node000013_Node000016" class="edge">
<title>Node13&#45;&gt;Node16</title>
<g id="a_edge17_Node000013_Node000016"><a xlink:title=" ">
<path fill="none" stroke="#63b8ff" d="M941.39,-111.76C938.56,-111.3 935.74,-110.88 933,-110.5 759.94,-86.72 551.8,-73.05 465.98,-68.06"/>
<polygon fill="#63b8ff" stroke="#63b8ff" points="466.39,-64.58 456.21,-67.5 465.99,-71.57 466.39,-64.58"/>
</a>
</g>
</g>
<!-- Node13&#45;&gt;Node31 -->
<g id="edge34_Node000013_Node000031" class="edge">
<title>Node13&#45;&gt;Node31</title>
<g id="a_edge34_Node000013_Node000031"><a xlink:title=" ">
<path fill="none" stroke="#63b8ff" d="M994.95,-110.09C1009.26,-101.98 1030.53,-89.93 1047.25,-80.46"/>
<polygon fill="#63b8ff" stroke="#63b8ff" points="1048.68,-83.67 1055.66,-75.7 1045.23,-77.58 1048.68,-83.67"/>
</a>
</g>
</g>
<!-- Node16&#45;&gt;Node3 -->
<g id="edge19_Node000016_Node000003" class="edge">
<title>Node16&#45;&gt;Node3</title>
<g id="a_edge19_Node000016_Node000003"><a xlink:title=" ">
<path fill="none" stroke="#63b8ff" d="M397.59,-58.41C357.72,-50.66 282.66,-35.84 208.96,-19.62"/>
<polygon fill="#63b8ff" stroke="#63b8ff" points="210.1,-16.29 199.58,-17.55 208.59,-23.13 210.1,-16.29"/>
</a>
</g>
</g>
<!-- Node16&#45;&gt;Node4 -->
<g id="edge22_Node000016_Node000004" class="edge">
<title>Node16&#45;&gt;Node4</title>
<g id="a_edge22_Node000016_Node000004"><a xlink:title=" ">
<path fill="none" stroke="#63b8ff" d="M454.65,-63.02C570.38,-59.45 1004.45,-44.76 1163.57,-19.2"/>
<polygon fill="#63b8ff" stroke="#63b8ff" points="1163.78,-22.71 1173.05,-17.59 1162.61,-15.81 1163.78,-22.71"/>
</a>
</g>
</g>
<!-- Node17 -->
<g id="Node000017" class="node">
<title>Node17</title>
<g id="a_Node000017"><a xlink:title=" ">
<polygon fill="#e0e0e0" stroke="#999999" points="417.62,-19.25 372.38,-19.25 372.38,0 417.62,0 417.62,-19.25"/>
<text text-anchor="middle" x="395" y="-5.75" font-family="Helvetica,sans-Serif" font-size="10.00">cstdint</text>
</a>
</g>
</g>
<!-- Node16&#45;&gt;Node17 -->
<g id="edge18_Node000016_Node000017" class="edge">
<title>Node16&#45;&gt;Node17</title>
<g id="a_edge18_Node000016_Node000017"><a xlink:title=" ">
<path fill="none" stroke="#63b8ff" d="M420.88,-55.08C416.82,-48.11 411.01,-38.12 405.91,-29.37"/>
<polygon fill="#63b8ff" stroke="#63b8ff" points="409.05,-27.8 400.99,-20.92 403,-31.32 409.05,-27.8"/>
</a>
</g>
</g>
<!-- Node16&#45;&gt;Node18 -->
<g id="edge20_Node000016_Node000018" class="edge">
<title>Node16&#45;&gt;Node18</title>
<g id="a_edge20_Node000016_Node000018"><a xlink:title=" ">
<path fill="none" stroke="#63b8ff" d="M454.39,-57.58C458.93,-56.71 463.58,-55.89 468,-55.25 647.54,-29.12 698.43,-49.27 880.52,-19.38"/>
<polygon fill="#63b8ff" stroke="#63b8ff" points="881.07,-22.84 890.35,-17.74 879.91,-15.94 881.07,-22.84"/>
</a>
</g>
</g>
<!-- Node16&#45;&gt;Node19 -->
<g id="edge21_Node000016_Node000019" class="edge">
<title>Node16&#45;&gt;Node19</title>
<g id="a_edge21_Node000016_Node000019"><a xlink:title=" ">
<path fill="none" stroke="#63b8ff" d="M397.47,-61.3C338.24,-55.75 197.46,-41.49 69.55,-19.54"/>
<polygon fill="#63b8ff" stroke="#63b8ff" points="70.34,-16.13 59.89,-17.86 69.14,-23.02 70.34,-16.13"/>
</a>
</g>
</g>
<!-- Node20 -->
<g id="Node000020" class="node">
<title>Node20</title>
<g id="a_Node000020"><a xlink:title=" ">
<polygon fill="#e0e0e0" stroke="#999999" points="478.12,-19.25 435.88,-19.25 435.88,0 478.12,0 478.12,-19.25"/>
<text text-anchor="middle" x="457" y="-5.75" font-family="Helvetica,sans-Serif" font-size="10.00">cstdio</text>
</a>
</g>
</g>
<!-- Node16&#45;&gt;Node20 -->
<g id="edge23_Node000016_Node000020" class="edge">
<title>Node16&#45;&gt;Node20</title>
<g id="a_edge23_Node000016_Node000020"><a xlink:title=" ">
<path fill="none" stroke="#63b8ff" d="M431.12,-55.08C435.18,-48.11 440.99,-38.12 446.09,-29.37"/>
<polygon fill="#63b8ff" stroke="#63b8ff" points="449,-31.32 451.01,-20.92 442.95,-27.8 449,-31.32"/>
</a>
</g>
</g>
<!-- Node21 -->
<g id="Node000021" class="node">
<title>Node21</title>
<g id="a_Node000021"><a xlink:title=" ">
<polygon fill="#e0e0e0" stroke="#999999" points="540.25,-19.25 495.75,-19.25 495.75,0 540.25,0 540.25,-19.25"/>
<text text-anchor="middle" x="518" y="-5.75" font-family="Helvetica,sans-Serif" font-size="10.00">cstdlib</text>
</a>
</g>
</g>
<!-- Node16&#45;&gt;Node21 -->
<g id="edge24_Node000016_Node000021" class="edge">
<title>Node16&#45;&gt;Node21</title>
<g id="a_edge24_Node000016_Node000021"><a xlink:title=" ">
<path fill="none" stroke="#63b8ff" d="M441.61,-54.84C455.62,-46.73 476.43,-34.68 492.8,-25.21"/>
<polygon fill="#63b8ff" stroke="#63b8ff" points="494.11,-28.5 501.01,-20.46 490.6,-22.44 494.11,-28.5"/>
</a>
</g>
</g>
<!-- Node22 -->
<g id="Node000022" class="node">
<title>Node22</title>
<g id="a_Node000022"><a xlink:title=" ">
<polygon fill="#e0e0e0" stroke="#999999" points="617.75,-19.25 558.25,-19.25 558.25,0 617.75,0 617.75,-19.25"/>
<text text-anchor="middle" x="588" y="-5.75" font-family="Helvetica,sans-Serif" font-size="10.00">execinfo.h</text>
</a>
</g>
</g>
<!-- Node16&#45;&gt;Node22 -->
<g id="edge25_Node000016_Node000022" class="edge">
<title>Node16&#45;&gt;Node22</title>
<g id="a_edge25_Node000016_Node000022"><a xlink:title=" ">
<path fill="none" stroke="#63b8ff" d="M453.48,-54.84C479.9,-46.16 520.06,-32.96 549.62,-23.24"/>
<polygon fill="#63b8ff" stroke="#63b8ff" points="550.54,-26.62 558.95,-20.18 548.35,-19.97 550.54,-26.62"/>
</a>
</g>
</g>
<!-- Node23 -->
<g id="Node000023" class="node">
<title>Node23</title>
<g id="a_Node000023"><a xlink:title=" ">
<polygon fill="#e0e0e0" stroke="#999999" points="686.25,-19.25 635.75,-19.25 635.75,0 686.25,0 686.25,-19.25"/>
<text text-anchor="middle" x="661" y="-5.75" font-family="Helvetica,sans-Serif" font-size="10.00">cxxabi.h</text>
</a>
</g>
</g>
<!-- Node16&#45;&gt;Node23 -->
<g id="edge26_Node000016_Node000023" class="edge">
<title>Node16&#45;&gt;Node23</title>
<g id="a_edge26_Node000016_Node000023"><a xlink:title=" ">
<path fill="none" stroke="#63b8ff" d="M454.69,-57.79C491.68,-49.88 558.29,-35.43 624.37,-19.82"/>
<polygon fill="#63b8ff" stroke="#63b8ff" points="625.01,-23.27 633.93,-17.56 623.39,-16.46 625.01,-23.27"/>
</a>
</g>
</g>
<!-- Node16&#45;&gt;Node24 -->
<g id="edge27_Node000016_Node000024" class="edge">
<title>Node16&#45;&gt;Node24</title>
<g id="a_edge27_Node000016_Node000024"><a xlink:title=" ">
<path fill="none" stroke="#63b8ff" d="M454.69,-63.48C539.52,-61.96 796.55,-54.68 1017.93,-19.49"/>
<polygon fill="#63b8ff" stroke="#63b8ff" points="1018.3,-22.98 1027.61,-17.93 1017.18,-16.07 1018.3,-22.98"/>
</a>
</g>
</g>
<!-- Node25 -->
<g id="Node000025" class="node">
<title>Node25</title>
<g id="a_Node000025"><a xlink:title=" ">
<polygon fill="#e0e0e0" stroke="#999999" points="741.5,-19.25 704.5,-19.25 704.5,0 741.5,0 741.5,-19.25"/>
<text text-anchor="middle" x="723" y="-5.75" font-family="Helvetica,sans-Serif" font-size="10.00">array</text>
</a>
</g>
</g>
<!-- Node16&#45;&gt;Node25 -->
<g id="edge28_Node000016_Node000025" class="edge">
<title>Node16&#45;&gt;Node25</title>
<g id="a_edge28_Node000016_Node000025"><a xlink:title=" ">
<path fill="none" stroke="#63b8ff" d="M454.43,-57.85C458.96,-56.95 463.61,-56.05 468,-55.25 564.97,-37.61 593.51,-41.99 692.96,-19.42"/>
<polygon fill="#63b8ff" stroke="#63b8ff" points="693.69,-22.84 702.65,-17.18 692.12,-16.02 693.69,-22.84"/>
</a>
</g>
</g>
<!-- Node26 -->
<g id="Node000026" class="node">
<title>Node26</title>
<g id="a_Node000026"><a xlink:title=" ">
<polygon fill="#e0e0e0" stroke="#999999" points="810.25,-19.25 759.75,-19.25 759.75,0 810.25,0 810.25,-19.25"/>
<text text-anchor="middle" x="785" y="-5.75" font-family="Helvetica,sans-Serif" font-size="10.00">memory</text>
</a>
</g>
</g>
<!-- Node16&#45;&gt;Node26 -->
<g id="edge29_Node000016_Node000026" class="edge">
<title>Node16&#45;&gt;Node26</title>
<g id="a_edge29_Node000016_Node000026"><a xlink:title=" ">
<path fill="none" stroke="#63b8ff" d="M454.41,-57.74C458.95,-56.85 463.59,-55.98 468,-55.25 589.11,-35.11 623.84,-41.98 748.34,-19.33"/>
<polygon fill="#63b8ff" stroke="#63b8ff" points="748.77,-22.81 757.97,-17.55 747.5,-15.93 748.77,-22.81"/>
</a>
</g>
</g>
<!-- Node16&#45;&gt;Node27 -->
<g id="edge30_Node000016_Node000027" class="edge">
<title>Node16&#45;&gt;Node27</title>
<g id="a_edge30_Node000016_Node000027"><a xlink:title=" ">
<path fill="none" stroke="#63b8ff" d="M397.34,-60.41C346.81,-54.1 238.4,-39.68 137.22,-19.53"/>
<polygon fill="#63b8ff" stroke="#63b8ff" points="138.17,-16.15 127.67,-17.6 136.78,-23.01 138.17,-16.15"/>
</a>
</g>
</g>
<!-- Node28 -->
<g id="Node000028" class="node">
<title>Node28</title>
<g id="a_Node000028"><a xlink:title=" ">
<polygon fill="#e0e0e0" stroke="#999999" points="874,-19.25 828,-19.25 828,0 874,0 874,-19.25"/>
<text text-anchor="middle" x="851" y="-5.75" font-family="Helvetica,sans-Serif" font-size="10.00">TEnv.h</text>
</a>
</g>
</g>
<!-- Node16&#45;&gt;Node28 -->
<g id="edge31_Node000016_Node000028" class="edge">
<title>Node16&#45;&gt;Node28</title>
<g id="a_edge31_Node000016_Node000028"><a xlink:title=" ">
<path fill="none" stroke="#63b8ff" d="M454.4,-57.64C458.93,-56.76 463.59,-55.93 468,-55.25 619.37,-32.01 662.77,-47.01 816.42,-19.44"/>
<polygon fill="#63b8ff" stroke="#63b8ff" points="816.99,-22.89 826.19,-17.65 815.73,-16.01 816.99,-22.89"/>
</a>
</g>
</g>
<!-- Node29 -->
<g id="Node000029" class="node">
<title>Node29</title>
<g id="a_Node000029"><a xlink:title=" ">
<polygon fill="#e0e0e0" stroke="#999999" points="275.75,-19.25 216.25,-19.25 216.25,0 275.75,0 275.75,-19.25"/>
<text text-anchor="middle" x="246" y="-5.75" font-family="Helvetica,sans-Serif" font-size="10.00">sys/wait.h</text>
</a>
</g>
</g>
<!-- Node16&#45;&gt;Node29 -->
<g id="edge32_Node000016_Node000029" class="edge">
<title>Node16&#45;&gt;Node29</title>
<g id="a_edge32_Node000016_Node000029"><a xlink:title=" ">
<path fill="none" stroke="#63b8ff" d="M397.48,-55.44C367.73,-46.64 320.82,-32.76 287.08,-22.78"/>
<polygon fill="#63b8ff" stroke="#63b8ff" points="288.22,-19.47 277.64,-19.99 286.24,-26.18 288.22,-19.47"/>
</a>
</g>
</g>
<!-- Node30 -->
<g id="Node000030" class="node">
<title>Node30</title>
<g id="a_Node000030"><a xlink:title=" ">
<polygon fill="#e0e0e0" stroke="#999999" points="354.12,-19.25 293.88,-19.25 293.88,0 354.12,0 354.12,-19.25"/>
<text text-anchor="middle" x="324" y="-5.75" font-family="Helvetica,sans-Serif" font-size="10.00">sys/prctl.h</text>
</a>
</g>
</g>
<!-- Node16&#45;&gt;Node30 -->
<g id="edge33_Node000016_Node000030" class="edge">
<title>Node16&#45;&gt;Node30</title>
<g id="a_edge33_Node000016_Node000030"><a xlink:title=" ">
<path fill="none" stroke="#63b8ff" d="M408.7,-54.84C393.02,-46.66 369.65,-34.46 351.42,-24.94"/>
<polygon fill="#63b8ff" stroke="#63b8ff" points="353.21,-21.93 342.73,-20.4 349.97,-28.13 353.21,-21.93"/>
</a>
</g>
</g>
<!-- Node31&#45;&gt;Node4 -->
<g id="edge36_Node000031_Node000004" class="edge">
<title>Node31&#45;&gt;Node4</title>
<g id="a_edge36_Node000031_Node000004"><a xlink:title=" ">
<path fill="none" stroke="#63b8ff" d="M1093.7,-54.84C1113,-46.41 1142.06,-33.73 1164.11,-24.11"/>
<polygon fill="#63b8ff" stroke="#63b8ff" points="1165.46,-27.34 1173.22,-20.13 1162.66,-20.92 1165.46,-27.34"/>
</a>
</g>
</g>
<!-- Node32 -->
<g id="Node000032" class="node">
<title>Node32</title>
<g id="a_Node000032"><a xlink:title=" ">
<polygon fill="#e0e0e0" stroke="#999999" points="1011.62,-19.25 960.38,-19.25 960.38,0 1011.62,0 1011.62,-19.25"/>
<text text-anchor="middle" x="986" y="-5.75" font-family="Helvetica,sans-Serif" font-size="10.00">ostream</text>
</a>
</g>
</g>
<!-- Node31&#45;&gt;Node32 -->
<g id="edge35_Node000031_Node000032" class="edge">
<title>Node31&#45;&gt;Node32</title>
<g id="a_edge35_Node000031_Node000032"><a xlink:title=" ">
<path fill="none" stroke="#63b8ff" d="M1058.24,-54.84C1045.12,-46.81 1025.68,-34.91 1010.27,-25.48"/>
<polygon fill="#63b8ff" stroke="#63b8ff" points="1012.48,-22.73 1002.12,-20.49 1008.82,-28.7 1012.48,-22.73"/>
</a>
</g>
</g>
<!-- Node31&#45;&gt;Node33 -->
<g id="edge37_Node000031_Node000033" class="edge">
<title>Node31&#45;&gt;Node33</title>
<g id="a_edge37_Node000031_Node000033"><a xlink:title=" ">
<path fill="none" stroke="#63b8ff" d="M1115.52,-60.65C1223.93,-52.37 1506.96,-30.32 1583.1,-19.24"/>
<polygon fill="#63b8ff" stroke="#63b8ff" points="1583.36,-22.74 1592.67,-17.68 1582.23,-15.84 1583.36,-22.74"/>
</a>
</g>
</g>
<!-- Node41&#45;&gt;Node4 -->
<g id="edge61_Node000041_Node000004" class="edge">
<title>Node41&#45;&gt;Node4</title>
<g id="a_edge61_Node000041_Node000004"><a xlink:title=" ">
<path fill="none" stroke="#63b8ff" d="M1247.31,-54.84C1238.3,-47.22 1225.17,-36.12 1214.32,-26.95"/>
<polygon fill="#63b8ff" stroke="#63b8ff" points="1216.58,-24.28 1206.69,-20.5 1212.06,-29.63 1216.58,-24.28"/>
</a>
</g>
</g>
<!-- Node41&#45;&gt;Node14 -->
<g id="edge63_Node000041_Node000014" class="edge">
<title>Node41&#45;&gt;Node14</title>
<g id="a_edge63_Node000041_Node000014"><a xlink:title=" ">
<path fill="none" stroke="#63b8ff" d="M1235.95,-54.84C1215.31,-46.39 1184.22,-33.65 1160.7,-24.02"/>
<polygon fill="#63b8ff" stroke="#63b8ff" points="1162.14,-20.83 1151.56,-20.28 1159.49,-27.31 1162.14,-20.83"/>
</a>
</g>
</g>
<!-- Node41&#45;&gt;Node18 -->
<g id="edge60_Node000041_Node000018" class="edge">
<title>Node41&#45;&gt;Node18</title>
<g id="a_edge60_Node000041_Node000018"><a xlink:title=" ">
<path fill="none" stroke="#63b8ff" d="M1209.08,-58.36C1150.53,-51.4 1049.32,-38.27 953.27,-19.52"/>
<polygon fill="#63b8ff" stroke="#63b8ff" points="954.16,-16.13 943.67,-17.62 952.8,-22.99 954.16,-16.13"/>
</a>
</g>
</g>
<!-- Node41&#45;&gt;Node24 -->
<g id="edge59_Node000041_Node000024" class="edge">
<title>Node41&#45;&gt;Node24</title>
<g id="a_edge59_Node000041_Node000024"><a xlink:title=" ">
<path fill="none" stroke="#63b8ff" d="M1223.56,-54.84C1186.97,-45.24 1129.31,-30.12 1091.83,-20.29"/>
<polygon fill="#63b8ff" stroke="#63b8ff" points="1092.91,-16.95 1082.35,-17.8 1091.14,-23.72 1092.91,-16.95"/>
</a>
</g>
</g>
<!-- Node42 -->
<g id="Node000042" class="node">
<title>Node42</title>
<g id="a_Node000042"><a xlink:title=" ">
<polygon fill="#e0e0e0" stroke="#999999" points="1278.62,-19.25 1233.38,-19.25 1233.38,0 1278.62,0 1278.62,-19.25"/>
<text text-anchor="middle" x="1256" y="-5.75" font-family="Helvetica,sans-Serif" font-size="10.00">atomic</text>
</a>
</g>
</g>
<!-- Node41&#45;&gt;Node42 -->
<g id="edge56_Node000041_Node000042" class="edge">
<title>Node41&#45;&gt;Node42</title>
<g id="a_edge56_Node000041_Node000042"><a xlink:title=" ">
<path fill="none" stroke="#63b8ff" d="M1257.67,-55.08C1257.42,-48.49 1257.07,-39.21 1256.76,-30.82"/>
<polygon fill="#63b8ff" stroke="#63b8ff" points="1260.27,-30.98 1256.39,-21.12 1253.27,-31.25 1260.27,-30.98"/>
</a>
</g>
</g>
<!-- Node43 -->
<g id="Node000043" class="node">
<title>Node43</title>
<g id="a_Node000043"><a xlink:title=" ">
<polygon fill="#e0e0e0" stroke="#999999" points="1391,-19.25 1297,-19.25 1297,0 1391,0 1391,-19.25"/>
<text text-anchor="middle" x="1344" y="-5.75" font-family="Helvetica,sans-Serif" font-size="10.00">condition_variable</text>
</a>
</g>
</g>
<!-- Node41&#45;&gt;Node43 -->
<g id="edge57_Node000041_Node000043" class="edge">
<title>Node41&#45;&gt;Node43</title>
<g id="a_edge57_Node000041_Node000043"><a xlink:title=" ">
<path fill="none" stroke="#63b8ff" d="M1272.59,-54.84C1285.44,-46.89 1304.41,-35.14 1319.57,-25.75"/>
<polygon fill="#63b8ff" stroke="#63b8ff" points="1321.39,-28.74 1328.05,-20.5 1317.71,-22.79 1321.39,-28.74"/>
</a>
</g>
</g>
<!-- Node44 -->
<g id="Node000044" class="node">
<title>Node44</title>
<g id="a_Node000044"><a xlink:title=" ">
<polygon fill="#e0e0e0" stroke="#999999" points="1452.5,-19.25 1409.5,-19.25 1409.5,0 1452.5,0 1452.5,-19.25"/>
<text text-anchor="middle" x="1431" y="-5.75" font-family="Helvetica,sans-Serif" font-size="10.00">thread</text>
</a>
</g>
</g>
<!-- Node41&#45;&gt;Node44 -->
<g id="edge58_Node000041_Node000044" class="edge">
<title>Node41&#45;&gt;Node44</title>
<g id="a_edge58_Node000041_Node000044"><a xlink:title=" ">
<path fill="none" stroke="#63b8ff" d="M1287.35,-54.84C1318.08,-45.38 1366.25,-30.56 1398.21,-20.72"/>
<polygon fill="#63b8ff" stroke="#63b8ff" points="1399.22,-24.07 1407.75,-17.78 1397.16,-17.38 1399.22,-24.07"/>
</a>
</g>
</g>
<!-- Node45 -->
<g id="Node000045" class="node">
<title>Node45</title>
<g id="a_Node000045"><a xlink:title=" ">
<polygon fill="#e0e0e0" stroke="#999999" points="1505.38,-19.25 1470.62,-19.25 1470.62,0 1505.38,0 1505.38,-19.25"/>
<text text-anchor="middle" x="1488" y="-5.75" font-family="Helvetica,sans-Serif" font-size="10.00">map</text>
</a>
</g>
</g>
<!-- Node41&#45;&gt;Node45 -->
<g id="edge62_Node000041_Node000045" class="edge">
<title>Node41&#45;&gt;Node45</title>
<g id="a_edge62_Node000041_Node000045"><a xlink:title=" ">
<path fill="none" stroke="#63b8ff" d="M1306.16,-54.82C1345.2,-47.15 1401.84,-35.28 1459.1,-19.84"/>
<polygon fill="#63b8ff" stroke="#63b8ff" points="1459.99,-23.23 1468.71,-17.21 1458.14,-16.47 1459.99,-23.23"/>
</a>
</g>
</g>
<!-- Node46&#45;&gt;Node4 -->
<g id="edge67_Node000046_Node000004" class="edge">
<title>Node46&#45;&gt;Node4</title>
<g id="a_edge67_Node000046_Node000004"><a xlink:title=" ">
<path fill="none" stroke="#63b8ff" d="M1476.48,-110.04C1458.3,-96.16 1421.38,-69.75 1386,-55.25 1320.96,-28.58 1297.59,-36.87 1226.13,-19.58"/>
<polygon fill="#63b8ff" stroke="#63b8ff" points="1227.25,-16.26 1216.7,-17.21 1225.54,-23.04 1227.25,-16.26"/>
</a>
</g>
</g>
<!-- Node46&#45;&gt;Node33 -->
<g id="edge68_Node000046_Node000033" class="edge">
<title>Node46&#45;&gt;Node33</title>
<g id="a_edge68_Node000046_Node000033"><a xlink:title=" ">
<path fill="none" stroke="#63b8ff" d="M1498.47,-110.25C1519.95,-92.05 1569.23,-50.27 1596.67,-27.01"/>
<polygon fill="#63b8ff" stroke="#63b8ff" points="1598.86,-29.74 1604.23,-20.61 1594.33,-24.4 1598.86,-29.74"/>
</a>
</g>
</g>
<!-- Node46&#45;&gt;Node35 -->
<g id="edge66_Node000046_Node000035" class="edge">
<title>Node46&#45;&gt;Node35</title>
<g id="a_edge66_Node000046_Node000035"><a xlink:title=" ">
<path fill="none" stroke="#63b8ff" d="M1464.93,-110.09C1443.24,-101.6 1410.52,-88.79 1385.87,-79.14"/>
<polygon fill="#63b8ff" stroke="#63b8ff" points="1387.18,-75.89 1376.59,-75.5 1384.63,-82.41 1387.18,-75.89"/>
</a>
</g>
</g>
<!-- Node47 -->
<g id="Node000047" class="node">
<title>Node47</title>
<g id="a_Node000047"><a xlink:href="_t_g_r_s_i_types_8h.html" target="_top" xlink:title=" ">
<polygon fill="white" stroke="#666666" points="1527.88,-74.5 1448.12,-74.5 1448.12,-55.25 1527.88,-55.25 1527.88,-74.5"/>
<text text-anchor="middle" x="1488" y="-61" font-family="Helvetica,sans-Serif" font-size="10.00">TGRSITypes.h</text>
</a>
</g>
</g>
<!-- Node46&#45;&gt;Node47 -->
<g id="edge69_Node000046_Node000047" class="edge">
<title>Node46&#45;&gt;Node47</title>
<g id="a_edge69_Node000046_Node000047"><a xlink:title=" ">
<path fill="none" stroke="#63b8ff" d="M1488,-110.33C1488,-103.82 1488,-94.67 1488,-86.37"/>
<polygon fill="#63b8ff" stroke="#63b8ff" points="1491.5,-86.37 1488,-76.37 1484.5,-86.37 1491.5,-86.37"/>
</a>
</g>
</g>
<!-- Node47&#45;&gt;Node4 -->
<g id="edge71_Node000047_Node000004" class="edge">
<title>Node47&#45;&gt;Node4</title>
<g id="a_edge71_Node000047_Node000004"><a xlink:title=" ">
<path fill="none" stroke="#63b8ff" d="M1447.75,-57.69C1388.96,-48.55 1281.38,-31.44 1226.15,-19.45"/>
<polygon fill="#63b8ff" stroke="#63b8ff" points="1227.2,-16.1 1216.67,-17.31 1225.66,-22.93 1227.2,-16.1"/>
</a>
</g>
</g>
<!-- Node47&#45;&gt;Node45 -->
<g id="edge70_Node000047_Node000045" class="edge">
<title>Node47&#45;&gt;Node45</title>
<g id="a_edge70_Node000047_Node000045"><a xlink:title=" ">
<path fill="none" stroke="#63b8ff" d="M1488,-55.08C1488,-48.57 1488,-39.42 1488,-31.12"/>
<polygon fill="#63b8ff" stroke="#63b8ff" points="1491.5,-31.12 1488,-21.12 1484.5,-31.12 1491.5,-31.12"/>
</a>
</g>
</g>
<!-- Node48 -->
<g id="Node000048" class="node">
<title>Node48</title>
<g id="a_Node000048"><a xlink:title=" ">
<polygon fill="#e0e0e0" stroke="#999999" points="1576.75,-19.25 1523.25,-19.25 1523.25,0 1576.75,0 1576.75,-19.25"/>
<text text-anchor="middle" x="1550" y="-5.75" font-family="Helvetica,sans-Serif" font-size="10.00">Rtypes.h</text>
</a>
</g>
</g>
<!-- Node47&#45;&gt;Node48 -->
<g id="edge72_Node000047_Node000048" class="edge">
<title>Node47&#45;&gt;Node48</title>
<g id="a_edge72_Node000047_Node000048"><a xlink:title=" ">
<path fill="none" stroke="#63b8ff" d="M1498.52,-54.84C1507.39,-47.22 1520.31,-36.12 1530.99,-26.95"/>
<polygon fill="#63b8ff" stroke="#63b8ff" points="1533.18,-29.68 1538.49,-20.51 1528.62,-24.37 1533.18,-29.68"/>
</a>
</g>
</g>
</g>
</svg>
