<?xml version="1.0" encoding="UTF-8" standalone="no"?>
<!DOCTYPE svg PUBLIC "-//W3C//DTD SVG 1.1//EN"
 "http://www.w3.org/Graphics/SVG/1.1/DTD/svg11.dtd">
<!-- Generated by graphviz version 12.2.0 (20241103.1931)
 -->
<!-- Title: TCFDCal.cxx Pages: 1 -->
<!--zoomable 304 -->

<svg id="main" version="1.1" xmlns="http://www.w3.org/2000/svg" xmlns:xlink="http://www.w3.org/1999/xlink" xml:space="preserve" onload="init(evt)">

<style type="text/css"><![CDATA[
.node, .edge {opacity: 0.7;}
.node.selected, .edge.selected {opacity: 1;}
.edge:hover path { stroke: red; }
.edge:hover polygon { stroke: red; fill: red; }
]]></style>

<defs>
  <circle id="rim" cx="0" cy="0" r="7"/>
  <circle id="rim2" cx="0" cy="0" r="3.5"/>
  <g id="zoomPlus">
    <use xlink:href="#rim" fill="#404040"><set attributeName="fill" to="#808080" begin="zoomplus.mouseover" end="zoomplus.mouseout"/></use>
    <path d="M-4,0h8M0,-4v8" fill="none" stroke="white" stroke-width="1.5" pointer-events="none"/>
  </g>
  <g id="zoomMin">
    <use xlink:href="#rim" fill="#404040"><set attributeName="fill" to="#808080" begin="zoomminus.mouseover" end="zoomminus.mouseout"/></use>
    <path d="M-4,0h8" fill="none" stroke="white" stroke-width="1.5" pointer-events="none"/>
  </g>
  <g id="arrowUp" transform="translate(30 24)">
    <use xlink:href="#rim"/>
    <path pointer-events="none" fill="none" stroke="white" stroke-width="1.5" d="M0,-3.0v7 M-2.5,-0.5L0,-3.0L2.5,-0.5"/>
  </g>
  <g id="arrowRight" transform="rotate(90) translate(36 -43)">
    <use xlink:href="#rim"/>
    <path pointer-events="none" fill="none" stroke="white" stroke-width="1.5" d="M0,-3.0v7 M-2.5,-0.5L0,-3.0L2.5,-0.5"/>
  </g>
  <g id="arrowDown" transform="rotate(180) translate(-30 -48)">
    <use xlink:href="#rim"/>
    <path pointer-events="none" fill="none" stroke="white" stroke-width="1.5" d="M0,-3.0v7 M-2.5,-0.5L0,-3.0L2.5,-0.5"/>
  </g>
  <g id="arrowLeft" transform="rotate(270) translate(-36 17)">
    <use xlink:href="#rim"/>
    <path pointer-events="none" fill="none" stroke="white" stroke-width="1.5" d="M0,-3.0v7 M-2.5,-0.5L0,-3.0L2.5,-0.5"/>
  </g>
  <g id="resetDef">
    <use xlink:href="#rim2" fill="#404040"><set attributeName="fill" to="#808080" begin="reset.mouseover" end="reset.mouseout"/></use>
  </g>
</defs>
<script type="application/ecmascript">
var viewWidth = 1137;
var viewHeight = 304;
var sectionId = 'dynsection-0';
</script>
<script type="application/ecmascript" xlink:href="svg.min.js"/>
<svg id="graph" class="graph">
<g id="viewport">
<title>TCFDCal.cxx</title>
<!-- Node1 -->
<g id="Node000001" class="node">
<title>Node1</title>
<g id="a_Node000001"><a xlink:title=" ">
<polygon fill="#999999" stroke="#666666" points="156.65,-295.5 84.4,-295.5 84.4,-276.25 156.65,-276.25 156.65,-295.5"/>
<text text-anchor="middle" x="120.52" y="-282" font-family="Helvetica,sans-Serif" font-size="10.00">TCFDCal.cxx</text>
</a>
</g>
</g>
<!-- Node2 -->
<g id="Node000002" class="node">
<title>Node2</title>
<g id="a_Node000002"><a xlink:title=" ">
<polygon fill="#e0e0e0" stroke="#999999" points="76.77,-74.5 38.27,-74.5 38.27,-55.25 76.77,-55.25 76.77,-74.5"/>
<text text-anchor="middle" x="57.52" y="-61" font-family="Helvetica,sans-Serif" font-size="10.00">utility</text>
</a>
</g>
</g>
<!-- Node1&#45;&gt;Node2 -->
<g id="edge1_Node000001_Node000002" class="edge">
<title>Node1&#45;&gt;Node2</title>
<g id="a_edge1_Node000001_Node000002"><a xlink:title=" ">
<path fill="none" stroke="#63b8ff" d="M110.27,-276.05C85.81,-254.24 24.47,-194.84 2.52,-129.75 -0.21,-121.64 -1.16,-118.22 2.52,-110.5 8.35,-98.26 19.36,-88.29 30.01,-80.9"/>
<polygon fill="#63b8ff" stroke="#63b8ff" points="31.69,-83.98 38.25,-75.66 27.93,-78.07 31.69,-83.98"/>
</a>
</g>
</g>
<!-- Node3 -->
<g id="Node000003" class="node">
<title>Node3</title>
<g id="a_Node000003"><a xlink:href="_t_c_f_d_cal_8h.html" target="_top" xlink:title=" ">
<polygon fill="white" stroke="#666666" points="269.15,-240.25 205.9,-240.25 205.9,-221 269.15,-221 269.15,-240.25"/>
<text text-anchor="middle" x="237.52" y="-226.75" font-family="Helvetica,sans-Serif" font-size="10.00">TCFDCal.h</text>
</a>
</g>
</g>
<!-- Node1&#45;&gt;Node3 -->
<g id="edge2_Node000001_Node000003" class="edge">
<title>Node1&#45;&gt;Node3</title>
<g id="a_edge2_Node000001_Node000003"><a xlink:title=" ">
<path fill="none" stroke="#63b8ff" d="M140.37,-275.84C158.69,-267.5 186.17,-255 207.23,-245.41"/>
<polygon fill="#63b8ff" stroke="#63b8ff" points="208.55,-248.66 216.2,-241.33 205.65,-242.29 208.55,-248.66"/>
</a>
</g>
</g>
<!-- Node4 -->
<g id="Node000004" class="node">
<title>Node4</title>
<g id="a_Node000004"><a xlink:href="_t_cal_8h.html" target="_top" xlink:title=" ">
<polygon fill="white" stroke="#666666" points="328.4,-185 284.65,-185 284.65,-165.75 328.4,-165.75 328.4,-185"/>
<text text-anchor="middle" x="306.52" y="-171.5" font-family="Helvetica,sans-Serif" font-size="10.00">TCal.h</text>
</a>
</g>
</g>
<!-- Node3&#45;&gt;Node4 -->
<g id="edge3_Node000003_Node000004" class="edge">
<title>Node3&#45;&gt;Node4</title>
<g id="a_edge3_Node000003_Node000004"><a xlink:title=" ">
<path fill="none" stroke="#63b8ff" d="M249.23,-220.59C259.3,-212.82 274.07,-201.42 286.08,-192.15"/>
<polygon fill="#63b8ff" stroke="#63b8ff" points="288.01,-195.08 293.79,-186.2 283.74,-189.54 288.01,-195.08"/>
</a>
</g>
</g>
<!-- Node5 -->
<g id="Node000005" class="node">
<title>Node5</title>
<g id="a_Node000005"><a xlink:title=" ">
<polygon fill="#e0e0e0" stroke="#999999" points="791.02,-19.25 748.02,-19.25 748.02,0 791.02,0 791.02,-19.25"/>
<text text-anchor="middle" x="769.52" y="-5.75" font-family="Helvetica,sans-Serif" font-size="10.00">vector</text>
</a>
</g>
</g>
<!-- Node4&#45;&gt;Node5 -->
<g id="edge4_Node000004_Node000005" class="edge">
<title>Node4&#45;&gt;Node5</title>
<g id="a_edge4_Node000004_Node000005"><a xlink:title=" ">
<path fill="none" stroke="#63b8ff" d="M328.7,-173.47C418.07,-169.68 751.91,-154.16 854.52,-129.75 917.99,-114.65 954.09,-128.62 990.52,-74.5 995.3,-67.4 995.94,-61.87 990.52,-55.25 967.14,-26.67 858.2,-15.98 802.5,-12.33"/>
<polygon fill="#63b8ff" stroke="#63b8ff" points="802.86,-8.85 792.67,-11.73 802.44,-15.83 802.86,-8.85"/>
</a>
</g>
</g>
<!-- Node6 -->
<g id="Node000006" class="node">
<title>Node6</title>
<g id="a_Node000006"><a xlink:title=" ">
<polygon fill="#e0e0e0" stroke="#999999" points="53.65,-129.75 11.4,-129.75 11.4,-110.5 53.65,-110.5 53.65,-129.75"/>
<text text-anchor="middle" x="32.52" y="-116.25" font-family="Helvetica,sans-Serif" font-size="10.00">TH1.h</text>
</a>
</g>
</g>
<!-- Node4&#45;&gt;Node6 -->
<g id="edge5_Node000004_Node000006" class="edge">
<title>Node4&#45;&gt;Node6</title>
<g id="a_edge5_Node000004_Node000006"><a xlink:title=" ">
<path fill="none" stroke="#63b8ff" d="M284.27,-170.97C243.1,-164.54 152.07,-149.63 65.25,-129.96"/>
<polygon fill="#63b8ff" stroke="#63b8ff" points="66.14,-126.57 55.62,-127.74 64.58,-133.39 66.14,-126.57"/>
</a>
</g>
</g>
<!-- Node7 -->
<g id="Node000007" class="node">
<title>Node7</title>
<g id="a_Node000007"><a xlink:title=" ">
<polygon fill="#e0e0e0" stroke="#999999" points="112.9,-129.75 72.15,-129.75 72.15,-110.5 112.9,-110.5 112.9,-129.75"/>
<text text-anchor="middle" x="92.52" y="-116.25" font-family="Helvetica,sans-Serif" font-size="10.00">TF1.h</text>
</a>
</g>
</g>
<!-- Node4&#45;&gt;Node7 -->
<g id="edge6_Node000004_Node000007" class="edge">
<title>Node4&#45;&gt;Node7</title>
<g id="a_edge6_Node000004_Node000007"><a xlink:title=" ">
<path fill="none" stroke="#63b8ff" d="M284.22,-169.39C251.26,-161.95 187.4,-147.19 124.33,-130.41"/>
<polygon fill="#63b8ff" stroke="#63b8ff" points="125.42,-127.08 114.86,-127.87 123.61,-133.84 125.42,-127.08"/>
</a>
</g>
</g>
<!-- Node8 -->
<g id="Node000008" class="node">
<title>Node8</title>
<g id="a_Node000008"><a xlink:title=" ">
<polygon fill="#e0e0e0" stroke="#999999" points="202.27,-129.75 130.77,-129.75 130.77,-110.5 202.27,-110.5 202.27,-129.75"/>
<text text-anchor="middle" x="166.52" y="-116.25" font-family="Helvetica,sans-Serif" font-size="10.00">TSpectrum.h</text>
</a>
</g>
</g>
<!-- Node4&#45;&gt;Node8 -->
<g id="edge7_Node000004_Node000008" class="edge">
<title>Node4&#45;&gt;Node8</title>
<g id="a_edge7_Node000004_Node000008"><a xlink:title=" ">
<path fill="none" stroke="#63b8ff" d="M284.34,-165.94C261.94,-157.42 227.03,-144.14 201.02,-134.25"/>
<polygon fill="#63b8ff" stroke="#63b8ff" points="202.48,-131.06 191.89,-130.77 200,-137.6 202.48,-131.06"/>
</a>
</g>
</g>
<!-- Node9 -->
<g id="Node000009" class="node">
<title>Node9</title>
<g id="a_Node000009"><a xlink:title=" ">
<polygon fill="#e0e0e0" stroke="#999999" points="296.9,-129.75 220.15,-129.75 220.15,-110.5 296.9,-110.5 296.9,-129.75"/>
<text text-anchor="middle" x="258.52" y="-116.25" font-family="Helvetica,sans-Serif" font-size="10.00">TMultiGraph.h</text>
</a>
</g>
</g>
<!-- Node4&#45;&gt;Node9 -->
<g id="edge8_Node000004_Node000009" class="edge">
<title>Node4&#45;&gt;Node9</title>
<g id="a_edge8_Node000004_Node000009"><a xlink:title=" ">
<path fill="none" stroke="#63b8ff" d="M298.6,-165.58C291.97,-158.23 282.31,-147.51 274.13,-138.44"/>
<polygon fill="#63b8ff" stroke="#63b8ff" points="276.93,-136.32 267.63,-131.23 271.73,-141 276.93,-136.32"/>
</a>
</g>
</g>
<!-- Node10 -->
<g id="Node000010" class="node">
<title>Node10</title>
<g id="a_Node000010"><a xlink:title=" ">
<polygon fill="#e0e0e0" stroke="#999999" points="396.15,-129.75 314.9,-129.75 314.9,-110.5 396.15,-110.5 396.15,-129.75"/>
<text text-anchor="middle" x="355.52" y="-116.25" font-family="Helvetica,sans-Serif" font-size="10.00">TGraphErrors.h</text>
</a>
</g>
</g>
<!-- Node4&#45;&gt;Node10 -->
<g id="edge9_Node000004_Node000010" class="edge">
<title>Node4&#45;&gt;Node10</title>
<g id="a_edge9_Node000004_Node000010"><a xlink:title=" ">
<path fill="none" stroke="#63b8ff" d="M314.61,-165.58C321.38,-158.23 331.24,-147.51 339.59,-138.44"/>
<polygon fill="#63b8ff" stroke="#63b8ff" points="342.04,-140.95 346.23,-131.22 336.88,-136.21 342.04,-140.95"/>
</a>
</g>
</g>
<!-- Node11 -->
<g id="Node000011" class="node">
<title>Node11</title>
<g id="a_Node000011"><a xlink:title=" ">
<polygon fill="#e0e0e0" stroke="#999999" points="458.77,-129.75 414.27,-129.75 414.27,-110.5 458.77,-110.5 458.77,-129.75"/>
<text text-anchor="middle" x="436.52" y="-116.25" font-family="Helvetica,sans-Serif" font-size="10.00">TRef.h</text>
</a>
</g>
</g>
<!-- Node4&#45;&gt;Node11 -->
<g id="edge10_Node000004_Node000011" class="edge">
<title>Node4&#45;&gt;Node11</title>
<g id="a_edge10_Node000004_Node000011"><a xlink:title=" ">
<path fill="none" stroke="#63b8ff" d="M328.58,-165.34C349.21,-156.89 380.3,-144.15 403.83,-134.52"/>
<polygon fill="#63b8ff" stroke="#63b8ff" points="405.03,-137.81 412.96,-130.78 402.38,-131.33 405.03,-137.81"/>
</a>
</g>
</g>
<!-- Node12 -->
<g id="Node000012" class="node">
<title>Node12</title>
<g id="a_Node000012"><a xlink:href="_t_channel_8h.html" target="_top" xlink:title=" ">
<polygon fill="white" stroke="#666666" points="541.9,-129.75 477.15,-129.75 477.15,-110.5 541.9,-110.5 541.9,-129.75"/>
<text text-anchor="middle" x="509.52" y="-116.25" font-family="Helvetica,sans-Serif" font-size="10.00">TChannel.h</text>
</a>
</g>
</g>
<!-- Node4&#45;&gt;Node12 -->
<g id="edge11_Node000004_Node000012" class="edge">
<title>Node4&#45;&gt;Node12</title>
<g id="a_edge11_Node000004_Node000012"><a xlink:title=" ">
<path fill="none" stroke="#63b8ff" d="M328.63,-168.57C361.39,-159.98 423.48,-143.7 465.68,-132.63"/>
<polygon fill="#63b8ff" stroke="#63b8ff" points="466.49,-136.03 475.28,-130.11 464.72,-129.26 466.49,-136.03"/>
</a>
</g>
</g>
<!-- Node22 -->
<g id="Node000022" class="node">
<title>Node22</title>
<g id="a_Node000022"><a xlink:href="_t_nucleus_8h.html" target="_top" xlink:title=" ">
<polygon fill="white" stroke="#666666" points="845.27,-129.75 779.77,-129.75 779.77,-110.5 845.27,-110.5 845.27,-129.75"/>
<text text-anchor="middle" x="812.52" y="-116.25" font-family="Helvetica,sans-Serif" font-size="10.00">TNucleus.h</text>
</a>
</g>
</g>
<!-- Node4&#45;&gt;Node22 -->
<g id="edge24_Node000004_Node000022" class="edge">
<title>Node4&#45;&gt;Node22</title>
<g id="a_edge24_Node000004_Node000022"><a xlink:title=" ">
<path fill="none" stroke="#63b8ff" d="M328.59,-172.05C405.61,-163.95 663.46,-136.81 767.96,-125.81"/>
<polygon fill="#63b8ff" stroke="#63b8ff" points="768.26,-129.3 777.84,-124.78 767.53,-122.34 768.26,-129.3"/>
</a>
</g>
</g>
<!-- Node12&#45;&gt;Node2 -->
<g id="edge14_Node000012_Node000002" class="edge">
<title>Node12&#45;&gt;Node2</title>
<g id="a_edge14_Node000012_Node000002"><a xlink:title=" ">
<path fill="none" stroke="#63b8ff" d="M477.02,-112.12C473.82,-111.53 470.61,-110.98 467.52,-110.5 316.04,-87.05 276.77,-92.29 124.52,-74.5 112.68,-73.12 99.67,-71.47 88.3,-69.99"/>
<polygon fill="#63b8ff" stroke="#63b8ff" points="89.02,-66.56 78.65,-68.72 88.11,-73.5 89.02,-66.56"/>
</a>
</g>
</g>
<!-- Node13 -->
<g id="Node000013" class="node">
<title>Node13</title>
<g id="a_Node000013"><a xlink:title=" ">
<polygon fill="#e0e0e0" stroke="#999999" points="494.52,-19.25 454.52,-19.25 454.52,0 494.52,0 494.52,-19.25"/>
<text text-anchor="middle" x="474.52" y="-5.75" font-family="Helvetica,sans-Serif" font-size="10.00">string</text>
</a>
</g>
</g>
<!-- Node12&#45;&gt;Node13 -->
<g id="edge12_Node000012_Node000013" class="edge">
<title>Node12&#45;&gt;Node13</title>
<g id="a_edge12_Node000012_Node000013"><a xlink:title=" ">
<path fill="none" stroke="#63b8ff" d="M506.19,-110.28C502.85,-101.32 497.62,-87.01 493.52,-74.5 488.71,-59.82 483.75,-43.08 480.11,-30.42"/>
<polygon fill="#63b8ff" stroke="#63b8ff" points="483.47,-29.47 477.37,-20.81 476.74,-31.38 483.47,-29.47"/>
</a>
</g>
</g>
<!-- Node14 -->
<g id="Node000014" class="node">
<title>Node14</title>
<g id="a_Node000014"><a xlink:title=" ">
<polygon fill="#e0e0e0" stroke="#999999" points="725.02,-74.5 682.02,-74.5 682.02,-55.25 725.02,-55.25 725.02,-74.5"/>
<text text-anchor="middle" x="703.52" y="-61" font-family="Helvetica,sans-Serif" font-size="10.00">cmath</text>
</a>
</g>
</g>
<!-- Node12&#45;&gt;Node14 -->
<g id="edge13_Node000012_Node000014" class="edge">
<title>Node12&#45;&gt;Node14</title>
<g id="a_edge13_Node000012_Node000014"><a xlink:title=" ">
<path fill="none" stroke="#63b8ff" d="M542.23,-110.37C573.1,-102.08 620.94,-89.14 670.62,-75.29"/>
<polygon fill="#63b8ff" stroke="#63b8ff" points="671.43,-78.69 680.12,-72.63 669.55,-71.95 671.43,-78.69"/>
</a>
</g>
</g>
<!-- Node15 -->
<g id="Node000015" class="node">
<title>Node15</title>
<g id="a_Node000015"><a xlink:title=" ">
<polygon fill="#e0e0e0" stroke="#999999" points="584.9,-74.5 502.15,-74.5 502.15,-55.25 584.9,-55.25 584.9,-74.5"/>
<text text-anchor="middle" x="543.52" y="-61" font-family="Helvetica,sans-Serif" font-size="10.00">unordered_map</text>
</a>
</g>
</g>
<!-- Node12&#45;&gt;Node15 -->
<g id="edge15_Node000012_Node000015" class="edge">
<title>Node12&#45;&gt;Node15</title>
<g id="a_edge15_Node000012_Node000015"><a xlink:title=" ">
<path fill="none" stroke="#63b8ff" d="M515.14,-110.33C519.64,-103.28 526.11,-93.15 531.74,-84.33"/>
<polygon fill="#63b8ff" stroke="#63b8ff" points="534.54,-86.45 536.97,-76.13 528.64,-82.68 534.54,-86.45"/>
</a>
</g>
</g>
<!-- Node16 -->
<g id="Node000016" class="node">
<title>Node16</title>
<g id="a_Node000016"><a xlink:title=" ">
<polygon fill="#e0e0e0" stroke="#999999" points="664.02,-74.5 603.02,-74.5 603.02,-55.25 664.02,-55.25 664.02,-74.5"/>
<text text-anchor="middle" x="633.52" y="-61" font-family="Helvetica,sans-Serif" font-size="10.00">TNamed.h</text>
</a>
</g>
</g>
<!-- Node12&#45;&gt;Node16 -->
<g id="edge16_Node000012_Node000016" class="edge">
<title>Node12&#45;&gt;Node16</title>
<g id="a_edge16_Node000012_Node000016"><a xlink:title=" ">
<path fill="none" stroke="#63b8ff" d="M530.56,-110.09C550.15,-101.68 579.63,-89.02 602.03,-79.4"/>
<polygon fill="#63b8ff" stroke="#63b8ff" points="603.19,-82.71 610.99,-75.55 600.42,-76.28 603.19,-82.71"/>
</a>
</g>
</g>
<!-- Node17 -->
<g id="Node000017" class="node">
<title>Node17</title>
<g id="a_Node000017"><a xlink:title=" ">
<polygon fill="#e0e0e0" stroke="#999999" points="183.02,-74.5 134.02,-74.5 134.02,-55.25 183.02,-55.25 183.02,-74.5"/>
<text text-anchor="middle" x="158.52" y="-61" font-family="Helvetica,sans-Serif" font-size="10.00">TTree.h</text>
</a>
</g>
</g>
<!-- Node12&#45;&gt;Node17 -->
<g id="edge17_Node000012_Node000017" class="edge">
<title>Node12&#45;&gt;Node17</title>
<g id="a_edge17_Node000012_Node000017"><a xlink:title=" ">
<path fill="none" stroke="#63b8ff" d="M477.01,-112.2C473.81,-111.6 470.61,-111.02 467.52,-110.5 349.09,-90.64 314.93,-97.74 194.46,-74.87"/>
<polygon fill="#63b8ff" stroke="#63b8ff" points="195.28,-71.46 184.8,-73 193.95,-78.33 195.28,-71.46"/>
</a>
</g>
</g>
<!-- Node18 -->
<g id="Node000018" class="node">
<title>Node18</title>
<g id="a_Node000018"><a xlink:title=" ">
<polygon fill="#e0e0e0" stroke="#999999" points="256.4,-74.5 200.65,-74.5 200.65,-55.25 256.4,-55.25 256.4,-74.5"/>
<text text-anchor="middle" x="228.52" y="-61" font-family="Helvetica,sans-Serif" font-size="10.00">TGraph.h</text>
</a>
</g>
</g>
<!-- Node12&#45;&gt;Node18 -->
<g id="edge18_Node000012_Node000018" class="edge">
<title>Node12&#45;&gt;Node18</title>
<g id="a_edge18_Node000012_Node000018"><a xlink:title=" ">
<path fill="none" stroke="#63b8ff" d="M476.98,-112.35C473.79,-111.72 470.59,-111.09 467.52,-110.5 381.46,-94 356.76,-92.92 267.93,-74.9"/>
<polygon fill="#63b8ff" stroke="#63b8ff" points="268.75,-71.5 258.25,-72.92 267.35,-78.36 268.75,-71.5"/>
</a>
</g>
</g>
<!-- Node19 -->
<g id="Node000019" class="node">
<title>Node19</title>
<g id="a_Node000019"><a xlink:title=" ">
<polygon fill="#e0e0e0" stroke="#999999" points="344.15,-74.5 274.9,-74.5 274.9,-55.25 344.15,-55.25 344.15,-74.5"/>
<text text-anchor="middle" x="309.52" y="-61" font-family="Helvetica,sans-Serif" font-size="10.00">TClassRef.h</text>
</a>
</g>
</g>
<!-- Node12&#45;&gt;Node19 -->
<g id="edge19_Node000012_Node000019" class="edge">
<title>Node12&#45;&gt;Node19</title>
<g id="a_edge19_Node000012_Node000019"><a xlink:title=" ">
<path fill="none" stroke="#63b8ff" d="M476.94,-110.45C443.74,-101.61 391.98,-87.83 354.8,-77.93"/>
<polygon fill="#63b8ff" stroke="#63b8ff" points="355.79,-74.57 345.23,-75.38 353.99,-81.34 355.79,-74.57"/>
</a>
</g>
</g>
<!-- Node20 -->
<g id="Node000020" class="node">
<title>Node20</title>
<g id="a_Node000020"><a xlink:href="_t_priority_value_8h.html" target="_top" xlink:title=" ">
<polygon fill="white" stroke="#666666" points="446.65,-74.5 362.4,-74.5 362.4,-55.25 446.65,-55.25 446.65,-74.5"/>
<text text-anchor="middle" x="404.52" y="-61" font-family="Helvetica,sans-Serif" font-size="10.00">TPriorityValue.h</text>
</a>
</g>
</g>
<!-- Node12&#45;&gt;Node20 -->
<g id="edge20_Node000012_Node000020" class="edge">
<title>Node12&#45;&gt;Node20</title>
<g id="a_edge20_Node000012_Node000020"><a xlink:title=" ">
<path fill="none" stroke="#63b8ff" d="M491.71,-110.09C475.5,-101.87 451.29,-89.59 432.49,-80.06"/>
<polygon fill="#63b8ff" stroke="#63b8ff" points="434.27,-77.04 423.77,-75.64 431.11,-83.28 434.27,-77.04"/>
</a>
</g>
</g>
<!-- Node20&#45;&gt;Node5 -->
<g id="edge23_Node000020_Node000005" class="edge">
<title>Node20&#45;&gt;Node5</title>
<g id="a_edge23_Node000020_Node000005"><a xlink:title=" ">
<path fill="none" stroke="#63b8ff" d="M447.11,-57.66C520.73,-46.92 670.27,-25.11 736.58,-15.43"/>
<polygon fill="#63b8ff" stroke="#63b8ff" points="736.71,-18.95 746.1,-14.04 735.7,-12.02 736.71,-18.95"/>
</a>
</g>
</g>
<!-- Node20&#45;&gt;Node13 -->
<g id="edge22_Node000020_Node000013" class="edge">
<title>Node20&#45;&gt;Node13</title>
<g id="a_edge22_Node000020_Node000013"><a xlink:title=" ">
<path fill="none" stroke="#63b8ff" d="M416.4,-54.84C426.62,-47.07 441.59,-35.67 453.79,-26.4"/>
<polygon fill="#63b8ff" stroke="#63b8ff" points="455.78,-29.28 461.62,-20.44 451.54,-23.71 455.78,-29.28"/>
</a>
</g>
</g>
<!-- Node21 -->
<g id="Node000021" class="node">
<title>Node21</title>
<g id="a_Node000021"><a xlink:title=" ">
<polygon fill="#e0e0e0" stroke="#999999" points="430.15,-19.25 378.9,-19.25 378.9,0 430.15,0 430.15,-19.25"/>
<text text-anchor="middle" x="404.52" y="-5.75" font-family="Helvetica,sans-Serif" font-size="10.00">ostream</text>
</a>
</g>
</g>
<!-- Node20&#45;&gt;Node21 -->
<g id="edge21_Node000020_Node000021" class="edge">
<title>Node20&#45;&gt;Node21</title>
<g id="a_edge21_Node000020_Node000021"><a xlink:title=" ">
<path fill="none" stroke="#63b8ff" d="M404.52,-55.08C404.52,-48.57 404.52,-39.42 404.52,-31.12"/>
<polygon fill="#63b8ff" stroke="#63b8ff" points="408.02,-31.12 404.52,-21.12 401.02,-31.12 408.02,-31.12"/>
</a>
</g>
</g>
<!-- Node22&#45;&gt;Node13 -->
<g id="edge28_Node000022_Node000013" class="edge">
<title>Node22&#45;&gt;Node13</title>
<g id="a_edge28_Node000022_Node000013"><a xlink:title=" ">
<path fill="none" stroke="#63b8ff" d="M818.78,-110.08C827.34,-96.5 840.18,-70.75 826.52,-55.25 805.49,-31.38 589.11,-16.97 506.42,-12.3"/>
<polygon fill="#63b8ff" stroke="#63b8ff" points="506.69,-8.81 496.52,-11.75 506.31,-15.8 506.69,-8.81"/>
</a>
</g>
</g>
<!-- Node22&#45;&gt;Node14 -->
<g id="edge25_Node000022_Node000014" class="edge">
<title>Node22&#45;&gt;Node14</title>
<g id="a_edge25_Node000022_Node000014"><a xlink:title=" ">
<path fill="none" stroke="#63b8ff" d="M794.03,-110.09C777.12,-101.83 751.84,-89.48 732.29,-79.93"/>
<polygon fill="#63b8ff" stroke="#63b8ff" points="733.99,-76.86 723.46,-75.62 730.91,-83.15 733.99,-76.86"/>
</a>
</g>
</g>
<!-- Node22&#45;&gt;Node16 -->
<g id="edge32_Node000022_Node000016" class="edge">
<title>Node22&#45;&gt;Node16</title>
<g id="a_edge32_Node000022_Node000016"><a xlink:title=" ">
<path fill="none" stroke="#63b8ff" d="M782.16,-110.09C752.71,-101.33 707.81,-87.98 675.07,-78.23"/>
<polygon fill="#63b8ff" stroke="#63b8ff" points="676.07,-74.88 665.49,-75.38 674.07,-81.59 676.07,-74.88"/>
</a>
</g>
</g>
<!-- Node23 -->
<g id="Node000023" class="node">
<title>Node23</title>
<g id="a_Node000023"><a xlink:title=" ">
<polygon fill="#e0e0e0" stroke="#999999" points="919.15,-74.5 873.9,-74.5 873.9,-55.25 919.15,-55.25 919.15,-74.5"/>
<text text-anchor="middle" x="896.52" y="-61" font-family="Helvetica,sans-Serif" font-size="10.00">cstring</text>
</a>
</g>
</g>
<!-- Node22&#45;&gt;Node23 -->
<g id="edge26_Node000022_Node000023" class="edge">
<title>Node22&#45;&gt;Node23</title>
<g id="a_edge26_Node000022_Node000023"><a xlink:title=" ">
<path fill="none" stroke="#63b8ff" d="M826.77,-110.09C839.32,-102.14 857.86,-90.39 872.67,-81"/>
<polygon fill="#63b8ff" stroke="#63b8ff" points="874.35,-84.07 880.93,-75.76 870.61,-78.16 874.35,-84.07"/>
</a>
</g>
</g>
<!-- Node24 -->
<g id="Node000024" class="node">
<title>Node24</title>
<g id="a_Node000024"><a xlink:title=" ">
<polygon fill="#e0e0e0" stroke="#999999" points="981.77,-74.5 937.27,-74.5 937.27,-55.25 981.77,-55.25 981.77,-74.5"/>
<text text-anchor="middle" x="959.52" y="-61" font-family="Helvetica,sans-Serif" font-size="10.00">cstdlib</text>
</a>
</g>
</g>
<!-- Node22&#45;&gt;Node24 -->
<g id="edge27_Node000022_Node000024" class="edge">
<title>Node22&#45;&gt;Node24</title>
<g id="a_edge27_Node000022_Node000024"><a xlink:title=" ">
<path fill="none" stroke="#63b8ff" d="M837.46,-110.09C861.94,-101.22 899.42,-87.65 926.39,-77.88"/>
<polygon fill="#63b8ff" stroke="#63b8ff" points="927.25,-81.29 935.46,-74.59 924.86,-74.71 927.25,-81.29"/>
</a>
</g>
</g>
<!-- Node25 -->
<g id="Node000025" class="node">
<title>Node25</title>
<g id="a_Node000025"><a xlink:href="_t_transition_8h.html" target="_top" xlink:title=" ">
<polygon fill="white" stroke="#666666" points="1109.65,-74.5 1037.4,-74.5 1037.4,-55.25 1109.65,-55.25 1109.65,-74.5"/>
<text text-anchor="middle" x="1073.52" y="-61" font-family="Helvetica,sans-Serif" font-size="10.00">TTransition.h</text>
</a>
</g>
</g>
<!-- Node22&#45;&gt;Node25 -->
<g id="edge29_Node000022_Node000025" class="edge">
<title>Node22&#45;&gt;Node25</title>
<g id="a_edge29_Node000022_Node000025"><a xlink:title=" ">
<path fill="none" stroke="#63b8ff" d="M845.58,-112.38C891.2,-103.07 973.74,-86.23 1025.98,-75.57"/>
<polygon fill="#63b8ff" stroke="#63b8ff" points="1026.38,-79.06 1035.48,-73.64 1024.98,-72.21 1026.38,-79.06"/>
</a>
</g>
</g>
<!-- Node28 -->
<g id="Node000028" class="node">
<title>Node28</title>
<g id="a_Node000028"><a xlink:title=" ">
<polygon fill="#e0e0e0" stroke="#999999" points="817.77,-74.5 743.27,-74.5 743.27,-55.25 817.77,-55.25 817.77,-74.5"/>
<text text-anchor="middle" x="780.52" y="-61" font-family="Helvetica,sans-Serif" font-size="10.00">TSortedList.h</text>
</a>
</g>
</g>
<!-- Node22&#45;&gt;Node28 -->
<g id="edge33_Node000022_Node000028" class="edge">
<title>Node22&#45;&gt;Node28</title>
<g id="a_edge33_Node000022_Node000028"><a xlink:title=" ">
<path fill="none" stroke="#63b8ff" d="M807.24,-110.33C803.05,-103.36 797.04,-93.37 791.79,-84.62"/>
<polygon fill="#63b8ff" stroke="#63b8ff" points="794.85,-82.93 786.7,-76.16 788.85,-86.53 794.85,-82.93"/>
</a>
</g>
</g>
<!-- Node26 -->
<g id="Node000026" class="node">
<title>Node26</title>
<g id="a_Node000026"><a xlink:title=" ">
<polygon fill="#e0e0e0" stroke="#999999" points="1128.65,-19.25 1086.4,-19.25 1086.4,0 1128.65,0 1128.65,-19.25"/>
<text text-anchor="middle" x="1107.52" y="-5.75" font-family="Helvetica,sans-Serif" font-size="10.00">cstdio</text>
</a>
</g>
</g>
<!-- Node25&#45;&gt;Node26 -->
<g id="edge30_Node000025_Node000026" class="edge">
<title>Node25&#45;&gt;Node26</title>
<g id="a_edge30_Node000025_Node000026"><a xlink:title=" ">
<path fill="none" stroke="#63b8ff" d="M1079.14,-55.08C1083.64,-48.03 1090.11,-37.9 1095.74,-29.08"/>
<polygon fill="#63b8ff" stroke="#63b8ff" points="1098.54,-31.2 1100.97,-20.88 1092.64,-27.43 1098.54,-31.2"/>
</a>
</g>
</g>
<!-- Node27 -->
<g id="Node000027" class="node">
<title>Node27</title>
<g id="a_Node000027"><a xlink:title=" ">
<polygon fill="#e0e0e0" stroke="#999999" points="1068.52,-19.25 1010.52,-19.25 1010.52,0 1068.52,0 1068.52,-19.25"/>
<text text-anchor="middle" x="1039.52" y="-5.75" font-family="Helvetica,sans-Serif" font-size="10.00">TObject.h</text>
</a>
</g>
</g>
<!-- Node25&#45;&gt;Node27 -->
<g id="edge31_Node000025_Node000027" class="edge">
<title>Node25&#45;&gt;Node27</title>
<g id="a_edge31_Node000025_Node000027"><a xlink:title=" ">
<path fill="none" stroke="#63b8ff" d="M1067.91,-55.08C1063.41,-48.03 1056.94,-37.9 1051.31,-29.08"/>
<polygon fill="#63b8ff" stroke="#63b8ff" points="1054.41,-27.43 1046.07,-20.88 1048.51,-31.2 1054.41,-27.43"/>
</a>
</g>
</g>
</g>
</svg>

<g id="navigator" transform="translate(0 0)" fill="#404254">
  <rect fill="#f2f5e9" fill-opacity="0.5" stroke="#606060" stroke-width=".5" x="0" y="0" width="60" height="60"/>
  <use id="zoomplus" xlink:href="#zoomPlus" x="17" y="9" onmousedown="handleZoom(evt,'in')"/>
  <use id="zoomminus" xlink:href="#zoomMin" x="42" y="9" onmousedown="handleZoom(evt,'out')"/>
  <use id="reset" xlink:href="#resetDef" x="30" y="36" onmousedown="handleReset()"/>
   <use id="arrowup" xlink:href="#arrowUp" x="0" y="0" onmousedown="handlePan(0,-1)"/>
  <use id="arrowright" xlink:href="#arrowRight" x="0" y="0" onmousedown="handlePan(1,0)"/>
  <use id="arrowdown" xlink:href="#arrowDown" x="0" y="0" onmousedown="handlePan(0,1)"/>
  <use id="arrowleft" xlink:href="#arrowLeft" x="0" y="0" onmousedown="handlePan(-1,0)"/>
</g>
<svg viewBox="0 0 15 15" width="100%" height="30px" preserveAspectRatio="xMaxYMin meet">
 <g id="arrow_out" transform="scale(0.3 0.3)">
  <a xlink:href="_t_c_f_d_cal_8cxx__incl_org.svg" target="_base">
   <rect id="button" ry="5" rx="5" y="6" x="6" height="38" width="38"
        fill="#f2f5e9" fill-opacity="0.5" stroke="#606060" stroke-width="1.0"/>
   <path id="arrow"
     d="M 11.500037,31.436501 C 11.940474,20.09759 22.043105,11.32322 32.158766,21.979434 L 37.068811,17.246167 C 37.068811,17.246167 37.088388,32 37.088388,32 L 22.160133,31.978069 C 22.160133,31.978069 26.997745,27.140456 26.997745,27.140456 C 18.528582,18.264221 13.291696,25.230495 11.500037,31.436501 z"
     style="fill:#404040;"/>
  </a>
 </g>
</svg>

<style type='text/css'>
<![CDATA[
[data-mouse-over-selected='false'] { opacity: 0.7; }
[data-mouse-over-selected='true']  { opacity: 1.0; }
]]>
</style>
<script type="application/ecmascript"><![CDATA[
document.addEventListener('DOMContentLoaded', (event) => {
  highlightEdges();
  highlightAdjacentNodes();
});
]]></script>
</svg>
