<?xml version="1.0" encoding="UTF-8" standalone="no"?>
<!DOCTYPE svg PUBLIC "-//W3C//DTD SVG 1.1//EN"
 "http://www.w3.org/Graphics/SVG/1.1/DTD/svg11.dtd">
<!-- Generated by graphviz version 12.2.0 (20241103.1931)
 -->
<!-- Title: TDetector.h Pages: 1 -->
<!--zoomable 359 -->

<svg id="main" version="1.1" xmlns="http://www.w3.org/2000/svg" xmlns:xlink="http://www.w3.org/1999/xlink" xml:space="preserve" onload="init(evt)">

<style type="text/css"><![CDATA[
.node, .edge {opacity: 0.7;}
.node.selected, .edge.selected {opacity: 1;}
.edge:hover path { stroke: red; }
.edge:hover polygon { stroke: red; fill: red; }
]]></style>

<defs>
  <circle id="rim" cx="0" cy="0" r="7"/>
  <circle id="rim2" cx="0" cy="0" r="3.5"/>
  <g id="zoomPlus">
    <use xlink:href="#rim" fill="#404040"><set attributeName="fill" to="#808080" begin="zoomplus.mouseover" end="zoomplus.mouseout"/></use>
    <path d="M-4,0h8M0,-4v8" fill="none" stroke="white" stroke-width="1.5" pointer-events="none"/>
  </g>
  <g id="zoomMin">
    <use xlink:href="#rim" fill="#404040"><set attributeName="fill" to="#808080" begin="zoomminus.mouseover" end="zoomminus.mouseout"/></use>
    <path d="M-4,0h8" fill="none" stroke="white" stroke-width="1.5" pointer-events="none"/>
  </g>
  <g id="arrowUp" transform="translate(30 24)">
    <use xlink:href="#rim"/>
    <path pointer-events="none" fill="none" stroke="white" stroke-width="1.5" d="M0,-3.0v7 M-2.5,-0.5L0,-3.0L2.5,-0.5"/>
  </g>
  <g id="arrowRight" transform="rotate(90) translate(36 -43)">
    <use xlink:href="#rim"/>
    <path pointer-events="none" fill="none" stroke="white" stroke-width="1.5" d="M0,-3.0v7 M-2.5,-0.5L0,-3.0L2.5,-0.5"/>
  </g>
  <g id="arrowDown" transform="rotate(180) translate(-30 -48)">
    <use xlink:href="#rim"/>
    <path pointer-events="none" fill="none" stroke="white" stroke-width="1.5" d="M0,-3.0v7 M-2.5,-0.5L0,-3.0L2.5,-0.5"/>
  </g>
  <g id="arrowLeft" transform="rotate(270) translate(-36 17)">
    <use xlink:href="#rim"/>
    <path pointer-events="none" fill="none" stroke="white" stroke-width="1.5" d="M0,-3.0v7 M-2.5,-0.5L0,-3.0L2.5,-0.5"/>
  </g>
  <g id="resetDef">
    <use xlink:href="#rim2" fill="#404040"><set attributeName="fill" to="#808080" begin="reset.mouseover" end="reset.mouseout"/></use>
  </g>
</defs>
<script type="application/ecmascript">
var viewWidth = 1703;
var viewHeight = 359;
var sectionId = 'dynsection-0';
</script>
<script type="application/ecmascript" xlink:href="svg.min.js"/>
<svg id="graph" class="graph">
<g id="viewport">
<title>TDetector.h</title>
<!-- Node1 -->
<g id="Node000001" class="node">
<title>Node1</title>
<g id="a_Node000001"><a xlink:title=" ">
<polygon fill="#999999" stroke="#666666" points="789.25,-350.75 723,-350.75 723,-331.5 789.25,-331.5 789.25,-350.75"/>
<text text-anchor="middle" x="756.12" y="-337.25" font-family="Helvetica,sans-Serif" font-size="10.00">TDetector.h</text>
</a>
</g>
</g>
<!-- Node2 -->
<g id="Node000002" class="node">
<title>Node2</title>
<g id="a_Node000002"><a xlink:title=" ">
<polygon fill="#e0e0e0" stroke="#999999" points="42.25,-19.25 0,-19.25 0,0 42.25,0 42.25,-19.25"/>
<text text-anchor="middle" x="21.12" y="-5.75" font-family="Helvetica,sans-Serif" font-size="10.00">cstdio</text>
</a>
</g>
</g>
<!-- Node1&#45;&gt;Node2 -->
<g id="edge1_Node000001_Node000002" class="edge">
<title>Node1&#45;&gt;Node2</title>
<g id="a_edge1_Node000001_Node000002"><a xlink:title=" ">
<path fill="none" stroke="#63b8ff" d="M722.6,-338.68C623.71,-334.17 334.4,-319.27 243.12,-295.5 176.16,-278.06 101.12,-300.83 101.12,-231.62 101.12,-231.62 101.12,-231.62 101.12,-119.12 101.12,-80.04 67.08,-45.78 43.41,-26.68"/>
<polygon fill="#63b8ff" stroke="#63b8ff" points="45.59,-23.94 35.53,-20.6 41.31,-29.48 45.59,-23.94"/>
</a>
</g>
</g>
<!-- Node3 -->
<g id="Node000003" class="node">
<title>Node3</title>
<g id="a_Node000003"><a xlink:title=" ">
<polygon fill="#e0e0e0" stroke="#999999" points="1659.62,-74.5 1616.62,-74.5 1616.62,-55.25 1659.62,-55.25 1659.62,-74.5"/>
<text text-anchor="middle" x="1638.12" y="-61" font-family="Helvetica,sans-Serif" font-size="10.00">vector</text>
</a>
</g>
</g>
<!-- Node1&#45;&gt;Node3 -->
<g id="edge2_Node000001_Node000003" class="edge">
<title>Node1&#45;&gt;Node3</title>
<g id="a_edge2_Node000001_Node000003"><a xlink:title=" ">
<path fill="none" stroke="#63b8ff" d="M789.54,-339.85C956.82,-338.04 1695.12,-324.75 1695.12,-231.62 1695.12,-231.62 1695.12,-231.62 1695.12,-174.38 1695.12,-138.92 1670.98,-103.66 1654.12,-83.35"/>
<polygon fill="#63b8ff" stroke="#63b8ff" points="1656.97,-81.3 1647.77,-76.04 1651.68,-85.88 1656.97,-81.3"/>
</a>
</g>
</g>
<!-- Node4 -->
<g id="Node000004" class="node">
<title>Node4</title>
<g id="a_Node000004"><a xlink:title=" ">
<polygon fill="#e0e0e0" stroke="#999999" points="110.38,-19.25 59.88,-19.25 59.88,0 110.38,0 110.38,-19.25"/>
<text text-anchor="middle" x="85.12" y="-5.75" font-family="Helvetica,sans-Serif" font-size="10.00">memory</text>
</a>
</g>
</g>
<!-- Node1&#45;&gt;Node4 -->
<g id="edge3_Node000001_Node000004" class="edge">
<title>Node1&#45;&gt;Node4</title>
<g id="a_edge3_Node000001_Node000004"><a xlink:title=" ">
<path fill="none" stroke="#63b8ff" d="M722.79,-340.63C604.25,-341.56 210.12,-336.73 210.12,-231.62 210.12,-231.62 210.12,-231.62 210.12,-119.12 210.12,-71.65 158.08,-40.27 121.15,-23.98"/>
<polygon fill="#63b8ff" stroke="#63b8ff" points="122.69,-20.83 112.12,-20.18 119.98,-27.28 122.69,-20.83"/>
</a>
</g>
</g>
<!-- Node5 -->
<g id="Node000005" class="node">
<title>Node5</title>
<g id="a_Node000005"><a xlink:title=" ">
<polygon fill="#e0e0e0" stroke="#999999" points="433.12,-74.5 375.12,-74.5 375.12,-55.25 433.12,-55.25 433.12,-74.5"/>
<text text-anchor="middle" x="404.12" y="-61" font-family="Helvetica,sans-Serif" font-size="10.00">TObject.h</text>
</a>
</g>
</g>
<!-- Node1&#45;&gt;Node5 -->
<g id="edge4_Node000001_Node000005" class="edge">
<title>Node1&#45;&gt;Node5</title>
<g id="a_edge4_Node000001_Node000005"><a xlink:title=" ">
<path fill="none" stroke="#63b8ff" d="M722.79,-338.04C628.23,-331.22 365.12,-305.59 365.12,-231.62 365.12,-231.62 365.12,-231.62 365.12,-174.38 365.12,-141.29 381.38,-105.7 392.91,-84.63"/>
<polygon fill="#63b8ff" stroke="#63b8ff" points="395.86,-86.5 397.79,-76.09 389.79,-83.03 395.86,-86.5"/>
</a>
</g>
</g>
<!-- Node6 -->
<g id="Node000006" class="node">
<title>Node6</title>
<g id="a_Node000006"><a xlink:href="_t_fragment_8h.html" target="_top" xlink:title=" ">
<polygon fill="white" stroke="#666666" points="897.5,-295.5 826.75,-295.5 826.75,-276.25 897.5,-276.25 897.5,-295.5"/>
<text text-anchor="middle" x="862.12" y="-282" font-family="Helvetica,sans-Serif" font-size="10.00">TFragment.h</text>
</a>
</g>
</g>
<!-- Node1&#45;&gt;Node6 -->
<g id="edge5_Node000001_Node000006" class="edge">
<title>Node1&#45;&gt;Node6</title>
<g id="a_edge5_Node000001_Node000006"><a xlink:title=" ">
<path fill="none" stroke="#63b8ff" d="M774.11,-331.09C790.48,-322.87 814.91,-310.59 833.89,-301.06"/>
<polygon fill="#63b8ff" stroke="#63b8ff" points="835.34,-304.25 842.7,-296.63 832.2,-297.99 835.34,-304.25"/>
</a>
</g>
</g>
<!-- Node7 -->
<g id="Node000007" class="node">
<title>Node7</title>
<g id="a_Node000007"><a xlink:href="_t_detector_hit_8h.html" target="_top" xlink:title=" ">
<polygon fill="white" stroke="#666666" points="795.62,-240.25 716.62,-240.25 716.62,-221 795.62,-221 795.62,-240.25"/>
<text text-anchor="middle" x="756.12" y="-226.75" font-family="Helvetica,sans-Serif" font-size="10.00">TDetectorHit.h</text>
</a>
</g>
</g>
<!-- Node1&#45;&gt;Node7 -->
<g id="edge63_Node000001_Node000007" class="edge">
<title>Node1&#45;&gt;Node7</title>
<g id="a_edge63_Node000001_Node000007"><a xlink:title=" ">
<path fill="none" stroke="#63b8ff" d="M756.12,-331.25C756.12,-314 756.12,-275.58 756.12,-251.81"/>
<polygon fill="#63b8ff" stroke="#63b8ff" points="759.63,-252.14 756.13,-242.14 752.63,-252.14 759.63,-252.14"/>
</a>
</g>
</g>
<!-- Node8 -->
<g id="Node000008" class="node">
<title>Node8</title>
<g id="a_Node000008"><a xlink:href="_t_channel_8h.html" target="_top" xlink:title=" ">
<polygon fill="white" stroke="#666666" points="1274.5,-185 1209.75,-185 1209.75,-165.75 1274.5,-165.75 1274.5,-185"/>
<text text-anchor="middle" x="1242.12" y="-171.5" font-family="Helvetica,sans-Serif" font-size="10.00">TChannel.h</text>
</a>
</g>
</g>
<!-- Node1&#45;&gt;Node8 -->
<g id="edge64_Node000001_Node000008" class="edge">
<title>Node1&#45;&gt;Node8</title>
<g id="a_edge64_Node000001_Node000008"><a xlink:title=" ">
<path fill="none" stroke="#63b8ff" d="M788.46,-331.03C818.94,-322.33 865.82,-308.63 906.12,-295.5 1016.92,-259.4 1146.49,-211.97 1207.29,-189.39"/>
<polygon fill="#63b8ff" stroke="#63b8ff" points="1208.25,-192.77 1216.4,-186.01 1205.81,-186.21 1208.25,-192.77"/>
</a>
</g>
</g>
<!-- Node6&#45;&gt;Node3 -->
<g id="edge60_Node000006_Node000003" class="edge">
<title>Node6&#45;&gt;Node3</title>
<g id="a_edge60_Node000006_Node000003"><a xlink:title=" ">
<path fill="none" stroke="#63b8ff" d="M897.74,-282.69C1033.81,-273.62 1518.45,-234.35 1623.12,-129.75 1634.48,-118.41 1637.88,-100.21 1638.64,-86.13"/>
<polygon fill="#63b8ff" stroke="#63b8ff" points="1642.14,-86.22 1638.74,-76.19 1635.14,-86.15 1642.14,-86.22"/>
</a>
</g>
</g>
<!-- Node6&#45;&gt;Node7 -->
<g id="edge6_Node000006_Node000007" class="edge">
<title>Node6&#45;&gt;Node7</title>
<g id="a_edge6_Node000006_Node000007"><a xlink:title=" ">
<path fill="none" stroke="#63b8ff" d="M844.14,-275.84C827.77,-267.62 803.34,-255.34 784.36,-245.81"/>
<polygon fill="#63b8ff" stroke="#63b8ff" points="786.05,-242.74 775.55,-241.38 782.91,-249 786.05,-242.74"/>
</a>
</g>
</g>
<!-- Node20 -->
<g id="Node000020" class="node">
<title>Node20</title>
<g id="a_Node000020"><a xlink:title=" ">
<polygon fill="#e0e0e0" stroke="#999999" points="884.88,-185 831.38,-185 831.38,-165.75 884.88,-165.75 884.88,-185"/>
<text text-anchor="middle" x="858.12" y="-171.5" font-family="Helvetica,sans-Serif" font-size="10.00">Rtypes.h</text>
</a>
</g>
</g>
<!-- Node6&#45;&gt;Node20 -->
<g id="edge62_Node000006_Node000020" class="edge">
<title>Node6&#45;&gt;Node20</title>
<g id="a_edge62_Node000006_Node000020"><a xlink:title=" ">
<path fill="none" stroke="#63b8ff" d="M861.8,-276C861.16,-258.75 859.75,-220.33 858.87,-196.56"/>
<polygon fill="#63b8ff" stroke="#63b8ff" points="862.38,-196.75 858.51,-186.89 855.38,-197.01 862.38,-196.75"/>
</a>
</g>
</g>
<!-- Node22 -->
<g id="Node000022" class="node">
<title>Node22</title>
<g id="a_Node000022"><a xlink:href="_t_p_p_g_8h.html" target="_top" xlink:title=" ">
<polygon fill="white" stroke="#666666" points="810.38,-185 759.88,-185 759.88,-165.75 810.38,-165.75 810.38,-185"/>
<text text-anchor="middle" x="785.12" y="-171.5" font-family="Helvetica,sans-Serif" font-size="10.00">TPPG.h</text>
</a>
</g>
</g>
<!-- Node6&#45;&gt;Node22 -->
<g id="edge58_Node000006_Node000022" class="edge">
<title>Node6&#45;&gt;Node22</title>
<g id="a_edge58_Node000006_Node000022"><a xlink:title=" ">
<path fill="none" stroke="#63b8ff" d="M855.82,-276C843.25,-258.27 814.8,-218.19 798.08,-194.63"/>
<polygon fill="#63b8ff" stroke="#63b8ff" points="801.03,-192.74 792.39,-186.61 795.32,-196.79 801.03,-192.74"/>
</a>
</g>
</g>
<!-- Node24 -->
<g id="Node000024" class="node">
<title>Node24</title>
<g id="a_Node000024"><a xlink:title=" ">
<polygon fill="#e0e0e0" stroke="#999999" points="945.88,-19.25 892.38,-19.25 892.38,0 945.88,0 945.88,-19.25"/>
<text text-anchor="middle" x="919.12" y="-5.75" font-family="Helvetica,sans-Serif" font-size="10.00">iostream</text>
</a>
</g>
</g>
<!-- Node6&#45;&gt;Node24 -->
<g id="edge59_Node000006_Node000024" class="edge">
<title>Node6&#45;&gt;Node24</title>
<g id="a_edge59_Node000006_Node000024"><a xlink:title=" ">
<path fill="none" stroke="#63b8ff" d="M865.55,-275.93C872.06,-258.62 886.24,-219.25 894.12,-185 906.84,-129.75 914.25,-63.07 917.37,-30.49"/>
<polygon fill="#63b8ff" stroke="#63b8ff" points="920.82,-31.22 918.25,-20.94 913.85,-30.57 920.82,-31.22"/>
</a>
</g>
</g>
<!-- Node45 -->
<g id="Node000045" class="node">
<title>Node45</title>
<g id="a_Node000045"><a xlink:title=" ">
<polygon fill="#e0e0e0" stroke="#999999" points="983.12,-240.25 943.12,-240.25 943.12,-221 983.12,-221 983.12,-240.25"/>
<text text-anchor="middle" x="963.12" y="-226.75" font-family="Helvetica,sans-Serif" font-size="10.00">ctime</text>
</a>
</g>
</g>
<!-- Node6&#45;&gt;Node45 -->
<g id="edge61_Node000006_Node000045" class="edge">
<title>Node6&#45;&gt;Node45</title>
<g id="a_edge61_Node000006_Node000045"><a xlink:title=" ">
<path fill="none" stroke="#63b8ff" d="M879.26,-275.84C894.78,-267.66 917.93,-255.46 935.97,-245.94"/>
<polygon fill="#63b8ff" stroke="#63b8ff" points="937.36,-249.17 944.57,-241.41 934.09,-242.98 937.36,-249.17"/>
</a>
</g>
</g>
<!-- Node7&#45;&gt;Node3 -->
<g id="edge7_Node000007_Node000003" class="edge">
<title>Node7&#45;&gt;Node3</title>
<g id="a_edge7_Node000007_Node000003"><a xlink:title=" ">
<path fill="none" stroke="#63b8ff" d="M795.91,-227.09C954.09,-216.74 1533.07,-175.95 1600.12,-129.75 1615.55,-119.12 1625.7,-100 1631.6,-85.44"/>
<polygon fill="#63b8ff" stroke="#63b8ff" points="1634.75,-87.01 1634.92,-76.41 1628.18,-84.6 1634.75,-87.01"/>
</a>
</g>
</g>
<!-- Node7&#45;&gt;Node5 -->
<g id="edge22_Node000007_Node000005" class="edge">
<title>Node7&#45;&gt;Node5</title>
<g id="a_edge22_Node000007_Node000005"><a xlink:title=" ">
<path fill="none" stroke="#63b8ff" d="M716.16,-226.43C648.88,-220.53 516.33,-206.55 475.12,-185 444.97,-169.23 439.02,-159.29 422.12,-129.75 414.32,-116.11 409.72,-98.87 407.13,-85.74"/>
<polygon fill="#63b8ff" stroke="#63b8ff" points="410.63,-85.41 405.48,-76.15 403.73,-86.6 410.63,-85.41"/>
</a>
</g>
</g>
<!-- Node7&#45;&gt;Node8 -->
<g id="edge8_Node000007_Node000008" class="edge">
<title>Node7&#45;&gt;Node8</title>
<g id="a_edge8_Node000007_Node000008"><a xlink:title=" ">
<path fill="none" stroke="#63b8ff" d="M795.9,-225.27C885.79,-215.42 1104.11,-191.5 1198,-181.21"/>
<polygon fill="#63b8ff" stroke="#63b8ff" points="1198.28,-184.7 1207.84,-180.13 1197.52,-177.74 1198.28,-184.7"/>
</a>
</g>
</g>
<!-- Node19 -->
<g id="Node000019" class="node">
<title>Node19</title>
<g id="a_Node000019"><a xlink:title=" ">
<polygon fill="#e0e0e0" stroke="#999999" points="741.75,-185 678.5,-185 678.5,-165.75 741.75,-165.75 741.75,-185"/>
<text text-anchor="middle" x="710.12" y="-171.5" font-family="Helvetica,sans-Serif" font-size="10.00">TVector3.h</text>
</a>
</g>
</g>
<!-- Node7&#45;&gt;Node19 -->
<g id="edge21_Node000007_Node000019" class="edge">
<title>Node7&#45;&gt;Node19</title>
<g id="a_edge21_Node000007_Node000019"><a xlink:title=" ">
<path fill="none" stroke="#63b8ff" d="M748.53,-220.83C742.24,-213.55 733.11,-202.98 725.33,-193.98"/>
<polygon fill="#63b8ff" stroke="#63b8ff" points="728.06,-191.78 718.88,-186.5 722.76,-196.36 728.06,-191.78"/>
</a>
</g>
</g>
<!-- Node7&#45;&gt;Node20 -->
<g id="edge23_Node000007_Node000020" class="edge">
<title>Node7&#45;&gt;Node20</title>
<g id="a_edge23_Node000007_Node000020"><a xlink:title=" ">
<path fill="none" stroke="#63b8ff" d="M773.43,-220.59C789.11,-212.41 812.48,-200.21 830.7,-190.69"/>
<polygon fill="#63b8ff" stroke="#63b8ff" points="832.15,-193.88 839.4,-186.15 828.91,-187.68 832.15,-193.88"/>
</a>
</g>
</g>
<!-- Node21 -->
<g id="Node000021" class="node">
<title>Node21</title>
<g id="a_Node000021"><a xlink:title=" ">
<polygon fill="#e0e0e0" stroke="#999999" points="549.88,-185 484.38,-185 484.38,-165.75 549.88,-165.75 549.88,-185"/>
<text text-anchor="middle" x="517.12" y="-171.5" font-family="Helvetica,sans-Serif" font-size="10.00">TRandom.h</text>
</a>
</g>
</g>
<!-- Node7&#45;&gt;Node21 -->
<g id="edge24_Node000007_Node000021" class="edge">
<title>Node7&#45;&gt;Node21</title>
<g id="a_edge24_Node000007_Node000021"><a xlink:title=" ">
<path fill="none" stroke="#63b8ff" d="M716.39,-220.77C673.53,-211.22 605.48,-196.06 561.06,-186.16"/>
<polygon fill="#63b8ff" stroke="#63b8ff" points="562.02,-182.79 551.5,-184.03 560.5,-189.63 562.02,-182.79"/>
</a>
</g>
</g>
<!-- Node7&#45;&gt;Node22 -->
<g id="edge25_Node000007_Node000022" class="edge">
<title>Node7&#45;&gt;Node22</title>
<g id="a_edge25_Node000007_Node000022"><a xlink:title=" ">
<path fill="none" stroke="#63b8ff" d="M760.91,-220.83C764.67,-213.94 770.03,-204.09 774.76,-195.41"/>
<polygon fill="#63b8ff" stroke="#63b8ff" points="777.8,-197.14 779.51,-186.69 771.65,-193.8 777.8,-197.14"/>
</a>
</g>
</g>
<!-- Node43 -->
<g id="Node000043" class="node">
<title>Node43</title>
<g id="a_Node000043"><a xlink:href="_t_transient_bits_8h.html" target="_top" xlink:title=" ">
<polygon fill="white" stroke="#666666" points="654.75,-185 567.5,-185 567.5,-165.75 654.75,-165.75 654.75,-185"/>
<text text-anchor="middle" x="611.12" y="-171.5" font-family="Helvetica,sans-Serif" font-size="10.00">TTransientBits.h</text>
</a>
</g>
</g>
<!-- Node7&#45;&gt;Node43 -->
<g id="edge55_Node000007_Node000043" class="edge">
<title>Node7&#45;&gt;Node43</title>
<g id="a_edge55_Node000007_Node000043"><a xlink:title=" ">
<path fill="none" stroke="#63b8ff" d="M731.53,-220.59C708.2,-212.02 672.89,-199.06 646.53,-189.38"/>
<polygon fill="#63b8ff" stroke="#63b8ff" points="647.86,-186.14 637.26,-185.97 645.44,-192.71 647.86,-186.14"/>
</a>
</g>
</g>
<!-- Node9 -->
<g id="Node000009" class="node">
<title>Node9</title>
<g id="a_Node000009"><a xlink:title=" ">
<polygon fill="#e0e0e0" stroke="#999999" points="1029.12,-19.25 989.12,-19.25 989.12,0 1029.12,0 1029.12,-19.25"/>
<text text-anchor="middle" x="1009.12" y="-5.75" font-family="Helvetica,sans-Serif" font-size="10.00">string</text>
</a>
</g>
</g>
<!-- Node8&#45;&gt;Node9 -->
<g id="edge9_Node000008_Node000009" class="edge">
<title>Node8&#45;&gt;Node9</title>
<g id="a_edge9_Node000008_Node000009"><a xlink:title=" ">
<path fill="none" stroke="#63b8ff" d="M1209.63,-172.03C1156.06,-167.47 1052.68,-155.5 1028.12,-129.75 1002.79,-103.18 1003.24,-57.13 1006.05,-30.75"/>
<polygon fill="#63b8ff" stroke="#63b8ff" points="1009.49,-31.42 1007.31,-21.05 1002.55,-30.51 1009.49,-31.42"/>
</a>
</g>
</g>
<!-- Node10 -->
<g id="Node000010" class="node">
<title>Node10</title>
<g id="a_Node000010"><a xlink:title=" ">
<polygon fill="#e0e0e0" stroke="#999999" points="1182.62,-129.75 1139.62,-129.75 1139.62,-110.5 1182.62,-110.5 1182.62,-129.75"/>
<text text-anchor="middle" x="1161.12" y="-116.25" font-family="Helvetica,sans-Serif" font-size="10.00">cmath</text>
</a>
</g>
</g>
<!-- Node8&#45;&gt;Node10 -->
<g id="edge10_Node000008_Node000010" class="edge">
<title>Node8&#45;&gt;Node10</title>
<g id="a_edge10_Node000008_Node000010"><a xlink:title=" ">
<path fill="none" stroke="#63b8ff" d="M1228.38,-165.34C1216.4,-157.46 1198.75,-145.86 1184.54,-136.52"/>
<polygon fill="#63b8ff" stroke="#63b8ff" points="1186.48,-133.6 1176.2,-131.03 1182.63,-139.45 1186.48,-133.6"/>
</a>
</g>
</g>
<!-- Node11 -->
<g id="Node000011" class="node">
<title>Node11</title>
<g id="a_Node000011"><a xlink:title=" ">
<polygon fill="#e0e0e0" stroke="#999999" points="981.38,-129.75 942.88,-129.75 942.88,-110.5 981.38,-110.5 981.38,-129.75"/>
<text text-anchor="middle" x="962.12" y="-116.25" font-family="Helvetica,sans-Serif" font-size="10.00">utility</text>
</a>
</g>
</g>
<!-- Node8&#45;&gt;Node11 -->
<g id="edge11_Node000008_Node000011" class="edge">
<title>Node8&#45;&gt;Node11</title>
<g id="a_edge11_Node000008_Node000011"><a xlink:title=" ">
<path fill="none" stroke="#63b8ff" d="M1209.6,-169.32C1162.21,-161.76 1071.51,-146.61 995.12,-129.75 994.3,-129.57 993.47,-129.38 992.63,-129.19"/>
<polygon fill="#63b8ff" stroke="#63b8ff" points="993.62,-125.83 983.08,-126.84 991.96,-132.63 993.62,-125.83"/>
</a>
</g>
</g>
<!-- Node12 -->
<g id="Node000012" class="node">
<title>Node12</title>
<g id="a_Node000012"><a xlink:title=" ">
<polygon fill="#e0e0e0" stroke="#999999" points="1283.5,-129.75 1200.75,-129.75 1200.75,-110.5 1283.5,-110.5 1283.5,-129.75"/>
<text text-anchor="middle" x="1242.12" y="-116.25" font-family="Helvetica,sans-Serif" font-size="10.00">unordered_map</text>
</a>
</g>
</g>
<!-- Node8&#45;&gt;Node12 -->
<g id="edge12_Node000008_Node000012" class="edge">
<title>Node8&#45;&gt;Node12</title>
<g id="a_edge12_Node000008_Node000012"><a xlink:title=" ">
<path fill="none" stroke="#63b8ff" d="M1242.12,-165.58C1242.12,-159.07 1242.12,-149.92 1242.12,-141.62"/>
<polygon fill="#63b8ff" stroke="#63b8ff" points="1245.63,-141.62 1242.13,-131.62 1238.63,-141.62 1245.63,-141.62"/>
</a>
</g>
</g>
<!-- Node13 -->
<g id="Node000013" class="node">
<title>Node13</title>
<g id="a_Node000013"><a xlink:title=" ">
<polygon fill="#e0e0e0" stroke="#999999" points="1362.62,-129.75 1301.62,-129.75 1301.62,-110.5 1362.62,-110.5 1362.62,-129.75"/>
<text text-anchor="middle" x="1332.12" y="-116.25" font-family="Helvetica,sans-Serif" font-size="10.00">TNamed.h</text>
</a>
</g>
</g>
<!-- Node8&#45;&gt;Node13 -->
<g id="edge13_Node000008_Node000013" class="edge">
<title>Node8&#45;&gt;Node13</title>
<g id="a_edge13_Node000008_Node000013"><a xlink:title=" ">
<path fill="none" stroke="#63b8ff" d="M1257.39,-165.34C1270.97,-157.31 1291.08,-145.41 1307.02,-135.98"/>
<polygon fill="#63b8ff" stroke="#63b8ff" points="1308.66,-139.08 1315.48,-130.97 1305.09,-133.05 1308.66,-139.08"/>
</a>
</g>
</g>
<!-- Node14 -->
<g id="Node000014" class="node">
<title>Node14</title>
<g id="a_Node000014"><a xlink:title=" ">
<polygon fill="#e0e0e0" stroke="#999999" points="1429.62,-129.75 1380.62,-129.75 1380.62,-110.5 1429.62,-110.5 1429.62,-129.75"/>
<text text-anchor="middle" x="1405.12" y="-116.25" font-family="Helvetica,sans-Serif" font-size="10.00">TTree.h</text>
</a>
</g>
</g>
<!-- Node8&#45;&gt;Node14 -->
<g id="edge14_Node000008_Node000014" class="edge">
<title>Node8&#45;&gt;Node14</title>
<g id="a_edge14_Node000008_Node000014"><a xlink:title=" ">
<path fill="none" stroke="#63b8ff" d="M1269.78,-165.34C1297.24,-156.37 1339.47,-142.57 1369.45,-132.78"/>
<polygon fill="#63b8ff" stroke="#63b8ff" points="1370.42,-136.14 1378.84,-129.71 1368.25,-129.49 1370.42,-136.14"/>
</a>
</g>
</g>
<!-- Node15 -->
<g id="Node000015" class="node">
<title>Node15</title>
<g id="a_Node000015"><a xlink:title=" ">
<polygon fill="#e0e0e0" stroke="#999999" points="1503,-129.75 1447.25,-129.75 1447.25,-110.5 1503,-110.5 1503,-129.75"/>
<text text-anchor="middle" x="1475.12" y="-116.25" font-family="Helvetica,sans-Serif" font-size="10.00">TGraph.h</text>
</a>
</g>
</g>
<!-- Node8&#45;&gt;Node15 -->
<g id="edge15_Node000008_Node000015" class="edge">
<title>Node8&#45;&gt;Node15</title>
<g id="a_edge15_Node000008_Node000015"><a xlink:title=" ">
<path fill="none" stroke="#63b8ff" d="M1274.92,-167.08C1311.82,-158.84 1373.87,-144.9 1435.7,-130.53"/>
<polygon fill="#63b8ff" stroke="#63b8ff" points="1436.41,-133.96 1445.36,-128.28 1434.83,-127.14 1436.41,-133.96"/>
</a>
</g>
</g>
<!-- Node16 -->
<g id="Node000016" class="node">
<title>Node16</title>
<g id="a_Node000016"><a xlink:title=" ">
<polygon fill="#e0e0e0" stroke="#999999" points="1590.75,-129.75 1521.5,-129.75 1521.5,-110.5 1590.75,-110.5 1590.75,-129.75"/>
<text text-anchor="middle" x="1556.12" y="-116.25" font-family="Helvetica,sans-Serif" font-size="10.00">TClassRef.h</text>
</a>
</g>
</g>
<!-- Node8&#45;&gt;Node16 -->
<g id="edge16_Node000008_Node000016" class="edge">
<title>Node8&#45;&gt;Node16</title>
<g id="a_edge16_Node000008_Node000016"><a xlink:title=" ">
<path fill="none" stroke="#63b8ff" d="M1274.6,-169.33C1323.38,-161.68 1418.73,-146.45 1509.98,-130.09"/>
<polygon fill="#63b8ff" stroke="#63b8ff" points="1510.37,-133.58 1519.59,-128.36 1509.13,-126.69 1510.37,-133.58"/>
</a>
</g>
</g>
<!-- Node17 -->
<g id="Node000017" class="node">
<title>Node17</title>
<g id="a_Node000017"><a xlink:href="_t_priority_value_8h.html" target="_top" xlink:title=" ">
<polygon fill="white" stroke="#666666" points="1121.25,-129.75 1037,-129.75 1037,-110.5 1121.25,-110.5 1121.25,-129.75"/>
<text text-anchor="middle" x="1079.12" y="-116.25" font-family="Helvetica,sans-Serif" font-size="10.00">TPriorityValue.h</text>
</a>
</g>
</g>
<!-- Node8&#45;&gt;Node17 -->
<g id="edge17_Node000008_Node000017" class="edge">
<title>Node8&#45;&gt;Node17</title>
<g id="a_edge17_Node000008_Node000017"><a xlink:title=" ">
<path fill="none" stroke="#63b8ff" d="M1214.47,-165.34C1187.9,-156.66 1147.49,-143.46 1117.74,-133.74"/>
<polygon fill="#63b8ff" stroke="#63b8ff" points="1118.94,-130.45 1108.35,-130.67 1116.77,-137.1 1118.94,-130.45"/>
</a>
</g>
</g>
<!-- Node17&#45;&gt;Node3 -->
<g id="edge20_Node000017_Node000003" class="edge">
<title>Node17&#45;&gt;Node3</title>
<g id="a_edge20_Node000017_Node000003"><a xlink:title=" ">
<path fill="none" stroke="#63b8ff" d="M1121.66,-111.67C1124.52,-111.25 1127.36,-110.85 1130.12,-110.5 1308.45,-87.63 1523.53,-72.96 1604.83,-67.88"/>
<polygon fill="#63b8ff" stroke="#63b8ff" points="1605,-71.37 1614.76,-67.26 1604.56,-64.39 1605,-71.37"/>
</a>
</g>
</g>
<!-- Node17&#45;&gt;Node9 -->
<g id="edge19_Node000017_Node000009" class="edge">
<title>Node17&#45;&gt;Node9</title>
<g id="a_edge19_Node000017_Node000009"><a xlink:title=" ">
<path fill="none" stroke="#63b8ff" d="M1073.4,-110.25C1062.01,-92.6 1036.34,-52.8 1021.11,-29.2"/>
<polygon fill="#63b8ff" stroke="#63b8ff" points="1024.12,-27.4 1015.75,-20.9 1018.23,-31.2 1024.12,-27.4"/>
</a>
</g>
</g>
<!-- Node18 -->
<g id="Node000018" class="node">
<title>Node18</title>
<g id="a_Node000018"><a xlink:title=" ">
<polygon fill="#e0e0e0" stroke="#999999" points="1126.75,-74.5 1075.5,-74.5 1075.5,-55.25 1126.75,-55.25 1126.75,-74.5"/>
<text text-anchor="middle" x="1101.12" y="-61" font-family="Helvetica,sans-Serif" font-size="10.00">ostream</text>
</a>
</g>
</g>
<!-- Node17&#45;&gt;Node18 -->
<g id="edge18_Node000017_Node000018" class="edge">
<title>Node17&#45;&gt;Node18</title>
<g id="a_edge18_Node000017_Node000018"><a xlink:title=" ">
<path fill="none" stroke="#63b8ff" d="M1082.76,-110.33C1085.54,-103.59 1089.5,-94.02 1093.02,-85.49"/>
<polygon fill="#63b8ff" stroke="#63b8ff" points="1096.25,-86.84 1096.84,-76.26 1089.78,-84.16 1096.25,-86.84"/>
</a>
</g>
</g>
<!-- Node22&#45;&gt;Node5 -->
<g id="edge29_Node000022_Node000005" class="edge">
<title>Node22&#45;&gt;Node5</title>
<g id="a_edge29_Node000022_Node000005"><a xlink:title=" ">
<path fill="none" stroke="#63b8ff" d="M759.53,-167.76C756.7,-167.06 753.85,-166.38 751.12,-165.75 674.6,-148.09 653.64,-151.34 578.12,-129.75 527.59,-115.3 470.72,-93.29 436.16,-79.25"/>
<polygon fill="#63b8ff" stroke="#63b8ff" points="437.74,-76.11 427.16,-75.56 435.09,-82.59 437.74,-76.11"/>
</a>
</g>
</g>
<!-- Node22&#45;&gt;Node11 -->
<g id="edge27_Node000022_Node000011" class="edge">
<title>Node22&#45;&gt;Node11</title>
<g id="a_edge27_Node000022_Node000011"><a xlink:title=" ">
<path fill="none" stroke="#63b8ff" d="M810.86,-166.63C842.91,-156.99 897.57,-140.55 931.67,-130.29"/>
<polygon fill="#63b8ff" stroke="#63b8ff" points="932.36,-133.73 940.93,-127.5 930.35,-127.03 932.36,-133.73"/>
</a>
</g>
</g>
<!-- Node23 -->
<g id="Node000023" class="node">
<title>Node23</title>
<g id="a_Node000023"><a xlink:title=" ">
<polygon fill="#e0e0e0" stroke="#999999" points="887.5,-129.75 852.75,-129.75 852.75,-110.5 887.5,-110.5 887.5,-129.75"/>
<text text-anchor="middle" x="870.12" y="-116.25" font-family="Helvetica,sans-Serif" font-size="10.00">map</text>
</a>
</g>
</g>
<!-- Node22&#45;&gt;Node23 -->
<g id="edge26_Node000022_Node000023" class="edge">
<title>Node22&#45;&gt;Node23</title>
<g id="a_edge26_Node000022_Node000023"><a xlink:title=" ">
<path fill="none" stroke="#63b8ff" d="M799.54,-165.34C812.24,-157.39 831,-145.64 845.98,-136.25"/>
<polygon fill="#63b8ff" stroke="#63b8ff" points="847.74,-139.28 854.35,-131.01 844.02,-133.35 847.74,-139.28"/>
</a>
</g>
</g>
<!-- Node22&#45;&gt;Node24 -->
<g id="edge28_Node000022_Node000024" class="edge">
<title>Node22&#45;&gt;Node24</title>
<g id="a_edge28_Node000022_Node000024"><a xlink:title=" ">
<path fill="none" stroke="#63b8ff" d="M792.33,-165.57C813.6,-139.58 876.39,-62.84 904.84,-28.09"/>
<polygon fill="#63b8ff" stroke="#63b8ff" points="907.3,-30.6 910.93,-20.64 901.88,-26.17 907.3,-30.6"/>
</a>
</g>
</g>
<!-- Node25 -->
<g id="Node000025" class="node">
<title>Node25</title>
<g id="a_Node000025"><a xlink:title=" ">
<polygon fill="#e0e0e0" stroke="#999999" points="797.25,-129.75 725,-129.75 725,-110.5 797.25,-110.5 797.25,-129.75"/>
<text text-anchor="middle" x="761.12" y="-116.25" font-family="Helvetica,sans-Serif" font-size="10.00">TCollection.h</text>
</a>
</g>
</g>
<!-- Node22&#45;&gt;Node25 -->
<g id="edge30_Node000022_Node000025" class="edge">
<title>Node22&#45;&gt;Node25</title>
<g id="a_edge30_Node000022_Node000025"><a xlink:title=" ">
<path fill="none" stroke="#63b8ff" d="M781.16,-165.58C778.09,-158.76 773.71,-149.06 769.84,-140.45"/>
<polygon fill="#63b8ff" stroke="#63b8ff" points="773.1,-139.17 765.8,-131.49 766.71,-142.04 773.1,-139.17"/>
</a>
</g>
</g>
<!-- Node26 -->
<g id="Node000026" class="node">
<title>Node26</title>
<g id="a_Node000026"><a xlink:href="_globals_8h.html" target="_top" xlink:title=" ">
<polygon fill="white" stroke="#666666" points="507.38,-74.5 450.88,-74.5 450.88,-55.25 507.38,-55.25 507.38,-74.5"/>
<text text-anchor="middle" x="479.12" y="-61" font-family="Helvetica,sans-Serif" font-size="10.00">Globals.h</text>
</a>
</g>
</g>
<!-- Node22&#45;&gt;Node26 -->
<g id="edge31_Node000022_Node000026" class="edge">
<title>Node22&#45;&gt;Node26</title>
<g id="a_edge31_Node000022_Node000026"><a xlink:title=" ">
<path fill="none" stroke="#63b8ff" d="M759.45,-167.51C721.53,-157.29 652.43,-138.37 628.12,-129.75 585.6,-114.66 537.91,-93.42 508.19,-79.65"/>
<polygon fill="#63b8ff" stroke="#63b8ff" points="510.01,-76.64 499.47,-75.58 507.05,-82.98 510.01,-76.64"/>
</a>
</g>
</g>
<!-- Node38 -->
<g id="Node000038" class="node">
<title>Node38</title>
<g id="a_Node000038"><a xlink:href="_t_singleton_8h.html" target="_top" xlink:title=" ">
<polygon fill="white" stroke="#666666" points="707.12,-129.75 637.12,-129.75 637.12,-110.5 707.12,-110.5 707.12,-129.75"/>
<text text-anchor="middle" x="672.12" y="-116.25" font-family="Helvetica,sans-Serif" font-size="10.00">TSingleton.h</text>
</a>
</g>
</g>
<!-- Node22&#45;&gt;Node38 -->
<g id="edge47_Node000022_Node000038" class="edge">
<title>Node22&#45;&gt;Node38</title>
<g id="a_edge47_Node000022_Node000038"><a xlink:title=" ">
<path fill="none" stroke="#63b8ff" d="M765.96,-165.34C748.34,-157.04 721.97,-144.61 701.66,-135.04"/>
<polygon fill="#63b8ff" stroke="#63b8ff" points="703.3,-131.94 692.76,-130.85 700.31,-138.28 703.3,-131.94"/>
</a>
</g>
</g>
<!-- Node26&#45;&gt;Node2 -->
<g id="edge36_Node000026_Node000002" class="edge">
<title>Node26&#45;&gt;Node2</title>
<g id="a_edge36_Node000026_Node000002"><a xlink:title=" ">
<path fill="none" stroke="#63b8ff" d="M450.52,-56.8C447.69,-56.22 444.86,-55.69 442.12,-55.25 273.47,-27.96 224.67,-50.51 53.8,-19.41"/>
<polygon fill="#63b8ff" stroke="#63b8ff" points="54.6,-16 44.13,-17.61 53.32,-22.88 54.6,-16"/>
</a>
</g>
</g>
<!-- Node26&#45;&gt;Node4 -->
<g id="edge43_Node000026_Node000004" class="edge">
<title>Node26&#45;&gt;Node4</title>
<g id="a_edge43_Node000026_Node000004"><a xlink:title=" ">
<path fill="none" stroke="#63b8ff" d="M450.51,-56.85C447.69,-56.27 444.86,-55.72 442.12,-55.25 303.38,-31.43 263.27,-44.37 121.92,-19.52"/>
<polygon fill="#63b8ff" stroke="#63b8ff" points="122.61,-16.09 112.15,-17.77 121.38,-22.98 122.61,-16.09"/>
</a>
</g>
</g>
<!-- Node26&#45;&gt;Node9 -->
<g id="edge35_Node000026_Node000009" class="edge">
<title>Node26&#45;&gt;Node9</title>
<g id="a_edge35_Node000026_Node000009"><a xlink:title=" ">
<path fill="none" stroke="#63b8ff" d="M507.6,-60.43C521.6,-58.78 538.74,-56.83 554.12,-55.25 732.13,-37.03 777.56,-41.37 955.12,-19.25 962.33,-18.35 970.06,-17.22 977.34,-16.07"/>
<polygon fill="#63b8ff" stroke="#63b8ff" points="977.86,-19.54 987.16,-14.48 976.73,-12.63 977.86,-19.54"/>
</a>
</g>
</g>
<!-- Node26&#45;&gt;Node24 -->
<g id="edge32_Node000026_Node000024" class="edge">
<title>Node26&#45;&gt;Node24</title>
<g id="a_edge32_Node000026_Node000024"><a xlink:title=" ">
<path fill="none" stroke="#63b8ff" d="M507.52,-57.63C512.06,-56.75 516.71,-55.92 521.12,-55.25 677.38,-31.5 721.72,-45.48 880.92,-19.39"/>
<polygon fill="#63b8ff" stroke="#63b8ff" points="881.3,-22.87 890.59,-17.77 880.15,-15.97 881.3,-22.87"/>
</a>
</g>
</g>
<!-- Node27 -->
<g id="Node000027" class="node">
<title>Node27</title>
<g id="a_Node000027"><a xlink:title=" ">
<polygon fill="#e0e0e0" stroke="#999999" points="798,-19.25 748.25,-19.25 748.25,0 798,0 798,-19.25"/>
<text text-anchor="middle" x="773.12" y="-5.75" font-family="Helvetica,sans-Serif" font-size="10.00">iomanip</text>
</a>
</g>
</g>
<!-- Node26&#45;&gt;Node27 -->
<g id="edge33_Node000026_Node000027" class="edge">
<title>Node26&#45;&gt;Node27</title>
<g id="a_edge33_Node000026_Node000027"><a xlink:title=" ">
<path fill="none" stroke="#63b8ff" d="M507.56,-57.88C512.09,-56.97 516.73,-56.06 521.12,-55.25 614.2,-38.02 641.08,-39.22 736.86,-19.57"/>
<polygon fill="#63b8ff" stroke="#63b8ff" points="737.37,-23.04 746.45,-17.58 735.94,-16.19 737.37,-23.04"/>
</a>
</g>
</g>
<!-- Node28 -->
<g id="Node000028" class="node">
<title>Node28</title>
<g id="a_Node000028"><a xlink:title=" ">
<polygon fill="#e0e0e0" stroke="#999999" points="874.12,-19.25 816.12,-19.25 816.12,0 874.12,0 874.12,-19.25"/>
<text text-anchor="middle" x="845.12" y="-5.75" font-family="Helvetica,sans-Serif" font-size="10.00">stdexcept</text>
</a>
</g>
</g>
<!-- Node26&#45;&gt;Node28 -->
<g id="edge34_Node000026_Node000028" class="edge">
<title>Node26&#45;&gt;Node28</title>
<g id="a_edge34_Node000026_Node000028"><a xlink:title=" ">
<path fill="none" stroke="#63b8ff" d="M507.54,-57.73C512.07,-56.84 516.72,-55.98 521.12,-55.25 643.94,-34.94 678.98,-41.08 804.51,-19.55"/>
<polygon fill="#63b8ff" stroke="#63b8ff" points="804.98,-23.02 814.23,-17.86 803.78,-16.13 804.98,-23.02"/>
</a>
</g>
</g>
<!-- Node29 -->
<g id="Node000029" class="node">
<title>Node29</title>
<g id="a_Node000029"><a xlink:title=" ">
<polygon fill="#e0e0e0" stroke="#999999" points="173.75,-19.25 128.5,-19.25 128.5,0 173.75,0 173.75,-19.25"/>
<text text-anchor="middle" x="151.12" y="-5.75" font-family="Helvetica,sans-Serif" font-size="10.00">cstdint</text>
</a>
</g>
</g>
<!-- Node26&#45;&gt;Node29 -->
<g id="edge37_Node000026_Node000029" class="edge">
<title>Node26&#45;&gt;Node29</title>
<g id="a_edge37_Node000026_Node000029"><a xlink:title=" ">
<path fill="none" stroke="#63b8ff" d="M450.5,-56.93C447.67,-56.33 444.85,-55.76 442.12,-55.25 331.43,-34.7 299.02,-41.92 185.37,-19.46"/>
<polygon fill="#63b8ff" stroke="#63b8ff" points="186.09,-16.03 175.6,-17.49 184.71,-22.9 186.09,-16.03"/>
</a>
</g>
</g>
<!-- Node30 -->
<g id="Node000030" class="node">
<title>Node30</title>
<g id="a_Node000030"><a xlink:title=" ">
<polygon fill="#e0e0e0" stroke="#999999" points="236.38,-19.25 191.88,-19.25 191.88,0 236.38,0 236.38,-19.25"/>
<text text-anchor="middle" x="214.12" y="-5.75" font-family="Helvetica,sans-Serif" font-size="10.00">cstdlib</text>
</a>
</g>
</g>
<!-- Node26&#45;&gt;Node30 -->
<g id="edge38_Node000026_Node000030" class="edge">
<title>Node26&#45;&gt;Node30</title>
<g id="a_edge38_Node000026_Node000030"><a xlink:title=" ">
<path fill="none" stroke="#63b8ff" d="M450.47,-57.05C447.66,-56.42 444.84,-55.81 442.12,-55.25 358.47,-37.87 333.82,-39.07 247.84,-19.71"/>
<polygon fill="#63b8ff" stroke="#63b8ff" points="248.76,-16.33 238.23,-17.51 247.2,-23.15 248.76,-16.33"/>
</a>
</g>
</g>
<!-- Node31 -->
<g id="Node000031" class="node">
<title>Node31</title>
<g id="a_Node000031"><a xlink:title=" ">
<polygon fill="#e0e0e0" stroke="#999999" points="313.88,-19.25 254.38,-19.25 254.38,0 313.88,0 313.88,-19.25"/>
<text text-anchor="middle" x="284.12" y="-5.75" font-family="Helvetica,sans-Serif" font-size="10.00">execinfo.h</text>
</a>
</g>
</g>
<!-- Node26&#45;&gt;Node31 -->
<g id="edge39_Node000026_Node000031" class="edge">
<title>Node26&#45;&gt;Node31</title>
<g id="a_edge39_Node000026_Node000031"><a xlink:title=" ">
<path fill="none" stroke="#63b8ff" d="M450.77,-56.13C417.74,-47.11 362.91,-32.14 325.22,-21.85"/>
<polygon fill="#63b8ff" stroke="#63b8ff" points="326.14,-18.47 315.58,-19.21 324.3,-25.22 326.14,-18.47"/>
</a>
</g>
</g>
<!-- Node32 -->
<g id="Node000032" class="node">
<title>Node32</title>
<g id="a_Node000032"><a xlink:title=" ">
<polygon fill="#e0e0e0" stroke="#999999" points="382.38,-19.25 331.88,-19.25 331.88,0 382.38,0 382.38,-19.25"/>
<text text-anchor="middle" x="357.12" y="-5.75" font-family="Helvetica,sans-Serif" font-size="10.00">cxxabi.h</text>
</a>
</g>
</g>
<!-- Node26&#45;&gt;Node32 -->
<g id="edge40_Node000026_Node000032" class="edge">
<title>Node26&#45;&gt;Node32</title>
<g id="a_edge40_Node000026_Node000032"><a xlink:title=" ">
<path fill="none" stroke="#63b8ff" d="M458.43,-54.84C439.24,-46.47 410.41,-33.88 388.41,-24.28"/>
<polygon fill="#63b8ff" stroke="#63b8ff" points="389.87,-21.1 379.31,-20.31 387.07,-27.52 389.87,-21.1"/>
</a>
</g>
</g>
<!-- Node33 -->
<g id="Node000033" class="node">
<title>Node33</title>
<g id="a_Node000033"><a xlink:title=" ">
<polygon fill="#e0e0e0" stroke="#999999" points="451.75,-19.25 400.5,-19.25 400.5,0 451.75,0 451.75,-19.25"/>
<text text-anchor="middle" x="426.12" y="-5.75" font-family="Helvetica,sans-Serif" font-size="10.00">sstream</text>
</a>
</g>
</g>
<!-- Node26&#45;&gt;Node33 -->
<g id="edge41_Node000026_Node000033" class="edge">
<title>Node26&#45;&gt;Node33</title>
<g id="a_edge41_Node000026_Node000033"><a xlink:title=" ">
<path fill="none" stroke="#63b8ff" d="M470.37,-55.08C462.98,-47.65 452.16,-36.79 443.08,-27.66"/>
<polygon fill="#63b8ff" stroke="#63b8ff" points="445.67,-25.3 436.13,-20.68 440.71,-30.24 445.67,-25.3"/>
</a>
</g>
</g>
<!-- Node34 -->
<g id="Node000034" class="node">
<title>Node34</title>
<g id="a_Node000034"><a xlink:title=" ">
<polygon fill="#e0e0e0" stroke="#999999" points="506.62,-19.25 469.62,-19.25 469.62,0 506.62,0 506.62,-19.25"/>
<text text-anchor="middle" x="488.12" y="-5.75" font-family="Helvetica,sans-Serif" font-size="10.00">array</text>
</a>
</g>
</g>
<!-- Node26&#45;&gt;Node34 -->
<g id="edge42_Node000026_Node000034" class="edge">
<title>Node26&#45;&gt;Node34</title>
<g id="a_edge42_Node000026_Node000034"><a xlink:title=" ">
<path fill="none" stroke="#63b8ff" d="M480.61,-55.08C481.72,-48.49 483.29,-39.21 484.71,-30.82"/>
<polygon fill="#63b8ff" stroke="#63b8ff" points="488.14,-31.55 486.35,-21.1 481.24,-30.38 488.14,-31.55"/>
</a>
</g>
</g>
<!-- Node35 -->
<g id="Node000035" class="node">
<title>Node35</title>
<g id="a_Node000035"><a xlink:title=" ">
<polygon fill="#e0e0e0" stroke="#999999" points="574,-19.25 524.25,-19.25 524.25,0 574,0 574,-19.25"/>
<text text-anchor="middle" x="549.12" y="-5.75" font-family="Helvetica,sans-Serif" font-size="10.00">unistd.h</text>
</a>
</g>
</g>
<!-- Node26&#45;&gt;Node35 -->
<g id="edge44_Node000026_Node000035" class="edge">
<title>Node26&#45;&gt;Node35</title>
<g id="a_edge44_Node000026_Node000035"><a xlink:title=" ">
<path fill="none" stroke="#63b8ff" d="M491,-54.84C501.22,-47.07 516.2,-35.67 528.39,-26.4"/>
<polygon fill="#63b8ff" stroke="#63b8ff" points="530.38,-29.28 536.22,-20.44 526.14,-23.71 530.38,-29.28"/>
</a>
</g>
</g>
<!-- Node36 -->
<g id="Node000036" class="node">
<title>Node36</title>
<g id="a_Node000036"><a xlink:title=" ">
<polygon fill="#e0e0e0" stroke="#999999" points="651.88,-19.25 592.38,-19.25 592.38,0 651.88,0 651.88,-19.25"/>
<text text-anchor="middle" x="622.12" y="-5.75" font-family="Helvetica,sans-Serif" font-size="10.00">sys/wait.h</text>
</a>
</g>
</g>
<!-- Node26&#45;&gt;Node36 -->
<g id="edge45_Node000026_Node000036" class="edge">
<title>Node26&#45;&gt;Node36</title>
<g id="a_edge45_Node000026_Node000036"><a xlink:title=" ">
<path fill="none" stroke="#63b8ff" d="M503.38,-54.84C526.39,-46.27 561.22,-33.31 587.21,-23.63"/>
<polygon fill="#63b8ff" stroke="#63b8ff" points="588.18,-27 596.33,-20.23 585.74,-20.44 588.18,-27"/>
</a>
</g>
</g>
<!-- Node37 -->
<g id="Node000037" class="node">
<title>Node37</title>
<g id="a_Node000037"><a xlink:title=" ">
<polygon fill="#e0e0e0" stroke="#999999" points="730.25,-19.25 670,-19.25 670,0 730.25,0 730.25,-19.25"/>
<text text-anchor="middle" x="700.12" y="-5.75" font-family="Helvetica,sans-Serif" font-size="10.00">sys/prctl.h</text>
</a>
</g>
</g>
<!-- Node26&#45;&gt;Node37 -->
<g id="edge46_Node000026_Node000037" class="edge">
<title>Node26&#45;&gt;Node37</title>
<g id="a_edge46_Node000026_Node000037"><a xlink:title=" ">
<path fill="none" stroke="#63b8ff" d="M507.56,-57.02C545.96,-47.77 614.63,-31.23 658.74,-20.6"/>
<polygon fill="#63b8ff" stroke="#63b8ff" points="659.3,-24.06 668.2,-18.32 657.66,-17.26 659.3,-24.06"/>
</a>
</g>
</g>
<!-- Node38&#45;&gt;Node5 -->
<g id="edge49_Node000038_Node000005" class="edge">
<title>Node38&#45;&gt;Node5</title>
<g id="a_edge49_Node000038_Node000005"><a xlink:title=" ">
<path fill="none" stroke="#63b8ff" d="M636.99,-112.66C593.93,-104.67 518.48,-90.41 444.47,-74.94"/>
<polygon fill="#63b8ff" stroke="#63b8ff" points="445.55,-71.59 435.04,-72.96 444.11,-78.44 445.55,-71.59"/>
</a>
</g>
</g>
<!-- Node38&#45;&gt;Node24 -->
<g id="edge48_Node000038_Node000024" class="edge">
<title>Node38&#45;&gt;Node24</title>
<g id="a_edge48_Node000038_Node000024"><a xlink:title=" ">
<path fill="none" stroke="#63b8ff" d="M707.41,-110.86C747.5,-101.19 810.21,-85.16 832.12,-74.5 858.14,-61.85 884.43,-41.22 901.19,-26.84"/>
<polygon fill="#63b8ff" stroke="#63b8ff" points="903.11,-29.81 908.32,-20.58 898.5,-24.55 903.11,-29.81"/>
</a>
</g>
</g>
<!-- Node38&#45;&gt;Node26 -->
<g id="edge54_Node000038_Node000026" class="edge">
<title>Node38&#45;&gt;Node26</title>
<g id="a_edge54_Node000038_Node000026"><a xlink:title=" ">
<path fill="none" stroke="#63b8ff" d="M639.39,-110.09C606,-100.88 554.19,-86.59 518.57,-76.76"/>
<polygon fill="#63b8ff" stroke="#63b8ff" points="519.65,-73.42 509.07,-74.14 517.78,-80.17 519.65,-73.42"/>
</a>
</g>
</g>
<!-- Node39 -->
<g id="Node000039" class="node">
<title>Node39</title>
<g id="a_Node000039"><a xlink:title=" ">
<polygon fill="#e0e0e0" stroke="#999999" points="631,-74.5 563.25,-74.5 563.25,-55.25 631,-55.25 631,-74.5"/>
<text text-anchor="middle" x="597.12" y="-61" font-family="Helvetica,sans-Serif" font-size="10.00">TDirectory.h</text>
</a>
</g>
</g>
<!-- Node38&#45;&gt;Node39 -->
<g id="edge50_Node000038_Node000039" class="edge">
<title>Node38&#45;&gt;Node39</title>
<g id="a_edge50_Node000038_Node000039"><a xlink:title=" ">
<path fill="none" stroke="#63b8ff" d="M659.4,-110.09C648.41,-102.29 632.28,-90.84 619.19,-81.54"/>
<polygon fill="#63b8ff" stroke="#63b8ff" points="621.32,-78.76 611.14,-75.83 617.27,-84.47 621.32,-78.76"/>
</a>
</g>
</g>
<!-- Node40 -->
<g id="Node000040" class="node">
<title>Node40</title>
<g id="a_Node000040"><a xlink:title=" ">
<polygon fill="#e0e0e0" stroke="#999999" points="694.75,-74.5 649.5,-74.5 649.5,-55.25 694.75,-55.25 694.75,-74.5"/>
<text text-anchor="middle" x="672.12" y="-61" font-family="Helvetica,sans-Serif" font-size="10.00">TFile.h</text>
</a>
</g>
</g>
<!-- Node38&#45;&gt;Node40 -->
<g id="edge51_Node000038_Node000040" class="edge">
<title>Node38&#45;&gt;Node40</title>
<g id="a_edge51_Node000038_Node000040"><a xlink:title=" ">
<path fill="none" stroke="#63b8ff" d="M672.12,-110.33C672.12,-103.82 672.12,-94.67 672.12,-86.37"/>
<polygon fill="#63b8ff" stroke="#63b8ff" points="675.63,-86.37 672.13,-76.37 668.63,-86.37 675.63,-86.37"/>
</a>
</g>
</g>
<!-- Node41 -->
<g id="Node000041" class="node">
<title>Node41</title>
<g id="a_Node000041"><a xlink:title=" ">
<polygon fill="#e0e0e0" stroke="#999999" points="759.12,-74.5 713.12,-74.5 713.12,-55.25 759.12,-55.25 759.12,-74.5"/>
<text text-anchor="middle" x="736.12" y="-61" font-family="Helvetica,sans-Serif" font-size="10.00">TList.h</text>
</a>
</g>
</g>
<!-- Node38&#45;&gt;Node41 -->
<g id="edge52_Node000038_Node000041" class="edge">
<title>Node38&#45;&gt;Node41</title>
<g id="a_edge52_Node000038_Node000041"><a xlink:title=" ">
<path fill="none" stroke="#63b8ff" d="M682.98,-110.09C692.23,-102.4 705.75,-91.15 716.83,-81.93"/>
<polygon fill="#63b8ff" stroke="#63b8ff" points="718.82,-84.83 724.27,-75.74 714.34,-79.45 718.82,-84.83"/>
</a>
</g>
</g>
<!-- Node42 -->
<g id="Node000042" class="node">
<title>Node42</title>
<g id="a_Node000042"><a xlink:title=" ">
<polygon fill="#e0e0e0" stroke="#999999" points="823.12,-74.5 777.12,-74.5 777.12,-55.25 823.12,-55.25 823.12,-74.5"/>
<text text-anchor="middle" x="800.12" y="-61" font-family="Helvetica,sans-Serif" font-size="10.00">TKey.h</text>
</a>
</g>
</g>
<!-- Node38&#45;&gt;Node42 -->
<g id="edge53_Node000038_Node000042" class="edge">
<title>Node38&#45;&gt;Node42</title>
<g id="a_edge53_Node000038_Node000042"><a xlink:title=" ">
<path fill="none" stroke="#63b8ff" d="M693.84,-110.09C714.16,-101.64 744.77,-88.9 767.93,-79.27"/>
<polygon fill="#63b8ff" stroke="#63b8ff" points="769.02,-82.61 776.91,-75.53 766.33,-76.14 769.02,-82.61"/>
</a>
</g>
</g>
<!-- Node43&#45;&gt;Node24 -->
<g id="edge56_Node000043_Node000024" class="edge">
<title>Node43&#45;&gt;Node24</title>
<g id="a_edge56_Node000043_Node000024"><a xlink:title=" ">
<path fill="none" stroke="#63b8ff" d="M600.46,-165.31C576.57,-143.97 523.21,-89.73 554.12,-55.25 601.11,-2.84 793.13,-29.31 880.9,-19.1"/>
<polygon fill="#63b8ff" stroke="#63b8ff" points="881.18,-22.6 890.58,-17.71 880.18,-15.67 881.18,-22.6"/>
</a>
</g>
</g>
<!-- Node44 -->
<g id="Node000044" class="node">
<title>Node44</title>
<g id="a_Node000044"><a xlink:title=" ">
<polygon fill="#e0e0e0" stroke="#999999" points="505,-129.75 431.25,-129.75 431.25,-110.5 505,-110.5 505,-129.75"/>
<text text-anchor="middle" x="468.12" y="-116.25" font-family="Helvetica,sans-Serif" font-size="10.00">RtypesCore.h</text>
</a>
</g>
</g>
<!-- Node43&#45;&gt;Node44 -->
<g id="edge57_Node000043_Node000044" class="edge">
<title>Node43&#45;&gt;Node44</title>
<g id="a_edge57_Node000043_Node000044"><a xlink:title=" ">
<path fill="none" stroke="#63b8ff" d="M586.87,-165.34C563.86,-156.77 529.03,-143.81 503.04,-134.13"/>
<polygon fill="#63b8ff" stroke="#63b8ff" points="504.51,-130.94 493.92,-130.73 502.07,-137.5 504.51,-130.94"/>
</a>
</g>
</g>
</g>
</svg>

<g id="navigator" transform="translate(0 0)" fill="#404254">
  <rect fill="#f2f5e9" fill-opacity="0.5" stroke="#606060" stroke-width=".5" x="0" y="0" width="60" height="60"/>
  <use id="zoomplus" xlink:href="#zoomPlus" x="17" y="9" onmousedown="handleZoom(evt,'in')"/>
  <use id="zoomminus" xlink:href="#zoomMin" x="42" y="9" onmousedown="handleZoom(evt,'out')"/>
  <use id="reset" xlink:href="#resetDef" x="30" y="36" onmousedown="handleReset()"/>
   <use id="arrowup" xlink:href="#arrowUp" x="0" y="0" onmousedown="handlePan(0,-1)"/>
  <use id="arrowright" xlink:href="#arrowRight" x="0" y="0" onmousedown="handlePan(1,0)"/>
  <use id="arrowdown" xlink:href="#arrowDown" x="0" y="0" onmousedown="handlePan(0,1)"/>
  <use id="arrowleft" xlink:href="#arrowLeft" x="0" y="0" onmousedown="handlePan(-1,0)"/>
</g>
<svg viewBox="0 0 15 15" width="100%" height="30px" preserveAspectRatio="xMaxYMin meet">
 <g id="arrow_out" transform="scale(0.3 0.3)">
  <a xlink:href="_t_detector_8h__incl_org.svg" target="_base">
   <rect id="button" ry="5" rx="5" y="6" x="6" height="38" width="38"
        fill="#f2f5e9" fill-opacity="0.5" stroke="#606060" stroke-width="1.0"/>
   <path id="arrow"
     d="M 11.500037,31.436501 C 11.940474,20.09759 22.043105,11.32322 32.158766,21.979434 L 37.068811,17.246167 C 37.068811,17.246167 37.088388,32 37.088388,32 L 22.160133,31.978069 C 22.160133,31.978069 26.997745,27.140456 26.997745,27.140456 C 18.528582,18.264221 13.291696,25.230495 11.500037,31.436501 z"
     style="fill:#404040;"/>
  </a>
 </g>
</svg>

<style type='text/css'>
<![CDATA[
[data-mouse-over-selected='false'] { opacity: 0.7; }
[data-mouse-over-selected='true']  { opacity: 1.0; }
]]>
</style>
<script type="application/ecmascript"><![CDATA[
document.addEventListener('DOMContentLoaded', (event) => {
  highlightEdges();
  highlightAdjacentNodes();
});
]]></script>
</svg>
