<?xml version="1.0" encoding="UTF-8" standalone="no"?>
<!DOCTYPE svg PUBLIC "-//W3C//DTD SVG 1.1//EN"
 "http://www.w3.org/Graphics/SVG/1.1/DTD/svg11.dtd">
<!-- Generated by graphviz version 12.2.0 (20241103.1931)
 -->
<!-- Title: TDetectorHit.h Pages: 1 -->
<!--zoomable 248 -->

<svg id="main" version="1.1" xmlns="http://www.w3.org/2000/svg" xmlns:xlink="http://www.w3.org/1999/xlink" xml:space="preserve" onload="init(evt)">

<style type="text/css"><![CDATA[
.node, .edge {opacity: 0.7;}
.node.selected, .edge.selected {opacity: 1;}
.edge:hover path { stroke: red; }
.edge:hover polygon { stroke: red; fill: red; }
]]></style>

<defs>
  <circle id="rim" cx="0" cy="0" r="7"/>
  <circle id="rim2" cx="0" cy="0" r="3.5"/>
  <g id="zoomPlus">
    <use xlink:href="#rim" fill="#404040"><set attributeName="fill" to="#808080" begin="zoomplus.mouseover" end="zoomplus.mouseout"/></use>
    <path d="M-4,0h8M0,-4v8" fill="none" stroke="white" stroke-width="1.5" pointer-events="none"/>
  </g>
  <g id="zoomMin">
    <use xlink:href="#rim" fill="#404040"><set attributeName="fill" to="#808080" begin="zoomminus.mouseover" end="zoomminus.mouseout"/></use>
    <path d="M-4,0h8" fill="none" stroke="white" stroke-width="1.5" pointer-events="none"/>
  </g>
  <g id="arrowUp" transform="translate(30 24)">
    <use xlink:href="#rim"/>
    <path pointer-events="none" fill="none" stroke="white" stroke-width="1.5" d="M0,-3.0v7 M-2.5,-0.5L0,-3.0L2.5,-0.5"/>
  </g>
  <g id="arrowRight" transform="rotate(90) translate(36 -43)">
    <use xlink:href="#rim"/>
    <path pointer-events="none" fill="none" stroke="white" stroke-width="1.5" d="M0,-3.0v7 M-2.5,-0.5L0,-3.0L2.5,-0.5"/>
  </g>
  <g id="arrowDown" transform="rotate(180) translate(-30 -48)">
    <use xlink:href="#rim"/>
    <path pointer-events="none" fill="none" stroke="white" stroke-width="1.5" d="M0,-3.0v7 M-2.5,-0.5L0,-3.0L2.5,-0.5"/>
  </g>
  <g id="arrowLeft" transform="rotate(270) translate(-36 17)">
    <use xlink:href="#rim"/>
    <path pointer-events="none" fill="none" stroke="white" stroke-width="1.5" d="M0,-3.0v7 M-2.5,-0.5L0,-3.0L2.5,-0.5"/>
  </g>
  <g id="resetDef">
    <use xlink:href="#rim2" fill="#404040"><set attributeName="fill" to="#808080" begin="reset.mouseover" end="reset.mouseout"/></use>
  </g>
</defs>
<script type="application/ecmascript">
var viewWidth = 1168;
var viewHeight = 248;
var sectionId = 'dynsection-0';
</script>
<script type="application/ecmascript" xlink:href="svg.min.js"/>
<svg id="graph" class="graph">
<g id="viewport">
<title>TDetectorHit.h</title>
<!-- Node1 -->
<g id="Node000001" class="node">
<title>Node1</title>
<g id="a_Node000001"><a xlink:title=" ">
<polygon fill="#999999" stroke="#666666" points="866.67,-240.25 787.67,-240.25 787.67,-221 866.67,-221 866.67,-240.25"/>
<text text-anchor="middle" x="827.17" y="-226.75" font-family="Helvetica,sans-Serif" font-size="10.00">TDetectorHit.h</text>
</a>
</g>
</g>
<!-- Node2 -->
<g id="Node000002" class="node">
<title>Node2</title>
<g id="a_Node000002"><a xlink:title=" ">
<polygon fill="#e0e0e0" stroke="#999999" points="105.67,-74.5 62.67,-74.5 62.67,-55.25 105.67,-55.25 105.67,-74.5"/>
<text text-anchor="middle" x="84.17" y="-61" font-family="Helvetica,sans-Serif" font-size="10.00">vector</text>
</a>
</g>
</g>
<!-- Node1&#45;&gt;Node2 -->
<g id="edge1_Node000001_Node000002" class="edge">
<title>Node1&#45;&gt;Node2</title>
<g id="a_edge1_Node000001_Node000002"><a xlink:title=" ">
<path fill="none" stroke="#63b8ff" d="M787.36,-227.89C629.87,-220.64 56.46,-190.22 5.17,-129.75 -13.14,-108.16 22.56,-88.54 51.75,-76.9"/>
<polygon fill="#63b8ff" stroke="#63b8ff" points="52.95,-80.18 61.07,-73.38 50.48,-73.64 52.95,-80.18"/>
</a>
</g>
</g>
<!-- Node3 -->
<g id="Node000003" class="node">
<title>Node3</title>
<g id="a_Node000003"><a xlink:href="_t_channel_8h.html" target="_top" xlink:title=" ">
<polygon fill="white" stroke="#666666" points="412.55,-185 347.8,-185 347.8,-165.75 412.55,-165.75 412.55,-185"/>
<text text-anchor="middle" x="380.17" y="-171.5" font-family="Helvetica,sans-Serif" font-size="10.00">TChannel.h</text>
</a>
</g>
</g>
<!-- Node1&#45;&gt;Node3 -->
<g id="edge2_Node000001_Node000003" class="edge">
<title>Node1&#45;&gt;Node3</title>
<g id="a_edge2_Node000001_Node000003"><a xlink:title=" ">
<path fill="none" stroke="#63b8ff" d="M787.5,-224.9C704.16,-214.97 511.38,-192.01 424.29,-181.63"/>
<polygon fill="#63b8ff" stroke="#63b8ff" points="424.82,-178.17 414.48,-180.46 423.99,-185.12 424.82,-178.17"/>
</a>
</g>
</g>
<!-- Node14 -->
<g id="Node000014" class="node">
<title>Node14</title>
<g id="a_Node000014"><a xlink:title=" ">
<polygon fill="#e0e0e0" stroke="#999999" points="748.8,-185 685.55,-185 685.55,-165.75 748.8,-165.75 748.8,-185"/>
<text text-anchor="middle" x="717.17" y="-171.5" font-family="Helvetica,sans-Serif" font-size="10.00">TVector3.h</text>
</a>
</g>
</g>
<!-- Node1&#45;&gt;Node14 -->
<g id="edge15_Node000001_Node000014" class="edge">
<title>Node1&#45;&gt;Node14</title>
<g id="a_edge15_Node000001_Node000014"><a xlink:title=" ">
<path fill="none" stroke="#63b8ff" d="M808.51,-220.59C791.45,-212.33 765.93,-199.98 746.2,-190.43"/>
<polygon fill="#63b8ff" stroke="#63b8ff" points="747.81,-187.32 737.29,-186.11 744.76,-193.62 747.81,-187.32"/>
</a>
</g>
</g>
<!-- Node15 -->
<g id="Node000015" class="node">
<title>Node15</title>
<g id="a_Node000015"><a xlink:title=" ">
<polygon fill="#e0e0e0" stroke="#999999" points="1131.17,-74.5 1073.17,-74.5 1073.17,-55.25 1131.17,-55.25 1131.17,-74.5"/>
<text text-anchor="middle" x="1102.17" y="-61" font-family="Helvetica,sans-Serif" font-size="10.00">TObject.h</text>
</a>
</g>
</g>
<!-- Node1&#45;&gt;Node15 -->
<g id="edge16_Node000001_Node000015" class="edge">
<title>Node1&#45;&gt;Node15</title>
<g id="a_edge16_Node000001_Node000015"><a xlink:title=" ">
<path fill="none" stroke="#63b8ff" d="M867.03,-224.02C899.77,-218.09 946.41,-206.5 982.17,-185 1021.63,-161.27 1021.3,-142.74 1054.17,-110.5 1063.8,-101.06 1074.8,-90.8 1083.84,-82.5"/>
<polygon fill="#63b8ff" stroke="#63b8ff" points="1085.96,-85.3 1090.98,-75.97 1081.24,-80.13 1085.96,-85.3"/>
</a>
</g>
</g>
<!-- Node16 -->
<g id="Node000016" class="node">
<title>Node16</title>
<g id="a_Node000016"><a xlink:title=" ">
<polygon fill="#e0e0e0" stroke="#999999" points="888.92,-185 835.42,-185 835.42,-165.75 888.92,-165.75 888.92,-185"/>
<text text-anchor="middle" x="862.17" y="-171.5" font-family="Helvetica,sans-Serif" font-size="10.00">Rtypes.h</text>
</a>
</g>
</g>
<!-- Node1&#45;&gt;Node16 -->
<g id="edge17_Node000001_Node000016" class="edge">
<title>Node1&#45;&gt;Node16</title>
<g id="a_edge17_Node000001_Node000016"><a xlink:title=" ">
<path fill="none" stroke="#63b8ff" d="M832.95,-220.83C837.58,-213.78 844.25,-203.65 850.04,-194.83"/>
<polygon fill="#63b8ff" stroke="#63b8ff" points="852.87,-196.9 855.44,-186.62 847.02,-193.06 852.87,-196.9"/>
</a>
</g>
</g>
<!-- Node17 -->
<g id="Node000017" class="node">
<title>Node17</title>
<g id="a_Node000017"><a xlink:title=" ">
<polygon fill="#e0e0e0" stroke="#999999" points="972.92,-185 907.42,-185 907.42,-165.75 972.92,-165.75 972.92,-185"/>
<text text-anchor="middle" x="940.17" y="-171.5" font-family="Helvetica,sans-Serif" font-size="10.00">TRandom.h</text>
</a>
</g>
</g>
<!-- Node1&#45;&gt;Node17 -->
<g id="edge18_Node000001_Node000017" class="edge">
<title>Node1&#45;&gt;Node17</title>
<g id="a_edge18_Node000001_Node000017"><a xlink:title=" ">
<path fill="none" stroke="#63b8ff" d="M846.34,-220.59C863.95,-212.29 890.33,-199.86 910.64,-190.29"/>
<polygon fill="#63b8ff" stroke="#63b8ff" points="911.99,-193.53 919.54,-186.1 909,-187.19 911.99,-193.53"/>
</a>
</g>
</g>
<!-- Node18 -->
<g id="Node000018" class="node">
<title>Node18</title>
<g id="a_Node000018"><a xlink:href="_t_p_p_g_8h.html" target="_top" xlink:title=" ">
<polygon fill="white" stroke="#666666" points="817.42,-185 766.92,-185 766.92,-165.75 817.42,-165.75 817.42,-185"/>
<text text-anchor="middle" x="792.17" y="-171.5" font-family="Helvetica,sans-Serif" font-size="10.00">TPPG.h</text>
</a>
</g>
</g>
<!-- Node1&#45;&gt;Node18 -->
<g id="edge19_Node000001_Node000018" class="edge">
<title>Node1&#45;&gt;Node18</title>
<g id="a_edge19_Node000001_Node000018"><a xlink:title=" ">
<path fill="none" stroke="#63b8ff" d="M821.39,-220.83C816.76,-213.78 810.1,-203.65 804.3,-194.83"/>
<polygon fill="#63b8ff" stroke="#63b8ff" points="807.33,-193.06 798.91,-186.62 801.48,-196.9 807.33,-193.06"/>
</a>
</g>
</g>
<!-- Node40 -->
<g id="Node000040" class="node">
<title>Node40</title>
<g id="a_Node000040"><a xlink:href="_t_transient_bits_8h.html" target="_top" xlink:title=" ">
<polygon fill="white" stroke="#666666" points="1150.8,-185 1063.55,-185 1063.55,-165.75 1150.8,-165.75 1150.8,-185"/>
<text text-anchor="middle" x="1107.17" y="-171.5" font-family="Helvetica,sans-Serif" font-size="10.00">TTransientBits.h</text>
</a>
</g>
</g>
<!-- Node1&#45;&gt;Node40 -->
<g id="edge48_Node000001_Node000040" class="edge">
<title>Node1&#45;&gt;Node40</title>
<g id="a_edge48_Node000001_Node000040"><a xlink:title=" ">
<path fill="none" stroke="#63b8ff" d="M866.99,-222.05C915.48,-212.83 997.64,-197.21 1052.15,-186.84"/>
<polygon fill="#63b8ff" stroke="#63b8ff" points="1052.68,-190.3 1061.85,-184.99 1051.38,-183.42 1052.68,-190.3"/>
</a>
</g>
</g>
<!-- Node4 -->
<g id="Node000004" class="node">
<title>Node4</title>
<g id="a_Node000004"><a xlink:title=" ">
<polygon fill="#e0e0e0" stroke="#999999" points="259.17,-19.25 219.17,-19.25 219.17,0 259.17,0 259.17,-19.25"/>
<text text-anchor="middle" x="239.17" y="-5.75" font-family="Helvetica,sans-Serif" font-size="10.00">string</text>
</a>
</g>
</g>
<!-- Node3&#45;&gt;Node4 -->
<g id="edge3_Node000003_Node000004" class="edge">
<title>Node3&#45;&gt;Node4</title>
<g id="a_edge3_Node000003_Node000004"><a xlink:title=" ">
<path fill="none" stroke="#63b8ff" d="M378.46,-165.45C373.92,-143.92 359.69,-88.49 328.17,-55.25 312.34,-38.55 288.91,-27.15 270.06,-20.06"/>
<polygon fill="#63b8ff" stroke="#63b8ff" points="271.33,-16.79 260.73,-16.78 269.01,-23.4 271.33,-16.79"/>
</a>
</g>
</g>
<!-- Node5 -->
<g id="Node000005" class="node">
<title>Node5</title>
<g id="a_Node000005"><a xlink:title=" ">
<polygon fill="#e0e0e0" stroke="#999999" points="426.67,-129.75 383.67,-129.75 383.67,-110.5 426.67,-110.5 426.67,-129.75"/>
<text text-anchor="middle" x="405.17" y="-116.25" font-family="Helvetica,sans-Serif" font-size="10.00">cmath</text>
</a>
</g>
</g>
<!-- Node3&#45;&gt;Node5 -->
<g id="edge4_Node000003_Node000005" class="edge">
<title>Node3&#45;&gt;Node5</title>
<g id="a_edge4_Node000003_Node000005"><a xlink:title=" ">
<path fill="none" stroke="#63b8ff" d="M384.3,-165.58C387.5,-158.76 392.06,-149.06 396.1,-140.45"/>
<polygon fill="#63b8ff" stroke="#63b8ff" points="399.23,-142.02 400.31,-131.48 392.89,-139.04 399.23,-142.02"/>
</a>
</g>
</g>
<!-- Node6 -->
<g id="Node000006" class="node">
<title>Node6</title>
<g id="a_Node000006"><a xlink:title=" ">
<polygon fill="#e0e0e0" stroke="#999999" points="663.42,-129.75 624.92,-129.75 624.92,-110.5 663.42,-110.5 663.42,-129.75"/>
<text text-anchor="middle" x="644.17" y="-116.25" font-family="Helvetica,sans-Serif" font-size="10.00">utility</text>
</a>
</g>
</g>
<!-- Node3&#45;&gt;Node6 -->
<g id="edge5_Node000003_Node000006" class="edge">
<title>Node3&#45;&gt;Node6</title>
<g id="a_edge5_Node000003_Node000006"><a xlink:title=" ">
<path fill="none" stroke="#63b8ff" d="M412.87,-169.38C456.6,-162.44 536.71,-148.84 613.81,-130.11"/>
<polygon fill="#63b8ff" stroke="#63b8ff" points="614.33,-133.59 623.2,-127.8 612.65,-126.8 614.33,-133.59"/>
</a>
</g>
</g>
<!-- Node7 -->
<g id="Node000007" class="node">
<title>Node7</title>
<g id="a_Node000007"><a xlink:title=" ">
<polygon fill="#e0e0e0" stroke="#999999" points="527.55,-129.75 444.8,-129.75 444.8,-110.5 527.55,-110.5 527.55,-129.75"/>
<text text-anchor="middle" x="486.17" y="-116.25" font-family="Helvetica,sans-Serif" font-size="10.00">unordered_map</text>
</a>
</g>
</g>
<!-- Node3&#45;&gt;Node7 -->
<g id="edge6_Node000003_Node000007" class="edge">
<title>Node3&#45;&gt;Node7</title>
<g id="a_edge6_Node000003_Node000007"><a xlink:title=" ">
<path fill="none" stroke="#63b8ff" d="M398.15,-165.34C414.52,-157.12 438.96,-144.84 457.94,-135.31"/>
<polygon fill="#63b8ff" stroke="#63b8ff" points="459.39,-138.5 466.75,-130.88 456.24,-132.24 459.39,-138.5"/>
</a>
</g>
</g>
<!-- Node8 -->
<g id="Node000008" class="node">
<title>Node8</title>
<g id="a_Node000008"><a xlink:title=" ">
<polygon fill="#e0e0e0" stroke="#999999" points="606.67,-129.75 545.67,-129.75 545.67,-110.5 606.67,-110.5 606.67,-129.75"/>
<text text-anchor="middle" x="576.17" y="-116.25" font-family="Helvetica,sans-Serif" font-size="10.00">TNamed.h</text>
</a>
</g>
</g>
<!-- Node3&#45;&gt;Node8 -->
<g id="edge7_Node000003_Node000008" class="edge">
<title>Node3&#45;&gt;Node8</title>
<g id="a_edge7_Node000003_Node000008"><a xlink:title=" ">
<path fill="none" stroke="#63b8ff" d="M412.98,-165.46C446.36,-156.39 498.21,-142.31 534.48,-132.45"/>
<polygon fill="#63b8ff" stroke="#63b8ff" points="535.01,-135.94 543.74,-129.94 533.17,-129.18 535.01,-135.94"/>
</a>
</g>
</g>
<!-- Node9 -->
<g id="Node000009" class="node">
<title>Node9</title>
<g id="a_Node000009"><a xlink:title=" ">
<polygon fill="#e0e0e0" stroke="#999999" points="63.67,-129.75 14.67,-129.75 14.67,-110.5 63.67,-110.5 63.67,-129.75"/>
<text text-anchor="middle" x="39.17" y="-116.25" font-family="Helvetica,sans-Serif" font-size="10.00">TTree.h</text>
</a>
</g>
</g>
<!-- Node3&#45;&gt;Node9 -->
<g id="edge8_Node000003_Node000009" class="edge">
<title>Node3&#45;&gt;Node9</title>
<g id="a_edge8_Node000003_Node000009"><a xlink:title=" ">
<path fill="none" stroke="#63b8ff" d="M347.6,-170.87C293.1,-164.74 179.82,-150.9 75.06,-130.15"/>
<polygon fill="#63b8ff" stroke="#63b8ff" points="75.95,-126.76 65.45,-128.22 74.57,-133.62 75.95,-126.76"/>
</a>
</g>
</g>
<!-- Node10 -->
<g id="Node000010" class="node">
<title>Node10</title>
<g id="a_Node000010"><a xlink:title=" ">
<polygon fill="#e0e0e0" stroke="#999999" points="137.05,-129.75 81.3,-129.75 81.3,-110.5 137.05,-110.5 137.05,-129.75"/>
<text text-anchor="middle" x="109.17" y="-116.25" font-family="Helvetica,sans-Serif" font-size="10.00">TGraph.h</text>
</a>
</g>
</g>
<!-- Node3&#45;&gt;Node10 -->
<g id="edge9_Node000003_Node000010" class="edge">
<title>Node3&#45;&gt;Node10</title>
<g id="a_edge9_Node000003_Node000010"><a xlink:title=" ">
<path fill="none" stroke="#63b8ff" d="M347.53,-168.58C304.27,-160.81 225.29,-146.3 148.28,-130.13"/>
<polygon fill="#63b8ff" stroke="#63b8ff" points="149.42,-126.79 138.91,-128.15 147.97,-133.64 149.42,-126.79"/>
</a>
</g>
</g>
<!-- Node11 -->
<g id="Node000011" class="node">
<title>Node11</title>
<g id="a_Node000011"><a xlink:title=" ">
<polygon fill="#e0e0e0" stroke="#999999" points="224.8,-129.75 155.55,-129.75 155.55,-110.5 224.8,-110.5 224.8,-129.75"/>
<text text-anchor="middle" x="190.17" y="-116.25" font-family="Helvetica,sans-Serif" font-size="10.00">TClassRef.h</text>
</a>
</g>
</g>
<!-- Node3&#45;&gt;Node11 -->
<g id="edge10_Node000003_Node000011" class="edge">
<title>Node3&#45;&gt;Node11</title>
<g id="a_edge10_Node000003_Node000011"><a xlink:title=" ">
<path fill="none" stroke="#63b8ff" d="M347.94,-165.34C316.41,-156.51 268.19,-142.99 233.36,-133.23"/>
<polygon fill="#63b8ff" stroke="#63b8ff" points="234.59,-129.94 224.02,-130.61 232.7,-136.68 234.59,-129.94"/>
</a>
</g>
</g>
<!-- Node12 -->
<g id="Node000012" class="node">
<title>Node12</title>
<g id="a_Node000012"><a xlink:href="_t_priority_value_8h.html" target="_top" xlink:title=" ">
<polygon fill="white" stroke="#666666" points="327.3,-129.75 243.05,-129.75 243.05,-110.5 327.3,-110.5 327.3,-129.75"/>
<text text-anchor="middle" x="285.17" y="-116.25" font-family="Helvetica,sans-Serif" font-size="10.00">TPriorityValue.h</text>
</a>
</g>
</g>
<!-- Node3&#45;&gt;Node12 -->
<g id="edge11_Node000003_Node000012" class="edge">
<title>Node3&#45;&gt;Node12</title>
<g id="a_edge11_Node000003_Node000012"><a xlink:title=" ">
<path fill="none" stroke="#63b8ff" d="M364.06,-165.34C349.59,-157.23 328.09,-145.18 311.19,-135.71"/>
<polygon fill="#63b8ff" stroke="#63b8ff" points="313.12,-132.78 302.69,-130.94 309.7,-138.89 313.12,-132.78"/>
</a>
</g>
</g>
<!-- Node12&#45;&gt;Node2 -->
<g id="edge14_Node000012_Node000002" class="edge">
<title>Node12&#45;&gt;Node2</title>
<g id="a_edge14_Node000012_Node000002"><a xlink:title=" ">
<path fill="none" stroke="#63b8ff" d="M251.08,-110.09C213.52,-100.14 153.57,-84.26 116.67,-74.48"/>
<polygon fill="#63b8ff" stroke="#63b8ff" points="118.03,-71.22 107.47,-72.05 116.24,-77.99 118.03,-71.22"/>
</a>
</g>
</g>
<!-- Node12&#45;&gt;Node4 -->
<g id="edge13_Node000012_Node000004" class="edge">
<title>Node12&#45;&gt;Node4</title>
<g id="a_edge13_Node000012_Node000004"><a xlink:title=" ">
<path fill="none" stroke="#63b8ff" d="M278.88,-110.26C272.89,-101.52 263.96,-87.58 258.17,-74.5 251.86,-60.23 246.92,-43.26 243.67,-30.4"/>
<polygon fill="#63b8ff" stroke="#63b8ff" points="247.15,-29.94 241.42,-21.03 240.35,-31.57 247.15,-29.94"/>
</a>
</g>
</g>
<!-- Node13 -->
<g id="Node000013" class="node">
<title>Node13</title>
<g id="a_Node000013"><a xlink:title=" ">
<polygon fill="#e0e0e0" stroke="#999999" points="318.8,-74.5 267.55,-74.5 267.55,-55.25 318.8,-55.25 318.8,-74.5"/>
<text text-anchor="middle" x="293.17" y="-61" font-family="Helvetica,sans-Serif" font-size="10.00">ostream</text>
</a>
</g>
</g>
<!-- Node12&#45;&gt;Node13 -->
<g id="edge12_Node000012_Node000013" class="edge">
<title>Node12&#45;&gt;Node13</title>
<g id="a_edge12_Node000012_Node000013"><a xlink:title=" ">
<path fill="none" stroke="#63b8ff" d="M286.49,-110.33C287.48,-103.74 288.88,-94.46 290.14,-86.07"/>
<polygon fill="#63b8ff" stroke="#63b8ff" points="293.57,-86.76 291.6,-76.36 286.65,-85.72 293.57,-86.76"/>
</a>
</g>
</g>
<!-- Node18&#45;&gt;Node6 -->
<g id="edge21_Node000018_Node000006" class="edge">
<title>Node18&#45;&gt;Node6</title>
<g id="a_edge21_Node000018_Node000006"><a xlink:title=" ">
<path fill="none" stroke="#63b8ff" d="M767.07,-165.34C741.41,-156.11 701.55,-141.77 674.23,-131.94"/>
<polygon fill="#63b8ff" stroke="#63b8ff" points="675.74,-128.76 665.14,-128.67 673.37,-135.35 675.74,-128.76"/>
</a>
</g>
</g>
<!-- Node18&#45;&gt;Node15 -->
<g id="edge23_Node000018_Node000015" class="edge">
<title>Node18&#45;&gt;Node15</title>
<g id="a_edge23_Node000018_Node000015"><a xlink:title=" ">
<path fill="none" stroke="#63b8ff" d="M812.12,-165.34C831.6,-156.46 862.05,-142.43 888.17,-129.75 905.2,-121.48 908.44,-117.14 926.17,-110.5 938.88,-105.74 1014.12,-87.19 1062.02,-75.56"/>
<polygon fill="#63b8ff" stroke="#63b8ff" points="1062.6,-79.02 1071.5,-73.26 1060.96,-72.22 1062.6,-79.02"/>
</a>
</g>
</g>
<!-- Node19 -->
<g id="Node000019" class="node">
<title>Node19</title>
<g id="a_Node000019"><a xlink:title=" ">
<polygon fill="#e0e0e0" stroke="#999999" points="879.55,-129.75 844.8,-129.75 844.8,-110.5 879.55,-110.5 879.55,-129.75"/>
<text text-anchor="middle" x="862.17" y="-116.25" font-family="Helvetica,sans-Serif" font-size="10.00">map</text>
</a>
</g>
</g>
<!-- Node18&#45;&gt;Node19 -->
<g id="edge20_Node000018_Node000019" class="edge">
<title>Node18&#45;&gt;Node19</title>
<g id="a_edge20_Node000018_Node000019"><a xlink:title=" ">
<path fill="none" stroke="#63b8ff" d="M804.05,-165.34C814.27,-157.57 829.24,-146.17 841.44,-136.9"/>
<polygon fill="#63b8ff" stroke="#63b8ff" points="843.43,-139.78 849.27,-130.94 839.19,-134.21 843.43,-139.78"/>
</a>
</g>
</g>
<!-- Node20 -->
<g id="Node000020" class="node">
<title>Node20</title>
<g id="a_Node000020"><a xlink:title=" ">
<polygon fill="#e0e0e0" stroke="#999999" points="1159.92,-19.25 1106.42,-19.25 1106.42,0 1159.92,0 1159.92,-19.25"/>
<text text-anchor="middle" x="1133.17" y="-5.75" font-family="Helvetica,sans-Serif" font-size="10.00">iostream</text>
</a>
</g>
</g>
<!-- Node18&#45;&gt;Node20 -->
<g id="edge22_Node000018_Node000020" class="edge">
<title>Node18&#45;&gt;Node20</title>
<g id="a_edge22_Node000018_Node000020"><a xlink:title=" ">
<path fill="none" stroke="#63b8ff" d="M778.97,-165.52C768.41,-157.58 754.36,-144.85 748.17,-129.75 735.61,-99.11 725.99,-79.83 748.17,-55.25 798.41,0.42 1003.33,-29.89 1095,-19.28"/>
<polygon fill="#63b8ff" stroke="#63b8ff" points="1095.22,-22.79 1104.62,-17.9 1094.22,-15.86 1095.22,-22.79"/>
</a>
</g>
</g>
<!-- Node21 -->
<g id="Node000021" class="node">
<title>Node21</title>
<g id="a_Node000021"><a xlink:title=" ">
<polygon fill="#e0e0e0" stroke="#999999" points="1007.3,-129.75 935.05,-129.75 935.05,-110.5 1007.3,-110.5 1007.3,-129.75"/>
<text text-anchor="middle" x="971.17" y="-116.25" font-family="Helvetica,sans-Serif" font-size="10.00">TCollection.h</text>
</a>
</g>
</g>
<!-- Node18&#45;&gt;Node21 -->
<g id="edge24_Node000018_Node000021" class="edge">
<title>Node18&#45;&gt;Node21</title>
<g id="a_edge24_Node000018_Node000021"><a xlink:title=" ">
<path fill="none" stroke="#63b8ff" d="M817.82,-166.75C847.13,-158.03 895.5,-143.64 930.08,-133.35"/>
<polygon fill="#63b8ff" stroke="#63b8ff" points="930.74,-136.8 939.33,-130.6 928.75,-130.09 930.74,-136.8"/>
</a>
</g>
</g>
<!-- Node22 -->
<g id="Node000022" class="node">
<title>Node22</title>
<g id="a_Node000022"><a xlink:href="_globals_8h.html" target="_top" xlink:title=" ">
<polygon fill="white" stroke="#666666" points="701.42,-74.5 644.92,-74.5 644.92,-55.25 701.42,-55.25 701.42,-74.5"/>
<text text-anchor="middle" x="673.17" y="-61" font-family="Helvetica,sans-Serif" font-size="10.00">Globals.h</text>
</a>
</g>
</g>
<!-- Node18&#45;&gt;Node22 -->
<g id="edge25_Node000018_Node000022" class="edge">
<title>Node18&#45;&gt;Node22</title>
<g id="a_edge25_Node000018_Node000022"><a xlink:title=" ">
<path fill="none" stroke="#63b8ff" d="M770.82,-165.32C754.31,-157.58 731.57,-145.24 715.17,-129.75 701.46,-116.79 690.02,-98.52 682.56,-84.84"/>
<polygon fill="#63b8ff" stroke="#63b8ff" points="685.68,-83.25 677.97,-75.99 679.47,-86.47 685.68,-83.25"/>
</a>
</g>
</g>
<!-- Node35 -->
<g id="Node000035" class="node">
<title>Node35</title>
<g id="a_Node000035"><a xlink:href="_t_singleton_8h.html" target="_top" xlink:title=" ">
<polygon fill="white" stroke="#666666" points="827.17,-129.75 757.17,-129.75 757.17,-110.5 827.17,-110.5 827.17,-129.75"/>
<text text-anchor="middle" x="792.17" y="-116.25" font-family="Helvetica,sans-Serif" font-size="10.00">TSingleton.h</text>
</a>
</g>
</g>
<!-- Node18&#45;&gt;Node35 -->
<g id="edge40_Node000018_Node000035" class="edge">
<title>Node18&#45;&gt;Node35</title>
<g id="a_edge40_Node000018_Node000035"><a xlink:title=" ">
<path fill="none" stroke="#63b8ff" d="M792.17,-165.58C792.17,-159.07 792.17,-149.92 792.17,-141.62"/>
<polygon fill="#63b8ff" stroke="#63b8ff" points="795.67,-141.62 792.17,-131.62 788.67,-141.62 795.67,-141.62"/>
</a>
</g>
</g>
<!-- Node22&#45;&gt;Node4 -->
<g id="edge29_Node000022_Node000004" class="edge">
<title>Node22&#45;&gt;Node4</title>
<g id="a_edge29_Node000022_Node000004"><a xlink:title=" ">
<path fill="none" stroke="#63b8ff" d="M644.92,-62.51C580.19,-59.01 416.16,-48.04 270.55,-19.39"/>
<polygon fill="#63b8ff" stroke="#63b8ff" points="271.63,-16.04 261.14,-17.51 270.25,-22.91 271.63,-16.04"/>
</a>
</g>
</g>
<!-- Node22&#45;&gt;Node20 -->
<g id="edge26_Node000022_Node000020" class="edge">
<title>Node22&#45;&gt;Node20</title>
<g id="a_edge26_Node000022_Node000020"><a xlink:title=" ">
<path fill="none" stroke="#63b8ff" d="M701.56,-57.61C706.1,-56.73 710.75,-55.91 715.17,-55.25 880.64,-30.56 927.59,-47.04 1094.92,-19.58"/>
<polygon fill="#63b8ff" stroke="#63b8ff" points="1095.34,-23.06 1104.63,-17.96 1094.19,-16.16 1095.34,-23.06"/>
</a>
</g>
</g>
<!-- Node23 -->
<g id="Node000023" class="node">
<title>Node23</title>
<g id="a_Node000023"><a xlink:title=" ">
<polygon fill="#e0e0e0" stroke="#999999" points="675.05,-19.25 625.3,-19.25 625.3,0 675.05,0 675.05,-19.25"/>
<text text-anchor="middle" x="650.17" y="-5.75" font-family="Helvetica,sans-Serif" font-size="10.00">iomanip</text>
</a>
</g>
</g>
<!-- Node22&#45;&gt;Node23 -->
<g id="edge27_Node000022_Node000023" class="edge">
<title>Node22&#45;&gt;Node23</title>
<g id="a_edge27_Node000022_Node000023"><a xlink:title=" ">
<path fill="none" stroke="#63b8ff" d="M669.37,-55.08C666.43,-48.26 662.24,-38.56 658.52,-29.95"/>
<polygon fill="#63b8ff" stroke="#63b8ff" points="661.83,-28.79 654.65,-21 655.4,-31.57 661.83,-28.79"/>
</a>
</g>
</g>
<!-- Node24 -->
<g id="Node000024" class="node">
<title>Node24</title>
<g id="a_Node000024"><a xlink:title=" ">
<polygon fill="#e0e0e0" stroke="#999999" points="751.17,-19.25 693.17,-19.25 693.17,0 751.17,0 751.17,-19.25"/>
<text text-anchor="middle" x="722.17" y="-5.75" font-family="Helvetica,sans-Serif" font-size="10.00">stdexcept</text>
</a>
</g>
</g>
<!-- Node22&#45;&gt;Node24 -->
<g id="edge28_Node000022_Node000024" class="edge">
<title>Node22&#45;&gt;Node24</title>
<g id="a_edge28_Node000022_Node000024"><a xlink:title=" ">
<path fill="none" stroke="#63b8ff" d="M681.26,-55.08C688.03,-47.73 697.89,-37.01 706.24,-27.94"/>
<polygon fill="#63b8ff" stroke="#63b8ff" points="708.68,-30.45 712.88,-20.72 703.53,-25.71 708.68,-30.45"/>
</a>
</g>
</g>
<!-- Node25 -->
<g id="Node000025" class="node">
<title>Node25</title>
<g id="a_Node000025"><a xlink:title=" ">
<polygon fill="#e0e0e0" stroke="#999999" points="811.3,-19.25 769.05,-19.25 769.05,0 811.3,0 811.3,-19.25"/>
<text text-anchor="middle" x="790.17" y="-5.75" font-family="Helvetica,sans-Serif" font-size="10.00">cstdio</text>
</a>
</g>
</g>
<!-- Node22&#45;&gt;Node25 -->
<g id="edge30_Node000022_Node000025" class="edge">
<title>Node22&#45;&gt;Node25</title>
<g id="a_edge30_Node000022_Node000025"><a xlink:title=" ">
<path fill="none" stroke="#63b8ff" d="M693.02,-54.84C711.34,-46.5 738.82,-34 759.88,-24.41"/>
<polygon fill="#63b8ff" stroke="#63b8ff" points="761.2,-27.66 768.85,-20.33 758.3,-21.29 761.2,-27.66"/>
</a>
</g>
</g>
<!-- Node26 -->
<g id="Node000026" class="node">
<title>Node26</title>
<g id="a_Node000026"><a xlink:title=" ">
<polygon fill="#e0e0e0" stroke="#999999" points="873.42,-19.25 828.92,-19.25 828.92,0 873.42,0 873.42,-19.25"/>
<text text-anchor="middle" x="851.17" y="-5.75" font-family="Helvetica,sans-Serif" font-size="10.00">cstdlib</text>
</a>
</g>
</g>
<!-- Node22&#45;&gt;Node26 -->
<g id="edge31_Node000022_Node000026" class="edge">
<title>Node22&#45;&gt;Node26</title>
<g id="a_edge31_Node000022_Node000026"><a xlink:title=" ">
<path fill="none" stroke="#63b8ff" d="M701.77,-55.32C733.47,-45.84 784.52,-30.56 817.96,-20.56"/>
<polygon fill="#63b8ff" stroke="#63b8ff" points="818.55,-24.04 827.12,-17.82 816.54,-17.33 818.55,-24.04"/>
</a>
</g>
</g>
<!-- Node27 -->
<g id="Node000027" class="node">
<title>Node27</title>
<g id="a_Node000027"><a xlink:title=" ">
<polygon fill="#e0e0e0" stroke="#999999" points="950.92,-19.25 891.42,-19.25 891.42,0 950.92,0 950.92,-19.25"/>
<text text-anchor="middle" x="921.17" y="-5.75" font-family="Helvetica,sans-Serif" font-size="10.00">execinfo.h</text>
</a>
</g>
</g>
<!-- Node22&#45;&gt;Node27 -->
<g id="edge32_Node000022_Node000027" class="edge">
<title>Node22&#45;&gt;Node27</title>
<g id="a_edge32_Node000022_Node000027"><a xlink:title=" ">
<path fill="none" stroke="#63b8ff" d="M701.58,-57.88C739.76,-49.8 810.03,-34.89 879.76,-19.76"/>
<polygon fill="#63b8ff" stroke="#63b8ff" points="880.43,-23.2 889.46,-17.65 878.95,-16.36 880.43,-23.2"/>
</a>
</g>
</g>
<!-- Node28 -->
<g id="Node000028" class="node">
<title>Node28</title>
<g id="a_Node000028"><a xlink:title=" ">
<polygon fill="#e0e0e0" stroke="#999999" points="1019.42,-19.25 968.92,-19.25 968.92,0 1019.42,0 1019.42,-19.25"/>
<text text-anchor="middle" x="994.17" y="-5.75" font-family="Helvetica,sans-Serif" font-size="10.00">cxxabi.h</text>
</a>
</g>
</g>
<!-- Node22&#45;&gt;Node28 -->
<g id="edge33_Node000022_Node000028" class="edge">
<title>Node22&#45;&gt;Node28</title>
<g id="a_edge33_Node000022_Node000028"><a xlink:title=" ">
<path fill="none" stroke="#63b8ff" d="M701.6,-57.81C706.13,-56.91 710.77,-56.02 715.17,-55.25 820.07,-36.79 850.31,-40.54 957.63,-19.58"/>
<polygon fill="#63b8ff" stroke="#63b8ff" points="958,-23.08 967.13,-17.7 956.64,-16.21 958,-23.08"/>
</a>
</g>
</g>
<!-- Node29 -->
<g id="Node000029" class="node">
<title>Node29</title>
<g id="a_Node000029"><a xlink:title=" ">
<polygon fill="#e0e0e0" stroke="#999999" points="1088.8,-19.25 1037.55,-19.25 1037.55,0 1088.8,0 1088.8,-19.25"/>
<text text-anchor="middle" x="1063.17" y="-5.75" font-family="Helvetica,sans-Serif" font-size="10.00">sstream</text>
</a>
</g>
</g>
<!-- Node22&#45;&gt;Node29 -->
<g id="edge34_Node000022_Node000029" class="edge">
<title>Node22&#45;&gt;Node29</title>
<g id="a_edge34_Node000022_Node000029"><a xlink:title=" ">
<path fill="none" stroke="#63b8ff" d="M701.58,-57.69C706.11,-56.8 710.76,-55.96 715.17,-55.25 849.93,-33.71 888.42,-43.52 1026.28,-19.36"/>
<polygon fill="#63b8ff" stroke="#63b8ff" points="1026.54,-22.87 1035.77,-17.67 1025.31,-15.98 1026.54,-22.87"/>
</a>
</g>
</g>
<!-- Node30 -->
<g id="Node000030" class="node">
<title>Node30</title>
<g id="a_Node000030"><a xlink:title=" ">
<polygon fill="#e0e0e0" stroke="#999999" points="314.67,-19.25 277.67,-19.25 277.67,0 314.67,0 314.67,-19.25"/>
<text text-anchor="middle" x="296.17" y="-5.75" font-family="Helvetica,sans-Serif" font-size="10.00">array</text>
</a>
</g>
</g>
<!-- Node22&#45;&gt;Node30 -->
<g id="edge35_Node000022_Node000030" class="edge">
<title>Node22&#45;&gt;Node30</title>
<g id="a_edge35_Node000022_Node000030"><a xlink:title=" ">
<path fill="none" stroke="#63b8ff" d="M644.85,-61.91C586.81,-57.53 450.11,-45.43 326.21,-19.32"/>
<polygon fill="#63b8ff" stroke="#63b8ff" points="327.03,-15.91 316.51,-17.23 325.55,-22.76 327.03,-15.91"/>
</a>
</g>
</g>
<!-- Node31 -->
<g id="Node000031" class="node">
<title>Node31</title>
<g id="a_Node000031"><a xlink:title=" ">
<polygon fill="#e0e0e0" stroke="#999999" points="383.42,-19.25 332.92,-19.25 332.92,0 383.42,0 383.42,-19.25"/>
<text text-anchor="middle" x="358.17" y="-5.75" font-family="Helvetica,sans-Serif" font-size="10.00">memory</text>
</a>
</g>
</g>
<!-- Node22&#45;&gt;Node31 -->
<g id="edge36_Node000022_Node000031" class="edge">
<title>Node22&#45;&gt;Node31</title>
<g id="a_edge36_Node000022_Node000031"><a xlink:title=" ">
<path fill="none" stroke="#63b8ff" d="M644.7,-60.23C595.67,-53.75 491.93,-39.25 394.92,-19.66"/>
<polygon fill="#63b8ff" stroke="#63b8ff" points="395.72,-16.25 385.22,-17.68 394.31,-23.11 395.72,-16.25"/>
</a>
</g>
</g>
<!-- Node32 -->
<g id="Node000032" class="node">
<title>Node32</title>
<g id="a_Node000032"><a xlink:title=" ">
<polygon fill="#e0e0e0" stroke="#999999" points="451.05,-19.25 401.3,-19.25 401.3,0 451.05,0 451.05,-19.25"/>
<text text-anchor="middle" x="426.17" y="-5.75" font-family="Helvetica,sans-Serif" font-size="10.00">unistd.h</text>
</a>
</g>
</g>
<!-- Node22&#45;&gt;Node32 -->
<g id="edge37_Node000022_Node000032" class="edge">
<title>Node22&#45;&gt;Node32</title>
<g id="a_edge37_Node000022_Node000032"><a xlink:title=" ">
<path fill="none" stroke="#63b8ff" d="M644.49,-58.26C605.51,-50.55 533.37,-35.97 462.32,-19.67"/>
<polygon fill="#63b8ff" stroke="#63b8ff" points="463.4,-16.33 452.87,-17.49 461.83,-23.15 463.4,-16.33"/>
</a>
</g>
</g>
<!-- Node33 -->
<g id="Node000033" class="node">
<title>Node33</title>
<g id="a_Node000033"><a xlink:title=" ">
<polygon fill="#e0e0e0" stroke="#999999" points="528.92,-19.25 469.42,-19.25 469.42,0 528.92,0 528.92,-19.25"/>
<text text-anchor="middle" x="499.17" y="-5.75" font-family="Helvetica,sans-Serif" font-size="10.00">sys/wait.h</text>
</a>
</g>
</g>
<!-- Node22&#45;&gt;Node33 -->
<g id="edge38_Node000022_Node000033" class="edge">
<title>Node22&#45;&gt;Node33</title>
<g id="a_edge38_Node000022_Node000033"><a xlink:title=" ">
<path fill="none" stroke="#63b8ff" d="M644.44,-55.08C615.86,-46.34 571.75,-32.84 539.64,-23.01"/>
<polygon fill="#63b8ff" stroke="#63b8ff" points="540.86,-19.72 530.27,-20.14 538.81,-26.41 540.86,-19.72"/>
</a>
</g>
</g>
<!-- Node34 -->
<g id="Node000034" class="node">
<title>Node34</title>
<g id="a_Node000034"><a xlink:title=" ">
<polygon fill="#e0e0e0" stroke="#999999" points="607.3,-19.25 547.05,-19.25 547.05,0 607.3,0 607.3,-19.25"/>
<text text-anchor="middle" x="577.17" y="-5.75" font-family="Helvetica,sans-Serif" font-size="10.00">sys/prctl.h</text>
</a>
</g>
</g>
<!-- Node22&#45;&gt;Node34 -->
<g id="edge39_Node000022_Node000034" class="edge">
<title>Node22&#45;&gt;Node34</title>
<g id="a_edge39_Node000022_Node000034"><a xlink:title=" ">
<path fill="none" stroke="#63b8ff" d="M656.89,-54.84C642.27,-46.73 620.54,-34.68 603.47,-25.21"/>
<polygon fill="#63b8ff" stroke="#63b8ff" points="605.3,-22.23 594.86,-20.44 601.91,-28.35 605.3,-22.23"/>
</a>
</g>
</g>
<!-- Node35&#45;&gt;Node15 -->
<g id="edge42_Node000035_Node000015" class="edge">
<title>Node35&#45;&gt;Node15</title>
<g id="a_edge42_Node000035_Node000015"><a xlink:title=" ">
<path fill="none" stroke="#63b8ff" d="M827.21,-112.13C830.24,-111.57 833.26,-111.02 836.17,-110.5 933.64,-93.26 961.49,-93.8 1061.53,-74.9"/>
<polygon fill="#63b8ff" stroke="#63b8ff" points="1062.1,-78.35 1071.27,-73.04 1060.79,-71.48 1062.1,-78.35"/>
</a>
</g>
</g>
<!-- Node35&#45;&gt;Node20 -->
<g id="edge41_Node000035_Node000020" class="edge">
<title>Node35&#45;&gt;Node20</title>
<g id="a_edge41_Node000035_Node000020"><a xlink:title=" ">
<path fill="none" stroke="#63b8ff" d="M797.29,-110.34C806.1,-96.12 825.57,-68.33 850.17,-55.25 945.33,-4.63 986.2,-38.27 1095,-19.62"/>
<polygon fill="#63b8ff" stroke="#63b8ff" points="1095.41,-23.1 1104.61,-17.85 1094.14,-16.21 1095.41,-23.1"/>
</a>
</g>
</g>
<!-- Node35&#45;&gt;Node22 -->
<g id="edge47_Node000035_Node000022" class="edge">
<title>Node35&#45;&gt;Node22</title>
<g id="a_edge47_Node000035_Node000022"><a xlink:title=" ">
<path fill="none" stroke="#63b8ff" d="M771.99,-110.09C753.27,-101.72 725.15,-89.13 703.69,-79.53"/>
<polygon fill="#63b8ff" stroke="#63b8ff" points="705.4,-76.46 694.84,-75.57 702.54,-82.85 705.4,-76.46"/>
</a>
</g>
</g>
<!-- Node36 -->
<g id="Node000036" class="node">
<title>Node36</title>
<g id="a_Node000036"><a xlink:title=" ">
<polygon fill="#e0e0e0" stroke="#999999" points="927.05,-74.5 859.3,-74.5 859.3,-55.25 927.05,-55.25 927.05,-74.5"/>
<text text-anchor="middle" x="893.17" y="-61" font-family="Helvetica,sans-Serif" font-size="10.00">TDirectory.h</text>
</a>
</g>
</g>
<!-- Node35&#45;&gt;Node36 -->
<g id="edge43_Node000035_Node000036" class="edge">
<title>Node35&#45;&gt;Node36</title>
<g id="a_edge43_Node000035_Node000036"><a xlink:title=" ">
<path fill="none" stroke="#63b8ff" d="M809.31,-110.09C824.83,-101.91 847.97,-89.71 866.02,-80.19"/>
<polygon fill="#63b8ff" stroke="#63b8ff" points="867.4,-83.42 874.62,-75.66 864.14,-77.23 867.4,-83.42"/>
</a>
</g>
</g>
<!-- Node37 -->
<g id="Node000037" class="node">
<title>Node37</title>
<g id="a_Node000037"><a xlink:title=" ">
<polygon fill="#e0e0e0" stroke="#999999" points="990.8,-74.5 945.55,-74.5 945.55,-55.25 990.8,-55.25 990.8,-74.5"/>
<text text-anchor="middle" x="968.17" y="-61" font-family="Helvetica,sans-Serif" font-size="10.00">TFile.h</text>
</a>
</g>
</g>
<!-- Node35&#45;&gt;Node37 -->
<g id="edge44_Node000035_Node000037" class="edge">
<title>Node35&#45;&gt;Node37</title>
<g id="a_edge44_Node000035_Node000037"><a xlink:title=" ">
<path fill="none" stroke="#63b8ff" d="M822.03,-110.09C853.17,-100.67 901.9,-85.93 934.42,-76.09"/>
<polygon fill="#63b8ff" stroke="#63b8ff" points="935.19,-79.51 943.75,-73.27 933.16,-72.81 935.19,-79.51"/>
</a>
</g>
</g>
<!-- Node38 -->
<g id="Node000038" class="node">
<title>Node38</title>
<g id="a_Node000038"><a xlink:title=" ">
<polygon fill="#e0e0e0" stroke="#999999" points="1055.17,-74.5 1009.17,-74.5 1009.17,-55.25 1055.17,-55.25 1055.17,-74.5"/>
<text text-anchor="middle" x="1032.17" y="-61" font-family="Helvetica,sans-Serif" font-size="10.00">TList.h</text>
</a>
</g>
</g>
<!-- Node35&#45;&gt;Node38 -->
<g id="edge45_Node000035_Node000038" class="edge">
<title>Node35&#45;&gt;Node38</title>
<g id="a_edge45_Node000035_Node000038"><a xlink:title=" ">
<path fill="none" stroke="#63b8ff" d="M827.63,-112.1C866.94,-104.19 932.49,-90.62 997.87,-74.96"/>
<polygon fill="#63b8ff" stroke="#63b8ff" points="998.42,-78.43 1007.32,-72.68 996.78,-71.63 998.42,-78.43"/>
</a>
</g>
</g>
<!-- Node39 -->
<g id="Node000039" class="node">
<title>Node39</title>
<g id="a_Node000039"><a xlink:title=" ">
<polygon fill="#e0e0e0" stroke="#999999" points="803.17,-74.5 757.17,-74.5 757.17,-55.25 803.17,-55.25 803.17,-74.5"/>
<text text-anchor="middle" x="780.17" y="-61" font-family="Helvetica,sans-Serif" font-size="10.00">TKey.h</text>
</a>
</g>
</g>
<!-- Node35&#45;&gt;Node39 -->
<g id="edge46_Node000035_Node000039" class="edge">
<title>Node35&#45;&gt;Node39</title>
<g id="a_edge46_Node000035_Node000039"><a xlink:title=" ">
<path fill="none" stroke="#63b8ff" d="M790.19,-110.33C788.71,-103.74 786.61,-94.46 784.72,-86.07"/>
<polygon fill="#63b8ff" stroke="#63b8ff" points="788.14,-85.32 782.53,-76.34 781.31,-86.86 788.14,-85.32"/>
</a>
</g>
</g>
<!-- Node40&#45;&gt;Node20 -->
<g id="edge49_Node000040_Node000020" class="edge">
<title>Node40&#45;&gt;Node20</title>
<g id="a_edge49_Node000040_Node000020"><a xlink:title=" ">
<path fill="none" stroke="#63b8ff" d="M1118.53,-165.51C1127.96,-157.38 1140.68,-144.39 1146.17,-129.75 1158.68,-96.43 1148.66,-54.44 1140.64,-30.25"/>
<polygon fill="#63b8ff" stroke="#63b8ff" points="1144.02,-29.31 1137.37,-21.07 1137.43,-31.66 1144.02,-29.31"/>
</a>
</g>
</g>
<!-- Node41 -->
<g id="Node000041" class="node">
<title>Node41</title>
<g id="a_Node000041"><a xlink:title=" ">
<polygon fill="#e0e0e0" stroke="#999999" points="1137.05,-129.75 1063.3,-129.75 1063.3,-110.5 1137.05,-110.5 1137.05,-129.75"/>
<text text-anchor="middle" x="1100.17" y="-116.25" font-family="Helvetica,sans-Serif" font-size="10.00">RtypesCore.h</text>
</a>
</g>
</g>
<!-- Node40&#45;&gt;Node41 -->
<g id="edge50_Node000040_Node000041" class="edge">
<title>Node40&#45;&gt;Node41</title>
<g id="a_edge50_Node000040_Node000041"><a xlink:title=" ">
<path fill="none" stroke="#63b8ff" d="M1106.02,-165.58C1105.15,-158.99 1103.93,-149.71 1102.83,-141.32"/>
<polygon fill="#63b8ff" stroke="#63b8ff" points="1106.32,-141.07 1101.55,-131.61 1099.38,-141.98 1106.32,-141.07"/>
</a>
</g>
</g>
</g>
</svg>

<g id="navigator" transform="translate(0 0)" fill="#404254">
  <rect fill="#f2f5e9" fill-opacity="0.5" stroke="#606060" stroke-width=".5" x="0" y="0" width="60" height="60"/>
  <use id="zoomplus" xlink:href="#zoomPlus" x="17" y="9" onmousedown="handleZoom(evt,'in')"/>
  <use id="zoomminus" xlink:href="#zoomMin" x="42" y="9" onmousedown="handleZoom(evt,'out')"/>
  <use id="reset" xlink:href="#resetDef" x="30" y="36" onmousedown="handleReset()"/>
   <use id="arrowup" xlink:href="#arrowUp" x="0" y="0" onmousedown="handlePan(0,-1)"/>
  <use id="arrowright" xlink:href="#arrowRight" x="0" y="0" onmousedown="handlePan(1,0)"/>
  <use id="arrowdown" xlink:href="#arrowDown" x="0" y="0" onmousedown="handlePan(0,1)"/>
  <use id="arrowleft" xlink:href="#arrowLeft" x="0" y="0" onmousedown="handlePan(-1,0)"/>
</g>
<svg viewBox="0 0 15 15" width="100%" height="30px" preserveAspectRatio="xMaxYMin meet">
 <g id="arrow_out" transform="scale(0.3 0.3)">
  <a xlink:href="_t_detector_hit_8h__incl_org.svg" target="_base">
   <rect id="button" ry="5" rx="5" y="6" x="6" height="38" width="38"
        fill="#f2f5e9" fill-opacity="0.5" stroke="#606060" stroke-width="1.0"/>
   <path id="arrow"
     d="M 11.500037,31.436501 C 11.940474,20.09759 22.043105,11.32322 32.158766,21.979434 L 37.068811,17.246167 C 37.068811,17.246167 37.088388,32 37.088388,32 L 22.160133,31.978069 C 22.160133,31.978069 26.997745,27.140456 26.997745,27.140456 C 18.528582,18.264221 13.291696,25.230495 11.500037,31.436501 z"
     style="fill:#404040;"/>
  </a>
 </g>
</svg>

<style type='text/css'>
<![CDATA[
[data-mouse-over-selected='false'] { opacity: 0.7; }
[data-mouse-over-selected='true']  { opacity: 1.0; }
]]>
</style>
<script type="application/ecmascript"><![CDATA[
document.addEventListener('DOMContentLoaded', (event) => {
  highlightEdges();
  highlightAdjacentNodes();
});
]]></script>
</svg>
