<?xml version="1.0" encoding="UTF-8" standalone="no"?>
<!DOCTYPE svg PUBLIC "-//W3C//DTD SVG 1.1//EN"
 "http://www.w3.org/Graphics/SVG/1.1/DTD/svg11.dtd">
<!-- Generated by graphviz version 12.2.0 (20241103.1931)
 -->
<!-- Title: TDemandHit.h Pages: 1 -->
<!--zoomable 359 -->

<svg id="main" version="1.1" xmlns="http://www.w3.org/2000/svg" xmlns:xlink="http://www.w3.org/1999/xlink" xml:space="preserve" onload="init(evt)">

<style type="text/css"><![CDATA[
.node, .edge {opacity: 0.7;}
.node.selected, .edge.selected {opacity: 1;}
.edge:hover path { stroke: red; }
.edge:hover polygon { stroke: red; fill: red; }
]]></style>

<defs>
  <circle id="rim" cx="0" cy="0" r="7"/>
  <circle id="rim2" cx="0" cy="0" r="3.5"/>
  <g id="zoomPlus">
    <use xlink:href="#rim" fill="#404040"><set attributeName="fill" to="#808080" begin="zoomplus.mouseover" end="zoomplus.mouseout"/></use>
    <path d="M-4,0h8M0,-4v8" fill="none" stroke="white" stroke-width="1.5" pointer-events="none"/>
  </g>
  <g id="zoomMin">
    <use xlink:href="#rim" fill="#404040"><set attributeName="fill" to="#808080" begin="zoomminus.mouseover" end="zoomminus.mouseout"/></use>
    <path d="M-4,0h8" fill="none" stroke="white" stroke-width="1.5" pointer-events="none"/>
  </g>
  <g id="arrowUp" transform="translate(30 24)">
    <use xlink:href="#rim"/>
    <path pointer-events="none" fill="none" stroke="white" stroke-width="1.5" d="M0,-3.0v7 M-2.5,-0.5L0,-3.0L2.5,-0.5"/>
  </g>
  <g id="arrowRight" transform="rotate(90) translate(36 -43)">
    <use xlink:href="#rim"/>
    <path pointer-events="none" fill="none" stroke="white" stroke-width="1.5" d="M0,-3.0v7 M-2.5,-0.5L0,-3.0L2.5,-0.5"/>
  </g>
  <g id="arrowDown" transform="rotate(180) translate(-30 -48)">
    <use xlink:href="#rim"/>
    <path pointer-events="none" fill="none" stroke="white" stroke-width="1.5" d="M0,-3.0v7 M-2.5,-0.5L0,-3.0L2.5,-0.5"/>
  </g>
  <g id="arrowLeft" transform="rotate(270) translate(-36 17)">
    <use xlink:href="#rim"/>
    <path pointer-events="none" fill="none" stroke="white" stroke-width="1.5" d="M0,-3.0v7 M-2.5,-0.5L0,-3.0L2.5,-0.5"/>
  </g>
  <g id="resetDef">
    <use xlink:href="#rim2" fill="#404040"><set attributeName="fill" to="#808080" begin="reset.mouseover" end="reset.mouseout"/></use>
  </g>
</defs>
<script type="application/ecmascript">
var viewWidth = 1406;
var viewHeight = 359;
var sectionId = 'dynsection-0';
</script>
<script type="application/ecmascript" xlink:href="svg.min.js"/>
<svg id="graph" class="graph">
<g id="viewport">
<title>TDemandHit.h</title>
<!-- Node1 -->
<g id="Node000001" class="node">
<title>Node1</title>
<g id="a_Node000001"><a xlink:title=" ">
<polygon fill="#999999" stroke="#666666" points="531.12,-350.75 452.88,-350.75 452.88,-331.5 531.12,-331.5 531.12,-350.75"/>
<text text-anchor="middle" x="492" y="-337.25" font-family="Helvetica,sans-Serif" font-size="10.00">TDemandHit.h</text>
</a>
</g>
</g>
<!-- Node2 -->
<g id="Node000002" class="node">
<title>Node2</title>
<g id="a_Node000002"><a xlink:title=" ">
<polygon fill="#e0e0e0" stroke="#999999" points="103.12,-19.25 60.88,-19.25 60.88,0 103.12,0 103.12,-19.25"/>
<text text-anchor="middle" x="82" y="-5.75" font-family="Helvetica,sans-Serif" font-size="10.00">cstdio</text>
</a>
</g>
</g>
<!-- Node1&#45;&gt;Node2 -->
<g id="edge1_Node000001_Node000002" class="edge">
<title>Node1&#45;&gt;Node2</title>
<g id="a_edge1_Node000001_Node000002"><a xlink:title=" ">
<path fill="none" stroke="#63b8ff" d="M452.57,-339.81C335.82,-337.84 0,-324.12 0,-231.62 0,-231.62 0,-231.62 0,-119.12 0,-79.52 35.2,-45.24 59.48,-26.3"/>
<polygon fill="#63b8ff" stroke="#63b8ff" points="61.33,-29.29 67.25,-20.5 57.14,-23.68 61.33,-29.29"/>
</a>
</g>
</g>
<!-- Node3 -->
<g id="Node000003" class="node">
<title>Node3</title>
<g id="a_Node000003"><a xlink:title=" ">
<polygon fill="#e0e0e0" stroke="#999999" points="71.5,-129.75 28.5,-129.75 28.5,-110.5 71.5,-110.5 71.5,-129.75"/>
<text text-anchor="middle" x="50" y="-116.25" font-family="Helvetica,sans-Serif" font-size="10.00">cmath</text>
</a>
</g>
</g>
<!-- Node1&#45;&gt;Node3 -->
<g id="edge2_Node000001_Node000003" class="edge">
<title>Node1&#45;&gt;Node3</title>
<g id="a_edge2_Node000001_Node000003"><a xlink:title=" ">
<path fill="none" stroke="#63b8ff" d="M473.85,-331.13C405.29,-297.16 161.75,-176.5 78.3,-135.15"/>
<polygon fill="#63b8ff" stroke="#63b8ff" points="79.93,-132.05 69.41,-130.74 76.82,-138.32 79.93,-132.05"/>
</a>
</g>
</g>
<!-- Node4 -->
<g id="Node000004" class="node">
<title>Node4</title>
<g id="a_Node000004"><a xlink:title=" ">
<polygon fill="#e0e0e0" stroke="#999999" points="603.62,-185 540.38,-185 540.38,-165.75 603.62,-165.75 603.62,-185"/>
<text text-anchor="middle" x="572" y="-171.5" font-family="Helvetica,sans-Serif" font-size="10.00">TVector3.h</text>
</a>
</g>
</g>
<!-- Node1&#45;&gt;Node4 -->
<g id="edge3_Node000001_Node000004" class="edge">
<title>Node1&#45;&gt;Node4</title>
<g id="a_edge3_Node000001_Node000004"><a xlink:title=" ">
<path fill="none" stroke="#63b8ff" d="M496.3,-331.32C508.84,-305.67 545.53,-230.55 562.81,-195.19"/>
<polygon fill="#63b8ff" stroke="#63b8ff" points="565.77,-197.1 567.01,-186.58 559.48,-194.03 565.77,-197.1"/>
</a>
</g>
</g>
<!-- Node5 -->
<g id="Node000005" class="node">
<title>Node5</title>
<g id="a_Node000005"><a xlink:href="_t_fragment_8h.html" target="_top" xlink:title=" ">
<polygon fill="white" stroke="#666666" points="1059.38,-295.5 988.62,-295.5 988.62,-276.25 1059.38,-276.25 1059.38,-295.5"/>
<text text-anchor="middle" x="1024" y="-282" font-family="Helvetica,sans-Serif" font-size="10.00">TFragment.h</text>
</a>
</g>
</g>
<!-- Node1&#45;&gt;Node5 -->
<g id="edge4_Node000001_Node000005" class="edge">
<title>Node1&#45;&gt;Node5</title>
<g id="a_edge4_Node000001_Node000005"><a xlink:title=" ">
<path fill="none" stroke="#63b8ff" d="M531.55,-336.17C627.78,-326.53 873.77,-301.91 977.13,-291.57"/>
<polygon fill="#63b8ff" stroke="#63b8ff" points="977.32,-295.06 986.93,-290.59 976.63,-288.1 977.32,-295.06"/>
</a>
</g>
</g>
<!-- Node6 -->
<g id="Node000006" class="node">
<title>Node6</title>
<g id="a_Node000006"><a xlink:href="_t_detector_hit_8h.html" target="_top" xlink:title=" ">
<polygon fill="white" stroke="#666666" points="834.5,-240.25 755.5,-240.25 755.5,-221 834.5,-221 834.5,-240.25"/>
<text text-anchor="middle" x="795" y="-226.75" font-family="Helvetica,sans-Serif" font-size="10.00">TDetectorHit.h</text>
</a>
</g>
</g>
<!-- Node1&#45;&gt;Node6 -->
<g id="edge62_Node000001_Node000006" class="edge">
<title>Node1&#45;&gt;Node6</title>
<g id="a_edge62_Node000001_Node000006"><a xlink:title=" ">
<path fill="none" stroke="#63b8ff" d="M517.31,-331.06C571.12,-311.79 697,-266.72 759.08,-244.49"/>
<polygon fill="#63b8ff" stroke="#63b8ff" points="759.89,-247.92 768.12,-241.25 757.53,-241.33 759.89,-247.92"/>
</a>
</g>
</g>
<!-- Node8 -->
<g id="Node000008" class="node">
<title>Node8</title>
<g id="a_Node000008"><a xlink:href="_t_channel_8h.html" target="_top" xlink:title=" ">
<polygon fill="white" stroke="#666666" points="467.38,-185 402.62,-185 402.62,-165.75 467.38,-165.75 467.38,-185"/>
<text text-anchor="middle" x="435" y="-171.5" font-family="Helvetica,sans-Serif" font-size="10.00">TChannel.h</text>
</a>
</g>
</g>
<!-- Node1&#45;&gt;Node8 -->
<g id="edge61_Node000001_Node000008" class="edge">
<title>Node1&#45;&gt;Node8</title>
<g id="a_edge61_Node000001_Node000008"><a xlink:title=" ">
<path fill="none" stroke="#63b8ff" d="M488.94,-331.32C480.04,-305.78 454.09,-231.2 441.71,-195.65"/>
<polygon fill="#63b8ff" stroke="#63b8ff" points="445.17,-194.95 438.58,-186.65 438.56,-197.25 445.17,-194.95"/>
</a>
</g>
</g>
<!-- Node5&#45;&gt;Node6 -->
<g id="edge5_Node000005_Node000006" class="edge">
<title>Node5&#45;&gt;Node6</title>
<g id="a_edge5_Node000005_Node000006"><a xlink:title=" ">
<path fill="none" stroke="#63b8ff" d="M988.22,-276.55C949.77,-267.61 888.35,-253.33 845.11,-243.28"/>
<polygon fill="#63b8ff" stroke="#63b8ff" points="845.98,-239.89 835.45,-241.03 844.4,-246.71 845.98,-239.89"/>
</a>
</g>
</g>
<!-- Node7 -->
<g id="Node000007" class="node">
<title>Node7</title>
<g id="a_Node000007"><a xlink:title=" ">
<polygon fill="#e0e0e0" stroke="#999999" points="726.5,-74.5 683.5,-74.5 683.5,-55.25 726.5,-55.25 726.5,-74.5"/>
<text text-anchor="middle" x="705" y="-61" font-family="Helvetica,sans-Serif" font-size="10.00">vector</text>
</a>
</g>
</g>
<!-- Node5&#45;&gt;Node7 -->
<g id="edge58_Node000005_Node000007" class="edge">
<title>Node5&#45;&gt;Node7</title>
<g id="a_edge58_Node000005_Node000007"><a xlink:title=" ">
<path fill="none" stroke="#63b8ff" d="M1025.43,-275.84C1028.34,-254.08 1032.51,-198.16 1005,-165.75 1000.49,-160.44 814.36,-100.71 737.59,-76.24"/>
<polygon fill="#63b8ff" stroke="#63b8ff" points="738.7,-72.92 728.11,-73.22 736.58,-79.59 738.7,-72.92"/>
</a>
</g>
</g>
<!-- Node19 -->
<g id="Node000019" class="node">
<title>Node19</title>
<g id="a_Node000019"><a xlink:title=" ">
<polygon fill="#e0e0e0" stroke="#999999" points="995.75,-185 942.25,-185 942.25,-165.75 995.75,-165.75 995.75,-185"/>
<text text-anchor="middle" x="969" y="-171.5" font-family="Helvetica,sans-Serif" font-size="10.00">Rtypes.h</text>
</a>
</g>
</g>
<!-- Node5&#45;&gt;Node19 -->
<g id="edge60_Node000005_Node000019" class="edge">
<title>Node5&#45;&gt;Node19</title>
<g id="a_edge60_Node000005_Node000019"><a xlink:title=" ">
<path fill="none" stroke="#63b8ff" d="M1019.5,-276C1010.64,-258.51 990.74,-219.27 978.74,-195.59"/>
<polygon fill="#63b8ff" stroke="#63b8ff" points="981.89,-194.06 974.25,-186.73 975.65,-197.23 981.89,-194.06"/>
</a>
</g>
</g>
<!-- Node21 -->
<g id="Node000021" class="node">
<title>Node21</title>
<g id="a_Node000021"><a xlink:href="_t_p_p_g_8h.html" target="_top" xlink:title=" ">
<polygon fill="white" stroke="#666666" points="1102.25,-185 1051.75,-185 1051.75,-165.75 1102.25,-165.75 1102.25,-185"/>
<text text-anchor="middle" x="1077" y="-171.5" font-family="Helvetica,sans-Serif" font-size="10.00">TPPG.h</text>
</a>
</g>
</g>
<!-- Node5&#45;&gt;Node21 -->
<g id="edge56_Node000005_Node000021" class="edge">
<title>Node5&#45;&gt;Node21</title>
<g id="a_edge56_Node000005_Node000021"><a xlink:title=" ">
<path fill="none" stroke="#63b8ff" d="M1028.34,-276C1036.88,-258.51 1056.05,-219.27 1067.62,-195.59"/>
<polygon fill="#63b8ff" stroke="#63b8ff" points="1070.69,-197.26 1071.94,-186.74 1064.4,-194.19 1070.69,-197.26"/>
</a>
</g>
</g>
<!-- Node23 -->
<g id="Node000023" class="node">
<title>Node23</title>
<g id="a_Node000023"><a xlink:title=" ">
<polygon fill="#e0e0e0" stroke="#999999" points="1280.75,-19.25 1227.25,-19.25 1227.25,0 1280.75,0 1280.75,-19.25"/>
<text text-anchor="middle" x="1254" y="-5.75" font-family="Helvetica,sans-Serif" font-size="10.00">iostream</text>
</a>
</g>
</g>
<!-- Node5&#45;&gt;Node23 -->
<g id="edge57_Node000005_Node000023" class="edge">
<title>Node5&#45;&gt;Node23</title>
<g id="a_edge57_Node000005_Node000023"><a xlink:title=" ">
<path fill="none" stroke="#63b8ff" d="M1059.7,-279.94C1140.42,-267.77 1330,-233.16 1330,-176.38 1330,-176.38 1330,-176.38 1330,-119.12 1330,-80.52 1297.32,-45.89 1274.82,-26.62"/>
<polygon fill="#63b8ff" stroke="#63b8ff" points="1277.33,-24.16 1267.38,-20.52 1272.89,-29.57 1277.33,-24.16"/>
</a>
</g>
</g>
<!-- Node44 -->
<g id="Node000044" class="node">
<title>Node44</title>
<g id="a_Node000044"><a xlink:title=" ">
<polygon fill="#e0e0e0" stroke="#999999" points="1398,-240.25 1358,-240.25 1358,-221 1398,-221 1398,-240.25"/>
<text text-anchor="middle" x="1378" y="-226.75" font-family="Helvetica,sans-Serif" font-size="10.00">ctime</text>
</a>
</g>
</g>
<!-- Node5&#45;&gt;Node44 -->
<g id="edge59_Node000005_Node000044" class="edge">
<title>Node5&#45;&gt;Node44</title>
<g id="a_edge59_Node000005_Node000044"><a xlink:title=" ">
<path fill="none" stroke="#63b8ff" d="M1059.73,-281.19C1119.08,-274.78 1241.61,-260.31 1344,-240.25 1344.83,-240.09 1345.67,-239.92 1346.51,-239.74"/>
<polygon fill="#63b8ff" stroke="#63b8ff" points="1347.15,-243.19 1356.11,-237.53 1345.58,-236.36 1347.15,-243.19"/>
</a>
</g>
</g>
<!-- Node6&#45;&gt;Node4 -->
<g id="edge20_Node000006_Node000004" class="edge">
<title>Node6&#45;&gt;Node4</title>
<g id="a_edge20_Node000006_Node000004"><a xlink:title=" ">
<path fill="none" stroke="#63b8ff" d="M756.92,-220.53C717.46,-211.11 655.93,-196.42 614.81,-186.6"/>
<polygon fill="#63b8ff" stroke="#63b8ff" points="615.8,-183.24 605.26,-184.32 614.17,-190.04 615.8,-183.24"/>
</a>
</g>
</g>
<!-- Node6&#45;&gt;Node7 -->
<g id="edge6_Node000006_Node000007" class="edge">
<title>Node6&#45;&gt;Node7</title>
<g id="a_edge6_Node000006_Node000007"><a xlink:title=" ">
<path fill="none" stroke="#63b8ff" d="M757,-220.62C738.23,-214.05 717.24,-203.04 706,-185 687.1,-154.67 693.26,-111.01 699.26,-85.83"/>
<polygon fill="#63b8ff" stroke="#63b8ff" points="702.62,-86.83 701.78,-76.27 695.85,-85.05 702.62,-86.83"/>
</a>
</g>
</g>
<!-- Node6&#45;&gt;Node8 -->
<g id="edge7_Node000006_Node000008" class="edge">
<title>Node6&#45;&gt;Node8</title>
<g id="a_edge7_Node000006_Node000008"><a xlink:title=" ">
<path fill="none" stroke="#63b8ff" d="M755.1,-223.72C687.12,-213.67 549.38,-193.29 478.82,-182.86"/>
<polygon fill="#63b8ff" stroke="#63b8ff" points="479.58,-179.43 469.18,-181.43 478.56,-186.36 479.58,-179.43"/>
</a>
</g>
</g>
<!-- Node18 -->
<g id="Node000018" class="node">
<title>Node18</title>
<g id="a_Node000018"><a xlink:title=" ">
<polygon fill="#e0e0e0" stroke="#999999" points="948,-74.5 890,-74.5 890,-55.25 948,-55.25 948,-74.5"/>
<text text-anchor="middle" x="919" y="-61" font-family="Helvetica,sans-Serif" font-size="10.00">TObject.h</text>
</a>
</g>
</g>
<!-- Node6&#45;&gt;Node18 -->
<g id="edge21_Node000006_Node000018" class="edge">
<title>Node6&#45;&gt;Node18</title>
<g id="a_edge21_Node000006_Node000018"><a xlink:title=" ">
<path fill="none" stroke="#63b8ff" d="M834.84,-221.18C855.77,-214.72 880.09,-203.63 895,-185 917.89,-156.4 920.77,-111.78 920.25,-86.04"/>
<polygon fill="#63b8ff" stroke="#63b8ff" points="923.76,-86.14 919.84,-76.29 916.77,-86.43 923.76,-86.14"/>
</a>
</g>
</g>
<!-- Node6&#45;&gt;Node19 -->
<g id="edge22_Node000006_Node000019" class="edge">
<title>Node6&#45;&gt;Node19</title>
<g id="a_edge22_Node000006_Node000019"><a xlink:title=" ">
<path fill="none" stroke="#63b8ff" d="M824.52,-220.59C853.92,-211.59 899.18,-197.74 931.19,-187.95"/>
<polygon fill="#63b8ff" stroke="#63b8ff" points="931.93,-191.38 940.47,-185.11 929.88,-184.69 931.93,-191.38"/>
</a>
</g>
</g>
<!-- Node20 -->
<g id="Node000020" class="node">
<title>Node20</title>
<g id="a_Node000020"><a xlink:title=" ">
<polygon fill="#e0e0e0" stroke="#999999" points="780.75,-185 715.25,-185 715.25,-165.75 780.75,-165.75 780.75,-185"/>
<text text-anchor="middle" x="748" y="-171.5" font-family="Helvetica,sans-Serif" font-size="10.00">TRandom.h</text>
</a>
</g>
</g>
<!-- Node6&#45;&gt;Node20 -->
<g id="edge23_Node000006_Node000020" class="edge">
<title>Node6&#45;&gt;Node20</title>
<g id="a_edge23_Node000006_Node000020"><a xlink:title=" ">
<path fill="none" stroke="#63b8ff" d="M787.24,-220.83C780.81,-213.55 771.49,-202.98 763.54,-193.98"/>
<polygon fill="#63b8ff" stroke="#63b8ff" points="766.17,-191.68 756.93,-186.49 760.92,-196.31 766.17,-191.68"/>
</a>
</g>
</g>
<!-- Node6&#45;&gt;Node21 -->
<g id="edge24_Node000006_Node000021" class="edge">
<title>Node6&#45;&gt;Node21</title>
<g id="a_edge24_Node000006_Node000021"><a xlink:title=" ">
<path fill="none" stroke="#63b8ff" d="M834.81,-222.11C889.57,-211.77 987.38,-193.3 1040.41,-183.29"/>
<polygon fill="#63b8ff" stroke="#63b8ff" points="1040.96,-186.74 1050.14,-181.45 1039.67,-179.86 1040.96,-186.74"/>
</a>
</g>
</g>
<!-- Node42 -->
<g id="Node000042" class="node">
<title>Node42</title>
<g id="a_Node000042"><a xlink:href="_t_transient_bits_8h.html" target="_top" xlink:title=" ">
<polygon fill="white" stroke="#666666" points="885.62,-185 798.38,-185 798.38,-165.75 885.62,-165.75 885.62,-185"/>
<text text-anchor="middle" x="842" y="-171.5" font-family="Helvetica,sans-Serif" font-size="10.00">TTransientBits.h</text>
</a>
</g>
</g>
<!-- Node6&#45;&gt;Node42 -->
<g id="edge53_Node000006_Node000042" class="edge">
<title>Node6&#45;&gt;Node42</title>
<g id="a_edge53_Node000006_Node000042"><a xlink:title=" ">
<path fill="none" stroke="#63b8ff" d="M802.76,-220.83C809.19,-213.55 818.51,-202.98 826.46,-193.98"/>
<polygon fill="#63b8ff" stroke="#63b8ff" points="829.08,-196.31 833.07,-186.49 823.83,-191.68 829.08,-196.31"/>
</a>
</g>
</g>
<!-- Node8&#45;&gt;Node3 -->
<g id="edge9_Node000008_Node000003" class="edge">
<title>Node8&#45;&gt;Node3</title>
<g id="a_edge9_Node000008_Node000003"><a xlink:title=" ">
<path fill="none" stroke="#63b8ff" d="M402.58,-171.41C340.72,-165.49 201.66,-150.94 86,-129.75 84.83,-129.54 83.64,-129.31 82.44,-129.07"/>
<polygon fill="#63b8ff" stroke="#63b8ff" points="83.62,-125.74 73.1,-127.03 82.12,-132.58 83.62,-125.74"/>
</a>
</g>
</g>
<!-- Node9 -->
<g id="Node000009" class="node">
<title>Node9</title>
<g id="a_Node000009"><a xlink:title=" ">
<polygon fill="#e0e0e0" stroke="#999999" points="236,-19.25 196,-19.25 196,0 236,0 236,-19.25"/>
<text text-anchor="middle" x="216" y="-5.75" font-family="Helvetica,sans-Serif" font-size="10.00">string</text>
</a>
</g>
</g>
<!-- Node8&#45;&gt;Node9 -->
<g id="edge8_Node000008_Node000009" class="edge">
<title>Node8&#45;&gt;Node9</title>
<g id="a_edge8_Node000008_Node000009"><a xlink:title=" ">
<path fill="none" stroke="#63b8ff" d="M402.35,-172.16C325.34,-166.6 137.44,-150.98 119,-129.75 108.03,-117.12 107.07,-82.88 127,-55.25 140.78,-36.15 165.1,-24.74 184.84,-18.24"/>
<polygon fill="#63b8ff" stroke="#63b8ff" points="185.79,-21.61 194.37,-15.4 183.79,-14.91 185.79,-21.61"/>
</a>
</g>
</g>
<!-- Node10 -->
<g id="Node000010" class="node">
<title>Node10</title>
<g id="a_Node000010"><a xlink:title=" ">
<polygon fill="#e0e0e0" stroke="#999999" points="677.25,-129.75 638.75,-129.75 638.75,-110.5 677.25,-110.5 677.25,-129.75"/>
<text text-anchor="middle" x="658" y="-116.25" font-family="Helvetica,sans-Serif" font-size="10.00">utility</text>
</a>
</g>
</g>
<!-- Node8&#45;&gt;Node10 -->
<g id="edge10_Node000008_Node000010" class="edge">
<title>Node8&#45;&gt;Node10</title>
<g id="a_edge10_Node000008_Node000010"><a xlink:title=" ">
<path fill="none" stroke="#63b8ff" d="M467.61,-167.68C504.28,-159.99 565.83,-146.58 627.39,-130.3"/>
<polygon fill="#63b8ff" stroke="#63b8ff" points="628.25,-133.7 637.01,-127.73 626.44,-126.93 628.25,-133.7"/>
</a>
</g>
</g>
<!-- Node11 -->
<g id="Node000011" class="node">
<title>Node11</title>
<g id="a_Node000011"><a xlink:title=" ">
<polygon fill="#e0e0e0" stroke="#999999" points="313.38,-129.75 230.62,-129.75 230.62,-110.5 313.38,-110.5 313.38,-129.75"/>
<text text-anchor="middle" x="272" y="-116.25" font-family="Helvetica,sans-Serif" font-size="10.00">unordered_map</text>
</a>
</g>
</g>
<!-- Node8&#45;&gt;Node11 -->
<g id="edge11_Node000008_Node000011" class="edge">
<title>Node8&#45;&gt;Node11</title>
<g id="a_edge11_Node000008_Node000011"><a xlink:title=" ">
<path fill="none" stroke="#63b8ff" d="M407.35,-165.34C380.77,-156.66 340.36,-143.46 310.61,-133.74"/>
<polygon fill="#63b8ff" stroke="#63b8ff" points="311.82,-130.45 301.23,-130.67 309.64,-137.1 311.82,-130.45"/>
</a>
</g>
</g>
<!-- Node12 -->
<g id="Node000012" class="node">
<title>Node12</title>
<g id="a_Node000012"><a xlink:title=" ">
<polygon fill="#e0e0e0" stroke="#999999" points="392.5,-129.75 331.5,-129.75 331.5,-110.5 392.5,-110.5 392.5,-129.75"/>
<text text-anchor="middle" x="362" y="-116.25" font-family="Helvetica,sans-Serif" font-size="10.00">TNamed.h</text>
</a>
</g>
</g>
<!-- Node8&#45;&gt;Node12 -->
<g id="edge12_Node000008_Node000012" class="edge">
<title>Node8&#45;&gt;Node12</title>
<g id="a_edge12_Node000008_Node000012"><a xlink:title=" ">
<path fill="none" stroke="#63b8ff" d="M422.62,-165.34C411.85,-157.49 396.03,-145.95 383.25,-136.62"/>
<polygon fill="#63b8ff" stroke="#63b8ff" points="385.56,-133.98 375.42,-130.92 381.44,-139.64 385.56,-133.98"/>
</a>
</g>
</g>
<!-- Node13 -->
<g id="Node000013" class="node">
<title>Node13</title>
<g id="a_Node000013"><a xlink:title=" ">
<polygon fill="#e0e0e0" stroke="#999999" points="459.5,-129.75 410.5,-129.75 410.5,-110.5 459.5,-110.5 459.5,-129.75"/>
<text text-anchor="middle" x="435" y="-116.25" font-family="Helvetica,sans-Serif" font-size="10.00">TTree.h</text>
</a>
</g>
</g>
<!-- Node8&#45;&gt;Node13 -->
<g id="edge13_Node000008_Node000013" class="edge">
<title>Node8&#45;&gt;Node13</title>
<g id="a_edge13_Node000008_Node000013"><a xlink:title=" ">
<path fill="none" stroke="#63b8ff" d="M435,-165.58C435,-159.07 435,-149.92 435,-141.62"/>
<polygon fill="#63b8ff" stroke="#63b8ff" points="438.5,-141.62 435,-131.62 431.5,-141.62 438.5,-141.62"/>
</a>
</g>
</g>
<!-- Node14 -->
<g id="Node000014" class="node">
<title>Node14</title>
<g id="a_Node000014"><a xlink:title=" ">
<polygon fill="#e0e0e0" stroke="#999999" points="532.88,-129.75 477.12,-129.75 477.12,-110.5 532.88,-110.5 532.88,-129.75"/>
<text text-anchor="middle" x="505" y="-116.25" font-family="Helvetica,sans-Serif" font-size="10.00">TGraph.h</text>
</a>
</g>
</g>
<!-- Node8&#45;&gt;Node14 -->
<g id="edge14_Node000008_Node000014" class="edge">
<title>Node8&#45;&gt;Node14</title>
<g id="a_edge14_Node000008_Node000014"><a xlink:title=" ">
<path fill="none" stroke="#63b8ff" d="M446.87,-165.34C457.09,-157.57 472.07,-146.17 484.26,-136.9"/>
<polygon fill="#63b8ff" stroke="#63b8ff" points="486.26,-139.78 492.1,-130.94 482.02,-134.21 486.26,-139.78"/>
</a>
</g>
</g>
<!-- Node15 -->
<g id="Node000015" class="node">
<title>Node15</title>
<g id="a_Node000015"><a xlink:title=" ">
<polygon fill="#e0e0e0" stroke="#999999" points="620.62,-129.75 551.38,-129.75 551.38,-110.5 620.62,-110.5 620.62,-129.75"/>
<text text-anchor="middle" x="586" y="-116.25" font-family="Helvetica,sans-Serif" font-size="10.00">TClassRef.h</text>
</a>
</g>
</g>
<!-- Node8&#45;&gt;Node15 -->
<g id="edge15_Node000008_Node000015" class="edge">
<title>Node8&#45;&gt;Node15</title>
<g id="a_edge15_Node000008_Node000015"><a xlink:title=" ">
<path fill="none" stroke="#63b8ff" d="M460.62,-165.34C485.02,-156.74 522.01,-143.69 549.5,-134"/>
<polygon fill="#63b8ff" stroke="#63b8ff" points="550.57,-137.33 558.83,-130.71 548.24,-130.73 550.57,-137.33"/>
</a>
</g>
</g>
<!-- Node16 -->
<g id="Node000016" class="node">
<title>Node16</title>
<g id="a_Node000016"><a xlink:href="_t_priority_value_8h.html" target="_top" xlink:title=" ">
<polygon fill="white" stroke="#666666" points="212.12,-129.75 127.88,-129.75 127.88,-110.5 212.12,-110.5 212.12,-129.75"/>
<text text-anchor="middle" x="170" y="-116.25" font-family="Helvetica,sans-Serif" font-size="10.00">TPriorityValue.h</text>
</a>
</g>
</g>
<!-- Node8&#45;&gt;Node16 -->
<g id="edge16_Node000008_Node000016" class="edge">
<title>Node8&#45;&gt;Node16</title>
<g id="a_edge16_Node000008_Node000016"><a xlink:title=" ">
<path fill="none" stroke="#63b8ff" d="M402.24,-167.79C357.51,-158.8 276.78,-142.58 223.28,-131.83"/>
<polygon fill="#63b8ff" stroke="#63b8ff" points="224.28,-128.46 213.78,-129.92 222.9,-135.32 224.28,-128.46"/>
</a>
</g>
</g>
<!-- Node16&#45;&gt;Node7 -->
<g id="edge19_Node000016_Node000007" class="edge">
<title>Node16&#45;&gt;Node7</title>
<g id="a_edge19_Node000016_Node000007"><a xlink:title=" ">
<path fill="none" stroke="#63b8ff" d="M212.53,-111.81C215.73,-111.34 218.91,-110.9 222,-110.5 390.81,-88.73 594.15,-73.52 672.26,-68.08"/>
<polygon fill="#63b8ff" stroke="#63b8ff" points="672.03,-71.6 681.77,-67.42 671.55,-64.62 672.03,-71.6"/>
</a>
</g>
</g>
<!-- Node16&#45;&gt;Node9 -->
<g id="edge18_Node000016_Node000009" class="edge">
<title>Node16&#45;&gt;Node9</title>
<g id="a_edge18_Node000016_Node000009"><a xlink:title=" ">
<path fill="none" stroke="#63b8ff" d="M176.3,-110.26C182.28,-101.52 191.21,-87.58 197,-74.5 203.32,-60.23 208.25,-43.26 211.51,-30.4"/>
<polygon fill="#63b8ff" stroke="#63b8ff" points="214.83,-31.57 213.75,-21.03 208.02,-29.94 214.83,-31.57"/>
</a>
</g>
</g>
<!-- Node17 -->
<g id="Node000017" class="node">
<title>Node17</title>
<g id="a_Node000017"><a xlink:title=" ">
<polygon fill="#e0e0e0" stroke="#999999" points="187.62,-74.5 136.38,-74.5 136.38,-55.25 187.62,-55.25 187.62,-74.5"/>
<text text-anchor="middle" x="162" y="-61" font-family="Helvetica,sans-Serif" font-size="10.00">ostream</text>
</a>
</g>
</g>
<!-- Node16&#45;&gt;Node17 -->
<g id="edge17_Node000016_Node000017" class="edge">
<title>Node16&#45;&gt;Node17</title>
<g id="a_edge17_Node000016_Node000017"><a xlink:title=" ">
<path fill="none" stroke="#63b8ff" d="M168.68,-110.33C167.69,-103.74 166.29,-94.46 165.03,-86.07"/>
<polygon fill="#63b8ff" stroke="#63b8ff" points="168.52,-85.72 163.57,-76.36 161.6,-86.76 168.52,-85.72"/>
</a>
</g>
</g>
<!-- Node21&#45;&gt;Node10 -->
<g id="edge26_Node000021_Node000010" class="edge">
<title>Node21&#45;&gt;Node10</title>
<g id="a_edge26_Node000021_Node000010"><a xlink:title=" ">
<path fill="none" stroke="#63b8ff" d="M1051.31,-171.16C993.06,-163.88 846.54,-145.5 724,-129.75 712.55,-128.28 699.99,-126.64 688.93,-125.19"/>
<polygon fill="#63b8ff" stroke="#63b8ff" points="689.51,-121.74 679.14,-123.91 688.6,-128.68 689.51,-121.74"/>
</a>
</g>
</g>
<!-- Node21&#45;&gt;Node18 -->
<g id="edge28_Node000021_Node000018" class="edge">
<title>Node21&#45;&gt;Node18</title>
<g id="a_edge28_Node000021_Node000018"><a xlink:title=" ">
<path fill="none" stroke="#63b8ff" d="M1076.87,-165.67C1076.19,-152.06 1072.89,-125.71 1058,-110.5 1050.86,-103.2 997.66,-87.42 959.2,-76.72"/>
<polygon fill="#63b8ff" stroke="#63b8ff" points="960.33,-73.4 949.76,-74.11 958.47,-80.15 960.33,-73.4"/>
</a>
</g>
</g>
<!-- Node22 -->
<g id="Node000022" class="node">
<title>Node22</title>
<g id="a_Node000022"><a xlink:title=" ">
<polygon fill="#e0e0e0" stroke="#999999" points="1139.38,-129.75 1104.62,-129.75 1104.62,-110.5 1139.38,-110.5 1139.38,-129.75"/>
<text text-anchor="middle" x="1122" y="-116.25" font-family="Helvetica,sans-Serif" font-size="10.00">map</text>
</a>
</g>
</g>
<!-- Node21&#45;&gt;Node22 -->
<g id="edge25_Node000021_Node000022" class="edge">
<title>Node21&#45;&gt;Node22</title>
<g id="a_edge25_Node000021_Node000022"><a xlink:title=" ">
<path fill="none" stroke="#63b8ff" d="M1084.43,-165.58C1090.58,-158.3 1099.51,-147.73 1107.13,-138.73"/>
<polygon fill="#63b8ff" stroke="#63b8ff" points="1109.65,-141.16 1113.43,-131.27 1104.3,-136.64 1109.65,-141.16"/>
</a>
</g>
</g>
<!-- Node21&#45;&gt;Node23 -->
<g id="edge27_Node000021_Node000023" class="edge">
<title>Node21&#45;&gt;Node23</title>
<g id="a_edge27_Node000021_Node000023"><a xlink:title=" ">
<path fill="none" stroke="#63b8ff" d="M1102.7,-174.37C1137.57,-172.95 1199.67,-165.18 1236,-129.75 1262.25,-104.15 1260.99,-57.74 1257.59,-31.04"/>
<polygon fill="#63b8ff" stroke="#63b8ff" points="1261.05,-30.54 1256.08,-21.18 1254.13,-31.6 1261.05,-30.54"/>
</a>
</g>
</g>
<!-- Node24 -->
<g id="Node000024" class="node">
<title>Node24</title>
<g id="a_Node000024"><a xlink:title=" ">
<polygon fill="#e0e0e0" stroke="#999999" points="1049.12,-129.75 976.88,-129.75 976.88,-110.5 1049.12,-110.5 1049.12,-129.75"/>
<text text-anchor="middle" x="1013" y="-116.25" font-family="Helvetica,sans-Serif" font-size="10.00">TCollection.h</text>
</a>
</g>
</g>
<!-- Node21&#45;&gt;Node24 -->
<g id="edge29_Node000021_Node000024" class="edge">
<title>Node21&#45;&gt;Node24</title>
<g id="a_edge29_Node000021_Node000024"><a xlink:title=" ">
<path fill="none" stroke="#63b8ff" d="M1066.14,-165.34C1056.89,-157.65 1043.38,-146.4 1032.29,-137.18"/>
<polygon fill="#63b8ff" stroke="#63b8ff" points="1034.79,-134.7 1024.86,-130.99 1030.31,-140.08 1034.79,-134.7"/>
</a>
</g>
</g>
<!-- Node25 -->
<g id="Node000025" class="node">
<title>Node25</title>
<g id="a_Node000025"><a xlink:href="_globals_8h.html" target="_top" xlink:title=" ">
<polygon fill="white" stroke="#666666" points="807.25,-74.5 750.75,-74.5 750.75,-55.25 807.25,-55.25 807.25,-74.5"/>
<text text-anchor="middle" x="779" y="-61" font-family="Helvetica,sans-Serif" font-size="10.00">Globals.h</text>
</a>
</g>
</g>
<!-- Node21&#45;&gt;Node25 -->
<g id="edge30_Node000021_Node000025" class="edge">
<title>Node21&#45;&gt;Node25</title>
<g id="a_edge30_Node000021_Node000025"><a xlink:title=" ">
<path fill="none" stroke="#63b8ff" d="M1052.11,-165.31C999.3,-146.08 875.89,-101.15 814.7,-78.87"/>
<polygon fill="#63b8ff" stroke="#63b8ff" points="816.05,-75.64 805.46,-75.51 813.65,-82.22 816.05,-75.64"/>
</a>
</g>
</g>
<!-- Node37 -->
<g id="Node000037" class="node">
<title>Node37</title>
<g id="a_Node000037"><a xlink:href="_t_singleton_8h.html" target="_top" xlink:title=" ">
<polygon fill="white" stroke="#666666" points="1227,-129.75 1157,-129.75 1157,-110.5 1227,-110.5 1227,-129.75"/>
<text text-anchor="middle" x="1192" y="-116.25" font-family="Helvetica,sans-Serif" font-size="10.00">TSingleton.h</text>
</a>
</g>
</g>
<!-- Node21&#45;&gt;Node37 -->
<g id="edge45_Node000021_Node000037" class="edge">
<title>Node21&#45;&gt;Node37</title>
<g id="a_edge45_Node000021_Node000037"><a xlink:title=" ">
<path fill="none" stroke="#63b8ff" d="M1096.51,-165.34C1114.52,-157 1141.52,-144.5 1162.23,-134.91"/>
<polygon fill="#63b8ff" stroke="#63b8ff" points="1163.42,-138.22 1171.02,-130.84 1160.48,-131.86 1163.42,-138.22"/>
</a>
</g>
</g>
<!-- Node25&#45;&gt;Node2 -->
<g id="edge35_Node000025_Node000002" class="edge">
<title>Node25&#45;&gt;Node2</title>
<g id="a_edge35_Node000025_Node000002"><a xlink:title=" ">
<path fill="none" stroke="#63b8ff" d="M750.41,-57.59C745.61,-56.7 740.68,-55.87 736,-55.25 493.59,-23.14 430.86,-37.26 187,-19.25 162.76,-17.46 135.38,-15.2 114.66,-13.45"/>
<polygon fill="#63b8ff" stroke="#63b8ff" points="115.08,-9.97 104.82,-12.61 114.48,-16.94 115.08,-9.97"/>
</a>
</g>
</g>
<!-- Node25&#45;&gt;Node9 -->
<g id="edge34_Node000025_Node000009" class="edge">
<title>Node25&#45;&gt;Node9</title>
<g id="a_edge34_Node000025_Node000009"><a xlink:title=" ">
<path fill="none" stroke="#63b8ff" d="M750.4,-57.67C745.61,-56.77 740.67,-55.92 736,-55.25 552.13,-29.01 329.33,-16.18 247.82,-12.11"/>
<polygon fill="#63b8ff" stroke="#63b8ff" points="248.08,-8.62 237.92,-11.62 247.74,-15.61 248.08,-8.62"/>
</a>
</g>
</g>
<!-- Node25&#45;&gt;Node23 -->
<g id="edge31_Node000025_Node000023" class="edge">
<title>Node25&#45;&gt;Node23</title>
<g id="a_edge31_Node000025_Node000023"><a xlink:title=" ">
<path fill="none" stroke="#63b8ff" d="M807.4,-57.64C811.93,-56.76 816.59,-55.93 821,-55.25 896.77,-43.59 1124.42,-22.38 1215.61,-14.09"/>
<polygon fill="#63b8ff" stroke="#63b8ff" points="1215.89,-17.57 1225.53,-13.18 1215.26,-10.6 1215.89,-17.57"/>
</a>
</g>
</g>
<!-- Node26 -->
<g id="Node000026" class="node">
<title>Node26</title>
<g id="a_Node000026"><a xlink:title=" ">
<polygon fill="#e0e0e0" stroke="#999999" points="662.88,-19.25 613.12,-19.25 613.12,0 662.88,0 662.88,-19.25"/>
<text text-anchor="middle" x="638" y="-5.75" font-family="Helvetica,sans-Serif" font-size="10.00">iomanip</text>
</a>
</g>
</g>
<!-- Node25&#45;&gt;Node26 -->
<g id="edge32_Node000025_Node000026" class="edge">
<title>Node25&#45;&gt;Node26</title>
<g id="a_edge32_Node000025_Node000026"><a xlink:title=" ">
<path fill="none" stroke="#63b8ff" d="M755.08,-54.84C732.5,-46.31 698.36,-33.42 672.77,-23.76"/>
<polygon fill="#63b8ff" stroke="#63b8ff" points="674.04,-20.5 663.45,-20.24 671.57,-27.04 674.04,-20.5"/>
</a>
</g>
</g>
<!-- Node27 -->
<g id="Node000027" class="node">
<title>Node27</title>
<g id="a_Node000027"><a xlink:title=" ">
<polygon fill="#e0e0e0" stroke="#999999" points="739,-19.25 681,-19.25 681,0 739,0 739,-19.25"/>
<text text-anchor="middle" x="710" y="-5.75" font-family="Helvetica,sans-Serif" font-size="10.00">stdexcept</text>
</a>
</g>
</g>
<!-- Node25&#45;&gt;Node27 -->
<g id="edge33_Node000025_Node000027" class="edge">
<title>Node25&#45;&gt;Node27</title>
<g id="a_edge33_Node000025_Node000027"><a xlink:title=" ">
<path fill="none" stroke="#63b8ff" d="M767.3,-54.84C757.22,-47.07 742.46,-35.67 730.44,-26.4"/>
<polygon fill="#63b8ff" stroke="#63b8ff" points="732.79,-23.79 722.73,-20.45 728.51,-29.33 732.79,-23.79"/>
</a>
</g>
</g>
<!-- Node28 -->
<g id="Node000028" class="node">
<title>Node28</title>
<g id="a_Node000028"><a xlink:title=" ">
<polygon fill="#e0e0e0" stroke="#999999" points="801.25,-19.25 756.75,-19.25 756.75,0 801.25,0 801.25,-19.25"/>
<text text-anchor="middle" x="779" y="-5.75" font-family="Helvetica,sans-Serif" font-size="10.00">cstdlib</text>
</a>
</g>
</g>
<!-- Node25&#45;&gt;Node28 -->
<g id="edge36_Node000025_Node000028" class="edge">
<title>Node25&#45;&gt;Node28</title>
<g id="a_edge36_Node000025_Node000028"><a xlink:title=" ">
<path fill="none" stroke="#63b8ff" d="M779,-55.08C779,-48.57 779,-39.42 779,-31.12"/>
<polygon fill="#63b8ff" stroke="#63b8ff" points="782.5,-31.12 779,-21.12 775.5,-31.12 782.5,-31.12"/>
</a>
</g>
</g>
<!-- Node29 -->
<g id="Node000029" class="node">
<title>Node29</title>
<g id="a_Node000029"><a xlink:title=" ">
<polygon fill="#e0e0e0" stroke="#999999" points="878.75,-19.25 819.25,-19.25 819.25,0 878.75,0 878.75,-19.25"/>
<text text-anchor="middle" x="849" y="-5.75" font-family="Helvetica,sans-Serif" font-size="10.00">execinfo.h</text>
</a>
</g>
</g>
<!-- Node25&#45;&gt;Node29 -->
<g id="edge37_Node000025_Node000029" class="edge">
<title>Node25&#45;&gt;Node29</title>
<g id="a_edge37_Node000025_Node000029"><a xlink:title=" ">
<path fill="none" stroke="#63b8ff" d="M790.87,-54.84C801.09,-47.07 816.07,-35.67 828.26,-26.4"/>
<polygon fill="#63b8ff" stroke="#63b8ff" points="830.26,-29.28 836.1,-20.44 826.02,-23.71 830.26,-29.28"/>
</a>
</g>
</g>
<!-- Node30 -->
<g id="Node000030" class="node">
<title>Node30</title>
<g id="a_Node000030"><a xlink:title=" ">
<polygon fill="#e0e0e0" stroke="#999999" points="947.25,-19.25 896.75,-19.25 896.75,0 947.25,0 947.25,-19.25"/>
<text text-anchor="middle" x="922" y="-5.75" font-family="Helvetica,sans-Serif" font-size="10.00">cxxabi.h</text>
</a>
</g>
</g>
<!-- Node25&#45;&gt;Node30 -->
<g id="edge38_Node000025_Node000030" class="edge">
<title>Node25&#45;&gt;Node30</title>
<g id="a_edge38_Node000025_Node000030"><a xlink:title=" ">
<path fill="none" stroke="#63b8ff" d="M803.26,-54.84C826.27,-46.27 861.09,-33.31 887.08,-23.63"/>
<polygon fill="#63b8ff" stroke="#63b8ff" points="888.05,-27 896.2,-20.23 885.61,-20.44 888.05,-27"/>
</a>
</g>
</g>
<!-- Node31 -->
<g id="Node000031" class="node">
<title>Node31</title>
<g id="a_Node000031"><a xlink:title=" ">
<polygon fill="#e0e0e0" stroke="#999999" points="1016.62,-19.25 965.38,-19.25 965.38,0 1016.62,0 1016.62,-19.25"/>
<text text-anchor="middle" x="991" y="-5.75" font-family="Helvetica,sans-Serif" font-size="10.00">sstream</text>
</a>
</g>
</g>
<!-- Node25&#45;&gt;Node31 -->
<g id="edge39_Node000025_Node000031" class="edge">
<title>Node25&#45;&gt;Node31</title>
<g id="a_edge39_Node000025_Node000031"><a xlink:title=" ">
<path fill="none" stroke="#63b8ff" d="M807.59,-56.69C845.51,-47.17 912.47,-30.35 954.14,-19.88"/>
<polygon fill="#63b8ff" stroke="#63b8ff" points="954.87,-23.31 963.71,-17.48 953.16,-16.52 954.87,-23.31"/>
</a>
</g>
</g>
<!-- Node32 -->
<g id="Node000032" class="node">
<title>Node32</title>
<g id="a_Node000032"><a xlink:title=" ">
<polygon fill="#e0e0e0" stroke="#999999" points="1071.5,-19.25 1034.5,-19.25 1034.5,0 1071.5,0 1071.5,-19.25"/>
<text text-anchor="middle" x="1053" y="-5.75" font-family="Helvetica,sans-Serif" font-size="10.00">array</text>
</a>
</g>
</g>
<!-- Node25&#45;&gt;Node32 -->
<g id="edge40_Node000025_Node000032" class="edge">
<title>Node25&#45;&gt;Node32</title>
<g id="a_edge40_Node000025_Node000032"><a xlink:title=" ">
<path fill="none" stroke="#63b8ff" d="M807.44,-57.92C811.97,-57 816.61,-56.09 821,-55.25 908.32,-38.62 934.18,-41.14 1023.05,-19.72"/>
<polygon fill="#63b8ff" stroke="#63b8ff" points="1023.86,-23.12 1032.74,-17.35 1022.19,-16.33 1023.86,-23.12"/>
</a>
</g>
</g>
<!-- Node33 -->
<g id="Node000033" class="node">
<title>Node33</title>
<g id="a_Node000033"><a xlink:title=" ">
<polygon fill="#e0e0e0" stroke="#999999" points="1140.25,-19.25 1089.75,-19.25 1089.75,0 1140.25,0 1140.25,-19.25"/>
<text text-anchor="middle" x="1115" y="-5.75" font-family="Helvetica,sans-Serif" font-size="10.00">memory</text>
</a>
</g>
</g>
<!-- Node25&#45;&gt;Node33 -->
<g id="edge41_Node000025_Node000033" class="edge">
<title>Node25&#45;&gt;Node33</title>
<g id="a_edge41_Node000025_Node000033"><a xlink:title=" ">
<path fill="none" stroke="#63b8ff" d="M807.42,-57.78C811.95,-56.88 816.6,-56.01 821,-55.25 932.38,-36.12 964.52,-41.27 1078.19,-19.61"/>
<polygon fill="#63b8ff" stroke="#63b8ff" points="1078.81,-23.06 1087.96,-17.72 1077.48,-16.18 1078.81,-23.06"/>
</a>
</g>
</g>
<!-- Node34 -->
<g id="Node000034" class="node">
<title>Node34</title>
<g id="a_Node000034"><a xlink:title=" ">
<polygon fill="#e0e0e0" stroke="#999999" points="438.88,-19.25 389.12,-19.25 389.12,0 438.88,0 438.88,-19.25"/>
<text text-anchor="middle" x="414" y="-5.75" font-family="Helvetica,sans-Serif" font-size="10.00">unistd.h</text>
</a>
</g>
</g>
<!-- Node25&#45;&gt;Node34 -->
<g id="edge42_Node000025_Node000034" class="edge">
<title>Node25&#45;&gt;Node34</title>
<g id="a_edge42_Node000025_Node000034"><a xlink:title=" ">
<path fill="none" stroke="#63b8ff" d="M750.37,-57.83C745.58,-56.9 740.66,-56.01 736,-55.25 612.28,-35.14 576.76,-42.69 450.45,-19.49"/>
<polygon fill="#63b8ff" stroke="#63b8ff" points="451.13,-16.06 440.66,-17.66 449.85,-22.94 451.13,-16.06"/>
</a>
</g>
</g>
<!-- Node35 -->
<g id="Node000035" class="node">
<title>Node35</title>
<g id="a_Node000035"><a xlink:title=" ">
<polygon fill="#e0e0e0" stroke="#999999" points="516.75,-19.25 457.25,-19.25 457.25,0 516.75,0 516.75,-19.25"/>
<text text-anchor="middle" x="487" y="-5.75" font-family="Helvetica,sans-Serif" font-size="10.00">sys/wait.h</text>
</a>
</g>
</g>
<!-- Node25&#45;&gt;Node35 -->
<g id="edge43_Node000025_Node000035" class="edge">
<title>Node25&#45;&gt;Node35</title>
<g id="a_edge43_Node000025_Node000035"><a xlink:title=" ">
<path fill="none" stroke="#63b8ff" d="M750.34,-58.01C745.56,-57.06 740.64,-56.11 736,-55.25 646.45,-38.6 620.85,-37.54 528.5,-19.66"/>
<polygon fill="#63b8ff" stroke="#63b8ff" points="529.17,-16.23 518.69,-17.74 527.83,-23.1 529.17,-16.23"/>
</a>
</g>
</g>
<!-- Node36 -->
<g id="Node000036" class="node">
<title>Node36</title>
<g id="a_Node000036"><a xlink:title=" ">
<polygon fill="#e0e0e0" stroke="#999999" points="595.12,-19.25 534.88,-19.25 534.88,0 595.12,0 595.12,-19.25"/>
<text text-anchor="middle" x="565" y="-5.75" font-family="Helvetica,sans-Serif" font-size="10.00">sys/prctl.h</text>
</a>
</g>
</g>
<!-- Node25&#45;&gt;Node36 -->
<g id="edge44_Node000025_Node000036" class="edge">
<title>Node25&#45;&gt;Node36</title>
<g id="a_edge44_Node000025_Node000036"><a xlink:title=" ">
<path fill="none" stroke="#63b8ff" d="M750.58,-56.8C713.71,-47.63 649.11,-31.55 606.68,-21"/>
<polygon fill="#63b8ff" stroke="#63b8ff" points="607.63,-17.63 597.08,-18.61 605.94,-24.42 607.63,-17.63"/>
</a>
</g>
</g>
<!-- Node37&#45;&gt;Node18 -->
<g id="edge47_Node000037_Node000018" class="edge">
<title>Node37&#45;&gt;Node18</title>
<g id="a_edge47_Node000037_Node000018"><a xlink:title=" ">
<path fill="none" stroke="#63b8ff" d="M1156.94,-112.23C1153.92,-111.64 1150.9,-111.06 1148,-110.5 1066.65,-94.86 1043.46,-92.26 959.54,-74.97"/>
<polygon fill="#63b8ff" stroke="#63b8ff" points="960.42,-71.58 949.92,-72.98 959,-78.43 960.42,-71.58"/>
</a>
</g>
</g>
<!-- Node37&#45;&gt;Node23 -->
<g id="edge46_Node000037_Node000023" class="edge">
<title>Node37&#45;&gt;Node23</title>
<g id="a_edge46_Node000037_Node000023"><a xlink:title=" ">
<path fill="none" stroke="#63b8ff" d="M1203.44,-110.01C1213.15,-101.71 1226.76,-88.63 1235,-74.5 1242.95,-60.87 1247.82,-43.63 1250.64,-30.5"/>
<polygon fill="#63b8ff" stroke="#63b8ff" points="1254.03,-31.38 1252.46,-20.9 1247.16,-30.07 1254.03,-31.38"/>
</a>
</g>
</g>
<!-- Node37&#45;&gt;Node25 -->
<g id="edge52_Node000037_Node000025" class="edge">
<title>Node37&#45;&gt;Node25</title>
<g id="a_edge52_Node000037_Node000025"><a xlink:title=" ">
<path fill="none" stroke="#63b8ff" d="M1156.98,-112.02C1153.95,-111.48 1150.92,-110.96 1148,-110.5 1028.65,-91.61 886.47,-76.48 818.71,-69.71"/>
<polygon fill="#63b8ff" stroke="#63b8ff" points="819.14,-66.24 808.84,-68.74 818.45,-73.21 819.14,-66.24"/>
</a>
</g>
</g>
<!-- Node38 -->
<g id="Node000038" class="node">
<title>Node38</title>
<g id="a_Node000038"><a xlink:title=" ">
<polygon fill="#e0e0e0" stroke="#999999" points="1225.88,-74.5 1158.12,-74.5 1158.12,-55.25 1225.88,-55.25 1225.88,-74.5"/>
<text text-anchor="middle" x="1192" y="-61" font-family="Helvetica,sans-Serif" font-size="10.00">TDirectory.h</text>
</a>
</g>
</g>
<!-- Node37&#45;&gt;Node38 -->
<g id="edge48_Node000037_Node000038" class="edge">
<title>Node37&#45;&gt;Node38</title>
<g id="a_edge48_Node000037_Node000038"><a xlink:title=" ">
<path fill="none" stroke="#63b8ff" d="M1192,-110.33C1192,-103.82 1192,-94.67 1192,-86.37"/>
<polygon fill="#63b8ff" stroke="#63b8ff" points="1195.5,-86.37 1192,-76.37 1188.5,-86.37 1195.5,-86.37"/>
</a>
</g>
</g>
<!-- Node39 -->
<g id="Node000039" class="node">
<title>Node39</title>
<g id="a_Node000039"><a xlink:title=" ">
<polygon fill="#e0e0e0" stroke="#999999" points="1011.62,-74.5 966.38,-74.5 966.38,-55.25 1011.62,-55.25 1011.62,-74.5"/>
<text text-anchor="middle" x="989" y="-61" font-family="Helvetica,sans-Serif" font-size="10.00">TFile.h</text>
</a>
</g>
</g>
<!-- Node37&#45;&gt;Node39 -->
<g id="edge49_Node000037_Node000039" class="edge">
<title>Node37&#45;&gt;Node39</title>
<g id="a_edge49_Node000037_Node000039"><a xlink:title=" ">
<path fill="none" stroke="#63b8ff" d="M1156.94,-110.06C1124.65,-101.7 1075.14,-88.82 1023.18,-75.06"/>
<polygon fill="#63b8ff" stroke="#63b8ff" points="1024.09,-71.68 1013.53,-72.5 1022.3,-78.45 1024.09,-71.68"/>
</a>
</g>
</g>
<!-- Node40 -->
<g id="Node000040" class="node">
<title>Node40</title>
<g id="a_Node000040"><a xlink:title=" ">
<polygon fill="#e0e0e0" stroke="#999999" points="1076,-74.5 1030,-74.5 1030,-55.25 1076,-55.25 1076,-74.5"/>
<text text-anchor="middle" x="1053" y="-61" font-family="Helvetica,sans-Serif" font-size="10.00">TList.h</text>
</a>
</g>
</g>
<!-- Node37&#45;&gt;Node40 -->
<g id="edge50_Node000037_Node000040" class="edge">
<title>Node37&#45;&gt;Node40</title>
<g id="a_edge50_Node000037_Node000040"><a xlink:title=" ">
<path fill="none" stroke="#63b8ff" d="M1168.42,-110.09C1146.02,-101.51 1112.1,-88.52 1086.82,-78.83"/>
<polygon fill="#63b8ff" stroke="#63b8ff" points="1088.23,-75.63 1077.64,-75.32 1085.73,-82.16 1088.23,-75.63"/>
</a>
</g>
</g>
<!-- Node41 -->
<g id="Node000041" class="node">
<title>Node41</title>
<g id="a_Node000041"><a xlink:title=" ">
<polygon fill="#e0e0e0" stroke="#999999" points="1140,-74.5 1094,-74.5 1094,-55.25 1140,-55.25 1140,-74.5"/>
<text text-anchor="middle" x="1117" y="-61" font-family="Helvetica,sans-Serif" font-size="10.00">TKey.h</text>
</a>
</g>
</g>
<!-- Node37&#45;&gt;Node41 -->
<g id="edge51_Node000037_Node000041" class="edge">
<title>Node37&#45;&gt;Node41</title>
<g id="a_edge51_Node000037_Node000041"><a xlink:title=" ">
<path fill="none" stroke="#63b8ff" d="M1179.28,-110.09C1168.29,-102.29 1152.16,-90.84 1139.07,-81.54"/>
<polygon fill="#63b8ff" stroke="#63b8ff" points="1141.2,-78.76 1131.02,-75.83 1137.15,-84.47 1141.2,-78.76"/>
</a>
</g>
</g>
<!-- Node42&#45;&gt;Node23 -->
<g id="edge54_Node000042_Node000023" class="edge">
<title>Node42&#45;&gt;Node23</title>
<g id="a_edge54_Node000042_Node000023"><a xlink:title=" ">
<path fill="none" stroke="#63b8ff" d="M841.92,-165.44C842.25,-142.91 846.5,-83.53 881,-55.25 893.85,-44.72 1122.67,-22.67 1215.42,-14.12"/>
<polygon fill="#63b8ff" stroke="#63b8ff" points="1215.66,-17.61 1225.3,-13.21 1215.02,-10.64 1215.66,-17.61"/>
</a>
</g>
</g>
<!-- Node43 -->
<g id="Node000043" class="node">
<title>Node43</title>
<g id="a_Node000043"><a xlink:title=" ">
<polygon fill="#e0e0e0" stroke="#999999" points="806.88,-129.75 733.12,-129.75 733.12,-110.5 806.88,-110.5 806.88,-129.75"/>
<text text-anchor="middle" x="770" y="-116.25" font-family="Helvetica,sans-Serif" font-size="10.00">RtypesCore.h</text>
</a>
</g>
</g>
<!-- Node42&#45;&gt;Node43 -->
<g id="edge55_Node000042_Node000043" class="edge">
<title>Node42&#45;&gt;Node43</title>
<g id="a_edge55_Node000042_Node000043"><a xlink:title=" ">
<path fill="none" stroke="#63b8ff" d="M829.79,-165.34C819.17,-157.49 803.56,-145.95 790.96,-136.62"/>
<polygon fill="#63b8ff" stroke="#63b8ff" points="793.37,-134.06 783.25,-130.92 789.21,-139.69 793.37,-134.06"/>
</a>
</g>
</g>
</g>
</svg>

<g id="navigator" transform="translate(0 0)" fill="#404254">
  <rect fill="#f2f5e9" fill-opacity="0.5" stroke="#606060" stroke-width=".5" x="0" y="0" width="60" height="60"/>
  <use id="zoomplus" xlink:href="#zoomPlus" x="17" y="9" onmousedown="handleZoom(evt,'in')"/>
  <use id="zoomminus" xlink:href="#zoomMin" x="42" y="9" onmousedown="handleZoom(evt,'out')"/>
  <use id="reset" xlink:href="#resetDef" x="30" y="36" onmousedown="handleReset()"/>
   <use id="arrowup" xlink:href="#arrowUp" x="0" y="0" onmousedown="handlePan(0,-1)"/>
  <use id="arrowright" xlink:href="#arrowRight" x="0" y="0" onmousedown="handlePan(1,0)"/>
  <use id="arrowdown" xlink:href="#arrowDown" x="0" y="0" onmousedown="handlePan(0,1)"/>
  <use id="arrowleft" xlink:href="#arrowLeft" x="0" y="0" onmousedown="handlePan(-1,0)"/>
</g>
<svg viewBox="0 0 15 15" width="100%" height="30px" preserveAspectRatio="xMaxYMin meet">
 <g id="arrow_out" transform="scale(0.3 0.3)">
  <a xlink:href="_t_demand_hit_8h__incl_org.svg" target="_base">
   <rect id="button" ry="5" rx="5" y="6" x="6" height="38" width="38"
        fill="#f2f5e9" fill-opacity="0.5" stroke="#606060" stroke-width="1.0"/>
   <path id="arrow"
     d="M 11.500037,31.436501 C 11.940474,20.09759 22.043105,11.32322 32.158766,21.979434 L 37.068811,17.246167 C 37.068811,17.246167 37.088388,32 37.088388,32 L 22.160133,31.978069 C 22.160133,31.978069 26.997745,27.140456 26.997745,27.140456 C 18.528582,18.264221 13.291696,25.230495 11.500037,31.436501 z"
     style="fill:#404040;"/>
  </a>
 </g>
</svg>

<style type='text/css'>
<![CDATA[
[data-mouse-over-selected='false'] { opacity: 0.7; }
[data-mouse-over-selected='true']  { opacity: 1.0; }
]]>
</style>
<script type="application/ecmascript"><![CDATA[
document.addEventListener('DOMContentLoaded', (event) => {
  highlightEdges();
  highlightAdjacentNodes();
});
]]></script>
</svg>
