<?xml version="1.0" encoding="UTF-8" standalone="no"?>
<!DOCTYPE svg PUBLIC "-//W3C//DTD SVG 1.1//EN"
 "http://www.w3.org/Graphics/SVG/1.1/DTD/svg11.dtd">
<!-- Generated by graphviz version 12.2.0 (20241103.1931)
 -->
<!-- Title: TDetector.h Pages: 1 -->
<!--zoomable 359 -->

<svg id="main" version="1.1" xmlns="http://www.w3.org/2000/svg" xmlns:xlink="http://www.w3.org/1999/xlink" xml:space="preserve" onload="init(evt)">

<style type="text/css"><![CDATA[
.node, .edge {opacity: 0.7;}
.node.selected, .edge.selected {opacity: 1;}
.edge:hover path { stroke: red; }
.edge:hover polygon { stroke: red; fill: red; }
]]></style>

<defs>
  <circle id="rim" cx="0" cy="0" r="7"/>
  <circle id="rim2" cx="0" cy="0" r="3.5"/>
  <g id="zoomPlus">
    <use xlink:href="#rim" fill="#404040"><set attributeName="fill" to="#808080" begin="zoomplus.mouseover" end="zoomplus.mouseout"/></use>
    <path d="M-4,0h8M0,-4v8" fill="none" stroke="white" stroke-width="1.5" pointer-events="none"/>
  </g>
  <g id="zoomMin">
    <use xlink:href="#rim" fill="#404040"><set attributeName="fill" to="#808080" begin="zoomminus.mouseover" end="zoomminus.mouseout"/></use>
    <path d="M-4,0h8" fill="none" stroke="white" stroke-width="1.5" pointer-events="none"/>
  </g>
  <g id="arrowUp" transform="translate(30 24)">
    <use xlink:href="#rim"/>
    <path pointer-events="none" fill="none" stroke="white" stroke-width="1.5" d="M0,-3.0v7 M-2.5,-0.5L0,-3.0L2.5,-0.5"/>
  </g>
  <g id="arrowRight" transform="rotate(90) translate(36 -43)">
    <use xlink:href="#rim"/>
    <path pointer-events="none" fill="none" stroke="white" stroke-width="1.5" d="M0,-3.0v7 M-2.5,-0.5L0,-3.0L2.5,-0.5"/>
  </g>
  <g id="arrowDown" transform="rotate(180) translate(-30 -48)">
    <use xlink:href="#rim"/>
    <path pointer-events="none" fill="none" stroke="white" stroke-width="1.5" d="M0,-3.0v7 M-2.5,-0.5L0,-3.0L2.5,-0.5"/>
  </g>
  <g id="arrowLeft" transform="rotate(270) translate(-36 17)">
    <use xlink:href="#rim"/>
    <path pointer-events="none" fill="none" stroke="white" stroke-width="1.5" d="M0,-3.0v7 M-2.5,-0.5L0,-3.0L2.5,-0.5"/>
  </g>
  <g id="resetDef">
    <use xlink:href="#rim2" fill="#404040"><set attributeName="fill" to="#808080" begin="reset.mouseover" end="reset.mouseout"/></use>
  </g>
</defs>
<script type="application/ecmascript">
var viewWidth = 1649;
var viewHeight = 359;
var sectionId = 'dynsection-0';
</script>
<script type="application/ecmascript" xlink:href="svg.min.js"/>
<svg id="graph" class="graph">
<g id="viewport">
<title>TDetector.h</title>
<!-- Node1 -->
<g id="Node000001" class="node">
<title>Node1</title>
<g id="a_Node000001"><a xlink:title=" ">
<polygon fill="#999999" stroke="#666666" points="735.25,-350.75 669,-350.75 669,-331.5 735.25,-331.5 735.25,-350.75"/>
<text text-anchor="middle" x="702.12" y="-337.25" font-family="Helvetica,sans-Serif" font-size="10.00">TDetector.h</text>
</a>
</g>
</g>
<!-- Node2 -->
<g id="Node000002" class="node">
<title>Node2</title>
<g id="a_Node000002"><a xlink:title=" ">
<polygon fill="#e0e0e0" stroke="#999999" points="42.25,-19.25 0,-19.25 0,0 42.25,0 42.25,-19.25"/>
<text text-anchor="middle" x="21.12" y="-5.75" font-family="Helvetica,sans-Serif" font-size="10.00">cstdio</text>
</a>
</g>
</g>
<!-- Node1&#45;&gt;Node2 -->
<g id="edge1_Node000001_Node000002" class="edge">
<title>Node1&#45;&gt;Node2</title>
<g id="a_edge1_Node000001_Node000002"><a xlink:title=" ">
<path fill="none" stroke="#63b8ff" d="M668.64,-338.67C572.62,-334.26 297.65,-319.79 211.12,-295.5 149.15,-278.1 81.12,-296 81.12,-231.62 81.12,-231.62 81.12,-231.62 81.12,-119.12 81.12,-83.26 55.71,-48.12 37.96,-27.95"/>
<polygon fill="#63b8ff" stroke="#63b8ff" points="40.61,-25.66 31.26,-20.67 35.46,-30.4 40.61,-25.66"/>
</a>
</g>
</g>
<!-- Node3 -->
<g id="Node000003" class="node">
<title>Node3</title>
<g id="a_Node000003"><a xlink:title=" ">
<polygon fill="#e0e0e0" stroke="#999999" points="1605.62,-74.5 1562.62,-74.5 1562.62,-55.25 1605.62,-55.25 1605.62,-74.5"/>
<text text-anchor="middle" x="1584.12" y="-61" font-family="Helvetica,sans-Serif" font-size="10.00">vector</text>
</a>
</g>
</g>
<!-- Node1&#45;&gt;Node3 -->
<g id="edge2_Node000001_Node000003" class="edge">
<title>Node1&#45;&gt;Node3</title>
<g id="a_edge2_Node000001_Node000003"><a xlink:title=" ">
<path fill="none" stroke="#63b8ff" d="M735.54,-339.85C902.82,-338.04 1641.12,-324.75 1641.12,-231.62 1641.12,-231.62 1641.12,-231.62 1641.12,-174.38 1641.12,-138.92 1616.98,-103.66 1600.12,-83.35"/>
<polygon fill="#63b8ff" stroke="#63b8ff" points="1602.97,-81.3 1593.77,-76.04 1597.68,-85.88 1602.97,-81.3"/>
</a>
</g>
</g>
<!-- Node4 -->
<g id="Node000004" class="node">
<title>Node4</title>
<g id="a_Node000004"><a xlink:title=" ">
<polygon fill="#e0e0e0" stroke="#999999" points="110.38,-19.25 59.88,-19.25 59.88,0 110.38,0 110.38,-19.25"/>
<text text-anchor="middle" x="85.12" y="-5.75" font-family="Helvetica,sans-Serif" font-size="10.00">memory</text>
</a>
</g>
</g>
<!-- Node1&#45;&gt;Node4 -->
<g id="edge3_Node000001_Node000004" class="edge">
<title>Node1&#45;&gt;Node4</title>
<g id="a_edge3_Node000001_Node000004"><a xlink:title=" ">
<path fill="none" stroke="#63b8ff" d="M668.61,-340.34C553.18,-340.2 179.12,-332.01 179.12,-231.62 179.12,-231.62 179.12,-231.62 179.12,-119.12 179.12,-77.39 138.91,-43.84 111.09,-25.61"/>
<polygon fill="#63b8ff" stroke="#63b8ff" points="113.11,-22.75 102.78,-20.41 109.4,-28.68 113.11,-22.75"/>
</a>
</g>
</g>
<!-- Node5 -->
<g id="Node000005" class="node">
<title>Node5</title>
<g id="a_Node000005"><a xlink:title=" ">
<polygon fill="#e0e0e0" stroke="#999999" points="379.12,-74.5 321.12,-74.5 321.12,-55.25 379.12,-55.25 379.12,-74.5"/>
<text text-anchor="middle" x="350.12" y="-61" font-family="Helvetica,sans-Serif" font-size="10.00">TObject.h</text>
</a>
</g>
</g>
<!-- Node1&#45;&gt;Node5 -->
<g id="edge4_Node000001_Node000005" class="edge">
<title>Node1&#45;&gt;Node5</title>
<g id="a_edge4_Node000001_Node000005"><a xlink:title=" ">
<path fill="none" stroke="#63b8ff" d="M668.79,-338.04C574.23,-331.22 311.12,-305.59 311.12,-231.62 311.12,-231.62 311.12,-231.62 311.12,-174.38 311.12,-141.29 327.38,-105.7 338.91,-84.63"/>
<polygon fill="#63b8ff" stroke="#63b8ff" points="341.86,-86.5 343.79,-76.09 335.79,-83.03 341.86,-86.5"/>
</a>
</g>
</g>
<!-- Node6 -->
<g id="Node000006" class="node">
<title>Node6</title>
<g id="a_Node000006"><a xlink:href="_t_fragment_8h.html" target="_top" xlink:title=" ">
<polygon fill="white" stroke="#666666" points="843.5,-295.5 772.75,-295.5 772.75,-276.25 843.5,-276.25 843.5,-295.5"/>
<text text-anchor="middle" x="808.12" y="-282" font-family="Helvetica,sans-Serif" font-size="10.00">TFragment.h</text>
</a>
</g>
</g>
<!-- Node1&#45;&gt;Node6 -->
<g id="edge5_Node000001_Node000006" class="edge">
<title>Node1&#45;&gt;Node6</title>
<g id="a_edge5_Node000001_Node000006"><a xlink:title=" ">
<path fill="none" stroke="#63b8ff" d="M720.11,-331.09C736.48,-322.87 760.91,-310.59 779.89,-301.06"/>
<polygon fill="#63b8ff" stroke="#63b8ff" points="781.34,-304.25 788.7,-296.63 778.2,-297.99 781.34,-304.25"/>
</a>
</g>
</g>
<!-- Node7 -->
<g id="Node000007" class="node">
<title>Node7</title>
<g id="a_Node000007"><a xlink:href="_t_detector_hit_8h.html" target="_top" xlink:title=" ">
<polygon fill="white" stroke="#666666" points="741.62,-240.25 662.62,-240.25 662.62,-221 741.62,-221 741.62,-240.25"/>
<text text-anchor="middle" x="702.12" y="-226.75" font-family="Helvetica,sans-Serif" font-size="10.00">TDetectorHit.h</text>
</a>
</g>
</g>
<!-- Node1&#45;&gt;Node7 -->
<g id="edge62_Node000001_Node000007" class="edge">
<title>Node1&#45;&gt;Node7</title>
<g id="a_edge62_Node000001_Node000007"><a xlink:title=" ">
<path fill="none" stroke="#63b8ff" d="M702.12,-331.25C702.12,-314 702.12,-275.58 702.12,-251.81"/>
<polygon fill="#63b8ff" stroke="#63b8ff" points="705.63,-252.14 702.13,-242.14 698.63,-252.14 705.63,-252.14"/>
</a>
</g>
</g>
<!-- Node8 -->
<g id="Node000008" class="node">
<title>Node8</title>
<g id="a_Node000008"><a xlink:href="_t_channel_8h.html" target="_top" xlink:title=" ">
<polygon fill="white" stroke="#666666" points="1220.5,-185 1155.75,-185 1155.75,-165.75 1220.5,-165.75 1220.5,-185"/>
<text text-anchor="middle" x="1188.12" y="-171.5" font-family="Helvetica,sans-Serif" font-size="10.00">TChannel.h</text>
</a>
</g>
</g>
<!-- Node1&#45;&gt;Node8 -->
<g id="edge63_Node000001_Node000008" class="edge">
<title>Node1&#45;&gt;Node8</title>
<g id="a_edge63_Node000001_Node000008"><a xlink:title=" ">
<path fill="none" stroke="#63b8ff" d="M734.46,-331.03C764.94,-322.33 811.82,-308.63 852.12,-295.5 962.92,-259.4 1092.49,-211.97 1153.29,-189.39"/>
<polygon fill="#63b8ff" stroke="#63b8ff" points="1154.25,-192.77 1162.4,-186.01 1151.81,-186.21 1154.25,-192.77"/>
</a>
</g>
</g>
<!-- Node6&#45;&gt;Node3 -->
<g id="edge59_Node000006_Node000003" class="edge">
<title>Node6&#45;&gt;Node3</title>
<g id="a_edge59_Node000006_Node000003"><a xlink:title=" ">
<path fill="none" stroke="#63b8ff" d="M843.74,-282.69C979.81,-273.62 1464.45,-234.35 1569.12,-129.75 1580.48,-118.41 1583.88,-100.21 1584.64,-86.13"/>
<polygon fill="#63b8ff" stroke="#63b8ff" points="1588.14,-86.22 1584.74,-76.19 1581.14,-86.15 1588.14,-86.22"/>
</a>
</g>
</g>
<!-- Node6&#45;&gt;Node7 -->
<g id="edge6_Node000006_Node000007" class="edge">
<title>Node6&#45;&gt;Node7</title>
<g id="a_edge6_Node000006_Node000007"><a xlink:title=" ">
<path fill="none" stroke="#63b8ff" d="M790.14,-275.84C773.77,-267.62 749.34,-255.34 730.36,-245.81"/>
<polygon fill="#63b8ff" stroke="#63b8ff" points="732.05,-242.74 721.55,-241.38 728.91,-249 732.05,-242.74"/>
</a>
</g>
</g>
<!-- Node20 -->
<g id="Node000020" class="node">
<title>Node20</title>
<g id="a_Node000020"><a xlink:title=" ">
<polygon fill="#e0e0e0" stroke="#999999" points="830.88,-185 777.38,-185 777.38,-165.75 830.88,-165.75 830.88,-185"/>
<text text-anchor="middle" x="804.12" y="-171.5" font-family="Helvetica,sans-Serif" font-size="10.00">Rtypes.h</text>
</a>
</g>
</g>
<!-- Node6&#45;&gt;Node20 -->
<g id="edge61_Node000006_Node000020" class="edge">
<title>Node6&#45;&gt;Node20</title>
<g id="a_edge61_Node000006_Node000020"><a xlink:title=" ">
<path fill="none" stroke="#63b8ff" d="M807.8,-276C807.16,-258.75 805.75,-220.33 804.87,-196.56"/>
<polygon fill="#63b8ff" stroke="#63b8ff" points="808.38,-196.75 804.51,-186.89 801.38,-197.01 808.38,-196.75"/>
</a>
</g>
</g>
<!-- Node22 -->
<g id="Node000022" class="node">
<title>Node22</title>
<g id="a_Node000022"><a xlink:href="_t_p_p_g_8h.html" target="_top" xlink:title=" ">
<polygon fill="white" stroke="#666666" points="756.38,-185 705.88,-185 705.88,-165.75 756.38,-165.75 756.38,-185"/>
<text text-anchor="middle" x="731.12" y="-171.5" font-family="Helvetica,sans-Serif" font-size="10.00">TPPG.h</text>
</a>
</g>
</g>
<!-- Node6&#45;&gt;Node22 -->
<g id="edge57_Node000006_Node000022" class="edge">
<title>Node6&#45;&gt;Node22</title>
<g id="a_edge57_Node000006_Node000022"><a xlink:title=" ">
<path fill="none" stroke="#63b8ff" d="M801.82,-276C789.25,-258.27 760.8,-218.19 744.08,-194.63"/>
<polygon fill="#63b8ff" stroke="#63b8ff" points="747.03,-192.74 738.39,-186.61 741.32,-196.79 747.03,-192.74"/>
</a>
</g>
</g>
<!-- Node24 -->
<g id="Node000024" class="node">
<title>Node24</title>
<g id="a_Node000024"><a xlink:title=" ">
<polygon fill="#e0e0e0" stroke="#999999" points="882.88,-19.25 829.38,-19.25 829.38,0 882.88,0 882.88,-19.25"/>
<text text-anchor="middle" x="856.12" y="-5.75" font-family="Helvetica,sans-Serif" font-size="10.00">iostream</text>
</a>
</g>
</g>
<!-- Node6&#45;&gt;Node24 -->
<g id="edge58_Node000006_Node000024" class="edge">
<title>Node6&#45;&gt;Node24</title>
<g id="a_edge58_Node000006_Node000024"><a xlink:title=" ">
<path fill="none" stroke="#63b8ff" d="M811.71,-275.96C818.49,-258.71 833.12,-219.43 840.12,-185 851.32,-130.02 854.69,-63.68 855.7,-30.93"/>
<polygon fill="#63b8ff" stroke="#63b8ff" points="859.2,-31.03 855.96,-20.95 852.2,-30.85 859.2,-31.03"/>
</a>
</g>
</g>
<!-- Node44 -->
<g id="Node000044" class="node">
<title>Node44</title>
<g id="a_Node000044"><a xlink:title=" ">
<polygon fill="#e0e0e0" stroke="#999999" points="929.12,-240.25 889.12,-240.25 889.12,-221 929.12,-221 929.12,-240.25"/>
<text text-anchor="middle" x="909.12" y="-226.75" font-family="Helvetica,sans-Serif" font-size="10.00">ctime</text>
</a>
</g>
</g>
<!-- Node6&#45;&gt;Node44 -->
<g id="edge60_Node000006_Node000044" class="edge">
<title>Node6&#45;&gt;Node44</title>
<g id="a_edge60_Node000006_Node000044"><a xlink:title=" ">
<path fill="none" stroke="#63b8ff" d="M825.26,-275.84C840.78,-267.66 863.93,-255.46 881.97,-245.94"/>
<polygon fill="#63b8ff" stroke="#63b8ff" points="883.36,-249.17 890.57,-241.41 880.09,-242.98 883.36,-249.17"/>
</a>
</g>
</g>
<!-- Node7&#45;&gt;Node3 -->
<g id="edge7_Node000007_Node000003" class="edge">
<title>Node7&#45;&gt;Node3</title>
<g id="a_edge7_Node000007_Node000003"><a xlink:title=" ">
<path fill="none" stroke="#63b8ff" d="M741.91,-227.09C900.09,-216.74 1479.07,-175.95 1546.12,-129.75 1561.55,-119.12 1571.7,-100 1577.6,-85.44"/>
<polygon fill="#63b8ff" stroke="#63b8ff" points="1580.75,-87.01 1580.92,-76.41 1574.18,-84.6 1580.75,-87.01"/>
</a>
</g>
</g>
<!-- Node7&#45;&gt;Node5 -->
<g id="edge22_Node000007_Node000005" class="edge">
<title>Node7&#45;&gt;Node5</title>
<g id="a_edge22_Node000007_Node000005"><a xlink:title=" ">
<path fill="none" stroke="#63b8ff" d="M662.16,-226.43C594.88,-220.53 462.33,-206.55 421.12,-185 390.97,-169.23 385.02,-159.29 368.12,-129.75 360.32,-116.11 355.72,-98.87 353.13,-85.74"/>
<polygon fill="#63b8ff" stroke="#63b8ff" points="356.63,-85.41 351.48,-76.15 349.73,-86.6 356.63,-85.41"/>
</a>
</g>
</g>
<!-- Node7&#45;&gt;Node8 -->
<g id="edge8_Node000007_Node000008" class="edge">
<title>Node7&#45;&gt;Node8</title>
<g id="a_edge8_Node000007_Node000008"><a xlink:title=" ">
<path fill="none" stroke="#63b8ff" d="M741.9,-225.27C831.79,-215.42 1050.11,-191.5 1144,-181.21"/>
<polygon fill="#63b8ff" stroke="#63b8ff" points="1144.28,-184.7 1153.84,-180.13 1143.52,-177.74 1144.28,-184.7"/>
</a>
</g>
</g>
<!-- Node19 -->
<g id="Node000019" class="node">
<title>Node19</title>
<g id="a_Node000019"><a xlink:title=" ">
<polygon fill="#e0e0e0" stroke="#999999" points="687.75,-185 624.5,-185 624.5,-165.75 687.75,-165.75 687.75,-185"/>
<text text-anchor="middle" x="656.12" y="-171.5" font-family="Helvetica,sans-Serif" font-size="10.00">TVector3.h</text>
</a>
</g>
</g>
<!-- Node7&#45;&gt;Node19 -->
<g id="edge21_Node000007_Node000019" class="edge">
<title>Node7&#45;&gt;Node19</title>
<g id="a_edge21_Node000007_Node000019"><a xlink:title=" ">
<path fill="none" stroke="#63b8ff" d="M694.53,-220.83C688.24,-213.55 679.11,-202.98 671.33,-193.98"/>
<polygon fill="#63b8ff" stroke="#63b8ff" points="674.06,-191.78 664.88,-186.5 668.76,-196.36 674.06,-191.78"/>
</a>
</g>
</g>
<!-- Node7&#45;&gt;Node20 -->
<g id="edge23_Node000007_Node000020" class="edge">
<title>Node7&#45;&gt;Node20</title>
<g id="a_edge23_Node000007_Node000020"><a xlink:title=" ">
<path fill="none" stroke="#63b8ff" d="M719.43,-220.59C735.11,-212.41 758.48,-200.21 776.7,-190.69"/>
<polygon fill="#63b8ff" stroke="#63b8ff" points="778.15,-193.88 785.4,-186.15 774.91,-187.68 778.15,-193.88"/>
</a>
</g>
</g>
<!-- Node21 -->
<g id="Node000021" class="node">
<title>Node21</title>
<g id="a_Node000021"><a xlink:title=" ">
<polygon fill="#e0e0e0" stroke="#999999" points="495.88,-185 430.38,-185 430.38,-165.75 495.88,-165.75 495.88,-185"/>
<text text-anchor="middle" x="463.12" y="-171.5" font-family="Helvetica,sans-Serif" font-size="10.00">TRandom.h</text>
</a>
</g>
</g>
<!-- Node7&#45;&gt;Node21 -->
<g id="edge24_Node000007_Node000021" class="edge">
<title>Node7&#45;&gt;Node21</title>
<g id="a_edge24_Node000007_Node000021"><a xlink:title=" ">
<path fill="none" stroke="#63b8ff" d="M662.39,-220.77C619.53,-211.22 551.48,-196.06 507.06,-186.16"/>
<polygon fill="#63b8ff" stroke="#63b8ff" points="508.02,-182.79 497.5,-184.03 506.5,-189.63 508.02,-182.79"/>
</a>
</g>
</g>
<!-- Node7&#45;&gt;Node22 -->
<g id="edge25_Node000007_Node000022" class="edge">
<title>Node7&#45;&gt;Node22</title>
<g id="a_edge25_Node000007_Node000022"><a xlink:title=" ">
<path fill="none" stroke="#63b8ff" d="M706.91,-220.83C710.67,-213.94 716.03,-204.09 720.76,-195.41"/>
<polygon fill="#63b8ff" stroke="#63b8ff" points="723.8,-197.14 725.51,-186.69 717.65,-193.8 723.8,-197.14"/>
</a>
</g>
</g>
<!-- Node42 -->
<g id="Node000042" class="node">
<title>Node42</title>
<g id="a_Node000042"><a xlink:href="_t_transient_bits_8h.html" target="_top" xlink:title=" ">
<polygon fill="white" stroke="#666666" points="600.75,-185 513.5,-185 513.5,-165.75 600.75,-165.75 600.75,-185"/>
<text text-anchor="middle" x="557.12" y="-171.5" font-family="Helvetica,sans-Serif" font-size="10.00">TTransientBits.h</text>
</a>
</g>
</g>
<!-- Node7&#45;&gt;Node42 -->
<g id="edge54_Node000007_Node000042" class="edge">
<title>Node7&#45;&gt;Node42</title>
<g id="a_edge54_Node000007_Node000042"><a xlink:title=" ">
<path fill="none" stroke="#63b8ff" d="M677.53,-220.59C654.2,-212.02 618.89,-199.06 592.53,-189.38"/>
<polygon fill="#63b8ff" stroke="#63b8ff" points="593.86,-186.14 583.26,-185.97 591.44,-192.71 593.86,-186.14"/>
</a>
</g>
</g>
<!-- Node9 -->
<g id="Node000009" class="node">
<title>Node9</title>
<g id="a_Node000009"><a xlink:title=" ">
<polygon fill="#e0e0e0" stroke="#999999" points="975.12,-19.25 935.12,-19.25 935.12,0 975.12,0 975.12,-19.25"/>
<text text-anchor="middle" x="955.12" y="-5.75" font-family="Helvetica,sans-Serif" font-size="10.00">string</text>
</a>
</g>
</g>
<!-- Node8&#45;&gt;Node9 -->
<g id="edge9_Node000008_Node000009" class="edge">
<title>Node8&#45;&gt;Node9</title>
<g id="a_edge9_Node000008_Node000009"><a xlink:title=" ">
<path fill="none" stroke="#63b8ff" d="M1155.63,-172.03C1102.06,-167.47 998.68,-155.5 974.12,-129.75 948.79,-103.18 949.24,-57.13 952.05,-30.75"/>
<polygon fill="#63b8ff" stroke="#63b8ff" points="955.49,-31.42 953.31,-21.05 948.55,-30.51 955.49,-31.42"/>
</a>
</g>
</g>
<!-- Node10 -->
<g id="Node000010" class="node">
<title>Node10</title>
<g id="a_Node000010"><a xlink:title=" ">
<polygon fill="#e0e0e0" stroke="#999999" points="1128.62,-129.75 1085.62,-129.75 1085.62,-110.5 1128.62,-110.5 1128.62,-129.75"/>
<text text-anchor="middle" x="1107.12" y="-116.25" font-family="Helvetica,sans-Serif" font-size="10.00">cmath</text>
</a>
</g>
</g>
<!-- Node8&#45;&gt;Node10 -->
<g id="edge10_Node000008_Node000010" class="edge">
<title>Node8&#45;&gt;Node10</title>
<g id="a_edge10_Node000008_Node000010"><a xlink:title=" ">
<path fill="none" stroke="#63b8ff" d="M1174.38,-165.34C1162.4,-157.46 1144.75,-145.86 1130.54,-136.52"/>
<polygon fill="#63b8ff" stroke="#63b8ff" points="1132.48,-133.6 1122.2,-131.03 1128.63,-139.45 1132.48,-133.6"/>
</a>
</g>
</g>
<!-- Node11 -->
<g id="Node000011" class="node">
<title>Node11</title>
<g id="a_Node000011"><a xlink:title=" ">
<polygon fill="#e0e0e0" stroke="#999999" points="927.38,-129.75 888.88,-129.75 888.88,-110.5 927.38,-110.5 927.38,-129.75"/>
<text text-anchor="middle" x="908.12" y="-116.25" font-family="Helvetica,sans-Serif" font-size="10.00">utility</text>
</a>
</g>
</g>
<!-- Node8&#45;&gt;Node11 -->
<g id="edge11_Node000008_Node000011" class="edge">
<title>Node8&#45;&gt;Node11</title>
<g id="a_edge11_Node000008_Node000011"><a xlink:title=" ">
<path fill="none" stroke="#63b8ff" d="M1155.6,-169.32C1108.21,-161.76 1017.51,-146.61 941.12,-129.75 940.3,-129.57 939.47,-129.38 938.63,-129.19"/>
<polygon fill="#63b8ff" stroke="#63b8ff" points="939.62,-125.83 929.08,-126.84 937.96,-132.63 939.62,-125.83"/>
</a>
</g>
</g>
<!-- Node12 -->
<g id="Node000012" class="node">
<title>Node12</title>
<g id="a_Node000012"><a xlink:title=" ">
<polygon fill="#e0e0e0" stroke="#999999" points="1229.5,-129.75 1146.75,-129.75 1146.75,-110.5 1229.5,-110.5 1229.5,-129.75"/>
<text text-anchor="middle" x="1188.12" y="-116.25" font-family="Helvetica,sans-Serif" font-size="10.00">unordered_map</text>
</a>
</g>
</g>
<!-- Node8&#45;&gt;Node12 -->
<g id="edge12_Node000008_Node000012" class="edge">
<title>Node8&#45;&gt;Node12</title>
<g id="a_edge12_Node000008_Node000012"><a xlink:title=" ">
<path fill="none" stroke="#63b8ff" d="M1188.12,-165.58C1188.12,-159.07 1188.12,-149.92 1188.12,-141.62"/>
<polygon fill="#63b8ff" stroke="#63b8ff" points="1191.63,-141.62 1188.13,-131.62 1184.63,-141.62 1191.63,-141.62"/>
</a>
</g>
</g>
<!-- Node13 -->
<g id="Node000013" class="node">
<title>Node13</title>
<g id="a_Node000013"><a xlink:title=" ">
<polygon fill="#e0e0e0" stroke="#999999" points="1308.62,-129.75 1247.62,-129.75 1247.62,-110.5 1308.62,-110.5 1308.62,-129.75"/>
<text text-anchor="middle" x="1278.12" y="-116.25" font-family="Helvetica,sans-Serif" font-size="10.00">TNamed.h</text>
</a>
</g>
</g>
<!-- Node8&#45;&gt;Node13 -->
<g id="edge13_Node000008_Node000013" class="edge">
<title>Node8&#45;&gt;Node13</title>
<g id="a_edge13_Node000008_Node000013"><a xlink:title=" ">
<path fill="none" stroke="#63b8ff" d="M1203.39,-165.34C1216.97,-157.31 1237.08,-145.41 1253.02,-135.98"/>
<polygon fill="#63b8ff" stroke="#63b8ff" points="1254.66,-139.08 1261.48,-130.97 1251.09,-133.05 1254.66,-139.08"/>
</a>
</g>
</g>
<!-- Node14 -->
<g id="Node000014" class="node">
<title>Node14</title>
<g id="a_Node000014"><a xlink:title=" ">
<polygon fill="#e0e0e0" stroke="#999999" points="1375.62,-129.75 1326.62,-129.75 1326.62,-110.5 1375.62,-110.5 1375.62,-129.75"/>
<text text-anchor="middle" x="1351.12" y="-116.25" font-family="Helvetica,sans-Serif" font-size="10.00">TTree.h</text>
</a>
</g>
</g>
<!-- Node8&#45;&gt;Node14 -->
<g id="edge14_Node000008_Node000014" class="edge">
<title>Node8&#45;&gt;Node14</title>
<g id="a_edge14_Node000008_Node000014"><a xlink:title=" ">
<path fill="none" stroke="#63b8ff" d="M1215.78,-165.34C1243.24,-156.37 1285.47,-142.57 1315.45,-132.78"/>
<polygon fill="#63b8ff" stroke="#63b8ff" points="1316.42,-136.14 1324.84,-129.71 1314.25,-129.49 1316.42,-136.14"/>
</a>
</g>
</g>
<!-- Node15 -->
<g id="Node000015" class="node">
<title>Node15</title>
<g id="a_Node000015"><a xlink:title=" ">
<polygon fill="#e0e0e0" stroke="#999999" points="1449,-129.75 1393.25,-129.75 1393.25,-110.5 1449,-110.5 1449,-129.75"/>
<text text-anchor="middle" x="1421.12" y="-116.25" font-family="Helvetica,sans-Serif" font-size="10.00">TGraph.h</text>
</a>
</g>
</g>
<!-- Node8&#45;&gt;Node15 -->
<g id="edge15_Node000008_Node000015" class="edge">
<title>Node8&#45;&gt;Node15</title>
<g id="a_edge15_Node000008_Node000015"><a xlink:title=" ">
<path fill="none" stroke="#63b8ff" d="M1220.92,-167.08C1257.82,-158.84 1319.87,-144.9 1381.7,-130.53"/>
<polygon fill="#63b8ff" stroke="#63b8ff" points="1382.41,-133.96 1391.36,-128.28 1380.83,-127.14 1382.41,-133.96"/>
</a>
</g>
</g>
<!-- Node16 -->
<g id="Node000016" class="node">
<title>Node16</title>
<g id="a_Node000016"><a xlink:title=" ">
<polygon fill="#e0e0e0" stroke="#999999" points="1536.75,-129.75 1467.5,-129.75 1467.5,-110.5 1536.75,-110.5 1536.75,-129.75"/>
<text text-anchor="middle" x="1502.12" y="-116.25" font-family="Helvetica,sans-Serif" font-size="10.00">TClassRef.h</text>
</a>
</g>
</g>
<!-- Node8&#45;&gt;Node16 -->
<g id="edge16_Node000008_Node000016" class="edge">
<title>Node8&#45;&gt;Node16</title>
<g id="a_edge16_Node000008_Node000016"><a xlink:title=" ">
<path fill="none" stroke="#63b8ff" d="M1220.6,-169.33C1269.38,-161.68 1364.73,-146.45 1455.98,-130.09"/>
<polygon fill="#63b8ff" stroke="#63b8ff" points="1456.37,-133.58 1465.59,-128.36 1455.13,-126.69 1456.37,-133.58"/>
</a>
</g>
</g>
<!-- Node17 -->
<g id="Node000017" class="node">
<title>Node17</title>
<g id="a_Node000017"><a xlink:href="_t_priority_value_8h.html" target="_top" xlink:title=" ">
<polygon fill="white" stroke="#666666" points="1067.25,-129.75 983,-129.75 983,-110.5 1067.25,-110.5 1067.25,-129.75"/>
<text text-anchor="middle" x="1025.12" y="-116.25" font-family="Helvetica,sans-Serif" font-size="10.00">TPriorityValue.h</text>
</a>
</g>
</g>
<!-- Node8&#45;&gt;Node17 -->
<g id="edge17_Node000008_Node000017" class="edge">
<title>Node8&#45;&gt;Node17</title>
<g id="a_edge17_Node000008_Node000017"><a xlink:title=" ">
<path fill="none" stroke="#63b8ff" d="M1160.47,-165.34C1133.9,-156.66 1093.49,-143.46 1063.74,-133.74"/>
<polygon fill="#63b8ff" stroke="#63b8ff" points="1064.94,-130.45 1054.35,-130.67 1062.77,-137.1 1064.94,-130.45"/>
</a>
</g>
</g>
<!-- Node17&#45;&gt;Node3 -->
<g id="edge20_Node000017_Node000003" class="edge">
<title>Node17&#45;&gt;Node3</title>
<g id="a_edge20_Node000017_Node000003"><a xlink:title=" ">
<path fill="none" stroke="#63b8ff" d="M1067.66,-111.67C1070.52,-111.25 1073.36,-110.85 1076.12,-110.5 1254.45,-87.63 1469.53,-72.96 1550.83,-67.88"/>
<polygon fill="#63b8ff" stroke="#63b8ff" points="1551,-71.37 1560.76,-67.26 1550.56,-64.39 1551,-71.37"/>
</a>
</g>
</g>
<!-- Node17&#45;&gt;Node9 -->
<g id="edge19_Node000017_Node000009" class="edge">
<title>Node17&#45;&gt;Node9</title>
<g id="a_edge19_Node000017_Node000009"><a xlink:title=" ">
<path fill="none" stroke="#63b8ff" d="M1019.4,-110.25C1008.01,-92.6 982.34,-52.8 967.11,-29.2"/>
<polygon fill="#63b8ff" stroke="#63b8ff" points="970.12,-27.4 961.75,-20.9 964.23,-31.2 970.12,-27.4"/>
</a>
</g>
</g>
<!-- Node18 -->
<g id="Node000018" class="node">
<title>Node18</title>
<g id="a_Node000018"><a xlink:title=" ">
<polygon fill="#e0e0e0" stroke="#999999" points="1072.75,-74.5 1021.5,-74.5 1021.5,-55.25 1072.75,-55.25 1072.75,-74.5"/>
<text text-anchor="middle" x="1047.12" y="-61" font-family="Helvetica,sans-Serif" font-size="10.00">ostream</text>
</a>
</g>
</g>
<!-- Node17&#45;&gt;Node18 -->
<g id="edge18_Node000017_Node000018" class="edge">
<title>Node17&#45;&gt;Node18</title>
<g id="a_edge18_Node000017_Node000018"><a xlink:title=" ">
<path fill="none" stroke="#63b8ff" d="M1028.76,-110.33C1031.54,-103.59 1035.5,-94.02 1039.02,-85.49"/>
<polygon fill="#63b8ff" stroke="#63b8ff" points="1042.25,-86.84 1042.84,-76.26 1035.78,-84.16 1042.25,-86.84"/>
</a>
</g>
</g>
<!-- Node22&#45;&gt;Node5 -->
<g id="edge29_Node000022_Node000005" class="edge">
<title>Node22&#45;&gt;Node5</title>
<g id="a_edge29_Node000022_Node000005"><a xlink:title=" ">
<path fill="none" stroke="#63b8ff" d="M705.53,-167.76C702.7,-167.06 699.85,-166.38 697.12,-165.75 620.6,-148.09 599.64,-151.34 524.12,-129.75 473.59,-115.3 416.72,-93.29 382.16,-79.25"/>
<polygon fill="#63b8ff" stroke="#63b8ff" points="383.74,-76.11 373.16,-75.56 381.09,-82.59 383.74,-76.11"/>
</a>
</g>
</g>
<!-- Node22&#45;&gt;Node11 -->
<g id="edge27_Node000022_Node000011" class="edge">
<title>Node22&#45;&gt;Node11</title>
<g id="a_edge27_Node000022_Node000011"><a xlink:title=" ">
<path fill="none" stroke="#63b8ff" d="M756.86,-166.63C788.91,-156.99 843.57,-140.55 877.67,-130.29"/>
<polygon fill="#63b8ff" stroke="#63b8ff" points="878.36,-133.73 886.93,-127.5 876.35,-127.03 878.36,-133.73"/>
</a>
</g>
</g>
<!-- Node23 -->
<g id="Node000023" class="node">
<title>Node23</title>
<g id="a_Node000023"><a xlink:title=" ">
<polygon fill="#e0e0e0" stroke="#999999" points="833.5,-129.75 798.75,-129.75 798.75,-110.5 833.5,-110.5 833.5,-129.75"/>
<text text-anchor="middle" x="816.12" y="-116.25" font-family="Helvetica,sans-Serif" font-size="10.00">map</text>
</a>
</g>
</g>
<!-- Node22&#45;&gt;Node23 -->
<g id="edge26_Node000022_Node000023" class="edge">
<title>Node22&#45;&gt;Node23</title>
<g id="a_edge26_Node000022_Node000023"><a xlink:title=" ">
<path fill="none" stroke="#63b8ff" d="M745.54,-165.34C758.24,-157.39 777,-145.64 791.98,-136.25"/>
<polygon fill="#63b8ff" stroke="#63b8ff" points="793.74,-139.28 800.35,-131.01 790.02,-133.35 793.74,-139.28"/>
</a>
</g>
</g>
<!-- Node22&#45;&gt;Node24 -->
<g id="edge28_Node000022_Node000024" class="edge">
<title>Node22&#45;&gt;Node24</title>
<g id="a_edge28_Node000022_Node000024"><a xlink:title=" ">
<path fill="none" stroke="#63b8ff" d="M737.85,-165.57C757.6,-139.69 815.76,-63.5 842.45,-28.53"/>
<polygon fill="#63b8ff" stroke="#63b8ff" points="845.17,-30.75 848.45,-20.68 839.6,-26.5 845.17,-30.75"/>
</a>
</g>
</g>
<!-- Node25 -->
<g id="Node000025" class="node">
<title>Node25</title>
<g id="a_Node000025"><a xlink:title=" ">
<polygon fill="#e0e0e0" stroke="#999999" points="743.25,-129.75 671,-129.75 671,-110.5 743.25,-110.5 743.25,-129.75"/>
<text text-anchor="middle" x="707.12" y="-116.25" font-family="Helvetica,sans-Serif" font-size="10.00">TCollection.h</text>
</a>
</g>
</g>
<!-- Node22&#45;&gt;Node25 -->
<g id="edge30_Node000022_Node000025" class="edge">
<title>Node22&#45;&gt;Node25</title>
<g id="a_edge30_Node000022_Node000025"><a xlink:title=" ">
<path fill="none" stroke="#63b8ff" d="M727.16,-165.58C724.09,-158.76 719.71,-149.06 715.84,-140.45"/>
<polygon fill="#63b8ff" stroke="#63b8ff" points="719.1,-139.17 711.8,-131.49 712.71,-142.04 719.1,-139.17"/>
</a>
</g>
</g>
<!-- Node26 -->
<g id="Node000026" class="node">
<title>Node26</title>
<g id="a_Node000026"><a xlink:href="_globals_8h.html" target="_top" xlink:title=" ">
<polygon fill="white" stroke="#666666" points="453.38,-74.5 396.88,-74.5 396.88,-55.25 453.38,-55.25 453.38,-74.5"/>
<text text-anchor="middle" x="425.12" y="-61" font-family="Helvetica,sans-Serif" font-size="10.00">Globals.h</text>
</a>
</g>
</g>
<!-- Node22&#45;&gt;Node26 -->
<g id="edge31_Node000022_Node000026" class="edge">
<title>Node22&#45;&gt;Node26</title>
<g id="a_edge31_Node000022_Node000026"><a xlink:title=" ">
<path fill="none" stroke="#63b8ff" d="M705.45,-167.51C667.53,-157.29 598.43,-138.37 574.12,-129.75 531.6,-114.66 483.91,-93.42 454.19,-79.65"/>
<polygon fill="#63b8ff" stroke="#63b8ff" points="456.01,-76.64 445.47,-75.58 453.05,-82.98 456.01,-76.64"/>
</a>
</g>
</g>
<!-- Node37 -->
<g id="Node000037" class="node">
<title>Node37</title>
<g id="a_Node000037"><a xlink:href="_t_singleton_8h.html" target="_top" xlink:title=" ">
<polygon fill="white" stroke="#666666" points="653.12,-129.75 583.12,-129.75 583.12,-110.5 653.12,-110.5 653.12,-129.75"/>
<text text-anchor="middle" x="618.12" y="-116.25" font-family="Helvetica,sans-Serif" font-size="10.00">TSingleton.h</text>
</a>
</g>
</g>
<!-- Node22&#45;&gt;Node37 -->
<g id="edge46_Node000022_Node000037" class="edge">
<title>Node22&#45;&gt;Node37</title>
<g id="a_edge46_Node000022_Node000037"><a xlink:title=" ">
<path fill="none" stroke="#63b8ff" d="M711.96,-165.34C694.34,-157.04 667.97,-144.61 647.66,-135.04"/>
<polygon fill="#63b8ff" stroke="#63b8ff" points="649.3,-131.94 638.76,-130.85 646.31,-138.28 649.3,-131.94"/>
</a>
</g>
</g>
<!-- Node26&#45;&gt;Node2 -->
<g id="edge36_Node000026_Node000002" class="edge">
<title>Node26&#45;&gt;Node2</title>
<g id="a_edge36_Node000026_Node000002"><a xlink:title=" ">
<path fill="none" stroke="#63b8ff" d="M396.51,-56.84C393.69,-56.26 390.86,-55.71 388.12,-55.25 243.23,-30.72 201,-47.31 53.89,-19.47"/>
<polygon fill="#63b8ff" stroke="#63b8ff" points="54.61,-16.05 44.13,-17.58 53.29,-22.92 54.61,-16.05"/>
</a>
</g>
</g>
<!-- Node26&#45;&gt;Node4 -->
<g id="edge42_Node000026_Node000004" class="edge">
<title>Node26&#45;&gt;Node4</title>
<g id="a_edge42_Node000026_Node000004"><a xlink:title=" ">
<path fill="none" stroke="#63b8ff" d="M396.5,-56.92C393.68,-56.32 390.85,-55.75 388.12,-55.25 273.38,-34.22 240.13,-41.21 121.64,-19.32"/>
<polygon fill="#63b8ff" stroke="#63b8ff" points="122.63,-15.95 112.16,-17.54 121.34,-22.83 122.63,-15.95"/>
</a>
</g>
</g>
<!-- Node26&#45;&gt;Node9 -->
<g id="edge35_Node000026_Node000009" class="edge">
<title>Node26&#45;&gt;Node9</title>
<g id="a_edge35_Node000026_Node000009"><a xlink:title=" ">
<path fill="none" stroke="#63b8ff" d="M453.6,-60.44C467.6,-58.8 484.74,-56.84 500.12,-55.25 674.15,-37.25 718.3,-39.12 892.12,-19.25 902.37,-18.08 913.53,-16.61 923.57,-15.22"/>
<polygon fill="#63b8ff" stroke="#63b8ff" points="923.81,-18.73 933.23,-13.86 922.84,-11.79 923.81,-18.73"/>
</a>
</g>
</g>
<!-- Node26&#45;&gt;Node24 -->
<g id="edge32_Node000026_Node000024" class="edge">
<title>Node26&#45;&gt;Node24</title>
<g id="a_edge32_Node000026_Node000024"><a xlink:title=" ">
<path fill="none" stroke="#63b8ff" d="M453.52,-57.64C458.06,-56.76 462.71,-55.93 467.12,-55.25 619.51,-31.89 662.72,-45.06 818.18,-19.35"/>
<polygon fill="#63b8ff" stroke="#63b8ff" points="818.31,-22.88 827.59,-17.77 817.14,-15.97 818.31,-22.88"/>
</a>
</g>
</g>
<!-- Node27 -->
<g id="Node000027" class="node">
<title>Node27</title>
<g id="a_Node000027"><a xlink:title=" ">
<polygon fill="#e0e0e0" stroke="#999999" points="735,-19.25 685.25,-19.25 685.25,0 735,0 735,-19.25"/>
<text text-anchor="middle" x="710.12" y="-5.75" font-family="Helvetica,sans-Serif" font-size="10.00">iomanip</text>
</a>
</g>
</g>
<!-- Node26&#45;&gt;Node27 -->
<g id="edge33_Node000026_Node000027" class="edge">
<title>Node26&#45;&gt;Node27</title>
<g id="a_edge33_Node000026_Node000027"><a xlink:title=" ">
<path fill="none" stroke="#63b8ff" d="M453.57,-57.91C458.1,-56.99 462.74,-56.08 467.12,-55.25 556.22,-38.43 581.99,-38.8 673.71,-19.62"/>
<polygon fill="#63b8ff" stroke="#63b8ff" points="674.39,-23.06 683.44,-17.56 672.94,-16.21 674.39,-23.06"/>
</a>
</g>
</g>
<!-- Node28 -->
<g id="Node000028" class="node">
<title>Node28</title>
<g id="a_Node000028"><a xlink:title=" ">
<polygon fill="#e0e0e0" stroke="#999999" points="811.12,-19.25 753.12,-19.25 753.12,0 811.12,0 811.12,-19.25"/>
<text text-anchor="middle" x="782.12" y="-5.75" font-family="Helvetica,sans-Serif" font-size="10.00">stdexcept</text>
</a>
</g>
</g>
<!-- Node26&#45;&gt;Node28 -->
<g id="edge34_Node000026_Node000028" class="edge">
<title>Node26&#45;&gt;Node28</title>
<g id="a_edge34_Node000026_Node000028"><a xlink:title=" ">
<path fill="none" stroke="#63b8ff" d="M453.54,-57.75C458.07,-56.85 462.72,-55.99 467.12,-55.25 585.98,-35.35 619.93,-40.67 741.47,-19.57"/>
<polygon fill="#63b8ff" stroke="#63b8ff" points="741.99,-23.03 751.23,-17.85 740.78,-16.14 741.99,-23.03"/>
</a>
</g>
</g>
<!-- Node29 -->
<g id="Node000029" class="node">
<title>Node29</title>
<g id="a_Node000029"><a xlink:title=" ">
<polygon fill="#e0e0e0" stroke="#999999" points="173.38,-19.25 128.88,-19.25 128.88,0 173.38,0 173.38,-19.25"/>
<text text-anchor="middle" x="151.12" y="-5.75" font-family="Helvetica,sans-Serif" font-size="10.00">cstdlib</text>
</a>
</g>
</g>
<!-- Node26&#45;&gt;Node29 -->
<g id="edge37_Node000026_Node000029" class="edge">
<title>Node26&#45;&gt;Node29</title>
<g id="a_edge37_Node000026_Node000029"><a xlink:title=" ">
<path fill="none" stroke="#63b8ff" d="M396.48,-57.03C393.66,-56.41 390.84,-55.8 388.12,-55.25 300.52,-37.4 274.73,-39.53 184.74,-19.66"/>
<polygon fill="#63b8ff" stroke="#63b8ff" points="185.75,-16.3 175.22,-17.53 184.22,-23.13 185.75,-16.3"/>
</a>
</g>
</g>
<!-- Node30 -->
<g id="Node000030" class="node">
<title>Node30</title>
<g id="a_Node000030"><a xlink:title=" ">
<polygon fill="#e0e0e0" stroke="#999999" points="250.88,-19.25 191.38,-19.25 191.38,0 250.88,0 250.88,-19.25"/>
<text text-anchor="middle" x="221.12" y="-5.75" font-family="Helvetica,sans-Serif" font-size="10.00">execinfo.h</text>
</a>
</g>
</g>
<!-- Node26&#45;&gt;Node30 -->
<g id="edge38_Node000026_Node000030" class="edge">
<title>Node26&#45;&gt;Node30</title>
<g id="a_edge38_Node000026_Node000030"><a xlink:title=" ">
<path fill="none" stroke="#63b8ff" d="M396.76,-56.47C361.81,-47.35 302.16,-31.78 262.2,-21.35"/>
<polygon fill="#63b8ff" stroke="#63b8ff" points="263.26,-18.01 252.7,-18.87 261.5,-24.78 263.26,-18.01"/>
</a>
</g>
</g>
<!-- Node31 -->
<g id="Node000031" class="node">
<title>Node31</title>
<g id="a_Node000031"><a xlink:title=" ">
<polygon fill="#e0e0e0" stroke="#999999" points="319.38,-19.25 268.88,-19.25 268.88,0 319.38,0 319.38,-19.25"/>
<text text-anchor="middle" x="294.12" y="-5.75" font-family="Helvetica,sans-Serif" font-size="10.00">cxxabi.h</text>
</a>
</g>
</g>
<!-- Node26&#45;&gt;Node31 -->
<g id="edge39_Node000026_Node000031" class="edge">
<title>Node26&#45;&gt;Node31</title>
<g id="a_edge39_Node000026_Node000031"><a xlink:title=" ">
<path fill="none" stroke="#63b8ff" d="M402.9,-54.84C382.11,-46.39 350.78,-33.65 327.07,-24.02"/>
<polygon fill="#63b8ff" stroke="#63b8ff" points="328.44,-20.8 317.86,-20.27 325.8,-27.28 328.44,-20.8"/>
</a>
</g>
</g>
<!-- Node32 -->
<g id="Node000032" class="node">
<title>Node32</title>
<g id="a_Node000032"><a xlink:title=" ">
<polygon fill="#e0e0e0" stroke="#999999" points="388.75,-19.25 337.5,-19.25 337.5,0 388.75,0 388.75,-19.25"/>
<text text-anchor="middle" x="363.12" y="-5.75" font-family="Helvetica,sans-Serif" font-size="10.00">sstream</text>
</a>
</g>
</g>
<!-- Node26&#45;&gt;Node32 -->
<g id="edge40_Node000026_Node000032" class="edge">
<title>Node26&#45;&gt;Node32</title>
<g id="a_edge40_Node000026_Node000032"><a xlink:title=" ">
<path fill="none" stroke="#63b8ff" d="M414.61,-54.84C405.74,-47.22 392.81,-36.12 382.14,-26.95"/>
<polygon fill="#63b8ff" stroke="#63b8ff" points="384.5,-24.37 374.64,-20.51 379.94,-29.68 384.5,-24.37"/>
</a>
</g>
</g>
<!-- Node33 -->
<g id="Node000033" class="node">
<title>Node33</title>
<g id="a_Node000033"><a xlink:title=" ">
<polygon fill="#e0e0e0" stroke="#999999" points="443.62,-19.25 406.62,-19.25 406.62,0 443.62,0 443.62,-19.25"/>
<text text-anchor="middle" x="425.12" y="-5.75" font-family="Helvetica,sans-Serif" font-size="10.00">array</text>
</a>
</g>
</g>
<!-- Node26&#45;&gt;Node33 -->
<g id="edge41_Node000026_Node000033" class="edge">
<title>Node26&#45;&gt;Node33</title>
<g id="a_edge41_Node000026_Node000033"><a xlink:title=" ">
<path fill="none" stroke="#63b8ff" d="M425.12,-55.08C425.12,-48.57 425.12,-39.42 425.12,-31.12"/>
<polygon fill="#63b8ff" stroke="#63b8ff" points="428.63,-31.12 425.13,-21.12 421.63,-31.12 428.63,-31.12"/>
</a>
</g>
</g>
<!-- Node34 -->
<g id="Node000034" class="node">
<title>Node34</title>
<g id="a_Node000034"><a xlink:title=" ">
<polygon fill="#e0e0e0" stroke="#999999" points="511,-19.25 461.25,-19.25 461.25,0 511,0 511,-19.25"/>
<text text-anchor="middle" x="486.12" y="-5.75" font-family="Helvetica,sans-Serif" font-size="10.00">unistd.h</text>
</a>
</g>
</g>
<!-- Node26&#45;&gt;Node34 -->
<g id="edge43_Node000026_Node000034" class="edge">
<title>Node26&#45;&gt;Node34</title>
<g id="a_edge43_Node000026_Node000034"><a xlink:title=" ">
<path fill="none" stroke="#63b8ff" d="M435.47,-54.84C444.2,-47.22 456.91,-36.12 467.42,-26.95"/>
<polygon fill="#63b8ff" stroke="#63b8ff" points="469.56,-29.73 474.79,-20.52 464.95,-24.46 469.56,-29.73"/>
</a>
</g>
</g>
<!-- Node35 -->
<g id="Node000035" class="node">
<title>Node35</title>
<g id="a_Node000035"><a xlink:title=" ">
<polygon fill="#e0e0e0" stroke="#999999" points="588.88,-19.25 529.38,-19.25 529.38,0 588.88,0 588.88,-19.25"/>
<text text-anchor="middle" x="559.12" y="-5.75" font-family="Helvetica,sans-Serif" font-size="10.00">sys/wait.h</text>
</a>
</g>
</g>
<!-- Node26&#45;&gt;Node35 -->
<g id="edge44_Node000026_Node000035" class="edge">
<title>Node26&#45;&gt;Node35</title>
<g id="a_edge44_Node000026_Node000035"><a xlink:title=" ">
<path fill="none" stroke="#63b8ff" d="M447.86,-54.84C469.22,-46.35 501.47,-33.54 525.75,-23.89"/>
<polygon fill="#63b8ff" stroke="#63b8ff" points="526.88,-27.21 534.88,-20.26 524.29,-20.7 526.88,-27.21"/>
</a>
</g>
</g>
<!-- Node36 -->
<g id="Node000036" class="node">
<title>Node36</title>
<g id="a_Node000036"><a xlink:title=" ">
<polygon fill="#e0e0e0" stroke="#999999" points="667.25,-19.25 607,-19.25 607,0 667.25,0 667.25,-19.25"/>
<text text-anchor="middle" x="637.12" y="-5.75" font-family="Helvetica,sans-Serif" font-size="10.00">sys/prctl.h</text>
</a>
</g>
</g>
<!-- Node26&#45;&gt;Node36 -->
<g id="edge45_Node000026_Node000036" class="edge">
<title>Node26&#45;&gt;Node36</title>
<g id="a_edge45_Node000026_Node000036"><a xlink:title=" ">
<path fill="none" stroke="#63b8ff" d="M453.72,-56.69C490.26,-47.51 553.8,-31.55 595.66,-21.04"/>
<polygon fill="#63b8ff" stroke="#63b8ff" points="596.28,-24.49 605.12,-18.66 594.57,-17.71 596.28,-24.49"/>
</a>
</g>
</g>
<!-- Node37&#45;&gt;Node5 -->
<g id="edge48_Node000037_Node000005" class="edge">
<title>Node37&#45;&gt;Node5</title>
<g id="a_edge48_Node000037_Node000005"><a xlink:title=" ">
<path fill="none" stroke="#63b8ff" d="M582.99,-112.66C539.93,-104.67 464.48,-90.41 390.47,-74.94"/>
<polygon fill="#63b8ff" stroke="#63b8ff" points="391.55,-71.59 381.04,-72.96 390.11,-78.44 391.55,-71.59"/>
</a>
</g>
</g>
<!-- Node37&#45;&gt;Node24 -->
<g id="edge47_Node000037_Node000024" class="edge">
<title>Node37&#45;&gt;Node24</title>
<g id="a_edge47_Node000037_Node000024"><a xlink:title=" ">
<path fill="none" stroke="#63b8ff" d="M653.51,-111.06C693.7,-101.58 756.5,-85.73 778.12,-74.5 801.79,-62.21 824.92,-41.92 839.76,-27.51"/>
<polygon fill="#63b8ff" stroke="#63b8ff" points="842.19,-30.03 846.8,-20.49 837.25,-25.07 842.19,-30.03"/>
</a>
</g>
</g>
<!-- Node37&#45;&gt;Node26 -->
<g id="edge53_Node000037_Node000026" class="edge">
<title>Node37&#45;&gt;Node26</title>
<g id="a_edge53_Node000037_Node000026"><a xlink:title=" ">
<path fill="none" stroke="#63b8ff" d="M585.39,-110.09C552,-100.88 500.19,-86.59 464.57,-76.76"/>
<polygon fill="#63b8ff" stroke="#63b8ff" points="465.65,-73.42 455.07,-74.14 463.78,-80.17 465.65,-73.42"/>
</a>
</g>
</g>
<!-- Node38 -->
<g id="Node000038" class="node">
<title>Node38</title>
<g id="a_Node000038"><a xlink:title=" ">
<polygon fill="#e0e0e0" stroke="#999999" points="577,-74.5 509.25,-74.5 509.25,-55.25 577,-55.25 577,-74.5"/>
<text text-anchor="middle" x="543.12" y="-61" font-family="Helvetica,sans-Serif" font-size="10.00">TDirectory.h</text>
</a>
</g>
</g>
<!-- Node37&#45;&gt;Node38 -->
<g id="edge49_Node000037_Node000038" class="edge">
<title>Node37&#45;&gt;Node38</title>
<g id="a_edge49_Node000037_Node000038"><a xlink:title=" ">
<path fill="none" stroke="#63b8ff" d="M605.4,-110.09C594.41,-102.29 578.28,-90.84 565.19,-81.54"/>
<polygon fill="#63b8ff" stroke="#63b8ff" points="567.32,-78.76 557.14,-75.83 563.27,-84.47 567.32,-78.76"/>
</a>
</g>
</g>
<!-- Node39 -->
<g id="Node000039" class="node">
<title>Node39</title>
<g id="a_Node000039"><a xlink:title=" ">
<polygon fill="#e0e0e0" stroke="#999999" points="640.75,-74.5 595.5,-74.5 595.5,-55.25 640.75,-55.25 640.75,-74.5"/>
<text text-anchor="middle" x="618.12" y="-61" font-family="Helvetica,sans-Serif" font-size="10.00">TFile.h</text>
</a>
</g>
</g>
<!-- Node37&#45;&gt;Node39 -->
<g id="edge50_Node000037_Node000039" class="edge">
<title>Node37&#45;&gt;Node39</title>
<g id="a_edge50_Node000037_Node000039"><a xlink:title=" ">
<path fill="none" stroke="#63b8ff" d="M618.12,-110.33C618.12,-103.82 618.12,-94.67 618.12,-86.37"/>
<polygon fill="#63b8ff" stroke="#63b8ff" points="621.63,-86.37 618.13,-76.37 614.63,-86.37 621.63,-86.37"/>
</a>
</g>
</g>
<!-- Node40 -->
<g id="Node000040" class="node">
<title>Node40</title>
<g id="a_Node000040"><a xlink:title=" ">
<polygon fill="#e0e0e0" stroke="#999999" points="705.12,-74.5 659.12,-74.5 659.12,-55.25 705.12,-55.25 705.12,-74.5"/>
<text text-anchor="middle" x="682.12" y="-61" font-family="Helvetica,sans-Serif" font-size="10.00">TList.h</text>
</a>
</g>
</g>
<!-- Node37&#45;&gt;Node40 -->
<g id="edge51_Node000037_Node000040" class="edge">
<title>Node37&#45;&gt;Node40</title>
<g id="a_edge51_Node000037_Node000040"><a xlink:title=" ">
<path fill="none" stroke="#63b8ff" d="M628.98,-110.09C638.23,-102.4 651.75,-91.15 662.83,-81.93"/>
<polygon fill="#63b8ff" stroke="#63b8ff" points="664.82,-84.83 670.27,-75.74 660.34,-79.45 664.82,-84.83"/>
</a>
</g>
</g>
<!-- Node41 -->
<g id="Node000041" class="node">
<title>Node41</title>
<g id="a_Node000041"><a xlink:title=" ">
<polygon fill="#e0e0e0" stroke="#999999" points="769.12,-74.5 723.12,-74.5 723.12,-55.25 769.12,-55.25 769.12,-74.5"/>
<text text-anchor="middle" x="746.12" y="-61" font-family="Helvetica,sans-Serif" font-size="10.00">TKey.h</text>
</a>
</g>
</g>
<!-- Node37&#45;&gt;Node41 -->
<g id="edge52_Node000037_Node000041" class="edge">
<title>Node37&#45;&gt;Node41</title>
<g id="a_edge52_Node000037_Node000041"><a xlink:title=" ">
<path fill="none" stroke="#63b8ff" d="M639.84,-110.09C660.16,-101.64 690.77,-88.9 713.93,-79.27"/>
<polygon fill="#63b8ff" stroke="#63b8ff" points="715.02,-82.61 722.91,-75.53 712.33,-76.14 715.02,-82.61"/>
</a>
</g>
</g>
<!-- Node42&#45;&gt;Node24 -->
<g id="edge55_Node000042_Node000024" class="edge">
<title>Node42&#45;&gt;Node24</title>
<g id="a_edge55_Node000042_Node000024"><a xlink:title=" ">
<path fill="none" stroke="#63b8ff" d="M546.47,-165.32C522.59,-143.99 469.26,-89.78 500.12,-55.25 545.72,-4.24 732.2,-29.16 817.92,-19.1"/>
<polygon fill="#63b8ff" stroke="#63b8ff" points="818.18,-22.6 827.57,-17.7 817.18,-15.67 818.18,-22.6"/>
</a>
</g>
</g>
<!-- Node43 -->
<g id="Node000043" class="node">
<title>Node43</title>
<g id="a_Node000043"><a xlink:title=" ">
<polygon fill="#e0e0e0" stroke="#999999" points="451,-129.75 377.25,-129.75 377.25,-110.5 451,-110.5 451,-129.75"/>
<text text-anchor="middle" x="414.12" y="-116.25" font-family="Helvetica,sans-Serif" font-size="10.00">RtypesCore.h</text>
</a>
</g>
</g>
<!-- Node42&#45;&gt;Node43 -->
<g id="edge56_Node000042_Node000043" class="edge">
<title>Node42&#45;&gt;Node43</title>
<g id="a_edge56_Node000042_Node000043"><a xlink:title=" ">
<path fill="none" stroke="#63b8ff" d="M532.87,-165.34C509.86,-156.77 475.03,-143.81 449.04,-134.13"/>
<polygon fill="#63b8ff" stroke="#63b8ff" points="450.51,-130.94 439.92,-130.73 448.07,-137.5 450.51,-130.94"/>
</a>
</g>
</g>
</g>
</svg>

<g id="navigator" transform="translate(0 0)" fill="#404254">
  <rect fill="#f2f5e9" fill-opacity="0.5" stroke="#606060" stroke-width=".5" x="0" y="0" width="60" height="60"/>
  <use id="zoomplus" xlink:href="#zoomPlus" x="17" y="9" onmousedown="handleZoom(evt,'in')"/>
  <use id="zoomminus" xlink:href="#zoomMin" x="42" y="9" onmousedown="handleZoom(evt,'out')"/>
  <use id="reset" xlink:href="#resetDef" x="30" y="36" onmousedown="handleReset()"/>
   <use id="arrowup" xlink:href="#arrowUp" x="0" y="0" onmousedown="handlePan(0,-1)"/>
  <use id="arrowright" xlink:href="#arrowRight" x="0" y="0" onmousedown="handlePan(1,0)"/>
  <use id="arrowdown" xlink:href="#arrowDown" x="0" y="0" onmousedown="handlePan(0,1)"/>
  <use id="arrowleft" xlink:href="#arrowLeft" x="0" y="0" onmousedown="handlePan(-1,0)"/>
</g>
<svg viewBox="0 0 15 15" width="100%" height="30px" preserveAspectRatio="xMaxYMin meet">
 <g id="arrow_out" transform="scale(0.3 0.3)">
  <a xlink:href="_t_detector_8h__incl_org.svg" target="_base">
   <rect id="button" ry="5" rx="5" y="6" x="6" height="38" width="38"
        fill="#f2f5e9" fill-opacity="0.5" stroke="#606060" stroke-width="1.0"/>
   <path id="arrow"
     d="M 11.500037,31.436501 C 11.940474,20.09759 22.043105,11.32322 32.158766,21.979434 L 37.068811,17.246167 C 37.068811,17.246167 37.088388,32 37.088388,32 L 22.160133,31.978069 C 22.160133,31.978069 26.997745,27.140456 26.997745,27.140456 C 18.528582,18.264221 13.291696,25.230495 11.500037,31.436501 z"
     style="fill:#404040;"/>
  </a>
 </g>
</svg>

<style type='text/css'>
<![CDATA[
[data-mouse-over-selected='false'] { opacity: 0.7; }
[data-mouse-over-selected='true']  { opacity: 1.0; }
]]>
</style>
<script type="application/ecmascript"><![CDATA[
document.addEventListener('DOMContentLoaded', (event) => {
  highlightEdges();
  highlightAdjacentNodes();
});
]]></script>
</svg>
