<?xml version="1.0" encoding="UTF-8" standalone="no"?>
<!DOCTYPE svg PUBLIC "-//W3C//DTD SVG 1.1//EN"
 "http://www.w3.org/Graphics/SVG/1.1/DTD/svg11.dtd">
<!-- Generated by graphviz version 12.2.0 (20241103.1931)
 -->
<!-- Title: TEfficiencyCalibration.cxx Pages: 1 -->
<!--zoomable 525 -->

<svg id="main" version="1.1" xmlns="http://www.w3.org/2000/svg" xmlns:xlink="http://www.w3.org/1999/xlink" xml:space="preserve" onload="init(evt)">

<style type="text/css"><![CDATA[
.node, .edge {opacity: 0.7;}
.node.selected, .edge.selected {opacity: 1;}
.edge:hover path { stroke: red; }
.edge:hover polygon { stroke: red; fill: red; }
]]></style>

<defs>
  <circle id="rim" cx="0" cy="0" r="7"/>
  <circle id="rim2" cx="0" cy="0" r="3.5"/>
  <g id="zoomPlus">
    <use xlink:href="#rim" fill="#404040"><set attributeName="fill" to="#808080" begin="zoomplus.mouseover" end="zoomplus.mouseout"/></use>
    <path d="M-4,0h8M0,-4v8" fill="none" stroke="white" stroke-width="1.5" pointer-events="none"/>
  </g>
  <g id="zoomMin">
    <use xlink:href="#rim" fill="#404040"><set attributeName="fill" to="#808080" begin="zoomminus.mouseover" end="zoomminus.mouseout"/></use>
    <path d="M-4,0h8" fill="none" stroke="white" stroke-width="1.5" pointer-events="none"/>
  </g>
  <g id="arrowUp" transform="translate(30 24)">
    <use xlink:href="#rim"/>
    <path pointer-events="none" fill="none" stroke="white" stroke-width="1.5" d="M0,-3.0v7 M-2.5,-0.5L0,-3.0L2.5,-0.5"/>
  </g>
  <g id="arrowRight" transform="rotate(90) translate(36 -43)">
    <use xlink:href="#rim"/>
    <path pointer-events="none" fill="none" stroke="white" stroke-width="1.5" d="M0,-3.0v7 M-2.5,-0.5L0,-3.0L2.5,-0.5"/>
  </g>
  <g id="arrowDown" transform="rotate(180) translate(-30 -48)">
    <use xlink:href="#rim"/>
    <path pointer-events="none" fill="none" stroke="white" stroke-width="1.5" d="M0,-3.0v7 M-2.5,-0.5L0,-3.0L2.5,-0.5"/>
  </g>
  <g id="arrowLeft" transform="rotate(270) translate(-36 17)">
    <use xlink:href="#rim"/>
    <path pointer-events="none" fill="none" stroke="white" stroke-width="1.5" d="M0,-3.0v7 M-2.5,-0.5L0,-3.0L2.5,-0.5"/>
  </g>
  <g id="resetDef">
    <use xlink:href="#rim2" fill="#404040"><set attributeName="fill" to="#808080" begin="reset.mouseover" end="reset.mouseout"/></use>
  </g>
</defs>
<script type="application/ecmascript">
var viewWidth = 1479;
var viewHeight = 525;
var sectionId = 'dynsection-0';
</script>
<script type="application/ecmascript" xlink:href="svg.min.js"/>
<svg id="graph" class="graph">
<g id="viewport">
<title>TEfficiencyCalibration.cxx</title>
<!-- Node1 -->
<g id="Node000001" class="node">
<title>Node1</title>
<g id="a_Node000001"><a xlink:title=" ">
<polygon fill="#999999" stroke="#666666" points="1116.38,-516.5 991.62,-516.5 991.62,-497.25 1116.38,-497.25 1116.38,-516.5"/>
<text text-anchor="middle" x="1054" y="-503" font-family="Helvetica,sans-Serif" font-size="10.00">TEfficiencyCalibration.cxx</text>
</a>
</g>
</g>
<!-- Node2 -->
<g id="Node000002" class="node">
<title>Node2</title>
<g id="a_Node000002"><a xlink:href="_t_efficiency_calibration_8h.html" target="_top" xlink:title=" ">
<polygon fill="white" stroke="#666666" points="173.88,-461.25 58.12,-461.25 58.12,-442 173.88,-442 173.88,-461.25"/>
<text text-anchor="middle" x="116" y="-447.75" font-family="Helvetica,sans-Serif" font-size="10.00">TEfficiencyCalibration.h</text>
</a>
</g>
</g>
<!-- Node1&#45;&gt;Node2 -->
<g id="edge1_Node000001_Node000002" class="edge">
<title>Node1&#45;&gt;Node2</title>
<g id="a_edge1_Node000001_Node000002"><a xlink:title=" ">
<path fill="none" stroke="#63b8ff" d="M991.36,-502.32C823.06,-492.76 361.88,-466.58 185.69,-456.58"/>
<polygon fill="#63b8ff" stroke="#63b8ff" points="185.95,-453.09 175.76,-456.02 185.55,-460.08 185.95,-453.09"/>
</a>
</g>
</g>
<!-- Node31 -->
<g id="Node000031" class="node">
<title>Node31</title>
<g id="a_Node000031"><a xlink:title=" ">
<polygon fill="#e0e0e0" stroke="#999999" points="1470.75,-185 1417.25,-185 1417.25,-165.75 1470.75,-165.75 1470.75,-185"/>
<text text-anchor="middle" x="1444" y="-171.5" font-family="Helvetica,sans-Serif" font-size="10.00">iostream</text>
</a>
</g>
</g>
<!-- Node1&#45;&gt;Node31 -->
<g id="edge41_Node000001_Node000031" class="edge">
<title>Node1&#45;&gt;Node31</title>
<g id="a_edge41_Node000001_Node000031"><a xlink:title=" ">
<path fill="none" stroke="#63b8ff" d="M1054,-496.87C1054,-478.28 1054,-434.3 1054,-397.38 1054,-397.38 1054,-397.38 1054,-284.88 1054,-275.8 1307.94,-210.72 1406,-185.93"/>
<polygon fill="#63b8ff" stroke="#63b8ff" points="1406.58,-189.4 1415.42,-183.55 1404.87,-182.61 1406.58,-189.4"/>
</a>
</g>
</g>
<!-- Node32 -->
<g id="Node000032" class="node">
<title>Node32</title>
<g id="a_Node000032"><a xlink:href="_globals_8h.html" target="_top" xlink:title=" ">
<polygon fill="white" stroke="#666666" points="1026.25,-240.25 969.75,-240.25 969.75,-221 1026.25,-221 1026.25,-240.25"/>
<text text-anchor="middle" x="998" y="-226.75" font-family="Helvetica,sans-Serif" font-size="10.00">Globals.h</text>
</a>
</g>
</g>
<!-- Node1&#45;&gt;Node32 -->
<g id="edge42_Node000001_Node000032" class="edge">
<title>Node1&#45;&gt;Node32</title>
<g id="a_edge42_Node000001_Node000032"><a xlink:title=" ">
<path fill="none" stroke="#63b8ff" d="M1047.06,-496.87C1033.99,-478.97 1007,-437.2 1007,-397.38 1007,-397.38 1007,-397.38 1007,-340.12 1007,-309.3 1003.35,-273.72 1000.7,-251.95"/>
<polygon fill="#63b8ff" stroke="#63b8ff" points="1004.18,-251.59 999.44,-242.11 997.23,-252.47 1004.18,-251.59"/>
</a>
</g>
</g>
<!-- Node43 -->
<g id="Node000043" class="node">
<title>Node43</title>
<g id="a_Node000043"><a xlink:title=" ">
<polygon fill="#e0e0e0" stroke="#999999" points="1133.62,-461.25 1082.38,-461.25 1082.38,-442 1133.62,-442 1133.62,-461.25"/>
<text text-anchor="middle" x="1108" y="-447.75" font-family="Helvetica,sans-Serif" font-size="10.00">TMath.h</text>
</a>
</g>
</g>
<!-- Node1&#45;&gt;Node43 -->
<g id="edge57_Node000001_Node000043" class="edge">
<title>Node1&#45;&gt;Node43</title>
<g id="a_edge57_Node000001_Node000043"><a xlink:title=" ">
<path fill="none" stroke="#63b8ff" d="M1062.92,-497.08C1070.45,-489.65 1081.47,-478.79 1090.73,-469.66"/>
<polygon fill="#63b8ff" stroke="#63b8ff" points="1093.15,-472.19 1097.81,-462.67 1088.23,-467.2 1093.15,-472.19"/>
</a>
</g>
</g>
<!-- Node44 -->
<g id="Node000044" class="node">
<title>Node44</title>
<g id="a_Node000044"><a xlink:title=" ">
<polygon fill="#e0e0e0" stroke="#999999" points="1240.75,-461.25 1151.25,-461.25 1151.25,-442 1240.75,-442 1240.75,-461.25"/>
<text text-anchor="middle" x="1196" y="-447.75" font-family="Helvetica,sans-Serif" font-size="10.00">Math/Minimizer.h</text>
</a>
</g>
</g>
<!-- Node1&#45;&gt;Node44 -->
<g id="edge58_Node000001_Node000044" class="edge">
<title>Node1&#45;&gt;Node44</title>
<g id="a_edge58_Node000001_Node000044"><a xlink:title=" ">
<path fill="none" stroke="#63b8ff" d="M1078.09,-496.84C1100.94,-488.27 1135.52,-475.31 1161.33,-465.63"/>
<polygon fill="#63b8ff" stroke="#63b8ff" points="1162.24,-469.02 1170.38,-462.23 1159.78,-462.47 1162.24,-469.02"/>
</a>
</g>
</g>
<!-- Node3 -->
<g id="Node000003" class="node">
<title>Node3</title>
<g id="a_Node000003"><a xlink:title=" ">
<polygon fill="#e0e0e0" stroke="#999999" points="62.38,-185 27.62,-185 27.62,-165.75 62.38,-165.75 62.38,-185"/>
<text text-anchor="middle" x="45" y="-171.5" font-family="Helvetica,sans-Serif" font-size="10.00">map</text>
</a>
</g>
</g>
<!-- Node2&#45;&gt;Node3 -->
<g id="edge2_Node000002_Node000003" class="edge">
<title>Node2&#45;&gt;Node3</title>
<g id="a_edge2_Node000002_Node000003"><a xlink:title=" ">
<path fill="none" stroke="#63b8ff" d="M104.59,-441.51C84.52,-424.36 45,-385.12 45,-342.12 45,-342.12 45,-342.12 45,-284.88 45,-254.16 45,-218.55 45,-196.74"/>
<polygon fill="#63b8ff" stroke="#63b8ff" points="48.5,-196.89 45,-186.89 41.5,-196.89 48.5,-196.89"/>
</a>
</g>
</g>
<!-- Node4 -->
<g id="Node000004" class="node">
<title>Node4</title>
<g id="a_Node000004"><a xlink:title=" ">
<polygon fill="#e0e0e0" stroke="#999999" points="141.5,-185 80.5,-185 80.5,-165.75 141.5,-165.75 141.5,-185"/>
<text text-anchor="middle" x="111" y="-171.5" font-family="Helvetica,sans-Serif" font-size="10.00">TNamed.h</text>
</a>
</g>
</g>
<!-- Node2&#45;&gt;Node4 -->
<g id="edge3_Node000002_Node000004" class="edge">
<title>Node2&#45;&gt;Node4</title>
<g id="a_edge3_Node000002_Node000004"><a xlink:title=" ">
<path fill="none" stroke="#63b8ff" d="M111.27,-441.62C102.15,-423.38 83,-380.52 83,-342.12 83,-342.12 83,-342.12 83,-284.88 83,-253.02 94.46,-217.52 102.72,-196.07"/>
<polygon fill="#63b8ff" stroke="#63b8ff" points="105.93,-197.45 106.42,-186.86 99.44,-194.83 105.93,-197.45"/>
</a>
</g>
</g>
<!-- Node5 -->
<g id="Node000005" class="node">
<title>Node5</title>
<g id="a_Node000005"><a xlink:title=" ">
<polygon fill="#e0e0e0" stroke="#999999" points="187.38,-406 110.62,-406 110.62,-386.75 187.38,-386.75 187.38,-406"/>
<text text-anchor="middle" x="149" y="-392.5" font-family="Helvetica,sans-Serif" font-size="10.00">TMultiGraph.h</text>
</a>
</g>
</g>
<!-- Node2&#45;&gt;Node5 -->
<g id="edge4_Node000002_Node000005" class="edge">
<title>Node2&#45;&gt;Node5</title>
<g id="a_edge4_Node000002_Node000005"><a xlink:title=" ">
<path fill="none" stroke="#63b8ff" d="M121.45,-441.83C125.77,-434.86 131.96,-424.87 137.38,-416.12"/>
<polygon fill="#63b8ff" stroke="#63b8ff" points="140.34,-417.99 142.64,-407.65 134.39,-414.3 140.34,-417.99"/>
</a>
</g>
</g>
<!-- Node6 -->
<g id="Node000006" class="node">
<title>Node6</title>
<g id="a_Node000006"><a xlink:title=" ">
<polygon fill="#e0e0e0" stroke="#999999" points="64.38,-19.25 23.62,-19.25 23.62,0 64.38,0 64.38,-19.25"/>
<text text-anchor="middle" x="44" y="-5.75" font-family="Helvetica,sans-Serif" font-size="10.00">TF1.h</text>
</a>
</g>
</g>
<!-- Node2&#45;&gt;Node6 -->
<g id="edge5_Node000002_Node000006" class="edge">
<title>Node2&#45;&gt;Node6</title>
<g id="a_edge5_Node000002_Node000006"><a xlink:title=" ">
<path fill="none" stroke="#63b8ff" d="M93.36,-441.62C59.6,-426.53 0,-392.73 0,-342.12 0,-342.12 0,-342.12 0,-119.12 0,-85.54 18.32,-50.12 31.32,-29.22"/>
<polygon fill="#63b8ff" stroke="#63b8ff" points="34.17,-31.26 36.68,-20.96 28.3,-27.44 34.17,-31.26"/>
</a>
</g>
</g>
<!-- Node7 -->
<g id="Node000007" class="node">
<title>Node7</title>
<g id="a_Node000007"><a xlink:href="_t_efficiency_graph_8h.html" target="_top" xlink:title=" ">
<polygon fill="white" stroke="#666666" points="302.12,-406 205.88,-406 205.88,-386.75 302.12,-386.75 302.12,-406"/>
<text text-anchor="middle" x="254" y="-392.5" font-family="Helvetica,sans-Serif" font-size="10.00">TEfficiencyGraph.h</text>
</a>
</g>
</g>
<!-- Node2&#45;&gt;Node7 -->
<g id="edge6_Node000002_Node000007" class="edge">
<title>Node2&#45;&gt;Node7</title>
<g id="a_edge6_Node000002_Node000007"><a xlink:title=" ">
<path fill="none" stroke="#63b8ff" d="M139.41,-441.59C161.52,-433.06 194.92,-420.17 219.97,-410.51"/>
<polygon fill="#63b8ff" stroke="#63b8ff" points="220.99,-413.86 229.06,-407 218.47,-407.33 220.99,-413.86"/>
</a>
</g>
</g>
<!-- Node8 -->
<g id="Node000008" class="node">
<title>Node8</title>
<g id="a_Node000008"><a xlink:href="_t_cal_graph_8h.html" target="_top" xlink:title=" ">
<polygon fill="white" stroke="#666666" points="289,-350.75 219,-350.75 219,-331.5 289,-331.5 289,-350.75"/>
<text text-anchor="middle" x="254" y="-337.25" font-family="Helvetica,sans-Serif" font-size="10.00">TCalGraph.h</text>
</a>
</g>
</g>
<!-- Node7&#45;&gt;Node8 -->
<g id="edge7_Node000007_Node000008" class="edge">
<title>Node7&#45;&gt;Node8</title>
<g id="a_edge7_Node000007_Node000008"><a xlink:title=" ">
<path fill="none" stroke="#63b8ff" d="M254,-386.58C254,-380.07 254,-370.92 254,-362.62"/>
<polygon fill="#63b8ff" stroke="#63b8ff" points="257.5,-362.62 254,-352.62 250.5,-362.62 257.5,-362.62"/>
</a>
</g>
</g>
<!-- Node8&#45;&gt;Node3 -->
<g id="edge8_Node000008_Node000003" class="edge">
<title>Node8&#45;&gt;Node3</title>
<g id="a_edge8_Node000008_Node000003"><a xlink:title=" ">
<path fill="none" stroke="#63b8ff" d="M242.47,-331.09C208.57,-304.53 108.91,-226.45 65.55,-192.48"/>
<polygon fill="#63b8ff" stroke="#63b8ff" points="67.72,-189.73 57.69,-186.32 63.4,-195.24 67.72,-189.73"/>
</a>
</g>
</g>
<!-- Node9 -->
<g id="Node000009" class="node">
<title>Node9</title>
<g id="a_Node000009"><a xlink:title=" ">
<polygon fill="#e0e0e0" stroke="#999999" points="398.25,-295.5 359.75,-295.5 359.75,-276.25 398.25,-276.25 398.25,-295.5"/>
<text text-anchor="middle" x="379" y="-282" font-family="Helvetica,sans-Serif" font-size="10.00">utility</text>
</a>
</g>
</g>
<!-- Node8&#45;&gt;Node9 -->
<g id="edge9_Node000008_Node000009" class="edge">
<title>Node8&#45;&gt;Node9</title>
<g id="a_edge9_Node000008_Node000009"><a xlink:title=" ">
<path fill="none" stroke="#63b8ff" d="M275.2,-331.09C295.44,-322.47 326.12,-309.4 348.88,-299.7"/>
<polygon fill="#63b8ff" stroke="#63b8ff" points="350.12,-302.98 357.95,-295.84 347.38,-296.54 350.12,-302.98"/>
</a>
</g>
</g>
<!-- Node10 -->
<g id="Node000010" class="node">
<title>Node10</title>
<g id="a_Node000010"><a xlink:title=" ">
<polygon fill="#e0e0e0" stroke="#999999" points="497.62,-295.5 416.38,-295.5 416.38,-276.25 497.62,-276.25 497.62,-295.5"/>
<text text-anchor="middle" x="457" y="-282" font-family="Helvetica,sans-Serif" font-size="10.00">TGraphErrors.h</text>
</a>
</g>
</g>
<!-- Node8&#45;&gt;Node10 -->
<g id="edge10_Node000008_Node000010" class="edge">
<title>Node8&#45;&gt;Node10</title>
<g id="a_edge10_Node000008_Node000010"><a xlink:title=" ">
<path fill="none" stroke="#63b8ff" d="M288.44,-331.09C322.27,-322.22 374.09,-308.62 411.34,-298.85"/>
<polygon fill="#63b8ff" stroke="#63b8ff" points="412.15,-302.26 420.93,-296.34 410.37,-295.49 412.15,-302.26"/>
</a>
</g>
</g>
<!-- Node11 -->
<g id="Node000011" class="node">
<title>Node11</title>
<g id="a_Node000011"><a xlink:href="_t_cal_point_8h.html" target="_top" xlink:title=" ">
<polygon fill="white" stroke="#666666" points="226.12,-185 159.88,-185 159.88,-165.75 226.12,-165.75 226.12,-185"/>
<text text-anchor="middle" x="193" y="-171.5" font-family="Helvetica,sans-Serif" font-size="10.00">TCalPoint.h</text>
</a>
</g>
</g>
<!-- Node8&#45;&gt;Node11 -->
<g id="edge11_Node000008_Node000011" class="edge">
<title>Node8&#45;&gt;Node11</title>
<g id="a_edge11_Node000008_Node000011"><a xlink:title=" ">
<path fill="none" stroke="#63b8ff" d="M252.01,-331.23C247.37,-311.11 234.91,-260.76 218,-221 214.27,-212.22 209.27,-202.96 204.72,-195.16"/>
<polygon fill="#63b8ff" stroke="#63b8ff" points="207.72,-193.36 199.55,-186.61 201.73,-196.98 207.72,-193.36"/>
</a>
</g>
</g>
<!-- Node21 -->
<g id="Node000021" class="node">
<title>Node21</title>
<g id="a_Node000021"><a xlink:href="_t_cal_list_8h.html" target="_top" xlink:title=" ">
<polygon fill="white" stroke="#666666" points="209.12,-240.25 148.88,-240.25 148.88,-221 209.12,-221 209.12,-240.25"/>
<text text-anchor="middle" x="179" y="-226.75" font-family="Helvetica,sans-Serif" font-size="10.00">TCalList.h</text>
</a>
</g>
</g>
<!-- Node8&#45;&gt;Node21 -->
<g id="edge24_Node000008_Node000021" class="edge">
<title>Node8&#45;&gt;Node21</title>
<g id="a_edge24_Node000008_Node000021"><a xlink:title=" ">
<path fill="none" stroke="#63b8ff" d="M247.81,-331.24C241.55,-322.24 231.59,-307.91 223,-295.5 212.36,-280.12 200.32,-262.63 191.52,-249.84"/>
<polygon fill="#63b8ff" stroke="#63b8ff" points="194.66,-248.23 186.11,-241.98 188.89,-252.2 194.66,-248.23"/>
</a>
</g>
</g>
<!-- Node22 -->
<g id="Node000022" class="node">
<title>Node22</title>
<g id="a_Node000022"><a xlink:href="_t_source_list_8h.html" target="_top" xlink:title=" ">
<polygon fill="white" stroke="#666666" points="341.38,-295.5 264.62,-295.5 264.62,-276.25 341.38,-276.25 341.38,-295.5"/>
<text text-anchor="middle" x="303" y="-282" font-family="Helvetica,sans-Serif" font-size="10.00">TSourceList.h</text>
</a>
</g>
</g>
<!-- Node8&#45;&gt;Node22 -->
<g id="edge28_Node000008_Node000022" class="edge">
<title>Node8&#45;&gt;Node22</title>
<g id="a_edge28_Node000008_Node000022"><a xlink:title=" ">
<path fill="none" stroke="#63b8ff" d="M262.09,-331.33C268.86,-323.98 278.72,-313.26 287.06,-304.19"/>
<polygon fill="#63b8ff" stroke="#63b8ff" points="289.51,-306.7 293.71,-296.97 284.36,-301.96 289.51,-306.7"/>
</a>
</g>
</g>
<!-- Node12 -->
<g id="Node000012" class="node">
<title>Node12</title>
<g id="a_Node000012"><a xlink:title=" ">
<polygon fill="#e0e0e0" stroke="#999999" points="436,-19.25 378,-19.25 378,0 436,0 436,-19.25"/>
<text text-anchor="middle" x="407" y="-5.75" font-family="Helvetica,sans-Serif" font-size="10.00">TObject.h</text>
</a>
</g>
</g>
<!-- Node11&#45;&gt;Node12 -->
<g id="edge12_Node000011_Node000012" class="edge">
<title>Node11&#45;&gt;Node12</title>
<g id="a_edge12_Node000011_Node000012"><a xlink:title=" ">
<path fill="none" stroke="#63b8ff" d="M204.81,-165.34C239.59,-138.72 341.99,-60.37 386.24,-26.51"/>
<polygon fill="#63b8ff" stroke="#63b8ff" points="388.21,-29.41 394.02,-20.55 383.96,-23.85 388.21,-29.41"/>
</a>
</g>
</g>
<!-- Node13 -->
<g id="Node000013" class="node">
<title>Node13</title>
<g id="a_Node000013"><a xlink:href="_t_peak_8h.html" target="_top" xlink:title=" ">
<polygon fill="white" stroke="#666666" points="212,-129.75 160,-129.75 160,-110.5 212,-110.5 212,-129.75"/>
<text text-anchor="middle" x="186" y="-116.25" font-family="Helvetica,sans-Serif" font-size="10.00">TPeak.h</text>
</a>
</g>
</g>
<!-- Node11&#45;&gt;Node13 -->
<g id="edge13_Node000011_Node000013" class="edge">
<title>Node11&#45;&gt;Node13</title>
<g id="a_edge13_Node000011_Node000013"><a xlink:title=" ">
<path fill="none" stroke="#63b8ff" d="M191.84,-165.58C190.98,-158.99 189.76,-149.71 188.66,-141.32"/>
<polygon fill="#63b8ff" stroke="#63b8ff" points="192.15,-141.07 187.38,-131.61 185.21,-141.98 192.15,-141.07"/>
</a>
</g>
</g>
<!-- Node13&#45;&gt;Node6 -->
<g id="edge14_Node000013_Node000006" class="edge">
<title>Node13&#45;&gt;Node6</title>
<g id="a_edge14_Node000013_Node000006"><a xlink:title=" ">
<path fill="none" stroke="#63b8ff" d="M159.66,-116.48C131.85,-112.3 88.56,-101.61 63,-74.5 51.94,-62.77 47.29,-44.88 45.35,-31.02"/>
<polygon fill="#63b8ff" stroke="#63b8ff" points="48.85,-30.82 44.37,-21.22 41.88,-31.51 48.85,-30.82"/>
</a>
</g>
</g>
<!-- Node14 -->
<g id="Node000014" class="node">
<title>Node14</title>
<g id="a_Node000014"><a xlink:title=" ">
<polygon fill="#e0e0e0" stroke="#999999" points="140.25,-74.5 71.75,-74.5 71.75,-55.25 140.25,-55.25 140.25,-74.5"/>
<text text-anchor="middle" x="106" y="-61" font-family="Helvetica,sans-Serif" font-size="10.00">TFitResult.h</text>
</a>
</g>
</g>
<!-- Node13&#45;&gt;Node14 -->
<g id="edge15_Node000013_Node000014" class="edge">
<title>Node13&#45;&gt;Node14</title>
<g id="a_edge15_Node000013_Node000014"><a xlink:title=" ">
<path fill="none" stroke="#63b8ff" d="M172.43,-110.09C160.59,-102.21 143.16,-90.61 129.13,-81.27"/>
<polygon fill="#63b8ff" stroke="#63b8ff" points="131.16,-78.42 120.9,-75.79 127.28,-84.25 131.16,-78.42"/>
</a>
</g>
</g>
<!-- Node15 -->
<g id="Node000015" class="node">
<title>Node15</title>
<g id="a_Node000015"><a xlink:title=" ">
<polygon fill="#e0e0e0" stroke="#999999" points="213.88,-74.5 158.12,-74.5 158.12,-55.25 213.88,-55.25 213.88,-74.5"/>
<text text-anchor="middle" x="186" y="-61" font-family="Helvetica,sans-Serif" font-size="10.00">TGraph.h</text>
</a>
</g>
</g>
<!-- Node13&#45;&gt;Node15 -->
<g id="edge16_Node000013_Node000015" class="edge">
<title>Node13&#45;&gt;Node15</title>
<g id="a_edge16_Node000013_Node000015"><a xlink:title=" ">
<path fill="none" stroke="#63b8ff" d="M186,-110.33C186,-103.82 186,-94.67 186,-86.37"/>
<polygon fill="#63b8ff" stroke="#63b8ff" points="189.5,-86.37 186,-76.37 182.5,-86.37 189.5,-86.37"/>
</a>
</g>
</g>
<!-- Node16 -->
<g id="Node000016" class="node">
<title>Node16</title>
<g id="a_Node000016"><a xlink:href="_t_g_r_s_i_fit_8h.html" target="_top" xlink:title=" ">
<polygon fill="white" stroke="#666666" points="296.38,-74.5 231.62,-74.5 231.62,-55.25 296.38,-55.25 296.38,-74.5"/>
<text text-anchor="middle" x="264" y="-61" font-family="Helvetica,sans-Serif" font-size="10.00">TGRSIFit.h</text>
</a>
</g>
</g>
<!-- Node13&#45;&gt;Node16 -->
<g id="edge17_Node000013_Node000016" class="edge">
<title>Node13&#45;&gt;Node16</title>
<g id="a_edge17_Node000013_Node000016"><a xlink:title=" ">
<path fill="none" stroke="#63b8ff" d="M199.23,-110.09C210.77,-102.21 227.77,-90.61 241.45,-81.27"/>
<polygon fill="#63b8ff" stroke="#63b8ff" points="243.17,-84.33 249.45,-75.81 239.22,-78.55 243.17,-84.33"/>
</a>
</g>
</g>
<!-- Node16&#45;&gt;Node6 -->
<g id="edge20_Node000016_Node000006" class="edge">
<title>Node16&#45;&gt;Node6</title>
<g id="a_edge20_Node000016_Node000006"><a xlink:title=" ">
<path fill="none" stroke="#63b8ff" d="M231.54,-56.02C189.67,-45.88 117.33,-28.37 75.79,-18.32"/>
<polygon fill="#63b8ff" stroke="#63b8ff" points="76.71,-14.94 66.17,-15.99 75.06,-21.75 76.71,-14.94"/>
</a>
</g>
</g>
<!-- Node16&#45;&gt;Node12 -->
<g id="edge18_Node000016_Node000012" class="edge">
<title>Node16&#45;&gt;Node12</title>
<g id="a_edge18_Node000016_Node000012"><a xlink:title=" ">
<path fill="none" stroke="#63b8ff" d="M288.26,-54.84C311.27,-46.27 346.09,-33.31 372.08,-23.63"/>
<polygon fill="#63b8ff" stroke="#63b8ff" points="373.05,-27 381.2,-20.23 370.61,-20.44 373.05,-27"/>
</a>
</g>
</g>
<!-- Node17 -->
<g id="Node000017" class="node">
<title>Node17</title>
<g id="a_Node000017"><a xlink:title=" ">
<polygon fill="#e0e0e0" stroke="#999999" points="134.12,-19.25 91.88,-19.25 91.88,0 134.12,0 134.12,-19.25"/>
<text text-anchor="middle" x="113" y="-5.75" font-family="Helvetica,sans-Serif" font-size="10.00">TH1.h</text>
</a>
</g>
</g>
<!-- Node16&#45;&gt;Node17 -->
<g id="edge19_Node000016_Node000017" class="edge">
<title>Node16&#45;&gt;Node17</title>
<g id="a_edge19_Node000016_Node000017"><a xlink:title=" ">
<path fill="none" stroke="#63b8ff" d="M238.38,-54.84C212.65,-45.77 172.92,-31.75 145.09,-21.94"/>
<polygon fill="#63b8ff" stroke="#63b8ff" points="146.36,-18.68 135.77,-18.65 144.03,-25.28 146.36,-18.68"/>
</a>
</g>
</g>
<!-- Node18 -->
<g id="Node000018" class="node">
<title>Node18</title>
<g id="a_Node000018"><a xlink:title=" ">
<polygon fill="#e0e0e0" stroke="#999999" points="223.75,-19.25 152.25,-19.25 152.25,0 223.75,0 223.75,-19.25"/>
<text text-anchor="middle" x="188" y="-5.75" font-family="Helvetica,sans-Serif" font-size="10.00">TSpectrum.h</text>
</a>
</g>
</g>
<!-- Node16&#45;&gt;Node18 -->
<g id="edge21_Node000016_Node000018" class="edge">
<title>Node16&#45;&gt;Node18</title>
<g id="a_edge21_Node000016_Node000018"><a xlink:title=" ">
<path fill="none" stroke="#63b8ff" d="M251.11,-54.84C239.97,-47.04 223.63,-35.59 210.36,-26.29"/>
<polygon fill="#63b8ff" stroke="#63b8ff" points="212.39,-23.44 202.2,-20.57 208.38,-29.18 212.39,-23.44"/>
</a>
</g>
</g>
<!-- Node19 -->
<g id="Node000019" class="node">
<title>Node19</title>
<g id="a_Node000019"><a xlink:title=" ">
<polygon fill="#e0e0e0" stroke="#999999" points="286.25,-19.25 241.75,-19.25 241.75,0 286.25,0 286.25,-19.25"/>
<text text-anchor="middle" x="264" y="-5.75" font-family="Helvetica,sans-Serif" font-size="10.00">TRef.h</text>
</a>
</g>
</g>
<!-- Node16&#45;&gt;Node19 -->
<g id="edge22_Node000016_Node000019" class="edge">
<title>Node16&#45;&gt;Node19</title>
<g id="a_edge22_Node000016_Node000019"><a xlink:title=" ">
<path fill="none" stroke="#63b8ff" d="M264,-55.08C264,-48.57 264,-39.42 264,-31.12"/>
<polygon fill="#63b8ff" stroke="#63b8ff" points="267.5,-31.12 264,-21.12 260.5,-31.12 267.5,-31.12"/>
</a>
</g>
</g>
<!-- Node20 -->
<g id="Node000020" class="node">
<title>Node20</title>
<g id="a_Node000020"><a xlink:title=" ">
<polygon fill="#e0e0e0" stroke="#999999" points="359.5,-19.25 304.5,-19.25 304.5,0 359.5,0 359.5,-19.25"/>
<text text-anchor="middle" x="332" y="-5.75" font-family="Helvetica,sans-Serif" font-size="10.00">TString.h</text>
</a>
</g>
</g>
<!-- Node16&#45;&gt;Node20 -->
<g id="edge23_Node000016_Node000020" class="edge">
<title>Node16&#45;&gt;Node20</title>
<g id="a_edge23_Node000016_Node000020"><a xlink:title=" ">
<path fill="none" stroke="#63b8ff" d="M275.54,-54.84C285.46,-47.07 300.01,-35.67 311.86,-26.4"/>
<polygon fill="#63b8ff" stroke="#63b8ff" points="313.73,-29.38 319.44,-20.46 309.41,-23.87 313.73,-29.38"/>
</a>
</g>
</g>
<!-- Node21&#45;&gt;Node3 -->
<g id="edge27_Node000021_Node000003" class="edge">
<title>Node21&#45;&gt;Node3</title>
<g id="a_edge27_Node000021_Node000003"><a xlink:title=" ">
<path fill="none" stroke="#63b8ff" d="M156.27,-220.59C133.35,-211.48 97.91,-197.4 73.21,-187.58"/>
<polygon fill="#63b8ff" stroke="#63b8ff" points="74.69,-184.41 64.1,-183.97 72.1,-190.91 74.69,-184.41"/>
</a>
</g>
</g>
<!-- Node21&#45;&gt;Node4 -->
<g id="edge25_Node000021_Node000004" class="edge">
<title>Node21&#45;&gt;Node4</title>
<g id="a_edge25_Node000021_Node000004"><a xlink:title=" ">
<path fill="none" stroke="#63b8ff" d="M167.46,-220.59C157.54,-212.82 142.99,-201.42 131.14,-192.15"/>
<polygon fill="#63b8ff" stroke="#63b8ff" points="133.59,-189.62 123.56,-186.21 129.27,-195.13 133.59,-189.62"/>
</a>
</g>
</g>
<!-- Node21&#45;&gt;Node11 -->
<g id="edge26_Node000021_Node000011" class="edge">
<title>Node21&#45;&gt;Node11</title>
<g id="a_edge26_Node000021_Node000011"><a xlink:title=" ">
<path fill="none" stroke="#63b8ff" d="M181.31,-220.83C183.06,-214.17 185.54,-204.74 187.77,-196.28"/>
<polygon fill="#63b8ff" stroke="#63b8ff" points="191.1,-197.38 190.25,-186.82 184.33,-195.6 191.1,-197.38"/>
</a>
</g>
</g>
<!-- Node22&#45;&gt;Node21 -->
<g id="edge29_Node000022_Node000021" class="edge">
<title>Node22&#45;&gt;Node21</title>
<g id="a_edge29_Node000022_Node000021"><a xlink:title=" ">
<path fill="none" stroke="#63b8ff" d="M281.97,-275.84C262.37,-267.43 232.89,-254.77 210.49,-245.15"/>
<polygon fill="#63b8ff" stroke="#63b8ff" points="212.1,-242.03 201.53,-241.3 209.34,-248.46 212.1,-242.03"/>
</a>
</g>
</g>
<!-- Node23 -->
<g id="Node000023" class="node">
<title>Node23</title>
<g id="a_Node000023"><a xlink:href="_t_nucleus_8h.html" target="_top" xlink:title=" ">
<polygon fill="white" stroke="#666666" points="422.75,-240.25 357.25,-240.25 357.25,-221 422.75,-221 422.75,-240.25"/>
<text text-anchor="middle" x="390" y="-226.75" font-family="Helvetica,sans-Serif" font-size="10.00">TNucleus.h</text>
</a>
</g>
</g>
<!-- Node22&#45;&gt;Node23 -->
<g id="edge30_Node000022_Node000023" class="edge">
<title>Node22&#45;&gt;Node23</title>
<g id="a_edge30_Node000022_Node000023"><a xlink:title=" ">
<path fill="none" stroke="#63b8ff" d="M317.76,-275.84C330.88,-267.81 350.32,-255.91 365.73,-246.48"/>
<polygon fill="#63b8ff" stroke="#63b8ff" points="367.18,-249.7 373.88,-241.49 363.52,-243.73 367.18,-249.7"/>
</a>
</g>
</g>
<!-- Node27 -->
<g id="Node000027" class="node">
<title>Node27</title>
<g id="a_Node000027"><a xlink:title=" ">
<polygon fill="#e0e0e0" stroke="#999999" points="654,-185 614,-185 614,-165.75 654,-165.75 654,-185"/>
<text text-anchor="middle" x="634" y="-171.5" font-family="Helvetica,sans-Serif" font-size="10.00">string</text>
</a>
</g>
</g>
<!-- Node22&#45;&gt;Node27 -->
<g id="edge40_Node000022_Node000027" class="edge">
<title>Node22&#45;&gt;Node27</title>
<g id="a_edge40_Node000022_Node000027"><a xlink:title=" ">
<path fill="none" stroke="#63b8ff" d="M330.65,-275.81C391.92,-255.73 538.75,-207.6 603,-186.54"/>
<polygon fill="#63b8ff" stroke="#63b8ff" points="603.8,-189.96 612.21,-183.52 601.62,-183.31 603.8,-189.96"/>
</a>
</g>
</g>
<!-- Node23&#45;&gt;Node4 -->
<g id="edge38_Node000023_Node000004" class="edge">
<title>Node23&#45;&gt;Node4</title>
<g id="a_edge38_Node000023_Node000004"><a xlink:title=" ">
<path fill="none" stroke="#63b8ff" d="M357.08,-223.78C313.02,-215.88 232.14,-201.17 153.12,-185.38"/>
<polygon fill="#63b8ff" stroke="#63b8ff" points="153.97,-181.98 143.48,-183.44 152.59,-188.84 153.97,-181.98"/>
</a>
</g>
</g>
<!-- Node24 -->
<g id="Node000024" class="node">
<title>Node24</title>
<g id="a_Node000024"><a xlink:title=" ">
<polygon fill="#e0e0e0" stroke="#999999" points="533.5,-185 490.5,-185 490.5,-165.75 533.5,-165.75 533.5,-185"/>
<text text-anchor="middle" x="512" y="-171.5" font-family="Helvetica,sans-Serif" font-size="10.00">cmath</text>
</a>
</g>
</g>
<!-- Node23&#45;&gt;Node24 -->
<g id="edge31_Node000023_Node000024" class="edge">
<title>Node23&#45;&gt;Node24</title>
<g id="a_edge31_Node000023_Node000024"><a xlink:title=" ">
<path fill="none" stroke="#63b8ff" d="M410.7,-220.59C429.89,-212.22 458.71,-199.63 480.72,-190.03"/>
<polygon fill="#63b8ff" stroke="#63b8ff" points="482.05,-193.27 489.82,-186.06 479.25,-186.85 482.05,-193.27"/>
</a>
</g>
</g>
<!-- Node25 -->
<g id="Node000025" class="node">
<title>Node25</title>
<g id="a_Node000025"><a xlink:title=" ">
<polygon fill="#e0e0e0" stroke="#999999" points="289.62,-185 244.38,-185 244.38,-165.75 289.62,-165.75 289.62,-185"/>
<text text-anchor="middle" x="267" y="-171.5" font-family="Helvetica,sans-Serif" font-size="10.00">cstring</text>
</a>
</g>
</g>
<!-- Node23&#45;&gt;Node25 -->
<g id="edge32_Node000023_Node000025" class="edge">
<title>Node23&#45;&gt;Node25</title>
<g id="a_edge32_Node000023_Node000025"><a xlink:title=" ">
<path fill="none" stroke="#63b8ff" d="M369.13,-220.59C349.7,-212.18 320.46,-199.52 298.24,-189.9"/>
<polygon fill="#63b8ff" stroke="#63b8ff" points="299.92,-186.81 289.36,-186.05 297.14,-193.24 299.92,-186.81"/>
</a>
</g>
</g>
<!-- Node26 -->
<g id="Node000026" class="node">
<title>Node26</title>
<g id="a_Node000026"><a xlink:title=" ">
<polygon fill="#e0e0e0" stroke="#999999" points="596.25,-185 551.75,-185 551.75,-165.75 596.25,-165.75 596.25,-185"/>
<text text-anchor="middle" x="574" y="-171.5" font-family="Helvetica,sans-Serif" font-size="10.00">cstdlib</text>
</a>
</g>
</g>
<!-- Node23&#45;&gt;Node26 -->
<g id="edge33_Node000023_Node000026" class="edge">
<title>Node23&#45;&gt;Node26</title>
<g id="a_edge33_Node000023_Node000026"><a xlink:title=" ">
<path fill="none" stroke="#63b8ff" d="M421.21,-220.59C454.38,-210.99 506.61,-195.88 540.59,-186.04"/>
<polygon fill="#63b8ff" stroke="#63b8ff" points="541.27,-189.49 549.9,-183.35 539.32,-182.77 541.27,-189.49"/>
</a>
</g>
</g>
<!-- Node23&#45;&gt;Node27 -->
<g id="edge34_Node000023_Node000027" class="edge">
<title>Node23&#45;&gt;Node27</title>
<g id="a_edge34_Node000023_Node000027"><a xlink:title=" ">
<path fill="none" stroke="#63b8ff" d="M422.98,-223.68C463.19,-216.23 533.45,-202.59 602.68,-185.41"/>
<polygon fill="#63b8ff" stroke="#63b8ff" points="603.46,-188.83 612.31,-182.99 601.76,-182.04 603.46,-188.83"/>
</a>
</g>
</g>
<!-- Node28 -->
<g id="Node000028" class="node">
<title>Node28</title>
<g id="a_Node000028"><a xlink:href="_t_transition_8h.html" target="_top" xlink:title=" ">
<polygon fill="white" stroke="#666666" points="472.12,-185 399.88,-185 399.88,-165.75 472.12,-165.75 472.12,-185"/>
<text text-anchor="middle" x="436" y="-171.5" font-family="Helvetica,sans-Serif" font-size="10.00">TTransition.h</text>
</a>
</g>
</g>
<!-- Node23&#45;&gt;Node28 -->
<g id="edge35_Node000023_Node000028" class="edge">
<title>Node23&#45;&gt;Node28</title>
<g id="a_edge35_Node000023_Node000028"><a xlink:title=" ">
<path fill="none" stroke="#63b8ff" d="M397.6,-220.83C403.88,-213.55 413.01,-202.98 420.8,-193.98"/>
<polygon fill="#63b8ff" stroke="#63b8ff" points="423.36,-196.36 427.25,-186.5 418.06,-191.78 423.36,-196.36"/>
</a>
</g>
</g>
<!-- Node30 -->
<g id="Node000030" class="node">
<title>Node30</title>
<g id="a_Node000030"><a xlink:title=" ">
<polygon fill="#e0e0e0" stroke="#999999" points="382.25,-185 307.75,-185 307.75,-165.75 382.25,-165.75 382.25,-185"/>
<text text-anchor="middle" x="345" y="-171.5" font-family="Helvetica,sans-Serif" font-size="10.00">TSortedList.h</text>
</a>
</g>
</g>
<!-- Node23&#45;&gt;Node30 -->
<g id="edge39_Node000023_Node000030" class="edge">
<title>Node23&#45;&gt;Node30</title>
<g id="a_edge39_Node000023_Node000030"><a xlink:title=" ">
<path fill="none" stroke="#63b8ff" d="M382.57,-220.83C376.42,-213.55 367.49,-202.98 359.87,-193.98"/>
<polygon fill="#63b8ff" stroke="#63b8ff" points="362.7,-191.89 353.57,-186.52 357.35,-196.41 362.7,-191.89"/>
</a>
</g>
</g>
<!-- Node28&#45;&gt;Node12 -->
<g id="edge37_Node000028_Node000012" class="edge">
<title>Node28&#45;&gt;Node12</title>
<g id="a_edge37_Node000028_Node000012"><a xlink:title=" ">
<path fill="none" stroke="#63b8ff" d="M434.44,-165.57C429.94,-140.14 416.82,-66.1 410.5,-30.37"/>
<polygon fill="#63b8ff" stroke="#63b8ff" points="414.02,-30.2 408.83,-20.96 407.13,-31.42 414.02,-30.2"/>
</a>
</g>
</g>
<!-- Node29 -->
<g id="Node000029" class="node">
<title>Node29</title>
<g id="a_Node000029"><a xlink:title=" ">
<polygon fill="#e0e0e0" stroke="#999999" points="640.12,-129.75 597.88,-129.75 597.88,-110.5 640.12,-110.5 640.12,-129.75"/>
<text text-anchor="middle" x="619" y="-116.25" font-family="Helvetica,sans-Serif" font-size="10.00">cstdio</text>
</a>
</g>
</g>
<!-- Node28&#45;&gt;Node29 -->
<g id="edge36_Node000028_Node000029" class="edge">
<title>Node28&#45;&gt;Node29</title>
<g id="a_edge36_Node000028_Node000029"><a xlink:title=" ">
<path fill="none" stroke="#63b8ff" d="M467.04,-165.34C500.39,-155.64 553.13,-140.29 586.89,-130.47"/>
<polygon fill="#63b8ff" stroke="#63b8ff" points="587.48,-133.94 596.1,-127.79 585.52,-127.22 587.48,-133.94"/>
</a>
</g>
</g>
<!-- Node32&#45;&gt;Node26 -->
<g id="edge48_Node000032_Node000026" class="edge">
<title>Node32&#45;&gt;Node26</title>
<g id="a_edge48_Node000032_Node000026"><a xlink:title=" ">
<path fill="none" stroke="#63b8ff" d="M969.65,-227.95C906.32,-223.88 748.43,-211.93 607.56,-185.22"/>
<polygon fill="#63b8ff" stroke="#63b8ff" points="608.56,-181.85 598.07,-183.39 607.23,-188.72 608.56,-181.85"/>
</a>
</g>
</g>
<!-- Node32&#45;&gt;Node27 -->
<g id="edge46_Node000032_Node000027" class="edge">
<title>Node32&#45;&gt;Node27</title>
<g id="a_edge46_Node000032_Node000027"><a xlink:title=" ">
<path fill="none" stroke="#63b8ff" d="M969.51,-227.35C913.15,-222.52 783.34,-209.8 665.49,-185.24"/>
<polygon fill="#63b8ff" stroke="#63b8ff" points="666.48,-181.87 655.97,-183.22 665.03,-188.72 666.48,-181.87"/>
</a>
</g>
</g>
<!-- Node32&#45;&gt;Node29 -->
<g id="edge47_Node000032_Node000029" class="edge">
<title>Node32&#45;&gt;Node29</title>
<g id="a_edge47_Node000032_Node000029"><a xlink:title=" ">
<path fill="none" stroke="#63b8ff" d="M969.35,-226.28C926.89,-220.76 845.15,-208.02 779,-185 761.12,-178.78 758.36,-173.29 741,-165.75 711.04,-152.74 675.94,-140.17 651.09,-131.7"/>
<polygon fill="#63b8ff" stroke="#63b8ff" points="652.49,-128.48 641.89,-128.6 650.25,-135.11 652.49,-128.48"/>
</a>
</g>
</g>
<!-- Node32&#45;&gt;Node31 -->
<g id="edge43_Node000032_Node000031" class="edge">
<title>Node32&#45;&gt;Node31</title>
<g id="a_edge43_Node000032_Node000031"><a xlink:title=" ">
<path fill="none" stroke="#63b8ff" d="M1026.39,-223.37C1030.93,-222.5 1035.58,-221.67 1040,-221 1198.84,-196.99 1243.92,-211.52 1405.62,-185.16"/>
<polygon fill="#63b8ff" stroke="#63b8ff" points="1406.17,-188.62 1415.46,-183.52 1405.02,-181.71 1406.17,-188.62"/>
</a>
</g>
</g>
<!-- Node33 -->
<g id="Node000033" class="node">
<title>Node33</title>
<g id="a_Node000033"><a xlink:title=" ">
<polygon fill="#e0e0e0" stroke="#999999" points="837.88,-185 788.12,-185 788.12,-165.75 837.88,-165.75 837.88,-185"/>
<text text-anchor="middle" x="813" y="-171.5" font-family="Helvetica,sans-Serif" font-size="10.00">iomanip</text>
</a>
</g>
</g>
<!-- Node32&#45;&gt;Node33 -->
<g id="edge44_Node000032_Node000033" class="edge">
<title>Node32&#45;&gt;Node33</title>
<g id="a_edge44_Node000032_Node000033"><a xlink:title=" ">
<path fill="none" stroke="#63b8ff" d="M969.5,-221.42C937.12,-212.1 884.23,-196.88 849.02,-186.74"/>
<polygon fill="#63b8ff" stroke="#63b8ff" points="850.29,-183.47 839.72,-184.06 848.36,-190.19 850.29,-183.47"/>
</a>
</g>
</g>
<!-- Node34 -->
<g id="Node000034" class="node">
<title>Node34</title>
<g id="a_Node000034"><a xlink:title=" ">
<polygon fill="#e0e0e0" stroke="#999999" points="914,-185 856,-185 856,-165.75 914,-165.75 914,-185"/>
<text text-anchor="middle" x="885" y="-171.5" font-family="Helvetica,sans-Serif" font-size="10.00">stdexcept</text>
</a>
</g>
</g>
<!-- Node32&#45;&gt;Node34 -->
<g id="edge45_Node000032_Node000034" class="edge">
<title>Node32&#45;&gt;Node34</title>
<g id="a_edge45_Node000032_Node000034"><a xlink:title=" ">
<path fill="none" stroke="#63b8ff" d="M978.83,-220.59C961.22,-212.29 934.84,-199.86 914.54,-190.29"/>
<polygon fill="#63b8ff" stroke="#63b8ff" points="916.17,-187.19 905.63,-186.1 913.19,-193.53 916.17,-187.19"/>
</a>
</g>
</g>
<!-- Node35 -->
<g id="Node000035" class="node">
<title>Node35</title>
<g id="a_Node000035"><a xlink:title=" ">
<polygon fill="#e0e0e0" stroke="#999999" points="991.75,-185 932.25,-185 932.25,-165.75 991.75,-165.75 991.75,-185"/>
<text text-anchor="middle" x="962" y="-171.5" font-family="Helvetica,sans-Serif" font-size="10.00">execinfo.h</text>
</a>
</g>
</g>
<!-- Node32&#45;&gt;Node35 -->
<g id="edge49_Node000032_Node000035" class="edge">
<title>Node32&#45;&gt;Node35</title>
<g id="a_edge49_Node000032_Node000035"><a xlink:title=" ">
<path fill="none" stroke="#63b8ff" d="M992.06,-220.83C987.29,-213.78 980.44,-203.65 974.48,-194.83"/>
<polygon fill="#63b8ff" stroke="#63b8ff" points="977.42,-192.94 968.92,-186.61 971.62,-196.86 977.42,-192.94"/>
</a>
</g>
</g>
<!-- Node36 -->
<g id="Node000036" class="node">
<title>Node36</title>
<g id="a_Node000036"><a xlink:title=" ">
<polygon fill="#e0e0e0" stroke="#999999" points="1060.25,-185 1009.75,-185 1009.75,-165.75 1060.25,-165.75 1060.25,-185"/>
<text text-anchor="middle" x="1035" y="-171.5" font-family="Helvetica,sans-Serif" font-size="10.00">cxxabi.h</text>
</a>
</g>
</g>
<!-- Node32&#45;&gt;Node36 -->
<g id="edge50_Node000032_Node000036" class="edge">
<title>Node32&#45;&gt;Node36</title>
<g id="a_edge50_Node000032_Node000036"><a xlink:title=" ">
<path fill="none" stroke="#63b8ff" d="M1004.11,-220.83C1009.06,-213.71 1016.2,-203.43 1022.37,-194.55"/>
<polygon fill="#63b8ff" stroke="#63b8ff" points="1025.06,-196.81 1027.89,-186.6 1019.31,-192.82 1025.06,-196.81"/>
</a>
</g>
</g>
<!-- Node37 -->
<g id="Node000037" class="node">
<title>Node37</title>
<g id="a_Node000037"><a xlink:title=" ">
<polygon fill="#e0e0e0" stroke="#999999" points="1129.62,-185 1078.38,-185 1078.38,-165.75 1129.62,-165.75 1129.62,-185"/>
<text text-anchor="middle" x="1104" y="-171.5" font-family="Helvetica,sans-Serif" font-size="10.00">sstream</text>
</a>
</g>
</g>
<!-- Node32&#45;&gt;Node37 -->
<g id="edge51_Node000032_Node000037" class="edge">
<title>Node32&#45;&gt;Node37</title>
<g id="a_edge51_Node000032_Node000037"><a xlink:title=" ">
<path fill="none" stroke="#63b8ff" d="M1015.98,-220.59C1032.35,-212.37 1056.79,-200.09 1075.76,-190.56"/>
<polygon fill="#63b8ff" stroke="#63b8ff" points="1077.21,-193.75 1084.58,-186.13 1074.07,-187.49 1077.21,-193.75"/>
</a>
</g>
</g>
<!-- Node38 -->
<g id="Node000038" class="node">
<title>Node38</title>
<g id="a_Node000038"><a xlink:title=" ">
<polygon fill="#e0e0e0" stroke="#999999" points="1184.5,-185 1147.5,-185 1147.5,-165.75 1184.5,-165.75 1184.5,-185"/>
<text text-anchor="middle" x="1166" y="-171.5" font-family="Helvetica,sans-Serif" font-size="10.00">array</text>
</a>
</g>
</g>
<!-- Node32&#45;&gt;Node38 -->
<g id="edge52_Node000032_Node000038" class="edge">
<title>Node32&#45;&gt;Node38</title>
<g id="a_edge52_Node000032_Node000038"><a xlink:title=" ">
<path fill="none" stroke="#63b8ff" d="M1026.63,-220.59C1052.95,-212.27 1093.34,-199.51 1136.42,-185.82"/>
<polygon fill="#63b8ff" stroke="#63b8ff" points="1137.21,-189.24 1145.68,-182.87 1135.09,-182.57 1137.21,-189.24"/>
</a>
</g>
</g>
<!-- Node39 -->
<g id="Node000039" class="node">
<title>Node39</title>
<g id="a_Node000039"><a xlink:title=" ">
<polygon fill="#e0e0e0" stroke="#999999" points="1253.25,-185 1202.75,-185 1202.75,-165.75 1253.25,-165.75 1253.25,-185"/>
<text text-anchor="middle" x="1228" y="-171.5" font-family="Helvetica,sans-Serif" font-size="10.00">memory</text>
</a>
</g>
</g>
<!-- Node32&#45;&gt;Node39 -->
<g id="edge53_Node000032_Node000039" class="edge">
<title>Node32&#45;&gt;Node39</title>
<g id="a_edge53_Node000032_Node000039"><a xlink:title=" ">
<path fill="none" stroke="#63b8ff" d="M1026.62,-223.34C1062.74,-215.36 1127.08,-200.97 1191.27,-185.62"/>
<polygon fill="#63b8ff" stroke="#63b8ff" points="1192.02,-189.03 1200.93,-183.3 1190.38,-182.23 1192.02,-189.03"/>
</a>
</g>
</g>
<!-- Node40 -->
<g id="Node000040" class="node">
<title>Node40</title>
<g id="a_Node000040"><a xlink:title=" ">
<polygon fill="#e0e0e0" stroke="#999999" points="1320.88,-185 1271.12,-185 1271.12,-165.75 1320.88,-165.75 1320.88,-185"/>
<text text-anchor="middle" x="1296" y="-171.5" font-family="Helvetica,sans-Serif" font-size="10.00">unistd.h</text>
</a>
</g>
</g>
<!-- Node32&#45;&gt;Node40 -->
<g id="edge54_Node000032_Node000040" class="edge">
<title>Node32&#45;&gt;Node40</title>
<g id="a_edge54_Node000032_Node000040"><a xlink:title=" ">
<path fill="none" stroke="#63b8ff" d="M1026.44,-223.62C1030.97,-222.71 1035.61,-221.81 1040,-221 1134.76,-203.6 1162.17,-205.16 1259.55,-185.35"/>
<polygon fill="#63b8ff" stroke="#63b8ff" points="1260.24,-188.78 1269.32,-183.33 1258.82,-181.93 1260.24,-188.78"/>
</a>
</g>
</g>
<!-- Node41 -->
<g id="Node000041" class="node">
<title>Node41</title>
<g id="a_Node000041"><a xlink:title=" ">
<polygon fill="#e0e0e0" stroke="#999999" points="1398.75,-185 1339.25,-185 1339.25,-165.75 1398.75,-165.75 1398.75,-185"/>
<text text-anchor="middle" x="1369" y="-171.5" font-family="Helvetica,sans-Serif" font-size="10.00">sys/wait.h</text>
</a>
</g>
</g>
<!-- Node32&#45;&gt;Node41 -->
<g id="edge55_Node000032_Node000041" class="edge">
<title>Node32&#45;&gt;Node41</title>
<g id="a_edge55_Node000032_Node000041"><a xlink:title=" ">
<path fill="none" stroke="#63b8ff" d="M1026.41,-223.47C1030.94,-222.58 1035.59,-221.72 1040,-221 1164.65,-200.5 1200.09,-206.68 1327.83,-185.22"/>
<polygon fill="#63b8ff" stroke="#63b8ff" points="1328.06,-188.73 1337.33,-183.6 1326.88,-181.83 1328.06,-188.73"/>
</a>
</g>
</g>
<!-- Node42 -->
<g id="Node000042" class="node">
<title>Node42</title>
<g id="a_Node000042"><a xlink:title=" ">
<polygon fill="#e0e0e0" stroke="#999999" points="732.12,-185 671.88,-185 671.88,-165.75 732.12,-165.75 732.12,-185"/>
<text text-anchor="middle" x="702" y="-171.5" font-family="Helvetica,sans-Serif" font-size="10.00">sys/prctl.h</text>
</a>
</g>
</g>
<!-- Node32&#45;&gt;Node42 -->
<g id="edge56_Node000032_Node000042" class="edge">
<title>Node32&#45;&gt;Node42</title>
<g id="a_edge56_Node000032_Node000042"><a xlink:title=" ">
<path fill="none" stroke="#63b8ff" d="M969.63,-224.77C922.94,-216.75 827.02,-200.11 746,-185 745.17,-184.84 744.33,-184.69 743.48,-184.53"/>
<polygon fill="#63b8ff" stroke="#63b8ff" points="744.25,-181.11 733.77,-182.67 742.93,-187.99 744.25,-181.11"/>
</a>
</g>
</g>
</g>
</svg>

<g id="navigator" transform="translate(0 0)" fill="#404254">
  <rect fill="#f2f5e9" fill-opacity="0.5" stroke="#606060" stroke-width=".5" x="0" y="0" width="60" height="60"/>
  <use id="zoomplus" xlink:href="#zoomPlus" x="17" y="9" onmousedown="handleZoom(evt,'in')"/>
  <use id="zoomminus" xlink:href="#zoomMin" x="42" y="9" onmousedown="handleZoom(evt,'out')"/>
  <use id="reset" xlink:href="#resetDef" x="30" y="36" onmousedown="handleReset()"/>
   <use id="arrowup" xlink:href="#arrowUp" x="0" y="0" onmousedown="handlePan(0,-1)"/>
  <use id="arrowright" xlink:href="#arrowRight" x="0" y="0" onmousedown="handlePan(1,0)"/>
  <use id="arrowdown" xlink:href="#arrowDown" x="0" y="0" onmousedown="handlePan(0,1)"/>
  <use id="arrowleft" xlink:href="#arrowLeft" x="0" y="0" onmousedown="handlePan(-1,0)"/>
</g>
<svg viewBox="0 0 15 15" width="100%" height="30px" preserveAspectRatio="xMaxYMin meet">
 <g id="arrow_out" transform="scale(0.3 0.3)">
  <a xlink:href="_t_efficiency_calibration_8cxx__incl_org.svg" target="_base">
   <rect id="button" ry="5" rx="5" y="6" x="6" height="38" width="38"
        fill="#f2f5e9" fill-opacity="0.5" stroke="#606060" stroke-width="1.0"/>
   <path id="arrow"
     d="M 11.500037,31.436501 C 11.940474,20.09759 22.043105,11.32322 32.158766,21.979434 L 37.068811,17.246167 C 37.068811,17.246167 37.088388,32 37.088388,32 L 22.160133,31.978069 C 22.160133,31.978069 26.997745,27.140456 26.997745,27.140456 C 18.528582,18.264221 13.291696,25.230495 11.500037,31.436501 z"
     style="fill:#404040;"/>
  </a>
 </g>
</svg>

<style type='text/css'>
<![CDATA[
[data-mouse-over-selected='false'] { opacity: 0.7; }
[data-mouse-over-selected='true']  { opacity: 1.0; }
]]>
</style>
<script type="application/ecmascript"><![CDATA[
document.addEventListener('DOMContentLoaded', (event) => {
  highlightEdges();
  highlightAdjacentNodes();
});
]]></script>
</svg>
