<?xml version="1.0" encoding="UTF-8" standalone="no"?>
<!DOCTYPE svg PUBLIC "-//W3C//DTD SVG 1.1//EN"
 "http://www.w3.org/Graphics/SVG/1.1/DTD/svg11.dtd">
<!-- Generated by graphviz version 12.2.0 (20241103.1931)
 -->
<!-- Title: TEfficiencyGraph.cxx Pages: 1 -->
<svg width="1495pt" height="469pt"
 viewBox="0.00 0.00 1495.35 469.25" xmlns="http://www.w3.org/2000/svg" xmlns:xlink="http://www.w3.org/1999/xlink">
<g id="graph0" class="graph" transform="scale(1 1) rotate(0) translate(4 465.25)">
<title>TEfficiencyGraph.cxx</title>
<!-- Node1 -->
<g id="Node000001" class="node">
<title>Node1</title>
<g id="a_Node000001"><a xlink:title=" ">
<polygon fill="#999999" stroke="#666666" points="767.85,-461.25 662.6,-461.25 662.6,-442 767.85,-442 767.85,-461.25"/>
<text text-anchor="middle" x="715.23" y="-447.75" font-family="Helvetica,sans-Serif" font-size="10.00">TEfficiencyGraph.cxx</text>
</a>
</g>
</g>
<!-- Node2 -->
<g id="Node000002" class="node">
<title>Node2</title>
<g id="a_Node000002"><a xlink:href="_t_efficiency_graph_8h.html" target="_top" xlink:title=" ">
<polygon fill="white" stroke="#666666" points="470.35,-406 374.1,-406 374.1,-386.75 470.35,-386.75 470.35,-406"/>
<text text-anchor="middle" x="422.23" y="-392.5" font-family="Helvetica,sans-Serif" font-size="10.00">TEfficiencyGraph.h</text>
</a>
</g>
</g>
<!-- Node1&#45;&gt;Node2 -->
<g id="edge1_Node000001_Node000002" class="edge">
<title>Node1&#45;&gt;Node2</title>
<g id="a_edge1_Node000001_Node000002"><a xlink:title=" ">
<path fill="none" stroke="#63b8ff" d="M665.19,-441.53C614.38,-432.3 535.69,-418 481.72,-408.19"/>
<polygon fill="#63b8ff" stroke="#63b8ff" points="482.55,-404.78 472.08,-406.44 481.3,-411.67 482.55,-404.78"/>
</a>
</g>
</g>
<!-- Node29 -->
<g id="Node000029" class="node">
<title>Node29</title>
<g id="a_Node000029"><a xlink:title=" ">
<polygon fill="#e0e0e0" stroke="#999999" points="741.98,-185 688.48,-185 688.48,-165.75 741.98,-165.75 741.98,-185"/>
<text text-anchor="middle" x="715.23" y="-171.5" font-family="Helvetica,sans-Serif" font-size="10.00">iostream</text>
</a>
</g>
</g>
<!-- Node1&#45;&gt;Node29 -->
<g id="edge36_Node000001_Node000029" class="edge">
<title>Node1&#45;&gt;Node29</title>
<g id="a_edge36_Node000001_Node000029"><a xlink:title=" ">
<path fill="none" stroke="#63b8ff" d="M715.23,-441.62C715.23,-423.03 715.23,-379.05 715.23,-342.12 715.23,-342.12 715.23,-342.12 715.23,-284.88 715.23,-254.16 715.23,-218.55 715.23,-196.74"/>
<polygon fill="#63b8ff" stroke="#63b8ff" points="718.73,-196.89 715.23,-186.89 711.73,-196.89 718.73,-196.89"/>
</a>
</g>
</g>
<!-- Node30 -->
<g id="Node000030" class="node">
<title>Node30</title>
<g id="a_Node000030"><a xlink:href="_globals_8h.html" target="_top" xlink:title=" ">
<polygon fill="white" stroke="#666666" points="1000.48,-240.25 943.98,-240.25 943.98,-221 1000.48,-221 1000.48,-240.25"/>
<text text-anchor="middle" x="972.23" y="-226.75" font-family="Helvetica,sans-Serif" font-size="10.00">Globals.h</text>
</a>
</g>
</g>
<!-- Node1&#45;&gt;Node30 -->
<g id="edge37_Node000001_Node000030" class="edge">
<title>Node1&#45;&gt;Node30</title>
<g id="a_edge37_Node000001_Node000030"><a xlink:title=" ">
<path fill="none" stroke="#63b8ff" d="M725.62,-441.77C764.52,-408.62 901.94,-291.52 952.96,-248.04"/>
<polygon fill="#63b8ff" stroke="#63b8ff" points="955.21,-250.72 960.55,-241.57 950.67,-245.4 955.21,-250.72"/>
</a>
</g>
</g>
<!-- Node3 -->
<g id="Node000003" class="node">
<title>Node3</title>
<g id="a_Node000003"><a xlink:href="_t_cal_graph_8h.html" target="_top" xlink:title=" ">
<polygon fill="white" stroke="#666666" points="220.23,-350.75 150.23,-350.75 150.23,-331.5 220.23,-331.5 220.23,-350.75"/>
<text text-anchor="middle" x="185.23" y="-337.25" font-family="Helvetica,sans-Serif" font-size="10.00">TCalGraph.h</text>
</a>
</g>
</g>
<!-- Node2&#45;&gt;Node3 -->
<g id="edge2_Node000002_Node000003" class="edge">
<title>Node2&#45;&gt;Node3</title>
<g id="a_edge2_Node000002_Node000003"><a xlink:title=" ">
<path fill="none" stroke="#63b8ff" d="M381.75,-386.28C340.13,-376.93 275.37,-362.38 231.68,-352.56"/>
<polygon fill="#63b8ff" stroke="#63b8ff" points="232.5,-349.16 221.98,-350.38 230.97,-355.99 232.5,-349.16"/>
</a>
</g>
</g>
<!-- Node4 -->
<g id="Node000004" class="node">
<title>Node4</title>
<g id="a_Node000004"><a xlink:title=" ">
<polygon fill="#e0e0e0" stroke="#999999" points="58.6,-185 23.85,-185 23.85,-165.75 58.6,-165.75 58.6,-185"/>
<text text-anchor="middle" x="41.23" y="-171.5" font-family="Helvetica,sans-Serif" font-size="10.00">map</text>
</a>
</g>
</g>
<!-- Node3&#45;&gt;Node4 -->
<g id="edge3_Node000003_Node000004" class="edge">
<title>Node3&#45;&gt;Node4</title>
<g id="a_edge3_Node000003_Node000004"><a xlink:title=" ">
<path fill="none" stroke="#63b8ff" d="M149.99,-336.21C103.96,-330.28 27.2,-317.35 10.23,-295.5 -13.05,-265.54 10.87,-219.84 27.71,-194.64"/>
<polygon fill="#63b8ff" stroke="#63b8ff" points="30.39,-196.93 33.26,-186.73 24.66,-192.91 30.39,-196.93"/>
</a>
</g>
</g>
<!-- Node5 -->
<g id="Node000005" class="node">
<title>Node5</title>
<g id="a_Node000005"><a xlink:title=" ">
<polygon fill="#e0e0e0" stroke="#999999" points="57.48,-295.5 18.98,-295.5 18.98,-276.25 57.48,-276.25 57.48,-295.5"/>
<text text-anchor="middle" x="38.23" y="-282" font-family="Helvetica,sans-Serif" font-size="10.00">utility</text>
</a>
</g>
</g>
<!-- Node3&#45;&gt;Node5 -->
<g id="edge4_Node000003_Node000005" class="edge">
<title>Node3&#45;&gt;Node5</title>
<g id="a_edge4_Node000003_Node000005"><a xlink:title=" ">
<path fill="none" stroke="#63b8ff" d="M160.29,-331.09C134.92,-321.9 95.57,-307.65 68.44,-297.82"/>
<polygon fill="#63b8ff" stroke="#63b8ff" points="69.66,-294.54 59.06,-294.42 67.27,-301.12 69.66,-294.54"/>
</a>
</g>
</g>
<!-- Node6 -->
<g id="Node000006" class="node">
<title>Node6</title>
<g id="a_Node000006"><a xlink:title=" ">
<polygon fill="#e0e0e0" stroke="#999999" points="156.85,-295.5 75.6,-295.5 75.6,-276.25 156.85,-276.25 156.85,-295.5"/>
<text text-anchor="middle" x="116.23" y="-282" font-family="Helvetica,sans-Serif" font-size="10.00">TGraphErrors.h</text>
</a>
</g>
</g>
<!-- Node3&#45;&gt;Node6 -->
<g id="edge5_Node000003_Node000006" class="edge">
<title>Node3&#45;&gt;Node6</title>
<g id="a_edge5_Node000003_Node000006"><a xlink:title=" ">
<path fill="none" stroke="#63b8ff" d="M173.52,-331.09C163.45,-323.32 148.68,-311.92 136.66,-302.65"/>
<polygon fill="#63b8ff" stroke="#63b8ff" points="139.01,-300.04 128.96,-296.7 134.73,-305.58 139.01,-300.04"/>
</a>
</g>
</g>
<!-- Node7 -->
<g id="Node000007" class="node">
<title>Node7</title>
<g id="a_Node000007"><a xlink:href="_t_cal_point_8h.html" target="_top" xlink:title=" ">
<polygon fill="white" stroke="#666666" points="163.35,-185 97.1,-185 97.1,-165.75 163.35,-165.75 163.35,-185"/>
<text text-anchor="middle" x="130.23" y="-171.5" font-family="Helvetica,sans-Serif" font-size="10.00">TCalPoint.h</text>
</a>
</g>
</g>
<!-- Node3&#45;&gt;Node7 -->
<g id="edge6_Node000003_Node000007" class="edge">
<title>Node3&#45;&gt;Node7</title>
<g id="a_edge6_Node000003_Node000007"><a xlink:title=" ">
<path fill="none" stroke="#63b8ff" d="M182.8,-331.4C179.33,-319.05 172.66,-295.81 166.23,-276.25 156.98,-248.13 145.17,-215.99 137.65,-195.94"/>
<polygon fill="#63b8ff" stroke="#63b8ff" points="141.01,-194.94 134.21,-186.82 134.46,-197.41 141.01,-194.94"/>
</a>
</g>
</g>
<!-- Node18 -->
<g id="Node000018" class="node">
<title>Node18</title>
<g id="a_Node000018"><a xlink:href="_t_cal_list_8h.html" target="_top" xlink:title=" ">
<polygon fill="white" stroke="#666666" points="263.35,-240.25 203.1,-240.25 203.1,-221 263.35,-221 263.35,-240.25"/>
<text text-anchor="middle" x="233.23" y="-226.75" font-family="Helvetica,sans-Serif" font-size="10.00">TCalList.h</text>
</a>
</g>
</g>
<!-- Node3&#45;&gt;Node18 -->
<g id="edge19_Node000003_Node000018" class="edge">
<title>Node3&#45;&gt;Node18</title>
<g id="a_edge19_Node000003_Node000018"><a xlink:title=" ">
<path fill="none" stroke="#63b8ff" d="M189.15,-331.25C196.89,-313.76 214.25,-274.52 224.73,-250.84"/>
<polygon fill="#63b8ff" stroke="#63b8ff" points="227.79,-252.57 228.63,-242.01 221.38,-249.74 227.79,-252.57"/>
</a>
</g>
</g>
<!-- Node20 -->
<g id="Node000020" class="node">
<title>Node20</title>
<g id="a_Node000020"><a xlink:href="_t_source_list_8h.html" target="_top" xlink:title=" ">
<polygon fill="white" stroke="#666666" points="377.6,-295.5 300.85,-295.5 300.85,-276.25 377.6,-276.25 377.6,-295.5"/>
<text text-anchor="middle" x="339.23" y="-282" font-family="Helvetica,sans-Serif" font-size="10.00">TSourceList.h</text>
</a>
</g>
</g>
<!-- Node3&#45;&gt;Node20 -->
<g id="edge23_Node000003_Node000020" class="edge">
<title>Node3&#45;&gt;Node20</title>
<g id="a_edge23_Node000003_Node000020"><a xlink:title=" ">
<path fill="none" stroke="#63b8ff" d="M211.35,-331.09C236.35,-322.45 274.3,-309.32 302.37,-299.62"/>
<polygon fill="#63b8ff" stroke="#63b8ff" points="303.24,-303.02 311.54,-296.45 300.95,-296.41 303.24,-303.02"/>
</a>
</g>
</g>
<!-- Node8 -->
<g id="Node000008" class="node">
<title>Node8</title>
<g id="a_Node000008"><a xlink:title=" ">
<polygon fill="#e0e0e0" stroke="#999999" points="253.23,-19.25 195.23,-19.25 195.23,0 253.23,0 253.23,-19.25"/>
<text text-anchor="middle" x="224.23" y="-5.75" font-family="Helvetica,sans-Serif" font-size="10.00">TObject.h</text>
</a>
</g>
</g>
<!-- Node7&#45;&gt;Node8 -->
<g id="edge7_Node000007_Node000008" class="edge">
<title>Node7&#45;&gt;Node8</title>
<g id="a_edge7_Node000007_Node000008"><a xlink:title=" ">
<path fill="none" stroke="#63b8ff" d="M132.58,-165.41C138.27,-144.74 154.22,-92.6 179.23,-55.25 186.22,-44.8 195.94,-34.79 204.56,-26.9"/>
<polygon fill="#63b8ff" stroke="#63b8ff" points="206.62,-29.75 211.84,-20.52 202.01,-24.48 206.62,-29.75"/>
</a>
</g>
</g>
<!-- Node9 -->
<g id="Node000009" class="node">
<title>Node9</title>
<g id="a_Node000009"><a xlink:href="_t_peak_8h.html" target="_top" xlink:title=" ">
<polygon fill="white" stroke="#666666" points="256.23,-129.75 204.23,-129.75 204.23,-110.5 256.23,-110.5 256.23,-129.75"/>
<text text-anchor="middle" x="230.23" y="-116.25" font-family="Helvetica,sans-Serif" font-size="10.00">TPeak.h</text>
</a>
</g>
</g>
<!-- Node7&#45;&gt;Node9 -->
<g id="edge8_Node000007_Node000009" class="edge">
<title>Node7&#45;&gt;Node9</title>
<g id="a_edge8_Node000007_Node000009"><a xlink:title=" ">
<path fill="none" stroke="#63b8ff" d="M147.19,-165.34C162.49,-157.19 185.26,-145.07 203.09,-135.58"/>
<polygon fill="#63b8ff" stroke="#63b8ff" points="204.66,-138.7 211.84,-130.91 201.37,-132.52 204.66,-138.7"/>
</a>
</g>
</g>
<!-- Node10 -->
<g id="Node000010" class="node">
<title>Node10</title>
<g id="a_Node000010"><a xlink:title=" ">
<polygon fill="#e0e0e0" stroke="#999999" points="311.6,-19.25 270.85,-19.25 270.85,0 311.6,0 311.6,-19.25"/>
<text text-anchor="middle" x="291.23" y="-5.75" font-family="Helvetica,sans-Serif" font-size="10.00">TF1.h</text>
</a>
</g>
</g>
<!-- Node9&#45;&gt;Node10 -->
<g id="edge9_Node000009_Node000010" class="edge">
<title>Node9&#45;&gt;Node10</title>
<g id="a_edge9_Node000009_Node000010"><a xlink:title=" ">
<path fill="none" stroke="#63b8ff" d="M216.46,-110.07C199.46,-97.72 174.28,-74.89 187.23,-55.25 191.54,-48.7 230.9,-32.97 259.93,-22.06"/>
<polygon fill="#63b8ff" stroke="#63b8ff" points="260.89,-25.43 269.04,-18.67 258.44,-18.87 260.89,-25.43"/>
</a>
</g>
</g>
<!-- Node11 -->
<g id="Node000011" class="node">
<title>Node11</title>
<g id="a_Node000011"><a xlink:title=" ">
<polygon fill="#e0e0e0" stroke="#999999" points="264.48,-74.5 195.98,-74.5 195.98,-55.25 264.48,-55.25 264.48,-74.5"/>
<text text-anchor="middle" x="230.23" y="-61" font-family="Helvetica,sans-Serif" font-size="10.00">TFitResult.h</text>
</a>
</g>
</g>
<!-- Node9&#45;&gt;Node11 -->
<g id="edge10_Node000009_Node000011" class="edge">
<title>Node9&#45;&gt;Node11</title>
<g id="a_edge10_Node000009_Node000011"><a xlink:title=" ">
<path fill="none" stroke="#63b8ff" d="M230.23,-110.33C230.23,-103.82 230.23,-94.67 230.23,-86.37"/>
<polygon fill="#63b8ff" stroke="#63b8ff" points="233.73,-86.37 230.23,-76.37 226.73,-86.37 233.73,-86.37"/>
</a>
</g>
</g>
<!-- Node12 -->
<g id="Node000012" class="node">
<title>Node12</title>
<g id="a_Node000012"><a xlink:title=" ">
<polygon fill="#e0e0e0" stroke="#999999" points="338.1,-74.5 282.35,-74.5 282.35,-55.25 338.1,-55.25 338.1,-74.5"/>
<text text-anchor="middle" x="310.23" y="-61" font-family="Helvetica,sans-Serif" font-size="10.00">TGraph.h</text>
</a>
</g>
</g>
<!-- Node9&#45;&gt;Node12 -->
<g id="edge11_Node000009_Node000012" class="edge">
<title>Node9&#45;&gt;Node12</title>
<g id="a_edge11_Node000009_Node000012"><a xlink:title=" ">
<path fill="none" stroke="#63b8ff" d="M243.8,-110.09C255.63,-102.21 273.06,-90.61 287.1,-81.27"/>
<polygon fill="#63b8ff" stroke="#63b8ff" points="288.94,-84.25 295.33,-75.79 285.06,-78.42 288.94,-84.25"/>
</a>
</g>
</g>
<!-- Node13 -->
<g id="Node000013" class="node">
<title>Node13</title>
<g id="a_Node000013"><a xlink:href="_t_g_r_s_i_fit_8h.html" target="_top" xlink:title=" ">
<polygon fill="white" stroke="#666666" points="458.6,-74.5 393.85,-74.5 393.85,-55.25 458.6,-55.25 458.6,-74.5"/>
<text text-anchor="middle" x="426.23" y="-61" font-family="Helvetica,sans-Serif" font-size="10.00">TGRSIFit.h</text>
</a>
</g>
</g>
<!-- Node9&#45;&gt;Node13 -->
<g id="edge12_Node000009_Node000013" class="edge">
<title>Node9&#45;&gt;Node13</title>
<g id="a_edge12_Node000009_Node000013"><a xlink:title=" ">
<path fill="none" stroke="#63b8ff" d="M256.66,-111.94C288.9,-103.18 343.86,-88.25 382.45,-77.77"/>
<polygon fill="#63b8ff" stroke="#63b8ff" points="383.17,-81.2 391.9,-75.2 381.33,-74.44 383.17,-81.2"/>
</a>
</g>
</g>
<!-- Node13&#45;&gt;Node8 -->
<g id="edge13_Node000013_Node000008" class="edge">
<title>Node13&#45;&gt;Node8</title>
<g id="a_edge13_Node000013_Node000008"><a xlink:title=" ">
<path fill="none" stroke="#63b8ff" d="M393.77,-55.32C358.55,-46.03 302.27,-31.2 264.31,-21.19"/>
<polygon fill="#63b8ff" stroke="#63b8ff" points="265.67,-17.93 255.11,-18.77 263.88,-24.7 265.67,-17.93"/>
</a>
</g>
</g>
<!-- Node13&#45;&gt;Node10 -->
<g id="edge15_Node000013_Node000010" class="edge">
<title>Node13&#45;&gt;Node10</title>
<g id="a_edge15_Node000013_Node000010"><a xlink:title=" ">
<path fill="none" stroke="#63b8ff" d="M403.32,-54.84C381.14,-46.09 347.34,-32.76 322.65,-23.02"/>
<polygon fill="#63b8ff" stroke="#63b8ff" points="324.01,-19.8 313.43,-19.38 321.44,-26.31 324.01,-19.8"/>
</a>
</g>
</g>
<!-- Node14 -->
<g id="Node000014" class="node">
<title>Node14</title>
<g id="a_Node000014"><a xlink:title=" ">
<polygon fill="#e0e0e0" stroke="#999999" points="372.35,-19.25 330.1,-19.25 330.1,0 372.35,0 372.35,-19.25"/>
<text text-anchor="middle" x="351.23" y="-5.75" font-family="Helvetica,sans-Serif" font-size="10.00">TH1.h</text>
</a>
</g>
</g>
<!-- Node13&#45;&gt;Node14 -->
<g id="edge14_Node000013_Node000014" class="edge">
<title>Node13&#45;&gt;Node14</title>
<g id="a_edge14_Node000013_Node000014"><a xlink:title=" ">
<path fill="none" stroke="#63b8ff" d="M413.5,-54.84C402.51,-47.04 386.38,-35.59 373.29,-26.29"/>
<polygon fill="#63b8ff" stroke="#63b8ff" points="375.42,-23.51 365.24,-20.58 371.37,-29.22 375.42,-23.51"/>
</a>
</g>
</g>
<!-- Node15 -->
<g id="Node000015" class="node">
<title>Node15</title>
<g id="a_Node000015"><a xlink:title=" ">
<polygon fill="#e0e0e0" stroke="#999999" points="461.98,-19.25 390.48,-19.25 390.48,0 461.98,0 461.98,-19.25"/>
<text text-anchor="middle" x="426.23" y="-5.75" font-family="Helvetica,sans-Serif" font-size="10.00">TSpectrum.h</text>
</a>
</g>
</g>
<!-- Node13&#45;&gt;Node15 -->
<g id="edge16_Node000013_Node000015" class="edge">
<title>Node13&#45;&gt;Node15</title>
<g id="a_edge16_Node000013_Node000015"><a xlink:title=" ">
<path fill="none" stroke="#63b8ff" d="M426.23,-55.08C426.23,-48.57 426.23,-39.42 426.23,-31.12"/>
<polygon fill="#63b8ff" stroke="#63b8ff" points="429.73,-31.12 426.23,-21.12 422.73,-31.12 429.73,-31.12"/>
</a>
</g>
</g>
<!-- Node16 -->
<g id="Node000016" class="node">
<title>Node16</title>
<g id="a_Node000016"><a xlink:title=" ">
<polygon fill="#e0e0e0" stroke="#999999" points="524.48,-19.25 479.98,-19.25 479.98,0 524.48,0 524.48,-19.25"/>
<text text-anchor="middle" x="502.23" y="-5.75" font-family="Helvetica,sans-Serif" font-size="10.00">TRef.h</text>
</a>
</g>
</g>
<!-- Node13&#45;&gt;Node16 -->
<g id="edge17_Node000013_Node000016" class="edge">
<title>Node13&#45;&gt;Node16</title>
<g id="a_edge17_Node000013_Node000016"><a xlink:title=" ">
<path fill="none" stroke="#63b8ff" d="M439.12,-54.84C450.25,-47.04 466.6,-35.59 479.86,-26.29"/>
<polygon fill="#63b8ff" stroke="#63b8ff" points="481.85,-29.18 488.03,-20.57 477.83,-23.44 481.85,-29.18"/>
</a>
</g>
</g>
<!-- Node17 -->
<g id="Node000017" class="node">
<title>Node17</title>
<g id="a_Node000017"><a xlink:title=" ">
<polygon fill="#e0e0e0" stroke="#999999" points="597.73,-19.25 542.73,-19.25 542.73,0 597.73,0 597.73,-19.25"/>
<text text-anchor="middle" x="570.23" y="-5.75" font-family="Helvetica,sans-Serif" font-size="10.00">TString.h</text>
</a>
</g>
</g>
<!-- Node13&#45;&gt;Node17 -->
<g id="edge18_Node000013_Node000017" class="edge">
<title>Node13&#45;&gt;Node17</title>
<g id="a_edge18_Node000013_Node000017"><a xlink:title=" ">
<path fill="none" stroke="#63b8ff" d="M450.65,-54.84C473.82,-46.27 508.89,-33.31 535.06,-23.63"/>
<polygon fill="#63b8ff" stroke="#63b8ff" points="536.09,-26.98 544.26,-20.23 533.66,-20.41 536.09,-26.98"/>
</a>
</g>
</g>
<!-- Node18&#45;&gt;Node4 -->
<g id="edge22_Node000018_Node000004" class="edge">
<title>Node18&#45;&gt;Node4</title>
<g id="a_edge22_Node000018_Node000004"><a xlink:title=" ">
<path fill="none" stroke="#63b8ff" d="M202.8,-221.19C166.32,-211.07 105.64,-194.24 69.94,-184.34"/>
<polygon fill="#63b8ff" stroke="#63b8ff" points="70.89,-180.97 60.32,-181.67 69.02,-187.72 70.89,-180.97"/>
</a>
</g>
</g>
<!-- Node18&#45;&gt;Node7 -->
<g id="edge21_Node000018_Node000007" class="edge">
<title>Node18&#45;&gt;Node7</title>
<g id="a_edge21_Node000018_Node000007"><a xlink:title=" ">
<path fill="none" stroke="#63b8ff" d="M215.75,-220.59C199.92,-212.41 176.32,-200.21 157.92,-190.69"/>
<polygon fill="#63b8ff" stroke="#63b8ff" points="159.62,-187.63 149.13,-186.15 156.4,-193.85 159.62,-187.63"/>
</a>
</g>
</g>
<!-- Node19 -->
<g id="Node000019" class="node">
<title>Node19</title>
<g id="a_Node000019"><a xlink:title=" ">
<polygon fill="#e0e0e0" stroke="#999999" points="242.73,-185 181.73,-185 181.73,-165.75 242.73,-165.75 242.73,-185"/>
<text text-anchor="middle" x="212.23" y="-171.5" font-family="Helvetica,sans-Serif" font-size="10.00">TNamed.h</text>
</a>
</g>
</g>
<!-- Node18&#45;&gt;Node19 -->
<g id="edge20_Node000018_Node000019" class="edge">
<title>Node18&#45;&gt;Node19</title>
<g id="a_edge20_Node000018_Node000019"><a xlink:title=" ">
<path fill="none" stroke="#63b8ff" d="M229.76,-220.83C227.1,-214.09 223.33,-204.52 219.96,-195.99"/>
<polygon fill="#63b8ff" stroke="#63b8ff" points="223.25,-194.79 216.32,-186.77 216.74,-197.35 223.25,-194.79"/>
</a>
</g>
</g>
<!-- Node20&#45;&gt;Node18 -->
<g id="edge24_Node000020_Node000018" class="edge">
<title>Node20&#45;&gt;Node18</title>
<g id="a_edge24_Node000020_Node000018"><a xlink:title=" ">
<path fill="none" stroke="#63b8ff" d="M321.24,-275.84C304.87,-267.62 280.44,-255.34 261.46,-245.81"/>
<polygon fill="#63b8ff" stroke="#63b8ff" points="263.15,-242.74 252.65,-241.38 260.01,-249 263.15,-242.74"/>
</a>
</g>
</g>
<!-- Node21 -->
<g id="Node000021" class="node">
<title>Node21</title>
<g id="a_Node000021"><a xlink:href="_t_nucleus_8h.html" target="_top" xlink:title=" ">
<polygon fill="white" stroke="#666666" points="415.98,-240.25 350.48,-240.25 350.48,-221 415.98,-221 415.98,-240.25"/>
<text text-anchor="middle" x="383.23" y="-226.75" font-family="Helvetica,sans-Serif" font-size="10.00">TNucleus.h</text>
</a>
</g>
</g>
<!-- Node20&#45;&gt;Node21 -->
<g id="edge25_Node000020_Node000021" class="edge">
<title>Node20&#45;&gt;Node21</title>
<g id="a_edge25_Node000020_Node000021"><a xlink:title=" ">
<path fill="none" stroke="#63b8ff" d="M346.49,-276.08C352.51,-268.8 361.24,-258.23 368.68,-249.23"/>
<polygon fill="#63b8ff" stroke="#63b8ff" points="371.17,-251.71 374.84,-241.78 365.77,-247.26 371.17,-251.71"/>
</a>
</g>
</g>
<!-- Node25 -->
<g id="Node000025" class="node">
<title>Node25</title>
<g id="a_Node000025"><a xlink:title=" ">
<polygon fill="#e0e0e0" stroke="#999999" points="670.23,-185 630.23,-185 630.23,-165.75 670.23,-165.75 670.23,-185"/>
<text text-anchor="middle" x="650.23" y="-171.5" font-family="Helvetica,sans-Serif" font-size="10.00">string</text>
</a>
</g>
</g>
<!-- Node20&#45;&gt;Node25 -->
<g id="edge35_Node000020_Node000025" class="edge">
<title>Node20&#45;&gt;Node25</title>
<g id="a_edge35_Node000020_Node000025"><a xlink:title=" ">
<path fill="none" stroke="#63b8ff" d="M365.21,-275.81C422.24,-255.91 558.19,-208.48 619.41,-187.13"/>
<polygon fill="#63b8ff" stroke="#63b8ff" points="620.22,-190.55 628.51,-183.95 617.91,-183.94 620.22,-190.55"/>
</a>
</g>
</g>
<!-- Node21&#45;&gt;Node19 -->
<g id="edge33_Node000021_Node000019" class="edge">
<title>Node21&#45;&gt;Node19</title>
<g id="a_edge33_Node000021_Node000019"><a xlink:title=" ">
<path fill="none" stroke="#63b8ff" d="M354.22,-220.59C326.21,-211.87 283.57,-198.59 252.32,-188.86"/>
<polygon fill="#63b8ff" stroke="#63b8ff" points="253.41,-185.53 242.82,-185.9 251.33,-192.22 253.41,-185.53"/>
</a>
</g>
</g>
<!-- Node22 -->
<g id="Node000022" class="node">
<title>Node22</title>
<g id="a_Node000022"><a xlink:title=" ">
<polygon fill="#e0e0e0" stroke="#999999" points="303.73,-185 260.73,-185 260.73,-165.75 303.73,-165.75 303.73,-185"/>
<text text-anchor="middle" x="282.23" y="-171.5" font-family="Helvetica,sans-Serif" font-size="10.00">cmath</text>
</a>
</g>
</g>
<!-- Node21&#45;&gt;Node22 -->
<g id="edge26_Node000021_Node000022" class="edge">
<title>Node21&#45;&gt;Node22</title>
<g id="a_edge26_Node000021_Node000022"><a xlink:title=" ">
<path fill="none" stroke="#63b8ff" d="M366.09,-220.59C350.57,-212.41 327.42,-200.21 309.38,-190.69"/>
<polygon fill="#63b8ff" stroke="#63b8ff" points="311.26,-187.73 300.78,-186.16 307.99,-193.92 311.26,-187.73"/>
</a>
</g>
</g>
<!-- Node23 -->
<g id="Node000023" class="node">
<title>Node23</title>
<g id="a_Node000023"><a xlink:title=" ">
<polygon fill="#e0e0e0" stroke="#999999" points="366.85,-185 321.6,-185 321.6,-165.75 366.85,-165.75 366.85,-185"/>
<text text-anchor="middle" x="344.23" y="-171.5" font-family="Helvetica,sans-Serif" font-size="10.00">cstring</text>
</a>
</g>
</g>
<!-- Node21&#45;&gt;Node23 -->
<g id="edge27_Node000021_Node000023" class="edge">
<title>Node21&#45;&gt;Node23</title>
<g id="a_edge27_Node000021_Node000023"><a xlink:title=" ">
<path fill="none" stroke="#63b8ff" d="M376.79,-220.83C371.57,-213.71 364.04,-203.43 357.53,-194.55"/>
<polygon fill="#63b8ff" stroke="#63b8ff" points="360.43,-192.58 351.7,-186.58 354.78,-196.72 360.43,-192.58"/>
</a>
</g>
</g>
<!-- Node24 -->
<g id="Node000024" class="node">
<title>Node24</title>
<g id="a_Node000024"><a xlink:title=" ">
<polygon fill="#e0e0e0" stroke="#999999" points="612.48,-185 567.98,-185 567.98,-165.75 612.48,-165.75 612.48,-185"/>
<text text-anchor="middle" x="590.23" y="-171.5" font-family="Helvetica,sans-Serif" font-size="10.00">cstdlib</text>
</a>
</g>
</g>
<!-- Node21&#45;&gt;Node24 -->
<g id="edge28_Node000021_Node000024" class="edge">
<title>Node21&#45;&gt;Node24</title>
<g id="a_edge28_Node000021_Node000024"><a xlink:title=" ">
<path fill="none" stroke="#63b8ff" d="M416.16,-221.37C449.16,-213.06 501.7,-199.76 556.52,-185.42"/>
<polygon fill="#63b8ff" stroke="#63b8ff" points="557.26,-188.84 566.05,-182.92 555.49,-182.07 557.26,-188.84"/>
</a>
</g>
</g>
<!-- Node21&#45;&gt;Node25 -->
<g id="edge29_Node000021_Node000025" class="edge">
<title>Node21&#45;&gt;Node25</title>
<g id="a_edge29_Node000021_Node000025"><a xlink:title=" ">
<path fill="none" stroke="#63b8ff" d="M416.18,-224.56C460.25,-217.54 541.02,-203.84 619.03,-185.32"/>
<polygon fill="#63b8ff" stroke="#63b8ff" points="619.64,-188.77 628.54,-183.03 618,-181.97 619.64,-188.77"/>
</a>
</g>
</g>
<!-- Node26 -->
<g id="Node000026" class="node">
<title>Node26</title>
<g id="a_Node000026"><a xlink:href="_t_transition_8h.html" target="_top" xlink:title=" ">
<polygon fill="white" stroke="#666666" points="457.35,-185 385.1,-185 385.1,-165.75 457.35,-165.75 457.35,-185"/>
<text text-anchor="middle" x="421.23" y="-171.5" font-family="Helvetica,sans-Serif" font-size="10.00">TTransition.h</text>
</a>
</g>
</g>
<!-- Node21&#45;&gt;Node26 -->
<g id="edge30_Node000021_Node000026" class="edge">
<title>Node21&#45;&gt;Node26</title>
<g id="a_edge30_Node000021_Node000026"><a xlink:title=" ">
<path fill="none" stroke="#63b8ff" d="M389.5,-220.83C394.59,-213.71 401.92,-203.43 408.26,-194.55"/>
<polygon fill="#63b8ff" stroke="#63b8ff" points="410.97,-196.76 413.93,-186.59 405.28,-192.7 410.97,-196.76"/>
</a>
</g>
</g>
<!-- Node28 -->
<g id="Node000028" class="node">
<title>Node28</title>
<g id="a_Node000028"><a xlink:title=" ">
<polygon fill="#e0e0e0" stroke="#999999" points="549.48,-185 474.98,-185 474.98,-165.75 549.48,-165.75 549.48,-185"/>
<text text-anchor="middle" x="512.23" y="-171.5" font-family="Helvetica,sans-Serif" font-size="10.00">TSortedList.h</text>
</a>
</g>
</g>
<!-- Node21&#45;&gt;Node28 -->
<g id="edge34_Node000021_Node000028" class="edge">
<title>Node21&#45;&gt;Node28</title>
<g id="a_edge34_Node000021_Node000028"><a xlink:title=" ">
<path fill="none" stroke="#63b8ff" d="M405.11,-220.59C425.59,-212.14 456.44,-199.4 479.78,-189.77"/>
<polygon fill="#63b8ff" stroke="#63b8ff" points="480.93,-193.08 488.84,-186.03 478.26,-186.61 480.93,-193.08"/>
</a>
</g>
</g>
<!-- Node26&#45;&gt;Node8 -->
<g id="edge32_Node000026_Node000008" class="edge">
<title>Node26&#45;&gt;Node8</title>
<g id="a_edge32_Node000026_Node000008"><a xlink:title=" ">
<path fill="none" stroke="#63b8ff" d="M418.08,-165.5C409.89,-143.61 385.8,-86.54 347.23,-55.25 334.18,-44.67 295.18,-31.43 264.55,-22.13"/>
<polygon fill="#63b8ff" stroke="#63b8ff" points="265.75,-18.83 255.16,-19.32 263.74,-25.54 265.75,-18.83"/>
</a>
</g>
</g>
<!-- Node27 -->
<g id="Node000027" class="node">
<title>Node27</title>
<g id="a_Node000027"><a xlink:title=" ">
<polygon fill="#e0e0e0" stroke="#999999" points="616.35,-129.75 574.1,-129.75 574.1,-110.5 616.35,-110.5 616.35,-129.75"/>
<text text-anchor="middle" x="595.23" y="-116.25" font-family="Helvetica,sans-Serif" font-size="10.00">cstdio</text>
</a>
</g>
</g>
<!-- Node26&#45;&gt;Node27 -->
<g id="edge31_Node000026_Node000027" class="edge">
<title>Node26&#45;&gt;Node27</title>
<g id="a_edge31_Node000026_Node000027"><a xlink:title=" ">
<path fill="none" stroke="#63b8ff" d="M450.74,-165.34C481.97,-155.79 531.07,-140.76 563.21,-130.92"/>
<polygon fill="#63b8ff" stroke="#63b8ff" points="563.83,-134.39 572.37,-128.12 561.78,-127.7 563.83,-134.39"/>
</a>
</g>
</g>
<!-- Node30&#45;&gt;Node24 -->
<g id="edge43_Node000030_Node000024" class="edge">
<title>Node30&#45;&gt;Node24</title>
<g id="a_edge43_Node000030_Node000024"><a xlink:title=" ">
<path fill="none" stroke="#63b8ff" d="M943.79,-227.42C885.52,-222.59 748.21,-209.7 624.03,-185.31"/>
<polygon fill="#63b8ff" stroke="#63b8ff" points="624.8,-181.89 614.3,-183.37 623.42,-188.76 624.8,-181.89"/>
</a>
</g>
</g>
<!-- Node30&#45;&gt;Node25 -->
<g id="edge41_Node000030_Node000025" class="edge">
<title>Node30&#45;&gt;Node25</title>
<g id="a_edge41_Node000030_Node000025"><a xlink:title=" ">
<path fill="none" stroke="#63b8ff" d="M943.7,-226.61C892.88,-220.94 783.2,-207.45 681.5,-185.23"/>
<polygon fill="#63b8ff" stroke="#63b8ff" points="682.41,-181.85 671.89,-183.09 680.89,-188.68 682.41,-181.85"/>
</a>
</g>
</g>
<!-- Node30&#45;&gt;Node27 -->
<g id="edge42_Node000030_Node000027" class="edge">
<title>Node30&#45;&gt;Node27</title>
<g id="a_edge42_Node000030_Node000027"><a xlink:title=" ">
<path fill="none" stroke="#63b8ff" d="M943.72,-224.78C907.21,-218.1 842.29,-204.61 789.23,-185 771.47,-178.44 768.85,-172.66 751.23,-165.75 709.65,-149.44 659.74,-136.22 627.77,-128.51"/>
<polygon fill="#63b8ff" stroke="#63b8ff" points="628.86,-125.18 618.32,-126.28 627.24,-131.99 628.86,-125.18"/>
</a>
</g>
</g>
<!-- Node30&#45;&gt;Node29 -->
<g id="edge38_Node000030_Node000029" class="edge">
<title>Node30&#45;&gt;Node29</title>
<g id="a_edge38_Node000030_Node000029"><a xlink:title=" ">
<path fill="none" stroke="#63b8ff" d="M943.57,-223.74C902.19,-215.23 823.33,-198.99 756.23,-185 755.23,-184.79 754.22,-184.58 753.2,-184.37"/>
<polygon fill="#63b8ff" stroke="#63b8ff" points="754.12,-180.98 743.61,-182.36 752.68,-187.84 754.12,-180.98"/>
</a>
</g>
</g>
<!-- Node31 -->
<g id="Node000031" class="node">
<title>Node31</title>
<g id="a_Node000031"><a xlink:title=" ">
<polygon fill="#e0e0e0" stroke="#999999" points="848.1,-185 798.35,-185 798.35,-165.75 848.1,-165.75 848.1,-185"/>
<text text-anchor="middle" x="823.23" y="-171.5" font-family="Helvetica,sans-Serif" font-size="10.00">iomanip</text>
</a>
</g>
</g>
<!-- Node30&#45;&gt;Node31 -->
<g id="edge39_Node000030_Node000031" class="edge">
<title>Node30&#45;&gt;Node31</title>
<g id="a_edge39_Node000030_Node000031"><a xlink:title=" ">
<path fill="none" stroke="#63b8ff" d="M946.95,-220.59C922.72,-211.93 885.92,-198.78 858.75,-189.07"/>
<polygon fill="#63b8ff" stroke="#63b8ff" points="860.15,-185.85 849.55,-185.78 857.79,-192.45 860.15,-185.85"/>
</a>
</g>
</g>
<!-- Node32 -->
<g id="Node000032" class="node">
<title>Node32</title>
<g id="a_Node000032"><a xlink:title=" ">
<polygon fill="#e0e0e0" stroke="#999999" points="924.23,-185 866.23,-185 866.23,-165.75 924.23,-165.75 924.23,-185"/>
<text text-anchor="middle" x="895.23" y="-171.5" font-family="Helvetica,sans-Serif" font-size="10.00">stdexcept</text>
</a>
</g>
</g>
<!-- Node30&#45;&gt;Node32 -->
<g id="edge40_Node000030_Node000032" class="edge">
<title>Node30&#45;&gt;Node32</title>
<g id="a_edge40_Node000030_Node000032"><a xlink:title=" ">
<path fill="none" stroke="#63b8ff" d="M959.16,-220.59C947.77,-212.71 931,-201.11 917.49,-191.77"/>
<polygon fill="#63b8ff" stroke="#63b8ff" points="919.81,-189.12 909.6,-186.31 915.83,-194.88 919.81,-189.12"/>
</a>
</g>
</g>
<!-- Node33 -->
<g id="Node000033" class="node">
<title>Node33</title>
<g id="a_Node000033"><a xlink:title=" ">
<polygon fill="#e0e0e0" stroke="#999999" points="1001.98,-185 942.48,-185 942.48,-165.75 1001.98,-165.75 1001.98,-185"/>
<text text-anchor="middle" x="972.23" y="-171.5" font-family="Helvetica,sans-Serif" font-size="10.00">execinfo.h</text>
</a>
</g>
</g>
<!-- Node30&#45;&gt;Node33 -->
<g id="edge44_Node000030_Node000033" class="edge">
<title>Node30&#45;&gt;Node33</title>
<g id="a_edge44_Node000030_Node000033"><a xlink:title=" ">
<path fill="none" stroke="#63b8ff" d="M972.23,-220.83C972.23,-214.32 972.23,-205.17 972.23,-196.87"/>
<polygon fill="#63b8ff" stroke="#63b8ff" points="975.73,-196.87 972.23,-186.87 968.73,-196.87 975.73,-196.87"/>
</a>
</g>
</g>
<!-- Node34 -->
<g id="Node000034" class="node">
<title>Node34</title>
<g id="a_Node000034"><a xlink:title=" ">
<polygon fill="#e0e0e0" stroke="#999999" points="1070.48,-185 1019.98,-185 1019.98,-165.75 1070.48,-165.75 1070.48,-185"/>
<text text-anchor="middle" x="1045.23" y="-171.5" font-family="Helvetica,sans-Serif" font-size="10.00">cxxabi.h</text>
</a>
</g>
</g>
<!-- Node30&#45;&gt;Node34 -->
<g id="edge45_Node000030_Node000034" class="edge">
<title>Node30&#45;&gt;Node34</title>
<g id="a_edge45_Node000030_Node000034"><a xlink:title=" ">
<path fill="none" stroke="#63b8ff" d="M984.61,-220.59C995.37,-212.74 1011.2,-201.2 1023.98,-191.87"/>
<polygon fill="#63b8ff" stroke="#63b8ff" points="1025.79,-194.89 1031.8,-186.17 1021.66,-189.23 1025.79,-194.89"/>
</a>
</g>
</g>
<!-- Node35 -->
<g id="Node000035" class="node">
<title>Node35</title>
<g id="a_Node000035"><a xlink:title=" ">
<polygon fill="#e0e0e0" stroke="#999999" points="1139.85,-185 1088.6,-185 1088.6,-165.75 1139.85,-165.75 1139.85,-185"/>
<text text-anchor="middle" x="1114.23" y="-171.5" font-family="Helvetica,sans-Serif" font-size="10.00">sstream</text>
</a>
</g>
</g>
<!-- Node30&#45;&gt;Node35 -->
<g id="edge46_Node000030_Node000035" class="edge">
<title>Node30&#45;&gt;Node35</title>
<g id="a_edge46_Node000030_Node000035"><a xlink:title=" ">
<path fill="none" stroke="#63b8ff" d="M996.31,-220.59C1019.16,-212.02 1053.74,-199.06 1079.55,-189.38"/>
<polygon fill="#63b8ff" stroke="#63b8ff" points="1080.47,-192.77 1088.6,-185.98 1078.01,-186.22 1080.47,-192.77"/>
</a>
</g>
</g>
<!-- Node36 -->
<g id="Node000036" class="node">
<title>Node36</title>
<g id="a_Node000036"><a xlink:title=" ">
<polygon fill="#e0e0e0" stroke="#999999" points="1194.73,-185 1157.73,-185 1157.73,-165.75 1194.73,-165.75 1194.73,-185"/>
<text text-anchor="middle" x="1176.23" y="-171.5" font-family="Helvetica,sans-Serif" font-size="10.00">array</text>
</a>
</g>
</g>
<!-- Node30&#45;&gt;Node36 -->
<g id="edge47_Node000030_Node000036" class="edge">
<title>Node30&#45;&gt;Node36</title>
<g id="a_edge47_Node000030_Node000036"><a xlink:title=" ">
<path fill="none" stroke="#63b8ff" d="M1000.88,-222.98C1033.88,-215.2 1089.95,-201.61 1146.46,-185.67"/>
<polygon fill="#63b8ff" stroke="#63b8ff" points="1147.27,-189.08 1155.93,-182.97 1145.36,-182.34 1147.27,-189.08"/>
</a>
</g>
</g>
<!-- Node37 -->
<g id="Node000037" class="node">
<title>Node37</title>
<g id="a_Node000037"><a xlink:title=" ">
<polygon fill="#e0e0e0" stroke="#999999" points="1263.48,-185 1212.98,-185 1212.98,-165.75 1263.48,-165.75 1263.48,-185"/>
<text text-anchor="middle" x="1238.23" y="-171.5" font-family="Helvetica,sans-Serif" font-size="10.00">memory</text>
</a>
</g>
</g>
<!-- Node30&#45;&gt;Node37 -->
<g id="edge48_Node000030_Node000037" class="edge">
<title>Node30&#45;&gt;Node37</title>
<g id="a_edge48_Node000030_Node000037"><a xlink:title=" ">
<path fill="none" stroke="#63b8ff" d="M1000.91,-224.66C1042.87,-217.29 1123.68,-202.63 1201.66,-185.47"/>
<polygon fill="#63b8ff" stroke="#63b8ff" points="1202.16,-188.95 1211.17,-183.36 1200.65,-182.11 1202.16,-188.95"/>
</a>
</g>
</g>
<!-- Node38 -->
<g id="Node000038" class="node">
<title>Node38</title>
<g id="a_Node000038"><a xlink:title=" ">
<polygon fill="#e0e0e0" stroke="#999999" points="1331.1,-185 1281.35,-185 1281.35,-165.75 1331.1,-165.75 1331.1,-185"/>
<text text-anchor="middle" x="1306.23" y="-171.5" font-family="Helvetica,sans-Serif" font-size="10.00">unistd.h</text>
</a>
</g>
</g>
<!-- Node30&#45;&gt;Node38 -->
<g id="edge49_Node000030_Node000038" class="edge">
<title>Node30&#45;&gt;Node38</title>
<g id="a_edge49_Node000030_Node000038"><a xlink:title=" ">
<path fill="none" stroke="#63b8ff" d="M1000.93,-226.33C1052.7,-220.19 1165.31,-205.86 1269.96,-185.27"/>
<polygon fill="#63b8ff" stroke="#63b8ff" points="1270.43,-188.75 1279.55,-183.36 1269.06,-181.88 1270.43,-188.75"/>
</a>
</g>
</g>
<!-- Node39 -->
<g id="Node000039" class="node">
<title>Node39</title>
<g id="a_Node000039"><a xlink:title=" ">
<polygon fill="#e0e0e0" stroke="#999999" points="1408.98,-185 1349.48,-185 1349.48,-165.75 1408.98,-165.75 1408.98,-185"/>
<text text-anchor="middle" x="1379.23" y="-171.5" font-family="Helvetica,sans-Serif" font-size="10.00">sys/wait.h</text>
</a>
</g>
</g>
<!-- Node30&#45;&gt;Node39 -->
<g id="edge50_Node000030_Node000039" class="edge">
<title>Node30&#45;&gt;Node39</title>
<g id="a_edge50_Node000030_Node000039"><a xlink:title=" ">
<path fill="none" stroke="#63b8ff" d="M1000.52,-227.14C1060.71,-221.65 1206.06,-207.32 1337.96,-185.23"/>
<polygon fill="#63b8ff" stroke="#63b8ff" points="1338.28,-188.73 1347.56,-183.6 1337.11,-181.83 1338.28,-188.73"/>
</a>
</g>
</g>
<!-- Node40 -->
<g id="Node000040" class="node">
<title>Node40</title>
<g id="a_Node000040"><a xlink:title=" ">
<polygon fill="#e0e0e0" stroke="#999999" points="1487.35,-185 1427.1,-185 1427.1,-165.75 1487.35,-165.75 1487.35,-185"/>
<text text-anchor="middle" x="1457.23" y="-171.5" font-family="Helvetica,sans-Serif" font-size="10.00">sys/prctl.h</text>
</a>
</g>
</g>
<!-- Node30&#45;&gt;Node40 -->
<g id="edge51_Node000030_Node000040" class="edge">
<title>Node30&#45;&gt;Node40</title>
<g id="a_edge51_Node000030_Node000040"><a xlink:title=" ">
<path fill="none" stroke="#63b8ff" d="M1000.81,-227.94C1070.2,-223.6 1253.2,-210.65 1415.48,-185.27"/>
<polygon fill="#63b8ff" stroke="#63b8ff" points="1415.81,-188.76 1425.14,-183.74 1414.71,-181.85 1415.81,-188.76"/>
</a>
</g>
</g>
</g>
</svg>
