<?xml version="1.0" encoding="UTF-8" standalone="no"?>
<!DOCTYPE svg PUBLIC "-//W3C//DTD SVG 1.1//EN"
 "http://www.w3.org/Graphics/SVG/1.1/DTD/svg11.dtd">
<!-- Generated by graphviz version 12.2.0 (20241103.1931)
 -->
<!-- Title: TEnergyCal.cxx Pages: 1 -->
<svg width="1225pt" height="359pt"
 viewBox="0.00 0.00 1225.47 358.75" xmlns="http://www.w3.org/2000/svg" xmlns:xlink="http://www.w3.org/1999/xlink">
<g id="graph0" class="graph" transform="scale(1 1) rotate(0) translate(4 354.75)">
<title>TEnergyCal.cxx</title>
<!-- Node1 -->
<g id="Node000001" class="node">
<title>Node1</title>
<g id="a_Node000001"><a xlink:title=" ">
<polygon fill="#999999" stroke="#666666" points="997.62,-350.75 915.62,-350.75 915.62,-331.5 997.62,-331.5 997.62,-350.75"/>
<text text-anchor="middle" x="956.62" y="-337.25" font-family="Helvetica,sans-Serif" font-size="10.00">TEnergyCal.cxx</text>
</a>
</g>
</g>
<!-- Node2 -->
<g id="Node000002" class="node">
<title>Node2</title>
<g id="a_Node000002"><a xlink:href="_t_energy_cal_8h.html" target="_top" xlink:title=" ">
<polygon fill="white" stroke="#666666" points="993.12,-295.5 920.12,-295.5 920.12,-276.25 993.12,-276.25 993.12,-295.5"/>
<text text-anchor="middle" x="956.62" y="-282" font-family="Helvetica,sans-Serif" font-size="10.00">TEnergyCal.h</text>
</a>
</g>
</g>
<!-- Node1&#45;&gt;Node2 -->
<g id="edge1_Node000001_Node000002" class="edge">
<title>Node1&#45;&gt;Node2</title>
<g id="a_edge1_Node000001_Node000002"><a xlink:title=" ">
<path fill="none" stroke="#63b8ff" d="M956.62,-331.33C956.62,-324.82 956.62,-315.67 956.62,-307.37"/>
<polygon fill="#63b8ff" stroke="#63b8ff" points="960.13,-307.37 956.63,-297.37 953.13,-307.37 960.13,-307.37"/>
</a>
</g>
</g>
<!-- Node3 -->
<g id="Node000003" class="node">
<title>Node3</title>
<g id="a_Node000003"><a xlink:href="_t_cal_8h.html" target="_top" xlink:title=" ">
<polygon fill="white" stroke="#666666" points="848.5,-185 804.75,-185 804.75,-165.75 848.5,-165.75 848.5,-185"/>
<text text-anchor="middle" x="826.62" y="-171.5" font-family="Helvetica,sans-Serif" font-size="10.00">TCal.h</text>
</a>
</g>
</g>
<!-- Node2&#45;&gt;Node3 -->
<g id="edge2_Node000002_Node000003" class="edge">
<title>Node2&#45;&gt;Node3</title>
<g id="a_edge2_Node000002_Node000003"><a xlink:title=" ">
<path fill="none" stroke="#63b8ff" d="M945.99,-276C924.09,-257.72 873.69,-215.65 845.9,-192.46"/>
<polygon fill="#63b8ff" stroke="#63b8ff" points="848.49,-190.07 838.57,-186.35 844.01,-195.44 848.49,-190.07"/>
</a>
</g>
</g>
<!-- Node29 -->
<g id="Node000029" class="node">
<title>Node29</title>
<g id="a_Node000029"><a xlink:href="_t_peak_8h.html" target="_top" xlink:title=" ">
<polygon fill="white" stroke="#666666" points="1076.62,-240.25 1024.62,-240.25 1024.62,-221 1076.62,-221 1076.62,-240.25"/>
<text text-anchor="middle" x="1050.62" y="-226.75" font-family="Helvetica,sans-Serif" font-size="10.00">TPeak.h</text>
</a>
</g>
</g>
<!-- Node2&#45;&gt;Node29 -->
<g id="edge33_Node000002_Node000029" class="edge">
<title>Node2&#45;&gt;Node29</title>
<g id="a_edge33_Node000002_Node000029"><a xlink:title=" ">
<path fill="none" stroke="#63b8ff" d="M972.57,-275.84C986.89,-267.73 1008.16,-255.68 1024.88,-246.21"/>
<polygon fill="#63b8ff" stroke="#63b8ff" points="1026.31,-249.42 1033.28,-241.45 1022.86,-243.33 1026.31,-249.42"/>
</a>
</g>
</g>
<!-- Node4 -->
<g id="Node000004" class="node">
<title>Node4</title>
<g id="a_Node000004"><a xlink:title=" ">
<polygon fill="#e0e0e0" stroke="#999999" points="243.12,-19.25 200.12,-19.25 200.12,0 243.12,0 243.12,-19.25"/>
<text text-anchor="middle" x="221.62" y="-5.75" font-family="Helvetica,sans-Serif" font-size="10.00">vector</text>
</a>
</g>
</g>
<!-- Node3&#45;&gt;Node4 -->
<g id="edge3_Node000003_Node000004" class="edge">
<title>Node3&#45;&gt;Node4</title>
<g id="a_edge3_Node000003_Node000004"><a xlink:title=" ">
<path fill="none" stroke="#63b8ff" d="M804.61,-172.97C690.79,-165.47 172.65,-128.53 128.62,-74.5 107.8,-48.95 154.54,-29.39 189.02,-18.98"/>
<polygon fill="#63b8ff" stroke="#63b8ff" points="189.58,-22.46 198.23,-16.35 187.65,-15.73 189.58,-22.46"/>
</a>
</g>
</g>
<!-- Node5 -->
<g id="Node000005" class="node">
<title>Node5</title>
<g id="a_Node000005"><a xlink:title=" ">
<polygon fill="#e0e0e0" stroke="#999999" points="944.75,-129.75 902.5,-129.75 902.5,-110.5 944.75,-110.5 944.75,-129.75"/>
<text text-anchor="middle" x="923.62" y="-116.25" font-family="Helvetica,sans-Serif" font-size="10.00">TH1.h</text>
</a>
</g>
</g>
<!-- Node3&#45;&gt;Node5 -->
<g id="edge4_Node000003_Node000005" class="edge">
<title>Node3&#45;&gt;Node5</title>
<g id="a_edge4_Node000003_Node000005"><a xlink:title=" ">
<path fill="none" stroke="#63b8ff" d="M843.08,-165.34C857.85,-157.23 879.8,-145.18 897.06,-135.71"/>
<polygon fill="#63b8ff" stroke="#63b8ff" points="898.68,-138.81 905.76,-130.93 895.31,-132.68 898.68,-138.81"/>
</a>
</g>
</g>
<!-- Node6 -->
<g id="Node000006" class="node">
<title>Node6</title>
<g id="a_Node000006"><a xlink:title=" ">
<polygon fill="#e0e0e0" stroke="#999999" points="1131,-129.75 1090.25,-129.75 1090.25,-110.5 1131,-110.5 1131,-129.75"/>
<text text-anchor="middle" x="1110.62" y="-116.25" font-family="Helvetica,sans-Serif" font-size="10.00">TF1.h</text>
</a>
</g>
</g>
<!-- Node3&#45;&gt;Node6 -->
<g id="edge5_Node000003_Node000006" class="edge">
<title>Node3&#45;&gt;Node6</title>
<g id="a_edge5_Node000003_Node000006"><a xlink:title=" ">
<path fill="none" stroke="#63b8ff" d="M848.91,-170.2C899.07,-160.79 1020.96,-137.94 1078.95,-127.06"/>
<polygon fill="#63b8ff" stroke="#63b8ff" points="1079.31,-130.56 1088.5,-125.27 1078.02,-123.68 1079.31,-130.56"/>
</a>
</g>
</g>
<!-- Node7 -->
<g id="Node000007" class="node">
<title>Node7</title>
<g id="a_Node000007"><a xlink:title=" ">
<polygon fill="#e0e0e0" stroke="#999999" points="1034.38,-129.75 962.88,-129.75 962.88,-110.5 1034.38,-110.5 1034.38,-129.75"/>
<text text-anchor="middle" x="998.62" y="-116.25" font-family="Helvetica,sans-Serif" font-size="10.00">TSpectrum.h</text>
</a>
</g>
</g>
<!-- Node3&#45;&gt;Node7 -->
<g id="edge6_Node000003_Node000007" class="edge">
<title>Node3&#45;&gt;Node7</title>
<g id="a_edge6_Node000003_Node000007"><a xlink:title=" ">
<path fill="none" stroke="#63b8ff" d="M848.76,-167.52C876.51,-158.93 924.6,-144.04 958.81,-133.45"/>
<polygon fill="#63b8ff" stroke="#63b8ff" points="959.43,-136.92 967.95,-130.62 957.36,-130.24 959.43,-136.92"/>
</a>
</g>
</g>
<!-- Node8 -->
<g id="Node000008" class="node">
<title>Node8</title>
<g id="a_Node000008"><a xlink:title=" ">
<polygon fill="#e0e0e0" stroke="#999999" points="482,-129.75 405.25,-129.75 405.25,-110.5 482,-110.5 482,-129.75"/>
<text text-anchor="middle" x="443.62" y="-116.25" font-family="Helvetica,sans-Serif" font-size="10.00">TMultiGraph.h</text>
</a>
</g>
</g>
<!-- Node3&#45;&gt;Node8 -->
<g id="edge7_Node000003_Node000008" class="edge">
<title>Node3&#45;&gt;Node8</title>
<g id="a_edge7_Node000003_Node000008"><a xlink:title=" ">
<path fill="none" stroke="#63b8ff" d="M804.56,-171.83C752.33,-165.72 616.87,-149.39 493.47,-130.14"/>
<polygon fill="#63b8ff" stroke="#63b8ff" points="494.25,-126.72 483.82,-128.62 493.16,-133.63 494.25,-126.72"/>
</a>
</g>
</g>
<!-- Node9 -->
<g id="Node000009" class="node">
<title>Node9</title>
<g id="a_Node000009"><a xlink:title=" ">
<polygon fill="#e0e0e0" stroke="#999999" points="81.25,-129.75 0,-129.75 0,-110.5 81.25,-110.5 81.25,-129.75"/>
<text text-anchor="middle" x="40.62" y="-116.25" font-family="Helvetica,sans-Serif" font-size="10.00">TGraphErrors.h</text>
</a>
</g>
</g>
<!-- Node3&#45;&gt;Node9 -->
<g id="edge8_Node000003_Node000009" class="edge">
<title>Node3&#45;&gt;Node9</title>
<g id="a_edge8_Node000003_Node000009"><a xlink:title=" ">
<path fill="none" stroke="#63b8ff" d="M804.43,-173.79C715.24,-171.26 374.34,-160.04 95.62,-129.75 94.78,-129.66 93.92,-129.56 93.07,-129.46"/>
<polygon fill="#63b8ff" stroke="#63b8ff" points="93.58,-126 83.22,-128.2 92.69,-132.94 93.58,-126"/>
</a>
</g>
</g>
<!-- Node10 -->
<g id="Node000010" class="node">
<title>Node10</title>
<g id="a_Node000010"><a xlink:title=" ">
<polygon fill="#e0e0e0" stroke="#999999" points="884.88,-129.75 840.38,-129.75 840.38,-110.5 884.88,-110.5 884.88,-129.75"/>
<text text-anchor="middle" x="862.62" y="-116.25" font-family="Helvetica,sans-Serif" font-size="10.00">TRef.h</text>
</a>
</g>
</g>
<!-- Node3&#45;&gt;Node10 -->
<g id="edge9_Node000003_Node000010" class="edge">
<title>Node3&#45;&gt;Node10</title>
<g id="a_edge9_Node000003_Node000010"><a xlink:title=" ">
<path fill="none" stroke="#63b8ff" d="M832.57,-165.58C837.34,-158.53 844.19,-148.4 850.15,-139.58"/>
<polygon fill="#63b8ff" stroke="#63b8ff" points="853,-141.61 855.7,-131.36 847.2,-137.69 853,-141.61"/>
</a>
</g>
</g>
<!-- Node11 -->
<g id="Node000011" class="node">
<title>Node11</title>
<g id="a_Node000011"><a xlink:href="_t_channel_8h.html" target="_top" xlink:title=" ">
<polygon fill="white" stroke="#666666" points="822,-129.75 757.25,-129.75 757.25,-110.5 822,-110.5 822,-129.75"/>
<text text-anchor="middle" x="789.62" y="-116.25" font-family="Helvetica,sans-Serif" font-size="10.00">TChannel.h</text>
</a>
</g>
</g>
<!-- Node3&#45;&gt;Node11 -->
<g id="edge10_Node000003_Node000011" class="edge">
<title>Node3&#45;&gt;Node11</title>
<g id="a_edge10_Node000003_Node000011"><a xlink:title=" ">
<path fill="none" stroke="#63b8ff" d="M820.52,-165.58C815.56,-158.46 808.42,-148.18 802.25,-139.3"/>
<polygon fill="#63b8ff" stroke="#63b8ff" points="805.31,-137.57 796.73,-131.35 799.56,-141.56 805.31,-137.57"/>
</a>
</g>
</g>
<!-- Node22 -->
<g id="Node000022" class="node">
<title>Node22</title>
<g id="a_Node000022"><a xlink:href="_t_nucleus_8h.html" target="_top" xlink:title=" ">
<polygon fill="white" stroke="#666666" points="565.38,-129.75 499.88,-129.75 499.88,-110.5 565.38,-110.5 565.38,-129.75"/>
<text text-anchor="middle" x="532.62" y="-116.25" font-family="Helvetica,sans-Serif" font-size="10.00">TNucleus.h</text>
</a>
</g>
</g>
<!-- Node3&#45;&gt;Node22 -->
<g id="edge23_Node000003_Node000022" class="edge">
<title>Node3&#45;&gt;Node22</title>
<g id="a_edge23_Node000003_Node000022"><a xlink:title=" ">
<path fill="none" stroke="#63b8ff" d="M804.53,-170.37C756.25,-161.63 640.6,-140.68 576.78,-129.12"/>
<polygon fill="#63b8ff" stroke="#63b8ff" points="577.45,-125.69 566.98,-127.35 576.2,-132.57 577.45,-125.69"/>
</a>
</g>
</g>
<!-- Node12 -->
<g id="Node000012" class="node">
<title>Node12</title>
<g id="a_Node000012"><a xlink:title=" ">
<polygon fill="#e0e0e0" stroke="#999999" points="488.62,-19.25 448.62,-19.25 448.62,0 488.62,0 488.62,-19.25"/>
<text text-anchor="middle" x="468.62" y="-5.75" font-family="Helvetica,sans-Serif" font-size="10.00">string</text>
</a>
</g>
</g>
<!-- Node11&#45;&gt;Node12 -->
<g id="edge11_Node000011_Node000012" class="edge">
<title>Node11&#45;&gt;Node12</title>
<g id="a_edge11_Node000011_Node000012"><a xlink:title=" ">
<path fill="none" stroke="#63b8ff" d="M818.46,-110.09C849.98,-98.8 893.4,-78.14 872.62,-55.25 817.11,5.93 584.01,-33.45 502.62,-19.25 501.79,-19.1 500.95,-18.95 500.1,-18.79"/>
<polygon fill="#63b8ff" stroke="#63b8ff" points="501.01,-15.4 490.49,-16.66 499.5,-22.24 501.01,-15.4"/>
</a>
</g>
</g>
<!-- Node13 -->
<g id="Node000013" class="node">
<title>Node13</title>
<g id="a_Node000013"><a xlink:title=" ">
<polygon fill="#e0e0e0" stroke="#999999" points="630.12,-74.5 587.12,-74.5 587.12,-55.25 630.12,-55.25 630.12,-74.5"/>
<text text-anchor="middle" x="608.62" y="-61" font-family="Helvetica,sans-Serif" font-size="10.00">cmath</text>
</a>
</g>
</g>
<!-- Node11&#45;&gt;Node13 -->
<g id="edge12_Node000011_Node000013" class="edge">
<title>Node11&#45;&gt;Node13</title>
<g id="a_edge12_Node000011_Node000013"><a xlink:title=" ">
<path fill="none" stroke="#63b8ff" d="M758.92,-110.09C726.26,-100.48 674.79,-85.34 641.37,-75.51"/>
<polygon fill="#63b8ff" stroke="#63b8ff" points="642.4,-72.16 631.82,-72.7 640.42,-78.88 642.4,-72.16"/>
</a>
</g>
</g>
<!-- Node14 -->
<g id="Node000014" class="node">
<title>Node14</title>
<g id="a_Node000014"><a xlink:title=" ">
<polygon fill="#e0e0e0" stroke="#999999" points="957.88,-74.5 919.38,-74.5 919.38,-55.25 957.88,-55.25 957.88,-74.5"/>
<text text-anchor="middle" x="938.62" y="-61" font-family="Helvetica,sans-Serif" font-size="10.00">utility</text>
</a>
</g>
</g>
<!-- Node11&#45;&gt;Node14 -->
<g id="edge13_Node000011_Node000014" class="edge">
<title>Node11&#45;&gt;Node14</title>
<g id="a_edge13_Node000011_Node000014"><a xlink:title=" ">
<path fill="none" stroke="#63b8ff" d="M814.9,-110.09C840.73,-100.86 880.86,-86.52 908.37,-76.69"/>
<polygon fill="#63b8ff" stroke="#63b8ff" points="909.28,-80.08 917.52,-73.42 906.93,-73.49 909.28,-80.08"/>
</a>
</g>
</g>
<!-- Node15 -->
<g id="Node000015" class="node">
<title>Node15</title>
<g id="a_Node000015"><a xlink:title=" ">
<polygon fill="#e0e0e0" stroke="#999999" points="1059,-74.5 976.25,-74.5 976.25,-55.25 1059,-55.25 1059,-74.5"/>
<text text-anchor="middle" x="1017.62" y="-61" font-family="Helvetica,sans-Serif" font-size="10.00">unordered_map</text>
</a>
</g>
</g>
<!-- Node11&#45;&gt;Node15 -->
<g id="edge14_Node000011_Node000015" class="edge">
<title>Node11&#45;&gt;Node15</title>
<g id="a_edge14_Node000011_Node000015"><a xlink:title=" ">
<path fill="none" stroke="#63b8ff" d="M822.29,-111.5C860.35,-102.61 923.65,-87.82 967.84,-77.5"/>
<polygon fill="#63b8ff" stroke="#63b8ff" points="968.5,-80.94 977.44,-75.26 966.91,-74.13 968.5,-80.94"/>
</a>
</g>
</g>
<!-- Node16 -->
<g id="Node000016" class="node">
<title>Node16</title>
<g id="a_Node000016"><a xlink:title=" ">
<polygon fill="#e0e0e0" stroke="#999999" points="709.12,-74.5 648.12,-74.5 648.12,-55.25 709.12,-55.25 709.12,-74.5"/>
<text text-anchor="middle" x="678.62" y="-61" font-family="Helvetica,sans-Serif" font-size="10.00">TNamed.h</text>
</a>
</g>
</g>
<!-- Node11&#45;&gt;Node16 -->
<g id="edge15_Node000011_Node000016" class="edge">
<title>Node11&#45;&gt;Node16</title>
<g id="a_edge15_Node000011_Node000016"><a xlink:title=" ">
<path fill="none" stroke="#63b8ff" d="M770.8,-110.09C753.57,-101.83 727.82,-89.48 707.92,-79.93"/>
<polygon fill="#63b8ff" stroke="#63b8ff" points="709.44,-76.78 698.91,-75.61 706.41,-83.09 709.44,-76.78"/>
</a>
</g>
</g>
<!-- Node17 -->
<g id="Node000017" class="node">
<title>Node17</title>
<g id="a_Node000017"><a xlink:title=" ">
<polygon fill="#e0e0e0" stroke="#999999" points="776.12,-74.5 727.12,-74.5 727.12,-55.25 776.12,-55.25 776.12,-74.5"/>
<text text-anchor="middle" x="751.62" y="-61" font-family="Helvetica,sans-Serif" font-size="10.00">TTree.h</text>
</a>
</g>
</g>
<!-- Node11&#45;&gt;Node17 -->
<g id="edge16_Node000011_Node000017" class="edge">
<title>Node11&#45;&gt;Node17</title>
<g id="a_edge16_Node000011_Node000017"><a xlink:title=" ">
<path fill="none" stroke="#63b8ff" d="M783.35,-110.33C778.27,-103.21 770.93,-92.93 764.59,-84.05"/>
<polygon fill="#63b8ff" stroke="#63b8ff" points="767.57,-82.2 758.92,-76.09 761.88,-86.26 767.57,-82.2"/>
</a>
</g>
</g>
<!-- Node18 -->
<g id="Node000018" class="node">
<title>Node18</title>
<g id="a_Node000018"><a xlink:title=" ">
<polygon fill="#e0e0e0" stroke="#999999" points="1132.5,-74.5 1076.75,-74.5 1076.75,-55.25 1132.5,-55.25 1132.5,-74.5"/>
<text text-anchor="middle" x="1104.62" y="-61" font-family="Helvetica,sans-Serif" font-size="10.00">TGraph.h</text>
</a>
</g>
</g>
<!-- Node11&#45;&gt;Node18 -->
<g id="edge17_Node000011_Node000018" class="edge">
<title>Node11&#45;&gt;Node18</title>
<g id="a_edge17_Node000011_Node000018"><a xlink:title=" ">
<path fill="none" stroke="#63b8ff" d="M822.15,-112.27C825.35,-111.65 828.55,-111.05 831.62,-110.5 932.5,-92.46 961.48,-94.4 1065.1,-74.85"/>
<polygon fill="#63b8ff" stroke="#63b8ff" points="1065.74,-78.29 1074.9,-72.98 1064.43,-71.42 1065.74,-78.29"/>
</a>
</g>
</g>
<!-- Node19 -->
<g id="Node000019" class="node">
<title>Node19</title>
<g id="a_Node000019"><a xlink:title=" ">
<polygon fill="#e0e0e0" stroke="#999999" points="863.25,-74.5 794,-74.5 794,-55.25 863.25,-55.25 863.25,-74.5"/>
<text text-anchor="middle" x="828.62" y="-61" font-family="Helvetica,sans-Serif" font-size="10.00">TClassRef.h</text>
</a>
</g>
</g>
<!-- Node11&#45;&gt;Node19 -->
<g id="edge18_Node000011_Node000019" class="edge">
<title>Node11&#45;&gt;Node19</title>
<g id="a_edge18_Node000011_Node000019"><a xlink:title=" ">
<path fill="none" stroke="#63b8ff" d="M796.07,-110.33C801.28,-103.21 808.81,-92.93 815.32,-84.05"/>
<polygon fill="#63b8ff" stroke="#63b8ff" points="818.07,-86.22 821.15,-76.08 812.42,-82.08 818.07,-86.22"/>
</a>
</g>
</g>
<!-- Node20 -->
<g id="Node000020" class="node">
<title>Node20</title>
<g id="a_Node000020"><a xlink:href="_t_priority_value_8h.html" target="_top" xlink:title=" ">
<polygon fill="white" stroke="#666666" points="440.75,-74.5 356.5,-74.5 356.5,-55.25 440.75,-55.25 440.75,-74.5"/>
<text text-anchor="middle" x="398.62" y="-61" font-family="Helvetica,sans-Serif" font-size="10.00">TPriorityValue.h</text>
</a>
</g>
</g>
<!-- Node11&#45;&gt;Node20 -->
<g id="edge19_Node000011_Node000020" class="edge">
<title>Node11&#45;&gt;Node20</title>
<g id="a_edge19_Node000011_Node000020"><a xlink:title=" ">
<path fill="none" stroke="#63b8ff" d="M756.96,-114.68C689.63,-105.51 534.82,-84.42 452.46,-73.21"/>
<polygon fill="#63b8ff" stroke="#63b8ff" points="452.97,-69.74 442.59,-71.86 452.03,-76.68 452.97,-69.74"/>
</a>
</g>
</g>
<!-- Node20&#45;&gt;Node4 -->
<g id="edge22_Node000020_Node000004" class="edge">
<title>Node20&#45;&gt;Node4</title>
<g id="a_edge22_Node000020_Node000004"><a xlink:title=" ">
<path fill="none" stroke="#63b8ff" d="M368.6,-54.84C336.84,-45.29 286.89,-30.26 254.19,-20.42"/>
<polygon fill="#63b8ff" stroke="#63b8ff" points="255.44,-17.14 244.86,-17.61 253.42,-23.85 255.44,-17.14"/>
</a>
</g>
</g>
<!-- Node20&#45;&gt;Node12 -->
<g id="edge21_Node000020_Node000012" class="edge">
<title>Node20&#45;&gt;Node12</title>
<g id="a_edge21_Node000020_Node000012"><a xlink:title=" ">
<path fill="none" stroke="#63b8ff" d="M410.5,-54.84C420.72,-47.07 435.7,-35.67 447.89,-26.4"/>
<polygon fill="#63b8ff" stroke="#63b8ff" points="449.88,-29.28 455.72,-20.44 445.64,-23.71 449.88,-29.28"/>
</a>
</g>
</g>
<!-- Node21 -->
<g id="Node000021" class="node">
<title>Node21</title>
<g id="a_Node000021"><a xlink:title=" ">
<polygon fill="#e0e0e0" stroke="#999999" points="424.25,-19.25 373,-19.25 373,0 424.25,0 424.25,-19.25"/>
<text text-anchor="middle" x="398.62" y="-5.75" font-family="Helvetica,sans-Serif" font-size="10.00">ostream</text>
</a>
</g>
</g>
<!-- Node20&#45;&gt;Node21 -->
<g id="edge20_Node000020_Node000021" class="edge">
<title>Node20&#45;&gt;Node21</title>
<g id="a_edge20_Node000020_Node000021"><a xlink:title=" ">
<path fill="none" stroke="#63b8ff" d="M398.62,-55.08C398.62,-48.57 398.62,-39.42 398.62,-31.12"/>
<polygon fill="#63b8ff" stroke="#63b8ff" points="402.13,-31.12 398.63,-21.12 395.13,-31.12 402.13,-31.12"/>
</a>
</g>
</g>
<!-- Node22&#45;&gt;Node12 -->
<g id="edge27_Node000022_Node000012" class="edge">
<title>Node22&#45;&gt;Node12</title>
<g id="a_edge27_Node000022_Node000012"><a xlink:title=" ">
<path fill="none" stroke="#63b8ff" d="M520.63,-110.12C510.47,-101.89 496.21,-88.85 487.62,-74.5 479.52,-60.96 474.66,-43.71 471.88,-30.56"/>
<polygon fill="#63b8ff" stroke="#63b8ff" points="475.36,-30.13 470.1,-20.93 468.48,-31.41 475.36,-30.13"/>
</a>
</g>
</g>
<!-- Node22&#45;&gt;Node13 -->
<g id="edge24_Node000022_Node000013" class="edge">
<title>Node22&#45;&gt;Node13</title>
<g id="a_edge24_Node000022_Node000013"><a xlink:title=" ">
<path fill="none" stroke="#63b8ff" d="M545.52,-110.09C556.65,-102.29 573,-90.84 586.26,-81.54"/>
<polygon fill="#63b8ff" stroke="#63b8ff" points="588.25,-84.43 594.43,-75.82 584.23,-78.69 588.25,-84.43"/>
</a>
</g>
</g>
<!-- Node22&#45;&gt;Node16 -->
<g id="edge31_Node000022_Node000016" class="edge">
<title>Node22&#45;&gt;Node16</title>
<g id="a_edge31_Node000022_Node000016"><a xlink:title=" ">
<path fill="none" stroke="#63b8ff" d="M557.39,-110.09C580.88,-101.52 616.44,-88.56 642.98,-78.88"/>
<polygon fill="#63b8ff" stroke="#63b8ff" points="644.12,-82.19 652.31,-75.47 641.72,-75.61 644.12,-82.19"/>
</a>
</g>
</g>
<!-- Node23 -->
<g id="Node000023" class="node">
<title>Node23</title>
<g id="a_Node000023"><a xlink:title=" ">
<polygon fill="#e0e0e0" stroke="#999999" points="338.25,-74.5 293,-74.5 293,-55.25 338.25,-55.25 338.25,-74.5"/>
<text text-anchor="middle" x="315.62" y="-61" font-family="Helvetica,sans-Serif" font-size="10.00">cstring</text>
</a>
</g>
</g>
<!-- Node22&#45;&gt;Node23 -->
<g id="edge25_Node000022_Node000023" class="edge">
<title>Node22&#45;&gt;Node23</title>
<g id="a_edge25_Node000022_Node000023"><a xlink:title=" ">
<path fill="none" stroke="#63b8ff" d="M499.47,-111.41C464.58,-103.22 407.76,-89.73 349.56,-74.94"/>
<polygon fill="#63b8ff" stroke="#63b8ff" points="350.7,-71.62 340.14,-72.54 348.97,-78.4 350.7,-71.62"/>
</a>
</g>
</g>
<!-- Node24 -->
<g id="Node000024" class="node">
<title>Node24</title>
<g id="a_Node000024"><a xlink:title=" ">
<polygon fill="#e0e0e0" stroke="#999999" points="181.88,-74.5 137.38,-74.5 137.38,-55.25 181.88,-55.25 181.88,-74.5"/>
<text text-anchor="middle" x="159.62" y="-61" font-family="Helvetica,sans-Serif" font-size="10.00">cstdlib</text>
</a>
</g>
</g>
<!-- Node22&#45;&gt;Node24 -->
<g id="edge26_Node000022_Node000024" class="edge">
<title>Node22&#45;&gt;Node24</title>
<g id="a_edge26_Node000022_Node000024"><a xlink:title=" ">
<path fill="none" stroke="#63b8ff" d="M499.66,-112.09C496.61,-111.52 493.56,-110.98 490.62,-110.5 361.99,-89.59 324.96,-99.43 193.18,-74.51"/>
<polygon fill="#63b8ff" stroke="#63b8ff" points="194.22,-71.15 183.74,-72.69 192.9,-78.02 194.22,-71.15"/>
</a>
</g>
</g>
<!-- Node25 -->
<g id="Node000025" class="node">
<title>Node25</title>
<g id="a_Node000025"><a xlink:href="_t_transition_8h.html" target="_top" xlink:title=" ">
<polygon fill="white" stroke="#666666" points="568.75,-74.5 496.5,-74.5 496.5,-55.25 568.75,-55.25 568.75,-74.5"/>
<text text-anchor="middle" x="532.62" y="-61" font-family="Helvetica,sans-Serif" font-size="10.00">TTransition.h</text>
</a>
</g>
</g>
<!-- Node22&#45;&gt;Node25 -->
<g id="edge28_Node000022_Node000025" class="edge">
<title>Node22&#45;&gt;Node25</title>
<g id="a_edge28_Node000022_Node000025"><a xlink:title=" ">
<path fill="none" stroke="#63b8ff" d="M532.62,-110.33C532.62,-103.82 532.62,-94.67 532.62,-86.37"/>
<polygon fill="#63b8ff" stroke="#63b8ff" points="536.13,-86.37 532.63,-76.37 529.13,-86.37 536.13,-86.37"/>
</a>
</g>
</g>
<!-- Node28 -->
<g id="Node000028" class="node">
<title>Node28</title>
<g id="a_Node000028"><a xlink:title=" ">
<polygon fill="#e0e0e0" stroke="#999999" points="274.88,-74.5 200.38,-74.5 200.38,-55.25 274.88,-55.25 274.88,-74.5"/>
<text text-anchor="middle" x="237.62" y="-61" font-family="Helvetica,sans-Serif" font-size="10.00">TSortedList.h</text>
</a>
</g>
</g>
<!-- Node22&#45;&gt;Node28 -->
<g id="edge32_Node000022_Node000028" class="edge">
<title>Node22&#45;&gt;Node28</title>
<g id="a_edge32_Node000022_Node000028"><a xlink:title=" ">
<path fill="none" stroke="#63b8ff" d="M499.63,-112.25C496.59,-111.65 493.55,-111.05 490.62,-110.5 402.37,-93.77 377.4,-91.28 286.4,-74.98"/>
<polygon fill="#63b8ff" stroke="#63b8ff" points="287.22,-71.57 276.76,-73.24 285.98,-78.46 287.22,-71.57"/>
</a>
</g>
</g>
<!-- Node26 -->
<g id="Node000026" class="node">
<title>Node26</title>
<g id="a_Node000026"><a xlink:title=" ">
<polygon fill="#e0e0e0" stroke="#999999" points="553.75,-19.25 511.5,-19.25 511.5,0 553.75,0 553.75,-19.25"/>
<text text-anchor="middle" x="532.62" y="-5.75" font-family="Helvetica,sans-Serif" font-size="10.00">cstdio</text>
</a>
</g>
</g>
<!-- Node25&#45;&gt;Node26 -->
<g id="edge29_Node000025_Node000026" class="edge">
<title>Node25&#45;&gt;Node26</title>
<g id="a_edge29_Node000025_Node000026"><a xlink:title=" ">
<path fill="none" stroke="#63b8ff" d="M532.62,-55.08C532.62,-48.57 532.62,-39.42 532.62,-31.12"/>
<polygon fill="#63b8ff" stroke="#63b8ff" points="536.13,-31.12 532.63,-21.12 529.13,-31.12 536.13,-31.12"/>
</a>
</g>
</g>
<!-- Node27 -->
<g id="Node000027" class="node">
<title>Node27</title>
<g id="a_Node000027"><a xlink:title=" ">
<polygon fill="#e0e0e0" stroke="#999999" points="909.62,-19.25 851.62,-19.25 851.62,0 909.62,0 909.62,-19.25"/>
<text text-anchor="middle" x="880.62" y="-5.75" font-family="Helvetica,sans-Serif" font-size="10.00">TObject.h</text>
</a>
</g>
</g>
<!-- Node25&#45;&gt;Node27 -->
<g id="edge30_Node000025_Node000027" class="edge">
<title>Node25&#45;&gt;Node27</title>
<g id="a_edge30_Node000025_Node000027"><a xlink:title=" ">
<path fill="none" stroke="#63b8ff" d="M568.76,-56.96C572.09,-56.37 575.42,-55.79 578.62,-55.25 672.03,-39.6 782.18,-24.05 840.19,-16.09"/>
<polygon fill="#63b8ff" stroke="#63b8ff" points="840.48,-19.59 849.91,-14.76 839.53,-12.65 840.48,-19.59"/>
</a>
</g>
</g>
<!-- Node29&#45;&gt;Node6 -->
<g id="edge34_Node000029_Node000006" class="edge">
<title>Node29&#45;&gt;Node6</title>
<g id="a_edge34_Node000029_Node000006"><a xlink:title=" ">
<path fill="none" stroke="#63b8ff" d="M1061.16,-220.73C1070.42,-212.38 1083.63,-199.09 1091.62,-185 1099.41,-171.27 1104.3,-154.04 1107.16,-140.93"/>
<polygon fill="#63b8ff" stroke="#63b8ff" points="1110.55,-141.85 1109.02,-131.37 1103.67,-140.51 1110.55,-141.85"/>
</a>
</g>
</g>
<!-- Node29&#45;&gt;Node18 -->
<g id="edge36_Node000029_Node000018" class="edge">
<title>Node29&#45;&gt;Node18</title>
<g id="a_edge36_Node000029_Node000018"><a xlink:title=" ">
<path fill="none" stroke="#63b8ff" d="M1076.84,-222.43C1114.94,-210.39 1184.27,-182.16 1213.62,-129.75 1231.18,-98.4 1181.63,-81.01 1143.67,-72.56"/>
<polygon fill="#63b8ff" stroke="#63b8ff" points="1144.83,-69.23 1134.32,-70.62 1143.4,-76.08 1144.83,-69.23"/>
</a>
</g>
</g>
<!-- Node30 -->
<g id="Node000030" class="node">
<title>Node30</title>
<g id="a_Node000030"><a xlink:title=" ">
<polygon fill="#e0e0e0" stroke="#999999" points="999.88,-185 931.38,-185 931.38,-165.75 999.88,-165.75 999.88,-185"/>
<text text-anchor="middle" x="965.62" y="-171.5" font-family="Helvetica,sans-Serif" font-size="10.00">TFitResult.h</text>
</a>
</g>
</g>
<!-- Node29&#45;&gt;Node30 -->
<g id="edge35_Node000029_Node000030" class="edge">
<title>Node29&#45;&gt;Node30</title>
<g id="a_edge35_Node000029_Node000030"><a xlink:title=" ">
<path fill="none" stroke="#63b8ff" d="M1036.21,-220.59C1023.51,-212.64 1004.75,-200.89 989.77,-191.5"/>
<polygon fill="#63b8ff" stroke="#63b8ff" points="991.73,-188.6 981.4,-186.26 988.01,-194.53 991.73,-188.6"/>
</a>
</g>
</g>
<!-- Node31 -->
<g id="Node000031" class="node">
<title>Node31</title>
<g id="a_Node000031"><a xlink:href="_t_g_r_s_i_fit_8h.html" target="_top" xlink:title=" ">
<polygon fill="white" stroke="#666666" points="1083,-185 1018.25,-185 1018.25,-165.75 1083,-165.75 1083,-185"/>
<text text-anchor="middle" x="1050.62" y="-171.5" font-family="Helvetica,sans-Serif" font-size="10.00">TGRSIFit.h</text>
</a>
</g>
</g>
<!-- Node29&#45;&gt;Node31 -->
<g id="edge37_Node000029_Node000031" class="edge">
<title>Node29&#45;&gt;Node31</title>
<g id="a_edge37_Node000029_Node000031"><a xlink:title=" ">
<path fill="none" stroke="#63b8ff" d="M1050.62,-220.83C1050.62,-214.32 1050.62,-205.17 1050.62,-196.87"/>
<polygon fill="#63b8ff" stroke="#63b8ff" points="1054.13,-196.87 1050.63,-186.87 1047.13,-196.87 1054.13,-196.87"/>
</a>
</g>
</g>
<!-- Node31&#45;&gt;Node5 -->
<g id="edge39_Node000031_Node000005" class="edge">
<title>Node31&#45;&gt;Node5</title>
<g id="a_edge39_Node000031_Node000005"><a xlink:title=" ">
<path fill="none" stroke="#63b8ff" d="M1029.08,-165.34C1008.89,-156.88 978.45,-144.11 955.46,-134.47"/>
<polygon fill="#63b8ff" stroke="#63b8ff" points="956.82,-131.25 946.25,-130.61 954.12,-137.7 956.82,-131.25"/>
</a>
</g>
</g>
<!-- Node31&#45;&gt;Node6 -->
<g id="edge40_Node000031_Node000006" class="edge">
<title>Node31&#45;&gt;Node6</title>
<g id="a_edge40_Node000031_Node000006"><a xlink:title=" ">
<path fill="none" stroke="#63b8ff" d="M1060.8,-165.34C1069.39,-157.72 1081.89,-146.62 1092.23,-137.45"/>
<polygon fill="#63b8ff" stroke="#63b8ff" points="1094.31,-140.29 1099.47,-131.03 1089.66,-135.05 1094.31,-140.29"/>
</a>
</g>
</g>
<!-- Node31&#45;&gt;Node7 -->
<g id="edge41_Node000031_Node000007" class="edge">
<title>Node31&#45;&gt;Node7</title>
<g id="a_edge41_Node000031_Node000007"><a xlink:title=" ">
<path fill="none" stroke="#63b8ff" d="M1042.04,-165.58C1034.78,-158.15 1024.17,-147.29 1015.26,-138.16"/>
<polygon fill="#63b8ff" stroke="#63b8ff" points="1017.95,-135.9 1008.46,-131.19 1012.94,-140.79 1017.95,-135.9"/>
</a>
</g>
</g>
<!-- Node31&#45;&gt;Node10 -->
<g id="edge42_Node000031_Node000010" class="edge">
<title>Node31&#45;&gt;Node10</title>
<g id="a_edge42_Node000031_Node000010"><a xlink:title=" ">
<path fill="none" stroke="#63b8ff" d="M1018.73,-165.34C984.66,-155.69 930.89,-140.46 896.19,-130.63"/>
<polygon fill="#63b8ff" stroke="#63b8ff" points="897.24,-127.29 886.66,-127.93 895.33,-134.03 897.24,-127.29"/>
</a>
</g>
</g>
<!-- Node31&#45;&gt;Node27 -->
<g id="edge38_Node000031_Node000027" class="edge">
<title>Node31&#45;&gt;Node27</title>
<g id="a_edge38_Node000031_Node000027"><a xlink:title=" ">
<path fill="none" stroke="#63b8ff" d="M1053.1,-165.6C1057.2,-152.35 1066.48,-127.05 1081.62,-110.5 1106.1,-83.76 1165,-82.96 1141.62,-55.25 1113.87,-22.35 987.07,-13.7 920.97,-11.43"/>
<polygon fill="#63b8ff" stroke="#63b8ff" points="921.37,-7.94 911.27,-11.14 921.16,-14.94 921.37,-7.94"/>
</a>
</g>
</g>
<!-- Node32 -->
<g id="Node000032" class="node">
<title>Node32</title>
<g id="a_Node000032"><a xlink:title=" ">
<polygon fill="#e0e0e0" stroke="#999999" points="1204.12,-129.75 1149.12,-129.75 1149.12,-110.5 1204.12,-110.5 1204.12,-129.75"/>
<text text-anchor="middle" x="1176.62" y="-116.25" font-family="Helvetica,sans-Serif" font-size="10.00">TString.h</text>
</a>
</g>
</g>
<!-- Node31&#45;&gt;Node32 -->
<g id="edge43_Node000031_Node000032" class="edge">
<title>Node31&#45;&gt;Node32</title>
<g id="a_edge43_Node000031_Node000032"><a xlink:title=" ">
<path fill="none" stroke="#63b8ff" d="M1072,-165.34C1091.91,-156.93 1121.86,-144.27 1144.63,-134.65"/>
<polygon fill="#63b8ff" stroke="#63b8ff" points="1145.9,-137.91 1153.75,-130.79 1143.18,-131.46 1145.9,-137.91"/>
</a>
</g>
</g>
</g>
</svg>
