<?xml version="1.0" encoding="UTF-8" standalone="no"?>
<!DOCTYPE svg PUBLIC "-//W3C//DTD SVG 1.1//EN"
 "http://www.w3.org/Graphics/SVG/1.1/DTD/svg11.dtd">
<!-- Generated by graphviz version 12.2.0 (20241103.1931)
 -->
<!-- Title: TFragment.cxx Pages: 1 -->
<svg width="1455pt" height="359pt"
 viewBox="0.00 0.00 1455.32 358.75" xmlns="http://www.w3.org/2000/svg" xmlns:xlink="http://www.w3.org/1999/xlink">
<g id="graph0" class="graph" transform="scale(1 1) rotate(0) translate(4 354.75)">
<title>TFragment.cxx</title>
<!-- Node1 -->
<g id="Node000001" class="node">
<title>Node1</title>
<g id="a_Node000001"><a xlink:title=" ">
<polygon fill="#999999" stroke="#666666" points="1310.07,-350.75 1230.32,-350.75 1230.32,-331.5 1310.07,-331.5 1310.07,-350.75"/>
<text text-anchor="middle" x="1270.19" y="-337.25" font-family="Helvetica,sans-Serif" font-size="10.00">TFragment.cxx</text>
</a>
</g>
</g>
<!-- Node2 -->
<g id="Node000002" class="node">
<title>Node2</title>
<g id="a_Node000002"><a xlink:href="_t_fragment_8h.html" target="_top" xlink:title=" ">
<polygon fill="white" stroke="#666666" points="925.57,-295.5 854.82,-295.5 854.82,-276.25 925.57,-276.25 925.57,-295.5"/>
<text text-anchor="middle" x="890.19" y="-282" font-family="Helvetica,sans-Serif" font-size="10.00">TFragment.h</text>
</a>
</g>
</g>
<!-- Node1&#45;&gt;Node2 -->
<g id="edge1_Node000001_Node000002" class="edge">
<title>Node1&#45;&gt;Node2</title>
<g id="a_edge1_Node000001_Node000002"><a xlink:title=" ">
<path fill="none" stroke="#63b8ff" d="M1229.89,-334.48C1158.94,-324.53 1012.15,-303.97 936.9,-293.42"/>
<polygon fill="#63b8ff" stroke="#63b8ff" points="937.79,-290.01 927.4,-292.09 936.82,-296.94 937.79,-290.01"/>
</a>
</g>
</g>
<!-- Node5 -->
<g id="Node000005" class="node">
<title>Node5</title>
<g id="a_Node000005"><a xlink:href="_t_channel_8h.html" target="_top" xlink:title=" ">
<polygon fill="white" stroke="#666666" points="295.57,-185 230.82,-185 230.82,-165.75 295.57,-165.75 295.57,-185"/>
<text text-anchor="middle" x="263.19" y="-171.5" font-family="Helvetica,sans-Serif" font-size="10.00">TChannel.h</text>
</a>
</g>
</g>
<!-- Node1&#45;&gt;Node5 -->
<g id="edge58_Node000001_Node000005" class="edge">
<title>Node1&#45;&gt;Node5</title>
<g id="a_edge58_Node000001_Node000005"><a xlink:title=" ">
<path fill="none" stroke="#63b8ff" d="M1229.98,-337.2C1154.48,-331.41 986.46,-317.16 846.19,-295.5 643.11,-264.14 403.64,-209.59 306.94,-186.83"/>
<polygon fill="#63b8ff" stroke="#63b8ff" points="307.87,-183.45 297.34,-184.56 306.27,-190.26 307.87,-183.45"/>
</a>
</g>
</g>
<!-- Node22 -->
<g id="Node000022" class="node">
<title>Node22</title>
<g id="a_Node000022"><a xlink:title=" ">
<polygon fill="#e0e0e0" stroke="#999999" points="1187.94,-19.25 1134.44,-19.25 1134.44,0 1187.94,0 1187.94,-19.25"/>
<text text-anchor="middle" x="1161.19" y="-5.75" font-family="Helvetica,sans-Serif" font-size="10.00">iostream</text>
</a>
</g>
</g>
<!-- Node1&#45;&gt;Node22 -->
<g id="edge60_Node000001_Node000022" class="edge">
<title>Node1&#45;&gt;Node22</title>
<g id="a_edge60_Node000001_Node000022"><a xlink:title=" ">
<path fill="none" stroke="#63b8ff" d="M1267.55,-331.22C1262.33,-312.8 1251.19,-269.11 1251.19,-231.62 1251.19,-231.62 1251.19,-231.62 1251.19,-119.12 1251.19,-78.11 1212.62,-44.3 1185.98,-25.83"/>
<polygon fill="#63b8ff" stroke="#63b8ff" points="1187.99,-22.97 1177.72,-20.36 1184.13,-28.8 1187.99,-22.97"/>
</a>
</g>
</g>
<!-- Node31 -->
<g id="Node000031" class="node">
<title>Node31</title>
<g id="a_Node000031"><a xlink:title=" ">
<polygon fill="#e0e0e0" stroke="#999999" points="1278.82,-19.25 1227.57,-19.25 1227.57,0 1278.82,0 1278.82,-19.25"/>
<text text-anchor="middle" x="1253.19" y="-5.75" font-family="Helvetica,sans-Serif" font-size="10.00">sstream</text>
</a>
</g>
</g>
<!-- Node1&#45;&gt;Node31 -->
<g id="edge61_Node000001_Node000031" class="edge">
<title>Node1&#45;&gt;Node31</title>
<g id="a_edge61_Node000001_Node000031"><a xlink:title=" ">
<path fill="none" stroke="#63b8ff" d="M1272.83,-331.22C1278.06,-312.8 1289.19,-269.11 1289.19,-231.62 1289.19,-231.62 1289.19,-231.62 1289.19,-119.12 1289.19,-86.47 1274.32,-50.97 1263.7,-29.78"/>
<polygon fill="#63b8ff" stroke="#63b8ff" points="1266.8,-28.15 1259.05,-20.92 1260.6,-31.4 1266.8,-28.15"/>
</a>
</g>
</g>
<!-- Node45 -->
<g id="Node000045" class="node">
<title>Node45</title>
<g id="a_Node000045"><a xlink:title=" ">
<polygon fill="#e0e0e0" stroke="#999999" points="1374.82,-295.5 1317.57,-295.5 1317.57,-276.25 1374.82,-276.25 1374.82,-295.5"/>
<text text-anchor="middle" x="1346.19" y="-282" font-family="Helvetica,sans-Serif" font-size="10.00">TROOT.h</text>
</a>
</g>
</g>
<!-- Node1&#45;&gt;Node45 -->
<g id="edge59_Node000001_Node000045" class="edge">
<title>Node1&#45;&gt;Node45</title>
<g id="a_edge59_Node000001_Node000045"><a xlink:title=" ">
<path fill="none" stroke="#63b8ff" d="M1283.08,-331.09C1294.22,-323.29 1310.57,-311.84 1323.83,-302.54"/>
<polygon fill="#63b8ff" stroke="#63b8ff" points="1325.82,-305.43 1332,-296.82 1321.8,-299.69 1325.82,-305.43"/>
</a>
</g>
</g>
<!-- Node46 -->
<g id="Node000046" class="node">
<title>Node46</title>
<g id="a_Node000046"><a xlink:title=" ">
<polygon fill="#e0e0e0" stroke="#999999" points="1447.32,-295.5 1393.07,-295.5 1393.07,-276.25 1447.32,-276.25 1447.32,-295.5"/>
<text text-anchor="middle" x="1420.19" y="-282" font-family="Helvetica,sans-Serif" font-size="10.00">TClass.h</text>
</a>
</g>
</g>
<!-- Node1&#45;&gt;Node46 -->
<g id="edge62_Node000001_Node000046" class="edge">
<title>Node1&#45;&gt;Node46</title>
<g id="a_edge62_Node000001_Node000046"><a xlink:title=" ">
<path fill="none" stroke="#63b8ff" d="M1295.64,-331.09C1319.88,-322.49 1356.63,-309.44 1383.93,-299.75"/>
<polygon fill="#63b8ff" stroke="#63b8ff" points="1384.94,-303.1 1393.2,-296.46 1382.6,-296.51 1384.94,-303.1"/>
</a>
</g>
</g>
<!-- Node3 -->
<g id="Node000003" class="node">
<title>Node3</title>
<g id="a_Node000003"><a xlink:href="_t_detector_hit_8h.html" target="_top" xlink:title=" ">
<polygon fill="white" stroke="#666666" points="929.69,-240.25 850.69,-240.25 850.69,-221 929.69,-221 929.69,-240.25"/>
<text text-anchor="middle" x="890.19" y="-226.75" font-family="Helvetica,sans-Serif" font-size="10.00">TDetectorHit.h</text>
</a>
</g>
</g>
<!-- Node2&#45;&gt;Node3 -->
<g id="edge2_Node000002_Node000003" class="edge">
<title>Node2&#45;&gt;Node3</title>
<g id="a_edge2_Node000002_Node000003"><a xlink:title=" ">
<path fill="none" stroke="#63b8ff" d="M890.19,-276.08C890.19,-269.57 890.19,-260.42 890.19,-252.12"/>
<polygon fill="#63b8ff" stroke="#63b8ff" points="893.69,-252.12 890.19,-242.12 886.69,-252.12 893.69,-252.12"/>
</a>
</g>
</g>
<!-- Node4 -->
<g id="Node000004" class="node">
<title>Node4</title>
<g id="a_Node000004"><a xlink:title=" ">
<polygon fill="#e0e0e0" stroke="#999999" points="497.69,-74.5 454.69,-74.5 454.69,-55.25 497.69,-55.25 497.69,-74.5"/>
<text text-anchor="middle" x="476.19" y="-61" font-family="Helvetica,sans-Serif" font-size="10.00">vector</text>
</a>
</g>
</g>
<!-- Node2&#45;&gt;Node4 -->
<g id="edge55_Node000002_Node000004" class="edge">
<title>Node2&#45;&gt;Node4</title>
<g id="a_edge55_Node000002_Node000004"><a xlink:title=" ">
<path fill="none" stroke="#63b8ff" d="M854.39,-284.65C702.07,-282.83 110.94,-266.93 4.19,-129.75 -1.06,-123 -1.57,-116.83 4.19,-110.5 33.67,-78.1 340.42,-68.73 442.99,-66.49"/>
<polygon fill="#63b8ff" stroke="#63b8ff" points="443.02,-69.99 452.94,-66.28 442.87,-62.99 443.02,-69.99"/>
</a>
</g>
</g>
<!-- Node18 -->
<g id="Node000018" class="node">
<title>Node18</title>
<g id="a_Node000018"><a xlink:title=" ">
<polygon fill="#e0e0e0" stroke="#999999" points="464.94,-185 411.44,-185 411.44,-165.75 464.94,-165.75 464.94,-185"/>
<text text-anchor="middle" x="438.19" y="-171.5" font-family="Helvetica,sans-Serif" font-size="10.00">Rtypes.h</text>
</a>
</g>
</g>
<!-- Node2&#45;&gt;Node18 -->
<g id="edge57_Node000002_Node000018" class="edge">
<title>Node2&#45;&gt;Node18</title>
<g id="a_edge57_Node000002_Node000018"><a xlink:title=" ">
<path fill="none" stroke="#63b8ff" d="M854.35,-276.27C770.5,-256.14 562.21,-206.14 476.23,-185.51"/>
<polygon fill="#63b8ff" stroke="#63b8ff" points="477.19,-182.14 466.65,-183.21 475.56,-188.94 477.19,-182.14"/>
</a>
</g>
</g>
<!-- Node20 -->
<g id="Node000020" class="node">
<title>Node20</title>
<g id="a_Node000020"><a xlink:href="_t_p_p_g_8h.html" target="_top" xlink:title=" ">
<polygon fill="white" stroke="#666666" points="847.44,-185 796.94,-185 796.94,-165.75 847.44,-165.75 847.44,-185"/>
<text text-anchor="middle" x="822.19" y="-171.5" font-family="Helvetica,sans-Serif" font-size="10.00">TPPG.h</text>
</a>
</g>
</g>
<!-- Node2&#45;&gt;Node20 -->
<g id="edge53_Node000002_Node000020" class="edge">
<title>Node2&#45;&gt;Node20</title>
<g id="a_edge53_Node000002_Node000020"><a xlink:title=" ">
<path fill="none" stroke="#63b8ff" d="M877.43,-276.01C866.61,-267.87 851.42,-254.88 842.19,-240.25 833.74,-226.84 828.61,-209.59 825.67,-196.39"/>
<polygon fill="#63b8ff" stroke="#63b8ff" points="829.14,-195.87 823.78,-186.73 822.27,-197.22 829.14,-195.87"/>
</a>
</g>
</g>
<!-- Node2&#45;&gt;Node22 -->
<g id="edge54_Node000002_Node000022" class="edge">
<title>Node2&#45;&gt;Node22</title>
<g id="a_edge54_Node000002_Node000022"><a xlink:title=" ">
<path fill="none" stroke="#63b8ff" d="M925.99,-280.57C1010.09,-269.46 1213.19,-236.42 1213.19,-176.38 1213.19,-176.38 1213.19,-176.38 1213.19,-119.12 1213.19,-84.3 1191.14,-48.82 1175.76,-28.3"/>
<polygon fill="#63b8ff" stroke="#63b8ff" points="1178.72,-26.41 1169.8,-20.7 1173.21,-30.73 1178.72,-26.41"/>
</a>
</g>
</g>
<!-- Node44 -->
<g id="Node000044" class="node">
<title>Node44</title>
<g id="a_Node000044"><a xlink:title=" ">
<polygon fill="#e0e0e0" stroke="#999999" points="988.19,-240.25 948.19,-240.25 948.19,-221 988.19,-221 988.19,-240.25"/>
<text text-anchor="middle" x="968.19" y="-226.75" font-family="Helvetica,sans-Serif" font-size="10.00">ctime</text>
</a>
</g>
</g>
<!-- Node2&#45;&gt;Node44 -->
<g id="edge56_Node000002_Node000044" class="edge">
<title>Node2&#45;&gt;Node44</title>
<g id="a_edge56_Node000002_Node000044"><a xlink:title=" ">
<path fill="none" stroke="#63b8ff" d="M903.42,-275.84C914.97,-267.96 931.96,-256.36 945.64,-247.02"/>
<polygon fill="#63b8ff" stroke="#63b8ff" points="947.36,-250.08 953.65,-241.56 943.41,-244.3 947.36,-250.08"/>
</a>
</g>
</g>
<!-- Node3&#45;&gt;Node4 -->
<g id="edge3_Node000003_Node000004" class="edge">
<title>Node3&#45;&gt;Node4</title>
<g id="a_edge3_Node000003_Node000004"><a xlink:title=" ">
<path fill="none" stroke="#63b8ff" d="M850.46,-228.96C776.38,-225.78 615.31,-209.44 512.19,-129.75 497.71,-118.56 488.14,-99.8 482.54,-85.49"/>
<polygon fill="#63b8ff" stroke="#63b8ff" points="485.89,-84.47 479.24,-76.22 479.29,-86.81 485.89,-84.47"/>
</a>
</g>
</g>
<!-- Node3&#45;&gt;Node5 -->
<g id="edge4_Node000003_Node000005" class="edge">
<title>Node3&#45;&gt;Node5</title>
<g id="a_edge4_Node000003_Node000005"><a xlink:title=" ">
<path fill="none" stroke="#63b8ff" d="M850.5,-226.25C738.98,-216.78 423.42,-189.98 307.03,-180.1"/>
<polygon fill="#63b8ff" stroke="#63b8ff" points="307.52,-176.63 297.26,-179.27 306.93,-183.6 307.52,-176.63"/>
</a>
</g>
</g>
<!-- Node16 -->
<g id="Node000016" class="node">
<title>Node16</title>
<g id="a_Node000016"><a xlink:title=" ">
<polygon fill="#e0e0e0" stroke="#999999" points="1101.82,-185 1038.57,-185 1038.57,-165.75 1101.82,-165.75 1101.82,-185"/>
<text text-anchor="middle" x="1070.19" y="-171.5" font-family="Helvetica,sans-Serif" font-size="10.00">TVector3.h</text>
</a>
</g>
</g>
<!-- Node3&#45;&gt;Node16 -->
<g id="edge17_Node000003_Node000016" class="edge">
<title>Node3&#45;&gt;Node16</title>
<g id="a_edge17_Node000003_Node000016"><a xlink:title=" ">
<path fill="none" stroke="#63b8ff" d="M920.73,-220.59C950.47,-211.79 995.88,-198.36 1028.85,-188.61"/>
<polygon fill="#63b8ff" stroke="#63b8ff" points="1029.46,-192.07 1038.06,-185.88 1027.47,-185.36 1029.46,-192.07"/>
</a>
</g>
</g>
<!-- Node17 -->
<g id="Node000017" class="node">
<title>Node17</title>
<g id="a_Node000017"><a xlink:title=" ">
<polygon fill="#e0e0e0" stroke="#999999" points="1147.19,-74.5 1089.19,-74.5 1089.19,-55.25 1147.19,-55.25 1147.19,-74.5"/>
<text text-anchor="middle" x="1118.19" y="-61" font-family="Helvetica,sans-Serif" font-size="10.00">TObject.h</text>
</a>
</g>
</g>
<!-- Node3&#45;&gt;Node17 -->
<g id="edge18_Node000003_Node000017" class="edge">
<title>Node3&#45;&gt;Node17</title>
<g id="a_edge18_Node000003_Node000017"><a xlink:title=" ">
<path fill="none" stroke="#63b8ff" d="M892.83,-220.55C897.22,-206.92 907.26,-181.12 924.19,-165.75 955.18,-137.63 973.79,-148.52 1011.19,-129.75 1041.1,-114.74 1073.93,-94.54 1095.23,-80.91"/>
<polygon fill="#63b8ff" stroke="#63b8ff" points="1096.93,-83.99 1103.43,-75.62 1093.13,-78.11 1096.93,-83.99"/>
</a>
</g>
</g>
<!-- Node3&#45;&gt;Node18 -->
<g id="edge19_Node000003_Node000018" class="edge">
<title>Node3&#45;&gt;Node18</title>
<g id="a_edge19_Node000003_Node000018"><a xlink:title=" ">
<path fill="none" stroke="#63b8ff" d="M850.34,-226.62C776.73,-220.78 614.58,-206.54 479.19,-185 478.19,-184.84 477.17,-184.67 476.14,-184.5"/>
<polygon fill="#63b8ff" stroke="#63b8ff" points="476.99,-181.09 466.52,-182.7 475.7,-187.98 476.99,-181.09"/>
</a>
</g>
</g>
<!-- Node19 -->
<g id="Node000019" class="node">
<title>Node19</title>
<g id="a_Node000019"><a xlink:title=" ">
<polygon fill="#e0e0e0" stroke="#999999" points="1184.94,-185 1119.44,-185 1119.44,-165.75 1184.94,-165.75 1184.94,-185"/>
<text text-anchor="middle" x="1152.19" y="-171.5" font-family="Helvetica,sans-Serif" font-size="10.00">TRandom.h</text>
</a>
</g>
</g>
<!-- Node3&#45;&gt;Node19 -->
<g id="edge20_Node000003_Node000019" class="edge">
<title>Node3&#45;&gt;Node19</title>
<g id="a_edge20_Node000003_Node000019"><a xlink:title=" ">
<path fill="none" stroke="#63b8ff" d="M930.14,-221.66C972.08,-213.28 1040.26,-199.58 1107.81,-185.69"/>
<polygon fill="#63b8ff" stroke="#63b8ff" points="1108.51,-189.12 1117.6,-183.67 1107.1,-182.26 1108.51,-189.12"/>
</a>
</g>
</g>
<!-- Node3&#45;&gt;Node20 -->
<g id="edge21_Node000003_Node000020" class="edge">
<title>Node3&#45;&gt;Node20</title>
<g id="a_edge21_Node000003_Node000020"><a xlink:title=" ">
<path fill="none" stroke="#63b8ff" d="M878.66,-220.59C868.73,-212.82 854.18,-201.42 842.34,-192.15"/>
<polygon fill="#63b8ff" stroke="#63b8ff" points="844.78,-189.62 834.75,-186.21 840.46,-195.13 844.78,-189.62"/>
</a>
</g>
</g>
<!-- Node42 -->
<g id="Node000042" class="node">
<title>Node42</title>
<g id="a_Node000042"><a xlink:href="_t_transient_bits_8h.html" target="_top" xlink:title=" ">
<polygon fill="white" stroke="#666666" points="1020.82,-185 933.57,-185 933.57,-165.75 1020.82,-165.75 1020.82,-185"/>
<text text-anchor="middle" x="977.19" y="-171.5" font-family="Helvetica,sans-Serif" font-size="10.00">TTransientBits.h</text>
</a>
</g>
</g>
<!-- Node3&#45;&gt;Node42 -->
<g id="edge50_Node000003_Node000042" class="edge">
<title>Node3&#45;&gt;Node42</title>
<g id="a_edge50_Node000003_Node000042"><a xlink:title=" ">
<path fill="none" stroke="#63b8ff" d="M904.95,-220.59C918.07,-212.56 937.52,-200.66 952.92,-191.23"/>
<polygon fill="#63b8ff" stroke="#63b8ff" points="954.37,-194.45 961.07,-186.24 950.71,-188.48 954.37,-194.45"/>
</a>
</g>
</g>
<!-- Node6 -->
<g id="Node000006" class="node">
<title>Node6</title>
<g id="a_Node000006"><a xlink:title=" ">
<polygon fill="#e0e0e0" stroke="#999999" points="342.19,-19.25 302.19,-19.25 302.19,0 342.19,0 342.19,-19.25"/>
<text text-anchor="middle" x="322.19" y="-5.75" font-family="Helvetica,sans-Serif" font-size="10.00">string</text>
</a>
</g>
</g>
<!-- Node5&#45;&gt;Node6 -->
<g id="edge5_Node000005_Node000006" class="edge">
<title>Node5&#45;&gt;Node6</title>
<g id="a_edge5_Node000005_Node000006"><a xlink:title=" ">
<path fill="none" stroke="#63b8ff" d="M230.48,-173.76C167.43,-171.81 32.78,-163.69 4.19,-129.75 -1.32,-123.21 -0.87,-117.4 4.19,-110.5 38.82,-63.33 217.2,-28.36 290.59,-15.75"/>
<polygon fill="#63b8ff" stroke="#63b8ff" points="291.06,-19.22 300.34,-14.1 289.9,-12.32 291.06,-19.22"/>
</a>
</g>
</g>
<!-- Node7 -->
<g id="Node000007" class="node">
<title>Node7</title>
<g id="a_Node000007"><a xlink:title=" ">
<polygon fill="#e0e0e0" stroke="#999999" points="284.69,-129.75 241.69,-129.75 241.69,-110.5 284.69,-110.5 284.69,-129.75"/>
<text text-anchor="middle" x="263.19" y="-116.25" font-family="Helvetica,sans-Serif" font-size="10.00">cmath</text>
</a>
</g>
</g>
<!-- Node5&#45;&gt;Node7 -->
<g id="edge6_Node000005_Node000007" class="edge">
<title>Node5&#45;&gt;Node7</title>
<g id="a_edge6_Node000005_Node000007"><a xlink:title=" ">
<path fill="none" stroke="#63b8ff" d="M263.19,-165.58C263.19,-159.07 263.19,-149.92 263.19,-141.62"/>
<polygon fill="#63b8ff" stroke="#63b8ff" points="266.69,-141.62 263.19,-131.62 259.69,-141.62 266.69,-141.62"/>
</a>
</g>
</g>
<!-- Node8 -->
<g id="Node000008" class="node">
<title>Node8</title>
<g id="a_Node000008"><a xlink:title=" ">
<polygon fill="#e0e0e0" stroke="#999999" points="661.44,-129.75 622.94,-129.75 622.94,-110.5 661.44,-110.5 661.44,-129.75"/>
<text text-anchor="middle" x="642.19" y="-116.25" font-family="Helvetica,sans-Serif" font-size="10.00">utility</text>
</a>
</g>
</g>
<!-- Node5&#45;&gt;Node8 -->
<g id="edge7_Node000005_Node000008" class="edge">
<title>Node5&#45;&gt;Node8</title>
<g id="a_edge7_Node000005_Node000008"><a xlink:title=" ">
<path fill="none" stroke="#63b8ff" d="M295.93,-172.11C356.55,-167.5 490.46,-155.44 611.78,-129.94"/>
<polygon fill="#63b8ff" stroke="#63b8ff" points="612.2,-133.43 621.24,-127.91 610.73,-126.58 612.2,-133.43"/>
</a>
</g>
</g>
<!-- Node9 -->
<g id="Node000009" class="node">
<title>Node9</title>
<g id="a_Node000009"><a xlink:title=" ">
<polygon fill="#e0e0e0" stroke="#999999" points="385.57,-129.75 302.82,-129.75 302.82,-110.5 385.57,-110.5 385.57,-129.75"/>
<text text-anchor="middle" x="344.19" y="-116.25" font-family="Helvetica,sans-Serif" font-size="10.00">unordered_map</text>
</a>
</g>
</g>
<!-- Node5&#45;&gt;Node9 -->
<g id="edge8_Node000005_Node000009" class="edge">
<title>Node5&#45;&gt;Node9</title>
<g id="a_edge8_Node000005_Node000009"><a xlink:title=" ">
<path fill="none" stroke="#63b8ff" d="M276.93,-165.34C288.92,-157.46 306.56,-145.86 320.77,-136.52"/>
<polygon fill="#63b8ff" stroke="#63b8ff" points="322.69,-139.45 329.12,-131.03 318.84,-133.6 322.69,-139.45"/>
</a>
</g>
</g>
<!-- Node10 -->
<g id="Node000010" class="node">
<title>Node10</title>
<g id="a_Node000010"><a xlink:title=" ">
<polygon fill="#e0e0e0" stroke="#999999" points="464.69,-129.75 403.69,-129.75 403.69,-110.5 464.69,-110.5 464.69,-129.75"/>
<text text-anchor="middle" x="434.19" y="-116.25" font-family="Helvetica,sans-Serif" font-size="10.00">TNamed.h</text>
</a>
</g>
</g>
<!-- Node5&#45;&gt;Node10 -->
<g id="edge9_Node000005_Node000010" class="edge">
<title>Node5&#45;&gt;Node10</title>
<g id="a_edge9_Node000005_Node000010"><a xlink:title=" ">
<path fill="none" stroke="#63b8ff" d="M292.2,-165.34C320.21,-156.62 362.85,-143.34 394.09,-133.61"/>
<polygon fill="#63b8ff" stroke="#63b8ff" points="395.09,-136.97 403.6,-130.65 393.01,-130.28 395.09,-136.97"/>
</a>
</g>
</g>
<!-- Node11 -->
<g id="Node000011" class="node">
<title>Node11</title>
<g id="a_Node000011"><a xlink:title=" ">
<polygon fill="#e0e0e0" stroke="#999999" points="62.69,-129.75 13.69,-129.75 13.69,-110.5 62.69,-110.5 62.69,-129.75"/>
<text text-anchor="middle" x="38.19" y="-116.25" font-family="Helvetica,sans-Serif" font-size="10.00">TTree.h</text>
</a>
</g>
</g>
<!-- Node5&#45;&gt;Node11 -->
<g id="edge10_Node000005_Node000011" class="edge">
<title>Node5&#45;&gt;Node11</title>
<g id="a_edge10_Node000005_Node000011"><a xlink:title=" ">
<path fill="none" stroke="#63b8ff" d="M230.51,-167.07C194.42,-158.93 134.31,-145.2 73.92,-130.38"/>
<polygon fill="#63b8ff" stroke="#63b8ff" points="75.06,-127.05 64.51,-128.06 73.38,-133.85 75.06,-127.05"/>
</a>
</g>
</g>
<!-- Node12 -->
<g id="Node000012" class="node">
<title>Node12</title>
<g id="a_Node000012"><a xlink:title=" ">
<polygon fill="#e0e0e0" stroke="#999999" points="136.07,-129.75 80.32,-129.75 80.32,-110.5 136.07,-110.5 136.07,-129.75"/>
<text text-anchor="middle" x="108.19" y="-116.25" font-family="Helvetica,sans-Serif" font-size="10.00">TGraph.h</text>
</a>
</g>
</g>
<!-- Node5&#45;&gt;Node12 -->
<g id="edge11_Node000005_Node000012" class="edge">
<title>Node5&#45;&gt;Node12</title>
<g id="a_edge11_Node000005_Node000012"><a xlink:title=" ">
<path fill="none" stroke="#63b8ff" d="M236.9,-165.34C211.74,-156.7 173.54,-143.57 145.29,-133.87"/>
<polygon fill="#63b8ff" stroke="#63b8ff" points="146.64,-130.63 136.05,-130.69 144.37,-137.25 146.64,-130.63"/>
</a>
</g>
</g>
<!-- Node13 -->
<g id="Node000013" class="node">
<title>Node13</title>
<g id="a_Node000013"><a xlink:title=" ">
<polygon fill="#e0e0e0" stroke="#999999" points="223.82,-129.75 154.57,-129.75 154.57,-110.5 223.82,-110.5 223.82,-129.75"/>
<text text-anchor="middle" x="189.19" y="-116.25" font-family="Helvetica,sans-Serif" font-size="10.00">TClassRef.h</text>
</a>
</g>
</g>
<!-- Node5&#45;&gt;Node13 -->
<g id="edge12_Node000005_Node000013" class="edge">
<title>Node5&#45;&gt;Node13</title>
<g id="a_edge12_Node000005_Node000013"><a xlink:title=" ">
<path fill="none" stroke="#63b8ff" d="M250.64,-165.34C239.73,-157.49 223.69,-145.95 210.73,-136.62"/>
<polygon fill="#63b8ff" stroke="#63b8ff" points="212.95,-133.91 202.79,-130.91 208.86,-139.59 212.95,-133.91"/>
</a>
</g>
</g>
<!-- Node14 -->
<g id="Node000014" class="node">
<title>Node14</title>
<g id="a_Node000014"><a xlink:href="_t_priority_value_8h.html" target="_top" xlink:title=" ">
<polygon fill="white" stroke="#666666" points="605.32,-129.75 521.07,-129.75 521.07,-110.5 605.32,-110.5 605.32,-129.75"/>
<text text-anchor="middle" x="563.19" y="-116.25" font-family="Helvetica,sans-Serif" font-size="10.00">TPriorityValue.h</text>
</a>
</g>
</g>
<!-- Node5&#45;&gt;Node14 -->
<g id="edge13_Node000005_Node000014" class="edge">
<title>Node5&#45;&gt;Node14</title>
<g id="a_edge13_Node000005_Node000014"><a xlink:title=" ">
<path fill="none" stroke="#63b8ff" d="M295.87,-168.57C347.26,-159.45 447.52,-141.66 509.58,-130.64"/>
<polygon fill="#63b8ff" stroke="#63b8ff" points="509.98,-134.13 519.21,-128.93 508.75,-127.23 509.98,-134.13"/>
</a>
</g>
</g>
<!-- Node14&#45;&gt;Node4 -->
<g id="edge16_Node000014_Node000004" class="edge">
<title>Node14&#45;&gt;Node4</title>
<g id="a_edge16_Node000014_Node000004"><a xlink:title=" ">
<path fill="none" stroke="#63b8ff" d="M548.43,-110.09C535.31,-102.06 515.87,-90.16 500.46,-80.73"/>
<polygon fill="#63b8ff" stroke="#63b8ff" points="502.67,-77.98 492.31,-75.74 499.02,-83.95 502.67,-77.98"/>
</a>
</g>
</g>
<!-- Node14&#45;&gt;Node6 -->
<g id="edge15_Node000014_Node000006" class="edge">
<title>Node14&#45;&gt;Node6</title>
<g id="a_edge15_Node000014_Node000006"><a xlink:title=" ">
<path fill="none" stroke="#63b8ff" d="M557.92,-110.11C549.22,-96.08 530.48,-69.18 507.19,-55.25 449.1,-20.52 422.63,-35.71 353.43,-19.56"/>
<polygon fill="#63b8ff" stroke="#63b8ff" points="354.45,-16.21 343.9,-17.18 352.75,-23 354.45,-16.21"/>
</a>
</g>
</g>
<!-- Node15 -->
<g id="Node000015" class="node">
<title>Node15</title>
<g id="a_Node000015"><a xlink:title=" ">
<polygon fill="#e0e0e0" stroke="#999999" points="605.82,-74.5 554.57,-74.5 554.57,-55.25 605.82,-55.25 605.82,-74.5"/>
<text text-anchor="middle" x="580.19" y="-61" font-family="Helvetica,sans-Serif" font-size="10.00">ostream</text>
</a>
</g>
</g>
<!-- Node14&#45;&gt;Node15 -->
<g id="edge14_Node000014_Node000015" class="edge">
<title>Node14&#45;&gt;Node15</title>
<g id="a_edge14_Node000014_Node000015"><a xlink:title=" ">
<path fill="none" stroke="#63b8ff" d="M566,-110.33C568.13,-103.67 571.14,-94.24 573.84,-85.78"/>
<polygon fill="#63b8ff" stroke="#63b8ff" points="577.16,-86.89 576.86,-76.3 570.49,-84.76 577.16,-86.89"/>
</a>
</g>
</g>
<!-- Node20&#45;&gt;Node8 -->
<g id="edge23_Node000020_Node000008" class="edge">
<title>Node20&#45;&gt;Node8</title>
<g id="a_edge23_Node000020_Node000008"><a xlink:title=" ">
<path fill="none" stroke="#63b8ff" d="M796.78,-166.86C764.22,-157.23 707.82,-140.54 672.89,-130.21"/>
<polygon fill="#63b8ff" stroke="#63b8ff" points="673.96,-126.87 663.38,-127.39 671.98,-133.59 673.96,-126.87"/>
</a>
</g>
</g>
<!-- Node20&#45;&gt;Node17 -->
<g id="edge25_Node000020_Node000017" class="edge">
<title>Node20&#45;&gt;Node17</title>
<g id="a_edge25_Node000020_Node000017"><a xlink:title=" ">
<path fill="none" stroke="#63b8ff" d="M847.79,-168.22C878.83,-160.48 932.52,-146.2 977.19,-129.75 980,-128.72 1047.19,-98.18 1087.79,-79.71"/>
<polygon fill="#63b8ff" stroke="#63b8ff" points="1089.19,-82.92 1096.84,-75.59 1086.29,-76.55 1089.19,-82.92"/>
</a>
</g>
</g>
<!-- Node21 -->
<g id="Node000021" class="node">
<title>Node21</title>
<g id="a_Node000021"><a xlink:title=" ">
<polygon fill="#e0e0e0" stroke="#999999" points="751.57,-129.75 716.82,-129.75 716.82,-110.5 751.57,-110.5 751.57,-129.75"/>
<text text-anchor="middle" x="734.19" y="-116.25" font-family="Helvetica,sans-Serif" font-size="10.00">map</text>
</a>
</g>
</g>
<!-- Node20&#45;&gt;Node21 -->
<g id="edge22_Node000020_Node000021" class="edge">
<title>Node20&#45;&gt;Node21</title>
<g id="a_edge22_Node000020_Node000021"><a xlink:title=" ">
<path fill="none" stroke="#63b8ff" d="M807.26,-165.34C793.99,-157.31 774.33,-145.41 758.74,-135.98"/>
<polygon fill="#63b8ff" stroke="#63b8ff" points="760.86,-133.17 750.49,-130.99 757.23,-139.16 760.86,-133.17"/>
</a>
</g>
</g>
<!-- Node20&#45;&gt;Node22 -->
<g id="edge24_Node000020_Node000022" class="edge">
<title>Node20&#45;&gt;Node22</title>
<g id="a_edge24_Node000020_Node000022"><a xlink:title=" ">
<path fill="none" stroke="#63b8ff" d="M831.56,-165.65C844.09,-152.9 863.37,-128.73 851.19,-110.5 825.74,-72.42 733.52,-89.27 764.19,-55.25 816.11,2.33 1034.39,-29.85 1111.19,-19.25 1115.02,-18.72 1119,-18.12 1122.97,-17.49"/>
<polygon fill="#63b8ff" stroke="#63b8ff" points="1123.21,-21 1132.5,-15.91 1122.07,-14.09 1123.21,-21"/>
</a>
</g>
</g>
<!-- Node23 -->
<g id="Node000023" class="node">
<title>Node23</title>
<g id="a_Node000023"><a xlink:title=" ">
<polygon fill="#e0e0e0" stroke="#999999" points="842.32,-129.75 770.07,-129.75 770.07,-110.5 842.32,-110.5 842.32,-129.75"/>
<text text-anchor="middle" x="806.19" y="-116.25" font-family="Helvetica,sans-Serif" font-size="10.00">TCollection.h</text>
</a>
</g>
</g>
<!-- Node20&#45;&gt;Node23 -->
<g id="edge26_Node000020_Node000023" class="edge">
<title>Node20&#45;&gt;Node23</title>
<g id="a_edge26_Node000020_Node000023"><a xlink:title=" ">
<path fill="none" stroke="#63b8ff" d="M819.55,-165.58C817.55,-158.92 814.72,-149.49 812.17,-141.03"/>
<polygon fill="#63b8ff" stroke="#63b8ff" points="815.56,-140.13 809.33,-131.56 808.85,-142.14 815.56,-140.13"/>
</a>
</g>
</g>
<!-- Node24 -->
<g id="Node000024" class="node">
<title>Node24</title>
<g id="a_Node000024"><a xlink:href="_globals_8h.html" target="_top" xlink:title=" ">
<polygon fill="white" stroke="#666666" points="717.44,-74.5 660.94,-74.5 660.94,-55.25 717.44,-55.25 717.44,-74.5"/>
<text text-anchor="middle" x="689.19" y="-61" font-family="Helvetica,sans-Serif" font-size="10.00">Globals.h</text>
</a>
</g>
</g>
<!-- Node20&#45;&gt;Node24 -->
<g id="edge27_Node000020_Node000024" class="edge">
<title>Node20&#45;&gt;Node24</title>
<g id="a_edge27_Node000020_Node000024"><a xlink:title=" ">
<path fill="none" stroke="#63b8ff" d="M796.79,-171C770.96,-166.23 731.5,-155.1 708.19,-129.75 697.28,-117.88 692.62,-100.01 690.64,-86.18"/>
<polygon fill="#63b8ff" stroke="#63b8ff" points="694.14,-86.01 689.62,-76.42 687.17,-86.73 694.14,-86.01"/>
</a>
</g>
</g>
<!-- Node37 -->
<g id="Node000037" class="node">
<title>Node37</title>
<g id="a_Node000037"><a xlink:href="_t_singleton_8h.html" target="_top" xlink:title=" ">
<polygon fill="white" stroke="#666666" points="968.19,-129.75 898.19,-129.75 898.19,-110.5 968.19,-110.5 968.19,-129.75"/>
<text text-anchor="middle" x="933.19" y="-116.25" font-family="Helvetica,sans-Serif" font-size="10.00">TSingleton.h</text>
</a>
</g>
</g>
<!-- Node20&#45;&gt;Node37 -->
<g id="edge42_Node000020_Node000037" class="edge">
<title>Node20&#45;&gt;Node37</title>
<g id="a_edge42_Node000020_Node000037"><a xlink:title=" ">
<path fill="none" stroke="#63b8ff" d="M841.02,-165.34C858.24,-157.08 883.99,-144.73 903.9,-135.18"/>
<polygon fill="#63b8ff" stroke="#63b8ff" points="905.4,-138.34 912.91,-130.86 902.38,-132.03 905.4,-138.34"/>
</a>
</g>
</g>
<!-- Node24&#45;&gt;Node6 -->
<g id="edge31_Node000024_Node000006" class="edge">
<title>Node24&#45;&gt;Node6</title>
<g id="a_edge31_Node000024_Node000006"><a xlink:title=" ">
<path fill="none" stroke="#63b8ff" d="M660.63,-60.37C590.27,-51.69 410.71,-29.33 353.87,-19.31"/>
<polygon fill="#63b8ff" stroke="#63b8ff" points="354.65,-15.9 344.17,-17.44 353.33,-22.77 354.65,-15.9"/>
</a>
</g>
</g>
<!-- Node24&#45;&gt;Node22 -->
<g id="edge28_Node000024_Node000022" class="edge">
<title>Node24&#45;&gt;Node22</title>
<g id="a_edge28_Node000024_Node000022"><a xlink:title=" ">
<path fill="none" stroke="#63b8ff" d="M717.58,-57.61C722.12,-56.74 726.78,-55.91 731.19,-55.25 898.97,-30.15 943.04,-41.69 1111.19,-19.25 1115.02,-18.74 1119,-18.15 1122.97,-17.53"/>
<polygon fill="#63b8ff" stroke="#63b8ff" points="1123.21,-21.03 1132.51,-15.95 1122.07,-14.13 1123.21,-21.03"/>
</a>
</g>
</g>
<!-- Node25 -->
<g id="Node000025" class="node">
<title>Node25</title>
<g id="a_Node000025"><a xlink:title=" ">
<polygon fill="#e0e0e0" stroke="#999999" points="966.07,-19.25 916.32,-19.25 916.32,0 966.07,0 966.07,-19.25"/>
<text text-anchor="middle" x="941.19" y="-5.75" font-family="Helvetica,sans-Serif" font-size="10.00">iomanip</text>
</a>
</g>
</g>
<!-- Node24&#45;&gt;Node25 -->
<g id="edge29_Node000024_Node000025" class="edge">
<title>Node24&#45;&gt;Node25</title>
<g id="a_edge29_Node000024_Node000025"><a xlink:title=" ">
<path fill="none" stroke="#63b8ff" d="M717.66,-58.03C722.19,-57.1 726.82,-56.15 731.19,-55.25 806.05,-39.91 827.54,-37.28 905.17,-19.63"/>
<polygon fill="#63b8ff" stroke="#63b8ff" points="905.53,-23.14 914.5,-17.5 903.97,-16.32 905.53,-23.14"/>
</a>
</g>
</g>
<!-- Node26 -->
<g id="Node000026" class="node">
<title>Node26</title>
<g id="a_Node000026"><a xlink:title=" ">
<polygon fill="#e0e0e0" stroke="#999999" points="1042.19,-19.25 984.19,-19.25 984.19,0 1042.19,0 1042.19,-19.25"/>
<text text-anchor="middle" x="1013.19" y="-5.75" font-family="Helvetica,sans-Serif" font-size="10.00">stdexcept</text>
</a>
</g>
</g>
<!-- Node24&#45;&gt;Node26 -->
<g id="edge30_Node000024_Node000026" class="edge">
<title>Node24&#45;&gt;Node26</title>
<g id="a_edge30_Node000024_Node000026"><a xlink:title=" ">
<path fill="none" stroke="#63b8ff" d="M717.62,-57.81C722.15,-56.91 726.79,-56.03 731.19,-55.25 835.56,-36.85 865.47,-39.21 972.48,-19.63"/>
<polygon fill="#63b8ff" stroke="#63b8ff" points="973.1,-23.08 982.29,-17.81 971.82,-16.19 973.1,-23.08"/>
</a>
</g>
</g>
<!-- Node27 -->
<g id="Node000027" class="node">
<title>Node27</title>
<g id="a_Node000027"><a xlink:title=" ">
<polygon fill="#e0e0e0" stroke="#999999" points="1102.32,-19.25 1060.07,-19.25 1060.07,0 1102.32,0 1102.32,-19.25"/>
<text text-anchor="middle" x="1081.19" y="-5.75" font-family="Helvetica,sans-Serif" font-size="10.00">cstdio</text>
</a>
</g>
</g>
<!-- Node24&#45;&gt;Node27 -->
<g id="edge32_Node000024_Node000027" class="edge">
<title>Node24&#45;&gt;Node27</title>
<g id="a_edge32_Node000024_Node000027"><a xlink:title=" ">
<path fill="none" stroke="#63b8ff" d="M717.6,-57.68C722.13,-56.8 726.78,-55.95 731.19,-55.25 868.96,-33.4 908.8,-46.42 1048.54,-19.47"/>
<polygon fill="#63b8ff" stroke="#63b8ff" points="1049.05,-22.94 1058.18,-17.57 1047.7,-16.07 1049.05,-22.94"/>
</a>
</g>
</g>
<!-- Node28 -->
<g id="Node000028" class="node">
<title>Node28</title>
<g id="a_Node000028"><a xlink:title=" ">
<polygon fill="#e0e0e0" stroke="#999999" points="404.44,-19.25 359.94,-19.25 359.94,0 404.44,0 404.44,-19.25"/>
<text text-anchor="middle" x="382.19" y="-5.75" font-family="Helvetica,sans-Serif" font-size="10.00">cstdlib</text>
</a>
</g>
</g>
<!-- Node24&#45;&gt;Node28 -->
<g id="edge33_Node000024_Node000028" class="edge">
<title>Node24&#45;&gt;Node28</title>
<g id="a_edge33_Node000024_Node000028"><a xlink:title=" ">
<path fill="none" stroke="#63b8ff" d="M660.79,-60.34C612.45,-54.1 510.93,-40.02 416.04,-19.68"/>
<polygon fill="#63b8ff" stroke="#63b8ff" points="416.8,-16.26 406.29,-17.55 415.31,-23.1 416.8,-16.26"/>
</a>
</g>
</g>
<!-- Node29 -->
<g id="Node000029" class="node">
<title>Node29</title>
<g id="a_Node000029"><a xlink:title=" ">
<polygon fill="#e0e0e0" stroke="#999999" points="481.94,-19.25 422.44,-19.25 422.44,0 481.94,0 481.94,-19.25"/>
<text text-anchor="middle" x="452.19" y="-5.75" font-family="Helvetica,sans-Serif" font-size="10.00">execinfo.h</text>
</a>
</g>
</g>
<!-- Node24&#45;&gt;Node29 -->
<g id="edge34_Node000024_Node000029" class="edge">
<title>Node24&#45;&gt;Node29</title>
<g id="a_edge34_Node000024_Node000029"><a xlink:title=" ">
<path fill="none" stroke="#63b8ff" d="M660.6,-57.45C618.98,-48.1 541.44,-30.68 493.57,-19.92"/>
<polygon fill="#63b8ff" stroke="#63b8ff" points="494.38,-16.52 483.85,-17.74 492.84,-23.35 494.38,-16.52"/>
</a>
</g>
</g>
<!-- Node30 -->
<g id="Node000030" class="node">
<title>Node30</title>
<g id="a_Node000030"><a xlink:title=" ">
<polygon fill="#e0e0e0" stroke="#999999" points="550.44,-19.25 499.94,-19.25 499.94,0 550.44,0 550.44,-19.25"/>
<text text-anchor="middle" x="525.19" y="-5.75" font-family="Helvetica,sans-Serif" font-size="10.00">cxxabi.h</text>
</a>
</g>
</g>
<!-- Node24&#45;&gt;Node30 -->
<g id="edge35_Node000024_Node000030" class="edge">
<title>Node24&#45;&gt;Node30</title>
<g id="a_edge35_Node000024_Node000030"><a xlink:title=" ">
<path fill="none" stroke="#63b8ff" d="M661.37,-54.84C633.9,-45.92 591.75,-32.23 561.62,-22.45"/>
<polygon fill="#63b8ff" stroke="#63b8ff" points="562.75,-19.14 552.16,-19.38 560.59,-25.8 562.75,-19.14"/>
</a>
</g>
</g>
<!-- Node24&#45;&gt;Node31 -->
<g id="edge36_Node000024_Node000031" class="edge">
<title>Node24&#45;&gt;Node31</title>
<g id="a_edge36_Node000024_Node000031"><a xlink:title=" ">
<path fill="none" stroke="#63b8ff" d="M717.66,-60.39C731.66,-58.73 748.8,-56.77 764.19,-55.25 956.36,-36.22 1005.42,-41.96 1197.19,-19.25 1203.36,-18.52 1209.89,-17.63 1216.23,-16.69"/>
<polygon fill="#63b8ff" stroke="#63b8ff" points="1216.46,-20.2 1225.82,-15.23 1215.4,-13.28 1216.46,-20.2"/>
</a>
</g>
</g>
<!-- Node32 -->
<g id="Node000032" class="node">
<title>Node32</title>
<g id="a_Node000032"><a xlink:title=" ">
<polygon fill="#e0e0e0" stroke="#999999" points="605.69,-19.25 568.69,-19.25 568.69,0 605.69,0 605.69,-19.25"/>
<text text-anchor="middle" x="587.19" y="-5.75" font-family="Helvetica,sans-Serif" font-size="10.00">array</text>
</a>
</g>
</g>
<!-- Node24&#45;&gt;Node32 -->
<g id="edge37_Node000024_Node000032" class="edge">
<title>Node24&#45;&gt;Node32</title>
<g id="a_edge37_Node000024_Node000032"><a xlink:title=" ">
<path fill="none" stroke="#63b8ff" d="M671.89,-54.84C656.21,-46.66 632.84,-34.46 614.62,-24.94"/>
<polygon fill="#63b8ff" stroke="#63b8ff" points="616.41,-21.93 605.92,-20.4 613.17,-28.13 616.41,-21.93"/>
</a>
</g>
</g>
<!-- Node33 -->
<g id="Node000033" class="node">
<title>Node33</title>
<g id="a_Node000033"><a xlink:title=" ">
<polygon fill="#e0e0e0" stroke="#999999" points="674.44,-19.25 623.94,-19.25 623.94,0 674.44,0 674.44,-19.25"/>
<text text-anchor="middle" x="649.19" y="-5.75" font-family="Helvetica,sans-Serif" font-size="10.00">memory</text>
</a>
</g>
</g>
<!-- Node24&#45;&gt;Node33 -->
<g id="edge38_Node000024_Node000033" class="edge">
<title>Node24&#45;&gt;Node33</title>
<g id="a_edge38_Node000024_Node000033"><a xlink:title=" ">
<path fill="none" stroke="#63b8ff" d="M682.59,-55.08C677.23,-47.96 669.51,-37.68 662.84,-28.8"/>
<polygon fill="#63b8ff" stroke="#63b8ff" points="665.65,-26.71 656.85,-20.82 660.06,-30.92 665.65,-26.71"/>
</a>
</g>
</g>
<!-- Node34 -->
<g id="Node000034" class="node">
<title>Node34</title>
<g id="a_Node000034"><a xlink:title=" ">
<polygon fill="#e0e0e0" stroke="#999999" points="742.07,-19.25 692.32,-19.25 692.32,0 742.07,0 742.07,-19.25"/>
<text text-anchor="middle" x="717.19" y="-5.75" font-family="Helvetica,sans-Serif" font-size="10.00">unistd.h</text>
</a>
</g>
</g>
<!-- Node24&#45;&gt;Node34 -->
<g id="edge39_Node000024_Node000034" class="edge">
<title>Node24&#45;&gt;Node34</title>
<g id="a_edge39_Node000024_Node000034"><a xlink:title=" ">
<path fill="none" stroke="#63b8ff" d="M693.82,-55.08C697.44,-48.19 702.62,-38.34 707.18,-29.66"/>
<polygon fill="#63b8ff" stroke="#63b8ff" points="710.21,-31.43 711.76,-20.95 704.01,-28.17 710.21,-31.43"/>
</a>
</g>
</g>
<!-- Node35 -->
<g id="Node000035" class="node">
<title>Node35</title>
<g id="a_Node000035"><a xlink:title=" ">
<polygon fill="#e0e0e0" stroke="#999999" points="819.94,-19.25 760.44,-19.25 760.44,0 819.94,0 819.94,-19.25"/>
<text text-anchor="middle" x="790.19" y="-5.75" font-family="Helvetica,sans-Serif" font-size="10.00">sys/wait.h</text>
</a>
</g>
</g>
<!-- Node24&#45;&gt;Node35 -->
<g id="edge40_Node000024_Node000035" class="edge">
<title>Node24&#45;&gt;Node35</title>
<g id="a_edge40_Node000024_Node000035"><a xlink:title=" ">
<path fill="none" stroke="#63b8ff" d="M706.33,-54.84C721.85,-46.66 744.99,-34.46 763.04,-24.94"/>
<polygon fill="#63b8ff" stroke="#63b8ff" points="764.42,-28.17 771.64,-20.41 761.16,-21.98 764.42,-28.17"/>
</a>
</g>
</g>
<!-- Node36 -->
<g id="Node000036" class="node">
<title>Node36</title>
<g id="a_Node000036"><a xlink:title=" ">
<polygon fill="#e0e0e0" stroke="#999999" points="898.32,-19.25 838.07,-19.25 838.07,0 898.32,0 898.32,-19.25"/>
<text text-anchor="middle" x="868.19" y="-5.75" font-family="Helvetica,sans-Serif" font-size="10.00">sys/prctl.h</text>
</a>
</g>
</g>
<!-- Node24&#45;&gt;Node36 -->
<g id="edge41_Node000024_Node000036" class="edge">
<title>Node24&#45;&gt;Node36</title>
<g id="a_edge41_Node000024_Node000036"><a xlink:title=" ">
<path fill="none" stroke="#63b8ff" d="M717.56,-55.44C747.05,-46.66 793.51,-32.84 827.04,-22.87"/>
<polygon fill="#63b8ff" stroke="#63b8ff" points="827.83,-26.28 836.42,-20.08 825.83,-19.57 827.83,-26.28"/>
</a>
</g>
</g>
<!-- Node37&#45;&gt;Node17 -->
<g id="edge44_Node000037_Node000017" class="edge">
<title>Node37&#45;&gt;Node17</title>
<g id="a_edge44_Node000037_Node000017"><a xlink:title=" ">
<path fill="none" stroke="#63b8ff" d="M964.58,-110.09C995.79,-101.11 1043.8,-87.29 1077.84,-77.49"/>
<polygon fill="#63b8ff" stroke="#63b8ff" points="1078.7,-80.88 1087.34,-74.75 1076.76,-74.16 1078.7,-80.88"/>
</a>
</g>
</g>
<!-- Node37&#45;&gt;Node22 -->
<g id="edge43_Node000037_Node000022" class="edge">
<title>Node37&#45;&gt;Node22</title>
<g id="a_edge43_Node000037_Node000022"><a xlink:title=" ">
<path fill="none" stroke="#63b8ff" d="M957.32,-110.08C979.61,-101.53 1013.53,-88.02 1042.19,-74.5 1060.04,-66.08 1105.87,-41.12 1135.16,-25.01"/>
<polygon fill="#63b8ff" stroke="#63b8ff" points="1136.73,-28.14 1143.8,-20.25 1133.35,-22.01 1136.73,-28.14"/>
</a>
</g>
</g>
<!-- Node37&#45;&gt;Node24 -->
<g id="edge49_Node000037_Node000024" class="edge">
<title>Node37&#45;&gt;Node24</title>
<g id="a_edge49_Node000037_Node000024"><a xlink:title=" ">
<path fill="none" stroke="#63b8ff" d="M897.71,-111.38C852.87,-101.6 775.91,-84.8 729.07,-74.58"/>
<polygon fill="#63b8ff" stroke="#63b8ff" points="729.85,-71.17 719.33,-72.45 728.36,-78 729.85,-71.17"/>
</a>
</g>
</g>
<!-- Node38 -->
<g id="Node000038" class="node">
<title>Node38</title>
<g id="a_Node000038"><a xlink:title=" ">
<polygon fill="#e0e0e0" stroke="#999999" points="1033.07,-74.5 965.32,-74.5 965.32,-55.25 1033.07,-55.25 1033.07,-74.5"/>
<text text-anchor="middle" x="999.19" y="-61" font-family="Helvetica,sans-Serif" font-size="10.00">TDirectory.h</text>
</a>
</g>
</g>
<!-- Node37&#45;&gt;Node38 -->
<g id="edge45_Node000037_Node000038" class="edge">
<title>Node37&#45;&gt;Node38</title>
<g id="a_edge45_Node000037_Node000038"><a xlink:title=" ">
<path fill="none" stroke="#63b8ff" d="M944.39,-110.09C953.93,-102.4 967.87,-91.15 979.3,-81.93"/>
<polygon fill="#63b8ff" stroke="#63b8ff" points="981.4,-84.73 986.98,-75.73 977,-79.28 981.4,-84.73"/>
</a>
</g>
</g>
<!-- Node39 -->
<g id="Node000039" class="node">
<title>Node39</title>
<g id="a_Node000039"><a xlink:title=" ">
<polygon fill="#e0e0e0" stroke="#999999" points="818.82,-74.5 773.57,-74.5 773.57,-55.25 818.82,-55.25 818.82,-74.5"/>
<text text-anchor="middle" x="796.19" y="-61" font-family="Helvetica,sans-Serif" font-size="10.00">TFile.h</text>
</a>
</g>
</g>
<!-- Node37&#45;&gt;Node39 -->
<g id="edge46_Node000037_Node000039" class="edge">
<title>Node37&#45;&gt;Node39</title>
<g id="a_edge46_Node000037_Node000039"><a xlink:title=" ">
<path fill="none" stroke="#63b8ff" d="M909.95,-110.09C887.87,-101.51 854.44,-88.52 829.53,-78.83"/>
<polygon fill="#63b8ff" stroke="#63b8ff" points="831.09,-75.68 820.5,-75.32 828.55,-82.21 831.09,-75.68"/>
</a>
</g>
</g>
<!-- Node40 -->
<g id="Node000040" class="node">
<title>Node40</title>
<g id="a_Node000040"><a xlink:title=" ">
<polygon fill="#e0e0e0" stroke="#999999" points="883.19,-74.5 837.19,-74.5 837.19,-55.25 883.19,-55.25 883.19,-74.5"/>
<text text-anchor="middle" x="860.19" y="-61" font-family="Helvetica,sans-Serif" font-size="10.00">TList.h</text>
</a>
</g>
</g>
<!-- Node37&#45;&gt;Node40 -->
<g id="edge47_Node000037_Node000040" class="edge">
<title>Node37&#45;&gt;Node40</title>
<g id="a_edge47_Node000037_Node000040"><a xlink:title=" ">
<path fill="none" stroke="#63b8ff" d="M920.81,-110.09C910.05,-102.24 894.22,-90.7 881.44,-81.37"/>
<polygon fill="#63b8ff" stroke="#63b8ff" points="883.76,-78.73 873.62,-75.67 879.63,-84.39 883.76,-78.73"/>
</a>
</g>
</g>
<!-- Node41 -->
<g id="Node000041" class="node">
<title>Node41</title>
<g id="a_Node000041"><a xlink:title=" ">
<polygon fill="#e0e0e0" stroke="#999999" points="947.19,-74.5 901.19,-74.5 901.19,-55.25 947.19,-55.25 947.19,-74.5"/>
<text text-anchor="middle" x="924.19" y="-61" font-family="Helvetica,sans-Serif" font-size="10.00">TKey.h</text>
</a>
</g>
</g>
<!-- Node37&#45;&gt;Node41 -->
<g id="edge48_Node000037_Node000041" class="edge">
<title>Node37&#45;&gt;Node41</title>
<g id="a_edge48_Node000037_Node000041"><a xlink:title=" ">
<path fill="none" stroke="#63b8ff" d="M931.71,-110.33C930.59,-103.74 929.02,-94.46 927.61,-86.07"/>
<polygon fill="#63b8ff" stroke="#63b8ff" points="931.08,-85.63 925.96,-76.35 924.18,-86.8 931.08,-85.63"/>
</a>
</g>
</g>
<!-- Node42&#45;&gt;Node22 -->
<g id="edge51_Node000042_Node000022" class="edge">
<title>Node42&#45;&gt;Node22</title>
<g id="a_edge51_Node000042_Node000022"><a xlink:title=" ">
<path fill="none" stroke="#63b8ff" d="M995.78,-165.26C1039.6,-143.6 1146.45,-89.7 1156.19,-74.5 1164.38,-61.73 1165.26,-44.43 1164.3,-31.06"/>
<polygon fill="#63b8ff" stroke="#63b8ff" points="1167.79,-30.75 1163.16,-21.22 1160.83,-31.55 1167.79,-30.75"/>
</a>
</g>
</g>
<!-- Node43 -->
<g id="Node000043" class="node">
<title>Node43</title>
<g id="a_Node000043"><a xlink:title=" ">
<polygon fill="#e0e0e0" stroke="#999999" points="1185.07,-129.75 1111.32,-129.75 1111.32,-110.5 1185.07,-110.5 1185.07,-129.75"/>
<text text-anchor="middle" x="1148.19" y="-116.25" font-family="Helvetica,sans-Serif" font-size="10.00">RtypesCore.h</text>
</a>
</g>
</g>
<!-- Node42&#45;&gt;Node43 -->
<g id="edge52_Node000042_Node000043" class="edge">
<title>Node42&#45;&gt;Node43</title>
<g id="a_edge52_Node000042_Node000043"><a xlink:title=" ">
<path fill="none" stroke="#63b8ff" d="M1006.2,-165.34C1034.21,-156.62 1076.85,-143.34 1108.09,-133.61"/>
<polygon fill="#63b8ff" stroke="#63b8ff" points="1109.09,-136.97 1117.6,-130.65 1107.01,-130.28 1109.09,-136.97"/>
</a>
</g>
</g>
</g>
</svg>
