<?xml version="1.0" encoding="UTF-8" standalone="no"?>
<!DOCTYPE svg PUBLIC "-//W3C//DTD SVG 1.1//EN"
 "http://www.w3.org/Graphics/SVG/1.1/DTD/svg11.dtd">
<!-- Generated by graphviz version 12.2.0 (20241103.1931)
 -->
<!-- Title: TFippsTACHit.h Pages: 1 -->
<!--zoomable 359 -->

<svg id="main" version="1.1" xmlns="http://www.w3.org/2000/svg" xmlns:xlink="http://www.w3.org/1999/xlink" xml:space="preserve" onload="init(evt)">

<style type="text/css"><![CDATA[
.node, .edge {opacity: 0.7;}
.node.selected, .edge.selected {opacity: 1;}
.edge:hover path { stroke: red; }
.edge:hover polygon { stroke: red; fill: red; }
]]></style>

<defs>
  <circle id="rim" cx="0" cy="0" r="7"/>
  <circle id="rim2" cx="0" cy="0" r="3.5"/>
  <g id="zoomPlus">
    <use xlink:href="#rim" fill="#404040"><set attributeName="fill" to="#808080" begin="zoomplus.mouseover" end="zoomplus.mouseout"/></use>
    <path d="M-4,0h8M0,-4v8" fill="none" stroke="white" stroke-width="1.5" pointer-events="none"/>
  </g>
  <g id="zoomMin">
    <use xlink:href="#rim" fill="#404040"><set attributeName="fill" to="#808080" begin="zoomminus.mouseover" end="zoomminus.mouseout"/></use>
    <path d="M-4,0h8" fill="none" stroke="white" stroke-width="1.5" pointer-events="none"/>
  </g>
  <g id="arrowUp" transform="translate(30 24)">
    <use xlink:href="#rim"/>
    <path pointer-events="none" fill="none" stroke="white" stroke-width="1.5" d="M0,-3.0v7 M-2.5,-0.5L0,-3.0L2.5,-0.5"/>
  </g>
  <g id="arrowRight" transform="rotate(90) translate(36 -43)">
    <use xlink:href="#rim"/>
    <path pointer-events="none" fill="none" stroke="white" stroke-width="1.5" d="M0,-3.0v7 M-2.5,-0.5L0,-3.0L2.5,-0.5"/>
  </g>
  <g id="arrowDown" transform="rotate(180) translate(-30 -48)">
    <use xlink:href="#rim"/>
    <path pointer-events="none" fill="none" stroke="white" stroke-width="1.5" d="M0,-3.0v7 M-2.5,-0.5L0,-3.0L2.5,-0.5"/>
  </g>
  <g id="arrowLeft" transform="rotate(270) translate(-36 17)">
    <use xlink:href="#rim"/>
    <path pointer-events="none" fill="none" stroke="white" stroke-width="1.5" d="M0,-3.0v7 M-2.5,-0.5L0,-3.0L2.5,-0.5"/>
  </g>
  <g id="resetDef">
    <use xlink:href="#rim2" fill="#404040"><set attributeName="fill" to="#808080" begin="reset.mouseover" end="reset.mouseout"/></use>
  </g>
</defs>
<script type="application/ecmascript">
var viewWidth = 1311;
var viewHeight = 359;
var sectionId = 'dynsection-0';
</script>
<script type="application/ecmascript" xlink:href="svg.min.js"/>
<svg id="graph" class="graph">
<g id="viewport">
<title>TFippsTACHit.h</title>
<!-- Node1 -->
<g id="Node000001" class="node">
<title>Node1</title>
<g id="a_Node000001"><a xlink:title=" ">
<polygon fill="#999999" stroke="#666666" points="892.88,-350.75 807.12,-350.75 807.12,-331.5 892.88,-331.5 892.88,-350.75"/>
<text text-anchor="middle" x="850" y="-337.25" font-family="Helvetica,sans-Serif" font-size="10.00">TFippsTACHit.h</text>
</a>
</g>
</g>
<!-- Node2 -->
<g id="Node000002" class="node">
<title>Node2</title>
<g id="a_Node000002"><a xlink:title=" ">
<polygon fill="#e0e0e0" stroke="#999999" points="101.12,-19.25 58.88,-19.25 58.88,0 101.12,0 101.12,-19.25"/>
<text text-anchor="middle" x="80" y="-5.75" font-family="Helvetica,sans-Serif" font-size="10.00">cstdio</text>
</a>
</g>
</g>
<!-- Node1&#45;&gt;Node2 -->
<g id="edge1_Node000001_Node000002" class="edge">
<title>Node1&#45;&gt;Node2</title>
<g id="a_edge1_Node000001_Node000002"><a xlink:title=" ">
<path fill="none" stroke="#63b8ff" d="M806.68,-339.2C633.47,-334.96 0,-313.82 0,-231.62 0,-231.62 0,-231.62 0,-119.12 0,-80.04 34.04,-45.78 57.71,-26.68"/>
<polygon fill="#63b8ff" stroke="#63b8ff" points="59.81,-29.48 65.59,-20.6 55.54,-23.94 59.81,-29.48"/>
</a>
</g>
</g>
<!-- Node3 -->
<g id="Node000003" class="node">
<title>Node3</title>
<g id="a_Node000003"><a xlink:title=" ">
<polygon fill="#e0e0e0" stroke="#999999" points="1229.5,-129.75 1186.5,-129.75 1186.5,-110.5 1229.5,-110.5 1229.5,-129.75"/>
<text text-anchor="middle" x="1208" y="-116.25" font-family="Helvetica,sans-Serif" font-size="10.00">cmath</text>
</a>
</g>
</g>
<!-- Node1&#45;&gt;Node3 -->
<g id="edge2_Node000001_Node000003" class="edge">
<title>Node1&#45;&gt;Node3</title>
<g id="a_edge2_Node000001_Node000003"><a xlink:title=" ">
<path fill="none" stroke="#63b8ff" d="M864.48,-331.27C919.35,-297.7 1114.89,-178.09 1183.77,-135.95"/>
<polygon fill="#63b8ff" stroke="#63b8ff" points="1185.35,-139.09 1192.05,-130.88 1181.69,-133.11 1185.35,-139.09"/>
</a>
</g>
</g>
<!-- Node4 -->
<g id="Node000004" class="node">
<title>Node4</title>
<g id="a_Node000004"><a xlink:href="_t_fragment_8h.html" target="_top" xlink:title=" ">
<polygon fill="white" stroke="#666666" points="514.38,-295.5 443.62,-295.5 443.62,-276.25 514.38,-276.25 514.38,-295.5"/>
<text text-anchor="middle" x="479" y="-282" font-family="Helvetica,sans-Serif" font-size="10.00">TFragment.h</text>
</a>
</g>
</g>
<!-- Node1&#45;&gt;Node4 -->
<g id="edge3_Node000001_Node000004" class="edge">
<title>Node1&#45;&gt;Node4</title>
<g id="a_edge3_Node000001_Node000004"><a xlink:title=" ">
<path fill="none" stroke="#63b8ff" d="M806.72,-333.91C736.5,-323.83 598.34,-304 525.88,-293.6"/>
<polygon fill="#63b8ff" stroke="#63b8ff" points="526.73,-290.19 516.33,-292.23 525.73,-297.12 526.73,-290.19"/>
</a>
</g>
</g>
<!-- Node5 -->
<g id="Node000005" class="node">
<title>Node5</title>
<g id="a_Node000005"><a xlink:href="_t_detector_hit_8h.html" target="_top" xlink:title=" ">
<polygon fill="white" stroke="#666666" points="440.5,-240.25 361.5,-240.25 361.5,-221 440.5,-221 440.5,-240.25"/>
<text text-anchor="middle" x="401" y="-226.75" font-family="Helvetica,sans-Serif" font-size="10.00">TDetectorHit.h</text>
</a>
</g>
</g>
<!-- Node1&#45;&gt;Node5 -->
<g id="edge63_Node000001_Node000005" class="edge">
<title>Node1&#45;&gt;Node5</title>
<g id="a_edge63_Node000001_Node000005"><a xlink:title=" ">
<path fill="none" stroke="#63b8ff" d="M806.68,-340.48C712.92,-340.46 494.81,-335.93 435,-295.5 419.88,-285.28 410.97,-266.08 406.09,-251.39"/>
<polygon fill="#63b8ff" stroke="#63b8ff" points="409.47,-250.48 403.32,-241.86 402.75,-252.44 409.47,-250.48"/>
</a>
</g>
</g>
<!-- Node7 -->
<g id="Node000007" class="node">
<title>Node7</title>
<g id="a_Node000007"><a xlink:href="_t_channel_8h.html" target="_top" xlink:title=" ">
<polygon fill="white" stroke="#666666" points="882.38,-185 817.62,-185 817.62,-165.75 882.38,-165.75 882.38,-185"/>
<text text-anchor="middle" x="850" y="-171.5" font-family="Helvetica,sans-Serif" font-size="10.00">TChannel.h</text>
</a>
</g>
</g>
<!-- Node1&#45;&gt;Node7 -->
<g id="edge60_Node000001_Node000007" class="edge">
<title>Node1&#45;&gt;Node7</title>
<g id="a_edge60_Node000001_Node000007"><a xlink:title=" ">
<path fill="none" stroke="#63b8ff" d="M850,-331.32C850,-306 850,-232.5 850,-196.59"/>
<polygon fill="#63b8ff" stroke="#63b8ff" points="853.5,-196.74 850,-186.74 846.5,-196.74 853.5,-196.74"/>
</a>
</g>
</g>
<!-- Node13 -->
<g id="Node000013" class="node">
<title>Node13</title>
<g id="a_Node000013"><a xlink:title=" ">
<polygon fill="#e0e0e0" stroke="#999999" points="1302.88,-129.75 1247.12,-129.75 1247.12,-110.5 1302.88,-110.5 1302.88,-129.75"/>
<text text-anchor="middle" x="1275" y="-116.25" font-family="Helvetica,sans-Serif" font-size="10.00">TGraph.h</text>
</a>
</g>
</g>
<!-- Node1&#45;&gt;Node13 -->
<g id="edge61_Node000001_Node000013" class="edge">
<title>Node1&#45;&gt;Node13</title>
<g id="a_edge61_Node000001_Node000013"><a xlink:title=" ">
<path fill="none" stroke="#63b8ff" d="M872.58,-331.14C893.83,-322.52 926.42,-308.87 954,-295.5 1066.62,-240.89 1196.36,-166.86 1249.9,-135.79"/>
<polygon fill="#63b8ff" stroke="#63b8ff" points="1251.37,-138.99 1258.26,-130.93 1247.86,-132.94 1251.37,-138.99"/>
</a>
</g>
</g>
<!-- Node17 -->
<g id="Node000017" class="node">
<title>Node17</title>
<g id="a_Node000017"><a xlink:title=" ">
<polygon fill="#e0e0e0" stroke="#999999" points="963.62,-185 900.38,-185 900.38,-165.75 963.62,-165.75 963.62,-185"/>
<text text-anchor="middle" x="932" y="-171.5" font-family="Helvetica,sans-Serif" font-size="10.00">TVector3.h</text>
</a>
</g>
</g>
<!-- Node1&#45;&gt;Node17 -->
<g id="edge62_Node000001_Node000017" class="edge">
<title>Node1&#45;&gt;Node17</title>
<g id="a_edge62_Node000001_Node000017"><a xlink:title=" ">
<path fill="none" stroke="#63b8ff" d="M854.41,-331.32C867.26,-305.67 904.87,-230.55 922.58,-195.19"/>
<polygon fill="#63b8ff" stroke="#63b8ff" points="925.54,-197.08 926.89,-186.58 919.28,-193.95 925.54,-197.08"/>
</a>
</g>
</g>
<!-- Node4&#45;&gt;Node5 -->
<g id="edge4_Node000004_Node000005" class="edge">
<title>Node4&#45;&gt;Node5</title>
<g id="a_edge4_Node000004_Node000005"><a xlink:title=" ">
<path fill="none" stroke="#63b8ff" d="M465.77,-275.84C454.23,-267.96 437.23,-256.36 423.55,-247.02"/>
<polygon fill="#63b8ff" stroke="#63b8ff" points="425.78,-244.3 415.55,-241.56 421.83,-250.08 425.78,-244.3"/>
</a>
</g>
</g>
<!-- Node6 -->
<g id="Node000006" class="node">
<title>Node6</title>
<g id="a_Node000006"><a xlink:title=" ">
<polygon fill="#e0e0e0" stroke="#999999" points="743.5,-74.5 700.5,-74.5 700.5,-55.25 743.5,-55.25 743.5,-74.5"/>
<text text-anchor="middle" x="722" y="-61" font-family="Helvetica,sans-Serif" font-size="10.00">vector</text>
</a>
</g>
</g>
<!-- Node4&#45;&gt;Node6 -->
<g id="edge57_Node000004_Node000006" class="edge">
<title>Node4&#45;&gt;Node6</title>
<g id="a_edge57_Node000004_Node000006"><a xlink:title=" ">
<path fill="none" stroke="#63b8ff" d="M490.73,-275.95C520.69,-252.95 602.05,-189.3 664,-129.75 679.47,-114.88 695.78,-96.65 707.16,-83.48"/>
<polygon fill="#63b8ff" stroke="#63b8ff" points="709.67,-85.93 713.5,-76.06 704.34,-81.39 709.67,-85.93"/>
</a>
</g>
</g>
<!-- Node19 -->
<g id="Node000019" class="node">
<title>Node19</title>
<g id="a_Node000019"><a xlink:title=" ">
<polygon fill="#e0e0e0" stroke="#999999" points="157.75,-185 104.25,-185 104.25,-165.75 157.75,-165.75 157.75,-185"/>
<text text-anchor="middle" x="131" y="-171.5" font-family="Helvetica,sans-Serif" font-size="10.00">Rtypes.h</text>
</a>
</g>
</g>
<!-- Node4&#45;&gt;Node19 -->
<g id="edge59_Node000004_Node000019" class="edge">
<title>Node4&#45;&gt;Node19</title>
<g id="a_edge59_Node000004_Node000019"><a xlink:title=" ">
<path fill="none" stroke="#63b8ff" d="M449.93,-275.81C387.1,-256.22 238.71,-209.96 168.75,-188.14"/>
<polygon fill="#63b8ff" stroke="#63b8ff" points="169.85,-184.82 159.27,-185.19 167.77,-191.51 169.85,-184.82"/>
</a>
</g>
</g>
<!-- Node21 -->
<g id="Node000021" class="node">
<title>Node21</title>
<g id="a_Node000021"><a xlink:href="_t_p_p_g_8h.html" target="_top" xlink:title=" ">
<polygon fill="white" stroke="#666666" points="452.25,-185 401.75,-185 401.75,-165.75 452.25,-165.75 452.25,-185"/>
<text text-anchor="middle" x="427" y="-171.5" font-family="Helvetica,sans-Serif" font-size="10.00">TPPG.h</text>
</a>
</g>
</g>
<!-- Node4&#45;&gt;Node21 -->
<g id="edge55_Node000004_Node000021" class="edge">
<title>Node4&#45;&gt;Node21</title>
<g id="a_edge55_Node000004_Node000021"><a xlink:title=" ">
<path fill="none" stroke="#63b8ff" d="M488.51,-275.9C500.7,-263.25 519.03,-239.66 508,-221 498.22,-204.44 479.86,-193.61 463.09,-186.77"/>
<polygon fill="#63b8ff" stroke="#63b8ff" points="464.42,-183.53 453.83,-183.36 462,-190.1 464.42,-183.53"/>
</a>
</g>
</g>
<!-- Node23 -->
<g id="Node000023" class="node">
<title>Node23</title>
<g id="a_Node000023"><a xlink:title=" ">
<polygon fill="#e0e0e0" stroke="#999999" points="271.75,-19.25 218.25,-19.25 218.25,0 271.75,0 271.75,-19.25"/>
<text text-anchor="middle" x="245" y="-5.75" font-family="Helvetica,sans-Serif" font-size="10.00">iostream</text>
</a>
</g>
</g>
<!-- Node4&#45;&gt;Node23 -->
<g id="edge56_Node000004_Node000023" class="edge">
<title>Node4&#45;&gt;Node23</title>
<g id="a_edge56_Node000004_Node000023"><a xlink:title=" ">
<path fill="none" stroke="#63b8ff" d="M443.24,-282.9C344.61,-276.49 76,-252.09 76,-176.38 76,-176.38 76,-176.38 76,-119.12 76,-57.34 156.97,-29.11 206.82,-17.58"/>
<polygon fill="#63b8ff" stroke="#63b8ff" points="207.34,-21.04 216.37,-15.5 205.85,-14.2 207.34,-21.04"/>
</a>
</g>
</g>
<!-- Node44 -->
<g id="Node000044" class="node">
<title>Node44</title>
<g id="a_Node000044"><a xlink:title=" ">
<polygon fill="#e0e0e0" stroke="#999999" points="499,-240.25 459,-240.25 459,-221 499,-221 499,-240.25"/>
<text text-anchor="middle" x="479" y="-226.75" font-family="Helvetica,sans-Serif" font-size="10.00">ctime</text>
</a>
</g>
</g>
<!-- Node4&#45;&gt;Node44 -->
<g id="edge58_Node000004_Node000044" class="edge">
<title>Node4&#45;&gt;Node44</title>
<g id="a_edge58_Node000004_Node000044"><a xlink:title=" ">
<path fill="none" stroke="#63b8ff" d="M479,-276.08C479,-269.57 479,-260.42 479,-252.12"/>
<polygon fill="#63b8ff" stroke="#63b8ff" points="482.5,-252.12 479,-242.12 475.5,-252.12 482.5,-252.12"/>
</a>
</g>
</g>
<!-- Node5&#45;&gt;Node6 -->
<g id="edge5_Node000005_Node000006" class="edge">
<title>Node5&#45;&gt;Node6</title>
<g id="a_edge5_Node000005_Node000006"><a xlink:title=" ">
<path fill="none" stroke="#63b8ff" d="M414.67,-220.8C447.26,-199.96 532.5,-146.75 608,-110.5 634.84,-97.61 666.44,-85.47 689.55,-77.11"/>
<polygon fill="#63b8ff" stroke="#63b8ff" points="690.49,-80.49 698.74,-73.84 688.14,-73.9 690.49,-80.49"/>
</a>
</g>
</g>
<!-- Node5&#45;&gt;Node7 -->
<g id="edge6_Node000005_Node000007" class="edge">
<title>Node5&#45;&gt;Node7</title>
<g id="a_edge6_Node000005_Node000007"><a xlink:title=" ">
<path fill="none" stroke="#63b8ff" d="M440.81,-222.4C443.92,-221.9 447.01,-221.43 450,-221 579.01,-202.47 732.37,-187.25 806.11,-180.36"/>
<polygon fill="#63b8ff" stroke="#63b8ff" points="806.11,-183.87 815.74,-179.46 805.46,-176.9 806.11,-183.87"/>
</a>
</g>
</g>
<!-- Node5&#45;&gt;Node17 -->
<g id="edge19_Node000005_Node000017" class="edge">
<title>Node5&#45;&gt;Node17</title>
<g id="a_edge19_Node000005_Node000017"><a xlink:title=" ">
<path fill="none" stroke="#63b8ff" d="M440.8,-222.3C443.91,-221.83 447,-221.39 450,-221 641.43,-196.39 694.44,-212.67 889.09,-185.07"/>
<polygon fill="#63b8ff" stroke="#63b8ff" points="889.39,-188.56 898.79,-183.67 888.39,-181.64 889.39,-188.56"/>
</a>
</g>
</g>
<!-- Node18 -->
<g id="Node000018" class="node">
<title>Node18</title>
<g id="a_Node000018"><a xlink:title=" ">
<polygon fill="#e0e0e0" stroke="#999999" points="254,-74.5 196,-74.5 196,-55.25 254,-55.25 254,-74.5"/>
<text text-anchor="middle" x="225" y="-61" font-family="Helvetica,sans-Serif" font-size="10.00">TObject.h</text>
</a>
</g>
</g>
<!-- Node5&#45;&gt;Node18 -->
<g id="edge20_Node000005_Node000018" class="edge">
<title>Node5&#45;&gt;Node18</title>
<g id="a_edge20_Node000005_Node000018"><a xlink:title=" ">
<path fill="none" stroke="#63b8ff" d="M396.97,-220.81C390.22,-207.04 375.37,-180.49 355,-165.75 311.95,-134.61 277.42,-168.44 241,-129.75 229.96,-118.02 226.23,-99.86 225.1,-85.9"/>
<polygon fill="#63b8ff" stroke="#63b8ff" points="228.6,-85.93 224.72,-76.07 221.61,-86.2 228.6,-85.93"/>
</a>
</g>
</g>
<!-- Node5&#45;&gt;Node19 -->
<g id="edge21_Node000005_Node000019" class="edge">
<title>Node5&#45;&gt;Node19</title>
<g id="a_edge21_Node000005_Node000019"><a xlink:title=" ">
<path fill="none" stroke="#63b8ff" d="M361.37,-222.77C316.83,-214.92 242.12,-201.32 169.3,-185.64"/>
<polygon fill="#63b8ff" stroke="#63b8ff" points="170.09,-182.23 159.58,-183.53 168.61,-189.07 170.09,-182.23"/>
</a>
</g>
</g>
<!-- Node20 -->
<g id="Node000020" class="node">
<title>Node20</title>
<g id="a_Node000020"><a xlink:title=" ">
<polygon fill="#e0e0e0" stroke="#999999" points="345.75,-185 280.25,-185 280.25,-165.75 345.75,-165.75 345.75,-185"/>
<text text-anchor="middle" x="313" y="-171.5" font-family="Helvetica,sans-Serif" font-size="10.00">TRandom.h</text>
</a>
</g>
</g>
<!-- Node5&#45;&gt;Node20 -->
<g id="edge22_Node000005_Node000020" class="edge">
<title>Node5&#45;&gt;Node20</title>
<g id="a_edge22_Node000005_Node000020"><a xlink:title=" ">
<path fill="none" stroke="#63b8ff" d="M386.07,-220.59C372.8,-212.56 353.13,-200.66 337.55,-191.23"/>
<polygon fill="#63b8ff" stroke="#63b8ff" points="339.66,-188.42 329.3,-186.24 336.04,-194.41 339.66,-188.42"/>
</a>
</g>
</g>
<!-- Node5&#45;&gt;Node21 -->
<g id="edge23_Node000005_Node000021" class="edge">
<title>Node5&#45;&gt;Node21</title>
<g id="a_edge23_Node000005_Node000021"><a xlink:title=" ">
<path fill="none" stroke="#63b8ff" d="M405.29,-220.83C408.62,-214.01 413.36,-204.31 417.56,-195.7"/>
<polygon fill="#63b8ff" stroke="#63b8ff" points="420.71,-197.24 421.95,-186.72 414.42,-194.17 420.71,-197.24"/>
</a>
</g>
</g>
<!-- Node42 -->
<g id="Node000042" class="node">
<title>Node42</title>
<g id="a_Node000042"><a xlink:href="_t_transient_bits_8h.html" target="_top" xlink:title=" ">
<polygon fill="white" stroke="#666666" points="262.62,-185 175.38,-185 175.38,-165.75 262.62,-165.75 262.62,-185"/>
<text text-anchor="middle" x="219" y="-171.5" font-family="Helvetica,sans-Serif" font-size="10.00">TTransientBits.h</text>
</a>
</g>
</g>
<!-- Node5&#45;&gt;Node42 -->
<g id="edge52_Node000005_Node000042" class="edge">
<title>Node5&#45;&gt;Node42</title>
<g id="a_edge52_Node000005_Node000042"><a xlink:title=" ">
<path fill="none" stroke="#63b8ff" d="M370.13,-220.59C340.06,-211.79 294.14,-198.36 260.81,-188.61"/>
<polygon fill="#63b8ff" stroke="#63b8ff" points="262.06,-185.33 251.48,-185.88 260.09,-192.04 262.06,-185.33"/>
</a>
</g>
</g>
<!-- Node7&#45;&gt;Node3 -->
<g id="edge8_Node000007_Node000003" class="edge">
<title>Node7&#45;&gt;Node3</title>
<g id="a_edge8_Node000007_Node000003"><a xlink:title=" ">
<path fill="none" stroke="#63b8ff" d="M882.63,-167.27C885.45,-166.72 888.27,-166.21 891,-165.75 1015.15,-144.77 1048.15,-152.45 1172,-129.75 1173.17,-129.54 1174.36,-129.31 1175.56,-129.07"/>
<polygon fill="#63b8ff" stroke="#63b8ff" points="1175.88,-132.58 1184.9,-127.03 1174.38,-125.74 1175.88,-132.58"/>
</a>
</g>
</g>
<!-- Node8 -->
<g id="Node000008" class="node">
<title>Node8</title>
<g id="a_Node000008"><a xlink:title=" ">
<polygon fill="#e0e0e0" stroke="#999999" points="1099,-19.25 1059,-19.25 1059,0 1099,0 1099,-19.25"/>
<text text-anchor="middle" x="1079" y="-5.75" font-family="Helvetica,sans-Serif" font-size="10.00">string</text>
</a>
</g>
</g>
<!-- Node7&#45;&gt;Node8 -->
<g id="edge7_Node000007_Node000008" class="edge">
<title>Node7&#45;&gt;Node8</title>
<g id="a_edge7_Node000007_Node000008"><a xlink:title=" ">
<path fill="none" stroke="#63b8ff" d="M882.64,-167.32C885.46,-166.76 888.28,-166.23 891,-165.75 945.83,-156.01 1102.56,-171.86 1139,-129.75 1166.5,-97.97 1124.85,-51.38 1098.28,-26.95"/>
<polygon fill="#63b8ff" stroke="#63b8ff" points="1100.9,-24.6 1091.1,-20.57 1096.25,-29.83 1100.9,-24.6"/>
</a>
</g>
</g>
<!-- Node9 -->
<g id="Node000009" class="node">
<title>Node9</title>
<g id="a_Node000009"><a xlink:title=" ">
<polygon fill="#e0e0e0" stroke="#999999" points="655.25,-129.75 616.75,-129.75 616.75,-110.5 655.25,-110.5 655.25,-129.75"/>
<text text-anchor="middle" x="636" y="-116.25" font-family="Helvetica,sans-Serif" font-size="10.00">utility</text>
</a>
</g>
</g>
<!-- Node7&#45;&gt;Node9 -->
<g id="edge9_Node000007_Node000009" class="edge">
<title>Node7&#45;&gt;Node9</title>
<g id="a_edge9_Node000007_Node000009"><a xlink:title=" ">
<path fill="none" stroke="#63b8ff" d="M817.5,-166.29C776.53,-156.09 706.62,-138.7 666.58,-128.73"/>
<polygon fill="#63b8ff" stroke="#63b8ff" points="667.67,-125.4 657.12,-126.38 665.98,-132.19 667.67,-125.4"/>
</a>
</g>
</g>
<!-- Node10 -->
<g id="Node000010" class="node">
<title>Node10</title>
<g id="a_Node000010"><a xlink:title=" ">
<polygon fill="#e0e0e0" stroke="#999999" points="1130.38,-129.75 1047.62,-129.75 1047.62,-110.5 1130.38,-110.5 1130.38,-129.75"/>
<text text-anchor="middle" x="1089" y="-116.25" font-family="Helvetica,sans-Serif" font-size="10.00">unordered_map</text>
</a>
</g>
</g>
<!-- Node7&#45;&gt;Node10 -->
<g id="edge10_Node000007_Node000010" class="edge">
<title>Node7&#45;&gt;Node10</title>
<g id="a_edge10_Node000007_Node000010"><a xlink:title=" ">
<path fill="none" stroke="#63b8ff" d="M882.73,-167.08C922.53,-158.21 990.2,-143.14 1037.12,-132.68"/>
<polygon fill="#63b8ff" stroke="#63b8ff" points="1037.8,-136.12 1046.8,-130.53 1036.28,-129.29 1037.8,-136.12"/>
</a>
</g>
</g>
<!-- Node11 -->
<g id="Node000011" class="node">
<title>Node11</title>
<g id="a_Node000011"><a xlink:title=" ">
<polygon fill="#e0e0e0" stroke="#999999" points="772.5,-129.75 711.5,-129.75 711.5,-110.5 772.5,-110.5 772.5,-129.75"/>
<text text-anchor="middle" x="742" y="-116.25" font-family="Helvetica,sans-Serif" font-size="10.00">TNamed.h</text>
</a>
</g>
</g>
<!-- Node7&#45;&gt;Node11 -->
<g id="edge11_Node000007_Node000011" class="edge">
<title>Node7&#45;&gt;Node11</title>
<g id="a_edge11_Node000007_Node000011"><a xlink:title=" ">
<path fill="none" stroke="#63b8ff" d="M831.68,-165.34C814.92,-157.08 789.87,-144.73 770.5,-135.18"/>
<polygon fill="#63b8ff" stroke="#63b8ff" points="772.28,-132.15 761.77,-130.87 769.19,-138.43 772.28,-132.15"/>
</a>
</g>
</g>
<!-- Node12 -->
<g id="Node000012" class="node">
<title>Node12</title>
<g id="a_Node000012"><a xlink:title=" ">
<polygon fill="#e0e0e0" stroke="#999999" points="839.5,-129.75 790.5,-129.75 790.5,-110.5 839.5,-110.5 839.5,-129.75"/>
<text text-anchor="middle" x="815" y="-116.25" font-family="Helvetica,sans-Serif" font-size="10.00">TTree.h</text>
</a>
</g>
</g>
<!-- Node7&#45;&gt;Node12 -->
<g id="edge12_Node000007_Node000012" class="edge">
<title>Node7&#45;&gt;Node12</title>
<g id="a_edge12_Node000007_Node000012"><a xlink:title=" ">
<path fill="none" stroke="#63b8ff" d="M844.22,-165.58C839.59,-158.53 832.93,-148.4 827.13,-139.58"/>
<polygon fill="#63b8ff" stroke="#63b8ff" points="830.15,-137.81 821.74,-131.37 824.3,-141.65 830.15,-137.81"/>
</a>
</g>
</g>
<!-- Node7&#45;&gt;Node13 -->
<g id="edge13_Node000007_Node000013" class="edge">
<title>Node7&#45;&gt;Node13</title>
<g id="a_edge13_Node000007_Node000013"><a xlink:title=" ">
<path fill="none" stroke="#63b8ff" d="M882.62,-167.19C885.45,-166.67 888.27,-166.18 891,-165.75 1041.02,-142.28 1083.74,-155.28 1235.65,-130.14"/>
<polygon fill="#63b8ff" stroke="#63b8ff" points="1236,-133.63 1245.28,-128.51 1234.84,-126.72 1236,-133.63"/>
</a>
</g>
</g>
<!-- Node14 -->
<g id="Node000014" class="node">
<title>Node14</title>
<g id="a_Node000014"><a xlink:title=" ">
<polygon fill="#e0e0e0" stroke="#999999" points="1029.62,-129.75 960.38,-129.75 960.38,-110.5 1029.62,-110.5 1029.62,-129.75"/>
<text text-anchor="middle" x="995" y="-116.25" font-family="Helvetica,sans-Serif" font-size="10.00">TClassRef.h</text>
</a>
</g>
</g>
<!-- Node7&#45;&gt;Node14 -->
<g id="edge14_Node000007_Node000014" class="edge">
<title>Node7&#45;&gt;Node14</title>
<g id="a_edge14_Node000007_Node000014"><a xlink:title=" ">
<path fill="none" stroke="#63b8ff" d="M874.6,-165.34C897.93,-156.77 933.24,-143.81 959.6,-134.13"/>
<polygon fill="#63b8ff" stroke="#63b8ff" points="960.68,-137.46 968.86,-130.72 958.27,-130.89 960.68,-137.46"/>
</a>
</g>
</g>
<!-- Node15 -->
<g id="Node000015" class="node">
<title>Node15</title>
<g id="a_Node000015"><a xlink:href="_t_priority_value_8h.html" target="_top" xlink:title=" ">
<polygon fill="white" stroke="#666666" points="942.12,-129.75 857.88,-129.75 857.88,-110.5 942.12,-110.5 942.12,-129.75"/>
<text text-anchor="middle" x="900" y="-116.25" font-family="Helvetica,sans-Serif" font-size="10.00">TPriorityValue.h</text>
</a>
</g>
</g>
<!-- Node7&#45;&gt;Node15 -->
<g id="edge15_Node000007_Node000015" class="edge">
<title>Node7&#45;&gt;Node15</title>
<g id="a_edge15_Node000007_Node000015"><a xlink:title=" ">
<path fill="none" stroke="#63b8ff" d="M858.26,-165.58C865.16,-158.23 875.22,-147.51 883.74,-138.44"/>
<polygon fill="#63b8ff" stroke="#63b8ff" points="886.23,-140.9 890.53,-131.21 881.13,-136.11 886.23,-140.9"/>
</a>
</g>
</g>
<!-- Node15&#45;&gt;Node6 -->
<g id="edge18_Node000015_Node000006" class="edge">
<title>Node15&#45;&gt;Node6</title>
<g id="a_edge18_Node000015_Node000006"><a xlink:title=" ">
<path fill="none" stroke="#63b8ff" d="M869.8,-110.09C837.86,-100.54 787.63,-85.51 754.75,-75.67"/>
<polygon fill="#63b8ff" stroke="#63b8ff" points="755.94,-72.37 745.35,-72.86 753.93,-79.08 755.94,-72.37"/>
</a>
</g>
</g>
<!-- Node15&#45;&gt;Node8 -->
<g id="edge17_Node000015_Node000008" class="edge">
<title>Node15&#45;&gt;Node8</title>
<g id="a_edge17_Node000015_Node000008"><a xlink:title=" ">
<path fill="none" stroke="#63b8ff" d="M914.95,-110.06C945.83,-91.35 1016.88,-48.28 1054.54,-25.45"/>
<polygon fill="#63b8ff" stroke="#63b8ff" points="1056.18,-28.55 1062.92,-20.37 1052.55,-22.56 1056.18,-28.55"/>
</a>
</g>
</g>
<!-- Node16 -->
<g id="Node000016" class="node">
<title>Node16</title>
<g id="a_Node000016"><a xlink:title=" ">
<polygon fill="#e0e0e0" stroke="#999999" points="925.62,-74.5 874.38,-74.5 874.38,-55.25 925.62,-55.25 925.62,-74.5"/>
<text text-anchor="middle" x="900" y="-61" font-family="Helvetica,sans-Serif" font-size="10.00">ostream</text>
</a>
</g>
</g>
<!-- Node15&#45;&gt;Node16 -->
<g id="edge16_Node000015_Node000016" class="edge">
<title>Node15&#45;&gt;Node16</title>
<g id="a_edge16_Node000015_Node000016"><a xlink:title=" ">
<path fill="none" stroke="#63b8ff" d="M900,-110.33C900,-103.82 900,-94.67 900,-86.37"/>
<polygon fill="#63b8ff" stroke="#63b8ff" points="903.5,-86.37 900,-76.37 896.5,-86.37 903.5,-86.37"/>
</a>
</g>
</g>
<!-- Node21&#45;&gt;Node9 -->
<g id="edge25_Node000021_Node000009" class="edge">
<title>Node21&#45;&gt;Node9</title>
<g id="a_edge25_Node000021_Node000009"><a xlink:title=" ">
<path fill="none" stroke="#63b8ff" d="M452.63,-167.85C491.2,-158.02 564.06,-139.45 605.38,-128.93"/>
<polygon fill="#63b8ff" stroke="#63b8ff" points="606.09,-132.36 614.92,-126.5 604.36,-125.57 606.09,-132.36"/>
</a>
</g>
</g>
<!-- Node21&#45;&gt;Node18 -->
<g id="edge27_Node000021_Node000018" class="edge">
<title>Node21&#45;&gt;Node18</title>
<g id="a_edge27_Node000021_Node000018"><a xlink:title=" ">
<path fill="none" stroke="#63b8ff" d="M401.46,-168.54C358.2,-158.49 274.1,-138.19 263,-129.75 248.23,-118.53 238.07,-99.77 231.99,-85.47"/>
<polygon fill="#63b8ff" stroke="#63b8ff" points="235.27,-84.25 228.39,-76.19 228.75,-86.78 235.27,-84.25"/>
</a>
</g>
</g>
<!-- Node22 -->
<g id="Node000022" class="node">
<title>Node22</title>
<g id="a_Node000022"><a xlink:title=" ">
<polygon fill="#e0e0e0" stroke="#999999" points="397.38,-129.75 362.62,-129.75 362.62,-110.5 397.38,-110.5 397.38,-129.75"/>
<text text-anchor="middle" x="380" y="-116.25" font-family="Helvetica,sans-Serif" font-size="10.00">map</text>
</a>
</g>
</g>
<!-- Node21&#45;&gt;Node22 -->
<g id="edge24_Node000021_Node000022" class="edge">
<title>Node21&#45;&gt;Node22</title>
<g id="a_edge24_Node000021_Node000022"><a xlink:title=" ">
<path fill="none" stroke="#63b8ff" d="M419.24,-165.58C412.81,-158.3 403.49,-147.73 395.54,-138.73"/>
<polygon fill="#63b8ff" stroke="#63b8ff" points="398.17,-136.43 388.93,-131.24 392.92,-141.06 398.17,-136.43"/>
</a>
</g>
</g>
<!-- Node21&#45;&gt;Node23 -->
<g id="edge26_Node000021_Node000023" class="edge">
<title>Node21&#45;&gt;Node23</title>
<g id="a_edge26_Node000021_Node000023"><a xlink:title=" ">
<path fill="none" stroke="#63b8ff" d="M426.53,-165.69C425.32,-152.11 421.07,-125.81 406,-110.5 371.68,-75.64 342.71,-101.62 302,-74.5 283.69,-62.3 267.49,-42.84 257.09,-28.61"/>
<polygon fill="#63b8ff" stroke="#63b8ff" points="260.07,-26.76 251.46,-20.58 254.33,-30.78 260.07,-26.76"/>
</a>
</g>
</g>
<!-- Node24 -->
<g id="Node000024" class="node">
<title>Node24</title>
<g id="a_Node000024"><a xlink:title=" ">
<polygon fill="#e0e0e0" stroke="#999999" points="344.12,-129.75 271.88,-129.75 271.88,-110.5 344.12,-110.5 344.12,-129.75"/>
<text text-anchor="middle" x="308" y="-116.25" font-family="Helvetica,sans-Serif" font-size="10.00">TCollection.h</text>
</a>
</g>
</g>
<!-- Node21&#45;&gt;Node24 -->
<g id="edge28_Node000021_Node000024" class="edge">
<title>Node21&#45;&gt;Node24</title>
<g id="a_edge28_Node000021_Node000024"><a xlink:title=" ">
<path fill="none" stroke="#63b8ff" d="M406.81,-165.34C388.09,-156.97 359.98,-144.38 338.52,-134.78"/>
<polygon fill="#63b8ff" stroke="#63b8ff" points="340.22,-131.71 329.67,-130.82 337.37,-138.1 340.22,-131.71"/>
</a>
</g>
</g>
<!-- Node25 -->
<g id="Node000025" class="node">
<title>Node25</title>
<g id="a_Node000025"><a xlink:href="_globals_8h.html" target="_top" xlink:title=" ">
<polygon fill="white" stroke="#666666" points="682.25,-74.5 625.75,-74.5 625.75,-55.25 682.25,-55.25 682.25,-74.5"/>
<text text-anchor="middle" x="654" y="-61" font-family="Helvetica,sans-Serif" font-size="10.00">Globals.h</text>
</a>
</g>
</g>
<!-- Node21&#45;&gt;Node25 -->
<g id="edge29_Node000021_Node000025" class="edge">
<title>Node21&#45;&gt;Node25</title>
<g id="a_edge29_Node000021_Node000025"><a xlink:title=" ">
<path fill="none" stroke="#63b8ff" d="M449.76,-165.32C471.19,-156.65 504.07,-142.97 532,-129.75 565.51,-113.89 603.18,-93.81 627.68,-80.44"/>
<polygon fill="#63b8ff" stroke="#63b8ff" points="629.22,-83.59 636.31,-75.71 625.86,-77.45 629.22,-83.59"/>
</a>
</g>
</g>
<!-- Node37 -->
<g id="Node000037" class="node">
<title>Node37</title>
<g id="a_Node000037"><a xlink:href="_t_singleton_8h.html" target="_top" xlink:title=" ">
<polygon fill="white" stroke="#666666" points="523,-129.75 453,-129.75 453,-110.5 523,-110.5 523,-129.75"/>
<text text-anchor="middle" x="488" y="-116.25" font-family="Helvetica,sans-Serif" font-size="10.00">TSingleton.h</text>
</a>
</g>
</g>
<!-- Node21&#45;&gt;Node37 -->
<g id="edge44_Node000021_Node000037" class="edge">
<title>Node21&#45;&gt;Node37</title>
<g id="a_edge44_Node000021_Node000037"><a xlink:title=" ">
<path fill="none" stroke="#63b8ff" d="M437.35,-165.34C446.08,-157.72 458.79,-146.62 469.3,-137.45"/>
<polygon fill="#63b8ff" stroke="#63b8ff" points="471.43,-140.23 476.66,-131.02 466.83,-134.96 471.43,-140.23"/>
</a>
</g>
</g>
<!-- Node25&#45;&gt;Node2 -->
<g id="edge34_Node000025_Node000002" class="edge">
<title>Node25&#45;&gt;Node2</title>
<g id="a_edge34_Node000025_Node000002"><a xlink:title=" ">
<path fill="none" stroke="#63b8ff" d="M625.4,-56.77C622.57,-56.2 619.74,-55.68 617,-55.25 567.28,-47.43 221.73,-21.23 112.81,-13.07"/>
<polygon fill="#63b8ff" stroke="#63b8ff" points="113.33,-9.6 103.09,-12.34 112.81,-16.58 113.33,-9.6"/>
</a>
</g>
</g>
<!-- Node25&#45;&gt;Node8 -->
<g id="edge33_Node000025_Node000008" class="edge">
<title>Node25&#45;&gt;Node8</title>
<g id="a_edge33_Node000025_Node000008"><a xlink:title=" ">
<path fill="none" stroke="#63b8ff" d="M682.56,-57C685.73,-56.35 688.93,-55.75 692,-55.25 846.28,-30.08 891.1,-49.28 1047.56,-19.38"/>
<polygon fill="#63b8ff" stroke="#63b8ff" points="1047.89,-22.88 1057.04,-17.53 1046.55,-16.01 1047.89,-22.88"/>
</a>
</g>
</g>
<!-- Node25&#45;&gt;Node23 -->
<g id="edge30_Node000025_Node000023" class="edge">
<title>Node25&#45;&gt;Node23</title>
<g id="a_edge30_Node000025_Node000023"><a xlink:title=" ">
<path fill="none" stroke="#63b8ff" d="M625.39,-56.84C622.56,-56.26 619.73,-55.71 617,-55.25 472.54,-30.77 431.01,-44.11 283.34,-19.43"/>
<polygon fill="#63b8ff" stroke="#63b8ff" points="283.99,-15.99 273.54,-17.75 282.81,-22.89 283.99,-15.99"/>
</a>
</g>
</g>
<!-- Node26 -->
<g id="Node000026" class="node">
<title>Node26</title>
<g id="a_Node000026"><a xlink:title=" ">
<polygon fill="#e0e0e0" stroke="#999999" points="902.88,-19.25 853.12,-19.25 853.12,0 902.88,0 902.88,-19.25"/>
<text text-anchor="middle" x="878" y="-5.75" font-family="Helvetica,sans-Serif" font-size="10.00">iomanip</text>
</a>
</g>
</g>
<!-- Node25&#45;&gt;Node26 -->
<g id="edge31_Node000025_Node000026" class="edge">
<title>Node25&#45;&gt;Node26</title>
<g id="a_edge31_Node000025_Node000026"><a xlink:title=" ">
<path fill="none" stroke="#63b8ff" d="M682.69,-57.3C717.88,-49.21 779.65,-34.88 841.95,-19.72"/>
<polygon fill="#63b8ff" stroke="#63b8ff" points="842.41,-23.21 851.29,-17.44 840.75,-16.41 842.41,-23.21"/>
</a>
</g>
</g>
<!-- Node27 -->
<g id="Node000027" class="node">
<title>Node27</title>
<g id="a_Node000027"><a xlink:title=" ">
<polygon fill="#e0e0e0" stroke="#999999" points="979,-19.25 921,-19.25 921,0 979,0 979,-19.25"/>
<text text-anchor="middle" x="950" y="-5.75" font-family="Helvetica,sans-Serif" font-size="10.00">stdexcept</text>
</a>
</g>
</g>
<!-- Node25&#45;&gt;Node27 -->
<g id="edge32_Node000025_Node000027" class="edge">
<title>Node25&#45;&gt;Node27</title>
<g id="a_edge32_Node000025_Node000027"><a xlink:title=" ">
<path fill="none" stroke="#63b8ff" d="M682.59,-57.19C685.76,-56.51 688.95,-55.85 692,-55.25 785.73,-36.96 812.82,-38.11 909.42,-19.65"/>
<polygon fill="#63b8ff" stroke="#63b8ff" points="909.94,-23.11 919.09,-17.78 908.61,-16.24 909.94,-23.11"/>
</a>
</g>
</g>
<!-- Node28 -->
<g id="Node000028" class="node">
<title>Node28</title>
<g id="a_Node000028"><a xlink:title=" ">
<polygon fill="#e0e0e0" stroke="#999999" points="1041.25,-19.25 996.75,-19.25 996.75,0 1041.25,0 1041.25,-19.25"/>
<text text-anchor="middle" x="1019" y="-5.75" font-family="Helvetica,sans-Serif" font-size="10.00">cstdlib</text>
</a>
</g>
</g>
<!-- Node25&#45;&gt;Node28 -->
<g id="edge35_Node000025_Node000028" class="edge">
<title>Node25&#45;&gt;Node28</title>
<g id="a_edge35_Node000025_Node000028"><a xlink:title=" ">
<path fill="none" stroke="#63b8ff" d="M682.57,-57.06C685.74,-56.4 688.93,-55.78 692,-55.25 819,-33.17 856.01,-44.43 985.28,-19.52"/>
<polygon fill="#63b8ff" stroke="#63b8ff" points="985.79,-22.99 994.92,-17.63 984.44,-16.12 985.79,-22.99"/>
</a>
</g>
</g>
<!-- Node29 -->
<g id="Node000029" class="node">
<title>Node29</title>
<g id="a_Node000029"><a xlink:title=" ">
<polygon fill="#e0e0e0" stroke="#999999" points="349.75,-19.25 290.25,-19.25 290.25,0 349.75,0 349.75,-19.25"/>
<text text-anchor="middle" x="320" y="-5.75" font-family="Helvetica,sans-Serif" font-size="10.00">execinfo.h</text>
</a>
</g>
</g>
<!-- Node25&#45;&gt;Node29 -->
<g id="edge36_Node000025_Node000029" class="edge">
<title>Node25&#45;&gt;Node29</title>
<g id="a_edge36_Node000025_Node000029"><a xlink:title=" ">
<path fill="none" stroke="#63b8ff" d="M625.37,-56.93C622.55,-56.33 619.72,-55.76 617,-55.25 506.73,-34.75 474.92,-39.44 361.43,-19.55"/>
<polygon fill="#63b8ff" stroke="#63b8ff" points="362.14,-16.12 351.68,-17.81 360.91,-23.01 362.14,-16.12"/>
</a>
</g>
</g>
<!-- Node30 -->
<g id="Node000030" class="node">
<title>Node30</title>
<g id="a_Node000030"><a xlink:title=" ">
<polygon fill="#e0e0e0" stroke="#999999" points="418.25,-19.25 367.75,-19.25 367.75,0 418.25,0 418.25,-19.25"/>
<text text-anchor="middle" x="393" y="-5.75" font-family="Helvetica,sans-Serif" font-size="10.00">cxxabi.h</text>
</a>
</g>
</g>
<!-- Node25&#45;&gt;Node30 -->
<g id="edge37_Node000025_Node000030" class="edge">
<title>Node25&#45;&gt;Node30</title>
<g id="a_edge37_Node000025_Node000030"><a xlink:title=" ">
<path fill="none" stroke="#63b8ff" d="M625.34,-57.07C622.53,-56.44 619.71,-55.82 617,-55.25 536.36,-38.22 512.82,-37.83 429.6,-19.72"/>
<polygon fill="#63b8ff" stroke="#63b8ff" points="430.58,-16.35 420.06,-17.62 429.07,-23.18 430.58,-16.35"/>
</a>
</g>
</g>
<!-- Node31 -->
<g id="Node000031" class="node">
<title>Node31</title>
<g id="a_Node000031"><a xlink:title=" ">
<polygon fill="#e0e0e0" stroke="#999999" points="487.62,-19.25 436.38,-19.25 436.38,0 487.62,0 487.62,-19.25"/>
<text text-anchor="middle" x="462" y="-5.75" font-family="Helvetica,sans-Serif" font-size="10.00">sstream</text>
</a>
</g>
</g>
<!-- Node25&#45;&gt;Node31 -->
<g id="edge38_Node000025_Node000031" class="edge">
<title>Node25&#45;&gt;Node31</title>
<g id="a_edge38_Node000025_Node000031"><a xlink:title=" ">
<path fill="none" stroke="#63b8ff" d="M625.26,-55.9C591.51,-46.54 535.47,-31 498.63,-20.78"/>
<polygon fill="#63b8ff" stroke="#63b8ff" points="499.89,-17.5 489.32,-18.2 498.02,-24.25 499.89,-17.5"/>
</a>
</g>
</g>
<!-- Node32 -->
<g id="Node000032" class="node">
<title>Node32</title>
<g id="a_Node000032"><a xlink:title=" ">
<polygon fill="#e0e0e0" stroke="#999999" points="542.5,-19.25 505.5,-19.25 505.5,0 542.5,0 542.5,-19.25"/>
<text text-anchor="middle" x="524" y="-5.75" font-family="Helvetica,sans-Serif" font-size="10.00">array</text>
</a>
</g>
</g>
<!-- Node25&#45;&gt;Node32 -->
<g id="edge39_Node000025_Node000032" class="edge">
<title>Node25&#45;&gt;Node32</title>
<g id="a_edge39_Node000025_Node000032"><a xlink:title=" ">
<path fill="none" stroke="#63b8ff" d="M631.95,-54.84C610.31,-45.98 577.18,-32.41 553.33,-22.64"/>
<polygon fill="#63b8ff" stroke="#63b8ff" points="554.76,-19.44 544.18,-18.89 552.11,-25.92 554.76,-19.44"/>
</a>
</g>
</g>
<!-- Node33 -->
<g id="Node000033" class="node">
<title>Node33</title>
<g id="a_Node000033"><a xlink:title=" ">
<polygon fill="#e0e0e0" stroke="#999999" points="611.25,-19.25 560.75,-19.25 560.75,0 611.25,0 611.25,-19.25"/>
<text text-anchor="middle" x="586" y="-5.75" font-family="Helvetica,sans-Serif" font-size="10.00">memory</text>
</a>
</g>
</g>
<!-- Node25&#45;&gt;Node33 -->
<g id="edge40_Node000025_Node000033" class="edge">
<title>Node25&#45;&gt;Node33</title>
<g id="a_edge40_Node000025_Node000033"><a xlink:title=" ">
<path fill="none" stroke="#63b8ff" d="M642.46,-54.84C632.54,-47.07 617.99,-35.67 606.14,-26.4"/>
<polygon fill="#63b8ff" stroke="#63b8ff" points="608.59,-23.87 598.56,-20.46 604.27,-29.38 608.59,-23.87"/>
</a>
</g>
</g>
<!-- Node34 -->
<g id="Node000034" class="node">
<title>Node34</title>
<g id="a_Node000034"><a xlink:title=" ">
<polygon fill="#e0e0e0" stroke="#999999" points="678.88,-19.25 629.12,-19.25 629.12,0 678.88,0 678.88,-19.25"/>
<text text-anchor="middle" x="654" y="-5.75" font-family="Helvetica,sans-Serif" font-size="10.00">unistd.h</text>
</a>
</g>
</g>
<!-- Node25&#45;&gt;Node34 -->
<g id="edge41_Node000025_Node000034" class="edge">
<title>Node25&#45;&gt;Node34</title>
<g id="a_edge41_Node000025_Node000034"><a xlink:title=" ">
<path fill="none" stroke="#63b8ff" d="M654,-55.08C654,-48.57 654,-39.42 654,-31.12"/>
<polygon fill="#63b8ff" stroke="#63b8ff" points="657.5,-31.12 654,-21.12 650.5,-31.12 657.5,-31.12"/>
</a>
</g>
</g>
<!-- Node35 -->
<g id="Node000035" class="node">
<title>Node35</title>
<g id="a_Node000035"><a xlink:title=" ">
<polygon fill="#e0e0e0" stroke="#999999" points="756.75,-19.25 697.25,-19.25 697.25,0 756.75,0 756.75,-19.25"/>
<text text-anchor="middle" x="727" y="-5.75" font-family="Helvetica,sans-Serif" font-size="10.00">sys/wait.h</text>
</a>
</g>
</g>
<!-- Node25&#45;&gt;Node35 -->
<g id="edge42_Node000025_Node000035" class="edge">
<title>Node25&#45;&gt;Node35</title>
<g id="a_edge42_Node000025_Node000035"><a xlink:title=" ">
<path fill="none" stroke="#63b8ff" d="M666.38,-54.84C677.15,-46.99 692.97,-35.45 705.75,-26.12"/>
<polygon fill="#63b8ff" stroke="#63b8ff" points="707.56,-29.14 713.58,-20.42 703.44,-23.48 707.56,-29.14"/>
</a>
</g>
</g>
<!-- Node36 -->
<g id="Node000036" class="node">
<title>Node36</title>
<g id="a_Node000036"><a xlink:title=" ">
<polygon fill="#e0e0e0" stroke="#999999" points="835.12,-19.25 774.88,-19.25 774.88,0 835.12,0 835.12,-19.25"/>
<text text-anchor="middle" x="805" y="-5.75" font-family="Helvetica,sans-Serif" font-size="10.00">sys/prctl.h</text>
</a>
</g>
</g>
<!-- Node25&#45;&gt;Node36 -->
<g id="edge43_Node000025_Node000036" class="edge">
<title>Node25&#45;&gt;Node36</title>
<g id="a_edge43_Node000025_Node000036"><a xlink:title=" ">
<path fill="none" stroke="#63b8ff" d="M679.62,-54.84C704.02,-46.24 741.01,-33.19 768.5,-23.5"/>
<polygon fill="#63b8ff" stroke="#63b8ff" points="769.57,-26.83 777.83,-20.21 767.24,-20.23 769.57,-26.83"/>
</a>
</g>
</g>
<!-- Node37&#45;&gt;Node18 -->
<g id="edge46_Node000037_Node000018" class="edge">
<title>Node37&#45;&gt;Node18</title>
<g id="a_edge46_Node000037_Node000018"><a xlink:title=" ">
<path fill="none" stroke="#63b8ff" d="M452.53,-111.94C403.88,-102.09 316.68,-84.44 265.51,-74.08"/>
<polygon fill="#63b8ff" stroke="#63b8ff" points="266.23,-70.65 255.73,-72.1 264.84,-77.51 266.23,-70.65"/>
</a>
</g>
</g>
<!-- Node37&#45;&gt;Node23 -->
<g id="edge45_Node000037_Node000023" class="edge">
<title>Node37&#45;&gt;Node23</title>
<g id="a_edge45_Node000037_Node000023"><a xlink:title=" ">
<path fill="none" stroke="#63b8ff" d="M452.56,-111.74C421.65,-104.55 376.07,-92.13 339,-74.5 311.51,-61.43 283.02,-40.91 264.71,-26.67"/>
<polygon fill="#63b8ff" stroke="#63b8ff" points="267.09,-24.09 257.08,-20.63 262.74,-29.58 267.09,-24.09"/>
</a>
</g>
</g>
<!-- Node37&#45;&gt;Node25 -->
<g id="edge51_Node000037_Node000025" class="edge">
<title>Node37&#45;&gt;Node25</title>
<g id="a_edge51_Node000037_Node000025"><a xlink:title=" ">
<path fill="none" stroke="#63b8ff" d="M516.16,-110.09C543.35,-101.37 584.74,-88.09 615.07,-78.36"/>
<polygon fill="#63b8ff" stroke="#63b8ff" points="615.81,-81.8 624.26,-75.41 613.67,-75.14 615.81,-81.8"/>
</a>
</g>
</g>
<!-- Node38 -->
<g id="Node000038" class="node">
<title>Node38</title>
<g id="a_Node000038"><a xlink:title=" ">
<polygon fill="#e0e0e0" stroke="#999999" points="479.88,-74.5 412.12,-74.5 412.12,-55.25 479.88,-55.25 479.88,-74.5"/>
<text text-anchor="middle" x="446" y="-61" font-family="Helvetica,sans-Serif" font-size="10.00">TDirectory.h</text>
</a>
</g>
</g>
<!-- Node37&#45;&gt;Node38 -->
<g id="edge47_Node000037_Node000038" class="edge">
<title>Node37&#45;&gt;Node38</title>
<g id="a_edge47_Node000037_Node000038"><a xlink:title=" ">
<path fill="none" stroke="#63b8ff" d="M481.06,-110.33C475.38,-103.13 467.16,-92.71 460.11,-83.76"/>
<polygon fill="#63b8ff" stroke="#63b8ff" points="462.96,-81.73 454.02,-76.05 457.47,-86.07 462.96,-81.73"/>
</a>
</g>
</g>
<!-- Node39 -->
<g id="Node000039" class="node">
<title>Node39</title>
<g id="a_Node000039"><a xlink:title=" ">
<polygon fill="#e0e0e0" stroke="#999999" points="543.62,-74.5 498.38,-74.5 498.38,-55.25 543.62,-55.25 543.62,-74.5"/>
<text text-anchor="middle" x="521" y="-61" font-family="Helvetica,sans-Serif" font-size="10.00">TFile.h</text>
</a>
</g>
</g>
<!-- Node37&#45;&gt;Node39 -->
<g id="edge48_Node000037_Node000039" class="edge">
<title>Node37&#45;&gt;Node39</title>
<g id="a_edge48_Node000037_Node000039"><a xlink:title=" ">
<path fill="none" stroke="#63b8ff" d="M493.45,-110.33C497.77,-103.36 503.96,-93.37 509.38,-84.62"/>
<polygon fill="#63b8ff" stroke="#63b8ff" points="512.34,-86.49 514.64,-76.15 506.39,-82.8 512.34,-86.49"/>
</a>
</g>
</g>
<!-- Node40 -->
<g id="Node000040" class="node">
<title>Node40</title>
<g id="a_Node000040"><a xlink:title=" ">
<polygon fill="#e0e0e0" stroke="#999999" points="608,-74.5 562,-74.5 562,-55.25 608,-55.25 608,-74.5"/>
<text text-anchor="middle" x="585" y="-61" font-family="Helvetica,sans-Serif" font-size="10.00">TList.h</text>
</a>
</g>
</g>
<!-- Node37&#45;&gt;Node40 -->
<g id="edge49_Node000037_Node000040" class="edge">
<title>Node37&#45;&gt;Node40</title>
<g id="a_edge49_Node000037_Node000040"><a xlink:title=" ">
<path fill="none" stroke="#63b8ff" d="M504.45,-110.09C519.23,-101.98 541.18,-89.93 558.43,-80.46"/>
<polygon fill="#63b8ff" stroke="#63b8ff" points="560.06,-83.56 567.14,-75.68 556.69,-77.43 560.06,-83.56"/>
</a>
</g>
</g>
<!-- Node41 -->
<g id="Node000041" class="node">
<title>Node41</title>
<g id="a_Node000041"><a xlink:title=" ">
<polygon fill="#e0e0e0" stroke="#999999" points="394,-74.5 348,-74.5 348,-55.25 394,-55.25 394,-74.5"/>
<text text-anchor="middle" x="371" y="-61" font-family="Helvetica,sans-Serif" font-size="10.00">TKey.h</text>
</a>
</g>
</g>
<!-- Node37&#45;&gt;Node41 -->
<g id="edge50_Node000037_Node000041" class="edge">
<title>Node37&#45;&gt;Node41</title>
<g id="a_edge50_Node000037_Node000041"><a xlink:title=" ">
<path fill="none" stroke="#63b8ff" d="M468.15,-110.09C449.83,-101.75 422.35,-89.25 401.29,-79.66"/>
<polygon fill="#63b8ff" stroke="#63b8ff" points="402.87,-76.54 392.32,-75.58 399.97,-82.91 402.87,-76.54"/>
</a>
</g>
</g>
<!-- Node42&#45;&gt;Node23 -->
<g id="edge53_Node000042_Node000023" class="edge">
<title>Node42&#45;&gt;Node23</title>
<g id="a_edge53_Node000042_Node000023"><a xlink:title=" ">
<path fill="none" stroke="#63b8ff" d="M179.18,-165.31C146.84,-157.04 105,-143.98 95,-129.75 90.08,-122.75 90.96,-118.04 95,-110.5 118.56,-66.51 170.99,-38.57 207.17,-23.75"/>
<polygon fill="#63b8ff" stroke="#63b8ff" points="208.39,-27.03 216.42,-20.12 205.83,-20.51 208.39,-27.03"/>
</a>
</g>
</g>
<!-- Node43 -->
<g id="Node000043" class="node">
<title>Node43</title>
<g id="a_Node000043"><a xlink:title=" ">
<polygon fill="#e0e0e0" stroke="#999999" points="177.88,-129.75 104.12,-129.75 104.12,-110.5 177.88,-110.5 177.88,-129.75"/>
<text text-anchor="middle" x="141" y="-116.25" font-family="Helvetica,sans-Serif" font-size="10.00">RtypesCore.h</text>
</a>
</g>
</g>
<!-- Node42&#45;&gt;Node43 -->
<g id="edge54_Node000042_Node000043" class="edge">
<title>Node42&#45;&gt;Node43</title>
<g id="a_edge54_Node000042_Node000043"><a xlink:title=" ">
<path fill="none" stroke="#63b8ff" d="M205.77,-165.34C194.23,-157.46 177.23,-145.86 163.55,-136.52"/>
<polygon fill="#63b8ff" stroke="#63b8ff" points="165.78,-133.8 155.55,-131.06 161.83,-139.58 165.78,-133.8"/>
</a>
</g>
</g>
</g>
</svg>

<g id="navigator" transform="translate(0 0)" fill="#404254">
  <rect fill="#f2f5e9" fill-opacity="0.5" stroke="#606060" stroke-width=".5" x="0" y="0" width="60" height="60"/>
  <use id="zoomplus" xlink:href="#zoomPlus" x="17" y="9" onmousedown="handleZoom(evt,'in')"/>
  <use id="zoomminus" xlink:href="#zoomMin" x="42" y="9" onmousedown="handleZoom(evt,'out')"/>
  <use id="reset" xlink:href="#resetDef" x="30" y="36" onmousedown="handleReset()"/>
   <use id="arrowup" xlink:href="#arrowUp" x="0" y="0" onmousedown="handlePan(0,-1)"/>
  <use id="arrowright" xlink:href="#arrowRight" x="0" y="0" onmousedown="handlePan(1,0)"/>
  <use id="arrowdown" xlink:href="#arrowDown" x="0" y="0" onmousedown="handlePan(0,1)"/>
  <use id="arrowleft" xlink:href="#arrowLeft" x="0" y="0" onmousedown="handlePan(-1,0)"/>
</g>
<svg viewBox="0 0 15 15" width="100%" height="30px" preserveAspectRatio="xMaxYMin meet">
 <g id="arrow_out" transform="scale(0.3 0.3)">
  <a xlink:href="_t_fipps_t_a_c_hit_8h__incl_org.svg" target="_base">
   <rect id="button" ry="5" rx="5" y="6" x="6" height="38" width="38"
        fill="#f2f5e9" fill-opacity="0.5" stroke="#606060" stroke-width="1.0"/>
   <path id="arrow"
     d="M 11.500037,31.436501 C 11.940474,20.09759 22.043105,11.32322 32.158766,21.979434 L 37.068811,17.246167 C 37.068811,17.246167 37.088388,32 37.088388,32 L 22.160133,31.978069 C 22.160133,31.978069 26.997745,27.140456 26.997745,27.140456 C 18.528582,18.264221 13.291696,25.230495 11.500037,31.436501 z"
     style="fill:#404040;"/>
  </a>
 </g>
</svg>

<style type='text/css'>
<![CDATA[
[data-mouse-over-selected='false'] { opacity: 0.7; }
[data-mouse-over-selected='true']  { opacity: 1.0; }
]]>
</style>
<script type="application/ecmascript"><![CDATA[
document.addEventListener('DOMContentLoaded', (event) => {
  highlightEdges();
  highlightAdjacentNodes();
});
]]></script>
</svg>
