<?xml version="1.0" encoding="UTF-8" standalone="no"?>
<!DOCTYPE svg PUBLIC "-//W3C//DTD SVG 1.1//EN"
 "http://www.w3.org/Graphics/SVG/1.1/DTD/svg11.dtd">
<!-- Generated by graphviz version 12.2.0 (20241103.1931)
 -->
<!-- Title: TFragment.h Pages: 1 -->
<svg width="1449pt" height="304pt"
 viewBox="0.00 0.00 1448.62 303.50" xmlns="http://www.w3.org/2000/svg" xmlns:xlink="http://www.w3.org/1999/xlink">
<g id="graph0" class="graph" transform="scale(1 1) rotate(0) translate(4 299.5)">
<title>TFragment.h</title>
<!-- Node1 -->
<g id="Node000001" class="node">
<title>Node1</title>
<g id="a_Node000001"><a xlink:title=" ">
<polygon fill="#999999" stroke="#666666" points="1227,-295.5 1156.25,-295.5 1156.25,-276.25 1227,-276.25 1227,-295.5"/>
<text text-anchor="middle" x="1191.62" y="-282" font-family="Helvetica,sans-Serif" font-size="10.00">TFragment.h</text>
</a>
</g>
</g>
<!-- Node2 -->
<g id="Node000002" class="node">
<title>Node2</title>
<g id="a_Node000002"><a xlink:href="_t_detector_hit_8h.html" target="_top" xlink:title=" ">
<polygon fill="white" stroke="#666666" points="944.12,-240.25 865.12,-240.25 865.12,-221 944.12,-221 944.12,-240.25"/>
<text text-anchor="middle" x="904.62" y="-226.75" font-family="Helvetica,sans-Serif" font-size="10.00">TDetectorHit.h</text>
</a>
</g>
</g>
<!-- Node1&#45;&gt;Node2 -->
<g id="edge1_Node000001_Node000002" class="edge">
<title>Node1&#45;&gt;Node2</title>
<g id="a_edge1_Node000001_Node000002"><a xlink:title=" ">
<path fill="none" stroke="#63b8ff" d="M1155.85,-278.24C1105.42,-268.88 1013.15,-251.76 955.57,-241.08"/>
<polygon fill="#63b8ff" stroke="#63b8ff" points="956.49,-237.69 946.02,-239.31 955.22,-244.57 956.49,-237.69"/>
</a>
</g>
</g>
<!-- Node3 -->
<g id="Node000003" class="node">
<title>Node3</title>
<g id="a_Node000003"><a xlink:title=" ">
<polygon fill="#e0e0e0" stroke="#999999" points="92.12,-74.5 49.12,-74.5 49.12,-55.25 92.12,-55.25 92.12,-74.5"/>
<text text-anchor="middle" x="70.62" y="-61" font-family="Helvetica,sans-Serif" font-size="10.00">vector</text>
</a>
</g>
</g>
<!-- Node1&#45;&gt;Node3 -->
<g id="edge55_Node000001_Node000003" class="edge">
<title>Node1&#45;&gt;Node3</title>
<g id="a_edge55_Node000001_Node000003"><a xlink:title=" ">
<path fill="none" stroke="#63b8ff" d="M1155.77,-284.66C966.5,-283.15 89.14,-271.52 9.62,-185 -18.91,-153.95 23.67,-107.06 50.87,-82.39"/>
<polygon fill="#63b8ff" stroke="#63b8ff" points="53.03,-85.15 58.25,-75.92 48.42,-79.88 53.03,-85.15"/>
</a>
</g>
</g>
<!-- Node17 -->
<g id="Node000017" class="node">
<title>Node17</title>
<g id="a_Node000017"><a xlink:title=" ">
<polygon fill="#e0e0e0" stroke="#999999" points="1330.37,-185 1276.87,-185 1276.87,-165.75 1330.37,-165.75 1330.37,-185"/>
<text text-anchor="middle" x="1303.62" y="-171.5" font-family="Helvetica,sans-Serif" font-size="10.00">Rtypes.h</text>
</a>
</g>
</g>
<!-- Node1&#45;&gt;Node17 -->
<g id="edge57_Node000001_Node000017" class="edge">
<title>Node1&#45;&gt;Node17</title>
<g id="a_edge57_Node000001_Node000017"><a xlink:title=" ">
<path fill="none" stroke="#63b8ff" d="M1200.79,-276C1219.41,-257.96 1261.95,-216.75 1286.07,-193.38"/>
<polygon fill="#63b8ff" stroke="#63b8ff" points="1288.49,-195.9 1293.24,-186.43 1283.62,-190.87 1288.49,-195.9"/>
</a>
</g>
</g>
<!-- Node19 -->
<g id="Node000019" class="node">
<title>Node19</title>
<g id="a_Node000019"><a xlink:href="_t_p_p_g_8h.html" target="_top" xlink:title=" ">
<polygon fill="white" stroke="#666666" points="1031.87,-185 981.37,-185 981.37,-165.75 1031.87,-165.75 1031.87,-185"/>
<text text-anchor="middle" x="1006.62" y="-171.5" font-family="Helvetica,sans-Serif" font-size="10.00">TPPG.h</text>
</a>
</g>
</g>
<!-- Node1&#45;&gt;Node19 -->
<g id="edge53_Node000001_Node000019" class="edge">
<title>Node1&#45;&gt;Node19</title>
<g id="a_edge53_Node000001_Node000019"><a xlink:title=" ">
<path fill="none" stroke="#63b8ff" d="M1176.17,-275.81C1144.2,-257.06 1070.56,-213.87 1031.69,-191.08"/>
<polygon fill="#63b8ff" stroke="#63b8ff" points="1033.86,-188.3 1023.47,-186.26 1030.32,-194.33 1033.86,-188.3"/>
</a>
</g>
</g>
<!-- Node21 -->
<g id="Node000021" class="node">
<title>Node21</title>
<g id="a_Node000021"><a xlink:title=" ">
<polygon fill="#e0e0e0" stroke="#999999" points="1292.37,-19.25 1238.87,-19.25 1238.87,0 1292.37,0 1292.37,-19.25"/>
<text text-anchor="middle" x="1265.62" y="-5.75" font-family="Helvetica,sans-Serif" font-size="10.00">iostream</text>
</a>
</g>
</g>
<!-- Node1&#45;&gt;Node21 -->
<g id="edge54_Node000001_Node000021" class="edge">
<title>Node1&#45;&gt;Node21</title>
<g id="a_edge54_Node000001_Node000021"><a xlink:title=" ">
<path fill="none" stroke="#63b8ff" d="M1227.38,-279.79C1280.13,-270.06 1372.62,-243.42 1372.62,-176.38 1372.62,-176.38 1372.62,-176.38 1372.62,-119.12 1372.62,-89.51 1372.59,-77.99 1353.62,-55.25 1340.63,-39.67 1320.82,-28.96 1303.29,-21.94"/>
<polygon fill="#63b8ff" stroke="#63b8ff" points="1304.76,-18.75 1294.17,-18.56 1302.33,-25.32 1304.76,-18.75"/>
</a>
</g>
</g>
<!-- Node44 -->
<g id="Node000044" class="node">
<title>Node44</title>
<g id="a_Node000044"><a xlink:title=" ">
<polygon fill="#e0e0e0" stroke="#999999" points="1440.62,-240.25 1400.62,-240.25 1400.62,-221 1440.62,-221 1440.62,-240.25"/>
<text text-anchor="middle" x="1420.62" y="-226.75" font-family="Helvetica,sans-Serif" font-size="10.00">ctime</text>
</a>
</g>
</g>
<!-- Node1&#45;&gt;Node44 -->
<g id="edge56_Node000001_Node000044" class="edge">
<title>Node1&#45;&gt;Node44</title>
<g id="a_edge56_Node000001_Node000044"><a xlink:title=" ">
<path fill="none" stroke="#63b8ff" d="M1227.26,-276.98C1266.4,-268.25 1331.08,-253.65 1386.62,-240.25 1387.44,-240.05 1388.27,-239.85 1389.11,-239.65"/>
<polygon fill="#63b8ff" stroke="#63b8ff" points="1389.81,-243.08 1398.67,-237.27 1388.13,-236.28 1389.81,-243.08"/>
</a>
</g>
</g>
<!-- Node2&#45;&gt;Node3 -->
<g id="edge2_Node000002_Node000003" class="edge">
<title>Node2&#45;&gt;Node3</title>
<g id="a_edge2_Node000002_Node000003"><a xlink:title=" ">
<path fill="none" stroke="#63b8ff" d="M864.85,-227.33C709.47,-218.02 148.98,-181.11 89.62,-129.75 77.17,-118.98 72.69,-100.44 71.17,-86.1"/>
<polygon fill="#63b8ff" stroke="#63b8ff" points="74.68,-86.16 70.56,-76.4 67.69,-86.6 74.68,-86.16"/>
</a>
</g>
</g>
<!-- Node4 -->
<g id="Node000004" class="node">
<title>Node4</title>
<g id="a_Node000004"><a xlink:href="_t_channel_8h.html" target="_top" xlink:title=" ">
<polygon fill="white" stroke="#666666" points="542,-185 477.25,-185 477.25,-165.75 542,-165.75 542,-185"/>
<text text-anchor="middle" x="509.62" y="-171.5" font-family="Helvetica,sans-Serif" font-size="10.00">TChannel.h</text>
</a>
</g>
</g>
<!-- Node2&#45;&gt;Node4 -->
<g id="edge3_Node000002_Node000004" class="edge">
<title>Node2&#45;&gt;Node4</title>
<g id="a_edge3_Node000002_Node000004"><a xlink:title=" ">
<path fill="none" stroke="#63b8ff" d="M864.94,-224.28C790.6,-214.25 630.89,-192.72 553.47,-182.29"/>
<polygon fill="#63b8ff" stroke="#63b8ff" points="554.1,-178.84 543.73,-180.97 553.17,-185.78 554.1,-178.84"/>
</a>
</g>
</g>
<!-- Node15 -->
<g id="Node000015" class="node">
<title>Node15</title>
<g id="a_Node000015"><a xlink:title=" ">
<polygon fill="#e0e0e0" stroke="#999999" points="843.25,-185 780,-185 780,-165.75 843.25,-165.75 843.25,-185"/>
<text text-anchor="middle" x="811.62" y="-171.5" font-family="Helvetica,sans-Serif" font-size="10.00">TVector3.h</text>
</a>
</g>
</g>
<!-- Node2&#45;&gt;Node15 -->
<g id="edge16_Node000002_Node000015" class="edge">
<title>Node2&#45;&gt;Node15</title>
<g id="a_edge16_Node000002_Node000015"><a xlink:title=" ">
<path fill="none" stroke="#63b8ff" d="M888.84,-220.59C874.68,-212.48 853.64,-200.43 837.09,-190.96"/>
<polygon fill="#63b8ff" stroke="#63b8ff" points="839.2,-188.14 828.79,-186.2 835.73,-194.21 839.2,-188.14"/>
</a>
</g>
</g>
<!-- Node16 -->
<g id="Node000016" class="node">
<title>Node16</title>
<g id="a_Node000016"><a xlink:title=" ">
<polygon fill="#e0e0e0" stroke="#999999" points="1344.62,-74.5 1286.62,-74.5 1286.62,-55.25 1344.62,-55.25 1344.62,-74.5"/>
<text text-anchor="middle" x="1315.62" y="-61" font-family="Helvetica,sans-Serif" font-size="10.00">TObject.h</text>
</a>
</g>
</g>
<!-- Node2&#45;&gt;Node16 -->
<g id="edge17_Node000002_Node000016" class="edge">
<title>Node2&#45;&gt;Node16</title>
<g id="a_edge17_Node000002_Node000016"><a xlink:title=" ">
<path fill="none" stroke="#63b8ff" d="M944.43,-221.5C1006.66,-207.88 1129.76,-177.18 1225.62,-129.75 1251.99,-116.7 1279.11,-96.32 1296.59,-82.11"/>
<polygon fill="#63b8ff" stroke="#63b8ff" points="1298.62,-84.97 1304.08,-75.89 1294.15,-79.58 1298.62,-84.97"/>
</a>
</g>
</g>
<!-- Node2&#45;&gt;Node17 -->
<g id="edge18_Node000002_Node000017" class="edge">
<title>Node2&#45;&gt;Node17</title>
<g id="a_edge18_Node000002_Node000017"><a xlink:title=" ">
<path fill="none" stroke="#63b8ff" d="M944.51,-225.75C1010.8,-219.06 1147.72,-204.21 1262.62,-185 1263.62,-184.83 1264.64,-184.66 1265.67,-184.48"/>
<polygon fill="#63b8ff" stroke="#63b8ff" points="1266.12,-187.95 1275.29,-182.64 1264.81,-181.08 1266.12,-187.95"/>
</a>
</g>
</g>
<!-- Node18 -->
<g id="Node000018" class="node">
<title>Node18</title>
<g id="a_Node000018"><a xlink:title=" ">
<polygon fill="#e0e0e0" stroke="#999999" points="84.37,-185 18.87,-185 18.87,-165.75 84.37,-165.75 84.37,-185"/>
<text text-anchor="middle" x="51.62" y="-171.5" font-family="Helvetica,sans-Serif" font-size="10.00">TRandom.h</text>
</a>
</g>
</g>
<!-- Node2&#45;&gt;Node18 -->
<g id="edge19_Node000002_Node000018" class="edge">
<title>Node2&#45;&gt;Node18</title>
<g id="a_edge19_Node000002_Node000018"><a xlink:title=" ">
<path fill="none" stroke="#63b8ff" d="M864.63,-229.19C746.86,-227.54 391.21,-219.81 98.62,-185 97.77,-184.9 96.91,-184.79 96.05,-184.68"/>
<polygon fill="#63b8ff" stroke="#63b8ff" points="96.57,-181.22 86.16,-183.2 95.54,-188.14 96.57,-181.22"/>
</a>
</g>
</g>
<!-- Node2&#45;&gt;Node19 -->
<g id="edge20_Node000002_Node000019" class="edge">
<title>Node2&#45;&gt;Node19</title>
<g id="a_edge20_Node000002_Node000019"><a xlink:title=" ">
<path fill="none" stroke="#63b8ff" d="M921.92,-220.59C937.6,-212.41 960.97,-200.21 979.2,-190.69"/>
<polygon fill="#63b8ff" stroke="#63b8ff" points="980.65,-193.88 987.89,-186.15 977.41,-187.68 980.65,-193.88"/>
</a>
</g>
</g>
<!-- Node42 -->
<g id="Node000042" class="node">
<title>Node42</title>
<g id="a_Node000042"><a xlink:href="_t_transient_bits_8h.html" target="_top" xlink:title=" ">
<polygon fill="white" stroke="#666666" points="948.25,-185 861,-185 861,-165.75 948.25,-165.75 948.25,-185"/>
<text text-anchor="middle" x="904.62" y="-171.5" font-family="Helvetica,sans-Serif" font-size="10.00">TTransientBits.h</text>
</a>
</g>
</g>
<!-- Node2&#45;&gt;Node42 -->
<g id="edge50_Node000002_Node000042" class="edge">
<title>Node2&#45;&gt;Node42</title>
<g id="a_edge50_Node000002_Node000042"><a xlink:title=" ">
<path fill="none" stroke="#63b8ff" d="M904.62,-220.83C904.62,-214.32 904.62,-205.17 904.62,-196.87"/>
<polygon fill="#63b8ff" stroke="#63b8ff" points="908.12,-196.87 904.62,-186.87 901.12,-196.87 908.12,-196.87"/>
</a>
</g>
</g>
<!-- Node5 -->
<g id="Node000005" class="node">
<title>Node5</title>
<g id="a_Node000005"><a xlink:title=" ">
<polygon fill="#e0e0e0" stroke="#999999" points="327.62,-19.25 287.62,-19.25 287.62,0 327.62,0 327.62,-19.25"/>
<text text-anchor="middle" x="307.62" y="-5.75" font-family="Helvetica,sans-Serif" font-size="10.00">string</text>
</a>
</g>
</g>
<!-- Node4&#45;&gt;Node5 -->
<g id="edge4_Node000004_Node000005" class="edge">
<title>Node4&#45;&gt;Node5</title>
<g id="a_edge4_Node000004_Node000005"><a xlink:title=" ">
<path fill="none" stroke="#63b8ff" d="M542.33,-172.32C595.83,-167.69 693.01,-153.27 660.62,-110.5 572.51,5.85 484.72,-57.57 338.94,-19.73"/>
<polygon fill="#63b8ff" stroke="#63b8ff" points="339.92,-16.37 329.35,-17.1 338.07,-23.12 339.92,-16.37"/>
</a>
</g>
</g>
<!-- Node6 -->
<g id="Node000006" class="node">
<title>Node6</title>
<g id="a_Node000006"><a xlink:title=" ">
<polygon fill="#e0e0e0" stroke="#999999" points="405.12,-129.75 362.12,-129.75 362.12,-110.5 405.12,-110.5 405.12,-129.75"/>
<text text-anchor="middle" x="383.62" y="-116.25" font-family="Helvetica,sans-Serif" font-size="10.00">cmath</text>
</a>
</g>
</g>
<!-- Node4&#45;&gt;Node6 -->
<g id="edge5_Node000004_Node000006" class="edge">
<title>Node4&#45;&gt;Node6</title>
<g id="a_edge5_Node000004_Node000006"><a xlink:title=" ">
<path fill="none" stroke="#63b8ff" d="M488.25,-165.34C468.33,-156.93 438.38,-144.27 415.62,-134.65"/>
<polygon fill="#63b8ff" stroke="#63b8ff" points="417.07,-131.46 406.49,-130.79 414.34,-137.91 417.07,-131.46"/>
</a>
</g>
</g>
<!-- Node7 -->
<g id="Node000007" class="node">
<title>Node7</title>
<g id="a_Node000007"><a xlink:title=" ">
<polygon fill="#e0e0e0" stroke="#999999" points="746.87,-129.75 708.37,-129.75 708.37,-110.5 746.87,-110.5 746.87,-129.75"/>
<text text-anchor="middle" x="727.62" y="-116.25" font-family="Helvetica,sans-Serif" font-size="10.00">utility</text>
</a>
</g>
</g>
<!-- Node4&#45;&gt;Node7 -->
<g id="edge6_Node000004_Node000007" class="edge">
<title>Node4&#45;&gt;Node7</title>
<g id="a_edge6_Node000004_Node000007"><a xlink:title=" ">
<path fill="none" stroke="#63b8ff" d="M542.42,-166.66C579.43,-157.91 641.43,-143.12 694.62,-129.75 695.44,-129.54 696.27,-129.33 697.11,-129.12"/>
<polygon fill="#63b8ff" stroke="#63b8ff" points="697.82,-132.55 706.63,-126.67 696.07,-125.78 697.82,-132.55"/>
</a>
</g>
</g>
<!-- Node8 -->
<g id="Node000008" class="node">
<title>Node8</title>
<g id="a_Node000008"><a xlink:title=" ">
<polygon fill="#e0e0e0" stroke="#999999" points="506,-129.75 423.25,-129.75 423.25,-110.5 506,-110.5 506,-129.75"/>
<text text-anchor="middle" x="464.62" y="-116.25" font-family="Helvetica,sans-Serif" font-size="10.00">unordered_map</text>
</a>
</g>
</g>
<!-- Node4&#45;&gt;Node8 -->
<g id="edge7_Node000004_Node000008" class="edge">
<title>Node4&#45;&gt;Node8</title>
<g id="a_edge7_Node000004_Node000008"><a xlink:title=" ">
<path fill="none" stroke="#63b8ff" d="M502.19,-165.58C496.04,-158.3 487.11,-147.73 479.49,-138.73"/>
<polygon fill="#63b8ff" stroke="#63b8ff" points="482.32,-136.64 473.19,-131.27 476.97,-141.16 482.32,-136.64"/>
</a>
</g>
</g>
<!-- Node9 -->
<g id="Node000009" class="node">
<title>Node9</title>
<g id="a_Node000009"><a xlink:title=" ">
<polygon fill="#e0e0e0" stroke="#999999" points="585.12,-129.75 524.12,-129.75 524.12,-110.5 585.12,-110.5 585.12,-129.75"/>
<text text-anchor="middle" x="554.62" y="-116.25" font-family="Helvetica,sans-Serif" font-size="10.00">TNamed.h</text>
</a>
</g>
</g>
<!-- Node4&#45;&gt;Node9 -->
<g id="edge8_Node000004_Node000009" class="edge">
<title>Node4&#45;&gt;Node9</title>
<g id="a_edge8_Node000004_Node000009"><a xlink:title=" ">
<path fill="none" stroke="#63b8ff" d="M517.05,-165.58C523.2,-158.3 532.13,-147.73 539.75,-138.73"/>
<polygon fill="#63b8ff" stroke="#63b8ff" points="542.27,-141.16 546.05,-131.27 536.92,-136.64 542.27,-141.16"/>
</a>
</g>
</g>
<!-- Node10 -->
<g id="Node000010" class="node">
<title>Node10</title>
<g id="a_Node000010"><a xlink:title=" ">
<polygon fill="#e0e0e0" stroke="#999999" points="652.12,-129.75 603.12,-129.75 603.12,-110.5 652.12,-110.5 652.12,-129.75"/>
<text text-anchor="middle" x="627.62" y="-116.25" font-family="Helvetica,sans-Serif" font-size="10.00">TTree.h</text>
</a>
</g>
</g>
<!-- Node4&#45;&gt;Node10 -->
<g id="edge9_Node000004_Node000010" class="edge">
<title>Node4&#45;&gt;Node10</title>
<g id="a_edge9_Node000004_Node000010"><a xlink:title=" ">
<path fill="none" stroke="#63b8ff" d="M529.64,-165.34C548.12,-157 575.83,-144.5 597.07,-134.91"/>
<polygon fill="#63b8ff" stroke="#63b8ff" points="598.45,-138.13 606.13,-130.83 595.57,-131.75 598.45,-138.13"/>
</a>
</g>
</g>
<!-- Node11 -->
<g id="Node000011" class="node">
<title>Node11</title>
<g id="a_Node000011"><a xlink:title=" ">
<polygon fill="#e0e0e0" stroke="#999999" points="256.5,-129.75 200.75,-129.75 200.75,-110.5 256.5,-110.5 256.5,-129.75"/>
<text text-anchor="middle" x="228.62" y="-116.25" font-family="Helvetica,sans-Serif" font-size="10.00">TGraph.h</text>
</a>
</g>
</g>
<!-- Node4&#45;&gt;Node11 -->
<g id="edge10_Node000004_Node000011" class="edge">
<title>Node4&#45;&gt;Node11</title>
<g id="a_edge10_Node000004_Node000011"><a xlink:title=" ">
<path fill="none" stroke="#63b8ff" d="M476.77,-168.88C431.83,-161.26 348.45,-146.71 267.72,-130.11"/>
<polygon fill="#63b8ff" stroke="#63b8ff" points="268.86,-126.77 258.35,-128.17 267.44,-133.62 268.86,-126.77"/>
</a>
</g>
</g>
<!-- Node12 -->
<g id="Node000012" class="node">
<title>Node12</title>
<g id="a_Node000012"><a xlink:title=" ">
<polygon fill="#e0e0e0" stroke="#999999" points="344.25,-129.75 275,-129.75 275,-110.5 344.25,-110.5 344.25,-129.75"/>
<text text-anchor="middle" x="309.62" y="-116.25" font-family="Helvetica,sans-Serif" font-size="10.00">TClassRef.h</text>
</a>
</g>
</g>
<!-- Node4&#45;&gt;Node12 -->
<g id="edge11_Node000004_Node000012" class="edge">
<title>Node4&#45;&gt;Node12</title>
<g id="a_edge11_Node000004_Node000012"><a xlink:title=" ">
<path fill="none" stroke="#63b8ff" d="M477.04,-165.7C443.84,-156.86 392.07,-143.08 354.89,-133.18"/>
<polygon fill="#63b8ff" stroke="#63b8ff" points="355.89,-129.82 345.32,-130.63 354.09,-136.59 355.89,-129.82"/>
</a>
</g>
</g>
<!-- Node13 -->
<g id="Node000013" class="node">
<title>Node13</title>
<g id="a_Node000013"><a xlink:href="_t_priority_value_8h.html" target="_top" xlink:title=" ">
<polygon fill="white" stroke="#666666" points="182.75,-129.75 98.5,-129.75 98.5,-110.5 182.75,-110.5 182.75,-129.75"/>
<text text-anchor="middle" x="140.62" y="-116.25" font-family="Helvetica,sans-Serif" font-size="10.00">TPriorityValue.h</text>
</a>
</g>
</g>
<!-- Node4&#45;&gt;Node13 -->
<g id="edge12_Node000004_Node000013" class="edge">
<title>Node4&#45;&gt;Node13</title>
<g id="a_edge12_Node000004_Node000013"><a xlink:title=" ">
<path fill="none" stroke="#63b8ff" d="M477.07,-170.11C421.37,-162.76 303.89,-146.95 194.43,-130.15"/>
<polygon fill="#63b8ff" stroke="#63b8ff" points="195.1,-126.71 184.68,-128.65 194.03,-133.63 195.1,-126.71"/>
</a>
</g>
</g>
<!-- Node13&#45;&gt;Node3 -->
<g id="edge15_Node000013_Node000003" class="edge">
<title>Node13&#45;&gt;Node3</title>
<g id="a_edge15_Node000013_Node000003"><a xlink:title=" ">
<path fill="none" stroke="#63b8ff" d="M128.75,-110.09C118.53,-102.32 103.55,-90.92 91.36,-81.65"/>
<polygon fill="#63b8ff" stroke="#63b8ff" points="93.6,-78.96 83.52,-75.69 89.36,-84.53 93.6,-78.96"/>
</a>
</g>
</g>
<!-- Node13&#45;&gt;Node5 -->
<g id="edge14_Node000013_Node000005" class="edge">
<title>Node13&#45;&gt;Node5</title>
<g id="a_edge14_Node000013_Node000005"><a xlink:title=" ">
<path fill="none" stroke="#63b8ff" d="M140.72,-110.39C141.35,-96.73 144.6,-70.33 159.62,-55.25 190.66,-24.09 242.61,-14.54 275.98,-11.7"/>
<polygon fill="#63b8ff" stroke="#63b8ff" points="276.1,-15.2 285.85,-11.03 275.63,-8.21 276.1,-15.2"/>
</a>
</g>
</g>
<!-- Node14 -->
<g id="Node000014" class="node">
<title>Node14</title>
<g id="a_Node000014"><a xlink:title=" ">
<polygon fill="#e0e0e0" stroke="#999999" points="220.25,-74.5 169,-74.5 169,-55.25 220.25,-55.25 220.25,-74.5"/>
<text text-anchor="middle" x="194.62" y="-61" font-family="Helvetica,sans-Serif" font-size="10.00">ostream</text>
</a>
</g>
</g>
<!-- Node13&#45;&gt;Node14 -->
<g id="edge13_Node000013_Node000014" class="edge">
<title>Node13&#45;&gt;Node14</title>
<g id="a_edge13_Node000013_Node000014"><a xlink:title=" ">
<path fill="none" stroke="#63b8ff" d="M149.54,-110.33C157.07,-102.9 168.09,-92.04 177.35,-82.91"/>
<polygon fill="#63b8ff" stroke="#63b8ff" points="179.77,-85.44 184.43,-75.92 174.85,-80.45 179.77,-85.44"/>
</a>
</g>
</g>
<!-- Node19&#45;&gt;Node7 -->
<g id="edge22_Node000019_Node000007" class="edge">
<title>Node19&#45;&gt;Node7</title>
<g id="a_edge22_Node000019_Node000007"><a xlink:title=" ">
<path fill="none" stroke="#63b8ff" d="M980.9,-169.85C925.74,-160.13 798.3,-137.64 758.33,-129.82"/>
<polygon fill="#63b8ff" stroke="#63b8ff" points="759.1,-126.4 748.6,-127.78 757.67,-133.25 759.1,-126.4"/>
</a>
</g>
</g>
<!-- Node19&#45;&gt;Node16 -->
<g id="edge24_Node000019_Node000016" class="edge">
<title>Node19&#45;&gt;Node16</title>
<g id="a_edge24_Node000019_Node000016"><a xlink:title=" ">
<path fill="none" stroke="#63b8ff" d="M1032.33,-170.18C1068.59,-163.82 1136.5,-150.26 1191.62,-129.75 1210.91,-122.57 1259.24,-96.77 1289.55,-80.24"/>
<polygon fill="#63b8ff" stroke="#63b8ff" points="1291.03,-83.42 1298.12,-75.55 1287.66,-77.28 1291.03,-83.42"/>
</a>
</g>
</g>
<!-- Node20 -->
<g id="Node000020" class="node">
<title>Node20</title>
<g id="a_Node000020"><a xlink:title=" ">
<polygon fill="#e0e0e0" stroke="#999999" points="1183,-129.75 1148.25,-129.75 1148.25,-110.5 1183,-110.5 1183,-129.75"/>
<text text-anchor="middle" x="1165.62" y="-116.25" font-family="Helvetica,sans-Serif" font-size="10.00">map</text>
</a>
</g>
</g>
<!-- Node19&#45;&gt;Node20 -->
<g id="edge21_Node000019_Node000020" class="edge">
<title>Node19&#45;&gt;Node20</title>
<g id="a_edge21_Node000019_Node000020"><a xlink:title=" ">
<path fill="none" stroke="#63b8ff" d="M1032.17,-165.82C1060.97,-156.17 1107.66,-140.54 1137.48,-130.55"/>
<polygon fill="#63b8ff" stroke="#63b8ff" points="1138.21,-134 1146.58,-127.5 1135.98,-127.36 1138.21,-134"/>
</a>
</g>
</g>
<!-- Node19&#45;&gt;Node21 -->
<g id="edge23_Node000019_Node000021" class="edge">
<title>Node19&#45;&gt;Node21</title>
<g id="a_edge23_Node000019_Node000021"><a xlink:title=" ">
<path fill="none" stroke="#63b8ff" d="M992.7,-165.28C981.95,-157.35 967.88,-144.78 961.62,-129.75 948.89,-99.19 939.82,-80.17 961.62,-55.25 999.17,-12.32 1153.68,-28.38 1227.44,-19.13"/>
<polygon fill="#63b8ff" stroke="#63b8ff" points="1227.71,-22.63 1237.06,-17.65 1226.64,-15.72 1227.71,-22.63"/>
</a>
</g>
</g>
<!-- Node22 -->
<g id="Node000022" class="node">
<title>Node22</title>
<g id="a_Node000022"><a xlink:title=" ">
<polygon fill="#e0e0e0" stroke="#999999" points="1042.75,-129.75 970.5,-129.75 970.5,-110.5 1042.75,-110.5 1042.75,-129.75"/>
<text text-anchor="middle" x="1006.62" y="-116.25" font-family="Helvetica,sans-Serif" font-size="10.00">TCollection.h</text>
</a>
</g>
</g>
<!-- Node19&#45;&gt;Node22 -->
<g id="edge25_Node000019_Node000022" class="edge">
<title>Node19&#45;&gt;Node22</title>
<g id="a_edge25_Node000019_Node000022"><a xlink:title=" ">
<path fill="none" stroke="#63b8ff" d="M1006.62,-165.58C1006.62,-159.07 1006.62,-149.92 1006.62,-141.62"/>
<polygon fill="#63b8ff" stroke="#63b8ff" points="1010.12,-141.62 1006.62,-131.62 1003.12,-141.62 1010.12,-141.62"/>
</a>
</g>
</g>
<!-- Node23 -->
<g id="Node000023" class="node">
<title>Node23</title>
<g id="a_Node000023"><a xlink:href="_globals_8h.html" target="_top" xlink:title=" ">
<polygon fill="white" stroke="#666666" points="869.87,-74.5 813.37,-74.5 813.37,-55.25 869.87,-55.25 869.87,-74.5"/>
<text text-anchor="middle" x="841.62" y="-61" font-family="Helvetica,sans-Serif" font-size="10.00">Globals.h</text>
</a>
</g>
</g>
<!-- Node19&#45;&gt;Node23 -->
<g id="edge26_Node000019_Node000023" class="edge">
<title>Node19&#45;&gt;Node23</title>
<g id="a_edge26_Node000019_Node000023"><a xlink:title=" ">
<path fill="none" stroke="#63b8ff" d="M989.55,-165.34C973.53,-156.69 949.03,-143.02 928.62,-129.75 905.03,-114.41 879.17,-95.08 861.83,-81.73"/>
<polygon fill="#63b8ff" stroke="#63b8ff" points="864.38,-79.28 854.34,-75.92 860.09,-84.81 864.38,-79.28"/>
</a>
</g>
</g>
<!-- Node37 -->
<g id="Node000037" class="node">
<title>Node37</title>
<g id="a_Node000037"><a xlink:href="_t_singleton_8h.html" target="_top" xlink:title=" ">
<polygon fill="white" stroke="#666666" points="1130.62,-129.75 1060.62,-129.75 1060.62,-110.5 1130.62,-110.5 1130.62,-129.75"/>
<text text-anchor="middle" x="1095.62" y="-116.25" font-family="Helvetica,sans-Serif" font-size="10.00">TSingleton.h</text>
</a>
</g>
</g>
<!-- Node19&#45;&gt;Node37 -->
<g id="edge42_Node000019_Node000037" class="edge">
<title>Node19&#45;&gt;Node37</title>
<g id="a_edge42_Node000019_Node000037"><a xlink:title=" ">
<path fill="none" stroke="#63b8ff" d="M1021.72,-165.34C1035.14,-157.31 1055.03,-145.41 1070.79,-135.98"/>
<polygon fill="#63b8ff" stroke="#63b8ff" points="1072.37,-139.12 1079.15,-130.98 1068.77,-133.11 1072.37,-139.12"/>
</a>
</g>
</g>
<!-- Node23&#45;&gt;Node5 -->
<g id="edge30_Node000023_Node000005" class="edge">
<title>Node23&#45;&gt;Node5</title>
<g id="a_edge30_Node000023_Node000005"><a xlink:title=" ">
<path fill="none" stroke="#63b8ff" d="M813.1,-62.11C723.71,-56.47 448.92,-38.23 339.11,-19.28"/>
<polygon fill="#63b8ff" stroke="#63b8ff" points="340.04,-15.89 329.58,-17.54 338.79,-22.78 340.04,-15.89"/>
</a>
</g>
</g>
<!-- Node23&#45;&gt;Node21 -->
<g id="edge27_Node000023_Node000021" class="edge">
<title>Node23&#45;&gt;Node21</title>
<g id="a_edge27_Node000023_Node000021"><a xlink:title=" ">
<path fill="none" stroke="#63b8ff" d="M870.33,-58.48C876.98,-57.33 884.03,-56.18 890.62,-55.25 1037.14,-34.6 1078.38,-44.46 1227.64,-19.37"/>
<polygon fill="#63b8ff" stroke="#63b8ff" points="1227.81,-22.89 1237.08,-17.76 1226.63,-15.99 1227.81,-22.89"/>
</a>
</g>
</g>
<!-- Node24 -->
<g id="Node000024" class="node">
<title>Node24</title>
<g id="a_Node000024"><a xlink:title=" ">
<polygon fill="#e0e0e0" stroke="#999999" points="1220.5,-19.25 1170.75,-19.25 1170.75,0 1220.5,0 1220.5,-19.25"/>
<text text-anchor="middle" x="1195.62" y="-5.75" font-family="Helvetica,sans-Serif" font-size="10.00">iomanip</text>
</a>
</g>
</g>
<!-- Node23&#45;&gt;Node24 -->
<g id="edge28_Node000023_Node000024" class="edge">
<title>Node23&#45;&gt;Node24</title>
<g id="a_edge28_Node000023_Node000024"><a xlink:title=" ">
<path fill="none" stroke="#63b8ff" d="M870.35,-58.61C877,-57.45 884.05,-56.26 890.62,-55.25 1007.18,-37.26 1040.38,-41.92 1159.43,-19.47"/>
<polygon fill="#63b8ff" stroke="#63b8ff" points="1159.79,-22.96 1168.96,-17.64 1158.48,-16.09 1159.79,-22.96"/>
</a>
</g>
</g>
<!-- Node25 -->
<g id="Node000025" class="node">
<title>Node25</title>
<g id="a_Node000025"><a xlink:title=" ">
<polygon fill="#e0e0e0" stroke="#999999" points="403.62,-19.25 345.62,-19.25 345.62,0 403.62,0 403.62,-19.25"/>
<text text-anchor="middle" x="374.62" y="-5.75" font-family="Helvetica,sans-Serif" font-size="10.00">stdexcept</text>
</a>
</g>
</g>
<!-- Node23&#45;&gt;Node25 -->
<g id="edge29_Node000023_Node000025" class="edge">
<title>Node23&#45;&gt;Node25</title>
<g id="a_edge29_Node000023_Node000025"><a xlink:title=" ">
<path fill="none" stroke="#63b8ff" d="M813.1,-62.09C745.65,-57.62 570.87,-44.58 415.19,-19.49"/>
<polygon fill="#63b8ff" stroke="#63b8ff" points="415.94,-16.06 405.5,-17.9 414.81,-22.97 415.94,-16.06"/>
</a>
</g>
</g>
<!-- Node26 -->
<g id="Node000026" class="node">
<title>Node26</title>
<g id="a_Node000026"><a xlink:title=" ">
<polygon fill="#e0e0e0" stroke="#999999" points="463.75,-19.25 421.5,-19.25 421.5,0 463.75,0 463.75,-19.25"/>
<text text-anchor="middle" x="442.62" y="-5.75" font-family="Helvetica,sans-Serif" font-size="10.00">cstdio</text>
</a>
</g>
</g>
<!-- Node23&#45;&gt;Node26 -->
<g id="edge31_Node000023_Node000026" class="edge">
<title>Node23&#45;&gt;Node26</title>
<g id="a_edge31_Node000023_Node000026"><a xlink:title=" ">
<path fill="none" stroke="#63b8ff" d="M813.13,-61.99C752.57,-57.64 606.44,-45.41 475.18,-19.48"/>
<polygon fill="#63b8ff" stroke="#63b8ff" points="476.13,-16.1 465.63,-17.56 474.75,-22.96 476.13,-16.1"/>
</a>
</g>
</g>
<!-- Node27 -->
<g id="Node000027" class="node">
<title>Node27</title>
<g id="a_Node000027"><a xlink:title=" ">
<polygon fill="#e0e0e0" stroke="#999999" points="527.25,-19.25 482,-19.25 482,0 527.25,0 527.25,-19.25"/>
<text text-anchor="middle" x="504.62" y="-5.75" font-family="Helvetica,sans-Serif" font-size="10.00">cstdint</text>
</a>
</g>
</g>
<!-- Node23&#45;&gt;Node27 -->
<g id="edge32_Node000023_Node000027" class="edge">
<title>Node23&#45;&gt;Node27</title>
<g id="a_edge32_Node000023_Node000027"><a xlink:title=" ">
<path fill="none" stroke="#63b8ff" d="M813.25,-60.86C760.92,-55.05 645.5,-41.11 538.6,-19.43"/>
<polygon fill="#63b8ff" stroke="#63b8ff" points="539.6,-16.07 529.1,-17.48 538.19,-22.92 539.6,-16.07"/>
</a>
</g>
</g>
<!-- Node28 -->
<g id="Node000028" class="node">
<title>Node28</title>
<g id="a_Node000028"><a xlink:title=" ">
<polygon fill="#e0e0e0" stroke="#999999" points="589.87,-19.25 545.37,-19.25 545.37,0 589.87,0 589.87,-19.25"/>
<text text-anchor="middle" x="567.62" y="-5.75" font-family="Helvetica,sans-Serif" font-size="10.00">cstdlib</text>
</a>
</g>
</g>
<!-- Node23&#45;&gt;Node28 -->
<g id="edge33_Node000023_Node000028" class="edge">
<title>Node23&#45;&gt;Node28</title>
<g id="a_edge33_Node000023_Node000028"><a xlink:title=" ">
<path fill="none" stroke="#63b8ff" d="M813.02,-59.48C769.37,-52.58 683.34,-38.27 601.27,-19.7"/>
<polygon fill="#63b8ff" stroke="#63b8ff" points="602.25,-16.33 591.72,-17.51 600.69,-23.16 602.25,-16.33"/>
</a>
</g>
</g>
<!-- Node29 -->
<g id="Node000029" class="node">
<title>Node29</title>
<g id="a_Node000029"><a xlink:title=" ">
<polygon fill="#e0e0e0" stroke="#999999" points="667.37,-19.25 607.87,-19.25 607.87,0 667.37,0 667.37,-19.25"/>
<text text-anchor="middle" x="637.62" y="-5.75" font-family="Helvetica,sans-Serif" font-size="10.00">execinfo.h</text>
</a>
</g>
</g>
<!-- Node23&#45;&gt;Node29 -->
<g id="edge34_Node000023_Node000029" class="edge">
<title>Node23&#45;&gt;Node29</title>
<g id="a_edge34_Node000023_Node000029"><a xlink:title=" ">
<path fill="none" stroke="#63b8ff" d="M813.26,-56.47C778.31,-47.35 718.66,-31.78 678.7,-21.35"/>
<polygon fill="#63b8ff" stroke="#63b8ff" points="679.76,-18.01 669.2,-18.87 677.99,-24.78 679.76,-18.01"/>
</a>
</g>
</g>
<!-- Node30 -->
<g id="Node000030" class="node">
<title>Node30</title>
<g id="a_Node000030"><a xlink:title=" ">
<polygon fill="#e0e0e0" stroke="#999999" points="735.87,-19.25 685.37,-19.25 685.37,0 735.87,0 735.87,-19.25"/>
<text text-anchor="middle" x="710.62" y="-5.75" font-family="Helvetica,sans-Serif" font-size="10.00">cxxabi.h</text>
</a>
</g>
</g>
<!-- Node23&#45;&gt;Node30 -->
<g id="edge35_Node000023_Node000030" class="edge">
<title>Node23&#45;&gt;Node30</title>
<g id="a_edge35_Node000023_Node000030"><a xlink:title=" ">
<path fill="none" stroke="#63b8ff" d="M819.4,-54.84C798.6,-46.39 767.27,-33.65 743.57,-24.02"/>
<polygon fill="#63b8ff" stroke="#63b8ff" points="744.94,-20.8 734.35,-20.27 742.3,-27.28 744.94,-20.8"/>
</a>
</g>
</g>
<!-- Node31 -->
<g id="Node000031" class="node">
<title>Node31</title>
<g id="a_Node000031"><a xlink:title=" ">
<polygon fill="#e0e0e0" stroke="#999999" points="805.25,-19.25 754,-19.25 754,0 805.25,0 805.25,-19.25"/>
<text text-anchor="middle" x="779.62" y="-5.75" font-family="Helvetica,sans-Serif" font-size="10.00">sstream</text>
</a>
</g>
</g>
<!-- Node23&#45;&gt;Node31 -->
<g id="edge36_Node000023_Node000031" class="edge">
<title>Node23&#45;&gt;Node31</title>
<g id="a_edge36_Node000023_Node000031"><a xlink:title=" ">
<path fill="none" stroke="#63b8ff" d="M831.1,-54.84C822.23,-47.22 809.31,-36.12 798.63,-26.95"/>
<polygon fill="#63b8ff" stroke="#63b8ff" points="801,-24.37 791.13,-20.51 796.44,-29.68 801,-24.37"/>
</a>
</g>
</g>
<!-- Node32 -->
<g id="Node000032" class="node">
<title>Node32</title>
<g id="a_Node000032"><a xlink:title=" ">
<polygon fill="#e0e0e0" stroke="#999999" points="860.12,-19.25 823.12,-19.25 823.12,0 860.12,0 860.12,-19.25"/>
<text text-anchor="middle" x="841.62" y="-5.75" font-family="Helvetica,sans-Serif" font-size="10.00">array</text>
</a>
</g>
</g>
<!-- Node23&#45;&gt;Node32 -->
<g id="edge37_Node000023_Node000032" class="edge">
<title>Node23&#45;&gt;Node32</title>
<g id="a_edge37_Node000023_Node000032"><a xlink:title=" ">
<path fill="none" stroke="#63b8ff" d="M841.62,-55.08C841.62,-48.57 841.62,-39.42 841.62,-31.12"/>
<polygon fill="#63b8ff" stroke="#63b8ff" points="845.12,-31.12 841.62,-21.12 838.12,-31.12 845.12,-31.12"/>
</a>
</g>
</g>
<!-- Node33 -->
<g id="Node000033" class="node">
<title>Node33</title>
<g id="a_Node000033"><a xlink:title=" ">
<polygon fill="#e0e0e0" stroke="#999999" points="928.87,-19.25 878.37,-19.25 878.37,0 928.87,0 928.87,-19.25"/>
<text text-anchor="middle" x="903.62" y="-5.75" font-family="Helvetica,sans-Serif" font-size="10.00">memory</text>
</a>
</g>
</g>
<!-- Node23&#45;&gt;Node33 -->
<g id="edge38_Node000023_Node000033" class="edge">
<title>Node23&#45;&gt;Node33</title>
<g id="a_edge38_Node000023_Node000033"><a xlink:title=" ">
<path fill="none" stroke="#63b8ff" d="M852.14,-54.84C861.01,-47.22 873.93,-36.12 884.61,-26.95"/>
<polygon fill="#63b8ff" stroke="#63b8ff" points="886.8,-29.68 892.11,-20.51 882.24,-24.37 886.8,-29.68"/>
</a>
</g>
</g>
<!-- Node34 -->
<g id="Node000034" class="node">
<title>Node34</title>
<g id="a_Node000034"><a xlink:title=" ">
<polygon fill="#e0e0e0" stroke="#999999" points="996.5,-19.25 946.75,-19.25 946.75,0 996.5,0 996.5,-19.25"/>
<text text-anchor="middle" x="971.62" y="-5.75" font-family="Helvetica,sans-Serif" font-size="10.00">unistd.h</text>
</a>
</g>
</g>
<!-- Node23&#45;&gt;Node34 -->
<g id="edge39_Node000023_Node000034" class="edge">
<title>Node23&#45;&gt;Node34</title>
<g id="a_edge39_Node000023_Node000034"><a xlink:title=" ">
<path fill="none" stroke="#63b8ff" d="M863.67,-54.84C884.31,-46.39 915.4,-33.65 938.92,-24.02"/>
<polygon fill="#63b8ff" stroke="#63b8ff" points="940.13,-27.31 948.06,-20.28 937.48,-20.83 940.13,-27.31"/>
</a>
</g>
</g>
<!-- Node35 -->
<g id="Node000035" class="node">
<title>Node35</title>
<g id="a_Node000035"><a xlink:title=" ">
<polygon fill="#e0e0e0" stroke="#999999" points="1074.37,-19.25 1014.87,-19.25 1014.87,0 1074.37,0 1074.37,-19.25"/>
<text text-anchor="middle" x="1044.62" y="-5.75" font-family="Helvetica,sans-Serif" font-size="10.00">sys/wait.h</text>
</a>
</g>
</g>
<!-- Node23&#45;&gt;Node35 -->
<g id="edge40_Node000023_Node000035" class="edge">
<title>Node23&#45;&gt;Node35</title>
<g id="a_edge40_Node000023_Node000035"><a xlink:title=" ">
<path fill="none" stroke="#63b8ff" d="M870.27,-56.36C904.99,-47.25 963.74,-31.84 1003.33,-21.46"/>
<polygon fill="#63b8ff" stroke="#63b8ff" points="1004.21,-24.84 1012.99,-18.92 1002.43,-18.07 1004.21,-24.84"/>
</a>
</g>
</g>
<!-- Node36 -->
<g id="Node000036" class="node">
<title>Node36</title>
<g id="a_Node000036"><a xlink:title=" ">
<polygon fill="#e0e0e0" stroke="#999999" points="1152.75,-19.25 1092.5,-19.25 1092.5,0 1152.75,0 1152.75,-19.25"/>
<text text-anchor="middle" x="1122.62" y="-5.75" font-family="Helvetica,sans-Serif" font-size="10.00">sys/prctl.h</text>
</a>
</g>
</g>
<!-- Node23&#45;&gt;Node36 -->
<g id="edge41_Node000023_Node000036" class="edge">
<title>Node23&#45;&gt;Node36</title>
<g id="a_edge41_Node000023_Node000036"><a xlink:title=" ">
<path fill="none" stroke="#63b8ff" d="M870.18,-58.74C921.23,-49.54 1027.16,-30.35 1081.36,-19.63"/>
<polygon fill="#63b8ff" stroke="#63b8ff" points="1081.81,-23.11 1090.93,-17.71 1080.43,-16.25 1081.81,-23.11"/>
</a>
</g>
</g>
<!-- Node37&#45;&gt;Node16 -->
<g id="edge44_Node000037_Node000016" class="edge">
<title>Node37&#45;&gt;Node16</title>
<g id="a_edge44_Node000037_Node000016"><a xlink:title=" ">
<path fill="none" stroke="#63b8ff" d="M1130.97,-110.57C1170.38,-101.03 1234.01,-85.63 1275.32,-75.63"/>
<polygon fill="#63b8ff" stroke="#63b8ff" points="1275.98,-79.07 1284.87,-73.32 1274.33,-72.27 1275.98,-79.07"/>
</a>
</g>
</g>
<!-- Node37&#45;&gt;Node21 -->
<g id="edge43_Node000037_Node000021" class="edge">
<title>Node37&#45;&gt;Node21</title>
<g id="a_edge43_Node000037_Node000021"><a xlink:title=" ">
<path fill="none" stroke="#63b8ff" d="M1130.9,-111.83C1168.15,-103.5 1223.66,-89.14 1239.62,-74.5 1252.18,-62.98 1258.81,-44.53 1262.22,-30.41"/>
<polygon fill="#63b8ff" stroke="#63b8ff" points="1265.59,-31.39 1264.16,-20.89 1258.73,-29.99 1265.59,-31.39"/>
</a>
</g>
</g>
<!-- Node37&#45;&gt;Node23 -->
<g id="edge49_Node000037_Node000023" class="edge">
<title>Node37&#45;&gt;Node23</title>
<g id="a_edge49_Node000037_Node000023"><a xlink:title=" ">
<path fill="none" stroke="#63b8ff" d="M1060.3,-111.72C1013.36,-101.88 930.63,-84.53 881.49,-74.23"/>
<polygon fill="#63b8ff" stroke="#63b8ff" points="882.34,-70.84 871.84,-72.21 880.91,-77.69 882.34,-70.84"/>
</a>
</g>
</g>
<!-- Node38 -->
<g id="Node000038" class="node">
<title>Node38</title>
<g id="a_Node000038"><a xlink:title=" ">
<polygon fill="#e0e0e0" stroke="#999999" points="1038.5,-74.5 970.75,-74.5 970.75,-55.25 1038.5,-55.25 1038.5,-74.5"/>
<text text-anchor="middle" x="1004.62" y="-61" font-family="Helvetica,sans-Serif" font-size="10.00">TDirectory.h</text>
</a>
</g>
</g>
<!-- Node37&#45;&gt;Node38 -->
<g id="edge45_Node000037_Node000038" class="edge">
<title>Node37&#45;&gt;Node38</title>
<g id="a_edge45_Node000037_Node000038"><a xlink:title=" ">
<path fill="none" stroke="#63b8ff" d="M1080.18,-110.09C1066.46,-102.06 1046.12,-90.16 1030,-80.73"/>
<polygon fill="#63b8ff" stroke="#63b8ff" points="1031.84,-77.75 1021.44,-75.72 1028.3,-83.79 1031.84,-77.75"/>
</a>
</g>
</g>
<!-- Node39 -->
<g id="Node000039" class="node">
<title>Node39</title>
<g id="a_Node000039"><a xlink:title=" ">
<polygon fill="#e0e0e0" stroke="#999999" points="1102.25,-74.5 1057,-74.5 1057,-55.25 1102.25,-55.25 1102.25,-74.5"/>
<text text-anchor="middle" x="1079.62" y="-61" font-family="Helvetica,sans-Serif" font-size="10.00">TFile.h</text>
</a>
</g>
</g>
<!-- Node37&#45;&gt;Node39 -->
<g id="edge46_Node000037_Node000039" class="edge">
<title>Node37&#45;&gt;Node39</title>
<g id="a_edge46_Node000037_Node000039"><a xlink:title=" ">
<path fill="none" stroke="#63b8ff" d="M1092.98,-110.33C1090.98,-103.67 1088.14,-94.24 1085.6,-85.78"/>
<polygon fill="#63b8ff" stroke="#63b8ff" points="1088.99,-84.88 1082.76,-76.31 1082.28,-86.89 1088.99,-84.88"/>
</a>
</g>
</g>
<!-- Node40 -->
<g id="Node000040" class="node">
<title>Node40</title>
<g id="a_Node000040"><a xlink:title=" ">
<polygon fill="#e0e0e0" stroke="#999999" points="1166.62,-74.5 1120.62,-74.5 1120.62,-55.25 1166.62,-55.25 1166.62,-74.5"/>
<text text-anchor="middle" x="1143.62" y="-61" font-family="Helvetica,sans-Serif" font-size="10.00">TList.h</text>
</a>
</g>
</g>
<!-- Node37&#45;&gt;Node40 -->
<g id="edge47_Node000037_Node000040" class="edge">
<title>Node37&#45;&gt;Node40</title>
<g id="a_edge47_Node000037_Node000040"><a xlink:title=" ">
<path fill="none" stroke="#63b8ff" d="M1103.55,-110.33C1110.18,-102.98 1119.84,-92.26 1128.01,-83.19"/>
<polygon fill="#63b8ff" stroke="#63b8ff" points="1130.41,-85.75 1134.51,-75.98 1125.21,-81.07 1130.41,-85.75"/>
</a>
</g>
</g>
<!-- Node41 -->
<g id="Node000041" class="node">
<title>Node41</title>
<g id="a_Node000041"><a xlink:title=" ">
<polygon fill="#e0e0e0" stroke="#999999" points="1230.62,-74.5 1184.62,-74.5 1184.62,-55.25 1230.62,-55.25 1230.62,-74.5"/>
<text text-anchor="middle" x="1207.62" y="-61" font-family="Helvetica,sans-Serif" font-size="10.00">TKey.h</text>
</a>
</g>
</g>
<!-- Node37&#45;&gt;Node41 -->
<g id="edge48_Node000037_Node000041" class="edge">
<title>Node37&#45;&gt;Node41</title>
<g id="a_edge48_Node000037_Node000041"><a xlink:title=" ">
<path fill="none" stroke="#63b8ff" d="M1114.62,-110.09C1132.08,-101.79 1158.22,-89.36 1178.35,-79.79"/>
<polygon fill="#63b8ff" stroke="#63b8ff" points="1179.63,-83.06 1187.16,-75.6 1176.63,-76.74 1179.63,-83.06"/>
</a>
</g>
</g>
<!-- Node42&#45;&gt;Node21 -->
<g id="edge51_Node000042_Node000021" class="edge">
<title>Node42&#45;&gt;Node21</title>
<g id="a_edge51_Node000042_Node000021"><a xlink:title=" ">
<path fill="none" stroke="#63b8ff" d="M904.79,-165.44C905.75,-142.89 911.64,-83.49 946.62,-55.25 993.54,-17.37 1150.82,-29.3 1227.43,-19.18"/>
<polygon fill="#63b8ff" stroke="#63b8ff" points="1227.73,-22.68 1237.07,-17.68 1226.64,-15.76 1227.73,-22.68"/>
</a>
</g>
</g>
<!-- Node43 -->
<g id="Node000043" class="node">
<title>Node43</title>
<g id="a_Node000043"><a xlink:title=" ">
<polygon fill="#e0e0e0" stroke="#999999" points="838.5,-129.75 764.75,-129.75 764.75,-110.5 838.5,-110.5 838.5,-129.75"/>
<text text-anchor="middle" x="801.62" y="-116.25" font-family="Helvetica,sans-Serif" font-size="10.00">RtypesCore.h</text>
</a>
</g>
</g>
<!-- Node42&#45;&gt;Node43 -->
<g id="edge52_Node000042_Node000043" class="edge">
<title>Node42&#45;&gt;Node43</title>
<g id="a_edge52_Node000042_Node000043"><a xlink:title=" ">
<path fill="none" stroke="#63b8ff" d="M887.15,-165.34C871.31,-157.16 847.72,-144.96 829.31,-135.44"/>
<polygon fill="#63b8ff" stroke="#63b8ff" points="831.01,-132.38 820.52,-130.9 827.8,-138.6 831.01,-132.38"/>
</a>
</g>
</g>
</g>
</svg>
