<?xml version="1.0" encoding="UTF-8" standalone="no"?>
<!DOCTYPE svg PUBLIC "-//W3C//DTD SVG 1.1//EN"
 "http://www.w3.org/Graphics/SVG/1.1/DTD/svg11.dtd">
<!-- Generated by graphviz version 12.2.0 (20241103.1931)
 -->
<!-- Title: TFippsPulser.h Pages: 1 -->
<svg width="1501pt" height="414pt"
 viewBox="0.00 0.00 1500.64 414.00" xmlns="http://www.w3.org/2000/svg" xmlns:xlink="http://www.w3.org/1999/xlink">
<g id="graph0" class="graph" transform="scale(1 1) rotate(0) translate(4 410)">
<title>TFippsPulser.h</title>
<!-- Node1 -->
<g id="Node000001" class="node">
<title>Node1</title>
<g id="a_Node000001"><a xlink:title=" ">
<polygon fill="#999999" stroke="#666666" points="1061.26,-406 980.01,-406 980.01,-386.75 1061.26,-386.75 1061.26,-406"/>
<text text-anchor="middle" x="1020.64" y="-392.5" font-family="Helvetica,sans-Serif" font-size="10.00">TFippsPulser.h</text>
</a>
</g>
</g>
<!-- Node2 -->
<g id="Node000002" class="node">
<title>Node2</title>
<g id="a_Node000002"><a xlink:title=" ">
<polygon fill="#e0e0e0" stroke="#999999" points="1340.39,-19.25 1286.89,-19.25 1286.89,0 1340.39,0 1340.39,-19.25"/>
<text text-anchor="middle" x="1313.64" y="-5.75" font-family="Helvetica,sans-Serif" font-size="10.00">iostream</text>
</a>
</g>
</g>
<!-- Node1&#45;&gt;Node2 -->
<g id="edge1_Node000001_Node000002" class="edge">
<title>Node1&#45;&gt;Node2</title>
<g id="a_edge1_Node000001_Node000002"><a xlink:title=" ">
<path fill="none" stroke="#63b8ff" d="M1061.7,-394.65C1176.53,-391.53 1492.64,-374.95 1492.64,-286.88 1492.64,-286.88 1492.64,-286.88 1492.64,-119.12 1492.64,-53.92 1404.7,-26.82 1352.1,-16.44"/>
<polygon fill="#63b8ff" stroke="#63b8ff" points="1352.78,-13.01 1342.31,-14.64 1351.51,-19.89 1352.78,-13.01"/>
</a>
</g>
</g>
<!-- Node3 -->
<g id="Node000003" class="node">
<title>Node3</title>
<g id="a_Node000003"><a xlink:href="_t_detector_8h.html" target="_top" xlink:title=" ">
<polygon fill="white" stroke="#666666" points="820.76,-350.75 754.51,-350.75 754.51,-331.5 820.76,-331.5 820.76,-350.75"/>
<text text-anchor="middle" x="787.64" y="-337.25" font-family="Helvetica,sans-Serif" font-size="10.00">TDetector.h</text>
</a>
</g>
</g>
<!-- Node1&#45;&gt;Node3 -->
<g id="edge2_Node000001_Node000003" class="edge">
<title>Node1&#45;&gt;Node3</title>
<g id="a_edge2_Node000001_Node000003"><a xlink:title=" ">
<path fill="none" stroke="#63b8ff" d="M980.85,-386.28C939.57,-376.85 875.15,-362.12 832.19,-352.31"/>
<polygon fill="#63b8ff" stroke="#63b8ff" points="833.22,-348.95 822.69,-350.14 831.66,-355.78 833.22,-348.95"/>
</a>
</g>
</g>
<!-- Node9 -->
<g id="Node000009" class="node">
<title>Node9</title>
<g id="a_Node000009"><a xlink:href="_t_detector_hit_8h.html" target="_top" xlink:title=" ">
<polygon fill="white" stroke="#666666" points="1157.14,-240.25 1078.14,-240.25 1078.14,-221 1157.14,-221 1157.14,-240.25"/>
<text text-anchor="middle" x="1117.64" y="-226.75" font-family="Helvetica,sans-Serif" font-size="10.00">TDetectorHit.h</text>
</a>
</g>
</g>
<!-- Node1&#45;&gt;Node9 -->
<g id="edge68_Node000001_Node000009" class="edge">
<title>Node1&#45;&gt;Node9</title>
<g id="a_edge68_Node000001_Node000009"><a xlink:title=" ">
<path fill="none" stroke="#63b8ff" d="M1027.56,-386.35C1040.52,-369.24 1068.91,-330.61 1088.64,-295.5 1096.77,-281.03 1104.46,-263.86 1109.88,-250.97"/>
<polygon fill="#63b8ff" stroke="#63b8ff" points="1113.03,-252.52 1113.59,-241.94 1106.55,-249.86 1113.03,-252.52"/>
</a>
</g>
</g>
<!-- Node10 -->
<g id="Node000010" class="node">
<title>Node10</title>
<g id="a_Node000010"><a xlink:href="_t_channel_8h.html" target="_top" xlink:title=" ">
<polygon fill="white" stroke="#666666" points="461.01,-185 396.26,-185 396.26,-165.75 461.01,-165.75 461.01,-185"/>
<text text-anchor="middle" x="428.64" y="-171.5" font-family="Helvetica,sans-Serif" font-size="10.00">TChannel.h</text>
</a>
</g>
</g>
<!-- Node1&#45;&gt;Node10 -->
<g id="edge67_Node000001_Node000010" class="edge">
<title>Node1&#45;&gt;Node10</title>
<g id="a_edge67_Node000001_Node000010"><a xlink:title=" ">
<path fill="none" stroke="#63b8ff" d="M979.6,-393.06C895.79,-386.98 700.55,-365.79 554.64,-295.5 516.37,-277.06 507.1,-269.86 476.64,-240.25 462.51,-226.52 449.29,-208.36 440.31,-194.92"/>
<polygon fill="#63b8ff" stroke="#63b8ff" points="443.29,-193.07 434.91,-186.59 437.41,-196.88 443.29,-193.07"/>
</a>
</g>
</g>
<!-- Node4 -->
<g id="Node000004" class="node">
<title>Node4</title>
<g id="a_Node000004"><a xlink:title=" ">
<polygon fill="#e0e0e0" stroke="#999999" points="436.76,-19.25 394.51,-19.25 394.51,0 436.76,0 436.76,-19.25"/>
<text text-anchor="middle" x="415.64" y="-5.75" font-family="Helvetica,sans-Serif" font-size="10.00">cstdio</text>
</a>
</g>
</g>
<!-- Node3&#45;&gt;Node4 -->
<g id="edge3_Node000003_Node000004" class="edge">
<title>Node3&#45;&gt;Node4</title>
<g id="a_edge3_Node000003_Node000004"><a xlink:title=" ">
<path fill="none" stroke="#63b8ff" d="M754.2,-335.37C702.15,-325.87 607.64,-299.31 607.64,-231.62 607.64,-231.62 607.64,-231.62 607.64,-119.12 607.64,-82.84 502.41,-40.82 447.76,-21.44"/>
<polygon fill="#63b8ff" stroke="#63b8ff" points="448.94,-18.14 438.35,-18.15 446.64,-24.75 448.94,-18.14"/>
</a>
</g>
</g>
<!-- Node5 -->
<g id="Node000005" class="node">
<title>Node5</title>
<g id="a_Node000005"><a xlink:title=" ">
<polygon fill="#e0e0e0" stroke="#999999" points="730.14,-74.5 687.14,-74.5 687.14,-55.25 730.14,-55.25 730.14,-74.5"/>
<text text-anchor="middle" x="708.64" y="-61" font-family="Helvetica,sans-Serif" font-size="10.00">vector</text>
</a>
</g>
</g>
<!-- Node3&#45;&gt;Node5 -->
<g id="edge4_Node000003_Node000005" class="edge">
<title>Node3&#45;&gt;Node5</title>
<g id="a_edge4_Node000003_Node000005"><a xlink:title=" ">
<path fill="none" stroke="#63b8ff" d="M768.56,-331.11C738.54,-315.44 683.64,-280.16 683.64,-231.62 683.64,-231.62 683.64,-231.62 683.64,-174.38 683.64,-142.72 693.87,-107.16 701.24,-85.65"/>
<polygon fill="#63b8ff" stroke="#63b8ff" points="704.47,-87.02 704.55,-76.42 697.88,-84.66 704.47,-87.02"/>
</a>
</g>
</g>
<!-- Node6 -->
<g id="Node000006" class="node">
<title>Node6</title>
<g id="a_Node000006"><a xlink:title=" ">
<polygon fill="#e0e0e0" stroke="#999999" points="504.89,-19.25 454.39,-19.25 454.39,0 504.89,0 504.89,-19.25"/>
<text text-anchor="middle" x="479.64" y="-5.75" font-family="Helvetica,sans-Serif" font-size="10.00">memory</text>
</a>
</g>
</g>
<!-- Node3&#45;&gt;Node6 -->
<g id="edge5_Node000003_Node000006" class="edge">
<title>Node3&#45;&gt;Node6</title>
<g id="a_edge5_Node000003_Node000006"><a xlink:title=" ">
<path fill="none" stroke="#63b8ff" d="M755.06,-331.08C713.14,-317.21 645.64,-286.39 645.64,-231.62 645.64,-231.62 645.64,-231.62 645.64,-119.12 645.64,-88.8 643.66,-76.1 621.64,-55.25 613.8,-47.83 555.75,-31.1 516.34,-20.36"/>
<polygon fill="#63b8ff" stroke="#63b8ff" points="517.31,-17 506.74,-17.77 515.48,-23.76 517.31,-17"/>
</a>
</g>
</g>
<!-- Node7 -->
<g id="Node000007" class="node">
<title>Node7</title>
<g id="a_Node000007"><a xlink:title=" ">
<polygon fill="#e0e0e0" stroke="#999999" points="1293.64,-74.5 1235.64,-74.5 1235.64,-55.25 1293.64,-55.25 1293.64,-74.5"/>
<text text-anchor="middle" x="1264.64" y="-61" font-family="Helvetica,sans-Serif" font-size="10.00">TObject.h</text>
</a>
</g>
</g>
<!-- Node3&#45;&gt;Node7 -->
<g id="edge6_Node000003_Node000007" class="edge">
<title>Node3&#45;&gt;Node7</title>
<g id="a_edge6_Node000003_Node000007"><a xlink:title=" ">
<path fill="none" stroke="#63b8ff" d="M821.18,-334.47C853.94,-328.07 904.58,-315.81 944.64,-295.5 980.3,-277.42 985.28,-266.27 1015.64,-240.25 1052.28,-208.84 1053.15,-190.4 1094.64,-165.75 1138.86,-139.47 1161.23,-157.36 1204.64,-129.75 1223.83,-117.54 1241.07,-97.81 1252.09,-83.5"/>
<polygon fill="#63b8ff" stroke="#63b8ff" points="1254.63,-85.96 1257.77,-75.84 1249.01,-81.79 1254.63,-85.96"/>
</a>
</g>
</g>
<!-- Node8 -->
<g id="Node000008" class="node">
<title>Node8</title>
<g id="a_Node000008"><a xlink:href="_t_fragment_8h.html" target="_top" xlink:title=" ">
<polygon fill="white" stroke="#666666" points="936.01,-295.5 865.26,-295.5 865.26,-276.25 936.01,-276.25 936.01,-295.5"/>
<text text-anchor="middle" x="900.64" y="-282" font-family="Helvetica,sans-Serif" font-size="10.00">TFragment.h</text>
</a>
</g>
</g>
<!-- Node3&#45;&gt;Node8 -->
<g id="edge7_Node000003_Node000008" class="edge">
<title>Node3&#45;&gt;Node8</title>
<g id="a_edge7_Node000003_Node000008"><a xlink:title=" ">
<path fill="none" stroke="#63b8ff" d="M806.81,-331.09C824.42,-322.79 850.8,-310.36 871.1,-300.79"/>
<polygon fill="#63b8ff" stroke="#63b8ff" points="872.45,-304.03 880.01,-296.6 869.47,-297.69 872.45,-304.03"/>
</a>
</g>
</g>
<!-- Node3&#45;&gt;Node9 -->
<g id="edge65_Node000003_Node000009" class="edge">
<title>Node3&#45;&gt;Node9</title>
<g id="a_edge65_Node000003_Node000009"><a xlink:title=" ">
<path fill="none" stroke="#63b8ff" d="M821.15,-337.62C885.29,-332.35 1022.65,-318.68 1063.64,-295.5 1082.56,-284.8 1097.81,-264.78 1107.22,-249.99"/>
<polygon fill="#63b8ff" stroke="#63b8ff" points="1110.08,-252.03 1112.23,-241.66 1104.08,-248.43 1110.08,-252.03"/>
</a>
</g>
</g>
<!-- Node3&#45;&gt;Node10 -->
<g id="edge66_Node000003_Node000010" class="edge">
<title>Node3&#45;&gt;Node10</title>
<g id="a_edge66_Node000003_Node000010"><a xlink:title=" ">
<path fill="none" stroke="#63b8ff" d="M754.08,-336.52C714.34,-331.34 646.83,-319.62 593.64,-295.5 534.41,-268.64 475.05,-218.82 446.37,-192.94"/>
<polygon fill="#63b8ff" stroke="#63b8ff" points="449.03,-190.63 439.29,-186.46 444.3,-195.79 449.03,-190.63"/>
</a>
</g>
</g>
<!-- Node8&#45;&gt;Node2 -->
<g id="edge61_Node000008_Node000002" class="edge">
<title>Node8&#45;&gt;Node2</title>
<g id="a_edge61_Node000008_Node000002"><a xlink:title=" ">
<path fill="none" stroke="#63b8ff" d="M893.7,-275.87C880.63,-257.97 853.64,-216.2 853.64,-176.38 853.64,-176.38 853.64,-176.38 853.64,-119.12 853.64,-83.35 871.34,-72.59 902.64,-55.25 973.19,-16.16 1178.94,-31.95 1275.38,-19.38"/>
<polygon fill="#63b8ff" stroke="#63b8ff" points="1275.72,-22.87 1285.09,-17.93 1274.68,-15.95 1275.72,-22.87"/>
</a>
</g>
</g>
<!-- Node8&#45;&gt;Node5 -->
<g id="edge62_Node000008_Node000005" class="edge">
<title>Node8&#45;&gt;Node5</title>
<g id="a_edge62_Node000008_Node000005"><a xlink:title=" ">
<path fill="none" stroke="#63b8ff" d="M886.93,-276.06C874.14,-267.56 854.81,-253.99 839.64,-240.25 790.76,-195.99 777.73,-184.26 740.64,-129.75 731.03,-115.63 722.5,-98.23 716.67,-85.15"/>
<polygon fill="#63b8ff" stroke="#63b8ff" points="720.05,-84.15 712.88,-76.36 713.63,-86.93 720.05,-84.15"/>
</a>
</g>
</g>
<!-- Node8&#45;&gt;Node9 -->
<g id="edge8_Node000008_Node000009" class="edge">
<title>Node8&#45;&gt;Node9</title>
<g id="a_edge8_Node000008_Node000009"><a xlink:title=" ">
<path fill="none" stroke="#63b8ff" d="M936.47,-276.08C972.82,-267.16 1029.29,-253.3 1069.52,-243.43"/>
<polygon fill="#63b8ff" stroke="#63b8ff" points="1070.32,-246.84 1079.19,-241.06 1068.65,-240.04 1070.32,-246.84"/>
</a>
</g>
</g>
<!-- Node22 -->
<g id="Node000022" class="node">
<title>Node22</title>
<g id="a_Node000022"><a xlink:title=" ">
<polygon fill="#e0e0e0" stroke="#999999" points="935.39,-185 881.89,-185 881.89,-165.75 935.39,-165.75 935.39,-185"/>
<text text-anchor="middle" x="908.64" y="-171.5" font-family="Helvetica,sans-Serif" font-size="10.00">Rtypes.h</text>
</a>
</g>
</g>
<!-- Node8&#45;&gt;Node22 -->
<g id="edge64_Node000008_Node000022" class="edge">
<title>Node8&#45;&gt;Node22</title>
<g id="a_edge64_Node000008_Node000022"><a xlink:title=" ">
<path fill="none" stroke="#63b8ff" d="M901.29,-276C902.57,-258.75 905.4,-220.33 907.15,-196.56"/>
<polygon fill="#63b8ff" stroke="#63b8ff" points="910.62,-197.12 907.86,-186.89 903.64,-196.6 910.62,-197.12"/>
</a>
</g>
</g>
<!-- Node24 -->
<g id="Node000024" class="node">
<title>Node24</title>
<g id="a_Node000024"><a xlink:href="_t_p_p_g_8h.html" target="_top" xlink:title=" ">
<polygon fill="white" stroke="#666666" points="1047.89,-185 997.39,-185 997.39,-165.75 1047.89,-165.75 1047.89,-185"/>
<text text-anchor="middle" x="1022.64" y="-171.5" font-family="Helvetica,sans-Serif" font-size="10.00">TPPG.h</text>
</a>
</g>
</g>
<!-- Node8&#45;&gt;Node24 -->
<g id="edge60_Node000008_Node000024" class="edge">
<title>Node8&#45;&gt;Node24</title>
<g id="a_edge60_Node000008_Node000024"><a xlink:title=" ">
<path fill="none" stroke="#63b8ff" d="M907.42,-276C917.54,-263.08 937.56,-238.68 957.64,-221 970.12,-210.01 985.4,-199.4 998.01,-191.28"/>
<polygon fill="#63b8ff" stroke="#63b8ff" points="999.56,-194.44 1006.16,-186.15 995.83,-188.52 999.56,-194.44"/>
</a>
</g>
</g>
<!-- Node46 -->
<g id="Node000046" class="node">
<title>Node46</title>
<g id="a_Node000046"><a xlink:title=" ">
<polygon fill="#e0e0e0" stroke="#999999" points="1006.64,-240.25 966.64,-240.25 966.64,-221 1006.64,-221 1006.64,-240.25"/>
<text text-anchor="middle" x="986.64" y="-226.75" font-family="Helvetica,sans-Serif" font-size="10.00">ctime</text>
</a>
</g>
</g>
<!-- Node8&#45;&gt;Node46 -->
<g id="edge63_Node000008_Node000046" class="edge">
<title>Node8&#45;&gt;Node46</title>
<g id="a_edge63_Node000008_Node000046"><a xlink:title=" ">
<path fill="none" stroke="#63b8ff" d="M915.23,-275.84C928.08,-267.89 947.05,-256.14 962.21,-246.75"/>
<polygon fill="#63b8ff" stroke="#63b8ff" points="964.03,-249.74 970.69,-241.5 960.35,-243.79 964.03,-249.74"/>
</a>
</g>
</g>
<!-- Node9&#45;&gt;Node5 -->
<g id="edge9_Node000009_Node000005" class="edge">
<title>Node9&#45;&gt;Node5</title>
<g id="a_edge9_Node000009_Node000005"><a xlink:title=" ">
<path fill="none" stroke="#63b8ff" d="M1089.22,-220.51C1062.92,-211.91 1022.85,-198.38 988.64,-185 968.76,-177.23 964.25,-174.19 944.64,-165.75 871.77,-134.39 785.93,-98.27 740.53,-79.23"/>
<polygon fill="#63b8ff" stroke="#63b8ff" points="742.12,-76.1 731.55,-75.46 739.42,-82.56 742.12,-76.1"/>
</a>
</g>
</g>
<!-- Node9&#45;&gt;Node7 -->
<g id="edge24_Node000009_Node000007" class="edge">
<title>Node9&#45;&gt;Node7</title>
<g id="a_edge24_Node000009_Node000007"><a xlink:title=" ">
<path fill="none" stroke="#63b8ff" d="M1137.49,-220.53C1167.12,-205.87 1222.46,-174.11 1250.64,-129.75 1258.94,-116.68 1262.37,-99.4 1263.76,-86.11"/>
<polygon fill="#63b8ff" stroke="#63b8ff" points="1267.24,-86.59 1264.46,-76.37 1260.26,-86.1 1267.24,-86.59"/>
</a>
</g>
</g>
<!-- Node9&#45;&gt;Node10 -->
<g id="edge10_Node000009_Node000010" class="edge">
<title>Node9&#45;&gt;Node10</title>
<g id="a_edge10_Node000009_Node000010"><a xlink:title=" ">
<path fill="none" stroke="#63b8ff" d="M1077.92,-226.19C1059.06,-224.58 1036.19,-222.65 1015.64,-221 812.95,-204.73 570.77,-186.79 472.9,-179.61"/>
<polygon fill="#63b8ff" stroke="#63b8ff" points="473.16,-176.12 462.93,-178.88 472.65,-183.1 473.16,-176.12"/>
</a>
</g>
</g>
<!-- Node21 -->
<g id="Node000021" class="node">
<title>Node21</title>
<g id="a_Node000021"><a xlink:title=" ">
<polygon fill="#e0e0e0" stroke="#999999" points="1464.26,-185 1401.01,-185 1401.01,-165.75 1464.26,-165.75 1464.26,-185"/>
<text text-anchor="middle" x="1432.64" y="-171.5" font-family="Helvetica,sans-Serif" font-size="10.00">TVector3.h</text>
</a>
</g>
</g>
<!-- Node9&#45;&gt;Node21 -->
<g id="edge23_Node000009_Node000021" class="edge">
<title>Node9&#45;&gt;Node21</title>
<g id="a_edge23_Node000009_Node000021"><a xlink:title=" ">
<path fill="none" stroke="#63b8ff" d="M1157.37,-223.83C1208.74,-216.2 1301.24,-201.98 1389.5,-185.52"/>
<polygon fill="#63b8ff" stroke="#63b8ff" points="1390.12,-188.96 1399.3,-183.68 1388.83,-182.08 1390.12,-188.96"/>
</a>
</g>
</g>
<!-- Node9&#45;&gt;Node22 -->
<g id="edge25_Node000009_Node000022" class="edge">
<title>Node9&#45;&gt;Node22</title>
<g id="a_edge25_Node000009_Node000022"><a xlink:title=" ">
<path fill="none" stroke="#63b8ff" d="M1082.19,-220.59C1044.45,-210.98 984.97,-195.82 946.38,-185.99"/>
<polygon fill="#63b8ff" stroke="#63b8ff" points="947.63,-182.7 937.07,-183.62 945.9,-189.48 947.63,-182.7"/>
</a>
</g>
</g>
<!-- Node23 -->
<g id="Node000023" class="node">
<title>Node23</title>
<g id="a_Node000023"><a xlink:title=" ">
<polygon fill="#e0e0e0" stroke="#999999" points="1169.39,-185 1103.89,-185 1103.89,-165.75 1169.39,-165.75 1169.39,-185"/>
<text text-anchor="middle" x="1136.64" y="-171.5" font-family="Helvetica,sans-Serif" font-size="10.00">TRandom.h</text>
</a>
</g>
</g>
<!-- Node9&#45;&gt;Node23 -->
<g id="edge26_Node000009_Node000023" class="edge">
<title>Node9&#45;&gt;Node23</title>
<g id="a_edge26_Node000009_Node000023"><a xlink:title=" ">
<path fill="none" stroke="#63b8ff" d="M1120.78,-220.83C1123.18,-214.09 1126.6,-204.52 1129.64,-195.99"/>
<polygon fill="#63b8ff" stroke="#63b8ff" points="1132.86,-197.38 1132.92,-186.78 1126.27,-195.03 1132.86,-197.38"/>
</a>
</g>
</g>
<!-- Node9&#45;&gt;Node24 -->
<g id="edge27_Node000009_Node000024" class="edge">
<title>Node9&#45;&gt;Node24</title>
<g id="a_edge27_Node000009_Node000024"><a xlink:title=" ">
<path fill="none" stroke="#63b8ff" d="M1101.52,-220.59C1087.06,-212.48 1065.56,-200.43 1048.66,-190.96"/>
<polygon fill="#63b8ff" stroke="#63b8ff" points="1050.59,-188.03 1040.15,-186.19 1047.17,-194.14 1050.59,-188.03"/>
</a>
</g>
</g>
<!-- Node44 -->
<g id="Node000044" class="node">
<title>Node44</title>
<g id="a_Node000044"><a xlink:href="_t_transient_bits_8h.html" target="_top" xlink:title=" ">
<polygon fill="white" stroke="#666666" points="1383.26,-185 1296.01,-185 1296.01,-165.75 1383.26,-165.75 1383.26,-185"/>
<text text-anchor="middle" x="1339.64" y="-171.5" font-family="Helvetica,sans-Serif" font-size="10.00">TTransientBits.h</text>
</a>
</g>
</g>
<!-- Node9&#45;&gt;Node44 -->
<g id="edge57_Node000009_Node000044" class="edge">
<title>Node9&#45;&gt;Node44</title>
<g id="a_edge57_Node000009_Node000044"><a xlink:title=" ">
<path fill="none" stroke="#63b8ff" d="M1155.55,-220.53C1192.9,-211.57 1250.14,-197.84 1290.87,-188.07"/>
<polygon fill="#63b8ff" stroke="#63b8ff" points="1291.5,-191.52 1300.41,-185.78 1289.87,-184.71 1291.5,-191.52"/>
</a>
</g>
</g>
<!-- Node11 -->
<g id="Node000011" class="node">
<title>Node11</title>
<g id="a_Node000011"><a xlink:title=" ">
<polygon fill="#e0e0e0" stroke="#999999" points="376.64,-19.25 336.64,-19.25 336.64,0 376.64,0 376.64,-19.25"/>
<text text-anchor="middle" x="356.64" y="-5.75" font-family="Helvetica,sans-Serif" font-size="10.00">string</text>
</a>
</g>
</g>
<!-- Node10&#45;&gt;Node11 -->
<g id="edge11_Node000010_Node000011" class="edge">
<title>Node10&#45;&gt;Node11</title>
<g id="a_edge11_Node000010_Node000011"><a xlink:title=" ">
<path fill="none" stroke="#63b8ff" d="M395.96,-173.29C302.95,-169.88 41.87,-157.86 16.64,-129.75 -72.69,-30.22 224.42,-13.85 324.73,-11.16"/>
<polygon fill="#63b8ff" stroke="#63b8ff" points="324.78,-14.65 334.7,-10.92 324.62,-7.66 324.78,-14.65"/>
</a>
</g>
</g>
<!-- Node12 -->
<g id="Node000012" class="node">
<title>Node12</title>
<g id="a_Node000012"><a xlink:title=" ">
<polygon fill="#e0e0e0" stroke="#999999" points="579.14,-129.75 536.14,-129.75 536.14,-110.5 579.14,-110.5 579.14,-129.75"/>
<text text-anchor="middle" x="557.64" y="-116.25" font-family="Helvetica,sans-Serif" font-size="10.00">cmath</text>
</a>
</g>
</g>
<!-- Node10&#45;&gt;Node12 -->
<g id="edge12_Node000010_Node000012" class="edge">
<title>Node10&#45;&gt;Node12</title>
<g id="a_edge12_Node000010_Node000012"><a xlink:title=" ">
<path fill="none" stroke="#63b8ff" d="M450.52,-165.34C471,-156.89 501.85,-144.15 525.19,-134.52"/>
<polygon fill="#63b8ff" stroke="#63b8ff" points="526.34,-137.83 534.25,-130.78 523.67,-131.36 526.34,-137.83"/>
</a>
</g>
</g>
<!-- Node13 -->
<g id="Node000013" class="node">
<title>Node13</title>
<g id="a_Node000013"><a xlink:title=" ">
<polygon fill="#e0e0e0" stroke="#999999" points="787.89,-129.75 749.39,-129.75 749.39,-110.5 787.89,-110.5 787.89,-129.75"/>
<text text-anchor="middle" x="768.64" y="-116.25" font-family="Helvetica,sans-Serif" font-size="10.00">utility</text>
</a>
</g>
</g>
<!-- Node10&#45;&gt;Node13 -->
<g id="edge13_Node000010_Node000013" class="edge">
<title>Node10&#45;&gt;Node13</title>
<g id="a_edge13_Node000010_Node000013"><a xlink:title=" ">
<path fill="none" stroke="#63b8ff" d="M461.24,-169.27C526.82,-159 673.89,-135.97 737.89,-125.94"/>
<polygon fill="#63b8ff" stroke="#63b8ff" points="738.36,-129.41 747.7,-124.4 737.28,-122.49 738.36,-129.41"/>
</a>
</g>
</g>
<!-- Node14 -->
<g id="Node000014" class="node">
<title>Node14</title>
<g id="a_Node000014"><a xlink:title=" ">
<polygon fill="#e0e0e0" stroke="#999999" points="108.01,-129.75 25.26,-129.75 25.26,-110.5 108.01,-110.5 108.01,-129.75"/>
<text text-anchor="middle" x="66.64" y="-116.25" font-family="Helvetica,sans-Serif" font-size="10.00">unordered_map</text>
</a>
</g>
</g>
<!-- Node10&#45;&gt;Node14 -->
<g id="edge14_Node000010_Node000014" class="edge">
<title>Node10&#45;&gt;Node14</title>
<g id="a_edge14_Node000010_Node000014"><a xlink:title=" ">
<path fill="none" stroke="#63b8ff" d="M395.8,-169.99C340.83,-162.59 226.42,-146.9 119.67,-130.19"/>
<polygon fill="#63b8ff" stroke="#63b8ff" points="120.28,-126.75 109.86,-128.65 119.2,-133.66 120.28,-126.75"/>
</a>
</g>
</g>
<!-- Node15 -->
<g id="Node000015" class="node">
<title>Node15</title>
<g id="a_Node000015"><a xlink:title=" ">
<polygon fill="#e0e0e0" stroke="#999999" points="187.14,-129.75 126.14,-129.75 126.14,-110.5 187.14,-110.5 187.14,-129.75"/>
<text text-anchor="middle" x="156.64" y="-116.25" font-family="Helvetica,sans-Serif" font-size="10.00">TNamed.h</text>
</a>
</g>
</g>
<!-- Node10&#45;&gt;Node15 -->
<g id="edge15_Node000010_Node000015" class="edge">
<title>Node10&#45;&gt;Node15</title>
<g id="a_edge15_Node000010_Node000015"><a xlink:title=" ">
<path fill="none" stroke="#63b8ff" d="M395.78,-168.39C352.73,-160.47 274.6,-145.89 198.49,-130.29"/>
<polygon fill="#63b8ff" stroke="#63b8ff" points="199.26,-126.88 188.76,-128.29 197.85,-133.74 199.26,-126.88"/>
</a>
</g>
</g>
<!-- Node16 -->
<g id="Node000016" class="node">
<title>Node16</title>
<g id="a_Node000016"><a xlink:title=" ">
<polygon fill="#e0e0e0" stroke="#999999" points="254.14,-129.75 205.14,-129.75 205.14,-110.5 254.14,-110.5 254.14,-129.75"/>
<text text-anchor="middle" x="229.64" y="-116.25" font-family="Helvetica,sans-Serif" font-size="10.00">TTree.h</text>
</a>
</g>
</g>
<!-- Node10&#45;&gt;Node16 -->
<g id="edge16_Node000010_Node000016" class="edge">
<title>Node10&#45;&gt;Node16</title>
<g id="a_edge16_Node000010_Node000016"><a xlink:title=" ">
<path fill="none" stroke="#63b8ff" d="M395.78,-165.58C359.76,-155.94 302.19,-140.54 265.15,-130.63"/>
<polygon fill="#63b8ff" stroke="#63b8ff" points="266.39,-127.34 255.83,-128.13 264.58,-134.1 266.39,-127.34"/>
</a>
</g>
</g>
<!-- Node17 -->
<g id="Node000017" class="node">
<title>Node17</title>
<g id="a_Node000017"><a xlink:title=" ">
<polygon fill="#e0e0e0" stroke="#999999" points="327.51,-129.75 271.76,-129.75 271.76,-110.5 327.51,-110.5 327.51,-129.75"/>
<text text-anchor="middle" x="299.64" y="-116.25" font-family="Helvetica,sans-Serif" font-size="10.00">TGraph.h</text>
</a>
</g>
</g>
<!-- Node10&#45;&gt;Node17 -->
<g id="edge17_Node000010_Node000017" class="edge">
<title>Node10&#45;&gt;Node17</title>
<g id="a_edge17_Node000010_Node000017"><a xlink:title=" ">
<path fill="none" stroke="#63b8ff" d="M406.76,-165.34C386.28,-156.89 355.43,-144.15 332.08,-134.52"/>
<polygon fill="#63b8ff" stroke="#63b8ff" points="333.61,-131.36 323.03,-130.78 330.94,-137.83 333.61,-131.36"/>
</a>
</g>
</g>
<!-- Node18 -->
<g id="Node000018" class="node">
<title>Node18</title>
<g id="a_Node000018"><a xlink:title=" ">
<polygon fill="#e0e0e0" stroke="#999999" points="415.26,-129.75 346.01,-129.75 346.01,-110.5 415.26,-110.5 415.26,-129.75"/>
<text text-anchor="middle" x="380.64" y="-116.25" font-family="Helvetica,sans-Serif" font-size="10.00">TClassRef.h</text>
</a>
</g>
</g>
<!-- Node10&#45;&gt;Node18 -->
<g id="edge18_Node000010_Node000018" class="edge">
<title>Node10&#45;&gt;Node18</title>
<g id="a_edge18_Node000010_Node000018"><a xlink:title=" ">
<path fill="none" stroke="#63b8ff" d="M420.71,-165.58C414.08,-158.23 404.42,-147.51 396.25,-138.44"/>
<polygon fill="#63b8ff" stroke="#63b8ff" points="399.05,-136.32 389.75,-131.23 393.85,-141 399.05,-136.32"/>
</a>
</g>
</g>
<!-- Node19 -->
<g id="Node000019" class="node">
<title>Node19</title>
<g id="a_Node000019"><a xlink:href="_t_priority_value_8h.html" target="_top" xlink:title=" ">
<polygon fill="white" stroke="#666666" points="517.76,-129.75 433.51,-129.75 433.51,-110.5 517.76,-110.5 517.76,-129.75"/>
<text text-anchor="middle" x="475.64" y="-116.25" font-family="Helvetica,sans-Serif" font-size="10.00">TPriorityValue.h</text>
</a>
</g>
</g>
<!-- Node10&#45;&gt;Node19 -->
<g id="edge19_Node000010_Node000019" class="edge">
<title>Node10&#45;&gt;Node19</title>
<g id="a_edge19_Node000010_Node000019"><a xlink:title=" ">
<path fill="none" stroke="#63b8ff" d="M436.4,-165.58C442.82,-158.3 452.15,-147.73 460.1,-138.73"/>
<polygon fill="#63b8ff" stroke="#63b8ff" points="462.71,-141.06 466.71,-131.24 457.47,-136.43 462.71,-141.06"/>
</a>
</g>
</g>
<!-- Node19&#45;&gt;Node5 -->
<g id="edge22_Node000019_Node000005" class="edge">
<title>Node19&#45;&gt;Node5</title>
<g id="a_edge22_Node000019_Node000005"><a xlink:title=" ">
<path fill="none" stroke="#63b8ff" d="M515.43,-110.03C560.69,-99.69 633.77,-82.99 675.88,-73.36"/>
<polygon fill="#63b8ff" stroke="#63b8ff" points="676.45,-76.82 685.42,-71.18 674.89,-70 676.45,-76.82"/>
</a>
</g>
</g>
<!-- Node19&#45;&gt;Node11 -->
<g id="edge21_Node000019_Node000011" class="edge">
<title>Node19&#45;&gt;Node11</title>
<g id="a_edge21_Node000019_Node000011"><a xlink:title=" ">
<path fill="none" stroke="#63b8ff" d="M465.9,-110.25C446.03,-92.13 400.52,-50.63 374.95,-27.32"/>
<polygon fill="#63b8ff" stroke="#63b8ff" points="377.38,-24.8 367.63,-20.65 372.66,-29.97 377.38,-24.8"/>
</a>
</g>
</g>
<!-- Node20 -->
<g id="Node000020" class="node">
<title>Node20</title>
<g id="a_Node000020"><a xlink:title=" ">
<polygon fill="#e0e0e0" stroke="#999999" points="501.26,-74.5 450.01,-74.5 450.01,-55.25 501.26,-55.25 501.26,-74.5"/>
<text text-anchor="middle" x="475.64" y="-61" font-family="Helvetica,sans-Serif" font-size="10.00">ostream</text>
</a>
</g>
</g>
<!-- Node19&#45;&gt;Node20 -->
<g id="edge20_Node000019_Node000020" class="edge">
<title>Node19&#45;&gt;Node20</title>
<g id="a_edge20_Node000019_Node000020"><a xlink:title=" ">
<path fill="none" stroke="#63b8ff" d="M475.64,-110.33C475.64,-103.82 475.64,-94.67 475.64,-86.37"/>
<polygon fill="#63b8ff" stroke="#63b8ff" points="479.14,-86.37 475.64,-76.37 472.14,-86.37 479.14,-86.37"/>
</a>
</g>
</g>
<!-- Node24&#45;&gt;Node2 -->
<g id="edge30_Node000024_Node000002" class="edge">
<title>Node24&#45;&gt;Node2</title>
<g id="a_edge30_Node000024_Node000002"><a xlink:title=" ">
<path fill="none" stroke="#63b8ff" d="M1047.98,-167.77C1072.92,-160.62 1111.53,-147.76 1141.64,-129.75 1184.75,-103.96 1185.09,-83.48 1226.64,-55.25 1244.2,-43.32 1265.36,-32.4 1282.42,-24.34"/>
<polygon fill="#63b8ff" stroke="#63b8ff" points="1283.45,-27.72 1291.06,-20.35 1280.52,-21.37 1283.45,-27.72"/>
</a>
</g>
</g>
<!-- Node24&#45;&gt;Node7 -->
<g id="edge31_Node000024_Node000007" class="edge">
<title>Node24&#45;&gt;Node7</title>
<g id="a_edge31_Node000024_Node000007"><a xlink:title=" ">
<path fill="none" stroke="#63b8ff" d="M1048.37,-167.92C1085.53,-158.42 1152.24,-140.61 1174.64,-129.75 1201.12,-116.92 1228.21,-96.49 1245.66,-82.21"/>
<polygon fill="#63b8ff" stroke="#63b8ff" points="1247.7,-85.06 1253.13,-75.96 1243.21,-79.69 1247.7,-85.06"/>
</a>
</g>
</g>
<!-- Node24&#45;&gt;Node13 -->
<g id="edge29_Node000024_Node000013" class="edge">
<title>Node24&#45;&gt;Node13</title>
<g id="a_edge29_Node000024_Node000013"><a xlink:title=" ">
<path fill="none" stroke="#63b8ff" d="M997.36,-169.07C950.42,-159.24 850.01,-138.18 799.29,-127.55"/>
<polygon fill="#63b8ff" stroke="#63b8ff" points="800.1,-124.14 789.59,-125.52 798.66,-130.99 800.1,-124.14"/>
</a>
</g>
</g>
<!-- Node25 -->
<g id="Node000025" class="node">
<title>Node25</title>
<g id="a_Node000025"><a xlink:title=" ">
<polygon fill="#e0e0e0" stroke="#999999" points="1045.01,-129.75 1010.26,-129.75 1010.26,-110.5 1045.01,-110.5 1045.01,-129.75"/>
<text text-anchor="middle" x="1027.64" y="-116.25" font-family="Helvetica,sans-Serif" font-size="10.00">map</text>
</a>
</g>
</g>
<!-- Node24&#45;&gt;Node25 -->
<g id="edge28_Node000024_Node000025" class="edge">
<title>Node24&#45;&gt;Node25</title>
<g id="a_edge28_Node000024_Node000025"><a xlink:title=" ">
<path fill="none" stroke="#63b8ff" d="M1023.46,-165.58C1024.08,-158.99 1024.96,-149.71 1025.74,-141.32"/>
<polygon fill="#63b8ff" stroke="#63b8ff" points="1029.2,-141.9 1026.65,-131.62 1022.23,-141.25 1029.2,-141.9"/>
</a>
</g>
</g>
<!-- Node26 -->
<g id="Node000026" class="node">
<title>Node26</title>
<g id="a_Node000026"><a xlink:title=" ">
<polygon fill="#e0e0e0" stroke="#999999" points="991.76,-129.75 919.51,-129.75 919.51,-110.5 991.76,-110.5 991.76,-129.75"/>
<text text-anchor="middle" x="955.64" y="-116.25" font-family="Helvetica,sans-Serif" font-size="10.00">TCollection.h</text>
</a>
</g>
</g>
<!-- Node24&#45;&gt;Node26 -->
<g id="edge32_Node000024_Node000026" class="edge">
<title>Node24&#45;&gt;Node26</title>
<g id="a_edge32_Node000024_Node000026"><a xlink:title=" ">
<path fill="none" stroke="#63b8ff" d="M1011.27,-165.34C1001.59,-157.65 987.44,-146.4 975.83,-137.18"/>
<polygon fill="#63b8ff" stroke="#63b8ff" points="978.03,-134.45 968.02,-130.97 973.67,-139.93 978.03,-134.45"/>
</a>
</g>
</g>
<!-- Node27 -->
<g id="Node000027" class="node">
<title>Node27</title>
<g id="a_Node000027"><a xlink:href="_globals_8h.html" target="_top" xlink:title=" ">
<polygon fill="white" stroke="#666666" points="825.89,-74.5 769.39,-74.5 769.39,-55.25 825.89,-55.25 825.89,-74.5"/>
<text text-anchor="middle" x="797.64" y="-61" font-family="Helvetica,sans-Serif" font-size="10.00">Globals.h</text>
</a>
</g>
</g>
<!-- Node24&#45;&gt;Node27 -->
<g id="edge33_Node000024_Node000027" class="edge">
<title>Node24&#45;&gt;Node27</title>
<g id="a_edge33_Node000024_Node000027"><a xlink:title=" ">
<path fill="none" stroke="#63b8ff" d="M997.31,-165.4C974.33,-157 939.71,-143.68 910.64,-129.75 879.06,-114.62 844.18,-94.32 821.65,-80.71"/>
<polygon fill="#63b8ff" stroke="#63b8ff" points="823.58,-77.79 813.22,-75.57 819.94,-83.77 823.58,-77.79"/>
</a>
</g>
</g>
<!-- Node39 -->
<g id="Node000039" class="node">
<title>Node39</title>
<g id="a_Node000039"><a xlink:href="_t_singleton_8h.html" target="_top" xlink:title=" ">
<polygon fill="white" stroke="#666666" points="1132.64,-129.75 1062.64,-129.75 1062.64,-110.5 1132.64,-110.5 1132.64,-129.75"/>
<text text-anchor="middle" x="1097.64" y="-116.25" font-family="Helvetica,sans-Serif" font-size="10.00">TSingleton.h</text>
</a>
</g>
</g>
<!-- Node24&#45;&gt;Node39 -->
<g id="edge49_Node000024_Node000039" class="edge">
<title>Node24&#45;&gt;Node39</title>
<g id="a_edge49_Node000024_Node000039"><a xlink:title=" ">
<path fill="none" stroke="#63b8ff" d="M1035.36,-165.34C1046.35,-157.54 1062.48,-146.09 1075.57,-136.79"/>
<polygon fill="#63b8ff" stroke="#63b8ff" points="1077.49,-139.72 1083.62,-131.08 1073.44,-134.01 1077.49,-139.72"/>
</a>
</g>
</g>
<!-- Node27&#45;&gt;Node2 -->
<g id="edge34_Node000027_Node000002" class="edge">
<title>Node27&#45;&gt;Node2</title>
<g id="a_edge34_Node000027_Node000002"><a xlink:title=" ">
<path fill="none" stroke="#63b8ff" d="M826.02,-57.56C830.56,-56.69 835.22,-55.88 839.64,-55.25 1029.74,-28.04 1083.4,-49.9 1275.26,-19.57"/>
<polygon fill="#63b8ff" stroke="#63b8ff" points="1275.78,-23.03 1285.1,-17.98 1274.67,-16.12 1275.78,-23.03"/>
</a>
</g>
</g>
<!-- Node27&#45;&gt;Node4 -->
<g id="edge38_Node000027_Node000004" class="edge">
<title>Node27&#45;&gt;Node4</title>
<g id="a_edge38_Node000027_Node000004"><a xlink:title=" ">
<path fill="none" stroke="#63b8ff" d="M769.04,-59.47C759.68,-58.07 749.22,-56.55 739.64,-55.25 612.76,-38.05 576.6,-45.1 448.22,-19.49"/>
<polygon fill="#63b8ff" stroke="#63b8ff" points="449.15,-16.11 438.65,-17.56 447.76,-22.97 449.15,-16.11"/>
</a>
</g>
</g>
<!-- Node27&#45;&gt;Node6 -->
<g id="edge45_Node000027_Node000006" class="edge">
<title>Node27&#45;&gt;Node6</title>
<g id="a_edge45_Node000027_Node000006"><a xlink:title=" ">
<path fill="none" stroke="#63b8ff" d="M768.96,-59.49C707.65,-50.11 565.98,-28.33 516.38,-19.32"/>
<polygon fill="#63b8ff" stroke="#63b8ff" points="517.16,-15.91 506.68,-17.47 515.85,-22.79 517.16,-15.91"/>
</a>
</g>
</g>
<!-- Node27&#45;&gt;Node11 -->
<g id="edge37_Node000027_Node000011" class="edge">
<title>Node27&#45;&gt;Node11</title>
<g id="a_edge37_Node000027_Node000011"><a xlink:title=" ">
<path fill="none" stroke="#63b8ff" d="M769.06,-59.36C759.7,-57.95 749.24,-56.45 739.64,-55.25 586.24,-36.06 542.72,-49.3 387.96,-19.37"/>
<polygon fill="#63b8ff" stroke="#63b8ff" points="389.09,-16.02 378.6,-17.52 387.74,-22.89 389.09,-16.02"/>
</a>
</g>
</g>
<!-- Node28 -->
<g id="Node000028" class="node">
<title>Node28</title>
<g id="a_Node000028"><a xlink:title=" ">
<polygon fill="#e0e0e0" stroke="#999999" points="1129.51,-19.25 1079.76,-19.25 1079.76,0 1129.51,0 1129.51,-19.25"/>
<text text-anchor="middle" x="1104.64" y="-5.75" font-family="Helvetica,sans-Serif" font-size="10.00">iomanip</text>
</a>
</g>
</g>
<!-- Node27&#45;&gt;Node28 -->
<g id="edge35_Node000027_Node000028" class="edge">
<title>Node27&#45;&gt;Node28</title>
<g id="a_edge35_Node000027_Node000028"><a xlink:title=" ">
<path fill="none" stroke="#63b8ff" d="M826.07,-57.84C830.6,-56.94 835.24,-56.04 839.64,-55.25 938.4,-37.42 966.91,-39.85 1068.39,-19.54"/>
<polygon fill="#63b8ff" stroke="#63b8ff" points="1068.86,-23.02 1077.97,-17.6 1067.47,-16.16 1068.86,-23.02"/>
</a>
</g>
</g>
<!-- Node29 -->
<g id="Node000029" class="node">
<title>Node29</title>
<g id="a_Node000029"><a xlink:title=" ">
<polygon fill="#e0e0e0" stroke="#999999" points="1205.64,-19.25 1147.64,-19.25 1147.64,0 1205.64,0 1205.64,-19.25"/>
<text text-anchor="middle" x="1176.64" y="-5.75" font-family="Helvetica,sans-Serif" font-size="10.00">stdexcept</text>
</a>
</g>
</g>
<!-- Node27&#45;&gt;Node29 -->
<g id="edge36_Node000027_Node000029" class="edge">
<title>Node27&#45;&gt;Node29</title>
<g id="a_edge36_Node000027_Node000029"><a xlink:title=" ">
<path fill="none" stroke="#63b8ff" d="M826.05,-57.71C830.58,-56.82 835.23,-55.97 839.64,-55.25 968.14,-34.36 1004.77,-41.66 1135.95,-19.55"/>
<polygon fill="#63b8ff" stroke="#63b8ff" points="1136.48,-23.01 1145.75,-17.87 1135.3,-16.11 1136.48,-23.01"/>
</a>
</g>
</g>
<!-- Node30 -->
<g id="Node000030" class="node">
<title>Node30</title>
<g id="a_Node000030"><a xlink:title=" ">
<polygon fill="#e0e0e0" stroke="#999999" points="1269.26,-19.25 1224.01,-19.25 1224.01,0 1269.26,0 1269.26,-19.25"/>
<text text-anchor="middle" x="1246.64" y="-5.75" font-family="Helvetica,sans-Serif" font-size="10.00">cstdint</text>
</a>
</g>
</g>
<!-- Node27&#45;&gt;Node30 -->
<g id="edge39_Node000027_Node000030" class="edge">
<title>Node27&#45;&gt;Node30</title>
<g id="a_edge39_Node000027_Node000030"><a xlink:title=" ">
<path fill="none" stroke="#63b8ff" d="M826.03,-57.62C830.57,-56.74 835.22,-55.91 839.64,-55.25 1001.66,-30.91 1047.92,-48.36 1212.65,-19.29"/>
<polygon fill="#63b8ff" stroke="#63b8ff" points="1212.96,-22.79 1222.18,-17.58 1211.72,-15.9 1212.96,-22.79"/>
</a>
</g>
</g>
<!-- Node31 -->
<g id="Node000031" class="node">
<title>Node31</title>
<g id="a_Node000031"><a xlink:title=" ">
<polygon fill="#e0e0e0" stroke="#999999" points="567.89,-19.25 523.39,-19.25 523.39,0 567.89,0 567.89,-19.25"/>
<text text-anchor="middle" x="545.64" y="-5.75" font-family="Helvetica,sans-Serif" font-size="10.00">cstdlib</text>
</a>
</g>
</g>
<!-- Node27&#45;&gt;Node31 -->
<g id="edge40_Node000027_Node000031" class="edge">
<title>Node27&#45;&gt;Node31</title>
<g id="a_edge40_Node000027_Node000031"><a xlink:title=" ">
<path fill="none" stroke="#63b8ff" d="M769.24,-58.82C729.01,-51.51 652.92,-37.15 579.14,-19.72"/>
<polygon fill="#63b8ff" stroke="#63b8ff" points="580.29,-16.4 569.75,-17.48 578.66,-23.2 580.29,-16.4"/>
</a>
</g>
</g>
<!-- Node32 -->
<g id="Node000032" class="node">
<title>Node32</title>
<g id="a_Node000032"><a xlink:title=" ">
<polygon fill="#e0e0e0" stroke="#999999" points="645.39,-19.25 585.89,-19.25 585.89,0 645.39,0 645.39,-19.25"/>
<text text-anchor="middle" x="615.64" y="-5.75" font-family="Helvetica,sans-Serif" font-size="10.00">execinfo.h</text>
</a>
</g>
</g>
<!-- Node27&#45;&gt;Node32 -->
<g id="edge41_Node000027_Node000032" class="edge">
<title>Node27&#45;&gt;Node32</title>
<g id="a_edge41_Node000027_Node000032"><a xlink:title=" ">
<path fill="none" stroke="#63b8ff" d="M769.2,-55.55C738.89,-46.69 690.63,-32.57 656.31,-22.52"/>
<polygon fill="#63b8ff" stroke="#63b8ff" points="657.73,-19.29 647.15,-19.84 655.76,-26.01 657.73,-19.29"/>
</a>
</g>
</g>
<!-- Node33 -->
<g id="Node000033" class="node">
<title>Node33</title>
<g id="a_Node000033"><a xlink:title=" ">
<polygon fill="#e0e0e0" stroke="#999999" points="713.89,-19.25 663.39,-19.25 663.39,0 713.89,0 713.89,-19.25"/>
<text text-anchor="middle" x="688.64" y="-5.75" font-family="Helvetica,sans-Serif" font-size="10.00">cxxabi.h</text>
</a>
</g>
</g>
<!-- Node27&#45;&gt;Node33 -->
<g id="edge42_Node000027_Node000033" class="edge">
<title>Node27&#45;&gt;Node33</title>
<g id="a_edge42_Node000027_Node000033"><a xlink:title=" ">
<path fill="none" stroke="#63b8ff" d="M779.15,-54.84C762.24,-46.58 736.95,-34.23 717.4,-24.68"/>
<polygon fill="#63b8ff" stroke="#63b8ff" points="719.1,-21.61 708.58,-20.37 716.03,-27.9 719.1,-21.61"/>
</a>
</g>
</g>
<!-- Node34 -->
<g id="Node000034" class="node">
<title>Node34</title>
<g id="a_Node000034"><a xlink:title=" ">
<polygon fill="#e0e0e0" stroke="#999999" points="783.26,-19.25 732.01,-19.25 732.01,0 783.26,0 783.26,-19.25"/>
<text text-anchor="middle" x="757.64" y="-5.75" font-family="Helvetica,sans-Serif" font-size="10.00">sstream</text>
</a>
</g>
</g>
<!-- Node27&#45;&gt;Node34 -->
<g id="edge43_Node000027_Node000034" class="edge">
<title>Node27&#45;&gt;Node34</title>
<g id="a_edge43_Node000027_Node000034"><a xlink:title=" ">
<path fill="none" stroke="#63b8ff" d="M791.03,-55.08C785.68,-47.96 777.96,-37.68 771.29,-28.8"/>
<polygon fill="#63b8ff" stroke="#63b8ff" points="774.1,-26.71 765.3,-20.82 768.5,-30.92 774.1,-26.71"/>
</a>
</g>
</g>
<!-- Node35 -->
<g id="Node000035" class="node">
<title>Node35</title>
<g id="a_Node000035"><a xlink:title=" ">
<polygon fill="#e0e0e0" stroke="#999999" points="838.14,-19.25 801.14,-19.25 801.14,0 838.14,0 838.14,-19.25"/>
<text text-anchor="middle" x="819.64" y="-5.75" font-family="Helvetica,sans-Serif" font-size="10.00">array</text>
</a>
</g>
</g>
<!-- Node27&#45;&gt;Node35 -->
<g id="edge44_Node000027_Node000035" class="edge">
<title>Node27&#45;&gt;Node35</title>
<g id="a_edge44_Node000027_Node000035"><a xlink:title=" ">
<path fill="none" stroke="#63b8ff" d="M801.27,-55.08C804.06,-48.34 808.01,-38.77 811.53,-30.24"/>
<polygon fill="#63b8ff" stroke="#63b8ff" points="814.77,-31.59 815.35,-21.01 808.3,-28.91 814.77,-31.59"/>
</a>
</g>
</g>
<!-- Node36 -->
<g id="Node000036" class="node">
<title>Node36</title>
<g id="a_Node000036"><a xlink:title=" ">
<polygon fill="#e0e0e0" stroke="#999999" points="905.51,-19.25 855.76,-19.25 855.76,0 905.51,0 905.51,-19.25"/>
<text text-anchor="middle" x="880.64" y="-5.75" font-family="Helvetica,sans-Serif" font-size="10.00">unistd.h</text>
</a>
</g>
</g>
<!-- Node27&#45;&gt;Node36 -->
<g id="edge46_Node000027_Node000036" class="edge">
<title>Node27&#45;&gt;Node36</title>
<g id="a_edge46_Node000027_Node000036"><a xlink:title=" ">
<path fill="none" stroke="#63b8ff" d="M811.72,-54.84C824.12,-46.89 842.43,-35.14 857.07,-25.75"/>
<polygon fill="#63b8ff" stroke="#63b8ff" points="858.69,-28.87 865.22,-20.52 854.91,-22.97 858.69,-28.87"/>
</a>
</g>
</g>
<!-- Node37 -->
<g id="Node000037" class="node">
<title>Node37</title>
<g id="a_Node000037"><a xlink:title=" ">
<polygon fill="#e0e0e0" stroke="#999999" points="983.39,-19.25 923.89,-19.25 923.89,0 983.39,0 983.39,-19.25"/>
<text text-anchor="middle" x="953.64" y="-5.75" font-family="Helvetica,sans-Serif" font-size="10.00">sys/wait.h</text>
</a>
</g>
</g>
<!-- Node27&#45;&gt;Node37 -->
<g id="edge47_Node000027_Node000037" class="edge">
<title>Node27&#45;&gt;Node37</title>
<g id="a_edge47_Node000027_Node000037"><a xlink:title=" ">
<path fill="none" stroke="#63b8ff" d="M824.1,-54.84C849.43,-46.2 887.87,-33.07 916.31,-23.37"/>
<polygon fill="#63b8ff" stroke="#63b8ff" points="917.28,-26.73 925.61,-20.19 915.02,-20.11 917.28,-26.73"/>
</a>
</g>
</g>
<!-- Node38 -->
<g id="Node000038" class="node">
<title>Node38</title>
<g id="a_Node000038"><a xlink:title=" ">
<polygon fill="#e0e0e0" stroke="#999999" points="1061.76,-19.25 1001.51,-19.25 1001.51,0 1061.76,0 1061.76,-19.25"/>
<text text-anchor="middle" x="1031.64" y="-5.75" font-family="Helvetica,sans-Serif" font-size="10.00">sys/prctl.h</text>
</a>
</g>
</g>
<!-- Node27&#45;&gt;Node38 -->
<g id="edge48_Node000027_Node000038" class="edge">
<title>Node27&#45;&gt;Node38</title>
<g id="a_edge48_Node000027_Node000038"><a xlink:title=" ">
<path fill="none" stroke="#63b8ff" d="M826.33,-57.35C867.37,-48.01 943.06,-30.78 990.19,-20.06"/>
<polygon fill="#63b8ff" stroke="#63b8ff" points="990.78,-23.51 999.75,-17.88 989.22,-16.69 990.78,-23.51"/>
</a>
</g>
</g>
<!-- Node39&#45;&gt;Node2 -->
<g id="edge50_Node000039_Node000002" class="edge">
<title>Node39&#45;&gt;Node2</title>
<g id="a_edge50_Node000039_Node000002"><a xlink:title=" ">
<path fill="none" stroke="#63b8ff" d="M1062.28,-111.86C1009.41,-100.83 915.38,-80.51 910.64,-74.5 905.34,-67.78 904.89,-61.59 910.64,-55.25 963.63,3.18 1179.37,-30.17 1275.24,-19.3"/>
<polygon fill="#63b8ff" stroke="#63b8ff" points="1275.68,-22.77 1285.09,-17.91 1274.7,-15.84 1275.68,-22.77"/>
</a>
</g>
</g>
<!-- Node39&#45;&gt;Node7 -->
<g id="edge51_Node000039_Node000007" class="edge">
<title>Node39&#45;&gt;Node7</title>
<g id="a_edge51_Node000039_Node000007"><a xlink:title=" ">
<path fill="none" stroke="#63b8ff" d="M1125.97,-110.09C1153.32,-101.37 1194.96,-88.09 1225.48,-78.36"/>
<polygon fill="#63b8ff" stroke="#63b8ff" points="1226.26,-81.78 1234.73,-75.41 1224.14,-75.12 1226.26,-81.78"/>
</a>
</g>
</g>
<!-- Node39&#45;&gt;Node27 -->
<g id="edge56_Node000039_Node000027" class="edge">
<title>Node39&#45;&gt;Node27</title>
<g id="a_edge56_Node000039_Node000027"><a xlink:title=" ">
<path fill="none" stroke="#63b8ff" d="M1062.59,-112.19C1059.56,-111.61 1056.55,-111.04 1053.64,-110.5 977.25,-96.36 887.8,-81.05 837.42,-72.54"/>
<polygon fill="#63b8ff" stroke="#63b8ff" points="838.02,-69.1 827.58,-70.88 836.86,-76 838.02,-69.1"/>
</a>
</g>
</g>
<!-- Node40 -->
<g id="Node000040" class="node">
<title>Node40</title>
<g id="a_Node000040"><a xlink:title=" ">
<polygon fill="#e0e0e0" stroke="#999999" points="987.51,-74.5 919.76,-74.5 919.76,-55.25 987.51,-55.25 987.51,-74.5"/>
<text text-anchor="middle" x="953.64" y="-61" font-family="Helvetica,sans-Serif" font-size="10.00">TDirectory.h</text>
</a>
</g>
</g>
<!-- Node39&#45;&gt;Node40 -->
<g id="edge52_Node000039_Node000040" class="edge">
<title>Node39&#45;&gt;Node40</title>
<g id="a_edge52_Node000039_Node000040"><a xlink:title=" ">
<path fill="none" stroke="#63b8ff" d="M1073.21,-110.09C1050.04,-101.52 1014.97,-88.56 988.8,-78.88"/>
<polygon fill="#63b8ff" stroke="#63b8ff" points="990.2,-75.66 979.61,-75.48 987.77,-82.23 990.2,-75.66"/>
</a>
</g>
</g>
<!-- Node41 -->
<g id="Node000041" class="node">
<title>Node41</title>
<g id="a_Node000041"><a xlink:title=" ">
<polygon fill="#e0e0e0" stroke="#999999" points="1051.26,-74.5 1006.01,-74.5 1006.01,-55.25 1051.26,-55.25 1051.26,-74.5"/>
<text text-anchor="middle" x="1028.64" y="-61" font-family="Helvetica,sans-Serif" font-size="10.00">TFile.h</text>
</a>
</g>
</g>
<!-- Node39&#45;&gt;Node41 -->
<g id="edge53_Node000039_Node000041" class="edge">
<title>Node39&#45;&gt;Node41</title>
<g id="a_edge53_Node000039_Node000041"><a xlink:title=" ">
<path fill="none" stroke="#63b8ff" d="M1085.93,-110.09C1075.86,-102.32 1061.1,-90.92 1049.08,-81.65"/>
<polygon fill="#63b8ff" stroke="#63b8ff" points="1051.42,-79.04 1041.37,-75.7 1047.15,-84.58 1051.42,-79.04"/>
</a>
</g>
</g>
<!-- Node42 -->
<g id="Node000042" class="node">
<title>Node42</title>
<g id="a_Node000042"><a xlink:title=" ">
<polygon fill="#e0e0e0" stroke="#999999" points="1115.64,-74.5 1069.64,-74.5 1069.64,-55.25 1115.64,-55.25 1115.64,-74.5"/>
<text text-anchor="middle" x="1092.64" y="-61" font-family="Helvetica,sans-Serif" font-size="10.00">TList.h</text>
</a>
</g>
</g>
<!-- Node39&#45;&gt;Node42 -->
<g id="edge54_Node000039_Node000042" class="edge">
<title>Node39&#45;&gt;Node42</title>
<g id="a_edge54_Node000039_Node000042"><a xlink:title=" ">
<path fill="none" stroke="#63b8ff" d="M1096.81,-110.33C1096.19,-103.74 1095.32,-94.46 1094.54,-86.07"/>
<polygon fill="#63b8ff" stroke="#63b8ff" points="1098.04,-86 1093.62,-76.37 1091.07,-86.65 1098.04,-86"/>
</a>
</g>
</g>
<!-- Node43 -->
<g id="Node000043" class="node">
<title>Node43</title>
<g id="a_Node000043"><a xlink:title=" ">
<polygon fill="#e0e0e0" stroke="#999999" points="1179.64,-74.5 1133.64,-74.5 1133.64,-55.25 1179.64,-55.25 1179.64,-74.5"/>
<text text-anchor="middle" x="1156.64" y="-61" font-family="Helvetica,sans-Serif" font-size="10.00">TKey.h</text>
</a>
</g>
</g>
<!-- Node39&#45;&gt;Node43 -->
<g id="edge55_Node000039_Node000043" class="edge">
<title>Node39&#45;&gt;Node43</title>
<g id="a_edge55_Node000039_Node000043"><a xlink:title=" ">
<path fill="none" stroke="#63b8ff" d="M1107.65,-110.09C1116,-102.55 1128.14,-91.6 1138.24,-82.48"/>
<polygon fill="#63b8ff" stroke="#63b8ff" points="1140.58,-85.09 1145.65,-75.79 1135.89,-79.89 1140.58,-85.09"/>
</a>
</g>
</g>
<!-- Node44&#45;&gt;Node2 -->
<g id="edge58_Node000044_Node000002" class="edge">
<title>Node44&#45;&gt;Node2</title>
<g id="a_edge58_Node000044_Node000002"><a xlink:title=" ">
<path fill="none" stroke="#63b8ff" d="M1353.87,-165.35C1364.85,-157.46 1379.22,-144.92 1385.64,-129.75 1388.97,-121.87 1388.27,-118.64 1385.64,-110.5 1374.97,-77.46 1348.86,-46.14 1331.19,-27.66"/>
<polygon fill="#63b8ff" stroke="#63b8ff" points="1333.88,-25.4 1324.37,-20.74 1328.9,-30.32 1333.88,-25.4"/>
</a>
</g>
</g>
<!-- Node45 -->
<g id="Node000045" class="node">
<title>Node45</title>
<g id="a_Node000045"><a xlink:title=" ">
<polygon fill="#e0e0e0" stroke="#999999" points="1376.51,-129.75 1302.76,-129.75 1302.76,-110.5 1376.51,-110.5 1376.51,-129.75"/>
<text text-anchor="middle" x="1339.64" y="-116.25" font-family="Helvetica,sans-Serif" font-size="10.00">RtypesCore.h</text>
</a>
</g>
</g>
<!-- Node44&#45;&gt;Node45 -->
<g id="edge59_Node000044_Node000045" class="edge">
<title>Node44&#45;&gt;Node45</title>
<g id="a_edge59_Node000044_Node000045"><a xlink:title=" ">
<path fill="none" stroke="#63b8ff" d="M1339.64,-165.58C1339.64,-159.07 1339.64,-149.92 1339.64,-141.62"/>
<polygon fill="#63b8ff" stroke="#63b8ff" points="1343.14,-141.62 1339.64,-131.62 1336.14,-141.62 1343.14,-141.62"/>
</a>
</g>
</g>
</g>
</svg>
