<?xml version="1.0" encoding="UTF-8" standalone="no"?>
<!DOCTYPE svg PUBLIC "-//W3C//DTD SVG 1.1//EN"
 "http://www.w3.org/Graphics/SVG/1.1/DTD/svg11.dtd">
<!-- Generated by graphviz version 12.2.0 (20241103.1931)
 -->
<!-- Title: TGainMatch.cxx Pages: 1 -->
<svg width="1523pt" height="359pt"
 viewBox="0.00 0.00 1522.70 358.75" xmlns="http://www.w3.org/2000/svg" xmlns:xlink="http://www.w3.org/1999/xlink">
<g id="graph0" class="graph" transform="scale(1 1) rotate(0) translate(4 354.75)">
<title>TGainMatch.cxx</title>
<!-- Node1 -->
<g id="Node000001" class="node">
<title>Node1</title>
<g id="a_Node000001"><a xlink:title=" ">
<polygon fill="#999999" stroke="#666666" points="1289.7,-350.75 1203.95,-350.75 1203.95,-331.5 1289.7,-331.5 1289.7,-350.75"/>
<text text-anchor="middle" x="1246.83" y="-337.25" font-family="Helvetica,sans-Serif" font-size="10.00">TGainMatch.cxx</text>
</a>
</g>
</g>
<!-- Node2 -->
<g id="Node000002" class="node">
<title>Node2</title>
<g id="a_Node000002"><a xlink:href="_t_gain_match_8h.html" target="_top" xlink:title=" ">
<polygon fill="white" stroke="#666666" points="1057.2,-295.5 980.45,-295.5 980.45,-276.25 1057.2,-276.25 1057.2,-295.5"/>
<text text-anchor="middle" x="1018.83" y="-282" font-family="Helvetica,sans-Serif" font-size="10.00">TGainMatch.h</text>
</a>
</g>
</g>
<!-- Node1&#45;&gt;Node2 -->
<g id="edge1_Node000001_Node000002" class="edge">
<title>Node1&#45;&gt;Node2</title>
<g id="a_edge1_Node000001_Node000002"><a xlink:title=" ">
<path fill="none" stroke="#63b8ff" d="M1207.89,-331.03C1169.44,-322.05 1110.49,-308.28 1068.65,-298.51"/>
<polygon fill="#63b8ff" stroke="#63b8ff" points="1069.61,-295.14 1059.07,-296.28 1068.02,-301.96 1069.61,-295.14"/>
</a>
</g>
</g>
<!-- Node32 -->
<g id="Node000032" class="node">
<title>Node32</title>
<g id="a_Node000032"><a xlink:title=" ">
<polygon fill="#e0e0e0" stroke="#999999" points="1229.08,-185 1160.58,-185 1160.58,-165.75 1229.08,-165.75 1229.08,-185"/>
<text text-anchor="middle" x="1194.83" y="-171.5" font-family="Helvetica,sans-Serif" font-size="10.00">TFitResult.h</text>
</a>
</g>
</g>
<!-- Node1&#45;&gt;Node32 -->
<g id="edge54_Node000001_Node000032" class="edge">
<title>Node1&#45;&gt;Node32</title>
<g id="a_edge54_Node000001_Node000032"><a xlink:title=" ">
<path fill="none" stroke="#63b8ff" d="M1236.82,-331.29C1228.12,-322.98 1215.99,-309.72 1209.83,-295.5 1195.78,-263.07 1193.76,-221.35 1194,-196.87"/>
<polygon fill="#63b8ff" stroke="#63b8ff" points="1197.49,-197.09 1194.25,-187 1190.49,-196.91 1197.49,-197.09"/>
</a>
</g>
</g>
<!-- Node36 -->
<g id="Node000036" class="node">
<title>Node36</title>
<g id="a_Node000036"><a xlink:title=" ">
<polygon fill="#e0e0e0" stroke="#999999" points="1274.7,-295.5 1218.95,-295.5 1218.95,-276.25 1274.7,-276.25 1274.7,-295.5"/>
<text text-anchor="middle" x="1246.83" y="-282" font-family="Helvetica,sans-Serif" font-size="10.00">algorithm</text>
</a>
</g>
</g>
<!-- Node1&#45;&gt;Node36 -->
<g id="edge51_Node000001_Node000036" class="edge">
<title>Node1&#45;&gt;Node36</title>
<g id="a_edge51_Node000001_Node000036"><a xlink:title=" ">
<path fill="none" stroke="#63b8ff" d="M1246.83,-331.33C1246.83,-324.82 1246.83,-315.67 1246.83,-307.37"/>
<polygon fill="#63b8ff" stroke="#63b8ff" points="1250.33,-307.37 1246.83,-297.37 1243.33,-307.37 1250.33,-307.37"/>
</a>
</g>
</g>
<!-- Node37 -->
<g id="Node000037" class="node">
<title>Node37</title>
<g id="a_Node000037"><a xlink:title=" ">
<polygon fill="#e0e0e0" stroke="#999999" points="1416.45,-295.5 1293.2,-295.5 1293.2,-276.25 1416.45,-276.25 1416.45,-295.5"/>
<text text-anchor="middle" x="1354.83" y="-282" font-family="Helvetica,sans-Serif" font-size="10.00">Math/MinimizerOptions.h</text>
</a>
</g>
</g>
<!-- Node1&#45;&gt;Node37 -->
<g id="edge52_Node000001_Node000037" class="edge">
<title>Node1&#45;&gt;Node37</title>
<g id="a_edge52_Node000001_Node000037"><a xlink:title=" ">
<path fill="none" stroke="#63b8ff" d="M1265.15,-331.09C1281.9,-322.83 1306.96,-310.48 1326.33,-300.93"/>
<polygon fill="#63b8ff" stroke="#63b8ff" points="1327.64,-304.18 1335.06,-296.62 1324.54,-297.9 1327.64,-304.18"/>
</a>
</g>
</g>
<!-- Node38 -->
<g id="Node000038" class="node">
<title>Node38</title>
<g id="a_Node000038"><a xlink:title=" ">
<polygon fill="#e0e0e0" stroke="#999999" points="1514.7,-295.5 1434.95,-295.5 1434.95,-276.25 1514.7,-276.25 1514.7,-295.5"/>
<text text-anchor="middle" x="1474.83" y="-282" font-family="Helvetica,sans-Serif" font-size="10.00">TVirtualFitter.h</text>
</a>
</g>
</g>
<!-- Node1&#45;&gt;Node38 -->
<g id="edge53_Node000001_Node000038" class="edge">
<title>Node1&#45;&gt;Node38</title>
<g id="a_edge53_Node000001_Node000038"><a xlink:title=" ">
<path fill="none" stroke="#63b8ff" d="M1285.76,-331.03C1324.21,-322.05 1383.16,-308.28 1425,-298.51"/>
<polygon fill="#63b8ff" stroke="#63b8ff" points="1425.63,-301.96 1434.58,-296.28 1424.04,-295.14 1425.63,-301.96"/>
</a>
</g>
</g>
<!-- Node3 -->
<g id="Node000003" class="node">
<title>Node3</title>
<g id="a_Node000003"><a xlink:href="_t_cal_8h.html" target="_top" xlink:title=" ">
<polygon fill="white" stroke="#666666" points="749.7,-185 705.95,-185 705.95,-165.75 749.7,-165.75 749.7,-185"/>
<text text-anchor="middle" x="727.83" y="-171.5" font-family="Helvetica,sans-Serif" font-size="10.00">TCal.h</text>
</a>
</g>
</g>
<!-- Node2&#45;&gt;Node3 -->
<g id="edge2_Node000002_Node000003" class="edge">
<title>Node2&#45;&gt;Node3</title>
<g id="a_edge2_Node000002_Node000003"><a xlink:title=" ">
<path fill="none" stroke="#63b8ff" d="M990.11,-275.8C963.06,-267.11 921.46,-253.42 885.83,-240.25 841.63,-223.92 791.29,-203.19 759.55,-189.86"/>
<polygon fill="#63b8ff" stroke="#63b8ff" points="761.1,-186.71 750.53,-186.06 758.38,-193.16 761.1,-186.71"/>
</a>
</g>
</g>
<!-- Node6 -->
<g id="Node000006" class="node">
<title>Node6</title>
<g id="a_Node000006"><a xlink:title=" ">
<polygon fill="#e0e0e0" stroke="#999999" points="1105.2,-129.75 1064.45,-129.75 1064.45,-110.5 1105.2,-110.5 1105.2,-129.75"/>
<text text-anchor="middle" x="1084.83" y="-116.25" font-family="Helvetica,sans-Serif" font-size="10.00">TF1.h</text>
</a>
</g>
</g>
<!-- Node2&#45;&gt;Node6 -->
<g id="edge50_Node000002_Node000006" class="edge">
<title>Node2&#45;&gt;Node6</title>
<g id="a_edge50_Node000002_Node000006"><a xlink:title=" ">
<path fill="none" stroke="#63b8ff" d="M1021,-276.06C1024.17,-263.61 1030.48,-240.24 1037.83,-221 1048.85,-192.11 1064.64,-159.97 1074.82,-140.15"/>
<polygon fill="#63b8ff" stroke="#63b8ff" points="1077.88,-141.85 1079.38,-131.36 1071.67,-138.62 1077.88,-141.85"/>
</a>
</g>
</g>
<!-- Node7 -->
<g id="Node000007" class="node">
<title>Node7</title>
<g id="a_Node000007"><a xlink:title=" ">
<polygon fill="#e0e0e0" stroke="#999999" points="935.58,-129.75 864.08,-129.75 864.08,-110.5 935.58,-110.5 935.58,-129.75"/>
<text text-anchor="middle" x="899.83" y="-116.25" font-family="Helvetica,sans-Serif" font-size="10.00">TSpectrum.h</text>
</a>
</g>
</g>
<!-- Node2&#45;&gt;Node7 -->
<g id="edge48_Node000002_Node000007" class="edge">
<title>Node2&#45;&gt;Node7</title>
<g id="a_edge48_Node000002_Node000007"><a xlink:title=" ">
<path fill="none" stroke="#63b8ff" d="M1006.41,-275.87C985.3,-259.91 942.45,-224.62 918.83,-185 910.74,-171.44 905.88,-154.2 903.1,-141.05"/>
<polygon fill="#63b8ff" stroke="#63b8ff" points="906.58,-140.62 901.31,-131.43 899.7,-141.9 906.58,-140.62"/>
</a>
</g>
</g>
<!-- Node29 -->
<g id="Node000029" class="node">
<title>Node29</title>
<g id="a_Node000029"><a xlink:href="_t_cal_manager_8h.html" target="_top" xlink:title=" ">
<polygon fill="white" stroke="#666666" points="735.45,-240.25 654.2,-240.25 654.2,-221 735.45,-221 735.45,-240.25"/>
<text text-anchor="middle" x="694.83" y="-226.75" font-family="Helvetica,sans-Serif" font-size="10.00">TCalManager.h</text>
</a>
</g>
</g>
<!-- Node2&#45;&gt;Node29 -->
<g id="edge33_Node000002_Node000029" class="edge">
<title>Node2&#45;&gt;Node29</title>
<g id="a_edge33_Node000002_Node000029"><a xlink:title=" ">
<path fill="none" stroke="#63b8ff" d="M980.07,-278.5C921.99,-268.96 812.28,-250.93 747.15,-240.23"/>
<polygon fill="#63b8ff" stroke="#63b8ff" points="747.85,-236.79 737.42,-238.63 746.72,-243.7 747.85,-236.79"/>
</a>
</g>
</g>
<!-- Node31 -->
<g id="Node000031" class="node">
<title>Node31</title>
<g id="a_Node000031"><a xlink:href="_t_peak_8h.html" target="_top" xlink:title=" ">
<polygon fill="white" stroke="#666666" points="1158.83,-240.25 1106.83,-240.25 1106.83,-221 1158.83,-221 1158.83,-240.25"/>
<text text-anchor="middle" x="1132.83" y="-226.75" font-family="Helvetica,sans-Serif" font-size="10.00">TPeak.h</text>
</a>
</g>
</g>
<!-- Node2&#45;&gt;Node31 -->
<g id="edge37_Node000002_Node000031" class="edge">
<title>Node2&#45;&gt;Node31</title>
<g id="a_edge37_Node000002_Node000031"><a xlink:title=" ">
<path fill="none" stroke="#63b8ff" d="M1038.16,-275.84C1055.93,-267.54 1082.54,-255.11 1103.03,-245.54"/>
<polygon fill="#63b8ff" stroke="#63b8ff" points="1104.44,-248.75 1112.02,-241.34 1101.48,-242.4 1104.44,-248.75"/>
</a>
</g>
</g>
<!-- Node35 -->
<g id="Node000035" class="node">
<title>Node35</title>
<g id="a_Node000035"><a xlink:title=" ">
<polygon fill="#e0e0e0" stroke="#999999" points="1088.95,-240.25 1046.7,-240.25 1046.7,-221 1088.95,-221 1088.95,-240.25"/>
<text text-anchor="middle" x="1067.83" y="-226.75" font-family="Helvetica,sans-Serif" font-size="10.00">TH2.h</text>
</a>
</g>
</g>
<!-- Node2&#45;&gt;Node35 -->
<g id="edge49_Node000002_Node000035" class="edge">
<title>Node2&#45;&gt;Node35</title>
<g id="a_edge49_Node000002_Node000035"><a xlink:title=" ">
<path fill="none" stroke="#63b8ff" d="M1026.92,-276.08C1033.69,-268.73 1043.55,-258.01 1051.89,-248.94"/>
<polygon fill="#63b8ff" stroke="#63b8ff" points="1054.34,-251.45 1058.53,-241.72 1049.19,-246.71 1054.34,-251.45"/>
</a>
</g>
</g>
<!-- Node4 -->
<g id="Node000004" class="node">
<title>Node4</title>
<g id="a_Node000004"><a xlink:title=" ">
<polygon fill="#e0e0e0" stroke="#999999" points="54.33,-19.25 11.33,-19.25 11.33,0 54.33,0 54.33,-19.25"/>
<text text-anchor="middle" x="32.83" y="-5.75" font-family="Helvetica,sans-Serif" font-size="10.00">vector</text>
</a>
</g>
</g>
<!-- Node3&#45;&gt;Node4 -->
<g id="edge3_Node000003_Node000004" class="edge">
<title>Node3&#45;&gt;Node4</title>
<g id="a_edge3_Node000003_Node000004"><a xlink:title=" ">
<path fill="none" stroke="#63b8ff" d="M705.59,-167.63C702.66,-166.91 699.69,-166.25 696.83,-165.75 491.36,-129.62 434.8,-162.84 228.83,-129.75 127.58,-113.48 68.06,-155.22 4.83,-74.5 -6.09,-60.56 4.6,-41.7 15.78,-28.09"/>
<polygon fill="#63b8ff" stroke="#63b8ff" points="18.27,-30.55 22.33,-20.76 13.05,-25.89 18.27,-30.55"/>
</a>
</g>
</g>
<!-- Node5 -->
<g id="Node000005" class="node">
<title>Node5</title>
<g id="a_Node000005"><a xlink:title=" ">
<polygon fill="#e0e0e0" stroke="#999999" points="845.95,-129.75 803.7,-129.75 803.7,-110.5 845.95,-110.5 845.95,-129.75"/>
<text text-anchor="middle" x="824.83" y="-116.25" font-family="Helvetica,sans-Serif" font-size="10.00">TH1.h</text>
</a>
</g>
</g>
<!-- Node3&#45;&gt;Node5 -->
<g id="edge4_Node000003_Node000005" class="edge">
<title>Node3&#45;&gt;Node5</title>
<g id="a_edge4_Node000003_Node000005"><a xlink:title=" ">
<path fill="none" stroke="#63b8ff" d="M744.28,-165.34C759.05,-157.23 781,-145.18 798.26,-135.71"/>
<polygon fill="#63b8ff" stroke="#63b8ff" points="799.88,-138.81 806.96,-130.93 796.51,-132.68 799.88,-138.81"/>
</a>
</g>
</g>
<!-- Node3&#45;&gt;Node6 -->
<g id="edge5_Node000003_Node000006" class="edge">
<title>Node3&#45;&gt;Node6</title>
<g id="a_edge5_Node000003_Node000006"><a xlink:title=" ">
<path fill="none" stroke="#63b8ff" d="M750.16,-171.04C811.34,-161.92 981.83,-136.49 1052.99,-125.87"/>
<polygon fill="#63b8ff" stroke="#63b8ff" points="1053.43,-129.35 1062.8,-124.41 1052.4,-122.42 1053.43,-129.35"/>
</a>
</g>
</g>
<!-- Node3&#45;&gt;Node7 -->
<g id="edge6_Node000003_Node000007" class="edge">
<title>Node3&#45;&gt;Node7</title>
<g id="a_edge6_Node000003_Node000007"><a xlink:title=" ">
<path fill="none" stroke="#63b8ff" d="M749.96,-167.52C777.71,-158.93 825.8,-144.04 860.01,-133.45"/>
<polygon fill="#63b8ff" stroke="#63b8ff" points="860.63,-136.92 869.15,-130.62 858.56,-130.24 860.63,-136.92"/>
</a>
</g>
</g>
<!-- Node8 -->
<g id="Node000008" class="node">
<title>Node8</title>
<g id="a_Node000008"><a xlink:title=" ">
<polygon fill="#e0e0e0" stroke="#999999" points="314.2,-129.75 237.45,-129.75 237.45,-110.5 314.2,-110.5 314.2,-129.75"/>
<text text-anchor="middle" x="275.83" y="-116.25" font-family="Helvetica,sans-Serif" font-size="10.00">TMultiGraph.h</text>
</a>
</g>
</g>
<!-- Node3&#45;&gt;Node8 -->
<g id="edge7_Node000003_Node000008" class="edge">
<title>Node3&#45;&gt;Node8</title>
<g id="a_edge7_Node000003_Node000008"><a xlink:title=" ">
<path fill="none" stroke="#63b8ff" d="M705.58,-167.68C702.66,-166.95 699.68,-166.28 696.83,-165.75 536.17,-135.91 490.18,-152.11 325.53,-130.01"/>
<polygon fill="#63b8ff" stroke="#63b8ff" points="326.39,-126.59 316.01,-128.7 325.44,-133.53 326.39,-126.59"/>
</a>
</g>
</g>
<!-- Node9 -->
<g id="Node000009" class="node">
<title>Node9</title>
<g id="a_Node000009"><a xlink:title=" ">
<polygon fill="#e0e0e0" stroke="#999999" points="413.45,-129.75 332.2,-129.75 332.2,-110.5 413.45,-110.5 413.45,-129.75"/>
<text text-anchor="middle" x="372.83" y="-116.25" font-family="Helvetica,sans-Serif" font-size="10.00">TGraphErrors.h</text>
</a>
</g>
</g>
<!-- Node3&#45;&gt;Node9 -->
<g id="edge8_Node000003_Node000009" class="edge">
<title>Node3&#45;&gt;Node9</title>
<g id="a_edge8_Node000003_Node000009"><a xlink:title=" ">
<path fill="none" stroke="#63b8ff" d="M705.57,-167.78C702.64,-167.03 699.67,-166.33 696.83,-165.75 580,-141.95 546.22,-147.81 424.96,-130"/>
<polygon fill="#63b8ff" stroke="#63b8ff" points="425.64,-126.56 415.23,-128.54 424.6,-133.48 425.64,-126.56"/>
</a>
</g>
</g>
<!-- Node10 -->
<g id="Node000010" class="node">
<title>Node10</title>
<g id="a_Node000010"><a xlink:title=" ">
<polygon fill="#e0e0e0" stroke="#999999" points="786.08,-129.75 741.58,-129.75 741.58,-110.5 786.08,-110.5 786.08,-129.75"/>
<text text-anchor="middle" x="763.83" y="-116.25" font-family="Helvetica,sans-Serif" font-size="10.00">TRef.h</text>
</a>
</g>
</g>
<!-- Node3&#45;&gt;Node10 -->
<g id="edge9_Node000003_Node000010" class="edge">
<title>Node3&#45;&gt;Node10</title>
<g id="a_edge9_Node000003_Node000010"><a xlink:title=" ">
<path fill="none" stroke="#63b8ff" d="M733.77,-165.58C738.54,-158.53 745.39,-148.4 751.35,-139.58"/>
<polygon fill="#63b8ff" stroke="#63b8ff" points="754.2,-141.61 756.9,-131.36 748.4,-137.69 754.2,-141.61"/>
</a>
</g>
</g>
<!-- Node11 -->
<g id="Node000011" class="node">
<title>Node11</title>
<g id="a_Node000011"><a xlink:href="_t_channel_8h.html" target="_top" xlink:title=" ">
<polygon fill="white" stroke="#666666" points="496.2,-129.75 431.45,-129.75 431.45,-110.5 496.2,-110.5 496.2,-129.75"/>
<text text-anchor="middle" x="463.83" y="-116.25" font-family="Helvetica,sans-Serif" font-size="10.00">TChannel.h</text>
</a>
</g>
</g>
<!-- Node3&#45;&gt;Node11 -->
<g id="edge10_Node000003_Node000011" class="edge">
<title>Node3&#45;&gt;Node11</title>
<g id="a_edge10_Node000003_Node000011"><a xlink:title=" ">
<path fill="none" stroke="#63b8ff" d="M705.53,-167.94C702.61,-167.16 699.65,-166.41 696.83,-165.75 631.39,-150.41 554.71,-136.5 507.71,-128.42"/>
<polygon fill="#63b8ff" stroke="#63b8ff" points="508.36,-124.98 497.91,-126.75 507.18,-131.88 508.36,-124.98"/>
</a>
</g>
</g>
<!-- Node22 -->
<g id="Node000022" class="node">
<title>Node22</title>
<g id="a_Node000022"><a xlink:href="_t_nucleus_8h.html" target="_top" xlink:title=" ">
<polygon fill="white" stroke="#666666" points="723.58,-129.75 658.08,-129.75 658.08,-110.5 723.58,-110.5 723.58,-129.75"/>
<text text-anchor="middle" x="690.83" y="-116.25" font-family="Helvetica,sans-Serif" font-size="10.00">TNucleus.h</text>
</a>
</g>
</g>
<!-- Node3&#45;&gt;Node22 -->
<g id="edge23_Node000003_Node000022" class="edge">
<title>Node3&#45;&gt;Node22</title>
<g id="a_edge23_Node000003_Node000022"><a xlink:title=" ">
<path fill="none" stroke="#63b8ff" d="M721.72,-165.58C716.76,-158.46 709.62,-148.18 703.45,-139.3"/>
<polygon fill="#63b8ff" stroke="#63b8ff" points="706.51,-137.57 697.93,-131.35 700.76,-141.56 706.51,-137.57"/>
</a>
</g>
</g>
<!-- Node12 -->
<g id="Node000012" class="node">
<title>Node12</title>
<g id="a_Node000012"><a xlink:title=" ">
<polygon fill="#e0e0e0" stroke="#999999" points="458.83,-19.25 418.83,-19.25 418.83,0 458.83,0 458.83,-19.25"/>
<text text-anchor="middle" x="438.83" y="-5.75" font-family="Helvetica,sans-Serif" font-size="10.00">string</text>
</a>
</g>
</g>
<!-- Node11&#45;&gt;Node12 -->
<g id="edge11_Node000011_Node000012" class="edge">
<title>Node11&#45;&gt;Node12</title>
<g id="a_edge11_Node000011_Node000012"><a xlink:title=" ">
<path fill="none" stroke="#63b8ff" d="M461.78,-110.25C457.81,-93 448.95,-54.58 443.48,-30.81"/>
<polygon fill="#63b8ff" stroke="#63b8ff" points="446.9,-30.06 441.24,-21.1 440.07,-31.63 446.9,-30.06"/>
</a>
</g>
</g>
<!-- Node13 -->
<g id="Node000013" class="node">
<title>Node13</title>
<g id="a_Node000013"><a xlink:title=" ">
<polygon fill="#e0e0e0" stroke="#999999" points="510.33,-74.5 467.33,-74.5 467.33,-55.25 510.33,-55.25 510.33,-74.5"/>
<text text-anchor="middle" x="488.83" y="-61" font-family="Helvetica,sans-Serif" font-size="10.00">cmath</text>
</a>
</g>
</g>
<!-- Node11&#45;&gt;Node13 -->
<g id="edge12_Node000011_Node000013" class="edge">
<title>Node11&#45;&gt;Node13</title>
<g id="a_edge12_Node000011_Node000013"><a xlink:title=" ">
<path fill="none" stroke="#63b8ff" d="M467.95,-110.33C471.16,-103.51 475.71,-93.81 479.75,-85.2"/>
<polygon fill="#63b8ff" stroke="#63b8ff" points="482.88,-86.77 483.96,-76.23 476.55,-83.79 482.88,-86.77"/>
</a>
</g>
</g>
<!-- Node14 -->
<g id="Node000014" class="node">
<title>Node14</title>
<g id="a_Node000014"><a xlink:title=" ">
<polygon fill="#e0e0e0" stroke="#999999" points="242.08,-74.5 203.58,-74.5 203.58,-55.25 242.08,-55.25 242.08,-74.5"/>
<text text-anchor="middle" x="222.83" y="-61" font-family="Helvetica,sans-Serif" font-size="10.00">utility</text>
</a>
</g>
</g>
<!-- Node11&#45;&gt;Node14 -->
<g id="edge13_Node000011_Node000014" class="edge">
<title>Node11&#45;&gt;Node14</title>
<g id="a_edge13_Node000011_Node000014"><a xlink:title=" ">
<path fill="none" stroke="#63b8ff" d="M431.37,-112.3C380.79,-101.67 286.16,-81.77 253.28,-74.46"/>
<polygon fill="#63b8ff" stroke="#63b8ff" points="254.43,-71.13 243.9,-72.28 252.85,-77.95 254.43,-71.13"/>
</a>
</g>
</g>
<!-- Node15 -->
<g id="Node000015" class="node">
<title>Node15</title>
<g id="a_Node000015"><a xlink:title=" ">
<polygon fill="#e0e0e0" stroke="#999999" points="343.2,-74.5 260.45,-74.5 260.45,-55.25 343.2,-55.25 343.2,-74.5"/>
<text text-anchor="middle" x="301.83" y="-61" font-family="Helvetica,sans-Serif" font-size="10.00">unordered_map</text>
</a>
</g>
</g>
<!-- Node11&#45;&gt;Node15 -->
<g id="edge14_Node000011_Node000015" class="edge">
<title>Node11&#45;&gt;Node15</title>
<g id="a_edge14_Node000011_Node000015"><a xlink:title=" ">
<path fill="none" stroke="#63b8ff" d="M436.34,-110.09C409.93,-101.41 369.77,-88.21 340.2,-78.49"/>
<polygon fill="#63b8ff" stroke="#63b8ff" points="341.47,-75.22 330.88,-75.43 339.29,-81.87 341.47,-75.22"/>
</a>
</g>
</g>
<!-- Node16 -->
<g id="Node000016" class="node">
<title>Node16</title>
<g id="a_Node000016"><a xlink:title=" ">
<polygon fill="#e0e0e0" stroke="#999999" points="589.33,-74.5 528.33,-74.5 528.33,-55.25 589.33,-55.25 589.33,-74.5"/>
<text text-anchor="middle" x="558.83" y="-61" font-family="Helvetica,sans-Serif" font-size="10.00">TNamed.h</text>
</a>
</g>
</g>
<!-- Node11&#45;&gt;Node16 -->
<g id="edge15_Node000011_Node000016" class="edge">
<title>Node11&#45;&gt;Node16</title>
<g id="a_edge15_Node000011_Node000016"><a xlink:title=" ">
<path fill="none" stroke="#63b8ff" d="M479.94,-110.09C494.41,-101.98 515.9,-89.93 532.81,-80.46"/>
<polygon fill="#63b8ff" stroke="#63b8ff" points="534.3,-83.64 541.31,-75.69 530.88,-77.53 534.3,-83.64"/>
</a>
</g>
</g>
<!-- Node17 -->
<g id="Node000017" class="node">
<title>Node17</title>
<g id="a_Node000017"><a xlink:title=" ">
<polygon fill="#e0e0e0" stroke="#999999" points="410.33,-74.5 361.33,-74.5 361.33,-55.25 410.33,-55.25 410.33,-74.5"/>
<text text-anchor="middle" x="385.83" y="-61" font-family="Helvetica,sans-Serif" font-size="10.00">TTree.h</text>
</a>
</g>
</g>
<!-- Node11&#45;&gt;Node17 -->
<g id="edge16_Node000011_Node000017" class="edge">
<title>Node11&#45;&gt;Node17</title>
<g id="a_edge16_Node000011_Node000017"><a xlink:title=" ">
<path fill="none" stroke="#63b8ff" d="M450.59,-110.09C439.05,-102.21 422.06,-90.61 408.38,-81.27"/>
<polygon fill="#63b8ff" stroke="#63b8ff" points="410.6,-78.55 400.37,-75.81 406.66,-84.33 410.6,-78.55"/>
</a>
</g>
</g>
<!-- Node18 -->
<g id="Node000018" class="node">
<title>Node18</title>
<g id="a_Node000018"><a xlink:title=" ">
<polygon fill="#e0e0e0" stroke="#999999" points="662.7,-74.5 606.95,-74.5 606.95,-55.25 662.7,-55.25 662.7,-74.5"/>
<text text-anchor="middle" x="634.83" y="-61" font-family="Helvetica,sans-Serif" font-size="10.00">TGraph.h</text>
</a>
</g>
</g>
<!-- Node11&#45;&gt;Node18 -->
<g id="edge17_Node000011_Node000018" class="edge">
<title>Node11&#45;&gt;Node18</title>
<g id="a_edge17_Node000011_Node000018"><a xlink:title=" ">
<path fill="none" stroke="#63b8ff" d="M492.83,-110.09C521.09,-101.29 564.26,-87.85 595.58,-78.1"/>
<polygon fill="#63b8ff" stroke="#63b8ff" points="596.58,-81.45 605.08,-75.14 594.5,-74.77 596.58,-81.45"/>
</a>
</g>
</g>
<!-- Node19 -->
<g id="Node000019" class="node">
<title>Node19</title>
<g id="a_Node000019"><a xlink:title=" ">
<polygon fill="#e0e0e0" stroke="#999999" points="83.45,-74.5 14.2,-74.5 14.2,-55.25 83.45,-55.25 83.45,-74.5"/>
<text text-anchor="middle" x="48.83" y="-61" font-family="Helvetica,sans-Serif" font-size="10.00">TClassRef.h</text>
</a>
</g>
</g>
<!-- Node11&#45;&gt;Node19 -->
<g id="edge18_Node000011_Node000019" class="edge">
<title>Node11&#45;&gt;Node19</title>
<g id="a_edge18_Node000011_Node000019"><a xlink:title=" ">
<path fill="none" stroke="#63b8ff" d="M431.21,-111.96C428.38,-111.43 425.56,-110.93 422.83,-110.5 280.68,-87.85 240.62,-96.27 94.98,-74.69"/>
<polygon fill="#63b8ff" stroke="#63b8ff" points="95.75,-71.27 85.34,-73.24 94.71,-78.19 95.75,-71.27"/>
</a>
</g>
</g>
<!-- Node20 -->
<g id="Node000020" class="node">
<title>Node20</title>
<g id="a_Node000020"><a xlink:href="_t_priority_value_8h.html" target="_top" xlink:title=" ">
<polygon fill="white" stroke="#666666" points="185.95,-74.5 101.7,-74.5 101.7,-55.25 185.95,-55.25 185.95,-74.5"/>
<text text-anchor="middle" x="143.83" y="-61" font-family="Helvetica,sans-Serif" font-size="10.00">TPriorityValue.h</text>
</a>
</g>
</g>
<!-- Node11&#45;&gt;Node20 -->
<g id="edge19_Node000011_Node000020" class="edge">
<title>Node11&#45;&gt;Node20</title>
<g id="a_edge19_Node000011_Node000020"><a xlink:title=" ">
<path fill="none" stroke="#63b8ff" d="M431.18,-112.1C428.36,-111.54 425.54,-111 422.83,-110.5 325.48,-92.59 297.98,-91.14 197.66,-74.94"/>
<polygon fill="#63b8ff" stroke="#63b8ff" points="198.32,-71.5 187.89,-73.35 197.2,-78.41 198.32,-71.5"/>
</a>
</g>
</g>
<!-- Node20&#45;&gt;Node4 -->
<g id="edge22_Node000020_Node000004" class="edge">
<title>Node20&#45;&gt;Node4</title>
<g id="a_edge22_Node000020_Node000004"><a xlink:title=" ">
<path fill="none" stroke="#63b8ff" d="M125,-54.84C107.77,-46.58 82.02,-34.23 62.12,-24.68"/>
<polygon fill="#63b8ff" stroke="#63b8ff" points="63.64,-21.53 53.11,-20.36 60.61,-27.84 63.64,-21.53"/>
</a>
</g>
</g>
<!-- Node20&#45;&gt;Node12 -->
<g id="edge21_Node000020_Node000012" class="edge">
<title>Node20&#45;&gt;Node12</title>
<g id="a_edge21_Node000020_Node000012"><a xlink:title=" ">
<path fill="none" stroke="#63b8ff" d="M186.41,-56.19C246.34,-45.37 354.18,-25.9 407.38,-16.3"/>
<polygon fill="#63b8ff" stroke="#63b8ff" points="407.77,-19.79 416.98,-14.57 406.52,-12.9 407.77,-19.79"/>
</a>
</g>
</g>
<!-- Node21 -->
<g id="Node000021" class="node">
<title>Node21</title>
<g id="a_Node000021"><a xlink:title=" ">
<polygon fill="#e0e0e0" stroke="#999999" points="169.45,-19.25 118.2,-19.25 118.2,0 169.45,0 169.45,-19.25"/>
<text text-anchor="middle" x="143.83" y="-5.75" font-family="Helvetica,sans-Serif" font-size="10.00">ostream</text>
</a>
</g>
</g>
<!-- Node20&#45;&gt;Node21 -->
<g id="edge20_Node000020_Node000021" class="edge">
<title>Node20&#45;&gt;Node21</title>
<g id="a_edge20_Node000020_Node000021"><a xlink:title=" ">
<path fill="none" stroke="#63b8ff" d="M143.83,-55.08C143.83,-48.57 143.83,-39.42 143.83,-31.12"/>
<polygon fill="#63b8ff" stroke="#63b8ff" points="147.33,-31.12 143.83,-21.12 140.33,-31.12 147.33,-31.12"/>
</a>
</g>
</g>
<!-- Node22&#45;&gt;Node12 -->
<g id="edge27_Node000022_Node000012" class="edge">
<title>Node22&#45;&gt;Node12</title>
<g id="a_edge27_Node000022_Node000012"><a xlink:title=" ">
<path fill="none" stroke="#63b8ff" d="M690.91,-110.2C690.52,-96.28 687.61,-69.53 671.83,-55.25 642.66,-28.86 527.33,-17.01 470.63,-12.69"/>
<polygon fill="#63b8ff" stroke="#63b8ff" points="470.89,-9.2 460.67,-11.97 470.39,-16.18 470.89,-9.2"/>
</a>
</g>
</g>
<!-- Node22&#45;&gt;Node13 -->
<g id="edge24_Node000022_Node000013" class="edge">
<title>Node22&#45;&gt;Node13</title>
<g id="a_edge24_Node000022_Node000013"><a xlink:title=" ">
<path fill="none" stroke="#63b8ff" d="M657.78,-110.82C625.34,-102.62 574.17,-89.51 521.63,-75.22"/>
<polygon fill="#63b8ff" stroke="#63b8ff" points="522.79,-71.91 512.22,-72.65 520.95,-78.66 522.79,-71.91"/>
</a>
</g>
</g>
<!-- Node22&#45;&gt;Node16 -->
<g id="edge31_Node000022_Node000016" class="edge">
<title>Node22&#45;&gt;Node16</title>
<g id="a_edge31_Node000022_Node000016"><a xlink:title=" ">
<path fill="none" stroke="#63b8ff" d="M668.43,-110.09C647.38,-101.6 615.62,-88.79 591.7,-79.14"/>
<polygon fill="#63b8ff" stroke="#63b8ff" points="593.31,-76.01 582.73,-75.52 590.7,-82.51 593.31,-76.01"/>
</a>
</g>
</g>
<!-- Node23 -->
<g id="Node000023" class="node">
<title>Node23</title>
<g id="a_Node000023"><a xlink:title=" ">
<polygon fill="#e0e0e0" stroke="#999999" points="1009.45,-74.5 964.2,-74.5 964.2,-55.25 1009.45,-55.25 1009.45,-74.5"/>
<text text-anchor="middle" x="986.83" y="-61" font-family="Helvetica,sans-Serif" font-size="10.00">cstring</text>
</a>
</g>
</g>
<!-- Node22&#45;&gt;Node23 -->
<g id="edge25_Node000022_Node000023" class="edge">
<title>Node22&#45;&gt;Node23</title>
<g id="a_edge25_Node000022_Node000023"><a xlink:title=" ">
<path fill="none" stroke="#63b8ff" d="M723.82,-112.21C726.86,-111.62 729.9,-111.04 732.83,-110.5 827.68,-93.08 855.19,-95.34 952.86,-74.72"/>
<polygon fill="#63b8ff" stroke="#63b8ff" points="953.3,-78.21 962.34,-72.69 951.83,-71.37 953.3,-78.21"/>
</a>
</g>
</g>
<!-- Node24 -->
<g id="Node000024" class="node">
<title>Node24</title>
<g id="a_Node000024"><a xlink:title=" ">
<polygon fill="#e0e0e0" stroke="#999999" points="763.08,-74.5 718.58,-74.5 718.58,-55.25 763.08,-55.25 763.08,-74.5"/>
<text text-anchor="middle" x="740.83" y="-61" font-family="Helvetica,sans-Serif" font-size="10.00">cstdlib</text>
</a>
</g>
</g>
<!-- Node22&#45;&gt;Node24 -->
<g id="edge26_Node000022_Node000024" class="edge">
<title>Node22&#45;&gt;Node24</title>
<g id="a_edge26_Node000022_Node000024"><a xlink:title=" ">
<path fill="none" stroke="#63b8ff" d="M699.08,-110.33C705.99,-102.98 716.05,-92.26 724.56,-83.19"/>
<polygon fill="#63b8ff" stroke="#63b8ff" points="727.06,-85.65 731.35,-75.96 721.96,-80.86 727.06,-85.65"/>
</a>
</g>
</g>
<!-- Node25 -->
<g id="Node000025" class="node">
<title>Node25</title>
<g id="a_Node000025"><a xlink:href="_t_transition_8h.html" target="_top" xlink:title=" ">
<polygon fill="white" stroke="#666666" points="945.95,-74.5 873.7,-74.5 873.7,-55.25 945.95,-55.25 945.95,-74.5"/>
<text text-anchor="middle" x="909.83" y="-61" font-family="Helvetica,sans-Serif" font-size="10.00">TTransition.h</text>
</a>
</g>
</g>
<!-- Node22&#45;&gt;Node25 -->
<g id="edge28_Node000022_Node000025" class="edge">
<title>Node22&#45;&gt;Node25</title>
<g id="a_edge28_Node000022_Node000025"><a xlink:title=" ">
<path fill="none" stroke="#63b8ff" d="M723.61,-111.15C760.45,-102.2 820.56,-87.58 862.48,-77.39"/>
<polygon fill="#63b8ff" stroke="#63b8ff" points="863.17,-80.82 872.06,-75.06 861.51,-74.02 863.17,-80.82"/>
</a>
</g>
</g>
<!-- Node28 -->
<g id="Node000028" class="node">
<title>Node28</title>
<g id="a_Node000028"><a xlink:title=" ">
<polygon fill="#e0e0e0" stroke="#999999" points="856.08,-74.5 781.58,-74.5 781.58,-55.25 856.08,-55.25 856.08,-74.5"/>
<text text-anchor="middle" x="818.83" y="-61" font-family="Helvetica,sans-Serif" font-size="10.00">TSortedList.h</text>
</a>
</g>
</g>
<!-- Node22&#45;&gt;Node28 -->
<g id="edge32_Node000022_Node000028" class="edge">
<title>Node22&#45;&gt;Node28</title>
<g id="a_edge32_Node000022_Node000028"><a xlink:title=" ">
<path fill="none" stroke="#63b8ff" d="M712.54,-110.09C732.86,-101.64 763.47,-88.9 786.63,-79.27"/>
<polygon fill="#63b8ff" stroke="#63b8ff" points="787.72,-82.61 795.61,-75.53 785.03,-76.14 787.72,-82.61"/>
</a>
</g>
</g>
<!-- Node26 -->
<g id="Node000026" class="node">
<title>Node26</title>
<g id="a_Node000026"><a xlink:title=" ">
<polygon fill="#e0e0e0" stroke="#999999" points="930.95,-19.25 888.7,-19.25 888.7,0 930.95,0 930.95,-19.25"/>
<text text-anchor="middle" x="909.83" y="-5.75" font-family="Helvetica,sans-Serif" font-size="10.00">cstdio</text>
</a>
</g>
</g>
<!-- Node25&#45;&gt;Node26 -->
<g id="edge29_Node000025_Node000026" class="edge">
<title>Node25&#45;&gt;Node26</title>
<g id="a_edge29_Node000025_Node000026"><a xlink:title=" ">
<path fill="none" stroke="#63b8ff" d="M909.83,-55.08C909.83,-48.57 909.83,-39.42 909.83,-31.12"/>
<polygon fill="#63b8ff" stroke="#63b8ff" points="913.33,-31.12 909.83,-21.12 906.33,-31.12 913.33,-31.12"/>
</a>
</g>
</g>
<!-- Node27 -->
<g id="Node000027" class="node">
<title>Node27</title>
<g id="a_Node000027"><a xlink:title=" ">
<polygon fill="#e0e0e0" stroke="#999999" points="1036.83,-19.25 978.83,-19.25 978.83,0 1036.83,0 1036.83,-19.25"/>
<text text-anchor="middle" x="1007.83" y="-5.75" font-family="Helvetica,sans-Serif" font-size="10.00">TObject.h</text>
</a>
</g>
</g>
<!-- Node25&#45;&gt;Node27 -->
<g id="edge30_Node000025_Node000027" class="edge">
<title>Node25&#45;&gt;Node27</title>
<g id="a_edge30_Node000025_Node000027"><a xlink:title=" ">
<path fill="none" stroke="#63b8ff" d="M926.45,-54.84C941.51,-46.66 963.97,-34.46 981.48,-24.94"/>
<polygon fill="#63b8ff" stroke="#63b8ff" points="982.67,-28.27 989.79,-20.43 979.33,-22.12 982.67,-28.27"/>
</a>
</g>
</g>
<!-- Node29&#45;&gt;Node3 -->
<g id="edge34_Node000029_Node000003" class="edge">
<title>Node29&#45;&gt;Node3</title>
<g id="a_edge34_Node000029_Node000003"><a xlink:title=" ">
<path fill="none" stroke="#63b8ff" d="M700.27,-220.83C704.6,-213.86 710.79,-203.87 716.21,-195.12"/>
<polygon fill="#63b8ff" stroke="#63b8ff" points="719.17,-196.99 721.46,-186.65 713.22,-193.3 719.17,-196.99"/>
</a>
</g>
</g>
<!-- Node29&#45;&gt;Node16 -->
<g id="edge35_Node000029_Node000016" class="edge">
<title>Node29&#45;&gt;Node16</title>
<g id="a_edge35_Node000029_Node000016"><a xlink:title=" ">
<path fill="none" stroke="#63b8ff" d="M675.45,-220.64C660.26,-212.86 639.34,-200.43 624.83,-185 596.58,-154.96 576.19,-110.57 566.06,-85.32"/>
<polygon fill="#63b8ff" stroke="#63b8ff" points="569.45,-84.37 562.58,-76.31 562.92,-86.9 569.45,-84.37"/>
</a>
</g>
</g>
<!-- Node30 -->
<g id="Node000030" class="node">
<title>Node30</title>
<g id="a_Node000030"><a xlink:title=" ">
<polygon fill="#e0e0e0" stroke="#999999" points="687.95,-185 633.7,-185 633.7,-165.75 687.95,-165.75 687.95,-185"/>
<text text-anchor="middle" x="660.83" y="-171.5" font-family="Helvetica,sans-Serif" font-size="10.00">TClass.h</text>
</a>
</g>
</g>
<!-- Node29&#45;&gt;Node30 -->
<g id="edge36_Node000029_Node000030" class="edge">
<title>Node29&#45;&gt;Node30</title>
<g id="a_edge36_Node000029_Node000030"><a xlink:title=" ">
<path fill="none" stroke="#63b8ff" d="M689.21,-220.83C684.71,-213.78 678.24,-203.65 672.61,-194.83"/>
<polygon fill="#63b8ff" stroke="#63b8ff" points="675.71,-193.18 667.38,-186.63 669.81,-196.95 675.71,-193.18"/>
</a>
</g>
</g>
<!-- Node31&#45;&gt;Node6 -->
<g id="edge38_Node000031_Node000006" class="edge">
<title>Node31&#45;&gt;Node6</title>
<g id="a_edge38_Node000031_Node000006"><a xlink:title=" ">
<path fill="none" stroke="#63b8ff" d="M1128.9,-220.75C1121.16,-203.26 1103.8,-164.02 1093.32,-140.34"/>
<polygon fill="#63b8ff" stroke="#63b8ff" points="1096.67,-139.24 1089.42,-131.51 1090.27,-142.07 1096.67,-139.24"/>
</a>
</g>
</g>
<!-- Node31&#45;&gt;Node18 -->
<g id="edge40_Node000031_Node000018" class="edge">
<title>Node31&#45;&gt;Node18</title>
<g id="a_edge40_Node000031_Node000018"><a xlink:title=" ">
<path fill="none" stroke="#63b8ff" d="M1134.6,-220.81C1138.52,-198.56 1145.22,-139.79 1113.83,-110.5 1080.87,-79.76 754.66,-79.07 709.83,-74.5 698.19,-73.31 685.55,-71.9 674.02,-70.57"/>
<polygon fill="#63b8ff" stroke="#63b8ff" points="674.78,-67.14 664.45,-69.46 673.97,-74.09 674.78,-67.14"/>
</a>
</g>
</g>
<!-- Node31&#45;&gt;Node32 -->
<g id="edge39_Node000031_Node000032" class="edge">
<title>Node31&#45;&gt;Node32</title>
<g id="a_edge39_Node000031_Node000032"><a xlink:title=" ">
<path fill="none" stroke="#63b8ff" d="M1143.34,-220.59C1152.21,-212.97 1165.14,-201.87 1175.82,-192.7"/>
<polygon fill="#63b8ff" stroke="#63b8ff" points="1178.01,-195.43 1183.32,-186.26 1173.45,-190.12 1178.01,-195.43"/>
</a>
</g>
</g>
<!-- Node33 -->
<g id="Node000033" class="node">
<title>Node33</title>
<g id="a_Node000033"><a xlink:href="_t_g_r_s_i_fit_8h.html" target="_top" xlink:title=" ">
<polygon fill="white" stroke="#666666" points="992.2,-185 927.45,-185 927.45,-165.75 992.2,-165.75 992.2,-185"/>
<text text-anchor="middle" x="959.83" y="-171.5" font-family="Helvetica,sans-Serif" font-size="10.00">TGRSIFit.h</text>
</a>
</g>
</g>
<!-- Node31&#45;&gt;Node33 -->
<g id="edge41_Node000031_Node000033" class="edge">
<title>Node31&#45;&gt;Node33</title>
<g id="a_edge41_Node000031_Node000033"><a xlink:title=" ">
<path fill="none" stroke="#63b8ff" d="M1106.55,-221.54C1078.19,-212.81 1032.67,-198.8 999.85,-188.69"/>
<polygon fill="#63b8ff" stroke="#63b8ff" points="1001.28,-185.47 990.7,-185.88 999.22,-192.16 1001.28,-185.47"/>
</a>
</g>
</g>
<!-- Node33&#45;&gt;Node5 -->
<g id="edge43_Node000033_Node000005" class="edge">
<title>Node33&#45;&gt;Node5</title>
<g id="a_edge43_Node000033_Node000005"><a xlink:title=" ">
<path fill="none" stroke="#63b8ff" d="M936.92,-165.34C914.87,-156.64 881.33,-143.41 856.68,-133.69"/>
<polygon fill="#63b8ff" stroke="#63b8ff" points="858.05,-130.47 847.46,-130.05 855.48,-136.98 858.05,-130.47"/>
</a>
</g>
</g>
<!-- Node33&#45;&gt;Node6 -->
<g id="edge44_Node000033_Node000006" class="edge">
<title>Node33&#45;&gt;Node6</title>
<g id="a_edge44_Node000033_Node000006"><a xlink:title=" ">
<path fill="none" stroke="#63b8ff" d="M981.03,-165.34C1001.02,-156.82 1031.22,-143.96 1053.9,-134.3"/>
<polygon fill="#63b8ff" stroke="#63b8ff" points="1055.13,-137.58 1062.96,-130.44 1052.38,-131.14 1055.13,-137.58"/>
</a>
</g>
</g>
<!-- Node33&#45;&gt;Node7 -->
<g id="edge45_Node000033_Node000007" class="edge">
<title>Node33&#45;&gt;Node7</title>
<g id="a_edge45_Node000033_Node000007"><a xlink:title=" ">
<path fill="none" stroke="#63b8ff" d="M949.65,-165.34C941.06,-157.72 928.56,-146.62 918.22,-137.45"/>
<polygon fill="#63b8ff" stroke="#63b8ff" points="920.79,-135.05 910.99,-131.03 916.14,-140.29 920.79,-135.05"/>
</a>
</g>
</g>
<!-- Node33&#45;&gt;Node10 -->
<g id="edge46_Node000033_Node000010" class="edge">
<title>Node33&#45;&gt;Node10</title>
<g id="a_edge46_Node000033_Node000010"><a xlink:title=" ">
<path fill="none" stroke="#63b8ff" d="M927.25,-165.64C896.16,-157.29 847.73,-144.23 797.3,-130.41"/>
<polygon fill="#63b8ff" stroke="#63b8ff" points="798.54,-127.13 787.97,-127.86 796.68,-133.88 798.54,-127.13"/>
</a>
</g>
</g>
<!-- Node33&#45;&gt;Node27 -->
<g id="edge42_Node000033_Node000027" class="edge">
<title>Node33&#45;&gt;Node27</title>
<g id="a_edge42_Node000033_Node000027"><a xlink:title=" ">
<path fill="none" stroke="#63b8ff" d="M979.26,-165.29C992.75,-157.83 1009.71,-145.86 1017.83,-129.75 1033.88,-97.88 1023.85,-55.08 1015.54,-30.41"/>
<polygon fill="#63b8ff" stroke="#63b8ff" points="1018.84,-29.22 1012.13,-21.02 1012.26,-31.62 1018.84,-29.22"/>
</a>
</g>
</g>
<!-- Node34 -->
<g id="Node000034" class="node">
<title>Node34</title>
<g id="a_Node000034"><a xlink:title=" ">
<polygon fill="#e0e0e0" stroke="#999999" points="1008.33,-129.75 953.33,-129.75 953.33,-110.5 1008.33,-110.5 1008.33,-129.75"/>
<text text-anchor="middle" x="980.83" y="-116.25" font-family="Helvetica,sans-Serif" font-size="10.00">TString.h</text>
</a>
</g>
</g>
<!-- Node33&#45;&gt;Node34 -->
<g id="edge47_Node000033_Node000034" class="edge">
<title>Node33&#45;&gt;Node34</title>
<g id="a_edge47_Node000033_Node000034"><a xlink:title=" ">
<path fill="none" stroke="#63b8ff" d="M963.29,-165.58C965.95,-158.84 969.72,-149.27 973.09,-140.74"/>
<polygon fill="#63b8ff" stroke="#63b8ff" points="976.31,-142.1 976.73,-131.52 969.8,-139.54 976.31,-142.1"/>
</a>
</g>
</g>
</g>
</svg>
