<?xml version="1.0" encoding="UTF-8" standalone="no"?>
<!DOCTYPE svg PUBLIC "-//W3C//DTD SVG 1.1//EN"
 "http://www.w3.org/Graphics/SVG/1.1/DTD/svg11.dtd">
<!-- Generated by graphviz version 9.0.0 (20230911.1827)
 -->
<!-- Title: TGriffinBgo.h Pages: 1 -->
<svg width="1900pt" height="138pt"
 viewBox="0.00 0.00 1899.62 137.75" xmlns="http://www.w3.org/2000/svg" xmlns:xlink="http://www.w3.org/1999/xlink">
<g id="graph0" class="graph" transform="scale(1 1) rotate(0) translate(4 133.75)">
<title>TGriffinBgo.h</title>
<!-- Node1 -->
<g id="Node000001" class="node">
<title>Node1</title>
<g id="a_Node000001"><a xlink:title=" ">
<polygon fill="#999999" stroke="#666666" points="988,-129.75 916.5,-129.75 916.5,-110.5 988,-110.5 988,-129.75"/>
<text text-anchor="middle" x="952.25" y="-116.25" font-family="Helvetica,sans-Serif" font-size="10.00">TGriffinBgo.h</text>
</a>
</g>
</g>
<!-- Node2 -->
<g id="Node000002" class="node">
<title>Node2</title>
<g id="a_Node000002"><a xlink:href="_angular_correlation_helper_8hh.html" target="_top" xlink:title=" ">
<polygon fill="white" stroke="#666666" points="138.62,-74.5 1.88,-74.5 1.88,-55.25 138.62,-55.25 138.62,-74.5"/>
<text text-anchor="middle" x="70.25" y="-61" font-family="Helvetica,sans-Serif" font-size="10.00">AngularCorrelationHelper.hh</text>
</a>
</g>
</g>
<!-- Node1&#45;&gt;Node2 -->
<g id="edge1_Node000001_Node000002" class="edge">
<title>Node1&#45;&gt;Node2</title>
<g id="a_edge1_Node000001_Node000002"><a xlink:title=" ">
<path fill="none" stroke="#63b8ff" d="M904.75,-117.42C780.27,-112.77 434.39,-98.52 147.25,-74.5 144.57,-74.28 141.84,-74.03 139.08,-73.78"/>
<polygon fill="#63b8ff" stroke="#63b8ff" points="904.46,-120.92 914.58,-117.79 904.72,-113.92 904.46,-120.92"/>
</a>
</g>
</g>
<!-- Node4 -->
<g id="Node000004" class="node">
<title>Node4</title>
<g id="a_Node000004"><a xlink:href="_compton_polarimetry_helper_8hh.html" target="_top" xlink:title=" ">
<polygon fill="white" stroke="#666666" points="301.75,-74.5 156.75,-74.5 156.75,-55.25 301.75,-55.25 301.75,-74.5"/>
<text text-anchor="middle" x="229.25" y="-61" font-family="Helvetica,sans-Serif" font-size="10.00">ComptonPolarimetryHelper.hh</text>
</a>
</g>
</g>
<!-- Node1&#45;&gt;Node4 -->
<g id="edge3_Node000001_Node000004" class="edge">
<title>Node1&#45;&gt;Node4</title>
<g id="a_edge3_Node000001_Node000004"><a xlink:title=" ">
<path fill="none" stroke="#63b8ff" d="M904.72,-116.42C798.2,-110.23 532.31,-94.03 310.25,-74.5 307.57,-74.26 304.85,-74.02 302.1,-73.76"/>
<polygon fill="#63b8ff" stroke="#63b8ff" points="904.32,-119.9 914.5,-116.99 904.72,-112.91 904.32,-119.9"/>
</a>
</g>
</g>
<!-- Node5 -->
<g id="Node000005" class="node">
<title>Node5</title>
<g id="a_Node000005"><a xlink:href="_cross_talk_8h.html" target="_top" xlink:title=" ">
<polygon fill="white" stroke="#666666" points="387.12,-74.5 319.38,-74.5 319.38,-55.25 387.12,-55.25 387.12,-74.5"/>
<text text-anchor="middle" x="353.25" y="-61" font-family="Helvetica,sans-Serif" font-size="10.00">CrossTalk.h</text>
</a>
</g>
</g>
<!-- Node1&#45;&gt;Node5 -->
<g id="edge4_Node000001_Node000005" class="edge">
<title>Node1&#45;&gt;Node5</title>
<g id="a_edge4_Node000001_Node000005"><a xlink:title=" ">
<path fill="none" stroke="#63b8ff" d="M904.96,-117.21C808.78,-112.91 583.6,-100.71 396.25,-74.5 393.38,-74.1 390.42,-73.63 387.46,-73.11"/>
<polygon fill="#63b8ff" stroke="#63b8ff" points="904.66,-120.7 914.8,-117.64 904.96,-113.71 904.66,-120.7"/>
</a>
</g>
</g>
<!-- Node7 -->
<g id="Node000007" class="node">
<title>Node7</title>
<g id="a_Node000007"><a xlink:href="_cross_talk_helper_8hh.html" target="_top" xlink:title=" ">
<polygon fill="white" stroke="#666666" points="507,-74.5 405.5,-74.5 405.5,-55.25 507,-55.25 507,-74.5"/>
<text text-anchor="middle" x="456.25" y="-61" font-family="Helvetica,sans-Serif" font-size="10.00">CrossTalkHelper.hh</text>
</a>
</g>
</g>
<!-- Node1&#45;&gt;Node7 -->
<g id="edge6_Node000001_Node000007" class="edge">
<title>Node1&#45;&gt;Node7</title>
<g id="a_edge6_Node000001_Node000007"><a xlink:title=" ">
<path fill="none" stroke="#63b8ff" d="M904.84,-114.91C824.69,-107.64 657.33,-91.85 516.25,-74.5 513.33,-74.14 510.32,-73.76 507.29,-73.36"/>
<polygon fill="#63b8ff" stroke="#63b8ff" points="904.24,-118.37 914.51,-115.78 904.87,-111.4 904.24,-118.37"/>
</a>
</g>
</g>
<!-- Node9 -->
<g id="Node000009" class="node">
<title>Node9</title>
<g id="a_Node000009"><a xlink:href="_directory_helper_8hh.html" target="_top" xlink:title=" ">
<polygon fill="white" stroke="#666666" points="621,-74.5 525.5,-74.5 525.5,-55.25 621,-55.25 621,-74.5"/>
<text text-anchor="middle" x="573.25" y="-61" font-family="Helvetica,sans-Serif" font-size="10.00">DirectoryHelper.hh</text>
</a>
</g>
</g>
<!-- Node1&#45;&gt;Node9 -->
<g id="edge8_Node000001_Node000009" class="edge">
<title>Node1&#45;&gt;Node9</title>
<g id="a_edge8_Node000001_Node000009"><a xlink:title=" ">
<path fill="none" stroke="#63b8ff" d="M904.9,-112.75C842.09,-104.25 727.79,-88.64 630.25,-74.5 627.38,-74.08 624.42,-73.65 621.45,-73.21"/>
<polygon fill="#63b8ff" stroke="#63b8ff" points="904.13,-116.18 914.51,-114.05 905.07,-109.24 904.13,-116.18"/>
</a>
</g>
</g>
<!-- Node11 -->
<g id="Node000011" class="node">
<title>Node11</title>
<g id="a_Node000011"><a xlink:href="_efficiency_helper_8hh.html" target="_top" xlink:title=" ">
<polygon fill="white" stroke="#666666" points="737.12,-74.5 639.38,-74.5 639.38,-55.25 737.12,-55.25 737.12,-74.5"/>
<text text-anchor="middle" x="688.25" y="-61" font-family="Helvetica,sans-Serif" font-size="10.00">EfficiencyHelper.hh</text>
</a>
</g>
</g>
<!-- Node1&#45;&gt;Node11 -->
<g id="edge10_Node000001_Node000011" class="edge">
<title>Node1&#45;&gt;Node11</title>
<g id="a_edge10_Node000001_Node000011"><a xlink:title=" ">
<path fill="none" stroke="#63b8ff" d="M904.93,-109.58C856.26,-99.76 781.02,-84.59 733.23,-74.95"/>
<polygon fill="#63b8ff" stroke="#63b8ff" points="904.12,-112.99 914.61,-111.53 905.5,-106.12 904.12,-112.99"/>
</a>
</g>
</g>
<!-- Node13 -->
<g id="Node000013" class="node">
<title>Node13</title>
<g id="a_Node000013"><a xlink:href="_example_event_helper_8hh.html" target="_top" xlink:title=" ">
<polygon fill="white" stroke="#666666" points="873.62,-74.5 754.88,-74.5 754.88,-55.25 873.62,-55.25 873.62,-74.5"/>
<text text-anchor="middle" x="814.25" y="-61" font-family="Helvetica,sans-Serif" font-size="10.00">ExampleEventHelper.hh</text>
</a>
</g>
</g>
<!-- Node1&#45;&gt;Node13 -->
<g id="edge12_Node000001_Node000013" class="edge">
<title>Node1&#45;&gt;Node13</title>
<g id="a_edge12_Node000001_Node000013"><a xlink:title=" ">
<path fill="none" stroke="#63b8ff" d="M918.35,-106.04C893.33,-96.39 859.92,-83.5 837.77,-74.95"/>
<polygon fill="#63b8ff" stroke="#63b8ff" points="916.84,-109.21 927.43,-109.55 919.36,-102.68 916.84,-109.21"/>
</a>
</g>
</g>
<!-- Node15 -->
<g id="Node000015" class="node">
<title>Node15</title>
<g id="a_Node000015"><a xlink:href="_example_event_selector_8h.html" target="_top" xlink:title=" ">
<polygon fill="white" stroke="#666666" points="1012.75,-74.5 891.75,-74.5 891.75,-55.25 1012.75,-55.25 1012.75,-74.5"/>
<text text-anchor="middle" x="952.25" y="-61" font-family="Helvetica,sans-Serif" font-size="10.00">ExampleEventSelector.h</text>
</a>
</g>
</g>
<!-- Node1&#45;&gt;Node15 -->
<g id="edge14_Node000001_Node000015" class="edge">
<title>Node1&#45;&gt;Node15</title>
<g id="a_edge14_Node000001_Node000015"><a xlink:title=" ">
<path fill="none" stroke="#63b8ff" d="M952.25,-98.88C952.25,-90.59 952.25,-81.42 952.25,-74.86"/>
<polygon fill="#63b8ff" stroke="#63b8ff" points="948.75,-98.82 952.25,-108.82 955.75,-98.82 948.75,-98.82"/>
</a>
</g>
</g>
<!-- Node17 -->
<g id="Node000017" class="node">
<title>Node17</title>
<g id="a_Node000017"><a xlink:href="_example_tree_helper_8hh.html" target="_top" xlink:title=" ">
<polygon fill="white" stroke="#666666" points="1144,-74.5 1030.5,-74.5 1030.5,-55.25 1144,-55.25 1144,-74.5"/>
<text text-anchor="middle" x="1087.25" y="-61" font-family="Helvetica,sans-Serif" font-size="10.00">ExampleTreeHelper.hh</text>
</a>
</g>
</g>
<!-- Node1&#45;&gt;Node17 -->
<g id="edge16_Node000001_Node000017" class="edge">
<title>Node1&#45;&gt;Node17</title>
<g id="a_edge16_Node000001_Node000017"><a xlink:title=" ">
<path fill="none" stroke="#63b8ff" d="M985.74,-105.91C1010.18,-96.27 1042.67,-83.46 1064.24,-74.95"/>
<polygon fill="#63b8ff" stroke="#63b8ff" points="984.58,-102.61 976.56,-109.54 987.15,-109.12 984.58,-102.61"/>
</a>
</g>
</g>
<!-- Node19 -->
<g id="Node000019" class="node">
<title>Node19</title>
<g id="a_Node000019"><a xlink:href="_example_tree_selector_8h.html" target="_top" xlink:title=" ">
<polygon fill="white" stroke="#666666" points="1278.12,-74.5 1162.38,-74.5 1162.38,-55.25 1278.12,-55.25 1278.12,-74.5"/>
<text text-anchor="middle" x="1220.25" y="-61" font-family="Helvetica,sans-Serif" font-size="10.00">ExampleTreeSelector.h</text>
</a>
</g>
</g>
<!-- Node1&#45;&gt;Node19 -->
<g id="edge18_Node000001_Node000019" class="edge">
<title>Node1&#45;&gt;Node19</title>
<g id="a_edge18_Node000001_Node000019"><a xlink:title=" ">
<path fill="none" stroke="#63b8ff" d="M999.39,-109.76C1048.69,-99.96 1125.56,-84.69 1174.38,-74.99"/>
<polygon fill="#63b8ff" stroke="#63b8ff" points="999,-106.27 989.88,-111.65 1000.37,-113.13 999,-106.27"/>
</a>
</g>
</g>
<!-- Node21 -->
<g id="Node000021" class="node">
<title>Node21</title>
<g id="a_Node000021"><a xlink:href="_fast_timing_hist_selector_8h.html" target="_top" xlink:title=" ">
<polygon fill="white" stroke="#666666" points="1422.38,-74.5 1296.12,-74.5 1296.12,-55.25 1422.38,-55.25 1422.38,-74.5"/>
<text text-anchor="middle" x="1359.25" y="-61" font-family="Helvetica,sans-Serif" font-size="10.00">FastTimingHistSelector.h</text>
</a>
</g>
</g>
<!-- Node1&#45;&gt;Node21 -->
<g id="edge20_Node000001_Node000021" class="edge">
<title>Node1&#45;&gt;Node21</title>
<g id="a_edge20_Node000001_Node000021"><a xlink:title=" ">
<path fill="none" stroke="#63b8ff" d="M999.53,-112.94C1072.79,-103.35 1213.84,-84.9 1295.86,-74.17"/>
<polygon fill="#63b8ff" stroke="#63b8ff" points="999.33,-109.44 989.87,-114.2 1000.24,-116.38 999.33,-109.44"/>
</a>
</g>
</g>
<!-- Node23 -->
<g id="Node000023" class="node">
<title>Node23</title>
<g id="a_Node000023"><a xlink:href="_make_griffin_histograms_8cxx.html" target="_top" xlink:title=" ">
<polygon fill="white" stroke="#666666" points="1572,-74.5 1440.5,-74.5 1440.5,-55.25 1572,-55.25 1572,-74.5"/>
<text text-anchor="middle" x="1506.25" y="-61" font-family="Helvetica,sans-Serif" font-size="10.00">MakeGriffinHistograms.cxx</text>
</a>
</g>
</g>
<!-- Node1&#45;&gt;Node23 -->
<g id="edge22_Node000001_Node000023" class="edge">
<title>Node1&#45;&gt;Node23</title>
<g id="a_edge22_Node000001_Node000023"><a xlink:title=" ">
<path fill="none" stroke="#63b8ff" d="M999.79,-115.04C1085.89,-107.56 1273.36,-90.93 1431.25,-74.5 1434.12,-74.2 1437.05,-73.89 1440.01,-73.57"/>
<polygon fill="#63b8ff" stroke="#63b8ff" points="999.5,-111.55 989.84,-115.9 1000.1,-118.52 999.5,-111.55"/>
</a>
</g>
</g>
<!-- Node24 -->
<g id="Node000024" class="node">
<title>Node24</title>
<g id="a_Node000024"><a xlink:href="_t_g_r_s_i_mnemonic_8cxx.html" target="_top" xlink:title=" ">
<polygon fill="white" stroke="#666666" points="1698,-74.5 1590.5,-74.5 1590.5,-55.25 1698,-55.25 1698,-74.5"/>
<text text-anchor="middle" x="1644.25" y="-61" font-family="Helvetica,sans-Serif" font-size="10.00">TGRSIMnemonic.cxx</text>
</a>
</g>
</g>
<!-- Node1&#45;&gt;Node24 -->
<g id="edge23_Node000001_Node000024" class="edge">
<title>Node1&#45;&gt;Node24</title>
<g id="a_edge23_Node000001_Node000024"><a xlink:title=" ">
<path fill="none" stroke="#63b8ff" d="M999.94,-116.81C1105.1,-111.46 1364.74,-96.98 1581.25,-74.5 1584.21,-74.19 1587.25,-73.85 1590.32,-73.49"/>
<polygon fill="#63b8ff" stroke="#63b8ff" points="999.81,-113.31 990,-117.31 1000.16,-120.3 999.81,-113.31"/>
</a>
</g>
</g>
<!-- Node25 -->
<g id="Node000025" class="node">
<title>Node25</title>
<g id="a_Node000025"><a xlink:href="_t_griffin_bgo_8cxx.html" target="_top" xlink:title=" ">
<polygon fill="white" stroke="#666666" points="1796.5,-74.5 1716,-74.5 1716,-55.25 1796.5,-55.25 1796.5,-74.5"/>
<text text-anchor="middle" x="1756.25" y="-61" font-family="Helvetica,sans-Serif" font-size="10.00">TGriffinBgo.cxx</text>
</a>
</g>
</g>
<!-- Node1&#45;&gt;Node25 -->
<g id="edge24_Node000001_Node000025" class="edge">
<title>Node1&#45;&gt;Node25</title>
<g id="a_edge24_Node000001_Node000025"><a xlink:title=" ">
<path fill="none" stroke="#63b8ff" d="M999.34,-118.23C1118.34,-115.54 1440.63,-105.74 1707.25,-74.5 1710,-74.18 1712.82,-73.8 1715.66,-73.39"/>
<polygon fill="#63b8ff" stroke="#63b8ff" points="999.57,-114.72 989.65,-118.44 999.73,-121.72 999.57,-114.72"/>
</a>
</g>
</g>
<!-- Node26 -->
<g id="Node000026" class="node">
<title>Node26</title>
<g id="a_Node000026"><a xlink:href="_test_helper_8hh.html" target="_top" xlink:title=" ">
<polygon fill="white" stroke="#666666" points="1891.62,-74.5 1814.88,-74.5 1814.88,-55.25 1891.62,-55.25 1891.62,-74.5"/>
<text text-anchor="middle" x="1853.25" y="-61" font-family="Helvetica,sans-Serif" font-size="10.00">TestHelper.hh</text>
</a>
</g>
</g>
<!-- Node1&#45;&gt;Node26 -->
<g id="edge25_Node000001_Node000026" class="edge">
<title>Node1&#45;&gt;Node26</title>
<g id="a_edge25_Node000001_Node000026"><a xlink:title=" ">
<path fill="none" stroke="#63b8ff" d="M999.54,-118.73C1128.94,-117.2 1499.54,-109.82 1805.25,-74.5 1808.28,-74.15 1811.4,-73.73 1814.54,-73.26"/>
<polygon fill="#63b8ff" stroke="#63b8ff" points="999.61,-115.23 989.65,-118.84 999.69,-122.23 999.61,-115.23"/>
</a>
</g>
</g>
<!-- Node3 -->
<g id="Node000003" class="node">
<title>Node3</title>
<g id="a_Node000003"><a xlink:href="_angular_correlation_helper_8cxx.html" target="_top" xlink:title=" ">
<polygon fill="white" stroke="#666666" points="140.5,-19.25 0,-19.25 0,0 140.5,0 140.5,-19.25"/>
<text text-anchor="middle" x="70.25" y="-5.75" font-family="Helvetica,sans-Serif" font-size="10.00">AngularCorrelationHelper.cxx</text>
</a>
</g>
</g>
<!-- Node2&#45;&gt;Node3 -->
<g id="edge2_Node000002_Node000003" class="edge">
<title>Node2&#45;&gt;Node3</title>
<g id="a_edge2_Node000002_Node000003"><a xlink:title=" ">
<path fill="none" stroke="#63b8ff" d="M70.25,-43.63C70.25,-35.34 70.25,-26.17 70.25,-19.61"/>
<polygon fill="#63b8ff" stroke="#63b8ff" points="66.75,-43.57 70.25,-53.57 73.75,-43.57 66.75,-43.57"/>
</a>
</g>
</g>
<!-- Node6 -->
<g id="Node000006" class="node">
<title>Node6</title>
<g id="a_Node000006"><a xlink:href="_cross_talk_8_c.html" target="_top" xlink:title=" ">
<polygon fill="white" stroke="#666666" points="375.88,-19.25 306.62,-19.25 306.62,0 375.88,0 375.88,-19.25"/>
<text text-anchor="middle" x="341.25" y="-5.75" font-family="Helvetica,sans-Serif" font-size="10.00">CrossTalk.C</text>
</a>
</g>
</g>
<!-- Node5&#45;&gt;Node6 -->
<g id="edge5_Node000005_Node000006" class="edge">
<title>Node5&#45;&gt;Node6</title>
<g id="a_edge5_Node000005_Node000006"><a xlink:title=" ">
<path fill="none" stroke="#63b8ff" d="M348.75,-43.92C346.87,-35.55 344.77,-26.25 343.27,-19.61"/>
<polygon fill="#63b8ff" stroke="#63b8ff" points="345.32,-44.62 350.94,-53.61 352.15,-43.08 345.32,-44.62"/>
</a>
</g>
</g>
<!-- Node8 -->
<g id="Node000008" class="node">
<title>Node8</title>
<g id="a_Node000008"><a xlink:href="_cross_talk_helper_8cxx.html" target="_top" xlink:title=" ">
<polygon fill="white" stroke="#666666" points="498.88,-19.25 393.62,-19.25 393.62,0 498.88,0 498.88,-19.25"/>
<text text-anchor="middle" x="446.25" y="-5.75" font-family="Helvetica,sans-Serif" font-size="10.00">CrossTalkHelper.cxx</text>
</a>
</g>
</g>
<!-- Node7&#45;&gt;Node8 -->
<g id="edge7_Node000007_Node000008" class="edge">
<title>Node7&#45;&gt;Node8</title>
<g id="a_edge7_Node000007_Node000008"><a xlink:title=" ">
<path fill="none" stroke="#63b8ff" d="M452.5,-43.92C450.93,-35.55 449.18,-26.25 447.94,-19.61"/>
<polygon fill="#63b8ff" stroke="#63b8ff" points="449.03,-44.41 454.32,-53.59 455.91,-43.12 449.03,-44.41"/>
</a>
</g>
</g>
<!-- Node10 -->
<g id="Node000010" class="node">
<title>Node10</title>
<g id="a_Node000010"><a xlink:href="_directory_helper_8cxx.html" target="_top" xlink:title=" ">
<polygon fill="white" stroke="#666666" points="615.88,-19.25 516.62,-19.25 516.62,0 615.88,0 615.88,-19.25"/>
<text text-anchor="middle" x="566.25" y="-5.75" font-family="Helvetica,sans-Serif" font-size="10.00">DirectoryHelper.cxx</text>
</a>
</g>
</g>
<!-- Node9&#45;&gt;Node10 -->
<g id="edge9_Node000009_Node000010" class="edge">
<title>Node9&#45;&gt;Node10</title>
<g id="a_edge9_Node000009_Node000010"><a xlink:title=" ">
<path fill="none" stroke="#63b8ff" d="M570.63,-43.92C569.53,-35.55 568.3,-26.25 567.43,-19.61"/>
<polygon fill="#63b8ff" stroke="#63b8ff" points="567.12,-44.12 571.9,-53.58 574.06,-43.21 567.12,-44.12"/>
</a>
</g>
</g>
<!-- Node12 -->
<g id="Node000012" class="node">
<title>Node12</title>
<g id="a_Node000012"><a xlink:href="_efficiency_helper_8cxx.html" target="_top" xlink:title=" ">
<polygon fill="white" stroke="#666666" points="735,-19.25 633.5,-19.25 633.5,0 735,0 735,-19.25"/>
<text text-anchor="middle" x="684.25" y="-5.75" font-family="Helvetica,sans-Serif" font-size="10.00">EfficiencyHelper.cxx</text>
</a>
</g>
</g>
<!-- Node11&#45;&gt;Node12 -->
<g id="edge11_Node000011_Node000012" class="edge">
<title>Node11&#45;&gt;Node12</title>
<g id="a_edge11_Node000011_Node000012"><a xlink:title=" ">
<path fill="none" stroke="#63b8ff" d="M686.73,-43.63C686.11,-35.34 685.42,-26.17 684.92,-19.61"/>
<polygon fill="#63b8ff" stroke="#63b8ff" points="683.24,-43.86 687.48,-53.57 690.22,-43.34 683.24,-43.86"/>
</a>
</g>
</g>
<!-- Node14 -->
<g id="Node000014" class="node">
<title>Node14</title>
<g id="a_Node000014"><a xlink:href="_example_event_helper_8cxx.html" target="_top" xlink:title=" ">
<polygon fill="white" stroke="#666666" points="875.5,-19.25 753,-19.25 753,0 875.5,0 875.5,-19.25"/>
<text text-anchor="middle" x="814.25" y="-5.75" font-family="Helvetica,sans-Serif" font-size="10.00">ExampleEventHelper.cxx</text>
</a>
</g>
</g>
<!-- Node13&#45;&gt;Node14 -->
<g id="edge13_Node000013_Node000014" class="edge">
<title>Node13&#45;&gt;Node14</title>
<g id="a_edge13_Node000013_Node000014"><a xlink:title=" ">
<path fill="none" stroke="#63b8ff" d="M814.25,-43.63C814.25,-35.34 814.25,-26.17 814.25,-19.61"/>
<polygon fill="#63b8ff" stroke="#63b8ff" points="810.75,-43.57 814.25,-53.57 817.75,-43.57 810.75,-43.57"/>
</a>
</g>
</g>
<!-- Node16 -->
<g id="Node000016" class="node">
<title>Node16</title>
<g id="a_Node000016"><a xlink:href="_example_event_selector_8_c.html" target="_top" xlink:title=" ">
<polygon fill="white" stroke="#666666" points="1016.5,-19.25 894,-19.25 894,0 1016.5,0 1016.5,-19.25"/>
<text text-anchor="middle" x="955.25" y="-5.75" font-family="Helvetica,sans-Serif" font-size="10.00">ExampleEventSelector.C</text>
</a>
</g>
</g>
<!-- Node15&#45;&gt;Node16 -->
<g id="edge15_Node000015_Node000016" class="edge">
<title>Node15&#45;&gt;Node16</title>
<g id="a_edge15_Node000015_Node000016"><a xlink:title=" ">
<path fill="none" stroke="#63b8ff" d="M953.39,-43.63C953.86,-35.34 954.37,-26.17 954.74,-19.61"/>
<polygon fill="#63b8ff" stroke="#63b8ff" points="949.9,-43.39 952.83,-53.57 956.89,-43.78 949.9,-43.39"/>
</a>
</g>
</g>
<!-- Node18 -->
<g id="Node000018" class="node">
<title>Node18</title>
<g id="a_Node000018"><a xlink:href="_example_tree_helper_8cxx.html" target="_top" xlink:title=" ">
<polygon fill="white" stroke="#666666" points="1151.88,-19.25 1034.62,-19.25 1034.62,0 1151.88,0 1151.88,-19.25"/>
<text text-anchor="middle" x="1093.25" y="-5.75" font-family="Helvetica,sans-Serif" font-size="10.00">ExampleTreeHelper.cxx</text>
</a>
</g>
</g>
<!-- Node17&#45;&gt;Node18 -->
<g id="edge17_Node000017_Node000018" class="edge">
<title>Node17&#45;&gt;Node18</title>
<g id="a_edge17_Node000017_Node000018"><a xlink:title=" ">
<path fill="none" stroke="#63b8ff" d="M1089.5,-43.92C1090.44,-35.55 1091.49,-26.25 1092.24,-19.61"/>
<polygon fill="#63b8ff" stroke="#63b8ff" points="1086.05,-43.25 1088.41,-53.58 1093.01,-44.03 1086.05,-43.25"/>
</a>
</g>
</g>
<!-- Node20 -->
<g id="Node000020" class="node">
<title>Node20</title>
<g id="a_Node000020"><a xlink:href="_example_tree_selector_8_c.html" target="_top" xlink:title=" ">
<polygon fill="white" stroke="#666666" points="1286.88,-19.25 1169.62,-19.25 1169.62,0 1286.88,0 1286.88,-19.25"/>
<text text-anchor="middle" x="1228.25" y="-5.75" font-family="Helvetica,sans-Serif" font-size="10.00">ExampleTreeSelector.C</text>
</a>
</g>
</g>
<!-- Node19&#45;&gt;Node20 -->
<g id="edge19_Node000019_Node000020" class="edge">
<title>Node19&#45;&gt;Node20</title>
<g id="a_edge19_Node000019_Node000020"><a xlink:title=" ">
<path fill="none" stroke="#63b8ff" d="M1223.25,-43.92C1224.5,-35.55 1225.9,-26.25 1226.9,-19.61"/>
<polygon fill="#63b8ff" stroke="#63b8ff" points="1219.82,-43.18 1221.8,-53.59 1226.74,-44.22 1219.82,-43.18"/>
</a>
</g>
</g>
<!-- Node22 -->
<g id="Node000022" class="node">
<title>Node22</title>
<g id="a_Node000022"><a xlink:href="_fast_timing_hist_selector_8_c.html" target="_top" xlink:title=" ">
<polygon fill="white" stroke="#666666" points="1433.12,-19.25 1305.38,-19.25 1305.38,0 1433.12,0 1433.12,-19.25"/>
<text text-anchor="middle" x="1369.25" y="-5.75" font-family="Helvetica,sans-Serif" font-size="10.00">FastTimingHistSelector.C</text>
</a>
</g>
</g>
<!-- Node21&#45;&gt;Node22 -->
<g id="edge21_Node000021_Node000022" class="edge">
<title>Node21&#45;&gt;Node22</title>
<g id="a_edge21_Node000021_Node000022"><a xlink:title=" ">
<path fill="none" stroke="#63b8ff" d="M1363,-43.92C1364.57,-35.55 1366.32,-26.25 1367.56,-19.61"/>
<polygon fill="#63b8ff" stroke="#63b8ff" points="1359.59,-43.12 1361.18,-53.59 1366.47,-44.41 1359.59,-43.12"/>
</a>
</g>
</g>
</g>
</svg>
