<?xml version="1.0" encoding="UTF-8" standalone="no"?>
<!DOCTYPE svg PUBLIC "-//W3C//DTD SVG 1.1//EN"
 "http://www.w3.org/Graphics/SVG/1.1/DTD/svg11.dtd">
<!-- Generated by graphviz version 12.2.0 (20241103.1931)
 -->
<!-- Title: TGRSIFunctions.h Pages: 1 -->
<!--zoomable 83 -->

<svg id="main" version="1.1" xmlns="http://www.w3.org/2000/svg" xmlns:xlink="http://www.w3.org/1999/xlink" xml:space="preserve" onload="init(evt)">

<style type="text/css"><![CDATA[
.node, .edge {opacity: 0.7;}
.node.selected, .edge.selected {opacity: 1;}
.edge:hover path { stroke: red; }
.edge:hover polygon { stroke: red; fill: red; }
]]></style>

<defs>
  <circle id="rim" cx="0" cy="0" r="7"/>
  <circle id="rim2" cx="0" cy="0" r="3.5"/>
  <g id="zoomPlus">
    <use xlink:href="#rim" fill="#404040"><set attributeName="fill" to="#808080" begin="zoomplus.mouseover" end="zoomplus.mouseout"/></use>
    <path d="M-4,0h8M0,-4v8" fill="none" stroke="white" stroke-width="1.5" pointer-events="none"/>
  </g>
  <g id="zoomMin">
    <use xlink:href="#rim" fill="#404040"><set attributeName="fill" to="#808080" begin="zoomminus.mouseover" end="zoomminus.mouseout"/></use>
    <path d="M-4,0h8" fill="none" stroke="white" stroke-width="1.5" pointer-events="none"/>
  </g>
  <g id="arrowUp" transform="translate(30 24)">
    <use xlink:href="#rim"/>
    <path pointer-events="none" fill="none" stroke="white" stroke-width="1.5" d="M0,-3.0v7 M-2.5,-0.5L0,-3.0L2.5,-0.5"/>
  </g>
  <g id="arrowRight" transform="rotate(90) translate(36 -43)">
    <use xlink:href="#rim"/>
    <path pointer-events="none" fill="none" stroke="white" stroke-width="1.5" d="M0,-3.0v7 M-2.5,-0.5L0,-3.0L2.5,-0.5"/>
  </g>
  <g id="arrowDown" transform="rotate(180) translate(-30 -48)">
    <use xlink:href="#rim"/>
    <path pointer-events="none" fill="none" stroke="white" stroke-width="1.5" d="M0,-3.0v7 M-2.5,-0.5L0,-3.0L2.5,-0.5"/>
  </g>
  <g id="arrowLeft" transform="rotate(270) translate(-36 17)">
    <use xlink:href="#rim"/>
    <path pointer-events="none" fill="none" stroke="white" stroke-width="1.5" d="M0,-3.0v7 M-2.5,-0.5L0,-3.0L2.5,-0.5"/>
  </g>
  <g id="resetDef">
    <use xlink:href="#rim2" fill="#404040"><set attributeName="fill" to="#808080" begin="reset.mouseover" end="reset.mouseout"/></use>
  </g>
</defs>
<script type="application/ecmascript">
var viewWidth = 593;
var viewHeight = 83;
var sectionId = 'dynsection-1';
</script>
<script type="application/ecmascript" xlink:href="svg.min.js"/>
<svg id="graph" class="graph">
<g id="viewport">
<title>TGRSIFunctions.h</title>
<!-- Node1 -->
<g id="Node000001" class="node">
<title>Node1</title>
<g id="a_Node000001"><a xlink:title=" ">
<polygon fill="#999999" stroke="#666666" points="338.38,-74.5 242.12,-74.5 242.12,-55.25 338.38,-55.25 338.38,-74.5"/>
<text text-anchor="middle" x="290.25" y="-61" font-family="Helvetica,sans-Serif" font-size="10.00">TGRSIFunctions.h</text>
</a>
</g>
</g>
<!-- Node2 -->
<g id="Node000002" class="node">
<title>Node2</title>
<g id="a_Node000002"><a xlink:href="_g_peak_8cxx.html" target="_top" xlink:title=" ">
<polygon fill="white" stroke="#666666" points="62.5,-19.25 0,-19.25 0,0 62.5,0 62.5,-19.25"/>
<text text-anchor="middle" x="31.25" y="-5.75" font-family="Helvetica,sans-Serif" font-size="10.00">GPeak.cxx</text>
</a>
</g>
</g>
<!-- Node1&#45;&gt;Node2 -->
<g id="edge1_Node000001_Node000002" class="edge">
<title>Node1&#45;&gt;Node2</title>
<g id="a_edge1_Node000001_Node000002"><a xlink:title=" ">
<path fill="none" stroke="#63b8ff" d="M233.81,-52.56C189.56,-43.64 126.45,-30.82 71.25,-19.25 68.47,-18.67 65.58,-18.06 62.69,-17.44"/>
<polygon fill="#63b8ff" stroke="#63b8ff" points="232.94,-55.95 243.44,-54.5 234.32,-49.09 232.94,-55.95"/>
</a>
</g>
</g>
<!-- Node3 -->
<g id="Node000003" class="node">
<title>Node3</title>
<g id="a_Node000003"><a xlink:href="_t_g_r_s_i_functions_8cxx.html" target="_top" xlink:title=" ">
<polygon fill="white" stroke="#666666" points="185.88,-19.25 80.62,-19.25 80.62,0 185.88,0 185.88,-19.25"/>
<text text-anchor="middle" x="133.25" y="-5.75" font-family="Helvetica,sans-Serif" font-size="10.00">TGRSIFunctions.cxx</text>
</a>
</g>
</g>
<!-- Node1&#45;&gt;Node3 -->
<g id="edge2_Node000001_Node000003" class="edge">
<title>Node1&#45;&gt;Node3</title>
<g id="a_edge2_Node000001_Node000003"><a xlink:title=" ">
<path fill="none" stroke="#63b8ff" d="M252.82,-51.18C224.24,-41.49 185.55,-28.36 160.01,-19.7"/>
<polygon fill="#63b8ff" stroke="#63b8ff" points="251.59,-54.46 262.18,-54.36 253.84,-47.83 251.59,-54.46"/>
</a>
</g>
</g>
<!-- Node4 -->
<g id="Node000004" class="node">
<title>Node4</title>
<g id="a_Node000004"><a xlink:href="_t_multi_peak_8cxx.html" target="_top" xlink:title=" ">
<polygon fill="white" stroke="#666666" points="286.25,-19.25 204.25,-19.25 204.25,0 286.25,0 286.25,-19.25"/>
<text text-anchor="middle" x="245.25" y="-5.75" font-family="Helvetica,sans-Serif" font-size="10.00">TMultiPeak.cxx</text>
</a>
</g>
</g>
<!-- Node1&#45;&gt;Node4 -->
<g id="edge3_Node000001_Node000004" class="edge">
<title>Node1&#45;&gt;Node4</title>
<g id="a_edge3_Node000001_Node000004"><a xlink:title=" ">
<path fill="none" stroke="#63b8ff" d="M275.57,-46.51C267.99,-37.53 259.04,-26.95 252.84,-19.61"/>
<polygon fill="#63b8ff" stroke="#63b8ff" points="272.71,-48.55 281.84,-53.93 278.06,-44.03 272.71,-48.55"/>
</a>
</g>
</g>
<!-- Node5 -->
<g id="Node000005" class="node">
<title>Node5</title>
<g id="a_Node000005"><a xlink:href="_t_peak_8cxx.html" target="_top" xlink:title=" ">
<polygon fill="white" stroke="#666666" points="365.75,-19.25 304.75,-19.25 304.75,0 365.75,0 365.75,-19.25"/>
<text text-anchor="middle" x="335.25" y="-5.75" font-family="Helvetica,sans-Serif" font-size="10.00">TPeak.cxx</text>
</a>
</g>
</g>
<!-- Node1&#45;&gt;Node5 -->
<g id="edge4_Node000001_Node000005" class="edge">
<title>Node1&#45;&gt;Node5</title>
<g id="a_edge4_Node000001_Node000005"><a xlink:title=" ">
<path fill="none" stroke="#63b8ff" d="M304.93,-46.51C312.51,-37.53 321.46,-26.95 327.66,-19.61"/>
<polygon fill="#63b8ff" stroke="#63b8ff" points="302.44,-44.03 298.66,-53.93 307.79,-48.55 302.44,-44.03"/>
</a>
</g>
</g>
<!-- Node6 -->
<g id="Node000006" class="node">
<title>Node6</title>
<g id="a_Node000006"><a xlink:href="_t_peak_fitter_8cxx.html" target="_top" xlink:title=" ">
<polygon fill="white" stroke="#666666" points="467,-19.25 383.5,-19.25 383.5,0 467,0 467,-19.25"/>
<text text-anchor="middle" x="425.25" y="-5.75" font-family="Helvetica,sans-Serif" font-size="10.00">TPeakFitter.cxx</text>
</a>
</g>
</g>
<!-- Node1&#45;&gt;Node6 -->
<g id="edge5_Node000001_Node000006" class="edge">
<title>Node1&#45;&gt;Node6</title>
<g id="a_edge5_Node000001_Node000006"><a xlink:title=" ">
<path fill="none" stroke="#63b8ff" d="M323.74,-50.66C348.18,-41.02 380.67,-28.21 402.24,-19.7"/>
<polygon fill="#63b8ff" stroke="#63b8ff" points="322.58,-47.36 314.56,-54.29 325.15,-53.87 322.58,-47.36"/>
</a>
</g>
</g>
<!-- Node7 -->
<g id="Node000007" class="node">
<title>Node7</title>
<g id="a_Node000007"><a xlink:href="_t_pulse_analyzer_8cxx.html" target="_top" xlink:title=" ">
<polygon fill="white" stroke="#666666" points="585.25,-19.25 485.25,-19.25 485.25,0 585.25,0 585.25,-19.25"/>
<text text-anchor="middle" x="535.25" y="-5.75" font-family="Helvetica,sans-Serif" font-size="10.00">TPulseAnalyzer.cxx</text>
</a>
</g>
</g>
<!-- Node1&#45;&gt;Node7 -->
<g id="edge6_Node000001_Node000007" class="edge">
<title>Node1&#45;&gt;Node7</title>
<g id="a_edge6_Node000001_Node000007"><a xlink:title=" ">
<path fill="none" stroke="#63b8ff" d="M343.11,-52.38C388.18,-42.59 452.07,-28.7 493.58,-19.68"/>
<polygon fill="#63b8ff" stroke="#63b8ff" points="342.6,-48.92 333.57,-54.46 344.08,-55.76 342.6,-48.92"/>
</a>
</g>
</g>
</g>
</svg>

<g id="navigator" transform="translate(0 0)" fill="#404254">
  <rect fill="#f2f5e9" fill-opacity="0.5" stroke="#606060" stroke-width=".5" x="0" y="0" width="60" height="60"/>
  <use id="zoomplus" xlink:href="#zoomPlus" x="17" y="9" onmousedown="handleZoom(evt,'in')"/>
  <use id="zoomminus" xlink:href="#zoomMin" x="42" y="9" onmousedown="handleZoom(evt,'out')"/>
  <use id="reset" xlink:href="#resetDef" x="30" y="36" onmousedown="handleReset()"/>
   <use id="arrowup" xlink:href="#arrowUp" x="0" y="0" onmousedown="handlePan(0,-1)"/>
  <use id="arrowright" xlink:href="#arrowRight" x="0" y="0" onmousedown="handlePan(1,0)"/>
  <use id="arrowdown" xlink:href="#arrowDown" x="0" y="0" onmousedown="handlePan(0,1)"/>
  <use id="arrowleft" xlink:href="#arrowLeft" x="0" y="0" onmousedown="handlePan(-1,0)"/>
</g>
<svg viewBox="0 0 15 15" width="100%" height="30px" preserveAspectRatio="xMaxYMin meet">
 <g id="arrow_out" transform="scale(0.3 0.3)">
  <a xlink:href="_t_g_r_s_i_functions_8h__dep__incl_org.svg" target="_base">
   <rect id="button" ry="5" rx="5" y="6" x="6" height="38" width="38"
        fill="#f2f5e9" fill-opacity="0.5" stroke="#606060" stroke-width="1.0"/>
   <path id="arrow"
     d="M 11.500037,31.436501 C 11.940474,20.09759 22.043105,11.32322 32.158766,21.979434 L 37.068811,17.246167 C 37.068811,17.246167 37.088388,32 37.088388,32 L 22.160133,31.978069 C 22.160133,31.978069 26.997745,27.140456 26.997745,27.140456 C 18.528582,18.264221 13.291696,25.230495 11.500037,31.436501 z"
     style="fill:#404040;"/>
  </a>
 </g>
</svg>

<style type='text/css'>
<![CDATA[
[data-mouse-over-selected='false'] { opacity: 0.7; }
[data-mouse-over-selected='true']  { opacity: 1.0; }
]]>
</style>
<script type="application/ecmascript"><![CDATA[
document.addEventListener('DOMContentLoaded', (event) => {
  highlightEdges();
  highlightAdjacentNodes();
});
]]></script>
</svg>
