<?xml version="1.0" encoding="UTF-8" standalone="no"?>
<!DOCTYPE svg PUBLIC "-//W3C//DTD SVG 1.1//EN"
 "http://www.w3.org/Graphics/SVG/1.1/DTD/svg11.dtd">
<!-- Generated by graphviz version 12.2.0 (20241103.1931)
 -->
<!-- Title: TGriffin.h Pages: 1 -->
<svg width="3891pt" height="138pt"
 viewBox="0.00 0.00 3890.88 137.75" xmlns="http://www.w3.org/2000/svg" xmlns:xlink="http://www.w3.org/1999/xlink">
<g id="graph0" class="graph" transform="scale(1 1) rotate(0) translate(4 133.75)">
<title>TGriffin.h</title>
<!-- Node1 -->
<g id="Node000001" class="node">
<title>Node1</title>
<g id="a_Node000001"><a xlink:title=" ">
<polygon fill="#999999" stroke="#666666" points="2055.25,-129.75 2001,-129.75 2001,-110.5 2055.25,-110.5 2055.25,-129.75"/>
<text text-anchor="middle" x="2028.12" y="-116.25" font-family="Helvetica,sans-Serif" font-size="10.00">TGriffin.h</text>
</a>
</g>
</g>
<!-- Node2 -->
<g id="Node000002" class="node">
<title>Node2</title>
<g id="a_Node000002"><a xlink:href="_alphanumeric_helper_8hh.html" target="_top" xlink:title=" ">
<polygon fill="white" stroke="#666666" points="120.38,-74.5 3.88,-74.5 3.88,-55.25 120.38,-55.25 120.38,-74.5"/>
<text text-anchor="middle" x="62.12" y="-61" font-family="Helvetica,sans-Serif" font-size="10.00">AlphanumericHelper.hh</text>
</a>
</g>
</g>
<!-- Node1&#45;&gt;Node2 -->
<g id="edge1_Node000001_Node000002" class="edge">
<title>Node1&#45;&gt;Node2</title>
<g id="a_edge1_Node000001_Node000002"><a xlink:title=" ">
<path fill="none" stroke="#63b8ff" d="M1989.33,-118.75C1753.6,-116.37 511.16,-102.65 131.12,-74.5 127.75,-74.25 124.29,-73.95 120.81,-73.62"/>
<polygon fill="#63b8ff" stroke="#63b8ff" points="1989.15,-122.24 1999.18,-118.85 1989.22,-115.25 1989.15,-122.24"/>
</a>
</g>
</g>
<!-- Node4 -->
<g id="Node000004" class="node">
<title>Node4</title>
<g id="a_Node000004"><a xlink:href="_alphanumeric_selector_8h.html" target="_top" xlink:title=" ">
<polygon fill="white" stroke="#666666" points="258.5,-74.5 139.75,-74.5 139.75,-55.25 258.5,-55.25 258.5,-74.5"/>
<text text-anchor="middle" x="199.12" y="-61" font-family="Helvetica,sans-Serif" font-size="10.00">AlphanumericSelector.h</text>
</a>
</g>
</g>
<!-- Node1&#45;&gt;Node4 -->
<g id="edge3_Node000001_Node000004" class="edge">
<title>Node1&#45;&gt;Node4</title>
<g id="a_edge3_Node000001_Node000004"><a xlink:title=" ">
<path fill="none" stroke="#63b8ff" d="M1989.36,-118.65C1764.04,-115.78 620.86,-100.2 270.12,-74.5 266.41,-74.23 262.59,-73.9 258.74,-73.54"/>
<polygon fill="#63b8ff" stroke="#63b8ff" points="1989.01,-122.14 1999.05,-118.77 1989.09,-115.14 1989.01,-122.14"/>
</a>
</g>
</g>
<!-- Node6 -->
<g id="Node000006" class="node">
<title>Node6</title>
<g id="a_Node000006"><a xlink:href="_angular_correlation_helper_8hh.html" target="_top" xlink:title=" ">
<polygon fill="white" stroke="#666666" points="415.5,-74.5 278.75,-74.5 278.75,-55.25 415.5,-55.25 415.5,-74.5"/>
<text text-anchor="middle" x="347.12" y="-61" font-family="Helvetica,sans-Serif" font-size="10.00">AngularCorrelationHelper.hh</text>
</a>
</g>
</g>
<!-- Node1&#45;&gt;Node6 -->
<g id="edge5_Node000001_Node000006" class="edge">
<title>Node1&#45;&gt;Node6</title>
<g id="a_edge5_Node000001_Node000006"><a xlink:title=" ">
<path fill="none" stroke="#63b8ff" d="M1989.27,-119.2C1810.45,-119.31 1048.87,-117.1 426.12,-74.5 422.68,-74.26 419.16,-73.99 415.61,-73.69"/>
<polygon fill="#63b8ff" stroke="#63b8ff" points="1989.15,-122.7 1999.15,-119.19 1989.14,-115.7 1989.15,-122.7"/>
</a>
</g>
</g>
<!-- Node8 -->
<g id="Node000008" class="node">
<title>Node8</title>
<g id="a_Node000008"><a xlink:href="_angular_correlation_selector_8h.html" target="_top" xlink:title=" ">
<polygon fill="white" stroke="#666666" points="574.62,-74.5 435.62,-74.5 435.62,-55.25 574.62,-55.25 574.62,-74.5"/>
<text text-anchor="middle" x="505.12" y="-61" font-family="Helvetica,sans-Serif" font-size="10.00">AngularCorrelationSelector.h</text>
</a>
</g>
</g>
<!-- Node1&#45;&gt;Node8 -->
<g id="edge7_Node000001_Node000008" class="edge">
<title>Node1&#45;&gt;Node8</title>
<g id="a_edge7_Node000001_Node000008"><a xlink:title=" ">
<path fill="none" stroke="#63b8ff" d="M1989.09,-119.05C1820.75,-118.51 1140.3,-113.85 583.12,-74.5 580.41,-74.31 577.64,-74.09 574.84,-73.86"/>
<polygon fill="#63b8ff" stroke="#63b8ff" points="1989.01,-122.55 1999.02,-119.08 1989.03,-115.55 1989.01,-122.55"/>
</a>
</g>
</g>
<!-- Node10 -->
<g id="Node000010" class="node">
<title>Node10</title>
<g id="a_Node000010"><a xlink:href="_compton_polarimetry_helper_8hh.html" target="_top" xlink:title=" ">
<polygon fill="white" stroke="#666666" points="737.62,-74.5 592.62,-74.5 592.62,-55.25 737.62,-55.25 737.62,-74.5"/>
<text text-anchor="middle" x="665.12" y="-61" font-family="Helvetica,sans-Serif" font-size="10.00">ComptonPolarimetryHelper.hh</text>
</a>
</g>
</g>
<!-- Node1&#45;&gt;Node10 -->
<g id="edge9_Node000001_Node000010" class="edge">
<title>Node1&#45;&gt;Node10</title>
<g id="a_edge9_Node000001_Node000010"><a xlink:title=" ">
<path fill="none" stroke="#63b8ff" d="M1989.27,-118.78C1833.11,-117.19 1235.98,-109.06 746.12,-74.5 743.44,-74.31 740.72,-74.1 737.96,-73.88"/>
<polygon fill="#63b8ff" stroke="#63b8ff" points="1989.02,-122.28 1999.06,-118.88 1989.09,-115.28 1989.02,-122.28"/>
</a>
</g>
</g>
<!-- Node12 -->
<g id="Node000012" class="node">
<title>Node12</title>
<g id="a_Node000012"><a xlink:href="_cross_talk_8h.html" target="_top" xlink:title=" ">
<polygon fill="white" stroke="#666666" points="823,-74.5 755.25,-74.5 755.25,-55.25 823,-55.25 823,-74.5"/>
<text text-anchor="middle" x="789.12" y="-61" font-family="Helvetica,sans-Serif" font-size="10.00">CrossTalk.h</text>
</a>
</g>
</g>
<!-- Node1&#45;&gt;Node12 -->
<g id="edge11_Node000001_Node000012" class="edge">
<title>Node1&#45;&gt;Node12</title>
<g id="a_edge11_Node000001_Node000012"><a xlink:title=" ">
<path fill="none" stroke="#63b8ff" d="M1989.29,-118.52C1810.31,-115.58 1063.97,-101.9 832.12,-74.5 829.25,-74.16 826.28,-73.73 823.31,-73.25"/>
<polygon fill="#63b8ff" stroke="#63b8ff" points="1989.14,-122.01 1999.2,-118.68 1989.26,-115.01 1989.14,-122.01"/>
</a>
</g>
</g>
<!-- Node14 -->
<g id="Node000014" class="node">
<title>Node14</title>
<g id="a_Node000014"><a xlink:href="_cross_talk_helper_8hh.html" target="_top" xlink:title=" ">
<polygon fill="white" stroke="#666666" points="942.88,-74.5 841.38,-74.5 841.38,-55.25 942.88,-55.25 942.88,-74.5"/>
<text text-anchor="middle" x="892.12" y="-61" font-family="Helvetica,sans-Serif" font-size="10.00">CrossTalkHelper.hh</text>
</a>
</g>
</g>
<!-- Node1&#45;&gt;Node14 -->
<g id="edge13_Node000001_Node000014" class="edge">
<title>Node1&#45;&gt;Node14</title>
<g id="a_edge13_Node000001_Node000014"><a xlink:title=" ">
<path fill="none" stroke="#63b8ff" d="M1989.28,-118.93C1849.12,-117.94 1356.44,-111.85 952.12,-74.5 949.19,-74.23 946.18,-73.91 943.15,-73.57"/>
<polygon fill="#63b8ff" stroke="#63b8ff" points="1989.08,-122.43 1999.11,-119 1989.13,-115.43 1989.08,-122.43"/>
</a>
</g>
</g>
<!-- Node16 -->
<g id="Node000016" class="node">
<title>Node16</title>
<g id="a_Node000016"><a xlink:href="_deadtime_8cxx.html" target="_top" xlink:title=" ">
<polygon fill="white" stroke="#666666" points="1035,-74.5 961.25,-74.5 961.25,-55.25 1035,-55.25 1035,-74.5"/>
<text text-anchor="middle" x="998.12" y="-61" font-family="Helvetica,sans-Serif" font-size="10.00">Deadtime.cxx</text>
</a>
</g>
</g>
<!-- Node1&#45;&gt;Node16 -->
<g id="edge15_Node000001_Node000016" class="edge">
<title>Node1&#45;&gt;Node16</title>
<g id="a_edge15_Node000001_Node000016"><a xlink:title=" ">
<path fill="none" stroke="#63b8ff" d="M1989.11,-119.31C1856.32,-119.54 1409.83,-116.87 1044.12,-74.5 1041.3,-74.17 1038.39,-73.77 1035.46,-73.33"/>
<polygon fill="#63b8ff" stroke="#63b8ff" points="1989.12,-122.81 1999.11,-119.29 1989.1,-115.81 1989.12,-122.81"/>
</a>
</g>
</g>
<!-- Node17 -->
<g id="Node000017" class="node">
<title>Node17</title>
<g id="a_Node000017"><a xlink:href="_directory_helper_8hh.html" target="_top" xlink:title=" ">
<polygon fill="white" stroke="#666666" points="1148.88,-74.5 1053.38,-74.5 1053.38,-55.25 1148.88,-55.25 1148.88,-74.5"/>
<text text-anchor="middle" x="1101.12" y="-61" font-family="Helvetica,sans-Serif" font-size="10.00">DirectoryHelper.hh</text>
</a>
</g>
</g>
<!-- Node1&#45;&gt;Node17 -->
<g id="edge16_Node000001_Node000017" class="edge">
<title>Node1&#45;&gt;Node17</title>
<g id="a_edge16_Node000001_Node000017"><a xlink:title=" ">
<path fill="none" stroke="#63b8ff" d="M1989.29,-118.5C1866.86,-116.24 1478.14,-106.84 1158.12,-74.5 1155.24,-74.21 1152.27,-73.87 1149.28,-73.5"/>
<polygon fill="#63b8ff" stroke="#63b8ff" points="1989.05,-122 1999.11,-118.68 1989.17,-115 1989.05,-122"/>
</a>
</g>
</g>
<!-- Node19 -->
<g id="Node000019" class="node">
<title>Node19</title>
<g id="a_Node000019"><a xlink:href="_efficiency_helper_8hh.html" target="_top" xlink:title=" ">
<polygon fill="white" stroke="#666666" points="1265,-74.5 1167.25,-74.5 1167.25,-55.25 1265,-55.25 1265,-74.5"/>
<text text-anchor="middle" x="1216.12" y="-61" font-family="Helvetica,sans-Serif" font-size="10.00">EfficiencyHelper.hh</text>
</a>
</g>
</g>
<!-- Node1&#45;&gt;Node19 -->
<g id="edge18_Node000001_Node000019" class="edge">
<title>Node1&#45;&gt;Node19</title>
<g id="a_edge18_Node000001_Node000019"><a xlink:title=" ">
<path fill="none" stroke="#63b8ff" d="M1989.37,-118.04C1877.95,-114.67 1547.21,-102.83 1274.12,-74.5 1271.29,-74.21 1268.38,-73.87 1265.45,-73.51"/>
<polygon fill="#63b8ff" stroke="#63b8ff" points="1989.05,-121.53 1999.15,-118.33 1989.26,-114.54 1989.05,-121.53"/>
</a>
</g>
</g>
<!-- Node21 -->
<g id="Node000021" class="node">
<title>Node21</title>
<g id="a_Node000021"><a xlink:href="_example_event_helper_8hh.html" target="_top" xlink:title=" ">
<polygon fill="white" stroke="#666666" points="1401.5,-74.5 1282.75,-74.5 1282.75,-55.25 1401.5,-55.25 1401.5,-74.5"/>
<text text-anchor="middle" x="1342.12" y="-61" font-family="Helvetica,sans-Serif" font-size="10.00">ExampleEventHelper.hh</text>
</a>
</g>
</g>
<!-- Node1&#45;&gt;Node21 -->
<g id="edge20_Node000001_Node000021" class="edge">
<title>Node1&#45;&gt;Node21</title>
<g id="a_edge20_Node000001_Node000021"><a xlink:title=" ">
<path fill="none" stroke="#63b8ff" d="M1989.35,-117.06C1891.87,-111.69 1628.74,-96.24 1410.12,-74.5 1407.4,-74.23 1404.62,-73.94 1401.81,-73.63"/>
<polygon fill="#63b8ff" stroke="#63b8ff" points="1988.98,-120.54 1999.16,-117.59 1989.36,-113.55 1988.98,-120.54"/>
</a>
</g>
</g>
<!-- Node23 -->
<g id="Node000023" class="node">
<title>Node23</title>
<g id="a_Node000023"><a xlink:href="_example_event_selector_8h.html" target="_top" xlink:title=" ">
<polygon fill="white" stroke="#666666" points="1540.62,-74.5 1419.62,-74.5 1419.62,-55.25 1540.62,-55.25 1540.62,-74.5"/>
<text text-anchor="middle" x="1480.12" y="-61" font-family="Helvetica,sans-Serif" font-size="10.00">ExampleEventSelector.h</text>
</a>
</g>
</g>
<!-- Node1&#45;&gt;Node23 -->
<g id="edge22_Node000001_Node000023" class="edge">
<title>Node1&#45;&gt;Node23</title>
<g id="a_edge22_Node000001_Node000023"><a xlink:title=" ">
<path fill="none" stroke="#63b8ff" d="M1989.11,-115.91C1907.41,-109.08 1712.37,-92.3 1549.12,-74.5 1546.48,-74.21 1543.79,-73.91 1541.07,-73.6"/>
<polygon fill="#63b8ff" stroke="#63b8ff" points="1988.79,-119.39 1999.05,-116.74 1989.37,-112.42 1988.79,-119.39"/>
</a>
</g>
</g>
<!-- Node25 -->
<g id="Node000025" class="node">
<title>Node25</title>
<g id="a_Node000025"><a xlink:href="_example_tree_helper_8hh.html" target="_top" xlink:title=" ">
<polygon fill="white" stroke="#666666" points="1671.88,-74.5 1558.38,-74.5 1558.38,-55.25 1671.88,-55.25 1671.88,-74.5"/>
<text text-anchor="middle" x="1615.12" y="-61" font-family="Helvetica,sans-Serif" font-size="10.00">ExampleTreeHelper.hh</text>
</a>
</g>
</g>
<!-- Node1&#45;&gt;Node25 -->
<g id="edge24_Node000001_Node000025" class="edge">
<title>Node1&#45;&gt;Node25</title>
<g id="a_edge24_Node000001_Node000025"><a xlink:title=" ">
<path fill="none" stroke="#63b8ff" d="M1989.54,-114.19C1925.47,-105.99 1793.12,-89.02 1681.12,-74.5 1678.26,-74.13 1675.33,-73.75 1672.36,-73.36"/>
<polygon fill="#63b8ff" stroke="#63b8ff" points="1988.82,-117.63 1999.18,-115.42 1989.71,-110.68 1988.82,-117.63"/>
</a>
</g>
</g>
<!-- Node27 -->
<g id="Node000027" class="node">
<title>Node27</title>
<g id="a_Node000027"><a xlink:href="_example_tree_selector_8h.html" target="_top" xlink:title=" ">
<polygon fill="white" stroke="#666666" points="1806,-74.5 1690.25,-74.5 1690.25,-55.25 1806,-55.25 1806,-74.5"/>
<text text-anchor="middle" x="1748.12" y="-61" font-family="Helvetica,sans-Serif" font-size="10.00">ExampleTreeSelector.h</text>
</a>
</g>
</g>
<!-- Node1&#45;&gt;Node27 -->
<g id="edge26_Node000001_Node000027" class="edge">
<title>Node1&#45;&gt;Node27</title>
<g id="a_edge26_Node000001_Node000027"><a xlink:title=" ">
<path fill="none" stroke="#63b8ff" d="M1989.44,-111.77C1938.95,-102.17 1850.61,-85.37 1795.97,-74.97"/>
<polygon fill="#63b8ff" stroke="#63b8ff" points="1988.55,-115.16 1999.02,-113.59 1989.85,-108.28 1988.55,-115.16"/>
</a>
</g>
</g>
<!-- Node29 -->
<g id="Node000029" class="node">
<title>Node29</title>
<g id="a_Node000029"><a xlink:href="_fast_timing_hist_selector_8h.html" target="_top" xlink:title=" ">
<polygon fill="white" stroke="#666666" points="1950.25,-74.5 1824,-74.5 1824,-55.25 1950.25,-55.25 1950.25,-74.5"/>
<text text-anchor="middle" x="1887.12" y="-61" font-family="Helvetica,sans-Serif" font-size="10.00">FastTimingHistSelector.h</text>
</a>
</g>
</g>
<!-- Node1&#45;&gt;Node29 -->
<g id="edge28_Node000001_Node000029" class="edge">
<title>Node1&#45;&gt;Node29</title>
<g id="a_edge28_Node000001_Node000029"><a xlink:title=" ">
<path fill="none" stroke="#63b8ff" d="M1993.49,-106.04C1967.92,-96.39 1933.79,-83.5 1911.16,-74.95"/>
<polygon fill="#63b8ff" stroke="#63b8ff" points="1992.2,-109.3 2002.79,-109.56 1994.67,-102.75 1992.2,-109.3"/>
</a>
</g>
</g>
<!-- Node31 -->
<g id="Node000031" class="node">
<title>Node31</title>
<g id="a_Node000031"><a xlink:href="_gain_match_g_r_i_f_f_i_n_8cxx.html" target="_top" xlink:title=" ">
<polygon fill="white" stroke="#666666" points="2087.88,-74.5 1968.38,-74.5 1968.38,-55.25 2087.88,-55.25 2087.88,-74.5"/>
<text text-anchor="middle" x="2028.12" y="-61" font-family="Helvetica,sans-Serif" font-size="10.00">GainMatchGRIFFIN.cxx</text>
</a>
</g>
</g>
<!-- Node1&#45;&gt;Node31 -->
<g id="edge30_Node000001_Node000031" class="edge">
<title>Node1&#45;&gt;Node31</title>
<g id="a_edge30_Node000001_Node000031"><a xlink:title=" ">
<path fill="none" stroke="#63b8ff" d="M2028.12,-98.88C2028.12,-90.59 2028.12,-81.42 2028.12,-74.86"/>
<polygon fill="#63b8ff" stroke="#63b8ff" points="2024.63,-98.82 2028.13,-108.82 2031.63,-98.82 2024.63,-98.82"/>
</a>
</g>
</g>
<!-- Node32 -->
<g id="Node000032" class="node">
<title>Node32</title>
<g id="a_Node000032"><a xlink:href="_get_tree_entries_8cxx.html" target="_top" xlink:title=" ">
<polygon fill="white" stroke="#666666" points="2204,-74.5 2106.25,-74.5 2106.25,-55.25 2204,-55.25 2204,-74.5"/>
<text text-anchor="middle" x="2155.12" y="-61" font-family="Helvetica,sans-Serif" font-size="10.00">GetTreeEntries.cxx</text>
</a>
</g>
</g>
<!-- Node1&#45;&gt;Node32 -->
<g id="edge31_Node000001_Node000032" class="edge">
<title>Node1&#45;&gt;Node32</title>
<g id="a_edge31_Node000001_Node000032"><a xlink:title=" ">
<path fill="none" stroke="#63b8ff" d="M2060.26,-105.65C2083.17,-96.04 2113.37,-83.38 2133.48,-74.95"/>
<polygon fill="#63b8ff" stroke="#63b8ff" points="2058.93,-102.41 2051.06,-109.51 2061.64,-108.87 2058.93,-102.41"/>
</a>
</g>
</g>
<!-- Node33 -->
<g id="Node000033" class="node">
<title>Node33</title>
<g id="a_Node000033"><a xlink:href="_griffin_c_t_fix_8cxx.html" target="_top" xlink:title=" ">
<polygon fill="white" stroke="#666666" points="2304.5,-74.5 2221.75,-74.5 2221.75,-55.25 2304.5,-55.25 2304.5,-74.5"/>
<text text-anchor="middle" x="2263.12" y="-61" font-family="Helvetica,sans-Serif" font-size="10.00">GriffinCTFix.cxx</text>
</a>
</g>
</g>
<!-- Node1&#45;&gt;Node33 -->
<g id="edge32_Node000001_Node000033" class="edge">
<title>Node1&#45;&gt;Node33</title>
<g id="a_edge32_Node000001_Node000033"><a xlink:title=" ">
<path fill="none" stroke="#63b8ff" d="M2066.69,-110.39C2109.78,-100.62 2179.21,-84.89 2222.94,-74.98"/>
<polygon fill="#63b8ff" stroke="#63b8ff" points="2066,-106.95 2057.02,-112.58 2067.54,-113.78 2066,-106.95"/>
</a>
</g>
</g>
<!-- Node34 -->
<g id="Node000034" class="node">
<title>Node34</title>
<g id="a_Node000034"><a xlink:href="_lean_compton_matrices_8cxx.html" target="_top" xlink:title=" ">
<polygon fill="white" stroke="#666666" points="2453.5,-74.5 2322.75,-74.5 2322.75,-55.25 2453.5,-55.25 2453.5,-74.5"/>
<text text-anchor="middle" x="2388.12" y="-61" font-family="Helvetica,sans-Serif" font-size="10.00">LeanComptonMatrices.cxx</text>
</a>
</g>
</g>
<!-- Node1&#45;&gt;Node34 -->
<g id="edge33_Node000001_Node000034" class="edge">
<title>Node1&#45;&gt;Node34</title>
<g id="a_edge33_Node000001_Node000034"><a xlink:title=" ">
<path fill="none" stroke="#63b8ff" d="M2066.73,-113.42C2128.98,-104.21 2252.07,-86 2326.54,-74.98"/>
<polygon fill="#63b8ff" stroke="#63b8ff" points="2066.36,-109.93 2056.98,-114.86 2067.38,-116.86 2066.36,-109.93"/>
</a>
</g>
</g>
<!-- Node35 -->
<g id="Node000035" class="node">
<title>Node35</title>
<g id="a_Node000035"><a xlink:href="_make_griffin_histograms_8cxx.html" target="_top" xlink:title=" ">
<polygon fill="white" stroke="#666666" points="2602.88,-74.5 2471.38,-74.5 2471.38,-55.25 2602.88,-55.25 2602.88,-74.5"/>
<text text-anchor="middle" x="2537.12" y="-61" font-family="Helvetica,sans-Serif" font-size="10.00">MakeGriffinHistograms.cxx</text>
</a>
</g>
</g>
<!-- Node1&#45;&gt;Node35 -->
<g id="edge34_Node000001_Node000035" class="edge">
<title>Node1&#45;&gt;Node35</title>
<g id="a_edge34_Node000001_Node000035"><a xlink:title=" ">
<path fill="none" stroke="#63b8ff" d="M2066.88,-115.3C2142.77,-107.77 2316.32,-90.38 2462.12,-74.5 2464.99,-74.19 2467.92,-73.87 2470.88,-73.54"/>
<polygon fill="#63b8ff" stroke="#63b8ff" points="2066.67,-111.8 2057.06,-116.27 2067.36,-118.77 2066.67,-111.8"/>
</a>
</g>
</g>
<!-- Node36 -->
<g id="Node000036" class="node">
<title>Node36</title>
<g id="a_Node000036"><a xlink:href="_simulation_angular_correlation_8cxx.html" target="_top" xlink:title=" ">
<polygon fill="white" stroke="#666666" points="2779,-74.5 2621.25,-74.5 2621.25,-55.25 2779,-55.25 2779,-74.5"/>
<text text-anchor="middle" x="2700.12" y="-61" font-family="Helvetica,sans-Serif" font-size="10.00">SimulationAngularCorrelation.cxx</text>
</a>
</g>
</g>
<!-- Node1&#45;&gt;Node36 -->
<g id="edge35_Node000001_Node000036" class="edge">
<title>Node1&#45;&gt;Node36</title>
<g id="a_edge35_Node000001_Node000036"><a xlink:title=" ">
<path fill="none" stroke="#63b8ff" d="M2066.94,-116.45C2160.69,-109.92 2406.87,-92.4 2612.12,-74.5 2615.03,-74.25 2617.99,-73.98 2620.98,-73.71"/>
<polygon fill="#63b8ff" stroke="#63b8ff" points="2066.75,-112.95 2057.02,-117.14 2067.24,-119.94 2066.75,-112.95"/>
</a>
</g>
</g>
<!-- Node37 -->
<g id="Node000037" class="node">
<title>Node37</title>
<g id="a_Node000037"><a xlink:href="_t_angular_correlation_8cxx.html" target="_top" xlink:title=" ">
<polygon fill="white" stroke="#666666" points="2915.12,-74.5 2797.12,-74.5 2797.12,-55.25 2915.12,-55.25 2915.12,-74.5"/>
<text text-anchor="middle" x="2856.12" y="-61" font-family="Helvetica,sans-Serif" font-size="10.00">TAngularCorrelation.cxx</text>
</a>
</g>
</g>
<!-- Node1&#45;&gt;Node37 -->
<g id="edge36_Node000001_Node000037" class="edge">
<title>Node1&#45;&gt;Node37</title>
<g id="a_edge36_Node000001_Node000037"><a xlink:title=" ">
<path fill="none" stroke="#63b8ff" d="M2066.77,-117.78C2178.62,-113.68 2512.26,-100.06 2788.12,-74.5 2790.97,-74.24 2793.88,-73.95 2796.81,-73.64"/>
<polygon fill="#63b8ff" stroke="#63b8ff" points="2066.82,-114.27 2056.95,-118.13 2067.07,-121.27 2066.82,-114.27"/>
</a>
</g>
</g>
<!-- Node38 -->
<g id="Node000038" class="node">
<title>Node38</title>
<g id="a_Node000038"><a xlink:href="_t_g_r_s_i_mnemonic_8cxx.html" target="_top" xlink:title=" ">
<polygon fill="white" stroke="#666666" points="3040.88,-74.5 2933.38,-74.5 2933.38,-55.25 3040.88,-55.25 3040.88,-74.5"/>
<text text-anchor="middle" x="2987.12" y="-61" font-family="Helvetica,sans-Serif" font-size="10.00">TGRSIMnemonic.cxx</text>
</a>
</g>
</g>
<!-- Node1&#45;&gt;Node38 -->
<g id="edge37_Node000001_Node000038" class="edge">
<title>Node1&#45;&gt;Node38</title>
<g id="a_edge37_Node000001_Node000038"><a xlink:title=" ">
<path fill="none" stroke="#63b8ff" d="M2066.87,-118.39C2191.5,-115.77 2593.24,-105.33 2924.12,-74.5 2927.09,-74.22 2930.14,-73.91 2933.2,-73.57"/>
<polygon fill="#63b8ff" stroke="#63b8ff" points="2067.12,-114.88 2057.2,-118.59 2067.27,-121.88 2067.12,-114.88"/>
</a>
</g>
</g>
<!-- Node39 -->
<g id="Node000039" class="node">
<title>Node39</title>
<g id="a_Node000039"><a xlink:href="_t_griffin_8cxx.html" target="_top" xlink:title=" ">
<polygon fill="white" stroke="#666666" points="3121.75,-74.5 3058.5,-74.5 3058.5,-55.25 3121.75,-55.25 3121.75,-74.5"/>
<text text-anchor="middle" x="3090.12" y="-61" font-family="Helvetica,sans-Serif" font-size="10.00">TGriffin.cxx</text>
</a>
</g>
</g>
<!-- Node1&#45;&gt;Node39 -->
<g id="edge38_Node000001_Node000039" class="edge">
<title>Node1&#45;&gt;Node39</title>
<g id="a_edge38_Node000001_Node000039"><a xlink:title=" ">
<path fill="none" stroke="#63b8ff" d="M2066.66,-118.31C2228.56,-114.77 2854.44,-99.69 3050.12,-74.5 3052.8,-74.16 3055.57,-73.72 3058.33,-73.24"/>
<polygon fill="#63b8ff" stroke="#63b8ff" points="2066.82,-114.81 2056.9,-118.53 2066.97,-121.81 2066.82,-114.81"/>
</a>
</g>
</g>
<!-- Node40 -->
<g id="Node000040" class="node">
<title>Node40</title>
<g id="a_Node000040"><a xlink:href="_t_griffin_angles_8cxx.html" target="_top" xlink:title=" ">
<polygon fill="white" stroke="#666666" points="3232.75,-74.5 3139.5,-74.5 3139.5,-55.25 3232.75,-55.25 3232.75,-74.5"/>
<text text-anchor="middle" x="3186.12" y="-61" font-family="Helvetica,sans-Serif" font-size="10.00">TGriffinAngles.cxx</text>
</a>
</g>
</g>
<!-- Node1&#45;&gt;Node40 -->
<g id="edge39_Node000001_Node000040" class="edge">
<title>Node1&#45;&gt;Node40</title>
<g id="a_edge39_Node000001_Node000040"><a xlink:title=" ">
<path fill="none" stroke="#63b8ff" d="M2066.58,-119.17C2208.42,-118.99 2715.57,-115.35 3131.12,-74.5 3133.72,-74.24 3136.38,-73.95 3139.07,-73.62"/>
<polygon fill="#63b8ff" stroke="#63b8ff" points="2067,-115.67 2057.01,-119.18 2067.01,-122.67 2067,-115.67"/>
</a>
</g>
</g>
<!-- Node41 -->
<g id="Node000041" class="node">
<title>Node41</title>
<g id="a_Node000041"><a xlink:href="_t_griffin_hit_8cxx.html" target="_top" xlink:title=" ">
<polygon fill="white" stroke="#666666" points="3327.12,-74.5 3251.12,-74.5 3251.12,-55.25 3327.12,-55.25 3327.12,-74.5"/>
<text text-anchor="middle" x="3289.12" y="-61" font-family="Helvetica,sans-Serif" font-size="10.00">TGriffinHit.cxx</text>
</a>
</g>
</g>
<!-- Node1&#45;&gt;Node41 -->
<g id="edge40_Node000001_Node000041" class="edge">
<title>Node1&#45;&gt;Node41</title>
<g id="a_edge40_Node000001_Node000041"><a xlink:title=" ">
<path fill="none" stroke="#63b8ff" d="M2066.97,-118.45C2247.58,-115.22 3006.32,-100.33 3242.12,-74.5 3244.93,-74.19 3247.82,-73.82 3250.72,-73.39"/>
<polygon fill="#63b8ff" stroke="#63b8ff" points="2067.14,-114.95 2057.2,-118.63 2067.26,-121.95 2067.14,-114.95"/>
</a>
</g>
</g>
<!-- Node42 -->
<g id="Node000042" class="node">
<title>Node42</title>
<g id="a_Node000042"><a xlink:href="_tac_offset_helper_8hh.html" target="_top" xlink:title=" ">
<polygon fill="white" stroke="#666666" points="3445.12,-74.5 3345.12,-74.5 3345.12,-55.25 3445.12,-55.25 3445.12,-74.5"/>
<text text-anchor="middle" x="3395.12" y="-61" font-family="Helvetica,sans-Serif" font-size="10.00">TacOffsetHelper.hh</text>
</a>
</g>
</g>
<!-- Node1&#45;&gt;Node42 -->
<g id="edge41_Node000001_Node000042" class="edge">
<title>Node1&#45;&gt;Node42</title>
<g id="a_edge41_Node000001_Node000042"><a xlink:title=" ">
<path fill="none" stroke="#63b8ff" d="M2066.76,-119.37C2224.62,-120.05 2836.01,-119.45 3336.12,-74.5 3338.91,-74.25 3341.76,-73.96 3344.64,-73.63"/>
<polygon fill="#63b8ff" stroke="#63b8ff" points="2066.88,-115.87 2056.87,-119.32 2066.85,-122.87 2066.88,-115.87"/>
</a>
</g>
</g>
<!-- Node44 -->
<g id="Node000044" class="node">
<title>Node44</title>
<g id="a_Node000044"><a xlink:href="_time_walk_helper_8hh.html" target="_top" xlink:title=" ">
<polygon fill="white" stroke="#666666" points="3563.5,-74.5 3462.75,-74.5 3462.75,-55.25 3563.5,-55.25 3563.5,-74.5"/>
<text text-anchor="middle" x="3513.12" y="-61" font-family="Helvetica,sans-Serif" font-size="10.00">TimeWalkHelper.hh</text>
</a>
</g>
</g>
<!-- Node1&#45;&gt;Node44 -->
<g id="edge43_Node000001_Node000044" class="edge">
<title>Node1&#45;&gt;Node44</title>
<g id="a_edge43_Node000001_Node000044"><a xlink:title=" ">
<path fill="none" stroke="#63b8ff" d="M2066.69,-119.53C2232.97,-120.92 2905.05,-123.07 3454.12,-74.5 3456.81,-74.26 3459.55,-73.98 3462.32,-73.68"/>
<polygon fill="#63b8ff" stroke="#63b8ff" points="2066.93,-116.03 2056.9,-119.44 2066.86,-123.03 2066.93,-116.03"/>
</a>
</g>
</g>
<!-- Node46 -->
<g id="Node000046" class="node">
<title>Node46</title>
<g id="a_Node000046"><a xlink:href="_time_walk_selector_8h.html" target="_top" xlink:title=" ">
<polygon fill="white" stroke="#666666" points="3684.62,-74.5 3581.62,-74.5 3581.62,-55.25 3684.62,-55.25 3684.62,-74.5"/>
<text text-anchor="middle" x="3633.12" y="-61" font-family="Helvetica,sans-Serif" font-size="10.00">TimeWalkSelector.h</text>
</a>
</g>
</g>
<!-- Node1&#45;&gt;Node46 -->
<g id="edge45_Node000001_Node000046" class="edge">
<title>Node1&#45;&gt;Node46</title>
<g id="a_edge45_Node000001_Node000046"><a xlink:title=" ">
<path fill="none" stroke="#63b8ff" d="M2067.01,-118.59C2275.89,-115.63 3266.76,-100.42 3572.12,-74.5 3575.11,-74.25 3578.17,-73.95 3581.26,-73.61"/>
<polygon fill="#63b8ff" stroke="#63b8ff" points="2067.2,-115.09 2057.25,-118.73 2067.3,-122.09 2067.2,-115.09"/>
</a>
</g>
</g>
<!-- Node48 -->
<g id="Node000048" class="node">
<title>Node48</title>
<g id="a_Node000048"><a xlink:href="tac__calibrator_8cxx.html" target="_top" xlink:title=" ">
<polygon fill="white" stroke="#666666" points="3793.62,-74.5 3702.62,-74.5 3702.62,-55.25 3793.62,-55.25 3793.62,-74.5"/>
<text text-anchor="middle" x="3748.12" y="-61" font-family="Helvetica,sans-Serif" font-size="10.00">tac_calibrator.cxx</text>
</a>
</g>
</g>
<!-- Node1&#45;&gt;Node48 -->
<g id="edge47_Node000001_Node000048" class="edge">
<title>Node1&#45;&gt;Node48</title>
<g id="a_edge47_Node000001_Node000048"><a xlink:title=" ">
<path fill="none" stroke="#63b8ff" d="M2066.91,-118.78C2285.26,-116.74 3363.3,-105.22 3694.12,-74.5 3696.77,-74.25 3699.49,-73.96 3702.22,-73.63"/>
<polygon fill="#63b8ff" stroke="#63b8ff" points="2066.93,-115.28 2056.97,-118.87 2067,-122.28 2066.93,-115.28"/>
</a>
</g>
</g>
<!-- Node49 -->
<g id="Node000049" class="node">
<title>Node49</title>
<g id="a_Node000049"><a xlink:href="write__cal_8cxx.html" target="_top" xlink:title=" ">
<polygon fill="white" stroke="#666666" points="3882.88,-74.5 3811.38,-74.5 3811.38,-55.25 3882.88,-55.25 3882.88,-74.5"/>
<text text-anchor="middle" x="3847.12" y="-61" font-family="Helvetica,sans-Serif" font-size="10.00">write_cal.cxx</text>
</a>
</g>
</g>
<!-- Node1&#45;&gt;Node49 -->
<g id="edge48_Node000001_Node000049" class="edge">
<title>Node1&#45;&gt;Node49</title>
<g id="a_edge48_Node000001_Node000049"><a xlink:title=" ">
<path fill="none" stroke="#63b8ff" d="M2066.94,-119.04C2293.77,-118.4 3449.98,-113.27 3803.12,-74.5 3805.76,-74.21 3808.46,-73.85 3811.18,-73.43"/>
<polygon fill="#63b8ff" stroke="#63b8ff" points="2067.17,-115.54 2057.18,-119.06 2067.19,-122.54 2067.17,-115.54"/>
</a>
</g>
</g>
<!-- Node3 -->
<g id="Node000003" class="node">
<title>Node3</title>
<g id="a_Node000003"><a xlink:href="_alphanumeric_helper_8cxx.html" target="_top" xlink:title=" ">
<polygon fill="white" stroke="#666666" points="120.25,-19.25 0,-19.25 0,0 120.25,0 120.25,-19.25"/>
<text text-anchor="middle" x="60.12" y="-5.75" font-family="Helvetica,sans-Serif" font-size="10.00">AlphanumericHelper.cxx</text>
</a>
</g>
</g>
<!-- Node2&#45;&gt;Node3 -->
<g id="edge2_Node000002_Node000003" class="edge">
<title>Node2&#45;&gt;Node3</title>
<g id="a_edge2_Node000002_Node000003"><a xlink:title=" ">
<path fill="none" stroke="#63b8ff" d="M61.36,-43.63C61.05,-35.34 60.71,-26.17 60.46,-19.61"/>
<polygon fill="#63b8ff" stroke="#63b8ff" points="57.86,-43.71 61.74,-53.57 64.86,-43.45 57.86,-43.71"/>
</a>
</g>
</g>
<!-- Node5 -->
<g id="Node000005" class="node">
<title>Node5</title>
<g id="a_Node000005"><a xlink:href="_alphanumeric_selector_8_c.html" target="_top" xlink:title=" ">
<polygon fill="white" stroke="#666666" points="258.25,-19.25 138,-19.25 138,0 258.25,0 258.25,-19.25"/>
<text text-anchor="middle" x="198.12" y="-5.75" font-family="Helvetica,sans-Serif" font-size="10.00">AlphanumericSelector.C</text>
</a>
</g>
</g>
<!-- Node4&#45;&gt;Node5 -->
<g id="edge4_Node000004_Node000005" class="edge">
<title>Node4&#45;&gt;Node5</title>
<g id="a_edge4_Node000004_Node000005"><a xlink:title=" ">
<path fill="none" stroke="#63b8ff" d="M198.74,-43.63C198.59,-35.34 198.42,-26.17 198.29,-19.61"/>
<polygon fill="#63b8ff" stroke="#63b8ff" points="195.24,-43.64 198.93,-53.57 202.24,-43.5 195.24,-43.64"/>
</a>
</g>
</g>
<!-- Node7 -->
<g id="Node000007" class="node">
<title>Node7</title>
<g id="a_Node000007"><a xlink:href="_angular_correlation_helper_8cxx.html" target="_top" xlink:title=" ">
<polygon fill="white" stroke="#666666" points="416.38,-19.25 275.88,-19.25 275.88,0 416.38,0 416.38,-19.25"/>
<text text-anchor="middle" x="346.12" y="-5.75" font-family="Helvetica,sans-Serif" font-size="10.00">AngularCorrelationHelper.cxx</text>
</a>
</g>
</g>
<!-- Node6&#45;&gt;Node7 -->
<g id="edge6_Node000006_Node000007" class="edge">
<title>Node6&#45;&gt;Node7</title>
<g id="a_edge6_Node000006_Node000007"><a xlink:title=" ">
<path fill="none" stroke="#63b8ff" d="M346.74,-43.63C346.59,-35.34 346.42,-26.17 346.29,-19.61"/>
<polygon fill="#63b8ff" stroke="#63b8ff" points="343.24,-43.64 346.93,-53.57 350.24,-43.5 343.24,-43.64"/>
</a>
</g>
</g>
<!-- Node9 -->
<g id="Node000009" class="node">
<title>Node9</title>
<g id="a_Node000009"><a xlink:href="_angular_correlation_selector_8_c.html" target="_top" xlink:title=" ">
<polygon fill="white" stroke="#666666" points="575.38,-19.25 434.88,-19.25 434.88,0 575.38,0 575.38,-19.25"/>
<text text-anchor="middle" x="505.12" y="-5.75" font-family="Helvetica,sans-Serif" font-size="10.00">AngularCorrelationSelector.C</text>
</a>
</g>
</g>
<!-- Node8&#45;&gt;Node9 -->
<g id="edge8_Node000008_Node000009" class="edge">
<title>Node8&#45;&gt;Node9</title>
<g id="a_edge8_Node000008_Node000009"><a xlink:title=" ">
<path fill="none" stroke="#63b8ff" d="M505.12,-43.63C505.12,-35.34 505.12,-26.17 505.12,-19.61"/>
<polygon fill="#63b8ff" stroke="#63b8ff" points="501.63,-43.57 505.13,-53.57 508.63,-43.57 501.63,-43.57"/>
</a>
</g>
</g>
<!-- Node11 -->
<g id="Node000011" class="node">
<title>Node11</title>
<g id="a_Node000011"><a xlink:href="_compton_polarimetry_helper_8cxx.html" target="_top" xlink:title=" ">
<polygon fill="white" stroke="#666666" points="742.5,-19.25 593.75,-19.25 593.75,0 742.5,0 742.5,-19.25"/>
<text text-anchor="middle" x="668.12" y="-5.75" font-family="Helvetica,sans-Serif" font-size="10.00">ComptonPolarimetryHelper.cxx</text>
</a>
</g>
</g>
<!-- Node10&#45;&gt;Node11 -->
<g id="edge10_Node000010_Node000011" class="edge">
<title>Node10&#45;&gt;Node11</title>
<g id="a_edge10_Node000010_Node000011"><a xlink:title=" ">
<path fill="none" stroke="#63b8ff" d="M666.27,-43.63C666.73,-35.34 667.25,-26.17 667.62,-19.61"/>
<polygon fill="#63b8ff" stroke="#63b8ff" points="662.77,-43.39 665.71,-53.57 669.76,-43.78 662.77,-43.39"/>
</a>
</g>
</g>
<!-- Node13 -->
<g id="Node000013" class="node">
<title>Node13</title>
<g id="a_Node000013"><a xlink:href="_cross_talk_8_c.html" target="_top" xlink:title=" ">
<polygon fill="white" stroke="#666666" points="829.75,-19.25 760.5,-19.25 760.5,0 829.75,0 829.75,-19.25"/>
<text text-anchor="middle" x="795.12" y="-5.75" font-family="Helvetica,sans-Serif" font-size="10.00">CrossTalk.C</text>
</a>
</g>
</g>
<!-- Node12&#45;&gt;Node13 -->
<g id="edge12_Node000012_Node000013" class="edge">
<title>Node12&#45;&gt;Node13</title>
<g id="a_edge12_Node000012_Node000013"><a xlink:title=" ">
<path fill="none" stroke="#63b8ff" d="M791.37,-43.92C792.32,-35.55 793.36,-26.25 794.11,-19.61"/>
<polygon fill="#63b8ff" stroke="#63b8ff" points="787.93,-43.25 790.29,-53.58 794.88,-44.03 787.93,-43.25"/>
</a>
</g>
</g>
<!-- Node15 -->
<g id="Node000015" class="node">
<title>Node15</title>
<g id="a_Node000015"><a xlink:href="_cross_talk_helper_8cxx.html" target="_top" xlink:title=" ">
<polygon fill="white" stroke="#666666" points="952.75,-19.25 847.5,-19.25 847.5,0 952.75,0 952.75,-19.25"/>
<text text-anchor="middle" x="900.12" y="-5.75" font-family="Helvetica,sans-Serif" font-size="10.00">CrossTalkHelper.cxx</text>
</a>
</g>
</g>
<!-- Node14&#45;&gt;Node15 -->
<g id="edge14_Node000014_Node000015" class="edge">
<title>Node14&#45;&gt;Node15</title>
<g id="a_edge14_Node000014_Node000015"><a xlink:title=" ">
<path fill="none" stroke="#63b8ff" d="M895.12,-43.92C896.38,-35.55 897.78,-26.25 898.78,-19.61"/>
<polygon fill="#63b8ff" stroke="#63b8ff" points="891.7,-43.18 893.67,-53.59 898.62,-44.22 891.7,-43.18"/>
</a>
</g>
</g>
<!-- Node18 -->
<g id="Node000018" class="node">
<title>Node18</title>
<g id="a_Node000018"><a xlink:href="_directory_helper_8cxx.html" target="_top" xlink:title=" ">
<polygon fill="white" stroke="#666666" points="1140.75,-19.25 1041.5,-19.25 1041.5,0 1140.75,0 1140.75,-19.25"/>
<text text-anchor="middle" x="1091.12" y="-5.75" font-family="Helvetica,sans-Serif" font-size="10.00">DirectoryHelper.cxx</text>
</a>
</g>
</g>
<!-- Node17&#45;&gt;Node18 -->
<g id="edge17_Node000017_Node000018" class="edge">
<title>Node17&#45;&gt;Node18</title>
<g id="a_edge17_Node000017_Node000018"><a xlink:title=" ">
<path fill="none" stroke="#63b8ff" d="M1097.38,-43.92C1095.81,-35.55 1094.06,-26.25 1092.81,-19.61"/>
<polygon fill="#63b8ff" stroke="#63b8ff" points="1093.91,-44.41 1099.19,-53.59 1100.79,-43.12 1093.91,-44.41"/>
</a>
</g>
</g>
<!-- Node20 -->
<g id="Node000020" class="node">
<title>Node20</title>
<g id="a_Node000020"><a xlink:href="_efficiency_helper_8cxx.html" target="_top" xlink:title=" ">
<polygon fill="white" stroke="#666666" points="1259.88,-19.25 1158.38,-19.25 1158.38,0 1259.88,0 1259.88,-19.25"/>
<text text-anchor="middle" x="1209.12" y="-5.75" font-family="Helvetica,sans-Serif" font-size="10.00">EfficiencyHelper.cxx</text>
</a>
</g>
</g>
<!-- Node19&#45;&gt;Node20 -->
<g id="edge19_Node000019_Node000020" class="edge">
<title>Node19&#45;&gt;Node20</title>
<g id="a_edge19_Node000019_Node000020"><a xlink:title=" ">
<path fill="none" stroke="#63b8ff" d="M1213.5,-43.92C1212.4,-35.55 1211.18,-26.25 1210.31,-19.61"/>
<polygon fill="#63b8ff" stroke="#63b8ff" points="1210,-44.12 1214.77,-53.58 1216.94,-43.21 1210,-44.12"/>
</a>
</g>
</g>
<!-- Node22 -->
<g id="Node000022" class="node">
<title>Node22</title>
<g id="a_Node000022"><a xlink:href="_example_event_helper_8cxx.html" target="_top" xlink:title=" ">
<polygon fill="white" stroke="#666666" points="1400.38,-19.25 1277.88,-19.25 1277.88,0 1400.38,0 1400.38,-19.25"/>
<text text-anchor="middle" x="1339.12" y="-5.75" font-family="Helvetica,sans-Serif" font-size="10.00">ExampleEventHelper.cxx</text>
</a>
</g>
</g>
<!-- Node21&#45;&gt;Node22 -->
<g id="edge21_Node000021_Node000022" class="edge">
<title>Node21&#45;&gt;Node22</title>
<g id="a_edge21_Node000021_Node000022"><a xlink:title=" ">
<path fill="none" stroke="#63b8ff" d="M1340.98,-43.63C1340.52,-35.34 1340,-26.17 1339.63,-19.61"/>
<polygon fill="#63b8ff" stroke="#63b8ff" points="1337.49,-43.78 1341.54,-53.57 1344.48,-43.39 1337.49,-43.78"/>
</a>
</g>
</g>
<!-- Node24 -->
<g id="Node000024" class="node">
<title>Node24</title>
<g id="a_Node000024"><a xlink:href="_example_event_selector_8_c.html" target="_top" xlink:title=" ">
<polygon fill="white" stroke="#666666" points="1541.38,-19.25 1418.88,-19.25 1418.88,0 1541.38,0 1541.38,-19.25"/>
<text text-anchor="middle" x="1480.12" y="-5.75" font-family="Helvetica,sans-Serif" font-size="10.00">ExampleEventSelector.C</text>
</a>
</g>
</g>
<!-- Node23&#45;&gt;Node24 -->
<g id="edge23_Node000023_Node000024" class="edge">
<title>Node23&#45;&gt;Node24</title>
<g id="a_edge23_Node000023_Node000024"><a xlink:title=" ">
<path fill="none" stroke="#63b8ff" d="M1480.12,-43.63C1480.12,-35.34 1480.12,-26.17 1480.12,-19.61"/>
<polygon fill="#63b8ff" stroke="#63b8ff" points="1476.63,-43.57 1480.13,-53.57 1483.63,-43.57 1476.63,-43.57"/>
</a>
</g>
</g>
<!-- Node26 -->
<g id="Node000026" class="node">
<title>Node26</title>
<g id="a_Node000026"><a xlink:href="_example_tree_helper_8cxx.html" target="_top" xlink:title=" ">
<polygon fill="white" stroke="#666666" points="1676.75,-19.25 1559.5,-19.25 1559.5,0 1676.75,0 1676.75,-19.25"/>
<text text-anchor="middle" x="1618.12" y="-5.75" font-family="Helvetica,sans-Serif" font-size="10.00">ExampleTreeHelper.cxx</text>
</a>
</g>
</g>
<!-- Node25&#45;&gt;Node26 -->
<g id="edge25_Node000025_Node000026" class="edge">
<title>Node25&#45;&gt;Node26</title>
<g id="a_edge25_Node000025_Node000026"><a xlink:title=" ">
<path fill="none" stroke="#63b8ff" d="M1616.27,-43.63C1616.73,-35.34 1617.25,-26.17 1617.62,-19.61"/>
<polygon fill="#63b8ff" stroke="#63b8ff" points="1612.77,-43.39 1615.71,-53.57 1619.76,-43.78 1612.77,-43.39"/>
</a>
</g>
</g>
<!-- Node28 -->
<g id="Node000028" class="node">
<title>Node28</title>
<g id="a_Node000028"><a xlink:href="_example_tree_selector_8_c.html" target="_top" xlink:title=" ">
<polygon fill="white" stroke="#666666" points="1811.75,-19.25 1694.5,-19.25 1694.5,0 1811.75,0 1811.75,-19.25"/>
<text text-anchor="middle" x="1753.12" y="-5.75" font-family="Helvetica,sans-Serif" font-size="10.00">ExampleTreeSelector.C</text>
</a>
</g>
</g>
<!-- Node27&#45;&gt;Node28 -->
<g id="edge27_Node000027_Node000028" class="edge">
<title>Node27&#45;&gt;Node28</title>
<g id="a_edge27_Node000027_Node000028"><a xlink:title=" ">
<path fill="none" stroke="#63b8ff" d="M1750.03,-43.63C1750.8,-35.34 1751.67,-26.17 1752.28,-19.61"/>
<polygon fill="#63b8ff" stroke="#63b8ff" points="1746.54,-43.29 1749.09,-53.57 1753.51,-43.95 1746.54,-43.29"/>
</a>
</g>
</g>
<!-- Node30 -->
<g id="Node000030" class="node">
<title>Node30</title>
<g id="a_Node000030"><a xlink:href="_fast_timing_hist_selector_8_c.html" target="_top" xlink:title=" ">
<polygon fill="white" stroke="#666666" points="1958,-19.25 1830.25,-19.25 1830.25,0 1958,0 1958,-19.25"/>
<text text-anchor="middle" x="1894.12" y="-5.75" font-family="Helvetica,sans-Serif" font-size="10.00">FastTimingHistSelector.C</text>
</a>
</g>
</g>
<!-- Node29&#45;&gt;Node30 -->
<g id="edge29_Node000029_Node000030" class="edge">
<title>Node29&#45;&gt;Node30</title>
<g id="a_edge29_Node000029_Node000030"><a xlink:title=" ">
<path fill="none" stroke="#63b8ff" d="M1889.75,-43.92C1890.85,-35.55 1892.07,-26.25 1892.94,-19.61"/>
<polygon fill="#63b8ff" stroke="#63b8ff" points="1886.31,-43.21 1888.48,-53.58 1893.25,-44.12 1886.31,-43.21"/>
</a>
</g>
</g>
<!-- Node43 -->
<g id="Node000043" class="node">
<title>Node43</title>
<g id="a_Node000043"><a xlink:href="_tac_offset_helper_8cxx.html" target="_top" xlink:title=" ">
<polygon fill="white" stroke="#666666" points="3443,-19.25 3339.25,-19.25 3339.25,0 3443,0 3443,-19.25"/>
<text text-anchor="middle" x="3391.12" y="-5.75" font-family="Helvetica,sans-Serif" font-size="10.00">TacOffsetHelper.cxx</text>
</a>
</g>
</g>
<!-- Node42&#45;&gt;Node43 -->
<g id="edge42_Node000042_Node000043" class="edge">
<title>Node42&#45;&gt;Node43</title>
<g id="a_edge42_Node000042_Node000043"><a xlink:title=" ">
<path fill="none" stroke="#63b8ff" d="M3393.6,-43.63C3392.98,-35.34 3392.29,-26.17 3391.8,-19.61"/>
<polygon fill="#63b8ff" stroke="#63b8ff" points="3390.11,-43.86 3394.35,-53.57 3397.09,-43.34 3390.11,-43.86"/>
</a>
</g>
</g>
<!-- Node45 -->
<g id="Node000045" class="node">
<title>Node45</title>
<g id="a_Node000045"><a xlink:href="_time_walk_helper_8cxx.html" target="_top" xlink:title=" ">
<polygon fill="white" stroke="#666666" points="3565.38,-19.25 3460.88,-19.25 3460.88,0 3565.38,0 3565.38,-19.25"/>
<text text-anchor="middle" x="3513.12" y="-5.75" font-family="Helvetica,sans-Serif" font-size="10.00">TimeWalkHelper.cxx</text>
</a>
</g>
</g>
<!-- Node44&#45;&gt;Node45 -->
<g id="edge44_Node000044_Node000045" class="edge">
<title>Node44&#45;&gt;Node45</title>
<g id="a_edge44_Node000044_Node000045"><a xlink:title=" ">
<path fill="none" stroke="#63b8ff" d="M3513.12,-43.63C3513.12,-35.34 3513.12,-26.17 3513.12,-19.61"/>
<polygon fill="#63b8ff" stroke="#63b8ff" points="3509.63,-43.57 3513.13,-53.57 3516.63,-43.57 3509.63,-43.57"/>
</a>
</g>
</g>
<!-- Node47 -->
<g id="Node000047" class="node">
<title>Node47</title>
<g id="a_Node000047"><a xlink:href="_time_walk_selector_8_c.html" target="_top" xlink:title=" ">
<polygon fill="white" stroke="#666666" points="3688.38,-19.25 3583.88,-19.25 3583.88,0 3688.38,0 3688.38,-19.25"/>
<text text-anchor="middle" x="3636.12" y="-5.75" font-family="Helvetica,sans-Serif" font-size="10.00">TimeWalkSelector.C</text>
</a>
</g>
</g>
<!-- Node46&#45;&gt;Node47 -->
<g id="edge46_Node000046_Node000047" class="edge">
<title>Node46&#45;&gt;Node47</title>
<g id="a_edge46_Node000046_Node000047"><a xlink:title=" ">
<path fill="none" stroke="#63b8ff" d="M3634.27,-43.63C3634.73,-35.34 3635.25,-26.17 3635.62,-19.61"/>
<polygon fill="#63b8ff" stroke="#63b8ff" points="3630.77,-43.39 3633.71,-53.57 3637.76,-43.78 3630.77,-43.39"/>
</a>
</g>
</g>
</g>
</svg>
