<?xml version="1.0" encoding="UTF-8" standalone="no"?>
<!DOCTYPE svg PUBLIC "-//W3C//DTD SVG 1.1//EN"
 "http://www.w3.org/Graphics/SVG/1.1/DTD/svg11.dtd">
<!-- Generated by graphviz version 12.2.0 (20241103.1931)
 -->
<!-- Title: TGRSIFrame.h Pages: 1 -->
<svg width="1413pt" height="248pt"
 viewBox="0.00 0.00 1412.75 248.25" xmlns="http://www.w3.org/2000/svg" xmlns:xlink="http://www.w3.org/1999/xlink">
<g id="graph0" class="graph" transform="scale(1 1) rotate(0) translate(4 244.25)">
<title>TGRSIFrame.h</title>
<!-- Node1 -->
<g id="Node000001" class="node">
<title>Node1</title>
<g id="a_Node000001"><a xlink:title=" ">
<polygon fill="#999999" stroke="#666666" points="795.25,-240.25 714,-240.25 714,-221 795.25,-221 795.25,-240.25"/>
<text text-anchor="middle" x="754.62" y="-226.75" font-family="Helvetica,sans-Serif" font-size="10.00">TGRSIFrame.h</text>
</a>
</g>
</g>
<!-- Node2 -->
<g id="Node000002" class="node">
<title>Node2</title>
<g id="a_Node000002"><a xlink:title=" ">
<polygon fill="#e0e0e0" stroke="#999999" points="63.25,-185 0,-185 0,-165.75 63.25,-165.75 63.25,-185"/>
<text text-anchor="middle" x="31.62" y="-171.5" font-family="Helvetica,sans-Serif" font-size="10.00">RVersion.h</text>
</a>
</g>
</g>
<!-- Node1&#45;&gt;Node2 -->
<g id="edge1_Node000001_Node000002" class="edge">
<title>Node1&#45;&gt;Node2</title>
<g id="a_edge1_Node000001_Node000002"><a xlink:title=" ">
<path fill="none" stroke="#63b8ff" d="M713.64,-228.63C607.91,-225.69 317.48,-215.28 77.62,-185 76.78,-184.89 75.92,-184.78 75.06,-184.66"/>
<polygon fill="#63b8ff" stroke="#63b8ff" points="75.63,-181.21 65.21,-183.13 74.56,-188.13 75.63,-181.21"/>
</a>
</g>
</g>
<!-- Node3 -->
<g id="Node000003" class="node">
<title>Node3</title>
<g id="a_Node000003"><a xlink:title=" ">
<polygon fill="#e0e0e0" stroke="#999999" points="154,-74.5 119.25,-74.5 119.25,-55.25 154,-55.25 154,-74.5"/>
<text text-anchor="middle" x="136.62" y="-61" font-family="Helvetica,sans-Serif" font-size="10.00">map</text>
</a>
</g>
</g>
<!-- Node1&#45;&gt;Node3 -->
<g id="edge2_Node000001_Node000003" class="edge">
<title>Node1&#45;&gt;Node3</title>
<g id="a_edge2_Node000001_Node000003"><a xlink:title=" ">
<path fill="none" stroke="#63b8ff" d="M713.57,-226.08C599.19,-215.64 279.45,-182.36 189.62,-129.75 171.01,-118.85 156.05,-98.86 146.83,-84.14"/>
<polygon fill="#63b8ff" stroke="#63b8ff" points="150.03,-82.68 141.93,-75.85 144.01,-86.24 150.03,-82.68"/>
</a>
</g>
</g>
<!-- Node4 -->
<g id="Node000004" class="node">
<title>Node4</title>
<g id="a_Node000004"><a xlink:title=" ">
<polygon fill="#e0e0e0" stroke="#999999" points="201.62,-19.25 161.62,-19.25 161.62,0 201.62,0 201.62,-19.25"/>
<text text-anchor="middle" x="181.62" y="-5.75" font-family="Helvetica,sans-Serif" font-size="10.00">string</text>
</a>
</g>
</g>
<!-- Node1&#45;&gt;Node4 -->
<g id="edge3_Node000001_Node000004" class="edge">
<title>Node1&#45;&gt;Node4</title>
<g id="a_edge3_Node000001_Node000004"><a xlink:title=" ">
<path fill="none" stroke="#63b8ff" d="M713.72,-229.72C632.66,-229.01 446.44,-222.97 295.62,-185 202.75,-161.62 146.35,-163.36 110.62,-74.5 107.43,-66.56 106.49,-62.74 110.62,-55.25 119.24,-39.66 135.83,-28.78 150.81,-21.67"/>
<polygon fill="#63b8ff" stroke="#63b8ff" points="152.11,-24.92 159.9,-17.75 149.33,-18.5 152.11,-24.92"/>
</a>
</g>
</g>
<!-- Node5 -->
<g id="Node000005" class="node">
<title>Node5</title>
<g id="a_Node000005"><a xlink:title=" ">
<polygon fill="#e0e0e0" stroke="#999999" points="1028.62,-74.5 982.62,-74.5 982.62,-55.25 1028.62,-55.25 1028.62,-74.5"/>
<text text-anchor="middle" x="1005.62" y="-61" font-family="Helvetica,sans-Serif" font-size="10.00">TList.h</text>
</a>
</g>
</g>
<!-- Node1&#45;&gt;Node5 -->
<g id="edge4_Node000001_Node000005" class="edge">
<title>Node1&#45;&gt;Node5</title>
<g id="a_edge4_Node000001_Node000005"><a xlink:title=" ">
<path fill="none" stroke="#63b8ff" d="M770.16,-220.65C799.44,-203.62 864.63,-165.14 917.62,-129.75 941.2,-114 967.4,-94.75 985.04,-81.52"/>
<polygon fill="#63b8ff" stroke="#63b8ff" points="986.79,-84.58 992.67,-75.76 982.58,-78.99 986.79,-84.58"/>
</a>
</g>
</g>
<!-- Node6 -->
<g id="Node000006" class="node">
<title>Node6</title>
<g id="a_Node000006"><a xlink:href="_t_g_r_s_i_options_8h.html" target="_top" xlink:title=" ">
<polygon fill="white" stroke="#666666" points="587.25,-185 500,-185 500,-165.75 587.25,-165.75 587.25,-185"/>
<text text-anchor="middle" x="543.62" y="-171.5" font-family="Helvetica,sans-Serif" font-size="10.00">TGRSIOptions.h</text>
</a>
</g>
</g>
<!-- Node1&#45;&gt;Node6 -->
<g id="edge5_Node000001_Node000006" class="edge">
<title>Node1&#45;&gt;Node6</title>
<g id="a_edge5_Node000001_Node000006"><a xlink:title=" ">
<path fill="none" stroke="#63b8ff" d="M718.83,-220.59C683.52,-211.68 629.34,-198.01 590.59,-188.23"/>
<polygon fill="#63b8ff" stroke="#63b8ff" points="591.61,-184.88 581.06,-185.82 589.9,-191.66 591.61,-184.88"/>
</a>
</g>
</g>
<!-- Node17 -->
<g id="Node000017" class="node">
<title>Node17</title>
<g id="a_Node000017"><a xlink:href="_t_p_p_g_8h.html" target="_top" xlink:title=" ">
<polygon fill="white" stroke="#666666" points="779.88,-185 729.38,-185 729.38,-165.75 779.88,-165.75 779.88,-185"/>
<text text-anchor="middle" x="754.62" y="-171.5" font-family="Helvetica,sans-Serif" font-size="10.00">TPPG.h</text>
</a>
</g>
</g>
<!-- Node1&#45;&gt;Node17 -->
<g id="edge20_Node000001_Node000017" class="edge">
<title>Node1&#45;&gt;Node17</title>
<g id="a_edge20_Node000001_Node000017"><a xlink:title=" ">
<path fill="none" stroke="#63b8ff" d="M754.62,-220.83C754.62,-214.32 754.62,-205.17 754.62,-196.87"/>
<polygon fill="#63b8ff" stroke="#63b8ff" points="758.13,-196.87 754.63,-186.87 751.13,-196.87 758.13,-196.87"/>
</a>
</g>
</g>
<!-- Node35 -->
<g id="Node000035" class="node">
<title>Node35</title>
<g id="a_Node000035"><a xlink:href="_t_redirect_8h.html" target="_top" xlink:title=" ">
<polygon fill="white" stroke="#666666" points="1294.38,-74.5 1228.88,-74.5 1228.88,-55.25 1294.38,-55.25 1294.38,-74.5"/>
<text text-anchor="middle" x="1261.62" y="-61" font-family="Helvetica,sans-Serif" font-size="10.00">TRedirect.h</text>
</a>
</g>
</g>
<!-- Node1&#45;&gt;Node35 -->
<g id="edge49_Node000001_Node000035" class="edge">
<title>Node1&#45;&gt;Node35</title>
<g id="a_edge49_Node000001_Node000035"><a xlink:title=" ">
<path fill="none" stroke="#63b8ff" d="M782.61,-220.59C867.77,-193.08 1124.01,-110.32 1222.48,-78.52"/>
<polygon fill="#63b8ff" stroke="#63b8ff" points="1223.54,-81.85 1231.98,-75.45 1221.39,-75.19 1223.54,-81.85"/>
</a>
</g>
</g>
<!-- Node37 -->
<g id="Node000037" class="node">
<title>Node37</title>
<g id="a_Node000037"><a xlink:title=" ">
<polygon fill="#e0e0e0" stroke="#999999" points="1140.62,-185 1022.62,-185 1022.62,-165.75 1140.62,-165.75 1140.62,-185"/>
<text text-anchor="middle" x="1081.62" y="-171.5" font-family="Helvetica,sans-Serif" font-size="10.00">ROOT/RDataFrame.hxx</text>
</a>
</g>
</g>
<!-- Node1&#45;&gt;Node37 -->
<g id="edge54_Node000001_Node000037" class="edge">
<title>Node1&#45;&gt;Node37</title>
<g id="a_edge54_Node000001_Node000037"><a xlink:title=" ">
<path fill="none" stroke="#63b8ff" d="M795.71,-222.93C850.68,-213.98 948.85,-198 1014.6,-187.29"/>
<polygon fill="#63b8ff" stroke="#63b8ff" points="1014.87,-190.79 1024.18,-185.73 1013.75,-183.88 1014.87,-190.79"/>
</a>
</g>
</g>
<!-- Node38 -->
<g id="Node000038" class="node">
<title>Node38</title>
<g id="a_Node000038"><a xlink:title=" ">
<polygon fill="#e0e0e0" stroke="#999999" points="1258.62,-185 1158.62,-185 1158.62,-165.75 1258.62,-165.75 1258.62,-185"/>
<text text-anchor="middle" x="1208.62" y="-171.5" font-family="Helvetica,sans-Serif" font-size="10.00">ROOT/RLogger.hxx</text>
</a>
</g>
</g>
<!-- Node1&#45;&gt;Node38 -->
<g id="edge55_Node000001_Node000038" class="edge">
<title>Node1&#45;&gt;Node38</title>
<g id="a_edge55_Node000001_Node000038"><a xlink:title=" ">
<path fill="none" stroke="#63b8ff" d="M795.62,-225.44C865.47,-218.21 1012.3,-202.6 1147.09,-185.29"/>
<polygon fill="#63b8ff" stroke="#63b8ff" points="1147.46,-188.77 1156.93,-184.02 1146.56,-181.83 1147.46,-188.77"/>
</a>
</g>
</g>
<!-- Node7 -->
<g id="Node000007" class="node">
<title>Node7</title>
<g id="a_Node000007"><a xlink:title=" ">
<polygon fill="#e0e0e0" stroke="#999999" points="664.62,-74.5 606.62,-74.5 606.62,-55.25 664.62,-55.25 664.62,-74.5"/>
<text text-anchor="middle" x="635.62" y="-61" font-family="Helvetica,sans-Serif" font-size="10.00">TObject.h</text>
</a>
</g>
</g>
<!-- Node6&#45;&gt;Node7 -->
<g id="edge6_Node000006_Node000007" class="edge">
<title>Node6&#45;&gt;Node7</title>
<g id="a_edge6_Node000006_Node000007"><a xlink:title=" ">
<path fill="none" stroke="#63b8ff" d="M587.7,-165.71C607.75,-159.32 629.64,-148.38 641.62,-129.75 650.02,-116.71 647.51,-98.96 643.47,-85.48"/>
<polygon fill="#63b8ff" stroke="#63b8ff" points="646.89,-84.66 640.27,-76.39 640.29,-86.99 646.89,-84.66"/>
</a>
</g>
</g>
<!-- Node8 -->
<g id="Node000008" class="node">
<title>Node8</title>
<g id="a_Node000008"><a xlink:title=" ">
<polygon fill="#e0e0e0" stroke="#999999" points="588.25,-74.5 543,-74.5 543,-55.25 588.25,-55.25 588.25,-74.5"/>
<text text-anchor="middle" x="565.62" y="-61" font-family="Helvetica,sans-Serif" font-size="10.00">TFile.h</text>
</a>
</g>
</g>
<!-- Node6&#45;&gt;Node8 -->
<g id="edge7_Node000006_Node000008" class="edge">
<title>Node6&#45;&gt;Node8</title>
<g id="a_edge7_Node000006_Node000008"><a xlink:title=" ">
<path fill="none" stroke="#63b8ff" d="M537.06,-165.55C528.65,-153.1 516,-129.73 523.62,-110.5 527.95,-99.61 536.32,-89.82 544.47,-82.22"/>
<polygon fill="#63b8ff" stroke="#63b8ff" points="546.57,-85.03 551.86,-75.85 542,-79.72 546.57,-85.03"/>
</a>
</g>
</g>
<!-- Node9 -->
<g id="Node000009" class="node">
<title>Node9</title>
<g id="a_Node000009"><a xlink:href="_t_g_r_s_i_types_8h.html" target="_top" xlink:title=" ">
<polygon fill="white" stroke="#666666" points="438.5,-129.75 358.75,-129.75 358.75,-110.5 438.5,-110.5 438.5,-129.75"/>
<text text-anchor="middle" x="398.62" y="-116.25" font-family="Helvetica,sans-Serif" font-size="10.00">TGRSITypes.h</text>
</a>
</g>
</g>
<!-- Node6&#45;&gt;Node9 -->
<g id="edge8_Node000006_Node000009" class="edge">
<title>Node6&#45;&gt;Node9</title>
<g id="a_edge8_Node000006_Node000009"><a xlink:title=" ">
<path fill="none" stroke="#63b8ff" d="M519.03,-165.34C495.7,-156.77 460.39,-143.81 434.03,-134.13"/>
<polygon fill="#63b8ff" stroke="#63b8ff" points="435.36,-130.89 424.76,-130.72 432.94,-137.46 435.36,-130.89"/>
</a>
</g>
</g>
<!-- Node11 -->
<g id="Node000011" class="node">
<title>Node11</title>
<g id="a_Node000011"><a xlink:href="_t_analysis_options_8h.html" target="_top" xlink:title=" ">
<polygon fill="white" stroke="#666666" points="632.62,-129.75 532.62,-129.75 532.62,-110.5 632.62,-110.5 632.62,-129.75"/>
<text text-anchor="middle" x="582.62" y="-116.25" font-family="Helvetica,sans-Serif" font-size="10.00">TAnalysisOptions.h</text>
</a>
</g>
</g>
<!-- Node6&#45;&gt;Node11 -->
<g id="edge10_Node000006_Node000011" class="edge">
<title>Node6&#45;&gt;Node11</title>
<g id="a_edge10_Node000006_Node000011"><a xlink:title=" ">
<path fill="none" stroke="#63b8ff" d="M550.07,-165.58C555.28,-158.46 562.81,-148.18 569.32,-139.3"/>
<polygon fill="#63b8ff" stroke="#63b8ff" points="572.07,-141.47 575.15,-131.33 566.42,-137.33 572.07,-141.47"/>
</a>
</g>
</g>
<!-- Node12 -->
<g id="Node000012" class="node">
<title>Node12</title>
<g id="a_Node000012"><a xlink:href="_t_user_settings_8h.html" target="_top" xlink:title=" ">
<polygon fill="white" stroke="#666666" points="324.88,-129.75 238.38,-129.75 238.38,-110.5 324.88,-110.5 324.88,-129.75"/>
<text text-anchor="middle" x="281.62" y="-116.25" font-family="Helvetica,sans-Serif" font-size="10.00">TUserSettings.h</text>
</a>
</g>
</g>
<!-- Node6&#45;&gt;Node12 -->
<g id="edge13_Node000006_Node000012" class="edge">
<title>Node6&#45;&gt;Node12</title>
<g id="a_edge13_Node000006_Node000012"><a xlink:title=" ">
<path fill="none" stroke="#63b8ff" d="M499.77,-165.46C454.86,-156.33 384.95,-142.12 336.42,-132.26"/>
<polygon fill="#63b8ff" stroke="#63b8ff" points="337.16,-128.84 326.67,-130.28 335.77,-135.7 337.16,-128.84"/>
</a>
</g>
</g>
<!-- Node10 -->
<g id="Node000010" class="node">
<title>Node10</title>
<g id="a_Node000010"><a xlink:title=" ">
<polygon fill="#e0e0e0" stroke="#999999" points="434.25,-74.5 389,-74.5 389,-55.25 434.25,-55.25 434.25,-74.5"/>
<text text-anchor="middle" x="411.62" y="-61" font-family="Helvetica,sans-Serif" font-size="10.00">cstdint</text>
</a>
</g>
</g>
<!-- Node9&#45;&gt;Node10 -->
<g id="edge9_Node000009_Node000010" class="edge">
<title>Node9&#45;&gt;Node10</title>
<g id="a_edge9_Node000009_Node000010"><a xlink:title=" ">
<path fill="none" stroke="#63b8ff" d="M400.77,-110.33C402.4,-103.67 404.7,-94.24 406.77,-85.78"/>
<polygon fill="#63b8ff" stroke="#63b8ff" points="410.1,-86.87 409.07,-76.33 403.3,-85.21 410.1,-86.87"/>
</a>
</g>
</g>
<!-- Node11&#45;&gt;Node7 -->
<g id="edge11_Node000011_Node000007" class="edge">
<title>Node11&#45;&gt;Node7</title>
<g id="a_edge11_Node000011_Node000007"><a xlink:title=" ">
<path fill="none" stroke="#63b8ff" d="M591.38,-110.33C598.77,-102.9 609.59,-92.04 618.67,-82.91"/>
<polygon fill="#63b8ff" stroke="#63b8ff" points="621.04,-85.49 625.62,-75.93 616.08,-80.55 621.04,-85.49"/>
</a>
</g>
</g>
<!-- Node11&#45;&gt;Node8 -->
<g id="edge12_Node000011_Node000008" class="edge">
<title>Node11&#45;&gt;Node8</title>
<g id="a_edge12_Node000011_Node000008"><a xlink:title=" ">
<path fill="none" stroke="#63b8ff" d="M579.82,-110.33C577.69,-103.67 574.68,-94.24 571.98,-85.78"/>
<polygon fill="#63b8ff" stroke="#63b8ff" points="575.33,-84.76 568.95,-76.3 568.66,-86.89 575.33,-84.76"/>
</a>
</g>
</g>
<!-- Node12&#45;&gt;Node3 -->
<g id="edge14_Node000012_Node000003" class="edge">
<title>Node12&#45;&gt;Node3</title>
<g id="a_edge14_Node000012_Node000003"><a xlink:title=" ">
<path fill="none" stroke="#63b8ff" d="M257.03,-110.09C231.58,-100.74 191.87,-86.16 165.08,-76.32"/>
<polygon fill="#63b8ff" stroke="#63b8ff" points="166.48,-73.11 155.89,-72.95 164.07,-79.68 166.48,-73.11"/>
</a>
</g>
</g>
<!-- Node12&#45;&gt;Node4 -->
<g id="edge15_Node000012_Node000004" class="edge">
<title>Node12&#45;&gt;Node4</title>
<g id="a_edge15_Node000012_Node000004"><a xlink:title=" ">
<path fill="none" stroke="#63b8ff" d="M253.95,-110.11C236.33,-103.04 214.32,-91.5 200.62,-74.5 190.51,-61.95 185.78,-44.13 183.56,-30.51"/>
<polygon fill="#63b8ff" stroke="#63b8ff" points="187.08,-30.42 182.35,-20.94 180.14,-31.3 187.08,-30.42"/>
</a>
</g>
</g>
<!-- Node13 -->
<g id="Node000013" class="node">
<title>Node13</title>
<g id="a_Node000013"><a xlink:title=" ">
<polygon fill="#e0e0e0" stroke="#999999" points="253.12,-74.5 210.12,-74.5 210.12,-55.25 253.12,-55.25 253.12,-74.5"/>
<text text-anchor="middle" x="231.62" y="-61" font-family="Helvetica,sans-Serif" font-size="10.00">vector</text>
</a>
</g>
</g>
<!-- Node12&#45;&gt;Node13 -->
<g id="edge16_Node000012_Node000013" class="edge">
<title>Node12&#45;&gt;Node13</title>
<g id="a_edge16_Node000012_Node000013"><a xlink:title=" ">
<path fill="none" stroke="#63b8ff" d="M273.37,-110.33C266.46,-102.98 256.4,-92.26 247.89,-83.19"/>
<polygon fill="#63b8ff" stroke="#63b8ff" points="250.49,-80.86 241.1,-75.96 245.39,-85.65 250.49,-80.86"/>
</a>
</g>
</g>
<!-- Node14 -->
<g id="Node000014" class="node">
<title>Node14</title>
<g id="a_Node000014"><a xlink:title=" ">
<polygon fill="#e0e0e0" stroke="#999999" points="414.62,-19.25 356.62,-19.25 356.62,0 414.62,0 414.62,-19.25"/>
<text text-anchor="middle" x="385.62" y="-5.75" font-family="Helvetica,sans-Serif" font-size="10.00">stdexcept</text>
</a>
</g>
</g>
<!-- Node12&#45;&gt;Node14 -->
<g id="edge17_Node000012_Node000014" class="edge">
<title>Node12&#45;&gt;Node14</title>
<g id="a_edge17_Node000012_Node000014"><a xlink:title=" ">
<path fill="none" stroke="#63b8ff" d="M282.12,-110.28C283.29,-96.94 287.25,-71.51 300.62,-55.25 312.35,-40.99 329.84,-30.72 345.91,-23.65"/>
<polygon fill="#63b8ff" stroke="#63b8ff" points="346.85,-27.05 354.78,-20.03 344.2,-20.57 346.85,-27.05"/>
</a>
</g>
</g>
<!-- Node15 -->
<g id="Node000015" class="node">
<title>Node15</title>
<g id="a_Node000015"><a xlink:title=" ">
<polygon fill="#e0e0e0" stroke="#999999" points="371.12,-74.5 310.12,-74.5 310.12,-55.25 371.12,-55.25 371.12,-74.5"/>
<text text-anchor="middle" x="340.62" y="-61" font-family="Helvetica,sans-Serif" font-size="10.00">TNamed.h</text>
</a>
</g>
</g>
<!-- Node12&#45;&gt;Node15 -->
<g id="edge18_Node000012_Node000015" class="edge">
<title>Node12&#45;&gt;Node15</title>
<g id="a_edge18_Node000012_Node000015"><a xlink:title=" ">
<path fill="none" stroke="#63b8ff" d="M291.63,-110.09C299.99,-102.55 312.12,-91.6 322.23,-82.48"/>
<polygon fill="#63b8ff" stroke="#63b8ff" points="324.56,-85.09 329.64,-75.79 319.87,-79.89 324.56,-85.09"/>
</a>
</g>
</g>
<!-- Node16 -->
<g id="Node000016" class="node">
<title>Node16</title>
<g id="a_Node000016"><a xlink:title=" ">
<polygon fill="#e0e0e0" stroke="#999999" points="524.75,-74.5 452.5,-74.5 452.5,-55.25 524.75,-55.25 524.75,-74.5"/>
<text text-anchor="middle" x="488.62" y="-61" font-family="Helvetica,sans-Serif" font-size="10.00">TCollection.h</text>
</a>
</g>
</g>
<!-- Node12&#45;&gt;Node16 -->
<g id="edge19_Node000012_Node000016" class="edge">
<title>Node12&#45;&gt;Node16</title>
<g id="a_edge19_Node000012_Node000016"><a xlink:title=" ">
<path fill="none" stroke="#63b8ff" d="M316.74,-110.09C351.38,-101.18 404.53,-87.51 442.55,-77.73"/>
<polygon fill="#63b8ff" stroke="#63b8ff" points="443.06,-81.21 451.87,-75.33 441.32,-74.43 443.06,-81.21"/>
</a>
</g>
</g>
<!-- Node17&#45;&gt;Node3 -->
<g id="edge21_Node000017_Node000003" class="edge">
<title>Node17&#45;&gt;Node3</title>
<g id="a_edge21_Node000017_Node000003"><a xlink:title=" ">
<path fill="none" stroke="#63b8ff" d="M729.21,-172.98C630.68,-167.47 277,-146.69 229.62,-129.75 200.41,-119.31 171.75,-97.33 154.13,-82.1"/>
<polygon fill="#63b8ff" stroke="#63b8ff" points="156.91,-79.89 147.12,-75.85 152.26,-85.11 156.91,-79.89"/>
</a>
</g>
</g>
<!-- Node17&#45;&gt;Node7 -->
<g id="edge24_Node000017_Node000007" class="edge">
<title>Node17&#45;&gt;Node7</title>
<g id="a_edge24_Node000017_Node000007"><a xlink:title=" ">
<path fill="none" stroke="#63b8ff" d="M754.26,-165.42C753.26,-151.94 749.51,-126.33 735.62,-110.5 726.83,-100.48 697.66,-88.04 673.08,-78.85"/>
<polygon fill="#63b8ff" stroke="#63b8ff" points="674.56,-75.66 663.97,-75.52 672.16,-82.24 674.56,-75.66"/>
</a>
</g>
</g>
<!-- Node17&#45;&gt;Node16 -->
<g id="edge25_Node000017_Node000016" class="edge">
<title>Node17&#45;&gt;Node16</title>
<g id="a_edge25_Node000017_Node000016"><a xlink:title=" ">
<path fill="none" stroke="#63b8ff" d="M729.06,-172.17C676.01,-167.17 556.21,-153.52 523.62,-129.75 508.94,-119.04 499.71,-100.22 494.44,-85.77"/>
<polygon fill="#63b8ff" stroke="#63b8ff" points="497.81,-84.8 491.38,-76.38 491.15,-86.97 497.81,-84.8"/>
</a>
</g>
</g>
<!-- Node18 -->
<g id="Node000018" class="node">
<title>Node18</title>
<g id="a_Node000018"><a xlink:title=" ">
<polygon fill="#e0e0e0" stroke="#999999" points="726.88,-129.75 688.38,-129.75 688.38,-110.5 726.88,-110.5 726.88,-129.75"/>
<text text-anchor="middle" x="707.62" y="-116.25" font-family="Helvetica,sans-Serif" font-size="10.00">utility</text>
</a>
</g>
</g>
<!-- Node17&#45;&gt;Node18 -->
<g id="edge22_Node000017_Node000018" class="edge">
<title>Node17&#45;&gt;Node18</title>
<g id="a_edge22_Node000017_Node000018"><a xlink:title=" ">
<path fill="none" stroke="#63b8ff" d="M746.86,-165.58C740.44,-158.3 731.11,-147.73 723.16,-138.73"/>
<polygon fill="#63b8ff" stroke="#63b8ff" points="725.8,-136.43 716.56,-131.24 720.55,-141.06 725.8,-136.43"/>
</a>
</g>
</g>
<!-- Node19 -->
<g id="Node000019" class="node">
<title>Node19</title>
<g id="a_Node000019"><a xlink:title=" ">
<polygon fill="#e0e0e0" stroke="#999999" points="591.38,-19.25 537.88,-19.25 537.88,0 591.38,0 591.38,-19.25"/>
<text text-anchor="middle" x="564.62" y="-5.75" font-family="Helvetica,sans-Serif" font-size="10.00">iostream</text>
</a>
</g>
</g>
<!-- Node17&#45;&gt;Node19 -->
<g id="edge23_Node000017_Node000019" class="edge">
<title>Node17&#45;&gt;Node19</title>
<g id="a_edge23_Node000017_Node000019"><a xlink:title=" ">
<path fill="none" stroke="#63b8ff" d="M780,-171.72C805.5,-167.55 843.54,-156.88 861.62,-129.75 876.14,-107.96 854.17,-66.16 840.62,-55.25 801.01,-23.33 669.67,-28.76 602.98,-19.26"/>
<polygon fill="#63b8ff" stroke="#63b8ff" points="603.63,-15.82 593.19,-17.62 602.48,-22.72 603.63,-15.82"/>
</a>
</g>
</g>
<!-- Node20 -->
<g id="Node000020" class="node">
<title>Node20</title>
<g id="a_Node000020"><a xlink:href="_globals_8h.html" target="_top" xlink:title=" ">
<polygon fill="white" stroke="#666666" points="964.88,-74.5 908.38,-74.5 908.38,-55.25 964.88,-55.25 964.88,-74.5"/>
<text text-anchor="middle" x="936.62" y="-61" font-family="Helvetica,sans-Serif" font-size="10.00">Globals.h</text>
</a>
</g>
</g>
<!-- Node17&#45;&gt;Node20 -->
<g id="edge26_Node000017_Node000020" class="edge">
<title>Node17&#45;&gt;Node20</title>
<g id="a_edge26_Node000017_Node000020"><a xlink:title=" ">
<path fill="none" stroke="#63b8ff" d="M780.24,-171.44C810.26,-166.9 860.27,-155.8 894.62,-129.75 909.98,-118.11 921.43,-99.12 928.46,-84.87"/>
<polygon fill="#63b8ff" stroke="#63b8ff" points="931.51,-86.61 932.51,-76.06 925.15,-83.69 931.51,-86.61"/>
</a>
</g>
</g>
<!-- Node32 -->
<g id="Node000032" class="node">
<title>Node32</title>
<g id="a_Node000032"><a xlink:href="_t_singleton_8h.html" target="_top" xlink:title=" ">
<polygon fill="white" stroke="#666666" points="852.62,-129.75 782.62,-129.75 782.62,-110.5 852.62,-110.5 852.62,-129.75"/>
<text text-anchor="middle" x="817.62" y="-116.25" font-family="Helvetica,sans-Serif" font-size="10.00">TSingleton.h</text>
</a>
</g>
</g>
<!-- Node17&#45;&gt;Node32 -->
<g id="edge41_Node000017_Node000032" class="edge">
<title>Node17&#45;&gt;Node32</title>
<g id="a_edge41_Node000017_Node000032"><a xlink:title=" ">
<path fill="none" stroke="#63b8ff" d="M765.31,-165.34C774.33,-157.72 787.46,-146.62 798.31,-137.45"/>
<polygon fill="#63b8ff" stroke="#63b8ff" points="800.56,-140.13 805.94,-131 796.04,-134.78 800.56,-140.13"/>
</a>
</g>
</g>
<!-- Node20&#45;&gt;Node4 -->
<g id="edge30_Node000020_Node000004" class="edge">
<title>Node20&#45;&gt;Node4</title>
<g id="a_edge30_Node000020_Node000004"><a xlink:title=" ">
<path fill="none" stroke="#63b8ff" d="M908.3,-61.66C885.45,-59.89 852.47,-57.35 823.62,-55.25 589.28,-38.16 306.69,-19.03 213.28,-12.75"/>
<polygon fill="#63b8ff" stroke="#63b8ff" points="213.59,-9.26 203.38,-12.08 213.12,-16.25 213.59,-9.26"/>
</a>
</g>
</g>
<!-- Node20&#45;&gt;Node14 -->
<g id="edge29_Node000020_Node000014" class="edge">
<title>Node20&#45;&gt;Node14</title>
<g id="a_edge29_Node000020_Node000014"><a xlink:title=" ">
<path fill="none" stroke="#63b8ff" d="M908.16,-61.12C817.04,-52.32 532.28,-24.8 426.09,-14.54"/>
<polygon fill="#63b8ff" stroke="#63b8ff" points="426.71,-11.08 416.42,-13.6 426.04,-18.05 426.71,-11.08"/>
</a>
</g>
</g>
<!-- Node20&#45;&gt;Node19 -->
<g id="edge27_Node000020_Node000019" class="edge">
<title>Node20&#45;&gt;Node19</title>
<g id="a_edge27_Node000020_Node000019"><a xlink:title=" ">
<path fill="none" stroke="#63b8ff" d="M908.22,-57.72C903.68,-56.83 899.03,-55.97 894.62,-55.25 768.26,-34.57 732.14,-42.17 602.81,-19.45"/>
<polygon fill="#63b8ff" stroke="#63b8ff" points="603.63,-16.04 593.17,-17.72 602.4,-22.93 603.63,-16.04"/>
</a>
</g>
</g>
<!-- Node21 -->
<g id="Node000021" class="node">
<title>Node21</title>
<g id="a_Node000021"><a xlink:title=" ">
<polygon fill="#e0e0e0" stroke="#999999" points="815.5,-19.25 765.75,-19.25 765.75,0 815.5,0 815.5,-19.25"/>
<text text-anchor="middle" x="790.62" y="-5.75" font-family="Helvetica,sans-Serif" font-size="10.00">iomanip</text>
</a>
</g>
</g>
<!-- Node20&#45;&gt;Node21 -->
<g id="edge28_Node000020_Node000021" class="edge">
<title>Node20&#45;&gt;Node21</title>
<g id="a_edge28_Node000020_Node000021"><a xlink:title=" ">
<path fill="none" stroke="#63b8ff" d="M911.86,-54.84C888.37,-46.27 852.81,-33.31 826.27,-23.63"/>
<polygon fill="#63b8ff" stroke="#63b8ff" points="827.53,-20.36 816.94,-20.22 825.13,-26.94 827.53,-20.36"/>
</a>
</g>
</g>
<!-- Node22 -->
<g id="Node000022" class="node">
<title>Node22</title>
<g id="a_Node000022"><a xlink:title=" ">
<polygon fill="#e0e0e0" stroke="#999999" points="1282.75,-19.25 1240.5,-19.25 1240.5,0 1282.75,0 1282.75,-19.25"/>
<text text-anchor="middle" x="1261.62" y="-5.75" font-family="Helvetica,sans-Serif" font-size="10.00">cstdio</text>
</a>
</g>
</g>
<!-- Node20&#45;&gt;Node22 -->
<g id="edge31_Node000020_Node000022" class="edge">
<title>Node20&#45;&gt;Node22</title>
<g id="a_edge31_Node000020_Node000022"><a xlink:title=" ">
<path fill="none" stroke="#63b8ff" d="M965.25,-56.93C968.08,-56.33 970.9,-55.76 973.62,-55.25 1083.89,-34.75 1116.36,-42.76 1228.94,-19.56"/>
<polygon fill="#63b8ff" stroke="#63b8ff" points="1229.54,-23.01 1238.61,-17.52 1228.1,-16.16 1229.54,-23.01"/>
</a>
</g>
</g>
<!-- Node23 -->
<g id="Node000023" class="node">
<title>Node23</title>
<g id="a_Node000023"><a xlink:title=" ">
<polygon fill="#e0e0e0" stroke="#999999" points="1344.88,-19.25 1300.38,-19.25 1300.38,0 1344.88,0 1344.88,-19.25"/>
<text text-anchor="middle" x="1322.62" y="-5.75" font-family="Helvetica,sans-Serif" font-size="10.00">cstdlib</text>
</a>
</g>
</g>
<!-- Node20&#45;&gt;Node23 -->
<g id="edge32_Node000020_Node000023" class="edge">
<title>Node20&#45;&gt;Node23</title>
<g id="a_edge32_Node000020_Node000023"><a xlink:title=" ">
<path fill="none" stroke="#63b8ff" d="M965.24,-56.86C968.07,-56.27 970.9,-55.72 973.62,-55.25 1110.23,-31.68 1150,-45.64 1288.97,-19.48"/>
<polygon fill="#63b8ff" stroke="#63b8ff" points="1289.39,-22.97 1298.55,-17.64 1288.07,-16.09 1289.39,-22.97"/>
</a>
</g>
</g>
<!-- Node24 -->
<g id="Node000024" class="node">
<title>Node24</title>
<g id="a_Node000024"><a xlink:title=" ">
<polygon fill="#e0e0e0" stroke="#999999" points="893.38,-19.25 833.88,-19.25 833.88,0 893.38,0 893.38,-19.25"/>
<text text-anchor="middle" x="863.62" y="-5.75" font-family="Helvetica,sans-Serif" font-size="10.00">execinfo.h</text>
</a>
</g>
</g>
<!-- Node20&#45;&gt;Node24 -->
<g id="edge33_Node000020_Node000024" class="edge">
<title>Node20&#45;&gt;Node24</title>
<g id="a_edge33_Node000020_Node000024"><a xlink:title=" ">
<path fill="none" stroke="#63b8ff" d="M924.24,-54.84C913.48,-46.99 897.65,-35.45 884.87,-26.12"/>
<polygon fill="#63b8ff" stroke="#63b8ff" points="887.19,-23.48 877.05,-20.42 883.06,-29.14 887.19,-23.48"/>
</a>
</g>
</g>
<!-- Node25 -->
<g id="Node000025" class="node">
<title>Node25</title>
<g id="a_Node000025"><a xlink:title=" ">
<polygon fill="#e0e0e0" stroke="#999999" points="961.88,-19.25 911.38,-19.25 911.38,0 961.88,0 961.88,-19.25"/>
<text text-anchor="middle" x="936.62" y="-5.75" font-family="Helvetica,sans-Serif" font-size="10.00">cxxabi.h</text>
</a>
</g>
</g>
<!-- Node20&#45;&gt;Node25 -->
<g id="edge34_Node000020_Node000025" class="edge">
<title>Node20&#45;&gt;Node25</title>
<g id="a_edge34_Node000020_Node000025"><a xlink:title=" ">
<path fill="none" stroke="#63b8ff" d="M936.62,-55.08C936.62,-48.57 936.62,-39.42 936.62,-31.12"/>
<polygon fill="#63b8ff" stroke="#63b8ff" points="940.13,-31.12 936.63,-21.12 933.13,-31.12 940.13,-31.12"/>
</a>
</g>
</g>
<!-- Node26 -->
<g id="Node000026" class="node">
<title>Node26</title>
<g id="a_Node000026"><a xlink:title=" ">
<polygon fill="#e0e0e0" stroke="#999999" points="1031.25,-19.25 980,-19.25 980,0 1031.25,0 1031.25,-19.25"/>
<text text-anchor="middle" x="1005.62" y="-5.75" font-family="Helvetica,sans-Serif" font-size="10.00">sstream</text>
</a>
</g>
</g>
<!-- Node20&#45;&gt;Node26 -->
<g id="edge35_Node000020_Node000026" class="edge">
<title>Node20&#45;&gt;Node26</title>
<g id="a_edge35_Node000020_Node000026"><a xlink:title=" ">
<path fill="none" stroke="#63b8ff" d="M948.33,-54.84C958.4,-47.07 973.17,-35.67 985.19,-26.4"/>
<polygon fill="#63b8ff" stroke="#63b8ff" points="987.12,-29.33 992.89,-20.45 982.84,-23.79 987.12,-29.33"/>
</a>
</g>
</g>
<!-- Node27 -->
<g id="Node000027" class="node">
<title>Node27</title>
<g id="a_Node000027"><a xlink:title=" ">
<polygon fill="#e0e0e0" stroke="#999999" points="1086.12,-19.25 1049.12,-19.25 1049.12,0 1086.12,0 1086.12,-19.25"/>
<text text-anchor="middle" x="1067.62" y="-5.75" font-family="Helvetica,sans-Serif" font-size="10.00">array</text>
</a>
</g>
</g>
<!-- Node20&#45;&gt;Node27 -->
<g id="edge36_Node000020_Node000027" class="edge">
<title>Node20&#45;&gt;Node27</title>
<g id="a_edge36_Node000020_Node000027"><a xlink:title=" ">
<path fill="none" stroke="#63b8ff" d="M958.85,-54.84C980.65,-45.98 1014.04,-32.41 1038.07,-22.64"/>
<polygon fill="#63b8ff" stroke="#63b8ff" points="1039.35,-25.9 1047.3,-18.89 1036.72,-19.41 1039.35,-25.9"/>
</a>
</g>
</g>
<!-- Node28 -->
<g id="Node000028" class="node">
<title>Node28</title>
<g id="a_Node000028"><a xlink:title=" ">
<polygon fill="#e0e0e0" stroke="#999999" points="1154.88,-19.25 1104.38,-19.25 1104.38,0 1154.88,0 1154.88,-19.25"/>
<text text-anchor="middle" x="1129.62" y="-5.75" font-family="Helvetica,sans-Serif" font-size="10.00">memory</text>
</a>
</g>
</g>
<!-- Node20&#45;&gt;Node28 -->
<g id="edge37_Node000020_Node000028" class="edge">
<title>Node20&#45;&gt;Node28</title>
<g id="a_edge37_Node000020_Node000028"><a xlink:title=" ">
<path fill="none" stroke="#63b8ff" d="M965.1,-56.02C999.12,-46.63 1056.09,-30.91 1093.26,-20.66"/>
<polygon fill="#63b8ff" stroke="#63b8ff" points="1093.95,-24.1 1102.66,-18.07 1092.08,-17.35 1093.95,-24.1"/>
</a>
</g>
</g>
<!-- Node29 -->
<g id="Node000029" class="node">
<title>Node29</title>
<g id="a_Node000029"><a xlink:title=" ">
<polygon fill="#e0e0e0" stroke="#999999" points="1222.5,-19.25 1172.75,-19.25 1172.75,0 1222.5,0 1222.5,-19.25"/>
<text text-anchor="middle" x="1197.62" y="-5.75" font-family="Helvetica,sans-Serif" font-size="10.00">unistd.h</text>
</a>
</g>
</g>
<!-- Node20&#45;&gt;Node29 -->
<g id="edge38_Node000020_Node000029" class="edge">
<title>Node20&#45;&gt;Node29</title>
<g id="a_edge38_Node000020_Node000029"><a xlink:title=" ">
<path fill="none" stroke="#63b8ff" d="M965.28,-57.07C968.1,-56.44 970.91,-55.82 973.62,-55.25 1054.27,-38.22 1077.8,-37.83 1161.36,-19.64"/>
<polygon fill="#63b8ff" stroke="#63b8ff" points="1161.92,-23.1 1170.94,-17.53 1160.42,-16.26 1161.92,-23.1"/>
</a>
</g>
</g>
<!-- Node30 -->
<g id="Node000030" class="node">
<title>Node30</title>
<g id="a_Node000030"><a xlink:title=" ">
<polygon fill="#e0e0e0" stroke="#999999" points="669.38,-19.25 609.88,-19.25 609.88,0 669.38,0 669.38,-19.25"/>
<text text-anchor="middle" x="639.62" y="-5.75" font-family="Helvetica,sans-Serif" font-size="10.00">sys/wait.h</text>
</a>
</g>
</g>
<!-- Node20&#45;&gt;Node30 -->
<g id="edge39_Node000020_Node000030" class="edge">
<title>Node20&#45;&gt;Node30</title>
<g id="a_edge39_Node000020_Node000030"><a xlink:title=" ">
<path fill="none" stroke="#63b8ff" d="M908.19,-57.89C903.66,-56.97 899.02,-56.07 894.62,-55.25 802.49,-38.12 776.11,-37.77 681.12,-19.64"/>
<polygon fill="#63b8ff" stroke="#63b8ff" points="681.79,-16.21 671.31,-17.75 680.47,-23.08 681.79,-16.21"/>
</a>
</g>
</g>
<!-- Node31 -->
<g id="Node000031" class="node">
<title>Node31</title>
<g id="a_Node000031"><a xlink:title=" ">
<polygon fill="#e0e0e0" stroke="#999999" points="747.75,-19.25 687.5,-19.25 687.5,0 747.75,0 747.75,-19.25"/>
<text text-anchor="middle" x="717.62" y="-5.75" font-family="Helvetica,sans-Serif" font-size="10.00">sys/prctl.h</text>
</a>
</g>
</g>
<!-- Node20&#45;&gt;Node31 -->
<g id="edge40_Node000020_Node000031" class="edge">
<title>Node20&#45;&gt;Node31</title>
<g id="a_edge40_Node000020_Node000031"><a xlink:title=" ">
<path fill="none" stroke="#63b8ff" d="M907.99,-56.91C870,-47.67 802.65,-31.3 759.09,-20.71"/>
<polygon fill="#63b8ff" stroke="#63b8ff" points="760.04,-17.34 749.49,-18.37 758.38,-24.14 760.04,-17.34"/>
</a>
</g>
</g>
<!-- Node32&#45;&gt;Node5 -->
<g id="edge46_Node000032_Node000005" class="edge">
<title>Node32&#45;&gt;Node5</title>
<g id="a_edge46_Node000032_Node000005"><a xlink:title=" ">
<path fill="none" stroke="#63b8ff" d="M849.52,-110.09C883.31,-100.52 936.47,-85.46 971.2,-75.63"/>
<polygon fill="#63b8ff" stroke="#63b8ff" points="972.09,-79.01 980.75,-72.92 970.18,-72.28 972.09,-79.01"/>
</a>
</g>
</g>
<!-- Node32&#45;&gt;Node7 -->
<g id="edge43_Node000032_Node000007" class="edge">
<title>Node32&#45;&gt;Node7</title>
<g id="a_edge43_Node000032_Node000007"><a xlink:title=" ">
<path fill="none" stroke="#63b8ff" d="M786.75,-110.09C756.14,-101.13 709.09,-87.37 675.62,-77.58"/>
<polygon fill="#63b8ff" stroke="#63b8ff" points="676.87,-74.3 666.29,-74.85 674.91,-81.02 676.87,-74.3"/>
</a>
</g>
</g>
<!-- Node32&#45;&gt;Node8 -->
<g id="edge45_Node000032_Node000008" class="edge">
<title>Node32&#45;&gt;Node8</title>
<g id="a_edge45_Node000032_Node000008"><a xlink:title=" ">
<path fill="none" stroke="#63b8ff" d="M782.42,-112.69C740.98,-104.97 669.87,-91.23 599.48,-74.82"/>
<polygon fill="#63b8ff" stroke="#63b8ff" points="600.66,-71.5 590.13,-72.61 599.06,-78.31 600.66,-71.5"/>
</a>
</g>
</g>
<!-- Node32&#45;&gt;Node19 -->
<g id="edge42_Node000032_Node000019" class="edge">
<title>Node32&#45;&gt;Node19</title>
<g id="a_edge42_Node000032_Node000019"><a xlink:title=" ">
<path fill="none" stroke="#63b8ff" d="M822.13,-110.07C828.19,-96.46 836.77,-70.68 823.62,-55.25 792.99,-19.27 666.02,-27.86 602.74,-19.18"/>
<polygon fill="#63b8ff" stroke="#63b8ff" points="603.64,-15.78 593.2,-17.59 602.49,-22.69 603.64,-15.78"/>
</a>
</g>
</g>
<!-- Node32&#45;&gt;Node20 -->
<g id="edge48_Node000032_Node000020" class="edge">
<title>Node32&#45;&gt;Node20</title>
<g id="a_edge48_Node000032_Node000020"><a xlink:title=" ">
<path fill="none" stroke="#63b8ff" d="M837.81,-110.09C856.53,-101.72 884.65,-89.13 906.11,-79.53"/>
<polygon fill="#63b8ff" stroke="#63b8ff" points="907.26,-82.85 914.96,-75.57 904.4,-76.46 907.26,-82.85"/>
</a>
</g>
</g>
<!-- Node33 -->
<g id="Node000033" class="node">
<title>Node33</title>
<g id="a_Node000033"><a xlink:title=" ">
<polygon fill="#e0e0e0" stroke="#999999" points="814.5,-74.5 746.75,-74.5 746.75,-55.25 814.5,-55.25 814.5,-74.5"/>
<text text-anchor="middle" x="780.62" y="-61" font-family="Helvetica,sans-Serif" font-size="10.00">TDirectory.h</text>
</a>
</g>
</g>
<!-- Node32&#45;&gt;Node33 -->
<g id="edge44_Node000032_Node000033" class="edge">
<title>Node32&#45;&gt;Node33</title>
<g id="a_edge44_Node000032_Node000033"><a xlink:title=" ">
<path fill="none" stroke="#63b8ff" d="M811.52,-110.33C806.56,-103.21 799.42,-92.93 793.25,-84.05"/>
<polygon fill="#63b8ff" stroke="#63b8ff" points="796.31,-82.32 787.73,-76.1 790.56,-86.31 796.31,-82.32"/>
</a>
</g>
</g>
<!-- Node34 -->
<g id="Node000034" class="node">
<title>Node34</title>
<g id="a_Node000034"><a xlink:title=" ">
<polygon fill="#e0e0e0" stroke="#999999" points="728.62,-74.5 682.62,-74.5 682.62,-55.25 728.62,-55.25 728.62,-74.5"/>
<text text-anchor="middle" x="705.62" y="-61" font-family="Helvetica,sans-Serif" font-size="10.00">TKey.h</text>
</a>
</g>
</g>
<!-- Node32&#45;&gt;Node34 -->
<g id="edge47_Node000032_Node000034" class="edge">
<title>Node32&#45;&gt;Node34</title>
<g id="a_edge47_Node000032_Node000034"><a xlink:title=" ">
<path fill="none" stroke="#63b8ff" d="M798.63,-110.09C781.17,-101.79 755.03,-89.36 734.9,-79.79"/>
<polygon fill="#63b8ff" stroke="#63b8ff" points="736.62,-76.74 726.08,-75.6 733.61,-83.06 736.62,-76.74"/>
</a>
</g>
</g>
<!-- Node35&#45;&gt;Node22 -->
<g id="edge50_Node000035_Node000022" class="edge">
<title>Node35&#45;&gt;Node22</title>
<g id="a_edge50_Node000035_Node000022"><a xlink:title=" ">
<path fill="none" stroke="#63b8ff" d="M1261.62,-55.08C1261.62,-48.57 1261.62,-39.42 1261.62,-31.12"/>
<polygon fill="#63b8ff" stroke="#63b8ff" points="1265.13,-31.12 1261.63,-21.12 1258.13,-31.12 1265.13,-31.12"/>
</a>
</g>
</g>
<!-- Node35&#45;&gt;Node23 -->
<g id="edge51_Node000035_Node000023" class="edge">
<title>Node35&#45;&gt;Node23</title>
<g id="a_edge51_Node000035_Node000023"><a xlink:title=" ">
<path fill="none" stroke="#63b8ff" d="M1271.97,-54.84C1280.7,-47.22 1293.41,-36.12 1303.92,-26.95"/>
<polygon fill="#63b8ff" stroke="#63b8ff" points="1306.06,-29.73 1311.29,-20.52 1301.45,-24.46 1306.06,-29.73"/>
</a>
</g>
</g>
<!-- Node35&#45;&gt;Node29 -->
<g id="edge53_Node000035_Node000029" class="edge">
<title>Node35&#45;&gt;Node29</title>
<g id="a_edge53_Node000035_Node000029"><a xlink:title=" ">
<path fill="none" stroke="#63b8ff" d="M1250.77,-54.84C1241.52,-47.15 1228,-35.9 1216.92,-26.68"/>
<polygon fill="#63b8ff" stroke="#63b8ff" points="1219.41,-24.2 1209.48,-20.49 1214.93,-29.58 1219.41,-24.2"/>
</a>
</g>
</g>
<!-- Node36 -->
<g id="Node000036" class="node">
<title>Node36</title>
<g id="a_Node000036"><a xlink:title=" ">
<polygon fill="#e0e0e0" stroke="#999999" points="1404.75,-19.25 1362.5,-19.25 1362.5,0 1404.75,0 1404.75,-19.25"/>
<text text-anchor="middle" x="1383.62" y="-5.75" font-family="Helvetica,sans-Serif" font-size="10.00">fcntl.h</text>
</a>
</g>
</g>
<!-- Node35&#45;&gt;Node36 -->
<g id="edge52_Node000035_Node000036" class="edge">
<title>Node35&#45;&gt;Node36</title>
<g id="a_edge52_Node000035_Node000036"><a xlink:title=" ">
<path fill="none" stroke="#63b8ff" d="M1282.32,-54.84C1301.51,-46.47 1330.34,-33.88 1352.34,-24.28"/>
<polygon fill="#63b8ff" stroke="#63b8ff" points="1353.68,-27.52 1361.44,-20.31 1350.88,-21.1 1353.68,-27.52"/>
</a>
</g>
</g>
</g>
</svg>
