<?xml version="1.0" encoding="UTF-8" standalone="no"?>
<!DOCTYPE svg PUBLIC "-//W3C//DTD SVG 1.1//EN"
 "http://www.w3.org/Graphics/SVG/1.1/DTD/svg11.dtd">
<!-- Generated by graphviz version 12.2.0 (20241103.1931)
 -->
<!-- Title: TGRSIMnemonic.h Pages: 1 -->
<svg width="1736pt" height="248pt"
 viewBox="0.00 0.00 1735.79 248.25" xmlns="http://www.w3.org/2000/svg" xmlns:xlink="http://www.w3.org/1999/xlink">
<g id="graph0" class="graph" transform="scale(1 1) rotate(0) translate(4 244.25)">
<title>TGRSIMnemonic.h</title>
<!-- Node1 -->
<g id="Node000001" class="node">
<title>Node1</title>
<g id="a_Node000001"><a xlink:title=" ">
<polygon fill="#999999" stroke="#666666" points="1020.42,-240.25 921.92,-240.25 921.92,-221 1020.42,-221 1020.42,-240.25"/>
<text text-anchor="middle" x="971.17" y="-226.75" font-family="Helvetica,sans-Serif" font-size="10.00">TGRSIMnemonic.h</text>
</a>
</g>
</g>
<!-- Node2 -->
<g id="Node000002" class="node">
<title>Node2</title>
<g id="a_Node000002"><a xlink:title=" ">
<polygon fill="#e0e0e0" stroke="#999999" points="1056.17,-19.25 1016.17,-19.25 1016.17,0 1056.17,0 1056.17,-19.25"/>
<text text-anchor="middle" x="1036.17" y="-5.75" font-family="Helvetica,sans-Serif" font-size="10.00">string</text>
</a>
</g>
</g>
<!-- Node1&#45;&gt;Node2 -->
<g id="edge1_Node000001_Node000002" class="edge">
<title>Node1&#45;&gt;Node2</title>
<g id="a_edge1_Node000001_Node000002"><a xlink:title=" ">
<path fill="none" stroke="#63b8ff" d="M921.43,-228.47C707.69,-222.67 -116.12,-191.35 14.17,-55.25 49.25,-18.6 836.14,-11.82 1004.6,-10.79"/>
<polygon fill="#63b8ff" stroke="#63b8ff" points="1004.57,-14.29 1014.55,-10.73 1004.53,-7.29 1004.57,-14.29"/>
</a>
</g>
</g>
<!-- Node3 -->
<g id="Node000003" class="node">
<title>Node3</title>
<g id="a_Node000003"><a xlink:href="_t_mnemonic_8h.html" target="_top" xlink:title=" ">
<polygon fill="white" stroke="#666666" points="1130.42,-185 1055.92,-185 1055.92,-165.75 1130.42,-165.75 1130.42,-185"/>
<text text-anchor="middle" x="1093.17" y="-171.5" font-family="Helvetica,sans-Serif" font-size="10.00">TMnemonic.h</text>
</a>
</g>
</g>
<!-- Node1&#45;&gt;Node3 -->
<g id="edge2_Node000001_Node000003" class="edge">
<title>Node1&#45;&gt;Node3</title>
<g id="a_edge2_Node000001_Node000003"><a xlink:title=" ">
<path fill="none" stroke="#63b8ff" d="M991.86,-220.59C1011.05,-212.22 1039.88,-199.63 1061.88,-190.03"/>
<polygon fill="#63b8ff" stroke="#63b8ff" points="1063.22,-193.27 1070.98,-186.06 1060.42,-186.85 1063.22,-193.27"/>
</a>
</g>
</g>
<!-- Node7 -->
<g id="Node000007" class="node">
<title>Node7</title>
<g id="a_Node000007"><a xlink:title=" ">
<polygon fill="#e0e0e0" stroke="#999999" points="1382.29,-129.75 1328.04,-129.75 1328.04,-110.5 1382.29,-110.5 1382.29,-129.75"/>
<text text-anchor="middle" x="1355.17" y="-116.25" font-family="Helvetica,sans-Serif" font-size="10.00">TClass.h</text>
</a>
</g>
</g>
<!-- Node1&#45;&gt;Node7 -->
<g id="edge39_Node000001_Node000007" class="edge">
<title>Node1&#45;&gt;Node7</title>
<g id="a_edge39_Node000001_Node000007"><a xlink:title=" ">
<path fill="none" stroke="#63b8ff" d="M1006.64,-220.51C1040.7,-211.68 1093.55,-197.8 1139.17,-185 1201.55,-167.49 1273.67,-145.89 1316.78,-132.83"/>
<polygon fill="#63b8ff" stroke="#63b8ff" points="1317.62,-136.23 1326.17,-129.98 1315.58,-129.53 1317.62,-136.23"/>
</a>
</g>
</g>
<!-- Node8 -->
<g id="Node000008" class="node">
<title>Node8</title>
<g id="a_Node000008"><a xlink:href="_globals_8h.html" target="_top" xlink:title=" ">
<polygon fill="white" stroke="#666666" points="633.42,-129.75 576.92,-129.75 576.92,-110.5 633.42,-110.5 633.42,-129.75"/>
<text text-anchor="middle" x="605.17" y="-116.25" font-family="Helvetica,sans-Serif" font-size="10.00">Globals.h</text>
</a>
</g>
</g>
<!-- Node1&#45;&gt;Node8 -->
<g id="edge38_Node000001_Node000008" class="edge">
<title>Node1&#45;&gt;Node8</title>
<g id="a_edge38_Node000001_Node000008"><a xlink:title=" ">
<path fill="none" stroke="#63b8ff" d="M940.59,-220.56C874.41,-200.94 717.93,-154.55 644.5,-132.79"/>
<polygon fill="#63b8ff" stroke="#63b8ff" points="645.91,-129.55 635.32,-130.07 643.92,-136.26 645.91,-129.55"/>
</a>
</g>
</g>
<!-- Node3&#45;&gt;Node2 -->
<g id="edge3_Node000003_Node000002" class="edge">
<title>Node3&#45;&gt;Node2</title>
<g id="a_edge3_Node000003_Node000002"><a xlink:title=" ">
<path fill="none" stroke="#63b8ff" d="M1083,-165.55C1074.14,-157.24 1061.72,-143.98 1055.17,-129.75 1040.23,-97.34 1036.76,-55.31 1036.11,-30.81"/>
<polygon fill="#63b8ff" stroke="#63b8ff" points="1039.61,-30.94 1036,-20.98 1032.61,-31.02 1039.61,-30.94"/>
</a>
</g>
</g>
<!-- Node4 -->
<g id="Node000004" class="node">
<title>Node4</title>
<g id="a_Node000004"><a xlink:title=" ">
<polygon fill="#e0e0e0" stroke="#999999" points="1007.92,-74.5 954.42,-74.5 954.42,-55.25 1007.92,-55.25 1007.92,-74.5"/>
<text text-anchor="middle" x="981.17" y="-61" font-family="Helvetica,sans-Serif" font-size="10.00">iostream</text>
</a>
</g>
</g>
<!-- Node3&#45;&gt;Node4 -->
<g id="edge4_Node000003_Node000004" class="edge">
<title>Node3&#45;&gt;Node4</title>
<g id="a_edge4_Node000003_Node000004"><a xlink:title=" ">
<path fill="none" stroke="#63b8ff" d="M1105.42,-165.33C1121.16,-152.6 1144.9,-128.91 1131.17,-110.5 1117.75,-92.51 1059.19,-79.16 1019.33,-71.95"/>
<polygon fill="#63b8ff" stroke="#63b8ff" points="1020.08,-68.52 1009.63,-70.25 1018.88,-75.42 1020.08,-68.52"/>
</a>
</g>
</g>
<!-- Node5 -->
<g id="Node000005" class="node">
<title>Node5</title>
<g id="a_Node000005"><a xlink:title=" ">
<polygon fill="#e0e0e0" stroke="#999999" points="936.79,-74.5 885.54,-74.5 885.54,-55.25 936.79,-55.25 936.79,-74.5"/>
<text text-anchor="middle" x="911.17" y="-61" font-family="Helvetica,sans-Serif" font-size="10.00">sstream</text>
</a>
</g>
</g>
<!-- Node3&#45;&gt;Node5 -->
<g id="edge5_Node000003_Node000005" class="edge">
<title>Node3&#45;&gt;Node5</title>
<g id="a_edge5_Node000003_Node000005"><a xlink:title=" ">
<path fill="none" stroke="#63b8ff" d="M1077.96,-165.31C1046.65,-146.64 974.68,-103.74 936.32,-80.87"/>
<polygon fill="#63b8ff" stroke="#63b8ff" points="938.14,-77.88 927.75,-75.76 934.55,-83.89 938.14,-77.88"/>
</a>
</g>
</g>
<!-- Node6 -->
<g id="Node000006" class="node">
<title>Node6</title>
<g id="a_Node000006"><a xlink:title=" ">
<polygon fill="#e0e0e0" stroke="#999999" points="1122.17,-129.75 1064.17,-129.75 1064.17,-110.5 1122.17,-110.5 1122.17,-129.75"/>
<text text-anchor="middle" x="1093.17" y="-116.25" font-family="Helvetica,sans-Serif" font-size="10.00">TObject.h</text>
</a>
</g>
</g>
<!-- Node3&#45;&gt;Node6 -->
<g id="edge6_Node000003_Node000006" class="edge">
<title>Node3&#45;&gt;Node6</title>
<g id="a_edge6_Node000003_Node000006"><a xlink:title=" ">
<path fill="none" stroke="#63b8ff" d="M1093.17,-165.58C1093.17,-159.07 1093.17,-149.92 1093.17,-141.62"/>
<polygon fill="#63b8ff" stroke="#63b8ff" points="1096.67,-141.62 1093.17,-131.62 1089.67,-141.62 1096.67,-141.62"/>
</a>
</g>
</g>
<!-- Node3&#45;&gt;Node7 -->
<g id="edge7_Node000003_Node000007" class="edge">
<title>Node3&#45;&gt;Node7</title>
<g id="a_edge7_Node000003_Node000007"><a xlink:title=" ">
<path fill="none" stroke="#63b8ff" d="M1130.72,-166.89C1174.71,-158.1 1249.76,-143.03 1314.17,-129.75 1314.99,-129.58 1315.83,-129.41 1316.68,-129.23"/>
<polygon fill="#63b8ff" stroke="#63b8ff" points="1317.27,-132.68 1326.34,-127.22 1315.84,-125.83 1317.27,-132.68"/>
</a>
</g>
</g>
<!-- Node3&#45;&gt;Node8 -->
<g id="edge8_Node000003_Node000008" class="edge">
<title>Node3&#45;&gt;Node8</title>
<g id="a_edge8_Node000003_Node000008"><a xlink:title=" ">
<path fill="none" stroke="#63b8ff" d="M1055.68,-170.28C965.67,-160.46 737.91,-135.61 645.28,-125.5"/>
<polygon fill="#63b8ff" stroke="#63b8ff" points="645.72,-122.03 635.4,-124.42 644.96,-128.99 645.72,-122.03"/>
</a>
</g>
</g>
<!-- Node21 -->
<g id="Node000021" class="node">
<title>Node21</title>
<g id="a_Node000021"><a xlink:href="_t_priority_value_8h.html" target="_top" xlink:title=" ">
<polygon fill="white" stroke="#666666" points="1712.29,-74.5 1628.04,-74.5 1628.04,-55.25 1712.29,-55.25 1712.29,-74.5"/>
<text text-anchor="middle" x="1670.17" y="-61" font-family="Helvetica,sans-Serif" font-size="10.00">TPriorityValue.h</text>
</a>
</g>
</g>
<!-- Node3&#45;&gt;Node21 -->
<g id="edge24_Node000003_Node000021" class="edge">
<title>Node3&#45;&gt;Node21</title>
<g id="a_edge24_Node000003_Node000021"><a xlink:title=" ">
<path fill="none" stroke="#63b8ff" d="M1130.64,-166.58C1177.2,-156.7 1253.84,-139.76 1281.17,-129.75 1298.94,-123.24 1301.05,-115.99 1319.17,-110.5 1444.17,-72.63 1484.08,-92.54 1616.24,-74.81"/>
<polygon fill="#63b8ff" stroke="#63b8ff" points="1616.69,-78.29 1626.11,-73.44 1615.73,-71.35 1616.69,-78.29"/>
</a>
</g>
</g>
<!-- Node24 -->
<g id="Node000024" class="node">
<title>Node24</title>
<g id="a_Node000024"><a xlink:href="_t_channel_8h.html" target="_top" xlink:title=" ">
<polygon fill="white" stroke="#666666" points="1272.54,-129.75 1207.79,-129.75 1207.79,-110.5 1272.54,-110.5 1272.54,-129.75"/>
<text text-anchor="middle" x="1240.17" y="-116.25" font-family="Helvetica,sans-Serif" font-size="10.00">TChannel.h</text>
</a>
</g>
</g>
<!-- Node3&#45;&gt;Node24 -->
<g id="edge28_Node000003_Node000024" class="edge">
<title>Node3&#45;&gt;Node24</title>
<g id="a_edge28_Node000003_Node000024"><a xlink:title=" ">
<path fill="none" stroke="#63b8ff" d="M1118.1,-165.34C1141.86,-156.74 1177.87,-143.69 1204.63,-134"/>
<polygon fill="#63b8ff" stroke="#63b8ff" points="1205.47,-137.41 1213.68,-130.72 1203.09,-130.83 1205.47,-137.41"/>
</a>
</g>
</g>
<!-- Node8&#45;&gt;Node2 -->
<g id="edge12_Node000008_Node000002" class="edge">
<title>Node8&#45;&gt;Node2</title>
<g id="a_edge12_Node000008_Node000002"><a xlink:title=" ">
<path fill="none" stroke="#63b8ff" d="M633.64,-116.14C678.04,-110.94 766.02,-98.42 837.17,-74.5 855.49,-68.34 858.11,-62.15 876.17,-55.25 919.71,-38.6 972.05,-25.18 1004.73,-17.56"/>
<polygon fill="#63b8ff" stroke="#63b8ff" points="1005.38,-21 1014.35,-15.35 1003.82,-14.17 1005.38,-21"/>
</a>
</g>
</g>
<!-- Node8&#45;&gt;Node4 -->
<g id="edge9_Node000008_Node000004" class="edge">
<title>Node8&#45;&gt;Node4</title>
<g id="a_edge9_Node000008_Node000004"><a xlink:title=" ">
<path fill="none" stroke="#63b8ff" d="M633.63,-116.48C690.59,-110.97 822.83,-97.01 942.89,-74.95"/>
<polygon fill="#63b8ff" stroke="#63b8ff" points="943.42,-78.41 952.61,-73.14 942.14,-71.53 943.42,-78.41"/>
</a>
</g>
</g>
<!-- Node8&#45;&gt;Node5 -->
<g id="edge18_Node000008_Node000005" class="edge">
<title>Node8&#45;&gt;Node5</title>
<g id="a_edge18_Node000008_Node000005"><a xlink:title=" ">
<path fill="none" stroke="#63b8ff" d="M633.59,-114.8C682.32,-107.28 784.93,-91.02 871.17,-74.5 872.17,-74.31 873.19,-74.11 874.22,-73.91"/>
<polygon fill="#63b8ff" stroke="#63b8ff" points="874.8,-77.36 883.9,-71.92 873.4,-70.5 874.8,-77.36"/>
</a>
</g>
</g>
<!-- Node9 -->
<g id="Node000009" class="node">
<title>Node9</title>
<g id="a_Node000009"><a xlink:title=" ">
<polygon fill="#e0e0e0" stroke="#999999" points="365.04,-74.5 315.29,-74.5 315.29,-55.25 365.04,-55.25 365.04,-74.5"/>
<text text-anchor="middle" x="340.17" y="-61" font-family="Helvetica,sans-Serif" font-size="10.00">iomanip</text>
</a>
</g>
</g>
<!-- Node8&#45;&gt;Node9 -->
<g id="edge10_Node000008_Node000009" class="edge">
<title>Node8&#45;&gt;Node9</title>
<g id="a_edge10_Node000008_Node000009"><a xlink:title=" ">
<path fill="none" stroke="#63b8ff" d="M576.61,-114.15C534.83,-106.77 454.37,-92.09 376.36,-74.89"/>
<polygon fill="#63b8ff" stroke="#63b8ff" points="377.38,-71.53 366.85,-72.77 375.86,-78.36 377.38,-71.53"/>
</a>
</g>
</g>
<!-- Node10 -->
<g id="Node000010" class="node">
<title>Node10</title>
<g id="a_Node000010"><a xlink:title=" ">
<polygon fill="#e0e0e0" stroke="#999999" points="441.17,-74.5 383.17,-74.5 383.17,-55.25 441.17,-55.25 441.17,-74.5"/>
<text text-anchor="middle" x="412.17" y="-61" font-family="Helvetica,sans-Serif" font-size="10.00">stdexcept</text>
</a>
</g>
</g>
<!-- Node8&#45;&gt;Node10 -->
<g id="edge11_Node000008_Node000010" class="edge">
<title>Node8&#45;&gt;Node10</title>
<g id="a_edge11_Node000008_Node000010"><a xlink:title=" ">
<path fill="none" stroke="#63b8ff" d="M576.69,-111.27C543.81,-102.2 489.49,-87.21 452.33,-76.96"/>
<polygon fill="#63b8ff" stroke="#63b8ff" points="453.42,-73.63 442.85,-74.34 451.56,-80.38 453.42,-73.63"/>
</a>
</g>
</g>
<!-- Node11 -->
<g id="Node000011" class="node">
<title>Node11</title>
<g id="a_Node000011"><a xlink:title=" ">
<polygon fill="#e0e0e0" stroke="#999999" points="501.29,-74.5 459.04,-74.5 459.04,-55.25 501.29,-55.25 501.29,-74.5"/>
<text text-anchor="middle" x="480.17" y="-61" font-family="Helvetica,sans-Serif" font-size="10.00">cstdio</text>
</a>
</g>
</g>
<!-- Node8&#45;&gt;Node11 -->
<g id="edge13_Node000008_Node000011" class="edge">
<title>Node8&#45;&gt;Node11</title>
<g id="a_edge13_Node000008_Node000011"><a xlink:title=" ">
<path fill="none" stroke="#63b8ff" d="M583.96,-110.09C564.21,-101.68 534.49,-89.02 511.91,-79.4"/>
<polygon fill="#63b8ff" stroke="#63b8ff" points="513.44,-76.24 502.87,-75.55 510.69,-82.68 513.44,-76.24"/>
</a>
</g>
</g>
<!-- Node12 -->
<g id="Node000012" class="node">
<title>Node12</title>
<g id="a_Node000012"><a xlink:title=" ">
<polygon fill="#e0e0e0" stroke="#999999" points="564.79,-74.5 519.54,-74.5 519.54,-55.25 564.79,-55.25 564.79,-74.5"/>
<text text-anchor="middle" x="542.17" y="-61" font-family="Helvetica,sans-Serif" font-size="10.00">cstdint</text>
</a>
</g>
</g>
<!-- Node8&#45;&gt;Node12 -->
<g id="edge14_Node000008_Node000012" class="edge">
<title>Node8&#45;&gt;Node12</title>
<g id="a_edge14_Node000008_Node000012"><a xlink:title=" ">
<path fill="none" stroke="#63b8ff" d="M594.48,-110.09C585.46,-102.47 572.33,-91.37 561.48,-82.2"/>
<polygon fill="#63b8ff" stroke="#63b8ff" points="563.75,-79.53 553.85,-75.75 559.23,-84.88 563.75,-79.53"/>
</a>
</g>
</g>
<!-- Node13 -->
<g id="Node000013" class="node">
<title>Node13</title>
<g id="a_Node000013"><a xlink:title=" ">
<polygon fill="#e0e0e0" stroke="#999999" points="627.42,-74.5 582.92,-74.5 582.92,-55.25 627.42,-55.25 627.42,-74.5"/>
<text text-anchor="middle" x="605.17" y="-61" font-family="Helvetica,sans-Serif" font-size="10.00">cstdlib</text>
</a>
</g>
</g>
<!-- Node8&#45;&gt;Node13 -->
<g id="edge15_Node000008_Node000013" class="edge">
<title>Node8&#45;&gt;Node13</title>
<g id="a_edge15_Node000008_Node000013"><a xlink:title=" ">
<path fill="none" stroke="#63b8ff" d="M605.17,-110.33C605.17,-103.82 605.17,-94.67 605.17,-86.37"/>
<polygon fill="#63b8ff" stroke="#63b8ff" points="608.67,-86.37 605.17,-76.37 601.67,-86.37 608.67,-86.37"/>
</a>
</g>
</g>
<!-- Node14 -->
<g id="Node000014" class="node">
<title>Node14</title>
<g id="a_Node000014"><a xlink:title=" ">
<polygon fill="#e0e0e0" stroke="#999999" points="704.92,-74.5 645.42,-74.5 645.42,-55.25 704.92,-55.25 704.92,-74.5"/>
<text text-anchor="middle" x="675.17" y="-61" font-family="Helvetica,sans-Serif" font-size="10.00">execinfo.h</text>
</a>
</g>
</g>
<!-- Node8&#45;&gt;Node14 -->
<g id="edge16_Node000008_Node000014" class="edge">
<title>Node8&#45;&gt;Node14</title>
<g id="a_edge16_Node000008_Node000014"><a xlink:title=" ">
<path fill="none" stroke="#63b8ff" d="M617.04,-110.09C627.26,-102.32 642.24,-90.92 654.43,-81.65"/>
<polygon fill="#63b8ff" stroke="#63b8ff" points="656.42,-84.53 662.26,-75.69 652.18,-78.96 656.42,-84.53"/>
</a>
</g>
</g>
<!-- Node15 -->
<g id="Node000015" class="node">
<title>Node15</title>
<g id="a_Node000015"><a xlink:title=" ">
<polygon fill="#e0e0e0" stroke="#999999" points="773.42,-74.5 722.92,-74.5 722.92,-55.25 773.42,-55.25 773.42,-74.5"/>
<text text-anchor="middle" x="748.17" y="-61" font-family="Helvetica,sans-Serif" font-size="10.00">cxxabi.h</text>
</a>
</g>
</g>
<!-- Node8&#45;&gt;Node15 -->
<g id="edge17_Node000008_Node000015" class="edge">
<title>Node8&#45;&gt;Node15</title>
<g id="a_edge17_Node000008_Node000015"><a xlink:title=" ">
<path fill="none" stroke="#63b8ff" d="M629.42,-110.09C652.43,-101.52 687.26,-88.56 713.25,-78.88"/>
<polygon fill="#63b8ff" stroke="#63b8ff" points="714.22,-82.25 722.37,-75.48 711.78,-75.69 714.22,-82.25"/>
</a>
</g>
</g>
<!-- Node16 -->
<g id="Node000016" class="node">
<title>Node16</title>
<g id="a_Node000016"><a xlink:title=" ">
<polygon fill="#e0e0e0" stroke="#999999" points="828.67,-74.5 791.67,-74.5 791.67,-55.25 828.67,-55.25 828.67,-74.5"/>
<text text-anchor="middle" x="810.17" y="-61" font-family="Helvetica,sans-Serif" font-size="10.00">array</text>
</a>
</g>
</g>
<!-- Node8&#45;&gt;Node16 -->
<g id="edge19_Node000008_Node000016" class="edge">
<title>Node8&#45;&gt;Node16</title>
<g id="a_edge19_Node000008_Node000016"><a xlink:title=" ">
<path fill="none" stroke="#63b8ff" d="M633.8,-112.39C666.84,-104.51 723.05,-90.79 780.49,-74.86"/>
<polygon fill="#63b8ff" stroke="#63b8ff" points="781.08,-78.32 789.77,-72.26 779.2,-71.58 781.08,-78.32"/>
</a>
</g>
</g>
<!-- Node17 -->
<g id="Node000017" class="node">
<title>Node17</title>
<g id="a_Node000017"><a xlink:title=" ">
<polygon fill="#e0e0e0" stroke="#999999" points="73.42,-74.5 22.92,-74.5 22.92,-55.25 73.42,-55.25 73.42,-74.5"/>
<text text-anchor="middle" x="48.17" y="-61" font-family="Helvetica,sans-Serif" font-size="10.00">memory</text>
</a>
</g>
</g>
<!-- Node8&#45;&gt;Node17 -->
<g id="edge20_Node000008_Node000017" class="edge">
<title>Node8&#45;&gt;Node17</title>
<g id="a_edge20_Node000008_Node000017"><a xlink:title=" ">
<path fill="none" stroke="#63b8ff" d="M576.61,-118.33C499.03,-115.81 277.73,-106.34 84.89,-74.69"/>
<polygon fill="#63b8ff" stroke="#63b8ff" points="85.62,-71.27 75.18,-73.07 84.47,-78.17 85.62,-71.27"/>
</a>
</g>
</g>
<!-- Node18 -->
<g id="Node000018" class="node">
<title>Node18</title>
<g id="a_Node000018"><a xlink:title=" ">
<polygon fill="#e0e0e0" stroke="#999999" points="141.04,-74.5 91.29,-74.5 91.29,-55.25 141.04,-55.25 141.04,-74.5"/>
<text text-anchor="middle" x="116.17" y="-61" font-family="Helvetica,sans-Serif" font-size="10.00">unistd.h</text>
</a>
</g>
</g>
<!-- Node8&#45;&gt;Node18 -->
<g id="edge21_Node000008_Node000018" class="edge">
<title>Node8&#45;&gt;Node18</title>
<g id="a_edge21_Node000008_Node000018"><a xlink:title=" ">
<path fill="none" stroke="#63b8ff" d="M576.48,-117.81C505.92,-114.27 318.16,-102.92 152.22,-74.6"/>
<polygon fill="#63b8ff" stroke="#63b8ff" points="153.27,-71.23 142.82,-72.97 152.07,-78.12 153.27,-71.23"/>
</a>
</g>
</g>
<!-- Node19 -->
<g id="Node000019" class="node">
<title>Node19</title>
<g id="a_Node000019"><a xlink:title=" ">
<polygon fill="#e0e0e0" stroke="#999999" points="218.92,-74.5 159.42,-74.5 159.42,-55.25 218.92,-55.25 218.92,-74.5"/>
<text text-anchor="middle" x="189.17" y="-61" font-family="Helvetica,sans-Serif" font-size="10.00">sys/wait.h</text>
</a>
</g>
</g>
<!-- Node8&#45;&gt;Node19 -->
<g id="edge22_Node000008_Node000019" class="edge">
<title>Node8&#45;&gt;Node19</title>
<g id="a_edge22_Node000008_Node000019"><a xlink:title=" ">
<path fill="none" stroke="#63b8ff" d="M576.65,-116.73C515.22,-111.36 365.65,-97.17 230.3,-74.7"/>
<polygon fill="#63b8ff" stroke="#63b8ff" points="231.28,-71.32 220.83,-73.11 230.11,-78.22 231.28,-71.32"/>
</a>
</g>
</g>
<!-- Node20 -->
<g id="Node000020" class="node">
<title>Node20</title>
<g id="a_Node000020"><a xlink:title=" ">
<polygon fill="#e0e0e0" stroke="#999999" points="297.29,-74.5 237.04,-74.5 237.04,-55.25 297.29,-55.25 297.29,-74.5"/>
<text text-anchor="middle" x="267.17" y="-61" font-family="Helvetica,sans-Serif" font-size="10.00">sys/prctl.h</text>
</a>
</g>
</g>
<!-- Node8&#45;&gt;Node20 -->
<g id="edge23_Node000008_Node000020" class="edge">
<title>Node8&#45;&gt;Node20</title>
<g id="a_edge23_Node000008_Node000020"><a xlink:title=" ">
<path fill="none" stroke="#63b8ff" d="M576.61,-115.54C525.1,-108.92 413.01,-93.86 308.81,-74.89"/>
<polygon fill="#63b8ff" stroke="#63b8ff" points="309.74,-71.5 299.27,-73.13 308.47,-78.38 309.74,-71.5"/>
</a>
</g>
</g>
<!-- Node21&#45;&gt;Node2 -->
<g id="edge26_Node000021_Node000002" class="edge">
<title>Node21&#45;&gt;Node2</title>
<g id="a_edge26_Node000021_Node000002"><a xlink:title=" ">
<path fill="none" stroke="#63b8ff" d="M1627.63,-56.38C1624.77,-55.97 1621.93,-55.59 1619.17,-55.25 1409.62,-29.57 1155.78,-16.16 1067.9,-12.04"/>
<polygon fill="#63b8ff" stroke="#63b8ff" points="1068.29,-8.55 1058.14,-11.58 1067.97,-15.54 1068.29,-8.55"/>
</a>
</g>
</g>
<!-- Node22 -->
<g id="Node000022" class="node">
<title>Node22</title>
<g id="a_Node000022"><a xlink:title=" ">
<polygon fill="#e0e0e0" stroke="#999999" points="1727.79,-19.25 1676.54,-19.25 1676.54,0 1727.79,0 1727.79,-19.25"/>
<text text-anchor="middle" x="1702.17" y="-5.75" font-family="Helvetica,sans-Serif" font-size="10.00">ostream</text>
</a>
</g>
</g>
<!-- Node21&#45;&gt;Node22 -->
<g id="edge25_Node000021_Node000022" class="edge">
<title>Node21&#45;&gt;Node22</title>
<g id="a_edge25_Node000021_Node000022"><a xlink:title=" ">
<path fill="none" stroke="#63b8ff" d="M1675.45,-55.08C1679.64,-48.11 1685.64,-38.12 1690.9,-29.37"/>
<polygon fill="#63b8ff" stroke="#63b8ff" points="1693.84,-31.28 1695.99,-20.91 1687.84,-27.68 1693.84,-31.28"/>
</a>
</g>
</g>
<!-- Node23 -->
<g id="Node000023" class="node">
<title>Node23</title>
<g id="a_Node000023"><a xlink:title=" ">
<polygon fill="#e0e0e0" stroke="#999999" points="1658.67,-19.25 1615.67,-19.25 1615.67,0 1658.67,0 1658.67,-19.25"/>
<text text-anchor="middle" x="1637.17" y="-5.75" font-family="Helvetica,sans-Serif" font-size="10.00">vector</text>
</a>
</g>
</g>
<!-- Node21&#45;&gt;Node23 -->
<g id="edge27_Node000021_Node000023" class="edge">
<title>Node21&#45;&gt;Node23</title>
<g id="a_edge27_Node000021_Node000023"><a xlink:title=" ">
<path fill="none" stroke="#63b8ff" d="M1664.72,-55.08C1660.39,-48.11 1654.2,-38.12 1648.78,-29.37"/>
<polygon fill="#63b8ff" stroke="#63b8ff" points="1651.77,-27.55 1643.53,-20.9 1645.82,-31.24 1651.77,-27.55"/>
</a>
</g>
</g>
<!-- Node24&#45;&gt;Node2 -->
<g id="edge29_Node000024_Node000002" class="edge">
<title>Node24&#45;&gt;Node2</title>
<g id="a_edge29_Node000024_Node000002"><a xlink:title=" ">
<path fill="none" stroke="#63b8ff" d="M1207.35,-114.43C1176.05,-108.79 1128.57,-97.11 1093.17,-74.5 1074.62,-62.65 1058.46,-43.14 1048.13,-28.8"/>
<polygon fill="#63b8ff" stroke="#63b8ff" points="1051.1,-26.94 1042.55,-20.69 1045.34,-30.91 1051.1,-26.94"/>
</a>
</g>
</g>
<!-- Node24&#45;&gt;Node21 -->
<g id="edge37_Node000024_Node000021" class="edge">
<title>Node24&#45;&gt;Node21</title>
<g id="a_edge37_Node000024_Node000021"><a xlink:title=" ">
<path fill="none" stroke="#63b8ff" d="M1272.78,-112.69C1277.27,-111.89 1281.82,-111.14 1286.17,-110.5 1429.84,-89.3 1469.78,-94.64 1616.41,-74.8"/>
<polygon fill="#63b8ff" stroke="#63b8ff" points="1616.69,-78.3 1626.12,-73.47 1615.74,-71.36 1616.69,-78.3"/>
</a>
</g>
</g>
<!-- Node25 -->
<g id="Node000025" class="node">
<title>Node25</title>
<g id="a_Node000025"><a xlink:title=" ">
<polygon fill="#e0e0e0" stroke="#999999" points="1232.67,-74.5 1189.67,-74.5 1189.67,-55.25 1232.67,-55.25 1232.67,-74.5"/>
<text text-anchor="middle" x="1211.17" y="-61" font-family="Helvetica,sans-Serif" font-size="10.00">cmath</text>
</a>
</g>
</g>
<!-- Node24&#45;&gt;Node25 -->
<g id="edge30_Node000024_Node000025" class="edge">
<title>Node24&#45;&gt;Node25</title>
<g id="a_edge30_Node000024_Node000025"><a xlink:title=" ">
<path fill="none" stroke="#63b8ff" d="M1235.38,-110.33C1231.62,-103.44 1226.26,-93.59 1221.53,-84.91"/>
<polygon fill="#63b8ff" stroke="#63b8ff" points="1224.64,-83.3 1216.78,-76.19 1218.49,-86.64 1224.64,-83.3"/>
</a>
</g>
</g>
<!-- Node26 -->
<g id="Node000026" class="node">
<title>Node26</title>
<g id="a_Node000026"><a xlink:title=" ">
<polygon fill="#e0e0e0" stroke="#999999" points="1289.42,-74.5 1250.92,-74.5 1250.92,-55.25 1289.42,-55.25 1289.42,-74.5"/>
<text text-anchor="middle" x="1270.17" y="-61" font-family="Helvetica,sans-Serif" font-size="10.00">utility</text>
</a>
</g>
</g>
<!-- Node24&#45;&gt;Node26 -->
<g id="edge31_Node000024_Node000026" class="edge">
<title>Node24&#45;&gt;Node26</title>
<g id="a_edge31_Node000024_Node000026"><a xlink:title=" ">
<path fill="none" stroke="#63b8ff" d="M1245.12,-110.33C1249.05,-103.36 1254.68,-93.37 1259.6,-84.62"/>
<polygon fill="#63b8ff" stroke="#63b8ff" points="1262.5,-86.61 1264.36,-76.18 1256.4,-83.17 1262.5,-86.61"/>
</a>
</g>
</g>
<!-- Node27 -->
<g id="Node000027" class="node">
<title>Node27</title>
<g id="a_Node000027"><a xlink:title=" ">
<polygon fill="#e0e0e0" stroke="#999999" points="1390.54,-74.5 1307.79,-74.5 1307.79,-55.25 1390.54,-55.25 1390.54,-74.5"/>
<text text-anchor="middle" x="1349.17" y="-61" font-family="Helvetica,sans-Serif" font-size="10.00">unordered_map</text>
</a>
</g>
</g>
<!-- Node24&#45;&gt;Node27 -->
<g id="edge32_Node000024_Node000027" class="edge">
<title>Node24&#45;&gt;Node27</title>
<g id="a_edge32_Node000024_Node000027"><a xlink:title=" ">
<path fill="none" stroke="#63b8ff" d="M1258.66,-110.09C1275.57,-101.83 1300.85,-89.48 1320.4,-79.93"/>
<polygon fill="#63b8ff" stroke="#63b8ff" points="1321.78,-83.15 1329.22,-75.62 1318.7,-76.86 1321.78,-83.15"/>
</a>
</g>
</g>
<!-- Node28 -->
<g id="Node000028" class="node">
<title>Node28</title>
<g id="a_Node000028"><a xlink:title=" ">
<polygon fill="#e0e0e0" stroke="#999999" points="1469.67,-74.5 1408.67,-74.5 1408.67,-55.25 1469.67,-55.25 1469.67,-74.5"/>
<text text-anchor="middle" x="1439.17" y="-61" font-family="Helvetica,sans-Serif" font-size="10.00">TNamed.h</text>
</a>
</g>
</g>
<!-- Node24&#45;&gt;Node28 -->
<g id="edge33_Node000024_Node000028" class="edge">
<title>Node24&#45;&gt;Node28</title>
<g id="a_edge33_Node000024_Node000028"><a xlink:title=" ">
<path fill="none" stroke="#63b8ff" d="M1273.03,-110.33C1307.04,-101.23 1360.29,-86.98 1397.3,-77.08"/>
<polygon fill="#63b8ff" stroke="#63b8ff" points="1398,-80.51 1406.76,-74.55 1396.19,-73.75 1398,-80.51"/>
</a>
</g>
</g>
<!-- Node29 -->
<g id="Node000029" class="node">
<title>Node29</title>
<g id="a_Node000029"><a xlink:title=" ">
<polygon fill="#e0e0e0" stroke="#999999" points="1536.67,-74.5 1487.67,-74.5 1487.67,-55.25 1536.67,-55.25 1536.67,-74.5"/>
<text text-anchor="middle" x="1512.17" y="-61" font-family="Helvetica,sans-Serif" font-size="10.00">TTree.h</text>
</a>
</g>
</g>
<!-- Node24&#45;&gt;Node29 -->
<g id="edge34_Node000024_Node000029" class="edge">
<title>Node24&#45;&gt;Node29</title>
<g id="a_edge34_Node000024_Node000029"><a xlink:title=" ">
<path fill="none" stroke="#63b8ff" d="M1272.83,-113C1277.31,-112.16 1281.85,-111.31 1286.17,-110.5 1368.42,-95.12 1392.09,-93.64 1476.21,-75.05"/>
<polygon fill="#63b8ff" stroke="#63b8ff" points="1476.87,-78.49 1485.87,-72.89 1475.35,-71.65 1476.87,-78.49"/>
</a>
</g>
</g>
<!-- Node30 -->
<g id="Node000030" class="node">
<title>Node30</title>
<g id="a_Node000030"><a xlink:title=" ">
<polygon fill="#e0e0e0" stroke="#999999" points="1610.04,-74.5 1554.29,-74.5 1554.29,-55.25 1610.04,-55.25 1610.04,-74.5"/>
<text text-anchor="middle" x="1582.17" y="-61" font-family="Helvetica,sans-Serif" font-size="10.00">TGraph.h</text>
</a>
</g>
</g>
<!-- Node24&#45;&gt;Node30 -->
<g id="edge35_Node000024_Node000030" class="edge">
<title>Node24&#45;&gt;Node30</title>
<g id="a_edge35_Node000024_Node000030"><a xlink:title=" ">
<path fill="none" stroke="#63b8ff" d="M1272.8,-112.81C1277.28,-112 1281.83,-111.21 1286.17,-110.5 1397.71,-92.33 1429.56,-95.87 1542.71,-75.01"/>
<polygon fill="#63b8ff" stroke="#63b8ff" points="1543.25,-78.47 1552.43,-73.19 1541.96,-71.59 1543.25,-78.47"/>
</a>
</g>
</g>
<!-- Node31 -->
<g id="Node000031" class="node">
<title>Node31</title>
<g id="a_Node000031"><a xlink:title=" ">
<polygon fill="#e0e0e0" stroke="#999999" points="1171.79,-74.5 1102.54,-74.5 1102.54,-55.25 1171.79,-55.25 1171.79,-74.5"/>
<text text-anchor="middle" x="1137.17" y="-61" font-family="Helvetica,sans-Serif" font-size="10.00">TClassRef.h</text>
</a>
</g>
</g>
<!-- Node24&#45;&gt;Node31 -->
<g id="edge36_Node000024_Node000031" class="edge">
<title>Node24&#45;&gt;Node31</title>
<g id="a_edge36_Node000024_Node000031"><a xlink:title=" ">
<path fill="none" stroke="#63b8ff" d="M1222.69,-110.09C1206.86,-101.91 1183.26,-89.71 1164.86,-80.19"/>
<polygon fill="#63b8ff" stroke="#63b8ff" points="1166.56,-77.13 1156.07,-75.65 1163.34,-83.35 1166.56,-77.13"/>
</a>
</g>
</g>
</g>
</svg>
