<?xml version="1.0" encoding="UTF-8" standalone="no"?>
<!DOCTYPE svg PUBLIC "-//W3C//DTD SVG 1.1//EN"
 "http://www.w3.org/Graphics/SVG/1.1/DTD/svg11.dtd">
<!-- Generated by graphviz version 12.2.0 (20241103.1931)
 -->
<!-- Title: TGainMatch.h Pages: 1 -->
<!--zoomable 304 -->

<svg id="main" version="1.1" xmlns="http://www.w3.org/2000/svg" xmlns:xlink="http://www.w3.org/1999/xlink" xml:space="preserve" onload="init(evt)">

<style type="text/css"><![CDATA[
.node, .edge {opacity: 0.7;}
.node.selected, .edge.selected {opacity: 1;}
.edge:hover path { stroke: red; }
.edge:hover polygon { stroke: red; fill: red; }
]]></style>

<defs>
  <circle id="rim" cx="0" cy="0" r="7"/>
  <circle id="rim2" cx="0" cy="0" r="3.5"/>
  <g id="zoomPlus">
    <use xlink:href="#rim" fill="#404040"><set attributeName="fill" to="#808080" begin="zoomplus.mouseover" end="zoomplus.mouseout"/></use>
    <path d="M-4,0h8M0,-4v8" fill="none" stroke="white" stroke-width="1.5" pointer-events="none"/>
  </g>
  <g id="zoomMin">
    <use xlink:href="#rim" fill="#404040"><set attributeName="fill" to="#808080" begin="zoomminus.mouseover" end="zoomminus.mouseout"/></use>
    <path d="M-4,0h8" fill="none" stroke="white" stroke-width="1.5" pointer-events="none"/>
  </g>
  <g id="arrowUp" transform="translate(30 24)">
    <use xlink:href="#rim"/>
    <path pointer-events="none" fill="none" stroke="white" stroke-width="1.5" d="M0,-3.0v7 M-2.5,-0.5L0,-3.0L2.5,-0.5"/>
  </g>
  <g id="arrowRight" transform="rotate(90) translate(36 -43)">
    <use xlink:href="#rim"/>
    <path pointer-events="none" fill="none" stroke="white" stroke-width="1.5" d="M0,-3.0v7 M-2.5,-0.5L0,-3.0L2.5,-0.5"/>
  </g>
  <g id="arrowDown" transform="rotate(180) translate(-30 -48)">
    <use xlink:href="#rim"/>
    <path pointer-events="none" fill="none" stroke="white" stroke-width="1.5" d="M0,-3.0v7 M-2.5,-0.5L0,-3.0L2.5,-0.5"/>
  </g>
  <g id="arrowLeft" transform="rotate(270) translate(-36 17)">
    <use xlink:href="#rim"/>
    <path pointer-events="none" fill="none" stroke="white" stroke-width="1.5" d="M0,-3.0v7 M-2.5,-0.5L0,-3.0L2.5,-0.5"/>
  </g>
  <g id="resetDef">
    <use xlink:href="#rim2" fill="#404040"><set attributeName="fill" to="#808080" begin="reset.mouseover" end="reset.mouseout"/></use>
  </g>
</defs>
<script type="application/ecmascript">
var viewWidth = 1184;
var viewHeight = 304;
var sectionId = 'dynsection-0';
</script>
<script type="application/ecmascript" xlink:href="svg.min.js"/>
<svg id="graph" class="graph">
<g id="viewport">
<title>TGainMatch.h</title>
<!-- Node1 -->
<g id="Node000001" class="node">
<title>Node1</title>
<g id="a_Node000001"><a xlink:title=" ">
<polygon fill="#999999" stroke="#666666" points="909.88,-295.5 833.12,-295.5 833.12,-276.25 909.88,-276.25 909.88,-295.5"/>
<text text-anchor="middle" x="871.5" y="-282" font-family="Helvetica,sans-Serif" font-size="10.00">TGainMatch.h</text>
</a>
</g>
</g>
<!-- Node2 -->
<g id="Node000002" class="node">
<title>Node2</title>
<g id="a_Node000002"><a xlink:href="_t_cal_8h.html" target="_top" xlink:title=" ">
<polygon fill="white" stroke="#666666" points="689.38,-185 645.62,-185 645.62,-165.75 689.38,-165.75 689.38,-185"/>
<text text-anchor="middle" x="667.5" y="-171.5" font-family="Helvetica,sans-Serif" font-size="10.00">TCal.h</text>
</a>
</g>
</g>
<!-- Node1&#45;&gt;Node2 -->
<g id="edge1_Node000001_Node000002" class="edge">
<title>Node1&#45;&gt;Node2</title>
<g id="a_edge1_Node000001_Node000002"><a xlink:title=" ">
<path fill="none" stroke="#63b8ff" d="M848.36,-275.89C827.39,-267.48 795.82,-254.15 769.5,-240.25 741.21,-225.31 710.27,-205.39 689.97,-191.79"/>
<polygon fill="#63b8ff" stroke="#63b8ff" points="692.16,-189.04 681.91,-186.34 688.24,-194.84 692.16,-189.04"/>
</a>
</g>
</g>
<!-- Node5 -->
<g id="Node000005" class="node">
<title>Node5</title>
<g id="a_Node000005"><a xlink:title=" ">
<polygon fill="#e0e0e0" stroke="#999999" points="1074.88,-129.75 1034.12,-129.75 1034.12,-110.5 1074.88,-110.5 1074.88,-129.75"/>
<text text-anchor="middle" x="1054.5" y="-116.25" font-family="Helvetica,sans-Serif" font-size="10.00">TF1.h</text>
</a>
</g>
</g>
<!-- Node1&#45;&gt;Node5 -->
<g id="edge49_Node000001_Node000005" class="edge">
<title>Node1&#45;&gt;Node5</title>
<g id="a_edge49_Node000001_Node000005"><a xlink:title=" ">
<path fill="none" stroke="#63b8ff" d="M910.07,-278.26C957.25,-267.81 1034.75,-242.42 1066.5,-185 1074.1,-171.25 1069.89,-153.57 1064.46,-140.29"/>
<polygon fill="#63b8ff" stroke="#63b8ff" points="1067.68,-138.93 1060.28,-131.34 1061.34,-141.89 1067.68,-138.93"/>
</a>
</g>
</g>
<!-- Node6 -->
<g id="Node000006" class="node">
<title>Node6</title>
<g id="a_Node000006"><a xlink:title=" ">
<polygon fill="#e0e0e0" stroke="#999999" points="782.25,-129.75 710.75,-129.75 710.75,-110.5 782.25,-110.5 782.25,-129.75"/>
<text text-anchor="middle" x="746.5" y="-116.25" font-family="Helvetica,sans-Serif" font-size="10.00">TSpectrum.h</text>
</a>
</g>
</g>
<!-- Node1&#45;&gt;Node6 -->
<g id="edge47_Node000001_Node000006" class="edge">
<title>Node1&#45;&gt;Node6</title>
<g id="a_edge47_Node000001_Node000006"><a xlink:title=" ">
<path fill="none" stroke="#63b8ff" d="M864.78,-276.07C845.03,-250.19 786.86,-174 760.17,-139.03"/>
<polygon fill="#63b8ff" stroke="#63b8ff" points="763.02,-137 754.17,-131.18 757.46,-141.25 763.02,-137"/>
</a>
</g>
</g>
<!-- Node28 -->
<g id="Node000028" class="node">
<title>Node28</title>
<g id="a_Node000028"><a xlink:href="_t_cal_manager_8h.html" target="_top" xlink:title=" ">
<polygon fill="white" stroke="#666666" points="675.12,-240.25 593.88,-240.25 593.88,-221 675.12,-221 675.12,-240.25"/>
<text text-anchor="middle" x="634.5" y="-226.75" font-family="Helvetica,sans-Serif" font-size="10.00">TCalManager.h</text>
</a>
</g>
</g>
<!-- Node1&#45;&gt;Node28 -->
<g id="edge32_Node000001_Node000028" class="edge">
<title>Node1&#45;&gt;Node28</title>
<g id="a_edge32_Node000001_Node000028"><a xlink:title=" ">
<path fill="none" stroke="#63b8ff" d="M832.63,-276.14C792.64,-267.16 730.14,-253.11 686.05,-243.21"/>
<polygon fill="#63b8ff" stroke="#63b8ff" points="686.98,-239.83 676.46,-241.05 685.45,-246.66 686.98,-239.83"/>
</a>
</g>
</g>
<!-- Node30 -->
<g id="Node000030" class="node">
<title>Node30</title>
<g id="a_Node000030"><a xlink:href="_t_peak_8h.html" target="_top" xlink:title=" ">
<polygon fill="white" stroke="#666666" points="969.5,-240.25 917.5,-240.25 917.5,-221 969.5,-221 969.5,-240.25"/>
<text text-anchor="middle" x="943.5" y="-226.75" font-family="Helvetica,sans-Serif" font-size="10.00">TPeak.h</text>
</a>
</g>
</g>
<!-- Node1&#45;&gt;Node30 -->
<g id="edge36_Node000001_Node000030" class="edge">
<title>Node1&#45;&gt;Node30</title>
<g id="a_edge36_Node000001_Node000030"><a xlink:title=" ">
<path fill="none" stroke="#63b8ff" d="M883.71,-275.84C894.33,-267.99 909.94,-256.45 922.54,-247.12"/>
<polygon fill="#63b8ff" stroke="#63b8ff" points="924.29,-250.19 930.25,-241.42 920.13,-244.56 924.29,-250.19"/>
</a>
</g>
</g>
<!-- Node34 -->
<g id="Node000034" class="node">
<title>Node34</title>
<g id="a_Node000034"><a xlink:title=" ">
<polygon fill="#e0e0e0" stroke="#999999" points="1175.62,-240.25 1133.38,-240.25 1133.38,-221 1175.62,-221 1175.62,-240.25"/>
<text text-anchor="middle" x="1154.5" y="-226.75" font-family="Helvetica,sans-Serif" font-size="10.00">TH2.h</text>
</a>
</g>
</g>
<!-- Node1&#45;&gt;Node34 -->
<g id="edge48_Node000001_Node000034" class="edge">
<title>Node1&#45;&gt;Node34</title>
<g id="a_edge48_Node000001_Node000034"><a xlink:title=" ">
<path fill="none" stroke="#63b8ff" d="M910.31,-278.68C959.25,-270.68 1045.91,-255.92 1119.5,-240.25 1120.33,-240.07 1121.16,-239.89 1122.01,-239.71"/>
<polygon fill="#63b8ff" stroke="#63b8ff" points="1122.66,-243.15 1131.6,-237.48 1121.07,-236.33 1122.66,-243.15"/>
</a>
</g>
</g>
<!-- Node3 -->
<g id="Node000003" class="node">
<title>Node3</title>
<g id="a_Node000003"><a xlink:title=" ">
<polygon fill="#e0e0e0" stroke="#999999" points="43,-19.25 0,-19.25 0,0 43,0 43,-19.25"/>
<text text-anchor="middle" x="21.5" y="-5.75" font-family="Helvetica,sans-Serif" font-size="10.00">vector</text>
</a>
</g>
</g>
<!-- Node2&#45;&gt;Node3 -->
<g id="edge2_Node000002_Node000003" class="edge">
<title>Node2&#45;&gt;Node3</title>
<g id="a_edge2_Node000002_Node000003"><a xlink:title=" ">
<path fill="none" stroke="#63b8ff" d="M645.26,-167.67C642.33,-166.94 639.36,-166.27 636.5,-165.75 460.47,-133.64 411.5,-162.05 235.5,-129.75 146.06,-113.34 102.37,-139.23 38.5,-74.5 27.15,-62.99 23.14,-44.81 21.83,-30.78"/>
<polygon fill="#63b8ff" stroke="#63b8ff" points="25.33,-30.7 21.33,-20.89 18.34,-31.05 25.33,-30.7"/>
</a>
</g>
</g>
<!-- Node4 -->
<g id="Node000004" class="node">
<title>Node4</title>
<g id="a_Node000004"><a xlink:title=" ">
<polygon fill="#e0e0e0" stroke="#999999" points="904.62,-129.75 862.38,-129.75 862.38,-110.5 904.62,-110.5 904.62,-129.75"/>
<text text-anchor="middle" x="883.5" y="-116.25" font-family="Helvetica,sans-Serif" font-size="10.00">TH1.h</text>
</a>
</g>
</g>
<!-- Node2&#45;&gt;Node4 -->
<g id="edge3_Node000002_Node000004" class="edge">
<title>Node2&#45;&gt;Node4</title>
<g id="a_edge3_Node000002_Node000004"><a xlink:title=" ">
<path fill="none" stroke="#63b8ff" d="M689.63,-169.4C722.65,-161.91 787.02,-147.03 850.84,-130.37"/>
<polygon fill="#63b8ff" stroke="#63b8ff" points="851.66,-133.77 860.44,-127.84 849.88,-127 851.66,-133.77"/>
</a>
</g>
</g>
<!-- Node2&#45;&gt;Node5 -->
<g id="edge4_Node000002_Node000005" class="edge">
<title>Node2&#45;&gt;Node5</title>
<g id="a_edge4_Node000002_Node000005"><a xlink:title=" ">
<path fill="none" stroke="#63b8ff" d="M689.5,-172.9C744.32,-168.97 891.48,-156.77 1022.67,-130.05"/>
<polygon fill="#63b8ff" stroke="#63b8ff" points="1023.13,-133.53 1032.21,-128.07 1021.71,-126.67 1023.13,-133.53"/>
</a>
</g>
</g>
<!-- Node2&#45;&gt;Node6 -->
<g id="edge5_Node000002_Node000006" class="edge">
<title>Node2&#45;&gt;Node6</title>
<g id="a_edge5_Node000002_Node000006"><a xlink:title=" ">
<path fill="none" stroke="#63b8ff" d="M680.9,-165.34C692.59,-157.46 709.8,-145.86 723.66,-136.52"/>
<polygon fill="#63b8ff" stroke="#63b8ff" points="725.44,-139.54 731.78,-131.05 721.53,-133.74 725.44,-139.54"/>
</a>
</g>
</g>
<!-- Node7 -->
<g id="Node000007" class="node">
<title>Node7</title>
<g id="a_Node000007"><a xlink:title=" ">
<polygon fill="#e0e0e0" stroke="#999999" points="320.88,-129.75 244.12,-129.75 244.12,-110.5 320.88,-110.5 320.88,-129.75"/>
<text text-anchor="middle" x="282.5" y="-116.25" font-family="Helvetica,sans-Serif" font-size="10.00">TMultiGraph.h</text>
</a>
</g>
</g>
<!-- Node2&#45;&gt;Node7 -->
<g id="edge6_Node000002_Node000007" class="edge">
<title>Node2&#45;&gt;Node7</title>
<g id="a_edge6_Node000002_Node000007"><a xlink:title=" ">
<path fill="none" stroke="#63b8ff" d="M645.25,-167.74C642.32,-167 639.35,-166.31 636.5,-165.75 505.25,-139.96 467.34,-149.61 332.38,-130.08"/>
<polygon fill="#63b8ff" stroke="#63b8ff" points="333.1,-126.65 322.69,-128.65 332.07,-133.58 333.1,-126.65"/>
</a>
</g>
</g>
<!-- Node8 -->
<g id="Node000008" class="node">
<title>Node8</title>
<g id="a_Node000008"><a xlink:title=" ">
<polygon fill="#e0e0e0" stroke="#999999" points="420.12,-129.75 338.88,-129.75 338.88,-110.5 420.12,-110.5 420.12,-129.75"/>
<text text-anchor="middle" x="379.5" y="-116.25" font-family="Helvetica,sans-Serif" font-size="10.00">TGraphErrors.h</text>
</a>
</g>
</g>
<!-- Node2&#45;&gt;Node8 -->
<g id="edge7_Node000002_Node000008" class="edge">
<title>Node2&#45;&gt;Node8</title>
<g id="a_edge7_Node000002_Node000008"><a xlink:title=" ">
<path fill="none" stroke="#63b8ff" d="M645.22,-167.89C642.3,-167.12 639.33,-166.39 636.5,-165.75 548.46,-145.94 522.85,-145.86 431.57,-130.26"/>
<polygon fill="#63b8ff" stroke="#63b8ff" points="432.35,-126.85 421.9,-128.59 431.16,-133.74 432.35,-126.85"/>
</a>
</g>
</g>
<!-- Node9 -->
<g id="Node000009" class="node">
<title>Node9</title>
<g id="a_Node000009"><a xlink:title=" ">
<polygon fill="#e0e0e0" stroke="#999999" points="844.75,-129.75 800.25,-129.75 800.25,-110.5 844.75,-110.5 844.75,-129.75"/>
<text text-anchor="middle" x="822.5" y="-116.25" font-family="Helvetica,sans-Serif" font-size="10.00">TRef.h</text>
</a>
</g>
</g>
<!-- Node2&#45;&gt;Node9 -->
<g id="edge8_Node000002_Node000009" class="edge">
<title>Node2&#45;&gt;Node9</title>
<g id="a_edge8_Node000002_Node000009"><a xlink:title=" ">
<path fill="none" stroke="#63b8ff" d="M689.71,-166.75C715.69,-157.82 758.96,-142.95 789.02,-132.63"/>
<polygon fill="#63b8ff" stroke="#63b8ff" points="790.08,-135.96 798.4,-129.41 787.8,-129.34 790.08,-135.96"/>
</a>
</g>
</g>
<!-- Node10 -->
<g id="Node000010" class="node">
<title>Node10</title>
<g id="a_Node000010"><a xlink:href="_t_channel_8h.html" target="_top" xlink:title=" ">
<polygon fill="white" stroke="#666666" points="692.88,-129.75 628.12,-129.75 628.12,-110.5 692.88,-110.5 692.88,-129.75"/>
<text text-anchor="middle" x="660.5" y="-116.25" font-family="Helvetica,sans-Serif" font-size="10.00">TChannel.h</text>
</a>
</g>
</g>
<!-- Node2&#45;&gt;Node10 -->
<g id="edge9_Node000002_Node000010" class="edge">
<title>Node2&#45;&gt;Node10</title>
<g id="a_edge9_Node000002_Node000010"><a xlink:title=" ">
<path fill="none" stroke="#63b8ff" d="M666.34,-165.58C665.48,-158.99 664.26,-149.71 663.16,-141.32"/>
<polygon fill="#63b8ff" stroke="#63b8ff" points="666.65,-141.07 661.88,-131.61 659.71,-141.98 666.65,-141.07"/>
</a>
</g>
</g>
<!-- Node21 -->
<g id="Node000021" class="node">
<title>Node21</title>
<g id="a_Node000021"><a xlink:href="_t_nucleus_8h.html" target="_top" xlink:title=" ">
<polygon fill="white" stroke="#666666" points="503.25,-129.75 437.75,-129.75 437.75,-110.5 503.25,-110.5 503.25,-129.75"/>
<text text-anchor="middle" x="470.5" y="-116.25" font-family="Helvetica,sans-Serif" font-size="10.00">TNucleus.h</text>
</a>
</g>
</g>
<!-- Node2&#45;&gt;Node21 -->
<g id="edge22_Node000002_Node000021" class="edge">
<title>Node2&#45;&gt;Node21</title>
<g id="a_edge22_Node000002_Node000021"><a xlink:title=" ">
<path fill="none" stroke="#63b8ff" d="M645.16,-168.13C642.24,-167.33 639.3,-166.52 636.5,-165.75 595.12,-154.43 547.87,-141.75 514.39,-132.81"/>
<polygon fill="#63b8ff" stroke="#63b8ff" points="515.62,-129.52 505.06,-130.32 513.81,-136.28 515.62,-129.52"/>
</a>
</g>
</g>
<!-- Node11 -->
<g id="Node000011" class="node">
<title>Node11</title>
<g id="a_Node000011"><a xlink:title=" ">
<polygon fill="#e0e0e0" stroke="#999999" points="797.5,-19.25 757.5,-19.25 757.5,0 797.5,0 797.5,-19.25"/>
<text text-anchor="middle" x="777.5" y="-5.75" font-family="Helvetica,sans-Serif" font-size="10.00">string</text>
</a>
</g>
</g>
<!-- Node10&#45;&gt;Node11 -->
<g id="edge10_Node000010_Node000011" class="edge">
<title>Node10&#45;&gt;Node11</title>
<g id="a_edge10_Node000010_Node000011"><a xlink:title=" ">
<path fill="none" stroke="#63b8ff" d="M693.14,-112.08C695.96,-111.53 698.78,-110.99 701.5,-110.5 754.36,-100.97 905.46,-115.21 940.5,-74.5 978.82,-29.98 866.39,-16.28 808.98,-12.23"/>
<polygon fill="#63b8ff" stroke="#63b8ff" points="809.35,-8.75 799.15,-11.6 808.91,-15.73 809.35,-8.75"/>
</a>
</g>
</g>
<!-- Node12 -->
<g id="Node000012" class="node">
<title>Node12</title>
<g id="a_Node000012"><a xlink:title=" ">
<polygon fill="#e0e0e0" stroke="#999999" points="517,-74.5 474,-74.5 474,-55.25 517,-55.25 517,-74.5"/>
<text text-anchor="middle" x="495.5" y="-61" font-family="Helvetica,sans-Serif" font-size="10.00">cmath</text>
</a>
</g>
</g>
<!-- Node10&#45;&gt;Node12 -->
<g id="edge11_Node000010_Node000012" class="edge">
<title>Node10&#45;&gt;Node12</title>
<g id="a_edge11_Node000010_Node000012"><a xlink:title=" ">
<path fill="none" stroke="#63b8ff" d="M632.51,-110.09C603.65,-100.78 558.68,-86.26 528.2,-76.43"/>
<polygon fill="#63b8ff" stroke="#63b8ff" points="529.32,-73.11 518.73,-73.37 527.17,-79.77 529.32,-73.11"/>
</a>
</g>
</g>
<!-- Node13 -->
<g id="Node000013" class="node">
<title>Node13</title>
<g id="a_Node000013"><a xlink:title=" ">
<polygon fill="#e0e0e0" stroke="#999999" points="931.75,-74.5 893.25,-74.5 893.25,-55.25 931.75,-55.25 931.75,-74.5"/>
<text text-anchor="middle" x="912.5" y="-61" font-family="Helvetica,sans-Serif" font-size="10.00">utility</text>
</a>
</g>
</g>
<!-- Node10&#45;&gt;Node13 -->
<g id="edge12_Node000010_Node000013" class="edge">
<title>Node10&#45;&gt;Node13</title>
<g id="a_edge12_Node000010_Node000013"><a xlink:title=" ">
<path fill="none" stroke="#63b8ff" d="M693.17,-112.21C695.98,-111.63 698.79,-111.05 701.5,-110.5 779.24,-94.68 802.17,-94.7 881.9,-74.95"/>
<polygon fill="#63b8ff" stroke="#63b8ff" points="882.68,-78.37 891.52,-72.54 880.97,-71.58 882.68,-78.37"/>
</a>
</g>
</g>
<!-- Node14 -->
<g id="Node000014" class="node">
<title>Node14</title>
<g id="a_Node000014"><a xlink:title=" ">
<polygon fill="#e0e0e0" stroke="#999999" points="617.88,-74.5 535.12,-74.5 535.12,-55.25 617.88,-55.25 617.88,-74.5"/>
<text text-anchor="middle" x="576.5" y="-61" font-family="Helvetica,sans-Serif" font-size="10.00">unordered_map</text>
</a>
</g>
</g>
<!-- Node10&#45;&gt;Node14 -->
<g id="edge13_Node000010_Node000014" class="edge">
<title>Node10&#45;&gt;Node14</title>
<g id="a_edge13_Node000010_Node000014"><a xlink:title=" ">
<path fill="none" stroke="#63b8ff" d="M646.25,-110.09C633.7,-102.14 615.17,-90.39 600.36,-81"/>
<polygon fill="#63b8ff" stroke="#63b8ff" points="602.42,-78.16 592.1,-75.76 598.67,-84.07 602.42,-78.16"/>
</a>
</g>
</g>
<!-- Node15 -->
<g id="Node000015" class="node">
<title>Node15</title>
<g id="a_Node000015"><a xlink:title=" ">
<polygon fill="#e0e0e0" stroke="#999999" points="417,-74.5 356,-74.5 356,-55.25 417,-55.25 417,-74.5"/>
<text text-anchor="middle" x="386.5" y="-61" font-family="Helvetica,sans-Serif" font-size="10.00">TNamed.h</text>
</a>
</g>
</g>
<!-- Node10&#45;&gt;Node15 -->
<g id="edge14_Node000010_Node000015" class="edge">
<title>Node10&#45;&gt;Node15</title>
<g id="a_edge14_Node000010_Node000015"><a xlink:title=" ">
<path fill="none" stroke="#63b8ff" d="M627.72,-112.75C577.86,-103.06 482.98,-84.63 428.25,-73.99"/>
<polygon fill="#63b8ff" stroke="#63b8ff" points="429.18,-70.6 418.7,-72.13 427.85,-77.48 429.18,-70.6"/>
</a>
</g>
</g>
<!-- Node16 -->
<g id="Node000016" class="node">
<title>Node16</title>
<g id="a_Node000016"><a xlink:title=" ">
<polygon fill="#e0e0e0" stroke="#999999" points="685,-74.5 636,-74.5 636,-55.25 685,-55.25 685,-74.5"/>
<text text-anchor="middle" x="660.5" y="-61" font-family="Helvetica,sans-Serif" font-size="10.00">TTree.h</text>
</a>
</g>
</g>
<!-- Node10&#45;&gt;Node16 -->
<g id="edge15_Node000010_Node000016" class="edge">
<title>Node10&#45;&gt;Node16</title>
<g id="a_edge15_Node000010_Node000016"><a xlink:title=" ">
<path fill="none" stroke="#63b8ff" d="M660.5,-110.33C660.5,-103.82 660.5,-94.67 660.5,-86.37"/>
<polygon fill="#63b8ff" stroke="#63b8ff" points="664,-86.37 660.5,-76.37 657,-86.37 664,-86.37"/>
</a>
</g>
</g>
<!-- Node17 -->
<g id="Node000017" class="node">
<title>Node17</title>
<g id="a_Node000017"><a xlink:title=" ">
<polygon fill="#e0e0e0" stroke="#999999" points="1106.38,-74.5 1050.62,-74.5 1050.62,-55.25 1106.38,-55.25 1106.38,-74.5"/>
<text text-anchor="middle" x="1078.5" y="-61" font-family="Helvetica,sans-Serif" font-size="10.00">TGraph.h</text>
</a>
</g>
</g>
<!-- Node10&#45;&gt;Node17 -->
<g id="edge16_Node000010_Node000017" class="edge">
<title>Node10&#45;&gt;Node17</title>
<g id="a_edge16_Node000010_Node000017"><a xlink:title=" ">
<path fill="none" stroke="#63b8ff" d="M693.12,-111.99C695.95,-111.45 698.77,-110.95 701.5,-110.5 824.16,-90.38 970.69,-75.69 1039.36,-69.34"/>
<polygon fill="#63b8ff" stroke="#63b8ff" points="1039.33,-72.86 1048.97,-68.46 1038.69,-65.89 1039.33,-72.86"/>
</a>
</g>
</g>
<!-- Node18 -->
<g id="Node000018" class="node">
<title>Node18</title>
<g id="a_Node000018"><a xlink:title=" ">
<polygon fill="#e0e0e0" stroke="#999999" points="875.12,-74.5 805.88,-74.5 805.88,-55.25 875.12,-55.25 875.12,-74.5"/>
<text text-anchor="middle" x="840.5" y="-61" font-family="Helvetica,sans-Serif" font-size="10.00">TClassRef.h</text>
</a>
</g>
</g>
<!-- Node10&#45;&gt;Node18 -->
<g id="edge17_Node000010_Node000018" class="edge">
<title>Node10&#45;&gt;Node18</title>
<g id="a_edge17_Node000010_Node000018"><a xlink:title=" ">
<path fill="none" stroke="#63b8ff" d="M691.03,-110.09C720.77,-101.29 766.19,-87.86 799.15,-78.11"/>
<polygon fill="#63b8ff" stroke="#63b8ff" points="799.77,-81.57 808.36,-75.38 797.78,-74.86 799.77,-81.57"/>
</a>
</g>
</g>
<!-- Node19 -->
<g id="Node000019" class="node">
<title>Node19</title>
<g id="a_Node000019"><a xlink:href="_t_priority_value_8h.html" target="_top" xlink:title=" ">
<polygon fill="white" stroke="#666666" points="787.62,-74.5 703.38,-74.5 703.38,-55.25 787.62,-55.25 787.62,-74.5"/>
<text text-anchor="middle" x="745.5" y="-61" font-family="Helvetica,sans-Serif" font-size="10.00">TPriorityValue.h</text>
</a>
</g>
</g>
<!-- Node10&#45;&gt;Node19 -->
<g id="edge18_Node000010_Node000019" class="edge">
<title>Node10&#45;&gt;Node19</title>
<g id="a_edge18_Node000010_Node000019"><a xlink:title=" ">
<path fill="none" stroke="#63b8ff" d="M674.92,-110.09C687.62,-102.14 706.37,-90.39 721.36,-81"/>
<polygon fill="#63b8ff" stroke="#63b8ff" points="723.11,-84.03 729.73,-75.76 719.4,-78.1 723.11,-84.03"/>
</a>
</g>
</g>
<!-- Node19&#45;&gt;Node3 -->
<g id="edge21_Node000019_Node000003" class="edge">
<title>Node19&#45;&gt;Node3</title>
<g id="a_edge21_Node000019_Node000003"><a xlink:title=" ">
<path fill="none" stroke="#63b8ff" d="M702.97,-56.32C700.11,-55.92 697.27,-55.56 694.5,-55.25 414.54,-23.81 337.16,-63.59 54.41,-18.93"/>
<polygon fill="#63b8ff" stroke="#63b8ff" points="55.33,-15.54 44.9,-17.41 54.22,-22.45 55.33,-15.54"/>
</a>
</g>
</g>
<!-- Node19&#45;&gt;Node11 -->
<g id="edge20_Node000019_Node000011" class="edge">
<title>Node19&#45;&gt;Node11</title>
<g id="a_edge20_Node000019_Node000011"><a xlink:title=" ">
<path fill="none" stroke="#63b8ff" d="M750.78,-55.08C754.97,-48.11 760.98,-38.12 766.23,-29.37"/>
<polygon fill="#63b8ff" stroke="#63b8ff" points="769.17,-31.28 771.32,-20.91 763.17,-27.68 769.17,-31.28"/>
</a>
</g>
</g>
<!-- Node20 -->
<g id="Node000020" class="node">
<title>Node20</title>
<g id="a_Node000020"><a xlink:title=" ">
<polygon fill="#e0e0e0" stroke="#999999" points="739.12,-19.25 687.88,-19.25 687.88,0 739.12,0 739.12,-19.25"/>
<text text-anchor="middle" x="713.5" y="-5.75" font-family="Helvetica,sans-Serif" font-size="10.00">ostream</text>
</a>
</g>
</g>
<!-- Node19&#45;&gt;Node20 -->
<g id="edge19_Node000019_Node000020" class="edge">
<title>Node19&#45;&gt;Node20</title>
<g id="a_edge19_Node000019_Node000020"><a xlink:title=" ">
<path fill="none" stroke="#63b8ff" d="M740.22,-55.08C736.03,-48.11 730.02,-38.12 724.77,-29.37"/>
<polygon fill="#63b8ff" stroke="#63b8ff" points="727.83,-27.68 719.68,-20.91 721.83,-31.28 727.83,-27.68"/>
</a>
</g>
</g>
<!-- Node21&#45;&gt;Node11 -->
<g id="edge26_Node000021_Node000011" class="edge">
<title>Node21&#45;&gt;Node11</title>
<g id="a_edge26_Node000021_Node000011"><a xlink:title=" ">
<path fill="none" stroke="#63b8ff" d="M465.93,-110.01C459.78,-96.33 451.1,-70.46 464.5,-55.25 504.51,-9.85 669.03,-30.11 745.9,-19.12"/>
<polygon fill="#63b8ff" stroke="#63b8ff" points="746.28,-22.61 755.52,-17.43 745.07,-15.71 746.28,-22.61"/>
</a>
</g>
</g>
<!-- Node21&#45;&gt;Node12 -->
<g id="edge23_Node000021_Node000012" class="edge">
<title>Node21&#45;&gt;Node12</title>
<g id="a_edge23_Node000021_Node000012"><a xlink:title=" ">
<path fill="none" stroke="#63b8ff" d="M474.63,-110.33C477.83,-103.51 482.39,-93.81 486.43,-85.2"/>
<polygon fill="#63b8ff" stroke="#63b8ff" points="489.56,-86.77 490.64,-76.23 483.22,-83.79 489.56,-86.77"/>
</a>
</g>
</g>
<!-- Node21&#45;&gt;Node15 -->
<g id="edge30_Node000021_Node000015" class="edge">
<title>Node21&#45;&gt;Node15</title>
<g id="a_edge30_Node000021_Node000015"><a xlink:title=" ">
<path fill="none" stroke="#63b8ff" d="M456.25,-110.09C443.7,-102.14 425.17,-90.39 410.36,-81"/>
<polygon fill="#63b8ff" stroke="#63b8ff" points="412.42,-78.16 402.1,-75.76 408.67,-84.07 412.42,-78.16"/>
</a>
</g>
</g>
<!-- Node22 -->
<g id="Node000022" class="node">
<title>Node22</title>
<g id="a_Node000022"><a xlink:title=" ">
<polygon fill="#e0e0e0" stroke="#999999" points="338.12,-74.5 292.88,-74.5 292.88,-55.25 338.12,-55.25 338.12,-74.5"/>
<text text-anchor="middle" x="315.5" y="-61" font-family="Helvetica,sans-Serif" font-size="10.00">cstring</text>
</a>
</g>
</g>
<!-- Node21&#45;&gt;Node22 -->
<g id="edge24_Node000021_Node000022" class="edge">
<title>Node21&#45;&gt;Node22</title>
<g id="a_edge24_Node000021_Node000022"><a xlink:title=" ">
<path fill="none" stroke="#63b8ff" d="M444.21,-110.09C417.98,-101.08 377.58,-87.2 349.05,-77.4"/>
<polygon fill="#63b8ff" stroke="#63b8ff" points="350.41,-74.17 339.81,-74.23 348.13,-80.79 350.41,-74.17"/>
</a>
</g>
</g>
<!-- Node23 -->
<g id="Node000023" class="node">
<title>Node23</title>
<g id="a_Node000023"><a xlink:title=" ">
<polygon fill="#e0e0e0" stroke="#999999" points="181.75,-74.5 137.25,-74.5 137.25,-55.25 181.75,-55.25 181.75,-74.5"/>
<text text-anchor="middle" x="159.5" y="-61" font-family="Helvetica,sans-Serif" font-size="10.00">cstdlib</text>
</a>
</g>
</g>
<!-- Node21&#45;&gt;Node23 -->
<g id="edge25_Node000021_Node000023" class="edge">
<title>Node21&#45;&gt;Node23</title>
<g id="a_edge25_Node000021_Node000023"><a xlink:title=" ">
<path fill="none" stroke="#63b8ff" d="M437.41,-112C434.74,-111.47 432.08,-110.97 429.5,-110.5 327.72,-92.11 298.15,-96.15 193.23,-74.63"/>
<polygon fill="#63b8ff" stroke="#63b8ff" points="194.13,-71.24 183.63,-72.63 192.71,-78.1 194.13,-71.24"/>
</a>
</g>
</g>
<!-- Node24 -->
<g id="Node000024" class="node">
<title>Node24</title>
<g id="a_Node000024"><a xlink:href="_t_transition_8h.html" target="_top" xlink:title=" ">
<polygon fill="white" stroke="#666666" points="119.62,-74.5 47.38,-74.5 47.38,-55.25 119.62,-55.25 119.62,-74.5"/>
<text text-anchor="middle" x="83.5" y="-61" font-family="Helvetica,sans-Serif" font-size="10.00">TTransition.h</text>
</a>
</g>
</g>
<!-- Node21&#45;&gt;Node24 -->
<g id="edge27_Node000021_Node000024" class="edge">
<title>Node21&#45;&gt;Node24</title>
<g id="a_edge27_Node000021_Node000024"><a xlink:title=" ">
<path fill="none" stroke="#63b8ff" d="M437.43,-111.91C434.75,-111.4 432.08,-110.93 429.5,-110.5 300.06,-89.19 263.54,-94.87 130.81,-74.75"/>
<polygon fill="#63b8ff" stroke="#63b8ff" points="131.72,-71.35 121.31,-73.29 130.66,-78.27 131.72,-71.35"/>
</a>
</g>
</g>
<!-- Node27 -->
<g id="Node000027" class="node">
<title>Node27</title>
<g id="a_Node000027"><a xlink:title=" ">
<polygon fill="#e0e0e0" stroke="#999999" points="274.75,-74.5 200.25,-74.5 200.25,-55.25 274.75,-55.25 274.75,-74.5"/>
<text text-anchor="middle" x="237.5" y="-61" font-family="Helvetica,sans-Serif" font-size="10.00">TSortedList.h</text>
</a>
</g>
</g>
<!-- Node21&#45;&gt;Node27 -->
<g id="edge31_Node000021_Node000027" class="edge">
<title>Node21&#45;&gt;Node27</title>
<g id="a_edge31_Node000021_Node000027"><a xlink:title=" ">
<path fill="none" stroke="#63b8ff" d="M437.61,-111.61C398.18,-102.6 331.73,-87.41 286.31,-77.03"/>
<polygon fill="#63b8ff" stroke="#63b8ff" points="287.24,-73.65 276.72,-74.84 285.68,-80.48 287.24,-73.65"/>
</a>
</g>
</g>
<!-- Node25 -->
<g id="Node000025" class="node">
<title>Node25</title>
<g id="a_Node000025"><a xlink:title=" ">
<polygon fill="#e0e0e0" stroke="#999999" points="104.62,-19.25 62.38,-19.25 62.38,0 104.62,0 104.62,-19.25"/>
<text text-anchor="middle" x="83.5" y="-5.75" font-family="Helvetica,sans-Serif" font-size="10.00">cstdio</text>
</a>
</g>
</g>
<!-- Node24&#45;&gt;Node25 -->
<g id="edge28_Node000024_Node000025" class="edge">
<title>Node24&#45;&gt;Node25</title>
<g id="a_edge28_Node000024_Node000025"><a xlink:title=" ">
<path fill="none" stroke="#63b8ff" d="M83.5,-55.08C83.5,-48.57 83.5,-39.42 83.5,-31.12"/>
<polygon fill="#63b8ff" stroke="#63b8ff" points="87,-31.12 83.5,-21.12 80,-31.12 87,-31.12"/>
</a>
</g>
</g>
<!-- Node26 -->
<g id="Node000026" class="node">
<title>Node26</title>
<g id="a_Node000026"><a xlink:title=" ">
<polygon fill="#e0e0e0" stroke="#999999" points="441.5,-19.25 383.5,-19.25 383.5,0 441.5,0 441.5,-19.25"/>
<text text-anchor="middle" x="412.5" y="-5.75" font-family="Helvetica,sans-Serif" font-size="10.00">TObject.h</text>
</a>
</g>
</g>
<!-- Node24&#45;&gt;Node26 -->
<g id="edge29_Node000024_Node000026" class="edge">
<title>Node24&#45;&gt;Node26</title>
<g id="a_edge29_Node000024_Node000026"><a xlink:title=" ">
<path fill="none" stroke="#63b8ff" d="M119.83,-56.8C122.76,-56.27 125.68,-55.74 128.5,-55.25 214.85,-40.2 316.37,-24.8 371.62,-16.61"/>
<polygon fill="#63b8ff" stroke="#63b8ff" points="372.13,-20.07 381.51,-15.15 371.11,-13.15 372.13,-20.07"/>
</a>
</g>
</g>
<!-- Node28&#45;&gt;Node2 -->
<g id="edge33_Node000028_Node000002" class="edge">
<title>Node28&#45;&gt;Node2</title>
<g id="a_edge33_Node000028_Node000002"><a xlink:title=" ">
<path fill="none" stroke="#63b8ff" d="M639.95,-220.83C644.27,-213.86 650.46,-203.87 655.88,-195.12"/>
<polygon fill="#63b8ff" stroke="#63b8ff" points="658.84,-196.99 661.14,-186.65 652.89,-193.3 658.84,-196.99"/>
</a>
</g>
</g>
<!-- Node28&#45;&gt;Node15 -->
<g id="edge34_Node000028_Node000015" class="edge">
<title>Node28&#45;&gt;Node15</title>
<g id="a_edge34_Node000028_Node000015"><a xlink:title=" ">
<path fill="none" stroke="#63b8ff" d="M593.62,-225.65C500.99,-215.7 279.71,-186.39 235.5,-129.75 230.24,-123.01 230.38,-117.35 235.5,-110.5 242.21,-101.52 302.27,-85.74 344.59,-75.55"/>
<polygon fill="#63b8ff" stroke="#63b8ff" points="345.33,-78.97 354.25,-73.25 343.71,-72.16 345.33,-78.97"/>
</a>
</g>
</g>
<!-- Node29 -->
<g id="Node000029" class="node">
<title>Node29</title>
<g id="a_Node000029"><a xlink:title=" ">
<polygon fill="#e0e0e0" stroke="#999999" points="627.62,-185 573.38,-185 573.38,-165.75 627.62,-165.75 627.62,-185"/>
<text text-anchor="middle" x="600.5" y="-171.5" font-family="Helvetica,sans-Serif" font-size="10.00">TClass.h</text>
</a>
</g>
</g>
<!-- Node28&#45;&gt;Node29 -->
<g id="edge35_Node000028_Node000029" class="edge">
<title>Node28&#45;&gt;Node29</title>
<g id="a_edge35_Node000028_Node000029"><a xlink:title=" ">
<path fill="none" stroke="#63b8ff" d="M628.89,-220.83C624.38,-213.78 617.91,-203.65 612.29,-194.83"/>
<polygon fill="#63b8ff" stroke="#63b8ff" points="615.38,-193.18 607.05,-186.63 609.48,-196.95 615.38,-193.18"/>
</a>
</g>
</g>
<!-- Node30&#45;&gt;Node5 -->
<g id="edge37_Node000030_Node000005" class="edge">
<title>Node30&#45;&gt;Node5</title>
<g id="a_edge37_Node000030_Node000005"><a xlink:title=" ">
<path fill="none" stroke="#63b8ff" d="M969.76,-226.12C994.36,-221.34 1030.03,-210.26 1048.5,-185 1057.66,-172.47 1058.63,-154.66 1057.6,-141.02"/>
<polygon fill="#63b8ff" stroke="#63b8ff" points="1061.12,-140.97 1056.46,-131.45 1054.17,-141.8 1061.12,-140.97"/>
</a>
</g>
</g>
<!-- Node30&#45;&gt;Node17 -->
<g id="edge39_Node000030_Node000017" class="edge">
<title>Node30&#45;&gt;Node17</title>
<g id="a_edge39_Node000030_Node000017"><a xlink:title=" ">
<path fill="none" stroke="#63b8ff" d="M943.59,-220.88C944.22,-207.22 947.45,-180.8 962.5,-165.75 1002.17,-126.07 1049.96,-174.73 1083.5,-129.75 1092.86,-117.2 1090.42,-99.14 1086.32,-85.42"/>
<polygon fill="#63b8ff" stroke="#63b8ff" points="1089.68,-84.43 1083.05,-76.16 1083.08,-86.76 1089.68,-84.43"/>
</a>
</g>
</g>
<!-- Node31 -->
<g id="Node000031" class="node">
<title>Node31</title>
<g id="a_Node000031"><a xlink:title=" ">
<polygon fill="#e0e0e0" stroke="#999999" points="1039.75,-185 971.25,-185 971.25,-165.75 1039.75,-165.75 1039.75,-185"/>
<text text-anchor="middle" x="1005.5" y="-171.5" font-family="Helvetica,sans-Serif" font-size="10.00">TFitResult.h</text>
</a>
</g>
</g>
<!-- Node30&#45;&gt;Node31 -->
<g id="edge38_Node000030_Node000031" class="edge">
<title>Node30&#45;&gt;Node31</title>
<g id="a_edge38_Node000030_Node000031"><a xlink:title=" ">
<path fill="none" stroke="#63b8ff" d="M954.02,-220.59C962.89,-212.97 975.81,-201.87 986.49,-192.7"/>
<polygon fill="#63b8ff" stroke="#63b8ff" points="988.68,-195.43 993.99,-186.26 984.12,-190.12 988.68,-195.43"/>
</a>
</g>
</g>
<!-- Node32 -->
<g id="Node000032" class="node">
<title>Node32</title>
<g id="a_Node000032"><a xlink:href="_t_g_r_s_i_fit_8h.html" target="_top" xlink:title=" ">
<polygon fill="white" stroke="#666666" points="915.88,-185 851.12,-185 851.12,-165.75 915.88,-165.75 915.88,-185"/>
<text text-anchor="middle" x="883.5" y="-171.5" font-family="Helvetica,sans-Serif" font-size="10.00">TGRSIFit.h</text>
</a>
</g>
</g>
<!-- Node30&#45;&gt;Node32 -->
<g id="edge40_Node000030_Node000032" class="edge">
<title>Node30&#45;&gt;Node32</title>
<g id="a_edge40_Node000030_Node000032"><a xlink:title=" ">
<path fill="none" stroke="#63b8ff" d="M933.32,-220.59C924.74,-212.97 912.23,-201.87 901.9,-192.7"/>
<polygon fill="#63b8ff" stroke="#63b8ff" points="904.46,-190.3 894.66,-186.28 899.82,-195.54 904.46,-190.3"/>
</a>
</g>
</g>
<!-- Node32&#45;&gt;Node4 -->
<g id="edge42_Node000032_Node000004" class="edge">
<title>Node32&#45;&gt;Node4</title>
<g id="a_edge42_Node000032_Node000004"><a xlink:title=" ">
<path fill="none" stroke="#63b8ff" d="M883.5,-165.58C883.5,-159.07 883.5,-149.92 883.5,-141.62"/>
<polygon fill="#63b8ff" stroke="#63b8ff" points="887,-141.62 883.5,-131.62 880,-141.62 887,-141.62"/>
</a>
</g>
</g>
<!-- Node32&#45;&gt;Node5 -->
<g id="edge43_Node000032_Node000005" class="edge">
<title>Node32&#45;&gt;Node5</title>
<g id="a_edge43_Node000032_Node000005"><a xlink:title=" ">
<path fill="none" stroke="#63b8ff" d="M912.51,-165.34C943.23,-155.78 991.56,-140.72 1023.15,-130.89"/>
<polygon fill="#63b8ff" stroke="#63b8ff" points="1024.01,-134.29 1032.52,-127.97 1021.93,-127.6 1024.01,-134.29"/>
</a>
</g>
</g>
<!-- Node32&#45;&gt;Node6 -->
<g id="edge44_Node000032_Node000006" class="edge">
<title>Node32&#45;&gt;Node6</title>
<g id="a_edge44_Node000032_Node000006"><a xlink:title=" ">
<path fill="none" stroke="#63b8ff" d="M860.26,-165.34C838.31,-156.81 805.15,-143.92 780.29,-134.26"/>
<polygon fill="#63b8ff" stroke="#63b8ff" points="781.85,-131.11 771.26,-130.75 779.32,-137.64 781.85,-131.11"/>
</a>
</g>
</g>
<!-- Node32&#45;&gt;Node9 -->
<g id="edge45_Node000032_Node000009" class="edge">
<title>Node32&#45;&gt;Node9</title>
<g id="a_edge45_Node000032_Node000009"><a xlink:title=" ">
<path fill="none" stroke="#63b8ff" d="M873.15,-165.34C864.42,-157.72 851.71,-146.62 841.2,-137.45"/>
<polygon fill="#63b8ff" stroke="#63b8ff" points="843.67,-134.96 833.84,-131.02 839.07,-140.23 843.67,-134.96"/>
</a>
</g>
</g>
<!-- Node32&#45;&gt;Node26 -->
<g id="edge41_Node000032_Node000026" class="edge">
<title>Node32&#45;&gt;Node26</title>
<g id="a_edge41_Node000032_Node000026"><a xlink:title=" ">
<path fill="none" stroke="#63b8ff" d="M894.22,-165.26C918.23,-143.81 971.84,-89.35 940.5,-55.25 924.03,-37.33 573.72,-18.53 452.98,-12.56"/>
<polygon fill="#63b8ff" stroke="#63b8ff" points="453.37,-9.08 443.21,-12.08 453.03,-16.07 453.37,-9.08"/>
</a>
</g>
</g>
<!-- Node33 -->
<g id="Node000033" class="node">
<title>Node33</title>
<g id="a_Node000033"><a xlink:title=" ">
<polygon fill="#e0e0e0" stroke="#999999" points="1016,-129.75 961,-129.75 961,-110.5 1016,-110.5 1016,-129.75"/>
<text text-anchor="middle" x="988.5" y="-116.25" font-family="Helvetica,sans-Serif" font-size="10.00">TString.h</text>
</a>
</g>
</g>
<!-- Node32&#45;&gt;Node33 -->
<g id="edge46_Node000032_Node000033" class="edge">
<title>Node32&#45;&gt;Node33</title>
<g id="a_edge46_Node000032_Node000033"><a xlink:title=" ">
<path fill="none" stroke="#63b8ff" d="M901.31,-165.34C917.53,-157.12 941.74,-144.84 960.53,-135.31"/>
<polygon fill="#63b8ff" stroke="#63b8ff" points="961.92,-138.53 969.25,-130.89 958.75,-132.29 961.92,-138.53"/>
</a>
</g>
</g>
</g>
</svg>

<g id="navigator" transform="translate(0 0)" fill="#404254">
  <rect fill="#f2f5e9" fill-opacity="0.5" stroke="#606060" stroke-width=".5" x="0" y="0" width="60" height="60"/>
  <use id="zoomplus" xlink:href="#zoomPlus" x="17" y="9" onmousedown="handleZoom(evt,'in')"/>
  <use id="zoomminus" xlink:href="#zoomMin" x="42" y="9" onmousedown="handleZoom(evt,'out')"/>
  <use id="reset" xlink:href="#resetDef" x="30" y="36" onmousedown="handleReset()"/>
   <use id="arrowup" xlink:href="#arrowUp" x="0" y="0" onmousedown="handlePan(0,-1)"/>
  <use id="arrowright" xlink:href="#arrowRight" x="0" y="0" onmousedown="handlePan(1,0)"/>
  <use id="arrowdown" xlink:href="#arrowDown" x="0" y="0" onmousedown="handlePan(0,1)"/>
  <use id="arrowleft" xlink:href="#arrowLeft" x="0" y="0" onmousedown="handlePan(-1,0)"/>
</g>
<svg viewBox="0 0 15 15" width="100%" height="30px" preserveAspectRatio="xMaxYMin meet">
 <g id="arrow_out" transform="scale(0.3 0.3)">
  <a xlink:href="_t_gain_match_8h__incl_org.svg" target="_base">
   <rect id="button" ry="5" rx="5" y="6" x="6" height="38" width="38"
        fill="#f2f5e9" fill-opacity="0.5" stroke="#606060" stroke-width="1.0"/>
   <path id="arrow"
     d="M 11.500037,31.436501 C 11.940474,20.09759 22.043105,11.32322 32.158766,21.979434 L 37.068811,17.246167 C 37.068811,17.246167 37.088388,32 37.088388,32 L 22.160133,31.978069 C 22.160133,31.978069 26.997745,27.140456 26.997745,27.140456 C 18.528582,18.264221 13.291696,25.230495 11.500037,31.436501 z"
     style="fill:#404040;"/>
  </a>
 </g>
</svg>

<style type='text/css'>
<![CDATA[
[data-mouse-over-selected='false'] { opacity: 0.7; }
[data-mouse-over-selected='true']  { opacity: 1.0; }
]]>
</style>
<script type="application/ecmascript"><![CDATA[
document.addEventListener('DOMContentLoaded', (event) => {
  highlightEdges();
  highlightAdjacentNodes();
});
]]></script>
</svg>
