<?xml version="1.0" encoding="UTF-8" standalone="no"?>
<!DOCTYPE svg PUBLIC "-//W3C//DTD SVG 1.1//EN"
 "http://www.w3.org/Graphics/SVG/1.1/DTD/svg11.dtd">
<!-- Generated by graphviz version 12.2.0 (20241103.1931)
 -->
<!-- Title: TGriffinHit.h Pages: 1 -->
<svg width="3882pt" height="193pt"
 viewBox="0.00 0.00 3881.75 193.00" xmlns="http://www.w3.org/2000/svg" xmlns:xlink="http://www.w3.org/1999/xlink">
<g id="graph0" class="graph" transform="scale(1 1) rotate(0) translate(4 189)">
<title>TGriffinHit.h</title>
<!-- Node1 -->
<g id="Node000001" class="node">
<title>Node1</title>
<g id="a_Node000001"><a xlink:title=" ">
<polygon fill="#999999" stroke="#666666" points="2049.25,-185 1982.25,-185 1982.25,-165.75 2049.25,-165.75 2049.25,-185"/>
<text text-anchor="middle" x="2015.75" y="-171.5" font-family="Helvetica,sans-Serif" font-size="10.00">TGriffinHit.h</text>
</a>
</g>
</g>
<!-- Node2 -->
<g id="Node000002" class="node">
<title>Node2</title>
<g id="a_Node000002"><a xlink:href="_gain_match_g_r_i_f_f_i_n_8cxx.html" target="_top" xlink:title=" ">
<polygon fill="white" stroke="#666666" points="119.5,-74.5 0,-74.5 0,-55.25 119.5,-55.25 119.5,-74.5"/>
<text text-anchor="middle" x="59.75" y="-61" font-family="Helvetica,sans-Serif" font-size="10.00">GainMatchGRIFFIN.cxx</text>
</a>
</g>
</g>
<!-- Node1&#45;&gt;Node2 -->
<g id="edge1_Node000001_Node000002" class="edge">
<title>Node1&#45;&gt;Node2</title>
<g id="a_edge1_Node000001_Node000002"><a xlink:title=" ">
<path fill="none" stroke="#63b8ff" d="M1970.44,-173.17C1760.61,-167.35 862.41,-139.69 128.75,-74.5 125.86,-74.24 122.91,-73.96 119.93,-73.66"/>
<polygon fill="#63b8ff" stroke="#63b8ff" points="1970.27,-176.67 1980.36,-173.45 1970.46,-169.67 1970.27,-176.67"/>
</a>
</g>
</g>
<!-- Node3 -->
<g id="Node000003" class="node">
<title>Node3</title>
<g id="a_Node000003"><a xlink:href="_t_griffin_8h.html" target="_top" xlink:title=" ">
<polygon fill="white" stroke="#666666" points="2042.88,-129.75 1988.62,-129.75 1988.62,-110.5 2042.88,-110.5 2042.88,-129.75"/>
<text text-anchor="middle" x="2015.75" y="-116.25" font-family="Helvetica,sans-Serif" font-size="10.00">TGriffin.h</text>
</a>
</g>
</g>
<!-- Node1&#45;&gt;Node3 -->
<g id="edge2_Node000001_Node000003" class="edge">
<title>Node1&#45;&gt;Node3</title>
<g id="a_edge2_Node000001_Node000003"><a xlink:title=" ">
<path fill="none" stroke="#63b8ff" d="M2015.75,-154.13C2015.75,-145.84 2015.75,-136.67 2015.75,-130.11"/>
<polygon fill="#63b8ff" stroke="#63b8ff" points="2012.25,-154.07 2015.75,-164.07 2019.25,-154.07 2012.25,-154.07"/>
</a>
</g>
</g>
<!-- Node42 -->
<g id="Node000042" class="node">
<title>Node42</title>
<g id="a_Node000042"><a xlink:href="_t_griffin_hit_8cxx.html" target="_top" xlink:title=" ">
<polygon fill="white" stroke="#666666" points="3873.75,-74.5 3797.75,-74.5 3797.75,-55.25 3873.75,-55.25 3873.75,-74.5"/>
<text text-anchor="middle" x="3835.75" y="-61" font-family="Helvetica,sans-Serif" font-size="10.00">TGriffinHit.cxx</text>
</a>
</g>
</g>
<!-- Node1&#45;&gt;Node42 -->
<g id="edge51_Node000001_Node000042" class="edge">
<title>Node1&#45;&gt;Node42</title>
<g id="a_edge51_Node000001_Node000042"><a xlink:title=" ">
<path fill="none" stroke="#63b8ff" d="M2061.01,-173.91C2263.28,-171.38 3104.42,-156.24 3788.75,-74.5 3791.55,-74.17 3794.44,-73.77 3797.34,-73.33"/>
<polygon fill="#63b8ff" stroke="#63b8ff" points="2061.16,-170.41 2051.21,-174.03 2061.25,-177.4 2061.16,-170.41"/>
</a>
</g>
</g>
<!-- Node3&#45;&gt;Node2 -->
<g id="edge32_Node000003_Node000002" class="edge">
<title>Node3&#45;&gt;Node2</title>
<g id="a_edge32_Node000003_Node000002"><a xlink:title=" ">
<path fill="none" stroke="#63b8ff" d="M1976.78,-118.74C1741.36,-116.33 506.58,-102.51 128.75,-74.5 125.86,-74.29 122.91,-74.04 119.93,-73.76"/>
<polygon fill="#63b8ff" stroke="#63b8ff" points="1976.6,-122.24 1986.63,-118.84 1976.67,-115.24 1976.6,-122.24"/>
</a>
</g>
</g>
<!-- Node4 -->
<g id="Node000004" class="node">
<title>Node4</title>
<g id="a_Node000004"><a xlink:href="_alphanumeric_helper_8hh.html" target="_top" xlink:title=" ">
<polygon fill="white" stroke="#666666" points="254,-74.5 137.5,-74.5 137.5,-55.25 254,-55.25 254,-74.5"/>
<text text-anchor="middle" x="195.75" y="-61" font-family="Helvetica,sans-Serif" font-size="10.00">AlphanumericHelper.hh</text>
</a>
</g>
</g>
<!-- Node3&#45;&gt;Node4 -->
<g id="edge3_Node000003_Node000004" class="edge">
<title>Node3&#45;&gt;Node4</title>
<g id="a_edge3_Node000003_Node000004"><a xlink:title=" ">
<path fill="none" stroke="#63b8ff" d="M1976.78,-118.67C1751.42,-115.94 613.05,-101.03 263.75,-74.5 260.66,-74.27 257.5,-73.99 254.32,-73.68"/>
<polygon fill="#63b8ff" stroke="#63b8ff" points="1976.73,-122.17 1986.77,-118.79 1976.81,-115.17 1976.73,-122.17"/>
</a>
</g>
</g>
<!-- Node6 -->
<g id="Node000006" class="node">
<title>Node6</title>
<g id="a_Node000006"><a xlink:href="_alphanumeric_selector_8h.html" target="_top" xlink:title=" ">
<polygon fill="white" stroke="#666666" points="391.12,-74.5 272.38,-74.5 272.38,-55.25 391.12,-55.25 391.12,-74.5"/>
<text text-anchor="middle" x="331.75" y="-61" font-family="Helvetica,sans-Serif" font-size="10.00">AlphanumericSelector.h</text>
</a>
</g>
</g>
<!-- Node3&#45;&gt;Node6 -->
<g id="edge5_Node000003_Node000006" class="edge">
<title>Node3&#45;&gt;Node6</title>
<g id="a_edge5_Node000003_Node000006"><a xlink:title=" ">
<path fill="none" stroke="#63b8ff" d="M1976.85,-119.44C1797.05,-120.58 1028.54,-122.3 400.75,-74.5 397.74,-74.27 394.66,-74 391.55,-73.71"/>
<polygon fill="#63b8ff" stroke="#63b8ff" points="1976.82,-122.94 1986.79,-119.37 1976.77,-115.94 1976.82,-122.94"/>
</a>
</g>
</g>
<!-- Node8 -->
<g id="Node000008" class="node">
<title>Node8</title>
<g id="a_Node000008"><a xlink:href="_angular_correlation_helper_8hh.html" target="_top" xlink:title=" ">
<polygon fill="white" stroke="#666666" points="546.12,-74.5 409.38,-74.5 409.38,-55.25 546.12,-55.25 546.12,-74.5"/>
<text text-anchor="middle" x="477.75" y="-61" font-family="Helvetica,sans-Serif" font-size="10.00">AngularCorrelationHelper.hh</text>
</a>
</g>
</g>
<!-- Node3&#45;&gt;Node8 -->
<g id="edge7_Node000003_Node000008" class="edge">
<title>Node3&#45;&gt;Node8</title>
<g id="a_edge7_Node000003_Node000008"><a xlink:title=" ">
<path fill="none" stroke="#63b8ff" d="M1976.84,-119.09C1807.58,-118.71 1118.68,-114.63 554.75,-74.5 552.07,-74.31 549.33,-74.1 546.57,-73.86"/>
<polygon fill="#63b8ff" stroke="#63b8ff" points="1976.82,-122.59 1986.82,-119.11 1976.83,-115.59 1976.82,-122.59"/>
</a>
</g>
</g>
<!-- Node10 -->
<g id="Node000010" class="node">
<title>Node10</title>
<g id="a_Node000010"><a xlink:href="_angular_correlation_selector_8h.html" target="_top" xlink:title=" ">
<polygon fill="white" stroke="#666666" points="703.25,-74.5 564.25,-74.5 564.25,-55.25 703.25,-55.25 703.25,-74.5"/>
<text text-anchor="middle" x="633.75" y="-61" font-family="Helvetica,sans-Serif" font-size="10.00">AngularCorrelationSelector.h</text>
</a>
</g>
</g>
<!-- Node3&#45;&gt;Node10 -->
<g id="edge9_Node000003_Node000010" class="edge">
<title>Node3&#45;&gt;Node10</title>
<g id="a_edge9_Node000003_Node000010"><a xlink:title=" ">
<path fill="none" stroke="#63b8ff" d="M1976.75,-118.87C1818.71,-117.61 1210.49,-110.56 711.75,-74.5 709.03,-74.3 706.26,-74.09 703.47,-73.85"/>
<polygon fill="#63b8ff" stroke="#63b8ff" points="1976.64,-122.37 1986.67,-118.95 1976.69,-115.37 1976.64,-122.37"/>
</a>
</g>
</g>
<!-- Node12 -->
<g id="Node000012" class="node">
<title>Node12</title>
<g id="a_Node000012"><a xlink:href="_compton_polarimetry_helper_8hh.html" target="_top" xlink:title=" ">
<polygon fill="white" stroke="#666666" points="866.25,-74.5 721.25,-74.5 721.25,-55.25 866.25,-55.25 866.25,-74.5"/>
<text text-anchor="middle" x="793.75" y="-61" font-family="Helvetica,sans-Serif" font-size="10.00">ComptonPolarimetryHelper.hh</text>
</a>
</g>
</g>
<!-- Node3&#45;&gt;Node12 -->
<g id="edge11_Node000003_Node000012" class="edge">
<title>Node3&#45;&gt;Node12</title>
<g id="a_edge11_Node000003_Node000012"><a xlink:title=" ">
<path fill="none" stroke="#63b8ff" d="M1977.01,-118.55C1831.86,-116.2 1306.49,-105.89 874.75,-74.5 872.07,-74.31 869.34,-74.09 866.59,-73.86"/>
<polygon fill="#63b8ff" stroke="#63b8ff" points="1976.77,-122.05 1986.82,-118.71 1976.88,-115.05 1976.77,-122.05"/>
</a>
</g>
</g>
<!-- Node14 -->
<g id="Node000014" class="node">
<title>Node14</title>
<g id="a_Node000014"><a xlink:href="_cross_talk_8h.html" target="_top" xlink:title=" ">
<polygon fill="white" stroke="#666666" points="951.62,-74.5 883.88,-74.5 883.88,-55.25 951.62,-55.25 951.62,-74.5"/>
<text text-anchor="middle" x="917.75" y="-61" font-family="Helvetica,sans-Serif" font-size="10.00">CrossTalk.h</text>
</a>
</g>
</g>
<!-- Node3&#45;&gt;Node14 -->
<g id="edge13_Node000003_Node000014" class="edge">
<title>Node3&#45;&gt;Node14</title>
<g id="a_edge13_Node000003_Node000014"><a xlink:title=" ">
<path fill="none" stroke="#63b8ff" d="M1977.11,-119.65C1838.8,-121.09 1355.56,-122.15 960.75,-74.5 957.88,-74.15 954.91,-73.72 951.94,-73.23"/>
<polygon fill="#63b8ff" stroke="#63b8ff" points="1976.85,-123.16 1986.81,-119.55 1976.77,-116.16 1976.85,-123.16"/>
</a>
</g>
</g>
<!-- Node16 -->
<g id="Node000016" class="node">
<title>Node16</title>
<g id="a_Node000016"><a xlink:href="_cross_talk_helper_8hh.html" target="_top" xlink:title=" ">
<polygon fill="white" stroke="#666666" points="1071.5,-74.5 970,-74.5 970,-55.25 1071.5,-55.25 1071.5,-74.5"/>
<text text-anchor="middle" x="1020.75" y="-61" font-family="Helvetica,sans-Serif" font-size="10.00">CrossTalkHelper.hh</text>
</a>
</g>
</g>
<!-- Node3&#45;&gt;Node16 -->
<g id="edge15_Node000003_Node000016" class="edge">
<title>Node3&#45;&gt;Node16</title>
<g id="a_edge15_Node000003_Node000016"><a xlink:title=" ">
<path fill="none" stroke="#63b8ff" d="M1977.02,-118.59C1848.93,-116.56 1427.45,-107.62 1080.75,-74.5 1077.82,-74.22 1074.81,-73.9 1071.77,-73.55"/>
<polygon fill="#63b8ff" stroke="#63b8ff" points="1976.58,-122.09 1986.63,-118.74 1976.69,-115.09 1976.58,-122.09"/>
</a>
</g>
</g>
<!-- Node18 -->
<g id="Node000018" class="node">
<title>Node18</title>
<g id="a_Node000018"><a xlink:href="_deadtime_8cxx.html" target="_top" xlink:title=" ">
<polygon fill="white" stroke="#666666" points="1163.62,-74.5 1089.88,-74.5 1089.88,-55.25 1163.62,-55.25 1163.62,-74.5"/>
<text text-anchor="middle" x="1126.75" y="-61" font-family="Helvetica,sans-Serif" font-size="10.00">Deadtime.cxx</text>
</a>
</g>
</g>
<!-- Node3&#45;&gt;Node18 -->
<g id="edge17_Node000003_Node000018" class="edge">
<title>Node3&#45;&gt;Node18</title>
<g id="a_edge17_Node000003_Node000018"><a xlink:title=" ">
<path fill="none" stroke="#63b8ff" d="M1976.89,-118.9C1856.81,-117.79 1481.21,-111.42 1172.75,-74.5 1169.93,-74.16 1167.01,-73.76 1164.09,-73.3"/>
<polygon fill="#63b8ff" stroke="#63b8ff" points="1976.8,-122.39 1986.83,-118.98 1976.86,-115.39 1976.8,-122.39"/>
</a>
</g>
</g>
<!-- Node19 -->
<g id="Node000019" class="node">
<title>Node19</title>
<g id="a_Node000019"><a xlink:href="_directory_helper_8hh.html" target="_top" xlink:title=" ">
<polygon fill="white" stroke="#666666" points="1277.5,-74.5 1182,-74.5 1182,-55.25 1277.5,-55.25 1277.5,-74.5"/>
<text text-anchor="middle" x="1229.75" y="-61" font-family="Helvetica,sans-Serif" font-size="10.00">DirectoryHelper.hh</text>
</a>
</g>
</g>
<!-- Node3&#45;&gt;Node19 -->
<g id="edge18_Node000003_Node000019" class="edge">
<title>Node3&#45;&gt;Node19</title>
<g id="a_edge18_Node000003_Node000019"><a xlink:title=" ">
<path fill="none" stroke="#63b8ff" d="M1976.82,-117.96C1867.69,-114.44 1549.57,-102.37 1286.75,-74.5 1283.86,-74.19 1280.9,-73.85 1277.91,-73.47"/>
<polygon fill="#63b8ff" stroke="#63b8ff" points="1976.58,-121.46 1986.69,-118.28 1976.81,-114.46 1976.58,-121.46"/>
</a>
</g>
</g>
<!-- Node21 -->
<g id="Node000021" class="node">
<title>Node21</title>
<g id="a_Node000021"><a xlink:href="_efficiency_helper_8hh.html" target="_top" xlink:title=" ">
<polygon fill="white" stroke="#666666" points="1393.62,-74.5 1295.88,-74.5 1295.88,-55.25 1393.62,-55.25 1393.62,-74.5"/>
<text text-anchor="middle" x="1344.75" y="-61" font-family="Helvetica,sans-Serif" font-size="10.00">EfficiencyHelper.hh</text>
</a>
</g>
</g>
<!-- Node3&#45;&gt;Node21 -->
<g id="edge20_Node000003_Node000021" class="edge">
<title>Node3&#45;&gt;Node21</title>
<g id="a_edge20_Node000003_Node000021"><a xlink:title=" ">
<path fill="none" stroke="#63b8ff" d="M1976.92,-117.31C1879.89,-112.56 1619.1,-98.43 1402.75,-74.5 1399.92,-74.19 1397.01,-73.84 1394.08,-73.47"/>
<polygon fill="#63b8ff" stroke="#63b8ff" points="1976.52,-120.8 1986.68,-117.78 1976.86,-113.8 1976.52,-120.8"/>
</a>
</g>
</g>
<!-- Node23 -->
<g id="Node000023" class="node">
<title>Node23</title>
<g id="a_Node000023"><a xlink:href="_example_event_helper_8hh.html" target="_top" xlink:title=" ">
<polygon fill="white" stroke="#666666" points="1530.12,-74.5 1411.38,-74.5 1411.38,-55.25 1530.12,-55.25 1530.12,-74.5"/>
<text text-anchor="middle" x="1470.75" y="-61" font-family="Helvetica,sans-Serif" font-size="10.00">ExampleEventHelper.hh</text>
</a>
</g>
</g>
<!-- Node3&#45;&gt;Node23 -->
<g id="edge22_Node000003_Node000023" class="edge">
<title>Node3&#45;&gt;Node23</title>
<g id="a_edge22_Node000003_Node000023"><a xlink:title=" ">
<path fill="none" stroke="#63b8ff" d="M1976.98,-115.9C1895.8,-109.05 1701.98,-92.24 1539.75,-74.5 1536.75,-74.17 1533.68,-73.83 1530.58,-73.47"/>
<polygon fill="#63b8ff" stroke="#63b8ff" points="1976.59,-119.38 1986.84,-116.73 1977.17,-112.4 1976.59,-119.38"/>
</a>
</g>
</g>
<!-- Node25 -->
<g id="Node000025" class="node">
<title>Node25</title>
<g id="a_Node000025"><a xlink:href="_example_event_selector_8h.html" target="_top" xlink:title=" ">
<polygon fill="white" stroke="#666666" points="1669.25,-74.5 1548.25,-74.5 1548.25,-55.25 1669.25,-55.25 1669.25,-74.5"/>
<text text-anchor="middle" x="1608.75" y="-61" font-family="Helvetica,sans-Serif" font-size="10.00">ExampleEventSelector.h</text>
</a>
</g>
</g>
<!-- Node3&#45;&gt;Node25 -->
<g id="edge24_Node000003_Node000025" class="edge">
<title>Node3&#45;&gt;Node25</title>
<g id="a_edge24_Node000003_Node000025"><a xlink:title=" ">
<path fill="none" stroke="#63b8ff" d="M1977.36,-114.1C1906.52,-104.83 1754.73,-84.97 1669.69,-73.85"/>
<polygon fill="#63b8ff" stroke="#63b8ff" points="1976.54,-117.53 1986.91,-115.35 1977.45,-110.58 1976.54,-117.53"/>
</a>
</g>
</g>
<!-- Node27 -->
<g id="Node000027" class="node">
<title>Node27</title>
<g id="a_Node000027"><a xlink:href="_example_tree_helper_8hh.html" target="_top" xlink:title=" ">
<polygon fill="white" stroke="#666666" points="1800.5,-74.5 1687,-74.5 1687,-55.25 1800.5,-55.25 1800.5,-74.5"/>
<text text-anchor="middle" x="1743.75" y="-61" font-family="Helvetica,sans-Serif" font-size="10.00">ExampleTreeHelper.hh</text>
</a>
</g>
</g>
<!-- Node3&#45;&gt;Node27 -->
<g id="edge26_Node000003_Node000027" class="edge">
<title>Node3&#45;&gt;Node27</title>
<g id="a_edge26_Node000003_Node000027"><a xlink:title=" ">
<path fill="none" stroke="#63b8ff" d="M1977.04,-111.55C1927.72,-101.89 1842.58,-85.22 1789.93,-74.91"/>
<polygon fill="#63b8ff" stroke="#63b8ff" points="1976.2,-114.95 1986.69,-113.44 1977.55,-108.08 1976.2,-114.95"/>
</a>
</g>
</g>
<!-- Node29 -->
<g id="Node000029" class="node">
<title>Node29</title>
<g id="a_Node000029"><a xlink:href="_example_tree_selector_8h.html" target="_top" xlink:title=" ">
<polygon fill="white" stroke="#666666" points="1934.62,-74.5 1818.88,-74.5 1818.88,-55.25 1934.62,-55.25 1934.62,-74.5"/>
<text text-anchor="middle" x="1876.75" y="-61" font-family="Helvetica,sans-Serif" font-size="10.00">ExampleTreeSelector.h</text>
</a>
</g>
</g>
<!-- Node3&#45;&gt;Node29 -->
<g id="edge28_Node000003_Node000029" class="edge">
<title>Node3&#45;&gt;Node29</title>
<g id="a_edge28_Node000003_Node000029"><a xlink:title=" ">
<path fill="none" stroke="#63b8ff" d="M1981.6,-106.04C1956.4,-96.39 1922.75,-83.5 1900.45,-74.95"/>
<polygon fill="#63b8ff" stroke="#63b8ff" points="1980.17,-109.24 1990.76,-109.55 1982.67,-102.7 1980.17,-109.24"/>
</a>
</g>
</g>
<!-- Node31 -->
<g id="Node000031" class="node">
<title>Node31</title>
<g id="a_Node000031"><a xlink:href="_fast_timing_hist_selector_8h.html" target="_top" xlink:title=" ">
<polygon fill="white" stroke="#666666" points="2078.88,-74.5 1952.62,-74.5 1952.62,-55.25 2078.88,-55.25 2078.88,-74.5"/>
<text text-anchor="middle" x="2015.75" y="-61" font-family="Helvetica,sans-Serif" font-size="10.00">FastTimingHistSelector.h</text>
</a>
</g>
</g>
<!-- Node3&#45;&gt;Node31 -->
<g id="edge30_Node000003_Node000031" class="edge">
<title>Node3&#45;&gt;Node31</title>
<g id="a_edge30_Node000003_Node000031"><a xlink:title=" ">
<path fill="none" stroke="#63b8ff" d="M2015.75,-98.88C2015.75,-90.59 2015.75,-81.42 2015.75,-74.86"/>
<polygon fill="#63b8ff" stroke="#63b8ff" points="2012.25,-98.82 2015.75,-108.82 2019.25,-98.82 2012.25,-98.82"/>
</a>
</g>
</g>
<!-- Node33 -->
<g id="Node000033" class="node">
<title>Node33</title>
<g id="a_Node000033"><a xlink:href="_get_tree_entries_8cxx.html" target="_top" xlink:title=" ">
<polygon fill="white" stroke="#666666" points="2194.62,-74.5 2096.88,-74.5 2096.88,-55.25 2194.62,-55.25 2194.62,-74.5"/>
<text text-anchor="middle" x="2145.75" y="-61" font-family="Helvetica,sans-Serif" font-size="10.00">GetTreeEntries.cxx</text>
</a>
</g>
</g>
<!-- Node3&#45;&gt;Node33 -->
<g id="edge33_Node000003_Node000033" class="edge">
<title>Node3&#45;&gt;Node33</title>
<g id="a_edge33_Node000003_Node000033"><a xlink:title=" ">
<path fill="none" stroke="#63b8ff" d="M2048.32,-105.78C2071.82,-96.16 2102.92,-83.42 2123.59,-74.95"/>
<polygon fill="#63b8ff" stroke="#63b8ff" points="2047.13,-102.49 2039.2,-109.52 2049.78,-108.97 2047.13,-102.49"/>
</a>
</g>
</g>
<!-- Node34 -->
<g id="Node000034" class="node">
<title>Node34</title>
<g id="a_Node000034"><a xlink:href="_griffin_c_t_fix_8cxx.html" target="_top" xlink:title=" ">
<polygon fill="white" stroke="#666666" points="2295.12,-74.5 2212.38,-74.5 2212.38,-55.25 2295.12,-55.25 2295.12,-74.5"/>
<text text-anchor="middle" x="2253.75" y="-61" font-family="Helvetica,sans-Serif" font-size="10.00">GriffinCTFix.cxx</text>
</a>
</g>
</g>
<!-- Node3&#45;&gt;Node34 -->
<g id="edge34_Node000003_Node000034" class="edge">
<title>Node3&#45;&gt;Node34</title>
<g id="a_edge34_Node000003_Node000034"><a xlink:title=" ">
<path fill="none" stroke="#63b8ff" d="M2054.06,-110.55C2097.72,-100.79 2168.77,-84.89 2213.3,-74.93"/>
<polygon fill="#63b8ff" stroke="#63b8ff" points="2053.52,-107.09 2044.53,-112.69 2055.05,-113.92 2053.52,-107.09"/>
</a>
</g>
</g>
<!-- Node35 -->
<g id="Node000035" class="node">
<title>Node35</title>
<g id="a_Node000035"><a xlink:href="_lean_compton_matrices_8cxx.html" target="_top" xlink:title=" ">
<polygon fill="white" stroke="#666666" points="2444.12,-74.5 2313.38,-74.5 2313.38,-55.25 2444.12,-55.25 2444.12,-74.5"/>
<text text-anchor="middle" x="2378.75" y="-61" font-family="Helvetica,sans-Serif" font-size="10.00">LeanComptonMatrices.cxx</text>
</a>
</g>
</g>
<!-- Node3&#45;&gt;Node35 -->
<g id="edge35_Node000003_Node000035" class="edge">
<title>Node3&#45;&gt;Node35</title>
<g id="a_edge35_Node000003_Node000035"><a xlink:title=" ">
<path fill="none" stroke="#63b8ff" d="M2054.67,-113.42C2117.44,-104.21 2241.56,-86 2316.65,-74.98"/>
<polygon fill="#63b8ff" stroke="#63b8ff" points="2054.22,-109.94 2044.83,-114.86 2055.23,-116.87 2054.22,-109.94"/>
</a>
</g>
</g>
<!-- Node36 -->
<g id="Node000036" class="node">
<title>Node36</title>
<g id="a_Node000036"><a xlink:href="_make_griffin_histograms_8cxx.html" target="_top" xlink:title=" ">
<polygon fill="white" stroke="#666666" points="2593.5,-74.5 2462,-74.5 2462,-55.25 2593.5,-55.25 2593.5,-74.5"/>
<text text-anchor="middle" x="2527.75" y="-61" font-family="Helvetica,sans-Serif" font-size="10.00">MakeGriffinHistograms.cxx</text>
</a>
</g>
</g>
<!-- Node3&#45;&gt;Node36 -->
<g id="edge36_Node000003_Node000036" class="edge">
<title>Node3&#45;&gt;Node36</title>
<g id="a_edge36_Node000003_Node000036"><a xlink:title=" ">
<path fill="none" stroke="#63b8ff" d="M2054.77,-115.31C2131.19,-107.8 2305.94,-90.44 2452.75,-74.5 2455.62,-74.19 2458.54,-73.87 2461.5,-73.54"/>
<polygon fill="#63b8ff" stroke="#63b8ff" points="2054.49,-111.82 2044.88,-116.28 2055.17,-118.79 2054.49,-111.82"/>
</a>
</g>
</g>
<!-- Node37 -->
<g id="Node000037" class="node">
<title>Node37</title>
<g id="a_Node000037"><a xlink:href="_simulation_angular_correlation_8cxx.html" target="_top" xlink:title=" ">
<polygon fill="white" stroke="#666666" points="2769.62,-74.5 2611.88,-74.5 2611.88,-55.25 2769.62,-55.25 2769.62,-74.5"/>
<text text-anchor="middle" x="2690.75" y="-61" font-family="Helvetica,sans-Serif" font-size="10.00">SimulationAngularCorrelation.cxx</text>
</a>
</g>
</g>
<!-- Node3&#45;&gt;Node37 -->
<g id="edge37_Node000003_Node000037" class="edge">
<title>Node3&#45;&gt;Node37</title>
<g id="a_edge37_Node000003_Node000037"><a xlink:title=" ">
<path fill="none" stroke="#63b8ff" d="M2054.48,-116.47C2148.49,-109.98 2396.24,-92.47 2602.75,-74.5 2605.66,-74.25 2608.61,-73.98 2611.6,-73.71"/>
<polygon fill="#63b8ff" stroke="#63b8ff" points="2054.52,-112.96 2044.78,-117.14 2055,-119.95 2054.52,-112.96"/>
</a>
</g>
</g>
<!-- Node38 -->
<g id="Node000038" class="node">
<title>Node38</title>
<g id="a_Node000038"><a xlink:href="_t_angular_correlation_8cxx.html" target="_top" xlink:title=" ">
<polygon fill="white" stroke="#666666" points="2905.75,-74.5 2787.75,-74.5 2787.75,-55.25 2905.75,-55.25 2905.75,-74.5"/>
<text text-anchor="middle" x="2846.75" y="-61" font-family="Helvetica,sans-Serif" font-size="10.00">TAngularCorrelation.cxx</text>
</a>
</g>
</g>
<!-- Node3&#45;&gt;Node38 -->
<g id="edge38_Node000003_Node000038" class="edge">
<title>Node3&#45;&gt;Node38</title>
<g id="a_edge38_Node000003_Node000038"><a xlink:title=" ">
<path fill="none" stroke="#63b8ff" d="M2054.55,-117.79C2166.84,-113.71 2501.8,-100.13 2778.75,-74.5 2781.59,-74.24 2784.5,-73.95 2787.44,-73.64"/>
<polygon fill="#63b8ff" stroke="#63b8ff" points="2054.55,-114.28 2044.69,-118.14 2054.8,-121.28 2054.55,-114.28"/>
</a>
</g>
</g>
<!-- Node39 -->
<g id="Node000039" class="node">
<title>Node39</title>
<g id="a_Node000039"><a xlink:href="_t_g_r_s_i_mnemonic_8cxx.html" target="_top" xlink:title=" ">
<polygon fill="white" stroke="#666666" points="3031.5,-74.5 2924,-74.5 2924,-55.25 3031.5,-55.25 3031.5,-74.5"/>
<text text-anchor="middle" x="2977.75" y="-61" font-family="Helvetica,sans-Serif" font-size="10.00">TGRSIMnemonic.cxx</text>
</a>
</g>
</g>
<!-- Node3&#45;&gt;Node39 -->
<g id="edge39_Node000003_Node000039" class="edge">
<title>Node3&#45;&gt;Node39</title>
<g id="a_edge39_Node000003_Node000039"><a xlink:title=" ">
<path fill="none" stroke="#63b8ff" d="M2054.2,-118.4C2178.76,-115.82 2582.38,-105.44 2914.75,-74.5 2917.72,-74.22 2920.76,-73.91 2923.83,-73.57"/>
<polygon fill="#63b8ff" stroke="#63b8ff" points="2054.47,-114.9 2044.54,-118.6 2054.61,-121.9 2054.47,-114.9"/>
</a>
</g>
</g>
<!-- Node40 -->
<g id="Node000040" class="node">
<title>Node40</title>
<g id="a_Node000040"><a xlink:href="_t_griffin_8cxx.html" target="_top" xlink:title=" ">
<polygon fill="white" stroke="#666666" points="3112.38,-74.5 3049.12,-74.5 3049.12,-55.25 3112.38,-55.25 3112.38,-74.5"/>
<text text-anchor="middle" x="3080.75" y="-61" font-family="Helvetica,sans-Serif" font-size="10.00">TGriffin.cxx</text>
</a>
</g>
</g>
<!-- Node3&#45;&gt;Node40 -->
<g id="edge40_Node000003_Node000040" class="edge">
<title>Node3&#45;&gt;Node40</title>
<g id="a_edge40_Node000003_Node000040"><a xlink:title=" ">
<path fill="none" stroke="#63b8ff" d="M2054.39,-118.32C2216.78,-114.79 2844.49,-99.75 3040.75,-74.5 3043.43,-74.16 3046.19,-73.72 3048.96,-73.24"/>
<polygon fill="#63b8ff" stroke="#63b8ff" points="2054.53,-114.81 2044.6,-118.53 2054.68,-121.81 2054.53,-114.81"/>
</a>
</g>
</g>
<!-- Node41 -->
<g id="Node000041" class="node">
<title>Node41</title>
<g id="a_Node000041"><a xlink:href="_t_griffin_angles_8cxx.html" target="_top" xlink:title=" ">
<polygon fill="white" stroke="#666666" points="3223.38,-74.5 3130.12,-74.5 3130.12,-55.25 3223.38,-55.25 3223.38,-74.5"/>
<text text-anchor="middle" x="3176.75" y="-61" font-family="Helvetica,sans-Serif" font-size="10.00">TGriffinAngles.cxx</text>
</a>
</g>
</g>
<!-- Node3&#45;&gt;Node41 -->
<g id="edge41_Node000003_Node000041" class="edge">
<title>Node3&#45;&gt;Node41</title>
<g id="a_edge41_Node000003_Node000041"><a xlink:title=" ">
<path fill="none" stroke="#63b8ff" d="M2054.31,-119.17C2196.53,-119.02 2705.07,-115.44 3121.75,-74.5 3124.35,-74.24 3127.01,-73.95 3129.69,-73.62"/>
<polygon fill="#63b8ff" stroke="#63b8ff" points="2054.7,-115.67 2044.71,-119.18 2054.71,-122.67 2054.7,-115.67"/>
</a>
</g>
</g>
<!-- Node3&#45;&gt;Node42 -->
<g id="edge42_Node000003_Node000042" class="edge">
<title>Node3&#45;&gt;Node42</title>
<g id="a_edge42_Node000003_Node000042"><a xlink:title=" ">
<path fill="none" stroke="#63b8ff" d="M2054.51,-118.97C2281.05,-117.97 3435.78,-111.1 3788.75,-74.5 3791.56,-74.21 3794.44,-73.84 3797.35,-73.43"/>
<polygon fill="#63b8ff" stroke="#63b8ff" points="2054.75,-115.47 2044.77,-119.02 2054.78,-122.47 2054.75,-115.47"/>
</a>
</g>
</g>
<!-- Node43 -->
<g id="Node000043" class="node">
<title>Node43</title>
<g id="a_Node000043"><a xlink:href="_tac_offset_helper_8hh.html" target="_top" xlink:title=" ">
<polygon fill="white" stroke="#666666" points="3341.75,-74.5 3241.75,-74.5 3241.75,-55.25 3341.75,-55.25 3341.75,-74.5"/>
<text text-anchor="middle" x="3291.75" y="-61" font-family="Helvetica,sans-Serif" font-size="10.00">TacOffsetHelper.hh</text>
</a>
</g>
</g>
<!-- Node3&#45;&gt;Node43 -->
<g id="edge43_Node000003_Node000043" class="edge">
<title>Node3&#45;&gt;Node43</title>
<g id="a_edge43_Node000003_Node000043"><a xlink:title=" ">
<path fill="none" stroke="#63b8ff" d="M2054.62,-119.23C2205.98,-119.32 2770.47,-116.64 3232.75,-74.5 3235.53,-74.25 3238.39,-73.95 3241.26,-73.62"/>
<polygon fill="#63b8ff" stroke="#63b8ff" points="2054.76,-115.73 2044.75,-119.22 2054.75,-122.73 2054.76,-115.73"/>
</a>
</g>
</g>
<!-- Node45 -->
<g id="Node000045" class="node">
<title>Node45</title>
<g id="a_Node000045"><a xlink:href="_time_walk_helper_8hh.html" target="_top" xlink:title=" ">
<polygon fill="white" stroke="#666666" points="3460.12,-74.5 3359.38,-74.5 3359.38,-55.25 3460.12,-55.25 3460.12,-74.5"/>
<text text-anchor="middle" x="3409.75" y="-61" font-family="Helvetica,sans-Serif" font-size="10.00">TimeWalkHelper.hh</text>
</a>
</g>
</g>
<!-- Node3&#45;&gt;Node45 -->
<g id="edge45_Node000003_Node000045" class="edge">
<title>Node3&#45;&gt;Node45</title>
<g id="a_edge45_Node000003_Node000045"><a xlink:title=" ">
<path fill="none" stroke="#63b8ff" d="M2054.17,-119.41C2213.67,-120.25 2839.23,-120.29 3350.75,-74.5 3353.43,-74.26 3356.18,-73.98 3358.94,-73.67"/>
<polygon fill="#63b8ff" stroke="#63b8ff" points="2054.61,-115.91 2044.59,-119.35 2054.57,-122.91 2054.61,-115.91"/>
</a>
</g>
</g>
<!-- Node47 -->
<g id="Node000047" class="node">
<title>Node47</title>
<g id="a_Node000047"><a xlink:href="_time_walk_selector_8h.html" target="_top" xlink:title=" ">
<polygon fill="white" stroke="#666666" points="3581.25,-74.5 3478.25,-74.5 3478.25,-55.25 3581.25,-55.25 3581.25,-74.5"/>
<text text-anchor="middle" x="3529.75" y="-61" font-family="Helvetica,sans-Serif" font-size="10.00">TimeWalkSelector.h</text>
</a>
</g>
</g>
<!-- Node3&#45;&gt;Node47 -->
<g id="edge47_Node000003_Node000047" class="edge">
<title>Node3&#45;&gt;Node47</title>
<g id="a_edge47_Node000003_Node000047"><a xlink:title=" ">
<path fill="none" stroke="#63b8ff" d="M2054.48,-119.49C2222.94,-120.77 2908.54,-122.56 3468.75,-74.5 3471.73,-74.24 3474.79,-73.94 3477.88,-73.6"/>
<polygon fill="#63b8ff" stroke="#63b8ff" points="2054.58,-115.99 2044.55,-119.41 2054.52,-122.99 2054.58,-115.99"/>
</a>
</g>
</g>
<!-- Node49 -->
<g id="Node000049" class="node">
<title>Node49</title>
<g id="a_Node000049"><a xlink:href="tac__calibrator_8cxx.html" target="_top" xlink:title=" ">
<polygon fill="white" stroke="#666666" points="3690.25,-74.5 3599.25,-74.5 3599.25,-55.25 3690.25,-55.25 3690.25,-74.5"/>
<text text-anchor="middle" x="3644.75" y="-61" font-family="Helvetica,sans-Serif" font-size="10.00">tac_calibrator.cxx</text>
</a>
</g>
</g>
<!-- Node3&#45;&gt;Node49 -->
<g id="edge49_Node000003_Node000049" class="edge">
<title>Node3&#45;&gt;Node49</title>
<g id="a_edge49_Node000003_Node000049"><a xlink:title=" ">
<path fill="none" stroke="#63b8ff" d="M2054.74,-118.71C2266.37,-116.35 3279.16,-103.67 3590.75,-74.5 3593.4,-74.25 3596.11,-73.96 3598.84,-73.62"/>
<polygon fill="#63b8ff" stroke="#63b8ff" points="2054.8,-115.21 2044.84,-118.82 2054.88,-122.21 2054.8,-115.21"/>
</a>
</g>
</g>
<!-- Node50 -->
<g id="Node000050" class="node">
<title>Node50</title>
<g id="a_Node000050"><a xlink:href="write__cal_8cxx.html" target="_top" xlink:title=" ">
<polygon fill="white" stroke="#666666" points="3779.5,-74.5 3708,-74.5 3708,-55.25 3779.5,-55.25 3779.5,-74.5"/>
<text text-anchor="middle" x="3743.75" y="-61" font-family="Helvetica,sans-Serif" font-size="10.00">write_cal.cxx</text>
</a>
</g>
</g>
<!-- Node3&#45;&gt;Node50 -->
<g id="edge50_Node000003_Node000050" class="edge">
<title>Node3&#45;&gt;Node50</title>
<g id="a_edge50_Node000003_Node000050"><a xlink:title=" ">
<path fill="none" stroke="#63b8ff" d="M2054.29,-118.98C2273.53,-118.02 3365.6,-111.42 3699.75,-74.5 3702.38,-74.21 3705.09,-73.84 3707.81,-73.43"/>
<polygon fill="#63b8ff" stroke="#63b8ff" points="2054.58,-115.48 2044.6,-119.02 2054.61,-122.48 2054.58,-115.48"/>
</a>
</g>
</g>
<!-- Node5 -->
<g id="Node000005" class="node">
<title>Node5</title>
<g id="a_Node000005"><a xlink:href="_alphanumeric_helper_8cxx.html" target="_top" xlink:title=" ">
<polygon fill="white" stroke="#666666" points="248.88,-19.25 128.62,-19.25 128.62,0 248.88,0 248.88,-19.25"/>
<text text-anchor="middle" x="188.75" y="-5.75" font-family="Helvetica,sans-Serif" font-size="10.00">AlphanumericHelper.cxx</text>
</a>
</g>
</g>
<!-- Node4&#45;&gt;Node5 -->
<g id="edge4_Node000004_Node000005" class="edge">
<title>Node4&#45;&gt;Node5</title>
<g id="a_edge4_Node000004_Node000005"><a xlink:title=" ">
<path fill="none" stroke="#63b8ff" d="M193.13,-43.92C192.03,-35.55 190.8,-26.25 189.93,-19.61"/>
<polygon fill="#63b8ff" stroke="#63b8ff" points="189.62,-44.12 194.4,-53.58 196.56,-43.21 189.62,-44.12"/>
</a>
</g>
</g>
<!-- Node7 -->
<g id="Node000007" class="node">
<title>Node7</title>
<g id="a_Node000007"><a xlink:href="_alphanumeric_selector_8_c.html" target="_top" xlink:title=" ">
<polygon fill="white" stroke="#666666" points="386.88,-19.25 266.62,-19.25 266.62,0 386.88,0 386.88,-19.25"/>
<text text-anchor="middle" x="326.75" y="-5.75" font-family="Helvetica,sans-Serif" font-size="10.00">AlphanumericSelector.C</text>
</a>
</g>
</g>
<!-- Node6&#45;&gt;Node7 -->
<g id="edge6_Node000006_Node000007" class="edge">
<title>Node6&#45;&gt;Node7</title>
<g id="a_edge6_Node000006_Node000007"><a xlink:title=" ">
<path fill="none" stroke="#63b8ff" d="M329.85,-43.63C329.07,-35.34 328.21,-26.17 327.59,-19.61"/>
<polygon fill="#63b8ff" stroke="#63b8ff" points="326.36,-43.95 330.78,-53.57 333.33,-43.29 326.36,-43.95"/>
</a>
</g>
</g>
<!-- Node9 -->
<g id="Node000009" class="node">
<title>Node9</title>
<g id="a_Node000009"><a xlink:href="_angular_correlation_helper_8cxx.html" target="_top" xlink:title=" ">
<polygon fill="white" stroke="#666666" points="545,-19.25 404.5,-19.25 404.5,0 545,0 545,-19.25"/>
<text text-anchor="middle" x="474.75" y="-5.75" font-family="Helvetica,sans-Serif" font-size="10.00">AngularCorrelationHelper.cxx</text>
</a>
</g>
</g>
<!-- Node8&#45;&gt;Node9 -->
<g id="edge8_Node000008_Node000009" class="edge">
<title>Node8&#45;&gt;Node9</title>
<g id="a_edge8_Node000008_Node000009"><a xlink:title=" ">
<path fill="none" stroke="#63b8ff" d="M476.61,-43.63C476.14,-35.34 475.63,-26.17 475.26,-19.61"/>
<polygon fill="#63b8ff" stroke="#63b8ff" points="473.11,-43.78 477.17,-53.57 480.1,-43.39 473.11,-43.78"/>
</a>
</g>
</g>
<!-- Node11 -->
<g id="Node000011" class="node">
<title>Node11</title>
<g id="a_Node000011"><a xlink:href="_angular_correlation_selector_8_c.html" target="_top" xlink:title=" ">
<polygon fill="white" stroke="#666666" points="704,-19.25 563.5,-19.25 563.5,0 704,0 704,-19.25"/>
<text text-anchor="middle" x="633.75" y="-5.75" font-family="Helvetica,sans-Serif" font-size="10.00">AngularCorrelationSelector.C</text>
</a>
</g>
</g>
<!-- Node10&#45;&gt;Node11 -->
<g id="edge10_Node000010_Node000011" class="edge">
<title>Node10&#45;&gt;Node11</title>
<g id="a_edge10_Node000010_Node000011"><a xlink:title=" ">
<path fill="none" stroke="#63b8ff" d="M633.75,-43.63C633.75,-35.34 633.75,-26.17 633.75,-19.61"/>
<polygon fill="#63b8ff" stroke="#63b8ff" points="630.25,-43.57 633.75,-53.57 637.25,-43.57 630.25,-43.57"/>
</a>
</g>
</g>
<!-- Node13 -->
<g id="Node000013" class="node">
<title>Node13</title>
<g id="a_Node000013"><a xlink:href="_compton_polarimetry_helper_8cxx.html" target="_top" xlink:title=" ">
<polygon fill="white" stroke="#666666" points="871.12,-19.25 722.38,-19.25 722.38,0 871.12,0 871.12,-19.25"/>
<text text-anchor="middle" x="796.75" y="-5.75" font-family="Helvetica,sans-Serif" font-size="10.00">ComptonPolarimetryHelper.cxx</text>
</a>
</g>
</g>
<!-- Node12&#45;&gt;Node13 -->
<g id="edge12_Node000012_Node000013" class="edge">
<title>Node12&#45;&gt;Node13</title>
<g id="a_edge12_Node000012_Node000013"><a xlink:title=" ">
<path fill="none" stroke="#63b8ff" d="M794.89,-43.63C795.36,-35.34 795.87,-26.17 796.24,-19.61"/>
<polygon fill="#63b8ff" stroke="#63b8ff" points="791.4,-43.39 794.33,-53.57 798.39,-43.78 791.4,-43.39"/>
</a>
</g>
</g>
<!-- Node15 -->
<g id="Node000015" class="node">
<title>Node15</title>
<g id="a_Node000015"><a xlink:href="_cross_talk_8_c.html" target="_top" xlink:title=" ">
<polygon fill="white" stroke="#666666" points="958.38,-19.25 889.12,-19.25 889.12,0 958.38,0 958.38,-19.25"/>
<text text-anchor="middle" x="923.75" y="-5.75" font-family="Helvetica,sans-Serif" font-size="10.00">CrossTalk.C</text>
</a>
</g>
</g>
<!-- Node14&#45;&gt;Node15 -->
<g id="edge14_Node000014_Node000015" class="edge">
<title>Node14&#45;&gt;Node15</title>
<g id="a_edge14_Node000014_Node000015"><a xlink:title=" ">
<path fill="none" stroke="#63b8ff" d="M920,-43.92C920.94,-35.55 921.99,-26.25 922.74,-19.61"/>
<polygon fill="#63b8ff" stroke="#63b8ff" points="916.55,-43.25 918.91,-53.58 923.51,-44.03 916.55,-43.25"/>
</a>
</g>
</g>
<!-- Node17 -->
<g id="Node000017" class="node">
<title>Node17</title>
<g id="a_Node000017"><a xlink:href="_cross_talk_helper_8cxx.html" target="_top" xlink:title=" ">
<polygon fill="white" stroke="#666666" points="1081.38,-19.25 976.12,-19.25 976.12,0 1081.38,0 1081.38,-19.25"/>
<text text-anchor="middle" x="1028.75" y="-5.75" font-family="Helvetica,sans-Serif" font-size="10.00">CrossTalkHelper.cxx</text>
</a>
</g>
</g>
<!-- Node16&#45;&gt;Node17 -->
<g id="edge16_Node000016_Node000017" class="edge">
<title>Node16&#45;&gt;Node17</title>
<g id="a_edge16_Node000016_Node000017"><a xlink:title=" ">
<path fill="none" stroke="#63b8ff" d="M1023.75,-43.92C1025,-35.55 1026.4,-26.25 1027.4,-19.61"/>
<polygon fill="#63b8ff" stroke="#63b8ff" points="1020.32,-43.18 1022.3,-53.59 1027.24,-44.22 1020.32,-43.18"/>
</a>
</g>
</g>
<!-- Node20 -->
<g id="Node000020" class="node">
<title>Node20</title>
<g id="a_Node000020"><a xlink:href="_directory_helper_8cxx.html" target="_top" xlink:title=" ">
<polygon fill="white" stroke="#666666" points="1269.38,-19.25 1170.12,-19.25 1170.12,0 1269.38,0 1269.38,-19.25"/>
<text text-anchor="middle" x="1219.75" y="-5.75" font-family="Helvetica,sans-Serif" font-size="10.00">DirectoryHelper.cxx</text>
</a>
</g>
</g>
<!-- Node19&#45;&gt;Node20 -->
<g id="edge19_Node000019_Node000020" class="edge">
<title>Node19&#45;&gt;Node20</title>
<g id="a_edge19_Node000019_Node000020"><a xlink:title=" ">
<path fill="none" stroke="#63b8ff" d="M1226,-43.92C1224.43,-35.55 1222.68,-26.25 1221.44,-19.61"/>
<polygon fill="#63b8ff" stroke="#63b8ff" points="1222.53,-44.41 1227.82,-53.59 1229.41,-43.12 1222.53,-44.41"/>
</a>
</g>
</g>
<!-- Node22 -->
<g id="Node000022" class="node">
<title>Node22</title>
<g id="a_Node000022"><a xlink:href="_efficiency_helper_8cxx.html" target="_top" xlink:title=" ">
<polygon fill="white" stroke="#666666" points="1388.5,-19.25 1287,-19.25 1287,0 1388.5,0 1388.5,-19.25"/>
<text text-anchor="middle" x="1337.75" y="-5.75" font-family="Helvetica,sans-Serif" font-size="10.00">EfficiencyHelper.cxx</text>
</a>
</g>
</g>
<!-- Node21&#45;&gt;Node22 -->
<g id="edge21_Node000021_Node000022" class="edge">
<title>Node21&#45;&gt;Node22</title>
<g id="a_edge21_Node000021_Node000022"><a xlink:title=" ">
<path fill="none" stroke="#63b8ff" d="M1342.13,-43.92C1341.03,-35.55 1339.8,-26.25 1338.93,-19.61"/>
<polygon fill="#63b8ff" stroke="#63b8ff" points="1338.62,-44.12 1343.4,-53.58 1345.56,-43.21 1338.62,-44.12"/>
</a>
</g>
</g>
<!-- Node24 -->
<g id="Node000024" class="node">
<title>Node24</title>
<g id="a_Node000024"><a xlink:href="_example_event_helper_8cxx.html" target="_top" xlink:title=" ">
<polygon fill="white" stroke="#666666" points="1529,-19.25 1406.5,-19.25 1406.5,0 1529,0 1529,-19.25"/>
<text text-anchor="middle" x="1467.75" y="-5.75" font-family="Helvetica,sans-Serif" font-size="10.00">ExampleEventHelper.cxx</text>
</a>
</g>
</g>
<!-- Node23&#45;&gt;Node24 -->
<g id="edge23_Node000023_Node000024" class="edge">
<title>Node23&#45;&gt;Node24</title>
<g id="a_edge23_Node000023_Node000024"><a xlink:title=" ">
<path fill="none" stroke="#63b8ff" d="M1469.61,-43.63C1469.14,-35.34 1468.63,-26.17 1468.26,-19.61"/>
<polygon fill="#63b8ff" stroke="#63b8ff" points="1466.11,-43.78 1470.17,-53.57 1473.1,-43.39 1466.11,-43.78"/>
</a>
</g>
</g>
<!-- Node26 -->
<g id="Node000026" class="node">
<title>Node26</title>
<g id="a_Node000026"><a xlink:href="_example_event_selector_8_c.html" target="_top" xlink:title=" ">
<polygon fill="white" stroke="#666666" points="1670,-19.25 1547.5,-19.25 1547.5,0 1670,0 1670,-19.25"/>
<text text-anchor="middle" x="1608.75" y="-5.75" font-family="Helvetica,sans-Serif" font-size="10.00">ExampleEventSelector.C</text>
</a>
</g>
</g>
<!-- Node25&#45;&gt;Node26 -->
<g id="edge25_Node000025_Node000026" class="edge">
<title>Node25&#45;&gt;Node26</title>
<g id="a_edge25_Node000025_Node000026"><a xlink:title=" ">
<path fill="none" stroke="#63b8ff" d="M1608.75,-43.63C1608.75,-35.34 1608.75,-26.17 1608.75,-19.61"/>
<polygon fill="#63b8ff" stroke="#63b8ff" points="1605.25,-43.57 1608.75,-53.57 1612.25,-43.57 1605.25,-43.57"/>
</a>
</g>
</g>
<!-- Node28 -->
<g id="Node000028" class="node">
<title>Node28</title>
<g id="a_Node000028"><a xlink:href="_example_tree_helper_8cxx.html" target="_top" xlink:title=" ">
<polygon fill="white" stroke="#666666" points="1805.38,-19.25 1688.12,-19.25 1688.12,0 1805.38,0 1805.38,-19.25"/>
<text text-anchor="middle" x="1746.75" y="-5.75" font-family="Helvetica,sans-Serif" font-size="10.00">ExampleTreeHelper.cxx</text>
</a>
</g>
</g>
<!-- Node27&#45;&gt;Node28 -->
<g id="edge27_Node000027_Node000028" class="edge">
<title>Node27&#45;&gt;Node28</title>
<g id="a_edge27_Node000027_Node000028"><a xlink:title=" ">
<path fill="none" stroke="#63b8ff" d="M1744.89,-43.63C1745.36,-35.34 1745.87,-26.17 1746.24,-19.61"/>
<polygon fill="#63b8ff" stroke="#63b8ff" points="1741.4,-43.39 1744.33,-53.57 1748.39,-43.78 1741.4,-43.39"/>
</a>
</g>
</g>
<!-- Node30 -->
<g id="Node000030" class="node">
<title>Node30</title>
<g id="a_Node000030"><a xlink:href="_example_tree_selector_8_c.html" target="_top" xlink:title=" ">
<polygon fill="white" stroke="#666666" points="1940.38,-19.25 1823.12,-19.25 1823.12,0 1940.38,0 1940.38,-19.25"/>
<text text-anchor="middle" x="1881.75" y="-5.75" font-family="Helvetica,sans-Serif" font-size="10.00">ExampleTreeSelector.C</text>
</a>
</g>
</g>
<!-- Node29&#45;&gt;Node30 -->
<g id="edge29_Node000029_Node000030" class="edge">
<title>Node29&#45;&gt;Node30</title>
<g id="a_edge29_Node000029_Node000030"><a xlink:title=" ">
<path fill="none" stroke="#63b8ff" d="M1878.65,-43.63C1879.43,-35.34 1880.29,-26.17 1880.91,-19.61"/>
<polygon fill="#63b8ff" stroke="#63b8ff" points="1875.17,-43.29 1877.72,-53.57 1882.14,-43.95 1875.17,-43.29"/>
</a>
</g>
</g>
<!-- Node32 -->
<g id="Node000032" class="node">
<title>Node32</title>
<g id="a_Node000032"><a xlink:href="_fast_timing_hist_selector_8_c.html" target="_top" xlink:title=" ">
<polygon fill="white" stroke="#666666" points="2086.62,-19.25 1958.88,-19.25 1958.88,0 2086.62,0 2086.62,-19.25"/>
<text text-anchor="middle" x="2022.75" y="-5.75" font-family="Helvetica,sans-Serif" font-size="10.00">FastTimingHistSelector.C</text>
</a>
</g>
</g>
<!-- Node31&#45;&gt;Node32 -->
<g id="edge31_Node000031_Node000032" class="edge">
<title>Node31&#45;&gt;Node32</title>
<g id="a_edge31_Node000031_Node000032"><a xlink:title=" ">
<path fill="none" stroke="#63b8ff" d="M2018.37,-43.92C2019.47,-35.55 2020.7,-26.25 2021.57,-19.61"/>
<polygon fill="#63b8ff" stroke="#63b8ff" points="2014.94,-43.21 2017.1,-53.58 2021.88,-44.12 2014.94,-43.21"/>
</a>
</g>
</g>
<!-- Node44 -->
<g id="Node000044" class="node">
<title>Node44</title>
<g id="a_Node000044"><a xlink:href="_tac_offset_helper_8cxx.html" target="_top" xlink:title=" ">
<polygon fill="white" stroke="#666666" points="3339.62,-19.25 3235.88,-19.25 3235.88,0 3339.62,0 3339.62,-19.25"/>
<text text-anchor="middle" x="3287.75" y="-5.75" font-family="Helvetica,sans-Serif" font-size="10.00">TacOffsetHelper.cxx</text>
</a>
</g>
</g>
<!-- Node43&#45;&gt;Node44 -->
<g id="edge44_Node000043_Node000044" class="edge">
<title>Node43&#45;&gt;Node44</title>
<g id="a_edge44_Node000043_Node000044"><a xlink:title=" ">
<path fill="none" stroke="#63b8ff" d="M3290.23,-43.63C3289.61,-35.34 3288.92,-26.17 3288.42,-19.61"/>
<polygon fill="#63b8ff" stroke="#63b8ff" points="3286.74,-43.86 3290.98,-53.57 3293.72,-43.34 3286.74,-43.86"/>
</a>
</g>
</g>
<!-- Node46 -->
<g id="Node000046" class="node">
<title>Node46</title>
<g id="a_Node000046"><a xlink:href="_time_walk_helper_8cxx.html" target="_top" xlink:title=" ">
<polygon fill="white" stroke="#666666" points="3462,-19.25 3357.5,-19.25 3357.5,0 3462,0 3462,-19.25"/>
<text text-anchor="middle" x="3409.75" y="-5.75" font-family="Helvetica,sans-Serif" font-size="10.00">TimeWalkHelper.cxx</text>
</a>
</g>
</g>
<!-- Node45&#45;&gt;Node46 -->
<g id="edge46_Node000045_Node000046" class="edge">
<title>Node45&#45;&gt;Node46</title>
<g id="a_edge46_Node000045_Node000046"><a xlink:title=" ">
<path fill="none" stroke="#63b8ff" d="M3409.75,-43.63C3409.75,-35.34 3409.75,-26.17 3409.75,-19.61"/>
<polygon fill="#63b8ff" stroke="#63b8ff" points="3406.25,-43.57 3409.75,-53.57 3413.25,-43.57 3406.25,-43.57"/>
</a>
</g>
</g>
<!-- Node48 -->
<g id="Node000048" class="node">
<title>Node48</title>
<g id="a_Node000048"><a xlink:href="_time_walk_selector_8_c.html" target="_top" xlink:title=" ">
<polygon fill="white" stroke="#666666" points="3585,-19.25 3480.5,-19.25 3480.5,0 3585,0 3585,-19.25"/>
<text text-anchor="middle" x="3532.75" y="-5.75" font-family="Helvetica,sans-Serif" font-size="10.00">TimeWalkSelector.C</text>
</a>
</g>
</g>
<!-- Node47&#45;&gt;Node48 -->
<g id="edge48_Node000047_Node000048" class="edge">
<title>Node47&#45;&gt;Node48</title>
<g id="a_edge48_Node000047_Node000048"><a xlink:title=" ">
<path fill="none" stroke="#63b8ff" d="M3530.89,-43.63C3531.36,-35.34 3531.87,-26.17 3532.24,-19.61"/>
<polygon fill="#63b8ff" stroke="#63b8ff" points="3527.4,-43.39 3530.33,-53.57 3534.39,-43.78 3527.4,-43.39"/>
</a>
</g>
</g>
</g>
</svg>
