<?xml version="1.0" encoding="UTF-8" standalone="no"?>
<!DOCTYPE svg PUBLIC "-//W3C//DTD SVG 1.1//EN"
 "http://www.w3.org/Graphics/SVG/1.1/DTD/svg11.dtd">
<!-- Generated by graphviz version 12.2.0 (20241103.1931)
 -->
<!-- Title: TGriffinAngles.h Pages: 1 -->
<svg width="959pt" height="138pt"
 viewBox="0.00 0.00 958.88 137.75" xmlns="http://www.w3.org/2000/svg" xmlns:xlink="http://www.w3.org/1999/xlink">
<g id="graph0" class="graph" transform="scale(1 1) rotate(0) translate(4 133.75)">
<title>TGriffinAngles.h</title>
<!-- Node1 -->
<g id="Node000001" class="node">
<title>Node1</title>
<g id="a_Node000001"><a xlink:title=" ">
<polygon fill="#999999" stroke="#666666" points="253.88,-129.75 169.62,-129.75 169.62,-110.5 253.88,-110.5 253.88,-129.75"/>
<text text-anchor="middle" x="211.75" y="-116.25" font-family="Helvetica,sans-Serif" font-size="10.00">TGriffinAngles.h</text>
</a>
</g>
</g>
<!-- Node2 -->
<g id="Node000002" class="node">
<title>Node2</title>
<g id="a_Node000002"><a xlink:title=" ">
<polygon fill="#e0e0e0" stroke="#999999" points="29.5,-74.5 0,-74.5 0,-55.25 29.5,-55.25 29.5,-74.5"/>
<text text-anchor="middle" x="14.75" y="-61" font-family="Helvetica,sans-Serif" font-size="10.00">set</text>
</a>
</g>
</g>
<!-- Node1&#45;&gt;Node2 -->
<g id="edge1_Node000001_Node000002" class="edge">
<title>Node1&#45;&gt;Node2</title>
<g id="a_edge1_Node000001_Node000002"><a xlink:title=" ">
<path fill="none" stroke="#63b8ff" d="M172.3,-110.05C139.38,-102.23 91.06,-90.2 40.69,-74.88"/>
<polygon fill="#63b8ff" stroke="#63b8ff" points="41.95,-71.61 31.36,-72.01 39.89,-78.3 41.95,-71.61"/>
</a>
</g>
</g>
<!-- Node3 -->
<g id="Node000003" class="node">
<title>Node3</title>
<g id="a_Node000003"><a xlink:title=" ">
<polygon fill="#e0e0e0" stroke="#999999" points="82.12,-74.5 47.38,-74.5 47.38,-55.25 82.12,-55.25 82.12,-74.5"/>
<text text-anchor="middle" x="64.75" y="-61" font-family="Helvetica,sans-Serif" font-size="10.00">map</text>
</a>
</g>
</g>
<!-- Node1&#45;&gt;Node3 -->
<g id="edge2_Node000001_Node000003" class="edge">
<title>Node1&#45;&gt;Node3</title>
<g id="a_edge2_Node000001_Node000003"><a xlink:title=" ">
<path fill="none" stroke="#63b8ff" d="M186.81,-110.09C160.87,-100.69 120.31,-86 93.15,-76.16"/>
<polygon fill="#63b8ff" stroke="#63b8ff" points="94.42,-72.9 83.83,-72.79 92.04,-79.48 94.42,-72.9"/>
</a>
</g>
</g>
<!-- Node4 -->
<g id="Node000004" class="node">
<title>Node4</title>
<g id="a_Node000004"><a xlink:title=" ">
<polygon fill="#e0e0e0" stroke="#999999" points="157.75,-74.5 99.75,-74.5 99.75,-55.25 157.75,-55.25 157.75,-74.5"/>
<text text-anchor="middle" x="128.75" y="-61" font-family="Helvetica,sans-Serif" font-size="10.00">functional</text>
</a>
</g>
</g>
<!-- Node1&#45;&gt;Node4 -->
<g id="edge3_Node000001_Node000004" class="edge">
<title>Node1&#45;&gt;Node4</title>
<g id="a_edge3_Node000001_Node000004"><a xlink:title=" ">
<path fill="none" stroke="#63b8ff" d="M197.67,-110.09C185.27,-102.14 166.96,-90.39 152.32,-81"/>
<polygon fill="#63b8ff" stroke="#63b8ff" points="154.48,-78.22 144.17,-75.77 150.7,-84.12 154.48,-78.22"/>
</a>
</g>
</g>
<!-- Node5 -->
<g id="Node000005" class="node">
<title>Node5</title>
<g id="a_Node000005"><a xlink:title=" ">
<polygon fill="#e0e0e0" stroke="#999999" points="247.88,-74.5 175.62,-74.5 175.62,-55.25 247.88,-55.25 247.88,-74.5"/>
<text text-anchor="middle" x="211.75" y="-61" font-family="Helvetica,sans-Serif" font-size="10.00">TCollection.h</text>
</a>
</g>
</g>
<!-- Node1&#45;&gt;Node5 -->
<g id="edge4_Node000001_Node000005" class="edge">
<title>Node1&#45;&gt;Node5</title>
<g id="a_edge4_Node000001_Node000005"><a xlink:title=" ">
<path fill="none" stroke="#63b8ff" d="M211.75,-110.33C211.75,-103.82 211.75,-94.67 211.75,-86.37"/>
<polygon fill="#63b8ff" stroke="#63b8ff" points="215.25,-86.37 211.75,-76.37 208.25,-86.37 215.25,-86.37"/>
</a>
</g>
</g>
<!-- Node6 -->
<g id="Node000006" class="node">
<title>Node6</title>
<g id="a_Node000006"><a xlink:title=" ">
<polygon fill="#e0e0e0" stroke="#999999" points="327.25,-74.5 266.25,-74.5 266.25,-55.25 327.25,-55.25 327.25,-74.5"/>
<text text-anchor="middle" x="296.75" y="-61" font-family="Helvetica,sans-Serif" font-size="10.00">TNamed.h</text>
</a>
</g>
</g>
<!-- Node1&#45;&gt;Node6 -->
<g id="edge5_Node000001_Node000006" class="edge">
<title>Node1&#45;&gt;Node6</title>
<g id="a_edge5_Node000001_Node000006"><a xlink:title=" ">
<path fill="none" stroke="#63b8ff" d="M226.17,-110.09C238.87,-102.14 257.62,-90.39 272.61,-81"/>
<polygon fill="#63b8ff" stroke="#63b8ff" points="274.36,-84.03 280.98,-75.76 270.65,-78.1 274.36,-84.03"/>
</a>
</g>
</g>
<!-- Node7 -->
<g id="Node000007" class="node">
<title>Node7</title>
<g id="a_Node000007"><a xlink:title=" ">
<polygon fill="#e0e0e0" stroke="#999999" points="426.38,-74.5 345.12,-74.5 345.12,-55.25 426.38,-55.25 426.38,-74.5"/>
<text text-anchor="middle" x="385.75" y="-61" font-family="Helvetica,sans-Serif" font-size="10.00">TGraphErrors.h</text>
</a>
</g>
</g>
<!-- Node1&#45;&gt;Node7 -->
<g id="edge6_Node000001_Node000007" class="edge">
<title>Node1&#45;&gt;Node7</title>
<g id="a_edge6_Node000001_Node000007"><a xlink:title=" ">
<path fill="none" stroke="#63b8ff" d="M241.27,-110.09C269.89,-101.33 313.53,-87.98 345.37,-78.23"/>
<polygon fill="#63b8ff" stroke="#63b8ff" points="346.1,-81.67 354.64,-75.4 344.05,-74.98 346.1,-81.67"/>
</a>
</g>
</g>
<!-- Node8 -->
<g id="Node000008" class="node">
<title>Node8</title>
<g id="a_Node000008"><a xlink:href="_globals_8h.html" target="_top" xlink:title=" ">
<polygon fill="white" stroke="#666666" points="501,-74.5 444.5,-74.5 444.5,-55.25 501,-55.25 501,-74.5"/>
<text text-anchor="middle" x="472.75" y="-61" font-family="Helvetica,sans-Serif" font-size="10.00">Globals.h</text>
</a>
</g>
</g>
<!-- Node1&#45;&gt;Node8 -->
<g id="edge7_Node000001_Node000008" class="edge">
<title>Node1&#45;&gt;Node8</title>
<g id="a_edge7_Node000001_Node000008"><a xlink:title=" ">
<path fill="none" stroke="#63b8ff" d="M254.36,-111.06C297.2,-102.86 365.4,-89.55 433.21,-75"/>
<polygon fill="#63b8ff" stroke="#63b8ff" points="433.57,-78.5 442.61,-72.97 432.09,-71.66 433.57,-78.5"/>
</a>
</g>
</g>
<!-- Node9 -->
<g id="Node000009" class="node">
<title>Node9</title>
<g id="a_Node000009"><a xlink:title=" ">
<polygon fill="#e0e0e0" stroke="#999999" points="63.5,-19.25 10,-19.25 10,0 63.5,0 63.5,-19.25"/>
<text text-anchor="middle" x="36.75" y="-5.75" font-family="Helvetica,sans-Serif" font-size="10.00">iostream</text>
</a>
</g>
</g>
<!-- Node8&#45;&gt;Node9 -->
<g id="edge8_Node000008_Node000009" class="edge">
<title>Node8&#45;&gt;Node9</title>
<g id="a_edge8_Node000008_Node000009"><a xlink:title=" ">
<path fill="none" stroke="#63b8ff" d="M444.14,-56.82C441.32,-56.24 438.48,-55.7 435.75,-55.25 279.39,-29.39 234.62,-45.44 74.98,-19.39"/>
<polygon fill="#63b8ff" stroke="#63b8ff" points="75.73,-15.96 65.29,-17.77 74.58,-22.87 75.73,-15.96"/>
</a>
</g>
</g>
<!-- Node10 -->
<g id="Node000010" class="node">
<title>Node10</title>
<g id="a_Node000010"><a xlink:title=" ">
<polygon fill="#e0e0e0" stroke="#999999" points="131.62,-19.25 81.88,-19.25 81.88,0 131.62,0 131.62,-19.25"/>
<text text-anchor="middle" x="106.75" y="-5.75" font-family="Helvetica,sans-Serif" font-size="10.00">iomanip</text>
</a>
</g>
</g>
<!-- Node8&#45;&gt;Node10 -->
<g id="edge9_Node000008_Node000010" class="edge">
<title>Node8&#45;&gt;Node10</title>
<g id="a_edge9_Node000008_Node000010"><a xlink:title=" ">
<path fill="none" stroke="#63b8ff" d="M444.13,-56.88C441.31,-56.29 438.48,-55.73 435.75,-55.25 309.25,-32.85 272.57,-42.94 143.07,-19.45"/>
<polygon fill="#63b8ff" stroke="#63b8ff" points="143.88,-16.04 133.41,-17.66 142.61,-22.93 143.88,-16.04"/>
</a>
</g>
</g>
<!-- Node11 -->
<g id="Node000011" class="node">
<title>Node11</title>
<g id="a_Node000011"><a xlink:title=" ">
<polygon fill="#e0e0e0" stroke="#999999" points="207.75,-19.25 149.75,-19.25 149.75,0 207.75,0 207.75,-19.25"/>
<text text-anchor="middle" x="178.75" y="-5.75" font-family="Helvetica,sans-Serif" font-size="10.00">stdexcept</text>
</a>
</g>
</g>
<!-- Node8&#45;&gt;Node11 -->
<g id="edge10_Node000008_Node000011" class="edge">
<title>Node8&#45;&gt;Node11</title>
<g id="a_edge10_Node000008_Node000011"><a xlink:title=" ">
<path fill="none" stroke="#63b8ff" d="M444.11,-57C441.29,-56.38 438.47,-55.79 435.75,-55.25 342.49,-36.74 315.49,-38.05 219.29,-19.64"/>
<polygon fill="#63b8ff" stroke="#63b8ff" points="220.14,-16.24 209.66,-17.77 218.81,-23.11 220.14,-16.24"/>
</a>
</g>
</g>
<!-- Node12 -->
<g id="Node000012" class="node">
<title>Node12</title>
<g id="a_Node000012"><a xlink:title=" ">
<polygon fill="#e0e0e0" stroke="#999999" points="265.75,-19.25 225.75,-19.25 225.75,0 265.75,0 265.75,-19.25"/>
<text text-anchor="middle" x="245.75" y="-5.75" font-family="Helvetica,sans-Serif" font-size="10.00">string</text>
</a>
</g>
</g>
<!-- Node8&#45;&gt;Node12 -->
<g id="edge11_Node000008_Node000012" class="edge">
<title>Node8&#45;&gt;Node12</title>
<g id="a_edge11_Node000008_Node000012"><a xlink:title=" ">
<path fill="none" stroke="#63b8ff" d="M444.07,-57.16C441.26,-56.51 438.45,-55.87 435.75,-55.25 367.62,-39.69 347.57,-37.86 276.8,-19.65"/>
<polygon fill="#63b8ff" stroke="#63b8ff" points="278.01,-16.34 267.45,-17.22 276.25,-23.12 278.01,-16.34"/>
</a>
</g>
</g>
<!-- Node13 -->
<g id="Node000013" class="node">
<title>Node13</title>
<g id="a_Node000013"><a xlink:title=" ">
<polygon fill="#e0e0e0" stroke="#999999" points="325.88,-19.25 283.62,-19.25 283.62,0 325.88,0 325.88,-19.25"/>
<text text-anchor="middle" x="304.75" y="-5.75" font-family="Helvetica,sans-Serif" font-size="10.00">cstdio</text>
</a>
</g>
</g>
<!-- Node8&#45;&gt;Node13 -->
<g id="edge12_Node000008_Node000013" class="edge">
<title>Node8&#45;&gt;Node13</title>
<g id="a_edge12_Node000008_Node000013"><a xlink:title=" ">
<path fill="none" stroke="#63b8ff" d="M444.25,-54.84C414.49,-45.41 367.89,-30.64 336.85,-20.8"/>
<polygon fill="#63b8ff" stroke="#63b8ff" points="338.21,-17.56 327.62,-17.87 336.09,-24.23 338.21,-17.56"/>
</a>
</g>
</g>
<!-- Node14 -->
<g id="Node000014" class="node">
<title>Node14</title>
<g id="a_Node000014"><a xlink:title=" ">
<polygon fill="#e0e0e0" stroke="#999999" points="388,-19.25 343.5,-19.25 343.5,0 388,0 388,-19.25"/>
<text text-anchor="middle" x="365.75" y="-5.75" font-family="Helvetica,sans-Serif" font-size="10.00">cstdlib</text>
</a>
</g>
</g>
<!-- Node8&#45;&gt;Node14 -->
<g id="edge13_Node000008_Node000014" class="edge">
<title>Node8&#45;&gt;Node14</title>
<g id="a_edge13_Node000008_Node000014"><a xlink:title=" ">
<path fill="none" stroke="#63b8ff" d="M454.6,-54.84C438.07,-46.62 413.41,-34.34 394.25,-24.81"/>
<polygon fill="#63b8ff" stroke="#63b8ff" points="395.86,-21.7 385.35,-20.38 392.74,-27.97 395.86,-21.7"/>
</a>
</g>
</g>
<!-- Node15 -->
<g id="Node000015" class="node">
<title>Node15</title>
<g id="a_Node000015"><a xlink:title=" ">
<polygon fill="#e0e0e0" stroke="#999999" points="465.5,-19.25 406,-19.25 406,0 465.5,0 465.5,-19.25"/>
<text text-anchor="middle" x="435.75" y="-5.75" font-family="Helvetica,sans-Serif" font-size="10.00">execinfo.h</text>
</a>
</g>
</g>
<!-- Node8&#45;&gt;Node15 -->
<g id="edge14_Node000008_Node000015" class="edge">
<title>Node8&#45;&gt;Node15</title>
<g id="a_edge14_Node000008_Node000015"><a xlink:title=" ">
<path fill="none" stroke="#63b8ff" d="M466.64,-55.08C461.69,-47.96 454.55,-37.68 448.38,-28.8"/>
<polygon fill="#63b8ff" stroke="#63b8ff" points="451.44,-27.07 442.86,-20.85 445.69,-31.06 451.44,-27.07"/>
</a>
</g>
</g>
<!-- Node16 -->
<g id="Node000016" class="node">
<title>Node16</title>
<g id="a_Node000016"><a xlink:title=" ">
<polygon fill="#e0e0e0" stroke="#999999" points="534,-19.25 483.5,-19.25 483.5,0 534,0 534,-19.25"/>
<text text-anchor="middle" x="508.75" y="-5.75" font-family="Helvetica,sans-Serif" font-size="10.00">cxxabi.h</text>
</a>
</g>
</g>
<!-- Node8&#45;&gt;Node16 -->
<g id="edge15_Node000008_Node000016" class="edge">
<title>Node8&#45;&gt;Node16</title>
<g id="a_edge15_Node000008_Node000016"><a xlink:title=" ">
<path fill="none" stroke="#63b8ff" d="M478.69,-55.08C483.46,-48.03 490.31,-37.9 496.27,-29.08"/>
<polygon fill="#63b8ff" stroke="#63b8ff" points="499.13,-31.11 501.83,-20.86 493.33,-27.19 499.13,-31.11"/>
</a>
</g>
</g>
<!-- Node17 -->
<g id="Node000017" class="node">
<title>Node17</title>
<g id="a_Node000017"><a xlink:title=" ">
<polygon fill="#e0e0e0" stroke="#999999" points="603.38,-19.25 552.12,-19.25 552.12,0 603.38,0 603.38,-19.25"/>
<text text-anchor="middle" x="577.75" y="-5.75" font-family="Helvetica,sans-Serif" font-size="10.00">sstream</text>
</a>
</g>
</g>
<!-- Node8&#45;&gt;Node17 -->
<g id="edge16_Node000008_Node000017" class="edge">
<title>Node8&#45;&gt;Node17</title>
<g id="a_edge16_Node000008_Node000017"><a xlink:title=" ">
<path fill="none" stroke="#63b8ff" d="M490.56,-54.84C506.78,-46.62 530.99,-34.34 549.78,-24.81"/>
<polygon fill="#63b8ff" stroke="#63b8ff" points="551.17,-28.03 558.5,-20.39 548,-21.79 551.17,-28.03"/>
</a>
</g>
</g>
<!-- Node18 -->
<g id="Node000018" class="node">
<title>Node18</title>
<g id="a_Node000018"><a xlink:title=" ">
<polygon fill="#e0e0e0" stroke="#999999" points="658.25,-19.25 621.25,-19.25 621.25,0 658.25,0 658.25,-19.25"/>
<text text-anchor="middle" x="639.75" y="-5.75" font-family="Helvetica,sans-Serif" font-size="10.00">array</text>
</a>
</g>
</g>
<!-- Node8&#45;&gt;Node18 -->
<g id="edge17_Node000008_Node000018" class="edge">
<title>Node8&#45;&gt;Node18</title>
<g id="a_edge17_Node000008_Node000018"><a xlink:title=" ">
<path fill="none" stroke="#63b8ff" d="M501.17,-54.82C527.25,-46.51 567.23,-33.77 609.95,-20.14"/>
<polygon fill="#63b8ff" stroke="#63b8ff" points="610.96,-23.49 619.43,-17.12 608.84,-16.82 610.96,-23.49"/>
</a>
</g>
</g>
<!-- Node19 -->
<g id="Node000019" class="node">
<title>Node19</title>
<g id="a_Node000019"><a xlink:title=" ">
<polygon fill="#e0e0e0" stroke="#999999" points="727,-19.25 676.5,-19.25 676.5,0 727,0 727,-19.25"/>
<text text-anchor="middle" x="701.75" y="-5.75" font-family="Helvetica,sans-Serif" font-size="10.00">memory</text>
</a>
</g>
</g>
<!-- Node8&#45;&gt;Node19 -->
<g id="edge18_Node000008_Node000019" class="edge">
<title>Node8&#45;&gt;Node19</title>
<g id="a_edge18_Node000008_Node000019"><a xlink:title=" ">
<path fill="none" stroke="#63b8ff" d="M501.22,-57.58C537.16,-49.58 601.17,-35.19 665.06,-19.86"/>
<polygon fill="#63b8ff" stroke="#63b8ff" points="665.77,-23.29 674.67,-17.54 664.13,-16.48 665.77,-23.29"/>
</a>
</g>
</g>
<!-- Node20 -->
<g id="Node000020" class="node">
<title>Node20</title>
<g id="a_Node000020"><a xlink:title=" ">
<polygon fill="#e0e0e0" stroke="#999999" points="794.62,-19.25 744.88,-19.25 744.88,0 794.62,0 794.62,-19.25"/>
<text text-anchor="middle" x="769.75" y="-5.75" font-family="Helvetica,sans-Serif" font-size="10.00">unistd.h</text>
</a>
</g>
</g>
<!-- Node8&#45;&gt;Node20 -->
<g id="edge19_Node000008_Node000020" class="edge">
<title>Node8&#45;&gt;Node20</title>
<g id="a_edge19_Node000008_Node000020"><a xlink:title=" ">
<path fill="none" stroke="#63b8ff" d="M501.3,-59.8C547.85,-52.99 643.19,-38.36 733.56,-19.57"/>
<polygon fill="#63b8ff" stroke="#63b8ff" points="734,-23.05 743.07,-17.57 732.56,-16.2 734,-23.05"/>
</a>
</g>
</g>
<!-- Node21 -->
<g id="Node000021" class="node">
<title>Node21</title>
<g id="a_Node000021"><a xlink:title=" ">
<polygon fill="#e0e0e0" stroke="#999999" points="872.5,-19.25 813,-19.25 813,0 872.5,0 872.5,-19.25"/>
<text text-anchor="middle" x="842.75" y="-5.75" font-family="Helvetica,sans-Serif" font-size="10.00">sys/wait.h</text>
</a>
</g>
</g>
<!-- Node8&#45;&gt;Node21 -->
<g id="edge20_Node000008_Node000021" class="edge">
<title>Node8&#45;&gt;Node21</title>
<g id="a_edge20_Node000008_Node000021"><a xlink:title=" ">
<path fill="none" stroke="#63b8ff" d="M501.21,-60.85C556.85,-54.76 684.14,-39.99 801.27,-19.56"/>
<polygon fill="#63b8ff" stroke="#63b8ff" points="801.84,-23.01 811.08,-17.82 800.62,-16.12 801.84,-23.01"/>
</a>
</g>
</g>
<!-- Node22 -->
<g id="Node000022" class="node">
<title>Node22</title>
<g id="a_Node000022"><a xlink:title=" ">
<polygon fill="#e0e0e0" stroke="#999999" points="950.88,-19.25 890.62,-19.25 890.62,0 950.88,0 950.88,-19.25"/>
<text text-anchor="middle" x="920.75" y="-5.75" font-family="Helvetica,sans-Serif" font-size="10.00">sys/prctl.h</text>
</a>
</g>
</g>
<!-- Node8&#45;&gt;Node22 -->
<g id="edge21_Node000008_Node000022" class="edge">
<title>Node8&#45;&gt;Node22</title>
<g id="a_edge21_Node000008_Node000022"><a xlink:title=" ">
<path fill="none" stroke="#63b8ff" d="M501.16,-61.85C566.26,-56.97 731.41,-43.32 879.1,-19.53"/>
<polygon fill="#63b8ff" stroke="#63b8ff" points="879.36,-23.03 888.66,-17.97 878.23,-16.12 879.36,-23.03"/>
</a>
</g>
</g>
</g>
</svg>
