<?xml version="1.0" encoding="UTF-8" standalone="no"?>
<!DOCTYPE svg PUBLIC "-//W3C//DTD SVG 1.1//EN"
 "http://www.w3.org/Graphics/SVG/1.1/DTD/svg11.dtd">
<!-- Generated by graphviz version 12.2.0 (20241103.1931)
 -->
<!-- Title: TGriffinBgo.h Pages: 1 -->
<!--zoomable 138 -->

<svg id="main" version="1.1" xmlns="http://www.w3.org/2000/svg" xmlns:xlink="http://www.w3.org/1999/xlink" xml:space="preserve" onload="init(evt)">

<style type="text/css"><![CDATA[
.node, .edge {opacity: 0.7;}
.node.selected, .edge.selected {opacity: 1;}
.edge:hover path { stroke: red; }
.edge:hover polygon { stroke: red; fill: red; }
]]></style>

<defs>
  <circle id="rim" cx="0" cy="0" r="7"/>
  <circle id="rim2" cx="0" cy="0" r="3.5"/>
  <g id="zoomPlus">
    <use xlink:href="#rim" fill="#404040"><set attributeName="fill" to="#808080" begin="zoomplus.mouseover" end="zoomplus.mouseout"/></use>
    <path d="M-4,0h8M0,-4v8" fill="none" stroke="white" stroke-width="1.5" pointer-events="none"/>
  </g>
  <g id="zoomMin">
    <use xlink:href="#rim" fill="#404040"><set attributeName="fill" to="#808080" begin="zoomminus.mouseover" end="zoomminus.mouseout"/></use>
    <path d="M-4,0h8" fill="none" stroke="white" stroke-width="1.5" pointer-events="none"/>
  </g>
  <g id="arrowUp" transform="translate(30 24)">
    <use xlink:href="#rim"/>
    <path pointer-events="none" fill="none" stroke="white" stroke-width="1.5" d="M0,-3.0v7 M-2.5,-0.5L0,-3.0L2.5,-0.5"/>
  </g>
  <g id="arrowRight" transform="rotate(90) translate(36 -43)">
    <use xlink:href="#rim"/>
    <path pointer-events="none" fill="none" stroke="white" stroke-width="1.5" d="M0,-3.0v7 M-2.5,-0.5L0,-3.0L2.5,-0.5"/>
  </g>
  <g id="arrowDown" transform="rotate(180) translate(-30 -48)">
    <use xlink:href="#rim"/>
    <path pointer-events="none" fill="none" stroke="white" stroke-width="1.5" d="M0,-3.0v7 M-2.5,-0.5L0,-3.0L2.5,-0.5"/>
  </g>
  <g id="arrowLeft" transform="rotate(270) translate(-36 17)">
    <use xlink:href="#rim"/>
    <path pointer-events="none" fill="none" stroke="white" stroke-width="1.5" d="M0,-3.0v7 M-2.5,-0.5L0,-3.0L2.5,-0.5"/>
  </g>
  <g id="resetDef">
    <use xlink:href="#rim2" fill="#404040"><set attributeName="fill" to="#808080" begin="reset.mouseover" end="reset.mouseout"/></use>
  </g>
</defs>
<script type="application/ecmascript">
var viewWidth = 2115;
var viewHeight = 138;
var sectionId = 'dynsection-1';
</script>
<script type="application/ecmascript" xlink:href="svg.min.js"/>
<svg id="graph" class="graph">
<g id="viewport">
<title>TGriffinBgo.h</title>
<!-- Node1 -->
<g id="Node000001" class="node">
<title>Node1</title>
<g id="a_Node000001"><a xlink:title=" ">
<polygon fill="#999999" stroke="#666666" points="1070,-129.75 998.5,-129.75 998.5,-110.5 1070,-110.5 1070,-129.75"/>
<text text-anchor="middle" x="1034.25" y="-116.25" font-family="Helvetica,sans-Serif" font-size="10.00">TGriffinBgo.h</text>
</a>
</g>
</g>
<!-- Node2 -->
<g id="Node000002" class="node">
<title>Node2</title>
<g id="a_Node000002"><a xlink:href="_angular_correlation_helper_8hh.html" target="_top" xlink:title=" ">
<polygon fill="white" stroke="#666666" points="141.62,-74.5 4.88,-74.5 4.88,-55.25 141.62,-55.25 141.62,-74.5"/>
<text text-anchor="middle" x="73.25" y="-61" font-family="Helvetica,sans-Serif" font-size="10.00">AngularCorrelationHelper.hh</text>
</a>
</g>
</g>
<!-- Node1&#45;&gt;Node2 -->
<g id="edge1_Node000001_Node000002" class="edge">
<title>Node1&#45;&gt;Node2</title>
<g id="a_edge1_Node000001_Node000002"><a xlink:title=" ">
<path fill="none" stroke="#63b8ff" d="M986.79,-117.7C854.52,-113.5 470.48,-99.9 152.25,-74.5 148.81,-74.23 145.29,-73.92 141.74,-73.6"/>
<polygon fill="#63b8ff" stroke="#63b8ff" points="986.46,-121.19 996.56,-118 986.68,-114.19 986.46,-121.19"/>
</a>
</g>
</g>
<!-- Node4 -->
<g id="Node000004" class="node">
<title>Node4</title>
<g id="a_Node000004"><a xlink:href="_compton_polarimetry_helper_8hh.html" target="_top" xlink:title=" ">
<polygon fill="white" stroke="#666666" points="306.75,-74.5 161.75,-74.5 161.75,-55.25 306.75,-55.25 306.75,-74.5"/>
<text text-anchor="middle" x="234.25" y="-61" font-family="Helvetica,sans-Serif" font-size="10.00">ComptonPolarimetryHelper.hh</text>
</a>
</g>
</g>
<!-- Node1&#45;&gt;Node4 -->
<g id="edge3_Node000001_Node000004" class="edge">
<title>Node1&#45;&gt;Node4</title>
<g id="a_edge3_Node000001_Node000004"><a xlink:title=" ">
<path fill="none" stroke="#63b8ff" d="M986.58,-116.82C871.55,-111.1 569.7,-95.24 318.25,-74.5 314.6,-74.2 310.86,-73.87 307.08,-73.53"/>
<polygon fill="#63b8ff" stroke="#63b8ff" points="986.41,-120.31 996.57,-117.31 986.75,-113.32 986.41,-120.31"/>
</a>
</g>
</g>
<!-- Node6 -->
<g id="Node000006" class="node">
<title>Node6</title>
<g id="a_Node000006"><a xlink:href="_cross_talk_8h.html" target="_top" xlink:title=" ">
<polygon fill="white" stroke="#666666" points="395.12,-74.5 327.38,-74.5 327.38,-55.25 395.12,-55.25 395.12,-74.5"/>
<text text-anchor="middle" x="361.25" y="-61" font-family="Helvetica,sans-Serif" font-size="10.00">CrossTalk.h</text>
</a>
</g>
</g>
<!-- Node1&#45;&gt;Node6 -->
<g id="edge5_Node000001_Node000006" class="edge">
<title>Node1&#45;&gt;Node6</title>
<g id="a_edge5_Node000001_Node000006"><a xlink:title=" ">
<path fill="none" stroke="#63b8ff" d="M986.91,-117.68C881.97,-114.05 622.01,-102.74 406.25,-74.5 402.78,-74.05 399.17,-73.49 395.58,-72.89"/>
<polygon fill="#63b8ff" stroke="#63b8ff" points="986.72,-121.17 996.83,-118.01 986.95,-114.18 986.72,-121.17"/>
</a>
</g>
</g>
<!-- Node8 -->
<g id="Node000008" class="node">
<title>Node8</title>
<g id="a_Node000008"><a xlink:href="_cross_talk_helper_8hh.html" target="_top" xlink:title=" ">
<polygon fill="white" stroke="#666666" points="517,-74.5 415.5,-74.5 415.5,-55.25 517,-55.25 517,-74.5"/>
<text text-anchor="middle" x="466.25" y="-61" font-family="Helvetica,sans-Serif" font-size="10.00">CrossTalkHelper.hh</text>
</a>
</g>
</g>
<!-- Node1&#45;&gt;Node8 -->
<g id="edge7_Node000001_Node000008" class="edge">
<title>Node1&#45;&gt;Node8</title>
<g id="a_edge7_Node000001_Node000008"><a xlink:title=" ">
<path fill="none" stroke="#63b8ff" d="M986.67,-115.68C897.04,-109.03 697.08,-93.39 529.25,-74.5 525.41,-74.07 521.44,-73.59 517.45,-73.09"/>
<polygon fill="#63b8ff" stroke="#63b8ff" points="986.32,-119.17 996.55,-116.41 986.84,-112.19 986.32,-119.17"/>
</a>
</g>
</g>
<!-- Node10 -->
<g id="Node000010" class="node">
<title>Node10</title>
<g id="a_Node000010"><a xlink:href="_directory_helper_8hh.html" target="_top" xlink:title=" ">
<polygon fill="white" stroke="#666666" points="634,-74.5 538.5,-74.5 538.5,-55.25 634,-55.25 634,-74.5"/>
<text text-anchor="middle" x="586.25" y="-61" font-family="Helvetica,sans-Serif" font-size="10.00">DirectoryHelper.hh</text>
</a>
</g>
</g>
<!-- Node1&#45;&gt;Node10 -->
<g id="edge9_Node000001_Node000010" class="edge">
<title>Node1&#45;&gt;Node10</title>
<g id="a_edge9_Node000001_Node000010"><a xlink:title=" ">
<path fill="none" stroke="#63b8ff" d="M986.87,-114.17C913.56,-106.39 768.26,-90.54 645.25,-74.5 641.66,-74.03 637.94,-73.53 634.21,-73.01"/>
<polygon fill="#63b8ff" stroke="#63b8ff" points="986.19,-117.61 996.5,-115.19 986.92,-110.65 986.19,-117.61"/>
</a>
</g>
</g>
<!-- Node12 -->
<g id="Node000012" class="node">
<title>Node12</title>
<g id="a_Node000012"><a xlink:href="_efficiency_helper_8hh.html" target="_top" xlink:title=" ">
<polygon fill="white" stroke="#666666" points="752.12,-74.5 654.38,-74.5 654.38,-55.25 752.12,-55.25 752.12,-74.5"/>
<text text-anchor="middle" x="703.25" y="-61" font-family="Helvetica,sans-Serif" font-size="10.00">EfficiencyHelper.hh</text>
</a>
</g>
</g>
<!-- Node1&#45;&gt;Node12 -->
<g id="edge11_Node000001_Node000012" class="edge">
<title>Node1&#45;&gt;Node12</title>
<g id="a_edge11_Node000001_Node000012"><a xlink:title=" ">
<path fill="none" stroke="#63b8ff" d="M987.14,-111.55C924.86,-101.53 815.65,-83.96 752.38,-73.78"/>
<polygon fill="#63b8ff" stroke="#63b8ff" points="986.27,-114.95 996.7,-113.08 987.39,-108.04 986.27,-114.95"/>
</a>
</g>
</g>
<!-- Node14 -->
<g id="Node000014" class="node">
<title>Node14</title>
<g id="a_Node000014"><a xlink:href="_example_event_helper_8hh.html" target="_top" xlink:title=" ">
<polygon fill="white" stroke="#666666" points="888.62,-74.5 769.88,-74.5 769.88,-55.25 888.62,-55.25 888.62,-74.5"/>
<text text-anchor="middle" x="829.25" y="-61" font-family="Helvetica,sans-Serif" font-size="10.00">ExampleEventHelper.hh</text>
</a>
</g>
</g>
<!-- Node1&#45;&gt;Node14 -->
<g id="edge13_Node000001_Node000014" class="edge">
<title>Node1&#45;&gt;Node14</title>
<g id="a_edge13_Node000001_Node000014"><a xlink:title=" ">
<path fill="none" stroke="#63b8ff" d="M988.81,-107.32C951.21,-97.55 898.57,-83.88 864.2,-74.95"/>
<polygon fill="#63b8ff" stroke="#63b8ff" points="987.45,-110.58 998.01,-109.71 989.21,-103.81 987.45,-110.58"/>
</a>
</g>
</g>
<!-- Node16 -->
<g id="Node000016" class="node">
<title>Node16</title>
<g id="a_Node000016"><a xlink:href="_example_event_selector_8h.html" target="_top" xlink:title=" ">
<polygon fill="white" stroke="#666666" points="1027.75,-74.5 906.75,-74.5 906.75,-55.25 1027.75,-55.25 1027.75,-74.5"/>
<text text-anchor="middle" x="967.25" y="-61" font-family="Helvetica,sans-Serif" font-size="10.00">ExampleEventSelector.h</text>
</a>
</g>
</g>
<!-- Node1&#45;&gt;Node16 -->
<g id="edge15_Node000001_Node000016" class="edge">
<title>Node1&#45;&gt;Node16</title>
<g id="a_edge15_Node000001_Node000016"><a xlink:title=" ">
<path fill="none" stroke="#63b8ff" d="M1014.2,-103.19C1002.5,-93.89 988.18,-82.51 978.45,-74.77"/>
<polygon fill="#63b8ff" stroke="#63b8ff" points="1011.69,-105.67 1021.7,-109.15 1016.05,-100.19 1011.69,-105.67"/>
</a>
</g>
</g>
<!-- Node18 -->
<g id="Node000018" class="node">
<title>Node18</title>
<g id="a_Node000018"><a xlink:href="_example_tree_helper_8hh.html" target="_top" xlink:title=" ">
<polygon fill="white" stroke="#666666" points="1159,-74.5 1045.5,-74.5 1045.5,-55.25 1159,-55.25 1159,-74.5"/>
<text text-anchor="middle" x="1102.25" y="-61" font-family="Helvetica,sans-Serif" font-size="10.00">ExampleTreeHelper.hh</text>
</a>
</g>
</g>
<!-- Node1&#45;&gt;Node18 -->
<g id="edge17_Node000001_Node000018" class="edge">
<title>Node1&#45;&gt;Node18</title>
<g id="a_edge17_Node000001_Node000018"><a xlink:title=" ">
<path fill="none" stroke="#63b8ff" d="M1054.6,-103.19C1066.47,-93.89 1081.01,-82.51 1090.89,-74.77"/>
<polygon fill="#63b8ff" stroke="#63b8ff" points="1052.69,-100.24 1046.98,-109.16 1057.01,-105.75 1052.69,-100.24"/>
</a>
</g>
</g>
<!-- Node20 -->
<g id="Node000020" class="node">
<title>Node20</title>
<g id="a_Node000020"><a xlink:href="_example_tree_selector_8h.html" target="_top" xlink:title=" ">
<polygon fill="white" stroke="#666666" points="1293.12,-74.5 1177.38,-74.5 1177.38,-55.25 1293.12,-55.25 1293.12,-74.5"/>
<text text-anchor="middle" x="1235.25" y="-61" font-family="Helvetica,sans-Serif" font-size="10.00">ExampleTreeSelector.h</text>
</a>
</g>
</g>
<!-- Node1&#45;&gt;Node20 -->
<g id="edge19_Node000001_Node000020" class="edge">
<title>Node1&#45;&gt;Node20</title>
<g id="a_edge19_Node000001_Node000020"><a xlink:title=" ">
<path fill="none" stroke="#63b8ff" d="M1079.28,-107.2C1116.12,-97.44 1167.43,-83.84 1200.99,-74.95"/>
<polygon fill="#63b8ff" stroke="#63b8ff" points="1078.58,-103.76 1069.81,-109.7 1080.37,-110.53 1078.58,-103.76"/>
</a>
</g>
</g>
<!-- Node22 -->
<g id="Node000022" class="node">
<title>Node22</title>
<g id="a_Node000022"><a xlink:href="_fast_timing_hist_selector_8h.html" target="_top" xlink:title=" ">
<polygon fill="white" stroke="#666666" points="1437.38,-74.5 1311.12,-74.5 1311.12,-55.25 1437.38,-55.25 1437.38,-74.5"/>
<text text-anchor="middle" x="1374.25" y="-61" font-family="Helvetica,sans-Serif" font-size="10.00">FastTimingHistSelector.h</text>
</a>
</g>
</g>
<!-- Node1&#45;&gt;Node22 -->
<g id="edge21_Node000001_Node000022" class="edge">
<title>Node1&#45;&gt;Node22</title>
<g id="a_edge21_Node000001_Node000022"><a xlink:title=" ">
<path fill="none" stroke="#63b8ff" d="M1081.59,-111.71C1142.99,-102.09 1250.02,-85.33 1316.24,-74.96"/>
<polygon fill="#63b8ff" stroke="#63b8ff" points="1081.15,-108.24 1071.81,-113.24 1082.23,-115.15 1081.15,-108.24"/>
</a>
</g>
</g>
<!-- Node24 -->
<g id="Node000024" class="node">
<title>Node24</title>
<g id="a_Node000024"><a xlink:href="_make_griffin_histograms_8cxx.html" target="_top" xlink:title=" ">
<polygon fill="white" stroke="#666666" points="1587,-74.5 1455.5,-74.5 1455.5,-55.25 1587,-55.25 1587,-74.5"/>
<text text-anchor="middle" x="1521.25" y="-61" font-family="Helvetica,sans-Serif" font-size="10.00">MakeGriffinHistograms.cxx</text>
</a>
</g>
</g>
<!-- Node1&#45;&gt;Node24 -->
<g id="edge23_Node000001_Node000024" class="edge">
<title>Node1&#45;&gt;Node24</title>
<g id="a_edge23_Node000001_Node000024"><a xlink:title=" ">
<path fill="none" stroke="#63b8ff" d="M1081.51,-114.11C1158.11,-105.95 1314.14,-89.25 1446.25,-74.5 1449.25,-74.17 1452.31,-73.82 1455.4,-73.47"/>
<polygon fill="#63b8ff" stroke="#63b8ff" points="1081.43,-110.6 1071.86,-115.14 1082.18,-117.56 1081.43,-110.6"/>
</a>
</g>
</g>
<!-- Node25 -->
<g id="Node000025" class="node">
<title>Node25</title>
<g id="a_Node000025"><a xlink:href="_simulation_angular_correlation_8cxx.html" target="_top" xlink:title=" ">
<polygon fill="white" stroke="#666666" points="1763.12,-74.5 1605.38,-74.5 1605.38,-55.25 1763.12,-55.25 1763.12,-74.5"/>
<text text-anchor="middle" x="1684.25" y="-61" font-family="Helvetica,sans-Serif" font-size="10.00">SimulationAngularCorrelation.cxx</text>
</a>
</g>
</g>
<!-- Node1&#45;&gt;Node25 -->
<g id="edge24_Node000001_Node000025" class="edge">
<title>Node1&#45;&gt;Node25</title>
<g id="a_edge24_Node000001_Node000025"><a xlink:title=" ">
<path fill="none" stroke="#63b8ff" d="M1081.86,-115.64C1178.75,-108.49 1405.79,-91.39 1596.25,-74.5 1599.16,-74.24 1602.11,-73.98 1605.1,-73.7"/>
<polygon fill="#63b8ff" stroke="#63b8ff" points="1081.66,-112.15 1071.94,-116.37 1082.17,-119.13 1081.66,-112.15"/>
</a>
</g>
</g>
<!-- Node26 -->
<g id="Node000026" class="node">
<title>Node26</title>
<g id="a_Node000026"><a xlink:href="_t_g_r_s_i_mnemonic_8cxx.html" target="_top" xlink:title=" ">
<polygon fill="white" stroke="#666666" points="1889,-74.5 1781.5,-74.5 1781.5,-55.25 1889,-55.25 1889,-74.5"/>
<text text-anchor="middle" x="1835.25" y="-61" font-family="Helvetica,sans-Serif" font-size="10.00">TGRSIMnemonic.cxx</text>
</a>
</g>
</g>
<!-- Node1&#45;&gt;Node26 -->
<g id="edge25_Node000001_Node000026" class="edge">
<title>Node1&#45;&gt;Node26</title>
<g id="a_edge25_Node000001_Node000026"><a xlink:title=" ">
<path fill="none" stroke="#63b8ff" d="M1081.82,-117.5C1199.25,-113.21 1512.28,-100.12 1772.25,-74.5 1775.22,-74.21 1778.26,-73.88 1781.33,-73.53"/>
<polygon fill="#63b8ff" stroke="#63b8ff" points="1081.8,-114 1071.93,-117.85 1082.05,-120.99 1081.8,-114"/>
</a>
</g>
</g>
<!-- Node27 -->
<g id="Node000027" class="node">
<title>Node27</title>
<g id="a_Node000027"><a xlink:href="_t_griffin_bgo_8cxx.html" target="_top" xlink:title=" ">
<polygon fill="white" stroke="#666666" points="1987.5,-74.5 1907,-74.5 1907,-55.25 1987.5,-55.25 1987.5,-74.5"/>
<text text-anchor="middle" x="1947.25" y="-61" font-family="Helvetica,sans-Serif" font-size="10.00">TGriffinBgo.cxx</text>
</a>
</g>
</g>
<!-- Node1&#45;&gt;Node27 -->
<g id="edge26_Node000001_Node000027" class="edge">
<title>Node1&#45;&gt;Node27</title>
<g id="a_edge26_Node000001_Node000027"><a xlink:title=" ">
<path fill="none" stroke="#63b8ff" d="M1081.69,-118.71C1212.32,-117.14 1588.18,-109.66 1898.25,-74.5 1901,-74.19 1903.82,-73.82 1906.66,-73.41"/>
<polygon fill="#63b8ff" stroke="#63b8ff" points="1081.65,-115.21 1071.69,-118.83 1081.73,-122.21 1081.65,-115.21"/>
</a>
</g>
</g>
<!-- Node28 -->
<g id="Node000028" class="node">
<title>Node28</title>
<g id="a_Node000028"><a xlink:href="_tac_offset_helper_8hh.html" target="_top" xlink:title=" ">
<polygon fill="white" stroke="#666666" points="2105.25,-74.5 2005.25,-74.5 2005.25,-55.25 2105.25,-55.25 2105.25,-74.5"/>
<text text-anchor="middle" x="2055.25" y="-61" font-family="Helvetica,sans-Serif" font-size="10.00">TacOffsetHelper.hh</text>
</a>
</g>
</g>
<!-- Node1&#45;&gt;Node28 -->
<g id="edge27_Node000001_Node000028" class="edge">
<title>Node1&#45;&gt;Node28</title>
<g id="a_edge27_Node000001_Node000028"><a xlink:title=" ">
<path fill="none" stroke="#63b8ff" d="M1081.26,-118.59C1220.97,-116.64 1645.79,-108.16 1996.25,-74.5 1999.03,-74.23 2001.88,-73.93 2004.76,-73.59"/>
<polygon fill="#63b8ff" stroke="#63b8ff" points="1081.62,-115.08 1071.67,-118.72 1081.72,-122.08 1081.62,-115.08"/>
</a>
</g>
</g>
<!-- Node3 -->
<g id="Node000003" class="node">
<title>Node3</title>
<g id="a_Node000003"><a xlink:href="_angular_correlation_helper_8cxx.html" target="_top" xlink:title=" ">
<polygon fill="white" stroke="#666666" points="140.5,-19.25 0,-19.25 0,0 140.5,0 140.5,-19.25"/>
<text text-anchor="middle" x="70.25" y="-5.75" font-family="Helvetica,sans-Serif" font-size="10.00">AngularCorrelationHelper.cxx</text>
</a>
</g>
</g>
<!-- Node2&#45;&gt;Node3 -->
<g id="edge2_Node000002_Node000003" class="edge">
<title>Node2&#45;&gt;Node3</title>
<g id="a_edge2_Node000002_Node000003"><a xlink:title=" ">
<path fill="none" stroke="#63b8ff" d="M72.11,-43.63C71.64,-35.34 71.13,-26.17 70.76,-19.61"/>
<polygon fill="#63b8ff" stroke="#63b8ff" points="68.61,-43.78 72.67,-53.57 75.6,-43.39 68.61,-43.78"/>
</a>
</g>
</g>
<!-- Node5 -->
<g id="Node000005" class="node">
<title>Node5</title>
<g id="a_Node000005"><a xlink:href="_compton_polarimetry_helper_8cxx.html" target="_top" xlink:title=" ">
<polygon fill="white" stroke="#666666" points="307.62,-19.25 158.88,-19.25 158.88,0 307.62,0 307.62,-19.25"/>
<text text-anchor="middle" x="233.25" y="-5.75" font-family="Helvetica,sans-Serif" font-size="10.00">ComptonPolarimetryHelper.cxx</text>
</a>
</g>
</g>
<!-- Node4&#45;&gt;Node5 -->
<g id="edge4_Node000004_Node000005" class="edge">
<title>Node4&#45;&gt;Node5</title>
<g id="a_edge4_Node000004_Node000005"><a xlink:title=" ">
<path fill="none" stroke="#63b8ff" d="M233.87,-43.63C233.71,-35.34 233.54,-26.17 233.42,-19.61"/>
<polygon fill="#63b8ff" stroke="#63b8ff" points="230.37,-43.64 234.06,-53.57 237.37,-43.5 230.37,-43.64"/>
</a>
</g>
</g>
<!-- Node7 -->
<g id="Node000007" class="node">
<title>Node7</title>
<g id="a_Node000007"><a xlink:href="_cross_talk_8_c.html" target="_top" xlink:title=" ">
<polygon fill="white" stroke="#666666" points="394.88,-19.25 325.62,-19.25 325.62,0 394.88,0 394.88,-19.25"/>
<text text-anchor="middle" x="360.25" y="-5.75" font-family="Helvetica,sans-Serif" font-size="10.00">CrossTalk.C</text>
</a>
</g>
</g>
<!-- Node6&#45;&gt;Node7 -->
<g id="edge6_Node000006_Node000007" class="edge">
<title>Node6&#45;&gt;Node7</title>
<g id="a_edge6_Node000006_Node000007"><a xlink:title=" ">
<path fill="none" stroke="#63b8ff" d="M360.87,-43.63C360.71,-35.34 360.54,-26.17 360.42,-19.61"/>
<polygon fill="#63b8ff" stroke="#63b8ff" points="357.37,-43.64 361.06,-53.57 364.37,-43.5 357.37,-43.64"/>
</a>
</g>
</g>
<!-- Node9 -->
<g id="Node000009" class="node">
<title>Node9</title>
<g id="a_Node000009"><a xlink:href="_cross_talk_helper_8cxx.html" target="_top" xlink:title=" ">
<polygon fill="white" stroke="#666666" points="517.88,-19.25 412.62,-19.25 412.62,0 517.88,0 517.88,-19.25"/>
<text text-anchor="middle" x="465.25" y="-5.75" font-family="Helvetica,sans-Serif" font-size="10.00">CrossTalkHelper.cxx</text>
</a>
</g>
</g>
<!-- Node8&#45;&gt;Node9 -->
<g id="edge8_Node000008_Node000009" class="edge">
<title>Node8&#45;&gt;Node9</title>
<g id="a_edge8_Node000008_Node000009"><a xlink:title=" ">
<path fill="none" stroke="#63b8ff" d="M465.87,-43.63C465.71,-35.34 465.54,-26.17 465.42,-19.61"/>
<polygon fill="#63b8ff" stroke="#63b8ff" points="462.37,-43.64 466.06,-53.57 469.37,-43.5 462.37,-43.64"/>
</a>
</g>
</g>
<!-- Node11 -->
<g id="Node000011" class="node">
<title>Node11</title>
<g id="a_Node000011"><a xlink:href="_directory_helper_8cxx.html" target="_top" xlink:title=" ">
<polygon fill="white" stroke="#666666" points="634.88,-19.25 535.62,-19.25 535.62,0 634.88,0 634.88,-19.25"/>
<text text-anchor="middle" x="585.25" y="-5.75" font-family="Helvetica,sans-Serif" font-size="10.00">DirectoryHelper.cxx</text>
</a>
</g>
</g>
<!-- Node10&#45;&gt;Node11 -->
<g id="edge10_Node000010_Node000011" class="edge">
<title>Node10&#45;&gt;Node11</title>
<g id="a_edge10_Node000010_Node000011"><a xlink:title=" ">
<path fill="none" stroke="#63b8ff" d="M585.87,-43.63C585.71,-35.34 585.54,-26.17 585.42,-19.61"/>
<polygon fill="#63b8ff" stroke="#63b8ff" points="582.37,-43.64 586.06,-53.57 589.37,-43.5 582.37,-43.64"/>
</a>
</g>
</g>
<!-- Node13 -->
<g id="Node000013" class="node">
<title>Node13</title>
<g id="a_Node000013"><a xlink:href="_efficiency_helper_8cxx.html" target="_top" xlink:title=" ">
<polygon fill="white" stroke="#666666" points="754,-19.25 652.5,-19.25 652.5,0 754,0 754,-19.25"/>
<text text-anchor="middle" x="703.25" y="-5.75" font-family="Helvetica,sans-Serif" font-size="10.00">EfficiencyHelper.cxx</text>
</a>
</g>
</g>
<!-- Node12&#45;&gt;Node13 -->
<g id="edge12_Node000012_Node000013" class="edge">
<title>Node12&#45;&gt;Node13</title>
<g id="a_edge12_Node000012_Node000013"><a xlink:title=" ">
<path fill="none" stroke="#63b8ff" d="M703.25,-43.63C703.25,-35.34 703.25,-26.17 703.25,-19.61"/>
<polygon fill="#63b8ff" stroke="#63b8ff" points="699.75,-43.57 703.25,-53.57 706.75,-43.57 699.75,-43.57"/>
</a>
</g>
</g>
<!-- Node15 -->
<g id="Node000015" class="node">
<title>Node15</title>
<g id="a_Node000015"><a xlink:href="_example_event_helper_8cxx.html" target="_top" xlink:title=" ">
<polygon fill="white" stroke="#666666" points="894.5,-19.25 772,-19.25 772,0 894.5,0 894.5,-19.25"/>
<text text-anchor="middle" x="833.25" y="-5.75" font-family="Helvetica,sans-Serif" font-size="10.00">ExampleEventHelper.cxx</text>
</a>
</g>
</g>
<!-- Node14&#45;&gt;Node15 -->
<g id="edge14_Node000014_Node000015" class="edge">
<title>Node14&#45;&gt;Node15</title>
<g id="a_edge14_Node000014_Node000015"><a xlink:title=" ">
<path fill="none" stroke="#63b8ff" d="M830.77,-43.63C831.39,-35.34 832.08,-26.17 832.58,-19.61"/>
<polygon fill="#63b8ff" stroke="#63b8ff" points="827.28,-43.34 830.02,-53.57 834.26,-43.86 827.28,-43.34"/>
</a>
</g>
</g>
<!-- Node17 -->
<g id="Node000017" class="node">
<title>Node17</title>
<g id="a_Node000017"><a xlink:href="_example_event_selector_8_c.html" target="_top" xlink:title=" ">
<polygon fill="white" stroke="#666666" points="1035.5,-19.25 913,-19.25 913,0 1035.5,0 1035.5,-19.25"/>
<text text-anchor="middle" x="974.25" y="-5.75" font-family="Helvetica,sans-Serif" font-size="10.00">ExampleEventSelector.C</text>
</a>
</g>
</g>
<!-- Node16&#45;&gt;Node17 -->
<g id="edge16_Node000016_Node000017" class="edge">
<title>Node16&#45;&gt;Node17</title>
<g id="a_edge16_Node000016_Node000017"><a xlink:title=" ">
<path fill="none" stroke="#63b8ff" d="M969.87,-43.92C970.97,-35.55 972.2,-26.25 973.07,-19.61"/>
<polygon fill="#63b8ff" stroke="#63b8ff" points="966.44,-43.21 968.6,-53.58 973.38,-44.12 966.44,-43.21"/>
</a>
</g>
</g>
<!-- Node19 -->
<g id="Node000019" class="node">
<title>Node19</title>
<g id="a_Node000019"><a xlink:href="_example_tree_helper_8cxx.html" target="_top" xlink:title=" ">
<polygon fill="white" stroke="#666666" points="1170.88,-19.25 1053.62,-19.25 1053.62,0 1170.88,0 1170.88,-19.25"/>
<text text-anchor="middle" x="1112.25" y="-5.75" font-family="Helvetica,sans-Serif" font-size="10.00">ExampleTreeHelper.cxx</text>
</a>
</g>
</g>
<!-- Node18&#45;&gt;Node19 -->
<g id="edge18_Node000018_Node000019" class="edge">
<title>Node18&#45;&gt;Node19</title>
<g id="a_edge18_Node000018_Node000019"><a xlink:title=" ">
<path fill="none" stroke="#63b8ff" d="M1106,-43.92C1107.57,-35.55 1109.32,-26.25 1110.56,-19.61"/>
<polygon fill="#63b8ff" stroke="#63b8ff" points="1102.59,-43.12 1104.18,-53.59 1109.47,-44.41 1102.59,-43.12"/>
</a>
</g>
</g>
<!-- Node21 -->
<g id="Node000021" class="node">
<title>Node21</title>
<g id="a_Node000021"><a xlink:href="_example_tree_selector_8_c.html" target="_top" xlink:title=" ">
<polygon fill="white" stroke="#666666" points="1305.88,-19.25 1188.62,-19.25 1188.62,0 1305.88,0 1305.88,-19.25"/>
<text text-anchor="middle" x="1247.25" y="-5.75" font-family="Helvetica,sans-Serif" font-size="10.00">ExampleTreeSelector.C</text>
</a>
</g>
</g>
<!-- Node20&#45;&gt;Node21 -->
<g id="edge20_Node000020_Node000021" class="edge">
<title>Node20&#45;&gt;Node21</title>
<g id="a_edge20_Node000020_Node000021"><a xlink:title=" ">
<path fill="none" stroke="#63b8ff" d="M1239.75,-43.92C1241.63,-35.55 1243.73,-26.25 1245.23,-19.61"/>
<polygon fill="#63b8ff" stroke="#63b8ff" points="1236.35,-43.08 1237.56,-53.61 1243.18,-44.62 1236.35,-43.08"/>
</a>
</g>
</g>
<!-- Node23 -->
<g id="Node000023" class="node">
<title>Node23</title>
<g id="a_Node000023"><a xlink:href="_fast_timing_hist_selector_8_c.html" target="_top" xlink:title=" ">
<polygon fill="white" stroke="#666666" points="1452.12,-19.25 1324.38,-19.25 1324.38,0 1452.12,0 1452.12,-19.25"/>
<text text-anchor="middle" x="1388.25" y="-5.75" font-family="Helvetica,sans-Serif" font-size="10.00">FastTimingHistSelector.C</text>
</a>
</g>
</g>
<!-- Node22&#45;&gt;Node23 -->
<g id="edge22_Node000022_Node000023" class="edge">
<title>Node22&#45;&gt;Node23</title>
<g id="a_edge22_Node000022_Node000023"><a xlink:title=" ">
<path fill="none" stroke="#63b8ff" d="M1379.42,-44.21C1381.64,-35.77 1384.12,-26.33 1385.89,-19.61"/>
<polygon fill="#63b8ff" stroke="#63b8ff" points="1376.1,-43.06 1376.95,-53.62 1382.87,-44.84 1376.1,-43.06"/>
</a>
</g>
</g>
<!-- Node29 -->
<g id="Node000029" class="node">
<title>Node29</title>
<g id="a_Node000029"><a xlink:href="_tac_offset_helper_8cxx.html" target="_top" xlink:title=" ">
<polygon fill="white" stroke="#666666" points="2107.12,-19.25 2003.38,-19.25 2003.38,0 2107.12,0 2107.12,-19.25"/>
<text text-anchor="middle" x="2055.25" y="-5.75" font-family="Helvetica,sans-Serif" font-size="10.00">TacOffsetHelper.cxx</text>
</a>
</g>
</g>
<!-- Node28&#45;&gt;Node29 -->
<g id="edge28_Node000028_Node000029" class="edge">
<title>Node28&#45;&gt;Node29</title>
<g id="a_edge28_Node000028_Node000029"><a xlink:title=" ">
<path fill="none" stroke="#63b8ff" d="M2055.25,-43.63C2055.25,-35.34 2055.25,-26.17 2055.25,-19.61"/>
<polygon fill="#63b8ff" stroke="#63b8ff" points="2051.75,-43.57 2055.25,-53.57 2058.75,-43.57 2051.75,-43.57"/>
</a>
</g>
</g>
</g>
</svg>

<g id="navigator" transform="translate(0 0)" fill="#404254">
  <rect fill="#f2f5e9" fill-opacity="0.5" stroke="#606060" stroke-width=".5" x="0" y="0" width="60" height="60"/>
  <use id="zoomplus" xlink:href="#zoomPlus" x="17" y="9" onmousedown="handleZoom(evt,'in')"/>
  <use id="zoomminus" xlink:href="#zoomMin" x="42" y="9" onmousedown="handleZoom(evt,'out')"/>
  <use id="reset" xlink:href="#resetDef" x="30" y="36" onmousedown="handleReset()"/>
   <use id="arrowup" xlink:href="#arrowUp" x="0" y="0" onmousedown="handlePan(0,-1)"/>
  <use id="arrowright" xlink:href="#arrowRight" x="0" y="0" onmousedown="handlePan(1,0)"/>
  <use id="arrowdown" xlink:href="#arrowDown" x="0" y="0" onmousedown="handlePan(0,1)"/>
  <use id="arrowleft" xlink:href="#arrowLeft" x="0" y="0" onmousedown="handlePan(-1,0)"/>
</g>
<svg viewBox="0 0 15 15" width="100%" height="30px" preserveAspectRatio="xMaxYMin meet">
 <g id="arrow_out" transform="scale(0.3 0.3)">
  <a xlink:href="_t_griffin_bgo_8h__dep__incl_org.svg" target="_base">
   <rect id="button" ry="5" rx="5" y="6" x="6" height="38" width="38"
        fill="#f2f5e9" fill-opacity="0.5" stroke="#606060" stroke-width="1.0"/>
   <path id="arrow"
     d="M 11.500037,31.436501 C 11.940474,20.09759 22.043105,11.32322 32.158766,21.979434 L 37.068811,17.246167 C 37.068811,17.246167 37.088388,32 37.088388,32 L 22.160133,31.978069 C 22.160133,31.978069 26.997745,27.140456 26.997745,27.140456 C 18.528582,18.264221 13.291696,25.230495 11.500037,31.436501 z"
     style="fill:#404040;"/>
  </a>
 </g>
</svg>

<style type='text/css'>
<![CDATA[
[data-mouse-over-selected='false'] { opacity: 0.7; }
[data-mouse-over-selected='true']  { opacity: 1.0; }
]]>
</style>
<script type="application/ecmascript"><![CDATA[
document.addEventListener('DOMContentLoaded', (event) => {
  highlightEdges();
  highlightAdjacentNodes();
});
]]></script>
</svg>
