<?xml version="1.0" encoding="UTF-8" standalone="no"?>
<!DOCTYPE svg PUBLIC "-//W3C//DTD SVG 1.1//EN"
 "http://www.w3.org/Graphics/SVG/1.1/DTD/svg11.dtd">
<!-- Generated by graphviz version 12.2.0 (20241103.1931)
 -->
<!-- Title: TGRSIOptions.cxx Pages: 1 -->
<!--zoomable 193 -->

<svg id="main" version="1.1" xmlns="http://www.w3.org/2000/svg" xmlns:xlink="http://www.w3.org/1999/xlink" xml:space="preserve" onload="init(evt)">

<style type="text/css"><![CDATA[
.node, .edge {opacity: 0.7;}
.node.selected, .edge.selected {opacity: 1;}
.edge:hover path { stroke: red; }
.edge:hover polygon { stroke: red; fill: red; }
]]></style>

<defs>
  <circle id="rim" cx="0" cy="0" r="7"/>
  <circle id="rim2" cx="0" cy="0" r="3.5"/>
  <g id="zoomPlus">
    <use xlink:href="#rim" fill="#404040"><set attributeName="fill" to="#808080" begin="zoomplus.mouseover" end="zoomplus.mouseout"/></use>
    <path d="M-4,0h8M0,-4v8" fill="none" stroke="white" stroke-width="1.5" pointer-events="none"/>
  </g>
  <g id="zoomMin">
    <use xlink:href="#rim" fill="#404040"><set attributeName="fill" to="#808080" begin="zoomminus.mouseover" end="zoomminus.mouseout"/></use>
    <path d="M-4,0h8" fill="none" stroke="white" stroke-width="1.5" pointer-events="none"/>
  </g>
  <g id="arrowUp" transform="translate(30 24)">
    <use xlink:href="#rim"/>
    <path pointer-events="none" fill="none" stroke="white" stroke-width="1.5" d="M0,-3.0v7 M-2.5,-0.5L0,-3.0L2.5,-0.5"/>
  </g>
  <g id="arrowRight" transform="rotate(90) translate(36 -43)">
    <use xlink:href="#rim"/>
    <path pointer-events="none" fill="none" stroke="white" stroke-width="1.5" d="M0,-3.0v7 M-2.5,-0.5L0,-3.0L2.5,-0.5"/>
  </g>
  <g id="arrowDown" transform="rotate(180) translate(-30 -48)">
    <use xlink:href="#rim"/>
    <path pointer-events="none" fill="none" stroke="white" stroke-width="1.5" d="M0,-3.0v7 M-2.5,-0.5L0,-3.0L2.5,-0.5"/>
  </g>
  <g id="arrowLeft" transform="rotate(270) translate(-36 17)">
    <use xlink:href="#rim"/>
    <path pointer-events="none" fill="none" stroke="white" stroke-width="1.5" d="M0,-3.0v7 M-2.5,-0.5L0,-3.0L2.5,-0.5"/>
  </g>
  <g id="resetDef">
    <use xlink:href="#rim2" fill="#404040"><set attributeName="fill" to="#808080" begin="reset.mouseover" end="reset.mouseout"/></use>
  </g>
</defs>
<script type="application/ecmascript">
var viewWidth = 1440;
var viewHeight = 193;
var sectionId = 'dynsection-0';
</script>
<script type="application/ecmascript" xlink:href="svg.min.js"/>
<svg id="graph" class="graph">
<g id="viewport">
<title>TGRSIOptions.cxx</title>
<!-- Node1 -->
<g id="Node000001" class="node">
<title>Node1</title>
<g id="a_Node000001"><a xlink:title=" ">
<polygon fill="#999999" stroke="#666666" points="824.12,-185 727.88,-185 727.88,-165.75 824.12,-165.75 824.12,-185"/>
<text text-anchor="middle" x="776" y="-171.5" font-family="Helvetica,sans-Serif" font-size="10.00">TGRSIOptions.cxx</text>
</a>
</g>
</g>
<!-- Node2 -->
<g id="Node000002" class="node">
<title>Node2</title>
<g id="a_Node000002"><a xlink:href="_t_g_r_s_i_options_8h.html" target="_top" xlink:title=" ">
<polygon fill="white" stroke="#666666" points="258.62,-129.75 171.38,-129.75 171.38,-110.5 258.62,-110.5 258.62,-129.75"/>
<text text-anchor="middle" x="215" y="-116.25" font-family="Helvetica,sans-Serif" font-size="10.00">TGRSIOptions.h</text>
</a>
</g>
</g>
<!-- Node1&#45;&gt;Node2 -->
<g id="edge1_Node000001_Node000002" class="edge">
<title>Node1&#45;&gt;Node2</title>
<g id="a_edge1_Node000001_Node000002"><a xlink:title=" ">
<path fill="none" stroke="#63b8ff" d="M727.68,-169.79C623.85,-159.93 379.98,-136.78 270.23,-126.37"/>
<polygon fill="#63b8ff" stroke="#63b8ff" points="270.89,-122.91 260.6,-125.45 270.23,-129.88 270.89,-122.91"/>
</a>
</g>
</g>
<!-- Node15 -->
<g id="Node000015" class="node">
<title>Node15</title>
<g id="a_Node000015"><a xlink:title=" ">
<polygon fill="#e0e0e0" stroke="#999999" points="561.25,-129.75 516.75,-129.75 516.75,-110.5 561.25,-110.5 561.25,-129.75"/>
<text text-anchor="middle" x="539" y="-116.25" font-family="Helvetica,sans-Serif" font-size="10.00">cctype</text>
</a>
</g>
</g>
<!-- Node1&#45;&gt;Node15 -->
<g id="edge16_Node000001_Node000015" class="edge">
<title>Node1&#45;&gt;Node15</title>
<g id="a_edge16_Node000001_Node000015"><a xlink:title=" ">
<path fill="none" stroke="#63b8ff" d="M733.99,-165.26C693.3,-156.38 629.86,-142.41 575,-129.75 574.18,-129.56 573.35,-129.37 572.51,-129.17"/>
<polygon fill="#63b8ff" stroke="#63b8ff" points="573.46,-125.8 562.93,-126.91 571.86,-132.62 573.46,-125.8"/>
</a>
</g>
</g>
<!-- Node16 -->
<g id="Node000016" class="node">
<title>Node16</title>
<g id="a_Node000016"><a xlink:title=" ">
<polygon fill="#e0e0e0" stroke="#999999" points="620.75,-19.25 567.25,-19.25 567.25,0 620.75,0 620.75,-19.25"/>
<text text-anchor="middle" x="594" y="-5.75" font-family="Helvetica,sans-Serif" font-size="10.00">iostream</text>
</a>
</g>
</g>
<!-- Node1&#45;&gt;Node16 -->
<g id="edge17_Node000001_Node000016" class="edge">
<title>Node1&#45;&gt;Node16</title>
<g id="a_edge17_Node000001_Node000016"><a xlink:title=" ">
<path fill="none" stroke="#63b8ff" d="M727.44,-167.62C683.57,-160.46 623.56,-147.71 608,-129.75 584.21,-102.3 586.34,-56.94 590.11,-30.83"/>
<polygon fill="#63b8ff" stroke="#63b8ff" points="593.52,-31.66 591.74,-21.21 586.62,-30.49 593.52,-31.66"/>
</a>
</g>
</g>
<!-- Node17 -->
<g id="Node000017" class="node">
<title>Node17</title>
<g id="a_Node000017"><a xlink:title=" ">
<polygon fill="#e0e0e0" stroke="#999999" points="663,-129.75 617,-129.75 617,-110.5 663,-110.5 663,-129.75"/>
<text text-anchor="middle" x="640" y="-116.25" font-family="Helvetica,sans-Serif" font-size="10.00">TEnv.h</text>
</a>
</g>
</g>
<!-- Node1&#45;&gt;Node17 -->
<g id="edge18_Node000001_Node000017" class="edge">
<title>Node1&#45;&gt;Node17</title>
<g id="a_edge18_Node000001_Node000017"><a xlink:title=" ">
<path fill="none" stroke="#63b8ff" d="M752.93,-165.34C731.24,-156.85 698.52,-144.04 673.87,-134.39"/>
<polygon fill="#63b8ff" stroke="#63b8ff" points="675.18,-131.14 664.59,-130.75 672.63,-137.66 675.18,-131.14"/>
</a>
</g>
</g>
<!-- Node18 -->
<g id="Node000018" class="node">
<title>Node18</title>
<g id="a_Node000018"><a xlink:title=" ">
<polygon fill="#e0e0e0" stroke="#999999" points="727,-129.75 681,-129.75 681,-110.5 727,-110.5 727,-129.75"/>
<text text-anchor="middle" x="704" y="-116.25" font-family="Helvetica,sans-Serif" font-size="10.00">TKey.h</text>
</a>
</g>
</g>
<!-- Node1&#45;&gt;Node18 -->
<g id="edge19_Node000001_Node000018" class="edge">
<title>Node1&#45;&gt;Node18</title>
<g id="a_edge19_Node000001_Node000018"><a xlink:title=" ">
<path fill="none" stroke="#63b8ff" d="M763.79,-165.34C753.17,-157.49 737.56,-145.95 724.96,-136.62"/>
<polygon fill="#63b8ff" stroke="#63b8ff" points="727.37,-134.06 717.25,-130.92 723.21,-139.69 727.37,-134.06"/>
</a>
</g>
</g>
<!-- Node19 -->
<g id="Node000019" class="node">
<title>Node19</title>
<g id="a_Node000019"><a xlink:title=" ">
<polygon fill="#e0e0e0" stroke="#999999" points="807.25,-129.75 744.75,-129.75 744.75,-110.5 807.25,-110.5 807.25,-129.75"/>
<text text-anchor="middle" x="776" y="-116.25" font-family="Helvetica,sans-Serif" font-size="10.00">TSystem.h</text>
</a>
</g>
</g>
<!-- Node1&#45;&gt;Node19 -->
<g id="edge20_Node000001_Node000019" class="edge">
<title>Node1&#45;&gt;Node19</title>
<g id="a_edge20_Node000001_Node000019"><a xlink:title=" ">
<path fill="none" stroke="#63b8ff" d="M776,-165.58C776,-159.07 776,-149.92 776,-141.62"/>
<polygon fill="#63b8ff" stroke="#63b8ff" points="779.5,-141.62 776,-131.62 772.5,-141.62 779.5,-141.62"/>
</a>
</g>
</g>
<!-- Node20 -->
<g id="Node000020" class="node">
<title>Node20</title>
<g id="a_Node000020"><a xlink:href="_globals_8h.html" target="_top" xlink:title=" ">
<polygon fill="white" stroke="#666666" points="959.25,-74.5 902.75,-74.5 902.75,-55.25 959.25,-55.25 959.25,-74.5"/>
<text text-anchor="middle" x="931" y="-61" font-family="Helvetica,sans-Serif" font-size="10.00">Globals.h</text>
</a>
</g>
</g>
<!-- Node1&#45;&gt;Node20 -->
<g id="edge21_Node000001_Node000020" class="edge">
<title>Node1&#45;&gt;Node20</title>
<g id="a_edge21_Node000001_Node000020"><a xlink:title=" ">
<path fill="none" stroke="#63b8ff" d="M824.42,-166.69C850.09,-160.46 880.63,-149.36 902,-129.75 914.77,-118.03 922.3,-99.6 926.48,-85.54"/>
<polygon fill="#63b8ff" stroke="#63b8ff" points="929.81,-86.62 928.95,-76.06 923.04,-84.86 929.81,-86.62"/>
</a>
</g>
</g>
<!-- Node32 -->
<g id="Node000032" class="node">
<title>Node32</title>
<g id="a_Node000032"><a xlink:href="_full_path_8h.html" target="_top" xlink:title=" ">
<polygon fill="white" stroke="#666666" points="1407.75,-129.75 1348.25,-129.75 1348.25,-110.5 1407.75,-110.5 1407.75,-129.75"/>
<text text-anchor="middle" x="1378" y="-116.25" font-family="Helvetica,sans-Serif" font-size="10.00">FullPath.h</text>
</a>
</g>
</g>
<!-- Node1&#45;&gt;Node32 -->
<g id="edge36_Node000001_Node000032" class="edge">
<title>Node1&#45;&gt;Node32</title>
<g id="a_edge36_Node000001_Node000032"><a xlink:title=" ">
<path fill="none" stroke="#63b8ff" d="M824.42,-170.53C916.37,-163.16 1122.59,-146.31 1296,-129.75 1309.34,-128.48 1323.88,-126.98 1336.97,-125.6"/>
<polygon fill="#63b8ff" stroke="#63b8ff" points="1336.95,-129.12 1346.52,-124.58 1336.2,-122.16 1336.95,-129.12"/>
</a>
</g>
</g>
<!-- Node33 -->
<g id="Node000033" class="node">
<title>Node33</title>
<g id="a_Node000033"><a xlink:href="_arg_parser_8h.html" target="_top" xlink:title=" ">
<polygon fill="white" stroke="#666666" points="892.5,-129.75 825.5,-129.75 825.5,-110.5 892.5,-110.5 892.5,-129.75"/>
<text text-anchor="middle" x="859" y="-116.25" font-family="Helvetica,sans-Serif" font-size="10.00">ArgParser.h</text>
</a>
</g>
</g>
<!-- Node1&#45;&gt;Node33 -->
<g id="edge38_Node000001_Node000033" class="edge">
<title>Node1&#45;&gt;Node33</title>
<g id="a_edge38_Node000001_Node000033"><a xlink:title=" ">
<path fill="none" stroke="#63b8ff" d="M790.08,-165.34C802.48,-157.39 820.79,-145.64 835.43,-136.25"/>
<polygon fill="#63b8ff" stroke="#63b8ff" points="837.05,-139.37 843.58,-131.02 833.27,-133.47 837.05,-139.37"/>
</a>
</g>
</g>
<!-- Node36 -->
<g id="Node000036" class="node">
<title>Node36</title>
<g id="a_Node000036"><a xlink:href="_dynamic_library_8h.html" target="_top" xlink:title=" ">
<polygon fill="white" stroke="#666666" points="1178.12,-74.5 1087.88,-74.5 1087.88,-55.25 1178.12,-55.25 1178.12,-74.5"/>
<text text-anchor="middle" x="1133" y="-61" font-family="Helvetica,sans-Serif" font-size="10.00">DynamicLibrary.h</text>
</a>
</g>
</g>
<!-- Node1&#45;&gt;Node36 -->
<g id="edge47_Node000001_Node000036" class="edge">
<title>Node1&#45;&gt;Node36</title>
<g id="a_edge47_Node000001_Node000036"><a xlink:title=" ">
<path fill="none" stroke="#63b8ff" d="M805.84,-165.32C835.55,-156.31 882.43,-142.08 923,-129.75 981.78,-111.89 1049.81,-91.19 1092.13,-78.31"/>
<polygon fill="#63b8ff" stroke="#63b8ff" points="1093.1,-81.68 1101.65,-75.42 1091.06,-74.98 1093.1,-81.68"/>
</a>
</g>
</g>
<!-- Node37 -->
<g id="Node000037" class="node">
<title>Node37</title>
<g id="a_Node000037"><a xlink:href="_g_root_commands_8h.html" target="_top" xlink:title=" ">
<polygon fill="white" stroke="#666666" points="1287.38,-129.75 1186.62,-129.75 1186.62,-110.5 1287.38,-110.5 1287.38,-129.75"/>
<text text-anchor="middle" x="1237" y="-116.25" font-family="Helvetica,sans-Serif" font-size="10.00">GRootCommands.h</text>
</a>
</g>
</g>
<!-- Node1&#45;&gt;Node37 -->
<g id="edge49_Node000001_Node000037" class="edge">
<title>Node1&#45;&gt;Node37</title>
<g id="a_edge49_Node000001_Node000037"><a xlink:title=" ">
<path fill="none" stroke="#63b8ff" d="M824.46,-168.78C908.79,-159.04 1082.37,-138.99 1175.21,-128.26"/>
<polygon fill="#63b8ff" stroke="#63b8ff" points="1175.36,-131.77 1184.89,-127.14 1174.56,-124.81 1175.36,-131.77"/>
</a>
</g>
</g>
<!-- Node3 -->
<g id="Node000003" class="node">
<title>Node3</title>
<g id="a_Node000003"><a xlink:title=" ">
<polygon fill="#e0e0e0" stroke="#999999" points="58,-19.25 0,-19.25 0,0 58,0 58,-19.25"/>
<text text-anchor="middle" x="29" y="-5.75" font-family="Helvetica,sans-Serif" font-size="10.00">TObject.h</text>
</a>
</g>
</g>
<!-- Node2&#45;&gt;Node3 -->
<g id="edge2_Node000002_Node000003" class="edge">
<title>Node2&#45;&gt;Node3</title>
<g id="a_edge2_Node000002_Node000003"><a xlink:title=" ">
<path fill="none" stroke="#63b8ff" d="M170.91,-119.62C132.18,-117.6 77,-108.32 44,-74.5 32.79,-63.01 29.38,-44.83 28.57,-30.79"/>
<polygon fill="#63b8ff" stroke="#63b8ff" points="32.07,-30.85 28.44,-20.89 25.07,-30.94 32.07,-30.85"/>
</a>
</g>
</g>
<!-- Node4 -->
<g id="Node000004" class="node">
<title>Node4</title>
<g id="a_Node000004"><a xlink:title=" ">
<polygon fill="#e0e0e0" stroke="#999999" points="125.62,-19.25 80.38,-19.25 80.38,0 125.62,0 125.62,-19.25"/>
<text text-anchor="middle" x="103" y="-5.75" font-family="Helvetica,sans-Serif" font-size="10.00">TFile.h</text>
</a>
</g>
</g>
<!-- Node2&#45;&gt;Node4 -->
<g id="edge3_Node000002_Node000004" class="edge">
<title>Node2&#45;&gt;Node4</title>
<g id="a_edge3_Node000002_Node000004"><a xlink:title=" ">
<path fill="none" stroke="#63b8ff" d="M208.72,-110.32C199.33,-97.47 180.75,-73.17 162,-55.25 150.94,-44.68 137.4,-34.29 126.08,-26.19"/>
<polygon fill="#63b8ff" stroke="#63b8ff" points="128.27,-23.45 118.07,-20.59 124.26,-29.19 128.27,-23.45"/>
</a>
</g>
</g>
<!-- Node5 -->
<g id="Node000005" class="node">
<title>Node5</title>
<g id="a_Node000005"><a xlink:href="_t_g_r_s_i_types_8h.html" target="_top" xlink:title=" ">
<polygon fill="white" stroke="#666666" points="288.88,-74.5 209.12,-74.5 209.12,-55.25 288.88,-55.25 288.88,-74.5"/>
<text text-anchor="middle" x="249" y="-61" font-family="Helvetica,sans-Serif" font-size="10.00">TGRSITypes.h</text>
</a>
</g>
</g>
<!-- Node2&#45;&gt;Node5 -->
<g id="edge4_Node000002_Node000005" class="edge">
<title>Node2&#45;&gt;Node5</title>
<g id="a_edge4_Node000002_Node000005"><a xlink:title=" ">
<path fill="none" stroke="#63b8ff" d="M220.61,-110.33C225.12,-103.28 231.59,-93.15 237.21,-84.33"/>
<polygon fill="#63b8ff" stroke="#63b8ff" points="240.02,-86.45 242.45,-76.13 234.12,-82.68 240.02,-86.45"/>
</a>
</g>
</g>
<!-- Node7 -->
<g id="Node000007" class="node">
<title>Node7</title>
<g id="a_Node000007"><a xlink:href="_t_analysis_options_8h.html" target="_top" xlink:title=" ">
<polygon fill="white" stroke="#666666" points="153,-74.5 53,-74.5 53,-55.25 153,-55.25 153,-74.5"/>
<text text-anchor="middle" x="103" y="-61" font-family="Helvetica,sans-Serif" font-size="10.00">TAnalysisOptions.h</text>
</a>
</g>
</g>
<!-- Node2&#45;&gt;Node7 -->
<g id="edge6_Node000002_Node000007" class="edge">
<title>Node2&#45;&gt;Node7</title>
<g id="a_edge6_Node000002_Node000007"><a xlink:title=" ">
<path fill="none" stroke="#63b8ff" d="M196,-110.09C178.54,-101.79 152.4,-89.36 132.28,-79.79"/>
<polygon fill="#63b8ff" stroke="#63b8ff" points="133.99,-76.74 123.46,-75.6 130.99,-83.06 133.99,-76.74"/>
</a>
</g>
</g>
<!-- Node8 -->
<g id="Node000008" class="node">
<title>Node8</title>
<g id="a_Node000008"><a xlink:href="_t_user_settings_8h.html" target="_top" xlink:title=" ">
<polygon fill="white" stroke="#666666" points="418.25,-74.5 331.75,-74.5 331.75,-55.25 418.25,-55.25 418.25,-74.5"/>
<text text-anchor="middle" x="375" y="-61" font-family="Helvetica,sans-Serif" font-size="10.00">TUserSettings.h</text>
</a>
</g>
</g>
<!-- Node2&#45;&gt;Node8 -->
<g id="edge9_Node000002_Node000008" class="edge">
<title>Node2&#45;&gt;Node8</title>
<g id="a_edge9_Node000002_Node000008"><a xlink:title=" ">
<path fill="none" stroke="#63b8ff" d="M242.14,-110.09C268.23,-101.41 307.9,-88.21 337.1,-78.49"/>
<polygon fill="#63b8ff" stroke="#63b8ff" points="337.91,-81.91 346.29,-75.43 335.7,-75.27 337.91,-81.91"/>
</a>
</g>
</g>
<!-- Node6 -->
<g id="Node000006" class="node">
<title>Node6</title>
<g id="a_Node000006"><a xlink:title=" ">
<polygon fill="#e0e0e0" stroke="#999999" points="188.62,-19.25 143.38,-19.25 143.38,0 188.62,0 188.62,-19.25"/>
<text text-anchor="middle" x="166" y="-5.75" font-family="Helvetica,sans-Serif" font-size="10.00">cstdint</text>
</a>
</g>
</g>
<!-- Node5&#45;&gt;Node6 -->
<g id="edge5_Node000005_Node000006" class="edge">
<title>Node5&#45;&gt;Node6</title>
<g id="a_edge5_Node000005_Node000006"><a xlink:title=" ">
<path fill="none" stroke="#63b8ff" d="M234.92,-54.84C222.52,-46.89 204.21,-35.14 189.57,-25.75"/>
<polygon fill="#63b8ff" stroke="#63b8ff" points="191.73,-22.97 181.42,-20.52 187.95,-28.87 191.73,-22.97"/>
</a>
</g>
</g>
<!-- Node7&#45;&gt;Node3 -->
<g id="edge7_Node000007_Node000003" class="edge">
<title>Node7&#45;&gt;Node3</title>
<g id="a_edge7_Node000007_Node000003"><a xlink:title=" ">
<path fill="none" stroke="#63b8ff" d="M90.45,-54.84C79.54,-46.99 63.5,-35.45 50.54,-26.12"/>
<polygon fill="#63b8ff" stroke="#63b8ff" points="52.76,-23.41 42.6,-20.41 48.67,-29.09 52.76,-23.41"/>
</a>
</g>
</g>
<!-- Node7&#45;&gt;Node4 -->
<g id="edge8_Node000007_Node000004" class="edge">
<title>Node7&#45;&gt;Node4</title>
<g id="a_edge8_Node000007_Node000004"><a xlink:title=" ">
<path fill="none" stroke="#63b8ff" d="M103,-55.08C103,-48.57 103,-39.42 103,-31.12"/>
<polygon fill="#63b8ff" stroke="#63b8ff" points="106.5,-31.12 103,-21.12 99.5,-31.12 106.5,-31.12"/>
</a>
</g>
</g>
<!-- Node9 -->
<g id="Node000009" class="node">
<title>Node9</title>
<g id="a_Node000009"><a xlink:title=" ">
<polygon fill="#e0e0e0" stroke="#999999" points="241.38,-19.25 206.62,-19.25 206.62,0 241.38,0 241.38,-19.25"/>
<text text-anchor="middle" x="224" y="-5.75" font-family="Helvetica,sans-Serif" font-size="10.00">map</text>
</a>
</g>
</g>
<!-- Node8&#45;&gt;Node9 -->
<g id="edge10_Node000008_Node000009" class="edge">
<title>Node8&#45;&gt;Node9</title>
<g id="a_edge10_Node000008_Node000009"><a xlink:title=" ">
<path fill="none" stroke="#63b8ff" d="M349.38,-54.84C322.47,-45.35 280.23,-30.46 252.33,-20.62"/>
<polygon fill="#63b8ff" stroke="#63b8ff" points="253.72,-17.39 243.12,-17.37 251.39,-24 253.72,-17.39"/>
</a>
</g>
</g>
<!-- Node10 -->
<g id="Node000010" class="node">
<title>Node10</title>
<g id="a_Node000010"><a xlink:title=" ">
<polygon fill="#e0e0e0" stroke="#999999" points="1432,-19.25 1392,-19.25 1392,0 1432,0 1432,-19.25"/>
<text text-anchor="middle" x="1412" y="-5.75" font-family="Helvetica,sans-Serif" font-size="10.00">string</text>
</a>
</g>
</g>
<!-- Node8&#45;&gt;Node10 -->
<g id="edge11_Node000008_Node000010" class="edge">
<title>Node8&#45;&gt;Node10</title>
<g id="a_edge11_Node000008_Node000010"><a xlink:title=" ">
<path fill="none" stroke="#63b8ff" d="M418.54,-62.58C594.03,-57.26 1245.96,-36.68 1380.49,-19.03"/>
<polygon fill="#63b8ff" stroke="#63b8ff" points="1380.68,-22.54 1390.05,-17.6 1379.65,-15.61 1380.68,-22.54"/>
</a>
</g>
</g>
<!-- Node11 -->
<g id="Node000011" class="node">
<title>Node11</title>
<g id="a_Node000011"><a xlink:title=" ">
<polygon fill="#e0e0e0" stroke="#999999" points="472.5,-19.25 429.5,-19.25 429.5,0 472.5,0 472.5,-19.25"/>
<text text-anchor="middle" x="451" y="-5.75" font-family="Helvetica,sans-Serif" font-size="10.00">vector</text>
</a>
</g>
</g>
<!-- Node8&#45;&gt;Node11 -->
<g id="edge12_Node000008_Node000011" class="edge">
<title>Node8&#45;&gt;Node11</title>
<g id="a_edge12_Node000008_Node000011"><a xlink:title=" ">
<path fill="none" stroke="#63b8ff" d="M387.89,-54.84C399.03,-47.04 415.37,-35.59 428.64,-26.29"/>
<polygon fill="#63b8ff" stroke="#63b8ff" points="430.62,-29.18 436.8,-20.57 426.61,-23.44 430.62,-29.18"/>
</a>
</g>
</g>
<!-- Node12 -->
<g id="Node000012" class="node">
<title>Node12</title>
<g id="a_Node000012"><a xlink:title=" ">
<polygon fill="#e0e0e0" stroke="#999999" points="549,-19.25 491,-19.25 491,0 549,0 549,-19.25"/>
<text text-anchor="middle" x="520" y="-5.75" font-family="Helvetica,sans-Serif" font-size="10.00">stdexcept</text>
</a>
</g>
</g>
<!-- Node8&#45;&gt;Node12 -->
<g id="edge13_Node000008_Node000012" class="edge">
<title>Node8&#45;&gt;Node12</title>
<g id="a_edge13_Node000008_Node000012"><a xlink:title=" ">
<path fill="none" stroke="#63b8ff" d="M399.6,-54.84C422.93,-46.27 458.24,-33.31 484.6,-23.63"/>
<polygon fill="#63b8ff" stroke="#63b8ff" points="485.68,-26.96 493.86,-20.22 483.27,-20.39 485.68,-26.96"/>
</a>
</g>
</g>
<!-- Node13 -->
<g id="Node000013" class="node">
<title>Node13</title>
<g id="a_Node000013"><a xlink:title=" ">
<polygon fill="#e0e0e0" stroke="#999999" points="320.5,-19.25 259.5,-19.25 259.5,0 320.5,0 320.5,-19.25"/>
<text text-anchor="middle" x="290" y="-5.75" font-family="Helvetica,sans-Serif" font-size="10.00">TNamed.h</text>
</a>
</g>
</g>
<!-- Node8&#45;&gt;Node13 -->
<g id="edge14_Node000008_Node000013" class="edge">
<title>Node8&#45;&gt;Node13</title>
<g id="a_edge14_Node000008_Node000013"><a xlink:title=" ">
<path fill="none" stroke="#63b8ff" d="M360.58,-54.84C347.88,-46.89 329.13,-35.14 314.14,-25.75"/>
<polygon fill="#63b8ff" stroke="#63b8ff" points="316.1,-22.85 305.77,-20.51 312.39,-28.78 316.1,-22.85"/>
</a>
</g>
</g>
<!-- Node14 -->
<g id="Node000014" class="node">
<title>Node14</title>
<g id="a_Node000014"><a xlink:title=" ">
<polygon fill="#e0e0e0" stroke="#999999" points="411.12,-19.25 338.88,-19.25 338.88,0 411.12,0 411.12,-19.25"/>
<text text-anchor="middle" x="375" y="-5.75" font-family="Helvetica,sans-Serif" font-size="10.00">TCollection.h</text>
</a>
</g>
</g>
<!-- Node8&#45;&gt;Node14 -->
<g id="edge15_Node000008_Node000014" class="edge">
<title>Node8&#45;&gt;Node14</title>
<g id="a_edge15_Node000008_Node000014"><a xlink:title=" ">
<path fill="none" stroke="#63b8ff" d="M375,-55.08C375,-48.57 375,-39.42 375,-31.12"/>
<polygon fill="#63b8ff" stroke="#63b8ff" points="378.5,-31.12 375,-21.12 371.5,-31.12 378.5,-31.12"/>
</a>
</g>
</g>
<!-- Node20&#45;&gt;Node10 -->
<g id="edge25_Node000020_Node000010" class="edge">
<title>Node20&#45;&gt;Node10</title>
<g id="a_edge25_Node000020_Node000010"><a xlink:title=" ">
<path fill="none" stroke="#63b8ff" d="M959.55,-61.13C1048.83,-52.54 1319.95,-26.38 1380.39,-18.84"/>
<polygon fill="#63b8ff" stroke="#63b8ff" points="1380.63,-22.34 1390.03,-17.46 1379.63,-15.42 1380.63,-22.34"/>
</a>
</g>
</g>
<!-- Node20&#45;&gt;Node12 -->
<g id="edge24_Node000020_Node000012" class="edge">
<title>Node20&#45;&gt;Node12</title>
<g id="a_edge24_Node000020_Node000012"><a xlink:title=" ">
<path fill="none" stroke="#63b8ff" d="M902.39,-56.84C899.56,-56.26 896.73,-55.71 894,-55.25 749.54,-30.77 708.16,-43.26 560.67,-19.5"/>
<polygon fill="#63b8ff" stroke="#63b8ff" points="561.32,-16.07 550.89,-17.9 560.19,-22.97 561.32,-16.07"/>
</a>
</g>
</g>
<!-- Node20&#45;&gt;Node16 -->
<g id="edge22_Node000020_Node000016" class="edge">
<title>Node20&#45;&gt;Node16</title>
<g id="a_edge22_Node000020_Node000016"><a xlink:title=" ">
<path fill="none" stroke="#63b8ff" d="M902.37,-56.92C899.55,-56.32 896.72,-55.75 894,-55.25 780.64,-34.39 747.73,-41.06 632.14,-19.68"/>
<polygon fill="#63b8ff" stroke="#63b8ff" points="633.03,-16.29 622.56,-17.88 631.74,-23.17 633.03,-16.29"/>
</a>
</g>
</g>
<!-- Node21 -->
<g id="Node000021" class="node">
<title>Node21</title>
<g id="a_Node000021"><a xlink:title=" ">
<polygon fill="#e0e0e0" stroke="#999999" points="757.88,-19.25 708.12,-19.25 708.12,0 757.88,0 757.88,-19.25"/>
<text text-anchor="middle" x="733" y="-5.75" font-family="Helvetica,sans-Serif" font-size="10.00">iomanip</text>
</a>
</g>
</g>
<!-- Node20&#45;&gt;Node21 -->
<g id="edge23_Node000020_Node000021" class="edge">
<title>Node20&#45;&gt;Node21</title>
<g id="a_edge23_Node000020_Node000021"><a xlink:title=" ">
<path fill="none" stroke="#63b8ff" d="M902.63,-56.25C867.4,-46.77 807.27,-30.6 768.87,-20.27"/>
<polygon fill="#63b8ff" stroke="#63b8ff" points="770.21,-17.01 759.64,-17.79 768.39,-23.77 770.21,-17.01"/>
</a>
</g>
</g>
<!-- Node22 -->
<g id="Node000022" class="node">
<title>Node22</title>
<g id="a_Node000022"><a xlink:title=" ">
<polygon fill="#e0e0e0" stroke="#999999" points="818.12,-19.25 775.88,-19.25 775.88,0 818.12,0 818.12,-19.25"/>
<text text-anchor="middle" x="797" y="-5.75" font-family="Helvetica,sans-Serif" font-size="10.00">cstdio</text>
</a>
</g>
</g>
<!-- Node20&#45;&gt;Node22 -->
<g id="edge26_Node000020_Node000022" class="edge">
<title>Node20&#45;&gt;Node22</title>
<g id="a_edge26_Node000020_Node000022"><a xlink:title=" ">
<path fill="none" stroke="#63b8ff" d="M908.27,-54.84C886.51,-46.2 853.48,-33.07 829.06,-23.36"/>
<polygon fill="#63b8ff" stroke="#63b8ff" points="830.5,-20.17 819.92,-19.73 827.92,-26.68 830.5,-20.17"/>
</a>
</g>
</g>
<!-- Node23 -->
<g id="Node000023" class="node">
<title>Node23</title>
<g id="a_Node000023"><a xlink:title=" ">
<polygon fill="#e0e0e0" stroke="#999999" points="880.25,-19.25 835.75,-19.25 835.75,0 880.25,0 880.25,-19.25"/>
<text text-anchor="middle" x="858" y="-5.75" font-family="Helvetica,sans-Serif" font-size="10.00">cstdlib</text>
</a>
</g>
</g>
<!-- Node20&#45;&gt;Node23 -->
<g id="edge27_Node000020_Node000023" class="edge">
<title>Node20&#45;&gt;Node23</title>
<g id="a_edge27_Node000020_Node000023"><a xlink:title=" ">
<path fill="none" stroke="#63b8ff" d="M918.62,-54.84C907.85,-46.99 892.03,-35.45 879.25,-26.12"/>
<polygon fill="#63b8ff" stroke="#63b8ff" points="881.56,-23.48 871.42,-20.42 877.44,-29.14 881.56,-23.48"/>
</a>
</g>
</g>
<!-- Node24 -->
<g id="Node000024" class="node">
<title>Node24</title>
<g id="a_Node000024"><a xlink:title=" ">
<polygon fill="#e0e0e0" stroke="#999999" points="957.75,-19.25 898.25,-19.25 898.25,0 957.75,0 957.75,-19.25"/>
<text text-anchor="middle" x="928" y="-5.75" font-family="Helvetica,sans-Serif" font-size="10.00">execinfo.h</text>
</a>
</g>
</g>
<!-- Node20&#45;&gt;Node24 -->
<g id="edge28_Node000020_Node000024" class="edge">
<title>Node20&#45;&gt;Node24</title>
<g id="a_edge28_Node000020_Node000024"><a xlink:title=" ">
<path fill="none" stroke="#63b8ff" d="M930.5,-55.08C930.13,-48.49 929.61,-39.21 929.14,-30.82"/>
<polygon fill="#63b8ff" stroke="#63b8ff" points="932.65,-30.91 928.59,-21.12 925.66,-31.3 932.65,-30.91"/>
</a>
</g>
</g>
<!-- Node25 -->
<g id="Node000025" class="node">
<title>Node25</title>
<g id="a_Node000025"><a xlink:title=" ">
<polygon fill="#e0e0e0" stroke="#999999" points="1026.25,-19.25 975.75,-19.25 975.75,0 1026.25,0 1026.25,-19.25"/>
<text text-anchor="middle" x="1001" y="-5.75" font-family="Helvetica,sans-Serif" font-size="10.00">cxxabi.h</text>
</a>
</g>
</g>
<!-- Node20&#45;&gt;Node25 -->
<g id="edge29_Node000020_Node000025" class="edge">
<title>Node20&#45;&gt;Node25</title>
<g id="a_edge29_Node000020_Node000025"><a xlink:title=" ">
<path fill="none" stroke="#63b8ff" d="M942.87,-54.84C953.09,-47.07 968.07,-35.67 980.26,-26.4"/>
<polygon fill="#63b8ff" stroke="#63b8ff" points="982.26,-29.28 988.1,-20.44 978.02,-23.71 982.26,-29.28"/>
</a>
</g>
</g>
<!-- Node26 -->
<g id="Node000026" class="node">
<title>Node26</title>
<g id="a_Node000026"><a xlink:title=" ">
<polygon fill="#e0e0e0" stroke="#999999" points="689.62,-19.25 638.38,-19.25 638.38,0 689.62,0 689.62,-19.25"/>
<text text-anchor="middle" x="664" y="-5.75" font-family="Helvetica,sans-Serif" font-size="10.00">sstream</text>
</a>
</g>
</g>
<!-- Node20&#45;&gt;Node26 -->
<g id="edge30_Node000020_Node000026" class="edge">
<title>Node20&#45;&gt;Node26</title>
<g id="a_edge30_Node000020_Node000026"><a xlink:title=" ">
<path fill="none" stroke="#63b8ff" d="M902.35,-57.06C899.53,-56.43 896.71,-55.82 894,-55.25 811.18,-37.96 787.07,-37.79 701.05,-19.58"/>
<polygon fill="#63b8ff" stroke="#63b8ff" points="701.95,-16.19 691.43,-17.52 700.48,-23.03 701.95,-16.19"/>
</a>
</g>
</g>
<!-- Node27 -->
<g id="Node000027" class="node">
<title>Node27</title>
<g id="a_Node000027"><a xlink:title=" ">
<polygon fill="#e0e0e0" stroke="#999999" points="1081.5,-19.25 1044.5,-19.25 1044.5,0 1081.5,0 1081.5,-19.25"/>
<text text-anchor="middle" x="1063" y="-5.75" font-family="Helvetica,sans-Serif" font-size="10.00">array</text>
</a>
</g>
</g>
<!-- Node20&#45;&gt;Node27 -->
<g id="edge31_Node000020_Node000027" class="edge">
<title>Node20&#45;&gt;Node27</title>
<g id="a_edge31_Node000020_Node000027"><a xlink:title=" ">
<path fill="none" stroke="#63b8ff" d="M953.39,-54.84C975.59,-45.89 1009.7,-32.13 1033.97,-22.34"/>
<polygon fill="#63b8ff" stroke="#63b8ff" points="1034.98,-25.7 1042.94,-18.72 1032.36,-19.21 1034.98,-25.7"/>
</a>
</g>
</g>
<!-- Node28 -->
<g id="Node000028" class="node">
<title>Node28</title>
<g id="a_Node000028"><a xlink:title=" ">
<polygon fill="#e0e0e0" stroke="#999999" points="1150.25,-19.25 1099.75,-19.25 1099.75,0 1150.25,0 1150.25,-19.25"/>
<text text-anchor="middle" x="1125" y="-5.75" font-family="Helvetica,sans-Serif" font-size="10.00">memory</text>
</a>
</g>
</g>
<!-- Node20&#45;&gt;Node28 -->
<g id="edge32_Node000020_Node000028" class="edge">
<title>Node20&#45;&gt;Node28</title>
<g id="a_edge32_Node000020_Node000028"><a xlink:title=" ">
<path fill="none" stroke="#63b8ff" d="M959.63,-56.02C993.82,-46.63 1051.08,-30.91 1088.45,-20.66"/>
<polygon fill="#63b8ff" stroke="#63b8ff" points="1089.18,-24.09 1097.9,-18.06 1087.33,-17.34 1089.18,-24.09"/>
</a>
</g>
</g>
<!-- Node29 -->
<g id="Node000029" class="node">
<title>Node29</title>
<g id="a_Node000029"><a xlink:title=" ">
<polygon fill="#e0e0e0" stroke="#999999" points="1217.88,-19.25 1168.12,-19.25 1168.12,0 1217.88,0 1217.88,-19.25"/>
<text text-anchor="middle" x="1193" y="-5.75" font-family="Helvetica,sans-Serif" font-size="10.00">unistd.h</text>
</a>
</g>
</g>
<!-- Node20&#45;&gt;Node29 -->
<g id="edge33_Node000020_Node000029" class="edge">
<title>Node20&#45;&gt;Node29</title>
<g id="a_edge33_Node000020_Node000029"><a xlink:title=" ">
<path fill="none" stroke="#63b8ff" d="M959.54,-58.81C1000.88,-51.37 1080.04,-36.68 1156.95,-19.61"/>
<polygon fill="#63b8ff" stroke="#63b8ff" points="1157.31,-23.12 1166.31,-17.52 1155.79,-16.28 1157.31,-23.12"/>
</a>
</g>
</g>
<!-- Node30 -->
<g id="Node000030" class="node">
<title>Node30</title>
<g id="a_Node000030"><a xlink:title=" ">
<polygon fill="#e0e0e0" stroke="#999999" points="1295.75,-19.25 1236.25,-19.25 1236.25,0 1295.75,0 1295.75,-19.25"/>
<text text-anchor="middle" x="1266" y="-5.75" font-family="Helvetica,sans-Serif" font-size="10.00">sys/wait.h</text>
</a>
</g>
</g>
<!-- Node20&#45;&gt;Node30 -->
<g id="edge34_Node000020_Node000030" class="edge">
<title>Node20&#45;&gt;Node30</title>
<g id="a_edge34_Node000020_Node000030"><a xlink:title=" ">
<path fill="none" stroke="#63b8ff" d="M959.68,-60.21C1010.81,-53.54 1121.28,-38.48 1224.55,-19.59"/>
<polygon fill="#63b8ff" stroke="#63b8ff" points="1225.12,-23.05 1234.32,-17.79 1223.85,-16.17 1225.12,-23.05"/>
</a>
</g>
</g>
<!-- Node31 -->
<g id="Node000031" class="node">
<title>Node31</title>
<g id="a_Node000031"><a xlink:title=" ">
<polygon fill="#e0e0e0" stroke="#999999" points="1374.12,-19.25 1313.88,-19.25 1313.88,0 1374.12,0 1374.12,-19.25"/>
<text text-anchor="middle" x="1344" y="-5.75" font-family="Helvetica,sans-Serif" font-size="10.00">sys/prctl.h</text>
</a>
</g>
</g>
<!-- Node20&#45;&gt;Node31 -->
<g id="edge35_Node000020_Node000031" class="edge">
<title>Node20&#45;&gt;Node31</title>
<g id="a_edge35_Node000020_Node000031"><a xlink:title=" ">
<path fill="none" stroke="#63b8ff" d="M959.53,-60.84C1031.47,-53.14 1219.88,-32.59 1302.27,-19.52"/>
<polygon fill="#63b8ff" stroke="#63b8ff" points="1302.61,-23.02 1311.91,-17.94 1301.47,-16.11 1302.61,-23.02"/>
</a>
</g>
</g>
<!-- Node32&#45;&gt;Node10 -->
<g id="edge37_Node000032_Node000010" class="edge">
<title>Node32&#45;&gt;Node10</title>
<g id="a_edge37_Node000032_Node000010"><a xlink:title=" ">
<path fill="none" stroke="#63b8ff" d="M1380.78,-110.25C1386.21,-92.92 1398.34,-54.23 1405.78,-30.49"/>
<polygon fill="#63b8ff" stroke="#63b8ff" points="1409.08,-31.66 1408.73,-21.07 1402.4,-29.57 1409.08,-31.66"/>
</a>
</g>
</g>
<!-- Node33&#45;&gt;Node10 -->
<g id="edge43_Node000033_Node000010" class="edge">
<title>Node33&#45;&gt;Node10</title>
<g id="a_edge43_Node000033_Node000010"><a xlink:title=" ">
<path fill="none" stroke="#63b8ff" d="M885.06,-110.04C925.9,-96.15 1007.67,-69.73 1079,-55.25 1208.82,-28.9 1247.71,-45.8 1380.52,-19.43"/>
<polygon fill="#63b8ff" stroke="#63b8ff" points="1380.93,-22.92 1390.03,-17.49 1379.54,-16.06 1380.93,-22.92"/>
</a>
</g>
</g>
<!-- Node33&#45;&gt;Node11 -->
<g id="edge44_Node000033_Node000011" class="edge">
<title>Node33&#45;&gt;Node11</title>
<g id="a_edge44_Node000033_Node000011"><a xlink:title=" ">
<path fill="none" stroke="#63b8ff" d="M825.21,-112.29C822.1,-111.68 818.99,-111.07 816,-110.5 728.15,-93.7 704.14,-98.58 618,-74.5 569.12,-60.83 514.55,-38.57 481.5,-24.26"/>
<polygon fill="#63b8ff" stroke="#63b8ff" points="483.11,-21.14 472.54,-20.34 480.3,-27.56 483.11,-21.14"/>
</a>
</g>
</g>
<!-- Node33&#45;&gt;Node12 -->
<g id="edge42_Node000033_Node000012" class="edge">
<title>Node33&#45;&gt;Node12</title>
<g id="a_edge42_Node000033_Node000012"><a xlink:title=" ">
<path fill="none" stroke="#63b8ff" d="M825.16,-111.69C779.6,-101.56 701.02,-83.64 673,-74.5 628.89,-60.1 579.66,-38.51 549.26,-24.49"/>
<polygon fill="#63b8ff" stroke="#63b8ff" points="550.86,-21.38 540.32,-20.34 547.91,-27.73 550.86,-21.38"/>
</a>
</g>
</g>
<!-- Node33&#45;&gt;Node16 -->
<g id="edge39_Node000033_Node000016" class="edge">
<title>Node33&#45;&gt;Node16</title>
<g id="a_edge39_Node000033_Node000016"><a xlink:title=" ">
<path fill="none" stroke="#63b8ff" d="M825.36,-110.08C796.65,-101.97 754.5,-89.11 719,-74.5 683.31,-59.81 643.94,-38.85 619.1,-25"/>
<polygon fill="#63b8ff" stroke="#63b8ff" points="621.15,-22.13 610.72,-20.28 617.71,-28.23 621.15,-22.13"/>
</a>
</g>
</g>
<!-- Node33&#45;&gt;Node20 -->
<g id="edge46_Node000033_Node000020" class="edge">
<title>Node33&#45;&gt;Node20</title>
<g id="a_edge46_Node000033_Node000020"><a xlink:title=" ">
<path fill="none" stroke="#63b8ff" d="M871.21,-110.09C881.83,-102.24 897.44,-90.7 910.04,-81.37"/>
<polygon fill="#63b8ff" stroke="#63b8ff" points="911.79,-84.44 917.75,-75.67 907.63,-78.81 911.79,-84.44"/>
</a>
</g>
</g>
<!-- Node33&#45;&gt;Node26 -->
<g id="edge41_Node000033_Node000026" class="edge">
<title>Node33&#45;&gt;Node26</title>
<g id="a_edge41_Node000033_Node000026"><a xlink:title=" ">
<path fill="none" stroke="#63b8ff" d="M833.68,-110.12C811.95,-101.99 780.11,-89.09 754,-74.5 728.6,-60.31 701.66,-40.47 683.95,-26.69"/>
<polygon fill="#63b8ff" stroke="#63b8ff" points="686.33,-24.11 676.31,-20.66 682,-29.6 686.33,-24.11"/>
</a>
</g>
</g>
<!-- Node34 -->
<g id="Node000034" class="node">
<title>Node34</title>
<g id="a_Node000034"><a xlink:title=" ">
<polygon fill="#e0e0e0" stroke="#999999" points="811.5,-74.5 762.5,-74.5 762.5,-55.25 811.5,-55.25 811.5,-74.5"/>
<text text-anchor="middle" x="787" y="-61" font-family="Helvetica,sans-Serif" font-size="10.00">fstream</text>
</a>
</g>
</g>
<!-- Node33&#45;&gt;Node34 -->
<g id="edge40_Node000033_Node000034" class="edge">
<title>Node33&#45;&gt;Node34</title>
<g id="a_edge40_Node000033_Node000034"><a xlink:title=" ">
<path fill="none" stroke="#63b8ff" d="M846.79,-110.09C836.17,-102.24 820.56,-90.7 807.96,-81.37"/>
<polygon fill="#63b8ff" stroke="#63b8ff" points="810.37,-78.81 800.25,-75.67 806.21,-84.44 810.37,-78.81"/>
</a>
</g>
</g>
<!-- Node35 -->
<g id="Node000035" class="node">
<title>Node35</title>
<g id="a_Node000035"><a xlink:title=" ">
<polygon fill="#e0e0e0" stroke="#999999" points="884.88,-74.5 829.12,-74.5 829.12,-55.25 884.88,-55.25 884.88,-74.5"/>
<text text-anchor="middle" x="857" y="-61" font-family="Helvetica,sans-Serif" font-size="10.00">algorithm</text>
</a>
</g>
</g>
<!-- Node33&#45;&gt;Node35 -->
<g id="edge45_Node000033_Node000035" class="edge">
<title>Node33&#45;&gt;Node35</title>
<g id="a_edge45_Node000033_Node000035"><a xlink:title=" ">
<path fill="none" stroke="#63b8ff" d="M858.67,-110.33C858.42,-103.74 858.07,-94.46 857.76,-86.07"/>
<polygon fill="#63b8ff" stroke="#63b8ff" points="861.27,-86.23 857.39,-76.37 854.27,-86.5 861.27,-86.23"/>
</a>
</g>
</g>
<!-- Node36&#45;&gt;Node10 -->
<g id="edge48_Node000036_Node000010" class="edge">
<title>Node36&#45;&gt;Node10</title>
<g id="a_edge48_Node000036_Node000010"><a xlink:title=" ">
<path fill="none" stroke="#63b8ff" d="M1178.48,-57.33C1226.56,-50.06 1304.79,-37.25 1381.05,-19.49"/>
<polygon fill="#63b8ff" stroke="#63b8ff" points="1381.4,-23 1390.32,-17.3 1379.79,-16.19 1381.4,-23"/>
</a>
</g>
</g>
<!-- Node37&#45;&gt;Node10 -->
<g id="edge50_Node000037_Node000010" class="edge">
<title>Node37&#45;&gt;Node10</title>
<g id="a_edge50_Node000037_Node000010"><a xlink:title=" ">
<path fill="none" stroke="#63b8ff" d="M1233.88,-110.18C1229.8,-96.72 1224.55,-71.14 1237,-55.25 1276.12,-5.31 1314.41,-33.54 1380.85,-19.43"/>
<polygon fill="#63b8ff" stroke="#63b8ff" points="1381.39,-22.9 1390.28,-17.14 1379.74,-16.09 1381.39,-22.9"/>
</a>
</g>
</g>
<!-- Node38 -->
<g id="Node000038" class="node">
<title>Node38</title>
<g id="a_Node000038"><a xlink:title=" ">
<polygon fill="#e0e0e0" stroke="#999999" points="1313.88,-74.5 1246.12,-74.5 1246.12,-55.25 1313.88,-55.25 1313.88,-74.5"/>
<text text-anchor="middle" x="1280" y="-61" font-family="Helvetica,sans-Serif" font-size="10.00">TDirectory.h</text>
</a>
</g>
</g>
<!-- Node37&#45;&gt;Node38 -->
<g id="edge51_Node000037_Node000038" class="edge">
<title>Node37&#45;&gt;Node38</title>
<g id="a_edge51_Node000037_Node000038"><a xlink:title=" ">
<path fill="none" stroke="#63b8ff" d="M1244.1,-110.33C1249.92,-103.13 1258.33,-92.71 1265.56,-83.76"/>
<polygon fill="#63b8ff" stroke="#63b8ff" points="1268.23,-86.02 1271.79,-76.04 1262.79,-81.62 1268.23,-86.02"/>
</a>
</g>
</g>
<!-- Node39 -->
<g id="Node000039" class="node">
<title>Node39</title>
<g id="a_Node000039"><a xlink:title=" ">
<polygon fill="#e0e0e0" stroke="#999999" points="1374.12,-74.5 1331.88,-74.5 1331.88,-55.25 1374.12,-55.25 1374.12,-74.5"/>
<text text-anchor="middle" x="1353" y="-61" font-family="Helvetica,sans-Serif" font-size="10.00">TH2.h</text>
</a>
</g>
</g>
<!-- Node37&#45;&gt;Node39 -->
<g id="edge52_Node000037_Node000039" class="edge">
<title>Node37&#45;&gt;Node39</title>
<g id="a_edge52_Node000037_Node000039"><a xlink:title=" ">
<path fill="none" stroke="#63b8ff" d="M1256.68,-110.09C1274.84,-101.75 1302.08,-89.25 1322.97,-79.66"/>
<polygon fill="#63b8ff" stroke="#63b8ff" points="1324.22,-82.94 1331.85,-75.58 1321.3,-76.58 1324.22,-82.94"/>
</a>
</g>
</g>
</g>
</svg>

<g id="navigator" transform="translate(0 0)" fill="#404254">
  <rect fill="#f2f5e9" fill-opacity="0.5" stroke="#606060" stroke-width=".5" x="0" y="0" width="60" height="60"/>
  <use id="zoomplus" xlink:href="#zoomPlus" x="17" y="9" onmousedown="handleZoom(evt,'in')"/>
  <use id="zoomminus" xlink:href="#zoomMin" x="42" y="9" onmousedown="handleZoom(evt,'out')"/>
  <use id="reset" xlink:href="#resetDef" x="30" y="36" onmousedown="handleReset()"/>
   <use id="arrowup" xlink:href="#arrowUp" x="0" y="0" onmousedown="handlePan(0,-1)"/>
  <use id="arrowright" xlink:href="#arrowRight" x="0" y="0" onmousedown="handlePan(1,0)"/>
  <use id="arrowdown" xlink:href="#arrowDown" x="0" y="0" onmousedown="handlePan(0,1)"/>
  <use id="arrowleft" xlink:href="#arrowLeft" x="0" y="0" onmousedown="handlePan(-1,0)"/>
</g>
<svg viewBox="0 0 15 15" width="100%" height="30px" preserveAspectRatio="xMaxYMin meet">
 <g id="arrow_out" transform="scale(0.3 0.3)">
  <a xlink:href="_t_g_r_s_i_options_8cxx__incl_org.svg" target="_base">
   <rect id="button" ry="5" rx="5" y="6" x="6" height="38" width="38"
        fill="#f2f5e9" fill-opacity="0.5" stroke="#606060" stroke-width="1.0"/>
   <path id="arrow"
     d="M 11.500037,31.436501 C 11.940474,20.09759 22.043105,11.32322 32.158766,21.979434 L 37.068811,17.246167 C 37.068811,17.246167 37.088388,32 37.088388,32 L 22.160133,31.978069 C 22.160133,31.978069 26.997745,27.140456 26.997745,27.140456 C 18.528582,18.264221 13.291696,25.230495 11.500037,31.436501 z"
     style="fill:#404040;"/>
  </a>
 </g>
</svg>

<style type='text/css'>
<![CDATA[
[data-mouse-over-selected='false'] { opacity: 0.7; }
[data-mouse-over-selected='true']  { opacity: 1.0; }
]]>
</style>
<script type="application/ecmascript"><![CDATA[
document.addEventListener('DOMContentLoaded', (event) => {
  highlightEdges();
  highlightAdjacentNodes();
});
]]></script>
</svg>
