<?xml version="1.0" encoding="UTF-8" standalone="no"?>
<!DOCTYPE svg PUBLIC "-//W3C//DTD SVG 1.1//EN"
 "http://www.w3.org/Graphics/SVG/1.1/DTD/svg11.dtd">
<!-- Generated by graphviz version 12.2.0 (20241103.1931)
 -->
<!-- Title: TGRSIOptions.cxx Pages: 1 -->
<svg width="1456pt" height="193pt"
 viewBox="0.00 0.00 1455.75 193.00" xmlns="http://www.w3.org/2000/svg" xmlns:xlink="http://www.w3.org/1999/xlink">
<g id="graph0" class="graph" transform="scale(1 1) rotate(0) translate(4 189)">
<title>TGRSIOptions.cxx</title>
<!-- Node1 -->
<g id="Node000001" class="node">
<title>Node1</title>
<g id="a_Node000001"><a xlink:title=" ">
<polygon fill="#999999" stroke="#666666" points="1025.12,-185 928.88,-185 928.88,-165.75 1025.12,-165.75 1025.12,-185"/>
<text text-anchor="middle" x="977" y="-171.5" font-family="Helvetica,sans-Serif" font-size="10.00">TGRSIOptions.cxx</text>
</a>
</g>
</g>
<!-- Node2 -->
<g id="Node000002" class="node">
<title>Node2</title>
<g id="a_Node000002"><a xlink:href="_t_g_r_s_i_options_8h.html" target="_top" xlink:title=" ">
<polygon fill="white" stroke="#666666" points="316.62,-129.75 229.38,-129.75 229.38,-110.5 316.62,-110.5 316.62,-129.75"/>
<text text-anchor="middle" x="273" y="-116.25" font-family="Helvetica,sans-Serif" font-size="10.00">TGRSIOptions.h</text>
</a>
</g>
</g>
<!-- Node1&#45;&gt;Node2 -->
<g id="edge1_Node000001_Node000002" class="edge">
<title>Node1&#45;&gt;Node2</title>
<g id="a_edge1_Node000001_Node000002"><a xlink:title=" ">
<path fill="none" stroke="#63b8ff" d="M928.61,-170.71C801.98,-161.14 461.44,-135.38 327.85,-125.27"/>
<polygon fill="#63b8ff" stroke="#63b8ff" points="328.45,-121.81 318.21,-124.54 327.92,-128.79 328.45,-121.81"/>
</a>
</g>
</g>
<!-- Node15 -->
<g id="Node000015" class="node">
<title>Node15</title>
<g id="a_Node000015"><a xlink:title=" ">
<polygon fill="#e0e0e0" stroke="#999999" points="714.25,-129.75 669.75,-129.75 669.75,-110.5 714.25,-110.5 714.25,-129.75"/>
<text text-anchor="middle" x="692" y="-116.25" font-family="Helvetica,sans-Serif" font-size="10.00">cctype</text>
</a>
</g>
</g>
<!-- Node1&#45;&gt;Node15 -->
<g id="edge16_Node000001_Node000015" class="edge">
<title>Node1&#45;&gt;Node15</title>
<g id="a_edge16_Node000001_Node000015"><a xlink:title=" ">
<path fill="none" stroke="#63b8ff" d="M928.72,-167.16C879.91,-159.59 802.13,-146.71 725.47,-129.9"/>
<polygon fill="#63b8ff" stroke="#63b8ff" points="726.66,-126.58 716.14,-127.83 725.15,-133.41 726.66,-126.58"/>
</a>
</g>
</g>
<!-- Node16 -->
<g id="Node000016" class="node">
<title>Node16</title>
<g id="a_Node000016"><a xlink:title=" ">
<polygon fill="#e0e0e0" stroke="#999999" points="1370.75,-19.25 1317.25,-19.25 1317.25,0 1370.75,0 1370.75,-19.25"/>
<text text-anchor="middle" x="1344" y="-5.75" font-family="Helvetica,sans-Serif" font-size="10.00">iostream</text>
</a>
</g>
</g>
<!-- Node1&#45;&gt;Node16 -->
<g id="edge17_Node000001_Node000016" class="edge">
<title>Node1&#45;&gt;Node16</title>
<g id="a_edge17_Node000001_Node000016"><a xlink:title=" ">
<path fill="none" stroke="#63b8ff" d="M988.36,-165.36C1022.59,-138.23 1122.86,-58.98 1131,-55.25 1200.85,-23.26 1227.33,-35.42 1305.98,-19.54"/>
<polygon fill="#63b8ff" stroke="#63b8ff" points="1306.36,-23.04 1315.42,-17.54 1304.91,-16.19 1306.36,-23.04"/>
</a>
</g>
</g>
<!-- Node17 -->
<g id="Node000017" class="node">
<title>Node17</title>
<g id="a_Node000017"><a xlink:title=" ">
<polygon fill="#e0e0e0" stroke="#999999" points="864,-129.75 818,-129.75 818,-110.5 864,-110.5 864,-129.75"/>
<text text-anchor="middle" x="841" y="-116.25" font-family="Helvetica,sans-Serif" font-size="10.00">TEnv.h</text>
</a>
</g>
</g>
<!-- Node1&#45;&gt;Node17 -->
<g id="edge18_Node000001_Node000017" class="edge">
<title>Node1&#45;&gt;Node17</title>
<g id="a_edge18_Node000001_Node000017"><a xlink:title=" ">
<path fill="none" stroke="#63b8ff" d="M953.93,-165.34C932.24,-156.85 899.52,-144.04 874.87,-134.39"/>
<polygon fill="#63b8ff" stroke="#63b8ff" points="876.18,-131.14 865.59,-130.75 873.63,-137.66 876.18,-131.14"/>
</a>
</g>
</g>
<!-- Node18 -->
<g id="Node000018" class="node">
<title>Node18</title>
<g id="a_Node000018"><a xlink:title=" ">
<polygon fill="#e0e0e0" stroke="#999999" points="928,-129.75 882,-129.75 882,-110.5 928,-110.5 928,-129.75"/>
<text text-anchor="middle" x="905" y="-116.25" font-family="Helvetica,sans-Serif" font-size="10.00">TKey.h</text>
</a>
</g>
</g>
<!-- Node1&#45;&gt;Node18 -->
<g id="edge19_Node000001_Node000018" class="edge">
<title>Node1&#45;&gt;Node18</title>
<g id="a_edge19_Node000001_Node000018"><a xlink:title=" ">
<path fill="none" stroke="#63b8ff" d="M964.79,-165.34C954.17,-157.49 938.56,-145.95 925.96,-136.62"/>
<polygon fill="#63b8ff" stroke="#63b8ff" points="928.37,-134.06 918.25,-130.92 924.21,-139.69 928.37,-134.06"/>
</a>
</g>
</g>
<!-- Node19 -->
<g id="Node000019" class="node">
<title>Node19</title>
<g id="a_Node000019"><a xlink:title=" ">
<polygon fill="#e0e0e0" stroke="#999999" points="1008.25,-129.75 945.75,-129.75 945.75,-110.5 1008.25,-110.5 1008.25,-129.75"/>
<text text-anchor="middle" x="977" y="-116.25" font-family="Helvetica,sans-Serif" font-size="10.00">TSystem.h</text>
</a>
</g>
</g>
<!-- Node1&#45;&gt;Node19 -->
<g id="edge20_Node000001_Node000019" class="edge">
<title>Node1&#45;&gt;Node19</title>
<g id="a_edge20_Node000001_Node000019"><a xlink:title=" ">
<path fill="none" stroke="#63b8ff" d="M977,-165.58C977,-159.07 977,-149.92 977,-141.62"/>
<polygon fill="#63b8ff" stroke="#63b8ff" points="980.5,-141.62 977,-131.62 973.5,-141.62 980.5,-141.62"/>
</a>
</g>
</g>
<!-- Node20 -->
<g id="Node000020" class="node">
<title>Node20</title>
<g id="a_Node000020"><a xlink:href="_globals_8h.html" target="_top" xlink:title=" ">
<polygon fill="white" stroke="#666666" points="950.25,-74.5 893.75,-74.5 893.75,-55.25 950.25,-55.25 950.25,-74.5"/>
<text text-anchor="middle" x="922" y="-61" font-family="Helvetica,sans-Serif" font-size="10.00">Globals.h</text>
</a>
</g>
</g>
<!-- Node1&#45;&gt;Node20 -->
<g id="edge21_Node000001_Node000020" class="edge">
<title>Node1&#45;&gt;Node20</title>
<g id="a_edge21_Node000001_Node000020"><a xlink:title=" ">
<path fill="none" stroke="#63b8ff" d="M989.89,-165.26C1005.81,-152.84 1029.35,-129.94 1017,-110.5 1004.8,-91.29 981.9,-80.2 961.64,-73.89"/>
<polygon fill="#63b8ff" stroke="#63b8ff" points="962.77,-70.57 952.2,-71.25 960.89,-77.31 962.77,-70.57"/>
</a>
</g>
</g>
<!-- Node32 -->
<g id="Node000032" class="node">
<title>Node32</title>
<g id="a_Node000032"><a xlink:href="_full_path_8h.html" target="_top" xlink:title=" ">
<polygon fill="white" stroke="#666666" points="1447.75,-129.75 1388.25,-129.75 1388.25,-110.5 1447.75,-110.5 1447.75,-129.75"/>
<text text-anchor="middle" x="1418" y="-116.25" font-family="Helvetica,sans-Serif" font-size="10.00">FullPath.h</text>
</a>
</g>
</g>
<!-- Node1&#45;&gt;Node32 -->
<g id="edge37_Node000001_Node000032" class="edge">
<title>Node1&#45;&gt;Node32</title>
<g id="a_edge37_Node000001_Node000032"><a xlink:title=" ">
<path fill="none" stroke="#63b8ff" d="M1025.46,-168.52C1112.68,-157.99 1294.64,-136.02 1376.51,-126.13"/>
<polygon fill="#63b8ff" stroke="#63b8ff" points="1376.83,-129.62 1386.34,-124.95 1375.99,-122.67 1376.83,-129.62"/>
</a>
</g>
</g>
<!-- Node33 -->
<g id="Node000033" class="node">
<title>Node33</title>
<g id="a_Node000033"><a xlink:href="_arg_parser_8h.html" target="_top" xlink:title=" ">
<polygon fill="white" stroke="#666666" points="799.5,-129.75 732.5,-129.75 732.5,-110.5 799.5,-110.5 799.5,-129.75"/>
<text text-anchor="middle" x="766" y="-116.25" font-family="Helvetica,sans-Serif" font-size="10.00">ArgParser.h</text>
</a>
</g>
</g>
<!-- Node1&#45;&gt;Node33 -->
<g id="edge39_Node000001_Node000033" class="edge">
<title>Node1&#45;&gt;Node33</title>
<g id="a_edge39_Node000001_Node000033"><a xlink:title=" ">
<path fill="none" stroke="#63b8ff" d="M941.21,-165.34C905.25,-156.27 849.74,-142.26 810.86,-132.45"/>
<polygon fill="#63b8ff" stroke="#63b8ff" points="811.89,-129.1 801.34,-130.04 810.18,-135.88 811.89,-129.1"/>
</a>
</g>
</g>
<!-- Node36 -->
<g id="Node000036" class="node">
<title>Node36</title>
<g id="a_Node000036"><a xlink:href="_dynamic_library_8h.html" target="_top" xlink:title=" ">
<polygon fill="white" stroke="#666666" points="1230.12,-74.5 1139.88,-74.5 1139.88,-55.25 1230.12,-55.25 1230.12,-74.5"/>
<text text-anchor="middle" x="1185" y="-61" font-family="Helvetica,sans-Serif" font-size="10.00">DynamicLibrary.h</text>
</a>
</g>
</g>
<!-- Node1&#45;&gt;Node36 -->
<g id="edge48_Node000001_Node000036" class="edge">
<title>Node1&#45;&gt;Node36</title>
<g id="a_edge48_Node000001_Node000036"><a xlink:title=" ">
<path fill="none" stroke="#63b8ff" d="M1003.68,-165.35C1026.59,-157.21 1060.21,-144.3 1088,-129.75 1115.26,-115.48 1144.48,-95.53 1163.64,-81.74"/>
<polygon fill="#63b8ff" stroke="#63b8ff" points="1165.69,-84.58 1171.71,-75.86 1161.56,-78.92 1165.69,-84.58"/>
</a>
</g>
</g>
<!-- Node37 -->
<g id="Node000037" class="node">
<title>Node37</title>
<g id="a_Node000037"><a xlink:href="_g_root_commands_8h.html" target="_top" xlink:title=" ">
<polygon fill="white" stroke="#666666" points="1327.38,-129.75 1226.62,-129.75 1226.62,-110.5 1327.38,-110.5 1327.38,-129.75"/>
<text text-anchor="middle" x="1277" y="-116.25" font-family="Helvetica,sans-Serif" font-size="10.00">GRootCommands.h</text>
</a>
</g>
</g>
<!-- Node1&#45;&gt;Node37 -->
<g id="edge50_Node000001_Node000037" class="edge">
<title>Node1&#45;&gt;Node37</title>
<g id="a_edge50_Node000001_Node000037"><a xlink:title=" ">
<path fill="none" stroke="#63b8ff" d="M1025.53,-165.76C1077.12,-156.6 1158.85,-142.1 1215.05,-132.12"/>
<polygon fill="#63b8ff" stroke="#63b8ff" points="1215.56,-135.59 1224.79,-130.39 1214.33,-128.69 1215.56,-135.59"/>
</a>
</g>
</g>
<!-- Node3 -->
<g id="Node000003" class="node">
<title>Node3</title>
<g id="a_Node000003"><a xlink:title=" ">
<polygon fill="#e0e0e0" stroke="#999999" points="58,-19.25 0,-19.25 0,0 58,0 58,-19.25"/>
<text text-anchor="middle" x="29" y="-5.75" font-family="Helvetica,sans-Serif" font-size="10.00">TObject.h</text>
</a>
</g>
</g>
<!-- Node2&#45;&gt;Node3 -->
<g id="edge2_Node000002_Node000003" class="edge">
<title>Node2&#45;&gt;Node3</title>
<g id="a_edge2_Node000002_Node000003"><a xlink:title=" ">
<path fill="none" stroke="#63b8ff" d="M228.9,-115.73C171.09,-110.41 73.98,-98.16 48,-74.5 35.83,-63.41 31.32,-44.91 29.71,-30.67"/>
<polygon fill="#63b8ff" stroke="#63b8ff" points="33.23,-30.78 29.03,-21.05 26.24,-31.27 33.23,-30.78"/>
</a>
</g>
</g>
<!-- Node4 -->
<g id="Node000004" class="node">
<title>Node4</title>
<g id="a_Node000004"><a xlink:title=" ">
<polygon fill="#e0e0e0" stroke="#999999" points="121.62,-19.25 76.38,-19.25 76.38,0 121.62,0 121.62,-19.25"/>
<text text-anchor="middle" x="99" y="-5.75" font-family="Helvetica,sans-Serif" font-size="10.00">TFile.h</text>
</a>
</g>
</g>
<!-- Node2&#45;&gt;Node4 -->
<g id="edge3_Node000002_Node000004" class="edge">
<title>Node2&#45;&gt;Node4</title>
<g id="a_edge3_Node000002_Node000004"><a xlink:title=" ">
<path fill="none" stroke="#63b8ff" d="M258.46,-110.06C228.45,-91.35 159.38,-48.28 122.78,-25.45"/>
<polygon fill="#63b8ff" stroke="#63b8ff" points="124.99,-22.71 114.66,-20.39 121.29,-28.65 124.99,-22.71"/>
</a>
</g>
</g>
<!-- Node5 -->
<g id="Node000005" class="node">
<title>Node5</title>
<g id="a_Node000005"><a xlink:href="_t_g_r_s_i_types_8h.html" target="_top" xlink:title=" ">
<polygon fill="white" stroke="#666666" points="504.88,-74.5 425.12,-74.5 425.12,-55.25 504.88,-55.25 504.88,-74.5"/>
<text text-anchor="middle" x="465" y="-61" font-family="Helvetica,sans-Serif" font-size="10.00">TGRSITypes.h</text>
</a>
</g>
</g>
<!-- Node2&#45;&gt;Node5 -->
<g id="edge4_Node000002_Node000005" class="edge">
<title>Node2&#45;&gt;Node5</title>
<g id="a_edge4_Node000002_Node000005"><a xlink:title=" ">
<path fill="none" stroke="#63b8ff" d="M305.57,-110.09C337.43,-101.26 386.16,-87.74 421.36,-77.98"/>
<polygon fill="#63b8ff" stroke="#63b8ff" points="422.11,-81.4 430.81,-75.36 420.24,-74.66 422.11,-81.4"/>
</a>
</g>
</g>
<!-- Node7 -->
<g id="Node000007" class="node">
<title>Node7</title>
<g id="a_Node000007"><a xlink:href="_t_analysis_options_8h.html" target="_top" xlink:title=" ">
<polygon fill="white" stroke="#666666" points="157,-74.5 57,-74.5 57,-55.25 157,-55.25 157,-74.5"/>
<text text-anchor="middle" x="107" y="-61" font-family="Helvetica,sans-Serif" font-size="10.00">TAnalysisOptions.h</text>
</a>
</g>
</g>
<!-- Node2&#45;&gt;Node7 -->
<g id="edge6_Node000002_Node000007" class="edge">
<title>Node2&#45;&gt;Node7</title>
<g id="a_edge6_Node000002_Node000007"><a xlink:title=" ">
<path fill="none" stroke="#63b8ff" d="M244.84,-110.09C217.65,-101.37 176.26,-88.09 145.93,-78.36"/>
<polygon fill="#63b8ff" stroke="#63b8ff" points="147.33,-75.14 136.74,-75.41 145.19,-81.8 147.33,-75.14"/>
</a>
</g>
</g>
<!-- Node8 -->
<g id="Node000008" class="node">
<title>Node8</title>
<g id="a_Node000008"><a xlink:href="_t_user_settings_8h.html" target="_top" xlink:title=" ">
<polygon fill="white" stroke="#666666" points="351.25,-74.5 264.75,-74.5 264.75,-55.25 351.25,-55.25 351.25,-74.5"/>
<text text-anchor="middle" x="308" y="-61" font-family="Helvetica,sans-Serif" font-size="10.00">TUserSettings.h</text>
</a>
</g>
</g>
<!-- Node2&#45;&gt;Node8 -->
<g id="edge9_Node000002_Node000008" class="edge">
<title>Node2&#45;&gt;Node8</title>
<g id="a_edge9_Node000002_Node000008"><a xlink:title=" ">
<path fill="none" stroke="#63b8ff" d="M278.78,-110.33C283.41,-103.28 290.07,-93.15 295.87,-84.33"/>
<polygon fill="#63b8ff" stroke="#63b8ff" points="298.7,-86.4 301.26,-76.12 292.85,-82.56 298.7,-86.4"/>
</a>
</g>
</g>
<!-- Node6 -->
<g id="Node000006" class="node">
<title>Node6</title>
<g id="a_Node000006"><a xlink:title=" ">
<polygon fill="#e0e0e0" stroke="#999999" points="545.62,-19.25 500.38,-19.25 500.38,0 545.62,0 545.62,-19.25"/>
<text text-anchor="middle" x="523" y="-5.75" font-family="Helvetica,sans-Serif" font-size="10.00">cstdint</text>
</a>
</g>
</g>
<!-- Node5&#45;&gt;Node6 -->
<g id="edge5_Node000005_Node000006" class="edge">
<title>Node5&#45;&gt;Node6</title>
<g id="a_edge5_Node000005_Node000006"><a xlink:title=" ">
<path fill="none" stroke="#63b8ff" d="M474.84,-54.84C483.05,-47.3 494.98,-36.35 504.91,-27.23"/>
<polygon fill="#63b8ff" stroke="#63b8ff" points="507.19,-29.89 512.19,-20.55 502.46,-24.73 507.19,-29.89"/>
</a>
</g>
</g>
<!-- Node7&#45;&gt;Node3 -->
<g id="edge7_Node000007_Node000003" class="edge">
<title>Node7&#45;&gt;Node3</title>
<g id="a_edge7_Node000007_Node000003"><a xlink:title=" ">
<path fill="none" stroke="#63b8ff" d="M93.77,-54.84C82.23,-46.96 65.23,-35.36 51.55,-26.02"/>
<polygon fill="#63b8ff" stroke="#63b8ff" points="53.78,-23.3 43.55,-20.56 49.83,-29.08 53.78,-23.3"/>
</a>
</g>
</g>
<!-- Node7&#45;&gt;Node4 -->
<g id="edge8_Node000007_Node000004" class="edge">
<title>Node7&#45;&gt;Node4</title>
<g id="a_edge8_Node000007_Node000004"><a xlink:title=" ">
<path fill="none" stroke="#63b8ff" d="M105.68,-55.08C104.69,-48.49 103.29,-39.21 102.03,-30.82"/>
<polygon fill="#63b8ff" stroke="#63b8ff" points="105.52,-30.47 100.57,-21.11 98.6,-31.51 105.52,-30.47"/>
</a>
</g>
</g>
<!-- Node9 -->
<g id="Node000009" class="node">
<title>Node9</title>
<g id="a_Node000009"><a xlink:title=" ">
<polygon fill="#e0e0e0" stroke="#999999" points="174.38,-19.25 139.62,-19.25 139.62,0 174.38,0 174.38,-19.25"/>
<text text-anchor="middle" x="157" y="-5.75" font-family="Helvetica,sans-Serif" font-size="10.00">map</text>
</a>
</g>
</g>
<!-- Node8&#45;&gt;Node9 -->
<g id="edge10_Node000008_Node000009" class="edge">
<title>Node8&#45;&gt;Node9</title>
<g id="a_edge10_Node000008_Node000009"><a xlink:title=" ">
<path fill="none" stroke="#63b8ff" d="M282.38,-54.84C255.47,-45.35 213.23,-30.46 185.33,-20.62"/>
<polygon fill="#63b8ff" stroke="#63b8ff" points="186.72,-17.39 176.12,-17.37 184.39,-24 186.72,-17.39"/>
</a>
</g>
</g>
<!-- Node10 -->
<g id="Node000010" class="node">
<title>Node10</title>
<g id="a_Node000010"><a xlink:title=" ">
<polygon fill="#e0e0e0" stroke="#999999" points="1429,-19.25 1389,-19.25 1389,0 1429,0 1429,-19.25"/>
<text text-anchor="middle" x="1409" y="-5.75" font-family="Helvetica,sans-Serif" font-size="10.00">string</text>
</a>
</g>
</g>
<!-- Node8&#45;&gt;Node10 -->
<g id="edge11_Node000008_Node000010" class="edge">
<title>Node8&#45;&gt;Node10</title>
<g id="a_edge11_Node000008_Node000010"><a xlink:title=" ">
<path fill="none" stroke="#63b8ff" d="M351.59,-59.97C371.25,-58.32 394.78,-56.49 416,-55.25 840.25,-30.4 954.94,-87.89 1377.25,-19.26"/>
<polygon fill="#63b8ff" stroke="#63b8ff" points="1377.76,-22.72 1387.06,-17.64 1376.63,-15.81 1377.76,-22.72"/>
</a>
</g>
</g>
<!-- Node11 -->
<g id="Node000011" class="node">
<title>Node11</title>
<g id="a_Node000011"><a xlink:title=" ">
<polygon fill="#e0e0e0" stroke="#999999" points="405.5,-19.25 362.5,-19.25 362.5,0 405.5,0 405.5,-19.25"/>
<text text-anchor="middle" x="384" y="-5.75" font-family="Helvetica,sans-Serif" font-size="10.00">vector</text>
</a>
</g>
</g>
<!-- Node8&#45;&gt;Node11 -->
<g id="edge12_Node000008_Node000011" class="edge">
<title>Node8&#45;&gt;Node11</title>
<g id="a_edge12_Node000008_Node000011"><a xlink:title=" ">
<path fill="none" stroke="#63b8ff" d="M320.89,-54.84C332.03,-47.04 348.37,-35.59 361.64,-26.29"/>
<polygon fill="#63b8ff" stroke="#63b8ff" points="363.62,-29.18 369.8,-20.57 359.61,-23.44 363.62,-29.18"/>
</a>
</g>
</g>
<!-- Node12 -->
<g id="Node000012" class="node">
<title>Node12</title>
<g id="a_Node000012"><a xlink:title=" ">
<polygon fill="#e0e0e0" stroke="#999999" points="482,-19.25 424,-19.25 424,0 482,0 482,-19.25"/>
<text text-anchor="middle" x="453" y="-5.75" font-family="Helvetica,sans-Serif" font-size="10.00">stdexcept</text>
</a>
</g>
</g>
<!-- Node8&#45;&gt;Node12 -->
<g id="edge13_Node000008_Node000012" class="edge">
<title>Node8&#45;&gt;Node12</title>
<g id="a_edge13_Node000008_Node000012"><a xlink:title=" ">
<path fill="none" stroke="#63b8ff" d="M332.6,-54.84C355.93,-46.27 391.24,-33.31 417.6,-23.63"/>
<polygon fill="#63b8ff" stroke="#63b8ff" points="418.68,-26.96 426.86,-20.22 416.27,-20.39 418.68,-26.96"/>
</a>
</g>
</g>
<!-- Node13 -->
<g id="Node000013" class="node">
<title>Node13</title>
<g id="a_Node000013"><a xlink:title=" ">
<polygon fill="#e0e0e0" stroke="#999999" points="253.5,-19.25 192.5,-19.25 192.5,0 253.5,0 253.5,-19.25"/>
<text text-anchor="middle" x="223" y="-5.75" font-family="Helvetica,sans-Serif" font-size="10.00">TNamed.h</text>
</a>
</g>
</g>
<!-- Node8&#45;&gt;Node13 -->
<g id="edge14_Node000008_Node000013" class="edge">
<title>Node8&#45;&gt;Node13</title>
<g id="a_edge14_Node000008_Node000013"><a xlink:title=" ">
<path fill="none" stroke="#63b8ff" d="M293.58,-54.84C280.88,-46.89 262.13,-35.14 247.14,-25.75"/>
<polygon fill="#63b8ff" stroke="#63b8ff" points="249.1,-22.85 238.77,-20.51 245.39,-28.78 249.1,-22.85"/>
</a>
</g>
</g>
<!-- Node14 -->
<g id="Node000014" class="node">
<title>Node14</title>
<g id="a_Node000014"><a xlink:title=" ">
<polygon fill="#e0e0e0" stroke="#999999" points="344.12,-19.25 271.88,-19.25 271.88,0 344.12,0 344.12,-19.25"/>
<text text-anchor="middle" x="308" y="-5.75" font-family="Helvetica,sans-Serif" font-size="10.00">TCollection.h</text>
</a>
</g>
</g>
<!-- Node8&#45;&gt;Node14 -->
<g id="edge15_Node000008_Node000014" class="edge">
<title>Node8&#45;&gt;Node14</title>
<g id="a_edge15_Node000008_Node000014"><a xlink:title=" ">
<path fill="none" stroke="#63b8ff" d="M308,-55.08C308,-48.57 308,-39.42 308,-31.12"/>
<polygon fill="#63b8ff" stroke="#63b8ff" points="311.5,-31.12 308,-21.12 304.5,-31.12 311.5,-31.12"/>
</a>
</g>
</g>
<!-- Node20&#45;&gt;Node6 -->
<g id="edge27_Node000020_Node000006" class="edge">
<title>Node20&#45;&gt;Node6</title>
<g id="a_edge27_Node000020_Node000006"><a xlink:title=" ">
<path fill="none" stroke="#63b8ff" d="M893.39,-60.33C880.71,-58.77 865.61,-56.91 852,-55.25 723.2,-39.53 686.83,-44.89 557.1,-19.63"/>
<polygon fill="#63b8ff" stroke="#63b8ff" points="557.9,-16.22 547.41,-17.71 556.55,-23.08 557.9,-16.22"/>
</a>
</g>
</g>
<!-- Node20&#45;&gt;Node10 -->
<g id="edge25_Node000020_Node000010" class="edge">
<title>Node20&#45;&gt;Node10</title>
<g id="a_edge25_Node000020_Node000010"><a xlink:title=" ">
<path fill="none" stroke="#63b8ff" d="M950.68,-62.99C1021.67,-60.4 1211.28,-51.02 1377.61,-19.36"/>
<polygon fill="#63b8ff" stroke="#63b8ff" points="1377.89,-22.87 1387.04,-17.53 1376.56,-16 1377.89,-22.87"/>
</a>
</g>
</g>
<!-- Node20&#45;&gt;Node12 -->
<g id="edge24_Node000020_Node000012" class="edge">
<title>Node20&#45;&gt;Node12</title>
<g id="a_edge24_Node000020_Node000012"><a xlink:title=" ">
<path fill="none" stroke="#63b8ff" d="M893.41,-60.2C880.73,-58.61 865.63,-56.77 852,-55.25 695.35,-37.79 652.08,-44.81 493.5,-19.47"/>
<polygon fill="#63b8ff" stroke="#63b8ff" points="494.31,-16.06 483.88,-17.91 493.19,-22.97 494.31,-16.06"/>
</a>
</g>
</g>
<!-- Node20&#45;&gt;Node16 -->
<g id="edge22_Node000020_Node000016" class="edge">
<title>Node20&#45;&gt;Node16</title>
<g id="a_edge22_Node000020_Node000016"><a xlink:title=" ">
<path fill="none" stroke="#63b8ff" d="M950.61,-61.02C1024.31,-53.59 1220.29,-33.39 1305.66,-19.4"/>
<polygon fill="#63b8ff" stroke="#63b8ff" points="1306.19,-22.87 1315.45,-17.73 1305.01,-15.97 1306.19,-22.87"/>
</a>
</g>
</g>
<!-- Node21 -->
<g id="Node000021" class="node">
<title>Node21</title>
<g id="a_Node000021"><a xlink:title=" ">
<polygon fill="#e0e0e0" stroke="#999999" points="1238.88,-19.25 1189.12,-19.25 1189.12,0 1238.88,0 1238.88,-19.25"/>
<text text-anchor="middle" x="1214" y="-5.75" font-family="Helvetica,sans-Serif" font-size="10.00">iomanip</text>
</a>
</g>
</g>
<!-- Node20&#45;&gt;Node21 -->
<g id="edge23_Node000020_Node000021" class="edge">
<title>Node20&#45;&gt;Node21</title>
<g id="a_edge23_Node000020_Node000021"><a xlink:title=" ">
<path fill="none" stroke="#63b8ff" d="M950.39,-59.7C996.14,-52.81 1089.23,-38.15 1177.75,-19.59"/>
<polygon fill="#63b8ff" stroke="#63b8ff" points="1178.26,-23.06 1187.32,-17.56 1176.81,-16.21 1178.26,-23.06"/>
</a>
</g>
</g>
<!-- Node22 -->
<g id="Node000022" class="node">
<title>Node22</title>
<g id="a_Node000022"><a xlink:title=" ">
<polygon fill="#e0e0e0" stroke="#999999" points="1299.12,-19.25 1256.88,-19.25 1256.88,0 1299.12,0 1299.12,-19.25"/>
<text text-anchor="middle" x="1278" y="-5.75" font-family="Helvetica,sans-Serif" font-size="10.00">cstdio</text>
</a>
</g>
</g>
<!-- Node20&#45;&gt;Node22 -->
<g id="edge26_Node000020_Node000022" class="edge">
<title>Node20&#45;&gt;Node22</title>
<g id="a_edge26_Node000020_Node000022"><a xlink:title=" ">
<path fill="none" stroke="#63b8ff" d="M950.59,-60.5C1015.48,-52.75 1173.33,-33.43 1245.28,-19.49"/>
<polygon fill="#63b8ff" stroke="#63b8ff" points="1245.88,-22.94 1254.98,-17.52 1244.48,-16.08 1245.88,-22.94"/>
</a>
</g>
</g>
<!-- Node23 -->
<g id="Node000023" class="node">
<title>Node23</title>
<g id="a_Node000023"><a xlink:title=" ">
<polygon fill="#e0e0e0" stroke="#999999" points="677.25,-19.25 632.75,-19.25 632.75,0 677.25,0 677.25,-19.25"/>
<text text-anchor="middle" x="655" y="-5.75" font-family="Helvetica,sans-Serif" font-size="10.00">cstdlib</text>
</a>
</g>
</g>
<!-- Node20&#45;&gt;Node23 -->
<g id="edge28_Node000020_Node000023" class="edge">
<title>Node20&#45;&gt;Node23</title>
<g id="a_edge28_Node000020_Node000023"><a xlink:title=" ">
<path fill="none" stroke="#63b8ff" d="M893.5,-59.29C850.98,-52.27 768.19,-37.94 688.8,-19.75"/>
<polygon fill="#63b8ff" stroke="#63b8ff" points="689.64,-16.35 679.1,-17.5 688.05,-23.17 689.64,-16.35"/>
</a>
</g>
</g>
<!-- Node24 -->
<g id="Node000024" class="node">
<title>Node24</title>
<g id="a_Node000024"><a xlink:title=" ">
<polygon fill="#e0e0e0" stroke="#999999" points="754.75,-19.25 695.25,-19.25 695.25,0 754.75,0 754.75,-19.25"/>
<text text-anchor="middle" x="725" y="-5.75" font-family="Helvetica,sans-Serif" font-size="10.00">execinfo.h</text>
</a>
</g>
</g>
<!-- Node20&#45;&gt;Node24 -->
<g id="edge29_Node000020_Node000024" class="edge">
<title>Node20&#45;&gt;Node24</title>
<g id="a_edge29_Node000020_Node000024"><a xlink:title=" ">
<path fill="none" stroke="#63b8ff" d="M893.35,-56.13C859.75,-47.05 803.79,-31.92 765.69,-21.62"/>
<polygon fill="#63b8ff" stroke="#63b8ff" points="767,-18.35 756.43,-19.12 765.17,-25.11 767,-18.35"/>
</a>
</g>
</g>
<!-- Node25 -->
<g id="Node000025" class="node">
<title>Node25</title>
<g id="a_Node000025"><a xlink:title=" ">
<polygon fill="#e0e0e0" stroke="#999999" points="823.25,-19.25 772.75,-19.25 772.75,0 823.25,0 823.25,-19.25"/>
<text text-anchor="middle" x="798" y="-5.75" font-family="Helvetica,sans-Serif" font-size="10.00">cxxabi.h</text>
</a>
</g>
</g>
<!-- Node20&#45;&gt;Node25 -->
<g id="edge30_Node000020_Node000025" class="edge">
<title>Node20&#45;&gt;Node25</title>
<g id="a_edge30_Node000020_Node000025"><a xlink:title=" ">
<path fill="none" stroke="#63b8ff" d="M900.97,-54.84C881.37,-46.43 851.89,-33.77 829.49,-24.15"/>
<polygon fill="#63b8ff" stroke="#63b8ff" points="831.1,-21.03 820.53,-20.3 828.34,-27.46 831.1,-21.03"/>
</a>
</g>
</g>
<!-- Node26 -->
<g id="Node000026" class="node">
<title>Node26</title>
<g id="a_Node000026"><a xlink:title=" ">
<polygon fill="#e0e0e0" stroke="#999999" points="614.62,-19.25 563.38,-19.25 563.38,0 614.62,0 614.62,-19.25"/>
<text text-anchor="middle" x="589" y="-5.75" font-family="Helvetica,sans-Serif" font-size="10.00">sstream</text>
</a>
</g>
</g>
<!-- Node20&#45;&gt;Node26 -->
<g id="edge31_Node000020_Node000026" class="edge">
<title>Node20&#45;&gt;Node26</title>
<g id="a_edge31_Node000020_Node000026"><a xlink:title=" ">
<path fill="none" stroke="#63b8ff" d="M893.31,-59.93C832.74,-51.54 692.57,-31.83 626.08,-19.45"/>
<polygon fill="#63b8ff" stroke="#63b8ff" points="626.9,-16.04 616.42,-17.59 625.58,-22.91 626.9,-16.04"/>
</a>
</g>
</g>
<!-- Node27 -->
<g id="Node000027" class="node">
<title>Node27</title>
<g id="a_Node000027"><a xlink:title=" ">
<polygon fill="#e0e0e0" stroke="#999999" points="878.5,-19.25 841.5,-19.25 841.5,0 878.5,0 878.5,-19.25"/>
<text text-anchor="middle" x="860" y="-5.75" font-family="Helvetica,sans-Serif" font-size="10.00">array</text>
</a>
</g>
</g>
<!-- Node20&#45;&gt;Node27 -->
<g id="edge32_Node000020_Node000027" class="edge">
<title>Node20&#45;&gt;Node27</title>
<g id="a_edge32_Node000020_Node000027"><a xlink:title=" ">
<path fill="none" stroke="#63b8ff" d="M911.48,-54.84C902.61,-47.22 889.69,-36.12 879.01,-26.95"/>
<polygon fill="#63b8ff" stroke="#63b8ff" points="881.38,-24.37 871.51,-20.51 876.82,-29.68 881.38,-24.37"/>
</a>
</g>
</g>
<!-- Node28 -->
<g id="Node000028" class="node">
<title>Node28</title>
<g id="a_Node000028"><a xlink:title=" ">
<polygon fill="#e0e0e0" stroke="#999999" points="947.25,-19.25 896.75,-19.25 896.75,0 947.25,0 947.25,-19.25"/>
<text text-anchor="middle" x="922" y="-5.75" font-family="Helvetica,sans-Serif" font-size="10.00">memory</text>
</a>
</g>
</g>
<!-- Node20&#45;&gt;Node28 -->
<g id="edge33_Node000020_Node000028" class="edge">
<title>Node20&#45;&gt;Node28</title>
<g id="a_edge33_Node000020_Node000028"><a xlink:title=" ">
<path fill="none" stroke="#63b8ff" d="M922,-55.08C922,-48.57 922,-39.42 922,-31.12"/>
<polygon fill="#63b8ff" stroke="#63b8ff" points="925.5,-31.12 922,-21.12 918.5,-31.12 925.5,-31.12"/>
</a>
</g>
</g>
<!-- Node29 -->
<g id="Node000029" class="node">
<title>Node29</title>
<g id="a_Node000029"><a xlink:title=" ">
<polygon fill="#e0e0e0" stroke="#999999" points="1014.88,-19.25 965.12,-19.25 965.12,0 1014.88,0 1014.88,-19.25"/>
<text text-anchor="middle" x="990" y="-5.75" font-family="Helvetica,sans-Serif" font-size="10.00">unistd.h</text>
</a>
</g>
</g>
<!-- Node20&#45;&gt;Node29 -->
<g id="edge34_Node000020_Node000029" class="edge">
<title>Node20&#45;&gt;Node29</title>
<g id="a_edge34_Node000020_Node000029"><a xlink:title=" ">
<path fill="none" stroke="#63b8ff" d="M933.54,-54.84C943.46,-47.07 958.01,-35.67 969.86,-26.4"/>
<polygon fill="#63b8ff" stroke="#63b8ff" points="971.73,-29.38 977.44,-20.46 967.41,-23.87 971.73,-29.38"/>
</a>
</g>
</g>
<!-- Node30 -->
<g id="Node000030" class="node">
<title>Node30</title>
<g id="a_Node000030"><a xlink:title=" ">
<polygon fill="#e0e0e0" stroke="#999999" points="1092.75,-19.25 1033.25,-19.25 1033.25,0 1092.75,0 1092.75,-19.25"/>
<text text-anchor="middle" x="1063" y="-5.75" font-family="Helvetica,sans-Serif" font-size="10.00">sys/wait.h</text>
</a>
</g>
</g>
<!-- Node20&#45;&gt;Node30 -->
<g id="edge35_Node000020_Node000030" class="edge">
<title>Node20&#45;&gt;Node30</title>
<g id="a_edge35_Node000020_Node000030"><a xlink:title=" ">
<path fill="none" stroke="#63b8ff" d="M945.92,-54.84C968.5,-46.31 1002.64,-33.42 1028.23,-23.76"/>
<polygon fill="#63b8ff" stroke="#63b8ff" points="1029.43,-27.04 1037.55,-20.24 1026.96,-20.5 1029.43,-27.04"/>
</a>
</g>
</g>
<!-- Node31 -->
<g id="Node000031" class="node">
<title>Node31</title>
<g id="a_Node000031"><a xlink:title=" ">
<polygon fill="#e0e0e0" stroke="#999999" points="1171.12,-19.25 1110.88,-19.25 1110.88,0 1171.12,0 1171.12,-19.25"/>
<text text-anchor="middle" x="1141" y="-5.75" font-family="Helvetica,sans-Serif" font-size="10.00">sys/prctl.h</text>
</a>
</g>
</g>
<!-- Node20&#45;&gt;Node31 -->
<g id="edge36_Node000020_Node000031" class="edge">
<title>Node20&#45;&gt;Node31</title>
<g id="a_edge36_Node000020_Node000031"><a xlink:title=" ">
<path fill="none" stroke="#63b8ff" d="M950.63,-56.91C988.63,-47.67 1055.97,-31.3 1099.53,-20.71"/>
<polygon fill="#63b8ff" stroke="#63b8ff" points="1100.24,-24.14 1109.13,-18.37 1098.59,-17.34 1100.24,-24.14"/>
</a>
</g>
</g>
<!-- Node32&#45;&gt;Node10 -->
<g id="edge38_Node000032_Node000010" class="edge">
<title>Node32&#45;&gt;Node10</title>
<g id="a_edge38_Node000032_Node000010"><a xlink:title=" ">
<path fill="none" stroke="#63b8ff" d="M1419.94,-110.4C1422.41,-98.06 1426,-74.82 1423,-55.25 1421.73,-46.93 1419.19,-38.03 1416.62,-30.38"/>
<polygon fill="#63b8ff" stroke="#63b8ff" points="1419.95,-29.29 1413.25,-21.08 1413.36,-31.68 1419.95,-29.29"/>
</a>
</g>
</g>
<!-- Node33&#45;&gt;Node10 -->
<g id="edge44_Node000033_Node000010" class="edge">
<title>Node33&#45;&gt;Node10</title>
<g id="a_edge44_Node000033_Node000010"><a xlink:title=" ">
<path fill="none" stroke="#63b8ff" d="M799.78,-112.24C802.9,-111.64 806,-111.05 809,-110.5 904.72,-92.93 929.12,-91.2 1025,-74.5 1072.17,-66.29 1083.74,-62.95 1131,-55.25 1237.8,-37.84 1268.81,-42.89 1377.39,-19.55"/>
<polygon fill="#63b8ff" stroke="#63b8ff" points="1378,-23 1387.02,-17.45 1376.51,-16.16 1378,-23"/>
</a>
</g>
</g>
<!-- Node33&#45;&gt;Node11 -->
<g id="edge45_Node000033_Node000011" class="edge">
<title>Node33&#45;&gt;Node11</title>
<g id="a_edge45_Node000033_Node000011"><a xlink:title=" ">
<path fill="none" stroke="#63b8ff" d="M732.19,-111.34C696.08,-102.88 637.25,-88.66 587,-74.5 526.34,-57.41 456.4,-34.74 416.47,-21.51"/>
<polygon fill="#63b8ff" stroke="#63b8ff" points="417.83,-18.27 407.24,-18.44 415.62,-24.92 417.83,-18.27"/>
</a>
</g>
</g>
<!-- Node33&#45;&gt;Node12 -->
<g id="edge43_Node000033_Node000012" class="edge">
<title>Node33&#45;&gt;Node12</title>
<g id="a_edge43_Node000033_Node000012"><a xlink:title=" ">
<path fill="none" stroke="#63b8ff" d="M741.16,-110.07C706.65,-97.54 642.21,-74.29 587,-55.25 554.95,-44.2 518.44,-32.07 491.63,-23.25"/>
<polygon fill="#63b8ff" stroke="#63b8ff" points="492.81,-19.95 482.21,-20.16 490.62,-26.6 492.81,-19.95"/>
</a>
</g>
</g>
<!-- Node33&#45;&gt;Node16 -->
<g id="edge40_Node000033_Node000016" class="edge">
<title>Node33&#45;&gt;Node16</title>
<g id="a_edge40_Node000033_Node000016"><a xlink:title=" ">
<path fill="none" stroke="#63b8ff" d="M799.8,-110.98C854.32,-98.01 965.17,-72.41 1060,-55.25 1166.07,-36.05 1196.67,-39.96 1305.76,-19.51"/>
<polygon fill="#63b8ff" stroke="#63b8ff" points="1306.27,-22.98 1315.44,-17.67 1304.97,-16.1 1306.27,-22.98"/>
</a>
</g>
</g>
<!-- Node33&#45;&gt;Node20 -->
<g id="edge47_Node000033_Node000020" class="edge">
<title>Node33&#45;&gt;Node20</title>
<g id="a_edge47_Node000033_Node000020"><a xlink:title=" ">
<path fill="none" stroke="#63b8ff" d="M792.46,-110.09C817.79,-101.45 856.23,-88.32 884.67,-78.62"/>
<polygon fill="#63b8ff" stroke="#63b8ff" points="885.64,-81.98 893.97,-75.44 883.38,-75.36 885.64,-81.98"/>
</a>
</g>
</g>
<!-- Node33&#45;&gt;Node26 -->
<g id="edge42_Node000033_Node000026" class="edge">
<title>Node33&#45;&gt;Node26</title>
<g id="a_edge42_Node000033_Node000026"><a xlink:title=" ">
<path fill="none" stroke="#63b8ff" d="M764.86,-110.32C762.62,-96.57 756.33,-70.04 740,-55.25 731.39,-47.46 667.69,-30.35 625.82,-19.72"/>
<polygon fill="#63b8ff" stroke="#63b8ff" points="626.93,-16.4 616.38,-17.35 625.22,-23.18 626.93,-16.4"/>
</a>
</g>
</g>
<!-- Node34 -->
<g id="Node000034" class="node">
<title>Node34</title>
<g id="a_Node000034"><a xlink:title=" ">
<polygon fill="#e0e0e0" stroke="#999999" points="730.5,-74.5 681.5,-74.5 681.5,-55.25 730.5,-55.25 730.5,-74.5"/>
<text text-anchor="middle" x="706" y="-61" font-family="Helvetica,sans-Serif" font-size="10.00">fstream</text>
</a>
</g>
</g>
<!-- Node33&#45;&gt;Node34 -->
<g id="edge41_Node000033_Node000034" class="edge">
<title>Node33&#45;&gt;Node34</title>
<g id="a_edge41_Node000033_Node000034"><a xlink:title=" ">
<path fill="none" stroke="#63b8ff" d="M755.82,-110.09C747.24,-102.47 734.73,-91.37 724.4,-82.2"/>
<polygon fill="#63b8ff" stroke="#63b8ff" points="726.96,-79.8 717.16,-75.78 722.32,-85.04 726.96,-79.8"/>
</a>
</g>
</g>
<!-- Node35 -->
<g id="Node000035" class="node">
<title>Node35</title>
<g id="a_Node000035"><a xlink:title=" ">
<polygon fill="#e0e0e0" stroke="#999999" points="842.88,-74.5 787.12,-74.5 787.12,-55.25 842.88,-55.25 842.88,-74.5"/>
<text text-anchor="middle" x="815" y="-61" font-family="Helvetica,sans-Serif" font-size="10.00">algorithm</text>
</a>
</g>
</g>
<!-- Node33&#45;&gt;Node35 -->
<g id="edge46_Node000033_Node000035" class="edge">
<title>Node33&#45;&gt;Node35</title>
<g id="a_edge46_Node000033_Node000035"><a xlink:title=" ">
<path fill="none" stroke="#63b8ff" d="M774.09,-110.33C780.86,-102.98 790.72,-92.26 799.06,-83.19"/>
<polygon fill="#63b8ff" stroke="#63b8ff" points="801.51,-85.7 805.71,-75.97 796.36,-80.96 801.51,-85.7"/>
</a>
</g>
</g>
<!-- Node36&#45;&gt;Node10 -->
<g id="edge49_Node000036_Node000010" class="edge">
<title>Node36&#45;&gt;Node10</title>
<g id="a_edge49_Node000036_Node000010"><a xlink:title=" ">
<path fill="none" stroke="#63b8ff" d="M1228.18,-54.83C1265.42,-46.83 1320.88,-34.5 1377.76,-19.71"/>
<polygon fill="#63b8ff" stroke="#63b8ff" points="1378.52,-23.13 1387.3,-17.21 1376.74,-16.36 1378.52,-23.13"/>
</a>
</g>
</g>
<!-- Node37&#45;&gt;Node10 -->
<g id="edge51_Node000037_Node000010" class="edge">
<title>Node37&#45;&gt;Node10</title>
<g id="a_edge51_Node000037_Node000010"><a xlink:title=" ">
<path fill="none" stroke="#63b8ff" d="M1274.05,-110.31C1270.2,-97.01 1265.23,-71.65 1277,-55.25 1280.07,-50.97 1340.15,-31.83 1378.18,-20.05"/>
<polygon fill="#63b8ff" stroke="#63b8ff" points="1378.76,-23.54 1387.28,-17.25 1376.69,-16.85 1378.76,-23.54"/>
</a>
</g>
</g>
<!-- Node38 -->
<g id="Node000038" class="node">
<title>Node38</title>
<g id="a_Node000038"><a xlink:title=" ">
<polygon fill="#e0e0e0" stroke="#999999" points="1353.88,-74.5 1286.12,-74.5 1286.12,-55.25 1353.88,-55.25 1353.88,-74.5"/>
<text text-anchor="middle" x="1320" y="-61" font-family="Helvetica,sans-Serif" font-size="10.00">TDirectory.h</text>
</a>
</g>
</g>
<!-- Node37&#45;&gt;Node38 -->
<g id="edge52_Node000037_Node000038" class="edge">
<title>Node37&#45;&gt;Node38</title>
<g id="a_edge52_Node000037_Node000038"><a xlink:title=" ">
<path fill="none" stroke="#63b8ff" d="M1284.1,-110.33C1289.92,-103.13 1298.33,-92.71 1305.56,-83.76"/>
<polygon fill="#63b8ff" stroke="#63b8ff" points="1308.23,-86.02 1311.79,-76.04 1302.79,-81.62 1308.23,-86.02"/>
</a>
</g>
</g>
<!-- Node39 -->
<g id="Node000039" class="node">
<title>Node39</title>
<g id="a_Node000039"><a xlink:title=" ">
<polygon fill="#e0e0e0" stroke="#999999" points="1414.12,-74.5 1371.88,-74.5 1371.88,-55.25 1414.12,-55.25 1414.12,-74.5"/>
<text text-anchor="middle" x="1393" y="-61" font-family="Helvetica,sans-Serif" font-size="10.00">TH2.h</text>
</a>
</g>
</g>
<!-- Node37&#45;&gt;Node39 -->
<g id="edge53_Node000037_Node000039" class="edge">
<title>Node37&#45;&gt;Node39</title>
<g id="a_edge53_Node000037_Node000039"><a xlink:title=" ">
<path fill="none" stroke="#63b8ff" d="M1296.68,-110.09C1314.84,-101.75 1342.08,-89.25 1362.97,-79.66"/>
<polygon fill="#63b8ff" stroke="#63b8ff" points="1364.22,-82.94 1371.85,-75.58 1361.3,-76.58 1364.22,-82.94"/>
</a>
</g>
</g>
</g>
</svg>
