<?xml version="1.0" encoding="UTF-8" standalone="no"?>
<!DOCTYPE svg PUBLIC "-//W3C//DTD SVG 1.1//EN"
 "http://www.w3.org/Graphics/SVG/1.1/DTD/svg11.dtd">
<!-- Generated by graphviz version 12.2.0 (20241103.1931)
 -->
<!-- Title: THILFragment.cxx Pages: 1 -->
<svg width="1869pt" height="414pt"
 viewBox="0.00 0.00 1869.25 414.00" xmlns="http://www.w3.org/2000/svg" xmlns:xlink="http://www.w3.org/1999/xlink">
<g id="graph0" class="graph" transform="scale(1 1) rotate(0) translate(4 410)">
<title>THILFragment.cxx</title>
<!-- Node1 -->
<g id="Node000001" class="node">
<title>Node1</title>
<g id="a_Node000001"><a xlink:title=" ">
<polygon fill="#999999" stroke="#666666" points="714.38,-406 618.12,-406 618.12,-386.75 714.38,-386.75 714.38,-406"/>
<text text-anchor="middle" x="666.25" y="-392.5" font-family="Helvetica,sans-Serif" font-size="10.00">THILFragment.cxx</text>
</a>
</g>
</g>
<!-- Node2 -->
<g id="Node000002" class="node">
<title>Node2</title>
<g id="a_Node000002"><a xlink:href="_t_h_i_l_fragment_8h.html" target="_top" xlink:title=" ">
<polygon fill="white" stroke="#666666" points="980.88,-350.75 893.62,-350.75 893.62,-331.5 980.88,-331.5 980.88,-350.75"/>
<text text-anchor="middle" x="937.25" y="-337.25" font-family="Helvetica,sans-Serif" font-size="10.00">THILFragment.h</text>
</a>
</g>
</g>
<!-- Node1&#45;&gt;Node2 -->
<g id="edge1_Node000001_Node000002" class="edge">
<title>Node1&#45;&gt;Node2</title>
<g id="a_edge1_Node000001_Node000002"><a xlink:title=" ">
<path fill="none" stroke="#63b8ff" d="M712.53,-386.28C759.51,-377.05 832.26,-362.76 882.18,-352.95"/>
<polygon fill="#63b8ff" stroke="#63b8ff" points="882.78,-356.39 891.92,-351.03 881.43,-349.53 882.78,-356.39"/>
</a>
</g>
</g>
<!-- Node25 -->
<g id="Node000025" class="node">
<title>Node25</title>
<g id="a_Node000025"><a xlink:href="_globals_8h.html" target="_top" xlink:title=" ">
<polygon fill="white" stroke="#666666" points="494.5,-74.5 438,-74.5 438,-55.25 494.5,-55.25 494.5,-74.5"/>
<text text-anchor="middle" x="466.25" y="-61" font-family="Helvetica,sans-Serif" font-size="10.00">Globals.h</text>
</a>
</g>
</g>
<!-- Node1&#45;&gt;Node25 -->
<g id="edge61_Node000001_Node000025" class="edge">
<title>Node1&#45;&gt;Node25</title>
<g id="a_edge61_Node000001_Node000025"><a xlink:title=" ">
<path fill="none" stroke="#63b8ff" d="M618.05,-389.18C561.47,-378.9 475.25,-352.47 475.25,-286.88 475.25,-286.88 475.25,-286.88 475.25,-174.38 475.25,-143.55 471.6,-107.97 468.95,-86.2"/>
<polygon fill="#63b8ff" stroke="#63b8ff" points="472.43,-85.84 467.69,-76.36 465.48,-86.72 472.43,-85.84"/>
</a>
</g>
</g>
<!-- Node3 -->
<g id="Node000003" class="node">
<title>Node3</title>
<g id="a_Node000003"><a xlink:title=" ">
<polygon fill="#e0e0e0" stroke="#999999" points="1831.75,-74.5 1788.75,-74.5 1788.75,-55.25 1831.75,-55.25 1831.75,-74.5"/>
<text text-anchor="middle" x="1810.25" y="-61" font-family="Helvetica,sans-Serif" font-size="10.00">vector</text>
</a>
</g>
</g>
<!-- Node2&#45;&gt;Node3 -->
<g id="edge2_Node000002_Node000003" class="edge">
<title>Node2&#45;&gt;Node3</title>
<g id="a_edge2_Node000002_Node000003"><a xlink:title=" ">
<path fill="none" stroke="#63b8ff" d="M981.19,-339.64C1164.82,-337.07 1861.25,-321.37 1861.25,-231.62 1861.25,-231.62 1861.25,-231.62 1861.25,-174.38 1861.25,-139.83 1839.82,-104.48 1824.74,-83.88"/>
<polygon fill="#63b8ff" stroke="#63b8ff" points="1827.55,-81.8 1818.69,-75.98 1821.99,-86.05 1827.55,-81.8"/>
</a>
</g>
</g>
<!-- Node4 -->
<g id="Node000004" class="node">
<title>Node4</title>
<g id="a_Node000004"><a xlink:href="_t_fragment_8h.html" target="_top" xlink:title=" ">
<polygon fill="white" stroke="#666666" points="972.62,-295.5 901.88,-295.5 901.88,-276.25 972.62,-276.25 972.62,-295.5"/>
<text text-anchor="middle" x="937.25" y="-282" font-family="Helvetica,sans-Serif" font-size="10.00">TFragment.h</text>
</a>
</g>
</g>
<!-- Node2&#45;&gt;Node4 -->
<g id="edge3_Node000002_Node000004" class="edge">
<title>Node2&#45;&gt;Node4</title>
<g id="a_edge3_Node000002_Node000004"><a xlink:title=" ">
<path fill="none" stroke="#63b8ff" d="M937.25,-331.33C937.25,-324.82 937.25,-315.67 937.25,-307.37"/>
<polygon fill="#63b8ff" stroke="#63b8ff" points="940.75,-307.37 937.25,-297.37 933.75,-307.37 940.75,-307.37"/>
</a>
</g>
</g>
<!-- Node4&#45;&gt;Node3 -->
<g id="edge58_Node000004_Node000003" class="edge">
<title>Node4&#45;&gt;Node3</title>
<g id="a_edge58_Node000004_Node000003"><a xlink:title=" ">
<path fill="none" stroke="#63b8ff" d="M973.08,-281.62C1073.63,-272.03 1366.63,-241 1604.25,-185 1681.58,-166.78 1712.77,-180.07 1774.25,-129.75 1788.41,-118.16 1798.02,-99.45 1803.72,-85.26"/>
<polygon fill="#63b8ff" stroke="#63b8ff" points="1806.93,-86.68 1807.09,-76.09 1800.36,-84.27 1806.93,-86.68"/>
</a>
</g>
</g>
<!-- Node5 -->
<g id="Node000005" class="node">
<title>Node5</title>
<g id="a_Node000005"><a xlink:href="_t_detector_hit_8h.html" target="_top" xlink:title=" ">
<polygon fill="white" stroke="#666666" points="1156.75,-240.25 1077.75,-240.25 1077.75,-221 1156.75,-221 1156.75,-240.25"/>
<text text-anchor="middle" x="1117.25" y="-226.75" font-family="Helvetica,sans-Serif" font-size="10.00">TDetectorHit.h</text>
</a>
</g>
</g>
<!-- Node4&#45;&gt;Node5 -->
<g id="edge4_Node000004_Node000005" class="edge">
<title>Node4&#45;&gt;Node5</title>
<g id="a_edge4_Node000004_Node000005"><a xlink:title=" ">
<path fill="none" stroke="#63b8ff" d="M967.78,-275.84C997.52,-267.04 1042.94,-253.61 1075.9,-243.86"/>
<polygon fill="#63b8ff" stroke="#63b8ff" points="1076.52,-247.32 1085.11,-241.13 1074.53,-240.61 1076.52,-247.32"/>
</a>
</g>
</g>
<!-- Node19 -->
<g id="Node000019" class="node">
<title>Node19</title>
<g id="a_Node000019"><a xlink:title=" ">
<polygon fill="#e0e0e0" stroke="#999999" points="996,-185 942.5,-185 942.5,-165.75 996,-165.75 996,-185"/>
<text text-anchor="middle" x="969.25" y="-171.5" font-family="Helvetica,sans-Serif" font-size="10.00">Rtypes.h</text>
</a>
</g>
</g>
<!-- Node4&#45;&gt;Node19 -->
<g id="edge60_Node000004_Node000019" class="edge">
<title>Node4&#45;&gt;Node19</title>
<g id="a_edge60_Node000004_Node000019"><a xlink:title=" ">
<path fill="none" stroke="#63b8ff" d="M939.87,-276C944.98,-258.67 956.39,-219.98 963.39,-196.24"/>
<polygon fill="#63b8ff" stroke="#63b8ff" points="966.7,-197.41 966.17,-186.83 959.98,-195.43 966.7,-197.41"/>
</a>
</g>
</g>
<!-- Node21 -->
<g id="Node000021" class="node">
<title>Node21</title>
<g id="a_Node000021"><a xlink:href="_t_p_p_g_8h.html" target="_top" xlink:title=" ">
<polygon fill="white" stroke="#666666" points="863.5,-185 813,-185 813,-165.75 863.5,-165.75 863.5,-185"/>
<text text-anchor="middle" x="838.25" y="-171.5" font-family="Helvetica,sans-Serif" font-size="10.00">TPPG.h</text>
</a>
</g>
</g>
<!-- Node4&#45;&gt;Node21 -->
<g id="edge56_Node000004_Node000021" class="edge">
<title>Node4&#45;&gt;Node21</title>
<g id="a_edge56_Node000004_Node000021"><a xlink:title=" ">
<path fill="none" stroke="#63b8ff" d="M929.15,-276C912.76,-258.03 875.42,-217.11 854.04,-193.69"/>
<polygon fill="#63b8ff" stroke="#63b8ff" points="856.81,-191.52 847.48,-186.49 851.64,-196.24 856.81,-191.52"/>
</a>
</g>
</g>
<!-- Node23 -->
<g id="Node000023" class="node">
<title>Node23</title>
<g id="a_Node000023"><a xlink:title=" ">
<polygon fill="#e0e0e0" stroke="#999999" points="946,-19.25 892.5,-19.25 892.5,0 946,0 946,-19.25"/>
<text text-anchor="middle" x="919.25" y="-5.75" font-family="Helvetica,sans-Serif" font-size="10.00">iostream</text>
</a>
</g>
</g>
<!-- Node4&#45;&gt;Node23 -->
<g id="edge57_Node000004_Node000023" class="edge">
<title>Node4&#45;&gt;Node23</title>
<g id="a_edge57_Node000004_Node000023"><a xlink:title=" ">
<path fill="none" stroke="#63b8ff" d="M936.76,-275.79C935.85,-258.25 933.92,-218.49 933.25,-185 933.25,-185 933.25,-55.25 933.25,-55.25 931.98,-46.93 929.44,-38.03 926.87,-30.38"/>
<polygon fill="#63b8ff" stroke="#63b8ff" points="930.2,-29.29 923.5,-21.08 923.61,-31.68 930.2,-29.29"/>
</a>
</g>
</g>
<!-- Node46 -->
<g id="Node000046" class="node">
<title>Node46</title>
<g id="a_Node000046"><a xlink:title=" ">
<polygon fill="#e0e0e0" stroke="#999999" points="848.25,-240.25 808.25,-240.25 808.25,-221 848.25,-221 848.25,-240.25"/>
<text text-anchor="middle" x="828.25" y="-226.75" font-family="Helvetica,sans-Serif" font-size="10.00">ctime</text>
</a>
</g>
</g>
<!-- Node4&#45;&gt;Node46 -->
<g id="edge59_Node000004_Node000046" class="edge">
<title>Node4&#45;&gt;Node46</title>
<g id="a_edge59_Node000004_Node000046"><a xlink:title=" ">
<path fill="none" stroke="#63b8ff" d="M918.76,-275.84C901.85,-267.58 876.56,-255.23 857.01,-245.68"/>
<polygon fill="#63b8ff" stroke="#63b8ff" points="858.71,-242.61 848.19,-241.37 855.64,-248.9 858.71,-242.61"/>
</a>
</g>
</g>
<!-- Node5&#45;&gt;Node3 -->
<g id="edge5_Node000005_Node000003" class="edge">
<title>Node5&#45;&gt;Node3</title>
<g id="a_edge5_Node000005_Node000003"><a xlink:title=" ">
<path fill="none" stroke="#63b8ff" d="M1156.83,-226.98C1278.61,-218.28 1645.67,-187.76 1748.25,-129.75 1768.36,-118.38 1786.13,-98.5 1797.43,-83.94"/>
<polygon fill="#63b8ff" stroke="#63b8ff" points="1800.11,-86.2 1803.27,-76.08 1794.49,-82.02 1800.11,-86.2"/>
</a>
</g>
</g>
<!-- Node6 -->
<g id="Node000006" class="node">
<title>Node6</title>
<g id="a_Node000006"><a xlink:href="_t_channel_8h.html" target="_top" xlink:title=" ">
<polygon fill="white" stroke="#666666" points="1337.62,-185 1272.88,-185 1272.88,-165.75 1337.62,-165.75 1337.62,-185"/>
<text text-anchor="middle" x="1305.25" y="-171.5" font-family="Helvetica,sans-Serif" font-size="10.00">TChannel.h</text>
</a>
</g>
</g>
<!-- Node5&#45;&gt;Node6 -->
<g id="edge6_Node000005_Node000006" class="edge">
<title>Node5&#45;&gt;Node6</title>
<g id="a_edge6_Node000005_Node000006"><a xlink:title=" ">
<path fill="none" stroke="#63b8ff" d="M1149.14,-220.59C1180.34,-211.76 1228.05,-198.24 1262.51,-188.48"/>
<polygon fill="#63b8ff" stroke="#63b8ff" points="1263.08,-191.96 1271.75,-185.86 1261.17,-185.22 1263.08,-191.96"/>
</a>
</g>
</g>
<!-- Node17 -->
<g id="Node000017" class="node">
<title>Node17</title>
<g id="a_Node000017"><a xlink:title=" ">
<polygon fill="#e0e0e0" stroke="#999999" points="1501.88,-185 1438.62,-185 1438.62,-165.75 1501.88,-165.75 1501.88,-185"/>
<text text-anchor="middle" x="1470.25" y="-171.5" font-family="Helvetica,sans-Serif" font-size="10.00">TVector3.h</text>
</a>
</g>
</g>
<!-- Node5&#45;&gt;Node17 -->
<g id="edge19_Node000005_Node000017" class="edge">
<title>Node5&#45;&gt;Node17</title>
<g id="a_edge19_Node000005_Node000017"><a xlink:title=" ">
<path fill="none" stroke="#63b8ff" d="M1156.92,-224.88C1214.39,-217.82 1324.37,-203.54 1427.2,-185.45"/>
<polygon fill="#63b8ff" stroke="#63b8ff" points="1427.69,-188.91 1436.92,-183.72 1426.46,-182.02 1427.69,-188.91"/>
</a>
</g>
</g>
<!-- Node18 -->
<g id="Node000018" class="node">
<title>Node18</title>
<g id="a_Node000018"><a xlink:title=" ">
<polygon fill="#e0e0e0" stroke="#999999" points="924.25,-74.5 866.25,-74.5 866.25,-55.25 924.25,-55.25 924.25,-74.5"/>
<text text-anchor="middle" x="895.25" y="-61" font-family="Helvetica,sans-Serif" font-size="10.00">TObject.h</text>
</a>
</g>
</g>
<!-- Node5&#45;&gt;Node18 -->
<g id="edge20_Node000005_Node000018" class="edge">
<title>Node5&#45;&gt;Node18</title>
<g id="a_edge20_Node000005_Node000018"><a xlink:title=" ">
<path fill="none" stroke="#63b8ff" d="M1103.24,-220.71C1076.86,-203.76 1018.21,-165.41 971.25,-129.75 951.02,-114.39 928.89,-95.54 913.75,-82.31"/>
<polygon fill="#63b8ff" stroke="#63b8ff" points="916.27,-79.86 906.45,-75.88 911.64,-85.12 916.27,-79.86"/>
</a>
</g>
</g>
<!-- Node5&#45;&gt;Node19 -->
<g id="edge21_Node000005_Node000019" class="edge">
<title>Node5&#45;&gt;Node19</title>
<g id="a_edge21_Node000005_Node000019"><a xlink:title=" ">
<path fill="none" stroke="#63b8ff" d="M1092.14,-220.59C1068.22,-211.99 1031.97,-198.94 1005.03,-189.25"/>
<polygon fill="#63b8ff" stroke="#63b8ff" points="1006.5,-186.06 995.9,-185.96 1004.13,-192.64 1006.5,-186.06"/>
</a>
</g>
</g>
<!-- Node20 -->
<g id="Node000020" class="node">
<title>Node20</title>
<g id="a_Node000020"><a xlink:title=" ">
<polygon fill="#e0e0e0" stroke="#999999" points="1421,-185 1355.5,-185 1355.5,-165.75 1421,-165.75 1421,-185"/>
<text text-anchor="middle" x="1388.25" y="-171.5" font-family="Helvetica,sans-Serif" font-size="10.00">TRandom.h</text>
</a>
</g>
</g>
<!-- Node5&#45;&gt;Node20 -->
<g id="edge22_Node000005_Node000020" class="edge">
<title>Node5&#45;&gt;Node20</title>
<g id="a_edge22_Node000005_Node000020"><a xlink:title=" ">
<path fill="none" stroke="#63b8ff" d="M1156.99,-222.01C1200.45,-213.65 1272.45,-199.72 1344.2,-185.39"/>
<polygon fill="#63b8ff" stroke="#63b8ff" points="1344.64,-188.88 1353.76,-183.48 1343.27,-182.01 1344.64,-188.88"/>
</a>
</g>
</g>
<!-- Node5&#45;&gt;Node21 -->
<g id="edge23_Node000005_Node000021" class="edge">
<title>Node5&#45;&gt;Node21</title>
<g id="a_edge23_Node000005_Node000021"><a xlink:title=" ">
<path fill="none" stroke="#63b8ff" d="M1077.28,-222C1023.2,-211.68 927.51,-193.41 875.1,-183.41"/>
<polygon fill="#63b8ff" stroke="#63b8ff" points="875.95,-180.01 865.47,-181.57 874.64,-186.88 875.95,-180.01"/>
</a>
</g>
</g>
<!-- Node44 -->
<g id="Node000044" class="node">
<title>Node44</title>
<g id="a_Node000044"><a xlink:href="_t_transient_bits_8h.html" target="_top" xlink:title=" ">
<polygon fill="white" stroke="#666666" points="1160.88,-185 1073.62,-185 1073.62,-165.75 1160.88,-165.75 1160.88,-185"/>
<text text-anchor="middle" x="1117.25" y="-171.5" font-family="Helvetica,sans-Serif" font-size="10.00">TTransientBits.h</text>
</a>
</g>
</g>
<!-- Node5&#45;&gt;Node44 -->
<g id="edge53_Node000005_Node000044" class="edge">
<title>Node5&#45;&gt;Node44</title>
<g id="a_edge53_Node000005_Node000044"><a xlink:title=" ">
<path fill="none" stroke="#63b8ff" d="M1117.25,-220.83C1117.25,-214.32 1117.25,-205.17 1117.25,-196.87"/>
<polygon fill="#63b8ff" stroke="#63b8ff" points="1120.75,-196.87 1117.25,-186.87 1113.75,-196.87 1120.75,-196.87"/>
</a>
</g>
</g>
<!-- Node7 -->
<g id="Node000007" class="node">
<title>Node7</title>
<g id="a_Node000007"><a xlink:title=" ">
<polygon fill="#e0e0e0" stroke="#999999" points="1475.25,-19.25 1435.25,-19.25 1435.25,0 1475.25,0 1475.25,-19.25"/>
<text text-anchor="middle" x="1455.25" y="-5.75" font-family="Helvetica,sans-Serif" font-size="10.00">string</text>
</a>
</g>
</g>
<!-- Node6&#45;&gt;Node7 -->
<g id="edge7_Node000006_Node000007" class="edge">
<title>Node6&#45;&gt;Node7</title>
<g id="a_edge7_Node000006_Node000007"><a xlink:title=" ">
<path fill="none" stroke="#63b8ff" d="M1337.86,-167.17C1340.69,-166.65 1343.52,-166.16 1346.25,-165.75 1388.4,-159.35 1699.55,-161.28 1728.25,-129.75 1800.9,-49.93 1573.64,-21.08 1487.19,-13.15"/>
<polygon fill="#63b8ff" stroke="#63b8ff" points="1487.52,-9.66 1477.25,-12.28 1486.91,-16.64 1487.52,-9.66"/>
</a>
</g>
</g>
<!-- Node8 -->
<g id="Node000008" class="node">
<title>Node8</title>
<g id="a_Node000008"><a xlink:title=" ">
<polygon fill="#e0e0e0" stroke="#999999" points="1618.75,-129.75 1575.75,-129.75 1575.75,-110.5 1618.75,-110.5 1618.75,-129.75"/>
<text text-anchor="middle" x="1597.25" y="-116.25" font-family="Helvetica,sans-Serif" font-size="10.00">cmath</text>
</a>
</g>
</g>
<!-- Node6&#45;&gt;Node8 -->
<g id="edge8_Node000006_Node000008" class="edge">
<title>Node6&#45;&gt;Node8</title>
<g id="a_edge8_Node000006_Node000008"><a xlink:title=" ">
<path fill="none" stroke="#63b8ff" d="M1337.9,-167.37C1340.72,-166.8 1343.53,-166.26 1346.25,-165.75 1440.54,-148.16 1468.17,-151.27 1564.27,-130.21"/>
<polygon fill="#63b8ff" stroke="#63b8ff" points="1564.89,-133.66 1573.89,-128.07 1563.37,-126.83 1564.89,-133.66"/>
</a>
</g>
</g>
<!-- Node9 -->
<g id="Node000009" class="node">
<title>Node9</title>
<g id="a_Node000009"><a xlink:title=" ">
<polygon fill="#e0e0e0" stroke="#999999" points="1110.5,-129.75 1072,-129.75 1072,-110.5 1110.5,-110.5 1110.5,-129.75"/>
<text text-anchor="middle" x="1091.25" y="-116.25" font-family="Helvetica,sans-Serif" font-size="10.00">utility</text>
</a>
</g>
</g>
<!-- Node6&#45;&gt;Node9 -->
<g id="edge9_Node000006_Node000009" class="edge">
<title>Node6&#45;&gt;Node9</title>
<g id="a_edge9_Node000006_Node000009"><a xlink:title=" ">
<path fill="none" stroke="#63b8ff" d="M1272.75,-166.29C1231.78,-156.09 1161.87,-138.7 1121.83,-128.73"/>
<polygon fill="#63b8ff" stroke="#63b8ff" points="1122.92,-125.4 1112.37,-126.38 1121.23,-132.19 1122.92,-125.4"/>
</a>
</g>
</g>
<!-- Node10 -->
<g id="Node000010" class="node">
<title>Node10</title>
<g id="a_Node000010"><a xlink:title=" ">
<polygon fill="#e0e0e0" stroke="#999999" points="1719.62,-129.75 1636.88,-129.75 1636.88,-110.5 1719.62,-110.5 1719.62,-129.75"/>
<text text-anchor="middle" x="1678.25" y="-116.25" font-family="Helvetica,sans-Serif" font-size="10.00">unordered_map</text>
</a>
</g>
</g>
<!-- Node6&#45;&gt;Node10 -->
<g id="edge10_Node000006_Node000010" class="edge">
<title>Node6&#45;&gt;Node10</title>
<g id="a_edge10_Node000006_Node000010"><a xlink:title=" ">
<path fill="none" stroke="#63b8ff" d="M1337.88,-167.26C1340.7,-166.72 1343.52,-166.21 1346.25,-165.75 1467.31,-145.32 1501.39,-148.3 1625.45,-130.11"/>
<polygon fill="#63b8ff" stroke="#63b8ff" points="1625.66,-133.62 1635.03,-128.68 1624.63,-126.69 1625.66,-133.62"/>
</a>
</g>
</g>
<!-- Node11 -->
<g id="Node000011" class="node">
<title>Node11</title>
<g id="a_Node000011"><a xlink:title=" ">
<polygon fill="#e0e0e0" stroke="#999999" points="1227.75,-129.75 1166.75,-129.75 1166.75,-110.5 1227.75,-110.5 1227.75,-129.75"/>
<text text-anchor="middle" x="1197.25" y="-116.25" font-family="Helvetica,sans-Serif" font-size="10.00">TNamed.h</text>
</a>
</g>
</g>
<!-- Node6&#45;&gt;Node11 -->
<g id="edge11_Node000006_Node000011" class="edge">
<title>Node6&#45;&gt;Node11</title>
<g id="a_edge11_Node000006_Node000011"><a xlink:title=" ">
<path fill="none" stroke="#63b8ff" d="M1286.93,-165.34C1270.17,-157.08 1245.12,-144.73 1225.75,-135.18"/>
<polygon fill="#63b8ff" stroke="#63b8ff" points="1227.53,-132.15 1217.02,-130.87 1224.44,-138.43 1227.53,-132.15"/>
</a>
</g>
</g>
<!-- Node12 -->
<g id="Node000012" class="node">
<title>Node12</title>
<g id="a_Node000012"><a xlink:title=" ">
<polygon fill="#e0e0e0" stroke="#999999" points="1294.75,-129.75 1245.75,-129.75 1245.75,-110.5 1294.75,-110.5 1294.75,-129.75"/>
<text text-anchor="middle" x="1270.25" y="-116.25" font-family="Helvetica,sans-Serif" font-size="10.00">TTree.h</text>
</a>
</g>
</g>
<!-- Node6&#45;&gt;Node12 -->
<g id="edge12_Node000006_Node000012" class="edge">
<title>Node6&#45;&gt;Node12</title>
<g id="a_edge12_Node000006_Node000012"><a xlink:title=" ">
<path fill="none" stroke="#63b8ff" d="M1299.47,-165.58C1294.84,-158.53 1288.18,-148.4 1282.38,-139.58"/>
<polygon fill="#63b8ff" stroke="#63b8ff" points="1285.4,-137.81 1276.99,-131.37 1279.55,-141.65 1285.4,-137.81"/>
</a>
</g>
</g>
<!-- Node13 -->
<g id="Node000013" class="node">
<title>Node13</title>
<g id="a_Node000013"><a xlink:title=" ">
<polygon fill="#e0e0e0" stroke="#999999" points="1368.12,-129.75 1312.38,-129.75 1312.38,-110.5 1368.12,-110.5 1368.12,-129.75"/>
<text text-anchor="middle" x="1340.25" y="-116.25" font-family="Helvetica,sans-Serif" font-size="10.00">TGraph.h</text>
</a>
</g>
</g>
<!-- Node6&#45;&gt;Node13 -->
<g id="edge13_Node000006_Node000013" class="edge">
<title>Node6&#45;&gt;Node13</title>
<g id="a_edge13_Node000006_Node000013"><a xlink:title=" ">
<path fill="none" stroke="#63b8ff" d="M1311.03,-165.58C1315.66,-158.53 1322.32,-148.4 1328.12,-139.58"/>
<polygon fill="#63b8ff" stroke="#63b8ff" points="1330.95,-141.65 1333.51,-131.37 1325.1,-137.81 1330.95,-141.65"/>
</a>
</g>
</g>
<!-- Node14 -->
<g id="Node000014" class="node">
<title>Node14</title>
<g id="a_Node000014"><a xlink:title=" ">
<polygon fill="#e0e0e0" stroke="#999999" points="1557.88,-129.75 1488.62,-129.75 1488.62,-110.5 1557.88,-110.5 1557.88,-129.75"/>
<text text-anchor="middle" x="1523.25" y="-116.25" font-family="Helvetica,sans-Serif" font-size="10.00">TClassRef.h</text>
</a>
</g>
</g>
<!-- Node6&#45;&gt;Node14 -->
<g id="edge14_Node000006_Node000014" class="edge">
<title>Node6&#45;&gt;Node14</title>
<g id="a_edge14_Node000006_Node000014"><a xlink:title=" ">
<path fill="none" stroke="#63b8ff" d="M1337.89,-166.4C1374.88,-157.37 1435.46,-142.57 1477.24,-132.36"/>
<polygon fill="#63b8ff" stroke="#63b8ff" points="1477.87,-135.81 1486.75,-130.04 1476.21,-129.01 1477.87,-135.81"/>
</a>
</g>
</g>
<!-- Node15 -->
<g id="Node000015" class="node">
<title>Node15</title>
<g id="a_Node000015"><a xlink:href="_t_priority_value_8h.html" target="_top" xlink:title=" ">
<polygon fill="white" stroke="#666666" points="1470.38,-129.75 1386.12,-129.75 1386.12,-110.5 1470.38,-110.5 1470.38,-129.75"/>
<text text-anchor="middle" x="1428.25" y="-116.25" font-family="Helvetica,sans-Serif" font-size="10.00">TPriorityValue.h</text>
</a>
</g>
</g>
<!-- Node6&#45;&gt;Node15 -->
<g id="edge15_Node000006_Node000015" class="edge">
<title>Node6&#45;&gt;Node15</title>
<g id="a_edge15_Node000006_Node000015"><a xlink:title=" ">
<path fill="none" stroke="#63b8ff" d="M1326.12,-165.34C1345.55,-156.93 1374.79,-144.27 1397.01,-134.65"/>
<polygon fill="#63b8ff" stroke="#63b8ff" points="1398.11,-137.99 1405.89,-130.8 1395.33,-131.56 1398.11,-137.99"/>
</a>
</g>
</g>
<!-- Node15&#45;&gt;Node3 -->
<g id="edge18_Node000015_Node000003" class="edge">
<title>Node15&#45;&gt;Node3</title>
<g id="a_edge18_Node000015_Node000003"><a xlink:title=" ">
<path fill="none" stroke="#63b8ff" d="M1470.81,-111.82C1473.66,-111.36 1476.5,-110.92 1479.25,-110.5 1588.12,-93.96 1717.63,-77.4 1777.23,-69.95"/>
<polygon fill="#63b8ff" stroke="#63b8ff" points="1777.53,-73.44 1787.02,-68.73 1776.67,-66.5 1777.53,-73.44"/>
</a>
</g>
</g>
<!-- Node15&#45;&gt;Node7 -->
<g id="edge17_Node000015_Node000007" class="edge">
<title>Node15&#45;&gt;Node7</title>
<g id="a_edge17_Node000015_Node000007"><a xlink:title=" ">
<path fill="none" stroke="#63b8ff" d="M1430.46,-110.25C1434.77,-92.92 1444.4,-54.23 1450.31,-30.49"/>
<polygon fill="#63b8ff" stroke="#63b8ff" points="1453.63,-31.64 1452.64,-21.1 1446.83,-29.95 1453.63,-31.64"/>
</a>
</g>
</g>
<!-- Node16 -->
<g id="Node000016" class="node">
<title>Node16</title>
<g id="a_Node000016"><a xlink:title=" ">
<polygon fill="#e0e0e0" stroke="#999999" points="1426.88,-74.5 1375.62,-74.5 1375.62,-55.25 1426.88,-55.25 1426.88,-74.5"/>
<text text-anchor="middle" x="1401.25" y="-61" font-family="Helvetica,sans-Serif" font-size="10.00">ostream</text>
</a>
</g>
</g>
<!-- Node15&#45;&gt;Node16 -->
<g id="edge16_Node000015_Node000016" class="edge">
<title>Node15&#45;&gt;Node16</title>
<g id="a_edge16_Node000015_Node000016"><a xlink:title=" ">
<path fill="none" stroke="#63b8ff" d="M1423.79,-110.33C1420.3,-103.44 1415.3,-93.59 1410.9,-84.91"/>
<polygon fill="#63b8ff" stroke="#63b8ff" points="1414.13,-83.55 1406.49,-76.21 1407.89,-86.71 1414.13,-83.55"/>
</a>
</g>
</g>
<!-- Node21&#45;&gt;Node9 -->
<g id="edge25_Node000021_Node000009" class="edge">
<title>Node21&#45;&gt;Node9</title>
<g id="a_edge25_Node000021_Node000009"><a xlink:title=" ">
<path fill="none" stroke="#63b8ff" d="M863.75,-170.2C903.78,-163.46 983.99,-149.19 1060.91,-130.14"/>
<polygon fill="#63b8ff" stroke="#63b8ff" points="1061.43,-133.62 1070.27,-127.78 1059.72,-126.83 1061.43,-133.62"/>
</a>
</g>
</g>
<!-- Node21&#45;&gt;Node18 -->
<g id="edge27_Node000021_Node000018" class="edge">
<title>Node21&#45;&gt;Node18</title>
<g id="a_edge27_Node000021_Node000018"><a xlink:title=" ">
<path fill="none" stroke="#63b8ff" d="M842.91,-165.5C852.14,-147.93 872.9,-108.41 885.33,-84.77"/>
<polygon fill="#63b8ff" stroke="#63b8ff" points="888.26,-86.7 889.82,-76.22 882.07,-83.44 888.26,-86.7"/>
</a>
</g>
</g>
<!-- Node22 -->
<g id="Node000022" class="node">
<title>Node22</title>
<g id="a_Node000022"><a xlink:title=" ">
<polygon fill="#e0e0e0" stroke="#999999" points="714.62,-129.75 679.88,-129.75 679.88,-110.5 714.62,-110.5 714.62,-129.75"/>
<text text-anchor="middle" x="697.25" y="-116.25" font-family="Helvetica,sans-Serif" font-size="10.00">map</text>
</a>
</g>
</g>
<!-- Node21&#45;&gt;Node22 -->
<g id="edge24_Node000021_Node000022" class="edge">
<title>Node21&#45;&gt;Node22</title>
<g id="a_edge24_Node000021_Node000022"><a xlink:title=" ">
<path fill="none" stroke="#63b8ff" d="M814.33,-165.34C789.83,-156.09 751.74,-141.7 725.7,-131.87"/>
<polygon fill="#63b8ff" stroke="#63b8ff" points="727.03,-128.63 716.44,-128.37 724.56,-135.18 727.03,-128.63"/>
</a>
</g>
</g>
<!-- Node21&#45;&gt;Node23 -->
<g id="edge26_Node000021_Node000023" class="edge">
<title>Node21&#45;&gt;Node23</title>
<g id="a_edge26_Node000021_Node000023"><a xlink:title=" ">
<path fill="none" stroke="#63b8ff" d="M837.47,-165.52C836.05,-144.61 835.05,-91.26 857.25,-55.25 865.03,-42.64 877.82,-32.54 889.78,-25.15"/>
<polygon fill="#63b8ff" stroke="#63b8ff" points="891.24,-28.35 898.18,-20.35 887.76,-22.28 891.24,-28.35"/>
</a>
</g>
</g>
<!-- Node24 -->
<g id="Node000024" class="node">
<title>Node24</title>
<g id="a_Node000024"><a xlink:title=" ">
<polygon fill="#e0e0e0" stroke="#999999" points="661.38,-129.75 589.12,-129.75 589.12,-110.5 661.38,-110.5 661.38,-129.75"/>
<text text-anchor="middle" x="625.25" y="-116.25" font-family="Helvetica,sans-Serif" font-size="10.00">TCollection.h</text>
</a>
</g>
</g>
<!-- Node21&#45;&gt;Node24 -->
<g id="edge28_Node000021_Node000024" class="edge">
<title>Node21&#45;&gt;Node24</title>
<g id="a_edge28_Node000021_Node000024"><a xlink:title=" ">
<path fill="none" stroke="#63b8ff" d="M812.56,-167.95C778.02,-159.32 715.99,-143.81 672.82,-133.02"/>
<polygon fill="#63b8ff" stroke="#63b8ff" points="673.74,-129.64 663.19,-130.61 672.05,-136.43 673.74,-129.64"/>
</a>
</g>
</g>
<!-- Node21&#45;&gt;Node25 -->
<g id="edge29_Node000021_Node000025" class="edge">
<title>Node21&#45;&gt;Node25</title>
<g id="a_edge29_Node000021_Node000025"><a xlink:title=" ">
<path fill="none" stroke="#63b8ff" d="M812.62,-172.82C765.42,-169.34 662.07,-158.79 580.25,-129.75 546.29,-117.7 510.58,-96.01 488.37,-81.28"/>
<polygon fill="#63b8ff" stroke="#63b8ff" points="490.39,-78.43 480.15,-75.73 486.47,-84.23 490.39,-78.43"/>
</a>
</g>
</g>
<!-- Node39 -->
<g id="Node000039" class="node">
<title>Node39</title>
<g id="a_Node000039"><a xlink:href="_t_singleton_8h.html" target="_top" xlink:title=" ">
<polygon fill="white" stroke="#666666" points="802.25,-129.75 732.25,-129.75 732.25,-110.5 802.25,-110.5 802.25,-129.75"/>
<text text-anchor="middle" x="767.25" y="-116.25" font-family="Helvetica,sans-Serif" font-size="10.00">TSingleton.h</text>
</a>
</g>
</g>
<!-- Node21&#45;&gt;Node39 -->
<g id="edge45_Node000021_Node000039" class="edge">
<title>Node21&#45;&gt;Node39</title>
<g id="a_edge45_Node000021_Node000039"><a xlink:title=" ">
<path fill="none" stroke="#63b8ff" d="M826.21,-165.34C815.84,-157.57 800.65,-146.17 788.28,-136.9"/>
<polygon fill="#63b8ff" stroke="#63b8ff" points="790.43,-134.13 780.33,-130.93 786.23,-139.73 790.43,-134.13"/>
</a>
</g>
</g>
<!-- Node25&#45;&gt;Node7 -->
<g id="edge33_Node000025_Node000007" class="edge">
<title>Node25&#45;&gt;Node7</title>
<g id="a_edge33_Node000025_Node000007"><a xlink:title=" ">
<path fill="none" stroke="#63b8ff" d="M494.84,-56.67C497.67,-56.12 500.51,-55.63 503.25,-55.25 686.98,-29.75 1279.15,-14.69 1423.36,-11.34"/>
<polygon fill="#63b8ff" stroke="#63b8ff" points="1423.38,-14.84 1433.3,-11.11 1423.22,-7.84 1423.38,-14.84"/>
</a>
</g>
</g>
<!-- Node25&#45;&gt;Node23 -->
<g id="edge30_Node000025_Node000023" class="edge">
<title>Node25&#45;&gt;Node23</title>
<g id="a_edge30_Node000025_Node000023"><a xlink:title=" ">
<path fill="none" stroke="#63b8ff" d="M494.86,-56.8C497.68,-56.23 500.52,-55.7 503.25,-55.25 667.51,-28.47 714.55,-46.85 881.06,-19.57"/>
<polygon fill="#63b8ff" stroke="#63b8ff" points="881.42,-23.06 890.71,-17.96 880.27,-16.16 881.42,-23.06"/>
</a>
</g>
</g>
<!-- Node26 -->
<g id="Node000026" class="node">
<title>Node26</title>
<g id="a_Node000026"><a xlink:title=" ">
<polygon fill="#e0e0e0" stroke="#999999" points="675.12,-19.25 625.38,-19.25 625.38,0 675.12,0 675.12,-19.25"/>
<text text-anchor="middle" x="650.25" y="-5.75" font-family="Helvetica,sans-Serif" font-size="10.00">iomanip</text>
</a>
</g>
</g>
<!-- Node25&#45;&gt;Node26 -->
<g id="edge31_Node000025_Node000026" class="edge">
<title>Node25&#45;&gt;Node26</title>
<g id="a_edge31_Node000025_Node000026"><a xlink:title=" ">
<path fill="none" stroke="#63b8ff" d="M495,-55.55C527.19,-46.24 579.42,-31.12 614.29,-21.03"/>
<polygon fill="#63b8ff" stroke="#63b8ff" points="614.87,-24.51 623.5,-18.37 612.92,-17.78 614.87,-24.51"/>
</a>
</g>
</g>
<!-- Node27 -->
<g id="Node000027" class="node">
<title>Node27</title>
<g id="a_Node000027"><a xlink:title=" ">
<polygon fill="#e0e0e0" stroke="#999999" points="751.25,-19.25 693.25,-19.25 693.25,0 751.25,0 751.25,-19.25"/>
<text text-anchor="middle" x="722.25" y="-5.75" font-family="Helvetica,sans-Serif" font-size="10.00">stdexcept</text>
</a>
</g>
</g>
<!-- Node25&#45;&gt;Node27 -->
<g id="edge32_Node000025_Node000027" class="edge">
<title>Node25&#45;&gt;Node27</title>
<g id="a_edge32_Node000025_Node000027"><a xlink:title=" ">
<path fill="none" stroke="#63b8ff" d="M494.91,-57.1C497.73,-56.46 500.54,-55.83 503.25,-55.25 579.98,-38.68 602.15,-36.5 681.73,-19.74"/>
<polygon fill="#63b8ff" stroke="#63b8ff" points="682.27,-23.2 691.33,-17.7 680.82,-16.35 682.27,-23.2"/>
</a>
</g>
</g>
<!-- Node28 -->
<g id="Node000028" class="node">
<title>Node28</title>
<g id="a_Node000028"><a xlink:title=" ">
<polygon fill="#e0e0e0" stroke="#999999" points="811.38,-19.25 769.12,-19.25 769.12,0 811.38,0 811.38,-19.25"/>
<text text-anchor="middle" x="790.25" y="-5.75" font-family="Helvetica,sans-Serif" font-size="10.00">cstdio</text>
</a>
</g>
</g>
<!-- Node25&#45;&gt;Node28 -->
<g id="edge34_Node000025_Node000028" class="edge">
<title>Node25&#45;&gt;Node28</title>
<g id="a_edge34_Node000025_Node000028"><a xlink:title=" ">
<path fill="none" stroke="#63b8ff" d="M494.88,-56.93C497.7,-56.33 500.53,-55.76 503.25,-55.25 613.1,-34.8 645.43,-42.7 757.6,-19.55"/>
<polygon fill="#63b8ff" stroke="#63b8ff" points="758.17,-23.01 767.23,-17.52 756.72,-16.16 758.17,-23.01"/>
</a>
</g>
</g>
<!-- Node29 -->
<g id="Node000029" class="node">
<title>Node29</title>
<g id="a_Node000029"><a xlink:title=" ">
<polygon fill="#e0e0e0" stroke="#999999" points="874.88,-19.25 829.62,-19.25 829.62,0 874.88,0 874.88,-19.25"/>
<text text-anchor="middle" x="852.25" y="-5.75" font-family="Helvetica,sans-Serif" font-size="10.00">cstdint</text>
</a>
</g>
</g>
<!-- Node25&#45;&gt;Node29 -->
<g id="edge35_Node000025_Node000029" class="edge">
<title>Node25&#45;&gt;Node29</title>
<g id="a_edge35_Node000025_Node000029"><a xlink:title=" ">
<path fill="none" stroke="#63b8ff" d="M494.87,-56.86C497.69,-56.27 500.52,-55.72 503.25,-55.25 639.43,-31.73 678.96,-45.06 818.19,-19.35"/>
<polygon fill="#63b8ff" stroke="#63b8ff" points="818.61,-22.83 827.79,-17.54 817.31,-15.95 818.61,-22.83"/>
</a>
</g>
</g>
<!-- Node30 -->
<g id="Node000030" class="node">
<title>Node30</title>
<g id="a_Node000030"><a xlink:title=" ">
<polygon fill="#e0e0e0" stroke="#999999" points="44.5,-19.25 0,-19.25 0,0 44.5,0 44.5,-19.25"/>
<text text-anchor="middle" x="22.25" y="-5.75" font-family="Helvetica,sans-Serif" font-size="10.00">cstdlib</text>
</a>
</g>
</g>
<!-- Node25&#45;&gt;Node30 -->
<g id="edge36_Node000025_Node000030" class="edge">
<title>Node25&#45;&gt;Node30</title>
<g id="a_edge36_Node000025_Node000030"><a xlink:title=" ">
<path fill="none" stroke="#63b8ff" d="M437.72,-62.4C371.96,-58.67 204.59,-47.23 55.96,-19.48"/>
<polygon fill="#63b8ff" stroke="#63b8ff" points="56.8,-16.08 46.32,-17.65 55.49,-22.96 56.8,-16.08"/>
</a>
</g>
</g>
<!-- Node31 -->
<g id="Node000031" class="node">
<title>Node31</title>
<g id="a_Node000031"><a xlink:title=" ">
<polygon fill="#e0e0e0" stroke="#999999" points="122,-19.25 62.5,-19.25 62.5,0 122,0 122,-19.25"/>
<text text-anchor="middle" x="92.25" y="-5.75" font-family="Helvetica,sans-Serif" font-size="10.00">execinfo.h</text>
</a>
</g>
</g>
<!-- Node25&#45;&gt;Node31 -->
<g id="edge37_Node000025_Node000031" class="edge">
<title>Node25&#45;&gt;Node31</title>
<g id="a_edge37_Node000025_Node000031"><a xlink:title=" ">
<path fill="none" stroke="#63b8ff" d="M437.89,-60.92C381.76,-54.9 252.35,-40.16 133.53,-19.52"/>
<polygon fill="#63b8ff" stroke="#63b8ff" points="134.38,-16.11 123.92,-17.83 133.17,-23.01 134.38,-16.11"/>
</a>
</g>
</g>
<!-- Node32 -->
<g id="Node000032" class="node">
<title>Node32</title>
<g id="a_Node000032"><a xlink:title=" ">
<polygon fill="#e0e0e0" stroke="#999999" points="190.5,-19.25 140,-19.25 140,0 190.5,0 190.5,-19.25"/>
<text text-anchor="middle" x="165.25" y="-5.75" font-family="Helvetica,sans-Serif" font-size="10.00">cxxabi.h</text>
</a>
</g>
</g>
<!-- Node25&#45;&gt;Node32 -->
<g id="edge38_Node000025_Node000032" class="edge">
<title>Node25&#45;&gt;Node32</title>
<g id="a_edge38_Node000025_Node000032"><a xlink:title=" ">
<path fill="none" stroke="#63b8ff" d="M437.65,-59.89C390.55,-53.16 293.46,-38.56 201.95,-19.68"/>
<polygon fill="#63b8ff" stroke="#63b8ff" points="202.8,-16.28 192.3,-17.66 201.37,-23.13 202.8,-16.28"/>
</a>
</g>
</g>
<!-- Node33 -->
<g id="Node000033" class="node">
<title>Node33</title>
<g id="a_Node000033"><a xlink:title=" ">
<polygon fill="#e0e0e0" stroke="#999999" points="259.88,-19.25 208.62,-19.25 208.62,0 259.88,0 259.88,-19.25"/>
<text text-anchor="middle" x="234.25" y="-5.75" font-family="Helvetica,sans-Serif" font-size="10.00">sstream</text>
</a>
</g>
</g>
<!-- Node25&#45;&gt;Node33 -->
<g id="edge39_Node000025_Node000033" class="edge">
<title>Node25&#45;&gt;Node33</title>
<g id="a_edge39_Node000025_Node000033"><a xlink:title=" ">
<path fill="none" stroke="#63b8ff" d="M437.67,-57.68C401.16,-49.72 335.76,-35.28 271.02,-19.87"/>
<polygon fill="#63b8ff" stroke="#63b8ff" points="272.23,-16.56 261.69,-17.64 270.61,-23.37 272.23,-16.56"/>
</a>
</g>
</g>
<!-- Node34 -->
<g id="Node000034" class="node">
<title>Node34</title>
<g id="a_Node000034"><a xlink:title=" ">
<polygon fill="#e0e0e0" stroke="#999999" points="314.75,-19.25 277.75,-19.25 277.75,0 314.75,0 314.75,-19.25"/>
<text text-anchor="middle" x="296.25" y="-5.75" font-family="Helvetica,sans-Serif" font-size="10.00">array</text>
</a>
</g>
</g>
<!-- Node25&#45;&gt;Node34 -->
<g id="edge40_Node000025_Node000034" class="edge">
<title>Node25&#45;&gt;Node34</title>
<g id="a_edge40_Node000025_Node000034"><a xlink:title=" ">
<path fill="none" stroke="#63b8ff" d="M437.8,-54.96C406.65,-45.21 356.96,-29.64 325.5,-19.79"/>
<polygon fill="#63b8ff" stroke="#63b8ff" points="326.84,-16.54 316.25,-16.89 324.74,-23.22 326.84,-16.54"/>
</a>
</g>
</g>
<!-- Node35 -->
<g id="Node000035" class="node">
<title>Node35</title>
<g id="a_Node000035"><a xlink:title=" ">
<polygon fill="#e0e0e0" stroke="#999999" points="383.5,-19.25 333,-19.25 333,0 383.5,0 383.5,-19.25"/>
<text text-anchor="middle" x="358.25" y="-5.75" font-family="Helvetica,sans-Serif" font-size="10.00">memory</text>
</a>
</g>
</g>
<!-- Node25&#45;&gt;Node35 -->
<g id="edge41_Node000025_Node000035" class="edge">
<title>Node25&#45;&gt;Node35</title>
<g id="a_edge41_Node000025_Node000035"><a xlink:title=" ">
<path fill="none" stroke="#63b8ff" d="M447.93,-54.84C431.17,-46.58 406.12,-34.23 386.75,-24.68"/>
<polygon fill="#63b8ff" stroke="#63b8ff" points="388.53,-21.65 378.02,-20.37 385.44,-27.93 388.53,-21.65"/>
</a>
</g>
</g>
<!-- Node36 -->
<g id="Node000036" class="node">
<title>Node36</title>
<g id="a_Node000036"><a xlink:title=" ">
<polygon fill="#e0e0e0" stroke="#999999" points="451.12,-19.25 401.38,-19.25 401.38,0 451.12,0 451.12,-19.25"/>
<text text-anchor="middle" x="426.25" y="-5.75" font-family="Helvetica,sans-Serif" font-size="10.00">unistd.h</text>
</a>
</g>
</g>
<!-- Node25&#45;&gt;Node36 -->
<g id="edge42_Node000025_Node000036" class="edge">
<title>Node25&#45;&gt;Node36</title>
<g id="a_edge42_Node000025_Node000036"><a xlink:title=" ">
<path fill="none" stroke="#63b8ff" d="M459.64,-55.08C454.29,-47.96 446.57,-37.68 439.9,-28.8"/>
<polygon fill="#63b8ff" stroke="#63b8ff" points="442.71,-26.71 433.91,-20.82 437.12,-30.92 442.71,-26.71"/>
</a>
</g>
</g>
<!-- Node37 -->
<g id="Node000037" class="node">
<title>Node37</title>
<g id="a_Node000037"><a xlink:title=" ">
<polygon fill="#e0e0e0" stroke="#999999" points="529,-19.25 469.5,-19.25 469.5,0 529,0 529,-19.25"/>
<text text-anchor="middle" x="499.25" y="-5.75" font-family="Helvetica,sans-Serif" font-size="10.00">sys/wait.h</text>
</a>
</g>
</g>
<!-- Node25&#45;&gt;Node37 -->
<g id="edge43_Node000025_Node000037" class="edge">
<title>Node25&#45;&gt;Node37</title>
<g id="a_edge43_Node000025_Node000037"><a xlink:title=" ">
<path fill="none" stroke="#63b8ff" d="M471.7,-55.08C476.02,-48.11 482.21,-38.12 487.63,-29.37"/>
<polygon fill="#63b8ff" stroke="#63b8ff" points="490.59,-31.24 492.89,-20.9 484.64,-27.55 490.59,-31.24"/>
</a>
</g>
</g>
<!-- Node38 -->
<g id="Node000038" class="node">
<title>Node38</title>
<g id="a_Node000038"><a xlink:title=" ">
<polygon fill="#e0e0e0" stroke="#999999" points="607.38,-19.25 547.12,-19.25 547.12,0 607.38,0 607.38,-19.25"/>
<text text-anchor="middle" x="577.25" y="-5.75" font-family="Helvetica,sans-Serif" font-size="10.00">sys/prctl.h</text>
</a>
</g>
</g>
<!-- Node25&#45;&gt;Node38 -->
<g id="edge44_Node000025_Node000038" class="edge">
<title>Node25&#45;&gt;Node38</title>
<g id="a_edge44_Node000025_Node000038"><a xlink:title=" ">
<path fill="none" stroke="#63b8ff" d="M485.08,-54.84C502.3,-46.58 528.05,-34.23 547.96,-24.68"/>
<polygon fill="#63b8ff" stroke="#63b8ff" points="549.46,-27.84 556.96,-20.36 546.43,-21.53 549.46,-27.84"/>
</a>
</g>
</g>
<!-- Node39&#45;&gt;Node18 -->
<g id="edge47_Node000039_Node000018" class="edge">
<title>Node39&#45;&gt;Node18</title>
<g id="a_edge47_Node000039_Node000018"><a xlink:title=" ">
<path fill="none" stroke="#63b8ff" d="M788.96,-110.09C809.28,-101.64 839.9,-88.9 863.06,-79.27"/>
<polygon fill="#63b8ff" stroke="#63b8ff" points="864.14,-82.61 872.03,-75.53 861.46,-76.14 864.14,-82.61"/>
</a>
</g>
</g>
<!-- Node39&#45;&gt;Node23 -->
<g id="edge46_Node000039_Node000023" class="edge">
<title>Node39&#45;&gt;Node23</title>
<g id="a_edge46_Node000039_Node000023"><a xlink:title=" ">
<path fill="none" stroke="#63b8ff" d="M773.35,-110.25C782.9,-96.88 802.56,-71.42 824.25,-55.25 841.87,-42.11 863.99,-31.44 882.44,-23.84"/>
<polygon fill="#63b8ff" stroke="#63b8ff" points="883.69,-27.11 891.7,-20.17 881.11,-20.6 883.69,-27.11"/>
</a>
</g>
</g>
<!-- Node39&#45;&gt;Node25 -->
<g id="edge52_Node000039_Node000025" class="edge">
<title>Node39&#45;&gt;Node25</title>
<g id="a_edge52_Node000039_Node000025"><a xlink:title=" ">
<path fill="none" stroke="#63b8ff" d="M732.2,-112.15C729.18,-111.58 726.16,-111.02 723.25,-110.5 629.26,-93.6 602.36,-93.72 506.03,-74.94"/>
<polygon fill="#63b8ff" stroke="#63b8ff" points="506.87,-71.54 496.38,-73.04 505.51,-78.41 506.87,-71.54"/>
</a>
</g>
</g>
<!-- Node40 -->
<g id="Node000040" class="node">
<title>Node40</title>
<g id="a_Node000040"><a xlink:title=" ">
<polygon fill="#e0e0e0" stroke="#999999" points="708.12,-74.5 640.38,-74.5 640.38,-55.25 708.12,-55.25 708.12,-74.5"/>
<text text-anchor="middle" x="674.25" y="-61" font-family="Helvetica,sans-Serif" font-size="10.00">TDirectory.h</text>
</a>
</g>
</g>
<!-- Node39&#45;&gt;Node40 -->
<g id="edge48_Node000039_Node000040" class="edge">
<title>Node39&#45;&gt;Node40</title>
<g id="a_edge48_Node000039_Node000040"><a xlink:title=" ">
<path fill="none" stroke="#63b8ff" d="M751.47,-110.09C737.31,-101.98 716.27,-89.93 699.72,-80.46"/>
<polygon fill="#63b8ff" stroke="#63b8ff" points="701.83,-77.64 691.42,-75.7 698.36,-83.71 701.83,-77.64"/>
</a>
</g>
</g>
<!-- Node41 -->
<g id="Node000041" class="node">
<title>Node41</title>
<g id="a_Node000041"><a xlink:title=" ">
<polygon fill="#e0e0e0" stroke="#999999" points="771.88,-74.5 726.62,-74.5 726.62,-55.25 771.88,-55.25 771.88,-74.5"/>
<text text-anchor="middle" x="749.25" y="-61" font-family="Helvetica,sans-Serif" font-size="10.00">TFile.h</text>
</a>
</g>
</g>
<!-- Node39&#45;&gt;Node41 -->
<g id="edge49_Node000039_Node000041" class="edge">
<title>Node39&#45;&gt;Node41</title>
<g id="a_edge49_Node000039_Node000041"><a xlink:title=" ">
<path fill="none" stroke="#63b8ff" d="M764.28,-110.33C762,-103.59 758.76,-94.02 755.88,-85.49"/>
<polygon fill="#63b8ff" stroke="#63b8ff" points="759.29,-84.65 752.77,-76.29 752.66,-86.89 759.29,-84.65"/>
</a>
</g>
</g>
<!-- Node42 -->
<g id="Node000042" class="node">
<title>Node42</title>
<g id="a_Node000042"><a xlink:title=" ">
<polygon fill="#e0e0e0" stroke="#999999" points="558.25,-74.5 512.25,-74.5 512.25,-55.25 558.25,-55.25 558.25,-74.5"/>
<text text-anchor="middle" x="535.25" y="-61" font-family="Helvetica,sans-Serif" font-size="10.00">TList.h</text>
</a>
</g>
</g>
<!-- Node39&#45;&gt;Node42 -->
<g id="edge50_Node000039_Node000042" class="edge">
<title>Node39&#45;&gt;Node42</title>
<g id="a_edge50_Node000039_Node000042"><a xlink:title=" ">
<path fill="none" stroke="#63b8ff" d="M732.1,-111.77C694.26,-103.74 632.05,-90.24 569.49,-74.97"/>
<polygon fill="#63b8ff" stroke="#63b8ff" points="570.65,-71.65 560.11,-72.67 568.98,-78.45 570.65,-71.65"/>
</a>
</g>
</g>
<!-- Node43 -->
<g id="Node000043" class="node">
<title>Node43</title>
<g id="a_Node000043"><a xlink:title=" ">
<polygon fill="#e0e0e0" stroke="#999999" points="622.25,-74.5 576.25,-74.5 576.25,-55.25 622.25,-55.25 622.25,-74.5"/>
<text text-anchor="middle" x="599.25" y="-61" font-family="Helvetica,sans-Serif" font-size="10.00">TKey.h</text>
</a>
</g>
</g>
<!-- Node39&#45;&gt;Node43 -->
<g id="edge51_Node000039_Node000043" class="edge">
<title>Node39&#45;&gt;Node43</title>
<g id="a_edge51_Node000039_Node000043"><a xlink:title=" ">
<path fill="none" stroke="#63b8ff" d="M738.75,-110.09C709.65,-100.87 664.47,-86.55 633.46,-76.72"/>
<polygon fill="#63b8ff" stroke="#63b8ff" points="634.76,-73.46 624.17,-73.77 632.65,-80.13 634.76,-73.46"/>
</a>
</g>
</g>
<!-- Node44&#45;&gt;Node23 -->
<g id="edge54_Node000044_Node000023" class="edge">
<title>Node44&#45;&gt;Node23</title>
<g id="a_edge54_Node000044_Node000023"><a xlink:title=" ">
<path fill="none" stroke="#63b8ff" d="M1120.45,-165.32C1124.5,-152.16 1129.75,-127.49 1119.25,-110.5 1083.89,-53.32 1004.82,-27.79 957.37,-17.26"/>
<polygon fill="#63b8ff" stroke="#63b8ff" points="958.31,-13.89 947.81,-15.27 956.88,-20.74 958.31,-13.89"/>
</a>
</g>
</g>
<!-- Node45 -->
<g id="Node000045" class="node">
<title>Node45</title>
<g id="a_Node000045"><a xlink:title=" ">
<polygon fill="#e0e0e0" stroke="#999999" points="1054.12,-129.75 980.38,-129.75 980.38,-110.5 1054.12,-110.5 1054.12,-129.75"/>
<text text-anchor="middle" x="1017.25" y="-116.25" font-family="Helvetica,sans-Serif" font-size="10.00">RtypesCore.h</text>
</a>
</g>
</g>
<!-- Node44&#45;&gt;Node45 -->
<g id="edge55_Node000044_Node000045" class="edge">
<title>Node44&#45;&gt;Node45</title>
<g id="a_edge55_Node000044_Node000045"><a xlink:title=" ">
<path fill="none" stroke="#63b8ff" d="M1100.29,-165.34C1084.99,-157.19 1062.22,-145.07 1044.39,-135.58"/>
<polygon fill="#63b8ff" stroke="#63b8ff" points="1046.1,-132.52 1035.63,-130.91 1042.81,-138.7 1046.1,-132.52"/>
</a>
</g>
</g>
</g>
</svg>
