<?xml version="1.0" encoding="UTF-8" standalone="no"?>
<!DOCTYPE svg PUBLIC "-//W3C//DTD SVG 1.1//EN"
 "http://www.w3.org/Graphics/SVG/1.1/DTD/svg11.dtd">
<!-- Generated by graphviz version 12.2.0 (20241103.1931)
 -->
<!-- Title: THILFragment.cxx Pages: 1 -->
<svg width="1840pt" height="414pt"
 viewBox="0.00 0.00 1839.75 414.00" xmlns="http://www.w3.org/2000/svg" xmlns:xlink="http://www.w3.org/1999/xlink">
<g id="graph0" class="graph" transform="scale(1 1) rotate(0) translate(4 410)">
<title>THILFragment.cxx</title>
<!-- Node1 -->
<g id="Node000001" class="node">
<title>Node1</title>
<g id="a_Node000001"><a xlink:title=" ">
<polygon fill="#999999" stroke="#666666" points="684.88,-406 588.62,-406 588.62,-386.75 684.88,-386.75 684.88,-406"/>
<text text-anchor="middle" x="636.75" y="-392.5" font-family="Helvetica,sans-Serif" font-size="10.00">THILFragment.cxx</text>
</a>
</g>
</g>
<!-- Node2 -->
<g id="Node000002" class="node">
<title>Node2</title>
<g id="a_Node000002"><a xlink:href="_t_h_i_l_fragment_8h.html" target="_top" xlink:title=" ">
<polygon fill="white" stroke="#666666" points="951.38,-350.75 864.12,-350.75 864.12,-331.5 951.38,-331.5 951.38,-350.75"/>
<text text-anchor="middle" x="907.75" y="-337.25" font-family="Helvetica,sans-Serif" font-size="10.00">THILFragment.h</text>
</a>
</g>
</g>
<!-- Node1&#45;&gt;Node2 -->
<g id="edge1_Node000001_Node000002" class="edge">
<title>Node1&#45;&gt;Node2</title>
<g id="a_edge1_Node000001_Node000002"><a xlink:title=" ">
<path fill="none" stroke="#63b8ff" d="M683.03,-386.28C730.01,-377.05 802.76,-362.76 852.68,-352.95"/>
<polygon fill="#63b8ff" stroke="#63b8ff" points="853.28,-356.39 862.42,-351.03 851.93,-349.53 853.28,-356.39"/>
</a>
</g>
</g>
<!-- Node25 -->
<g id="Node000025" class="node">
<title>Node25</title>
<g id="a_Node000025"><a xlink:href="_globals_8h.html" target="_top" xlink:title=" ">
<polygon fill="white" stroke="#666666" points="465,-74.5 408.5,-74.5 408.5,-55.25 465,-55.25 465,-74.5"/>
<text text-anchor="middle" x="436.75" y="-61" font-family="Helvetica,sans-Serif" font-size="10.00">Globals.h</text>
</a>
</g>
</g>
<!-- Node1&#45;&gt;Node25 -->
<g id="edge60_Node000001_Node000025" class="edge">
<title>Node1&#45;&gt;Node25</title>
<g id="a_edge60_Node000001_Node000025"><a xlink:title=" ">
<path fill="none" stroke="#63b8ff" d="M588.55,-389.18C531.97,-378.9 445.75,-352.47 445.75,-286.88 445.75,-286.88 445.75,-286.88 445.75,-174.38 445.75,-143.55 442.1,-107.97 439.45,-86.2"/>
<polygon fill="#63b8ff" stroke="#63b8ff" points="442.93,-85.84 438.19,-76.36 435.98,-86.72 442.93,-85.84"/>
</a>
</g>
</g>
<!-- Node3 -->
<g id="Node000003" class="node">
<title>Node3</title>
<g id="a_Node000003"><a xlink:title=" ">
<polygon fill="#e0e0e0" stroke="#999999" points="1802.25,-74.5 1759.25,-74.5 1759.25,-55.25 1802.25,-55.25 1802.25,-74.5"/>
<text text-anchor="middle" x="1780.75" y="-61" font-family="Helvetica,sans-Serif" font-size="10.00">vector</text>
</a>
</g>
</g>
<!-- Node2&#45;&gt;Node3 -->
<g id="edge2_Node000002_Node000003" class="edge">
<title>Node2&#45;&gt;Node3</title>
<g id="a_edge2_Node000002_Node000003"><a xlink:title=" ">
<path fill="none" stroke="#63b8ff" d="M951.69,-339.64C1135.32,-337.07 1831.75,-321.37 1831.75,-231.62 1831.75,-231.62 1831.75,-231.62 1831.75,-174.38 1831.75,-139.83 1810.32,-104.48 1795.24,-83.88"/>
<polygon fill="#63b8ff" stroke="#63b8ff" points="1798.05,-81.8 1789.19,-75.98 1792.49,-86.05 1798.05,-81.8"/>
</a>
</g>
</g>
<!-- Node4 -->
<g id="Node000004" class="node">
<title>Node4</title>
<g id="a_Node000004"><a xlink:href="_t_fragment_8h.html" target="_top" xlink:title=" ">
<polygon fill="white" stroke="#666666" points="943.12,-295.5 872.38,-295.5 872.38,-276.25 943.12,-276.25 943.12,-295.5"/>
<text text-anchor="middle" x="907.75" y="-282" font-family="Helvetica,sans-Serif" font-size="10.00">TFragment.h</text>
</a>
</g>
</g>
<!-- Node2&#45;&gt;Node4 -->
<g id="edge3_Node000002_Node000004" class="edge">
<title>Node2&#45;&gt;Node4</title>
<g id="a_edge3_Node000002_Node000004"><a xlink:title=" ">
<path fill="none" stroke="#63b8ff" d="M907.75,-331.33C907.75,-324.82 907.75,-315.67 907.75,-307.37"/>
<polygon fill="#63b8ff" stroke="#63b8ff" points="911.25,-307.37 907.75,-297.37 904.25,-307.37 911.25,-307.37"/>
</a>
</g>
</g>
<!-- Node4&#45;&gt;Node3 -->
<g id="edge57_Node000004_Node000003" class="edge">
<title>Node4&#45;&gt;Node3</title>
<g id="a_edge57_Node000004_Node000003"><a xlink:title=" ">
<path fill="none" stroke="#63b8ff" d="M943.58,-281.62C1044.13,-272.03 1337.13,-241 1574.75,-185 1652.08,-166.78 1683.27,-180.07 1744.75,-129.75 1758.91,-118.16 1768.52,-99.45 1774.22,-85.26"/>
<polygon fill="#63b8ff" stroke="#63b8ff" points="1777.43,-86.68 1777.59,-76.09 1770.86,-84.27 1777.43,-86.68"/>
</a>
</g>
</g>
<!-- Node5 -->
<g id="Node000005" class="node">
<title>Node5</title>
<g id="a_Node000005"><a xlink:href="_t_detector_hit_8h.html" target="_top" xlink:title=" ">
<polygon fill="white" stroke="#666666" points="1127.25,-240.25 1048.25,-240.25 1048.25,-221 1127.25,-221 1127.25,-240.25"/>
<text text-anchor="middle" x="1087.75" y="-226.75" font-family="Helvetica,sans-Serif" font-size="10.00">TDetectorHit.h</text>
</a>
</g>
</g>
<!-- Node4&#45;&gt;Node5 -->
<g id="edge4_Node000004_Node000005" class="edge">
<title>Node4&#45;&gt;Node5</title>
<g id="a_edge4_Node000004_Node000005"><a xlink:title=" ">
<path fill="none" stroke="#63b8ff" d="M938.28,-275.84C968.02,-267.04 1013.44,-253.61 1046.4,-243.86"/>
<polygon fill="#63b8ff" stroke="#63b8ff" points="1047.02,-247.32 1055.61,-241.13 1045.03,-240.61 1047.02,-247.32"/>
</a>
</g>
</g>
<!-- Node19 -->
<g id="Node000019" class="node">
<title>Node19</title>
<g id="a_Node000019"><a xlink:title=" ">
<polygon fill="#e0e0e0" stroke="#999999" points="966.5,-185 913,-185 913,-165.75 966.5,-165.75 966.5,-185"/>
<text text-anchor="middle" x="939.75" y="-171.5" font-family="Helvetica,sans-Serif" font-size="10.00">Rtypes.h</text>
</a>
</g>
</g>
<!-- Node4&#45;&gt;Node19 -->
<g id="edge59_Node000004_Node000019" class="edge">
<title>Node4&#45;&gt;Node19</title>
<g id="a_edge59_Node000004_Node000019"><a xlink:title=" ">
<path fill="none" stroke="#63b8ff" d="M910.37,-276C915.48,-258.67 926.89,-219.98 933.89,-196.24"/>
<polygon fill="#63b8ff" stroke="#63b8ff" points="937.2,-197.41 936.67,-186.83 930.48,-195.43 937.2,-197.41"/>
</a>
</g>
</g>
<!-- Node21 -->
<g id="Node000021" class="node">
<title>Node21</title>
<g id="a_Node000021"><a xlink:href="_t_p_p_g_8h.html" target="_top" xlink:title=" ">
<polygon fill="white" stroke="#666666" points="834,-185 783.5,-185 783.5,-165.75 834,-165.75 834,-185"/>
<text text-anchor="middle" x="808.75" y="-171.5" font-family="Helvetica,sans-Serif" font-size="10.00">TPPG.h</text>
</a>
</g>
</g>
<!-- Node4&#45;&gt;Node21 -->
<g id="edge55_Node000004_Node000021" class="edge">
<title>Node4&#45;&gt;Node21</title>
<g id="a_edge55_Node000004_Node000021"><a xlink:title=" ">
<path fill="none" stroke="#63b8ff" d="M899.65,-276C883.26,-258.03 845.92,-217.11 824.54,-193.69"/>
<polygon fill="#63b8ff" stroke="#63b8ff" points="827.31,-191.52 817.98,-186.49 822.14,-196.24 827.31,-191.52"/>
</a>
</g>
</g>
<!-- Node23 -->
<g id="Node000023" class="node">
<title>Node23</title>
<g id="a_Node000023"><a xlink:title=" ">
<polygon fill="#e0e0e0" stroke="#999999" points="882.5,-19.25 829,-19.25 829,0 882.5,0 882.5,-19.25"/>
<text text-anchor="middle" x="855.75" y="-5.75" font-family="Helvetica,sans-Serif" font-size="10.00">iostream</text>
</a>
</g>
</g>
<!-- Node4&#45;&gt;Node23 -->
<g id="edge56_Node000004_Node000023" class="edge">
<title>Node4&#45;&gt;Node23</title>
<g id="a_edge56_Node000004_Node000023"><a xlink:title=" ">
<path fill="none" stroke="#63b8ff" d="M907.26,-275.79C906.35,-258.25 904.42,-218.49 903.75,-185 903.75,-185 903.75,-55.25 903.75,-55.25 898.71,-43.67 889.01,-33.74 879.65,-26.21"/>
<polygon fill="#63b8ff" stroke="#63b8ff" points="881.92,-23.54 871.8,-20.41 877.76,-29.17 881.92,-23.54"/>
</a>
</g>
</g>
<!-- Node45 -->
<g id="Node000045" class="node">
<title>Node45</title>
<g id="a_Node000045"><a xlink:title=" ">
<polygon fill="#e0e0e0" stroke="#999999" points="818.75,-240.25 778.75,-240.25 778.75,-221 818.75,-221 818.75,-240.25"/>
<text text-anchor="middle" x="798.75" y="-226.75" font-family="Helvetica,sans-Serif" font-size="10.00">ctime</text>
</a>
</g>
</g>
<!-- Node4&#45;&gt;Node45 -->
<g id="edge58_Node000004_Node000045" class="edge">
<title>Node4&#45;&gt;Node45</title>
<g id="a_edge58_Node000004_Node000045"><a xlink:title=" ">
<path fill="none" stroke="#63b8ff" d="M889.26,-275.84C872.35,-267.58 847.06,-255.23 827.51,-245.68"/>
<polygon fill="#63b8ff" stroke="#63b8ff" points="829.21,-242.61 818.69,-241.37 826.14,-248.9 829.21,-242.61"/>
</a>
</g>
</g>
<!-- Node5&#45;&gt;Node3 -->
<g id="edge5_Node000005_Node000003" class="edge">
<title>Node5&#45;&gt;Node3</title>
<g id="a_edge5_Node000005_Node000003"><a xlink:title=" ">
<path fill="none" stroke="#63b8ff" d="M1127.33,-226.98C1249.11,-218.28 1616.17,-187.76 1718.75,-129.75 1738.86,-118.38 1756.63,-98.5 1767.93,-83.94"/>
<polygon fill="#63b8ff" stroke="#63b8ff" points="1770.61,-86.2 1773.77,-76.08 1764.99,-82.02 1770.61,-86.2"/>
</a>
</g>
</g>
<!-- Node6 -->
<g id="Node000006" class="node">
<title>Node6</title>
<g id="a_Node000006"><a xlink:href="_t_channel_8h.html" target="_top" xlink:title=" ">
<polygon fill="white" stroke="#666666" points="1308.12,-185 1243.38,-185 1243.38,-165.75 1308.12,-165.75 1308.12,-185"/>
<text text-anchor="middle" x="1275.75" y="-171.5" font-family="Helvetica,sans-Serif" font-size="10.00">TChannel.h</text>
</a>
</g>
</g>
<!-- Node5&#45;&gt;Node6 -->
<g id="edge6_Node000005_Node000006" class="edge">
<title>Node5&#45;&gt;Node6</title>
<g id="a_edge6_Node000005_Node000006"><a xlink:title=" ">
<path fill="none" stroke="#63b8ff" d="M1119.64,-220.59C1150.84,-211.76 1198.55,-198.24 1233.01,-188.48"/>
<polygon fill="#63b8ff" stroke="#63b8ff" points="1233.58,-191.96 1242.25,-185.86 1231.67,-185.22 1233.58,-191.96"/>
</a>
</g>
</g>
<!-- Node17 -->
<g id="Node000017" class="node">
<title>Node17</title>
<g id="a_Node000017"><a xlink:title=" ">
<polygon fill="#e0e0e0" stroke="#999999" points="1472.38,-185 1409.12,-185 1409.12,-165.75 1472.38,-165.75 1472.38,-185"/>
<text text-anchor="middle" x="1440.75" y="-171.5" font-family="Helvetica,sans-Serif" font-size="10.00">TVector3.h</text>
</a>
</g>
</g>
<!-- Node5&#45;&gt;Node17 -->
<g id="edge19_Node000005_Node000017" class="edge">
<title>Node5&#45;&gt;Node17</title>
<g id="a_edge19_Node000005_Node000017"><a xlink:title=" ">
<path fill="none" stroke="#63b8ff" d="M1127.42,-224.88C1184.89,-217.82 1294.87,-203.54 1397.7,-185.45"/>
<polygon fill="#63b8ff" stroke="#63b8ff" points="1398.19,-188.91 1407.42,-183.72 1396.96,-182.02 1398.19,-188.91"/>
</a>
</g>
</g>
<!-- Node18 -->
<g id="Node000018" class="node">
<title>Node18</title>
<g id="a_Node000018"><a xlink:title=" ">
<polygon fill="#e0e0e0" stroke="#999999" points="894.75,-74.5 836.75,-74.5 836.75,-55.25 894.75,-55.25 894.75,-74.5"/>
<text text-anchor="middle" x="865.75" y="-61" font-family="Helvetica,sans-Serif" font-size="10.00">TObject.h</text>
</a>
</g>
</g>
<!-- Node5&#45;&gt;Node18 -->
<g id="edge20_Node000005_Node000018" class="edge">
<title>Node5&#45;&gt;Node18</title>
<g id="a_edge20_Node000005_Node000018"><a xlink:title=" ">
<path fill="none" stroke="#63b8ff" d="M1073.74,-220.71C1047.36,-203.76 988.71,-165.41 941.75,-129.75 921.52,-114.39 899.39,-95.54 884.25,-82.31"/>
<polygon fill="#63b8ff" stroke="#63b8ff" points="886.77,-79.86 876.95,-75.88 882.14,-85.12 886.77,-79.86"/>
</a>
</g>
</g>
<!-- Node5&#45;&gt;Node19 -->
<g id="edge21_Node000005_Node000019" class="edge">
<title>Node5&#45;&gt;Node19</title>
<g id="a_edge21_Node000005_Node000019"><a xlink:title=" ">
<path fill="none" stroke="#63b8ff" d="M1062.64,-220.59C1038.72,-211.99 1002.47,-198.94 975.53,-189.25"/>
<polygon fill="#63b8ff" stroke="#63b8ff" points="977,-186.06 966.4,-185.96 974.63,-192.64 977,-186.06"/>
</a>
</g>
</g>
<!-- Node20 -->
<g id="Node000020" class="node">
<title>Node20</title>
<g id="a_Node000020"><a xlink:title=" ">
<polygon fill="#e0e0e0" stroke="#999999" points="1391.5,-185 1326,-185 1326,-165.75 1391.5,-165.75 1391.5,-185"/>
<text text-anchor="middle" x="1358.75" y="-171.5" font-family="Helvetica,sans-Serif" font-size="10.00">TRandom.h</text>
</a>
</g>
</g>
<!-- Node5&#45;&gt;Node20 -->
<g id="edge22_Node000005_Node000020" class="edge">
<title>Node5&#45;&gt;Node20</title>
<g id="a_edge22_Node000005_Node000020"><a xlink:title=" ">
<path fill="none" stroke="#63b8ff" d="M1127.49,-222.01C1170.95,-213.65 1242.95,-199.72 1314.7,-185.39"/>
<polygon fill="#63b8ff" stroke="#63b8ff" points="1315.14,-188.88 1324.26,-183.48 1313.77,-182.01 1315.14,-188.88"/>
</a>
</g>
</g>
<!-- Node5&#45;&gt;Node21 -->
<g id="edge23_Node000005_Node000021" class="edge">
<title>Node5&#45;&gt;Node21</title>
<g id="a_edge23_Node000005_Node000021"><a xlink:title=" ">
<path fill="none" stroke="#63b8ff" d="M1047.78,-222C993.7,-211.68 898.01,-193.41 845.6,-183.41"/>
<polygon fill="#63b8ff" stroke="#63b8ff" points="846.45,-180.01 835.97,-181.57 845.14,-186.88 846.45,-180.01"/>
</a>
</g>
</g>
<!-- Node43 -->
<g id="Node000043" class="node">
<title>Node43</title>
<g id="a_Node000043"><a xlink:href="_t_transient_bits_8h.html" target="_top" xlink:title=" ">
<polygon fill="white" stroke="#666666" points="1131.38,-185 1044.12,-185 1044.12,-165.75 1131.38,-165.75 1131.38,-185"/>
<text text-anchor="middle" x="1087.75" y="-171.5" font-family="Helvetica,sans-Serif" font-size="10.00">TTransientBits.h</text>
</a>
</g>
</g>
<!-- Node5&#45;&gt;Node43 -->
<g id="edge52_Node000005_Node000043" class="edge">
<title>Node5&#45;&gt;Node43</title>
<g id="a_edge52_Node000005_Node000043"><a xlink:title=" ">
<path fill="none" stroke="#63b8ff" d="M1087.75,-220.83C1087.75,-214.32 1087.75,-205.17 1087.75,-196.87"/>
<polygon fill="#63b8ff" stroke="#63b8ff" points="1091.25,-196.87 1087.75,-186.87 1084.25,-196.87 1091.25,-196.87"/>
</a>
</g>
</g>
<!-- Node7 -->
<g id="Node000007" class="node">
<title>Node7</title>
<g id="a_Node000007"><a xlink:title=" ">
<polygon fill="#e0e0e0" stroke="#999999" points="1445.75,-19.25 1405.75,-19.25 1405.75,0 1445.75,0 1445.75,-19.25"/>
<text text-anchor="middle" x="1425.75" y="-5.75" font-family="Helvetica,sans-Serif" font-size="10.00">string</text>
</a>
</g>
</g>
<!-- Node6&#45;&gt;Node7 -->
<g id="edge7_Node000006_Node000007" class="edge">
<title>Node6&#45;&gt;Node7</title>
<g id="a_edge7_Node000006_Node000007"><a xlink:title=" ">
<path fill="none" stroke="#63b8ff" d="M1308.36,-167.17C1311.19,-166.65 1314.02,-166.16 1316.75,-165.75 1358.9,-159.35 1670.05,-161.28 1698.75,-129.75 1771.4,-49.93 1544.14,-21.08 1457.69,-13.15"/>
<polygon fill="#63b8ff" stroke="#63b8ff" points="1458.02,-9.66 1447.75,-12.28 1457.41,-16.64 1458.02,-9.66"/>
</a>
</g>
</g>
<!-- Node8 -->
<g id="Node000008" class="node">
<title>Node8</title>
<g id="a_Node000008"><a xlink:title=" ">
<polygon fill="#e0e0e0" stroke="#999999" points="1589.25,-129.75 1546.25,-129.75 1546.25,-110.5 1589.25,-110.5 1589.25,-129.75"/>
<text text-anchor="middle" x="1567.75" y="-116.25" font-family="Helvetica,sans-Serif" font-size="10.00">cmath</text>
</a>
</g>
</g>
<!-- Node6&#45;&gt;Node8 -->
<g id="edge8_Node000006_Node000008" class="edge">
<title>Node6&#45;&gt;Node8</title>
<g id="a_edge8_Node000006_Node000008"><a xlink:title=" ">
<path fill="none" stroke="#63b8ff" d="M1308.4,-167.37C1311.22,-166.8 1314.03,-166.26 1316.75,-165.75 1411.04,-148.16 1438.67,-151.27 1534.77,-130.21"/>
<polygon fill="#63b8ff" stroke="#63b8ff" points="1535.39,-133.66 1544.39,-128.07 1533.87,-126.83 1535.39,-133.66"/>
</a>
</g>
</g>
<!-- Node9 -->
<g id="Node000009" class="node">
<title>Node9</title>
<g id="a_Node000009"><a xlink:title=" ">
<polygon fill="#e0e0e0" stroke="#999999" points="1081,-129.75 1042.5,-129.75 1042.5,-110.5 1081,-110.5 1081,-129.75"/>
<text text-anchor="middle" x="1061.75" y="-116.25" font-family="Helvetica,sans-Serif" font-size="10.00">utility</text>
</a>
</g>
</g>
<!-- Node6&#45;&gt;Node9 -->
<g id="edge9_Node000006_Node000009" class="edge">
<title>Node6&#45;&gt;Node9</title>
<g id="a_edge9_Node000006_Node000009"><a xlink:title=" ">
<path fill="none" stroke="#63b8ff" d="M1243.25,-166.29C1202.28,-156.09 1132.37,-138.7 1092.33,-128.73"/>
<polygon fill="#63b8ff" stroke="#63b8ff" points="1093.42,-125.4 1082.87,-126.38 1091.73,-132.19 1093.42,-125.4"/>
</a>
</g>
</g>
<!-- Node10 -->
<g id="Node000010" class="node">
<title>Node10</title>
<g id="a_Node000010"><a xlink:title=" ">
<polygon fill="#e0e0e0" stroke="#999999" points="1690.12,-129.75 1607.38,-129.75 1607.38,-110.5 1690.12,-110.5 1690.12,-129.75"/>
<text text-anchor="middle" x="1648.75" y="-116.25" font-family="Helvetica,sans-Serif" font-size="10.00">unordered_map</text>
</a>
</g>
</g>
<!-- Node6&#45;&gt;Node10 -->
<g id="edge10_Node000006_Node000010" class="edge">
<title>Node6&#45;&gt;Node10</title>
<g id="a_edge10_Node000006_Node000010"><a xlink:title=" ">
<path fill="none" stroke="#63b8ff" d="M1308.38,-167.26C1311.2,-166.72 1314.02,-166.21 1316.75,-165.75 1437.81,-145.32 1471.89,-148.3 1595.95,-130.11"/>
<polygon fill="#63b8ff" stroke="#63b8ff" points="1596.16,-133.62 1605.53,-128.68 1595.13,-126.69 1596.16,-133.62"/>
</a>
</g>
</g>
<!-- Node11 -->
<g id="Node000011" class="node">
<title>Node11</title>
<g id="a_Node000011"><a xlink:title=" ">
<polygon fill="#e0e0e0" stroke="#999999" points="1198.25,-129.75 1137.25,-129.75 1137.25,-110.5 1198.25,-110.5 1198.25,-129.75"/>
<text text-anchor="middle" x="1167.75" y="-116.25" font-family="Helvetica,sans-Serif" font-size="10.00">TNamed.h</text>
</a>
</g>
</g>
<!-- Node6&#45;&gt;Node11 -->
<g id="edge11_Node000006_Node000011" class="edge">
<title>Node6&#45;&gt;Node11</title>
<g id="a_edge11_Node000006_Node000011"><a xlink:title=" ">
<path fill="none" stroke="#63b8ff" d="M1257.43,-165.34C1240.67,-157.08 1215.62,-144.73 1196.25,-135.18"/>
<polygon fill="#63b8ff" stroke="#63b8ff" points="1198.03,-132.15 1187.52,-130.87 1194.94,-138.43 1198.03,-132.15"/>
</a>
</g>
</g>
<!-- Node12 -->
<g id="Node000012" class="node">
<title>Node12</title>
<g id="a_Node000012"><a xlink:title=" ">
<polygon fill="#e0e0e0" stroke="#999999" points="1265.25,-129.75 1216.25,-129.75 1216.25,-110.5 1265.25,-110.5 1265.25,-129.75"/>
<text text-anchor="middle" x="1240.75" y="-116.25" font-family="Helvetica,sans-Serif" font-size="10.00">TTree.h</text>
</a>
</g>
</g>
<!-- Node6&#45;&gt;Node12 -->
<g id="edge12_Node000006_Node000012" class="edge">
<title>Node6&#45;&gt;Node12</title>
<g id="a_edge12_Node000006_Node000012"><a xlink:title=" ">
<path fill="none" stroke="#63b8ff" d="M1269.97,-165.58C1265.34,-158.53 1258.68,-148.4 1252.88,-139.58"/>
<polygon fill="#63b8ff" stroke="#63b8ff" points="1255.9,-137.81 1247.49,-131.37 1250.05,-141.65 1255.9,-137.81"/>
</a>
</g>
</g>
<!-- Node13 -->
<g id="Node000013" class="node">
<title>Node13</title>
<g id="a_Node000013"><a xlink:title=" ">
<polygon fill="#e0e0e0" stroke="#999999" points="1338.62,-129.75 1282.88,-129.75 1282.88,-110.5 1338.62,-110.5 1338.62,-129.75"/>
<text text-anchor="middle" x="1310.75" y="-116.25" font-family="Helvetica,sans-Serif" font-size="10.00">TGraph.h</text>
</a>
</g>
</g>
<!-- Node6&#45;&gt;Node13 -->
<g id="edge13_Node000006_Node000013" class="edge">
<title>Node6&#45;&gt;Node13</title>
<g id="a_edge13_Node000006_Node000013"><a xlink:title=" ">
<path fill="none" stroke="#63b8ff" d="M1281.53,-165.58C1286.16,-158.53 1292.82,-148.4 1298.62,-139.58"/>
<polygon fill="#63b8ff" stroke="#63b8ff" points="1301.45,-141.65 1304.01,-131.37 1295.6,-137.81 1301.45,-141.65"/>
</a>
</g>
</g>
<!-- Node14 -->
<g id="Node000014" class="node">
<title>Node14</title>
<g id="a_Node000014"><a xlink:title=" ">
<polygon fill="#e0e0e0" stroke="#999999" points="1528.38,-129.75 1459.12,-129.75 1459.12,-110.5 1528.38,-110.5 1528.38,-129.75"/>
<text text-anchor="middle" x="1493.75" y="-116.25" font-family="Helvetica,sans-Serif" font-size="10.00">TClassRef.h</text>
</a>
</g>
</g>
<!-- Node6&#45;&gt;Node14 -->
<g id="edge14_Node000006_Node000014" class="edge">
<title>Node6&#45;&gt;Node14</title>
<g id="a_edge14_Node000006_Node000014"><a xlink:title=" ">
<path fill="none" stroke="#63b8ff" d="M1308.39,-166.4C1345.38,-157.37 1405.96,-142.57 1447.74,-132.36"/>
<polygon fill="#63b8ff" stroke="#63b8ff" points="1448.37,-135.81 1457.25,-130.04 1446.71,-129.01 1448.37,-135.81"/>
</a>
</g>
</g>
<!-- Node15 -->
<g id="Node000015" class="node">
<title>Node15</title>
<g id="a_Node000015"><a xlink:href="_t_priority_value_8h.html" target="_top" xlink:title=" ">
<polygon fill="white" stroke="#666666" points="1440.88,-129.75 1356.62,-129.75 1356.62,-110.5 1440.88,-110.5 1440.88,-129.75"/>
<text text-anchor="middle" x="1398.75" y="-116.25" font-family="Helvetica,sans-Serif" font-size="10.00">TPriorityValue.h</text>
</a>
</g>
</g>
<!-- Node6&#45;&gt;Node15 -->
<g id="edge15_Node000006_Node000015" class="edge">
<title>Node6&#45;&gt;Node15</title>
<g id="a_edge15_Node000006_Node000015"><a xlink:title=" ">
<path fill="none" stroke="#63b8ff" d="M1296.62,-165.34C1316.05,-156.93 1345.29,-144.27 1367.51,-134.65"/>
<polygon fill="#63b8ff" stroke="#63b8ff" points="1368.61,-137.99 1376.39,-130.8 1365.83,-131.56 1368.61,-137.99"/>
</a>
</g>
</g>
<!-- Node15&#45;&gt;Node3 -->
<g id="edge18_Node000015_Node000003" class="edge">
<title>Node15&#45;&gt;Node3</title>
<g id="a_edge18_Node000015_Node000003"><a xlink:title=" ">
<path fill="none" stroke="#63b8ff" d="M1441.31,-111.82C1444.16,-111.36 1447,-110.92 1449.75,-110.5 1558.62,-93.96 1688.13,-77.4 1747.73,-69.95"/>
<polygon fill="#63b8ff" stroke="#63b8ff" points="1748.03,-73.44 1757.52,-68.73 1747.17,-66.5 1748.03,-73.44"/>
</a>
</g>
</g>
<!-- Node15&#45;&gt;Node7 -->
<g id="edge17_Node000015_Node000007" class="edge">
<title>Node15&#45;&gt;Node7</title>
<g id="a_edge17_Node000015_Node000007"><a xlink:title=" ">
<path fill="none" stroke="#63b8ff" d="M1400.96,-110.25C1405.27,-92.92 1414.9,-54.23 1420.81,-30.49"/>
<polygon fill="#63b8ff" stroke="#63b8ff" points="1424.13,-31.64 1423.14,-21.1 1417.33,-29.95 1424.13,-31.64"/>
</a>
</g>
</g>
<!-- Node16 -->
<g id="Node000016" class="node">
<title>Node16</title>
<g id="a_Node000016"><a xlink:title=" ">
<polygon fill="#e0e0e0" stroke="#999999" points="1397.38,-74.5 1346.12,-74.5 1346.12,-55.25 1397.38,-55.25 1397.38,-74.5"/>
<text text-anchor="middle" x="1371.75" y="-61" font-family="Helvetica,sans-Serif" font-size="10.00">ostream</text>
</a>
</g>
</g>
<!-- Node15&#45;&gt;Node16 -->
<g id="edge16_Node000015_Node000016" class="edge">
<title>Node15&#45;&gt;Node16</title>
<g id="a_edge16_Node000015_Node000016"><a xlink:title=" ">
<path fill="none" stroke="#63b8ff" d="M1394.29,-110.33C1390.8,-103.44 1385.8,-93.59 1381.4,-84.91"/>
<polygon fill="#63b8ff" stroke="#63b8ff" points="1384.63,-83.55 1376.99,-76.21 1378.39,-86.71 1384.63,-83.55"/>
</a>
</g>
</g>
<!-- Node21&#45;&gt;Node9 -->
<g id="edge25_Node000021_Node000009" class="edge">
<title>Node21&#45;&gt;Node9</title>
<g id="a_edge25_Node000021_Node000009"><a xlink:title=" ">
<path fill="none" stroke="#63b8ff" d="M834.25,-170.2C874.28,-163.46 954.49,-149.19 1031.41,-130.14"/>
<polygon fill="#63b8ff" stroke="#63b8ff" points="1031.93,-133.62 1040.77,-127.78 1030.22,-126.83 1031.93,-133.62"/>
</a>
</g>
</g>
<!-- Node21&#45;&gt;Node18 -->
<g id="edge27_Node000021_Node000018" class="edge">
<title>Node21&#45;&gt;Node18</title>
<g id="a_edge27_Node000021_Node000018"><a xlink:title=" ">
<path fill="none" stroke="#63b8ff" d="M813.41,-165.5C822.64,-147.93 843.4,-108.41 855.83,-84.77"/>
<polygon fill="#63b8ff" stroke="#63b8ff" points="858.76,-86.7 860.32,-76.22 852.57,-83.44 858.76,-86.7"/>
</a>
</g>
</g>
<!-- Node22 -->
<g id="Node000022" class="node">
<title>Node22</title>
<g id="a_Node000022"><a xlink:title=" ">
<polygon fill="#e0e0e0" stroke="#999999" points="685.12,-129.75 650.38,-129.75 650.38,-110.5 685.12,-110.5 685.12,-129.75"/>
<text text-anchor="middle" x="667.75" y="-116.25" font-family="Helvetica,sans-Serif" font-size="10.00">map</text>
</a>
</g>
</g>
<!-- Node21&#45;&gt;Node22 -->
<g id="edge24_Node000021_Node000022" class="edge">
<title>Node21&#45;&gt;Node22</title>
<g id="a_edge24_Node000021_Node000022"><a xlink:title=" ">
<path fill="none" stroke="#63b8ff" d="M784.83,-165.34C760.33,-156.09 722.24,-141.7 696.2,-131.87"/>
<polygon fill="#63b8ff" stroke="#63b8ff" points="697.53,-128.63 686.94,-128.37 695.06,-135.18 697.53,-128.63"/>
</a>
</g>
</g>
<!-- Node21&#45;&gt;Node23 -->
<g id="edge26_Node000021_Node000023" class="edge">
<title>Node21&#45;&gt;Node23</title>
<g id="a_edge26_Node000021_Node000023"><a xlink:title=" ">
<path fill="none" stroke="#63b8ff" d="M808.97,-165.4C809.71,-145.11 813.02,-94.46 827.75,-55.25 831.24,-45.96 836.8,-36.53 842.05,-28.75"/>
<polygon fill="#63b8ff" stroke="#63b8ff" points="844.72,-31.02 847.69,-20.85 839.03,-26.95 844.72,-31.02"/>
</a>
</g>
</g>
<!-- Node24 -->
<g id="Node000024" class="node">
<title>Node24</title>
<g id="a_Node000024"><a xlink:title=" ">
<polygon fill="#e0e0e0" stroke="#999999" points="631.88,-129.75 559.62,-129.75 559.62,-110.5 631.88,-110.5 631.88,-129.75"/>
<text text-anchor="middle" x="595.75" y="-116.25" font-family="Helvetica,sans-Serif" font-size="10.00">TCollection.h</text>
</a>
</g>
</g>
<!-- Node21&#45;&gt;Node24 -->
<g id="edge28_Node000021_Node000024" class="edge">
<title>Node21&#45;&gt;Node24</title>
<g id="a_edge28_Node000021_Node000024"><a xlink:title=" ">
<path fill="none" stroke="#63b8ff" d="M783.06,-167.95C748.52,-159.32 686.49,-143.81 643.32,-133.02"/>
<polygon fill="#63b8ff" stroke="#63b8ff" points="644.24,-129.64 633.69,-130.61 642.55,-136.43 644.24,-129.64"/>
</a>
</g>
</g>
<!-- Node21&#45;&gt;Node25 -->
<g id="edge29_Node000021_Node000025" class="edge">
<title>Node21&#45;&gt;Node25</title>
<g id="a_edge29_Node000021_Node000025"><a xlink:title=" ">
<path fill="none" stroke="#63b8ff" d="M783.12,-172.82C735.92,-169.34 632.57,-158.79 550.75,-129.75 516.79,-117.7 481.08,-96.01 458.87,-81.28"/>
<polygon fill="#63b8ff" stroke="#63b8ff" points="460.89,-78.43 450.65,-75.73 456.97,-84.23 460.89,-78.43"/>
</a>
</g>
</g>
<!-- Node38 -->
<g id="Node000038" class="node">
<title>Node38</title>
<g id="a_Node000038"><a xlink:href="_t_singleton_8h.html" target="_top" xlink:title=" ">
<polygon fill="white" stroke="#666666" points="772.75,-129.75 702.75,-129.75 702.75,-110.5 772.75,-110.5 772.75,-129.75"/>
<text text-anchor="middle" x="737.75" y="-116.25" font-family="Helvetica,sans-Serif" font-size="10.00">TSingleton.h</text>
</a>
</g>
</g>
<!-- Node21&#45;&gt;Node38 -->
<g id="edge44_Node000021_Node000038" class="edge">
<title>Node21&#45;&gt;Node38</title>
<g id="a_edge44_Node000021_Node000038"><a xlink:title=" ">
<path fill="none" stroke="#63b8ff" d="M796.71,-165.34C786.34,-157.57 771.15,-146.17 758.78,-136.9"/>
<polygon fill="#63b8ff" stroke="#63b8ff" points="760.93,-134.13 750.83,-130.93 756.73,-139.73 760.93,-134.13"/>
</a>
</g>
</g>
<!-- Node25&#45;&gt;Node7 -->
<g id="edge33_Node000025_Node000007" class="edge">
<title>Node25&#45;&gt;Node7</title>
<g id="a_edge33_Node000025_Node000007"><a xlink:title=" ">
<path fill="none" stroke="#63b8ff" d="M465.34,-56.67C468.17,-56.12 471.01,-55.63 473.75,-55.25 657.48,-29.75 1249.65,-14.69 1393.86,-11.34"/>
<polygon fill="#63b8ff" stroke="#63b8ff" points="1393.88,-14.84 1403.8,-11.11 1393.72,-7.84 1393.88,-14.84"/>
</a>
</g>
</g>
<!-- Node25&#45;&gt;Node23 -->
<g id="edge30_Node000025_Node000023" class="edge">
<title>Node25&#45;&gt;Node23</title>
<g id="a_edge30_Node000025_Node000023"><a xlink:title=" ">
<path fill="none" stroke="#63b8ff" d="M465.36,-56.83C468.19,-56.25 471.02,-55.71 473.75,-55.25 622.65,-30.25 665.37,-44.61 817.55,-19.39"/>
<polygon fill="#63b8ff" stroke="#63b8ff" points="817.93,-22.88 827.21,-17.76 816.77,-15.98 817.93,-22.88"/>
</a>
</g>
</g>
<!-- Node26 -->
<g id="Node000026" class="node">
<title>Node26</title>
<g id="a_Node000026"><a xlink:title=" ">
<polygon fill="#e0e0e0" stroke="#999999" points="612.62,-19.25 562.88,-19.25 562.88,0 612.62,0 612.62,-19.25"/>
<text text-anchor="middle" x="587.75" y="-5.75" font-family="Helvetica,sans-Serif" font-size="10.00">iomanip</text>
</a>
</g>
</g>
<!-- Node25&#45;&gt;Node26 -->
<g id="edge31_Node000025_Node000026" class="edge">
<title>Node25&#45;&gt;Node26</title>
<g id="a_edge31_Node000025_Node000026"><a xlink:title=" ">
<path fill="none" stroke="#63b8ff" d="M462.37,-54.84C486.92,-46.18 524.21,-33.03 551.75,-23.32"/>
<polygon fill="#63b8ff" stroke="#63b8ff" points="552.82,-26.65 561.09,-20.03 550.49,-20.05 552.82,-26.65"/>
</a>
</g>
</g>
<!-- Node27 -->
<g id="Node000027" class="node">
<title>Node27</title>
<g id="a_Node000027"><a xlink:title=" ">
<polygon fill="#e0e0e0" stroke="#999999" points="688.75,-19.25 630.75,-19.25 630.75,0 688.75,0 688.75,-19.25"/>
<text text-anchor="middle" x="659.75" y="-5.75" font-family="Helvetica,sans-Serif" font-size="10.00">stdexcept</text>
</a>
</g>
</g>
<!-- Node25&#45;&gt;Node27 -->
<g id="edge32_Node000025_Node000027" class="edge">
<title>Node25&#45;&gt;Node27</title>
<g id="a_edge32_Node000025_Node000027"><a xlink:title=" ">
<path fill="none" stroke="#63b8ff" d="M465.45,-57.02C504.62,-47.67 575.03,-30.85 619.48,-20.24"/>
<polygon fill="#63b8ff" stroke="#63b8ff" points="620.07,-23.7 628.98,-17.97 618.44,-16.89 620.07,-23.7"/>
</a>
</g>
</g>
<!-- Node28 -->
<g id="Node000028" class="node">
<title>Node28</title>
<g id="a_Node000028"><a xlink:title=" ">
<polygon fill="#e0e0e0" stroke="#999999" points="748.88,-19.25 706.62,-19.25 706.62,0 748.88,0 748.88,-19.25"/>
<text text-anchor="middle" x="727.75" y="-5.75" font-family="Helvetica,sans-Serif" font-size="10.00">cstdio</text>
</a>
</g>
</g>
<!-- Node25&#45;&gt;Node28 -->
<g id="edge34_Node000025_Node000028" class="edge">
<title>Node25&#45;&gt;Node28</title>
<g id="a_edge34_Node000025_Node000028"><a xlink:title=" ">
<path fill="none" stroke="#63b8ff" d="M465.39,-56.99C468.21,-56.38 471.03,-55.78 473.75,-55.25 569.21,-36.48 597.38,-40.87 695.22,-19.59"/>
<polygon fill="#63b8ff" stroke="#63b8ff" points="695.72,-23.06 704.72,-17.48 694.2,-16.23 695.72,-23.06"/>
</a>
</g>
</g>
<!-- Node29 -->
<g id="Node000029" class="node">
<title>Node29</title>
<g id="a_Node000029"><a xlink:title=" ">
<polygon fill="#e0e0e0" stroke="#999999" points="811,-19.25 766.5,-19.25 766.5,0 811,0 811,-19.25"/>
<text text-anchor="middle" x="788.75" y="-5.75" font-family="Helvetica,sans-Serif" font-size="10.00">cstdlib</text>
</a>
</g>
</g>
<!-- Node25&#45;&gt;Node29 -->
<g id="edge35_Node000025_Node000029" class="edge">
<title>Node25&#45;&gt;Node29</title>
<g id="a_edge35_Node000025_Node000029"><a xlink:title=" ">
<path fill="none" stroke="#63b8ff" d="M465.37,-56.9C468.2,-56.3 471.02,-55.74 473.75,-55.25 595.44,-33.41 631.02,-43.74 755.08,-19.53"/>
<polygon fill="#63b8ff" stroke="#63b8ff" points="755.55,-23 764.67,-17.62 754.18,-16.14 755.55,-23"/>
</a>
</g>
</g>
<!-- Node30 -->
<g id="Node000030" class="node">
<title>Node30</title>
<g id="a_Node000030"><a xlink:title=" ">
<polygon fill="#e0e0e0" stroke="#999999" points="59.5,-19.25 0,-19.25 0,0 59.5,0 59.5,-19.25"/>
<text text-anchor="middle" x="29.75" y="-5.75" font-family="Helvetica,sans-Serif" font-size="10.00">execinfo.h</text>
</a>
</g>
</g>
<!-- Node25&#45;&gt;Node30 -->
<g id="edge36_Node000025_Node000030" class="edge">
<title>Node25&#45;&gt;Node30</title>
<g id="a_edge36_Node000025_Node000030"><a xlink:title=" ">
<path fill="none" stroke="#63b8ff" d="M408.45,-61.39C348.26,-55.9 202.91,-41.57 71.02,-19.48"/>
<polygon fill="#63b8ff" stroke="#63b8ff" points="71.86,-16.08 61.42,-17.85 70.69,-22.98 71.86,-16.08"/>
</a>
</g>
</g>
<!-- Node31 -->
<g id="Node000031" class="node">
<title>Node31</title>
<g id="a_Node000031"><a xlink:title=" ">
<polygon fill="#e0e0e0" stroke="#999999" points="128,-19.25 77.5,-19.25 77.5,0 128,0 128,-19.25"/>
<text text-anchor="middle" x="102.75" y="-5.75" font-family="Helvetica,sans-Serif" font-size="10.00">cxxabi.h</text>
</a>
</g>
</g>
<!-- Node25&#45;&gt;Node31 -->
<g id="edge37_Node000025_Node000031" class="edge">
<title>Node25&#45;&gt;Node31</title>
<g id="a_edge37_Node000025_Node000031"><a xlink:title=" ">
<path fill="none" stroke="#63b8ff" d="M408.04,-60.58C356.27,-54.44 243.66,-40.11 139.35,-19.6"/>
<polygon fill="#63b8ff" stroke="#63b8ff" points="140.28,-16.22 129.79,-17.7 138.91,-23.09 140.28,-16.22"/>
</a>
</g>
</g>
<!-- Node32 -->
<g id="Node000032" class="node">
<title>Node32</title>
<g id="a_Node000032"><a xlink:title=" ">
<polygon fill="#e0e0e0" stroke="#999999" points="197.38,-19.25 146.12,-19.25 146.12,0 197.38,0 197.38,-19.25"/>
<text text-anchor="middle" x="171.75" y="-5.75" font-family="Helvetica,sans-Serif" font-size="10.00">sstream</text>
</a>
</g>
</g>
<!-- Node25&#45;&gt;Node32 -->
<g id="edge38_Node000025_Node000032" class="edge">
<title>Node25&#45;&gt;Node32</title>
<g id="a_edge38_Node000025_Node000032"><a xlink:title=" ">
<path fill="none" stroke="#63b8ff" d="M408.19,-58.9C366.41,-51.52 285.96,-36.84 208.59,-19.79"/>
<polygon fill="#63b8ff" stroke="#63b8ff" points="209.7,-16.45 199.18,-17.7 208.18,-23.29 209.7,-16.45"/>
</a>
</g>
</g>
<!-- Node33 -->
<g id="Node000033" class="node">
<title>Node33</title>
<g id="a_Node000033"><a xlink:title=" ">
<polygon fill="#e0e0e0" stroke="#999999" points="252.25,-19.25 215.25,-19.25 215.25,0 252.25,0 252.25,-19.25"/>
<text text-anchor="middle" x="233.75" y="-5.75" font-family="Helvetica,sans-Serif" font-size="10.00">array</text>
</a>
</g>
</g>
<!-- Node25&#45;&gt;Node33 -->
<g id="edge39_Node000025_Node000033" class="edge">
<title>Node25&#45;&gt;Node33</title>
<g id="a_edge39_Node000025_Node000033"><a xlink:title=" ">
<path fill="none" stroke="#63b8ff" d="M408.14,-57.04C375.5,-49.14 320.27,-35.47 263.65,-19.68"/>
<polygon fill="#63b8ff" stroke="#63b8ff" points="264.72,-16.34 254.15,-17.01 262.83,-23.08 264.72,-16.34"/>
</a>
</g>
</g>
<!-- Node34 -->
<g id="Node000034" class="node">
<title>Node34</title>
<g id="a_Node000034"><a xlink:title=" ">
<polygon fill="#e0e0e0" stroke="#999999" points="321,-19.25 270.5,-19.25 270.5,0 321,0 321,-19.25"/>
<text text-anchor="middle" x="295.75" y="-5.75" font-family="Helvetica,sans-Serif" font-size="10.00">memory</text>
</a>
</g>
</g>
<!-- Node25&#45;&gt;Node34 -->
<g id="edge40_Node000025_Node000034" class="edge">
<title>Node25&#45;&gt;Node34</title>
<g id="a_edge40_Node000025_Node000034"><a xlink:title=" ">
<path fill="none" stroke="#63b8ff" d="M412.83,-54.84C390.25,-46.31 356.11,-33.42 330.52,-23.76"/>
<polygon fill="#63b8ff" stroke="#63b8ff" points="331.79,-20.5 321.2,-20.24 329.32,-27.04 331.79,-20.5"/>
</a>
</g>
</g>
<!-- Node35 -->
<g id="Node000035" class="node">
<title>Node35</title>
<g id="a_Node000035"><a xlink:title=" ">
<polygon fill="#e0e0e0" stroke="#999999" points="388.62,-19.25 338.88,-19.25 338.88,0 388.62,0 388.62,-19.25"/>
<text text-anchor="middle" x="363.75" y="-5.75" font-family="Helvetica,sans-Serif" font-size="10.00">unistd.h</text>
</a>
</g>
</g>
<!-- Node25&#45;&gt;Node35 -->
<g id="edge41_Node000025_Node000035" class="edge">
<title>Node25&#45;&gt;Node35</title>
<g id="a_edge41_Node000025_Node000035"><a xlink:title=" ">
<path fill="none" stroke="#63b8ff" d="M424.37,-54.84C413.6,-46.99 397.78,-35.45 385,-26.12"/>
<polygon fill="#63b8ff" stroke="#63b8ff" points="387.31,-23.48 377.17,-20.42 383.19,-29.14 387.31,-23.48"/>
</a>
</g>
</g>
<!-- Node36 -->
<g id="Node000036" class="node">
<title>Node36</title>
<g id="a_Node000036"><a xlink:title=" ">
<polygon fill="#e0e0e0" stroke="#999999" points="466.5,-19.25 407,-19.25 407,0 466.5,0 466.5,-19.25"/>
<text text-anchor="middle" x="436.75" y="-5.75" font-family="Helvetica,sans-Serif" font-size="10.00">sys/wait.h</text>
</a>
</g>
</g>
<!-- Node25&#45;&gt;Node36 -->
<g id="edge42_Node000025_Node000036" class="edge">
<title>Node25&#45;&gt;Node36</title>
<g id="a_edge42_Node000025_Node000036"><a xlink:title=" ">
<path fill="none" stroke="#63b8ff" d="M436.75,-55.08C436.75,-48.57 436.75,-39.42 436.75,-31.12"/>
<polygon fill="#63b8ff" stroke="#63b8ff" points="440.25,-31.12 436.75,-21.12 433.25,-31.12 440.25,-31.12"/>
</a>
</g>
</g>
<!-- Node37 -->
<g id="Node000037" class="node">
<title>Node37</title>
<g id="a_Node000037"><a xlink:title=" ">
<polygon fill="#e0e0e0" stroke="#999999" points="544.88,-19.25 484.62,-19.25 484.62,0 544.88,0 544.88,-19.25"/>
<text text-anchor="middle" x="514.75" y="-5.75" font-family="Helvetica,sans-Serif" font-size="10.00">sys/prctl.h</text>
</a>
</g>
</g>
<!-- Node25&#45;&gt;Node37 -->
<g id="edge43_Node000025_Node000037" class="edge">
<title>Node25&#45;&gt;Node37</title>
<g id="a_edge43_Node000025_Node000037"><a xlink:title=" ">
<path fill="none" stroke="#63b8ff" d="M449.98,-54.84C461.52,-46.96 478.52,-35.36 492.2,-26.02"/>
<polygon fill="#63b8ff" stroke="#63b8ff" points="493.92,-29.08 500.2,-20.56 489.97,-23.3 493.92,-29.08"/>
</a>
</g>
</g>
<!-- Node38&#45;&gt;Node18 -->
<g id="edge46_Node000038_Node000018" class="edge">
<title>Node38&#45;&gt;Node18</title>
<g id="a_edge46_Node000038_Node000018"><a xlink:title=" ">
<path fill="none" stroke="#63b8ff" d="M759.46,-110.09C779.78,-101.64 810.4,-88.9 833.56,-79.27"/>
<polygon fill="#63b8ff" stroke="#63b8ff" points="834.64,-82.61 842.53,-75.53 831.96,-76.14 834.64,-82.61"/>
</a>
</g>
</g>
<!-- Node38&#45;&gt;Node23 -->
<g id="edge45_Node000038_Node000023" class="edge">
<title>Node38&#45;&gt;Node23</title>
<g id="a_edge45_Node000038_Node000023"><a xlink:title=" ">
<path fill="none" stroke="#63b8ff" d="M744.6,-110.33C754.81,-97.5 774.94,-73.23 794.75,-55.25 806.59,-44.5 820.99,-33.88 832.82,-25.69"/>
<polygon fill="#63b8ff" stroke="#63b8ff" points="834.47,-28.79 840.78,-20.29 830.54,-23 834.47,-28.79"/>
</a>
</g>
</g>
<!-- Node38&#45;&gt;Node25 -->
<g id="edge51_Node000038_Node000025" class="edge">
<title>Node38&#45;&gt;Node25</title>
<g id="a_edge51_Node000038_Node000025"><a xlink:title=" ">
<path fill="none" stroke="#63b8ff" d="M702.7,-112.15C699.68,-111.58 696.66,-111.02 693.75,-110.5 599.76,-93.6 572.86,-93.72 476.53,-74.94"/>
<polygon fill="#63b8ff" stroke="#63b8ff" points="477.37,-71.54 466.88,-73.04 476.01,-78.41 477.37,-71.54"/>
</a>
</g>
</g>
<!-- Node39 -->
<g id="Node000039" class="node">
<title>Node39</title>
<g id="a_Node000039"><a xlink:title=" ">
<polygon fill="#e0e0e0" stroke="#999999" points="678.62,-74.5 610.88,-74.5 610.88,-55.25 678.62,-55.25 678.62,-74.5"/>
<text text-anchor="middle" x="644.75" y="-61" font-family="Helvetica,sans-Serif" font-size="10.00">TDirectory.h</text>
</a>
</g>
</g>
<!-- Node38&#45;&gt;Node39 -->
<g id="edge47_Node000038_Node000039" class="edge">
<title>Node38&#45;&gt;Node39</title>
<g id="a_edge47_Node000038_Node000039"><a xlink:title=" ">
<path fill="none" stroke="#63b8ff" d="M721.97,-110.09C707.81,-101.98 686.77,-89.93 670.22,-80.46"/>
<polygon fill="#63b8ff" stroke="#63b8ff" points="672.33,-77.64 661.92,-75.7 668.86,-83.71 672.33,-77.64"/>
</a>
</g>
</g>
<!-- Node40 -->
<g id="Node000040" class="node">
<title>Node40</title>
<g id="a_Node000040"><a xlink:title=" ">
<polygon fill="#e0e0e0" stroke="#999999" points="742.38,-74.5 697.12,-74.5 697.12,-55.25 742.38,-55.25 742.38,-74.5"/>
<text text-anchor="middle" x="719.75" y="-61" font-family="Helvetica,sans-Serif" font-size="10.00">TFile.h</text>
</a>
</g>
</g>
<!-- Node38&#45;&gt;Node40 -->
<g id="edge48_Node000038_Node000040" class="edge">
<title>Node38&#45;&gt;Node40</title>
<g id="a_edge48_Node000038_Node000040"><a xlink:title=" ">
<path fill="none" stroke="#63b8ff" d="M734.78,-110.33C732.5,-103.59 729.26,-94.02 726.38,-85.49"/>
<polygon fill="#63b8ff" stroke="#63b8ff" points="729.79,-84.65 723.27,-76.29 723.16,-86.89 729.79,-84.65"/>
</a>
</g>
</g>
<!-- Node41 -->
<g id="Node000041" class="node">
<title>Node41</title>
<g id="a_Node000041"><a xlink:title=" ">
<polygon fill="#e0e0e0" stroke="#999999" points="528.75,-74.5 482.75,-74.5 482.75,-55.25 528.75,-55.25 528.75,-74.5"/>
<text text-anchor="middle" x="505.75" y="-61" font-family="Helvetica,sans-Serif" font-size="10.00">TList.h</text>
</a>
</g>
</g>
<!-- Node38&#45;&gt;Node41 -->
<g id="edge49_Node000038_Node000041" class="edge">
<title>Node38&#45;&gt;Node41</title>
<g id="a_edge49_Node000038_Node000041"><a xlink:title=" ">
<path fill="none" stroke="#63b8ff" d="M702.6,-111.77C664.76,-103.74 602.55,-90.24 539.99,-74.97"/>
<polygon fill="#63b8ff" stroke="#63b8ff" points="541.15,-71.65 530.61,-72.67 539.48,-78.45 541.15,-71.65"/>
</a>
</g>
</g>
<!-- Node42 -->
<g id="Node000042" class="node">
<title>Node42</title>
<g id="a_Node000042"><a xlink:title=" ">
<polygon fill="#e0e0e0" stroke="#999999" points="592.75,-74.5 546.75,-74.5 546.75,-55.25 592.75,-55.25 592.75,-74.5"/>
<text text-anchor="middle" x="569.75" y="-61" font-family="Helvetica,sans-Serif" font-size="10.00">TKey.h</text>
</a>
</g>
</g>
<!-- Node38&#45;&gt;Node42 -->
<g id="edge50_Node000038_Node000042" class="edge">
<title>Node38&#45;&gt;Node42</title>
<g id="a_edge50_Node000038_Node000042"><a xlink:title=" ">
<path fill="none" stroke="#63b8ff" d="M709.25,-110.09C680.15,-100.87 634.97,-86.55 603.96,-76.72"/>
<polygon fill="#63b8ff" stroke="#63b8ff" points="605.26,-73.46 594.67,-73.77 603.15,-80.13 605.26,-73.46"/>
</a>
</g>
</g>
<!-- Node43&#45;&gt;Node23 -->
<g id="edge53_Node000043_Node000023" class="edge">
<title>Node43&#45;&gt;Node23</title>
<g id="a_edge53_Node000043_Node000023"><a xlink:title=" ">
<path fill="none" stroke="#63b8ff" d="M1090.94,-165.67C1095.17,-152.53 1100.88,-127.35 1089.75,-110.5 1045.98,-44.23 948.26,-21.78 893.96,-14.29"/>
<polygon fill="#63b8ff" stroke="#63b8ff" points="894.62,-10.84 884.26,-13.06 893.74,-17.79 894.62,-10.84"/>
</a>
</g>
</g>
<!-- Node44 -->
<g id="Node000044" class="node">
<title>Node44</title>
<g id="a_Node000044"><a xlink:title=" ">
<polygon fill="#e0e0e0" stroke="#999999" points="1024.62,-129.75 950.88,-129.75 950.88,-110.5 1024.62,-110.5 1024.62,-129.75"/>
<text text-anchor="middle" x="987.75" y="-116.25" font-family="Helvetica,sans-Serif" font-size="10.00">RtypesCore.h</text>
</a>
</g>
</g>
<!-- Node43&#45;&gt;Node44 -->
<g id="edge54_Node000043_Node000044" class="edge">
<title>Node43&#45;&gt;Node44</title>
<g id="a_edge54_Node000043_Node000044"><a xlink:title=" ">
<path fill="none" stroke="#63b8ff" d="M1070.79,-165.34C1055.49,-157.19 1032.72,-145.07 1014.89,-135.58"/>
<polygon fill="#63b8ff" stroke="#63b8ff" points="1016.6,-132.52 1006.13,-130.91 1013.31,-138.7 1016.6,-132.52"/>
</a>
</g>
</g>
</g>
</svg>
