<?xml version="1.0" encoding="UTF-8" standalone="no"?>
<!DOCTYPE svg PUBLIC "-//W3C//DTD SVG 1.1//EN"
 "http://www.w3.org/Graphics/SVG/1.1/DTD/svg11.dtd">
<!-- Generated by graphviz version 12.2.0 (20241103.1931)
 -->
<!-- Title: THILFragment.h Pages: 1 -->
<svg width="1387pt" height="359pt"
 viewBox="0.00 0.00 1387.00 358.75" xmlns="http://www.w3.org/2000/svg" xmlns:xlink="http://www.w3.org/1999/xlink">
<g id="graph0" class="graph" transform="scale(1 1) rotate(0) translate(4 354.75)">
<title>THILFragment.h</title>
<!-- Node1 -->
<g id="Node000001" class="node">
<title>Node1</title>
<g id="a_Node000001"><a xlink:title=" ">
<polygon fill="#999999" stroke="#666666" points="532.62,-350.75 445.38,-350.75 445.38,-331.5 532.62,-331.5 532.62,-350.75"/>
<text text-anchor="middle" x="489" y="-337.25" font-family="Helvetica,sans-Serif" font-size="10.00">THILFragment.h</text>
</a>
</g>
</g>
<!-- Node2 -->
<g id="Node000002" class="node">
<title>Node2</title>
<g id="a_Node000002"><a xlink:title=" ">
<polygon fill="#e0e0e0" stroke="#999999" points="78.5,-74.5 35.5,-74.5 35.5,-55.25 78.5,-55.25 78.5,-74.5"/>
<text text-anchor="middle" x="57" y="-61" font-family="Helvetica,sans-Serif" font-size="10.00">vector</text>
</a>
</g>
</g>
<!-- Node1&#45;&gt;Node2 -->
<g id="edge1_Node000001_Node000002" class="edge">
<title>Node1&#45;&gt;Node2</title>
<g id="a_edge1_Node000001_Node000002"><a xlink:title=" ">
<path fill="none" stroke="#63b8ff" d="M445.17,-339.68C325.15,-337.27 0,-322.39 0,-231.62 0,-231.62 0,-231.62 0,-174.38 0,-138.92 24.14,-103.66 41.01,-83.35"/>
<polygon fill="#63b8ff" stroke="#63b8ff" points="43.44,-85.88 47.35,-76.04 38.16,-81.3 43.44,-85.88"/>
</a>
</g>
</g>
<!-- Node3 -->
<g id="Node000003" class="node">
<title>Node3</title>
<g id="a_Node000003"><a xlink:href="_t_fragment_8h.html" target="_top" xlink:title=" ">
<polygon fill="white" stroke="#666666" points="999.38,-295.5 928.62,-295.5 928.62,-276.25 999.38,-276.25 999.38,-295.5"/>
<text text-anchor="middle" x="964" y="-282" font-family="Helvetica,sans-Serif" font-size="10.00">TFragment.h</text>
</a>
</g>
</g>
<!-- Node1&#45;&gt;Node3 -->
<g id="edge2_Node000001_Node000003" class="edge">
<title>Node1&#45;&gt;Node3</title>
<g id="a_edge2_Node000001_Node000003"><a xlink:title=" ">
<path fill="none" stroke="#63b8ff" d="M532.84,-335.21C622.26,-325.19 825.01,-302.46 917.02,-292.14"/>
<polygon fill="#63b8ff" stroke="#63b8ff" points="917.15,-295.65 926.7,-291.06 916.37,-288.69 917.15,-295.65"/>
</a>
</g>
</g>
<!-- Node3&#45;&gt;Node2 -->
<g id="edge57_Node000003_Node000002" class="edge">
<title>Node3&#45;&gt;Node2</title>
<g id="a_edge57_Node000003_Node000002"><a xlink:title=" ">
<path fill="none" stroke="#63b8ff" d="M928.34,-283.7C767.67,-278.05 116.26,-251.15 57,-185 32.7,-157.87 41.83,-111.69 49.9,-85.51"/>
<polygon fill="#63b8ff" stroke="#63b8ff" points="53.17,-86.76 53.03,-76.17 46.53,-84.54 53.17,-86.76"/>
</a>
</g>
</g>
<!-- Node4 -->
<g id="Node000004" class="node">
<title>Node4</title>
<g id="a_Node000004"><a xlink:href="_t_detector_hit_8h.html" target="_top" xlink:title=" ">
<polygon fill="white" stroke="#666666" points="926.5,-240.25 847.5,-240.25 847.5,-221 926.5,-221 926.5,-240.25"/>
<text text-anchor="middle" x="887" y="-226.75" font-family="Helvetica,sans-Serif" font-size="10.00">TDetectorHit.h</text>
</a>
</g>
</g>
<!-- Node3&#45;&gt;Node4 -->
<g id="edge3_Node000003_Node000004" class="edge">
<title>Node3&#45;&gt;Node4</title>
<g id="a_edge3_Node000003_Node000004"><a xlink:title=" ">
<path fill="none" stroke="#63b8ff" d="M950.94,-275.84C939.54,-267.96 922.77,-256.36 909.26,-247.02"/>
<polygon fill="#63b8ff" stroke="#63b8ff" points="911.59,-244.37 901.37,-241.56 907.6,-250.13 911.59,-244.37"/>
</a>
</g>
</g>
<!-- Node18 -->
<g id="Node000018" class="node">
<title>Node18</title>
<g id="a_Node000018"><a xlink:title=" ">
<polygon fill="#e0e0e0" stroke="#999999" points="1336.75,-185 1283.25,-185 1283.25,-165.75 1336.75,-165.75 1336.75,-185"/>
<text text-anchor="middle" x="1310" y="-171.5" font-family="Helvetica,sans-Serif" font-size="10.00">Rtypes.h</text>
</a>
</g>
</g>
<!-- Node3&#45;&gt;Node18 -->
<g id="edge59_Node000003_Node000018" class="edge">
<title>Node3&#45;&gt;Node18</title>
<g id="a_edge59_Node000003_Node000018"><a xlink:title=" ">
<path fill="none" stroke="#63b8ff" d="M968.99,-276.1C977.59,-261.88 996.65,-234.09 1021,-221 1119.1,-168.27 1159.34,-204.47 1269,-185 1270,-184.82 1271.02,-184.64 1272.04,-184.45"/>
<polygon fill="#63b8ff" stroke="#63b8ff" points="1272.51,-187.92 1281.66,-182.57 1271.17,-181.05 1272.51,-187.92"/>
</a>
</g>
</g>
<!-- Node20 -->
<g id="Node000020" class="node">
<title>Node20</title>
<g id="a_Node000020"><a xlink:href="_t_p_p_g_8h.html" target="_top" xlink:title=" ">
<polygon fill="white" stroke="#666666" points="999.25,-185 948.75,-185 948.75,-165.75 999.25,-165.75 999.25,-185"/>
<text text-anchor="middle" x="974" y="-171.5" font-family="Helvetica,sans-Serif" font-size="10.00">TPPG.h</text>
</a>
</g>
</g>
<!-- Node3&#45;&gt;Node20 -->
<g id="edge55_Node000003_Node000020" class="edge">
<title>Node3&#45;&gt;Node20</title>
<g id="a_edge55_Node000003_Node000020"><a xlink:title=" ">
<path fill="none" stroke="#63b8ff" d="M964.82,-276C966.41,-258.75 969.95,-220.33 972.14,-196.56"/>
<polygon fill="#63b8ff" stroke="#63b8ff" points="975.6,-197.16 973.03,-186.88 968.63,-196.52 975.6,-197.16"/>
</a>
</g>
</g>
<!-- Node22 -->
<g id="Node000022" class="node">
<title>Node22</title>
<g id="a_Node000022"><a xlink:title=" ">
<polygon fill="#e0e0e0" stroke="#999999" points="1326.75,-19.25 1273.25,-19.25 1273.25,0 1326.75,0 1326.75,-19.25"/>
<text text-anchor="middle" x="1300" y="-5.75" font-family="Helvetica,sans-Serif" font-size="10.00">iostream</text>
</a>
</g>
</g>
<!-- Node3&#45;&gt;Node22 -->
<g id="edge56_Node000003_Node000022" class="edge">
<title>Node3&#45;&gt;Node22</title>
<g id="a_edge56_Node000003_Node000022"><a xlink:title=" ">
<path fill="none" stroke="#63b8ff" d="M999.74,-283.18C1100.41,-277.43 1379,-254.48 1379,-176.38 1379,-176.38 1379,-176.38 1379,-119.12 1379,-89.51 1376.97,-79.52 1360,-55.25 1351.6,-43.24 1338.94,-33.14 1327.4,-25.6"/>
<polygon fill="#63b8ff" stroke="#63b8ff" points="1329.34,-22.69 1318.99,-20.45 1325.69,-28.66 1329.34,-22.69"/>
</a>
</g>
</g>
<!-- Node45 -->
<g id="Node000045" class="node">
<title>Node45</title>
<g id="a_Node000045"><a xlink:title=" ">
<polygon fill="#e0e0e0" stroke="#999999" points="1070,-240.25 1030,-240.25 1030,-221 1070,-221 1070,-240.25"/>
<text text-anchor="middle" x="1050" y="-226.75" font-family="Helvetica,sans-Serif" font-size="10.00">ctime</text>
</a>
</g>
</g>
<!-- Node3&#45;&gt;Node45 -->
<g id="edge58_Node000003_Node000045" class="edge">
<title>Node3&#45;&gt;Node45</title>
<g id="a_edge58_Node000003_Node000045"><a xlink:title=" ">
<path fill="none" stroke="#63b8ff" d="M978.59,-275.84C991.44,-267.89 1010.41,-256.14 1025.57,-246.75"/>
<polygon fill="#63b8ff" stroke="#63b8ff" points="1027.39,-249.74 1034.05,-241.5 1023.71,-243.79 1027.39,-249.74"/>
</a>
</g>
</g>
<!-- Node4&#45;&gt;Node2 -->
<g id="edge4_Node000004_Node000002" class="edge">
<title>Node4&#45;&gt;Node2</title>
<g id="a_edge4_Node000004_Node000002"><a xlink:title=" ">
<path fill="none" stroke="#63b8ff" d="M847.15,-229.21C704.38,-227.04 220.3,-213.51 95,-129.75 79.26,-119.23 69.07,-99.77 63.25,-85.09"/>
<polygon fill="#63b8ff" stroke="#63b8ff" points="66.67,-84.26 60,-76.02 60.08,-86.62 66.67,-84.26"/>
</a>
</g>
</g>
<!-- Node5 -->
<g id="Node000005" class="node">
<title>Node5</title>
<g id="a_Node000005"><a xlink:href="_t_channel_8h.html" target="_top" xlink:title=" ">
<polygon fill="white" stroke="#666666" points="548.38,-185 483.62,-185 483.62,-165.75 548.38,-165.75 548.38,-185"/>
<text text-anchor="middle" x="516" y="-171.5" font-family="Helvetica,sans-Serif" font-size="10.00">TChannel.h</text>
</a>
</g>
</g>
<!-- Node4&#45;&gt;Node5 -->
<g id="edge5_Node000004_Node000005" class="edge">
<title>Node4&#45;&gt;Node5</title>
<g id="a_edge5_Node000004_Node000005"><a xlink:title=" ">
<path fill="none" stroke="#63b8ff" d="M847.3,-223.93C777.3,-213.88 632.47,-193.09 559.72,-182.65"/>
<polygon fill="#63b8ff" stroke="#63b8ff" points="560.58,-179.24 550.18,-181.28 559.58,-186.17 560.58,-179.24"/>
</a>
</g>
</g>
<!-- Node16 -->
<g id="Node000016" class="node">
<title>Node16</title>
<g id="a_Node000016"><a xlink:title=" ">
<polygon fill="#e0e0e0" stroke="#999999" points="825.62,-185 762.38,-185 762.38,-165.75 825.62,-165.75 825.62,-185"/>
<text text-anchor="middle" x="794" y="-171.5" font-family="Helvetica,sans-Serif" font-size="10.00">TVector3.h</text>
</a>
</g>
</g>
<!-- Node4&#45;&gt;Node16 -->
<g id="edge18_Node000004_Node000016" class="edge">
<title>Node4&#45;&gt;Node16</title>
<g id="a_edge18_Node000004_Node000016"><a xlink:title=" ">
<path fill="none" stroke="#63b8ff" d="M871.22,-220.59C857.06,-212.48 836.02,-200.43 819.47,-190.96"/>
<polygon fill="#63b8ff" stroke="#63b8ff" points="821.58,-188.14 811.17,-186.2 818.11,-194.21 821.58,-188.14"/>
</a>
</g>
</g>
<!-- Node17 -->
<g id="Node000017" class="node">
<title>Node17</title>
<g id="a_Node000017"><a xlink:title=" ">
<polygon fill="#e0e0e0" stroke="#999999" points="1351,-74.5 1293,-74.5 1293,-55.25 1351,-55.25 1351,-74.5"/>
<text text-anchor="middle" x="1322" y="-61" font-family="Helvetica,sans-Serif" font-size="10.00">TObject.h</text>
</a>
</g>
</g>
<!-- Node4&#45;&gt;Node17 -->
<g id="edge19_Node000004_Node000017" class="edge">
<title>Node4&#45;&gt;Node17</title>
<g id="a_edge19_Node000004_Node000017"><a xlink:title=" ">
<path fill="none" stroke="#63b8ff" d="M926.85,-222.61C992.75,-210.03 1127.54,-180.15 1232,-129.75 1258.65,-116.89 1285.89,-96.31 1303.32,-82"/>
<polygon fill="#63b8ff" stroke="#63b8ff" points="1305.35,-84.86 1310.76,-75.75 1300.85,-79.5 1305.35,-84.86"/>
</a>
</g>
</g>
<!-- Node4&#45;&gt;Node18 -->
<g id="edge20_Node000004_Node000018" class="edge">
<title>Node4&#45;&gt;Node18</title>
<g id="a_edge20_Node000004_Node000018"><a xlink:title=" ">
<path fill="none" stroke="#63b8ff" d="M926.76,-226.18C996.38,-219.89 1144.78,-205.28 1269,-185 1270.01,-184.84 1271.02,-184.66 1272.05,-184.49"/>
<polygon fill="#63b8ff" stroke="#63b8ff" points="1272.5,-187.96 1281.67,-182.67 1271.2,-181.08 1272.5,-187.96"/>
</a>
</g>
</g>
<!-- Node19 -->
<g id="Node000019" class="node">
<title>Node19</title>
<g id="a_Node000019"><a xlink:title=" ">
<polygon fill="#e0e0e0" stroke="#999999" points="131.75,-185 66.25,-185 66.25,-165.75 131.75,-165.75 131.75,-185"/>
<text text-anchor="middle" x="99" y="-171.5" font-family="Helvetica,sans-Serif" font-size="10.00">TRandom.h</text>
</a>
</g>
</g>
<!-- Node4&#45;&gt;Node19 -->
<g id="edge21_Node000004_Node000019" class="edge">
<title>Node4&#45;&gt;Node19</title>
<g id="a_edge21_Node000004_Node000019"><a xlink:title=" ">
<path fill="none" stroke="#63b8ff" d="M847.09,-228.92C735.74,-226.6 412.43,-217.35 146,-185 145.15,-184.9 144.29,-184.79 143.43,-184.67"/>
<polygon fill="#63b8ff" stroke="#63b8ff" points="143.95,-181.21 133.54,-183.19 142.91,-188.14 143.95,-181.21"/>
</a>
</g>
</g>
<!-- Node4&#45;&gt;Node20 -->
<g id="edge22_Node000004_Node000020" class="edge">
<title>Node4&#45;&gt;Node20</title>
<g id="a_edge22_Node000004_Node000020"><a xlink:title=" ">
<path fill="none" stroke="#63b8ff" d="M901.76,-220.59C914.88,-212.56 934.32,-200.66 949.73,-191.23"/>
<polygon fill="#63b8ff" stroke="#63b8ff" points="951.18,-194.45 957.88,-186.24 947.52,-188.48 951.18,-194.45"/>
</a>
</g>
</g>
<!-- Node43 -->
<g id="Node000043" class="node">
<title>Node43</title>
<g id="a_Node000043"><a xlink:href="_t_transient_bits_8h.html" target="_top" xlink:title=" ">
<polygon fill="white" stroke="#666666" points="930.62,-185 843.38,-185 843.38,-165.75 930.62,-165.75 930.62,-185"/>
<text text-anchor="middle" x="887" y="-171.5" font-family="Helvetica,sans-Serif" font-size="10.00">TTransientBits.h</text>
</a>
</g>
</g>
<!-- Node4&#45;&gt;Node43 -->
<g id="edge52_Node000004_Node000043" class="edge">
<title>Node4&#45;&gt;Node43</title>
<g id="a_edge52_Node000004_Node000043"><a xlink:title=" ">
<path fill="none" stroke="#63b8ff" d="M887,-220.83C887,-214.32 887,-205.17 887,-196.87"/>
<polygon fill="#63b8ff" stroke="#63b8ff" points="890.5,-196.87 887,-186.87 883.5,-196.87 890.5,-196.87"/>
</a>
</g>
</g>
<!-- Node6 -->
<g id="Node000006" class="node">
<title>Node6</title>
<g id="a_Node000006"><a xlink:title=" ">
<polygon fill="#e0e0e0" stroke="#999999" points="362,-19.25 322,-19.25 322,0 362,0 362,-19.25"/>
<text text-anchor="middle" x="342" y="-5.75" font-family="Helvetica,sans-Serif" font-size="10.00">string</text>
</a>
</g>
</g>
<!-- Node5&#45;&gt;Node6 -->
<g id="edge6_Node000005_Node000006" class="edge">
<title>Node5&#45;&gt;Node6</title>
<g id="a_edge6_Node000005_Node000006"><a xlink:title=" ">
<path fill="none" stroke="#63b8ff" d="M548.61,-172.4C601.94,-167.89 698.88,-153.65 667,-110.5 664.73,-107.43 453.99,-44.13 373.11,-19.92"/>
<polygon fill="#63b8ff" stroke="#63b8ff" points="374.2,-16.6 363.61,-17.08 372.19,-23.3 374.2,-16.6"/>
</a>
</g>
</g>
<!-- Node7 -->
<g id="Node000007" class="node">
<title>Node7</title>
<g id="a_Node000007"><a xlink:title=" ">
<polygon fill="#e0e0e0" stroke="#999999" points="411.5,-129.75 368.5,-129.75 368.5,-110.5 411.5,-110.5 411.5,-129.75"/>
<text text-anchor="middle" x="390" y="-116.25" font-family="Helvetica,sans-Serif" font-size="10.00">cmath</text>
</a>
</g>
</g>
<!-- Node5&#45;&gt;Node7 -->
<g id="edge7_Node000005_Node000007" class="edge">
<title>Node5&#45;&gt;Node7</title>
<g id="a_edge7_Node000005_Node000007"><a xlink:title=" ">
<path fill="none" stroke="#63b8ff" d="M494.63,-165.34C474.71,-156.93 444.76,-144.27 422,-134.65"/>
<polygon fill="#63b8ff" stroke="#63b8ff" points="423.45,-131.46 412.87,-130.79 420.72,-137.91 423.45,-131.46"/>
</a>
</g>
</g>
<!-- Node8 -->
<g id="Node000008" class="node">
<title>Node8</title>
<g id="a_Node000008"><a xlink:title=" ">
<polygon fill="#e0e0e0" stroke="#999999" points="753.25,-129.75 714.75,-129.75 714.75,-110.5 753.25,-110.5 753.25,-129.75"/>
<text text-anchor="middle" x="734" y="-116.25" font-family="Helvetica,sans-Serif" font-size="10.00">utility</text>
</a>
</g>
</g>
<!-- Node5&#45;&gt;Node8 -->
<g id="edge8_Node000005_Node000008" class="edge">
<title>Node5&#45;&gt;Node8</title>
<g id="a_edge8_Node000005_Node000008"><a xlink:title=" ">
<path fill="none" stroke="#63b8ff" d="M548.8,-166.66C585.81,-157.91 647.81,-143.12 701,-129.75 701.82,-129.54 702.65,-129.33 703.48,-129.12"/>
<polygon fill="#63b8ff" stroke="#63b8ff" points="704.19,-132.55 713.01,-126.67 702.45,-125.78 704.19,-132.55"/>
</a>
</g>
</g>
<!-- Node9 -->
<g id="Node000009" class="node">
<title>Node9</title>
<g id="a_Node000009"><a xlink:title=" ">
<polygon fill="#e0e0e0" stroke="#999999" points="512.38,-129.75 429.62,-129.75 429.62,-110.5 512.38,-110.5 512.38,-129.75"/>
<text text-anchor="middle" x="471" y="-116.25" font-family="Helvetica,sans-Serif" font-size="10.00">unordered_map</text>
</a>
</g>
</g>
<!-- Node5&#45;&gt;Node9 -->
<g id="edge9_Node000005_Node000009" class="edge">
<title>Node5&#45;&gt;Node9</title>
<g id="a_edge9_Node000005_Node000009"><a xlink:title=" ">
<path fill="none" stroke="#63b8ff" d="M508.57,-165.58C502.42,-158.3 493.49,-147.73 485.87,-138.73"/>
<polygon fill="#63b8ff" stroke="#63b8ff" points="488.7,-136.64 479.57,-131.27 483.35,-141.16 488.7,-136.64"/>
</a>
</g>
</g>
<!-- Node10 -->
<g id="Node000010" class="node">
<title>Node10</title>
<g id="a_Node000010"><a xlink:title=" ">
<polygon fill="#e0e0e0" stroke="#999999" points="591.5,-129.75 530.5,-129.75 530.5,-110.5 591.5,-110.5 591.5,-129.75"/>
<text text-anchor="middle" x="561" y="-116.25" font-family="Helvetica,sans-Serif" font-size="10.00">TNamed.h</text>
</a>
</g>
</g>
<!-- Node5&#45;&gt;Node10 -->
<g id="edge10_Node000005_Node000010" class="edge">
<title>Node5&#45;&gt;Node10</title>
<g id="a_edge10_Node000005_Node000010"><a xlink:title=" ">
<path fill="none" stroke="#63b8ff" d="M523.43,-165.58C529.58,-158.3 538.51,-147.73 546.13,-138.73"/>
<polygon fill="#63b8ff" stroke="#63b8ff" points="548.65,-141.16 552.43,-131.27 543.3,-136.64 548.65,-141.16"/>
</a>
</g>
</g>
<!-- Node11 -->
<g id="Node000011" class="node">
<title>Node11</title>
<g id="a_Node000011"><a xlink:title=" ">
<polygon fill="#e0e0e0" stroke="#999999" points="658.5,-129.75 609.5,-129.75 609.5,-110.5 658.5,-110.5 658.5,-129.75"/>
<text text-anchor="middle" x="634" y="-116.25" font-family="Helvetica,sans-Serif" font-size="10.00">TTree.h</text>
</a>
</g>
</g>
<!-- Node5&#45;&gt;Node11 -->
<g id="edge11_Node000005_Node000011" class="edge">
<title>Node5&#45;&gt;Node11</title>
<g id="a_edge11_Node000005_Node000011"><a xlink:title=" ">
<path fill="none" stroke="#63b8ff" d="M536.02,-165.34C554.49,-157 582.21,-144.5 603.45,-134.91"/>
<polygon fill="#63b8ff" stroke="#63b8ff" points="604.83,-138.13 612.51,-130.83 601.95,-131.75 604.83,-138.13"/>
</a>
</g>
</g>
<!-- Node12 -->
<g id="Node000012" class="node">
<title>Node12</title>
<g id="a_Node000012"><a xlink:title=" ">
<polygon fill="#e0e0e0" stroke="#999999" points="159.88,-129.75 104.12,-129.75 104.12,-110.5 159.88,-110.5 159.88,-129.75"/>
<text text-anchor="middle" x="132" y="-116.25" font-family="Helvetica,sans-Serif" font-size="10.00">TGraph.h</text>
</a>
</g>
</g>
<!-- Node5&#45;&gt;Node12 -->
<g id="edge12_Node000005_Node000012" class="edge">
<title>Node5&#45;&gt;Node12</title>
<g id="a_edge12_Node000005_Node000012"><a xlink:title=" ">
<path fill="none" stroke="#63b8ff" d="M483.3,-171.28C423.44,-165.39 292.04,-151.34 171.48,-130.03"/>
<polygon fill="#63b8ff" stroke="#63b8ff" points="172.17,-126.6 161.71,-128.28 170.94,-133.49 172.17,-126.6"/>
</a>
</g>
</g>
<!-- Node13 -->
<g id="Node000013" class="node">
<title>Node13</title>
<g id="a_Node000013"><a xlink:title=" ">
<polygon fill="#e0e0e0" stroke="#999999" points="247.62,-129.75 178.38,-129.75 178.38,-110.5 247.62,-110.5 247.62,-129.75"/>
<text text-anchor="middle" x="213" y="-116.25" font-family="Helvetica,sans-Serif" font-size="10.00">TClassRef.h</text>
</a>
</g>
</g>
<!-- Node5&#45;&gt;Node13 -->
<g id="edge13_Node000005_Node000013" class="edge">
<title>Node5&#45;&gt;Node13</title>
<g id="a_edge13_Node000005_Node000013"><a xlink:title=" ">
<path fill="none" stroke="#63b8ff" d="M483.25,-168.98C436.08,-161.16 346,-146.01 259.17,-130.11"/>
<polygon fill="#63b8ff" stroke="#63b8ff" points="260.01,-126.71 249.54,-128.34 258.74,-133.59 260.01,-126.71"/>
</a>
</g>
</g>
<!-- Node14 -->
<g id="Node000014" class="node">
<title>Node14</title>
<g id="a_Node000014"><a xlink:href="_t_priority_value_8h.html" target="_top" xlink:title=" ">
<polygon fill="white" stroke="#666666" points="350.12,-129.75 265.88,-129.75 265.88,-110.5 350.12,-110.5 350.12,-129.75"/>
<text text-anchor="middle" x="308" y="-116.25" font-family="Helvetica,sans-Serif" font-size="10.00">TPriorityValue.h</text>
</a>
</g>
</g>
<!-- Node5&#45;&gt;Node14 -->
<g id="edge14_Node000005_Node000014" class="edge">
<title>Node5&#45;&gt;Node14</title>
<g id="a_edge14_Node000005_Node000014"><a xlink:title=" ">
<path fill="none" stroke="#63b8ff" d="M483.5,-166.05C448.87,-157.19 393.74,-143.08 354.52,-133.03"/>
<polygon fill="#63b8ff" stroke="#63b8ff" points="355.42,-129.65 344.87,-130.56 353.69,-136.43 355.42,-129.65"/>
</a>
</g>
</g>
<!-- Node14&#45;&gt;Node2 -->
<g id="edge17_Node000014_Node000002" class="edge">
<title>Node14&#45;&gt;Node2</title>
<g id="a_edge17_Node000014_Node000002"><a xlink:title=" ">
<path fill="none" stroke="#63b8ff" d="M265.42,-110.09C215.86,-99.58 135.08,-82.44 90.02,-72.88"/>
<polygon fill="#63b8ff" stroke="#63b8ff" points="90.84,-69.48 80.33,-70.82 89.38,-76.32 90.84,-69.48"/>
</a>
</g>
</g>
<!-- Node14&#45;&gt;Node6 -->
<g id="edge16_Node000014_Node000006" class="edge">
<title>Node14&#45;&gt;Node6</title>
<g id="a_edge16_Node000014_Node000006"><a xlink:title=" ">
<path fill="none" stroke="#63b8ff" d="M311.08,-110.26C314.18,-101.28 319.05,-86.97 323,-74.5 327.66,-59.78 332.63,-43.04 336.32,-30.39"/>
<polygon fill="#63b8ff" stroke="#63b8ff" points="339.68,-31.37 339.09,-20.79 332.95,-29.42 339.68,-31.37"/>
</a>
</g>
</g>
<!-- Node15 -->
<g id="Node000015" class="node">
<title>Node15</title>
<g id="a_Node000015"><a xlink:title=" ">
<polygon fill="#e0e0e0" stroke="#999999" points="313.62,-74.5 262.38,-74.5 262.38,-55.25 313.62,-55.25 313.62,-74.5"/>
<text text-anchor="middle" x="288" y="-61" font-family="Helvetica,sans-Serif" font-size="10.00">ostream</text>
</a>
</g>
</g>
<!-- Node14&#45;&gt;Node15 -->
<g id="edge15_Node000014_Node000015" class="edge">
<title>Node14&#45;&gt;Node15</title>
<g id="a_edge15_Node000014_Node000015"><a xlink:title=" ">
<path fill="none" stroke="#63b8ff" d="M304.7,-110.33C302.17,-103.59 298.57,-94.02 295.37,-85.49"/>
<polygon fill="#63b8ff" stroke="#63b8ff" points="298.7,-84.41 291.91,-76.28 292.15,-86.87 298.7,-84.41"/>
</a>
</g>
</g>
<!-- Node20&#45;&gt;Node8 -->
<g id="edge24_Node000020_Node000008" class="edge">
<title>Node20&#45;&gt;Node8</title>
<g id="a_edge24_Node000020_Node000008"><a xlink:title=" ">
<path fill="none" stroke="#63b8ff" d="M948.41,-167.74C945.58,-167.05 942.73,-166.37 940,-165.75 864.69,-148.59 842.14,-149.53 764.34,-130.14"/>
<polygon fill="#63b8ff" stroke="#63b8ff" points="765.53,-126.84 754.98,-127.78 763.82,-133.62 765.53,-126.84"/>
</a>
</g>
</g>
<!-- Node20&#45;&gt;Node17 -->
<g id="edge26_Node000020_Node000017" class="edge">
<title>Node20&#45;&gt;Node17</title>
<g id="a_edge26_Node000020_Node000017"><a xlink:title=" ">
<path fill="none" stroke="#63b8ff" d="M999.47,-171.65C1041.67,-166.61 1128.37,-154.08 1198,-129.75 1217.43,-122.96 1265.71,-97.03 1295.98,-80.37"/>
<polygon fill="#63b8ff" stroke="#63b8ff" points="1297.47,-83.54 1304.53,-75.64 1294.08,-77.42 1297.47,-83.54"/>
</a>
</g>
</g>
<!-- Node21 -->
<g id="Node000021" class="node">
<title>Node21</title>
<g id="a_Node000021"><a xlink:title=" ">
<polygon fill="#e0e0e0" stroke="#999999" points="1189.38,-129.75 1154.62,-129.75 1154.62,-110.5 1189.38,-110.5 1189.38,-129.75"/>
<text text-anchor="middle" x="1172" y="-116.25" font-family="Helvetica,sans-Serif" font-size="10.00">map</text>
</a>
</g>
</g>
<!-- Node20&#45;&gt;Node21 -->
<g id="edge23_Node000020_Node000021" class="edge">
<title>Node20&#45;&gt;Node21</title>
<g id="a_edge23_Node000020_Node000021"><a xlink:title=" ">
<path fill="none" stroke="#63b8ff" d="M999.5,-168.32C1031.17,-160.68 1087.06,-146.81 1143.28,-130.42"/>
<polygon fill="#63b8ff" stroke="#63b8ff" points="1144.09,-133.83 1152.69,-127.65 1142.11,-127.11 1144.09,-133.83"/>
</a>
</g>
</g>
<!-- Node20&#45;&gt;Node22 -->
<g id="edge25_Node000020_Node000022" class="edge">
<title>Node20&#45;&gt;Node22</title>
<g id="a_edge25_Node000020_Node000022"><a xlink:title=" ">
<path fill="none" stroke="#63b8ff" d="M969.89,-165.54C960.43,-143.74 939.99,-86.87 968,-55.25 1009.88,-7.97 1181.58,-28.78 1261.8,-19.12"/>
<polygon fill="#63b8ff" stroke="#63b8ff" points="1262.07,-22.61 1271.45,-17.68 1261.04,-15.69 1262.07,-22.61"/>
</a>
</g>
</g>
<!-- Node23 -->
<g id="Node000023" class="node">
<title>Node23</title>
<g id="a_Node000023"><a xlink:title=" ">
<polygon fill="#e0e0e0" stroke="#999999" points="1049.12,-129.75 976.88,-129.75 976.88,-110.5 1049.12,-110.5 1049.12,-129.75"/>
<text text-anchor="middle" x="1013" y="-116.25" font-family="Helvetica,sans-Serif" font-size="10.00">TCollection.h</text>
</a>
</g>
</g>
<!-- Node20&#45;&gt;Node23 -->
<g id="edge27_Node000020_Node000023" class="edge">
<title>Node20&#45;&gt;Node23</title>
<g id="a_edge27_Node000020_Node000023"><a xlink:title=" ">
<path fill="none" stroke="#63b8ff" d="M980.44,-165.58C985.66,-158.46 993.19,-148.18 999.69,-139.3"/>
<polygon fill="#63b8ff" stroke="#63b8ff" points="1002.44,-141.47 1005.53,-131.33 996.79,-137.33 1002.44,-141.47"/>
</a>
</g>
</g>
<!-- Node24 -->
<g id="Node000024" class="node">
<title>Node24</title>
<g id="a_Node000024"><a xlink:href="_globals_8h.html" target="_top" xlink:title=" ">
<polygon fill="white" stroke="#666666" points="883.25,-74.5 826.75,-74.5 826.75,-55.25 883.25,-55.25 883.25,-74.5"/>
<text text-anchor="middle" x="855" y="-61" font-family="Helvetica,sans-Serif" font-size="10.00">Globals.h</text>
</a>
</g>
</g>
<!-- Node20&#45;&gt;Node24 -->
<g id="edge28_Node000020_Node000024" class="edge">
<title>Node20&#45;&gt;Node24</title>
<g id="a_edge28_Node000020_Node000024"><a xlink:title=" ">
<path fill="none" stroke="#63b8ff" d="M964.26,-165.5C944.39,-147.38 898.88,-105.88 873.31,-82.57"/>
<polygon fill="#63b8ff" stroke="#63b8ff" points="875.74,-80.05 865.99,-75.9 871.02,-85.22 875.74,-80.05"/>
</a>
</g>
</g>
<!-- Node38 -->
<g id="Node000038" class="node">
<title>Node38</title>
<g id="a_Node000038"><a xlink:href="_t_singleton_8h.html" target="_top" xlink:title=" ">
<polygon fill="white" stroke="#666666" points="1137,-129.75 1067,-129.75 1067,-110.5 1137,-110.5 1137,-129.75"/>
<text text-anchor="middle" x="1102" y="-116.25" font-family="Helvetica,sans-Serif" font-size="10.00">TSingleton.h</text>
</a>
</g>
</g>
<!-- Node20&#45;&gt;Node38 -->
<g id="edge44_Node000020_Node000038" class="edge">
<title>Node20&#45;&gt;Node38</title>
<g id="a_edge44_Node000020_Node000038"><a xlink:title=" ">
<path fill="none" stroke="#63b8ff" d="M995.71,-165.34C1016.03,-156.89 1046.65,-144.15 1069.81,-134.52"/>
<polygon fill="#63b8ff" stroke="#63b8ff" points="1070.89,-137.86 1078.78,-130.78 1068.21,-131.39 1070.89,-137.86"/>
</a>
</g>
</g>
<!-- Node24&#45;&gt;Node6 -->
<g id="edge32_Node000024_Node000006" class="edge">
<title>Node24&#45;&gt;Node6</title>
<g id="a_edge32_Node000024_Node000006"><a xlink:title=" ">
<path fill="none" stroke="#63b8ff" d="M826.41,-61.98C739.61,-56.13 479.12,-37.69 373.66,-19.32"/>
<polygon fill="#63b8ff" stroke="#63b8ff" points="374.43,-15.9 363.96,-17.53 373.16,-22.79 374.43,-15.9"/>
</a>
</g>
</g>
<!-- Node24&#45;&gt;Node22 -->
<g id="edge29_Node000024_Node000022" class="edge">
<title>Node24&#45;&gt;Node22</title>
<g id="a_edge29_Node000024_Node000022"><a xlink:title=" ">
<path fill="none" stroke="#63b8ff" d="M883.39,-57.62C887.93,-56.75 892.58,-55.92 897,-55.25 1055.41,-31.28 1100.37,-45.72 1261.65,-19.41"/>
<polygon fill="#63b8ff" stroke="#63b8ff" points="1262.17,-22.87 1271.46,-17.77 1261.02,-15.96 1262.17,-22.87"/>
</a>
</g>
</g>
<!-- Node25 -->
<g id="Node000025" class="node">
<title>Node25</title>
<g id="a_Node000025"><a xlink:title=" ">
<polygon fill="#e0e0e0" stroke="#999999" points="1254.88,-19.25 1205.12,-19.25 1205.12,0 1254.88,0 1254.88,-19.25"/>
<text text-anchor="middle" x="1230" y="-5.75" font-family="Helvetica,sans-Serif" font-size="10.00">iomanip</text>
</a>
</g>
</g>
<!-- Node24&#45;&gt;Node25 -->
<g id="edge30_Node000024_Node000025" class="edge">
<title>Node24&#45;&gt;Node25</title>
<g id="a_edge30_Node000024_Node000025"><a xlink:title=" ">
<path fill="none" stroke="#63b8ff" d="M883.41,-57.71C887.94,-56.82 892.59,-55.97 897,-55.25 1025.5,-34.36 1062.41,-43.23 1193.54,-19.48"/>
<polygon fill="#63b8ff" stroke="#63b8ff" points="1194.14,-22.93 1203.34,-17.67 1192.87,-16.04 1194.14,-22.93"/>
</a>
</g>
</g>
<!-- Node26 -->
<g id="Node000026" class="node">
<title>Node26</title>
<g id="a_Node000026"><a xlink:title=" ">
<polygon fill="#e0e0e0" stroke="#999999" points="438,-19.25 380,-19.25 380,0 438,0 438,-19.25"/>
<text text-anchor="middle" x="409" y="-5.75" font-family="Helvetica,sans-Serif" font-size="10.00">stdexcept</text>
</a>
</g>
</g>
<!-- Node24&#45;&gt;Node26 -->
<g id="edge31_Node000024_Node000026" class="edge">
<title>Node24&#45;&gt;Node26</title>
<g id="a_edge31_Node000024_Node000026"><a xlink:title=" ">
<path fill="none" stroke="#63b8ff" d="M826.65,-61.9C761.69,-57.12 596.91,-43.66 449.43,-19.48"/>
<polygon fill="#63b8ff" stroke="#63b8ff" points="450.32,-16.08 439.89,-17.89 449.18,-22.99 450.32,-16.08"/>
</a>
</g>
</g>
<!-- Node27 -->
<g id="Node000027" class="node">
<title>Node27</title>
<g id="a_Node000027"><a xlink:title=" ">
<polygon fill="#e0e0e0" stroke="#999999" points="498.12,-19.25 455.88,-19.25 455.88,0 498.12,0 498.12,-19.25"/>
<text text-anchor="middle" x="477" y="-5.75" font-family="Helvetica,sans-Serif" font-size="10.00">cstdio</text>
</a>
</g>
</g>
<!-- Node24&#45;&gt;Node27 -->
<g id="edge33_Node000024_Node000027" class="edge">
<title>Node24&#45;&gt;Node27</title>
<g id="a_edge33_Node000024_Node000027"><a xlink:title=" ">
<path fill="none" stroke="#63b8ff" d="M826.34,-61.69C768.27,-56.94 632.48,-44.24 509.62,-19.51"/>
<polygon fill="#63b8ff" stroke="#63b8ff" points="510.51,-16.12 500.01,-17.54 509.11,-22.98 510.51,-16.12"/>
</a>
</g>
</g>
<!-- Node28 -->
<g id="Node000028" class="node">
<title>Node28</title>
<g id="a_Node000028"><a xlink:title=" ">
<polygon fill="#e0e0e0" stroke="#999999" points="561.62,-19.25 516.38,-19.25 516.38,0 561.62,0 561.62,-19.25"/>
<text text-anchor="middle" x="539" y="-5.75" font-family="Helvetica,sans-Serif" font-size="10.00">cstdint</text>
</a>
</g>
</g>
<!-- Node24&#45;&gt;Node28 -->
<g id="edge34_Node000024_Node000028" class="edge">
<title>Node24&#45;&gt;Node28</title>
<g id="a_edge34_Node000024_Node000028"><a xlink:title=" ">
<path fill="none" stroke="#63b8ff" d="M826.6,-60.44C777.12,-54.24 671.74,-40.05 573.07,-19.48"/>
<polygon fill="#63b8ff" stroke="#63b8ff" points="573.99,-16.1 563.48,-17.45 572.54,-22.95 573.99,-16.1"/>
</a>
</g>
</g>
<!-- Node29 -->
<g id="Node000029" class="node">
<title>Node29</title>
<g id="a_Node000029"><a xlink:title=" ">
<polygon fill="#e0e0e0" stroke="#999999" points="624.25,-19.25 579.75,-19.25 579.75,0 624.25,0 624.25,-19.25"/>
<text text-anchor="middle" x="602" y="-5.75" font-family="Helvetica,sans-Serif" font-size="10.00">cstdlib</text>
</a>
</g>
</g>
<!-- Node24&#45;&gt;Node29 -->
<g id="edge35_Node000024_Node000029" class="edge">
<title>Node24&#45;&gt;Node29</title>
<g id="a_edge35_Node000024_Node000029"><a xlink:title=" ">
<path fill="none" stroke="#63b8ff" d="M826.47,-58.83C786.06,-51.53 709.62,-37.19 635.54,-19.73"/>
<polygon fill="#63b8ff" stroke="#63b8ff" points="636.65,-16.39 626.11,-17.48 635.03,-23.2 636.65,-16.39"/>
</a>
</g>
</g>
<!-- Node30 -->
<g id="Node000030" class="node">
<title>Node30</title>
<g id="a_Node000030"><a xlink:title=" ">
<polygon fill="#e0e0e0" stroke="#999999" points="701.75,-19.25 642.25,-19.25 642.25,0 701.75,0 701.75,-19.25"/>
<text text-anchor="middle" x="672" y="-5.75" font-family="Helvetica,sans-Serif" font-size="10.00">execinfo.h</text>
</a>
</g>
</g>
<!-- Node24&#45;&gt;Node30 -->
<g id="edge36_Node000024_Node000030" class="edge">
<title>Node24&#45;&gt;Node30</title>
<g id="a_edge36_Node000024_Node000030"><a xlink:title=" ">
<path fill="none" stroke="#63b8ff" d="M826.41,-55.55C795.93,-46.69 747.4,-32.57 712.89,-22.52"/>
<polygon fill="#63b8ff" stroke="#63b8ff" points="714.25,-19.27 703.67,-19.84 712.3,-26 714.25,-19.27"/>
</a>
</g>
</g>
<!-- Node31 -->
<g id="Node000031" class="node">
<title>Node31</title>
<g id="a_Node000031"><a xlink:title=" ">
<polygon fill="#e0e0e0" stroke="#999999" points="770.25,-19.25 719.75,-19.25 719.75,0 770.25,0 770.25,-19.25"/>
<text text-anchor="middle" x="745" y="-5.75" font-family="Helvetica,sans-Serif" font-size="10.00">cxxabi.h</text>
</a>
</g>
</g>
<!-- Node24&#45;&gt;Node31 -->
<g id="edge37_Node000024_Node000031" class="edge">
<title>Node24&#45;&gt;Node31</title>
<g id="a_edge37_Node000024_Node000031"><a xlink:title=" ">
<path fill="none" stroke="#63b8ff" d="M836.34,-54.84C819.27,-46.58 793.76,-34.23 774.03,-24.68"/>
<polygon fill="#63b8ff" stroke="#63b8ff" points="775.64,-21.57 765.11,-20.36 772.59,-27.87 775.64,-21.57"/>
</a>
</g>
</g>
<!-- Node32 -->
<g id="Node000032" class="node">
<title>Node32</title>
<g id="a_Node000032"><a xlink:title=" ">
<polygon fill="#e0e0e0" stroke="#999999" points="839.62,-19.25 788.38,-19.25 788.38,0 839.62,0 839.62,-19.25"/>
<text text-anchor="middle" x="814" y="-5.75" font-family="Helvetica,sans-Serif" font-size="10.00">sstream</text>
</a>
</g>
</g>
<!-- Node24&#45;&gt;Node32 -->
<g id="edge38_Node000024_Node000032" class="edge">
<title>Node24&#45;&gt;Node32</title>
<g id="a_edge38_Node000024_Node000032"><a xlink:title=" ">
<path fill="none" stroke="#63b8ff" d="M848.23,-55.08C842.68,-47.88 834.66,-37.46 827.77,-28.51"/>
<polygon fill="#63b8ff" stroke="#63b8ff" points="830.71,-26.6 821.84,-20.81 825.17,-30.87 830.71,-26.6"/>
</a>
</g>
</g>
<!-- Node33 -->
<g id="Node000033" class="node">
<title>Node33</title>
<g id="a_Node000033"><a xlink:title=" ">
<polygon fill="#e0e0e0" stroke="#999999" points="894.5,-19.25 857.5,-19.25 857.5,0 894.5,0 894.5,-19.25"/>
<text text-anchor="middle" x="876" y="-5.75" font-family="Helvetica,sans-Serif" font-size="10.00">array</text>
</a>
</g>
</g>
<!-- Node24&#45;&gt;Node33 -->
<g id="edge39_Node000024_Node000033" class="edge">
<title>Node24&#45;&gt;Node33</title>
<g id="a_edge39_Node000024_Node000033"><a xlink:title=" ">
<path fill="none" stroke="#63b8ff" d="M858.47,-55.08C861.13,-48.34 864.9,-38.77 868.26,-30.24"/>
<polygon fill="#63b8ff" stroke="#63b8ff" points="871.49,-31.6 871.9,-21.02 864.98,-29.04 871.49,-31.6"/>
</a>
</g>
</g>
<!-- Node34 -->
<g id="Node000034" class="node">
<title>Node34</title>
<g id="a_Node000034"><a xlink:title=" ">
<polygon fill="#e0e0e0" stroke="#999999" points="963.25,-19.25 912.75,-19.25 912.75,0 963.25,0 963.25,-19.25"/>
<text text-anchor="middle" x="938" y="-5.75" font-family="Helvetica,sans-Serif" font-size="10.00">memory</text>
</a>
</g>
</g>
<!-- Node24&#45;&gt;Node34 -->
<g id="edge40_Node000024_Node000034" class="edge">
<title>Node24&#45;&gt;Node34</title>
<g id="a_edge40_Node000024_Node000034"><a xlink:title=" ">
<path fill="none" stroke="#63b8ff" d="M869.08,-54.84C881.48,-46.89 899.79,-35.14 914.43,-25.75"/>
<polygon fill="#63b8ff" stroke="#63b8ff" points="916.05,-28.87 922.58,-20.52 912.27,-22.97 916.05,-28.87"/>
</a>
</g>
</g>
<!-- Node35 -->
<g id="Node000035" class="node">
<title>Node35</title>
<g id="a_Node000035"><a xlink:title=" ">
<polygon fill="#e0e0e0" stroke="#999999" points="1030.88,-19.25 981.12,-19.25 981.12,0 1030.88,0 1030.88,-19.25"/>
<text text-anchor="middle" x="1006" y="-5.75" font-family="Helvetica,sans-Serif" font-size="10.00">unistd.h</text>
</a>
</g>
</g>
<!-- Node24&#45;&gt;Node35 -->
<g id="edge41_Node000024_Node000035" class="edge">
<title>Node24&#45;&gt;Node35</title>
<g id="a_edge41_Node000024_Node000035"><a xlink:title=" ">
<path fill="none" stroke="#63b8ff" d="M880.62,-54.84C905.17,-46.18 942.46,-33.03 970,-23.32"/>
<polygon fill="#63b8ff" stroke="#63b8ff" points="971.07,-26.65 979.34,-20.03 968.74,-20.05 971.07,-26.65"/>
</a>
</g>
</g>
<!-- Node36 -->
<g id="Node000036" class="node">
<title>Node36</title>
<g id="a_Node000036"><a xlink:title=" ">
<polygon fill="#e0e0e0" stroke="#999999" points="1108.75,-19.25 1049.25,-19.25 1049.25,0 1108.75,0 1108.75,-19.25"/>
<text text-anchor="middle" x="1079" y="-5.75" font-family="Helvetica,sans-Serif" font-size="10.00">sys/wait.h</text>
</a>
</g>
</g>
<!-- Node24&#45;&gt;Node36 -->
<g id="edge42_Node000024_Node000036" class="edge">
<title>Node24&#45;&gt;Node36</title>
<g id="a_edge42_Node000024_Node000036"><a xlink:title=" ">
<path fill="none" stroke="#63b8ff" d="M883.37,-57.13C922.47,-47.84 993.15,-31.03 1037.99,-20.37"/>
<polygon fill="#63b8ff" stroke="#63b8ff" points="1038.69,-23.81 1047.61,-18.09 1037.07,-17 1038.69,-23.81"/>
</a>
</g>
</g>
<!-- Node37 -->
<g id="Node000037" class="node">
<title>Node37</title>
<g id="a_Node000037"><a xlink:title=" ">
<polygon fill="#e0e0e0" stroke="#999999" points="1187.12,-19.25 1126.88,-19.25 1126.88,0 1187.12,0 1187.12,-19.25"/>
<text text-anchor="middle" x="1157" y="-5.75" font-family="Helvetica,sans-Serif" font-size="10.00">sys/prctl.h</text>
</a>
</g>
</g>
<!-- Node24&#45;&gt;Node37 -->
<g id="edge43_Node000024_Node000037" class="edge">
<title>Node24&#45;&gt;Node37</title>
<g id="a_edge43_Node000024_Node000037"><a xlink:title=" ">
<path fill="none" stroke="#63b8ff" d="M883.44,-57.87C887.97,-56.96 892.61,-56.06 897,-55.25 991.34,-37.89 1018.34,-37.97 1115.18,-19.7"/>
<polygon fill="#63b8ff" stroke="#63b8ff" points="1115.72,-23.16 1124.89,-17.85 1114.41,-16.29 1115.72,-23.16"/>
</a>
</g>
</g>
<!-- Node38&#45;&gt;Node17 -->
<g id="edge46_Node000038_Node000017" class="edge">
<title>Node38&#45;&gt;Node17</title>
<g id="a_edge46_Node000038_Node000017"><a xlink:title=" ">
<path fill="none" stroke="#63b8ff" d="M1137.35,-110.57C1176.76,-101.03 1240.38,-85.63 1281.7,-75.63"/>
<polygon fill="#63b8ff" stroke="#63b8ff" points="1282.36,-79.07 1291.25,-73.32 1280.71,-72.27 1282.36,-79.07"/>
</a>
</g>
</g>
<!-- Node38&#45;&gt;Node22 -->
<g id="edge45_Node000038_Node000022" class="edge">
<title>Node38&#45;&gt;Node22</title>
<g id="a_edge45_Node000038_Node000022"><a xlink:title=" ">
<path fill="none" stroke="#63b8ff" d="M1137.49,-110.57C1174.04,-101.33 1228.1,-86.35 1246,-74.5 1263.93,-62.63 1279.18,-43.13 1288.86,-28.79"/>
<polygon fill="#63b8ff" stroke="#63b8ff" points="1291.58,-31.02 1294.06,-20.71 1285.7,-27.23 1291.58,-31.02"/>
</a>
</g>
</g>
<!-- Node38&#45;&gt;Node24 -->
<g id="edge51_Node000038_Node000024" class="edge">
<title>Node38&#45;&gt;Node24</title>
<g id="a_edge51_Node000038_Node000024"><a xlink:title=" ">
<path fill="none" stroke="#63b8ff" d="M1066.61,-111.5C1021.01,-101.67 941.98,-84.63 894.48,-74.39"/>
<polygon fill="#63b8ff" stroke="#63b8ff" points="895.41,-71.01 884.89,-72.32 893.93,-77.85 895.41,-71.01"/>
</a>
</g>
</g>
<!-- Node39 -->
<g id="Node000039" class="node">
<title>Node39</title>
<g id="a_Node000039"><a xlink:title=" ">
<polygon fill="#e0e0e0" stroke="#999999" points="1044.88,-74.5 977.12,-74.5 977.12,-55.25 1044.88,-55.25 1044.88,-74.5"/>
<text text-anchor="middle" x="1011" y="-61" font-family="Helvetica,sans-Serif" font-size="10.00">TDirectory.h</text>
</a>
</g>
</g>
<!-- Node38&#45;&gt;Node39 -->
<g id="edge47_Node000038_Node000039" class="edge">
<title>Node38&#45;&gt;Node39</title>
<g id="a_edge47_Node000038_Node000039"><a xlink:title=" ">
<path fill="none" stroke="#63b8ff" d="M1086.56,-110.09C1072.84,-102.06 1052.5,-90.16 1036.38,-80.73"/>
<polygon fill="#63b8ff" stroke="#63b8ff" points="1038.22,-77.75 1027.82,-75.72 1034.68,-83.79 1038.22,-77.75"/>
</a>
</g>
</g>
<!-- Node40 -->
<g id="Node000040" class="node">
<title>Node40</title>
<g id="a_Node000040"><a xlink:title=" ">
<polygon fill="#e0e0e0" stroke="#999999" points="1108.62,-74.5 1063.38,-74.5 1063.38,-55.25 1108.62,-55.25 1108.62,-74.5"/>
<text text-anchor="middle" x="1086" y="-61" font-family="Helvetica,sans-Serif" font-size="10.00">TFile.h</text>
</a>
</g>
</g>
<!-- Node38&#45;&gt;Node40 -->
<g id="edge48_Node000038_Node000040" class="edge">
<title>Node38&#45;&gt;Node40</title>
<g id="a_edge48_Node000038_Node000040"><a xlink:title=" ">
<path fill="none" stroke="#63b8ff" d="M1099.36,-110.33C1097.36,-103.67 1094.52,-94.24 1091.98,-85.78"/>
<polygon fill="#63b8ff" stroke="#63b8ff" points="1095.36,-84.88 1089.14,-76.31 1088.66,-86.89 1095.36,-84.88"/>
</a>
</g>
</g>
<!-- Node41 -->
<g id="Node000041" class="node">
<title>Node41</title>
<g id="a_Node000041"><a xlink:title=" ">
<polygon fill="#e0e0e0" stroke="#999999" points="1173,-74.5 1127,-74.5 1127,-55.25 1173,-55.25 1173,-74.5"/>
<text text-anchor="middle" x="1150" y="-61" font-family="Helvetica,sans-Serif" font-size="10.00">TList.h</text>
</a>
</g>
</g>
<!-- Node38&#45;&gt;Node41 -->
<g id="edge49_Node000038_Node000041" class="edge">
<title>Node38&#45;&gt;Node41</title>
<g id="a_edge49_Node000038_Node000041"><a xlink:title=" ">
<path fill="none" stroke="#63b8ff" d="M1109.93,-110.33C1116.56,-102.98 1126.22,-92.26 1134.39,-83.19"/>
<polygon fill="#63b8ff" stroke="#63b8ff" points="1136.79,-85.75 1140.89,-75.98 1131.59,-81.07 1136.79,-85.75"/>
</a>
</g>
</g>
<!-- Node42 -->
<g id="Node000042" class="node">
<title>Node42</title>
<g id="a_Node000042"><a xlink:title=" ">
<polygon fill="#e0e0e0" stroke="#999999" points="1237,-74.5 1191,-74.5 1191,-55.25 1237,-55.25 1237,-74.5"/>
<text text-anchor="middle" x="1214" y="-61" font-family="Helvetica,sans-Serif" font-size="10.00">TKey.h</text>
</a>
</g>
</g>
<!-- Node38&#45;&gt;Node42 -->
<g id="edge50_Node000038_Node000042" class="edge">
<title>Node38&#45;&gt;Node42</title>
<g id="a_edge50_Node000038_Node000042"><a xlink:title=" ">
<path fill="none" stroke="#63b8ff" d="M1121,-110.09C1138.46,-101.79 1164.6,-89.36 1184.72,-79.79"/>
<polygon fill="#63b8ff" stroke="#63b8ff" points="1186.01,-83.06 1193.54,-75.6 1183.01,-76.74 1186.01,-83.06"/>
</a>
</g>
</g>
<!-- Node43&#45;&gt;Node22 -->
<g id="edge53_Node000043_Node000022" class="edge">
<title>Node43&#45;&gt;Node22</title>
<g id="a_edge53_Node000043_Node000022"><a xlink:title=" ">
<path fill="none" stroke="#63b8ff" d="M889.02,-165.29C894.63,-142.38 912.73,-82.22 953,-55.25 1008.16,-18.32 1178.81,-30.13 1261.63,-19.21"/>
<polygon fill="#63b8ff" stroke="#63b8ff" points="1262.1,-22.68 1271.45,-17.7 1261.03,-15.76 1262.1,-22.68"/>
</a>
</g>
</g>
<!-- Node44 -->
<g id="Node000044" class="node">
<title>Node44</title>
<g id="a_Node000044"><a xlink:title=" ">
<polygon fill="#e0e0e0" stroke="#999999" points="844.88,-129.75 771.12,-129.75 771.12,-110.5 844.88,-110.5 844.88,-129.75"/>
<text text-anchor="middle" x="808" y="-116.25" font-family="Helvetica,sans-Serif" font-size="10.00">RtypesCore.h</text>
</a>
</g>
</g>
<!-- Node43&#45;&gt;Node44 -->
<g id="edge54_Node000043_Node000044" class="edge">
<title>Node43&#45;&gt;Node44</title>
<g id="a_edge54_Node000043_Node000044"><a xlink:title=" ">
<path fill="none" stroke="#63b8ff" d="M873.6,-165.34C861.91,-157.46 844.7,-145.86 830.84,-136.52"/>
<polygon fill="#63b8ff" stroke="#63b8ff" points="832.97,-133.74 822.72,-131.05 829.06,-139.54 832.97,-133.74"/>
</a>
</g>
</g>
</g>
</svg>
