<?xml version="1.0" encoding="UTF-8" standalone="no"?>
<!DOCTYPE svg PUBLIC "-//W3C//DTD SVG 1.1//EN"
 "http://www.w3.org/Graphics/SVG/1.1/DTD/svg11.dtd">
<!-- Generated by graphviz version 9.0.0 (20230911.1827)
 -->
<!-- Title: THILMnemonic.h Pages: 1 -->
<!--zoomable 248 -->

<svg id="main" version="1.1" xmlns="http://www.w3.org/2000/svg" xmlns:xlink="http://www.w3.org/1999/xlink" xml:space="preserve" onload="init(evt)">
<style type="text/css"><![CDATA[
.node, .edge {opacity: 0.7;}
.node.selected, .edge.selected {opacity: 1;}
.edge:hover path { stroke: red; }
.edge:hover polygon { stroke: red; fill: red; }
]]></style>

<defs>
  <circle id="rim" cx="0" cy="0" r="7"/>
  <circle id="rim2" cx="0" cy="0" r="3.5"/>
  <g id="zoomPlus">
    <use xlink:href="#rim" fill="#404040"><set attributeName="fill" to="#808080" begin="zoomplus.mouseover" end="zoomplus.mouseout"/></use>
    <path d="M-4,0h8M0,-4v8" fill="none" stroke="white" stroke-width="1.5" pointer-events="none"/>
  </g>
  <g id="zoomMin">
    <use xlink:href="#rim" fill="#404040"><set attributeName="fill" to="#808080" begin="zoomminus.mouseover" end="zoomminus.mouseout"/></use>
    <path d="M-4,0h8" fill="none" stroke="white" stroke-width="1.5" pointer-events="none"/>
  </g>
  <g id="arrowUp" transform="translate(30 24)">
    <use xlink:href="#rim"/>
    <path pointer-events="none" fill="none" stroke="white" stroke-width="1.5" d="M0,-3.0v7 M-2.5,-0.5L0,-3.0L2.5,-0.5"/>
  </g>
  <g id="arrowRight" transform="rotate(90) translate(36 -43)">
    <use xlink:href="#rim"/>
    <path pointer-events="none" fill="none" stroke="white" stroke-width="1.5" d="M0,-3.0v7 M-2.5,-0.5L0,-3.0L2.5,-0.5"/>
  </g>
  <g id="arrowDown" transform="rotate(180) translate(-30 -48)">
    <use xlink:href="#rim"/>
    <path pointer-events="none" fill="none" stroke="white" stroke-width="1.5" d="M0,-3.0v7 M-2.5,-0.5L0,-3.0L2.5,-0.5"/>
  </g>
  <g id="arrowLeft" transform="rotate(270) translate(-36 17)">
    <use xlink:href="#rim"/>
    <path pointer-events="none" fill="none" stroke="white" stroke-width="1.5" d="M0,-3.0v7 M-2.5,-0.5L0,-3.0L2.5,-0.5"/>
  </g>
  <g id="resetDef">
    <use xlink:href="#rim2" fill="#404040"><set attributeName="fill" to="#808080" begin="reset.mouseover" end="reset.mouseout"/></use>
  </g>
</defs>
<script type="application/ecmascript">
var viewWidth = 1391;
var viewHeight = 248;
var sectionId = 'dynsection-0';
</script>
<script type="application/ecmascript" xlink:href="svg.min.js"/>
<svg id="graph" class="graph">
<g id="viewport">
<title>THILMnemonic.h</title>
<!-- Node1 -->
<g id="Node000001" class="node">
<title>Node1</title>
<g id="a_Node000001"><a xlink:title=" ">
<polygon fill="#999999" stroke="#666666" points="449.12,-240.25 358.12,-240.25 358.12,-221 449.12,-221 449.12,-240.25"/>
<text text-anchor="middle" x="403.62" y="-226.75" font-family="Helvetica,sans-Serif" font-size="10.00">THILMnemonic.h</text>
</a>
</g>
</g>
<!-- Node2 -->
<g id="Node000002" class="node">
<title>Node2</title>
<g id="a_Node000002"><a xlink:title=" ">
<polygon fill="#e0e0e0" stroke="#999999" points="175.62,-19.25 135.62,-19.25 135.62,0 175.62,0 175.62,-19.25"/>
<text text-anchor="middle" x="155.62" y="-5.75" font-family="Helvetica,sans-Serif" font-size="10.00">string</text>
</a>
</g>
</g>
<!-- Node1&#45;&gt;Node2 -->
<g id="edge1_Node000001_Node000002" class="edge">
<title>Node1&#45;&gt;Node2</title>
<g id="a_edge1_Node000001_Node000002"><a xlink:title=" ">
<path fill="none" stroke="#63b8ff" d="M357.64,-224.23C267.51,-212.61 73.05,-181.91 34.62,-129.75 14.99,-103.09 15.69,-82.41 34.62,-55.25 40,-47.54 90.44,-30.73 124.47,-20.08"/>
<polygon fill="#63b8ff" stroke="#63b8ff" points="125.33,-23.48 133.85,-17.18 123.26,-16.79 125.33,-23.48"/>
</a>
</g>
</g>
<!-- Node3 -->
<g id="Node000003" class="node">
<title>Node3</title>
<g id="a_Node000003"><a xlink:href="_t_mnemonic_8h.html" target="_top" xlink:title=" ">
<polygon fill="white" stroke="#666666" points="588.88,-185 514.38,-185 514.38,-165.75 588.88,-165.75 588.88,-185"/>
<text text-anchor="middle" x="551.62" y="-171.5" font-family="Helvetica,sans-Serif" font-size="10.00">TMnemonic.h</text>
</a>
</g>
</g>
<!-- Node1&#45;&gt;Node3 -->
<g id="edge2_Node000001_Node000003" class="edge">
<title>Node1&#45;&gt;Node3</title>
<g id="a_edge2_Node000001_Node000003"><a xlink:title=" ">
<path fill="none" stroke="#63b8ff" d="M428.73,-220.59C452.65,-211.99 488.91,-198.94 515.85,-189.25"/>
<polygon fill="#63b8ff" stroke="#63b8ff" points="516.75,-192.64 524.97,-185.96 514.38,-186.06 516.75,-192.64"/>
</a>
</g>
</g>
<!-- Node6 -->
<g id="Node000006" class="node">
<title>Node6</title>
<g id="a_Node000006"><a xlink:title=" ">
<polygon fill="#e0e0e0" stroke="#999999" points="97.75,-129.75 43.5,-129.75 43.5,-110.5 97.75,-110.5 97.75,-129.75"/>
<text text-anchor="middle" x="70.62" y="-116.25" font-family="Helvetica,sans-Serif" font-size="10.00">TClass.h</text>
</a>
</g>
</g>
<!-- Node1&#45;&gt;Node6 -->
<g id="edge44_Node000001_Node000006" class="edge">
<title>Node1&#45;&gt;Node6</title>
<g id="a_edge44_Node000001_Node000006"><a xlink:title=" ">
<path fill="none" stroke="#63b8ff" d="M375.81,-220.56C316.28,-201.17 176.48,-155.62 108.75,-133.55"/>
<polygon fill="#63b8ff" stroke="#63b8ff" points="110.16,-130.33 99.57,-130.56 107.99,-136.98 110.16,-130.33"/>
</a>
</g>
</g>
<!-- Node7 -->
<g id="Node000007" class="node">
<title>Node7</title>
<g id="a_Node000007"><a xlink:href="_globals_8h.html" target="_top" xlink:title=" ">
<polygon fill="white" stroke="#666666" points="952.88,-74.5 896.38,-74.5 896.38,-55.25 952.88,-55.25 952.88,-74.5"/>
<text text-anchor="middle" x="924.62" y="-61" font-family="Helvetica,sans-Serif" font-size="10.00">Globals.h</text>
</a>
</g>
</g>
<!-- Node1&#45;&gt;Node7 -->
<g id="edge43_Node000001_Node000007" class="edge">
<title>Node1&#45;&gt;Node7</title>
<g id="a_edge43_Node000001_Node000007"><a xlink:title=" ">
<path fill="none" stroke="#63b8ff" d="M449.19,-229.37C577.52,-227.57 937.35,-214.91 1009.62,-129.75 1027.9,-108.22 993.98,-89.62 963.73,-78.13"/>
<polygon fill="#63b8ff" stroke="#63b8ff" points="965.29,-74.97 954.69,-74.88 962.92,-81.55 965.29,-74.97"/>
</a>
</g>
</g>
<!-- Node3&#45;&gt;Node2 -->
<g id="edge3_Node000003_Node000002" class="edge">
<title>Node3&#45;&gt;Node2</title>
<g id="a_edge3_Node000003_Node000002"><a xlink:title=" ">
<path fill="none" stroke="#63b8ff" d="M514.12,-169.07C429,-156.32 224.72,-121.49 175.62,-74.5 163.68,-63.07 158.83,-44.6 156.89,-30.46"/>
<polygon fill="#63b8ff" stroke="#63b8ff" points="160.41,-30.55 155.96,-20.94 153.44,-31.23 160.41,-30.55"/>
</a>
</g>
</g>
<!-- Node4 -->
<g id="Node000004" class="node">
<title>Node4</title>
<g id="a_Node000004"><a xlink:title=" ">
<polygon fill="#e0e0e0" stroke="#999999" points="1383.38,-19.25 1329.88,-19.25 1329.88,0 1383.38,0 1383.38,-19.25"/>
<text text-anchor="middle" x="1356.62" y="-5.75" font-family="Helvetica,sans-Serif" font-size="10.00">iostream</text>
</a>
</g>
</g>
<!-- Node3&#45;&gt;Node4 -->
<g id="edge4_Node000003_Node000004" class="edge">
<title>Node3&#45;&gt;Node4</title>
<g id="a_edge4_Node000003_Node000004"><a xlink:title=" ">
<path fill="none" stroke="#63b8ff" d="M589.34,-167.27C699.75,-146.35 1032.08,-82.65 1318.5,-19.66"/>
<polygon fill="#63b8ff" stroke="#63b8ff" points="1319.03,-23.12 1328.04,-17.55 1317.53,-16.29 1319.03,-23.12"/>
</a>
</g>
</g>
<!-- Node5 -->
<g id="Node000005" class="node">
<title>Node5</title>
<g id="a_Node000005"><a xlink:title=" ">
<polygon fill="#e0e0e0" stroke="#999999" points="1000.62,-129.75 942.62,-129.75 942.62,-110.5 1000.62,-110.5 1000.62,-129.75"/>
<text text-anchor="middle" x="971.62" y="-116.25" font-family="Helvetica,sans-Serif" font-size="10.00">TObject.h</text>
</a>
</g>
</g>
<!-- Node3&#45;&gt;Node5 -->
<g id="edge5_Node000003_Node000005" class="edge">
<title>Node3&#45;&gt;Node5</title>
<g id="a_edge5_Node000003_Node000005"><a xlink:title=" ">
<path fill="none" stroke="#63b8ff" d="M589.22,-170.93C657.19,-164.48 804.96,-149.44 928.62,-129.75 929.61,-129.59 930.61,-129.43 931.62,-129.26"/>
<polygon fill="#63b8ff" stroke="#63b8ff" points="931.83,-132.78 941.05,-127.56 930.59,-125.89 931.83,-132.78"/>
</a>
</g>
</g>
<!-- Node3&#45;&gt;Node6 -->
<g id="edge6_Node000003_Node000006" class="edge">
<title>Node3&#45;&gt;Node6</title>
<g id="a_edge6_Node000003_Node000006"><a xlink:title=" ">
<path fill="none" stroke="#63b8ff" d="M514.08,-171.92C437.88,-166.64 259.76,-152.78 111.62,-129.75 110.79,-129.62 109.95,-129.48 109.09,-129.34"/>
<polygon fill="#63b8ff" stroke="#63b8ff" points="109.85,-125.92 99.39,-127.56 108.59,-132.81 109.85,-125.92"/>
</a>
</g>
</g>
<!-- Node3&#45;&gt;Node7 -->
<g id="edge7_Node000003_Node000007" class="edge">
<title>Node3&#45;&gt;Node7</title>
<g id="a_edge7_Node000003_Node000007"><a xlink:title=" ">
<path fill="none" stroke="#63b8ff" d="M582.79,-165.31C650.4,-145.64 810.49,-99.08 885.09,-77.38"/>
<polygon fill="#63b8ff" stroke="#63b8ff" points="885.8,-80.81 894.42,-74.66 883.84,-74.09 885.8,-80.81"/>
</a>
</g>
</g>
<!-- Node22 -->
<g id="Node000022" class="node">
<title>Node22</title>
<g id="a_Node000022"><a xlink:href="_t_priority_value_8h.html" target="_top" xlink:title=" ">
<polygon fill="white" stroke="#666666" points="127.75,-74.5 43.5,-74.5 43.5,-55.25 127.75,-55.25 127.75,-74.5"/>
<text text-anchor="middle" x="85.62" y="-61" font-family="Helvetica,sans-Serif" font-size="10.00">TPriorityValue.h</text>
</a>
</g>
</g>
<!-- Node3&#45;&gt;Node22 -->
<g id="edge24_Node000003_Node000022" class="edge">
<title>Node3&#45;&gt;Node22</title>
<g id="a_edge24_Node000003_Node000022"><a xlink:title=" ">
<path fill="none" stroke="#63b8ff" d="M514.05,-173.35C426.89,-170.48 213.56,-160.44 149.62,-129.75 128.03,-119.39 109.44,-98.69 97.95,-83.65"/>
<polygon fill="#63b8ff" stroke="#63b8ff" points="101.07,-82 92.35,-75.98 95.42,-86.12 101.07,-82"/>
</a>
</g>
</g>
<!-- Node25 -->
<g id="Node000025" class="node">
<title>Node25</title>
<g id="a_Node000025"><a xlink:href="_t_channel_8h.html" target="_top" xlink:title=" ">
<polygon fill="white" stroke="#666666" points="584,-129.75 519.25,-129.75 519.25,-110.5 584,-110.5 584,-129.75"/>
<text text-anchor="middle" x="551.62" y="-116.25" font-family="Helvetica,sans-Serif" font-size="10.00">TChannel.h</text>
</a>
</g>
</g>
<!-- Node3&#45;&gt;Node25 -->
<g id="edge28_Node000003_Node000025" class="edge">
<title>Node3&#45;&gt;Node25</title>
<g id="a_edge28_Node000003_Node000025"><a xlink:title=" ">
<path fill="none" stroke="#63b8ff" d="M546.46,-165.58C545.05,-158.99 544.58,-149.71 545.05,-141.32"/>
<polygon fill="#63b8ff" stroke="#63b8ff" points="548.5,-141.96 546.24,-131.61 541.55,-141.12 548.5,-141.96"/>
</a>
</g>
</g>
<!-- Node7&#45;&gt;Node2 -->
<g id="edge12_Node000007_Node000002" class="edge">
<title>Node7&#45;&gt;Node2</title>
<g id="a_edge12_Node000007_Node000002"><a xlink:title=" ">
<path fill="none" stroke="#63b8ff" d="M896.25,-57.48C891.71,-56.62 887.05,-55.84 882.62,-55.25 745.07,-37 309.07,-17.24 187.42,-11.98"/>
<polygon fill="#63b8ff" stroke="#63b8ff" points="187.68,-8.49 177.53,-11.55 187.37,-15.48 187.68,-8.49"/>
</a>
</g>
</g>
<!-- Node7&#45;&gt;Node4 -->
<g id="edge9_Node000007_Node000004" class="edge">
<title>Node7&#45;&gt;Node4</title>
<g id="a_edge9_Node000007_Node000004"><a xlink:title=" ">
<path fill="none" stroke="#63b8ff" d="M953.02,-57.64C957.56,-56.76 962.21,-55.93 966.62,-55.25 1119.44,-31.85 1162.78,-45.1 1318.65,-19.35"/>
<polygon fill="#63b8ff" stroke="#63b8ff" points="1318.8,-22.88 1328.09,-17.77 1317.64,-15.97 1318.8,-22.88"/>
</a>
</g>
</g>
<!-- Node8 -->
<g id="Node000008" class="node">
<title>Node8</title>
<g id="a_Node000008"><a xlink:title=" ">
<polygon fill="#e0e0e0" stroke="#999999" points="1167.25,-19.25 1122,-19.25 1122,0 1167.25,0 1167.25,-19.25"/>
<text text-anchor="middle" x="1144.62" y="-5.75" font-family="Helvetica,sans-Serif" font-size="10.00">cstdint</text>
</a>
</g>
</g>
<!-- Node7&#45;&gt;Node8 -->
<g id="edge8_Node000007_Node000008" class="edge">
<title>Node7&#45;&gt;Node8</title>
<g id="a_edge8_Node000007_Node000008"><a xlink:title=" ">
<path fill="none" stroke="#63b8ff" d="M953.36,-57.34C988.2,-49.35 1048.98,-35.22 1110.49,-19.73"/>
<polygon fill="#63b8ff" stroke="#63b8ff" points="1111.27,-23.14 1120.11,-17.3 1109.55,-16.36 1111.27,-23.14"/>
</a>
</g>
</g>
<!-- Node9 -->
<g id="Node000009" class="node">
<title>Node9</title>
<g id="a_Node000009"><a xlink:title=" ">
<polygon fill="#e0e0e0" stroke="#999999" points="1235.5,-19.25 1185.75,-19.25 1185.75,0 1235.5,0 1235.5,-19.25"/>
<text text-anchor="middle" x="1210.62" y="-5.75" font-family="Helvetica,sans-Serif" font-size="10.00">iomanip</text>
</a>
</g>
</g>
<!-- Node7&#45;&gt;Node9 -->
<g id="edge10_Node000007_Node000009" class="edge">
<title>Node7&#45;&gt;Node9</title>
<g id="a_edge10_Node000007_Node000009"><a xlink:title=" ">
<path fill="none" stroke="#63b8ff" d="M953.07,-57.9C957.6,-56.99 962.24,-56.08 966.62,-55.25 1056.14,-38.39 1082.04,-38.84 1174.16,-19.63"/>
<polygon fill="#63b8ff" stroke="#63b8ff" points="1174.88,-23.05 1183.94,-17.56 1173.44,-16.21 1174.88,-23.05"/>
</a>
</g>
</g>
<!-- Node10 -->
<g id="Node000010" class="node">
<title>Node10</title>
<g id="a_Node000010"><a xlink:title=" ">
<polygon fill="#e0e0e0" stroke="#999999" points="1311.62,-19.25 1253.62,-19.25 1253.62,0 1311.62,0 1311.62,-19.25"/>
<text text-anchor="middle" x="1282.62" y="-5.75" font-family="Helvetica,sans-Serif" font-size="10.00">stdexcept</text>
</a>
</g>
</g>
<!-- Node7&#45;&gt;Node10 -->
<g id="edge11_Node000007_Node000010" class="edge">
<title>Node7&#45;&gt;Node10</title>
<g id="a_edge11_Node000007_Node000010"><a xlink:title=" ">
<path fill="none" stroke="#63b8ff" d="M953.04,-57.74C957.57,-56.85 962.22,-55.99 966.62,-55.25 1085.91,-35.31 1119.98,-40.71 1241.94,-19.57"/>
<polygon fill="#63b8ff" stroke="#63b8ff" points="1242.49,-23.03 1251.73,-17.85 1241.28,-16.14 1242.49,-23.03"/>
</a>
</g>
</g>
<!-- Node11 -->
<g id="Node000011" class="node">
<title>Node11</title>
<g id="a_Node000011"><a xlink:title=" ">
<polygon fill="#e0e0e0" stroke="#999999" points="414.75,-19.25 372.5,-19.25 372.5,0 414.75,0 414.75,-19.25"/>
<text text-anchor="middle" x="393.62" y="-5.75" font-family="Helvetica,sans-Serif" font-size="10.00">cstdio</text>
</a>
</g>
</g>
<!-- Node7&#45;&gt;Node11 -->
<g id="edge13_Node000007_Node000011" class="edge">
<title>Node7&#45;&gt;Node11</title>
<g id="a_edge13_Node000007_Node000011"><a xlink:title=" ">
<path fill="none" stroke="#63b8ff" d="M896.24,-57.55C891.7,-56.68 887.05,-55.88 882.62,-55.25 683.67,-27.13 627.01,-54.67 426.36,-19.38"/>
<polygon fill="#63b8ff" stroke="#63b8ff" points="427.08,-15.96 416.62,-17.64 425.85,-22.85 427.08,-15.96"/>
</a>
</g>
</g>
<!-- Node12 -->
<g id="Node000012" class="node">
<title>Node12</title>
<g id="a_Node000012"><a xlink:title=" ">
<polygon fill="#e0e0e0" stroke="#999999" points="476.88,-19.25 432.38,-19.25 432.38,0 476.88,0 476.88,-19.25"/>
<text text-anchor="middle" x="454.62" y="-5.75" font-family="Helvetica,sans-Serif" font-size="10.00">cstdlib</text>
</a>
</g>
</g>
<!-- Node7&#45;&gt;Node12 -->
<g id="edge14_Node000007_Node000012" class="edge">
<title>Node7&#45;&gt;Node12</title>
<g id="a_edge14_Node000007_Node000012"><a xlink:title=" ">
<path fill="none" stroke="#63b8ff" d="M896.23,-57.6C891.7,-56.72 887.04,-55.9 882.62,-55.25 710.95,-29.92 661.9,-50.25 488.27,-19.42"/>
<polygon fill="#63b8ff" stroke="#63b8ff" points="489.15,-16.02 478.69,-17.68 487.91,-22.91 489.15,-16.02"/>
</a>
</g>
</g>
<!-- Node13 -->
<g id="Node000013" class="node">
<title>Node13</title>
<g id="a_Node000013"><a xlink:title=" ">
<polygon fill="#e0e0e0" stroke="#999999" points="554.38,-19.25 494.88,-19.25 494.88,0 554.38,0 554.38,-19.25"/>
<text text-anchor="middle" x="524.62" y="-5.75" font-family="Helvetica,sans-Serif" font-size="10.00">execinfo.h</text>
</a>
</g>
</g>
<!-- Node7&#45;&gt;Node13 -->
<g id="edge15_Node000007_Node000013" class="edge">
<title>Node7&#45;&gt;Node13</title>
<g id="a_edge15_Node000007_Node000013"><a xlink:title=" ">
<path fill="none" stroke="#63b8ff" d="M896.22,-57.68C891.69,-56.8 887.04,-55.95 882.62,-55.25 745.29,-33.44 706.33,-42.21 565.98,-19.47"/>
<polygon fill="#63b8ff" stroke="#63b8ff" points="566.73,-16.05 556.29,-17.87 565.59,-22.95 566.73,-16.05"/>
</a>
</g>
</g>
<!-- Node14 -->
<g id="Node000014" class="node">
<title>Node14</title>
<g id="a_Node000014"><a xlink:title=" ">
<polygon fill="#e0e0e0" stroke="#999999" points="622.88,-19.25 572.38,-19.25 572.38,0 622.88,0 622.88,-19.25"/>
<text text-anchor="middle" x="597.62" y="-5.75" font-family="Helvetica,sans-Serif" font-size="10.00">cxxabi.h</text>
</a>
</g>
</g>
<!-- Node7&#45;&gt;Node14 -->
<g id="edge16_Node000007_Node000014" class="edge">
<title>Node7&#45;&gt;Node14</title>
<g id="a_edge16_Node000007_Node000014"><a xlink:title=" ">
<path fill="none" stroke="#63b8ff" d="M896.2,-57.8C891.67,-56.9 887.03,-56.02 882.62,-55.25 775.18,-36.53 744.16,-40.82 634.41,-19.62"/>
<polygon fill="#63b8ff" stroke="#63b8ff" points="635.15,-16.2 624.66,-17.71 633.8,-23.07 635.15,-16.2"/>
</a>
</g>
</g>
<!-- Node15 -->
<g id="Node000015" class="node">
<title>Node15</title>
<g id="a_Node000015"><a xlink:title=" ">
<polygon fill="#e0e0e0" stroke="#999999" points="692.25,-19.25 641,-19.25 641,0 692.25,0 692.25,-19.25"/>
<text text-anchor="middle" x="666.62" y="-5.75" font-family="Helvetica,sans-Serif" font-size="10.00">sstream</text>
</a>
</g>
</g>
<!-- Node7&#45;&gt;Node15 -->
<g id="edge17_Node000007_Node000015" class="edge">
<title>Node7&#45;&gt;Node15</title>
<g id="a_edge17_Node000007_Node000015"><a xlink:title=" ">
<path fill="none" stroke="#63b8ff" d="M896.16,-58.01C891.64,-57.08 887,-56.13 882.62,-55.25 805.69,-39.7 783.56,-37.26 703.7,-19.63"/>
<polygon fill="#63b8ff" stroke="#63b8ff" points="704.59,-16.24 694.07,-17.49 703.07,-23.07 704.59,-16.24"/>
</a>
</g>
</g>
<!-- Node16 -->
<g id="Node000016" class="node">
<title>Node16</title>
<g id="a_Node000016"><a xlink:title=" ">
<polygon fill="#e0e0e0" stroke="#999999" points="747.12,-19.25 710.12,-19.25 710.12,0 747.12,0 747.12,-19.25"/>
<text text-anchor="middle" x="728.62" y="-5.75" font-family="Helvetica,sans-Serif" font-size="10.00">array</text>
</a>
</g>
</g>
<!-- Node7&#45;&gt;Node16 -->
<g id="edge18_Node000007_Node000016" class="edge">
<title>Node7&#45;&gt;Node16</title>
<g id="a_edge18_Node000007_Node000016"><a xlink:title=" ">
<path fill="none" stroke="#63b8ff" d="M895.99,-56.63C864.58,-48.61 812.41,-35.05 758.39,-19.67"/>
<polygon fill="#63b8ff" stroke="#63b8ff" points="759.6,-16.38 749.03,-16.99 757.68,-23.11 759.6,-16.38"/>
</a>
</g>
</g>
<!-- Node17 -->
<g id="Node000017" class="node">
<title>Node17</title>
<g id="a_Node000017"><a xlink:title=" ">
<polygon fill="#e0e0e0" stroke="#999999" points="815.88,-19.25 765.38,-19.25 765.38,0 815.88,0 815.88,-19.25"/>
<text text-anchor="middle" x="790.62" y="-5.75" font-family="Helvetica,sans-Serif" font-size="10.00">memory</text>
</a>
</g>
</g>
<!-- Node7&#45;&gt;Node17 -->
<g id="edge19_Node000007_Node000017" class="edge">
<title>Node7&#45;&gt;Node17</title>
<g id="a_edge19_Node000007_Node000017"><a xlink:title=" ">
<path fill="none" stroke="#63b8ff" d="M901.89,-54.84C880.53,-46.35 848.28,-33.54 824,-23.89"/>
<polygon fill="#63b8ff" stroke="#63b8ff" points="825.46,-20.7 814.87,-20.26 822.87,-27.21 825.46,-20.7"/>
</a>
</g>
</g>
<!-- Node18 -->
<g id="Node000018" class="node">
<title>Node18</title>
<g id="a_Node000018"><a xlink:title=" ">
<polygon fill="#e0e0e0" stroke="#999999" points="883.5,-19.25 833.75,-19.25 833.75,0 883.5,0 883.5,-19.25"/>
<text text-anchor="middle" x="858.62" y="-5.75" font-family="Helvetica,sans-Serif" font-size="10.00">unistd.h</text>
</a>
</g>
</g>
<!-- Node7&#45;&gt;Node18 -->
<g id="edge20_Node000007_Node000018" class="edge">
<title>Node7&#45;&gt;Node18</title>
<g id="a_edge20_Node000007_Node000018"><a xlink:title=" ">
<path fill="none" stroke="#63b8ff" d="M913.43,-54.84C903.89,-47.15 889.95,-35.9 878.52,-26.68"/>
<polygon fill="#63b8ff" stroke="#63b8ff" points="880.81,-24.03 870.83,-20.48 876.42,-29.48 880.81,-24.03"/>
</a>
</g>
</g>
<!-- Node19 -->
<g id="Node000019" class="node">
<title>Node19</title>
<g id="a_Node000019"><a xlink:title=" ">
<polygon fill="#e0e0e0" stroke="#999999" points="947.62,-19.25 901.62,-19.25 901.62,0 947.62,0 947.62,-19.25"/>
<text text-anchor="middle" x="924.62" y="-5.75" font-family="Helvetica,sans-Serif" font-size="10.00">TEnv.h</text>
</a>
</g>
</g>
<!-- Node7&#45;&gt;Node19 -->
<g id="edge21_Node000007_Node000019" class="edge">
<title>Node7&#45;&gt;Node19</title>
<g id="a_edge21_Node000007_Node000019"><a xlink:title=" ">
<path fill="none" stroke="#63b8ff" d="M924.62,-55.08C924.62,-48.57 924.62,-39.42 924.62,-31.12"/>
<polygon fill="#63b8ff" stroke="#63b8ff" points="928.13,-31.12 924.63,-21.12 921.13,-31.12 928.13,-31.12"/>
</a>
</g>
</g>
<!-- Node20 -->
<g id="Node000020" class="node">
<title>Node20</title>
<g id="a_Node000020"><a xlink:title=" ">
<polygon fill="#e0e0e0" stroke="#999999" points="1025.38,-19.25 965.88,-19.25 965.88,0 1025.38,0 1025.38,-19.25"/>
<text text-anchor="middle" x="995.62" y="-5.75" font-family="Helvetica,sans-Serif" font-size="10.00">sys/wait.h</text>
</a>
</g>
</g>
<!-- Node7&#45;&gt;Node20 -->
<g id="edge22_Node000007_Node000020" class="edge">
<title>Node7&#45;&gt;Node20</title>
<g id="a_edge22_Node000007_Node000020"><a xlink:title=" ">
<path fill="none" stroke="#63b8ff" d="M936.67,-54.84C947.03,-47.07 962.23,-35.67 974.59,-26.4"/>
<polygon fill="#63b8ff" stroke="#63b8ff" points="976.65,-29.23 982.55,-20.43 972.45,-23.63 976.65,-29.23"/>
</a>
</g>
</g>
<!-- Node21 -->
<g id="Node000021" class="node">
<title>Node21</title>
<g id="a_Node000021"><a xlink:title=" ">
<polygon fill="#e0e0e0" stroke="#999999" points="1103.75,-19.25 1043.5,-19.25 1043.5,0 1103.75,0 1103.75,-19.25"/>
<text text-anchor="middle" x="1073.62" y="-5.75" font-family="Helvetica,sans-Serif" font-size="10.00">sys/prctl.h</text>
</a>
</g>
</g>
<!-- Node7&#45;&gt;Node21 -->
<g id="edge23_Node000007_Node000021" class="edge">
<title>Node7&#45;&gt;Node21</title>
<g id="a_edge23_Node000007_Node000021"><a xlink:title=" ">
<path fill="none" stroke="#63b8ff" d="M949.9,-54.84C973.98,-46.24 1010.48,-33.19 1037.61,-23.5"/>
<polygon fill="#63b8ff" stroke="#63b8ff" points="1038.56,-26.87 1046.8,-20.21 1036.21,-20.28 1038.56,-26.87"/>
</a>
</g>
</g>
<!-- Node22&#45;&gt;Node2 -->
<g id="edge26_Node000022_Node000002" class="edge">
<title>Node22&#45;&gt;Node2</title>
<g id="a_edge26_Node000022_Node000002"><a xlink:title=" ">
<path fill="none" stroke="#63b8ff" d="M97.5,-54.84C107.72,-47.07 122.7,-35.67 134.89,-26.4"/>
<polygon fill="#63b8ff" stroke="#63b8ff" points="136.88,-29.28 142.72,-20.44 132.64,-23.71 136.88,-29.28"/>
</a>
</g>
</g>
<!-- Node23 -->
<g id="Node000023" class="node">
<title>Node23</title>
<g id="a_Node000023"><a xlink:title=" ">
<polygon fill="#e0e0e0" stroke="#999999" points="51.25,-19.25 0,-19.25 0,0 51.25,0 51.25,-19.25"/>
<text text-anchor="middle" x="25.62" y="-5.75" font-family="Helvetica,sans-Serif" font-size="10.00">ostream</text>
</a>
</g>
</g>
<!-- Node22&#45;&gt;Node23 -->
<g id="edge25_Node000022_Node000023" class="edge">
<title>Node22&#45;&gt;Node23</title>
<g id="a_edge25_Node000022_Node000023"><a xlink:title=" ">
<path fill="none" stroke="#63b8ff" d="M75.45,-54.84C66.86,-47.22 54.36,-36.12 44.02,-26.95"/>
<polygon fill="#63b8ff" stroke="#63b8ff" points="46.59,-24.55 36.78,-20.53 41.94,-29.79 46.59,-24.55"/>
</a>
</g>
</g>
<!-- Node24 -->
<g id="Node000024" class="node">
<title>Node24</title>
<g id="a_Node000024"><a xlink:title=" ">
<polygon fill="#e0e0e0" stroke="#999999" points="112.12,-19.25 69.12,-19.25 69.12,0 112.12,0 112.12,-19.25"/>
<text text-anchor="middle" x="90.62" y="-5.75" font-family="Helvetica,sans-Serif" font-size="10.00">vector</text>
</a>
</g>
</g>
<!-- Node22&#45;&gt;Node24 -->
<g id="edge27_Node000022_Node000024" class="edge">
<title>Node22&#45;&gt;Node24</title>
<g id="a_edge27_Node000022_Node000024"><a xlink:title=" ">
<path fill="none" stroke="#63b8ff" d="M86.45,-55.08C87.07,-48.49 87.94,-39.21 88.73,-30.82"/>
<polygon fill="#63b8ff" stroke="#63b8ff" points="92.19,-31.4 89.64,-21.12 85.22,-30.75 92.19,-31.4"/>
</a>
</g>
</g>
<!-- Node25&#45;&gt;Node2 -->
<g id="edge30_Node000025_Node000002" class="edge">
<title>Node25&#45;&gt;Node2</title>
<g id="a_edge30_Node000025_Node000002"><a xlink:title=" ">
<path fill="none" stroke="#63b8ff" d="M584.33,-116.61C658.11,-110.61 832.45,-94.44 849.62,-74.5 855.21,-68.02 855.48,-61.49 849.62,-55.25 838.14,-43 322.13,-18.32 187.48,-12.08"/>
<polygon fill="#63b8ff" stroke="#63b8ff" points="187.68,-8.59 177.53,-11.62 187.35,-15.58 187.68,-8.59"/>
</a>
</g>
</g>
<!-- Node25&#45;&gt;Node3 -->
<g id="edge39_Node000025_Node000003" class="edge">
<title>Node25&#45;&gt;Node3</title>
<g id="a_edge39_Node000025_Node000003"><a xlink:title=" ">
<path fill="none" stroke="#63b8ff" d="M556.83,-130.11C558.22,-136.75 558.67,-146.05 558.18,-154.42"/>
<polygon fill="#63b8ff" stroke="#63b8ff" points="554.74,-153.72 556.98,-164.08 561.69,-154.59 554.74,-153.72"/>
</a>
</g>
</g>
<!-- Node25&#45;&gt;Node4 -->
<g id="edge29_Node000025_Node000004" class="edge">
<title>Node25&#45;&gt;Node4</title>
<g id="a_edge29_Node000025_Node000004"><a xlink:title=" ">
<path fill="none" stroke="#63b8ff" d="M584.42,-119C654.79,-117.98 824.96,-111.54 961.62,-74.5 981.83,-69.02 984.43,-60.78 1004.62,-55.25 1137.5,-18.88 1179.3,-42.49 1318.49,-19.38"/>
<polygon fill="#63b8ff" stroke="#63b8ff" points="1318.82,-22.88 1328.08,-17.74 1317.63,-15.98 1318.82,-22.88"/>
</a>
</g>
</g>
<!-- Node25&#45;&gt;Node7 -->
<g id="edge41_Node000025_Node000007" class="edge">
<title>Node25&#45;&gt;Node7</title>
<g id="a_edge41_Node000025_Node000007"><a xlink:title=" ">
<path fill="none" stroke="#63b8ff" d="M584.16,-115.49C643.61,-108.68 773.72,-93 882.62,-74.5 883.45,-74.36 884.28,-74.22 885.13,-74.07"/>
<polygon fill="#63b8ff" stroke="#63b8ff" points="885.54,-77.55 894.72,-72.26 884.25,-70.67 885.54,-77.55"/>
</a>
</g>
</g>
<!-- Node25&#45;&gt;Node22 -->
<g id="edge42_Node000025_Node000022" class="edge">
<title>Node25&#45;&gt;Node22</title>
<g id="a_edge42_Node000025_Node000022"><a xlink:title=" ">
<path fill="none" stroke="#63b8ff" d="M518.86,-115.38C439.62,-106.33 237.03,-83.18 139.58,-72.04"/>
<polygon fill="#63b8ff" stroke="#63b8ff" points="140.07,-68.57 129.73,-70.92 139.27,-75.53 140.07,-68.57"/>
</a>
</g>
</g>
<!-- Node26 -->
<g id="Node000026" class="node">
<title>Node26</title>
<g id="a_Node000026"><a xlink:title=" ">
<polygon fill="#e0e0e0" stroke="#999999" points="227.12,-74.5 184.12,-74.5 184.12,-55.25 227.12,-55.25 227.12,-74.5"/>
<text text-anchor="middle" x="205.62" y="-61" font-family="Helvetica,sans-Serif" font-size="10.00">cmath</text>
</a>
</g>
</g>
<!-- Node25&#45;&gt;Node26 -->
<g id="edge31_Node000025_Node000026" class="edge">
<title>Node25&#45;&gt;Node26</title>
<g id="a_edge31_Node000025_Node000026"><a xlink:title=" ">
<path fill="none" stroke="#63b8ff" d="M519.19,-115.94C463.71,-110.2 346.9,-96.79 238.67,-74.67"/>
<polygon fill="#63b8ff" stroke="#63b8ff" points="239.54,-71.27 229.04,-72.67 238.11,-78.13 239.54,-71.27"/>
</a>
</g>
</g>
<!-- Node27 -->
<g id="Node000027" class="node">
<title>Node27</title>
<g id="a_Node000027"><a xlink:title=" ">
<polygon fill="#e0e0e0" stroke="#999999" points="283.88,-74.5 245.38,-74.5 245.38,-55.25 283.88,-55.25 283.88,-74.5"/>
<text text-anchor="middle" x="264.62" y="-61" font-family="Helvetica,sans-Serif" font-size="10.00">utility</text>
</a>
</g>
</g>
<!-- Node25&#45;&gt;Node27 -->
<g id="edge32_Node000025_Node000027" class="edge">
<title>Node25&#45;&gt;Node27</title>
<g id="a_edge32_Node000025_Node000027"><a xlink:title=" ">
<path fill="none" stroke="#63b8ff" d="M518.79,-114.71C471.56,-108.09 381.51,-94.45 295.24,-74.62"/>
<polygon fill="#63b8ff" stroke="#63b8ff" points="296.2,-71.25 285.67,-72.38 294.61,-78.06 296.2,-71.25"/>
</a>
</g>
</g>
<!-- Node28 -->
<g id="Node000028" class="node">
<title>Node28</title>
<g id="a_Node000028"><a xlink:title=" ">
<polygon fill="#e0e0e0" stroke="#999999" points="385,-74.5 302.25,-74.5 302.25,-55.25 385,-55.25 385,-74.5"/>
<text text-anchor="middle" x="343.62" y="-61" font-family="Helvetica,sans-Serif" font-size="10.00">unordered_map</text>
</a>
</g>
</g>
<!-- Node25&#45;&gt;Node28 -->
<g id="edge33_Node000025_Node000028" class="edge">
<title>Node25&#45;&gt;Node28</title>
<g id="a_edge33_Node000025_Node000028"><a xlink:title=" ">
<path fill="none" stroke="#63b8ff" d="M519.12,-110.8C484.5,-101.94 429.37,-87.83 390.14,-77.78"/>
<polygon fill="#63b8ff" stroke="#63b8ff" points="391.05,-74.4 380.49,-75.31 389.31,-81.18 391.05,-74.4"/>
</a>
</g>
</g>
<!-- Node29 -->
<g id="Node000029" class="node">
<title>Node29</title>
<g id="a_Node000029"><a xlink:title=" ">
<polygon fill="#e0e0e0" stroke="#999999" points="464.12,-74.5 403.12,-74.5 403.12,-55.25 464.12,-55.25 464.12,-74.5"/>
<text text-anchor="middle" x="433.62" y="-61" font-family="Helvetica,sans-Serif" font-size="10.00">TNamed.h</text>
</a>
</g>
</g>
<!-- Node25&#45;&gt;Node29 -->
<g id="edge34_Node000025_Node000029" class="edge">
<title>Node25&#45;&gt;Node29</title>
<g id="a_edge34_Node000025_Node000029"><a xlink:title=" ">
<path fill="none" stroke="#63b8ff" d="M531.61,-110.09C513.13,-101.75 485.42,-89.25 464.18,-79.66"/>
<polygon fill="#63b8ff" stroke="#63b8ff" points="465.67,-76.5 455.12,-75.58 462.8,-82.88 465.67,-76.5"/>
</a>
</g>
</g>
<!-- Node30 -->
<g id="Node000030" class="node">
<title>Node30</title>
<g id="a_Node000030"><a xlink:title=" ">
<polygon fill="#e0e0e0" stroke="#999999" points="547.38,-74.5 481.88,-74.5 481.88,-55.25 547.38,-55.25 547.38,-74.5"/>
<text text-anchor="middle" x="514.62" y="-61" font-family="Helvetica,sans-Serif" font-size="10.00">TRandom.h</text>
</a>
</g>
</g>
<!-- Node25&#45;&gt;Node30 -->
<g id="edge35_Node000025_Node000030" class="edge">
<title>Node25&#45;&gt;Node30</title>
<g id="a_edge35_Node000025_Node000030"><a xlink:title=" ">
<path fill="none" stroke="#63b8ff" d="M545.52,-110.33C540.56,-103.21 533.42,-92.93 527.25,-84.05"/>
<polygon fill="#63b8ff" stroke="#63b8ff" points="530.31,-82.32 521.73,-76.1 524.56,-86.31 530.31,-82.32"/>
</a>
</g>
</g>
<!-- Node31 -->
<g id="Node000031" class="node">
<title>Node31</title>
<g id="a_Node000031"><a xlink:title=" ">
<polygon fill="#e0e0e0" stroke="#999999" points="611.62,-74.5 565.62,-74.5 565.62,-55.25 611.62,-55.25 611.62,-74.5"/>
<text text-anchor="middle" x="588.62" y="-61" font-family="Helvetica,sans-Serif" font-size="10.00">TList.h</text>
</a>
</g>
</g>
<!-- Node25&#45;&gt;Node31 -->
<g id="edge36_Node000025_Node000031" class="edge">
<title>Node25&#45;&gt;Node31</title>
<g id="a_edge36_Node000025_Node000031"><a xlink:title=" ">
<path fill="none" stroke="#63b8ff" d="M557.73,-110.33C562.69,-103.21 569.83,-92.93 576,-84.05"/>
<polygon fill="#63b8ff" stroke="#63b8ff" points="578.69,-86.31 581.52,-76.1 572.94,-82.32 578.69,-86.31"/>
</a>
</g>
</g>
<!-- Node32 -->
<g id="Node000032" class="node">
<title>Node32</title>
<g id="a_Node000032"><a xlink:title=" ">
<polygon fill="#e0e0e0" stroke="#999999" points="679.12,-74.5 630.12,-74.5 630.12,-55.25 679.12,-55.25 679.12,-74.5"/>
<text text-anchor="middle" x="654.62" y="-61" font-family="Helvetica,sans-Serif" font-size="10.00">TTree.h</text>
</a>
</g>
</g>
<!-- Node25&#45;&gt;Node32 -->
<g id="edge37_Node000025_Node000032" class="edge">
<title>Node25&#45;&gt;Node32</title>
<g id="a_edge37_Node000025_Node000032"><a xlink:title=" ">
<path fill="none" stroke="#63b8ff" d="M569.1,-110.09C584.93,-101.91 608.53,-89.71 626.93,-80.19"/>
<polygon fill="#63b8ff" stroke="#63b8ff" points="628.45,-83.35 635.72,-75.65 625.23,-77.13 628.45,-83.35"/>
</a>
</g>
</g>
<!-- Node33 -->
<g id="Node000033" class="node">
<title>Node33</title>
<g id="a_Node000033"><a xlink:title=" ">
<polygon fill="#e0e0e0" stroke="#999999" points="752.5,-74.5 696.75,-74.5 696.75,-55.25 752.5,-55.25 752.5,-74.5"/>
<text text-anchor="middle" x="724.62" y="-61" font-family="Helvetica,sans-Serif" font-size="10.00">TGraph.h</text>
</a>
</g>
</g>
<!-- Node25&#45;&gt;Node33 -->
<g id="edge38_Node000025_Node000033" class="edge">
<title>Node25&#45;&gt;Node33</title>
<g id="a_edge38_Node000025_Node000033"><a xlink:title=" ">
<path fill="none" stroke="#63b8ff" d="M580.97,-110.09C609.77,-101.23 653.88,-87.65 685.62,-77.88"/>
<polygon fill="#63b8ff" stroke="#63b8ff" points="686.31,-81.33 694.84,-75.04 684.25,-74.64 686.31,-81.33"/>
</a>
</g>
</g>
<!-- Node34 -->
<g id="Node000034" class="node">
<title>Node34</title>
<g id="a_Node000034"><a xlink:title=" ">
<polygon fill="#e0e0e0" stroke="#999999" points="840.25,-74.5 771,-74.5 771,-55.25 840.25,-55.25 840.25,-74.5"/>
<text text-anchor="middle" x="805.62" y="-61" font-family="Helvetica,sans-Serif" font-size="10.00">TClassRef.h</text>
</a>
</g>
</g>
<!-- Node25&#45;&gt;Node34 -->
<g id="edge40_Node000025_Node000034" class="edge">
<title>Node25&#45;&gt;Node34</title>
<g id="a_edge40_Node000025_Node000034"><a xlink:title=" ">
<path fill="none" stroke="#63b8ff" d="M584.31,-112.27C628.91,-102.92 709.04,-86.12 759.67,-75.51"/>
<polygon fill="#63b8ff" stroke="#63b8ff" points="760.07,-79 769.14,-73.52 758.64,-72.15 760.07,-79"/>
</a>
</g>
</g>
</g>
</svg>

<g id="navigator" transform="translate(0 0)" fill="#404254">
  <rect fill="#f2f5e9" fill-opacity="0.5" stroke="#606060" stroke-width=".5" x="0" y="0" width="60" height="60"/>
  <use id="zoomplus" xlink:href="#zoomPlus" x="17" y="9" onmousedown="handleZoom(evt,'in')"/>
  <use id="zoomminus" xlink:href="#zoomMin" x="42" y="9" onmousedown="handleZoom(evt,'out')"/>
  <use id="reset" xlink:href="#resetDef" x="30" y="36" onmousedown="handleReset()"/>
   <use id="arrowup" xlink:href="#arrowUp" x="0" y="0" onmousedown="handlePan(0,-1)"/>
  <use id="arrowright" xlink:href="#arrowRight" x="0" y="0" onmousedown="handlePan(1,0)"/>
  <use id="arrowdown" xlink:href="#arrowDown" x="0" y="0" onmousedown="handlePan(0,1)"/>
  <use id="arrowleft" xlink:href="#arrowLeft" x="0" y="0" onmousedown="handlePan(-1,0)"/>
</g>
<svg viewBox="0 0 15 15" width="100%" height="30px" preserveAspectRatio="xMaxYMin meet">
 <g id="arrow_out" transform="scale(0.3 0.3)">
  <a xlink:href="_t_h_i_l_mnemonic_8h__incl_org.svg" target="_base">
   <rect id="button" ry="5" rx="5" y="6" x="6" height="38" width="38"
        fill="#f2f5e9" fill-opacity="0.5" stroke="#606060" stroke-width="1.0"/>
   <path id="arrow"
     d="M 11.500037,31.436501 C 11.940474,20.09759 22.043105,11.32322 32.158766,21.979434 L 37.068811,17.246167 C 37.068811,17.246167 37.088388,32 37.088388,32 L 22.160133,31.978069 C 22.160133,31.978069 26.997745,27.140456 26.997745,27.140456 C 18.528582,18.264221 13.291696,25.230495 11.500037,31.436501 z"
     style="fill:#404040;"/>
  </a>
 </g>
</svg>

<style type='text/css'>
<![CDATA[
[data-mouse-over-selected='false'] { opacity: 0.7; }
[data-mouse-over-selected='true']  { opacity: 1.0; }
]]>
</style>
<script type="application/ecmascript"><![CDATA[
document.addEventListener('DOMContentLoaded', (event) => {
  highlightEdges();
  highlightAdjacentNodes();
});
]]></script>
</svg>
