<?xml version="1.0" encoding="UTF-8" standalone="no"?>
<!DOCTYPE svg PUBLIC "-//W3C//DTD SVG 1.1//EN"
 "http://www.w3.org/Graphics/SVG/1.1/DTD/svg11.dtd">
<!-- Generated by graphviz version 12.2.0 (20241103.1931)
 -->
<!-- Title: TKinematics.cxx Pages: 1 -->
<!--zoomable 248 -->

<svg id="main" version="1.1" xmlns="http://www.w3.org/2000/svg" xmlns:xlink="http://www.w3.org/1999/xlink" xml:space="preserve" onload="init(evt)">

<style type="text/css"><![CDATA[
.node, .edge {opacity: 0.7;}
.node.selected, .edge.selected {opacity: 1;}
.edge:hover path { stroke: red; }
.edge:hover polygon { stroke: red; fill: red; }
]]></style>

<defs>
  <circle id="rim" cx="0" cy="0" r="7"/>
  <circle id="rim2" cx="0" cy="0" r="3.5"/>
  <g id="zoomPlus">
    <use xlink:href="#rim" fill="#404040"><set attributeName="fill" to="#808080" begin="zoomplus.mouseover" end="zoomplus.mouseout"/></use>
    <path d="M-4,0h8M0,-4v8" fill="none" stroke="white" stroke-width="1.5" pointer-events="none"/>
  </g>
  <g id="zoomMin">
    <use xlink:href="#rim" fill="#404040"><set attributeName="fill" to="#808080" begin="zoomminus.mouseover" end="zoomminus.mouseout"/></use>
    <path d="M-4,0h8" fill="none" stroke="white" stroke-width="1.5" pointer-events="none"/>
  </g>
  <g id="arrowUp" transform="translate(30 24)">
    <use xlink:href="#rim"/>
    <path pointer-events="none" fill="none" stroke="white" stroke-width="1.5" d="M0,-3.0v7 M-2.5,-0.5L0,-3.0L2.5,-0.5"/>
  </g>
  <g id="arrowRight" transform="rotate(90) translate(36 -43)">
    <use xlink:href="#rim"/>
    <path pointer-events="none" fill="none" stroke="white" stroke-width="1.5" d="M0,-3.0v7 M-2.5,-0.5L0,-3.0L2.5,-0.5"/>
  </g>
  <g id="arrowDown" transform="rotate(180) translate(-30 -48)">
    <use xlink:href="#rim"/>
    <path pointer-events="none" fill="none" stroke="white" stroke-width="1.5" d="M0,-3.0v7 M-2.5,-0.5L0,-3.0L2.5,-0.5"/>
  </g>
  <g id="arrowLeft" transform="rotate(270) translate(-36 17)">
    <use xlink:href="#rim"/>
    <path pointer-events="none" fill="none" stroke="white" stroke-width="1.5" d="M0,-3.0v7 M-2.5,-0.5L0,-3.0L2.5,-0.5"/>
  </g>
  <g id="resetDef">
    <use xlink:href="#rim2" fill="#404040"><set attributeName="fill" to="#808080" begin="reset.mouseover" end="reset.mouseout"/></use>
  </g>
</defs>
<script type="application/ecmascript">
var viewWidth = 1298;
var viewHeight = 248;
var sectionId = 'dynsection-0';
</script>
<script type="application/ecmascript" xlink:href="svg.min.js"/>
<svg id="graph" class="graph">
<g id="viewport">
<title>TKinematics.cxx</title>
<!-- Node1 -->
<g id="Node000001" class="node">
<title>Node1</title>
<g id="a_Node000001"><a xlink:title=" ">
<polygon fill="#999999" stroke="#666666" points="827.83,-240.25 740.58,-240.25 740.58,-221 827.83,-221 827.83,-240.25"/>
<text text-anchor="middle" x="784.21" y="-226.75" font-family="Helvetica,sans-Serif" font-size="10.00">TKinematics.cxx</text>
</a>
</g>
</g>
<!-- Node2 -->
<g id="Node000002" class="node">
<title>Node2</title>
<g id="a_Node000002"><a xlink:href="_t_kinematics_8h.html" target="_top" xlink:title=" ">
<polygon fill="white" stroke="#666666" points="1105.33,-185 1027.08,-185 1027.08,-165.75 1105.33,-165.75 1105.33,-185"/>
<text text-anchor="middle" x="1066.21" y="-171.5" font-family="Helvetica,sans-Serif" font-size="10.00">TKinematics.h</text>
</a>
</g>
</g>
<!-- Node1&#45;&gt;Node2 -->
<g id="edge1_Node000001_Node000002" class="edge">
<title>Node1&#45;&gt;Node2</title>
<g id="a_edge1_Node000001_Node000002"><a xlink:title=" ">
<path fill="none" stroke="#63b8ff" d="M828.27,-221.3C879.07,-211.71 962.41,-195.98 1015.76,-185.9"/>
<polygon fill="#63b8ff" stroke="#63b8ff" points="1016.33,-189.35 1025.51,-184.06 1015.03,-182.48 1016.33,-189.35"/>
</a>
</g>
</g>
<!-- Node16 -->
<g id="Node000016" class="node">
<title>Node16</title>
<g id="a_Node000016"><a xlink:href="_globals_8h.html" target="_top" xlink:title=" ">
<polygon fill="white" stroke="#666666" points="493.46,-129.75 436.96,-129.75 436.96,-110.5 493.46,-110.5 493.46,-129.75"/>
<text text-anchor="middle" x="465.21" y="-116.25" font-family="Helvetica,sans-Serif" font-size="10.00">Globals.h</text>
</a>
</g>
</g>
<!-- Node1&#45;&gt;Node16 -->
<g id="edge16_Node000001_Node000016" class="edge">
<title>Node1&#45;&gt;Node16</title>
<g id="a_edge16_Node000001_Node000016"><a xlink:title=" ">
<path fill="none" stroke="#63b8ff" d="M757.56,-220.56C700.79,-201.25 567.83,-156.03 502.61,-133.85"/>
<polygon fill="#63b8ff" stroke="#63b8ff" points="504.03,-130.63 493.44,-130.73 501.78,-137.26 504.03,-130.63"/>
</a>
</g>
</g>
<!-- Node3 -->
<g id="Node000003" class="node">
<title>Node3</title>
<g id="a_Node000003"><a xlink:title=" ">
<polygon fill="#e0e0e0" stroke="#999999" points="1289.71,-74.5 1228.71,-74.5 1228.71,-55.25 1289.71,-55.25 1289.71,-74.5"/>
<text text-anchor="middle" x="1259.21" y="-61" font-family="Helvetica,sans-Serif" font-size="10.00">TNamed.h</text>
</a>
</g>
</g>
<!-- Node2&#45;&gt;Node3 -->
<g id="edge2_Node000002_Node000003" class="edge">
<title>Node2&#45;&gt;Node3</title>
<g id="a_edge2_Node000002_Node000003"><a xlink:title=" ">
<path fill="none" stroke="#63b8ff" d="M1105.56,-169.78C1153.09,-163.4 1229.07,-150.27 1248.21,-129.75 1259.02,-118.16 1261.26,-99.98 1261.09,-85.98"/>
<polygon fill="#63b8ff" stroke="#63b8ff" points="1264.59,-85.89 1260.52,-76.11 1257.61,-86.29 1264.59,-85.89"/>
</a>
</g>
</g>
<!-- Node4 -->
<g id="Node000004" class="node">
<title>Node4</title>
<g id="a_Node000004"><a xlink:title=" ">
<polygon fill="#e0e0e0" stroke="#999999" points="1057.46,-129.75 1000.96,-129.75 1000.96,-110.5 1057.46,-110.5 1057.46,-129.75"/>
<text text-anchor="middle" x="1029.21" y="-116.25" font-family="Helvetica,sans-Serif" font-size="10.00">TSpline.h</text>
</a>
</g>
</g>
<!-- Node2&#45;&gt;Node4 -->
<g id="edge3_Node000002_Node000004" class="edge">
<title>Node2&#45;&gt;Node4</title>
<g id="a_edge3_Node000002_Node000004"><a xlink:title=" ">
<path fill="none" stroke="#63b8ff" d="M1060.1,-165.58C1055.15,-158.46 1048,-148.18 1041.83,-139.3"/>
<polygon fill="#63b8ff" stroke="#63b8ff" points="1044.89,-137.57 1036.31,-131.35 1039.14,-141.56 1044.89,-137.57"/>
</a>
</g>
</g>
<!-- Node5 -->
<g id="Node000005" class="node">
<title>Node5</title>
<g id="a_Node000005"><a xlink:title=" ">
<polygon fill="#e0e0e0" stroke="#999999" points="1131.08,-129.75 1075.33,-129.75 1075.33,-110.5 1131.08,-110.5 1131.08,-129.75"/>
<text text-anchor="middle" x="1103.21" y="-116.25" font-family="Helvetica,sans-Serif" font-size="10.00">TGraph.h</text>
</a>
</g>
</g>
<!-- Node2&#45;&gt;Node5 -->
<g id="edge4_Node000002_Node000005" class="edge">
<title>Node2&#45;&gt;Node5</title>
<g id="a_edge4_Node000002_Node000005"><a xlink:title=" ">
<path fill="none" stroke="#63b8ff" d="M1072.32,-165.58C1077.27,-158.46 1084.41,-148.18 1090.58,-139.3"/>
<polygon fill="#63b8ff" stroke="#63b8ff" points="1093.27,-141.56 1096.1,-131.35 1087.52,-137.57 1093.27,-141.56"/>
</a>
</g>
</g>
<!-- Node6 -->
<g id="Node000006" class="node">
<title>Node6</title>
<g id="a_Node000006"><a xlink:title=" ">
<polygon fill="#e0e0e0" stroke="#999999" points="1239.33,-129.75 1149.08,-129.75 1149.08,-110.5 1239.33,-110.5 1239.33,-129.75"/>
<text text-anchor="middle" x="1194.21" y="-116.25" font-family="Helvetica,sans-Serif" font-size="10.00">TLorentzVector.h</text>
</a>
</g>
</g>
<!-- Node2&#45;&gt;Node6 -->
<g id="edge5_Node000002_Node000006" class="edge">
<title>Node2&#45;&gt;Node6</title>
<g id="a_edge5_Node000002_Node000006"><a xlink:title=" ">
<path fill="none" stroke="#63b8ff" d="M1087.92,-165.34C1108.24,-156.89 1138.85,-144.15 1162.01,-134.52"/>
<polygon fill="#63b8ff" stroke="#63b8ff" points="1163.1,-137.86 1170.99,-130.78 1160.41,-131.39 1163.1,-137.86"/>
</a>
</g>
</g>
<!-- Node7 -->
<g id="Node000007" class="node">
<title>Node7</title>
<g id="a_Node000007"><a xlink:href="_t_nucleus_8h.html" target="_top" xlink:title=" ">
<polygon fill="white" stroke="#666666" points="982.96,-129.75 917.46,-129.75 917.46,-110.5 982.96,-110.5 982.96,-129.75"/>
<text text-anchor="middle" x="950.21" y="-116.25" font-family="Helvetica,sans-Serif" font-size="10.00">TNucleus.h</text>
</a>
</g>
</g>
<!-- Node2&#45;&gt;Node7 -->
<g id="edge6_Node000002_Node000007" class="edge">
<title>Node2&#45;&gt;Node7</title>
<g id="a_edge6_Node000002_Node000007"><a xlink:title=" ">
<path fill="none" stroke="#63b8ff" d="M1046.53,-165.34C1028.36,-157 1001.12,-144.5 980.24,-134.91"/>
<polygon fill="#63b8ff" stroke="#63b8ff" points="981.9,-131.83 971.36,-130.83 978.98,-138.19 981.9,-131.83"/>
</a>
</g>
</g>
<!-- Node7&#45;&gt;Node3 -->
<g id="edge14_Node000007_Node000003" class="edge">
<title>Node7&#45;&gt;Node3</title>
<g id="a_edge14_Node000007_Node000003"><a xlink:title=" ">
<path fill="none" stroke="#63b8ff" d="M983.2,-112.22C986.24,-111.62 989.28,-111.04 992.21,-110.5 1089.64,-92.53 1114.59,-91.44 1212.21,-74.5 1213.84,-74.22 1215.51,-73.92 1217.19,-73.63"/>
<polygon fill="#63b8ff" stroke="#63b8ff" points="1217.66,-77.1 1226.89,-71.89 1216.43,-70.21 1217.66,-77.1"/>
</a>
</g>
</g>
<!-- Node8 -->
<g id="Node000008" class="node">
<title>Node8</title>
<g id="a_Node000008"><a xlink:title=" ">
<polygon fill="#e0e0e0" stroke="#999999" points="1139.71,-74.5 1096.71,-74.5 1096.71,-55.25 1139.71,-55.25 1139.71,-74.5"/>
<text text-anchor="middle" x="1118.21" y="-61" font-family="Helvetica,sans-Serif" font-size="10.00">cmath</text>
</a>
</g>
</g>
<!-- Node7&#45;&gt;Node8 -->
<g id="edge7_Node000007_Node000008" class="edge">
<title>Node7&#45;&gt;Node8</title>
<g id="a_edge7_Node000007_Node000008"><a xlink:title=" ">
<path fill="none" stroke="#63b8ff" d="M978.71,-110.09C1008.3,-100.71 1054.54,-86.05 1085.59,-76.21"/>
<polygon fill="#63b8ff" stroke="#63b8ff" points="1086.36,-79.64 1094.83,-73.28 1084.24,-72.97 1086.36,-79.64"/>
</a>
</g>
</g>
<!-- Node9 -->
<g id="Node000009" class="node">
<title>Node9</title>
<g id="a_Node000009"><a xlink:title=" ">
<polygon fill="#e0e0e0" stroke="#999999" points="1202.83,-74.5 1157.58,-74.5 1157.58,-55.25 1202.83,-55.25 1202.83,-74.5"/>
<text text-anchor="middle" x="1180.21" y="-61" font-family="Helvetica,sans-Serif" font-size="10.00">cstring</text>
</a>
</g>
</g>
<!-- Node7&#45;&gt;Node9 -->
<g id="edge8_Node000007_Node000009" class="edge">
<title>Node7&#45;&gt;Node9</title>
<g id="a_edge8_Node000007_Node000009"><a xlink:title=" ">
<path fill="none" stroke="#63b8ff" d="M983.43,-112.21C1020.87,-104.31 1083.8,-90.67 1146.37,-75.13"/>
<polygon fill="#63b8ff" stroke="#63b8ff" points="1146.9,-78.6 1155.75,-72.78 1145.2,-71.81 1146.9,-78.6"/>
</a>
</g>
</g>
<!-- Node10 -->
<g id="Node000010" class="node">
<title>Node10</title>
<g id="a_Node000010"><a xlink:title=" ">
<polygon fill="#e0e0e0" stroke="#999999" points="838.46,-74.5 793.96,-74.5 793.96,-55.25 838.46,-55.25 838.46,-74.5"/>
<text text-anchor="middle" x="816.21" y="-61" font-family="Helvetica,sans-Serif" font-size="10.00">cstdlib</text>
</a>
</g>
</g>
<!-- Node7&#45;&gt;Node10 -->
<g id="edge9_Node000007_Node000010" class="edge">
<title>Node7&#45;&gt;Node10</title>
<g id="a_edge9_Node000007_Node000010"><a xlink:title=" ">
<path fill="none" stroke="#63b8ff" d="M927.48,-110.09C905.98,-101.55 873.47,-88.63 849.14,-78.96"/>
<polygon fill="#63b8ff" stroke="#63b8ff" points="850.59,-75.77 840.01,-75.33 848.01,-82.28 850.59,-75.77"/>
</a>
</g>
</g>
<!-- Node11 -->
<g id="Node000011" class="node">
<title>Node11</title>
<g id="a_Node000011"><a xlink:title=" ">
<polygon fill="#e0e0e0" stroke="#999999" points="896.21,-74.5 856.21,-74.5 856.21,-55.25 896.21,-55.25 896.21,-74.5"/>
<text text-anchor="middle" x="876.21" y="-61" font-family="Helvetica,sans-Serif" font-size="10.00">string</text>
</a>
</g>
</g>
<!-- Node7&#45;&gt;Node11 -->
<g id="edge10_Node000007_Node000011" class="edge">
<title>Node7&#45;&gt;Node11</title>
<g id="a_edge10_Node000007_Node000011"><a xlink:title=" ">
<path fill="none" stroke="#63b8ff" d="M937.65,-110.09C926.74,-102.24 910.7,-90.7 897.75,-81.37"/>
<polygon fill="#63b8ff" stroke="#63b8ff" points="899.96,-78.66 889.8,-75.66 895.88,-84.34 899.96,-78.66"/>
</a>
</g>
</g>
<!-- Node12 -->
<g id="Node000012" class="node">
<title>Node12</title>
<g id="a_Node000012"><a xlink:href="_t_transition_8h.html" target="_top" xlink:title=" ">
<polygon fill="white" stroke="#666666" points="986.33,-74.5 914.08,-74.5 914.08,-55.25 986.33,-55.25 986.33,-74.5"/>
<text text-anchor="middle" x="950.21" y="-61" font-family="Helvetica,sans-Serif" font-size="10.00">TTransition.h</text>
</a>
</g>
</g>
<!-- Node7&#45;&gt;Node12 -->
<g id="edge11_Node000007_Node000012" class="edge">
<title>Node7&#45;&gt;Node12</title>
<g id="a_edge11_Node000007_Node000012"><a xlink:title=" ">
<path fill="none" stroke="#63b8ff" d="M950.21,-110.33C950.21,-103.82 950.21,-94.67 950.21,-86.37"/>
<polygon fill="#63b8ff" stroke="#63b8ff" points="953.71,-86.37 950.21,-76.37 946.71,-86.37 953.71,-86.37"/>
</a>
</g>
</g>
<!-- Node15 -->
<g id="Node000015" class="node">
<title>Node15</title>
<g id="a_Node000015"><a xlink:title=" ">
<polygon fill="#e0e0e0" stroke="#999999" points="1078.46,-74.5 1003.96,-74.5 1003.96,-55.25 1078.46,-55.25 1078.46,-74.5"/>
<text text-anchor="middle" x="1041.21" y="-61" font-family="Helvetica,sans-Serif" font-size="10.00">TSortedList.h</text>
</a>
</g>
</g>
<!-- Node7&#45;&gt;Node15 -->
<g id="edge15_Node000007_Node000015" class="edge">
<title>Node7&#45;&gt;Node15</title>
<g id="a_edge15_Node000007_Node000015"><a xlink:title=" ">
<path fill="none" stroke="#63b8ff" d="M965.64,-110.09C979.37,-102.06 999.71,-90.16 1015.82,-80.73"/>
<polygon fill="#63b8ff" stroke="#63b8ff" points="1017.52,-83.79 1024.39,-75.72 1013.99,-77.75 1017.52,-83.79"/>
</a>
</g>
</g>
<!-- Node13 -->
<g id="Node000013" class="node">
<title>Node13</title>
<g id="a_Node000013"><a xlink:title=" ">
<polygon fill="#e0e0e0" stroke="#999999" points="456.33,-19.25 414.08,-19.25 414.08,0 456.33,0 456.33,-19.25"/>
<text text-anchor="middle" x="435.21" y="-5.75" font-family="Helvetica,sans-Serif" font-size="10.00">cstdio</text>
</a>
</g>
</g>
<!-- Node12&#45;&gt;Node13 -->
<g id="edge12_Node000012_Node000013" class="edge">
<title>Node12&#45;&gt;Node13</title>
<g id="a_edge12_Node000012_Node000013"><a xlink:title=" ">
<path fill="none" stroke="#63b8ff" d="M913.91,-56.61C910.97,-56.12 908.04,-55.66 905.21,-55.25 741.54,-31.85 544,-17.62 467.57,-12.64"/>
<polygon fill="#63b8ff" stroke="#63b8ff" points="468.09,-9.16 457.88,-12.01 467.64,-16.15 468.09,-9.16"/>
</a>
</g>
</g>
<!-- Node14 -->
<g id="Node000014" class="node">
<title>Node14</title>
<g id="a_Node000014"><a xlink:title=" ">
<polygon fill="#e0e0e0" stroke="#999999" points="979.21,-19.25 921.21,-19.25 921.21,0 979.21,0 979.21,-19.25"/>
<text text-anchor="middle" x="950.21" y="-5.75" font-family="Helvetica,sans-Serif" font-size="10.00">TObject.h</text>
</a>
</g>
</g>
<!-- Node12&#45;&gt;Node14 -->
<g id="edge13_Node000012_Node000014" class="edge">
<title>Node12&#45;&gt;Node14</title>
<g id="a_edge13_Node000012_Node000014"><a xlink:title=" ">
<path fill="none" stroke="#63b8ff" d="M950.21,-55.08C950.21,-48.57 950.21,-39.42 950.21,-31.12"/>
<polygon fill="#63b8ff" stroke="#63b8ff" points="953.71,-31.12 950.21,-21.12 946.71,-31.12 953.71,-31.12"/>
</a>
</g>
</g>
<!-- Node16&#45;&gt;Node10 -->
<g id="edge22_Node000016_Node000010" class="edge">
<title>Node16&#45;&gt;Node10</title>
<g id="a_edge22_Node000016_Node000010"><a xlink:title=" ">
<path fill="none" stroke="#63b8ff" d="M493.68,-116.44C548.02,-111.04 670.44,-97.55 782.45,-74.84"/>
<polygon fill="#63b8ff" stroke="#63b8ff" points="783.04,-78.29 792.12,-72.84 781.62,-71.44 783.04,-78.29"/>
</a>
</g>
</g>
<!-- Node16&#45;&gt;Node11 -->
<g id="edge20_Node000016_Node000011" class="edge">
<title>Node16&#45;&gt;Node11</title>
<g id="a_edge20_Node000016_Node000011"><a xlink:title=" ">
<path fill="none" stroke="#63b8ff" d="M493.75,-117.48C555.94,-113.54 708.4,-101.95 844.69,-74.69"/>
<polygon fill="#63b8ff" stroke="#63b8ff" points="845.14,-78.17 854.24,-72.75 843.74,-71.31 845.14,-78.17"/>
</a>
</g>
</g>
<!-- Node16&#45;&gt;Node13 -->
<g id="edge21_Node000016_Node000013" class="edge">
<title>Node16&#45;&gt;Node13</title>
<g id="a_edge21_Node000016_Node000013"><a xlink:title=" ">
<path fill="none" stroke="#63b8ff" d="M436.55,-118.53C340.64,-116.23 35.19,-106.44 6.21,-74.5 -48.36,-14.37 293.48,-10.22 402.55,-10.4"/>
<polygon fill="#63b8ff" stroke="#63b8ff" points="402.28,-13.9 412.29,-10.44 402.3,-6.9 402.28,-13.9"/>
</a>
</g>
</g>
<!-- Node17 -->
<g id="Node000017" class="node">
<title>Node17</title>
<g id="a_Node000017"><a xlink:title=" ">
<polygon fill="#e0e0e0" stroke="#999999" points="68.96,-74.5 15.46,-74.5 15.46,-55.25 68.96,-55.25 68.96,-74.5"/>
<text text-anchor="middle" x="42.21" y="-61" font-family="Helvetica,sans-Serif" font-size="10.00">iostream</text>
</a>
</g>
</g>
<!-- Node16&#45;&gt;Node17 -->
<g id="edge17_Node000016_Node000017" class="edge">
<title>Node16&#45;&gt;Node17</title>
<g id="a_edge17_Node000016_Node000017"><a xlink:title=" ">
<path fill="none" stroke="#63b8ff" d="M436.87,-117.03C374.38,-112.17 219.84,-98.78 80.54,-74.71"/>
<polygon fill="#63b8ff" stroke="#63b8ff" points="81.21,-71.27 70.75,-72.99 80,-78.16 81.21,-71.27"/>
</a>
</g>
</g>
<!-- Node18 -->
<g id="Node000018" class="node">
<title>Node18</title>
<g id="a_Node000018"><a xlink:title=" ">
<polygon fill="#e0e0e0" stroke="#999999" points="137.08,-74.5 87.33,-74.5 87.33,-55.25 137.08,-55.25 137.08,-74.5"/>
<text text-anchor="middle" x="112.21" y="-61" font-family="Helvetica,sans-Serif" font-size="10.00">iomanip</text>
</a>
</g>
</g>
<!-- Node16&#45;&gt;Node18 -->
<g id="edge18_Node000016_Node000018" class="edge">
<title>Node16&#45;&gt;Node18</title>
<g id="a_edge18_Node000016_Node000018"><a xlink:title=" ">
<path fill="none" stroke="#63b8ff" d="M436.87,-116.22C382.77,-110.44 260.86,-96.33 148.57,-74.77"/>
<polygon fill="#63b8ff" stroke="#63b8ff" points="149.36,-71.36 138.87,-72.88 148.02,-78.23 149.36,-71.36"/>
</a>
</g>
</g>
<!-- Node19 -->
<g id="Node000019" class="node">
<title>Node19</title>
<g id="a_Node000019"><a xlink:title=" ">
<polygon fill="#e0e0e0" stroke="#999999" points="213.21,-74.5 155.21,-74.5 155.21,-55.25 213.21,-55.25 213.21,-74.5"/>
<text text-anchor="middle" x="184.21" y="-61" font-family="Helvetica,sans-Serif" font-size="10.00">stdexcept</text>
</a>
</g>
</g>
<!-- Node16&#45;&gt;Node19 -->
<g id="edge19_Node000016_Node000019" class="edge">
<title>Node16&#45;&gt;Node19</title>
<g id="a_edge19_Node000016_Node000019"><a xlink:title=" ">
<path fill="none" stroke="#63b8ff" d="M436.7,-114.29C393.18,-106.81 307.31,-91.73 224.74,-74.95"/>
<polygon fill="#63b8ff" stroke="#63b8ff" points="225.62,-71.56 215.12,-72.99 224.22,-78.42 225.62,-71.56"/>
</a>
</g>
</g>
<!-- Node20 -->
<g id="Node000020" class="node">
<title>Node20</title>
<g id="a_Node000020"><a xlink:title=" ">
<polygon fill="#e0e0e0" stroke="#999999" points="290.96,-74.5 231.46,-74.5 231.46,-55.25 290.96,-55.25 290.96,-74.5"/>
<text text-anchor="middle" x="261.21" y="-61" font-family="Helvetica,sans-Serif" font-size="10.00">execinfo.h</text>
</a>
</g>
</g>
<!-- Node16&#45;&gt;Node20 -->
<g id="edge23_Node000016_Node000020" class="edge">
<title>Node16&#45;&gt;Node20</title>
<g id="a_edge23_Node000016_Node000020"><a xlink:title=" ">
<path fill="none" stroke="#63b8ff" d="M436.84,-111.72C401.89,-102.6 342.24,-87.03 302.28,-76.6"/>
<polygon fill="#63b8ff" stroke="#63b8ff" points="303.35,-73.26 292.79,-74.12 301.58,-80.03 303.35,-73.26"/>
</a>
</g>
</g>
<!-- Node21 -->
<g id="Node000021" class="node">
<title>Node21</title>
<g id="a_Node000021"><a xlink:title=" ">
<polygon fill="#e0e0e0" stroke="#999999" points="359.46,-74.5 308.96,-74.5 308.96,-55.25 359.46,-55.25 359.46,-74.5"/>
<text text-anchor="middle" x="334.21" y="-61" font-family="Helvetica,sans-Serif" font-size="10.00">cxxabi.h</text>
</a>
</g>
</g>
<!-- Node16&#45;&gt;Node21 -->
<g id="edge24_Node000016_Node000021" class="edge">
<title>Node16&#45;&gt;Node21</title>
<g id="a_edge24_Node000016_Node000021"><a xlink:title=" ">
<path fill="none" stroke="#63b8ff" d="M442.98,-110.09C422.19,-101.64 390.86,-88.9 367.15,-79.27"/>
<polygon fill="#63b8ff" stroke="#63b8ff" points="368.52,-76.05 357.94,-75.52 365.89,-82.53 368.52,-76.05"/>
</a>
</g>
</g>
<!-- Node22 -->
<g id="Node000022" class="node">
<title>Node22</title>
<g id="a_Node000022"><a xlink:title=" ">
<polygon fill="#e0e0e0" stroke="#999999" points="428.83,-74.5 377.58,-74.5 377.58,-55.25 428.83,-55.25 428.83,-74.5"/>
<text text-anchor="middle" x="403.21" y="-61" font-family="Helvetica,sans-Serif" font-size="10.00">sstream</text>
</a>
</g>
</g>
<!-- Node16&#45;&gt;Node22 -->
<g id="edge25_Node000016_Node000022" class="edge">
<title>Node16&#45;&gt;Node22</title>
<g id="a_edge25_Node000016_Node000022"><a xlink:title=" ">
<path fill="none" stroke="#63b8ff" d="M454.69,-110.09C445.82,-102.47 432.9,-91.37 422.22,-82.2"/>
<polygon fill="#63b8ff" stroke="#63b8ff" points="424.58,-79.62 414.72,-75.76 420.02,-84.93 424.58,-79.62"/>
</a>
</g>
</g>
<!-- Node23 -->
<g id="Node000023" class="node">
<title>Node23</title>
<g id="a_Node000023"><a xlink:title=" ">
<polygon fill="#e0e0e0" stroke="#999999" points="483.71,-74.5 446.71,-74.5 446.71,-55.25 483.71,-55.25 483.71,-74.5"/>
<text text-anchor="middle" x="465.21" y="-61" font-family="Helvetica,sans-Serif" font-size="10.00">array</text>
</a>
</g>
</g>
<!-- Node16&#45;&gt;Node23 -->
<g id="edge26_Node000016_Node000023" class="edge">
<title>Node16&#45;&gt;Node23</title>
<g id="a_edge26_Node000016_Node000023"><a xlink:title=" ">
<path fill="none" stroke="#63b8ff" d="M465.21,-110.33C465.21,-103.82 465.21,-94.67 465.21,-86.37"/>
<polygon fill="#63b8ff" stroke="#63b8ff" points="468.71,-86.37 465.21,-76.37 461.71,-86.37 468.71,-86.37"/>
</a>
</g>
</g>
<!-- Node24 -->
<g id="Node000024" class="node">
<title>Node24</title>
<g id="a_Node000024"><a xlink:title=" ">
<polygon fill="#e0e0e0" stroke="#999999" points="552.46,-74.5 501.96,-74.5 501.96,-55.25 552.46,-55.25 552.46,-74.5"/>
<text text-anchor="middle" x="527.21" y="-61" font-family="Helvetica,sans-Serif" font-size="10.00">memory</text>
</a>
</g>
</g>
<!-- Node16&#45;&gt;Node24 -->
<g id="edge27_Node000016_Node000024" class="edge">
<title>Node16&#45;&gt;Node24</title>
<g id="a_edge27_Node000016_Node000024"><a xlink:title=" ">
<path fill="none" stroke="#63b8ff" d="M475.72,-110.09C484.6,-102.47 497.52,-91.37 508.2,-82.2"/>
<polygon fill="#63b8ff" stroke="#63b8ff" points="510.39,-84.93 515.7,-75.76 505.83,-79.62 510.39,-84.93"/>
</a>
</g>
</g>
<!-- Node25 -->
<g id="Node000025" class="node">
<title>Node25</title>
<g id="a_Node000025"><a xlink:title=" ">
<polygon fill="#e0e0e0" stroke="#999999" points="620.08,-74.5 570.33,-74.5 570.33,-55.25 620.08,-55.25 620.08,-74.5"/>
<text text-anchor="middle" x="595.21" y="-61" font-family="Helvetica,sans-Serif" font-size="10.00">unistd.h</text>
</a>
</g>
</g>
<!-- Node16&#45;&gt;Node25 -->
<g id="edge28_Node000016_Node000025" class="edge">
<title>Node16&#45;&gt;Node25</title>
<g id="a_edge28_Node000016_Node000025"><a xlink:title=" ">
<path fill="none" stroke="#63b8ff" d="M487.26,-110.09C507.9,-101.64 538.99,-88.9 562.51,-79.27"/>
<polygon fill="#63b8ff" stroke="#63b8ff" points="563.72,-82.56 571.65,-75.53 561.06,-76.08 563.72,-82.56"/>
</a>
</g>
</g>
<!-- Node26 -->
<g id="Node000026" class="node">
<title>Node26</title>
<g id="a_Node000026"><a xlink:title=" ">
<polygon fill="#e0e0e0" stroke="#999999" points="697.96,-74.5 638.46,-74.5 638.46,-55.25 697.96,-55.25 697.96,-74.5"/>
<text text-anchor="middle" x="668.21" y="-61" font-family="Helvetica,sans-Serif" font-size="10.00">sys/wait.h</text>
</a>
</g>
</g>
<!-- Node16&#45;&gt;Node26 -->
<g id="edge29_Node000016_Node000026" class="edge">
<title>Node16&#45;&gt;Node26</title>
<g id="a_edge29_Node000016_Node000026"><a xlink:title=" ">
<path fill="none" stroke="#63b8ff" d="M493.86,-111.61C528.58,-102.5 587.32,-87.09 626.92,-76.71"/>
<polygon fill="#63b8ff" stroke="#63b8ff" points="627.8,-80.09 636.58,-74.17 626.02,-73.32 627.8,-80.09"/>
</a>
</g>
</g>
<!-- Node27 -->
<g id="Node000027" class="node">
<title>Node27</title>
<g id="a_Node000027"><a xlink:title=" ">
<polygon fill="#e0e0e0" stroke="#999999" points="776.33,-74.5 716.08,-74.5 716.08,-55.25 776.33,-55.25 776.33,-74.5"/>
<text text-anchor="middle" x="746.21" y="-61" font-family="Helvetica,sans-Serif" font-size="10.00">sys/prctl.h</text>
</a>
</g>
</g>
<!-- Node16&#45;&gt;Node27 -->
<g id="edge30_Node000016_Node000027" class="edge">
<title>Node16&#45;&gt;Node27</title>
<g id="a_edge30_Node000016_Node000027"><a xlink:title=" ">
<path fill="none" stroke="#63b8ff" d="M493.95,-114.16C537.4,-106.59 622.64,-91.45 704.93,-74.9"/>
<polygon fill="#63b8ff" stroke="#63b8ff" points="705.4,-78.38 714.51,-72.97 704.02,-71.52 705.4,-78.38"/>
</a>
</g>
</g>
</g>
</svg>

<g id="navigator" transform="translate(0 0)" fill="#404254">
  <rect fill="#f2f5e9" fill-opacity="0.5" stroke="#606060" stroke-width=".5" x="0" y="0" width="60" height="60"/>
  <use id="zoomplus" xlink:href="#zoomPlus" x="17" y="9" onmousedown="handleZoom(evt,'in')"/>
  <use id="zoomminus" xlink:href="#zoomMin" x="42" y="9" onmousedown="handleZoom(evt,'out')"/>
  <use id="reset" xlink:href="#resetDef" x="30" y="36" onmousedown="handleReset()"/>
   <use id="arrowup" xlink:href="#arrowUp" x="0" y="0" onmousedown="handlePan(0,-1)"/>
  <use id="arrowright" xlink:href="#arrowRight" x="0" y="0" onmousedown="handlePan(1,0)"/>
  <use id="arrowdown" xlink:href="#arrowDown" x="0" y="0" onmousedown="handlePan(0,1)"/>
  <use id="arrowleft" xlink:href="#arrowLeft" x="0" y="0" onmousedown="handlePan(-1,0)"/>
</g>
<svg viewBox="0 0 15 15" width="100%" height="30px" preserveAspectRatio="xMaxYMin meet">
 <g id="arrow_out" transform="scale(0.3 0.3)">
  <a xlink:href="_t_kinematics_8cxx__incl_org.svg" target="_base">
   <rect id="button" ry="5" rx="5" y="6" x="6" height="38" width="38"
        fill="#f2f5e9" fill-opacity="0.5" stroke="#606060" stroke-width="1.0"/>
   <path id="arrow"
     d="M 11.500037,31.436501 C 11.940474,20.09759 22.043105,11.32322 32.158766,21.979434 L 37.068811,17.246167 C 37.068811,17.246167 37.088388,32 37.088388,32 L 22.160133,31.978069 C 22.160133,31.978069 26.997745,27.140456 26.997745,27.140456 C 18.528582,18.264221 13.291696,25.230495 11.500037,31.436501 z"
     style="fill:#404040;"/>
  </a>
 </g>
</svg>

<style type='text/css'>
<![CDATA[
[data-mouse-over-selected='false'] { opacity: 0.7; }
[data-mouse-over-selected='true']  { opacity: 1.0; }
]]>
</style>
<script type="application/ecmascript"><![CDATA[
document.addEventListener('DOMContentLoaded', (event) => {
  highlightEdges();
  highlightAdjacentNodes();
});
]]></script>
</svg>
