<?xml version="1.0" encoding="UTF-8" standalone="no"?>
<!DOCTYPE svg PUBLIC "-//W3C//DTD SVG 1.1//EN"
 "http://www.w3.org/Graphics/SVG/1.1/DTD/svg11.dtd">
<!-- Generated by graphviz version 12.2.0 (20241103.1931)
 -->
<!-- Title: TLaBrHit.h Pages: 1 -->
<svg width="717pt" height="193pt"
 viewBox="0.00 0.00 717.00 193.00" xmlns="http://www.w3.org/2000/svg" xmlns:xlink="http://www.w3.org/1999/xlink">
<g id="graph0" class="graph" transform="scale(1 1) rotate(0) translate(4 189)">
<title>TLaBrHit.h</title>
<!-- Node1 -->
<g id="Node000001" class="node">
<title>Node1</title>
<g id="a_Node000001"><a xlink:title=" ">
<polygon fill="#999999" stroke="#666666" points="484.5,-185 421.25,-185 421.25,-165.75 484.5,-165.75 484.5,-185"/>
<text text-anchor="middle" x="452.88" y="-171.5" font-family="Helvetica,sans-Serif" font-size="10.00">TLaBrHit.h</text>
</a>
</g>
</g>
<!-- Node2 -->
<g id="Node000002" class="node">
<title>Node2</title>
<g id="a_Node000002"><a xlink:href="_t_la_br_8h.html" target="_top" xlink:title=" ">
<polygon fill="white" stroke="#666666" points="452.12,-129.75 401.62,-129.75 401.62,-110.5 452.12,-110.5 452.12,-129.75"/>
<text text-anchor="middle" x="426.88" y="-116.25" font-family="Helvetica,sans-Serif" font-size="10.00">TLaBr.h</text>
</a>
</g>
</g>
<!-- Node1&#45;&gt;Node2 -->
<g id="edge1_Node000001_Node000002" class="edge">
<title>Node1&#45;&gt;Node2</title>
<g id="a_edge1_Node000001_Node000002"><a xlink:title=" ">
<path fill="none" stroke="#63b8ff" d="M443.56,-155.29C439.36,-146.71 434.62,-136.98 431.26,-130.11"/>
<polygon fill="#63b8ff" stroke="#63b8ff" points="440.38,-156.77 447.92,-164.22 446.68,-153.7 440.38,-156.77"/>
</a>
</g>
</g>
<!-- Node6 -->
<g id="Node000006" class="node">
<title>Node6</title>
<g id="a_Node000006"><a xlink:href="_t_la_br_hit_8cxx.html" target="_top" xlink:title=" ">
<polygon fill="white" stroke="#666666" points="709,-74.5 636.75,-74.5 636.75,-55.25 709,-55.25 709,-74.5"/>
<text text-anchor="middle" x="672.88" y="-61" font-family="Helvetica,sans-Serif" font-size="10.00">TLaBrHit.cxx</text>
</a>
</g>
</g>
<!-- Node1&#45;&gt;Node6 -->
<g id="edge10_Node000001_Node000006" class="edge">
<title>Node1&#45;&gt;Node6</title>
<g id="a_edge10_Node000001_Node000006"><a xlink:title=" ">
<path fill="none" stroke="#63b8ff" d="M481.4,-160.31C527.22,-137.71 615.97,-93.94 654.39,-74.99"/>
<polygon fill="#63b8ff" stroke="#63b8ff" points="480.03,-157.08 472.61,-164.64 483.13,-163.36 480.03,-157.08"/>
</a>
</g>
</g>
<!-- Node3 -->
<g id="Node000003" class="node">
<title>Node3</title>
<g id="a_Node000003"><a xlink:href="_get_tree_entries_8cxx.html" target="_top" xlink:title=" ">
<polygon fill="white" stroke="#666666" points="97.75,-74.5 0,-74.5 0,-55.25 97.75,-55.25 97.75,-74.5"/>
<text text-anchor="middle" x="48.88" y="-61" font-family="Helvetica,sans-Serif" font-size="10.00">GetTreeEntries.cxx</text>
</a>
</g>
</g>
<!-- Node2&#45;&gt;Node3 -->
<g id="edge2_Node000002_Node000003" class="edge">
<title>Node2&#45;&gt;Node3</title>
<g id="a_edge2_Node000002_Node000003"><a xlink:title=" ">
<path fill="none" stroke="#63b8ff" d="M390.09,-114.1C330.55,-105.96 209.41,-89.27 106.88,-74.5 104.05,-74.09 101.16,-73.67 98.23,-73.25"/>
<polygon fill="#63b8ff" stroke="#63b8ff" points="389.27,-117.53 399.65,-115.41 390.21,-110.59 389.27,-117.53"/>
</a>
</g>
</g>
<!-- Node4 -->
<g id="Node000004" class="node">
<title>Node4</title>
<g id="a_Node000004"><a xlink:href="_t_g_r_s_i_mnemonic_8cxx.html" target="_top" xlink:title=" ">
<polygon fill="white" stroke="#666666" points="223.62,-74.5 116.12,-74.5 116.12,-55.25 223.62,-55.25 223.62,-74.5"/>
<text text-anchor="middle" x="169.88" y="-61" font-family="Helvetica,sans-Serif" font-size="10.00">TGRSIMnemonic.cxx</text>
</a>
</g>
</g>
<!-- Node2&#45;&gt;Node4 -->
<g id="edge3_Node000002_Node000004" class="edge">
<title>Node2&#45;&gt;Node4</title>
<g id="a_edge3_Node000002_Node000004"><a xlink:title=" ">
<path fill="none" stroke="#63b8ff" d="M390.22,-111.53C343.67,-101.89 263.43,-85.26 213.69,-74.95"/>
<polygon fill="#63b8ff" stroke="#63b8ff" points="389.31,-114.92 399.81,-113.52 390.73,-108.06 389.31,-114.92"/>
</a>
</g>
</g>
<!-- Node5 -->
<g id="Node000005" class="node">
<title>Node5</title>
<g id="a_Node000005"><a xlink:href="_t_la_br_8cxx.html" target="_top" xlink:title=" ">
<polygon fill="white" stroke="#666666" points="301.62,-74.5 242.12,-74.5 242.12,-55.25 301.62,-55.25 301.62,-74.5"/>
<text text-anchor="middle" x="271.88" y="-61" font-family="Helvetica,sans-Serif" font-size="10.00">TLaBr.cxx</text>
</a>
</g>
</g>
<!-- Node2&#45;&gt;Node5 -->
<g id="edge4_Node000002_Node000005" class="edge">
<title>Node2&#45;&gt;Node5</title>
<g id="a_edge4_Node000002_Node000005"><a xlink:title=" ">
<path fill="none" stroke="#63b8ff" d="M390.62,-106.67C362.33,-96.95 323.7,-83.68 298.29,-74.95"/>
<polygon fill="#63b8ff" stroke="#63b8ff" points="389.25,-109.9 399.85,-109.84 391.53,-103.28 389.25,-109.9"/>
</a>
</g>
</g>
<!-- Node2&#45;&gt;Node6 -->
<g id="edge5_Node000002_Node000006" class="edge">
<title>Node2&#45;&gt;Node6</title>
<g id="a_edge5_Node000002_Node000006"><a xlink:title=" ">
<path fill="none" stroke="#63b8ff" d="M463.35,-111.23C509.91,-101.15 590,-83.81 636.51,-73.75"/>
<polygon fill="#63b8ff" stroke="#63b8ff" points="462.79,-107.77 453.75,-113.31 464.27,-114.61 462.79,-107.77"/>
</a>
</g>
</g>
<!-- Node7 -->
<g id="Node000007" class="node">
<title>Node7</title>
<g id="a_Node000007"><a xlink:href="_tac_offset_helper_8hh.html" target="_top" xlink:title=" ">
<polygon fill="white" stroke="#666666" points="419.88,-74.5 319.88,-74.5 319.88,-55.25 419.88,-55.25 419.88,-74.5"/>
<text text-anchor="middle" x="369.88" y="-61" font-family="Helvetica,sans-Serif" font-size="10.00">TacOffsetHelper.hh</text>
</a>
</g>
</g>
<!-- Node2&#45;&gt;Node7 -->
<g id="edge6_Node000002_Node000007" class="edge">
<title>Node2&#45;&gt;Node7</title>
<g id="a_edge6_Node000002_Node000007"><a xlink:title=" ">
<path fill="none" stroke="#63b8ff" d="M408.93,-102.36C399.14,-93.22 387.43,-82.28 379.4,-74.77"/>
<polygon fill="#63b8ff" stroke="#63b8ff" points="406.4,-104.79 416.1,-109.06 411.18,-99.67 406.4,-104.79"/>
</a>
</g>
</g>
<!-- Node9 -->
<g id="Node000009" class="node">
<title>Node9</title>
<g id="a_Node000009"><a xlink:href="tac__calibrator_8cxx.html" target="_top" xlink:title=" ">
<polygon fill="white" stroke="#666666" points="529.38,-74.5 438.38,-74.5 438.38,-55.25 529.38,-55.25 529.38,-74.5"/>
<text text-anchor="middle" x="483.88" y="-61" font-family="Helvetica,sans-Serif" font-size="10.00">tac_calibrator.cxx</text>
</a>
</g>
</g>
<!-- Node2&#45;&gt;Node9 -->
<g id="edge8_Node000002_Node000009" class="edge">
<title>Node2&#45;&gt;Node9</title>
<g id="a_edge8_Node000002_Node000009"><a xlink:title=" ">
<path fill="none" stroke="#63b8ff" d="M444.82,-102.36C454.61,-93.22 466.32,-82.28 474.35,-74.77"/>
<polygon fill="#63b8ff" stroke="#63b8ff" points="442.57,-99.67 437.65,-109.06 447.35,-104.79 442.57,-99.67"/>
</a>
</g>
</g>
<!-- Node10 -->
<g id="Node000010" class="node">
<title>Node10</title>
<g id="a_Node000010"><a xlink:href="write__cal_8cxx.html" target="_top" xlink:title=" ">
<polygon fill="white" stroke="#666666" points="618.62,-74.5 547.12,-74.5 547.12,-55.25 618.62,-55.25 618.62,-74.5"/>
<text text-anchor="middle" x="582.88" y="-61" font-family="Helvetica,sans-Serif" font-size="10.00">write_cal.cxx</text>
</a>
</g>
</g>
<!-- Node2&#45;&gt;Node10 -->
<g id="edge9_Node000002_Node000010" class="edge">
<title>Node2&#45;&gt;Node10</title>
<g id="a_edge9_Node000002_Node000010"><a xlink:title=" ">
<path fill="none" stroke="#63b8ff" d="M463,-106.79C491.46,-97.08 530.48,-83.76 556.17,-74.99"/>
<polygon fill="#63b8ff" stroke="#63b8ff" points="462.05,-103.42 453.72,-109.96 464.31,-110.04 462.05,-103.42"/>
</a>
</g>
</g>
<!-- Node8 -->
<g id="Node000008" class="node">
<title>Node8</title>
<g id="a_Node000008"><a xlink:href="_tac_offset_helper_8cxx.html" target="_top" xlink:title=" ">
<polygon fill="white" stroke="#666666" points="421.75,-19.25 318,-19.25 318,0 421.75,0 421.75,-19.25"/>
<text text-anchor="middle" x="369.88" y="-5.75" font-family="Helvetica,sans-Serif" font-size="10.00">TacOffsetHelper.cxx</text>
</a>
</g>
</g>
<!-- Node7&#45;&gt;Node8 -->
<g id="edge7_Node000007_Node000008" class="edge">
<title>Node7&#45;&gt;Node8</title>
<g id="a_edge7_Node000007_Node000008"><a xlink:title=" ">
<path fill="none" stroke="#63b8ff" d="M369.88,-43.63C369.88,-35.34 369.88,-26.17 369.88,-19.61"/>
<polygon fill="#63b8ff" stroke="#63b8ff" points="366.38,-43.57 369.88,-53.57 373.38,-43.57 366.38,-43.57"/>
</a>
</g>
</g>
</g>
</svg>
