<?xml version="1.0" encoding="UTF-8" standalone="no"?>
<!DOCTYPE svg PUBLIC "-//W3C//DTD SVG 1.1//EN"
 "http://www.w3.org/Graphics/SVG/1.1/DTD/svg11.dtd">
<!-- Generated by graphviz version 12.2.0 (20241103.1931)
 -->
<!-- Title: TMnemonic.h Pages: 1 -->
<!--zoomable 193 -->

<svg id="main" version="1.1" xmlns="http://www.w3.org/2000/svg" xmlns:xlink="http://www.w3.org/1999/xlink" xml:space="preserve" onload="init(evt)">

<style type="text/css"><![CDATA[
.node, .edge {opacity: 0.7;}
.node.selected, .edge.selected {opacity: 1;}
.edge:hover path { stroke: red; }
.edge:hover polygon { stroke: red; fill: red; }
]]></style>

<defs>
  <circle id="rim" cx="0" cy="0" r="7"/>
  <circle id="rim2" cx="0" cy="0" r="3.5"/>
  <g id="zoomPlus">
    <use xlink:href="#rim" fill="#404040"><set attributeName="fill" to="#808080" begin="zoomplus.mouseover" end="zoomplus.mouseout"/></use>
    <path d="M-4,0h8M0,-4v8" fill="none" stroke="white" stroke-width="1.5" pointer-events="none"/>
  </g>
  <g id="zoomMin">
    <use xlink:href="#rim" fill="#404040"><set attributeName="fill" to="#808080" begin="zoomminus.mouseover" end="zoomminus.mouseout"/></use>
    <path d="M-4,0h8" fill="none" stroke="white" stroke-width="1.5" pointer-events="none"/>
  </g>
  <g id="arrowUp" transform="translate(30 24)">
    <use xlink:href="#rim"/>
    <path pointer-events="none" fill="none" stroke="white" stroke-width="1.5" d="M0,-3.0v7 M-2.5,-0.5L0,-3.0L2.5,-0.5"/>
  </g>
  <g id="arrowRight" transform="rotate(90) translate(36 -43)">
    <use xlink:href="#rim"/>
    <path pointer-events="none" fill="none" stroke="white" stroke-width="1.5" d="M0,-3.0v7 M-2.5,-0.5L0,-3.0L2.5,-0.5"/>
  </g>
  <g id="arrowDown" transform="rotate(180) translate(-30 -48)">
    <use xlink:href="#rim"/>
    <path pointer-events="none" fill="none" stroke="white" stroke-width="1.5" d="M0,-3.0v7 M-2.5,-0.5L0,-3.0L2.5,-0.5"/>
  </g>
  <g id="arrowLeft" transform="rotate(270) translate(-36 17)">
    <use xlink:href="#rim"/>
    <path pointer-events="none" fill="none" stroke="white" stroke-width="1.5" d="M0,-3.0v7 M-2.5,-0.5L0,-3.0L2.5,-0.5"/>
  </g>
  <g id="resetDef">
    <use xlink:href="#rim2" fill="#404040"><set attributeName="fill" to="#808080" begin="reset.mouseover" end="reset.mouseout"/></use>
  </g>
</defs>
<script type="application/ecmascript">
var viewWidth = 2341;
var viewHeight = 193;
var sectionId = 'dynsection-1';
</script>
<script type="application/ecmascript" xlink:href="svg.min.js"/>
<svg id="graph" class="graph">
<g id="viewport">
<title>TMnemonic.h</title>
<!-- Node1 -->
<g id="Node000001" class="node">
<title>Node1</title>
<g id="a_Node000001"><a xlink:title=" ">
<polygon fill="#999999" stroke="#666666" points="1315.25,-185 1240.75,-185 1240.75,-165.75 1315.25,-165.75 1315.25,-185"/>
<text text-anchor="middle" x="1278" y="-171.5" font-family="Helvetica,sans-Serif" font-size="10.00">TMnemonic.h</text>
</a>
</g>
</g>
<!-- Node2 -->
<g id="Node000002" class="node">
<title>Node2</title>
<g id="a_Node000002"><a xlink:href="_t_bgo_8cxx.html" target="_top" xlink:title=" ">
<polygon fill="white" stroke="#666666" points="228.88,-129.75 173.12,-129.75 173.12,-110.5 228.88,-110.5 228.88,-129.75"/>
<text text-anchor="middle" x="201" y="-116.25" font-family="Helvetica,sans-Serif" font-size="10.00">TBgo.cxx</text>
</a>
</g>
</g>
<!-- Node1&#45;&gt;Node2 -->
<g id="edge1_Node000001_Node000002" class="edge">
<title>Node1&#45;&gt;Node2</title>
<g id="a_edge1_Node000001_Node000002"><a xlink:title=" ">
<path fill="none" stroke="#63b8ff" d="M1228.9,-173.48C1049.98,-170.03 433.15,-156.45 238,-129.75 235.12,-129.36 232.14,-128.84 229.18,-128.26"/>
<polygon fill="#63b8ff" stroke="#63b8ff" points="1228.71,-176.98 1238.78,-173.67 1228.85,-169.98 1228.71,-176.98"/>
</a>
</g>
</g>
<!-- Node3 -->
<g id="Node000003" class="node">
<title>Node3</title>
<g id="a_Node000003"><a xlink:href="_t_channel_8cxx.html" target="_top" xlink:title=" ">
<polygon fill="white" stroke="#666666" points="320.88,-129.75 247.12,-129.75 247.12,-110.5 320.88,-110.5 320.88,-129.75"/>
<text text-anchor="middle" x="284" y="-116.25" font-family="Helvetica,sans-Serif" font-size="10.00">TChannel.cxx</text>
</a>
</g>
</g>
<!-- Node1&#45;&gt;Node3 -->
<g id="edge2_Node000001_Node000003" class="edge">
<title>Node1&#45;&gt;Node3</title>
<g id="a_edge2_Node000001_Node000003"><a xlink:title=" ">
<path fill="none" stroke="#63b8ff" d="M1229.19,-174.45C1088.9,-174.17 672.63,-169.74 330,-129.75 327.18,-129.42 324.26,-129.02 321.34,-128.57"/>
<polygon fill="#63b8ff" stroke="#63b8ff" points="1228.84,-177.95 1238.85,-174.47 1228.85,-170.95 1228.84,-177.95"/>
</a>
</g>
</g>
<!-- Node4 -->
<g id="Node000004" class="node">
<title>Node4</title>
<g id="a_Node000004"><a xlink:href="_t_demand_8cxx.html" target="_top" xlink:title=" ">
<polygon fill="white" stroke="#666666" points="413.25,-129.75 338.75,-129.75 338.75,-110.5 413.25,-110.5 413.25,-129.75"/>
<text text-anchor="middle" x="376" y="-116.25" font-family="Helvetica,sans-Serif" font-size="10.00">TDemand.cxx</text>
</a>
</g>
</g>
<!-- Node1&#45;&gt;Node4 -->
<g id="edge3_Node000001_Node000004" class="edge">
<title>Node1&#45;&gt;Node4</title>
<g id="a_edge3_Node000001_Node000004"><a xlink:title=" ">
<path fill="none" stroke="#63b8ff" d="M1229.15,-174.03C1098.14,-172.64 728.23,-165.57 423,-129.75 419.95,-129.39 416.8,-128.96 413.65,-128.48"/>
<polygon fill="#63b8ff" stroke="#63b8ff" points="1228.8,-177.53 1238.84,-174.13 1228.87,-170.53 1228.8,-177.53"/>
</a>
</g>
</g>
<!-- Node5 -->
<g id="Node000005" class="node">
<title>Node5</title>
<g id="a_Node000005"><a xlink:href="_t_fipps_8cxx.html" target="_top" xlink:title=" ">
<polygon fill="white" stroke="#666666" points="494.25,-129.75 431.75,-129.75 431.75,-110.5 494.25,-110.5 494.25,-129.75"/>
<text text-anchor="middle" x="463" y="-116.25" font-family="Helvetica,sans-Serif" font-size="10.00">TFipps.cxx</text>
</a>
</g>
</g>
<!-- Node1&#45;&gt;Node5 -->
<g id="edge4_Node000001_Node000005" class="edge">
<title>Node1&#45;&gt;Node5</title>
<g id="a_edge4_Node000001_Node000005"><a xlink:title=" ">
<path fill="none" stroke="#63b8ff" d="M1229.15,-174.09C1106.6,-172.83 776.39,-166.05 504,-129.75 500.97,-129.35 497.83,-128.84 494.7,-128.28"/>
<polygon fill="#63b8ff" stroke="#63b8ff" points="1228.81,-177.59 1238.84,-174.18 1228.88,-170.59 1228.81,-177.59"/>
</a>
</g>
</g>
<!-- Node6 -->
<g id="Node000006" class="node">
<title>Node6</title>
<g id="a_Node000006"><a xlink:href="_t_g_r_s_i_mnemonic_8h.html" target="_top" xlink:title=" ">
<polygon fill="white" stroke="#666666" points="611.25,-129.75 512.75,-129.75 512.75,-110.5 611.25,-110.5 611.25,-129.75"/>
<text text-anchor="middle" x="562" y="-116.25" font-family="Helvetica,sans-Serif" font-size="10.00">TGRSIMnemonic.h</text>
</a>
</g>
</g>
<!-- Node1&#45;&gt;Node6 -->
<g id="edge5_Node000001_Node000006" class="edge">
<title>Node1&#45;&gt;Node6</title>
<g id="a_edge5_Node000001_Node000006"><a xlink:title=" ">
<path fill="none" stroke="#63b8ff" d="M1229.06,-170.74C1098.45,-161.02 742.65,-134.56 611.45,-124.8"/>
<polygon fill="#63b8ff" stroke="#63b8ff" points="1228.52,-174.2 1238.75,-171.46 1229.04,-167.22 1228.52,-174.2"/>
</a>
</g>
</g>
<!-- Node17 -->
<g id="Node000017" class="node">
<title>Node17</title>
<g id="a_Node000017"><a xlink:href="_t_griffin_8cxx.html" target="_top" xlink:title=" ">
<polygon fill="white" stroke="#666666" points="922.62,-129.75 859.38,-129.75 859.38,-110.5 922.62,-110.5 922.62,-129.75"/>
<text text-anchor="middle" x="891" y="-116.25" font-family="Helvetica,sans-Serif" font-size="10.00">TGriffin.cxx</text>
</a>
</g>
</g>
<!-- Node1&#45;&gt;Node17 -->
<g id="edge18_Node000001_Node000017" class="edge">
<title>Node1&#45;&gt;Node17</title>
<g id="a_edge18_Node000001_Node000017"><a xlink:title=" ">
<path fill="none" stroke="#63b8ff" d="M1229.43,-169.34C1162.32,-162.1 1037.56,-147.63 932,-129.75 928.99,-129.24 925.86,-128.66 922.74,-128.06"/>
<polygon fill="#63b8ff" stroke="#63b8ff" points="1228.66,-172.77 1238.97,-170.36 1229.4,-165.81 1228.66,-172.77"/>
</a>
</g>
</g>
<!-- Node18 -->
<g id="Node000018" class="node">
<title>Node18</title>
<g id="a_Node000018"><a xlink:href="_t_h_i_l_mnemonic_8h.html" target="_top" xlink:title=" ">
<polygon fill="white" stroke="#666666" points="1031.5,-129.75 940.5,-129.75 940.5,-110.5 1031.5,-110.5 1031.5,-129.75"/>
<text text-anchor="middle" x="986" y="-116.25" font-family="Helvetica,sans-Serif" font-size="10.00">THILMnemonic.h</text>
</a>
</g>
</g>
<!-- Node1&#45;&gt;Node18 -->
<g id="edge19_Node000001_Node000018" class="edge">
<title>Node1&#45;&gt;Node18</title>
<g id="a_edge19_Node000001_Node000018"><a xlink:title=" ">
<path fill="none" stroke="#63b8ff" d="M1229.21,-165.48C1174.16,-155.44 1085.29,-139.23 1031.59,-129.44"/>
<polygon fill="#63b8ff" stroke="#63b8ff" points="1228.47,-168.9 1238.93,-167.25 1229.73,-162.01 1228.47,-168.9"/>
</a>
</g>
</g>
<!-- Node23 -->
<g id="Node000023" class="node">
<title>Node23</title>
<g id="a_Node000023"><a xlink:href="_t_i_l_l_mnemonic_8h.html" target="_top" xlink:title=" ">
<polygon fill="white" stroke="#666666" points="1149.75,-129.75 1060.25,-129.75 1060.25,-110.5 1149.75,-110.5 1149.75,-129.75"/>
<text text-anchor="middle" x="1105" y="-116.25" font-family="Helvetica,sans-Serif" font-size="10.00">TILLMnemonic.h</text>
</a>
</g>
</g>
<!-- Node1&#45;&gt;Node23 -->
<g id="edge24_Node000001_Node000023" class="edge">
<title>Node1&#45;&gt;Node23</title>
<g id="a_edge24_Node000001_Node000023"><a xlink:title=" ">
<path fill="none" stroke="#63b8ff" d="M1238.01,-162.07C1206.4,-152.34 1163,-138.98 1134.49,-130.2"/>
<polygon fill="#63b8ff" stroke="#63b8ff" points="1236.62,-165.3 1247.21,-164.9 1238.68,-158.61 1236.62,-165.3"/>
</a>
</g>
</g>
<!-- Node29 -->
<g id="Node000029" class="node">
<title>Node29</title>
<g id="a_Node000029"><a xlink:href="_t_ifin_8cxx.html" target="_top" xlink:title=" ">
<polygon fill="white" stroke="#666666" points="1218.62,-129.75 1167.38,-129.75 1167.38,-110.5 1218.62,-110.5 1218.62,-129.75"/>
<text text-anchor="middle" x="1193" y="-116.25" font-family="Helvetica,sans-Serif" font-size="10.00">TIfin.cxx</text>
</a>
</g>
</g>
<!-- Node1&#45;&gt;Node29 -->
<g id="edge30_Node000001_Node000029" class="edge">
<title>Node1&#45;&gt;Node29</title>
<g id="a_edge30_Node000001_Node000029"><a xlink:title=" ">
<path fill="none" stroke="#63b8ff" d="M1253.94,-159.3C1238.97,-149.92 1220.21,-138.17 1207.49,-130.2"/>
<polygon fill="#63b8ff" stroke="#63b8ff" points="1251.97,-162.2 1262.3,-164.54 1255.68,-156.26 1251.97,-162.2"/>
</a>
</g>
</g>
<!-- Node30 -->
<g id="Node000030" class="node">
<title>Node30</title>
<g id="a_Node000030"><a xlink:href="_t_mnemonic_8cxx.html" target="_top" xlink:title=" ">
<polygon fill="white" stroke="#666666" points="1319.75,-129.75 1236.25,-129.75 1236.25,-110.5 1319.75,-110.5 1319.75,-129.75"/>
<text text-anchor="middle" x="1278" y="-116.25" font-family="Helvetica,sans-Serif" font-size="10.00">TMnemonic.cxx</text>
</a>
</g>
</g>
<!-- Node1&#45;&gt;Node30 -->
<g id="edge31_Node000001_Node000030" class="edge">
<title>Node1&#45;&gt;Node30</title>
<g id="a_edge31_Node000001_Node000030"><a xlink:title=" ">
<path fill="none" stroke="#63b8ff" d="M1278,-154.13C1278,-145.84 1278,-136.67 1278,-130.11"/>
<polygon fill="#63b8ff" stroke="#63b8ff" points="1274.5,-154.07 1278,-164.07 1281.5,-154.07 1274.5,-154.07"/>
</a>
</g>
</g>
<!-- Node31 -->
<g id="Node000031" class="node">
<title>Node31</title>
<g id="a_Node000031"><a xlink:href="_t_run_info_8cxx.html" target="_top" xlink:title=" ">
<polygon fill="white" stroke="#666666" points="1410.12,-129.75 1337.88,-129.75 1337.88,-110.5 1410.12,-110.5 1410.12,-129.75"/>
<text text-anchor="middle" x="1374" y="-116.25" font-family="Helvetica,sans-Serif" font-size="10.00">TRunInfo.cxx</text>
</a>
</g>
</g>
<!-- Node1&#45;&gt;Node31 -->
<g id="edge32_Node000001_Node000031" class="edge">
<title>Node1&#45;&gt;Node31</title>
<g id="a_edge32_Node000001_Node000031"><a xlink:title=" ">
<path fill="none" stroke="#63b8ff" d="M1304.2,-159.84C1321.26,-150.38 1342.99,-138.33 1357.64,-130.2"/>
<polygon fill="#63b8ff" stroke="#63b8ff" points="1302.66,-156.7 1295.61,-164.61 1306.05,-162.82 1302.66,-156.7"/>
</a>
</g>
</g>
<!-- Node32 -->
<g id="Node000032" class="node">
<title>Node32</title>
<g id="a_Node000032"><a xlink:href="_t_s3_8cxx.html" target="_top" xlink:title=" ">
<polygon fill="white" stroke="#666666" points="1478.25,-129.75 1427.75,-129.75 1427.75,-110.5 1478.25,-110.5 1478.25,-129.75"/>
<text text-anchor="middle" x="1453" y="-116.25" font-family="Helvetica,sans-Serif" font-size="10.00">TS3.cxx</text>
</a>
</g>
</g>
<!-- Node1&#45;&gt;Node32 -->
<g id="edge33_Node000001_Node000032" class="edge">
<title>Node1&#45;&gt;Node32</title>
<g id="a_edge33_Node000001_Node000032"><a xlink:title=" ">
<path fill="none" stroke="#63b8ff" d="M1318.53,-162.04C1352.12,-151.82 1398.84,-137.6 1427.44,-128.9"/>
<polygon fill="#63b8ff" stroke="#63b8ff" points="1317.68,-158.64 1309.13,-164.9 1319.72,-165.34 1317.68,-158.64"/>
</a>
</g>
</g>
<!-- Node33 -->
<g id="Node000033" class="node">
<title>Node33</title>
<g id="a_Node000033"><a xlink:href="_t_sharc_8cxx.html" target="_top" xlink:title=" ">
<polygon fill="white" stroke="#666666" points="1560,-129.75 1496,-129.75 1496,-110.5 1560,-110.5 1560,-129.75"/>
<text text-anchor="middle" x="1528" y="-116.25" font-family="Helvetica,sans-Serif" font-size="10.00">TSharc.cxx</text>
</a>
</g>
</g>
<!-- Node1&#45;&gt;Node33 -->
<g id="edge34_Node000001_Node000033" class="edge">
<title>Node1&#45;&gt;Node33</title>
<g id="a_edge34_Node000001_Node000033"><a xlink:title=" ">
<path fill="none" stroke="#63b8ff" d="M1326.85,-163.97C1376.71,-153.35 1452.68,-137.17 1495.57,-128.03"/>
<polygon fill="#63b8ff" stroke="#63b8ff" points="1326.23,-160.52 1317.18,-166.03 1327.69,-167.37 1326.23,-160.52"/>
</a>
</g>
</g>
<!-- Node34 -->
<g id="Node000034" class="node">
<title>Node34</title>
<g id="a_Node000034"><a xlink:href="_t_sharc2_8cxx.html" target="_top" xlink:title=" ">
<polygon fill="white" stroke="#666666" points="1647.62,-129.75 1578.38,-129.75 1578.38,-110.5 1647.62,-110.5 1647.62,-129.75"/>
<text text-anchor="middle" x="1613" y="-116.25" font-family="Helvetica,sans-Serif" font-size="10.00">TSharc2.cxx</text>
</a>
</g>
</g>
<!-- Node1&#45;&gt;Node34 -->
<g id="edge35_Node000001_Node000034" class="edge">
<title>Node1&#45;&gt;Node34</title>
<g id="a_edge35_Node000001_Node000034"><a xlink:title=" ">
<path fill="none" stroke="#63b8ff" d="M1326.64,-167.54C1384.5,-159.27 1483.98,-144.6 1569,-129.75 1571.91,-129.24 1574.93,-128.69 1577.96,-128.13"/>
<polygon fill="#63b8ff" stroke="#63b8ff" points="1326.19,-164.07 1316.79,-168.95 1327.18,-171 1326.19,-164.07"/>
</a>
</g>
</g>
<!-- Node35 -->
<g id="Node000035" class="node">
<title>Node35</title>
<g id="a_Node000035"><a xlink:href="_t_tdr_clover_8cxx.html" target="_top" xlink:title=" ">
<polygon fill="white" stroke="#666666" points="1746.25,-129.75 1665.75,-129.75 1665.75,-110.5 1746.25,-110.5 1746.25,-129.75"/>
<text text-anchor="middle" x="1706" y="-116.25" font-family="Helvetica,sans-Serif" font-size="10.00">TTdrClover.cxx</text>
</a>
</g>
</g>
<!-- Node1&#45;&gt;Node35 -->
<g id="edge36_Node000001_Node000035" class="edge">
<title>Node1&#45;&gt;Node35</title>
<g id="a_edge36_Node000001_Node000035"><a xlink:title=" ">
<path fill="none" stroke="#63b8ff" d="M1327.2,-169.49C1399.6,-162.09 1539.02,-147.06 1657,-129.75 1659.73,-129.35 1662.55,-128.91 1665.39,-128.46"/>
<polygon fill="#63b8ff" stroke="#63b8ff" points="1326.85,-166 1317.26,-170.5 1327.56,-172.97 1326.85,-166"/>
</a>
</g>
</g>
<!-- Node36 -->
<g id="Node000036" class="node">
<title>Node36</title>
<g id="a_Node000036"><a xlink:href="_t_tdr_clover_bgo_8cxx.html" target="_top" xlink:title=" ">
<polygon fill="white" stroke="#666666" points="1861.88,-129.75 1764.12,-129.75 1764.12,-110.5 1861.88,-110.5 1861.88,-129.75"/>
<text text-anchor="middle" x="1813" y="-116.25" font-family="Helvetica,sans-Serif" font-size="10.00">TTdrCloverBgo.cxx</text>
</a>
</g>
</g>
<!-- Node1&#45;&gt;Node36 -->
<g id="edge37_Node000001_Node000036" class="edge">
<title>Node1&#45;&gt;Node36</title>
<g id="a_edge37_Node000001_Node000036"><a xlink:title=" ">
<path fill="none" stroke="#63b8ff" d="M1326.77,-170.69C1413.2,-163.97 1598.89,-148.65 1755,-129.75 1757.83,-129.41 1760.73,-129.04 1763.66,-128.65"/>
<polygon fill="#63b8ff" stroke="#63b8ff" points="1326.7,-167.19 1317,-171.45 1327.24,-174.17 1326.7,-167.19"/>
</a>
</g>
</g>
<!-- Node37 -->
<g id="Node000037" class="node">
<title>Node37</title>
<g id="a_Node000037"><a xlink:href="_t_tdr_mnemonic_8h.html" target="_top" xlink:title=" ">
<polygon fill="white" stroke="#666666" points="1968.38,-129.75 1879.62,-129.75 1879.62,-110.5 1968.38,-110.5 1968.38,-129.75"/>
<text text-anchor="middle" x="1924" y="-116.25" font-family="Helvetica,sans-Serif" font-size="10.00">TTdrMnemonic.h</text>
</a>
</g>
</g>
<!-- Node1&#45;&gt;Node37 -->
<g id="edge38_Node000001_Node000037" class="edge">
<title>Node1&#45;&gt;Node37</title>
<g id="a_edge38_Node000001_Node000037"><a xlink:title=" ">
<path fill="none" stroke="#63b8ff" d="M1326.98,-172.12C1428.64,-167.13 1669.82,-153.64 1871,-129.75 1873.68,-129.43 1876.44,-129.07 1879.22,-128.69"/>
<polygon fill="#63b8ff" stroke="#63b8ff" points="1326.9,-168.62 1317.09,-172.6 1327.24,-175.61 1326.9,-168.62"/>
</a>
</g>
</g>
<!-- Node43 -->
<g id="Node000043" class="node">
<title>Node43</title>
<g id="a_Node000043"><a xlink:href="_t_tdr_tigress_8cxx.html" target="_top" xlink:title=" ">
<polygon fill="white" stroke="#666666" points="2071.5,-129.75 1986.5,-129.75 1986.5,-110.5 2071.5,-110.5 2071.5,-129.75"/>
<text text-anchor="middle" x="2029" y="-116.25" font-family="Helvetica,sans-Serif" font-size="10.00">TTdrTigress.cxx</text>
</a>
</g>
</g>
<!-- Node1&#45;&gt;Node43 -->
<g id="edge44_Node000001_Node000043" class="edge">
<title>Node1&#45;&gt;Node43</title>
<g id="a_edge44_Node000001_Node000043"><a xlink:title=" ">
<path fill="none" stroke="#63b8ff" d="M1327.08,-172.94C1441.36,-169.23 1734.01,-157.59 1977,-129.75 1980,-129.41 1983.09,-129.01 1986.2,-128.57"/>
<polygon fill="#63b8ff" stroke="#63b8ff" points="1327.02,-169.44 1317.14,-173.26 1327.24,-176.44 1327.02,-169.44"/>
</a>
</g>
</g>
<!-- Node44 -->
<g id="Node000044" class="node">
<title>Node44</title>
<g id="a_Node000044"><a xlink:href="_t_tdr_tigress_bgo_8cxx.html" target="_top" xlink:title=" ">
<polygon fill="white" stroke="#666666" points="2192.12,-129.75 2089.88,-129.75 2089.88,-110.5 2192.12,-110.5 2192.12,-129.75"/>
<text text-anchor="middle" x="2141" y="-116.25" font-family="Helvetica,sans-Serif" font-size="10.00">TTdrTigressBgo.cxx</text>
</a>
</g>
</g>
<!-- Node1&#45;&gt;Node44 -->
<g id="edge45_Node000001_Node000044" class="edge">
<title>Node1&#45;&gt;Node44</title>
<g id="a_edge45_Node000001_Node000044"><a xlink:title=" ">
<path fill="none" stroke="#63b8ff" d="M1327.2,-173.14C1452.96,-169.64 1796.33,-158.07 2081,-129.75 2083.83,-129.47 2086.73,-129.15 2089.65,-128.81"/>
<polygon fill="#63b8ff" stroke="#63b8ff" points="1327.13,-169.64 1317.23,-173.41 1327.32,-176.63 1327.13,-169.64"/>
</a>
</g>
</g>
<!-- Node7 -->
<g id="Node000007" class="node">
<title>Node7</title>
<g id="a_Node000007"><a xlink:href="_g_r_s_i_data_library_8cxx.html" target="_top" xlink:title=" ">
<polygon fill="white" stroke="#666666" points="106,-74.5 0,-74.5 0,-55.25 106,-55.25 106,-74.5"/>
<text text-anchor="middle" x="53" y="-61" font-family="Helvetica,sans-Serif" font-size="10.00">GRSIDataLibrary.cxx</text>
</a>
</g>
</g>
<!-- Node6&#45;&gt;Node7 -->
<g id="edge6_Node000006_Node000007" class="edge">
<title>Node6&#45;&gt;Node7</title>
<g id="a_edge6_Node000006_Node000007"><a xlink:title=" ">
<path fill="none" stroke="#63b8ff" d="M501.2,-110.35C329.13,-90.14 283.42,-94.02 115,-74.5 112.19,-74.17 109.32,-73.83 106.41,-73.46"/>
<polygon fill="#63b8ff" stroke="#63b8ff" points="500.61,-113.81 510.95,-111.51 501.43,-106.86 500.61,-113.81"/>
</a>
</g>
</g>
<!-- Node8 -->
<g id="Node000008" class="node">
<title>Node8</title>
<g id="a_Node000008"><a xlink:href="_t_c_s_m_8h.html" target="_top" xlink:title=" ">
<polygon fill="white" stroke="#666666" points="175.62,-74.5 124.38,-74.5 124.38,-55.25 175.62,-55.25 175.62,-74.5"/>
<text text-anchor="middle" x="150" y="-61" font-family="Helvetica,sans-Serif" font-size="10.00">TCSM.h</text>
</a>
</g>
</g>
<!-- Node6&#45;&gt;Node8 -->
<g id="edge7_Node000006_Node000008" class="edge">
<title>Node6&#45;&gt;Node8</title>
<g id="a_edge7_Node000006_Node000008"><a xlink:title=" ">
<path fill="none" stroke="#63b8ff" d="M501.36,-110.34C362.26,-92.6 324.65,-96.71 190,-74.5 185.37,-73.74 180.47,-72.79 175.75,-71.82"/>
<polygon fill="#63b8ff" stroke="#63b8ff" points="500.57,-113.76 510.94,-111.57 501.47,-106.82 500.57,-113.76"/>
</a>
</g>
</g>
<!-- Node10 -->
<g id="Node000010" class="node">
<title>Node10</title>
<g id="a_Node000010"><a xlink:href="_t_g_r_s_i_mnemonic_8cxx.html" target="_top" xlink:title=" ">
<polygon fill="white" stroke="#666666" points="281.75,-19.25 174.25,-19.25 174.25,0 281.75,0 281.75,-19.25"/>
<text text-anchor="middle" x="228" y="-5.75" font-family="Helvetica,sans-Serif" font-size="10.00">TGRSIMnemonic.cxx</text>
</a>
</g>
</g>
<!-- Node6&#45;&gt;Node10 -->
<g id="edge11_Node000006_Node000010" class="edge">
<title>Node6&#45;&gt;Node10</title>
<g id="a_edge11_Node000006_Node000010"><a xlink:title=" ">
<path fill="none" stroke="#63b8ff" d="M501.23,-110.57C423.94,-103.72 262.41,-119.3 223,-74.5 209.63,-59.3 217.8,-33.43 223.64,-19.74"/>
<polygon fill="#63b8ff" stroke="#63b8ff" points="500.61,-114.02 510.93,-111.65 501.38,-107.07 500.61,-114.02"/>
</a>
</g>
</g>
<!-- Node11 -->
<g id="Node000011" class="node">
<title>Node11</title>
<g id="a_Node000011"><a xlink:href="_t_g_r_s_i_detector_information_8cxx.html" target="_top" xlink:title=" ">
<polygon fill="white" stroke="#666666" points="380,-74.5 232,-74.5 232,-55.25 380,-55.25 380,-74.5"/>
<text text-anchor="middle" x="306" y="-61" font-family="Helvetica,sans-Serif" font-size="10.00">TGRSIDetectorInformation.cxx</text>
</a>
</g>
</g>
<!-- Node6&#45;&gt;Node11 -->
<g id="edge10_Node000006_Node000011" class="edge">
<title>Node6&#45;&gt;Node11</title>
<g id="a_edge10_Node000006_Node000011"><a xlink:title=" ">
<path fill="none" stroke="#63b8ff" d="M507.06,-107.7C459.96,-97.9 393.01,-83.97 349.54,-74.93"/>
<polygon fill="#63b8ff" stroke="#63b8ff" points="506.3,-111.11 516.8,-109.72 507.72,-104.26 506.3,-111.11"/>
</a>
</g>
</g>
<!-- Node12 -->
<g id="Node000012" class="node">
<title>Node12</title>
<g id="a_Node000012"><a xlink:href="_t_midas_file_8cxx.html" target="_top" xlink:title=" ">
<polygon fill="white" stroke="#666666" points="478.25,-74.5 397.75,-74.5 397.75,-55.25 478.25,-55.25 478.25,-74.5"/>
<text text-anchor="middle" x="438" y="-61" font-family="Helvetica,sans-Serif" font-size="10.00">TMidasFile.cxx</text>
</a>
</g>
</g>
<!-- Node6&#45;&gt;Node12 -->
<g id="edge12_Node000006_Node000012" class="edge">
<title>Node6&#45;&gt;Node12</title>
<g id="a_edge12_Node000006_Node000012"><a xlink:title=" ">
<path fill="none" stroke="#63b8ff" d="M530.63,-105.65C508.25,-96.04 478.77,-83.38 459.14,-74.95"/>
<polygon fill="#63b8ff" stroke="#63b8ff" points="529,-108.76 539.57,-109.49 531.77,-102.33 529,-108.76"/>
</a>
</g>
</g>
<!-- Node13 -->
<g id="Node000013" class="node">
<title>Node13</title>
<g id="a_Node000013"><a xlink:href="_t_rcmp_8h.html" target="_top" xlink:title=" ">
<polygon fill="white" stroke="#666666" points="551.5,-74.5 496.5,-74.5 496.5,-55.25 551.5,-55.25 551.5,-74.5"/>
<text text-anchor="middle" x="524" y="-61" font-family="Helvetica,sans-Serif" font-size="10.00">TRcmp.h</text>
</a>
</g>
</g>
<!-- Node6&#45;&gt;Node13 -->
<g id="edge13_Node000006_Node000013" class="edge">
<title>Node6&#45;&gt;Node13</title>
<g id="a_edge13_Node000006_Node000013"><a xlink:title=" ">
<path fill="none" stroke="#63b8ff" d="M549.2,-101.19C542.88,-92.34 535.54,-82.04 530.41,-74.86"/>
<polygon fill="#63b8ff" stroke="#63b8ff" points="546.19,-102.99 554.85,-109.1 551.89,-98.93 546.19,-102.99"/>
</a>
</g>
</g>
<!-- Node16 -->
<g id="Node000016" class="node">
<title>Node16</title>
<g id="a_Node000016"><a xlink:href="_t_s3_hit_8cxx.html" target="_top" xlink:title=" ">
<polygon fill="white" stroke="#666666" points="632.62,-74.5 569.38,-74.5 569.38,-55.25 632.62,-55.25 632.62,-74.5"/>
<text text-anchor="middle" x="601" y="-61" font-family="Helvetica,sans-Serif" font-size="10.00">TS3Hit.cxx</text>
</a>
</g>
</g>
<!-- Node6&#45;&gt;Node16 -->
<g id="edge17_Node000006_Node000016" class="edge">
<title>Node6&#45;&gt;Node16</title>
<g id="a_edge17_Node000006_Node000016"><a xlink:title=" ">
<path fill="none" stroke="#63b8ff" d="M575.14,-101.19C581.62,-92.34 589.16,-82.04 594.42,-74.86"/>
<polygon fill="#63b8ff" stroke="#63b8ff" points="572.42,-98.98 569.33,-109.11 578.07,-103.11 572.42,-98.98"/>
</a>
</g>
</g>
<!-- Node9 -->
<g id="Node000009" class="node">
<title>Node9</title>
<g id="a_Node000009"><a xlink:href="_t_c_s_m_8cxx.html" target="_top" xlink:title=" ">
<polygon fill="white" stroke="#666666" points="156.12,-19.25 95.88,-19.25 95.88,0 156.12,0 156.12,-19.25"/>
<text text-anchor="middle" x="126" y="-5.75" font-family="Helvetica,sans-Serif" font-size="10.00">TCSM.cxx</text>
</a>
</g>
</g>
<!-- Node8&#45;&gt;Node9 -->
<g id="edge8_Node000008_Node000009" class="edge">
<title>Node8&#45;&gt;Node9</title>
<g id="a_edge8_Node000008_Node000009"><a xlink:title=" ">
<path fill="none" stroke="#63b8ff" d="M141.4,-44.79C137.53,-36.21 133.15,-26.48 130.05,-19.61"/>
<polygon fill="#63b8ff" stroke="#63b8ff" points="138.12,-46.02 145.41,-53.7 144.5,-43.15 138.12,-46.02"/>
</a>
</g>
</g>
<!-- Node8&#45;&gt;Node10 -->
<g id="edge9_Node000008_Node000010" class="edge">
<title>Node8&#45;&gt;Node10</title>
<g id="a_edge9_Node000008_Node000010"><a xlink:title=" ">
<path fill="none" stroke="#63b8ff" d="M172.47,-48.53C186.15,-39.2 203.14,-27.6 214.7,-19.7"/>
<polygon fill="#63b8ff" stroke="#63b8ff" points="170.77,-45.46 164.48,-53.99 174.71,-51.24 170.77,-45.46"/>
</a>
</g>
</g>
<!-- Node13&#45;&gt;Node10 -->
<g id="edge14_Node000013_Node000010" class="edge">
<title>Node13&#45;&gt;Node10</title>
<g id="a_edge14_Node000013_Node000010"><a xlink:title=" ">
<path fill="none" stroke="#63b8ff" d="M484.95,-54.94C408.96,-39.72 332.3,-26.99 282.24,-19.03"/>
<polygon fill="#63b8ff" stroke="#63b8ff" points="484.18,-58.35 494.67,-56.9 485.56,-51.49 484.18,-58.35"/>
</a>
</g>
</g>
<!-- Node14 -->
<g id="Node000014" class="node">
<title>Node14</title>
<g id="a_Node000014"><a xlink:href="_t_rcmp_8cxx.html" target="_top" xlink:title=" ">
<polygon fill="white" stroke="#666666" points="512,-19.25 448,-19.25 448,0 512,0 512,-19.25"/>
<text text-anchor="middle" x="480" y="-5.75" font-family="Helvetica,sans-Serif" font-size="10.00">TRcmp.cxx</text>
</a>
</g>
</g>
<!-- Node13&#45;&gt;Node14 -->
<g id="edge15_Node000013_Node000014" class="edge">
<title>Node13&#45;&gt;Node14</title>
<g id="a_edge15_Node000013_Node000014"><a xlink:title=" ">
<path fill="none" stroke="#63b8ff" d="M509.42,-46.22C502.05,-37.31 493.42,-26.87 487.42,-19.61"/>
<polygon fill="#63b8ff" stroke="#63b8ff" points="506.7,-48.44 515.77,-53.92 512.1,-43.98 506.7,-48.44"/>
</a>
</g>
</g>
<!-- Node15 -->
<g id="Node000015" class="node">
<title>Node15</title>
<g id="a_Node000015"><a xlink:href="_t_rcmp_hit_8cxx.html" target="_top" xlink:title=" ">
<polygon fill="white" stroke="#666666" points="606.38,-19.25 529.62,-19.25 529.62,0 606.38,0 606.38,-19.25"/>
<text text-anchor="middle" x="568" y="-5.75" font-family="Helvetica,sans-Serif" font-size="10.00">TRcmpHit.cxx</text>
</a>
</g>
</g>
<!-- Node13&#45;&gt;Node15 -->
<g id="edge16_Node000013_Node000015" class="edge">
<title>Node13&#45;&gt;Node15</title>
<g id="a_edge16_Node000013_Node000015"><a xlink:title=" ">
<path fill="none" stroke="#63b8ff" d="M538.58,-46.22C545.95,-37.31 554.58,-26.87 560.58,-19.61"/>
<polygon fill="#63b8ff" stroke="#63b8ff" points="535.9,-43.98 532.23,-53.92 541.3,-48.44 535.9,-43.98"/>
</a>
</g>
</g>
<!-- Node19 -->
<g id="Node000019" class="node">
<title>Node19</title>
<g id="a_Node000019"><a xlink:href="_h_i_l_data_library_8cxx.html" target="_top" xlink:title=" ">
<polygon fill="white" stroke="#666666" points="749.25,-74.5 650.75,-74.5 650.75,-55.25 749.25,-55.25 749.25,-74.5"/>
<text text-anchor="middle" x="700" y="-61" font-family="Helvetica,sans-Serif" font-size="10.00">HILDataLibrary.cxx</text>
</a>
</g>
</g>
<!-- Node18&#45;&gt;Node19 -->
<g id="edge20_Node000018_Node000019" class="edge">
<title>Node18&#45;&gt;Node19</title>
<g id="a_edge20_Node000018_Node000019"><a xlink:title=" ">
<path fill="none" stroke="#63b8ff" d="M928.86,-108.49C876.1,-98.66 798.59,-84.23 748.71,-74.94"/>
<polygon fill="#63b8ff" stroke="#63b8ff" points="928.09,-111.9 938.56,-110.29 929.37,-105.02 928.09,-111.9"/>
</a>
</g>
</g>
<!-- Node20 -->
<g id="Node000020" class="node">
<title>Node20</title>
<g id="a_Node000020"><a xlink:href="_t_h_i_l_detector_information_8cxx.html" target="_top" xlink:title=" ">
<polygon fill="white" stroke="#666666" points="908.25,-74.5 767.75,-74.5 767.75,-55.25 908.25,-55.25 908.25,-74.5"/>
<text text-anchor="middle" x="838" y="-61" font-family="Helvetica,sans-Serif" font-size="10.00">THILDetectorInformation.cxx</text>
</a>
</g>
</g>
<!-- Node18&#45;&gt;Node20 -->
<g id="edge21_Node000018_Node000020" class="edge">
<title>Node18&#45;&gt;Node20</title>
<g id="a_edge21_Node000018_Node000020"><a xlink:title=" ">
<path fill="none" stroke="#63b8ff" d="M950.36,-106.3C923.45,-96.62 887.19,-83.57 863.23,-74.95"/>
<polygon fill="#63b8ff" stroke="#63b8ff" points="948.88,-109.49 959.47,-109.58 951.25,-102.9 948.88,-109.49"/>
</a>
</g>
</g>
<!-- Node21 -->
<g id="Node000021" class="node">
<title>Node21</title>
<g id="a_Node000021"><a xlink:href="_t_h_i_l_mnemonic_8cxx.html" target="_top" xlink:title=" ">
<polygon fill="white" stroke="#666666" points="1026,-74.5 926,-74.5 926,-55.25 1026,-55.25 1026,-74.5"/>
<text text-anchor="middle" x="976" y="-61" font-family="Helvetica,sans-Serif" font-size="10.00">THILMnemonic.cxx</text>
</a>
</g>
</g>
<!-- Node18&#45;&gt;Node21 -->
<g id="edge22_Node000018_Node000021" class="edge">
<title>Node18&#45;&gt;Node21</title>
<g id="a_edge22_Node000018_Node000021"><a xlink:title=" ">
<path fill="none" stroke="#63b8ff" d="M982.25,-99.17C980.68,-90.8 978.93,-81.5 977.69,-74.86"/>
<polygon fill="#63b8ff" stroke="#63b8ff" points="978.78,-99.66 984.07,-108.84 985.66,-98.37 978.78,-99.66"/>
</a>
</g>
</g>
<!-- Node22 -->
<g id="Node000022" class="node">
<title>Node22</title>
<g id="a_Node000022"><a xlink:href="_t_rlmd_file_8cxx.html" target="_top" xlink:title=" ">
<polygon fill="white" stroke="#666666" points="1120.38,-74.5 1043.62,-74.5 1043.62,-55.25 1120.38,-55.25 1120.38,-74.5"/>
<text text-anchor="middle" x="1082" y="-61" font-family="Helvetica,sans-Serif" font-size="10.00">TRlmdFile.cxx</text>
</a>
</g>
</g>
<!-- Node18&#45;&gt;Node22 -->
<g id="edge23_Node000018_Node000022" class="edge">
<title>Node18&#45;&gt;Node22</title>
<g id="a_edge23_Node000018_Node000022"><a xlink:title=" ">
<path fill="none" stroke="#63b8ff" d="M1012.2,-104.59C1029.26,-95.13 1050.99,-83.08 1065.64,-74.95"/>
<polygon fill="#63b8ff" stroke="#63b8ff" points="1010.66,-101.45 1003.61,-109.36 1014.05,-107.57 1010.66,-101.45"/>
</a>
</g>
</g>
<!-- Node24 -->
<g id="Node000024" class="node">
<title>Node24</title>
<g id="a_Node000024"><a xlink:href="_i_l_l_data_library_8cxx.html" target="_top" xlink:title=" ">
<polygon fill="white" stroke="#666666" points="1235.5,-74.5 1138.5,-74.5 1138.5,-55.25 1235.5,-55.25 1235.5,-74.5"/>
<text text-anchor="middle" x="1187" y="-61" font-family="Helvetica,sans-Serif" font-size="10.00">ILLDataLibrary.cxx</text>
</a>
</g>
</g>
<!-- Node23&#45;&gt;Node24 -->
<g id="edge25_Node000023_Node000024" class="edge">
<title>Node23&#45;&gt;Node24</title>
<g id="a_edge25_Node000023_Node000024"><a xlink:title=" ">
<path fill="none" stroke="#63b8ff" d="M1128.21,-104.05C1142.65,-94.67 1160.75,-82.92 1173.02,-74.95"/>
<polygon fill="#63b8ff" stroke="#63b8ff" points="1126.66,-100.89 1120.18,-109.27 1130.47,-106.76 1126.66,-100.89"/>
</a>
</g>
</g>
<!-- Node25 -->
<g id="Node000025" class="node">
<title>Node25</title>
<g id="a_Node000025"><a xlink:href="_t_i_l_l_data_parser_8cxx.html" target="_top" xlink:title=" ">
<polygon fill="white" stroke="#666666" points="1356.12,-74.5 1253.88,-74.5 1253.88,-55.25 1356.12,-55.25 1356.12,-74.5"/>
<text text-anchor="middle" x="1305" y="-61" font-family="Helvetica,sans-Serif" font-size="10.00">TILLDataParser.cxx</text>
</a>
</g>
</g>
<!-- Node23&#45;&gt;Node25 -->
<g id="edge26_Node000023_Node000025" class="edge">
<title>Node23&#45;&gt;Node25</title>
<g id="a_edge26_Node000023_Node000025"><a xlink:title=" ">
<path fill="none" stroke="#63b8ff" d="M1149.8,-107.2C1186.46,-97.44 1237.52,-83.84 1270.91,-74.95"/>
<polygon fill="#63b8ff" stroke="#63b8ff" points="1149.15,-103.75 1140.39,-109.7 1150.95,-110.51 1149.15,-103.75"/>
</a>
</g>
</g>
<!-- Node26 -->
<g id="Node000026" class="node">
<title>Node26</title>
<g id="a_Node000026"><a xlink:href="_t_i_l_l_detector_information_8cxx.html" target="_top" xlink:title=" ">
<polygon fill="white" stroke="#666666" points="1513.5,-74.5 1374.5,-74.5 1374.5,-55.25 1513.5,-55.25 1513.5,-74.5"/>
<text text-anchor="middle" x="1444" y="-61" font-family="Helvetica,sans-Serif" font-size="10.00">TILLDetectorInformation.cxx</text>
</a>
</g>
</g>
<!-- Node23&#45;&gt;Node26 -->
<g id="edge27_Node000023_Node000026" class="edge">
<title>Node23&#45;&gt;Node26</title>
<g id="a_edge27_Node000023_Node000026"><a xlink:title=" ">
<path fill="none" stroke="#63b8ff" d="M1161.25,-109.99C1244.13,-96.8 1329.46,-83.55 1384.83,-74.99"/>
<polygon fill="#63b8ff" stroke="#63b8ff" points="1160.92,-106.5 1151.6,-111.53 1162.02,-113.41 1160.92,-106.5"/>
</a>
</g>
</g>
<!-- Node27 -->
<g id="Node000027" class="node">
<title>Node27</title>
<g id="a_Node000027"><a xlink:href="_t_i_l_l_mnemonic_8cxx.html" target="_top" xlink:title=" ">
<polygon fill="white" stroke="#666666" points="1630.25,-74.5 1531.75,-74.5 1531.75,-55.25 1630.25,-55.25 1630.25,-74.5"/>
<text text-anchor="middle" x="1581" y="-61" font-family="Helvetica,sans-Serif" font-size="10.00">TILLMnemonic.cxx</text>
</a>
</g>
</g>
<!-- Node23&#45;&gt;Node27 -->
<g id="edge28_Node000023_Node000027" class="edge">
<title>Node23&#45;&gt;Node27</title>
<g id="a_edge28_Node000023_Node000027"><a xlink:title=" ">
<path fill="none" stroke="#63b8ff" d="M1161.31,-110.14C1321.57,-89.61 1364.86,-94.05 1523,-74.5 1525.73,-74.16 1528.53,-73.8 1531.35,-73.42"/>
<polygon fill="#63b8ff" stroke="#63b8ff" points="1161.05,-106.64 1151.58,-111.4 1161.95,-113.58 1161.05,-106.64"/>
</a>
</g>
</g>
<!-- Node28 -->
<g id="Node000028" class="node">
<title>Node28</title>
<g id="a_Node000028"><a xlink:href="_t_lst_file_8cxx.html" target="_top" xlink:title=" ">
<polygon fill="white" stroke="#666666" points="1717.25,-74.5 1648.75,-74.5 1648.75,-55.25 1717.25,-55.25 1717.25,-74.5"/>
<text text-anchor="middle" x="1683" y="-61" font-family="Helvetica,sans-Serif" font-size="10.00">TLstFile.cxx</text>
</a>
</g>
</g>
<!-- Node23&#45;&gt;Node28 -->
<g id="edge29_Node000023_Node000028" class="edge">
<title>Node23&#45;&gt;Node28</title>
<g id="a_edge29_Node000023_Node000028"><a xlink:title=" ">
<path fill="none" stroke="#63b8ff" d="M1161.25,-110.21C1372.83,-85.86 1430.18,-102.68 1639,-74.5 1642.09,-74.08 1645.28,-73.59 1648.48,-73.04"/>
<polygon fill="#63b8ff" stroke="#63b8ff" points="1161.1,-106.7 1151.57,-111.34 1161.91,-113.66 1161.1,-106.7"/>
</a>
</g>
</g>
<!-- Node38 -->
<g id="Node000038" class="node">
<title>Node38</title>
<g id="a_Node000038"><a xlink:href="_t_tdr_data_parser_8cxx.html" target="_top" xlink:title=" ">
<polygon fill="white" stroke="#666666" points="1836.75,-74.5 1735.25,-74.5 1735.25,-55.25 1836.75,-55.25 1836.75,-74.5"/>
<text text-anchor="middle" x="1786" y="-61" font-family="Helvetica,sans-Serif" font-size="10.00">TTdrDataParser.cxx</text>
</a>
</g>
</g>
<!-- Node37&#45;&gt;Node38 -->
<g id="edge39_Node000037_Node000038" class="edge">
<title>Node37&#45;&gt;Node38</title>
<g id="a_edge39_Node000037_Node000038"><a xlink:title=" ">
<path fill="none" stroke="#63b8ff" d="M1890.1,-106.04C1865.08,-96.39 1831.67,-83.5 1809.52,-74.95"/>
<polygon fill="#63b8ff" stroke="#63b8ff" points="1888.59,-109.21 1899.18,-109.55 1891.11,-102.68 1888.59,-109.21"/>
</a>
</g>
</g>
<!-- Node39 -->
<g id="Node000039" class="node">
<title>Node39</title>
<g id="a_Node000039"><a xlink:href="_t_tdr_detector_information_8cxx.html" target="_top" xlink:title=" ">
<polygon fill="white" stroke="#666666" points="1993.12,-74.5 1854.88,-74.5 1854.88,-55.25 1993.12,-55.25 1993.12,-74.5"/>
<text text-anchor="middle" x="1924" y="-61" font-family="Helvetica,sans-Serif" font-size="10.00">TTdrDetectorInformation.cxx</text>
</a>
</g>
</g>
<!-- Node37&#45;&gt;Node39 -->
<g id="edge40_Node000037_Node000039" class="edge">
<title>Node37&#45;&gt;Node39</title>
<g id="a_edge40_Node000037_Node000039"><a xlink:title=" ">
<path fill="none" stroke="#63b8ff" d="M1924,-98.88C1924,-90.59 1924,-81.42 1924,-74.86"/>
<polygon fill="#63b8ff" stroke="#63b8ff" points="1920.5,-98.82 1924,-108.82 1927.5,-98.82 1920.5,-98.82"/>
</a>
</g>
</g>
<!-- Node40 -->
<g id="Node000040" class="node">
<title>Node40</title>
<g id="a_Node000040"><a xlink:href="_t_tdr_file_8cxx.html" target="_top" xlink:title=" ">
<polygon fill="white" stroke="#666666" points="2079.25,-74.5 2010.75,-74.5 2010.75,-55.25 2079.25,-55.25 2079.25,-74.5"/>
<text text-anchor="middle" x="2045" y="-61" font-family="Helvetica,sans-Serif" font-size="10.00">TTdrFile.cxx</text>
</a>
</g>
</g>
<!-- Node37&#45;&gt;Node40 -->
<g id="edge41_Node000037_Node000040" class="edge">
<title>Node37&#45;&gt;Node40</title>
<g id="a_edge41_Node000037_Node000040"><a xlink:title=" ">
<path fill="none" stroke="#63b8ff" d="M1954.91,-105.52C1976.71,-95.93 2005.31,-83.34 2024.37,-74.95"/>
<polygon fill="#63b8ff" stroke="#63b8ff" points="1953.65,-102.25 1945.91,-109.48 1956.47,-108.66 1953.65,-102.25"/>
</a>
</g>
</g>
<!-- Node41 -->
<g id="Node000041" class="node">
<title>Node41</title>
<g id="a_Node000041"><a xlink:href="_t_tdr_mnemonic_8cxx.html" target="_top" xlink:title=" ">
<polygon fill="white" stroke="#666666" points="2194.88,-74.5 2097.12,-74.5 2097.12,-55.25 2194.88,-55.25 2194.88,-74.5"/>
<text text-anchor="middle" x="2146" y="-61" font-family="Helvetica,sans-Serif" font-size="10.00">TTdrMnemonic.cxx</text>
</a>
</g>
</g>
<!-- Node37&#45;&gt;Node41 -->
<g id="edge42_Node000037_Node000041" class="edge">
<title>Node37&#45;&gt;Node41</title>
<g id="a_edge42_Node000037_Node000041"><a xlink:title=" ">
<path fill="none" stroke="#63b8ff" d="M1972.94,-107.39C2013.72,-97.61 2070.95,-83.88 2108.25,-74.93"/>
<polygon fill="#63b8ff" stroke="#63b8ff" points="1972.29,-103.94 1963.38,-109.68 1973.92,-110.75 1972.29,-103.94"/>
</a>
</g>
</g>
<!-- Node42 -->
<g id="Node000042" class="node">
<title>Node42</title>
<g id="a_Node000042"><a xlink:href="i_themba_data_library_8cxx.html" target="_top" xlink:title=" ">
<polygon fill="white" stroke="#666666" points="2332.75,-74.5 2213.25,-74.5 2213.25,-55.25 2332.75,-55.25 2332.75,-74.5"/>
<text text-anchor="middle" x="2273" y="-61" font-family="Helvetica,sans-Serif" font-size="10.00">iThembaDataLibrary.cxx</text>
</a>
</g>
</g>
<!-- Node37&#45;&gt;Node42 -->
<g id="edge43_Node000037_Node000042" class="edge">
<title>Node37&#45;&gt;Node42</title>
<g id="a_edge43_Node000037_Node000042"><a xlink:title=" ">
<path fill="none" stroke="#63b8ff" d="M1979.93,-110.21C2066.9,-96.72 2155.62,-83.38 2212.81,-74.83"/>
<polygon fill="#63b8ff" stroke="#63b8ff" points="1979.62,-106.72 1970.28,-111.71 1980.7,-113.63 1979.62,-106.72"/>
</a>
</g>
</g>
</g>
</svg>

<g id="navigator" transform="translate(0 0)" fill="#404254">
  <rect fill="#f2f5e9" fill-opacity="0.5" stroke="#606060" stroke-width=".5" x="0" y="0" width="60" height="60"/>
  <use id="zoomplus" xlink:href="#zoomPlus" x="17" y="9" onmousedown="handleZoom(evt,'in')"/>
  <use id="zoomminus" xlink:href="#zoomMin" x="42" y="9" onmousedown="handleZoom(evt,'out')"/>
  <use id="reset" xlink:href="#resetDef" x="30" y="36" onmousedown="handleReset()"/>
   <use id="arrowup" xlink:href="#arrowUp" x="0" y="0" onmousedown="handlePan(0,-1)"/>
  <use id="arrowright" xlink:href="#arrowRight" x="0" y="0" onmousedown="handlePan(1,0)"/>
  <use id="arrowdown" xlink:href="#arrowDown" x="0" y="0" onmousedown="handlePan(0,1)"/>
  <use id="arrowleft" xlink:href="#arrowLeft" x="0" y="0" onmousedown="handlePan(-1,0)"/>
</g>
<svg viewBox="0 0 15 15" width="100%" height="30px" preserveAspectRatio="xMaxYMin meet">
 <g id="arrow_out" transform="scale(0.3 0.3)">
  <a xlink:href="_t_mnemonic_8h__dep__incl_org.svg" target="_base">
   <rect id="button" ry="5" rx="5" y="6" x="6" height="38" width="38"
        fill="#f2f5e9" fill-opacity="0.5" stroke="#606060" stroke-width="1.0"/>
   <path id="arrow"
     d="M 11.500037,31.436501 C 11.940474,20.09759 22.043105,11.32322 32.158766,21.979434 L 37.068811,17.246167 C 37.068811,17.246167 37.088388,32 37.088388,32 L 22.160133,31.978069 C 22.160133,31.978069 26.997745,27.140456 26.997745,27.140456 C 18.528582,18.264221 13.291696,25.230495 11.500037,31.436501 z"
     style="fill:#404040;"/>
  </a>
 </g>
</svg>

<style type='text/css'>
<![CDATA[
[data-mouse-over-selected='false'] { opacity: 0.7; }
[data-mouse-over-selected='true']  { opacity: 1.0; }
]]>
</style>
<script type="application/ecmascript"><![CDATA[
document.addEventListener('DOMContentLoaded', (event) => {
  highlightEdges();
  highlightAdjacentNodes();
});
]]></script>
</svg>
