<?xml version="1.0" encoding="UTF-8" standalone="no"?>
<!DOCTYPE svg PUBLIC "-//W3C//DTD SVG 1.1//EN"
 "http://www.w3.org/Graphics/SVG/1.1/DTD/svg11.dtd">
<!-- Generated by graphviz version 12.2.0 (20241103.1931)
 -->
<!-- Title: TMnemonic.cxx Pages: 1 -->
<svg width="1714pt" height="248pt"
 viewBox="0.00 0.00 1714.38 248.25" xmlns="http://www.w3.org/2000/svg" xmlns:xlink="http://www.w3.org/1999/xlink">
<g id="graph0" class="graph" transform="scale(1 1) rotate(0) translate(4 244.25)">
<title>TMnemonic.cxx</title>
<!-- Node1 -->
<g id="Node000001" class="node">
<title>Node1</title>
<g id="a_Node000001"><a xlink:title=" ">
<polygon fill="#999999" stroke="#666666" points="946.5,-240.25 863,-240.25 863,-221 946.5,-221 946.5,-240.25"/>
<text text-anchor="middle" x="904.75" y="-226.75" font-family="Helvetica,sans-Serif" font-size="10.00">TMnemonic.cxx</text>
</a>
</g>
</g>
<!-- Node2 -->
<g id="Node000002" class="node">
<title>Node2</title>
<g id="a_Node000002"><a xlink:href="_t_mnemonic_8h.html" target="_top" xlink:title=" ">
<polygon fill="white" stroke="#666666" points="942,-185 867.5,-185 867.5,-165.75 942,-165.75 942,-185"/>
<text text-anchor="middle" x="904.75" y="-171.5" font-family="Helvetica,sans-Serif" font-size="10.00">TMnemonic.h</text>
</a>
</g>
</g>
<!-- Node1&#45;&gt;Node2 -->
<g id="edge1_Node000001_Node000002" class="edge">
<title>Node1&#45;&gt;Node2</title>
<g id="a_edge1_Node000001_Node000002"><a xlink:title=" ">
<path fill="none" stroke="#63b8ff" d="M904.75,-220.83C904.75,-214.32 904.75,-205.17 904.75,-196.87"/>
<polygon fill="#63b8ff" stroke="#63b8ff" points="908.25,-196.87 904.75,-186.87 901.25,-196.87 908.25,-196.87"/>
</a>
</g>
</g>
<!-- Node4 -->
<g id="Node000004" class="node">
<title>Node4</title>
<g id="a_Node000004"><a xlink:title=" ">
<polygon fill="#e0e0e0" stroke="#999999" points="53.5,-74.5 0,-74.5 0,-55.25 53.5,-55.25 53.5,-74.5"/>
<text text-anchor="middle" x="26.75" y="-61" font-family="Helvetica,sans-Serif" font-size="10.00">iostream</text>
</a>
</g>
</g>
<!-- Node1&#45;&gt;Node4 -->
<g id="edge37_Node000001_Node000004" class="edge">
<title>Node1&#45;&gt;Node4</title>
<g id="a_edge37_Node000001_Node000004"><a xlink:title=" ">
<path fill="none" stroke="#63b8ff" d="M862.72,-223.97C762.77,-210.27 503.24,-173.21 288.75,-129.75 208.51,-113.49 115.63,-89.64 64.83,-76.15"/>
<polygon fill="#63b8ff" stroke="#63b8ff" points="65.78,-72.78 55.21,-73.59 63.97,-79.55 65.78,-72.78"/>
</a>
</g>
</g>
<!-- Node32 -->
<g id="Node000032" class="node">
<title>Node32</title>
<g id="a_Node000032"><a xlink:title=" ">
<polygon fill="#e0e0e0" stroke="#999999" points="1025.5,-185 960,-185 960,-165.75 1025.5,-165.75 1025.5,-185"/>
<text text-anchor="middle" x="992.75" y="-171.5" font-family="Helvetica,sans-Serif" font-size="10.00">TRandom.h</text>
</a>
</g>
</g>
<!-- Node1&#45;&gt;Node32 -->
<g id="edge38_Node000001_Node000032" class="edge">
<title>Node1&#45;&gt;Node32</title>
<g id="a_edge38_Node000001_Node000032"><a xlink:title=" ">
<path fill="none" stroke="#63b8ff" d="M919.68,-220.59C932.95,-212.56 952.62,-200.66 968.2,-191.23"/>
<polygon fill="#63b8ff" stroke="#63b8ff" points="969.71,-194.41 976.45,-186.24 966.09,-188.42 969.71,-194.41"/>
</a>
</g>
</g>
<!-- Node3 -->
<g id="Node000003" class="node">
<title>Node3</title>
<g id="a_Node000003"><a xlink:title=" ">
<polygon fill="#e0e0e0" stroke="#999999" points="1320.75,-19.25 1280.75,-19.25 1280.75,0 1320.75,0 1320.75,-19.25"/>
<text text-anchor="middle" x="1300.75" y="-5.75" font-family="Helvetica,sans-Serif" font-size="10.00">string</text>
</a>
</g>
</g>
<!-- Node2&#45;&gt;Node3 -->
<g id="edge2_Node000002_Node000003" class="edge">
<title>Node2&#45;&gt;Node3</title>
<g id="a_edge2_Node000002_Node000003"><a xlink:title=" ">
<path fill="none" stroke="#63b8ff" d="M942.36,-167.07C945.2,-166.6 948.02,-166.15 950.75,-165.75 1086.14,-145.86 1473.15,-180.46 1559.75,-74.5 1565.16,-67.88 1565.26,-61.79 1559.75,-55.25 1531.02,-21.15 1395.16,-13.11 1332.52,-11.21"/>
<polygon fill="#63b8ff" stroke="#63b8ff" points="1332.63,-7.71 1322.54,-10.95 1332.44,-14.71 1332.63,-7.71"/>
</a>
</g>
</g>
<!-- Node2&#45;&gt;Node4 -->
<g id="edge3_Node000002_Node000004" class="edge">
<title>Node2&#45;&gt;Node4</title>
<g id="a_edge3_Node000002_Node000004"><a xlink:title=" ">
<path fill="none" stroke="#63b8ff" d="M867.14,-171.67C749.72,-162.85 379.51,-132.26 64.98,-74.74"/>
<polygon fill="#63b8ff" stroke="#63b8ff" points="65.77,-71.32 55.3,-72.95 64.5,-78.21 65.77,-71.32"/>
</a>
</g>
</g>
<!-- Node5 -->
<g id="Node000005" class="node">
<title>Node5</title>
<g id="a_Node000005"><a xlink:title=" ">
<polygon fill="#e0e0e0" stroke="#999999" points="985.38,-74.5 934.12,-74.5 934.12,-55.25 985.38,-55.25 985.38,-74.5"/>
<text text-anchor="middle" x="959.75" y="-61" font-family="Helvetica,sans-Serif" font-size="10.00">sstream</text>
</a>
</g>
</g>
<!-- Node2&#45;&gt;Node5 -->
<g id="edge4_Node000002_Node000005" class="edge">
<title>Node2&#45;&gt;Node5</title>
<g id="a_edge4_Node000002_Node000005"><a xlink:title=" ">
<path fill="none" stroke="#63b8ff" d="M913.63,-165.56C921.74,-157.06 933.52,-143.5 940.75,-129.75 948.01,-115.94 952.9,-98.95 955.89,-85.96"/>
<polygon fill="#63b8ff" stroke="#63b8ff" points="959.26,-86.96 957.89,-76.46 952.41,-85.52 959.26,-86.96"/>
</a>
</g>
</g>
<!-- Node6 -->
<g id="Node000006" class="node">
<title>Node6</title>
<g id="a_Node000006"><a xlink:title=" ">
<polygon fill="#e0e0e0" stroke="#999999" points="859.75,-129.75 801.75,-129.75 801.75,-110.5 859.75,-110.5 859.75,-129.75"/>
<text text-anchor="middle" x="830.75" y="-116.25" font-family="Helvetica,sans-Serif" font-size="10.00">TObject.h</text>
</a>
</g>
</g>
<!-- Node2&#45;&gt;Node6 -->
<g id="edge5_Node000002_Node000006" class="edge">
<title>Node2&#45;&gt;Node6</title>
<g id="a_edge5_Node000002_Node000006"><a xlink:title=" ">
<path fill="none" stroke="#63b8ff" d="M892.2,-165.34C881.29,-157.49 865.25,-145.95 852.29,-136.62"/>
<polygon fill="#63b8ff" stroke="#63b8ff" points="854.51,-133.91 844.35,-130.91 850.42,-139.59 854.51,-133.91"/>
</a>
</g>
</g>
<!-- Node7 -->
<g id="Node000007" class="node">
<title>Node7</title>
<g id="a_Node000007"><a xlink:title=" ">
<polygon fill="#e0e0e0" stroke="#999999" points="931.88,-129.75 877.62,-129.75 877.62,-110.5 931.88,-110.5 931.88,-129.75"/>
<text text-anchor="middle" x="904.75" y="-116.25" font-family="Helvetica,sans-Serif" font-size="10.00">TClass.h</text>
</a>
</g>
</g>
<!-- Node2&#45;&gt;Node7 -->
<g id="edge6_Node000002_Node000007" class="edge">
<title>Node2&#45;&gt;Node7</title>
<g id="a_edge6_Node000002_Node000007"><a xlink:title=" ">
<path fill="none" stroke="#63b8ff" d="M904.75,-165.58C904.75,-159.07 904.75,-149.92 904.75,-141.62"/>
<polygon fill="#63b8ff" stroke="#63b8ff" points="908.25,-141.62 904.75,-131.62 901.25,-141.62 908.25,-141.62"/>
</a>
</g>
</g>
<!-- Node8 -->
<g id="Node000008" class="node">
<title>Node8</title>
<g id="a_Node000008"><a xlink:href="_globals_8h.html" target="_top" xlink:title=" ">
<polygon fill="white" stroke="#666666" points="547,-129.75 490.5,-129.75 490.5,-110.5 547,-110.5 547,-129.75"/>
<text text-anchor="middle" x="518.75" y="-116.25" font-family="Helvetica,sans-Serif" font-size="10.00">Globals.h</text>
</a>
</g>
</g>
<!-- Node2&#45;&gt;Node8 -->
<g id="edge7_Node000002_Node000008" class="edge">
<title>Node2&#45;&gt;Node8</title>
<g id="a_edge7_Node000002_Node000008"><a xlink:title=" ">
<path fill="none" stroke="#63b8ff" d="M867.04,-169.17C793.93,-159.09 633.55,-136.96 558.7,-126.64"/>
<polygon fill="#63b8ff" stroke="#63b8ff" points="559.33,-123.19 548.95,-125.29 558.38,-130.12 559.33,-123.19"/>
</a>
</g>
</g>
<!-- Node21 -->
<g id="Node000021" class="node">
<title>Node21</title>
<g id="a_Node000021"><a xlink:href="_t_priority_value_8h.html" target="_top" xlink:title=" ">
<polygon fill="white" stroke="#666666" points="1690.88,-74.5 1606.62,-74.5 1606.62,-55.25 1690.88,-55.25 1690.88,-74.5"/>
<text text-anchor="middle" x="1648.75" y="-61" font-family="Helvetica,sans-Serif" font-size="10.00">TPriorityValue.h</text>
</a>
</g>
</g>
<!-- Node2&#45;&gt;Node21 -->
<g id="edge23_Node000002_Node000021" class="edge">
<title>Node2&#45;&gt;Node21</title>
<g id="a_edge23_Node000002_Node000021"><a xlink:title=" ">
<path fill="none" stroke="#63b8ff" d="M942.34,-166.92C945.18,-166.48 948.01,-166.08 950.75,-165.75 1092.6,-148.55 1464.3,-192.35 1592.75,-129.75 1612.78,-119.99 1628.68,-99.49 1638.34,-84.34"/>
<polygon fill="#63b8ff" stroke="#63b8ff" points="1641.08,-86.57 1643.23,-76.19 1635.08,-82.96 1641.08,-86.57"/>
</a>
</g>
</g>
<!-- Node24 -->
<g id="Node000024" class="node">
<title>Node24</title>
<g id="a_Node000024"><a xlink:href="_t_channel_8h.html" target="_top" xlink:title=" ">
<polygon fill="white" stroke="#666666" points="1279.12,-129.75 1214.38,-129.75 1214.38,-110.5 1279.12,-110.5 1279.12,-129.75"/>
<text text-anchor="middle" x="1246.75" y="-116.25" font-family="Helvetica,sans-Serif" font-size="10.00">TChannel.h</text>
</a>
</g>
</g>
<!-- Node2&#45;&gt;Node24 -->
<g id="edge27_Node000002_Node000024" class="edge">
<title>Node2&#45;&gt;Node24</title>
<g id="a_edge27_Node000002_Node000024"><a xlink:title=" ">
<path fill="none" stroke="#63b8ff" d="M942.39,-167.21C945.21,-166.7 948.03,-166.21 950.75,-165.75 1040.16,-150.63 1145.19,-135.39 1203.02,-127.22"/>
<polygon fill="#63b8ff" stroke="#63b8ff" points="1203.36,-130.71 1212.78,-125.84 1202.39,-123.77 1203.36,-130.71"/>
</a>
</g>
</g>
<!-- Node8&#45;&gt;Node3 -->
<g id="edge11_Node000008_Node000003" class="edge">
<title>Node8&#45;&gt;Node3</title>
<g id="a_edge11_Node000008_Node000003"><a xlink:title=" ">
<path fill="none" stroke="#63b8ff" d="M547.13,-119.01C609.81,-118.03 764.2,-111.71 886.75,-74.5 904.87,-69 906.63,-60.73 924.75,-55.25 1048.26,-17.92 1203.41,-11.6 1269.08,-10.68"/>
<polygon fill="#63b8ff" stroke="#63b8ff" points="1268.79,-14.19 1278.76,-10.58 1268.72,-7.19 1268.79,-14.19"/>
</a>
</g>
</g>
<!-- Node8&#45;&gt;Node4 -->
<g id="edge8_Node000008_Node000004" class="edge">
<title>Node8&#45;&gt;Node4</title>
<g id="a_edge8_Node000008_Node000004"><a xlink:title=" ">
<path fill="none" stroke="#63b8ff" d="M490.02,-117.69C419.36,-113.87 231.29,-101.93 64.73,-74.6"/>
<polygon fill="#63b8ff" stroke="#63b8ff" points="65.73,-71.22 55.29,-73.03 64.58,-78.12 65.73,-71.22"/>
</a>
</g>
</g>
<!-- Node8&#45;&gt;Node5 -->
<g id="edge17_Node000008_Node000005" class="edge">
<title>Node8&#45;&gt;Node5</title>
<g id="a_edge17_Node000008_Node000005"><a xlink:title=" ">
<path fill="none" stroke="#63b8ff" d="M547.08,-116.97C612.84,-111.74 780.79,-97.15 919.75,-74.5 920.76,-74.33 921.79,-74.16 922.82,-73.98"/>
<polygon fill="#63b8ff" stroke="#63b8ff" points="923.36,-77.44 932.52,-72.12 922.03,-70.57 923.36,-77.44"/>
</a>
</g>
</g>
<!-- Node9 -->
<g id="Node000009" class="node">
<title>Node9</title>
<g id="a_Node000009"><a xlink:title=" ">
<polygon fill="#e0e0e0" stroke="#999999" points="801.62,-74.5 751.88,-74.5 751.88,-55.25 801.62,-55.25 801.62,-74.5"/>
<text text-anchor="middle" x="776.75" y="-61" font-family="Helvetica,sans-Serif" font-size="10.00">iomanip</text>
</a>
</g>
</g>
<!-- Node8&#45;&gt;Node9 -->
<g id="edge9_Node000008_Node000009" class="edge">
<title>Node8&#45;&gt;Node9</title>
<g id="a_edge9_Node000008_Node000009"><a xlink:title=" ">
<path fill="none" stroke="#63b8ff" d="M547.49,-113.89C588.21,-106.37 665.27,-91.75 740.46,-74.92"/>
<polygon fill="#63b8ff" stroke="#63b8ff" points="741.07,-78.37 750.06,-72.76 739.53,-71.55 741.07,-78.37"/>
</a>
</g>
</g>
<!-- Node10 -->
<g id="Node000010" class="node">
<title>Node10</title>
<g id="a_Node000010"><a xlink:title=" ">
<polygon fill="#e0e0e0" stroke="#999999" points="877.75,-74.5 819.75,-74.5 819.75,-55.25 877.75,-55.25 877.75,-74.5"/>
<text text-anchor="middle" x="848.75" y="-61" font-family="Helvetica,sans-Serif" font-size="10.00">stdexcept</text>
</a>
</g>
</g>
<!-- Node8&#45;&gt;Node10 -->
<g id="edge10_Node000008_Node000010" class="edge">
<title>Node8&#45;&gt;Node10</title>
<g id="a_edge10_Node000008_Node000010"><a xlink:title=" ">
<path fill="none" stroke="#63b8ff" d="M547.46,-115.43C598.1,-108.77 706.77,-93.8 808.27,-74.86"/>
<polygon fill="#63b8ff" stroke="#63b8ff" points="808.67,-78.34 817.85,-73.05 807.37,-71.46 808.67,-78.34"/>
</a>
</g>
</g>
<!-- Node11 -->
<g id="Node000011" class="node">
<title>Node11</title>
<g id="a_Node000011"><a xlink:title=" ">
<polygon fill="#e0e0e0" stroke="#999999" points="113.88,-74.5 71.62,-74.5 71.62,-55.25 113.88,-55.25 113.88,-74.5"/>
<text text-anchor="middle" x="92.75" y="-61" font-family="Helvetica,sans-Serif" font-size="10.00">cstdio</text>
</a>
</g>
</g>
<!-- Node8&#45;&gt;Node11 -->
<g id="edge12_Node000008_Node000011" class="edge">
<title>Node8&#45;&gt;Node11</title>
<g id="a_edge12_Node000008_Node000011"><a xlink:title=" ">
<path fill="none" stroke="#63b8ff" d="M490.17,-117.55C426.32,-113.69 267.17,-102.13 125.32,-74.71"/>
<polygon fill="#63b8ff" stroke="#63b8ff" points="126.25,-71.32 115.76,-72.82 124.89,-78.19 126.25,-71.32"/>
</a>
</g>
</g>
<!-- Node12 -->
<g id="Node000012" class="node">
<title>Node12</title>
<g id="a_Node000012"><a xlink:title=" ">
<polygon fill="#e0e0e0" stroke="#999999" points="177.38,-74.5 132.12,-74.5 132.12,-55.25 177.38,-55.25 177.38,-74.5"/>
<text text-anchor="middle" x="154.75" y="-61" font-family="Helvetica,sans-Serif" font-size="10.00">cstdint</text>
</a>
</g>
</g>
<!-- Node8&#45;&gt;Node12 -->
<g id="edge13_Node000008_Node000012" class="edge">
<title>Node8&#45;&gt;Node12</title>
<g id="a_edge13_Node000008_Node000012"><a xlink:title=" ">
<path fill="none" stroke="#63b8ff" d="M490.12,-116.54C434.11,-111.21 306,-97.71 188.69,-74.64"/>
<polygon fill="#63b8ff" stroke="#63b8ff" points="189.71,-71.28 179.22,-72.75 188.34,-78.14 189.71,-71.28"/>
</a>
</g>
</g>
<!-- Node13 -->
<g id="Node000013" class="node">
<title>Node13</title>
<g id="a_Node000013"><a xlink:title=" ">
<polygon fill="#e0e0e0" stroke="#999999" points="240,-74.5 195.5,-74.5 195.5,-55.25 240,-55.25 240,-74.5"/>
<text text-anchor="middle" x="217.75" y="-61" font-family="Helvetica,sans-Serif" font-size="10.00">cstdlib</text>
</a>
</g>
</g>
<!-- Node8&#45;&gt;Node13 -->
<g id="edge14_Node000008_Node000013" class="edge">
<title>Node8&#45;&gt;Node13</title>
<g id="a_edge14_Node000008_Node000013"><a xlink:title=" ">
<path fill="none" stroke="#63b8ff" d="M490.18,-115.43C442.63,-109.07 344.06,-94.94 251.61,-74.94"/>
<polygon fill="#63b8ff" stroke="#63b8ff" points="252.36,-71.52 241.84,-72.79 250.86,-78.36 252.36,-71.52"/>
</a>
</g>
</g>
<!-- Node14 -->
<g id="Node000014" class="node">
<title>Node14</title>
<g id="a_Node000014"><a xlink:title=" ">
<polygon fill="#e0e0e0" stroke="#999999" points="317.5,-74.5 258,-74.5 258,-55.25 317.5,-55.25 317.5,-74.5"/>
<text text-anchor="middle" x="287.75" y="-61" font-family="Helvetica,sans-Serif" font-size="10.00">execinfo.h</text>
</a>
</g>
</g>
<!-- Node8&#45;&gt;Node14 -->
<g id="edge15_Node000008_Node000014" class="edge">
<title>Node8&#45;&gt;Node14</title>
<g id="a_edge15_Node000008_Node000014"><a xlink:title=" ">
<path fill="none" stroke="#63b8ff" d="M490.42,-112.6C450,-103.28 375.5,-86.1 328.96,-75.38"/>
<polygon fill="#63b8ff" stroke="#63b8ff" points="329.78,-71.97 319.25,-73.14 328.2,-78.79 329.78,-71.97"/>
</a>
</g>
</g>
<!-- Node15 -->
<g id="Node000015" class="node">
<title>Node15</title>
<g id="a_Node000015"><a xlink:title=" ">
<polygon fill="#e0e0e0" stroke="#999999" points="386,-74.5 335.5,-74.5 335.5,-55.25 386,-55.25 386,-74.5"/>
<text text-anchor="middle" x="360.75" y="-61" font-family="Helvetica,sans-Serif" font-size="10.00">cxxabi.h</text>
</a>
</g>
</g>
<!-- Node8&#45;&gt;Node15 -->
<g id="edge16_Node000008_Node000015" class="edge">
<title>Node8&#45;&gt;Node15</title>
<g id="a_edge16_Node000008_Node000015"><a xlink:title=" ">
<path fill="none" stroke="#63b8ff" d="M491.95,-110.09C465.91,-101.32 426.18,-87.93 397.26,-78.18"/>
<polygon fill="#63b8ff" stroke="#63b8ff" points="398.4,-74.87 387.81,-74.99 396.17,-81.5 398.4,-74.87"/>
</a>
</g>
</g>
<!-- Node16 -->
<g id="Node000016" class="node">
<title>Node16</title>
<g id="a_Node000016"><a xlink:title=" ">
<polygon fill="#e0e0e0" stroke="#999999" points="441.25,-74.5 404.25,-74.5 404.25,-55.25 441.25,-55.25 441.25,-74.5"/>
<text text-anchor="middle" x="422.75" y="-61" font-family="Helvetica,sans-Serif" font-size="10.00">array</text>
</a>
</g>
</g>
<!-- Node8&#45;&gt;Node16 -->
<g id="edge18_Node000008_Node000016" class="edge">
<title>Node8&#45;&gt;Node16</title>
<g id="a_edge18_Node000008_Node000016"><a xlink:title=" ">
<path fill="none" stroke="#63b8ff" d="M502.46,-110.09C487.85,-101.98 466.12,-89.93 449.04,-80.46"/>
<polygon fill="#63b8ff" stroke="#63b8ff" points="450.88,-77.48 440.44,-75.69 447.49,-83.6 450.88,-77.48"/>
</a>
</g>
</g>
<!-- Node17 -->
<g id="Node000017" class="node">
<title>Node17</title>
<g id="a_Node000017"><a xlink:title=" ">
<polygon fill="#e0e0e0" stroke="#999999" points="510,-74.5 459.5,-74.5 459.5,-55.25 510,-55.25 510,-74.5"/>
<text text-anchor="middle" x="484.75" y="-61" font-family="Helvetica,sans-Serif" font-size="10.00">memory</text>
</a>
</g>
</g>
<!-- Node8&#45;&gt;Node17 -->
<g id="edge19_Node000008_Node000017" class="edge">
<title>Node8&#45;&gt;Node17</title>
<g id="a_edge19_Node000008_Node000017"><a xlink:title=" ">
<path fill="none" stroke="#63b8ff" d="M513.14,-110.33C508.63,-103.28 502.16,-93.15 496.54,-84.33"/>
<polygon fill="#63b8ff" stroke="#63b8ff" points="499.63,-82.68 491.3,-76.13 493.73,-86.45 499.63,-82.68"/>
</a>
</g>
</g>
<!-- Node18 -->
<g id="Node000018" class="node">
<title>Node18</title>
<g id="a_Node000018"><a xlink:title=" ">
<polygon fill="#e0e0e0" stroke="#999999" points="577.62,-74.5 527.88,-74.5 527.88,-55.25 577.62,-55.25 577.62,-74.5"/>
<text text-anchor="middle" x="552.75" y="-61" font-family="Helvetica,sans-Serif" font-size="10.00">unistd.h</text>
</a>
</g>
</g>
<!-- Node8&#45;&gt;Node18 -->
<g id="edge20_Node000008_Node000018" class="edge">
<title>Node8&#45;&gt;Node18</title>
<g id="a_edge20_Node000008_Node000018"><a xlink:title=" ">
<path fill="none" stroke="#63b8ff" d="M524.36,-110.33C528.87,-103.28 535.34,-93.15 540.96,-84.33"/>
<polygon fill="#63b8ff" stroke="#63b8ff" points="543.77,-86.45 546.2,-76.13 537.87,-82.68 543.77,-86.45"/>
</a>
</g>
</g>
<!-- Node19 -->
<g id="Node000019" class="node">
<title>Node19</title>
<g id="a_Node000019"><a xlink:title=" ">
<polygon fill="#e0e0e0" stroke="#999999" points="655.5,-74.5 596,-74.5 596,-55.25 655.5,-55.25 655.5,-74.5"/>
<text text-anchor="middle" x="625.75" y="-61" font-family="Helvetica,sans-Serif" font-size="10.00">sys/wait.h</text>
</a>
</g>
</g>
<!-- Node8&#45;&gt;Node19 -->
<g id="edge21_Node000008_Node000019" class="edge">
<title>Node8&#45;&gt;Node19</title>
<g id="a_edge21_Node000008_Node000019"><a xlink:title=" ">
<path fill="none" stroke="#63b8ff" d="M536.9,-110.09C553.43,-101.87 578.09,-89.59 597.25,-80.06"/>
<polygon fill="#63b8ff" stroke="#63b8ff" points="598.76,-83.22 606.15,-75.63 595.64,-76.95 598.76,-83.22"/>
</a>
</g>
</g>
<!-- Node20 -->
<g id="Node000020" class="node">
<title>Node20</title>
<g id="a_Node000020"><a xlink:title=" ">
<polygon fill="#e0e0e0" stroke="#999999" points="733.88,-74.5 673.62,-74.5 673.62,-55.25 733.88,-55.25 733.88,-74.5"/>
<text text-anchor="middle" x="703.75" y="-61" font-family="Helvetica,sans-Serif" font-size="10.00">sys/prctl.h</text>
</a>
</g>
</g>
<!-- Node8&#45;&gt;Node20 -->
<g id="edge22_Node000008_Node000020" class="edge">
<title>Node8&#45;&gt;Node20</title>
<g id="a_edge22_Node000008_Node000020"><a xlink:title=" ">
<path fill="none" stroke="#63b8ff" d="M547.25,-110.92C578.07,-102.05 627.49,-87.83 662.54,-77.74"/>
<polygon fill="#63b8ff" stroke="#63b8ff" points="663.27,-81.17 671.92,-75.04 661.34,-74.44 663.27,-81.17"/>
</a>
</g>
</g>
<!-- Node21&#45;&gt;Node3 -->
<g id="edge25_Node000021_Node000003" class="edge">
<title>Node21&#45;&gt;Node3</title>
<g id="a_edge25_Node000021_Node000003"><a xlink:title=" ">
<path fill="none" stroke="#63b8ff" d="M1606.25,-57.32C1601.69,-56.62 1597.13,-55.92 1592.75,-55.25 1497.79,-40.68 1385.45,-23.54 1332.01,-15.39"/>
<polygon fill="#63b8ff" stroke="#63b8ff" points="1332.84,-11.98 1322.43,-13.93 1331.78,-18.9 1332.84,-11.98"/>
</a>
</g>
</g>
<!-- Node22 -->
<g id="Node000022" class="node">
<title>Node22</title>
<g id="a_Node000022"><a xlink:title=" ">
<polygon fill="#e0e0e0" stroke="#999999" points="1706.38,-19.25 1655.12,-19.25 1655.12,0 1706.38,0 1706.38,-19.25"/>
<text text-anchor="middle" x="1680.75" y="-5.75" font-family="Helvetica,sans-Serif" font-size="10.00">ostream</text>
</a>
</g>
</g>
<!-- Node21&#45;&gt;Node22 -->
<g id="edge24_Node000021_Node000022" class="edge">
<title>Node21&#45;&gt;Node22</title>
<g id="a_edge24_Node000021_Node000022"><a xlink:title=" ">
<path fill="none" stroke="#63b8ff" d="M1654.03,-55.08C1658.22,-48.11 1664.23,-38.12 1669.48,-29.37"/>
<polygon fill="#63b8ff" stroke="#63b8ff" points="1672.42,-31.28 1674.57,-20.91 1666.42,-27.68 1672.42,-31.28"/>
</a>
</g>
</g>
<!-- Node23 -->
<g id="Node000023" class="node">
<title>Node23</title>
<g id="a_Node000023"><a xlink:title=" ">
<polygon fill="#e0e0e0" stroke="#999999" points="1637.25,-19.25 1594.25,-19.25 1594.25,0 1637.25,0 1637.25,-19.25"/>
<text text-anchor="middle" x="1615.75" y="-5.75" font-family="Helvetica,sans-Serif" font-size="10.00">vector</text>
</a>
</g>
</g>
<!-- Node21&#45;&gt;Node23 -->
<g id="edge26_Node000021_Node000023" class="edge">
<title>Node21&#45;&gt;Node23</title>
<g id="a_edge26_Node000021_Node000023"><a xlink:title=" ">
<path fill="none" stroke="#63b8ff" d="M1643.3,-55.08C1638.98,-48.11 1632.79,-38.12 1627.37,-29.37"/>
<polygon fill="#63b8ff" stroke="#63b8ff" points="1630.36,-27.55 1622.11,-20.9 1624.41,-31.24 1630.36,-27.55"/>
</a>
</g>
</g>
<!-- Node24&#45;&gt;Node3 -->
<g id="edge28_Node000024_Node000003" class="edge">
<title>Node24&#45;&gt;Node3</title>
<g id="a_edge28_Node000024_Node000003"><a xlink:title=" ">
<path fill="none" stroke="#63b8ff" d="M1214,-119.75C1142.72,-120.05 983.73,-114.32 1033.75,-55.25 1063.56,-20.04 1204.71,-12.59 1268.87,-11.03"/>
<polygon fill="#63b8ff" stroke="#63b8ff" points="1268.83,-14.53 1278.75,-10.83 1268.68,-7.53 1268.83,-14.53"/>
</a>
</g>
</g>
<!-- Node24&#45;&gt;Node21 -->
<g id="edge36_Node000024_Node000021" class="edge">
<title>Node24&#45;&gt;Node21</title>
<g id="a_edge36_Node000024_Node000021"><a xlink:title=" ">
<path fill="none" stroke="#63b8ff" d="M1279.31,-114.81C1348.47,-105.65 1510.6,-84.17 1595.22,-72.97"/>
<polygon fill="#63b8ff" stroke="#63b8ff" points="1595.42,-76.47 1604.88,-71.69 1594.5,-69.53 1595.42,-76.47"/>
</a>
</g>
</g>
<!-- Node25 -->
<g id="Node000025" class="node">
<title>Node25</title>
<g id="a_Node000025"><a xlink:title=" ">
<polygon fill="#e0e0e0" stroke="#999999" points="1085.25,-74.5 1042.25,-74.5 1042.25,-55.25 1085.25,-55.25 1085.25,-74.5"/>
<text text-anchor="middle" x="1063.75" y="-61" font-family="Helvetica,sans-Serif" font-size="10.00">cmath</text>
</a>
</g>
</g>
<!-- Node24&#45;&gt;Node25 -->
<g id="edge29_Node000024_Node000025" class="edge">
<title>Node24&#45;&gt;Node25</title>
<g id="a_edge29_Node000024_Node000025"><a xlink:title=" ">
<path fill="none" stroke="#63b8ff" d="M1215.71,-110.09C1182.54,-100.44 1130.19,-85.21 1096.42,-75.38"/>
<polygon fill="#63b8ff" stroke="#63b8ff" points="1097.76,-72.13 1087.18,-72.69 1095.81,-78.85 1097.76,-72.13"/>
</a>
</g>
</g>
<!-- Node26 -->
<g id="Node000026" class="node">
<title>Node26</title>
<g id="a_Node000026"><a xlink:title=" ">
<polygon fill="#e0e0e0" stroke="#999999" points="1142,-74.5 1103.5,-74.5 1103.5,-55.25 1142,-55.25 1142,-74.5"/>
<text text-anchor="middle" x="1122.75" y="-61" font-family="Helvetica,sans-Serif" font-size="10.00">utility</text>
</a>
</g>
</g>
<!-- Node24&#45;&gt;Node26 -->
<g id="edge30_Node000024_Node000026" class="edge">
<title>Node24&#45;&gt;Node26</title>
<g id="a_edge30_Node000024_Node000026"><a xlink:title=" ">
<path fill="none" stroke="#63b8ff" d="M1225.72,-110.09C1205.64,-101.47 1175.21,-88.4 1152.63,-78.7"/>
<polygon fill="#63b8ff" stroke="#63b8ff" points="1154.21,-75.58 1143.64,-74.85 1151.45,-82.01 1154.21,-75.58"/>
</a>
</g>
</g>
<!-- Node27 -->
<g id="Node000027" class="node">
<title>Node27</title>
<g id="a_Node000027"><a xlink:title=" ">
<polygon fill="#e0e0e0" stroke="#999999" points="1243.12,-74.5 1160.38,-74.5 1160.38,-55.25 1243.12,-55.25 1243.12,-74.5"/>
<text text-anchor="middle" x="1201.75" y="-61" font-family="Helvetica,sans-Serif" font-size="10.00">unordered_map</text>
</a>
</g>
</g>
<!-- Node24&#45;&gt;Node27 -->
<g id="edge31_Node000024_Node000027" class="edge">
<title>Node24&#45;&gt;Node27</title>
<g id="a_edge31_Node000024_Node000027"><a xlink:title=" ">
<path fill="none" stroke="#63b8ff" d="M1239.32,-110.33C1233.17,-103.05 1224.24,-92.48 1216.62,-83.48"/>
<polygon fill="#63b8ff" stroke="#63b8ff" points="1219.45,-81.39 1210.32,-76.02 1214.1,-85.91 1219.45,-81.39"/>
</a>
</g>
</g>
<!-- Node28 -->
<g id="Node000028" class="node">
<title>Node28</title>
<g id="a_Node000028"><a xlink:title=" ">
<polygon fill="#e0e0e0" stroke="#999999" points="1322.25,-74.5 1261.25,-74.5 1261.25,-55.25 1322.25,-55.25 1322.25,-74.5"/>
<text text-anchor="middle" x="1291.75" y="-61" font-family="Helvetica,sans-Serif" font-size="10.00">TNamed.h</text>
</a>
</g>
</g>
<!-- Node24&#45;&gt;Node28 -->
<g id="edge32_Node000024_Node000028" class="edge">
<title>Node24&#45;&gt;Node28</title>
<g id="a_edge32_Node000024_Node000028"><a xlink:title=" ">
<path fill="none" stroke="#63b8ff" d="M1254.18,-110.33C1260.33,-103.05 1269.26,-92.48 1276.88,-83.48"/>
<polygon fill="#63b8ff" stroke="#63b8ff" points="1279.4,-85.91 1283.18,-76.02 1274.05,-81.39 1279.4,-85.91"/>
</a>
</g>
</g>
<!-- Node29 -->
<g id="Node000029" class="node">
<title>Node29</title>
<g id="a_Node000029"><a xlink:title=" ">
<polygon fill="#e0e0e0" stroke="#999999" points="1389.25,-74.5 1340.25,-74.5 1340.25,-55.25 1389.25,-55.25 1389.25,-74.5"/>
<text text-anchor="middle" x="1364.75" y="-61" font-family="Helvetica,sans-Serif" font-size="10.00">TTree.h</text>
</a>
</g>
</g>
<!-- Node24&#45;&gt;Node29 -->
<g id="edge33_Node000024_Node000029" class="edge">
<title>Node24&#45;&gt;Node29</title>
<g id="a_edge33_Node000024_Node000029"><a xlink:title=" ">
<path fill="none" stroke="#63b8ff" d="M1266.77,-110.09C1285.24,-101.75 1312.96,-89.25 1334.2,-79.66"/>
<polygon fill="#63b8ff" stroke="#63b8ff" points="1335.58,-82.88 1343.26,-75.58 1332.7,-76.5 1335.58,-82.88"/>
</a>
</g>
</g>
<!-- Node30 -->
<g id="Node000030" class="node">
<title>Node30</title>
<g id="a_Node000030"><a xlink:title=" ">
<polygon fill="#e0e0e0" stroke="#999999" points="1462.62,-74.5 1406.88,-74.5 1406.88,-55.25 1462.62,-55.25 1462.62,-74.5"/>
<text text-anchor="middle" x="1434.75" y="-61" font-family="Helvetica,sans-Serif" font-size="10.00">TGraph.h</text>
</a>
</g>
</g>
<!-- Node24&#45;&gt;Node30 -->
<g id="edge34_Node000024_Node000030" class="edge">
<title>Node24&#45;&gt;Node30</title>
<g id="a_edge34_Node000024_Node000030"><a xlink:title=" ">
<path fill="none" stroke="#63b8ff" d="M1278.64,-110.09C1310.97,-100.93 1361.04,-86.75 1395.72,-76.93"/>
<polygon fill="#63b8ff" stroke="#63b8ff" points="1396.27,-80.41 1404.94,-74.32 1394.37,-73.68 1396.27,-80.41"/>
</a>
</g>
</g>
<!-- Node31 -->
<g id="Node000031" class="node">
<title>Node31</title>
<g id="a_Node000031"><a xlink:title=" ">
<polygon fill="#e0e0e0" stroke="#999999" points="1550.38,-74.5 1481.12,-74.5 1481.12,-55.25 1550.38,-55.25 1550.38,-74.5"/>
<text text-anchor="middle" x="1515.75" y="-61" font-family="Helvetica,sans-Serif" font-size="10.00">TClassRef.h</text>
</a>
</g>
</g>
<!-- Node24&#45;&gt;Node31 -->
<g id="edge35_Node000024_Node000031" class="edge">
<title>Node24&#45;&gt;Node31</title>
<g id="a_edge35_Node000024_Node000031"><a xlink:title=" ">
<path fill="none" stroke="#63b8ff" d="M1279.47,-112.65C1327.05,-103.23 1415.56,-85.71 1469.7,-74.99"/>
<polygon fill="#63b8ff" stroke="#63b8ff" points="1470.1,-78.48 1479.23,-73.11 1468.74,-71.61 1470.1,-78.48"/>
</a>
</g>
</g>
</g>
</svg>
