<?xml version="1.0" encoding="UTF-8" standalone="no"?>
<!DOCTYPE svg PUBLIC "-//W3C//DTD SVG 1.1//EN"
 "http://www.w3.org/Graphics/SVG/1.1/DTD/svg11.dtd">
<!-- Generated by graphviz version 12.2.0 (20241103.1931)
 -->
<!-- Title: TMnemonic.cxx Pages: 1 -->
<!--zoomable 248 -->

<svg id="main" version="1.1" xmlns="http://www.w3.org/2000/svg" xmlns:xlink="http://www.w3.org/1999/xlink" xml:space="preserve" onload="init(evt)">

<style type="text/css"><![CDATA[
.node, .edge {opacity: 0.7;}
.node.selected, .edge.selected {opacity: 1;}
.edge:hover path { stroke: red; }
.edge:hover polygon { stroke: red; fill: red; }
]]></style>

<defs>
  <circle id="rim" cx="0" cy="0" r="7"/>
  <circle id="rim2" cx="0" cy="0" r="3.5"/>
  <g id="zoomPlus">
    <use xlink:href="#rim" fill="#404040"><set attributeName="fill" to="#808080" begin="zoomplus.mouseover" end="zoomplus.mouseout"/></use>
    <path d="M-4,0h8M0,-4v8" fill="none" stroke="white" stroke-width="1.5" pointer-events="none"/>
  </g>
  <g id="zoomMin">
    <use xlink:href="#rim" fill="#404040"><set attributeName="fill" to="#808080" begin="zoomminus.mouseover" end="zoomminus.mouseout"/></use>
    <path d="M-4,0h8" fill="none" stroke="white" stroke-width="1.5" pointer-events="none"/>
  </g>
  <g id="arrowUp" transform="translate(30 24)">
    <use xlink:href="#rim"/>
    <path pointer-events="none" fill="none" stroke="white" stroke-width="1.5" d="M0,-3.0v7 M-2.5,-0.5L0,-3.0L2.5,-0.5"/>
  </g>
  <g id="arrowRight" transform="rotate(90) translate(36 -43)">
    <use xlink:href="#rim"/>
    <path pointer-events="none" fill="none" stroke="white" stroke-width="1.5" d="M0,-3.0v7 M-2.5,-0.5L0,-3.0L2.5,-0.5"/>
  </g>
  <g id="arrowDown" transform="rotate(180) translate(-30 -48)">
    <use xlink:href="#rim"/>
    <path pointer-events="none" fill="none" stroke="white" stroke-width="1.5" d="M0,-3.0v7 M-2.5,-0.5L0,-3.0L2.5,-0.5"/>
  </g>
  <g id="arrowLeft" transform="rotate(270) translate(-36 17)">
    <use xlink:href="#rim"/>
    <path pointer-events="none" fill="none" stroke="white" stroke-width="1.5" d="M0,-3.0v7 M-2.5,-0.5L0,-3.0L2.5,-0.5"/>
  </g>
  <g id="resetDef">
    <use xlink:href="#rim2" fill="#404040"><set attributeName="fill" to="#808080" begin="reset.mouseover" end="reset.mouseout"/></use>
  </g>
</defs>
<script type="application/ecmascript">
var viewWidth = 1610;
var viewHeight = 248;
var sectionId = 'dynsection-0';
</script>
<script type="application/ecmascript" xlink:href="svg.min.js"/>
<svg id="graph" class="graph">
<g id="viewport">
<title>TMnemonic.cxx</title>
<!-- Node1 -->
<g id="Node000001" class="node">
<title>Node1</title>
<g id="a_Node000001"><a xlink:title=" ">
<polygon fill="#999999" stroke="#666666" points="975.5,-240.25 892,-240.25 892,-221 975.5,-221 975.5,-240.25"/>
<text text-anchor="middle" x="933.75" y="-226.75" font-family="Helvetica,sans-Serif" font-size="10.00">TMnemonic.cxx</text>
</a>
</g>
</g>
<!-- Node2 -->
<g id="Node000002" class="node">
<title>Node2</title>
<g id="a_Node000002"><a xlink:href="_t_mnemonic_8h.html" target="_top" xlink:title=" ">
<polygon fill="white" stroke="#666666" points="971,-185 896.5,-185 896.5,-165.75 971,-165.75 971,-185"/>
<text text-anchor="middle" x="933.75" y="-171.5" font-family="Helvetica,sans-Serif" font-size="10.00">TMnemonic.h</text>
</a>
</g>
</g>
<!-- Node1&#45;&gt;Node2 -->
<g id="edge1_Node000001_Node000002" class="edge">
<title>Node1&#45;&gt;Node2</title>
<g id="a_edge1_Node000001_Node000002"><a xlink:title=" ">
<path fill="none" stroke="#63b8ff" d="M933.75,-220.83C933.75,-214.32 933.75,-205.17 933.75,-196.87"/>
<polygon fill="#63b8ff" stroke="#63b8ff" points="937.25,-196.87 933.75,-186.87 930.25,-196.87 937.25,-196.87"/>
</a>
</g>
</g>
<!-- Node4 -->
<g id="Node000004" class="node">
<title>Node4</title>
<g id="a_Node000004"><a xlink:title=" ">
<polygon fill="#e0e0e0" stroke="#999999" points="53.5,-74.5 0,-74.5 0,-55.25 53.5,-55.25 53.5,-74.5"/>
<text text-anchor="middle" x="26.75" y="-61" font-family="Helvetica,sans-Serif" font-size="10.00">iostream</text>
</a>
</g>
</g>
<!-- Node1&#45;&gt;Node4 -->
<g id="edge36_Node000001_Node000004" class="edge">
<title>Node1&#45;&gt;Node4</title>
<g id="a_edge36_Node000001_Node000004"><a xlink:title=" ">
<path fill="none" stroke="#63b8ff" d="M891.82,-224.18C789.63,-210.66 519.74,-173.49 296.75,-129.75 213.48,-113.42 116.95,-89.31 64.84,-75.87"/>
<polygon fill="#63b8ff" stroke="#63b8ff" points="65.83,-72.51 55.27,-73.39 64.08,-79.29 65.83,-72.51"/>
</a>
</g>
</g>
<!-- Node31 -->
<g id="Node000031" class="node">
<title>Node31</title>
<g id="a_Node000031"><a xlink:title=" ">
<polygon fill="#e0e0e0" stroke="#999999" points="1054.5,-185 989,-185 989,-165.75 1054.5,-165.75 1054.5,-185"/>
<text text-anchor="middle" x="1021.75" y="-171.5" font-family="Helvetica,sans-Serif" font-size="10.00">TRandom.h</text>
</a>
</g>
</g>
<!-- Node1&#45;&gt;Node31 -->
<g id="edge37_Node000001_Node000031" class="edge">
<title>Node1&#45;&gt;Node31</title>
<g id="a_edge37_Node000001_Node000031"><a xlink:title=" ">
<path fill="none" stroke="#63b8ff" d="M948.68,-220.59C961.95,-212.56 981.62,-200.66 997.2,-191.23"/>
<polygon fill="#63b8ff" stroke="#63b8ff" points="998.71,-194.41 1005.45,-186.24 995.09,-188.42 998.71,-194.41"/>
</a>
</g>
</g>
<!-- Node3 -->
<g id="Node000003" class="node">
<title>Node3</title>
<g id="a_Node000003"><a xlink:title=" ">
<polygon fill="#e0e0e0" stroke="#999999" points="1135.75,-19.25 1095.75,-19.25 1095.75,0 1135.75,0 1135.75,-19.25"/>
<text text-anchor="middle" x="1115.75" y="-5.75" font-family="Helvetica,sans-Serif" font-size="10.00">string</text>
</a>
</g>
</g>
<!-- Node2&#45;&gt;Node3 -->
<g id="edge2_Node000002_Node000003" class="edge">
<title>Node2&#45;&gt;Node3</title>
<g id="a_edge2_Node000002_Node000003"><a xlink:title=" ">
<path fill="none" stroke="#63b8ff" d="M971.38,-167.14C974.21,-166.65 977.02,-166.18 979.75,-165.75 1116.87,-144.1 1507.85,-180.28 1597.75,-74.5 1603.29,-67.98 1603.51,-61.57 1597.75,-55.25 1567.42,-21.98 1250.14,-13.14 1147.55,-11.14"/>
<polygon fill="#63b8ff" stroke="#63b8ff" points="1147.72,-7.65 1137.65,-10.96 1147.59,-14.64 1147.72,-7.65"/>
</a>
</g>
</g>
<!-- Node2&#45;&gt;Node4 -->
<g id="edge3_Node000002_Node000004" class="edge">
<title>Node2&#45;&gt;Node4</title>
<g id="a_edge3_Node000002_Node000004"><a xlink:title=" ">
<path fill="none" stroke="#63b8ff" d="M896.12,-171.95C776,-163.81 391,-134.64 64.9,-74.73"/>
<polygon fill="#63b8ff" stroke="#63b8ff" points="65.77,-71.33 55.3,-72.95 64.5,-78.21 65.77,-71.33"/>
</a>
</g>
</g>
<!-- Node5 -->
<g id="Node000005" class="node">
<title>Node5</title>
<g id="a_Node000005"><a xlink:title=" ">
<polygon fill="#e0e0e0" stroke="#999999" points="921.38,-74.5 870.12,-74.5 870.12,-55.25 921.38,-55.25 921.38,-74.5"/>
<text text-anchor="middle" x="895.75" y="-61" font-family="Helvetica,sans-Serif" font-size="10.00">sstream</text>
</a>
</g>
</g>
<!-- Node2&#45;&gt;Node5 -->
<g id="edge4_Node000002_Node000005" class="edge">
<title>Node2&#45;&gt;Node5</title>
<g id="a_edge4_Node000002_Node000005"><a xlink:title=" ">
<path fill="none" stroke="#63b8ff" d="M930.64,-165.5C924.57,-148.17 911.02,-109.48 902.71,-85.74"/>
<polygon fill="#63b8ff" stroke="#63b8ff" points="906.01,-84.59 899.4,-76.31 899.41,-86.9 906.01,-84.59"/>
</a>
</g>
</g>
<!-- Node6 -->
<g id="Node000006" class="node">
<title>Node6</title>
<g id="a_Node000006"><a xlink:title=" ">
<polygon fill="#e0e0e0" stroke="#999999" points="1019.75,-129.75 961.75,-129.75 961.75,-110.5 1019.75,-110.5 1019.75,-129.75"/>
<text text-anchor="middle" x="990.75" y="-116.25" font-family="Helvetica,sans-Serif" font-size="10.00">TObject.h</text>
</a>
</g>
</g>
<!-- Node2&#45;&gt;Node6 -->
<g id="edge5_Node000002_Node000006" class="edge">
<title>Node2&#45;&gt;Node6</title>
<g id="a_edge5_Node000002_Node000006"><a xlink:title=" ">
<path fill="none" stroke="#63b8ff" d="M943.42,-165.34C951.49,-157.8 963.22,-146.85 972.97,-137.73"/>
<polygon fill="#63b8ff" stroke="#63b8ff" points="975.2,-140.44 980.12,-131.06 970.42,-135.33 975.2,-140.44"/>
</a>
</g>
</g>
<!-- Node7 -->
<g id="Node000007" class="node">
<title>Node7</title>
<g id="a_Node000007"><a xlink:title=" ">
<polygon fill="#e0e0e0" stroke="#999999" points="1091.88,-129.75 1037.62,-129.75 1037.62,-110.5 1091.88,-110.5 1091.88,-129.75"/>
<text text-anchor="middle" x="1064.75" y="-116.25" font-family="Helvetica,sans-Serif" font-size="10.00">TClass.h</text>
</a>
</g>
</g>
<!-- Node2&#45;&gt;Node7 -->
<g id="edge6_Node000002_Node000007" class="edge">
<title>Node2&#45;&gt;Node7</title>
<g id="a_edge6_Node000002_Node000007"><a xlink:title=" ">
<path fill="none" stroke="#63b8ff" d="M955.97,-165.34C976.77,-156.89 1008.1,-144.15 1031.8,-134.52"/>
<polygon fill="#63b8ff" stroke="#63b8ff" points="1033.07,-137.78 1041.02,-130.77 1030.43,-131.3 1033.07,-137.78"/>
</a>
</g>
</g>
<!-- Node8 -->
<g id="Node000008" class="node">
<title>Node8</title>
<g id="a_Node000008"><a xlink:href="_globals_8h.html" target="_top" xlink:title=" ">
<polygon fill="white" stroke="#666666" points="541,-129.75 484.5,-129.75 484.5,-110.5 541,-110.5 541,-129.75"/>
<text text-anchor="middle" x="512.75" y="-116.25" font-family="Helvetica,sans-Serif" font-size="10.00">Globals.h</text>
</a>
</g>
</g>
<!-- Node2&#45;&gt;Node8 -->
<g id="edge7_Node000002_Node000008" class="edge">
<title>Node2&#45;&gt;Node8</title>
<g id="a_edge7_Node000002_Node000008"><a xlink:title=" ">
<path fill="none" stroke="#63b8ff" d="M896.02,-169.6C816.76,-159.58 633.63,-136.41 552.58,-126.16"/>
<polygon fill="#63b8ff" stroke="#63b8ff" points="553.25,-122.72 542.89,-124.94 552.37,-129.66 553.25,-122.72"/>
</a>
</g>
</g>
<!-- Node20 -->
<g id="Node000020" class="node">
<title>Node20</title>
<g id="a_Node000020"><a xlink:href="_t_priority_value_8h.html" target="_top" xlink:title=" ">
<polygon fill="white" stroke="#666666" points="1023.88,-74.5 939.62,-74.5 939.62,-55.25 1023.88,-55.25 1023.88,-74.5"/>
<text text-anchor="middle" x="981.75" y="-61" font-family="Helvetica,sans-Serif" font-size="10.00">TPriorityValue.h</text>
</a>
</g>
</g>
<!-- Node2&#45;&gt;Node20 -->
<g id="edge22_Node000002_Node000020" class="edge">
<title>Node2&#45;&gt;Node20</title>
<g id="a_edge22_Node000002_Node000020"><a xlink:title=" ">
<path fill="none" stroke="#63b8ff" d="M935.56,-165.41C938.3,-152.77 944.11,-129.2 952.75,-110.5 956.95,-101.4 962.8,-92 968.14,-84.19"/>
<polygon fill="#63b8ff" stroke="#63b8ff" points="970.87,-86.4 973.82,-76.23 965.17,-82.34 970.87,-86.4"/>
</a>
</g>
</g>
<!-- Node23 -->
<g id="Node000023" class="node">
<title>Node23</title>
<g id="a_Node000023"><a xlink:href="_t_channel_8h.html" target="_top" xlink:title=" ">
<polygon fill="white" stroke="#666666" points="1251.12,-129.75 1186.38,-129.75 1186.38,-110.5 1251.12,-110.5 1251.12,-129.75"/>
<text text-anchor="middle" x="1218.75" y="-116.25" font-family="Helvetica,sans-Serif" font-size="10.00">TChannel.h</text>
</a>
</g>
</g>
<!-- Node2&#45;&gt;Node23 -->
<g id="edge26_Node000002_Node000023" class="edge">
<title>Node2&#45;&gt;Node23</title>
<g id="a_edge26_Node000002_Node000023"><a xlink:title=" ">
<path fill="none" stroke="#63b8ff" d="M971.41,-167.31C974.23,-166.78 977.03,-166.26 979.75,-165.75 1047.79,-153.02 1126.72,-138.29 1174.68,-129.34"/>
<polygon fill="#63b8ff" stroke="#63b8ff" points="1175.21,-132.8 1184.4,-127.53 1173.93,-125.92 1175.21,-132.8"/>
</a>
</g>
</g>
<!-- Node8&#45;&gt;Node3 -->
<g id="edge11_Node000008_Node000003" class="edge">
<title>Node8&#45;&gt;Node3</title>
<g id="a_edge11_Node000008_Node000003"><a xlink:title=" ">
<path fill="none" stroke="#63b8ff" d="M541.22,-118.11C596.65,-115.47 722.42,-106.19 822.75,-74.5 840.8,-68.8 842.79,-61.22 860.75,-55.25 901.85,-41.58 1025.58,-23.2 1084.25,-14.95"/>
<polygon fill="#63b8ff" stroke="#63b8ff" points="1084.48,-18.45 1093.9,-13.6 1083.51,-11.52 1084.48,-18.45"/>
</a>
</g>
</g>
<!-- Node8&#45;&gt;Node4 -->
<g id="edge8_Node000008_Node000004" class="edge">
<title>Node8&#45;&gt;Node4</title>
<g id="a_edge8_Node000008_Node000004"><a xlink:title=" ">
<path fill="none" stroke="#63b8ff" d="M484.14,-117.64C414.27,-113.74 229.24,-101.68 65.08,-74.66"/>
<polygon fill="#63b8ff" stroke="#63b8ff" points="65.73,-71.22 55.29,-73.02 64.57,-78.12 65.73,-71.22"/>
</a>
</g>
</g>
<!-- Node8&#45;&gt;Node5 -->
<g id="edge16_Node000008_Node000005" class="edge">
<title>Node8&#45;&gt;Node5</title>
<g id="a_edge16_Node000008_Node000005"><a xlink:title=" ">
<path fill="none" stroke="#63b8ff" d="M541.33,-116.22C600.32,-110.04 739.77,-94.51 855.75,-74.5 856.76,-74.33 857.78,-74.14 858.82,-73.95"/>
<polygon fill="#63b8ff" stroke="#63b8ff" points="859.37,-77.41 868.51,-72.05 858.02,-70.55 859.37,-77.41"/>
</a>
</g>
</g>
<!-- Node9 -->
<g id="Node000009" class="node">
<title>Node9</title>
<g id="a_Node000009"><a xlink:title=" ">
<polygon fill="#e0e0e0" stroke="#999999" points="537.62,-74.5 487.88,-74.5 487.88,-55.25 537.62,-55.25 537.62,-74.5"/>
<text text-anchor="middle" x="512.75" y="-61" font-family="Helvetica,sans-Serif" font-size="10.00">iomanip</text>
</a>
</g>
</g>
<!-- Node8&#45;&gt;Node9 -->
<g id="edge9_Node000008_Node000009" class="edge">
<title>Node8&#45;&gt;Node9</title>
<g id="a_edge9_Node000008_Node000009"><a xlink:title=" ">
<path fill="none" stroke="#63b8ff" d="M512.75,-110.33C512.75,-103.82 512.75,-94.67 512.75,-86.37"/>
<polygon fill="#63b8ff" stroke="#63b8ff" points="516.25,-86.37 512.75,-76.37 509.25,-86.37 516.25,-86.37"/>
</a>
</g>
</g>
<!-- Node10 -->
<g id="Node000010" class="node">
<title>Node10</title>
<g id="a_Node000010"><a xlink:title=" ">
<polygon fill="#e0e0e0" stroke="#999999" points="613.75,-74.5 555.75,-74.5 555.75,-55.25 613.75,-55.25 613.75,-74.5"/>
<text text-anchor="middle" x="584.75" y="-61" font-family="Helvetica,sans-Serif" font-size="10.00">stdexcept</text>
</a>
</g>
</g>
<!-- Node8&#45;&gt;Node10 -->
<g id="edge10_Node000008_Node000010" class="edge">
<title>Node8&#45;&gt;Node10</title>
<g id="a_edge10_Node000008_Node000010"><a xlink:title=" ">
<path fill="none" stroke="#63b8ff" d="M524.96,-110.09C535.58,-102.24 551.19,-90.7 563.79,-81.37"/>
<polygon fill="#63b8ff" stroke="#63b8ff" points="565.54,-84.44 571.5,-75.67 561.38,-78.81 565.54,-84.44"/>
</a>
</g>
</g>
<!-- Node11 -->
<g id="Node000011" class="node">
<title>Node11</title>
<g id="a_Node000011"><a xlink:title=" ">
<polygon fill="#e0e0e0" stroke="#999999" points="673.88,-74.5 631.62,-74.5 631.62,-55.25 673.88,-55.25 673.88,-74.5"/>
<text text-anchor="middle" x="652.75" y="-61" font-family="Helvetica,sans-Serif" font-size="10.00">cstdio</text>
</a>
</g>
</g>
<!-- Node8&#45;&gt;Node11 -->
<g id="edge12_Node000008_Node000011" class="edge">
<title>Node8&#45;&gt;Node11</title>
<g id="a_edge12_Node000008_Node000011"><a xlink:title=" ">
<path fill="none" stroke="#63b8ff" d="M536.5,-110.09C559.6,-101.3 594.88,-87.89 620.51,-78.14"/>
<polygon fill="#63b8ff" stroke="#63b8ff" points="621.67,-81.44 629.77,-74.61 619.18,-74.9 621.67,-81.44"/>
</a>
</g>
</g>
<!-- Node12 -->
<g id="Node000012" class="node">
<title>Node12</title>
<g id="a_Node000012"><a xlink:title=" ">
<polygon fill="#e0e0e0" stroke="#999999" points="736,-74.5 691.5,-74.5 691.5,-55.25 736,-55.25 736,-74.5"/>
<text text-anchor="middle" x="713.75" y="-61" font-family="Helvetica,sans-Serif" font-size="10.00">cstdlib</text>
</a>
</g>
</g>
<!-- Node8&#45;&gt;Node12 -->
<g id="edge13_Node000008_Node000012" class="edge">
<title>Node8&#45;&gt;Node12</title>
<g id="a_edge13_Node000008_Node000012"><a xlink:title=" ">
<path fill="none" stroke="#63b8ff" d="M541.36,-111.75C573.06,-103.55 625.97,-89.78 680.21,-75.16"/>
<polygon fill="#63b8ff" stroke="#63b8ff" points="680.87,-78.61 689.61,-72.62 679.05,-71.85 680.87,-78.61"/>
</a>
</g>
</g>
<!-- Node13 -->
<g id="Node000013" class="node">
<title>Node13</title>
<g id="a_Node000013"><a xlink:title=" ">
<polygon fill="#e0e0e0" stroke="#999999" points="813.5,-74.5 754,-74.5 754,-55.25 813.5,-55.25 813.5,-74.5"/>
<text text-anchor="middle" x="783.75" y="-61" font-family="Helvetica,sans-Serif" font-size="10.00">execinfo.h</text>
</a>
</g>
</g>
<!-- Node8&#45;&gt;Node13 -->
<g id="edge14_Node000008_Node000013" class="edge">
<title>Node8&#45;&gt;Node13</title>
<g id="a_edge14_Node000008_Node000013"><a xlink:title=" ">
<path fill="none" stroke="#63b8ff" d="M541.37,-113.88C583.26,-106.15 663.97,-91.05 742.48,-74.92"/>
<polygon fill="#63b8ff" stroke="#63b8ff" points="742.96,-78.4 752.05,-72.95 741.55,-71.54 742.96,-78.4"/>
</a>
</g>
</g>
<!-- Node14 -->
<g id="Node000014" class="node">
<title>Node14</title>
<g id="a_Node000014"><a xlink:title=" ">
<polygon fill="#e0e0e0" stroke="#999999" points="122,-74.5 71.5,-74.5 71.5,-55.25 122,-55.25 122,-74.5"/>
<text text-anchor="middle" x="96.75" y="-61" font-family="Helvetica,sans-Serif" font-size="10.00">cxxabi.h</text>
</a>
</g>
</g>
<!-- Node8&#45;&gt;Node14 -->
<g id="edge15_Node000008_Node000014" class="edge">
<title>Node8&#45;&gt;Node14</title>
<g id="a_edge15_Node000008_Node000014"><a xlink:title=" ">
<path fill="none" stroke="#63b8ff" d="M484.28,-117.09C422.24,-112.39 270.06,-99.37 133.36,-74.76"/>
<polygon fill="#63b8ff" stroke="#63b8ff" points="134.25,-71.37 123.78,-73.01 132.99,-78.25 134.25,-71.37"/>
</a>
</g>
</g>
<!-- Node15 -->
<g id="Node000015" class="node">
<title>Node15</title>
<g id="a_Node000015"><a xlink:title=" ">
<polygon fill="#e0e0e0" stroke="#999999" points="177.25,-74.5 140.25,-74.5 140.25,-55.25 177.25,-55.25 177.25,-74.5"/>
<text text-anchor="middle" x="158.75" y="-61" font-family="Helvetica,sans-Serif" font-size="10.00">array</text>
</a>
</g>
</g>
<!-- Node8&#45;&gt;Node15 -->
<g id="edge17_Node000008_Node000015" class="edge">
<title>Node8&#45;&gt;Node15</title>
<g id="a_edge17_Node000008_Node000015"><a xlink:title=" ">
<path fill="none" stroke="#63b8ff" d="M484.13,-116.79C428.84,-111.93 303.41,-99.29 188.68,-74.57"/>
<polygon fill="#63b8ff" stroke="#63b8ff" points="189.61,-71.19 179.09,-72.47 188.11,-78.03 189.61,-71.19"/>
</a>
</g>
</g>
<!-- Node16 -->
<g id="Node000016" class="node">
<title>Node16</title>
<g id="a_Node000016"><a xlink:title=" ">
<polygon fill="#e0e0e0" stroke="#999999" points="246,-74.5 195.5,-74.5 195.5,-55.25 246,-55.25 246,-74.5"/>
<text text-anchor="middle" x="220.75" y="-61" font-family="Helvetica,sans-Serif" font-size="10.00">memory</text>
</a>
</g>
</g>
<!-- Node8&#45;&gt;Node16 -->
<g id="edge18_Node000008_Node000016" class="edge">
<title>Node8&#45;&gt;Node16</title>
<g id="a_edge18_Node000008_Node000016"><a xlink:title=" ">
<path fill="none" stroke="#63b8ff" d="M484.36,-114.95C438.61,-108.06 345.52,-93.4 257.33,-74.92"/>
<polygon fill="#63b8ff" stroke="#63b8ff" points="258.31,-71.55 247.8,-72.9 256.86,-78.4 258.31,-71.55"/>
</a>
</g>
</g>
<!-- Node17 -->
<g id="Node000017" class="node">
<title>Node17</title>
<g id="a_Node000017"><a xlink:title=" ">
<polygon fill="#e0e0e0" stroke="#999999" points="313.62,-74.5 263.88,-74.5 263.88,-55.25 313.62,-55.25 313.62,-74.5"/>
<text text-anchor="middle" x="288.75" y="-61" font-family="Helvetica,sans-Serif" font-size="10.00">unistd.h</text>
</a>
</g>
</g>
<!-- Node8&#45;&gt;Node17 -->
<g id="edge19_Node000008_Node000017" class="edge">
<title>Node8&#45;&gt;Node17</title>
<g id="a_edge19_Node000008_Node000017"><a xlink:title=" ">
<path fill="none" stroke="#63b8ff" d="M484.06,-112.55C448.87,-104.46 387.1,-90.13 324.8,-74.97"/>
<polygon fill="#63b8ff" stroke="#63b8ff" points="326,-71.66 315.46,-72.69 324.34,-78.46 326,-71.66"/>
</a>
</g>
</g>
<!-- Node18 -->
<g id="Node000018" class="node">
<title>Node18</title>
<g id="a_Node000018"><a xlink:title=" ">
<polygon fill="#e0e0e0" stroke="#999999" points="391.5,-74.5 332,-74.5 332,-55.25 391.5,-55.25 391.5,-74.5"/>
<text text-anchor="middle" x="361.75" y="-61" font-family="Helvetica,sans-Serif" font-size="10.00">sys/wait.h</text>
</a>
</g>
</g>
<!-- Node8&#45;&gt;Node18 -->
<g id="edge20_Node000008_Node000018" class="edge">
<title>Node8&#45;&gt;Node18</title>
<g id="a_edge20_Node000008_Node000018"><a xlink:title=" ">
<path fill="none" stroke="#63b8ff" d="M487.13,-110.09C462.73,-101.49 425.74,-88.44 398.25,-78.75"/>
<polygon fill="#63b8ff" stroke="#63b8ff" points="399.51,-75.48 388.92,-75.46 397.18,-82.08 399.51,-75.48"/>
</a>
</g>
</g>
<!-- Node19 -->
<g id="Node000019" class="node">
<title>Node19</title>
<g id="a_Node000019"><a xlink:title=" ">
<polygon fill="#e0e0e0" stroke="#999999" points="469.88,-74.5 409.62,-74.5 409.62,-55.25 469.88,-55.25 469.88,-74.5"/>
<text text-anchor="middle" x="439.75" y="-61" font-family="Helvetica,sans-Serif" font-size="10.00">sys/prctl.h</text>
</a>
</g>
</g>
<!-- Node8&#45;&gt;Node19 -->
<g id="edge21_Node000008_Node000019" class="edge">
<title>Node8&#45;&gt;Node19</title>
<g id="a_edge21_Node000008_Node000019"><a xlink:title=" ">
<path fill="none" stroke="#63b8ff" d="M500.37,-110.09C489.6,-102.24 473.78,-90.7 461,-81.37"/>
<polygon fill="#63b8ff" stroke="#63b8ff" points="463.31,-78.73 453.17,-75.67 459.19,-84.39 463.31,-78.73"/>
</a>
</g>
</g>
<!-- Node20&#45;&gt;Node3 -->
<g id="edge24_Node000020_Node000003" class="edge">
<title>Node20&#45;&gt;Node3</title>
<g id="a_edge24_Node000020_Node000003"><a xlink:title=" ">
<path fill="none" stroke="#63b8ff" d="M1004.48,-54.84C1026.63,-46.04 1060.45,-32.6 1084.99,-22.85"/>
<polygon fill="#63b8ff" stroke="#63b8ff" points="1086.13,-26.16 1094.13,-19.21 1083.55,-19.66 1086.13,-26.16"/>
</a>
</g>
</g>
<!-- Node21 -->
<g id="Node000021" class="node">
<title>Node21</title>
<g id="a_Node000021"><a xlink:title=" ">
<polygon fill="#e0e0e0" stroke="#999999" points="1030.38,-19.25 979.12,-19.25 979.12,0 1030.38,0 1030.38,-19.25"/>
<text text-anchor="middle" x="1004.75" y="-5.75" font-family="Helvetica,sans-Serif" font-size="10.00">ostream</text>
</a>
</g>
</g>
<!-- Node20&#45;&gt;Node21 -->
<g id="edge23_Node000020_Node000021" class="edge">
<title>Node20&#45;&gt;Node21</title>
<g id="a_edge23_Node000020_Node000021"><a xlink:title=" ">
<path fill="none" stroke="#63b8ff" d="M985.55,-55.08C988.49,-48.26 992.69,-38.56 996.4,-29.95"/>
<polygon fill="#63b8ff" stroke="#63b8ff" points="999.52,-31.57 1000.27,-21 993.09,-28.79 999.52,-31.57"/>
</a>
</g>
</g>
<!-- Node22 -->
<g id="Node000022" class="node">
<title>Node22</title>
<g id="a_Node000022"><a xlink:title=" ">
<polygon fill="#e0e0e0" stroke="#999999" points="961.25,-19.25 918.25,-19.25 918.25,0 961.25,0 961.25,-19.25"/>
<text text-anchor="middle" x="939.75" y="-5.75" font-family="Helvetica,sans-Serif" font-size="10.00">vector</text>
</a>
</g>
</g>
<!-- Node20&#45;&gt;Node22 -->
<g id="edge25_Node000020_Node000022" class="edge">
<title>Node20&#45;&gt;Node22</title>
<g id="a_edge25_Node000020_Node000022"><a xlink:title=" ">
<path fill="none" stroke="#63b8ff" d="M974.81,-55.08C969.13,-47.88 960.91,-37.46 953.86,-28.51"/>
<polygon fill="#63b8ff" stroke="#63b8ff" points="956.71,-26.48 947.77,-20.8 951.22,-30.82 956.71,-26.48"/>
</a>
</g>
</g>
<!-- Node23&#45;&gt;Node3 -->
<g id="edge27_Node000023_Node000003" class="edge">
<title>Node23&#45;&gt;Node3</title>
<g id="a_edge27_Node000023_Node000003"><a xlink:title=" ">
<path fill="none" stroke="#63b8ff" d="M1204.63,-110.32C1192,-102.04 1173.42,-88.79 1159.75,-74.5 1146.53,-60.68 1134.43,-42.53 1126.29,-29.11"/>
<polygon fill="#63b8ff" stroke="#63b8ff" points="1129.51,-27.69 1121.42,-20.84 1123.47,-31.24 1129.51,-27.69"/>
</a>
</g>
</g>
<!-- Node23&#45;&gt;Node20 -->
<g id="edge35_Node000023_Node000020" class="edge">
<title>Node23&#45;&gt;Node20</title>
<g id="a_edge35_Node000023_Node000020"><a xlink:title=" ">
<path fill="none" stroke="#63b8ff" d="M1186.29,-111.83C1146.82,-102.96 1079.73,-87.89 1033.19,-77.43"/>
<polygon fill="#63b8ff" stroke="#63b8ff" points="1034.13,-74.06 1023.61,-75.28 1032.6,-80.89 1034.13,-74.06"/>
</a>
</g>
</g>
<!-- Node24 -->
<g id="Node000024" class="node">
<title>Node24</title>
<g id="a_Node000024"><a xlink:title=" ">
<polygon fill="#e0e0e0" stroke="#999999" points="1211.25,-74.5 1168.25,-74.5 1168.25,-55.25 1211.25,-55.25 1211.25,-74.5"/>
<text text-anchor="middle" x="1189.75" y="-61" font-family="Helvetica,sans-Serif" font-size="10.00">cmath</text>
</a>
</g>
</g>
<!-- Node23&#45;&gt;Node24 -->
<g id="edge28_Node000023_Node000024" class="edge">
<title>Node23&#45;&gt;Node24</title>
<g id="a_edge28_Node000023_Node000024"><a xlink:title=" ">
<path fill="none" stroke="#63b8ff" d="M1213.96,-110.33C1210.21,-103.44 1204.84,-93.59 1200.12,-84.91"/>
<polygon fill="#63b8ff" stroke="#63b8ff" points="1203.22,-83.3 1195.37,-76.19 1197.08,-86.64 1203.22,-83.3"/>
</a>
</g>
</g>
<!-- Node25 -->
<g id="Node000025" class="node">
<title>Node25</title>
<g id="a_Node000025"><a xlink:title=" ">
<polygon fill="#e0e0e0" stroke="#999999" points="1268,-74.5 1229.5,-74.5 1229.5,-55.25 1268,-55.25 1268,-74.5"/>
<text text-anchor="middle" x="1248.75" y="-61" font-family="Helvetica,sans-Serif" font-size="10.00">utility</text>
</a>
</g>
</g>
<!-- Node23&#45;&gt;Node25 -->
<g id="edge29_Node000023_Node000025" class="edge">
<title>Node23&#45;&gt;Node25</title>
<g id="a_edge29_Node000023_Node000025"><a xlink:title=" ">
<path fill="none" stroke="#63b8ff" d="M1223.7,-110.33C1227.63,-103.36 1233.26,-93.37 1238.19,-84.62"/>
<polygon fill="#63b8ff" stroke="#63b8ff" points="1241.09,-86.61 1242.95,-76.18 1234.99,-83.17 1241.09,-86.61"/>
</a>
</g>
</g>
<!-- Node26 -->
<g id="Node000026" class="node">
<title>Node26</title>
<g id="a_Node000026"><a xlink:title=" ">
<polygon fill="#e0e0e0" stroke="#999999" points="1369.12,-74.5 1286.38,-74.5 1286.38,-55.25 1369.12,-55.25 1369.12,-74.5"/>
<text text-anchor="middle" x="1327.75" y="-61" font-family="Helvetica,sans-Serif" font-size="10.00">unordered_map</text>
</a>
</g>
</g>
<!-- Node23&#45;&gt;Node26 -->
<g id="edge30_Node000023_Node000026" class="edge">
<title>Node23&#45;&gt;Node26</title>
<g id="a_edge30_Node000023_Node000026"><a xlink:title=" ">
<path fill="none" stroke="#63b8ff" d="M1237.24,-110.09C1254.15,-101.83 1279.44,-89.48 1298.99,-79.93"/>
<polygon fill="#63b8ff" stroke="#63b8ff" points="1300.36,-83.15 1307.81,-75.62 1297.29,-76.86 1300.36,-83.15"/>
</a>
</g>
</g>
<!-- Node27 -->
<g id="Node000027" class="node">
<title>Node27</title>
<g id="a_Node000027"><a xlink:title=" ">
<polygon fill="#e0e0e0" stroke="#999999" points="1448.25,-74.5 1387.25,-74.5 1387.25,-55.25 1448.25,-55.25 1448.25,-74.5"/>
<text text-anchor="middle" x="1417.75" y="-61" font-family="Helvetica,sans-Serif" font-size="10.00">TNamed.h</text>
</a>
</g>
</g>
<!-- Node23&#45;&gt;Node27 -->
<g id="edge31_Node000023_Node000027" class="edge">
<title>Node23&#45;&gt;Node27</title>
<g id="a_edge31_Node000023_Node000027"><a xlink:title=" ">
<path fill="none" stroke="#63b8ff" d="M1251.61,-110.33C1285.63,-101.23 1338.87,-86.98 1375.88,-77.08"/>
<polygon fill="#63b8ff" stroke="#63b8ff" points="1376.59,-80.51 1385.34,-74.55 1374.78,-73.75 1376.59,-80.51"/>
</a>
</g>
</g>
<!-- Node28 -->
<g id="Node000028" class="node">
<title>Node28</title>
<g id="a_Node000028"><a xlink:title=" ">
<polygon fill="#e0e0e0" stroke="#999999" points="1515.25,-74.5 1466.25,-74.5 1466.25,-55.25 1515.25,-55.25 1515.25,-74.5"/>
<text text-anchor="middle" x="1490.75" y="-61" font-family="Helvetica,sans-Serif" font-size="10.00">TTree.h</text>
</a>
</g>
</g>
<!-- Node23&#45;&gt;Node28 -->
<g id="edge32_Node000023_Node000028" class="edge">
<title>Node23&#45;&gt;Node28</title>
<g id="a_edge32_Node000023_Node000028"><a xlink:title=" ">
<path fill="none" stroke="#63b8ff" d="M1251.37,-113.79C1295.45,-106.42 1376.7,-92.25 1454.92,-75.02"/>
<polygon fill="#63b8ff" stroke="#63b8ff" points="1455.45,-78.48 1464.45,-72.89 1453.93,-71.65 1455.45,-78.48"/>
</a>
</g>
</g>
<!-- Node29 -->
<g id="Node000029" class="node">
<title>Node29</title>
<g id="a_Node000029"><a xlink:title=" ">
<polygon fill="#e0e0e0" stroke="#999999" points="1588.62,-74.5 1532.88,-74.5 1532.88,-55.25 1588.62,-55.25 1588.62,-74.5"/>
<text text-anchor="middle" x="1560.75" y="-61" font-family="Helvetica,sans-Serif" font-size="10.00">TGraph.h</text>
</a>
</g>
</g>
<!-- Node23&#45;&gt;Node29 -->
<g id="edge33_Node000023_Node000029" class="edge">
<title>Node23&#45;&gt;Node29</title>
<g id="a_edge33_Node000023_Node000029"><a xlink:title=" ">
<path fill="none" stroke="#63b8ff" d="M1251.52,-115.33C1305.72,-108.85 1417.66,-94.56 1521.22,-75.05"/>
<polygon fill="#63b8ff" stroke="#63b8ff" points="1521.85,-78.49 1531.02,-73.18 1520.54,-71.62 1521.85,-78.49"/>
</a>
</g>
</g>
<!-- Node30 -->
<g id="Node000030" class="node">
<title>Node30</title>
<g id="a_Node000030"><a xlink:title=" ">
<polygon fill="#e0e0e0" stroke="#999999" points="1111.38,-74.5 1042.12,-74.5 1042.12,-55.25 1111.38,-55.25 1111.38,-74.5"/>
<text text-anchor="middle" x="1076.75" y="-61" font-family="Helvetica,sans-Serif" font-size="10.00">TClassRef.h</text>
</a>
</g>
</g>
<!-- Node23&#45;&gt;Node30 -->
<g id="edge34_Node000023_Node000030" class="edge">
<title>Node23&#45;&gt;Node30</title>
<g id="a_edge34_Node000023_Node000030"><a xlink:title=" ">
<path fill="none" stroke="#63b8ff" d="M1194.66,-110.09C1171.81,-101.52 1137.23,-88.56 1111.42,-78.88"/>
<polygon fill="#63b8ff" stroke="#63b8ff" points="1112.97,-75.72 1102.37,-75.48 1110.51,-82.27 1112.97,-75.72"/>
</a>
</g>
</g>
</g>
</svg>

<g id="navigator" transform="translate(0 0)" fill="#404254">
  <rect fill="#f2f5e9" fill-opacity="0.5" stroke="#606060" stroke-width=".5" x="0" y="0" width="60" height="60"/>
  <use id="zoomplus" xlink:href="#zoomPlus" x="17" y="9" onmousedown="handleZoom(evt,'in')"/>
  <use id="zoomminus" xlink:href="#zoomMin" x="42" y="9" onmousedown="handleZoom(evt,'out')"/>
  <use id="reset" xlink:href="#resetDef" x="30" y="36" onmousedown="handleReset()"/>
   <use id="arrowup" xlink:href="#arrowUp" x="0" y="0" onmousedown="handlePan(0,-1)"/>
  <use id="arrowright" xlink:href="#arrowRight" x="0" y="0" onmousedown="handlePan(1,0)"/>
  <use id="arrowdown" xlink:href="#arrowDown" x="0" y="0" onmousedown="handlePan(0,1)"/>
  <use id="arrowleft" xlink:href="#arrowLeft" x="0" y="0" onmousedown="handlePan(-1,0)"/>
</g>
<svg viewBox="0 0 15 15" width="100%" height="30px" preserveAspectRatio="xMaxYMin meet">
 <g id="arrow_out" transform="scale(0.3 0.3)">
  <a xlink:href="_t_mnemonic_8cxx__incl_org.svg" target="_base">
   <rect id="button" ry="5" rx="5" y="6" x="6" height="38" width="38"
        fill="#f2f5e9" fill-opacity="0.5" stroke="#606060" stroke-width="1.0"/>
   <path id="arrow"
     d="M 11.500037,31.436501 C 11.940474,20.09759 22.043105,11.32322 32.158766,21.979434 L 37.068811,17.246167 C 37.068811,17.246167 37.088388,32 37.088388,32 L 22.160133,31.978069 C 22.160133,31.978069 26.997745,27.140456 26.997745,27.140456 C 18.528582,18.264221 13.291696,25.230495 11.500037,31.436501 z"
     style="fill:#404040;"/>
  </a>
 </g>
</svg>

<style type='text/css'>
<![CDATA[
[data-mouse-over-selected='false'] { opacity: 0.7; }
[data-mouse-over-selected='true']  { opacity: 1.0; }
]]>
</style>
<script type="application/ecmascript"><![CDATA[
document.addEventListener('DOMContentLoaded', (event) => {
  highlightEdges();
  highlightAdjacentNodes();
});
]]></script>
</svg>
