<?xml version="1.0" encoding="UTF-8" standalone="no"?>
<!DOCTYPE svg PUBLIC "-//W3C//DTD SVG 1.1//EN"
 "http://www.w3.org/Graphics/SVG/1.1/DTD/svg11.dtd">
<!-- Generated by graphviz version 9.0.0 (20230911.1827)
 -->
<!-- Title: TMnemonic.h Pages: 1 -->
<svg width="1360pt" height="193pt"
 viewBox="0.00 0.00 1360.25 193.00" xmlns="http://www.w3.org/2000/svg" xmlns:xlink="http://www.w3.org/1999/xlink">
<g id="graph0" class="graph" transform="scale(1 1) rotate(0) translate(4 189)">
<title>TMnemonic.h</title>
<!-- Node1 -->
<g id="Node000001" class="node">
<title>Node1</title>
<g id="a_Node000001"><a xlink:title=" ">
<polygon fill="#999999" stroke="#666666" points="785.75,-185 711.25,-185 711.25,-165.75 785.75,-165.75 785.75,-185"/>
<text text-anchor="middle" x="748.5" y="-171.5" font-family="Helvetica,sans-Serif" font-size="10.00">TMnemonic.h</text>
</a>
</g>
</g>
<!-- Node2 -->
<g id="Node000002" class="node">
<title>Node2</title>
<g id="a_Node000002"><a xlink:title=" ">
<polygon fill="#e0e0e0" stroke="#999999" points="192.5,-19.25 152.5,-19.25 152.5,0 192.5,0 192.5,-19.25"/>
<text text-anchor="middle" x="172.5" y="-5.75" font-family="Helvetica,sans-Serif" font-size="10.00">string</text>
</a>
</g>
</g>
<!-- Node1&#45;&gt;Node2 -->
<g id="edge1_Node000001_Node000002" class="edge">
<title>Node1&#45;&gt;Node2</title>
<g id="a_edge1_Node000001_Node000002"><a xlink:title=" ">
<path fill="none" stroke="#63b8ff" d="M710.77,-173.17C596.58,-168.72 258,-149.33 183.5,-74.5 172.32,-63.27 170.11,-45.05 170.39,-30.94"/>
<polygon fill="#63b8ff" stroke="#63b8ff" points="173.88,-31.18 171.05,-20.97 166.89,-30.71 173.88,-31.18"/>
</a>
</g>
</g>
<!-- Node3 -->
<g id="Node000003" class="node">
<title>Node3</title>
<g id="a_Node000003"><a xlink:title=" ">
<polygon fill="#e0e0e0" stroke="#999999" points="1352.25,-19.25 1298.75,-19.25 1298.75,0 1352.25,0 1352.25,-19.25"/>
<text text-anchor="middle" x="1325.5" y="-5.75" font-family="Helvetica,sans-Serif" font-size="10.00">iostream</text>
</a>
</g>
</g>
<!-- Node1&#45;&gt;Node3 -->
<g id="edge2_Node000001_Node000003" class="edge">
<title>Node1&#45;&gt;Node3</title>
<g id="a_edge2_Node000001_Node000003"><a xlink:title=" ">
<path fill="none" stroke="#63b8ff" d="M780.34,-165.34C879.27,-137.26 1181.03,-51.62 1287.68,-21.36"/>
<polygon fill="#63b8ff" stroke="#63b8ff" points="1288.42,-24.79 1297.08,-18.69 1286.51,-18.05 1288.42,-24.79"/>
</a>
</g>
</g>
<!-- Node4 -->
<g id="Node000004" class="node">
<title>Node4</title>
<g id="a_Node000004"><a xlink:title=" ">
<polygon fill="#e0e0e0" stroke="#999999" points="1093.5,-129.75 1035.5,-129.75 1035.5,-110.5 1093.5,-110.5 1093.5,-129.75"/>
<text text-anchor="middle" x="1064.5" y="-116.25" font-family="Helvetica,sans-Serif" font-size="10.00">TObject.h</text>
</a>
</g>
</g>
<!-- Node1&#45;&gt;Node4 -->
<g id="edge3_Node000001_Node000004" class="edge">
<title>Node1&#45;&gt;Node4</title>
<g id="a_edge3_Node000001_Node000004"><a xlink:title=" ">
<path fill="none" stroke="#63b8ff" d="M786.11,-168.67C838.82,-160.56 937.63,-145.01 1021.5,-129.75 1022.48,-129.57 1023.48,-129.39 1024.48,-129.2"/>
<polygon fill="#63b8ff" stroke="#63b8ff" points="1024.73,-132.72 1033.9,-127.4 1023.42,-125.84 1024.73,-132.72"/>
</a>
</g>
</g>
<!-- Node5 -->
<g id="Node000005" class="node">
<title>Node5</title>
<g id="a_Node000005"><a xlink:title=" ">
<polygon fill="#e0e0e0" stroke="#999999" points="1165.62,-129.75 1111.38,-129.75 1111.38,-110.5 1165.62,-110.5 1165.62,-129.75"/>
<text text-anchor="middle" x="1138.5" y="-116.25" font-family="Helvetica,sans-Serif" font-size="10.00">TClass.h</text>
</a>
</g>
</g>
<!-- Node1&#45;&gt;Node5 -->
<g id="edge4_Node000001_Node000005" class="edge">
<title>Node1&#45;&gt;Node5</title>
<g id="a_edge4_Node000001_Node000005"><a xlink:title=" ">
<path fill="none" stroke="#63b8ff" d="M786.17,-171C849.12,-165.06 979.85,-151.46 1099.84,-130.06"/>
<polygon fill="#63b8ff" stroke="#63b8ff" points="1100.34,-133.52 1109.56,-128.3 1099.1,-126.64 1100.34,-133.52"/>
</a>
</g>
</g>
<!-- Node6 -->
<g id="Node000006" class="node">
<title>Node6</title>
<g id="a_Node000006"><a xlink:href="_globals_8h.html" target="_top" xlink:title=" ">
<polygon fill="white" stroke="#666666" points="941.75,-74.5 885.25,-74.5 885.25,-55.25 941.75,-55.25 941.75,-74.5"/>
<text text-anchor="middle" x="913.5" y="-61" font-family="Helvetica,sans-Serif" font-size="10.00">Globals.h</text>
</a>
</g>
</g>
<!-- Node1&#45;&gt;Node6 -->
<g id="edge5_Node000001_Node000006" class="edge">
<title>Node1&#45;&gt;Node6</title>
<g id="a_edge5_Node000001_Node000006"><a xlink:title=" ">
<path fill="none" stroke="#63b8ff" d="M762.28,-165.31C790.62,-146.68 855.68,-103.9 890.51,-81"/>
<polygon fill="#63b8ff" stroke="#63b8ff" points="892.17,-84.09 898.61,-75.67 888.33,-78.24 892.17,-84.09"/>
</a>
</g>
</g>
<!-- Node21 -->
<g id="Node000021" class="node">
<title>Node21</title>
<g id="a_Node000021"><a xlink:href="_t_priority_value_8h.html" target="_top" xlink:title=" ">
<polygon fill="white" stroke="#666666" points="117.62,-74.5 33.38,-74.5 33.38,-55.25 117.62,-55.25 117.62,-74.5"/>
<text text-anchor="middle" x="75.5" y="-61" font-family="Helvetica,sans-Serif" font-size="10.00">TPriorityValue.h</text>
</a>
</g>
</g>
<!-- Node1&#45;&gt;Node21 -->
<g id="edge22_Node000001_Node000021" class="edge">
<title>Node1&#45;&gt;Node21</title>
<g id="a_edge22_Node000001_Node000021"><a xlink:title=" ">
<path fill="none" stroke="#63b8ff" d="M710.95,-173.31C585.11,-169.53 183.3,-155.52 131.5,-129.75 111.74,-119.92 95.94,-99.75 86.23,-84.69"/>
<polygon fill="#63b8ff" stroke="#63b8ff" points="89.22,-82.88 81.05,-76.14 83.24,-86.51 89.22,-82.88"/>
</a>
</g>
</g>
<!-- Node24 -->
<g id="Node000024" class="node">
<title>Node24</title>
<g id="a_Node000024"><a xlink:href="_t_channel_8h.html" target="_top" xlink:title=" ">
<polygon fill="white" stroke="#666666" points="616.88,-129.75 552.12,-129.75 552.12,-110.5 616.88,-110.5 616.88,-129.75"/>
<text text-anchor="middle" x="584.5" y="-116.25" font-family="Helvetica,sans-Serif" font-size="10.00">TChannel.h</text>
</a>
</g>
</g>
<!-- Node1&#45;&gt;Node24 -->
<g id="edge26_Node000001_Node000024" class="edge">
<title>Node1&#45;&gt;Node24</title>
<g id="a_edge26_Node000001_Node000024"><a xlink:title=" ">
<path fill="none" stroke="#63b8ff" d="M715.46,-165.34C687.04,-156.7 646.41,-143.57 617.89,-133.87"/>
<polygon fill="#63b8ff" stroke="#63b8ff" points="619.26,-130.64 608.66,-130.69 616.98,-137.26 619.26,-130.64"/>
</a>
</g>
</g>
<!-- Node6&#45;&gt;Node2 -->
<g id="edge10_Node000006_Node000002" class="edge">
<title>Node6&#45;&gt;Node2</title>
<g id="a_edge10_Node000006_Node000002"><a xlink:title=" ">
<path fill="none" stroke="#63b8ff" d="M884.91,-56.72C882.08,-56.16 879.24,-55.65 876.5,-55.25 809.45,-45.38 331.99,-19.21 204,-12.31"/>
<polygon fill="#63b8ff" stroke="#63b8ff" points="204.41,-8.83 194.24,-11.79 204.04,-15.82 204.41,-8.83"/>
</a>
</g>
</g>
<!-- Node6&#45;&gt;Node3 -->
<g id="edge7_Node000006_Node000003" class="edge">
<title>Node6&#45;&gt;Node3</title>
<g id="a_edge7_Node000006_Node000003"><a xlink:title=" ">
<path fill="none" stroke="#63b8ff" d="M941.9,-57.66C946.44,-56.78 951.09,-55.94 955.5,-55.25 1099.41,-32.77 1140.39,-44.11 1287.22,-19.42"/>
<polygon fill="#63b8ff" stroke="#63b8ff" points="1287.69,-22.89 1296.96,-17.75 1286.51,-15.99 1287.69,-22.89"/>
</a>
</g>
</g>
<!-- Node7 -->
<g id="Node000007" class="node">
<title>Node7</title>
<g id="a_Node000007"><a xlink:title=" ">
<polygon fill="#e0e0e0" stroke="#999999" points="936.12,-19.25 890.88,-19.25 890.88,0 936.12,0 936.12,-19.25"/>
<text text-anchor="middle" x="913.5" y="-5.75" font-family="Helvetica,sans-Serif" font-size="10.00">cstdint</text>
</a>
</g>
</g>
<!-- Node6&#45;&gt;Node7 -->
<g id="edge6_Node000006_Node000007" class="edge">
<title>Node6&#45;&gt;Node7</title>
<g id="a_edge6_Node000006_Node000007"><a xlink:title=" ">
<path fill="none" stroke="#63b8ff" d="M913.5,-55.08C913.5,-48.57 913.5,-39.42 913.5,-31.12"/>
<polygon fill="#63b8ff" stroke="#63b8ff" points="917,-31.12 913.5,-21.12 910,-31.12 917,-31.12"/>
</a>
</g>
</g>
<!-- Node8 -->
<g id="Node000008" class="node">
<title>Node8</title>
<g id="a_Node000008"><a xlink:title=" ">
<polygon fill="#e0e0e0" stroke="#999999" points="1004.38,-19.25 954.62,-19.25 954.62,0 1004.38,0 1004.38,-19.25"/>
<text text-anchor="middle" x="979.5" y="-5.75" font-family="Helvetica,sans-Serif" font-size="10.00">iomanip</text>
</a>
</g>
</g>
<!-- Node6&#45;&gt;Node8 -->
<g id="edge8_Node000006_Node000008" class="edge">
<title>Node6&#45;&gt;Node8</title>
<g id="a_edge8_Node000006_Node000008"><a xlink:title=" ">
<path fill="none" stroke="#63b8ff" d="M924.7,-54.84C934.24,-47.15 948.17,-35.9 959.61,-26.68"/>
<polygon fill="#63b8ff" stroke="#63b8ff" points="961.71,-29.48 967.29,-20.48 957.31,-24.03 961.71,-29.48"/>
</a>
</g>
</g>
<!-- Node9 -->
<g id="Node000009" class="node">
<title>Node9</title>
<g id="a_Node000009"><a xlink:title=" ">
<polygon fill="#e0e0e0" stroke="#999999" points="1080.5,-19.25 1022.5,-19.25 1022.5,0 1080.5,0 1080.5,-19.25"/>
<text text-anchor="middle" x="1051.5" y="-5.75" font-family="Helvetica,sans-Serif" font-size="10.00">stdexcept</text>
</a>
</g>
</g>
<!-- Node6&#45;&gt;Node9 -->
<g id="edge9_Node000006_Node000009" class="edge">
<title>Node6&#45;&gt;Node9</title>
<g id="a_edge9_Node000006_Node000009"><a xlink:title=" ">
<path fill="none" stroke="#63b8ff" d="M936.91,-54.84C959.02,-46.31 992.42,-33.42 1017.47,-23.76"/>
<polygon fill="#63b8ff" stroke="#63b8ff" points="1018.49,-27.11 1026.56,-20.25 1015.97,-20.58 1018.49,-27.11"/>
</a>
</g>
</g>
<!-- Node10 -->
<g id="Node000010" class="node">
<title>Node10</title>
<g id="a_Node000010"><a xlink:title=" ">
<polygon fill="#e0e0e0" stroke="#999999" points="1140.62,-19.25 1098.38,-19.25 1098.38,0 1140.62,0 1140.62,-19.25"/>
<text text-anchor="middle" x="1119.5" y="-5.75" font-family="Helvetica,sans-Serif" font-size="10.00">cstdio</text>
</a>
</g>
</g>
<!-- Node6&#45;&gt;Node10 -->
<g id="edge11_Node000006_Node000010" class="edge">
<title>Node6&#45;&gt;Node10</title>
<g id="a_edge11_Node000006_Node000010"><a xlink:title=" ">
<path fill="none" stroke="#63b8ff" d="M942.23,-56.89C975.02,-48.85 1030.52,-35.04 1086.97,-19.87"/>
<polygon fill="#63b8ff" stroke="#63b8ff" points="1087.69,-23.31 1096.43,-17.32 1085.86,-16.55 1087.69,-23.31"/>
</a>
</g>
</g>
<!-- Node11 -->
<g id="Node000011" class="node">
<title>Node11</title>
<g id="a_Node000011"><a xlink:title=" ">
<polygon fill="#e0e0e0" stroke="#999999" points="1202.75,-19.25 1158.25,-19.25 1158.25,0 1202.75,0 1202.75,-19.25"/>
<text text-anchor="middle" x="1180.5" y="-5.75" font-family="Helvetica,sans-Serif" font-size="10.00">cstdlib</text>
</a>
</g>
</g>
<!-- Node6&#45;&gt;Node11 -->
<g id="edge12_Node000006_Node000011" class="edge">
<title>Node6&#45;&gt;Node11</title>
<g id="a_edge12_Node000006_Node000011"><a xlink:title=" ">
<path fill="none" stroke="#63b8ff" d="M941.95,-57.96C946.48,-57.04 951.12,-56.11 955.5,-55.25 1038.04,-39.12 1062.11,-39 1146.68,-19.75"/>
<polygon fill="#63b8ff" stroke="#63b8ff" points="1147.44,-23.16 1156.4,-17.51 1145.87,-16.34 1147.44,-23.16"/>
</a>
</g>
</g>
<!-- Node12 -->
<g id="Node000012" class="node">
<title>Node12</title>
<g id="a_Node000012"><a xlink:title=" ">
<polygon fill="#e0e0e0" stroke="#999999" points="1280.25,-19.25 1220.75,-19.25 1220.75,0 1280.25,0 1280.25,-19.25"/>
<text text-anchor="middle" x="1250.5" y="-5.75" font-family="Helvetica,sans-Serif" font-size="10.00">execinfo.h</text>
</a>
</g>
</g>
<!-- Node6&#45;&gt;Node12 -->
<g id="edge13_Node000006_Node000012" class="edge">
<title>Node6&#45;&gt;Node12</title>
<g id="a_edge13_Node000006_Node000012"><a xlink:title=" ">
<path fill="none" stroke="#63b8ff" d="M941.92,-57.79C946.45,-56.89 951.1,-56.01 955.5,-55.25 1065.18,-36.3 1096.49,-39.44 1209.15,-19.54"/>
<polygon fill="#63b8ff" stroke="#63b8ff" points="1209.6,-23.02 1218.82,-17.81 1208.36,-16.13 1209.6,-23.02"/>
</a>
</g>
</g>
<!-- Node13 -->
<g id="Node000013" class="node">
<title>Node13</title>
<g id="a_Node000013"><a xlink:title=" ">
<polygon fill="#e0e0e0" stroke="#999999" points="391.75,-19.25 341.25,-19.25 341.25,0 391.75,0 391.75,-19.25"/>
<text text-anchor="middle" x="366.5" y="-5.75" font-family="Helvetica,sans-Serif" font-size="10.00">cxxabi.h</text>
</a>
</g>
</g>
<!-- Node6&#45;&gt;Node13 -->
<g id="edge14_Node000006_Node000013" class="edge">
<title>Node6&#45;&gt;Node13</title>
<g id="a_edge14_Node000006_Node000013"><a xlink:title=" ">
<path fill="none" stroke="#63b8ff" d="M884.9,-56.75C882.07,-56.18 879.24,-55.67 876.5,-55.25 670.48,-23.64 611.93,-52.41 403.36,-19.43"/>
<polygon fill="#63b8ff" stroke="#63b8ff" points="403.94,-15.98 393.51,-17.84 402.83,-22.89 403.94,-15.98"/>
</a>
</g>
</g>
<!-- Node14 -->
<g id="Node000014" class="node">
<title>Node14</title>
<g id="a_Node000014"><a xlink:title=" ">
<polygon fill="#e0e0e0" stroke="#999999" points="461.12,-19.25 409.88,-19.25 409.88,0 461.12,0 461.12,-19.25"/>
<text text-anchor="middle" x="435.5" y="-5.75" font-family="Helvetica,sans-Serif" font-size="10.00">sstream</text>
</a>
</g>
</g>
<!-- Node6&#45;&gt;Node14 -->
<g id="edge15_Node000006_Node000014" class="edge">
<title>Node6&#45;&gt;Node14</title>
<g id="a_edge15_Node000006_Node000014"><a xlink:title=" ">
<path fill="none" stroke="#63b8ff" d="M884.9,-56.79C882.07,-56.21 879.24,-55.69 876.5,-55.25 700.86,-27.15 650.58,-48.75 472.74,-19.55"/>
<polygon fill="#63b8ff" stroke="#63b8ff" points="473.33,-16.1 462.89,-17.9 472.17,-23.01 473.33,-16.1"/>
</a>
</g>
</g>
<!-- Node15 -->
<g id="Node000015" class="node">
<title>Node15</title>
<g id="a_Node000015"><a xlink:title=" ">
<polygon fill="#e0e0e0" stroke="#999999" points="516,-19.25 479,-19.25 479,0 516,0 516,-19.25"/>
<text text-anchor="middle" x="497.5" y="-5.75" font-family="Helvetica,sans-Serif" font-size="10.00">array</text>
</a>
</g>
</g>
<!-- Node6&#45;&gt;Node15 -->
<g id="edge16_Node000006_Node000015" class="edge">
<title>Node6&#45;&gt;Node15</title>
<g id="a_edge16_Node000006_Node000015"><a xlink:title=" ">
<path fill="none" stroke="#63b8ff" d="M884.89,-56.83C882.06,-56.25 879.23,-55.71 876.5,-55.25 725.45,-30 681.24,-49.52 527.6,-19.25"/>
<polygon fill="#63b8ff" stroke="#63b8ff" points="528.33,-15.82 517.83,-17.28 526.94,-22.69 528.33,-15.82"/>
</a>
</g>
</g>
<!-- Node16 -->
<g id="Node000016" class="node">
<title>Node16</title>
<g id="a_Node000016"><a xlink:title=" ">
<polygon fill="#e0e0e0" stroke="#999999" points="584.75,-19.25 534.25,-19.25 534.25,0 584.75,0 584.75,-19.25"/>
<text text-anchor="middle" x="559.5" y="-5.75" font-family="Helvetica,sans-Serif" font-size="10.00">memory</text>
</a>
</g>
</g>
<!-- Node6&#45;&gt;Node16 -->
<g id="edge17_Node000006_Node000016" class="edge">
<title>Node6&#45;&gt;Node16</title>
<g id="a_edge17_Node000006_Node000016"><a xlink:title=" ">
<path fill="none" stroke="#63b8ff" d="M884.88,-56.9C882.05,-56.3 879.23,-55.74 876.5,-55.25 755.24,-33.46 720.05,-42.34 596.11,-19.54"/>
<polygon fill="#63b8ff" stroke="#63b8ff" points="597.01,-16.14 586.53,-17.74 595.72,-23.02 597.01,-16.14"/>
</a>
</g>
</g>
<!-- Node17 -->
<g id="Node000017" class="node">
<title>Node17</title>
<g id="a_Node000017"><a xlink:title=" ">
<polygon fill="#e0e0e0" stroke="#999999" points="652.38,-19.25 602.62,-19.25 602.62,0 652.38,0 652.38,-19.25"/>
<text text-anchor="middle" x="627.5" y="-5.75" font-family="Helvetica,sans-Serif" font-size="10.00">unistd.h</text>
</a>
</g>
</g>
<!-- Node6&#45;&gt;Node17 -->
<g id="edge18_Node000006_Node000017" class="edge">
<title>Node6&#45;&gt;Node17</title>
<g id="a_edge18_Node000006_Node000017"><a xlink:title=" ">
<path fill="none" stroke="#63b8ff" d="M884.86,-57.01C882.04,-56.39 879.22,-55.79 876.5,-55.25 785.02,-36.95 758.28,-38.99 663.92,-19.6"/>
<polygon fill="#63b8ff" stroke="#63b8ff" points="664.68,-16.19 654.18,-17.57 663.25,-23.04 664.68,-16.19"/>
</a>
</g>
</g>
<!-- Node18 -->
<g id="Node000018" class="node">
<title>Node18</title>
<g id="a_Node000018"><a xlink:title=" ">
<polygon fill="#e0e0e0" stroke="#999999" points="716.5,-19.25 670.5,-19.25 670.5,0 716.5,0 716.5,-19.25"/>
<text text-anchor="middle" x="693.5" y="-5.75" font-family="Helvetica,sans-Serif" font-size="10.00">TEnv.h</text>
</a>
</g>
</g>
<!-- Node6&#45;&gt;Node18 -->
<g id="edge19_Node000006_Node000018" class="edge">
<title>Node6&#45;&gt;Node18</title>
<g id="a_edge19_Node000006_Node000018"><a xlink:title=" ">
<path fill="none" stroke="#63b8ff" d="M885.08,-57.24C844.21,-47.68 769.86,-30.22 727.84,-19.77"/>
<polygon fill="#63b8ff" stroke="#63b8ff" points="728.92,-16.43 718.37,-17.39 727.21,-23.22 728.92,-16.43"/>
</a>
</g>
</g>
<!-- Node19 -->
<g id="Node000019" class="node">
<title>Node19</title>
<g id="a_Node000019"><a xlink:title=" ">
<polygon fill="#e0e0e0" stroke="#999999" points="794.25,-19.25 734.75,-19.25 734.75,0 794.25,0 794.25,-19.25"/>
<text text-anchor="middle" x="764.5" y="-5.75" font-family="Helvetica,sans-Serif" font-size="10.00">sys/wait.h</text>
</a>
</g>
</g>
<!-- Node6&#45;&gt;Node19 -->
<g id="edge20_Node000006_Node000019" class="edge">
<title>Node6&#45;&gt;Node19</title>
<g id="a_edge20_Node000006_Node000019"><a xlink:title=" ">
<path fill="none" stroke="#63b8ff" d="M888.22,-54.84C864.14,-46.24 827.64,-33.19 800.52,-23.5"/>
<polygon fill="#63b8ff" stroke="#63b8ff" points="801.92,-20.28 791.33,-20.21 799.56,-26.87 801.92,-20.28"/>
</a>
</g>
</g>
<!-- Node20 -->
<g id="Node000020" class="node">
<title>Node20</title>
<g id="a_Node000020"><a xlink:title=" ">
<polygon fill="#e0e0e0" stroke="#999999" points="872.62,-19.25 812.38,-19.25 812.38,0 872.62,0 872.62,-19.25"/>
<text text-anchor="middle" x="842.5" y="-5.75" font-family="Helvetica,sans-Serif" font-size="10.00">sys/prctl.h</text>
</a>
</g>
</g>
<!-- Node6&#45;&gt;Node20 -->
<g id="edge21_Node000006_Node000020" class="edge">
<title>Node6&#45;&gt;Node20</title>
<g id="a_edge21_Node000006_Node000020"><a xlink:title=" ">
<path fill="none" stroke="#63b8ff" d="M901.46,-54.84C891.09,-47.07 875.9,-35.67 863.53,-26.4"/>
<polygon fill="#63b8ff" stroke="#63b8ff" points="865.68,-23.63 855.58,-20.43 861.48,-29.23 865.68,-23.63"/>
</a>
</g>
</g>
<!-- Node21&#45;&gt;Node2 -->
<g id="edge24_Node000021_Node000002" class="edge">
<title>Node21&#45;&gt;Node2</title>
<g id="a_edge24_Node000021_Node000002"><a xlink:title=" ">
<path fill="none" stroke="#63b8ff" d="M91.95,-54.84C106.73,-46.73 128.68,-34.68 145.93,-25.21"/>
<polygon fill="#63b8ff" stroke="#63b8ff" points="147.56,-28.31 154.64,-20.43 144.19,-22.18 147.56,-28.31"/>
</a>
</g>
</g>
<!-- Node22 -->
<g id="Node000022" class="node">
<title>Node22</title>
<g id="a_Node000022"><a xlink:title=" ">
<polygon fill="#e0e0e0" stroke="#999999" points="112.12,-19.25 60.88,-19.25 60.88,0 112.12,0 112.12,-19.25"/>
<text text-anchor="middle" x="86.5" y="-5.75" font-family="Helvetica,sans-Serif" font-size="10.00">ostream</text>
</a>
</g>
</g>
<!-- Node21&#45;&gt;Node22 -->
<g id="edge23_Node000021_Node000022" class="edge">
<title>Node21&#45;&gt;Node22</title>
<g id="a_edge23_Node000021_Node000022"><a xlink:title=" ">
<path fill="none" stroke="#63b8ff" d="M77.32,-55.08C78.68,-48.49 80.6,-39.21 82.33,-30.82"/>
<polygon fill="#63b8ff" stroke="#63b8ff" points="85.74,-31.59 84.34,-21.09 78.89,-30.18 85.74,-31.59"/>
</a>
</g>
</g>
<!-- Node23 -->
<g id="Node000023" class="node">
<title>Node23</title>
<g id="a_Node000023"><a xlink:title=" ">
<polygon fill="#e0e0e0" stroke="#999999" points="43,-19.25 0,-19.25 0,0 43,0 43,-19.25"/>
<text text-anchor="middle" x="21.5" y="-5.75" font-family="Helvetica,sans-Serif" font-size="10.00">vector</text>
</a>
</g>
</g>
<!-- Node21&#45;&gt;Node23 -->
<g id="edge25_Node000021_Node000023" class="edge">
<title>Node21&#45;&gt;Node23</title>
<g id="a_edge25_Node000021_Node000023"><a xlink:title=" ">
<path fill="none" stroke="#63b8ff" d="M66.58,-55.08C59.05,-47.65 48.03,-36.79 38.77,-27.66"/>
<polygon fill="#63b8ff" stroke="#63b8ff" points="41.27,-25.2 31.69,-20.67 36.35,-30.19 41.27,-25.2"/>
</a>
</g>
</g>
<!-- Node24&#45;&gt;Node1 -->
<g id="edge37_Node000024_Node000001" class="edge">
<title>Node24&#45;&gt;Node1</title>
<g id="a_edge37_Node000024_Node000001"><a xlink:title=" ">
<path fill="none" stroke="#63b8ff" d="M617.1,-130.02C645.57,-138.67 686.52,-151.9 715.19,-161.66"/>
<polygon fill="#63b8ff" stroke="#63b8ff" points="713.87,-164.91 724.47,-164.85 716.15,-158.29 713.87,-164.91"/>
</a>
</g>
</g>
<!-- Node24&#45;&gt;Node2 -->
<g id="edge28_Node000024_Node000002" class="edge">
<title>Node24&#45;&gt;Node2</title>
<g id="a_edge28_Node000024_Node000002"><a xlink:title=" ">
<path fill="none" stroke="#63b8ff" d="M551.67,-119.28C469.59,-119.05 258.04,-114.49 202.5,-74.5 188.05,-64.1 180.34,-44.92 176.37,-30.29"/>
<polygon fill="#63b8ff" stroke="#63b8ff" points="179.85,-29.79 174.19,-20.83 173.03,-31.36 179.85,-29.79"/>
</a>
</g>
</g>
<!-- Node24&#45;&gt;Node3 -->
<g id="edge27_Node000024_Node000003" class="edge">
<title>Node24&#45;&gt;Node3</title>
<g id="a_edge27_Node000024_Node000003"><a xlink:title=" ">
<path fill="none" stroke="#63b8ff" d="M616.95,-118.41C681.59,-116.28 830.54,-107.84 950.5,-74.5 970.67,-68.89 973.33,-60.85 993.5,-55.25 1117.7,-20.75 1156.93,-41.52 1287.23,-19.42"/>
<polygon fill="#63b8ff" stroke="#63b8ff" points="1287.71,-22.89 1296.95,-17.72 1286.5,-16 1287.71,-22.89"/>
</a>
</g>
</g>
<!-- Node24&#45;&gt;Node6 -->
<g id="edge39_Node000024_Node000006" class="edge">
<title>Node24&#45;&gt;Node6</title>
<g id="a_edge39_Node000024_Node000006"><a xlink:title=" ">
<path fill="none" stroke="#63b8ff" d="M617.05,-114.99C669.18,-108.18 774.84,-93.65 873.77,-74.91"/>
<polygon fill="#63b8ff" stroke="#63b8ff" points="874.21,-78.38 883.38,-73.07 872.9,-71.51 874.21,-78.38"/>
</a>
</g>
</g>
<!-- Node24&#45;&gt;Node21 -->
<g id="edge40_Node000024_Node000021" class="edge">
<title>Node24&#45;&gt;Node21</title>
<g id="a_edge40_Node000024_Node000021"><a xlink:title=" ">
<path fill="none" stroke="#63b8ff" d="M551.89,-115.71C466.34,-106.76 234.84,-82.54 129.27,-71.5"/>
<polygon fill="#63b8ff" stroke="#63b8ff" points="129.76,-68.03 119.45,-70.47 129.03,-74.99 129.76,-68.03"/>
</a>
</g>
</g>
<!-- Node25 -->
<g id="Node000025" class="node">
<title>Node25</title>
<g id="a_Node000025"><a xlink:title=" ">
<polygon fill="#e0e0e0" stroke="#999999" points="547,-74.5 504,-74.5 504,-55.25 547,-55.25 547,-74.5"/>
<text text-anchor="middle" x="525.5" y="-61" font-family="Helvetica,sans-Serif" font-size="10.00">cmath</text>
</a>
</g>
</g>
<!-- Node24&#45;&gt;Node25 -->
<g id="edge29_Node000024_Node000025" class="edge">
<title>Node24&#45;&gt;Node25</title>
<g id="a_edge29_Node000024_Node000025"><a xlink:title=" ">
<path fill="none" stroke="#63b8ff" d="M574.49,-110.09C566.13,-102.55 554,-91.6 543.9,-82.48"/>
<polygon fill="#63b8ff" stroke="#63b8ff" points="546.25,-79.89 536.48,-75.79 541.56,-85.09 546.25,-79.89"/>
</a>
</g>
</g>
<!-- Node26 -->
<g id="Node000026" class="node">
<title>Node26</title>
<g id="a_Node000026"><a xlink:title=" ">
<polygon fill="#e0e0e0" stroke="#999999" points="603.75,-74.5 565.25,-74.5 565.25,-55.25 603.75,-55.25 603.75,-74.5"/>
<text text-anchor="middle" x="584.5" y="-61" font-family="Helvetica,sans-Serif" font-size="10.00">utility</text>
</a>
</g>
</g>
<!-- Node24&#45;&gt;Node26 -->
<g id="edge30_Node000024_Node000026" class="edge">
<title>Node24&#45;&gt;Node26</title>
<g id="a_edge30_Node000024_Node000026"><a xlink:title=" ">
<path fill="none" stroke="#63b8ff" d="M584.5,-110.33C584.5,-103.82 584.5,-94.67 584.5,-86.37"/>
<polygon fill="#63b8ff" stroke="#63b8ff" points="588,-86.37 584.5,-76.37 581,-86.37 588,-86.37"/>
</a>
</g>
</g>
<!-- Node27 -->
<g id="Node000027" class="node">
<title>Node27</title>
<g id="a_Node000027"><a xlink:title=" ">
<polygon fill="#e0e0e0" stroke="#999999" points="704.88,-74.5 622.12,-74.5 622.12,-55.25 704.88,-55.25 704.88,-74.5"/>
<text text-anchor="middle" x="663.5" y="-61" font-family="Helvetica,sans-Serif" font-size="10.00">unordered_map</text>
</a>
</g>
</g>
<!-- Node24&#45;&gt;Node27 -->
<g id="edge31_Node000024_Node000027" class="edge">
<title>Node24&#45;&gt;Node27</title>
<g id="a_edge31_Node000024_Node000027"><a xlink:title=" ">
<path fill="none" stroke="#63b8ff" d="M597.9,-110.09C609.59,-102.21 626.8,-90.61 640.66,-81.27"/>
<polygon fill="#63b8ff" stroke="#63b8ff" points="642.44,-84.29 648.78,-75.8 638.53,-78.49 642.44,-84.29"/>
</a>
</g>
</g>
<!-- Node28 -->
<g id="Node000028" class="node">
<title>Node28</title>
<g id="a_Node000028"><a xlink:title=" ">
<polygon fill="#e0e0e0" stroke="#999999" points="784,-74.5 723,-74.5 723,-55.25 784,-55.25 784,-74.5"/>
<text text-anchor="middle" x="753.5" y="-61" font-family="Helvetica,sans-Serif" font-size="10.00">TNamed.h</text>
</a>
</g>
</g>
<!-- Node24&#45;&gt;Node28 -->
<g id="edge32_Node000024_Node000028" class="edge">
<title>Node24&#45;&gt;Node28</title>
<g id="a_edge32_Node000024_Node000028"><a xlink:title=" ">
<path fill="none" stroke="#63b8ff" d="M613.17,-110.09C640.85,-101.37 682.99,-88.09 713.87,-78.36"/>
<polygon fill="#63b8ff" stroke="#63b8ff" points="714.76,-81.75 723.25,-75.41 712.66,-75.07 714.76,-81.75"/>
</a>
</g>
</g>
<!-- Node29 -->
<g id="Node000029" class="node">
<title>Node29</title>
<g id="a_Node000029"><a xlink:title=" ">
<polygon fill="#e0e0e0" stroke="#999999" points="867.25,-74.5 801.75,-74.5 801.75,-55.25 867.25,-55.25 867.25,-74.5"/>
<text text-anchor="middle" x="834.5" y="-61" font-family="Helvetica,sans-Serif" font-size="10.00">TRandom.h</text>
</a>
</g>
</g>
<!-- Node24&#45;&gt;Node29 -->
<g id="edge33_Node000024_Node000029" class="edge">
<title>Node24&#45;&gt;Node29</title>
<g id="a_edge33_Node000024_Node000029"><a xlink:title=" ">
<path fill="none" stroke="#63b8ff" d="M617.18,-112.16C661.51,-102.72 740.83,-85.83 790.4,-75.27"/>
<polygon fill="#63b8ff" stroke="#63b8ff" points="790.88,-78.74 799.93,-73.24 789.42,-71.9 790.88,-78.74"/>
</a>
</g>
</g>
<!-- Node30 -->
<g id="Node000030" class="node">
<title>Node30</title>
<g id="a_Node000030"><a xlink:title=" ">
<polygon fill="#e0e0e0" stroke="#999999" points="257.5,-74.5 211.5,-74.5 211.5,-55.25 257.5,-55.25 257.5,-74.5"/>
<text text-anchor="middle" x="234.5" y="-61" font-family="Helvetica,sans-Serif" font-size="10.00">TList.h</text>
</a>
</g>
</g>
<!-- Node24&#45;&gt;Node30 -->
<g id="edge34_Node000024_Node000030" class="edge">
<title>Node24&#45;&gt;Node30</title>
<g id="a_edge34_Node000024_Node000030"><a xlink:title=" ">
<path fill="none" stroke="#63b8ff" d="M551.77,-115.89C495.79,-110.05 377.91,-96.51 269.02,-74.79"/>
<polygon fill="#63b8ff" stroke="#63b8ff" points="269.82,-71.38 259.32,-72.82 268.43,-78.24 269.82,-71.38"/>
</a>
</g>
</g>
<!-- Node31 -->
<g id="Node000031" class="node">
<title>Node31</title>
<g id="a_Node000031"><a xlink:title=" ">
<polygon fill="#e0e0e0" stroke="#999999" points="325,-74.5 276,-74.5 276,-55.25 325,-55.25 325,-74.5"/>
<text text-anchor="middle" x="300.5" y="-61" font-family="Helvetica,sans-Serif" font-size="10.00">TTree.h</text>
</a>
</g>
</g>
<!-- Node24&#45;&gt;Node31 -->
<g id="edge35_Node000024_Node000031" class="edge">
<title>Node24&#45;&gt;Node31</title>
<g id="a_edge35_Node000024_Node000031"><a xlink:title=" ">
<path fill="none" stroke="#63b8ff" d="M551.85,-114.17C505.86,-107.01 419.18,-92.85 336.43,-75.01"/>
<polygon fill="#63b8ff" stroke="#63b8ff" points="337.31,-71.62 326.79,-72.91 335.82,-78.46 337.31,-71.62"/>
</a>
</g>
</g>
<!-- Node32 -->
<g id="Node000032" class="node">
<title>Node32</title>
<g id="a_Node000032"><a xlink:title=" ">
<polygon fill="#e0e0e0" stroke="#999999" points="398.38,-74.5 342.62,-74.5 342.62,-55.25 398.38,-55.25 398.38,-74.5"/>
<text text-anchor="middle" x="370.5" y="-61" font-family="Helvetica,sans-Serif" font-size="10.00">TGraph.h</text>
</a>
</g>
</g>
<!-- Node24&#45;&gt;Node32 -->
<g id="edge36_Node000024_Node000032" class="edge">
<title>Node24&#45;&gt;Node32</title>
<g id="a_edge36_Node000024_Node000032"><a xlink:title=" ">
<path fill="none" stroke="#63b8ff" d="M552,-111.04C513.92,-101.56 450.87,-85.87 410.01,-75.71"/>
<polygon fill="#63b8ff" stroke="#63b8ff" points="410.87,-72.31 400.32,-73.3 409.18,-79.11 410.87,-72.31"/>
</a>
</g>
</g>
<!-- Node33 -->
<g id="Node000033" class="node">
<title>Node33</title>
<g id="a_Node000033"><a xlink:title=" ">
<polygon fill="#e0e0e0" stroke="#999999" points="486.12,-74.5 416.88,-74.5 416.88,-55.25 486.12,-55.25 486.12,-74.5"/>
<text text-anchor="middle" x="451.5" y="-61" font-family="Helvetica,sans-Serif" font-size="10.00">TClassRef.h</text>
</a>
</g>
</g>
<!-- Node24&#45;&gt;Node33 -->
<g id="edge38_Node000024_Node000033" class="edge">
<title>Node24&#45;&gt;Node33</title>
<g id="a_edge38_Node000024_Node000033"><a xlink:title=" ">
<path fill="none" stroke="#63b8ff" d="M561.94,-110.09C540.73,-101.6 508.73,-88.79 484.62,-79.14"/>
<polygon fill="#63b8ff" stroke="#63b8ff" points="486.16,-75.98 475.58,-75.52 483.56,-82.48 486.16,-75.98"/>
</a>
</g>
</g>
</g>
</svg>
