<?xml version="1.0" encoding="UTF-8" standalone="no"?>
<!DOCTYPE svg PUBLIC "-//W3C//DTD SVG 1.1//EN"
 "http://www.w3.org/Graphics/SVG/1.1/DTD/svg11.dtd">
<!-- Generated by graphviz version 12.2.0 (20241103.1931)
 -->
<!-- Title: TMnemonic.h Pages: 1 -->
<svg width="1689pt" height="193pt"
 viewBox="0.00 0.00 1688.91 193.00" xmlns="http://www.w3.org/2000/svg" xmlns:xlink="http://www.w3.org/1999/xlink">
<g id="graph0" class="graph" transform="scale(1 1) rotate(0) translate(4 189)">
<title>TMnemonic.h</title>
<!-- Node1 -->
<g id="Node000001" class="node">
<title>Node1</title>
<g id="a_Node000001"><a xlink:title=" ">
<polygon fill="#999999" stroke="#666666" points="1131.54,-185 1057.04,-185 1057.04,-165.75 1131.54,-165.75 1131.54,-185"/>
<text text-anchor="middle" x="1094.29" y="-171.5" font-family="Helvetica,sans-Serif" font-size="10.00">TMnemonic.h</text>
</a>
</g>
</g>
<!-- Node2 -->
<g id="Node000002" class="node">
<title>Node2</title>
<g id="a_Node000002"><a xlink:title=" ">
<polygon fill="#e0e0e0" stroke="#999999" points="581.29,-19.25 541.29,-19.25 541.29,0 581.29,0 581.29,-19.25"/>
<text text-anchor="middle" x="561.29" y="-5.75" font-family="Helvetica,sans-Serif" font-size="10.00">string</text>
</a>
</g>
</g>
<!-- Node1&#45;&gt;Node2 -->
<g id="edge1_Node000001_Node000002" class="edge">
<title>Node1&#45;&gt;Node2</title>
<g id="a_edge1_Node000001_Node000002"><a xlink:title=" ">
<path fill="none" stroke="#63b8ff" d="M1056.68,-173.96C872.76,-171.53 74.08,-156.32 4.29,-74.5 -1.26,-67.99 -1.51,-61.54 4.29,-55.25 40.08,-16.48 417.36,-11.38 529.83,-10.72"/>
<polygon fill="#63b8ff" stroke="#63b8ff" points="529.54,-14.22 539.52,-10.67 529.5,-7.22 529.54,-14.22"/>
</a>
</g>
</g>
<!-- Node3 -->
<g id="Node000003" class="node">
<title>Node3</title>
<g id="a_Node000003"><a xlink:title=" ">
<polygon fill="#e0e0e0" stroke="#999999" points="67.04,-74.5 13.54,-74.5 13.54,-55.25 67.04,-55.25 67.04,-74.5"/>
<text text-anchor="middle" x="40.29" y="-61" font-family="Helvetica,sans-Serif" font-size="10.00">iostream</text>
</a>
</g>
</g>
<!-- Node1&#45;&gt;Node3 -->
<g id="edge2_Node000001_Node000003" class="edge">
<title>Node1&#45;&gt;Node3</title>
<g id="a_edge2_Node000001_Node000003"><a xlink:title=" ">
<path fill="none" stroke="#63b8ff" d="M1056.58,-172.27C963.49,-166.92 715.41,-151.63 509.29,-129.75 348.65,-112.7 158.17,-84.17 78.4,-71.85"/>
<polygon fill="#63b8ff" stroke="#63b8ff" points="79.36,-68.45 68.94,-70.38 78.29,-75.37 79.36,-68.45"/>
</a>
</g>
</g>
<!-- Node4 -->
<g id="Node000004" class="node">
<title>Node4</title>
<g id="a_Node000004"><a xlink:title=" ">
<polygon fill="#e0e0e0" stroke="#999999" points="997.91,-74.5 946.66,-74.5 946.66,-55.25 997.91,-55.25 997.91,-74.5"/>
<text text-anchor="middle" x="972.29" y="-61" font-family="Helvetica,sans-Serif" font-size="10.00">sstream</text>
</a>
</g>
</g>
<!-- Node1&#45;&gt;Node4 -->
<g id="edge3_Node000001_Node000004" class="edge">
<title>Node1&#45;&gt;Node4</title>
<g id="a_edge3_Node000001_Node000004"><a xlink:title=" ">
<path fill="none" stroke="#63b8ff" d="M1084.31,-165.5C1063.84,-147.3 1016.87,-105.52 990.72,-82.26"/>
<polygon fill="#63b8ff" stroke="#63b8ff" points="993.34,-79.91 983.54,-75.88 988.69,-85.14 993.34,-79.91"/>
</a>
</g>
</g>
<!-- Node5 -->
<g id="Node000005" class="node">
<title>Node5</title>
<g id="a_Node000005"><a xlink:title=" ">
<polygon fill="#e0e0e0" stroke="#999999" points="1320.29,-129.75 1262.29,-129.75 1262.29,-110.5 1320.29,-110.5 1320.29,-129.75"/>
<text text-anchor="middle" x="1291.29" y="-116.25" font-family="Helvetica,sans-Serif" font-size="10.00">TObject.h</text>
</a>
</g>
</g>
<!-- Node1&#45;&gt;Node5 -->
<g id="edge4_Node000001_Node000005" class="edge">
<title>Node1&#45;&gt;Node5</title>
<g id="a_edge4_Node000001_Node000005"><a xlink:title=" ">
<path fill="none" stroke="#63b8ff" d="M1127.71,-165.34C1161.83,-156.12 1214.82,-141.8 1251.18,-131.97"/>
<polygon fill="#63b8ff" stroke="#63b8ff" points="1251.69,-135.45 1260.43,-129.47 1249.87,-128.7 1251.69,-135.45"/>
</a>
</g>
</g>
<!-- Node6 -->
<g id="Node000006" class="node">
<title>Node6</title>
<g id="a_Node000006"><a xlink:title=" ">
<polygon fill="#e0e0e0" stroke="#999999" points="1392.41,-129.75 1338.16,-129.75 1338.16,-110.5 1392.41,-110.5 1392.41,-129.75"/>
<text text-anchor="middle" x="1365.29" y="-116.25" font-family="Helvetica,sans-Serif" font-size="10.00">TClass.h</text>
</a>
</g>
</g>
<!-- Node1&#45;&gt;Node6 -->
<g id="edge5_Node000001_Node000006" class="edge">
<title>Node1&#45;&gt;Node6</title>
<g id="a_edge5_Node000001_Node000006"><a xlink:title=" ">
<path fill="none" stroke="#63b8ff" d="M1131.84,-167.81C1176.15,-159.94 1252.29,-146.03 1326.82,-130.2"/>
<polygon fill="#63b8ff" stroke="#63b8ff" points="1327.28,-133.68 1336.32,-128.17 1325.81,-126.84 1327.28,-133.68"/>
</a>
</g>
</g>
<!-- Node7 -->
<g id="Node000007" class="node">
<title>Node7</title>
<g id="a_Node000007"><a xlink:href="_globals_8h.html" target="_top" xlink:title=" ">
<polygon fill="white" stroke="#666666" points="574.54,-129.75 518.04,-129.75 518.04,-110.5 574.54,-110.5 574.54,-129.75"/>
<text text-anchor="middle" x="546.29" y="-116.25" font-family="Helvetica,sans-Serif" font-size="10.00">Globals.h</text>
</a>
</g>
</g>
<!-- Node1&#45;&gt;Node7 -->
<g id="edge6_Node000001_Node000007" class="edge">
<title>Node1&#45;&gt;Node7</title>
<g id="a_edge6_Node000001_Node000007"><a xlink:title=" ">
<path fill="none" stroke="#63b8ff" d="M1056.62,-170.71C957.19,-161.05 688.28,-134.92 586.27,-125.01"/>
<polygon fill="#63b8ff" stroke="#63b8ff" points="586.75,-121.54 576.46,-124.06 586.08,-128.51 586.75,-121.54"/>
</a>
</g>
</g>
<!-- Node20 -->
<g id="Node000020" class="node">
<title>Node20</title>
<g id="a_Node000020"><a xlink:href="_t_priority_value_8h.html" target="_top" xlink:title=" ">
<polygon fill="white" stroke="#666666" points="1665.41,-74.5 1581.16,-74.5 1581.16,-55.25 1665.41,-55.25 1665.41,-74.5"/>
<text text-anchor="middle" x="1623.29" y="-61" font-family="Helvetica,sans-Serif" font-size="10.00">TPriorityValue.h</text>
</a>
</g>
</g>
<!-- Node1&#45;&gt;Node20 -->
<g id="edge22_Node000001_Node000020" class="edge">
<title>Node1&#45;&gt;Node20</title>
<g id="a_edge22_Node000001_Node000020"><a xlink:title=" ">
<path fill="none" stroke="#63b8ff" d="M1121.56,-165.33C1146.32,-156.88 1183.68,-143.53 1215.29,-129.75 1232.64,-122.18 1235.15,-115.93 1253.29,-110.5 1386.51,-70.65 1428.86,-93.19 1569.54,-74.78"/>
<polygon fill="#63b8ff" stroke="#63b8ff" points="1569.8,-78.27 1579.24,-73.46 1568.86,-71.34 1569.8,-78.27"/>
</a>
</g>
</g>
<!-- Node23 -->
<g id="Node000023" class="node">
<title>Node23</title>
<g id="a_Node000023"><a xlink:href="_t_channel_8h.html" target="_top" xlink:title=" ">
<polygon fill="white" stroke="#666666" points="1206.66,-129.75 1141.91,-129.75 1141.91,-110.5 1206.66,-110.5 1206.66,-129.75"/>
<text text-anchor="middle" x="1174.29" y="-116.25" font-family="Helvetica,sans-Serif" font-size="10.00">TChannel.h</text>
</a>
</g>
</g>
<!-- Node1&#45;&gt;Node23 -->
<g id="edge26_Node000001_Node000023" class="edge">
<title>Node1&#45;&gt;Node23</title>
<g id="a_edge26_Node000001_Node000023"><a xlink:title=" ">
<path fill="none" stroke="#63b8ff" d="M1107.86,-165.34C1119.7,-157.46 1137.13,-145.86 1151.16,-136.52"/>
<polygon fill="#63b8ff" stroke="#63b8ff" points="1153.01,-139.5 1159.39,-131.04 1149.13,-133.67 1153.01,-139.5"/>
</a>
</g>
</g>
<!-- Node7&#45;&gt;Node2 -->
<g id="edge10_Node000007_Node000002" class="edge">
<title>Node7&#45;&gt;Node2</title>
<g id="a_edge10_Node000007_Node000002"><a xlink:title=" ">
<path fill="none" stroke="#63b8ff" d="M517.73,-118.34C425.7,-115.54 141.34,-104.49 114.29,-74.5 108.56,-68.15 108.55,-61.59 114.29,-55.25 142.11,-24.51 432.16,-14.05 529.58,-11.39"/>
<polygon fill="#63b8ff" stroke="#63b8ff" points="529.57,-14.89 539.47,-11.13 529.38,-7.89 529.57,-14.89"/>
</a>
</g>
</g>
<!-- Node7&#45;&gt;Node3 -->
<g id="edge7_Node000007_Node000003" class="edge">
<title>Node7&#45;&gt;Node3</title>
<g id="a_edge7_Node000007_Node000003"><a xlink:title=" ">
<path fill="none" stroke="#63b8ff" d="M517.58,-117.49C444.47,-113.08 245.44,-99.56 81.29,-74.5 80.28,-74.35 79.26,-74.18 78.24,-74.01"/>
<polygon fill="#63b8ff" stroke="#63b8ff" points="79.07,-70.61 68.61,-72.24 77.81,-77.49 79.07,-70.61"/>
</a>
</g>
</g>
<!-- Node7&#45;&gt;Node4 -->
<g id="edge16_Node000007_Node000004" class="edge">
<title>Node7&#45;&gt;Node4</title>
<g id="a_edge16_Node000007_Node000004"><a xlink:title=" ">
<path fill="none" stroke="#63b8ff" d="M575.01,-117.19C638.42,-112.64 795.3,-99.82 935.46,-74.81"/>
<polygon fill="#63b8ff" stroke="#63b8ff" points="935.68,-78.33 944.89,-73.1 934.43,-71.44 935.68,-78.33"/>
</a>
</g>
</g>
<!-- Node8 -->
<g id="Node000008" class="node">
<title>Node8</title>
<g id="a_Node000008"><a xlink:title=" ">
<polygon fill="#e0e0e0" stroke="#999999" points="465.16,-74.5 415.41,-74.5 415.41,-55.25 465.16,-55.25 465.16,-74.5"/>
<text text-anchor="middle" x="440.29" y="-61" font-family="Helvetica,sans-Serif" font-size="10.00">iomanip</text>
</a>
</g>
</g>
<!-- Node7&#45;&gt;Node8 -->
<g id="edge8_Node000007_Node000008" class="edge">
<title>Node7&#45;&gt;Node8</title>
<g id="a_edge8_Node000007_Node000008"><a xlink:title=" ">
<path fill="none" stroke="#63b8ff" d="M528.31,-110.09C511.94,-101.87 487.5,-89.59 468.52,-80.06"/>
<polygon fill="#63b8ff" stroke="#63b8ff" points="470.22,-76.99 459.71,-75.63 467.08,-83.25 470.22,-76.99"/>
</a>
</g>
</g>
<!-- Node9 -->
<g id="Node000009" class="node">
<title>Node9</title>
<g id="a_Node000009"><a xlink:title=" ">
<polygon fill="#e0e0e0" stroke="#999999" points="541.29,-74.5 483.29,-74.5 483.29,-55.25 541.29,-55.25 541.29,-74.5"/>
<text text-anchor="middle" x="512.29" y="-61" font-family="Helvetica,sans-Serif" font-size="10.00">stdexcept</text>
</a>
</g>
</g>
<!-- Node7&#45;&gt;Node9 -->
<g id="edge9_Node000007_Node000009" class="edge">
<title>Node7&#45;&gt;Node9</title>
<g id="a_edge9_Node000007_Node000009"><a xlink:title=" ">
<path fill="none" stroke="#63b8ff" d="M540.68,-110.33C536.17,-103.28 529.7,-93.15 524.08,-84.33"/>
<polygon fill="#63b8ff" stroke="#63b8ff" points="527.17,-82.68 518.84,-76.13 521.27,-86.45 527.17,-82.68"/>
</a>
</g>
</g>
<!-- Node10 -->
<g id="Node000010" class="node">
<title>Node10</title>
<g id="a_Node000010"><a xlink:title=" ">
<polygon fill="#e0e0e0" stroke="#999999" points="601.41,-74.5 559.16,-74.5 559.16,-55.25 601.41,-55.25 601.41,-74.5"/>
<text text-anchor="middle" x="580.29" y="-61" font-family="Helvetica,sans-Serif" font-size="10.00">cstdio</text>
</a>
</g>
</g>
<!-- Node7&#45;&gt;Node10 -->
<g id="edge11_Node000007_Node000010" class="edge">
<title>Node7&#45;&gt;Node10</title>
<g id="a_edge11_Node000007_Node000010"><a xlink:title=" ">
<path fill="none" stroke="#63b8ff" d="M551.9,-110.33C556.4,-103.28 562.88,-93.15 568.5,-84.33"/>
<polygon fill="#63b8ff" stroke="#63b8ff" points="571.31,-86.45 573.74,-76.13 565.41,-82.68 571.31,-86.45"/>
</a>
</g>
</g>
<!-- Node11 -->
<g id="Node000011" class="node">
<title>Node11</title>
<g id="a_Node000011"><a xlink:title=" ">
<polygon fill="#e0e0e0" stroke="#999999" points="664.91,-74.5 619.66,-74.5 619.66,-55.25 664.91,-55.25 664.91,-74.5"/>
<text text-anchor="middle" x="642.29" y="-61" font-family="Helvetica,sans-Serif" font-size="10.00">cstdint</text>
</a>
</g>
</g>
<!-- Node7&#45;&gt;Node11 -->
<g id="edge12_Node000007_Node000011" class="edge">
<title>Node7&#45;&gt;Node11</title>
<g id="a_edge12_Node000007_Node000011"><a xlink:title=" ">
<path fill="none" stroke="#63b8ff" d="M562.57,-110.09C577.19,-101.98 598.92,-89.93 616,-80.46"/>
<polygon fill="#63b8ff" stroke="#63b8ff" points="617.55,-83.6 624.6,-75.69 614.16,-77.48 617.55,-83.6"/>
</a>
</g>
</g>
<!-- Node12 -->
<g id="Node000012" class="node">
<title>Node12</title>
<g id="a_Node000012"><a xlink:title=" ">
<polygon fill="#e0e0e0" stroke="#999999" points="727.54,-74.5 683.04,-74.5 683.04,-55.25 727.54,-55.25 727.54,-74.5"/>
<text text-anchor="middle" x="705.29" y="-61" font-family="Helvetica,sans-Serif" font-size="10.00">cstdlib</text>
</a>
</g>
</g>
<!-- Node7&#45;&gt;Node12 -->
<g id="edge13_Node000007_Node000012" class="edge">
<title>Node7&#45;&gt;Node12</title>
<g id="a_edge13_Node000007_Node000012"><a xlink:title=" ">
<path fill="none" stroke="#63b8ff" d="M573.26,-110.09C600.6,-100.94 642.94,-86.75 672.27,-76.93"/>
<polygon fill="#63b8ff" stroke="#63b8ff" points="673.01,-80.38 681.38,-73.88 670.79,-73.74 673.01,-80.38"/>
</a>
</g>
</g>
<!-- Node13 -->
<g id="Node000013" class="node">
<title>Node13</title>
<g id="a_Node000013"><a xlink:title=" ">
<polygon fill="#e0e0e0" stroke="#999999" points="805.04,-74.5 745.54,-74.5 745.54,-55.25 805.04,-55.25 805.04,-74.5"/>
<text text-anchor="middle" x="775.29" y="-61" font-family="Helvetica,sans-Serif" font-size="10.00">execinfo.h</text>
</a>
</g>
</g>
<!-- Node7&#45;&gt;Node13 -->
<g id="edge14_Node000007_Node000013" class="edge">
<title>Node7&#45;&gt;Node13</title>
<g id="a_edge14_Node000007_Node000013"><a xlink:title=" ">
<path fill="none" stroke="#63b8ff" d="M574.83,-112.49C614.95,-103.16 688.26,-86.11 734.24,-75.42"/>
<polygon fill="#63b8ff" stroke="#63b8ff" points="734.88,-78.87 743.82,-73.19 733.29,-72.05 734.88,-78.87"/>
</a>
</g>
</g>
<!-- Node14 -->
<g id="Node000014" class="node">
<title>Node14</title>
<g id="a_Node000014"><a xlink:title=" ">
<polygon fill="#e0e0e0" stroke="#999999" points="873.54,-74.5 823.04,-74.5 823.04,-55.25 873.54,-55.25 873.54,-74.5"/>
<text text-anchor="middle" x="848.29" y="-61" font-family="Helvetica,sans-Serif" font-size="10.00">cxxabi.h</text>
</a>
</g>
</g>
<!-- Node7&#45;&gt;Node14 -->
<g id="edge15_Node000007_Node000014" class="edge">
<title>Node7&#45;&gt;Node14</title>
<g id="a_edge15_Node000007_Node000014"><a xlink:title=" ">
<path fill="none" stroke="#63b8ff" d="M574.99,-115.15C622.28,-108.43 719.73,-93.85 811.56,-74.93"/>
<polygon fill="#63b8ff" stroke="#63b8ff" points="812.17,-78.38 821.24,-72.91 810.74,-71.53 812.17,-78.38"/>
</a>
</g>
</g>
<!-- Node15 -->
<g id="Node000015" class="node">
<title>Node15</title>
<g id="a_Node000015"><a xlink:title=" ">
<polygon fill="#e0e0e0" stroke="#999999" points="928.79,-74.5 891.79,-74.5 891.79,-55.25 928.79,-55.25 928.79,-74.5"/>
<text text-anchor="middle" x="910.29" y="-61" font-family="Helvetica,sans-Serif" font-size="10.00">array</text>
</a>
</g>
</g>
<!-- Node7&#45;&gt;Node15 -->
<g id="edge17_Node000007_Node000015" class="edge">
<title>Node7&#45;&gt;Node15</title>
<g id="a_edge17_Node000007_Node000015"><a xlink:title=" ">
<path fill="none" stroke="#63b8ff" d="M574.89,-116.95C631.45,-112.29 761.7,-99.88 880.35,-74.56"/>
<polygon fill="#63b8ff" stroke="#63b8ff" points="880.92,-78.02 889.95,-72.48 879.43,-71.18 880.92,-78.02"/>
</a>
</g>
</g>
<!-- Node16 -->
<g id="Node000016" class="node">
<title>Node16</title>
<g id="a_Node000016"><a xlink:title=" ">
<polygon fill="#e0e0e0" stroke="#999999" points="173.54,-74.5 123.04,-74.5 123.04,-55.25 173.54,-55.25 173.54,-74.5"/>
<text text-anchor="middle" x="148.29" y="-61" font-family="Helvetica,sans-Serif" font-size="10.00">memory</text>
</a>
</g>
</g>
<!-- Node7&#45;&gt;Node16 -->
<g id="edge18_Node000007_Node000016" class="edge">
<title>Node7&#45;&gt;Node16</title>
<g id="a_edge18_Node000007_Node000016"><a xlink:title=" ">
<path fill="none" stroke="#63b8ff" d="M517.78,-116.87C457.93,-111.86 314.62,-98.5 185.12,-74.82"/>
<polygon fill="#63b8ff" stroke="#63b8ff" points="185.79,-71.39 175.32,-73 184.51,-78.27 185.79,-71.39"/>
</a>
</g>
</g>
<!-- Node17 -->
<g id="Node000017" class="node">
<title>Node17</title>
<g id="a_Node000017"><a xlink:title=" ">
<polygon fill="#e0e0e0" stroke="#999999" points="241.16,-74.5 191.41,-74.5 191.41,-55.25 241.16,-55.25 241.16,-74.5"/>
<text text-anchor="middle" x="216.29" y="-61" font-family="Helvetica,sans-Serif" font-size="10.00">unistd.h</text>
</a>
</g>
</g>
<!-- Node7&#45;&gt;Node17 -->
<g id="edge19_Node000007_Node000017" class="edge">
<title>Node7&#45;&gt;Node17</title>
<g id="a_edge19_Node000007_Node000017"><a xlink:title=" ">
<path fill="none" stroke="#63b8ff" d="M517.55,-115.75C466.34,-109.53 355.73,-95.18 252.71,-74.81"/>
<polygon fill="#63b8ff" stroke="#63b8ff" points="253.45,-71.39 242.96,-72.86 252.08,-78.25 253.45,-71.39"/>
</a>
</g>
</g>
<!-- Node18 -->
<g id="Node000018" class="node">
<title>Node18</title>
<g id="a_Node000018"><a xlink:title=" ">
<polygon fill="#e0e0e0" stroke="#999999" points="319.04,-74.5 259.54,-74.5 259.54,-55.25 319.04,-55.25 319.04,-74.5"/>
<text text-anchor="middle" x="289.29" y="-61" font-family="Helvetica,sans-Serif" font-size="10.00">sys/wait.h</text>
</a>
</g>
</g>
<!-- Node7&#45;&gt;Node18 -->
<g id="edge20_Node000007_Node000018" class="edge">
<title>Node7&#45;&gt;Node18</title>
<g id="a_edge20_Node000007_Node000018"><a xlink:title=" ">
<path fill="none" stroke="#63b8ff" d="M517.69,-113.42C478.04,-105.48 403.82,-90.5 330.75,-75"/>
<polygon fill="#63b8ff" stroke="#63b8ff" points="331.5,-71.58 320.99,-72.92 330.05,-78.43 331.5,-71.58"/>
</a>
</g>
</g>
<!-- Node19 -->
<g id="Node000019" class="node">
<title>Node19</title>
<g id="a_Node000019"><a xlink:title=" ">
<polygon fill="#e0e0e0" stroke="#999999" points="397.41,-74.5 337.16,-74.5 337.16,-55.25 397.41,-55.25 397.41,-74.5"/>
<text text-anchor="middle" x="367.29" y="-61" font-family="Helvetica,sans-Serif" font-size="10.00">sys/prctl.h</text>
</a>
</g>
</g>
<!-- Node7&#45;&gt;Node19 -->
<g id="edge21_Node000007_Node000019" class="edge">
<title>Node7&#45;&gt;Node19</title>
<g id="a_edge21_Node000007_Node000019"><a xlink:title=" ">
<path fill="none" stroke="#63b8ff" d="M517.93,-110.69C488.43,-101.91 441.97,-88.09 408.45,-78.12"/>
<polygon fill="#63b8ff" stroke="#63b8ff" points="409.65,-74.82 399.06,-75.33 407.65,-81.53 409.65,-74.82"/>
</a>
</g>
</g>
<!-- Node20&#45;&gt;Node2 -->
<g id="edge24_Node000020_Node000002" class="edge">
<title>Node20&#45;&gt;Node2</title>
<g id="a_edge24_Node000020_Node000002"><a xlink:title=" ">
<path fill="none" stroke="#63b8ff" d="M1580.77,-56.28C1577.9,-55.89 1575.06,-55.54 1572.29,-55.25 1188.06,-14.44 717.85,-10.81 592.97,-10.6"/>
<polygon fill="#63b8ff" stroke="#63b8ff" points="593.17,-7.1 583.17,-10.59 593.17,-14.1 593.17,-7.1"/>
</a>
</g>
</g>
<!-- Node21 -->
<g id="Node000021" class="node">
<title>Node21</title>
<g id="a_Node000021"><a xlink:title=" ">
<polygon fill="#e0e0e0" stroke="#999999" points="1680.91,-19.25 1629.66,-19.25 1629.66,0 1680.91,0 1680.91,-19.25"/>
<text text-anchor="middle" x="1655.29" y="-5.75" font-family="Helvetica,sans-Serif" font-size="10.00">ostream</text>
</a>
</g>
</g>
<!-- Node20&#45;&gt;Node21 -->
<g id="edge23_Node000020_Node000021" class="edge">
<title>Node20&#45;&gt;Node21</title>
<g id="a_edge23_Node000020_Node000021"><a xlink:title=" ">
<path fill="none" stroke="#63b8ff" d="M1628.57,-55.08C1632.76,-48.11 1638.77,-38.12 1644.02,-29.37"/>
<polygon fill="#63b8ff" stroke="#63b8ff" points="1646.96,-31.28 1649.11,-20.91 1640.96,-27.68 1646.96,-31.28"/>
</a>
</g>
</g>
<!-- Node22 -->
<g id="Node000022" class="node">
<title>Node22</title>
<g id="a_Node000022"><a xlink:title=" ">
<polygon fill="#e0e0e0" stroke="#999999" points="1611.79,-19.25 1568.79,-19.25 1568.79,0 1611.79,0 1611.79,-19.25"/>
<text text-anchor="middle" x="1590.29" y="-5.75" font-family="Helvetica,sans-Serif" font-size="10.00">vector</text>
</a>
</g>
</g>
<!-- Node20&#45;&gt;Node22 -->
<g id="edge25_Node000020_Node000022" class="edge">
<title>Node20&#45;&gt;Node22</title>
<g id="a_edge25_Node000020_Node000022"><a xlink:title=" ">
<path fill="none" stroke="#63b8ff" d="M1617.84,-55.08C1613.52,-48.11 1607.33,-38.12 1601.91,-29.37"/>
<polygon fill="#63b8ff" stroke="#63b8ff" points="1604.9,-27.55 1596.65,-20.9 1598.95,-31.24 1604.9,-27.55"/>
</a>
</g>
</g>
<!-- Node23&#45;&gt;Node2 -->
<g id="edge27_Node000023_Node000002" class="edge">
<title>Node23&#45;&gt;Node2</title>
<g id="a_edge27_Node000023_Node000002"><a xlink:title=" ">
<path fill="none" stroke="#63b8ff" d="M1144.93,-110.03C1118.73,-101.64 1079.5,-88.42 1046.29,-74.5 1028.46,-67.03 1025.87,-60.58 1007.29,-55.25 856.71,-12.09 667.18,-9.22 593.06,-9.96"/>
<polygon fill="#63b8ff" stroke="#63b8ff" points="593.24,-6.45 583.29,-10.09 593.34,-13.45 593.24,-6.45"/>
</a>
</g>
</g>
<!-- Node23&#45;&gt;Node20 -->
<g id="edge35_Node000023_Node000020" class="edge">
<title>Node23&#45;&gt;Node20</title>
<g id="a_edge35_Node000023_Node000020"><a xlink:title=" ">
<path fill="none" stroke="#63b8ff" d="M1206.9,-112.66C1211.39,-111.87 1215.95,-111.13 1220.29,-110.5 1372.28,-88.52 1414.49,-95.28 1569.39,-74.81"/>
<polygon fill="#63b8ff" stroke="#63b8ff" points="1569.8,-78.28 1579.24,-73.49 1568.87,-71.35 1569.8,-78.28"/>
</a>
</g>
</g>
<!-- Node24 -->
<g id="Node000024" class="node">
<title>Node24</title>
<g id="a_Node000024"><a xlink:title=" ">
<polygon fill="#e0e0e0" stroke="#999999" points="1097.79,-74.5 1054.79,-74.5 1054.79,-55.25 1097.79,-55.25 1097.79,-74.5"/>
<text text-anchor="middle" x="1076.29" y="-61" font-family="Helvetica,sans-Serif" font-size="10.00">cmath</text>
</a>
</g>
</g>
<!-- Node23&#45;&gt;Node24 -->
<g id="edge28_Node000023_Node000024" class="edge">
<title>Node23&#45;&gt;Node24</title>
<g id="a_edge28_Node000023_Node000024"><a xlink:title=" ">
<path fill="none" stroke="#63b8ff" d="M1157.67,-110.09C1142.6,-101.91 1120.15,-89.71 1102.64,-80.19"/>
<polygon fill="#63b8ff" stroke="#63b8ff" points="1104.78,-77.37 1094.33,-75.68 1101.44,-83.52 1104.78,-77.37"/>
</a>
</g>
</g>
<!-- Node25 -->
<g id="Node000025" class="node">
<title>Node25</title>
<g id="a_Node000025"><a xlink:title=" ">
<polygon fill="#e0e0e0" stroke="#999999" points="1154.54,-74.5 1116.04,-74.5 1116.04,-55.25 1154.54,-55.25 1154.54,-74.5"/>
<text text-anchor="middle" x="1135.29" y="-61" font-family="Helvetica,sans-Serif" font-size="10.00">utility</text>
</a>
</g>
</g>
<!-- Node23&#45;&gt;Node25 -->
<g id="edge29_Node000023_Node000025" class="edge">
<title>Node23&#45;&gt;Node25</title>
<g id="a_edge29_Node000023_Node000025"><a xlink:title=" ">
<path fill="none" stroke="#63b8ff" d="M1167.85,-110.33C1162.63,-103.21 1155.1,-92.93 1148.6,-84.05"/>
<polygon fill="#63b8ff" stroke="#63b8ff" points="1151.5,-82.08 1142.76,-76.08 1145.85,-86.22 1151.5,-82.08"/>
</a>
</g>
</g>
<!-- Node26 -->
<g id="Node000026" class="node">
<title>Node26</title>
<g id="a_Node000026"><a xlink:title=" ">
<polygon fill="#e0e0e0" stroke="#999999" points="1255.66,-74.5 1172.91,-74.5 1172.91,-55.25 1255.66,-55.25 1255.66,-74.5"/>
<text text-anchor="middle" x="1214.29" y="-61" font-family="Helvetica,sans-Serif" font-size="10.00">unordered_map</text>
</a>
</g>
</g>
<!-- Node23&#45;&gt;Node26 -->
<g id="edge30_Node000023_Node000026" class="edge">
<title>Node23&#45;&gt;Node26</title>
<g id="a_edge30_Node000023_Node000026"><a xlink:title=" ">
<path fill="none" stroke="#63b8ff" d="M1180.89,-110.33C1186.25,-103.21 1193.97,-92.93 1200.64,-84.05"/>
<polygon fill="#63b8ff" stroke="#63b8ff" points="1203.42,-86.17 1206.63,-76.07 1197.83,-81.96 1203.42,-86.17"/>
</a>
</g>
</g>
<!-- Node27 -->
<g id="Node000027" class="node">
<title>Node27</title>
<g id="a_Node000027"><a xlink:title=" ">
<polygon fill="#e0e0e0" stroke="#999999" points="1334.79,-74.5 1273.79,-74.5 1273.79,-55.25 1334.79,-55.25 1334.79,-74.5"/>
<text text-anchor="middle" x="1304.29" y="-61" font-family="Helvetica,sans-Serif" font-size="10.00">TNamed.h</text>
</a>
</g>
</g>
<!-- Node23&#45;&gt;Node27 -->
<g id="edge31_Node000023_Node000027" class="edge">
<title>Node23&#45;&gt;Node27</title>
<g id="a_edge31_Node000023_Node000027"><a xlink:title=" ">
<path fill="none" stroke="#63b8ff" d="M1196.34,-110.09C1216.98,-101.64 1248.07,-88.9 1271.59,-79.27"/>
<polygon fill="#63b8ff" stroke="#63b8ff" points="1272.8,-82.56 1280.73,-75.53 1270.15,-76.08 1272.8,-82.56"/>
</a>
</g>
</g>
<!-- Node28 -->
<g id="Node000028" class="node">
<title>Node28</title>
<g id="a_Node000028"><a xlink:title=" ">
<polygon fill="#e0e0e0" stroke="#999999" points="1401.79,-74.5 1352.79,-74.5 1352.79,-55.25 1401.79,-55.25 1401.79,-74.5"/>
<text text-anchor="middle" x="1377.29" y="-61" font-family="Helvetica,sans-Serif" font-size="10.00">TTree.h</text>
</a>
</g>
</g>
<!-- Node23&#45;&gt;Node28 -->
<g id="edge32_Node000023_Node000028" class="edge">
<title>Node23&#45;&gt;Node28</title>
<g id="a_edge32_Node000023_Node000028"><a xlink:title=" ">
<path fill="none" stroke="#63b8ff" d="M1206.91,-110.57C1243.67,-100.92 1303.28,-85.29 1341.36,-75.3"/>
<polygon fill="#63b8ff" stroke="#63b8ff" points="1342.18,-78.7 1350.97,-72.78 1340.41,-71.93 1342.18,-78.7"/>
</a>
</g>
</g>
<!-- Node29 -->
<g id="Node000029" class="node">
<title>Node29</title>
<g id="a_Node000029"><a xlink:title=" ">
<polygon fill="#e0e0e0" stroke="#999999" points="1475.16,-74.5 1419.41,-74.5 1419.41,-55.25 1475.16,-55.25 1475.16,-74.5"/>
<text text-anchor="middle" x="1447.29" y="-61" font-family="Helvetica,sans-Serif" font-size="10.00">TGraph.h</text>
</a>
</g>
</g>
<!-- Node23&#45;&gt;Node29 -->
<g id="edge33_Node000023_Node000029" class="edge">
<title>Node23&#45;&gt;Node29</title>
<g id="a_edge33_Node000023_Node000029"><a xlink:title=" ">
<path fill="none" stroke="#63b8ff" d="M1206.91,-113.01C1262.23,-102.62 1371.54,-82.09 1407.9,-75.01"/>
<polygon fill="#63b8ff" stroke="#63b8ff" points="1408.42,-78.48 1417.54,-73.08 1407.04,-71.61 1408.42,-78.48"/>
</a>
</g>
</g>
<!-- Node30 -->
<g id="Node000030" class="node">
<title>Node30</title>
<g id="a_Node000030"><a xlink:title=" ">
<polygon fill="#e0e0e0" stroke="#999999" points="1562.91,-74.5 1493.66,-74.5 1493.66,-55.25 1562.91,-55.25 1562.91,-74.5"/>
<text text-anchor="middle" x="1528.29" y="-61" font-family="Helvetica,sans-Serif" font-size="10.00">TClassRef.h</text>
</a>
</g>
</g>
<!-- Node23&#45;&gt;Node30 -->
<g id="edge34_Node000023_Node000030" class="edge">
<title>Node23&#45;&gt;Node30</title>
<g id="a_edge34_Node000023_Node000030"><a xlink:title=" ">
<path fill="none" stroke="#63b8ff" d="M1206.92,-112.8C1211.41,-111.99 1215.96,-111.2 1220.29,-110.5 1333.65,-92.16 1365.56,-93.78 1482.09,-74.77"/>
<polygon fill="#63b8ff" stroke="#63b8ff" points="1482.47,-78.26 1491.77,-73.18 1481.33,-71.35 1482.47,-78.26"/>
</a>
</g>
</g>
</g>
</svg>
