<?xml version="1.0" encoding="UTF-8" standalone="no"?>
<!DOCTYPE svg PUBLIC "-//W3C//DTD SVG 1.1//EN"
 "http://www.w3.org/Graphics/SVG/1.1/DTD/svg11.dtd">
<!-- Generated by graphviz version 12.2.0 (20241103.1931)
 -->
<!-- Title: TMnemonic.h Pages: 1 -->
<!--zoomable 193 -->

<svg id="main" version="1.1" xmlns="http://www.w3.org/2000/svg" xmlns:xlink="http://www.w3.org/1999/xlink" xml:space="preserve" onload="init(evt)">

<style type="text/css"><![CDATA[
.node, .edge {opacity: 0.7;}
.node.selected, .edge.selected {opacity: 1;}
.edge:hover path { stroke: red; }
.edge:hover polygon { stroke: red; fill: red; }
]]></style>

<defs>
  <circle id="rim" cx="0" cy="0" r="7"/>
  <circle id="rim2" cx="0" cy="0" r="3.5"/>
  <g id="zoomPlus">
    <use xlink:href="#rim" fill="#404040"><set attributeName="fill" to="#808080" begin="zoomplus.mouseover" end="zoomplus.mouseout"/></use>
    <path d="M-4,0h8M0,-4v8" fill="none" stroke="white" stroke-width="1.5" pointer-events="none"/>
  </g>
  <g id="zoomMin">
    <use xlink:href="#rim" fill="#404040"><set attributeName="fill" to="#808080" begin="zoomminus.mouseover" end="zoomminus.mouseout"/></use>
    <path d="M-4,0h8" fill="none" stroke="white" stroke-width="1.5" pointer-events="none"/>
  </g>
  <g id="arrowUp" transform="translate(30 24)">
    <use xlink:href="#rim"/>
    <path pointer-events="none" fill="none" stroke="white" stroke-width="1.5" d="M0,-3.0v7 M-2.5,-0.5L0,-3.0L2.5,-0.5"/>
  </g>
  <g id="arrowRight" transform="rotate(90) translate(36 -43)">
    <use xlink:href="#rim"/>
    <path pointer-events="none" fill="none" stroke="white" stroke-width="1.5" d="M0,-3.0v7 M-2.5,-0.5L0,-3.0L2.5,-0.5"/>
  </g>
  <g id="arrowDown" transform="rotate(180) translate(-30 -48)">
    <use xlink:href="#rim"/>
    <path pointer-events="none" fill="none" stroke="white" stroke-width="1.5" d="M0,-3.0v7 M-2.5,-0.5L0,-3.0L2.5,-0.5"/>
  </g>
  <g id="arrowLeft" transform="rotate(270) translate(-36 17)">
    <use xlink:href="#rim"/>
    <path pointer-events="none" fill="none" stroke="white" stroke-width="1.5" d="M0,-3.0v7 M-2.5,-0.5L0,-3.0L2.5,-0.5"/>
  </g>
  <g id="resetDef">
    <use xlink:href="#rim2" fill="#404040"><set attributeName="fill" to="#808080" begin="reset.mouseover" end="reset.mouseout"/></use>
  </g>
</defs>
<script type="application/ecmascript">
var viewWidth = 1610;
var viewHeight = 193;
var sectionId = 'dynsection-0';
</script>
<script type="application/ecmascript" xlink:href="svg.min.js"/>
<svg id="graph" class="graph">
<g id="viewport">
<title>TMnemonic.h</title>
<!-- Node1 -->
<g id="Node000001" class="node">
<title>Node1</title>
<g id="a_Node000001"><a xlink:title=" ">
<polygon fill="#999999" stroke="#666666" points="1039.53,-185 965.03,-185 965.03,-165.75 1039.53,-165.75 1039.53,-185"/>
<text text-anchor="middle" x="1002.28" y="-171.5" font-family="Helvetica,sans-Serif" font-size="10.00">TMnemonic.h</text>
</a>
</g>
</g>
<!-- Node2 -->
<g id="Node000002" class="node">
<title>Node2</title>
<g id="a_Node000002"><a xlink:title=" ">
<polygon fill="#e0e0e0" stroke="#999999" points="666.28,-19.25 626.28,-19.25 626.28,0 666.28,0 666.28,-19.25"/>
<text text-anchor="middle" x="646.28" y="-5.75" font-family="Helvetica,sans-Serif" font-size="10.00">string</text>
</a>
</g>
</g>
<!-- Node1&#45;&gt;Node2 -->
<g id="edge1_Node000001_Node000002" class="edge">
<title>Node1&#45;&gt;Node2</title>
<g id="a_edge1_Node000001_Node000002"><a xlink:title=" ">
<path fill="none" stroke="#63b8ff" d="M964.68,-173.65C790.37,-169.9 66.84,-149.87 4.28,-74.5 -1.18,-67.92 -1.55,-61.51 4.28,-55.25 46.23,-10.28 490.89,-9.65 614.54,-10.36"/>
<polygon fill="#63b8ff" stroke="#63b8ff" points="614.26,-13.86 624.28,-10.42 614.31,-6.86 614.26,-13.86"/>
</a>
</g>
</g>
<!-- Node3 -->
<g id="Node000003" class="node">
<title>Node3</title>
<g id="a_Node000003"><a xlink:title=" ">
<polygon fill="#e0e0e0" stroke="#999999" points="67.03,-74.5 13.53,-74.5 13.53,-55.25 67.03,-55.25 67.03,-74.5"/>
<text text-anchor="middle" x="40.28" y="-61" font-family="Helvetica,sans-Serif" font-size="10.00">iostream</text>
</a>
</g>
</g>
<!-- Node1&#45;&gt;Node3 -->
<g id="edge2_Node000001_Node000003" class="edge">
<title>Node1&#45;&gt;Node3</title>
<g id="a_edge2_Node000001_Node000003"><a xlink:title=" ">
<path fill="none" stroke="#63b8ff" d="M964.92,-172.47C840.18,-165.65 426.72,-139.48 78.41,-74.73"/>
<polygon fill="#63b8ff" stroke="#63b8ff" points="79.31,-71.34 68.84,-72.94 78.02,-78.22 79.31,-71.34"/>
</a>
</g>
</g>
<!-- Node4 -->
<g id="Node000004" class="node">
<title>Node4</title>
<g id="a_Node000004"><a xlink:title=" ">
<polygon fill="#e0e0e0" stroke="#999999" points="934.91,-74.5 883.66,-74.5 883.66,-55.25 934.91,-55.25 934.91,-74.5"/>
<text text-anchor="middle" x="909.28" y="-61" font-family="Helvetica,sans-Serif" font-size="10.00">sstream</text>
</a>
</g>
</g>
<!-- Node1&#45;&gt;Node4 -->
<g id="edge3_Node000001_Node000004" class="edge">
<title>Node1&#45;&gt;Node4</title>
<g id="a_edge3_Node000001_Node000004"><a xlink:title=" ">
<path fill="none" stroke="#63b8ff" d="M994.67,-165.5C979.35,-147.61 944.51,-106.97 924.39,-83.5"/>
<polygon fill="#63b8ff" stroke="#63b8ff" points="927.15,-81.34 917.98,-76.03 921.84,-85.9 927.15,-81.34"/>
</a>
</g>
</g>
<!-- Node5 -->
<g id="Node000005" class="node">
<title>Node5</title>
<g id="a_Node000005"><a xlink:title=" ">
<polygon fill="#e0e0e0" stroke="#999999" points="1252.28,-129.75 1194.28,-129.75 1194.28,-110.5 1252.28,-110.5 1252.28,-129.75"/>
<text text-anchor="middle" x="1223.28" y="-116.25" font-family="Helvetica,sans-Serif" font-size="10.00">TObject.h</text>
</a>
</g>
</g>
<!-- Node1&#45;&gt;Node5 -->
<g id="edge4_Node000001_Node000005" class="edge">
<title>Node1&#45;&gt;Node5</title>
<g id="a_edge4_Node000001_Node000005"><a xlink:title=" ">
<path fill="none" stroke="#63b8ff" d="M1040.02,-165.28C1079.72,-155.72 1141.96,-140.72 1182.69,-130.91"/>
<polygon fill="#63b8ff" stroke="#63b8ff" points="1183.46,-134.32 1192.36,-128.58 1181.82,-127.52 1183.46,-134.32"/>
</a>
</g>
</g>
<!-- Node6 -->
<g id="Node000006" class="node">
<title>Node6</title>
<g id="a_Node000006"><a xlink:title=" ">
<polygon fill="#e0e0e0" stroke="#999999" points="1324.41,-129.75 1270.16,-129.75 1270.16,-110.5 1324.41,-110.5 1324.41,-129.75"/>
<text text-anchor="middle" x="1297.28" y="-116.25" font-family="Helvetica,sans-Serif" font-size="10.00">TClass.h</text>
</a>
</g>
</g>
<!-- Node1&#45;&gt;Node6 -->
<g id="edge5_Node000001_Node000006" class="edge">
<title>Node1&#45;&gt;Node6</title>
<g id="a_edge5_Node000001_Node000006"><a xlink:title=" ">
<path fill="none" stroke="#63b8ff" d="M1039.74,-168.7C1088.06,-161.21 1174.97,-147.16 1258.57,-130.2"/>
<polygon fill="#63b8ff" stroke="#63b8ff" points="1259.23,-133.64 1268.32,-128.2 1257.83,-126.78 1259.23,-133.64"/>
</a>
</g>
</g>
<!-- Node7 -->
<g id="Node000007" class="node">
<title>Node7</title>
<g id="a_Node000007"><a xlink:href="_globals_8h.html" target="_top" xlink:title=" ">
<polygon fill="white" stroke="#666666" points="540.53,-129.75 484.03,-129.75 484.03,-110.5 540.53,-110.5 540.53,-129.75"/>
<text text-anchor="middle" x="512.28" y="-116.25" font-family="Helvetica,sans-Serif" font-size="10.00">Globals.h</text>
</a>
</g>
</g>
<!-- Node1&#45;&gt;Node7 -->
<g id="edge6_Node000001_Node000007" class="edge">
<title>Node1&#45;&gt;Node7</title>
<g id="a_edge6_Node000001_Node000007"><a xlink:title=" ">
<path fill="none" stroke="#63b8ff" d="M964.65,-170.28C874.16,-160.45 645.03,-135.55 552.23,-125.47"/>
<polygon fill="#63b8ff" stroke="#63b8ff" points="552.66,-121.99 542.34,-124.39 551.9,-128.95 552.66,-121.99"/>
</a>
</g>
</g>
<!-- Node19 -->
<g id="Node000019" class="node">
<title>Node19</title>
<g id="a_Node000019"><a xlink:href="_t_priority_value_8h.html" target="_top" xlink:title=" ">
<polygon fill="white" stroke="#666666" points="1075.41,-74.5 991.16,-74.5 991.16,-55.25 1075.41,-55.25 1075.41,-74.5"/>
<text text-anchor="middle" x="1033.28" y="-61" font-family="Helvetica,sans-Serif" font-size="10.00">TPriorityValue.h</text>
</a>
</g>
</g>
<!-- Node1&#45;&gt;Node19 -->
<g id="edge21_Node000001_Node000019" class="edge">
<title>Node1&#45;&gt;Node19</title>
<g id="a_edge21_Node000001_Node000019"><a xlink:title=" ">
<path fill="none" stroke="#63b8ff" d="M1004.82,-165.5C1009.77,-148.17 1020.83,-109.48 1027.61,-85.74"/>
<polygon fill="#63b8ff" stroke="#63b8ff" points="1030.91,-86.91 1030.3,-76.33 1024.18,-84.99 1030.91,-86.91"/>
</a>
</g>
</g>
<!-- Node22 -->
<g id="Node000022" class="node">
<title>Node22</title>
<g id="a_Node000022"><a xlink:href="_t_channel_8h.html" target="_top" xlink:title=" ">
<polygon fill="white" stroke="#666666" points="1176.66,-129.75 1111.91,-129.75 1111.91,-110.5 1176.66,-110.5 1176.66,-129.75"/>
<text text-anchor="middle" x="1144.28" y="-116.25" font-family="Helvetica,sans-Serif" font-size="10.00">TChannel.h</text>
</a>
</g>
</g>
<!-- Node1&#45;&gt;Node22 -->
<g id="edge25_Node000001_Node000022" class="edge">
<title>Node1&#45;&gt;Node22</title>
<g id="a_edge25_Node000001_Node000022"><a xlink:title=" ">
<path fill="none" stroke="#63b8ff" d="M1026.37,-165.34C1049.22,-156.77 1083.8,-143.81 1109.61,-134.13"/>
<polygon fill="#63b8ff" stroke="#63b8ff" points="1110.53,-137.52 1118.66,-130.73 1108.07,-130.97 1110.53,-137.52"/>
</a>
</g>
</g>
<!-- Node7&#45;&gt;Node2 -->
<g id="edge10_Node000007_Node000002" class="edge">
<title>Node7&#45;&gt;Node2</title>
<g id="a_edge10_Node000007_Node000002"><a xlink:title=" ">
<path fill="none" stroke="#63b8ff" d="M483.57,-118.21C424.12,-115.35 296.48,-103.55 338.28,-55.25 373.8,-14.22 543.22,-10.1 614.54,-10.23"/>
<polygon fill="#63b8ff" stroke="#63b8ff" points="614.35,-13.73 624.37,-10.28 614.39,-6.73 614.35,-13.73"/>
</a>
</g>
</g>
<!-- Node7&#45;&gt;Node3 -->
<g id="edge7_Node000007_Node000003" class="edge">
<title>Node7&#45;&gt;Node3</title>
<g id="a_edge7_Node000007_Node000003"><a xlink:title=" ">
<path fill="none" stroke="#63b8ff" d="M483.54,-117.51C415.06,-113.39 236.81,-100.99 78.23,-74.6"/>
<polygon fill="#63b8ff" stroke="#63b8ff" points="79.27,-71.23 68.82,-73.02 78.1,-78.13 79.27,-71.23"/>
</a>
</g>
</g>
<!-- Node7&#45;&gt;Node4 -->
<g id="edge15_Node000007_Node000004" class="edge">
<title>Node7&#45;&gt;Node4</title>
<g id="a_edge15_Node000007_Node000004"><a xlink:title=" ">
<path fill="none" stroke="#63b8ff" d="M540.62,-116.79C600.13,-111.64 742.6,-98.01 872.08,-74.69"/>
<polygon fill="#63b8ff" stroke="#63b8ff" points="872.67,-78.14 881.88,-72.9 871.41,-71.25 872.67,-78.14"/>
</a>
</g>
</g>
<!-- Node8 -->
<g id="Node000008" class="node">
<title>Node8</title>
<g id="a_Node000008"><a xlink:title=" ">
<polygon fill="#e0e0e0" stroke="#999999" points="397.16,-74.5 347.41,-74.5 347.41,-55.25 397.16,-55.25 397.16,-74.5"/>
<text text-anchor="middle" x="372.28" y="-61" font-family="Helvetica,sans-Serif" font-size="10.00">iomanip</text>
</a>
</g>
</g>
<!-- Node7&#45;&gt;Node8 -->
<g id="edge8_Node000007_Node000008" class="edge">
<title>Node7&#45;&gt;Node8</title>
<g id="a_edge8_Node000007_Node000008"><a xlink:title=" ">
<path fill="none" stroke="#63b8ff" d="M488.54,-110.09C466.11,-101.56 432.22,-88.67 406.81,-79.01"/>
<polygon fill="#63b8ff" stroke="#63b8ff" points="408.16,-75.77 397.56,-75.49 405.67,-82.32 408.16,-75.77"/>
</a>
</g>
</g>
<!-- Node9 -->
<g id="Node000009" class="node">
<title>Node9</title>
<g id="a_Node000009"><a xlink:title=" ">
<polygon fill="#e0e0e0" stroke="#999999" points="473.28,-74.5 415.28,-74.5 415.28,-55.25 473.28,-55.25 473.28,-74.5"/>
<text text-anchor="middle" x="444.28" y="-61" font-family="Helvetica,sans-Serif" font-size="10.00">stdexcept</text>
</a>
</g>
</g>
<!-- Node7&#45;&gt;Node9 -->
<g id="edge9_Node000007_Node000009" class="edge">
<title>Node7&#45;&gt;Node9</title>
<g id="a_edge9_Node000007_Node000009"><a xlink:title=" ">
<path fill="none" stroke="#63b8ff" d="M500.75,-110.09C490.82,-102.32 476.27,-90.92 464.43,-81.65"/>
<polygon fill="#63b8ff" stroke="#63b8ff" points="466.87,-79.12 456.84,-75.71 462.56,-84.63 466.87,-79.12"/>
</a>
</g>
</g>
<!-- Node10 -->
<g id="Node000010" class="node">
<title>Node10</title>
<g id="a_Node000010"><a xlink:title=" ">
<polygon fill="#e0e0e0" stroke="#999999" points="533.41,-74.5 491.16,-74.5 491.16,-55.25 533.41,-55.25 533.41,-74.5"/>
<text text-anchor="middle" x="512.28" y="-61" font-family="Helvetica,sans-Serif" font-size="10.00">cstdio</text>
</a>
</g>
</g>
<!-- Node7&#45;&gt;Node10 -->
<g id="edge11_Node000007_Node000010" class="edge">
<title>Node7&#45;&gt;Node10</title>
<g id="a_edge11_Node000007_Node000010"><a xlink:title=" ">
<path fill="none" stroke="#63b8ff" d="M512.28,-110.33C512.28,-103.82 512.28,-94.67 512.28,-86.37"/>
<polygon fill="#63b8ff" stroke="#63b8ff" points="515.78,-86.37 512.28,-76.37 508.78,-86.37 515.78,-86.37"/>
</a>
</g>
</g>
<!-- Node11 -->
<g id="Node000011" class="node">
<title>Node11</title>
<g id="a_Node000011"><a xlink:title=" ">
<polygon fill="#e0e0e0" stroke="#999999" points="595.53,-74.5 551.03,-74.5 551.03,-55.25 595.53,-55.25 595.53,-74.5"/>
<text text-anchor="middle" x="573.28" y="-61" font-family="Helvetica,sans-Serif" font-size="10.00">cstdlib</text>
</a>
</g>
</g>
<!-- Node7&#45;&gt;Node11 -->
<g id="edge12_Node000007_Node000011" class="edge">
<title>Node7&#45;&gt;Node11</title>
<g id="a_edge12_Node000007_Node000011"><a xlink:title=" ">
<path fill="none" stroke="#63b8ff" d="M522.63,-110.09C531.36,-102.47 544.07,-91.37 554.58,-82.2"/>
<polygon fill="#63b8ff" stroke="#63b8ff" points="556.72,-84.98 561.95,-75.77 552.11,-79.71 556.72,-84.98"/>
</a>
</g>
</g>
<!-- Node12 -->
<g id="Node000012" class="node">
<title>Node12</title>
<g id="a_Node000012"><a xlink:title=" ">
<polygon fill="#e0e0e0" stroke="#999999" points="673.03,-74.5 613.53,-74.5 613.53,-55.25 673.03,-55.25 673.03,-74.5"/>
<text text-anchor="middle" x="643.28" y="-61" font-family="Helvetica,sans-Serif" font-size="10.00">execinfo.h</text>
</a>
</g>
</g>
<!-- Node7&#45;&gt;Node12 -->
<g id="edge13_Node000007_Node000012" class="edge">
<title>Node7&#45;&gt;Node12</title>
<g id="a_edge13_Node000007_Node000012"><a xlink:title=" ">
<path fill="none" stroke="#63b8ff" d="M534.51,-110.09C555.3,-101.64 586.63,-88.9 610.34,-79.27"/>
<polygon fill="#63b8ff" stroke="#63b8ff" points="611.6,-82.53 619.55,-75.52 608.97,-76.05 611.6,-82.53"/>
</a>
</g>
</g>
<!-- Node13 -->
<g id="Node000013" class="node">
<title>Node13</title>
<g id="a_Node000013"><a xlink:title=" ">
<polygon fill="#e0e0e0" stroke="#999999" points="741.53,-74.5 691.03,-74.5 691.03,-55.25 741.53,-55.25 741.53,-74.5"/>
<text text-anchor="middle" x="716.28" y="-61" font-family="Helvetica,sans-Serif" font-size="10.00">cxxabi.h</text>
</a>
</g>
</g>
<!-- Node7&#45;&gt;Node13 -->
<g id="edge14_Node000007_Node000013" class="edge">
<title>Node7&#45;&gt;Node13</title>
<g id="a_edge14_Node000007_Node000013"><a xlink:title=" ">
<path fill="none" stroke="#63b8ff" d="M540.65,-111.72C576.92,-102.25 639.79,-85.84 679.65,-75.44"/>
<polygon fill="#63b8ff" stroke="#63b8ff" points="680.48,-78.84 689.27,-72.93 678.71,-72.07 680.48,-78.84"/>
</a>
</g>
</g>
<!-- Node14 -->
<g id="Node000014" class="node">
<title>Node14</title>
<g id="a_Node000014"><a xlink:title=" ">
<polygon fill="#e0e0e0" stroke="#999999" points="796.78,-74.5 759.78,-74.5 759.78,-55.25 796.78,-55.25 796.78,-74.5"/>
<text text-anchor="middle" x="778.28" y="-61" font-family="Helvetica,sans-Serif" font-size="10.00">array</text>
</a>
</g>
</g>
<!-- Node7&#45;&gt;Node14 -->
<g id="edge16_Node000007_Node000014" class="edge">
<title>Node7&#45;&gt;Node14</title>
<g id="a_edge16_Node000007_Node000014"><a xlink:title=" ">
<path fill="none" stroke="#63b8ff" d="M540.72,-114.86C583.65,-108.2 667.76,-94.26 748.53,-74.68"/>
<polygon fill="#63b8ff" stroke="#63b8ff" points="749.04,-78.16 757.92,-72.38 747.37,-71.37 749.04,-78.16"/>
</a>
</g>
</g>
<!-- Node15 -->
<g id="Node000015" class="node">
<title>Node15</title>
<g id="a_Node000015"><a xlink:title=" ">
<polygon fill="#e0e0e0" stroke="#999999" points="865.53,-74.5 815.03,-74.5 815.03,-55.25 865.53,-55.25 865.53,-74.5"/>
<text text-anchor="middle" x="840.28" y="-61" font-family="Helvetica,sans-Serif" font-size="10.00">memory</text>
</a>
</g>
</g>
<!-- Node7&#45;&gt;Node15 -->
<g id="edge17_Node000007_Node000015" class="edge">
<title>Node7&#45;&gt;Node15</title>
<g id="a_edge17_Node000007_Node000015"><a xlink:title=" ">
<path fill="none" stroke="#63b8ff" d="M540.83,-115.74C591.69,-109.49 701.55,-95.1 803.6,-74.88"/>
<polygon fill="#63b8ff" stroke="#63b8ff" points="804.13,-78.34 813.24,-72.94 802.75,-71.48 804.13,-78.34"/>
</a>
</g>
</g>
<!-- Node16 -->
<g id="Node000016" class="node">
<title>Node16</title>
<g id="a_Node000016"><a xlink:title=" ">
<polygon fill="#e0e0e0" stroke="#999999" points="135.16,-74.5 85.41,-74.5 85.41,-55.25 135.16,-55.25 135.16,-74.5"/>
<text text-anchor="middle" x="110.28" y="-61" font-family="Helvetica,sans-Serif" font-size="10.00">unistd.h</text>
</a>
</g>
</g>
<!-- Node7&#45;&gt;Node16 -->
<g id="edge18_Node000007_Node000016" class="edge">
<title>Node7&#45;&gt;Node16</title>
<g id="a_edge18_Node000007_Node000016"><a xlink:title=" ">
<path fill="none" stroke="#63b8ff" d="M483.93,-116.93C423.64,-112 278.11,-98.7 146.52,-74.69"/>
<polygon fill="#63b8ff" stroke="#63b8ff" points="147.41,-71.3 136.94,-72.92 146.14,-78.18 147.41,-71.3"/>
</a>
</g>
</g>
<!-- Node17 -->
<g id="Node000017" class="node">
<title>Node17</title>
<g id="a_Node000017"><a xlink:title=" ">
<polygon fill="#e0e0e0" stroke="#999999" points="213.03,-74.5 153.53,-74.5 153.53,-55.25 213.03,-55.25 213.03,-74.5"/>
<text text-anchor="middle" x="183.28" y="-61" font-family="Helvetica,sans-Serif" font-size="10.00">sys/wait.h</text>
</a>
</g>
</g>
<!-- Node7&#45;&gt;Node17 -->
<g id="edge19_Node000007_Node000017" class="edge">
<title>Node7&#45;&gt;Node17</title>
<g id="a_edge19_Node000007_Node000017"><a xlink:title=" ">
<path fill="none" stroke="#63b8ff" d="M483.78,-115.36C433.51,-108.6 325.61,-93.48 224.5,-74.81"/>
<polygon fill="#63b8ff" stroke="#63b8ff" points="225.44,-71.42 214.97,-73.03 224.16,-78.31 225.44,-71.42"/>
</a>
</g>
</g>
<!-- Node18 -->
<g id="Node000018" class="node">
<title>Node18</title>
<g id="a_Node000018"><a xlink:title=" ">
<polygon fill="#e0e0e0" stroke="#999999" points="291.41,-74.5 231.16,-74.5 231.16,-55.25 291.41,-55.25 291.41,-74.5"/>
<text text-anchor="middle" x="261.28" y="-61" font-family="Helvetica,sans-Serif" font-size="10.00">sys/prctl.h</text>
</a>
</g>
</g>
<!-- Node7&#45;&gt;Node18 -->
<g id="edge20_Node000007_Node000018" class="edge">
<title>Node7&#45;&gt;Node18</title>
<g id="a_edge20_Node000007_Node000018"><a xlink:title=" ">
<path fill="none" stroke="#63b8ff" d="M483.98,-113.12C439.76,-103.74 354.05,-85.56 302.83,-74.69"/>
<polygon fill="#63b8ff" stroke="#63b8ff" points="303.82,-71.32 293.31,-72.67 302.36,-78.17 303.82,-71.32"/>
</a>
</g>
</g>
<!-- Node19&#45;&gt;Node2 -->
<g id="edge23_Node000019_Node000002" class="edge">
<title>Node19&#45;&gt;Node2</title>
<g id="a_edge23_Node000019_Node000002"><a xlink:title=" ">
<path fill="none" stroke="#63b8ff" d="M990.8,-57.25C986.24,-56.56 981.67,-55.88 977.28,-55.25 867.22,-39.36 736.29,-22.23 677.54,-14.64"/>
<polygon fill="#63b8ff" stroke="#63b8ff" points="678.32,-11.21 667.95,-13.4 677.42,-18.15 678.32,-11.21"/>
</a>
</g>
</g>
<!-- Node20 -->
<g id="Node000020" class="node">
<title>Node20</title>
<g id="a_Node000020"><a xlink:title=" ">
<polygon fill="#e0e0e0" stroke="#999999" points="1090.91,-19.25 1039.66,-19.25 1039.66,0 1090.91,0 1090.91,-19.25"/>
<text text-anchor="middle" x="1065.28" y="-5.75" font-family="Helvetica,sans-Serif" font-size="10.00">ostream</text>
</a>
</g>
</g>
<!-- Node19&#45;&gt;Node20 -->
<g id="edge22_Node000019_Node000020" class="edge">
<title>Node19&#45;&gt;Node20</title>
<g id="a_edge22_Node000019_Node000020"><a xlink:title=" ">
<path fill="none" stroke="#63b8ff" d="M1038.57,-55.08C1042.76,-48.11 1048.76,-38.12 1054.02,-29.37"/>
<polygon fill="#63b8ff" stroke="#63b8ff" points="1056.95,-31.28 1059.11,-20.91 1050.95,-27.68 1056.95,-31.28"/>
</a>
</g>
</g>
<!-- Node21 -->
<g id="Node000021" class="node">
<title>Node21</title>
<g id="a_Node000021"><a xlink:title=" ">
<polygon fill="#e0e0e0" stroke="#999999" points="1021.78,-19.25 978.78,-19.25 978.78,0 1021.78,0 1021.78,-19.25"/>
<text text-anchor="middle" x="1000.28" y="-5.75" font-family="Helvetica,sans-Serif" font-size="10.00">vector</text>
</a>
</g>
</g>
<!-- Node19&#45;&gt;Node21 -->
<g id="edge24_Node000019_Node000021" class="edge">
<title>Node19&#45;&gt;Node21</title>
<g id="a_edge24_Node000019_Node000021"><a xlink:title=" ">
<path fill="none" stroke="#63b8ff" d="M1027.83,-55.08C1023.51,-48.11 1017.32,-38.12 1011.9,-29.37"/>
<polygon fill="#63b8ff" stroke="#63b8ff" points="1014.89,-27.55 1006.65,-20.9 1008.94,-31.24 1014.89,-27.55"/>
</a>
</g>
</g>
<!-- Node22&#45;&gt;Node2 -->
<g id="edge26_Node000022_Node000002" class="edge">
<title>Node22&#45;&gt;Node2</title>
<g id="a_edge26_Node000022_Node000002"><a xlink:title=" ">
<path fill="none" stroke="#63b8ff" d="M1111.7,-112.18C1078.55,-104.64 1025.96,-91.38 982.28,-74.5 964.63,-67.67 962.32,-61 944.28,-55.25 850.46,-25.32 733.47,-15.28 678.13,-12.06"/>
<polygon fill="#63b8ff" stroke="#63b8ff" points="678.35,-8.57 668.18,-11.52 677.97,-15.56 678.35,-8.57"/>
</a>
</g>
</g>
<!-- Node22&#45;&gt;Node19 -->
<g id="edge34_Node000022_Node000019" class="edge">
<title>Node22&#45;&gt;Node19</title>
<g id="a_edge34_Node000022_Node000019"><a xlink:title=" ">
<path fill="none" stroke="#63b8ff" d="M1125.45,-110.09C1108.23,-101.83 1082.48,-89.48 1062.57,-79.93"/>
<polygon fill="#63b8ff" stroke="#63b8ff" points="1064.1,-76.78 1053.57,-75.61 1061.07,-83.09 1064.1,-76.78"/>
</a>
</g>
</g>
<!-- Node23 -->
<g id="Node000023" class="node">
<title>Node23</title>
<g id="a_Node000023"><a xlink:title=" ">
<polygon fill="#e0e0e0" stroke="#999999" points="1136.78,-74.5 1093.78,-74.5 1093.78,-55.25 1136.78,-55.25 1136.78,-74.5"/>
<text text-anchor="middle" x="1115.28" y="-61" font-family="Helvetica,sans-Serif" font-size="10.00">cmath</text>
</a>
</g>
</g>
<!-- Node22&#45;&gt;Node23 -->
<g id="edge27_Node000022_Node000023" class="edge">
<title>Node22&#45;&gt;Node23</title>
<g id="a_edge27_Node000022_Node000023"><a xlink:title=" ">
<path fill="none" stroke="#63b8ff" d="M1139.5,-110.33C1135.74,-103.44 1130.38,-93.59 1125.65,-84.91"/>
<polygon fill="#63b8ff" stroke="#63b8ff" points="1128.76,-83.3 1120.9,-76.19 1122.61,-86.64 1128.76,-83.3"/>
</a>
</g>
</g>
<!-- Node24 -->
<g id="Node000024" class="node">
<title>Node24</title>
<g id="a_Node000024"><a xlink:title=" ">
<polygon fill="#e0e0e0" stroke="#999999" points="1193.53,-74.5 1155.03,-74.5 1155.03,-55.25 1193.53,-55.25 1193.53,-74.5"/>
<text text-anchor="middle" x="1174.28" y="-61" font-family="Helvetica,sans-Serif" font-size="10.00">utility</text>
</a>
</g>
</g>
<!-- Node22&#45;&gt;Node24 -->
<g id="edge28_Node000022_Node000024" class="edge">
<title>Node22&#45;&gt;Node24</title>
<g id="a_edge28_Node000022_Node000024"><a xlink:title=" ">
<path fill="none" stroke="#63b8ff" d="M1149.24,-110.33C1153.17,-103.36 1158.8,-93.37 1163.72,-84.62"/>
<polygon fill="#63b8ff" stroke="#63b8ff" points="1166.62,-86.61 1168.48,-76.18 1160.52,-83.17 1166.62,-86.61"/>
</a>
</g>
</g>
<!-- Node25 -->
<g id="Node000025" class="node">
<title>Node25</title>
<g id="a_Node000025"><a xlink:title=" ">
<polygon fill="#e0e0e0" stroke="#999999" points="1294.66,-74.5 1211.91,-74.5 1211.91,-55.25 1294.66,-55.25 1294.66,-74.5"/>
<text text-anchor="middle" x="1253.28" y="-61" font-family="Helvetica,sans-Serif" font-size="10.00">unordered_map</text>
</a>
</g>
</g>
<!-- Node22&#45;&gt;Node25 -->
<g id="edge29_Node000022_Node000025" class="edge">
<title>Node22&#45;&gt;Node25</title>
<g id="a_edge29_Node000022_Node000025"><a xlink:title=" ">
<path fill="none" stroke="#63b8ff" d="M1162.77,-110.09C1179.69,-101.83 1204.97,-89.48 1224.52,-79.93"/>
<polygon fill="#63b8ff" stroke="#63b8ff" points="1225.89,-83.15 1233.34,-75.62 1222.82,-76.86 1225.89,-83.15"/>
</a>
</g>
</g>
<!-- Node26 -->
<g id="Node000026" class="node">
<title>Node26</title>
<g id="a_Node000026"><a xlink:title=" ">
<polygon fill="#e0e0e0" stroke="#999999" points="1373.78,-74.5 1312.78,-74.5 1312.78,-55.25 1373.78,-55.25 1373.78,-74.5"/>
<text text-anchor="middle" x="1343.28" y="-61" font-family="Helvetica,sans-Serif" font-size="10.00">TNamed.h</text>
</a>
</g>
</g>
<!-- Node22&#45;&gt;Node26 -->
<g id="edge30_Node000022_Node000026" class="edge">
<title>Node22&#45;&gt;Node26</title>
<g id="a_edge30_Node000022_Node000026"><a xlink:title=" ">
<path fill="none" stroke="#63b8ff" d="M1177.15,-110.33C1211.16,-101.23 1264.41,-86.98 1301.42,-77.08"/>
<polygon fill="#63b8ff" stroke="#63b8ff" points="1302.12,-80.51 1310.88,-74.55 1300.31,-73.75 1302.12,-80.51"/>
</a>
</g>
</g>
<!-- Node27 -->
<g id="Node000027" class="node">
<title>Node27</title>
<g id="a_Node000027"><a xlink:title=" ">
<polygon fill="#e0e0e0" stroke="#999999" points="1440.78,-74.5 1391.78,-74.5 1391.78,-55.25 1440.78,-55.25 1440.78,-74.5"/>
<text text-anchor="middle" x="1416.28" y="-61" font-family="Helvetica,sans-Serif" font-size="10.00">TTree.h</text>
</a>
</g>
</g>
<!-- Node22&#45;&gt;Node27 -->
<g id="edge31_Node000022_Node000027" class="edge">
<title>Node22&#45;&gt;Node27</title>
<g id="a_edge31_Node000022_Node000027"><a xlink:title=" ">
<path fill="none" stroke="#63b8ff" d="M1176.94,-112.17C1179.76,-111.6 1182.57,-111.03 1185.28,-110.5 1269.54,-93.98 1294.02,-93.81 1380.33,-75.03"/>
<polygon fill="#63b8ff" stroke="#63b8ff" points="1380.97,-78.47 1389.99,-72.9 1379.47,-71.63 1380.97,-78.47"/>
</a>
</g>
</g>
<!-- Node28 -->
<g id="Node000028" class="node">
<title>Node28</title>
<g id="a_Node000028"><a xlink:title=" ">
<polygon fill="#e0e0e0" stroke="#999999" points="1514.16,-74.5 1458.41,-74.5 1458.41,-55.25 1514.16,-55.25 1514.16,-74.5"/>
<text text-anchor="middle" x="1486.28" y="-61" font-family="Helvetica,sans-Serif" font-size="10.00">TGraph.h</text>
</a>
</g>
</g>
<!-- Node22&#45;&gt;Node28 -->
<g id="edge32_Node000022_Node000028" class="edge">
<title>Node22&#45;&gt;Node28</title>
<g id="a_edge32_Node000022_Node000028"><a xlink:title=" ">
<path fill="none" stroke="#63b8ff" d="M1176.92,-112.04C1179.74,-111.49 1182.56,-110.97 1185.28,-110.5 1298.86,-90.87 1331.5,-96.03 1446.98,-74.97"/>
<polygon fill="#63b8ff" stroke="#63b8ff" points="1447.36,-78.46 1456.55,-73.2 1446.08,-71.58 1447.36,-78.46"/>
</a>
</g>
</g>
<!-- Node29 -->
<g id="Node000029" class="node">
<title>Node29</title>
<g id="a_Node000029"><a xlink:title=" ">
<polygon fill="#e0e0e0" stroke="#999999" points="1601.91,-74.5 1532.66,-74.5 1532.66,-55.25 1601.91,-55.25 1601.91,-74.5"/>
<text text-anchor="middle" x="1567.28" y="-61" font-family="Helvetica,sans-Serif" font-size="10.00">TClassRef.h</text>
</a>
</g>
</g>
<!-- Node22&#45;&gt;Node29 -->
<g id="edge33_Node000022_Node000029" class="edge">
<title>Node22&#45;&gt;Node29</title>
<g id="a_edge33_Node000022_Node000029"><a xlink:title=" ">
<path fill="none" stroke="#63b8ff" d="M1176.9,-111.95C1179.73,-111.42 1182.55,-110.93 1185.28,-110.5 1331.01,-87.47 1372,-96.6 1521.33,-74.66"/>
<polygon fill="#63b8ff" stroke="#63b8ff" points="1521.4,-78.19 1530.77,-73.25 1520.36,-71.26 1521.4,-78.19"/>
</a>
</g>
</g>
</g>
</svg>

<g id="navigator" transform="translate(0 0)" fill="#404254">
  <rect fill="#f2f5e9" fill-opacity="0.5" stroke="#606060" stroke-width=".5" x="0" y="0" width="60" height="60"/>
  <use id="zoomplus" xlink:href="#zoomPlus" x="17" y="9" onmousedown="handleZoom(evt,'in')"/>
  <use id="zoomminus" xlink:href="#zoomMin" x="42" y="9" onmousedown="handleZoom(evt,'out')"/>
  <use id="reset" xlink:href="#resetDef" x="30" y="36" onmousedown="handleReset()"/>
   <use id="arrowup" xlink:href="#arrowUp" x="0" y="0" onmousedown="handlePan(0,-1)"/>
  <use id="arrowright" xlink:href="#arrowRight" x="0" y="0" onmousedown="handlePan(1,0)"/>
  <use id="arrowdown" xlink:href="#arrowDown" x="0" y="0" onmousedown="handlePan(0,1)"/>
  <use id="arrowleft" xlink:href="#arrowLeft" x="0" y="0" onmousedown="handlePan(-1,0)"/>
</g>
<svg viewBox="0 0 15 15" width="100%" height="30px" preserveAspectRatio="xMaxYMin meet">
 <g id="arrow_out" transform="scale(0.3 0.3)">
  <a xlink:href="_t_mnemonic_8h__incl_org.svg" target="_base">
   <rect id="button" ry="5" rx="5" y="6" x="6" height="38" width="38"
        fill="#f2f5e9" fill-opacity="0.5" stroke="#606060" stroke-width="1.0"/>
   <path id="arrow"
     d="M 11.500037,31.436501 C 11.940474,20.09759 22.043105,11.32322 32.158766,21.979434 L 37.068811,17.246167 C 37.068811,17.246167 37.088388,32 37.088388,32 L 22.160133,31.978069 C 22.160133,31.978069 26.997745,27.140456 26.997745,27.140456 C 18.528582,18.264221 13.291696,25.230495 11.500037,31.436501 z"
     style="fill:#404040;"/>
  </a>
 </g>
</svg>

<style type='text/css'>
<![CDATA[
[data-mouse-over-selected='false'] { opacity: 0.7; }
[data-mouse-over-selected='true']  { opacity: 1.0; }
]]>
</style>
<script type="application/ecmascript"><![CDATA[
document.addEventListener('DOMContentLoaded', (event) => {
  highlightEdges();
  highlightAdjacentNodes();
});
]]></script>
</svg>
