<?xml version="1.0" encoding="UTF-8" standalone="no"?>
<!DOCTYPE svg PUBLIC "-//W3C//DTD SVG 1.1//EN"
 "http://www.w3.org/Graphics/SVG/1.1/DTD/svg11.dtd">
<!-- Generated by graphviz version 12.2.0 (20241103.1931)
 -->
<!-- Title: TPulseAnalyzer.h Pages: 1 -->
<svg width="1728pt" height="359pt"
 viewBox="0.00 0.00 1728.25 358.75" xmlns="http://www.w3.org/2000/svg" xmlns:xlink="http://www.w3.org/1999/xlink">
<g id="graph0" class="graph" transform="scale(1 1) rotate(0) translate(4 354.75)">
<title>TPulseAnalyzer.h</title>
<!-- Node1 -->
<g id="Node000001" class="node">
<title>Node1</title>
<g id="a_Node000001"><a xlink:title=" ">
<polygon fill="#999999" stroke="#666666" points="1432.5,-350.75 1341.5,-350.75 1341.5,-331.5 1432.5,-331.5 1432.5,-350.75"/>
<text text-anchor="middle" x="1387" y="-337.25" font-family="Helvetica,sans-Serif" font-size="10.00">TPulseAnalyzer.h</text>
</a>
</g>
</g>
<!-- Node2 -->
<g id="Node000002" class="node">
<title>Node2</title>
<g id="a_Node000002"><a xlink:href="_t_fragment_8h.html" target="_top" xlink:title=" ">
<polygon fill="white" stroke="#666666" points="1022.38,-295.5 951.62,-295.5 951.62,-276.25 1022.38,-276.25 1022.38,-295.5"/>
<text text-anchor="middle" x="987" y="-282" font-family="Helvetica,sans-Serif" font-size="10.00">TFragment.h</text>
</a>
</g>
</g>
<!-- Node1&#45;&gt;Node2 -->
<g id="edge1_Node000001_Node000002" class="edge">
<title>Node1&#45;&gt;Node2</title>
<g id="a_edge1_Node000001_Node000002"><a xlink:title=" ">
<path fill="none" stroke="#63b8ff" d="M1341.11,-334.02C1264.5,-323.82 1111.34,-303.43 1033.99,-293.13"/>
<polygon fill="#63b8ff" stroke="#63b8ff" points="1034.58,-289.68 1024.2,-291.83 1033.65,-296.62 1034.58,-289.68"/>
</a>
</g>
</g>
<!-- Node4 -->
<g id="Node000004" class="node">
<title>Node4</title>
<g id="a_Node000004"><a xlink:title=" ">
<polygon fill="#e0e0e0" stroke="#999999" points="140.5,-74.5 97.5,-74.5 97.5,-55.25 140.5,-55.25 140.5,-74.5"/>
<text text-anchor="middle" x="119" y="-61" font-family="Helvetica,sans-Serif" font-size="10.00">vector</text>
</a>
</g>
</g>
<!-- Node1&#45;&gt;Node4 -->
<g id="edge58_Node000001_Node000004" class="edge">
<title>Node1&#45;&gt;Node4</title>
<g id="a_edge58_Node000001_Node000004"><a xlink:title=" ">
<path fill="none" stroke="#63b8ff" d="M1341.25,-339C1101.39,-332.78 0,-300.5 0,-231.62 0,-231.62 0,-231.62 0,-174.38 0,-127.25 51.59,-95.14 86.84,-78.71"/>
<polygon fill="#63b8ff" stroke="#63b8ff" points="88.08,-81.99 95.79,-74.73 85.23,-75.59 88.08,-81.99"/>
</a>
</g>
</g>
<!-- Node7 -->
<g id="Node000007" class="node">
<title>Node7</title>
<g id="a_Node000007"><a xlink:title=" ">
<polygon fill="#e0e0e0" stroke="#999999" points="109.5,-129.75 66.5,-129.75 66.5,-110.5 109.5,-110.5 109.5,-129.75"/>
<text text-anchor="middle" x="88" y="-116.25" font-family="Helvetica,sans-Serif" font-size="10.00">cmath</text>
</a>
</g>
</g>
<!-- Node1&#45;&gt;Node7 -->
<g id="edge62_Node000001_Node000007" class="edge">
<title>Node1&#45;&gt;Node7</title>
<g id="a_edge62_Node000001_Node000007"><a xlink:title=" ">
<path fill="none" stroke="#63b8ff" d="M1341.16,-339.49C1228.04,-337.43 926.74,-328.99 678,-295.5 558.33,-279.39 528.88,-270.55 412,-240.25 332.23,-219.57 312.24,-213.74 235,-185 193.38,-169.51 146.51,-148.51 117.12,-134.88"/>
<polygon fill="#63b8ff" stroke="#63b8ff" points="118.68,-131.75 108.13,-130.69 115.72,-138.09 118.68,-131.75"/>
</a>
</g>
</g>
<!-- Node12 -->
<g id="Node000012" class="node">
<title>Node12</title>
<g id="a_Node000012"><a xlink:title=" ">
<polygon fill="#e0e0e0" stroke="#999999" points="182.88,-129.75 127.12,-129.75 127.12,-110.5 182.88,-110.5 182.88,-129.75"/>
<text text-anchor="middle" x="155" y="-116.25" font-family="Helvetica,sans-Serif" font-size="10.00">TGraph.h</text>
</a>
</g>
</g>
<!-- Node1&#45;&gt;Node12 -->
<g id="edge66_Node000001_Node000012" class="edge">
<title>Node1&#45;&gt;Node12</title>
<g id="a_edge66_Node000001_Node000012"><a xlink:title=" ">
<path fill="none" stroke="#63b8ff" d="M1341.26,-339.14C1188.23,-334.72 681.58,-310.87 287,-185 247.78,-172.49 205.43,-150.29 179.56,-135.64"/>
<polygon fill="#63b8ff" stroke="#63b8ff" points="181.59,-132.77 171.17,-130.82 178.1,-138.84 181.59,-132.77"/>
</a>
</g>
</g>
<!-- Node18 -->
<g id="Node000018" class="node">
<title>Node18</title>
<g id="a_Node000018"><a xlink:title=" ">
<polygon fill="#e0e0e0" stroke="#999999" points="1083.75,-185 1030.25,-185 1030.25,-165.75 1083.75,-165.75 1083.75,-185"/>
<text text-anchor="middle" x="1057" y="-171.5" font-family="Helvetica,sans-Serif" font-size="10.00">Rtypes.h</text>
</a>
</g>
</g>
<!-- Node1&#45;&gt;Node18 -->
<g id="edge63_Node000001_Node000018" class="edge">
<title>Node1&#45;&gt;Node18</title>
<g id="a_edge63_Node000001_Node000018"><a xlink:title=" ">
<path fill="none" stroke="#63b8ff" d="M1368.79,-331.09C1314.13,-303.97 1151.24,-223.14 1085.24,-190.39"/>
<polygon fill="#63b8ff" stroke="#63b8ff" points="1087.03,-187.37 1076.51,-186.06 1083.91,-193.64 1087.03,-187.37"/>
</a>
</g>
</g>
<!-- Node27 -->
<g id="Node000027" class="node">
<title>Node27</title>
<g id="a_Node000027"><a xlink:title=" ">
<polygon fill="#e0e0e0" stroke="#999999" points="1658.12,-19.25 1615.88,-19.25 1615.88,0 1658.12,0 1658.12,-19.25"/>
<text text-anchor="middle" x="1637" y="-5.75" font-family="Helvetica,sans-Serif" font-size="10.00">cstdio</text>
</a>
</g>
</g>
<!-- Node1&#45;&gt;Node27 -->
<g id="edge60_Node000001_Node000027" class="edge">
<title>Node1&#45;&gt;Node27</title>
<g id="a_edge60_Node000001_Node000027"><a xlink:title=" ">
<path fill="none" stroke="#63b8ff" d="M1389.64,-331.22C1394.86,-312.8 1406,-269.11 1406,-231.62 1406,-231.62 1406,-231.62 1406,-119.12 1406,-88.8 1406.92,-74.93 1430,-55.25 1488.46,-5.4 1525.73,-35.49 1604.55,-19.49"/>
<polygon fill="#63b8ff" stroke="#63b8ff" points="1604.96,-22.99 1613.95,-17.38 1603.42,-16.16 1604.96,-22.99"/>
</a>
</g>
</g>
<!-- Node28 -->
<g id="Node000028" class="node">
<title>Node28</title>
<g id="a_Node000028"><a xlink:title=" ">
<polygon fill="#e0e0e0" stroke="#999999" points="1720.25,-19.25 1675.75,-19.25 1675.75,0 1720.25,0 1720.25,-19.25"/>
<text text-anchor="middle" x="1698" y="-5.75" font-family="Helvetica,sans-Serif" font-size="10.00">cstdlib</text>
</a>
</g>
</g>
<!-- Node1&#45;&gt;Node28 -->
<g id="edge59_Node000001_Node000028" class="edge">
<title>Node1&#45;&gt;Node28</title>
<g id="a_edge59_Node000001_Node000028"><a xlink:title=" ">
<path fill="none" stroke="#63b8ff" d="M1395.66,-331.11C1411.6,-313.51 1444,-272.69 1444,-231.62 1444,-231.62 1444,-231.62 1444,-119.12 1444,-95.39 1595.91,-43.48 1664.77,-21.16"/>
<polygon fill="#63b8ff" stroke="#63b8ff" points="1665.57,-24.58 1674.02,-18.18 1663.43,-17.92 1665.57,-24.58"/>
</a>
</g>
</g>
<!-- Node45 -->
<g id="Node000045" class="node">
<title>Node45</title>
<g id="a_Node000045"><a xlink:title=" ">
<polygon fill="#e0e0e0" stroke="#999999" points="1517.62,-295.5 1472.38,-295.5 1472.38,-276.25 1517.62,-276.25 1517.62,-295.5"/>
<text text-anchor="middle" x="1495" y="-282" font-family="Helvetica,sans-Serif" font-size="10.00">cstring</text>
</a>
</g>
</g>
<!-- Node1&#45;&gt;Node45 -->
<g id="edge61_Node000001_Node000045" class="edge">
<title>Node1&#45;&gt;Node45</title>
<g id="a_edge61_Node000001_Node000045"><a xlink:title=" ">
<path fill="none" stroke="#63b8ff" d="M1405.32,-331.09C1422.08,-322.83 1447.13,-310.48 1466.5,-300.93"/>
<polygon fill="#63b8ff" stroke="#63b8ff" points="1467.81,-304.18 1475.23,-296.62 1464.72,-297.9 1467.81,-304.18"/>
</a>
</g>
</g>
<!-- Node46 -->
<g id="Node000046" class="node">
<title>Node46</title>
<g id="a_Node000046"><a xlink:title=" ">
<polygon fill="#e0e0e0" stroke="#999999" points="1578.12,-295.5 1535.88,-295.5 1535.88,-276.25 1578.12,-276.25 1578.12,-295.5"/>
<text text-anchor="middle" x="1557" y="-282" font-family="Helvetica,sans-Serif" font-size="10.00">TH1.h</text>
</a>
</g>
</g>
<!-- Node1&#45;&gt;Node46 -->
<g id="edge64_Node000001_Node000046" class="edge">
<title>Node1&#45;&gt;Node46</title>
<g id="a_edge64_Node000001_Node000046"><a xlink:title=" ">
<path fill="none" stroke="#63b8ff" d="M1415.84,-331.09C1446.04,-321.63 1493.37,-306.81 1524.78,-296.97"/>
<polygon fill="#63b8ff" stroke="#63b8ff" points="1525.63,-300.37 1534.13,-294.04 1523.54,-293.69 1525.63,-300.37"/>
</a>
</g>
</g>
<!-- Node47 -->
<g id="Node000047" class="node">
<title>Node47</title>
<g id="a_Node000047"><a xlink:title=" ">
<polygon fill="#e0e0e0" stroke="#999999" points="1637.38,-295.5 1596.62,-295.5 1596.62,-276.25 1637.38,-276.25 1637.38,-295.5"/>
<text text-anchor="middle" x="1617" y="-282" font-family="Helvetica,sans-Serif" font-size="10.00">TF1.h</text>
</a>
</g>
</g>
<!-- Node1&#45;&gt;Node47 -->
<g id="edge65_Node000001_Node000047" class="edge">
<title>Node1&#45;&gt;Node47</title>
<g id="a_edge65_Node000001_Node000047"><a xlink:title=" ">
<path fill="none" stroke="#63b8ff" d="M1431.27,-331.05C1469.54,-323.03 1526.57,-310.64 1585.39,-295.78"/>
<polygon fill="#63b8ff" stroke="#63b8ff" points="1586.1,-299.21 1594.92,-293.35 1584.37,-292.43 1586.1,-299.21"/>
</a>
</g>
</g>
<!-- Node3 -->
<g id="Node000003" class="node">
<title>Node3</title>
<g id="a_Node000003"><a xlink:href="_t_detector_hit_8h.html" target="_top" xlink:title=" ">
<polygon fill="white" stroke="#666666" points="889.5,-240.25 810.5,-240.25 810.5,-221 889.5,-221 889.5,-240.25"/>
<text text-anchor="middle" x="850" y="-226.75" font-family="Helvetica,sans-Serif" font-size="10.00">TDetectorHit.h</text>
</a>
</g>
</g>
<!-- Node2&#45;&gt;Node3 -->
<g id="edge2_Node000002_Node000003" class="edge">
<title>Node2&#45;&gt;Node3</title>
<g id="a_edge2_Node000002_Node000003"><a xlink:title=" ">
<path fill="none" stroke="#63b8ff" d="M963.76,-275.84C941.81,-267.31 908.65,-254.42 883.79,-244.76"/>
<polygon fill="#63b8ff" stroke="#63b8ff" points="885.35,-241.61 874.76,-241.25 882.82,-248.14 885.35,-241.61"/>
</a>
</g>
</g>
<!-- Node2&#45;&gt;Node4 -->
<g id="edge55_Node000002_Node000004" class="edge">
<title>Node2&#45;&gt;Node4</title>
<g id="a_edge55_Node000002_Node000004"><a xlink:title=" ">
<path fill="none" stroke="#63b8ff" d="M951.31,-284.96C794.61,-284.46 170.24,-273.41 57,-129.75 42.56,-111.44 66.69,-92.52 88.93,-80.07"/>
<polygon fill="#63b8ff" stroke="#63b8ff" points="90.31,-83.3 97.53,-75.54 87.05,-77.11 90.31,-83.3"/>
</a>
</g>
</g>
<!-- Node2&#45;&gt;Node18 -->
<g id="edge57_Node000002_Node000018" class="edge">
<title>Node2&#45;&gt;Node18</title>
<g id="a_edge57_Node000002_Node000018"><a xlink:title=" ">
<path fill="none" stroke="#63b8ff" d="M992.73,-276C1004.11,-258.35 1029.79,-218.55 1045.02,-194.95"/>
<polygon fill="#63b8ff" stroke="#63b8ff" points="1047.89,-196.95 1050.37,-186.65 1042.01,-193.15 1047.89,-196.95"/>
</a>
</g>
</g>
<!-- Node20 -->
<g id="Node000020" class="node">
<title>Node20</title>
<g id="a_Node000020"><a xlink:href="_t_p_p_g_8h.html" target="_top" xlink:title=" ">
<polygon fill="white" stroke="#666666" points="1012.25,-185 961.75,-185 961.75,-165.75 1012.25,-165.75 1012.25,-185"/>
<text text-anchor="middle" x="987" y="-171.5" font-family="Helvetica,sans-Serif" font-size="10.00">TPPG.h</text>
</a>
</g>
</g>
<!-- Node2&#45;&gt;Node20 -->
<g id="edge53_Node000002_Node000020" class="edge">
<title>Node2&#45;&gt;Node20</title>
<g id="a_edge53_Node000002_Node000020"><a xlink:title=" ">
<path fill="none" stroke="#63b8ff" d="M987,-276C987,-258.75 987,-220.33 987,-196.56"/>
<polygon fill="#63b8ff" stroke="#63b8ff" points="990.5,-196.89 987,-186.89 983.5,-196.89 990.5,-196.89"/>
</a>
</g>
</g>
<!-- Node22 -->
<g id="Node000022" class="node">
<title>Node22</title>
<g id="a_Node000022"><a xlink:title=" ">
<polygon fill="#e0e0e0" stroke="#999999" points="890.75,-19.25 837.25,-19.25 837.25,0 890.75,0 890.75,-19.25"/>
<text text-anchor="middle" x="864" y="-5.75" font-family="Helvetica,sans-Serif" font-size="10.00">iostream</text>
</a>
</g>
</g>
<!-- Node2&#45;&gt;Node22 -->
<g id="edge54_Node000002_Node000022" class="edge">
<title>Node2&#45;&gt;Node22</title>
<g id="a_edge54_Node000002_Node000022"><a xlink:title=" ">
<path fill="none" stroke="#63b8ff" d="M1022.82,-279.96C1103.8,-267.84 1294,-233.33 1294,-176.38 1294,-176.38 1294,-176.38 1294,-119.12 1294,-89.51 1297.87,-74.07 1275,-55.25 1212.89,-4.12 1000.12,-30.74 902.38,-19.14"/>
<polygon fill="#63b8ff" stroke="#63b8ff" points="902.94,-15.69 892.54,-17.74 901.95,-22.62 902.94,-15.69"/>
</a>
</g>
</g>
<!-- Node44 -->
<g id="Node000044" class="node">
<title>Node44</title>
<g id="a_Node000044"><a xlink:title=" ">
<polygon fill="#e0e0e0" stroke="#999999" points="792,-240.25 752,-240.25 752,-221 792,-221 792,-240.25"/>
<text text-anchor="middle" x="772" y="-226.75" font-family="Helvetica,sans-Serif" font-size="10.00">ctime</text>
</a>
</g>
</g>
<!-- Node2&#45;&gt;Node44 -->
<g id="edge56_Node000002_Node000044" class="edge">
<title>Node2&#45;&gt;Node44</title>
<g id="a_edge56_Node000002_Node000044"><a xlink:title=" ">
<path fill="none" stroke="#63b8ff" d="M951.42,-276.77C916.27,-268.67 860.74,-255.57 803.09,-240.44"/>
<polygon fill="#63b8ff" stroke="#63b8ff" points="804.33,-237.15 793.76,-237.98 802.54,-243.91 804.33,-237.15"/>
</a>
</g>
</g>
<!-- Node3&#45;&gt;Node4 -->
<g id="edge3_Node000003_Node000004" class="edge">
<title>Node3&#45;&gt;Node4</title>
<g id="a_edge3_Node000003_Node000004"><a xlink:title=" ">
<path fill="none" stroke="#63b8ff" d="M810.2,-222.28C807.1,-221.81 804,-221.38 801,-221 589.61,-194.5 526.41,-248.34 323,-185 313.29,-181.98 196.18,-112.13 143.91,-80.82"/>
<polygon fill="#63b8ff" stroke="#63b8ff" points="145.76,-77.85 135.39,-75.71 142.16,-83.86 145.76,-77.85"/>
</a>
</g>
</g>
<!-- Node5 -->
<g id="Node000005" class="node">
<title>Node5</title>
<g id="a_Node000005"><a xlink:href="_t_channel_8h.html" target="_top" xlink:title=" ">
<polygon fill="white" stroke="#666666" points="561.38,-185 496.62,-185 496.62,-165.75 561.38,-165.75 561.38,-185"/>
<text text-anchor="middle" x="529" y="-171.5" font-family="Helvetica,sans-Serif" font-size="10.00">TChannel.h</text>
</a>
</g>
</g>
<!-- Node3&#45;&gt;Node5 -->
<g id="edge4_Node000003_Node000005" class="edge">
<title>Node3&#45;&gt;Node5</title>
<g id="a_edge4_Node000003_Node000005"><a xlink:title=" ">
<path fill="none" stroke="#63b8ff" d="M810.16,-222.57C807.06,-222.04 803.98,-221.51 801,-221 720.57,-207.32 626.63,-192.07 572.85,-183.41"/>
<polygon fill="#63b8ff" stroke="#63b8ff" points="573.6,-179.98 563.17,-181.85 572.49,-186.9 573.6,-179.98"/>
</a>
</g>
</g>
<!-- Node16 -->
<g id="Node000016" class="node">
<title>Node16</title>
<g id="a_Node000016"><a xlink:title=" ">
<polygon fill="#e0e0e0" stroke="#999999" points="395.62,-185 332.38,-185 332.38,-165.75 395.62,-165.75 395.62,-185"/>
<text text-anchor="middle" x="364" y="-171.5" font-family="Helvetica,sans-Serif" font-size="10.00">TVector3.h</text>
</a>
</g>
</g>
<!-- Node3&#45;&gt;Node16 -->
<g id="edge17_Node000003_Node000016" class="edge">
<title>Node3&#45;&gt;Node16</title>
<g id="a_edge17_Node000003_Node000016"><a xlink:title=" ">
<path fill="none" stroke="#63b8ff" d="M810.2,-222.33C807.09,-221.85 804,-221.4 801,-221 629.07,-198.11 581.14,-211.15 407.18,-185.32"/>
<polygon fill="#63b8ff" stroke="#63b8ff" points="407.72,-181.86 397.31,-183.83 406.67,-188.78 407.72,-181.86"/>
</a>
</g>
</g>
<!-- Node17 -->
<g id="Node000017" class="node">
<title>Node17</title>
<g id="a_Node000017"><a xlink:title=" ">
<polygon fill="#e0e0e0" stroke="#999999" points="950,-74.5 892,-74.5 892,-55.25 950,-55.25 950,-74.5"/>
<text text-anchor="middle" x="921" y="-61" font-family="Helvetica,sans-Serif" font-size="10.00">TObject.h</text>
</a>
</g>
</g>
<!-- Node3&#45;&gt;Node17 -->
<g id="edge18_Node000003_Node000017" class="edge">
<title>Node3&#45;&gt;Node17</title>
<g id="a_edge18_Node000003_Node000017"><a xlink:title=" ">
<path fill="none" stroke="#63b8ff" d="M853.82,-220.82C864.89,-195.28 897.23,-120.7 912.64,-85.15"/>
<polygon fill="#63b8ff" stroke="#63b8ff" points="915.79,-86.68 916.56,-76.11 909.37,-83.89 915.79,-86.68"/>
</a>
</g>
</g>
<!-- Node3&#45;&gt;Node18 -->
<g id="edge19_Node000003_Node000018" class="edge">
<title>Node3&#45;&gt;Node18</title>
<g id="a_edge19_Node000003_Node000018"><a xlink:title=" ">
<path fill="none" stroke="#63b8ff" d="M885.11,-220.59C922.38,-211 981.07,-195.91 1019.29,-186.07"/>
<polygon fill="#63b8ff" stroke="#63b8ff" points="1019.7,-189.58 1028.51,-183.7 1017.95,-182.81 1019.7,-189.58"/>
</a>
</g>
</g>
<!-- Node19 -->
<g id="Node000019" class="node">
<title>Node19</title>
<g id="a_Node000019"><a xlink:title=" ">
<polygon fill="#e0e0e0" stroke="#999999" points="478.75,-185 413.25,-185 413.25,-165.75 478.75,-165.75 478.75,-185"/>
<text text-anchor="middle" x="446" y="-171.5" font-family="Helvetica,sans-Serif" font-size="10.00">TRandom.h</text>
</a>
</g>
</g>
<!-- Node3&#45;&gt;Node19 -->
<g id="edge20_Node000003_Node000019" class="edge">
<title>Node3&#45;&gt;Node19</title>
<g id="a_edge20_Node000003_Node000019"><a xlink:title=" ">
<path fill="none" stroke="#63b8ff" d="M810.19,-222.41C807.08,-221.91 803.99,-221.43 801,-221 665.95,-201.37 628.17,-206.8 489.97,-185.18"/>
<polygon fill="#63b8ff" stroke="#63b8ff" points="490.88,-181.78 480.46,-183.67 489.79,-188.69 490.88,-181.78"/>
</a>
</g>
</g>
<!-- Node3&#45;&gt;Node20 -->
<g id="edge21_Node000003_Node000020" class="edge">
<title>Node3&#45;&gt;Node20</title>
<g id="a_edge21_Node000003_Node000020"><a xlink:title=" ">
<path fill="none" stroke="#63b8ff" d="M873.24,-220.59C895.19,-212.06 928.35,-199.17 953.21,-189.51"/>
<polygon fill="#63b8ff" stroke="#63b8ff" points="954.18,-192.89 962.24,-186 951.65,-186.36 954.18,-192.89"/>
</a>
</g>
</g>
<!-- Node42 -->
<g id="Node000042" class="node">
<title>Node42</title>
<g id="a_Node000042"><a xlink:href="_t_transient_bits_8h.html" target="_top" xlink:title=" ">
<polygon fill="white" stroke="#666666" points="833.62,-185 746.38,-185 746.38,-165.75 833.62,-165.75 833.62,-185"/>
<text text-anchor="middle" x="790" y="-171.5" font-family="Helvetica,sans-Serif" font-size="10.00">TTransientBits.h</text>
</a>
</g>
</g>
<!-- Node3&#45;&gt;Node42 -->
<g id="edge50_Node000003_Node000042" class="edge">
<title>Node3&#45;&gt;Node42</title>
<g id="a_edge50_Node000003_Node000042"><a xlink:title=" ">
<path fill="none" stroke="#63b8ff" d="M839.82,-220.59C831.24,-212.97 818.73,-201.87 808.4,-192.7"/>
<polygon fill="#63b8ff" stroke="#63b8ff" points="810.96,-190.3 801.16,-186.28 806.32,-195.54 810.96,-190.3"/>
</a>
</g>
</g>
<!-- Node6 -->
<g id="Node000006" class="node">
<title>Node6</title>
<g id="a_Node000006"><a xlink:title=" ">
<polygon fill="#e0e0e0" stroke="#999999" points="380,-19.25 340,-19.25 340,0 380,0 380,-19.25"/>
<text text-anchor="middle" x="360" y="-5.75" font-family="Helvetica,sans-Serif" font-size="10.00">string</text>
</a>
</g>
</g>
<!-- Node5&#45;&gt;Node6 -->
<g id="edge5_Node000005_Node000006" class="edge">
<title>Node5&#45;&gt;Node6</title>
<g id="a_edge5_Node000005_Node000006"><a xlink:title=" ">
<path fill="none" stroke="#63b8ff" d="M496.35,-167.37C493.53,-166.8 490.72,-166.26 488,-165.75 439.3,-156.65 300.08,-167.5 268,-129.75 237.15,-93.44 296.93,-48.41 333.88,-25.51"/>
<polygon fill="#63b8ff" stroke="#63b8ff" points="335.54,-28.6 342.3,-20.45 331.93,-22.6 335.54,-28.6"/>
</a>
</g>
</g>
<!-- Node5&#45;&gt;Node7 -->
<g id="edge6_Node000005_Node000007" class="edge">
<title>Node5&#45;&gt;Node7</title>
<g id="a_edge6_Node000005_Node000007"><a xlink:title=" ">
<path fill="none" stroke="#63b8ff" d="M496.39,-167.18C493.56,-166.65 490.73,-166.17 488,-165.75 328.36,-141.27 282.35,-159.83 121.14,-130.04"/>
<polygon fill="#63b8ff" stroke="#63b8ff" points="121.81,-126.6 111.33,-128.19 120.51,-133.48 121.81,-126.6"/>
</a>
</g>
</g>
<!-- Node8 -->
<g id="Node000008" class="node">
<title>Node8</title>
<g id="a_Node000008"><a xlink:title=" ">
<polygon fill="#e0e0e0" stroke="#999999" points="883.25,-129.75 844.75,-129.75 844.75,-110.5 883.25,-110.5 883.25,-129.75"/>
<text text-anchor="middle" x="864" y="-116.25" font-family="Helvetica,sans-Serif" font-size="10.00">utility</text>
</a>
</g>
</g>
<!-- Node5&#45;&gt;Node8 -->
<g id="edge7_Node000005_Node000008" class="edge">
<title>Node5&#45;&gt;Node8</title>
<g id="a_edge7_Node000005_Node000008"><a xlink:title=" ">
<path fill="none" stroke="#63b8ff" d="M561.57,-171.31C616.03,-165.83 729.14,-152.93 833.48,-130.02"/>
<polygon fill="#63b8ff" stroke="#63b8ff" points="834.05,-133.48 843.04,-127.88 832.52,-126.64 834.05,-133.48"/>
</a>
</g>
</g>
<!-- Node9 -->
<g id="Node000009" class="node">
<title>Node9</title>
<g id="a_Node000009"><a xlink:title=" ">
<polygon fill="#e0e0e0" stroke="#999999" points="617.38,-129.75 534.62,-129.75 534.62,-110.5 617.38,-110.5 617.38,-129.75"/>
<text text-anchor="middle" x="576" y="-116.25" font-family="Helvetica,sans-Serif" font-size="10.00">unordered_map</text>
</a>
</g>
</g>
<!-- Node5&#45;&gt;Node9 -->
<g id="edge8_Node000005_Node000009" class="edge">
<title>Node5&#45;&gt;Node9</title>
<g id="a_edge8_Node000005_Node000009"><a xlink:title=" ">
<path fill="none" stroke="#63b8ff" d="M536.76,-165.58C543.19,-158.3 552.51,-147.73 560.46,-138.73"/>
<polygon fill="#63b8ff" stroke="#63b8ff" points="563.08,-141.06 567.07,-131.24 557.83,-136.43 563.08,-141.06"/>
</a>
</g>
</g>
<!-- Node10 -->
<g id="Node000010" class="node">
<title>Node10</title>
<g id="a_Node000010"><a xlink:title=" ">
<polygon fill="#e0e0e0" stroke="#999999" points="696.5,-129.75 635.5,-129.75 635.5,-110.5 696.5,-110.5 696.5,-129.75"/>
<text text-anchor="middle" x="666" y="-116.25" font-family="Helvetica,sans-Serif" font-size="10.00">TNamed.h</text>
</a>
</g>
</g>
<!-- Node5&#45;&gt;Node10 -->
<g id="edge9_Node000005_Node000010" class="edge">
<title>Node5&#45;&gt;Node10</title>
<g id="a_edge9_Node000005_Node000010"><a xlink:title=" ">
<path fill="none" stroke="#63b8ff" d="M552.24,-165.34C574.19,-156.81 607.35,-143.92 632.21,-134.26"/>
<polygon fill="#63b8ff" stroke="#63b8ff" points="633.18,-137.64 641.24,-130.75 630.65,-131.11 633.18,-137.64"/>
</a>
</g>
</g>
<!-- Node11 -->
<g id="Node000011" class="node">
<title>Node11</title>
<g id="a_Node000011"><a xlink:title=" ">
<polygon fill="#e0e0e0" stroke="#999999" points="326.5,-129.75 277.5,-129.75 277.5,-110.5 326.5,-110.5 326.5,-129.75"/>
<text text-anchor="middle" x="302" y="-116.25" font-family="Helvetica,sans-Serif" font-size="10.00">TTree.h</text>
</a>
</g>
</g>
<!-- Node5&#45;&gt;Node11 -->
<g id="edge10_Node000005_Node000011" class="edge">
<title>Node5&#45;&gt;Node11</title>
<g id="a_edge10_Node000005_Node000011"><a xlink:title=" ">
<path fill="none" stroke="#63b8ff" d="M496.17,-167.01C459.9,-158.82 399.49,-145.04 337.96,-130.18"/>
<polygon fill="#63b8ff" stroke="#63b8ff" points="338.88,-126.81 328.34,-127.85 337.23,-133.61 338.88,-126.81"/>
</a>
</g>
</g>
<!-- Node5&#45;&gt;Node12 -->
<g id="edge11_Node000005_Node000012" class="edge">
<title>Node5&#45;&gt;Node12</title>
<g id="a_edge11_Node000005_Node000012"><a xlink:title=" ">
<path fill="none" stroke="#63b8ff" d="M496.37,-167.28C493.54,-166.74 490.72,-166.22 488,-165.75 382.42,-147.6 256.93,-132.52 194.45,-125.45"/>
<polygon fill="#63b8ff" stroke="#63b8ff" points="195.01,-121.99 184.68,-124.36 194.23,-128.95 195.01,-121.99"/>
</a>
</g>
</g>
<!-- Node13 -->
<g id="Node000013" class="node">
<title>Node13</title>
<g id="a_Node000013"><a xlink:title=" ">
<polygon fill="#e0e0e0" stroke="#999999" points="516.62,-129.75 447.38,-129.75 447.38,-110.5 516.62,-110.5 516.62,-129.75"/>
<text text-anchor="middle" x="482" y="-116.25" font-family="Helvetica,sans-Serif" font-size="10.00">TClassRef.h</text>
</a>
</g>
</g>
<!-- Node5&#45;&gt;Node13 -->
<g id="edge12_Node000005_Node000013" class="edge">
<title>Node5&#45;&gt;Node13</title>
<g id="a_edge12_Node000005_Node000013"><a xlink:title=" ">
<path fill="none" stroke="#63b8ff" d="M521.24,-165.58C514.81,-158.3 505.49,-147.73 497.54,-138.73"/>
<polygon fill="#63b8ff" stroke="#63b8ff" points="500.17,-136.43 490.93,-131.24 494.92,-141.06 500.17,-136.43"/>
</a>
</g>
</g>
<!-- Node14 -->
<g id="Node000014" class="node">
<title>Node14</title>
<g id="a_Node000014"><a xlink:href="_t_priority_value_8h.html" target="_top" xlink:title=" ">
<polygon fill="white" stroke="#666666" points="429.12,-129.75 344.88,-129.75 344.88,-110.5 429.12,-110.5 429.12,-129.75"/>
<text text-anchor="middle" x="387" y="-116.25" font-family="Helvetica,sans-Serif" font-size="10.00">TPriorityValue.h</text>
</a>
</g>
</g>
<!-- Node5&#45;&gt;Node14 -->
<g id="edge13_Node000005_Node000014" class="edge">
<title>Node5&#45;&gt;Node14</title>
<g id="a_edge13_Node000005_Node000014"><a xlink:title=" ">
<path fill="none" stroke="#63b8ff" d="M504.91,-165.34C482.06,-156.77 447.48,-143.81 421.67,-134.13"/>
<polygon fill="#63b8ff" stroke="#63b8ff" points="423.22,-130.97 412.62,-130.73 420.76,-137.52 423.22,-130.97"/>
</a>
</g>
</g>
<!-- Node14&#45;&gt;Node4 -->
<g id="edge16_Node000014_Node000004" class="edge">
<title>Node14&#45;&gt;Node4</title>
<g id="a_edge16_Node000014_Node000004"><a xlink:title=" ">
<path fill="none" stroke="#63b8ff" d="M344.53,-110.69C291.08,-100.07 200.41,-82.05 151.92,-72.42"/>
<polygon fill="#63b8ff" stroke="#63b8ff" points="152.8,-69.02 142.31,-70.51 151.44,-75.89 152.8,-69.02"/>
</a>
</g>
</g>
<!-- Node14&#45;&gt;Node6 -->
<g id="edge15_Node000014_Node000006" class="edge">
<title>Node14&#45;&gt;Node6</title>
<g id="a_edge15_Node000014_Node000006"><a xlink:title=" ">
<path fill="none" stroke="#63b8ff" d="M384.79,-110.25C380.48,-92.92 370.85,-54.23 364.94,-30.49"/>
<polygon fill="#63b8ff" stroke="#63b8ff" points="368.42,-29.95 362.61,-21.1 361.62,-31.64 368.42,-29.95"/>
</a>
</g>
</g>
<!-- Node15 -->
<g id="Node000015" class="node">
<title>Node15</title>
<g id="a_Node000015"><a xlink:title=" ">
<polygon fill="#e0e0e0" stroke="#999999" points="439.62,-74.5 388.38,-74.5 388.38,-55.25 439.62,-55.25 439.62,-74.5"/>
<text text-anchor="middle" x="414" y="-61" font-family="Helvetica,sans-Serif" font-size="10.00">ostream</text>
</a>
</g>
</g>
<!-- Node14&#45;&gt;Node15 -->
<g id="edge14_Node000014_Node000015" class="edge">
<title>Node14&#45;&gt;Node15</title>
<g id="a_edge14_Node000014_Node000015"><a xlink:title=" ">
<path fill="none" stroke="#63b8ff" d="M391.46,-110.33C394.95,-103.44 399.95,-93.59 404.35,-84.91"/>
<polygon fill="#63b8ff" stroke="#63b8ff" points="407.36,-86.71 408.76,-76.21 401.12,-83.55 407.36,-86.71"/>
</a>
</g>
</g>
<!-- Node20&#45;&gt;Node8 -->
<g id="edge23_Node000020_Node000008" class="edge">
<title>Node20&#45;&gt;Node8</title>
<g id="a_edge23_Node000020_Node000008"><a xlink:title=" ">
<path fill="none" stroke="#63b8ff" d="M966.13,-165.34C946.34,-156.77 916.39,-143.81 894.03,-134.13"/>
<polygon fill="#63b8ff" stroke="#63b8ff" points="895.7,-131.04 885.13,-130.27 892.92,-137.46 895.7,-131.04"/>
</a>
</g>
</g>
<!-- Node20&#45;&gt;Node17 -->
<g id="edge25_Node000020_Node000017" class="edge">
<title>Node20&#45;&gt;Node17</title>
<g id="a_edge25_Node000020_Node000017"><a xlink:title=" ">
<path fill="none" stroke="#63b8ff" d="M984.89,-165.61C981.56,-152.82 974.28,-128.6 963,-110.5 956.64,-100.29 947.7,-90.39 939.7,-82.52"/>
<polygon fill="#63b8ff" stroke="#63b8ff" points="942.35,-80.2 932.66,-75.9 937.55,-85.3 942.35,-80.2"/>
</a>
</g>
</g>
<!-- Node21 -->
<g id="Node000021" class="node">
<title>Node21</title>
<g id="a_Node000021"><a xlink:title=" ">
<polygon fill="#e0e0e0" stroke="#999999" points="1049.38,-129.75 1014.62,-129.75 1014.62,-110.5 1049.38,-110.5 1049.38,-129.75"/>
<text text-anchor="middle" x="1032" y="-116.25" font-family="Helvetica,sans-Serif" font-size="10.00">map</text>
</a>
</g>
</g>
<!-- Node20&#45;&gt;Node21 -->
<g id="edge22_Node000020_Node000021" class="edge">
<title>Node20&#45;&gt;Node21</title>
<g id="a_edge22_Node000020_Node000021"><a xlink:title=" ">
<path fill="none" stroke="#63b8ff" d="M994.43,-165.58C1000.58,-158.3 1009.51,-147.73 1017.13,-138.73"/>
<polygon fill="#63b8ff" stroke="#63b8ff" points="1019.65,-141.16 1023.43,-131.27 1014.3,-136.64 1019.65,-141.16"/>
</a>
</g>
</g>
<!-- Node20&#45;&gt;Node22 -->
<g id="edge24_Node000020_Node000022" class="edge">
<title>Node20&#45;&gt;Node22</title>
<g id="a_edge24_Node000020_Node000022"><a xlink:title=" ">
<path fill="none" stroke="#63b8ff" d="M974.07,-165.48C952.1,-149.71 907.49,-114.69 883,-74.5 874.79,-61.02 869.93,-43.77 867.19,-30.6"/>
<polygon fill="#63b8ff" stroke="#63b8ff" points="870.67,-30.17 865.43,-20.96 863.78,-31.42 870.67,-30.17"/>
</a>
</g>
</g>
<!-- Node23 -->
<g id="Node000023" class="node">
<title>Node23</title>
<g id="a_Node000023"><a xlink:title=" ">
<polygon fill="#e0e0e0" stroke="#999999" points="1140.12,-129.75 1067.88,-129.75 1067.88,-110.5 1140.12,-110.5 1140.12,-129.75"/>
<text text-anchor="middle" x="1104" y="-116.25" font-family="Helvetica,sans-Serif" font-size="10.00">TCollection.h</text>
</a>
</g>
</g>
<!-- Node20&#45;&gt;Node23 -->
<g id="edge26_Node000020_Node000023" class="edge">
<title>Node20&#45;&gt;Node23</title>
<g id="a_edge26_Node000020_Node000023"><a xlink:title=" ">
<path fill="none" stroke="#63b8ff" d="M1006.85,-165.34C1025.17,-157 1052.65,-144.5 1073.71,-134.91"/>
<polygon fill="#63b8ff" stroke="#63b8ff" points="1075.03,-138.16 1082.68,-130.83 1072.13,-131.79 1075.03,-138.16"/>
</a>
</g>
</g>
<!-- Node24 -->
<g id="Node000024" class="node">
<title>Node24</title>
<g id="a_Node000024"><a xlink:href="_globals_8h.html" target="_top" xlink:title=" ">
<polygon fill="white" stroke="#666666" points="1378.25,-74.5 1321.75,-74.5 1321.75,-55.25 1378.25,-55.25 1378.25,-74.5"/>
<text text-anchor="middle" x="1350" y="-61" font-family="Helvetica,sans-Serif" font-size="10.00">Globals.h</text>
</a>
</g>
</g>
<!-- Node20&#45;&gt;Node24 -->
<g id="edge27_Node000020_Node000024" class="edge">
<title>Node20&#45;&gt;Node24</title>
<g id="a_edge27_Node000020_Node000024"><a xlink:title=" ">
<path fill="none" stroke="#63b8ff" d="M1012.57,-167.65C1015.4,-166.97 1018.26,-166.33 1021,-165.75 1116.25,-145.77 1145.24,-162.19 1237,-129.75 1270.75,-117.82 1306.12,-96.1 1328.11,-81.34"/>
<polygon fill="#63b8ff" stroke="#63b8ff" points="1329.97,-84.31 1336.24,-75.77 1326.01,-78.53 1329.97,-84.31"/>
</a>
</g>
</g>
<!-- Node37 -->
<g id="Node000037" class="node">
<title>Node37</title>
<g id="a_Node000037"><a xlink:href="_t_singleton_8h.html" target="_top" xlink:title=" ">
<polygon fill="white" stroke="#666666" points="1228,-129.75 1158,-129.75 1158,-110.5 1228,-110.5 1228,-129.75"/>
<text text-anchor="middle" x="1193" y="-116.25" font-family="Helvetica,sans-Serif" font-size="10.00">TSingleton.h</text>
</a>
</g>
</g>
<!-- Node20&#45;&gt;Node37 -->
<g id="edge42_Node000020_Node000037" class="edge">
<title>Node20&#45;&gt;Node37</title>
<g id="a_edge42_Node000020_Node000037"><a xlink:title=" ">
<path fill="none" stroke="#63b8ff" d="M1012.67,-167.74C1046.26,-159.06 1105.71,-143.69 1147.13,-132.98"/>
<polygon fill="#63b8ff" stroke="#63b8ff" points="1147.77,-136.43 1156.57,-130.54 1146.01,-129.66 1147.77,-136.43"/>
</a>
</g>
</g>
<!-- Node24&#45;&gt;Node6 -->
<g id="edge31_Node000024_Node000006" class="edge">
<title>Node24&#45;&gt;Node6</title>
<g id="a_edge31_Node000024_Node000006"><a xlink:title=" ">
<path fill="none" stroke="#63b8ff" d="M1321.55,-60.16C1307.55,-58.44 1290.41,-56.51 1275,-55.25 929.39,-26.98 508.76,-14.49 391.6,-11.41"/>
<polygon fill="#63b8ff" stroke="#63b8ff" points="391.92,-7.92 381.83,-11.16 391.74,-14.92 391.92,-7.92"/>
</a>
</g>
</g>
<!-- Node24&#45;&gt;Node22 -->
<g id="edge28_Node000024_Node000022" class="edge">
<title>Node24&#45;&gt;Node22</title>
<g id="a_edge28_Node000024_Node000022"><a xlink:title=" ">
<path fill="none" stroke="#63b8ff" d="M1321.61,-57.59C1317.07,-56.71 1312.42,-55.9 1308,-55.25 1131.49,-29.43 1081.65,-47.77 902.2,-19.36"/>
<polygon fill="#63b8ff" stroke="#63b8ff" points="902.96,-15.93 892.53,-17.8 901.85,-22.84 902.96,-15.93"/>
</a>
</g>
</g>
<!-- Node25 -->
<g id="Node000025" class="node">
<title>Node25</title>
<g id="a_Node000025"><a xlink:title=" ">
<polygon fill="#e0e0e0" stroke="#999999" points="1305.88,-19.25 1256.12,-19.25 1256.12,0 1305.88,0 1305.88,-19.25"/>
<text text-anchor="middle" x="1281" y="-5.75" font-family="Helvetica,sans-Serif" font-size="10.00">iomanip</text>
</a>
</g>
</g>
<!-- Node24&#45;&gt;Node25 -->
<g id="edge29_Node000024_Node000025" class="edge">
<title>Node24&#45;&gt;Node25</title>
<g id="a_edge29_Node000024_Node000025"><a xlink:title=" ">
<path fill="none" stroke="#63b8ff" d="M1338.3,-54.84C1328.22,-47.07 1313.46,-35.67 1301.44,-26.4"/>
<polygon fill="#63b8ff" stroke="#63b8ff" points="1303.79,-23.79 1293.73,-20.45 1299.51,-29.33 1303.79,-23.79"/>
</a>
</g>
</g>
<!-- Node26 -->
<g id="Node000026" class="node">
<title>Node26</title>
<g id="a_Node000026"><a xlink:title=" ">
<polygon fill="#e0e0e0" stroke="#999999" points="1382,-19.25 1324,-19.25 1324,0 1382,0 1382,-19.25"/>
<text text-anchor="middle" x="1353" y="-5.75" font-family="Helvetica,sans-Serif" font-size="10.00">stdexcept</text>
</a>
</g>
</g>
<!-- Node24&#45;&gt;Node26 -->
<g id="edge30_Node000024_Node000026" class="edge">
<title>Node24&#45;&gt;Node26</title>
<g id="a_edge30_Node000024_Node000026"><a xlink:title=" ">
<path fill="none" stroke="#63b8ff" d="M1350.5,-55.08C1350.87,-48.49 1351.39,-39.21 1351.86,-30.82"/>
<polygon fill="#63b8ff" stroke="#63b8ff" points="1355.34,-31.3 1352.41,-21.12 1348.35,-30.91 1355.34,-31.3"/>
</a>
</g>
</g>
<!-- Node24&#45;&gt;Node27 -->
<g id="edge32_Node000024_Node000027" class="edge">
<title>Node24&#45;&gt;Node27</title>
<g id="a_edge32_Node000024_Node000027"><a xlink:title=" ">
<path fill="none" stroke="#63b8ff" d="M1378.44,-57.89C1382.97,-56.98 1387.61,-56.07 1392,-55.25 1483.71,-38.16 1510.54,-40.46 1604.3,-19.65"/>
<polygon fill="#63b8ff" stroke="#63b8ff" points="1604.98,-23.09 1613.97,-17.47 1603.44,-16.26 1604.98,-23.09"/>
</a>
</g>
</g>
<!-- Node24&#45;&gt;Node28 -->
<g id="edge33_Node000024_Node000028" class="edge">
<title>Node24&#45;&gt;Node28</title>
<g id="a_edge33_Node000024_Node000028"><a xlink:title=" ">
<path fill="none" stroke="#63b8ff" d="M1378.53,-60.35C1442.09,-52.42 1594.65,-32.94 1664.53,-19.47"/>
<polygon fill="#63b8ff" stroke="#63b8ff" points="1664.8,-22.99 1673.91,-17.58 1663.42,-16.13 1664.8,-22.99"/>
</a>
</g>
</g>
<!-- Node29 -->
<g id="Node000029" class="node">
<title>Node29</title>
<g id="a_Node000029"><a xlink:title=" ">
<polygon fill="#e0e0e0" stroke="#999999" points="1459.75,-19.25 1400.25,-19.25 1400.25,0 1459.75,0 1459.75,-19.25"/>
<text text-anchor="middle" x="1430" y="-5.75" font-family="Helvetica,sans-Serif" font-size="10.00">execinfo.h</text>
</a>
</g>
</g>
<!-- Node24&#45;&gt;Node29 -->
<g id="edge34_Node000024_Node000029" class="edge">
<title>Node24&#45;&gt;Node29</title>
<g id="a_edge34_Node000024_Node000029"><a xlink:title=" ">
<path fill="none" stroke="#63b8ff" d="M1363.57,-54.84C1375.41,-46.96 1392.84,-35.36 1406.87,-26.02"/>
<polygon fill="#63b8ff" stroke="#63b8ff" points="1408.72,-29 1415.1,-20.54 1404.84,-23.17 1408.72,-29"/>
</a>
</g>
</g>
<!-- Node30 -->
<g id="Node000030" class="node">
<title>Node30</title>
<g id="a_Node000030"><a xlink:title=" ">
<polygon fill="#e0e0e0" stroke="#999999" points="1528.25,-19.25 1477.75,-19.25 1477.75,0 1528.25,0 1528.25,-19.25"/>
<text text-anchor="middle" x="1503" y="-5.75" font-family="Helvetica,sans-Serif" font-size="10.00">cxxabi.h</text>
</a>
</g>
</g>
<!-- Node24&#45;&gt;Node30 -->
<g id="edge35_Node000024_Node000030" class="edge">
<title>Node24&#45;&gt;Node30</title>
<g id="a_edge35_Node000024_Node000030"><a xlink:title=" ">
<path fill="none" stroke="#63b8ff" d="M1375.95,-54.84C1400.94,-46.14 1438.95,-32.92 1466.89,-23.19"/>
<polygon fill="#63b8ff" stroke="#63b8ff" points="1467.71,-26.61 1476,-20.02 1465.4,-20 1467.71,-26.61"/>
</a>
</g>
</g>
<!-- Node31 -->
<g id="Node000031" class="node">
<title>Node31</title>
<g id="a_Node000031"><a xlink:title=" ">
<polygon fill="#e0e0e0" stroke="#999999" points="1597.62,-19.25 1546.38,-19.25 1546.38,0 1597.62,0 1597.62,-19.25"/>
<text text-anchor="middle" x="1572" y="-5.75" font-family="Helvetica,sans-Serif" font-size="10.00">sstream</text>
</a>
</g>
</g>
<!-- Node24&#45;&gt;Node31 -->
<g id="edge36_Node000024_Node000031" class="edge">
<title>Node24&#45;&gt;Node31</title>
<g id="a_edge36_Node000024_Node000031"><a xlink:title=" ">
<path fill="none" stroke="#63b8ff" d="M1378.53,-57.14C1413.14,-48.95 1473.54,-34.6 1534.95,-19.73"/>
<polygon fill="#63b8ff" stroke="#63b8ff" points="1535.65,-23.17 1544.54,-17.41 1534,-16.36 1535.65,-23.17"/>
</a>
</g>
</g>
<!-- Node32 -->
<g id="Node000032" class="node">
<title>Node32</title>
<g id="a_Node000032"><a xlink:title=" ">
<polygon fill="#e0e0e0" stroke="#999999" points="945.5,-19.25 908.5,-19.25 908.5,0 945.5,0 945.5,-19.25"/>
<text text-anchor="middle" x="927" y="-5.75" font-family="Helvetica,sans-Serif" font-size="10.00">array</text>
</a>
</g>
</g>
<!-- Node24&#45;&gt;Node32 -->
<g id="edge37_Node000024_Node000032" class="edge">
<title>Node24&#45;&gt;Node32</title>
<g id="a_edge37_Node000024_Node000032"><a xlink:title=" ">
<path fill="none" stroke="#63b8ff" d="M1321.6,-57.64C1317.07,-56.76 1312.41,-55.93 1308,-55.25 1155.62,-31.89 1111.52,-49.77 956.7,-19.17"/>
<polygon fill="#63b8ff" stroke="#63b8ff" points="957.83,-15.83 947.33,-17.28 956.44,-22.69 957.83,-15.83"/>
</a>
</g>
</g>
<!-- Node33 -->
<g id="Node000033" class="node">
<title>Node33</title>
<g id="a_Node000033"><a xlink:title=" ">
<polygon fill="#e0e0e0" stroke="#999999" points="1014.25,-19.25 963.75,-19.25 963.75,0 1014.25,0 1014.25,-19.25"/>
<text text-anchor="middle" x="989" y="-5.75" font-family="Helvetica,sans-Serif" font-size="10.00">memory</text>
</a>
</g>
</g>
<!-- Node24&#45;&gt;Node33 -->
<g id="edge38_Node000024_Node000033" class="edge">
<title>Node24&#45;&gt;Node33</title>
<g id="a_edge38_Node000024_Node000033"><a xlink:title=" ">
<path fill="none" stroke="#63b8ff" d="M1321.59,-57.73C1317.05,-56.84 1312.41,-55.98 1308,-55.25 1185.61,-34.98 1150.42,-42.53 1025.68,-19.55"/>
<polygon fill="#63b8ff" stroke="#63b8ff" points="1026.51,-16.14 1016.03,-17.74 1025.22,-23.02 1026.51,-16.14"/>
</a>
</g>
</g>
<!-- Node34 -->
<g id="Node000034" class="node">
<title>Node34</title>
<g id="a_Node000034"><a xlink:title=" ">
<polygon fill="#e0e0e0" stroke="#999999" points="1081.88,-19.25 1032.12,-19.25 1032.12,0 1081.88,0 1081.88,-19.25"/>
<text text-anchor="middle" x="1057" y="-5.75" font-family="Helvetica,sans-Serif" font-size="10.00">unistd.h</text>
</a>
</g>
</g>
<!-- Node24&#45;&gt;Node34 -->
<g id="edge39_Node000024_Node000034" class="edge">
<title>Node24&#45;&gt;Node34</title>
<g id="a_edge39_Node000024_Node000034"><a xlink:title=" ">
<path fill="none" stroke="#63b8ff" d="M1321.56,-57.88C1317.03,-56.97 1312.39,-56.06 1308,-55.25 1215.35,-38.06 1188.6,-39.18 1093.22,-19.56"/>
<polygon fill="#63b8ff" stroke="#63b8ff" points="1094.18,-16.19 1083.68,-17.58 1092.75,-23.04 1094.18,-16.19"/>
</a>
</g>
</g>
<!-- Node35 -->
<g id="Node000035" class="node">
<title>Node35</title>
<g id="a_Node000035"><a xlink:title=" ">
<polygon fill="#e0e0e0" stroke="#999999" points="1159.75,-19.25 1100.25,-19.25 1100.25,0 1159.75,0 1159.75,-19.25"/>
<text text-anchor="middle" x="1130" y="-5.75" font-family="Helvetica,sans-Serif" font-size="10.00">sys/wait.h</text>
</a>
</g>
</g>
<!-- Node24&#45;&gt;Node35 -->
<g id="edge40_Node000024_Node000035" class="edge">
<title>Node24&#45;&gt;Node35</title>
<g id="a_edge40_Node000024_Node000035"><a xlink:title=" ">
<path fill="none" stroke="#63b8ff" d="M1321.69,-57.02C1283.44,-47.77 1215.02,-31.2 1171.11,-20.57"/>
<polygon fill="#63b8ff" stroke="#63b8ff" points="1171.97,-17.18 1161.43,-18.23 1170.33,-23.99 1171.97,-17.18"/>
</a>
</g>
</g>
<!-- Node36 -->
<g id="Node000036" class="node">
<title>Node36</title>
<g id="a_Node000036"><a xlink:title=" ">
<polygon fill="#e0e0e0" stroke="#999999" points="1238.12,-19.25 1177.88,-19.25 1177.88,0 1238.12,0 1238.12,-19.25"/>
<text text-anchor="middle" x="1208" y="-5.75" font-family="Helvetica,sans-Serif" font-size="10.00">sys/prctl.h</text>
</a>
</g>
</g>
<!-- Node24&#45;&gt;Node36 -->
<g id="edge41_Node000024_Node000036" class="edge">
<title>Node24&#45;&gt;Node36</title>
<g id="a_edge41_Node000024_Node000036"><a xlink:title=" ">
<path fill="none" stroke="#63b8ff" d="M1325.91,-54.84C1303.06,-46.27 1268.48,-33.31 1242.67,-23.63"/>
<polygon fill="#63b8ff" stroke="#63b8ff" points="1244.22,-20.47 1233.62,-20.23 1241.76,-27.02 1244.22,-20.47"/>
</a>
</g>
</g>
<!-- Node37&#45;&gt;Node17 -->
<g id="edge44_Node000037_Node000017" class="edge">
<title>Node37&#45;&gt;Node17</title>
<g id="a_edge44_Node000037_Node000017"><a xlink:title=" ">
<path fill="none" stroke="#63b8ff" d="M1157.94,-112.23C1154.92,-111.64 1151.9,-111.06 1149,-110.5 1068.07,-94.9 1045.01,-92.22 961.49,-74.96"/>
<polygon fill="#63b8ff" stroke="#63b8ff" points="962.42,-71.58 951.92,-72.97 961,-78.43 962.42,-71.58"/>
</a>
</g>
</g>
<!-- Node37&#45;&gt;Node22 -->
<g id="edge43_Node000037_Node000022" class="edge">
<title>Node37&#45;&gt;Node22</title>
<g id="a_edge43_Node000037_Node000022"><a xlink:title=" ">
<path fill="none" stroke="#63b8ff" d="M1193.03,-110.07C1192.54,-95.99 1189.36,-69.01 1173,-55.25 1128.55,-17.87 976.72,-29.06 902.31,-19.2"/>
<polygon fill="#63b8ff" stroke="#63b8ff" points="902.98,-15.76 892.56,-17.66 901.89,-22.68 902.98,-15.76"/>
</a>
</g>
</g>
<!-- Node37&#45;&gt;Node24 -->
<g id="edge49_Node000037_Node000024" class="edge">
<title>Node37&#45;&gt;Node24</title>
<g id="a_edge49_Node000037_Node000024"><a xlink:title=" ">
<path fill="none" stroke="#63b8ff" d="M1219.63,-110.09C1245.12,-101.45 1283.81,-88.32 1312.43,-78.62"/>
<polygon fill="#63b8ff" stroke="#63b8ff" points="1313.46,-81.97 1321.8,-75.44 1311.21,-75.34 1313.46,-81.97"/>
</a>
</g>
</g>
<!-- Node38 -->
<g id="Node000038" class="node">
<title>Node38</title>
<g id="a_Node000038"><a xlink:title=" ">
<polygon fill="#e0e0e0" stroke="#999999" points="1035.88,-74.5 968.12,-74.5 968.12,-55.25 1035.88,-55.25 1035.88,-74.5"/>
<text text-anchor="middle" x="1002" y="-61" font-family="Helvetica,sans-Serif" font-size="10.00">TDirectory.h</text>
</a>
</g>
</g>
<!-- Node37&#45;&gt;Node38 -->
<g id="edge45_Node000037_Node000038" class="edge">
<title>Node37&#45;&gt;Node38</title>
<g id="a_edge45_Node000037_Node000038"><a xlink:title=" ">
<path fill="none" stroke="#63b8ff" d="M1160.6,-110.09C1128.91,-101.26 1080.43,-87.74 1045.42,-77.98"/>
<polygon fill="#63b8ff" stroke="#63b8ff" points="1046.59,-74.67 1036.02,-75.36 1044.71,-81.42 1046.59,-74.67"/>
</a>
</g>
</g>
<!-- Node39 -->
<g id="Node000039" class="node">
<title>Node39</title>
<g id="a_Node000039"><a xlink:title=" ">
<polygon fill="#e0e0e0" stroke="#999999" points="1099.62,-74.5 1054.38,-74.5 1054.38,-55.25 1099.62,-55.25 1099.62,-74.5"/>
<text text-anchor="middle" x="1077" y="-61" font-family="Helvetica,sans-Serif" font-size="10.00">TFile.h</text>
</a>
</g>
</g>
<!-- Node37&#45;&gt;Node39 -->
<g id="edge46_Node000037_Node000039" class="edge">
<title>Node37&#45;&gt;Node39</title>
<g id="a_edge46_Node000037_Node000039"><a xlink:title=" ">
<path fill="none" stroke="#63b8ff" d="M1173.32,-110.09C1155.16,-101.75 1127.92,-89.25 1107.03,-79.66"/>
<polygon fill="#63b8ff" stroke="#63b8ff" points="1108.7,-76.58 1098.15,-75.58 1105.78,-82.94 1108.7,-76.58"/>
</a>
</g>
</g>
<!-- Node40 -->
<g id="Node000040" class="node">
<title>Node40</title>
<g id="a_Node000040"><a xlink:title=" ">
<polygon fill="#e0e0e0" stroke="#999999" points="1164,-74.5 1118,-74.5 1118,-55.25 1164,-55.25 1164,-74.5"/>
<text text-anchor="middle" x="1141" y="-61" font-family="Helvetica,sans-Serif" font-size="10.00">TList.h</text>
</a>
</g>
</g>
<!-- Node37&#45;&gt;Node40 -->
<g id="edge47_Node000037_Node000040" class="edge">
<title>Node37&#45;&gt;Node40</title>
<g id="a_edge47_Node000037_Node000040"><a xlink:title=" ">
<path fill="none" stroke="#63b8ff" d="M1184.41,-110.33C1177.16,-102.9 1166.55,-92.04 1157.63,-82.91"/>
<polygon fill="#63b8ff" stroke="#63b8ff" points="1160.32,-80.65 1150.83,-75.94 1155.31,-85.54 1160.32,-80.65"/>
</a>
</g>
</g>
<!-- Node41 -->
<g id="Node000041" class="node">
<title>Node41</title>
<g id="a_Node000041"><a xlink:title=" ">
<polygon fill="#e0e0e0" stroke="#999999" points="1266,-74.5 1220,-74.5 1220,-55.25 1266,-55.25 1266,-74.5"/>
<text text-anchor="middle" x="1243" y="-61" font-family="Helvetica,sans-Serif" font-size="10.00">TKey.h</text>
</a>
</g>
</g>
<!-- Node37&#45;&gt;Node41 -->
<g id="edge48_Node000037_Node000041" class="edge">
<title>Node37&#45;&gt;Node41</title>
<g id="a_edge48_Node000037_Node000041"><a xlink:title=" ">
<path fill="none" stroke="#63b8ff" d="M1201.26,-110.33C1208.16,-102.98 1218.22,-92.26 1226.74,-83.19"/>
<polygon fill="#63b8ff" stroke="#63b8ff" points="1229.23,-85.65 1233.53,-75.96 1224.13,-80.86 1229.23,-85.65"/>
</a>
</g>
</g>
<!-- Node42&#45;&gt;Node22 -->
<g id="edge51_Node000042_Node000022" class="edge">
<title>Node42&#45;&gt;Node22</title>
<g id="a_edge51_Node000042_Node000022"><a xlink:title=" ">
<path fill="none" stroke="#63b8ff" d="M775.46,-165.34C758.5,-153.55 733.97,-131.91 744,-110.5 762.65,-70.72 805.79,-41.27 834.93,-25.02"/>
<polygon fill="#63b8ff" stroke="#63b8ff" points="836.48,-28.17 843.63,-20.36 833.16,-22 836.48,-28.17"/>
</a>
</g>
</g>
<!-- Node43 -->
<g id="Node000043" class="node">
<title>Node43</title>
<g id="a_Node000043"><a xlink:title=" ">
<polygon fill="#e0e0e0" stroke="#999999" points="826.88,-129.75 753.12,-129.75 753.12,-110.5 826.88,-110.5 826.88,-129.75"/>
<text text-anchor="middle" x="790" y="-116.25" font-family="Helvetica,sans-Serif" font-size="10.00">RtypesCore.h</text>
</a>
</g>
</g>
<!-- Node42&#45;&gt;Node43 -->
<g id="edge52_Node000042_Node000043" class="edge">
<title>Node42&#45;&gt;Node43</title>
<g id="a_edge52_Node000042_Node000043"><a xlink:title=" ">
<path fill="none" stroke="#63b8ff" d="M790,-165.58C790,-159.07 790,-149.92 790,-141.62"/>
<polygon fill="#63b8ff" stroke="#63b8ff" points="793.5,-141.62 790,-131.62 786.5,-141.62 793.5,-141.62"/>
</a>
</g>
</g>
</g>
</svg>
