<?xml version="1.0" encoding="UTF-8" standalone="no"?>
<!DOCTYPE svg PUBLIC "-//W3C//DTD SVG 1.1//EN"
 "http://www.w3.org/Graphics/SVG/1.1/DTD/svg11.dtd">
<!-- Generated by graphviz version 12.2.0 (20241103.1931)
 -->
<!-- Title: TParsingDiagnostics.cxx Pages: 1 -->
<svg width="1764pt" height="414pt"
 viewBox="0.00 0.00 1763.62 414.00" xmlns="http://www.w3.org/2000/svg" xmlns:xlink="http://www.w3.org/1999/xlink">
<g id="graph0" class="graph" transform="scale(1 1) rotate(0) translate(4 410)">
<title>TParsingDiagnostics.cxx</title>
<!-- Node1 -->
<g id="Node000001" class="node">
<title>Node1</title>
<g id="a_Node000001"><a xlink:title=" ">
<polygon fill="#999999" stroke="#666666" points="1513.5,-406 1391,-406 1391,-386.75 1513.5,-386.75 1513.5,-406"/>
<text text-anchor="middle" x="1452.25" y="-392.5" font-family="Helvetica,sans-Serif" font-size="10.00">TParsingDiagnostics.cxx</text>
</a>
</g>
</g>
<!-- Node2 -->
<g id="Node000002" class="node">
<title>Node2</title>
<g id="a_Node000002"><a xlink:href="_t_parsing_diagnostics_8h.html" target="_top" xlink:title=" ">
<polygon fill="white" stroke="#666666" points="674,-350.75 560.5,-350.75 560.5,-331.5 674,-331.5 674,-350.75"/>
<text text-anchor="middle" x="617.25" y="-337.25" font-family="Helvetica,sans-Serif" font-size="10.00">TParsingDiagnostics.h</text>
</a>
</g>
</g>
<!-- Node1&#45;&gt;Node2 -->
<g id="edge1_Node000001_Node000002" class="edge">
<title>Node1&#45;&gt;Node2</title>
<g id="a_edge1_Node000001_Node000002"><a xlink:title=" ">
<path fill="none" stroke="#63b8ff" d="M1390.51,-391.44C1238.07,-381.72 844.66,-356.63 685.54,-346.48"/>
<polygon fill="#63b8ff" stroke="#63b8ff" points="686.21,-343.02 676.01,-345.87 685.77,-350 686.21,-343.02"/>
</a>
</g>
</g>
<!-- Node32 -->
<g id="Node000032" class="node">
<title>Node32</title>
<g id="a_Node000032"><a xlink:href="_t_channel_8h.html" target="_top" xlink:title=" ">
<polygon fill="white" stroke="#666666" points="1360.62,-185 1295.88,-185 1295.88,-165.75 1360.62,-165.75 1360.62,-185"/>
<text text-anchor="middle" x="1328.25" y="-171.5" font-family="Helvetica,sans-Serif" font-size="10.00">TChannel.h</text>
</a>
</g>
</g>
<!-- Node1&#45;&gt;Node32 -->
<g id="edge66_Node000001_Node000032" class="edge">
<title>Node1&#45;&gt;Node32</title>
<g id="a_edge66_Node000001_Node000032"><a xlink:title=" ">
<path fill="none" stroke="#63b8ff" d="M1447.24,-386.52C1428.77,-353.91 1364.34,-240.11 1338.8,-195"/>
<polygon fill="#63b8ff" stroke="#63b8ff" points="1341.91,-193.4 1333.94,-186.42 1335.82,-196.85 1341.91,-193.4"/>
</a>
</g>
</g>
<!-- Node46 -->
<g id="Node000046" class="node">
<title>Node46</title>
<g id="a_Node000046"><a xlink:title=" ">
<polygon fill="#e0e0e0" stroke="#999999" points="1503.75,-350.75 1454.75,-350.75 1454.75,-331.5 1503.75,-331.5 1503.75,-350.75"/>
<text text-anchor="middle" x="1479.25" y="-337.25" font-family="Helvetica,sans-Serif" font-size="10.00">fstream</text>
</a>
</g>
</g>
<!-- Node1&#45;&gt;Node46 -->
<g id="edge64_Node000001_Node000046" class="edge">
<title>Node1&#45;&gt;Node46</title>
<g id="a_edge64_Node000001_Node000046"><a xlink:title=" ">
<path fill="none" stroke="#63b8ff" d="M1456.71,-386.58C1460.2,-379.69 1465.2,-369.84 1469.6,-361.16"/>
<polygon fill="#63b8ff" stroke="#63b8ff" points="1472.61,-362.96 1474.01,-352.46 1466.37,-359.8 1472.61,-362.96"/>
</a>
</g>
</g>
<!-- Node47 -->
<g id="Node000047" class="node">
<title>Node47</title>
<g id="a_Node000047"><a xlink:title=" ">
<polygon fill="#e0e0e0" stroke="#999999" points="1564.38,-350.75 1522.12,-350.75 1522.12,-331.5 1564.38,-331.5 1564.38,-350.75"/>
<text text-anchor="middle" x="1543.25" y="-337.25" font-family="Helvetica,sans-Serif" font-size="10.00">TH1.h</text>
</a>
</g>
</g>
<!-- Node1&#45;&gt;Node47 -->
<g id="edge65_Node000001_Node000047" class="edge">
<title>Node1&#45;&gt;Node47</title>
<g id="a_edge65_Node000001_Node000047"><a xlink:title=" ">
<path fill="none" stroke="#63b8ff" d="M1467.69,-386.34C1481.41,-378.31 1501.75,-366.41 1517.87,-356.98"/>
<polygon fill="#63b8ff" stroke="#63b8ff" points="1519.57,-360.04 1526.43,-351.97 1516.03,-354 1519.57,-360.04"/>
</a>
</g>
</g>
<!-- Node3 -->
<g id="Node000003" class="node">
<title>Node3</title>
<g id="a_Node000003"><a xlink:title=" ">
<polygon fill="#e0e0e0" stroke="#999999" points="1755.62,-129.75 1672.88,-129.75 1672.88,-110.5 1755.62,-110.5 1755.62,-129.75"/>
<text text-anchor="middle" x="1714.25" y="-116.25" font-family="Helvetica,sans-Serif" font-size="10.00">unordered_map</text>
</a>
</g>
</g>
<!-- Node2&#45;&gt;Node3 -->
<g id="edge2_Node000002_Node000003" class="edge">
<title>Node2&#45;&gt;Node3</title>
<g id="a_edge2_Node000002_Node000003"><a xlink:title=" ">
<path fill="none" stroke="#63b8ff" d="M663.03,-331.07C751.42,-313.57 951.74,-273.88 1120.25,-240.25 1320.08,-200.37 1557.65,-152.63 1661.39,-131.76"/>
<polygon fill="#63b8ff" stroke="#63b8ff" points="1661.89,-135.23 1671,-129.83 1660.51,-128.37 1661.89,-135.23"/>
</a>
</g>
</g>
<!-- Node4 -->
<g id="Node000004" class="node">
<title>Node4</title>
<g id="a_Node000004"><a xlink:title=" ">
<polygon fill="#e0e0e0" stroke="#999999" points="50.5,-19.25 0,-19.25 0,0 50.5,0 50.5,-19.25"/>
<text text-anchor="middle" x="25.25" y="-5.75" font-family="Helvetica,sans-Serif" font-size="10.00">memory</text>
</a>
</g>
</g>
<!-- Node2&#45;&gt;Node4 -->
<g id="edge3_Node000002_Node000004" class="edge">
<title>Node2&#45;&gt;Node4</title>
<g id="a_edge3_Node000002_Node000004"><a xlink:title=" ">
<path fill="none" stroke="#63b8ff" d="M560.14,-340.35C423.35,-339.34 88.25,-327.13 88.25,-231.62 88.25,-231.62 88.25,-231.62 88.25,-119.12 88.25,-82.86 61.6,-47.87 42.97,-27.84"/>
<polygon fill="#63b8ff" stroke="#63b8ff" points="45.63,-25.55 36.15,-20.82 40.61,-30.43 45.63,-25.55"/>
</a>
</g>
</g>
<!-- Node5 -->
<g id="Node000005" class="node">
<title>Node5</title>
<g id="a_Node000005"><a xlink:title=" ">
<polygon fill="#e0e0e0" stroke="#999999" points="625.25,-74.5 567.25,-74.5 567.25,-55.25 625.25,-55.25 625.25,-74.5"/>
<text text-anchor="middle" x="596.25" y="-61" font-family="Helvetica,sans-Serif" font-size="10.00">TObject.h</text>
</a>
</g>
</g>
<!-- Node2&#45;&gt;Node5 -->
<g id="edge4_Node000002_Node000005" class="edge">
<title>Node2&#45;&gt;Node5</title>
<g id="a_edge4_Node000002_Node000005"><a xlink:title=" ">
<path fill="none" stroke="#63b8ff" d="M560.24,-335.86C495.94,-327.58 400.25,-303.23 400.25,-231.62 400.25,-231.62 400.25,-231.62 400.25,-174.38 400.25,-136.33 425.35,-131.24 457.25,-110.5 487.36,-90.93 526.72,-79.35 555.87,-72.91"/>
<polygon fill="#63b8ff" stroke="#63b8ff" points="556.33,-76.39 565.41,-70.92 554.9,-69.54 556.33,-76.39"/>
</a>
</g>
</g>
<!-- Node6 -->
<g id="Node000006" class="node">
<title>Node6</title>
<g id="a_Node000006"><a xlink:href="_t_singleton_8h.html" target="_top" xlink:title=" ">
<polygon fill="white" stroke="#666666" points="372.25,-129.75 302.25,-129.75 302.25,-110.5 372.25,-110.5 372.25,-129.75"/>
<text text-anchor="middle" x="337.25" y="-116.25" font-family="Helvetica,sans-Serif" font-size="10.00">TSingleton.h</text>
</a>
</g>
</g>
<!-- Node2&#45;&gt;Node6 -->
<g id="edge5_Node000002_Node000006" class="edge">
<title>Node2&#45;&gt;Node6</title>
<g id="a_edge5_Node000002_Node000006"><a xlink:title=" ">
<path fill="none" stroke="#63b8ff" d="M560.11,-335.89C500.11,-330.3 411.08,-318.35 386.25,-295.5 341.95,-254.74 336.51,-177.43 336.58,-141.03"/>
<polygon fill="#63b8ff" stroke="#63b8ff" points="340.07,-141.56 336.75,-131.5 333.07,-141.43 340.07,-141.56"/>
</a>
</g>
</g>
<!-- Node25 -->
<g id="Node000025" class="node">
<title>Node25</title>
<g id="a_Node000025"><a xlink:href="_t_p_p_g_8h.html" target="_top" xlink:title=" ">
<polygon fill="white" stroke="#666666" points="643.5,-185 593,-185 593,-165.75 643.5,-165.75 643.5,-185"/>
<text text-anchor="middle" x="618.25" y="-171.5" font-family="Helvetica,sans-Serif" font-size="10.00">TPPG.h</text>
</a>
</g>
</g>
<!-- Node2&#45;&gt;Node25 -->
<g id="edge27_Node000002_Node000025" class="edge">
<title>Node2&#45;&gt;Node25</title>
<g id="a_edge27_Node000002_Node000025"><a xlink:title=" ">
<path fill="none" stroke="#63b8ff" d="M617.3,-331.32C617.46,-306 617.91,-232.5 618.13,-196.59"/>
<polygon fill="#63b8ff" stroke="#63b8ff" points="621.63,-196.76 618.19,-186.74 614.63,-196.71 621.63,-196.76"/>
</a>
</g>
</g>
<!-- Node29 -->
<g id="Node000029" class="node">
<title>Node29</title>
<g id="a_Node000029"><a xlink:href="_t_fragment_8h.html" target="_top" xlink:title=" ">
<polygon fill="white" stroke="#666666" points="786.62,-295.5 715.88,-295.5 715.88,-276.25 786.62,-276.25 786.62,-295.5"/>
<text text-anchor="middle" x="751.25" y="-282" font-family="Helvetica,sans-Serif" font-size="10.00">TFragment.h</text>
</a>
</g>
</g>
<!-- Node2&#45;&gt;Node29 -->
<g id="edge35_Node000002_Node000029" class="edge">
<title>Node2&#45;&gt;Node29</title>
<g id="a_edge35_Node000002_Node000029"><a xlink:title=" ">
<path fill="none" stroke="#63b8ff" d="M639.98,-331.09C661.35,-322.6 693.59,-309.79 717.88,-300.14"/>
<polygon fill="#63b8ff" stroke="#63b8ff" points="719,-303.46 727,-296.51 716.41,-296.95 719,-303.46"/>
</a>
</g>
</g>
<!-- Node6&#45;&gt;Node5 -->
<g id="edge7_Node000006_Node000005" class="edge">
<title>Node6&#45;&gt;Node5</title>
<g id="a_edge7_Node000006_Node000005"><a xlink:title=" ">
<path fill="none" stroke="#63b8ff" d="M372.72,-111.83C420.53,-102 505.45,-84.54 555.73,-74.21"/>
<polygon fill="#63b8ff" stroke="#63b8ff" points="556.24,-77.67 565.33,-72.23 554.83,-70.82 556.24,-77.67"/>
</a>
</g>
</g>
<!-- Node7 -->
<g id="Node000007" class="node">
<title>Node7</title>
<g id="a_Node000007"><a xlink:title=" ">
<polygon fill="#e0e0e0" stroke="#999999" points="882,-19.25 828.5,-19.25 828.5,0 882,0 882,-19.25"/>
<text text-anchor="middle" x="855.25" y="-5.75" font-family="Helvetica,sans-Serif" font-size="10.00">iostream</text>
</a>
</g>
</g>
<!-- Node6&#45;&gt;Node7 -->
<g id="edge6_Node000006_Node000007" class="edge">
<title>Node6&#45;&gt;Node7</title>
<g id="a_edge6_Node000006_Node000007"><a xlink:title=" ">
<path fill="none" stroke="#63b8ff" d="M368.51,-110.06C428.89,-92.55 555.87,-55.76 558.25,-55.25 669.33,-31.67 702.2,-40.34 817.17,-19.46"/>
<polygon fill="#63b8ff" stroke="#63b8ff" points="817.5,-22.95 826.7,-17.69 816.23,-16.07 817.5,-22.95"/>
</a>
</g>
</g>
<!-- Node8 -->
<g id="Node000008" class="node">
<title>Node8</title>
<g id="a_Node000008"><a xlink:title=" ">
<polygon fill="#e0e0e0" stroke="#999999" points="280.12,-74.5 212.38,-74.5 212.38,-55.25 280.12,-55.25 280.12,-74.5"/>
<text text-anchor="middle" x="246.25" y="-61" font-family="Helvetica,sans-Serif" font-size="10.00">TDirectory.h</text>
</a>
</g>
</g>
<!-- Node6&#45;&gt;Node8 -->
<g id="edge8_Node000006_Node000008" class="edge">
<title>Node6&#45;&gt;Node8</title>
<g id="a_edge8_Node000006_Node000008"><a xlink:title=" ">
<path fill="none" stroke="#63b8ff" d="M321.81,-110.09C308.09,-102.06 287.75,-90.16 271.63,-80.73"/>
<polygon fill="#63b8ff" stroke="#63b8ff" points="273.47,-77.75 263.07,-75.72 269.93,-83.79 273.47,-77.75"/>
</a>
</g>
</g>
<!-- Node9 -->
<g id="Node000009" class="node">
<title>Node9</title>
<g id="a_Node000009"><a xlink:title=" ">
<polygon fill="#e0e0e0" stroke="#999999" points="343.88,-74.5 298.62,-74.5 298.62,-55.25 343.88,-55.25 343.88,-74.5"/>
<text text-anchor="middle" x="321.25" y="-61" font-family="Helvetica,sans-Serif" font-size="10.00">TFile.h</text>
</a>
</g>
</g>
<!-- Node6&#45;&gt;Node9 -->
<g id="edge9_Node000006_Node000009" class="edge">
<title>Node6&#45;&gt;Node9</title>
<g id="a_edge9_Node000006_Node000009"><a xlink:title=" ">
<path fill="none" stroke="#63b8ff" d="M334.61,-110.33C332.61,-103.67 329.77,-94.24 327.23,-85.78"/>
<polygon fill="#63b8ff" stroke="#63b8ff" points="330.61,-84.88 324.39,-76.31 323.91,-86.89 330.61,-84.88"/>
</a>
</g>
</g>
<!-- Node10 -->
<g id="Node000010" class="node">
<title>Node10</title>
<g id="a_Node000010"><a xlink:title=" ">
<polygon fill="#e0e0e0" stroke="#999999" points="408.25,-74.5 362.25,-74.5 362.25,-55.25 408.25,-55.25 408.25,-74.5"/>
<text text-anchor="middle" x="385.25" y="-61" font-family="Helvetica,sans-Serif" font-size="10.00">TList.h</text>
</a>
</g>
</g>
<!-- Node6&#45;&gt;Node10 -->
<g id="edge10_Node000006_Node000010" class="edge">
<title>Node6&#45;&gt;Node10</title>
<g id="a_edge10_Node000006_Node000010"><a xlink:title=" ">
<path fill="none" stroke="#63b8ff" d="M345.18,-110.33C351.81,-102.98 361.47,-92.26 369.64,-83.19"/>
<polygon fill="#63b8ff" stroke="#63b8ff" points="372.04,-85.75 376.14,-75.98 366.84,-81.07 372.04,-85.75"/>
</a>
</g>
</g>
<!-- Node11 -->
<g id="Node000011" class="node">
<title>Node11</title>
<g id="a_Node000011"><a xlink:title=" ">
<polygon fill="#e0e0e0" stroke="#999999" points="194.25,-74.5 148.25,-74.5 148.25,-55.25 194.25,-55.25 194.25,-74.5"/>
<text text-anchor="middle" x="171.25" y="-61" font-family="Helvetica,sans-Serif" font-size="10.00">TKey.h</text>
</a>
</g>
</g>
<!-- Node6&#45;&gt;Node11 -->
<g id="edge11_Node000006_Node000011" class="edge">
<title>Node6&#45;&gt;Node11</title>
<g id="a_edge11_Node000006_Node000011"><a xlink:title=" ">
<path fill="none" stroke="#63b8ff" d="M309.09,-110.09C280.42,-100.9 235.95,-86.63 205.32,-76.8"/>
<polygon fill="#63b8ff" stroke="#63b8ff" points="206.74,-73.58 196.15,-73.86 204.6,-80.25 206.74,-73.58"/>
</a>
</g>
</g>
<!-- Node12 -->
<g id="Node000012" class="node">
<title>Node12</title>
<g id="a_Node000012"><a xlink:href="_globals_8h.html" target="_top" xlink:title=" ">
<polygon fill="white" stroke="#666666" points="482.5,-74.5 426,-74.5 426,-55.25 482.5,-55.25 482.5,-74.5"/>
<text text-anchor="middle" x="454.25" y="-61" font-family="Helvetica,sans-Serif" font-size="10.00">Globals.h</text>
</a>
</g>
</g>
<!-- Node6&#45;&gt;Node12 -->
<g id="edge12_Node000006_Node000012" class="edge">
<title>Node6&#45;&gt;Node12</title>
<g id="a_edge12_Node000006_Node000012"><a xlink:title=" ">
<path fill="none" stroke="#63b8ff" d="M357.1,-110.09C375.42,-101.75 402.9,-89.25 423.96,-79.66"/>
<polygon fill="#63b8ff" stroke="#63b8ff" points="425.28,-82.91 432.93,-75.58 422.38,-76.54 425.28,-82.91"/>
</a>
</g>
</g>
<!-- Node12&#45;&gt;Node4 -->
<g id="edge23_Node000012_Node000004" class="edge">
<title>Node12&#45;&gt;Node4</title>
<g id="a_edge23_Node000012_Node000004"><a xlink:title=" ">
<path fill="none" stroke="#63b8ff" d="M425.64,-56.82C422.81,-56.24 419.98,-55.7 417.25,-55.25 263.04,-29.63 218.72,-46.2 61.78,-19.45"/>
<polygon fill="#63b8ff" stroke="#63b8ff" points="62.72,-16.06 52.27,-17.79 61.52,-22.96 62.72,-16.06"/>
</a>
</g>
</g>
<!-- Node12&#45;&gt;Node7 -->
<g id="edge13_Node000012_Node000007" class="edge">
<title>Node12&#45;&gt;Node7</title>
<g id="a_edge13_Node000012_Node000007"><a xlink:title=" ">
<path fill="none" stroke="#63b8ff" d="M482.78,-59.86C493.57,-58.37 505.97,-56.69 517.25,-55.25 647.79,-38.53 684.28,-42.79 817.18,-19.42"/>
<polygon fill="#63b8ff" stroke="#63b8ff" points="817.47,-22.93 826.7,-17.73 816.25,-16.04 817.47,-22.93"/>
</a>
</g>
</g>
<!-- Node13 -->
<g id="Node000013" class="node">
<title>Node13</title>
<g id="a_Node000013"><a xlink:title=" ">
<polygon fill="#e0e0e0" stroke="#999999" points="734.12,-19.25 684.38,-19.25 684.38,0 734.12,0 734.12,-19.25"/>
<text text-anchor="middle" x="709.25" y="-5.75" font-family="Helvetica,sans-Serif" font-size="10.00">iomanip</text>
</a>
</g>
</g>
<!-- Node12&#45;&gt;Node13 -->
<g id="edge14_Node000012_Node000013" class="edge">
<title>Node12&#45;&gt;Node13</title>
<g id="a_edge14_Node000012_Node000013"><a xlink:title=" ">
<path fill="none" stroke="#63b8ff" d="M482.95,-58.55C523.22,-50.97 599.01,-36.35 673.12,-19.65"/>
<polygon fill="#63b8ff" stroke="#63b8ff" points="673.58,-23.13 682.56,-17.5 672.03,-16.3 673.58,-23.13"/>
</a>
</g>
</g>
<!-- Node14 -->
<g id="Node000014" class="node">
<title>Node14</title>
<g id="a_Node000014"><a xlink:title=" ">
<polygon fill="#e0e0e0" stroke="#999999" points="810.25,-19.25 752.25,-19.25 752.25,0 810.25,0 810.25,-19.25"/>
<text text-anchor="middle" x="781.25" y="-5.75" font-family="Helvetica,sans-Serif" font-size="10.00">stdexcept</text>
</a>
</g>
</g>
<!-- Node12&#45;&gt;Node14 -->
<g id="edge15_Node000012_Node000014" class="edge">
<title>Node12&#45;&gt;Node14</title>
<g id="a_edge15_Node000012_Node000014"><a xlink:title=" ">
<path fill="none" stroke="#63b8ff" d="M483,-59.7C542.1,-51.07 676.48,-31.24 740.69,-19.59"/>
<polygon fill="#63b8ff" stroke="#63b8ff" points="741.16,-23.06 750.35,-17.79 739.87,-16.18 741.16,-23.06"/>
</a>
</g>
</g>
<!-- Node15 -->
<g id="Node000015" class="node">
<title>Node15</title>
<g id="a_Node000015"><a xlink:title=" ">
<polygon fill="#e0e0e0" stroke="#999999" points="1562.25,-19.25 1522.25,-19.25 1522.25,0 1562.25,0 1562.25,-19.25"/>
<text text-anchor="middle" x="1542.25" y="-5.75" font-family="Helvetica,sans-Serif" font-size="10.00">string</text>
</a>
</g>
</g>
<!-- Node12&#45;&gt;Node15 -->
<g id="edge16_Node000012_Node000015" class="edge">
<title>Node12&#45;&gt;Node15</title>
<g id="a_edge16_Node000012_Node000015"><a xlink:title=" ">
<path fill="none" stroke="#63b8ff" d="M482.92,-61.21C503.8,-59.34 532.76,-56.88 558.25,-55.25 932.37,-31.26 1387.32,-15.63 1510.32,-11.64"/>
<polygon fill="#63b8ff" stroke="#63b8ff" points="1510.41,-15.14 1520.29,-11.32 1510.18,-8.14 1510.41,-15.14"/>
</a>
</g>
</g>
<!-- Node16 -->
<g id="Node000016" class="node">
<title>Node16</title>
<g id="a_Node000016"><a xlink:title=" ">
<polygon fill="#e0e0e0" stroke="#999999" points="110.38,-19.25 68.12,-19.25 68.12,0 110.38,0 110.38,-19.25"/>
<text text-anchor="middle" x="89.25" y="-5.75" font-family="Helvetica,sans-Serif" font-size="10.00">cstdio</text>
</a>
</g>
</g>
<!-- Node12&#45;&gt;Node16 -->
<g id="edge17_Node000012_Node000016" class="edge">
<title>Node12&#45;&gt;Node16</title>
<g id="a_edge17_Node000012_Node000016"><a xlink:title=" ">
<path fill="none" stroke="#63b8ff" d="M425.63,-56.88C422.81,-56.29 419.98,-55.73 417.25,-55.25 289.46,-32.71 252.03,-45.04 121.97,-19.51"/>
<polygon fill="#63b8ff" stroke="#63b8ff" points="122.76,-16.09 112.26,-17.56 121.38,-22.96 122.76,-16.09"/>
</a>
</g>
</g>
<!-- Node17 -->
<g id="Node000017" class="node">
<title>Node17</title>
<g id="a_Node000017"><a xlink:title=" ">
<polygon fill="#e0e0e0" stroke="#999999" points="172.5,-19.25 128,-19.25 128,0 172.5,0 172.5,-19.25"/>
<text text-anchor="middle" x="150.25" y="-5.75" font-family="Helvetica,sans-Serif" font-size="10.00">cstdlib</text>
</a>
</g>
</g>
<!-- Node12&#45;&gt;Node17 -->
<g id="edge18_Node000012_Node000017" class="edge">
<title>Node12&#45;&gt;Node17</title>
<g id="a_edge18_Node000012_Node000017"><a xlink:title=" ">
<path fill="none" stroke="#63b8ff" d="M425.61,-56.97C422.79,-56.36 419.97,-55.77 417.25,-55.25 316.62,-35.88 287,-41.11 184.07,-19.64"/>
<polygon fill="#63b8ff" stroke="#63b8ff" points="184.85,-16.22 174.34,-17.57 183.39,-23.07 184.85,-16.22"/>
</a>
</g>
</g>
<!-- Node18 -->
<g id="Node000018" class="node">
<title>Node18</title>
<g id="a_Node000018"><a xlink:title=" ">
<polygon fill="#e0e0e0" stroke="#999999" points="250,-19.25 190.5,-19.25 190.5,0 250,0 250,-19.25"/>
<text text-anchor="middle" x="220.25" y="-5.75" font-family="Helvetica,sans-Serif" font-size="10.00">execinfo.h</text>
</a>
</g>
</g>
<!-- Node12&#45;&gt;Node18 -->
<g id="edge19_Node000012_Node000018" class="edge">
<title>Node12&#45;&gt;Node18</title>
<g id="a_edge19_Node000012_Node000018"><a xlink:title=" ">
<path fill="none" stroke="#63b8ff" d="M425.57,-57.17C422.76,-56.52 419.95,-55.87 417.25,-55.25 363.44,-42.88 301.29,-28.85 261.43,-19.87"/>
<polygon fill="#63b8ff" stroke="#63b8ff" points="262.3,-16.48 251.78,-17.7 260.77,-23.31 262.3,-16.48"/>
</a>
</g>
</g>
<!-- Node19 -->
<g id="Node000019" class="node">
<title>Node19</title>
<g id="a_Node000019"><a xlink:title=" ">
<polygon fill="#e0e0e0" stroke="#999999" points="318.5,-19.25 268,-19.25 268,0 318.5,0 318.5,-19.25"/>
<text text-anchor="middle" x="293.25" y="-5.75" font-family="Helvetica,sans-Serif" font-size="10.00">cxxabi.h</text>
</a>
</g>
</g>
<!-- Node12&#45;&gt;Node19 -->
<g id="edge20_Node000012_Node000019" class="edge">
<title>Node12&#45;&gt;Node19</title>
<g id="a_edge20_Node000012_Node000019"><a xlink:title=" ">
<path fill="none" stroke="#63b8ff" d="M426.94,-54.84C400.13,-45.97 359.07,-32.4 329.54,-22.63"/>
<polygon fill="#63b8ff" stroke="#63b8ff" points="330.86,-19.38 320.27,-19.56 328.66,-26.02 330.86,-19.38"/>
</a>
</g>
</g>
<!-- Node20 -->
<g id="Node000020" class="node">
<title>Node20</title>
<g id="a_Node000020"><a xlink:title=" ">
<polygon fill="#e0e0e0" stroke="#999999" points="387.88,-19.25 336.62,-19.25 336.62,0 387.88,0 387.88,-19.25"/>
<text text-anchor="middle" x="362.25" y="-5.75" font-family="Helvetica,sans-Serif" font-size="10.00">sstream</text>
</a>
</g>
</g>
<!-- Node12&#45;&gt;Node20 -->
<g id="edge21_Node000012_Node000020" class="edge">
<title>Node12&#45;&gt;Node20</title>
<g id="a_edge21_Node000012_Node000020"><a xlink:title=" ">
<path fill="none" stroke="#63b8ff" d="M438.64,-54.84C424.63,-46.73 403.82,-34.68 387.45,-25.21"/>
<polygon fill="#63b8ff" stroke="#63b8ff" points="389.65,-22.44 379.24,-20.46 386.14,-28.5 389.65,-22.44"/>
</a>
</g>
</g>
<!-- Node21 -->
<g id="Node000021" class="node">
<title>Node21</title>
<g id="a_Node000021"><a xlink:title=" ">
<polygon fill="#e0e0e0" stroke="#999999" points="442.75,-19.25 405.75,-19.25 405.75,0 442.75,0 442.75,-19.25"/>
<text text-anchor="middle" x="424.25" y="-5.75" font-family="Helvetica,sans-Serif" font-size="10.00">array</text>
</a>
</g>
</g>
<!-- Node12&#45;&gt;Node21 -->
<g id="edge22_Node000012_Node000021" class="edge">
<title>Node12&#45;&gt;Node21</title>
<g id="a_edge22_Node000012_Node000021"><a xlink:title=" ">
<path fill="none" stroke="#63b8ff" d="M449.3,-55.08C445.37,-48.11 439.74,-38.12 434.81,-29.37"/>
<polygon fill="#63b8ff" stroke="#63b8ff" points="438.01,-27.92 430.05,-20.93 431.91,-31.36 438.01,-27.92"/>
</a>
</g>
</g>
<!-- Node22 -->
<g id="Node000022" class="node">
<title>Node22</title>
<g id="a_Node000022"><a xlink:title=" ">
<polygon fill="#e0e0e0" stroke="#999999" points="510.12,-19.25 460.38,-19.25 460.38,0 510.12,0 510.12,-19.25"/>
<text text-anchor="middle" x="485.25" y="-5.75" font-family="Helvetica,sans-Serif" font-size="10.00">unistd.h</text>
</a>
</g>
</g>
<!-- Node12&#45;&gt;Node22 -->
<g id="edge24_Node000012_Node000022" class="edge">
<title>Node12&#45;&gt;Node22</title>
<g id="a_edge24_Node000012_Node000022"><a xlink:title=" ">
<path fill="none" stroke="#63b8ff" d="M459.37,-55.08C463.43,-48.11 469.24,-38.12 474.34,-29.37"/>
<polygon fill="#63b8ff" stroke="#63b8ff" points="477.25,-31.32 479.26,-20.92 471.2,-27.8 477.25,-31.32"/>
</a>
</g>
</g>
<!-- Node23 -->
<g id="Node000023" class="node">
<title>Node23</title>
<g id="a_Node000023"><a xlink:title=" ">
<polygon fill="#e0e0e0" stroke="#999999" points="588,-19.25 528.5,-19.25 528.5,0 588,0 588,-19.25"/>
<text text-anchor="middle" x="558.25" y="-5.75" font-family="Helvetica,sans-Serif" font-size="10.00">sys/wait.h</text>
</a>
</g>
</g>
<!-- Node12&#45;&gt;Node23 -->
<g id="edge25_Node000012_Node000023" class="edge">
<title>Node12&#45;&gt;Node23</title>
<g id="a_edge25_Node000012_Node000023"><a xlink:title=" ">
<path fill="none" stroke="#63b8ff" d="M471.89,-54.84C487.88,-46.66 511.71,-34.46 530.29,-24.94"/>
<polygon fill="#63b8ff" stroke="#63b8ff" points="531.87,-28.07 539.17,-20.39 528.68,-21.83 531.87,-28.07"/>
</a>
</g>
</g>
<!-- Node24 -->
<g id="Node000024" class="node">
<title>Node24</title>
<g id="a_Node000024"><a xlink:title=" ">
<polygon fill="#e0e0e0" stroke="#999999" points="666.38,-19.25 606.12,-19.25 606.12,0 666.38,0 666.38,-19.25"/>
<text text-anchor="middle" x="636.25" y="-5.75" font-family="Helvetica,sans-Serif" font-size="10.00">sys/prctl.h</text>
</a>
</g>
</g>
<!-- Node12&#45;&gt;Node24 -->
<g id="edge26_Node000012_Node000024" class="edge">
<title>Node12&#45;&gt;Node24</title>
<g id="a_edge26_Node000012_Node000024"><a xlink:title=" ">
<path fill="none" stroke="#63b8ff" d="M482.69,-55.55C512.91,-46.71 560.97,-32.65 595.28,-22.61"/>
<polygon fill="#63b8ff" stroke="#63b8ff" points="595.82,-26.1 604.44,-19.93 593.86,-19.38 595.82,-26.1"/>
</a>
</g>
</g>
<!-- Node25&#45;&gt;Node5 -->
<g id="edge31_Node000025_Node000005" class="edge">
<title>Node25&#45;&gt;Node5</title>
<g id="a_edge31_Node000025_Node000005"><a xlink:title=" ">
<path fill="none" stroke="#63b8ff" d="M616.45,-165.5C612.95,-148.25 605.16,-109.83 600.34,-86.06"/>
<polygon fill="#63b8ff" stroke="#63b8ff" points="603.79,-85.47 598.38,-76.36 596.93,-86.86 603.79,-85.47"/>
</a>
</g>
</g>
<!-- Node25&#45;&gt;Node6 -->
<g id="edge34_Node000025_Node000006" class="edge">
<title>Node25&#45;&gt;Node6</title>
<g id="a_edge34_Node000025_Node000006"><a xlink:title=" ">
<path fill="none" stroke="#63b8ff" d="M592.82,-169.56C545.48,-160.58 443.23,-141.21 383.4,-129.87"/>
<polygon fill="#63b8ff" stroke="#63b8ff" points="384.35,-126.49 373.88,-128.07 383.05,-133.37 384.35,-126.49"/>
</a>
</g>
</g>
<!-- Node25&#45;&gt;Node7 -->
<g id="edge30_Node000025_Node000007" class="edge">
<title>Node25&#45;&gt;Node7</title>
<g id="a_edge30_Node000025_Node000007"><a xlink:title=" ">
<path fill="none" stroke="#63b8ff" d="M624.69,-165.48C641.01,-143.53 686.37,-86.36 737.25,-55.25 762.25,-39.96 793.36,-28.46 817.35,-20.97"/>
<polygon fill="#63b8ff" stroke="#63b8ff" points="818.15,-24.39 826.72,-18.15 816.13,-17.68 818.15,-24.39"/>
</a>
</g>
</g>
<!-- Node25&#45;&gt;Node12 -->
<g id="edge33_Node000025_Node000012" class="edge">
<title>Node25&#45;&gt;Node12</title>
<g id="a_edge33_Node000025_Node000012"><a xlink:title=" ">
<path fill="none" stroke="#63b8ff" d="M592.83,-170.97C551.86,-164.91 474.12,-150.89 457.25,-129.75 447.6,-117.66 447.57,-99.81 449.54,-86.05"/>
<polygon fill="#63b8ff" stroke="#63b8ff" points="452.96,-86.81 451.41,-76.33 446.08,-85.49 452.96,-86.81"/>
</a>
</g>
</g>
<!-- Node26 -->
<g id="Node000026" class="node">
<title>Node26</title>
<g id="a_Node000026"><a xlink:title=" ">
<polygon fill="#e0e0e0" stroke="#999999" points="500.62,-129.75 465.88,-129.75 465.88,-110.5 500.62,-110.5 500.62,-129.75"/>
<text text-anchor="middle" x="483.25" y="-116.25" font-family="Helvetica,sans-Serif" font-size="10.00">map</text>
</a>
</g>
</g>
<!-- Node25&#45;&gt;Node26 -->
<g id="edge28_Node000025_Node000026" class="edge">
<title>Node25&#45;&gt;Node26</title>
<g id="a_edge28_Node000025_Node000026"><a xlink:title=" ">
<path fill="none" stroke="#63b8ff" d="M595.35,-165.34C572.26,-156.23 536.56,-142.15 511.67,-132.33"/>
<polygon fill="#63b8ff" stroke="#63b8ff" points="513.07,-129.13 502.49,-128.71 510.51,-135.64 513.07,-129.13"/>
</a>
</g>
</g>
<!-- Node27 -->
<g id="Node000027" class="node">
<title>Node27</title>
<g id="a_Node000027"><a xlink:title=" ">
<polygon fill="#e0e0e0" stroke="#999999" points="723.5,-129.75 685,-129.75 685,-110.5 723.5,-110.5 723.5,-129.75"/>
<text text-anchor="middle" x="704.25" y="-116.25" font-family="Helvetica,sans-Serif" font-size="10.00">utility</text>
</a>
</g>
</g>
<!-- Node25&#45;&gt;Node27 -->
<g id="edge29_Node000025_Node000027" class="edge">
<title>Node25&#45;&gt;Node27</title>
<g id="a_edge29_Node000025_Node000027"><a xlink:title=" ">
<path fill="none" stroke="#63b8ff" d="M632.84,-165.34C645.69,-157.39 664.66,-145.64 679.82,-136.25"/>
<polygon fill="#63b8ff" stroke="#63b8ff" points="681.64,-139.24 688.3,-131 677.96,-133.29 681.64,-139.24"/>
</a>
</g>
</g>
<!-- Node28 -->
<g id="Node000028" class="node">
<title>Node28</title>
<g id="a_Node000028"><a xlink:title=" ">
<polygon fill="#e0e0e0" stroke="#999999" points="591.38,-129.75 519.12,-129.75 519.12,-110.5 591.38,-110.5 591.38,-129.75"/>
<text text-anchor="middle" x="555.25" y="-116.25" font-family="Helvetica,sans-Serif" font-size="10.00">TCollection.h</text>
</a>
</g>
</g>
<!-- Node25&#45;&gt;Node28 -->
<g id="edge32_Node000025_Node000028" class="edge">
<title>Node25&#45;&gt;Node28</title>
<g id="a_edge32_Node000025_Node000028"><a xlink:title=" ">
<path fill="none" stroke="#63b8ff" d="M607.56,-165.34C598.55,-157.72 585.42,-146.62 574.57,-137.45"/>
<polygon fill="#63b8ff" stroke="#63b8ff" points="576.83,-134.78 566.94,-131 572.31,-140.13 576.83,-134.78"/>
</a>
</g>
</g>
<!-- Node29&#45;&gt;Node7 -->
<g id="edge60_Node000029_Node000007" class="edge">
<title>Node29&#45;&gt;Node7</title>
<g id="a_edge60_Node000029_Node000007"><a xlink:title=" ">
<path fill="none" stroke="#63b8ff" d="M751.25,-275.87C751.25,-257.28 751.25,-213.3 751.25,-176.38 751.25,-176.38 751.25,-176.38 751.25,-119.12 751.25,-75.52 795.57,-42.61 826.34,-25.01"/>
<polygon fill="#63b8ff" stroke="#63b8ff" points="827.75,-28.23 834.85,-20.37 824.39,-22.09 827.75,-28.23"/>
</a>
</g>
</g>
<!-- Node29&#45;&gt;Node25 -->
<g id="edge59_Node000029_Node000025" class="edge">
<title>Node29&#45;&gt;Node25</title>
<g id="a_edge59_Node000029_Node000025"><a xlink:title=" ">
<path fill="none" stroke="#63b8ff" d="M731.79,-275.83C715.51,-267.76 692.15,-254.97 674.25,-240.25 657.75,-226.68 641.99,-208.02 631.42,-194.37"/>
<polygon fill="#63b8ff" stroke="#63b8ff" points="634.43,-192.55 625.62,-186.67 628.84,-196.76 634.43,-192.55"/>
</a>
</g>
</g>
<!-- Node30 -->
<g id="Node000030" class="node">
<title>Node30</title>
<g id="a_Node000030"><a xlink:href="_t_detector_hit_8h.html" target="_top" xlink:title=" ">
<polygon fill="white" stroke="#666666" points="983.75,-240.25 904.75,-240.25 904.75,-221 983.75,-221 983.75,-240.25"/>
<text text-anchor="middle" x="944.25" y="-226.75" font-family="Helvetica,sans-Serif" font-size="10.00">TDetectorHit.h</text>
</a>
</g>
</g>
<!-- Node29&#45;&gt;Node30 -->
<g id="edge36_Node000029_Node000030" class="edge">
<title>Node29&#45;&gt;Node30</title>
<g id="a_edge36_Node000029_Node000030"><a xlink:title=" ">
<path fill="none" stroke="#63b8ff" d="M783.99,-275.84C816.01,-267.01 865,-253.49 900.38,-243.73"/>
<polygon fill="#63b8ff" stroke="#63b8ff" points="901.18,-247.14 909.89,-241.11 899.32,-240.39 901.18,-247.14"/>
</a>
</g>
</g>
<!-- Node31 -->
<g id="Node000031" class="node">
<title>Node31</title>
<g id="a_Node000031"><a xlink:title=" ">
<polygon fill="#e0e0e0" stroke="#999999" points="1156.75,-74.5 1113.75,-74.5 1113.75,-55.25 1156.75,-55.25 1156.75,-74.5"/>
<text text-anchor="middle" x="1135.25" y="-61" font-family="Helvetica,sans-Serif" font-size="10.00">vector</text>
</a>
</g>
</g>
<!-- Node29&#45;&gt;Node31 -->
<g id="edge61_Node000029_Node000031" class="edge">
<title>Node29&#45;&gt;Node31</title>
<g id="a_edge61_Node000029_Node000031"><a xlink:title=" ">
<path fill="none" stroke="#63b8ff" d="M787,-282.61C882.89,-275.68 1141.66,-251.07 1188.25,-185 1204.87,-161.44 1168.65,-154.73 1154.25,-129.75 1146.37,-116.08 1141.49,-98.84 1138.65,-85.72"/>
<polygon fill="#63b8ff" stroke="#63b8ff" points="1142.14,-85.3 1136.81,-76.14 1135.26,-86.62 1142.14,-85.3"/>
</a>
</g>
</g>
<!-- Node41 -->
<g id="Node000041" class="node">
<title>Node41</title>
<g id="a_Node000041"><a xlink:title=" ">
<polygon fill="#e0e0e0" stroke="#999999" points="1179,-185 1125.5,-185 1125.5,-165.75 1179,-165.75 1179,-185"/>
<text text-anchor="middle" x="1152.25" y="-171.5" font-family="Helvetica,sans-Serif" font-size="10.00">Rtypes.h</text>
</a>
</g>
</g>
<!-- Node29&#45;&gt;Node41 -->
<g id="edge63_Node000029_Node000041" class="edge">
<title>Node29&#45;&gt;Node41</title>
<g id="a_edge63_Node000029_Node000041"><a xlink:title=" ">
<path fill="none" stroke="#63b8ff" d="M786.88,-280.51C834.36,-274.19 920.72,-260.93 992.25,-240.25 1039.29,-226.65 1091.59,-204.33 1123.19,-189.99"/>
<polygon fill="#63b8ff" stroke="#63b8ff" points="1124.46,-193.26 1132.09,-185.92 1121.54,-186.9 1124.46,-193.26"/>
</a>
</g>
</g>
<!-- Node45 -->
<g id="Node000045" class="node">
<title>Node45</title>
<g id="a_Node000045"><a xlink:title=" ">
<polygon fill="#e0e0e0" stroke="#999999" points="723.25,-240.25 683.25,-240.25 683.25,-221 723.25,-221 723.25,-240.25"/>
<text text-anchor="middle" x="703.25" y="-226.75" font-family="Helvetica,sans-Serif" font-size="10.00">ctime</text>
</a>
</g>
</g>
<!-- Node29&#45;&gt;Node45 -->
<g id="edge62_Node000029_Node000045" class="edge">
<title>Node29&#45;&gt;Node45</title>
<g id="a_edge62_Node000029_Node000045"><a xlink:title=" ">
<path fill="none" stroke="#63b8ff" d="M743.32,-276.08C736.69,-268.73 727.03,-258.01 718.86,-248.94"/>
<polygon fill="#63b8ff" stroke="#63b8ff" points="721.66,-246.82 712.36,-241.73 716.46,-251.5 721.66,-246.82"/>
</a>
</g>
</g>
<!-- Node30&#45;&gt;Node5 -->
<g id="edge52_Node000030_Node000005" class="edge">
<title>Node30&#45;&gt;Node5</title>
<g id="a_edge52_Node000030_Node000005"><a xlink:title=" ">
<path fill="none" stroke="#63b8ff" d="M904.4,-221.65C876.13,-214.81 838.08,-203.14 808.25,-185 767.83,-160.43 772.67,-135.07 732.25,-110.5 702.58,-92.46 664.77,-80.82 636.56,-73.96"/>
<polygon fill="#63b8ff" stroke="#63b8ff" points="637.49,-70.59 626.96,-71.74 635.92,-77.41 637.49,-70.59"/>
</a>
</g>
</g>
<!-- Node30&#45;&gt;Node25 -->
<g id="edge55_Node000030_Node000025" class="edge">
<title>Node30&#45;&gt;Node25</title>
<g id="a_edge55_Node000030_Node000025"><a xlink:title=" ">
<path fill="none" stroke="#63b8ff" d="M904.28,-223.1C840.54,-212.69 716.82,-192.48 655.11,-182.4"/>
<polygon fill="#63b8ff" stroke="#63b8ff" points="655.91,-178.98 645.48,-180.82 654.78,-185.89 655.91,-178.98"/>
</a>
</g>
</g>
<!-- Node30&#45;&gt;Node31 -->
<g id="edge37_Node000030_Node000031" class="edge">
<title>Node30&#45;&gt;Node31</title>
<g id="a_edge37_Node000030_Node000031"><a xlink:title=" ">
<path fill="none" stroke="#63b8ff" d="M982.07,-220.56C1016.39,-211.72 1063.77,-197.78 1078.25,-185 1094.11,-171.01 1116.72,-115.3 1128.11,-85.28"/>
<polygon fill="#63b8ff" stroke="#63b8ff" points="1131.26,-86.85 1131.48,-76.26 1124.7,-84.4 1131.26,-86.85"/>
</a>
</g>
</g>
<!-- Node30&#45;&gt;Node32 -->
<g id="edge38_Node000030_Node000032" class="edge">
<title>Node30&#45;&gt;Node32</title>
<g id="a_edge38_Node000030_Node000032"><a xlink:title=" ">
<path fill="none" stroke="#63b8ff" d="M983.9,-224.13C1056.26,-214.09 1209.19,-192.88 1284.49,-182.44"/>
<polygon fill="#63b8ff" stroke="#63b8ff" points="1284.53,-185.97 1293.95,-181.13 1283.57,-179.04 1284.53,-185.97"/>
</a>
</g>
</g>
<!-- Node40 -->
<g id="Node000040" class="node">
<title>Node40</title>
<g id="a_Node000040"><a xlink:title=" ">
<polygon fill="#e0e0e0" stroke="#999999" points="1068.88,-185 1005.62,-185 1005.62,-165.75 1068.88,-165.75 1068.88,-185"/>
<text text-anchor="middle" x="1037.25" y="-171.5" font-family="Helvetica,sans-Serif" font-size="10.00">TVector3.h</text>
</a>
</g>
</g>
<!-- Node30&#45;&gt;Node40 -->
<g id="edge51_Node000030_Node000040" class="edge">
<title>Node30&#45;&gt;Node40</title>
<g id="a_edge51_Node000030_Node000040"><a xlink:title=" ">
<path fill="none" stroke="#63b8ff" d="M960.03,-220.59C974.19,-212.48 995.23,-200.43 1011.78,-190.96"/>
<polygon fill="#63b8ff" stroke="#63b8ff" points="1013.14,-194.21 1020.08,-186.2 1009.67,-188.14 1013.14,-194.21"/>
</a>
</g>
</g>
<!-- Node30&#45;&gt;Node41 -->
<g id="edge53_Node000030_Node000041" class="edge">
<title>Node30&#45;&gt;Node41</title>
<g id="a_edge53_Node000030_Node000041"><a xlink:title=" ">
<path fill="none" stroke="#63b8ff" d="M979.53,-220.59C1016.98,-211 1075.95,-195.91 1114.36,-186.07"/>
<polygon fill="#63b8ff" stroke="#63b8ff" points="1114.81,-189.57 1123.63,-183.7 1113.07,-182.79 1114.81,-189.57"/>
</a>
</g>
</g>
<!-- Node42 -->
<g id="Node000042" class="node">
<title>Node42</title>
<g id="a_Node000042"><a xlink:title=" ">
<polygon fill="#e0e0e0" stroke="#999999" points="883,-185 817.5,-185 817.5,-165.75 883,-165.75 883,-185"/>
<text text-anchor="middle" x="850.25" y="-171.5" font-family="Helvetica,sans-Serif" font-size="10.00">TRandom.h</text>
</a>
</g>
</g>
<!-- Node30&#45;&gt;Node42 -->
<g id="edge54_Node000030_Node000042" class="edge">
<title>Node30&#45;&gt;Node42</title>
<g id="a_edge54_Node000030_Node000042"><a xlink:title=" ">
<path fill="none" stroke="#63b8ff" d="M928.3,-220.59C913.99,-212.48 892.72,-200.43 876,-190.96"/>
<polygon fill="#63b8ff" stroke="#63b8ff" points="878.02,-188.08 867.59,-186.2 874.57,-194.17 878.02,-188.08"/>
</a>
</g>
</g>
<!-- Node43 -->
<g id="Node000043" class="node">
<title>Node43</title>
<g id="a_Node000043"><a xlink:href="_t_transient_bits_8h.html" target="_top" xlink:title=" ">
<polygon fill="white" stroke="#666666" points="987.88,-185 900.62,-185 900.62,-165.75 987.88,-165.75 987.88,-185"/>
<text text-anchor="middle" x="944.25" y="-171.5" font-family="Helvetica,sans-Serif" font-size="10.00">TTransientBits.h</text>
</a>
</g>
</g>
<!-- Node30&#45;&gt;Node43 -->
<g id="edge56_Node000030_Node000043" class="edge">
<title>Node30&#45;&gt;Node43</title>
<g id="a_edge56_Node000030_Node000043"><a xlink:title=" ">
<path fill="none" stroke="#63b8ff" d="M944.25,-220.83C944.25,-214.32 944.25,-205.17 944.25,-196.87"/>
<polygon fill="#63b8ff" stroke="#63b8ff" points="947.75,-196.87 944.25,-186.87 940.75,-196.87 947.75,-196.87"/>
</a>
</g>
</g>
<!-- Node32&#45;&gt;Node3 -->
<g id="edge42_Node000032_Node000003" class="edge">
<title>Node32&#45;&gt;Node3</title>
<g id="a_edge42_Node000032_Node000003"><a xlink:title=" ">
<path fill="none" stroke="#63b8ff" d="M1360.88,-168C1365.36,-167.2 1369.91,-166.43 1374.25,-165.75 1498.65,-146.36 1533.31,-148.41 1661.49,-129.94"/>
<polygon fill="#63b8ff" stroke="#63b8ff" points="1661.64,-133.46 1671.03,-128.55 1660.63,-126.53 1661.64,-133.46"/>
</a>
</g>
</g>
<!-- Node32&#45;&gt;Node15 -->
<g id="edge39_Node000032_Node000015" class="edge">
<title>Node32&#45;&gt;Node15</title>
<g id="a_edge39_Node000032_Node000015"><a xlink:title=" ">
<path fill="none" stroke="#63b8ff" d="M1361.04,-167.86C1415.12,-156.98 1517.67,-135.71 1523.25,-129.75 1548.33,-102.94 1547.97,-56.98 1545.25,-30.68"/>
<polygon fill="#63b8ff" stroke="#63b8ff" points="1548.76,-30.49 1544.02,-21.01 1541.81,-31.37 1548.76,-30.49"/>
</a>
</g>
</g>
<!-- Node32&#45;&gt;Node27 -->
<g id="edge41_Node000032_Node000027" class="edge">
<title>Node32&#45;&gt;Node27</title>
<g id="a_edge41_Node000032_Node000027"><a xlink:title=" ">
<path fill="none" stroke="#63b8ff" d="M1295.58,-171.59C1187.27,-162.34 840.91,-132.79 735.19,-123.77"/>
<polygon fill="#63b8ff" stroke="#63b8ff" points="735.56,-120.28 725.3,-122.92 734.97,-127.26 735.56,-120.28"/>
</a>
</g>
</g>
<!-- Node33 -->
<g id="Node000033" class="node">
<title>Node33</title>
<g id="a_Node000033"><a xlink:title=" ">
<polygon fill="#e0e0e0" stroke="#999999" points="1206.75,-129.75 1163.75,-129.75 1163.75,-110.5 1206.75,-110.5 1206.75,-129.75"/>
<text text-anchor="middle" x="1185.25" y="-116.25" font-family="Helvetica,sans-Serif" font-size="10.00">cmath</text>
</a>
</g>
</g>
<!-- Node32&#45;&gt;Node33 -->
<g id="edge40_Node000032_Node000033" class="edge">
<title>Node32&#45;&gt;Node33</title>
<g id="a_edge40_Node000032_Node000033"><a xlink:title=" ">
<path fill="none" stroke="#63b8ff" d="M1303.99,-165.34C1280.15,-156.46 1243.61,-142.86 1217.37,-133.08"/>
<polygon fill="#63b8ff" stroke="#63b8ff" points="1218.83,-129.89 1208.23,-129.68 1216.38,-136.45 1218.83,-129.89"/>
</a>
</g>
</g>
<!-- Node34 -->
<g id="Node000034" class="node">
<title>Node34</title>
<g id="a_Node000034"><a xlink:title=" ">
<polygon fill="#e0e0e0" stroke="#999999" points="1285.75,-129.75 1224.75,-129.75 1224.75,-110.5 1285.75,-110.5 1285.75,-129.75"/>
<text text-anchor="middle" x="1255.25" y="-116.25" font-family="Helvetica,sans-Serif" font-size="10.00">TNamed.h</text>
</a>
</g>
</g>
<!-- Node32&#45;&gt;Node34 -->
<g id="edge43_Node000032_Node000034" class="edge">
<title>Node32&#45;&gt;Node34</title>
<g id="a_edge43_Node000032_Node000034"><a xlink:title=" ">
<path fill="none" stroke="#63b8ff" d="M1315.87,-165.34C1305.1,-157.49 1289.28,-145.95 1276.5,-136.62"/>
<polygon fill="#63b8ff" stroke="#63b8ff" points="1278.81,-133.98 1268.67,-130.92 1274.69,-139.64 1278.81,-133.98"/>
</a>
</g>
</g>
<!-- Node35 -->
<g id="Node000035" class="node">
<title>Node35</title>
<g id="a_Node000035"><a xlink:title=" ">
<polygon fill="#e0e0e0" stroke="#999999" points="1352.75,-129.75 1303.75,-129.75 1303.75,-110.5 1352.75,-110.5 1352.75,-129.75"/>
<text text-anchor="middle" x="1328.25" y="-116.25" font-family="Helvetica,sans-Serif" font-size="10.00">TTree.h</text>
</a>
</g>
</g>
<!-- Node32&#45;&gt;Node35 -->
<g id="edge44_Node000032_Node000035" class="edge">
<title>Node32&#45;&gt;Node35</title>
<g id="a_edge44_Node000032_Node000035"><a xlink:title=" ">
<path fill="none" stroke="#63b8ff" d="M1328.25,-165.58C1328.25,-159.07 1328.25,-149.92 1328.25,-141.62"/>
<polygon fill="#63b8ff" stroke="#63b8ff" points="1331.75,-141.62 1328.25,-131.62 1324.75,-141.62 1331.75,-141.62"/>
</a>
</g>
</g>
<!-- Node36 -->
<g id="Node000036" class="node">
<title>Node36</title>
<g id="a_Node000036"><a xlink:title=" ">
<polygon fill="#e0e0e0" stroke="#999999" points="1426.12,-129.75 1370.38,-129.75 1370.38,-110.5 1426.12,-110.5 1426.12,-129.75"/>
<text text-anchor="middle" x="1398.25" y="-116.25" font-family="Helvetica,sans-Serif" font-size="10.00">TGraph.h</text>
</a>
</g>
</g>
<!-- Node32&#45;&gt;Node36 -->
<g id="edge45_Node000032_Node000036" class="edge">
<title>Node32&#45;&gt;Node36</title>
<g id="a_edge45_Node000032_Node000036"><a xlink:title=" ">
<path fill="none" stroke="#63b8ff" d="M1340.12,-165.34C1350.34,-157.57 1365.32,-146.17 1377.51,-136.9"/>
<polygon fill="#63b8ff" stroke="#63b8ff" points="1379.51,-139.78 1385.35,-130.94 1375.27,-134.21 1379.51,-139.78"/>
</a>
</g>
</g>
<!-- Node37 -->
<g id="Node000037" class="node">
<title>Node37</title>
<g id="a_Node000037"><a xlink:title=" ">
<polygon fill="#e0e0e0" stroke="#999999" points="1513.88,-129.75 1444.62,-129.75 1444.62,-110.5 1513.88,-110.5 1513.88,-129.75"/>
<text text-anchor="middle" x="1479.25" y="-116.25" font-family="Helvetica,sans-Serif" font-size="10.00">TClassRef.h</text>
</a>
</g>
</g>
<!-- Node32&#45;&gt;Node37 -->
<g id="edge46_Node000032_Node000037" class="edge">
<title>Node32&#45;&gt;Node37</title>
<g id="a_edge46_Node000032_Node000037"><a xlink:title=" ">
<path fill="none" stroke="#63b8ff" d="M1353.87,-165.34C1378.27,-156.74 1415.26,-143.69 1442.75,-134"/>
<polygon fill="#63b8ff" stroke="#63b8ff" points="1443.82,-137.33 1452.08,-130.71 1441.49,-130.73 1443.82,-137.33"/>
</a>
</g>
</g>
<!-- Node38 -->
<g id="Node000038" class="node">
<title>Node38</title>
<g id="a_Node000038"><a xlink:href="_t_priority_value_8h.html" target="_top" xlink:title=" ">
<polygon fill="white" stroke="#666666" points="1654.38,-129.75 1570.12,-129.75 1570.12,-110.5 1654.38,-110.5 1654.38,-129.75"/>
<text text-anchor="middle" x="1612.25" y="-116.25" font-family="Helvetica,sans-Serif" font-size="10.00">TPriorityValue.h</text>
</a>
</g>
</g>
<!-- Node32&#45;&gt;Node38 -->
<g id="edge47_Node000032_Node000038" class="edge">
<title>Node32&#45;&gt;Node38</title>
<g id="a_edge47_Node000032_Node000038"><a xlink:title=" ">
<path fill="none" stroke="#63b8ff" d="M1361.11,-168.21C1409.56,-159.13 1500.72,-142.04 1558.86,-131.14"/>
<polygon fill="#63b8ff" stroke="#63b8ff" points="1559.36,-134.6 1568.54,-129.32 1558.07,-127.72 1559.36,-134.6"/>
</a>
</g>
</g>
<!-- Node38&#45;&gt;Node15 -->
<g id="edge49_Node000038_Node000015" class="edge">
<title>Node38&#45;&gt;Node15</title>
<g id="a_edge49_Node000038_Node000015"><a xlink:title=" ">
<path fill="none" stroke="#63b8ff" d="M1619.17,-110.26C1628.35,-97.35 1642.19,-72.97 1631.25,-55.25 1618.75,-34.99 1593.93,-23.61 1573.68,-17.43"/>
<polygon fill="#63b8ff" stroke="#63b8ff" points="1574.73,-14.09 1564.16,-14.83 1572.89,-20.84 1574.73,-14.09"/>
</a>
</g>
</g>
<!-- Node38&#45;&gt;Node31 -->
<g id="edge50_Node000038_Node000031" class="edge">
<title>Node38&#45;&gt;Node31</title>
<g id="a_edge50_Node000038_Node000031"><a xlink:title=" ">
<path fill="none" stroke="#63b8ff" d="M1569.92,-114.4C1476.25,-103.94 1253.07,-79.03 1168.51,-69.59"/>
<polygon fill="#63b8ff" stroke="#63b8ff" points="1168.9,-66.11 1158.57,-68.48 1168.12,-73.07 1168.9,-66.11"/>
</a>
</g>
</g>
<!-- Node39 -->
<g id="Node000039" class="node">
<title>Node39</title>
<g id="a_Node000039"><a xlink:title=" ">
<polygon fill="#e0e0e0" stroke="#999999" points="1621.88,-74.5 1570.62,-74.5 1570.62,-55.25 1621.88,-55.25 1621.88,-74.5"/>
<text text-anchor="middle" x="1596.25" y="-61" font-family="Helvetica,sans-Serif" font-size="10.00">ostream</text>
</a>
</g>
</g>
<!-- Node38&#45;&gt;Node39 -->
<g id="edge48_Node000038_Node000039" class="edge">
<title>Node38&#45;&gt;Node39</title>
<g id="a_edge48_Node000038_Node000039"><a xlink:title=" ">
<path fill="none" stroke="#63b8ff" d="M1609.61,-110.33C1607.61,-103.67 1604.77,-94.24 1602.23,-85.78"/>
<polygon fill="#63b8ff" stroke="#63b8ff" points="1605.61,-84.88 1599.39,-76.31 1598.91,-86.89 1605.61,-84.88"/>
</a>
</g>
</g>
<!-- Node43&#45;&gt;Node7 -->
<g id="edge57_Node000043_Node000007" class="edge">
<title>Node43&#45;&gt;Node7</title>
<g id="a_edge57_Node000043_Node000007"><a xlink:title=" ">
<path fill="none" stroke="#63b8ff" d="M942.53,-165.36C939.9,-152.68 934.21,-129.04 925.25,-110.5 910.26,-79.49 886.06,-47.57 870.41,-28.41"/>
<polygon fill="#63b8ff" stroke="#63b8ff" points="873.15,-26.24 864.06,-20.79 867.77,-30.72 873.15,-26.24"/>
</a>
</g>
</g>
<!-- Node44 -->
<g id="Node000044" class="node">
<title>Node44</title>
<g id="a_Node000044"><a xlink:title=" ">
<polygon fill="#e0e0e0" stroke="#999999" points="916.12,-129.75 842.38,-129.75 842.38,-110.5 916.12,-110.5 916.12,-129.75"/>
<text text-anchor="middle" x="879.25" y="-116.25" font-family="Helvetica,sans-Serif" font-size="10.00">RtypesCore.h</text>
</a>
</g>
</g>
<!-- Node43&#45;&gt;Node44 -->
<g id="edge58_Node000043_Node000044" class="edge">
<title>Node43&#45;&gt;Node44</title>
<g id="a_edge58_Node000043_Node000044"><a xlink:title=" ">
<path fill="none" stroke="#63b8ff" d="M933.22,-165.34C923.83,-157.65 910.1,-146.4 898.84,-137.18"/>
<polygon fill="#63b8ff" stroke="#63b8ff" points="901.24,-134.61 891.28,-130.98 896.8,-140.03 901.24,-134.61"/>
</a>
</g>
</g>
</g>
</svg>
