<?xml version="1.0" encoding="UTF-8" standalone="no"?>
<!DOCTYPE svg PUBLIC "-//W3C//DTD SVG 1.1//EN"
 "http://www.w3.org/Graphics/SVG/1.1/DTD/svg11.dtd">
<!-- Generated by graphviz version 12.2.0 (20241103.1931)
 -->
<!-- Title: TPeakFitter.h Pages: 1 -->
<!--zoomable 138 -->

<svg id="main" version="1.1" xmlns="http://www.w3.org/2000/svg" xmlns:xlink="http://www.w3.org/1999/xlink" xml:space="preserve" onload="init(evt)">

<style type="text/css"><![CDATA[
.node, .edge {opacity: 0.7;}
.node.selected, .edge.selected {opacity: 1;}
.edge:hover path { stroke: red; }
.edge:hover polygon { stroke: red; fill: red; }
]]></style>

<defs>
  <circle id="rim" cx="0" cy="0" r="7"/>
  <circle id="rim2" cx="0" cy="0" r="3.5"/>
  <g id="zoomPlus">
    <use xlink:href="#rim" fill="#404040"><set attributeName="fill" to="#808080" begin="zoomplus.mouseover" end="zoomplus.mouseout"/></use>
    <path d="M-4,0h8M0,-4v8" fill="none" stroke="white" stroke-width="1.5" pointer-events="none"/>
  </g>
  <g id="zoomMin">
    <use xlink:href="#rim" fill="#404040"><set attributeName="fill" to="#808080" begin="zoomminus.mouseover" end="zoomminus.mouseout"/></use>
    <path d="M-4,0h8" fill="none" stroke="white" stroke-width="1.5" pointer-events="none"/>
  </g>
  <g id="arrowUp" transform="translate(30 24)">
    <use xlink:href="#rim"/>
    <path pointer-events="none" fill="none" stroke="white" stroke-width="1.5" d="M0,-3.0v7 M-2.5,-0.5L0,-3.0L2.5,-0.5"/>
  </g>
  <g id="arrowRight" transform="rotate(90) translate(36 -43)">
    <use xlink:href="#rim"/>
    <path pointer-events="none" fill="none" stroke="white" stroke-width="1.5" d="M0,-3.0v7 M-2.5,-0.5L0,-3.0L2.5,-0.5"/>
  </g>
  <g id="arrowDown" transform="rotate(180) translate(-30 -48)">
    <use xlink:href="#rim"/>
    <path pointer-events="none" fill="none" stroke="white" stroke-width="1.5" d="M0,-3.0v7 M-2.5,-0.5L0,-3.0L2.5,-0.5"/>
  </g>
  <g id="arrowLeft" transform="rotate(270) translate(-36 17)">
    <use xlink:href="#rim"/>
    <path pointer-events="none" fill="none" stroke="white" stroke-width="1.5" d="M0,-3.0v7 M-2.5,-0.5L0,-3.0L2.5,-0.5"/>
  </g>
  <g id="resetDef">
    <use xlink:href="#rim2" fill="#404040"><set attributeName="fill" to="#808080" begin="reset.mouseover" end="reset.mouseout"/></use>
  </g>
</defs>
<script type="application/ecmascript">
var viewWidth = 1285;
var viewHeight = 138;
var sectionId = 'dynsection-0';
</script>
<script type="application/ecmascript" xlink:href="svg.min.js"/>
<svg id="graph" class="graph">
<g id="viewport">
<title>TPeakFitter.h</title>
<!-- Node1 -->
<g id="Node000001" class="node">
<title>Node1</title>
<g id="a_Node000001"><a xlink:title=" ">
<polygon fill="#999999" stroke="#666666" points="192.38,-129.75 117.88,-129.75 117.88,-110.5 192.38,-110.5 192.38,-129.75"/>
<text text-anchor="middle" x="155.12" y="-116.25" font-family="Helvetica,sans-Serif" font-size="10.00">TPeakFitter.h</text>
</a>
</g>
</g>
<!-- Node2 -->
<g id="Node000002" class="node">
<title>Node2</title>
<g id="a_Node000002"><a xlink:title=" ">
<polygon fill="#e0e0e0" stroke="#999999" points="48.25,-19.25 0,-19.25 0,0 48.25,0 48.25,-19.25"/>
<text text-anchor="middle" x="24.12" y="-5.75" font-family="Helvetica,sans-Serif" font-size="10.00">cstdarg</text>
</a>
</g>
</g>
<!-- Node1&#45;&gt;Node2 -->
<g id="edge1_Node000001_Node000002" class="edge">
<title>Node1&#45;&gt;Node2</title>
<g id="a_edge1_Node000001_Node000002"><a xlink:title=" ">
<path fill="none" stroke="#63b8ff" d="M141.47,-110.01C128.66,-101.3 109.14,-87.59 93.12,-74.5 74.67,-59.41 54.82,-40.76 41.17,-27.51"/>
<polygon fill="#63b8ff" stroke="#63b8ff" points="43.85,-25.23 34.25,-20.74 38.95,-30.23 43.85,-25.23"/>
</a>
</g>
</g>
<!-- Node3 -->
<g id="Node000003" class="node">
<title>Node3</title>
<g id="a_Node000003"><a xlink:title=" ">
<polygon fill="#e0e0e0" stroke="#999999" points="107.5,-19.25 66.75,-19.25 66.75,0 107.5,0 107.5,-19.25"/>
<text text-anchor="middle" x="87.12" y="-5.75" font-family="Helvetica,sans-Serif" font-size="10.00">TF1.h</text>
</a>
</g>
</g>
<!-- Node1&#45;&gt;Node3 -->
<g id="edge2_Node000001_Node000003" class="edge">
<title>Node1&#45;&gt;Node3</title>
<g id="a_edge2_Node000001_Node000003"><a xlink:title=" ">
<path fill="none" stroke="#63b8ff" d="M141.6,-110.03C130.55,-101.93 115.3,-89.12 106.12,-74.5 97.73,-61.13 92.89,-43.88 90.2,-30.67"/>
<polygon fill="#63b8ff" stroke="#63b8ff" points="93.67,-30.24 88.49,-21 86.78,-31.45 93.67,-30.24"/>
</a>
</g>
</g>
<!-- Node4 -->
<g id="Node000004" class="node">
<title>Node4</title>
<g id="a_Node000004"><a xlink:title=" ">
<polygon fill="#e0e0e0" stroke="#999999" points="332.75,-74.5 251.5,-74.5 251.5,-55.25 332.75,-55.25 332.75,-74.5"/>
<text text-anchor="middle" x="292.12" y="-61" font-family="Helvetica,sans-Serif" font-size="10.00">TFitResultPtr.h</text>
</a>
</g>
</g>
<!-- Node1&#45;&gt;Node4 -->
<g id="edge3_Node000001_Node000004" class="edge">
<title>Node1&#45;&gt;Node4</title>
<g id="a_edge3_Node000001_Node000004"><a xlink:title=" ">
<path fill="none" stroke="#63b8ff" d="M178.37,-110.09C200.31,-101.56 233.47,-88.67 258.34,-79.01"/>
<polygon fill="#63b8ff" stroke="#63b8ff" points="259.31,-82.39 267.36,-75.5 256.77,-75.86 259.31,-82.39"/>
</a>
</g>
</g>
<!-- Node5 -->
<g id="Node000005" class="node">
<title>Node5</title>
<g id="a_Node000005"><a xlink:title=" ">
<polygon fill="#e0e0e0" stroke="#999999" points="318,-19.25 262.25,-19.25 262.25,0 318,0 318,-19.25"/>
<text text-anchor="middle" x="290.12" y="-5.75" font-family="Helvetica,sans-Serif" font-size="10.00">TGraph.h</text>
</a>
</g>
</g>
<!-- Node1&#45;&gt;Node5 -->
<g id="edge4_Node000001_Node000005" class="edge">
<title>Node1&#45;&gt;Node5</title>
<g id="a_edge4_Node000001_Node000005"><a xlink:title=" ">
<path fill="none" stroke="#63b8ff" d="M166.17,-110.25C188.92,-91.97 241.25,-49.9 270.11,-26.71"/>
<polygon fill="#63b8ff" stroke="#63b8ff" points="272.14,-29.57 277.74,-20.57 267.76,-24.11 272.14,-29.57"/>
</a>
</g>
</g>
<!-- Node6 -->
<g id="Node000006" class="node">
<title>Node6</title>
<g id="a_Node000006"><a xlink:href="_globals_8h.html" target="_top" xlink:title=" ">
<polygon fill="white" stroke="#666666" points="791.38,-74.5 734.88,-74.5 734.88,-55.25 791.38,-55.25 791.38,-74.5"/>
<text text-anchor="middle" x="763.12" y="-61" font-family="Helvetica,sans-Serif" font-size="10.00">Globals.h</text>
</a>
</g>
</g>
<!-- Node1&#45;&gt;Node6 -->
<g id="edge5_Node000001_Node000006" class="edge">
<title>Node1&#45;&gt;Node6</title>
<g id="a_edge5_Node000001_Node000006"><a xlink:title=" ">
<path fill="none" stroke="#63b8ff" d="M192.7,-115.83C300.86,-106.36 612.3,-79.08 723.27,-69.37"/>
<polygon fill="#63b8ff" stroke="#63b8ff" points="723.42,-72.87 733.07,-68.51 722.81,-65.89 723.42,-72.87"/>
</a>
</g>
</g>
<!-- Node21 -->
<g id="Node000021" class="node">
<title>Node21</title>
<g id="a_Node000021"><a xlink:href="_t_single_peak_8h.html" target="_top" xlink:title=" ">
<polygon fill="white" stroke="#666666" points="194.62,-74.5 115.62,-74.5 115.62,-55.25 194.62,-55.25 194.62,-74.5"/>
<text text-anchor="middle" x="155.12" y="-61" font-family="Helvetica,sans-Serif" font-size="10.00">TSinglePeak.h</text>
</a>
</g>
</g>
<!-- Node1&#45;&gt;Node21 -->
<g id="edge20_Node000001_Node000021" class="edge">
<title>Node1&#45;&gt;Node21</title>
<g id="a_edge20_Node000001_Node000021"><a xlink:title=" ">
<path fill="none" stroke="#63b8ff" d="M149.96,-110.33C148.55,-103.74 148.08,-94.46 148.55,-86.07"/>
<polygon fill="#63b8ff" stroke="#63b8ff" points="152,-86.71 149.74,-76.36 145.05,-85.87 152,-86.71"/>
</a>
</g>
</g>
<!-- Node7 -->
<g id="Node000007" class="node">
<title>Node7</title>
<g id="a_Node000007"><a xlink:title=" ">
<polygon fill="#e0e0e0" stroke="#999999" points="1276.88,-19.25 1223.38,-19.25 1223.38,0 1276.88,0 1276.88,-19.25"/>
<text text-anchor="middle" x="1250.12" y="-5.75" font-family="Helvetica,sans-Serif" font-size="10.00">iostream</text>
</a>
</g>
</g>
<!-- Node6&#45;&gt;Node7 -->
<g id="edge6_Node000006_Node000007" class="edge">
<title>Node6&#45;&gt;Node7</title>
<g id="a_edge6_Node000006_Node000007"><a xlink:title=" ">
<path fill="none" stroke="#63b8ff" d="M791.8,-62.4C861.83,-58.51 1047.26,-46.47 1211.77,-19.41"/>
<polygon fill="#63b8ff" stroke="#63b8ff" points="1212.3,-22.87 1221.59,-17.77 1211.15,-15.97 1212.3,-22.87"/>
</a>
</g>
</g>
<!-- Node8 -->
<g id="Node000008" class="node">
<title>Node8</title>
<g id="a_Node000008"><a xlink:title=" ">
<polygon fill="#e0e0e0" stroke="#999999" points="386,-19.25 336.25,-19.25 336.25,0 386,0 386,-19.25"/>
<text text-anchor="middle" x="361.12" y="-5.75" font-family="Helvetica,sans-Serif" font-size="10.00">iomanip</text>
</a>
</g>
</g>
<!-- Node6&#45;&gt;Node8 -->
<g id="edge7_Node000006_Node000008" class="edge">
<title>Node6&#45;&gt;Node8</title>
<g id="a_edge7_Node000006_Node000008"><a xlink:title=" ">
<path fill="none" stroke="#63b8ff" d="M734.77,-61.68C674.49,-56.75 528.95,-43.45 397.36,-19.44"/>
<polygon fill="#63b8ff" stroke="#63b8ff" points="398.26,-16.05 387.78,-17.67 396.98,-22.93 398.26,-16.05"/>
</a>
</g>
</g>
<!-- Node9 -->
<g id="Node000009" class="node">
<title>Node9</title>
<g id="a_Node000009"><a xlink:title=" ">
<polygon fill="#e0e0e0" stroke="#999999" points="462.12,-19.25 404.12,-19.25 404.12,0 462.12,0 462.12,-19.25"/>
<text text-anchor="middle" x="433.12" y="-5.75" font-family="Helvetica,sans-Serif" font-size="10.00">stdexcept</text>
</a>
</g>
</g>
<!-- Node6&#45;&gt;Node9 -->
<g id="edge8_Node000006_Node000009" class="edge">
<title>Node6&#45;&gt;Node9</title>
<g id="a_edge8_Node000006_Node000009"><a xlink:title=" ">
<path fill="none" stroke="#63b8ff" d="M734.41,-60.18C683.78,-53.52 575.11,-38.55 473.6,-19.61"/>
<polygon fill="#63b8ff" stroke="#63b8ff" points="474.5,-16.21 464.03,-17.8 473.21,-23.09 474.5,-16.21"/>
</a>
</g>
</g>
<!-- Node10 -->
<g id="Node000010" class="node">
<title>Node10</title>
<g id="a_Node000010"><a xlink:title=" ">
<polygon fill="#e0e0e0" stroke="#999999" points="520.12,-19.25 480.12,-19.25 480.12,0 520.12,0 520.12,-19.25"/>
<text text-anchor="middle" x="500.12" y="-5.75" font-family="Helvetica,sans-Serif" font-size="10.00">string</text>
</a>
</g>
</g>
<!-- Node6&#45;&gt;Node10 -->
<g id="edge9_Node000006_Node000010" class="edge">
<title>Node6&#45;&gt;Node10</title>
<g id="a_edge9_Node000006_Node000010"><a xlink:title=" ">
<path fill="none" stroke="#63b8ff" d="M734.47,-59.37C692.15,-52.5 610.25,-38.44 531.43,-19.61"/>
<polygon fill="#63b8ff" stroke="#63b8ff" points="532.35,-16.23 521.81,-17.28 530.7,-23.03 532.35,-16.23"/>
</a>
</g>
</g>
<!-- Node11 -->
<g id="Node000011" class="node">
<title>Node11</title>
<g id="a_Node000011"><a xlink:title=" ">
<polygon fill="#e0e0e0" stroke="#999999" points="580.25,-19.25 538,-19.25 538,0 580.25,0 580.25,-19.25"/>
<text text-anchor="middle" x="559.12" y="-5.75" font-family="Helvetica,sans-Serif" font-size="10.00">cstdio</text>
</a>
</g>
</g>
<!-- Node6&#45;&gt;Node11 -->
<g id="edge10_Node000006_Node000011" class="edge">
<title>Node6&#45;&gt;Node11</title>
<g id="a_edge10_Node000006_Node000011"><a xlink:title=" ">
<path fill="none" stroke="#63b8ff" d="M734.42,-56.78C701.97,-48.71 647.28,-34.92 591.52,-19.85"/>
<polygon fill="#63b8ff" stroke="#63b8ff" points="592.76,-16.56 582.19,-17.31 590.93,-23.31 592.76,-16.56"/>
</a>
</g>
</g>
<!-- Node12 -->
<g id="Node000012" class="node">
<title>Node12</title>
<g id="a_Node000012"><a xlink:title=" ">
<polygon fill="#e0e0e0" stroke="#999999" points="642.38,-19.25 597.88,-19.25 597.88,0 642.38,0 642.38,-19.25"/>
<text text-anchor="middle" x="620.12" y="-5.75" font-family="Helvetica,sans-Serif" font-size="10.00">cstdlib</text>
</a>
</g>
</g>
<!-- Node6&#45;&gt;Node12 -->
<g id="edge11_Node000006_Node000012" class="edge">
<title>Node6&#45;&gt;Node12</title>
<g id="a_edge11_Node000006_Node000012"><a xlink:title=" ">
<path fill="none" stroke="#63b8ff" d="M738.87,-54.84C715.3,-46.07 679.34,-32.68 653.17,-22.93"/>
<polygon fill="#63b8ff" stroke="#63b8ff" points="654.62,-19.74 644.03,-19.53 652.18,-26.3 654.62,-19.74"/>
</a>
</g>
</g>
<!-- Node13 -->
<g id="Node000013" class="node">
<title>Node13</title>
<g id="a_Node000013"><a xlink:title=" ">
<polygon fill="#e0e0e0" stroke="#999999" points="719.88,-19.25 660.38,-19.25 660.38,0 719.88,0 719.88,-19.25"/>
<text text-anchor="middle" x="690.12" y="-5.75" font-family="Helvetica,sans-Serif" font-size="10.00">execinfo.h</text>
</a>
</g>
</g>
<!-- Node6&#45;&gt;Node13 -->
<g id="edge12_Node000006_Node000013" class="edge">
<title>Node6&#45;&gt;Node13</title>
<g id="a_edge12_Node000006_Node000013"><a xlink:title=" ">
<path fill="none" stroke="#63b8ff" d="M750.74,-54.84C739.98,-46.99 724.15,-35.45 711.37,-26.12"/>
<polygon fill="#63b8ff" stroke="#63b8ff" points="713.69,-23.48 703.55,-20.42 709.56,-29.14 713.69,-23.48"/>
</a>
</g>
</g>
<!-- Node14 -->
<g id="Node000014" class="node">
<title>Node14</title>
<g id="a_Node000014"><a xlink:title=" ">
<polygon fill="#e0e0e0" stroke="#999999" points="788.38,-19.25 737.88,-19.25 737.88,0 788.38,0 788.38,-19.25"/>
<text text-anchor="middle" x="763.12" y="-5.75" font-family="Helvetica,sans-Serif" font-size="10.00">cxxabi.h</text>
</a>
</g>
</g>
<!-- Node6&#45;&gt;Node14 -->
<g id="edge13_Node000006_Node000014" class="edge">
<title>Node6&#45;&gt;Node14</title>
<g id="a_edge13_Node000006_Node000014"><a xlink:title=" ">
<path fill="none" stroke="#63b8ff" d="M763.12,-55.08C763.12,-48.57 763.12,-39.42 763.12,-31.12"/>
<polygon fill="#63b8ff" stroke="#63b8ff" points="766.63,-31.12 763.13,-21.12 759.63,-31.12 766.63,-31.12"/>
</a>
</g>
</g>
<!-- Node15 -->
<g id="Node000015" class="node">
<title>Node15</title>
<g id="a_Node000015"><a xlink:title=" ">
<polygon fill="#e0e0e0" stroke="#999999" points="857.75,-19.25 806.5,-19.25 806.5,0 857.75,0 857.75,-19.25"/>
<text text-anchor="middle" x="832.12" y="-5.75" font-family="Helvetica,sans-Serif" font-size="10.00">sstream</text>
</a>
</g>
</g>
<!-- Node6&#45;&gt;Node15 -->
<g id="edge14_Node000006_Node000015" class="edge">
<title>Node6&#45;&gt;Node15</title>
<g id="a_edge14_Node000006_Node000015"><a xlink:title=" ">
<path fill="none" stroke="#63b8ff" d="M774.83,-54.84C784.9,-47.07 799.67,-35.67 811.69,-26.4"/>
<polygon fill="#63b8ff" stroke="#63b8ff" points="813.62,-29.33 819.39,-20.45 809.34,-23.79 813.62,-29.33"/>
</a>
</g>
</g>
<!-- Node16 -->
<g id="Node000016" class="node">
<title>Node16</title>
<g id="a_Node000016"><a xlink:title=" ">
<polygon fill="#e0e0e0" stroke="#999999" points="912.62,-19.25 875.62,-19.25 875.62,0 912.62,0 912.62,-19.25"/>
<text text-anchor="middle" x="894.12" y="-5.75" font-family="Helvetica,sans-Serif" font-size="10.00">array</text>
</a>
</g>
</g>
<!-- Node6&#45;&gt;Node16 -->
<g id="edge15_Node000006_Node000016" class="edge">
<title>Node6&#45;&gt;Node16</title>
<g id="a_edge15_Node000006_Node000016"><a xlink:title=" ">
<path fill="none" stroke="#63b8ff" d="M785.35,-54.84C807.15,-45.98 840.54,-32.41 864.57,-22.64"/>
<polygon fill="#63b8ff" stroke="#63b8ff" points="865.85,-25.9 873.8,-18.89 863.22,-19.41 865.85,-25.9"/>
</a>
</g>
</g>
<!-- Node17 -->
<g id="Node000017" class="node">
<title>Node17</title>
<g id="a_Node000017"><a xlink:title=" ">
<polygon fill="#e0e0e0" stroke="#999999" points="981.38,-19.25 930.88,-19.25 930.88,0 981.38,0 981.38,-19.25"/>
<text text-anchor="middle" x="956.12" y="-5.75" font-family="Helvetica,sans-Serif" font-size="10.00">memory</text>
</a>
</g>
</g>
<!-- Node6&#45;&gt;Node17 -->
<g id="edge16_Node000006_Node000017" class="edge">
<title>Node6&#45;&gt;Node17</title>
<g id="a_edge16_Node000006_Node000017"><a xlink:title=" ">
<path fill="none" stroke="#63b8ff" d="M791.6,-56.02C825.62,-46.63 882.59,-30.91 919.76,-20.66"/>
<polygon fill="#63b8ff" stroke="#63b8ff" points="920.45,-24.1 929.16,-18.07 918.58,-17.35 920.45,-24.1"/>
</a>
</g>
</g>
<!-- Node18 -->
<g id="Node000018" class="node">
<title>Node18</title>
<g id="a_Node000018"><a xlink:title=" ">
<polygon fill="#e0e0e0" stroke="#999999" points="1049,-19.25 999.25,-19.25 999.25,0 1049,0 1049,-19.25"/>
<text text-anchor="middle" x="1024.12" y="-5.75" font-family="Helvetica,sans-Serif" font-size="10.00">unistd.h</text>
</a>
</g>
</g>
<!-- Node6&#45;&gt;Node18 -->
<g id="edge17_Node000006_Node000018" class="edge">
<title>Node6&#45;&gt;Node18</title>
<g id="a_edge17_Node000006_Node000018"><a xlink:title=" ">
<path fill="none" stroke="#63b8ff" d="M791.54,-58.8C832.69,-51.34 911.51,-36.65 988.12,-19.6"/>
<polygon fill="#63b8ff" stroke="#63b8ff" points="988.44,-23.12 997.43,-17.51 986.91,-16.29 988.44,-23.12"/>
</a>
</g>
</g>
<!-- Node19 -->
<g id="Node000019" class="node">
<title>Node19</title>
<g id="a_Node000019"><a xlink:title=" ">
<polygon fill="#e0e0e0" stroke="#999999" points="1126.88,-19.25 1067.38,-19.25 1067.38,0 1126.88,0 1126.88,-19.25"/>
<text text-anchor="middle" x="1097.12" y="-5.75" font-family="Helvetica,sans-Serif" font-size="10.00">sys/wait.h</text>
</a>
</g>
</g>
<!-- Node6&#45;&gt;Node19 -->
<g id="edge18_Node000006_Node000019" class="edge">
<title>Node6&#45;&gt;Node19</title>
<g id="a_edge18_Node000006_Node000019"><a xlink:title=" ">
<path fill="none" stroke="#63b8ff" d="M791.71,-60.2C842.66,-53.52 952.76,-38.45 1055.71,-19.59"/>
<polygon fill="#63b8ff" stroke="#63b8ff" points="1056.25,-23.05 1065.44,-17.79 1054.97,-16.17 1056.25,-23.05"/>
</a>
</g>
</g>
<!-- Node20 -->
<g id="Node000020" class="node">
<title>Node20</title>
<g id="a_Node000020"><a xlink:title=" ">
<polygon fill="#e0e0e0" stroke="#999999" points="1205.25,-19.25 1145,-19.25 1145,0 1205.25,0 1205.25,-19.25"/>
<text text-anchor="middle" x="1175.12" y="-5.75" font-family="Helvetica,sans-Serif" font-size="10.00">sys/prctl.h</text>
</a>
</g>
</g>
<!-- Node6&#45;&gt;Node20 -->
<g id="edge19_Node000006_Node000020" class="edge">
<title>Node6&#45;&gt;Node20</title>
<g id="a_edge19_Node000006_Node000020"><a xlink:title=" ">
<path fill="none" stroke="#63b8ff" d="M791.81,-61.42C852.82,-55.98 1000.14,-41.75 1133.33,-19.58"/>
<polygon fill="#63b8ff" stroke="#63b8ff" points="1133.75,-23.06 1143.03,-17.94 1132.59,-16.16 1133.75,-23.06"/>
</a>
</g>
</g>
<!-- Node21&#45;&gt;Node1 -->
<g id="edge26_Node000021_Node000001" class="edge">
<title>Node21&#45;&gt;Node1</title>
<g id="a_edge26_Node000021_Node000001"><a xlink:title=" ">
<path fill="none" stroke="#63b8ff" d="M160.33,-74.86C161.72,-81.5 162.17,-90.8 161.68,-99.17"/>
<polygon fill="#63b8ff" stroke="#63b8ff" points="158.24,-98.47 160.48,-108.83 165.19,-99.34 158.24,-98.47"/>
</a>
</g>
</g>
<!-- Node21&#45;&gt;Node2 -->
<g id="edge22_Node000021_Node000002" class="edge">
<title>Node21&#45;&gt;Node2</title>
<g id="a_edge22_Node000021_Node000002"><a xlink:title=" ">
<path fill="none" stroke="#63b8ff" d="M132.9,-54.84C112.11,-46.39 80.78,-33.65 57.07,-24.02"/>
<polygon fill="#63b8ff" stroke="#63b8ff" points="58.44,-20.8 47.86,-20.27 55.8,-27.28 58.44,-20.8"/>
</a>
</g>
</g>
<!-- Node21&#45;&gt;Node3 -->
<g id="edge24_Node000021_Node000003" class="edge">
<title>Node21&#45;&gt;Node3</title>
<g id="a_edge24_Node000021_Node000003"><a xlink:title=" ">
<path fill="none" stroke="#63b8ff" d="M143.59,-54.84C133.66,-47.07 119.11,-35.67 107.27,-26.4"/>
<polygon fill="#63b8ff" stroke="#63b8ff" points="109.71,-23.87 99.68,-20.46 105.4,-29.38 109.71,-23.87"/>
</a>
</g>
</g>
<!-- Node21&#45;&gt;Node5 -->
<g id="edge25_Node000021_Node000005" class="edge">
<title>Node21&#45;&gt;Node5</title>
<g id="a_edge25_Node000021_Node000005"><a xlink:title=" ">
<path fill="none" stroke="#63b8ff" d="M178.03,-54.84C199.55,-46.35 232.04,-33.54 256.5,-23.89"/>
<polygon fill="#63b8ff" stroke="#63b8ff" points="257.69,-27.18 265.7,-20.26 255.12,-20.67 257.69,-27.18"/>
</a>
</g>
</g>
<!-- Node22 -->
<g id="Node000022" class="node">
<title>Node22</title>
<g id="a_Node000022"><a xlink:title=" ">
<polygon fill="#e0e0e0" stroke="#999999" points="244.62,-19.25 201.62,-19.25 201.62,0 244.62,0 244.62,-19.25"/>
<text text-anchor="middle" x="223.12" y="-5.75" font-family="Helvetica,sans-Serif" font-size="10.00">vector</text>
</a>
</g>
</g>
<!-- Node21&#45;&gt;Node22 -->
<g id="edge21_Node000021_Node000022" class="edge">
<title>Node21&#45;&gt;Node22</title>
<g id="a_edge21_Node000021_Node000022"><a xlink:title=" ">
<path fill="none" stroke="#63b8ff" d="M166.66,-54.84C176.59,-47.07 191.14,-35.67 202.98,-26.4"/>
<polygon fill="#63b8ff" stroke="#63b8ff" points="204.85,-29.38 210.57,-20.46 200.54,-23.87 204.85,-29.38"/>
</a>
</g>
</g>
<!-- Node23 -->
<g id="Node000023" class="node">
<title>Node23</title>
<g id="a_Node000023"><a xlink:title=" ">
<polygon fill="#e0e0e0" stroke="#999999" points="183.12,-19.25 125.12,-19.25 125.12,0 183.12,0 183.12,-19.25"/>
<text text-anchor="middle" x="154.12" y="-5.75" font-family="Helvetica,sans-Serif" font-size="10.00">TObject.h</text>
</a>
</g>
</g>
<!-- Node21&#45;&gt;Node23 -->
<g id="edge23_Node000021_Node000023" class="edge">
<title>Node21&#45;&gt;Node23</title>
<g id="a_edge23_Node000021_Node000023"><a xlink:title=" ">
<path fill="none" stroke="#63b8ff" d="M154.96,-55.08C154.84,-48.57 154.67,-39.42 154.51,-31.12"/>
<polygon fill="#63b8ff" stroke="#63b8ff" points="158.01,-31.05 154.32,-21.12 151.01,-31.19 158.01,-31.05"/>
</a>
</g>
</g>
</g>
</svg>

<g id="navigator" transform="translate(0 0)" fill="#404254">
  <rect fill="#f2f5e9" fill-opacity="0.5" stroke="#606060" stroke-width=".5" x="0" y="0" width="60" height="60"/>
  <use id="zoomplus" xlink:href="#zoomPlus" x="17" y="9" onmousedown="handleZoom(evt,'in')"/>
  <use id="zoomminus" xlink:href="#zoomMin" x="42" y="9" onmousedown="handleZoom(evt,'out')"/>
  <use id="reset" xlink:href="#resetDef" x="30" y="36" onmousedown="handleReset()"/>
   <use id="arrowup" xlink:href="#arrowUp" x="0" y="0" onmousedown="handlePan(0,-1)"/>
  <use id="arrowright" xlink:href="#arrowRight" x="0" y="0" onmousedown="handlePan(1,0)"/>
  <use id="arrowdown" xlink:href="#arrowDown" x="0" y="0" onmousedown="handlePan(0,1)"/>
  <use id="arrowleft" xlink:href="#arrowLeft" x="0" y="0" onmousedown="handlePan(-1,0)"/>
</g>
<svg viewBox="0 0 15 15" width="100%" height="30px" preserveAspectRatio="xMaxYMin meet">
 <g id="arrow_out" transform="scale(0.3 0.3)">
  <a xlink:href="_t_peak_fitter_8h__incl_org.svg" target="_base">
   <rect id="button" ry="5" rx="5" y="6" x="6" height="38" width="38"
        fill="#f2f5e9" fill-opacity="0.5" stroke="#606060" stroke-width="1.0"/>
   <path id="arrow"
     d="M 11.500037,31.436501 C 11.940474,20.09759 22.043105,11.32322 32.158766,21.979434 L 37.068811,17.246167 C 37.068811,17.246167 37.088388,32 37.088388,32 L 22.160133,31.978069 C 22.160133,31.978069 26.997745,27.140456 26.997745,27.140456 C 18.528582,18.264221 13.291696,25.230495 11.500037,31.436501 z"
     style="fill:#404040;"/>
  </a>
 </g>
</svg>

<style type='text/css'>
<![CDATA[
[data-mouse-over-selected='false'] { opacity: 0.7; }
[data-mouse-over-selected='true']  { opacity: 1.0; }
]]>
</style>
<script type="application/ecmascript"><![CDATA[
document.addEventListener('DOMContentLoaded', (event) => {
  highlightEdges();
  highlightAdjacentNodes();
});
]]></script>
</svg>
