<?xml version="1.0" encoding="UTF-8" standalone="no"?>
<!DOCTYPE svg PUBLIC "-//W3C//DTD SVG 1.1//EN"
 "http://www.w3.org/Graphics/SVG/1.1/DTD/svg11.dtd">
<!-- Generated by graphviz version 12.2.0 (20241103.1931)
 -->
<!-- Title: TPeakFitter.cxx Pages: 1 -->
<svg width="1337pt" height="193pt"
 viewBox="0.00 0.00 1337.38 193.00" xmlns="http://www.w3.org/2000/svg" xmlns:xlink="http://www.w3.org/1999/xlink">
<g id="graph0" class="graph" transform="scale(1 1) rotate(0) translate(4 189)">
<title>TPeakFitter.cxx</title>
<!-- Node1 -->
<g id="Node000001" class="node">
<title>Node1</title>
<g id="a_Node000001"><a xlink:title=" ">
<polygon fill="#999999" stroke="#666666" points="984.88,-185 901.38,-185 901.38,-165.75 984.88,-165.75 984.88,-185"/>
<text text-anchor="middle" x="943.12" y="-171.5" font-family="Helvetica,sans-Serif" font-size="10.00">TPeakFitter.cxx</text>
</a>
</g>
</g>
<!-- Node2 -->
<g id="Node000002" class="node">
<title>Node2</title>
<g id="a_Node000002"><a xlink:href="_t_peak_fitter_8h.html" target="_top" xlink:title=" ">
<polygon fill="white" stroke="#666666" points="293.38,-129.75 218.88,-129.75 218.88,-110.5 293.38,-110.5 293.38,-129.75"/>
<text text-anchor="middle" x="256.12" y="-116.25" font-family="Helvetica,sans-Serif" font-size="10.00">TPeakFitter.h</text>
</a>
</g>
</g>
<!-- Node1&#45;&gt;Node2 -->
<g id="edge1_Node000001_Node000002" class="edge">
<title>Node1&#45;&gt;Node2</title>
<g id="a_edge1_Node000001_Node000002"><a xlink:title=" ">
<path fill="none" stroke="#63b8ff" d="M900.93,-171.1C780.19,-161.75 433.76,-134.89 305.05,-124.92"/>
<polygon fill="#63b8ff" stroke="#63b8ff" points="305.4,-121.43 295.16,-124.15 304.86,-128.41 305.4,-121.43"/>
</a>
</g>
</g>
<!-- Node7 -->
<g id="Node000007" class="node">
<title>Node7</title>
<g id="a_Node000007"><a xlink:href="_globals_8h.html" target="_top" xlink:title=" ">
<polygon fill="white" stroke="#666666" points="764.38,-74.5 707.88,-74.5 707.88,-55.25 764.38,-55.25 764.38,-74.5"/>
<text text-anchor="middle" x="736.12" y="-61" font-family="Helvetica,sans-Serif" font-size="10.00">Globals.h</text>
</a>
</g>
</g>
<!-- Node1&#45;&gt;Node7 -->
<g id="edge33_Node000001_Node000007" class="edge">
<title>Node1&#45;&gt;Node7</title>
<g id="a_edge33_Node000001_Node000007"><a xlink:title=" ">
<path fill="none" stroke="#63b8ff" d="M901.04,-173.69C862.02,-170.95 804.4,-161.29 766.12,-129.75 752.67,-118.66 744.9,-100.16 740.66,-85.92"/>
<polygon fill="#63b8ff" stroke="#63b8ff" points="744.05,-85.06 738.16,-76.25 737.28,-86.81 744.05,-85.06"/>
</a>
</g>
</g>
<!-- Node25 -->
<g id="Node000025" class="node">
<title>Node25</title>
<g id="a_Node000025"><a xlink:title=" ">
<polygon fill="#e0e0e0" stroke="#999999" points="931.25,-129.75 889,-129.75 889,-110.5 931.25,-110.5 931.25,-129.75"/>
<text text-anchor="middle" x="910.12" y="-116.25" font-family="Helvetica,sans-Serif" font-size="10.00">TH1.h</text>
</a>
</g>
</g>
<!-- Node1&#45;&gt;Node25 -->
<g id="edge28_Node000001_Node000025" class="edge">
<title>Node1&#45;&gt;Node25</title>
<g id="a_edge28_Node000001_Node000025"><a xlink:title=" ">
<path fill="none" stroke="#63b8ff" d="M937.68,-165.58C933.35,-158.61 927.16,-148.62 921.74,-139.87"/>
<polygon fill="#63b8ff" stroke="#63b8ff" points="924.73,-138.05 916.49,-131.4 918.78,-141.74 924.73,-138.05"/>
</a>
</g>
</g>
<!-- Node26 -->
<g id="Node000026" class="node">
<title>Node26</title>
<g id="a_Node000026"><a xlink:title=" ">
<polygon fill="#e0e0e0" stroke="#999999" points="1003.25,-129.75 949,-129.75 949,-110.5 1003.25,-110.5 1003.25,-129.75"/>
<text text-anchor="middle" x="976.12" y="-116.25" font-family="Helvetica,sans-Serif" font-size="10.00">TClass.h</text>
</a>
</g>
</g>
<!-- Node1&#45;&gt;Node26 -->
<g id="edge29_Node000001_Node000026" class="edge">
<title>Node1&#45;&gt;Node26</title>
<g id="a_edge29_Node000001_Node000026"><a xlink:title=" ">
<path fill="none" stroke="#63b8ff" d="M948.57,-165.58C952.9,-158.61 959.09,-148.62 964.51,-139.87"/>
<polygon fill="#63b8ff" stroke="#63b8ff" points="967.47,-141.74 969.76,-131.4 961.52,-138.05 967.47,-141.74"/>
</a>
</g>
</g>
<!-- Node27 -->
<g id="Node000027" class="node">
<title>Node27</title>
<g id="a_Node000027"><a xlink:title=" ">
<polygon fill="#e0e0e0" stroke="#999999" points="1144.75,-129.75 1021.5,-129.75 1021.5,-110.5 1144.75,-110.5 1144.75,-129.75"/>
<text text-anchor="middle" x="1083.12" y="-116.25" font-family="Helvetica,sans-Serif" font-size="10.00">Math/MinimizerOptions.h</text>
</a>
</g>
</g>
<!-- Node1&#45;&gt;Node27 -->
<g id="edge30_Node000001_Node000027" class="edge">
<title>Node1&#45;&gt;Node27</title>
<g id="a_edge30_Node000001_Node000027"><a xlink:title=" ">
<path fill="none" stroke="#63b8ff" d="M966.87,-165.34C989.3,-156.81 1023.19,-143.92 1048.6,-134.26"/>
<polygon fill="#63b8ff" stroke="#63b8ff" points="1049.74,-137.57 1057.84,-130.74 1047.25,-131.02 1049.74,-137.57"/>
</a>
</g>
</g>
<!-- Node28 -->
<g id="Node000028" class="node">
<title>Node28</title>
<g id="a_Node000028"><a xlink:title=" ">
<polygon fill="#e0e0e0" stroke="#999999" points="1243,-129.75 1163.25,-129.75 1163.25,-110.5 1243,-110.5 1243,-129.75"/>
<text text-anchor="middle" x="1203.12" y="-116.25" font-family="Helvetica,sans-Serif" font-size="10.00">TVirtualFitter.h</text>
</a>
</g>
</g>
<!-- Node1&#45;&gt;Node28 -->
<g id="edge31_Node000001_Node000028" class="edge">
<title>Node1&#45;&gt;Node28</title>
<g id="a_edge31_Node000001_Node000028"><a xlink:title=" ">
<path fill="none" stroke="#63b8ff" d="M985.19,-165.76C1030.56,-156.47 1102.83,-141.67 1151.59,-131.68"/>
<polygon fill="#63b8ff" stroke="#63b8ff" points="1152.26,-135.12 1161.35,-129.68 1150.85,-128.26 1152.26,-135.12"/>
</a>
</g>
</g>
<!-- Node29 -->
<g id="Node000029" class="node">
<title>Node29</title>
<g id="a_Node000029"><a xlink:title=" ">
<polygon fill="#e0e0e0" stroke="#999999" points="1329.38,-129.75 1260.88,-129.75 1260.88,-110.5 1329.38,-110.5 1329.38,-129.75"/>
<text text-anchor="middle" x="1295.12" y="-116.25" font-family="Helvetica,sans-Serif" font-size="10.00">TFitResult.h</text>
</a>
</g>
</g>
<!-- Node1&#45;&gt;Node29 -->
<g id="edge32_Node000001_Node000029" class="edge">
<title>Node1&#45;&gt;Node29</title>
<g id="a_edge32_Node000001_Node000029"><a xlink:title=" ">
<path fill="none" stroke="#63b8ff" d="M985.22,-169.04C1042.65,-161.59 1149,-147.23 1249.18,-130.18"/>
<polygon fill="#63b8ff" stroke="#63b8ff" points="1249.67,-133.65 1258.93,-128.51 1248.48,-126.75 1249.67,-133.65"/>
</a>
</g>
</g>
<!-- Node30 -->
<g id="Node000030" class="node">
<title>Node30</title>
<g id="a_Node000030"><a xlink:href="_t_g_r_s_i_functions_8h.html" target="_top" xlink:title=" ">
<polygon fill="white" stroke="#666666" points="871.25,-129.75 775,-129.75 775,-110.5 871.25,-110.5 871.25,-129.75"/>
<text text-anchor="middle" x="823.12" y="-116.25" font-family="Helvetica,sans-Serif" font-size="10.00">TGRSIFunctions.h</text>
</a>
</g>
</g>
<!-- Node1&#45;&gt;Node30 -->
<g id="edge34_Node000001_Node000030" class="edge">
<title>Node1&#45;&gt;Node30</title>
<g id="a_edge34_Node000001_Node000030"><a xlink:title=" ">
<path fill="none" stroke="#63b8ff" d="M922.77,-165.34C903.89,-156.97 875.54,-144.38 853.9,-134.78"/>
<polygon fill="#63b8ff" stroke="#63b8ff" points="855.52,-131.67 844.96,-130.82 852.69,-138.07 855.52,-131.67"/>
</a>
</g>
</g>
<!-- Node3 -->
<g id="Node000003" class="node">
<title>Node3</title>
<g id="a_Node000003"><a xlink:title=" ">
<polygon fill="#e0e0e0" stroke="#999999" points="48.25,-19.25 0,-19.25 0,0 48.25,0 48.25,-19.25"/>
<text text-anchor="middle" x="24.12" y="-5.75" font-family="Helvetica,sans-Serif" font-size="10.00">cstdarg</text>
</a>
</g>
</g>
<!-- Node2&#45;&gt;Node3 -->
<g id="edge2_Node000002_Node000003" class="edge">
<title>Node2&#45;&gt;Node3</title>
<g id="a_edge2_Node000002_Node000003"><a xlink:title=" ">
<path fill="none" stroke="#63b8ff" d="M230.39,-110.08C207.04,-101.63 171.81,-88.28 142.12,-74.5 109.33,-59.27 72.92,-39.03 49.34,-25.45"/>
<polygon fill="#63b8ff" stroke="#63b8ff" points="51.18,-22.47 40.77,-20.48 47.67,-28.53 51.18,-22.47"/>
</a>
</g>
</g>
<!-- Node4 -->
<g id="Node000004" class="node">
<title>Node4</title>
<g id="a_Node000004"><a xlink:title=" ">
<polygon fill="#e0e0e0" stroke="#999999" points="107.5,-19.25 66.75,-19.25 66.75,0 107.5,0 107.5,-19.25"/>
<text text-anchor="middle" x="87.12" y="-5.75" font-family="Helvetica,sans-Serif" font-size="10.00">TF1.h</text>
</a>
</g>
</g>
<!-- Node2&#45;&gt;Node4 -->
<g id="edge3_Node000002_Node000004" class="edge">
<title>Node2&#45;&gt;Node4</title>
<g id="a_edge3_Node000002_Node000004"><a xlink:title=" ">
<path fill="none" stroke="#63b8ff" d="M237.56,-110.12C220.44,-101.59 194.53,-88.1 173.12,-74.5 149.64,-59.57 124.23,-40.27 107.16,-26.81"/>
<polygon fill="#63b8ff" stroke="#63b8ff" points="109.35,-24.08 99.34,-20.58 104.98,-29.55 109.35,-24.08"/>
</a>
</g>
</g>
<!-- Node5 -->
<g id="Node000005" class="node">
<title>Node5</title>
<g id="a_Node000005"><a xlink:title=" ">
<polygon fill="#e0e0e0" stroke="#999999" points="863.75,-74.5 782.5,-74.5 782.5,-55.25 863.75,-55.25 863.75,-74.5"/>
<text text-anchor="middle" x="823.12" y="-61" font-family="Helvetica,sans-Serif" font-size="10.00">TFitResultPtr.h</text>
</a>
</g>
</g>
<!-- Node2&#45;&gt;Node5 -->
<g id="edge4_Node000002_Node000005" class="edge">
<title>Node2&#45;&gt;Node5</title>
<g id="a_edge4_Node000002_Node000005"><a xlink:title=" ">
<path fill="none" stroke="#63b8ff" d="M293.87,-116.97C377.68,-111.94 585.87,-98.15 770.93,-74.67"/>
<polygon fill="#63b8ff" stroke="#63b8ff" points="771.26,-78.16 780.74,-73.41 770.37,-71.21 771.26,-78.16"/>
</a>
</g>
</g>
<!-- Node6 -->
<g id="Node000006" class="node">
<title>Node6</title>
<g id="a_Node000006"><a xlink:title=" ">
<polygon fill="#e0e0e0" stroke="#999999" points="318,-19.25 262.25,-19.25 262.25,0 318,0 318,-19.25"/>
<text text-anchor="middle" x="290.12" y="-5.75" font-family="Helvetica,sans-Serif" font-size="10.00">TGraph.h</text>
</a>
</g>
</g>
<!-- Node2&#45;&gt;Node6 -->
<g id="edge5_Node000002_Node000006" class="edge">
<title>Node2&#45;&gt;Node6</title>
<g id="a_edge5_Node000002_Node000006"><a xlink:title=" ">
<path fill="none" stroke="#63b8ff" d="M258.92,-110.24C261.74,-101.23 266.24,-86.9 270.12,-74.5 274.76,-59.71 279.99,-42.99 283.95,-30.37"/>
<polygon fill="#63b8ff" stroke="#63b8ff" points="287.18,-31.76 286.83,-21.17 280.5,-29.66 287.18,-31.76"/>
</a>
</g>
</g>
<!-- Node2&#45;&gt;Node7 -->
<g id="edge6_Node000002_Node000007" class="edge">
<title>Node2&#45;&gt;Node7</title>
<g id="a_edge6_Node000002_Node000007"><a xlink:title=" ">
<path fill="none" stroke="#63b8ff" d="M293.79,-114.95C382.71,-105.08 605.05,-80.42 696.2,-70.3"/>
<polygon fill="#63b8ff" stroke="#63b8ff" points="696.35,-73.81 705.9,-69.23 695.57,-66.85 696.35,-73.81"/>
</a>
</g>
</g>
<!-- Node22 -->
<g id="Node000022" class="node">
<title>Node22</title>
<g id="a_Node000022"><a xlink:href="_t_single_peak_8h.html" target="_top" xlink:title=" ">
<polygon fill="white" stroke="#666666" points="261.62,-74.5 182.62,-74.5 182.62,-55.25 261.62,-55.25 261.62,-74.5"/>
<text text-anchor="middle" x="222.12" y="-61" font-family="Helvetica,sans-Serif" font-size="10.00">TSinglePeak.h</text>
</a>
</g>
</g>
<!-- Node2&#45;&gt;Node22 -->
<g id="edge21_Node000002_Node000022" class="edge">
<title>Node2&#45;&gt;Node22</title>
<g id="a_edge21_Node000002_Node000022"><a xlink:title=" ">
<path fill="none" stroke="#63b8ff" d="M245.34,-110.33C239.47,-103.44 232.73,-93.59 227.78,-84.91"/>
<polygon fill="#63b8ff" stroke="#63b8ff" points="231,-83.53 223.34,-76.21 224.77,-86.71 231,-83.53"/>
</a>
</g>
</g>
<!-- Node8 -->
<g id="Node000008" class="node">
<title>Node8</title>
<g id="a_Node000008"><a xlink:title=" ">
<polygon fill="#e0e0e0" stroke="#999999" points="952.88,-19.25 899.38,-19.25 899.38,0 952.88,0 952.88,-19.25"/>
<text text-anchor="middle" x="926.12" y="-5.75" font-family="Helvetica,sans-Serif" font-size="10.00">iostream</text>
</a>
</g>
</g>
<!-- Node7&#45;&gt;Node8 -->
<g id="edge7_Node000007_Node000008" class="edge">
<title>Node7&#45;&gt;Node8</title>
<g id="a_edge7_Node000007_Node000008"><a xlink:title=" ">
<path fill="none" stroke="#63b8ff" d="M764.57,-55.9C797.5,-46.67 851.87,-31.44 888.33,-21.22"/>
<polygon fill="#63b8ff" stroke="#63b8ff" points="888.88,-24.7 897.57,-18.63 887,-17.96 888.88,-24.7"/>
</a>
</g>
</g>
<!-- Node9 -->
<g id="Node000009" class="node">
<title>Node9</title>
<g id="a_Node000009"><a xlink:title=" ">
<polygon fill="#e0e0e0" stroke="#999999" points="1021,-19.25 971.25,-19.25 971.25,0 1021,0 1021,-19.25"/>
<text text-anchor="middle" x="996.12" y="-5.75" font-family="Helvetica,sans-Serif" font-size="10.00">iomanip</text>
</a>
</g>
</g>
<!-- Node7&#45;&gt;Node9 -->
<g id="edge8_Node000007_Node000009" class="edge">
<title>Node7&#45;&gt;Node9</title>
<g id="a_edge8_Node000007_Node000009"><a xlink:title=" ">
<path fill="none" stroke="#63b8ff" d="M764.78,-57.07C767.6,-56.44 770.41,-55.82 773.12,-55.25 853.35,-38.27 876.75,-37.78 959.91,-19.63"/>
<polygon fill="#63b8ff" stroke="#63b8ff" points="960.43,-23.1 969.44,-17.53 958.92,-16.26 960.43,-23.1"/>
</a>
</g>
</g>
<!-- Node10 -->
<g id="Node000010" class="node">
<title>Node10</title>
<g id="a_Node000010"><a xlink:title=" ">
<polygon fill="#e0e0e0" stroke="#999999" points="1097.12,-19.25 1039.12,-19.25 1039.12,0 1097.12,0 1097.12,-19.25"/>
<text text-anchor="middle" x="1068.12" y="-5.75" font-family="Helvetica,sans-Serif" font-size="10.00">stdexcept</text>
</a>
</g>
</g>
<!-- Node7&#45;&gt;Node10 -->
<g id="edge9_Node000007_Node000010" class="edge">
<title>Node7&#45;&gt;Node10</title>
<g id="a_edge9_Node000007_Node000010"><a xlink:title=" ">
<path fill="none" stroke="#63b8ff" d="M764.75,-56.93C767.58,-56.33 770.4,-55.76 773.12,-55.25 882.97,-34.8 914.71,-39.69 1027.54,-19.58"/>
<polygon fill="#63b8ff" stroke="#63b8ff" points="1028.01,-23.05 1037.23,-17.83 1026.76,-16.17 1028.01,-23.05"/>
</a>
</g>
</g>
<!-- Node11 -->
<g id="Node000011" class="node">
<title>Node11</title>
<g id="a_Node000011"><a xlink:title=" ">
<polygon fill="#e0e0e0" stroke="#999999" points="1277.12,-19.25 1237.12,-19.25 1237.12,0 1277.12,0 1277.12,-19.25"/>
<text text-anchor="middle" x="1257.12" y="-5.75" font-family="Helvetica,sans-Serif" font-size="10.00">string</text>
</a>
</g>
</g>
<!-- Node7&#45;&gt;Node11 -->
<g id="edge10_Node000007_Node000011" class="edge">
<title>Node7&#45;&gt;Node11</title>
<g id="a_edge10_Node000007_Node000011"><a xlink:title=" ">
<path fill="none" stroke="#63b8ff" d="M764.73,-56.76C767.55,-56.19 770.39,-55.67 773.12,-55.25 969.96,-24.7 1026.66,-55.22 1225.54,-19.34"/>
<polygon fill="#63b8ff" stroke="#63b8ff" points="1225.97,-22.82 1235.17,-17.57 1224.7,-15.93 1225.97,-22.82"/>
</a>
</g>
</g>
<!-- Node12 -->
<g id="Node000012" class="node">
<title>Node12</title>
<g id="a_Node000012"><a xlink:title=" ">
<polygon fill="#e0e0e0" stroke="#999999" points="1157.25,-19.25 1115,-19.25 1115,0 1157.25,0 1157.25,-19.25"/>
<text text-anchor="middle" x="1136.12" y="-5.75" font-family="Helvetica,sans-Serif" font-size="10.00">cstdio</text>
</a>
</g>
</g>
<!-- Node7&#45;&gt;Node12 -->
<g id="edge11_Node000007_Node000012" class="edge">
<title>Node7&#45;&gt;Node12</title>
<g id="a_edge11_Node000007_Node000012"><a xlink:title=" ">
<path fill="none" stroke="#63b8ff" d="M764.74,-56.84C767.56,-56.26 770.39,-55.71 773.12,-55.25 916.3,-30.92 958.03,-47.09 1103.48,-19.45"/>
<polygon fill="#63b8ff" stroke="#63b8ff" points="1103.97,-22.92 1113.12,-17.58 1102.63,-16.05 1103.97,-22.92"/>
</a>
</g>
</g>
<!-- Node13 -->
<g id="Node000013" class="node">
<title>Node13</title>
<g id="a_Node000013"><a xlink:title=" ">
<polygon fill="#e0e0e0" stroke="#999999" points="1219.38,-19.25 1174.88,-19.25 1174.88,0 1219.38,0 1219.38,-19.25"/>
<text text-anchor="middle" x="1197.12" y="-5.75" font-family="Helvetica,sans-Serif" font-size="10.00">cstdlib</text>
</a>
</g>
</g>
<!-- Node7&#45;&gt;Node13 -->
<g id="edge12_Node000007_Node000013" class="edge">
<title>Node7&#45;&gt;Node13</title>
<g id="a_edge12_Node000007_Node000013"><a xlink:title=" ">
<path fill="none" stroke="#63b8ff" d="M764.73,-56.8C767.56,-56.22 770.39,-55.69 773.12,-55.25 942.64,-27.86 991.56,-49.92 1163.32,-19.45"/>
<polygon fill="#63b8ff" stroke="#63b8ff" points="1163.84,-22.91 1173.06,-17.68 1162.59,-16.02 1163.84,-22.91"/>
</a>
</g>
</g>
<!-- Node14 -->
<g id="Node000014" class="node">
<title>Node14</title>
<g id="a_Node000014"><a xlink:title=" ">
<polygon fill="#e0e0e0" stroke="#999999" points="395.88,-19.25 336.38,-19.25 336.38,0 395.88,0 395.88,-19.25"/>
<text text-anchor="middle" x="366.12" y="-5.75" font-family="Helvetica,sans-Serif" font-size="10.00">execinfo.h</text>
</a>
</g>
</g>
<!-- Node7&#45;&gt;Node14 -->
<g id="edge13_Node000007_Node000014" class="edge">
<title>Node7&#45;&gt;Node14</title>
<g id="a_edge13_Node000007_Node000014"><a xlink:title=" ">
<path fill="none" stroke="#63b8ff" d="M707.66,-60.85C652.03,-54.76 524.74,-39.99 407.61,-19.56"/>
<polygon fill="#63b8ff" stroke="#63b8ff" points="408.26,-16.12 397.8,-17.82 407.04,-23.01 408.26,-16.12"/>
</a>
</g>
</g>
<!-- Node15 -->
<g id="Node000015" class="node">
<title>Node15</title>
<g id="a_Node000015"><a xlink:title=" ">
<polygon fill="#e0e0e0" stroke="#999999" points="464.38,-19.25 413.88,-19.25 413.88,0 464.38,0 464.38,-19.25"/>
<text text-anchor="middle" x="439.12" y="-5.75" font-family="Helvetica,sans-Serif" font-size="10.00">cxxabi.h</text>
</a>
</g>
</g>
<!-- Node7&#45;&gt;Node15 -->
<g id="edge14_Node000007_Node000015" class="edge">
<title>Node7&#45;&gt;Node15</title>
<g id="a_edge14_Node000007_Node000015"><a xlink:title=" ">
<path fill="none" stroke="#63b8ff" d="M707.57,-59.8C661.07,-53 565.88,-38.39 475.92,-19.7"/>
<polygon fill="#63b8ff" stroke="#63b8ff" points="476.68,-16.29 466.17,-17.66 475.24,-23.14 476.68,-16.29"/>
</a>
</g>
</g>
<!-- Node16 -->
<g id="Node000016" class="node">
<title>Node16</title>
<g id="a_Node000016"><a xlink:title=" ">
<polygon fill="#e0e0e0" stroke="#999999" points="533.75,-19.25 482.5,-19.25 482.5,0 533.75,0 533.75,-19.25"/>
<text text-anchor="middle" x="508.12" y="-5.75" font-family="Helvetica,sans-Serif" font-size="10.00">sstream</text>
</a>
</g>
</g>
<!-- Node7&#45;&gt;Node16 -->
<g id="edge15_Node000007_Node000016" class="edge">
<title>Node7&#45;&gt;Node16</title>
<g id="a_edge15_Node000007_Node000016"><a xlink:title=" ">
<path fill="none" stroke="#63b8ff" d="M707.48,-57.5C671.66,-49.47 608.18,-35.11 545.05,-19.92"/>
<polygon fill="#63b8ff" stroke="#63b8ff" points="546.11,-16.58 535.57,-17.63 544.47,-23.38 546.11,-16.58"/>
</a>
</g>
</g>
<!-- Node17 -->
<g id="Node000017" class="node">
<title>Node17</title>
<g id="a_Node000017"><a xlink:title=" ">
<polygon fill="#e0e0e0" stroke="#999999" points="588.62,-19.25 551.62,-19.25 551.62,0 588.62,0 588.62,-19.25"/>
<text text-anchor="middle" x="570.12" y="-5.75" font-family="Helvetica,sans-Serif" font-size="10.00">array</text>
</a>
</g>
</g>
<!-- Node7&#45;&gt;Node17 -->
<g id="edge16_Node000007_Node000017" class="edge">
<title>Node7&#45;&gt;Node17</title>
<g id="a_edge16_Node000007_Node000017"><a xlink:title=" ">
<path fill="none" stroke="#63b8ff" d="M707.97,-54.84C677.95,-45.21 630.6,-30.02 599.96,-20.19"/>
<polygon fill="#63b8ff" stroke="#63b8ff" points="601.13,-16.9 590.54,-17.17 598.99,-23.56 601.13,-16.9"/>
</a>
</g>
</g>
<!-- Node18 -->
<g id="Node000018" class="node">
<title>Node18</title>
<g id="a_Node000018"><a xlink:title=" ">
<polygon fill="#e0e0e0" stroke="#999999" points="657.38,-19.25 606.88,-19.25 606.88,0 657.38,0 657.38,-19.25"/>
<text text-anchor="middle" x="632.12" y="-5.75" font-family="Helvetica,sans-Serif" font-size="10.00">memory</text>
</a>
</g>
</g>
<!-- Node7&#45;&gt;Node18 -->
<g id="edge17_Node000007_Node000018" class="edge">
<title>Node7&#45;&gt;Node18</title>
<g id="a_edge17_Node000007_Node000018"><a xlink:title=" ">
<path fill="none" stroke="#63b8ff" d="M718.48,-54.84C702.5,-46.66 678.67,-34.46 660.09,-24.94"/>
<polygon fill="#63b8ff" stroke="#63b8ff" points="661.7,-21.83 651.2,-20.39 658.51,-28.07 661.7,-21.83"/>
</a>
</g>
</g>
<!-- Node19 -->
<g id="Node000019" class="node">
<title>Node19</title>
<g id="a_Node000019"><a xlink:title=" ">
<polygon fill="#e0e0e0" stroke="#999999" points="725,-19.25 675.25,-19.25 675.25,0 725,0 725,-19.25"/>
<text text-anchor="middle" x="700.12" y="-5.75" font-family="Helvetica,sans-Serif" font-size="10.00">unistd.h</text>
</a>
</g>
</g>
<!-- Node7&#45;&gt;Node19 -->
<g id="edge18_Node000007_Node000019" class="edge">
<title>Node7&#45;&gt;Node19</title>
<g id="a_edge18_Node000007_Node000019"><a xlink:title=" ">
<path fill="none" stroke="#63b8ff" d="M730.18,-55.08C725.41,-48.03 718.56,-37.9 712.6,-29.08"/>
<polygon fill="#63b8ff" stroke="#63b8ff" points="715.55,-27.19 707.05,-20.86 709.75,-31.11 715.55,-27.19"/>
</a>
</g>
</g>
<!-- Node20 -->
<g id="Node000020" class="node">
<title>Node20</title>
<g id="a_Node000020"><a xlink:title=" ">
<polygon fill="#e0e0e0" stroke="#999999" points="802.88,-19.25 743.38,-19.25 743.38,0 802.88,0 802.88,-19.25"/>
<text text-anchor="middle" x="773.12" y="-5.75" font-family="Helvetica,sans-Serif" font-size="10.00">sys/wait.h</text>
</a>
</g>
</g>
<!-- Node7&#45;&gt;Node20 -->
<g id="edge19_Node000007_Node000020" class="edge">
<title>Node7&#45;&gt;Node20</title>
<g id="a_edge19_Node000007_Node000020"><a xlink:title=" ">
<path fill="none" stroke="#63b8ff" d="M742.23,-55.08C747.19,-47.96 754.33,-37.68 760.5,-28.8"/>
<polygon fill="#63b8ff" stroke="#63b8ff" points="763.19,-31.06 766.02,-20.85 757.44,-27.07 763.19,-31.06"/>
</a>
</g>
</g>
<!-- Node21 -->
<g id="Node000021" class="node">
<title>Node21</title>
<g id="a_Node000021"><a xlink:title=" ">
<polygon fill="#e0e0e0" stroke="#999999" points="881.25,-19.25 821,-19.25 821,0 881.25,0 881.25,-19.25"/>
<text text-anchor="middle" x="851.12" y="-5.75" font-family="Helvetica,sans-Serif" font-size="10.00">sys/prctl.h</text>
</a>
</g>
</g>
<!-- Node7&#45;&gt;Node21 -->
<g id="edge20_Node000007_Node000021" class="edge">
<title>Node7&#45;&gt;Node21</title>
<g id="a_edge20_Node000007_Node000021"><a xlink:title=" ">
<path fill="none" stroke="#63b8ff" d="M755.63,-54.84C773.64,-46.5 800.65,-34 821.35,-24.41"/>
<polygon fill="#63b8ff" stroke="#63b8ff" points="822.54,-27.72 830.15,-20.34 819.6,-21.36 822.54,-27.72"/>
</a>
</g>
</g>
<!-- Node22&#45;&gt;Node2 -->
<g id="edge27_Node000022_Node000002" class="edge">
<title>Node22&#45;&gt;Node2</title>
<g id="a_edge27_Node000022_Node000002"><a xlink:title=" ">
<path fill="none" stroke="#63b8ff" d="M233.07,-74.86C238.96,-81.81 245.69,-91.67 250.61,-100.33"/>
<polygon fill="#63b8ff" stroke="#63b8ff" points="247.35,-101.64 254.99,-108.98 253.59,-98.48 247.35,-101.64"/>
</a>
</g>
</g>
<!-- Node22&#45;&gt;Node3 -->
<g id="edge23_Node000022_Node000003" class="edge">
<title>Node22&#45;&gt;Node3</title>
<g id="a_edge23_Node000022_Node000003"><a xlink:title=" ">
<path fill="none" stroke="#63b8ff" d="M188.54,-54.84C152.7,-45.2 96.15,-30 59.6,-20.17"/>
<polygon fill="#63b8ff" stroke="#63b8ff" points="60.52,-16.79 49.95,-17.57 58.7,-23.55 60.52,-16.79"/>
</a>
</g>
</g>
<!-- Node22&#45;&gt;Node4 -->
<g id="edge25_Node000022_Node000004" class="edge">
<title>Node22&#45;&gt;Node4</title>
<g id="a_edge25_Node000022_Node000004"><a xlink:title=" ">
<path fill="none" stroke="#63b8ff" d="M199.22,-54.84C177.04,-46.09 143.23,-32.76 118.55,-23.02"/>
<polygon fill="#63b8ff" stroke="#63b8ff" points="119.91,-19.8 109.33,-19.38 117.34,-26.31 119.91,-19.8"/>
</a>
</g>
</g>
<!-- Node22&#45;&gt;Node6 -->
<g id="edge26_Node000022_Node000006" class="edge">
<title>Node22&#45;&gt;Node6</title>
<g id="a_edge26_Node000022_Node000006"><a xlink:title=" ">
<path fill="none" stroke="#63b8ff" d="M233.66,-54.84C243.59,-47.07 258.14,-35.67 269.98,-26.4"/>
<polygon fill="#63b8ff" stroke="#63b8ff" points="271.85,-29.38 277.57,-20.46 267.54,-23.87 271.85,-29.38"/>
</a>
</g>
</g>
<!-- Node23 -->
<g id="Node000023" class="node">
<title>Node23</title>
<g id="a_Node000023"><a xlink:title=" ">
<polygon fill="#e0e0e0" stroke="#999999" points="244.62,-19.25 201.62,-19.25 201.62,0 244.62,0 244.62,-19.25"/>
<text text-anchor="middle" x="223.12" y="-5.75" font-family="Helvetica,sans-Serif" font-size="10.00">vector</text>
</a>
</g>
</g>
<!-- Node22&#45;&gt;Node23 -->
<g id="edge22_Node000022_Node000023" class="edge">
<title>Node22&#45;&gt;Node23</title>
<g id="a_edge22_Node000022_Node000023"><a xlink:title=" ">
<path fill="none" stroke="#63b8ff" d="M222.29,-55.08C222.41,-48.57 222.58,-39.42 222.74,-31.12"/>
<polygon fill="#63b8ff" stroke="#63b8ff" points="226.24,-31.19 222.93,-21.12 219.24,-31.05 226.24,-31.19"/>
</a>
</g>
</g>
<!-- Node24 -->
<g id="Node000024" class="node">
<title>Node24</title>
<g id="a_Node000024"><a xlink:title=" ">
<polygon fill="#e0e0e0" stroke="#999999" points="183.12,-19.25 125.12,-19.25 125.12,0 183.12,0 183.12,-19.25"/>
<text text-anchor="middle" x="154.12" y="-5.75" font-family="Helvetica,sans-Serif" font-size="10.00">TObject.h</text>
</a>
</g>
</g>
<!-- Node22&#45;&gt;Node24 -->
<g id="edge24_Node000022_Node000024" class="edge">
<title>Node22&#45;&gt;Node24</title>
<g id="a_edge24_Node000022_Node000024"><a xlink:title=" ">
<path fill="none" stroke="#63b8ff" d="M210.59,-54.84C200.66,-47.07 186.11,-35.67 174.27,-26.4"/>
<polygon fill="#63b8ff" stroke="#63b8ff" points="176.71,-23.87 166.68,-20.46 172.4,-29.38 176.71,-23.87"/>
</a>
</g>
</g>
<!-- Node30&#45;&gt;Node5 -->
<g id="edge37_Node000030_Node000005" class="edge">
<title>Node30&#45;&gt;Node5</title>
<g id="a_edge37_Node000030_Node000005"><a xlink:title=" ">
<path fill="none" stroke="#63b8ff" d="M823.12,-110.33C823.12,-103.82 823.12,-94.67 823.12,-86.37"/>
<polygon fill="#63b8ff" stroke="#63b8ff" points="826.63,-86.37 823.13,-76.37 819.63,-86.37 826.63,-86.37"/>
</a>
</g>
</g>
<!-- Node30&#45;&gt;Node11 -->
<g id="edge35_Node000030_Node000011" class="edge">
<title>Node30&#45;&gt;Node11</title>
<g id="a_edge35_Node000030_Node000011"><a xlink:title=" ">
<path fill="none" stroke="#63b8ff" d="M832.05,-110.26C847.09,-95.93 879.12,-67.98 912.12,-55.25 1040.67,-5.69 1087.25,-45.38 1225.64,-19.37"/>
<polygon fill="#63b8ff" stroke="#63b8ff" points="1226.02,-22.86 1235.16,-17.49 1224.67,-15.99 1226.02,-22.86"/>
</a>
</g>
</g>
<!-- Node31 -->
<g id="Node000031" class="node">
<title>Node31</title>
<g id="a_Node000031"><a xlink:title=" ">
<polygon fill="#e0e0e0" stroke="#999999" points="963.62,-74.5 920.62,-74.5 920.62,-55.25 963.62,-55.25 963.62,-74.5"/>
<text text-anchor="middle" x="942.12" y="-61" font-family="Helvetica,sans-Serif" font-size="10.00">cmath</text>
</a>
</g>
</g>
<!-- Node30&#45;&gt;Node31 -->
<g id="edge36_Node000030_Node000031" class="edge">
<title>Node30&#45;&gt;Node31</title>
<g id="a_edge36_Node000030_Node000031"><a xlink:title=" ">
<path fill="none" stroke="#63b8ff" d="M843.31,-110.09C862.03,-101.72 890.15,-89.13 911.61,-79.53"/>
<polygon fill="#63b8ff" stroke="#63b8ff" points="912.76,-82.85 920.46,-75.57 909.9,-76.46 912.76,-82.85"/>
</a>
</g>
</g>
</g>
</svg>
