<?xml version="1.0" encoding="UTF-8" standalone="no"?>
<!DOCTYPE svg PUBLIC "-//W3C//DTD SVG 1.1//EN"
 "http://www.w3.org/Graphics/SVG/1.1/DTD/svg11.dtd">
<!-- Generated by graphviz version 12.2.0 (20241103.1931)
 -->
<!-- Title: TPPG.h Pages: 1 -->
<!--zoomable 193 -->

<svg id="main" version="1.1" xmlns="http://www.w3.org/2000/svg" xmlns:xlink="http://www.w3.org/1999/xlink" xml:space="preserve" onload="init(evt)">

<style type="text/css"><![CDATA[
.node, .edge {opacity: 0.7;}
.node.selected, .edge.selected {opacity: 1;}
.edge:hover path { stroke: red; }
.edge:hover polygon { stroke: red; fill: red; }
]]></style>

<defs>
  <circle id="rim" cx="0" cy="0" r="7"/>
  <circle id="rim2" cx="0" cy="0" r="3.5"/>
  <g id="zoomPlus">
    <use xlink:href="#rim" fill="#404040"><set attributeName="fill" to="#808080" begin="zoomplus.mouseover" end="zoomplus.mouseout"/></use>
    <path d="M-4,0h8M0,-4v8" fill="none" stroke="white" stroke-width="1.5" pointer-events="none"/>
  </g>
  <g id="zoomMin">
    <use xlink:href="#rim" fill="#404040"><set attributeName="fill" to="#808080" begin="zoomminus.mouseover" end="zoomminus.mouseout"/></use>
    <path d="M-4,0h8" fill="none" stroke="white" stroke-width="1.5" pointer-events="none"/>
  </g>
  <g id="arrowUp" transform="translate(30 24)">
    <use xlink:href="#rim"/>
    <path pointer-events="none" fill="none" stroke="white" stroke-width="1.5" d="M0,-3.0v7 M-2.5,-0.5L0,-3.0L2.5,-0.5"/>
  </g>
  <g id="arrowRight" transform="rotate(90) translate(36 -43)">
    <use xlink:href="#rim"/>
    <path pointer-events="none" fill="none" stroke="white" stroke-width="1.5" d="M0,-3.0v7 M-2.5,-0.5L0,-3.0L2.5,-0.5"/>
  </g>
  <g id="arrowDown" transform="rotate(180) translate(-30 -48)">
    <use xlink:href="#rim"/>
    <path pointer-events="none" fill="none" stroke="white" stroke-width="1.5" d="M0,-3.0v7 M-2.5,-0.5L0,-3.0L2.5,-0.5"/>
  </g>
  <g id="arrowLeft" transform="rotate(270) translate(-36 17)">
    <use xlink:href="#rim"/>
    <path pointer-events="none" fill="none" stroke="white" stroke-width="1.5" d="M0,-3.0v7 M-2.5,-0.5L0,-3.0L2.5,-0.5"/>
  </g>
  <g id="resetDef">
    <use xlink:href="#rim2" fill="#404040"><set attributeName="fill" to="#808080" begin="reset.mouseover" end="reset.mouseout"/></use>
  </g>
</defs>
<script type="application/ecmascript">
var viewWidth = 1106;
var viewHeight = 193;
var sectionId = 'dynsection-0';
</script>
<script type="application/ecmascript" xlink:href="svg.min.js"/>
<svg id="graph" class="graph">
<g id="viewport">
<title>TPPG.h</title>
<!-- Node1 -->
<g id="Node000001" class="node">
<title>Node1</title>
<g id="a_Node000001"><a xlink:title=" ">
<polygon fill="#999999" stroke="#666666" points="192.62,-185 142.12,-185 142.12,-165.75 192.62,-165.75 192.62,-185"/>
<text text-anchor="middle" x="167.38" y="-171.5" font-family="Helvetica,sans-Serif" font-size="10.00">TPPG.h</text>
</a>
</g>
</g>
<!-- Node2 -->
<g id="Node000002" class="node">
<title>Node2</title>
<g id="a_Node000002"><a xlink:title=" ">
<polygon fill="#e0e0e0" stroke="#999999" points="34.75,-129.75 0,-129.75 0,-110.5 34.75,-110.5 34.75,-129.75"/>
<text text-anchor="middle" x="17.38" y="-116.25" font-family="Helvetica,sans-Serif" font-size="10.00">map</text>
</a>
</g>
</g>
<!-- Node1&#45;&gt;Node2 -->
<g id="edge1_Node000001_Node000002" class="edge">
<title>Node1&#45;&gt;Node2</title>
<g id="a_edge1_Node000001_Node000002"><a xlink:title=" ">
<path fill="none" stroke="#63b8ff" d="M141.93,-165.34C115.19,-155.85 73.24,-140.96 45.52,-131.12"/>
<polygon fill="#63b8ff" stroke="#63b8ff" points="46.97,-127.92 36.38,-127.87 44.63,-134.52 46.97,-127.92"/>
</a>
</g>
</g>
<!-- Node3 -->
<g id="Node000003" class="node">
<title>Node3</title>
<g id="a_Node000003"><a xlink:title=" ">
<polygon fill="#e0e0e0" stroke="#999999" points="91.62,-129.75 53.12,-129.75 53.12,-110.5 91.62,-110.5 91.62,-129.75"/>
<text text-anchor="middle" x="72.38" y="-116.25" font-family="Helvetica,sans-Serif" font-size="10.00">utility</text>
</a>
</g>
</g>
<!-- Node1&#45;&gt;Node3 -->
<g id="edge2_Node000001_Node000003" class="edge">
<title>Node1&#45;&gt;Node3</title>
<g id="a_edge2_Node000001_Node000003"><a xlink:title=" ">
<path fill="none" stroke="#63b8ff" d="M151.26,-165.34C136.79,-157.23 115.3,-145.18 98.39,-135.71"/>
<polygon fill="#63b8ff" stroke="#63b8ff" points="100.32,-132.78 89.89,-130.94 96.9,-138.89 100.32,-132.78"/>
</a>
</g>
</g>
<!-- Node4 -->
<g id="Node000004" class="node">
<title>Node4</title>
<g id="a_Node000004"><a xlink:title=" ">
<polygon fill="#e0e0e0" stroke="#999999" points="146.12,-19.25 92.62,-19.25 92.62,0 146.12,0 146.12,-19.25"/>
<text text-anchor="middle" x="119.38" y="-5.75" font-family="Helvetica,sans-Serif" font-size="10.00">iostream</text>
</a>
</g>
</g>
<!-- Node1&#45;&gt;Node4 -->
<g id="edge3_Node000001_Node000004" class="edge">
<title>Node1&#45;&gt;Node4</title>
<g id="a_edge3_Node000001_Node000004"><a xlink:title=" ">
<path fill="none" stroke="#63b8ff" d="M164.79,-165.57C157.34,-140.14 135.64,-66.1 125.16,-30.37"/>
<polygon fill="#63b8ff" stroke="#63b8ff" points="128.57,-29.54 122.39,-20.92 121.85,-31.51 128.57,-29.54"/>
</a>
</g>
</g>
<!-- Node5 -->
<g id="Node000005" class="node">
<title>Node5</title>
<g id="a_Node000005"><a xlink:title=" ">
<polygon fill="#e0e0e0" stroke="#999999" points="205.38,-74.5 147.38,-74.5 147.38,-55.25 205.38,-55.25 205.38,-74.5"/>
<text text-anchor="middle" x="176.38" y="-61" font-family="Helvetica,sans-Serif" font-size="10.00">TObject.h</text>
</a>
</g>
</g>
<!-- Node1&#45;&gt;Node5 -->
<g id="edge4_Node000001_Node000005" class="edge">
<title>Node1&#45;&gt;Node5</title>
<g id="a_edge4_Node000001_Node000005"><a xlink:title=" ">
<path fill="none" stroke="#63b8ff" d="M168.11,-165.5C169.54,-148.25 172.73,-109.83 174.7,-86.06"/>
<polygon fill="#63b8ff" stroke="#63b8ff" points="178.16,-86.64 175.5,-76.39 171.19,-86.06 178.16,-86.64"/>
</a>
</g>
</g>
<!-- Node6 -->
<g id="Node000006" class="node">
<title>Node6</title>
<g id="a_Node000006"><a xlink:title=" ">
<polygon fill="#e0e0e0" stroke="#999999" points="267.5,-129.75 195.25,-129.75 195.25,-110.5 267.5,-110.5 267.5,-129.75"/>
<text text-anchor="middle" x="231.38" y="-116.25" font-family="Helvetica,sans-Serif" font-size="10.00">TCollection.h</text>
</a>
</g>
</g>
<!-- Node1&#45;&gt;Node6 -->
<g id="edge5_Node000001_Node000006" class="edge">
<title>Node1&#45;&gt;Node6</title>
<g id="a_edge5_Node000001_Node000006"><a xlink:title=" ">
<path fill="none" stroke="#63b8ff" d="M178.23,-165.34C187.48,-157.65 201,-146.4 212.08,-137.18"/>
<polygon fill="#63b8ff" stroke="#63b8ff" points="214.07,-140.08 219.52,-130.99 209.59,-134.7 214.07,-140.08"/>
</a>
</g>
</g>
<!-- Node7 -->
<g id="Node000007" class="node">
<title>Node7</title>
<g id="a_Node000007"><a xlink:href="_globals_8h.html" target="_top" xlink:title=" ">
<polygon fill="white" stroke="#666666" points="595.62,-74.5 539.12,-74.5 539.12,-55.25 595.62,-55.25 595.62,-74.5"/>
<text text-anchor="middle" x="567.38" y="-61" font-family="Helvetica,sans-Serif" font-size="10.00">Globals.h</text>
</a>
</g>
</g>
<!-- Node1&#45;&gt;Node7 -->
<g id="edge6_Node000001_Node000007" class="edge">
<title>Node1&#45;&gt;Node7</title>
<g id="a_edge6_Node000001_Node000007"><a xlink:title=" ">
<path fill="none" stroke="#63b8ff" d="M192.94,-169.97C232.86,-162.87 312.29,-147.84 378.38,-129.75 433.26,-114.73 495.53,-92.68 533.11,-78.81"/>
<polygon fill="#63b8ff" stroke="#63b8ff" points="533.91,-82.25 542.07,-75.49 531.48,-75.69 533.91,-82.25"/>
</a>
</g>
</g>
<!-- Node22 -->
<g id="Node000022" class="node">
<title>Node22</title>
<g id="a_Node000022"><a xlink:href="_t_singleton_8h.html" target="_top" xlink:title=" ">
<polygon fill="white" stroke="#666666" points="369.38,-129.75 299.38,-129.75 299.38,-110.5 369.38,-110.5 369.38,-129.75"/>
<text text-anchor="middle" x="334.38" y="-116.25" font-family="Helvetica,sans-Serif" font-size="10.00">TSingleton.h</text>
</a>
</g>
</g>
<!-- Node1&#45;&gt;Node22 -->
<g id="edge22_Node000001_Node000022" class="edge">
<title>Node1&#45;&gt;Node22</title>
<g id="a_edge22_Node000001_Node000022"><a xlink:title=" ">
<path fill="none" stroke="#63b8ff" d="M193.1,-166.17C220.36,-157.48 263.72,-143.66 295.22,-133.61"/>
<polygon fill="#63b8ff" stroke="#63b8ff" points="295.91,-137.06 304.38,-130.69 293.79,-130.39 295.91,-137.06"/>
</a>
</g>
</g>
<!-- Node7&#45;&gt;Node4 -->
<g id="edge7_Node000007_Node000004" class="edge">
<title>Node7&#45;&gt;Node4</title>
<g id="a_edge7_Node000007_Node000004"><a xlink:title=" ">
<path fill="none" stroke="#63b8ff" d="M538.77,-56.81C535.94,-56.23 533.11,-55.7 530.38,-55.25 368.69,-28.77 322.5,-46.04 157.46,-19.35"/>
<polygon fill="#63b8ff" stroke="#63b8ff" points="158.35,-15.95 147.91,-17.78 157.21,-22.86 158.35,-15.95"/>
</a>
</g>
</g>
<!-- Node8 -->
<g id="Node000008" class="node">
<title>Node8</title>
<g id="a_Node000008"><a xlink:title=" ">
<polygon fill="#e0e0e0" stroke="#999999" points="214.25,-19.25 164.5,-19.25 164.5,0 214.25,0 214.25,-19.25"/>
<text text-anchor="middle" x="189.38" y="-5.75" font-family="Helvetica,sans-Serif" font-size="10.00">iomanip</text>
</a>
</g>
</g>
<!-- Node7&#45;&gt;Node8 -->
<g id="edge8_Node000007_Node000008" class="edge">
<title>Node7&#45;&gt;Node8</title>
<g id="a_edge8_Node000007_Node000008"><a xlink:title=" ">
<path fill="none" stroke="#63b8ff" d="M538.76,-56.87C535.93,-56.28 533.1,-55.73 530.38,-55.25 398.61,-32.24 360.47,-43.56 225.71,-19.44"/>
<polygon fill="#63b8ff" stroke="#63b8ff" points="226.5,-16.03 216.03,-17.67 225.24,-22.91 226.5,-16.03"/>
</a>
</g>
</g>
<!-- Node9 -->
<g id="Node000009" class="node">
<title>Node9</title>
<g id="a_Node000009"><a xlink:title=" ">
<polygon fill="#e0e0e0" stroke="#999999" points="290.38,-19.25 232.38,-19.25 232.38,0 290.38,0 290.38,-19.25"/>
<text text-anchor="middle" x="261.38" y="-5.75" font-family="Helvetica,sans-Serif" font-size="10.00">stdexcept</text>
</a>
</g>
</g>
<!-- Node7&#45;&gt;Node9 -->
<g id="edge9_Node000007_Node000009" class="edge">
<title>Node7&#45;&gt;Node9</title>
<g id="a_edge9_Node000007_Node000009"><a xlink:title=" ">
<path fill="none" stroke="#63b8ff" d="M538.74,-56.98C535.92,-56.37 533.09,-55.78 530.38,-55.25 431.86,-36.12 403.36,-38.56 301.85,-19.61"/>
<polygon fill="#63b8ff" stroke="#63b8ff" points="302.76,-16.22 292.28,-17.79 301.45,-23.09 302.76,-16.22"/>
</a>
</g>
</g>
<!-- Node10 -->
<g id="Node000010" class="node">
<title>Node10</title>
<g id="a_Node000010"><a xlink:title=" ">
<polygon fill="#e0e0e0" stroke="#999999" points="348.38,-19.25 308.38,-19.25 308.38,0 348.38,0 348.38,-19.25"/>
<text text-anchor="middle" x="328.38" y="-5.75" font-family="Helvetica,sans-Serif" font-size="10.00">string</text>
</a>
</g>
</g>
<!-- Node7&#45;&gt;Node10 -->
<g id="edge10_Node000007_Node000010" class="edge">
<title>Node7&#45;&gt;Node10</title>
<g id="a_edge10_Node000007_Node000010"><a xlink:title=" ">
<path fill="none" stroke="#63b8ff" d="M538.71,-57.12C535.89,-56.48 533.08,-55.85 530.38,-55.25 457.13,-39.09 435.45,-38.48 359.66,-19.66"/>
<polygon fill="#63b8ff" stroke="#63b8ff" points="360.62,-16.29 350.06,-17.24 358.91,-23.08 360.62,-16.29"/>
</a>
</g>
</g>
<!-- Node11 -->
<g id="Node000011" class="node">
<title>Node11</title>
<g id="a_Node000011"><a xlink:title=" ">
<polygon fill="#e0e0e0" stroke="#999999" points="408.5,-19.25 366.25,-19.25 366.25,0 408.5,0 408.5,-19.25"/>
<text text-anchor="middle" x="387.38" y="-5.75" font-family="Helvetica,sans-Serif" font-size="10.00">cstdio</text>
</a>
</g>
</g>
<!-- Node7&#45;&gt;Node11 -->
<g id="edge11_Node000007_Node000011" class="edge">
<title>Node7&#45;&gt;Node11</title>
<g id="a_edge11_Node000007_Node000011"><a xlink:title=" ">
<path fill="none" stroke="#63b8ff" d="M538.85,-55.44C506.43,-45.85 453.63,-30.23 419.71,-20.19"/>
<polygon fill="#63b8ff" stroke="#63b8ff" points="421.02,-16.93 410.44,-17.45 419.03,-23.64 421.02,-16.93"/>
</a>
</g>
</g>
<!-- Node12 -->
<g id="Node000012" class="node">
<title>Node12</title>
<g id="a_Node000012"><a xlink:title=" ">
<polygon fill="#e0e0e0" stroke="#999999" points="472,-19.25 426.75,-19.25 426.75,0 472,0 472,-19.25"/>
<text text-anchor="middle" x="449.38" y="-5.75" font-family="Helvetica,sans-Serif" font-size="10.00">cstdint</text>
</a>
</g>
</g>
<!-- Node7&#45;&gt;Node12 -->
<g id="edge12_Node000007_Node000012" class="edge">
<title>Node7&#45;&gt;Node12</title>
<g id="a_edge12_Node000007_Node000012"><a xlink:title=" ">
<path fill="none" stroke="#63b8ff" d="M547.36,-54.84C528.88,-46.5 501.17,-34 479.93,-24.41"/>
<polygon fill="#63b8ff" stroke="#63b8ff" points="481.42,-21.25 470.87,-20.33 478.55,-27.63 481.42,-21.25"/>
</a>
</g>
</g>
<!-- Node13 -->
<g id="Node000013" class="node">
<title>Node13</title>
<g id="a_Node000013"><a xlink:title=" ">
<polygon fill="#e0e0e0" stroke="#999999" points="534.62,-19.25 490.12,-19.25 490.12,0 534.62,0 534.62,-19.25"/>
<text text-anchor="middle" x="512.38" y="-5.75" font-family="Helvetica,sans-Serif" font-size="10.00">cstdlib</text>
</a>
</g>
</g>
<!-- Node7&#45;&gt;Node13 -->
<g id="edge13_Node000007_Node000013" class="edge">
<title>Node7&#45;&gt;Node13</title>
<g id="a_edge13_Node000007_Node000013"><a xlink:title=" ">
<path fill="none" stroke="#63b8ff" d="M558.29,-55.08C550.54,-47.57 539.16,-36.56 529.68,-27.38"/>
<polygon fill="#63b8ff" stroke="#63b8ff" points="532.36,-25.1 522.74,-20.66 527.49,-30.13 532.36,-25.1"/>
</a>
</g>
</g>
<!-- Node14 -->
<g id="Node000014" class="node">
<title>Node14</title>
<g id="a_Node000014"><a xlink:title=" ">
<polygon fill="#e0e0e0" stroke="#999999" points="612.12,-19.25 552.62,-19.25 552.62,0 612.12,0 612.12,-19.25"/>
<text text-anchor="middle" x="582.38" y="-5.75" font-family="Helvetica,sans-Serif" font-size="10.00">execinfo.h</text>
</a>
</g>
</g>
<!-- Node7&#45;&gt;Node14 -->
<g id="edge14_Node000007_Node000014" class="edge">
<title>Node7&#45;&gt;Node14</title>
<g id="a_edge14_Node000007_Node000014"><a xlink:title=" ">
<path fill="none" stroke="#63b8ff" d="M569.85,-55.08C571.73,-48.42 574.38,-38.99 576.77,-30.53"/>
<polygon fill="#63b8ff" stroke="#63b8ff" points="580.09,-31.64 579.43,-21.07 573.35,-29.74 580.09,-31.64"/>
</a>
</g>
</g>
<!-- Node15 -->
<g id="Node000015" class="node">
<title>Node15</title>
<g id="a_Node000015"><a xlink:title=" ">
<polygon fill="#e0e0e0" stroke="#999999" points="680.62,-19.25 630.12,-19.25 630.12,0 680.62,0 680.62,-19.25"/>
<text text-anchor="middle" x="655.38" y="-5.75" font-family="Helvetica,sans-Serif" font-size="10.00">cxxabi.h</text>
</a>
</g>
</g>
<!-- Node7&#45;&gt;Node15 -->
<g id="edge15_Node000007_Node000015" class="edge">
<title>Node7&#45;&gt;Node15</title>
<g id="a_edge15_Node000007_Node000015"><a xlink:title=" ">
<path fill="none" stroke="#63b8ff" d="M582.3,-54.84C595.58,-46.81 615.24,-34.91 630.83,-25.48"/>
<polygon fill="#63b8ff" stroke="#63b8ff" points="632.34,-28.66 639.08,-20.49 628.71,-22.67 632.34,-28.66"/>
</a>
</g>
</g>
<!-- Node16 -->
<g id="Node000016" class="node">
<title>Node16</title>
<g id="a_Node000016"><a xlink:title=" ">
<polygon fill="#e0e0e0" stroke="#999999" points="750,-19.25 698.75,-19.25 698.75,0 750,0 750,-19.25"/>
<text text-anchor="middle" x="724.38" y="-5.75" font-family="Helvetica,sans-Serif" font-size="10.00">sstream</text>
</a>
</g>
</g>
<!-- Node7&#45;&gt;Node16 -->
<g id="edge16_Node000007_Node000016" class="edge">
<title>Node7&#45;&gt;Node16</title>
<g id="a_edge16_Node000007_Node000016"><a xlink:title=" ">
<path fill="none" stroke="#63b8ff" d="M594.01,-54.84C619.73,-46.12 658.89,-32.84 687.58,-23.1"/>
<polygon fill="#63b8ff" stroke="#63b8ff" points="688.62,-26.45 696.96,-19.92 686.37,-19.82 688.62,-26.45"/>
</a>
</g>
</g>
<!-- Node17 -->
<g id="Node000017" class="node">
<title>Node17</title>
<g id="a_Node000017"><a xlink:title=" ">
<polygon fill="#e0e0e0" stroke="#999999" points="804.88,-19.25 767.88,-19.25 767.88,0 804.88,0 804.88,-19.25"/>
<text text-anchor="middle" x="786.38" y="-5.75" font-family="Helvetica,sans-Serif" font-size="10.00">array</text>
</a>
</g>
</g>
<!-- Node7&#45;&gt;Node17 -->
<g id="edge17_Node000007_Node000017" class="edge">
<title>Node7&#45;&gt;Node17</title>
<g id="a_edge17_Node000007_Node000017"><a xlink:title=" ">
<path fill="none" stroke="#63b8ff" d="M595.86,-58.01C631.45,-50.52 694.42,-36.72 756.75,-19.82"/>
<polygon fill="#63b8ff" stroke="#63b8ff" points="757.37,-23.27 766.09,-17.25 755.52,-16.52 757.37,-23.27"/>
</a>
</g>
</g>
<!-- Node18 -->
<g id="Node000018" class="node">
<title>Node18</title>
<g id="a_Node000018"><a xlink:title=" ">
<polygon fill="#e0e0e0" stroke="#999999" points="873.62,-19.25 823.12,-19.25 823.12,0 873.62,0 873.62,-19.25"/>
<text text-anchor="middle" x="848.38" y="-5.75" font-family="Helvetica,sans-Serif" font-size="10.00">memory</text>
</a>
</g>
</g>
<!-- Node7&#45;&gt;Node18 -->
<g id="edge18_Node000007_Node000018" class="edge">
<title>Node7&#45;&gt;Node18</title>
<g id="a_edge18_Node000007_Node000018"><a xlink:title=" ">
<path fill="none" stroke="#63b8ff" d="M596.03,-59.36C640.21,-52.27 727.85,-37.62 811.55,-19.74"/>
<polygon fill="#63b8ff" stroke="#63b8ff" points="812.28,-23.17 821.32,-17.64 810.81,-16.32 812.28,-23.17"/>
</a>
</g>
</g>
<!-- Node19 -->
<g id="Node000019" class="node">
<title>Node19</title>
<g id="a_Node000019"><a xlink:title=" ">
<polygon fill="#e0e0e0" stroke="#999999" points="941.25,-19.25 891.5,-19.25 891.5,0 941.25,0 941.25,-19.25"/>
<text text-anchor="middle" x="916.38" y="-5.75" font-family="Helvetica,sans-Serif" font-size="10.00">unistd.h</text>
</a>
</g>
</g>
<!-- Node7&#45;&gt;Node19 -->
<g id="edge19_Node000007_Node000019" class="edge">
<title>Node7&#45;&gt;Node19</title>
<g id="a_edge19_Node000007_Node000019"><a xlink:title=" ">
<path fill="none" stroke="#63b8ff" d="M595.78,-60.89C649.42,-55.03 769.45,-40.87 880.17,-19.49"/>
<polygon fill="#63b8ff" stroke="#63b8ff" points="880.57,-22.98 889.71,-17.63 879.22,-16.11 880.57,-22.98"/>
</a>
</g>
</g>
<!-- Node20 -->
<g id="Node000020" class="node">
<title>Node20</title>
<g id="a_Node000020"><a xlink:title=" ">
<polygon fill="#e0e0e0" stroke="#999999" points="1019.12,-19.25 959.62,-19.25 959.62,0 1019.12,0 1019.12,-19.25"/>
<text text-anchor="middle" x="989.38" y="-5.75" font-family="Helvetica,sans-Serif" font-size="10.00">sys/wait.h</text>
</a>
</g>
</g>
<!-- Node7&#45;&gt;Node20 -->
<g id="edge20_Node000007_Node000020" class="edge">
<title>Node7&#45;&gt;Node20</title>
<g id="a_edge20_Node000007_Node000020"><a xlink:title=" ">
<path fill="none" stroke="#63b8ff" d="M595.86,-61.55C657.96,-56.28 810.36,-42.2 948.05,-19.48"/>
<polygon fill="#63b8ff" stroke="#63b8ff" points="948.42,-22.97 957.71,-17.87 947.27,-16.06 948.42,-22.97"/>
</a>
</g>
</g>
<!-- Node21 -->
<g id="Node000021" class="node">
<title>Node21</title>
<g id="a_Node000021"><a xlink:title=" ">
<polygon fill="#e0e0e0" stroke="#999999" points="1097.5,-19.25 1037.25,-19.25 1037.25,0 1097.5,0 1097.5,-19.25"/>
<text text-anchor="middle" x="1067.38" y="-5.75" font-family="Helvetica,sans-Serif" font-size="10.00">sys/prctl.h</text>
</a>
</g>
</g>
<!-- Node7&#45;&gt;Node21 -->
<g id="edge21_Node000007_Node000021" class="edge">
<title>Node7&#45;&gt;Node21</title>
<g id="a_edge21_Node000007_Node000021"><a xlink:title=" ">
<path fill="none" stroke="#63b8ff" d="M596.12,-62.31C667.26,-58.17 857.36,-45.54 1025.49,-19.53"/>
<polygon fill="#63b8ff" stroke="#63b8ff" points="1025.95,-23 1035.29,-17.99 1024.87,-16.09 1025.95,-23"/>
</a>
</g>
</g>
<!-- Node22&#45;&gt;Node4 -->
<g id="edge23_Node000022_Node000004" class="edge">
<title>Node22&#45;&gt;Node4</title>
<g id="a_edge23_Node000022_Node000004"><a xlink:title=" ">
<path fill="none" stroke="#63b8ff" d="M318.21,-110.19C295.28,-97.59 251.94,-74.06 214.38,-55.25 192.99,-44.54 168.56,-33.09 149.83,-24.46"/>
<polygon fill="#63b8ff" stroke="#63b8ff" points="151.46,-21.36 140.91,-20.37 148.54,-27.72 151.46,-21.36"/>
</a>
</g>
</g>
<!-- Node22&#45;&gt;Node5 -->
<g id="edge24_Node000022_Node000005" class="edge">
<title>Node22&#45;&gt;Node5</title>
<g id="a_edge24_Node000022_Node000005"><a xlink:title=" ">
<path fill="none" stroke="#63b8ff" d="M307.57,-110.09C281.92,-101.45 242.99,-88.32 214.19,-78.62"/>
<polygon fill="#63b8ff" stroke="#63b8ff" points="215.34,-75.31 204.74,-75.44 213.1,-81.95 215.34,-75.31"/>
</a>
</g>
</g>
<!-- Node22&#45;&gt;Node7 -->
<g id="edge29_Node000022_Node000007" class="edge">
<title>Node22&#45;&gt;Node7</title>
<g id="a_edge29_Node000022_Node000007"><a xlink:title=" ">
<path fill="none" stroke="#63b8ff" d="M369.8,-111.12C406.84,-102.73 466.96,-89.09 527.74,-75.1"/>
<polygon fill="#63b8ff" stroke="#63b8ff" points="528.26,-78.57 537.22,-72.92 526.69,-71.75 528.26,-78.57"/>
</a>
</g>
</g>
<!-- Node23 -->
<g id="Node000023" class="node">
<title>Node23</title>
<g id="a_Node000023"><a xlink:title=" ">
<polygon fill="#e0e0e0" stroke="#999999" points="457.25,-74.5 389.5,-74.5 389.5,-55.25 457.25,-55.25 457.25,-74.5"/>
<text text-anchor="middle" x="423.38" y="-61" font-family="Helvetica,sans-Serif" font-size="10.00">TDirectory.h</text>
</a>
</g>
</g>
<!-- Node22&#45;&gt;Node23 -->
<g id="edge25_Node000022_Node000023" class="edge">
<title>Node22&#45;&gt;Node23</title>
<g id="a_edge25_Node000022_Node000023"><a xlink:title=" ">
<path fill="none" stroke="#63b8ff" d="M349.47,-110.09C362.9,-102.06 382.79,-90.16 398.55,-80.73"/>
<polygon fill="#63b8ff" stroke="#63b8ff" points="400.12,-83.87 406.9,-75.73 396.53,-77.86 400.12,-83.87"/>
</a>
</g>
</g>
<!-- Node24 -->
<g id="Node000024" class="node">
<title>Node24</title>
<g id="a_Node000024"><a xlink:title=" ">
<polygon fill="#e0e0e0" stroke="#999999" points="521,-74.5 475.75,-74.5 475.75,-55.25 521,-55.25 521,-74.5"/>
<text text-anchor="middle" x="498.38" y="-61" font-family="Helvetica,sans-Serif" font-size="10.00">TFile.h</text>
</a>
</g>
</g>
<!-- Node22&#45;&gt;Node24 -->
<g id="edge26_Node000022_Node000024" class="edge">
<title>Node22&#45;&gt;Node24</title>
<g id="a_edge26_Node000022_Node000024"><a xlink:title=" ">
<path fill="none" stroke="#63b8ff" d="M362.2,-110.09C390.48,-100.91 434.32,-86.67 464.58,-76.85"/>
<polygon fill="#63b8ff" stroke="#63b8ff" points="465.58,-80.2 474.01,-73.78 463.42,-73.54 465.58,-80.2"/>
</a>
</g>
</g>
<!-- Node25 -->
<g id="Node000025" class="node">
<title>Node25</title>
<g id="a_Node000025"><a xlink:title=" ">
<polygon fill="#e0e0e0" stroke="#999999" points="307.38,-74.5 261.38,-74.5 261.38,-55.25 307.38,-55.25 307.38,-74.5"/>
<text text-anchor="middle" x="284.38" y="-61" font-family="Helvetica,sans-Serif" font-size="10.00">TList.h</text>
</a>
</g>
</g>
<!-- Node22&#45;&gt;Node25 -->
<g id="edge27_Node000022_Node000025" class="edge">
<title>Node22&#45;&gt;Node25</title>
<g id="a_edge27_Node000022_Node000025"><a xlink:title=" ">
<path fill="none" stroke="#63b8ff" d="M326.12,-110.33C319.21,-102.98 309.15,-92.26 300.64,-83.19"/>
<polygon fill="#63b8ff" stroke="#63b8ff" points="303.24,-80.86 293.85,-75.96 298.14,-85.65 303.24,-80.86"/>
</a>
</g>
</g>
<!-- Node26 -->
<g id="Node000026" class="node">
<title>Node26</title>
<g id="a_Node000026"><a xlink:title=" ">
<polygon fill="#e0e0e0" stroke="#999999" points="371.38,-74.5 325.38,-74.5 325.38,-55.25 371.38,-55.25 371.38,-74.5"/>
<text text-anchor="middle" x="348.38" y="-61" font-family="Helvetica,sans-Serif" font-size="10.00">TKey.h</text>
</a>
</g>
</g>
<!-- Node22&#45;&gt;Node26 -->
<g id="edge28_Node000022_Node000026" class="edge">
<title>Node22&#45;&gt;Node26</title>
<g id="a_edge28_Node000022_Node000026"><a xlink:title=" ">
<path fill="none" stroke="#63b8ff" d="M336.69,-110.33C338.44,-103.67 340.92,-94.24 343.14,-85.78"/>
<polygon fill="#63b8ff" stroke="#63b8ff" points="346.47,-86.88 345.63,-76.32 339.7,-85.1 346.47,-86.88"/>
</a>
</g>
</g>
</g>
</svg>

<g id="navigator" transform="translate(0 0)" fill="#404254">
  <rect fill="#f2f5e9" fill-opacity="0.5" stroke="#606060" stroke-width=".5" x="0" y="0" width="60" height="60"/>
  <use id="zoomplus" xlink:href="#zoomPlus" x="17" y="9" onmousedown="handleZoom(evt,'in')"/>
  <use id="zoomminus" xlink:href="#zoomMin" x="42" y="9" onmousedown="handleZoom(evt,'out')"/>
  <use id="reset" xlink:href="#resetDef" x="30" y="36" onmousedown="handleReset()"/>
   <use id="arrowup" xlink:href="#arrowUp" x="0" y="0" onmousedown="handlePan(0,-1)"/>
  <use id="arrowright" xlink:href="#arrowRight" x="0" y="0" onmousedown="handlePan(1,0)"/>
  <use id="arrowdown" xlink:href="#arrowDown" x="0" y="0" onmousedown="handlePan(0,1)"/>
  <use id="arrowleft" xlink:href="#arrowLeft" x="0" y="0" onmousedown="handlePan(-1,0)"/>
</g>
<svg viewBox="0 0 15 15" width="100%" height="30px" preserveAspectRatio="xMaxYMin meet">
 <g id="arrow_out" transform="scale(0.3 0.3)">
  <a xlink:href="_t_p_p_g_8h__incl_org.svg" target="_base">
   <rect id="button" ry="5" rx="5" y="6" x="6" height="38" width="38"
        fill="#f2f5e9" fill-opacity="0.5" stroke="#606060" stroke-width="1.0"/>
   <path id="arrow"
     d="M 11.500037,31.436501 C 11.940474,20.09759 22.043105,11.32322 32.158766,21.979434 L 37.068811,17.246167 C 37.068811,17.246167 37.088388,32 37.088388,32 L 22.160133,31.978069 C 22.160133,31.978069 26.997745,27.140456 26.997745,27.140456 C 18.528582,18.264221 13.291696,25.230495 11.500037,31.436501 z"
     style="fill:#404040;"/>
  </a>
 </g>
</svg>

<style type='text/css'>
<![CDATA[
[data-mouse-over-selected='false'] { opacity: 0.7; }
[data-mouse-over-selected='true']  { opacity: 1.0; }
]]>
</style>
<script type="application/ecmascript"><![CDATA[
document.addEventListener('DOMContentLoaded', (event) => {
  highlightEdges();
  highlightAdjacentNodes();
});
]]></script>
</svg>
