<?xml version="1.0" encoding="UTF-8" standalone="no"?>
<!DOCTYPE svg PUBLIC "-//W3C//DTD SVG 1.1//EN"
 "http://www.w3.org/Graphics/SVG/1.1/DTD/svg11.dtd">
<!-- Generated by graphviz version 12.2.0 (20241103.1931)
 -->
<!-- Title: TParsingDiagnostics.h Pages: 1 -->
<!--zoomable 359 -->

<svg id="main" version="1.1" xmlns="http://www.w3.org/2000/svg" xmlns:xlink="http://www.w3.org/1999/xlink" xml:space="preserve" onload="init(evt)">

<style type="text/css"><![CDATA[
.node, .edge {opacity: 0.7;}
.node.selected, .edge.selected {opacity: 1;}
.edge:hover path { stroke: red; }
.edge:hover polygon { stroke: red; fill: red; }
]]></style>

<defs>
  <circle id="rim" cx="0" cy="0" r="7"/>
  <circle id="rim2" cx="0" cy="0" r="3.5"/>
  <g id="zoomPlus">
    <use xlink:href="#rim" fill="#404040"><set attributeName="fill" to="#808080" begin="zoomplus.mouseover" end="zoomplus.mouseout"/></use>
    <path d="M-4,0h8M0,-4v8" fill="none" stroke="white" stroke-width="1.5" pointer-events="none"/>
  </g>
  <g id="zoomMin">
    <use xlink:href="#rim" fill="#404040"><set attributeName="fill" to="#808080" begin="zoomminus.mouseover" end="zoomminus.mouseout"/></use>
    <path d="M-4,0h8" fill="none" stroke="white" stroke-width="1.5" pointer-events="none"/>
  </g>
  <g id="arrowUp" transform="translate(30 24)">
    <use xlink:href="#rim"/>
    <path pointer-events="none" fill="none" stroke="white" stroke-width="1.5" d="M0,-3.0v7 M-2.5,-0.5L0,-3.0L2.5,-0.5"/>
  </g>
  <g id="arrowRight" transform="rotate(90) translate(36 -43)">
    <use xlink:href="#rim"/>
    <path pointer-events="none" fill="none" stroke="white" stroke-width="1.5" d="M0,-3.0v7 M-2.5,-0.5L0,-3.0L2.5,-0.5"/>
  </g>
  <g id="arrowDown" transform="rotate(180) translate(-30 -48)">
    <use xlink:href="#rim"/>
    <path pointer-events="none" fill="none" stroke="white" stroke-width="1.5" d="M0,-3.0v7 M-2.5,-0.5L0,-3.0L2.5,-0.5"/>
  </g>
  <g id="arrowLeft" transform="rotate(270) translate(-36 17)">
    <use xlink:href="#rim"/>
    <path pointer-events="none" fill="none" stroke="white" stroke-width="1.5" d="M0,-3.0v7 M-2.5,-0.5L0,-3.0L2.5,-0.5"/>
  </g>
  <g id="resetDef">
    <use xlink:href="#rim2" fill="#404040"><set attributeName="fill" to="#808080" begin="reset.mouseover" end="reset.mouseout"/></use>
  </g>
</defs>
<script type="application/ecmascript">
var viewWidth = 1488;
var viewHeight = 359;
var sectionId = 'dynsection-0';
</script>
<script type="application/ecmascript" xlink:href="svg.min.js"/>
<svg id="graph" class="graph">
<g id="viewport">
<title>TParsingDiagnostics.h</title>
<!-- Node1 -->
<g id="Node000001" class="node">
<title>Node1</title>
<g id="a_Node000001"><a xlink:title=" ">
<polygon fill="#999999" stroke="#666666" points="441,-350.75 327.5,-350.75 327.5,-331.5 441,-331.5 441,-350.75"/>
<text text-anchor="middle" x="384.25" y="-337.25" font-family="Helvetica,sans-Serif" font-size="10.00">TParsingDiagnostics.h</text>
</a>
</g>
</g>
<!-- Node2 -->
<g id="Node000002" class="node">
<title>Node2</title>
<g id="a_Node000002"><a xlink:title=" ">
<polygon fill="#e0e0e0" stroke="#999999" points="737.62,-129.75 654.88,-129.75 654.88,-110.5 737.62,-110.5 737.62,-129.75"/>
<text text-anchor="middle" x="696.25" y="-116.25" font-family="Helvetica,sans-Serif" font-size="10.00">unordered_map</text>
</a>
</g>
</g>
<!-- Node1&#45;&gt;Node2 -->
<g id="edge1_Node000001_Node000002" class="edge">
<title>Node1&#45;&gt;Node2</title>
<g id="a_edge1_Node000001_Node000002"><a xlink:title=" ">
<path fill="none" stroke="#63b8ff" d="M396.87,-331.27C444.49,-297.84 613.7,-179.07 674.39,-136.47"/>
<polygon fill="#63b8ff" stroke="#63b8ff" points="676.06,-139.57 682.24,-130.96 672.04,-133.84 676.06,-139.57"/>
</a>
</g>
</g>
<!-- Node3 -->
<g id="Node000003" class="node">
<title>Node3</title>
<g id="a_Node000003"><a xlink:title=" ">
<polygon fill="#e0e0e0" stroke="#999999" points="50.5,-19.25 0,-19.25 0,0 50.5,0 50.5,-19.25"/>
<text text-anchor="middle" x="25.25" y="-5.75" font-family="Helvetica,sans-Serif" font-size="10.00">memory</text>
</a>
</g>
</g>
<!-- Node1&#45;&gt;Node3 -->
<g id="edge2_Node000001_Node000003" class="edge">
<title>Node1&#45;&gt;Node3</title>
<g id="a_edge2_Node000001_Node000003"><a xlink:title=" ">
<path fill="none" stroke="#63b8ff" d="M327.13,-334.73C226.05,-323.6 26.25,-293.73 26.25,-231.62 26.25,-231.62 26.25,-231.62 26.25,-119.12 26.25,-88.4 25.84,-52.79 25.55,-30.99"/>
<polygon fill="#63b8ff" stroke="#63b8ff" points="29.05,-31.09 25.41,-21.14 22.05,-31.19 29.05,-31.09"/>
</a>
</g>
</g>
<!-- Node4 -->
<g id="Node000004" class="node">
<title>Node4</title>
<g id="a_Node000004"><a xlink:title=" ">
<polygon fill="#e0e0e0" stroke="#999999" points="504.25,-74.5 446.25,-74.5 446.25,-55.25 504.25,-55.25 504.25,-74.5"/>
<text text-anchor="middle" x="475.25" y="-61" font-family="Helvetica,sans-Serif" font-size="10.00">TObject.h</text>
</a>
</g>
</g>
<!-- Node1&#45;&gt;Node4 -->
<g id="edge3_Node000001_Node000004" class="edge">
<title>Node1&#45;&gt;Node4</title>
<g id="a_edge3_Node000001_Node000004"><a xlink:title=" ">
<path fill="none" stroke="#63b8ff" d="M363.75,-331.12C332.17,-315.69 275.25,-281.02 275.25,-231.62 275.25,-231.62 275.25,-231.62 275.25,-174.38 275.25,-136.33 300.27,-131.11 332.25,-110.5 349.31,-99.51 398.74,-85.33 434.72,-75.93"/>
<polygon fill="#63b8ff" stroke="#63b8ff" points="435.59,-79.32 444.4,-73.44 433.84,-72.55 435.59,-79.32"/>
</a>
</g>
</g>
<!-- Node5 -->
<g id="Node000005" class="node">
<title>Node5</title>
<g id="a_Node000005"><a xlink:href="_t_singleton_8h.html" target="_top" xlink:title=" ">
<polygon fill="white" stroke="#666666" points="247.25,-129.75 177.25,-129.75 177.25,-110.5 247.25,-110.5 247.25,-129.75"/>
<text text-anchor="middle" x="212.25" y="-116.25" font-family="Helvetica,sans-Serif" font-size="10.00">TSingleton.h</text>
</a>
</g>
</g>
<!-- Node1&#45;&gt;Node5 -->
<g id="edge4_Node000001_Node000005" class="edge">
<title>Node1&#45;&gt;Node5</title>
<g id="a_edge4_Node000001_Node000005"><a xlink:title=" ">
<path fill="none" stroke="#63b8ff" d="M327.08,-331.18C303.81,-324.82 278.41,-313.98 261.25,-295.5 220.66,-251.78 213.32,-177.1 212.24,-141.36"/>
<polygon fill="#63b8ff" stroke="#63b8ff" points="215.74,-141.54 212.1,-131.59 208.74,-141.64 215.74,-141.54"/>
</a>
</g>
</g>
<!-- Node24 -->
<g id="Node000024" class="node">
<title>Node24</title>
<g id="a_Node000024"><a xlink:href="_t_p_p_g_8h.html" target="_top" xlink:title=" ">
<polygon fill="white" stroke="#666666" points="487.5,-185 437,-185 437,-165.75 487.5,-165.75 487.5,-185"/>
<text text-anchor="middle" x="462.25" y="-171.5" font-family="Helvetica,sans-Serif" font-size="10.00">TPPG.h</text>
</a>
</g>
</g>
<!-- Node1&#45;&gt;Node24 -->
<g id="edge26_Node000001_Node000024" class="edge">
<title>Node1&#45;&gt;Node24</title>
<g id="a_edge26_Node000001_Node000024"><a xlink:title=" ">
<path fill="none" stroke="#63b8ff" d="M388.44,-331.32C400.66,-305.67 436.44,-230.55 453.29,-195.19"/>
<polygon fill="#63b8ff" stroke="#63b8ff" points="456.24,-197.12 457.38,-186.59 449.92,-194.11 456.24,-197.12"/>
</a>
</g>
</g>
<!-- Node28 -->
<g id="Node000028" class="node">
<title>Node28</title>
<g id="a_Node000028"><a xlink:href="_t_fragment_8h.html" target="_top" xlink:title=" ">
<polygon fill="white" stroke="#666666" points="1201.62,-295.5 1130.88,-295.5 1130.88,-276.25 1201.62,-276.25 1201.62,-295.5"/>
<text text-anchor="middle" x="1166.25" y="-282" font-family="Helvetica,sans-Serif" font-size="10.00">TFragment.h</text>
</a>
</g>
</g>
<!-- Node1&#45;&gt;Node28 -->
<g id="edge34_Node000001_Node000028" class="edge">
<title>Node1&#45;&gt;Node28</title>
<g id="a_edge34_Node000001_Node000028"><a xlink:title=" ">
<path fill="none" stroke="#63b8ff" d="M441.44,-336.23C589.58,-326.14 983.7,-299.31 1119.49,-290.06"/>
<polygon fill="#63b8ff" stroke="#63b8ff" points="1119.45,-293.57 1129.19,-289.4 1118.97,-286.59 1119.45,-293.57"/>
</a>
</g>
</g>
<!-- Node5&#45;&gt;Node4 -->
<g id="edge6_Node000005_Node000004" class="edge">
<title>Node5&#45;&gt;Node4</title>
<g id="a_edge6_Node000005_Node000004"><a xlink:title=" ">
<path fill="none" stroke="#63b8ff" d="M247.72,-111.94C296.37,-102.09 383.57,-84.44 434.74,-74.08"/>
<polygon fill="#63b8ff" stroke="#63b8ff" points="435.41,-77.51 444.52,-72.1 434.02,-70.65 435.41,-77.51"/>
</a>
</g>
</g>
<!-- Node6 -->
<g id="Node000006" class="node">
<title>Node6</title>
<g id="a_Node000006"><a xlink:title=" ">
<polygon fill="#e0e0e0" stroke="#999999" points="1006,-19.25 952.5,-19.25 952.5,0 1006,0 1006,-19.25"/>
<text text-anchor="middle" x="979.25" y="-5.75" font-family="Helvetica,sans-Serif" font-size="10.00">iostream</text>
</a>
</g>
</g>
<!-- Node5&#45;&gt;Node6 -->
<g id="edge5_Node000005_Node000006" class="edge">
<title>Node5&#45;&gt;Node6</title>
<g id="a_edge5_Node000005_Node000006"><a xlink:title=" ">
<path fill="none" stroke="#63b8ff" d="M247.54,-111.74C293.63,-101.91 371.67,-84.61 399.25,-74.5 417.02,-67.98 419,-60.3 437.25,-55.25 651.04,3.91 718.27,-51.78 941.14,-19.27"/>
<polygon fill="#63b8ff" stroke="#63b8ff" points="941.35,-22.78 950.72,-17.83 940.31,-15.86 941.35,-22.78"/>
</a>
</g>
</g>
<!-- Node7 -->
<g id="Node000007" class="node">
<title>Node7</title>
<g id="a_Node000007"><a xlink:title=" ">
<polygon fill="#e0e0e0" stroke="#999999" points="187.12,-74.5 119.38,-74.5 119.38,-55.25 187.12,-55.25 187.12,-74.5"/>
<text text-anchor="middle" x="153.25" y="-61" font-family="Helvetica,sans-Serif" font-size="10.00">TDirectory.h</text>
</a>
</g>
</g>
<!-- Node5&#45;&gt;Node7 -->
<g id="edge7_Node000005_Node000007" class="edge">
<title>Node5&#45;&gt;Node7</title>
<g id="a_edge7_Node000005_Node000007"><a xlink:title=" ">
<path fill="none" stroke="#63b8ff" d="M202.24,-110.09C193.88,-102.55 181.75,-91.6 171.65,-82.48"/>
<polygon fill="#63b8ff" stroke="#63b8ff" points="174,-79.89 164.23,-75.79 169.31,-85.09 174,-79.89"/>
</a>
</g>
</g>
<!-- Node8 -->
<g id="Node000008" class="node">
<title>Node8</title>
<g id="a_Node000008"><a xlink:title=" ">
<polygon fill="#e0e0e0" stroke="#999999" points="250.88,-74.5 205.62,-74.5 205.62,-55.25 250.88,-55.25 250.88,-74.5"/>
<text text-anchor="middle" x="228.25" y="-61" font-family="Helvetica,sans-Serif" font-size="10.00">TFile.h</text>
</a>
</g>
</g>
<!-- Node5&#45;&gt;Node8 -->
<g id="edge8_Node000005_Node000008" class="edge">
<title>Node5&#45;&gt;Node8</title>
<g id="a_edge8_Node000005_Node000008"><a xlink:title=" ">
<path fill="none" stroke="#63b8ff" d="M214.89,-110.33C216.89,-103.67 219.73,-94.24 222.27,-85.78"/>
<polygon fill="#63b8ff" stroke="#63b8ff" points="225.59,-86.89 225.11,-76.31 218.89,-84.88 225.59,-86.89"/>
</a>
</g>
</g>
<!-- Node9 -->
<g id="Node000009" class="node">
<title>Node9</title>
<g id="a_Node000009"><a xlink:title=" ">
<polygon fill="#e0e0e0" stroke="#999999" points="315.25,-74.5 269.25,-74.5 269.25,-55.25 315.25,-55.25 315.25,-74.5"/>
<text text-anchor="middle" x="292.25" y="-61" font-family="Helvetica,sans-Serif" font-size="10.00">TList.h</text>
</a>
</g>
</g>
<!-- Node5&#45;&gt;Node9 -->
<g id="edge9_Node000005_Node000009" class="edge">
<title>Node5&#45;&gt;Node9</title>
<g id="a_edge9_Node000005_Node000009"><a xlink:title=" ">
<path fill="none" stroke="#63b8ff" d="M225.82,-110.09C237.66,-102.21 255.09,-90.61 269.12,-81.27"/>
<polygon fill="#63b8ff" stroke="#63b8ff" points="270.97,-84.25 277.35,-75.79 267.09,-78.42 270.97,-84.25"/>
</a>
</g>
</g>
<!-- Node10 -->
<g id="Node000010" class="node">
<title>Node10</title>
<g id="a_Node000010"><a xlink:title=" ">
<polygon fill="#e0e0e0" stroke="#999999" points="101.25,-74.5 55.25,-74.5 55.25,-55.25 101.25,-55.25 101.25,-74.5"/>
<text text-anchor="middle" x="78.25" y="-61" font-family="Helvetica,sans-Serif" font-size="10.00">TKey.h</text>
</a>
</g>
</g>
<!-- Node5&#45;&gt;Node10 -->
<g id="edge10_Node000005_Node000010" class="edge">
<title>Node5&#45;&gt;Node10</title>
<g id="a_edge10_Node000005_Node000010"><a xlink:title=" ">
<path fill="none" stroke="#63b8ff" d="M189.52,-110.09C168.15,-101.6 135.91,-88.79 111.62,-79.14"/>
<polygon fill="#63b8ff" stroke="#63b8ff" points="113.09,-75.95 102.5,-75.51 110.5,-82.46 113.09,-75.95"/>
</a>
</g>
</g>
<!-- Node11 -->
<g id="Node000011" class="node">
<title>Node11</title>
<g id="a_Node000011"><a xlink:href="_globals_8h.html" target="_top" xlink:title=" ">
<polygon fill="white" stroke="#666666" points="390.5,-74.5 334,-74.5 334,-55.25 390.5,-55.25 390.5,-74.5"/>
<text text-anchor="middle" x="362.25" y="-61" font-family="Helvetica,sans-Serif" font-size="10.00">Globals.h</text>
</a>
</g>
</g>
<!-- Node5&#45;&gt;Node11 -->
<g id="edge11_Node000005_Node000011" class="edge">
<title>Node5&#45;&gt;Node11</title>
<g id="a_edge11_Node000005_Node000011"><a xlink:title=" ">
<path fill="none" stroke="#63b8ff" d="M237.7,-110.09C261.94,-101.49 298.68,-88.44 325.99,-78.75"/>
<polygon fill="#63b8ff" stroke="#63b8ff" points="327,-82.1 335.25,-75.46 324.66,-75.51 327,-82.1"/>
</a>
</g>
</g>
<!-- Node11&#45;&gt;Node3 -->
<g id="edge22_Node000011_Node000003" class="edge">
<title>Node11&#45;&gt;Node3</title>
<g id="a_edge22_Node000011_Node000003"><a xlink:title=" ">
<path fill="none" stroke="#63b8ff" d="M333.67,-57.1C330.5,-56.44 327.31,-55.8 324.25,-55.25 210.83,-34.72 177.91,-41.45 61.91,-19.57"/>
<polygon fill="#63b8ff" stroke="#63b8ff" points="62.77,-16.17 52.29,-17.72 61.45,-23.05 62.77,-16.17"/>
</a>
</g>
</g>
<!-- Node11&#45;&gt;Node6 -->
<g id="edge12_Node000011_Node000006" class="edge">
<title>Node11&#45;&gt;Node6</title>
<g id="a_edge12_Node000011_Node000006"><a xlink:title=" ">
<path fill="none" stroke="#63b8ff" d="M390.63,-57.5C395.17,-56.64 399.82,-55.85 404.25,-55.25 638.57,-23.52 703.92,-54.38 941.16,-19.28"/>
<polygon fill="#63b8ff" stroke="#63b8ff" points="941.36,-22.79 950.72,-17.84 940.31,-15.87 941.36,-22.79"/>
</a>
</g>
</g>
<!-- Node12 -->
<g id="Node000012" class="node">
<title>Node12</title>
<g id="a_Node000012"><a xlink:title=" ">
<polygon fill="#e0e0e0" stroke="#999999" points="734.12,-19.25 684.38,-19.25 684.38,0 734.12,0 734.12,-19.25"/>
<text text-anchor="middle" x="709.25" y="-5.75" font-family="Helvetica,sans-Serif" font-size="10.00">iomanip</text>
</a>
</g>
</g>
<!-- Node11&#45;&gt;Node12 -->
<g id="edge13_Node000011_Node000012" class="edge">
<title>Node11&#45;&gt;Node12</title>
<g id="a_edge13_Node000011_Node000012"><a xlink:title=" ">
<path fill="none" stroke="#63b8ff" d="M390.67,-57.76C395.2,-56.86 399.85,-55.99 404.25,-55.25 520.55,-35.61 554,-41.83 673.05,-19.46"/>
<polygon fill="#63b8ff" stroke="#63b8ff" points="673.42,-22.96 682.59,-17.64 672.11,-16.08 673.42,-22.96"/>
</a>
</g>
</g>
<!-- Node13 -->
<g id="Node000013" class="node">
<title>Node13</title>
<g id="a_Node000013"><a xlink:title=" ">
<polygon fill="#e0e0e0" stroke="#999999" points="810.25,-19.25 752.25,-19.25 752.25,0 810.25,0 810.25,-19.25"/>
<text text-anchor="middle" x="781.25" y="-5.75" font-family="Helvetica,sans-Serif" font-size="10.00">stdexcept</text>
</a>
</g>
</g>
<!-- Node11&#45;&gt;Node13 -->
<g id="edge14_Node000011_Node000013" class="edge">
<title>Node11&#45;&gt;Node13</title>
<g id="a_edge14_Node000011_Node000013"><a xlink:title=" ">
<path fill="none" stroke="#63b8ff" d="M390.65,-57.66C395.18,-56.77 399.84,-55.94 404.25,-55.25 550.46,-32.53 591.85,-43.51 740.94,-19.45"/>
<polygon fill="#63b8ff" stroke="#63b8ff" points="741.06,-22.97 750.37,-17.9 739.93,-16.07 741.06,-22.97"/>
</a>
</g>
</g>
<!-- Node14 -->
<g id="Node000014" class="node">
<title>Node14</title>
<g id="a_Node000014"><a xlink:title=" ">
<polygon fill="#e0e0e0" stroke="#999999" points="934.25,-19.25 894.25,-19.25 894.25,0 934.25,0 934.25,-19.25"/>
<text text-anchor="middle" x="914.25" y="-5.75" font-family="Helvetica,sans-Serif" font-size="10.00">string</text>
</a>
</g>
</g>
<!-- Node11&#45;&gt;Node14 -->
<g id="edge15_Node000011_Node000014" class="edge">
<title>Node11&#45;&gt;Node14</title>
<g id="a_edge15_Node000011_Node000014"><a xlink:title=" ">
<path fill="none" stroke="#63b8ff" d="M390.64,-57.58C395.18,-56.71 399.83,-55.89 404.25,-55.25 587.46,-28.58 634.84,-35.62 819.25,-19.25 840.36,-17.38 864.1,-15.22 882.57,-13.53"/>
<polygon fill="#63b8ff" stroke="#63b8ff" points="882.72,-17.03 892.36,-12.64 882.08,-10.06 882.72,-17.03"/>
</a>
</g>
</g>
<!-- Node15 -->
<g id="Node000015" class="node">
<title>Node15</title>
<g id="a_Node000015"><a xlink:title=" ">
<polygon fill="#e0e0e0" stroke="#999999" points="110.38,-19.25 68.12,-19.25 68.12,0 110.38,0 110.38,-19.25"/>
<text text-anchor="middle" x="89.25" y="-5.75" font-family="Helvetica,sans-Serif" font-size="10.00">cstdio</text>
</a>
</g>
</g>
<!-- Node11&#45;&gt;Node15 -->
<g id="edge16_Node000011_Node000015" class="edge">
<title>Node11&#45;&gt;Node15</title>
<g id="a_edge16_Node000011_Node000015"><a xlink:title=" ">
<path fill="none" stroke="#63b8ff" d="M333.65,-57.22C330.48,-56.54 327.3,-55.86 324.25,-55.25 237.1,-37.72 211.37,-39.85 122.03,-19.69"/>
<polygon fill="#63b8ff" stroke="#63b8ff" points="122.81,-16.28 112.28,-17.46 121.25,-23.1 122.81,-16.28"/>
</a>
</g>
</g>
<!-- Node16 -->
<g id="Node000016" class="node">
<title>Node16</title>
<g id="a_Node000016"><a xlink:title=" ">
<polygon fill="#e0e0e0" stroke="#999999" points="172.5,-19.25 128,-19.25 128,0 172.5,0 172.5,-19.25"/>
<text text-anchor="middle" x="150.25" y="-5.75" font-family="Helvetica,sans-Serif" font-size="10.00">cstdlib</text>
</a>
</g>
</g>
<!-- Node11&#45;&gt;Node16 -->
<g id="edge17_Node000011_Node000016" class="edge">
<title>Node11&#45;&gt;Node16</title>
<g id="a_edge17_Node000011_Node000016"><a xlink:title=" ">
<path fill="none" stroke="#63b8ff" d="M333.66,-57.1C300.02,-49.07 242.23,-35.1 183.82,-19.87"/>
<polygon fill="#63b8ff" stroke="#63b8ff" points="184.94,-16.55 174.38,-17.4 183.17,-23.32 184.94,-16.55"/>
</a>
</g>
</g>
<!-- Node17 -->
<g id="Node000017" class="node">
<title>Node17</title>
<g id="a_Node000017"><a xlink:title=" ">
<polygon fill="#e0e0e0" stroke="#999999" points="250,-19.25 190.5,-19.25 190.5,0 250,0 250,-19.25"/>
<text text-anchor="middle" x="220.25" y="-5.75" font-family="Helvetica,sans-Serif" font-size="10.00">execinfo.h</text>
</a>
</g>
</g>
<!-- Node11&#45;&gt;Node17 -->
<g id="edge18_Node000011_Node000017" class="edge">
<title>Node11&#45;&gt;Node17</title>
<g id="a_edge18_Node000011_Node000017"><a xlink:title=" ">
<path fill="none" stroke="#63b8ff" d="M338.16,-54.84C315.31,-46.27 280.73,-33.31 254.92,-23.63"/>
<polygon fill="#63b8ff" stroke="#63b8ff" points="256.47,-20.47 245.87,-20.23 254.01,-27.02 256.47,-20.47"/>
</a>
</g>
</g>
<!-- Node18 -->
<g id="Node000018" class="node">
<title>Node18</title>
<g id="a_Node000018"><a xlink:title=" ">
<polygon fill="#e0e0e0" stroke="#999999" points="318.5,-19.25 268,-19.25 268,0 318.5,0 318.5,-19.25"/>
<text text-anchor="middle" x="293.25" y="-5.75" font-family="Helvetica,sans-Serif" font-size="10.00">cxxabi.h</text>
</a>
</g>
</g>
<!-- Node11&#45;&gt;Node18 -->
<g id="edge19_Node000011_Node000018" class="edge">
<title>Node11&#45;&gt;Node18</title>
<g id="a_edge19_Node000011_Node000018"><a xlink:title=" ">
<path fill="none" stroke="#63b8ff" d="M350.55,-54.84C340.47,-47.07 325.71,-35.67 313.69,-26.4"/>
<polygon fill="#63b8ff" stroke="#63b8ff" points="316.04,-23.79 305.98,-20.45 311.76,-29.33 316.04,-23.79"/>
</a>
</g>
</g>
<!-- Node19 -->
<g id="Node000019" class="node">
<title>Node19</title>
<g id="a_Node000019"><a xlink:title=" ">
<polygon fill="#e0e0e0" stroke="#999999" points="387.88,-19.25 336.62,-19.25 336.62,0 387.88,0 387.88,-19.25"/>
<text text-anchor="middle" x="362.25" y="-5.75" font-family="Helvetica,sans-Serif" font-size="10.00">sstream</text>
</a>
</g>
</g>
<!-- Node11&#45;&gt;Node19 -->
<g id="edge20_Node000011_Node000019" class="edge">
<title>Node11&#45;&gt;Node19</title>
<g id="a_edge20_Node000011_Node000019"><a xlink:title=" ">
<path fill="none" stroke="#63b8ff" d="M362.25,-55.08C362.25,-48.57 362.25,-39.42 362.25,-31.12"/>
<polygon fill="#63b8ff" stroke="#63b8ff" points="365.75,-31.12 362.25,-21.12 358.75,-31.12 365.75,-31.12"/>
</a>
</g>
</g>
<!-- Node20 -->
<g id="Node000020" class="node">
<title>Node20</title>
<g id="a_Node000020"><a xlink:title=" ">
<polygon fill="#e0e0e0" stroke="#999999" points="442.75,-19.25 405.75,-19.25 405.75,0 442.75,0 442.75,-19.25"/>
<text text-anchor="middle" x="424.25" y="-5.75" font-family="Helvetica,sans-Serif" font-size="10.00">array</text>
</a>
</g>
</g>
<!-- Node11&#45;&gt;Node20 -->
<g id="edge21_Node000011_Node000020" class="edge">
<title>Node11&#45;&gt;Node20</title>
<g id="a_edge21_Node000011_Node000020"><a xlink:title=" ">
<path fill="none" stroke="#63b8ff" d="M372.77,-54.84C381.64,-47.22 394.56,-36.12 405.24,-26.95"/>
<polygon fill="#63b8ff" stroke="#63b8ff" points="407.43,-29.68 412.74,-20.51 402.87,-24.37 407.43,-29.68"/>
</a>
</g>
</g>
<!-- Node21 -->
<g id="Node000021" class="node">
<title>Node21</title>
<g id="a_Node000021"><a xlink:title=" ">
<polygon fill="#e0e0e0" stroke="#999999" points="510.12,-19.25 460.38,-19.25 460.38,0 510.12,0 510.12,-19.25"/>
<text text-anchor="middle" x="485.25" y="-5.75" font-family="Helvetica,sans-Serif" font-size="10.00">unistd.h</text>
</a>
</g>
</g>
<!-- Node11&#45;&gt;Node21 -->
<g id="edge23_Node000011_Node000021" class="edge">
<title>Node11&#45;&gt;Node21</title>
<g id="a_edge23_Node000011_Node000021"><a xlink:title=" ">
<path fill="none" stroke="#63b8ff" d="M383.12,-54.84C402.55,-46.43 431.79,-33.77 454.01,-24.15"/>
<polygon fill="#63b8ff" stroke="#63b8ff" points="455.11,-27.49 462.89,-20.3 452.33,-21.06 455.11,-27.49"/>
</a>
</g>
</g>
<!-- Node22 -->
<g id="Node000022" class="node">
<title>Node22</title>
<g id="a_Node000022"><a xlink:title=" ">
<polygon fill="#e0e0e0" stroke="#999999" points="588,-19.25 528.5,-19.25 528.5,0 588,0 588,-19.25"/>
<text text-anchor="middle" x="558.25" y="-5.75" font-family="Helvetica,sans-Serif" font-size="10.00">sys/wait.h</text>
</a>
</g>
</g>
<!-- Node11&#45;&gt;Node22 -->
<g id="edge24_Node000011_Node000022" class="edge">
<title>Node11&#45;&gt;Node22</title>
<g id="a_edge24_Node000011_Node000022"><a xlink:title=" ">
<path fill="none" stroke="#63b8ff" d="M390.75,-56.13C424.09,-47.07 479.54,-32.01 517.43,-21.71"/>
<polygon fill="#63b8ff" stroke="#63b8ff" points="517.91,-25.21 526.64,-19.21 516.08,-18.46 517.91,-25.21"/>
</a>
</g>
</g>
<!-- Node23 -->
<g id="Node000023" class="node">
<title>Node23</title>
<g id="a_Node000023"><a xlink:title=" ">
<polygon fill="#e0e0e0" stroke="#999999" points="666.38,-19.25 606.12,-19.25 606.12,0 666.38,0 666.38,-19.25"/>
<text text-anchor="middle" x="636.25" y="-5.75" font-family="Helvetica,sans-Serif" font-size="10.00">sys/prctl.h</text>
</a>
</g>
</g>
<!-- Node11&#45;&gt;Node23 -->
<g id="edge25_Node000011_Node000023" class="edge">
<title>Node11&#45;&gt;Node23</title>
<g id="a_edge25_Node000011_Node000023"><a xlink:title=" ">
<path fill="none" stroke="#63b8ff" d="M390.7,-57.96C395.23,-57.04 399.87,-56.11 404.25,-55.25 486.37,-39.16 509.85,-36.85 594.79,-19.69"/>
<polygon fill="#63b8ff" stroke="#63b8ff" points="595.45,-23.13 604.55,-17.71 594.06,-16.27 595.45,-23.13"/>
</a>
</g>
</g>
<!-- Node24&#45;&gt;Node4 -->
<g id="edge30_Node000024_Node000004" class="edge">
<title>Node24&#45;&gt;Node4</title>
<g id="a_edge30_Node000024_Node000004"><a xlink:title=" ">
<path fill="none" stroke="#63b8ff" d="M465.71,-165.31C468.92,-156.41 473.45,-142.37 475.25,-129.75 477.32,-115.25 477.25,-98.7 476.7,-86.08"/>
<polygon fill="#63b8ff" stroke="#63b8ff" points="480.2,-85.9 476.12,-76.12 473.21,-86.31 480.2,-85.9"/>
</a>
</g>
</g>
<!-- Node24&#45;&gt;Node5 -->
<g id="edge33_Node000024_Node000005" class="edge">
<title>Node24&#45;&gt;Node5</title>
<g id="a_edge33_Node000024_Node000005"><a xlink:title=" ">
<path fill="none" stroke="#63b8ff" d="M436.9,-168.98C395.15,-160.08 311.32,-142.23 258.7,-131.02"/>
<polygon fill="#63b8ff" stroke="#63b8ff" points="259.64,-127.64 249.13,-128.98 258.18,-134.49 259.64,-127.64"/>
</a>
</g>
</g>
<!-- Node24&#45;&gt;Node6 -->
<g id="edge29_Node000024_Node000006" class="edge">
<title>Node24&#45;&gt;Node6</title>
<g id="a_edge29_Node000024_Node000006"><a xlink:title=" ">
<path fill="none" stroke="#63b8ff" d="M477.41,-165.4C500.74,-151.89 547.19,-126.25 589.25,-110.5 622.56,-98.03 849.45,-42.25 941.03,-19.92"/>
<polygon fill="#63b8ff" stroke="#63b8ff" points="941.66,-23.37 950.54,-17.6 940,-16.56 941.66,-23.37"/>
</a>
</g>
</g>
<!-- Node24&#45;&gt;Node11 -->
<g id="edge32_Node000024_Node000011" class="edge">
<title>Node24&#45;&gt;Node11</title>
<g id="a_edge32_Node000024_Node000011"><a xlink:title=" ">
<path fill="none" stroke="#63b8ff" d="M436.61,-173.87C406,-171.71 355.96,-162.96 332.25,-129.75 321.84,-115.17 333.11,-96.4 344.7,-82.99"/>
<polygon fill="#63b8ff" stroke="#63b8ff" points="347.17,-85.47 351.46,-75.78 342.07,-80.67 347.17,-85.47"/>
</a>
</g>
</g>
<!-- Node25 -->
<g id="Node000025" class="node">
<title>Node25</title>
<g id="a_Node000025"><a xlink:title=" ">
<polygon fill="#e0e0e0" stroke="#999999" points="375.62,-129.75 340.88,-129.75 340.88,-110.5 375.62,-110.5 375.62,-129.75"/>
<text text-anchor="middle" x="358.25" y="-116.25" font-family="Helvetica,sans-Serif" font-size="10.00">map</text>
</a>
</g>
</g>
<!-- Node24&#45;&gt;Node25 -->
<g id="edge27_Node000024_Node000025" class="edge">
<title>Node24&#45;&gt;Node25</title>
<g id="a_edge27_Node000024_Node000025"><a xlink:title=" ">
<path fill="none" stroke="#63b8ff" d="M444.61,-165.34C428.62,-157.16 404.79,-144.96 386.21,-135.44"/>
<polygon fill="#63b8ff" stroke="#63b8ff" points="387.82,-132.33 377.33,-130.89 384.63,-138.57 387.82,-132.33"/>
</a>
</g>
</g>
<!-- Node26 -->
<g id="Node000026" class="node">
<title>Node26</title>
<g id="a_Node000026"><a xlink:title=" ">
<polygon fill="#e0e0e0" stroke="#999999" points="636.5,-129.75 598,-129.75 598,-110.5 636.5,-110.5 636.5,-129.75"/>
<text text-anchor="middle" x="617.25" y="-116.25" font-family="Helvetica,sans-Serif" font-size="10.00">utility</text>
</a>
</g>
</g>
<!-- Node24&#45;&gt;Node26 -->
<g id="edge28_Node000024_Node000026" class="edge">
<title>Node24&#45;&gt;Node26</title>
<g id="a_edge28_Node000024_Node000026"><a xlink:title=" ">
<path fill="none" stroke="#63b8ff" d="M487.85,-165.58C515.02,-156.25 557.95,-141.5 586.84,-131.57"/>
<polygon fill="#63b8ff" stroke="#63b8ff" points="587.77,-134.95 596.09,-128.39 585.5,-128.33 587.77,-134.95"/>
</a>
</g>
</g>
<!-- Node27 -->
<g id="Node000027" class="node">
<title>Node27</title>
<g id="a_Node000027"><a xlink:title=" ">
<polygon fill="#e0e0e0" stroke="#999999" points="466.38,-129.75 394.12,-129.75 394.12,-110.5 466.38,-110.5 466.38,-129.75"/>
<text text-anchor="middle" x="430.25" y="-116.25" font-family="Helvetica,sans-Serif" font-size="10.00">TCollection.h</text>
</a>
</g>
</g>
<!-- Node24&#45;&gt;Node27 -->
<g id="edge31_Node000024_Node000027" class="edge">
<title>Node24&#45;&gt;Node27</title>
<g id="a_edge31_Node000024_Node000027"><a xlink:title=" ">
<path fill="none" stroke="#63b8ff" d="M456.97,-165.58C452.78,-158.61 446.77,-148.62 441.52,-139.87"/>
<polygon fill="#63b8ff" stroke="#63b8ff" points="444.58,-138.18 436.43,-131.41 438.58,-141.78 444.58,-138.18"/>
</a>
</g>
</g>
<!-- Node28&#45;&gt;Node6 -->
<g id="edge59_Node000028_Node000006" class="edge">
<title>Node28&#45;&gt;Node6</title>
<g id="a_edge59_Node000028_Node000006"><a xlink:title=" ">
<path fill="none" stroke="#63b8ff" d="M1201.96,-280.25C1284.26,-268.59 1480.25,-234.7 1480.25,-176.38 1480.25,-176.38 1480.25,-176.38 1480.25,-119.12 1480.25,-84.4 1465.26,-72.72 1435.25,-55.25 1364.73,-14.18 1114.3,-10.28 1017.67,-10.35"/>
<polygon fill="#63b8ff" stroke="#63b8ff" points="1017.91,-6.85 1007.92,-10.37 1017.93,-13.85 1017.91,-6.85"/>
</a>
</g>
</g>
<!-- Node28&#45;&gt;Node24 -->
<g id="edge58_Node000028_Node000024" class="edge">
<title>Node28&#45;&gt;Node24</title>
<g id="a_edge58_Node000028_Node000024"><a xlink:title=" ">
<path fill="none" stroke="#63b8ff" d="M1130.86,-279.42C1011.05,-260.96 621.42,-200.91 499.24,-182.08"/>
<polygon fill="#63b8ff" stroke="#63b8ff" points="499.86,-178.63 489.44,-180.57 498.79,-185.55 499.86,-178.63"/>
</a>
</g>
</g>
<!-- Node29 -->
<g id="Node000029" class="node">
<title>Node29</title>
<g id="a_Node000029"><a xlink:href="_t_detector_hit_8h.html" target="_top" xlink:title=" ">
<polygon fill="white" stroke="#666666" points="1205.75,-240.25 1126.75,-240.25 1126.75,-221 1205.75,-221 1205.75,-240.25"/>
<text text-anchor="middle" x="1166.25" y="-226.75" font-family="Helvetica,sans-Serif" font-size="10.00">TDetectorHit.h</text>
</a>
</g>
</g>
<!-- Node28&#45;&gt;Node29 -->
<g id="edge35_Node000028_Node000029" class="edge">
<title>Node28&#45;&gt;Node29</title>
<g id="a_edge35_Node000028_Node000029"><a xlink:title=" ">
<path fill="none" stroke="#63b8ff" d="M1166.25,-276.08C1166.25,-269.57 1166.25,-260.42 1166.25,-252.12"/>
<polygon fill="#63b8ff" stroke="#63b8ff" points="1169.75,-252.12 1166.25,-242.12 1162.75,-252.12 1169.75,-252.12"/>
</a>
</g>
</g>
<!-- Node30 -->
<g id="Node000030" class="node">
<title>Node30</title>
<g id="a_Node000030"><a xlink:title=" ">
<polygon fill="#e0e0e0" stroke="#999999" points="1425.75,-74.5 1382.75,-74.5 1382.75,-55.25 1425.75,-55.25 1425.75,-74.5"/>
<text text-anchor="middle" x="1404.25" y="-61" font-family="Helvetica,sans-Serif" font-size="10.00">vector</text>
</a>
</g>
</g>
<!-- Node28&#45;&gt;Node30 -->
<g id="edge60_Node000028_Node000030" class="edge">
<title>Node28&#45;&gt;Node30</title>
<g id="a_edge60_Node000028_Node000030"><a xlink:title=" ">
<path fill="none" stroke="#63b8ff" d="M1201.85,-283.22C1260,-278.36 1373.79,-259.32 1423.25,-185 1443.58,-154.46 1427.19,-109.94 1414.81,-84.87"/>
<polygon fill="#63b8ff" stroke="#63b8ff" points="1418,-83.41 1410.26,-76.18 1411.8,-86.66 1418,-83.41"/>
</a>
</g>
</g>
<!-- Node40 -->
<g id="Node000040" class="node">
<title>Node40</title>
<g id="a_Node000040"><a xlink:title=" ">
<polygon fill="#e0e0e0" stroke="#999999" points="1414,-185 1360.5,-185 1360.5,-165.75 1414,-165.75 1414,-185"/>
<text text-anchor="middle" x="1387.25" y="-171.5" font-family="Helvetica,sans-Serif" font-size="10.00">Rtypes.h</text>
</a>
</g>
</g>
<!-- Node28&#45;&gt;Node40 -->
<g id="edge62_Node000028_Node000040" class="edge">
<title>Node28&#45;&gt;Node40</title>
<g id="a_edge62_Node000028_Node000040"><a xlink:title=" ">
<path fill="none" stroke="#63b8ff" d="M1184.71,-275.81C1223.22,-256.9 1312.37,-213.14 1358.47,-190.5"/>
<polygon fill="#63b8ff" stroke="#63b8ff" points="1359.89,-193.71 1367.33,-186.16 1356.81,-187.42 1359.89,-193.71"/>
</a>
</g>
</g>
<!-- Node44 -->
<g id="Node000044" class="node">
<title>Node44</title>
<g id="a_Node000044"><a xlink:title=" ">
<polygon fill="#e0e0e0" stroke="#999999" points="1108.25,-240.25 1068.25,-240.25 1068.25,-221 1108.25,-221 1108.25,-240.25"/>
<text text-anchor="middle" x="1088.25" y="-226.75" font-family="Helvetica,sans-Serif" font-size="10.00">ctime</text>
</a>
</g>
</g>
<!-- Node28&#45;&gt;Node44 -->
<g id="edge61_Node000028_Node000044" class="edge">
<title>Node28&#45;&gt;Node44</title>
<g id="a_edge61_Node000028_Node000044"><a xlink:title=" ">
<path fill="none" stroke="#63b8ff" d="M1153.02,-275.84C1141.48,-267.96 1124.48,-256.36 1110.8,-247.02"/>
<polygon fill="#63b8ff" stroke="#63b8ff" points="1113.03,-244.3 1102.8,-241.56 1109.08,-250.08 1113.03,-244.3"/>
</a>
</g>
</g>
<!-- Node29&#45;&gt;Node4 -->
<g id="edge51_Node000029_Node000004" class="edge">
<title>Node29&#45;&gt;Node4</title>
<g id="a_edge51_Node000029_Node000004"><a xlink:title=" ">
<path fill="none" stroke="#63b8ff" d="M1126.41,-222.6C1123.31,-222.06 1120.23,-221.52 1117.25,-221 882.65,-180.08 813.69,-209.38 589.25,-129.75 555.29,-117.7 519.58,-96.01 497.37,-81.29"/>
<polygon fill="#63b8ff" stroke="#63b8ff" points="499.39,-78.43 489.15,-75.73 495.47,-84.23 499.39,-78.43"/>
</a>
</g>
</g>
<!-- Node29&#45;&gt;Node24 -->
<g id="edge54_Node000029_Node000024" class="edge">
<title>Node29&#45;&gt;Node24</title>
<g id="a_edge54_Node000029_Node000024"><a xlink:title=" ">
<path fill="none" stroke="#63b8ff" d="M1126.46,-222.24C1123.35,-221.78 1120.25,-221.36 1117.25,-221 869.18,-191.3 805.34,-204.42 556.25,-185 537.4,-183.53 516.45,-181.63 499.12,-179.99"/>
<polygon fill="#63b8ff" stroke="#63b8ff" points="499.56,-176.52 489.27,-179.05 498.9,-183.49 499.56,-176.52"/>
</a>
</g>
</g>
<!-- Node29&#45;&gt;Node30 -->
<g id="edge36_Node000029_Node000030" class="edge">
<title>Node29&#45;&gt;Node30</title>
<g id="a_edge36_Node000029_Node000030"><a xlink:title=" ">
<path fill="none" stroke="#63b8ff" d="M1206.11,-221.63C1236.55,-214.56 1278.97,-202.61 1313.25,-185 1349.13,-166.57 1362.38,-162.98 1385.25,-129.75 1394.2,-116.75 1399,-99.47 1401.54,-86.16"/>
<polygon fill="#63b8ff" stroke="#63b8ff" points="1404.98,-86.81 1403.1,-76.38 1398.07,-85.7 1404.98,-86.81"/>
</a>
</g>
</g>
<!-- Node31 -->
<g id="Node000031" class="node">
<title>Node31</title>
<g id="a_Node000031"><a xlink:href="_t_channel_8h.html" target="_top" xlink:title=" ">
<polygon fill="white" stroke="#666666" points="987.62,-185 922.88,-185 922.88,-165.75 987.62,-165.75 987.62,-185"/>
<text text-anchor="middle" x="955.25" y="-171.5" font-family="Helvetica,sans-Serif" font-size="10.00">TChannel.h</text>
</a>
</g>
</g>
<!-- Node29&#45;&gt;Node31 -->
<g id="edge37_Node000029_Node000031" class="edge">
<title>Node29&#45;&gt;Node31</title>
<g id="a_edge37_Node000029_Node000031"><a xlink:title=" ">
<path fill="none" stroke="#63b8ff" d="M1130.46,-220.59C1094.18,-211.44 1038,-197.26 999.08,-187.44"/>
<polygon fill="#63b8ff" stroke="#63b8ff" points="1000.11,-184.09 989.56,-185.03 998.4,-190.87 1000.11,-184.09"/>
</a>
</g>
</g>
<!-- Node39 -->
<g id="Node000039" class="node">
<title>Node39</title>
<g id="a_Node000039"><a xlink:title=" ">
<polygon fill="#e0e0e0" stroke="#999999" points="1115.88,-185 1052.62,-185 1052.62,-165.75 1115.88,-165.75 1115.88,-185"/>
<text text-anchor="middle" x="1084.25" y="-171.5" font-family="Helvetica,sans-Serif" font-size="10.00">TVector3.h</text>
</a>
</g>
</g>
<!-- Node29&#45;&gt;Node39 -->
<g id="edge50_Node000029_Node000039" class="edge">
<title>Node29&#45;&gt;Node39</title>
<g id="a_edge50_Node000029_Node000039"><a xlink:title=" ">
<path fill="none" stroke="#63b8ff" d="M1152.34,-220.59C1140.09,-212.64 1122,-200.89 1107.54,-191.5"/>
<polygon fill="#63b8ff" stroke="#63b8ff" points="1109.79,-188.79 1099.5,-186.28 1105.98,-194.66 1109.79,-188.79"/>
</a>
</g>
</g>
<!-- Node29&#45;&gt;Node40 -->
<g id="edge52_Node000029_Node000040" class="edge">
<title>Node29&#45;&gt;Node40</title>
<g id="a_edge52_Node000029_Node000040"><a xlink:title=" ">
<path fill="none" stroke="#63b8ff" d="M1203.99,-220.53C1244.47,-210.78 1308.4,-195.37 1349.06,-185.58"/>
<polygon fill="#63b8ff" stroke="#63b8ff" points="1349.75,-189.01 1358.65,-183.27 1348.11,-182.21 1349.75,-189.01"/>
</a>
</g>
</g>
<!-- Node41 -->
<g id="Node000041" class="node">
<title>Node41</title>
<g id="a_Node000041"><a xlink:title=" ">
<polygon fill="#e0e0e0" stroke="#999999" points="1199,-185 1133.5,-185 1133.5,-165.75 1199,-165.75 1199,-185"/>
<text text-anchor="middle" x="1166.25" y="-171.5" font-family="Helvetica,sans-Serif" font-size="10.00">TRandom.h</text>
</a>
</g>
</g>
<!-- Node29&#45;&gt;Node41 -->
<g id="edge53_Node000029_Node000041" class="edge">
<title>Node29&#45;&gt;Node41</title>
<g id="a_edge53_Node000029_Node000041"><a xlink:title=" ">
<path fill="none" stroke="#63b8ff" d="M1166.25,-220.83C1166.25,-214.32 1166.25,-205.17 1166.25,-196.87"/>
<polygon fill="#63b8ff" stroke="#63b8ff" points="1169.75,-196.87 1166.25,-186.87 1162.75,-196.87 1169.75,-196.87"/>
</a>
</g>
</g>
<!-- Node42 -->
<g id="Node000042" class="node">
<title>Node42</title>
<g id="a_Node000042"><a xlink:href="_t_transient_bits_8h.html" target="_top" xlink:title=" ">
<polygon fill="white" stroke="#666666" points="1303.88,-185 1216.62,-185 1216.62,-165.75 1303.88,-165.75 1303.88,-185"/>
<text text-anchor="middle" x="1260.25" y="-171.5" font-family="Helvetica,sans-Serif" font-size="10.00">TTransientBits.h</text>
</a>
</g>
</g>
<!-- Node29&#45;&gt;Node42 -->
<g id="edge55_Node000029_Node000042" class="edge">
<title>Node29&#45;&gt;Node42</title>
<g id="a_edge55_Node000029_Node000042"><a xlink:title=" ">
<path fill="none" stroke="#63b8ff" d="M1182.2,-220.59C1196.51,-212.48 1217.78,-200.43 1234.5,-190.96"/>
<polygon fill="#63b8ff" stroke="#63b8ff" points="1235.93,-194.17 1242.91,-186.2 1232.48,-188.08 1235.93,-194.17"/>
</a>
</g>
</g>
<!-- Node31&#45;&gt;Node2 -->
<g id="edge41_Node000031_Node000002" class="edge">
<title>Node31&#45;&gt;Node2</title>
<g id="a_edge41_Node000031_Node000002"><a xlink:title=" ">
<path fill="none" stroke="#63b8ff" d="M922.45,-167.63C878.7,-158.64 800.73,-142.61 748.76,-131.92"/>
<polygon fill="#63b8ff" stroke="#63b8ff" points="749.74,-128.55 739.24,-129.96 748.33,-135.41 749.74,-128.55"/>
</a>
</g>
</g>
<!-- Node31&#45;&gt;Node14 -->
<g id="edge38_Node000031_Node000014" class="edge">
<title>Node31&#45;&gt;Node14</title>
<g id="a_edge38_Node000031_Node000014"><a xlink:title=" ">
<path fill="none" stroke="#63b8ff" d="M987.99,-171.15C1054.97,-164.22 1202.57,-147.14 1217.25,-129.75 1222.77,-123.21 1218.45,-118.97 1217.25,-110.5 1213.66,-85.19 1220.57,-71.99 1201.25,-55.25 1159.8,-19.35 1016.13,-30.18 945.78,-19.19"/>
<polygon fill="#63b8ff" stroke="#63b8ff" points="946.71,-15.8 936.23,-17.41 945.43,-22.68 946.71,-15.8"/>
</a>
</g>
</g>
<!-- Node31&#45;&gt;Node26 -->
<g id="edge40_Node000031_Node000026" class="edge">
<title>Node31&#45;&gt;Node26</title>
<g id="a_edge40_Node000031_Node000026"><a xlink:title=" ">
<path fill="none" stroke="#63b8ff" d="M922.49,-171.23C867.71,-165.63 753.91,-152.55 648.01,-129.81"/>
<polygon fill="#63b8ff" stroke="#63b8ff" points="648.8,-126.4 638.28,-127.68 647.3,-133.24 648.8,-126.4"/>
</a>
</g>
</g>
<!-- Node32 -->
<g id="Node000032" class="node">
<title>Node32</title>
<g id="a_Node000032"><a xlink:title=" ">
<polygon fill="#e0e0e0" stroke="#999999" points="798.75,-129.75 755.75,-129.75 755.75,-110.5 798.75,-110.5 798.75,-129.75"/>
<text text-anchor="middle" x="777.25" y="-116.25" font-family="Helvetica,sans-Serif" font-size="10.00">cmath</text>
</a>
</g>
</g>
<!-- Node31&#45;&gt;Node32 -->
<g id="edge39_Node000031_Node000032" class="edge">
<title>Node31&#45;&gt;Node32</title>
<g id="a_edge39_Node000031_Node000032"><a xlink:title=" ">
<path fill="none" stroke="#63b8ff" d="M925.05,-165.34C893.11,-155.79 842.88,-140.76 810,-130.92"/>
<polygon fill="#63b8ff" stroke="#63b8ff" points="811.19,-127.62 800.6,-128.11 809.18,-134.33 811.19,-127.62"/>
</a>
</g>
</g>
<!-- Node33 -->
<g id="Node000033" class="node">
<title>Node33</title>
<g id="a_Node000033"><a xlink:title=" ">
<polygon fill="#e0e0e0" stroke="#999999" points="877.75,-129.75 816.75,-129.75 816.75,-110.5 877.75,-110.5 877.75,-129.75"/>
<text text-anchor="middle" x="847.25" y="-116.25" font-family="Helvetica,sans-Serif" font-size="10.00">TNamed.h</text>
</a>
</g>
</g>
<!-- Node31&#45;&gt;Node33 -->
<g id="edge42_Node000031_Node000033" class="edge">
<title>Node31&#45;&gt;Node33</title>
<g id="a_edge42_Node000031_Node000033"><a xlink:title=" ">
<path fill="none" stroke="#63b8ff" d="M936.93,-165.34C920.17,-157.08 895.12,-144.73 875.75,-135.18"/>
<polygon fill="#63b8ff" stroke="#63b8ff" points="877.53,-132.15 867.02,-130.87 874.44,-138.43 877.53,-132.15"/>
</a>
</g>
</g>
<!-- Node34 -->
<g id="Node000034" class="node">
<title>Node34</title>
<g id="a_Node000034"><a xlink:title=" ">
<polygon fill="#e0e0e0" stroke="#999999" points="944.75,-129.75 895.75,-129.75 895.75,-110.5 944.75,-110.5 944.75,-129.75"/>
<text text-anchor="middle" x="920.25" y="-116.25" font-family="Helvetica,sans-Serif" font-size="10.00">TTree.h</text>
</a>
</g>
</g>
<!-- Node31&#45;&gt;Node34 -->
<g id="edge43_Node000031_Node000034" class="edge">
<title>Node31&#45;&gt;Node34</title>
<g id="a_edge43_Node000031_Node000034"><a xlink:title=" ">
<path fill="none" stroke="#63b8ff" d="M949.47,-165.58C944.84,-158.53 938.18,-148.4 932.38,-139.58"/>
<polygon fill="#63b8ff" stroke="#63b8ff" points="935.4,-137.81 926.99,-131.37 929.55,-141.65 935.4,-137.81"/>
</a>
</g>
</g>
<!-- Node35 -->
<g id="Node000035" class="node">
<title>Node35</title>
<g id="a_Node000035"><a xlink:title=" ">
<polygon fill="#e0e0e0" stroke="#999999" points="1018.12,-129.75 962.38,-129.75 962.38,-110.5 1018.12,-110.5 1018.12,-129.75"/>
<text text-anchor="middle" x="990.25" y="-116.25" font-family="Helvetica,sans-Serif" font-size="10.00">TGraph.h</text>
</a>
</g>
</g>
<!-- Node31&#45;&gt;Node35 -->
<g id="edge44_Node000031_Node000035" class="edge">
<title>Node31&#45;&gt;Node35</title>
<g id="a_edge44_Node000031_Node000035"><a xlink:title=" ">
<path fill="none" stroke="#63b8ff" d="M961.03,-165.58C965.66,-158.53 972.32,-148.4 978.12,-139.58"/>
<polygon fill="#63b8ff" stroke="#63b8ff" points="980.95,-141.65 983.51,-131.37 975.1,-137.81 980.95,-141.65"/>
</a>
</g>
</g>
<!-- Node36 -->
<g id="Node000036" class="node">
<title>Node36</title>
<g id="a_Node000036"><a xlink:title=" ">
<polygon fill="#e0e0e0" stroke="#999999" points="1105.88,-129.75 1036.62,-129.75 1036.62,-110.5 1105.88,-110.5 1105.88,-129.75"/>
<text text-anchor="middle" x="1071.25" y="-116.25" font-family="Helvetica,sans-Serif" font-size="10.00">TClassRef.h</text>
</a>
</g>
</g>
<!-- Node31&#45;&gt;Node36 -->
<g id="edge45_Node000031_Node000036" class="edge">
<title>Node31&#45;&gt;Node36</title>
<g id="a_edge45_Node000031_Node000036"><a xlink:title=" ">
<path fill="none" stroke="#63b8ff" d="M974.93,-165.34C993.09,-157 1020.33,-144.5 1041.22,-134.91"/>
<polygon fill="#63b8ff" stroke="#63b8ff" points="1042.47,-138.19 1050.1,-130.83 1039.55,-131.83 1042.47,-138.19"/>
</a>
</g>
</g>
<!-- Node37 -->
<g id="Node000037" class="node">
<title>Node37</title>
<g id="a_Node000037"><a xlink:href="_t_priority_value_8h.html" target="_top" xlink:title=" ">
<polygon fill="white" stroke="#666666" points="1208.38,-129.75 1124.12,-129.75 1124.12,-110.5 1208.38,-110.5 1208.38,-129.75"/>
<text text-anchor="middle" x="1166.25" y="-116.25" font-family="Helvetica,sans-Serif" font-size="10.00">TPriorityValue.h</text>
</a>
</g>
</g>
<!-- Node31&#45;&gt;Node37 -->
<g id="edge46_Node000031_Node000037" class="edge">
<title>Node31&#45;&gt;Node37</title>
<g id="a_edge46_Node000031_Node000037"><a xlink:title=" ">
<path fill="none" stroke="#63b8ff" d="M987.76,-166.17C1022.87,-157.31 1079.14,-143.11 1119.1,-133.02"/>
<polygon fill="#63b8ff" stroke="#63b8ff" points="1119.86,-136.44 1128.7,-130.6 1118.15,-129.65 1119.86,-136.44"/>
</a>
</g>
</g>
<!-- Node37&#45;&gt;Node14 -->
<g id="edge48_Node000037_Node000014" class="edge">
<title>Node37&#45;&gt;Node14</title>
<g id="a_edge48_Node000037_Node000014"><a xlink:title=" ">
<path fill="none" stroke="#63b8ff" d="M1145.2,-110.06C1100.69,-90.9 996.89,-46.2 944.96,-23.85"/>
<polygon fill="#63b8ff" stroke="#63b8ff" points="946.67,-20.77 936.1,-20.03 943.9,-27.2 946.67,-20.77"/>
</a>
</g>
</g>
<!-- Node37&#45;&gt;Node30 -->
<g id="edge49_Node000037_Node000030" class="edge">
<title>Node37&#45;&gt;Node30</title>
<g id="a_edge49_Node000037_Node000030"><a xlink:title=" ">
<path fill="none" stroke="#63b8ff" d="M1206.89,-110.03C1253.25,-99.66 1328.17,-82.9 1371.13,-73.29"/>
<polygon fill="#63b8ff" stroke="#63b8ff" points="1371.88,-76.7 1380.87,-71.11 1370.35,-69.87 1371.88,-76.7"/>
</a>
</g>
</g>
<!-- Node38 -->
<g id="Node000038" class="node">
<title>Node38</title>
<g id="a_Node000038"><a xlink:title=" ">
<polygon fill="#e0e0e0" stroke="#999999" points="1191.88,-74.5 1140.62,-74.5 1140.62,-55.25 1191.88,-55.25 1191.88,-74.5"/>
<text text-anchor="middle" x="1166.25" y="-61" font-family="Helvetica,sans-Serif" font-size="10.00">ostream</text>
</a>
</g>
</g>
<!-- Node37&#45;&gt;Node38 -->
<g id="edge47_Node000037_Node000038" class="edge">
<title>Node37&#45;&gt;Node38</title>
<g id="a_edge47_Node000037_Node000038"><a xlink:title=" ">
<path fill="none" stroke="#63b8ff" d="M1166.25,-110.33C1166.25,-103.82 1166.25,-94.67 1166.25,-86.37"/>
<polygon fill="#63b8ff" stroke="#63b8ff" points="1169.75,-86.37 1166.25,-76.37 1162.75,-86.37 1169.75,-86.37"/>
</a>
</g>
</g>
<!-- Node42&#45;&gt;Node6 -->
<g id="edge56_Node000042_Node000006" class="edge">
<title>Node42&#45;&gt;Node6</title>
<g id="a_edge56_Node000042_Node000006"><a xlink:title=" ">
<path fill="none" stroke="#63b8ff" d="M1260.22,-165.57C1259.64,-143.34 1254.84,-84.61 1221.25,-55.25 1191.47,-29.22 1078.18,-17.5 1017.75,-13.01"/>
<polygon fill="#63b8ff" stroke="#63b8ff" points="1018.14,-9.52 1007.92,-12.31 1017.65,-16.51 1018.14,-9.52"/>
</a>
</g>
</g>
<!-- Node43 -->
<g id="Node000043" class="node">
<title>Node43</title>
<g id="a_Node000043"><a xlink:title=" ">
<polygon fill="#e0e0e0" stroke="#999999" points="1376.12,-129.75 1302.38,-129.75 1302.38,-110.5 1376.12,-110.5 1376.12,-129.75"/>
<text text-anchor="middle" x="1339.25" y="-116.25" font-family="Helvetica,sans-Serif" font-size="10.00">RtypesCore.h</text>
</a>
</g>
</g>
<!-- Node42&#45;&gt;Node43 -->
<g id="edge57_Node000042_Node000043" class="edge">
<title>Node42&#45;&gt;Node43</title>
<g id="a_edge57_Node000042_Node000043"><a xlink:title=" ">
<path fill="none" stroke="#63b8ff" d="M1273.65,-165.34C1285.34,-157.46 1302.55,-145.86 1316.41,-136.52"/>
<polygon fill="#63b8ff" stroke="#63b8ff" points="1318.19,-139.54 1324.53,-131.05 1314.28,-133.74 1318.19,-139.54"/>
</a>
</g>
</g>
</g>
</svg>

<g id="navigator" transform="translate(0 0)" fill="#404254">
  <rect fill="#f2f5e9" fill-opacity="0.5" stroke="#606060" stroke-width=".5" x="0" y="0" width="60" height="60"/>
  <use id="zoomplus" xlink:href="#zoomPlus" x="17" y="9" onmousedown="handleZoom(evt,'in')"/>
  <use id="zoomminus" xlink:href="#zoomMin" x="42" y="9" onmousedown="handleZoom(evt,'out')"/>
  <use id="reset" xlink:href="#resetDef" x="30" y="36" onmousedown="handleReset()"/>
   <use id="arrowup" xlink:href="#arrowUp" x="0" y="0" onmousedown="handlePan(0,-1)"/>
  <use id="arrowright" xlink:href="#arrowRight" x="0" y="0" onmousedown="handlePan(1,0)"/>
  <use id="arrowdown" xlink:href="#arrowDown" x="0" y="0" onmousedown="handlePan(0,1)"/>
  <use id="arrowleft" xlink:href="#arrowLeft" x="0" y="0" onmousedown="handlePan(-1,0)"/>
</g>
<svg viewBox="0 0 15 15" width="100%" height="30px" preserveAspectRatio="xMaxYMin meet">
 <g id="arrow_out" transform="scale(0.3 0.3)">
  <a xlink:href="_t_parsing_diagnostics_8h__incl_org.svg" target="_base">
   <rect id="button" ry="5" rx="5" y="6" x="6" height="38" width="38"
        fill="#f2f5e9" fill-opacity="0.5" stroke="#606060" stroke-width="1.0"/>
   <path id="arrow"
     d="M 11.500037,31.436501 C 11.940474,20.09759 22.043105,11.32322 32.158766,21.979434 L 37.068811,17.246167 C 37.068811,17.246167 37.088388,32 37.088388,32 L 22.160133,31.978069 C 22.160133,31.978069 26.997745,27.140456 26.997745,27.140456 C 18.528582,18.264221 13.291696,25.230495 11.500037,31.436501 z"
     style="fill:#404040;"/>
  </a>
 </g>
</svg>

<style type='text/css'>
<![CDATA[
[data-mouse-over-selected='false'] { opacity: 0.7; }
[data-mouse-over-selected='true']  { opacity: 1.0; }
]]>
</style>
<script type="application/ecmascript"><![CDATA[
document.addEventListener('DOMContentLoaded', (event) => {
  highlightEdges();
  highlightAdjacentNodes();
});
]]></script>
</svg>
