<?xml version="1.0" encoding="UTF-8" standalone="no"?>
<!DOCTYPE svg PUBLIC "-//W3C//DTD SVG 1.1//EN"
 "http://www.w3.org/Graphics/SVG/1.1/DTD/svg11.dtd">
<!-- Generated by graphviz version 12.2.0 (20241103.1931)
 -->
<!-- Title: TPPG.h Pages: 1 -->
<!--zoomable 193 -->

<svg id="main" version="1.1" xmlns="http://www.w3.org/2000/svg" xmlns:xlink="http://www.w3.org/1999/xlink" xml:space="preserve" onload="init(evt)">

<style type="text/css"><![CDATA[
.node, .edge {opacity: 0.7;}
.node.selected, .edge.selected {opacity: 1;}
.edge:hover path { stroke: red; }
.edge:hover polygon { stroke: red; fill: red; }
]]></style>

<defs>
  <circle id="rim" cx="0" cy="0" r="7"/>
  <circle id="rim2" cx="0" cy="0" r="3.5"/>
  <g id="zoomPlus">
    <use xlink:href="#rim" fill="#404040"><set attributeName="fill" to="#808080" begin="zoomplus.mouseover" end="zoomplus.mouseout"/></use>
    <path d="M-4,0h8M0,-4v8" fill="none" stroke="white" stroke-width="1.5" pointer-events="none"/>
  </g>
  <g id="zoomMin">
    <use xlink:href="#rim" fill="#404040"><set attributeName="fill" to="#808080" begin="zoomminus.mouseover" end="zoomminus.mouseout"/></use>
    <path d="M-4,0h8" fill="none" stroke="white" stroke-width="1.5" pointer-events="none"/>
  </g>
  <g id="arrowUp" transform="translate(30 24)">
    <use xlink:href="#rim"/>
    <path pointer-events="none" fill="none" stroke="white" stroke-width="1.5" d="M0,-3.0v7 M-2.5,-0.5L0,-3.0L2.5,-0.5"/>
  </g>
  <g id="arrowRight" transform="rotate(90) translate(36 -43)">
    <use xlink:href="#rim"/>
    <path pointer-events="none" fill="none" stroke="white" stroke-width="1.5" d="M0,-3.0v7 M-2.5,-0.5L0,-3.0L2.5,-0.5"/>
  </g>
  <g id="arrowDown" transform="rotate(180) translate(-30 -48)">
    <use xlink:href="#rim"/>
    <path pointer-events="none" fill="none" stroke="white" stroke-width="1.5" d="M0,-3.0v7 M-2.5,-0.5L0,-3.0L2.5,-0.5"/>
  </g>
  <g id="arrowLeft" transform="rotate(270) translate(-36 17)">
    <use xlink:href="#rim"/>
    <path pointer-events="none" fill="none" stroke="white" stroke-width="1.5" d="M0,-3.0v7 M-2.5,-0.5L0,-3.0L2.5,-0.5"/>
  </g>
  <g id="resetDef">
    <use xlink:href="#rim2" fill="#404040"><set attributeName="fill" to="#808080" begin="reset.mouseover" end="reset.mouseout"/></use>
  </g>
</defs>
<script type="application/ecmascript">
var viewWidth = 1066;
var viewHeight = 193;
var sectionId = 'dynsection-0';
</script>
<script type="application/ecmascript" xlink:href="svg.min.js"/>
<svg id="graph" class="graph">
<g id="viewport">
<title>TPPG.h</title>
<!-- Node1 -->
<g id="Node000001" class="node">
<title>Node1</title>
<g id="a_Node000001"><a xlink:title=" ">
<polygon fill="#999999" stroke="#666666" points="192.62,-185 142.12,-185 142.12,-165.75 192.62,-165.75 192.62,-185"/>
<text text-anchor="middle" x="167.38" y="-171.5" font-family="Helvetica,sans-Serif" font-size="10.00">TPPG.h</text>
</a>
</g>
</g>
<!-- Node2 -->
<g id="Node000002" class="node">
<title>Node2</title>
<g id="a_Node000002"><a xlink:title=" ">
<polygon fill="#e0e0e0" stroke="#999999" points="34.75,-129.75 0,-129.75 0,-110.5 34.75,-110.5 34.75,-129.75"/>
<text text-anchor="middle" x="17.38" y="-116.25" font-family="Helvetica,sans-Serif" font-size="10.00">map</text>
</a>
</g>
</g>
<!-- Node1&#45;&gt;Node2 -->
<g id="edge1_Node000001_Node000002" class="edge">
<title>Node1&#45;&gt;Node2</title>
<g id="a_edge1_Node000001_Node000002"><a xlink:title=" ">
<path fill="none" stroke="#63b8ff" d="M141.93,-165.34C115.19,-155.85 73.24,-140.96 45.52,-131.12"/>
<polygon fill="#63b8ff" stroke="#63b8ff" points="46.97,-127.92 36.38,-127.87 44.63,-134.52 46.97,-127.92"/>
</a>
</g>
</g>
<!-- Node3 -->
<g id="Node000003" class="node">
<title>Node3</title>
<g id="a_Node000003"><a xlink:title=" ">
<polygon fill="#e0e0e0" stroke="#999999" points="91.62,-129.75 53.12,-129.75 53.12,-110.5 91.62,-110.5 91.62,-129.75"/>
<text text-anchor="middle" x="72.38" y="-116.25" font-family="Helvetica,sans-Serif" font-size="10.00">utility</text>
</a>
</g>
</g>
<!-- Node1&#45;&gt;Node3 -->
<g id="edge2_Node000001_Node000003" class="edge">
<title>Node1&#45;&gt;Node3</title>
<g id="a_edge2_Node000001_Node000003"><a xlink:title=" ">
<path fill="none" stroke="#63b8ff" d="M151.26,-165.34C136.79,-157.23 115.3,-145.18 98.39,-135.71"/>
<polygon fill="#63b8ff" stroke="#63b8ff" points="100.32,-132.78 89.89,-130.94 96.9,-138.89 100.32,-132.78"/>
</a>
</g>
</g>
<!-- Node4 -->
<g id="Node000004" class="node">
<title>Node4</title>
<g id="a_Node000004"><a xlink:title=" ">
<polygon fill="#e0e0e0" stroke="#999999" points="170.12,-19.25 116.62,-19.25 116.62,0 170.12,0 170.12,-19.25"/>
<text text-anchor="middle" x="143.38" y="-5.75" font-family="Helvetica,sans-Serif" font-size="10.00">iostream</text>
</a>
</g>
</g>
<!-- Node1&#45;&gt;Node4 -->
<g id="edge3_Node000001_Node000004" class="edge">
<title>Node1&#45;&gt;Node4</title>
<g id="a_edge3_Node000001_Node000004"><a xlink:title=" ">
<path fill="none" stroke="#63b8ff" d="M163.86,-165.47C157.27,-148.25 143.28,-109 138.38,-74.5 137.17,-66.03 137.9,-63.79 138.38,-55.25 138.83,-47.17 139.73,-38.31 140.65,-30.63"/>
<polygon fill="#63b8ff" stroke="#63b8ff" points="144.09,-31.36 141.89,-20.99 137.14,-30.46 144.09,-31.36"/>
</a>
</g>
</g>
<!-- Node5 -->
<g id="Node000005" class="node">
<title>Node5</title>
<g id="a_Node000005"><a xlink:title=" ">
<polygon fill="#e0e0e0" stroke="#999999" points="205.38,-74.5 147.38,-74.5 147.38,-55.25 205.38,-55.25 205.38,-74.5"/>
<text text-anchor="middle" x="176.38" y="-61" font-family="Helvetica,sans-Serif" font-size="10.00">TObject.h</text>
</a>
</g>
</g>
<!-- Node1&#45;&gt;Node5 -->
<g id="edge4_Node000001_Node000005" class="edge">
<title>Node1&#45;&gt;Node5</title>
<g id="a_edge4_Node000001_Node000005"><a xlink:title=" ">
<path fill="none" stroke="#63b8ff" d="M168.11,-165.5C169.54,-148.25 172.73,-109.83 174.7,-86.06"/>
<polygon fill="#63b8ff" stroke="#63b8ff" points="178.16,-86.64 175.5,-76.39 171.19,-86.06 178.16,-86.64"/>
</a>
</g>
</g>
<!-- Node6 -->
<g id="Node000006" class="node">
<title>Node6</title>
<g id="a_Node000006"><a xlink:title=" ">
<polygon fill="#e0e0e0" stroke="#999999" points="267.5,-129.75 195.25,-129.75 195.25,-110.5 267.5,-110.5 267.5,-129.75"/>
<text text-anchor="middle" x="231.38" y="-116.25" font-family="Helvetica,sans-Serif" font-size="10.00">TCollection.h</text>
</a>
</g>
</g>
<!-- Node1&#45;&gt;Node6 -->
<g id="edge5_Node000001_Node000006" class="edge">
<title>Node1&#45;&gt;Node6</title>
<g id="a_edge5_Node000001_Node000006"><a xlink:title=" ">
<path fill="none" stroke="#63b8ff" d="M178.23,-165.34C187.48,-157.65 201,-146.4 212.08,-137.18"/>
<polygon fill="#63b8ff" stroke="#63b8ff" points="214.07,-140.08 219.52,-130.99 209.59,-134.7 214.07,-140.08"/>
</a>
</g>
</g>
<!-- Node7 -->
<g id="Node000007" class="node">
<title>Node7</title>
<g id="a_Node000007"><a xlink:href="_globals_8h.html" target="_top" xlink:title=" ">
<polygon fill="white" stroke="#666666" points="595.62,-74.5 539.12,-74.5 539.12,-55.25 595.62,-55.25 595.62,-74.5"/>
<text text-anchor="middle" x="567.38" y="-61" font-family="Helvetica,sans-Serif" font-size="10.00">Globals.h</text>
</a>
</g>
</g>
<!-- Node1&#45;&gt;Node7 -->
<g id="edge6_Node000001_Node000007" class="edge">
<title>Node1&#45;&gt;Node7</title>
<g id="a_edge6_Node000001_Node000007"><a xlink:title=" ">
<path fill="none" stroke="#63b8ff" d="M192.94,-169.97C232.86,-162.87 312.29,-147.84 378.38,-129.75 433.26,-114.73 495.53,-92.68 533.11,-78.81"/>
<polygon fill="#63b8ff" stroke="#63b8ff" points="533.91,-82.25 542.07,-75.49 531.48,-75.69 533.91,-82.25"/>
</a>
</g>
</g>
<!-- Node21 -->
<g id="Node000021" class="node">
<title>Node21</title>
<g id="a_Node000021"><a xlink:href="_t_singleton_8h.html" target="_top" xlink:title=" ">
<polygon fill="white" stroke="#666666" points="369.38,-129.75 299.38,-129.75 299.38,-110.5 369.38,-110.5 369.38,-129.75"/>
<text text-anchor="middle" x="334.38" y="-116.25" font-family="Helvetica,sans-Serif" font-size="10.00">TSingleton.h</text>
</a>
</g>
</g>
<!-- Node1&#45;&gt;Node21 -->
<g id="edge21_Node000001_Node000021" class="edge">
<title>Node1&#45;&gt;Node21</title>
<g id="a_edge21_Node000001_Node000021"><a xlink:title=" ">
<path fill="none" stroke="#63b8ff" d="M193.1,-166.17C220.36,-157.48 263.72,-143.66 295.22,-133.61"/>
<polygon fill="#63b8ff" stroke="#63b8ff" points="295.91,-137.06 304.38,-130.69 293.79,-130.39 295.91,-137.06"/>
</a>
</g>
</g>
<!-- Node7&#45;&gt;Node4 -->
<g id="edge7_Node000007_Node000004" class="edge">
<title>Node7&#45;&gt;Node4</title>
<g id="a_edge7_Node000007_Node000004"><a xlink:title=" ">
<path fill="none" stroke="#63b8ff" d="M538.76,-56.83C535.94,-56.25 533.11,-55.71 530.38,-55.25 379.33,-30 335.99,-44.84 181.72,-19.41"/>
<polygon fill="#63b8ff" stroke="#63b8ff" points="182.36,-15.97 171.91,-17.76 181.2,-22.87 182.36,-15.97"/>
</a>
</g>
</g>
<!-- Node8 -->
<g id="Node000008" class="node">
<title>Node8</title>
<g id="a_Node000008"><a xlink:title=" ">
<polygon fill="#e0e0e0" stroke="#999999" points="238.25,-19.25 188.5,-19.25 188.5,0 238.25,0 238.25,-19.25"/>
<text text-anchor="middle" x="213.38" y="-5.75" font-family="Helvetica,sans-Serif" font-size="10.00">iomanip</text>
</a>
</g>
</g>
<!-- Node7&#45;&gt;Node8 -->
<g id="edge8_Node000007_Node000008" class="edge">
<title>Node7&#45;&gt;Node8</title>
<g id="a_edge8_Node000007_Node000008"><a xlink:title=" ">
<path fill="none" stroke="#63b8ff" d="M538.75,-56.9C535.93,-56.3 533.1,-55.74 530.38,-55.25 409.12,-33.46 373.92,-42.34 249.65,-19.46"/>
<polygon fill="#63b8ff" stroke="#63b8ff" points="250.51,-16.06 240.04,-17.65 249.22,-22.94 250.51,-16.06"/>
</a>
</g>
</g>
<!-- Node9 -->
<g id="Node000009" class="node">
<title>Node9</title>
<g id="a_Node000009"><a xlink:title=" ">
<polygon fill="#e0e0e0" stroke="#999999" points="314.38,-19.25 256.38,-19.25 256.38,0 314.38,0 314.38,-19.25"/>
<text text-anchor="middle" x="285.38" y="-5.75" font-family="Helvetica,sans-Serif" font-size="10.00">stdexcept</text>
</a>
</g>
</g>
<!-- Node7&#45;&gt;Node9 -->
<g id="edge9_Node000007_Node000009" class="edge">
<title>Node7&#45;&gt;Node9</title>
<g id="a_edge9_Node000007_Node000009"><a xlink:title=" ">
<path fill="none" stroke="#63b8ff" d="M538.73,-57.03C535.91,-56.41 533.09,-55.8 530.38,-55.25 442.35,-37.35 416.86,-37.55 325.92,-19.67"/>
<polygon fill="#63b8ff" stroke="#63b8ff" points="326.78,-16.27 316.29,-17.76 325.41,-23.14 326.78,-16.27"/>
</a>
</g>
</g>
<!-- Node10 -->
<g id="Node000010" class="node">
<title>Node10</title>
<g id="a_Node000010"><a xlink:title=" ">
<polygon fill="#e0e0e0" stroke="#999999" points="372.38,-19.25 332.38,-19.25 332.38,0 372.38,0 372.38,-19.25"/>
<text text-anchor="middle" x="352.38" y="-5.75" font-family="Helvetica,sans-Serif" font-size="10.00">string</text>
</a>
</g>
</g>
<!-- Node7&#45;&gt;Node10 -->
<g id="edge10_Node000007_Node000010" class="edge">
<title>Node7&#45;&gt;Node10</title>
<g id="a_edge10_Node000007_Node000010"><a xlink:title=" ">
<path fill="none" stroke="#63b8ff" d="M538.88,-57.24C498.41,-47.78 425.35,-30.58 383.72,-19.74"/>
<polygon fill="#63b8ff" stroke="#63b8ff" points="384.64,-16.36 374.08,-17.18 382.85,-23.13 384.64,-16.36"/>
</a>
</g>
</g>
<!-- Node11 -->
<g id="Node000011" class="node">
<title>Node11</title>
<g id="a_Node000011"><a xlink:title=" ">
<polygon fill="#e0e0e0" stroke="#999999" points="432.5,-19.25 390.25,-19.25 390.25,0 432.5,0 432.5,-19.25"/>
<text text-anchor="middle" x="411.38" y="-5.75" font-family="Helvetica,sans-Serif" font-size="10.00">cstdio</text>
</a>
</g>
</g>
<!-- Node7&#45;&gt;Node11 -->
<g id="edge11_Node000007_Node000011" class="edge">
<title>Node7&#45;&gt;Node11</title>
<g id="a_edge11_Node000007_Node000011"><a xlink:title=" ">
<path fill="none" stroke="#63b8ff" d="M540.91,-54.84C514.05,-45.67 472.43,-31.47 443.65,-21.64"/>
<polygon fill="#63b8ff" stroke="#63b8ff" points="444.96,-18.39 434.37,-18.47 442.7,-25.02 444.96,-18.39"/>
</a>
</g>
</g>
<!-- Node12 -->
<g id="Node000012" class="node">
<title>Node12</title>
<g id="a_Node000012"><a xlink:title=" ">
<polygon fill="#e0e0e0" stroke="#999999" points="494.62,-19.25 450.12,-19.25 450.12,0 494.62,0 494.62,-19.25"/>
<text text-anchor="middle" x="472.38" y="-5.75" font-family="Helvetica,sans-Serif" font-size="10.00">cstdlib</text>
</a>
</g>
</g>
<!-- Node7&#45;&gt;Node12 -->
<g id="edge12_Node000007_Node000012" class="edge">
<title>Node7&#45;&gt;Node12</title>
<g id="a_edge12_Node000007_Node000012"><a xlink:title=" ">
<path fill="none" stroke="#63b8ff" d="M551.26,-54.84C536.79,-46.73 515.3,-34.68 498.39,-25.21"/>
<polygon fill="#63b8ff" stroke="#63b8ff" points="500.32,-22.28 489.89,-20.44 496.9,-28.39 500.32,-22.28"/>
</a>
</g>
</g>
<!-- Node13 -->
<g id="Node000013" class="node">
<title>Node13</title>
<g id="a_Node000013"><a xlink:title=" ">
<polygon fill="#e0e0e0" stroke="#999999" points="572.12,-19.25 512.62,-19.25 512.62,0 572.12,0 572.12,-19.25"/>
<text text-anchor="middle" x="542.38" y="-5.75" font-family="Helvetica,sans-Serif" font-size="10.00">execinfo.h</text>
</a>
</g>
</g>
<!-- Node7&#45;&gt;Node13 -->
<g id="edge13_Node000007_Node000013" class="edge">
<title>Node7&#45;&gt;Node13</title>
<g id="a_edge13_Node000007_Node000013"><a xlink:title=" ">
<path fill="none" stroke="#63b8ff" d="M563.25,-55.08C560.05,-48.26 555.49,-38.56 551.45,-29.95"/>
<polygon fill="#63b8ff" stroke="#63b8ff" points="554.65,-28.54 547.24,-20.98 548.32,-31.52 554.65,-28.54"/>
</a>
</g>
</g>
<!-- Node14 -->
<g id="Node000014" class="node">
<title>Node14</title>
<g id="a_Node000014"><a xlink:title=" ">
<polygon fill="#e0e0e0" stroke="#999999" points="640.62,-19.25 590.12,-19.25 590.12,0 640.62,0 640.62,-19.25"/>
<text text-anchor="middle" x="615.38" y="-5.75" font-family="Helvetica,sans-Serif" font-size="10.00">cxxabi.h</text>
</a>
</g>
</g>
<!-- Node7&#45;&gt;Node14 -->
<g id="edge14_Node000007_Node000014" class="edge">
<title>Node7&#45;&gt;Node14</title>
<g id="a_edge14_Node000007_Node000014"><a xlink:title=" ">
<path fill="none" stroke="#63b8ff" d="M575.3,-55.08C581.93,-47.73 591.59,-37.01 599.76,-27.94"/>
<polygon fill="#63b8ff" stroke="#63b8ff" points="602.17,-30.5 606.26,-20.73 596.97,-25.82 602.17,-30.5"/>
</a>
</g>
</g>
<!-- Node15 -->
<g id="Node000015" class="node">
<title>Node15</title>
<g id="a_Node000015"><a xlink:title=" ">
<polygon fill="#e0e0e0" stroke="#999999" points="710,-19.25 658.75,-19.25 658.75,0 710,0 710,-19.25"/>
<text text-anchor="middle" x="684.38" y="-5.75" font-family="Helvetica,sans-Serif" font-size="10.00">sstream</text>
</a>
</g>
</g>
<!-- Node7&#45;&gt;Node15 -->
<g id="edge15_Node000007_Node000015" class="edge">
<title>Node7&#45;&gt;Node15</title>
<g id="a_edge15_Node000007_Node000015"><a xlink:title=" ">
<path fill="none" stroke="#63b8ff" d="M587.22,-54.84C605.54,-46.5 633.02,-34 654.08,-24.41"/>
<polygon fill="#63b8ff" stroke="#63b8ff" points="655.4,-27.66 663.05,-20.33 652.5,-21.29 655.4,-27.66"/>
</a>
</g>
</g>
<!-- Node16 -->
<g id="Node000016" class="node">
<title>Node16</title>
<g id="a_Node000016"><a xlink:title=" ">
<polygon fill="#e0e0e0" stroke="#999999" points="764.88,-19.25 727.88,-19.25 727.88,0 764.88,0 764.88,-19.25"/>
<text text-anchor="middle" x="746.38" y="-5.75" font-family="Helvetica,sans-Serif" font-size="10.00">array</text>
</a>
</g>
</g>
<!-- Node7&#45;&gt;Node16 -->
<g id="edge16_Node000007_Node000016" class="edge">
<title>Node7&#45;&gt;Node16</title>
<g id="a_edge16_Node000007_Node000016"><a xlink:title=" ">
<path fill="none" stroke="#63b8ff" d="M596.01,-55.69C624.46,-47.5 669.59,-34.4 716.78,-20"/>
<polygon fill="#63b8ff" stroke="#63b8ff" points="717.53,-23.43 726.06,-17.16 715.48,-16.74 717.53,-23.43"/>
</a>
</g>
</g>
<!-- Node17 -->
<g id="Node000017" class="node">
<title>Node17</title>
<g id="a_Node000017"><a xlink:title=" ">
<polygon fill="#e0e0e0" stroke="#999999" points="833.62,-19.25 783.12,-19.25 783.12,0 833.62,0 833.62,-19.25"/>
<text text-anchor="middle" x="808.38" y="-5.75" font-family="Helvetica,sans-Serif" font-size="10.00">memory</text>
</a>
</g>
</g>
<!-- Node7&#45;&gt;Node17 -->
<g id="edge17_Node000007_Node000017" class="edge">
<title>Node7&#45;&gt;Node17</title>
<g id="a_edge17_Node000007_Node000017"><a xlink:title=" ">
<path fill="none" stroke="#63b8ff" d="M595.91,-58.06C633.87,-50.26 703.32,-35.73 771.8,-19.79"/>
<polygon fill="#63b8ff" stroke="#63b8ff" points="772.37,-23.25 781.31,-17.57 770.77,-16.44 772.37,-23.25"/>
</a>
</g>
</g>
<!-- Node18 -->
<g id="Node000018" class="node">
<title>Node18</title>
<g id="a_Node000018"><a xlink:title=" ">
<polygon fill="#e0e0e0" stroke="#999999" points="901.25,-19.25 851.5,-19.25 851.5,0 901.25,0 901.25,-19.25"/>
<text text-anchor="middle" x="876.38" y="-5.75" font-family="Helvetica,sans-Serif" font-size="10.00">unistd.h</text>
</a>
</g>
</g>
<!-- Node7&#45;&gt;Node18 -->
<g id="edge18_Node000007_Node000018" class="edge">
<title>Node7&#45;&gt;Node18</title>
<g id="a_edge18_Node000007_Node000018"><a xlink:title=" ">
<path fill="none" stroke="#63b8ff" d="M596.03,-60.07C644.29,-53.48 745.04,-38.94 839.94,-19.6"/>
<polygon fill="#63b8ff" stroke="#63b8ff" points="840.61,-23.03 849.7,-17.58 839.2,-16.18 840.61,-23.03"/>
</a>
</g>
</g>
<!-- Node19 -->
<g id="Node000019" class="node">
<title>Node19</title>
<g id="a_Node000019"><a xlink:title=" ">
<polygon fill="#e0e0e0" stroke="#999999" points="979.12,-19.25 919.62,-19.25 919.62,0 979.12,0 979.12,-19.25"/>
<text text-anchor="middle" x="949.38" y="-5.75" font-family="Helvetica,sans-Serif" font-size="10.00">sys/wait.h</text>
</a>
</g>
</g>
<!-- Node7&#45;&gt;Node19 -->
<g id="edge19_Node000007_Node000019" class="edge">
<title>Node7&#45;&gt;Node19</title>
<g id="a_edge19_Node000007_Node000019"><a xlink:title=" ">
<path fill="none" stroke="#63b8ff" d="M595.96,-61.02C653.24,-55.11 786.34,-40.46 908.19,-19.49"/>
<polygon fill="#63b8ff" stroke="#63b8ff" points="908.45,-23 917.7,-17.84 907.25,-16.1 908.45,-23"/>
</a>
</g>
</g>
<!-- Node20 -->
<g id="Node000020" class="node">
<title>Node20</title>
<g id="a_Node000020"><a xlink:title=" ">
<polygon fill="#e0e0e0" stroke="#999999" points="1057.5,-19.25 997.25,-19.25 997.25,0 1057.5,0 1057.5,-19.25"/>
<text text-anchor="middle" x="1027.38" y="-5.75" font-family="Helvetica,sans-Serif" font-size="10.00">sys/prctl.h</text>
</a>
</g>
</g>
<!-- Node7&#45;&gt;Node20 -->
<g id="edge20_Node000007_Node000020" class="edge">
<title>Node7&#45;&gt;Node20</title>
<g id="a_edge20_Node000007_Node000020"><a xlink:title=" ">
<path fill="none" stroke="#63b8ff" d="M596.11,-61.95C662.83,-57.23 833.58,-43.79 985.85,-19.5"/>
<polygon fill="#63b8ff" stroke="#63b8ff" points="985.97,-23.02 995.29,-17.97 984.86,-16.11 985.97,-23.02"/>
</a>
</g>
</g>
<!-- Node21&#45;&gt;Node4 -->
<g id="edge22_Node000021_Node000004" class="edge">
<title>Node21&#45;&gt;Node4</title>
<g id="a_edge22_Node000021_Node000004"><a xlink:title=" ">
<path fill="none" stroke="#63b8ff" d="M317.33,-110.05C300.68,-101.14 274.67,-87.1 252.38,-74.5 223.33,-58.09 190.32,-38.63 168.31,-25.54"/>
<polygon fill="#63b8ff" stroke="#63b8ff" points="170.13,-22.55 159.75,-20.44 166.55,-28.57 170.13,-22.55"/>
</a>
</g>
</g>
<!-- Node21&#45;&gt;Node5 -->
<g id="edge23_Node000021_Node000005" class="edge">
<title>Node21&#45;&gt;Node5</title>
<g id="a_edge23_Node000021_Node000005"><a xlink:title=" ">
<path fill="none" stroke="#63b8ff" d="M307.57,-110.09C281.92,-101.45 242.99,-88.32 214.19,-78.62"/>
<polygon fill="#63b8ff" stroke="#63b8ff" points="215.34,-75.31 204.74,-75.44 213.1,-81.95 215.34,-75.31"/>
</a>
</g>
</g>
<!-- Node21&#45;&gt;Node7 -->
<g id="edge28_Node000021_Node000007" class="edge">
<title>Node21&#45;&gt;Node7</title>
<g id="a_edge28_Node000021_Node000007"><a xlink:title=" ">
<path fill="none" stroke="#63b8ff" d="M369.8,-111.12C406.84,-102.73 466.96,-89.09 527.74,-75.1"/>
<polygon fill="#63b8ff" stroke="#63b8ff" points="528.26,-78.57 537.22,-72.92 526.69,-71.75 528.26,-78.57"/>
</a>
</g>
</g>
<!-- Node22 -->
<g id="Node000022" class="node">
<title>Node22</title>
<g id="a_Node000022"><a xlink:title=" ">
<polygon fill="#e0e0e0" stroke="#999999" points="457.25,-74.5 389.5,-74.5 389.5,-55.25 457.25,-55.25 457.25,-74.5"/>
<text text-anchor="middle" x="423.38" y="-61" font-family="Helvetica,sans-Serif" font-size="10.00">TDirectory.h</text>
</a>
</g>
</g>
<!-- Node21&#45;&gt;Node22 -->
<g id="edge24_Node000021_Node000022" class="edge">
<title>Node21&#45;&gt;Node22</title>
<g id="a_edge24_Node000021_Node000022"><a xlink:title=" ">
<path fill="none" stroke="#63b8ff" d="M349.47,-110.09C362.9,-102.06 382.79,-90.16 398.55,-80.73"/>
<polygon fill="#63b8ff" stroke="#63b8ff" points="400.12,-83.87 406.9,-75.73 396.53,-77.86 400.12,-83.87"/>
</a>
</g>
</g>
<!-- Node23 -->
<g id="Node000023" class="node">
<title>Node23</title>
<g id="a_Node000023"><a xlink:title=" ">
<polygon fill="#e0e0e0" stroke="#999999" points="521,-74.5 475.75,-74.5 475.75,-55.25 521,-55.25 521,-74.5"/>
<text text-anchor="middle" x="498.38" y="-61" font-family="Helvetica,sans-Serif" font-size="10.00">TFile.h</text>
</a>
</g>
</g>
<!-- Node21&#45;&gt;Node23 -->
<g id="edge25_Node000021_Node000023" class="edge">
<title>Node21&#45;&gt;Node23</title>
<g id="a_edge25_Node000021_Node000023"><a xlink:title=" ">
<path fill="none" stroke="#63b8ff" d="M362.2,-110.09C390.48,-100.91 434.32,-86.67 464.58,-76.85"/>
<polygon fill="#63b8ff" stroke="#63b8ff" points="465.58,-80.2 474.01,-73.78 463.42,-73.54 465.58,-80.2"/>
</a>
</g>
</g>
<!-- Node24 -->
<g id="Node000024" class="node">
<title>Node24</title>
<g id="a_Node000024"><a xlink:title=" ">
<polygon fill="#e0e0e0" stroke="#999999" points="307.38,-74.5 261.38,-74.5 261.38,-55.25 307.38,-55.25 307.38,-74.5"/>
<text text-anchor="middle" x="284.38" y="-61" font-family="Helvetica,sans-Serif" font-size="10.00">TList.h</text>
</a>
</g>
</g>
<!-- Node21&#45;&gt;Node24 -->
<g id="edge26_Node000021_Node000024" class="edge">
<title>Node21&#45;&gt;Node24</title>
<g id="a_edge26_Node000021_Node000024"><a xlink:title=" ">
<path fill="none" stroke="#63b8ff" d="M326.12,-110.33C319.21,-102.98 309.15,-92.26 300.64,-83.19"/>
<polygon fill="#63b8ff" stroke="#63b8ff" points="303.24,-80.86 293.85,-75.96 298.14,-85.65 303.24,-80.86"/>
</a>
</g>
</g>
<!-- Node25 -->
<g id="Node000025" class="node">
<title>Node25</title>
<g id="a_Node000025"><a xlink:title=" ">
<polygon fill="#e0e0e0" stroke="#999999" points="371.38,-74.5 325.38,-74.5 325.38,-55.25 371.38,-55.25 371.38,-74.5"/>
<text text-anchor="middle" x="348.38" y="-61" font-family="Helvetica,sans-Serif" font-size="10.00">TKey.h</text>
</a>
</g>
</g>
<!-- Node21&#45;&gt;Node25 -->
<g id="edge27_Node000021_Node000025" class="edge">
<title>Node21&#45;&gt;Node25</title>
<g id="a_edge27_Node000021_Node000025"><a xlink:title=" ">
<path fill="none" stroke="#63b8ff" d="M336.69,-110.33C338.44,-103.67 340.92,-94.24 343.14,-85.78"/>
<polygon fill="#63b8ff" stroke="#63b8ff" points="346.47,-86.88 345.63,-76.32 339.7,-85.1 346.47,-86.88"/>
</a>
</g>
</g>
</g>
</svg>

<g id="navigator" transform="translate(0 0)" fill="#404254">
  <rect fill="#f2f5e9" fill-opacity="0.5" stroke="#606060" stroke-width=".5" x="0" y="0" width="60" height="60"/>
  <use id="zoomplus" xlink:href="#zoomPlus" x="17" y="9" onmousedown="handleZoom(evt,'in')"/>
  <use id="zoomminus" xlink:href="#zoomMin" x="42" y="9" onmousedown="handleZoom(evt,'out')"/>
  <use id="reset" xlink:href="#resetDef" x="30" y="36" onmousedown="handleReset()"/>
   <use id="arrowup" xlink:href="#arrowUp" x="0" y="0" onmousedown="handlePan(0,-1)"/>
  <use id="arrowright" xlink:href="#arrowRight" x="0" y="0" onmousedown="handlePan(1,0)"/>
  <use id="arrowdown" xlink:href="#arrowDown" x="0" y="0" onmousedown="handlePan(0,1)"/>
  <use id="arrowleft" xlink:href="#arrowLeft" x="0" y="0" onmousedown="handlePan(-1,0)"/>
</g>
<svg viewBox="0 0 15 15" width="100%" height="30px" preserveAspectRatio="xMaxYMin meet">
 <g id="arrow_out" transform="scale(0.3 0.3)">
  <a xlink:href="_t_p_p_g_8h__incl_org.svg" target="_base">
   <rect id="button" ry="5" rx="5" y="6" x="6" height="38" width="38"
        fill="#f2f5e9" fill-opacity="0.5" stroke="#606060" stroke-width="1.0"/>
   <path id="arrow"
     d="M 11.500037,31.436501 C 11.940474,20.09759 22.043105,11.32322 32.158766,21.979434 L 37.068811,17.246167 C 37.068811,17.246167 37.088388,32 37.088388,32 L 22.160133,31.978069 C 22.160133,31.978069 26.997745,27.140456 26.997745,27.140456 C 18.528582,18.264221 13.291696,25.230495 11.500037,31.436501 z"
     style="fill:#404040;"/>
  </a>
 </g>
</svg>

<style type='text/css'>
<![CDATA[
[data-mouse-over-selected='false'] { opacity: 0.7; }
[data-mouse-over-selected='true']  { opacity: 1.0; }
]]>
</style>
<script type="application/ecmascript"><![CDATA[
document.addEventListener('DOMContentLoaded', (event) => {
  highlightEdges();
  highlightAdjacentNodes();
});
]]></script>
</svg>
