<?xml version="1.0" encoding="UTF-8" standalone="no"?>
<!DOCTYPE svg PUBLIC "-//W3C//DTD SVG 1.1//EN"
 "http://www.w3.org/Graphics/SVG/1.1/DTD/svg11.dtd">
<!-- Generated by graphviz version 12.2.0 (20241103.1931)
 -->
<!-- Title: TScalerQueue.h Pages: 1 -->
<!--zoomable 304 -->

<svg id="main" version="1.1" xmlns="http://www.w3.org/2000/svg" xmlns:xlink="http://www.w3.org/1999/xlink" xml:space="preserve" onload="init(evt)">

<style type="text/css"><![CDATA[
.node, .edge {opacity: 0.7;}
.node.selected, .edge.selected {opacity: 1;}
.edge:hover path { stroke: red; }
.edge:hover polygon { stroke: red; fill: red; }
]]></style>

<defs>
  <circle id="rim" cx="0" cy="0" r="7"/>
  <circle id="rim2" cx="0" cy="0" r="3.5"/>
  <g id="zoomPlus">
    <use xlink:href="#rim" fill="#404040"><set attributeName="fill" to="#808080" begin="zoomplus.mouseover" end="zoomplus.mouseout"/></use>
    <path d="M-4,0h8M0,-4v8" fill="none" stroke="white" stroke-width="1.5" pointer-events="none"/>
  </g>
  <g id="zoomMin">
    <use xlink:href="#rim" fill="#404040"><set attributeName="fill" to="#808080" begin="zoomminus.mouseover" end="zoomminus.mouseout"/></use>
    <path d="M-4,0h8" fill="none" stroke="white" stroke-width="1.5" pointer-events="none"/>
  </g>
  <g id="arrowUp" transform="translate(30 24)">
    <use xlink:href="#rim"/>
    <path pointer-events="none" fill="none" stroke="white" stroke-width="1.5" d="M0,-3.0v7 M-2.5,-0.5L0,-3.0L2.5,-0.5"/>
  </g>
  <g id="arrowRight" transform="rotate(90) translate(36 -43)">
    <use xlink:href="#rim"/>
    <path pointer-events="none" fill="none" stroke="white" stroke-width="1.5" d="M0,-3.0v7 M-2.5,-0.5L0,-3.0L2.5,-0.5"/>
  </g>
  <g id="arrowDown" transform="rotate(180) translate(-30 -48)">
    <use xlink:href="#rim"/>
    <path pointer-events="none" fill="none" stroke="white" stroke-width="1.5" d="M0,-3.0v7 M-2.5,-0.5L0,-3.0L2.5,-0.5"/>
  </g>
  <g id="arrowLeft" transform="rotate(270) translate(-36 17)">
    <use xlink:href="#rim"/>
    <path pointer-events="none" fill="none" stroke="white" stroke-width="1.5" d="M0,-3.0v7 M-2.5,-0.5L0,-3.0L2.5,-0.5"/>
  </g>
  <g id="resetDef">
    <use xlink:href="#rim2" fill="#404040"><set attributeName="fill" to="#808080" begin="reset.mouseover" end="reset.mouseout"/></use>
  </g>
</defs>
<script type="application/ecmascript">
var viewWidth = 1031;
var viewHeight = 304;
var sectionId = 'dynsection-0';
</script>
<script type="application/ecmascript" xlink:href="svg.min.js"/>
<svg id="graph" class="graph">
<g id="viewport">
<title>TScalerQueue.h</title>
<!-- Node1 -->
<g id="Node000001" class="node">
<title>Node1</title>
<g id="a_Node000001"><a xlink:title=" ">
<polygon fill="#999999" stroke="#666666" points="897,-295.5 811.25,-295.5 811.25,-276.25 897,-276.25 897,-295.5"/>
<text text-anchor="middle" x="854.12" y="-282" font-family="Helvetica,sans-Serif" font-size="10.00">TScalerQueue.h</text>
</a>
</g>
</g>
<!-- Node2 -->
<g id="Node000002" class="node">
<title>Node2</title>
<g id="a_Node000002"><a xlink:title=" ">
<polygon fill="#e0e0e0" stroke="#999999" points="42.25,-19.25 0,-19.25 0,0 42.25,0 42.25,-19.25"/>
<text text-anchor="middle" x="21.12" y="-5.75" font-family="Helvetica,sans-Serif" font-size="10.00">cstdio</text>
</a>
</g>
</g>
<!-- Node1&#45;&gt;Node2 -->
<g id="edge1_Node000001_Node000002" class="edge">
<title>Node1&#45;&gt;Node2</title>
<g id="a_edge1_Node000001_Node000002"><a xlink:title=" ">
<path fill="none" stroke="#63b8ff" d="M810.77,-282.1C667.18,-272.33 216.12,-236.84 216.12,-176.38 216.12,-176.38 216.12,-176.38 216.12,-119.12 216.12,-82.34 108.81,-40.42 53.4,-21.23"/>
<polygon fill="#63b8ff" stroke="#63b8ff" points="54.77,-18 44.17,-18.08 52.51,-24.62 54.77,-18"/>
</a>
</g>
</g>
<!-- Node3 -->
<g id="Node000003" class="node">
<title>Node3</title>
<g id="a_Node000003"><a xlink:title=" ">
<polygon fill="#e0e0e0" stroke="#999999" points="773.25,-240.25 731,-240.25 731,-221 773.25,-221 773.25,-240.25"/>
<text text-anchor="middle" x="752.12" y="-226.75" font-family="Helvetica,sans-Serif" font-size="10.00">queue</text>
</a>
</g>
</g>
<!-- Node1&#45;&gt;Node3 -->
<g id="edge2_Node000001_Node000003" class="edge">
<title>Node1&#45;&gt;Node3</title>
<g id="a_edge2_Node000001_Node000003"><a xlink:title=" ">
<path fill="none" stroke="#63b8ff" d="M836.82,-275.84C821.14,-267.66 797.77,-255.46 779.55,-245.94"/>
<polygon fill="#63b8ff" stroke="#63b8ff" points="781.34,-242.93 770.85,-241.4 778.1,-249.13 781.34,-242.93"/>
</a>
</g>
</g>
<!-- Node4 -->
<g id="Node000004" class="node">
<title>Node4</title>
<g id="a_Node000004"><a xlink:title=" ">
<polygon fill="#e0e0e0" stroke="#999999" points="1010.5,-129.75 975.75,-129.75 975.75,-110.5 1010.5,-110.5 1010.5,-129.75"/>
<text text-anchor="middle" x="993.12" y="-116.25" font-family="Helvetica,sans-Serif" font-size="10.00">map</text>
</a>
</g>
</g>
<!-- Node1&#45;&gt;Node4 -->
<g id="edge3_Node000001_Node000004" class="edge">
<title>Node1&#45;&gt;Node4</title>
<g id="a_edge3_Node000001_Node000004"><a xlink:title=" ">
<path fill="none" stroke="#63b8ff" d="M897.14,-278.63C938.99,-271.56 998.24,-258.6 1012.12,-240.25 1034.47,-210.72 1016.88,-165.15 1003.86,-139.78"/>
<polygon fill="#63b8ff" stroke="#63b8ff" points="1007.1,-138.41 999.25,-131.3 1000.95,-141.76 1007.1,-138.41"/>
</a>
</g>
</g>
<!-- Node5 -->
<g id="Node000005" class="node">
<title>Node5</title>
<g id="a_Node000005"><a xlink:title=" ">
<polygon fill="#e0e0e0" stroke="#999999" points="909.25,-240.25 867,-240.25 867,-221 909.25,-221 909.25,-240.25"/>
<text text-anchor="middle" x="888.12" y="-226.75" font-family="Helvetica,sans-Serif" font-size="10.00">mutex</text>
</a>
</g>
</g>
<!-- Node1&#45;&gt;Node5 -->
<g id="edge4_Node000001_Node000005" class="edge">
<title>Node1&#45;&gt;Node5</title>
<g id="a_edge4_Node000001_Node000005"><a xlink:title=" ">
<path fill="none" stroke="#63b8ff" d="M859.74,-276.08C864.24,-269.03 870.71,-258.9 876.34,-250.08"/>
<polygon fill="#63b8ff" stroke="#63b8ff" points="879.14,-252.2 881.57,-241.88 873.24,-248.43 879.14,-252.2"/>
</a>
</g>
</g>
<!-- Node6 -->
<g id="Node000006" class="node">
<title>Node6</title>
<g id="a_Node000006"><a xlink:title=" ">
<polygon fill="#e0e0e0" stroke="#999999" points="1003.12,-240.25 927.12,-240.25 927.12,-221 1003.12,-221 1003.12,-240.25"/>
<text text-anchor="middle" x="965.12" y="-226.75" font-family="Helvetica,sans-Serif" font-size="10.00">TStopwatch.h</text>
</a>
</g>
</g>
<!-- Node1&#45;&gt;Node6 -->
<g id="edge5_Node000001_Node000006" class="edge">
<title>Node1&#45;&gt;Node6</title>
<g id="a_edge5_Node000001_Node000006"><a xlink:title=" ">
<path fill="none" stroke="#63b8ff" d="M872.95,-275.84C890.18,-267.58 915.93,-255.23 935.83,-245.68"/>
<polygon fill="#63b8ff" stroke="#63b8ff" points="937.34,-248.84 944.84,-241.36 934.31,-242.53 937.34,-248.84"/>
</a>
</g>
</g>
<!-- Node7 -->
<g id="Node000007" class="node">
<title>Node7</title>
<g id="a_Node000007"><a xlink:href="_t_scaler_8h.html" target="_top" xlink:title=" ">
<polygon fill="white" stroke="#666666" points="848.75,-240.25 791.5,-240.25 791.5,-221 848.75,-221 848.75,-240.25"/>
<text text-anchor="middle" x="820.12" y="-226.75" font-family="Helvetica,sans-Serif" font-size="10.00">TScaler.h</text>
</a>
</g>
</g>
<!-- Node1&#45;&gt;Node7 -->
<g id="edge6_Node000001_Node000007" class="edge">
<title>Node1&#45;&gt;Node7</title>
<g id="a_edge6_Node000001_Node000007"><a xlink:title=" ">
<path fill="none" stroke="#63b8ff" d="M848.51,-276.08C844.01,-269.03 837.54,-258.9 831.91,-250.08"/>
<polygon fill="#63b8ff" stroke="#63b8ff" points="835.01,-248.43 826.68,-241.88 829.11,-252.2 835.01,-248.43"/>
</a>
</g>
</g>
<!-- Node7&#45;&gt;Node4 -->
<g id="edge8_Node000007_Node000004" class="edge">
<title>Node7&#45;&gt;Node4</title>
<g id="a_edge8_Node000007_Node000004"><a xlink:title=" ">
<path fill="none" stroke="#63b8ff" d="M849.04,-222.83C891.09,-212.71 965.14,-193.92 974.12,-185 985.69,-173.52 990.28,-155.33 992.07,-141.29"/>
<polygon fill="#63b8ff" stroke="#63b8ff" points="995.55,-141.65 992.92,-131.39 988.58,-141.05 995.55,-141.65"/>
</a>
</g>
</g>
<!-- Node8 -->
<g id="Node000008" class="node">
<title>Node8</title>
<g id="a_Node000008"><a xlink:title=" ">
<polygon fill="#e0e0e0" stroke="#999999" points="940.88,-19.25 887.38,-19.25 887.38,0 940.88,0 940.88,-19.25"/>
<text text-anchor="middle" x="914.12" y="-5.75" font-family="Helvetica,sans-Serif" font-size="10.00">iostream</text>
</a>
</g>
</g>
<!-- Node7&#45;&gt;Node8 -->
<g id="edge7_Node000007_Node000008" class="edge">
<title>Node7&#45;&gt;Node8</title>
<g id="a_edge7_Node000007_Node000008"><a xlink:title=" ">
<path fill="none" stroke="#63b8ff" d="M849.25,-222.85C897.3,-211.57 988.51,-189.71 994.12,-185 1014.77,-167.67 1013.44,-156.1 1019.12,-129.75 1029.21,-82.98 977.37,-44.88 942.93,-25.18"/>
<polygon fill="#63b8ff" stroke="#63b8ff" points="944.66,-22.14 934.21,-20.4 941.29,-28.28 944.66,-22.14"/>
</a>
</g>
</g>
<!-- Node9 -->
<g id="Node000009" class="node">
<title>Node9</title>
<g id="a_Node000009"><a xlink:title=" ">
<polygon fill="#e0e0e0" stroke="#999999" points="867.12,-74.5 809.12,-74.5 809.12,-55.25 867.12,-55.25 867.12,-74.5"/>
<text text-anchor="middle" x="838.12" y="-61" font-family="Helvetica,sans-Serif" font-size="10.00">TObject.h</text>
</a>
</g>
</g>
<!-- Node7&#45;&gt;Node9 -->
<g id="edge9_Node000007_Node000009" class="edge">
<title>Node7&#45;&gt;Node9</title>
<g id="a_edge9_Node000007_Node000009"><a xlink:title=" ">
<path fill="none" stroke="#63b8ff" d="M822.14,-220.6C825.93,-203.15 834,-163.55 837.12,-129.75 838.46,-115.32 838.69,-98.99 838.6,-86.45"/>
<polygon fill="#63b8ff" stroke="#63b8ff" points="842.1,-86.45 838.44,-76.51 835.1,-86.56 842.1,-86.45"/>
</a>
</g>
</g>
<!-- Node10 -->
<g id="Node000010" class="node">
<title>Node10</title>
<g id="a_Node000010"><a xlink:href="_globals_8h.html" target="_top" xlink:title=" ">
<polygon fill="white" stroke="#666666" points="475.38,-74.5 418.88,-74.5 418.88,-55.25 475.38,-55.25 475.38,-74.5"/>
<text text-anchor="middle" x="447.12" y="-61" font-family="Helvetica,sans-Serif" font-size="10.00">Globals.h</text>
</a>
</g>
</g>
<!-- Node7&#45;&gt;Node10 -->
<g id="edge10_Node000007_Node000010" class="edge">
<title>Node7&#45;&gt;Node10</title>
<g id="a_edge10_Node000007_Node000010"><a xlink:title=" ">
<path fill="none" stroke="#63b8ff" d="M791.37,-222.63C738.47,-209.11 623.01,-176.55 534.12,-129.75 508.66,-116.34 482.44,-96.04 465.54,-81.93"/>
<polygon fill="#63b8ff" stroke="#63b8ff" points="468.21,-79.61 458.32,-75.8 463.67,-84.94 468.21,-79.61"/>
</a>
</g>
</g>
<!-- Node23 -->
<g id="Node000023" class="node">
<title>Node23</title>
<g id="a_Node000023"><a xlink:title=" ">
<polygon fill="#e0e0e0" stroke="#999999" points="904.62,-185 855.62,-185 855.62,-165.75 904.62,-165.75 904.62,-185"/>
<text text-anchor="middle" x="880.12" y="-171.5" font-family="Helvetica,sans-Serif" font-size="10.00">TTree.h</text>
</a>
</g>
</g>
<!-- Node7&#45;&gt;Node23 -->
<g id="edge25_Node000007_Node000023" class="edge">
<title>Node7&#45;&gt;Node23</title>
<g id="a_edge25_Node000007_Node000023"><a xlink:title=" ">
<path fill="none" stroke="#63b8ff" d="M830.3,-220.59C838.89,-212.97 851.39,-201.87 861.73,-192.7"/>
<polygon fill="#63b8ff" stroke="#63b8ff" points="863.81,-195.54 868.97,-186.28 859.16,-190.3 863.81,-195.54"/>
</a>
</g>
</g>
<!-- Node24 -->
<g id="Node000024" class="node">
<title>Node24</title>
<g id="a_Node000024"><a xlink:title=" ">
<polygon fill="#e0e0e0" stroke="#999999" points="965.25,-185 923,-185 923,-165.75 965.25,-165.75 965.25,-185"/>
<text text-anchor="middle" x="944.12" y="-171.5" font-family="Helvetica,sans-Serif" font-size="10.00">TH1.h</text>
</a>
</g>
</g>
<!-- Node7&#45;&gt;Node24 -->
<g id="edge26_Node000007_Node000024" class="edge">
<title>Node7&#45;&gt;Node24</title>
<g id="a_edge26_Node000007_Node000024"><a xlink:title=" ">
<path fill="none" stroke="#63b8ff" d="M841.16,-220.59C860.76,-212.18 890.23,-199.52 912.63,-189.9"/>
<polygon fill="#63b8ff" stroke="#63b8ff" points="913.79,-193.21 921.6,-186.05 911.03,-186.78 913.79,-193.21"/>
</a>
</g>
</g>
<!-- Node25 -->
<g id="Node000025" class="node">
<title>Node25</title>
<g id="a_Node000025"><a xlink:href="_t_p_p_g_8h.html" target="_top" xlink:title=" ">
<polygon fill="white" stroke="#666666" points="799.38,-185 748.88,-185 748.88,-165.75 799.38,-165.75 799.38,-185"/>
<text text-anchor="middle" x="774.12" y="-171.5" font-family="Helvetica,sans-Serif" font-size="10.00">TPPG.h</text>
</a>
</g>
</g>
<!-- Node7&#45;&gt;Node25 -->
<g id="edge27_Node000007_Node000025" class="edge">
<title>Node7&#45;&gt;Node25</title>
<g id="a_edge27_Node000007_Node000025"><a xlink:title=" ">
<path fill="none" stroke="#63b8ff" d="M812.53,-220.83C806.24,-213.55 797.11,-202.98 789.33,-193.98"/>
<polygon fill="#63b8ff" stroke="#63b8ff" points="792.06,-191.78 782.88,-186.5 786.76,-196.36 792.06,-191.78"/>
</a>
</g>
</g>
<!-- Node10&#45;&gt;Node2 -->
<g id="edge15_Node000010_Node000002" class="edge">
<title>Node10&#45;&gt;Node2</title>
<g id="a_edge15_Node000010_Node000002"><a xlink:title=" ">
<path fill="none" stroke="#63b8ff" d="M418.54,-62.3C354.69,-58.44 195.54,-46.88 53.7,-19.46"/>
<polygon fill="#63b8ff" stroke="#63b8ff" points="54.62,-16.07 44.13,-17.57 53.27,-22.94 54.62,-16.07"/>
</a>
</g>
</g>
<!-- Node10&#45;&gt;Node8 -->
<g id="edge11_Node000010_Node000008" class="edge">
<title>Node10&#45;&gt;Node8</title>
<g id="a_edge11_Node000010_Node000008"><a xlink:title=" ">
<path fill="none" stroke="#63b8ff" d="M475.73,-56.8C478.56,-56.22 481.39,-55.69 484.12,-55.25 654.07,-27.81 702.59,-46.97 875.77,-19.39"/>
<polygon fill="#63b8ff" stroke="#63b8ff" points="876.28,-22.85 885.59,-17.79 875.16,-15.94 876.28,-22.85"/>
</a>
</g>
</g>
<!-- Node11 -->
<g id="Node000011" class="node">
<title>Node11</title>
<g id="a_Node000011"><a xlink:title=" ">
<polygon fill="#e0e0e0" stroke="#999999" points="869,-19.25 819.25,-19.25 819.25,0 869,0 869,-19.25"/>
<text text-anchor="middle" x="844.12" y="-5.75" font-family="Helvetica,sans-Serif" font-size="10.00">iomanip</text>
</a>
</g>
</g>
<!-- Node10&#45;&gt;Node11 -->
<g id="edge12_Node000010_Node000011" class="edge">
<title>Node10&#45;&gt;Node11</title>
<g id="a_edge12_Node000010_Node000011"><a xlink:title=" ">
<path fill="none" stroke="#63b8ff" d="M475.74,-56.85C478.56,-56.26 481.39,-55.72 484.12,-55.25 624.3,-31.26 664.73,-44.55 808.01,-19.38"/>
<polygon fill="#63b8ff" stroke="#63b8ff" points="808.24,-22.9 817.47,-17.69 807.01,-16.01 808.24,-22.9"/>
</a>
</g>
</g>
<!-- Node12 -->
<g id="Node000012" class="node">
<title>Node12</title>
<g id="a_Node000012"><a xlink:title=" ">
<polygon fill="#e0e0e0" stroke="#999999" points="118.12,-19.25 60.12,-19.25 60.12,0 118.12,0 118.12,-19.25"/>
<text text-anchor="middle" x="89.12" y="-5.75" font-family="Helvetica,sans-Serif" font-size="10.00">stdexcept</text>
</a>
</g>
</g>
<!-- Node10&#45;&gt;Node12 -->
<g id="edge13_Node000010_Node000012" class="edge">
<title>Node10&#45;&gt;Node12</title>
<g id="a_edge13_Node000010_Node000012"><a xlink:title=" ">
<path fill="none" stroke="#63b8ff" d="M418.74,-60.74C364.55,-54.56 242.38,-39.82 129.75,-19.6"/>
<polygon fill="#63b8ff" stroke="#63b8ff" points="130.49,-16.17 120.02,-17.83 129.24,-23.06 130.49,-16.17"/>
</a>
</g>
</g>
<!-- Node13 -->
<g id="Node000013" class="node">
<title>Node13</title>
<g id="a_Node000013"><a xlink:title=" ">
<polygon fill="#e0e0e0" stroke="#999999" points="176.12,-19.25 136.12,-19.25 136.12,0 176.12,0 176.12,-19.25"/>
<text text-anchor="middle" x="156.12" y="-5.75" font-family="Helvetica,sans-Serif" font-size="10.00">string</text>
</a>
</g>
</g>
<!-- Node10&#45;&gt;Node13 -->
<g id="edge14_Node000010_Node000013" class="edge">
<title>Node10&#45;&gt;Node13</title>
<g id="a_edge14_Node000010_Node000013"><a xlink:title=" ">
<path fill="none" stroke="#63b8ff" d="M418.6,-60.16C372.16,-53.88 277.17,-40 187.51,-19.56"/>
<polygon fill="#63b8ff" stroke="#63b8ff" points="188.33,-16.16 177.8,-17.31 186.75,-22.98 188.33,-16.16"/>
</a>
</g>
</g>
<!-- Node14 -->
<g id="Node000014" class="node">
<title>Node14</title>
<g id="a_Node000014"><a xlink:title=" ">
<polygon fill="#e0e0e0" stroke="#999999" points="238.38,-19.25 193.88,-19.25 193.88,0 238.38,0 238.38,-19.25"/>
<text text-anchor="middle" x="216.12" y="-5.75" font-family="Helvetica,sans-Serif" font-size="10.00">cstdlib</text>
</a>
</g>
</g>
<!-- Node10&#45;&gt;Node14 -->
<g id="edge16_Node000010_Node000014" class="edge">
<title>Node10&#45;&gt;Node14</title>
<g id="a_edge16_Node000010_Node000014"><a xlink:title=" ">
<path fill="none" stroke="#63b8ff" d="M418.53,-57.98C381.67,-50.28 315.34,-36.07 249.72,-19.81"/>
<polygon fill="#63b8ff" stroke="#63b8ff" points="250.79,-16.47 240.24,-17.44 249.1,-23.26 250.79,-16.47"/>
</a>
</g>
</g>
<!-- Node15 -->
<g id="Node000015" class="node">
<title>Node15</title>
<g id="a_Node000015"><a xlink:title=" ">
<polygon fill="#e0e0e0" stroke="#999999" points="315.88,-19.25 256.38,-19.25 256.38,0 315.88,0 315.88,-19.25"/>
<text text-anchor="middle" x="286.12" y="-5.75" font-family="Helvetica,sans-Serif" font-size="10.00">execinfo.h</text>
</a>
</g>
</g>
<!-- Node10&#45;&gt;Node15 -->
<g id="edge17_Node000010_Node000015" class="edge">
<title>Node10&#45;&gt;Node15</title>
<g id="a_edge17_Node000010_Node000015"><a xlink:title=" ">
<path fill="none" stroke="#63b8ff" d="M419.81,-54.84C393.56,-46.16 353.65,-32.96 324.27,-23.24"/>
<polygon fill="#63b8ff" stroke="#63b8ff" points="325.6,-19.99 315.01,-20.18 323.4,-26.64 325.6,-19.99"/>
</a>
</g>
</g>
<!-- Node16 -->
<g id="Node000016" class="node">
<title>Node16</title>
<g id="a_Node000016"><a xlink:title=" ">
<polygon fill="#e0e0e0" stroke="#999999" points="384.38,-19.25 333.88,-19.25 333.88,0 384.38,0 384.38,-19.25"/>
<text text-anchor="middle" x="359.12" y="-5.75" font-family="Helvetica,sans-Serif" font-size="10.00">cxxabi.h</text>
</a>
</g>
</g>
<!-- Node10&#45;&gt;Node16 -->
<g id="edge18_Node000010_Node000016" class="edge">
<title>Node10&#45;&gt;Node16</title>
<g id="a_edge18_Node000010_Node000016"><a xlink:title=" ">
<path fill="none" stroke="#63b8ff" d="M432.2,-54.84C418.92,-46.81 399.26,-34.91 383.67,-25.48"/>
<polygon fill="#63b8ff" stroke="#63b8ff" points="385.79,-22.67 375.42,-20.49 382.16,-28.66 385.79,-22.67"/>
</a>
</g>
</g>
<!-- Node17 -->
<g id="Node000017" class="node">
<title>Node17</title>
<g id="a_Node000017"><a xlink:title=" ">
<polygon fill="#e0e0e0" stroke="#999999" points="453.75,-19.25 402.5,-19.25 402.5,0 453.75,0 453.75,-19.25"/>
<text text-anchor="middle" x="428.12" y="-5.75" font-family="Helvetica,sans-Serif" font-size="10.00">sstream</text>
</a>
</g>
</g>
<!-- Node10&#45;&gt;Node17 -->
<g id="edge19_Node000010_Node000017" class="edge">
<title>Node10&#45;&gt;Node17</title>
<g id="a_edge19_Node000010_Node000017"><a xlink:title=" ">
<path fill="none" stroke="#63b8ff" d="M443.99,-55.08C441.58,-48.34 438.17,-38.77 435.12,-30.24"/>
<polygon fill="#63b8ff" stroke="#63b8ff" points="438.5,-29.28 431.84,-21.03 431.9,-31.63 438.5,-29.28"/>
</a>
</g>
</g>
<!-- Node18 -->
<g id="Node000018" class="node">
<title>Node18</title>
<g id="a_Node000018"><a xlink:title=" ">
<polygon fill="#e0e0e0" stroke="#999999" points="508.62,-19.25 471.62,-19.25 471.62,0 508.62,0 508.62,-19.25"/>
<text text-anchor="middle" x="490.12" y="-5.75" font-family="Helvetica,sans-Serif" font-size="10.00">array</text>
</a>
</g>
</g>
<!-- Node10&#45;&gt;Node18 -->
<g id="edge20_Node000010_Node000018" class="edge">
<title>Node10&#45;&gt;Node18</title>
<g id="a_edge20_Node000010_Node000018"><a xlink:title=" ">
<path fill="none" stroke="#63b8ff" d="M454.23,-55.08C460.04,-47.88 468.46,-37.46 475.68,-28.51"/>
<polygon fill="#63b8ff" stroke="#63b8ff" points="478.36,-30.77 481.92,-20.79 472.91,-26.37 478.36,-30.77"/>
</a>
</g>
</g>
<!-- Node19 -->
<g id="Node000019" class="node">
<title>Node19</title>
<g id="a_Node000019"><a xlink:title=" ">
<polygon fill="#e0e0e0" stroke="#999999" points="577.38,-19.25 526.88,-19.25 526.88,0 577.38,0 577.38,-19.25"/>
<text text-anchor="middle" x="552.12" y="-5.75" font-family="Helvetica,sans-Serif" font-size="10.00">memory</text>
</a>
</g>
</g>
<!-- Node10&#45;&gt;Node19 -->
<g id="edge21_Node000010_Node000019" class="edge">
<title>Node10&#45;&gt;Node19</title>
<g id="a_edge21_Node000010_Node000019"><a xlink:title=" ">
<path fill="none" stroke="#63b8ff" d="M464.94,-54.84C481.15,-46.62 505.36,-34.34 524.16,-24.81"/>
<polygon fill="#63b8ff" stroke="#63b8ff" points="525.54,-28.03 532.88,-20.39 522.37,-21.79 525.54,-28.03"/>
</a>
</g>
</g>
<!-- Node20 -->
<g id="Node000020" class="node">
<title>Node20</title>
<g id="a_Node000020"><a xlink:title=" ">
<polygon fill="#e0e0e0" stroke="#999999" points="645,-19.25 595.25,-19.25 595.25,0 645,0 645,-19.25"/>
<text text-anchor="middle" x="620.12" y="-5.75" font-family="Helvetica,sans-Serif" font-size="10.00">unistd.h</text>
</a>
</g>
</g>
<!-- Node10&#45;&gt;Node20 -->
<g id="edge22_Node000010_Node000020" class="edge">
<title>Node10&#45;&gt;Node20</title>
<g id="a_edge22_Node000010_Node000020"><a xlink:title=" ">
<path fill="none" stroke="#63b8ff" d="M475.69,-55.08C505.4,-45.94 551.97,-31.6 584.16,-21.7"/>
<polygon fill="#63b8ff" stroke="#63b8ff" points="584.92,-25.12 593.45,-18.84 582.86,-18.43 584.92,-25.12"/>
</a>
</g>
</g>
<!-- Node21 -->
<g id="Node000021" class="node">
<title>Node21</title>
<g id="a_Node000021"><a xlink:title=" ">
<polygon fill="#e0e0e0" stroke="#999999" points="722.88,-19.25 663.38,-19.25 663.38,0 722.88,0 722.88,-19.25"/>
<text text-anchor="middle" x="693.12" y="-5.75" font-family="Helvetica,sans-Serif" font-size="10.00">sys/wait.h</text>
</a>
</g>
</g>
<!-- Node10&#45;&gt;Node21 -->
<g id="edge23_Node000010_Node000021" class="edge">
<title>Node10&#45;&gt;Node21</title>
<g id="a_edge23_Node000010_Node000021"><a xlink:title=" ">
<path fill="none" stroke="#63b8ff" d="M475.8,-57.13C478.61,-56.49 481.42,-55.85 484.12,-55.25 556.13,-39.24 576.81,-35.88 651.93,-19.71"/>
<polygon fill="#63b8ff" stroke="#63b8ff" points="652.38,-23.19 661.42,-17.66 650.9,-16.35 652.38,-23.19"/>
</a>
</g>
</g>
<!-- Node22 -->
<g id="Node000022" class="node">
<title>Node22</title>
<g id="a_Node000022"><a xlink:title=" ">
<polygon fill="#e0e0e0" stroke="#999999" points="801.25,-19.25 741,-19.25 741,0 801.25,0 801.25,-19.25"/>
<text text-anchor="middle" x="771.12" y="-5.75" font-family="Helvetica,sans-Serif" font-size="10.00">sys/prctl.h</text>
</a>
</g>
</g>
<!-- Node10&#45;&gt;Node22 -->
<g id="edge24_Node000010_Node000022" class="edge">
<title>Node10&#45;&gt;Node22</title>
<g id="a_edge24_Node000010_Node000022"><a xlink:title=" ">
<path fill="none" stroke="#63b8ff" d="M475.76,-56.95C478.58,-56.34 481.4,-55.76 484.12,-55.25 590.04,-35.25 620.61,-39.01 729.38,-19.63"/>
<polygon fill="#63b8ff" stroke="#63b8ff" points="729.81,-23.11 739.02,-17.89 728.56,-16.22 729.81,-23.11"/>
</a>
</g>
</g>
<!-- Node25&#45;&gt;Node4 -->
<g id="edge28_Node000025_Node000004" class="edge">
<title>Node25&#45;&gt;Node4</title>
<g id="a_edge28_Node000025_Node000004"><a xlink:title=" ">
<path fill="none" stroke="#63b8ff" d="M799.68,-168.16C840.72,-158.18 921.11,-138.64 964.2,-128.16"/>
<polygon fill="#63b8ff" stroke="#63b8ff" points="964.94,-131.58 973.83,-125.82 963.29,-124.78 964.94,-131.58"/>
</a>
</g>
</g>
<!-- Node25&#45;&gt;Node8 -->
<g id="edge30_Node000025_Node000008" class="edge">
<title>Node25&#45;&gt;Node8</title>
<g id="a_edge30_Node000025_Node000008"><a xlink:title=" ">
<path fill="none" stroke="#63b8ff" d="M789.74,-165.4C803.22,-157.2 822.73,-144.17 837.12,-129.75 867.6,-99.22 892.42,-54.7 905.06,-29.62"/>
<polygon fill="#63b8ff" stroke="#63b8ff" points="908.05,-31.47 909.32,-20.95 901.77,-28.38 908.05,-31.47"/>
</a>
</g>
</g>
<!-- Node25&#45;&gt;Node9 -->
<g id="edge31_Node000025_Node000009" class="edge">
<title>Node25&#45;&gt;Node9</title>
<g id="a_edge31_Node000025_Node000009"><a xlink:title=" ">
<path fill="none" stroke="#63b8ff" d="M786.12,-165.37C796.28,-157.14 810.54,-144.1 819.12,-129.75 827.23,-116.21 832.09,-98.96 834.87,-85.81"/>
<polygon fill="#63b8ff" stroke="#63b8ff" points="838.27,-86.66 836.65,-76.18 831.39,-85.38 838.27,-86.66"/>
</a>
</g>
</g>
<!-- Node25&#45;&gt;Node10 -->
<g id="edge33_Node000025_Node000010" class="edge">
<title>Node25&#45;&gt;Node10</title>
<g id="a_edge33_Node000025_Node000010"><a xlink:title=" ">
<path fill="none" stroke="#63b8ff" d="M748.6,-170.04C711.84,-163.42 642.17,-149.46 585.12,-129.75 545.03,-115.9 500.91,-94.27 473.6,-80.09"/>
<polygon fill="#63b8ff" stroke="#63b8ff" points="475.49,-77.12 465.01,-75.57 472.23,-83.32 475.49,-77.12"/>
</a>
</g>
</g>
<!-- Node26 -->
<g id="Node000026" class="node">
<title>Node26</title>
<g id="a_Node000026"><a xlink:title=" ">
<polygon fill="#e0e0e0" stroke="#999999" points="720.38,-129.75 681.88,-129.75 681.88,-110.5 720.38,-110.5 720.38,-129.75"/>
<text text-anchor="middle" x="701.12" y="-116.25" font-family="Helvetica,sans-Serif" font-size="10.00">utility</text>
</a>
</g>
</g>
<!-- Node25&#45;&gt;Node26 -->
<g id="edge29_Node000025_Node000026" class="edge">
<title>Node25&#45;&gt;Node26</title>
<g id="a_edge29_Node000025_Node000026"><a xlink:title=" ">
<path fill="none" stroke="#63b8ff" d="M761.74,-165.34C750.98,-157.49 735.15,-145.95 722.37,-136.62"/>
<polygon fill="#63b8ff" stroke="#63b8ff" points="724.69,-133.98 714.55,-130.92 720.56,-139.64 724.69,-133.98"/>
</a>
</g>
</g>
<!-- Node27 -->
<g id="Node000027" class="node">
<title>Node27</title>
<g id="a_Node000027"><a xlink:title=" ">
<polygon fill="#e0e0e0" stroke="#999999" points="810.25,-129.75 738,-129.75 738,-110.5 810.25,-110.5 810.25,-129.75"/>
<text text-anchor="middle" x="774.12" y="-116.25" font-family="Helvetica,sans-Serif" font-size="10.00">TCollection.h</text>
</a>
</g>
</g>
<!-- Node25&#45;&gt;Node27 -->
<g id="edge32_Node000025_Node000027" class="edge">
<title>Node25&#45;&gt;Node27</title>
<g id="a_edge32_Node000025_Node000027"><a xlink:title=" ">
<path fill="none" stroke="#63b8ff" d="M774.12,-165.58C774.12,-159.07 774.12,-149.92 774.12,-141.62"/>
<polygon fill="#63b8ff" stroke="#63b8ff" points="777.63,-141.62 774.13,-131.62 770.63,-141.62 777.63,-141.62"/>
</a>
</g>
</g>
<!-- Node28 -->
<g id="Node000028" class="node">
<title>Node28</title>
<g id="a_Node000028"><a xlink:href="_t_singleton_8h.html" target="_top" xlink:title=" ">
<polygon fill="white" stroke="#666666" points="664.12,-129.75 594.12,-129.75 594.12,-110.5 664.12,-110.5 664.12,-129.75"/>
<text text-anchor="middle" x="629.12" y="-116.25" font-family="Helvetica,sans-Serif" font-size="10.00">TSingleton.h</text>
</a>
</g>
</g>
<!-- Node25&#45;&gt;Node28 -->
<g id="edge34_Node000025_Node000028" class="edge">
<title>Node25&#45;&gt;Node28</title>
<g id="a_edge34_Node000025_Node000028"><a xlink:title=" ">
<path fill="none" stroke="#63b8ff" d="M749.53,-165.34C726.2,-156.77 690.89,-143.81 664.53,-134.13"/>
<polygon fill="#63b8ff" stroke="#63b8ff" points="665.86,-130.89 655.26,-130.72 663.44,-137.46 665.86,-130.89"/>
</a>
</g>
</g>
<!-- Node28&#45;&gt;Node8 -->
<g id="edge35_Node000028_Node000008" class="edge">
<title>Node28&#45;&gt;Node8</title>
<g id="a_edge35_Node000028_Node000008"><a xlink:title=" ">
<path fill="none" stroke="#63b8ff" d="M660.5,-110.01C687.76,-101.76 728.09,-88.74 762.12,-74.5 779.59,-67.19 782.85,-62.99 800.12,-55.25 825.96,-43.68 855.78,-32.07 878.43,-23.59"/>
<polygon fill="#63b8ff" stroke="#63b8ff" points="879.36,-26.98 887.51,-20.22 876.92,-20.42 879.36,-26.98"/>
</a>
</g>
</g>
<!-- Node28&#45;&gt;Node9 -->
<g id="edge36_Node000028_Node000009" class="edge">
<title>Node28&#45;&gt;Node9</title>
<g id="a_edge36_Node000028_Node000009"><a xlink:title=" ">
<path fill="none" stroke="#63b8ff" d="M664.58,-110.09C701.57,-100.67 759.46,-85.92 798.08,-76.08"/>
<polygon fill="#63b8ff" stroke="#63b8ff" points="798.62,-79.55 807.45,-73.69 796.89,-72.77 798.62,-79.55"/>
</a>
</g>
</g>
<!-- Node28&#45;&gt;Node10 -->
<g id="edge41_Node000028_Node000010" class="edge">
<title>Node28&#45;&gt;Node10</title>
<g id="a_edge41_Node000028_Node000010"><a xlink:title=" ">
<path fill="none" stroke="#63b8ff" d="M598.25,-110.09C567.45,-101.08 520.03,-87.2 486.53,-77.4"/>
<polygon fill="#63b8ff" stroke="#63b8ff" points="487.78,-74.12 477.2,-74.67 485.81,-80.84 487.78,-74.12"/>
</a>
</g>
</g>
<!-- Node29 -->
<g id="Node000029" class="node">
<title>Node29</title>
<g id="a_Node000029"><a xlink:title=" ">
<polygon fill="#e0e0e0" stroke="#999999" points="561,-74.5 493.25,-74.5 493.25,-55.25 561,-55.25 561,-74.5"/>
<text text-anchor="middle" x="527.12" y="-61" font-family="Helvetica,sans-Serif" font-size="10.00">TDirectory.h</text>
</a>
</g>
</g>
<!-- Node28&#45;&gt;Node29 -->
<g id="edge37_Node000028_Node000029" class="edge">
<title>Node28&#45;&gt;Node29</title>
<g id="a_edge37_Node000028_Node000029"><a xlink:title=" ">
<path fill="none" stroke="#63b8ff" d="M611.82,-110.09C596.14,-101.91 572.77,-89.71 554.55,-80.19"/>
<polygon fill="#63b8ff" stroke="#63b8ff" points="556.34,-77.18 545.85,-75.65 553.1,-83.38 556.34,-77.18"/>
</a>
</g>
</g>
<!-- Node30 -->
<g id="Node000030" class="node">
<title>Node30</title>
<g id="a_Node000030"><a xlink:title=" ">
<polygon fill="#e0e0e0" stroke="#999999" points="624.75,-74.5 579.5,-74.5 579.5,-55.25 624.75,-55.25 624.75,-74.5"/>
<text text-anchor="middle" x="602.12" y="-61" font-family="Helvetica,sans-Serif" font-size="10.00">TFile.h</text>
</a>
</g>
</g>
<!-- Node28&#45;&gt;Node30 -->
<g id="edge38_Node000028_Node000030" class="edge">
<title>Node28&#45;&gt;Node30</title>
<g id="a_edge38_Node000028_Node000030"><a xlink:title=" ">
<path fill="none" stroke="#63b8ff" d="M624.67,-110.33C621.17,-103.44 616.18,-93.59 611.78,-84.91"/>
<polygon fill="#63b8ff" stroke="#63b8ff" points="615.01,-83.55 607.36,-76.21 608.77,-86.71 615.01,-83.55"/>
</a>
</g>
</g>
<!-- Node31 -->
<g id="Node000031" class="node">
<title>Node31</title>
<g id="a_Node000031"><a xlink:title=" ">
<polygon fill="#e0e0e0" stroke="#999999" points="689.12,-74.5 643.12,-74.5 643.12,-55.25 689.12,-55.25 689.12,-74.5"/>
<text text-anchor="middle" x="666.12" y="-61" font-family="Helvetica,sans-Serif" font-size="10.00">TList.h</text>
</a>
</g>
</g>
<!-- Node28&#45;&gt;Node31 -->
<g id="edge39_Node000028_Node000031" class="edge">
<title>Node28&#45;&gt;Node31</title>
<g id="a_edge39_Node000028_Node000031"><a xlink:title=" ">
<path fill="none" stroke="#63b8ff" d="M635.23,-110.33C640.19,-103.21 647.33,-92.93 653.5,-84.05"/>
<polygon fill="#63b8ff" stroke="#63b8ff" points="656.19,-86.31 659.02,-76.1 650.44,-82.32 656.19,-86.31"/>
</a>
</g>
</g>
<!-- Node32 -->
<g id="Node000032" class="node">
<title>Node32</title>
<g id="a_Node000032"><a xlink:title=" ">
<polygon fill="#e0e0e0" stroke="#999999" points="753.12,-74.5 707.12,-74.5 707.12,-55.25 753.12,-55.25 753.12,-74.5"/>
<text text-anchor="middle" x="730.12" y="-61" font-family="Helvetica,sans-Serif" font-size="10.00">TKey.h</text>
</a>
</g>
</g>
<!-- Node28&#45;&gt;Node32 -->
<g id="edge40_Node000028_Node000032" class="edge">
<title>Node28&#45;&gt;Node32</title>
<g id="a_edge40_Node000028_Node000032"><a xlink:title=" ">
<path fill="none" stroke="#63b8ff" d="M646.26,-110.09C661.78,-101.91 684.93,-89.71 702.97,-80.19"/>
<polygon fill="#63b8ff" stroke="#63b8ff" points="704.36,-83.42 711.57,-75.66 701.09,-77.23 704.36,-83.42"/>
</a>
</g>
</g>
</g>
</svg>

<g id="navigator" transform="translate(0 0)" fill="#404254">
  <rect fill="#f2f5e9" fill-opacity="0.5" stroke="#606060" stroke-width=".5" x="0" y="0" width="60" height="60"/>
  <use id="zoomplus" xlink:href="#zoomPlus" x="17" y="9" onmousedown="handleZoom(evt,'in')"/>
  <use id="zoomminus" xlink:href="#zoomMin" x="42" y="9" onmousedown="handleZoom(evt,'out')"/>
  <use id="reset" xlink:href="#resetDef" x="30" y="36" onmousedown="handleReset()"/>
   <use id="arrowup" xlink:href="#arrowUp" x="0" y="0" onmousedown="handlePan(0,-1)"/>
  <use id="arrowright" xlink:href="#arrowRight" x="0" y="0" onmousedown="handlePan(1,0)"/>
  <use id="arrowdown" xlink:href="#arrowDown" x="0" y="0" onmousedown="handlePan(0,1)"/>
  <use id="arrowleft" xlink:href="#arrowLeft" x="0" y="0" onmousedown="handlePan(-1,0)"/>
</g>
<svg viewBox="0 0 15 15" width="100%" height="30px" preserveAspectRatio="xMaxYMin meet">
 <g id="arrow_out" transform="scale(0.3 0.3)">
  <a xlink:href="_t_scaler_queue_8h__incl_org.svg" target="_base">
   <rect id="button" ry="5" rx="5" y="6" x="6" height="38" width="38"
        fill="#f2f5e9" fill-opacity="0.5" stroke="#606060" stroke-width="1.0"/>
   <path id="arrow"
     d="M 11.500037,31.436501 C 11.940474,20.09759 22.043105,11.32322 32.158766,21.979434 L 37.068811,17.246167 C 37.068811,17.246167 37.088388,32 37.088388,32 L 22.160133,31.978069 C 22.160133,31.978069 26.997745,27.140456 26.997745,27.140456 C 18.528582,18.264221 13.291696,25.230495 11.500037,31.436501 z"
     style="fill:#404040;"/>
  </a>
 </g>
</svg>

<style type='text/css'>
<![CDATA[
[data-mouse-over-selected='false'] { opacity: 0.7; }
[data-mouse-over-selected='true']  { opacity: 1.0; }
]]>
</style>
<script type="application/ecmascript"><![CDATA[
document.addEventListener('DOMContentLoaded', (event) => {
  highlightEdges();
  highlightAdjacentNodes();
});
]]></script>
</svg>
