<?xml version="1.0" encoding="UTF-8" standalone="no"?>
<!DOCTYPE svg PUBLIC "-//W3C//DTD SVG 1.1//EN"
 "http://www.w3.org/Graphics/SVG/1.1/DTD/svg11.dtd">
<!-- Generated by graphviz version 12.2.0 (20241103.1931)
 -->
<!-- Title: TScalerQueue.h Pages: 1 -->
<svg width="1077pt" height="304pt"
 viewBox="0.00 0.00 1077.42 303.50" xmlns="http://www.w3.org/2000/svg" xmlns:xlink="http://www.w3.org/1999/xlink">
<g id="graph0" class="graph" transform="scale(1 1) rotate(0) translate(4 299.5)">
<title>TScalerQueue.h</title>
<!-- Node1 -->
<g id="Node000001" class="node">
<title>Node1</title>
<g id="a_Node000001"><a xlink:title=" ">
<polygon fill="#999999" stroke="#666666" points="942,-295.5 856.25,-295.5 856.25,-276.25 942,-276.25 942,-295.5"/>
<text text-anchor="middle" x="899.12" y="-282" font-family="Helvetica,sans-Serif" font-size="10.00">TScalerQueue.h</text>
</a>
</g>
</g>
<!-- Node2 -->
<g id="Node000002" class="node">
<title>Node2</title>
<g id="a_Node000002"><a xlink:title=" ">
<polygon fill="#e0e0e0" stroke="#999999" points="42.25,-19.25 0,-19.25 0,0 42.25,0 42.25,-19.25"/>
<text text-anchor="middle" x="21.12" y="-5.75" font-family="Helvetica,sans-Serif" font-size="10.00">cstdio</text>
</a>
</g>
</g>
<!-- Node1&#45;&gt;Node2 -->
<g id="edge1_Node000001_Node000002" class="edge">
<title>Node1&#45;&gt;Node2</title>
<g id="a_edge1_Node000001_Node000002"><a xlink:title=" ">
<path fill="none" stroke="#63b8ff" d="M855.94,-282.46C707.77,-273.62 229.12,-240.12 229.12,-176.38 229.12,-176.38 229.12,-176.38 229.12,-119.12 229.12,-79.99 111.9,-38.46 53.45,-20.19"/>
<polygon fill="#63b8ff" stroke="#63b8ff" points="54.63,-16.89 44.05,-17.3 52.58,-23.59 54.63,-16.89"/>
</a>
</g>
</g>
<!-- Node3 -->
<g id="Node000003" class="node">
<title>Node3</title>
<g id="a_Node000003"><a xlink:title=" ">
<polygon fill="#e0e0e0" stroke="#999999" points="818.25,-240.25 776,-240.25 776,-221 818.25,-221 818.25,-240.25"/>
<text text-anchor="middle" x="797.12" y="-226.75" font-family="Helvetica,sans-Serif" font-size="10.00">queue</text>
</a>
</g>
</g>
<!-- Node1&#45;&gt;Node3 -->
<g id="edge2_Node000001_Node000003" class="edge">
<title>Node1&#45;&gt;Node3</title>
<g id="a_edge2_Node000001_Node000003"><a xlink:title=" ">
<path fill="none" stroke="#63b8ff" d="M881.82,-275.84C866.14,-267.66 842.77,-255.46 824.55,-245.94"/>
<polygon fill="#63b8ff" stroke="#63b8ff" points="826.34,-242.93 815.85,-241.4 823.1,-249.13 826.34,-242.93"/>
</a>
</g>
</g>
<!-- Node4 -->
<g id="Node000004" class="node">
<title>Node4</title>
<g id="a_Node000004"><a xlink:title=" ">
<polygon fill="#e0e0e0" stroke="#999999" points="1055.5,-129.75 1020.75,-129.75 1020.75,-110.5 1055.5,-110.5 1055.5,-129.75"/>
<text text-anchor="middle" x="1038.12" y="-116.25" font-family="Helvetica,sans-Serif" font-size="10.00">map</text>
</a>
</g>
</g>
<!-- Node1&#45;&gt;Node4 -->
<g id="edge3_Node000001_Node000004" class="edge">
<title>Node1&#45;&gt;Node4</title>
<g id="a_edge3_Node000001_Node000004"><a xlink:title=" ">
<path fill="none" stroke="#63b8ff" d="M942.14,-278.63C983.99,-271.56 1043.24,-258.6 1057.12,-240.25 1079.47,-210.72 1061.88,-165.15 1048.86,-139.78"/>
<polygon fill="#63b8ff" stroke="#63b8ff" points="1052.1,-138.41 1044.25,-131.3 1045.95,-141.76 1052.1,-138.41"/>
</a>
</g>
</g>
<!-- Node5 -->
<g id="Node000005" class="node">
<title>Node5</title>
<g id="a_Node000005"><a xlink:title=" ">
<polygon fill="#e0e0e0" stroke="#999999" points="954.25,-240.25 912,-240.25 912,-221 954.25,-221 954.25,-240.25"/>
<text text-anchor="middle" x="933.12" y="-226.75" font-family="Helvetica,sans-Serif" font-size="10.00">mutex</text>
</a>
</g>
</g>
<!-- Node1&#45;&gt;Node5 -->
<g id="edge4_Node000001_Node000005" class="edge">
<title>Node1&#45;&gt;Node5</title>
<g id="a_edge4_Node000001_Node000005"><a xlink:title=" ">
<path fill="none" stroke="#63b8ff" d="M904.74,-276.08C909.24,-269.03 915.71,-258.9 921.34,-250.08"/>
<polygon fill="#63b8ff" stroke="#63b8ff" points="924.14,-252.2 926.57,-241.88 918.24,-248.43 924.14,-252.2"/>
</a>
</g>
</g>
<!-- Node6 -->
<g id="Node000006" class="node">
<title>Node6</title>
<g id="a_Node000006"><a xlink:title=" ">
<polygon fill="#e0e0e0" stroke="#999999" points="1048.12,-240.25 972.12,-240.25 972.12,-221 1048.12,-221 1048.12,-240.25"/>
<text text-anchor="middle" x="1010.12" y="-226.75" font-family="Helvetica,sans-Serif" font-size="10.00">TStopwatch.h</text>
</a>
</g>
</g>
<!-- Node1&#45;&gt;Node6 -->
<g id="edge5_Node000001_Node000006" class="edge">
<title>Node1&#45;&gt;Node6</title>
<g id="a_edge5_Node000001_Node000006"><a xlink:title=" ">
<path fill="none" stroke="#63b8ff" d="M917.95,-275.84C935.18,-267.58 960.93,-255.23 980.83,-245.68"/>
<polygon fill="#63b8ff" stroke="#63b8ff" points="982.34,-248.84 989.84,-241.36 979.31,-242.53 982.34,-248.84"/>
</a>
</g>
</g>
<!-- Node7 -->
<g id="Node000007" class="node">
<title>Node7</title>
<g id="a_Node000007"><a xlink:href="_t_scaler_8h.html" target="_top" xlink:title=" ">
<polygon fill="white" stroke="#666666" points="893.75,-240.25 836.5,-240.25 836.5,-221 893.75,-221 893.75,-240.25"/>
<text text-anchor="middle" x="865.12" y="-226.75" font-family="Helvetica,sans-Serif" font-size="10.00">TScaler.h</text>
</a>
</g>
</g>
<!-- Node1&#45;&gt;Node7 -->
<g id="edge6_Node000001_Node000007" class="edge">
<title>Node1&#45;&gt;Node7</title>
<g id="a_edge6_Node000001_Node000007"><a xlink:title=" ">
<path fill="none" stroke="#63b8ff" d="M893.51,-276.08C889.01,-269.03 882.54,-258.9 876.91,-250.08"/>
<polygon fill="#63b8ff" stroke="#63b8ff" points="880.01,-248.43 871.68,-241.88 874.11,-252.2 880.01,-248.43"/>
</a>
</g>
</g>
<!-- Node7&#45;&gt;Node4 -->
<g id="edge8_Node000007_Node000004" class="edge">
<title>Node7&#45;&gt;Node4</title>
<g id="a_edge8_Node000007_Node000004"><a xlink:title=" ">
<path fill="none" stroke="#63b8ff" d="M894.04,-222.83C936.09,-212.71 1010.14,-193.92 1019.12,-185 1030.69,-173.52 1035.28,-155.33 1037.07,-141.29"/>
<polygon fill="#63b8ff" stroke="#63b8ff" points="1040.55,-141.65 1037.92,-131.39 1033.58,-141.05 1040.55,-141.65"/>
</a>
</g>
</g>
<!-- Node8 -->
<g id="Node000008" class="node">
<title>Node8</title>
<g id="a_Node000008"><a xlink:title=" ">
<polygon fill="#e0e0e0" stroke="#999999" points="1004.88,-19.25 951.38,-19.25 951.38,0 1004.88,0 1004.88,-19.25"/>
<text text-anchor="middle" x="978.12" y="-5.75" font-family="Helvetica,sans-Serif" font-size="10.00">iostream</text>
</a>
</g>
</g>
<!-- Node7&#45;&gt;Node8 -->
<g id="edge7_Node000007_Node000008" class="edge">
<title>Node7&#45;&gt;Node8</title>
<g id="a_edge7_Node000007_Node000008"><a xlink:title=" ">
<path fill="none" stroke="#63b8ff" d="M894.25,-222.85C942.3,-211.57 1033.51,-189.71 1039.12,-185 1065.87,-162.54 1076.28,-143.24 1064.12,-110.5 1051.21,-75.71 1020.15,-44.92 999.11,-27.02"/>
<polygon fill="#63b8ff" stroke="#63b8ff" points="1001.37,-24.35 991.42,-20.7 996.92,-29.75 1001.37,-24.35"/>
</a>
</g>
</g>
<!-- Node9 -->
<g id="Node000009" class="node">
<title>Node9</title>
<g id="a_Node000009"><a xlink:title=" ">
<polygon fill="#e0e0e0" stroke="#999999" points="912.12,-74.5 854.12,-74.5 854.12,-55.25 912.12,-55.25 912.12,-74.5"/>
<text text-anchor="middle" x="883.12" y="-61" font-family="Helvetica,sans-Serif" font-size="10.00">TObject.h</text>
</a>
</g>
</g>
<!-- Node7&#45;&gt;Node9 -->
<g id="edge9_Node000007_Node000009" class="edge">
<title>Node7&#45;&gt;Node9</title>
<g id="a_edge9_Node000007_Node000009"><a xlink:title=" ">
<path fill="none" stroke="#63b8ff" d="M867.14,-220.6C870.93,-203.15 879,-163.55 882.12,-129.75 883.46,-115.32 883.69,-98.99 883.6,-86.45"/>
<polygon fill="#63b8ff" stroke="#63b8ff" points="887.1,-86.45 883.44,-76.51 880.1,-86.56 887.1,-86.45"/>
</a>
</g>
</g>
<!-- Node10 -->
<g id="Node000010" class="node">
<title>Node10</title>
<g id="a_Node000010"><a xlink:href="_globals_8h.html" target="_top" xlink:title=" ">
<polygon fill="white" stroke="#666666" points="520.38,-74.5 463.88,-74.5 463.88,-55.25 520.38,-55.25 520.38,-74.5"/>
<text text-anchor="middle" x="492.12" y="-61" font-family="Helvetica,sans-Serif" font-size="10.00">Globals.h</text>
</a>
</g>
</g>
<!-- Node7&#45;&gt;Node10 -->
<g id="edge10_Node000007_Node000010" class="edge">
<title>Node7&#45;&gt;Node10</title>
<g id="a_edge10_Node000007_Node000010"><a xlink:title=" ">
<path fill="none" stroke="#63b8ff" d="M836.37,-222.63C783.47,-209.11 668.01,-176.55 579.12,-129.75 553.66,-116.34 527.44,-96.04 510.54,-81.93"/>
<polygon fill="#63b8ff" stroke="#63b8ff" points="513.21,-79.61 503.32,-75.8 508.67,-84.94 513.21,-79.61"/>
</a>
</g>
</g>
<!-- Node24 -->
<g id="Node000024" class="node">
<title>Node24</title>
<g id="a_Node000024"><a xlink:title=" ">
<polygon fill="#e0e0e0" stroke="#999999" points="949.62,-185 900.62,-185 900.62,-165.75 949.62,-165.75 949.62,-185"/>
<text text-anchor="middle" x="925.12" y="-171.5" font-family="Helvetica,sans-Serif" font-size="10.00">TTree.h</text>
</a>
</g>
</g>
<!-- Node7&#45;&gt;Node24 -->
<g id="edge26_Node000007_Node000024" class="edge">
<title>Node7&#45;&gt;Node24</title>
<g id="a_edge26_Node000007_Node000024"><a xlink:title=" ">
<path fill="none" stroke="#63b8ff" d="M875.3,-220.59C883.89,-212.97 896.39,-201.87 906.73,-192.7"/>
<polygon fill="#63b8ff" stroke="#63b8ff" points="908.81,-195.54 913.97,-186.28 904.16,-190.3 908.81,-195.54"/>
</a>
</g>
</g>
<!-- Node25 -->
<g id="Node000025" class="node">
<title>Node25</title>
<g id="a_Node000025"><a xlink:title=" ">
<polygon fill="#e0e0e0" stroke="#999999" points="1010.25,-185 968,-185 968,-165.75 1010.25,-165.75 1010.25,-185"/>
<text text-anchor="middle" x="989.12" y="-171.5" font-family="Helvetica,sans-Serif" font-size="10.00">TH1.h</text>
</a>
</g>
</g>
<!-- Node7&#45;&gt;Node25 -->
<g id="edge27_Node000007_Node000025" class="edge">
<title>Node7&#45;&gt;Node25</title>
<g id="a_edge27_Node000007_Node000025"><a xlink:title=" ">
<path fill="none" stroke="#63b8ff" d="M886.16,-220.59C905.76,-212.18 935.23,-199.52 957.63,-189.9"/>
<polygon fill="#63b8ff" stroke="#63b8ff" points="958.79,-193.21 966.6,-186.05 956.03,-186.78 958.79,-193.21"/>
</a>
</g>
</g>
<!-- Node26 -->
<g id="Node000026" class="node">
<title>Node26</title>
<g id="a_Node000026"><a xlink:href="_t_p_p_g_8h.html" target="_top" xlink:title=" ">
<polygon fill="white" stroke="#666666" points="844.38,-185 793.88,-185 793.88,-165.75 844.38,-165.75 844.38,-185"/>
<text text-anchor="middle" x="819.12" y="-171.5" font-family="Helvetica,sans-Serif" font-size="10.00">TPPG.h</text>
</a>
</g>
</g>
<!-- Node7&#45;&gt;Node26 -->
<g id="edge28_Node000007_Node000026" class="edge">
<title>Node7&#45;&gt;Node26</title>
<g id="a_edge28_Node000007_Node000026"><a xlink:title=" ">
<path fill="none" stroke="#63b8ff" d="M857.53,-220.83C851.24,-213.55 842.11,-202.98 834.33,-193.98"/>
<polygon fill="#63b8ff" stroke="#63b8ff" points="837.06,-191.78 827.88,-186.5 831.76,-196.36 837.06,-191.78"/>
</a>
</g>
</g>
<!-- Node10&#45;&gt;Node2 -->
<g id="edge15_Node000010_Node000002" class="edge">
<title>Node10&#45;&gt;Node2</title>
<g id="a_edge15_Node000010_Node000002"><a xlink:title=" ">
<path fill="none" stroke="#63b8ff" d="M463.49,-62.75C394.45,-59.67 213.28,-49.36 53.61,-19.41"/>
<polygon fill="#63b8ff" stroke="#63b8ff" points="54.61,-16.03 44.13,-17.6 53.3,-22.91 54.61,-16.03"/>
</a>
</g>
</g>
<!-- Node10&#45;&gt;Node8 -->
<g id="edge11_Node000010_Node000008" class="edge">
<title>Node10&#45;&gt;Node8</title>
<g id="a_edge11_Node000010_Node000008"><a xlink:title=" ">
<path fill="none" stroke="#63b8ff" d="M520.73,-56.78C523.56,-56.21 526.39,-55.69 529.12,-55.25 707.44,-26.84 758.24,-47.91 939.79,-19.37"/>
<polygon fill="#63b8ff" stroke="#63b8ff" points="940.27,-22.84 949.59,-17.8 939.16,-15.93 940.27,-22.84"/>
</a>
</g>
</g>
<!-- Node11 -->
<g id="Node000011" class="node">
<title>Node11</title>
<g id="a_Node000011"><a xlink:title=" ">
<polygon fill="#e0e0e0" stroke="#999999" points="933,-19.25 883.25,-19.25 883.25,0 933,0 933,-19.25"/>
<text text-anchor="middle" x="908.12" y="-5.75" font-family="Helvetica,sans-Serif" font-size="10.00">iomanip</text>
</a>
</g>
</g>
<!-- Node10&#45;&gt;Node11 -->
<g id="edge12_Node000010_Node000011" class="edge">
<title>Node10&#45;&gt;Node11</title>
<g id="a_edge12_Node000010_Node000011"><a xlink:title=" ">
<path fill="none" stroke="#63b8ff" d="M520.74,-56.83C523.56,-56.25 526.39,-55.71 529.12,-55.25 677.6,-30.3 720.35,-45.52 871.86,-19.39"/>
<polygon fill="#63b8ff" stroke="#63b8ff" points="872.23,-22.88 881.47,-17.7 871.02,-15.99 872.23,-22.88"/>
</a>
</g>
</g>
<!-- Node12 -->
<g id="Node000012" class="node">
<title>Node12</title>
<g id="a_Node000012"><a xlink:title=" ">
<polygon fill="#e0e0e0" stroke="#999999" points="118.12,-19.25 60.12,-19.25 60.12,0 118.12,0 118.12,-19.25"/>
<text text-anchor="middle" x="89.12" y="-5.75" font-family="Helvetica,sans-Serif" font-size="10.00">stdexcept</text>
</a>
</g>
</g>
<!-- Node10&#45;&gt;Node12 -->
<g id="edge13_Node000010_Node000012" class="edge">
<title>Node10&#45;&gt;Node12</title>
<g id="a_edge13_Node000010_Node000012"><a xlink:title=" ">
<path fill="none" stroke="#63b8ff" d="M463.58,-61.38C403.58,-55.93 259.8,-41.74 129.48,-19.5"/>
<polygon fill="#63b8ff" stroke="#63b8ff" points="130.47,-16.12 120.02,-17.87 129.27,-23.02 130.47,-16.12"/>
</a>
</g>
</g>
<!-- Node13 -->
<g id="Node000013" class="node">
<title>Node13</title>
<g id="a_Node000013"><a xlink:title=" ">
<polygon fill="#e0e0e0" stroke="#999999" points="176.12,-19.25 136.12,-19.25 136.12,0 176.12,0 176.12,-19.25"/>
<text text-anchor="middle" x="156.12" y="-5.75" font-family="Helvetica,sans-Serif" font-size="10.00">string</text>
</a>
</g>
</g>
<!-- Node10&#45;&gt;Node13 -->
<g id="edge14_Node000010_Node000013" class="edge">
<title>Node10&#45;&gt;Node13</title>
<g id="a_edge14_Node000010_Node000013"><a xlink:title=" ">
<path fill="none" stroke="#63b8ff" d="M463.52,-61.12C410.76,-55.73 294.44,-42.46 187.6,-19.52"/>
<polygon fill="#63b8ff" stroke="#63b8ff" points="188.62,-16.16 178.1,-17.44 187.12,-23 188.62,-16.16"/>
</a>
</g>
</g>
<!-- Node14 -->
<g id="Node000014" class="node">
<title>Node14</title>
<g id="a_Node000014"><a xlink:title=" ">
<polygon fill="#e0e0e0" stroke="#999999" points="239.75,-19.25 194.5,-19.25 194.5,0 239.75,0 239.75,-19.25"/>
<text text-anchor="middle" x="217.12" y="-5.75" font-family="Helvetica,sans-Serif" font-size="10.00">cstdint</text>
</a>
</g>
</g>
<!-- Node10&#45;&gt;Node14 -->
<g id="edge16_Node000010_Node000014" class="edge">
<title>Node10&#45;&gt;Node14</title>
<g id="a_edge16_Node000010_Node000014"><a xlink:title=" ">
<path fill="none" stroke="#63b8ff" d="M463.54,-59.4C419.92,-52.41 333.91,-37.97 251.25,-19.57"/>
<polygon fill="#63b8ff" stroke="#63b8ff" points="252.14,-16.18 241.62,-17.4 250.6,-23.01 252.14,-16.18"/>
</a>
</g>
</g>
<!-- Node15 -->
<g id="Node000015" class="node">
<title>Node15</title>
<g id="a_Node000015"><a xlink:title=" ">
<polygon fill="#e0e0e0" stroke="#999999" points="302.38,-19.25 257.88,-19.25 257.88,0 302.38,0 302.38,-19.25"/>
<text text-anchor="middle" x="280.12" y="-5.75" font-family="Helvetica,sans-Serif" font-size="10.00">cstdlib</text>
</a>
</g>
</g>
<!-- Node10&#45;&gt;Node15 -->
<g id="edge17_Node000010_Node000015" class="edge">
<title>Node10&#45;&gt;Node15</title>
<g id="a_edge17_Node000010_Node000015"><a xlink:title=" ">
<path fill="none" stroke="#63b8ff" d="M463.53,-57.1C429.89,-49.07 372.1,-35.1 313.7,-19.87"/>
<polygon fill="#63b8ff" stroke="#63b8ff" points="314.82,-16.55 304.26,-17.4 313.04,-23.32 314.82,-16.55"/>
</a>
</g>
</g>
<!-- Node16 -->
<g id="Node000016" class="node">
<title>Node16</title>
<g id="a_Node000016"><a xlink:title=" ">
<polygon fill="#e0e0e0" stroke="#999999" points="379.88,-19.25 320.38,-19.25 320.38,0 379.88,0 379.88,-19.25"/>
<text text-anchor="middle" x="350.12" y="-5.75" font-family="Helvetica,sans-Serif" font-size="10.00">execinfo.h</text>
</a>
</g>
</g>
<!-- Node10&#45;&gt;Node16 -->
<g id="edge18_Node000010_Node000016" class="edge">
<title>Node10&#45;&gt;Node16</title>
<g id="a_edge18_Node000010_Node000016"><a xlink:title=" ">
<path fill="none" stroke="#63b8ff" d="M468.04,-54.84C445.19,-46.27 410.61,-33.31 384.8,-23.63"/>
<polygon fill="#63b8ff" stroke="#63b8ff" points="386.34,-20.47 375.75,-20.23 383.88,-27.02 386.34,-20.47"/>
</a>
</g>
</g>
<!-- Node17 -->
<g id="Node000017" class="node">
<title>Node17</title>
<g id="a_Node000017"><a xlink:title=" ">
<polygon fill="#e0e0e0" stroke="#999999" points="448.38,-19.25 397.88,-19.25 397.88,0 448.38,0 448.38,-19.25"/>
<text text-anchor="middle" x="423.12" y="-5.75" font-family="Helvetica,sans-Serif" font-size="10.00">cxxabi.h</text>
</a>
</g>
</g>
<!-- Node10&#45;&gt;Node17 -->
<g id="edge19_Node000010_Node000017" class="edge">
<title>Node10&#45;&gt;Node17</title>
<g id="a_edge19_Node000010_Node000017"><a xlink:title=" ">
<path fill="none" stroke="#63b8ff" d="M480.42,-54.84C470.35,-47.07 455.58,-35.67 443.56,-26.4"/>
<polygon fill="#63b8ff" stroke="#63b8ff" points="445.91,-23.79 435.86,-20.45 441.63,-29.33 445.91,-23.79"/>
</a>
</g>
</g>
<!-- Node18 -->
<g id="Node000018" class="node">
<title>Node18</title>
<g id="a_Node000018"><a xlink:title=" ">
<polygon fill="#e0e0e0" stroke="#999999" points="517.75,-19.25 466.5,-19.25 466.5,0 517.75,0 517.75,-19.25"/>
<text text-anchor="middle" x="492.12" y="-5.75" font-family="Helvetica,sans-Serif" font-size="10.00">sstream</text>
</a>
</g>
</g>
<!-- Node10&#45;&gt;Node18 -->
<g id="edge20_Node000010_Node000018" class="edge">
<title>Node10&#45;&gt;Node18</title>
<g id="a_edge20_Node000010_Node000018"><a xlink:title=" ">
<path fill="none" stroke="#63b8ff" d="M492.12,-55.08C492.12,-48.57 492.12,-39.42 492.12,-31.12"/>
<polygon fill="#63b8ff" stroke="#63b8ff" points="495.63,-31.12 492.13,-21.12 488.63,-31.12 495.63,-31.12"/>
</a>
</g>
</g>
<!-- Node19 -->
<g id="Node000019" class="node">
<title>Node19</title>
<g id="a_Node000019"><a xlink:title=" ">
<polygon fill="#e0e0e0" stroke="#999999" points="572.62,-19.25 535.62,-19.25 535.62,0 572.62,0 572.62,-19.25"/>
<text text-anchor="middle" x="554.12" y="-5.75" font-family="Helvetica,sans-Serif" font-size="10.00">array</text>
</a>
</g>
</g>
<!-- Node10&#45;&gt;Node19 -->
<g id="edge21_Node000010_Node000019" class="edge">
<title>Node10&#45;&gt;Node19</title>
<g id="a_edge21_Node000010_Node000019"><a xlink:title=" ">
<path fill="none" stroke="#63b8ff" d="M502.64,-54.84C511.51,-47.22 524.44,-36.12 535.11,-26.95"/>
<polygon fill="#63b8ff" stroke="#63b8ff" points="537.31,-29.68 542.61,-20.51 532.75,-24.37 537.31,-29.68"/>
</a>
</g>
</g>
<!-- Node20 -->
<g id="Node000020" class="node">
<title>Node20</title>
<g id="a_Node000020"><a xlink:title=" ">
<polygon fill="#e0e0e0" stroke="#999999" points="641.38,-19.25 590.88,-19.25 590.88,0 641.38,0 641.38,-19.25"/>
<text text-anchor="middle" x="616.12" y="-5.75" font-family="Helvetica,sans-Serif" font-size="10.00">memory</text>
</a>
</g>
</g>
<!-- Node10&#45;&gt;Node20 -->
<g id="edge22_Node000010_Node000020" class="edge">
<title>Node10&#45;&gt;Node20</title>
<g id="a_edge22_Node000010_Node000020"><a xlink:title=" ">
<path fill="none" stroke="#63b8ff" d="M513.16,-54.84C532.76,-46.43 562.23,-33.77 584.63,-24.15"/>
<polygon fill="#63b8ff" stroke="#63b8ff" points="585.79,-27.46 593.6,-20.3 583.03,-21.03 585.79,-27.46"/>
</a>
</g>
</g>
<!-- Node21 -->
<g id="Node000021" class="node">
<title>Node21</title>
<g id="a_Node000021"><a xlink:title=" ">
<polygon fill="#e0e0e0" stroke="#999999" points="709,-19.25 659.25,-19.25 659.25,0 709,0 709,-19.25"/>
<text text-anchor="middle" x="684.12" y="-5.75" font-family="Helvetica,sans-Serif" font-size="10.00">unistd.h</text>
</a>
</g>
</g>
<!-- Node10&#45;&gt;Node21 -->
<g id="edge23_Node000010_Node000021" class="edge">
<title>Node10&#45;&gt;Node21</title>
<g id="a_edge23_Node000010_Node000021"><a xlink:title=" ">
<path fill="none" stroke="#63b8ff" d="M520.87,-55.9C554.81,-46.49 611.29,-30.83 648.11,-20.61"/>
<polygon fill="#63b8ff" stroke="#63b8ff" points="648.71,-24.08 657.41,-18.04 646.84,-17.33 648.71,-24.08"/>
</a>
</g>
</g>
<!-- Node22 -->
<g id="Node000022" class="node">
<title>Node22</title>
<g id="a_Node000022"><a xlink:title=" ">
<polygon fill="#e0e0e0" stroke="#999999" points="786.88,-19.25 727.38,-19.25 727.38,0 786.88,0 786.88,-19.25"/>
<text text-anchor="middle" x="757.12" y="-5.75" font-family="Helvetica,sans-Serif" font-size="10.00">sys/wait.h</text>
</a>
</g>
</g>
<!-- Node10&#45;&gt;Node22 -->
<g id="edge24_Node000010_Node000022" class="edge">
<title>Node10&#45;&gt;Node22</title>
<g id="a_edge24_Node000010_Node000022"><a xlink:title=" ">
<path fill="none" stroke="#63b8ff" d="M520.78,-57.07C523.6,-56.44 526.41,-55.82 529.12,-55.25 609.35,-38.27 632.49,-36.6 715.87,-19.66"/>
<polygon fill="#63b8ff" stroke="#63b8ff" points="716.33,-23.14 725.43,-17.7 714.93,-16.28 716.33,-23.14"/>
</a>
</g>
</g>
<!-- Node23 -->
<g id="Node000023" class="node">
<title>Node23</title>
<g id="a_Node000023"><a xlink:title=" ">
<polygon fill="#e0e0e0" stroke="#999999" points="865.25,-19.25 805,-19.25 805,0 865.25,0 865.25,-19.25"/>
<text text-anchor="middle" x="835.12" y="-5.75" font-family="Helvetica,sans-Serif" font-size="10.00">sys/prctl.h</text>
</a>
</g>
</g>
<!-- Node10&#45;&gt;Node23 -->
<g id="edge25_Node000010_Node000023" class="edge">
<title>Node10&#45;&gt;Node23</title>
<g id="a_edge25_Node000010_Node000023"><a xlink:title=" ">
<path fill="none" stroke="#63b8ff" d="M520.75,-56.92C523.57,-56.32 526.4,-55.75 529.12,-55.25 643.33,-34.29 676.25,-39.82 793.3,-19.62"/>
<polygon fill="#63b8ff" stroke="#63b8ff" points="793.78,-23.09 803.03,-17.91 792.57,-16.19 793.78,-23.09"/>
</a>
</g>
</g>
<!-- Node26&#45;&gt;Node4 -->
<g id="edge29_Node000026_Node000004" class="edge">
<title>Node26&#45;&gt;Node4</title>
<g id="a_edge29_Node000026_Node000004"><a xlink:title=" ">
<path fill="none" stroke="#63b8ff" d="M844.68,-168.16C885.72,-158.18 966.11,-138.64 1009.2,-128.16"/>
<polygon fill="#63b8ff" stroke="#63b8ff" points="1009.94,-131.58 1018.83,-125.82 1008.29,-124.78 1009.94,-131.58"/>
</a>
</g>
</g>
<!-- Node26&#45;&gt;Node8 -->
<g id="edge31_Node000026_Node000008" class="edge">
<title>Node26&#45;&gt;Node8</title>
<g id="a_edge31_Node000026_Node000008"><a xlink:title=" ">
<path fill="none" stroke="#63b8ff" d="M834.26,-165.34C847.6,-156.99 867.18,-143.79 882.12,-129.75 916.17,-97.76 948.74,-53.5 965.8,-28.93"/>
<polygon fill="#63b8ff" stroke="#63b8ff" points="968.51,-31.17 971.27,-20.94 962.73,-27.22 968.51,-31.17"/>
</a>
</g>
</g>
<!-- Node26&#45;&gt;Node9 -->
<g id="edge32_Node000026_Node000009" class="edge">
<title>Node26&#45;&gt;Node9</title>
<g id="a_edge32_Node000026_Node000009"><a xlink:title=" ">
<path fill="none" stroke="#63b8ff" d="M831.12,-165.37C841.28,-157.14 855.54,-144.1 864.12,-129.75 872.23,-116.21 877.09,-98.96 879.87,-85.81"/>
<polygon fill="#63b8ff" stroke="#63b8ff" points="883.27,-86.66 881.65,-76.18 876.39,-85.38 883.27,-86.66"/>
</a>
</g>
</g>
<!-- Node26&#45;&gt;Node10 -->
<g id="edge34_Node000026_Node000010" class="edge">
<title>Node26&#45;&gt;Node10</title>
<g id="a_edge34_Node000026_Node000010"><a xlink:title=" ">
<path fill="none" stroke="#63b8ff" d="M793.6,-170.04C756.84,-163.42 687.17,-149.46 630.12,-129.75 590.03,-115.9 545.91,-94.27 518.6,-80.09"/>
<polygon fill="#63b8ff" stroke="#63b8ff" points="520.49,-77.12 510.01,-75.57 517.23,-83.32 520.49,-77.12"/>
</a>
</g>
</g>
<!-- Node27 -->
<g id="Node000027" class="node">
<title>Node27</title>
<g id="a_Node000027"><a xlink:title=" ">
<polygon fill="#e0e0e0" stroke="#999999" points="765.38,-129.75 726.88,-129.75 726.88,-110.5 765.38,-110.5 765.38,-129.75"/>
<text text-anchor="middle" x="746.12" y="-116.25" font-family="Helvetica,sans-Serif" font-size="10.00">utility</text>
</a>
</g>
</g>
<!-- Node26&#45;&gt;Node27 -->
<g id="edge30_Node000026_Node000027" class="edge">
<title>Node26&#45;&gt;Node27</title>
<g id="a_edge30_Node000026_Node000027"><a xlink:title=" ">
<path fill="none" stroke="#63b8ff" d="M806.74,-165.34C795.98,-157.49 780.15,-145.95 767.37,-136.62"/>
<polygon fill="#63b8ff" stroke="#63b8ff" points="769.69,-133.98 759.55,-130.92 765.56,-139.64 769.69,-133.98"/>
</a>
</g>
</g>
<!-- Node28 -->
<g id="Node000028" class="node">
<title>Node28</title>
<g id="a_Node000028"><a xlink:title=" ">
<polygon fill="#e0e0e0" stroke="#999999" points="855.25,-129.75 783,-129.75 783,-110.5 855.25,-110.5 855.25,-129.75"/>
<text text-anchor="middle" x="819.12" y="-116.25" font-family="Helvetica,sans-Serif" font-size="10.00">TCollection.h</text>
</a>
</g>
</g>
<!-- Node26&#45;&gt;Node28 -->
<g id="edge33_Node000026_Node000028" class="edge">
<title>Node26&#45;&gt;Node28</title>
<g id="a_edge33_Node000026_Node000028"><a xlink:title=" ">
<path fill="none" stroke="#63b8ff" d="M819.12,-165.58C819.12,-159.07 819.12,-149.92 819.12,-141.62"/>
<polygon fill="#63b8ff" stroke="#63b8ff" points="822.63,-141.62 819.13,-131.62 815.63,-141.62 822.63,-141.62"/>
</a>
</g>
</g>
<!-- Node29 -->
<g id="Node000029" class="node">
<title>Node29</title>
<g id="a_Node000029"><a xlink:href="_t_singleton_8h.html" target="_top" xlink:title=" ">
<polygon fill="white" stroke="#666666" points="709.12,-129.75 639.12,-129.75 639.12,-110.5 709.12,-110.5 709.12,-129.75"/>
<text text-anchor="middle" x="674.12" y="-116.25" font-family="Helvetica,sans-Serif" font-size="10.00">TSingleton.h</text>
</a>
</g>
</g>
<!-- Node26&#45;&gt;Node29 -->
<g id="edge35_Node000026_Node000029" class="edge">
<title>Node26&#45;&gt;Node29</title>
<g id="a_edge35_Node000026_Node000029"><a xlink:title=" ">
<path fill="none" stroke="#63b8ff" d="M794.53,-165.34C771.2,-156.77 735.89,-143.81 709.53,-134.13"/>
<polygon fill="#63b8ff" stroke="#63b8ff" points="710.86,-130.89 700.26,-130.72 708.44,-137.46 710.86,-130.89"/>
</a>
</g>
</g>
<!-- Node29&#45;&gt;Node8 -->
<g id="edge36_Node000029_Node000008" class="edge">
<title>Node29&#45;&gt;Node8</title>
<g id="a_edge36_Node000029_Node000008"><a xlink:title=" ">
<path fill="none" stroke="#63b8ff" d="M705.5,-110.01C732.76,-101.76 773.09,-88.74 807.12,-74.5 824.59,-67.19 827.66,-62.56 845.12,-55.25 876.48,-42.13 913.18,-30.05 940.07,-21.78"/>
<polygon fill="#63b8ff" stroke="#63b8ff" points="940.95,-25.17 949.51,-18.91 938.92,-18.47 940.95,-25.17"/>
</a>
</g>
</g>
<!-- Node29&#45;&gt;Node9 -->
<g id="edge37_Node000029_Node000009" class="edge">
<title>Node29&#45;&gt;Node9</title>
<g id="a_edge37_Node000029_Node000009"><a xlink:title=" ">
<path fill="none" stroke="#63b8ff" d="M709.58,-110.09C746.57,-100.67 804.46,-85.92 843.08,-76.08"/>
<polygon fill="#63b8ff" stroke="#63b8ff" points="843.62,-79.55 852.45,-73.69 841.89,-72.77 843.62,-79.55"/>
</a>
</g>
</g>
<!-- Node29&#45;&gt;Node10 -->
<g id="edge42_Node000029_Node000010" class="edge">
<title>Node29&#45;&gt;Node10</title>
<g id="a_edge42_Node000029_Node000010"><a xlink:title=" ">
<path fill="none" stroke="#63b8ff" d="M643.25,-110.09C612.45,-101.08 565.03,-87.2 531.53,-77.4"/>
<polygon fill="#63b8ff" stroke="#63b8ff" points="532.78,-74.12 522.2,-74.67 530.81,-80.84 532.78,-74.12"/>
</a>
</g>
</g>
<!-- Node30 -->
<g id="Node000030" class="node">
<title>Node30</title>
<g id="a_Node000030"><a xlink:title=" ">
<polygon fill="#e0e0e0" stroke="#999999" points="606,-74.5 538.25,-74.5 538.25,-55.25 606,-55.25 606,-74.5"/>
<text text-anchor="middle" x="572.12" y="-61" font-family="Helvetica,sans-Serif" font-size="10.00">TDirectory.h</text>
</a>
</g>
</g>
<!-- Node29&#45;&gt;Node30 -->
<g id="edge38_Node000029_Node000030" class="edge">
<title>Node29&#45;&gt;Node30</title>
<g id="a_edge38_Node000029_Node000030"><a xlink:title=" ">
<path fill="none" stroke="#63b8ff" d="M656.82,-110.09C641.14,-101.91 617.77,-89.71 599.55,-80.19"/>
<polygon fill="#63b8ff" stroke="#63b8ff" points="601.34,-77.18 590.85,-75.65 598.1,-83.38 601.34,-77.18"/>
</a>
</g>
</g>
<!-- Node31 -->
<g id="Node000031" class="node">
<title>Node31</title>
<g id="a_Node000031"><a xlink:title=" ">
<polygon fill="#e0e0e0" stroke="#999999" points="669.75,-74.5 624.5,-74.5 624.5,-55.25 669.75,-55.25 669.75,-74.5"/>
<text text-anchor="middle" x="647.12" y="-61" font-family="Helvetica,sans-Serif" font-size="10.00">TFile.h</text>
</a>
</g>
</g>
<!-- Node29&#45;&gt;Node31 -->
<g id="edge39_Node000029_Node000031" class="edge">
<title>Node29&#45;&gt;Node31</title>
<g id="a_edge39_Node000029_Node000031"><a xlink:title=" ">
<path fill="none" stroke="#63b8ff" d="M669.67,-110.33C666.17,-103.44 661.18,-93.59 656.78,-84.91"/>
<polygon fill="#63b8ff" stroke="#63b8ff" points="660.01,-83.55 652.36,-76.21 653.77,-86.71 660.01,-83.55"/>
</a>
</g>
</g>
<!-- Node32 -->
<g id="Node000032" class="node">
<title>Node32</title>
<g id="a_Node000032"><a xlink:title=" ">
<polygon fill="#e0e0e0" stroke="#999999" points="734.12,-74.5 688.12,-74.5 688.12,-55.25 734.12,-55.25 734.12,-74.5"/>
<text text-anchor="middle" x="711.12" y="-61" font-family="Helvetica,sans-Serif" font-size="10.00">TList.h</text>
</a>
</g>
</g>
<!-- Node29&#45;&gt;Node32 -->
<g id="edge40_Node000029_Node000032" class="edge">
<title>Node29&#45;&gt;Node32</title>
<g id="a_edge40_Node000029_Node000032"><a xlink:title=" ">
<path fill="none" stroke="#63b8ff" d="M680.23,-110.33C685.19,-103.21 692.33,-92.93 698.5,-84.05"/>
<polygon fill="#63b8ff" stroke="#63b8ff" points="701.19,-86.31 704.02,-76.1 695.44,-82.32 701.19,-86.31"/>
</a>
</g>
</g>
<!-- Node33 -->
<g id="Node000033" class="node">
<title>Node33</title>
<g id="a_Node000033"><a xlink:title=" ">
<polygon fill="#e0e0e0" stroke="#999999" points="798.12,-74.5 752.12,-74.5 752.12,-55.25 798.12,-55.25 798.12,-74.5"/>
<text text-anchor="middle" x="775.12" y="-61" font-family="Helvetica,sans-Serif" font-size="10.00">TKey.h</text>
</a>
</g>
</g>
<!-- Node29&#45;&gt;Node33 -->
<g id="edge41_Node000029_Node000033" class="edge">
<title>Node29&#45;&gt;Node33</title>
<g id="a_edge41_Node000029_Node000033"><a xlink:title=" ">
<path fill="none" stroke="#63b8ff" d="M691.26,-110.09C706.78,-101.91 729.93,-89.71 747.97,-80.19"/>
<polygon fill="#63b8ff" stroke="#63b8ff" points="749.36,-83.42 756.57,-75.66 746.09,-77.23 749.36,-83.42"/>
</a>
</g>
</g>
</g>
</svg>
