<?xml version="1.0" encoding="UTF-8" standalone="no"?>
<!DOCTYPE svg PUBLIC "-//W3C//DTD SVG 1.1//EN"
 "http://www.w3.org/Graphics/SVG/1.1/DTD/svg11.dtd">
<!-- Generated by graphviz version 12.2.0 (20241103.1931)
 -->
<!-- Title: TSinglePeak.cxx Pages: 1 -->
<svg width="949pt" height="248pt"
 viewBox="0.00 0.00 948.88 248.25" xmlns="http://www.w3.org/2000/svg" xmlns:xlink="http://www.w3.org/1999/xlink">
<g id="graph0" class="graph" transform="scale(1 1) rotate(0) translate(4 244.25)">
<title>TSinglePeak.cxx</title>
<!-- Node1 -->
<g id="Node000001" class="node">
<title>Node1</title>
<g id="a_Node000001"><a xlink:title=" ">
<polygon fill="#999999" stroke="#666666" points="546.75,-240.25 458.75,-240.25 458.75,-221 546.75,-221 546.75,-240.25"/>
<text text-anchor="middle" x="502.75" y="-226.75" font-family="Helvetica,sans-Serif" font-size="10.00">TSinglePeak.cxx</text>
</a>
</g>
</g>
<!-- Node2 -->
<g id="Node000002" class="node">
<title>Node2</title>
<g id="a_Node000002"><a xlink:href="_t_single_peak_8h.html" target="_top" xlink:title=" ">
<polygon fill="white" stroke="#666666" points="500.25,-185 421.25,-185 421.25,-165.75 500.25,-165.75 500.25,-185"/>
<text text-anchor="middle" x="460.75" y="-171.5" font-family="Helvetica,sans-Serif" font-size="10.00">TSinglePeak.h</text>
</a>
</g>
</g>
<!-- Node1&#45;&gt;Node2 -->
<g id="edge1_Node000001_Node000002" class="edge">
<title>Node1&#45;&gt;Node2</title>
<g id="a_edge1_Node000001_Node000002"><a xlink:title=" ">
<path fill="none" stroke="#63b8ff" d="M495.81,-220.83C490.13,-213.63 481.91,-203.21 474.86,-194.26"/>
<polygon fill="#63b8ff" stroke="#63b8ff" points="477.71,-192.23 468.77,-186.55 472.22,-196.57 477.71,-192.23"/>
</a>
</g>
</g>
<!-- Node25 -->
<g id="Node000025" class="node">
<title>Node25</title>
<g id="a_Node000025"><a xlink:title=" ">
<polygon fill="#e0e0e0" stroke="#999999" points="572.88,-185 518.62,-185 518.62,-165.75 572.88,-165.75 572.88,-185"/>
<text text-anchor="middle" x="545.75" y="-171.5" font-family="Helvetica,sans-Serif" font-size="10.00">TClass.h</text>
</a>
</g>
</g>
<!-- Node1&#45;&gt;Node25 -->
<g id="edge28_Node000001_Node000025" class="edge">
<title>Node1&#45;&gt;Node25</title>
<g id="a_edge28_Node000001_Node000025"><a xlink:title=" ">
<path fill="none" stroke="#63b8ff" d="M509.85,-220.83C515.67,-213.63 524.08,-203.21 531.31,-194.26"/>
<polygon fill="#63b8ff" stroke="#63b8ff" points="533.98,-196.52 537.54,-186.54 528.54,-192.12 533.98,-196.52"/>
</a>
</g>
</g>
<!-- Node3 -->
<g id="Node000003" class="node">
<title>Node3</title>
<g id="a_Node000003"><a xlink:title=" ">
<polygon fill="#e0e0e0" stroke="#999999" points="329.25,-129.75 286.25,-129.75 286.25,-110.5 329.25,-110.5 329.25,-129.75"/>
<text text-anchor="middle" x="307.75" y="-116.25" font-family="Helvetica,sans-Serif" font-size="10.00">vector</text>
</a>
</g>
</g>
<!-- Node2&#45;&gt;Node3 -->
<g id="edge2_Node000002_Node000003" class="edge">
<title>Node2&#45;&gt;Node3</title>
<g id="a_edge2_Node000002_Node000003"><a xlink:title=" ">
<path fill="none" stroke="#63b8ff" d="M434.8,-165.34C408.6,-156.23 368.1,-142.13 339.89,-132.31"/>
<polygon fill="#63b8ff" stroke="#63b8ff" points="341.4,-129.13 330.8,-129.15 339.1,-135.74 341.4,-129.13"/>
</a>
</g>
</g>
<!-- Node4 -->
<g id="Node000004" class="node">
<title>Node4</title>
<g id="a_Node000004"><a xlink:title=" ">
<polygon fill="#e0e0e0" stroke="#999999" points="355.88,-74.5 307.62,-74.5 307.62,-55.25 355.88,-55.25 355.88,-74.5"/>
<text text-anchor="middle" x="331.75" y="-61" font-family="Helvetica,sans-Serif" font-size="10.00">cstdarg</text>
</a>
</g>
</g>
<!-- Node2&#45;&gt;Node4 -->
<g id="edge3_Node000002_Node000004" class="edge">
<title>Node2&#45;&gt;Node4</title>
<g id="a_edge3_Node000002_Node000004"><a xlink:title=" ">
<path fill="none" stroke="#63b8ff" d="M448.29,-165.47C436.17,-156.68 417.35,-142.72 401.75,-129.75 383.28,-114.39 363.11,-95.77 349.18,-82.61"/>
<polygon fill="#63b8ff" stroke="#63b8ff" points="351.77,-80.24 342.11,-75.88 346.94,-85.31 351.77,-80.24"/>
</a>
</g>
</g>
<!-- Node5 -->
<g id="Node000005" class="node">
<title>Node5</title>
<g id="a_Node000005"><a xlink:title=" ">
<polygon fill="#e0e0e0" stroke="#999999" points="611.75,-129.75 553.75,-129.75 553.75,-110.5 611.75,-110.5 611.75,-129.75"/>
<text text-anchor="middle" x="582.75" y="-116.25" font-family="Helvetica,sans-Serif" font-size="10.00">TObject.h</text>
</a>
</g>
</g>
<!-- Node2&#45;&gt;Node5 -->
<g id="edge4_Node000002_Node000005" class="edge">
<title>Node2&#45;&gt;Node5</title>
<g id="a_edge4_Node000002_Node000005"><a xlink:title=" ">
<path fill="none" stroke="#63b8ff" d="M481.45,-165.34C500.64,-156.97 529.46,-144.38 551.47,-134.78"/>
<polygon fill="#63b8ff" stroke="#63b8ff" points="552.8,-138.02 560.57,-130.81 550,-131.6 552.8,-138.02"/>
</a>
</g>
</g>
<!-- Node6 -->
<g id="Node000006" class="node">
<title>Node6</title>
<g id="a_Node000006"><a xlink:title=" ">
<polygon fill="#e0e0e0" stroke="#999999" points="415.12,-74.5 374.38,-74.5 374.38,-55.25 415.12,-55.25 415.12,-74.5"/>
<text text-anchor="middle" x="394.75" y="-61" font-family="Helvetica,sans-Serif" font-size="10.00">TF1.h</text>
</a>
</g>
</g>
<!-- Node2&#45;&gt;Node6 -->
<g id="edge5_Node000002_Node000006" class="edge">
<title>Node2&#45;&gt;Node6</title>
<g id="a_edge5_Node000002_Node000006"><a xlink:title=" ">
<path fill="none" stroke="#63b8ff" d="M448.53,-165.39C438.17,-157.18 423.62,-144.15 414.75,-129.75 406.44,-116.25 401.31,-99 398.32,-85.83"/>
<polygon fill="#63b8ff" stroke="#63b8ff" points="401.79,-85.31 396.39,-76.2 394.93,-86.69 401.79,-85.31"/>
</a>
</g>
</g>
<!-- Node7 -->
<g id="Node000007" class="node">
<title>Node7</title>
<g id="a_Node000007"><a xlink:title=" ">
<polygon fill="#e0e0e0" stroke="#999999" points="663.62,-74.5 607.88,-74.5 607.88,-55.25 663.62,-55.25 663.62,-74.5"/>
<text text-anchor="middle" x="635.75" y="-61" font-family="Helvetica,sans-Serif" font-size="10.00">TGraph.h</text>
</a>
</g>
</g>
<!-- Node2&#45;&gt;Node7 -->
<g id="edge6_Node000002_Node000007" class="edge">
<title>Node2&#45;&gt;Node7</title>
<g id="a_edge6_Node000002_Node000007"><a xlink:title=" ">
<path fill="none" stroke="#63b8ff" d="M471.14,-165.41C486.56,-152.36 516.69,-127.82 544.75,-110.5 563.72,-98.79 586.2,-87.74 604.08,-79.56"/>
<polygon fill="#63b8ff" stroke="#63b8ff" points="605.47,-82.78 613.16,-75.49 602.6,-76.39 605.47,-82.78"/>
</a>
</g>
</g>
<!-- Node8 -->
<g id="Node000008" class="node">
<title>Node8</title>
<g id="a_Node000008"><a xlink:href="_t_peak_fitter_8h.html" target="_top" xlink:title=" ">
<polygon fill="white" stroke="#666666" points="498,-129.75 423.5,-129.75 423.5,-110.5 498,-110.5 498,-129.75"/>
<text text-anchor="middle" x="460.75" y="-116.25" font-family="Helvetica,sans-Serif" font-size="10.00">TPeakFitter.h</text>
</a>
</g>
</g>
<!-- Node2&#45;&gt;Node8 -->
<g id="edge7_Node000002_Node000008" class="edge">
<title>Node2&#45;&gt;Node8</title>
<g id="a_edge7_Node000002_Node000008"><a xlink:title=" ">
<path fill="none" stroke="#63b8ff" d="M455.58,-165.58C454.17,-158.99 453.71,-149.71 454.18,-141.32"/>
<polygon fill="#63b8ff" stroke="#63b8ff" points="457.63,-141.96 455.36,-131.61 450.68,-141.12 457.63,-141.96"/>
</a>
</g>
</g>
<!-- Node8&#45;&gt;Node2 -->
<g id="edge27_Node000008_Node000002" class="edge">
<title>Node8&#45;&gt;Node2</title>
<g id="a_edge27_Node000008_Node000002"><a xlink:title=" ">
<path fill="none" stroke="#63b8ff" d="M465.96,-130.11C467.35,-136.75 467.8,-146.05 467.31,-154.42"/>
<polygon fill="#63b8ff" stroke="#63b8ff" points="463.87,-153.72 466.1,-164.08 470.81,-154.59 463.87,-153.72"/>
</a>
</g>
</g>
<!-- Node8&#45;&gt;Node4 -->
<g id="edge8_Node000008_Node000004" class="edge">
<title>Node8&#45;&gt;Node4</title>
<g id="a_edge8_Node000008_Node000004"><a xlink:title=" ">
<path fill="none" stroke="#63b8ff" d="M438.87,-110.09C418.39,-101.64 387.54,-88.9 364.19,-79.27"/>
<polygon fill="#63b8ff" stroke="#63b8ff" points="365.72,-76.11 355.14,-75.53 363.05,-82.58 365.72,-76.11"/>
</a>
</g>
</g>
<!-- Node8&#45;&gt;Node6 -->
<g id="edge9_Node000008_Node000006" class="edge">
<title>Node8&#45;&gt;Node6</title>
<g id="a_edge9_Node000008_Node000006"><a xlink:title=" ">
<path fill="none" stroke="#63b8ff" d="M449.55,-110.09C440.01,-102.4 426.08,-91.15 414.64,-81.93"/>
<polygon fill="#63b8ff" stroke="#63b8ff" points="416.94,-79.28 406.96,-75.73 412.54,-84.73 416.94,-79.28"/>
</a>
</g>
</g>
<!-- Node8&#45;&gt;Node7 -->
<g id="edge11_Node000008_Node000007" class="edge">
<title>Node8&#45;&gt;Node7</title>
<g id="a_edge11_Node000008_Node000007"><a xlink:title=" ">
<path fill="none" stroke="#63b8ff" d="M490.44,-110.09C519.75,-101.17 564.72,-87.49 596.87,-77.71"/>
<polygon fill="#63b8ff" stroke="#63b8ff" points="597.66,-81.12 606.21,-74.86 595.62,-74.43 597.66,-81.12"/>
</a>
</g>
</g>
<!-- Node9 -->
<g id="Node000009" class="node">
<title>Node9</title>
<g id="a_Node000009"><a xlink:title=" ">
<polygon fill="#e0e0e0" stroke="#999999" points="589.38,-74.5 508.12,-74.5 508.12,-55.25 589.38,-55.25 589.38,-74.5"/>
<text text-anchor="middle" x="548.75" y="-61" font-family="Helvetica,sans-Serif" font-size="10.00">TFitResultPtr.h</text>
</a>
</g>
</g>
<!-- Node8&#45;&gt;Node9 -->
<g id="edge10_Node000008_Node000009" class="edge">
<title>Node8&#45;&gt;Node9</title>
<g id="a_edge10_Node000008_Node000009"><a xlink:title=" ">
<path fill="none" stroke="#63b8ff" d="M475.68,-110.09C488.95,-102.06 508.62,-90.16 524.2,-80.73"/>
<polygon fill="#63b8ff" stroke="#63b8ff" points="525.71,-83.91 532.45,-75.74 522.09,-77.92 525.71,-83.91"/>
</a>
</g>
</g>
<!-- Node10 -->
<g id="Node000010" class="node">
<title>Node10</title>
<g id="a_Node000010"><a xlink:href="_globals_8h.html" target="_top" xlink:title=" ">
<polygon fill="white" stroke="#666666" points="490,-74.5 433.5,-74.5 433.5,-55.25 490,-55.25 490,-74.5"/>
<text text-anchor="middle" x="461.75" y="-61" font-family="Helvetica,sans-Serif" font-size="10.00">Globals.h</text>
</a>
</g>
</g>
<!-- Node8&#45;&gt;Node10 -->
<g id="edge12_Node000008_Node000010" class="edge">
<title>Node8&#45;&gt;Node10</title>
<g id="a_edge12_Node000008_Node000010"><a xlink:title=" ">
<path fill="none" stroke="#63b8ff" d="M460.92,-110.33C461.04,-103.82 461.21,-94.67 461.37,-86.37"/>
<polygon fill="#63b8ff" stroke="#63b8ff" points="464.86,-86.44 461.55,-76.37 457.87,-86.3 464.86,-86.44"/>
</a>
</g>
</g>
<!-- Node11 -->
<g id="Node000011" class="node">
<title>Node11</title>
<g id="a_Node000011"><a xlink:title=" ">
<polygon fill="#e0e0e0" stroke="#999999" points="53.5,-19.25 0,-19.25 0,0 53.5,0 53.5,-19.25"/>
<text text-anchor="middle" x="26.75" y="-5.75" font-family="Helvetica,sans-Serif" font-size="10.00">iostream</text>
</a>
</g>
</g>
<!-- Node10&#45;&gt;Node11 -->
<g id="edge13_Node000010_Node000011" class="edge">
<title>Node10&#45;&gt;Node11</title>
<g id="a_edge13_Node000010_Node000011"><a xlink:title=" ">
<path fill="none" stroke="#63b8ff" d="M433.19,-56.99C430.02,-56.35 426.82,-55.75 423.75,-55.25 268.18,-29.94 223.72,-45.37 64.93,-19.38"/>
<polygon fill="#63b8ff" stroke="#63b8ff" points="65.73,-15.96 55.29,-17.77 64.58,-22.87 65.73,-15.96"/>
</a>
</g>
</g>
<!-- Node12 -->
<g id="Node000012" class="node">
<title>Node12</title>
<g id="a_Node000012"><a xlink:title=" ">
<polygon fill="#e0e0e0" stroke="#999999" points="121.62,-19.25 71.88,-19.25 71.88,0 121.62,0 121.62,-19.25"/>
<text text-anchor="middle" x="96.75" y="-5.75" font-family="Helvetica,sans-Serif" font-size="10.00">iomanip</text>
</a>
</g>
</g>
<!-- Node10&#45;&gt;Node12 -->
<g id="edge14_Node000010_Node000012" class="edge">
<title>Node10&#45;&gt;Node12</title>
<g id="a_edge14_Node000010_Node000012"><a xlink:title=" ">
<path fill="none" stroke="#63b8ff" d="M433.18,-57.07C430.01,-56.41 426.82,-55.78 423.75,-55.25 298.03,-33.32 261.68,-42.87 133,-19.44"/>
<polygon fill="#63b8ff" stroke="#63b8ff" points="133.88,-16.05 123.41,-17.66 132.6,-22.93 133.88,-16.05"/>
</a>
</g>
</g>
<!-- Node13 -->
<g id="Node000013" class="node">
<title>Node13</title>
<g id="a_Node000013"><a xlink:title=" ">
<polygon fill="#e0e0e0" stroke="#999999" points="197.75,-19.25 139.75,-19.25 139.75,0 197.75,0 197.75,-19.25"/>
<text text-anchor="middle" x="168.75" y="-5.75" font-family="Helvetica,sans-Serif" font-size="10.00">stdexcept</text>
</a>
</g>
</g>
<!-- Node10&#45;&gt;Node13 -->
<g id="edge15_Node000010_Node000013" class="edge">
<title>Node10&#45;&gt;Node13</title>
<g id="a_edge15_Node000010_Node000013"><a xlink:title=" ">
<path fill="none" stroke="#63b8ff" d="M433.15,-57.2C429.99,-56.51 426.8,-55.85 423.75,-55.25 331.28,-37.1 304.59,-37.98 209.2,-19.63"/>
<polygon fill="#63b8ff" stroke="#63b8ff" points="210.14,-16.25 199.66,-17.77 208.8,-23.12 210.14,-16.25"/>
</a>
</g>
</g>
<!-- Node14 -->
<g id="Node000014" class="node">
<title>Node14</title>
<g id="a_Node000014"><a xlink:title=" ">
<polygon fill="#e0e0e0" stroke="#999999" points="255.75,-19.25 215.75,-19.25 215.75,0 255.75,0 255.75,-19.25"/>
<text text-anchor="middle" x="235.75" y="-5.75" font-family="Helvetica,sans-Serif" font-size="10.00">string</text>
</a>
</g>
</g>
<!-- Node10&#45;&gt;Node14 -->
<g id="edge16_Node000010_Node000014" class="edge">
<title>Node10&#45;&gt;Node14</title>
<g id="a_edge16_Node000010_Node000014"><a xlink:title=" ">
<path fill="none" stroke="#63b8ff" d="M433.12,-57.37C429.96,-56.66 426.78,-55.94 423.75,-55.25 356.54,-40.01 336.75,-37.78 267.12,-19.74"/>
<polygon fill="#63b8ff" stroke="#63b8ff" points="268.01,-16.35 257.45,-17.21 266.24,-23.13 268.01,-16.35"/>
</a>
</g>
</g>
<!-- Node15 -->
<g id="Node000015" class="node">
<title>Node15</title>
<g id="a_Node000015"><a xlink:title=" ">
<polygon fill="#e0e0e0" stroke="#999999" points="315.88,-19.25 273.62,-19.25 273.62,0 315.88,0 315.88,-19.25"/>
<text text-anchor="middle" x="294.75" y="-5.75" font-family="Helvetica,sans-Serif" font-size="10.00">cstdio</text>
</a>
</g>
</g>
<!-- Node10&#45;&gt;Node15 -->
<g id="edge17_Node000010_Node000015" class="edge">
<title>Node10&#45;&gt;Node15</title>
<g id="a_edge17_Node000010_Node000015"><a xlink:title=" ">
<path fill="none" stroke="#63b8ff" d="M433.42,-54.84C403.92,-45.43 357.77,-30.72 326.92,-20.88"/>
<polygon fill="#63b8ff" stroke="#63b8ff" points="328.33,-17.66 317.74,-17.96 326.21,-24.33 328.33,-17.66"/>
</a>
</g>
</g>
<!-- Node16 -->
<g id="Node000016" class="node">
<title>Node16</title>
<g id="a_Node000016"><a xlink:title=" ">
<polygon fill="#e0e0e0" stroke="#999999" points="378,-19.25 333.5,-19.25 333.5,0 378,0 378,-19.25"/>
<text text-anchor="middle" x="355.75" y="-5.75" font-family="Helvetica,sans-Serif" font-size="10.00">cstdlib</text>
</a>
</g>
</g>
<!-- Node10&#45;&gt;Node16 -->
<g id="edge18_Node000010_Node000016" class="edge">
<title>Node10&#45;&gt;Node16</title>
<g id="a_edge18_Node000010_Node000016"><a xlink:title=" ">
<path fill="none" stroke="#63b8ff" d="M443.77,-54.84C427.4,-46.62 402.96,-34.34 383.99,-24.81"/>
<polygon fill="#63b8ff" stroke="#63b8ff" points="385.68,-21.74 375.17,-20.38 382.54,-28 385.68,-21.74"/>
</a>
</g>
</g>
<!-- Node17 -->
<g id="Node000017" class="node">
<title>Node17</title>
<g id="a_Node000017"><a xlink:title=" ">
<polygon fill="#e0e0e0" stroke="#999999" points="455.5,-19.25 396,-19.25 396,0 455.5,0 455.5,-19.25"/>
<text text-anchor="middle" x="425.75" y="-5.75" font-family="Helvetica,sans-Serif" font-size="10.00">execinfo.h</text>
</a>
</g>
</g>
<!-- Node10&#45;&gt;Node17 -->
<g id="edge19_Node000010_Node000017" class="edge">
<title>Node10&#45;&gt;Node17</title>
<g id="a_edge19_Node000010_Node000017"><a xlink:title=" ">
<path fill="none" stroke="#63b8ff" d="M455.81,-55.08C451.04,-48.03 444.19,-37.9 438.23,-29.08"/>
<polygon fill="#63b8ff" stroke="#63b8ff" points="441.17,-27.19 432.67,-20.86 435.37,-31.11 441.17,-27.19"/>
</a>
</g>
</g>
<!-- Node18 -->
<g id="Node000018" class="node">
<title>Node18</title>
<g id="a_Node000018"><a xlink:title=" ">
<polygon fill="#e0e0e0" stroke="#999999" points="524,-19.25 473.5,-19.25 473.5,0 524,0 524,-19.25"/>
<text text-anchor="middle" x="498.75" y="-5.75" font-family="Helvetica,sans-Serif" font-size="10.00">cxxabi.h</text>
</a>
</g>
</g>
<!-- Node10&#45;&gt;Node18 -->
<g id="edge20_Node000010_Node000018" class="edge">
<title>Node10&#45;&gt;Node18</title>
<g id="a_edge20_Node000010_Node000018"><a xlink:title=" ">
<path fill="none" stroke="#63b8ff" d="M467.86,-55.08C472.81,-47.96 479.95,-37.68 486.12,-28.8"/>
<polygon fill="#63b8ff" stroke="#63b8ff" points="488.81,-31.06 491.64,-20.85 483.06,-27.07 488.81,-31.06"/>
</a>
</g>
</g>
<!-- Node19 -->
<g id="Node000019" class="node">
<title>Node19</title>
<g id="a_Node000019"><a xlink:title=" ">
<polygon fill="#e0e0e0" stroke="#999999" points="593.38,-19.25 542.12,-19.25 542.12,0 593.38,0 593.38,-19.25"/>
<text text-anchor="middle" x="567.75" y="-5.75" font-family="Helvetica,sans-Serif" font-size="10.00">sstream</text>
</a>
</g>
</g>
<!-- Node10&#45;&gt;Node19 -->
<g id="edge21_Node000010_Node000019" class="edge">
<title>Node10&#45;&gt;Node19</title>
<g id="a_edge21_Node000010_Node000019"><a xlink:title=" ">
<path fill="none" stroke="#63b8ff" d="M479.73,-54.84C496.1,-46.62 520.54,-34.34 539.51,-24.81"/>
<polygon fill="#63b8ff" stroke="#63b8ff" points="540.96,-28 548.33,-20.38 537.82,-21.74 540.96,-28"/>
</a>
</g>
</g>
<!-- Node20 -->
<g id="Node000020" class="node">
<title>Node20</title>
<g id="a_Node000020"><a xlink:title=" ">
<polygon fill="#e0e0e0" stroke="#999999" points="648.25,-19.25 611.25,-19.25 611.25,0 648.25,0 648.25,-19.25"/>
<text text-anchor="middle" x="629.75" y="-5.75" font-family="Helvetica,sans-Serif" font-size="10.00">array</text>
</a>
</g>
</g>
<!-- Node10&#45;&gt;Node20 -->
<g id="edge22_Node000010_Node000020" class="edge">
<title>Node10&#45;&gt;Node20</title>
<g id="a_edge22_Node000010_Node000020"><a xlink:title=" ">
<path fill="none" stroke="#63b8ff" d="M490.38,-54.84C516.7,-46.52 557.09,-33.76 600.17,-20.07"/>
<polygon fill="#63b8ff" stroke="#63b8ff" points="600.96,-23.49 609.43,-17.12 598.84,-16.82 600.96,-23.49"/>
</a>
</g>
</g>
<!-- Node21 -->
<g id="Node000021" class="node">
<title>Node21</title>
<g id="a_Node000021"><a xlink:title=" ">
<polygon fill="#e0e0e0" stroke="#999999" points="717,-19.25 666.5,-19.25 666.5,0 717,0 717,-19.25"/>
<text text-anchor="middle" x="691.75" y="-5.75" font-family="Helvetica,sans-Serif" font-size="10.00">memory</text>
</a>
</g>
</g>
<!-- Node10&#45;&gt;Node21 -->
<g id="edge23_Node000010_Node000021" class="edge">
<title>Node10&#45;&gt;Node21</title>
<g id="a_edge23_Node000010_Node000021"><a xlink:title=" ">
<path fill="none" stroke="#63b8ff" d="M490.43,-57.17C493.24,-56.52 496.05,-55.87 498.75,-55.25 565.92,-39.82 585.42,-36.47 655.02,-19.86"/>
<polygon fill="#63b8ff" stroke="#63b8ff" points="655.77,-23.28 664.68,-17.55 654.14,-16.47 655.77,-23.28"/>
</a>
</g>
</g>
<!-- Node22 -->
<g id="Node000022" class="node">
<title>Node22</title>
<g id="a_Node000022"><a xlink:title=" ">
<polygon fill="#e0e0e0" stroke="#999999" points="784.62,-19.25 734.88,-19.25 734.88,0 784.62,0 784.62,-19.25"/>
<text text-anchor="middle" x="759.75" y="-5.75" font-family="Helvetica,sans-Serif" font-size="10.00">unistd.h</text>
</a>
</g>
</g>
<!-- Node10&#45;&gt;Node22 -->
<g id="edge24_Node000010_Node000022" class="edge">
<title>Node10&#45;&gt;Node22</title>
<g id="a_edge24_Node000010_Node000022"><a xlink:title=" ">
<path fill="none" stroke="#63b8ff" d="M490.39,-56.99C493.21,-56.37 496.03,-55.78 498.75,-55.25 595.48,-36.33 623.73,-39.57 723.37,-19.57"/>
<polygon fill="#63b8ff" stroke="#63b8ff" points="723.98,-23.02 733.08,-17.59 722.58,-16.16 723.98,-23.02"/>
</a>
</g>
</g>
<!-- Node23 -->
<g id="Node000023" class="node">
<title>Node23</title>
<g id="a_Node000023"><a xlink:title=" ">
<polygon fill="#e0e0e0" stroke="#999999" points="862.5,-19.25 803,-19.25 803,0 862.5,0 862.5,-19.25"/>
<text text-anchor="middle" x="832.75" y="-5.75" font-family="Helvetica,sans-Serif" font-size="10.00">sys/wait.h</text>
</a>
</g>
</g>
<!-- Node10&#45;&gt;Node23 -->
<g id="edge25_Node000010_Node000023" class="edge">
<title>Node10&#45;&gt;Node23</title>
<g id="a_edge25_Node000010_Node000023"><a xlink:title=" ">
<path fill="none" stroke="#63b8ff" d="M490.37,-56.88C493.19,-56.29 496.02,-55.73 498.75,-55.25 625.25,-32.85 661.59,-41.05 791.4,-19.49"/>
<polygon fill="#63b8ff" stroke="#63b8ff" points="791.8,-22.97 801.08,-17.85 790.64,-16.07 791.8,-22.97"/>
</a>
</g>
</g>
<!-- Node24 -->
<g id="Node000024" class="node">
<title>Node24</title>
<g id="a_Node000024"><a xlink:title=" ">
<polygon fill="#e0e0e0" stroke="#999999" points="940.88,-19.25 880.62,-19.25 880.62,0 940.88,0 940.88,-19.25"/>
<text text-anchor="middle" x="910.75" y="-5.75" font-family="Helvetica,sans-Serif" font-size="10.00">sys/prctl.h</text>
</a>
</g>
</g>
<!-- Node10&#45;&gt;Node24 -->
<g id="edge26_Node000010_Node000024" class="edge">
<title>Node10&#45;&gt;Node24</title>
<g id="a_edge26_Node000010_Node000024"><a xlink:title=" ">
<path fill="none" stroke="#63b8ff" d="M490.36,-56.81C493.18,-56.23 496.02,-55.7 498.75,-55.25 659.57,-28.86 705.3,-44.57 869.19,-19.47"/>
<polygon fill="#63b8ff" stroke="#63b8ff" points="869.32,-22.99 878.66,-17.99 868.24,-16.08 869.32,-22.99"/>
</a>
</g>
</g>
</g>
</svg>
