<?xml version="1.0" encoding="UTF-8" standalone="no"?>
<!DOCTYPE svg PUBLIC "-//W3C//DTD SVG 1.1//EN"
 "http://www.w3.org/Graphics/SVG/1.1/DTD/svg11.dtd">
<!-- Generated by graphviz version 12.2.0 (20241103.1931)
 -->
<!-- Title: TScaler.cxx Pages: 1 -->
<svg width="949pt" height="304pt"
 viewBox="0.00 0.00 948.62 303.50" xmlns="http://www.w3.org/2000/svg" xmlns:xlink="http://www.w3.org/1999/xlink">
<g id="graph0" class="graph" transform="scale(1 1) rotate(0) translate(4 299.5)">
<title>TScaler.cxx</title>
<!-- Node1 -->
<g id="Node000001" class="node">
<title>Node1</title>
<g id="a_Node000001"><a xlink:title=" ">
<polygon fill="#999999" stroke="#666666" points="779,-295.5 712.75,-295.5 712.75,-276.25 779,-276.25 779,-295.5"/>
<text text-anchor="middle" x="745.88" y="-282" font-family="Helvetica,sans-Serif" font-size="10.00">TScaler.cxx</text>
</a>
</g>
</g>
<!-- Node2 -->
<g id="Node000002" class="node">
<title>Node2</title>
<g id="a_Node000002"><a xlink:href="_t_scaler_8h.html" target="_top" xlink:title=" ">
<polygon fill="white" stroke="#666666" points="774.5,-240.25 717.25,-240.25 717.25,-221 774.5,-221 774.5,-240.25"/>
<text text-anchor="middle" x="745.88" y="-226.75" font-family="Helvetica,sans-Serif" font-size="10.00">TScaler.h</text>
</a>
</g>
</g>
<!-- Node1&#45;&gt;Node2 -->
<g id="edge1_Node000001_Node000002" class="edge">
<title>Node1&#45;&gt;Node2</title>
<g id="a_edge1_Node000001_Node000002"><a xlink:title=" ">
<path fill="none" stroke="#63b8ff" d="M745.88,-276.08C745.88,-269.57 745.88,-260.42 745.88,-252.12"/>
<polygon fill="#63b8ff" stroke="#63b8ff" points="749.38,-252.12 745.88,-242.12 742.38,-252.12 749.38,-252.12"/>
</a>
</g>
</g>
<!-- Node7 -->
<g id="Node000007" class="node">
<title>Node7</title>
<g id="a_Node000007"><a xlink:title=" ">
<polygon fill="#e0e0e0" stroke="#999999" points="49.75,-19.25 0,-19.25 0,0 49.75,0 49.75,-19.25"/>
<text text-anchor="middle" x="24.88" y="-5.75" font-family="Helvetica,sans-Serif" font-size="10.00">iomanip</text>
</a>
</g>
</g>
<!-- Node1&#45;&gt;Node7 -->
<g id="edge37_Node000001_Node000007" class="edge">
<title>Node1&#45;&gt;Node7</title>
<g id="a_edge37_Node000001_Node000007"><a xlink:title=" ">
<path fill="none" stroke="#63b8ff" d="M712.48,-282.14C589.76,-271.67 170.88,-231.87 170.88,-176.38 170.88,-176.38 170.88,-176.38 170.88,-119.12 170.88,-64.48 104.17,-34.14 60.94,-20.21"/>
<polygon fill="#63b8ff" stroke="#63b8ff" points="62.01,-16.87 51.42,-17.3 59.96,-23.57 62.01,-16.87"/>
</a>
</g>
</g>
<!-- Node30 -->
<g id="Node000030" class="node">
<title>Node30</title>
<g id="a_Node000030"><a xlink:title=" ">
<polygon fill="#e0e0e0" stroke="#999999" points="849.5,-240.25 792.25,-240.25 792.25,-221 849.5,-221 849.5,-240.25"/>
<text text-anchor="middle" x="820.88" y="-226.75" font-family="Helvetica,sans-Serif" font-size="10.00">TROOT.h</text>
</a>
</g>
</g>
<!-- Node1&#45;&gt;Node30 -->
<g id="edge38_Node000001_Node000030" class="edge">
<title>Node1&#45;&gt;Node30</title>
<g id="a_edge38_Node000001_Node000030"><a xlink:title=" ">
<path fill="none" stroke="#63b8ff" d="M758.6,-275.84C769.59,-268.04 785.72,-256.59 798.81,-247.29"/>
<polygon fill="#63b8ff" stroke="#63b8ff" points="800.73,-250.22 806.86,-241.58 796.68,-244.51 800.73,-250.22"/>
</a>
</g>
</g>
<!-- Node3 -->
<g id="Node000003" class="node">
<title>Node3</title>
<g id="a_Node000003"><a xlink:title=" ">
<polygon fill="#e0e0e0" stroke="#999999" points="940.62,-19.25 887.12,-19.25 887.12,0 940.62,0 940.62,-19.25"/>
<text text-anchor="middle" x="913.88" y="-5.75" font-family="Helvetica,sans-Serif" font-size="10.00">iostream</text>
</a>
</g>
</g>
<!-- Node2&#45;&gt;Node3 -->
<g id="edge2_Node000002_Node000003" class="edge">
<title>Node2&#45;&gt;Node3</title>
<g id="a_edge2_Node000002_Node000003"><a xlink:title=" ">
<path fill="none" stroke="#63b8ff" d="M774.75,-222.82C821.34,-211.71 908.38,-190.39 912.88,-185 949.84,-140.71 932.33,-65.76 920.96,-30.31"/>
<polygon fill="#63b8ff" stroke="#63b8ff" points="924.32,-29.31 917.78,-20.97 917.69,-31.57 924.32,-29.31"/>
</a>
</g>
</g>
<!-- Node4 -->
<g id="Node000004" class="node">
<title>Node4</title>
<g id="a_Node000004"><a xlink:title=" ">
<polygon fill="#e0e0e0" stroke="#999999" points="738.25,-129.75 703.5,-129.75 703.5,-110.5 738.25,-110.5 738.25,-129.75"/>
<text text-anchor="middle" x="720.88" y="-116.25" font-family="Helvetica,sans-Serif" font-size="10.00">map</text>
</a>
</g>
</g>
<!-- Node2&#45;&gt;Node4 -->
<g id="edge3_Node000002_Node000004" class="edge">
<title>Node2&#45;&gt;Node4</title>
<g id="a_edge3_Node000002_Node000004"><a xlink:title=" ">
<path fill="none" stroke="#63b8ff" d="M743.83,-220.75C739.86,-203.5 731,-165.08 725.53,-141.31"/>
<polygon fill="#63b8ff" stroke="#63b8ff" points="728.94,-140.56 723.29,-131.6 722.12,-142.13 728.94,-140.56"/>
</a>
</g>
</g>
<!-- Node5 -->
<g id="Node000005" class="node">
<title>Node5</title>
<g id="a_Node000005"><a xlink:title=" ">
<polygon fill="#e0e0e0" stroke="#999999" points="912.88,-74.5 854.88,-74.5 854.88,-55.25 912.88,-55.25 912.88,-74.5"/>
<text text-anchor="middle" x="883.88" y="-61" font-family="Helvetica,sans-Serif" font-size="10.00">TObject.h</text>
</a>
</g>
</g>
<!-- Node2&#45;&gt;Node5 -->
<g id="edge4_Node000002_Node000005" class="edge">
<title>Node2&#45;&gt;Node5</title>
<g id="a_edge4_Node000002_Node000005"><a xlink:title=" ">
<path fill="none" stroke="#63b8ff" d="M750.74,-220.54C757.75,-207.78 771.45,-184.04 785.88,-165.75 810.79,-134.15 844.49,-101.63 865.18,-82.61"/>
<polygon fill="#63b8ff" stroke="#63b8ff" points="867.52,-85.21 872.57,-75.89 862.81,-80.03 867.52,-85.21"/>
</a>
</g>
</g>
<!-- Node6 -->
<g id="Node000006" class="node">
<title>Node6</title>
<g id="a_Node000006"><a xlink:href="_globals_8h.html" target="_top" xlink:title=" ">
<polygon fill="white" stroke="#666666" points="483.12,-74.5 426.62,-74.5 426.62,-55.25 483.12,-55.25 483.12,-74.5"/>
<text text-anchor="middle" x="454.88" y="-61" font-family="Helvetica,sans-Serif" font-size="10.00">Globals.h</text>
</a>
</g>
</g>
<!-- Node2&#45;&gt;Node6 -->
<g id="edge5_Node000002_Node000006" class="edge">
<title>Node2&#45;&gt;Node6</title>
<g id="a_edge5_Node000002_Node000006"><a xlink:title=" ">
<path fill="none" stroke="#63b8ff" d="M716.86,-226.95C632.83,-218.54 392.4,-189.55 346.88,-129.75 325.14,-101.2 376.1,-82.94 415.2,-73.55"/>
<polygon fill="#63b8ff" stroke="#63b8ff" points="415.89,-76.99 424.87,-71.37 414.35,-70.16 415.89,-76.99"/>
</a>
</g>
</g>
<!-- Node20 -->
<g id="Node000020" class="node">
<title>Node20</title>
<g id="a_Node000020"><a xlink:title=" ">
<polygon fill="#e0e0e0" stroke="#999999" points="843.38,-185 794.38,-185 794.38,-165.75 843.38,-165.75 843.38,-185"/>
<text text-anchor="middle" x="818.88" y="-171.5" font-family="Helvetica,sans-Serif" font-size="10.00">TTree.h</text>
</a>
</g>
</g>
<!-- Node2&#45;&gt;Node20 -->
<g id="edge20_Node000002_Node000020" class="edge">
<title>Node2&#45;&gt;Node20</title>
<g id="a_edge20_Node000002_Node000020"><a xlink:title=" ">
<path fill="none" stroke="#63b8ff" d="M758.26,-220.59C769.02,-212.74 784.85,-201.2 797.63,-191.87"/>
<polygon fill="#63b8ff" stroke="#63b8ff" points="799.44,-194.89 805.45,-186.17 795.31,-189.23 799.44,-194.89"/>
</a>
</g>
</g>
<!-- Node21 -->
<g id="Node000021" class="node">
<title>Node21</title>
<g id="a_Node000021"><a xlink:title=" ">
<polygon fill="#e0e0e0" stroke="#999999" points="904,-185 861.75,-185 861.75,-165.75 904,-165.75 904,-185"/>
<text text-anchor="middle" x="882.88" y="-171.5" font-family="Helvetica,sans-Serif" font-size="10.00">TH1.h</text>
</a>
</g>
</g>
<!-- Node2&#45;&gt;Node21 -->
<g id="edge21_Node000002_Node000021" class="edge">
<title>Node2&#45;&gt;Node21</title>
<g id="a_edge21_Node000002_Node000021"><a xlink:title=" ">
<path fill="none" stroke="#63b8ff" d="M769.12,-220.59C791.59,-211.86 825.84,-198.54 850.88,-188.81"/>
<polygon fill="#63b8ff" stroke="#63b8ff" points="851.87,-192.18 859.92,-185.3 849.33,-185.66 851.87,-192.18"/>
</a>
</g>
</g>
<!-- Node22 -->
<g id="Node000022" class="node">
<title>Node22</title>
<g id="a_Node000022"><a xlink:href="_t_p_p_g_8h.html" target="_top" xlink:title=" ">
<polygon fill="white" stroke="#666666" points="606.12,-185 555.62,-185 555.62,-165.75 606.12,-165.75 606.12,-185"/>
<text text-anchor="middle" x="580.88" y="-171.5" font-family="Helvetica,sans-Serif" font-size="10.00">TPPG.h</text>
</a>
</g>
</g>
<!-- Node2&#45;&gt;Node22 -->
<g id="edge22_Node000002_Node000022" class="edge">
<title>Node2&#45;&gt;Node22</title>
<g id="a_edge22_Node000002_Node000022"><a xlink:title=" ">
<path fill="none" stroke="#63b8ff" d="M717.88,-220.59C690.13,-211.63 647.46,-197.86 617.12,-188.07"/>
<polygon fill="#63b8ff" stroke="#63b8ff" points="618.59,-184.87 608,-185.13 616.44,-191.53 618.59,-184.87"/>
</a>
</g>
</g>
<!-- Node6&#45;&gt;Node3 -->
<g id="edge6_Node000006_Node000003" class="edge">
<title>Node6&#45;&gt;Node3</title>
<g id="a_edge6_Node000006_Node000003"><a xlink:title=" ">
<path fill="none" stroke="#63b8ff" d="M483.27,-57.61C487.8,-56.73 492.46,-55.91 496.88,-55.25 661.48,-30.65 708.1,-46.42 875.62,-19.38"/>
<polygon fill="#63b8ff" stroke="#63b8ff" points="876.04,-22.86 885.34,-17.78 874.9,-15.95 876.04,-22.86"/>
</a>
</g>
</g>
<!-- Node6&#45;&gt;Node7 -->
<g id="edge7_Node000006_Node000007" class="edge">
<title>Node6&#45;&gt;Node7</title>
<g id="a_edge7_Node000006_Node000007"><a xlink:title=" ">
<path fill="none" stroke="#63b8ff" d="M426.35,-62C362.62,-57.53 203.69,-44.8 61.15,-19.42"/>
<polygon fill="#63b8ff" stroke="#63b8ff" points="61.99,-16.02 51.53,-17.69 60.75,-22.91 61.99,-16.02"/>
</a>
</g>
</g>
<!-- Node8 -->
<g id="Node000008" class="node">
<title>Node8</title>
<g id="a_Node000008"><a xlink:title=" ">
<polygon fill="#e0e0e0" stroke="#999999" points="868.88,-19.25 810.88,-19.25 810.88,0 868.88,0 868.88,-19.25"/>
<text text-anchor="middle" x="839.88" y="-5.75" font-family="Helvetica,sans-Serif" font-size="10.00">stdexcept</text>
</a>
</g>
</g>
<!-- Node6&#45;&gt;Node8 -->
<g id="edge8_Node000006_Node000008" class="edge">
<title>Node6&#45;&gt;Node8</title>
<g id="a_edge8_Node000006_Node000008"><a xlink:title=" ">
<path fill="none" stroke="#63b8ff" d="M483.28,-57.7C487.82,-56.81 492.47,-55.96 496.88,-55.25 628.07,-34.08 665.4,-41.94 799.38,-19.51"/>
<polygon fill="#63b8ff" stroke="#63b8ff" points="799.72,-23 808.99,-17.87 798.54,-16.1 799.72,-23"/>
</a>
</g>
</g>
<!-- Node9 -->
<g id="Node000009" class="node">
<title>Node9</title>
<g id="a_Node000009"><a xlink:title=" ">
<polygon fill="#e0e0e0" stroke="#999999" points="107.88,-19.25 67.88,-19.25 67.88,0 107.88,0 107.88,-19.25"/>
<text text-anchor="middle" x="87.88" y="-5.75" font-family="Helvetica,sans-Serif" font-size="10.00">string</text>
</a>
</g>
</g>
<!-- Node6&#45;&gt;Node9 -->
<g id="edge9_Node000006_Node000009" class="edge">
<title>Node6&#45;&gt;Node9</title>
<g id="a_edge9_Node000006_Node000009"><a xlink:title=" ">
<path fill="none" stroke="#63b8ff" d="M426.13,-61.62C369.26,-56.84 238.29,-44.19 119.46,-19.5"/>
<polygon fill="#63b8ff" stroke="#63b8ff" points="120.36,-16.12 109.85,-17.47 118.91,-22.96 120.36,-16.12"/>
</a>
</g>
</g>
<!-- Node10 -->
<g id="Node000010" class="node">
<title>Node10</title>
<g id="a_Node000010"><a xlink:title=" ">
<polygon fill="#e0e0e0" stroke="#999999" points="168,-19.25 125.75,-19.25 125.75,0 168,0 168,-19.25"/>
<text text-anchor="middle" x="146.88" y="-5.75" font-family="Helvetica,sans-Serif" font-size="10.00">cstdio</text>
</a>
</g>
</g>
<!-- Node6&#45;&gt;Node10 -->
<g id="edge10_Node000006_Node000010" class="edge">
<title>Node6&#45;&gt;Node10</title>
<g id="a_edge10_Node000006_Node000010"><a xlink:title=" ">
<path fill="none" stroke="#63b8ff" d="M426.24,-60.44C377.48,-54.34 275.02,-40.45 179.44,-19.6"/>
<polygon fill="#63b8ff" stroke="#63b8ff" points="180.42,-16.23 169.9,-17.49 178.91,-23.07 180.42,-16.23"/>
</a>
</g>
</g>
<!-- Node11 -->
<g id="Node000011" class="node">
<title>Node11</title>
<g id="a_Node000011"><a xlink:title=" ">
<polygon fill="#e0e0e0" stroke="#999999" points="230.12,-19.25 185.62,-19.25 185.62,0 230.12,0 230.12,-19.25"/>
<text text-anchor="middle" x="207.88" y="-5.75" font-family="Helvetica,sans-Serif" font-size="10.00">cstdlib</text>
</a>
</g>
</g>
<!-- Node6&#45;&gt;Node11 -->
<g id="edge11_Node000006_Node000011" class="edge">
<title>Node6&#45;&gt;Node11</title>
<g id="a_edge11_Node000006_Node000011"><a xlink:title=" ">
<path fill="none" stroke="#63b8ff" d="M426.43,-58.63C387.02,-51.24 313.33,-36.91 241.55,-19.78"/>
<polygon fill="#63b8ff" stroke="#63b8ff" points="242.53,-16.41 231.99,-17.47 240.89,-23.22 242.53,-16.41"/>
</a>
</g>
</g>
<!-- Node12 -->
<g id="Node000012" class="node">
<title>Node12</title>
<g id="a_Node000012"><a xlink:title=" ">
<polygon fill="#e0e0e0" stroke="#999999" points="307.62,-19.25 248.12,-19.25 248.12,0 307.62,0 307.62,-19.25"/>
<text text-anchor="middle" x="277.88" y="-5.75" font-family="Helvetica,sans-Serif" font-size="10.00">execinfo.h</text>
</a>
</g>
</g>
<!-- Node6&#45;&gt;Node12 -->
<g id="edge12_Node000006_Node000012" class="edge">
<title>Node6&#45;&gt;Node12</title>
<g id="a_edge12_Node000006_Node000012"><a xlink:title=" ">
<path fill="none" stroke="#63b8ff" d="M426.44,-55.32C397.29,-46.55 351.68,-32.83 318.68,-22.9"/>
<polygon fill="#63b8ff" stroke="#63b8ff" points="320.05,-19.66 309.47,-20.13 318.04,-26.36 320.05,-19.66"/>
</a>
</g>
</g>
<!-- Node13 -->
<g id="Node000013" class="node">
<title>Node13</title>
<g id="a_Node000013"><a xlink:title=" ">
<polygon fill="#e0e0e0" stroke="#999999" points="376.12,-19.25 325.62,-19.25 325.62,0 376.12,0 376.12,-19.25"/>
<text text-anchor="middle" x="350.88" y="-5.75" font-family="Helvetica,sans-Serif" font-size="10.00">cxxabi.h</text>
</a>
</g>
</g>
<!-- Node6&#45;&gt;Node13 -->
<g id="edge13_Node000006_Node000013" class="edge">
<title>Node6&#45;&gt;Node13</title>
<g id="a_edge13_Node000006_Node000013"><a xlink:title=" ">
<path fill="none" stroke="#63b8ff" d="M437.23,-54.84C421.25,-46.66 397.42,-34.46 378.84,-24.94"/>
<polygon fill="#63b8ff" stroke="#63b8ff" points="380.45,-21.83 369.95,-20.39 377.26,-28.07 380.45,-21.83"/>
</a>
</g>
</g>
<!-- Node14 -->
<g id="Node000014" class="node">
<title>Node14</title>
<g id="a_Node000014"><a xlink:title=" ">
<polygon fill="#e0e0e0" stroke="#999999" points="445.5,-19.25 394.25,-19.25 394.25,0 445.5,0 445.5,-19.25"/>
<text text-anchor="middle" x="419.88" y="-5.75" font-family="Helvetica,sans-Serif" font-size="10.00">sstream</text>
</a>
</g>
</g>
<!-- Node6&#45;&gt;Node14 -->
<g id="edge14_Node000006_Node000014" class="edge">
<title>Node6&#45;&gt;Node14</title>
<g id="a_edge14_Node000006_Node000014"><a xlink:title=" ">
<path fill="none" stroke="#63b8ff" d="M449.1,-55.08C444.46,-48.03 437.8,-37.9 432.01,-29.08"/>
<polygon fill="#63b8ff" stroke="#63b8ff" points="435.03,-27.31 426.61,-20.87 429.18,-31.15 435.03,-27.31"/>
</a>
</g>
</g>
<!-- Node15 -->
<g id="Node000015" class="node">
<title>Node15</title>
<g id="a_Node000015"><a xlink:title=" ">
<polygon fill="#e0e0e0" stroke="#999999" points="500.38,-19.25 463.38,-19.25 463.38,0 500.38,0 500.38,-19.25"/>
<text text-anchor="middle" x="481.88" y="-5.75" font-family="Helvetica,sans-Serif" font-size="10.00">array</text>
</a>
</g>
</g>
<!-- Node6&#45;&gt;Node15 -->
<g id="edge15_Node000006_Node000015" class="edge">
<title>Node6&#45;&gt;Node15</title>
<g id="a_edge15_Node000006_Node000015"><a xlink:title=" ">
<path fill="none" stroke="#63b8ff" d="M459.33,-55.08C462.83,-48.19 467.82,-38.34 472.22,-29.66"/>
<polygon fill="#63b8ff" stroke="#63b8ff" points="475.23,-31.46 476.64,-20.96 468.99,-28.3 475.23,-31.46"/>
</a>
</g>
</g>
<!-- Node16 -->
<g id="Node000016" class="node">
<title>Node16</title>
<g id="a_Node000016"><a xlink:title=" ">
<polygon fill="#e0e0e0" stroke="#999999" points="569.12,-19.25 518.62,-19.25 518.62,0 569.12,0 569.12,-19.25"/>
<text text-anchor="middle" x="543.88" y="-5.75" font-family="Helvetica,sans-Serif" font-size="10.00">memory</text>
</a>
</g>
</g>
<!-- Node6&#45;&gt;Node16 -->
<g id="edge16_Node000006_Node000016" class="edge">
<title>Node6&#45;&gt;Node16</title>
<g id="a_edge16_Node000006_Node000016"><a xlink:title=" ">
<path fill="none" stroke="#63b8ff" d="M469.97,-54.84C483.4,-46.81 503.29,-34.91 519.05,-25.48"/>
<polygon fill="#63b8ff" stroke="#63b8ff" points="520.62,-28.62 527.4,-20.48 517.03,-22.61 520.62,-28.62"/>
</a>
</g>
</g>
<!-- Node17 -->
<g id="Node000017" class="node">
<title>Node17</title>
<g id="a_Node000017"><a xlink:title=" ">
<polygon fill="#e0e0e0" stroke="#999999" points="636.75,-19.25 587,-19.25 587,0 636.75,0 636.75,-19.25"/>
<text text-anchor="middle" x="611.88" y="-5.75" font-family="Helvetica,sans-Serif" font-size="10.00">unistd.h</text>
</a>
</g>
</g>
<!-- Node6&#45;&gt;Node17 -->
<g id="edge17_Node000006_Node000017" class="edge">
<title>Node6&#45;&gt;Node17</title>
<g id="a_edge17_Node000006_Node000017"><a xlink:title=" ">
<path fill="none" stroke="#63b8ff" d="M481.51,-54.84C507.46,-46.04 547.1,-32.6 575.85,-22.84"/>
<polygon fill="#63b8ff" stroke="#63b8ff" points="576.89,-26.19 585.24,-19.66 574.64,-19.56 576.89,-26.19"/>
</a>
</g>
</g>
<!-- Node18 -->
<g id="Node000018" class="node">
<title>Node18</title>
<g id="a_Node000018"><a xlink:title=" ">
<polygon fill="#e0e0e0" stroke="#999999" points="714.62,-19.25 655.12,-19.25 655.12,0 714.62,0 714.62,-19.25"/>
<text text-anchor="middle" x="684.88" y="-5.75" font-family="Helvetica,sans-Serif" font-size="10.00">sys/wait.h</text>
</a>
</g>
</g>
<!-- Node6&#45;&gt;Node18 -->
<g id="edge18_Node000006_Node000018" class="edge">
<title>Node6&#45;&gt;Node18</title>
<g id="a_edge18_Node000006_Node000018"><a xlink:title=" ">
<path fill="none" stroke="#63b8ff" d="M483.54,-57.24C523.84,-47.91 597.47,-30.86 643.64,-20.17"/>
<polygon fill="#63b8ff" stroke="#63b8ff" points="644.32,-23.61 653.28,-17.94 642.75,-16.79 644.32,-23.61"/>
</a>
</g>
</g>
<!-- Node19 -->
<g id="Node000019" class="node">
<title>Node19</title>
<g id="a_Node000019"><a xlink:title=" ">
<polygon fill="#e0e0e0" stroke="#999999" points="793,-19.25 732.75,-19.25 732.75,0 793,0 793,-19.25"/>
<text text-anchor="middle" x="762.88" y="-5.75" font-family="Helvetica,sans-Serif" font-size="10.00">sys/prctl.h</text>
</a>
</g>
</g>
<!-- Node6&#45;&gt;Node19 -->
<g id="edge19_Node000006_Node000019" class="edge">
<title>Node6&#45;&gt;Node19</title>
<g id="a_edge19_Node000006_Node000019"><a xlink:title=" ">
<path fill="none" stroke="#63b8ff" d="M483.31,-57.85C487.84,-56.95 492.48,-56.05 496.88,-55.25 593.84,-37.61 621.59,-38.22 721.09,-19.68"/>
<polygon fill="#63b8ff" stroke="#63b8ff" points="721.59,-23.15 730.77,-17.86 720.29,-16.27 721.59,-23.15"/>
</a>
</g>
</g>
<!-- Node22&#45;&gt;Node3 -->
<g id="edge25_Node000022_Node000003" class="edge">
<title>Node22&#45;&gt;Node3</title>
<g id="a_edge25_Node000022_Node000003"><a xlink:title=" ">
<path fill="none" stroke="#63b8ff" d="M574.76,-165.57C558.09,-141.06 514.13,-72.71 529.88,-55.25 579.81,0.12 783.53,-29.63 875.64,-19.09"/>
<polygon fill="#63b8ff" stroke="#63b8ff" points="875.92,-22.59 885.33,-17.72 874.94,-15.66 875.92,-22.59"/>
</a>
</g>
</g>
<!-- Node22&#45;&gt;Node4 -->
<g id="edge23_Node000022_Node000004" class="edge">
<title>Node22&#45;&gt;Node4</title>
<g id="a_edge23_Node000022_Node000004"><a xlink:title=" ">
<path fill="none" stroke="#63b8ff" d="M604.62,-165.34C628.95,-156.09 666.77,-141.7 692.62,-131.87"/>
<polygon fill="#63b8ff" stroke="#63b8ff" points="693.71,-135.2 701.82,-128.37 691.22,-128.66 693.71,-135.2"/>
</a>
</g>
</g>
<!-- Node22&#45;&gt;Node5 -->
<g id="edge26_Node000022_Node000005" class="edge">
<title>Node22&#45;&gt;Node5</title>
<g id="a_edge26_Node000022_Node000005"><a xlink:title=" ">
<path fill="none" stroke="#63b8ff" d="M595.7,-165.39C621.72,-149.72 674.79,-118.32 694.88,-110.5 701.84,-107.79 789.99,-87.39 843.41,-75.13"/>
<polygon fill="#63b8ff" stroke="#63b8ff" points="844.12,-78.56 853.08,-72.91 842.55,-71.73 844.12,-78.56"/>
</a>
</g>
</g>
<!-- Node22&#45;&gt;Node6 -->
<g id="edge28_Node000022_Node000006" class="edge">
<title>Node22&#45;&gt;Node6</title>
<g id="a_edge28_Node000022_Node000006"><a xlink:title=" ">
<path fill="none" stroke="#63b8ff" d="M570.56,-165.5C549.43,-147.3 500.91,-105.52 473.9,-82.26"/>
<polygon fill="#63b8ff" stroke="#63b8ff" points="476.34,-79.74 466.48,-75.86 471.77,-85.04 476.34,-79.74"/>
</a>
</g>
</g>
<!-- Node23 -->
<g id="Node000023" class="node">
<title>Node23</title>
<g id="a_Node000023"><a xlink:title=" ">
<polygon fill="#e0e0e0" stroke="#999999" points="394.12,-129.75 355.62,-129.75 355.62,-110.5 394.12,-110.5 394.12,-129.75"/>
<text text-anchor="middle" x="374.88" y="-116.25" font-family="Helvetica,sans-Serif" font-size="10.00">utility</text>
</a>
</g>
</g>
<!-- Node22&#45;&gt;Node23 -->
<g id="edge24_Node000022_Node000023" class="edge">
<title>Node22&#45;&gt;Node23</title>
<g id="a_edge24_Node000022_Node000023"><a xlink:title=" ">
<path fill="none" stroke="#63b8ff" d="M555.41,-168.44C522.79,-160.74 464.27,-146.61 405.41,-130.35"/>
<polygon fill="#63b8ff" stroke="#63b8ff" points="406.45,-127.01 395.88,-127.7 404.57,-133.75 406.45,-127.01"/>
</a>
</g>
</g>
<!-- Node24 -->
<g id="Node000024" class="node">
<title>Node24</title>
<g id="a_Node000024"><a xlink:title=" ">
<polygon fill="#e0e0e0" stroke="#999999" points="484,-129.75 411.75,-129.75 411.75,-110.5 484,-110.5 484,-129.75"/>
<text text-anchor="middle" x="447.88" y="-116.25" font-family="Helvetica,sans-Serif" font-size="10.00">TCollection.h</text>
</a>
</g>
</g>
<!-- Node22&#45;&gt;Node24 -->
<g id="edge27_Node000022_Node000024" class="edge">
<title>Node22&#45;&gt;Node24</title>
<g id="a_edge27_Node000022_Node000024"><a xlink:title=" ">
<path fill="none" stroke="#63b8ff" d="M558.31,-165.34C537.1,-156.85 505.1,-144.04 481,-134.39"/>
<polygon fill="#63b8ff" stroke="#63b8ff" points="482.54,-131.23 471.95,-130.77 479.94,-137.73 482.54,-131.23"/>
</a>
</g>
</g>
<!-- Node25 -->
<g id="Node000025" class="node">
<title>Node25</title>
<g id="a_Node000025"><a xlink:href="_t_singleton_8h.html" target="_top" xlink:title=" ">
<polygon fill="white" stroke="#666666" points="647.88,-129.75 577.88,-129.75 577.88,-110.5 647.88,-110.5 647.88,-129.75"/>
<text text-anchor="middle" x="612.88" y="-116.25" font-family="Helvetica,sans-Serif" font-size="10.00">TSingleton.h</text>
</a>
</g>
</g>
<!-- Node22&#45;&gt;Node25 -->
<g id="edge29_Node000022_Node000025" class="edge">
<title>Node22&#45;&gt;Node25</title>
<g id="a_edge29_Node000022_Node000025"><a xlink:title=" ">
<path fill="none" stroke="#63b8ff" d="M586.16,-165.58C590.35,-158.61 596.35,-148.62 601.61,-139.87"/>
<polygon fill="#63b8ff" stroke="#63b8ff" points="604.55,-141.78 606.7,-131.41 598.55,-138.18 604.55,-141.78"/>
</a>
</g>
</g>
<!-- Node25&#45;&gt;Node3 -->
<g id="edge30_Node000025_Node000003" class="edge">
<title>Node25&#45;&gt;Node3</title>
<g id="a_edge30_Node000025_Node000003"><a xlink:title=" ">
<path fill="none" stroke="#63b8ff" d="M612.72,-110.12C613.01,-96.09 615.78,-69.18 631.88,-55.25 671.36,-21.07 807.54,-28.68 875.69,-19.21"/>
<polygon fill="#63b8ff" stroke="#63b8ff" points="876.01,-22.71 885.31,-17.63 874.88,-15.8 876.01,-22.71"/>
</a>
</g>
</g>
<!-- Node25&#45;&gt;Node5 -->
<g id="edge31_Node000025_Node000005" class="edge">
<title>Node25&#45;&gt;Node5</title>
<g id="a_edge31_Node000025_Node000005"><a xlink:title=" ">
<path fill="none" stroke="#63b8ff" d="M648.08,-112.77C691.63,-104.82 768.31,-90.55 843.38,-74.97"/>
<polygon fill="#63b8ff" stroke="#63b8ff" points="843.88,-78.44 852.96,-72.97 842.45,-71.59 843.88,-78.44"/>
</a>
</g>
</g>
<!-- Node25&#45;&gt;Node6 -->
<g id="edge36_Node000025_Node000006" class="edge">
<title>Node25&#45;&gt;Node6</title>
<g id="a_edge36_Node000025_Node000006"><a xlink:title=" ">
<path fill="none" stroke="#63b8ff" d="M586.07,-110.09C560.42,-101.45 521.49,-88.32 492.69,-78.62"/>
<polygon fill="#63b8ff" stroke="#63b8ff" points="493.84,-75.31 483.24,-75.44 491.6,-81.95 493.84,-75.31"/>
</a>
</g>
</g>
<!-- Node26 -->
<g id="Node000026" class="node">
<title>Node26</title>
<g id="a_Node000026"><a xlink:title=" ">
<polygon fill="#e0e0e0" stroke="#999999" points="708.75,-74.5 641,-74.5 641,-55.25 708.75,-55.25 708.75,-74.5"/>
<text text-anchor="middle" x="674.88" y="-61" font-family="Helvetica,sans-Serif" font-size="10.00">TDirectory.h</text>
</a>
</g>
</g>
<!-- Node25&#45;&gt;Node26 -->
<g id="edge32_Node000025_Node000026" class="edge">
<title>Node25&#45;&gt;Node26</title>
<g id="a_edge32_Node000025_Node000026"><a xlink:title=" ">
<path fill="none" stroke="#63b8ff" d="M623.39,-110.09C632.26,-102.47 645.19,-91.37 655.86,-82.2"/>
<polygon fill="#63b8ff" stroke="#63b8ff" points="658.06,-84.93 663.36,-75.76 653.5,-79.62 658.06,-84.93"/>
</a>
</g>
</g>
<!-- Node27 -->
<g id="Node000027" class="node">
<title>Node27</title>
<g id="a_Node000027"><a xlink:title=" ">
<polygon fill="#e0e0e0" stroke="#999999" points="772.5,-74.5 727.25,-74.5 727.25,-55.25 772.5,-55.25 772.5,-74.5"/>
<text text-anchor="middle" x="749.88" y="-61" font-family="Helvetica,sans-Serif" font-size="10.00">TFile.h</text>
</a>
</g>
</g>
<!-- Node25&#45;&gt;Node27 -->
<g id="edge33_Node000025_Node000027" class="edge">
<title>Node25&#45;&gt;Node27</title>
<g id="a_edge33_Node000025_Node000027"><a xlink:title=" ">
<path fill="none" stroke="#63b8ff" d="M636.12,-110.09C658.19,-101.51 691.63,-88.52 716.54,-78.83"/>
<polygon fill="#63b8ff" stroke="#63b8ff" points="717.51,-82.21 725.57,-75.32 714.98,-75.68 717.51,-82.21"/>
</a>
</g>
</g>
<!-- Node28 -->
<g id="Node000028" class="node">
<title>Node28</title>
<g id="a_Node000028"><a xlink:title=" ">
<polygon fill="#e0e0e0" stroke="#999999" points="836.88,-74.5 790.88,-74.5 790.88,-55.25 836.88,-55.25 836.88,-74.5"/>
<text text-anchor="middle" x="813.88" y="-61" font-family="Helvetica,sans-Serif" font-size="10.00">TList.h</text>
</a>
</g>
</g>
<!-- Node25&#45;&gt;Node28 -->
<g id="edge34_Node000025_Node000028" class="edge">
<title>Node25&#45;&gt;Node28</title>
<g id="a_edge34_Node000025_Node000028"><a xlink:title=" ">
<path fill="none" stroke="#63b8ff" d="M647.52,-110.03C679.42,-101.65 728.36,-88.76 779.51,-75.12"/>
<polygon fill="#63b8ff" stroke="#63b8ff" points="780.24,-78.55 789,-72.59 778.43,-71.79 780.24,-78.55"/>
</a>
</g>
</g>
<!-- Node29 -->
<g id="Node000029" class="node">
<title>Node29</title>
<g id="a_Node000029"><a xlink:title=" ">
<polygon fill="#e0e0e0" stroke="#999999" points="584.88,-74.5 538.88,-74.5 538.88,-55.25 584.88,-55.25 584.88,-74.5"/>
<text text-anchor="middle" x="561.88" y="-61" font-family="Helvetica,sans-Serif" font-size="10.00">TKey.h</text>
</a>
</g>
</g>
<!-- Node25&#45;&gt;Node29 -->
<g id="edge35_Node000025_Node000029" class="edge">
<title>Node25&#45;&gt;Node29</title>
<g id="a_edge35_Node000025_Node000029"><a xlink:title=" ">
<path fill="none" stroke="#63b8ff" d="M604.45,-110.33C597.34,-102.9 586.93,-92.04 578.19,-82.91"/>
<polygon fill="#63b8ff" stroke="#63b8ff" points="580.97,-80.75 571.53,-75.95 575.92,-85.6 580.97,-80.75"/>
</a>
</g>
</g>
</g>
</svg>
