<?xml version="1.0" encoding="UTF-8" standalone="no"?>
<!DOCTYPE svg PUBLIC "-//W3C//DTD SVG 1.1//EN"
 "http://www.w3.org/Graphics/SVG/1.1/DTD/svg11.dtd">
<!-- Generated by graphviz version 12.2.0 (20241103.1931)
 -->
<!-- Title: TSceptarHit.h Pages: 1 -->
<!--zoomable 193 -->

<svg id="main" version="1.1" xmlns="http://www.w3.org/2000/svg" xmlns:xlink="http://www.w3.org/1999/xlink" xml:space="preserve" onload="init(evt)">

<style type="text/css"><![CDATA[
.node, .edge {opacity: 0.7;}
.node.selected, .edge.selected {opacity: 1;}
.edge:hover path { stroke: red; }
.edge:hover polygon { stroke: red; fill: red; }
]]></style>

<defs>
  <circle id="rim" cx="0" cy="0" r="7"/>
  <circle id="rim2" cx="0" cy="0" r="3.5"/>
  <g id="zoomPlus">
    <use xlink:href="#rim" fill="#404040"><set attributeName="fill" to="#808080" begin="zoomplus.mouseover" end="zoomplus.mouseout"/></use>
    <path d="M-4,0h8M0,-4v8" fill="none" stroke="white" stroke-width="1.5" pointer-events="none"/>
  </g>
  <g id="zoomMin">
    <use xlink:href="#rim" fill="#404040"><set attributeName="fill" to="#808080" begin="zoomminus.mouseover" end="zoomminus.mouseout"/></use>
    <path d="M-4,0h8" fill="none" stroke="white" stroke-width="1.5" pointer-events="none"/>
  </g>
  <g id="arrowUp" transform="translate(30 24)">
    <use xlink:href="#rim"/>
    <path pointer-events="none" fill="none" stroke="white" stroke-width="1.5" d="M0,-3.0v7 M-2.5,-0.5L0,-3.0L2.5,-0.5"/>
  </g>
  <g id="arrowRight" transform="rotate(90) translate(36 -43)">
    <use xlink:href="#rim"/>
    <path pointer-events="none" fill="none" stroke="white" stroke-width="1.5" d="M0,-3.0v7 M-2.5,-0.5L0,-3.0L2.5,-0.5"/>
  </g>
  <g id="arrowDown" transform="rotate(180) translate(-30 -48)">
    <use xlink:href="#rim"/>
    <path pointer-events="none" fill="none" stroke="white" stroke-width="1.5" d="M0,-3.0v7 M-2.5,-0.5L0,-3.0L2.5,-0.5"/>
  </g>
  <g id="arrowLeft" transform="rotate(270) translate(-36 17)">
    <use xlink:href="#rim"/>
    <path pointer-events="none" fill="none" stroke="white" stroke-width="1.5" d="M0,-3.0v7 M-2.5,-0.5L0,-3.0L2.5,-0.5"/>
  </g>
  <g id="resetDef">
    <use xlink:href="#rim2" fill="#404040"><set attributeName="fill" to="#808080" begin="reset.mouseover" end="reset.mouseout"/></use>
  </g>
</defs>
<script type="application/ecmascript">
var viewWidth = 1776;
var viewHeight = 193;
var sectionId = 'dynsection-1';
</script>
<script type="application/ecmascript" xlink:href="svg.min.js"/>
<svg id="graph" class="graph">
<g id="viewport">
<title>TSceptarHit.h</title>
<!-- Node1 -->
<g id="Node000001" class="node">
<title>Node1</title>
<g id="a_Node000001"><a xlink:title=" ">
<polygon fill="#999999" stroke="#666666" points="1061.25,-185 985.25,-185 985.25,-165.75 1061.25,-165.75 1061.25,-185"/>
<text text-anchor="middle" x="1023.25" y="-171.5" font-family="Helvetica,sans-Serif" font-size="10.00">TSceptarHit.h</text>
</a>
</g>
</g>
<!-- Node2 -->
<g id="Node000002" class="node">
<title>Node2</title>
<g id="a_Node000002"><a xlink:href="_t_sceptar_8h.html" target="_top" xlink:title=" ">
<polygon fill="white" stroke="#666666" points="1024.88,-129.75 961.62,-129.75 961.62,-110.5 1024.88,-110.5 1024.88,-129.75"/>
<text text-anchor="middle" x="993.25" y="-116.25" font-family="Helvetica,sans-Serif" font-size="10.00">TSceptar.h</text>
</a>
</g>
</g>
<!-- Node1&#45;&gt;Node2 -->
<g id="edge1_Node000001_Node000002" class="edge">
<title>Node1&#45;&gt;Node2</title>
<g id="a_edge1_Node000001_Node000002"><a xlink:title=" ">
<path fill="none" stroke="#63b8ff" d="M1012.66,-155.58C1007.78,-146.92 1002.23,-137.06 998.31,-130.11"/>
<polygon fill="#63b8ff" stroke="#63b8ff" points="1009.6,-157.27 1017.55,-164.26 1015.69,-153.83 1009.6,-157.27"/>
</a>
</g>
</g>
<!-- Node19 -->
<g id="Node000019" class="node">
<title>Node19</title>
<g id="a_Node000019"><a xlink:href="_t_sceptar_hit_8cxx.html" target="_top" xlink:title=" ">
<polygon fill="white" stroke="#666666" points="1767.75,-74.5 1682.75,-74.5 1682.75,-55.25 1767.75,-55.25 1767.75,-74.5"/>
<text text-anchor="middle" x="1725.25" y="-61" font-family="Helvetica,sans-Serif" font-size="10.00">TSceptarHit.cxx</text>
</a>
</g>
</g>
<!-- Node1&#45;&gt;Node19 -->
<g id="edge26_Node000001_Node000019" class="edge">
<title>Node1&#45;&gt;Node19</title>
<g id="a_edge26_Node000001_Node000019"><a xlink:title=" ">
<path fill="none" stroke="#63b8ff" d="M1072.69,-167.05C1181.49,-150.88 1449.88,-110.68 1674.25,-74.5 1676.91,-74.07 1679.65,-73.62 1682.41,-73.17"/>
<polygon fill="#63b8ff" stroke="#63b8ff" points="1072.31,-163.57 1062.94,-168.5 1073.34,-170.5 1072.31,-163.57"/>
</a>
</g>
</g>
<!-- Node3 -->
<g id="Node000003" class="node">
<title>Node3</title>
<g id="a_Node000003"><a xlink:href="_angular_correlation_selector_8h.html" target="_top" xlink:title=" ">
<polygon fill="white" stroke="#666666" points="140.75,-74.5 1.75,-74.5 1.75,-55.25 140.75,-55.25 140.75,-74.5"/>
<text text-anchor="middle" x="71.25" y="-61" font-family="Helvetica,sans-Serif" font-size="10.00">AngularCorrelationSelector.h</text>
</a>
</g>
</g>
<!-- Node2&#45;&gt;Node3 -->
<g id="edge2_Node000002_Node000003" class="edge">
<title>Node2&#45;&gt;Node3</title>
<g id="a_edge2_Node000002_Node000003"><a xlink:title=" ">
<path fill="none" stroke="#63b8ff" d="M950.14,-117.72C825.76,-113.47 455.62,-99.52 149.25,-74.5 146.53,-74.28 143.77,-74.04 140.97,-73.78"/>
<polygon fill="#63b8ff" stroke="#63b8ff" points="949.77,-121.21 959.89,-118.05 950.01,-114.21 949.77,-121.21"/>
</a>
</g>
</g>
<!-- Node5 -->
<g id="Node000005" class="node">
<title>Node5</title>
<g id="a_Node000005"><a xlink:href="_cross_talk_8h.html" target="_top" xlink:title=" ">
<polygon fill="white" stroke="#666666" points="226.12,-74.5 158.38,-74.5 158.38,-55.25 226.12,-55.25 226.12,-74.5"/>
<text text-anchor="middle" x="192.25" y="-61" font-family="Helvetica,sans-Serif" font-size="10.00">CrossTalk.h</text>
</a>
</g>
</g>
<!-- Node2&#45;&gt;Node5 -->
<g id="edge4_Node000002_Node000005" class="edge">
<title>Node2&#45;&gt;Node5</title>
<g id="a_edge4_Node000002_Node000005"><a xlink:title=" ">
<path fill="none" stroke="#63b8ff" d="M950.14,-118.68C834.12,-117.04 505.74,-109.42 235.25,-74.5 232.38,-74.13 229.42,-73.68 226.45,-73.18"/>
<polygon fill="#63b8ff" stroke="#63b8ff" points="949.77,-122.18 959.82,-118.81 949.86,-115.18 949.77,-122.18"/>
</a>
</g>
</g>
<!-- Node7 -->
<g id="Node000007" class="node">
<title>Node7</title>
<g id="a_Node000007"><a xlink:href="_deadtime_8cxx.html" target="_top" xlink:title=" ">
<polygon fill="white" stroke="#666666" points="318.12,-74.5 244.38,-74.5 244.38,-55.25 318.12,-55.25 318.12,-74.5"/>
<text text-anchor="middle" x="281.25" y="-61" font-family="Helvetica,sans-Serif" font-size="10.00">Deadtime.cxx</text>
</a>
</g>
</g>
<!-- Node2&#45;&gt;Node7 -->
<g id="edge6_Node000002_Node000007" class="edge">
<title>Node2&#45;&gt;Node7</title>
<g id="a_edge6_Node000002_Node000007"><a xlink:title=" ">
<path fill="none" stroke="#63b8ff" d="M949.96,-118.07C843.46,-115.06 560.35,-104.65 326.25,-74.5 323.73,-74.17 321.13,-73.8 318.52,-73.38"/>
<polygon fill="#63b8ff" stroke="#63b8ff" points="949.58,-121.56 959.67,-118.33 949.77,-114.56 949.58,-121.56"/>
</a>
</g>
</g>
<!-- Node8 -->
<g id="Node000008" class="node">
<title>Node8</title>
<g id="a_Node000008"><a xlink:href="_example_event_selector_8h.html" target="_top" xlink:title=" ">
<polygon fill="white" stroke="#666666" points="456.75,-74.5 335.75,-74.5 335.75,-55.25 456.75,-55.25 456.75,-74.5"/>
<text text-anchor="middle" x="396.25" y="-61" font-family="Helvetica,sans-Serif" font-size="10.00">ExampleEventSelector.h</text>
</a>
</g>
</g>
<!-- Node2&#45;&gt;Node8 -->
<g id="edge7_Node000002_Node000008" class="edge">
<title>Node2&#45;&gt;Node8</title>
<g id="a_edge7_Node000002_Node000008"><a xlink:title=" ">
<path fill="none" stroke="#63b8ff" d="M949.98,-116.06C859.75,-109.53 644.97,-93.32 465.25,-74.5 462.61,-74.22 459.91,-73.93 457.19,-73.63"/>
<polygon fill="#63b8ff" stroke="#63b8ff" points="949.63,-119.54 959.86,-116.77 950.13,-112.56 949.63,-119.54"/>
</a>
</g>
</g>
<!-- Node10 -->
<g id="Node000010" class="node">
<title>Node10</title>
<g id="a_Node000010"><a xlink:href="_example_tree_helper_8hh.html" target="_top" xlink:title=" ">
<polygon fill="white" stroke="#666666" points="588,-74.5 474.5,-74.5 474.5,-55.25 588,-55.25 588,-74.5"/>
<text text-anchor="middle" x="531.25" y="-61" font-family="Helvetica,sans-Serif" font-size="10.00">ExampleTreeHelper.hh</text>
</a>
</g>
</g>
<!-- Node2&#45;&gt;Node10 -->
<g id="edge9_Node000002_Node000010" class="edge">
<title>Node2&#45;&gt;Node10</title>
<g id="a_edge9_Node000002_Node000010"><a xlink:title=" ">
<path fill="none" stroke="#63b8ff" d="M949.71,-114.47C876.76,-106.62 725.25,-90.07 597.25,-74.5 594.38,-74.15 591.45,-73.79 588.48,-73.42"/>
<polygon fill="#63b8ff" stroke="#63b8ff" points="949.32,-117.95 959.64,-115.54 950.07,-110.99 949.32,-117.95"/>
</a>
</g>
</g>
<!-- Node12 -->
<g id="Node000012" class="node">
<title>Node12</title>
<g id="a_Node000012"><a xlink:href="_example_tree_selector_8h.html" target="_top" xlink:title=" ">
<polygon fill="white" stroke="#666666" points="722.12,-74.5 606.38,-74.5 606.38,-55.25 722.12,-55.25 722.12,-74.5"/>
<text text-anchor="middle" x="664.25" y="-61" font-family="Helvetica,sans-Serif" font-size="10.00">ExampleTreeSelector.h</text>
</a>
</g>
</g>
<!-- Node2&#45;&gt;Node12 -->
<g id="edge11_Node000002_Node000012" class="edge">
<title>Node2&#45;&gt;Node12</title>
<g id="a_edge11_Node000002_Node000012"><a xlink:title=" ">
<path fill="none" stroke="#63b8ff" d="M950.28,-112.17C891.39,-102.64 785.51,-85.5 720.41,-74.96"/>
<polygon fill="#63b8ff" stroke="#63b8ff" points="949.48,-115.59 959.91,-113.73 950.6,-108.68 949.48,-115.59"/>
</a>
</g>
</g>
<!-- Node14 -->
<g id="Node000014" class="node">
<title>Node14</title>
<g id="a_Node000014"><a xlink:href="_fast_timing_hist_selector_8h.html" target="_top" xlink:title=" ">
<polygon fill="white" stroke="#666666" points="866.38,-74.5 740.12,-74.5 740.12,-55.25 866.38,-55.25 866.38,-74.5"/>
<text text-anchor="middle" x="803.25" y="-61" font-family="Helvetica,sans-Serif" font-size="10.00">FastTimingHistSelector.h</text>
</a>
</g>
</g>
<!-- Node2&#45;&gt;Node14 -->
<g id="edge13_Node000002_Node000014" class="edge">
<title>Node2&#45;&gt;Node14</title>
<g id="a_edge13_Node000002_Node000014"><a xlink:title=" ">
<path fill="none" stroke="#63b8ff" d="M950.68,-107.19C915.91,-97.45 867.51,-83.89 835.79,-75"/>
<polygon fill="#63b8ff" stroke="#63b8ff" points="949.42,-110.48 959.99,-109.8 951.31,-103.73 949.42,-110.48"/>
</a>
</g>
</g>
<!-- Node16 -->
<g id="Node000016" class="node">
<title>Node16</title>
<g id="a_Node000016"><a xlink:href="_get_tree_entries_8cxx.html" target="_top" xlink:title=" ">
<polygon fill="white" stroke="#666666" points="982.12,-74.5 884.38,-74.5 884.38,-55.25 982.12,-55.25 982.12,-74.5"/>
<text text-anchor="middle" x="933.25" y="-61" font-family="Helvetica,sans-Serif" font-size="10.00">GetTreeEntries.cxx</text>
</a>
</g>
</g>
<!-- Node2&#45;&gt;Node16 -->
<g id="edge15_Node000002_Node000016" class="edge">
<title>Node2&#45;&gt;Node16</title>
<g id="a_edge15_Node000002_Node000016"><a xlink:title=" ">
<path fill="none" stroke="#63b8ff" d="M974.67,-102.64C964.31,-93.44 951.82,-82.35 943.28,-74.77"/>
<polygon fill="#63b8ff" stroke="#63b8ff" points="972.14,-105.07 981.94,-109.09 976.78,-99.83 972.14,-105.07"/>
</a>
</g>
</g>
<!-- Node17 -->
<g id="Node000017" class="node">
<title>Node17</title>
<g id="a_Node000017"><a xlink:href="_t_g_r_s_i_mnemonic_8cxx.html" target="_top" xlink:title=" ">
<polygon fill="white" stroke="#666666" points="1108,-74.5 1000.5,-74.5 1000.5,-55.25 1108,-55.25 1108,-74.5"/>
<text text-anchor="middle" x="1054.25" y="-61" font-family="Helvetica,sans-Serif" font-size="10.00">TGRSIMnemonic.cxx</text>
</a>
</g>
</g>
<!-- Node2&#45;&gt;Node17 -->
<g id="edge16_Node000002_Node000017" class="edge">
<title>Node2&#45;&gt;Node17</title>
<g id="a_edge16_Node000002_Node000017"><a xlink:title=" ">
<path fill="none" stroke="#63b8ff" d="M1012.14,-102.64C1022.67,-93.44 1035.37,-82.35 1044.06,-74.77"/>
<polygon fill="#63b8ff" stroke="#63b8ff" points="1009.97,-99.88 1004.74,-109.1 1014.57,-105.16 1009.97,-99.88"/>
</a>
</g>
</g>
<!-- Node18 -->
<g id="Node000018" class="node">
<title>Node18</title>
<g id="a_Node000018"><a xlink:href="_t_sceptar_8cxx.html" target="_top" xlink:title=" ">
<polygon fill="white" stroke="#666666" points="1198.38,-74.5 1126.12,-74.5 1126.12,-55.25 1198.38,-55.25 1198.38,-74.5"/>
<text text-anchor="middle" x="1162.25" y="-61" font-family="Helvetica,sans-Serif" font-size="10.00">TSceptar.cxx</text>
</a>
</g>
</g>
<!-- Node2&#45;&gt;Node18 -->
<g id="edge17_Node000002_Node000018" class="edge">
<title>Node2&#45;&gt;Node18</title>
<g id="a_edge17_Node000002_Node000018"><a xlink:title=" ">
<path fill="none" stroke="#63b8ff" d="M1032.72,-106.69C1063.57,-96.97 1105.71,-83.69 1133.44,-74.95"/>
<polygon fill="#63b8ff" stroke="#63b8ff" points="1031.85,-103.29 1023.36,-109.64 1033.95,-109.97 1031.85,-103.29"/>
</a>
</g>
</g>
<!-- Node2&#45;&gt;Node19 -->
<g id="edge18_Node000002_Node000019" class="edge">
<title>Node2&#45;&gt;Node19</title>
<g id="a_edge18_Node000002_Node000019"><a xlink:title=" ">
<path fill="none" stroke="#63b8ff" d="M1036.64,-117.82C1144.69,-114.23 1434.35,-102.57 1674.25,-74.5 1676.93,-74.19 1679.67,-73.83 1682.44,-73.44"/>
<polygon fill="#63b8ff" stroke="#63b8ff" points="1036.66,-114.32 1026.78,-118.14 1036.89,-121.31 1036.66,-114.32"/>
</a>
</g>
</g>
<!-- Node20 -->
<g id="Node000020" class="node">
<title>Node20</title>
<g id="a_Node000020"><a xlink:href="_tac_offset_helper_8hh.html" target="_top" xlink:title=" ">
<polygon fill="white" stroke="#666666" points="1316.25,-74.5 1216.25,-74.5 1216.25,-55.25 1316.25,-55.25 1316.25,-74.5"/>
<text text-anchor="middle" x="1266.25" y="-61" font-family="Helvetica,sans-Serif" font-size="10.00">TacOffsetHelper.hh</text>
</a>
</g>
</g>
<!-- Node2&#45;&gt;Node20 -->
<g id="edge19_Node000002_Node000020" class="edge">
<title>Node2&#45;&gt;Node20</title>
<g id="a_edge19_Node000002_Node000020"><a xlink:title=" ">
<path fill="none" stroke="#63b8ff" d="M1036.43,-110.7C1086.38,-100.96 1168.32,-84.98 1219.67,-74.96"/>
<polygon fill="#63b8ff" stroke="#63b8ff" points="1036,-107.22 1026.85,-112.57 1037.34,-114.09 1036,-107.22"/>
</a>
</g>
</g>
<!-- Node22 -->
<g id="Node000022" class="node">
<title>Node22</title>
<g id="a_Node000022"><a xlink:href="_time_walk_helper_8hh.html" target="_top" xlink:title=" ">
<polygon fill="white" stroke="#666666" points="1434.62,-74.5 1333.88,-74.5 1333.88,-55.25 1434.62,-55.25 1434.62,-74.5"/>
<text text-anchor="middle" x="1384.25" y="-61" font-family="Helvetica,sans-Serif" font-size="10.00">TimeWalkHelper.hh</text>
</a>
</g>
</g>
<!-- Node2&#45;&gt;Node22 -->
<g id="edge21_Node000002_Node000022" class="edge">
<title>Node2&#45;&gt;Node22</title>
<g id="a_edge21_Node000002_Node000022"><a xlink:title=" ">
<path fill="none" stroke="#63b8ff" d="M1036.45,-113.48C1099.82,-105.16 1221.69,-89.03 1325.25,-74.5 1327.92,-74.13 1330.65,-73.74 1333.41,-73.35"/>
<polygon fill="#63b8ff" stroke="#63b8ff" points="1036.28,-109.97 1026.82,-114.74 1037.19,-116.91 1036.28,-109.97"/>
</a>
</g>
</g>
<!-- Node24 -->
<g id="Node000024" class="node">
<title>Node24</title>
<g id="a_Node000024"><a xlink:href="_time_walk_selector_8h.html" target="_top" xlink:title=" ">
<polygon fill="white" stroke="#666666" points="1555.75,-74.5 1452.75,-74.5 1452.75,-55.25 1555.75,-55.25 1555.75,-74.5"/>
<text text-anchor="middle" x="1504.25" y="-61" font-family="Helvetica,sans-Serif" font-size="10.00">TimeWalkSelector.h</text>
</a>
</g>
</g>
<!-- Node2&#45;&gt;Node24 -->
<g id="edge23_Node000002_Node000024" class="edge">
<title>Node2&#45;&gt;Node24</title>
<g id="a_edge23_Node000002_Node000024"><a xlink:title=" ">
<path fill="none" stroke="#63b8ff" d="M1036.33,-115.45C1116.52,-108.49 1294.11,-92.43 1443.25,-74.5 1446.22,-74.14 1449.28,-73.76 1452.36,-73.36"/>
<polygon fill="#63b8ff" stroke="#63b8ff" points="1036.39,-111.94 1026.73,-116.28 1036.99,-118.91 1036.39,-111.94"/>
</a>
</g>
</g>
<!-- Node26 -->
<g id="Node000026" class="node">
<title>Node26</title>
<g id="a_Node000026"><a xlink:href="tac__calibrator_8cxx.html" target="_top" xlink:title=" ">
<polygon fill="white" stroke="#666666" points="1664.75,-74.5 1573.75,-74.5 1573.75,-55.25 1664.75,-55.25 1664.75,-74.5"/>
<text text-anchor="middle" x="1619.25" y="-61" font-family="Helvetica,sans-Serif" font-size="10.00">tac_calibrator.cxx</text>
</a>
</g>
</g>
<!-- Node2&#45;&gt;Node26 -->
<g id="edge25_Node000002_Node000026" class="edge">
<title>Node2&#45;&gt;Node26</title>
<g id="a_edge25_Node000002_Node000026"><a xlink:title=" ">
<path fill="none" stroke="#63b8ff" d="M1036.49,-116.94C1132.07,-111.86 1368.46,-97.85 1565.25,-74.5 1567.89,-74.19 1570.6,-73.84 1573.33,-73.47"/>
<polygon fill="#63b8ff" stroke="#63b8ff" points="1036.59,-113.43 1026.79,-117.45 1036.96,-120.42 1036.59,-113.43"/>
</a>
</g>
</g>
<!-- Node4 -->
<g id="Node000004" class="node">
<title>Node4</title>
<g id="a_Node000004"><a xlink:href="_angular_correlation_selector_8_c.html" target="_top" xlink:title=" ">
<polygon fill="white" stroke="#666666" points="140.5,-19.25 0,-19.25 0,0 140.5,0 140.5,-19.25"/>
<text text-anchor="middle" x="70.25" y="-5.75" font-family="Helvetica,sans-Serif" font-size="10.00">AngularCorrelationSelector.C</text>
</a>
</g>
</g>
<!-- Node3&#45;&gt;Node4 -->
<g id="edge3_Node000003_Node000004" class="edge">
<title>Node3&#45;&gt;Node4</title>
<g id="a_edge3_Node000003_Node000004"><a xlink:title=" ">
<path fill="none" stroke="#63b8ff" d="M70.87,-43.63C70.71,-35.34 70.54,-26.17 70.42,-19.61"/>
<polygon fill="#63b8ff" stroke="#63b8ff" points="67.37,-43.64 71.06,-53.57 74.37,-43.5 67.37,-43.64"/>
</a>
</g>
</g>
<!-- Node6 -->
<g id="Node000006" class="node">
<title>Node6</title>
<g id="a_Node000006"><a xlink:href="_cross_talk_8_c.html" target="_top" xlink:title=" ">
<polygon fill="white" stroke="#666666" points="227.88,-19.25 158.62,-19.25 158.62,0 227.88,0 227.88,-19.25"/>
<text text-anchor="middle" x="193.25" y="-5.75" font-family="Helvetica,sans-Serif" font-size="10.00">CrossTalk.C</text>
</a>
</g>
</g>
<!-- Node5&#45;&gt;Node6 -->
<g id="edge5_Node000005_Node000006" class="edge">
<title>Node5&#45;&gt;Node6</title>
<g id="a_edge5_Node000005_Node000006"><a xlink:title=" ">
<path fill="none" stroke="#63b8ff" d="M192.63,-43.63C192.79,-35.34 192.96,-26.17 193.08,-19.61"/>
<polygon fill="#63b8ff" stroke="#63b8ff" points="189.13,-43.5 192.44,-53.57 196.13,-43.64 189.13,-43.5"/>
</a>
</g>
</g>
<!-- Node9 -->
<g id="Node000009" class="node">
<title>Node9</title>
<g id="a_Node000009"><a xlink:href="_example_event_selector_8_c.html" target="_top" xlink:title=" ">
<polygon fill="white" stroke="#666666" points="453.5,-19.25 331,-19.25 331,0 453.5,0 453.5,-19.25"/>
<text text-anchor="middle" x="392.25" y="-5.75" font-family="Helvetica,sans-Serif" font-size="10.00">ExampleEventSelector.C</text>
</a>
</g>
</g>
<!-- Node8&#45;&gt;Node9 -->
<g id="edge8_Node000008_Node000009" class="edge">
<title>Node8&#45;&gt;Node9</title>
<g id="a_edge8_Node000008_Node000009"><a xlink:title=" ">
<path fill="none" stroke="#63b8ff" d="M394.73,-43.63C394.11,-35.34 393.42,-26.17 392.92,-19.61"/>
<polygon fill="#63b8ff" stroke="#63b8ff" points="391.24,-43.86 395.48,-53.57 398.22,-43.34 391.24,-43.86"/>
</a>
</g>
</g>
<!-- Node11 -->
<g id="Node000011" class="node">
<title>Node11</title>
<g id="a_Node000011"><a xlink:href="_example_tree_helper_8cxx.html" target="_top" xlink:title=" ">
<polygon fill="white" stroke="#666666" points="588.88,-19.25 471.62,-19.25 471.62,0 588.88,0 588.88,-19.25"/>
<text text-anchor="middle" x="530.25" y="-5.75" font-family="Helvetica,sans-Serif" font-size="10.00">ExampleTreeHelper.cxx</text>
</a>
</g>
</g>
<!-- Node10&#45;&gt;Node11 -->
<g id="edge10_Node000010_Node000011" class="edge">
<title>Node10&#45;&gt;Node11</title>
<g id="a_edge10_Node000010_Node000011"><a xlink:title=" ">
<path fill="none" stroke="#63b8ff" d="M530.87,-43.63C530.71,-35.34 530.54,-26.17 530.42,-19.61"/>
<polygon fill="#63b8ff" stroke="#63b8ff" points="527.37,-43.64 531.06,-53.57 534.37,-43.5 527.37,-43.64"/>
</a>
</g>
</g>
<!-- Node13 -->
<g id="Node000013" class="node">
<title>Node13</title>
<g id="a_Node000013"><a xlink:href="_example_tree_selector_8_c.html" target="_top" xlink:title=" ">
<polygon fill="white" stroke="#666666" points="723.88,-19.25 606.62,-19.25 606.62,0 723.88,0 723.88,-19.25"/>
<text text-anchor="middle" x="665.25" y="-5.75" font-family="Helvetica,sans-Serif" font-size="10.00">ExampleTreeSelector.C</text>
</a>
</g>
</g>
<!-- Node12&#45;&gt;Node13 -->
<g id="edge12_Node000012_Node000013" class="edge">
<title>Node12&#45;&gt;Node13</title>
<g id="a_edge12_Node000012_Node000013"><a xlink:title=" ">
<path fill="none" stroke="#63b8ff" d="M664.63,-43.63C664.79,-35.34 664.96,-26.17 665.08,-19.61"/>
<polygon fill="#63b8ff" stroke="#63b8ff" points="661.13,-43.5 664.44,-53.57 668.13,-43.64 661.13,-43.5"/>
</a>
</g>
</g>
<!-- Node15 -->
<g id="Node000015" class="node">
<title>Node15</title>
<g id="a_Node000015"><a xlink:href="_fast_timing_hist_selector_8_c.html" target="_top" xlink:title=" ">
<polygon fill="white" stroke="#666666" points="870.12,-19.25 742.38,-19.25 742.38,0 870.12,0 870.12,-19.25"/>
<text text-anchor="middle" x="806.25" y="-5.75" font-family="Helvetica,sans-Serif" font-size="10.00">FastTimingHistSelector.C</text>
</a>
</g>
</g>
<!-- Node14&#45;&gt;Node15 -->
<g id="edge14_Node000014_Node000015" class="edge">
<title>Node14&#45;&gt;Node15</title>
<g id="a_edge14_Node000014_Node000015"><a xlink:title=" ">
<path fill="none" stroke="#63b8ff" d="M804.39,-43.63C804.86,-35.34 805.37,-26.17 805.74,-19.61"/>
<polygon fill="#63b8ff" stroke="#63b8ff" points="800.9,-43.39 803.83,-53.57 807.89,-43.78 800.9,-43.39"/>
</a>
</g>
</g>
<!-- Node21 -->
<g id="Node000021" class="node">
<title>Node21</title>
<g id="a_Node000021"><a xlink:href="_tac_offset_helper_8cxx.html" target="_top" xlink:title=" ">
<polygon fill="white" stroke="#666666" points="1314.12,-19.25 1210.38,-19.25 1210.38,0 1314.12,0 1314.12,-19.25"/>
<text text-anchor="middle" x="1262.25" y="-5.75" font-family="Helvetica,sans-Serif" font-size="10.00">TacOffsetHelper.cxx</text>
</a>
</g>
</g>
<!-- Node20&#45;&gt;Node21 -->
<g id="edge20_Node000020_Node000021" class="edge">
<title>Node20&#45;&gt;Node21</title>
<g id="a_edge20_Node000020_Node000021"><a xlink:title=" ">
<path fill="none" stroke="#63b8ff" d="M1264.73,-43.63C1264.11,-35.34 1263.42,-26.17 1262.92,-19.61"/>
<polygon fill="#63b8ff" stroke="#63b8ff" points="1261.24,-43.86 1265.48,-53.57 1268.22,-43.34 1261.24,-43.86"/>
</a>
</g>
</g>
<!-- Node23 -->
<g id="Node000023" class="node">
<title>Node23</title>
<g id="a_Node000023"><a xlink:href="_time_walk_helper_8cxx.html" target="_top" xlink:title=" ">
<polygon fill="white" stroke="#666666" points="1436.5,-19.25 1332,-19.25 1332,0 1436.5,0 1436.5,-19.25"/>
<text text-anchor="middle" x="1384.25" y="-5.75" font-family="Helvetica,sans-Serif" font-size="10.00">TimeWalkHelper.cxx</text>
</a>
</g>
</g>
<!-- Node22&#45;&gt;Node23 -->
<g id="edge22_Node000022_Node000023" class="edge">
<title>Node22&#45;&gt;Node23</title>
<g id="a_edge22_Node000022_Node000023"><a xlink:title=" ">
<path fill="none" stroke="#63b8ff" d="M1384.25,-43.63C1384.25,-35.34 1384.25,-26.17 1384.25,-19.61"/>
<polygon fill="#63b8ff" stroke="#63b8ff" points="1380.75,-43.57 1384.25,-53.57 1387.75,-43.57 1380.75,-43.57"/>
</a>
</g>
</g>
<!-- Node25 -->
<g id="Node000025" class="node">
<title>Node25</title>
<g id="a_Node000025"><a xlink:href="_time_walk_selector_8_c.html" target="_top" xlink:title=" ">
<polygon fill="white" stroke="#666666" points="1559.5,-19.25 1455,-19.25 1455,0 1559.5,0 1559.5,-19.25"/>
<text text-anchor="middle" x="1507.25" y="-5.75" font-family="Helvetica,sans-Serif" font-size="10.00">TimeWalkSelector.C</text>
</a>
</g>
</g>
<!-- Node24&#45;&gt;Node25 -->
<g id="edge24_Node000024_Node000025" class="edge">
<title>Node24&#45;&gt;Node25</title>
<g id="a_edge24_Node000024_Node000025"><a xlink:title=" ">
<path fill="none" stroke="#63b8ff" d="M1505.39,-43.63C1505.86,-35.34 1506.37,-26.17 1506.74,-19.61"/>
<polygon fill="#63b8ff" stroke="#63b8ff" points="1501.9,-43.39 1504.83,-53.57 1508.89,-43.78 1501.9,-43.39"/>
</a>
</g>
</g>
</g>
</svg>

<g id="navigator" transform="translate(0 0)" fill="#404254">
  <rect fill="#f2f5e9" fill-opacity="0.5" stroke="#606060" stroke-width=".5" x="0" y="0" width="60" height="60"/>
  <use id="zoomplus" xlink:href="#zoomPlus" x="17" y="9" onmousedown="handleZoom(evt,'in')"/>
  <use id="zoomminus" xlink:href="#zoomMin" x="42" y="9" onmousedown="handleZoom(evt,'out')"/>
  <use id="reset" xlink:href="#resetDef" x="30" y="36" onmousedown="handleReset()"/>
   <use id="arrowup" xlink:href="#arrowUp" x="0" y="0" onmousedown="handlePan(0,-1)"/>
  <use id="arrowright" xlink:href="#arrowRight" x="0" y="0" onmousedown="handlePan(1,0)"/>
  <use id="arrowdown" xlink:href="#arrowDown" x="0" y="0" onmousedown="handlePan(0,1)"/>
  <use id="arrowleft" xlink:href="#arrowLeft" x="0" y="0" onmousedown="handlePan(-1,0)"/>
</g>
<svg viewBox="0 0 15 15" width="100%" height="30px" preserveAspectRatio="xMaxYMin meet">
 <g id="arrow_out" transform="scale(0.3 0.3)">
  <a xlink:href="_t_sceptar_hit_8h__dep__incl_org.svg" target="_base">
   <rect id="button" ry="5" rx="5" y="6" x="6" height="38" width="38"
        fill="#f2f5e9" fill-opacity="0.5" stroke="#606060" stroke-width="1.0"/>
   <path id="arrow"
     d="M 11.500037,31.436501 C 11.940474,20.09759 22.043105,11.32322 32.158766,21.979434 L 37.068811,17.246167 C 37.068811,17.246167 37.088388,32 37.088388,32 L 22.160133,31.978069 C 22.160133,31.978069 26.997745,27.140456 26.997745,27.140456 C 18.528582,18.264221 13.291696,25.230495 11.500037,31.436501 z"
     style="fill:#404040;"/>
  </a>
 </g>
</svg>

<style type='text/css'>
<![CDATA[
[data-mouse-over-selected='false'] { opacity: 0.7; }
[data-mouse-over-selected='true']  { opacity: 1.0; }
]]>
</style>
<script type="application/ecmascript"><![CDATA[
document.addEventListener('DOMContentLoaded', (event) => {
  highlightEdges();
  highlightAdjacentNodes();
});
]]></script>
</svg>
