<?xml version="1.0" encoding="UTF-8" standalone="no"?>
<!DOCTYPE svg PUBLIC "-//W3C//DTD SVG 1.1//EN"
 "http://www.w3.org/Graphics/SVG/1.1/DTD/svg11.dtd">
<!-- Generated by graphviz version 12.2.0 (20241103.1931)
 -->
<!-- Title: TSharcHit.h Pages: 1 -->
<!--zoomable 359 -->

<svg id="main" version="1.1" xmlns="http://www.w3.org/2000/svg" xmlns:xlink="http://www.w3.org/1999/xlink" xml:space="preserve" onload="init(evt)">

<style type="text/css"><![CDATA[
.node, .edge {opacity: 0.7;}
.node.selected, .edge.selected {opacity: 1;}
.edge:hover path { stroke: red; }
.edge:hover polygon { stroke: red; fill: red; }
]]></style>

<defs>
  <circle id="rim" cx="0" cy="0" r="7"/>
  <circle id="rim2" cx="0" cy="0" r="3.5"/>
  <g id="zoomPlus">
    <use xlink:href="#rim" fill="#404040"><set attributeName="fill" to="#808080" begin="zoomplus.mouseover" end="zoomplus.mouseout"/></use>
    <path d="M-4,0h8M0,-4v8" fill="none" stroke="white" stroke-width="1.5" pointer-events="none"/>
  </g>
  <g id="zoomMin">
    <use xlink:href="#rim" fill="#404040"><set attributeName="fill" to="#808080" begin="zoomminus.mouseover" end="zoomminus.mouseout"/></use>
    <path d="M-4,0h8" fill="none" stroke="white" stroke-width="1.5" pointer-events="none"/>
  </g>
  <g id="arrowUp" transform="translate(30 24)">
    <use xlink:href="#rim"/>
    <path pointer-events="none" fill="none" stroke="white" stroke-width="1.5" d="M0,-3.0v7 M-2.5,-0.5L0,-3.0L2.5,-0.5"/>
  </g>
  <g id="arrowRight" transform="rotate(90) translate(36 -43)">
    <use xlink:href="#rim"/>
    <path pointer-events="none" fill="none" stroke="white" stroke-width="1.5" d="M0,-3.0v7 M-2.5,-0.5L0,-3.0L2.5,-0.5"/>
  </g>
  <g id="arrowDown" transform="rotate(180) translate(-30 -48)">
    <use xlink:href="#rim"/>
    <path pointer-events="none" fill="none" stroke="white" stroke-width="1.5" d="M0,-3.0v7 M-2.5,-0.5L0,-3.0L2.5,-0.5"/>
  </g>
  <g id="arrowLeft" transform="rotate(270) translate(-36 17)">
    <use xlink:href="#rim"/>
    <path pointer-events="none" fill="none" stroke="white" stroke-width="1.5" d="M0,-3.0v7 M-2.5,-0.5L0,-3.0L2.5,-0.5"/>
  </g>
  <g id="resetDef">
    <use xlink:href="#rim2" fill="#404040"><set attributeName="fill" to="#808080" begin="reset.mouseover" end="reset.mouseout"/></use>
  </g>
</defs>
<script type="application/ecmascript">
var viewWidth = 1777;
var viewHeight = 359;
var sectionId = 'dynsection-0';
</script>
<script type="application/ecmascript" xlink:href="svg.min.js"/>
<svg id="graph" class="graph">
<g id="viewport">
<title>TSharcHit.h</title>
<!-- Node1 -->
<g id="Node000001" class="node">
<title>Node1</title>
<g id="a_Node000001"><a xlink:title=" ">
<polygon fill="#999999" stroke="#666666" points="1009,-350.75 941.25,-350.75 941.25,-331.5 1009,-331.5 1009,-350.75"/>
<text text-anchor="middle" x="975.12" y="-337.25" font-family="Helvetica,sans-Serif" font-size="10.00">TSharcHit.h</text>
</a>
</g>
</g>
<!-- Node2 -->
<g id="Node000002" class="node">
<title>Node2</title>
<g id="a_Node000002"><a xlink:title=" ">
<polygon fill="#e0e0e0" stroke="#999999" points="42.25,-19.25 0,-19.25 0,0 42.25,0 42.25,-19.25"/>
<text text-anchor="middle" x="21.12" y="-5.75" font-family="Helvetica,sans-Serif" font-size="10.00">cstdio</text>
</a>
</g>
</g>
<!-- Node1&#45;&gt;Node2 -->
<g id="edge1_Node000001_Node000002" class="edge">
<title>Node1&#45;&gt;Node2</title>
<g id="a_edge1_Node000001_Node000002"><a xlink:title=" ">
<path fill="none" stroke="#63b8ff" d="M940.9,-339.02C790.55,-333.73 196.12,-307.96 196.12,-231.62 196.12,-231.62 196.12,-231.62 196.12,-119.12 196.12,-85.82 103.42,-43.52 52.96,-22.96"/>
<polygon fill="#63b8ff" stroke="#63b8ff" points="54.57,-19.84 43.99,-19.36 51.97,-26.33 54.57,-19.84"/>
</a>
</g>
</g>
<!-- Node3 -->
<g id="Node000003" class="node">
<title>Node3</title>
<g id="a_Node000003"><a xlink:title=" ">
<polygon fill="#e0e0e0" stroke="#999999" points="913.38,-129.75 874.88,-129.75 874.88,-110.5 913.38,-110.5 913.38,-129.75"/>
<text text-anchor="middle" x="894.12" y="-116.25" font-family="Helvetica,sans-Serif" font-size="10.00">utility</text>
</a>
</g>
</g>
<!-- Node1&#45;&gt;Node3 -->
<g id="edge2_Node000001_Node000003" class="edge">
<title>Node1&#45;&gt;Node3</title>
<g id="a_edge2_Node000001_Node000003"><a xlink:title=" ">
<path fill="none" stroke="#63b8ff" d="M951.07,-331.1C933.47,-323.6 909.84,-311.56 893.12,-295.5 872.5,-275.68 867.73,-267.82 860.12,-240.25 850.3,-204.63 868.97,-163.17 882.32,-139.75"/>
<polygon fill="#63b8ff" stroke="#63b8ff" points="885.2,-141.75 887.35,-131.37 879.2,-138.15 885.2,-141.75"/>
</a>
</g>
</g>
<!-- Node4 -->
<g id="Node000004" class="node">
<title>Node4</title>
<g id="a_Node000004"><a xlink:title=" ">
<polygon fill="#e0e0e0" stroke="#999999" points="1389.75,-185 1326.5,-185 1326.5,-165.75 1389.75,-165.75 1389.75,-185"/>
<text text-anchor="middle" x="1358.12" y="-171.5" font-family="Helvetica,sans-Serif" font-size="10.00">TVector3.h</text>
</a>
</g>
</g>
<!-- Node1&#45;&gt;Node4 -->
<g id="edge3_Node000001_Node000004" class="edge">
<title>Node1&#45;&gt;Node4</title>
<g id="a_edge3_Node000001_Node000004"><a xlink:title=" ">
<path fill="none" stroke="#63b8ff" d="M990.37,-331.1C1005.54,-322.11 1029.47,-307.9 1050.12,-295.5 1104.92,-262.6 1114.03,-245.34 1173.12,-221 1186.23,-215.61 1264.82,-197.41 1315.27,-185.98"/>
<polygon fill="#63b8ff" stroke="#63b8ff" points="1315.73,-189.47 1324.71,-183.85 1314.19,-182.64 1315.73,-189.47"/>
</a>
</g>
</g>
<!-- Node5 -->
<g id="Node000005" class="node">
<title>Node5</title>
<g id="a_Node000005"><a xlink:title=" ">
<polygon fill="#e0e0e0" stroke="#999999" points="943.12,-74.5 885.12,-74.5 885.12,-55.25 943.12,-55.25 943.12,-74.5"/>
<text text-anchor="middle" x="914.12" y="-61" font-family="Helvetica,sans-Serif" font-size="10.00">TObject.h</text>
</a>
</g>
</g>
<!-- Node1&#45;&gt;Node5 -->
<g id="edge4_Node000001_Node000005" class="edge">
<title>Node1&#45;&gt;Node5</title>
<g id="a_edge4_Node000001_Node000005"><a xlink:title=" ">
<path fill="none" stroke="#63b8ff" d="M940.86,-333.18C918.2,-326.92 889.41,-315.52 871.12,-295.5 853.71,-276.43 857.18,-265.76 853.12,-240.25 844.04,-183.01 839.68,-162.07 866.12,-110.5 871.97,-99.11 881.94,-89.11 891.29,-81.48"/>
<polygon fill="#63b8ff" stroke="#63b8ff" points="893.2,-84.43 899.05,-75.6 888.97,-78.85 893.2,-84.43"/>
</a>
</g>
</g>
<!-- Node6 -->
<g id="Node000006" class="node">
<title>Node6</title>
<g id="a_Node000006"><a xlink:title=" ">
<polygon fill="#e0e0e0" stroke="#999999" points="1472.88,-185 1407.38,-185 1407.38,-165.75 1472.88,-165.75 1472.88,-185"/>
<text text-anchor="middle" x="1440.12" y="-171.5" font-family="Helvetica,sans-Serif" font-size="10.00">TRandom.h</text>
</a>
</g>
</g>
<!-- Node1&#45;&gt;Node6 -->
<g id="edge5_Node000001_Node000006" class="edge">
<title>Node1&#45;&gt;Node6</title>
<g id="a_edge5_Node000001_Node000006"><a xlink:title=" ">
<path fill="none" stroke="#63b8ff" d="M1000.79,-331.09C1078.66,-303.66 1312.48,-221.33 1403.4,-189.31"/>
<polygon fill="#63b8ff" stroke="#63b8ff" points="1404.56,-192.61 1412.83,-185.99 1402.23,-186.01 1404.56,-192.61"/>
</a>
</g>
</g>
<!-- Node7 -->
<g id="Node000007" class="node">
<title>Node7</title>
<g id="a_Node000007"><a xlink:title=" ">
<polygon fill="#e0e0e0" stroke="#999999" points="1008.88,-185 955.38,-185 955.38,-165.75 1008.88,-165.75 1008.88,-185"/>
<text text-anchor="middle" x="982.12" y="-171.5" font-family="Helvetica,sans-Serif" font-size="10.00">Rtypes.h</text>
</a>
</g>
</g>
<!-- Node1&#45;&gt;Node7 -->
<g id="edge6_Node000001_Node000007" class="edge">
<title>Node1&#45;&gt;Node7</title>
<g id="a_edge6_Node000001_Node000007"><a xlink:title=" ">
<path fill="none" stroke="#63b8ff" d="M976.65,-331.27C978.12,-322.29 980.24,-307.98 981.12,-295.5 983.59,-260.86 983.25,-220.41 982.73,-196.68"/>
<polygon fill="#63b8ff" stroke="#63b8ff" points="986.23,-196.78 982.47,-186.87 979.23,-196.96 986.23,-196.78"/>
</a>
</g>
</g>
<!-- Node8 -->
<g id="Node000008" class="node">
<title>Node8</title>
<g id="a_Node000008"><a xlink:title=" ">
<polygon fill="#e0e0e0" stroke="#999999" points="1266.75,-295.5 1215.5,-295.5 1215.5,-276.25 1266.75,-276.25 1266.75,-295.5"/>
<text text-anchor="middle" x="1241.12" y="-282" font-family="Helvetica,sans-Serif" font-size="10.00">TMath.h</text>
</a>
</g>
</g>
<!-- Node1&#45;&gt;Node8 -->
<g id="edge7_Node000001_Node000008" class="edge">
<title>Node1&#45;&gt;Node8</title>
<g id="a_edge7_Node000001_Node000008"><a xlink:title=" ">
<path fill="none" stroke="#63b8ff" d="M1009.24,-333.58C1053.52,-325.04 1133.17,-309.53 1201.12,-295.5 1202.13,-295.29 1203.15,-295.08 1204.18,-294.87"/>
<polygon fill="#63b8ff" stroke="#63b8ff" points="1204.78,-298.32 1213.84,-292.82 1203.33,-291.47 1204.78,-298.32"/>
</a>
</g>
</g>
<!-- Node9 -->
<g id="Node000009" class="node">
<title>Node9</title>
<g id="a_Node000009"><a xlink:href="_globals_8h.html" target="_top" xlink:title=" ">
<polygon fill="white" stroke="#666666" points="457.38,-74.5 400.88,-74.5 400.88,-55.25 457.38,-55.25 457.38,-74.5"/>
<text text-anchor="middle" x="429.12" y="-61" font-family="Helvetica,sans-Serif" font-size="10.00">Globals.h</text>
</a>
</g>
</g>
<!-- Node1&#45;&gt;Node9 -->
<g id="edge8_Node000001_Node000009" class="edge">
<title>Node1&#45;&gt;Node9</title>
<g id="a_edge8_Node000001_Node000009"><a xlink:title=" ">
<path fill="none" stroke="#63b8ff" d="M940.85,-340.66C820.87,-341.65 427.12,-336.85 427.12,-231.62 427.12,-231.62 427.12,-231.62 427.12,-174.38 427.12,-143.65 427.94,-108.04 428.53,-86.24"/>
<polygon fill="#63b8ff" stroke="#63b8ff" points="432.02,-86.48 428.8,-76.39 425.02,-86.29 432.02,-86.48"/>
</a>
</g>
</g>
<!-- Node23 -->
<g id="Node000023" class="node">
<title>Node23</title>
<g id="a_Node000023"><a xlink:href="_t_detector_hit_8h.html" target="_top" xlink:title=" ">
<polygon fill="white" stroke="#666666" points="1120.62,-240.25 1041.62,-240.25 1041.62,-221 1120.62,-221 1120.62,-240.25"/>
<text text-anchor="middle" x="1081.12" y="-226.75" font-family="Helvetica,sans-Serif" font-size="10.00">TDetectorHit.h</text>
</a>
</g>
</g>
<!-- Node1&#45;&gt;Node23 -->
<g id="edge23_Node000001_Node000023" class="edge">
<title>Node1&#45;&gt;Node23</title>
<g id="a_edge23_Node000001_Node000023"><a xlink:title=" ">
<path fill="none" stroke="#63b8ff" d="M986.75,-331.05C997.6,-322.36 1014.05,-308.67 1027.12,-295.5 1041.64,-280.88 1056.64,-262.85 1067.14,-249.68"/>
<polygon fill="#63b8ff" stroke="#63b8ff" points="1069.85,-251.91 1073.28,-241.88 1064.34,-247.58 1069.85,-251.91"/>
</a>
</g>
</g>
<!-- Node44 -->
<g id="Node000044" class="node">
<title>Node44</title>
<g id="a_Node000044"><a xlink:href="_t_fragment_8h.html" target="_top" xlink:title=" ">
<polygon fill="white" stroke="#666666" points="972.5,-295.5 901.75,-295.5 901.75,-276.25 972.5,-276.25 972.5,-295.5"/>
<text text-anchor="middle" x="937.12" y="-282" font-family="Helvetica,sans-Serif" font-size="10.00">TFragment.h</text>
</a>
</g>
</g>
<!-- Node1&#45;&gt;Node44 -->
<g id="edge60_Node000001_Node000044" class="edge">
<title>Node1&#45;&gt;Node44</title>
<g id="a_edge60_Node000001_Node000044"><a xlink:title=" ">
<path fill="none" stroke="#63b8ff" d="M968.85,-331.33C963.77,-324.21 956.43,-313.93 950.09,-305.05"/>
<polygon fill="#63b8ff" stroke="#63b8ff" points="953.07,-303.2 944.42,-297.09 947.38,-307.26 953.07,-303.2"/>
</a>
</g>
</g>
<!-- Node9&#45;&gt;Node2 -->
<g id="edge13_Node000009_Node000002" class="edge">
<title>Node9&#45;&gt;Node2</title>
<g id="a_edge13_Node000009_Node000002"><a xlink:title=" ">
<path fill="none" stroke="#63b8ff" d="M400.42,-62.08C338.62,-57.89 188.25,-45.87 53.56,-19.45"/>
<polygon fill="#63b8ff" stroke="#63b8ff" points="54.63,-16.09 44.14,-17.56 53.26,-22.95 54.63,-16.09"/>
</a>
</g>
</g>
<!-- Node10 -->
<g id="Node000010" class="node">
<title>Node10</title>
<g id="a_Node000010"><a xlink:title=" ">
<polygon fill="#e0e0e0" stroke="#999999" points="882.88,-19.25 829.38,-19.25 829.38,0 882.88,0 882.88,-19.25"/>
<text text-anchor="middle" x="856.12" y="-5.75" font-family="Helvetica,sans-Serif" font-size="10.00">iostream</text>
</a>
</g>
</g>
<!-- Node9&#45;&gt;Node10 -->
<g id="edge9_Node000009_Node000010" class="edge">
<title>Node9&#45;&gt;Node10</title>
<g id="a_edge9_Node000009_Node000010"><a xlink:title=" ">
<path fill="none" stroke="#63b8ff" d="M457.52,-57.64C462.06,-56.76 466.71,-55.93 471.12,-55.25 621.63,-32.09 664.42,-44.84 817.84,-19.41"/>
<polygon fill="#63b8ff" stroke="#63b8ff" points="818.31,-22.88 827.59,-17.76 817.14,-15.98 818.31,-22.88"/>
</a>
</g>
</g>
<!-- Node11 -->
<g id="Node000011" class="node">
<title>Node11</title>
<g id="a_Node000011"><a xlink:title=" ">
<polygon fill="#e0e0e0" stroke="#999999" points="811,-19.25 761.25,-19.25 761.25,0 811,0 811,-19.25"/>
<text text-anchor="middle" x="786.12" y="-5.75" font-family="Helvetica,sans-Serif" font-size="10.00">iomanip</text>
</a>
</g>
</g>
<!-- Node9&#45;&gt;Node11 -->
<g id="edge10_Node000009_Node000011" class="edge">
<title>Node9&#45;&gt;Node11</title>
<g id="a_edge10_Node000009_Node000011"><a xlink:title=" ">
<path fill="none" stroke="#63b8ff" d="M457.54,-57.74C462.07,-56.85 466.72,-55.98 471.12,-55.25 591.81,-35.16 626.48,-42.33 749.93,-19.45"/>
<polygon fill="#63b8ff" stroke="#63b8ff" points="750.28,-22.95 759.46,-17.65 748.99,-16.07 750.28,-22.95"/>
</a>
</g>
</g>
<!-- Node12 -->
<g id="Node000012" class="node">
<title>Node12</title>
<g id="a_Node000012"><a xlink:title=" ">
<polygon fill="#e0e0e0" stroke="#999999" points="118.12,-19.25 60.12,-19.25 60.12,0 118.12,0 118.12,-19.25"/>
<text text-anchor="middle" x="89.12" y="-5.75" font-family="Helvetica,sans-Serif" font-size="10.00">stdexcept</text>
</a>
</g>
</g>
<!-- Node9&#45;&gt;Node12 -->
<g id="edge11_Node000009_Node000012" class="edge">
<title>Node9&#45;&gt;Node12</title>
<g id="a_edge11_Node000009_Node000012"><a xlink:title=" ">
<path fill="none" stroke="#63b8ff" d="M400.69,-60.41C348.85,-53.94 235.27,-39.03 129.71,-19.61"/>
<polygon fill="#63b8ff" stroke="#63b8ff" points="130.5,-16.2 120.03,-17.81 129.22,-23.08 130.5,-16.2"/>
</a>
</g>
</g>
<!-- Node13 -->
<g id="Node000013" class="node">
<title>Node13</title>
<g id="a_Node000013"><a xlink:title=" ">
<polygon fill="#e0e0e0" stroke="#999999" points="1743.12,-19.25 1703.12,-19.25 1703.12,0 1743.12,0 1743.12,-19.25"/>
<text text-anchor="middle" x="1723.12" y="-5.75" font-family="Helvetica,sans-Serif" font-size="10.00">string</text>
</a>
</g>
</g>
<!-- Node9&#45;&gt;Node13 -->
<g id="edge12_Node000009_Node000013" class="edge">
<title>Node9&#45;&gt;Node13</title>
<g id="a_edge12_Node000009_Node000013"><a xlink:title=" ">
<path fill="none" stroke="#63b8ff" d="M457.73,-61.77C484.26,-59.86 524.84,-57.09 560.12,-55.25 1009.16,-31.86 1556.33,-15.41 1691.72,-11.51"/>
<polygon fill="#63b8ff" stroke="#63b8ff" points="1691.43,-15.02 1701.32,-11.24 1691.23,-8.03 1691.43,-15.02"/>
</a>
</g>
</g>
<!-- Node14 -->
<g id="Node000014" class="node">
<title>Node14</title>
<g id="a_Node000014"><a xlink:title=" ">
<polygon fill="#e0e0e0" stroke="#999999" points="180.38,-19.25 135.88,-19.25 135.88,0 180.38,0 180.38,-19.25"/>
<text text-anchor="middle" x="158.12" y="-5.75" font-family="Helvetica,sans-Serif" font-size="10.00">cstdlib</text>
</a>
</g>
</g>
<!-- Node9&#45;&gt;Node14 -->
<g id="edge14_Node000009_Node000014" class="edge">
<title>Node9&#45;&gt;Node14</title>
<g id="a_edge14_Node000009_Node000014"><a xlink:title=" ">
<path fill="none" stroke="#63b8ff" d="M400.51,-59.39C357.29,-52.43 272.58,-38.1 191.63,-19.67"/>
<polygon fill="#63b8ff" stroke="#63b8ff" points="192.76,-16.34 182.23,-17.51 191.19,-23.16 192.76,-16.34"/>
</a>
</g>
</g>
<!-- Node15 -->
<g id="Node000015" class="node">
<title>Node15</title>
<g id="a_Node000015"><a xlink:title=" ">
<polygon fill="#e0e0e0" stroke="#999999" points="257.88,-19.25 198.38,-19.25 198.38,0 257.88,0 257.88,-19.25"/>
<text text-anchor="middle" x="228.12" y="-5.75" font-family="Helvetica,sans-Serif" font-size="10.00">execinfo.h</text>
</a>
</g>
</g>
<!-- Node9&#45;&gt;Node15 -->
<g id="edge15_Node000009_Node000015" class="edge">
<title>Node9&#45;&gt;Node15</title>
<g id="a_edge15_Node000009_Node000015"><a xlink:title=" ">
<path fill="none" stroke="#63b8ff" d="M400.75,-56.36C366.48,-47.28 308.55,-31.93 269.34,-21.54"/>
<polygon fill="#63b8ff" stroke="#63b8ff" points="270.35,-18.19 259.79,-19.01 268.56,-24.96 270.35,-18.19"/>
</a>
</g>
</g>
<!-- Node16 -->
<g id="Node000016" class="node">
<title>Node16</title>
<g id="a_Node000016"><a xlink:title=" ">
<polygon fill="#e0e0e0" stroke="#999999" points="326.38,-19.25 275.88,-19.25 275.88,0 326.38,0 326.38,-19.25"/>
<text text-anchor="middle" x="301.12" y="-5.75" font-family="Helvetica,sans-Serif" font-size="10.00">cxxabi.h</text>
</a>
</g>
</g>
<!-- Node9&#45;&gt;Node16 -->
<g id="edge16_Node000009_Node000016" class="edge">
<title>Node9&#45;&gt;Node16</title>
<g id="a_edge16_Node000009_Node000016"><a xlink:title=" ">
<path fill="none" stroke="#63b8ff" d="M407.41,-54.84C387.09,-46.39 356.48,-33.65 333.32,-24.02"/>
<polygon fill="#63b8ff" stroke="#63b8ff" points="334.92,-20.89 324.34,-20.28 332.23,-27.36 334.92,-20.89"/>
</a>
</g>
</g>
<!-- Node17 -->
<g id="Node000017" class="node">
<title>Node17</title>
<g id="a_Node000017"><a xlink:title=" ">
<polygon fill="#e0e0e0" stroke="#999999" points="395.75,-19.25 344.5,-19.25 344.5,0 395.75,0 395.75,-19.25"/>
<text text-anchor="middle" x="370.12" y="-5.75" font-family="Helvetica,sans-Serif" font-size="10.00">sstream</text>
</a>
</g>
</g>
<!-- Node9&#45;&gt;Node17 -->
<g id="edge17_Node000009_Node000017" class="edge">
<title>Node9&#45;&gt;Node17</title>
<g id="a_edge17_Node000009_Node000017"><a xlink:title=" ">
<path fill="none" stroke="#63b8ff" d="M419.12,-54.84C410.76,-47.3 398.63,-36.35 388.52,-27.23"/>
<polygon fill="#63b8ff" stroke="#63b8ff" points="390.88,-24.64 381.11,-20.54 386.19,-29.84 390.88,-24.64"/>
</a>
</g>
</g>
<!-- Node18 -->
<g id="Node000018" class="node">
<title>Node18</title>
<g id="a_Node000018"><a xlink:title=" ">
<polygon fill="#e0e0e0" stroke="#999999" points="450.62,-19.25 413.62,-19.25 413.62,0 450.62,0 450.62,-19.25"/>
<text text-anchor="middle" x="432.12" y="-5.75" font-family="Helvetica,sans-Serif" font-size="10.00">array</text>
</a>
</g>
</g>
<!-- Node9&#45;&gt;Node18 -->
<g id="edge18_Node000009_Node000018" class="edge">
<title>Node9&#45;&gt;Node18</title>
<g id="a_edge18_Node000009_Node000018"><a xlink:title=" ">
<path fill="none" stroke="#63b8ff" d="M429.62,-55.08C429.99,-48.49 430.51,-39.21 430.99,-30.82"/>
<polygon fill="#63b8ff" stroke="#63b8ff" points="434.47,-31.3 431.53,-21.12 427.48,-30.91 434.47,-31.3"/>
</a>
</g>
</g>
<!-- Node19 -->
<g id="Node000019" class="node">
<title>Node19</title>
<g id="a_Node000019"><a xlink:title=" ">
<polygon fill="#e0e0e0" stroke="#999999" points="519.38,-19.25 468.88,-19.25 468.88,0 519.38,0 519.38,-19.25"/>
<text text-anchor="middle" x="494.12" y="-5.75" font-family="Helvetica,sans-Serif" font-size="10.00">memory</text>
</a>
</g>
</g>
<!-- Node9&#45;&gt;Node19 -->
<g id="edge19_Node000009_Node000019" class="edge">
<title>Node9&#45;&gt;Node19</title>
<g id="a_edge19_Node000009_Node000019"><a xlink:title=" ">
<path fill="none" stroke="#63b8ff" d="M440.15,-54.84C449.55,-47.15 463.27,-35.9 474.53,-26.68"/>
<polygon fill="#63b8ff" stroke="#63b8ff" points="476.57,-29.53 482.09,-20.48 472.14,-24.11 476.57,-29.53"/>
</a>
</g>
</g>
<!-- Node20 -->
<g id="Node000020" class="node">
<title>Node20</title>
<g id="a_Node000020"><a xlink:title=" ">
<polygon fill="#e0e0e0" stroke="#999999" points="587,-19.25 537.25,-19.25 537.25,0 587,0 587,-19.25"/>
<text text-anchor="middle" x="562.12" y="-5.75" font-family="Helvetica,sans-Serif" font-size="10.00">unistd.h</text>
</a>
</g>
</g>
<!-- Node9&#45;&gt;Node20 -->
<g id="edge20_Node000009_Node000020" class="edge">
<title>Node9&#45;&gt;Node20</title>
<g id="a_edge20_Node000009_Node000020"><a xlink:title=" ">
<path fill="none" stroke="#63b8ff" d="M451.69,-54.84C472.9,-46.35 504.9,-33.54 529,-23.89"/>
<polygon fill="#63b8ff" stroke="#63b8ff" points="530.06,-27.23 538.05,-20.27 527.46,-20.73 530.06,-27.23"/>
</a>
</g>
</g>
<!-- Node21 -->
<g id="Node000021" class="node">
<title>Node21</title>
<g id="a_Node000021"><a xlink:title=" ">
<polygon fill="#e0e0e0" stroke="#999999" points="664.88,-19.25 605.38,-19.25 605.38,0 664.88,0 664.88,-19.25"/>
<text text-anchor="middle" x="635.12" y="-5.75" font-family="Helvetica,sans-Serif" font-size="10.00">sys/wait.h</text>
</a>
</g>
</g>
<!-- Node9&#45;&gt;Node21 -->
<g id="edge21_Node000009_Node000021" class="edge">
<title>Node9&#45;&gt;Node21</title>
<g id="a_edge21_Node000009_Node000021"><a xlink:title=" ">
<path fill="none" stroke="#63b8ff" d="M457.77,-56.47C493.16,-47.32 553.64,-31.69 593.99,-21.26"/>
<polygon fill="#63b8ff" stroke="#63b8ff" points="594.78,-24.67 603.59,-18.78 593.03,-17.89 594.78,-24.67"/>
</a>
</g>
</g>
<!-- Node22 -->
<g id="Node000022" class="node">
<title>Node22</title>
<g id="a_Node000022"><a xlink:title=" ">
<polygon fill="#e0e0e0" stroke="#999999" points="743.25,-19.25 683,-19.25 683,0 743.25,0 743.25,-19.25"/>
<text text-anchor="middle" x="713.12" y="-5.75" font-family="Helvetica,sans-Serif" font-size="10.00">sys/prctl.h</text>
</a>
</g>
</g>
<!-- Node9&#45;&gt;Node22 -->
<g id="edge22_Node000009_Node000022" class="edge">
<title>Node9&#45;&gt;Node22</title>
<g id="a_edge22_Node000009_Node000022"><a xlink:title=" ">
<path fill="none" stroke="#63b8ff" d="M457.57,-57.93C462.1,-57.01 466.74,-56.09 471.12,-55.25 557.61,-38.7 582.35,-37.24 671.69,-19.66"/>
<polygon fill="#63b8ff" stroke="#63b8ff" points="672.3,-23.11 681.43,-17.73 670.94,-16.24 672.3,-23.11"/>
</a>
</g>
</g>
<!-- Node23&#45;&gt;Node4 -->
<g id="edge38_Node000023_Node000004" class="edge">
<title>Node23&#45;&gt;Node4</title>
<g id="a_edge38_Node000023_Node000004"><a xlink:title=" ">
<path fill="none" stroke="#63b8ff" d="M1120.84,-222.37C1165.58,-214.14 1240.76,-200.15 1315.36,-185.32"/>
<polygon fill="#63b8ff" stroke="#63b8ff" points="1315.75,-188.81 1324.87,-183.42 1314.38,-181.95 1315.75,-188.81"/>
</a>
</g>
</g>
<!-- Node23&#45;&gt;Node5 -->
<g id="edge39_Node000023_Node000005" class="edge">
<title>Node23&#45;&gt;Node5</title>
<g id="a_edge39_Node000023_Node000005"><a xlink:title=" ">
<path fill="none" stroke="#63b8ff" d="M1072.64,-220.87C1060.61,-208.5 1037.86,-185.22 1018.12,-165.75 988.17,-136.19 952.7,-102.38 931.89,-82.65"/>
<polygon fill="#63b8ff" stroke="#63b8ff" points="934.44,-80.25 924.77,-75.92 929.63,-85.33 934.44,-80.25"/>
</a>
</g>
</g>
<!-- Node23&#45;&gt;Node6 -->
<g id="edge41_Node000023_Node000006" class="edge">
<title>Node23&#45;&gt;Node6</title>
<g id="a_edge41_Node000023_Node000006"><a xlink:title=" ">
<path fill="none" stroke="#63b8ff" d="M1120.92,-224.92C1179.21,-217.84 1291.45,-203.48 1395.98,-185.46"/>
<polygon fill="#63b8ff" stroke="#63b8ff" points="1396.3,-188.96 1405.55,-183.8 1395.1,-182.06 1396.3,-188.96"/>
</a>
</g>
</g>
<!-- Node23&#45;&gt;Node7 -->
<g id="edge40_Node000023_Node000007" class="edge">
<title>Node23&#45;&gt;Node7</title>
<g id="a_edge40_Node000023_Node000007"><a xlink:title=" ">
<path fill="none" stroke="#63b8ff" d="M1064.33,-220.59C1049.11,-212.41 1026.43,-200.21 1008.74,-190.69"/>
<polygon fill="#63b8ff" stroke="#63b8ff" points="1010.8,-187.82 1000.33,-186.17 1007.48,-193.99 1010.8,-187.82"/>
</a>
</g>
</g>
<!-- Node24 -->
<g id="Node000024" class="node">
<title>Node24</title>
<g id="a_Node000024"><a xlink:title=" ">
<polygon fill="#e0e0e0" stroke="#999999" points="1046.62,-74.5 1003.62,-74.5 1003.62,-55.25 1046.62,-55.25 1046.62,-74.5"/>
<text text-anchor="middle" x="1025.12" y="-61" font-family="Helvetica,sans-Serif" font-size="10.00">vector</text>
</a>
</g>
</g>
<!-- Node23&#45;&gt;Node24 -->
<g id="edge24_Node000023_Node000024" class="edge">
<title>Node23&#45;&gt;Node24</title>
<g id="a_edge24_Node000023_Node000024"><a xlink:title=" ">
<path fill="none" stroke="#63b8ff" d="M1078.11,-220.82C1069.38,-195.28 1043.88,-120.7 1031.72,-85.15"/>
<polygon fill="#63b8ff" stroke="#63b8ff" points="1035.19,-84.48 1028.64,-76.15 1028.56,-86.75 1035.19,-84.48"/>
</a>
</g>
</g>
<!-- Node25 -->
<g id="Node000025" class="node">
<title>Node25</title>
<g id="a_Node000025"><a xlink:href="_t_channel_8h.html" target="_top" xlink:title=" ">
<polygon fill="white" stroke="#666666" points="1308.5,-185 1243.75,-185 1243.75,-165.75 1308.5,-165.75 1308.5,-185"/>
<text text-anchor="middle" x="1276.12" y="-171.5" font-family="Helvetica,sans-Serif" font-size="10.00">TChannel.h</text>
</a>
</g>
</g>
<!-- Node23&#45;&gt;Node25 -->
<g id="edge25_Node000023_Node000025" class="edge">
<title>Node23&#45;&gt;Node25</title>
<g id="a_edge25_Node000023_Node000025"><a xlink:title=" ">
<path fill="none" stroke="#63b8ff" d="M1114.2,-220.59C1146.76,-211.7 1196.65,-198.08 1232.45,-188.3"/>
<polygon fill="#63b8ff" stroke="#63b8ff" points="1233.35,-191.68 1242.07,-185.67 1231.51,-184.93 1233.35,-191.68"/>
</a>
</g>
</g>
<!-- Node34 -->
<g id="Node000034" class="node">
<title>Node34</title>
<g id="a_Node000034"><a xlink:href="_t_p_p_g_8h.html" target="_top" xlink:title=" ">
<polygon fill="white" stroke="#666666" points="775.38,-185 724.88,-185 724.88,-165.75 775.38,-165.75 775.38,-185"/>
<text text-anchor="middle" x="750.12" y="-171.5" font-family="Helvetica,sans-Serif" font-size="10.00">TPPG.h</text>
</a>
</g>
</g>
<!-- Node23&#45;&gt;Node34 -->
<g id="edge42_Node000023_Node000034" class="edge">
<title>Node23&#45;&gt;Node34</title>
<g id="a_edge42_Node000023_Node000034"><a xlink:title=" ">
<path fill="none" stroke="#63b8ff" d="M1041.2,-223.2C976.42,-212.78 849.39,-192.34 786.78,-182.27"/>
<polygon fill="#63b8ff" stroke="#63b8ff" points="787.44,-178.83 777.01,-180.7 786.32,-185.74 787.44,-178.83"/>
</a>
</g>
</g>
<!-- Node42 -->
<g id="Node000042" class="node">
<title>Node42</title>
<g id="a_Node000042"><a xlink:href="_t_transient_bits_8h.html" target="_top" xlink:title=" ">
<polygon fill="white" stroke="#666666" points="1190.75,-185 1103.5,-185 1103.5,-165.75 1190.75,-165.75 1190.75,-185"/>
<text text-anchor="middle" x="1147.12" y="-171.5" font-family="Helvetica,sans-Serif" font-size="10.00">TTransientBits.h</text>
</a>
</g>
</g>
<!-- Node23&#45;&gt;Node42 -->
<g id="edge57_Node000023_Node000042" class="edge">
<title>Node23&#45;&gt;Node42</title>
<g id="a_edge57_Node000023_Node000042"><a xlink:title=" ">
<path fill="none" stroke="#63b8ff" d="M1092.32,-220.59C1101.86,-212.9 1115.8,-201.65 1127.23,-192.43"/>
<polygon fill="#63b8ff" stroke="#63b8ff" points="1129.33,-195.23 1134.92,-186.23 1124.94,-189.78 1129.33,-195.23"/>
</a>
</g>
</g>
<!-- Node25&#45;&gt;Node3 -->
<g id="edge28_Node000025_Node000003" class="edge">
<title>Node25&#45;&gt;Node3</title>
<g id="a_edge28_Node000025_Node000003"><a xlink:title=" ">
<path fill="none" stroke="#63b8ff" d="M1243.56,-169.83C1170.73,-159.68 995.55,-135.26 924.66,-125.38"/>
<polygon fill="#63b8ff" stroke="#63b8ff" points="925.34,-121.94 914.95,-124.03 924.37,-128.87 925.34,-121.94"/>
</a>
</g>
</g>
<!-- Node25&#45;&gt;Node13 -->
<g id="edge26_Node000025_Node000013" class="edge">
<title>Node25&#45;&gt;Node13</title>
<g id="a_edge26_Node000025_Node000013"><a xlink:title=" ">
<path fill="none" stroke="#63b8ff" d="M1308.73,-167.13C1311.56,-166.62 1314.39,-166.15 1317.12,-165.75 1365.78,-158.68 1724.81,-165.9 1758.12,-129.75 1784.31,-101.34 1756.68,-54.33 1737.75,-28.68"/>
<polygon fill="#63b8ff" stroke="#63b8ff" points="1740.62,-26.67 1731.74,-20.89 1735.08,-30.95 1740.62,-26.67"/>
</a>
</g>
</g>
<!-- Node26 -->
<g id="Node000026" class="node">
<title>Node26</title>
<g id="a_Node000026"><a xlink:title=" ">
<polygon fill="#e0e0e0" stroke="#999999" points="1399.62,-129.75 1356.62,-129.75 1356.62,-110.5 1399.62,-110.5 1399.62,-129.75"/>
<text text-anchor="middle" x="1378.12" y="-116.25" font-family="Helvetica,sans-Serif" font-size="10.00">cmath</text>
</a>
</g>
</g>
<!-- Node25&#45;&gt;Node26 -->
<g id="edge27_Node000025_Node000026" class="edge">
<title>Node25&#45;&gt;Node26</title>
<g id="a_edge27_Node000025_Node000026"><a xlink:title=" ">
<path fill="none" stroke="#63b8ff" d="M1293.43,-165.34C1309.11,-157.16 1332.48,-144.96 1350.7,-135.44"/>
<polygon fill="#63b8ff" stroke="#63b8ff" points="1352.15,-138.63 1359.4,-130.9 1348.91,-132.43 1352.15,-138.63"/>
</a>
</g>
</g>
<!-- Node27 -->
<g id="Node000027" class="node">
<title>Node27</title>
<g id="a_Node000027"><a xlink:title=" ">
<polygon fill="#e0e0e0" stroke="#999999" points="1500.5,-129.75 1417.75,-129.75 1417.75,-110.5 1500.5,-110.5 1500.5,-129.75"/>
<text text-anchor="middle" x="1459.12" y="-116.25" font-family="Helvetica,sans-Serif" font-size="10.00">unordered_map</text>
</a>
</g>
</g>
<!-- Node25&#45;&gt;Node27 -->
<g id="edge29_Node000025_Node000027" class="edge">
<title>Node25&#45;&gt;Node27</title>
<g id="a_edge29_Node000025_Node000027"><a xlink:title=" ">
<path fill="none" stroke="#63b8ff" d="M1307.17,-165.34C1337.4,-156.54 1383.58,-143.11 1417.09,-133.36"/>
<polygon fill="#63b8ff" stroke="#63b8ff" points="1417.85,-136.78 1426.48,-130.63 1415.9,-130.06 1417.85,-136.78"/>
</a>
</g>
</g>
<!-- Node28 -->
<g id="Node000028" class="node">
<title>Node28</title>
<g id="a_Node000028"><a xlink:title=" ">
<polygon fill="#e0e0e0" stroke="#999999" points="1579.62,-129.75 1518.62,-129.75 1518.62,-110.5 1579.62,-110.5 1579.62,-129.75"/>
<text text-anchor="middle" x="1549.12" y="-116.25" font-family="Helvetica,sans-Serif" font-size="10.00">TNamed.h</text>
</a>
</g>
</g>
<!-- Node25&#45;&gt;Node28 -->
<g id="edge30_Node000025_Node000028" class="edge">
<title>Node25&#45;&gt;Node28</title>
<g id="a_edge30_Node000025_Node000028"><a xlink:title=" ">
<path fill="none" stroke="#63b8ff" d="M1308.79,-167.44C1311.6,-166.86 1314.41,-166.29 1317.12,-165.75 1398.78,-149.51 1422.13,-147.08 1506.91,-130.15"/>
<polygon fill="#63b8ff" stroke="#63b8ff" points="1507.53,-133.59 1516.65,-128.19 1506.16,-126.73 1507.53,-133.59"/>
</a>
</g>
</g>
<!-- Node29 -->
<g id="Node000029" class="node">
<title>Node29</title>
<g id="a_Node000029"><a xlink:title=" ">
<polygon fill="#e0e0e0" stroke="#999999" points="1646.62,-129.75 1597.62,-129.75 1597.62,-110.5 1646.62,-110.5 1646.62,-129.75"/>
<text text-anchor="middle" x="1622.12" y="-116.25" font-family="Helvetica,sans-Serif" font-size="10.00">TTree.h</text>
</a>
</g>
</g>
<!-- Node25&#45;&gt;Node29 -->
<g id="edge31_Node000025_Node000029" class="edge">
<title>Node25&#45;&gt;Node29</title>
<g id="a_edge31_Node000025_Node000029"><a xlink:title=" ">
<path fill="none" stroke="#63b8ff" d="M1308.76,-167.28C1311.58,-166.73 1314.4,-166.22 1317.12,-165.75 1433.8,-145.79 1467.5,-152.77 1586.34,-130.09"/>
<polygon fill="#63b8ff" stroke="#63b8ff" points="1586.7,-133.59 1595.85,-128.25 1585.37,-126.72 1586.7,-133.59"/>
</a>
</g>
</g>
<!-- Node30 -->
<g id="Node000030" class="node">
<title>Node30</title>
<g id="a_Node000030"><a xlink:title=" ">
<polygon fill="#e0e0e0" stroke="#999999" points="1251,-129.75 1195.25,-129.75 1195.25,-110.5 1251,-110.5 1251,-129.75"/>
<text text-anchor="middle" x="1223.12" y="-116.25" font-family="Helvetica,sans-Serif" font-size="10.00">TGraph.h</text>
</a>
</g>
</g>
<!-- Node25&#45;&gt;Node30 -->
<g id="edge32_Node000025_Node000030" class="edge">
<title>Node25&#45;&gt;Node30</title>
<g id="a_edge32_Node000025_Node000030"><a xlink:title=" ">
<path fill="none" stroke="#63b8ff" d="M1267.37,-165.58C1259.98,-158.15 1249.16,-147.29 1240.08,-138.16"/>
<polygon fill="#63b8ff" stroke="#63b8ff" points="1242.67,-135.8 1233.13,-131.18 1237.71,-140.74 1242.67,-135.8"/>
</a>
</g>
</g>
<!-- Node31 -->
<g id="Node000031" class="node">
<title>Node31</title>
<g id="a_Node000031"><a xlink:title=" ">
<polygon fill="#e0e0e0" stroke="#999999" points="1338.75,-129.75 1269.5,-129.75 1269.5,-110.5 1338.75,-110.5 1338.75,-129.75"/>
<text text-anchor="middle" x="1304.12" y="-116.25" font-family="Helvetica,sans-Serif" font-size="10.00">TClassRef.h</text>
</a>
</g>
</g>
<!-- Node25&#45;&gt;Node31 -->
<g id="edge33_Node000025_Node000031" class="edge">
<title>Node25&#45;&gt;Node31</title>
<g id="a_edge33_Node000025_Node000031"><a xlink:title=" ">
<path fill="none" stroke="#63b8ff" d="M1280.75,-165.58C1284.37,-158.69 1289.55,-148.84 1294.12,-140.16"/>
<polygon fill="#63b8ff" stroke="#63b8ff" points="1297.14,-141.93 1298.7,-131.45 1290.94,-138.67 1297.14,-141.93"/>
</a>
</g>
</g>
<!-- Node32 -->
<g id="Node000032" class="node">
<title>Node32</title>
<g id="a_Node000032"><a xlink:href="_t_priority_value_8h.html" target="_top" xlink:title=" ">
<polygon fill="white" stroke="#666666" points="1749.25,-129.75 1665,-129.75 1665,-110.5 1749.25,-110.5 1749.25,-129.75"/>
<text text-anchor="middle" x="1707.12" y="-116.25" font-family="Helvetica,sans-Serif" font-size="10.00">TPriorityValue.h</text>
</a>
</g>
</g>
<!-- Node25&#45;&gt;Node32 -->
<g id="edge34_Node000025_Node000032" class="edge">
<title>Node25&#45;&gt;Node32</title>
<g id="a_edge34_Node000025_Node000032"><a xlink:title=" ">
<path fill="none" stroke="#63b8ff" d="M1308.74,-167.2C1311.57,-166.67 1314.39,-166.18 1317.12,-165.75 1463.13,-142.7 1504.04,-150.01 1653.18,-130.07"/>
<polygon fill="#63b8ff" stroke="#63b8ff" points="1653.64,-133.54 1663.08,-128.73 1652.7,-126.6 1653.64,-133.54"/>
</a>
</g>
</g>
<!-- Node32&#45;&gt;Node13 -->
<g id="edge36_Node000032_Node000013" class="edge">
<title>Node32&#45;&gt;Node13</title>
<g id="a_edge36_Node000032_Node000013"><a xlink:title=" ">
<path fill="none" stroke="#63b8ff" d="M1708.43,-110.25C1710.98,-93 1716.64,-54.58 1720.15,-30.81"/>
<polygon fill="#63b8ff" stroke="#63b8ff" points="1723.58,-31.53 1721.58,-21.12 1716.66,-30.51 1723.58,-31.53"/>
</a>
</g>
</g>
<!-- Node32&#45;&gt;Node24 -->
<g id="edge37_Node000032_Node000024" class="edge">
<title>Node32&#45;&gt;Node24</title>
<g id="a_edge37_Node000032_Node000024"><a xlink:title=" ">
<path fill="none" stroke="#63b8ff" d="M1664.59,-111.62C1661.73,-111.21 1658.89,-110.83 1656.12,-110.5 1428.39,-83.26 1152.28,-70.76 1058.28,-67.09"/>
<polygon fill="#63b8ff" stroke="#63b8ff" points="1058.63,-63.6 1048.51,-66.71 1058.36,-70.59 1058.63,-63.6"/>
</a>
</g>
</g>
<!-- Node33 -->
<g id="Node000033" class="node">
<title>Node33</title>
<g id="a_Node000033"><a xlink:title=" ">
<polygon fill="#e0e0e0" stroke="#999999" points="1694.75,-74.5 1643.5,-74.5 1643.5,-55.25 1694.75,-55.25 1694.75,-74.5"/>
<text text-anchor="middle" x="1669.12" y="-61" font-family="Helvetica,sans-Serif" font-size="10.00">ostream</text>
</a>
</g>
</g>
<!-- Node32&#45;&gt;Node33 -->
<g id="edge35_Node000032_Node000033" class="edge">
<title>Node32&#45;&gt;Node33</title>
<g id="a_edge35_Node000032_Node000033"><a xlink:title=" ">
<path fill="none" stroke="#63b8ff" d="M1700.85,-110.33C1695.77,-103.21 1688.43,-92.93 1682.09,-84.05"/>
<polygon fill="#63b8ff" stroke="#63b8ff" points="1685.07,-82.2 1676.42,-76.09 1679.38,-86.26 1685.07,-82.2"/>
</a>
</g>
</g>
<!-- Node34&#45;&gt;Node3 -->
<g id="edge44_Node000034_Node000003" class="edge">
<title>Node34&#45;&gt;Node3</title>
<g id="a_edge44_Node000034_Node000003"><a xlink:title=" ">
<path fill="none" stroke="#63b8ff" d="M774.55,-165.34C799.27,-156.2 837.52,-142.06 864.07,-132.24"/>
<polygon fill="#63b8ff" stroke="#63b8ff" points="865.08,-135.6 873.25,-128.85 862.65,-129.03 865.08,-135.6"/>
</a>
</g>
</g>
<!-- Node34&#45;&gt;Node5 -->
<g id="edge46_Node000034_Node000005" class="edge">
<title>Node34&#45;&gt;Node5</title>
<g id="a_edge46_Node000034_Node000005"><a xlink:title=" ">
<path fill="none" stroke="#63b8ff" d="M751.31,-165.62C753.61,-151.93 759.98,-125.49 776.12,-110.5 790.48,-97.16 838.4,-83.55 873.76,-74.92"/>
<polygon fill="#63b8ff" stroke="#63b8ff" points="874.35,-78.38 883.26,-72.65 872.73,-71.57 874.35,-78.38"/>
</a>
</g>
</g>
<!-- Node34&#45;&gt;Node9 -->
<g id="edge48_Node000034_Node000009" class="edge">
<title>Node34&#45;&gt;Node9</title>
<g id="a_edge48_Node000034_Node000009"><a xlink:title=" ">
<path fill="none" stroke="#63b8ff" d="M724.47,-172.42C682.03,-168.49 595.12,-157.5 527.12,-129.75 497.66,-117.72 467.55,-96.49 448.63,-81.83"/>
<polygon fill="#63b8ff" stroke="#63b8ff" points="451.01,-79.25 441,-75.78 446.66,-84.73 451.01,-79.25"/>
</a>
</g>
</g>
<!-- Node34&#45;&gt;Node10 -->
<g id="edge45_Node000034_Node000010" class="edge">
<title>Node34&#45;&gt;Node10</title>
<g id="a_edge45_Node000034_Node000010"><a xlink:title=" ">
<path fill="none" stroke="#63b8ff" d="M724.59,-172.22C677.61,-167.66 580.38,-155.31 560.12,-129.75 539.56,-103.8 538.38,-80.22 560.12,-55.25 596.42,-13.59 745.82,-28.25 817.79,-19.16"/>
<polygon fill="#63b8ff" stroke="#63b8ff" points="818.22,-22.64 827.56,-17.64 817.14,-15.72 818.22,-22.64"/>
</a>
</g>
</g>
<!-- Node35 -->
<g id="Node000035" class="node">
<title>Node35</title>
<g id="a_Node000035"><a xlink:title=" ">
<polygon fill="#e0e0e0" stroke="#999999" points="819.5,-129.75 784.75,-129.75 784.75,-110.5 819.5,-110.5 819.5,-129.75"/>
<text text-anchor="middle" x="802.12" y="-116.25" font-family="Helvetica,sans-Serif" font-size="10.00">map</text>
</a>
</g>
</g>
<!-- Node34&#45;&gt;Node35 -->
<g id="edge43_Node000034_Node000035" class="edge">
<title>Node34&#45;&gt;Node35</title>
<g id="a_edge43_Node000034_Node000035"><a xlink:title=" ">
<path fill="none" stroke="#63b8ff" d="M758.71,-165.58C765.97,-158.15 776.58,-147.29 785.49,-138.16"/>
<polygon fill="#63b8ff" stroke="#63b8ff" points="787.81,-140.79 792.29,-131.19 782.8,-135.9 787.81,-140.79"/>
</a>
</g>
</g>
<!-- Node36 -->
<g id="Node000036" class="node">
<title>Node36</title>
<g id="a_Node000036"><a xlink:title=" ">
<polygon fill="#e0e0e0" stroke="#999999" points="641.25,-129.75 569,-129.75 569,-110.5 641.25,-110.5 641.25,-129.75"/>
<text text-anchor="middle" x="605.12" y="-116.25" font-family="Helvetica,sans-Serif" font-size="10.00">TCollection.h</text>
</a>
</g>
</g>
<!-- Node34&#45;&gt;Node36 -->
<g id="edge47_Node000034_Node000036" class="edge">
<title>Node34&#45;&gt;Node36</title>
<g id="a_edge47_Node000034_Node000036"><a xlink:title=" ">
<path fill="none" stroke="#63b8ff" d="M725.53,-165.34C702.2,-156.77 666.89,-143.81 640.53,-134.13"/>
<polygon fill="#63b8ff" stroke="#63b8ff" points="641.86,-130.89 631.26,-130.72 639.44,-137.46 641.86,-130.89"/>
</a>
</g>
</g>
<!-- Node37 -->
<g id="Node000037" class="node">
<title>Node37</title>
<g id="a_Node000037"><a xlink:href="_t_singleton_8h.html" target="_top" xlink:title=" ">
<polygon fill="white" stroke="#666666" points="729.12,-129.75 659.12,-129.75 659.12,-110.5 729.12,-110.5 729.12,-129.75"/>
<text text-anchor="middle" x="694.12" y="-116.25" font-family="Helvetica,sans-Serif" font-size="10.00">TSingleton.h</text>
</a>
</g>
</g>
<!-- Node34&#45;&gt;Node37 -->
<g id="edge49_Node000034_Node000037" class="edge">
<title>Node34&#45;&gt;Node37</title>
<g id="a_edge49_Node000034_Node000037"><a xlink:title=" ">
<path fill="none" stroke="#63b8ff" d="M740.63,-165.34C732.69,-157.8 721.18,-146.85 711.59,-137.73"/>
<polygon fill="#63b8ff" stroke="#63b8ff" points="714.24,-135.42 704.58,-131.07 709.42,-140.49 714.24,-135.42"/>
</a>
</g>
</g>
<!-- Node37&#45;&gt;Node5 -->
<g id="edge51_Node000037_Node000005" class="edge">
<title>Node37&#45;&gt;Node5</title>
<g id="a_edge51_Node000037_Node000005"><a xlink:title=" ">
<path fill="none" stroke="#63b8ff" d="M729.47,-110.57C768.89,-101.03 832.51,-85.63 873.83,-75.63"/>
<polygon fill="#63b8ff" stroke="#63b8ff" points="874.48,-79.07 883.38,-73.32 872.83,-72.27 874.48,-79.07"/>
</a>
</g>
</g>
<!-- Node37&#45;&gt;Node9 -->
<g id="edge56_Node000037_Node000009" class="edge">
<title>Node37&#45;&gt;Node9</title>
<g id="a_edge56_Node000037_Node000009"><a xlink:title=" ">
<path fill="none" stroke="#63b8ff" d="M658.66,-112C609.23,-102.07 519.91,-84.12 468.48,-73.78"/>
<polygon fill="#63b8ff" stroke="#63b8ff" points="469.47,-70.41 458.98,-71.87 468.09,-77.28 469.47,-70.41"/>
</a>
</g>
</g>
<!-- Node37&#45;&gt;Node10 -->
<g id="edge50_Node000037_Node000010" class="edge">
<title>Node37&#45;&gt;Node10</title>
<g id="a_edge50_Node000037_Node000010"><a xlink:title=" ">
<path fill="none" stroke="#63b8ff" d="M729.38,-112.23C766.92,-104.2 822.96,-90.06 838.12,-74.5 849.45,-62.88 853.76,-44.7 855.35,-30.71"/>
<polygon fill="#63b8ff" stroke="#63b8ff" points="858.83,-31.07 856.06,-20.85 851.85,-30.57 858.83,-31.07"/>
</a>
</g>
</g>
<!-- Node38 -->
<g id="Node000038" class="node">
<title>Node38</title>
<g id="a_Node000038"><a xlink:title=" ">
<polygon fill="#e0e0e0" stroke="#999999" points="829,-74.5 761.25,-74.5 761.25,-55.25 829,-55.25 829,-74.5"/>
<text text-anchor="middle" x="795.12" y="-61" font-family="Helvetica,sans-Serif" font-size="10.00">TDirectory.h</text>
</a>
</g>
</g>
<!-- Node37&#45;&gt;Node38 -->
<g id="edge52_Node000037_Node000038" class="edge">
<title>Node37&#45;&gt;Node38</title>
<g id="a_edge52_Node000037_Node000038"><a xlink:title=" ">
<path fill="none" stroke="#63b8ff" d="M711.26,-110.09C726.78,-101.91 749.93,-89.71 767.97,-80.19"/>
<polygon fill="#63b8ff" stroke="#63b8ff" points="769.36,-83.42 776.57,-75.66 766.09,-77.23 769.36,-83.42"/>
</a>
</g>
</g>
<!-- Node39 -->
<g id="Node000039" class="node">
<title>Node39</title>
<g id="a_Node000039"><a xlink:title=" ">
<polygon fill="#e0e0e0" stroke="#999999" points="614.75,-74.5 569.5,-74.5 569.5,-55.25 614.75,-55.25 614.75,-74.5"/>
<text text-anchor="middle" x="592.12" y="-61" font-family="Helvetica,sans-Serif" font-size="10.00">TFile.h</text>
</a>
</g>
</g>
<!-- Node37&#45;&gt;Node39 -->
<g id="edge53_Node000037_Node000039" class="edge">
<title>Node37&#45;&gt;Node39</title>
<g id="a_edge53_Node000037_Node000039"><a xlink:title=" ">
<path fill="none" stroke="#63b8ff" d="M676.82,-110.09C661.14,-101.91 637.77,-89.71 619.55,-80.19"/>
<polygon fill="#63b8ff" stroke="#63b8ff" points="621.34,-77.18 610.85,-75.65 618.1,-83.38 621.34,-77.18"/>
</a>
</g>
</g>
<!-- Node40 -->
<g id="Node000040" class="node">
<title>Node40</title>
<g id="a_Node000040"><a xlink:title=" ">
<polygon fill="#e0e0e0" stroke="#999999" points="679.12,-74.5 633.12,-74.5 633.12,-55.25 679.12,-55.25 679.12,-74.5"/>
<text text-anchor="middle" x="656.12" y="-61" font-family="Helvetica,sans-Serif" font-size="10.00">TList.h</text>
</a>
</g>
</g>
<!-- Node37&#45;&gt;Node40 -->
<g id="edge54_Node000037_Node000040" class="edge">
<title>Node37&#45;&gt;Node40</title>
<g id="a_edge54_Node000037_Node000040"><a xlink:title=" ">
<path fill="none" stroke="#63b8ff" d="M687.85,-110.33C682.77,-103.21 675.43,-92.93 669.09,-84.05"/>
<polygon fill="#63b8ff" stroke="#63b8ff" points="672.07,-82.2 663.42,-76.09 666.38,-86.26 672.07,-82.2"/>
</a>
</g>
</g>
<!-- Node41 -->
<g id="Node000041" class="node">
<title>Node41</title>
<g id="a_Node000041"><a xlink:title=" ">
<polygon fill="#e0e0e0" stroke="#999999" points="743.12,-74.5 697.12,-74.5 697.12,-55.25 743.12,-55.25 743.12,-74.5"/>
<text text-anchor="middle" x="720.12" y="-61" font-family="Helvetica,sans-Serif" font-size="10.00">TKey.h</text>
</a>
</g>
</g>
<!-- Node37&#45;&gt;Node41 -->
<g id="edge55_Node000037_Node000041" class="edge">
<title>Node37&#45;&gt;Node41</title>
<g id="a_edge55_Node000037_Node000041"><a xlink:title=" ">
<path fill="none" stroke="#63b8ff" d="M698.42,-110.33C701.75,-103.51 706.49,-93.81 710.69,-85.2"/>
<polygon fill="#63b8ff" stroke="#63b8ff" points="713.83,-86.74 715.07,-76.22 707.54,-83.67 713.83,-86.74"/>
</a>
</g>
</g>
<!-- Node42&#45;&gt;Node10 -->
<g id="edge58_Node000042_Node000010" class="edge">
<title>Node42&#45;&gt;Node10</title>
<g id="a_edge58_Node000042_Node000010"><a xlink:title=" ">
<path fill="none" stroke="#63b8ff" d="M1133.62,-165.35C1122.05,-157.11 1105.5,-144.07 1094.12,-129.75 1071,-100.65 1085.5,-78.02 1056.12,-55.25 1009.09,-18.8 938.13,-10.93 894.6,-9.85"/>
<polygon fill="#63b8ff" stroke="#63b8ff" points="894.64,-6.35 884.6,-9.73 894.56,-13.35 894.64,-6.35"/>
</a>
</g>
</g>
<!-- Node43 -->
<g id="Node000043" class="node">
<title>Node43</title>
<g id="a_Node000043"><a xlink:title=" ">
<polygon fill="#e0e0e0" stroke="#999999" points="1177,-129.75 1103.25,-129.75 1103.25,-110.5 1177,-110.5 1177,-129.75"/>
<text text-anchor="middle" x="1140.12" y="-116.25" font-family="Helvetica,sans-Serif" font-size="10.00">RtypesCore.h</text>
</a>
</g>
</g>
<!-- Node42&#45;&gt;Node43 -->
<g id="edge59_Node000042_Node000043" class="edge">
<title>Node42&#45;&gt;Node43</title>
<g id="a_edge59_Node000042_Node000043"><a xlink:title=" ">
<path fill="none" stroke="#63b8ff" d="M1145.97,-165.58C1145.1,-158.99 1143.88,-149.71 1142.78,-141.32"/>
<polygon fill="#63b8ff" stroke="#63b8ff" points="1146.28,-141.07 1141.5,-131.61 1139.34,-141.98 1146.28,-141.07"/>
</a>
</g>
</g>
<!-- Node44&#45;&gt;Node7 -->
<g id="edge66_Node000044_Node000007" class="edge">
<title>Node44&#45;&gt;Node7</title>
<g id="a_edge66_Node000044_Node000007"><a xlink:title=" ">
<path fill="none" stroke="#63b8ff" d="M940.81,-276C948.03,-258.59 964.19,-219.62 974.02,-195.91"/>
<polygon fill="#63b8ff" stroke="#63b8ff" points="977.21,-197.35 977.81,-186.77 970.75,-194.67 977.21,-197.35"/>
</a>
</g>
</g>
<!-- Node44&#45;&gt;Node10 -->
<g id="edge63_Node000044_Node000010" class="edge">
<title>Node44&#45;&gt;Node10</title>
<g id="a_edge63_Node000044_Node000010"><a xlink:title=" ">
<path fill="none" stroke="#63b8ff" d="M901.39,-283.31C821.07,-277.63 626.85,-251.35 544.12,-129.75 525.5,-102.37 522.28,-80.13 544.12,-55.25 582.94,-11.04 742.59,-28.51 818.12,-19.11"/>
<polygon fill="#63b8ff" stroke="#63b8ff" points="818.21,-22.63 827.57,-17.66 817.15,-15.71 818.21,-22.63"/>
</a>
</g>
</g>
<!-- Node44&#45;&gt;Node23 -->
<g id="edge61_Node000044_Node000023" class="edge">
<title>Node44&#45;&gt;Node23</title>
<g id="a_edge61_Node000044_Node000023"><a xlink:title=" ">
<path fill="none" stroke="#63b8ff" d="M961.55,-275.84C984.72,-267.27 1019.79,-254.31 1045.96,-244.63"/>
<polygon fill="#63b8ff" stroke="#63b8ff" points="1046.99,-247.98 1055.16,-241.23 1044.56,-241.41 1046.99,-247.98"/>
</a>
</g>
</g>
<!-- Node44&#45;&gt;Node24 -->
<g id="edge64_Node000044_Node000024" class="edge">
<title>Node44&#45;&gt;Node24</title>
<g id="a_edge64_Node000044_Node000024"><a xlink:title=" ">
<path fill="none" stroke="#63b8ff" d="M936.06,-275.81C934.03,-255.36 931.04,-204.39 946.12,-165.75 959.25,-132.15 987.73,-100.81 1006.67,-82.5"/>
<polygon fill="#63b8ff" stroke="#63b8ff" points="1008.85,-85.25 1013.74,-75.86 1004.06,-80.15 1008.85,-85.25"/>
</a>
</g>
</g>
<!-- Node44&#45;&gt;Node34 -->
<g id="edge62_Node000044_Node000034" class="edge">
<title>Node44&#45;&gt;Node34</title>
<g id="a_edge62_Node000044_Node000034"><a xlink:title=" ">
<path fill="none" stroke="#63b8ff" d="M921.49,-275.82C905.93,-266.81 881.37,-252.58 860.12,-240.25 831.1,-223.41 797.78,-204.06 775.49,-191.11"/>
<polygon fill="#63b8ff" stroke="#63b8ff" points="777.5,-188.23 767.1,-186.24 773.99,-194.29 777.5,-188.23"/>
</a>
</g>
</g>
<!-- Node45 -->
<g id="Node000045" class="node">
<title>Node45</title>
<g id="a_Node000045"><a xlink:title=" ">
<polygon fill="#e0e0e0" stroke="#999999" points="909.12,-240.25 869.12,-240.25 869.12,-221 909.12,-221 909.12,-240.25"/>
<text text-anchor="middle" x="889.12" y="-226.75" font-family="Helvetica,sans-Serif" font-size="10.00">ctime</text>
</a>
</g>
</g>
<!-- Node44&#45;&gt;Node45 -->
<g id="edge65_Node000044_Node000045" class="edge">
<title>Node44&#45;&gt;Node45</title>
<g id="a_edge65_Node000044_Node000045"><a xlink:title=" ">
<path fill="none" stroke="#63b8ff" d="M929.2,-276.08C922.57,-268.73 912.91,-258.01 904.74,-248.94"/>
<polygon fill="#63b8ff" stroke="#63b8ff" points="907.53,-246.82 898.24,-241.73 902.33,-251.5 907.53,-246.82"/>
</a>
</g>
</g>
</g>
</svg>

<g id="navigator" transform="translate(0 0)" fill="#404254">
  <rect fill="#f2f5e9" fill-opacity="0.5" stroke="#606060" stroke-width=".5" x="0" y="0" width="60" height="60"/>
  <use id="zoomplus" xlink:href="#zoomPlus" x="17" y="9" onmousedown="handleZoom(evt,'in')"/>
  <use id="zoomminus" xlink:href="#zoomMin" x="42" y="9" onmousedown="handleZoom(evt,'out')"/>
  <use id="reset" xlink:href="#resetDef" x="30" y="36" onmousedown="handleReset()"/>
   <use id="arrowup" xlink:href="#arrowUp" x="0" y="0" onmousedown="handlePan(0,-1)"/>
  <use id="arrowright" xlink:href="#arrowRight" x="0" y="0" onmousedown="handlePan(1,0)"/>
  <use id="arrowdown" xlink:href="#arrowDown" x="0" y="0" onmousedown="handlePan(0,1)"/>
  <use id="arrowleft" xlink:href="#arrowLeft" x="0" y="0" onmousedown="handlePan(-1,0)"/>
</g>
<svg viewBox="0 0 15 15" width="100%" height="30px" preserveAspectRatio="xMaxYMin meet">
 <g id="arrow_out" transform="scale(0.3 0.3)">
  <a xlink:href="_t_sharc_hit_8h__incl_org.svg" target="_base">
   <rect id="button" ry="5" rx="5" y="6" x="6" height="38" width="38"
        fill="#f2f5e9" fill-opacity="0.5" stroke="#606060" stroke-width="1.0"/>
   <path id="arrow"
     d="M 11.500037,31.436501 C 11.940474,20.09759 22.043105,11.32322 32.158766,21.979434 L 37.068811,17.246167 C 37.068811,17.246167 37.088388,32 37.088388,32 L 22.160133,31.978069 C 22.160133,31.978069 26.997745,27.140456 26.997745,27.140456 C 18.528582,18.264221 13.291696,25.230495 11.500037,31.436501 z"
     style="fill:#404040;"/>
  </a>
 </g>
</svg>

<style type='text/css'>
<![CDATA[
[data-mouse-over-selected='false'] { opacity: 0.7; }
[data-mouse-over-selected='true']  { opacity: 1.0; }
]]>
</style>
<script type="application/ecmascript"><![CDATA[
document.addEventListener('DOMContentLoaded', (event) => {
  highlightEdges();
  highlightAdjacentNodes();
});
]]></script>
</svg>
