<?xml version="1.0" encoding="UTF-8" standalone="no"?>
<!DOCTYPE svg PUBLIC "-//W3C//DTD SVG 1.1//EN"
 "http://www.w3.org/Graphics/SVG/1.1/DTD/svg11.dtd">
<!-- Generated by graphviz version 12.2.0 (20241103.1931)
 -->
<!-- Title: TS3Hit.h Pages: 1 -->
<svg width="1506pt" height="359pt"
 viewBox="0.00 0.00 1505.50 358.75" xmlns="http://www.w3.org/2000/svg" xmlns:xlink="http://www.w3.org/1999/xlink">
<g id="graph0" class="graph" transform="scale(1 1) rotate(0) translate(4 354.75)">
<title>TS3Hit.h</title>
<!-- Node1 -->
<g id="Node000001" class="node">
<title>Node1</title>
<g id="a_Node000001"><a xlink:title=" ">
<polygon fill="#999999" stroke="#666666" points="696.12,-350.75 641.88,-350.75 641.88,-331.5 696.12,-331.5 696.12,-350.75"/>
<text text-anchor="middle" x="669" y="-337.25" font-family="Helvetica,sans-Serif" font-size="10.00">TS3Hit.h</text>
</a>
</g>
</g>
<!-- Node2 -->
<g id="Node000002" class="node">
<title>Node2</title>
<g id="a_Node000002"><a xlink:title=" ">
<polygon fill="#e0e0e0" stroke="#999999" points="122.12,-19.25 79.88,-19.25 79.88,0 122.12,0 122.12,-19.25"/>
<text text-anchor="middle" x="101" y="-5.75" font-family="Helvetica,sans-Serif" font-size="10.00">cstdio</text>
</a>
</g>
</g>
<!-- Node1&#45;&gt;Node2 -->
<g id="edge1_Node000001_Node000002" class="edge">
<title>Node1&#45;&gt;Node2</title>
<g id="a_edge1_Node000001_Node000002"><a xlink:title=" ">
<path fill="none" stroke="#63b8ff" d="M641.53,-338.62C515.64,-331.39 0,-297.74 0,-231.62 0,-231.62 0,-231.62 0,-119.12 0,-76.08 43.12,-42.96 73.01,-25.18"/>
<polygon fill="#63b8ff" stroke="#63b8ff" points="74.66,-28.27 81.63,-20.28 71.2,-22.18 74.66,-28.27"/>
</a>
</g>
</g>
<!-- Node3 -->
<g id="Node000003" class="node">
<title>Node3</title>
<g id="a_Node000003"><a xlink:href="_t_fragment_8h.html" target="_top" xlink:title=" ">
<polygon fill="white" stroke="#666666" points="736.38,-295.5 665.62,-295.5 665.62,-276.25 736.38,-276.25 736.38,-295.5"/>
<text text-anchor="middle" x="701" y="-282" font-family="Helvetica,sans-Serif" font-size="10.00">TFragment.h</text>
</a>
</g>
</g>
<!-- Node1&#45;&gt;Node3 -->
<g id="edge2_Node000001_Node000003" class="edge">
<title>Node1&#45;&gt;Node3</title>
<g id="a_edge2_Node000001_Node000003"><a xlink:title=" ">
<path fill="none" stroke="#63b8ff" d="M674.28,-331.33C678.47,-324.36 684.48,-314.37 689.73,-305.62"/>
<polygon fill="#63b8ff" stroke="#63b8ff" points="692.67,-307.53 694.82,-297.16 686.67,-303.93 692.67,-307.53"/>
</a>
</g>
</g>
<!-- Node4 -->
<g id="Node000004" class="node">
<title>Node4</title>
<g id="a_Node000004"><a xlink:href="_t_detector_hit_8h.html" target="_top" xlink:title=" ">
<polygon fill="white" stroke="#666666" points="672.5,-240.25 593.5,-240.25 593.5,-221 672.5,-221 672.5,-240.25"/>
<text text-anchor="middle" x="633" y="-226.75" font-family="Helvetica,sans-Serif" font-size="10.00">TDetectorHit.h</text>
</a>
</g>
</g>
<!-- Node1&#45;&gt;Node4 -->
<g id="edge59_Node000001_Node000004" class="edge">
<title>Node1&#45;&gt;Node4</title>
<g id="a_edge59_Node000001_Node000004"><a xlink:title=" ">
<path fill="none" stroke="#63b8ff" d="M666.05,-331.25C660.31,-313.92 647.47,-275.23 639.59,-251.49"/>
<polygon fill="#63b8ff" stroke="#63b8ff" points="642.93,-250.45 636.46,-242.06 636.29,-252.66 642.93,-250.45"/>
</a>
</g>
</g>
<!-- Node45 -->
<g id="Node000045" class="node">
<title>Node45</title>
<g id="a_Node000045"><a xlink:href="_t_mnemonic_8h.html" target="_top" xlink:title=" ">
<polygon fill="white" stroke="#666666" points="1282.25,-185 1207.75,-185 1207.75,-165.75 1282.25,-165.75 1282.25,-185"/>
<text text-anchor="middle" x="1245" y="-171.5" font-family="Helvetica,sans-Serif" font-size="10.00">TMnemonic.h</text>
</a>
</g>
</g>
<!-- Node1&#45;&gt;Node45 -->
<g id="edge60_Node000001_Node000045" class="edge">
<title>Node1&#45;&gt;Node45</title>
<g id="a_edge60_Node000001_Node000045"><a xlink:title=" ">
<path fill="none" stroke="#63b8ff" d="M696.42,-339.63C800.27,-337.15 1167.28,-322.58 1241,-240.25 1251.55,-228.47 1251.6,-210.05 1249.57,-196.01"/>
<polygon fill="#63b8ff" stroke="#63b8ff" points="1253.08,-195.72 1247.75,-186.56 1246.21,-197.04 1253.08,-195.72"/>
</a>
</g>
</g>
<!-- Node3&#45;&gt;Node4 -->
<g id="edge3_Node000003_Node000004" class="edge">
<title>Node3&#45;&gt;Node4</title>
<g id="a_edge3_Node000003_Node000004"><a xlink:title=" ">
<path fill="none" stroke="#63b8ff" d="M689.46,-275.84C679.54,-268.07 664.99,-256.67 653.14,-247.4"/>
<polygon fill="#63b8ff" stroke="#63b8ff" points="655.59,-244.87 645.56,-241.46 651.27,-250.38 655.59,-244.87"/>
</a>
</g>
</g>
<!-- Node5 -->
<g id="Node000005" class="node">
<title>Node5</title>
<g id="a_Node000005"><a xlink:title=" ">
<polygon fill="#e0e0e0" stroke="#999999" points="1497.5,-19.25 1454.5,-19.25 1454.5,0 1497.5,0 1497.5,-19.25"/>
<text text-anchor="middle" x="1476" y="-5.75" font-family="Helvetica,sans-Serif" font-size="10.00">vector</text>
</a>
</g>
</g>
<!-- Node3&#45;&gt;Node5 -->
<g id="edge56_Node000003_Node000005" class="edge">
<title>Node3&#45;&gt;Node5</title>
<g id="a_edge56_Node000003_Node000005"><a xlink:title=" ">
<path fill="none" stroke="#63b8ff" d="M736.7,-278.25C781.32,-269.87 859.97,-254.78 927,-240.25 1031.44,-217.62 1074.33,-247.5 1161,-185 1192.56,-162.24 1174.35,-131.67 1207,-110.5 1308.59,-44.65 1397.25,-165.59 1477,-74.5 1487.28,-62.75 1485.96,-44.61 1482.68,-30.66"/>
<polygon fill="#63b8ff" stroke="#63b8ff" points="1486.08,-29.84 1479.95,-21.2 1479.36,-31.78 1486.08,-29.84"/>
</a>
</g>
</g>
<!-- Node19 -->
<g id="Node000019" class="node">
<title>Node19</title>
<g id="a_Node000019"><a xlink:title=" ">
<polygon fill="#e0e0e0" stroke="#999999" points="1151.75,-185 1098.25,-185 1098.25,-165.75 1151.75,-165.75 1151.75,-185"/>
<text text-anchor="middle" x="1125" y="-171.5" font-family="Helvetica,sans-Serif" font-size="10.00">Rtypes.h</text>
</a>
</g>
</g>
<!-- Node3&#45;&gt;Node19 -->
<g id="edge58_Node000003_Node000019" class="edge">
<title>Node3&#45;&gt;Node19</title>
<g id="a_edge58_Node000003_Node000019"><a xlink:title=" ">
<path fill="none" stroke="#63b8ff" d="M736.42,-275.81C815.5,-255.58 1005.84,-206.87 1087.15,-186.06"/>
<polygon fill="#63b8ff" stroke="#63b8ff" points="1087.59,-189.56 1096.41,-183.69 1085.85,-182.78 1087.59,-189.56"/>
</a>
</g>
</g>
<!-- Node21 -->
<g id="Node000021" class="node">
<title>Node21</title>
<g id="a_Node000021"><a xlink:href="_t_p_p_g_8h.html" target="_top" xlink:title=" ">
<polygon fill="white" stroke="#666666" points="658.25,-185 607.75,-185 607.75,-165.75 658.25,-165.75 658.25,-185"/>
<text text-anchor="middle" x="633" y="-171.5" font-family="Helvetica,sans-Serif" font-size="10.00">TPPG.h</text>
</a>
</g>
</g>
<!-- Node3&#45;&gt;Node21 -->
<g id="edge54_Node000003_Node000021" class="edge">
<title>Node3&#45;&gt;Node21</title>
<g id="a_edge54_Node000003_Node000021"><a xlink:title=" ">
<path fill="none" stroke="#63b8ff" d="M699.9,-275.99C697.97,-263.05 693.07,-238.64 682,-221 675.12,-210.04 664.82,-200.09 655.44,-192.39"/>
<polygon fill="#63b8ff" stroke="#63b8ff" points="657.77,-189.76 647.72,-186.4 653.48,-195.29 657.77,-189.76"/>
</a>
</g>
</g>
<!-- Node23 -->
<g id="Node000023" class="node">
<title>Node23</title>
<g id="a_Node000023"><a xlink:title=" ">
<polygon fill="#e0e0e0" stroke="#999999" points="274.75,-19.25 221.25,-19.25 221.25,0 274.75,0 274.75,-19.25"/>
<text text-anchor="middle" x="248" y="-5.75" font-family="Helvetica,sans-Serif" font-size="10.00">iostream</text>
</a>
</g>
</g>
<!-- Node3&#45;&gt;Node23 -->
<g id="edge55_Node000003_Node000023" class="edge">
<title>Node3&#45;&gt;Node23</title>
<g id="a_edge55_Node000003_Node000023"><a xlink:title=" ">
<path fill="none" stroke="#63b8ff" d="M665.98,-275.82C610.34,-260.77 499.05,-227.97 411,-185 370.51,-165.24 363.12,-155.28 326,-129.75 291.59,-106.08 269.53,-111.41 250,-74.5 242.92,-61.12 242.82,-43.87 244.27,-30.66"/>
<polygon fill="#63b8ff" stroke="#63b8ff" points="247.69,-31.41 245.73,-21 240.77,-30.36 247.69,-31.41"/>
</a>
</g>
</g>
<!-- Node44 -->
<g id="Node000044" class="node">
<title>Node44</title>
<g id="a_Node000044"><a xlink:title=" ">
<polygon fill="#e0e0e0" stroke="#999999" points="1232,-240.25 1192,-240.25 1192,-221 1232,-221 1232,-240.25"/>
<text text-anchor="middle" x="1212" y="-226.75" font-family="Helvetica,sans-Serif" font-size="10.00">ctime</text>
</a>
</g>
</g>
<!-- Node3&#45;&gt;Node44 -->
<g id="edge57_Node000003_Node000044" class="edge">
<title>Node3&#45;&gt;Node44</title>
<g id="a_edge57_Node000003_Node000044"><a xlink:title=" ">
<path fill="none" stroke="#63b8ff" d="M736.85,-283.42C816.64,-279.78 1014.69,-268.43 1178,-240.25 1178.83,-240.11 1179.67,-239.95 1180.52,-239.79"/>
<polygon fill="#63b8ff" stroke="#63b8ff" points="1181.13,-243.24 1190.14,-237.67 1179.62,-236.41 1181.13,-243.24"/>
</a>
</g>
</g>
<!-- Node4&#45;&gt;Node5 -->
<g id="edge4_Node000004_Node000005" class="edge">
<title>Node4&#45;&gt;Node5</title>
<g id="a_edge4_Node000004_Node000005"><a xlink:title=" ">
<path fill="none" stroke="#63b8ff" d="M672.9,-222.36C719.19,-213.84 797.76,-199.08 865,-185 973.83,-162.22 1001.74,-159.04 1109,-129.75 1136.02,-122.37 1141.65,-116.54 1169,-110.5 1231.98,-96.59 1407.79,-116.2 1457,-74.5 1469.56,-63.86 1474.03,-45.31 1475.52,-30.93"/>
<polygon fill="#63b8ff" stroke="#63b8ff" points="1479,-31.38 1476.1,-21.19 1472.01,-30.96 1479,-31.38"/>
</a>
</g>
</g>
<!-- Node6 -->
<g id="Node000006" class="node">
<title>Node6</title>
<g id="a_Node000006"><a xlink:href="_t_channel_8h.html" target="_top" xlink:title=" ">
<polygon fill="white" stroke="#666666" points="1100.38,-129.75 1035.62,-129.75 1035.62,-110.5 1100.38,-110.5 1100.38,-129.75"/>
<text text-anchor="middle" x="1068" y="-116.25" font-family="Helvetica,sans-Serif" font-size="10.00">TChannel.h</text>
</a>
</g>
</g>
<!-- Node4&#45;&gt;Node6 -->
<g id="edge5_Node000004_Node000006" class="edge">
<title>Node4&#45;&gt;Node6</title>
<g id="a_edge5_Node000004_Node000006"><a xlink:title=" ">
<path fill="none" stroke="#63b8ff" d="M669.34,-220.56C748.97,-200.7 938.59,-153.4 1024.44,-131.99"/>
<polygon fill="#63b8ff" stroke="#63b8ff" points="1025.03,-135.45 1033.89,-129.63 1023.34,-128.66 1025.03,-135.45"/>
</a>
</g>
</g>
<!-- Node17 -->
<g id="Node000017" class="node">
<title>Node17</title>
<g id="a_Node000017"><a xlink:title=" ">
<polygon fill="#e0e0e0" stroke="#999999" points="91.62,-185 28.38,-185 28.38,-165.75 91.62,-165.75 91.62,-185"/>
<text text-anchor="middle" x="60" y="-171.5" font-family="Helvetica,sans-Serif" font-size="10.00">TVector3.h</text>
</a>
</g>
</g>
<!-- Node4&#45;&gt;Node17 -->
<g id="edge18_Node000004_Node000017" class="edge">
<title>Node4&#45;&gt;Node17</title>
<g id="a_edge18_Node000004_Node000017"><a xlink:title=" ">
<path fill="none" stroke="#63b8ff" d="M593.01,-228.04C505.75,-224.2 291.58,-212.73 103.04,-185.28"/>
<polygon fill="#63b8ff" stroke="#63b8ff" points="103.71,-181.84 93.31,-183.84 102.69,-188.77 103.71,-181.84"/>
</a>
</g>
</g>
<!-- Node18 -->
<g id="Node000018" class="node">
<title>Node18</title>
<g id="a_Node000018"><a xlink:title=" ">
<polygon fill="#e0e0e0" stroke="#999999" points="631,-74.5 573,-74.5 573,-55.25 631,-55.25 631,-74.5"/>
<text text-anchor="middle" x="602" y="-61" font-family="Helvetica,sans-Serif" font-size="10.00">TObject.h</text>
</a>
</g>
</g>
<!-- Node4&#45;&gt;Node18 -->
<g id="edge19_Node000004_Node000018" class="edge">
<title>Node4&#45;&gt;Node18</title>
<g id="a_edge19_Node000004_Node000018"><a xlink:title=" ">
<path fill="none" stroke="#63b8ff" d="M623.58,-220.54C607.42,-204.21 575.1,-168 564,-129.75 561.62,-121.53 561.04,-118.53 564,-110.5 567.84,-100.07 575.32,-90.41 582.64,-82.77"/>
<polygon fill="#63b8ff" stroke="#63b8ff" points="585.06,-85.3 589.84,-75.85 580.2,-80.26 585.06,-85.3"/>
</a>
</g>
</g>
<!-- Node4&#45;&gt;Node19 -->
<g id="edge20_Node000004_Node000019" class="edge">
<title>Node4&#45;&gt;Node19</title>
<g id="a_edge20_Node000004_Node000019"><a xlink:title=" ">
<path fill="none" stroke="#63b8ff" d="M672.7,-227.15C751.46,-221.93 932.95,-208.29 1084,-185 1085.01,-184.84 1086.03,-184.68 1087.05,-184.51"/>
<polygon fill="#63b8ff" stroke="#63b8ff" points="1087.48,-187.99 1096.68,-182.73 1086.21,-181.11 1087.48,-187.99"/>
</a>
</g>
</g>
<!-- Node20 -->
<g id="Node000020" class="node">
<title>Node20</title>
<g id="a_Node000020"><a xlink:title=" ">
<polygon fill="#e0e0e0" stroke="#999999" points="485.75,-185 420.25,-185 420.25,-165.75 485.75,-165.75 485.75,-185"/>
<text text-anchor="middle" x="453" y="-171.5" font-family="Helvetica,sans-Serif" font-size="10.00">TRandom.h</text>
</a>
</g>
</g>
<!-- Node4&#45;&gt;Node20 -->
<g id="edge21_Node000004_Node000020" class="edge">
<title>Node4&#45;&gt;Node20</title>
<g id="a_edge21_Node000004_Node000020"><a xlink:title=" ">
<path fill="none" stroke="#63b8ff" d="M602.47,-220.59C572.73,-211.79 527.31,-198.36 494.35,-188.61"/>
<polygon fill="#63b8ff" stroke="#63b8ff" points="495.72,-185.36 485.14,-185.88 493.73,-192.07 495.72,-185.36"/>
</a>
</g>
</g>
<!-- Node4&#45;&gt;Node21 -->
<g id="edge22_Node000004_Node000021" class="edge">
<title>Node4&#45;&gt;Node21</title>
<g id="a_edge22_Node000004_Node000021"><a xlink:title=" ">
<path fill="none" stroke="#63b8ff" d="M633,-220.83C633,-214.32 633,-205.17 633,-196.87"/>
<polygon fill="#63b8ff" stroke="#63b8ff" points="636.5,-196.87 633,-186.87 629.5,-196.87 636.5,-196.87"/>
</a>
</g>
</g>
<!-- Node42 -->
<g id="Node000042" class="node">
<title>Node42</title>
<g id="a_Node000042"><a xlink:href="_t_transient_bits_8h.html" target="_top" xlink:title=" ">
<polygon fill="white" stroke="#666666" points="196.62,-185 109.38,-185 109.38,-165.75 196.62,-165.75 196.62,-185"/>
<text text-anchor="middle" x="153" y="-171.5" font-family="Helvetica,sans-Serif" font-size="10.00">TTransientBits.h</text>
</a>
</g>
</g>
<!-- Node4&#45;&gt;Node42 -->
<g id="edge51_Node000004_Node000042" class="edge">
<title>Node4&#45;&gt;Node42</title>
<g id="a_edge51_Node000004_Node000042"><a xlink:title=" ">
<path fill="none" stroke="#63b8ff" d="M593.31,-225.22C507.84,-215.74 306.2,-193.37 208.28,-182.51"/>
<polygon fill="#63b8ff" stroke="#63b8ff" points="208.7,-179.03 198.37,-181.41 207.92,-185.99 208.7,-179.03"/>
</a>
</g>
</g>
<!-- Node7 -->
<g id="Node000007" class="node">
<title>Node7</title>
<g id="a_Node000007"><a xlink:title=" ">
<polygon fill="#e0e0e0" stroke="#999999" points="1359,-19.25 1319,-19.25 1319,0 1359,0 1359,-19.25"/>
<text text-anchor="middle" x="1339" y="-5.75" font-family="Helvetica,sans-Serif" font-size="10.00">string</text>
</a>
</g>
</g>
<!-- Node6&#45;&gt;Node7 -->
<g id="edge6_Node000006_Node000007" class="edge">
<title>Node6&#45;&gt;Node7</title>
<g id="a_edge6_Node000006_Node000007"><a xlink:title=" ">
<path fill="none" stroke="#63b8ff" d="M1100.63,-113.34C1155.92,-103.36 1263.58,-83.18 1279,-74.5 1298.82,-63.35 1315.96,-43.44 1326.78,-28.8"/>
<polygon fill="#63b8ff" stroke="#63b8ff" points="1329.44,-31.11 1332.35,-20.92 1323.72,-27.07 1329.44,-31.11"/>
</a>
</g>
</g>
<!-- Node8 -->
<g id="Node000008" class="node">
<title>Node8</title>
<g id="a_Node000008"><a xlink:title=" ">
<polygon fill="#e0e0e0" stroke="#999999" points="1089.5,-74.5 1046.5,-74.5 1046.5,-55.25 1089.5,-55.25 1089.5,-74.5"/>
<text text-anchor="middle" x="1068" y="-61" font-family="Helvetica,sans-Serif" font-size="10.00">cmath</text>
</a>
</g>
</g>
<!-- Node6&#45;&gt;Node8 -->
<g id="edge7_Node000006_Node000008" class="edge">
<title>Node6&#45;&gt;Node8</title>
<g id="a_edge7_Node000006_Node000008"><a xlink:title=" ">
<path fill="none" stroke="#63b8ff" d="M1068,-110.33C1068,-103.82 1068,-94.67 1068,-86.37"/>
<polygon fill="#63b8ff" stroke="#63b8ff" points="1071.5,-86.37 1068,-76.37 1064.5,-86.37 1071.5,-86.37"/>
</a>
</g>
</g>
<!-- Node9 -->
<g id="Node000009" class="node">
<title>Node9</title>
<g id="a_Node000009"><a xlink:title=" ">
<polygon fill="#e0e0e0" stroke="#999999" points="800.25,-74.5 761.75,-74.5 761.75,-55.25 800.25,-55.25 800.25,-74.5"/>
<text text-anchor="middle" x="781" y="-61" font-family="Helvetica,sans-Serif" font-size="10.00">utility</text>
</a>
</g>
</g>
<!-- Node6&#45;&gt;Node9 -->
<g id="edge8_Node000006_Node000009" class="edge">
<title>Node6&#45;&gt;Node9</title>
<g id="a_edge8_Node000006_Node000009"><a xlink:title=" ">
<path fill="none" stroke="#63b8ff" d="M1035.17,-114.71C987.93,-108.09 897.89,-94.45 811.62,-74.62"/>
<polygon fill="#63b8ff" stroke="#63b8ff" points="812.58,-71.25 802.05,-72.38 810.99,-78.06 812.58,-71.25"/>
</a>
</g>
</g>
<!-- Node10 -->
<g id="Node000010" class="node">
<title>Node10</title>
<g id="a_Node000010"><a xlink:title=" ">
<polygon fill="#e0e0e0" stroke="#999999" points="1190.38,-74.5 1107.62,-74.5 1107.62,-55.25 1190.38,-55.25 1190.38,-74.5"/>
<text text-anchor="middle" x="1149" y="-61" font-family="Helvetica,sans-Serif" font-size="10.00">unordered_map</text>
</a>
</g>
</g>
<!-- Node6&#45;&gt;Node10 -->
<g id="edge9_Node000006_Node000010" class="edge">
<title>Node6&#45;&gt;Node10</title>
<g id="a_edge9_Node000006_Node000010"><a xlink:title=" ">
<path fill="none" stroke="#63b8ff" d="M1081.74,-110.09C1093.73,-102.21 1111.37,-90.61 1125.58,-81.27"/>
<polygon fill="#63b8ff" stroke="#63b8ff" points="1127.49,-84.2 1133.93,-75.78 1123.65,-78.35 1127.49,-84.2"/>
</a>
</g>
</g>
<!-- Node11 -->
<g id="Node000011" class="node">
<title>Node11</title>
<g id="a_Node000011"><a xlink:title=" ">
<polygon fill="#e0e0e0" stroke="#999999" points="1269.5,-74.5 1208.5,-74.5 1208.5,-55.25 1269.5,-55.25 1269.5,-74.5"/>
<text text-anchor="middle" x="1239" y="-61" font-family="Helvetica,sans-Serif" font-size="10.00">TNamed.h</text>
</a>
</g>
</g>
<!-- Node6&#45;&gt;Node11 -->
<g id="edge10_Node000006_Node000011" class="edge">
<title>Node6&#45;&gt;Node11</title>
<g id="a_edge10_Node000006_Node000011"><a xlink:title=" ">
<path fill="none" stroke="#63b8ff" d="M1097.01,-110.09C1125.01,-101.37 1167.66,-88.09 1198.9,-78.36"/>
<polygon fill="#63b8ff" stroke="#63b8ff" points="1199.9,-81.72 1208.4,-75.4 1197.82,-75.03 1199.9,-81.72"/>
</a>
</g>
</g>
<!-- Node12 -->
<g id="Node000012" class="node">
<title>Node12</title>
<g id="a_Node000012"><a xlink:title=" ">
<polygon fill="#e0e0e0" stroke="#999999" points="867.5,-74.5 818.5,-74.5 818.5,-55.25 867.5,-55.25 867.5,-74.5"/>
<text text-anchor="middle" x="843" y="-61" font-family="Helvetica,sans-Serif" font-size="10.00">TTree.h</text>
</a>
</g>
</g>
<!-- Node6&#45;&gt;Node12 -->
<g id="edge11_Node000006_Node000012" class="edge">
<title>Node6&#45;&gt;Node12</title>
<g id="a_edge11_Node000006_Node000012"><a xlink:title=" ">
<path fill="none" stroke="#63b8ff" d="M1035.32,-111.82C999.23,-103.68 939.12,-89.95 878.72,-75.13"/>
<polygon fill="#63b8ff" stroke="#63b8ff" points="879.86,-71.8 869.32,-72.81 878.19,-78.6 879.86,-71.8"/>
</a>
</g>
</g>
<!-- Node13 -->
<g id="Node000013" class="node">
<title>Node13</title>
<g id="a_Node000013"><a xlink:title=" ">
<polygon fill="#e0e0e0" stroke="#999999" points="940.88,-74.5 885.12,-74.5 885.12,-55.25 940.88,-55.25 940.88,-74.5"/>
<text text-anchor="middle" x="913" y="-61" font-family="Helvetica,sans-Serif" font-size="10.00">TGraph.h</text>
</a>
</g>
</g>
<!-- Node6&#45;&gt;Node13 -->
<g id="edge12_Node000006_Node000013" class="edge">
<title>Node6&#45;&gt;Node13</title>
<g id="a_edge12_Node000006_Node000013"><a xlink:title=" ">
<path fill="none" stroke="#63b8ff" d="M1041.71,-110.09C1016.54,-101.45 978.35,-88.32 950.09,-78.62"/>
<polygon fill="#63b8ff" stroke="#63b8ff" points="951.45,-75.38 940.85,-75.44 949.17,-82 951.45,-75.38"/>
</a>
</g>
</g>
<!-- Node14 -->
<g id="Node000014" class="node">
<title>Node14</title>
<g id="a_Node000014"><a xlink:title=" ">
<polygon fill="#e0e0e0" stroke="#999999" points="1028.62,-74.5 959.38,-74.5 959.38,-55.25 1028.62,-55.25 1028.62,-74.5"/>
<text text-anchor="middle" x="994" y="-61" font-family="Helvetica,sans-Serif" font-size="10.00">TClassRef.h</text>
</a>
</g>
</g>
<!-- Node6&#45;&gt;Node14 -->
<g id="edge13_Node000006_Node000014" class="edge">
<title>Node6&#45;&gt;Node14</title>
<g id="a_edge13_Node000006_Node000014"><a xlink:title=" ">
<path fill="none" stroke="#63b8ff" d="M1055.45,-110.09C1044.54,-102.24 1028.5,-90.7 1015.54,-81.37"/>
<polygon fill="#63b8ff" stroke="#63b8ff" points="1017.76,-78.66 1007.6,-75.66 1013.67,-84.34 1017.76,-78.66"/>
</a>
</g>
</g>
<!-- Node15 -->
<g id="Node000015" class="node">
<title>Node15</title>
<g id="a_Node000015"><a xlink:href="_t_priority_value_8h.html" target="_top" xlink:title=" ">
<polygon fill="white" stroke="#666666" points="1448.12,-74.5 1363.88,-74.5 1363.88,-55.25 1448.12,-55.25 1448.12,-74.5"/>
<text text-anchor="middle" x="1406" y="-61" font-family="Helvetica,sans-Serif" font-size="10.00">TPriorityValue.h</text>
</a>
</g>
</g>
<!-- Node6&#45;&gt;Node15 -->
<g id="edge14_Node000006_Node000015" class="edge">
<title>Node6&#45;&gt;Node15</title>
<g id="a_edge14_Node000006_Node000015"><a xlink:title=" ">
<path fill="none" stroke="#63b8ff" d="M1100.72,-113.65C1107.11,-112.59 1113.77,-111.5 1120,-110.5 1163.65,-103.47 1282.41,-85.03 1352.4,-74.17"/>
<polygon fill="#63b8ff" stroke="#63b8ff" points="1352.78,-77.66 1362.12,-72.67 1351.71,-70.74 1352.78,-77.66"/>
</a>
</g>
</g>
<!-- Node15&#45;&gt;Node5 -->
<g id="edge17_Node000015_Node000005" class="edge">
<title>Node15&#45;&gt;Node5</title>
<g id="a_edge17_Node000015_Node000005"><a xlink:title=" ">
<path fill="none" stroke="#63b8ff" d="M1417.87,-54.84C1428.09,-47.07 1443.07,-35.67 1455.26,-26.4"/>
<polygon fill="#63b8ff" stroke="#63b8ff" points="1457.26,-29.28 1463.1,-20.44 1453.02,-23.71 1457.26,-29.28"/>
</a>
</g>
</g>
<!-- Node15&#45;&gt;Node7 -->
<g id="edge16_Node000015_Node000007" class="edge">
<title>Node15&#45;&gt;Node7</title>
<g id="a_edge16_Node000015_Node000007"><a xlink:title=" ">
<path fill="none" stroke="#63b8ff" d="M1394.63,-54.84C1384.95,-47.15 1370.8,-35.9 1359.19,-26.68"/>
<polygon fill="#63b8ff" stroke="#63b8ff" points="1361.39,-23.95 1351.38,-20.47 1357.03,-29.43 1361.39,-23.95"/>
</a>
</g>
</g>
<!-- Node16 -->
<g id="Node000016" class="node">
<title>Node16</title>
<g id="a_Node000016"><a xlink:title=" ">
<polygon fill="#e0e0e0" stroke="#999999" points="1431.62,-19.25 1380.38,-19.25 1380.38,0 1431.62,0 1431.62,-19.25"/>
<text text-anchor="middle" x="1406" y="-5.75" font-family="Helvetica,sans-Serif" font-size="10.00">ostream</text>
</a>
</g>
</g>
<!-- Node15&#45;&gt;Node16 -->
<g id="edge15_Node000015_Node000016" class="edge">
<title>Node15&#45;&gt;Node16</title>
<g id="a_edge15_Node000015_Node000016"><a xlink:title=" ">
<path fill="none" stroke="#63b8ff" d="M1406,-55.08C1406,-48.57 1406,-39.42 1406,-31.12"/>
<polygon fill="#63b8ff" stroke="#63b8ff" points="1409.5,-31.12 1406,-21.12 1402.5,-31.12 1409.5,-31.12"/>
</a>
</g>
</g>
<!-- Node21&#45;&gt;Node9 -->
<g id="edge24_Node000021_Node000009" class="edge">
<title>Node21&#45;&gt;Node9</title>
<g id="a_edge24_Node000021_Node000009"><a xlink:title=" ">
<path fill="none" stroke="#63b8ff" d="M658.58,-166.54C679.51,-159.27 709.11,-146.98 731,-129.75 747.05,-117.12 760.96,-98.3 770.01,-84.35"/>
<polygon fill="#63b8ff" stroke="#63b8ff" points="772.82,-86.45 775.13,-76.11 766.88,-82.76 772.82,-86.45"/>
</a>
</g>
</g>
<!-- Node21&#45;&gt;Node18 -->
<g id="edge26_Node000021_Node000018" class="edge">
<title>Node21&#45;&gt;Node18</title>
<g id="a_edge26_Node000021_Node000018"><a xlink:title=" ">
<path fill="none" stroke="#63b8ff" d="M611.56,-165.37C597.21,-158.07 579.47,-146.27 571,-129.75 562.95,-114.04 573.61,-95.91 584.57,-82.99"/>
<polygon fill="#63b8ff" stroke="#63b8ff" points="587.07,-85.44 591.3,-75.72 581.94,-80.68 587.07,-85.44"/>
</a>
</g>
</g>
<!-- Node22 -->
<g id="Node000022" class="node">
<title>Node22</title>
<g id="a_Node000022"><a xlink:title=" ">
<polygon fill="#e0e0e0" stroke="#999999" points="614.38,-129.75 579.62,-129.75 579.62,-110.5 614.38,-110.5 614.38,-129.75"/>
<text text-anchor="middle" x="597" y="-116.25" font-family="Helvetica,sans-Serif" font-size="10.00">map</text>
</a>
</g>
</g>
<!-- Node21&#45;&gt;Node22 -->
<g id="edge23_Node000021_Node000022" class="edge">
<title>Node21&#45;&gt;Node22</title>
<g id="a_edge23_Node000021_Node000022"><a xlink:title=" ">
<path fill="none" stroke="#63b8ff" d="M627.06,-165.58C622.29,-158.53 615.44,-148.4 609.48,-139.58"/>
<polygon fill="#63b8ff" stroke="#63b8ff" points="612.42,-137.69 603.92,-131.36 606.62,-141.61 612.42,-137.69"/>
</a>
</g>
</g>
<!-- Node21&#45;&gt;Node23 -->
<g id="edge25_Node000021_Node000023" class="edge">
<title>Node21&#45;&gt;Node23</title>
<g id="a_edge25_Node000021_Node000023"><a xlink:title=" ">
<path fill="none" stroke="#63b8ff" d="M607.37,-171.1C531.5,-160.87 310.42,-127.03 264,-74.5 253.45,-62.56 249.65,-44.7 248.37,-30.89"/>
<polygon fill="#63b8ff" stroke="#63b8ff" points="251.88,-30.96 247.86,-21.15 244.89,-31.32 251.88,-30.96"/>
</a>
</g>
</g>
<!-- Node24 -->
<g id="Node000024" class="node">
<title>Node24</title>
<g id="a_Node000024"><a xlink:title=" ">
<polygon fill="#e0e0e0" stroke="#999999" points="705.12,-129.75 632.88,-129.75 632.88,-110.5 705.12,-110.5 705.12,-129.75"/>
<text text-anchor="middle" x="669" y="-116.25" font-family="Helvetica,sans-Serif" font-size="10.00">TCollection.h</text>
</a>
</g>
</g>
<!-- Node21&#45;&gt;Node24 -->
<g id="edge27_Node000021_Node000024" class="edge">
<title>Node21&#45;&gt;Node24</title>
<g id="a_edge27_Node000021_Node000024"><a xlink:title=" ">
<path fill="none" stroke="#63b8ff" d="M638.94,-165.58C643.71,-158.53 650.56,-148.4 656.52,-139.58"/>
<polygon fill="#63b8ff" stroke="#63b8ff" points="659.38,-141.61 662.08,-131.36 653.58,-137.69 659.38,-141.61"/>
</a>
</g>
</g>
<!-- Node25 -->
<g id="Node000025" class="node">
<title>Node25</title>
<g id="a_Node000025"><a xlink:href="_globals_8h.html" target="_top" xlink:title=" ">
<polygon fill="white" stroke="#666666" points="743.25,-74.5 686.75,-74.5 686.75,-55.25 743.25,-55.25 743.25,-74.5"/>
<text text-anchor="middle" x="715" y="-61" font-family="Helvetica,sans-Serif" font-size="10.00">Globals.h</text>
</a>
</g>
</g>
<!-- Node21&#45;&gt;Node25 -->
<g id="edge28_Node000021_Node000025" class="edge">
<title>Node21&#45;&gt;Node25</title>
<g id="a_edge28_Node000021_Node000025"><a xlink:title=" ">
<path fill="none" stroke="#63b8ff" d="M658.71,-167.73C677.61,-161.37 702,-149.7 714,-129.75 721.8,-116.79 721.57,-99.5 719.65,-86.18"/>
<polygon fill="#63b8ff" stroke="#63b8ff" points="723.1,-85.55 717.79,-76.38 716.22,-86.86 723.1,-85.55"/>
</a>
</g>
</g>
<!-- Node37 -->
<g id="Node000037" class="node">
<title>Node37</title>
<g id="a_Node000037"><a xlink:href="_t_singleton_8h.html" target="_top" xlink:title=" ">
<polygon fill="white" stroke="#666666" points="486,-129.75 416,-129.75 416,-110.5 486,-110.5 486,-129.75"/>
<text text-anchor="middle" x="451" y="-116.25" font-family="Helvetica,sans-Serif" font-size="10.00">TSingleton.h</text>
</a>
</g>
</g>
<!-- Node21&#45;&gt;Node37 -->
<g id="edge43_Node000021_Node000037" class="edge">
<title>Node21&#45;&gt;Node37</title>
<g id="a_edge43_Node000021_Node000037"><a xlink:title=" ">
<path fill="none" stroke="#63b8ff" d="M607.31,-166.86C577.6,-158.17 528.27,-143.73 492.97,-133.4"/>
<polygon fill="#63b8ff" stroke="#63b8ff" points="494.07,-130.08 483.49,-130.63 492.11,-136.8 494.07,-130.08"/>
</a>
</g>
</g>
<!-- Node25&#45;&gt;Node2 -->
<g id="edge33_Node000025_Node000002" class="edge">
<title>Node25&#45;&gt;Node2</title>
<g id="a_edge33_Node000025_Node000002"><a xlink:title=" ">
<path fill="none" stroke="#63b8ff" d="M686.53,-60.38C672.53,-58.72 655.39,-56.77 640,-55.25 540.67,-45.43 234.56,-21.14 133.65,-13.19"/>
<polygon fill="#63b8ff" stroke="#63b8ff" points="134.14,-9.72 123.89,-12.42 133.59,-16.7 134.14,-9.72"/>
</a>
</g>
</g>
<!-- Node25&#45;&gt;Node7 -->
<g id="edge32_Node000025_Node000007" class="edge">
<title>Node25&#45;&gt;Node7</title>
<g id="a_edge32_Node000025_Node000007"><a xlink:title=" ">
<path fill="none" stroke="#63b8ff" d="M743.55,-56.92C746.72,-56.29 749.92,-55.71 753,-55.25 807.94,-46.97 1193.61,-20.47 1307.44,-12.75"/>
<polygon fill="#63b8ff" stroke="#63b8ff" points="1307.52,-16.26 1317.26,-12.09 1307.05,-9.27 1307.52,-16.26"/>
</a>
</g>
</g>
<!-- Node25&#45;&gt;Node23 -->
<g id="edge29_Node000025_Node000023" class="edge">
<title>Node25&#45;&gt;Node23</title>
<g id="a_edge29_Node000025_Node000023"><a xlink:title=" ">
<path fill="none" stroke="#63b8ff" d="M686.6,-57.65C682.07,-56.77 677.41,-55.93 673,-55.25 531.2,-33.3 361.09,-19.05 286.37,-13.39"/>
<polygon fill="#63b8ff" stroke="#63b8ff" points="286.96,-9.92 276.73,-12.67 286.44,-16.9 286.96,-9.92"/>
</a>
</g>
</g>
<!-- Node26 -->
<g id="Node000026" class="node">
<title>Node26</title>
<g id="a_Node000026"><a xlink:title=" ">
<polygon fill="#e0e0e0" stroke="#999999" points="1062.88,-19.25 1013.12,-19.25 1013.12,0 1062.88,0 1062.88,-19.25"/>
<text text-anchor="middle" x="1038" y="-5.75" font-family="Helvetica,sans-Serif" font-size="10.00">iomanip</text>
</a>
</g>
</g>
<!-- Node25&#45;&gt;Node26 -->
<g id="edge30_Node000025_Node000026" class="edge">
<title>Node25&#45;&gt;Node26</title>
<g id="a_edge30_Node000025_Node000026"><a xlink:title=" ">
<path fill="none" stroke="#63b8ff" d="M743.58,-57.13C746.75,-56.46 749.94,-55.82 753,-55.25 860.25,-35.42 891.45,-40.75 1001.55,-19.54"/>
<polygon fill="#63b8ff" stroke="#63b8ff" points="1002.19,-22.98 1011.33,-17.62 1000.84,-16.11 1002.19,-22.98"/>
</a>
</g>
</g>
<!-- Node27 -->
<g id="Node000027" class="node">
<title>Node27</title>
<g id="a_Node000027"><a xlink:title=" ">
<polygon fill="#e0e0e0" stroke="#999999" points="439,-19.25 381,-19.25 381,0 439,0 439,-19.25"/>
<text text-anchor="middle" x="410" y="-5.75" font-family="Helvetica,sans-Serif" font-size="10.00">stdexcept</text>
</a>
</g>
</g>
<!-- Node25&#45;&gt;Node27 -->
<g id="edge31_Node000025_Node000027" class="edge">
<title>Node25&#45;&gt;Node27</title>
<g id="a_edge31_Node000025_Node000027"><a xlink:title=" ">
<path fill="none" stroke="#63b8ff" d="M686.57,-57.86C682.03,-56.95 677.39,-56.05 673,-55.25 576.88,-37.7 549.35,-38.39 450.51,-19.63"/>
<polygon fill="#63b8ff" stroke="#63b8ff" points="451.39,-16.23 440.91,-17.78 450.07,-23.11 451.39,-16.23"/>
</a>
</g>
</g>
<!-- Node28 -->
<g id="Node000028" class="node">
<title>Node28</title>
<g id="a_Node000028"><a xlink:title=" ">
<polygon fill="#e0e0e0" stroke="#999999" points="501.25,-19.25 456.75,-19.25 456.75,0 501.25,0 501.25,-19.25"/>
<text text-anchor="middle" x="479" y="-5.75" font-family="Helvetica,sans-Serif" font-size="10.00">cstdlib</text>
</a>
</g>
</g>
<!-- Node25&#45;&gt;Node28 -->
<g id="edge34_Node000025_Node000028" class="edge">
<title>Node25&#45;&gt;Node28</title>
<g id="a_edge34_Node000025_Node000028"><a xlink:title=" ">
<path fill="none" stroke="#63b8ff" d="M686.33,-57.84C642.07,-48.5 558.14,-30.66 512.61,-19.76"/>
<polygon fill="#63b8ff" stroke="#63b8ff" points="513.66,-16.42 503.12,-17.45 512,-23.22 513.66,-16.42"/>
</a>
</g>
</g>
<!-- Node29 -->
<g id="Node000029" class="node">
<title>Node29</title>
<g id="a_Node000029"><a xlink:title=" ">
<polygon fill="#e0e0e0" stroke="#999999" points="578.75,-19.25 519.25,-19.25 519.25,0 578.75,0 578.75,-19.25"/>
<text text-anchor="middle" x="549" y="-5.75" font-family="Helvetica,sans-Serif" font-size="10.00">execinfo.h</text>
</a>
</g>
</g>
<!-- Node25&#45;&gt;Node29 -->
<g id="edge35_Node000025_Node000029" class="edge">
<title>Node25&#45;&gt;Node29</title>
<g id="a_edge35_Node000025_Node000029"><a xlink:title=" ">
<path fill="none" stroke="#63b8ff" d="M686.84,-54.84C659.65,-46.12 618.26,-32.84 587.93,-23.11"/>
<polygon fill="#63b8ff" stroke="#63b8ff" points="589.33,-19.89 578.74,-20.16 587.19,-26.55 589.33,-19.89"/>
</a>
</g>
</g>
<!-- Node30 -->
<g id="Node000030" class="node">
<title>Node30</title>
<g id="a_Node000030"><a xlink:title=" ">
<polygon fill="#e0e0e0" stroke="#999999" points="647.25,-19.25 596.75,-19.25 596.75,0 647.25,0 647.25,-19.25"/>
<text text-anchor="middle" x="622" y="-5.75" font-family="Helvetica,sans-Serif" font-size="10.00">cxxabi.h</text>
</a>
</g>
</g>
<!-- Node25&#45;&gt;Node30 -->
<g id="edge36_Node000025_Node000030" class="edge">
<title>Node25&#45;&gt;Node30</title>
<g id="a_edge36_Node000025_Node000030"><a xlink:title=" ">
<path fill="none" stroke="#63b8ff" d="M699.22,-54.84C685.06,-46.73 664.02,-34.68 647.47,-25.21"/>
<polygon fill="#63b8ff" stroke="#63b8ff" points="649.58,-22.39 639.17,-20.45 646.11,-28.46 649.58,-22.39"/>
</a>
</g>
</g>
<!-- Node31 -->
<g id="Node000031" class="node">
<title>Node31</title>
<g id="a_Node000031"><a xlink:title=" ">
<polygon fill="#e0e0e0" stroke="#999999" points="1202.62,-19.25 1151.38,-19.25 1151.38,0 1202.62,0 1202.62,-19.25"/>
<text text-anchor="middle" x="1177" y="-5.75" font-family="Helvetica,sans-Serif" font-size="10.00">sstream</text>
</a>
</g>
</g>
<!-- Node25&#45;&gt;Node31 -->
<g id="edge37_Node000025_Node000031" class="edge">
<title>Node25&#45;&gt;Node31</title>
<g id="a_edge37_Node000025_Node000031"><a xlink:title=" ">
<path fill="none" stroke="#63b8ff" d="M743.56,-57.01C746.74,-56.36 749.93,-55.76 753,-55.25 827.18,-42.97 1050.66,-22.08 1139.75,-13.97"/>
<polygon fill="#63b8ff" stroke="#63b8ff" points="1140,-17.47 1149.65,-13.08 1139.37,-10.49 1140,-17.47"/>
</a>
</g>
</g>
<!-- Node32 -->
<g id="Node000032" class="node">
<title>Node32</title>
<g id="a_Node000032"><a xlink:title=" ">
<polygon fill="#e0e0e0" stroke="#999999" points="702.5,-19.25 665.5,-19.25 665.5,0 702.5,0 702.5,-19.25"/>
<text text-anchor="middle" x="684" y="-5.75" font-family="Helvetica,sans-Serif" font-size="10.00">array</text>
</a>
</g>
</g>
<!-- Node25&#45;&gt;Node32 -->
<g id="edge38_Node000025_Node000032" class="edge">
<title>Node25&#45;&gt;Node32</title>
<g id="a_edge38_Node000025_Node000032"><a xlink:title=" ">
<path fill="none" stroke="#63b8ff" d="M709.88,-55.08C705.82,-48.11 700.01,-38.12 694.91,-29.37"/>
<polygon fill="#63b8ff" stroke="#63b8ff" points="698.05,-27.8 689.99,-20.92 692,-31.32 698.05,-27.8"/>
</a>
</g>
</g>
<!-- Node33 -->
<g id="Node000033" class="node">
<title>Node33</title>
<g id="a_Node000033"><a xlink:title=" ">
<polygon fill="#e0e0e0" stroke="#999999" points="771.25,-19.25 720.75,-19.25 720.75,0 771.25,0 771.25,-19.25"/>
<text text-anchor="middle" x="746" y="-5.75" font-family="Helvetica,sans-Serif" font-size="10.00">memory</text>
</a>
</g>
</g>
<!-- Node25&#45;&gt;Node33 -->
<g id="edge39_Node000025_Node000033" class="edge">
<title>Node25&#45;&gt;Node33</title>
<g id="a_edge39_Node000025_Node000033"><a xlink:title=" ">
<path fill="none" stroke="#63b8ff" d="M720.12,-55.08C724.18,-48.11 729.99,-38.12 735.09,-29.37"/>
<polygon fill="#63b8ff" stroke="#63b8ff" points="738,-31.32 740.01,-20.92 731.95,-27.8 738,-31.32"/>
</a>
</g>
</g>
<!-- Node34 -->
<g id="Node000034" class="node">
<title>Node34</title>
<g id="a_Node000034"><a xlink:title=" ">
<polygon fill="#e0e0e0" stroke="#999999" points="838.88,-19.25 789.12,-19.25 789.12,0 838.88,0 838.88,-19.25"/>
<text text-anchor="middle" x="814" y="-5.75" font-family="Helvetica,sans-Serif" font-size="10.00">unistd.h</text>
</a>
</g>
</g>
<!-- Node25&#45;&gt;Node34 -->
<g id="edge40_Node000025_Node000034" class="edge">
<title>Node25&#45;&gt;Node34</title>
<g id="a_edge40_Node000025_Node000034"><a xlink:title=" ">
<path fill="none" stroke="#63b8ff" d="M731.79,-54.84C747.01,-46.66 769.7,-34.46 787.38,-24.94"/>
<polygon fill="#63b8ff" stroke="#63b8ff" points="788.64,-28.24 795.79,-20.42 785.33,-22.07 788.64,-28.24"/>
</a>
</g>
</g>
<!-- Node35 -->
<g id="Node000035" class="node">
<title>Node35</title>
<g id="a_Node000035"><a xlink:title=" ">
<polygon fill="#e0e0e0" stroke="#999999" points="916.75,-19.25 857.25,-19.25 857.25,0 916.75,0 916.75,-19.25"/>
<text text-anchor="middle" x="887" y="-5.75" font-family="Helvetica,sans-Serif" font-size="10.00">sys/wait.h</text>
</a>
</g>
</g>
<!-- Node25&#45;&gt;Node35 -->
<g id="edge41_Node000025_Node000035" class="edge">
<title>Node25&#45;&gt;Node35</title>
<g id="a_edge41_Node000025_Node000035"><a xlink:title=" ">
<path fill="none" stroke="#63b8ff" d="M743.4,-55.08C771.65,-46.34 815.25,-32.84 847,-23.01"/>
<polygon fill="#63b8ff" stroke="#63b8ff" points="847.73,-26.45 856.25,-20.15 845.66,-19.76 847.73,-26.45"/>
</a>
</g>
</g>
<!-- Node36 -->
<g id="Node000036" class="node">
<title>Node36</title>
<g id="a_Node000036"><a xlink:title=" ">
<polygon fill="#e0e0e0" stroke="#999999" points="995.12,-19.25 934.88,-19.25 934.88,0 995.12,0 995.12,-19.25"/>
<text text-anchor="middle" x="965" y="-5.75" font-family="Helvetica,sans-Serif" font-size="10.00">sys/prctl.h</text>
</a>
</g>
</g>
<!-- Node25&#45;&gt;Node36 -->
<g id="edge42_Node000025_Node000036" class="edge">
<title>Node25&#45;&gt;Node36</title>
<g id="a_edge42_Node000025_Node000036"><a xlink:title=" ">
<path fill="none" stroke="#63b8ff" d="M743.62,-57.32C746.78,-56.61 749.96,-55.91 753,-55.25 826.29,-39.31 847.35,-36.01 923.63,-19.73"/>
<polygon fill="#63b8ff" stroke="#63b8ff" points="924.25,-23.18 933.29,-17.67 922.78,-16.34 924.25,-23.18"/>
</a>
</g>
</g>
<!-- Node37&#45;&gt;Node18 -->
<g id="edge45_Node000037_Node000018" class="edge">
<title>Node37&#45;&gt;Node18</title>
<g id="a_edge45_Node000037_Node000018"><a xlink:title=" ">
<path fill="none" stroke="#63b8ff" d="M476.62,-110.09C501.02,-101.49 538.01,-88.44 565.5,-78.75"/>
<polygon fill="#63b8ff" stroke="#63b8ff" points="566.57,-82.08 574.83,-75.46 564.24,-75.48 566.57,-82.08"/>
</a>
</g>
</g>
<!-- Node37&#45;&gt;Node23 -->
<g id="edge44_Node000037_Node000023" class="edge">
<title>Node37&#45;&gt;Node23</title>
<g id="a_edge44_Node000037_Node000023"><a xlink:title=" ">
<path fill="none" stroke="#63b8ff" d="M415.76,-117.21C379.85,-113.65 324.18,-103.47 286,-74.5 271.22,-63.29 261.06,-44.53 254.99,-30.23"/>
<polygon fill="#63b8ff" stroke="#63b8ff" points="258.27,-29 251.39,-20.95 251.74,-31.53 258.27,-29"/>
</a>
</g>
</g>
<!-- Node37&#45;&gt;Node25 -->
<g id="edge50_Node000037_Node000025" class="edge">
<title>Node37&#45;&gt;Node25</title>
<g id="a_edge50_Node000037_Node000025"><a xlink:title=" ">
<path fill="none" stroke="#63b8ff" d="M486.33,-112C535.44,-102.09 624.09,-84.21 675.39,-73.87"/>
<polygon fill="#63b8ff" stroke="#63b8ff" points="675.76,-77.36 684.87,-71.95 674.37,-70.5 675.76,-77.36"/>
</a>
</g>
</g>
<!-- Node38 -->
<g id="Node000038" class="node">
<title>Node38</title>
<g id="a_Node000038"><a xlink:title=" ">
<polygon fill="#e0e0e0" stroke="#999999" points="426.88,-74.5 359.12,-74.5 359.12,-55.25 426.88,-55.25 426.88,-74.5"/>
<text text-anchor="middle" x="393" y="-61" font-family="Helvetica,sans-Serif" font-size="10.00">TDirectory.h</text>
</a>
</g>
</g>
<!-- Node37&#45;&gt;Node38 -->
<g id="edge46_Node000037_Node000038" class="edge">
<title>Node37&#45;&gt;Node38</title>
<g id="a_edge46_Node000037_Node000038"><a xlink:title=" ">
<path fill="none" stroke="#63b8ff" d="M441.16,-110.09C432.95,-102.55 421.02,-91.6 411.09,-82.48"/>
<polygon fill="#63b8ff" stroke="#63b8ff" points="413.54,-79.98 403.81,-75.8 408.81,-85.14 413.54,-79.98"/>
</a>
</g>
</g>
<!-- Node39 -->
<g id="Node000039" class="node">
<title>Node39</title>
<g id="a_Node000039"><a xlink:title=" ">
<polygon fill="#e0e0e0" stroke="#999999" points="490.62,-74.5 445.38,-74.5 445.38,-55.25 490.62,-55.25 490.62,-74.5"/>
<text text-anchor="middle" x="468" y="-61" font-family="Helvetica,sans-Serif" font-size="10.00">TFile.h</text>
</a>
</g>
</g>
<!-- Node37&#45;&gt;Node39 -->
<g id="edge47_Node000037_Node000039" class="edge">
<title>Node37&#45;&gt;Node39</title>
<g id="a_edge47_Node000037_Node000039"><a xlink:title=" ">
<path fill="none" stroke="#63b8ff" d="M453.81,-110.33C455.94,-103.67 458.94,-94.24 461.64,-85.78"/>
<polygon fill="#63b8ff" stroke="#63b8ff" points="464.96,-86.89 464.67,-76.3 458.3,-84.76 464.96,-86.89"/>
</a>
</g>
</g>
<!-- Node40 -->
<g id="Node000040" class="node">
<title>Node40</title>
<g id="a_Node000040"><a xlink:title=" ">
<polygon fill="#e0e0e0" stroke="#999999" points="555,-74.5 509,-74.5 509,-55.25 555,-55.25 555,-74.5"/>
<text text-anchor="middle" x="532" y="-61" font-family="Helvetica,sans-Serif" font-size="10.00">TList.h</text>
</a>
</g>
</g>
<!-- Node37&#45;&gt;Node40 -->
<g id="edge48_Node000037_Node000040" class="edge">
<title>Node37&#45;&gt;Node40</title>
<g id="a_edge48_Node000037_Node000040"><a xlink:title=" ">
<path fill="none" stroke="#63b8ff" d="M464.74,-110.09C476.73,-102.21 494.37,-90.61 508.58,-81.27"/>
<polygon fill="#63b8ff" stroke="#63b8ff" points="510.49,-84.2 516.93,-75.78 506.65,-78.35 510.49,-84.2"/>
</a>
</g>
</g>
<!-- Node41 -->
<g id="Node000041" class="node">
<title>Node41</title>
<g id="a_Node000041"><a xlink:title=" ">
<polygon fill="#e0e0e0" stroke="#999999" points="341,-74.5 295,-74.5 295,-55.25 341,-55.25 341,-74.5"/>
<text text-anchor="middle" x="318" y="-61" font-family="Helvetica,sans-Serif" font-size="10.00">TKey.h</text>
</a>
</g>
</g>
<!-- Node37&#45;&gt;Node41 -->
<g id="edge49_Node000037_Node000041" class="edge">
<title>Node37&#45;&gt;Node41</title>
<g id="a_edge49_Node000037_Node000041"><a xlink:title=" ">
<path fill="none" stroke="#63b8ff" d="M428.44,-110.09C407.23,-101.6 375.23,-88.79 351.12,-79.14"/>
<polygon fill="#63b8ff" stroke="#63b8ff" points="352.66,-75.98 342.08,-75.52 350.06,-82.48 352.66,-75.98"/>
</a>
</g>
</g>
<!-- Node42&#45;&gt;Node23 -->
<g id="edge52_Node000042_Node000023" class="edge">
<title>Node42&#45;&gt;Node23</title>
<g id="a_edge52_Node000042_Node000023"><a xlink:title=" ">
<path fill="none" stroke="#63b8ff" d="M152.52,-165.39C151.84,-144.21 152.79,-90.32 177,-55.25 186.16,-41.98 200.69,-31.84 214.22,-24.6"/>
<polygon fill="#63b8ff" stroke="#63b8ff" points="215.5,-27.87 222.91,-20.3 212.4,-21.6 215.5,-27.87"/>
</a>
</g>
</g>
<!-- Node43 -->
<g id="Node000043" class="node">
<title>Node43</title>
<g id="a_Node000043"><a xlink:title=" ">
<polygon fill="#e0e0e0" stroke="#999999" points="124.88,-129.75 51.12,-129.75 51.12,-110.5 124.88,-110.5 124.88,-129.75"/>
<text text-anchor="middle" x="88" y="-116.25" font-family="Helvetica,sans-Serif" font-size="10.00">RtypesCore.h</text>
</a>
</g>
</g>
<!-- Node42&#45;&gt;Node43 -->
<g id="edge53_Node000042_Node000043" class="edge">
<title>Node42&#45;&gt;Node43</title>
<g id="a_edge53_Node000042_Node000043"><a xlink:title=" ">
<path fill="none" stroke="#63b8ff" d="M141.97,-165.34C132.58,-157.65 118.85,-146.4 107.59,-137.18"/>
<polygon fill="#63b8ff" stroke="#63b8ff" points="109.99,-134.61 100.03,-130.98 105.55,-140.03 109.99,-134.61"/>
</a>
</g>
</g>
<!-- Node45&#45;&gt;Node6 -->
<g id="edge68_Node000045_Node000006" class="edge">
<title>Node45&#45;&gt;Node6</title>
<g id="a_edge68_Node000045_Node000006"><a xlink:title=" ">
<path fill="none" stroke="#63b8ff" d="M1214.97,-165.34C1185.86,-156.58 1141.46,-143.23 1109.08,-133.48"/>
<polygon fill="#63b8ff" stroke="#63b8ff" points="1110.21,-130.17 1099.62,-130.64 1108.19,-136.87 1110.21,-130.17"/>
</a>
</g>
</g>
<!-- Node45&#45;&gt;Node7 -->
<g id="edge61_Node000045_Node000007" class="edge">
<title>Node45&#45;&gt;Node7</title>
<g id="a_edge61_Node000045_Node000007"><a xlink:title=" ">
<path fill="none" stroke="#63b8ff" d="M1282.52,-169.01C1332.35,-159.65 1418.56,-135.16 1457,-74.5 1461.58,-67.27 1461.86,-62.29 1457,-55.25 1451.8,-47.72 1403.11,-31.01 1369.92,-20.31"/>
<polygon fill="#63b8ff" stroke="#63b8ff" points="1371.38,-17.1 1360.79,-17.39 1369.25,-23.77 1371.38,-17.1"/>
</a>
</g>
</g>
<!-- Node45&#45;&gt;Node15 -->
<g id="edge67_Node000045_Node000015" class="edge">
<title>Node45&#45;&gt;Node15</title>
<g id="a_edge67_Node000045_Node000015"><a xlink:title=" ">
<path fill="none" stroke="#63b8ff" d="M1258.63,-165.35C1272.18,-156.36 1293.56,-142.15 1312,-129.75 1336.56,-113.23 1364.62,-94.13 1383.64,-81.15"/>
<polygon fill="#63b8ff" stroke="#63b8ff" points="1385.41,-84.18 1391.7,-75.65 1381.47,-78.4 1385.41,-84.18"/>
</a>
</g>
</g>
<!-- Node45&#45;&gt;Node18 -->
<g id="edge64_Node000045_Node000018" class="edge">
<title>Node45&#45;&gt;Node18</title>
<g id="a_edge64_Node000045_Node000018"><a xlink:title=" ">
<path fill="none" stroke="#63b8ff" d="M1207.37,-170.48C1192.88,-168.98 1176.17,-167.27 1161,-165.75 998.37,-149.4 954.9,-163.64 795,-129.75 737.18,-117.5 672.41,-93.94 634.53,-79.11"/>
<polygon fill="#63b8ff" stroke="#63b8ff" points="636.13,-75.98 625.54,-75.55 633.55,-82.49 636.13,-75.98"/>
</a>
</g>
</g>
<!-- Node45&#45;&gt;Node23 -->
<g id="edge62_Node000045_Node000023" class="edge">
<title>Node45&#45;&gt;Node23</title>
<g id="a_edge62_Node000045_Node000023"><a xlink:title=" ">
<path fill="none" stroke="#63b8ff" d="M1207.4,-170.14C1147.44,-163.16 1026.56,-148.16 925,-129.75 814.31,-109.69 783.88,-112.49 678,-74.5 660.18,-68.11 658.14,-60.68 640,-55.25 574.35,-35.58 371.79,-19.39 286.49,-13.26"/>
<polygon fill="#63b8ff" stroke="#63b8ff" points="286.76,-9.77 276.53,-12.56 286.26,-16.76 286.76,-9.77"/>
</a>
</g>
</g>
<!-- Node45&#45;&gt;Node25 -->
<g id="edge66_Node000045_Node000025" class="edge">
<title>Node45&#45;&gt;Node25</title>
<g id="a_edge66_Node000045_Node000025"><a xlink:title=" ">
<path fill="none" stroke="#63b8ff" d="M1207.29,-167.03C1126.48,-151.21 930.41,-112.49 754.63,-74.81"/>
<polygon fill="#63b8ff" stroke="#63b8ff" points="755.61,-71.44 745.1,-72.76 754.14,-78.28 755.61,-71.44"/>
</a>
</g>
</g>
<!-- Node45&#45;&gt;Node31 -->
<g id="edge63_Node000045_Node000031" class="edge">
<title>Node45&#45;&gt;Node31</title>
<g id="a_edge63_Node000045_Node000031"><a xlink:title=" ">
<path fill="none" stroke="#63b8ff" d="M1254.61,-165.54C1262.87,-157.22 1274.2,-143.96 1279,-129.75 1289.59,-98.38 1297.12,-82.96 1279,-55.25 1264.7,-33.39 1237.07,-22.17 1214.16,-16.45"/>
<polygon fill="#63b8ff" stroke="#63b8ff" points="1215.05,-13.06 1204.53,-14.33 1213.54,-19.9 1215.05,-13.06"/>
</a>
</g>
</g>
<!-- Node46 -->
<g id="Node000046" class="node">
<title>Node46</title>
<g id="a_Node000046"><a xlink:title=" ">
<polygon fill="#e0e0e0" stroke="#999999" points="1270.12,-129.75 1215.88,-129.75 1215.88,-110.5 1270.12,-110.5 1270.12,-129.75"/>
<text text-anchor="middle" x="1243" y="-116.25" font-family="Helvetica,sans-Serif" font-size="10.00">TClass.h</text>
</a>
</g>
</g>
<!-- Node45&#45;&gt;Node46 -->
<g id="edge65_Node000045_Node000046" class="edge">
<title>Node45&#45;&gt;Node46</title>
<g id="a_edge65_Node000045_Node000046"><a xlink:title=" ">
<path fill="none" stroke="#63b8ff" d="M1244.67,-165.58C1244.42,-158.99 1244.07,-149.71 1243.76,-141.32"/>
<polygon fill="#63b8ff" stroke="#63b8ff" points="1247.27,-141.48 1243.39,-131.62 1240.27,-141.75 1247.27,-141.48"/>
</a>
</g>
</g>
</g>
</svg>
