<?xml version="1.0" encoding="UTF-8" standalone="no"?>
<!DOCTYPE svg PUBLIC "-//W3C//DTD SVG 1.1//EN"
 "http://www.w3.org/Graphics/SVG/1.1/DTD/svg11.dtd">
<!-- Generated by graphviz version 12.2.0 (20241103.1931)
 -->
<!-- Title: TSRIM.cxx Pages: 1 -->
<!--zoomable 138 -->

<svg id="main" version="1.1" xmlns="http://www.w3.org/2000/svg" xmlns:xlink="http://www.w3.org/1999/xlink" xml:space="preserve" onload="init(evt)">

<style type="text/css"><![CDATA[
.node, .edge {opacity: 0.7;}
.node.selected, .edge.selected {opacity: 1;}
.edge:hover path { stroke: red; }
.edge:hover polygon { stroke: red; fill: red; }
]]></style>

<defs>
  <circle id="rim" cx="0" cy="0" r="7"/>
  <circle id="rim2" cx="0" cy="0" r="3.5"/>
  <g id="zoomPlus">
    <use xlink:href="#rim" fill="#404040"><set attributeName="fill" to="#808080" begin="zoomplus.mouseover" end="zoomplus.mouseout"/></use>
    <path d="M-4,0h8M0,-4v8" fill="none" stroke="white" stroke-width="1.5" pointer-events="none"/>
  </g>
  <g id="zoomMin">
    <use xlink:href="#rim" fill="#404040"><set attributeName="fill" to="#808080" begin="zoomminus.mouseover" end="zoomminus.mouseout"/></use>
    <path d="M-4,0h8" fill="none" stroke="white" stroke-width="1.5" pointer-events="none"/>
  </g>
  <g id="arrowUp" transform="translate(30 24)">
    <use xlink:href="#rim"/>
    <path pointer-events="none" fill="none" stroke="white" stroke-width="1.5" d="M0,-3.0v7 M-2.5,-0.5L0,-3.0L2.5,-0.5"/>
  </g>
  <g id="arrowRight" transform="rotate(90) translate(36 -43)">
    <use xlink:href="#rim"/>
    <path pointer-events="none" fill="none" stroke="white" stroke-width="1.5" d="M0,-3.0v7 M-2.5,-0.5L0,-3.0L2.5,-0.5"/>
  </g>
  <g id="arrowDown" transform="rotate(180) translate(-30 -48)">
    <use xlink:href="#rim"/>
    <path pointer-events="none" fill="none" stroke="white" stroke-width="1.5" d="M0,-3.0v7 M-2.5,-0.5L0,-3.0L2.5,-0.5"/>
  </g>
  <g id="arrowLeft" transform="rotate(270) translate(-36 17)">
    <use xlink:href="#rim"/>
    <path pointer-events="none" fill="none" stroke="white" stroke-width="1.5" d="M0,-3.0v7 M-2.5,-0.5L0,-3.0L2.5,-0.5"/>
  </g>
  <g id="resetDef">
    <use xlink:href="#rim2" fill="#404040"><set attributeName="fill" to="#808080" begin="reset.mouseover" end="reset.mouseout"/></use>
  </g>
</defs>
<script type="application/ecmascript">
var viewWidth = 1427;
var viewHeight = 138;
var sectionId = 'dynsection-0';
</script>
<script type="application/ecmascript" xlink:href="svg.min.js"/>
<svg id="graph" class="graph">
<g id="viewport">
<title>TSRIM.cxx</title>
<!-- Node1 -->
<g id="Node000001" class="node">
<title>Node1</title>
<g id="a_Node000001"><a xlink:title=" ">
<polygon fill="#999999" stroke="#666666" points="1131.12,-129.75 1067.88,-129.75 1067.88,-110.5 1131.12,-110.5 1131.12,-129.75"/>
<text text-anchor="middle" x="1099.5" y="-116.25" font-family="Helvetica,sans-Serif" font-size="10.00">TSRIM.cxx</text>
</a>
</g>
</g>
<!-- Node2 -->
<g id="Node000002" class="node">
<title>Node2</title>
<g id="a_Node000002"><a xlink:href="_t_s_r_i_m_8h.html" target="_top" xlink:title=" ">
<polygon fill="white" stroke="#666666" points="1126.62,-74.5 1072.38,-74.5 1072.38,-55.25 1126.62,-55.25 1126.62,-74.5"/>
<text text-anchor="middle" x="1099.5" y="-61" font-family="Helvetica,sans-Serif" font-size="10.00">TSRIM.h</text>
</a>
</g>
</g>
<!-- Node1&#45;&gt;Node2 -->
<g id="edge1_Node000001_Node000002" class="edge">
<title>Node1&#45;&gt;Node2</title>
<g id="a_edge1_Node000001_Node000002"><a xlink:title=" ">
<path fill="none" stroke="#63b8ff" d="M1099.5,-110.33C1099.5,-103.82 1099.5,-94.67 1099.5,-86.37"/>
<polygon fill="#63b8ff" stroke="#63b8ff" points="1103,-86.37 1099.5,-76.37 1096,-86.37 1103,-86.37"/>
</a>
</g>
</g>
<!-- Node8 -->
<g id="Node000008" class="node">
<title>Node8</title>
<g id="a_Node000008"><a xlink:href="_globals_8h.html" target="_top" xlink:title=" ">
<polygon fill="white" stroke="#666666" points="598.75,-74.5 542.25,-74.5 542.25,-55.25 598.75,-55.25 598.75,-74.5"/>
<text text-anchor="middle" x="570.5" y="-61" font-family="Helvetica,sans-Serif" font-size="10.00">Globals.h</text>
</a>
</g>
</g>
<!-- Node1&#45;&gt;Node8 -->
<g id="edge7_Node000001_Node000008" class="edge">
<title>Node1&#45;&gt;Node8</title>
<g id="a_edge7_Node000001_Node000008"><a xlink:title=" ">
<path fill="none" stroke="#63b8ff" d="M1067.6,-115.91C975.85,-106.68 711.39,-80.06 610.38,-69.89"/>
<polygon fill="#63b8ff" stroke="#63b8ff" points="610.97,-66.43 600.67,-68.91 610.27,-73.4 610.97,-66.43"/>
</a>
</g>
</g>
<!-- Node13 -->
<g id="Node000013" class="node">
<title>Node13</title>
<g id="a_Node000013"><a xlink:title=" ">
<polygon fill="#e0e0e0" stroke="#999999" points="1000.62,-19.25 958.38,-19.25 958.38,0 1000.62,0 1000.62,-19.25"/>
<text text-anchor="middle" x="979.5" y="-5.75" font-family="Helvetica,sans-Serif" font-size="10.00">cstdio</text>
</a>
</g>
</g>
<!-- Node1&#45;&gt;Node13 -->
<g id="edge31_Node000001_Node000013" class="edge">
<title>Node1&#45;&gt;Node13</title>
<g id="a_edge31_Node000001_Node000013"><a xlink:title=" ">
<path fill="none" stroke="#63b8ff" d="M1089.68,-110.25C1069.64,-92.13 1023.75,-50.63 997.96,-27.32"/>
<polygon fill="#63b8ff" stroke="#63b8ff" points="1000.34,-24.75 990.58,-20.64 995.65,-29.94 1000.34,-24.75"/>
</a>
</g>
</g>
<!-- Node17 -->
<g id="Node000017" class="node">
<title>Node17</title>
<g id="a_Node000017"><a xlink:title=" ">
<polygon fill="#e0e0e0" stroke="#999999" points="1070.12,-19.25 1018.88,-19.25 1018.88,0 1070.12,0 1070.12,-19.25"/>
<text text-anchor="middle" x="1044.5" y="-5.75" font-family="Helvetica,sans-Serif" font-size="10.00">sstream</text>
</a>
</g>
</g>
<!-- Node1&#45;&gt;Node17 -->
<g id="edge29_Node000001_Node000017" class="edge">
<title>Node1&#45;&gt;Node17</title>
<g id="a_edge29_Node000001_Node000017"><a xlink:title=" ">
<path fill="none" stroke="#63b8ff" d="M1090.62,-110.31C1082.51,-101.81 1070.73,-88.25 1063.5,-74.5 1056.24,-60.69 1051.35,-43.7 1048.36,-30.71"/>
<polygon fill="#63b8ff" stroke="#63b8ff" points="1051.84,-30.27 1046.36,-21.21 1044.99,-31.71 1051.84,-30.27"/>
</a>
</g>
</g>
<!-- Node23 -->
<g id="Node000023" class="node">
<title>Node23</title>
<g id="a_Node000023"><a xlink:href="_t_g_r_s_i_utilities_8h.html" target="_top" xlink:title=" ">
<polygon fill="white" stroke="#666666" points="327.75,-74.5 241.25,-74.5 241.25,-55.25 327.75,-55.25 327.75,-74.5"/>
<text text-anchor="middle" x="284.5" y="-61" font-family="Helvetica,sans-Serif" font-size="10.00">TGRSIUtilities.h</text>
</a>
</g>
</g>
<!-- Node1&#45;&gt;Node23 -->
<g id="edge22_Node000001_Node000023" class="edge">
<title>Node1&#45;&gt;Node23</title>
<g id="a_edge22_Node000001_Node000023"><a xlink:title=" ">
<path fill="none" stroke="#63b8ff" d="M1067.55,-117.04C943.95,-108.96 496.23,-79.71 339.3,-69.46"/>
<polygon fill="#63b8ff" stroke="#63b8ff" points="339.79,-65.98 329.59,-68.82 339.34,-72.97 339.79,-65.98"/>
</a>
</g>
</g>
<!-- Node25 -->
<g id="Node000025" class="node">
<title>Node25</title>
<g id="a_Node000025"><a xlink:title=" ">
<polygon fill="#e0e0e0" stroke="#999999" points="1196.12,-74.5 1144.88,-74.5 1144.88,-55.25 1196.12,-55.25 1196.12,-74.5"/>
<text text-anchor="middle" x="1170.5" y="-61" font-family="Helvetica,sans-Serif" font-size="10.00">TMath.h</text>
</a>
</g>
</g>
<!-- Node1&#45;&gt;Node25 -->
<g id="edge26_Node000001_Node000025" class="edge">
<title>Node1&#45;&gt;Node25</title>
<g id="a_edge26_Node000001_Node000025"><a xlink:title=" ">
<path fill="none" stroke="#63b8ff" d="M1111.54,-110.09C1121.91,-102.32 1137.1,-90.92 1149.47,-81.65"/>
<polygon fill="#63b8ff" stroke="#63b8ff" points="1151.52,-84.48 1157.42,-75.68 1147.32,-78.88 1151.52,-84.48"/>
</a>
</g>
</g>
<!-- Node26 -->
<g id="Node000026" class="node">
<title>Node26</title>
<g id="a_Node000026"><a xlink:title=" ">
<polygon fill="#e0e0e0" stroke="#999999" points="1262.62,-74.5 1214.38,-74.5 1214.38,-55.25 1262.62,-55.25 1262.62,-74.5"/>
<text text-anchor="middle" x="1238.5" y="-61" font-family="Helvetica,sans-Serif" font-size="10.00">TAxis.h</text>
</a>
</g>
</g>
<!-- Node1&#45;&gt;Node26 -->
<g id="edge27_Node000001_Node000026" class="edge">
<title>Node1&#45;&gt;Node26</title>
<g id="a_edge27_Node000001_Node000026"><a xlink:title=" ">
<path fill="none" stroke="#63b8ff" d="M1123.08,-110.09C1145.34,-101.56 1178.99,-88.67 1204.22,-79.01"/>
<polygon fill="#63b8ff" stroke="#63b8ff" points="1205.31,-82.34 1213.39,-75.49 1202.8,-75.8 1205.31,-82.34"/>
</a>
</g>
</g>
<!-- Node27 -->
<g id="Node000027" class="node">
<title>Node27</title>
<g id="a_Node000027"><a xlink:title=" ">
<polygon fill="#e0e0e0" stroke="#999999" points="1324,-74.5 1281,-74.5 1281,-55.25 1324,-55.25 1324,-74.5"/>
<text text-anchor="middle" x="1302.5" y="-61" font-family="Helvetica,sans-Serif" font-size="10.00">cmath</text>
</a>
</g>
</g>
<!-- Node1&#45;&gt;Node27 -->
<g id="edge28_Node000001_Node000027" class="edge">
<title>Node1&#45;&gt;Node27</title>
<g id="a_edge28_Node000001_Node000027"><a xlink:title=" ">
<path fill="none" stroke="#63b8ff" d="M1131.56,-110.99C1163.98,-102.72 1215.79,-89.39 1269.97,-74.87"/>
<polygon fill="#63b8ff" stroke="#63b8ff" points="1270.62,-78.32 1279.37,-72.35 1268.81,-71.56 1270.62,-78.32"/>
</a>
</g>
</g>
<!-- Node28 -->
<g id="Node000028" class="node">
<title>Node28</title>
<g id="a_Node000028"><a xlink:title=" ">
<polygon fill="#e0e0e0" stroke="#999999" points="1418.5,-74.5 1342.5,-74.5 1342.5,-55.25 1418.5,-55.25 1418.5,-74.5"/>
<text text-anchor="middle" x="1380.5" y="-61" font-family="Helvetica,sans-Serif" font-size="10.00">TStopwatch.h</text>
</a>
</g>
</g>
<!-- Node1&#45;&gt;Node28 -->
<g id="edge30_Node000001_Node000028" class="edge">
<title>Node1&#45;&gt;Node28</title>
<g id="a_edge30_Node000001_Node000028"><a xlink:title=" ">
<path fill="none" stroke="#63b8ff" d="M1131.46,-113.07C1180.28,-103.82 1273.8,-86.1 1331.31,-75.2"/>
<polygon fill="#63b8ff" stroke="#63b8ff" points="1331.65,-78.7 1340.82,-73.39 1330.34,-71.82 1331.65,-78.7"/>
</a>
</g>
</g>
<!-- Node3 -->
<g id="Node000003" class="node">
<title>Node3</title>
<g id="a_Node000003"><a xlink:title=" ">
<polygon fill="#e0e0e0" stroke="#999999" points="878,-19.25 835,-19.25 835,0 878,0 878,-19.25"/>
<text text-anchor="middle" x="856.5" y="-5.75" font-family="Helvetica,sans-Serif" font-size="10.00">vector</text>
</a>
</g>
</g>
<!-- Node2&#45;&gt;Node3 -->
<g id="edge2_Node000002_Node000003" class="edge">
<title>Node2&#45;&gt;Node3</title>
<g id="a_edge2_Node000002_Node000003"><a xlink:title=" ">
<path fill="none" stroke="#63b8ff" d="M1071.93,-58.66C1033.34,-51.23 960.81,-36.8 889.45,-19.6"/>
<polygon fill="#63b8ff" stroke="#63b8ff" points="890.48,-16.25 879.94,-17.28 888.83,-23.05 890.48,-16.25"/>
</a>
</g>
</g>
<!-- Node4 -->
<g id="Node000004" class="node">
<title>Node4</title>
<g id="a_Node000004"><a xlink:title=" ">
<polygon fill="#e0e0e0" stroke="#999999" points="1122.88,-19.25 1088.12,-19.25 1088.12,0 1122.88,0 1122.88,-19.25"/>
<text text-anchor="middle" x="1105.5" y="-5.75" font-family="Helvetica,sans-Serif" font-size="10.00">map</text>
</a>
</g>
</g>
<!-- Node2&#45;&gt;Node4 -->
<g id="edge3_Node000002_Node000004" class="edge">
<title>Node2&#45;&gt;Node4</title>
<g id="a_edge3_Node000002_Node000004"><a xlink:title=" ">
<path fill="none" stroke="#63b8ff" d="M1100.49,-55.08C1101.23,-48.49 1102.28,-39.21 1103.22,-30.82"/>
<polygon fill="#63b8ff" stroke="#63b8ff" points="1106.68,-31.44 1104.32,-21.11 1099.72,-30.66 1106.68,-31.44"/>
</a>
</g>
</g>
<!-- Node5 -->
<g id="Node000005" class="node">
<title>Node5</title>
<g id="a_Node000005"><a xlink:title=" ">
<polygon fill="#e0e0e0" stroke="#999999" points="1179.75,-19.25 1141.25,-19.25 1141.25,0 1179.75,0 1179.75,-19.25"/>
<text text-anchor="middle" x="1160.5" y="-5.75" font-family="Helvetica,sans-Serif" font-size="10.00">utility</text>
</a>
</g>
</g>
<!-- Node2&#45;&gt;Node5 -->
<g id="edge4_Node000002_Node000005" class="edge">
<title>Node2&#45;&gt;Node5</title>
<g id="a_edge4_Node000002_Node000005"><a xlink:title=" ">
<path fill="none" stroke="#63b8ff" d="M1109.85,-54.84C1118.58,-47.22 1131.29,-36.12 1141.8,-26.95"/>
<polygon fill="#63b8ff" stroke="#63b8ff" points="1143.93,-29.73 1149.16,-20.52 1139.33,-24.46 1143.93,-29.73"/>
</a>
</g>
</g>
<!-- Node6 -->
<g id="Node000006" class="node">
<title>Node6</title>
<g id="a_Node000006"><a xlink:title=" ">
<polygon fill="#e0e0e0" stroke="#999999" points="1253.38,-19.25 1197.62,-19.25 1197.62,0 1253.38,0 1253.38,-19.25"/>
<text text-anchor="middle" x="1225.5" y="-5.75" font-family="Helvetica,sans-Serif" font-size="10.00">TGraph.h</text>
</a>
</g>
</g>
<!-- Node2&#45;&gt;Node6 -->
<g id="edge5_Node000002_Node000006" class="edge">
<title>Node2&#45;&gt;Node6</title>
<g id="a_edge5_Node000002_Node000006"><a xlink:title=" ">
<path fill="none" stroke="#63b8ff" d="M1120.87,-54.84C1140.79,-46.43 1170.74,-33.77 1193.5,-24.15"/>
<polygon fill="#63b8ff" stroke="#63b8ff" points="1194.78,-27.41 1202.63,-20.29 1192.05,-20.96 1194.78,-27.41"/>
</a>
</g>
</g>
<!-- Node7 -->
<g id="Node000007" class="node">
<title>Node7</title>
<g id="a_Node000007"><a xlink:title=" ">
<polygon fill="#e0e0e0" stroke="#999999" points="1327.75,-19.25 1271.25,-19.25 1271.25,0 1327.75,0 1327.75,-19.25"/>
<text text-anchor="middle" x="1299.5" y="-5.75" font-family="Helvetica,sans-Serif" font-size="10.00">TSpline.h</text>
</a>
</g>
</g>
<!-- Node2&#45;&gt;Node7 -->
<g id="edge6_Node000002_Node000007" class="edge">
<title>Node2&#45;&gt;Node7</title>
<g id="a_edge6_Node000002_Node000007"><a xlink:title=" ">
<path fill="none" stroke="#63b8ff" d="M1126.89,-56.58C1161.26,-47.43 1220.46,-31.67 1259.8,-21.19"/>
<polygon fill="#63b8ff" stroke="#63b8ff" points="1260.6,-24.6 1269.36,-18.65 1258.8,-17.84 1260.6,-24.6"/>
</a>
</g>
</g>
<!-- Node9 -->
<g id="Node000009" class="node">
<title>Node9</title>
<g id="a_Node000009"><a xlink:title=" ">
<polygon fill="#e0e0e0" stroke="#999999" points="672.25,-19.25 618.75,-19.25 618.75,0 672.25,0 672.25,-19.25"/>
<text text-anchor="middle" x="645.5" y="-5.75" font-family="Helvetica,sans-Serif" font-size="10.00">iostream</text>
</a>
</g>
</g>
<!-- Node8&#45;&gt;Node9 -->
<g id="edge8_Node000008_Node000009" class="edge">
<title>Node8&#45;&gt;Node9</title>
<g id="a_edge8_Node000008_Node000009"><a xlink:title=" ">
<path fill="none" stroke="#63b8ff" d="M583.22,-54.84C594.21,-47.04 610.34,-35.59 623.43,-26.29"/>
<polygon fill="#63b8ff" stroke="#63b8ff" points="625.35,-29.22 631.48,-20.58 621.3,-23.51 625.35,-29.22"/>
</a>
</g>
</g>
<!-- Node10 -->
<g id="Node000010" class="node">
<title>Node10</title>
<g id="a_Node000010"><a xlink:title=" ">
<polygon fill="#e0e0e0" stroke="#999999" points="740.38,-19.25 690.62,-19.25 690.62,0 740.38,0 740.38,-19.25"/>
<text text-anchor="middle" x="715.5" y="-5.75" font-family="Helvetica,sans-Serif" font-size="10.00">iomanip</text>
</a>
</g>
</g>
<!-- Node8&#45;&gt;Node10 -->
<g id="edge9_Node000008_Node000010" class="edge">
<title>Node8&#45;&gt;Node10</title>
<g id="a_edge9_Node000008_Node000010"><a xlink:title=" ">
<path fill="none" stroke="#63b8ff" d="M595.1,-54.84C618.43,-46.27 653.74,-33.31 680.1,-23.63"/>
<polygon fill="#63b8ff" stroke="#63b8ff" points="681.18,-26.96 689.36,-20.22 678.77,-20.39 681.18,-26.96"/>
</a>
</g>
</g>
<!-- Node11 -->
<g id="Node000011" class="node">
<title>Node11</title>
<g id="a_Node000011"><a xlink:title=" ">
<polygon fill="#e0e0e0" stroke="#999999" points="816.5,-19.25 758.5,-19.25 758.5,0 816.5,0 816.5,-19.25"/>
<text text-anchor="middle" x="787.5" y="-5.75" font-family="Helvetica,sans-Serif" font-size="10.00">stdexcept</text>
</a>
</g>
</g>
<!-- Node8&#45;&gt;Node11 -->
<g id="edge10_Node000008_Node000011" class="edge">
<title>Node8&#45;&gt;Node11</title>
<g id="a_edge10_Node000008_Node000011"><a xlink:title=" ">
<path fill="none" stroke="#63b8ff" d="M598.87,-56.91C636.73,-47.62 704,-31.12 747.14,-20.53"/>
<polygon fill="#63b8ff" stroke="#63b8ff" points="747.74,-23.99 756.61,-18.2 746.07,-17.19 747.74,-23.99"/>
</a>
</g>
</g>
<!-- Node12 -->
<g id="Node000012" class="node">
<title>Node12</title>
<g id="a_Node000012"><a xlink:title=" ">
<polygon fill="#e0e0e0" stroke="#999999" points="107.5,-19.25 67.5,-19.25 67.5,0 107.5,0 107.5,-19.25"/>
<text text-anchor="middle" x="87.5" y="-5.75" font-family="Helvetica,sans-Serif" font-size="10.00">string</text>
</a>
</g>
</g>
<!-- Node8&#45;&gt;Node12 -->
<g id="edge11_Node000008_Node000012" class="edge">
<title>Node8&#45;&gt;Node12</title>
<g id="a_edge11_Node000008_Node000012"><a xlink:title=" ">
<path fill="none" stroke="#63b8ff" d="M541.8,-62.96C471.23,-60.29 283.54,-50.78 118.79,-19.34"/>
<polygon fill="#63b8ff" stroke="#63b8ff" points="119.94,-16 109.46,-17.53 118.61,-22.87 119.94,-16"/>
</a>
</g>
</g>
<!-- Node8&#45;&gt;Node13 -->
<g id="edge12_Node000008_Node000013" class="edge">
<title>Node8&#45;&gt;Node13</title>
<g id="a_edge12_Node000008_Node000013"><a xlink:title=" ">
<path fill="none" stroke="#63b8ff" d="M598.8,-62.12C660.47,-57.97 811.67,-45.98 947.01,-19.46"/>
<polygon fill="#63b8ff" stroke="#63b8ff" points="947.37,-22.95 956.49,-17.56 946,-16.09 947.37,-22.95"/>
</a>
</g>
</g>
<!-- Node14 -->
<g id="Node000014" class="node">
<title>Node14</title>
<g id="a_Node000014"><a xlink:title=" ">
<polygon fill="#e0e0e0" stroke="#999999" points="940.75,-19.25 896.25,-19.25 896.25,0 940.75,0 940.75,-19.25"/>
<text text-anchor="middle" x="918.5" y="-5.75" font-family="Helvetica,sans-Serif" font-size="10.00">cstdlib</text>
</a>
</g>
</g>
<!-- Node8&#45;&gt;Node14 -->
<g id="edge13_Node000008_Node000014" class="edge">
<title>Node8&#45;&gt;Node14</title>
<g id="a_edge13_Node000008_Node000014"><a xlink:title=" ">
<path fill="none" stroke="#63b8ff" d="M599.13,-61.12C653.19,-55.65 774.1,-42.12 884.87,-19.57"/>
<polygon fill="#63b8ff" stroke="#63b8ff" points="885.33,-23.04 894.42,-17.59 883.91,-16.19 885.33,-23.04"/>
</a>
</g>
</g>
<!-- Node15 -->
<g id="Node000015" class="node">
<title>Node15</title>
<g id="a_Node000015"><a xlink:title=" ">
<polygon fill="#e0e0e0" stroke="#999999" points="185.25,-19.25 125.75,-19.25 125.75,0 185.25,0 185.25,-19.25"/>
<text text-anchor="middle" x="155.5" y="-5.75" font-family="Helvetica,sans-Serif" font-size="10.00">execinfo.h</text>
</a>
</g>
</g>
<!-- Node8&#45;&gt;Node15 -->
<g id="edge14_Node000008_Node000015" class="edge">
<title>Node8&#45;&gt;Node15</title>
<g id="a_edge14_Node000008_Node000015"><a xlink:title=" ">
<path fill="none" stroke="#63b8ff" d="M541.98,-61.53C480.59,-56.27 331.22,-42.3 197.01,-19.71"/>
<polygon fill="#63b8ff" stroke="#63b8ff" points="197.66,-16.27 187.22,-18.04 196.49,-23.17 197.66,-16.27"/>
</a>
</g>
</g>
<!-- Node16 -->
<g id="Node000016" class="node">
<title>Node16</title>
<g id="a_Node000016"><a xlink:title=" ">
<polygon fill="#e0e0e0" stroke="#999999" points="308.75,-19.25 258.25,-19.25 258.25,0 308.75,0 308.75,-19.25"/>
<text text-anchor="middle" x="283.5" y="-5.75" font-family="Helvetica,sans-Serif" font-size="10.00">cxxabi.h</text>
</a>
</g>
</g>
<!-- Node8&#45;&gt;Node16 -->
<g id="edge15_Node000008_Node000016" class="edge">
<title>Node8&#45;&gt;Node16</title>
<g id="a_edge15_Node000008_Node000016"><a xlink:title=" ">
<path fill="none" stroke="#63b8ff" d="M541.91,-59.54C496.82,-52.55 406.23,-37.89 320.1,-19.68"/>
<polygon fill="#63b8ff" stroke="#63b8ff" points="321.06,-16.31 310.55,-17.64 319.6,-23.16 321.06,-16.31"/>
</a>
</g>
</g>
<!-- Node8&#45;&gt;Node17 -->
<g id="edge16_Node000008_Node000017" class="edge">
<title>Node8&#45;&gt;Node17</title>
<g id="a_edge16_Node000008_Node000017"><a xlink:title=" ">
<path fill="none" stroke="#63b8ff" d="M599.19,-62.36C667.97,-58.42 847.76,-46.37 1007.61,-19.33"/>
<polygon fill="#63b8ff" stroke="#63b8ff" points="1007.84,-22.84 1017.1,-17.7 1006.65,-15.94 1007.84,-22.84"/>
</a>
</g>
</g>
<!-- Node18 -->
<g id="Node000018" class="node">
<title>Node18</title>
<g id="a_Node000018"><a xlink:title=" ">
<polygon fill="#e0e0e0" stroke="#999999" points="240,-19.25 203,-19.25 203,0 240,0 240,-19.25"/>
<text text-anchor="middle" x="221.5" y="-5.75" font-family="Helvetica,sans-Serif" font-size="10.00">array</text>
</a>
</g>
</g>
<!-- Node8&#45;&gt;Node18 -->
<g id="edge17_Node000008_Node000018" class="edge">
<title>Node8&#45;&gt;Node18</title>
<g id="a_edge17_Node000008_Node000018"><a xlink:title=" ">
<path fill="none" stroke="#63b8ff" d="M541.89,-61.45C487.28,-56.5 364.32,-43.76 251.59,-19.36"/>
<polygon fill="#63b8ff" stroke="#63b8ff" points="252.36,-15.95 241.85,-17.21 250.86,-22.79 252.36,-15.95"/>
</a>
</g>
</g>
<!-- Node19 -->
<g id="Node000019" class="node">
<title>Node19</title>
<g id="a_Node000019"><a xlink:title=" ">
<polygon fill="#e0e0e0" stroke="#999999" points="444.75,-19.25 394.25,-19.25 394.25,0 444.75,0 444.75,-19.25"/>
<text text-anchor="middle" x="419.5" y="-5.75" font-family="Helvetica,sans-Serif" font-size="10.00">memory</text>
</a>
</g>
</g>
<!-- Node8&#45;&gt;Node19 -->
<g id="edge18_Node000008_Node000019" class="edge">
<title>Node8&#45;&gt;Node19</title>
<g id="a_edge18_Node000008_Node000019"><a xlink:title=" ">
<path fill="none" stroke="#63b8ff" d="M544.88,-54.84C520.48,-46.24 483.49,-33.19 456,-23.5"/>
<polygon fill="#63b8ff" stroke="#63b8ff" points="457.26,-20.23 446.67,-20.21 454.93,-26.83 457.26,-20.23"/>
</a>
</g>
</g>
<!-- Node20 -->
<g id="Node000020" class="node">
<title>Node20</title>
<g id="a_Node000020"><a xlink:title=" ">
<polygon fill="#e0e0e0" stroke="#999999" points="376.38,-19.25 326.62,-19.25 326.62,0 376.38,0 376.38,-19.25"/>
<text text-anchor="middle" x="351.5" y="-5.75" font-family="Helvetica,sans-Serif" font-size="10.00">unistd.h</text>
</a>
</g>
</g>
<!-- Node8&#45;&gt;Node20 -->
<g id="edge19_Node000008_Node000020" class="edge">
<title>Node8&#45;&gt;Node20</title>
<g id="a_edge19_Node000008_Node000020"><a xlink:title=" ">
<path fill="none" stroke="#63b8ff" d="M541.95,-57.1C507.65,-48.93 448.07,-34.67 387.63,-19.76"/>
<polygon fill="#63b8ff" stroke="#63b8ff" points="388.76,-16.43 378.21,-17.43 387.08,-23.23 388.76,-16.43"/>
</a>
</g>
</g>
<!-- Node21 -->
<g id="Node000021" class="node">
<title>Node21</title>
<g id="a_Node000021"><a xlink:title=" ">
<polygon fill="#e0e0e0" stroke="#999999" points="522.25,-19.25 462.75,-19.25 462.75,0 522.25,0 522.25,-19.25"/>
<text text-anchor="middle" x="492.5" y="-5.75" font-family="Helvetica,sans-Serif" font-size="10.00">sys/wait.h</text>
</a>
</g>
</g>
<!-- Node8&#45;&gt;Node21 -->
<g id="edge20_Node000008_Node000021" class="edge">
<title>Node8&#45;&gt;Node21</title>
<g id="a_edge20_Node000008_Node000021"><a xlink:title=" ">
<path fill="none" stroke="#63b8ff" d="M557.27,-54.84C545.73,-46.96 528.73,-35.36 515.05,-26.02"/>
<polygon fill="#63b8ff" stroke="#63b8ff" points="517.28,-23.3 507.05,-20.56 513.33,-29.08 517.28,-23.3"/>
</a>
</g>
</g>
<!-- Node22 -->
<g id="Node000022" class="node">
<title>Node22</title>
<g id="a_Node000022"><a xlink:title=" ">
<polygon fill="#e0e0e0" stroke="#999999" points="600.62,-19.25 540.38,-19.25 540.38,0 600.62,0 600.62,-19.25"/>
<text text-anchor="middle" x="570.5" y="-5.75" font-family="Helvetica,sans-Serif" font-size="10.00">sys/prctl.h</text>
</a>
</g>
</g>
<!-- Node8&#45;&gt;Node22 -->
<g id="edge21_Node000008_Node000022" class="edge">
<title>Node8&#45;&gt;Node22</title>
<g id="a_edge21_Node000008_Node000022"><a xlink:title=" ">
<path fill="none" stroke="#63b8ff" d="M570.5,-55.08C570.5,-48.57 570.5,-39.42 570.5,-31.12"/>
<polygon fill="#63b8ff" stroke="#63b8ff" points="574,-31.12 570.5,-21.12 567,-31.12 574,-31.12"/>
</a>
</g>
</g>
<!-- Node23&#45;&gt;Node3 -->
<g id="edge25_Node000023_Node000003" class="edge">
<title>Node23&#45;&gt;Node3</title>
<g id="a_edge25_Node000023_Node000003"><a xlink:title=" ">
<path fill="none" stroke="#63b8ff" d="M327.99,-63.07C418.52,-60.8 633.88,-52.29 823.31,-19.27"/>
<polygon fill="#63b8ff" stroke="#63b8ff" points="823.88,-22.73 833.11,-17.53 822.65,-15.83 823.88,-22.73"/>
</a>
</g>
</g>
<!-- Node23&#45;&gt;Node12 -->
<g id="edge24_Node000023_Node000012" class="edge">
<title>Node23&#45;&gt;Node12</title>
<g id="a_edge24_Node000023_Node000012"><a xlink:title=" ">
<path fill="none" stroke="#63b8ff" d="M249.02,-54.77C217.22,-46.55 169.04,-33.91 118.56,-19.77"/>
<polygon fill="#63b8ff" stroke="#63b8ff" points="119.79,-16.48 109.22,-17.14 117.9,-23.22 119.79,-16.48"/>
</a>
</g>
</g>
<!-- Node24 -->
<g id="Node000024" class="node">
<title>Node24</title>
<g id="a_Node000024"><a xlink:title=" ">
<polygon fill="#e0e0e0" stroke="#999999" points="49,-19.25 0,-19.25 0,0 49,0 49,-19.25"/>
<text text-anchor="middle" x="24.5" y="-5.75" font-family="Helvetica,sans-Serif" font-size="10.00">fstream</text>
</a>
</g>
</g>
<!-- Node23&#45;&gt;Node24 -->
<g id="edge23_Node000023_Node000024" class="edge">
<title>Node23&#45;&gt;Node24</title>
<g id="a_edge23_Node000023_Node000024"><a xlink:title=" ">
<path fill="none" stroke="#63b8ff" d="M241.03,-56.01C197.73,-48.01 129.12,-34.91 60.38,-19.57"/>
<polygon fill="#63b8ff" stroke="#63b8ff" points="61.35,-16.2 50.82,-17.42 59.81,-23.03 61.35,-16.2"/>
</a>
</g>
</g>
</g>
</svg>

<g id="navigator" transform="translate(0 0)" fill="#404254">
  <rect fill="#f2f5e9" fill-opacity="0.5" stroke="#606060" stroke-width=".5" x="0" y="0" width="60" height="60"/>
  <use id="zoomplus" xlink:href="#zoomPlus" x="17" y="9" onmousedown="handleZoom(evt,'in')"/>
  <use id="zoomminus" xlink:href="#zoomMin" x="42" y="9" onmousedown="handleZoom(evt,'out')"/>
  <use id="reset" xlink:href="#resetDef" x="30" y="36" onmousedown="handleReset()"/>
   <use id="arrowup" xlink:href="#arrowUp" x="0" y="0" onmousedown="handlePan(0,-1)"/>
  <use id="arrowright" xlink:href="#arrowRight" x="0" y="0" onmousedown="handlePan(1,0)"/>
  <use id="arrowdown" xlink:href="#arrowDown" x="0" y="0" onmousedown="handlePan(0,1)"/>
  <use id="arrowleft" xlink:href="#arrowLeft" x="0" y="0" onmousedown="handlePan(-1,0)"/>
</g>
<svg viewBox="0 0 15 15" width="100%" height="30px" preserveAspectRatio="xMaxYMin meet">
 <g id="arrow_out" transform="scale(0.3 0.3)">
  <a xlink:href="_t_s_r_i_m_8cxx__incl_org.svg" target="_base">
   <rect id="button" ry="5" rx="5" y="6" x="6" height="38" width="38"
        fill="#f2f5e9" fill-opacity="0.5" stroke="#606060" stroke-width="1.0"/>
   <path id="arrow"
     d="M 11.500037,31.436501 C 11.940474,20.09759 22.043105,11.32322 32.158766,21.979434 L 37.068811,17.246167 C 37.068811,17.246167 37.088388,32 37.088388,32 L 22.160133,31.978069 C 22.160133,31.978069 26.997745,27.140456 26.997745,27.140456 C 18.528582,18.264221 13.291696,25.230495 11.500037,31.436501 z"
     style="fill:#404040;"/>
  </a>
 </g>
</svg>

<style type='text/css'>
<![CDATA[
[data-mouse-over-selected='false'] { opacity: 0.7; }
[data-mouse-over-selected='true']  { opacity: 1.0; }
]]>
</style>
<script type="application/ecmascript"><![CDATA[
document.addEventListener('DOMContentLoaded', (event) => {
  highlightEdges();
  highlightAdjacentNodes();
});
]]></script>
</svg>
