<?xml version="1.0" encoding="UTF-8" standalone="no"?>
<!DOCTYPE svg PUBLIC "-//W3C//DTD SVG 1.1//EN"
 "http://www.w3.org/Graphics/SVG/1.1/DTD/svg11.dtd">
<!-- Generated by graphviz version 12.2.0 (20241103.1931)
 -->
<!-- Title: TS3Hit.h Pages: 1 -->
<!--zoomable 359 -->

<svg id="main" version="1.1" xmlns="http://www.w3.org/2000/svg" xmlns:xlink="http://www.w3.org/1999/xlink" xml:space="preserve" onload="init(evt)">

<style type="text/css"><![CDATA[
.node, .edge {opacity: 0.7;}
.node.selected, .edge.selected {opacity: 1;}
.edge:hover path { stroke: red; }
.edge:hover polygon { stroke: red; fill: red; }
]]></style>

<defs>
  <circle id="rim" cx="0" cy="0" r="7"/>
  <circle id="rim2" cx="0" cy="0" r="3.5"/>
  <g id="zoomPlus">
    <use xlink:href="#rim" fill="#404040"><set attributeName="fill" to="#808080" begin="zoomplus.mouseover" end="zoomplus.mouseout"/></use>
    <path d="M-4,0h8M0,-4v8" fill="none" stroke="white" stroke-width="1.5" pointer-events="none"/>
  </g>
  <g id="zoomMin">
    <use xlink:href="#rim" fill="#404040"><set attributeName="fill" to="#808080" begin="zoomminus.mouseover" end="zoomminus.mouseout"/></use>
    <path d="M-4,0h8" fill="none" stroke="white" stroke-width="1.5" pointer-events="none"/>
  </g>
  <g id="arrowUp" transform="translate(30 24)">
    <use xlink:href="#rim"/>
    <path pointer-events="none" fill="none" stroke="white" stroke-width="1.5" d="M0,-3.0v7 M-2.5,-0.5L0,-3.0L2.5,-0.5"/>
  </g>
  <g id="arrowRight" transform="rotate(90) translate(36 -43)">
    <use xlink:href="#rim"/>
    <path pointer-events="none" fill="none" stroke="white" stroke-width="1.5" d="M0,-3.0v7 M-2.5,-0.5L0,-3.0L2.5,-0.5"/>
  </g>
  <g id="arrowDown" transform="rotate(180) translate(-30 -48)">
    <use xlink:href="#rim"/>
    <path pointer-events="none" fill="none" stroke="white" stroke-width="1.5" d="M0,-3.0v7 M-2.5,-0.5L0,-3.0L2.5,-0.5"/>
  </g>
  <g id="arrowLeft" transform="rotate(270) translate(-36 17)">
    <use xlink:href="#rim"/>
    <path pointer-events="none" fill="none" stroke="white" stroke-width="1.5" d="M0,-3.0v7 M-2.5,-0.5L0,-3.0L2.5,-0.5"/>
  </g>
  <g id="resetDef">
    <use xlink:href="#rim2" fill="#404040"><set attributeName="fill" to="#808080" begin="reset.mouseover" end="reset.mouseout"/></use>
  </g>
</defs>
<script type="application/ecmascript">
var viewWidth = 1315;
var viewHeight = 359;
var sectionId = 'dynsection-0';
</script>
<script type="application/ecmascript" xlink:href="svg.min.js"/>
<svg id="graph" class="graph">
<g id="viewport">
<title>TS3Hit.h</title>
<!-- Node1 -->
<g id="Node000001" class="node">
<title>Node1</title>
<g id="a_Node000001"><a xlink:title=" ">
<polygon fill="#999999" stroke="#666666" points="842.12,-350.75 787.88,-350.75 787.88,-331.5 842.12,-331.5 842.12,-350.75"/>
<text text-anchor="middle" x="815" y="-337.25" font-family="Helvetica,sans-Serif" font-size="10.00">TS3Hit.h</text>
</a>
</g>
</g>
<!-- Node2 -->
<g id="Node000002" class="node">
<title>Node2</title>
<g id="a_Node000002"><a xlink:title=" ">
<polygon fill="#e0e0e0" stroke="#999999" points="169.12,-19.25 126.88,-19.25 126.88,0 169.12,0 169.12,-19.25"/>
<text text-anchor="middle" x="148" y="-5.75" font-family="Helvetica,sans-Serif" font-size="10.00">cstdio</text>
</a>
</g>
</g>
<!-- Node1&#45;&gt;Node2 -->
<g id="edge1_Node000001_Node000002" class="edge">
<title>Node1&#45;&gt;Node2</title>
<g id="a_edge1_Node000001_Node000002"><a xlink:title=" ">
<path fill="none" stroke="#63b8ff" d="M787.42,-339.42C645.05,-335.44 0,-312.9 0,-231.62 0,-231.62 0,-231.62 0,-119.12 0,-62.24 71.99,-31.93 115.55,-18.79"/>
<polygon fill="#63b8ff" stroke="#63b8ff" points="116.37,-22.2 125.02,-16.09 114.45,-15.47 116.37,-22.2"/>
</a>
</g>
</g>
<!-- Node3 -->
<g id="Node000003" class="node">
<title>Node3</title>
<g id="a_Node000003"><a xlink:href="_t_fragment_8h.html" target="_top" xlink:title=" ">
<polygon fill="white" stroke="#666666" points="950.38,-295.5 879.62,-295.5 879.62,-276.25 950.38,-276.25 950.38,-295.5"/>
<text text-anchor="middle" x="915" y="-282" font-family="Helvetica,sans-Serif" font-size="10.00">TFragment.h</text>
</a>
</g>
</g>
<!-- Node1&#45;&gt;Node3 -->
<g id="edge2_Node000001_Node000003" class="edge">
<title>Node1&#45;&gt;Node3</title>
<g id="a_edge2_Node000001_Node000003"><a xlink:title=" ">
<path fill="none" stroke="#63b8ff" d="M831.96,-331.09C847.26,-322.94 870.03,-310.82 887.86,-301.33"/>
<polygon fill="#63b8ff" stroke="#63b8ff" points="889.44,-304.45 896.62,-296.66 886.15,-298.27 889.44,-304.45"/>
</a>
</g>
</g>
<!-- Node4 -->
<g id="Node000004" class="node">
<title>Node4</title>
<g id="a_Node000004"><a xlink:href="_t_detector_hit_8h.html" target="_top" xlink:title=" ">
<polygon fill="white" stroke="#666666" points="854.5,-240.25 775.5,-240.25 775.5,-221 854.5,-221 854.5,-240.25"/>
<text text-anchor="middle" x="815" y="-226.75" font-family="Helvetica,sans-Serif" font-size="10.00">TDetectorHit.h</text>
</a>
</g>
</g>
<!-- Node1&#45;&gt;Node4 -->
<g id="edge59_Node000001_Node000004" class="edge">
<title>Node1&#45;&gt;Node4</title>
<g id="a_edge59_Node000001_Node000004"><a xlink:title=" ">
<path fill="none" stroke="#63b8ff" d="M815,-331.25C815,-314 815,-275.58 815,-251.81"/>
<polygon fill="#63b8ff" stroke="#63b8ff" points="818.5,-252.14 815,-242.14 811.5,-252.14 818.5,-252.14"/>
</a>
</g>
</g>
<!-- Node3&#45;&gt;Node4 -->
<g id="edge3_Node000003_Node000004" class="edge">
<title>Node3&#45;&gt;Node4</title>
<g id="a_edge3_Node000003_Node000004"><a xlink:title=" ">
<path fill="none" stroke="#63b8ff" d="M898.04,-275.84C882.74,-267.69 859.97,-255.57 842.14,-246.08"/>
<polygon fill="#63b8ff" stroke="#63b8ff" points="843.85,-243.02 833.38,-241.41 840.56,-249.2 843.85,-243.02"/>
</a>
</g>
</g>
<!-- Node5 -->
<g id="Node000005" class="node">
<title>Node5</title>
<g id="a_Node000005"><a xlink:title=" ">
<polygon fill="#e0e0e0" stroke="#999999" points="97.5,-74.5 54.5,-74.5 54.5,-55.25 97.5,-55.25 97.5,-74.5"/>
<text text-anchor="middle" x="76" y="-61" font-family="Helvetica,sans-Serif" font-size="10.00">vector</text>
</a>
</g>
</g>
<!-- Node3&#45;&gt;Node5 -->
<g id="edge56_Node000003_Node000005" class="edge">
<title>Node3&#45;&gt;Node5</title>
<g id="a_edge56_Node000003_Node000005"><a xlink:title=" ">
<path fill="none" stroke="#63b8ff" d="M879.39,-282.96C737.42,-274.61 213.7,-236.91 95,-129.75 82.78,-118.72 78.27,-100.21 76.68,-85.95"/>
<polygon fill="#63b8ff" stroke="#63b8ff" points="80.2,-86.05 76.02,-76.32 73.21,-86.53 80.2,-86.05"/>
</a>
</g>
</g>
<!-- Node19 -->
<g id="Node000019" class="node">
<title>Node19</title>
<g id="a_Node000019"><a xlink:title=" ">
<polygon fill="#e0e0e0" stroke="#999999" points="1278.75,-185 1225.25,-185 1225.25,-165.75 1278.75,-165.75 1278.75,-185"/>
<text text-anchor="middle" x="1252" y="-171.5" font-family="Helvetica,sans-Serif" font-size="10.00">Rtypes.h</text>
</a>
</g>
</g>
<!-- Node3&#45;&gt;Node19 -->
<g id="edge58_Node000003_Node000019" class="edge">
<title>Node3&#45;&gt;Node19</title>
<g id="a_edge58_Node000003_Node000019"><a xlink:title=" ">
<path fill="none" stroke="#63b8ff" d="M943.15,-275.81C1003.69,-256.32 1146.28,-210.41 1214.44,-188.47"/>
<polygon fill="#63b8ff" stroke="#63b8ff" points="1215.22,-191.9 1223.66,-185.5 1213.07,-185.23 1215.22,-191.9"/>
</a>
</g>
</g>
<!-- Node21 -->
<g id="Node000021" class="node">
<title>Node21</title>
<g id="a_Node000021"><a xlink:href="_t_p_p_g_8h.html" target="_top" xlink:title=" ">
<polygon fill="white" stroke="#666666" points="972.25,-185 921.75,-185 921.75,-165.75 972.25,-165.75 972.25,-185"/>
<text text-anchor="middle" x="947" y="-171.5" font-family="Helvetica,sans-Serif" font-size="10.00">TPPG.h</text>
</a>
</g>
</g>
<!-- Node3&#45;&gt;Node21 -->
<g id="edge54_Node000003_Node000021" class="edge">
<title>Node3&#45;&gt;Node21</title>
<g id="a_edge54_Node000003_Node000021"><a xlink:title=" ">
<path fill="none" stroke="#63b8ff" d="M917.62,-276C922.73,-258.67 934.14,-219.98 941.14,-196.24"/>
<polygon fill="#63b8ff" stroke="#63b8ff" points="944.45,-197.41 943.92,-186.83 937.73,-195.43 944.45,-197.41"/>
</a>
</g>
</g>
<!-- Node23 -->
<g id="Node000023" class="node">
<title>Node23</title>
<g id="a_Node000023"><a xlink:title=" ">
<polygon fill="#e0e0e0" stroke="#999999" points="1219.75,-19.25 1166.25,-19.25 1166.25,0 1219.75,0 1219.75,-19.25"/>
<text text-anchor="middle" x="1193" y="-5.75" font-family="Helvetica,sans-Serif" font-size="10.00">iostream</text>
</a>
</g>
</g>
<!-- Node3&#45;&gt;Node23 -->
<g id="edge55_Node000003_Node000023" class="edge">
<title>Node3&#45;&gt;Node23</title>
<g id="a_edge55_Node000003_Node000023"><a xlink:title=" ">
<path fill="none" stroke="#63b8ff" d="M950.83,-282.63C1047.6,-275.6 1307,-249.9 1307,-176.38 1307,-176.38 1307,-176.38 1307,-119.12 1307,-89.51 1307.31,-77.7 1288,-55.25 1273.23,-38.08 1250.41,-27.06 1230.83,-20.27"/>
<polygon fill="#63b8ff" stroke="#63b8ff" points="1232.1,-17 1221.51,-17.29 1229.97,-23.67 1232.1,-17"/>
</a>
</g>
</g>
<!-- Node44 -->
<g id="Node000044" class="node">
<title>Node44</title>
<g id="a_Node000044"><a xlink:title=" ">
<polygon fill="#e0e0e0" stroke="#999999" points="983,-240.25 943,-240.25 943,-221 983,-221 983,-240.25"/>
<text text-anchor="middle" x="963" y="-226.75" font-family="Helvetica,sans-Serif" font-size="10.00">ctime</text>
</a>
</g>
</g>
<!-- Node3&#45;&gt;Node44 -->
<g id="edge57_Node000003_Node000044" class="edge">
<title>Node3&#45;&gt;Node44</title>
<g id="a_edge57_Node000003_Node000044"><a xlink:title=" ">
<path fill="none" stroke="#63b8ff" d="M922.93,-276.08C929.56,-268.73 939.22,-258.01 947.39,-248.94"/>
<polygon fill="#63b8ff" stroke="#63b8ff" points="949.79,-251.5 953.89,-241.73 944.59,-246.82 949.79,-251.5"/>
</a>
</g>
</g>
<!-- Node4&#45;&gt;Node5 -->
<g id="edge4_Node000004_Node000005" class="edge">
<title>Node4&#45;&gt;Node5</title>
<g id="a_edge4_Node000004_Node000005"><a xlink:title=" ">
<path fill="none" stroke="#63b8ff" d="M775.2,-229.72C639.34,-229.23 196.63,-220.57 95,-129.75 82.72,-118.78 78.22,-100.27 76.65,-85.99"/>
<polygon fill="#63b8ff" stroke="#63b8ff" points="80.16,-86.08 76,-76.33 73.18,-86.55 80.16,-86.08"/>
</a>
</g>
</g>
<!-- Node6 -->
<g id="Node000006" class="node">
<title>Node6</title>
<g id="a_Node000006"><a xlink:href="_t_channel_8h.html" target="_top" xlink:title=" ">
<polygon fill="white" stroke="#666666" points="559.38,-185 494.62,-185 494.62,-165.75 559.38,-165.75 559.38,-185"/>
<text text-anchor="middle" x="527" y="-171.5" font-family="Helvetica,sans-Serif" font-size="10.00">TChannel.h</text>
</a>
</g>
</g>
<!-- Node4&#45;&gt;Node6 -->
<g id="edge5_Node000004_Node000006" class="edge">
<title>Node4&#45;&gt;Node6</title>
<g id="a_edge5_Node000004_Node000006"><a xlink:title=" ">
<path fill="none" stroke="#63b8ff" d="M775.26,-222.28C721.67,-212.37 626.55,-194.78 570.9,-184.49"/>
<polygon fill="#63b8ff" stroke="#63b8ff" points="571.62,-181.07 561.15,-182.69 570.34,-187.95 571.62,-181.07"/>
</a>
</g>
</g>
<!-- Node17 -->
<g id="Node000017" class="node">
<title>Node17</title>
<g id="a_Node000017"><a xlink:title=" ">
<polygon fill="#e0e0e0" stroke="#999999" points="476.62,-185 413.38,-185 413.38,-165.75 476.62,-165.75 476.62,-185"/>
<text text-anchor="middle" x="445" y="-171.5" font-family="Helvetica,sans-Serif" font-size="10.00">TVector3.h</text>
</a>
</g>
</g>
<!-- Node4&#45;&gt;Node17 -->
<g id="edge18_Node000004_Node000017" class="edge">
<title>Node4&#45;&gt;Node17</title>
<g id="a_edge18_Node000004_Node000017"><a xlink:title=" ">
<path fill="none" stroke="#63b8ff" d="M775.1,-225.16C715.12,-218.24 597.92,-203.93 488.03,-185.23"/>
<polygon fill="#63b8ff" stroke="#63b8ff" points="488.68,-181.79 478.23,-183.55 487.49,-188.69 488.68,-181.79"/>
</a>
</g>
</g>
<!-- Node18 -->
<g id="Node000018" class="node">
<title>Node18</title>
<g id="a_Node000018"><a xlink:title=" ">
<polygon fill="#e0e0e0" stroke="#999999" points="1279,-74.5 1221,-74.5 1221,-55.25 1279,-55.25 1279,-74.5"/>
<text text-anchor="middle" x="1250" y="-61" font-family="Helvetica,sans-Serif" font-size="10.00">TObject.h</text>
</a>
</g>
</g>
<!-- Node4&#45;&gt;Node18 -->
<g id="edge19_Node000004_Node000018" class="edge">
<title>Node4&#45;&gt;Node18</title>
<g id="a_edge19_Node000004_Node000018"><a xlink:title=" ">
<path fill="none" stroke="#63b8ff" d="M854.99,-225.44C949.23,-214.78 1181.35,-183.55 1235,-129.75 1246.33,-118.39 1249.73,-100.19 1250.5,-86.12"/>
<polygon fill="#63b8ff" stroke="#63b8ff" points="1254,-86.22 1250.6,-76.18 1247,-86.15 1254,-86.22"/>
</a>
</g>
</g>
<!-- Node4&#45;&gt;Node19 -->
<g id="edge20_Node000004_Node000019" class="edge">
<title>Node4&#45;&gt;Node19</title>
<g id="a_edge20_Node000004_Node000019"><a xlink:title=" ">
<path fill="none" stroke="#63b8ff" d="M854.8,-226.4C926.36,-220.33 1081.39,-205.89 1211,-185 1212.01,-184.84 1213.02,-184.67 1214.05,-184.49"/>
<polygon fill="#63b8ff" stroke="#63b8ff" points="1214.49,-187.97 1223.67,-182.68 1213.2,-181.09 1214.49,-187.97"/>
</a>
</g>
</g>
<!-- Node20 -->
<g id="Node000020" class="node">
<title>Node20</title>
<g id="a_Node000020"><a xlink:title=" ">
<polygon fill="#e0e0e0" stroke="#999999" points="753.75,-185 688.25,-185 688.25,-165.75 753.75,-165.75 753.75,-185"/>
<text text-anchor="middle" x="721" y="-171.5" font-family="Helvetica,sans-Serif" font-size="10.00">TRandom.h</text>
</a>
</g>
</g>
<!-- Node4&#45;&gt;Node20 -->
<g id="edge21_Node000004_Node000020" class="edge">
<title>Node4&#45;&gt;Node20</title>
<g id="a_edge21_Node000004_Node000020"><a xlink:title=" ">
<path fill="none" stroke="#63b8ff" d="M799.05,-220.59C784.74,-212.48 763.47,-200.43 746.75,-190.96"/>
<polygon fill="#63b8ff" stroke="#63b8ff" points="748.77,-188.08 738.34,-186.2 745.32,-194.17 748.77,-188.08"/>
</a>
</g>
</g>
<!-- Node4&#45;&gt;Node21 -->
<g id="edge22_Node000004_Node000021" class="edge">
<title>Node4&#45;&gt;Node21</title>
<g id="a_edge22_Node000004_Node000021"><a xlink:title=" ">
<path fill="none" stroke="#63b8ff" d="M837.39,-220.59C858.44,-212.1 890.2,-199.29 914.12,-189.64"/>
<polygon fill="#63b8ff" stroke="#63b8ff" points="915.13,-193.01 923.09,-186.02 912.51,-186.51 915.13,-193.01"/>
</a>
</g>
</g>
<!-- Node42 -->
<g id="Node000042" class="node">
<title>Node42</title>
<g id="a_Node000042"><a xlink:href="_t_transient_bits_8h.html" target="_top" xlink:title=" ">
<polygon fill="white" stroke="#666666" points="858.62,-185 771.38,-185 771.38,-165.75 858.62,-165.75 858.62,-185"/>
<text text-anchor="middle" x="815" y="-171.5" font-family="Helvetica,sans-Serif" font-size="10.00">TTransientBits.h</text>
</a>
</g>
</g>
<!-- Node4&#45;&gt;Node42 -->
<g id="edge51_Node000004_Node000042" class="edge">
<title>Node4&#45;&gt;Node42</title>
<g id="a_edge51_Node000004_Node000042"><a xlink:title=" ">
<path fill="none" stroke="#63b8ff" d="M815,-220.83C815,-214.32 815,-205.17 815,-196.87"/>
<polygon fill="#63b8ff" stroke="#63b8ff" points="818.5,-196.87 815,-186.87 811.5,-196.87 818.5,-196.87"/>
</a>
</g>
</g>
<!-- Node7 -->
<g id="Node000007" class="node">
<title>Node7</title>
<g id="a_Node000007"><a xlink:title=" ">
<polygon fill="#e0e0e0" stroke="#999999" points="379,-19.25 339,-19.25 339,0 379,0 379,-19.25"/>
<text text-anchor="middle" x="359" y="-5.75" font-family="Helvetica,sans-Serif" font-size="10.00">string</text>
</a>
</g>
</g>
<!-- Node6&#45;&gt;Node7 -->
<g id="edge6_Node000006_Node000007" class="edge">
<title>Node6&#45;&gt;Node7</title>
<g id="a_edge6_Node000006_Node000007"><a xlink:title=" ">
<path fill="none" stroke="#63b8ff" d="M559.87,-172.72C606.22,-168.79 683.33,-155.48 666,-110.5 654.09,-79.6 645.13,-71.01 616,-55.25 528.94,-8.15 490.77,-39.53 390.41,-19.41"/>
<polygon fill="#63b8ff" stroke="#63b8ff" points="391.18,-16 380.67,-17.32 389.71,-22.84 391.18,-16"/>
</a>
</g>
</g>
<!-- Node8 -->
<g id="Node000008" class="node">
<title>Node8</title>
<g id="a_Node000008"><a xlink:title=" ">
<polygon fill="#e0e0e0" stroke="#999999" points="234.5,-129.75 191.5,-129.75 191.5,-110.5 234.5,-110.5 234.5,-129.75"/>
<text text-anchor="middle" x="213" y="-116.25" font-family="Helvetica,sans-Serif" font-size="10.00">cmath</text>
</a>
</g>
</g>
<!-- Node6&#45;&gt;Node8 -->
<g id="edge7_Node000006_Node000008" class="edge">
<title>Node6&#45;&gt;Node8</title>
<g id="a_edge7_Node000006_Node000008"><a xlink:title=" ">
<path fill="none" stroke="#63b8ff" d="M494.36,-167.33C491.54,-166.77 488.72,-166.24 486,-165.75 382.52,-147.19 352.35,-152.01 246.15,-129.96"/>
<polygon fill="#63b8ff" stroke="#63b8ff" points="246.92,-126.54 236.41,-127.9 245.47,-133.39 246.92,-126.54"/>
</a>
</g>
</g>
<!-- Node9 -->
<g id="Node000009" class="node">
<title>Node9</title>
<g id="a_Node000009"><a xlink:title=" ">
<polygon fill="#e0e0e0" stroke="#999999" points="881.25,-129.75 842.75,-129.75 842.75,-110.5 881.25,-110.5 881.25,-129.75"/>
<text text-anchor="middle" x="862" y="-116.25" font-family="Helvetica,sans-Serif" font-size="10.00">utility</text>
</a>
</g>
</g>
<!-- Node6&#45;&gt;Node9 -->
<g id="edge8_Node000006_Node000009" class="edge">
<title>Node6&#45;&gt;Node9</title>
<g id="a_edge8_Node000006_Node000009"><a xlink:title=" ">
<path fill="none" stroke="#63b8ff" d="M559.73,-169.17C624.54,-158.87 768.36,-136.01 831.39,-125.99"/>
<polygon fill="#63b8ff" stroke="#63b8ff" points="831.71,-129.48 841.04,-124.46 830.61,-122.57 831.71,-129.48"/>
</a>
</g>
</g>
<!-- Node10 -->
<g id="Node000010" class="node">
<title>Node10</title>
<g id="a_Node000010"><a xlink:title=" ">
<polygon fill="#e0e0e0" stroke="#999999" points="335.38,-129.75 252.62,-129.75 252.62,-110.5 335.38,-110.5 335.38,-129.75"/>
<text text-anchor="middle" x="294" y="-116.25" font-family="Helvetica,sans-Serif" font-size="10.00">unordered_map</text>
</a>
</g>
</g>
<!-- Node6&#45;&gt;Node10 -->
<g id="edge9_Node000006_Node000010" class="edge">
<title>Node6&#45;&gt;Node10</title>
<g id="a_edge9_Node000006_Node000010"><a xlink:title=" ">
<path fill="none" stroke="#63b8ff" d="M494.6,-166.97C455.87,-158.12 390.58,-143.2 345.05,-132.79"/>
<polygon fill="#63b8ff" stroke="#63b8ff" points="345.93,-129.4 335.4,-130.59 344.37,-136.23 345.93,-129.4"/>
</a>
</g>
</g>
<!-- Node11 -->
<g id="Node000011" class="node">
<title>Node11</title>
<g id="a_Node000011"><a xlink:title=" ">
<polygon fill="#e0e0e0" stroke="#999999" points="414.5,-129.75 353.5,-129.75 353.5,-110.5 414.5,-110.5 414.5,-129.75"/>
<text text-anchor="middle" x="384" y="-116.25" font-family="Helvetica,sans-Serif" font-size="10.00">TNamed.h</text>
</a>
</g>
</g>
<!-- Node6&#45;&gt;Node11 -->
<g id="edge10_Node000006_Node000011" class="edge">
<title>Node6&#45;&gt;Node11</title>
<g id="a_edge10_Node000006_Node000011"><a xlink:title=" ">
<path fill="none" stroke="#63b8ff" d="M502.74,-165.34C479.73,-156.77 444.91,-143.81 418.92,-134.13"/>
<polygon fill="#63b8ff" stroke="#63b8ff" points="420.39,-130.94 409.8,-130.73 417.95,-137.5 420.39,-130.94"/>
</a>
</g>
</g>
<!-- Node12 -->
<g id="Node000012" class="node">
<title>Node12</title>
<g id="a_Node000012"><a xlink:title=" ">
<polygon fill="#e0e0e0" stroke="#999999" points="481.5,-129.75 432.5,-129.75 432.5,-110.5 481.5,-110.5 481.5,-129.75"/>
<text text-anchor="middle" x="457" y="-116.25" font-family="Helvetica,sans-Serif" font-size="10.00">TTree.h</text>
</a>
</g>
</g>
<!-- Node6&#45;&gt;Node12 -->
<g id="edge11_Node000006_Node000012" class="edge">
<title>Node6&#45;&gt;Node12</title>
<g id="a_edge11_Node000006_Node000012"><a xlink:title=" ">
<path fill="none" stroke="#63b8ff" d="M515.13,-165.34C504.91,-157.57 489.93,-146.17 477.74,-136.9"/>
<polygon fill="#63b8ff" stroke="#63b8ff" points="479.98,-134.21 469.9,-130.94 475.74,-139.78 479.98,-134.21"/>
</a>
</g>
</g>
<!-- Node13 -->
<g id="Node000013" class="node">
<title>Node13</title>
<g id="a_Node000013"><a xlink:title=" ">
<polygon fill="#e0e0e0" stroke="#999999" points="554.88,-129.75 499.12,-129.75 499.12,-110.5 554.88,-110.5 554.88,-129.75"/>
<text text-anchor="middle" x="527" y="-116.25" font-family="Helvetica,sans-Serif" font-size="10.00">TGraph.h</text>
</a>
</g>
</g>
<!-- Node6&#45;&gt;Node13 -->
<g id="edge12_Node000006_Node000013" class="edge">
<title>Node6&#45;&gt;Node13</title>
<g id="a_edge12_Node000006_Node000013"><a xlink:title=" ">
<path fill="none" stroke="#63b8ff" d="M527,-165.58C527,-159.07 527,-149.92 527,-141.62"/>
<polygon fill="#63b8ff" stroke="#63b8ff" points="530.5,-141.62 527,-131.62 523.5,-141.62 530.5,-141.62"/>
</a>
</g>
</g>
<!-- Node14 -->
<g id="Node000014" class="node">
<title>Node14</title>
<g id="a_Node000014"><a xlink:title=" ">
<polygon fill="#e0e0e0" stroke="#999999" points="173.62,-129.75 104.38,-129.75 104.38,-110.5 173.62,-110.5 173.62,-129.75"/>
<text text-anchor="middle" x="139" y="-116.25" font-family="Helvetica,sans-Serif" font-size="10.00">TClassRef.h</text>
</a>
</g>
</g>
<!-- Node6&#45;&gt;Node14 -->
<g id="edge13_Node000006_Node000014" class="edge">
<title>Node6&#45;&gt;Node14</title>
<g id="a_edge13_Node000006_Node000014"><a xlink:title=" ">
<path fill="none" stroke="#63b8ff" d="M494.38,-167.24C491.55,-166.7 488.73,-166.2 486,-165.75 355.28,-144.3 318.3,-150.77 184.76,-130.07"/>
<polygon fill="#63b8ff" stroke="#63b8ff" points="185.61,-126.67 175.19,-128.57 184.52,-133.58 185.61,-126.67"/>
</a>
</g>
</g>
<!-- Node15 -->
<g id="Node000015" class="node">
<title>Node15</title>
<g id="a_Node000015"><a xlink:href="_t_priority_value_8h.html" target="_top" xlink:title=" ">
<polygon fill="white" stroke="#666666" points="657.12,-129.75 572.88,-129.75 572.88,-110.5 657.12,-110.5 657.12,-129.75"/>
<text text-anchor="middle" x="615" y="-116.25" font-family="Helvetica,sans-Serif" font-size="10.00">TPriorityValue.h</text>
</a>
</g>
</g>
<!-- Node6&#45;&gt;Node15 -->
<g id="edge14_Node000006_Node000015" class="edge">
<title>Node6&#45;&gt;Node15</title>
<g id="a_edge14_Node000006_Node000015"><a xlink:title=" ">
<path fill="none" stroke="#63b8ff" d="M541.93,-165.34C555.2,-157.31 574.87,-145.41 590.45,-135.98"/>
<polygon fill="#63b8ff" stroke="#63b8ff" points="591.96,-139.16 598.7,-130.99 588.34,-133.17 591.96,-139.16"/>
</a>
</g>
</g>
<!-- Node15&#45;&gt;Node5 -->
<g id="edge17_Node000015_Node000005" class="edge">
<title>Node15&#45;&gt;Node5</title>
<g id="a_edge17_Node000015_Node000005"><a xlink:title=" ">
<path fill="none" stroke="#63b8ff" d="M572.46,-111.68C569.6,-111.26 566.76,-110.86 564,-110.5 393.48,-88.32 188.01,-73.34 109.09,-68.03"/>
<polygon fill="#63b8ff" stroke="#63b8ff" points="109.67,-64.56 99.46,-67.38 109.21,-71.54 109.67,-64.56"/>
</a>
</g>
</g>
<!-- Node15&#45;&gt;Node7 -->
<g id="edge16_Node000015_Node000007" class="edge">
<title>Node15&#45;&gt;Node7</title>
<g id="a_edge16_Node000015_Node000007"><a xlink:title=" ">
<path fill="none" stroke="#63b8ff" d="M615.11,-110.17C614.77,-96.2 611.91,-69.39 596,-55.25 528.54,4.7 482.92,-37.18 390.41,-19.37"/>
<polygon fill="#63b8ff" stroke="#63b8ff" points="391.19,-15.96 380.68,-17.28 389.72,-22.8 391.19,-15.96"/>
</a>
</g>
</g>
<!-- Node16 -->
<g id="Node000016" class="node">
<title>Node16</title>
<g id="a_Node000016"><a xlink:title=" ">
<polygon fill="#e0e0e0" stroke="#999999" points="586.62,-74.5 535.38,-74.5 535.38,-55.25 586.62,-55.25 586.62,-74.5"/>
<text text-anchor="middle" x="561" y="-61" font-family="Helvetica,sans-Serif" font-size="10.00">ostream</text>
</a>
</g>
</g>
<!-- Node15&#45;&gt;Node16 -->
<g id="edge15_Node000015_Node000016" class="edge">
<title>Node15&#45;&gt;Node16</title>
<g id="a_edge15_Node000015_Node000016"><a xlink:title=" ">
<path fill="none" stroke="#63b8ff" d="M606.08,-110.33C598.55,-102.9 587.53,-92.04 578.27,-82.91"/>
<polygon fill="#63b8ff" stroke="#63b8ff" points="580.77,-80.45 571.19,-75.92 575.85,-85.44 580.77,-80.45"/>
</a>
</g>
</g>
<!-- Node21&#45;&gt;Node9 -->
<g id="edge24_Node000021_Node000009" class="edge">
<title>Node21&#45;&gt;Node9</title>
<g id="a_edge24_Node000021_Node000009"><a xlink:title=" ">
<path fill="none" stroke="#63b8ff" d="M932.58,-165.34C919.88,-157.39 901.13,-145.64 886.14,-136.25"/>
<polygon fill="#63b8ff" stroke="#63b8ff" points="888.1,-133.35 877.77,-131.01 884.39,-139.28 888.1,-133.35"/>
</a>
</g>
</g>
<!-- Node21&#45;&gt;Node18 -->
<g id="edge26_Node000021_Node000018" class="edge">
<title>Node21&#45;&gt;Node18</title>
<g id="a_edge26_Node000021_Node000018"><a xlink:title=" ">
<path fill="none" stroke="#63b8ff" d="M970.17,-165.28C991.99,-156.59 1025.49,-142.9 1054,-129.75 1071.19,-121.82 1074.36,-117.38 1092,-110.5 1131.07,-95.25 1177.43,-82.79 1209.79,-74.95"/>
<polygon fill="#63b8ff" stroke="#63b8ff" points="1210.23,-78.44 1219.14,-72.72 1208.6,-71.63 1210.23,-78.44"/>
</a>
</g>
</g>
<!-- Node22 -->
<g id="Node000022" class="node">
<title>Node22</title>
<g id="a_Node000022"><a xlink:title=" ">
<polygon fill="#e0e0e0" stroke="#999999" points="1135.38,-129.75 1100.62,-129.75 1100.62,-110.5 1135.38,-110.5 1135.38,-129.75"/>
<text text-anchor="middle" x="1118" y="-116.25" font-family="Helvetica,sans-Serif" font-size="10.00">map</text>
</a>
</g>
</g>
<!-- Node21&#45;&gt;Node22 -->
<g id="edge23_Node000021_Node000022" class="edge">
<title>Node21&#45;&gt;Node22</title>
<g id="a_edge23_Node000021_Node000022"><a xlink:title=" ">
<path fill="none" stroke="#63b8ff" d="M972.6,-166.4C1004.1,-156.59 1057.41,-139.99 1089.99,-129.85"/>
<polygon fill="#63b8ff" stroke="#63b8ff" points="1090.62,-133.32 1099.13,-127 1088.54,-126.63 1090.62,-133.32"/>
</a>
</g>
</g>
<!-- Node21&#45;&gt;Node23 -->
<g id="edge25_Node000021_Node000023" class="edge">
<title>Node21&#45;&gt;Node23</title>
<g id="a_edge25_Node000021_Node000023"><a xlink:title=" ">
<path fill="none" stroke="#63b8ff" d="M942.71,-165.67C936.62,-153.34 925.1,-130.13 915,-110.5 906.73,-94.41 900.35,-92.06 896,-74.5 893.94,-66.2 890.38,-61.7 896,-55.25 932.44,-13.44 1082.41,-28.26 1154.63,-19.17"/>
<polygon fill="#63b8ff" stroke="#63b8ff" points="1155.09,-22.64 1164.44,-17.64 1154.02,-15.72 1155.09,-22.64"/>
</a>
</g>
</g>
<!-- Node24 -->
<g id="Node000024" class="node">
<title>Node24</title>
<g id="a_Node000024"><a xlink:title=" ">
<polygon fill="#e0e0e0" stroke="#999999" points="1226.12,-129.75 1153.88,-129.75 1153.88,-110.5 1226.12,-110.5 1226.12,-129.75"/>
<text text-anchor="middle" x="1190" y="-116.25" font-family="Helvetica,sans-Serif" font-size="10.00">TCollection.h</text>
</a>
</g>
</g>
<!-- Node21&#45;&gt;Node24 -->
<g id="edge27_Node000021_Node000024" class="edge">
<title>Node21&#45;&gt;Node24</title>
<g id="a_edge27_Node000021_Node000024"><a xlink:title=" ">
<path fill="none" stroke="#63b8ff" d="M972.55,-168.78C1012.76,-159.96 1091.49,-142.71 1142.36,-131.56"/>
<polygon fill="#63b8ff" stroke="#63b8ff" points="1142.9,-135.03 1151.92,-129.47 1141.41,-128.19 1142.9,-135.03"/>
</a>
</g>
</g>
<!-- Node25 -->
<g id="Node000025" class="node">
<title>Node25</title>
<g id="a_Node000025"><a xlink:href="_globals_8h.html" target="_top" xlink:title=" ">
<polygon fill="white" stroke="#666666" points="787.25,-74.5 730.75,-74.5 730.75,-55.25 787.25,-55.25 787.25,-74.5"/>
<text text-anchor="middle" x="759" y="-61" font-family="Helvetica,sans-Serif" font-size="10.00">Globals.h</text>
</a>
</g>
</g>
<!-- Node21&#45;&gt;Node25 -->
<g id="edge28_Node000021_Node000025" class="edge">
<title>Node21&#45;&gt;Node25</title>
<g id="a_edge28_Node000021_Node000025"><a xlink:title=" ">
<path fill="none" stroke="#63b8ff" d="M941.42,-165.64C932.27,-152 912.8,-125.61 890,-110.5 862.22,-92.09 826.1,-80.53 798.82,-73.8"/>
<polygon fill="#63b8ff" stroke="#63b8ff" points="799.73,-70.42 789.19,-71.55 798.13,-77.24 799.73,-70.42"/>
</a>
</g>
</g>
<!-- Node37 -->
<g id="Node000037" class="node">
<title>Node37</title>
<g id="a_Node000037"><a xlink:href="_t_singleton_8h.html" target="_top" xlink:title=" ">
<polygon fill="white" stroke="#666666" points="1045,-129.75 975,-129.75 975,-110.5 1045,-110.5 1045,-129.75"/>
<text text-anchor="middle" x="1010" y="-116.25" font-family="Helvetica,sans-Serif" font-size="10.00">TSingleton.h</text>
</a>
</g>
</g>
<!-- Node21&#45;&gt;Node37 -->
<g id="edge43_Node000021_Node000037" class="edge">
<title>Node21&#45;&gt;Node37</title>
<g id="a_edge43_Node000021_Node000037"><a xlink:title=" ">
<path fill="none" stroke="#63b8ff" d="M957.69,-165.34C966.7,-157.72 979.83,-146.62 990.68,-137.45"/>
<polygon fill="#63b8ff" stroke="#63b8ff" points="992.94,-140.13 998.31,-131 988.42,-134.78 992.94,-140.13"/>
</a>
</g>
</g>
<!-- Node25&#45;&gt;Node2 -->
<g id="edge33_Node000025_Node000002" class="edge">
<title>Node25&#45;&gt;Node2</title>
<g id="a_edge33_Node000025_Node000002"><a xlink:title=" ">
<path fill="none" stroke="#63b8ff" d="M730.35,-61.38C629.14,-52.56 288.74,-22.89 180.99,-13.5"/>
<polygon fill="#63b8ff" stroke="#63b8ff" points="181.37,-10.02 171.11,-12.64 180.77,-16.99 181.37,-10.02"/>
</a>
</g>
</g>
<!-- Node25&#45;&gt;Node7 -->
<g id="edge32_Node000025_Node000007" class="edge">
<title>Node25&#45;&gt;Node7</title>
<g id="a_edge32_Node000025_Node000007"><a xlink:title=" ">
<path fill="none" stroke="#63b8ff" d="M730.33,-59.59C720.42,-58.15 709.23,-56.58 699,-55.25 564.65,-37.82 526.32,-46.69 390.72,-19.49"/>
<polygon fill="#63b8ff" stroke="#63b8ff" points="391.46,-16.07 380.97,-17.5 390.07,-22.93 391.46,-16.07"/>
</a>
</g>
</g>
<!-- Node25&#45;&gt;Node23 -->
<g id="edge29_Node000025_Node000023" class="edge">
<title>Node25&#45;&gt;Node23</title>
<g id="a_edge29_Node000025_Node000023"><a xlink:title=" ">
<path fill="none" stroke="#63b8ff" d="M787.4,-57.64C791.93,-56.76 796.58,-55.92 801,-55.25 954.67,-31.76 998.26,-45.2 1154.97,-19.36"/>
<polygon fill="#63b8ff" stroke="#63b8ff" points="1155.18,-22.88 1164.46,-17.77 1154.02,-15.97 1155.18,-22.88"/>
</a>
</g>
</g>
<!-- Node26 -->
<g id="Node000026" class="node">
<title>Node26</title>
<g id="a_Node000026"><a xlink:title=" ">
<polygon fill="#e0e0e0" stroke="#999999" points="1147.88,-19.25 1098.12,-19.25 1098.12,0 1147.88,0 1147.88,-19.25"/>
<text text-anchor="middle" x="1123" y="-5.75" font-family="Helvetica,sans-Serif" font-size="10.00">iomanip</text>
</a>
</g>
</g>
<!-- Node25&#45;&gt;Node26 -->
<g id="edge30_Node000025_Node000026" class="edge">
<title>Node25&#45;&gt;Node26</title>
<g id="a_edge30_Node000025_Node000026"><a xlink:title=" ">
<path fill="none" stroke="#63b8ff" d="M787.41,-57.73C791.95,-56.84 796.59,-55.98 801,-55.25 924.67,-34.85 960.24,-42.68 1086.55,-19.49"/>
<polygon fill="#63b8ff" stroke="#63b8ff" points="1087.15,-22.94 1096.34,-17.66 1085.87,-16.06 1087.15,-22.94"/>
</a>
</g>
</g>
<!-- Node27 -->
<g id="Node000027" class="node">
<title>Node27</title>
<g id="a_Node000027"><a xlink:title=" ">
<polygon fill="#e0e0e0" stroke="#999999" points="455,-19.25 397,-19.25 397,0 455,0 455,-19.25"/>
<text text-anchor="middle" x="426" y="-5.75" font-family="Helvetica,sans-Serif" font-size="10.00">stdexcept</text>
</a>
</g>
</g>
<!-- Node25&#45;&gt;Node27 -->
<g id="edge31_Node000025_Node000027" class="edge">
<title>Node25&#45;&gt;Node27</title>
<g id="a_edge31_Node000025_Node000027"><a xlink:title=" ">
<path fill="none" stroke="#63b8ff" d="M730.39,-59.67C667.11,-50.35 517.38,-28.21 466.54,-19.51"/>
<polygon fill="#63b8ff" stroke="#63b8ff" points="467.36,-16.11 456.9,-17.79 466.13,-23 467.36,-16.11"/>
</a>
</g>
</g>
<!-- Node28 -->
<g id="Node000028" class="node">
<title>Node28</title>
<g id="a_Node000028"><a xlink:title=" ">
<polygon fill="#e0e0e0" stroke="#999999" points="517.25,-19.25 472.75,-19.25 472.75,0 517.25,0 517.25,-19.25"/>
<text text-anchor="middle" x="495" y="-5.75" font-family="Helvetica,sans-Serif" font-size="10.00">cstdlib</text>
</a>
</g>
</g>
<!-- Node25&#45;&gt;Node28 -->
<g id="edge34_Node000025_Node000028" class="edge">
<title>Node25&#45;&gt;Node28</title>
<g id="a_edge34_Node000025_Node000028"><a xlink:title=" ">
<path fill="none" stroke="#63b8ff" d="M730.51,-59.19C688.42,-52.11 606.93,-37.77 528.65,-19.72"/>
<polygon fill="#63b8ff" stroke="#63b8ff" points="529.64,-16.36 519.11,-17.5 528.05,-23.18 529.64,-16.36"/>
</a>
</g>
</g>
<!-- Node29 -->
<g id="Node000029" class="node">
<title>Node29</title>
<g id="a_Node000029"><a xlink:title=" ">
<polygon fill="#e0e0e0" stroke="#999999" points="594.75,-19.25 535.25,-19.25 535.25,0 594.75,0 594.75,-19.25"/>
<text text-anchor="middle" x="565" y="-5.75" font-family="Helvetica,sans-Serif" font-size="10.00">execinfo.h</text>
</a>
</g>
</g>
<!-- Node25&#45;&gt;Node29 -->
<g id="edge35_Node000025_Node000029" class="edge">
<title>Node25&#45;&gt;Node29</title>
<g id="a_edge35_Node000025_Node000029"><a xlink:title=" ">
<path fill="none" stroke="#63b8ff" d="M730.37,-56.02C697.52,-47 643.36,-32.13 606.02,-21.89"/>
<polygon fill="#63b8ff" stroke="#63b8ff" points="607.05,-18.54 596.48,-19.27 605.2,-25.29 607.05,-18.54"/>
</a>
</g>
</g>
<!-- Node30 -->
<g id="Node000030" class="node">
<title>Node30</title>
<g id="a_Node000030"><a xlink:title=" ">
<polygon fill="#e0e0e0" stroke="#999999" points="663.25,-19.25 612.75,-19.25 612.75,0 663.25,0 663.25,-19.25"/>
<text text-anchor="middle" x="638" y="-5.75" font-family="Helvetica,sans-Serif" font-size="10.00">cxxabi.h</text>
</a>
</g>
</g>
<!-- Node25&#45;&gt;Node30 -->
<g id="edge36_Node000025_Node000030" class="edge">
<title>Node25&#45;&gt;Node30</title>
<g id="a_edge36_Node000025_Node000030"><a xlink:title=" ">
<path fill="none" stroke="#63b8ff" d="M738.47,-54.84C719.44,-46.47 690.85,-33.88 669.03,-24.28"/>
<polygon fill="#63b8ff" stroke="#63b8ff" points="670.57,-21.14 660.01,-20.31 667.76,-27.54 670.57,-21.14"/>
</a>
</g>
</g>
<!-- Node31 -->
<g id="Node000031" class="node">
<title>Node31</title>
<g id="a_Node000031"><a xlink:title=" ">
<polygon fill="#e0e0e0" stroke="#999999" points="732.62,-19.25 681.38,-19.25 681.38,0 732.62,0 732.62,-19.25"/>
<text text-anchor="middle" x="707" y="-5.75" font-family="Helvetica,sans-Serif" font-size="10.00">sstream</text>
</a>
</g>
</g>
<!-- Node25&#45;&gt;Node31 -->
<g id="edge37_Node000025_Node000031" class="edge">
<title>Node25&#45;&gt;Node31</title>
<g id="a_edge37_Node000025_Node000031"><a xlink:title=" ">
<path fill="none" stroke="#63b8ff" d="M750.41,-55.08C743.16,-47.65 732.55,-36.79 723.63,-27.66"/>
<polygon fill="#63b8ff" stroke="#63b8ff" points="726.32,-25.4 716.83,-20.69 721.31,-30.29 726.32,-25.4"/>
</a>
</g>
</g>
<!-- Node32 -->
<g id="Node000032" class="node">
<title>Node32</title>
<g id="a_Node000032"><a xlink:title=" ">
<polygon fill="#e0e0e0" stroke="#999999" points="787.5,-19.25 750.5,-19.25 750.5,0 787.5,0 787.5,-19.25"/>
<text text-anchor="middle" x="769" y="-5.75" font-family="Helvetica,sans-Serif" font-size="10.00">array</text>
</a>
</g>
</g>
<!-- Node25&#45;&gt;Node32 -->
<g id="edge38_Node000025_Node000032" class="edge">
<title>Node25&#45;&gt;Node32</title>
<g id="a_edge38_Node000025_Node000032"><a xlink:title=" ">
<path fill="none" stroke="#63b8ff" d="M760.65,-55.08C761.89,-48.49 763.63,-39.21 765.21,-30.82"/>
<polygon fill="#63b8ff" stroke="#63b8ff" points="768.63,-31.57 767.03,-21.1 761.75,-30.28 768.63,-31.57"/>
</a>
</g>
</g>
<!-- Node33 -->
<g id="Node000033" class="node">
<title>Node33</title>
<g id="a_Node000033"><a xlink:title=" ">
<polygon fill="#e0e0e0" stroke="#999999" points="856.25,-19.25 805.75,-19.25 805.75,0 856.25,0 856.25,-19.25"/>
<text text-anchor="middle" x="831" y="-5.75" font-family="Helvetica,sans-Serif" font-size="10.00">memory</text>
</a>
</g>
</g>
<!-- Node25&#45;&gt;Node33 -->
<g id="edge39_Node000025_Node000033" class="edge">
<title>Node25&#45;&gt;Node33</title>
<g id="a_edge39_Node000025_Node000033"><a xlink:title=" ">
<path fill="none" stroke="#63b8ff" d="M771.21,-54.84C781.83,-46.99 797.44,-35.45 810.04,-26.12"/>
<polygon fill="#63b8ff" stroke="#63b8ff" points="811.79,-29.19 817.75,-20.42 807.63,-23.56 811.79,-29.19"/>
</a>
</g>
</g>
<!-- Node34 -->
<g id="Node000034" class="node">
<title>Node34</title>
<g id="a_Node000034"><a xlink:title=" ">
<polygon fill="#e0e0e0" stroke="#999999" points="923.88,-19.25 874.12,-19.25 874.12,0 923.88,0 923.88,-19.25"/>
<text text-anchor="middle" x="899" y="-5.75" font-family="Helvetica,sans-Serif" font-size="10.00">unistd.h</text>
</a>
</g>
</g>
<!-- Node25&#45;&gt;Node34 -->
<g id="edge40_Node000025_Node000034" class="edge">
<title>Node25&#45;&gt;Node34</title>
<g id="a_edge40_Node000025_Node000034"><a xlink:title=" ">
<path fill="none" stroke="#63b8ff" d="M782.75,-54.84C805.17,-46.31 839.06,-33.42 864.47,-23.76"/>
<polygon fill="#63b8ff" stroke="#63b8ff" points="865.62,-27.07 873.72,-20.24 863.13,-20.52 865.62,-27.07"/>
</a>
</g>
</g>
<!-- Node35 -->
<g id="Node000035" class="node">
<title>Node35</title>
<g id="a_Node000035"><a xlink:title=" ">
<polygon fill="#e0e0e0" stroke="#999999" points="1001.75,-19.25 942.25,-19.25 942.25,0 1001.75,0 1001.75,-19.25"/>
<text text-anchor="middle" x="972" y="-5.75" font-family="Helvetica,sans-Serif" font-size="10.00">sys/wait.h</text>
</a>
</g>
</g>
<!-- Node25&#45;&gt;Node35 -->
<g id="edge41_Node000025_Node000035" class="edge">
<title>Node25&#45;&gt;Node35</title>
<g id="a_edge41_Node000025_Node000035"><a xlink:title=" ">
<path fill="none" stroke="#63b8ff" d="M787.73,-56.69C824.65,-47.46 889.01,-31.37 931.05,-20.86"/>
<polygon fill="#63b8ff" stroke="#63b8ff" points="931.7,-24.31 940.55,-18.49 930,-17.52 931.7,-24.31"/>
</a>
</g>
</g>
<!-- Node36 -->
<g id="Node000036" class="node">
<title>Node36</title>
<g id="a_Node000036"><a xlink:title=" ">
<polygon fill="#e0e0e0" stroke="#999999" points="1080.12,-19.25 1019.88,-19.25 1019.88,0 1080.12,0 1080.12,-19.25"/>
<text text-anchor="middle" x="1050" y="-5.75" font-family="Helvetica,sans-Serif" font-size="10.00">sys/prctl.h</text>
</a>
</g>
</g>
<!-- Node25&#45;&gt;Node36 -->
<g id="edge42_Node000025_Node000036" class="edge">
<title>Node25&#45;&gt;Node36</title>
<g id="a_edge42_Node000025_Node000036"><a xlink:title=" ">
<path fill="none" stroke="#63b8ff" d="M787.44,-57.9C791.97,-56.99 796.61,-56.08 801,-55.25 890.51,-38.39 916.15,-37.52 1008.5,-19.66"/>
<polygon fill="#63b8ff" stroke="#63b8ff" points="1009.17,-23.1 1018.31,-17.74 1007.83,-16.22 1009.17,-23.1"/>
</a>
</g>
</g>
<!-- Node37&#45;&gt;Node18 -->
<g id="edge45_Node000037_Node000018" class="edge">
<title>Node37&#45;&gt;Node18</title>
<g id="a_edge45_Node000037_Node000018"><a xlink:title=" ">
<path fill="none" stroke="#63b8ff" d="M1045.41,-111.27C1089.29,-101.53 1163.86,-84.99 1209.83,-74.79"/>
<polygon fill="#63b8ff" stroke="#63b8ff" points="1210.38,-78.25 1219.38,-72.67 1208.86,-71.42 1210.38,-78.25"/>
</a>
</g>
</g>
<!-- Node37&#45;&gt;Node23 -->
<g id="edge44_Node000037_Node000023" class="edge">
<title>Node37&#45;&gt;Node23</title>
<g id="a_edge44_Node000037_Node000023"><a xlink:title=" ">
<path fill="none" stroke="#63b8ff" d="M1045.32,-111.43C1090.68,-101.26 1164.71,-83.57 1174,-74.5 1185.66,-63.11 1190.24,-44.91 1192,-30.85"/>
<polygon fill="#63b8ff" stroke="#63b8ff" points="1195.49,-31.17 1192.83,-20.92 1188.51,-30.6 1195.49,-31.17"/>
</a>
</g>
</g>
<!-- Node37&#45;&gt;Node25 -->
<g id="edge50_Node000037_Node000025" class="edge">
<title>Node37&#45;&gt;Node25</title>
<g id="a_edge50_Node000037_Node000025"><a xlink:title=" ">
<path fill="none" stroke="#63b8ff" d="M974.57,-111.61C928.16,-101.76 847,-84.55 798.61,-74.28"/>
<polygon fill="#63b8ff" stroke="#63b8ff" points="799.62,-70.92 789.12,-72.26 798.17,-77.76 799.62,-70.92"/>
</a>
</g>
</g>
<!-- Node38 -->
<g id="Node000038" class="node">
<title>Node38</title>
<g id="a_Node000038"><a xlink:title=" ">
<polygon fill="#e0e0e0" stroke="#999999" points="972.88,-74.5 905.12,-74.5 905.12,-55.25 972.88,-55.25 972.88,-74.5"/>
<text text-anchor="middle" x="939" y="-61" font-family="Helvetica,sans-Serif" font-size="10.00">TDirectory.h</text>
</a>
</g>
</g>
<!-- Node37&#45;&gt;Node38 -->
<g id="edge46_Node000037_Node000038" class="edge">
<title>Node37&#45;&gt;Node38</title>
<g id="a_edge46_Node000037_Node000038"><a xlink:title=" ">
<path fill="none" stroke="#63b8ff" d="M997.96,-110.09C987.59,-102.32 972.4,-90.92 960.03,-81.65"/>
<polygon fill="#63b8ff" stroke="#63b8ff" points="962.18,-78.88 952.08,-75.68 957.98,-84.48 962.18,-78.88"/>
</a>
</g>
</g>
<!-- Node39 -->
<g id="Node000039" class="node">
<title>Node39</title>
<g id="a_Node000039"><a xlink:title=" ">
<polygon fill="#e0e0e0" stroke="#999999" points="1036.62,-74.5 991.38,-74.5 991.38,-55.25 1036.62,-55.25 1036.62,-74.5"/>
<text text-anchor="middle" x="1014" y="-61" font-family="Helvetica,sans-Serif" font-size="10.00">TFile.h</text>
</a>
</g>
</g>
<!-- Node37&#45;&gt;Node39 -->
<g id="edge47_Node000037_Node000039" class="edge">
<title>Node37&#45;&gt;Node39</title>
<g id="a_edge47_Node000037_Node000039"><a xlink:title=" ">
<path fill="none" stroke="#63b8ff" d="M1010.66,-110.33C1011.16,-103.74 1011.85,-94.46 1012.48,-86.07"/>
<polygon fill="#63b8ff" stroke="#63b8ff" points="1015.95,-86.6 1013.21,-76.37 1008.97,-86.08 1015.95,-86.6"/>
</a>
</g>
</g>
<!-- Node40 -->
<g id="Node000040" class="node">
<title>Node40</title>
<g id="a_Node000040"><a xlink:title=" ">
<polygon fill="#e0e0e0" stroke="#999999" points="1101,-74.5 1055,-74.5 1055,-55.25 1101,-55.25 1101,-74.5"/>
<text text-anchor="middle" x="1078" y="-61" font-family="Helvetica,sans-Serif" font-size="10.00">TList.h</text>
</a>
</g>
</g>
<!-- Node37&#45;&gt;Node40 -->
<g id="edge48_Node000037_Node000040" class="edge">
<title>Node37&#45;&gt;Node40</title>
<g id="a_edge48_Node000037_Node000040"><a xlink:title=" ">
<path fill="none" stroke="#63b8ff" d="M1021.54,-110.09C1031.46,-102.32 1046.01,-90.92 1057.86,-81.65"/>
<polygon fill="#63b8ff" stroke="#63b8ff" points="1059.73,-84.63 1065.44,-75.71 1055.41,-79.12 1059.73,-84.63"/>
</a>
</g>
</g>
<!-- Node41 -->
<g id="Node000041" class="node">
<title>Node41</title>
<g id="a_Node000041"><a xlink:title=" ">
<polygon fill="#e0e0e0" stroke="#999999" points="1165,-74.5 1119,-74.5 1119,-55.25 1165,-55.25 1165,-74.5"/>
<text text-anchor="middle" x="1142" y="-61" font-family="Helvetica,sans-Serif" font-size="10.00">TKey.h</text>
</a>
</g>
</g>
<!-- Node37&#45;&gt;Node41 -->
<g id="edge49_Node000037_Node000041" class="edge">
<title>Node37&#45;&gt;Node41</title>
<g id="a_edge49_Node000037_Node000041"><a xlink:title=" ">
<path fill="none" stroke="#63b8ff" d="M1032.39,-110.09C1053.44,-101.6 1085.2,-88.79 1109.12,-79.14"/>
<polygon fill="#63b8ff" stroke="#63b8ff" points="1110.13,-82.51 1118.09,-75.52 1107.51,-76.01 1110.13,-82.51"/>
</a>
</g>
</g>
<!-- Node42&#45;&gt;Node23 -->
<g id="edge52_Node000042_Node000023" class="edge">
<title>Node42&#45;&gt;Node23</title>
<g id="a_edge52_Node000042_Node000023"><a xlink:title=" ">
<path fill="none" stroke="#63b8ff" d="M816.22,-165.56C818.29,-152.71 823.36,-128.4 834,-110.5 851.7,-80.71 857.96,-70.65 889,-55.25 993.4,-3.45 1036.24,-38.98 1154.62,-19.42"/>
<polygon fill="#63b8ff" stroke="#63b8ff" points="1155.21,-22.87 1164.45,-17.68 1153.99,-15.98 1155.21,-22.87"/>
</a>
</g>
</g>
<!-- Node43 -->
<g id="Node000043" class="node">
<title>Node43</title>
<g id="a_Node000043"><a xlink:title=" ">
<polygon fill="#e0e0e0" stroke="#999999" points="786.88,-129.75 713.12,-129.75 713.12,-110.5 786.88,-110.5 786.88,-129.75"/>
<text text-anchor="middle" x="750" y="-116.25" font-family="Helvetica,sans-Serif" font-size="10.00">RtypesCore.h</text>
</a>
</g>
</g>
<!-- Node42&#45;&gt;Node43 -->
<g id="edge53_Node000042_Node000043" class="edge">
<title>Node42&#45;&gt;Node43</title>
<g id="a_edge53_Node000042_Node000043"><a xlink:title=" ">
<path fill="none" stroke="#63b8ff" d="M803.97,-165.34C794.58,-157.65 780.85,-146.4 769.59,-137.18"/>
<polygon fill="#63b8ff" stroke="#63b8ff" points="771.99,-134.61 762.03,-130.98 767.55,-140.03 771.99,-134.61"/>
</a>
</g>
</g>
</g>
</svg>

<g id="navigator" transform="translate(0 0)" fill="#404254">
  <rect fill="#f2f5e9" fill-opacity="0.5" stroke="#606060" stroke-width=".5" x="0" y="0" width="60" height="60"/>
  <use id="zoomplus" xlink:href="#zoomPlus" x="17" y="9" onmousedown="handleZoom(evt,'in')"/>
  <use id="zoomminus" xlink:href="#zoomMin" x="42" y="9" onmousedown="handleZoom(evt,'out')"/>
  <use id="reset" xlink:href="#resetDef" x="30" y="36" onmousedown="handleReset()"/>
   <use id="arrowup" xlink:href="#arrowUp" x="0" y="0" onmousedown="handlePan(0,-1)"/>
  <use id="arrowright" xlink:href="#arrowRight" x="0" y="0" onmousedown="handlePan(1,0)"/>
  <use id="arrowdown" xlink:href="#arrowDown" x="0" y="0" onmousedown="handlePan(0,1)"/>
  <use id="arrowleft" xlink:href="#arrowLeft" x="0" y="0" onmousedown="handlePan(-1,0)"/>
</g>
<svg viewBox="0 0 15 15" width="100%" height="30px" preserveAspectRatio="xMaxYMin meet">
 <g id="arrow_out" transform="scale(0.3 0.3)">
  <a xlink:href="_t_s3_hit_8h__incl_org.svg" target="_base">
   <rect id="button" ry="5" rx="5" y="6" x="6" height="38" width="38"
        fill="#f2f5e9" fill-opacity="0.5" stroke="#606060" stroke-width="1.0"/>
   <path id="arrow"
     d="M 11.500037,31.436501 C 11.940474,20.09759 22.043105,11.32322 32.158766,21.979434 L 37.068811,17.246167 C 37.068811,17.246167 37.088388,32 37.088388,32 L 22.160133,31.978069 C 22.160133,31.978069 26.997745,27.140456 26.997745,27.140456 C 18.528582,18.264221 13.291696,25.230495 11.500037,31.436501 z"
     style="fill:#404040;"/>
  </a>
 </g>
</svg>

<style type='text/css'>
<![CDATA[
[data-mouse-over-selected='false'] { opacity: 0.7; }
[data-mouse-over-selected='true']  { opacity: 1.0; }
]]>
</style>
<script type="application/ecmascript"><![CDATA[
document.addEventListener('DOMContentLoaded', (event) => {
  highlightEdges();
  highlightAdjacentNodes();
});
]]></script>
</svg>
