<?xml version="1.0" encoding="UTF-8" standalone="no"?>
<!DOCTYPE svg PUBLIC "-//W3C//DTD SVG 1.1//EN"
 "http://www.w3.org/Graphics/SVG/1.1/DTD/svg11.dtd">
<!-- Generated by graphviz version 12.2.0 (20241103.1931)
 -->
<!-- Title: TScaler.h Pages: 1 -->
<!--zoomable 193 -->

<svg id="main" version="1.1" xmlns="http://www.w3.org/2000/svg" xmlns:xlink="http://www.w3.org/1999/xlink" xml:space="preserve" onload="init(evt)">

<style type="text/css"><![CDATA[
.node, .edge {opacity: 0.7;}
.node.selected, .edge.selected {opacity: 1;}
.edge:hover path { stroke: red; }
.edge:hover polygon { stroke: red; fill: red; }
]]></style>

<defs>
  <circle id="rim" cx="0" cy="0" r="7"/>
  <circle id="rim2" cx="0" cy="0" r="3.5"/>
  <g id="zoomPlus">
    <use xlink:href="#rim" fill="#404040"><set attributeName="fill" to="#808080" begin="zoomplus.mouseover" end="zoomplus.mouseout"/></use>
    <path d="M-4,0h8M0,-4v8" fill="none" stroke="white" stroke-width="1.5" pointer-events="none"/>
  </g>
  <g id="zoomMin">
    <use xlink:href="#rim" fill="#404040"><set attributeName="fill" to="#808080" begin="zoomminus.mouseover" end="zoomminus.mouseout"/></use>
    <path d="M-4,0h8" fill="none" stroke="white" stroke-width="1.5" pointer-events="none"/>
  </g>
  <g id="arrowUp" transform="translate(30 24)">
    <use xlink:href="#rim"/>
    <path pointer-events="none" fill="none" stroke="white" stroke-width="1.5" d="M0,-3.0v7 M-2.5,-0.5L0,-3.0L2.5,-0.5"/>
  </g>
  <g id="arrowRight" transform="rotate(90) translate(36 -43)">
    <use xlink:href="#rim"/>
    <path pointer-events="none" fill="none" stroke="white" stroke-width="1.5" d="M0,-3.0v7 M-2.5,-0.5L0,-3.0L2.5,-0.5"/>
  </g>
  <g id="arrowDown" transform="rotate(180) translate(-30 -48)">
    <use xlink:href="#rim"/>
    <path pointer-events="none" fill="none" stroke="white" stroke-width="1.5" d="M0,-3.0v7 M-2.5,-0.5L0,-3.0L2.5,-0.5"/>
  </g>
  <g id="arrowLeft" transform="rotate(270) translate(-36 17)">
    <use xlink:href="#rim"/>
    <path pointer-events="none" fill="none" stroke="white" stroke-width="1.5" d="M0,-3.0v7 M-2.5,-0.5L0,-3.0L2.5,-0.5"/>
  </g>
  <g id="resetDef">
    <use xlink:href="#rim2" fill="#404040"><set attributeName="fill" to="#808080" begin="reset.mouseover" end="reset.mouseout"/></use>
  </g>
</defs>
<script type="application/ecmascript">
var viewWidth = 1709;
var viewHeight = 193;
var sectionId = 'dynsection-1';
</script>
<script type="application/ecmascript" xlink:href="svg.min.js"/>
<svg id="graph" class="graph">
<g id="viewport">
<title>TScaler.h</title>
<!-- Node1 -->
<g id="Node000001" class="node">
<title>Node1</title>
<g id="a_Node000001"><a xlink:title=" ">
<polygon fill="#999999" stroke="#666666" points="863.38,-185 806.12,-185 806.12,-165.75 863.38,-165.75 863.38,-185"/>
<text text-anchor="middle" x="834.75" y="-171.5" font-family="Helvetica,sans-Serif" font-size="10.00">TScaler.h</text>
</a>
</g>
</g>
<!-- Node2 -->
<g id="Node000002" class="node">
<title>Node2</title>
<g id="a_Node000002"><a xlink:href="_deadtime_8cxx.html" target="_top" xlink:title=" ">
<polygon fill="white" stroke="#666666" points="311.62,-129.75 237.88,-129.75 237.88,-110.5 311.62,-110.5 311.62,-129.75"/>
<text text-anchor="middle" x="274.75" y="-116.25" font-family="Helvetica,sans-Serif" font-size="10.00">Deadtime.cxx</text>
</a>
</g>
</g>
<!-- Node1&#45;&gt;Node2 -->
<g id="edge1_Node000001_Node000002" class="edge">
<title>Node1&#45;&gt;Node2</title>
<g id="a_edge1_Node000001_Node000002"><a xlink:title=" ">
<path fill="none" stroke="#63b8ff" d="M794.22,-172.22C707.21,-167.3 496.2,-153.75 320.75,-129.75 317.93,-129.36 315.03,-128.92 312.11,-128.45"/>
<polygon fill="#63b8ff" stroke="#63b8ff" points="793.97,-175.71 804.14,-172.77 794.36,-168.72 793.97,-175.71"/>
</a>
</g>
</g>
<!-- Node3 -->
<g id="Node000003" class="node">
<title>Node3</title>
<g id="a_Node000003"><a xlink:href="_t_g_r_s_i_data_parser_8h.html" target="_top" xlink:title=" ">
<polygon fill="white" stroke="#666666" points="431.88,-129.75 329.62,-129.75 329.62,-110.5 431.88,-110.5 431.88,-129.75"/>
<text text-anchor="middle" x="380.75" y="-116.25" font-family="Helvetica,sans-Serif" font-size="10.00">TGRSIDataParser.h</text>
</a>
</g>
</g>
<!-- Node1&#45;&gt;Node3 -->
<g id="edge2_Node000001_Node000003" class="edge">
<title>Node1&#45;&gt;Node3</title>
<g id="a_edge2_Node000001_Node000003"><a xlink:title=" ">
<path fill="none" stroke="#63b8ff" d="M794.25,-169.62C711.58,-159.93 523.54,-137.87 432.3,-127.17"/>
<polygon fill="#63b8ff" stroke="#63b8ff" points="793.82,-173.1 804.16,-170.79 794.63,-166.15 793.82,-173.1"/>
</a>
</g>
</g>
<!-- Node9 -->
<g id="Node000009" class="node">
<title>Node9</title>
<g id="a_Node000009"><a xlink:href="_t_h_i_l_data_parser_8h.html" target="_top" xlink:title=" ">
<polygon fill="white" stroke="#666666" points="882.12,-129.75 787.38,-129.75 787.38,-110.5 882.12,-110.5 882.12,-129.75"/>
<text text-anchor="middle" x="834.75" y="-116.25" font-family="Helvetica,sans-Serif" font-size="10.00">THILDataParser.h</text>
</a>
</g>
</g>
<!-- Node1&#45;&gt;Node9 -->
<g id="edge11_Node000001_Node000009" class="edge">
<title>Node1&#45;&gt;Node9</title>
<g id="a_edge11_Node000001_Node000009"><a xlink:title=" ">
<path fill="none" stroke="#63b8ff" d="M834.75,-154.13C834.75,-145.84 834.75,-136.67 834.75,-130.11"/>
<polygon fill="#63b8ff" stroke="#63b8ff" points="831.25,-154.07 834.75,-164.07 838.25,-154.07 831.25,-154.07"/>
</a>
</g>
</g>
<!-- Node14 -->
<g id="Node000014" class="node">
<title>Node14</title>
<g id="a_Node000014"><a xlink:href="_t_i_l_l_data_parser_8h.html" target="_top" xlink:title=" ">
<polygon fill="white" stroke="#666666" points="1160.38,-129.75 1067.12,-129.75 1067.12,-110.5 1160.38,-110.5 1160.38,-129.75"/>
<text text-anchor="middle" x="1113.75" y="-116.25" font-family="Helvetica,sans-Serif" font-size="10.00">TILLDataParser.h</text>
</a>
</g>
</g>
<!-- Node1&#45;&gt;Node14 -->
<g id="edge18_Node000001_Node000014" class="edge">
<title>Node1&#45;&gt;Node14</title>
<g id="a_edge18_Node000001_Node000014"><a xlink:title=" ">
<path fill="none" stroke="#63b8ff" d="M874.99,-166.7C925.75,-157.01 1012.9,-140.37 1066.69,-130.11"/>
<polygon fill="#63b8ff" stroke="#63b8ff" points="874.47,-163.23 865.31,-168.54 875.78,-170.11 874.47,-163.23"/>
</a>
</g>
</g>
<!-- Node19 -->
<g id="Node000019" class="node">
<title>Node19</title>
<g id="a_Node000019"><a xlink:href="_t_scaler_8cxx.html" target="_top" xlink:title=" ">
<polygon fill="white" stroke="#666666" points="1539.88,-129.75 1473.62,-129.75 1473.62,-110.5 1539.88,-110.5 1539.88,-129.75"/>
<text text-anchor="middle" x="1506.75" y="-116.25" font-family="Helvetica,sans-Serif" font-size="10.00">TScaler.cxx</text>
</a>
</g>
</g>
<!-- Node1&#45;&gt;Node19 -->
<g id="edge25_Node000001_Node000019" class="edge">
<title>Node1&#45;&gt;Node19</title>
<g id="a_edge25_Node000001_Node000019"><a xlink:title=" ">
<path fill="none" stroke="#63b8ff" d="M875.16,-173.36C975.41,-170.44 1243.46,-160.17 1464.75,-129.75 1467.55,-129.36 1470.45,-128.9 1473.35,-128.4"/>
<polygon fill="#63b8ff" stroke="#63b8ff" points="875.19,-169.86 865.29,-173.64 875.38,-176.85 875.19,-169.86"/>
</a>
</g>
</g>
<!-- Node20 -->
<g id="Node000020" class="node">
<title>Node20</title>
<g id="a_Node000020"><a xlink:href="_t_scaler_queue_8h.html" target="_top" xlink:title=" ">
<polygon fill="white" stroke="#666666" points="642.62,-74.5 556.88,-74.5 556.88,-55.25 642.62,-55.25 642.62,-74.5"/>
<text text-anchor="middle" x="599.75" y="-61" font-family="Helvetica,sans-Serif" font-size="10.00">TScalerQueue.h</text>
</a>
</g>
</g>
<!-- Node1&#45;&gt;Node20 -->
<g id="edge26_Node000001_Node000020" class="edge">
<title>Node1&#45;&gt;Node20</title>
<g id="a_edge26_Node000001_Node000020"><a xlink:title=" ">
<path fill="none" stroke="#63b8ff" d="M804.9,-160.59C756.14,-138.08 660.71,-94.02 619.49,-74.99"/>
<polygon fill="#63b8ff" stroke="#63b8ff" points="803.2,-163.66 813.74,-164.68 806.13,-157.31 803.2,-163.66"/>
</a>
</g>
</g>
<!-- Node25 -->
<g id="Node000025" class="node">
<title>Node25</title>
<g id="a_Node000025"><a xlink:href="_t_tdr_data_parser_8h.html" target="_top" xlink:title=" ">
<polygon fill="white" stroke="#666666" points="1456,-129.75 1363.5,-129.75 1363.5,-110.5 1456,-110.5 1456,-129.75"/>
<text text-anchor="middle" x="1409.75" y="-116.25" font-family="Helvetica,sans-Serif" font-size="10.00">TTdrDataParser.h</text>
</a>
</g>
</g>
<!-- Node1&#45;&gt;Node25 -->
<g id="edge34_Node000001_Node000025" class="edge">
<title>Node1&#45;&gt;Node25</title>
<g id="a_edge34_Node000001_Node000025"><a xlink:title=" ">
<path fill="none" stroke="#63b8ff" d="M874.82,-170.66C978.13,-161.1 1253.14,-135.63 1363.23,-125.43"/>
<polygon fill="#63b8ff" stroke="#63b8ff" points="874.8,-167.15 865.17,-171.56 875.45,-174.12 874.8,-167.15"/>
</a>
</g>
</g>
<!-- Node4 -->
<g id="Node000004" class="node">
<title>Node4</title>
<g id="a_Node000004"><a xlink:href="_g_r_s_i_data_library_8cxx.html" target="_top" xlink:title=" ">
<polygon fill="white" stroke="#666666" points="433.75,-74.5 327.75,-74.5 327.75,-55.25 433.75,-55.25 433.75,-74.5"/>
<text text-anchor="middle" x="380.75" y="-61" font-family="Helvetica,sans-Serif" font-size="10.00">GRSIDataLibrary.cxx</text>
</a>
</g>
</g>
<!-- Node3&#45;&gt;Node4 -->
<g id="edge3_Node000003_Node000004" class="edge">
<title>Node3&#45;&gt;Node4</title>
<g id="a_edge3_Node000003_Node000004"><a xlink:title=" ">
<path fill="none" stroke="#63b8ff" d="M380.75,-98.88C380.75,-90.59 380.75,-81.42 380.75,-74.86"/>
<polygon fill="#63b8ff" stroke="#63b8ff" points="377.25,-98.82 380.75,-108.82 384.25,-98.82 377.25,-98.82"/>
</a>
</g>
</g>
<!-- Node5 -->
<g id="Node000005" class="node">
<title>Node5</title>
<g id="a_Node000005"><a xlink:href="_t_g_r_s_i_data_parser_8cxx.html" target="_top" xlink:title=" ">
<polygon fill="white" stroke="#666666" points="365.38,-19.25 254.12,-19.25 254.12,0 365.38,0 365.38,-19.25"/>
<text text-anchor="middle" x="309.75" y="-5.75" font-family="Helvetica,sans-Serif" font-size="10.00">TGRSIDataParser.cxx</text>
</a>
</g>
</g>
<!-- Node3&#45;&gt;Node5 -->
<g id="edge4_Node000003_Node000005" class="edge">
<title>Node3&#45;&gt;Node5</title>
<g id="a_edge4_Node000003_Node000005"><a xlink:title=" ">
<path fill="none" stroke="#63b8ff" d="M411.08,-104.86C432.88,-92.6 456.23,-73.99 442.75,-55.25 432.12,-40.47 388.55,-27.73 354.13,-19.69"/>
<polygon fill="#63b8ff" stroke="#63b8ff" points="409.55,-101.71 402.34,-109.47 412.82,-107.9 409.55,-101.71"/>
</a>
</g>
</g>
<!-- Node6 -->
<g id="Node000006" class="node">
<title>Node6</title>
<g id="a_Node000006"><a xlink:href="_t_g_r_s_i_data_parser_exception_8cxx.html" target="_top" xlink:title=" ">
<polygon fill="white" stroke="#666666" points="236.38,-19.25 83.12,-19.25 83.12,0 236.38,0 236.38,-19.25"/>
<text text-anchor="middle" x="159.75" y="-5.75" font-family="Helvetica,sans-Serif" font-size="10.00">TGRSIDataParserException.cxx</text>
</a>
</g>
</g>
<!-- Node3&#45;&gt;Node6 -->
<g id="edge5_Node000003_Node000006" class="edge">
<title>Node3&#45;&gt;Node6</title>
<g id="a_edge5_Node000003_Node000006"><a xlink:title=" ">
<path fill="none" stroke="#63b8ff" d="M318.03,-108.63C253.59,-97.55 161.94,-80.83 156.75,-74.5 143.93,-58.88 150.86,-33.18 155.93,-19.64"/>
<polygon fill="#63b8ff" stroke="#63b8ff" points="317.38,-112.07 327.83,-110.31 318.56,-105.17 317.38,-112.07"/>
</a>
</g>
</g>
<!-- Node7 -->
<g id="Node000007" class="node">
<title>Node7</title>
<g id="a_Node000007"><a xlink:href="_t_g_r_s_i_data_parser_exception_8h.html" target="_top" xlink:title=" ">
<polygon fill="white" stroke="#666666" points="309.88,-74.5 165.62,-74.5 165.62,-55.25 309.88,-55.25 309.88,-74.5"/>
<text text-anchor="middle" x="237.75" y="-61" font-family="Helvetica,sans-Serif" font-size="10.00">TGRSIDataParserException.h</text>
</a>
</g>
</g>
<!-- Node3&#45;&gt;Node7 -->
<g id="edge6_Node000003_Node000007" class="edge">
<title>Node3&#45;&gt;Node7</title>
<g id="a_edge6_Node000003_Node000007"><a xlink:title=" ">
<path fill="none" stroke="#63b8ff" d="M345.97,-106.17C320,-96.5 285.18,-83.54 262.13,-74.95"/>
<polygon fill="#63b8ff" stroke="#63b8ff" points="344.48,-109.35 355.07,-109.56 346.92,-102.79 344.48,-109.35"/>
</a>
</g>
</g>
<!-- Node8 -->
<g id="Node000008" class="node">
<title>Node8</title>
<g id="a_Node000008"><a xlink:href="offsetfix_8cxx.html" target="_top" xlink:title=" ">
<polygon fill="white" stroke="#666666" points="65.5,-19.25 0,-19.25 0,0 65.5,0 65.5,-19.25"/>
<text text-anchor="middle" x="32.75" y="-5.75" font-family="Helvetica,sans-Serif" font-size="10.00">offsetfix.cxx</text>
</a>
</g>
</g>
<!-- Node3&#45;&gt;Node8 -->
<g id="edge10_Node000003_Node000008" class="edge">
<title>Node3&#45;&gt;Node8</title>
<g id="a_edge10_Node000003_Node000008"><a xlink:title=" ">
<path fill="none" stroke="#63b8ff" d="M317.83,-109.55C259.31,-100.22 176.64,-85.81 145.75,-74.5 106.81,-60.24 65.47,-33.48 45.3,-19.56"/>
<polygon fill="#63b8ff" stroke="#63b8ff" points="317.27,-113.01 327.7,-111.11 318.37,-106.09 317.27,-113.01"/>
</a>
</g>
</g>
<!-- Node7&#45;&gt;Node5 -->
<g id="edge7_Node000007_Node000005" class="edge">
<title>Node7&#45;&gt;Node5</title>
<g id="a_edge7_Node000007_Node000005"><a xlink:title=" ">
<path fill="none" stroke="#63b8ff" d="M258.92,-48.22C271.56,-38.87 287.16,-27.33 297.72,-19.52"/>
<polygon fill="#63b8ff" stroke="#63b8ff" points="257.14,-45.18 251.18,-53.94 261.3,-50.81 257.14,-45.18"/>
</a>
</g>
</g>
<!-- Node7&#45;&gt;Node6 -->
<g id="edge8_Node000007_Node000006" class="edge">
<title>Node7&#45;&gt;Node6</title>
<g id="a_edge8_Node000007_Node000006"><a xlink:title=" ">
<path fill="none" stroke="#63b8ff" d="M215.28,-48.53C201.6,-39.2 184.61,-27.6 173.05,-19.7"/>
<polygon fill="#63b8ff" stroke="#63b8ff" points="213.04,-51.24 223.27,-53.99 216.98,-45.46 213.04,-51.24"/>
</a>
</g>
</g>
<!-- Node7&#45;&gt;Node8 -->
<g id="edge9_Node000007_Node000008" class="edge">
<title>Node7&#45;&gt;Node8</title>
<g id="a_edge9_Node000007_Node000008"><a xlink:title=" ">
<path fill="none" stroke="#63b8ff" d="M192.14,-52.03C153.92,-42.1 100.26,-28.16 65.99,-19.26"/>
<polygon fill="#63b8ff" stroke="#63b8ff" points="190.95,-55.33 201.51,-54.46 192.71,-48.56 190.95,-55.33"/>
</a>
</g>
</g>
<!-- Node10 -->
<g id="Node000010" class="node">
<title>Node10</title>
<g id="a_Node000010"><a xlink:href="_h_i_l_data_library_8cxx.html" target="_top" xlink:title=" ">
<polygon fill="white" stroke="#666666" points="952,-74.5 853.5,-74.5 853.5,-55.25 952,-55.25 952,-74.5"/>
<text text-anchor="middle" x="902.75" y="-61" font-family="Helvetica,sans-Serif" font-size="10.00">HILDataLibrary.cxx</text>
</a>
</g>
</g>
<!-- Node9&#45;&gt;Node10 -->
<g id="edge12_Node000009_Node000010" class="edge">
<title>Node9&#45;&gt;Node10</title>
<g id="a_edge12_Node000009_Node000010"><a xlink:title=" ">
<path fill="none" stroke="#63b8ff" d="M855.1,-103.19C866.97,-93.89 881.51,-82.51 891.39,-74.77"/>
<polygon fill="#63b8ff" stroke="#63b8ff" points="853.19,-100.24 847.48,-109.16 857.51,-105.75 853.19,-100.24"/>
</a>
</g>
</g>
<!-- Node11 -->
<g id="Node000011" class="node">
<title>Node11</title>
<g id="a_Node000011"><a xlink:href="_t_h_i_l_data_parser_8cxx.html" target="_top" xlink:title=" ">
<polygon fill="white" stroke="#666666" points="826.62,-19.25 722.88,-19.25 722.88,0 826.62,0 826.62,-19.25"/>
<text text-anchor="middle" x="774.75" y="-5.75" font-family="Helvetica,sans-Serif" font-size="10.00">THILDataParser.cxx</text>
</a>
</g>
</g>
<!-- Node9&#45;&gt;Node11 -->
<g id="edge13_Node000009_Node000011" class="edge">
<title>Node9&#45;&gt;Node11</title>
<g id="a_edge13_Node000009_Node000011"><a xlink:title=" ">
<path fill="none" stroke="#63b8ff" d="M775.82,-116.94C744.91,-112.43 709.47,-101.2 689.75,-74.5 671.6,-49.93 712.44,-30.43 743.59,-19.72"/>
<polygon fill="#63b8ff" stroke="#63b8ff" points="775.11,-120.38 785.46,-118.14 775.97,-113.44 775.11,-120.38"/>
</a>
</g>
</g>
<!-- Node12 -->
<g id="Node000012" class="node">
<title>Node12</title>
<g id="a_Node000012"><a xlink:href="_t_h_i_l_data_parser_exception_8cxx.html" target="_top" xlink:title=" ">
<polygon fill="white" stroke="#666666" points="990.62,-19.25 844.88,-19.25 844.88,0 990.62,0 990.62,-19.25"/>
<text text-anchor="middle" x="917.75" y="-5.75" font-family="Helvetica,sans-Serif" font-size="10.00">THILDataParserException.cxx</text>
</a>
</g>
</g>
<!-- Node9&#45;&gt;Node12 -->
<g id="edge14_Node000009_Node000012" class="edge">
<title>Node9&#45;&gt;Node12</title>
<g id="a_edge14_Node000009_Node000012"><a xlink:title=" ">
<path fill="none" stroke="#63b8ff" d="M893.31,-113.26C918.36,-107.51 945.35,-96.29 960.75,-74.5 974.41,-55.18 948.62,-32.04 931.41,-19.6"/>
<polygon fill="#63b8ff" stroke="#63b8ff" points="892.95,-109.76 883.84,-115.17 894.33,-116.62 892.95,-109.76"/>
</a>
</g>
</g>
<!-- Node13 -->
<g id="Node000013" class="node">
<title>Node13</title>
<g id="a_Node000013"><a xlink:href="_t_h_i_l_data_parser_exception_8h.html" target="_top" xlink:title=" ">
<polygon fill="white" stroke="#666666" points="835.12,-74.5 698.38,-74.5 698.38,-55.25 835.12,-55.25 835.12,-74.5"/>
<text text-anchor="middle" x="766.75" y="-61" font-family="Helvetica,sans-Serif" font-size="10.00">THILDataParserException.h</text>
</a>
</g>
</g>
<!-- Node9&#45;&gt;Node13 -->
<g id="edge15_Node000009_Node000013" class="edge">
<title>Node9&#45;&gt;Node13</title>
<g id="a_edge15_Node000009_Node000013"><a xlink:title=" ">
<path fill="none" stroke="#63b8ff" d="M814.4,-103.19C802.53,-93.89 787.99,-82.51 778.11,-74.77"/>
<polygon fill="#63b8ff" stroke="#63b8ff" points="811.99,-105.75 822.02,-109.16 816.31,-100.24 811.99,-105.75"/>
</a>
</g>
</g>
<!-- Node13&#45;&gt;Node11 -->
<g id="edge16_Node000013_Node000011" class="edge">
<title>Node13&#45;&gt;Node11</title>
<g id="a_edge16_Node000013_Node000011"><a xlink:title=" ">
<path fill="none" stroke="#63b8ff" d="M769.75,-43.92C771,-35.55 772.4,-26.25 773.4,-19.61"/>
<polygon fill="#63b8ff" stroke="#63b8ff" points="766.32,-43.18 768.3,-53.59 773.24,-44.22 766.32,-43.18"/>
</a>
</g>
</g>
<!-- Node13&#45;&gt;Node12 -->
<g id="edge17_Node000013_Node000012" class="edge">
<title>Node13&#45;&gt;Node12</title>
<g id="a_edge17_Node000013_Node000012"><a xlink:title=" ">
<path fill="none" stroke="#63b8ff" d="M803.11,-51.05C830.56,-41.37 867.56,-28.32 892.01,-19.7"/>
<polygon fill="#63b8ff" stroke="#63b8ff" points="802.06,-47.71 793.79,-54.34 804.39,-54.31 802.06,-47.71"/>
</a>
</g>
</g>
<!-- Node15 -->
<g id="Node000015" class="node">
<title>Node15</title>
<g id="a_Node000015"><a xlink:href="_i_l_l_data_library_8cxx.html" target="_top" xlink:title=" ">
<polygon fill="white" stroke="#666666" points="1296.25,-74.5 1199.25,-74.5 1199.25,-55.25 1296.25,-55.25 1296.25,-74.5"/>
<text text-anchor="middle" x="1247.75" y="-61" font-family="Helvetica,sans-Serif" font-size="10.00">ILLDataLibrary.cxx</text>
</a>
</g>
</g>
<!-- Node14&#45;&gt;Node15 -->
<g id="edge19_Node000014_Node000015" class="edge">
<title>Node14&#45;&gt;Node15</title>
<g id="a_edge19_Node000014_Node000015"><a xlink:title=" ">
<path fill="none" stroke="#63b8ff" d="M1147,-105.91C1171.25,-96.27 1203.5,-83.46 1224.91,-74.95"/>
<polygon fill="#63b8ff" stroke="#63b8ff" points="1145.89,-102.59 1137.89,-109.53 1148.47,-109.09 1145.89,-102.59"/>
</a>
</g>
</g>
<!-- Node16 -->
<g id="Node000016" class="node">
<title>Node16</title>
<g id="a_Node000016"><a xlink:href="_t_i_l_l_data_parser_8cxx.html" target="_top" xlink:title=" ">
<polygon fill="white" stroke="#666666" points="1110.88,-19.25 1008.62,-19.25 1008.62,0 1110.88,0 1110.88,-19.25"/>
<text text-anchor="middle" x="1059.75" y="-5.75" font-family="Helvetica,sans-Serif" font-size="10.00">TILLDataParser.cxx</text>
</a>
</g>
</g>
<!-- Node14&#45;&gt;Node16 -->
<g id="edge20_Node000014_Node000016" class="edge">
<title>Node14&#45;&gt;Node16</title>
<g id="a_edge20_Node000014_Node000016"><a xlink:title=" ">
<path fill="none" stroke="#63b8ff" d="M1073.61,-105.62C1059.37,-98.67 1044.88,-88.61 1036.75,-74.5 1026.28,-56.32 1041.49,-32.54 1051.73,-19.74"/>
<polygon fill="#63b8ff" stroke="#63b8ff" points="1071.89,-108.68 1082.45,-109.53 1074.72,-102.28 1071.89,-108.68"/>
</a>
</g>
</g>
<!-- Node17 -->
<g id="Node000017" class="node">
<title>Node17</title>
<g id="a_Node000017"><a xlink:href="_t_i_l_l_data_parser_exception_8cxx.html" target="_top" xlink:title=" ">
<polygon fill="white" stroke="#666666" points="1286.88,-19.25 1142.62,-19.25 1142.62,0 1286.88,0 1286.88,-19.25"/>
<text text-anchor="middle" x="1214.75" y="-5.75" font-family="Helvetica,sans-Serif" font-size="10.00">TILLDataParserException.cxx</text>
</a>
</g>
</g>
<!-- Node14&#45;&gt;Node17 -->
<g id="edge21_Node000014_Node000017" class="edge">
<title>Node14&#45;&gt;Node17</title>
<g id="a_edge21_Node000014_Node000017"><a xlink:title=" ">
<path fill="none" stroke="#63b8ff" d="M1172.19,-113.46C1222.41,-107.24 1289.26,-95.26 1305.75,-74.5 1325.5,-49.64 1282.29,-30.35 1248.88,-19.74"/>
<polygon fill="#63b8ff" stroke="#63b8ff" points="1171.81,-109.98 1162.29,-114.63 1172.63,-116.93 1171.81,-109.98"/>
</a>
</g>
</g>
<!-- Node18 -->
<g id="Node000018" class="node">
<title>Node18</title>
<g id="a_Node000018"><a xlink:href="_t_i_l_l_data_parser_exception_8h.html" target="_top" xlink:title=" ">
<polygon fill="white" stroke="#666666" points="1181.38,-74.5 1046.12,-74.5 1046.12,-55.25 1181.38,-55.25 1181.38,-74.5"/>
<text text-anchor="middle" x="1113.75" y="-61" font-family="Helvetica,sans-Serif" font-size="10.00">TILLDataParserException.h</text>
</a>
</g>
</g>
<!-- Node14&#45;&gt;Node18 -->
<g id="edge22_Node000014_Node000018" class="edge">
<title>Node14&#45;&gt;Node18</title>
<g id="a_edge22_Node000014_Node000018"><a xlink:title=" ">
<path fill="none" stroke="#63b8ff" d="M1113.75,-98.88C1113.75,-90.59 1113.75,-81.42 1113.75,-74.86"/>
<polygon fill="#63b8ff" stroke="#63b8ff" points="1110.25,-98.82 1113.75,-108.82 1117.25,-98.82 1110.25,-98.82"/>
</a>
</g>
</g>
<!-- Node18&#45;&gt;Node16 -->
<g id="edge23_Node000018_Node000016" class="edge">
<title>Node18&#45;&gt;Node16</title>
<g id="a_edge23_Node000018_Node000016"><a xlink:title=" ">
<path fill="none" stroke="#63b8ff" d="M1096.71,-47.07C1087.49,-37.98 1076.46,-27.1 1068.86,-19.61"/>
<polygon fill="#63b8ff" stroke="#63b8ff" points="1094.18,-49.49 1103.76,-54.02 1099.09,-44.51 1094.18,-49.49"/>
</a>
</g>
</g>
<!-- Node18&#45;&gt;Node17 -->
<g id="edge24_Node000018_Node000017" class="edge">
<title>Node18&#45;&gt;Node17</title>
<g id="a_edge24_Node000018_Node000017"><a xlink:title=" ">
<path fill="none" stroke="#63b8ff" d="M1141.06,-49.48C1159.05,-39.99 1182.05,-27.86 1197.53,-19.7"/>
<polygon fill="#63b8ff" stroke="#63b8ff" points="1139.44,-46.38 1132.22,-54.14 1142.7,-52.57 1139.44,-46.38"/>
</a>
</g>
</g>
<!-- Node20&#45;&gt;Node5 -->
<g id="edge29_Node000020_Node000005" class="edge">
<title>Node20&#45;&gt;Node5</title>
<g id="a_edge29_Node000020_Node000005"><a xlink:title=" ">
<path fill="none" stroke="#63b8ff" d="M545.35,-53.89C491.93,-44.08 411.14,-29.24 359.42,-19.74"/>
<polygon fill="#63b8ff" stroke="#63b8ff" points="544.69,-57.32 555.16,-55.69 545.96,-50.44 544.69,-57.32"/>
</a>
</g>
</g>
<!-- Node20&#45;&gt;Node11 -->
<g id="edge30_Node000020_Node000011" class="edge">
<title>Node20&#45;&gt;Node11</title>
<g id="a_edge30_Node000020_Node000011"><a xlink:title=" ">
<path fill="none" stroke="#63b8ff" d="M640.2,-51.57C672.18,-41.84 716.08,-28.48 744.92,-19.7"/>
<polygon fill="#63b8ff" stroke="#63b8ff" points="639.43,-48.14 630.88,-54.4 641.47,-54.84 639.43,-48.14"/>
</a>
</g>
</g>
<!-- Node20&#45;&gt;Node16 -->
<g id="edge31_Node000020_Node000016" class="edge">
<title>Node20&#45;&gt;Node16</title>
<g id="a_edge31_Node000020_Node000016"><a xlink:title=" ">
<path fill="none" stroke="#63b8ff" d="M654.33,-58.34C731.4,-50.4 876.46,-34.98 999.75,-19.25 1002.57,-18.89 1005.46,-18.51 1008.38,-18.12"/>
<polygon fill="#63b8ff" stroke="#63b8ff" points="654.11,-54.84 644.52,-59.35 654.82,-61.81 654.11,-54.84"/>
</a>
</g>
</g>
<!-- Node21 -->
<g id="Node000021" class="node">
<title>Node21</title>
<g id="a_Node000021"><a xlink:href="_t_data_parser_8cxx.html" target="_top" xlink:title=" ">
<polygon fill="white" stroke="#666666" points="704.38,-19.25 617.12,-19.25 617.12,0 704.38,0 704.38,-19.25"/>
<text text-anchor="middle" x="660.75" y="-5.75" font-family="Helvetica,sans-Serif" font-size="10.00">TDataParser.cxx</text>
</a>
</g>
</g>
<!-- Node20&#45;&gt;Node21 -->
<g id="edge27_Node000020_Node000021" class="edge">
<title>Node20&#45;&gt;Node21</title>
<g id="a_edge27_Node000020_Node000021"><a xlink:title=" ">
<path fill="none" stroke="#63b8ff" d="M618.64,-47.39C629.17,-38.19 641.87,-27.1 650.56,-19.52"/>
<polygon fill="#63b8ff" stroke="#63b8ff" points="616.47,-44.63 611.24,-53.85 621.07,-49.91 616.47,-44.63"/>
</a>
</g>
</g>
<!-- Node22 -->
<g id="Node000022" class="node">
<title>Node22</title>
<g id="a_Node000022"><a xlink:href="_t_frag_write_loop_8cxx.html" target="_top" xlink:title=" ">
<polygon fill="white" stroke="#666666" points="485.88,-19.25 383.62,-19.25 383.62,0 485.88,0 485.88,-19.25"/>
<text text-anchor="middle" x="434.75" y="-5.75" font-family="Helvetica,sans-Serif" font-size="10.00">TFragWriteLoop.cxx</text>
</a>
</g>
</g>
<!-- Node20&#45;&gt;Node22 -->
<g id="edge28_Node000020_Node000022" class="edge">
<title>Node20&#45;&gt;Node22</title>
<g id="a_edge28_Node000020_Node000022"><a xlink:title=" ">
<path fill="none" stroke="#63b8ff" d="M560.81,-51.31C530.74,-41.6 489.83,-28.4 462.88,-19.7"/>
<polygon fill="#63b8ff" stroke="#63b8ff" points="559.73,-54.64 570.32,-54.38 561.88,-47.97 559.73,-54.64"/>
</a>
</g>
</g>
<!-- Node23 -->
<g id="Node000023" class="node">
<title>Node23</title>
<g id="a_Node000023"><a xlink:href="_t_scaler_queue_8cxx.html" target="_top" xlink:title=" ">
<polygon fill="white" stroke="#666666" points="599.12,-19.25 504.38,-19.25 504.38,0 599.12,0 599.12,-19.25"/>
<text text-anchor="middle" x="551.75" y="-5.75" font-family="Helvetica,sans-Serif" font-size="10.00">TScalerQueue.cxx</text>
</a>
</g>
</g>
<!-- Node20&#45;&gt;Node23 -->
<g id="edge32_Node000020_Node000023" class="edge">
<title>Node20&#45;&gt;Node23</title>
<g id="a_edge32_Node000020_Node000023"><a xlink:title=" ">
<path fill="none" stroke="#63b8ff" d="M584.35,-46.79C576.2,-37.75 566.53,-27.02 559.85,-19.61"/>
<polygon fill="#63b8ff" stroke="#63b8ff" points="581.52,-48.87 590.81,-53.96 586.71,-44.19 581.52,-48.87"/>
</a>
</g>
</g>
<!-- Node24 -->
<g id="Node000024" class="node">
<title>Node24</title>
<g id="a_Node000024"><a xlink:href="_t_tdr_data_parser_8cxx.html" target="_top" xlink:title=" ">
<polygon fill="white" stroke="#666666" points="1413.5,-19.25 1312,-19.25 1312,0 1413.5,0 1413.5,-19.25"/>
<text text-anchor="middle" x="1362.75" y="-5.75" font-family="Helvetica,sans-Serif" font-size="10.00">TTdrDataParser.cxx</text>
</a>
</g>
</g>
<!-- Node20&#45;&gt;Node24 -->
<g id="edge33_Node000020_Node000024" class="edge">
<title>Node20&#45;&gt;Node24</title>
<g id="a_edge33_Node000020_Node000024"><a xlink:title=" ">
<path fill="none" stroke="#63b8ff" d="M653.85,-58.37C665.67,-57.26 678.13,-56.15 689.75,-55.25 958.75,-34.38 1027.12,-44.49 1295.75,-19.25 1300.89,-18.77 1306.24,-18.2 1311.58,-17.58"/>
<polygon fill="#63b8ff" stroke="#63b8ff" points="653.88,-54.85 644.26,-59.29 654.55,-61.82 653.88,-54.85"/>
</a>
</g>
</g>
<!-- Node25&#45;&gt;Node24 -->
<g id="edge35_Node000025_Node000024" class="edge">
<title>Node25&#45;&gt;Node24</title>
<g id="a_edge35_Node000025_Node000024"><a xlink:title=" ">
<path fill="none" stroke="#63b8ff" d="M1396.84,-101.05C1391.63,-93.17 1385.89,-83.66 1381.75,-74.5 1373.26,-55.74 1367.39,-32.18 1364.6,-19.58"/>
<polygon fill="#63b8ff" stroke="#63b8ff" points="1393.79,-102.8 1402.34,-109.05 1399.56,-98.83 1393.79,-102.8"/>
</a>
</g>
</g>
<!-- Node26 -->
<g id="Node000026" class="node">
<title>Node26</title>
<g id="a_Node000026"><a xlink:href="_t_tdr_data_parser_exception_8cxx.html" target="_top" xlink:title=" ">
<polygon fill="white" stroke="#666666" points="1600.5,-19.25 1457,-19.25 1457,0 1600.5,0 1600.5,-19.25"/>
<text text-anchor="middle" x="1528.75" y="-5.75" font-family="Helvetica,sans-Serif" font-size="10.00">TTdrDataParserException.cxx</text>
</a>
</g>
</g>
<!-- Node25&#45;&gt;Node26 -->
<g id="edge36_Node000025_Node000026" class="edge">
<title>Node25&#45;&gt;Node26</title>
<g id="a_edge36_Node000025_Node000026"><a xlink:title=" ">
<path fill="none" stroke="#63b8ff" d="M1460.47,-107.18C1490.68,-98.92 1524.84,-87.17 1533.75,-74.5 1545.39,-57.94 1537.95,-32.64 1532.68,-19.4"/>
<polygon fill="#63b8ff" stroke="#63b8ff" points="1459.8,-103.73 1451.03,-109.67 1461.59,-110.5 1459.8,-103.73"/>
</a>
</g>
</g>
<!-- Node27 -->
<g id="Node000027" class="node">
<title>Node27</title>
<g id="a_Node000027"><a xlink:href="_t_tdr_data_parser_exception_8h.html" target="_top" xlink:title=" ">
<polygon fill="white" stroke="#666666" points="1525,-74.5 1390.5,-74.5 1390.5,-55.25 1525,-55.25 1525,-74.5"/>
<text text-anchor="middle" x="1457.75" y="-61" font-family="Helvetica,sans-Serif" font-size="10.00">TTdrDataParserException.h</text>
</a>
</g>
</g>
<!-- Node25&#45;&gt;Node27 -->
<g id="edge37_Node000025_Node000027" class="edge">
<title>Node25&#45;&gt;Node27</title>
<g id="a_edge37_Node000025_Node000027"><a xlink:title=" ">
<path fill="none" stroke="#63b8ff" d="M1425.15,-102.04C1433.3,-93 1442.97,-82.27 1449.65,-74.86"/>
<polygon fill="#63b8ff" stroke="#63b8ff" points="1422.79,-99.44 1418.69,-109.21 1427.98,-104.12 1422.79,-99.44"/>
</a>
</g>
</g>
<!-- Node28 -->
<g id="Node000028" class="node">
<title>Node28</title>
<g id="a_Node000028"><a xlink:href="i_themba_data_library_8cxx.html" target="_top" xlink:title=" ">
<polygon fill="white" stroke="#666666" points="1700.5,-74.5 1581,-74.5 1581,-55.25 1700.5,-55.25 1700.5,-74.5"/>
<text text-anchor="middle" x="1640.75" y="-61" font-family="Helvetica,sans-Serif" font-size="10.00">iThembaDataLibrary.cxx</text>
</a>
</g>
</g>
<!-- Node25&#45;&gt;Node28 -->
<g id="edge40_Node000025_Node000028" class="edge">
<title>Node25&#45;&gt;Node28</title>
<g id="a_edge40_Node000025_Node000028"><a xlink:title=" ">
<path fill="none" stroke="#63b8ff" d="M1460.41,-107.45C1502.85,-97.66 1562.57,-83.9 1601.46,-74.93"/>
<polygon fill="#63b8ff" stroke="#63b8ff" points="1459.63,-104.03 1450.67,-109.69 1461.2,-110.86 1459.63,-104.03"/>
</a>
</g>
</g>
<!-- Node27&#45;&gt;Node24 -->
<g id="edge38_Node000027_Node000024" class="edge">
<title>Node27&#45;&gt;Node24</title>
<g id="a_edge38_Node000027_Node000024"><a xlink:title=" ">
<path fill="none" stroke="#63b8ff" d="M1431.82,-49.34C1414.94,-39.88 1393.44,-27.83 1378.94,-19.7"/>
<polygon fill="#63b8ff" stroke="#63b8ff" points="1429.88,-52.27 1440.31,-54.1 1433.3,-46.16 1429.88,-52.27"/>
</a>
</g>
</g>
<!-- Node27&#45;&gt;Node26 -->
<g id="edge39_Node000027_Node000026" class="edge">
<title>Node27&#45;&gt;Node26</title>
<g id="a_edge39_Node000027_Node000026"><a xlink:title=" ">
<path fill="none" stroke="#63b8ff" d="M1479,-47.94C1491.39,-38.64 1506.57,-27.26 1516.88,-19.52"/>
<polygon fill="#63b8ff" stroke="#63b8ff" points="1476.91,-45.13 1471.01,-53.93 1481.11,-50.73 1476.91,-45.13"/>
</a>
</g>
</g>
</g>
</svg>

<g id="navigator" transform="translate(0 0)" fill="#404254">
  <rect fill="#f2f5e9" fill-opacity="0.5" stroke="#606060" stroke-width=".5" x="0" y="0" width="60" height="60"/>
  <use id="zoomplus" xlink:href="#zoomPlus" x="17" y="9" onmousedown="handleZoom(evt,'in')"/>
  <use id="zoomminus" xlink:href="#zoomMin" x="42" y="9" onmousedown="handleZoom(evt,'out')"/>
  <use id="reset" xlink:href="#resetDef" x="30" y="36" onmousedown="handleReset()"/>
   <use id="arrowup" xlink:href="#arrowUp" x="0" y="0" onmousedown="handlePan(0,-1)"/>
  <use id="arrowright" xlink:href="#arrowRight" x="0" y="0" onmousedown="handlePan(1,0)"/>
  <use id="arrowdown" xlink:href="#arrowDown" x="0" y="0" onmousedown="handlePan(0,1)"/>
  <use id="arrowleft" xlink:href="#arrowLeft" x="0" y="0" onmousedown="handlePan(-1,0)"/>
</g>
<svg viewBox="0 0 15 15" width="100%" height="30px" preserveAspectRatio="xMaxYMin meet">
 <g id="arrow_out" transform="scale(0.3 0.3)">
  <a xlink:href="_t_scaler_8h__dep__incl_org.svg" target="_base">
   <rect id="button" ry="5" rx="5" y="6" x="6" height="38" width="38"
        fill="#f2f5e9" fill-opacity="0.5" stroke="#606060" stroke-width="1.0"/>
   <path id="arrow"
     d="M 11.500037,31.436501 C 11.940474,20.09759 22.043105,11.32322 32.158766,21.979434 L 37.068811,17.246167 C 37.068811,17.246167 37.088388,32 37.088388,32 L 22.160133,31.978069 C 22.160133,31.978069 26.997745,27.140456 26.997745,27.140456 C 18.528582,18.264221 13.291696,25.230495 11.500037,31.436501 z"
     style="fill:#404040;"/>
  </a>
 </g>
</svg>

<style type='text/css'>
<![CDATA[
[data-mouse-over-selected='false'] { opacity: 0.7; }
[data-mouse-over-selected='true']  { opacity: 1.0; }
]]>
</style>
<script type="application/ecmascript"><![CDATA[
document.addEventListener('DOMContentLoaded', (event) => {
  highlightEdges();
  highlightAdjacentNodes();
});
]]></script>
</svg>
