<?xml version="1.0" encoding="UTF-8" standalone="no"?>
<!DOCTYPE svg PUBLIC "-//W3C//DTD SVG 1.1//EN"
 "http://www.w3.org/Graphics/SVG/1.1/DTD/svg11.dtd">
<!-- Generated by graphviz version 12.2.0 (20241103.1931)
 -->
<!-- Title: TSiLiHit.h Pages: 1 -->
<svg width="1496pt" height="414pt"
 viewBox="0.00 0.00 1495.75 414.00" xmlns="http://www.w3.org/2000/svg" xmlns:xlink="http://www.w3.org/1999/xlink">
<g id="graph0" class="graph" transform="scale(1 1) rotate(0) translate(4 410)">
<title>TSiLiHit.h</title>
<!-- Node1 -->
<g id="Node000001" class="node">
<title>Node1</title>
<g id="a_Node000001"><a xlink:title=" ">
<polygon fill="#999999" stroke="#666666" points="523.75,-406 464.25,-406 464.25,-386.75 523.75,-386.75 523.75,-406"/>
<text text-anchor="middle" x="494" y="-392.5" font-family="Helvetica,sans-Serif" font-size="10.00">TSiLiHit.h</text>
</a>
</g>
</g>
<!-- Node2 -->
<g id="Node000002" class="node">
<title>Node2</title>
<g id="a_Node000002"><a xlink:title=" ">
<polygon fill="#e0e0e0" stroke="#999999" points="59.12,-19.25 16.88,-19.25 16.88,0 59.12,0 59.12,-19.25"/>
<text text-anchor="middle" x="38" y="-5.75" font-family="Helvetica,sans-Serif" font-size="10.00">cstdio</text>
</a>
</g>
</g>
<!-- Node1&#45;&gt;Node2 -->
<g id="edge1_Node000001_Node000002" class="edge">
<title>Node1&#45;&gt;Node2</title>
<g id="a_edge1_Node000001_Node000002"><a xlink:title=" ">
<path fill="none" stroke="#63b8ff" d="M463.84,-395.23C356.59,-393.92 0,-382.37 0,-286.88 0,-286.88 0,-286.88 0,-119.12 0,-86.13 15.84,-50.51 27.07,-29.41"/>
<polygon fill="#63b8ff" stroke="#63b8ff" points="30.02,-31.3 31.82,-20.86 23.9,-27.9 30.02,-31.3"/>
</a>
</g>
</g>
<!-- Node3 -->
<g id="Node000003" class="node">
<title>Node3</title>
<g id="a_Node000003"><a xlink:title=" ">
<polygon fill="#e0e0e0" stroke="#999999" points="871.25,-129.75 832.75,-129.75 832.75,-110.5 871.25,-110.5 871.25,-129.75"/>
<text text-anchor="middle" x="852" y="-116.25" font-family="Helvetica,sans-Serif" font-size="10.00">utility</text>
</a>
</g>
</g>
<!-- Node1&#45;&gt;Node3 -->
<g id="edge2_Node000001_Node000003" class="edge">
<title>Node1&#45;&gt;Node3</title>
<g id="a_edge2_Node000001_Node000003"><a xlink:title=" ">
<path fill="none" stroke="#63b8ff" d="M524.23,-388.48C568.82,-376.3 647,-346.47 647,-286.88 647,-286.88 647,-286.88 647,-229.62 647,-190.63 764.31,-148.54 821.45,-130.36"/>
<polygon fill="#63b8ff" stroke="#63b8ff" points="822.4,-133.73 830.9,-127.4 820.31,-127.05 822.4,-133.73"/>
</a>
</g>
</g>
<!-- Node4 -->
<g id="Node000004" class="node">
<title>Node4</title>
<g id="a_Node000004"><a xlink:title=" ">
<polygon fill="#e0e0e0" stroke="#999999" points="201.88,-129.75 146.12,-129.75 146.12,-110.5 201.88,-110.5 201.88,-129.75"/>
<text text-anchor="middle" x="174" y="-116.25" font-family="Helvetica,sans-Serif" font-size="10.00">TGraph.h</text>
</a>
</g>
</g>
<!-- Node1&#45;&gt;Node4 -->
<g id="edge3_Node000001_Node000004" class="edge">
<title>Node1&#45;&gt;Node4</title>
<g id="a_edge3_Node000001_Node000004"><a xlink:title=" ">
<path fill="none" stroke="#63b8ff" d="M487.49,-386.36C472.24,-365.55 432.39,-313.17 392,-276.25 327.84,-217.6 240.99,-161.8 198.91,-136.03"/>
<polygon fill="#63b8ff" stroke="#63b8ff" points="200.87,-133.13 190.51,-130.92 197.24,-139.11 200.87,-133.13"/>
</a>
</g>
</g>
<!-- Node5 -->
<g id="Node000005" class="node">
<title>Node5</title>
<g id="a_Node000005"><a xlink:href="_t_fragment_8h.html" target="_top" xlink:title=" ">
<polygon fill="white" stroke="#666666" points="611.38,-295.5 540.62,-295.5 540.62,-276.25 611.38,-276.25 611.38,-295.5"/>
<text text-anchor="middle" x="576" y="-282" font-family="Helvetica,sans-Serif" font-size="10.00">TFragment.h</text>
</a>
</g>
</g>
<!-- Node1&#45;&gt;Node5 -->
<g id="edge4_Node000001_Node000005" class="edge">
<title>Node1&#45;&gt;Node5</title>
<g id="a_edge4_Node000001_Node000005"><a xlink:title=" ">
<path fill="none" stroke="#63b8ff" d="M500.71,-386.5C514.16,-368.69 544.67,-328.33 562.44,-304.81"/>
<polygon fill="#63b8ff" stroke="#63b8ff" points="565.05,-307.17 568.28,-297.08 559.46,-302.95 565.05,-307.17"/>
</a>
</g>
</g>
<!-- Node6 -->
<g id="Node000006" class="node">
<title>Node6</title>
<g id="a_Node000006"><a xlink:href="_t_detector_hit_8h.html" target="_top" xlink:title=" ">
<polygon fill="white" stroke="#666666" points="1184.5,-240.25 1105.5,-240.25 1105.5,-221 1184.5,-221 1184.5,-240.25"/>
<text text-anchor="middle" x="1145" y="-226.75" font-family="Helvetica,sans-Serif" font-size="10.00">TDetectorHit.h</text>
</a>
</g>
</g>
<!-- Node1&#45;&gt;Node6 -->
<g id="edge62_Node000001_Node000006" class="edge">
<title>Node1&#45;&gt;Node6</title>
<g id="a_edge62_Node000001_Node000006"><a xlink:title=" ">
<path fill="none" stroke="#63b8ff" d="M524.09,-387.81C627.98,-361.67 972.11,-275.11 1098.18,-243.4"/>
<polygon fill="#63b8ff" stroke="#63b8ff" points="1098.68,-246.89 1107.52,-241.05 1096.97,-240.1 1098.68,-246.89"/>
</a>
</g>
</g>
<!-- Node8 -->
<g id="Node000008" class="node">
<title>Node8</title>
<g id="a_Node000008"><a xlink:href="_t_channel_8h.html" target="_top" xlink:title=" ">
<polygon fill="white" stroke="#666666" points="612.38,-185 547.62,-185 547.62,-165.75 612.38,-165.75 612.38,-185"/>
<text text-anchor="middle" x="580" y="-171.5" font-family="Helvetica,sans-Serif" font-size="10.00">TChannel.h</text>
</a>
</g>
</g>
<!-- Node1&#45;&gt;Node8 -->
<g id="edge61_Node000001_Node000008" class="edge">
<title>Node1&#45;&gt;Node8</title>
<g id="a_edge61_Node000001_Node000008"><a xlink:title=" ">
<path fill="none" stroke="#63b8ff" d="M496.02,-386.33C502.11,-359.94 521.68,-281.12 551,-221 555.45,-211.88 561.42,-202.37 566.79,-194.48"/>
<polygon fill="#63b8ff" stroke="#63b8ff" points="569.54,-196.65 572.45,-186.46 563.82,-192.61 569.54,-196.65"/>
</a>
</g>
</g>
<!-- Node45 -->
<g id="Node000045" class="node">
<title>Node45</title>
<g id="a_Node000045"><a xlink:href="_t_pulse_analyzer_8h.html" target="_top" xlink:title=" ">
<polygon fill="white" stroke="#666666" points="316.5,-350.75 225.5,-350.75 225.5,-331.5 316.5,-331.5 316.5,-350.75"/>
<text text-anchor="middle" x="271" y="-337.25" font-family="Helvetica,sans-Serif" font-size="10.00">TPulseAnalyzer.h</text>
</a>
</g>
</g>
<!-- Node1&#45;&gt;Node45 -->
<g id="edge63_Node000001_Node000045" class="edge">
<title>Node1&#45;&gt;Node45</title>
<g id="a_edge63_Node000001_Node000045"><a xlink:title=" ">
<path fill="none" stroke="#63b8ff" d="M463.93,-388.19C427.07,-379.39 364.11,-364.36 320.18,-353.87"/>
<polygon fill="#63b8ff" stroke="#63b8ff" points="321.18,-350.51 310.64,-351.59 319.55,-357.32 321.18,-350.51"/>
</a>
</g>
</g>
<!-- Node5&#45;&gt;Node6 -->
<g id="edge5_Node000005_Node000006" class="edge">
<title>Node5&#45;&gt;Node6</title>
<g id="a_edge5_Node000005_Node000006"><a xlink:title=" ">
<path fill="none" stroke="#63b8ff" d="M611.68,-282.67C695.52,-277.3 911.52,-262.33 1091,-240.25 1092.01,-240.13 1093.03,-240 1094.06,-239.86"/>
<polygon fill="#63b8ff" stroke="#63b8ff" points="1094.31,-243.36 1103.74,-238.52 1093.35,-236.43 1094.31,-243.36"/>
</a>
</g>
</g>
<!-- Node7 -->
<g id="Node000007" class="node">
<title>Node7</title>
<g id="a_Node000007"><a xlink:title=" ">
<polygon fill="#e0e0e0" stroke="#999999" points="301.5,-74.5 258.5,-74.5 258.5,-55.25 301.5,-55.25 301.5,-74.5"/>
<text text-anchor="middle" x="280" y="-61" font-family="Helvetica,sans-Serif" font-size="10.00">vector</text>
</a>
</g>
</g>
<!-- Node5&#45;&gt;Node7 -->
<g id="edge58_Node000005_Node000007" class="edge">
<title>Node5&#45;&gt;Node7</title>
<g id="a_edge58_Node000005_Node000007"><a xlink:title=" ">
<path fill="none" stroke="#63b8ff" d="M553.43,-275.81C482.38,-247.07 266.88,-158.12 249,-129.75 239.5,-114.67 250.62,-96.24 262.11,-83.06"/>
<polygon fill="#63b8ff" stroke="#63b8ff" points="264.48,-85.64 268.82,-75.98 259.4,-80.83 264.48,-85.64"/>
</a>
</g>
</g>
<!-- Node19 -->
<g id="Node000019" class="node">
<title>Node19</title>
<g id="a_Node000019"><a xlink:title=" ">
<polygon fill="#e0e0e0" stroke="#999999" points="437.75,-185 384.25,-185 384.25,-165.75 437.75,-165.75 437.75,-185"/>
<text text-anchor="middle" x="411" y="-171.5" font-family="Helvetica,sans-Serif" font-size="10.00">Rtypes.h</text>
</a>
</g>
</g>
<!-- Node5&#45;&gt;Node19 -->
<g id="edge60_Node000005_Node000019" class="edge">
<title>Node5&#45;&gt;Node19</title>
<g id="a_edge60_Node000005_Node000019"><a xlink:title=" ">
<path fill="none" stroke="#63b8ff" d="M562.22,-275.81C533.88,-257.18 468.82,-214.4 433.99,-191.5"/>
<polygon fill="#63b8ff" stroke="#63b8ff" points="436.17,-188.74 425.89,-186.17 432.33,-194.59 436.17,-188.74"/>
</a>
</g>
</g>
<!-- Node21 -->
<g id="Node000021" class="node">
<title>Node21</title>
<g id="a_Node000021"><a xlink:href="_t_p_p_g_8h.html" target="_top" xlink:title=" ">
<polygon fill="white" stroke="#666666" points="1053.25,-185 1002.75,-185 1002.75,-165.75 1053.25,-165.75 1053.25,-185"/>
<text text-anchor="middle" x="1028" y="-171.5" font-family="Helvetica,sans-Serif" font-size="10.00">TPPG.h</text>
</a>
</g>
</g>
<!-- Node5&#45;&gt;Node21 -->
<g id="edge56_Node000005_Node000021" class="edge">
<title>Node5&#45;&gt;Node21</title>
<g id="a_edge56_Node000005_Node000021"><a xlink:title=" ">
<path fill="none" stroke="#63b8ff" d="M611.85,-276.27C696.1,-256.05 906.04,-205.65 991.22,-185.2"/>
<polygon fill="#63b8ff" stroke="#63b8ff" points="992.01,-188.61 1000.91,-182.88 990.37,-181.81 992.01,-188.61"/>
</a>
</g>
</g>
<!-- Node23 -->
<g id="Node000023" class="node">
<title>Node23</title>
<g id="a_Node000023"><a xlink:title=" ">
<polygon fill="#e0e0e0" stroke="#999999" points="1330.75,-19.25 1277.25,-19.25 1277.25,0 1330.75,0 1330.75,-19.25"/>
<text text-anchor="middle" x="1304" y="-5.75" font-family="Helvetica,sans-Serif" font-size="10.00">iostream</text>
</a>
</g>
</g>
<!-- Node5&#45;&gt;Node23 -->
<g id="edge57_Node000005_Node000023" class="edge">
<title>Node5&#45;&gt;Node23</title>
<g id="a_edge57_Node000005_Node000023"><a xlink:title=" ">
<path fill="none" stroke="#63b8ff" d="M611.6,-283.22C713.96,-277.64 1005.42,-255.7 1062,-185 1077.22,-165.98 1058.88,-128.79 1042,-110.5 1012.94,-79.01 934.53,-87.27 963,-55.25 1006.37,-6.48 1183.85,-29.07 1265.6,-19.33"/>
<polygon fill="#63b8ff" stroke="#63b8ff" points="1266.06,-22.8 1275.44,-17.87 1265.04,-15.88 1266.06,-22.8"/>
</a>
</g>
</g>
<!-- Node44 -->
<g id="Node000044" class="node">
<title>Node44</title>
<g id="a_Node000044"><a xlink:title=" ">
<polygon fill="#e0e0e0" stroke="#999999" points="600,-240.25 560,-240.25 560,-221 600,-221 600,-240.25"/>
<text text-anchor="middle" x="580" y="-226.75" font-family="Helvetica,sans-Serif" font-size="10.00">ctime</text>
</a>
</g>
</g>
<!-- Node5&#45;&gt;Node44 -->
<g id="edge59_Node000005_Node000044" class="edge">
<title>Node5&#45;&gt;Node44</title>
<g id="a_edge59_Node000005_Node000044"><a xlink:title=" ">
<path fill="none" stroke="#63b8ff" d="M576.66,-276.08C577.16,-269.49 577.85,-260.21 578.48,-251.82"/>
<polygon fill="#63b8ff" stroke="#63b8ff" points="581.95,-252.35 579.21,-242.12 574.97,-251.83 581.95,-252.35"/>
</a>
</g>
</g>
<!-- Node6&#45;&gt;Node7 -->
<g id="edge6_Node000006_Node000007" class="edge">
<title>Node6&#45;&gt;Node7</title>
<g id="a_edge6_Node000006_Node000007"><a xlink:title=" ">
<path fill="none" stroke="#63b8ff" d="M1105.29,-229.56C1007.95,-228.8 750.02,-223.02 539,-185 495.73,-177.2 387.27,-151.4 349,-129.75 327.56,-117.62 307.41,-97.59 294.49,-83.19"/>
<polygon fill="#63b8ff" stroke="#63b8ff" points="297.29,-81.08 288.09,-75.82 292.01,-85.67 297.29,-81.08"/>
</a>
</g>
</g>
<!-- Node6&#45;&gt;Node8 -->
<g id="edge7_Node000006_Node000008" class="edge">
<title>Node6&#45;&gt;Node8</title>
<g id="a_edge7_Node000006_Node000008"><a xlink:title=" ">
<path fill="none" stroke="#63b8ff" d="M1105.27,-225.88C1002.98,-216.24 731.11,-190.62 624.13,-180.53"/>
<polygon fill="#63b8ff" stroke="#63b8ff" points="624.6,-177.06 614.32,-179.61 623.95,-184.03 624.6,-177.06"/>
</a>
</g>
</g>
<!-- Node17 -->
<g id="Node000017" class="node">
<title>Node17</title>
<g id="a_Node000017"><a xlink:title=" ">
<polygon fill="#e0e0e0" stroke="#999999" points="1176.62,-185 1113.38,-185 1113.38,-165.75 1176.62,-165.75 1176.62,-185"/>
<text text-anchor="middle" x="1145" y="-171.5" font-family="Helvetica,sans-Serif" font-size="10.00">TVector3.h</text>
</a>
</g>
</g>
<!-- Node6&#45;&gt;Node17 -->
<g id="edge20_Node000006_Node000017" class="edge">
<title>Node6&#45;&gt;Node17</title>
<g id="a_edge20_Node000006_Node000017"><a xlink:title=" ">
<path fill="none" stroke="#63b8ff" d="M1145,-220.83C1145,-214.32 1145,-205.17 1145,-196.87"/>
<polygon fill="#63b8ff" stroke="#63b8ff" points="1148.5,-196.87 1145,-186.87 1141.5,-196.87 1148.5,-196.87"/>
</a>
</g>
</g>
<!-- Node18 -->
<g id="Node000018" class="node">
<title>Node18</title>
<g id="a_Node000018"><a xlink:title=" ">
<polygon fill="#e0e0e0" stroke="#999999" points="1346,-74.5 1288,-74.5 1288,-55.25 1346,-55.25 1346,-74.5"/>
<text text-anchor="middle" x="1317" y="-61" font-family="Helvetica,sans-Serif" font-size="10.00">TObject.h</text>
</a>
</g>
</g>
<!-- Node6&#45;&gt;Node18 -->
<g id="edge21_Node000006_Node000018" class="edge">
<title>Node6&#45;&gt;Node18</title>
<g id="a_edge21_Node000006_Node000018"><a xlink:title=" ">
<path fill="none" stroke="#63b8ff" d="M1154.49,-220.59C1182.28,-194.13 1263.75,-116.57 1299.66,-82.38"/>
<polygon fill="#63b8ff" stroke="#63b8ff" points="1301.82,-85.16 1306.65,-75.73 1296.99,-80.09 1301.82,-85.16"/>
</a>
</g>
</g>
<!-- Node6&#45;&gt;Node19 -->
<g id="edge22_Node000006_Node000019" class="edge">
<title>Node6&#45;&gt;Node19</title>
<g id="a_edge22_Node000006_Node000019"><a xlink:title=" ">
<path fill="none" stroke="#63b8ff" d="M1105.34,-229.05C999.03,-227.09 698.97,-218.75 452,-185 450.99,-184.86 449.97,-184.71 448.94,-184.56"/>
<polygon fill="#63b8ff" stroke="#63b8ff" points="449.76,-181.15 439.3,-182.85 448.54,-188.04 449.76,-181.15"/>
</a>
</g>
</g>
<!-- Node20 -->
<g id="Node000020" class="node">
<title>Node20</title>
<g id="a_Node000020"><a xlink:title=" ">
<polygon fill="#e0e0e0" stroke="#999999" points="1487.75,-185 1422.25,-185 1422.25,-165.75 1487.75,-165.75 1487.75,-185"/>
<text text-anchor="middle" x="1455" y="-171.5" font-family="Helvetica,sans-Serif" font-size="10.00">TRandom.h</text>
</a>
</g>
</g>
<!-- Node6&#45;&gt;Node20 -->
<g id="edge23_Node000006_Node000020" class="edge">
<title>Node6&#45;&gt;Node20</title>
<g id="a_edge23_Node000006_Node000020"><a xlink:title=" ">
<path fill="none" stroke="#63b8ff" d="M1184.75,-223.58C1235.11,-215.8 1324.87,-201.53 1410.65,-185.57"/>
<polygon fill="#63b8ff" stroke="#63b8ff" points="1411.23,-189.02 1420.42,-183.74 1409.94,-182.14 1411.23,-189.02"/>
</a>
</g>
</g>
<!-- Node6&#45;&gt;Node21 -->
<g id="edge24_Node000006_Node000021" class="edge">
<title>Node6&#45;&gt;Node21</title>
<g id="a_edge24_Node000006_Node000021"><a xlink:title=" ">
<path fill="none" stroke="#63b8ff" d="M1125.15,-220.59C1106.83,-212.25 1079.35,-199.75 1058.29,-190.16"/>
<polygon fill="#63b8ff" stroke="#63b8ff" points="1059.87,-187.04 1049.32,-186.08 1056.97,-193.41 1059.87,-187.04"/>
</a>
</g>
</g>
<!-- Node42 -->
<g id="Node000042" class="node">
<title>Node42</title>
<g id="a_Node000042"><a xlink:href="_t_transient_bits_8h.html" target="_top" xlink:title=" ">
<polygon fill="white" stroke="#666666" points="1404.62,-185 1317.38,-185 1317.38,-165.75 1404.62,-165.75 1404.62,-185"/>
<text text-anchor="middle" x="1361" y="-171.5" font-family="Helvetica,sans-Serif" font-size="10.00">TTransientBits.h</text>
</a>
</g>
</g>
<!-- Node6&#45;&gt;Node42 -->
<g id="edge53_Node000006_Node000042" class="edge">
<title>Node6&#45;&gt;Node42</title>
<g id="a_edge53_Node000006_Node000042"><a xlink:title=" ">
<path fill="none" stroke="#63b8ff" d="M1181.64,-220.59C1217.87,-211.66 1273.49,-197.95 1313.18,-188.16"/>
<polygon fill="#63b8ff" stroke="#63b8ff" points="1313.84,-191.61 1322.71,-185.81 1312.16,-184.81 1313.84,-191.61"/>
</a>
</g>
</g>
<!-- Node8&#45;&gt;Node3 -->
<g id="edge10_Node000008_Node000003" class="edge">
<title>Node8&#45;&gt;Node3</title>
<g id="a_edge10_Node000008_Node000003"><a xlink:title=" ">
<path fill="none" stroke="#63b8ff" d="M612.62,-169.04C658.77,-161.32 745.68,-146.16 819,-129.75 819.82,-129.57 820.66,-129.38 821.5,-129.18"/>
<polygon fill="#63b8ff" stroke="#63b8ff" points="822.17,-132.62 831.04,-126.83 820.5,-125.82 822.17,-132.62"/>
</a>
</g>
</g>
<!-- Node8&#45;&gt;Node4 -->
<g id="edge14_Node000008_Node000004" class="edge">
<title>Node8&#45;&gt;Node4</title>
<g id="a_edge14_Node000008_Node000004"><a xlink:title=" ">
<path fill="none" stroke="#63b8ff" d="M547.46,-170.11C473.57,-160.42 293.34,-136.78 213.35,-126.29"/>
<polygon fill="#63b8ff" stroke="#63b8ff" points="214.17,-122.86 203.8,-125.03 213.26,-129.8 214.17,-122.86"/>
</a>
</g>
</g>
<!-- Node9 -->
<g id="Node000009" class="node">
<title>Node9</title>
<g id="a_Node000009"><a xlink:title=" ">
<polygon fill="#e0e0e0" stroke="#999999" points="553,-19.25 513,-19.25 513,0 553,0 553,-19.25"/>
<text text-anchor="middle" x="533" y="-5.75" font-family="Helvetica,sans-Serif" font-size="10.00">string</text>
</a>
</g>
</g>
<!-- Node8&#45;&gt;Node9 -->
<g id="edge8_Node000008_Node000009" class="edge">
<title>Node8&#45;&gt;Node9</title>
<g id="a_edge8_Node000008_Node000009"><a xlink:title=" ">
<path fill="none" stroke="#63b8ff" d="M612.48,-168.44C669.13,-157.93 780.53,-136.53 786,-129.75 791.37,-123.09 790.81,-117.57 786,-110.5 772.84,-91.16 628.54,-41.94 563.95,-20.67"/>
<polygon fill="#63b8ff" stroke="#63b8ff" points="565.25,-17.42 554.66,-17.63 563.07,-24.07 565.25,-17.42"/>
</a>
</g>
</g>
<!-- Node10 -->
<g id="Node000010" class="node">
<title>Node10</title>
<g id="a_Node000010"><a xlink:title=" ">
<polygon fill="#e0e0e0" stroke="#999999" points="301.5,-129.75 258.5,-129.75 258.5,-110.5 301.5,-110.5 301.5,-129.75"/>
<text text-anchor="middle" x="280" y="-116.25" font-family="Helvetica,sans-Serif" font-size="10.00">cmath</text>
</a>
</g>
</g>
<!-- Node8&#45;&gt;Node10 -->
<g id="edge9_Node000008_Node000010" class="edge">
<title>Node8&#45;&gt;Node10</title>
<g id="a_edge9_Node000008_Node000010"><a xlink:title=" ">
<path fill="none" stroke="#63b8ff" d="M547.32,-168.57C489.64,-158.34 370.42,-137.17 312.71,-126.93"/>
<polygon fill="#63b8ff" stroke="#63b8ff" points="313.65,-123.54 303.19,-125.24 312.43,-130.44 313.65,-123.54"/>
</a>
</g>
</g>
<!-- Node11 -->
<g id="Node000011" class="node">
<title>Node11</title>
<g id="a_Node000011"><a xlink:title=" ">
<polygon fill="#e0e0e0" stroke="#999999" points="440.38,-129.75 357.62,-129.75 357.62,-110.5 440.38,-110.5 440.38,-129.75"/>
<text text-anchor="middle" x="399" y="-116.25" font-family="Helvetica,sans-Serif" font-size="10.00">unordered_map</text>
</a>
</g>
</g>
<!-- Node8&#45;&gt;Node11 -->
<g id="edge11_Node000008_Node000011" class="edge">
<title>Node8&#45;&gt;Node11</title>
<g id="a_edge11_Node000008_Node000011"><a xlink:title=" ">
<path fill="none" stroke="#63b8ff" d="M549.3,-165.34C519.39,-156.54 473.72,-143.11 440.58,-133.36"/>
<polygon fill="#63b8ff" stroke="#63b8ff" points="441.89,-130.09 431.31,-130.63 439.91,-136.81 441.89,-130.09"/>
</a>
</g>
</g>
<!-- Node12 -->
<g id="Node000012" class="node">
<title>Node12</title>
<g id="a_Node000012"><a xlink:title=" ">
<polygon fill="#e0e0e0" stroke="#999999" points="519.5,-129.75 458.5,-129.75 458.5,-110.5 519.5,-110.5 519.5,-129.75"/>
<text text-anchor="middle" x="489" y="-116.25" font-family="Helvetica,sans-Serif" font-size="10.00">TNamed.h</text>
</a>
</g>
</g>
<!-- Node8&#45;&gt;Node12 -->
<g id="edge12_Node000008_Node000012" class="edge">
<title>Node8&#45;&gt;Node12</title>
<g id="a_edge12_Node000008_Node000012"><a xlink:title=" ">
<path fill="none" stroke="#63b8ff" d="M564.56,-165.34C550.84,-157.31 530.5,-145.41 514.38,-135.98"/>
<polygon fill="#63b8ff" stroke="#63b8ff" points="516.22,-133 505.82,-130.97 512.68,-139.04 516.22,-133"/>
</a>
</g>
</g>
<!-- Node13 -->
<g id="Node000013" class="node">
<title>Node13</title>
<g id="a_Node000013"><a xlink:title=" ">
<polygon fill="#e0e0e0" stroke="#999999" points="689.5,-129.75 640.5,-129.75 640.5,-110.5 689.5,-110.5 689.5,-129.75"/>
<text text-anchor="middle" x="665" y="-116.25" font-family="Helvetica,sans-Serif" font-size="10.00">TTree.h</text>
</a>
</g>
</g>
<!-- Node8&#45;&gt;Node13 -->
<g id="edge13_Node000008_Node000013" class="edge">
<title>Node8&#45;&gt;Node13</title>
<g id="a_edge13_Node000008_Node000013"><a xlink:title=" ">
<path fill="none" stroke="#63b8ff" d="M594.42,-165.34C607.12,-157.39 625.87,-145.64 640.86,-136.25"/>
<polygon fill="#63b8ff" stroke="#63b8ff" points="642.61,-139.28 649.23,-131.01 638.9,-133.35 642.61,-139.28"/>
</a>
</g>
</g>
<!-- Node14 -->
<g id="Node000014" class="node">
<title>Node14</title>
<g id="a_Node000014"><a xlink:title=" ">
<polygon fill="#e0e0e0" stroke="#999999" points="776.62,-129.75 707.38,-129.75 707.38,-110.5 776.62,-110.5 776.62,-129.75"/>
<text text-anchor="middle" x="742" y="-116.25" font-family="Helvetica,sans-Serif" font-size="10.00">TClassRef.h</text>
</a>
</g>
</g>
<!-- Node8&#45;&gt;Node14 -->
<g id="edge15_Node000008_Node000014" class="edge">
<title>Node8&#45;&gt;Node14</title>
<g id="a_edge15_Node000008_Node000014"><a xlink:title=" ">
<path fill="none" stroke="#63b8ff" d="M607.48,-165.34C633.9,-156.66 674.06,-143.46 703.62,-133.74"/>
<polygon fill="#63b8ff" stroke="#63b8ff" points="704.54,-137.12 712.95,-130.68 702.35,-130.47 704.54,-137.12"/>
</a>
</g>
</g>
<!-- Node15 -->
<g id="Node000015" class="node">
<title>Node15</title>
<g id="a_Node000015"><a xlink:href="_t_priority_value_8h.html" target="_top" xlink:title=" ">
<polygon fill="white" stroke="#666666" points="622.12,-129.75 537.88,-129.75 537.88,-110.5 622.12,-110.5 622.12,-129.75"/>
<text text-anchor="middle" x="580" y="-116.25" font-family="Helvetica,sans-Serif" font-size="10.00">TPriorityValue.h</text>
</a>
</g>
</g>
<!-- Node8&#45;&gt;Node15 -->
<g id="edge16_Node000008_Node000015" class="edge">
<title>Node8&#45;&gt;Node15</title>
<g id="a_edge16_Node000008_Node000015"><a xlink:title=" ">
<path fill="none" stroke="#63b8ff" d="M580,-165.58C580,-159.07 580,-149.92 580,-141.62"/>
<polygon fill="#63b8ff" stroke="#63b8ff" points="583.5,-141.62 580,-131.62 576.5,-141.62 583.5,-141.62"/>
</a>
</g>
</g>
<!-- Node15&#45;&gt;Node7 -->
<g id="edge19_Node000015_Node000007" class="edge">
<title>Node15&#45;&gt;Node7</title>
<g id="a_edge19_Node000015_Node000007"><a xlink:title=" ">
<path fill="none" stroke="#63b8ff" d="M537.65,-111.61C477.31,-100.9 367.85,-81.47 313.08,-71.75"/>
<polygon fill="#63b8ff" stroke="#63b8ff" points="313.89,-68.34 303.44,-70.04 312.67,-75.23 313.89,-68.34"/>
</a>
</g>
</g>
<!-- Node15&#45;&gt;Node9 -->
<g id="edge18_Node000015_Node000009" class="edge">
<title>Node15&#45;&gt;Node9</title>
<g id="a_edge18_Node000015_Node000009"><a xlink:title=" ">
<path fill="none" stroke="#63b8ff" d="M573.45,-110.3C567.23,-101.58 557.96,-87.67 552,-74.5 545.57,-60.28 540.64,-43.31 537.42,-30.44"/>
<polygon fill="#63b8ff" stroke="#63b8ff" points="540.9,-29.98 535.2,-21.05 534.09,-31.58 540.9,-29.98"/>
</a>
</g>
</g>
<!-- Node16 -->
<g id="Node000016" class="node">
<title>Node16</title>
<g id="a_Node000016"><a xlink:title=" ">
<polygon fill="#e0e0e0" stroke="#999999" points="612.62,-74.5 561.38,-74.5 561.38,-55.25 612.62,-55.25 612.62,-74.5"/>
<text text-anchor="middle" x="587" y="-61" font-family="Helvetica,sans-Serif" font-size="10.00">ostream</text>
</a>
</g>
</g>
<!-- Node15&#45;&gt;Node16 -->
<g id="edge17_Node000015_Node000016" class="edge">
<title>Node15&#45;&gt;Node16</title>
<g id="a_edge17_Node000015_Node000016"><a xlink:title=" ">
<path fill="none" stroke="#63b8ff" d="M581.16,-110.33C582.02,-103.74 583.24,-94.46 584.34,-86.07"/>
<polygon fill="#63b8ff" stroke="#63b8ff" points="587.79,-86.73 585.62,-76.36 580.85,-85.82 587.79,-86.73"/>
</a>
</g>
</g>
<!-- Node21&#45;&gt;Node3 -->
<g id="edge26_Node000021_Node000003" class="edge">
<title>Node21&#45;&gt;Node3</title>
<g id="a_edge26_Node000021_Node000003"><a xlink:title=" ">
<path fill="none" stroke="#63b8ff" d="M1002.41,-166.63C970.54,-156.99 916.19,-140.55 882.28,-130.29"/>
<polygon fill="#63b8ff" stroke="#63b8ff" points="883.67,-127.05 873.08,-127.5 881.64,-133.75 883.67,-127.05"/>
</a>
</g>
</g>
<!-- Node21&#45;&gt;Node18 -->
<g id="edge28_Node000021_Node000018" class="edge">
<title>Node21&#45;&gt;Node18</title>
<g id="a_edge28_Node000021_Node000018"><a xlink:title=" ">
<path fill="none" stroke="#63b8ff" d="M1053.69,-168.78C1085.7,-161.46 1141.82,-147.44 1188,-129.75 1224.96,-115.59 1265.56,-94.5 1291.15,-80.48"/>
<polygon fill="#63b8ff" stroke="#63b8ff" points="1292.77,-83.58 1299.82,-75.68 1289.38,-77.46 1292.77,-83.58"/>
</a>
</g>
</g>
<!-- Node22 -->
<g id="Node000022" class="node">
<title>Node22</title>
<g id="a_Node000022"><a xlink:title=" ">
<polygon fill="#e0e0e0" stroke="#999999" points="924.38,-129.75 889.62,-129.75 889.62,-110.5 924.38,-110.5 924.38,-129.75"/>
<text text-anchor="middle" x="907" y="-116.25" font-family="Helvetica,sans-Serif" font-size="10.00">map</text>
</a>
</g>
</g>
<!-- Node21&#45;&gt;Node22 -->
<g id="edge25_Node000021_Node000022" class="edge">
<title>Node21&#45;&gt;Node22</title>
<g id="a_edge25_Node000021_Node000022"><a xlink:title=" ">
<path fill="none" stroke="#63b8ff" d="M1007.47,-165.34C987.63,-156.61 957.41,-143.31 935.29,-133.57"/>
<polygon fill="#63b8ff" stroke="#63b8ff" points="936.81,-130.42 926.25,-129.6 933.99,-136.83 936.81,-130.42"/>
</a>
</g>
</g>
<!-- Node21&#45;&gt;Node23 -->
<g id="edge27_Node000021_Node000023" class="edge">
<title>Node21&#45;&gt;Node23</title>
<g id="a_edge27_Node000021_Node000023"><a xlink:title=" ">
<path fill="none" stroke="#63b8ff" d="M1053.55,-170.74C1124.45,-160.05 1320.7,-126.19 1355,-74.5 1366.69,-56.88 1347.49,-38.13 1329.4,-25.53"/>
<polygon fill="#63b8ff" stroke="#63b8ff" points="1331.77,-22.9 1321.48,-20.37 1327.95,-28.76 1331.77,-22.9"/>
</a>
</g>
</g>
<!-- Node24 -->
<g id="Node000024" class="node">
<title>Node24</title>
<g id="a_Node000024"><a xlink:title=" ">
<polygon fill="#e0e0e0" stroke="#999999" points="1015.12,-129.75 942.88,-129.75 942.88,-110.5 1015.12,-110.5 1015.12,-129.75"/>
<text text-anchor="middle" x="979" y="-116.25" font-family="Helvetica,sans-Serif" font-size="10.00">TCollection.h</text>
</a>
</g>
</g>
<!-- Node21&#45;&gt;Node24 -->
<g id="edge29_Node000021_Node000024" class="edge">
<title>Node21&#45;&gt;Node24</title>
<g id="a_edge29_Node000021_Node000024"><a xlink:title=" ">
<path fill="none" stroke="#63b8ff" d="M1019.91,-165.58C1013.14,-158.23 1003.28,-147.51 994.94,-138.44"/>
<polygon fill="#63b8ff" stroke="#63b8ff" points="997.64,-136.21 988.29,-131.22 992.49,-140.95 997.64,-136.21"/>
</a>
</g>
</g>
<!-- Node25 -->
<g id="Node000025" class="node">
<title>Node25</title>
<g id="a_Node000025"><a xlink:href="_globals_8h.html" target="_top" xlink:title=" ">
<polygon fill="white" stroke="#666666" points="916.25,-74.5 859.75,-74.5 859.75,-55.25 916.25,-55.25 916.25,-74.5"/>
<text text-anchor="middle" x="888" y="-61" font-family="Helvetica,sans-Serif" font-size="10.00">Globals.h</text>
</a>
</g>
</g>
<!-- Node21&#45;&gt;Node25 -->
<g id="edge30_Node000021_Node000025" class="edge">
<title>Node21&#45;&gt;Node25</title>
<g id="a_edge30_Node000021_Node000025"><a xlink:title=" ">
<path fill="none" stroke="#63b8ff" d="M1030.29,-165.46C1033.17,-152.03 1036.37,-126.5 1024,-110.5 1017.86,-102.56 965.31,-86.87 927.37,-76.37"/>
<polygon fill="#63b8ff" stroke="#63b8ff" points="928.65,-73.09 918.08,-73.83 926.8,-79.85 928.65,-73.09"/>
</a>
</g>
</g>
<!-- Node37 -->
<g id="Node000037" class="node">
<title>Node37</title>
<g id="a_Node000037"><a xlink:href="_t_singleton_8h.html" target="_top" xlink:title=" ">
<polygon fill="white" stroke="#666666" points="1179,-129.75 1109,-129.75 1109,-110.5 1179,-110.5 1179,-129.75"/>
<text text-anchor="middle" x="1144" y="-116.25" font-family="Helvetica,sans-Serif" font-size="10.00">TSingleton.h</text>
</a>
</g>
</g>
<!-- Node21&#45;&gt;Node37 -->
<g id="edge45_Node000021_Node000037" class="edge">
<title>Node21&#45;&gt;Node37</title>
<g id="a_edge45_Node000021_Node000037"><a xlink:title=" ">
<path fill="none" stroke="#63b8ff" d="M1047.68,-165.34C1065.84,-157 1093.08,-144.5 1113.97,-134.91"/>
<polygon fill="#63b8ff" stroke="#63b8ff" points="1115.22,-138.19 1122.85,-130.83 1112.3,-131.83 1115.22,-138.19"/>
</a>
</g>
</g>
<!-- Node25&#45;&gt;Node2 -->
<g id="edge35_Node000025_Node000002" class="edge">
<title>Node25&#45;&gt;Node2</title>
<g id="a_edge35_Node000025_Node000002"><a xlink:title=" ">
<path fill="none" stroke="#63b8ff" d="M859.72,-62.1C731.79,-54.09 207.57,-21.25 70.78,-12.68"/>
<polygon fill="#63b8ff" stroke="#63b8ff" points="71.18,-9.2 60.98,-12.06 70.74,-16.18 71.18,-9.2"/>
</a>
</g>
</g>
<!-- Node25&#45;&gt;Node9 -->
<g id="edge34_Node000025_Node000009" class="edge">
<title>Node25&#45;&gt;Node9</title>
<g id="a_edge34_Node000025_Node000009"><a xlink:title=" ">
<path fill="none" stroke="#63b8ff" d="M859.38,-60.21C790.91,-51.42 619.75,-29.22 564.64,-19.33"/>
<polygon fill="#63b8ff" stroke="#63b8ff" points="565.47,-15.92 554.98,-17.43 564.12,-22.79 565.47,-15.92"/>
</a>
</g>
</g>
<!-- Node25&#45;&gt;Node23 -->
<g id="edge31_Node000025_Node000023" class="edge">
<title>Node25&#45;&gt;Node23</title>
<g id="a_edge31_Node000025_Node000023"><a xlink:title=" ">
<path fill="none" stroke="#63b8ff" d="M916.4,-57.66C920.93,-56.77 925.59,-55.94 930,-55.25 1076.06,-32.55 1117.75,-44.8 1265.64,-19.64"/>
<polygon fill="#63b8ff" stroke="#63b8ff" points="1266.2,-23.09 1275.45,-17.94 1265,-16.2 1266.2,-23.09"/>
</a>
</g>
</g>
<!-- Node26 -->
<g id="Node000026" class="node">
<title>Node26</title>
<g id="a_Node000026"><a xlink:title=" ">
<polygon fill="#e0e0e0" stroke="#999999" points="912.88,-19.25 863.12,-19.25 863.12,0 912.88,0 912.88,-19.25"/>
<text text-anchor="middle" x="888" y="-5.75" font-family="Helvetica,sans-Serif" font-size="10.00">iomanip</text>
</a>
</g>
</g>
<!-- Node25&#45;&gt;Node26 -->
<g id="edge32_Node000025_Node000026" class="edge">
<title>Node25&#45;&gt;Node26</title>
<g id="a_edge32_Node000025_Node000026"><a xlink:title=" ">
<path fill="none" stroke="#63b8ff" d="M888,-55.08C888,-48.57 888,-39.42 888,-31.12"/>
<polygon fill="#63b8ff" stroke="#63b8ff" points="891.5,-31.12 888,-21.12 884.5,-31.12 891.5,-31.12"/>
</a>
</g>
</g>
<!-- Node27 -->
<g id="Node000027" class="node">
<title>Node27</title>
<g id="a_Node000027"><a xlink:title=" ">
<polygon fill="#e0e0e0" stroke="#999999" points="989,-19.25 931,-19.25 931,0 989,0 989,-19.25"/>
<text text-anchor="middle" x="960" y="-5.75" font-family="Helvetica,sans-Serif" font-size="10.00">stdexcept</text>
</a>
</g>
</g>
<!-- Node25&#45;&gt;Node27 -->
<g id="edge33_Node000025_Node000027" class="edge">
<title>Node25&#45;&gt;Node27</title>
<g id="a_edge33_Node000025_Node000027"><a xlink:title=" ">
<path fill="none" stroke="#63b8ff" d="M900.21,-54.84C910.83,-46.99 926.44,-35.45 939.04,-26.12"/>
<polygon fill="#63b8ff" stroke="#63b8ff" points="940.79,-29.19 946.75,-20.42 936.63,-23.56 940.79,-29.19"/>
</a>
</g>
</g>
<!-- Node28 -->
<g id="Node000028" class="node">
<title>Node28</title>
<g id="a_Node000028"><a xlink:title=" ">
<polygon fill="#e0e0e0" stroke="#999999" points="308.25,-19.25 263.75,-19.25 263.75,0 308.25,0 308.25,-19.25"/>
<text text-anchor="middle" x="286" y="-5.75" font-family="Helvetica,sans-Serif" font-size="10.00">cstdlib</text>
</a>
</g>
</g>
<!-- Node25&#45;&gt;Node28 -->
<g id="edge36_Node000025_Node000028" class="edge">
<title>Node25&#45;&gt;Node28</title>
<g id="a_edge36_Node000025_Node000028"><a xlink:title=" ">
<path fill="none" stroke="#63b8ff" d="M859.37,-61.34C759.58,-52.52 427.38,-23.13 319.88,-13.62"/>
<polygon fill="#63b8ff" stroke="#63b8ff" points="320.26,-10.14 309.99,-12.75 319.64,-17.11 320.26,-10.14"/>
</a>
</g>
</g>
<!-- Node29 -->
<g id="Node000029" class="node">
<title>Node29</title>
<g id="a_Node000029"><a xlink:title=" ">
<polygon fill="#e0e0e0" stroke="#999999" points="1066.75,-19.25 1007.25,-19.25 1007.25,0 1066.75,0 1066.75,-19.25"/>
<text text-anchor="middle" x="1037" y="-5.75" font-family="Helvetica,sans-Serif" font-size="10.00">execinfo.h</text>
</a>
</g>
</g>
<!-- Node25&#45;&gt;Node29 -->
<g id="edge37_Node000025_Node000029" class="edge">
<title>Node25&#45;&gt;Node29</title>
<g id="a_edge37_Node000025_Node000029"><a xlink:title=" ">
<path fill="none" stroke="#63b8ff" d="M913.28,-54.84C937.36,-46.24 973.86,-33.19 1000.98,-23.5"/>
<polygon fill="#63b8ff" stroke="#63b8ff" points="1001.94,-26.87 1010.17,-20.21 999.58,-20.28 1001.94,-26.87"/>
</a>
</g>
</g>
<!-- Node30 -->
<g id="Node000030" class="node">
<title>Node30</title>
<g id="a_Node000030"><a xlink:title=" ">
<polygon fill="#e0e0e0" stroke="#999999" points="1135.25,-19.25 1084.75,-19.25 1084.75,0 1135.25,0 1135.25,-19.25"/>
<text text-anchor="middle" x="1110" y="-5.75" font-family="Helvetica,sans-Serif" font-size="10.00">cxxabi.h</text>
</a>
</g>
</g>
<!-- Node25&#45;&gt;Node30 -->
<g id="edge38_Node000025_Node000030" class="edge">
<title>Node25&#45;&gt;Node30</title>
<g id="a_edge38_Node000025_Node000030"><a xlink:title=" ">
<path fill="none" stroke="#63b8ff" d="M916.7,-57.21C951.51,-49.09 1012.25,-34.82 1073.38,-19.87"/>
<polygon fill="#63b8ff" stroke="#63b8ff" points="1074.04,-23.31 1082.92,-17.53 1072.37,-16.51 1074.04,-23.31"/>
</a>
</g>
</g>
<!-- Node31 -->
<g id="Node000031" class="node">
<title>Node31</title>
<g id="a_Node000031"><a xlink:title=" ">
<polygon fill="#e0e0e0" stroke="#999999" points="1204.62,-19.25 1153.38,-19.25 1153.38,0 1204.62,0 1204.62,-19.25"/>
<text text-anchor="middle" x="1179" y="-5.75" font-family="Helvetica,sans-Serif" font-size="10.00">sstream</text>
</a>
</g>
</g>
<!-- Node25&#45;&gt;Node31 -->
<g id="edge39_Node000025_Node000031" class="edge">
<title>Node25&#45;&gt;Node31</title>
<g id="a_edge39_Node000025_Node000031"><a xlink:title=" ">
<path fill="none" stroke="#63b8ff" d="M916.44,-57.89C920.97,-56.98 925.61,-56.07 930,-55.25 1021.29,-38.2 1047.62,-38.74 1141.85,-19.56"/>
<polygon fill="#63b8ff" stroke="#63b8ff" points="1142.48,-23 1151.57,-17.55 1141.07,-16.14 1142.48,-23"/>
</a>
</g>
</g>
<!-- Node32 -->
<g id="Node000032" class="node">
<title>Node32</title>
<g id="a_Node000032"><a xlink:title=" ">
<polygon fill="#e0e0e0" stroke="#999999" points="1259.5,-19.25 1222.5,-19.25 1222.5,0 1259.5,0 1259.5,-19.25"/>
<text text-anchor="middle" x="1241" y="-5.75" font-family="Helvetica,sans-Serif" font-size="10.00">array</text>
</a>
</g>
</g>
<!-- Node25&#45;&gt;Node32 -->
<g id="edge40_Node000025_Node000032" class="edge">
<title>Node25&#45;&gt;Node32</title>
<g id="a_edge40_Node000025_Node000032"><a xlink:title=" ">
<path fill="none" stroke="#63b8ff" d="M916.41,-57.73C920.95,-56.84 925.59,-55.98 930,-55.25 1051.96,-35.03 1087.76,-46.05 1211.21,-19.52"/>
<polygon fill="#63b8ff" stroke="#63b8ff" points="1211.74,-22.99 1220.76,-17.43 1210.24,-16.15 1211.74,-22.99"/>
</a>
</g>
</g>
<!-- Node33 -->
<g id="Node000033" class="node">
<title>Node33</title>
<g id="a_Node000033"><a xlink:title=" ">
<polygon fill="#e0e0e0" stroke="#999999" points="621.25,-19.25 570.75,-19.25 570.75,0 621.25,0 621.25,-19.25"/>
<text text-anchor="middle" x="596" y="-5.75" font-family="Helvetica,sans-Serif" font-size="10.00">memory</text>
</a>
</g>
</g>
<!-- Node25&#45;&gt;Node33 -->
<g id="edge41_Node000025_Node000033" class="edge">
<title>Node25&#45;&gt;Node33</title>
<g id="a_edge41_Node000025_Node000033"><a xlink:title=" ">
<path fill="none" stroke="#63b8ff" d="M859.61,-59.7C813.86,-52.81 720.77,-38.15 632.58,-19.67"/>
<polygon fill="#63b8ff" stroke="#63b8ff" points="633.56,-16.3 623.05,-17.65 632.11,-23.15 633.56,-16.3"/>
</a>
</g>
</g>
<!-- Node34 -->
<g id="Node000034" class="node">
<title>Node34</title>
<g id="a_Node000034"><a xlink:title=" ">
<polygon fill="#e0e0e0" stroke="#999999" points="688.88,-19.25 639.12,-19.25 639.12,0 688.88,0 688.88,-19.25"/>
<text text-anchor="middle" x="664" y="-5.75" font-family="Helvetica,sans-Serif" font-size="10.00">unistd.h</text>
</a>
</g>
</g>
<!-- Node25&#45;&gt;Node34 -->
<g id="edge42_Node000025_Node000034" class="edge">
<title>Node25&#45;&gt;Node34</title>
<g id="a_edge42_Node000025_Node000034"><a xlink:title=" ">
<path fill="none" stroke="#63b8ff" d="M859.31,-57.3C824.12,-49.21 762.35,-34.88 700.05,-19.72"/>
<polygon fill="#63b8ff" stroke="#63b8ff" points="701.25,-16.41 690.71,-17.44 699.59,-23.21 701.25,-16.41"/>
</a>
</g>
</g>
<!-- Node35 -->
<g id="Node000035" class="node">
<title>Node35</title>
<g id="a_Node000035"><a xlink:title=" ">
<polygon fill="#e0e0e0" stroke="#999999" points="766.75,-19.25 707.25,-19.25 707.25,0 766.75,0 766.75,-19.25"/>
<text text-anchor="middle" x="737" y="-5.75" font-family="Helvetica,sans-Serif" font-size="10.00">sys/wait.h</text>
</a>
</g>
</g>
<!-- Node25&#45;&gt;Node35 -->
<g id="edge43_Node000025_Node000035" class="edge">
<title>Node25&#45;&gt;Node35</title>
<g id="a_edge43_Node000025_Node000035"><a xlink:title=" ">
<path fill="none" stroke="#63b8ff" d="M862.38,-54.84C837.98,-46.24 800.99,-33.19 773.5,-23.5"/>
<polygon fill="#63b8ff" stroke="#63b8ff" points="774.76,-20.23 764.17,-20.21 772.43,-26.83 774.76,-20.23"/>
</a>
</g>
</g>
<!-- Node36 -->
<g id="Node000036" class="node">
<title>Node36</title>
<g id="a_Node000036"><a xlink:title=" ">
<polygon fill="#e0e0e0" stroke="#999999" points="845.12,-19.25 784.88,-19.25 784.88,0 845.12,0 845.12,-19.25"/>
<text text-anchor="middle" x="815" y="-5.75" font-family="Helvetica,sans-Serif" font-size="10.00">sys/prctl.h</text>
</a>
</g>
</g>
<!-- Node25&#45;&gt;Node36 -->
<g id="edge44_Node000025_Node000036" class="edge">
<title>Node25&#45;&gt;Node36</title>
<g id="a_edge44_Node000025_Node000036"><a xlink:title=" ">
<path fill="none" stroke="#63b8ff" d="M875.62,-54.84C864.85,-46.99 849.03,-35.45 836.25,-26.12"/>
<polygon fill="#63b8ff" stroke="#63b8ff" points="838.56,-23.48 828.42,-20.42 834.44,-29.14 838.56,-23.48"/>
</a>
</g>
</g>
<!-- Node37&#45;&gt;Node18 -->
<g id="edge47_Node000037_Node000018" class="edge">
<title>Node37&#45;&gt;Node18</title>
<g id="a_edge47_Node000037_Node000018"><a xlink:title=" ">
<path fill="none" stroke="#63b8ff" d="M1173.35,-110.09C1201.8,-101.33 1245.2,-87.98 1276.85,-78.23"/>
<polygon fill="#63b8ff" stroke="#63b8ff" points="1277.53,-81.68 1286.06,-75.4 1275.48,-74.99 1277.53,-81.68"/>
</a>
</g>
</g>
<!-- Node37&#45;&gt;Node23 -->
<g id="edge46_Node000037_Node000023" class="edge">
<title>Node37&#45;&gt;Node23</title>
<g id="a_edge46_Node000037_Node000023"><a xlink:title=" ">
<path fill="none" stroke="#63b8ff" d="M1152.54,-110.03C1165.26,-96.82 1190.35,-72.07 1215,-55.25 1232.74,-43.15 1254.22,-32.29 1271.63,-24.31"/>
<polygon fill="#63b8ff" stroke="#63b8ff" points="1272.79,-27.62 1280.49,-20.34 1269.94,-21.23 1272.79,-27.62"/>
</a>
</g>
</g>
<!-- Node37&#45;&gt;Node25 -->
<g id="edge52_Node000037_Node000025" class="edge">
<title>Node37&#45;&gt;Node25</title>
<g id="a_edge52_Node000037_Node000025"><a xlink:title=" ">
<path fill="none" stroke="#63b8ff" d="M1108.67,-111.78C1061.31,-101.92 977.45,-84.48 927.88,-74.17"/>
<polygon fill="#63b8ff" stroke="#63b8ff" points="928.63,-70.75 918.13,-72.14 927.21,-77.61 928.63,-70.75"/>
</a>
</g>
</g>
<!-- Node38 -->
<g id="Node000038" class="node">
<title>Node38</title>
<g id="a_Node000038"><a xlink:title=" ">
<polygon fill="#e0e0e0" stroke="#999999" points="1167.88,-74.5 1100.12,-74.5 1100.12,-55.25 1167.88,-55.25 1167.88,-74.5"/>
<text text-anchor="middle" x="1134" y="-61" font-family="Helvetica,sans-Serif" font-size="10.00">TDirectory.h</text>
</a>
</g>
</g>
<!-- Node37&#45;&gt;Node38 -->
<g id="edge48_Node000037_Node000038" class="edge">
<title>Node37&#45;&gt;Node38</title>
<g id="a_edge48_Node000037_Node000038"><a xlink:title=" ">
<path fill="none" stroke="#63b8ff" d="M1142.35,-110.33C1141.11,-103.74 1139.37,-94.46 1137.79,-86.07"/>
<polygon fill="#63b8ff" stroke="#63b8ff" points="1141.25,-85.53 1135.97,-76.35 1134.37,-86.82 1141.25,-85.53"/>
</a>
</g>
</g>
<!-- Node39 -->
<g id="Node000039" class="node">
<title>Node39</title>
<g id="a_Node000039"><a xlink:title=" ">
<polygon fill="#e0e0e0" stroke="#999999" points="1269.62,-74.5 1224.38,-74.5 1224.38,-55.25 1269.62,-55.25 1269.62,-74.5"/>
<text text-anchor="middle" x="1247" y="-61" font-family="Helvetica,sans-Serif" font-size="10.00">TFile.h</text>
</a>
</g>
</g>
<!-- Node37&#45;&gt;Node39 -->
<g id="edge49_Node000037_Node000039" class="edge">
<title>Node37&#45;&gt;Node39</title>
<g id="a_edge49_Node000037_Node000039"><a xlink:title=" ">
<path fill="none" stroke="#63b8ff" d="M1161.47,-110.09C1177.31,-101.91 1200.91,-89.71 1219.31,-80.19"/>
<polygon fill="#63b8ff" stroke="#63b8ff" points="1220.82,-83.35 1228.1,-75.65 1217.61,-77.13 1220.82,-83.35"/>
</a>
</g>
</g>
<!-- Node40 -->
<g id="Node000040" class="node">
<title>Node40</title>
<g id="a_Node000040"><a xlink:title=" ">
<polygon fill="#e0e0e0" stroke="#999999" points="1018,-74.5 972,-74.5 972,-55.25 1018,-55.25 1018,-74.5"/>
<text text-anchor="middle" x="995" y="-61" font-family="Helvetica,sans-Serif" font-size="10.00">TList.h</text>
</a>
</g>
</g>
<!-- Node37&#45;&gt;Node40 -->
<g id="edge50_Node000037_Node000040" class="edge">
<title>Node37&#45;&gt;Node40</title>
<g id="a_edge50_Node000037_Node000040"><a xlink:title=" ">
<path fill="none" stroke="#63b8ff" d="M1118.72,-110.09C1094.06,-101.28 1056.36,-87.81 1029.06,-78.05"/>
<polygon fill="#63b8ff" stroke="#63b8ff" points="1030.45,-74.83 1019.86,-74.76 1028.1,-81.42 1030.45,-74.83"/>
</a>
</g>
</g>
<!-- Node41 -->
<g id="Node000041" class="node">
<title>Node41</title>
<g id="a_Node000041"><a xlink:title=" ">
<polygon fill="#e0e0e0" stroke="#999999" points="1082,-74.5 1036,-74.5 1036,-55.25 1082,-55.25 1082,-74.5"/>
<text text-anchor="middle" x="1059" y="-61" font-family="Helvetica,sans-Serif" font-size="10.00">TKey.h</text>
</a>
</g>
</g>
<!-- Node37&#45;&gt;Node41 -->
<g id="edge51_Node000037_Node000041" class="edge">
<title>Node37&#45;&gt;Node41</title>
<g id="a_edge51_Node000037_Node000041"><a xlink:title=" ">
<path fill="none" stroke="#63b8ff" d="M1129.58,-110.09C1116.88,-102.14 1098.13,-90.39 1083.14,-81"/>
<polygon fill="#63b8ff" stroke="#63b8ff" points="1085.1,-78.1 1074.77,-75.76 1081.39,-84.03 1085.1,-78.1"/>
</a>
</g>
</g>
<!-- Node42&#45;&gt;Node23 -->
<g id="edge54_Node000042_Node000023" class="edge">
<title>Node42&#45;&gt;Node23</title>
<g id="a_edge54_Node000042_Node000023"><a xlink:title=" ">
<path fill="none" stroke="#63b8ff" d="M1372.36,-165.51C1381.79,-157.38 1394.5,-144.39 1400,-129.75 1407.75,-109.11 1392.94,-61.78 1388,-55.25 1376.47,-40.02 1358.21,-29.45 1341.66,-22.43"/>
<polygon fill="#63b8ff" stroke="#63b8ff" points="1343.11,-19.24 1332.52,-18.86 1340.57,-25.76 1343.11,-19.24"/>
</a>
</g>
</g>
<!-- Node43 -->
<g id="Node000043" class="node">
<title>Node43</title>
<g id="a_Node000043"><a xlink:title=" ">
<polygon fill="#e0e0e0" stroke="#999999" points="1390.88,-129.75 1317.12,-129.75 1317.12,-110.5 1390.88,-110.5 1390.88,-129.75"/>
<text text-anchor="middle" x="1354" y="-116.25" font-family="Helvetica,sans-Serif" font-size="10.00">RtypesCore.h</text>
</a>
</g>
</g>
<!-- Node42&#45;&gt;Node43 -->
<g id="edge55_Node000042_Node000043" class="edge">
<title>Node42&#45;&gt;Node43</title>
<g id="a_edge55_Node000042_Node000043"><a xlink:title=" ">
<path fill="none" stroke="#63b8ff" d="M1359.84,-165.58C1358.98,-158.99 1357.76,-149.71 1356.66,-141.32"/>
<polygon fill="#63b8ff" stroke="#63b8ff" points="1360.15,-141.07 1355.38,-131.61 1353.21,-141.98 1360.15,-141.07"/>
</a>
</g>
</g>
<!-- Node45&#45;&gt;Node2 -->
<g id="edge67_Node000045_Node000002" class="edge">
<title>Node45&#45;&gt;Node2</title>
<g id="a_edge67_Node000045_Node000002"><a xlink:title=" ">
<path fill="none" stroke="#63b8ff" d="M225.24,-338.63C157.39,-333.7 38,-313.4 38,-231.62 38,-231.62 38,-231.62 38,-119.12 38,-88.41 38,-52.8 38,-30.99"/>
<polygon fill="#63b8ff" stroke="#63b8ff" points="41.5,-31.14 38,-21.14 34.5,-31.14 41.5,-31.14"/>
</a>
</g>
</g>
<!-- Node45&#45;&gt;Node4 -->
<g id="edge73_Node000045_Node000004" class="edge">
<title>Node45&#45;&gt;Node4</title>
<g id="a_edge73_Node000045_Node000004"><a xlink:title=" ">
<path fill="none" stroke="#63b8ff" d="M268.9,-331.28C265.81,-318.8 259.59,-295.39 252,-276.25 231.79,-225.29 200.93,-168.45 184.75,-139.8"/>
<polygon fill="#63b8ff" stroke="#63b8ff" points="187.89,-138.23 179.89,-131.27 181.81,-141.7 187.89,-138.23"/>
</a>
</g>
</g>
<!-- Node45&#45;&gt;Node5 -->
<g id="edge64_Node000045_Node000005" class="edge">
<title>Node45&#45;&gt;Node5</title>
<g id="a_edge64_Node000045_Node000005"><a xlink:title=" ">
<path fill="none" stroke="#63b8ff" d="M316.99,-332.1C374.13,-322.12 471.11,-305.19 528.8,-295.12"/>
<polygon fill="#63b8ff" stroke="#63b8ff" points="529.4,-298.56 538.65,-293.4 528.2,-291.67 529.4,-298.56"/>
</a>
</g>
</g>
<!-- Node45&#45;&gt;Node7 -->
<g id="edge65_Node000045_Node000007" class="edge">
<title>Node45&#45;&gt;Node7</title>
<g id="a_edge65_Node000045_Node000007"><a xlink:title=" ">
<path fill="none" stroke="#63b8ff" d="M225.22,-336.21C195.21,-331.3 157.19,-320.27 133,-295.5 112.31,-274.31 114,-261.24 114,-231.62 114,-231.62 114,-231.62 114,-174.38 114,-144.2 115.21,-131.37 137,-110.5 166.81,-81.95 214.63,-71.65 246.66,-67.94"/>
<polygon fill="#63b8ff" stroke="#63b8ff" points="246.98,-71.43 256.59,-66.97 246.3,-64.46 246.98,-71.43"/>
</a>
</g>
</g>
<!-- Node45&#45;&gt;Node10 -->
<g id="edge69_Node000045_Node000010" class="edge">
<title>Node45&#45;&gt;Node10</title>
<g id="a_edge69_Node000045_Node000010"><a xlink:title=" ">
<path fill="none" stroke="#63b8ff" d="M274.73,-331.09C278.18,-322.21 283.06,-308.18 285,-295.5 293.5,-240 287.07,-173.44 282.87,-140.94"/>
<polygon fill="#63b8ff" stroke="#63b8ff" points="286.39,-140.83 281.56,-131.4 279.46,-141.78 286.39,-140.83"/>
</a>
</g>
</g>
<!-- Node45&#45;&gt;Node19 -->
<g id="edge70_Node000045_Node000019" class="edge">
<title>Node45&#45;&gt;Node19</title>
<g id="a_edge70_Node000045_Node000019"><a xlink:title=" ">
<path fill="none" stroke="#63b8ff" d="M316.95,-334.62C342.84,-329.06 373.59,-317.9 392,-295.5 415.09,-267.4 415.6,-222.61 413.53,-196.7"/>
<polygon fill="#63b8ff" stroke="#63b8ff" points="417.03,-196.45 412.52,-186.86 410.06,-197.17 417.03,-196.45"/>
</a>
</g>
</g>
<!-- Node45&#45;&gt;Node28 -->
<g id="edge66_Node000045_Node000028" class="edge">
<title>Node45&#45;&gt;Node28</title>
<g id="a_edge66_Node000045_Node000028"><a xlink:title=" ">
<path fill="none" stroke="#63b8ff" d="M225.28,-334.86C167.65,-325.38 76,-299.62 76,-231.62 76,-231.62 76,-231.62 76,-119.12 76,-40.81 192.72,-18.96 252.12,-12.91"/>
<polygon fill="#63b8ff" stroke="#63b8ff" points="252.38,-16.4 262.02,-12.01 251.74,-9.43 252.38,-16.4"/>
</a>
</g>
</g>
<!-- Node46 -->
<g id="Node000046" class="node">
<title>Node46</title>
<g id="a_Node000046"><a xlink:title=" ">
<polygon fill="#e0e0e0" stroke="#999999" points="382.62,-295.5 337.38,-295.5 337.38,-276.25 382.62,-276.25 382.62,-295.5"/>
<text text-anchor="middle" x="360" y="-282" font-family="Helvetica,sans-Serif" font-size="10.00">cstring</text>
</a>
</g>
</g>
<!-- Node45&#45;&gt;Node46 -->
<g id="edge68_Node000045_Node000046" class="edge">
<title>Node45&#45;&gt;Node46</title>
<g id="a_edge68_Node000045_Node000046"><a xlink:title=" ">
<path fill="none" stroke="#63b8ff" d="M286.1,-331.09C299.52,-323.06 319.41,-311.16 335.17,-301.73"/>
<polygon fill="#63b8ff" stroke="#63b8ff" points="336.75,-304.87 343.53,-296.73 333.15,-298.86 336.75,-304.87"/>
</a>
</g>
</g>
<!-- Node47 -->
<g id="Node000047" class="node">
<title>Node47</title>
<g id="a_Node000047"><a xlink:title=" ">
<polygon fill="#e0e0e0" stroke="#999999" points="184.12,-295.5 141.88,-295.5 141.88,-276.25 184.12,-276.25 184.12,-295.5"/>
<text text-anchor="middle" x="163" y="-282" font-family="Helvetica,sans-Serif" font-size="10.00">TH1.h</text>
</a>
</g>
</g>
<!-- Node45&#45;&gt;Node47 -->
<g id="edge71_Node000045_Node000047" class="edge">
<title>Node45&#45;&gt;Node47</title>
<g id="a_edge71_Node000045_Node000047"><a xlink:title=" ">
<path fill="none" stroke="#63b8ff" d="M252.68,-331.09C235.92,-322.83 210.87,-310.48 191.5,-300.93"/>
<polygon fill="#63b8ff" stroke="#63b8ff" points="193.28,-297.9 182.77,-296.62 190.19,-304.18 193.28,-297.9"/>
</a>
</g>
</g>
<!-- Node48 -->
<g id="Node000048" class="node">
<title>Node48</title>
<g id="a_Node000048"><a xlink:title=" ">
<polygon fill="#e0e0e0" stroke="#999999" points="243.38,-295.5 202.62,-295.5 202.62,-276.25 243.38,-276.25 243.38,-295.5"/>
<text text-anchor="middle" x="223" y="-282" font-family="Helvetica,sans-Serif" font-size="10.00">TF1.h</text>
</a>
</g>
</g>
<!-- Node45&#45;&gt;Node48 -->
<g id="edge72_Node000045_Node000048" class="edge">
<title>Node45&#45;&gt;Node48</title>
<g id="a_edge72_Node000045_Node000048"><a xlink:title=" ">
<path fill="none" stroke="#63b8ff" d="M263.07,-331.33C256.44,-323.98 246.78,-313.26 238.61,-304.19"/>
<polygon fill="#63b8ff" stroke="#63b8ff" points="241.41,-302.07 232.11,-296.98 236.21,-306.75 241.41,-302.07"/>
</a>
</g>
</g>
</g>
</svg>
