<?xml version="1.0" encoding="UTF-8" standalone="no"?>
<!DOCTYPE svg PUBLIC "-//W3C//DTD SVG 1.1//EN"
 "http://www.w3.org/Graphics/SVG/1.1/DTD/svg11.dtd">
<!-- Generated by graphviz version 12.2.0 (20241103.1931)
 -->
<!-- Title: TScaler.h Pages: 1 -->
<svg width="949pt" height="248pt"
 viewBox="0.00 0.00 948.75 248.25" xmlns="http://www.w3.org/2000/svg" xmlns:xlink="http://www.w3.org/1999/xlink">
<g id="graph0" class="graph" transform="scale(1 1) rotate(0) translate(4 244.25)">
<title>TScaler.h</title>
<!-- Node1 -->
<g id="Node000001" class="node">
<title>Node1</title>
<g id="a_Node000001"><a xlink:title=" ">
<polygon fill="#999999" stroke="#666666" points="468.38,-240.25 411.12,-240.25 411.12,-221 468.38,-221 468.38,-240.25"/>
<text text-anchor="middle" x="439.75" y="-226.75" font-family="Helvetica,sans-Serif" font-size="10.00">TScaler.h</text>
</a>
</g>
</g>
<!-- Node2 -->
<g id="Node000002" class="node">
<title>Node2</title>
<g id="a_Node000002"><a xlink:title=" ">
<polygon fill="#e0e0e0" stroke="#999999" points="53.5,-19.25 0,-19.25 0,0 53.5,0 53.5,-19.25"/>
<text text-anchor="middle" x="26.75" y="-5.75" font-family="Helvetica,sans-Serif" font-size="10.00">iostream</text>
</a>
</g>
</g>
<!-- Node1&#45;&gt;Node2 -->
<g id="edge1_Node000001_Node000002" class="edge">
<title>Node1&#45;&gt;Node2</title>
<g id="a_edge1_Node000001_Node000002"><a xlink:title=" ">
<path fill="none" stroke="#63b8ff" d="M410.66,-226.12C328.06,-215.6 94.6,-181.8 40.75,-129.75 14.38,-104.26 17.67,-57.47 22.29,-30.74"/>
<polygon fill="#63b8ff" stroke="#63b8ff" points="25.66,-31.69 24.17,-21.2 18.8,-30.33 25.66,-31.69"/>
</a>
</g>
</g>
<!-- Node3 -->
<g id="Node000003" class="node">
<title>Node3</title>
<g id="a_Node000003"><a xlink:title=" ">
<polygon fill="#e0e0e0" stroke="#999999" points="412.12,-129.75 377.38,-129.75 377.38,-110.5 412.12,-110.5 412.12,-129.75"/>
<text text-anchor="middle" x="394.75" y="-116.25" font-family="Helvetica,sans-Serif" font-size="10.00">map</text>
</a>
</g>
</g>
<!-- Node1&#45;&gt;Node3 -->
<g id="edge2_Node000001_Node000003" class="edge">
<title>Node1&#45;&gt;Node3</title>
<g id="a_edge2_Node000001_Node000003"><a xlink:title=" ">
<path fill="none" stroke="#63b8ff" d="M436.07,-220.75C428.85,-203.34 412.69,-164.37 402.85,-140.66"/>
<polygon fill="#63b8ff" stroke="#63b8ff" points="406.13,-139.42 399.06,-131.52 399.66,-142.1 406.13,-139.42"/>
</a>
</g>
</g>
<!-- Node4 -->
<g id="Node000004" class="node">
<title>Node4</title>
<g id="a_Node000004"><a xlink:title=" ">
<polygon fill="#e0e0e0" stroke="#999999" points="428.75,-74.5 370.75,-74.5 370.75,-55.25 428.75,-55.25 428.75,-74.5"/>
<text text-anchor="middle" x="399.75" y="-61" font-family="Helvetica,sans-Serif" font-size="10.00">TObject.h</text>
</a>
</g>
</g>
<!-- Node1&#45;&gt;Node4 -->
<g id="edge3_Node000001_Node000004" class="edge">
<title>Node1&#45;&gt;Node4</title>
<g id="a_edge3_Node000001_Node000004"><a xlink:title=" ">
<path fill="none" stroke="#63b8ff" d="M439.19,-220.76C437.74,-200.72 433.09,-150.53 420.75,-110.5 418.07,-101.81 414,-92.66 410.16,-84.92"/>
<polygon fill="#63b8ff" stroke="#63b8ff" points="413.31,-83.39 405.58,-76.14 407.11,-86.63 413.31,-83.39"/>
</a>
</g>
</g>
<!-- Node5 -->
<g id="Node000005" class="node">
<title>Node5</title>
<g id="a_Node000005"><a xlink:href="_globals_8h.html" target="_top" xlink:title=" ">
<polygon fill="white" stroke="#666666" points="503,-74.5 446.5,-74.5 446.5,-55.25 503,-55.25 503,-74.5"/>
<text text-anchor="middle" x="474.75" y="-61" font-family="Helvetica,sans-Serif" font-size="10.00">Globals.h</text>
</a>
</g>
</g>
<!-- Node1&#45;&gt;Node5 -->
<g id="edge4_Node000001_Node000005" class="edge">
<title>Node1&#45;&gt;Node5</title>
<g id="a_edge4_Node000001_Node000005"><a xlink:title=" ">
<path fill="none" stroke="#63b8ff" d="M442.88,-220.83C445.97,-211.9 450.67,-197.62 453.75,-185 462.11,-150.74 468.53,-110.18 471.97,-86.32"/>
<polygon fill="#63b8ff" stroke="#63b8ff" points="475.43,-86.81 473.35,-76.42 468.5,-85.84 475.43,-86.81"/>
</a>
</g>
</g>
<!-- Node19 -->
<g id="Node000019" class="node">
<title>Node19</title>
<g id="a_Node000019"><a xlink:title=" ">
<polygon fill="#e0e0e0" stroke="#999999" points="555.25,-185 506.25,-185 506.25,-165.75 555.25,-165.75 555.25,-185"/>
<text text-anchor="middle" x="530.75" y="-171.5" font-family="Helvetica,sans-Serif" font-size="10.00">TTree.h</text>
</a>
</g>
</g>
<!-- Node1&#45;&gt;Node19 -->
<g id="edge19_Node000001_Node000019" class="edge">
<title>Node1&#45;&gt;Node19</title>
<g id="a_edge19_Node000001_Node000019"><a xlink:title=" ">
<path fill="none" stroke="#63b8ff" d="M455.19,-220.59C468.91,-212.56 489.25,-200.66 505.37,-191.23"/>
<polygon fill="#63b8ff" stroke="#63b8ff" points="507.07,-194.29 513.93,-186.22 503.53,-188.25 507.07,-194.29"/>
</a>
</g>
</g>
<!-- Node20 -->
<g id="Node000020" class="node">
<title>Node20</title>
<g id="a_Node000020"><a xlink:title=" ">
<polygon fill="#e0e0e0" stroke="#999999" points="615.88,-185 573.62,-185 573.62,-165.75 615.88,-165.75 615.88,-185"/>
<text text-anchor="middle" x="594.75" y="-171.5" font-family="Helvetica,sans-Serif" font-size="10.00">TH1.h</text>
</a>
</g>
</g>
<!-- Node1&#45;&gt;Node20 -->
<g id="edge20_Node000001_Node000020" class="edge">
<title>Node1&#45;&gt;Node20</title>
<g id="a_edge20_Node000001_Node000020"><a xlink:title=" ">
<path fill="none" stroke="#63b8ff" d="M466.04,-220.59C492.73,-211.42 534.08,-197.22 562.68,-187.39"/>
<polygon fill="#63b8ff" stroke="#63b8ff" points="563.58,-190.79 571.9,-184.23 561.3,-184.17 563.58,-190.79"/>
</a>
</g>
</g>
<!-- Node21 -->
<g id="Node000021" class="node">
<title>Node21</title>
<g id="a_Node000021"><a xlink:href="_t_p_p_g_8h.html" target="_top" xlink:title=" ">
<polygon fill="white" stroke="#666666" points="304,-185 253.5,-185 253.5,-165.75 304,-165.75 304,-185"/>
<text text-anchor="middle" x="278.75" y="-171.5" font-family="Helvetica,sans-Serif" font-size="10.00">TPPG.h</text>
</a>
</g>
</g>
<!-- Node1&#45;&gt;Node21 -->
<g id="edge21_Node000001_Node000021" class="edge">
<title>Node1&#45;&gt;Node21</title>
<g id="a_edge21_Node000001_Node000021"><a xlink:title=" ">
<path fill="none" stroke="#63b8ff" d="M412.44,-220.59C385.63,-211.72 344.57,-198.15 315.04,-188.38"/>
<polygon fill="#63b8ff" stroke="#63b8ff" points="316.36,-185.13 305.77,-185.31 314.16,-191.77 316.36,-185.13"/>
</a>
</g>
</g>
<!-- Node5&#45;&gt;Node2 -->
<g id="edge5_Node000005_Node000002" class="edge">
<title>Node5&#45;&gt;Node2</title>
<g id="a_edge5_Node000005_Node000002"><a xlink:title=" ">
<path fill="none" stroke="#63b8ff" d="M446.14,-56.81C443.32,-56.23 440.48,-55.7 437.75,-55.25 276.07,-28.77 229.87,-46.04 64.84,-19.35"/>
<polygon fill="#63b8ff" stroke="#63b8ff" points="65.72,-15.95 55.29,-17.78 64.58,-22.86 65.72,-15.95"/>
</a>
</g>
</g>
<!-- Node6 -->
<g id="Node000006" class="node">
<title>Node6</title>
<g id="a_Node000006"><a xlink:title=" ">
<polygon fill="#e0e0e0" stroke="#999999" points="806.62,-19.25 756.88,-19.25 756.88,0 806.62,0 806.62,-19.25"/>
<text text-anchor="middle" x="781.75" y="-5.75" font-family="Helvetica,sans-Serif" font-size="10.00">iomanip</text>
</a>
</g>
</g>
<!-- Node5&#45;&gt;Node6 -->
<g id="edge6_Node000005_Node000006" class="edge">
<title>Node5&#45;&gt;Node6</title>
<g id="a_edge6_Node000005_Node000006"><a xlink:title=" ">
<path fill="none" stroke="#63b8ff" d="M503.2,-60.05C551.1,-53.44 651.12,-38.87 745.39,-19.59"/>
<polygon fill="#63b8ff" stroke="#63b8ff" points="745.99,-23.04 755.07,-17.58 744.57,-16.18 745.99,-23.04"/>
</a>
</g>
</g>
<!-- Node7 -->
<g id="Node000007" class="node">
<title>Node7</title>
<g id="a_Node000007"><a xlink:title=" ">
<polygon fill="#e0e0e0" stroke="#999999" points="882.75,-19.25 824.75,-19.25 824.75,0 882.75,0 882.75,-19.25"/>
<text text-anchor="middle" x="853.75" y="-5.75" font-family="Helvetica,sans-Serif" font-size="10.00">stdexcept</text>
</a>
</g>
</g>
<!-- Node5&#45;&gt;Node7 -->
<g id="edge7_Node000005_Node000007" class="edge">
<title>Node5&#45;&gt;Node7</title>
<g id="a_edge7_Node000005_Node000007"><a xlink:title=" ">
<path fill="none" stroke="#63b8ff" d="M503.18,-61.06C560.08,-55.23 692.22,-40.73 813.06,-19.58"/>
<polygon fill="#63b8ff" stroke="#63b8ff" points="813.62,-23.04 822.86,-17.85 812.4,-16.15 813.62,-23.04"/>
</a>
</g>
</g>
<!-- Node8 -->
<g id="Node000008" class="node">
<title>Node8</title>
<g id="a_Node000008"><a xlink:title=" ">
<polygon fill="#e0e0e0" stroke="#999999" points="940.75,-19.25 900.75,-19.25 900.75,0 940.75,0 940.75,-19.25"/>
<text text-anchor="middle" x="920.75" y="-5.75" font-family="Helvetica,sans-Serif" font-size="10.00">string</text>
</a>
</g>
</g>
<!-- Node5&#45;&gt;Node8 -->
<g id="edge8_Node000005_Node000008" class="edge">
<title>Node5&#45;&gt;Node8</title>
<g id="a_edge8_Node000005_Node000008"><a xlink:title=" ">
<path fill="none" stroke="#63b8ff" d="M503.34,-62.61C569.62,-59.31 739,-48.69 889.05,-19.45"/>
<polygon fill="#63b8ff" stroke="#63b8ff" points="889.66,-22.9 898.79,-17.51 888.3,-16.03 889.66,-22.9"/>
</a>
</g>
</g>
<!-- Node9 -->
<g id="Node000009" class="node">
<title>Node9</title>
<g id="a_Node000009"><a xlink:title=" ">
<polygon fill="#e0e0e0" stroke="#999999" points="113.88,-19.25 71.62,-19.25 71.62,0 113.88,0 113.88,-19.25"/>
<text text-anchor="middle" x="92.75" y="-5.75" font-family="Helvetica,sans-Serif" font-size="10.00">cstdio</text>
</a>
</g>
</g>
<!-- Node5&#45;&gt;Node9 -->
<g id="edge9_Node000005_Node000009" class="edge">
<title>Node5&#45;&gt;Node9</title>
<g id="a_edge9_Node000005_Node000009"><a xlink:title=" ">
<path fill="none" stroke="#63b8ff" d="M446.13,-56.86C443.31,-56.27 440.48,-55.72 437.75,-55.25 302.43,-31.83 262.93,-46.05 125.24,-19.44"/>
<polygon fill="#63b8ff" stroke="#63b8ff" points="126.25,-16.07 115.76,-17.57 124.89,-22.94 126.25,-16.07"/>
</a>
</g>
</g>
<!-- Node10 -->
<g id="Node000010" class="node">
<title>Node10</title>
<g id="a_Node000010"><a xlink:title=" ">
<polygon fill="#e0e0e0" stroke="#999999" points="176,-19.25 131.5,-19.25 131.5,0 176,0 176,-19.25"/>
<text text-anchor="middle" x="153.75" y="-5.75" font-family="Helvetica,sans-Serif" font-size="10.00">cstdlib</text>
</a>
</g>
</g>
<!-- Node5&#45;&gt;Node10 -->
<g id="edge10_Node000005_Node000010" class="edge">
<title>Node5&#45;&gt;Node10</title>
<g id="a_edge10_Node000005_Node000010"><a xlink:title=" ">
<path fill="none" stroke="#63b8ff" d="M446.12,-56.94C443.3,-56.33 440.47,-55.76 437.75,-55.25 329.6,-34.99 297.88,-42.04 187.31,-19.55"/>
<polygon fill="#63b8ff" stroke="#63b8ff" points="188.34,-16.19 177.84,-17.59 186.92,-23.04 188.34,-16.19"/>
</a>
</g>
</g>
<!-- Node11 -->
<g id="Node000011" class="node">
<title>Node11</title>
<g id="a_Node000011"><a xlink:title=" ">
<polygon fill="#e0e0e0" stroke="#999999" points="253.5,-19.25 194,-19.25 194,0 253.5,0 253.5,-19.25"/>
<text text-anchor="middle" x="223.75" y="-5.75" font-family="Helvetica,sans-Serif" font-size="10.00">execinfo.h</text>
</a>
</g>
</g>
<!-- Node5&#45;&gt;Node11 -->
<g id="edge11_Node000005_Node000011" class="edge">
<title>Node5&#45;&gt;Node11</title>
<g id="a_edge11_Node000005_Node000011"><a xlink:title=" ">
<path fill="none" stroke="#63b8ff" d="M446.08,-57.11C443.27,-56.47 440.46,-55.84 437.75,-55.25 363.67,-39 342.3,-36.07 265.23,-19.75"/>
<polygon fill="#63b8ff" stroke="#63b8ff" points="265.96,-16.33 255.45,-17.67 264.51,-23.17 265.96,-16.33"/>
</a>
</g>
</g>
<!-- Node12 -->
<g id="Node000012" class="node">
<title>Node12</title>
<g id="a_Node000012"><a xlink:title=" ">
<polygon fill="#e0e0e0" stroke="#999999" points="322,-19.25 271.5,-19.25 271.5,0 322,0 322,-19.25"/>
<text text-anchor="middle" x="296.75" y="-5.75" font-family="Helvetica,sans-Serif" font-size="10.00">cxxabi.h</text>
</a>
</g>
</g>
<!-- Node5&#45;&gt;Node12 -->
<g id="edge12_Node000005_Node000012" class="edge">
<title>Node5&#45;&gt;Node12</title>
<g id="a_edge12_Node000005_Node000012"><a xlink:title=" ">
<path fill="none" stroke="#63b8ff" d="M446.15,-55.32C415.43,-46.13 366.51,-31.5 333.08,-21.49"/>
<polygon fill="#63b8ff" stroke="#63b8ff" points="334.42,-18.24 323.84,-18.73 332.42,-24.95 334.42,-18.24"/>
</a>
</g>
</g>
<!-- Node13 -->
<g id="Node000013" class="node">
<title>Node13</title>
<g id="a_Node000013"><a xlink:title=" ">
<polygon fill="#e0e0e0" stroke="#999999" points="391.38,-19.25 340.12,-19.25 340.12,0 391.38,0 391.38,-19.25"/>
<text text-anchor="middle" x="365.75" y="-5.75" font-family="Helvetica,sans-Serif" font-size="10.00">sstream</text>
</a>
</g>
</g>
<!-- Node5&#45;&gt;Node13 -->
<g id="edge13_Node000005_Node000013" class="edge">
<title>Node5&#45;&gt;Node13</title>
<g id="a_edge13_Node000005_Node000013"><a xlink:title=" ">
<path fill="none" stroke="#63b8ff" d="M456.26,-54.84C439.35,-46.58 414.06,-34.23 394.51,-24.68"/>
<polygon fill="#63b8ff" stroke="#63b8ff" points="396.21,-21.61 385.69,-20.37 393.14,-27.9 396.21,-21.61"/>
</a>
</g>
</g>
<!-- Node14 -->
<g id="Node000014" class="node">
<title>Node14</title>
<g id="a_Node000014"><a xlink:title=" ">
<polygon fill="#e0e0e0" stroke="#999999" points="446.25,-19.25 409.25,-19.25 409.25,0 446.25,0 446.25,-19.25"/>
<text text-anchor="middle" x="427.75" y="-5.75" font-family="Helvetica,sans-Serif" font-size="10.00">array</text>
</a>
</g>
</g>
<!-- Node5&#45;&gt;Node14 -->
<g id="edge14_Node000005_Node000014" class="edge">
<title>Node5&#45;&gt;Node14</title>
<g id="a_edge14_Node000005_Node000014"><a xlink:title=" ">
<path fill="none" stroke="#63b8ff" d="M466.99,-55.08C460.56,-47.8 451.24,-37.23 443.29,-28.23"/>
<polygon fill="#63b8ff" stroke="#63b8ff" points="445.92,-25.93 436.68,-20.74 440.67,-30.56 445.92,-25.93"/>
</a>
</g>
</g>
<!-- Node15 -->
<g id="Node000015" class="node">
<title>Node15</title>
<g id="a_Node000015"><a xlink:title=" ">
<polygon fill="#e0e0e0" stroke="#999999" points="515,-19.25 464.5,-19.25 464.5,0 515,0 515,-19.25"/>
<text text-anchor="middle" x="489.75" y="-5.75" font-family="Helvetica,sans-Serif" font-size="10.00">memory</text>
</a>
</g>
</g>
<!-- Node5&#45;&gt;Node15 -->
<g id="edge15_Node000005_Node000015" class="edge">
<title>Node5&#45;&gt;Node15</title>
<g id="a_edge15_Node000005_Node000015"><a xlink:title=" ">
<path fill="none" stroke="#63b8ff" d="M477.23,-55.08C479.1,-48.42 481.76,-38.99 484.14,-30.53"/>
<polygon fill="#63b8ff" stroke="#63b8ff" points="487.47,-31.64 486.81,-21.07 480.73,-29.74 487.47,-31.64"/>
</a>
</g>
</g>
<!-- Node16 -->
<g id="Node000016" class="node">
<title>Node16</title>
<g id="a_Node000016"><a xlink:title=" ">
<polygon fill="#e0e0e0" stroke="#999999" points="582.62,-19.25 532.88,-19.25 532.88,0 582.62,0 582.62,-19.25"/>
<text text-anchor="middle" x="557.75" y="-5.75" font-family="Helvetica,sans-Serif" font-size="10.00">unistd.h</text>
</a>
</g>
</g>
<!-- Node5&#45;&gt;Node16 -->
<g id="edge16_Node000005_Node000016" class="edge">
<title>Node5&#45;&gt;Node16</title>
<g id="a_edge16_Node000005_Node000016"><a xlink:title=" ">
<path fill="none" stroke="#63b8ff" d="M488.83,-54.84C501.23,-46.89 519.54,-35.14 534.18,-25.75"/>
<polygon fill="#63b8ff" stroke="#63b8ff" points="535.8,-28.87 542.33,-20.52 532.02,-22.97 535.8,-28.87"/>
</a>
</g>
</g>
<!-- Node17 -->
<g id="Node000017" class="node">
<title>Node17</title>
<g id="a_Node000017"><a xlink:title=" ">
<polygon fill="#e0e0e0" stroke="#999999" points="660.5,-19.25 601,-19.25 601,0 660.5,0 660.5,-19.25"/>
<text text-anchor="middle" x="630.75" y="-5.75" font-family="Helvetica,sans-Serif" font-size="10.00">sys/wait.h</text>
</a>
</g>
</g>
<!-- Node5&#45;&gt;Node17 -->
<g id="edge17_Node000005_Node000017" class="edge">
<title>Node5&#45;&gt;Node17</title>
<g id="a_edge17_Node000005_Node000017"><a xlink:title=" ">
<path fill="none" stroke="#63b8ff" d="M501.21,-54.84C526.54,-46.2 564.98,-33.07 593.42,-23.37"/>
<polygon fill="#63b8ff" stroke="#63b8ff" points="594.39,-26.73 602.72,-20.19 592.13,-20.11 594.39,-26.73"/>
</a>
</g>
</g>
<!-- Node18 -->
<g id="Node000018" class="node">
<title>Node18</title>
<g id="a_Node000018"><a xlink:title=" ">
<polygon fill="#e0e0e0" stroke="#999999" points="738.88,-19.25 678.62,-19.25 678.62,0 738.88,0 738.88,-19.25"/>
<text text-anchor="middle" x="708.75" y="-5.75" font-family="Helvetica,sans-Serif" font-size="10.00">sys/prctl.h</text>
</a>
</g>
</g>
<!-- Node5&#45;&gt;Node18 -->
<g id="edge18_Node000005_Node000018" class="edge">
<title>Node5&#45;&gt;Node18</title>
<g id="a_edge18_Node000005_Node000018"><a xlink:title=" ">
<path fill="none" stroke="#63b8ff" d="M503.44,-57.35C544.48,-48.01 620.18,-30.78 667.3,-20.06"/>
<polygon fill="#63b8ff" stroke="#63b8ff" points="667.89,-23.51 676.86,-17.88 666.34,-16.69 667.89,-23.51"/>
</a>
</g>
</g>
<!-- Node21&#45;&gt;Node2 -->
<g id="edge24_Node000021_Node000002" class="edge">
<title>Node21&#45;&gt;Node2</title>
<g id="a_edge24_Node000021_Node000002"><a xlink:title=" ">
<path fill="none" stroke="#63b8ff" d="M253.14,-172.51C201.34,-168.23 86.66,-155.97 58.75,-129.75 31.39,-104.04 26.5,-57.68 26.13,-31.01"/>
<polygon fill="#63b8ff" stroke="#63b8ff" points="29.63,-31.22 26.22,-21.18 22.63,-31.15 29.63,-31.22"/>
</a>
</g>
</g>
<!-- Node21&#45;&gt;Node3 -->
<g id="edge22_Node000021_Node000003" class="edge">
<title>Node21&#45;&gt;Node3</title>
<g id="a_edge22_Node000021_Node000003"><a xlink:title=" ">
<path fill="none" stroke="#63b8ff" d="M298.43,-165.34C317.14,-156.75 345.49,-143.74 366.6,-134.05"/>
<polygon fill="#63b8ff" stroke="#63b8ff" points="367.88,-137.31 375.51,-129.96 364.96,-130.95 367.88,-137.31"/>
</a>
</g>
</g>
<!-- Node21&#45;&gt;Node4 -->
<g id="edge25_Node000021_Node000004" class="edge">
<title>Node21&#45;&gt;Node4</title>
<g id="a_edge25_Node000021_Node000004"><a xlink:title=" ">
<path fill="none" stroke="#63b8ff" d="M275.02,-165.59C270.04,-152.34 263.1,-127.03 274.75,-110.5 279.92,-103.17 325.01,-88.26 359.57,-77.69"/>
<polygon fill="#63b8ff" stroke="#63b8ff" points="360.35,-81.11 368.91,-74.87 358.32,-74.41 360.35,-81.11"/>
</a>
</g>
</g>
<!-- Node21&#45;&gt;Node5 -->
<g id="edge27_Node000021_Node000005" class="edge">
<title>Node21&#45;&gt;Node5</title>
<g id="a_edge27_Node000021_Node000005"><a xlink:title=" ">
<path fill="none" stroke="#63b8ff" d="M289.87,-165.26C306.36,-152.04 338.61,-127.27 368.75,-110.5 391.08,-98.07 417.58,-86.92 438.5,-78.87"/>
<polygon fill="#63b8ff" stroke="#63b8ff" points="439.64,-82.18 447.76,-75.37 437.17,-75.63 439.64,-82.18"/>
</a>
</g>
</g>
<!-- Node22 -->
<g id="Node000022" class="node">
<title>Node22</title>
<g id="a_Node000022"><a xlink:title=" ">
<polygon fill="#e0e0e0" stroke="#999999" points="322,-129.75 283.5,-129.75 283.5,-110.5 322,-110.5 322,-129.75"/>
<text text-anchor="middle" x="302.75" y="-116.25" font-family="Helvetica,sans-Serif" font-size="10.00">utility</text>
</a>
</g>
</g>
<!-- Node21&#45;&gt;Node22 -->
<g id="edge23_Node000021_Node000022" class="edge">
<title>Node21&#45;&gt;Node22</title>
<g id="a_edge23_Node000021_Node000022"><a xlink:title=" ">
<path fill="none" stroke="#63b8ff" d="M282.71,-165.58C285.79,-158.76 290.16,-149.06 294.04,-140.45"/>
<polygon fill="#63b8ff" stroke="#63b8ff" points="297.16,-142.04 298.08,-131.49 290.78,-139.17 297.16,-142.04"/>
</a>
</g>
</g>
<!-- Node23 -->
<g id="Node000023" class="node">
<title>Node23</title>
<g id="a_Node000023"><a xlink:title=" ">
<polygon fill="#e0e0e0" stroke="#999999" points="139.88,-129.75 67.62,-129.75 67.62,-110.5 139.88,-110.5 139.88,-129.75"/>
<text text-anchor="middle" x="103.75" y="-116.25" font-family="Helvetica,sans-Serif" font-size="10.00">TCollection.h</text>
</a>
</g>
</g>
<!-- Node21&#45;&gt;Node23 -->
<g id="edge26_Node000021_Node000023" class="edge">
<title>Node21&#45;&gt;Node23</title>
<g id="a_edge26_Node000021_Node000023"><a xlink:title=" ">
<path fill="none" stroke="#63b8ff" d="M253.3,-166.63C224.77,-157.95 178.1,-143.75 144.48,-133.52"/>
<polygon fill="#63b8ff" stroke="#63b8ff" points="145.66,-130.22 135.07,-130.66 143.62,-136.92 145.66,-130.22"/>
</a>
</g>
</g>
<!-- Node24 -->
<g id="Node000024" class="node">
<title>Node24</title>
<g id="a_Node000024"><a xlink:href="_t_singleton_8h.html" target="_top" xlink:title=" ">
<polygon fill="white" stroke="#666666" points="227.75,-129.75 157.75,-129.75 157.75,-110.5 227.75,-110.5 227.75,-129.75"/>
<text text-anchor="middle" x="192.75" y="-116.25" font-family="Helvetica,sans-Serif" font-size="10.00">TSingleton.h</text>
</a>
</g>
</g>
<!-- Node21&#45;&gt;Node24 -->
<g id="edge28_Node000021_Node000024" class="edge">
<title>Node21&#45;&gt;Node24</title>
<g id="a_edge28_Node000021_Node000024"><a xlink:title=" ">
<path fill="none" stroke="#63b8ff" d="M264.16,-165.34C251.31,-157.39 232.34,-145.64 217.18,-136.25"/>
<polygon fill="#63b8ff" stroke="#63b8ff" points="219.04,-133.29 208.7,-131 215.36,-139.24 219.04,-133.29"/>
</a>
</g>
</g>
<!-- Node24&#45;&gt;Node2 -->
<g id="edge29_Node000024_Node000002" class="edge">
<title>Node24&#45;&gt;Node2</title>
<g id="a_edge29_Node000024_Node000002"><a xlink:title=" ">
<path fill="none" stroke="#63b8ff" d="M192.65,-110.39C192.01,-96.74 188.76,-70.35 173.75,-55.25 165.89,-47.34 105.54,-30.72 64.65,-20.14"/>
<polygon fill="#63b8ff" stroke="#63b8ff" points="65.72,-16.8 55.16,-17.71 63.98,-23.58 65.72,-16.8"/>
</a>
</g>
</g>
<!-- Node24&#45;&gt;Node4 -->
<g id="edge30_Node000024_Node000004" class="edge">
<title>Node24&#45;&gt;Node4</title>
<g id="a_edge30_Node000024_Node000004"><a xlink:title=" ">
<path fill="none" stroke="#63b8ff" d="M227.86,-110.09C264.4,-100.69 321.51,-86 359.76,-76.16"/>
<polygon fill="#63b8ff" stroke="#63b8ff" points="360.22,-79.66 369.03,-73.78 358.47,-72.88 360.22,-79.66"/>
</a>
</g>
</g>
<!-- Node24&#45;&gt;Node5 -->
<g id="edge35_Node000024_Node000005" class="edge">
<title>Node24&#45;&gt;Node5</title>
<g id="a_edge35_Node000024_Node000005"><a xlink:title=" ">
<path fill="none" stroke="#63b8ff" d="M228.15,-113.24C273.74,-105.53 355.67,-91.27 434.93,-75.01"/>
<polygon fill="#63b8ff" stroke="#63b8ff" points="435.53,-78.46 444.62,-73.01 434.11,-71.6 435.53,-78.46"/>
</a>
</g>
</g>
<!-- Node25 -->
<g id="Node000025" class="node">
<title>Node25</title>
<g id="a_Node000025"><a xlink:title=" ">
<polygon fill="#e0e0e0" stroke="#999999" points="352.62,-74.5 284.88,-74.5 284.88,-55.25 352.62,-55.25 352.62,-74.5"/>
<text text-anchor="middle" x="318.75" y="-61" font-family="Helvetica,sans-Serif" font-size="10.00">TDirectory.h</text>
</a>
</g>
</g>
<!-- Node24&#45;&gt;Node25 -->
<g id="edge31_Node000024_Node000025" class="edge">
<title>Node24&#45;&gt;Node25</title>
<g id="a_edge31_Node000024_Node000025"><a xlink:title=" ">
<path fill="none" stroke="#63b8ff" d="M214.12,-110.09C234.04,-101.68 263.99,-89.02 286.75,-79.4"/>
<polygon fill="#63b8ff" stroke="#63b8ff" points="288.03,-82.66 295.88,-75.54 285.3,-76.21 288.03,-82.66"/>
</a>
</g>
</g>
<!-- Node26 -->
<g id="Node000026" class="node">
<title>Node26</title>
<g id="a_Node000026"><a xlink:title=" ">
<polygon fill="#e0e0e0" stroke="#999999" points="100.38,-74.5 55.12,-74.5 55.12,-55.25 100.38,-55.25 100.38,-74.5"/>
<text text-anchor="middle" x="77.75" y="-61" font-family="Helvetica,sans-Serif" font-size="10.00">TFile.h</text>
</a>
</g>
</g>
<!-- Node24&#45;&gt;Node26 -->
<g id="edge32_Node000024_Node000026" class="edge">
<title>Node24&#45;&gt;Node26</title>
<g id="a_edge32_Node000024_Node000026"><a xlink:title=" ">
<path fill="none" stroke="#63b8ff" d="M173.24,-110.09C155.23,-101.75 128.23,-89.25 107.52,-79.66"/>
<polygon fill="#63b8ff" stroke="#63b8ff" points="109.27,-76.61 98.73,-75.59 106.33,-82.97 109.27,-76.61"/>
</a>
</g>
</g>
<!-- Node27 -->
<g id="Node000027" class="node">
<title>Node27</title>
<g id="a_Node000027"><a xlink:title=" ">
<polygon fill="#e0e0e0" stroke="#999999" points="164.75,-74.5 118.75,-74.5 118.75,-55.25 164.75,-55.25 164.75,-74.5"/>
<text text-anchor="middle" x="141.75" y="-61" font-family="Helvetica,sans-Serif" font-size="10.00">TList.h</text>
</a>
</g>
</g>
<!-- Node24&#45;&gt;Node27 -->
<g id="edge33_Node000024_Node000027" class="edge">
<title>Node24&#45;&gt;Node27</title>
<g id="a_edge33_Node000024_Node000027"><a xlink:title=" ">
<path fill="none" stroke="#63b8ff" d="M184.33,-110.33C177.21,-102.9 166.81,-92.04 158.06,-82.91"/>
<polygon fill="#63b8ff" stroke="#63b8ff" points="160.85,-80.75 151.4,-75.95 155.79,-85.6 160.85,-80.75"/>
</a>
</g>
</g>
<!-- Node28 -->
<g id="Node000028" class="node">
<title>Node28</title>
<g id="a_Node000028"><a xlink:title=" ">
<polygon fill="#e0e0e0" stroke="#999999" points="266.75,-74.5 220.75,-74.5 220.75,-55.25 266.75,-55.25 266.75,-74.5"/>
<text text-anchor="middle" x="243.75" y="-61" font-family="Helvetica,sans-Serif" font-size="10.00">TKey.h</text>
</a>
</g>
</g>
<!-- Node24&#45;&gt;Node28 -->
<g id="edge34_Node000024_Node000028" class="edge">
<title>Node24&#45;&gt;Node28</title>
<g id="a_edge34_Node000024_Node000028"><a xlink:title=" ">
<path fill="none" stroke="#63b8ff" d="M201.17,-110.33C208.29,-102.9 218.69,-92.04 227.44,-82.91"/>
<polygon fill="#63b8ff" stroke="#63b8ff" points="229.71,-85.6 234.1,-75.95 224.65,-80.75 229.71,-85.6"/>
</a>
</g>
</g>
</g>
</svg>
