<?xml version="1.0" encoding="UTF-8" standalone="no"?>
<!DOCTYPE svg PUBLIC "-//W3C//DTD SVG 1.1//EN"
 "http://www.w3.org/Graphics/SVG/1.1/DTD/svg11.dtd">
<!-- Generated by graphviz version 12.2.0 (20241103.1931)
 -->
<!-- Title: TSortingDiagnostics.cxx Pages: 1 -->
<!--zoomable 248 -->

<svg id="main" version="1.1" xmlns="http://www.w3.org/2000/svg" xmlns:xlink="http://www.w3.org/1999/xlink" xml:space="preserve" onload="init(evt)">

<style type="text/css"><![CDATA[
.node, .edge {opacity: 0.7;}
.node.selected, .edge.selected {opacity: 1;}
.edge:hover path { stroke: red; }
.edge:hover polygon { stroke: red; fill: red; }
]]></style>

<defs>
  <circle id="rim" cx="0" cy="0" r="7"/>
  <circle id="rim2" cx="0" cy="0" r="3.5"/>
  <g id="zoomPlus">
    <use xlink:href="#rim" fill="#404040"><set attributeName="fill" to="#808080" begin="zoomplus.mouseover" end="zoomplus.mouseout"/></use>
    <path d="M-4,0h8M0,-4v8" fill="none" stroke="white" stroke-width="1.5" pointer-events="none"/>
  </g>
  <g id="zoomMin">
    <use xlink:href="#rim" fill="#404040"><set attributeName="fill" to="#808080" begin="zoomminus.mouseover" end="zoomminus.mouseout"/></use>
    <path d="M-4,0h8" fill="none" stroke="white" stroke-width="1.5" pointer-events="none"/>
  </g>
  <g id="arrowUp" transform="translate(30 24)">
    <use xlink:href="#rim"/>
    <path pointer-events="none" fill="none" stroke="white" stroke-width="1.5" d="M0,-3.0v7 M-2.5,-0.5L0,-3.0L2.5,-0.5"/>
  </g>
  <g id="arrowRight" transform="rotate(90) translate(36 -43)">
    <use xlink:href="#rim"/>
    <path pointer-events="none" fill="none" stroke="white" stroke-width="1.5" d="M0,-3.0v7 M-2.5,-0.5L0,-3.0L2.5,-0.5"/>
  </g>
  <g id="arrowDown" transform="rotate(180) translate(-30 -48)">
    <use xlink:href="#rim"/>
    <path pointer-events="none" fill="none" stroke="white" stroke-width="1.5" d="M0,-3.0v7 M-2.5,-0.5L0,-3.0L2.5,-0.5"/>
  </g>
  <g id="arrowLeft" transform="rotate(270) translate(-36 17)">
    <use xlink:href="#rim"/>
    <path pointer-events="none" fill="none" stroke="white" stroke-width="1.5" d="M0,-3.0v7 M-2.5,-0.5L0,-3.0L2.5,-0.5"/>
  </g>
  <g id="resetDef">
    <use xlink:href="#rim2" fill="#404040"><set attributeName="fill" to="#808080" begin="reset.mouseover" end="reset.mouseout"/></use>
  </g>
</defs>
<script type="application/ecmascript">
var viewWidth = 1587;
var viewHeight = 248;
var sectionId = 'dynsection-0';
</script>
<script type="application/ecmascript" xlink:href="svg.min.js"/>
<svg id="graph" class="graph">
<g id="viewport">
<title>TSortingDiagnostics.cxx</title>
<!-- Node1 -->
<g id="Node000001" class="node">
<title>Node1</title>
<g id="a_Node000001"><a xlink:title=" ">
<polygon fill="#999999" stroke="#666666" points="708.18,-240.25 587.93,-240.25 587.93,-221 708.18,-221 708.18,-240.25"/>
<text text-anchor="middle" x="648.06" y="-226.75" font-family="Helvetica,sans-Serif" font-size="10.00">TSortingDiagnostics.cxx</text>
</a>
</g>
</g>
<!-- Node2 -->
<g id="Node000002" class="node">
<title>Node2</title>
<g id="a_Node000002"><a xlink:href="_t_sorting_diagnostics_8h.html" target="_top" xlink:title=" ">
<polygon fill="white" stroke="#666666" points="703.68,-185 592.43,-185 592.43,-165.75 703.68,-165.75 703.68,-185"/>
<text text-anchor="middle" x="648.06" y="-171.5" font-family="Helvetica,sans-Serif" font-size="10.00">TSortingDiagnostics.h</text>
</a>
</g>
</g>
<!-- Node1&#45;&gt;Node2 -->
<g id="edge1_Node000001_Node000002" class="edge">
<title>Node1&#45;&gt;Node2</title>
<g id="a_edge1_Node000001_Node000002"><a xlink:title=" ">
<path fill="none" stroke="#63b8ff" d="M648.06,-220.83C648.06,-214.32 648.06,-205.17 648.06,-196.87"/>
<polygon fill="#63b8ff" stroke="#63b8ff" points="651.56,-196.87 648.06,-186.87 644.56,-196.87 651.56,-196.87"/>
</a>
</g>
</g>
<!-- Node6 -->
<g id="Node000006" class="node">
<title>Node6</title>
<g id="a_Node000006"><a xlink:href="_t_channel_8h.html" target="_top" xlink:title=" ">
<polygon fill="white" stroke="#666666" points="398.43,-129.75 333.68,-129.75 333.68,-110.5 398.43,-110.5 398.43,-129.75"/>
<text text-anchor="middle" x="366.06" y="-116.25" font-family="Helvetica,sans-Serif" font-size="10.00">TChannel.h</text>
</a>
</g>
</g>
<!-- Node1&#45;&gt;Node6 -->
<g id="edge42_Node000001_Node000006" class="edge">
<title>Node1&#45;&gt;Node6</title>
<g id="a_edge42_Node000001_Node000006"><a xlink:title=" ">
<path fill="none" stroke="#63b8ff" d="M624.5,-220.56C574.63,-201.37 458.23,-156.59 400.2,-134.26"/>
<polygon fill="#63b8ff" stroke="#63b8ff" points="401.75,-131.11 391.16,-130.78 399.23,-137.64 401.75,-131.11"/>
</a>
</g>
</g>
<!-- Node7 -->
<g id="Node000007" class="node">
<title>Node7</title>
<g id="a_Node000007"><a xlink:title=" ">
<polygon fill="#e0e0e0" stroke="#999999" points="263.06,-19.25 223.06,-19.25 223.06,0 263.06,0 263.06,-19.25"/>
<text text-anchor="middle" x="243.06" y="-5.75" font-family="Helvetica,sans-Serif" font-size="10.00">string</text>
</a>
</g>
</g>
<!-- Node1&#45;&gt;Node7 -->
<g id="edge41_Node000001_Node000007" class="edge">
<title>Node1&#45;&gt;Node7</title>
<g id="a_edge41_Node000001_Node000007"><a xlink:title=" ">
<path fill="none" stroke="#63b8ff" d="M587.59,-224.38C441.6,-210.33 76.55,-166.53 4.06,-74.5 -1.24,-67.78 -1.41,-61.83 4.06,-55.25 30.11,-23.88 152.95,-14.45 211.66,-11.7"/>
<polygon fill="#63b8ff" stroke="#63b8ff" points="211.47,-15.21 221.32,-11.29 211.18,-8.22 211.47,-15.21"/>
</a>
</g>
</g>
<!-- Node35 -->
<g id="Node000035" class="node">
<title>Node35</title>
<g id="a_Node000035"><a xlink:title=" ">
<polygon fill="#e0e0e0" stroke="#999999" points="1164.56,-185 1115.56,-185 1115.56,-165.75 1164.56,-165.75 1164.56,-185"/>
<text text-anchor="middle" x="1140.06" y="-171.5" font-family="Helvetica,sans-Serif" font-size="10.00">fstream</text>
</a>
</g>
</g>
<!-- Node1&#45;&gt;Node35 -->
<g id="edge40_Node000001_Node000035" class="edge">
<title>Node1&#45;&gt;Node35</title>
<g id="a_edge40_Node000001_Node000035"><a xlink:title=" ">
<path fill="none" stroke="#63b8ff" d="M708.62,-226.8C794.68,-222.12 957.38,-210.77 1104.29,-185.24"/>
<polygon fill="#63b8ff" stroke="#63b8ff" points="1104.56,-188.75 1113.79,-183.56 1103.34,-181.86 1104.56,-188.75"/>
</a>
</g>
</g>
<!-- Node36 -->
<g id="Node000036" class="node">
<title>Node36</title>
<g id="a_Node000036"><a xlink:href="_t_g_r_s_i_options_8h.html" target="_top" xlink:title=" ">
<polygon fill="white" stroke="#666666" points="1097.68,-185 1010.43,-185 1010.43,-165.75 1097.68,-165.75 1097.68,-185"/>
<text text-anchor="middle" x="1054.06" y="-171.5" font-family="Helvetica,sans-Serif" font-size="10.00">TGRSIOptions.h</text>
</a>
</g>
</g>
<!-- Node1&#45;&gt;Node36 -->
<g id="edge43_Node000001_Node000036" class="edge">
<title>Node1&#45;&gt;Node36</title>
<g id="a_edge43_Node000001_Node000036"><a xlink:title=" ">
<path fill="none" stroke="#63b8ff" d="M708.4,-221.71C786.88,-211.42 922.87,-193.58 998.77,-183.63"/>
<polygon fill="#63b8ff" stroke="#63b8ff" points="999.01,-187.12 1008.47,-182.35 998.1,-180.18 999.01,-187.12"/>
</a>
</g>
</g>
<!-- Node3 -->
<g id="Node000003" class="node">
<title>Node3</title>
<g id="a_Node000003"><a xlink:title=" ">
<polygon fill="#e0e0e0" stroke="#999999" points="455.56,-19.25 412.56,-19.25 412.56,0 455.56,0 455.56,-19.25"/>
<text text-anchor="middle" x="434.06" y="-5.75" font-family="Helvetica,sans-Serif" font-size="10.00">vector</text>
</a>
</g>
</g>
<!-- Node2&#45;&gt;Node3 -->
<g id="edge2_Node000002_Node000003" class="edge">
<title>Node2&#45;&gt;Node3</title>
<g id="a_edge2_Node000002_Node000003"><a xlink:title=" ">
<path fill="none" stroke="#63b8ff" d="M649.65,-165.47C653.03,-143.52 658.38,-86.32 629.06,-55.25 580.24,-3.52 541.28,-34.06 467.22,-19.41"/>
<polygon fill="#63b8ff" stroke="#63b8ff" points="468.03,-16 457.51,-17.23 466.5,-22.83 468.03,-16"/>
</a>
</g>
</g>
<!-- Node4 -->
<g id="Node000004" class="node">
<title>Node4</title>
<g id="a_Node000004"><a xlink:title=" ">
<polygon fill="#e0e0e0" stroke="#999999" points="620.43,-74.5 537.68,-74.5 537.68,-55.25 620.43,-55.25 620.43,-74.5"/>
<text text-anchor="middle" x="579.06" y="-61" font-family="Helvetica,sans-Serif" font-size="10.00">unordered_map</text>
</a>
</g>
</g>
<!-- Node2&#45;&gt;Node4 -->
<g id="edge3_Node000002_Node000004" class="edge">
<title>Node2&#45;&gt;Node4</title>
<g id="a_edge3_Node000002_Node000004"><a xlink:title=" ">
<path fill="none" stroke="#63b8ff" d="M642.41,-165.5C631.19,-147.85 605.88,-108.05 590.87,-84.45"/>
<polygon fill="#63b8ff" stroke="#63b8ff" points="593.91,-82.71 585.59,-76.15 588.01,-86.47 593.91,-82.71"/>
</a>
</g>
</g>
<!-- Node5 -->
<g id="Node000005" class="node">
<title>Node5</title>
<g id="a_Node000005"><a xlink:title=" ">
<polygon fill="#e0e0e0" stroke="#999999" points="1164.06,-74.5 1106.06,-74.5 1106.06,-55.25 1164.06,-55.25 1164.06,-74.5"/>
<text text-anchor="middle" x="1135.06" y="-61" font-family="Helvetica,sans-Serif" font-size="10.00">TObject.h</text>
</a>
</g>
</g>
<!-- Node2&#45;&gt;Node5 -->
<g id="edge4_Node000002_Node000005" class="edge">
<title>Node2&#45;&gt;Node5</title>
<g id="a_edge4_Node000002_Node000005"><a xlink:title=" ">
<path fill="none" stroke="#63b8ff" d="M704.12,-172.47C773.97,-168.91 896.39,-158.73 997.06,-129.75 1038.49,-117.82 1083.22,-95.11 1110.18,-80.24"/>
<polygon fill="#63b8ff" stroke="#63b8ff" points="1111.6,-83.46 1118.61,-75.51 1108.18,-77.35 1111.6,-83.46"/>
</a>
</g>
</g>
<!-- Node2&#45;&gt;Node6 -->
<g id="edge5_Node000002_Node000006" class="edge">
<title>Node2&#45;&gt;Node6</title>
<g id="a_edge5_Node000002_Node000006"><a xlink:title=" ">
<path fill="none" stroke="#63b8ff" d="M599.9,-165.28C546.52,-155.2 461.18,-139.09 409.69,-129.36"/>
<polygon fill="#63b8ff" stroke="#63b8ff" points="410.58,-125.97 400.1,-127.55 409.28,-132.85 410.58,-125.97"/>
</a>
</g>
</g>
<!-- Node16 -->
<g id="Node000016" class="node">
<title>Node16</title>
<g id="a_Node000016"><a xlink:href="_t_singleton_8h.html" target="_top" xlink:title=" ">
<polygon fill="white" stroke="#666666" points="988.06,-129.75 918.06,-129.75 918.06,-110.5 988.06,-110.5 988.06,-129.75"/>
<text text-anchor="middle" x="953.06" y="-116.25" font-family="Helvetica,sans-Serif" font-size="10.00">TSingleton.h</text>
</a>
</g>
</g>
<!-- Node2&#45;&gt;Node16 -->
<g id="edge18_Node000002_Node000016" class="edge">
<title>Node2&#45;&gt;Node16</title>
<g id="a_edge18_Node000002_Node000016"><a xlink:title=" ">
<path fill="none" stroke="#63b8ff" d="M700.14,-165.28C758.12,-155.16 850.95,-138.95 906.56,-129.24"/>
<polygon fill="#63b8ff" stroke="#63b8ff" points="907.1,-132.7 916.35,-127.53 905.9,-125.81 907.1,-132.7"/>
</a>
</g>
</g>
<!-- Node6&#45;&gt;Node4 -->
<g id="edge9_Node000006_Node000004" class="edge">
<title>Node6&#45;&gt;Node4</title>
<g id="a_edge9_Node000006_Node000004"><a xlink:title=" ">
<path fill="none" stroke="#63b8ff" d="M398.87,-110.92C434.39,-102.04 491.36,-87.8 531.72,-77.71"/>
<polygon fill="#63b8ff" stroke="#63b8ff" points="532.31,-81.17 541.17,-75.35 530.62,-74.38 532.31,-81.17"/>
</a>
</g>
</g>
<!-- Node6&#45;&gt;Node7 -->
<g id="edge6_Node000006_Node000007" class="edge">
<title>Node6&#45;&gt;Node7</title>
<g id="a_edge6_Node000006_Node000007"><a xlink:title=" ">
<path fill="none" stroke="#63b8ff" d="M333.59,-112.86C310.58,-106.79 280.61,-95.34 262.06,-74.5 251.34,-62.46 246.66,-44.6 244.62,-30.83"/>
<polygon fill="#63b8ff" stroke="#63b8ff" points="248.12,-30.67 243.56,-21.11 241.17,-31.43 248.12,-30.67"/>
</a>
</g>
</g>
<!-- Node8 -->
<g id="Node000008" class="node">
<title>Node8</title>
<g id="a_Node000008"><a xlink:title=" ">
<polygon fill="#e0e0e0" stroke="#999999" points="158.56,-74.5 115.56,-74.5 115.56,-55.25 158.56,-55.25 158.56,-74.5"/>
<text text-anchor="middle" x="137.06" y="-61" font-family="Helvetica,sans-Serif" font-size="10.00">cmath</text>
</a>
</g>
</g>
<!-- Node6&#45;&gt;Node8 -->
<g id="edge7_Node000006_Node000008" class="edge">
<title>Node6&#45;&gt;Node8</title>
<g id="a_edge7_Node000006_Node000008"><a xlink:title=" ">
<path fill="none" stroke="#63b8ff" d="M333.35,-112.28C296.15,-104.37 233.33,-90.68 170.02,-74.9"/>
<polygon fill="#63b8ff" stroke="#63b8ff" points="171.06,-71.55 160.5,-72.5 169.35,-78.33 171.06,-71.55"/>
</a>
</g>
</g>
<!-- Node9 -->
<g id="Node000009" class="node">
<title>Node9</title>
<g id="a_Node000009"><a xlink:title=" ">
<polygon fill="#e0e0e0" stroke="#999999" points="215.31,-74.5 176.81,-74.5 176.81,-55.25 215.31,-55.25 215.31,-74.5"/>
<text text-anchor="middle" x="196.06" y="-61" font-family="Helvetica,sans-Serif" font-size="10.00">utility</text>
</a>
</g>
</g>
<!-- Node6&#45;&gt;Node9 -->
<g id="edge8_Node000006_Node000009" class="edge">
<title>Node6&#45;&gt;Node9</title>
<g id="a_edge8_Node000006_Node000009"><a xlink:title=" ">
<path fill="none" stroke="#63b8ff" d="M337.22,-110.09C306.34,-100.42 257.56,-85.14 226.19,-75.31"/>
<polygon fill="#63b8ff" stroke="#63b8ff" points="227.52,-72.06 216.93,-72.41 225.43,-78.74 227.52,-72.06"/>
</a>
</g>
</g>
<!-- Node10 -->
<g id="Node000010" class="node">
<title>Node10</title>
<g id="a_Node000010"><a xlink:title=" ">
<polygon fill="#e0e0e0" stroke="#999999" points="534.56,-19.25 473.56,-19.25 473.56,0 534.56,0 534.56,-19.25"/>
<text text-anchor="middle" x="504.06" y="-5.75" font-family="Helvetica,sans-Serif" font-size="10.00">TNamed.h</text>
</a>
</g>
</g>
<!-- Node6&#45;&gt;Node10 -->
<g id="edge10_Node000006_Node000010" class="edge">
<title>Node6&#45;&gt;Node10</title>
<g id="a_edge10_Node000006_Node000010"><a xlink:title=" ">
<path fill="none" stroke="#63b8ff" d="M398.7,-116.29C427.3,-112.01 467.81,-101.31 491.06,-74.5 501.39,-62.59 504.32,-44.72 504.85,-30.91"/>
<polygon fill="#63b8ff" stroke="#63b8ff" points="508.36,-31.15 504.81,-21.16 501.36,-31.18 508.36,-31.15"/>
</a>
</g>
</g>
<!-- Node11 -->
<g id="Node000011" class="node">
<title>Node11</title>
<g id="a_Node000011"><a xlink:title=" ">
<polygon fill="#e0e0e0" stroke="#999999" points="320.56,-74.5 271.56,-74.5 271.56,-55.25 320.56,-55.25 320.56,-74.5"/>
<text text-anchor="middle" x="296.06" y="-61" font-family="Helvetica,sans-Serif" font-size="10.00">TTree.h</text>
</a>
</g>
</g>
<!-- Node6&#45;&gt;Node11 -->
<g id="edge11_Node000006_Node000011" class="edge">
<title>Node6&#45;&gt;Node11</title>
<g id="a_edge11_Node000006_Node000011"><a xlink:title=" ">
<path fill="none" stroke="#63b8ff" d="M354.18,-110.09C343.96,-102.32 328.99,-90.92 316.79,-81.65"/>
<polygon fill="#63b8ff" stroke="#63b8ff" points="319.04,-78.96 308.96,-75.69 314.8,-84.53 319.04,-78.96"/>
</a>
</g>
</g>
<!-- Node12 -->
<g id="Node000012" class="node">
<title>Node12</title>
<g id="a_Node000012"><a xlink:title=" ">
<polygon fill="#e0e0e0" stroke="#999999" points="393.93,-74.5 338.18,-74.5 338.18,-55.25 393.93,-55.25 393.93,-74.5"/>
<text text-anchor="middle" x="366.06" y="-61" font-family="Helvetica,sans-Serif" font-size="10.00">TGraph.h</text>
</a>
</g>
</g>
<!-- Node6&#45;&gt;Node12 -->
<g id="edge12_Node000006_Node000012" class="edge">
<title>Node6&#45;&gt;Node12</title>
<g id="a_edge12_Node000006_Node000012"><a xlink:title=" ">
<path fill="none" stroke="#63b8ff" d="M366.06,-110.33C366.06,-103.82 366.06,-94.67 366.06,-86.37"/>
<polygon fill="#63b8ff" stroke="#63b8ff" points="369.56,-86.37 366.06,-76.37 362.56,-86.37 369.56,-86.37"/>
</a>
</g>
</g>
<!-- Node13 -->
<g id="Node000013" class="node">
<title>Node13</title>
<g id="a_Node000013"><a xlink:title=" ">
<polygon fill="#e0e0e0" stroke="#999999" points="481.68,-74.5 412.43,-74.5 412.43,-55.25 481.68,-55.25 481.68,-74.5"/>
<text text-anchor="middle" x="447.06" y="-61" font-family="Helvetica,sans-Serif" font-size="10.00">TClassRef.h</text>
</a>
</g>
</g>
<!-- Node6&#45;&gt;Node13 -->
<g id="edge13_Node000006_Node000013" class="edge">
<title>Node6&#45;&gt;Node13</title>
<g id="a_edge13_Node000006_Node000013"><a xlink:title=" ">
<path fill="none" stroke="#63b8ff" d="M379.8,-110.09C391.78,-102.21 409.43,-90.61 423.64,-81.27"/>
<polygon fill="#63b8ff" stroke="#63b8ff" points="425.55,-84.2 431.98,-75.78 421.71,-78.35 425.55,-84.2"/>
</a>
</g>
</g>
<!-- Node14 -->
<g id="Node000014" class="node">
<title>Node14</title>
<g id="a_Node000014"><a xlink:href="_t_priority_value_8h.html" target="_top" xlink:title=" ">
<polygon fill="white" stroke="#666666" points="97.18,-74.5 12.93,-74.5 12.93,-55.25 97.18,-55.25 97.18,-74.5"/>
<text text-anchor="middle" x="55.06" y="-61" font-family="Helvetica,sans-Serif" font-size="10.00">TPriorityValue.h</text>
</a>
</g>
</g>
<!-- Node6&#45;&gt;Node14 -->
<g id="edge14_Node000006_Node000014" class="edge">
<title>Node6&#45;&gt;Node14</title>
<g id="a_edge14_Node000006_Node000014"><a xlink:title=" ">
<path fill="none" stroke="#63b8ff" d="M333.36,-113.53C279.96,-104.38 173.5,-86.15 108.84,-75.08"/>
<polygon fill="#63b8ff" stroke="#63b8ff" points="109.6,-71.66 99.16,-73.43 108.42,-78.56 109.6,-71.66"/>
</a>
</g>
</g>
<!-- Node14&#45;&gt;Node3 -->
<g id="edge17_Node000014_Node000003" class="edge">
<title>Node14&#45;&gt;Node3</title>
<g id="a_edge17_Node000014_Node000003"><a xlink:title=" ">
<path fill="none" stroke="#63b8ff" d="M97.62,-56.57C100.47,-56.11 103.3,-55.67 106.06,-55.25 213.69,-38.83 341.65,-22.27 400.9,-14.78"/>
<polygon fill="#63b8ff" stroke="#63b8ff" points="401.16,-18.27 410.64,-13.55 400.28,-11.33 401.16,-18.27"/>
</a>
</g>
</g>
<!-- Node14&#45;&gt;Node7 -->
<g id="edge16_Node000014_Node000007" class="edge">
<title>Node14&#45;&gt;Node7</title>
<g id="a_edge16_Node000014_Node000007"><a xlink:title=" ">
<path fill="none" stroke="#63b8ff" d="M86.95,-54.84C121.77,-44.98 177.18,-29.28 211.77,-19.49"/>
<polygon fill="#63b8ff" stroke="#63b8ff" points="212.51,-22.91 221.18,-16.82 210.61,-16.18 212.51,-22.91"/>
</a>
</g>
</g>
<!-- Node15 -->
<g id="Node000015" class="node">
<title>Node15</title>
<g id="a_Node000015"><a xlink:title=" ">
<polygon fill="#e0e0e0" stroke="#999999" points="80.68,-19.25 29.43,-19.25 29.43,0 80.68,0 80.68,-19.25"/>
<text text-anchor="middle" x="55.06" y="-5.75" font-family="Helvetica,sans-Serif" font-size="10.00">ostream</text>
</a>
</g>
</g>
<!-- Node14&#45;&gt;Node15 -->
<g id="edge15_Node000014_Node000015" class="edge">
<title>Node14&#45;&gt;Node15</title>
<g id="a_edge15_Node000014_Node000015"><a xlink:title=" ">
<path fill="none" stroke="#63b8ff" d="M55.06,-55.08C55.06,-48.57 55.06,-39.42 55.06,-31.12"/>
<polygon fill="#63b8ff" stroke="#63b8ff" points="58.56,-31.12 55.06,-21.12 51.56,-31.12 58.56,-31.12"/>
</a>
</g>
</g>
<!-- Node16&#45;&gt;Node5 -->
<g id="edge20_Node000016_Node000005" class="edge">
<title>Node16&#45;&gt;Node5</title>
<g id="a_edge20_Node000016_Node000005"><a xlink:title=" ">
<path fill="none" stroke="#63b8ff" d="M983.93,-110.09C1014.55,-101.13 1061.6,-87.37 1095.06,-77.58"/>
<polygon fill="#63b8ff" stroke="#63b8ff" points="1095.77,-81.02 1104.39,-74.85 1093.81,-74.3 1095.77,-81.02"/>
</a>
</g>
</g>
<!-- Node17 -->
<g id="Node000017" class="node">
<title>Node17</title>
<g id="a_Node000017"><a xlink:title=" ">
<polygon fill="#e0e0e0" stroke="#999999" points="1578.81,-19.25 1525.31,-19.25 1525.31,0 1578.81,0 1578.81,-19.25"/>
<text text-anchor="middle" x="1552.06" y="-5.75" font-family="Helvetica,sans-Serif" font-size="10.00">iostream</text>
</a>
</g>
</g>
<!-- Node16&#45;&gt;Node17 -->
<g id="edge19_Node000016_Node000017" class="edge">
<title>Node16&#45;&gt;Node17</title>
<g id="a_edge19_Node000016_Node000017"><a xlink:title=" ">
<path fill="none" stroke="#63b8ff" d="M976,-110.01C997.61,-101.3 1030.79,-87.59 1059.06,-74.5 1076.24,-66.54 1078.85,-60.43 1097.06,-55.25 1273.31,-5.08 1329.36,-47.39 1513.84,-19.32"/>
<polygon fill="#63b8ff" stroke="#63b8ff" points="1514.19,-22.81 1523.52,-17.8 1513.1,-15.9 1514.19,-22.81"/>
</a>
</g>
</g>
<!-- Node18 -->
<g id="Node000018" class="node">
<title>Node18</title>
<g id="a_Node000018"><a xlink:title=" ">
<polygon fill="#e0e0e0" stroke="#999999" points="847.93,-74.5 780.18,-74.5 780.18,-55.25 847.93,-55.25 847.93,-74.5"/>
<text text-anchor="middle" x="814.06" y="-61" font-family="Helvetica,sans-Serif" font-size="10.00">TDirectory.h</text>
</a>
</g>
</g>
<!-- Node16&#45;&gt;Node18 -->
<g id="edge21_Node000016_Node000018" class="edge">
<title>Node16&#45;&gt;Node18</title>
<g id="a_edge21_Node000016_Node000018"><a xlink:title=" ">
<path fill="none" stroke="#63b8ff" d="M929.48,-110.09C907.21,-101.56 873.56,-88.67 848.34,-79.01"/>
<polygon fill="#63b8ff" stroke="#63b8ff" points="849.76,-75.8 839.17,-75.49 847.25,-82.34 849.76,-75.8"/>
</a>
</g>
</g>
<!-- Node19 -->
<g id="Node000019" class="node">
<title>Node19</title>
<g id="a_Node000019"><a xlink:title=" ">
<polygon fill="#e0e0e0" stroke="#999999" points="1227.68,-74.5 1182.43,-74.5 1182.43,-55.25 1227.68,-55.25 1227.68,-74.5"/>
<text text-anchor="middle" x="1205.06" y="-61" font-family="Helvetica,sans-Serif" font-size="10.00">TFile.h</text>
</a>
</g>
</g>
<!-- Node16&#45;&gt;Node19 -->
<g id="edge22_Node000016_Node000019" class="edge">
<title>Node16&#45;&gt;Node19</title>
<g id="a_edge22_Node000016_Node000019"><a xlink:title=" ">
<path fill="none" stroke="#63b8ff" d="M988.26,-112.69C1029.7,-104.97 1100.82,-91.23 1171.2,-74.82"/>
<polygon fill="#63b8ff" stroke="#63b8ff" points="1171.62,-78.31 1180.56,-72.61 1170.02,-71.5 1171.62,-78.31"/>
</a>
</g>
</g>
<!-- Node20 -->
<g id="Node000020" class="node">
<title>Node20</title>
<g id="a_Node000020"><a xlink:title=" ">
<polygon fill="#e0e0e0" stroke="#999999" points="912.06,-74.5 866.06,-74.5 866.06,-55.25 912.06,-55.25 912.06,-74.5"/>
<text text-anchor="middle" x="889.06" y="-61" font-family="Helvetica,sans-Serif" font-size="10.00">TList.h</text>
</a>
</g>
</g>
<!-- Node16&#45;&gt;Node20 -->
<g id="edge23_Node000016_Node000020" class="edge">
<title>Node16&#45;&gt;Node20</title>
<g id="a_edge23_Node000016_Node000020"><a xlink:title=" ">
<path fill="none" stroke="#63b8ff" d="M942.2,-110.09C932.95,-102.4 919.43,-91.15 908.35,-81.93"/>
<polygon fill="#63b8ff" stroke="#63b8ff" points="910.84,-79.45 900.92,-75.74 906.37,-84.83 910.84,-79.45"/>
</a>
</g>
</g>
<!-- Node21 -->
<g id="Node000021" class="node">
<title>Node21</title>
<g id="a_Node000021"><a xlink:title=" ">
<polygon fill="#e0e0e0" stroke="#999999" points="976.06,-74.5 930.06,-74.5 930.06,-55.25 976.06,-55.25 976.06,-74.5"/>
<text text-anchor="middle" x="953.06" y="-61" font-family="Helvetica,sans-Serif" font-size="10.00">TKey.h</text>
</a>
</g>
</g>
<!-- Node16&#45;&gt;Node21 -->
<g id="edge24_Node000016_Node000021" class="edge">
<title>Node16&#45;&gt;Node21</title>
<g id="a_edge24_Node000016_Node000021"><a xlink:title=" ">
<path fill="none" stroke="#63b8ff" d="M953.06,-110.33C953.06,-103.82 953.06,-94.67 953.06,-86.37"/>
<polygon fill="#63b8ff" stroke="#63b8ff" points="956.56,-86.37 953.06,-76.37 949.56,-86.37 956.56,-86.37"/>
</a>
</g>
</g>
<!-- Node22 -->
<g id="Node000022" class="node">
<title>Node22</title>
<g id="a_Node000022"><a xlink:href="_globals_8h.html" target="_top" xlink:title=" ">
<polygon fill="white" stroke="#666666" points="1050.31,-74.5 993.81,-74.5 993.81,-55.25 1050.31,-55.25 1050.31,-74.5"/>
<text text-anchor="middle" x="1022.06" y="-61" font-family="Helvetica,sans-Serif" font-size="10.00">Globals.h</text>
</a>
</g>
</g>
<!-- Node16&#45;&gt;Node22 -->
<g id="edge25_Node000016_Node000022" class="edge">
<title>Node16&#45;&gt;Node22</title>
<g id="a_edge25_Node000016_Node000022"><a xlink:title=" ">
<path fill="none" stroke="#63b8ff" d="M964.76,-110.09C974.83,-102.32 989.6,-90.92 1001.62,-81.65"/>
<polygon fill="#63b8ff" stroke="#63b8ff" points="1003.55,-84.58 1009.33,-75.7 999.27,-79.04 1003.55,-84.58"/>
</a>
</g>
</g>
<!-- Node22&#45;&gt;Node7 -->
<g id="edge29_Node000022_Node000007" class="edge">
<title>Node22&#45;&gt;Node7</title>
<g id="a_edge29_Node000022_Node000007"><a xlink:title=" ">
<path fill="none" stroke="#63b8ff" d="M993.46,-56.71C990.64,-56.15 987.8,-55.65 985.06,-55.25 949.42,-50.06 411.59,-19.98 274.61,-12.37"/>
<polygon fill="#63b8ff" stroke="#63b8ff" points="275.02,-8.89 264.84,-11.83 274.63,-15.88 275.02,-8.89"/>
</a>
</g>
</g>
<!-- Node22&#45;&gt;Node17 -->
<g id="edge26_Node000022_Node000017" class="edge">
<title>Node22&#45;&gt;Node17</title>
<g id="a_edge26_Node000022_Node000017"><a xlink:title=" ">
<path fill="none" stroke="#63b8ff" d="M1050.44,-57.55C1054.98,-56.68 1059.63,-55.88 1064.06,-55.25 1259.98,-27.44 1315.04,-49.98 1513.9,-19.33"/>
<polygon fill="#63b8ff" stroke="#63b8ff" points="1514.19,-22.82 1523.53,-17.81 1513.1,-15.91 1514.19,-22.82"/>
</a>
</g>
</g>
<!-- Node23 -->
<g id="Node000023" class="node">
<title>Node23</title>
<g id="a_Node000023"><a xlink:title=" ">
<polygon fill="#e0e0e0" stroke="#999999" points="1306.93,-19.25 1257.18,-19.25 1257.18,0 1306.93,0 1306.93,-19.25"/>
<text text-anchor="middle" x="1282.06" y="-5.75" font-family="Helvetica,sans-Serif" font-size="10.00">iomanip</text>
</a>
</g>
</g>
<!-- Node22&#45;&gt;Node23 -->
<g id="edge27_Node000022_Node000023" class="edge">
<title>Node22&#45;&gt;Node23</title>
<g id="a_edge27_Node000022_Node000023"><a xlink:title=" ">
<path fill="none" stroke="#63b8ff" d="M1050.52,-57.99C1055.04,-57.07 1059.68,-56.13 1064.06,-55.25 1142.41,-39.54 1164.93,-37.64 1246.1,-19.59"/>
<polygon fill="#63b8ff" stroke="#63b8ff" points="1246.37,-23.12 1255.37,-17.52 1244.84,-16.29 1246.37,-23.12"/>
</a>
</g>
</g>
<!-- Node24 -->
<g id="Node000024" class="node">
<title>Node24</title>
<g id="a_Node000024"><a xlink:title=" ">
<polygon fill="#e0e0e0" stroke="#999999" points="754.06,-19.25 696.06,-19.25 696.06,0 754.06,0 754.06,-19.25"/>
<text text-anchor="middle" x="725.06" y="-5.75" font-family="Helvetica,sans-Serif" font-size="10.00">stdexcept</text>
</a>
</g>
</g>
<!-- Node22&#45;&gt;Node24 -->
<g id="edge28_Node000022_Node000024" class="edge">
<title>Node22&#45;&gt;Node24</title>
<g id="a_edge28_Node000022_Node000024"><a xlink:title=" ">
<path fill="none" stroke="#63b8ff" d="M993.42,-56.99C990.6,-56.38 987.77,-55.79 985.06,-55.25 890.54,-36.59 863.14,-38.17 765.73,-19.66"/>
<polygon fill="#63b8ff" stroke="#63b8ff" points="766.44,-16.23 755.96,-17.78 765.12,-23.11 766.44,-16.23"/>
</a>
</g>
</g>
<!-- Node25 -->
<g id="Node000025" class="node">
<title>Node25</title>
<g id="a_Node000025"><a xlink:title=" ">
<polygon fill="#e0e0e0" stroke="#999999" points="1367.18,-19.25 1324.93,-19.25 1324.93,0 1367.18,0 1367.18,-19.25"/>
<text text-anchor="middle" x="1346.06" y="-5.75" font-family="Helvetica,sans-Serif" font-size="10.00">cstdio</text>
</a>
</g>
</g>
<!-- Node22&#45;&gt;Node25 -->
<g id="edge30_Node000022_Node000025" class="edge">
<title>Node22&#45;&gt;Node25</title>
<g id="a_edge30_Node000022_Node000025"><a xlink:title=" ">
<path fill="none" stroke="#63b8ff" d="M1050.48,-57.8C1055.01,-56.9 1059.66,-56.02 1064.06,-55.25 1171.93,-36.49 1203.41,-42.51 1313.28,-19.59"/>
<polygon fill="#63b8ff" stroke="#63b8ff" points="1313.98,-23.02 1323.04,-17.52 1312.53,-16.17 1313.98,-23.02"/>
</a>
</g>
</g>
<!-- Node26 -->
<g id="Node000026" class="node">
<title>Node26</title>
<g id="a_Node000026"><a xlink:title=" ">
<polygon fill="#e0e0e0" stroke="#999999" points="1429.31,-19.25 1384.81,-19.25 1384.81,0 1429.31,0 1429.31,-19.25"/>
<text text-anchor="middle" x="1407.06" y="-5.75" font-family="Helvetica,sans-Serif" font-size="10.00">cstdlib</text>
</a>
</g>
</g>
<!-- Node22&#45;&gt;Node26 -->
<g id="edge31_Node000022_Node000026" class="edge">
<title>Node22&#45;&gt;Node26</title>
<g id="a_edge31_Node000022_Node000026"><a xlink:title=" ">
<path fill="none" stroke="#63b8ff" d="M1050.46,-57.69C1055,-56.8 1059.65,-55.96 1064.06,-55.25 1198.25,-33.77 1237.03,-45.39 1373.19,-19.53"/>
<polygon fill="#63b8ff" stroke="#63b8ff" points="1373.83,-22.98 1382.98,-17.64 1372.5,-16.1 1373.83,-22.98"/>
</a>
</g>
</g>
<!-- Node27 -->
<g id="Node000027" class="node">
<title>Node27</title>
<g id="a_Node000027"><a xlink:title=" ">
<polygon fill="#e0e0e0" stroke="#999999" points="1506.81,-19.25 1447.31,-19.25 1447.31,0 1506.81,0 1506.81,-19.25"/>
<text text-anchor="middle" x="1477.06" y="-5.75" font-family="Helvetica,sans-Serif" font-size="10.00">execinfo.h</text>
</a>
</g>
</g>
<!-- Node22&#45;&gt;Node27 -->
<g id="edge32_Node000022_Node000027" class="edge">
<title>Node22&#45;&gt;Node27</title>
<g id="a_edge32_Node000022_Node000027"><a xlink:title=" ">
<path fill="none" stroke="#63b8ff" d="M1050.45,-57.62C1054.99,-56.74 1059.64,-55.91 1064.06,-55.25 1225.64,-30.95 1271.17,-44.71 1435.87,-19.4"/>
<polygon fill="#63b8ff" stroke="#63b8ff" points="1436.06,-22.91 1445.4,-17.91 1434.98,-16 1436.06,-22.91"/>
</a>
</g>
</g>
<!-- Node28 -->
<g id="Node000028" class="node">
<title>Node28</title>
<g id="a_Node000028"><a xlink:title=" ">
<polygon fill="#e0e0e0" stroke="#999999" points="822.31,-19.25 771.81,-19.25 771.81,0 822.31,0 822.31,-19.25"/>
<text text-anchor="middle" x="797.06" y="-5.75" font-family="Helvetica,sans-Serif" font-size="10.00">cxxabi.h</text>
</a>
</g>
</g>
<!-- Node22&#45;&gt;Node28 -->
<g id="edge33_Node000022_Node000028" class="edge">
<title>Node22&#45;&gt;Node28</title>
<g id="a_edge33_Node000022_Node000028"><a xlink:title=" ">
<path fill="none" stroke="#63b8ff" d="M993.7,-57.27C949.27,-46.91 865.56,-27.38 833.46,-19.76"/>
<polygon fill="#63b8ff" stroke="#63b8ff" points="834.68,-16.46 824.14,-17.53 833.04,-23.26 834.68,-16.46"/>
</a>
</g>
</g>
<!-- Node29 -->
<g id="Node000029" class="node">
<title>Node29</title>
<g id="a_Node000029"><a xlink:title=" ">
<polygon fill="#e0e0e0" stroke="#999999" points="891.68,-19.25 840.43,-19.25 840.43,0 891.68,0 891.68,-19.25"/>
<text text-anchor="middle" x="866.06" y="-5.75" font-family="Helvetica,sans-Serif" font-size="10.00">sstream</text>
</a>
</g>
</g>
<!-- Node22&#45;&gt;Node29 -->
<g id="edge34_Node000022_Node000029" class="edge">
<title>Node22&#45;&gt;Node29</title>
<g id="a_edge34_Node000022_Node000029"><a xlink:title=" ">
<path fill="none" stroke="#63b8ff" d="M995.59,-54.84C970.12,-46.14 931.36,-32.92 902.87,-23.19"/>
<polygon fill="#63b8ff" stroke="#63b8ff" points="904.16,-19.93 893.56,-20.01 901.89,-26.56 904.16,-19.93"/>
</a>
</g>
</g>
<!-- Node30 -->
<g id="Node000030" class="node">
<title>Node30</title>
<g id="a_Node000030"><a xlink:title=" ">
<polygon fill="#e0e0e0" stroke="#999999" points="946.56,-19.25 909.56,-19.25 909.56,0 946.56,0 946.56,-19.25"/>
<text text-anchor="middle" x="928.06" y="-5.75" font-family="Helvetica,sans-Serif" font-size="10.00">array</text>
</a>
</g>
</g>
<!-- Node22&#45;&gt;Node30 -->
<g id="edge35_Node000022_Node000030" class="edge">
<title>Node22&#45;&gt;Node30</title>
<g id="a_edge35_Node000022_Node000030"><a xlink:title=" ">
<path fill="none" stroke="#63b8ff" d="M1006.11,-54.84C991.8,-46.73 970.53,-34.68 953.8,-25.21"/>
<polygon fill="#63b8ff" stroke="#63b8ff" points="955.82,-22.33 945.4,-20.45 952.37,-28.42 955.82,-22.33"/>
</a>
</g>
</g>
<!-- Node31 -->
<g id="Node000031" class="node">
<title>Node31</title>
<g id="a_Node000031"><a xlink:title=" ">
<polygon fill="#e0e0e0" stroke="#999999" points="1015.31,-19.25 964.81,-19.25 964.81,0 1015.31,0 1015.31,-19.25"/>
<text text-anchor="middle" x="990.06" y="-5.75" font-family="Helvetica,sans-Serif" font-size="10.00">memory</text>
</a>
</g>
</g>
<!-- Node22&#45;&gt;Node31 -->
<g id="edge36_Node000022_Node000031" class="edge">
<title>Node22&#45;&gt;Node31</title>
<g id="a_edge36_Node000022_Node000031"><a xlink:title=" ">
<path fill="none" stroke="#63b8ff" d="M1016.77,-55.08C1012.58,-48.11 1006.58,-38.12 1001.32,-29.37"/>
<polygon fill="#63b8ff" stroke="#63b8ff" points="1004.39,-27.68 996.24,-20.91 998.39,-31.28 1004.39,-27.68"/>
</a>
</g>
</g>
<!-- Node32 -->
<g id="Node000032" class="node">
<title>Node32</title>
<g id="a_Node000032"><a xlink:title=" ">
<polygon fill="#e0e0e0" stroke="#999999" points="1082.93,-19.25 1033.18,-19.25 1033.18,0 1082.93,0 1082.93,-19.25"/>
<text text-anchor="middle" x="1058.06" y="-5.75" font-family="Helvetica,sans-Serif" font-size="10.00">unistd.h</text>
</a>
</g>
</g>
<!-- Node22&#45;&gt;Node32 -->
<g id="edge37_Node000022_Node000032" class="edge">
<title>Node22&#45;&gt;Node32</title>
<g id="a_edge37_Node000022_Node000032"><a xlink:title=" ">
<path fill="none" stroke="#63b8ff" d="M1028,-55.08C1032.77,-48.03 1039.62,-37.9 1045.58,-29.08"/>
<polygon fill="#63b8ff" stroke="#63b8ff" points="1048.43,-31.11 1051.14,-20.86 1042.63,-27.19 1048.43,-31.11"/>
</a>
</g>
</g>
<!-- Node33 -->
<g id="Node000033" class="node">
<title>Node33</title>
<g id="a_Node000033"><a xlink:title=" ">
<polygon fill="#e0e0e0" stroke="#999999" points="1160.81,-19.25 1101.31,-19.25 1101.31,0 1160.81,0 1160.81,-19.25"/>
<text text-anchor="middle" x="1131.06" y="-5.75" font-family="Helvetica,sans-Serif" font-size="10.00">sys/wait.h</text>
</a>
</g>
</g>
<!-- Node22&#45;&gt;Node33 -->
<g id="edge38_Node000022_Node000033" class="edge">
<title>Node22&#45;&gt;Node33</title>
<g id="a_edge38_Node000022_Node000033"><a xlink:title=" ">
<path fill="none" stroke="#63b8ff" d="M1040.55,-54.84C1057.46,-46.58 1082.74,-34.23 1102.29,-24.68"/>
<polygon fill="#63b8ff" stroke="#63b8ff" points="1103.67,-27.9 1111.12,-20.37 1100.59,-21.61 1103.67,-27.9"/>
</a>
</g>
</g>
<!-- Node34 -->
<g id="Node000034" class="node">
<title>Node34</title>
<g id="a_Node000034"><a xlink:title=" ">
<polygon fill="#e0e0e0" stroke="#999999" points="1239.18,-19.25 1178.93,-19.25 1178.93,0 1239.18,0 1239.18,-19.25"/>
<text text-anchor="middle" x="1209.06" y="-5.75" font-family="Helvetica,sans-Serif" font-size="10.00">sys/prctl.h</text>
</a>
</g>
</g>
<!-- Node22&#45;&gt;Node34 -->
<g id="edge39_Node000022_Node000034" class="edge">
<title>Node22&#45;&gt;Node34</title>
<g id="a_edge39_Node000022_Node000034"><a xlink:title=" ">
<path fill="none" stroke="#63b8ff" d="M1050.46,-55.79C1081.62,-46.91 1131.93,-32.59 1167.53,-22.45"/>
<polygon fill="#63b8ff" stroke="#63b8ff" points="1168.41,-25.84 1177.07,-19.73 1166.49,-19.11 1168.41,-25.84"/>
</a>
</g>
</g>
<!-- Node36&#45;&gt;Node5 -->
<g id="edge44_Node000036_Node000005" class="edge">
<title>Node36&#45;&gt;Node5</title>
<g id="a_edge44_Node000036_Node000005"><a xlink:title=" ">
<path fill="none" stroke="#63b8ff" d="M1054.9,-165.32C1056.5,-152.16 1060.99,-127.47 1073.06,-110.5 1081.76,-98.26 1094.9,-88.11 1106.85,-80.6"/>
<polygon fill="#63b8ff" stroke="#63b8ff" points="1108.34,-83.79 1115.18,-75.7 1104.78,-77.76 1108.34,-83.79"/>
</a>
</g>
</g>
<!-- Node36&#45;&gt;Node19 -->
<g id="edge45_Node000036_Node000019" class="edge">
<title>Node36&#45;&gt;Node19</title>
<g id="a_edge45_Node000036_Node000019"><a xlink:title=" ">
<path fill="none" stroke="#63b8ff" d="M1096.85,-165.32C1132.09,-157.02 1178.25,-143.89 1191.06,-129.75 1201.67,-118.02 1204.88,-100.14 1205.6,-86.27"/>
<polygon fill="#63b8ff" stroke="#63b8ff" points="1209.1,-86.51 1205.69,-76.48 1202.1,-86.44 1209.1,-86.51"/>
</a>
</g>
</g>
<!-- Node37 -->
<g id="Node000037" class="node">
<title>Node37</title>
<g id="a_Node000037"><a xlink:href="_t_g_r_s_i_types_8h.html" target="_top" xlink:title=" ">
<polygon fill="white" stroke="#666666" points="1317.93,-129.75 1238.18,-129.75 1238.18,-110.5 1317.93,-110.5 1317.93,-129.75"/>
<text text-anchor="middle" x="1278.06" y="-116.25" font-family="Helvetica,sans-Serif" font-size="10.00">TGRSITypes.h</text>
</a>
</g>
</g>
<!-- Node36&#45;&gt;Node37 -->
<g id="edge46_Node000036_Node000037" class="edge">
<title>Node36&#45;&gt;Node37</title>
<g id="a_edge46_Node000036_Node000037"><a xlink:title=" ">
<path fill="none" stroke="#63b8ff" d="M1092.31,-165.28C1130,-156.32 1187.75,-142.59 1228.84,-132.82"/>
<polygon fill="#63b8ff" stroke="#63b8ff" points="1229.57,-136.25 1238.49,-130.53 1227.95,-129.44 1229.57,-136.25"/>
</a>
</g>
</g>
<!-- Node39 -->
<g id="Node000039" class="node">
<title>Node39</title>
<g id="a_Node000039"><a xlink:href="_t_analysis_options_8h.html" target="_top" xlink:title=" ">
<polygon fill="white" stroke="#666666" points="1182.06,-129.75 1082.06,-129.75 1082.06,-110.5 1182.06,-110.5 1182.06,-129.75"/>
<text text-anchor="middle" x="1132.06" y="-116.25" font-family="Helvetica,sans-Serif" font-size="10.00">TAnalysisOptions.h</text>
</a>
</g>
</g>
<!-- Node36&#45;&gt;Node39 -->
<g id="edge48_Node000036_Node000039" class="edge">
<title>Node36&#45;&gt;Node39</title>
<g id="a_edge48_Node000036_Node000039"><a xlink:title=" ">
<path fill="none" stroke="#63b8ff" d="M1067.29,-165.34C1078.83,-157.46 1095.82,-145.86 1109.51,-136.52"/>
<polygon fill="#63b8ff" stroke="#63b8ff" points="1111.22,-139.58 1117.51,-131.06 1107.28,-133.8 1111.22,-139.58"/>
</a>
</g>
</g>
<!-- Node40 -->
<g id="Node000040" class="node">
<title>Node40</title>
<g id="a_Node000040"><a xlink:href="_t_user_settings_8h.html" target="_top" xlink:title=" ">
<polygon fill="white" stroke="#666666" points="762.31,-74.5 675.81,-74.5 675.81,-55.25 762.31,-55.25 762.31,-74.5"/>
<text text-anchor="middle" x="719.06" y="-61" font-family="Helvetica,sans-Serif" font-size="10.00">TUserSettings.h</text>
</a>
</g>
</g>
<!-- Node36&#45;&gt;Node40 -->
<g id="edge51_Node000036_Node000040" class="edge">
<title>Node36&#45;&gt;Node40</title>
<g id="a_edge51_Node000036_Node000040"><a xlink:title=" ">
<path fill="none" stroke="#63b8ff" d="M1023.71,-165.29C994.33,-156.42 948.54,-142.46 909.06,-129.75 855.69,-112.57 794.25,-91.72 756.03,-78.62"/>
<polygon fill="#63b8ff" stroke="#63b8ff" points="757.45,-75.4 746.85,-75.47 755.17,-82.03 757.45,-75.4"/>
</a>
</g>
</g>
<!-- Node38 -->
<g id="Node000038" class="node">
<title>Node38</title>
<g id="a_Node000038"><a xlink:title=" ">
<polygon fill="#e0e0e0" stroke="#999999" points="1300.68,-74.5 1255.43,-74.5 1255.43,-55.25 1300.68,-55.25 1300.68,-74.5"/>
<text text-anchor="middle" x="1278.06" y="-61" font-family="Helvetica,sans-Serif" font-size="10.00">cstdint</text>
</a>
</g>
</g>
<!-- Node37&#45;&gt;Node38 -->
<g id="edge47_Node000037_Node000038" class="edge">
<title>Node37&#45;&gt;Node38</title>
<g id="a_edge47_Node000037_Node000038"><a xlink:title=" ">
<path fill="none" stroke="#63b8ff" d="M1278.06,-110.33C1278.06,-103.82 1278.06,-94.67 1278.06,-86.37"/>
<polygon fill="#63b8ff" stroke="#63b8ff" points="1281.56,-86.37 1278.06,-76.37 1274.56,-86.37 1281.56,-86.37"/>
</a>
</g>
</g>
<!-- Node39&#45;&gt;Node5 -->
<g id="edge49_Node000039_Node000005" class="edge">
<title>Node39&#45;&gt;Node5</title>
<g id="a_edge49_Node000039_Node000005"><a xlink:title=" ">
<path fill="none" stroke="#63b8ff" d="M1132.55,-110.33C1132.92,-103.74 1133.45,-94.46 1133.92,-86.07"/>
<polygon fill="#63b8ff" stroke="#63b8ff" points="1137.4,-86.55 1134.47,-76.37 1130.41,-86.16 1137.4,-86.55"/>
</a>
</g>
</g>
<!-- Node39&#45;&gt;Node19 -->
<g id="edge50_Node000039_Node000019" class="edge">
<title>Node39&#45;&gt;Node19</title>
<g id="a_edge50_Node000039_Node000019"><a xlink:title=" ">
<path fill="none" stroke="#63b8ff" d="M1144.44,-110.09C1155.2,-102.24 1171.03,-90.7 1183.81,-81.37"/>
<polygon fill="#63b8ff" stroke="#63b8ff" points="1185.62,-84.39 1191.63,-75.67 1181.49,-78.73 1185.62,-84.39"/>
</a>
</g>
</g>
<!-- Node40&#45;&gt;Node3 -->
<g id="edge54_Node000040_Node000003" class="edge">
<title>Node40&#45;&gt;Node3</title>
<g id="a_edge54_Node000040_Node000003"><a xlink:title=" ">
<path fill="none" stroke="#63b8ff" d="M675.32,-56.72C618,-47.26 519.45,-30.68 467.06,-19.46"/>
<polygon fill="#63b8ff" stroke="#63b8ff" points="468,-16.09 457.48,-17.34 466.49,-22.92 468,-16.09"/>
</a>
</g>
</g>
<!-- Node40&#45;&gt;Node7 -->
<g id="edge53_Node000040_Node000007" class="edge">
<title>Node40&#45;&gt;Node7</title>
<g id="a_edge53_Node000040_Node000007"><a xlink:title=" ">
<path fill="none" stroke="#63b8ff" d="M675.55,-59.01C580.71,-48.4 357.23,-23.4 274.54,-14.15"/>
<polygon fill="#63b8ff" stroke="#63b8ff" points="275.01,-10.68 264.68,-13.04 274.23,-17.63 275.01,-10.68"/>
</a>
</g>
</g>
<!-- Node40&#45;&gt;Node10 -->
<g id="edge56_Node000040_Node000010" class="edge">
<title>Node40&#45;&gt;Node10</title>
<g id="a_edge56_Node000040_Node000010"><a xlink:title=" ">
<path fill="none" stroke="#63b8ff" d="M682.58,-54.84C644.75,-45.47 585.66,-30.84 545.94,-21"/>
<polygon fill="#63b8ff" stroke="#63b8ff" points="546.79,-17.6 536.25,-18.6 545.11,-24.4 546.79,-17.6"/>
</a>
</g>
</g>
<!-- Node40&#45;&gt;Node24 -->
<g id="edge55_Node000040_Node000024" class="edge">
<title>Node40&#45;&gt;Node24</title>
<g id="a_edge55_Node000040_Node000024"><a xlink:title=" ">
<path fill="none" stroke="#63b8ff" d="M720.05,-55.08C720.79,-48.49 721.84,-39.21 722.78,-30.82"/>
<polygon fill="#63b8ff" stroke="#63b8ff" points="726.23,-31.44 723.87,-21.11 719.28,-30.66 726.23,-31.44"/>
</a>
</g>
</g>
<!-- Node41 -->
<g id="Node000041" class="node">
<title>Node41</title>
<g id="a_Node000041"><a xlink:title=" ">
<polygon fill="#e0e0e0" stroke="#999999" points="678.43,-19.25 643.68,-19.25 643.68,0 678.43,0 678.43,-19.25"/>
<text text-anchor="middle" x="661.06" y="-5.75" font-family="Helvetica,sans-Serif" font-size="10.00">map</text>
</a>
</g>
</g>
<!-- Node40&#45;&gt;Node41 -->
<g id="edge52_Node000040_Node000041" class="edge">
<title>Node40&#45;&gt;Node41</title>
<g id="a_edge52_Node000040_Node000041"><a xlink:title=" ">
<path fill="none" stroke="#63b8ff" d="M709.22,-54.84C701,-47.3 689.07,-36.35 679.14,-27.23"/>
<polygon fill="#63b8ff" stroke="#63b8ff" points="681.6,-24.73 671.87,-20.55 676.86,-29.89 681.6,-24.73"/>
</a>
</g>
</g>
<!-- Node42 -->
<g id="Node000042" class="node">
<title>Node42</title>
<g id="a_Node000042"><a xlink:title=" ">
<polygon fill="#e0e0e0" stroke="#999999" points="625.18,-19.25 552.93,-19.25 552.93,0 625.18,0 625.18,-19.25"/>
<text text-anchor="middle" x="589.06" y="-5.75" font-family="Helvetica,sans-Serif" font-size="10.00">TCollection.h</text>
</a>
</g>
</g>
<!-- Node40&#45;&gt;Node42 -->
<g id="edge57_Node000040_Node000042" class="edge">
<title>Node40&#45;&gt;Node42</title>
<g id="a_edge57_Node000040_Node000042"><a xlink:title=" ">
<path fill="none" stroke="#63b8ff" d="M697,-54.84C676.37,-46.39 645.28,-33.65 621.75,-24.02"/>
<polygon fill="#63b8ff" stroke="#63b8ff" points="623.2,-20.83 612.62,-20.28 620.55,-27.31 623.2,-20.83"/>
</a>
</g>
</g>
</g>
</svg>

<g id="navigator" transform="translate(0 0)" fill="#404254">
  <rect fill="#f2f5e9" fill-opacity="0.5" stroke="#606060" stroke-width=".5" x="0" y="0" width="60" height="60"/>
  <use id="zoomplus" xlink:href="#zoomPlus" x="17" y="9" onmousedown="handleZoom(evt,'in')"/>
  <use id="zoomminus" xlink:href="#zoomMin" x="42" y="9" onmousedown="handleZoom(evt,'out')"/>
  <use id="reset" xlink:href="#resetDef" x="30" y="36" onmousedown="handleReset()"/>
   <use id="arrowup" xlink:href="#arrowUp" x="0" y="0" onmousedown="handlePan(0,-1)"/>
  <use id="arrowright" xlink:href="#arrowRight" x="0" y="0" onmousedown="handlePan(1,0)"/>
  <use id="arrowdown" xlink:href="#arrowDown" x="0" y="0" onmousedown="handlePan(0,1)"/>
  <use id="arrowleft" xlink:href="#arrowLeft" x="0" y="0" onmousedown="handlePan(-1,0)"/>
</g>
<svg viewBox="0 0 15 15" width="100%" height="30px" preserveAspectRatio="xMaxYMin meet">
 <g id="arrow_out" transform="scale(0.3 0.3)">
  <a xlink:href="_t_sorting_diagnostics_8cxx__incl_org.svg" target="_base">
   <rect id="button" ry="5" rx="5" y="6" x="6" height="38" width="38"
        fill="#f2f5e9" fill-opacity="0.5" stroke="#606060" stroke-width="1.0"/>
   <path id="arrow"
     d="M 11.500037,31.436501 C 11.940474,20.09759 22.043105,11.32322 32.158766,21.979434 L 37.068811,17.246167 C 37.068811,17.246167 37.088388,32 37.088388,32 L 22.160133,31.978069 C 22.160133,31.978069 26.997745,27.140456 26.997745,27.140456 C 18.528582,18.264221 13.291696,25.230495 11.500037,31.436501 z"
     style="fill:#404040;"/>
  </a>
 </g>
</svg>

<style type='text/css'>
<![CDATA[
[data-mouse-over-selected='false'] { opacity: 0.7; }
[data-mouse-over-selected='true']  { opacity: 1.0; }
]]>
</style>
<script type="application/ecmascript"><![CDATA[
document.addEventListener('DOMContentLoaded', (event) => {
  highlightEdges();
  highlightAdjacentNodes();
});
]]></script>
</svg>
