<?xml version="1.0" encoding="UTF-8" standalone="no"?>
<!DOCTYPE svg PUBLIC "-//W3C//DTD SVG 1.1//EN"
 "http://www.w3.org/Graphics/SVG/1.1/DTD/svg11.dtd">
<!-- Generated by graphviz version 12.2.0 (20241103.1931)
 -->
<!-- Title: TSceptar.h Pages: 1 -->
<svg width="1777pt" height="138pt"
 viewBox="0.00 0.00 1776.75 137.75" xmlns="http://www.w3.org/2000/svg" xmlns:xlink="http://www.w3.org/1999/xlink">
<g id="graph0" class="graph" transform="scale(1 1) rotate(0) translate(4 133.75)">
<title>TSceptar.h</title>
<!-- Node1 -->
<g id="Node000001" class="node">
<title>Node1</title>
<g id="a_Node000001"><a xlink:title=" ">
<polygon fill="#999999" stroke="#666666" points="964.88,-129.75 901.62,-129.75 901.62,-110.5 964.88,-110.5 964.88,-129.75"/>
<text text-anchor="middle" x="933.25" y="-116.25" font-family="Helvetica,sans-Serif" font-size="10.00">TSceptar.h</text>
</a>
</g>
</g>
<!-- Node2 -->
<g id="Node000002" class="node">
<title>Node2</title>
<g id="a_Node000002"><a xlink:href="_angular_correlation_selector_8h.html" target="_top" xlink:title=" ">
<polygon fill="white" stroke="#666666" points="140.75,-74.5 1.75,-74.5 1.75,-55.25 140.75,-55.25 140.75,-74.5"/>
<text text-anchor="middle" x="71.25" y="-61" font-family="Helvetica,sans-Serif" font-size="10.00">AngularCorrelationSelector.h</text>
</a>
</g>
</g>
<!-- Node1&#45;&gt;Node2 -->
<g id="edge1_Node000001_Node000002" class="edge">
<title>Node1&#45;&gt;Node2</title>
<g id="a_edge1_Node000001_Node000002"><a xlink:title=" ">
<path fill="none" stroke="#63b8ff" d="M890.05,-117.48C771.53,-112.77 431.31,-98.11 149.25,-74.5 146.53,-74.27 143.77,-74.03 140.97,-73.77"/>
<polygon fill="#63b8ff" stroke="#63b8ff" points="889.83,-120.97 899.96,-117.86 890.1,-113.97 889.83,-120.97"/>
</a>
</g>
</g>
<!-- Node4 -->
<g id="Node000004" class="node">
<title>Node4</title>
<g id="a_Node000004"><a xlink:href="_cross_talk_8h.html" target="_top" xlink:title=" ">
<polygon fill="white" stroke="#666666" points="226.12,-74.5 158.38,-74.5 158.38,-55.25 226.12,-55.25 226.12,-74.5"/>
<text text-anchor="middle" x="192.25" y="-61" font-family="Helvetica,sans-Serif" font-size="10.00">CrossTalk.h</text>
</a>
</g>
</g>
<!-- Node1&#45;&gt;Node4 -->
<g id="edge3_Node000001_Node000004" class="edge">
<title>Node1&#45;&gt;Node4</title>
<g id="a_edge3_Node000001_Node000004"><a xlink:title=" ">
<path fill="none" stroke="#63b8ff" d="M890.23,-118.38C780.56,-116.04 481.79,-106.96 235.25,-74.5 232.38,-74.12 229.42,-73.67 226.45,-73.16"/>
<polygon fill="#63b8ff" stroke="#63b8ff" points="889.87,-121.87 899.94,-118.58 890.01,-114.87 889.87,-121.87"/>
</a>
</g>
</g>
<!-- Node6 -->
<g id="Node000006" class="node">
<title>Node6</title>
<g id="a_Node000006"><a xlink:href="_deadtime_8cxx.html" target="_top" xlink:title=" ">
<polygon fill="white" stroke="#666666" points="318.12,-74.5 244.38,-74.5 244.38,-55.25 318.12,-55.25 318.12,-74.5"/>
<text text-anchor="middle" x="281.25" y="-61" font-family="Helvetica,sans-Serif" font-size="10.00">Deadtime.cxx</text>
</a>
</g>
</g>
<!-- Node1&#45;&gt;Node6 -->
<g id="edge5_Node000001_Node000006" class="edge">
<title>Node1&#45;&gt;Node6</title>
<g id="a_edge5_Node000001_Node000006"><a xlink:title=" ">
<path fill="none" stroke="#63b8ff" d="M889.79,-117.66C789.9,-113.92 536.39,-102.27 326.25,-74.5 323.73,-74.17 321.13,-73.78 318.52,-73.36"/>
<polygon fill="#63b8ff" stroke="#63b8ff" points="889.56,-121.15 899.68,-118.02 889.82,-114.16 889.56,-121.15"/>
</a>
</g>
</g>
<!-- Node7 -->
<g id="Node000007" class="node">
<title>Node7</title>
<g id="a_Node000007"><a xlink:href="_example_event_selector_8h.html" target="_top" xlink:title=" ">
<polygon fill="white" stroke="#666666" points="456.75,-74.5 335.75,-74.5 335.75,-55.25 456.75,-55.25 456.75,-74.5"/>
<text text-anchor="middle" x="396.25" y="-61" font-family="Helvetica,sans-Serif" font-size="10.00">ExampleEventSelector.h</text>
</a>
</g>
</g>
<!-- Node1&#45;&gt;Node7 -->
<g id="edge6_Node000001_Node000007" class="edge">
<title>Node1&#45;&gt;Node7</title>
<g id="a_edge6_Node000001_Node000007"><a xlink:title=" ">
<path fill="none" stroke="#63b8ff" d="M889.71,-115.4C806.95,-108.23 621.25,-91.68 465.25,-74.5 462.61,-74.21 459.91,-73.9 457.19,-73.59"/>
<polygon fill="#63b8ff" stroke="#63b8ff" points="889.39,-118.89 899.65,-116.26 889.99,-111.91 889.39,-118.89"/>
</a>
</g>
</g>
<!-- Node9 -->
<g id="Node000009" class="node">
<title>Node9</title>
<g id="a_Node000009"><a xlink:href="_example_tree_helper_8hh.html" target="_top" xlink:title=" ">
<polygon fill="white" stroke="#666666" points="588,-74.5 474.5,-74.5 474.5,-55.25 588,-55.25 588,-74.5"/>
<text text-anchor="middle" x="531.25" y="-61" font-family="Helvetica,sans-Serif" font-size="10.00">ExampleTreeHelper.hh</text>
</a>
</g>
</g>
<!-- Node1&#45;&gt;Node9 -->
<g id="edge8_Node000001_Node000009" class="edge">
<title>Node1&#45;&gt;Node9</title>
<g id="a_edge8_Node000001_Node000009"><a xlink:title=" ">
<path fill="none" stroke="#63b8ff" d="M890.36,-113.44C817.6,-103.81 669.99,-84.25 588.5,-73.46"/>
<polygon fill="#63b8ff" stroke="#63b8ff" points="889.5,-116.86 899.87,-114.7 890.42,-109.92 889.5,-116.86"/>
</a>
</g>
</g>
<!-- Node11 -->
<g id="Node000011" class="node">
<title>Node11</title>
<g id="a_Node000011"><a xlink:href="_example_tree_selector_8h.html" target="_top" xlink:title=" ">
<polygon fill="white" stroke="#666666" points="722.12,-74.5 606.38,-74.5 606.38,-55.25 722.12,-55.25 722.12,-74.5"/>
<text text-anchor="middle" x="664.25" y="-61" font-family="Helvetica,sans-Serif" font-size="10.00">ExampleTreeSelector.h</text>
</a>
</g>
</g>
<!-- Node1&#45;&gt;Node11 -->
<g id="edge10_Node000001_Node000011" class="edge">
<title>Node1&#45;&gt;Node11</title>
<g id="a_edge10_Node000001_Node000011"><a xlink:title=" ">
<path fill="none" stroke="#63b8ff" d="M890.11,-110.58C840.8,-100.82 760.43,-84.91 710.04,-74.94"/>
<polygon fill="#63b8ff" stroke="#63b8ff" points="889.36,-114 899.85,-112.51 890.72,-107.14 889.36,-114"/>
</a>
</g>
</g>
<!-- Node13 -->
<g id="Node000013" class="node">
<title>Node13</title>
<g id="a_Node000013"><a xlink:href="_fast_timing_hist_selector_8h.html" target="_top" xlink:title=" ">
<polygon fill="white" stroke="#666666" points="866.38,-74.5 740.12,-74.5 740.12,-55.25 866.38,-55.25 866.38,-74.5"/>
<text text-anchor="middle" x="803.25" y="-61" font-family="Helvetica,sans-Serif" font-size="10.00">FastTimingHistSelector.h</text>
</a>
</g>
</g>
<!-- Node1&#45;&gt;Node13 -->
<g id="edge12_Node000001_Node000013" class="edge">
<title>Node1&#45;&gt;Node13</title>
<g id="a_edge12_Node000001_Node000013"><a xlink:title=" ">
<path fill="none" stroke="#63b8ff" d="M900.68,-105.78C877.18,-96.16 846.08,-83.42 825.41,-74.95"/>
<polygon fill="#63b8ff" stroke="#63b8ff" points="899.22,-108.97 909.8,-109.52 901.87,-102.49 899.22,-108.97"/>
</a>
</g>
</g>
<!-- Node15 -->
<g id="Node000015" class="node">
<title>Node15</title>
<g id="a_Node000015"><a xlink:href="_get_tree_entries_8cxx.html" target="_top" xlink:title=" ">
<polygon fill="white" stroke="#666666" points="982.12,-74.5 884.38,-74.5 884.38,-55.25 982.12,-55.25 982.12,-74.5"/>
<text text-anchor="middle" x="933.25" y="-61" font-family="Helvetica,sans-Serif" font-size="10.00">GetTreeEntries.cxx</text>
</a>
</g>
</g>
<!-- Node1&#45;&gt;Node15 -->
<g id="edge14_Node000001_Node000015" class="edge">
<title>Node1&#45;&gt;Node15</title>
<g id="a_edge14_Node000001_Node000015"><a xlink:title=" ">
<path fill="none" stroke="#63b8ff" d="M933.25,-98.88C933.25,-90.59 933.25,-81.42 933.25,-74.86"/>
<polygon fill="#63b8ff" stroke="#63b8ff" points="929.75,-98.82 933.25,-108.82 936.75,-98.82 929.75,-98.82"/>
</a>
</g>
</g>
<!-- Node16 -->
<g id="Node000016" class="node">
<title>Node16</title>
<g id="a_Node000016"><a xlink:href="_t_g_r_s_i_mnemonic_8cxx.html" target="_top" xlink:title=" ">
<polygon fill="white" stroke="#666666" points="1108,-74.5 1000.5,-74.5 1000.5,-55.25 1108,-55.25 1108,-74.5"/>
<text text-anchor="middle" x="1054.25" y="-61" font-family="Helvetica,sans-Serif" font-size="10.00">TGRSIMnemonic.cxx</text>
</a>
</g>
</g>
<!-- Node1&#45;&gt;Node16 -->
<g id="edge15_Node000001_Node000016" class="edge">
<title>Node1&#45;&gt;Node16</title>
<g id="a_edge15_Node000001_Node000016"><a xlink:title=" ">
<path fill="none" stroke="#63b8ff" d="M964.16,-105.52C985.96,-95.93 1014.56,-83.34 1033.62,-74.95"/>
<polygon fill="#63b8ff" stroke="#63b8ff" points="962.9,-102.25 955.16,-109.48 965.72,-108.66 962.9,-102.25"/>
</a>
</g>
</g>
<!-- Node17 -->
<g id="Node000017" class="node">
<title>Node17</title>
<g id="a_Node000017"><a xlink:href="_t_sceptar_8cxx.html" target="_top" xlink:title=" ">
<polygon fill="white" stroke="#666666" points="1198.38,-74.5 1126.12,-74.5 1126.12,-55.25 1198.38,-55.25 1198.38,-74.5"/>
<text text-anchor="middle" x="1162.25" y="-61" font-family="Helvetica,sans-Serif" font-size="10.00">TSceptar.cxx</text>
</a>
</g>
</g>
<!-- Node1&#45;&gt;Node17 -->
<g id="edge16_Node000001_Node000017" class="edge">
<title>Node1&#45;&gt;Node17</title>
<g id="a_edge16_Node000001_Node000017"><a xlink:title=" ">
<path fill="none" stroke="#63b8ff" d="M976.08,-109.17C1019.21,-99.14 1085.04,-83.83 1125.77,-74.36"/>
<polygon fill="#63b8ff" stroke="#63b8ff" points="975.51,-105.7 966.57,-111.38 977.1,-112.52 975.51,-105.7"/>
</a>
</g>
</g>
<!-- Node18 -->
<g id="Node000018" class="node">
<title>Node18</title>
<g id="a_Node000018"><a xlink:href="_t_sceptar_hit_8cxx.html" target="_top" xlink:title=" ">
<polygon fill="white" stroke="#666666" points="1301.75,-74.5 1216.75,-74.5 1216.75,-55.25 1301.75,-55.25 1301.75,-74.5"/>
<text text-anchor="middle" x="1259.25" y="-61" font-family="Helvetica,sans-Serif" font-size="10.00">TSceptarHit.cxx</text>
</a>
</g>
</g>
<!-- Node1&#45;&gt;Node18 -->
<g id="edge17_Node000001_Node000018" class="edge">
<title>Node1&#45;&gt;Node18</title>
<g id="a_edge17_Node000001_Node000018"><a xlink:title=" ">
<path fill="none" stroke="#63b8ff" d="M976.52,-112.12C1030.52,-103.36 1125.73,-87.9 1207.25,-74.5 1210.23,-74.01 1213.31,-73.5 1216.4,-72.99"/>
<polygon fill="#63b8ff" stroke="#63b8ff" points="976.12,-108.64 966.81,-113.69 977.24,-115.55 976.12,-108.64"/>
</a>
</g>
</g>
<!-- Node19 -->
<g id="Node000019" class="node">
<title>Node19</title>
<g id="a_Node000019"><a xlink:href="_tac_offset_helper_8hh.html" target="_top" xlink:title=" ">
<polygon fill="white" stroke="#666666" points="1420.25,-74.5 1320.25,-74.5 1320.25,-55.25 1420.25,-55.25 1420.25,-74.5"/>
<text text-anchor="middle" x="1370.25" y="-61" font-family="Helvetica,sans-Serif" font-size="10.00">TacOffsetHelper.hh</text>
</a>
</g>
</g>
<!-- Node1&#45;&gt;Node19 -->
<g id="edge18_Node000001_Node000019" class="edge">
<title>Node1&#45;&gt;Node19</title>
<g id="a_edge18_Node000001_Node000019"><a xlink:title=" ">
<path fill="none" stroke="#63b8ff" d="M976.17,-114.45C1046.32,-106.72 1189.93,-90.53 1311.25,-74.5 1314.12,-74.12 1317.07,-73.72 1320.05,-73.31"/>
<polygon fill="#63b8ff" stroke="#63b8ff" points="976.21,-110.92 966.65,-115.5 976.97,-117.88 976.21,-110.92"/>
</a>
</g>
</g>
<!-- Node21 -->
<g id="Node000021" class="node">
<title>Node21</title>
<g id="a_Node000021"><a xlink:href="_time_walk_helper_8hh.html" target="_top" xlink:title=" ">
<polygon fill="white" stroke="#666666" points="1538.62,-74.5 1437.88,-74.5 1437.88,-55.25 1538.62,-55.25 1538.62,-74.5"/>
<text text-anchor="middle" x="1488.25" y="-61" font-family="Helvetica,sans-Serif" font-size="10.00">TimeWalkHelper.hh</text>
</a>
</g>
</g>
<!-- Node1&#45;&gt;Node21 -->
<g id="edge20_Node000001_Node000021" class="edge">
<title>Node1&#45;&gt;Node21</title>
<g id="a_edge20_Node000001_Node000021"><a xlink:title=" ">
<path fill="none" stroke="#63b8ff" d="M976.65,-116.03C1062.99,-109.7 1262.37,-94.19 1429.25,-74.5 1431.92,-74.18 1434.66,-73.84 1437.42,-73.49"/>
<polygon fill="#63b8ff" stroke="#63b8ff" points="976.46,-112.54 966.74,-116.76 976.97,-119.52 976.46,-112.54"/>
</a>
</g>
</g>
<!-- Node23 -->
<g id="Node000023" class="node">
<title>Node23</title>
<g id="a_Node000023"><a xlink:href="_time_walk_selector_8h.html" target="_top" xlink:title=" ">
<polygon fill="white" stroke="#666666" points="1659.75,-74.5 1556.75,-74.5 1556.75,-55.25 1659.75,-55.25 1659.75,-74.5"/>
<text text-anchor="middle" x="1608.25" y="-61" font-family="Helvetica,sans-Serif" font-size="10.00">TimeWalkSelector.h</text>
</a>
</g>
</g>
<!-- Node1&#45;&gt;Node23 -->
<g id="edge22_Node000001_Node000023" class="edge">
<title>Node1&#45;&gt;Node23</title>
<g id="a_edge22_Node000001_Node000023"><a xlink:title=" ">
<path fill="none" stroke="#63b8ff" d="M976.76,-116.98C1077.37,-111.8 1333.82,-97.32 1547.25,-74.5 1550.23,-74.18 1553.28,-73.83 1556.37,-73.46"/>
<polygon fill="#63b8ff" stroke="#63b8ff" points="976.6,-113.48 966.79,-117.49 976.96,-120.47 976.6,-113.48"/>
</a>
</g>
</g>
<!-- Node25 -->
<g id="Node000025" class="node">
<title>Node25</title>
<g id="a_Node000025"><a xlink:href="tac__calibrator_8cxx.html" target="_top" xlink:title=" ">
<polygon fill="white" stroke="#666666" points="1768.75,-74.5 1677.75,-74.5 1677.75,-55.25 1768.75,-55.25 1768.75,-74.5"/>
<text text-anchor="middle" x="1723.25" y="-61" font-family="Helvetica,sans-Serif" font-size="10.00">tac_calibrator.cxx</text>
</a>
</g>
</g>
<!-- Node1&#45;&gt;Node25 -->
<g id="edge24_Node000001_Node000025" class="edge">
<title>Node1&#45;&gt;Node25</title>
<g id="a_edge24_Node000001_Node000025"><a xlink:title=" ">
<path fill="none" stroke="#63b8ff" d="M976.58,-117.98C1090.4,-114.65 1407.17,-103.31 1669.25,-74.5 1671.89,-74.21 1674.6,-73.88 1677.33,-73.52"/>
<polygon fill="#63b8ff" stroke="#63b8ff" points="976.68,-114.47 966.78,-118.26 976.88,-121.47 976.68,-114.47"/>
</a>
</g>
</g>
<!-- Node3 -->
<g id="Node000003" class="node">
<title>Node3</title>
<g id="a_Node000003"><a xlink:href="_angular_correlation_selector_8_c.html" target="_top" xlink:title=" ">
<polygon fill="white" stroke="#666666" points="140.5,-19.25 0,-19.25 0,0 140.5,0 140.5,-19.25"/>
<text text-anchor="middle" x="70.25" y="-5.75" font-family="Helvetica,sans-Serif" font-size="10.00">AngularCorrelationSelector.C</text>
</a>
</g>
</g>
<!-- Node2&#45;&gt;Node3 -->
<g id="edge2_Node000002_Node000003" class="edge">
<title>Node2&#45;&gt;Node3</title>
<g id="a_edge2_Node000002_Node000003"><a xlink:title=" ">
<path fill="none" stroke="#63b8ff" d="M70.87,-43.63C70.71,-35.34 70.54,-26.17 70.42,-19.61"/>
<polygon fill="#63b8ff" stroke="#63b8ff" points="67.37,-43.64 71.06,-53.57 74.37,-43.5 67.37,-43.64"/>
</a>
</g>
</g>
<!-- Node5 -->
<g id="Node000005" class="node">
<title>Node5</title>
<g id="a_Node000005"><a xlink:href="_cross_talk_8_c.html" target="_top" xlink:title=" ">
<polygon fill="white" stroke="#666666" points="227.88,-19.25 158.62,-19.25 158.62,0 227.88,0 227.88,-19.25"/>
<text text-anchor="middle" x="193.25" y="-5.75" font-family="Helvetica,sans-Serif" font-size="10.00">CrossTalk.C</text>
</a>
</g>
</g>
<!-- Node4&#45;&gt;Node5 -->
<g id="edge4_Node000004_Node000005" class="edge">
<title>Node4&#45;&gt;Node5</title>
<g id="a_edge4_Node000004_Node000005"><a xlink:title=" ">
<path fill="none" stroke="#63b8ff" d="M192.63,-43.63C192.79,-35.34 192.96,-26.17 193.08,-19.61"/>
<polygon fill="#63b8ff" stroke="#63b8ff" points="189.13,-43.5 192.44,-53.57 196.13,-43.64 189.13,-43.5"/>
</a>
</g>
</g>
<!-- Node8 -->
<g id="Node000008" class="node">
<title>Node8</title>
<g id="a_Node000008"><a xlink:href="_example_event_selector_8_c.html" target="_top" xlink:title=" ">
<polygon fill="white" stroke="#666666" points="453.5,-19.25 331,-19.25 331,0 453.5,0 453.5,-19.25"/>
<text text-anchor="middle" x="392.25" y="-5.75" font-family="Helvetica,sans-Serif" font-size="10.00">ExampleEventSelector.C</text>
</a>
</g>
</g>
<!-- Node7&#45;&gt;Node8 -->
<g id="edge7_Node000007_Node000008" class="edge">
<title>Node7&#45;&gt;Node8</title>
<g id="a_edge7_Node000007_Node000008"><a xlink:title=" ">
<path fill="none" stroke="#63b8ff" d="M394.73,-43.63C394.11,-35.34 393.42,-26.17 392.92,-19.61"/>
<polygon fill="#63b8ff" stroke="#63b8ff" points="391.24,-43.86 395.48,-53.57 398.22,-43.34 391.24,-43.86"/>
</a>
</g>
</g>
<!-- Node10 -->
<g id="Node000010" class="node">
<title>Node10</title>
<g id="a_Node000010"><a xlink:href="_example_tree_helper_8cxx.html" target="_top" xlink:title=" ">
<polygon fill="white" stroke="#666666" points="588.88,-19.25 471.62,-19.25 471.62,0 588.88,0 588.88,-19.25"/>
<text text-anchor="middle" x="530.25" y="-5.75" font-family="Helvetica,sans-Serif" font-size="10.00">ExampleTreeHelper.cxx</text>
</a>
</g>
</g>
<!-- Node9&#45;&gt;Node10 -->
<g id="edge9_Node000009_Node000010" class="edge">
<title>Node9&#45;&gt;Node10</title>
<g id="a_edge9_Node000009_Node000010"><a xlink:title=" ">
<path fill="none" stroke="#63b8ff" d="M530.87,-43.63C530.71,-35.34 530.54,-26.17 530.42,-19.61"/>
<polygon fill="#63b8ff" stroke="#63b8ff" points="527.37,-43.64 531.06,-53.57 534.37,-43.5 527.37,-43.64"/>
</a>
</g>
</g>
<!-- Node12 -->
<g id="Node000012" class="node">
<title>Node12</title>
<g id="a_Node000012"><a xlink:href="_example_tree_selector_8_c.html" target="_top" xlink:title=" ">
<polygon fill="white" stroke="#666666" points="723.88,-19.25 606.62,-19.25 606.62,0 723.88,0 723.88,-19.25"/>
<text text-anchor="middle" x="665.25" y="-5.75" font-family="Helvetica,sans-Serif" font-size="10.00">ExampleTreeSelector.C</text>
</a>
</g>
</g>
<!-- Node11&#45;&gt;Node12 -->
<g id="edge11_Node000011_Node000012" class="edge">
<title>Node11&#45;&gt;Node12</title>
<g id="a_edge11_Node000011_Node000012"><a xlink:title=" ">
<path fill="none" stroke="#63b8ff" d="M664.63,-43.63C664.79,-35.34 664.96,-26.17 665.08,-19.61"/>
<polygon fill="#63b8ff" stroke="#63b8ff" points="661.13,-43.5 664.44,-53.57 668.13,-43.64 661.13,-43.5"/>
</a>
</g>
</g>
<!-- Node14 -->
<g id="Node000014" class="node">
<title>Node14</title>
<g id="a_Node000014"><a xlink:href="_fast_timing_hist_selector_8_c.html" target="_top" xlink:title=" ">
<polygon fill="white" stroke="#666666" points="870.12,-19.25 742.38,-19.25 742.38,0 870.12,0 870.12,-19.25"/>
<text text-anchor="middle" x="806.25" y="-5.75" font-family="Helvetica,sans-Serif" font-size="10.00">FastTimingHistSelector.C</text>
</a>
</g>
</g>
<!-- Node13&#45;&gt;Node14 -->
<g id="edge13_Node000013_Node000014" class="edge">
<title>Node13&#45;&gt;Node14</title>
<g id="a_edge13_Node000013_Node000014"><a xlink:title=" ">
<path fill="none" stroke="#63b8ff" d="M804.39,-43.63C804.86,-35.34 805.37,-26.17 805.74,-19.61"/>
<polygon fill="#63b8ff" stroke="#63b8ff" points="800.9,-43.39 803.83,-53.57 807.89,-43.78 800.9,-43.39"/>
</a>
</g>
</g>
<!-- Node20 -->
<g id="Node000020" class="node">
<title>Node20</title>
<g id="a_Node000020"><a xlink:href="_tac_offset_helper_8cxx.html" target="_top" xlink:title=" ">
<polygon fill="white" stroke="#666666" points="1418.12,-19.25 1314.38,-19.25 1314.38,0 1418.12,0 1418.12,-19.25"/>
<text text-anchor="middle" x="1366.25" y="-5.75" font-family="Helvetica,sans-Serif" font-size="10.00">TacOffsetHelper.cxx</text>
</a>
</g>
</g>
<!-- Node19&#45;&gt;Node20 -->
<g id="edge19_Node000019_Node000020" class="edge">
<title>Node19&#45;&gt;Node20</title>
<g id="a_edge19_Node000019_Node000020"><a xlink:title=" ">
<path fill="none" stroke="#63b8ff" d="M1368.73,-43.63C1368.11,-35.34 1367.42,-26.17 1366.92,-19.61"/>
<polygon fill="#63b8ff" stroke="#63b8ff" points="1365.24,-43.86 1369.48,-53.57 1372.22,-43.34 1365.24,-43.86"/>
</a>
</g>
</g>
<!-- Node22 -->
<g id="Node000022" class="node">
<title>Node22</title>
<g id="a_Node000022"><a xlink:href="_time_walk_helper_8cxx.html" target="_top" xlink:title=" ">
<polygon fill="white" stroke="#666666" points="1540.5,-19.25 1436,-19.25 1436,0 1540.5,0 1540.5,-19.25"/>
<text text-anchor="middle" x="1488.25" y="-5.75" font-family="Helvetica,sans-Serif" font-size="10.00">TimeWalkHelper.cxx</text>
</a>
</g>
</g>
<!-- Node21&#45;&gt;Node22 -->
<g id="edge21_Node000021_Node000022" class="edge">
<title>Node21&#45;&gt;Node22</title>
<g id="a_edge21_Node000021_Node000022"><a xlink:title=" ">
<path fill="none" stroke="#63b8ff" d="M1488.25,-43.63C1488.25,-35.34 1488.25,-26.17 1488.25,-19.61"/>
<polygon fill="#63b8ff" stroke="#63b8ff" points="1484.75,-43.57 1488.25,-53.57 1491.75,-43.57 1484.75,-43.57"/>
</a>
</g>
</g>
<!-- Node24 -->
<g id="Node000024" class="node">
<title>Node24</title>
<g id="a_Node000024"><a xlink:href="_time_walk_selector_8_c.html" target="_top" xlink:title=" ">
<polygon fill="white" stroke="#666666" points="1663.5,-19.25 1559,-19.25 1559,0 1663.5,0 1663.5,-19.25"/>
<text text-anchor="middle" x="1611.25" y="-5.75" font-family="Helvetica,sans-Serif" font-size="10.00">TimeWalkSelector.C</text>
</a>
</g>
</g>
<!-- Node23&#45;&gt;Node24 -->
<g id="edge23_Node000023_Node000024" class="edge">
<title>Node23&#45;&gt;Node24</title>
<g id="a_edge23_Node000023_Node000024"><a xlink:title=" ">
<path fill="none" stroke="#63b8ff" d="M1609.39,-43.63C1609.86,-35.34 1610.37,-26.17 1610.74,-19.61"/>
<polygon fill="#63b8ff" stroke="#63b8ff" points="1605.9,-43.39 1608.83,-53.57 1612.89,-43.78 1605.9,-43.39"/>
</a>
</g>
</g>
</g>
</svg>
