<?xml version="1.0" encoding="UTF-8" standalone="no"?>
<!DOCTYPE svg PUBLIC "-//W3C//DTD SVG 1.1//EN"
 "http://www.w3.org/Graphics/SVG/1.1/DTD/svg11.dtd">
<!-- Generated by graphviz version 12.2.0 (20241103.1931)
 -->
<!-- Title: TSortingDiagnostics.cxx Pages: 1 -->
<svg width="1388pt" height="248pt"
 viewBox="0.00 0.00 1388.12 248.25" xmlns="http://www.w3.org/2000/svg" xmlns:xlink="http://www.w3.org/1999/xlink">
<g id="graph0" class="graph" transform="scale(1 1) rotate(0) translate(4 244.25)">
<title>TSortingDiagnostics.cxx</title>
<!-- Node1 -->
<g id="Node000001" class="node">
<title>Node1</title>
<g id="a_Node000001"><a xlink:title=" ">
<polygon fill="#999999" stroke="#666666" points="659.62,-240.25 539.38,-240.25 539.38,-221 659.62,-221 659.62,-240.25"/>
<text text-anchor="middle" x="599.5" y="-226.75" font-family="Helvetica,sans-Serif" font-size="10.00">TSortingDiagnostics.cxx</text>
</a>
</g>
</g>
<!-- Node2 -->
<g id="Node000002" class="node">
<title>Node2</title>
<g id="a_Node000002"><a xlink:href="_t_sorting_diagnostics_8h.html" target="_top" xlink:title=" ">
<polygon fill="white" stroke="#666666" points="655.12,-185 543.88,-185 543.88,-165.75 655.12,-165.75 655.12,-185"/>
<text text-anchor="middle" x="599.5" y="-171.5" font-family="Helvetica,sans-Serif" font-size="10.00">TSortingDiagnostics.h</text>
</a>
</g>
</g>
<!-- Node1&#45;&gt;Node2 -->
<g id="edge1_Node000001_Node000002" class="edge">
<title>Node1&#45;&gt;Node2</title>
<g id="a_edge1_Node000001_Node000002"><a xlink:title=" ">
<path fill="none" stroke="#63b8ff" d="M599.5,-220.83C599.5,-214.32 599.5,-205.17 599.5,-196.87"/>
<polygon fill="#63b8ff" stroke="#63b8ff" points="603,-196.87 599.5,-186.87 596,-196.87 603,-196.87"/>
</a>
</g>
</g>
<!-- Node6 -->
<g id="Node000006" class="node">
<title>Node6</title>
<g id="a_Node000006"><a xlink:href="_t_channel_8h.html" target="_top" xlink:title=" ">
<polygon fill="white" stroke="#666666" points="547.88,-129.75 483.12,-129.75 483.12,-110.5 547.88,-110.5 547.88,-129.75"/>
<text text-anchor="middle" x="515.5" y="-116.25" font-family="Helvetica,sans-Serif" font-size="10.00">TChannel.h</text>
</a>
</g>
</g>
<!-- Node1&#45;&gt;Node6 -->
<g id="edge43_Node000001_Node000006" class="edge">
<title>Node1&#45;&gt;Node6</title>
<g id="a_edge43_Node000001_Node000006"><a xlink:title=" ">
<path fill="none" stroke="#63b8ff" d="M579.72,-220.63C565.22,-213.06 546.1,-200.94 534.5,-185 525.21,-172.24 520.43,-154.94 517.99,-141.57"/>
<polygon fill="#63b8ff" stroke="#63b8ff" points="521.45,-141.09 516.51,-131.72 514.53,-142.12 521.45,-141.09"/>
</a>
</g>
</g>
<!-- Node7 -->
<g id="Node000007" class="node">
<title>Node7</title>
<g id="a_Node000007"><a xlink:title=" ">
<polygon fill="#e0e0e0" stroke="#999999" points="192.5,-19.25 152.5,-19.25 152.5,0 192.5,0 192.5,-19.25"/>
<text text-anchor="middle" x="172.5" y="-5.75" font-family="Helvetica,sans-Serif" font-size="10.00">string</text>
</a>
</g>
</g>
<!-- Node1&#45;&gt;Node7 -->
<g id="edge42_Node000001_Node000007" class="edge">
<title>Node1&#45;&gt;Node7</title>
<g id="a_edge42_Node000001_Node000007"><a xlink:title=" ">
<path fill="none" stroke="#63b8ff" d="M539.03,-226.43C445.51,-217.96 267.42,-187.07 179.5,-74.5 169.93,-62.25 168.71,-44.41 169.58,-30.7"/>
<polygon fill="#63b8ff" stroke="#63b8ff" points="173.02,-31.36 170.62,-21.04 166.06,-30.61 173.02,-31.36"/>
</a>
</g>
</g>
<!-- Node36 -->
<g id="Node000036" class="node">
<title>Node36</title>
<g id="a_Node000036"><a xlink:title=" ">
<polygon fill="#e0e0e0" stroke="#999999" points="863,-185 814,-185 814,-165.75 863,-165.75 863,-185"/>
<text text-anchor="middle" x="838.5" y="-171.5" font-family="Helvetica,sans-Serif" font-size="10.00">fstream</text>
</a>
</g>
</g>
<!-- Node1&#45;&gt;Node36 -->
<g id="edge41_Node000001_Node000036" class="edge">
<title>Node1&#45;&gt;Node36</title>
<g id="a_edge41_Node000001_Node000036"><a xlink:title=" ">
<path fill="none" stroke="#63b8ff" d="M644.23,-220.51C683.59,-212.35 742.72,-199.8 802.5,-185.65"/>
<polygon fill="#63b8ff" stroke="#63b8ff" points="803.27,-189.06 812.19,-183.34 801.65,-182.25 803.27,-189.06"/>
</a>
</g>
</g>
<!-- Node37 -->
<g id="Node000037" class="node">
<title>Node37</title>
<g id="a_Node000037"><a xlink:href="_t_g_r_s_i_options_8h.html" target="_top" xlink:title=" ">
<polygon fill="white" stroke="#666666" points="796.12,-185 708.88,-185 708.88,-165.75 796.12,-165.75 796.12,-185"/>
<text text-anchor="middle" x="752.5" y="-171.5" font-family="Helvetica,sans-Serif" font-size="10.00">TGRSIOptions.h</text>
</a>
</g>
</g>
<!-- Node1&#45;&gt;Node37 -->
<g id="edge44_Node000001_Node000037" class="edge">
<title>Node1&#45;&gt;Node37</title>
<g id="a_edge44_Node000001_Node000037"><a xlink:title=" ">
<path fill="none" stroke="#63b8ff" d="M625.45,-220.59C650.29,-211.95 688,-198.82 715.88,-189.12"/>
<polygon fill="#63b8ff" stroke="#63b8ff" points="716.69,-192.54 724.99,-185.95 714.39,-185.93 716.69,-192.54"/>
</a>
</g>
</g>
<!-- Node3 -->
<g id="Node000003" class="node">
<title>Node3</title>
<g id="a_Node000003"><a xlink:title=" ">
<polygon fill="#e0e0e0" stroke="#999999" points="43,-19.25 0,-19.25 0,0 43,0 43,-19.25"/>
<text text-anchor="middle" x="21.5" y="-5.75" font-family="Helvetica,sans-Serif" font-size="10.00">vector</text>
</a>
</g>
</g>
<!-- Node2&#45;&gt;Node3 -->
<g id="edge2_Node000002_Node000003" class="edge">
<title>Node2&#45;&gt;Node3</title>
<g id="a_edge2_Node000002_Node000003"><a xlink:title=" ">
<path fill="none" stroke="#63b8ff" d="M543.81,-173.5C411.87,-170.14 86.32,-153.81 19.5,-74.5 9.44,-62.56 11.05,-44.43 14.53,-30.54"/>
<polygon fill="#63b8ff" stroke="#63b8ff" points="17.83,-31.71 17.39,-21.13 11.14,-29.68 17.83,-31.71"/>
</a>
</g>
</g>
<!-- Node4 -->
<g id="Node000004" class="node">
<title>Node4</title>
<g id="a_Node000004"><a xlink:title=" ">
<polygon fill="#e0e0e0" stroke="#999999" points="393.88,-74.5 311.12,-74.5 311.12,-55.25 393.88,-55.25 393.88,-74.5"/>
<text text-anchor="middle" x="352.5" y="-61" font-family="Helvetica,sans-Serif" font-size="10.00">unordered_map</text>
</a>
</g>
</g>
<!-- Node2&#45;&gt;Node4 -->
<g id="edge3_Node000002_Node000004" class="edge">
<title>Node2&#45;&gt;Node4</title>
<g id="a_edge3_Node000002_Node000004"><a xlink:title=" ">
<path fill="none" stroke="#63b8ff" d="M570.51,-165.3C544.89,-156.98 506.69,-143.84 474.5,-129.75 440.16,-114.72 402.12,-94.14 377.79,-80.44"/>
<polygon fill="#63b8ff" stroke="#63b8ff" points="379.69,-77.5 369.27,-75.61 376.23,-83.59 379.69,-77.5"/>
</a>
</g>
</g>
<!-- Node5 -->
<g id="Node000005" class="node">
<title>Node5</title>
<g id="a_Node000005"><a xlink:title=" ">
<polygon fill="#e0e0e0" stroke="#999999" points="854.5,-74.5 796.5,-74.5 796.5,-55.25 854.5,-55.25 854.5,-74.5"/>
<text text-anchor="middle" x="825.5" y="-61" font-family="Helvetica,sans-Serif" font-size="10.00">TObject.h</text>
</a>
</g>
</g>
<!-- Node2&#45;&gt;Node5 -->
<g id="edge4_Node000002_Node000005" class="edge">
<title>Node2&#45;&gt;Node5</title>
<g id="a_edge4_Node000002_Node000005"><a xlink:title=" ">
<path fill="none" stroke="#63b8ff" d="M618.38,-165.31C657.85,-146.36 749.31,-102.45 796.37,-79.86"/>
<polygon fill="#63b8ff" stroke="#63b8ff" points="797.65,-83.13 805.15,-75.64 794.62,-76.82 797.65,-83.13"/>
</a>
</g>
</g>
<!-- Node2&#45;&gt;Node6 -->
<g id="edge5_Node000002_Node000006" class="edge">
<title>Node2&#45;&gt;Node6</title>
<g id="a_edge5_Node000002_Node000006"><a xlink:title=" ">
<path fill="none" stroke="#63b8ff" d="M585.25,-165.34C572.7,-157.39 554.17,-145.64 539.36,-136.25"/>
<polygon fill="#63b8ff" stroke="#63b8ff" points="541.42,-133.41 531.1,-131.01 537.67,-139.32 541.42,-133.41"/>
</a>
</g>
</g>
<!-- Node16 -->
<g id="Node000016" class="node">
<title>Node16</title>
<g id="a_Node000016"><a xlink:href="_t_singleton_8h.html" target="_top" xlink:title=" ">
<polygon fill="white" stroke="#666666" points="974.5,-129.75 904.5,-129.75 904.5,-110.5 974.5,-110.5 974.5,-129.75"/>
<text text-anchor="middle" x="939.5" y="-116.25" font-family="Helvetica,sans-Serif" font-size="10.00">TSingleton.h</text>
</a>
</g>
</g>
<!-- Node2&#45;&gt;Node16 -->
<g id="edge18_Node000002_Node000016" class="edge">
<title>Node2&#45;&gt;Node16</title>
<g id="a_edge18_Node000002_Node000016"><a xlink:title=" ">
<path fill="none" stroke="#63b8ff" d="M655.41,-166.08C713.85,-157.34 808.18,-143.02 889.5,-129.75 890.67,-129.56 891.86,-129.36 893.06,-129.17"/>
<polygon fill="#63b8ff" stroke="#63b8ff" points="893.23,-132.69 902.51,-127.58 892.07,-125.78 893.23,-132.69"/>
</a>
</g>
</g>
<!-- Node6&#45;&gt;Node4 -->
<g id="edge9_Node000006_Node000004" class="edge">
<title>Node6&#45;&gt;Node4</title>
<g id="a_edge9_Node000006_Node000004"><a xlink:title=" ">
<path fill="none" stroke="#63b8ff" d="M487.85,-110.09C461.27,-101.41 420.86,-88.21 391.11,-78.49"/>
<polygon fill="#63b8ff" stroke="#63b8ff" points="392.32,-75.2 381.73,-75.42 390.14,-81.85 392.32,-75.2"/>
</a>
</g>
</g>
<!-- Node6&#45;&gt;Node7 -->
<g id="edge6_Node000006_Node000007" class="edge">
<title>Node6&#45;&gt;Node7</title>
<g id="a_edge6_Node000006_Node000007"><a xlink:title=" ">
<path fill="none" stroke="#63b8ff" d="M482.79,-118.61C410.73,-116.86 241.25,-109.06 197.5,-74.5 184.2,-63.99 177.96,-45.43 175.04,-31.01"/>
<polygon fill="#63b8ff" stroke="#63b8ff" points="178.51,-30.53 173.48,-21.21 171.6,-31.64 178.51,-30.53"/>
</a>
</g>
</g>
<!-- Node8 -->
<g id="Node000008" class="node">
<title>Node8</title>
<g id="a_Node000008"><a xlink:title=" ">
<polygon fill="#e0e0e0" stroke="#999999" points="455,-74.5 412,-74.5 412,-55.25 455,-55.25 455,-74.5"/>
<text text-anchor="middle" x="433.5" y="-61" font-family="Helvetica,sans-Serif" font-size="10.00">cmath</text>
</a>
</g>
</g>
<!-- Node6&#45;&gt;Node8 -->
<g id="edge7_Node000006_Node000008" class="edge">
<title>Node6&#45;&gt;Node8</title>
<g id="a_edge7_Node000006_Node000008"><a xlink:title=" ">
<path fill="none" stroke="#63b8ff" d="M501.59,-110.09C489.34,-102.14 471.25,-90.39 456.79,-81"/>
<polygon fill="#63b8ff" stroke="#63b8ff" points="459.04,-78.29 448.75,-75.78 455.23,-84.16 459.04,-78.29"/>
</a>
</g>
</g>
<!-- Node9 -->
<g id="Node000009" class="node">
<title>Node9</title>
<g id="a_Node000009"><a xlink:title=" ">
<polygon fill="#e0e0e0" stroke="#999999" points="511.75,-74.5 473.25,-74.5 473.25,-55.25 511.75,-55.25 511.75,-74.5"/>
<text text-anchor="middle" x="492.5" y="-61" font-family="Helvetica,sans-Serif" font-size="10.00">utility</text>
</a>
</g>
</g>
<!-- Node6&#45;&gt;Node9 -->
<g id="edge8_Node000006_Node000009" class="edge">
<title>Node6&#45;&gt;Node9</title>
<g id="a_edge8_Node000006_Node000009"><a xlink:title=" ">
<path fill="none" stroke="#63b8ff" d="M511.7,-110.33C508.76,-103.51 504.56,-93.81 500.85,-85.2"/>
<polygon fill="#63b8ff" stroke="#63b8ff" points="504.16,-84.04 496.98,-76.25 497.73,-86.82 504.16,-84.04"/>
</a>
</g>
</g>
<!-- Node10 -->
<g id="Node000010" class="node">
<title>Node10</title>
<g id="a_Node000010"><a xlink:title=" ">
<polygon fill="#e0e0e0" stroke="#999999" points="415,-19.25 354,-19.25 354,0 415,0 415,-19.25"/>
<text text-anchor="middle" x="384.5" y="-5.75" font-family="Helvetica,sans-Serif" font-size="10.00">TNamed.h</text>
</a>
</g>
</g>
<!-- Node6&#45;&gt;Node10 -->
<g id="edge10_Node000006_Node000010" class="edge">
<title>Node6&#45;&gt;Node10</title>
<g id="a_edge10_Node000006_Node000010"><a xlink:title=" ">
<path fill="none" stroke="#63b8ff" d="M519.49,-110.31C524.84,-97.01 532.38,-71.65 520.5,-55.25 514.73,-47.28 464.05,-32.09 426.24,-21.67"/>
<polygon fill="#63b8ff" stroke="#63b8ff" points="427.5,-18.39 416.93,-19.13 425.66,-25.14 427.5,-18.39"/>
</a>
</g>
</g>
<!-- Node11 -->
<g id="Node000011" class="node">
<title>Node11</title>
<g id="a_Node000011"><a xlink:title=" ">
<polygon fill="#e0e0e0" stroke="#999999" points="617,-74.5 568,-74.5 568,-55.25 617,-55.25 617,-74.5"/>
<text text-anchor="middle" x="592.5" y="-61" font-family="Helvetica,sans-Serif" font-size="10.00">TTree.h</text>
</a>
</g>
</g>
<!-- Node6&#45;&gt;Node11 -->
<g id="edge11_Node000006_Node000011" class="edge">
<title>Node6&#45;&gt;Node11</title>
<g id="a_edge11_Node000006_Node000011"><a xlink:title=" ">
<path fill="none" stroke="#63b8ff" d="M528.56,-110.09C539.96,-102.21 556.73,-90.61 570.24,-81.27"/>
<polygon fill="#63b8ff" stroke="#63b8ff" points="571.9,-84.38 578.13,-75.81 567.91,-78.62 571.9,-84.38"/>
</a>
</g>
</g>
<!-- Node12 -->
<g id="Node000012" class="node">
<title>Node12</title>
<g id="a_Node000012"><a xlink:title=" ">
<polygon fill="#e0e0e0" stroke="#999999" points="690.38,-74.5 634.62,-74.5 634.62,-55.25 690.38,-55.25 690.38,-74.5"/>
<text text-anchor="middle" x="662.5" y="-61" font-family="Helvetica,sans-Serif" font-size="10.00">TGraph.h</text>
</a>
</g>
</g>
<!-- Node6&#45;&gt;Node12 -->
<g id="edge12_Node000006_Node000012" class="edge">
<title>Node6&#45;&gt;Node12</title>
<g id="a_edge12_Node000006_Node000012"><a xlink:title=" ">
<path fill="none" stroke="#63b8ff" d="M540.44,-110.09C564.19,-101.49 600.21,-88.44 626.96,-78.75"/>
<polygon fill="#63b8ff" stroke="#63b8ff" points="627.81,-82.16 636.02,-75.47 625.42,-75.58 627.81,-82.16"/>
</a>
</g>
</g>
<!-- Node13 -->
<g id="Node000013" class="node">
<title>Node13</title>
<g id="a_Node000013"><a xlink:title=" ">
<polygon fill="#e0e0e0" stroke="#999999" points="778.12,-74.5 708.88,-74.5 708.88,-55.25 778.12,-55.25 778.12,-74.5"/>
<text text-anchor="middle" x="743.5" y="-61" font-family="Helvetica,sans-Serif" font-size="10.00">TClassRef.h</text>
</a>
</g>
</g>
<!-- Node6&#45;&gt;Node13 -->
<g id="edge13_Node000006_Node000013" class="edge">
<title>Node6&#45;&gt;Node13</title>
<g id="a_edge13_Node000006_Node000013"><a xlink:title=" ">
<path fill="none" stroke="#63b8ff" d="M548.17,-111.5C587.36,-102.34 653.31,-86.94 697.61,-76.59"/>
<polygon fill="#63b8ff" stroke="#63b8ff" points="698.23,-80.04 707.18,-74.36 696.64,-73.22 698.23,-80.04"/>
</a>
</g>
</g>
<!-- Node14 -->
<g id="Node000014" class="node">
<title>Node14</title>
<g id="a_Node000014"><a xlink:href="_t_priority_value_8h.html" target="_top" xlink:title=" ">
<polygon fill="white" stroke="#666666" points="112.62,-74.5 28.38,-74.5 28.38,-55.25 112.62,-55.25 112.62,-74.5"/>
<text text-anchor="middle" x="70.5" y="-61" font-family="Helvetica,sans-Serif" font-size="10.00">TPriorityValue.h</text>
</a>
</g>
</g>
<!-- Node6&#45;&gt;Node14 -->
<g id="edge14_Node000006_Node000014" class="edge">
<title>Node6&#45;&gt;Node14</title>
<g id="a_edge14_Node000006_Node000014"><a xlink:title=" ">
<path fill="none" stroke="#63b8ff" d="M482.78,-115.21C406.75,-106.11 217.55,-83.47 124.26,-72.31"/>
<polygon fill="#63b8ff" stroke="#63b8ff" points="124.67,-68.83 114.33,-71.12 123.84,-75.78 124.67,-68.83"/>
</a>
</g>
</g>
<!-- Node14&#45;&gt;Node3 -->
<g id="edge17_Node000014_Node000003" class="edge">
<title>Node14&#45;&gt;Node3</title>
<g id="a_edge17_Node000014_Node000003"><a xlink:title=" ">
<path fill="none" stroke="#63b8ff" d="M62.41,-55.08C55.64,-47.73 45.78,-37.01 37.44,-27.94"/>
<polygon fill="#63b8ff" stroke="#63b8ff" points="40.14,-25.71 30.79,-20.72 34.99,-30.45 40.14,-25.71"/>
</a>
</g>
</g>
<!-- Node14&#45;&gt;Node7 -->
<g id="edge16_Node000014_Node000007" class="edge">
<title>Node14&#45;&gt;Node7</title>
<g id="a_edge16_Node000014_Node000007"><a xlink:title=" ">
<path fill="none" stroke="#63b8ff" d="M87.8,-54.84C103.48,-46.66 126.85,-34.46 145.08,-24.94"/>
<polygon fill="#63b8ff" stroke="#63b8ff" points="146.53,-28.13 153.77,-20.4 143.29,-21.93 146.53,-28.13"/>
</a>
</g>
</g>
<!-- Node15 -->
<g id="Node000015" class="node">
<title>Node15</title>
<g id="a_Node000015"><a xlink:title=" ">
<polygon fill="#e0e0e0" stroke="#999999" points="112.12,-19.25 60.88,-19.25 60.88,0 112.12,0 112.12,-19.25"/>
<text text-anchor="middle" x="86.5" y="-5.75" font-family="Helvetica,sans-Serif" font-size="10.00">ostream</text>
</a>
</g>
</g>
<!-- Node14&#45;&gt;Node15 -->
<g id="edge15_Node000014_Node000015" class="edge">
<title>Node14&#45;&gt;Node15</title>
<g id="a_edge15_Node000014_Node000015"><a xlink:title=" ">
<path fill="none" stroke="#63b8ff" d="M73.14,-55.08C75.14,-48.42 77.98,-38.99 80.52,-30.53"/>
<polygon fill="#63b8ff" stroke="#63b8ff" points="83.84,-31.64 83.36,-21.06 77.14,-29.63 83.84,-31.64"/>
</a>
</g>
</g>
<!-- Node16&#45;&gt;Node5 -->
<g id="edge20_Node000016_Node000005" class="edge">
<title>Node16&#45;&gt;Node5</title>
<g id="a_edge20_Node000016_Node000005"><a xlink:title=" ">
<path fill="none" stroke="#63b8ff" d="M920.16,-110.09C902.39,-101.79 875.78,-89.36 855.3,-79.79"/>
<polygon fill="#63b8ff" stroke="#63b8ff" points="856.85,-76.65 846.3,-75.59 853.88,-83 856.85,-76.65"/>
</a>
</g>
</g>
<!-- Node17 -->
<g id="Node000017" class="node">
<title>Node17</title>
<g id="a_Node000017"><a xlink:title=" ">
<polygon fill="#e0e0e0" stroke="#999999" points="563.25,-19.25 509.75,-19.25 509.75,0 563.25,0 563.25,-19.25"/>
<text text-anchor="middle" x="536.5" y="-5.75" font-family="Helvetica,sans-Serif" font-size="10.00">iostream</text>
</a>
</g>
</g>
<!-- Node16&#45;&gt;Node17 -->
<g id="edge19_Node000016_Node000017" class="edge">
<title>Node16&#45;&gt;Node17</title>
<g id="a_edge19_Node000016_Node000017"><a xlink:title=" ">
<path fill="none" stroke="#63b8ff" d="M932.15,-110.28C919.69,-95.97 892.89,-68.06 863.5,-55.25 747.3,-4.61 703.16,-40.39 574.6,-19.36"/>
<polygon fill="#63b8ff" stroke="#63b8ff" points="575.5,-15.97 565.05,-17.71 574.31,-22.86 575.5,-15.97"/>
</a>
</g>
</g>
<!-- Node18 -->
<g id="Node000018" class="node">
<title>Node18</title>
<g id="a_Node000018"><a xlink:title=" ">
<polygon fill="#e0e0e0" stroke="#999999" points="1116.38,-74.5 1048.62,-74.5 1048.62,-55.25 1116.38,-55.25 1116.38,-74.5"/>
<text text-anchor="middle" x="1082.5" y="-61" font-family="Helvetica,sans-Serif" font-size="10.00">TDirectory.h</text>
</a>
</g>
</g>
<!-- Node16&#45;&gt;Node18 -->
<g id="edge21_Node000016_Node000018" class="edge">
<title>Node16&#45;&gt;Node18</title>
<g id="a_edge21_Node000016_Node000018"><a xlink:title=" ">
<path fill="none" stroke="#63b8ff" d="M963.76,-110.09C986.77,-101.52 1021.59,-88.56 1047.58,-78.88"/>
<polygon fill="#63b8ff" stroke="#63b8ff" points="1048.55,-82.25 1056.7,-75.48 1046.11,-75.69 1048.55,-82.25"/>
</a>
</g>
</g>
<!-- Node19 -->
<g id="Node000019" class="node">
<title>Node19</title>
<g id="a_Node000019"><a xlink:title=" ">
<polygon fill="#e0e0e0" stroke="#999999" points="1030.12,-74.5 984.88,-74.5 984.88,-55.25 1030.12,-55.25 1030.12,-74.5"/>
<text text-anchor="middle" x="1007.5" y="-61" font-family="Helvetica,sans-Serif" font-size="10.00">TFile.h</text>
</a>
</g>
</g>
<!-- Node16&#45;&gt;Node19 -->
<g id="edge22_Node000016_Node000019" class="edge">
<title>Node16&#45;&gt;Node19</title>
<g id="a_edge22_Node000016_Node000019"><a xlink:title=" ">
<path fill="none" stroke="#63b8ff" d="M951.04,-110.09C960.96,-102.32 975.51,-90.92 987.36,-81.65"/>
<polygon fill="#63b8ff" stroke="#63b8ff" points="989.23,-84.63 994.94,-75.71 984.91,-79.12 989.23,-84.63"/>
</a>
</g>
</g>
<!-- Node20 -->
<g id="Node000020" class="node">
<title>Node20</title>
<g id="a_Node000020"><a xlink:title=" ">
<polygon fill="#e0e0e0" stroke="#999999" points="1180.5,-74.5 1134.5,-74.5 1134.5,-55.25 1180.5,-55.25 1180.5,-74.5"/>
<text text-anchor="middle" x="1157.5" y="-61" font-family="Helvetica,sans-Serif" font-size="10.00">TList.h</text>
</a>
</g>
</g>
<!-- Node16&#45;&gt;Node20 -->
<g id="edge23_Node000016_Node000020" class="edge">
<title>Node16&#45;&gt;Node20</title>
<g id="a_edge23_Node000016_Node000020"><a xlink:title=" ">
<path fill="none" stroke="#63b8ff" d="M974.88,-110.94C1010.09,-102.74 1065.92,-89.54 1123.05,-75.07"/>
<polygon fill="#63b8ff" stroke="#63b8ff" points="1123.81,-78.49 1132.63,-72.64 1122.08,-71.71 1123.81,-78.49"/>
</a>
</g>
</g>
<!-- Node21 -->
<g id="Node000021" class="node">
<title>Node21</title>
<g id="a_Node000021"><a xlink:title=" ">
<polygon fill="#e0e0e0" stroke="#999999" points="1244.5,-74.5 1198.5,-74.5 1198.5,-55.25 1244.5,-55.25 1244.5,-74.5"/>
<text text-anchor="middle" x="1221.5" y="-61" font-family="Helvetica,sans-Serif" font-size="10.00">TKey.h</text>
</a>
</g>
</g>
<!-- Node16&#45;&gt;Node21 -->
<g id="edge24_Node000016_Node000021" class="edge">
<title>Node16&#45;&gt;Node21</title>
<g id="a_edge24_Node000016_Node000021"><a xlink:title=" ">
<path fill="none" stroke="#63b8ff" d="M974.88,-113.8C1021.41,-106.58 1105.89,-92.74 1187.21,-74.85"/>
<polygon fill="#63b8ff" stroke="#63b8ff" points="1187.66,-78.34 1196.66,-72.75 1186.14,-71.51 1187.66,-78.34"/>
</a>
</g>
</g>
<!-- Node22 -->
<g id="Node000022" class="node">
<title>Node22</title>
<g id="a_Node000022"><a xlink:href="_globals_8h.html" target="_top" xlink:title=" ">
<polygon fill="white" stroke="#666666" points="966.75,-74.5 910.25,-74.5 910.25,-55.25 966.75,-55.25 966.75,-74.5"/>
<text text-anchor="middle" x="938.5" y="-61" font-family="Helvetica,sans-Serif" font-size="10.00">Globals.h</text>
</a>
</g>
</g>
<!-- Node16&#45;&gt;Node22 -->
<g id="edge25_Node000016_Node000022" class="edge">
<title>Node16&#45;&gt;Node22</title>
<g id="a_edge25_Node000016_Node000022"><a xlink:title=" ">
<path fill="none" stroke="#63b8ff" d="M939.33,-110.33C939.21,-103.82 939.04,-94.67 938.88,-86.37"/>
<polygon fill="#63b8ff" stroke="#63b8ff" points="942.38,-86.3 938.7,-76.37 935.39,-86.44 942.38,-86.3"/>
</a>
</g>
</g>
<!-- Node22&#45;&gt;Node7 -->
<g id="edge29_Node000022_Node000007" class="edge">
<title>Node22&#45;&gt;Node7</title>
<g id="a_edge29_Node000022_Node000007"><a xlink:title=" ">
<path fill="none" stroke="#63b8ff" d="M910.05,-60.19C896.05,-58.49 878.91,-56.55 863.5,-55.25 573.62,-30.72 493.84,-68.61 204.23,-19.3"/>
<polygon fill="#63b8ff" stroke="#63b8ff" points="204.89,-15.86 194.44,-17.61 203.7,-22.76 204.89,-15.86"/>
</a>
</g>
</g>
<!-- Node22&#45;&gt;Node17 -->
<g id="edge26_Node000022_Node000017" class="edge">
<title>Node22&#45;&gt;Node17</title>
<g id="a_edge26_Node000022_Node000017"><a xlink:title=" ">
<path fill="none" stroke="#63b8ff" d="M910.1,-57.67C905.56,-56.79 900.91,-55.95 896.5,-55.25 757.02,-33.23 717.23,-43.61 574.89,-19.45"/>
<polygon fill="#63b8ff" stroke="#63b8ff" points="575.49,-16 565.04,-17.75 574.3,-22.9 575.49,-16"/>
</a>
</g>
</g>
<!-- Node23 -->
<g id="Node000023" class="node">
<title>Node23</title>
<g id="a_Node000023"><a xlink:title=" ">
<polygon fill="#e0e0e0" stroke="#999999" points="631.38,-19.25 581.62,-19.25 581.62,0 631.38,0 631.38,-19.25"/>
<text text-anchor="middle" x="606.5" y="-5.75" font-family="Helvetica,sans-Serif" font-size="10.00">iomanip</text>
</a>
</g>
</g>
<!-- Node22&#45;&gt;Node23 -->
<g id="edge27_Node000022_Node000023" class="edge">
<title>Node22&#45;&gt;Node23</title>
<g id="a_edge27_Node000022_Node000023"><a xlink:title=" ">
<path fill="none" stroke="#63b8ff" d="M910.08,-57.79C905.55,-56.89 900.9,-56.01 896.5,-55.25 786.82,-36.3 755.2,-41.08 642.82,-19.51"/>
<polygon fill="#63b8ff" stroke="#63b8ff" points="643.65,-16.11 633.17,-17.63 642.31,-22.98 643.65,-16.11"/>
</a>
</g>
</g>
<!-- Node24 -->
<g id="Node000024" class="node">
<title>Node24</title>
<g id="a_Node000024"><a xlink:title=" ">
<polygon fill="#e0e0e0" stroke="#999999" points="491.5,-19.25 433.5,-19.25 433.5,0 491.5,0 491.5,-19.25"/>
<text text-anchor="middle" x="462.5" y="-5.75" font-family="Helvetica,sans-Serif" font-size="10.00">stdexcept</text>
</a>
</g>
</g>
<!-- Node22&#45;&gt;Node24 -->
<g id="edge28_Node000022_Node000024" class="edge">
<title>Node22&#45;&gt;Node24</title>
<g id="a_edge28_Node000022_Node000024"><a xlink:title=" ">
<path fill="none" stroke="#63b8ff" d="M910.02,-60.49C896.01,-58.86 878.88,-56.9 863.5,-55.25 705.92,-38.38 662.46,-44.93 503.06,-19.48"/>
<polygon fill="#63b8ff" stroke="#63b8ff" points="503.81,-16.06 493.38,-17.92 502.7,-22.97 503.81,-16.06"/>
</a>
</g>
</g>
<!-- Node25 -->
<g id="Node000025" class="node">
<title>Node25</title>
<g id="a_Node000025"><a xlink:title=" ">
<polygon fill="#e0e0e0" stroke="#999999" points="691.62,-19.25 649.38,-19.25 649.38,0 691.62,0 691.62,-19.25"/>
<text text-anchor="middle" x="670.5" y="-5.75" font-family="Helvetica,sans-Serif" font-size="10.00">cstdio</text>
</a>
</g>
</g>
<!-- Node22&#45;&gt;Node25 -->
<g id="edge30_Node000022_Node000025" class="edge">
<title>Node22&#45;&gt;Node25</title>
<g id="a_edge30_Node000022_Node000025"><a xlink:title=" ">
<path fill="none" stroke="#63b8ff" d="M910.05,-57.95C905.52,-57.03 900.88,-56.1 896.5,-55.25 813.04,-39.02 788.65,-39.45 703.1,-19.68"/>
<polygon fill="#63b8ff" stroke="#63b8ff" points="704.07,-16.31 693.54,-17.44 702.48,-23.13 704.07,-16.31"/>
</a>
</g>
</g>
<!-- Node26 -->
<g id="Node000026" class="node">
<title>Node26</title>
<g id="a_Node000026"><a xlink:title=" ">
<polygon fill="#e0e0e0" stroke="#999999" points="1380.12,-19.25 1334.88,-19.25 1334.88,0 1380.12,0 1380.12,-19.25"/>
<text text-anchor="middle" x="1357.5" y="-5.75" font-family="Helvetica,sans-Serif" font-size="10.00">cstdint</text>
</a>
</g>
</g>
<!-- Node22&#45;&gt;Node26 -->
<g id="edge31_Node000022_Node000026" class="edge">
<title>Node22&#45;&gt;Node26</title>
<g id="a_edge31_Node000022_Node000026"><a xlink:title=" ">
<path fill="none" stroke="#63b8ff" d="M967.11,-56.83C969.94,-56.25 972.77,-55.71 975.5,-55.25 1126.12,-30.05 1169.7,-46.86 1323.28,-19.35"/>
<polygon fill="#63b8ff" stroke="#63b8ff" points="1323.83,-22.81 1333.04,-17.56 1322.57,-15.92 1323.83,-22.81"/>
</a>
</g>
</g>
<!-- Node27 -->
<g id="Node000027" class="node">
<title>Node27</title>
<g id="a_Node000027"><a xlink:title=" ">
<polygon fill="#e0e0e0" stroke="#999999" points="753.75,-19.25 709.25,-19.25 709.25,0 753.75,0 753.75,-19.25"/>
<text text-anchor="middle" x="731.5" y="-5.75" font-family="Helvetica,sans-Serif" font-size="10.00">cstdlib</text>
</a>
</g>
</g>
<!-- Node22&#45;&gt;Node27 -->
<g id="edge32_Node000022_Node000027" class="edge">
<title>Node22&#45;&gt;Node27</title>
<g id="a_edge32_Node000022_Node000027"><a xlink:title=" ">
<path fill="none" stroke="#63b8ff" d="M909.79,-56.81C877.02,-48.7 821.54,-34.83 765.09,-19.9"/>
<polygon fill="#63b8ff" stroke="#63b8ff" points="766.2,-16.57 755.63,-17.39 764.4,-23.33 766.2,-16.57"/>
</a>
</g>
</g>
<!-- Node28 -->
<g id="Node000028" class="node">
<title>Node28</title>
<g id="a_Node000028"><a xlink:title=" ">
<polygon fill="#e0e0e0" stroke="#999999" points="831.25,-19.25 771.75,-19.25 771.75,0 831.25,0 831.25,-19.25"/>
<text text-anchor="middle" x="801.5" y="-5.75" font-family="Helvetica,sans-Serif" font-size="10.00">execinfo.h</text>
</a>
</g>
</g>
<!-- Node22&#45;&gt;Node28 -->
<g id="edge33_Node000022_Node000028" class="edge">
<title>Node22&#45;&gt;Node28</title>
<g id="a_edge33_Node000022_Node000028"><a xlink:title=" ">
<path fill="none" stroke="#63b8ff" d="M915.26,-54.84C893.31,-46.31 860.15,-33.42 835.29,-23.76"/>
<polygon fill="#63b8ff" stroke="#63b8ff" points="836.85,-20.61 826.26,-20.25 834.32,-27.14 836.85,-20.61"/>
</a>
</g>
</g>
<!-- Node29 -->
<g id="Node000029" class="node">
<title>Node29</title>
<g id="a_Node000029"><a xlink:title=" ">
<polygon fill="#e0e0e0" stroke="#999999" points="899.75,-19.25 849.25,-19.25 849.25,0 899.75,0 899.75,-19.25"/>
<text text-anchor="middle" x="874.5" y="-5.75" font-family="Helvetica,sans-Serif" font-size="10.00">cxxabi.h</text>
</a>
</g>
</g>
<!-- Node22&#45;&gt;Node29 -->
<g id="edge34_Node000022_Node000029" class="edge">
<title>Node22&#45;&gt;Node29</title>
<g id="a_edge34_Node000022_Node000029"><a xlink:title=" ">
<path fill="none" stroke="#63b8ff" d="M927.64,-54.84C918.39,-47.15 904.88,-35.9 893.79,-26.68"/>
<polygon fill="#63b8ff" stroke="#63b8ff" points="896.29,-24.2 886.36,-20.49 891.81,-29.58 896.29,-24.2"/>
</a>
</g>
</g>
<!-- Node30 -->
<g id="Node000030" class="node">
<title>Node30</title>
<g id="a_Node000030"><a xlink:title=" ">
<polygon fill="#e0e0e0" stroke="#999999" points="969.12,-19.25 917.88,-19.25 917.88,0 969.12,0 969.12,-19.25"/>
<text text-anchor="middle" x="943.5" y="-5.75" font-family="Helvetica,sans-Serif" font-size="10.00">sstream</text>
</a>
</g>
</g>
<!-- Node22&#45;&gt;Node30 -->
<g id="edge35_Node000022_Node000030" class="edge">
<title>Node22&#45;&gt;Node30</title>
<g id="a_edge35_Node000022_Node000030"><a xlink:title=" ">
<path fill="none" stroke="#63b8ff" d="M939.33,-55.08C939.94,-48.49 940.82,-39.21 941.6,-30.82"/>
<polygon fill="#63b8ff" stroke="#63b8ff" points="945.06,-31.4 942.51,-21.12 938.1,-30.75 945.06,-31.4"/>
</a>
</g>
</g>
<!-- Node31 -->
<g id="Node000031" class="node">
<title>Node31</title>
<g id="a_Node000031"><a xlink:title=" ">
<polygon fill="#e0e0e0" stroke="#999999" points="1024,-19.25 987,-19.25 987,0 1024,0 1024,-19.25"/>
<text text-anchor="middle" x="1005.5" y="-5.75" font-family="Helvetica,sans-Serif" font-size="10.00">array</text>
</a>
</g>
</g>
<!-- Node22&#45;&gt;Node31 -->
<g id="edge36_Node000022_Node000031" class="edge">
<title>Node22&#45;&gt;Node31</title>
<g id="a_edge36_Node000022_Node000031"><a xlink:title=" ">
<path fill="none" stroke="#63b8ff" d="M949.87,-54.84C959.55,-47.15 973.7,-35.9 985.31,-26.68"/>
<polygon fill="#63b8ff" stroke="#63b8ff" points="987.47,-29.43 993.12,-20.47 983.11,-23.95 987.47,-29.43"/>
</a>
</g>
</g>
<!-- Node32 -->
<g id="Node000032" class="node">
<title>Node32</title>
<g id="a_Node000032"><a xlink:title=" ">
<polygon fill="#e0e0e0" stroke="#999999" points="1092.75,-19.25 1042.25,-19.25 1042.25,0 1092.75,0 1092.75,-19.25"/>
<text text-anchor="middle" x="1067.5" y="-5.75" font-family="Helvetica,sans-Serif" font-size="10.00">memory</text>
</a>
</g>
</g>
<!-- Node22&#45;&gt;Node32 -->
<g id="edge37_Node000022_Node000032" class="edge">
<title>Node22&#45;&gt;Node32</title>
<g id="a_edge37_Node000022_Node000032"><a xlink:title=" ">
<path fill="none" stroke="#63b8ff" d="M960.38,-54.84C980.86,-46.39 1011.71,-33.65 1035.06,-24.02"/>
<polygon fill="#63b8ff" stroke="#63b8ff" points="1036.2,-27.33 1044.11,-20.28 1033.53,-20.86 1036.2,-27.33"/>
</a>
</g>
</g>
<!-- Node33 -->
<g id="Node000033" class="node">
<title>Node33</title>
<g id="a_Node000033"><a xlink:title=" ">
<polygon fill="#e0e0e0" stroke="#999999" points="1160.38,-19.25 1110.62,-19.25 1110.62,0 1160.38,0 1160.38,-19.25"/>
<text text-anchor="middle" x="1135.5" y="-5.75" font-family="Helvetica,sans-Serif" font-size="10.00">unistd.h</text>
</a>
</g>
</g>
<!-- Node22&#45;&gt;Node33 -->
<g id="edge38_Node000022_Node000033" class="edge">
<title>Node22&#45;&gt;Node33</title>
<g id="a_edge38_Node000022_Node000033"><a xlink:title=" ">
<path fill="none" stroke="#63b8ff" d="M967.15,-56.13C1002.06,-46.7 1061.09,-30.74 1099.17,-20.45"/>
<polygon fill="#63b8ff" stroke="#63b8ff" points="1100.06,-23.83 1108.8,-17.84 1098.23,-17.07 1100.06,-23.83"/>
</a>
</g>
</g>
<!-- Node34 -->
<g id="Node000034" class="node">
<title>Node34</title>
<g id="a_Node000034"><a xlink:title=" ">
<polygon fill="#e0e0e0" stroke="#999999" points="1238.25,-19.25 1178.75,-19.25 1178.75,0 1238.25,0 1238.25,-19.25"/>
<text text-anchor="middle" x="1208.5" y="-5.75" font-family="Helvetica,sans-Serif" font-size="10.00">sys/wait.h</text>
</a>
</g>
</g>
<!-- Node22&#45;&gt;Node34 -->
<g id="edge39_Node000022_Node000034" class="edge">
<title>Node22&#45;&gt;Node34</title>
<g id="a_edge39_Node000022_Node000034"><a xlink:title=" ">
<path fill="none" stroke="#63b8ff" d="M967.15,-57.06C969.97,-56.43 972.79,-55.82 975.5,-55.25 1057.9,-38.01 1081.68,-36.79 1167.25,-19.64"/>
<polygon fill="#63b8ff" stroke="#63b8ff" points="1167.7,-23.13 1176.8,-17.71 1166.31,-16.26 1167.7,-23.13"/>
</a>
</g>
</g>
<!-- Node35 -->
<g id="Node000035" class="node">
<title>Node35</title>
<g id="a_Node000035"><a xlink:title=" ">
<polygon fill="#e0e0e0" stroke="#999999" points="1316.62,-19.25 1256.38,-19.25 1256.38,0 1316.62,0 1316.62,-19.25"/>
<text text-anchor="middle" x="1286.5" y="-5.75" font-family="Helvetica,sans-Serif" font-size="10.00">sys/prctl.h</text>
</a>
</g>
</g>
<!-- Node22&#45;&gt;Node35 -->
<g id="edge40_Node000022_Node000035" class="edge">
<title>Node22&#45;&gt;Node35</title>
<g id="a_edge40_Node000022_Node000035"><a xlink:title=" ">
<path fill="none" stroke="#63b8ff" d="M967.13,-56.91C969.95,-56.31 972.77,-55.75 975.5,-55.25 1091.95,-34.02 1125.46,-40.05 1244.84,-19.58"/>
<polygon fill="#63b8ff" stroke="#63b8ff" points="1245.15,-23.08 1254.4,-17.91 1243.95,-16.19 1245.15,-23.08"/>
</a>
</g>
</g>
<!-- Node37&#45;&gt;Node5 -->
<g id="edge45_Node000037_Node000005" class="edge">
<title>Node37&#45;&gt;Node5</title>
<g id="a_edge45_Node000037_Node000005"><a xlink:title=" ">
<path fill="none" stroke="#63b8ff" d="M753.49,-165.42C755.28,-152.39 760.01,-127.87 771.5,-110.5 779.03,-99.13 790.32,-89.15 800.64,-81.54"/>
<polygon fill="#63b8ff" stroke="#63b8ff" points="802.62,-84.43 808.84,-75.85 798.63,-78.67 802.62,-84.43"/>
</a>
</g>
</g>
<!-- Node37&#45;&gt;Node19 -->
<g id="edge46_Node000037_Node000019" class="edge">
<title>Node37&#45;&gt;Node19</title>
<g id="a_edge46_Node000037_Node000019"><a xlink:title=" ">
<path fill="none" stroke="#63b8ff" d="M796.4,-167.03C861.39,-155.99 976.36,-135.78 983.5,-129.75 996.38,-118.87 1002.36,-100.35 1005.13,-86.04"/>
<polygon fill="#63b8ff" stroke="#63b8ff" points="1008.56,-86.76 1006.6,-76.35 1001.64,-85.71 1008.56,-86.76"/>
</a>
</g>
</g>
<!-- Node38 -->
<g id="Node000038" class="node">
<title>Node38</title>
<g id="a_Node000038"><a xlink:href="_t_g_r_s_i_types_8h.html" target="_top" xlink:title=" ">
<polygon fill="white" stroke="#666666" points="1213.38,-129.75 1133.62,-129.75 1133.62,-110.5 1213.38,-110.5 1213.38,-129.75"/>
<text text-anchor="middle" x="1173.5" y="-116.25" font-family="Helvetica,sans-Serif" font-size="10.00">TGRSITypes.h</text>
</a>
</g>
</g>
<!-- Node37&#45;&gt;Node38 -->
<g id="edge47_Node000037_Node000038" class="edge">
<title>Node37&#45;&gt;Node38</title>
<g id="a_edge47_Node000037_Node000038"><a xlink:title=" ">
<path fill="none" stroke="#63b8ff" d="M796.44,-167.08C799.5,-166.62 802.55,-166.17 805.5,-165.75 918.07,-149.77 1050.52,-134.59 1121.81,-126.72"/>
<polygon fill="#63b8ff" stroke="#63b8ff" points="1122.07,-130.21 1131.63,-125.64 1121.31,-123.26 1122.07,-130.21"/>
</a>
</g>
</g>
<!-- Node39 -->
<g id="Node000039" class="node">
<title>Node39</title>
<g id="a_Node000039"><a xlink:href="_t_analysis_options_8h.html" target="_top" xlink:title=" ">
<polygon fill="white" stroke="#666666" points="880.5,-129.75 780.5,-129.75 780.5,-110.5 880.5,-110.5 880.5,-129.75"/>
<text text-anchor="middle" x="830.5" y="-116.25" font-family="Helvetica,sans-Serif" font-size="10.00">TAnalysisOptions.h</text>
</a>
</g>
</g>
<!-- Node37&#45;&gt;Node39 -->
<g id="edge49_Node000037_Node000039" class="edge">
<title>Node37&#45;&gt;Node39</title>
<g id="a_edge49_Node000037_Node000039"><a xlink:title=" ">
<path fill="none" stroke="#63b8ff" d="M765.73,-165.34C777.27,-157.46 794.27,-145.86 807.95,-136.52"/>
<polygon fill="#63b8ff" stroke="#63b8ff" points="809.67,-139.58 815.95,-131.06 805.72,-133.8 809.67,-139.58"/>
</a>
</g>
</g>
<!-- Node40 -->
<g id="Node000040" class="node">
<title>Node40</title>
<g id="a_Node000040"><a xlink:href="_t_user_settings_8h.html" target="_top" xlink:title=" ">
<polygon fill="white" stroke="#666666" points="292.75,-74.5 206.25,-74.5 206.25,-55.25 292.75,-55.25 292.75,-74.5"/>
<text text-anchor="middle" x="249.5" y="-61" font-family="Helvetica,sans-Serif" font-size="10.00">TUserSettings.h</text>
</a>
</g>
</g>
<!-- Node37&#45;&gt;Node40 -->
<g id="edge52_Node000037_Node000040" class="edge">
<title>Node37&#45;&gt;Node40</title>
<g id="a_edge52_Node000037_Node000040"><a xlink:title=" ">
<path fill="none" stroke="#63b8ff" d="M708.38,-168.92C653.3,-161.74 556.35,-147.87 474.5,-129.75 408.3,-115.09 332.75,-92.38 288.2,-78.36"/>
<polygon fill="#63b8ff" stroke="#63b8ff" points="289.33,-75.05 278.74,-75.36 287.21,-81.72 289.33,-75.05"/>
</a>
</g>
</g>
<!-- Node38&#45;&gt;Node26 -->
<g id="edge48_Node000038_Node000026" class="edge">
<title>Node38&#45;&gt;Node26</title>
<g id="a_edge48_Node000038_Node000026"><a xlink:title=" ">
<path fill="none" stroke="#63b8ff" d="M1190.16,-110.1C1206.43,-101.22 1231.82,-87.2 1253.5,-74.5 1281.19,-58.29 1312.5,-38.91 1333.47,-25.78"/>
<polygon fill="#63b8ff" stroke="#63b8ff" points="1335.26,-28.79 1341.86,-20.51 1331.53,-22.86 1335.26,-28.79"/>
</a>
</g>
</g>
<!-- Node39&#45;&gt;Node5 -->
<g id="edge50_Node000039_Node000005" class="edge">
<title>Node39&#45;&gt;Node5</title>
<g id="a_edge50_Node000039_Node000005"><a xlink:title=" ">
<path fill="none" stroke="#63b8ff" d="M829.67,-110.33C829.06,-103.74 828.18,-94.46 827.4,-86.07"/>
<polygon fill="#63b8ff" stroke="#63b8ff" points="830.9,-86 826.49,-76.37 823.94,-86.65 830.9,-86"/>
</a>
</g>
</g>
<!-- Node39&#45;&gt;Node19 -->
<g id="edge51_Node000039_Node000019" class="edge">
<title>Node39&#45;&gt;Node19</title>
<g id="a_edge51_Node000039_Node000019"><a xlink:title=" ">
<path fill="none" stroke="#63b8ff" d="M860.53,-110.09C891.85,-100.67 940.85,-85.93 973.56,-76.09"/>
<polygon fill="#63b8ff" stroke="#63b8ff" points="974.38,-79.5 982.94,-73.26 972.36,-72.79 974.38,-79.5"/>
</a>
</g>
</g>
<!-- Node40&#45;&gt;Node3 -->
<g id="edge55_Node000040_Node000003" class="edge">
<title>Node40&#45;&gt;Node3</title>
<g id="a_edge55_Node000040_Node000003"><a xlink:title=" ">
<path fill="none" stroke="#63b8ff" d="M206.07,-54.85C168.27,-46.82 111.77,-34.42 54.49,-19.92"/>
<polygon fill="#63b8ff" stroke="#63b8ff" points="55.44,-16.54 44.88,-17.46 53.7,-23.33 55.44,-16.54"/>
</a>
</g>
</g>
<!-- Node40&#45;&gt;Node7 -->
<g id="edge54_Node000040_Node000007" class="edge">
<title>Node40&#45;&gt;Node7</title>
<g id="a_edge54_Node000040_Node000007"><a xlink:title=" ">
<path fill="none" stroke="#63b8ff" d="M236.44,-54.84C225.04,-46.96 208.27,-35.36 194.76,-26.02"/>
<polygon fill="#63b8ff" stroke="#63b8ff" points="197.09,-23.37 186.87,-20.56 193.1,-29.13 197.09,-23.37"/>
</a>
</g>
</g>
<!-- Node40&#45;&gt;Node10 -->
<g id="edge57_Node000040_Node000010" class="edge">
<title>Node40&#45;&gt;Node10</title>
<g id="a_edge57_Node000040_Node000010"><a xlink:title=" ">
<path fill="none" stroke="#63b8ff" d="M272.4,-54.84C293.93,-46.35 326.41,-33.54 350.88,-23.89"/>
<polygon fill="#63b8ff" stroke="#63b8ff" points="352.06,-27.18 360.08,-20.26 349.49,-20.67 352.06,-27.18"/>
</a>
</g>
</g>
<!-- Node40&#45;&gt;Node24 -->
<g id="edge56_Node000040_Node000024" class="edge">
<title>Node40&#45;&gt;Node24</title>
<g id="a_edge56_Node000040_Node000024"><a xlink:title=" ">
<path fill="none" stroke="#63b8ff" d="M285.63,-54.84C323.44,-45.39 382.67,-30.58 422.03,-20.74"/>
<polygon fill="#63b8ff" stroke="#63b8ff" points="422.74,-24.17 431.59,-18.35 421.04,-17.38 422.74,-24.17"/>
</a>
</g>
</g>
<!-- Node41 -->
<g id="Node000041" class="node">
<title>Node41</title>
<g id="a_Node000041"><a xlink:title=" ">
<polygon fill="#e0e0e0" stroke="#999999" points="244.88,-19.25 210.12,-19.25 210.12,0 244.88,0 244.88,-19.25"/>
<text text-anchor="middle" x="227.5" y="-5.75" font-family="Helvetica,sans-Serif" font-size="10.00">map</text>
</a>
</g>
</g>
<!-- Node40&#45;&gt;Node41 -->
<g id="edge53_Node000040_Node000041" class="edge">
<title>Node40&#45;&gt;Node41</title>
<g id="a_edge53_Node000040_Node000041"><a xlink:title=" ">
<path fill="none" stroke="#63b8ff" d="M245.87,-55.08C243.08,-48.34 239.13,-38.77 235.6,-30.24"/>
<polygon fill="#63b8ff" stroke="#63b8ff" points="238.84,-28.91 231.79,-21.01 232.37,-31.59 238.84,-28.91"/>
</a>
</g>
</g>
<!-- Node42 -->
<g id="Node000042" class="node">
<title>Node42</title>
<g id="a_Node000042"><a xlink:title=" ">
<polygon fill="#e0e0e0" stroke="#999999" points="335.62,-19.25 263.38,-19.25 263.38,0 335.62,0 335.62,-19.25"/>
<text text-anchor="middle" x="299.5" y="-5.75" font-family="Helvetica,sans-Serif" font-size="10.00">TCollection.h</text>
</a>
</g>
</g>
<!-- Node40&#45;&gt;Node42 -->
<g id="edge58_Node000040_Node000042" class="edge">
<title>Node40&#45;&gt;Node42</title>
<g id="a_edge58_Node000040_Node000042"><a xlink:title=" ">
<path fill="none" stroke="#63b8ff" d="M257.76,-55.08C264.66,-47.73 274.72,-37.01 283.24,-27.94"/>
<polygon fill="#63b8ff" stroke="#63b8ff" points="285.73,-30.4 290.03,-20.71 280.63,-25.61 285.73,-30.4"/>
</a>
</g>
</g>
</g>
</svg>
