<?xml version="1.0" encoding="UTF-8" standalone="no"?>
<!DOCTYPE svg PUBLIC "-//W3C//DTD SVG 1.1//EN"
 "http://www.w3.org/Graphics/SVG/1.1/DTD/svg11.dtd">
<!-- Generated by graphviz version 12.2.0 (20241103.1931)
 -->
<!-- Title: TScaler.h Pages: 1 -->
<!--zoomable 248 -->

<svg id="main" version="1.1" xmlns="http://www.w3.org/2000/svg" xmlns:xlink="http://www.w3.org/1999/xlink" xml:space="preserve" onload="init(evt)">

<style type="text/css"><![CDATA[
.node, .edge {opacity: 0.7;}
.node.selected, .edge.selected {opacity: 1;}
.edge:hover path { stroke: red; }
.edge:hover polygon { stroke: red; fill: red; }
]]></style>

<defs>
  <circle id="rim" cx="0" cy="0" r="7"/>
  <circle id="rim2" cx="0" cy="0" r="3.5"/>
  <g id="zoomPlus">
    <use xlink:href="#rim" fill="#404040"><set attributeName="fill" to="#808080" begin="zoomplus.mouseover" end="zoomplus.mouseout"/></use>
    <path d="M-4,0h8M0,-4v8" fill="none" stroke="white" stroke-width="1.5" pointer-events="none"/>
  </g>
  <g id="zoomMin">
    <use xlink:href="#rim" fill="#404040"><set attributeName="fill" to="#808080" begin="zoomminus.mouseover" end="zoomminus.mouseout"/></use>
    <path d="M-4,0h8" fill="none" stroke="white" stroke-width="1.5" pointer-events="none"/>
  </g>
  <g id="arrowUp" transform="translate(30 24)">
    <use xlink:href="#rim"/>
    <path pointer-events="none" fill="none" stroke="white" stroke-width="1.5" d="M0,-3.0v7 M-2.5,-0.5L0,-3.0L2.5,-0.5"/>
  </g>
  <g id="arrowRight" transform="rotate(90) translate(36 -43)">
    <use xlink:href="#rim"/>
    <path pointer-events="none" fill="none" stroke="white" stroke-width="1.5" d="M0,-3.0v7 M-2.5,-0.5L0,-3.0L2.5,-0.5"/>
  </g>
  <g id="arrowDown" transform="rotate(180) translate(-30 -48)">
    <use xlink:href="#rim"/>
    <path pointer-events="none" fill="none" stroke="white" stroke-width="1.5" d="M0,-3.0v7 M-2.5,-0.5L0,-3.0L2.5,-0.5"/>
  </g>
  <g id="arrowLeft" transform="rotate(270) translate(-36 17)">
    <use xlink:href="#rim"/>
    <path pointer-events="none" fill="none" stroke="white" stroke-width="1.5" d="M0,-3.0v7 M-2.5,-0.5L0,-3.0L2.5,-0.5"/>
  </g>
  <g id="resetDef">
    <use xlink:href="#rim2" fill="#404040"><set attributeName="fill" to="#808080" begin="reset.mouseover" end="reset.mouseout"/></use>
  </g>
</defs>
<script type="application/ecmascript">
var viewWidth = 1013;
var viewHeight = 248;
var sectionId = 'dynsection-0';
</script>
<script type="application/ecmascript" xlink:href="svg.min.js"/>
<svg id="graph" class="graph">
<g id="viewport">
<title>TScaler.h</title>
<!-- Node1 -->
<g id="Node000001" class="node">
<title>Node1</title>
<g id="a_Node000001"><a xlink:title=" ">
<polygon fill="#999999" stroke="#666666" points="476.38,-240.25 419.12,-240.25 419.12,-221 476.38,-221 476.38,-240.25"/>
<text text-anchor="middle" x="447.75" y="-226.75" font-family="Helvetica,sans-Serif" font-size="10.00">TScaler.h</text>
</a>
</g>
</g>
<!-- Node2 -->
<g id="Node000002" class="node">
<title>Node2</title>
<g id="a_Node000002"><a xlink:title=" ">
<polygon fill="#e0e0e0" stroke="#999999" points="53.5,-19.25 0,-19.25 0,0 53.5,0 53.5,-19.25"/>
<text text-anchor="middle" x="26.75" y="-5.75" font-family="Helvetica,sans-Serif" font-size="10.00">iostream</text>
</a>
</g>
</g>
<!-- Node1&#45;&gt;Node2 -->
<g id="edge1_Node000001_Node000002" class="edge">
<title>Node1&#45;&gt;Node2</title>
<g id="a_edge1_Node000001_Node000002"><a xlink:title=" ">
<path fill="none" stroke="#63b8ff" d="M418.75,-225.95C336.39,-214.99 103.42,-180.11 47.75,-129.75 20.19,-104.82 20.7,-57.43 23.64,-30.54"/>
<polygon fill="#63b8ff" stroke="#63b8ff" points="27.06,-31.36 24.92,-20.99 20.12,-30.43 27.06,-31.36"/>
</a>
</g>
</g>
<!-- Node3 -->
<g id="Node000003" class="node">
<title>Node3</title>
<g id="a_Node000003"><a xlink:title=" ">
<polygon fill="#e0e0e0" stroke="#999999" points="420.12,-129.75 385.38,-129.75 385.38,-110.5 420.12,-110.5 420.12,-129.75"/>
<text text-anchor="middle" x="402.75" y="-116.25" font-family="Helvetica,sans-Serif" font-size="10.00">map</text>
</a>
</g>
</g>
<!-- Node1&#45;&gt;Node3 -->
<g id="edge2_Node000001_Node000003" class="edge">
<title>Node1&#45;&gt;Node3</title>
<g id="a_edge2_Node000001_Node000003"><a xlink:title=" ">
<path fill="none" stroke="#63b8ff" d="M444.07,-220.75C436.85,-203.34 420.69,-164.37 410.85,-140.66"/>
<polygon fill="#63b8ff" stroke="#63b8ff" points="414.13,-139.42 407.06,-131.52 407.66,-142.1 414.13,-139.42"/>
</a>
</g>
</g>
<!-- Node4 -->
<g id="Node000004" class="node">
<title>Node4</title>
<g id="a_Node000004"><a xlink:title=" ">
<polygon fill="#e0e0e0" stroke="#999999" points="436.75,-74.5 378.75,-74.5 378.75,-55.25 436.75,-55.25 436.75,-74.5"/>
<text text-anchor="middle" x="407.75" y="-61" font-family="Helvetica,sans-Serif" font-size="10.00">TObject.h</text>
</a>
</g>
</g>
<!-- Node1&#45;&gt;Node4 -->
<g id="edge3_Node000001_Node000004" class="edge">
<title>Node1&#45;&gt;Node4</title>
<g id="a_edge3_Node000001_Node000004"><a xlink:title=" ">
<path fill="none" stroke="#63b8ff" d="M447.19,-220.76C445.74,-200.72 441.09,-150.53 428.75,-110.5 426.07,-101.81 422,-92.66 418.16,-84.92"/>
<polygon fill="#63b8ff" stroke="#63b8ff" points="421.31,-83.39 413.58,-76.14 415.11,-86.63 421.31,-83.39"/>
</a>
</g>
</g>
<!-- Node5 -->
<g id="Node000005" class="node">
<title>Node5</title>
<g id="a_Node000005"><a xlink:href="_globals_8h.html" target="_top" xlink:title=" ">
<polygon fill="white" stroke="#666666" points="513,-74.5 456.5,-74.5 456.5,-55.25 513,-55.25 513,-74.5"/>
<text text-anchor="middle" x="484.75" y="-61" font-family="Helvetica,sans-Serif" font-size="10.00">Globals.h</text>
</a>
</g>
</g>
<!-- Node1&#45;&gt;Node5 -->
<g id="edge4_Node000001_Node000005" class="edge">
<title>Node1&#45;&gt;Node5</title>
<g id="a_edge4_Node000001_Node000005"><a xlink:title=" ">
<path fill="none" stroke="#63b8ff" d="M450.84,-220.82C453.9,-211.88 458.57,-197.6 461.75,-185 470.45,-150.55 477.67,-109.78 481.58,-85.97"/>
<polygon fill="#63b8ff" stroke="#63b8ff" points="484.99,-86.84 483.12,-76.41 478.08,-85.73 484.99,-86.84"/>
</a>
</g>
</g>
<!-- Node20 -->
<g id="Node000020" class="node">
<title>Node20</title>
<g id="a_Node000020"><a xlink:title=" ">
<polygon fill="#e0e0e0" stroke="#999999" points="563.25,-185 514.25,-185 514.25,-165.75 563.25,-165.75 563.25,-185"/>
<text text-anchor="middle" x="538.75" y="-171.5" font-family="Helvetica,sans-Serif" font-size="10.00">TTree.h</text>
</a>
</g>
</g>
<!-- Node1&#45;&gt;Node20 -->
<g id="edge20_Node000001_Node000020" class="edge">
<title>Node1&#45;&gt;Node20</title>
<g id="a_edge20_Node000001_Node000020"><a xlink:title=" ">
<path fill="none" stroke="#63b8ff" d="M463.19,-220.59C476.91,-212.56 497.25,-200.66 513.37,-191.23"/>
<polygon fill="#63b8ff" stroke="#63b8ff" points="515.07,-194.29 521.93,-186.22 511.53,-188.25 515.07,-194.29"/>
</a>
</g>
</g>
<!-- Node21 -->
<g id="Node000021" class="node">
<title>Node21</title>
<g id="a_Node000021"><a xlink:title=" ">
<polygon fill="#e0e0e0" stroke="#999999" points="623.88,-185 581.62,-185 581.62,-165.75 623.88,-165.75 623.88,-185"/>
<text text-anchor="middle" x="602.75" y="-171.5" font-family="Helvetica,sans-Serif" font-size="10.00">TH1.h</text>
</a>
</g>
</g>
<!-- Node1&#45;&gt;Node21 -->
<g id="edge21_Node000001_Node000021" class="edge">
<title>Node1&#45;&gt;Node21</title>
<g id="a_edge21_Node000001_Node000021"><a xlink:title=" ">
<path fill="none" stroke="#63b8ff" d="M474.04,-220.59C500.73,-211.42 542.08,-197.22 570.68,-187.39"/>
<polygon fill="#63b8ff" stroke="#63b8ff" points="571.58,-190.79 579.9,-184.23 569.3,-184.17 571.58,-190.79"/>
</a>
</g>
</g>
<!-- Node22 -->
<g id="Node000022" class="node">
<title>Node22</title>
<g id="a_Node000022"><a xlink:href="_t_p_p_g_8h.html" target="_top" xlink:title=" ">
<polygon fill="white" stroke="#666666" points="312,-185 261.5,-185 261.5,-165.75 312,-165.75 312,-185"/>
<text text-anchor="middle" x="286.75" y="-171.5" font-family="Helvetica,sans-Serif" font-size="10.00">TPPG.h</text>
</a>
</g>
</g>
<!-- Node1&#45;&gt;Node22 -->
<g id="edge22_Node000001_Node000022" class="edge">
<title>Node1&#45;&gt;Node22</title>
<g id="a_edge22_Node000001_Node000022"><a xlink:title=" ">
<path fill="none" stroke="#63b8ff" d="M420.44,-220.59C393.63,-211.72 352.57,-198.15 323.04,-188.38"/>
<polygon fill="#63b8ff" stroke="#63b8ff" points="324.36,-185.13 313.77,-185.31 322.16,-191.77 324.36,-185.13"/>
</a>
</g>
</g>
<!-- Node5&#45;&gt;Node2 -->
<g id="edge5_Node000005_Node000002" class="edge">
<title>Node5&#45;&gt;Node2</title>
<g id="a_edge5_Node000005_Node000002"><a xlink:title=" ">
<path fill="none" stroke="#63b8ff" d="M456.29,-57.15C452.75,-56.44 449.18,-55.79 445.75,-55.25 280.47,-29.31 233.43,-46.46 65.06,-19.39"/>
<polygon fill="#63b8ff" stroke="#63b8ff" points="65.72,-15.95 55.29,-17.78 64.59,-22.86 65.72,-15.95"/>
</a>
</g>
</g>
<!-- Node6 -->
<g id="Node000006" class="node">
<title>Node6</title>
<g id="a_Node000006"><a xlink:title=" ">
<polygon fill="#e0e0e0" stroke="#999999" points="870.62,-19.25 820.88,-19.25 820.88,0 870.62,0 870.62,-19.25"/>
<text text-anchor="middle" x="845.75" y="-5.75" font-family="Helvetica,sans-Serif" font-size="10.00">iomanip</text>
</a>
</g>
</g>
<!-- Node5&#45;&gt;Node6 -->
<g id="edge6_Node000005_Node000006" class="edge">
<title>Node5&#45;&gt;Node6</title>
<g id="a_edge6_Node000005_Node000006"><a xlink:title=" ">
<path fill="none" stroke="#63b8ff" d="M513.36,-61.07C568.65,-55.41 694.18,-41.43 809.45,-19.5"/>
<polygon fill="#63b8ff" stroke="#63b8ff" points="809.93,-22.97 819.08,-17.64 808.6,-16.1 809.93,-22.97"/>
</a>
</g>
</g>
<!-- Node7 -->
<g id="Node000007" class="node">
<title>Node7</title>
<g id="a_Node000007"><a xlink:title=" ">
<polygon fill="#e0e0e0" stroke="#999999" points="946.75,-19.25 888.75,-19.25 888.75,0 946.75,0 946.75,-19.25"/>
<text text-anchor="middle" x="917.75" y="-5.75" font-family="Helvetica,sans-Serif" font-size="10.00">stdexcept</text>
</a>
</g>
</g>
<!-- Node5&#45;&gt;Node7 -->
<g id="edge7_Node000005_Node000007" class="edge">
<title>Node5&#45;&gt;Node7</title>
<g id="a_edge7_Node000005_Node000007"><a xlink:title=" ">
<path fill="none" stroke="#63b8ff" d="M513.16,-61.75C576.65,-56.78 735.01,-43.09 877.27,-19.5"/>
<polygon fill="#63b8ff" stroke="#63b8ff" points="877.58,-23 886.86,-17.89 876.42,-16.09 877.58,-23"/>
</a>
</g>
</g>
<!-- Node8 -->
<g id="Node000008" class="node">
<title>Node8</title>
<g id="a_Node000008"><a xlink:title=" ">
<polygon fill="#e0e0e0" stroke="#999999" points="1004.75,-19.25 964.75,-19.25 964.75,0 1004.75,0 1004.75,-19.25"/>
<text text-anchor="middle" x="984.75" y="-5.75" font-family="Helvetica,sans-Serif" font-size="10.00">string</text>
</a>
</g>
</g>
<!-- Node5&#45;&gt;Node8 -->
<g id="edge8_Node000005_Node000008" class="edge">
<title>Node5&#45;&gt;Node8</title>
<g id="a_edge8_Node000005_Node000008"><a xlink:title=" ">
<path fill="none" stroke="#63b8ff" d="M513.43,-63.1C585.78,-60.73 781.6,-51.78 953.02,-19.42"/>
<polygon fill="#63b8ff" stroke="#63b8ff" points="953.63,-22.86 962.79,-17.54 952.31,-15.99 953.63,-22.86"/>
</a>
</g>
</g>
<!-- Node9 -->
<g id="Node000009" class="node">
<title>Node9</title>
<g id="a_Node000009"><a xlink:title=" ">
<polygon fill="#e0e0e0" stroke="#999999" points="113.88,-19.25 71.62,-19.25 71.62,0 113.88,0 113.88,-19.25"/>
<text text-anchor="middle" x="92.75" y="-5.75" font-family="Helvetica,sans-Serif" font-size="10.00">cstdio</text>
</a>
</g>
</g>
<!-- Node5&#45;&gt;Node9 -->
<g id="edge9_Node000005_Node000009" class="edge">
<title>Node5&#45;&gt;Node9</title>
<g id="a_edge9_Node000005_Node000009"><a xlink:title=" ">
<path fill="none" stroke="#63b8ff" d="M456.28,-57.21C452.74,-56.49 449.17,-55.82 445.75,-55.25 306.87,-32.22 266.48,-46.53 125.5,-19.48"/>
<polygon fill="#63b8ff" stroke="#63b8ff" points="126.24,-16.06 115.76,-17.58 124.9,-22.93 126.24,-16.06"/>
</a>
</g>
</g>
<!-- Node10 -->
<g id="Node000010" class="node">
<title>Node10</title>
<g id="a_Node000010"><a xlink:title=" ">
<polygon fill="#e0e0e0" stroke="#999999" points="177.38,-19.25 132.12,-19.25 132.12,0 177.38,0 177.38,-19.25"/>
<text text-anchor="middle" x="154.75" y="-5.75" font-family="Helvetica,sans-Serif" font-size="10.00">cstdint</text>
</a>
</g>
</g>
<!-- Node5&#45;&gt;Node10 -->
<g id="edge10_Node000005_Node000010" class="edge">
<title>Node5&#45;&gt;Node10</title>
<g id="a_edge10_Node000005_Node000010"><a xlink:title=" ">
<path fill="none" stroke="#63b8ff" d="M456.26,-57.3C452.73,-56.57 449.16,-55.86 445.75,-55.25 334.94,-35.33 302.64,-41.96 189,-19.46"/>
<polygon fill="#63b8ff" stroke="#63b8ff" points="189.72,-16.04 179.22,-17.49 188.33,-22.9 189.72,-16.04"/>
</a>
</g>
</g>
<!-- Node11 -->
<g id="Node000011" class="node">
<title>Node11</title>
<g id="a_Node000011"><a xlink:title=" ">
<polygon fill="#e0e0e0" stroke="#999999" points="240,-19.25 195.5,-19.25 195.5,0 240,0 240,-19.25"/>
<text text-anchor="middle" x="217.75" y="-5.75" font-family="Helvetica,sans-Serif" font-size="10.00">cstdlib</text>
</a>
</g>
</g>
<!-- Node5&#45;&gt;Node11 -->
<g id="edge11_Node000005_Node000011" class="edge">
<title>Node5&#45;&gt;Node11</title>
<g id="a_edge11_Node000005_Node000011"><a xlink:title=" ">
<path fill="none" stroke="#63b8ff" d="M456.23,-57.44C452.71,-56.68 449.15,-55.94 445.75,-55.25 362,-38.34 337.44,-39.1 251.46,-19.71"/>
<polygon fill="#63b8ff" stroke="#63b8ff" points="252.38,-16.33 241.85,-17.51 250.82,-23.15 252.38,-16.33"/>
</a>
</g>
</g>
<!-- Node12 -->
<g id="Node000012" class="node">
<title>Node12</title>
<g id="a_Node000012"><a xlink:title=" ">
<polygon fill="#e0e0e0" stroke="#999999" points="317.5,-19.25 258,-19.25 258,0 317.5,0 317.5,-19.25"/>
<text text-anchor="middle" x="287.75" y="-5.75" font-family="Helvetica,sans-Serif" font-size="10.00">execinfo.h</text>
</a>
</g>
</g>
<!-- Node5&#45;&gt;Node12 -->
<g id="edge12_Node000005_Node000012" class="edge">
<title>Node5&#45;&gt;Node12</title>
<g id="a_edge12_Node000005_Node000012"><a xlink:title=" ">
<path fill="none" stroke="#63b8ff" d="M456.1,-56.13C422.5,-47.05 366.54,-31.92 328.44,-21.62"/>
<polygon fill="#63b8ff" stroke="#63b8ff" points="329.75,-18.35 319.18,-19.12 327.92,-25.11 329.75,-18.35"/>
</a>
</g>
</g>
<!-- Node13 -->
<g id="Node000013" class="node">
<title>Node13</title>
<g id="a_Node000013"><a xlink:title=" ">
<polygon fill="#e0e0e0" stroke="#999999" points="386,-19.25 335.5,-19.25 335.5,0 386,0 386,-19.25"/>
<text text-anchor="middle" x="360.75" y="-5.75" font-family="Helvetica,sans-Serif" font-size="10.00">cxxabi.h</text>
</a>
</g>
</g>
<!-- Node5&#45;&gt;Node13 -->
<g id="edge13_Node000005_Node000013" class="edge">
<title>Node5&#45;&gt;Node13</title>
<g id="a_edge13_Node000005_Node000013"><a xlink:title=" ">
<path fill="none" stroke="#63b8ff" d="M463.72,-54.84C444.12,-46.43 414.64,-33.77 392.24,-24.15"/>
<polygon fill="#63b8ff" stroke="#63b8ff" points="393.85,-21.03 383.28,-20.3 391.09,-27.46 393.85,-21.03"/>
</a>
</g>
</g>
<!-- Node14 -->
<g id="Node000014" class="node">
<title>Node14</title>
<g id="a_Node000014"><a xlink:title=" ">
<polygon fill="#e0e0e0" stroke="#999999" points="455.38,-19.25 404.12,-19.25 404.12,0 455.38,0 455.38,-19.25"/>
<text text-anchor="middle" x="429.75" y="-5.75" font-family="Helvetica,sans-Serif" font-size="10.00">sstream</text>
</a>
</g>
</g>
<!-- Node5&#45;&gt;Node14 -->
<g id="edge14_Node000005_Node000014" class="edge">
<title>Node5&#45;&gt;Node14</title>
<g id="a_edge14_Node000005_Node000014"><a xlink:title=" ">
<path fill="none" stroke="#63b8ff" d="M475.67,-55.08C467.91,-47.57 456.54,-36.56 447.05,-27.38"/>
<polygon fill="#63b8ff" stroke="#63b8ff" points="449.74,-25.1 440.12,-20.66 444.87,-30.13 449.74,-25.1"/>
</a>
</g>
</g>
<!-- Node15 -->
<g id="Node000015" class="node">
<title>Node15</title>
<g id="a_Node000015"><a xlink:title=" ">
<polygon fill="#e0e0e0" stroke="#999999" points="510.25,-19.25 473.25,-19.25 473.25,0 510.25,0 510.25,-19.25"/>
<text text-anchor="middle" x="491.75" y="-5.75" font-family="Helvetica,sans-Serif" font-size="10.00">array</text>
</a>
</g>
</g>
<!-- Node5&#45;&gt;Node15 -->
<g id="edge15_Node000005_Node000015" class="edge">
<title>Node5&#45;&gt;Node15</title>
<g id="a_edge15_Node000005_Node000015"><a xlink:title=" ">
<path fill="none" stroke="#63b8ff" d="M485.91,-55.08C486.77,-48.49 487.99,-39.21 489.09,-30.82"/>
<polygon fill="#63b8ff" stroke="#63b8ff" points="492.54,-31.48 490.37,-21.11 485.6,-30.57 492.54,-31.48"/>
</a>
</g>
</g>
<!-- Node16 -->
<g id="Node000016" class="node">
<title>Node16</title>
<g id="a_Node000016"><a xlink:title=" ">
<polygon fill="#e0e0e0" stroke="#999999" points="579,-19.25 528.5,-19.25 528.5,0 579,0 579,-19.25"/>
<text text-anchor="middle" x="553.75" y="-5.75" font-family="Helvetica,sans-Serif" font-size="10.00">memory</text>
</a>
</g>
</g>
<!-- Node5&#45;&gt;Node16 -->
<g id="edge16_Node000005_Node000016" class="edge">
<title>Node5&#45;&gt;Node16</title>
<g id="a_edge16_Node000005_Node000016"><a xlink:title=" ">
<path fill="none" stroke="#63b8ff" d="M496.45,-54.84C506.53,-47.07 521.29,-35.67 533.31,-26.4"/>
<polygon fill="#63b8ff" stroke="#63b8ff" points="535.24,-29.33 541.02,-20.45 530.96,-23.79 535.24,-29.33"/>
</a>
</g>
</g>
<!-- Node17 -->
<g id="Node000017" class="node">
<title>Node17</title>
<g id="a_Node000017"><a xlink:title=" ">
<polygon fill="#e0e0e0" stroke="#999999" points="646.62,-19.25 596.88,-19.25 596.88,0 646.62,0 646.62,-19.25"/>
<text text-anchor="middle" x="621.75" y="-5.75" font-family="Helvetica,sans-Serif" font-size="10.00">unistd.h</text>
</a>
</g>
</g>
<!-- Node5&#45;&gt;Node17 -->
<g id="edge17_Node000005_Node000017" class="edge">
<title>Node5&#45;&gt;Node17</title>
<g id="a_edge17_Node000005_Node000017"><a xlink:title=" ">
<path fill="none" stroke="#63b8ff" d="M507.99,-54.84C529.94,-46.31 563.1,-33.42 587.96,-23.76"/>
<polygon fill="#63b8ff" stroke="#63b8ff" points="588.93,-27.14 596.99,-20.25 586.4,-20.61 588.93,-27.14"/>
</a>
</g>
</g>
<!-- Node18 -->
<g id="Node000018" class="node">
<title>Node18</title>
<g id="a_Node000018"><a xlink:title=" ">
<polygon fill="#e0e0e0" stroke="#999999" points="724.5,-19.25 665,-19.25 665,0 724.5,0 724.5,-19.25"/>
<text text-anchor="middle" x="694.75" y="-5.75" font-family="Helvetica,sans-Serif" font-size="10.00">sys/wait.h</text>
</a>
</g>
</g>
<!-- Node5&#45;&gt;Node18 -->
<g id="edge18_Node000005_Node000018" class="edge">
<title>Node5&#45;&gt;Node18</title>
<g id="a_edge18_Node000005_Node000018"><a xlink:title=" ">
<path fill="none" stroke="#63b8ff" d="M513.07,-56.69C549.2,-47.53 611.94,-31.62 653.41,-21.11"/>
<polygon fill="#63b8ff" stroke="#63b8ff" points="654.2,-24.52 663.04,-18.67 652.48,-17.73 654.2,-24.52"/>
</a>
</g>
</g>
<!-- Node19 -->
<g id="Node000019" class="node">
<title>Node19</title>
<g id="a_Node000019"><a xlink:title=" ">
<polygon fill="#e0e0e0" stroke="#999999" points="802.88,-19.25 742.62,-19.25 742.62,0 802.88,0 802.88,-19.25"/>
<text text-anchor="middle" x="772.75" y="-5.75" font-family="Helvetica,sans-Serif" font-size="10.00">sys/prctl.h</text>
</a>
</g>
</g>
<!-- Node5&#45;&gt;Node19 -->
<g id="edge19_Node000005_Node000019" class="edge">
<title>Node5&#45;&gt;Node19</title>
<g id="a_edge19_Node000005_Node000019"><a xlink:title=" ">
<path fill="none" stroke="#63b8ff" d="M513.2,-59.16C557.58,-51.72 646.22,-36.54 731.37,-19.66"/>
<polygon fill="#63b8ff" stroke="#63b8ff" points="731.94,-23.12 741.06,-17.73 730.57,-16.25 731.94,-23.12"/>
</a>
</g>
</g>
<!-- Node22&#45;&gt;Node2 -->
<g id="edge25_Node000022_Node000002" class="edge">
<title>Node22&#45;&gt;Node2</title>
<g id="a_edge25_Node000022_Node000002"><a xlink:title=" ">
<path fill="none" stroke="#63b8ff" d="M261.27,-172.37C209.71,-167.82 95.45,-155.1 66.75,-129.75 38.08,-104.43 29.92,-57.92 27.62,-31.12"/>
<polygon fill="#63b8ff" stroke="#63b8ff" points="31.12,-31 27,-21.24 24.14,-31.44 31.12,-31"/>
</a>
</g>
</g>
<!-- Node22&#45;&gt;Node3 -->
<g id="edge23_Node000022_Node000003" class="edge">
<title>Node22&#45;&gt;Node3</title>
<g id="a_edge23_Node000022_Node000003"><a xlink:title=" ">
<path fill="none" stroke="#63b8ff" d="M306.43,-165.34C325.14,-156.75 353.49,-143.74 374.6,-134.05"/>
<polygon fill="#63b8ff" stroke="#63b8ff" points="375.88,-137.31 383.51,-129.96 372.96,-130.95 375.88,-137.31"/>
</a>
</g>
</g>
<!-- Node22&#45;&gt;Node4 -->
<g id="edge26_Node000022_Node000004" class="edge">
<title>Node22&#45;&gt;Node4</title>
<g id="a_edge26_Node000022_Node000004"><a xlink:title=" ">
<path fill="none" stroke="#63b8ff" d="M283.02,-165.59C278.04,-152.34 271.1,-127.03 282.75,-110.5 287.92,-103.17 333.01,-88.26 367.57,-77.69"/>
<polygon fill="#63b8ff" stroke="#63b8ff" points="368.35,-81.11 376.91,-74.87 366.32,-74.41 368.35,-81.11"/>
</a>
</g>
</g>
<!-- Node22&#45;&gt;Node5 -->
<g id="edge28_Node000022_Node000005" class="edge">
<title>Node22&#45;&gt;Node5</title>
<g id="a_edge28_Node000022_Node000005"><a xlink:title=" ">
<path fill="none" stroke="#63b8ff" d="M297.58,-165.46C313.97,-152.25 346.39,-127.26 376.75,-110.5 399.44,-97.97 426.37,-86.84 447.67,-78.82"/>
<polygon fill="#63b8ff" stroke="#63b8ff" points="448.64,-82.19 456.82,-75.45 446.22,-75.62 448.64,-82.19"/>
</a>
</g>
</g>
<!-- Node23 -->
<g id="Node000023" class="node">
<title>Node23</title>
<g id="a_Node000023"><a xlink:title=" ">
<polygon fill="#e0e0e0" stroke="#999999" points="330,-129.75 291.5,-129.75 291.5,-110.5 330,-110.5 330,-129.75"/>
<text text-anchor="middle" x="310.75" y="-116.25" font-family="Helvetica,sans-Serif" font-size="10.00">utility</text>
</a>
</g>
</g>
<!-- Node22&#45;&gt;Node23 -->
<g id="edge24_Node000022_Node000023" class="edge">
<title>Node22&#45;&gt;Node23</title>
<g id="a_edge24_Node000022_Node000023"><a xlink:title=" ">
<path fill="none" stroke="#63b8ff" d="M290.71,-165.58C293.79,-158.76 298.16,-149.06 302.04,-140.45"/>
<polygon fill="#63b8ff" stroke="#63b8ff" points="305.16,-142.04 306.08,-131.49 298.78,-139.17 305.16,-142.04"/>
</a>
</g>
</g>
<!-- Node24 -->
<g id="Node000024" class="node">
<title>Node24</title>
<g id="a_Node000024"><a xlink:title=" ">
<polygon fill="#e0e0e0" stroke="#999999" points="147.88,-129.75 75.62,-129.75 75.62,-110.5 147.88,-110.5 147.88,-129.75"/>
<text text-anchor="middle" x="111.75" y="-116.25" font-family="Helvetica,sans-Serif" font-size="10.00">TCollection.h</text>
</a>
</g>
</g>
<!-- Node22&#45;&gt;Node24 -->
<g id="edge27_Node000022_Node000024" class="edge">
<title>Node22&#45;&gt;Node24</title>
<g id="a_edge27_Node000022_Node000024"><a xlink:title=" ">
<path fill="none" stroke="#63b8ff" d="M261.3,-166.63C232.77,-157.95 186.1,-143.75 152.48,-133.52"/>
<polygon fill="#63b8ff" stroke="#63b8ff" points="153.66,-130.22 143.07,-130.66 151.62,-136.92 153.66,-130.22"/>
</a>
</g>
</g>
<!-- Node25 -->
<g id="Node000025" class="node">
<title>Node25</title>
<g id="a_Node000025"><a xlink:href="_t_singleton_8h.html" target="_top" xlink:title=" ">
<polygon fill="white" stroke="#666666" points="235.75,-129.75 165.75,-129.75 165.75,-110.5 235.75,-110.5 235.75,-129.75"/>
<text text-anchor="middle" x="200.75" y="-116.25" font-family="Helvetica,sans-Serif" font-size="10.00">TSingleton.h</text>
</a>
</g>
</g>
<!-- Node22&#45;&gt;Node25 -->
<g id="edge29_Node000022_Node000025" class="edge">
<title>Node22&#45;&gt;Node25</title>
<g id="a_edge29_Node000022_Node000025"><a xlink:title=" ">
<path fill="none" stroke="#63b8ff" d="M272.16,-165.34C259.31,-157.39 240.34,-145.64 225.18,-136.25"/>
<polygon fill="#63b8ff" stroke="#63b8ff" points="227.04,-133.29 216.7,-131 223.36,-139.24 227.04,-133.29"/>
</a>
</g>
</g>
<!-- Node25&#45;&gt;Node2 -->
<g id="edge30_Node000025_Node000002" class="edge">
<title>Node25&#45;&gt;Node2</title>
<g id="a_edge30_Node000025_Node000002"><a xlink:title=" ">
<path fill="none" stroke="#63b8ff" d="M200.67,-110.37C200.07,-96.68 196.87,-70.24 181.75,-55.25 177.48,-51.02 109.32,-32.42 64.82,-20.61"/>
<polygon fill="#63b8ff" stroke="#63b8ff" points="65.82,-17.25 55.26,-18.08 64.03,-24.02 65.82,-17.25"/>
</a>
</g>
</g>
<!-- Node25&#45;&gt;Node4 -->
<g id="edge31_Node000025_Node000004" class="edge">
<title>Node25&#45;&gt;Node4</title>
<g id="a_edge31_Node000025_Node000004"><a xlink:title=" ">
<path fill="none" stroke="#63b8ff" d="M235.86,-110.09C272.4,-100.69 329.51,-86 367.76,-76.16"/>
<polygon fill="#63b8ff" stroke="#63b8ff" points="368.22,-79.66 377.03,-73.78 366.47,-72.88 368.22,-79.66"/>
</a>
</g>
</g>
<!-- Node25&#45;&gt;Node5 -->
<g id="edge36_Node000025_Node000005" class="edge">
<title>Node25&#45;&gt;Node5</title>
<g id="a_edge36_Node000025_Node000005"><a xlink:title=" ">
<path fill="none" stroke="#63b8ff" d="M236.13,-113.11C281.78,-105.25 363.92,-90.8 445.28,-74.52"/>
<polygon fill="#63b8ff" stroke="#63b8ff" points="445.64,-78.01 454.75,-72.61 444.26,-71.15 445.64,-78.01"/>
</a>
</g>
</g>
<!-- Node26 -->
<g id="Node000026" class="node">
<title>Node26</title>
<g id="a_Node000026"><a xlink:title=" ">
<polygon fill="#e0e0e0" stroke="#999999" points="360.62,-74.5 292.88,-74.5 292.88,-55.25 360.62,-55.25 360.62,-74.5"/>
<text text-anchor="middle" x="326.75" y="-61" font-family="Helvetica,sans-Serif" font-size="10.00">TDirectory.h</text>
</a>
</g>
</g>
<!-- Node25&#45;&gt;Node26 -->
<g id="edge32_Node000025_Node000026" class="edge">
<title>Node25&#45;&gt;Node26</title>
<g id="a_edge32_Node000025_Node000026"><a xlink:title=" ">
<path fill="none" stroke="#63b8ff" d="M222.12,-110.09C242.04,-101.68 271.99,-89.02 294.75,-79.4"/>
<polygon fill="#63b8ff" stroke="#63b8ff" points="296.03,-82.66 303.88,-75.54 293.3,-76.21 296.03,-82.66"/>
</a>
</g>
</g>
<!-- Node27 -->
<g id="Node000027" class="node">
<title>Node27</title>
<g id="a_Node000027"><a xlink:title=" ">
<polygon fill="#e0e0e0" stroke="#999999" points="108.38,-74.5 63.12,-74.5 63.12,-55.25 108.38,-55.25 108.38,-74.5"/>
<text text-anchor="middle" x="85.75" y="-61" font-family="Helvetica,sans-Serif" font-size="10.00">TFile.h</text>
</a>
</g>
</g>
<!-- Node25&#45;&gt;Node27 -->
<g id="edge33_Node000025_Node000027" class="edge">
<title>Node25&#45;&gt;Node27</title>
<g id="a_edge33_Node000025_Node000027"><a xlink:title=" ">
<path fill="none" stroke="#63b8ff" d="M181.24,-110.09C163.23,-101.75 136.23,-89.25 115.52,-79.66"/>
<polygon fill="#63b8ff" stroke="#63b8ff" points="117.27,-76.61 106.73,-75.59 114.33,-82.97 117.27,-76.61"/>
</a>
</g>
</g>
<!-- Node28 -->
<g id="Node000028" class="node">
<title>Node28</title>
<g id="a_Node000028"><a xlink:title=" ">
<polygon fill="#e0e0e0" stroke="#999999" points="172.75,-74.5 126.75,-74.5 126.75,-55.25 172.75,-55.25 172.75,-74.5"/>
<text text-anchor="middle" x="149.75" y="-61" font-family="Helvetica,sans-Serif" font-size="10.00">TList.h</text>
</a>
</g>
</g>
<!-- Node25&#45;&gt;Node28 -->
<g id="edge34_Node000025_Node000028" class="edge">
<title>Node25&#45;&gt;Node28</title>
<g id="a_edge34_Node000025_Node000028"><a xlink:title=" ">
<path fill="none" stroke="#63b8ff" d="M192.33,-110.33C185.21,-102.9 174.81,-92.04 166.06,-82.91"/>
<polygon fill="#63b8ff" stroke="#63b8ff" points="168.85,-80.75 159.4,-75.95 163.79,-85.6 168.85,-80.75"/>
</a>
</g>
</g>
<!-- Node29 -->
<g id="Node000029" class="node">
<title>Node29</title>
<g id="a_Node000029"><a xlink:title=" ">
<polygon fill="#e0e0e0" stroke="#999999" points="274.75,-74.5 228.75,-74.5 228.75,-55.25 274.75,-55.25 274.75,-74.5"/>
<text text-anchor="middle" x="251.75" y="-61" font-family="Helvetica,sans-Serif" font-size="10.00">TKey.h</text>
</a>
</g>
</g>
<!-- Node25&#45;&gt;Node29 -->
<g id="edge35_Node000025_Node000029" class="edge">
<title>Node25&#45;&gt;Node29</title>
<g id="a_edge35_Node000025_Node000029"><a xlink:title=" ">
<path fill="none" stroke="#63b8ff" d="M209.17,-110.33C216.29,-102.9 226.69,-92.04 235.44,-82.91"/>
<polygon fill="#63b8ff" stroke="#63b8ff" points="237.71,-85.6 242.1,-75.95 232.65,-80.75 237.71,-85.6"/>
</a>
</g>
</g>
</g>
</svg>

<g id="navigator" transform="translate(0 0)" fill="#404254">
  <rect fill="#f2f5e9" fill-opacity="0.5" stroke="#606060" stroke-width=".5" x="0" y="0" width="60" height="60"/>
  <use id="zoomplus" xlink:href="#zoomPlus" x="17" y="9" onmousedown="handleZoom(evt,'in')"/>
  <use id="zoomminus" xlink:href="#zoomMin" x="42" y="9" onmousedown="handleZoom(evt,'out')"/>
  <use id="reset" xlink:href="#resetDef" x="30" y="36" onmousedown="handleReset()"/>
   <use id="arrowup" xlink:href="#arrowUp" x="0" y="0" onmousedown="handlePan(0,-1)"/>
  <use id="arrowright" xlink:href="#arrowRight" x="0" y="0" onmousedown="handlePan(1,0)"/>
  <use id="arrowdown" xlink:href="#arrowDown" x="0" y="0" onmousedown="handlePan(0,1)"/>
  <use id="arrowleft" xlink:href="#arrowLeft" x="0" y="0" onmousedown="handlePan(-1,0)"/>
</g>
<svg viewBox="0 0 15 15" width="100%" height="30px" preserveAspectRatio="xMaxYMin meet">
 <g id="arrow_out" transform="scale(0.3 0.3)">
  <a xlink:href="_t_scaler_8h__incl_org.svg" target="_base">
   <rect id="button" ry="5" rx="5" y="6" x="6" height="38" width="38"
        fill="#f2f5e9" fill-opacity="0.5" stroke="#606060" stroke-width="1.0"/>
   <path id="arrow"
     d="M 11.500037,31.436501 C 11.940474,20.09759 22.043105,11.32322 32.158766,21.979434 L 37.068811,17.246167 C 37.068811,17.246167 37.088388,32 37.088388,32 L 22.160133,31.978069 C 22.160133,31.978069 26.997745,27.140456 26.997745,27.140456 C 18.528582,18.264221 13.291696,25.230495 11.500037,31.436501 z"
     style="fill:#404040;"/>
  </a>
 </g>
</svg>

<style type='text/css'>
<![CDATA[
[data-mouse-over-selected='false'] { opacity: 0.7; }
[data-mouse-over-selected='true']  { opacity: 1.0; }
]]>
</style>
<script type="application/ecmascript"><![CDATA[
document.addEventListener('DOMContentLoaded', (event) => {
  highlightEdges();
  highlightAdjacentNodes();
});
]]></script>
</svg>
