<?xml version="1.0" encoding="UTF-8" standalone="no"?>
<!DOCTYPE svg PUBLIC "-//W3C//DTD SVG 1.1//EN"
 "http://www.w3.org/Graphics/SVG/1.1/DTD/svg11.dtd">
<!-- Generated by graphviz version 12.2.0 (20241103.1931)
 -->
<!-- Title: TSortingDiagnostics.h Pages: 1 -->
<!--zoomable 193 -->

<svg id="main" version="1.1" xmlns="http://www.w3.org/2000/svg" xmlns:xlink="http://www.w3.org/1999/xlink" xml:space="preserve" onload="init(evt)">

<style type="text/css"><![CDATA[
.node, .edge {opacity: 0.7;}
.node.selected, .edge.selected {opacity: 1;}
.edge:hover path { stroke: red; }
.edge:hover polygon { stroke: red; fill: red; }
]]></style>

<defs>
  <circle id="rim" cx="0" cy="0" r="7"/>
  <circle id="rim2" cx="0" cy="0" r="3.5"/>
  <g id="zoomPlus">
    <use xlink:href="#rim" fill="#404040"><set attributeName="fill" to="#808080" begin="zoomplus.mouseover" end="zoomplus.mouseout"/></use>
    <path d="M-4,0h8M0,-4v8" fill="none" stroke="white" stroke-width="1.5" pointer-events="none"/>
  </g>
  <g id="zoomMin">
    <use xlink:href="#rim" fill="#404040"><set attributeName="fill" to="#808080" begin="zoomminus.mouseover" end="zoomminus.mouseout"/></use>
    <path d="M-4,0h8" fill="none" stroke="white" stroke-width="1.5" pointer-events="none"/>
  </g>
  <g id="arrowUp" transform="translate(30 24)">
    <use xlink:href="#rim"/>
    <path pointer-events="none" fill="none" stroke="white" stroke-width="1.5" d="M0,-3.0v7 M-2.5,-0.5L0,-3.0L2.5,-0.5"/>
  </g>
  <g id="arrowRight" transform="rotate(90) translate(36 -43)">
    <use xlink:href="#rim"/>
    <path pointer-events="none" fill="none" stroke="white" stroke-width="1.5" d="M0,-3.0v7 M-2.5,-0.5L0,-3.0L2.5,-0.5"/>
  </g>
  <g id="arrowDown" transform="rotate(180) translate(-30 -48)">
    <use xlink:href="#rim"/>
    <path pointer-events="none" fill="none" stroke="white" stroke-width="1.5" d="M0,-3.0v7 M-2.5,-0.5L0,-3.0L2.5,-0.5"/>
  </g>
  <g id="arrowLeft" transform="rotate(270) translate(-36 17)">
    <use xlink:href="#rim"/>
    <path pointer-events="none" fill="none" stroke="white" stroke-width="1.5" d="M0,-3.0v7 M-2.5,-0.5L0,-3.0L2.5,-0.5"/>
  </g>
  <g id="resetDef">
    <use xlink:href="#rim2" fill="#404040"><set attributeName="fill" to="#808080" begin="reset.mouseover" end="reset.mouseout"/></use>
  </g>
</defs>
<script type="application/ecmascript">
var viewWidth = 1528;
var viewHeight = 193;
var sectionId = 'dynsection-0';
</script>
<script type="application/ecmascript" xlink:href="svg.min.js"/>
<svg id="graph" class="graph">
<g id="viewport">
<title>TSortingDiagnostics.h</title>
<!-- Node1 -->
<g id="Node000001" class="node">
<title>Node1</title>
<g id="a_Node000001"><a xlink:title=" ">
<polygon fill="#999999" stroke="#666666" points="399.59,-185 288.34,-185 288.34,-165.75 399.59,-165.75 399.59,-185"/>
<text text-anchor="middle" x="343.96" y="-171.5" font-family="Helvetica,sans-Serif" font-size="10.00">TSortingDiagnostics.h</text>
</a>
</g>
</g>
<!-- Node2 -->
<g id="Node000002" class="node">
<title>Node2</title>
<g id="a_Node000002"><a xlink:title=" ">
<polygon fill="#e0e0e0" stroke="#999999" points="241.46,-19.25 198.46,-19.25 198.46,0 241.46,0 241.46,-19.25"/>
<text text-anchor="middle" x="219.96" y="-5.75" font-family="Helvetica,sans-Serif" font-size="10.00">vector</text>
</a>
</g>
</g>
<!-- Node1&#45;&gt;Node2 -->
<g id="edge1_Node000001_Node000002" class="edge">
<title>Node1&#45;&gt;Node2</title>
<g id="a_edge1_Node000001_Node000002"><a xlink:title=" ">
<path fill="none" stroke="#63b8ff" d="M288.12,-166.24C200.6,-152.22 37.61,-120.49 3.96,-74.5 -1.09,-67.6 -1.44,-61.88 3.96,-55.25 26.66,-27.38 132.22,-16.39 186.91,-12.51"/>
<polygon fill="#63b8ff" stroke="#63b8ff" points="186.82,-16.02 196.57,-11.86 186.36,-9.04 186.82,-16.02"/>
</a>
</g>
</g>
<!-- Node3 -->
<g id="Node000003" class="node">
<title>Node3</title>
<g id="a_Node000003"><a xlink:title=" ">
<polygon fill="#e0e0e0" stroke="#999999" points="95.34,-74.5 12.59,-74.5 12.59,-55.25 95.34,-55.25 95.34,-74.5"/>
<text text-anchor="middle" x="53.96" y="-61" font-family="Helvetica,sans-Serif" font-size="10.00">unordered_map</text>
</a>
</g>
</g>
<!-- Node1&#45;&gt;Node3 -->
<g id="edge2_Node000001_Node000003" class="edge">
<title>Node1&#45;&gt;Node3</title>
<g id="a_edge2_Node000001_Node000003"><a xlink:title=" ">
<path fill="none" stroke="#63b8ff" d="M319.74,-165.31C268.46,-146.12 148.75,-101.34 89.08,-79.01"/>
<polygon fill="#63b8ff" stroke="#63b8ff" points="90.34,-75.75 79.74,-75.52 87.88,-82.3 90.34,-75.75"/>
</a>
</g>
</g>
<!-- Node4 -->
<g id="Node000004" class="node">
<title>Node4</title>
<g id="a_Node000004"><a xlink:title=" ">
<polygon fill="#e0e0e0" stroke="#999999" points="737.96,-74.5 679.96,-74.5 679.96,-55.25 737.96,-55.25 737.96,-74.5"/>
<text text-anchor="middle" x="708.96" y="-61" font-family="Helvetica,sans-Serif" font-size="10.00">TObject.h</text>
</a>
</g>
</g>
<!-- Node1&#45;&gt;Node4 -->
<g id="edge3_Node000001_Node000004" class="edge">
<title>Node1&#45;&gt;Node4</title>
<g id="a_edge3_Node000001_Node000004"><a xlink:title=" ">
<path fill="none" stroke="#63b8ff" d="M374.46,-165.31C440.21,-145.76 595.35,-99.65 668.92,-77.78"/>
<polygon fill="#63b8ff" stroke="#63b8ff" points="669.54,-81.25 678.13,-75.04 667.55,-74.54 669.54,-81.25"/>
</a>
</g>
</g>
<!-- Node5 -->
<g id="Node000005" class="node">
<title>Node5</title>
<g id="a_Node000005"><a xlink:href="_t_channel_8h.html" target="_top" xlink:title=" ">
<polygon fill="white" stroke="#666666" points="376.34,-129.75 311.59,-129.75 311.59,-110.5 376.34,-110.5 376.34,-129.75"/>
<text text-anchor="middle" x="343.96" y="-116.25" font-family="Helvetica,sans-Serif" font-size="10.00">TChannel.h</text>
</a>
</g>
</g>
<!-- Node1&#45;&gt;Node5 -->
<g id="edge4_Node000001_Node000005" class="edge">
<title>Node1&#45;&gt;Node5</title>
<g id="a_edge4_Node000001_Node000005"><a xlink:title=" ">
<path fill="none" stroke="#63b8ff" d="M343.96,-165.58C343.96,-159.07 343.96,-149.92 343.96,-141.62"/>
<polygon fill="#63b8ff" stroke="#63b8ff" points="347.46,-141.62 343.96,-131.62 340.46,-141.62 347.46,-141.62"/>
</a>
</g>
</g>
<!-- Node15 -->
<g id="Node000015" class="node">
<title>Node15</title>
<g id="a_Node000015"><a xlink:href="_t_singleton_8h.html" target="_top" xlink:title=" ">
<polygon fill="white" stroke="#666666" points="909.96,-129.75 839.96,-129.75 839.96,-110.5 909.96,-110.5 909.96,-129.75"/>
<text text-anchor="middle" x="874.96" y="-116.25" font-family="Helvetica,sans-Serif" font-size="10.00">TSingleton.h</text>
</a>
</g>
</g>
<!-- Node1&#45;&gt;Node15 -->
<g id="edge17_Node000001_Node000015" class="edge">
<title>Node1&#45;&gt;Node15</title>
<g id="a_edge17_Node000001_Node000015"><a xlink:title=" ">
<path fill="none" stroke="#63b8ff" d="M400.04,-168.75C505.33,-158.19 730.77,-135.58 828.35,-125.8"/>
<polygon fill="#63b8ff" stroke="#63b8ff" points="828.5,-129.3 838.1,-124.82 827.8,-122.34 828.5,-129.3"/>
</a>
</g>
</g>
<!-- Node5&#45;&gt;Node3 -->
<g id="edge8_Node000005_Node000003" class="edge">
<title>Node5&#45;&gt;Node3</title>
<g id="a_edge8_Node000005_Node000003"><a xlink:title=" ">
<path fill="none" stroke="#63b8ff" d="M311.26,-113.12C261.44,-103.97 166.05,-86.46 106.46,-75.51"/>
<polygon fill="#63b8ff" stroke="#63b8ff" points="107.36,-72.12 96.89,-73.76 106.09,-79.01 107.36,-72.12"/>
</a>
</g>
</g>
<!-- Node6 -->
<g id="Node000006" class="node">
<title>Node6</title>
<g id="a_Node000006"><a xlink:title=" ">
<polygon fill="#e0e0e0" stroke="#999999" points="609.96,-19.25 569.96,-19.25 569.96,0 609.96,0 609.96,-19.25"/>
<text text-anchor="middle" x="589.96" y="-5.75" font-family="Helvetica,sans-Serif" font-size="10.00">string</text>
</a>
</g>
</g>
<!-- Node5&#45;&gt;Node6 -->
<g id="edge5_Node000005_Node000006" class="edge">
<title>Node5&#45;&gt;Node6</title>
<g id="a_edge5_Node000005_Node000006"><a xlink:title=" ">
<path fill="none" stroke="#63b8ff" d="M376.7,-116.8C432.54,-112.19 542.88,-100.03 570.96,-74.5 583.15,-63.42 587.66,-44.92 589.26,-30.67"/>
<polygon fill="#63b8ff" stroke="#63b8ff" points="592.73,-31.27 589.93,-21.05 585.74,-30.78 592.73,-31.27"/>
</a>
</g>
</g>
<!-- Node7 -->
<g id="Node000007" class="node">
<title>Node7</title>
<g id="a_Node000007"><a xlink:title=" ">
<polygon fill="#e0e0e0" stroke="#999999" points="661.46,-74.5 618.46,-74.5 618.46,-55.25 661.46,-55.25 661.46,-74.5"/>
<text text-anchor="middle" x="639.96" y="-61" font-family="Helvetica,sans-Serif" font-size="10.00">cmath</text>
</a>
</g>
</g>
<!-- Node5&#45;&gt;Node7 -->
<g id="edge6_Node000005_Node000007" class="edge">
<title>Node5&#45;&gt;Node7</title>
<g id="a_edge6_Node000005_Node000007"><a xlink:title=" ">
<path fill="none" stroke="#63b8ff" d="M376.52,-114.24C425.88,-106.66 522.54,-91.22 603.96,-74.5 605.13,-74.26 606.31,-74.01 607.51,-73.75"/>
<polygon fill="#63b8ff" stroke="#63b8ff" points="607.86,-77.26 616.84,-71.64 606.31,-70.44 607.86,-77.26"/>
</a>
</g>
</g>
<!-- Node8 -->
<g id="Node000008" class="node">
<title>Node8</title>
<g id="a_Node000008"><a xlink:title=" ">
<polygon fill="#e0e0e0" stroke="#999999" points="152.21,-74.5 113.71,-74.5 113.71,-55.25 152.21,-55.25 152.21,-74.5"/>
<text text-anchor="middle" x="132.96" y="-61" font-family="Helvetica,sans-Serif" font-size="10.00">utility</text>
</a>
</g>
</g>
<!-- Node5&#45;&gt;Node8 -->
<g id="edge7_Node000005_Node000008" class="edge">
<title>Node5&#45;&gt;Node8</title>
<g id="a_edge7_Node000005_Node000008"><a xlink:title=" ">
<path fill="none" stroke="#63b8ff" d="M311.42,-111.81C276.93,-103.92 220.64,-90.66 163.55,-75.09"/>
<polygon fill="#63b8ff" stroke="#63b8ff" points="164.53,-71.73 153.96,-72.46 162.68,-78.48 164.53,-71.73"/>
</a>
</g>
</g>
<!-- Node9 -->
<g id="Node000009" class="node">
<title>Node9</title>
<g id="a_Node000009"><a xlink:title=" ">
<polygon fill="#e0e0e0" stroke="#999999" points="231.46,-74.5 170.46,-74.5 170.46,-55.25 231.46,-55.25 231.46,-74.5"/>
<text text-anchor="middle" x="200.96" y="-61" font-family="Helvetica,sans-Serif" font-size="10.00">TNamed.h</text>
</a>
</g>
</g>
<!-- Node5&#45;&gt;Node9 -->
<g id="edge9_Node000005_Node000009" class="edge">
<title>Node5&#45;&gt;Node9</title>
<g id="a_edge9_Node000005_Node000009"><a xlink:title=" ">
<path fill="none" stroke="#63b8ff" d="M319.71,-110.09C296.7,-101.52 261.87,-88.56 235.88,-78.88"/>
<polygon fill="#63b8ff" stroke="#63b8ff" points="237.35,-75.69 226.76,-75.48 234.91,-82.25 237.35,-75.69"/>
</a>
</g>
</g>
<!-- Node10 -->
<g id="Node000010" class="node">
<title>Node10</title>
<g id="a_Node000010"><a xlink:title=" ">
<polygon fill="#e0e0e0" stroke="#999999" points="298.46,-74.5 249.46,-74.5 249.46,-55.25 298.46,-55.25 298.46,-74.5"/>
<text text-anchor="middle" x="273.96" y="-61" font-family="Helvetica,sans-Serif" font-size="10.00">TTree.h</text>
</a>
</g>
</g>
<!-- Node5&#45;&gt;Node10 -->
<g id="edge10_Node000005_Node000010" class="edge">
<title>Node5&#45;&gt;Node10</title>
<g id="a_edge10_Node000005_Node000010"><a xlink:title=" ">
<path fill="none" stroke="#63b8ff" d="M332.09,-110.09C321.87,-102.32 306.89,-90.92 294.7,-81.65"/>
<polygon fill="#63b8ff" stroke="#63b8ff" points="296.95,-78.96 286.87,-75.69 292.71,-84.53 296.95,-78.96"/>
</a>
</g>
</g>
<!-- Node11 -->
<g id="Node000011" class="node">
<title>Node11</title>
<g id="a_Node000011"><a xlink:title=" ">
<polygon fill="#e0e0e0" stroke="#999999" points="371.84,-74.5 316.09,-74.5 316.09,-55.25 371.84,-55.25 371.84,-74.5"/>
<text text-anchor="middle" x="343.96" y="-61" font-family="Helvetica,sans-Serif" font-size="10.00">TGraph.h</text>
</a>
</g>
</g>
<!-- Node5&#45;&gt;Node11 -->
<g id="edge11_Node000005_Node000011" class="edge">
<title>Node5&#45;&gt;Node11</title>
<g id="a_edge11_Node000005_Node000011"><a xlink:title=" ">
<path fill="none" stroke="#63b8ff" d="M343.96,-110.33C343.96,-103.82 343.96,-94.67 343.96,-86.37"/>
<polygon fill="#63b8ff" stroke="#63b8ff" points="347.46,-86.37 343.96,-76.37 340.46,-86.37 347.46,-86.37"/>
</a>
</g>
</g>
<!-- Node12 -->
<g id="Node000012" class="node">
<title>Node12</title>
<g id="a_Node000012"><a xlink:title=" ">
<polygon fill="#e0e0e0" stroke="#999999" points="459.59,-74.5 390.34,-74.5 390.34,-55.25 459.59,-55.25 459.59,-74.5"/>
<text text-anchor="middle" x="424.96" y="-61" font-family="Helvetica,sans-Serif" font-size="10.00">TClassRef.h</text>
</a>
</g>
</g>
<!-- Node5&#45;&gt;Node12 -->
<g id="edge12_Node000005_Node000012" class="edge">
<title>Node5&#45;&gt;Node12</title>
<g id="a_edge12_Node000005_Node000012"><a xlink:title=" ">
<path fill="none" stroke="#63b8ff" d="M357.71,-110.09C369.69,-102.21 387.34,-90.61 401.55,-81.27"/>
<polygon fill="#63b8ff" stroke="#63b8ff" points="403.46,-84.2 409.89,-75.78 399.61,-78.35 403.46,-84.2"/>
</a>
</g>
</g>
<!-- Node13 -->
<g id="Node000013" class="node">
<title>Node13</title>
<g id="a_Node000013"><a xlink:href="_t_priority_value_8h.html" target="_top" xlink:title=" ">
<polygon fill="white" stroke="#666666" points="562.09,-74.5 477.84,-74.5 477.84,-55.25 562.09,-55.25 562.09,-74.5"/>
<text text-anchor="middle" x="519.96" y="-61" font-family="Helvetica,sans-Serif" font-size="10.00">TPriorityValue.h</text>
</a>
</g>
</g>
<!-- Node5&#45;&gt;Node13 -->
<g id="edge13_Node000005_Node000013" class="edge">
<title>Node5&#45;&gt;Node13</title>
<g id="a_edge13_Node000005_Node000013"><a xlink:title=" ">
<path fill="none" stroke="#63b8ff" d="M373.82,-110.09C402.77,-101.33 446.92,-87.98 479.12,-78.23"/>
<polygon fill="#63b8ff" stroke="#63b8ff" points="479.96,-81.64 488.51,-75.39 477.93,-74.94 479.96,-81.64"/>
</a>
</g>
</g>
<!-- Node13&#45;&gt;Node2 -->
<g id="edge16_Node000013_Node000002" class="edge">
<title>Node13&#45;&gt;Node2</title>
<g id="a_edge16_Node000013_Node000002"><a xlink:title=" ">
<path fill="none" stroke="#63b8ff" d="M477.62,-56.36C417.28,-45.65 307.82,-26.22 253.04,-16.5"/>
<polygon fill="#63b8ff" stroke="#63b8ff" points="253.86,-13.09 243.4,-14.79 252.64,-19.98 253.86,-13.09"/>
</a>
</g>
</g>
<!-- Node13&#45;&gt;Node6 -->
<g id="edge15_Node000013_Node000006" class="edge">
<title>Node13&#45;&gt;Node6</title>
<g id="a_edge15_Node000013_Node000006"><a xlink:title=" ">
<path fill="none" stroke="#63b8ff" d="M531.84,-54.84C542.06,-47.07 557.04,-35.67 569.23,-26.4"/>
<polygon fill="#63b8ff" stroke="#63b8ff" points="571.22,-29.28 577.06,-20.44 566.98,-23.71 571.22,-29.28"/>
</a>
</g>
</g>
<!-- Node14 -->
<g id="Node000014" class="node">
<title>Node14</title>
<g id="a_Node000014"><a xlink:title=" ">
<polygon fill="#e0e0e0" stroke="#999999" points="545.59,-19.25 494.34,-19.25 494.34,0 545.59,0 545.59,-19.25"/>
<text text-anchor="middle" x="519.96" y="-5.75" font-family="Helvetica,sans-Serif" font-size="10.00">ostream</text>
</a>
</g>
</g>
<!-- Node13&#45;&gt;Node14 -->
<g id="edge14_Node000013_Node000014" class="edge">
<title>Node13&#45;&gt;Node14</title>
<g id="a_edge14_Node000013_Node000014"><a xlink:title=" ">
<path fill="none" stroke="#63b8ff" d="M519.96,-55.08C519.96,-48.57 519.96,-39.42 519.96,-31.12"/>
<polygon fill="#63b8ff" stroke="#63b8ff" points="523.46,-31.12 519.96,-21.12 516.46,-31.12 523.46,-31.12"/>
</a>
</g>
</g>
<!-- Node15&#45;&gt;Node4 -->
<g id="edge19_Node000015_Node000004" class="edge">
<title>Node15&#45;&gt;Node4</title>
<g id="a_edge19_Node000015_Node000004"><a xlink:title=" ">
<path fill="none" stroke="#63b8ff" d="M846.8,-110.09C819.62,-101.37 778.22,-88.09 747.89,-78.36"/>
<polygon fill="#63b8ff" stroke="#63b8ff" points="749.29,-75.14 738.7,-75.41 747.16,-81.8 749.29,-75.14"/>
</a>
</g>
</g>
<!-- Node16 -->
<g id="Node000016" class="node">
<title>Node16</title>
<g id="a_Node000016"><a xlink:title=" ">
<polygon fill="#e0e0e0" stroke="#999999" points="690.71,-19.25 637.21,-19.25 637.21,0 690.71,0 690.71,-19.25"/>
<text text-anchor="middle" x="663.96" y="-5.75" font-family="Helvetica,sans-Serif" font-size="10.00">iostream</text>
</a>
</g>
</g>
<!-- Node15&#45;&gt;Node16 -->
<g id="edge18_Node000015_Node000016" class="edge">
<title>Node15&#45;&gt;Node16</title>
<g id="a_edge18_Node000015_Node000016"><a xlink:title=" ">
<path fill="none" stroke="#63b8ff" d="M895.94,-110.04C920.81,-98.02 956.78,-75.95 938.96,-55.25 905.91,-16.85 769.44,-28 702.34,-19.19"/>
<polygon fill="#63b8ff" stroke="#63b8ff" points="702.96,-15.75 692.53,-17.61 701.85,-22.66 702.96,-15.75"/>
</a>
</g>
</g>
<!-- Node17 -->
<g id="Node000017" class="node">
<title>Node17</title>
<g id="a_Node000017"><a xlink:title=" ">
<polygon fill="#e0e0e0" stroke="#999999" points="1127.84,-74.5 1060.09,-74.5 1060.09,-55.25 1127.84,-55.25 1127.84,-74.5"/>
<text text-anchor="middle" x="1093.96" y="-61" font-family="Helvetica,sans-Serif" font-size="10.00">TDirectory.h</text>
</a>
</g>
</g>
<!-- Node15&#45;&gt;Node17 -->
<g id="edge20_Node000015_Node000017" class="edge">
<title>Node15&#45;&gt;Node17</title>
<g id="a_edge20_Node000015_Node000017"><a xlink:title=" ">
<path fill="none" stroke="#63b8ff" d="M910.15,-110.57C947.84,-101.41 1007.76,-86.84 1048.88,-76.84"/>
<polygon fill="#63b8ff" stroke="#63b8ff" points="1049.59,-80.27 1058.48,-74.5 1047.93,-73.47 1049.59,-80.27"/>
</a>
</g>
</g>
<!-- Node18 -->
<g id="Node000018" class="node">
<title>Node18</title>
<g id="a_Node000018"><a xlink:title=" ">
<polygon fill="#e0e0e0" stroke="#999999" points="801.59,-74.5 756.34,-74.5 756.34,-55.25 801.59,-55.25 801.59,-74.5"/>
<text text-anchor="middle" x="778.96" y="-61" font-family="Helvetica,sans-Serif" font-size="10.00">TFile.h</text>
</a>
</g>
</g>
<!-- Node15&#45;&gt;Node18 -->
<g id="edge21_Node000015_Node000018" class="edge">
<title>Node15&#45;&gt;Node18</title>
<g id="a_edge21_Node000015_Node000018"><a xlink:title=" ">
<path fill="none" stroke="#63b8ff" d="M858.68,-110.09C844.06,-101.98 822.34,-89.93 805.26,-80.46"/>
<polygon fill="#63b8ff" stroke="#63b8ff" points="807.1,-77.48 796.65,-75.69 803.7,-83.6 807.1,-77.48"/>
</a>
</g>
</g>
<!-- Node19 -->
<g id="Node000019" class="node">
<title>Node19</title>
<g id="a_Node000019"><a xlink:title=" ">
<polygon fill="#e0e0e0" stroke="#999999" points="865.96,-74.5 819.96,-74.5 819.96,-55.25 865.96,-55.25 865.96,-74.5"/>
<text text-anchor="middle" x="842.96" y="-61" font-family="Helvetica,sans-Serif" font-size="10.00">TList.h</text>
</a>
</g>
</g>
<!-- Node15&#45;&gt;Node19 -->
<g id="edge22_Node000015_Node000019" class="edge">
<title>Node15&#45;&gt;Node19</title>
<g id="a_edge22_Node000015_Node000019"><a xlink:title=" ">
<path fill="none" stroke="#63b8ff" d="M869.68,-110.33C865.49,-103.36 859.49,-93.37 854.23,-84.62"/>
<polygon fill="#63b8ff" stroke="#63b8ff" points="857.29,-82.93 849.14,-76.16 851.29,-86.53 857.29,-82.93"/>
</a>
</g>
</g>
<!-- Node20 -->
<g id="Node000020" class="node">
<title>Node20</title>
<g id="a_Node000020"><a xlink:title=" ">
<polygon fill="#e0e0e0" stroke="#999999" points="929.96,-74.5 883.96,-74.5 883.96,-55.25 929.96,-55.25 929.96,-74.5"/>
<text text-anchor="middle" x="906.96" y="-61" font-family="Helvetica,sans-Serif" font-size="10.00">TKey.h</text>
</a>
</g>
</g>
<!-- Node15&#45;&gt;Node20 -->
<g id="edge23_Node000015_Node000020" class="edge">
<title>Node15&#45;&gt;Node20</title>
<g id="a_edge23_Node000015_Node000020"><a xlink:title=" ">
<path fill="none" stroke="#63b8ff" d="M880.25,-110.33C884.44,-103.36 890.44,-93.37 895.7,-84.62"/>
<polygon fill="#63b8ff" stroke="#63b8ff" points="898.64,-86.53 900.79,-76.16 892.64,-82.93 898.64,-86.53"/>
</a>
</g>
</g>
<!-- Node21 -->
<g id="Node000021" class="node">
<title>Node21</title>
<g id="a_Node000021"><a xlink:href="_globals_8h.html" target="_top" xlink:title=" ">
<polygon fill="white" stroke="#666666" points="1042.21,-74.5 985.71,-74.5 985.71,-55.25 1042.21,-55.25 1042.21,-74.5"/>
<text text-anchor="middle" x="1013.96" y="-61" font-family="Helvetica,sans-Serif" font-size="10.00">Globals.h</text>
</a>
</g>
</g>
<!-- Node15&#45;&gt;Node21 -->
<g id="edge24_Node000015_Node000021" class="edge">
<title>Node15&#45;&gt;Node21</title>
<g id="a_edge24_Node000015_Node000021"><a xlink:title=" ">
<path fill="none" stroke="#63b8ff" d="M898.54,-110.09C920.81,-101.56 954.46,-88.67 979.69,-79.01"/>
<polygon fill="#63b8ff" stroke="#63b8ff" points="980.77,-82.34 988.86,-75.49 978.27,-75.8 980.77,-82.34"/>
</a>
</g>
</g>
<!-- Node21&#45;&gt;Node6 -->
<g id="edge28_Node000021_Node000006" class="edge">
<title>Node21&#45;&gt;Node6</title>
<g id="a_edge28_Node000021_Node000006"><a xlink:title=" ">
<path fill="none" stroke="#63b8ff" d="M985.45,-60.59C896.55,-50.34 630.18,-19.63 627.96,-19.25 625.81,-18.88 623.6,-18.47 621.38,-18.03"/>
<polygon fill="#63b8ff" stroke="#63b8ff" points="622.38,-14.67 611.87,-16 620.92,-21.51 622.38,-14.67"/>
</a>
</g>
</g>
<!-- Node21&#45;&gt;Node16 -->
<g id="edge25_Node000021_Node000016" class="edge">
<title>Node21&#45;&gt;Node16</title>
<g id="a_edge25_Node000021_Node000016"><a xlink:title=" ">
<path fill="none" stroke="#63b8ff" d="M985.55,-57.76C981.02,-56.86 976.37,-55.99 971.96,-55.25 855.24,-35.57 821.81,-41.13 702.11,-19.46"/>
<polygon fill="#63b8ff" stroke="#63b8ff" points="702.98,-16.07 692.52,-17.7 701.72,-22.95 702.98,-16.07"/>
</a>
</g>
</g>
<!-- Node22 -->
<g id="Node000022" class="node">
<title>Node22</title>
<g id="a_Node000022"><a xlink:title=" ">
<polygon fill="#e0e0e0" stroke="#999999" points="758.84,-19.25 709.09,-19.25 709.09,0 758.84,0 758.84,-19.25"/>
<text text-anchor="middle" x="733.96" y="-5.75" font-family="Helvetica,sans-Serif" font-size="10.00">iomanip</text>
</a>
</g>
</g>
<!-- Node21&#45;&gt;Node22 -->
<g id="edge26_Node000021_Node000022" class="edge">
<title>Node21&#45;&gt;Node22</title>
<g id="a_edge26_Node000021_Node000022"><a xlink:title=" ">
<path fill="none" stroke="#63b8ff" d="M985.52,-57.92C980.99,-57.01 976.35,-56.09 971.96,-55.25 885.06,-38.66 859.92,-38.56 770.41,-19.64"/>
<polygon fill="#63b8ff" stroke="#63b8ff" points="771.16,-16.22 760.65,-17.55 769.69,-23.07 771.16,-16.22"/>
</a>
</g>
</g>
<!-- Node23 -->
<g id="Node000023" class="node">
<title>Node23</title>
<g id="a_Node000023"><a xlink:title=" ">
<polygon fill="#e0e0e0" stroke="#999999" points="834.96,-19.25 776.96,-19.25 776.96,0 834.96,0 834.96,-19.25"/>
<text text-anchor="middle" x="805.96" y="-5.75" font-family="Helvetica,sans-Serif" font-size="10.00">stdexcept</text>
</a>
</g>
</g>
<!-- Node21&#45;&gt;Node23 -->
<g id="edge27_Node000021_Node000023" class="edge">
<title>Node21&#45;&gt;Node23</title>
<g id="a_edge27_Node000021_Node000023"><a xlink:title=" ">
<path fill="none" stroke="#63b8ff" d="M985.48,-56.58C949.48,-47.37 887.28,-31.44 846.38,-20.97"/>
<polygon fill="#63b8ff" stroke="#63b8ff" points="847.47,-17.64 836.91,-18.55 845.73,-24.42 847.47,-17.64"/>
</a>
</g>
</g>
<!-- Node24 -->
<g id="Node000024" class="node">
<title>Node24</title>
<g id="a_Node000024"><a xlink:title=" ">
<polygon fill="#e0e0e0" stroke="#999999" points="895.09,-19.25 852.84,-19.25 852.84,0 895.09,0 895.09,-19.25"/>
<text text-anchor="middle" x="873.96" y="-5.75" font-family="Helvetica,sans-Serif" font-size="10.00">cstdio</text>
</a>
</g>
</g>
<!-- Node21&#45;&gt;Node24 -->
<g id="edge29_Node000021_Node000024" class="edge">
<title>Node21&#45;&gt;Node24</title>
<g id="a_edge29_Node000021_Node000024"><a xlink:title=" ">
<path fill="none" stroke="#63b8ff" d="M990.22,-54.84C967.11,-46.05 931.84,-32.64 906.2,-22.89"/>
<polygon fill="#63b8ff" stroke="#63b8ff" points="907.53,-19.65 896.94,-19.36 905.05,-26.19 907.53,-19.65"/>
</a>
</g>
</g>
<!-- Node25 -->
<g id="Node000025" class="node">
<title>Node25</title>
<g id="a_Node000025"><a xlink:title=" ">
<polygon fill="#e0e0e0" stroke="#999999" points="957.21,-19.25 912.71,-19.25 912.71,0 957.21,0 957.21,-19.25"/>
<text text-anchor="middle" x="934.96" y="-5.75" font-family="Helvetica,sans-Serif" font-size="10.00">cstdlib</text>
</a>
</g>
</g>
<!-- Node21&#45;&gt;Node25 -->
<g id="edge30_Node000021_Node000025" class="edge">
<title>Node21&#45;&gt;Node25</title>
<g id="a_edge30_Node000021_Node000025"><a xlink:title=" ">
<path fill="none" stroke="#63b8ff" d="M1000.56,-54.84C988.87,-46.96 971.66,-35.36 957.8,-26.02"/>
<polygon fill="#63b8ff" stroke="#63b8ff" points="959.94,-23.24 949.69,-20.55 956.02,-29.04 959.94,-23.24"/>
</a>
</g>
</g>
<!-- Node26 -->
<g id="Node000026" class="node">
<title>Node26</title>
<g id="a_Node000026"><a xlink:title=" ">
<polygon fill="#e0e0e0" stroke="#999999" points="1034.71,-19.25 975.21,-19.25 975.21,0 1034.71,0 1034.71,-19.25"/>
<text text-anchor="middle" x="1004.96" y="-5.75" font-family="Helvetica,sans-Serif" font-size="10.00">execinfo.h</text>
</a>
</g>
</g>
<!-- Node21&#45;&gt;Node26 -->
<g id="edge31_Node000021_Node000026" class="edge">
<title>Node21&#45;&gt;Node26</title>
<g id="a_edge31_Node000021_Node000026"><a xlink:title=" ">
<path fill="none" stroke="#63b8ff" d="M1012.48,-55.08C1011.36,-48.49 1009.8,-39.21 1008.38,-30.82"/>
<polygon fill="#63b8ff" stroke="#63b8ff" points="1011.85,-30.38 1006.74,-21.1 1004.95,-31.55 1011.85,-30.38"/>
</a>
</g>
</g>
<!-- Node27 -->
<g id="Node000027" class="node">
<title>Node27</title>
<g id="a_Node000027"><a xlink:title=" ">
<polygon fill="#e0e0e0" stroke="#999999" points="1103.21,-19.25 1052.71,-19.25 1052.71,0 1103.21,0 1103.21,-19.25"/>
<text text-anchor="middle" x="1077.96" y="-5.75" font-family="Helvetica,sans-Serif" font-size="10.00">cxxabi.h</text>
</a>
</g>
</g>
<!-- Node21&#45;&gt;Node27 -->
<g id="edge32_Node000021_Node000027" class="edge">
<title>Node21&#45;&gt;Node27</title>
<g id="a_edge32_Node000021_Node000027"><a xlink:title=" ">
<path fill="none" stroke="#63b8ff" d="M1024.82,-54.84C1034.07,-47.15 1047.59,-35.9 1058.67,-26.68"/>
<polygon fill="#63b8ff" stroke="#63b8ff" points="1060.66,-29.58 1066.1,-20.49 1056.18,-24.2 1060.66,-29.58"/>
</a>
</g>
</g>
<!-- Node28 -->
<g id="Node000028" class="node">
<title>Node28</title>
<g id="a_Node000028"><a xlink:title=" ">
<polygon fill="#e0e0e0" stroke="#999999" points="1172.59,-19.25 1121.34,-19.25 1121.34,0 1172.59,0 1172.59,-19.25"/>
<text text-anchor="middle" x="1146.96" y="-5.75" font-family="Helvetica,sans-Serif" font-size="10.00">sstream</text>
</a>
</g>
</g>
<!-- Node21&#45;&gt;Node28 -->
<g id="edge33_Node000021_Node000028" class="edge">
<title>Node21&#45;&gt;Node28</title>
<g id="a_edge33_Node000021_Node000028"><a xlink:title=" ">
<path fill="none" stroke="#63b8ff" d="M1036.53,-54.84C1057.74,-46.35 1089.74,-33.54 1113.84,-23.89"/>
<polygon fill="#63b8ff" stroke="#63b8ff" points="1114.9,-27.23 1122.89,-20.27 1112.3,-20.73 1114.9,-27.23"/>
</a>
</g>
</g>
<!-- Node29 -->
<g id="Node000029" class="node">
<title>Node29</title>
<g id="a_Node000029"><a xlink:title=" ">
<polygon fill="#e0e0e0" stroke="#999999" points="1227.46,-19.25 1190.46,-19.25 1190.46,0 1227.46,0 1227.46,-19.25"/>
<text text-anchor="middle" x="1208.96" y="-5.75" font-family="Helvetica,sans-Serif" font-size="10.00">array</text>
</a>
</g>
</g>
<!-- Node21&#45;&gt;Node29 -->
<g id="edge34_Node000021_Node000029" class="edge">
<title>Node21&#45;&gt;Node29</title>
<g id="a_edge34_Node000021_Node000029"><a xlink:title=" ">
<path fill="none" stroke="#63b8ff" d="M1042.62,-56.72C1074,-48.79 1126.03,-35.35 1179.13,-19.98"/>
<polygon fill="#63b8ff" stroke="#63b8ff" points="1180.05,-23.36 1188.67,-17.2 1178.09,-16.64 1180.05,-23.36"/>
</a>
</g>
</g>
<!-- Node30 -->
<g id="Node000030" class="node">
<title>Node30</title>
<g id="a_Node000030"><a xlink:title=" ">
<polygon fill="#e0e0e0" stroke="#999999" points="1296.21,-19.25 1245.71,-19.25 1245.71,0 1296.21,0 1296.21,-19.25"/>
<text text-anchor="middle" x="1270.96" y="-5.75" font-family="Helvetica,sans-Serif" font-size="10.00">memory</text>
</a>
</g>
</g>
<!-- Node21&#45;&gt;Node30 -->
<g id="edge35_Node000021_Node000030" class="edge">
<title>Node21&#45;&gt;Node30</title>
<g id="a_edge35_Node000021_Node000030"><a xlink:title=" ">
<path fill="none" stroke="#63b8ff" d="M1042.62,-57.08C1045.44,-56.45 1048.26,-55.83 1050.96,-55.25 1129.94,-38.41 1152.93,-37.65 1234.58,-19.68"/>
<polygon fill="#63b8ff" stroke="#63b8ff" points="1234.9,-23.2 1243.9,-17.61 1233.38,-16.36 1234.9,-23.2"/>
</a>
</g>
</g>
<!-- Node31 -->
<g id="Node000031" class="node">
<title>Node31</title>
<g id="a_Node000031"><a xlink:title=" ">
<polygon fill="#e0e0e0" stroke="#999999" points="1363.84,-19.25 1314.09,-19.25 1314.09,0 1363.84,0 1363.84,-19.25"/>
<text text-anchor="middle" x="1338.96" y="-5.75" font-family="Helvetica,sans-Serif" font-size="10.00">unistd.h</text>
</a>
</g>
</g>
<!-- Node21&#45;&gt;Node31 -->
<g id="edge36_Node000021_Node000031" class="edge">
<title>Node21&#45;&gt;Node31</title>
<g id="a_edge36_Node000021_Node000031"><a xlink:title=" ">
<path fill="none" stroke="#63b8ff" d="M1042.6,-56.94C1045.42,-56.33 1048.24,-55.76 1050.96,-55.25 1159.54,-34.94 1191.14,-40.89 1302.73,-19.49"/>
<polygon fill="#63b8ff" stroke="#63b8ff" points="1303.15,-22.98 1312.3,-17.62 1301.81,-16.11 1303.15,-22.98"/>
</a>
</g>
</g>
<!-- Node32 -->
<g id="Node000032" class="node">
<title>Node32</title>
<g id="a_Node000032"><a xlink:title=" ">
<polygon fill="#e0e0e0" stroke="#999999" points="1441.71,-19.25 1382.21,-19.25 1382.21,0 1441.71,0 1441.71,-19.25"/>
<text text-anchor="middle" x="1411.96" y="-5.75" font-family="Helvetica,sans-Serif" font-size="10.00">sys/wait.h</text>
</a>
</g>
</g>
<!-- Node21&#45;&gt;Node32 -->
<g id="edge37_Node000021_Node000032" class="edge">
<title>Node21&#45;&gt;Node32</title>
<g id="a_edge37_Node000021_Node000032"><a xlink:title=" ">
<path fill="none" stroke="#63b8ff" d="M1042.58,-56.85C1045.4,-56.27 1048.23,-55.72 1050.96,-55.25 1189.28,-31.48 1228.91,-42.25 1370.51,-19.48"/>
<polygon fill="#63b8ff" stroke="#63b8ff" points="1371,-22.95 1380.3,-17.87 1369.86,-16.04 1371,-22.95"/>
</a>
</g>
</g>
<!-- Node33 -->
<g id="Node000033" class="node">
<title>Node33</title>
<g id="a_Node000033"><a xlink:title=" ">
<polygon fill="#e0e0e0" stroke="#999999" points="1520.09,-19.25 1459.84,-19.25 1459.84,0 1520.09,0 1520.09,-19.25"/>
<text text-anchor="middle" x="1489.96" y="-5.75" font-family="Helvetica,sans-Serif" font-size="10.00">sys/prctl.h</text>
</a>
</g>
</g>
<!-- Node21&#45;&gt;Node33 -->
<g id="edge38_Node000021_Node000033" class="edge">
<title>Node21&#45;&gt;Node33</title>
<g id="a_edge38_Node000021_Node000033"><a xlink:title=" ">
<path fill="none" stroke="#63b8ff" d="M1042.57,-56.79C1045.4,-56.22 1048.23,-55.69 1050.96,-55.25 1223.58,-27.5 1272.58,-45.79 1448.18,-19.49"/>
<polygon fill="#63b8ff" stroke="#63b8ff" points="1448.53,-22.98 1457.88,-18.01 1447.47,-16.06 1448.53,-22.98"/>
</a>
</g>
</g>
</g>
</svg>

<g id="navigator" transform="translate(0 0)" fill="#404254">
  <rect fill="#f2f5e9" fill-opacity="0.5" stroke="#606060" stroke-width=".5" x="0" y="0" width="60" height="60"/>
  <use id="zoomplus" xlink:href="#zoomPlus" x="17" y="9" onmousedown="handleZoom(evt,'in')"/>
  <use id="zoomminus" xlink:href="#zoomMin" x="42" y="9" onmousedown="handleZoom(evt,'out')"/>
  <use id="reset" xlink:href="#resetDef" x="30" y="36" onmousedown="handleReset()"/>
   <use id="arrowup" xlink:href="#arrowUp" x="0" y="0" onmousedown="handlePan(0,-1)"/>
  <use id="arrowright" xlink:href="#arrowRight" x="0" y="0" onmousedown="handlePan(1,0)"/>
  <use id="arrowdown" xlink:href="#arrowDown" x="0" y="0" onmousedown="handlePan(0,1)"/>
  <use id="arrowleft" xlink:href="#arrowLeft" x="0" y="0" onmousedown="handlePan(-1,0)"/>
</g>
<svg viewBox="0 0 15 15" width="100%" height="30px" preserveAspectRatio="xMaxYMin meet">
 <g id="arrow_out" transform="scale(0.3 0.3)">
  <a xlink:href="_t_sorting_diagnostics_8h__incl_org.svg" target="_base">
   <rect id="button" ry="5" rx="5" y="6" x="6" height="38" width="38"
        fill="#f2f5e9" fill-opacity="0.5" stroke="#606060" stroke-width="1.0"/>
   <path id="arrow"
     d="M 11.500037,31.436501 C 11.940474,20.09759 22.043105,11.32322 32.158766,21.979434 L 37.068811,17.246167 C 37.068811,17.246167 37.088388,32 37.088388,32 L 22.160133,31.978069 C 22.160133,31.978069 26.997745,27.140456 26.997745,27.140456 C 18.528582,18.264221 13.291696,25.230495 11.500037,31.436501 z"
     style="fill:#404040;"/>
  </a>
 </g>
</svg>

<style type='text/css'>
<![CDATA[
[data-mouse-over-selected='false'] { opacity: 0.7; }
[data-mouse-over-selected='true']  { opacity: 1.0; }
]]>
</style>
<script type="application/ecmascript"><![CDATA[
document.addEventListener('DOMContentLoaded', (event) => {
  highlightEdges();
  highlightAdjacentNodes();
});
]]></script>
</svg>
