<?xml version="1.0" encoding="UTF-8" standalone="no"?>
<!DOCTYPE svg PUBLIC "-//W3C//DTD SVG 1.1//EN"
 "http://www.w3.org/Graphics/SVG/1.1/DTD/svg11.dtd">
<!-- Generated by graphviz version 12.2.0 (20241103.1931)
 -->
<!-- Title: TTAC.h Pages: 1 -->
<svg width="713pt" height="138pt"
 viewBox="0.00 0.00 712.62 137.75" xmlns="http://www.w3.org/2000/svg" xmlns:xlink="http://www.w3.org/1999/xlink">
<g id="graph0" class="graph" transform="scale(1 1) rotate(0) translate(4 133.75)">
<title>TTAC.h</title>
<!-- Node1 -->
<g id="Node000001" class="node">
<title>Node1</title>
<g id="a_Node000001"><a xlink:title=" ">
<polygon fill="#999999" stroke="#666666" points="377.38,-129.75 328.38,-129.75 328.38,-110.5 377.38,-110.5 377.38,-129.75"/>
<text text-anchor="middle" x="352.88" y="-116.25" font-family="Helvetica,sans-Serif" font-size="10.00">TTAC.h</text>
</a>
</g>
</g>
<!-- Node2 -->
<g id="Node000002" class="node">
<title>Node2</title>
<g id="a_Node000002"><a xlink:href="_get_tree_entries_8cxx.html" target="_top" xlink:title=" ">
<polygon fill="white" stroke="#666666" points="97.75,-74.5 0,-74.5 0,-55.25 97.75,-55.25 97.75,-74.5"/>
<text text-anchor="middle" x="48.88" y="-61" font-family="Helvetica,sans-Serif" font-size="10.00">GetTreeEntries.cxx</text>
</a>
</g>
</g>
<!-- Node1&#45;&gt;Node2 -->
<g id="edge1_Node000001_Node000002" class="edge">
<title>Node1&#45;&gt;Node2</title>
<g id="a_edge1_Node000001_Node000002"><a xlink:title=" ">
<path fill="none" stroke="#63b8ff" d="M316.86,-112.82C262.51,-103.3 159.41,-85.24 98.15,-74.51"/>
<polygon fill="#63b8ff" stroke="#63b8ff" points="316.05,-116.23 326.51,-114.51 317.26,-109.33 316.05,-116.23"/>
</a>
</g>
</g>
<!-- Node3 -->
<g id="Node000003" class="node">
<title>Node3</title>
<g id="a_Node000003"><a xlink:href="_t_g_r_s_i_mnemonic_8cxx.html" target="_top" xlink:title=" ">
<polygon fill="white" stroke="#666666" points="223.62,-74.5 116.12,-74.5 116.12,-55.25 223.62,-55.25 223.62,-74.5"/>
<text text-anchor="middle" x="169.88" y="-61" font-family="Helvetica,sans-Serif" font-size="10.00">TGRSIMnemonic.cxx</text>
</a>
</g>
</g>
<!-- Node1&#45;&gt;Node3 -->
<g id="edge2_Node000001_Node000003" class="edge">
<title>Node1&#45;&gt;Node3</title>
<g id="a_edge2_Node000001_Node000003"><a xlink:title=" ">
<path fill="none" stroke="#63b8ff" d="M317.44,-108.82C283.73,-99 233.48,-84.38 201.2,-74.99"/>
<polygon fill="#63b8ff" stroke="#63b8ff" points="316.16,-112.09 326.74,-111.52 318.12,-105.37 316.16,-112.09"/>
</a>
</g>
</g>
<!-- Node4 -->
<g id="Node000004" class="node">
<title>Node4</title>
<g id="a_Node000004"><a xlink:href="_t_t_a_c_8cxx.html" target="_top" xlink:title=" ">
<polygon fill="white" stroke="#666666" points="299.88,-74.5 241.88,-74.5 241.88,-55.25 299.88,-55.25 299.88,-74.5"/>
<text text-anchor="middle" x="270.88" y="-61" font-family="Helvetica,sans-Serif" font-size="10.00">TTAC.cxx</text>
</a>
</g>
</g>
<!-- Node1&#45;&gt;Node4 -->
<g id="edge3_Node000001_Node000004" class="edge">
<title>Node1&#45;&gt;Node4</title>
<g id="a_edge3_Node000001_Node000004"><a xlink:title=" ">
<path fill="none" stroke="#63b8ff" d="M329.67,-104.05C315.22,-94.67 297.13,-82.92 284.85,-74.95"/>
<polygon fill="#63b8ff" stroke="#63b8ff" points="327.4,-106.76 337.7,-109.27 331.21,-100.89 327.4,-106.76"/>
</a>
</g>
</g>
<!-- Node5 -->
<g id="Node000005" class="node">
<title>Node5</title>
<g id="a_Node000005"><a xlink:href="_t_t_a_c_hit_8cxx.html" target="_top" xlink:title=" ">
<polygon fill="white" stroke="#666666" points="388.25,-74.5 317.5,-74.5 317.5,-55.25 388.25,-55.25 388.25,-74.5"/>
<text text-anchor="middle" x="352.88" y="-61" font-family="Helvetica,sans-Serif" font-size="10.00">TTACHit.cxx</text>
</a>
</g>
</g>
<!-- Node1&#45;&gt;Node5 -->
<g id="edge4_Node000001_Node000005" class="edge">
<title>Node1&#45;&gt;Node5</title>
<g id="a_edge4_Node000001_Node000005"><a xlink:title=" ">
<path fill="none" stroke="#63b8ff" d="M352.88,-98.88C352.88,-90.59 352.88,-81.42 352.88,-74.86"/>
<polygon fill="#63b8ff" stroke="#63b8ff" points="349.38,-98.82 352.88,-108.82 356.38,-98.82 349.38,-98.82"/>
</a>
</g>
</g>
<!-- Node6 -->
<g id="Node000006" class="node">
<title>Node6</title>
<g id="a_Node000006"><a xlink:href="_tac_offset_helper_8hh.html" target="_top" xlink:title=" ">
<polygon fill="white" stroke="#666666" points="505.88,-74.5 405.88,-74.5 405.88,-55.25 505.88,-55.25 505.88,-74.5"/>
<text text-anchor="middle" x="455.88" y="-61" font-family="Helvetica,sans-Serif" font-size="10.00">TacOffsetHelper.hh</text>
</a>
</g>
</g>
<!-- Node1&#45;&gt;Node6 -->
<g id="edge5_Node000001_Node000006" class="edge">
<title>Node1&#45;&gt;Node6</title>
<g id="a_edge5_Node000001_Node000006"><a xlink:title=" ">
<path fill="none" stroke="#63b8ff" d="M380.47,-104.86C398.85,-95.36 422.46,-83.15 438.32,-74.95"/>
<polygon fill="#63b8ff" stroke="#63b8ff" points="378.97,-101.7 371.69,-109.4 382.18,-107.91 378.97,-101.7"/>
</a>
</g>
</g>
<!-- Node8 -->
<g id="Node000008" class="node">
<title>Node8</title>
<g id="a_Node000008"><a xlink:href="tac__calibrator_8cxx.html" target="_top" xlink:title=" ">
<polygon fill="white" stroke="#666666" points="615.38,-74.5 524.38,-74.5 524.38,-55.25 615.38,-55.25 615.38,-74.5"/>
<text text-anchor="middle" x="569.88" y="-61" font-family="Helvetica,sans-Serif" font-size="10.00">tac_calibrator.cxx</text>
</a>
</g>
</g>
<!-- Node1&#45;&gt;Node8 -->
<g id="edge7_Node000001_Node000008" class="edge">
<title>Node1&#45;&gt;Node8</title>
<g id="a_edge7_Node000001_Node000008"><a xlink:title=" ">
<path fill="none" stroke="#63b8ff" d="M388.83,-110.3C428.71,-100.51 492.74,-84.8 532.99,-74.93"/>
<polygon fill="#63b8ff" stroke="#63b8ff" points="388.12,-106.87 379.24,-112.66 389.78,-113.67 388.12,-106.87"/>
</a>
</g>
</g>
<!-- Node9 -->
<g id="Node000009" class="node">
<title>Node9</title>
<g id="a_Node000009"><a xlink:href="write__cal_8cxx.html" target="_top" xlink:title=" ">
<polygon fill="white" stroke="#666666" points="704.62,-74.5 633.12,-74.5 633.12,-55.25 704.62,-55.25 704.62,-74.5"/>
<text text-anchor="middle" x="668.88" y="-61" font-family="Helvetica,sans-Serif" font-size="10.00">write_cal.cxx</text>
</a>
</g>
</g>
<!-- Node1&#45;&gt;Node9 -->
<g id="edge8_Node000001_Node000009" class="edge">
<title>Node1&#45;&gt;Node9</title>
<g id="a_edge8_Node000001_Node000009"><a xlink:title=" ">
<path fill="none" stroke="#63b8ff" d="M388.97,-113.57C441.12,-105.46 540.55,-89.68 624.88,-74.5 627.48,-74.03 630.17,-73.53 632.87,-73.03"/>
<polygon fill="#63b8ff" stroke="#63b8ff" points="388.51,-110.1 379.17,-115.09 389.59,-117.01 388.51,-110.1"/>
</a>
</g>
</g>
<!-- Node7 -->
<g id="Node000007" class="node">
<title>Node7</title>
<g id="a_Node000007"><a xlink:href="_tac_offset_helper_8cxx.html" target="_top" xlink:title=" ">
<polygon fill="white" stroke="#666666" points="507.75,-19.25 404,-19.25 404,0 507.75,0 507.75,-19.25"/>
<text text-anchor="middle" x="455.88" y="-5.75" font-family="Helvetica,sans-Serif" font-size="10.00">TacOffsetHelper.cxx</text>
</a>
</g>
</g>
<!-- Node6&#45;&gt;Node7 -->
<g id="edge6_Node000006_Node000007" class="edge">
<title>Node6&#45;&gt;Node7</title>
<g id="a_edge6_Node000006_Node000007"><a xlink:title=" ">
<path fill="none" stroke="#63b8ff" d="M455.88,-43.63C455.88,-35.34 455.88,-26.17 455.88,-19.61"/>
<polygon fill="#63b8ff" stroke="#63b8ff" points="452.38,-43.57 455.88,-53.57 459.38,-43.57 452.38,-43.57"/>
</a>
</g>
</g>
</g>
</svg>
