<?xml version="1.0" encoding="UTF-8" standalone="no"?>
<!DOCTYPE svg PUBLIC "-//W3C//DTD SVG 1.1//EN"
 "http://www.w3.org/Graphics/SVG/1.1/DTD/svg11.dtd">
<!-- Generated by graphviz version 12.2.0 (20241103.1931)
 -->
<!-- Title: TTipHit.h Pages: 1 -->
<svg width="1886pt" height="414pt"
 viewBox="0.00 0.00 1885.78 414.00" xmlns="http://www.w3.org/2000/svg" xmlns:xlink="http://www.w3.org/1999/xlink">
<g id="graph0" class="graph" transform="scale(1 1) rotate(0) translate(4 410)">
<title>TTipHit.h</title>
<!-- Node1 -->
<g id="Node000001" class="node">
<title>Node1</title>
<g id="a_Node000001"><a xlink:title=" ">
<polygon fill="#999999" stroke="#666666" points="587.53,-406 531.78,-406 531.78,-386.75 587.53,-386.75 587.53,-406"/>
<text text-anchor="middle" x="559.65" y="-392.5" font-family="Helvetica,sans-Serif" font-size="10.00">TTipHit.h</text>
</a>
</g>
</g>
<!-- Node2 -->
<g id="Node000002" class="node">
<title>Node2</title>
<g id="a_Node000002"><a xlink:title=" ">
<polygon fill="#e0e0e0" stroke="#999999" points="1877.78,-19.25 1835.53,-19.25 1835.53,0 1877.78,0 1877.78,-19.25"/>
<text text-anchor="middle" x="1856.65" y="-5.75" font-family="Helvetica,sans-Serif" font-size="10.00">cstdio</text>
</a>
</g>
</g>
<!-- Node1&#45;&gt;Node2 -->
<g id="edge1_Node000001_Node000002" class="edge">
<title>Node1&#45;&gt;Node2</title>
<g id="a_edge1_Node000001_Node000002"><a xlink:title=" ">
<path fill="none" stroke="#63b8ff" d="M587.93,-394.41C771.66,-387.92 1788.65,-349.23 1788.65,-286.88 1788.65,-286.88 1788.65,-286.88 1788.65,-119.12 1788.65,-81.94 1817.68,-47.03 1837.8,-27.3"/>
<polygon fill="#63b8ff" stroke="#63b8ff" points="1840.03,-30.01 1844.92,-20.61 1835.24,-24.9 1840.03,-30.01"/>
</a>
</g>
</g>
<!-- Node3 -->
<g id="Node000003" class="node">
<title>Node3</title>
<g id="a_Node000003"><a xlink:title=" ">
<polygon fill="#e0e0e0" stroke="#999999" points="504.15,-129.75 461.15,-129.75 461.15,-110.5 504.15,-110.5 504.15,-129.75"/>
<text text-anchor="middle" x="482.65" y="-116.25" font-family="Helvetica,sans-Serif" font-size="10.00">cmath</text>
</a>
</g>
</g>
<!-- Node1&#45;&gt;Node3 -->
<g id="edge2_Node000001_Node000003" class="edge">
<title>Node1&#45;&gt;Node3</title>
<g id="a_edge2_Node000001_Node000003"><a xlink:title=" ">
<path fill="none" stroke="#63b8ff" d="M531.42,-388.91C487.46,-376.97 407.65,-347.02 407.65,-286.88 407.65,-286.88 407.65,-286.88 407.65,-229.62 407.65,-191.35 439.62,-156.81 461.81,-137.44"/>
<polygon fill="#63b8ff" stroke="#63b8ff" points="464.01,-140.16 469.44,-131.07 459.52,-134.79 464.01,-140.16"/>
</a>
</g>
</g>
<!-- Node4 -->
<g id="Node000004" class="node">
<title>Node4</title>
<g id="a_Node000004"><a xlink:title=" ">
<polygon fill="#e0e0e0" stroke="#999999" points="575.28,-185 512.03,-185 512.03,-165.75 575.28,-165.75 575.28,-185"/>
<text text-anchor="middle" x="543.65" y="-171.5" font-family="Helvetica,sans-Serif" font-size="10.00">TVector3.h</text>
</a>
</g>
</g>
<!-- Node1&#45;&gt;Node4 -->
<g id="edge3_Node000001_Node000004" class="edge">
<title>Node1&#45;&gt;Node4</title>
<g id="a_edge3_Node000001_Node000004"><a xlink:title=" ">
<path fill="none" stroke="#63b8ff" d="M559.01,-386.52C556.65,-354.26 548.48,-242.51 545.12,-196.46"/>
<polygon fill="#63b8ff" stroke="#63b8ff" points="548.62,-196.33 544.4,-186.61 541.64,-196.84 548.62,-196.33"/>
</a>
</g>
</g>
<!-- Node5 -->
<g id="Node000005" class="node">
<title>Node5</title>
<g id="a_Node000005"><a xlink:href="_t_fragment_8h.html" target="_top" xlink:title=" ">
<polygon fill="white" stroke="#666666" points="1007.03,-295.5 936.28,-295.5 936.28,-276.25 1007.03,-276.25 1007.03,-295.5"/>
<text text-anchor="middle" x="971.65" y="-282" font-family="Helvetica,sans-Serif" font-size="10.00">TFragment.h</text>
</a>
</g>
</g>
<!-- Node1&#45;&gt;Node5 -->
<g id="edge4_Node000001_Node000005" class="edge">
<title>Node1&#45;&gt;Node5</title>
<g id="a_edge4_Node000001_Node000005"><a xlink:title=" ">
<path fill="none" stroke="#63b8ff" d="M587.76,-394.85C642.45,-393.05 766.34,-385.17 863.65,-350.75 896.3,-339.2 930.05,-317.36 950.94,-302.47"/>
<polygon fill="#63b8ff" stroke="#63b8ff" points="952.86,-305.4 958.88,-296.68 948.74,-299.74 952.86,-305.4"/>
</a>
</g>
</g>
<!-- Node6 -->
<g id="Node000006" class="node">
<title>Node6</title>
<g id="a_Node000006"><a xlink:href="_t_detector_hit_8h.html" target="_top" xlink:title=" ">
<polygon fill="white" stroke="#666666" points="782.15,-240.25 703.15,-240.25 703.15,-221 782.15,-221 782.15,-240.25"/>
<text text-anchor="middle" x="742.65" y="-226.75" font-family="Helvetica,sans-Serif" font-size="10.00">TDetectorHit.h</text>
</a>
</g>
</g>
<!-- Node1&#45;&gt;Node6 -->
<g id="edge73_Node000001_Node000006" class="edge">
<title>Node1&#45;&gt;Node6</title>
<g id="a_edge73_Node000001_Node000006"><a xlink:title=" ">
<path fill="none" stroke="#63b8ff" d="M566.03,-386.43C581.38,-365.34 622.33,-311.61 665.65,-276.25 680.24,-264.34 698.39,-253.66 713.41,-245.73"/>
<polygon fill="#63b8ff" stroke="#63b8ff" points="714.57,-249.07 721.87,-241.4 711.37,-242.84 714.57,-249.07"/>
</a>
</g>
</g>
<!-- Node8 -->
<g id="Node000008" class="node">
<title>Node8</title>
<g id="a_Node000008"><a xlink:href="_t_channel_8h.html" target="_top" xlink:title=" ">
<polygon fill="white" stroke="#666666" points="380.03,-185 315.28,-185 315.28,-165.75 380.03,-165.75 380.03,-185"/>
<text text-anchor="middle" x="347.65" y="-171.5" font-family="Helvetica,sans-Serif" font-size="10.00">TChannel.h</text>
</a>
</g>
</g>
<!-- Node1&#45;&gt;Node8 -->
<g id="edge61_Node000001_Node000008" class="edge">
<title>Node1&#45;&gt;Node8</title>
<g id="a_edge61_Node000001_Node000008"><a xlink:title=" ">
<path fill="none" stroke="#63b8ff" d="M531.38,-395.92C494.54,-395.03 430.49,-387.76 393.65,-350.75 351.75,-308.65 346.69,-233.19 346.88,-196.93"/>
<polygon fill="#63b8ff" stroke="#63b8ff" points="350.38,-197.07 347.09,-186.99 343.38,-196.92 350.38,-197.07"/>
</a>
</g>
</g>
<!-- Node45 -->
<g id="Node000045" class="node">
<title>Node45</title>
<g id="a_Node000045"><a xlink:href="_t_pulse_analyzer_8h.html" target="_top" xlink:title=" ">
<polygon fill="white" stroke="#666666" points="854.15,-350.75 763.15,-350.75 763.15,-331.5 854.15,-331.5 854.15,-350.75"/>
<text text-anchor="middle" x="808.65" y="-337.25" font-family="Helvetica,sans-Serif" font-size="10.00">TPulseAnalyzer.h</text>
</a>
</g>
</g>
<!-- Node1&#45;&gt;Node45 -->
<g id="edge62_Node000001_Node000045" class="edge">
<title>Node1&#45;&gt;Node45</title>
<g id="a_edge62_Node000001_Node000045"><a xlink:title=" ">
<path fill="none" stroke="#63b8ff" d="M587.73,-389.37C628.17,-380.72 703.58,-364.59 754.93,-353.61"/>
<polygon fill="#63b8ff" stroke="#63b8ff" points="755.62,-357.05 764.67,-351.53 754.16,-350.2 755.62,-357.05"/>
</a>
</g>
</g>
<!-- Node5&#45;&gt;Node6 -->
<g id="edge5_Node000005_Node000006" class="edge">
<title>Node5&#45;&gt;Node6</title>
<g id="a_edge5_Node000005_Node000006"><a xlink:title=" ">
<path fill="none" stroke="#63b8ff" d="M935.87,-276.55C897.42,-267.61 836.01,-253.33 792.76,-243.28"/>
<polygon fill="#63b8ff" stroke="#63b8ff" points="793.64,-239.89 783.1,-241.03 792.05,-246.71 793.64,-239.89"/>
</a>
</g>
</g>
<!-- Node7 -->
<g id="Node000007" class="node">
<title>Node7</title>
<g id="a_Node000007"><a xlink:title=" ">
<polygon fill="#e0e0e0" stroke="#999999" points="851.15,-74.5 808.15,-74.5 808.15,-55.25 851.15,-55.25 851.15,-74.5"/>
<text text-anchor="middle" x="829.65" y="-61" font-family="Helvetica,sans-Serif" font-size="10.00">vector</text>
</a>
</g>
</g>
<!-- Node5&#45;&gt;Node7 -->
<g id="edge58_Node000005_Node000007" class="edge">
<title>Node5&#45;&gt;Node7</title>
<g id="a_edge58_Node000005_Node000007"><a xlink:title=" ">
<path fill="none" stroke="#63b8ff" d="M972.94,-275.79C975.44,-254.87 979.08,-202.24 958.65,-165.75 936.13,-125.51 890.08,-96.06 859.54,-79.95"/>
<polygon fill="#63b8ff" stroke="#63b8ff" points="861.29,-76.92 850.79,-75.5 858.12,-83.15 861.29,-76.92"/>
</a>
</g>
</g>
<!-- Node19 -->
<g id="Node000019" class="node">
<title>Node19</title>
<g id="a_Node000019"><a xlink:title=" ">
<polygon fill="#e0e0e0" stroke="#999999" points="949.4,-185 895.9,-185 895.9,-165.75 949.4,-165.75 949.4,-185"/>
<text text-anchor="middle" x="922.65" y="-171.5" font-family="Helvetica,sans-Serif" font-size="10.00">Rtypes.h</text>
</a>
</g>
</g>
<!-- Node5&#45;&gt;Node19 -->
<g id="edge60_Node000005_Node000019" class="edge">
<title>Node5&#45;&gt;Node19</title>
<g id="a_edge60_Node000005_Node000019"><a xlink:title=" ">
<path fill="none" stroke="#63b8ff" d="M967.64,-276C959.75,-258.51 942.02,-219.27 931.33,-195.59"/>
<polygon fill="#63b8ff" stroke="#63b8ff" points="934.65,-194.43 927.34,-186.76 928.27,-197.31 934.65,-194.43"/>
</a>
</g>
</g>
<!-- Node21 -->
<g id="Node000021" class="node">
<title>Node21</title>
<g id="a_Node000021"><a xlink:href="_t_p_p_g_8h.html" target="_top" xlink:title=" ">
<polygon fill="white" stroke="#666666" points="1114.9,-185 1064.4,-185 1064.4,-165.75 1114.9,-165.75 1114.9,-185"/>
<text text-anchor="middle" x="1089.65" y="-171.5" font-family="Helvetica,sans-Serif" font-size="10.00">TPPG.h</text>
</a>
</g>
</g>
<!-- Node5&#45;&gt;Node21 -->
<g id="edge56_Node000005_Node000021" class="edge">
<title>Node5&#45;&gt;Node21</title>
<g id="a_edge56_Node000005_Node000021"><a xlink:title=" ">
<path fill="none" stroke="#63b8ff" d="M1007.4,-282.35C1035.72,-278.25 1073.58,-267.62 1092.65,-240.25 1101.5,-227.56 1099.83,-209.76 1096.46,-196.17"/>
<polygon fill="#63b8ff" stroke="#63b8ff" points="1099.82,-195.17 1093.59,-186.6 1093.11,-197.18 1099.82,-195.17"/>
</a>
</g>
</g>
<!-- Node23 -->
<g id="Node000023" class="node">
<title>Node23</title>
<g id="a_Node000023"><a xlink:title=" ">
<polygon fill="#e0e0e0" stroke="#999999" points="1033.4,-19.25 979.9,-19.25 979.9,0 1033.4,0 1033.4,-19.25"/>
<text text-anchor="middle" x="1006.65" y="-5.75" font-family="Helvetica,sans-Serif" font-size="10.00">iostream</text>
</a>
</g>
</g>
<!-- Node5&#45;&gt;Node23 -->
<g id="edge57_Node000005_Node000023" class="edge">
<title>Node5&#45;&gt;Node23</title>
<g id="a_edge57_Node000005_Node000023"><a xlink:title=" ">
<path fill="none" stroke="#63b8ff" d="M975.96,-275.88C979.98,-267.03 985.78,-253.03 988.65,-240.25 1005.71,-164.37 1007.24,-71.26 1006.99,-30.89"/>
<polygon fill="#63b8ff" stroke="#63b8ff" points="1010.49,-30.99 1006.88,-21.03 1003.49,-31.07 1010.49,-30.99"/>
</a>
</g>
</g>
<!-- Node44 -->
<g id="Node000044" class="node">
<title>Node44</title>
<g id="a_Node000044"><a xlink:title=" ">
<polygon fill="#e0e0e0" stroke="#999999" points="1083.65,-240.25 1043.65,-240.25 1043.65,-221 1083.65,-221 1083.65,-240.25"/>
<text text-anchor="middle" x="1063.65" y="-226.75" font-family="Helvetica,sans-Serif" font-size="10.00">ctime</text>
</a>
</g>
</g>
<!-- Node5&#45;&gt;Node44 -->
<g id="edge59_Node000005_Node000044" class="edge">
<title>Node5&#45;&gt;Node44</title>
<g id="a_edge59_Node000005_Node000044"><a xlink:title=" ">
<path fill="none" stroke="#63b8ff" d="M987.26,-275.84C1001.27,-267.73 1022.09,-255.68 1038.45,-246.21"/>
<polygon fill="#63b8ff" stroke="#63b8ff" points="1039.76,-249.5 1046.66,-241.46 1036.25,-243.44 1039.76,-249.5"/>
</a>
</g>
</g>
<!-- Node6&#45;&gt;Node4 -->
<g id="edge20_Node000006_Node000004" class="edge">
<title>Node6&#45;&gt;Node4</title>
<g id="a_edge20_Node000006_Node000004"><a xlink:title=" ">
<path fill="none" stroke="#63b8ff" d="M708.89,-220.59C675.13,-211.56 623.08,-197.63 586.44,-187.82"/>
<polygon fill="#63b8ff" stroke="#63b8ff" points="587.62,-184.52 577.06,-185.31 585.81,-191.28 587.62,-184.52"/>
</a>
</g>
</g>
<!-- Node6&#45;&gt;Node7 -->
<g id="edge6_Node000006_Node000007" class="edge">
<title>Node6&#45;&gt;Node7</title>
<g id="a_edge6_Node000006_Node000007"><a xlink:title=" ">
<path fill="none" stroke="#63b8ff" d="M749.26,-220.64C755.62,-211.8 765.34,-197.81 772.65,-185 792.11,-150.94 811.02,-109.2 821.42,-85.25"/>
<polygon fill="#63b8ff" stroke="#63b8ff" points="824.6,-86.73 825.33,-76.16 818.17,-83.96 824.6,-86.73"/>
</a>
</g>
</g>
<!-- Node6&#45;&gt;Node8 -->
<g id="edge7_Node000006_Node000008" class="edge">
<title>Node6&#45;&gt;Node8</title>
<g id="a_edge7_Node000006_Node000008"><a xlink:title=" ">
<path fill="none" stroke="#63b8ff" d="M702.97,-224.28C628.63,-214.25 468.92,-192.72 391.51,-182.29"/>
<polygon fill="#63b8ff" stroke="#63b8ff" points="392.14,-178.84 381.76,-180.97 391.2,-185.78 392.14,-178.84"/>
</a>
</g>
</g>
<!-- Node18 -->
<g id="Node000018" class="node">
<title>Node18</title>
<g id="a_Node000018"><a xlink:title=" ">
<polygon fill="#e0e0e0" stroke="#999999" points="1092.65,-74.5 1034.65,-74.5 1034.65,-55.25 1092.65,-55.25 1092.65,-74.5"/>
<text text-anchor="middle" x="1063.65" y="-61" font-family="Helvetica,sans-Serif" font-size="10.00">TObject.h</text>
</a>
</g>
</g>
<!-- Node6&#45;&gt;Node18 -->
<g id="edge21_Node000006_Node000018" class="edge">
<title>Node6&#45;&gt;Node18</title>
<g id="a_edge21_Node000006_Node000018"><a xlink:title=" ">
<path fill="none" stroke="#63b8ff" d="M760.37,-220.59C813.42,-193.52 971.32,-112.97 1035.78,-80.09"/>
<polygon fill="#63b8ff" stroke="#63b8ff" points="1037.33,-83.23 1044.64,-75.57 1034.14,-77 1037.33,-83.23"/>
</a>
</g>
</g>
<!-- Node6&#45;&gt;Node19 -->
<g id="edge22_Node000006_Node000019" class="edge">
<title>Node6&#45;&gt;Node19</title>
<g id="a_edge22_Node000006_Node000019"><a xlink:title=" ">
<path fill="none" stroke="#63b8ff" d="M773.19,-220.59C804.01,-211.47 851.66,-197.38 884.85,-187.56"/>
<polygon fill="#63b8ff" stroke="#63b8ff" points="885.46,-191.03 894.06,-184.83 883.47,-184.32 885.46,-191.03"/>
</a>
</g>
</g>
<!-- Node20 -->
<g id="Node000020" class="node">
<title>Node20</title>
<g id="a_Node000020"><a xlink:title=" ">
<polygon fill="#e0e0e0" stroke="#999999" points="658.4,-185 592.9,-185 592.9,-165.75 658.4,-165.75 658.4,-185"/>
<text text-anchor="middle" x="625.65" y="-171.5" font-family="Helvetica,sans-Serif" font-size="10.00">TRandom.h</text>
</a>
</g>
</g>
<!-- Node6&#45;&gt;Node20 -->
<g id="edge23_Node000006_Node000020" class="edge">
<title>Node6&#45;&gt;Node20</title>
<g id="a_edge23_Node000006_Node000020"><a xlink:title=" ">
<path fill="none" stroke="#63b8ff" d="M722.8,-220.59C704.48,-212.25 677.01,-199.75 655.94,-190.16"/>
<polygon fill="#63b8ff" stroke="#63b8ff" points="657.53,-187.04 646.97,-186.08 654.63,-193.41 657.53,-187.04"/>
</a>
</g>
</g>
<!-- Node6&#45;&gt;Node21 -->
<g id="edge24_Node000006_Node000021" class="edge">
<title>Node6&#45;&gt;Node21</title>
<g id="a_edge24_Node000006_Node000021"><a xlink:title=" ">
<path fill="none" stroke="#63b8ff" d="M782.46,-223.52C850.3,-213.11 987.36,-192.07 1052.99,-182"/>
<polygon fill="#63b8ff" stroke="#63b8ff" points="1053.16,-185.52 1062.52,-180.54 1052.1,-178.6 1053.16,-185.52"/>
</a>
</g>
</g>
<!-- Node42 -->
<g id="Node000042" class="node">
<title>Node42</title>
<g id="a_Node000042"><a xlink:href="_t_transient_bits_8h.html" target="_top" xlink:title=" ">
<polygon fill="white" stroke="#666666" points="763.28,-185 676.03,-185 676.03,-165.75 763.28,-165.75 763.28,-185"/>
<text text-anchor="middle" x="719.65" y="-171.5" font-family="Helvetica,sans-Serif" font-size="10.00">TTransientBits.h</text>
</a>
</g>
</g>
<!-- Node6&#45;&gt;Node42 -->
<g id="edge53_Node000006_Node000042" class="edge">
<title>Node6&#45;&gt;Node42</title>
<g id="a_edge53_Node000006_Node000042"><a xlink:title=" ">
<path fill="none" stroke="#63b8ff" d="M738.85,-220.83C735.91,-214.01 731.72,-204.31 728,-195.7"/>
<polygon fill="#63b8ff" stroke="#63b8ff" points="731.31,-194.54 724.13,-186.75 724.89,-197.32 731.31,-194.54"/>
</a>
</g>
</g>
<!-- Node8&#45;&gt;Node3 -->
<g id="edge9_Node000008_Node000003" class="edge">
<title>Node8&#45;&gt;Node3</title>
<g id="a_edge9_Node000008_Node000003"><a xlink:title=" ">
<path fill="none" stroke="#63b8ff" d="M370.55,-165.34C392.47,-156.7 425.75,-143.57 450.36,-133.86"/>
<polygon fill="#63b8ff" stroke="#63b8ff" points="451.55,-137.15 459.57,-130.23 448.99,-130.64 451.55,-137.15"/>
</a>
</g>
</g>
<!-- Node9 -->
<g id="Node000009" class="node">
<title>Node9</title>
<g id="a_Node000009"><a xlink:title=" ">
<polygon fill="#e0e0e0" stroke="#999999" points="360.65,-19.25 320.65,-19.25 320.65,0 360.65,0 360.65,-19.25"/>
<text text-anchor="middle" x="340.65" y="-5.75" font-family="Helvetica,sans-Serif" font-size="10.00">string</text>
</a>
</g>
</g>
<!-- Node8&#45;&gt;Node9 -->
<g id="edge8_Node000008_Node000009" class="edge">
<title>Node8&#45;&gt;Node9</title>
<g id="a_edge8_Node000008_Node000009"><a xlink:title=" ">
<path fill="none" stroke="#63b8ff" d="M315.01,-175.15C239.13,-176.19 54.37,-174.02 15.65,-129.75 -68.57,-33.45 212.06,-14.93 308.95,-11.43"/>
<polygon fill="#63b8ff" stroke="#63b8ff" points="308.94,-14.93 318.82,-11.11 308.71,-7.93 308.94,-14.93"/>
</a>
</g>
</g>
<!-- Node10 -->
<g id="Node000010" class="node">
<title>Node10</title>
<g id="a_Node000010"><a xlink:title=" ">
<polygon fill="#e0e0e0" stroke="#999999" points="763.9,-129.75 725.4,-129.75 725.4,-110.5 763.9,-110.5 763.9,-129.75"/>
<text text-anchor="middle" x="744.65" y="-116.25" font-family="Helvetica,sans-Serif" font-size="10.00">utility</text>
</a>
</g>
</g>
<!-- Node8&#45;&gt;Node10 -->
<g id="edge10_Node000008_Node000010" class="edge">
<title>Node8&#45;&gt;Node10</title>
<g id="a_edge10_Node000008_Node000010"><a xlink:title=" ">
<path fill="none" stroke="#63b8ff" d="M380.05,-172.41C442.84,-168.18 585.5,-156.55 713.99,-129.97"/>
<polygon fill="#63b8ff" stroke="#63b8ff" points="714.64,-133.41 723.71,-127.92 713.2,-126.56 714.64,-133.41"/>
</a>
</g>
</g>
<!-- Node11 -->
<g id="Node000011" class="node">
<title>Node11</title>
<g id="a_Node000011"><a xlink:title=" ">
<polygon fill="#e0e0e0" stroke="#999999" points="107.03,-129.75 24.28,-129.75 24.28,-110.5 107.03,-110.5 107.03,-129.75"/>
<text text-anchor="middle" x="65.65" y="-116.25" font-family="Helvetica,sans-Serif" font-size="10.00">unordered_map</text>
</a>
</g>
</g>
<!-- Node8&#45;&gt;Node11 -->
<g id="edge11_Node000008_Node000011" class="edge">
<title>Node8&#45;&gt;Node11</title>
<g id="a_edge11_Node000008_Node000011"><a xlink:title=" ">
<path fill="none" stroke="#63b8ff" d="M315.03,-168.21C266.78,-159.1 175.88,-141.94 118.18,-131.04"/>
<polygon fill="#63b8ff" stroke="#63b8ff" points="119.06,-127.65 108.59,-129.23 117.76,-134.53 119.06,-127.65"/>
</a>
</g>
</g>
<!-- Node12 -->
<g id="Node000012" class="node">
<title>Node12</title>
<g id="a_Node000012"><a xlink:title=" ">
<polygon fill="#e0e0e0" stroke="#999999" points="186.15,-129.75 125.15,-129.75 125.15,-110.5 186.15,-110.5 186.15,-129.75"/>
<text text-anchor="middle" x="155.65" y="-116.25" font-family="Helvetica,sans-Serif" font-size="10.00">TNamed.h</text>
</a>
</g>
</g>
<!-- Node8&#45;&gt;Node12 -->
<g id="edge12_Node000008_Node000012" class="edge">
<title>Node8&#45;&gt;Node12</title>
<g id="a_edge12_Node000008_Node000012"><a xlink:title=" ">
<path fill="none" stroke="#63b8ff" d="M315.08,-165.34C282.64,-156.35 232.72,-142.5 197.39,-132.7"/>
<polygon fill="#63b8ff" stroke="#63b8ff" points="198.5,-129.38 187.93,-130.08 196.63,-136.12 198.5,-129.38"/>
</a>
</g>
</g>
<!-- Node13 -->
<g id="Node000013" class="node">
<title>Node13</title>
<g id="a_Node000013"><a xlink:title=" ">
<polygon fill="#e0e0e0" stroke="#999999" points="253.15,-129.75 204.15,-129.75 204.15,-110.5 253.15,-110.5 253.15,-129.75"/>
<text text-anchor="middle" x="228.65" y="-116.25" font-family="Helvetica,sans-Serif" font-size="10.00">TTree.h</text>
</a>
</g>
</g>
<!-- Node8&#45;&gt;Node13 -->
<g id="edge13_Node000008_Node000013" class="edge">
<title>Node8&#45;&gt;Node13</title>
<g id="a_edge13_Node000008_Node000013"><a xlink:title=" ">
<path fill="none" stroke="#63b8ff" d="M327.47,-165.34C308.75,-156.97 280.63,-144.38 259.17,-134.78"/>
<polygon fill="#63b8ff" stroke="#63b8ff" points="260.88,-131.71 250.32,-130.82 258.02,-138.1 260.88,-131.71"/>
</a>
</g>
</g>
<!-- Node14 -->
<g id="Node000014" class="node">
<title>Node14</title>
<g id="a_Node000014"><a xlink:title=" ">
<polygon fill="#e0e0e0" stroke="#999999" points="577.53,-129.75 521.78,-129.75 521.78,-110.5 577.53,-110.5 577.53,-129.75"/>
<text text-anchor="middle" x="549.65" y="-116.25" font-family="Helvetica,sans-Serif" font-size="10.00">TGraph.h</text>
</a>
</g>
</g>
<!-- Node8&#45;&gt;Node14 -->
<g id="edge14_Node000008_Node000014" class="edge">
<title>Node8&#45;&gt;Node14</title>
<g id="a_edge14_Node000008_Node000014"><a xlink:title=" ">
<path fill="none" stroke="#63b8ff" d="M380.11,-165.82C415.58,-156.47 472.42,-141.48 510.38,-131.48"/>
<polygon fill="#63b8ff" stroke="#63b8ff" points="511.27,-134.86 520.05,-128.93 509.49,-128.09 511.27,-134.86"/>
</a>
</g>
</g>
<!-- Node15 -->
<g id="Node000015" class="node">
<title>Node15</title>
<g id="a_Node000015"><a xlink:title=" ">
<polygon fill="#e0e0e0" stroke="#999999" points="443.28,-129.75 374.03,-129.75 374.03,-110.5 443.28,-110.5 443.28,-129.75"/>
<text text-anchor="middle" x="408.65" y="-116.25" font-family="Helvetica,sans-Serif" font-size="10.00">TClassRef.h</text>
</a>
</g>
</g>
<!-- Node8&#45;&gt;Node15 -->
<g id="edge15_Node000008_Node000015" class="edge">
<title>Node8&#45;&gt;Node15</title>
<g id="a_edge15_Node000008_Node000015"><a xlink:title=" ">
<path fill="none" stroke="#63b8ff" d="M358,-165.34C366.73,-157.72 379.44,-146.62 389.95,-137.45"/>
<polygon fill="#63b8ff" stroke="#63b8ff" points="392.09,-140.23 397.32,-131.02 387.48,-134.96 392.09,-140.23"/>
</a>
</g>
</g>
<!-- Node16 -->
<g id="Node000016" class="node">
<title>Node16</title>
<g id="a_Node000016"><a xlink:href="_t_priority_value_8h.html" target="_top" xlink:title=" ">
<polygon fill="white" stroke="#666666" points="355.78,-129.75 271.53,-129.75 271.53,-110.5 355.78,-110.5 355.78,-129.75"/>
<text text-anchor="middle" x="313.65" y="-116.25" font-family="Helvetica,sans-Serif" font-size="10.00">TPriorityValue.h</text>
</a>
</g>
</g>
<!-- Node8&#45;&gt;Node16 -->
<g id="edge16_Node000008_Node000016" class="edge">
<title>Node8&#45;&gt;Node16</title>
<g id="a_edge16_Node000008_Node000016"><a xlink:title=" ">
<path fill="none" stroke="#63b8ff" d="M342.04,-165.58C337.54,-158.53 331.07,-148.4 325.44,-139.58"/>
<polygon fill="#63b8ff" stroke="#63b8ff" points="328.53,-137.93 320.2,-131.38 322.63,-141.7 328.53,-137.93"/>
</a>
</g>
</g>
<!-- Node16&#45;&gt;Node7 -->
<g id="edge19_Node000016_Node000007" class="edge">
<title>Node16&#45;&gt;Node7</title>
<g id="a_edge19_Node000016_Node000007"><a xlink:title=" ">
<path fill="none" stroke="#63b8ff" d="M356.19,-111.7C359.05,-111.27 361.89,-110.87 364.65,-110.5 526.06,-89.13 720.28,-73.84 796.59,-68.23"/>
<polygon fill="#63b8ff" stroke="#63b8ff" points="796.57,-71.74 806.29,-67.52 796.06,-64.76 796.57,-71.74"/>
</a>
</g>
</g>
<!-- Node16&#45;&gt;Node9 -->
<g id="edge18_Node000016_Node000009" class="edge">
<title>Node16&#45;&gt;Node9</title>
<g id="a_edge18_Node000016_Node000009"><a xlink:title=" ">
<path fill="none" stroke="#63b8ff" d="M315.86,-110.25C320.17,-92.92 329.8,-54.23 335.71,-30.49"/>
<polygon fill="#63b8ff" stroke="#63b8ff" points="339.03,-31.64 338.05,-21.1 332.24,-29.95 339.03,-31.64"/>
</a>
</g>
</g>
<!-- Node17 -->
<g id="Node000017" class="node">
<title>Node17</title>
<g id="a_Node000017"><a xlink:title=" ">
<polygon fill="#e0e0e0" stroke="#999999" points="312.28,-74.5 261.03,-74.5 261.03,-55.25 312.28,-55.25 312.28,-74.5"/>
<text text-anchor="middle" x="286.65" y="-61" font-family="Helvetica,sans-Serif" font-size="10.00">ostream</text>
</a>
</g>
</g>
<!-- Node16&#45;&gt;Node17 -->
<g id="edge17_Node000016_Node000017" class="edge">
<title>Node16&#45;&gt;Node17</title>
<g id="a_edge17_Node000016_Node000017"><a xlink:title=" ">
<path fill="none" stroke="#63b8ff" d="M309.19,-110.33C305.7,-103.44 300.7,-93.59 296.3,-84.91"/>
<polygon fill="#63b8ff" stroke="#63b8ff" points="299.54,-83.55 291.89,-76.21 293.29,-86.71 299.54,-83.55"/>
</a>
</g>
</g>
<!-- Node21&#45;&gt;Node10 -->
<g id="edge26_Node000021_Node000010" class="edge">
<title>Node21&#45;&gt;Node10</title>
<g id="a_edge26_Node000021_Node000010"><a xlink:title=" ">
<path fill="none" stroke="#63b8ff" d="M1064,-170.42C1001.69,-160.8 842.52,-136.23 775.33,-125.86"/>
<polygon fill="#63b8ff" stroke="#63b8ff" points="776.17,-122.45 765.75,-124.38 775.1,-129.37 776.17,-122.45"/>
</a>
</g>
</g>
<!-- Node21&#45;&gt;Node18 -->
<g id="edge28_Node000021_Node000018" class="edge">
<title>Node21&#45;&gt;Node18</title>
<g id="a_edge28_Node000021_Node000018"><a xlink:title=" ">
<path fill="none" stroke="#63b8ff" d="M1082.52,-165.45C1076.16,-156.87 1067.3,-143.25 1063.65,-129.75 1059.79,-115.46 1059.96,-98.7 1061,-85.94"/>
<polygon fill="#63b8ff" stroke="#63b8ff" points="1064.45,-86.57 1062.06,-76.25 1057.49,-85.81 1064.45,-86.57"/>
</a>
</g>
</g>
<!-- Node22 -->
<g id="Node000022" class="node">
<title>Node22</title>
<g id="a_Node000022"><a xlink:title=" ">
<polygon fill="#e0e0e0" stroke="#999999" points="1107.03,-129.75 1072.28,-129.75 1072.28,-110.5 1107.03,-110.5 1107.03,-129.75"/>
<text text-anchor="middle" x="1089.65" y="-116.25" font-family="Helvetica,sans-Serif" font-size="10.00">map</text>
</a>
</g>
</g>
<!-- Node21&#45;&gt;Node22 -->
<g id="edge25_Node000021_Node000022" class="edge">
<title>Node21&#45;&gt;Node22</title>
<g id="a_edge25_Node000021_Node000022"><a xlink:title=" ">
<path fill="none" stroke="#63b8ff" d="M1089.65,-165.58C1089.65,-159.07 1089.65,-149.92 1089.65,-141.62"/>
<polygon fill="#63b8ff" stroke="#63b8ff" points="1093.15,-141.62 1089.65,-131.62 1086.15,-141.62 1093.15,-141.62"/>
</a>
</g>
</g>
<!-- Node21&#45;&gt;Node23 -->
<g id="edge27_Node000021_Node000023" class="edge">
<title>Node21&#45;&gt;Node23</title>
<g id="a_edge27_Node000021_Node000023"><a xlink:title=" ">
<path fill="none" stroke="#63b8ff" d="M1082.48,-165.38C1075.55,-156.54 1064.92,-142.53 1056.65,-129.75 1041.36,-106.11 1036.62,-100.43 1025.65,-74.5 1019.57,-60.13 1014.62,-43.17 1011.3,-30.34"/>
<polygon fill="#63b8ff" stroke="#63b8ff" points="1014.79,-29.86 1009,-20.99 1007.99,-31.54 1014.79,-29.86"/>
</a>
</g>
</g>
<!-- Node24 -->
<g id="Node000024" class="node">
<title>Node24</title>
<g id="a_Node000024"><a xlink:title=" ">
<polygon fill="#e0e0e0" stroke="#999999" points="1197.78,-129.75 1125.53,-129.75 1125.53,-110.5 1197.78,-110.5 1197.78,-129.75"/>
<text text-anchor="middle" x="1161.65" y="-116.25" font-family="Helvetica,sans-Serif" font-size="10.00">TCollection.h</text>
</a>
</g>
</g>
<!-- Node21&#45;&gt;Node24 -->
<g id="edge29_Node000021_Node000024" class="edge">
<title>Node21&#45;&gt;Node24</title>
<g id="a_edge29_Node000021_Node000024"><a xlink:title=" ">
<path fill="none" stroke="#63b8ff" d="M1101.87,-165.34C1112.48,-157.49 1128.09,-145.95 1140.7,-136.62"/>
<polygon fill="#63b8ff" stroke="#63b8ff" points="1142.44,-139.69 1148.4,-130.92 1138.28,-134.06 1142.44,-139.69"/>
</a>
</g>
</g>
<!-- Node25 -->
<g id="Node000025" class="node">
<title>Node25</title>
<g id="a_Node000025"><a xlink:href="_globals_8h.html" target="_top" xlink:title=" ">
<polygon fill="white" stroke="#666666" points="1520.9,-74.5 1464.4,-74.5 1464.4,-55.25 1520.9,-55.25 1520.9,-74.5"/>
<text text-anchor="middle" x="1492.65" y="-61" font-family="Helvetica,sans-Serif" font-size="10.00">Globals.h</text>
</a>
</g>
</g>
<!-- Node21&#45;&gt;Node25 -->
<g id="edge30_Node000021_Node000025" class="edge">
<title>Node21&#45;&gt;Node25</title>
<g id="a_edge30_Node000021_Node000025"><a xlink:title=" ">
<path fill="none" stroke="#63b8ff" d="M1115.22,-171.38C1159.93,-165.76 1254.96,-152.15 1332.65,-129.75 1379.7,-116.19 1432,-93.85 1463.6,-79.51"/>
<polygon fill="#63b8ff" stroke="#63b8ff" points="1464.87,-82.78 1472.5,-75.43 1461.95,-76.42 1464.87,-82.78"/>
</a>
</g>
</g>
<!-- Node37 -->
<g id="Node000037" class="node">
<title>Node37</title>
<g id="a_Node000037"><a xlink:href="_t_singleton_8h.html" target="_top" xlink:title=" ">
<polygon fill="white" stroke="#666666" points="1323.65,-129.75 1253.65,-129.75 1253.65,-110.5 1323.65,-110.5 1323.65,-129.75"/>
<text text-anchor="middle" x="1288.65" y="-116.25" font-family="Helvetica,sans-Serif" font-size="10.00">TSingleton.h</text>
</a>
</g>
</g>
<!-- Node21&#45;&gt;Node37 -->
<g id="edge45_Node000021_Node000037" class="edge">
<title>Node21&#45;&gt;Node37</title>
<g id="a_edge45_Node000021_Node000037"><a xlink:title=" ">
<path fill="none" stroke="#63b8ff" d="M1115.26,-167.52C1147.72,-158.84 1204.21,-143.72 1243.87,-133.11"/>
<polygon fill="#63b8ff" stroke="#63b8ff" points="1244.61,-136.53 1253.37,-130.57 1242.8,-129.77 1244.61,-136.53"/>
</a>
</g>
</g>
<!-- Node25&#45;&gt;Node2 -->
<g id="edge35_Node000025_Node000002" class="edge">
<title>Node25&#45;&gt;Node2</title>
<g id="a_edge35_Node000025_Node000002"><a xlink:title=" ">
<path fill="none" stroke="#63b8ff" d="M1521.04,-61.5C1577.2,-56.51 1706.56,-43.51 1824.14,-19.51"/>
<polygon fill="#63b8ff" stroke="#63b8ff" points="1824.56,-23 1833.64,-17.53 1823.13,-16.14 1824.56,-23"/>
</a>
</g>
</g>
<!-- Node25&#45;&gt;Node9 -->
<g id="edge34_Node000025_Node000009" class="edge">
<title>Node25&#45;&gt;Node9</title>
<g id="a_edge34_Node000025_Node000009"><a xlink:title=" ">
<path fill="none" stroke="#63b8ff" d="M1464.07,-56.65C1461.24,-56.1 1458.4,-55.62 1455.65,-55.25 1237.91,-25.78 530.59,-13.5 372.28,-11.08"/>
<polygon fill="#63b8ff" stroke="#63b8ff" points="372.61,-7.59 362.56,-10.94 372.5,-14.59 372.61,-7.59"/>
</a>
</g>
</g>
<!-- Node25&#45;&gt;Node23 -->
<g id="edge31_Node000025_Node000023" class="edge">
<title>Node25&#45;&gt;Node23</title>
<g id="a_edge31_Node000025_Node000023"><a xlink:title=" ">
<path fill="none" stroke="#63b8ff" d="M1464.05,-56.79C1461.22,-56.22 1458.39,-55.69 1455.65,-55.25 1280.3,-27.02 1233.79,-42.08 1057.65,-19.25 1053.54,-18.72 1049.24,-18.09 1044.97,-17.43"/>
<polygon fill="#63b8ff" stroke="#63b8ff" points="1045.78,-14.02 1035.35,-15.87 1044.66,-20.93 1045.78,-14.02"/>
</a>
</g>
</g>
<!-- Node26 -->
<g id="Node000026" class="node">
<title>Node26</title>
<g id="a_Node000026"><a xlink:title=" ">
<polygon fill="#e0e0e0" stroke="#999999" points="1741.53,-19.25 1691.78,-19.25 1691.78,0 1741.53,0 1741.53,-19.25"/>
<text text-anchor="middle" x="1716.65" y="-5.75" font-family="Helvetica,sans-Serif" font-size="10.00">iomanip</text>
</a>
</g>
</g>
<!-- Node25&#45;&gt;Node26 -->
<g id="edge32_Node000025_Node000026" class="edge">
<title>Node25&#45;&gt;Node26</title>
<g id="a_edge32_Node000025_Node000026"><a xlink:title=" ">
<path fill="none" stroke="#63b8ff" d="M1521.34,-57.3C1556.54,-49.21 1618.31,-34.88 1680.6,-19.72"/>
<polygon fill="#63b8ff" stroke="#63b8ff" points="1681.06,-23.21 1689.94,-17.44 1679.4,-16.41 1681.06,-23.21"/>
</a>
</g>
</g>
<!-- Node27 -->
<g id="Node000027" class="node">
<title>Node27</title>
<g id="a_Node000027"><a xlink:title=" ">
<polygon fill="#e0e0e0" stroke="#999999" points="1817.65,-19.25 1759.65,-19.25 1759.65,0 1817.65,0 1817.65,-19.25"/>
<text text-anchor="middle" x="1788.65" y="-5.75" font-family="Helvetica,sans-Serif" font-size="10.00">stdexcept</text>
</a>
</g>
</g>
<!-- Node25&#45;&gt;Node27 -->
<g id="edge33_Node000025_Node000027" class="edge">
<title>Node25&#45;&gt;Node27</title>
<g id="a_edge33_Node000025_Node000027"><a xlink:title=" ">
<path fill="none" stroke="#63b8ff" d="M1521.38,-59.41C1567.16,-52.18 1659.74,-37.12 1747.94,-19.71"/>
<polygon fill="#63b8ff" stroke="#63b8ff" points="1748.62,-23.14 1757.74,-17.76 1747.25,-16.28 1748.62,-23.14"/>
</a>
</g>
</g>
<!-- Node28 -->
<g id="Node000028" class="node">
<title>Node28</title>
<g id="a_Node000028"><a xlink:title=" ">
<polygon fill="#e0e0e0" stroke="#999999" points="1110.9,-19.25 1066.4,-19.25 1066.4,0 1110.9,0 1110.9,-19.25"/>
<text text-anchor="middle" x="1088.65" y="-5.75" font-family="Helvetica,sans-Serif" font-size="10.00">cstdlib</text>
</a>
</g>
</g>
<!-- Node25&#45;&gt;Node28 -->
<g id="edge36_Node000025_Node000028" class="edge">
<title>Node25&#45;&gt;Node28</title>
<g id="a_edge36_Node000025_Node000028"><a xlink:title=" ">
<path fill="none" stroke="#63b8ff" d="M1464.04,-56.84C1461.21,-56.26 1458.38,-55.71 1455.65,-55.25 1311.19,-30.77 1269.2,-46.65 1122.45,-19.49"/>
<polygon fill="#63b8ff" stroke="#63b8ff" points="1123.2,-16.07 1112.72,-17.65 1121.9,-22.95 1123.2,-16.07"/>
</a>
</g>
</g>
<!-- Node29 -->
<g id="Node000029" class="node">
<title>Node29</title>
<g id="a_Node000029"><a xlink:title=" ">
<polygon fill="#e0e0e0" stroke="#999999" points="1188.4,-19.25 1128.9,-19.25 1128.9,0 1188.4,0 1188.4,-19.25"/>
<text text-anchor="middle" x="1158.65" y="-5.75" font-family="Helvetica,sans-Serif" font-size="10.00">execinfo.h</text>
</a>
</g>
</g>
<!-- Node25&#45;&gt;Node29 -->
<g id="edge37_Node000025_Node000029" class="edge">
<title>Node25&#45;&gt;Node29</title>
<g id="a_edge37_Node000025_Node000029"><a xlink:title=" ">
<path fill="none" stroke="#63b8ff" d="M1464.02,-56.93C1461.2,-56.33 1458.38,-55.76 1455.65,-55.25 1345.38,-34.75 1313.57,-39.44 1200.08,-19.55"/>
<polygon fill="#63b8ff" stroke="#63b8ff" points="1200.79,-16.12 1190.33,-17.81 1199.56,-23.01 1200.79,-16.12"/>
</a>
</g>
</g>
<!-- Node30 -->
<g id="Node000030" class="node">
<title>Node30</title>
<g id="a_Node000030"><a xlink:title=" ">
<polygon fill="#e0e0e0" stroke="#999999" points="1256.9,-19.25 1206.4,-19.25 1206.4,0 1256.9,0 1256.9,-19.25"/>
<text text-anchor="middle" x="1231.65" y="-5.75" font-family="Helvetica,sans-Serif" font-size="10.00">cxxabi.h</text>
</a>
</g>
</g>
<!-- Node25&#45;&gt;Node30 -->
<g id="edge38_Node000025_Node000030" class="edge">
<title>Node25&#45;&gt;Node30</title>
<g id="a_edge38_Node000025_Node000030"><a xlink:title=" ">
<path fill="none" stroke="#63b8ff" d="M1464,-57.07C1461.18,-56.44 1458.36,-55.82 1455.65,-55.25 1375.01,-38.22 1351.48,-37.83 1268.25,-19.72"/>
<polygon fill="#63b8ff" stroke="#63b8ff" points="1269.23,-16.35 1258.71,-17.62 1267.72,-23.18 1269.23,-16.35"/>
</a>
</g>
</g>
<!-- Node31 -->
<g id="Node000031" class="node">
<title>Node31</title>
<g id="a_Node000031"><a xlink:title=" ">
<polygon fill="#e0e0e0" stroke="#999999" points="1326.28,-19.25 1275.03,-19.25 1275.03,0 1326.28,0 1326.28,-19.25"/>
<text text-anchor="middle" x="1300.65" y="-5.75" font-family="Helvetica,sans-Serif" font-size="10.00">sstream</text>
</a>
</g>
</g>
<!-- Node25&#45;&gt;Node31 -->
<g id="edge39_Node000025_Node000031" class="edge">
<title>Node25&#45;&gt;Node31</title>
<g id="a_edge39_Node000025_Node000031"><a xlink:title=" ">
<path fill="none" stroke="#63b8ff" d="M1463.91,-55.9C1430.16,-46.54 1374.12,-31 1337.28,-20.78"/>
<polygon fill="#63b8ff" stroke="#63b8ff" points="1338.54,-17.5 1327.97,-18.2 1336.67,-24.25 1338.54,-17.5"/>
</a>
</g>
</g>
<!-- Node32 -->
<g id="Node000032" class="node">
<title>Node32</title>
<g id="a_Node000032"><a xlink:title=" ">
<polygon fill="#e0e0e0" stroke="#999999" points="1381.15,-19.25 1344.15,-19.25 1344.15,0 1381.15,0 1381.15,-19.25"/>
<text text-anchor="middle" x="1362.65" y="-5.75" font-family="Helvetica,sans-Serif" font-size="10.00">array</text>
</a>
</g>
</g>
<!-- Node25&#45;&gt;Node32 -->
<g id="edge40_Node000025_Node000032" class="edge">
<title>Node25&#45;&gt;Node32</title>
<g id="a_edge40_Node000025_Node000032"><a xlink:title=" ">
<path fill="none" stroke="#63b8ff" d="M1470.6,-54.84C1448.96,-45.98 1415.83,-32.41 1391.98,-22.64"/>
<polygon fill="#63b8ff" stroke="#63b8ff" points="1393.41,-19.44 1382.83,-18.89 1390.76,-25.92 1393.41,-19.44"/>
</a>
</g>
</g>
<!-- Node33 -->
<g id="Node000033" class="node">
<title>Node33</title>
<g id="a_Node000033"><a xlink:title=" ">
<polygon fill="#e0e0e0" stroke="#999999" points="1449.9,-19.25 1399.4,-19.25 1399.4,0 1449.9,0 1449.9,-19.25"/>
<text text-anchor="middle" x="1424.65" y="-5.75" font-family="Helvetica,sans-Serif" font-size="10.00">memory</text>
</a>
</g>
</g>
<!-- Node25&#45;&gt;Node33 -->
<g id="edge41_Node000025_Node000033" class="edge">
<title>Node25&#45;&gt;Node33</title>
<g id="a_edge41_Node000025_Node000033"><a xlink:title=" ">
<path fill="none" stroke="#63b8ff" d="M1481.12,-54.84C1471.19,-47.07 1456.64,-35.67 1444.8,-26.4"/>
<polygon fill="#63b8ff" stroke="#63b8ff" points="1447.24,-23.87 1437.21,-20.46 1442.92,-29.38 1447.24,-23.87"/>
</a>
</g>
</g>
<!-- Node34 -->
<g id="Node000034" class="node">
<title>Node34</title>
<g id="a_Node000034"><a xlink:title=" ">
<polygon fill="#e0e0e0" stroke="#999999" points="1517.53,-19.25 1467.78,-19.25 1467.78,0 1517.53,0 1517.53,-19.25"/>
<text text-anchor="middle" x="1492.65" y="-5.75" font-family="Helvetica,sans-Serif" font-size="10.00">unistd.h</text>
</a>
</g>
</g>
<!-- Node25&#45;&gt;Node34 -->
<g id="edge42_Node000025_Node000034" class="edge">
<title>Node25&#45;&gt;Node34</title>
<g id="a_edge42_Node000025_Node000034"><a xlink:title=" ">
<path fill="none" stroke="#63b8ff" d="M1492.65,-55.08C1492.65,-48.57 1492.65,-39.42 1492.65,-31.12"/>
<polygon fill="#63b8ff" stroke="#63b8ff" points="1496.15,-31.12 1492.65,-21.12 1489.15,-31.12 1496.15,-31.12"/>
</a>
</g>
</g>
<!-- Node35 -->
<g id="Node000035" class="node">
<title>Node35</title>
<g id="a_Node000035"><a xlink:title=" ">
<polygon fill="#e0e0e0" stroke="#999999" points="1595.4,-19.25 1535.9,-19.25 1535.9,0 1595.4,0 1595.4,-19.25"/>
<text text-anchor="middle" x="1565.65" y="-5.75" font-family="Helvetica,sans-Serif" font-size="10.00">sys/wait.h</text>
</a>
</g>
</g>
<!-- Node25&#45;&gt;Node35 -->
<g id="edge43_Node000025_Node000035" class="edge">
<title>Node25&#45;&gt;Node35</title>
<g id="a_edge43_Node000025_Node000035"><a xlink:title=" ">
<path fill="none" stroke="#63b8ff" d="M1505.04,-54.84C1515.8,-46.99 1531.62,-35.45 1544.4,-26.12"/>
<polygon fill="#63b8ff" stroke="#63b8ff" points="1546.21,-29.14 1552.23,-20.42 1542.09,-23.48 1546.21,-29.14"/>
</a>
</g>
</g>
<!-- Node36 -->
<g id="Node000036" class="node">
<title>Node36</title>
<g id="a_Node000036"><a xlink:title=" ">
<polygon fill="#e0e0e0" stroke="#999999" points="1673.78,-19.25 1613.53,-19.25 1613.53,0 1673.78,0 1673.78,-19.25"/>
<text text-anchor="middle" x="1643.65" y="-5.75" font-family="Helvetica,sans-Serif" font-size="10.00">sys/prctl.h</text>
</a>
</g>
</g>
<!-- Node25&#45;&gt;Node36 -->
<g id="edge44_Node000025_Node000036" class="edge">
<title>Node25&#45;&gt;Node36</title>
<g id="a_edge44_Node000025_Node000036"><a xlink:title=" ">
<path fill="none" stroke="#63b8ff" d="M1518.27,-54.84C1542.67,-46.24 1579.66,-33.19 1607.15,-23.5"/>
<polygon fill="#63b8ff" stroke="#63b8ff" points="1608.22,-26.83 1616.48,-20.21 1605.89,-20.23 1608.22,-26.83"/>
</a>
</g>
</g>
<!-- Node37&#45;&gt;Node18 -->
<g id="edge47_Node000037_Node000018" class="edge">
<title>Node37&#45;&gt;Node18</title>
<g id="a_edge47_Node000037_Node000018"><a xlink:title=" ">
<path fill="none" stroke="#63b8ff" d="M1253.5,-110.8C1212.96,-101.21 1146.47,-85.48 1103.9,-75.4"/>
<polygon fill="#63b8ff" stroke="#63b8ff" points="1104.85,-72.03 1094.31,-73.13 1103.23,-78.84 1104.85,-72.03"/>
</a>
</g>
</g>
<!-- Node37&#45;&gt;Node23 -->
<g id="edge46_Node000037_Node000023" class="edge">
<title>Node37&#45;&gt;Node23</title>
<g id="a_edge46_Node000037_Node000023"><a xlink:title=" ">
<path fill="none" stroke="#63b8ff" d="M1265.09,-110.06C1215.23,-90.87 1098.83,-46.09 1040.8,-23.76"/>
<polygon fill="#63b8ff" stroke="#63b8ff" points="1042.34,-20.61 1031.75,-20.28 1039.83,-27.14 1042.34,-20.61"/>
</a>
</g>
</g>
<!-- Node37&#45;&gt;Node25 -->
<g id="edge52_Node000037_Node000025" class="edge">
<title>Node37&#45;&gt;Node25</title>
<g id="a_edge52_Node000037_Node000025"><a xlink:title=" ">
<path fill="none" stroke="#63b8ff" d="M1323.26,-110.09C1359.21,-100.71 1415.39,-86.04 1453.08,-76.2"/>
<polygon fill="#63b8ff" stroke="#63b8ff" points="1453.88,-79.61 1462.68,-73.7 1452.12,-72.84 1453.88,-79.61"/>
</a>
</g>
</g>
<!-- Node38 -->
<g id="Node000038" class="node">
<title>Node38</title>
<g id="a_Node000038"><a xlink:title=" ">
<polygon fill="#e0e0e0" stroke="#999999" points="1382.53,-74.5 1314.78,-74.5 1314.78,-55.25 1382.53,-55.25 1382.53,-74.5"/>
<text text-anchor="middle" x="1348.65" y="-61" font-family="Helvetica,sans-Serif" font-size="10.00">TDirectory.h</text>
</a>
</g>
</g>
<!-- Node37&#45;&gt;Node38 -->
<g id="edge48_Node000037_Node000038" class="edge">
<title>Node37&#45;&gt;Node38</title>
<g id="a_edge48_Node000037_Node000038"><a xlink:title=" ">
<path fill="none" stroke="#63b8ff" d="M1298.83,-110.09C1307.42,-102.47 1319.92,-91.37 1330.26,-82.2"/>
<polygon fill="#63b8ff" stroke="#63b8ff" points="1332.34,-85.04 1337.49,-75.78 1327.69,-79.8 1332.34,-85.04"/>
</a>
</g>
</g>
<!-- Node39 -->
<g id="Node000039" class="node">
<title>Node39</title>
<g id="a_Node000039"><a xlink:title=" ">
<polygon fill="#e0e0e0" stroke="#999999" points="1446.28,-74.5 1401.03,-74.5 1401.03,-55.25 1446.28,-55.25 1446.28,-74.5"/>
<text text-anchor="middle" x="1423.65" y="-61" font-family="Helvetica,sans-Serif" font-size="10.00">TFile.h</text>
</a>
</g>
</g>
<!-- Node37&#45;&gt;Node39 -->
<g id="edge49_Node000037_Node000039" class="edge">
<title>Node37&#45;&gt;Node39</title>
<g id="a_edge49_Node000037_Node000039"><a xlink:title=" ">
<path fill="none" stroke="#63b8ff" d="M1311.55,-110.09C1333.08,-101.6 1365.56,-88.79 1390.03,-79.14"/>
<polygon fill="#63b8ff" stroke="#63b8ff" points="1391.21,-82.43 1399.23,-75.51 1388.64,-75.92 1391.21,-82.43"/>
</a>
</g>
</g>
<!-- Node40 -->
<g id="Node000040" class="node">
<title>Node40</title>
<g id="a_Node000040"><a xlink:title=" ">
<polygon fill="#e0e0e0" stroke="#999999" points="1232.65,-74.5 1186.65,-74.5 1186.65,-55.25 1232.65,-55.25 1232.65,-74.5"/>
<text text-anchor="middle" x="1209.65" y="-61" font-family="Helvetica,sans-Serif" font-size="10.00">TList.h</text>
</a>
</g>
</g>
<!-- Node37&#45;&gt;Node40 -->
<g id="edge50_Node000037_Node000040" class="edge">
<title>Node37&#45;&gt;Node40</title>
<g id="a_edge50_Node000037_Node000040"><a xlink:title=" ">
<path fill="none" stroke="#63b8ff" d="M1275.25,-110.09C1263.56,-102.21 1246.35,-90.61 1232.49,-81.27"/>
<polygon fill="#63b8ff" stroke="#63b8ff" points="1234.62,-78.49 1224.37,-75.8 1230.71,-84.29 1234.62,-78.49"/>
</a>
</g>
</g>
<!-- Node41 -->
<g id="Node000041" class="node">
<title>Node41</title>
<g id="a_Node000041"><a xlink:title=" ">
<polygon fill="#e0e0e0" stroke="#999999" points="1296.65,-74.5 1250.65,-74.5 1250.65,-55.25 1296.65,-55.25 1296.65,-74.5"/>
<text text-anchor="middle" x="1273.65" y="-61" font-family="Helvetica,sans-Serif" font-size="10.00">TKey.h</text>
</a>
</g>
</g>
<!-- Node37&#45;&gt;Node41 -->
<g id="edge51_Node000037_Node000041" class="edge">
<title>Node37&#45;&gt;Node41</title>
<g id="a_edge51_Node000037_Node000041"><a xlink:title=" ">
<path fill="none" stroke="#63b8ff" d="M1286.18,-110.33C1284.3,-103.67 1281.64,-94.24 1279.26,-85.78"/>
<polygon fill="#63b8ff" stroke="#63b8ff" points="1282.67,-84.99 1276.59,-76.32 1275.94,-86.89 1282.67,-84.99"/>
</a>
</g>
</g>
<!-- Node42&#45;&gt;Node23 -->
<g id="edge54_Node000042_Node000023" class="edge">
<title>Node42&#45;&gt;Node23</title>
<g id="a_edge54_Node000042_Node000023"><a xlink:title=" ">
<path fill="none" stroke="#63b8ff" d="M682.62,-165.27C648.45,-155.03 605.68,-136.39 624.65,-110.5 665.57,-54.67 879.69,-24.77 968.25,-14.63"/>
<polygon fill="#63b8ff" stroke="#63b8ff" points="968.59,-18.12 978.13,-13.53 967.81,-11.16 968.59,-18.12"/>
</a>
</g>
</g>
<!-- Node43 -->
<g id="Node000043" class="node">
<title>Node43</title>
<g id="a_Node000043"><a xlink:title=" ">
<polygon fill="#e0e0e0" stroke="#999999" points="707.53,-129.75 633.78,-129.75 633.78,-110.5 707.53,-110.5 707.53,-129.75"/>
<text text-anchor="middle" x="670.65" y="-116.25" font-family="Helvetica,sans-Serif" font-size="10.00">RtypesCore.h</text>
</a>
</g>
</g>
<!-- Node42&#45;&gt;Node43 -->
<g id="edge55_Node000042_Node000043" class="edge">
<title>Node42&#45;&gt;Node43</title>
<g id="a_edge55_Node000042_Node000043"><a xlink:title=" ">
<path fill="none" stroke="#63b8ff" d="M711.56,-165.58C704.79,-158.23 694.93,-147.51 686.59,-138.44"/>
<polygon fill="#63b8ff" stroke="#63b8ff" points="689.29,-136.21 679.94,-131.22 684.14,-140.95 689.29,-136.21"/>
</a>
</g>
</g>
<!-- Node45&#45;&gt;Node2 -->
<g id="edge66_Node000045_Node000002" class="edge">
<title>Node45&#45;&gt;Node2</title>
<g id="a_edge66_Node000045_Node000002"><a xlink:title=" ">
<path fill="none" stroke="#63b8ff" d="M854.46,-339.31C1034.5,-335.52 1683.65,-316.01 1683.65,-231.62 1683.65,-231.62 1683.65,-231.62 1683.65,-119.12 1683.65,-86.25 1774.46,-44.06 1824.5,-23.31"/>
<polygon fill="#63b8ff" stroke="#63b8ff" points="1825.76,-26.57 1833.69,-19.55 1823.11,-20.09 1825.76,-26.57"/>
</a>
</g>
</g>
<!-- Node45&#45;&gt;Node3 -->
<g id="edge68_Node000045_Node000003" class="edge">
<title>Node45&#45;&gt;Node3</title>
<g id="a_edge68_Node000045_Node000003"><a xlink:title=" ">
<path fill="none" stroke="#63b8ff" d="M762.97,-336.43C718.75,-331.51 650.64,-320.33 596.65,-295.5 536.2,-267.7 517.97,-247.68 495.65,-185 490.58,-170.77 487.27,-154.01 485.25,-141.23"/>
<polygon fill="#63b8ff" stroke="#63b8ff" points="488.74,-140.92 483.87,-131.51 481.81,-141.91 488.74,-140.92"/>
</a>
</g>
</g>
<!-- Node45&#45;&gt;Node5 -->
<g id="edge63_Node000045_Node000005" class="edge">
<title>Node45&#45;&gt;Node5</title>
<g id="a_edge63_Node000045_Node000005"><a xlink:title=" ">
<path fill="none" stroke="#63b8ff" d="M836.3,-331.09C862.88,-322.41 903.29,-309.21 933.04,-299.49"/>
<polygon fill="#63b8ff" stroke="#63b8ff" points="934.01,-302.85 942.43,-296.42 931.83,-296.2 934.01,-302.85"/>
</a>
</g>
</g>
<!-- Node45&#45;&gt;Node7 -->
<g id="edge64_Node000045_Node000007" class="edge">
<title>Node45&#45;&gt;Node7</title>
<g id="a_edge64_Node000045_Node000007"><a xlink:title=" ">
<path fill="none" stroke="#63b8ff" d="M809.35,-331C812.32,-292.28 823.9,-141.04 828.11,-86.03"/>
<polygon fill="#63b8ff" stroke="#63b8ff" points="831.58,-86.5 828.86,-76.27 824.6,-85.97 831.58,-86.5"/>
</a>
</g>
</g>
<!-- Node45&#45;&gt;Node14 -->
<g id="edge72_Node000045_Node000014" class="edge">
<title>Node45&#45;&gt;Node14</title>
<g id="a_edge72_Node000045_Node000014"><a xlink:title=" ">
<path fill="none" stroke="#63b8ff" d="M762.72,-333.36C690.72,-319.91 554.2,-282.22 502.65,-185 493.27,-167.31 509.72,-149.1 525.68,-136.67"/>
<polygon fill="#63b8ff" stroke="#63b8ff" points="527.54,-139.65 533.59,-130.96 523.44,-133.98 527.54,-139.65"/>
</a>
</g>
</g>
<!-- Node45&#45;&gt;Node19 -->
<g id="edge69_Node000045_Node000019" class="edge">
<title>Node45&#45;&gt;Node19</title>
<g id="a_edge69_Node000045_Node000019"><a xlink:title=" ">
<path fill="none" stroke="#63b8ff" d="M834.17,-331.05C851.02,-323.83 872.36,-312.17 885.65,-295.5 908.99,-266.25 917.68,-222.21 920.86,-196.67"/>
<polygon fill="#63b8ff" stroke="#63b8ff" points="924.32,-197.29 921.89,-186.98 917.36,-196.56 924.32,-197.29"/>
</a>
</g>
</g>
<!-- Node45&#45;&gt;Node28 -->
<g id="edge65_Node000045_Node000028" class="edge">
<title>Node45&#45;&gt;Node28</title>
<g id="a_edge65_Node000045_Node000028"><a xlink:title=" ">
<path fill="none" stroke="#63b8ff" d="M854.47,-337.89C962.8,-331.35 1225.65,-307.65 1225.65,-231.62 1225.65,-231.62 1225.65,-231.62 1225.65,-174.38 1225.65,-144.76 1222.85,-135.29 1206.65,-110.5 1182.44,-73.44 1140.45,-42.68 1113.63,-25.48"/>
<polygon fill="#63b8ff" stroke="#63b8ff" points="1115.79,-22.7 1105.45,-20.37 1112.08,-28.64 1115.79,-22.7"/>
</a>
</g>
</g>
<!-- Node46 -->
<g id="Node000046" class="node">
<title>Node46</title>
<g id="a_Node000046"><a xlink:title=" ">
<polygon fill="#e0e0e0" stroke="#999999" points="720.28,-295.5 675.03,-295.5 675.03,-276.25 720.28,-276.25 720.28,-295.5"/>
<text text-anchor="middle" x="697.65" y="-282" font-family="Helvetica,sans-Serif" font-size="10.00">cstring</text>
</a>
</g>
</g>
<!-- Node45&#45;&gt;Node46 -->
<g id="edge67_Node000045_Node000046" class="edge">
<title>Node45&#45;&gt;Node46</title>
<g id="a_edge67_Node000045_Node000046"><a xlink:title=" ">
<path fill="none" stroke="#63b8ff" d="M789.82,-331.09C772.6,-322.83 746.85,-310.48 726.94,-300.93"/>
<polygon fill="#63b8ff" stroke="#63b8ff" points="728.47,-297.78 717.94,-296.61 725.44,-304.09 728.47,-297.78"/>
</a>
</g>
</g>
<!-- Node47 -->
<g id="Node000047" class="node">
<title>Node47</title>
<g id="a_Node000047"><a xlink:title=" ">
<polygon fill="#e0e0e0" stroke="#999999" points="780.78,-295.5 738.53,-295.5 738.53,-276.25 780.78,-276.25 780.78,-295.5"/>
<text text-anchor="middle" x="759.65" y="-282" font-family="Helvetica,sans-Serif" font-size="10.00">TH1.h</text>
</a>
</g>
</g>
<!-- Node45&#45;&gt;Node47 -->
<g id="edge70_Node000045_Node000047" class="edge">
<title>Node45&#45;&gt;Node47</title>
<g id="a_edge70_Node000045_Node000047"><a xlink:title=" ">
<path fill="none" stroke="#63b8ff" d="M800.56,-331.33C793.79,-323.98 783.93,-313.26 775.59,-304.19"/>
<polygon fill="#63b8ff" stroke="#63b8ff" points="778.29,-301.96 768.94,-296.97 773.14,-306.7 778.29,-301.96"/>
</a>
</g>
</g>
<!-- Node48 -->
<g id="Node000048" class="node">
<title>Node48</title>
<g id="a_Node000048"><a xlink:title=" ">
<polygon fill="#e0e0e0" stroke="#999999" points="877.03,-295.5 836.28,-295.5 836.28,-276.25 877.03,-276.25 877.03,-295.5"/>
<text text-anchor="middle" x="856.65" y="-282" font-family="Helvetica,sans-Serif" font-size="10.00">TF1.h</text>
</a>
</g>
</g>
<!-- Node45&#45;&gt;Node48 -->
<g id="edge71_Node000045_Node000048" class="edge">
<title>Node45&#45;&gt;Node48</title>
<g id="a_edge71_Node000045_Node000048"><a xlink:title=" ">
<path fill="none" stroke="#63b8ff" d="M816.58,-331.33C823.21,-323.98 832.87,-313.26 841.04,-304.19"/>
<polygon fill="#63b8ff" stroke="#63b8ff" points="843.44,-306.75 847.54,-296.98 838.25,-302.07 843.44,-306.75"/>
</a>
</g>
</g>
</g>
</svg>
