<?xml version="1.0" encoding="UTF-8" standalone="no"?>
<!DOCTYPE svg PUBLIC "-//W3C//DTD SVG 1.1//EN"
 "http://www.w3.org/Graphics/SVG/1.1/DTD/svg11.dtd">
<!-- Generated by graphviz version 12.2.0 (20241103.1931)
 -->
<!-- Title: TTerminalLoop.h Pages: 1 -->
<svg width="776pt" height="138pt"
 viewBox="0.00 0.00 776.12 137.75" xmlns="http://www.w3.org/2000/svg" xmlns:xlink="http://www.w3.org/1999/xlink">
<g id="graph0" class="graph" transform="scale(1 1) rotate(0) translate(4 133.75)">
<title>TTerminalLoop.h</title>
<!-- Node1 -->
<g id="Node000001" class="node">
<title>Node1</title>
<g id="a_Node000001"><a xlink:title=" ">
<polygon fill="#999999" stroke="#666666" points="397,-129.75 308.25,-129.75 308.25,-110.5 397,-110.5 397,-129.75"/>
<text text-anchor="middle" x="352.62" y="-116.25" font-family="Helvetica,sans-Serif" font-size="10.00">TTerminalLoop.h</text>
</a>
</g>
</g>
<!-- Node2 -->
<g id="Node000002" class="node">
<title>Node2</title>
<g id="a_Node000002"><a xlink:href="_stoppable_thread_8h.html" target="_top" xlink:title=" ">
<polygon fill="white" stroke="#666666" points="580.12,-74.5 483.12,-74.5 483.12,-55.25 580.12,-55.25 580.12,-74.5"/>
<text text-anchor="middle" x="531.62" y="-61" font-family="Helvetica,sans-Serif" font-size="10.00">StoppableThread.h</text>
</a>
</g>
</g>
<!-- Node1&#45;&gt;Node2 -->
<g id="edge1_Node000001_Node000002" class="edge">
<title>Node1&#45;&gt;Node2</title>
<g id="a_edge1_Node000001_Node000002"><a xlink:title=" ">
<path fill="none" stroke="#63b8ff" d="M382.99,-110.09C412.43,-101.33 457.33,-87.98 490.08,-78.23"/>
<polygon fill="#63b8ff" stroke="#63b8ff" points="491.07,-81.59 499.66,-75.38 489.08,-74.88 491.07,-81.59"/>
</a>
</g>
</g>
<!-- Node10 -->
<g id="Node000010" class="node">
<title>Node10</title>
<g id="a_Node000010"><a xlink:href="_threadsafe_queue_8h.html" target="_top" xlink:title=" ">
<polygon fill="white" stroke="#666666" points="284,-74.5 183.25,-74.5 183.25,-55.25 284,-55.25 284,-74.5"/>
<text text-anchor="middle" x="233.62" y="-61" font-family="Helvetica,sans-Serif" font-size="10.00">ThreadsafeQueue.h</text>
</a>
</g>
</g>
<!-- Node1&#45;&gt;Node10 -->
<g id="edge9_Node000001_Node000010" class="edge">
<title>Node1&#45;&gt;Node10</title>
<g id="a_edge9_Node000001_Node000010"><a xlink:title=" ">
<path fill="none" stroke="#63b8ff" d="M332.44,-110.09C313.72,-101.72 285.6,-89.13 264.14,-79.53"/>
<polygon fill="#63b8ff" stroke="#63b8ff" points="265.85,-76.46 255.29,-75.57 262.99,-82.85 265.85,-76.46"/>
</a>
</g>
</g>
<!-- Node3 -->
<g id="Node000003" class="node">
<title>Node3</title>
<g id="a_Node000003"><a xlink:title=" ">
<polygon fill="#e0e0e0" stroke="#999999" points="351.25,-19.25 306,-19.25 306,0 351.25,0 351.25,-19.25"/>
<text text-anchor="middle" x="328.62" y="-5.75" font-family="Helvetica,sans-Serif" font-size="10.00">atomic</text>
</a>
</g>
</g>
<!-- Node2&#45;&gt;Node3 -->
<g id="edge2_Node000002_Node000003" class="edge">
<title>Node2&#45;&gt;Node3</title>
<g id="a_edge2_Node000002_Node000003"><a xlink:title=" ">
<path fill="none" stroke="#63b8ff" d="M496.56,-54.81C464.28,-46.45 414.76,-33.57 362.81,-19.81"/>
<polygon fill="#63b8ff" stroke="#63b8ff" points="363.72,-16.43 353.15,-17.25 361.92,-23.2 363.72,-16.43"/>
</a>
</g>
</g>
<!-- Node4 -->
<g id="Node000004" class="node">
<title>Node4</title>
<g id="a_Node000004"><a xlink:title=" ">
<polygon fill="#e0e0e0" stroke="#999999" points="463.62,-19.25 369.62,-19.25 369.62,0 463.62,0 463.62,-19.25"/>
<text text-anchor="middle" x="416.62" y="-5.75" font-family="Helvetica,sans-Serif" font-size="10.00">condition_variable</text>
</a>
</g>
</g>
<!-- Node2&#45;&gt;Node4 -->
<g id="edge3_Node000002_Node000004" class="edge">
<title>Node2&#45;&gt;Node4</title>
<g id="a_edge3_Node000002_Node000004"><a xlink:title=" ">
<path fill="none" stroke="#63b8ff" d="M512.12,-54.84C494.11,-46.5 467.1,-34 446.4,-24.41"/>
<polygon fill="#63b8ff" stroke="#63b8ff" points="448.15,-21.36 437.6,-20.34 445.21,-27.72 448.15,-21.36"/>
</a>
</g>
</g>
<!-- Node5 -->
<g id="Node000005" class="node">
<title>Node5</title>
<g id="a_Node000005"><a xlink:title=" ">
<polygon fill="#e0e0e0" stroke="#999999" points="768.12,-19.25 725.12,-19.25 725.12,0 768.12,0 768.12,-19.25"/>
<text text-anchor="middle" x="746.62" y="-5.75" font-family="Helvetica,sans-Serif" font-size="10.00">thread</text>
</a>
</g>
</g>
<!-- Node2&#45;&gt;Node5 -->
<g id="edge4_Node000002_Node000005" class="edge">
<title>Node2&#45;&gt;Node5</title>
<g id="a_edge4_Node000002_Node000005"><a xlink:title=" ">
<path fill="none" stroke="#63b8ff" d="M571.45,-54.79C606.65,-46.65 659.65,-34.11 713.85,-19.91"/>
<polygon fill="#63b8ff" stroke="#63b8ff" points="714.46,-23.37 723.24,-17.43 712.67,-16.6 714.46,-23.37"/>
</a>
</g>
</g>
<!-- Node6 -->
<g id="Node000006" class="node">
<title>Node6</title>
<g id="a_Node000006"><a xlink:title=" ">
<polygon fill="#e0e0e0" stroke="#999999" points="521.62,-19.25 481.62,-19.25 481.62,0 521.62,0 521.62,-19.25"/>
<text text-anchor="middle" x="501.62" y="-5.75" font-family="Helvetica,sans-Serif" font-size="10.00">string</text>
</a>
</g>
</g>
<!-- Node2&#45;&gt;Node6 -->
<g id="edge5_Node000002_Node000006" class="edge">
<title>Node2&#45;&gt;Node6</title>
<g id="a_edge5_Node000002_Node000006"><a xlink:title=" ">
<path fill="none" stroke="#63b8ff" d="M526.67,-55.08C522.74,-48.11 517.11,-38.12 512.19,-29.37"/>
<polygon fill="#63b8ff" stroke="#63b8ff" points="515.39,-27.92 507.43,-20.93 509.29,-31.36 515.39,-27.92"/>
</a>
</g>
</g>
<!-- Node7 -->
<g id="Node000007" class="node">
<title>Node7</title>
<g id="a_Node000007"><a xlink:title=" ">
<polygon fill="#e0e0e0" stroke="#999999" points="583.12,-19.25 540.12,-19.25 540.12,0 583.12,0 583.12,-19.25"/>
<text text-anchor="middle" x="561.62" y="-5.75" font-family="Helvetica,sans-Serif" font-size="10.00">vector</text>
</a>
</g>
</g>
<!-- Node2&#45;&gt;Node7 -->
<g id="edge6_Node000002_Node000007" class="edge">
<title>Node2&#45;&gt;Node7</title>
<g id="a_edge6_Node000002_Node000007"><a xlink:title=" ">
<path fill="none" stroke="#63b8ff" d="M536.58,-55.08C540.51,-48.11 546.14,-38.12 551.06,-29.37"/>
<polygon fill="#63b8ff" stroke="#63b8ff" points="553.96,-31.36 555.82,-20.93 547.86,-27.92 553.96,-31.36"/>
</a>
</g>
</g>
<!-- Node8 -->
<g id="Node000008" class="node">
<title>Node8</title>
<g id="a_Node000008"><a xlink:title=" ">
<polygon fill="#e0e0e0" stroke="#999999" points="636,-19.25 601.25,-19.25 601.25,0 636,0 636,-19.25"/>
<text text-anchor="middle" x="618.62" y="-5.75" font-family="Helvetica,sans-Serif" font-size="10.00">map</text>
</a>
</g>
</g>
<!-- Node2&#45;&gt;Node8 -->
<g id="edge7_Node000002_Node000008" class="edge">
<title>Node2&#45;&gt;Node8</title>
<g id="a_edge7_Node000002_Node000008"><a xlink:title=" ">
<path fill="none" stroke="#63b8ff" d="M546.38,-54.84C559.51,-46.81 578.95,-34.91 594.36,-25.48"/>
<polygon fill="#63b8ff" stroke="#63b8ff" points="595.8,-28.7 602.5,-20.49 592.15,-22.73 595.8,-28.7"/>
</a>
</g>
</g>
<!-- Node9 -->
<g id="Node000009" class="node">
<title>Node9</title>
<g id="a_Node000009"><a xlink:title=" ">
<polygon fill="#e0e0e0" stroke="#999999" points="707.38,-19.25 653.88,-19.25 653.88,0 707.38,0 707.38,-19.25"/>
<text text-anchor="middle" x="680.62" y="-5.75" font-family="Helvetica,sans-Serif" font-size="10.00">Rtypes.h</text>
</a>
</g>
</g>
<!-- Node2&#45;&gt;Node9 -->
<g id="edge8_Node000002_Node000009" class="edge">
<title>Node2&#45;&gt;Node9</title>
<g id="a_edge8_Node000002_Node000009"><a xlink:title=" ">
<path fill="none" stroke="#63b8ff" d="M556.9,-54.84C580.98,-46.24 617.48,-33.19 644.61,-23.5"/>
<polygon fill="#63b8ff" stroke="#63b8ff" points="645.56,-26.87 653.8,-20.21 643.21,-20.28 645.56,-26.87"/>
</a>
</g>
</g>
<!-- Node10&#45;&gt;Node3 -->
<g id="edge11_Node000010_Node000003" class="edge">
<title>Node10&#45;&gt;Node3</title>
<g id="a_edge11_Node000010_Node000003"><a xlink:title=" ">
<path fill="none" stroke="#63b8ff" d="M249.74,-54.84C264.21,-46.73 285.7,-34.68 302.61,-25.21"/>
<polygon fill="#63b8ff" stroke="#63b8ff" points="304.1,-28.39 311.11,-20.44 300.68,-22.28 304.1,-28.39"/>
</a>
</g>
</g>
<!-- Node10&#45;&gt;Node4 -->
<g id="edge13_Node000010_Node000004" class="edge">
<title>Node10&#45;&gt;Node4</title>
<g id="a_edge13_Node000010_Node000004"><a xlink:title=" ">
<path fill="none" stroke="#63b8ff" d="M264.67,-54.84C294.9,-46.04 341.08,-32.61 374.59,-22.86"/>
<polygon fill="#63b8ff" stroke="#63b8ff" points="375.35,-26.28 383.98,-20.13 373.4,-19.56 375.35,-26.28"/>
</a>
</g>
</g>
<!-- Node11 -->
<g id="Node000011" class="node">
<title>Node11</title>
<g id="a_Node000011"><a xlink:title=" ">
<polygon fill="#e0e0e0" stroke="#999999" points="287.75,-19.25 239.5,-19.25 239.5,0 287.75,0 287.75,-19.25"/>
<text text-anchor="middle" x="263.62" y="-5.75" font-family="Helvetica,sans-Serif" font-size="10.00">cassert</text>
</a>
</g>
</g>
<!-- Node10&#45;&gt;Node11 -->
<g id="edge10_Node000010_Node000011" class="edge">
<title>Node10&#45;&gt;Node11</title>
<g id="a_edge10_Node000010_Node000011"><a xlink:title=" ">
<path fill="none" stroke="#63b8ff" d="M238.58,-55.08C242.51,-48.11 248.14,-38.12 253.06,-29.37"/>
<polygon fill="#63b8ff" stroke="#63b8ff" points="255.96,-31.36 257.82,-20.93 249.86,-27.92 255.96,-31.36"/>
</a>
</g>
</g>
<!-- Node12 -->
<g id="Node000012" class="node">
<title>Node12</title>
<g id="a_Node000012"><a xlink:title=" ">
<polygon fill="#e0e0e0" stroke="#999999" points="45.25,-19.25 0,-19.25 0,0 45.25,0 45.25,-19.25"/>
<text text-anchor="middle" x="22.62" y="-5.75" font-family="Helvetica,sans-Serif" font-size="10.00">chrono</text>
</a>
</g>
</g>
<!-- Node10&#45;&gt;Node12 -->
<g id="edge12_Node000010_Node000012" class="edge">
<title>Node10&#45;&gt;Node12</title>
<g id="a_edge12_Node000010_Node000012"><a xlink:title=" ">
<path fill="none" stroke="#63b8ff" d="M196.2,-54.76C162.22,-46.44 110.44,-33.64 56.5,-19.7"/>
<polygon fill="#63b8ff" stroke="#63b8ff" points="57.71,-16.4 47.15,-17.28 55.95,-23.17 57.71,-16.4"/>
</a>
</g>
</g>
<!-- Node13 -->
<g id="Node000013" class="node">
<title>Node13</title>
<g id="a_Node000013"><a xlink:title=" ">
<polygon fill="#e0e0e0" stroke="#999999" points="105.75,-19.25 63.5,-19.25 63.5,0 105.75,0 105.75,-19.25"/>
<text text-anchor="middle" x="84.62" y="-5.75" font-family="Helvetica,sans-Serif" font-size="10.00">mutex</text>
</a>
</g>
</g>
<!-- Node10&#45;&gt;Node13 -->
<g id="edge14_Node000010_Node000013" class="edge">
<title>Node10&#45;&gt;Node13</title>
<g id="a_edge14_Node000010_Node000013"><a xlink:title=" ">
<path fill="none" stroke="#63b8ff" d="M208.35,-54.84C183.1,-45.82 144.2,-31.92 116.77,-22.11"/>
<polygon fill="#63b8ff" stroke="#63b8ff" points="118.17,-18.9 107.57,-18.83 115.81,-25.49 118.17,-18.9"/>
</a>
</g>
</g>
<!-- Node14 -->
<g id="Node000014" class="node">
<title>Node14</title>
<g id="a_Node000014"><a xlink:title=" ">
<polygon fill="#e0e0e0" stroke="#999999" points="165.75,-19.25 123.5,-19.25 123.5,0 165.75,0 165.75,-19.25"/>
<text text-anchor="middle" x="144.62" y="-5.75" font-family="Helvetica,sans-Serif" font-size="10.00">queue</text>
</a>
</g>
</g>
<!-- Node10&#45;&gt;Node14 -->
<g id="edge15_Node000010_Node000014" class="edge">
<title>Node10&#45;&gt;Node14</title>
<g id="a_edge15_Node000010_Node000014"><a xlink:title=" ">
<path fill="none" stroke="#63b8ff" d="M218.53,-54.84C205.1,-46.81 185.21,-34.91 169.45,-25.48"/>
<polygon fill="#63b8ff" stroke="#63b8ff" points="171.47,-22.61 161.1,-20.48 167.88,-28.62 171.47,-22.61"/>
</a>
</g>
</g>
<!-- Node15 -->
<g id="Node000015" class="node">
<title>Node15</title>
<g id="a_Node000015"><a xlink:title=" ">
<polygon fill="#e0e0e0" stroke="#999999" points="221.88,-19.25 183.38,-19.25 183.38,0 221.88,0 221.88,-19.25"/>
<text text-anchor="middle" x="202.62" y="-5.75" font-family="Helvetica,sans-Serif" font-size="10.00">utility</text>
</a>
</g>
</g>
<!-- Node10&#45;&gt;Node15 -->
<g id="edge16_Node000010_Node000015" class="edge">
<title>Node10&#45;&gt;Node15</title>
<g id="a_edge16_Node000010_Node000015"><a xlink:title=" ">
<path fill="none" stroke="#63b8ff" d="M228.51,-55.08C224.45,-48.11 218.63,-38.12 213.54,-29.37"/>
<polygon fill="#63b8ff" stroke="#63b8ff" points="216.67,-27.8 208.62,-20.92 210.62,-31.32 216.67,-27.8"/>
</a>
</g>
</g>
</g>
</svg>
