<?xml version="1.0" encoding="UTF-8" standalone="no"?>
<!DOCTYPE svg PUBLIC "-//W3C//DTD SVG 1.1//EN"
 "http://www.w3.org/Graphics/SVG/1.1/DTD/svg11.dtd">
<!-- Generated by graphviz version 12.2.0 (20241103.1931)
 -->
<!-- Title: TTACHit.h Pages: 1 -->
<svg width="713pt" height="193pt"
 viewBox="0.00 0.00 713.25 193.00" xmlns="http://www.w3.org/2000/svg" xmlns:xlink="http://www.w3.org/1999/xlink">
<g id="graph0" class="graph" transform="scale(1 1) rotate(0) translate(4 189)">
<title>TTACHit.h</title>
<!-- Node1 -->
<g id="Node000001" class="node">
<title>Node1</title>
<g id="a_Node000001"><a xlink:title=" ">
<polygon fill="#999999" stroke="#666666" points="481.75,-185 420,-185 420,-165.75 481.75,-165.75 481.75,-185"/>
<text text-anchor="middle" x="450.88" y="-171.5" font-family="Helvetica,sans-Serif" font-size="10.00">TTACHit.h</text>
</a>
</g>
</g>
<!-- Node2 -->
<g id="Node000002" class="node">
<title>Node2</title>
<g id="a_Node000002"><a xlink:href="_t_t_a_c_8h.html" target="_top" xlink:title=" ">
<polygon fill="white" stroke="#666666" points="449.38,-129.75 400.38,-129.75 400.38,-110.5 449.38,-110.5 449.38,-129.75"/>
<text text-anchor="middle" x="424.88" y="-116.25" font-family="Helvetica,sans-Serif" font-size="10.00">TTAC.h</text>
</a>
</g>
</g>
<!-- Node1&#45;&gt;Node2 -->
<g id="edge1_Node000001_Node000002" class="edge">
<title>Node1&#45;&gt;Node2</title>
<g id="a_edge1_Node000001_Node000002"><a xlink:title=" ">
<path fill="none" stroke="#63b8ff" d="M441.56,-155.29C437.36,-146.71 432.62,-136.98 429.26,-130.11"/>
<polygon fill="#63b8ff" stroke="#63b8ff" points="438.38,-156.77 445.92,-164.22 444.68,-153.7 438.38,-156.77"/>
</a>
</g>
</g>
<!-- Node6 -->
<g id="Node000006" class="node">
<title>Node6</title>
<g id="a_Node000006"><a xlink:href="_t_t_a_c_hit_8cxx.html" target="_top" xlink:title=" ">
<polygon fill="white" stroke="#666666" points="705.25,-74.5 634.5,-74.5 634.5,-55.25 705.25,-55.25 705.25,-74.5"/>
<text text-anchor="middle" x="669.88" y="-61" font-family="Helvetica,sans-Serif" font-size="10.00">TTACHit.cxx</text>
</a>
</g>
</g>
<!-- Node1&#45;&gt;Node6 -->
<g id="edge10_Node000001_Node000006" class="edge">
<title>Node1&#45;&gt;Node6</title>
<g id="a_edge10_Node000001_Node000006"><a xlink:title=" ">
<path fill="none" stroke="#63b8ff" d="M479.27,-160.31C524.88,-137.71 613.22,-93.94 651.48,-74.99"/>
<polygon fill="#63b8ff" stroke="#63b8ff" points="477.93,-157.06 470.53,-164.64 481.04,-163.34 477.93,-157.06"/>
</a>
</g>
</g>
<!-- Node3 -->
<g id="Node000003" class="node">
<title>Node3</title>
<g id="a_Node000003"><a xlink:href="_get_tree_entries_8cxx.html" target="_top" xlink:title=" ">
<polygon fill="white" stroke="#666666" points="97.75,-74.5 0,-74.5 0,-55.25 97.75,-55.25 97.75,-74.5"/>
<text text-anchor="middle" x="48.88" y="-61" font-family="Helvetica,sans-Serif" font-size="10.00">GetTreeEntries.cxx</text>
</a>
</g>
</g>
<!-- Node2&#45;&gt;Node3 -->
<g id="edge2_Node000002_Node000003" class="edge">
<title>Node2&#45;&gt;Node3</title>
<g id="a_edge2_Node000002_Node000003"><a xlink:title=" ">
<path fill="none" stroke="#63b8ff" d="M388.84,-114.17C329.88,-106.03 209.08,-89.27 106.88,-74.5 104.05,-74.09 101.16,-73.67 98.23,-73.24"/>
<polygon fill="#63b8ff" stroke="#63b8ff" points="388.24,-117.62 398.63,-115.52 389.2,-110.68 388.24,-117.62"/>
</a>
</g>
</g>
<!-- Node4 -->
<g id="Node000004" class="node">
<title>Node4</title>
<g id="a_Node000004"><a xlink:href="_t_g_r_s_i_mnemonic_8cxx.html" target="_top" xlink:title=" ">
<polygon fill="white" stroke="#666666" points="223.62,-74.5 116.12,-74.5 116.12,-55.25 223.62,-55.25 223.62,-74.5"/>
<text text-anchor="middle" x="169.88" y="-61" font-family="Helvetica,sans-Serif" font-size="10.00">TGRSIMnemonic.cxx</text>
</a>
</g>
</g>
<!-- Node2&#45;&gt;Node4 -->
<g id="edge3_Node000002_Node000004" class="edge">
<title>Node2&#45;&gt;Node4</title>
<g id="a_edge3_Node000002_Node000004"><a xlink:title=" ">
<path fill="none" stroke="#63b8ff" d="M388.73,-111.58C342.63,-101.95 262.98,-85.32 213.54,-74.99"/>
<polygon fill="#63b8ff" stroke="#63b8ff" points="387.97,-114.99 398.48,-113.61 389.41,-108.14 387.97,-114.99"/>
</a>
</g>
</g>
<!-- Node5 -->
<g id="Node000005" class="node">
<title>Node5</title>
<g id="a_Node000005"><a xlink:href="_t_t_a_c_8cxx.html" target="_top" xlink:title=" ">
<polygon fill="white" stroke="#666666" points="299.88,-74.5 241.88,-74.5 241.88,-55.25 299.88,-55.25 299.88,-74.5"/>
<text text-anchor="middle" x="270.88" y="-61" font-family="Helvetica,sans-Serif" font-size="10.00">TTAC.cxx</text>
</a>
</g>
</g>
<!-- Node2&#45;&gt;Node5 -->
<g id="edge4_Node000002_Node000005" class="edge">
<title>Node2&#45;&gt;Node5</title>
<g id="a_edge4_Node000002_Node000005"><a xlink:title=" ">
<path fill="none" stroke="#63b8ff" d="M389.53,-106.9C361.37,-97.16 322.56,-83.75 297.1,-74.94"/>
<polygon fill="#63b8ff" stroke="#63b8ff" points="388.11,-110.11 398.7,-110.07 390.39,-103.5 388.11,-110.11"/>
</a>
</g>
</g>
<!-- Node2&#45;&gt;Node6 -->
<g id="edge5_Node000002_Node000006" class="edge">
<title>Node2&#45;&gt;Node6</title>
<g id="a_edge5_Node000002_Node000006"><a xlink:title=" ">
<path fill="none" stroke="#63b8ff" d="M460.77,-111.32C507.31,-101.21 587.99,-83.67 634.35,-73.6"/>
<polygon fill="#63b8ff" stroke="#63b8ff" points="460.22,-107.86 451.19,-113.4 461.71,-114.7 460.22,-107.86"/>
</a>
</g>
</g>
<!-- Node7 -->
<g id="Node000007" class="node">
<title>Node7</title>
<g id="a_Node000007"><a xlink:href="_tac_offset_helper_8hh.html" target="_top" xlink:title=" ">
<polygon fill="white" stroke="#666666" points="417.88,-74.5 317.88,-74.5 317.88,-55.25 417.88,-55.25 417.88,-74.5"/>
<text text-anchor="middle" x="367.88" y="-61" font-family="Helvetica,sans-Serif" font-size="10.00">TacOffsetHelper.hh</text>
</a>
</g>
</g>
<!-- Node2&#45;&gt;Node7 -->
<g id="edge6_Node000002_Node000007" class="edge">
<title>Node2&#45;&gt;Node7</title>
<g id="a_edge6_Node000002_Node000007"><a xlink:title=" ">
<path fill="none" stroke="#63b8ff" d="M406.93,-102.36C397.14,-93.22 385.43,-82.28 377.4,-74.77"/>
<polygon fill="#63b8ff" stroke="#63b8ff" points="404.4,-104.79 414.1,-109.06 409.18,-99.67 404.4,-104.79"/>
</a>
</g>
</g>
<!-- Node9 -->
<g id="Node000009" class="node">
<title>Node9</title>
<g id="a_Node000009"><a xlink:href="tac__calibrator_8cxx.html" target="_top" xlink:title=" ">
<polygon fill="white" stroke="#666666" points="527.38,-74.5 436.38,-74.5 436.38,-55.25 527.38,-55.25 527.38,-74.5"/>
<text text-anchor="middle" x="481.88" y="-61" font-family="Helvetica,sans-Serif" font-size="10.00">tac_calibrator.cxx</text>
</a>
</g>
</g>
<!-- Node2&#45;&gt;Node9 -->
<g id="edge8_Node000002_Node000009" class="edge">
<title>Node2&#45;&gt;Node9</title>
<g id="a_edge8_Node000002_Node000009"><a xlink:title=" ">
<path fill="none" stroke="#63b8ff" d="M442.82,-102.36C452.61,-93.22 464.32,-82.28 472.35,-74.77"/>
<polygon fill="#63b8ff" stroke="#63b8ff" points="440.57,-99.67 435.65,-109.06 445.35,-104.79 440.57,-99.67"/>
</a>
</g>
</g>
<!-- Node10 -->
<g id="Node000010" class="node">
<title>Node10</title>
<g id="a_Node000010"><a xlink:href="write__cal_8cxx.html" target="_top" xlink:title=" ">
<polygon fill="white" stroke="#666666" points="616.62,-74.5 545.12,-74.5 545.12,-55.25 616.62,-55.25 616.62,-74.5"/>
<text text-anchor="middle" x="580.88" y="-61" font-family="Helvetica,sans-Serif" font-size="10.00">write_cal.cxx</text>
</a>
</g>
</g>
<!-- Node2&#45;&gt;Node10 -->
<g id="edge9_Node000002_Node000010" class="edge">
<title>Node2&#45;&gt;Node10</title>
<g id="a_edge9_Node000002_Node000010"><a xlink:title=" ">
<path fill="none" stroke="#63b8ff" d="M460.31,-107.03C488.83,-97.29 528.29,-83.83 554.18,-74.99"/>
<polygon fill="#63b8ff" stroke="#63b8ff" points="459.36,-103.66 451.03,-110.2 461.62,-110.28 459.36,-103.66"/>
</a>
</g>
</g>
<!-- Node8 -->
<g id="Node000008" class="node">
<title>Node8</title>
<g id="a_Node000008"><a xlink:href="_tac_offset_helper_8cxx.html" target="_top" xlink:title=" ">
<polygon fill="white" stroke="#666666" points="419.75,-19.25 316,-19.25 316,0 419.75,0 419.75,-19.25"/>
<text text-anchor="middle" x="367.88" y="-5.75" font-family="Helvetica,sans-Serif" font-size="10.00">TacOffsetHelper.cxx</text>
</a>
</g>
</g>
<!-- Node7&#45;&gt;Node8 -->
<g id="edge7_Node000007_Node000008" class="edge">
<title>Node7&#45;&gt;Node8</title>
<g id="a_edge7_Node000007_Node000008"><a xlink:title=" ">
<path fill="none" stroke="#63b8ff" d="M367.88,-43.63C367.88,-35.34 367.88,-26.17 367.88,-19.61"/>
<polygon fill="#63b8ff" stroke="#63b8ff" points="364.38,-43.57 367.88,-53.57 371.38,-43.57 364.38,-43.57"/>
</a>
</g>
</g>
</g>
</svg>
