<?xml version="1.0" encoding="UTF-8" standalone="no"?>
<!DOCTYPE svg PUBLIC "-//W3C//DTD SVG 1.1//EN"
 "http://www.w3.org/Graphics/SVG/1.1/DTD/svg11.dtd">
<!-- Generated by graphviz version 12.2.0 (20241103.1931)
 -->
<!-- Title: TTriFoil.h Pages: 1 -->
<svg width="1650pt" height="414pt"
 viewBox="0.00 0.00 1650.00 414.00" xmlns="http://www.w3.org/2000/svg" xmlns:xlink="http://www.w3.org/1999/xlink">
<g id="graph0" class="graph" transform="scale(1 1) rotate(0) translate(4 410)">
<title>TTriFoil.h</title>
<!-- Node1 -->
<g id="Node000001" class="node">
<title>Node1</title>
<g id="a_Node000001"><a xlink:title=" ">
<polygon fill="#999999" stroke="#666666" points="865.25,-406 808.75,-406 808.75,-386.75 865.25,-386.75 865.25,-406"/>
<text text-anchor="middle" x="837" y="-392.5" font-family="Helvetica,sans-Serif" font-size="10.00">TTriFoil.h</text>
</a>
</g>
</g>
<!-- Node2 -->
<g id="Node000002" class="node">
<title>Node2</title>
<g id="a_Node000002"><a xlink:title=" ">
<polygon fill="#e0e0e0" stroke="#999999" points="782.5,-74.5 739.5,-74.5 739.5,-55.25 782.5,-55.25 782.5,-74.5"/>
<text text-anchor="middle" x="761" y="-61" font-family="Helvetica,sans-Serif" font-size="10.00">vector</text>
</a>
</g>
</g>
<!-- Node1&#45;&gt;Node2 -->
<g id="edge1_Node000001_Node000002" class="edge">
<title>Node1&#45;&gt;Node2</title>
<g id="a_edge1_Node000001_Node000002"><a xlink:title=" ">
<path fill="none" stroke="#63b8ff" d="M834.97,-386.56C824.9,-342.9 780.26,-149.36 765.65,-86.02"/>
<polygon fill="#63b8ff" stroke="#63b8ff" points="769.07,-85.3 763.41,-76.34 762.25,-86.88 769.07,-85.3"/>
</a>
</g>
</g>
<!-- Node3 -->
<g id="Node000003" class="node">
<title>Node3</title>
<g id="a_Node000003"><a xlink:title=" ">
<polygon fill="#e0e0e0" stroke="#999999" points="1562.75,-19.25 1509.25,-19.25 1509.25,0 1562.75,0 1562.75,-19.25"/>
<text text-anchor="middle" x="1536" y="-5.75" font-family="Helvetica,sans-Serif" font-size="10.00">iostream</text>
</a>
</g>
</g>
<!-- Node1&#45;&gt;Node3 -->
<g id="edge2_Node000001_Node000003" class="edge">
<title>Node1&#45;&gt;Node3</title>
<g id="a_edge2_Node000001_Node000003"><a xlink:title=" ">
<path fill="none" stroke="#63b8ff" d="M865.65,-394.59C1009.05,-390.32 1642,-366.9 1642,-286.88 1642,-286.88 1642,-286.88 1642,-119.12 1642,-75.12 1596.83,-42.33 1565.47,-24.87"/>
<polygon fill="#63b8ff" stroke="#63b8ff" points="1567.25,-21.85 1556.78,-20.25 1563.97,-28.03 1567.25,-21.85"/>
</a>
</g>
</g>
<!-- Node4 -->
<g id="Node000004" class="node">
<title>Node4</title>
<g id="a_Node000004"><a xlink:title=" ">
<polygon fill="#e0e0e0" stroke="#999999" points="59.12,-19.25 16.88,-19.25 16.88,0 59.12,0 59.12,-19.25"/>
<text text-anchor="middle" x="38" y="-5.75" font-family="Helvetica,sans-Serif" font-size="10.00">cstdio</text>
</a>
</g>
</g>
<!-- Node1&#45;&gt;Node4 -->
<g id="edge3_Node000001_Node000004" class="edge">
<title>Node1&#45;&gt;Node4</title>
<g id="a_edge3_Node000001_Node000004"><a xlink:title=" ">
<path fill="none" stroke="#63b8ff" d="M808.67,-394.75C662.46,-391.16 0,-370.3 0,-286.88 0,-286.88 0,-286.88 0,-119.12 0,-86.13 15.84,-50.51 27.07,-29.41"/>
<polygon fill="#63b8ff" stroke="#63b8ff" points="30.02,-31.3 31.82,-20.86 23.9,-27.9 30.02,-31.3"/>
</a>
</g>
</g>
<!-- Node5 -->
<g id="Node000005" class="node">
<title>Node5</title>
<g id="a_Node000005"><a xlink:href="_t_detector_8h.html" target="_top" xlink:title=" ">
<polygon fill="white" stroke="#666666" points="775.12,-350.75 708.88,-350.75 708.88,-331.5 775.12,-331.5 775.12,-350.75"/>
<text text-anchor="middle" x="742" y="-337.25" font-family="Helvetica,sans-Serif" font-size="10.00">TDetector.h</text>
</a>
</g>
</g>
<!-- Node1&#45;&gt;Node5 -->
<g id="edge4_Node000001_Node000005" class="edge">
<title>Node1&#45;&gt;Node5</title>
<g id="a_edge4_Node000001_Node000005"><a xlink:title=" ">
<path fill="none" stroke="#63b8ff" d="M820.88,-386.34C806.42,-378.23 784.92,-366.18 768.02,-356.71"/>
<polygon fill="#63b8ff" stroke="#63b8ff" points="769.95,-353.78 759.51,-351.94 766.53,-359.89 769.95,-353.78"/>
</a>
</g>
</g>
<!-- Node8 -->
<g id="Node000008" class="node">
<title>Node8</title>
<g id="a_Node000008"><a xlink:href="_t_fragment_8h.html" target="_top" xlink:title=" ">
<polygon fill="white" stroke="#666666" points="1165.38,-295.5 1094.62,-295.5 1094.62,-276.25 1165.38,-276.25 1165.38,-295.5"/>
<text text-anchor="middle" x="1130" y="-282" font-family="Helvetica,sans-Serif" font-size="10.00">TFragment.h</text>
</a>
</g>
</g>
<!-- Node1&#45;&gt;Node8 -->
<g id="edge68_Node000001_Node000008" class="edge">
<title>Node1&#45;&gt;Node8</title>
<g id="a_edge68_Node000001_Node000008"><a xlink:title=" ">
<path fill="none" stroke="#63b8ff" d="M861.48,-386.31C913.4,-367.08 1034.73,-322.15 1094.9,-299.87"/>
<polygon fill="#63b8ff" stroke="#63b8ff" points="1095.8,-303.27 1103.97,-296.52 1093.37,-296.71 1095.8,-303.27"/>
</a>
</g>
</g>
<!-- Node5&#45;&gt;Node2 -->
<g id="edge6_Node000005_Node000002" class="edge">
<title>Node5&#45;&gt;Node2</title>
<g id="a_edge6_Node000005_Node000002"><a xlink:title=" ">
<path fill="none" stroke="#63b8ff" d="M739.36,-331.22C734.14,-312.8 723,-269.11 723,-231.62 723,-231.62 723,-231.62 723,-174.38 723,-141.38 738.84,-105.76 750.07,-84.66"/>
<polygon fill="#63b8ff" stroke="#63b8ff" points="753.02,-86.55 754.82,-76.11 746.9,-83.15 753.02,-86.55"/>
</a>
</g>
</g>
<!-- Node5&#45;&gt;Node4 -->
<g id="edge5_Node000005_Node000004" class="edge">
<title>Node5&#45;&gt;Node4</title>
<g id="a_edge5_Node000005_Node000004"><a xlink:title=" ">
<path fill="none" stroke="#63b8ff" d="M708.74,-339.17C602.44,-335.85 271.9,-323.5 169,-295.5 106.5,-278.49 38,-296.4 38,-231.62 38,-231.62 38,-231.62 38,-119.12 38,-88.41 38,-52.8 38,-30.99"/>
<polygon fill="#63b8ff" stroke="#63b8ff" points="41.5,-31.14 38,-21.14 34.5,-31.14 41.5,-31.14"/>
</a>
</g>
</g>
<!-- Node6 -->
<g id="Node000006" class="node">
<title>Node6</title>
<g id="a_Node000006"><a xlink:title=" ">
<polygon fill="#e0e0e0" stroke="#999999" points="136.25,-19.25 85.75,-19.25 85.75,0 136.25,0 136.25,-19.25"/>
<text text-anchor="middle" x="111" y="-5.75" font-family="Helvetica,sans-Serif" font-size="10.00">memory</text>
</a>
</g>
</g>
<!-- Node5&#45;&gt;Node6 -->
<g id="edge7_Node000005_Node000006" class="edge">
<title>Node5&#45;&gt;Node6</title>
<g id="a_edge7_Node000005_Node000006"><a xlink:title=" ">
<path fill="none" stroke="#63b8ff" d="M708.52,-338.25C573.46,-330.26 76,-296.42 76,-231.62 76,-231.62 76,-231.62 76,-119.12 76,-86.56 90.46,-51.04 100.79,-29.81"/>
<polygon fill="#63b8ff" stroke="#63b8ff" points="103.88,-31.44 105.3,-20.95 97.64,-28.27 103.88,-31.44"/>
</a>
</g>
</g>
<!-- Node7 -->
<g id="Node000007" class="node">
<title>Node7</title>
<g id="a_Node000007"><a xlink:title=" ">
<polygon fill="#e0e0e0" stroke="#999999" points="1075,-74.5 1017,-74.5 1017,-55.25 1075,-55.25 1075,-74.5"/>
<text text-anchor="middle" x="1046" y="-61" font-family="Helvetica,sans-Serif" font-size="10.00">TObject.h</text>
</a>
</g>
</g>
<!-- Node5&#45;&gt;Node7 -->
<g id="edge8_Node000005_Node000007" class="edge">
<title>Node5&#45;&gt;Node7</title>
<g id="a_edge8_Node000005_Node000007"><a xlink:title=" ">
<path fill="none" stroke="#63b8ff" d="M745.92,-331.01C758.32,-303.07 799.27,-217.33 856,-165.75 901.72,-124.19 967.91,-94.57 1008.88,-78.85"/>
<polygon fill="#63b8ff" stroke="#63b8ff" points="1009.93,-82.2 1018.07,-75.42 1007.47,-75.65 1009.93,-82.2"/>
</a>
</g>
</g>
<!-- Node5&#45;&gt;Node8 -->
<g id="edge9_Node000005_Node000008" class="edge">
<title>Node5&#45;&gt;Node8</title>
<g id="a_edge9_Node000005_Node000008"><a xlink:title=" ">
<path fill="none" stroke="#63b8ff" d="M775.42,-335.54C844.62,-326.04 1003.77,-304.2 1083.17,-293.3"/>
<polygon fill="#63b8ff" stroke="#63b8ff" points="1083.36,-296.81 1092.79,-291.98 1082.41,-289.87 1083.36,-296.81"/>
</a>
</g>
</g>
<!-- Node9 -->
<g id="Node000009" class="node">
<title>Node9</title>
<g id="a_Node000009"><a xlink:href="_t_detector_hit_8h.html" target="_top" xlink:title=" ">
<polygon fill="white" stroke="#666666" points="1050.5,-240.25 971.5,-240.25 971.5,-221 1050.5,-221 1050.5,-240.25"/>
<text text-anchor="middle" x="1011" y="-226.75" font-family="Helvetica,sans-Serif" font-size="10.00">TDetectorHit.h</text>
</a>
</g>
</g>
<!-- Node5&#45;&gt;Node9 -->
<g id="edge66_Node000005_Node000009" class="edge">
<title>Node5&#45;&gt;Node9</title>
<g id="a_edge66_Node000005_Node000009"><a xlink:title=" ">
<path fill="none" stroke="#63b8ff" d="M764.47,-331.06C811.84,-311.95 922.15,-267.46 977.73,-245.04"/>
<polygon fill="#63b8ff" stroke="#63b8ff" points="979.03,-248.29 987,-241.31 976.42,-241.8 979.03,-248.29"/>
</a>
</g>
</g>
<!-- Node10 -->
<g id="Node000010" class="node">
<title>Node10</title>
<g id="a_Node000010"><a xlink:href="_t_channel_8h.html" target="_top" xlink:title=" ">
<polygon fill="white" stroke="#666666" points="531.38,-185 466.62,-185 466.62,-165.75 531.38,-165.75 531.38,-185"/>
<text text-anchor="middle" x="499" y="-171.5" font-family="Helvetica,sans-Serif" font-size="10.00">TChannel.h</text>
</a>
</g>
</g>
<!-- Node5&#45;&gt;Node10 -->
<g id="edge67_Node000005_Node000010" class="edge">
<title>Node5&#45;&gt;Node10</title>
<g id="a_edge67_Node000005_Node000010"><a xlink:title=" ">
<path fill="none" stroke="#63b8ff" d="M728.59,-331.09C688.84,-304.3 571.35,-225.13 521.63,-191.63"/>
<polygon fill="#63b8ff" stroke="#63b8ff" points="523.87,-188.92 513.62,-186.23 519.96,-194.72 523.87,-188.92"/>
</a>
</g>
</g>
<!-- Node8&#45;&gt;Node2 -->
<g id="edge63_Node000008_Node000002" class="edge">
<title>Node8&#45;&gt;Node2</title>
<g id="a_edge63_Node000008_Node000002"><a xlink:title=" ">
<path fill="none" stroke="#63b8ff" d="M1133.39,-275.96C1140.94,-254.46 1156.53,-199.08 1131,-165.75 1089.5,-111.56 876.88,-80.08 794.07,-69.72"/>
<polygon fill="#63b8ff" stroke="#63b8ff" points="794.68,-66.27 784.33,-68.52 793.83,-73.21 794.68,-66.27"/>
</a>
</g>
</g>
<!-- Node8&#45;&gt;Node3 -->
<g id="edge62_Node000008_Node000003" class="edge">
<title>Node8&#45;&gt;Node3</title>
<g id="a_edge62_Node000008_Node000003"><a xlink:title=" ">
<path fill="none" stroke="#63b8ff" d="M1165.76,-282.3C1246.03,-274.54 1441.47,-244.26 1544,-129.75 1566.47,-104.65 1565.65,-88.06 1558,-55.25 1555.92,-46.33 1551.79,-37.14 1547.66,-29.44"/>
<polygon fill="#63b8ff" stroke="#63b8ff" points="1550.84,-27.94 1542.81,-21.04 1544.78,-31.45 1550.84,-27.94"/>
</a>
</g>
</g>
<!-- Node8&#45;&gt;Node9 -->
<g id="edge10_Node000008_Node000009" class="edge">
<title>Node8&#45;&gt;Node9</title>
<g id="a_edge10_Node000008_Node000009"><a xlink:title=" ">
<path fill="none" stroke="#63b8ff" d="M1109.81,-275.84C1091.09,-267.47 1062.98,-254.88 1041.52,-245.28"/>
<polygon fill="#63b8ff" stroke="#63b8ff" points="1043.22,-242.21 1032.67,-241.32 1040.37,-248.6 1043.22,-242.21"/>
</a>
</g>
</g>
<!-- Node22 -->
<g id="Node000022" class="node">
<title>Node22</title>
<g id="a_Node000022"><a xlink:title=" ">
<polygon fill="#e0e0e0" stroke="#999999" points="1121.75,-185 1068.25,-185 1068.25,-165.75 1121.75,-165.75 1121.75,-185"/>
<text text-anchor="middle" x="1095" y="-171.5" font-family="Helvetica,sans-Serif" font-size="10.00">Rtypes.h</text>
</a>
</g>
</g>
<!-- Node8&#45;&gt;Node22 -->
<g id="edge65_Node000008_Node000022" class="edge">
<title>Node8&#45;&gt;Node22</title>
<g id="a_edge65_Node000008_Node000022"><a xlink:title=" ">
<path fill="none" stroke="#63b8ff" d="M1127.14,-276C1121.55,-258.67 1109.07,-219.98 1101.41,-196.24"/>
<polygon fill="#63b8ff" stroke="#63b8ff" points="1104.77,-195.26 1098.37,-186.82 1098.11,-197.41 1104.77,-195.26"/>
</a>
</g>
</g>
<!-- Node24 -->
<g id="Node000024" class="node">
<title>Node24</title>
<g id="a_Node000024"><a xlink:href="_t_p_p_g_8h.html" target="_top" xlink:title=" ">
<polygon fill="white" stroke="#666666" points="1334.25,-185 1283.75,-185 1283.75,-165.75 1334.25,-165.75 1334.25,-185"/>
<text text-anchor="middle" x="1309" y="-171.5" font-family="Helvetica,sans-Serif" font-size="10.00">TPPG.h</text>
</a>
</g>
</g>
<!-- Node8&#45;&gt;Node24 -->
<g id="edge61_Node000008_Node000024" class="edge">
<title>Node8&#45;&gt;Node24</title>
<g id="a_edge61_Node000008_Node000024"><a xlink:title=" ">
<path fill="none" stroke="#63b8ff" d="M1144.95,-275.81C1175.83,-257.1 1246.88,-214.03 1284.54,-191.2"/>
<polygon fill="#63b8ff" stroke="#63b8ff" points="1286.18,-194.3 1292.92,-186.12 1282.55,-188.31 1286.18,-194.3"/>
</a>
</g>
</g>
<!-- Node45 -->
<g id="Node000045" class="node">
<title>Node45</title>
<g id="a_Node000045"><a xlink:title=" ">
<polygon fill="#e0e0e0" stroke="#999999" points="1614,-240.25 1574,-240.25 1574,-221 1614,-221 1614,-240.25"/>
<text text-anchor="middle" x="1594" y="-226.75" font-family="Helvetica,sans-Serif" font-size="10.00">ctime</text>
</a>
</g>
</g>
<!-- Node8&#45;&gt;Node45 -->
<g id="edge64_Node000008_Node000045" class="edge">
<title>Node8&#45;&gt;Node45</title>
<g id="a_edge64_Node000008_Node000045"><a xlink:title=" ">
<path fill="none" stroke="#63b8ff" d="M1165.64,-282.93C1239.6,-278.51 1414.98,-266.03 1560,-240.25 1560.83,-240.1 1561.67,-239.94 1562.52,-239.78"/>
<polygon fill="#63b8ff" stroke="#63b8ff" points="1563.13,-243.23 1572.13,-237.64 1561.61,-236.4 1563.13,-243.23"/>
</a>
</g>
</g>
<!-- Node9&#45;&gt;Node2 -->
<g id="edge11_Node000009_Node000002" class="edge">
<title>Node9&#45;&gt;Node2</title>
<g id="a_edge11_Node000009_Node000002"><a xlink:title=" ">
<path fill="none" stroke="#63b8ff" d="M971.18,-228.67C936.17,-225.67 886.22,-215.77 856,-185 831.98,-160.54 856.7,-137.83 836,-110.5 825.18,-96.21 808.35,-85.6 793.37,-78.32"/>
<polygon fill="#63b8ff" stroke="#63b8ff" points="794.83,-75.14 784.28,-74.22 791.96,-81.52 794.83,-75.14"/>
</a>
</g>
</g>
<!-- Node9&#45;&gt;Node7 -->
<g id="edge26_Node000009_Node000007" class="edge">
<title>Node9&#45;&gt;Node7</title>
<g id="a_edge26_Node000009_Node000007"><a xlink:title=" ">
<path fill="none" stroke="#63b8ff" d="M1013.03,-220.74C1015.07,-211.74 1018.31,-197.41 1021,-185 1028.56,-150.16 1037.01,-109.52 1041.9,-85.84"/>
<polygon fill="#63b8ff" stroke="#63b8ff" points="1045.27,-86.83 1043.85,-76.33 1038.41,-85.42 1045.27,-86.83"/>
</a>
</g>
</g>
<!-- Node9&#45;&gt;Node10 -->
<g id="edge12_Node000009_Node000010" class="edge">
<title>Node9&#45;&gt;Node10</title>
<g id="a_edge12_Node000009_Node000010"><a xlink:title=" ">
<path fill="none" stroke="#63b8ff" d="M971.25,-225.49C877.1,-215.7 641.06,-191.15 542.89,-180.94"/>
<polygon fill="#63b8ff" stroke="#63b8ff" points="543.44,-177.48 533.13,-179.92 542.71,-184.44 543.44,-177.48"/>
</a>
</g>
</g>
<!-- Node21 -->
<g id="Node000021" class="node">
<title>Node21</title>
<g id="a_Node000021"><a xlink:title=" ">
<polygon fill="#e0e0e0" stroke="#999999" points="928.62,-185 865.38,-185 865.38,-165.75 928.62,-165.75 928.62,-185"/>
<text text-anchor="middle" x="897" y="-171.5" font-family="Helvetica,sans-Serif" font-size="10.00">TVector3.h</text>
</a>
</g>
</g>
<!-- Node9&#45;&gt;Node21 -->
<g id="edge25_Node000009_Node000021" class="edge">
<title>Node9&#45;&gt;Node21</title>
<g id="a_edge25_Node000009_Node000021"><a xlink:title=" ">
<path fill="none" stroke="#63b8ff" d="M991.66,-220.59C973.89,-212.29 947.28,-199.86 926.8,-190.29"/>
<polygon fill="#63b8ff" stroke="#63b8ff" points="928.35,-187.15 917.8,-186.09 925.38,-193.5 928.35,-187.15"/>
</a>
</g>
</g>
<!-- Node9&#45;&gt;Node22 -->
<g id="edge27_Node000009_Node000022" class="edge">
<title>Node9&#45;&gt;Node22</title>
<g id="a_edge27_Node000009_Node000022"><a xlink:title=" ">
<path fill="none" stroke="#63b8ff" d="M1025.25,-220.59C1037.8,-212.64 1056.33,-200.89 1071.14,-191.5"/>
<polygon fill="#63b8ff" stroke="#63b8ff" points="1072.83,-194.57 1079.4,-186.26 1069.08,-188.66 1072.83,-194.57"/>
</a>
</g>
</g>
<!-- Node23 -->
<g id="Node000023" class="node">
<title>Node23</title>
<g id="a_Node000023"><a xlink:title=" ">
<polygon fill="#e0e0e0" stroke="#999999" points="1011.75,-185 946.25,-185 946.25,-165.75 1011.75,-165.75 1011.75,-185"/>
<text text-anchor="middle" x="979" y="-171.5" font-family="Helvetica,sans-Serif" font-size="10.00">TRandom.h</text>
</a>
</g>
</g>
<!-- Node9&#45;&gt;Node23 -->
<g id="edge28_Node000009_Node000023" class="edge">
<title>Node9&#45;&gt;Node23</title>
<g id="a_edge28_Node000009_Node000023"><a xlink:title=" ">
<path fill="none" stroke="#63b8ff" d="M1005.72,-220.83C1001.53,-213.86 995.52,-203.87 990.27,-195.12"/>
<polygon fill="#63b8ff" stroke="#63b8ff" points="993.33,-193.43 985.18,-186.66 987.33,-197.03 993.33,-193.43"/>
</a>
</g>
</g>
<!-- Node9&#45;&gt;Node24 -->
<g id="edge29_Node000009_Node000024" class="edge">
<title>Node9&#45;&gt;Node24</title>
<g id="a_edge29_Node000009_Node000024"><a xlink:title=" ">
<path fill="none" stroke="#63b8ff" d="M1051,-223.9C1100.7,-216.55 1188.33,-202.86 1272.4,-185.41"/>
<polygon fill="#63b8ff" stroke="#63b8ff" points="1272.88,-188.89 1281.95,-183.41 1271.44,-182.04 1272.88,-188.89"/>
</a>
</g>
</g>
<!-- Node43 -->
<g id="Node000043" class="node">
<title>Node43</title>
<g id="a_Node000043"><a xlink:href="_t_transient_bits_8h.html" target="_top" xlink:title=" ">
<polygon fill="white" stroke="#666666" points="1265.62,-185 1178.38,-185 1178.38,-165.75 1265.62,-165.75 1265.62,-185"/>
<text text-anchor="middle" x="1222" y="-171.5" font-family="Helvetica,sans-Serif" font-size="10.00">TTransientBits.h</text>
</a>
</g>
</g>
<!-- Node9&#45;&gt;Node43 -->
<g id="edge58_Node000009_Node000043" class="edge">
<title>Node9&#45;&gt;Node43</title>
<g id="a_edge58_Node000009_Node000043"><a xlink:title=" ">
<path fill="none" stroke="#63b8ff" d="M1046.79,-220.59C1082.11,-211.68 1136.28,-198.01 1175.04,-188.23"/>
<polygon fill="#63b8ff" stroke="#63b8ff" points="1175.72,-191.66 1184.56,-185.82 1174.01,-184.88 1175.72,-191.66"/>
</a>
</g>
</g>
<!-- Node11 -->
<g id="Node000011" class="node">
<title>Node11</title>
<g id="a_Node000011"><a xlink:title=" ">
<polygon fill="#e0e0e0" stroke="#999999" points="199,-19.25 159,-19.25 159,0 199,0 199,-19.25"/>
<text text-anchor="middle" x="179" y="-5.75" font-family="Helvetica,sans-Serif" font-size="10.00">string</text>
</a>
</g>
</g>
<!-- Node10&#45;&gt;Node11 -->
<g id="edge13_Node000010_Node000011" class="edge">
<title>Node10&#45;&gt;Node11</title>
<g id="a_edge13_Node000010_Node000011"><a xlink:title=" ">
<path fill="none" stroke="#63b8ff" d="M466.32,-172.82C380.71,-168.42 154.96,-154.55 133,-129.75 106.43,-99.74 140.33,-52.7 162.54,-27.66"/>
<polygon fill="#63b8ff" stroke="#63b8ff" points="164.84,-30.33 169.04,-20.61 159.69,-25.59 164.84,-30.33"/>
</a>
</g>
</g>
<!-- Node12 -->
<g id="Node000012" class="node">
<title>Node12</title>
<g id="a_Node000012"><a xlink:title=" ">
<polygon fill="#e0e0e0" stroke="#999999" points="594.5,-129.75 551.5,-129.75 551.5,-110.5 594.5,-110.5 594.5,-129.75"/>
<text text-anchor="middle" x="573" y="-116.25" font-family="Helvetica,sans-Serif" font-size="10.00">cmath</text>
</a>
</g>
</g>
<!-- Node10&#45;&gt;Node12 -->
<g id="edge14_Node000010_Node000012" class="edge">
<title>Node10&#45;&gt;Node12</title>
<g id="a_edge14_Node000010_Node000012"><a xlink:title=" ">
<path fill="none" stroke="#63b8ff" d="M511.55,-165.34C522.46,-157.49 538.5,-145.95 551.46,-136.62"/>
<polygon fill="#63b8ff" stroke="#63b8ff" points="553.33,-139.59 559.4,-130.91 549.24,-133.91 553.33,-139.59"/>
</a>
</g>
</g>
<!-- Node13 -->
<g id="Node000013" class="node">
<title>Node13</title>
<g id="a_Node000013"><a xlink:title=" ">
<polygon fill="#e0e0e0" stroke="#999999" points="827.25,-129.75 788.75,-129.75 788.75,-110.5 827.25,-110.5 827.25,-129.75"/>
<text text-anchor="middle" x="808" y="-116.25" font-family="Helvetica,sans-Serif" font-size="10.00">utility</text>
</a>
</g>
</g>
<!-- Node10&#45;&gt;Node13 -->
<g id="edge15_Node000010_Node000013" class="edge">
<title>Node10&#45;&gt;Node13</title>
<g id="a_edge15_Node000010_Node000013"><a xlink:title=" ">
<path fill="none" stroke="#63b8ff" d="M531.78,-168.73C591.93,-158.36 719.15,-136.44 777.54,-126.37"/>
<polygon fill="#63b8ff" stroke="#63b8ff" points="777.83,-129.88 787.09,-124.73 776.64,-122.98 777.83,-129.88"/>
</a>
</g>
</g>
<!-- Node14 -->
<g id="Node000014" class="node">
<title>Node14</title>
<g id="a_Node000014"><a xlink:title=" ">
<polygon fill="#e0e0e0" stroke="#999999" points="695.38,-129.75 612.62,-129.75 612.62,-110.5 695.38,-110.5 695.38,-129.75"/>
<text text-anchor="middle" x="654" y="-116.25" font-family="Helvetica,sans-Serif" font-size="10.00">unordered_map</text>
</a>
</g>
</g>
<!-- Node10&#45;&gt;Node14 -->
<g id="edge16_Node000010_Node000014" class="edge">
<title>Node10&#45;&gt;Node14</title>
<g id="a_edge16_Node000010_Node000014"><a xlink:title=" ">
<path fill="none" stroke="#63b8ff" d="M525.29,-165.34C550.46,-156.7 588.65,-143.57 616.91,-133.87"/>
<polygon fill="#63b8ff" stroke="#63b8ff" points="617.83,-137.25 626.15,-130.69 615.55,-130.63 617.83,-137.25"/>
</a>
</g>
</g>
<!-- Node15 -->
<g id="Node000015" class="node">
<title>Node15</title>
<g id="a_Node000015"><a xlink:title=" ">
<polygon fill="#e0e0e0" stroke="#999999" points="305.5,-129.75 244.5,-129.75 244.5,-110.5 305.5,-110.5 305.5,-129.75"/>
<text text-anchor="middle" x="275" y="-116.25" font-family="Helvetica,sans-Serif" font-size="10.00">TNamed.h</text>
</a>
</g>
</g>
<!-- Node10&#45;&gt;Node15 -->
<g id="edge17_Node000010_Node000015" class="edge">
<title>Node10&#45;&gt;Node15</title>
<g id="a_edge17_Node000010_Node000015"><a xlink:title=" ">
<path fill="none" stroke="#63b8ff" d="M466.43,-166.63C426.89,-157.23 360.13,-141.36 316.82,-131.07"/>
<polygon fill="#63b8ff" stroke="#63b8ff" points="317.82,-127.71 307.28,-128.8 316.2,-134.52 317.82,-127.71"/>
</a>
</g>
</g>
<!-- Node16 -->
<g id="Node000016" class="node">
<title>Node16</title>
<g id="a_Node000016"><a xlink:title=" ">
<polygon fill="#e0e0e0" stroke="#999999" points="372.5,-129.75 323.5,-129.75 323.5,-110.5 372.5,-110.5 372.5,-129.75"/>
<text text-anchor="middle" x="348" y="-116.25" font-family="Helvetica,sans-Serif" font-size="10.00">TTree.h</text>
</a>
</g>
</g>
<!-- Node10&#45;&gt;Node16 -->
<g id="edge18_Node000010_Node000016" class="edge">
<title>Node10&#45;&gt;Node16</title>
<g id="a_edge18_Node000010_Node000016"><a xlink:title=" ">
<path fill="none" stroke="#63b8ff" d="M473.38,-165.34C448.76,-156.66 411.32,-143.45 383.76,-133.73"/>
<polygon fill="#63b8ff" stroke="#63b8ff" points="385.01,-130.46 374.41,-130.44 382.68,-137.07 385.01,-130.46"/>
</a>
</g>
</g>
<!-- Node17 -->
<g id="Node000017" class="node">
<title>Node17</title>
<g id="a_Node000017"><a xlink:title=" ">
<polygon fill="#e0e0e0" stroke="#999999" points="445.88,-129.75 390.12,-129.75 390.12,-110.5 445.88,-110.5 445.88,-129.75"/>
<text text-anchor="middle" x="418" y="-116.25" font-family="Helvetica,sans-Serif" font-size="10.00">TGraph.h</text>
</a>
</g>
</g>
<!-- Node10&#45;&gt;Node17 -->
<g id="edge19_Node000010_Node000017" class="edge">
<title>Node10&#45;&gt;Node17</title>
<g id="a_edge19_Node000010_Node000017"><a xlink:title=" ">
<path fill="none" stroke="#63b8ff" d="M485.26,-165.34C473.27,-157.46 455.63,-145.86 441.42,-136.52"/>
<polygon fill="#63b8ff" stroke="#63b8ff" points="443.35,-133.6 433.07,-131.03 439.51,-139.45 443.35,-133.6"/>
</a>
</g>
</g>
<!-- Node18 -->
<g id="Node000018" class="node">
<title>Node18</title>
<g id="a_Node000018"><a xlink:title=" ">
<polygon fill="#e0e0e0" stroke="#999999" points="533.62,-129.75 464.38,-129.75 464.38,-110.5 533.62,-110.5 533.62,-129.75"/>
<text text-anchor="middle" x="499" y="-116.25" font-family="Helvetica,sans-Serif" font-size="10.00">TClassRef.h</text>
</a>
</g>
</g>
<!-- Node10&#45;&gt;Node18 -->
<g id="edge20_Node000010_Node000018" class="edge">
<title>Node10&#45;&gt;Node18</title>
<g id="a_edge20_Node000010_Node000018"><a xlink:title=" ">
<path fill="none" stroke="#63b8ff" d="M499,-165.58C499,-159.07 499,-149.92 499,-141.62"/>
<polygon fill="#63b8ff" stroke="#63b8ff" points="502.5,-141.62 499,-131.62 495.5,-141.62 502.5,-141.62"/>
</a>
</g>
</g>
<!-- Node19 -->
<g id="Node000019" class="node">
<title>Node19</title>
<g id="a_Node000019"><a xlink:href="_t_priority_value_8h.html" target="_top" xlink:title=" ">
<polygon fill="white" stroke="#666666" points="226.12,-129.75 141.88,-129.75 141.88,-110.5 226.12,-110.5 226.12,-129.75"/>
<text text-anchor="middle" x="184" y="-116.25" font-family="Helvetica,sans-Serif" font-size="10.00">TPriorityValue.h</text>
</a>
</g>
</g>
<!-- Node10&#45;&gt;Node19 -->
<g id="edge21_Node000010_Node000019" class="edge">
<title>Node10&#45;&gt;Node19</title>
<g id="a_edge21_Node000010_Node000019"><a xlink:title=" ">
<path fill="none" stroke="#63b8ff" d="M466.18,-168.83C412,-159.67 303.32,-141.3 237.78,-130.22"/>
<polygon fill="#63b8ff" stroke="#63b8ff" points="238.4,-126.77 227.96,-128.56 237.23,-133.67 238.4,-126.77"/>
</a>
</g>
</g>
<!-- Node19&#45;&gt;Node2 -->
<g id="edge24_Node000019_Node000002" class="edge">
<title>Node19&#45;&gt;Node2</title>
<g id="a_edge24_Node000019_Node000002"><a xlink:title=" ">
<path fill="none" stroke="#63b8ff" d="M226.53,-111.79C229.73,-111.32 232.91,-110.89 236,-110.5 421.38,-87.29 645.12,-72.71 728.02,-67.76"/>
<polygon fill="#63b8ff" stroke="#63b8ff" points="728.14,-71.26 737.92,-67.18 727.73,-64.27 728.14,-71.26"/>
</a>
</g>
</g>
<!-- Node19&#45;&gt;Node11 -->
<g id="edge23_Node000019_Node000011" class="edge">
<title>Node19&#45;&gt;Node11</title>
<g id="a_edge23_Node000019_Node000011"><a xlink:title=" ">
<path fill="none" stroke="#63b8ff" d="M183.59,-110.25C182.8,-93 181.03,-54.58 179.93,-30.81"/>
<polygon fill="#63b8ff" stroke="#63b8ff" points="183.44,-30.97 179.48,-21.14 176.45,-31.29 183.44,-30.97"/>
</a>
</g>
</g>
<!-- Node20 -->
<g id="Node000020" class="node">
<title>Node20</title>
<g id="a_Node000020"><a xlink:title=" ">
<polygon fill="#e0e0e0" stroke="#999999" points="258.62,-74.5 207.38,-74.5 207.38,-55.25 258.62,-55.25 258.62,-74.5"/>
<text text-anchor="middle" x="233" y="-61" font-family="Helvetica,sans-Serif" font-size="10.00">ostream</text>
</a>
</g>
</g>
<!-- Node19&#45;&gt;Node20 -->
<g id="edge22_Node000019_Node000020" class="edge">
<title>Node19&#45;&gt;Node20</title>
<g id="a_edge22_Node000019_Node000020"><a xlink:title=" ">
<path fill="none" stroke="#63b8ff" d="M192.09,-110.33C198.86,-102.98 208.72,-92.26 217.06,-83.19"/>
<polygon fill="#63b8ff" stroke="#63b8ff" points="219.51,-85.7 223.71,-75.97 214.36,-80.96 219.51,-85.7"/>
</a>
</g>
</g>
<!-- Node24&#45;&gt;Node3 -->
<g id="edge32_Node000024_Node000003" class="edge">
<title>Node24&#45;&gt;Node3</title>
<g id="a_edge32_Node000024_Node000003"><a xlink:title=" ">
<path fill="none" stroke="#63b8ff" d="M1334.38,-172.77C1385.67,-168.98 1498.93,-157.58 1524,-129.75 1548.39,-102.67 1545,-56.82 1540.44,-30.6"/>
<polygon fill="#63b8ff" stroke="#63b8ff" points="1543.91,-30.08 1538.52,-20.96 1537.04,-31.45 1543.91,-30.08"/>
</a>
</g>
</g>
<!-- Node24&#45;&gt;Node7 -->
<g id="edge33_Node000024_Node000007" class="edge">
<title>Node24&#45;&gt;Node7</title>
<g id="a_edge33_Node000024_Node000007"><a xlink:title=" ">
<path fill="none" stroke="#63b8ff" d="M1292.5,-165.38C1268.13,-152.3 1220.86,-127.72 1179,-110.5 1148.45,-97.94 1112.94,-86.16 1086.3,-77.86"/>
<polygon fill="#63b8ff" stroke="#63b8ff" points="1087.5,-74.57 1076.91,-74.97 1085.44,-81.26 1087.5,-74.57"/>
</a>
</g>
</g>
<!-- Node24&#45;&gt;Node13 -->
<g id="edge31_Node000024_Node000013" class="edge">
<title>Node24&#45;&gt;Node13</title>
<g id="a_edge31_Node000024_Node000013"><a xlink:title=" ">
<path fill="none" stroke="#63b8ff" d="M1283.47,-167.45C1280.63,-166.81 1277.76,-166.23 1275,-165.75 1112.33,-137.52 914.46,-126.02 839.13,-122.45"/>
<polygon fill="#63b8ff" stroke="#63b8ff" points="839.38,-118.96 829.23,-122 839.06,-125.95 839.38,-118.96"/>
</a>
</g>
</g>
<!-- Node25 -->
<g id="Node000025" class="node">
<title>Node25</title>
<g id="a_Node000025"><a xlink:title=" ">
<polygon fill="#e0e0e0" stroke="#999999" points="1336.38,-129.75 1301.62,-129.75 1301.62,-110.5 1336.38,-110.5 1336.38,-129.75"/>
<text text-anchor="middle" x="1319" y="-116.25" font-family="Helvetica,sans-Serif" font-size="10.00">map</text>
</a>
</g>
</g>
<!-- Node24&#45;&gt;Node25 -->
<g id="edge30_Node000024_Node000025" class="edge">
<title>Node24&#45;&gt;Node25</title>
<g id="a_edge30_Node000024_Node000025"><a xlink:title=" ">
<path fill="none" stroke="#63b8ff" d="M1310.65,-165.58C1311.89,-158.99 1313.63,-149.71 1315.21,-141.32"/>
<polygon fill="#63b8ff" stroke="#63b8ff" points="1318.63,-142.07 1317.03,-131.6 1311.75,-140.78 1318.63,-142.07"/>
</a>
</g>
</g>
<!-- Node26 -->
<g id="Node000026" class="node">
<title>Node26</title>
<g id="a_Node000026"><a xlink:title=" ">
<polygon fill="#e0e0e0" stroke="#999999" points="1427.12,-129.75 1354.88,-129.75 1354.88,-110.5 1427.12,-110.5 1427.12,-129.75"/>
<text text-anchor="middle" x="1391" y="-116.25" font-family="Helvetica,sans-Serif" font-size="10.00">TCollection.h</text>
</a>
</g>
</g>
<!-- Node24&#45;&gt;Node26 -->
<g id="edge34_Node000024_Node000026" class="edge">
<title>Node24&#45;&gt;Node26</title>
<g id="a_edge34_Node000024_Node000026"><a xlink:title=" ">
<path fill="none" stroke="#63b8ff" d="M1322.91,-165.34C1335.16,-157.39 1353.25,-145.64 1367.71,-136.25"/>
<polygon fill="#63b8ff" stroke="#63b8ff" points="1369.27,-139.41 1375.75,-131.03 1365.46,-133.54 1369.27,-139.41"/>
</a>
</g>
</g>
<!-- Node27 -->
<g id="Node000027" class="node">
<title>Node27</title>
<g id="a_Node000027"><a xlink:href="_globals_8h.html" target="_top" xlink:title=" ">
<polygon fill="white" stroke="#666666" points="1166.25,-74.5 1109.75,-74.5 1109.75,-55.25 1166.25,-55.25 1166.25,-74.5"/>
<text text-anchor="middle" x="1138" y="-61" font-family="Helvetica,sans-Serif" font-size="10.00">Globals.h</text>
</a>
</g>
</g>
<!-- Node24&#45;&gt;Node27 -->
<g id="edge35_Node000024_Node000027" class="edge">
<title>Node24&#45;&gt;Node27</title>
<g id="a_edge35_Node000024_Node000027"><a xlink:title=" ">
<path fill="none" stroke="#63b8ff" d="M1302.74,-165.35C1292.91,-151.78 1272.64,-126.06 1250,-110.5 1227.86,-95.29 1199.78,-84.11 1177.27,-76.75"/>
<polygon fill="#63b8ff" stroke="#63b8ff" points="1178.43,-73.45 1167.84,-73.8 1176.34,-80.13 1178.43,-73.45"/>
</a>
</g>
</g>
<!-- Node38 -->
<g id="Node000038" class="node">
<title>Node38</title>
<g id="a_Node000038"><a xlink:href="_t_singleton_8h.html" target="_top" xlink:title=" ">
<polygon fill="white" stroke="#666666" points="1515,-129.75 1445,-129.75 1445,-110.5 1515,-110.5 1515,-129.75"/>
<text text-anchor="middle" x="1480" y="-116.25" font-family="Helvetica,sans-Serif" font-size="10.00">TSingleton.h</text>
</a>
</g>
</g>
<!-- Node24&#45;&gt;Node38 -->
<g id="edge50_Node000024_Node000038" class="edge">
<title>Node24&#45;&gt;Node38</title>
<g id="a_edge50_Node000024_Node000038"><a xlink:title=" ">
<path fill="none" stroke="#63b8ff" d="M1334.6,-166.4C1362.44,-157.73 1407.3,-143.76 1439.83,-133.63"/>
<polygon fill="#63b8ff" stroke="#63b8ff" points="1440.83,-136.99 1449.34,-130.67 1438.75,-130.31 1440.83,-136.99"/>
</a>
</g>
</g>
<!-- Node27&#45;&gt;Node3 -->
<g id="edge36_Node000027_Node000003" class="edge">
<title>Node27&#45;&gt;Node3</title>
<g id="a_edge36_Node000027_Node000003"><a xlink:title=" ">
<path fill="none" stroke="#63b8ff" d="M1166.66,-58.23C1172.4,-57.18 1178.38,-56.13 1184,-55.25 1309.69,-35.52 1341.78,-35.25 1468,-19.25 1477.57,-18.04 1487.89,-16.73 1497.54,-15.5"/>
<polygon fill="#63b8ff" stroke="#63b8ff" points="1497.89,-18.99 1507.37,-14.26 1497,-12.04 1497.89,-18.99"/>
</a>
</g>
</g>
<!-- Node27&#45;&gt;Node4 -->
<g id="edge40_Node000027_Node000004" class="edge">
<title>Node27&#45;&gt;Node4</title>
<g id="a_edge40_Node000027_Node000004"><a xlink:title=" ">
<path fill="none" stroke="#63b8ff" d="M1109.5,-58.65C1101.29,-57.33 1092.32,-56.06 1084,-55.25 638.27,-11.85 521.25,-75.84 77,-19.25 74.83,-18.97 72.61,-18.64 70.37,-18.25"/>
<polygon fill="#63b8ff" stroke="#63b8ff" points="71.31,-14.87 60.82,-16.37 69.95,-21.74 71.31,-14.87"/>
</a>
</g>
</g>
<!-- Node27&#45;&gt;Node6 -->
<g id="edge46_Node000027_Node000006" class="edge">
<title>Node27&#45;&gt;Node6</title>
<g id="a_edge46_Node000027_Node000006"><a xlink:title=" ">
<path fill="none" stroke="#63b8ff" d="M1109.5,-58.67C1101.29,-57.35 1092.31,-56.07 1084,-55.25 670.59,-14.42 562.02,-72.31 150,-19.25 149.17,-19.14 148.34,-19.03 147.5,-18.91"/>
<polygon fill="#63b8ff" stroke="#63b8ff" points="148.43,-15.51 137.97,-17.21 147.2,-22.41 148.43,-15.51"/>
</a>
</g>
</g>
<!-- Node27&#45;&gt;Node11 -->
<g id="edge39_Node000027_Node000011" class="edge">
<title>Node27&#45;&gt;Node11</title>
<g id="a_edge39_Node000027_Node000011"><a xlink:title=" ">
<path fill="none" stroke="#63b8ff" d="M1109.49,-58.73C1101.29,-57.41 1092.31,-56.12 1084,-55.25 743.24,-19.74 327.26,-12.35 210.69,-10.94"/>
<polygon fill="#63b8ff" stroke="#63b8ff" points="211.01,-7.44 200.97,-10.83 210.93,-14.44 211.01,-7.44"/>
</a>
</g>
</g>
<!-- Node28 -->
<g id="Node000028" class="node">
<title>Node28</title>
<g id="a_Node000028"><a xlink:title=" ">
<polygon fill="#e0e0e0" stroke="#999999" points="826.88,-19.25 777.12,-19.25 777.12,0 826.88,0 826.88,-19.25"/>
<text text-anchor="middle" x="802" y="-5.75" font-family="Helvetica,sans-Serif" font-size="10.00">iomanip</text>
</a>
</g>
</g>
<!-- Node27&#45;&gt;Node28 -->
<g id="edge37_Node000027_Node000028" class="edge">
<title>Node27&#45;&gt;Node28</title>
<g id="a_edge37_Node000027_Node000028"><a xlink:title=" ">
<path fill="none" stroke="#63b8ff" d="M1109.43,-59.23C1101.22,-57.92 1092.26,-56.51 1084,-55.25 977.44,-39.01 947.17,-40.83 838.33,-19.53"/>
<polygon fill="#63b8ff" stroke="#63b8ff" points="839.16,-16.13 828.67,-17.62 837.8,-23 839.16,-16.13"/>
</a>
</g>
</g>
<!-- Node29 -->
<g id="Node000029" class="node">
<title>Node29</title>
<g id="a_Node000029"><a xlink:title=" ">
<polygon fill="#e0e0e0" stroke="#999999" points="903,-19.25 845,-19.25 845,0 903,0 903,-19.25"/>
<text text-anchor="middle" x="874" y="-5.75" font-family="Helvetica,sans-Serif" font-size="10.00">stdexcept</text>
</a>
</g>
</g>
<!-- Node27&#45;&gt;Node29 -->
<g id="edge38_Node000027_Node000029" class="edge">
<title>Node27&#45;&gt;Node29</title>
<g id="a_edge38_Node000027_Node000029"><a xlink:title=" ">
<path fill="none" stroke="#63b8ff" d="M1109.41,-58.5C1068.48,-50.74 990.57,-35.76 914.63,-19.76"/>
<polygon fill="#63b8ff" stroke="#63b8ff" points="915.43,-16.35 904.92,-17.71 913.98,-23.2 915.43,-16.35"/>
</a>
</g>
</g>
<!-- Node30 -->
<g id="Node000030" class="node">
<title>Node30</title>
<g id="a_Node000030"><a xlink:title=" ">
<polygon fill="#e0e0e0" stroke="#999999" points="965.25,-19.25 920.75,-19.25 920.75,0 965.25,0 965.25,-19.25"/>
<text text-anchor="middle" x="943" y="-5.75" font-family="Helvetica,sans-Serif" font-size="10.00">cstdlib</text>
</a>
</g>
</g>
<!-- Node27&#45;&gt;Node30 -->
<g id="edge41_Node000027_Node000030" class="edge">
<title>Node27&#45;&gt;Node30</title>
<g id="a_edge41_Node000027_Node000030"><a xlink:title=" ">
<path fill="none" stroke="#63b8ff" d="M1109.54,-56.18C1078.93,-47.9 1028.55,-34.23 976.47,-19.92"/>
<polygon fill="#63b8ff" stroke="#63b8ff" points="977.71,-16.63 967.14,-17.35 975.86,-23.38 977.71,-16.63"/>
</a>
</g>
</g>
<!-- Node31 -->
<g id="Node000031" class="node">
<title>Node31</title>
<g id="a_Node000031"><a xlink:title=" ">
<polygon fill="#e0e0e0" stroke="#999999" points="1042.75,-19.25 983.25,-19.25 983.25,0 1042.75,0 1042.75,-19.25"/>
<text text-anchor="middle" x="1013" y="-5.75" font-family="Helvetica,sans-Serif" font-size="10.00">execinfo.h</text>
</a>
</g>
</g>
<!-- Node27&#45;&gt;Node31 -->
<g id="edge42_Node000027_Node000031" class="edge">
<title>Node27&#45;&gt;Node31</title>
<g id="a_edge42_Node000027_Node000031"><a xlink:title=" ">
<path fill="none" stroke="#63b8ff" d="M1116.8,-54.84C1097.04,-46.43 1067.33,-33.77 1044.75,-24.15"/>
<polygon fill="#63b8ff" stroke="#63b8ff" points="1046.27,-20.99 1035.7,-20.3 1043.53,-27.43 1046.27,-20.99"/>
</a>
</g>
</g>
<!-- Node32 -->
<g id="Node000032" class="node">
<title>Node32</title>
<g id="a_Node000032"><a xlink:title=" ">
<polygon fill="#e0e0e0" stroke="#999999" points="1111.25,-19.25 1060.75,-19.25 1060.75,0 1111.25,0 1111.25,-19.25"/>
<text text-anchor="middle" x="1086" y="-5.75" font-family="Helvetica,sans-Serif" font-size="10.00">cxxabi.h</text>
</a>
</g>
</g>
<!-- Node27&#45;&gt;Node32 -->
<g id="edge43_Node000027_Node000032" class="edge">
<title>Node27&#45;&gt;Node32</title>
<g id="a_edge43_Node000027_Node000032"><a xlink:title=" ">
<path fill="none" stroke="#63b8ff" d="M1129.41,-55.08C1122.16,-47.65 1111.55,-36.79 1102.63,-27.66"/>
<polygon fill="#63b8ff" stroke="#63b8ff" points="1105.32,-25.4 1095.83,-20.69 1100.31,-30.29 1105.32,-25.4"/>
</a>
</g>
</g>
<!-- Node33 -->
<g id="Node000033" class="node">
<title>Node33</title>
<g id="a_Node000033"><a xlink:title=" ">
<polygon fill="#e0e0e0" stroke="#999999" points="1180.62,-19.25 1129.38,-19.25 1129.38,0 1180.62,0 1180.62,-19.25"/>
<text text-anchor="middle" x="1155" y="-5.75" font-family="Helvetica,sans-Serif" font-size="10.00">sstream</text>
</a>
</g>
</g>
<!-- Node27&#45;&gt;Node33 -->
<g id="edge44_Node000027_Node000033" class="edge">
<title>Node27&#45;&gt;Node33</title>
<g id="a_edge44_Node000027_Node000033"><a xlink:title=" ">
<path fill="none" stroke="#63b8ff" d="M1140.81,-55.08C1142.94,-48.42 1145.94,-38.99 1148.64,-30.53"/>
<polygon fill="#63b8ff" stroke="#63b8ff" points="1151.96,-31.64 1151.67,-21.05 1145.3,-29.51 1151.96,-31.64"/>
</a>
</g>
</g>
<!-- Node34 -->
<g id="Node000034" class="node">
<title>Node34</title>
<g id="a_Node000034"><a xlink:title=" ">
<polygon fill="#e0e0e0" stroke="#999999" points="1235.5,-19.25 1198.5,-19.25 1198.5,0 1235.5,0 1235.5,-19.25"/>
<text text-anchor="middle" x="1217" y="-5.75" font-family="Helvetica,sans-Serif" font-size="10.00">array</text>
</a>
</g>
</g>
<!-- Node27&#45;&gt;Node34 -->
<g id="edge45_Node000027_Node000034" class="edge">
<title>Node27&#45;&gt;Node34</title>
<g id="a_edge45_Node000027_Node000034"><a xlink:title=" ">
<path fill="none" stroke="#63b8ff" d="M1151.4,-54.84C1163.09,-46.96 1180.3,-35.36 1194.16,-26.02"/>
<polygon fill="#63b8ff" stroke="#63b8ff" points="1195.94,-29.04 1202.28,-20.55 1192.03,-23.24 1195.94,-29.04"/>
</a>
</g>
</g>
<!-- Node35 -->
<g id="Node000035" class="node">
<title>Node35</title>
<g id="a_Node000035"><a xlink:title=" ">
<polygon fill="#e0e0e0" stroke="#999999" points="1302.88,-19.25 1253.12,-19.25 1253.12,0 1302.88,0 1302.88,-19.25"/>
<text text-anchor="middle" x="1278" y="-5.75" font-family="Helvetica,sans-Serif" font-size="10.00">unistd.h</text>
</a>
</g>
</g>
<!-- Node27&#45;&gt;Node35 -->
<g id="edge47_Node000027_Node000035" class="edge">
<title>Node27&#45;&gt;Node35</title>
<g id="a_edge47_Node000027_Node000035"><a xlink:title=" ">
<path fill="none" stroke="#63b8ff" d="M1161.75,-54.84C1184.17,-46.31 1218.06,-33.42 1243.47,-23.76"/>
<polygon fill="#63b8ff" stroke="#63b8ff" points="1244.62,-27.07 1252.72,-20.24 1242.13,-20.52 1244.62,-27.07"/>
</a>
</g>
</g>
<!-- Node36 -->
<g id="Node000036" class="node">
<title>Node36</title>
<g id="a_Node000036"><a xlink:title=" ">
<polygon fill="#e0e0e0" stroke="#999999" points="1380.75,-19.25 1321.25,-19.25 1321.25,0 1380.75,0 1380.75,-19.25"/>
<text text-anchor="middle" x="1351" y="-5.75" font-family="Helvetica,sans-Serif" font-size="10.00">sys/wait.h</text>
</a>
</g>
</g>
<!-- Node27&#45;&gt;Node36 -->
<g id="edge48_Node000027_Node000036" class="edge">
<title>Node27&#45;&gt;Node36</title>
<g id="a_edge48_Node000027_Node000036"><a xlink:title=" ">
<path fill="none" stroke="#63b8ff" d="M1166.73,-56.69C1203.65,-47.46 1268.01,-31.37 1310.05,-20.86"/>
<polygon fill="#63b8ff" stroke="#63b8ff" points="1310.7,-24.31 1319.55,-18.49 1309,-17.52 1310.7,-24.31"/>
</a>
</g>
</g>
<!-- Node37 -->
<g id="Node000037" class="node">
<title>Node37</title>
<g id="a_Node000037"><a xlink:title=" ">
<polygon fill="#e0e0e0" stroke="#999999" points="1459.12,-19.25 1398.88,-19.25 1398.88,0 1459.12,0 1459.12,-19.25"/>
<text text-anchor="middle" x="1429" y="-5.75" font-family="Helvetica,sans-Serif" font-size="10.00">sys/prctl.h</text>
</a>
</g>
</g>
<!-- Node27&#45;&gt;Node37 -->
<g id="edge49_Node000027_Node000037" class="edge">
<title>Node27&#45;&gt;Node37</title>
<g id="a_edge49_Node000027_Node000037"><a xlink:title=" ">
<path fill="none" stroke="#63b8ff" d="M1166.7,-58.44C1172.43,-57.37 1178.4,-56.26 1184,-55.25 1271.97,-39.32 1296.95,-37.42 1387.7,-19.63"/>
<polygon fill="#63b8ff" stroke="#63b8ff" points="1388.18,-23.11 1397.31,-17.74 1386.82,-16.24 1388.18,-23.11"/>
</a>
</g>
</g>
<!-- Node38&#45;&gt;Node3 -->
<g id="edge51_Node000038_Node000003" class="edge">
<title>Node38&#45;&gt;Node3</title>
<g id="a_edge51_Node000038_Node000003"><a xlink:title=" ">
<path fill="none" stroke="#63b8ff" d="M1484.58,-110.25C1493.61,-92.76 1513.86,-53.52 1526.08,-29.84"/>
<polygon fill="#63b8ff" stroke="#63b8ff" points="1529.18,-31.46 1530.66,-20.97 1522.96,-28.25 1529.18,-31.46"/>
</a>
</g>
</g>
<!-- Node38&#45;&gt;Node7 -->
<g id="edge52_Node000038_Node000007" class="edge">
<title>Node38&#45;&gt;Node7</title>
<g id="a_edge52_Node000038_Node000007"><a xlink:title=" ">
<path fill="none" stroke="#63b8ff" d="M1444.5,-111.89C1441.63,-111.39 1438.77,-110.92 1436,-110.5 1287.94,-88.08 1249.46,-94.11 1101,-74.5 1096.31,-73.88 1091.4,-73.18 1086.54,-72.46"/>
<polygon fill="#63b8ff" stroke="#63b8ff" points="1087.27,-69.03 1076.86,-70.98 1086.21,-75.95 1087.27,-69.03"/>
</a>
</g>
</g>
<!-- Node38&#45;&gt;Node27 -->
<g id="edge57_Node000038_Node000027" class="edge">
<title>Node38&#45;&gt;Node27</title>
<g id="a_edge57_Node000038_Node000027"><a xlink:title=" ">
<path fill="none" stroke="#63b8ff" d="M1444.96,-112.11C1441.93,-111.55 1438.91,-111 1436,-110.5 1343.84,-94.57 1235.06,-79.13 1177.83,-71.26"/>
<polygon fill="#63b8ff" stroke="#63b8ff" points="1178.3,-67.79 1167.92,-69.9 1177.35,-74.73 1178.3,-67.79"/>
</a>
</g>
</g>
<!-- Node39 -->
<g id="Node000039" class="node">
<title>Node39</title>
<g id="a_Node000039"><a xlink:title=" ">
<polygon fill="#e0e0e0" stroke="#999999" points="1293.88,-74.5 1226.12,-74.5 1226.12,-55.25 1293.88,-55.25 1293.88,-74.5"/>
<text text-anchor="middle" x="1260" y="-61" font-family="Helvetica,sans-Serif" font-size="10.00">TDirectory.h</text>
</a>
</g>
</g>
<!-- Node38&#45;&gt;Node39 -->
<g id="edge53_Node000038_Node000039" class="edge">
<title>Node38&#45;&gt;Node39</title>
<g id="a_edge53_Node000038_Node000039"><a xlink:title=" ">
<path fill="none" stroke="#63b8ff" d="M1444.65,-110.57C1406.79,-101.41 1346.6,-86.84 1305.29,-76.84"/>
<polygon fill="#63b8ff" stroke="#63b8ff" points="1306.19,-73.45 1295.64,-74.5 1304.54,-80.26 1306.19,-73.45"/>
</a>
</g>
</g>
<!-- Node40 -->
<g id="Node000040" class="node">
<title>Node40</title>
<g id="a_Node000040"><a xlink:title=" ">
<polygon fill="#e0e0e0" stroke="#999999" points="1357.62,-74.5 1312.38,-74.5 1312.38,-55.25 1357.62,-55.25 1357.62,-74.5"/>
<text text-anchor="middle" x="1335" y="-61" font-family="Helvetica,sans-Serif" font-size="10.00">TFile.h</text>
</a>
</g>
</g>
<!-- Node38&#45;&gt;Node40 -->
<g id="edge54_Node000038_Node000040" class="edge">
<title>Node38&#45;&gt;Node40</title>
<g id="a_edge54_Node000038_Node000040"><a xlink:title=" ">
<path fill="none" stroke="#63b8ff" d="M1455.4,-110.09C1431.51,-101.32 1395.04,-87.93 1368.5,-78.18"/>
<polygon fill="#63b8ff" stroke="#63b8ff" points="1369.82,-74.93 1359.22,-74.77 1367.4,-81.5 1369.82,-74.93"/>
</a>
</g>
</g>
<!-- Node41 -->
<g id="Node000041" class="node">
<title>Node41</title>
<g id="a_Node000041"><a xlink:title=" ">
<polygon fill="#e0e0e0" stroke="#999999" points="1422,-74.5 1376,-74.5 1376,-55.25 1422,-55.25 1422,-74.5"/>
<text text-anchor="middle" x="1399" y="-61" font-family="Helvetica,sans-Serif" font-size="10.00">TList.h</text>
</a>
</g>
</g>
<!-- Node38&#45;&gt;Node41 -->
<g id="edge55_Node000038_Node000041" class="edge">
<title>Node38&#45;&gt;Node41</title>
<g id="a_edge55_Node000038_Node000041"><a xlink:title=" ">
<path fill="none" stroke="#63b8ff" d="M1466.26,-110.09C1454.27,-102.21 1436.63,-90.61 1422.42,-81.27"/>
<polygon fill="#63b8ff" stroke="#63b8ff" points="1424.35,-78.35 1414.07,-75.78 1420.51,-84.2 1424.35,-78.35"/>
</a>
</g>
</g>
<!-- Node42 -->
<g id="Node000042" class="node">
<title>Node42</title>
<g id="a_Node000042"><a xlink:title=" ">
<polygon fill="#e0e0e0" stroke="#999999" points="1486,-74.5 1440,-74.5 1440,-55.25 1486,-55.25 1486,-74.5"/>
<text text-anchor="middle" x="1463" y="-61" font-family="Helvetica,sans-Serif" font-size="10.00">TKey.h</text>
</a>
</g>
</g>
<!-- Node38&#45;&gt;Node42 -->
<g id="edge56_Node000038_Node000042" class="edge">
<title>Node38&#45;&gt;Node42</title>
<g id="a_edge56_Node000038_Node000042"><a xlink:title=" ">
<path fill="none" stroke="#63b8ff" d="M1477.19,-110.33C1475.06,-103.67 1472.06,-94.24 1469.36,-85.78"/>
<polygon fill="#63b8ff" stroke="#63b8ff" points="1472.7,-84.76 1466.33,-76.3 1466.04,-86.89 1472.7,-84.76"/>
</a>
</g>
</g>
<!-- Node43&#45;&gt;Node3 -->
<g id="edge59_Node000043_Node000003" class="edge">
<title>Node43&#45;&gt;Node3</title>
<g id="a_edge59_Node000043_Node000003"><a xlink:title=" ">
<path fill="none" stroke="#63b8ff" d="M1218.03,-165.57C1208.92,-143.84 1189.29,-87.11 1217,-55.25 1219.3,-52.61 1412.94,-26.83 1497.37,-15.7"/>
<polygon fill="#63b8ff" stroke="#63b8ff" points="1497.8,-19.17 1507.26,-14.4 1496.89,-12.23 1497.8,-19.17"/>
</a>
</g>
</g>
<!-- Node44 -->
<g id="Node000044" class="node">
<title>Node44</title>
<g id="a_Node000044"><a xlink:title=" ">
<polygon fill="#e0e0e0" stroke="#999999" points="1169.88,-129.75 1096.12,-129.75 1096.12,-110.5 1169.88,-110.5 1169.88,-129.75"/>
<text text-anchor="middle" x="1133" y="-116.25" font-family="Helvetica,sans-Serif" font-size="10.00">RtypesCore.h</text>
</a>
</g>
</g>
<!-- Node43&#45;&gt;Node44 -->
<g id="edge60_Node000043_Node000044" class="edge">
<title>Node43&#45;&gt;Node44</title>
<g id="a_edge60_Node000043_Node000044"><a xlink:title=" ">
<path fill="none" stroke="#63b8ff" d="M1206.9,-165.34C1193.48,-157.31 1173.59,-145.41 1157.83,-135.98"/>
<polygon fill="#63b8ff" stroke="#63b8ff" points="1159.85,-133.11 1149.47,-130.98 1156.25,-139.12 1159.85,-133.11"/>
</a>
</g>
</g>
</g>
</svg>
