<?xml version="1.0" encoding="UTF-8" standalone="no"?>
<!DOCTYPE svg PUBLIC "-//W3C//DTD SVG 1.1//EN"
 "http://www.w3.org/Graphics/SVG/1.1/DTD/svg11.dtd">
<!-- Generated by graphviz version 12.2.0 (20241103.1931)
 -->
<!-- Title: TXMLOdb.h Pages: 1 -->
<svg width="949pt" height="138pt"
 viewBox="0.00 0.00 949.12 137.75" xmlns="http://www.w3.org/2000/svg" xmlns:xlink="http://www.w3.org/1999/xlink">
<g id="graph0" class="graph" transform="scale(1 1) rotate(0) translate(4 133.75)">
<title>TXMLOdb.h</title>
<!-- Node1 -->
<g id="Node000001" class="node">
<title>Node1</title>
<g id="a_Node000001"><a xlink:title=" ">
<polygon fill="#999999" stroke="#666666" points="468.5,-129.75 400,-129.75 400,-110.5 468.5,-110.5 468.5,-129.75"/>
<text text-anchor="middle" x="434.25" y="-116.25" font-family="Helvetica,sans-Serif" font-size="10.00">TXMLOdb.h</text>
</a>
</g>
</g>
<!-- Node2 -->
<g id="Node000002" class="node">
<title>Node2</title>
<g id="a_Node000002"><a xlink:title=" ">
<polygon fill="#e0e0e0" stroke="#999999" points="44.5,-19.25 0,-19.25 0,0 44.5,0 44.5,-19.25"/>
<text text-anchor="middle" x="22.25" y="-5.75" font-family="Helvetica,sans-Serif" font-size="10.00">cstdlib</text>
</a>
</g>
</g>
<!-- Node1&#45;&gt;Node2 -->
<g id="edge1_Node000001_Node000002" class="edge">
<title>Node1&#45;&gt;Node2</title>
<g id="a_edge1_Node000001_Node000002"><a xlink:title=" ">
<path fill="none" stroke="#63b8ff" d="M399.68,-113.86C354.88,-106.69 274.53,-92.64 207.25,-74.5 153.14,-59.91 91.96,-37.61 55.28,-23.59"/>
<polygon fill="#63b8ff" stroke="#63b8ff" points="56.72,-20.39 46.13,-20.06 54.21,-26.92 56.72,-20.39"/>
</a>
</g>
</g>
<!-- Node3 -->
<g id="Node000003" class="node">
<title>Node3</title>
<g id="a_Node000003"><a xlink:title=" ">
<polygon fill="#e0e0e0" stroke="#999999" points="104.38,-19.25 62.12,-19.25 62.12,0 104.38,0 104.38,-19.25"/>
<text text-anchor="middle" x="83.25" y="-5.75" font-family="Helvetica,sans-Serif" font-size="10.00">cstdio</text>
</a>
</g>
</g>
<!-- Node1&#45;&gt;Node3 -->
<g id="edge2_Node000001_Node000003" class="edge">
<title>Node1&#45;&gt;Node3</title>
<g id="a_edge2_Node000001_Node000003"><a xlink:title=" ">
<path fill="none" stroke="#63b8ff" d="M399.82,-110.71C365.91,-102.23 312.73,-88.45 267.25,-74.5 213.34,-57.96 151.6,-35.87 115.09,-22.47"/>
<polygon fill="#63b8ff" stroke="#63b8ff" points="116.62,-19.31 106.03,-19.13 114.2,-25.88 116.62,-19.31"/>
</a>
</g>
</g>
<!-- Node4 -->
<g id="Node000004" class="node">
<title>Node4</title>
<g id="a_Node000004"><a xlink:title=" ">
<polygon fill="#e0e0e0" stroke="#999999" points="458.75,-74.5 409.75,-74.5 409.75,-55.25 458.75,-55.25 458.75,-74.5"/>
<text text-anchor="middle" x="434.25" y="-61" font-family="Helvetica,sans-Serif" font-size="10.00">fstream</text>
</a>
</g>
</g>
<!-- Node1&#45;&gt;Node4 -->
<g id="edge3_Node000001_Node000004" class="edge">
<title>Node1&#45;&gt;Node4</title>
<g id="a_edge3_Node000001_Node000004"><a xlink:title=" ">
<path fill="none" stroke="#63b8ff" d="M434.25,-110.33C434.25,-103.82 434.25,-94.67 434.25,-86.37"/>
<polygon fill="#63b8ff" stroke="#63b8ff" points="437.75,-86.37 434.25,-76.37 430.75,-86.37 437.75,-86.37"/>
</a>
</g>
</g>
<!-- Node5 -->
<g id="Node000005" class="node">
<title>Node5</title>
<g id="a_Node000005"><a xlink:title=" ">
<polygon fill="#e0e0e0" stroke="#999999" points="162.25,-19.25 122.25,-19.25 122.25,0 162.25,0 162.25,-19.25"/>
<text text-anchor="middle" x="142.25" y="-5.75" font-family="Helvetica,sans-Serif" font-size="10.00">string</text>
</a>
</g>
</g>
<!-- Node1&#45;&gt;Node5 -->
<g id="edge4_Node000001_Node000005" class="edge">
<title>Node1&#45;&gt;Node5</title>
<g id="a_edge4_Node000001_Node000005"><a xlink:title=" ">
<path fill="none" stroke="#63b8ff" d="M409.86,-110.06C356.91,-90.39 231.55,-43.81 173.17,-22.11"/>
<polygon fill="#63b8ff" stroke="#63b8ff" points="174.44,-18.85 163.84,-18.65 172,-25.41 174.44,-18.85"/>
</a>
</g>
</g>
<!-- Node6 -->
<g id="Node000006" class="node">
<title>Node6</title>
<g id="a_Node000006"><a xlink:title=" ">
<polygon fill="#e0e0e0" stroke="#999999" points="519.75,-74.5 476.75,-74.5 476.75,-55.25 519.75,-55.25 519.75,-74.5"/>
<text text-anchor="middle" x="498.25" y="-61" font-family="Helvetica,sans-Serif" font-size="10.00">vector</text>
</a>
</g>
</g>
<!-- Node1&#45;&gt;Node6 -->
<g id="edge5_Node000001_Node000006" class="edge">
<title>Node1&#45;&gt;Node6</title>
<g id="a_edge5_Node000001_Node000006"><a xlink:title=" ">
<path fill="none" stroke="#63b8ff" d="M445.11,-110.09C454.36,-102.4 467.87,-91.15 478.96,-81.93"/>
<polygon fill="#63b8ff" stroke="#63b8ff" points="480.94,-84.83 486.39,-75.74 476.46,-79.45 480.94,-84.83"/>
</a>
</g>
</g>
<!-- Node7 -->
<g id="Node000007" class="node">
<title>Node7</title>
<g id="a_Node000007"><a xlink:href="_globals_8h.html" target="_top" xlink:title=" ">
<polygon fill="white" stroke="#666666" points="391.5,-74.5 335,-74.5 335,-55.25 391.5,-55.25 391.5,-74.5"/>
<text text-anchor="middle" x="363.25" y="-61" font-family="Helvetica,sans-Serif" font-size="10.00">Globals.h</text>
</a>
</g>
</g>
<!-- Node1&#45;&gt;Node7 -->
<g id="edge6_Node000001_Node000007" class="edge">
<title>Node1&#45;&gt;Node7</title>
<g id="a_edge6_Node000001_Node000007"><a xlink:title=" ">
<path fill="none" stroke="#63b8ff" d="M422.21,-110.09C411.84,-102.32 396.65,-90.92 384.28,-81.65"/>
<polygon fill="#63b8ff" stroke="#63b8ff" points="386.43,-78.88 376.33,-75.68 382.23,-84.48 386.43,-78.88"/>
</a>
</g>
</g>
<!-- Node19 -->
<g id="Node000019" class="node">
<title>Node19</title>
<g id="a_Node000019"><a xlink:title=" ">
<polygon fill="#e0e0e0" stroke="#999999" points="611.12,-74.5 537.38,-74.5 537.38,-55.25 611.12,-55.25 611.12,-74.5"/>
<text text-anchor="middle" x="574.25" y="-61" font-family="Helvetica,sans-Serif" font-size="10.00">TXMLNode.h</text>
</a>
</g>
</g>
<!-- Node1&#45;&gt;Node19 -->
<g id="edge21_Node000001_Node000019" class="edge">
<title>Node1&#45;&gt;Node19</title>
<g id="a_edge21_Node000001_Node000019"><a xlink:title=" ">
<path fill="none" stroke="#63b8ff" d="M458,-110.09C480.42,-101.56 514.31,-88.67 539.72,-79.01"/>
<polygon fill="#63b8ff" stroke="#63b8ff" points="540.87,-82.32 548.97,-75.49 538.38,-75.77 540.87,-82.32"/>
</a>
</g>
</g>
<!-- Node20 -->
<g id="Node000020" class="node">
<title>Node20</title>
<g id="a_Node000020"><a xlink:title=" ">
<polygon fill="#e0e0e0" stroke="#999999" points="723.62,-74.5 628.88,-74.5 628.88,-55.25 723.62,-55.25 723.62,-74.5"/>
<text text-anchor="middle" x="676.25" y="-61" font-family="Helvetica,sans-Serif" font-size="10.00">TXMLDocument.h</text>
</a>
</g>
</g>
<!-- Node1&#45;&gt;Node20 -->
<g id="edge22_Node000001_Node000020" class="edge">
<title>Node1&#45;&gt;Node20</title>
<g id="a_edge22_Node000001_Node000020"><a xlink:title=" ">
<path fill="none" stroke="#63b8ff" d="M468.92,-111.5C509.49,-102.57 577.07,-87.7 624,-77.37"/>
<polygon fill="#63b8ff" stroke="#63b8ff" points="624.67,-80.81 633.69,-75.24 623.17,-73.97 624.67,-80.81"/>
</a>
</g>
</g>
<!-- Node21 -->
<g id="Node000021" class="node">
<title>Node21</title>
<g id="a_Node000021"><a xlink:title=" ">
<polygon fill="#e0e0e0" stroke="#999999" points="822.5,-74.5 742,-74.5 742,-55.25 822.5,-55.25 822.5,-74.5"/>
<text text-anchor="middle" x="782.25" y="-61" font-family="Helvetica,sans-Serif" font-size="10.00">TDOMParser.h</text>
</a>
</g>
</g>
<!-- Node1&#45;&gt;Node21 -->
<g id="edge23_Node000001_Node000021" class="edge">
<title>Node1&#45;&gt;Node21</title>
<g id="a_edge23_Node000001_Node000021"><a xlink:title=" ">
<path fill="none" stroke="#63b8ff" d="M468.7,-114.22C522.28,-106.53 629.11,-90.99 730.54,-74.74"/>
<polygon fill="#63b8ff" stroke="#63b8ff" points="730.79,-78.25 740.11,-73.2 729.68,-71.34 730.79,-78.25"/>
</a>
</g>
</g>
<!-- Node7&#45;&gt;Node2 -->
<g id="edge12_Node000007_Node000002" class="edge">
<title>Node7&#45;&gt;Node2</title>
<g id="a_edge12_Node000007_Node000002"><a xlink:title=" ">
<path fill="none" stroke="#63b8ff" d="M334.83,-61.02C281.81,-55.43 164.11,-41.78 55.96,-19.59"/>
<polygon fill="#63b8ff" stroke="#63b8ff" points="56.84,-16.2 46.34,-17.58 55.41,-23.05 56.84,-16.2"/>
</a>
</g>
</g>
<!-- Node7&#45;&gt;Node3 -->
<g id="edge11_Node000007_Node000003" class="edge">
<title>Node7&#45;&gt;Node3</title>
<g id="a_edge11_Node000007_Node000003"><a xlink:title=" ">
<path fill="none" stroke="#63b8ff" d="M334.56,-59.74C289.84,-53.09 200.61,-38.96 115.92,-19.68"/>
<polygon fill="#63b8ff" stroke="#63b8ff" points="116.82,-16.29 106.29,-17.45 115.24,-23.11 116.82,-16.29"/>
</a>
</g>
</g>
<!-- Node7&#45;&gt;Node5 -->
<g id="edge10_Node000007_Node000005" class="edge">
<title>Node7&#45;&gt;Node5</title>
<g id="a_edge10_Node000007_Node000005"><a xlink:title=" ">
<path fill="none" stroke="#63b8ff" d="M334.81,-57.83C299.27,-50.16 236.35,-36.17 173.41,-19.7"/>
<polygon fill="#63b8ff" stroke="#63b8ff" points="174.51,-16.37 163.95,-17.2 172.73,-23.14 174.51,-16.37"/>
</a>
</g>
</g>
<!-- Node8 -->
<g id="Node000008" class="node">
<title>Node8</title>
<g id="a_Node000008"><a xlink:title=" ">
<polygon fill="#e0e0e0" stroke="#999999" points="390,-19.25 336.5,-19.25 336.5,0 390,0 390,-19.25"/>
<text text-anchor="middle" x="363.25" y="-5.75" font-family="Helvetica,sans-Serif" font-size="10.00">iostream</text>
</a>
</g>
</g>
<!-- Node7&#45;&gt;Node8 -->
<g id="edge7_Node000007_Node000008" class="edge">
<title>Node7&#45;&gt;Node8</title>
<g id="a_edge7_Node000007_Node000008"><a xlink:title=" ">
<path fill="none" stroke="#63b8ff" d="M363.25,-55.08C363.25,-48.57 363.25,-39.42 363.25,-31.12"/>
<polygon fill="#63b8ff" stroke="#63b8ff" points="366.75,-31.12 363.25,-21.12 359.75,-31.12 366.75,-31.12"/>
</a>
</g>
</g>
<!-- Node9 -->
<g id="Node000009" class="node">
<title>Node9</title>
<g id="a_Node000009"><a xlink:title=" ">
<polygon fill="#e0e0e0" stroke="#999999" points="458.12,-19.25 408.38,-19.25 408.38,0 458.12,0 458.12,-19.25"/>
<text text-anchor="middle" x="433.25" y="-5.75" font-family="Helvetica,sans-Serif" font-size="10.00">iomanip</text>
</a>
</g>
</g>
<!-- Node7&#45;&gt;Node9 -->
<g id="edge8_Node000007_Node000009" class="edge">
<title>Node7&#45;&gt;Node9</title>
<g id="a_edge8_Node000007_Node000009"><a xlink:title=" ">
<path fill="none" stroke="#63b8ff" d="M375.12,-54.84C385.34,-47.07 400.32,-35.67 412.51,-26.4"/>
<polygon fill="#63b8ff" stroke="#63b8ff" points="414.51,-29.28 420.35,-20.44 410.27,-23.71 414.51,-29.28"/>
</a>
</g>
</g>
<!-- Node10 -->
<g id="Node000010" class="node">
<title>Node10</title>
<g id="a_Node000010"><a xlink:title=" ">
<polygon fill="#e0e0e0" stroke="#999999" points="534.25,-19.25 476.25,-19.25 476.25,0 534.25,0 534.25,-19.25"/>
<text text-anchor="middle" x="505.25" y="-5.75" font-family="Helvetica,sans-Serif" font-size="10.00">stdexcept</text>
</a>
</g>
</g>
<!-- Node7&#45;&gt;Node10 -->
<g id="edge9_Node000007_Node000010" class="edge">
<title>Node7&#45;&gt;Node10</title>
<g id="a_edge9_Node000007_Node000010"><a xlink:title=" ">
<path fill="none" stroke="#63b8ff" d="M387.34,-54.84C410.19,-46.27 444.77,-33.31 470.58,-23.63"/>
<polygon fill="#63b8ff" stroke="#63b8ff" points="471.49,-27.02 479.63,-20.23 469.03,-20.47 471.49,-27.02"/>
</a>
</g>
</g>
<!-- Node11 -->
<g id="Node000011" class="node">
<title>Node11</title>
<g id="a_Node000011"><a xlink:title=" ">
<polygon fill="#e0e0e0" stroke="#999999" points="612,-19.25 552.5,-19.25 552.5,0 612,0 612,-19.25"/>
<text text-anchor="middle" x="582.25" y="-5.75" font-family="Helvetica,sans-Serif" font-size="10.00">execinfo.h</text>
</a>
</g>
</g>
<!-- Node7&#45;&gt;Node11 -->
<g id="edge13_Node000007_Node000011" class="edge">
<title>Node7&#45;&gt;Node11</title>
<g id="a_edge13_Node000007_Node000011"><a xlink:title=" ">
<path fill="none" stroke="#63b8ff" d="M391.88,-56.91C429.98,-47.65 497.6,-31.21 541.15,-20.62"/>
<polygon fill="#63b8ff" stroke="#63b8ff" points="541.85,-24.05 550.74,-18.29 540.19,-17.25 541.85,-24.05"/>
</a>
</g>
</g>
<!-- Node12 -->
<g id="Node000012" class="node">
<title>Node12</title>
<g id="a_Node000012"><a xlink:title=" ">
<polygon fill="#e0e0e0" stroke="#999999" points="680.5,-19.25 630,-19.25 630,0 680.5,0 680.5,-19.25"/>
<text text-anchor="middle" x="655.25" y="-5.75" font-family="Helvetica,sans-Serif" font-size="10.00">cxxabi.h</text>
</a>
</g>
</g>
<!-- Node7&#45;&gt;Node12 -->
<g id="edge14_Node000007_Node000012" class="edge">
<title>Node7&#45;&gt;Node12</title>
<g id="a_edge14_Node000007_Node000012"><a xlink:title=" ">
<path fill="none" stroke="#63b8ff" d="M391.84,-57.19C395.01,-56.51 398.2,-55.85 401.25,-55.25 494.98,-36.96 522.3,-39.25 618.56,-19.66"/>
<polygon fill="#63b8ff" stroke="#63b8ff" points="619.12,-23.12 628.2,-17.67 617.7,-16.26 619.12,-23.12"/>
</a>
</g>
</g>
<!-- Node13 -->
<g id="Node000013" class="node">
<title>Node13</title>
<g id="a_Node000013"><a xlink:title=" ">
<polygon fill="#e0e0e0" stroke="#999999" points="749.88,-19.25 698.62,-19.25 698.62,0 749.88,0 749.88,-19.25"/>
<text text-anchor="middle" x="724.25" y="-5.75" font-family="Helvetica,sans-Serif" font-size="10.00">sstream</text>
</a>
</g>
</g>
<!-- Node7&#45;&gt;Node13 -->
<g id="edge15_Node000007_Node000013" class="edge">
<title>Node7&#45;&gt;Node13</title>
<g id="a_edge15_Node000007_Node000013"><a xlink:title=" ">
<path fill="none" stroke="#63b8ff" d="M391.82,-57.07C394.99,-56.41 398.18,-55.79 401.25,-55.25 524.71,-33.58 560.4,-42.19 687.02,-19.44"/>
<polygon fill="#63b8ff" stroke="#63b8ff" points="687.64,-22.89 696.84,-17.64 686.37,-16 687.64,-22.89"/>
</a>
</g>
</g>
<!-- Node14 -->
<g id="Node000014" class="node">
<title>Node14</title>
<g id="a_Node000014"><a xlink:title=" ">
<polygon fill="#e0e0e0" stroke="#999999" points="804.75,-19.25 767.75,-19.25 767.75,0 804.75,0 804.75,-19.25"/>
<text text-anchor="middle" x="786.25" y="-5.75" font-family="Helvetica,sans-Serif" font-size="10.00">array</text>
</a>
</g>
</g>
<!-- Node7&#45;&gt;Node14 -->
<g id="edge16_Node000007_Node000014" class="edge">
<title>Node7&#45;&gt;Node14</title>
<g id="a_edge16_Node000007_Node000014"><a xlink:title=" ">
<path fill="none" stroke="#63b8ff" d="M391.81,-57C394.98,-56.35 398.18,-55.75 401.25,-55.25 555.53,-30.08 600.66,-50.78 756.58,-19.41"/>
<polygon fill="#63b8ff" stroke="#63b8ff" points="756.93,-22.91 766.02,-17.47 755.52,-16.06 756.93,-22.91"/>
</a>
</g>
</g>
<!-- Node15 -->
<g id="Node000015" class="node">
<title>Node15</title>
<g id="a_Node000015"><a xlink:title=" ">
<polygon fill="#e0e0e0" stroke="#999999" points="873.5,-19.25 823,-19.25 823,0 873.5,0 873.5,-19.25"/>
<text text-anchor="middle" x="848.25" y="-5.75" font-family="Helvetica,sans-Serif" font-size="10.00">memory</text>
</a>
</g>
</g>
<!-- Node7&#45;&gt;Node15 -->
<g id="edge17_Node000007_Node000015" class="edge">
<title>Node7&#45;&gt;Node15</title>
<g id="a_edge17_Node000007_Node000015"><a xlink:title=" ">
<path fill="none" stroke="#63b8ff" d="M391.8,-56.96C394.98,-56.32 398.18,-55.73 401.25,-55.25 579.65,-27.36 630.56,-49.09 811.47,-19.45"/>
<polygon fill="#63b8ff" stroke="#63b8ff" points="811.95,-22.92 821.23,-17.82 810.79,-16.02 811.95,-22.92"/>
</a>
</g>
</g>
<!-- Node16 -->
<g id="Node000016" class="node">
<title>Node16</title>
<g id="a_Node000016"><a xlink:title=" ">
<polygon fill="#e0e0e0" stroke="#999999" points="941.12,-19.25 891.38,-19.25 891.38,0 941.12,0 941.12,-19.25"/>
<text text-anchor="middle" x="916.25" y="-5.75" font-family="Helvetica,sans-Serif" font-size="10.00">unistd.h</text>
</a>
</g>
</g>
<!-- Node7&#45;&gt;Node16 -->
<g id="edge18_Node000007_Node000016" class="edge">
<title>Node7&#45;&gt;Node16</title>
<g id="a_edge18_Node000007_Node000016"><a xlink:title=" ">
<path fill="none" stroke="#63b8ff" d="M391.8,-56.92C394.97,-56.29 398.17,-55.71 401.25,-55.25 609.63,-23.98 668.66,-52.72 879.94,-19.32"/>
<polygon fill="#63b8ff" stroke="#63b8ff" points="880.29,-22.81 889.61,-17.76 879.18,-15.9 880.29,-22.81"/>
</a>
</g>
</g>
<!-- Node17 -->
<g id="Node000017" class="node">
<title>Node17</title>
<g id="a_Node000017"><a xlink:title=" ">
<polygon fill="#e0e0e0" stroke="#999999" points="240,-19.25 180.5,-19.25 180.5,0 240,0 240,-19.25"/>
<text text-anchor="middle" x="210.25" y="-5.75" font-family="Helvetica,sans-Serif" font-size="10.00">sys/wait.h</text>
</a>
</g>
</g>
<!-- Node7&#45;&gt;Node17 -->
<g id="edge19_Node000007_Node000017" class="edge">
<title>Node7&#45;&gt;Node17</title>
<g id="a_edge19_Node000007_Node000017"><a xlink:title=" ">
<path fill="none" stroke="#63b8ff" d="M337.3,-54.84C312.46,-46.2 274.75,-33.07 246.87,-23.37"/>
<polygon fill="#63b8ff" stroke="#63b8ff" points="248.36,-20.18 237.76,-20.2 246.06,-26.79 248.36,-20.18"/>
</a>
</g>
</g>
<!-- Node18 -->
<g id="Node000018" class="node">
<title>Node18</title>
<g id="a_Node000018"><a xlink:title=" ">
<polygon fill="#e0e0e0" stroke="#999999" points="318.38,-19.25 258.12,-19.25 258.12,0 318.38,0 318.38,-19.25"/>
<text text-anchor="middle" x="288.25" y="-5.75" font-family="Helvetica,sans-Serif" font-size="10.00">sys/prctl.h</text>
</a>
</g>
</g>
<!-- Node7&#45;&gt;Node18 -->
<g id="edge20_Node000007_Node000018" class="edge">
<title>Node7&#45;&gt;Node18</title>
<g id="a_edge20_Node000007_Node000018"><a xlink:title=" ">
<path fill="none" stroke="#63b8ff" d="M350.53,-54.84C339.54,-47.04 323.41,-35.59 310.32,-26.29"/>
<polygon fill="#63b8ff" stroke="#63b8ff" points="312.45,-23.51 302.27,-20.58 308.4,-29.22 312.45,-23.51"/>
</a>
</g>
</g>
</g>
</svg>
