<?xml version="1.0" encoding="UTF-8" standalone="no"?>
<!DOCTYPE svg PUBLIC "-//W3C//DTD SVG 1.1//EN"
 "http://www.w3.org/Graphics/SVG/1.1/DTD/svg11.dtd">
<!-- Generated by graphviz version 12.2.0 (20241103.1931)
 -->
<!-- Title: TZeroDegreeHit.h Pages: 1 -->
<!--zoomable 359 -->

<svg id="main" version="1.1" xmlns="http://www.w3.org/2000/svg" xmlns:xlink="http://www.w3.org/1999/xlink" xml:space="preserve" onload="init(evt)">

<style type="text/css"><![CDATA[
.node, .edge {opacity: 0.7;}
.node.selected, .edge.selected {opacity: 1;}
.edge:hover path { stroke: red; }
.edge:hover polygon { stroke: red; fill: red; }
]]></style>

<defs>
  <circle id="rim" cx="0" cy="0" r="7"/>
  <circle id="rim2" cx="0" cy="0" r="3.5"/>
  <g id="zoomPlus">
    <use xlink:href="#rim" fill="#404040"><set attributeName="fill" to="#808080" begin="zoomplus.mouseover" end="zoomplus.mouseout"/></use>
    <path d="M-4,0h8M0,-4v8" fill="none" stroke="white" stroke-width="1.5" pointer-events="none"/>
  </g>
  <g id="zoomMin">
    <use xlink:href="#rim" fill="#404040"><set attributeName="fill" to="#808080" begin="zoomminus.mouseover" end="zoomminus.mouseout"/></use>
    <path d="M-4,0h8" fill="none" stroke="white" stroke-width="1.5" pointer-events="none"/>
  </g>
  <g id="arrowUp" transform="translate(30 24)">
    <use xlink:href="#rim"/>
    <path pointer-events="none" fill="none" stroke="white" stroke-width="1.5" d="M0,-3.0v7 M-2.5,-0.5L0,-3.0L2.5,-0.5"/>
  </g>
  <g id="arrowRight" transform="rotate(90) translate(36 -43)">
    <use xlink:href="#rim"/>
    <path pointer-events="none" fill="none" stroke="white" stroke-width="1.5" d="M0,-3.0v7 M-2.5,-0.5L0,-3.0L2.5,-0.5"/>
  </g>
  <g id="arrowDown" transform="rotate(180) translate(-30 -48)">
    <use xlink:href="#rim"/>
    <path pointer-events="none" fill="none" stroke="white" stroke-width="1.5" d="M0,-3.0v7 M-2.5,-0.5L0,-3.0L2.5,-0.5"/>
  </g>
  <g id="arrowLeft" transform="rotate(270) translate(-36 17)">
    <use xlink:href="#rim"/>
    <path pointer-events="none" fill="none" stroke="white" stroke-width="1.5" d="M0,-3.0v7 M-2.5,-0.5L0,-3.0L2.5,-0.5"/>
  </g>
  <g id="resetDef">
    <use xlink:href="#rim2" fill="#404040"><set attributeName="fill" to="#808080" begin="reset.mouseover" end="reset.mouseout"/></use>
  </g>
</defs>
<script type="application/ecmascript">
var viewWidth = 1292;
var viewHeight = 359;
var sectionId = 'dynsection-0';
</script>
<script type="application/ecmascript" xlink:href="svg.min.js"/>
<svg id="graph" class="graph">
<g id="viewport">
<title>TZeroDegreeHit.h</title>
<!-- Node1 -->
<g id="Node000001" class="node">
<title>Node1</title>
<g id="a_Node000001"><a xlink:title=" ">
<polygon fill="#999999" stroke="#666666" points="687.25,-350.75 594.75,-350.75 594.75,-331.5 687.25,-331.5 687.25,-350.75"/>
<text text-anchor="middle" x="641" y="-337.25" font-family="Helvetica,sans-Serif" font-size="10.00">TZeroDegreeHit.h</text>
</a>
</g>
</g>
<!-- Node2 -->
<g id="Node000002" class="node">
<title>Node2</title>
<g id="a_Node000002"><a xlink:title=" ">
<polygon fill="#e0e0e0" stroke="#999999" points="76.12,-19.25 33.88,-19.25 33.88,0 76.12,0 76.12,-19.25"/>
<text text-anchor="middle" x="55" y="-5.75" font-family="Helvetica,sans-Serif" font-size="10.00">cstdio</text>
</a>
</g>
</g>
<!-- Node1&#45;&gt;Node2 -->
<g id="edge1_Node000001_Node000002" class="edge">
<title>Node1&#45;&gt;Node2</title>
<g id="a_edge1_Node000001_Node000002"><a xlink:title=" ">
<path fill="none" stroke="#63b8ff" d="M594.38,-337.16C446.88,-327.18 0,-291.94 0,-231.62 0,-231.62 0,-231.62 0,-119.12 0,-84.1 23.09,-48.91 39.34,-28.48"/>
<polygon fill="#63b8ff" stroke="#63b8ff" points="41.98,-30.79 45.68,-20.86 36.59,-26.31 41.98,-30.79"/>
</a>
</g>
</g>
<!-- Node3 -->
<g id="Node000003" class="node">
<title>Node3</title>
<g id="a_Node000003"><a xlink:title=" ">
<polygon fill="#e0e0e0" stroke="#999999" points="71.5,-129.75 28.5,-129.75 28.5,-110.5 71.5,-110.5 71.5,-129.75"/>
<text text-anchor="middle" x="50" y="-116.25" font-family="Helvetica,sans-Serif" font-size="10.00">cmath</text>
</a>
</g>
</g>
<!-- Node1&#45;&gt;Node3 -->
<g id="edge2_Node000001_Node000003" class="edge">
<title>Node1&#45;&gt;Node3</title>
<g id="a_edge2_Node000001_Node000003"><a xlink:title=" ">
<path fill="none" stroke="#63b8ff" d="M616.73,-331.13C523.58,-296.61 188.84,-172.57 82.6,-133.2"/>
<polygon fill="#63b8ff" stroke="#63b8ff" points="83.93,-129.97 73.34,-129.77 81.5,-136.53 83.93,-129.97"/>
</a>
</g>
</g>
<!-- Node4 -->
<g id="Node000004" class="node">
<title>Node4</title>
<g id="a_Node000004"><a xlink:href="_t_fragment_8h.html" target="_top" xlink:title=" ">
<polygon fill="white" stroke="#666666" points="913.38,-295.5 842.62,-295.5 842.62,-276.25 913.38,-276.25 913.38,-295.5"/>
<text text-anchor="middle" x="878" y="-282" font-family="Helvetica,sans-Serif" font-size="10.00">TFragment.h</text>
</a>
</g>
</g>
<!-- Node1&#45;&gt;Node4 -->
<g id="edge3_Node000001_Node000004" class="edge">
<title>Node1&#45;&gt;Node4</title>
<g id="a_edge3_Node000001_Node000004"><a xlink:title=" ">
<path fill="none" stroke="#63b8ff" d="M681.47,-331.03C722.98,-321.71 787.47,-307.21 831.16,-297.4"/>
<polygon fill="#63b8ff" stroke="#63b8ff" points="831.88,-300.83 840.87,-295.22 830.34,-294 831.88,-300.83"/>
</a>
</g>
</g>
<!-- Node5 -->
<g id="Node000005" class="node">
<title>Node5</title>
<g id="a_Node000005"><a xlink:href="_t_detector_hit_8h.html" target="_top" xlink:title=" ">
<polygon fill="white" stroke="#666666" points="1081.5,-240.25 1002.5,-240.25 1002.5,-221 1081.5,-221 1081.5,-240.25"/>
<text text-anchor="middle" x="1042" y="-226.75" font-family="Helvetica,sans-Serif" font-size="10.00">TDetectorHit.h</text>
</a>
</g>
</g>
<!-- Node1&#45;&gt;Node5 -->
<g id="edge62_Node000001_Node000005" class="edge">
<title>Node1&#45;&gt;Node5</title>
<g id="a_edge62_Node000001_Node000005"><a xlink:title=" ">
<path fill="none" stroke="#63b8ff" d="M687.37,-337.47C744.01,-333.17 842.14,-322.26 922,-295.5 957.87,-283.48 995.86,-261.47 1019.26,-246.7"/>
<polygon fill="#63b8ff" stroke="#63b8ff" points="1020.84,-249.84 1027.36,-241.49 1017.06,-243.95 1020.84,-249.84"/>
</a>
</g>
</g>
<!-- Node7 -->
<g id="Node000007" class="node">
<title>Node7</title>
<g id="a_Node000007"><a xlink:href="_t_channel_8h.html" target="_top" xlink:title=" ">
<polygon fill="white" stroke="#666666" points="436.38,-185 371.62,-185 371.62,-165.75 436.38,-165.75 436.38,-185"/>
<text text-anchor="middle" x="404" y="-171.5" font-family="Helvetica,sans-Serif" font-size="10.00">TChannel.h</text>
</a>
</g>
</g>
<!-- Node1&#45;&gt;Node7 -->
<g id="edge60_Node000001_Node000007" class="edge">
<title>Node1&#45;&gt;Node7</title>
<g id="a_edge60_Node000001_Node000007"><a xlink:title=" ">
<path fill="none" stroke="#63b8ff" d="M627.92,-331.09C589.24,-304.36 475.05,-225.46 426.38,-191.84"/>
<polygon fill="#63b8ff" stroke="#63b8ff" points="428.5,-189.05 418.28,-186.24 424.52,-194.81 428.5,-189.05"/>
</a>
</g>
</g>
<!-- Node17 -->
<g id="Node000017" class="node">
<title>Node17</title>
<g id="a_Node000017"><a xlink:title=" ">
<polygon fill="#e0e0e0" stroke="#999999" points="1283.62,-185 1220.38,-185 1220.38,-165.75 1283.62,-165.75 1283.62,-185"/>
<text text-anchor="middle" x="1252" y="-171.5" font-family="Helvetica,sans-Serif" font-size="10.00">TVector3.h</text>
</a>
</g>
</g>
<!-- Node1&#45;&gt;Node17 -->
<g id="edge61_Node000001_Node000017" class="edge">
<title>Node1&#45;&gt;Node17</title>
<g id="a_edge61_Node000001_Node000017"><a xlink:title=" ">
<path fill="none" stroke="#63b8ff" d="M687.65,-337.15C750.1,-332.35 863.93,-320.77 958,-295.5 1059.33,-268.28 1172.67,-215.6 1224.02,-190.43"/>
<polygon fill="#63b8ff" stroke="#63b8ff" points="1225.53,-193.59 1232.94,-186.02 1222.43,-187.31 1225.53,-193.59"/>
</a>
</g>
</g>
<!-- Node4&#45;&gt;Node5 -->
<g id="edge4_Node000004_Node000005" class="edge">
<title>Node4&#45;&gt;Node5</title>
<g id="a_edge4_Node000004_Node000005"><a xlink:title=" ">
<path fill="none" stroke="#63b8ff" d="M905.82,-275.84C932.56,-267.16 973.22,-253.96 1003.15,-244.24"/>
<polygon fill="#63b8ff" stroke="#63b8ff" points="1004.17,-247.59 1012.6,-241.17 1002.01,-240.93 1004.17,-247.59"/>
</a>
</g>
</g>
<!-- Node6 -->
<g id="Node000006" class="node">
<title>Node6</title>
<g id="a_Node000006"><a xlink:title=" ">
<polygon fill="#e0e0e0" stroke="#999999" points="630.5,-74.5 587.5,-74.5 587.5,-55.25 630.5,-55.25 630.5,-74.5"/>
<text text-anchor="middle" x="609" y="-61" font-family="Helvetica,sans-Serif" font-size="10.00">vector</text>
</a>
</g>
</g>
<!-- Node4&#45;&gt;Node6 -->
<g id="edge57_Node000004_Node000006" class="edge">
<title>Node4&#45;&gt;Node6</title>
<g id="a_edge57_Node000004_Node000006"><a xlink:title=" ">
<path fill="none" stroke="#63b8ff" d="M864.95,-276.05C831.62,-253.31 741.07,-190.19 672,-129.75 655.05,-114.92 637.14,-96.46 624.77,-83.2"/>
<polygon fill="#63b8ff" stroke="#63b8ff" points="627.55,-81.05 618.2,-76.08 622.41,-85.8 627.55,-81.05"/>
</a>
</g>
</g>
<!-- Node19 -->
<g id="Node000019" class="node">
<title>Node19</title>
<g id="a_Node000019"><a xlink:title=" ">
<polygon fill="#e0e0e0" stroke="#999999" points="974.75,-185 921.25,-185 921.25,-165.75 974.75,-165.75 974.75,-185"/>
<text text-anchor="middle" x="948" y="-171.5" font-family="Helvetica,sans-Serif" font-size="10.00">Rtypes.h</text>
</a>
</g>
</g>
<!-- Node4&#45;&gt;Node19 -->
<g id="edge59_Node000004_Node000019" class="edge">
<title>Node4&#45;&gt;Node19</title>
<g id="a_edge59_Node000004_Node000019"><a xlink:title=" ">
<path fill="none" stroke="#63b8ff" d="M883.73,-276C895.11,-258.35 920.79,-218.55 936.02,-194.95"/>
<polygon fill="#63b8ff" stroke="#63b8ff" points="938.89,-196.95 941.37,-186.65 933.01,-193.15 938.89,-196.95"/>
</a>
</g>
</g>
<!-- Node21 -->
<g id="Node000021" class="node">
<title>Node21</title>
<g id="a_Node000021"><a xlink:href="_t_p_p_g_8h.html" target="_top" xlink:title=" ">
<polygon fill="white" stroke="#666666" points="865.25,-185 814.75,-185 814.75,-165.75 865.25,-165.75 865.25,-185"/>
<text text-anchor="middle" x="840" y="-171.5" font-family="Helvetica,sans-Serif" font-size="10.00">TPPG.h</text>
</a>
</g>
</g>
<!-- Node4&#45;&gt;Node21 -->
<g id="edge55_Node000004_Node000021" class="edge">
<title>Node4&#45;&gt;Node21</title>
<g id="a_edge55_Node000004_Node000021"><a xlink:title=" ">
<path fill="none" stroke="#63b8ff" d="M874.89,-276C868.82,-258.67 855.27,-219.98 846.96,-196.24"/>
<polygon fill="#63b8ff" stroke="#63b8ff" points="850.26,-195.09 843.65,-186.81 843.66,-197.4 850.26,-195.09"/>
</a>
</g>
</g>
<!-- Node23 -->
<g id="Node000023" class="node">
<title>Node23</title>
<g id="a_Node000023"><a xlink:title=" ">
<polygon fill="#e0e0e0" stroke="#999999" points="1151.75,-19.25 1098.25,-19.25 1098.25,0 1151.75,0 1151.75,-19.25"/>
<text text-anchor="middle" x="1125" y="-5.75" font-family="Helvetica,sans-Serif" font-size="10.00">iostream</text>
</a>
</g>
</g>
<!-- Node4&#45;&gt;Node23 -->
<g id="edge56_Node000004_Node000023" class="edge">
<title>Node4&#45;&gt;Node23</title>
<g id="a_edge56_Node000004_Node000023"><a xlink:title=" ">
<path fill="none" stroke="#63b8ff" d="M877.67,-275.83C877.38,-253.56 879.94,-195.7 912,-165.75 968.12,-113.33 1015.92,-170.52 1081,-129.75 1107.37,-113.23 1113.67,-103.85 1124,-74.5 1128.92,-60.53 1128.98,-43.76 1127.91,-30.91"/>
<polygon fill="#63b8ff" stroke="#63b8ff" points="1131.4,-30.65 1126.78,-21.12 1124.45,-31.45 1131.4,-30.65"/>
</a>
</g>
</g>
<!-- Node44 -->
<g id="Node000044" class="node">
<title>Node44</title>
<g id="a_Node000044"><a xlink:title=" ">
<polygon fill="#e0e0e0" stroke="#999999" points="984,-240.25 944,-240.25 944,-221 984,-221 984,-240.25"/>
<text text-anchor="middle" x="964" y="-226.75" font-family="Helvetica,sans-Serif" font-size="10.00">ctime</text>
</a>
</g>
</g>
<!-- Node4&#45;&gt;Node44 -->
<g id="edge58_Node000004_Node000044" class="edge">
<title>Node4&#45;&gt;Node44</title>
<g id="a_edge58_Node000004_Node000044"><a xlink:title=" ">
<path fill="none" stroke="#63b8ff" d="M892.59,-275.84C905.44,-267.89 924.41,-256.14 939.57,-246.75"/>
<polygon fill="#63b8ff" stroke="#63b8ff" points="941.39,-249.74 948.05,-241.5 937.71,-243.79 941.39,-249.74"/>
</a>
</g>
</g>
<!-- Node5&#45;&gt;Node6 -->
<g id="edge5_Node000005_Node000006" class="edge">
<title>Node5&#45;&gt;Node6</title>
<g id="a_edge5_Node000005_Node000006"><a xlink:title=" ">
<path fill="none" stroke="#63b8ff" d="M1002.07,-222.41C937.2,-210.64 815.19,-188.29 806,-185 757.83,-167.76 748.78,-156.22 705,-129.75 679.15,-114.12 650.43,-94.73 631.19,-81.43"/>
<polygon fill="#63b8ff" stroke="#63b8ff" points="633.27,-78.61 623.06,-75.78 629.27,-84.36 633.27,-78.61"/>
</a>
</g>
</g>
<!-- Node5&#45;&gt;Node7 -->
<g id="edge6_Node000005_Node000007" class="edge">
<title>Node5&#45;&gt;Node7</title>
<g id="a_edge6_Node000005_Node000007"><a xlink:title=" ">
<path fill="none" stroke="#63b8ff" d="M1002.2,-222.28C999.09,-221.81 996,-221.38 993,-221 790.11,-195.52 545.95,-182.66 447.9,-178.22"/>
<polygon fill="#63b8ff" stroke="#63b8ff" points="448.34,-174.73 438.19,-177.79 448.02,-181.73 448.34,-174.73"/>
</a>
</g>
</g>
<!-- Node5&#45;&gt;Node17 -->
<g id="edge19_Node000005_Node000017" class="edge">
<title>Node5&#45;&gt;Node17</title>
<g id="a_edge19_Node000005_Node000017"><a xlink:title=" ">
<path fill="none" stroke="#63b8ff" d="M1077.62,-220.59C1113.94,-211.38 1170.3,-197.09 1209.07,-187.26"/>
<polygon fill="#63b8ff" stroke="#63b8ff" points="1209.69,-190.71 1218.53,-184.86 1207.97,-183.93 1209.69,-190.71"/>
</a>
</g>
</g>
<!-- Node18 -->
<g id="Node000018" class="node">
<title>Node18</title>
<g id="a_Node000018"><a xlink:title=" ">
<polygon fill="#e0e0e0" stroke="#999999" points="1097,-74.5 1039,-74.5 1039,-55.25 1097,-55.25 1097,-74.5"/>
<text text-anchor="middle" x="1068" y="-61" font-family="Helvetica,sans-Serif" font-size="10.00">TObject.h</text>
</a>
</g>
</g>
<!-- Node5&#45;&gt;Node18 -->
<g id="edge20_Node000005_Node000018" class="edge">
<title>Node5&#45;&gt;Node18</title>
<g id="a_edge20_Node000005_Node000018"><a xlink:title=" ">
<path fill="none" stroke="#63b8ff" d="M1049.13,-220.7C1055.5,-212.12 1064.35,-198.5 1068,-185 1077.14,-151.15 1074.18,-109.89 1071.13,-85.88"/>
<polygon fill="#63b8ff" stroke="#63b8ff" points="1074.63,-85.66 1069.76,-76.25 1067.7,-86.64 1074.63,-85.66"/>
</a>
</g>
</g>
<!-- Node5&#45;&gt;Node19 -->
<g id="edge21_Node000005_Node000019" class="edge">
<title>Node5&#45;&gt;Node19</title>
<g id="a_edge21_Node000005_Node000019"><a xlink:title=" ">
<path fill="none" stroke="#63b8ff" d="M1026.05,-220.59C1011.74,-212.48 990.47,-200.43 973.75,-190.96"/>
<polygon fill="#63b8ff" stroke="#63b8ff" points="975.77,-188.08 965.34,-186.2 972.32,-194.17 975.77,-188.08"/>
</a>
</g>
</g>
<!-- Node20 -->
<g id="Node000020" class="node">
<title>Node20</title>
<g id="a_Node000020"><a xlink:title=" ">
<polygon fill="#e0e0e0" stroke="#999999" points="1058.75,-185 993.25,-185 993.25,-165.75 1058.75,-165.75 1058.75,-185"/>
<text text-anchor="middle" x="1026" y="-171.5" font-family="Helvetica,sans-Serif" font-size="10.00">TRandom.h</text>
</a>
</g>
</g>
<!-- Node5&#45;&gt;Node20 -->
<g id="edge22_Node000005_Node000020" class="edge">
<title>Node5&#45;&gt;Node20</title>
<g id="a_edge22_Node000005_Node000020"><a xlink:title=" ">
<path fill="none" stroke="#63b8ff" d="M1039.36,-220.83C1037.36,-214.17 1034.52,-204.74 1031.98,-196.28"/>
<polygon fill="#63b8ff" stroke="#63b8ff" points="1035.36,-195.38 1029.14,-186.81 1028.66,-197.39 1035.36,-195.38"/>
</a>
</g>
</g>
<!-- Node5&#45;&gt;Node21 -->
<g id="edge23_Node000005_Node000021" class="edge">
<title>Node5&#45;&gt;Node21</title>
<g id="a_edge23_Node000005_Node000021"><a xlink:title=" ">
<path fill="none" stroke="#63b8ff" d="M1007.73,-220.59C971.21,-210.96 913.63,-195.78 876.33,-185.95"/>
<polygon fill="#63b8ff" stroke="#63b8ff" points="877.48,-182.64 866.92,-183.47 875.7,-189.41 877.48,-182.64"/>
</a>
</g>
</g>
<!-- Node42 -->
<g id="Node000042" class="node">
<title>Node42</title>
<g id="a_Node000042"><a xlink:href="_t_transient_bits_8h.html" target="_top" xlink:title=" ">
<polygon fill="white" stroke="#666666" points="1202.62,-185 1115.38,-185 1115.38,-165.75 1202.62,-165.75 1202.62,-185"/>
<text text-anchor="middle" x="1159" y="-171.5" font-family="Helvetica,sans-Serif" font-size="10.00">TTransientBits.h</text>
</a>
</g>
</g>
<!-- Node5&#45;&gt;Node42 -->
<g id="edge52_Node000005_Node000042" class="edge">
<title>Node5&#45;&gt;Node42</title>
<g id="a_edge52_Node000005_Node000042"><a xlink:title=" ">
<path fill="none" stroke="#63b8ff" d="M1061.85,-220.59C1080.17,-212.25 1107.65,-199.75 1128.71,-190.16"/>
<polygon fill="#63b8ff" stroke="#63b8ff" points="1130.03,-193.41 1137.68,-186.08 1127.13,-187.04 1130.03,-193.41"/>
</a>
</g>
</g>
<!-- Node7&#45;&gt;Node3 -->
<g id="edge8_Node000007_Node000003" class="edge">
<title>Node7&#45;&gt;Node3</title>
<g id="a_edge8_Node000007_Node000003"><a xlink:title=" ">
<path fill="none" stroke="#63b8ff" d="M371.33,-170.84C313.52,-164.34 189.52,-149.37 86,-129.75 84.83,-129.53 83.64,-129.29 82.45,-129.05"/>
<polygon fill="#63b8ff" stroke="#63b8ff" points="83.63,-125.73 73.11,-126.99 82.12,-132.56 83.63,-125.73"/>
</a>
</g>
</g>
<!-- Node8 -->
<g id="Node000008" class="node">
<title>Node8</title>
<g id="a_Node000008"><a xlink:title=" ">
<polygon fill="#e0e0e0" stroke="#999999" points="174,-19.25 134,-19.25 134,0 174,0 174,-19.25"/>
<text text-anchor="middle" x="154" y="-5.75" font-family="Helvetica,sans-Serif" font-size="10.00">string</text>
</a>
</g>
</g>
<!-- Node7&#45;&gt;Node8 -->
<g id="edge7_Node000007_Node000008" class="edge">
<title>Node7&#45;&gt;Node8</title>
<g id="a_edge7_Node000007_Node000008"><a xlink:title=" ">
<path fill="none" stroke="#63b8ff" d="M371.19,-174.34C303.32,-173.48 151.15,-167.33 119,-129.75 93.89,-100.4 121.09,-53.76 139.66,-28.43"/>
<polygon fill="#63b8ff" stroke="#63b8ff" points="142.24,-30.82 145.54,-20.75 136.68,-26.56 142.24,-30.82"/>
</a>
</g>
</g>
<!-- Node9 -->
<g id="Node000009" class="node">
<title>Node9</title>
<g id="a_Node000009"><a xlink:title=" ">
<polygon fill="#e0e0e0" stroke="#999999" points="752.25,-129.75 713.75,-129.75 713.75,-110.5 752.25,-110.5 752.25,-129.75"/>
<text text-anchor="middle" x="733" y="-116.25" font-family="Helvetica,sans-Serif" font-size="10.00">utility</text>
</a>
</g>
</g>
<!-- Node7&#45;&gt;Node9 -->
<g id="edge9_Node000007_Node000009" class="edge">
<title>Node7&#45;&gt;Node9</title>
<g id="a_edge9_Node000007_Node000009"><a xlink:title=" ">
<path fill="none" stroke="#63b8ff" d="M436.75,-169.07C500.44,-158.77 640.18,-136.15 702.25,-126.1"/>
<polygon fill="#63b8ff" stroke="#63b8ff" points="702.77,-129.56 712.09,-124.51 701.65,-122.65 702.77,-129.56"/>
</a>
</g>
</g>
<!-- Node10 -->
<g id="Node000010" class="node">
<title>Node10</title>
<g id="a_Node000010"><a xlink:title=" ">
<polygon fill="#e0e0e0" stroke="#999999" points="620.38,-129.75 537.62,-129.75 537.62,-110.5 620.38,-110.5 620.38,-129.75"/>
<text text-anchor="middle" x="579" y="-116.25" font-family="Helvetica,sans-Serif" font-size="10.00">unordered_map</text>
</a>
</g>
</g>
<!-- Node7&#45;&gt;Node10 -->
<g id="edge10_Node000007_Node000010" class="edge">
<title>Node7&#45;&gt;Node10</title>
<g id="a_edge10_Node000007_Node000010"><a xlink:title=" ">
<path fill="none" stroke="#63b8ff" d="M433.69,-165.34C462.47,-156.58 506.37,-143.23 538.38,-133.48"/>
<polygon fill="#63b8ff" stroke="#63b8ff" points="539.17,-136.9 547.72,-130.64 537.13,-130.21 539.17,-136.9"/>
</a>
</g>
</g>
<!-- Node11 -->
<g id="Node000011" class="node">
<title>Node11</title>
<g id="a_Node000011"><a xlink:title=" ">
<polygon fill="#e0e0e0" stroke="#999999" points="291.5,-129.75 230.5,-129.75 230.5,-110.5 291.5,-110.5 291.5,-129.75"/>
<text text-anchor="middle" x="261" y="-116.25" font-family="Helvetica,sans-Serif" font-size="10.00">TNamed.h</text>
</a>
</g>
</g>
<!-- Node7&#45;&gt;Node11 -->
<g id="edge11_Node000007_Node000011" class="edge">
<title>Node7&#45;&gt;Node11</title>
<g id="a_edge11_Node000007_Node000011"><a xlink:title=" ">
<path fill="none" stroke="#63b8ff" d="M379.74,-165.34C356.73,-156.77 321.91,-143.81 295.92,-134.13"/>
<polygon fill="#63b8ff" stroke="#63b8ff" points="297.39,-130.94 286.8,-130.73 294.95,-137.5 297.39,-130.94"/>
</a>
</g>
</g>
<!-- Node12 -->
<g id="Node000012" class="node">
<title>Node12</title>
<g id="a_Node000012"><a xlink:title=" ">
<polygon fill="#e0e0e0" stroke="#999999" points="358.5,-129.75 309.5,-129.75 309.5,-110.5 358.5,-110.5 358.5,-129.75"/>
<text text-anchor="middle" x="334" y="-116.25" font-family="Helvetica,sans-Serif" font-size="10.00">TTree.h</text>
</a>
</g>
</g>
<!-- Node7&#45;&gt;Node12 -->
<g id="edge12_Node000007_Node000012" class="edge">
<title>Node7&#45;&gt;Node12</title>
<g id="a_edge12_Node000007_Node000012"><a xlink:title=" ">
<path fill="none" stroke="#63b8ff" d="M392.13,-165.34C381.91,-157.57 366.93,-146.17 354.74,-136.9"/>
<polygon fill="#63b8ff" stroke="#63b8ff" points="356.98,-134.21 346.9,-130.94 352.74,-139.78 356.98,-134.21"/>
</a>
</g>
</g>
<!-- Node13 -->
<g id="Node000013" class="node">
<title>Node13</title>
<g id="a_Node000013"><a xlink:title=" ">
<polygon fill="#e0e0e0" stroke="#999999" points="431.88,-129.75 376.12,-129.75 376.12,-110.5 431.88,-110.5 431.88,-129.75"/>
<text text-anchor="middle" x="404" y="-116.25" font-family="Helvetica,sans-Serif" font-size="10.00">TGraph.h</text>
</a>
</g>
</g>
<!-- Node7&#45;&gt;Node13 -->
<g id="edge13_Node000007_Node000013" class="edge">
<title>Node7&#45;&gt;Node13</title>
<g id="a_edge13_Node000007_Node000013"><a xlink:title=" ">
<path fill="none" stroke="#63b8ff" d="M404,-165.58C404,-159.07 404,-149.92 404,-141.62"/>
<polygon fill="#63b8ff" stroke="#63b8ff" points="407.5,-141.62 404,-131.62 400.5,-141.62 407.5,-141.62"/>
</a>
</g>
</g>
<!-- Node14 -->
<g id="Node000014" class="node">
<title>Node14</title>
<g id="a_Node000014"><a xlink:title=" ">
<polygon fill="#e0e0e0" stroke="#999999" points="519.62,-129.75 450.38,-129.75 450.38,-110.5 519.62,-110.5 519.62,-129.75"/>
<text text-anchor="middle" x="485" y="-116.25" font-family="Helvetica,sans-Serif" font-size="10.00">TClassRef.h</text>
</a>
</g>
</g>
<!-- Node7&#45;&gt;Node14 -->
<g id="edge14_Node000007_Node000014" class="edge">
<title>Node7&#45;&gt;Node14</title>
<g id="a_edge14_Node000007_Node000014"><a xlink:title=" ">
<path fill="none" stroke="#63b8ff" d="M417.74,-165.34C429.73,-157.46 447.37,-145.86 461.58,-136.52"/>
<polygon fill="#63b8ff" stroke="#63b8ff" points="463.49,-139.45 469.93,-131.03 459.65,-133.6 463.49,-139.45"/>
</a>
</g>
</g>
<!-- Node15 -->
<g id="Node000015" class="node">
<title>Node15</title>
<g id="a_Node000015"><a xlink:href="_t_priority_value_8h.html" target="_top" xlink:title=" ">
<polygon fill="white" stroke="#666666" points="212.12,-129.75 127.88,-129.75 127.88,-110.5 212.12,-110.5 212.12,-129.75"/>
<text text-anchor="middle" x="170" y="-116.25" font-family="Helvetica,sans-Serif" font-size="10.00">TPriorityValue.h</text>
</a>
</g>
</g>
<!-- Node7&#45;&gt;Node15 -->
<g id="edge15_Node000007_Node000015" class="edge">
<title>Node7&#45;&gt;Node15</title>
<g id="a_edge15_Node000007_Node000015"><a xlink:title=" ">
<path fill="none" stroke="#63b8ff" d="M371.46,-166.97C332.56,-158.12 267,-143.2 221.26,-132.79"/>
<polygon fill="#63b8ff" stroke="#63b8ff" points="222.1,-129.39 211.57,-130.58 220.54,-136.22 222.1,-129.39"/>
</a>
</g>
</g>
<!-- Node15&#45;&gt;Node6 -->
<g id="edge18_Node000015_Node000006" class="edge">
<title>Node15&#45;&gt;Node6</title>
<g id="a_edge18_Node000015_Node000006"><a xlink:title=" ">
<path fill="none" stroke="#63b8ff" d="M212.55,-111.76C215.41,-111.31 218.24,-110.89 221,-110.5 352.09,-91.89 508.95,-75.71 575.99,-69.08"/>
<polygon fill="#63b8ff" stroke="#63b8ff" points="575.95,-72.6 585.56,-68.13 575.27,-65.63 575.95,-72.6"/>
</a>
</g>
</g>
<!-- Node15&#45;&gt;Node8 -->
<g id="edge17_Node000015_Node000008" class="edge">
<title>Node15&#45;&gt;Node8</title>
<g id="a_edge17_Node000015_Node000008"><a xlink:title=" ">
<path fill="none" stroke="#63b8ff" d="M168.69,-110.25C166.15,-93 160.48,-54.58 156.98,-30.81"/>
<polygon fill="#63b8ff" stroke="#63b8ff" points="160.47,-30.51 155.55,-21.12 153.54,-31.53 160.47,-30.51"/>
</a>
</g>
</g>
<!-- Node16 -->
<g id="Node000016" class="node">
<title>Node16</title>
<g id="a_Node000016"><a xlink:title=" ">
<polygon fill="#e0e0e0" stroke="#999999" points="233.62,-74.5 182.38,-74.5 182.38,-55.25 233.62,-55.25 233.62,-74.5"/>
<text text-anchor="middle" x="208" y="-61" font-family="Helvetica,sans-Serif" font-size="10.00">ostream</text>
</a>
</g>
</g>
<!-- Node15&#45;&gt;Node16 -->
<g id="edge16_Node000015_Node000016" class="edge">
<title>Node15&#45;&gt;Node16</title>
<g id="a_edge16_Node000015_Node000016"><a xlink:title=" ">
<path fill="none" stroke="#63b8ff" d="M176.27,-110.33C181.36,-103.21 188.7,-92.93 195.03,-84.05"/>
<polygon fill="#63b8ff" stroke="#63b8ff" points="197.75,-86.26 200.71,-76.09 192.05,-82.2 197.75,-86.26"/>
</a>
</g>
</g>
<!-- Node21&#45;&gt;Node9 -->
<g id="edge25_Node000021_Node000009" class="edge">
<title>Node21&#45;&gt;Node9</title>
<g id="a_edge25_Node000021_Node000009"><a xlink:title=" ">
<path fill="none" stroke="#63b8ff" d="M821.85,-165.34C805.32,-157.12 780.66,-144.84 761.5,-135.31"/>
<polygon fill="#63b8ff" stroke="#63b8ff" points="763.11,-132.2 752.6,-130.88 759.99,-138.47 763.11,-132.2"/>
</a>
</g>
</g>
<!-- Node21&#45;&gt;Node18 -->
<g id="edge27_Node000021_Node000018" class="edge">
<title>Node21&#45;&gt;Node18</title>
<g id="a_edge27_Node000021_Node000018"><a xlink:title=" ">
<path fill="none" stroke="#63b8ff" d="M865.48,-168.66C916.5,-157.19 1026.64,-132.21 1030,-129.75 1045.11,-118.68 1055.3,-99.62 1061.3,-85.19"/>
<polygon fill="#63b8ff" stroke="#63b8ff" points="1064.41,-86.87 1064.68,-76.28 1057.86,-84.38 1064.41,-86.87"/>
</a>
</g>
</g>
<!-- Node22 -->
<g id="Node000022" class="node">
<title>Node22</title>
<g id="a_Node000022"><a xlink:title=" ">
<polygon fill="#e0e0e0" stroke="#999999" points="930.38,-129.75 895.62,-129.75 895.62,-110.5 930.38,-110.5 930.38,-129.75"/>
<text text-anchor="middle" x="913" y="-116.25" font-family="Helvetica,sans-Serif" font-size="10.00">map</text>
</a>
</g>
</g>
<!-- Node21&#45;&gt;Node22 -->
<g id="edge24_Node000021_Node000022" class="edge">
<title>Node21&#45;&gt;Node22</title>
<g id="a_edge24_Node000021_Node000022"><a xlink:title=" ">
<path fill="none" stroke="#63b8ff" d="M852.38,-165.34C863.15,-157.49 878.97,-145.95 891.75,-136.62"/>
<polygon fill="#63b8ff" stroke="#63b8ff" points="893.56,-139.64 899.58,-130.92 889.44,-133.98 893.56,-139.64"/>
</a>
</g>
</g>
<!-- Node21&#45;&gt;Node23 -->
<g id="edge26_Node000021_Node000023" class="edge">
<title>Node21&#45;&gt;Node23</title>
<g id="a_edge26_Node000021_Node000023"><a xlink:title=" ">
<path fill="none" stroke="#63b8ff" d="M865.58,-168.66C870.05,-167.68 874.66,-166.68 879,-165.75 956.22,-149.22 983.89,-167.96 1053,-129.75 1082.78,-113.28 1088.89,-103.91 1106,-74.5 1113.94,-60.86 1118.81,-43.62 1121.63,-30.49"/>
<polygon fill="#63b8ff" stroke="#63b8ff" points="1125.02,-31.38 1123.46,-20.9 1118.15,-30.07 1125.02,-31.38"/>
</a>
</g>
</g>
<!-- Node24 -->
<g id="Node000024" class="node">
<title>Node24</title>
<g id="a_Node000024"><a xlink:title=" ">
<polygon fill="#e0e0e0" stroke="#999999" points="1021.12,-129.75 948.88,-129.75 948.88,-110.5 1021.12,-110.5 1021.12,-129.75"/>
<text text-anchor="middle" x="985" y="-116.25" font-family="Helvetica,sans-Serif" font-size="10.00">TCollection.h</text>
</a>
</g>
</g>
<!-- Node21&#45;&gt;Node24 -->
<g id="edge28_Node000021_Node000024" class="edge">
<title>Node21&#45;&gt;Node24</title>
<g id="a_edge28_Node000021_Node000024"><a xlink:title=" ">
<path fill="none" stroke="#63b8ff" d="M864.6,-165.34C887.93,-156.77 923.24,-143.81 949.6,-134.13"/>
<polygon fill="#63b8ff" stroke="#63b8ff" points="950.68,-137.46 958.86,-130.72 948.27,-130.89 950.68,-137.46"/>
</a>
</g>
</g>
<!-- Node25 -->
<g id="Node000025" class="node">
<title>Node25</title>
<g id="a_Node000025"><a xlink:href="_globals_8h.html" target="_top" xlink:title=" ">
<polygon fill="white" stroke="#666666" points="705.25,-74.5 648.75,-74.5 648.75,-55.25 705.25,-55.25 705.25,-74.5"/>
<text text-anchor="middle" x="677" y="-61" font-family="Helvetica,sans-Serif" font-size="10.00">Globals.h</text>
</a>
</g>
</g>
<!-- Node21&#45;&gt;Node25 -->
<g id="edge29_Node000021_Node000025" class="edge">
<title>Node21&#45;&gt;Node25</title>
<g id="a_edge29_Node000021_Node000025"><a xlink:title=" ">
<path fill="none" stroke="#63b8ff" d="M830.25,-165.46C815.78,-152.47 787.48,-128.01 761,-110.5 743.71,-99.07 723.18,-88.12 706.75,-79.93"/>
<polygon fill="#63b8ff" stroke="#63b8ff" points="708.5,-76.89 697.98,-75.63 705.42,-83.17 708.5,-76.89"/>
</a>
</g>
</g>
<!-- Node37 -->
<g id="Node000037" class="node">
<title>Node37</title>
<g id="a_Node000037"><a xlink:href="_t_singleton_8h.html" target="_top" xlink:title=" ">
<polygon fill="white" stroke="#666666" points="878,-129.75 808,-129.75 808,-110.5 878,-110.5 878,-129.75"/>
<text text-anchor="middle" x="843" y="-116.25" font-family="Helvetica,sans-Serif" font-size="10.00">TSingleton.h</text>
</a>
</g>
</g>
<!-- Node21&#45;&gt;Node37 -->
<g id="edge44_Node000021_Node000037" class="edge">
<title>Node21&#45;&gt;Node37</title>
<g id="a_edge44_Node000021_Node000037"><a xlink:title=" ">
<path fill="none" stroke="#63b8ff" d="M840.5,-165.58C840.87,-158.99 841.39,-149.71 841.86,-141.32"/>
<polygon fill="#63b8ff" stroke="#63b8ff" points="845.34,-141.8 842.41,-131.62 838.35,-141.41 845.34,-141.8"/>
</a>
</g>
</g>
<!-- Node25&#45;&gt;Node2 -->
<g id="edge34_Node000025_Node000002" class="edge">
<title>Node25&#45;&gt;Node2</title>
<g id="a_edge34_Node000025_Node000002"><a xlink:title=" ">
<path fill="none" stroke="#63b8ff" d="M648.4,-56.73C645.58,-56.17 642.74,-55.66 640,-55.25 413.11,-21.1 353.39,-41.29 125,-19.25 112.75,-18.07 99.33,-16.48 87.55,-15"/>
<polygon fill="#63b8ff" stroke="#63b8ff" points="88.28,-11.56 77.91,-13.75 87.38,-18.51 88.28,-11.56"/>
</a>
</g>
</g>
<!-- Node25&#45;&gt;Node8 -->
<g id="edge33_Node000025_Node000008" class="edge">
<title>Node25&#45;&gt;Node8</title>
<g id="a_edge33_Node000025_Node000008"><a xlink:title=" ">
<path fill="none" stroke="#63b8ff" d="M648.39,-56.8C645.57,-56.22 642.73,-55.69 640,-55.25 551.85,-41 279.37,-19.96 185.88,-12.98"/>
<polygon fill="#63b8ff" stroke="#63b8ff" points="186.14,-9.49 175.91,-12.23 185.62,-16.47 186.14,-9.49"/>
</a>
</g>
</g>
<!-- Node25&#45;&gt;Node23 -->
<g id="edge30_Node000025_Node000023" class="edge">
<title>Node25&#45;&gt;Node23</title>
<g id="a_edge30_Node000025_Node000023"><a xlink:title=" ">
<path fill="none" stroke="#63b8ff" d="M705.61,-56.82C708.44,-56.24 711.27,-55.7 714,-55.25 872.19,-28.99 914.04,-40.38 1073,-19.25 1077.42,-18.66 1082.03,-17.99 1086.61,-17.28"/>
<polygon fill="#63b8ff" stroke="#63b8ff" points="1086.98,-20.76 1096.3,-15.72 1085.87,-13.85 1086.98,-20.76"/>
</a>
</g>
</g>
<!-- Node26 -->
<g id="Node000026" class="node">
<title>Node26</title>
<g id="a_Node000026"><a xlink:title=" ">
<polygon fill="#e0e0e0" stroke="#999999" points="925.88,-19.25 876.12,-19.25 876.12,0 925.88,0 925.88,-19.25"/>
<text text-anchor="middle" x="901" y="-5.75" font-family="Helvetica,sans-Serif" font-size="10.00">iomanip</text>
</a>
</g>
</g>
<!-- Node25&#45;&gt;Node26 -->
<g id="edge31_Node000025_Node000026" class="edge">
<title>Node25&#45;&gt;Node26</title>
<g id="a_edge31_Node000025_Node000026"><a xlink:title=" ">
<path fill="none" stroke="#63b8ff" d="M705.64,-57.18C749.22,-46.98 830.13,-28.04 864.88,-19.71"/>
<polygon fill="#63b8ff" stroke="#63b8ff" points="865.39,-23.19 874.29,-17.44 863.75,-16.38 865.39,-23.19"/>
</a>
</g>
</g>
<!-- Node27 -->
<g id="Node000027" class="node">
<title>Node27</title>
<g id="a_Node000027"><a xlink:title=" ">
<polygon fill="#e0e0e0" stroke="#999999" points="1002,-19.25 944,-19.25 944,0 1002,0 1002,-19.25"/>
<text text-anchor="middle" x="973" y="-5.75" font-family="Helvetica,sans-Serif" font-size="10.00">stdexcept</text>
</a>
</g>
</g>
<!-- Node25&#45;&gt;Node27 -->
<g id="edge32_Node000025_Node000027" class="edge">
<title>Node25&#45;&gt;Node27</title>
<g id="a_edge32_Node000025_Node000027"><a xlink:title=" ">
<path fill="none" stroke="#63b8ff" d="M705.64,-57C708.46,-56.38 711.28,-55.79 714,-55.25 808.1,-36.64 835.37,-38.13 932.37,-19.66"/>
<polygon fill="#63b8ff" stroke="#63b8ff" points="932.94,-23.11 942.09,-17.78 931.61,-16.24 932.94,-23.11"/>
</a>
</g>
</g>
<!-- Node28 -->
<g id="Node000028" class="node">
<title>Node28</title>
<g id="a_Node000028"><a xlink:title=" ">
<polygon fill="#e0e0e0" stroke="#999999" points="1064.25,-19.25 1019.75,-19.25 1019.75,0 1064.25,0 1064.25,-19.25"/>
<text text-anchor="middle" x="1042" y="-5.75" font-family="Helvetica,sans-Serif" font-size="10.00">cstdlib</text>
</a>
</g>
</g>
<!-- Node25&#45;&gt;Node28 -->
<g id="edge35_Node000025_Node000028" class="edge">
<title>Node25&#45;&gt;Node28</title>
<g id="a_edge35_Node000025_Node000028"><a xlink:title=" ">
<path fill="none" stroke="#63b8ff" d="M705.62,-56.88C708.44,-56.29 711.27,-55.73 714,-55.25 841.36,-32.76 878.56,-44.46 1008.25,-19.53"/>
<polygon fill="#63b8ff" stroke="#63b8ff" points="1008.78,-22.99 1017.92,-17.63 1007.44,-16.12 1008.78,-22.99"/>
</a>
</g>
</g>
<!-- Node29 -->
<g id="Node000029" class="node">
<title>Node29</title>
<g id="a_Node000029"><a xlink:title=" ">
<polygon fill="#e0e0e0" stroke="#999999" points="372.75,-19.25 313.25,-19.25 313.25,0 372.75,0 372.75,-19.25"/>
<text text-anchor="middle" x="343" y="-5.75" font-family="Helvetica,sans-Serif" font-size="10.00">execinfo.h</text>
</a>
</g>
</g>
<!-- Node25&#45;&gt;Node29 -->
<g id="edge36_Node000025_Node000029" class="edge">
<title>Node25&#45;&gt;Node29</title>
<g id="a_edge36_Node000025_Node000029"><a xlink:title=" ">
<path fill="none" stroke="#63b8ff" d="M648.37,-56.93C645.55,-56.33 642.72,-55.76 640,-55.25 529.73,-34.75 497.92,-39.44 384.43,-19.55"/>
<polygon fill="#63b8ff" stroke="#63b8ff" points="385.14,-16.12 374.68,-17.81 383.91,-23.01 385.14,-16.12"/>
</a>
</g>
</g>
<!-- Node30 -->
<g id="Node000030" class="node">
<title>Node30</title>
<g id="a_Node000030"><a xlink:title=" ">
<polygon fill="#e0e0e0" stroke="#999999" points="441.25,-19.25 390.75,-19.25 390.75,0 441.25,0 441.25,-19.25"/>
<text text-anchor="middle" x="416" y="-5.75" font-family="Helvetica,sans-Serif" font-size="10.00">cxxabi.h</text>
</a>
</g>
</g>
<!-- Node25&#45;&gt;Node30 -->
<g id="edge37_Node000025_Node000030" class="edge">
<title>Node25&#45;&gt;Node30</title>
<g id="a_edge37_Node000025_Node000030"><a xlink:title=" ">
<path fill="none" stroke="#63b8ff" d="M648.34,-57.07C645.53,-56.44 642.71,-55.82 640,-55.25 559.36,-38.22 535.82,-37.83 452.6,-19.72"/>
<polygon fill="#63b8ff" stroke="#63b8ff" points="453.58,-16.35 443.06,-17.62 452.07,-23.18 453.58,-16.35"/>
</a>
</g>
</g>
<!-- Node31 -->
<g id="Node000031" class="node">
<title>Node31</title>
<g id="a_Node000031"><a xlink:title=" ">
<polygon fill="#e0e0e0" stroke="#999999" points="510.62,-19.25 459.38,-19.25 459.38,0 510.62,0 510.62,-19.25"/>
<text text-anchor="middle" x="485" y="-5.75" font-family="Helvetica,sans-Serif" font-size="10.00">sstream</text>
</a>
</g>
</g>
<!-- Node25&#45;&gt;Node31 -->
<g id="edge38_Node000025_Node000031" class="edge">
<title>Node25&#45;&gt;Node31</title>
<g id="a_edge38_Node000025_Node000031"><a xlink:title=" ">
<path fill="none" stroke="#63b8ff" d="M648.26,-55.9C614.51,-46.54 558.47,-31 521.63,-20.78"/>
<polygon fill="#63b8ff" stroke="#63b8ff" points="522.89,-17.5 512.32,-18.2 521.02,-24.25 522.89,-17.5"/>
</a>
</g>
</g>
<!-- Node32 -->
<g id="Node000032" class="node">
<title>Node32</title>
<g id="a_Node000032"><a xlink:title=" ">
<polygon fill="#e0e0e0" stroke="#999999" points="565.5,-19.25 528.5,-19.25 528.5,0 565.5,0 565.5,-19.25"/>
<text text-anchor="middle" x="547" y="-5.75" font-family="Helvetica,sans-Serif" font-size="10.00">array</text>
</a>
</g>
</g>
<!-- Node25&#45;&gt;Node32 -->
<g id="edge39_Node000025_Node000032" class="edge">
<title>Node25&#45;&gt;Node32</title>
<g id="a_edge39_Node000025_Node000032"><a xlink:title=" ">
<path fill="none" stroke="#63b8ff" d="M654.95,-54.84C633.31,-45.98 600.18,-32.41 576.33,-22.64"/>
<polygon fill="#63b8ff" stroke="#63b8ff" points="577.76,-19.44 567.18,-18.89 575.11,-25.92 577.76,-19.44"/>
</a>
</g>
</g>
<!-- Node33 -->
<g id="Node000033" class="node">
<title>Node33</title>
<g id="a_Node000033"><a xlink:title=" ">
<polygon fill="#e0e0e0" stroke="#999999" points="634.25,-19.25 583.75,-19.25 583.75,0 634.25,0 634.25,-19.25"/>
<text text-anchor="middle" x="609" y="-5.75" font-family="Helvetica,sans-Serif" font-size="10.00">memory</text>
</a>
</g>
</g>
<!-- Node25&#45;&gt;Node33 -->
<g id="edge40_Node000025_Node000033" class="edge">
<title>Node25&#45;&gt;Node33</title>
<g id="a_edge40_Node000025_Node000033"><a xlink:title=" ">
<path fill="none" stroke="#63b8ff" d="M665.46,-54.84C655.54,-47.07 640.99,-35.67 629.14,-26.4"/>
<polygon fill="#63b8ff" stroke="#63b8ff" points="631.59,-23.87 621.56,-20.46 627.27,-29.38 631.59,-23.87"/>
</a>
</g>
</g>
<!-- Node34 -->
<g id="Node000034" class="node">
<title>Node34</title>
<g id="a_Node000034"><a xlink:title=" ">
<polygon fill="#e0e0e0" stroke="#999999" points="701.88,-19.25 652.12,-19.25 652.12,0 701.88,0 701.88,-19.25"/>
<text text-anchor="middle" x="677" y="-5.75" font-family="Helvetica,sans-Serif" font-size="10.00">unistd.h</text>
</a>
</g>
</g>
<!-- Node25&#45;&gt;Node34 -->
<g id="edge41_Node000025_Node000034" class="edge">
<title>Node25&#45;&gt;Node34</title>
<g id="a_edge41_Node000025_Node000034"><a xlink:title=" ">
<path fill="none" stroke="#63b8ff" d="M677,-55.08C677,-48.57 677,-39.42 677,-31.12"/>
<polygon fill="#63b8ff" stroke="#63b8ff" points="680.5,-31.12 677,-21.12 673.5,-31.12 680.5,-31.12"/>
</a>
</g>
</g>
<!-- Node35 -->
<g id="Node000035" class="node">
<title>Node35</title>
<g id="a_Node000035"><a xlink:title=" ">
<polygon fill="#e0e0e0" stroke="#999999" points="779.75,-19.25 720.25,-19.25 720.25,0 779.75,0 779.75,-19.25"/>
<text text-anchor="middle" x="750" y="-5.75" font-family="Helvetica,sans-Serif" font-size="10.00">sys/wait.h</text>
</a>
</g>
</g>
<!-- Node25&#45;&gt;Node35 -->
<g id="edge42_Node000025_Node000035" class="edge">
<title>Node25&#45;&gt;Node35</title>
<g id="a_edge42_Node000025_Node000035"><a xlink:title=" ">
<path fill="none" stroke="#63b8ff" d="M689.38,-54.84C700.15,-46.99 715.97,-35.45 728.75,-26.12"/>
<polygon fill="#63b8ff" stroke="#63b8ff" points="730.56,-29.14 736.58,-20.42 726.44,-23.48 730.56,-29.14"/>
</a>
</g>
</g>
<!-- Node36 -->
<g id="Node000036" class="node">
<title>Node36</title>
<g id="a_Node000036"><a xlink:title=" ">
<polygon fill="#e0e0e0" stroke="#999999" points="858.12,-19.25 797.88,-19.25 797.88,0 858.12,0 858.12,-19.25"/>
<text text-anchor="middle" x="828" y="-5.75" font-family="Helvetica,sans-Serif" font-size="10.00">sys/prctl.h</text>
</a>
</g>
</g>
<!-- Node25&#45;&gt;Node36 -->
<g id="edge43_Node000025_Node000036" class="edge">
<title>Node25&#45;&gt;Node36</title>
<g id="a_edge43_Node000025_Node000036"><a xlink:title=" ">
<path fill="none" stroke="#63b8ff" d="M702.62,-54.84C727.02,-46.24 764.01,-33.19 791.5,-23.5"/>
<polygon fill="#63b8ff" stroke="#63b8ff" points="792.57,-26.83 800.83,-20.21 790.24,-20.23 792.57,-26.83"/>
</a>
</g>
</g>
<!-- Node37&#45;&gt;Node18 -->
<g id="edge46_Node000037_Node000018" class="edge">
<title>Node37&#45;&gt;Node18</title>
<g id="a_edge46_Node000037_Node000018"><a xlink:title=" ">
<path fill="none" stroke="#63b8ff" d="M878.16,-110.8C918.69,-101.21 985.18,-85.48 1027.75,-75.4"/>
<polygon fill="#63b8ff" stroke="#63b8ff" points="1028.42,-78.84 1037.34,-73.13 1026.81,-72.03 1028.42,-78.84"/>
</a>
</g>
</g>
<!-- Node37&#45;&gt;Node23 -->
<g id="edge45_Node000037_Node000023" class="edge">
<title>Node37&#45;&gt;Node23</title>
<g id="a_edge45_Node000037_Node000023"><a xlink:title=" ">
<path fill="none" stroke="#63b8ff" d="M878.22,-110.47C908.8,-102.52 954.01,-89.67 992,-74.5 1009.58,-67.48 1012.99,-63.55 1030,-55.25 1051.63,-44.69 1076.23,-33.15 1094.97,-24.45"/>
<polygon fill="#63b8ff" stroke="#63b8ff" points="1096.29,-27.7 1103.9,-20.32 1093.35,-21.35 1096.29,-27.7"/>
</a>
</g>
</g>
<!-- Node37&#45;&gt;Node25 -->
<g id="edge51_Node000037_Node000025" class="edge">
<title>Node37&#45;&gt;Node25</title>
<g id="a_edge51_Node000037_Node000025"><a xlink:title=" ">
<path fill="none" stroke="#63b8ff" d="M814.84,-110.09C787.65,-101.37 746.26,-88.09 715.93,-78.36"/>
<polygon fill="#63b8ff" stroke="#63b8ff" points="717.33,-75.14 706.74,-75.41 715.19,-81.8 717.33,-75.14"/>
</a>
</g>
</g>
<!-- Node38 -->
<g id="Node000038" class="node">
<title>Node38</title>
<g id="a_Node000038"><a xlink:title=" ">
<polygon fill="#e0e0e0" stroke="#999999" points="982.88,-74.5 915.12,-74.5 915.12,-55.25 982.88,-55.25 982.88,-74.5"/>
<text text-anchor="middle" x="949" y="-61" font-family="Helvetica,sans-Serif" font-size="10.00">TDirectory.h</text>
</a>
</g>
</g>
<!-- Node37&#45;&gt;Node38 -->
<g id="edge47_Node000037_Node000038" class="edge">
<title>Node37&#45;&gt;Node38</title>
<g id="a_edge47_Node000037_Node000038"><a xlink:title=" ">
<path fill="none" stroke="#63b8ff" d="M860.98,-110.09C877.35,-101.87 901.79,-89.59 920.76,-80.06"/>
<polygon fill="#63b8ff" stroke="#63b8ff" points="922.21,-83.25 929.58,-75.63 919.07,-76.99 922.21,-83.25"/>
</a>
</g>
</g>
<!-- Node39 -->
<g id="Node000039" class="node">
<title>Node39</title>
<g id="a_Node000039"><a xlink:title=" ">
<polygon fill="#e0e0e0" stroke="#999999" points="768.62,-74.5 723.38,-74.5 723.38,-55.25 768.62,-55.25 768.62,-74.5"/>
<text text-anchor="middle" x="746" y="-61" font-family="Helvetica,sans-Serif" font-size="10.00">TFile.h</text>
</a>
</g>
</g>
<!-- Node37&#45;&gt;Node39 -->
<g id="edge48_Node000037_Node000039" class="edge">
<title>Node37&#45;&gt;Node39</title>
<g id="a_edge48_Node000037_Node000039"><a xlink:title=" ">
<path fill="none" stroke="#63b8ff" d="M826.55,-110.09C811.77,-101.98 789.82,-89.93 772.57,-80.46"/>
<polygon fill="#63b8ff" stroke="#63b8ff" points="774.31,-77.43 763.86,-75.68 770.94,-83.56 774.31,-77.43"/>
</a>
</g>
</g>
<!-- Node40 -->
<g id="Node000040" class="node">
<title>Node40</title>
<g id="a_Node000040"><a xlink:title=" ">
<polygon fill="#e0e0e0" stroke="#999999" points="833,-74.5 787,-74.5 787,-55.25 833,-55.25 833,-74.5"/>
<text text-anchor="middle" x="810" y="-61" font-family="Helvetica,sans-Serif" font-size="10.00">TList.h</text>
</a>
</g>
</g>
<!-- Node37&#45;&gt;Node40 -->
<g id="edge49_Node000037_Node000040" class="edge">
<title>Node37&#45;&gt;Node40</title>
<g id="a_edge49_Node000037_Node000040"><a xlink:title=" ">
<path fill="none" stroke="#63b8ff" d="M837.55,-110.33C833.23,-103.36 827.04,-93.37 821.62,-84.62"/>
<polygon fill="#63b8ff" stroke="#63b8ff" points="824.61,-82.8 816.36,-76.15 818.66,-86.49 824.61,-82.8"/>
</a>
</g>
</g>
<!-- Node41 -->
<g id="Node000041" class="node">
<title>Node41</title>
<g id="a_Node000041"><a xlink:title=" ">
<polygon fill="#e0e0e0" stroke="#999999" points="897,-74.5 851,-74.5 851,-55.25 897,-55.25 897,-74.5"/>
<text text-anchor="middle" x="874" y="-61" font-family="Helvetica,sans-Serif" font-size="10.00">TKey.h</text>
</a>
</g>
</g>
<!-- Node37&#45;&gt;Node41 -->
<g id="edge50_Node000037_Node000041" class="edge">
<title>Node37&#45;&gt;Node41</title>
<g id="a_edge50_Node000037_Node000041"><a xlink:title=" ">
<path fill="none" stroke="#63b8ff" d="M848.12,-110.33C852.18,-103.36 857.99,-93.37 863.09,-84.62"/>
<polygon fill="#63b8ff" stroke="#63b8ff" points="866,-86.57 868.01,-76.17 859.95,-83.05 866,-86.57"/>
</a>
</g>
</g>
<!-- Node42&#45;&gt;Node23 -->
<g id="edge53_Node000042_Node000023" class="edge">
<title>Node42&#45;&gt;Node23</title>
<g id="a_edge53_Node000042_Node000023"><a xlink:title=" ">
<path fill="none" stroke="#63b8ff" d="M1194.49,-165.33C1224.7,-156.83 1264.65,-143.4 1274,-129.75 1278.83,-122.69 1278.03,-118.05 1274,-110.5 1250.62,-66.68 1198.53,-38.69 1162.59,-23.82"/>
<polygon fill="#63b8ff" stroke="#63b8ff" points="1163.99,-20.61 1153.41,-20.18 1161.41,-27.12 1163.99,-20.61"/>
</a>
</g>
</g>
<!-- Node43 -->
<g id="Node000043" class="node">
<title>Node43</title>
<g id="a_Node000043"><a xlink:title=" ">
<polygon fill="#e0e0e0" stroke="#999999" points="1264.88,-129.75 1191.12,-129.75 1191.12,-110.5 1264.88,-110.5 1264.88,-129.75"/>
<text text-anchor="middle" x="1228" y="-116.25" font-family="Helvetica,sans-Serif" font-size="10.00">RtypesCore.h</text>
</a>
</g>
</g>
<!-- Node42&#45;&gt;Node43 -->
<g id="edge54_Node000042_Node000043" class="edge">
<title>Node42&#45;&gt;Node43</title>
<g id="a_edge54_Node000042_Node000043"><a xlink:title=" ">
<path fill="none" stroke="#63b8ff" d="M1170.7,-165.34C1180.78,-157.57 1195.54,-146.17 1207.56,-136.9"/>
<polygon fill="#63b8ff" stroke="#63b8ff" points="1209.49,-139.83 1215.27,-130.95 1205.21,-134.29 1209.49,-139.83"/>
</a>
</g>
</g>
</g>
</svg>

<g id="navigator" transform="translate(0 0)" fill="#404254">
  <rect fill="#f2f5e9" fill-opacity="0.5" stroke="#606060" stroke-width=".5" x="0" y="0" width="60" height="60"/>
  <use id="zoomplus" xlink:href="#zoomPlus" x="17" y="9" onmousedown="handleZoom(evt,'in')"/>
  <use id="zoomminus" xlink:href="#zoomMin" x="42" y="9" onmousedown="handleZoom(evt,'out')"/>
  <use id="reset" xlink:href="#resetDef" x="30" y="36" onmousedown="handleReset()"/>
   <use id="arrowup" xlink:href="#arrowUp" x="0" y="0" onmousedown="handlePan(0,-1)"/>
  <use id="arrowright" xlink:href="#arrowRight" x="0" y="0" onmousedown="handlePan(1,0)"/>
  <use id="arrowdown" xlink:href="#arrowDown" x="0" y="0" onmousedown="handlePan(0,1)"/>
  <use id="arrowleft" xlink:href="#arrowLeft" x="0" y="0" onmousedown="handlePan(-1,0)"/>
</g>
<svg viewBox="0 0 15 15" width="100%" height="30px" preserveAspectRatio="xMaxYMin meet">
 <g id="arrow_out" transform="scale(0.3 0.3)">
  <a xlink:href="_t_zero_degree_hit_8h__incl_org.svg" target="_base">
   <rect id="button" ry="5" rx="5" y="6" x="6" height="38" width="38"
        fill="#f2f5e9" fill-opacity="0.5" stroke="#606060" stroke-width="1.0"/>
   <path id="arrow"
     d="M 11.500037,31.436501 C 11.940474,20.09759 22.043105,11.32322 32.158766,21.979434 L 37.068811,17.246167 C 37.068811,17.246167 37.088388,32 37.088388,32 L 22.160133,31.978069 C 22.160133,31.978069 26.997745,27.140456 26.997745,27.140456 C 18.528582,18.264221 13.291696,25.230495 11.500037,31.436501 z"
     style="fill:#404040;"/>
  </a>
 </g>
</svg>

<style type='text/css'>
<![CDATA[
[data-mouse-over-selected='false'] { opacity: 0.7; }
[data-mouse-over-selected='true']  { opacity: 1.0; }
]]>
</style>
<script type="application/ecmascript"><![CDATA[
document.addEventListener('DOMContentLoaded', (event) => {
  highlightEdges();
  highlightAdjacentNodes();
});
]]></script>
</svg>
