<?xml version="1.0" encoding="UTF-8" standalone="no"?>
<!DOCTYPE svg PUBLIC "-//W3C//DTD SVG 1.1//EN"
 "http://www.w3.org/Graphics/SVG/1.1/DTD/svg11.dtd">
<!-- Generated by graphviz version 12.2.0 (20241103.1931)
 -->
<!-- Title: TZeroDegreeHit.h Pages: 1 -->
<svg width="1093pt" height="193pt"
 viewBox="0.00 0.00 1093.00 193.00" xmlns="http://www.w3.org/2000/svg" xmlns:xlink="http://www.w3.org/1999/xlink">
<g id="graph0" class="graph" transform="scale(1 1) rotate(0) translate(4 189)">
<title>TZeroDegreeHit.h</title>
<!-- Node1 -->
<g id="Node000001" class="node">
<title>Node1</title>
<g id="a_Node000001"><a xlink:title=" ">
<polygon fill="#999999" stroke="#666666" points="716.5,-185 624,-185 624,-165.75 716.5,-165.75 716.5,-185"/>
<text text-anchor="middle" x="670.25" y="-171.5" font-family="Helvetica,sans-Serif" font-size="10.00">TZeroDegreeHit.h</text>
</a>
</g>
</g>
<!-- Node2 -->
<g id="Node000002" class="node">
<title>Node2</title>
<g id="a_Node000002"><a xlink:href="_t_zero_degree_8h.html" target="_top" xlink:title=" ">
<polygon fill="white" stroke="#666666" points="676.12,-129.75 596.38,-129.75 596.38,-110.5 676.12,-110.5 676.12,-129.75"/>
<text text-anchor="middle" x="636.25" y="-116.25" font-family="Helvetica,sans-Serif" font-size="10.00">TZeroDegree.h</text>
</a>
</g>
</g>
<!-- Node1&#45;&gt;Node2 -->
<g id="edge1_Node000001_Node000002" class="edge">
<title>Node1&#45;&gt;Node2</title>
<g id="a_edge1_Node000001_Node000002"><a xlink:title=" ">
<path fill="none" stroke="#63b8ff" d="M658.62,-156.15C653,-147.36 646.52,-137.21 641.99,-130.11"/>
<polygon fill="#63b8ff" stroke="#63b8ff" points="655.49,-157.76 663.82,-164.31 661.39,-153.99 655.49,-157.76"/>
</a>
</g>
</g>
<!-- Node12 -->
<g id="Node000012" class="node">
<title>Node12</title>
<g id="a_Node000012"><a xlink:href="_t_zero_degree_hit_8cxx.html" target="_top" xlink:title=" ">
<polygon fill="white" stroke="#666666" points="1085,-74.5 983.5,-74.5 983.5,-55.25 1085,-55.25 1085,-74.5"/>
<text text-anchor="middle" x="1034.25" y="-61" font-family="Helvetica,sans-Serif" font-size="10.00">TZeroDegreeHit.cxx</text>
</a>
</g>
</g>
<!-- Node1&#45;&gt;Node12 -->
<g id="edge15_Node000001_Node000012" class="edge">
<title>Node1&#45;&gt;Node12</title>
<g id="a_edge15_Node000001_Node000012"><a xlink:title=" ">
<path fill="none" stroke="#63b8ff" d="M711.37,-162.12C785.14,-140.13 938.35,-94.46 1003.67,-74.99"/>
<polygon fill="#63b8ff" stroke="#63b8ff" points="710.69,-158.67 702.11,-164.88 712.69,-165.38 710.69,-158.67"/>
</a>
</g>
</g>
<!-- Node3 -->
<g id="Node000003" class="node">
<title>Node3</title>
<g id="a_Node000003"><a xlink:href="_example_event_helper_8hh.html" target="_top" xlink:title=" ">
<polygon fill="white" stroke="#666666" points="122.62,-74.5 3.88,-74.5 3.88,-55.25 122.62,-55.25 122.62,-74.5"/>
<text text-anchor="middle" x="63.25" y="-61" font-family="Helvetica,sans-Serif" font-size="10.00">ExampleEventHelper.hh</text>
</a>
</g>
</g>
<!-- Node2&#45;&gt;Node3 -->
<g id="edge2_Node000002_Node000003" class="edge">
<title>Node2&#45;&gt;Node3</title>
<g id="a_edge2_Node000002_Node000003"><a xlink:title=" ">
<path fill="none" stroke="#63b8ff" d="M584.73,-115.14C493.59,-107.95 297.99,-91.95 133.25,-74.5 129.84,-74.14 126.34,-73.75 122.81,-73.35"/>
<polygon fill="#63b8ff" stroke="#63b8ff" points="584.35,-118.62 594.6,-115.91 584.9,-111.64 584.35,-118.62"/>
</a>
</g>
</g>
<!-- Node5 -->
<g id="Node000005" class="node">
<title>Node5</title>
<g id="a_Node000005"><a xlink:href="_example_tree_helper_8hh.html" target="_top" xlink:title=" ">
<polygon fill="white" stroke="#666666" points="256,-74.5 142.5,-74.5 142.5,-55.25 256,-55.25 256,-74.5"/>
<text text-anchor="middle" x="199.25" y="-61" font-family="Helvetica,sans-Serif" font-size="10.00">ExampleTreeHelper.hh</text>
</a>
</g>
</g>
<!-- Node2&#45;&gt;Node5 -->
<g id="edge4_Node000002_Node000005" class="edge">
<title>Node2&#45;&gt;Node5</title>
<g id="a_edge4_Node000002_Node000005"><a xlink:title=" ">
<path fill="none" stroke="#63b8ff" d="M584.49,-113.07C512.77,-104.64 379.12,-88.79 265.25,-74.5 262.38,-74.14 259.45,-73.77 256.48,-73.39"/>
<polygon fill="#63b8ff" stroke="#63b8ff" points="584.04,-116.54 594.38,-114.23 584.86,-109.59 584.04,-116.54"/>
</a>
</g>
</g>
<!-- Node7 -->
<g id="Node000007" class="node">
<title>Node7</title>
<g id="a_Node000007"><a xlink:href="_example_tree_selector_8h.html" target="_top" xlink:title=" ">
<polygon fill="white" stroke="#666666" points="390.12,-74.5 274.38,-74.5 274.38,-55.25 390.12,-55.25 390.12,-74.5"/>
<text text-anchor="middle" x="332.25" y="-61" font-family="Helvetica,sans-Serif" font-size="10.00">ExampleTreeSelector.h</text>
</a>
</g>
</g>
<!-- Node2&#45;&gt;Node7 -->
<g id="edge6_Node000002_Node000007" class="edge">
<title>Node2&#45;&gt;Node7</title>
<g id="a_edge6_Node000002_Node000007"><a xlink:title=" ">
<path fill="none" stroke="#63b8ff" d="M584.83,-110.12C529,-100.34 440.31,-84.8 384.25,-74.98"/>
<polygon fill="#63b8ff" stroke="#63b8ff" points="583.94,-113.51 594.39,-111.79 585.14,-106.62 583.94,-113.51"/>
</a>
</g>
</g>
<!-- Node9 -->
<g id="Node000009" class="node">
<title>Node9</title>
<g id="a_Node000009"><a xlink:href="_get_tree_entries_8cxx.html" target="_top" xlink:title=" ">
<polygon fill="white" stroke="#666666" points="506.12,-74.5 408.38,-74.5 408.38,-55.25 506.12,-55.25 506.12,-74.5"/>
<text text-anchor="middle" x="457.25" y="-61" font-family="Helvetica,sans-Serif" font-size="10.00">GetTreeEntries.cxx</text>
</a>
</g>
</g>
<!-- Node2&#45;&gt;Node9 -->
<g id="edge8_Node000002_Node000009" class="edge">
<title>Node2&#45;&gt;Node9</title>
<g id="a_edge8_Node000002_Node000009"><a xlink:title=" ">
<path fill="none" stroke="#63b8ff" d="M594.87,-106.82C562.17,-97.09 517.26,-83.73 487.76,-74.95"/>
<polygon fill="#63b8ff" stroke="#63b8ff" points="593.85,-110.16 604.43,-109.66 595.85,-103.45 593.85,-110.16"/>
</a>
</g>
</g>
<!-- Node10 -->
<g id="Node000010" class="node">
<title>Node10</title>
<g id="a_Node000010"><a xlink:href="_t_g_r_s_i_mnemonic_8cxx.html" target="_top" xlink:title=" ">
<polygon fill="white" stroke="#666666" points="632,-74.5 524.5,-74.5 524.5,-55.25 632,-55.25 632,-74.5"/>
<text text-anchor="middle" x="578.25" y="-61" font-family="Helvetica,sans-Serif" font-size="10.00">TGRSIMnemonic.cxx</text>
</a>
</g>
</g>
<!-- Node2&#45;&gt;Node10 -->
<g id="edge9_Node000002_Node000010" class="edge">
<title>Node2&#45;&gt;Node10</title>
<g id="a_edge9_Node000002_Node000010"><a xlink:title=" ">
<path fill="none" stroke="#63b8ff" d="M617.99,-102.36C608.03,-93.22 596.11,-82.28 587.94,-74.77"/>
<polygon fill="#63b8ff" stroke="#63b8ff" points="615.56,-104.88 625.3,-109.07 620.3,-99.73 615.56,-104.88"/>
</a>
</g>
</g>
<!-- Node11 -->
<g id="Node000011" class="node">
<title>Node11</title>
<g id="a_Node000011"><a xlink:href="_t_zero_degree_8cxx.html" target="_top" xlink:title=" ">
<polygon fill="white" stroke="#666666" points="738.62,-74.5 649.88,-74.5 649.88,-55.25 738.62,-55.25 738.62,-74.5"/>
<text text-anchor="middle" x="694.25" y="-61" font-family="Helvetica,sans-Serif" font-size="10.00">TZeroDegree.cxx</text>
</a>
</g>
</g>
<!-- Node2&#45;&gt;Node11 -->
<g id="edge10_Node000002_Node000011" class="edge">
<title>Node2&#45;&gt;Node11</title>
<g id="a_edge10_Node000002_Node000011"><a xlink:title=" ">
<path fill="none" stroke="#63b8ff" d="M654.51,-102.36C664.47,-93.22 676.39,-82.28 684.56,-74.77"/>
<polygon fill="#63b8ff" stroke="#63b8ff" points="652.2,-99.73 647.2,-109.07 656.94,-104.88 652.2,-99.73"/>
</a>
</g>
</g>
<!-- Node2&#45;&gt;Node12 -->
<g id="edge11_Node000002_Node000012" class="edge">
<title>Node2&#45;&gt;Node12</title>
<g id="a_edge11_Node000002_Node000012"><a xlink:title=" ">
<path fill="none" stroke="#63b8ff" d="M687.85,-112.57C754.33,-104.06 873.47,-88.64 975.25,-74.5 977.81,-74.14 980.44,-73.78 983.09,-73.4"/>
<polygon fill="#63b8ff" stroke="#63b8ff" points="687.43,-109.09 677.96,-113.83 688.32,-116.03 687.43,-109.09"/>
</a>
</g>
</g>
<!-- Node13 -->
<g id="Node000013" class="node">
<title>Node13</title>
<g id="a_Node000013"><a xlink:href="_tac_offset_helper_8hh.html" target="_top" xlink:title=" ">
<polygon fill="white" stroke="#666666" points="856.25,-74.5 756.25,-74.5 756.25,-55.25 856.25,-55.25 856.25,-74.5"/>
<text text-anchor="middle" x="806.25" y="-61" font-family="Helvetica,sans-Serif" font-size="10.00">TacOffsetHelper.hh</text>
</a>
</g>
</g>
<!-- Node2&#45;&gt;Node13 -->
<g id="edge12_Node000002_Node000013" class="edge">
<title>Node2&#45;&gt;Node13</title>
<g id="a_edge12_Node000002_Node000013"><a xlink:title=" ">
<path fill="none" stroke="#63b8ff" d="M675.96,-106.69C706.98,-96.97 749.38,-83.69 777.27,-74.95"/>
<polygon fill="#63b8ff" stroke="#63b8ff" points="675.03,-103.31 666.53,-109.64 677.12,-109.99 675.03,-103.31"/>
</a>
</g>
</g>
<!-- Node15 -->
<g id="Node000015" class="node">
<title>Node15</title>
<g id="a_Node000015"><a xlink:href="tac__calibrator_8cxx.html" target="_top" xlink:title=" ">
<polygon fill="white" stroke="#666666" points="965.75,-74.5 874.75,-74.5 874.75,-55.25 965.75,-55.25 965.75,-74.5"/>
<text text-anchor="middle" x="920.25" y="-61" font-family="Helvetica,sans-Serif" font-size="10.00">tac_calibrator.cxx</text>
</a>
</g>
</g>
<!-- Node2&#45;&gt;Node15 -->
<g id="edge14_Node000002_Node000015" class="edge">
<title>Node2&#45;&gt;Node15</title>
<g id="a_edge14_Node000002_Node000015"><a xlink:title=" ">
<path fill="none" stroke="#63b8ff" d="M687.58,-109.5C740.94,-99.5 823.64,-83.99 874.73,-74.41"/>
<polygon fill="#63b8ff" stroke="#63b8ff" points="687.01,-106.05 677.83,-111.33 688.3,-112.93 687.01,-106.05"/>
</a>
</g>
</g>
<!-- Node4 -->
<g id="Node000004" class="node">
<title>Node4</title>
<g id="a_Node000004"><a xlink:href="_example_event_helper_8cxx.html" target="_top" xlink:title=" ">
<polygon fill="white" stroke="#666666" points="122.5,-19.25 0,-19.25 0,0 122.5,0 122.5,-19.25"/>
<text text-anchor="middle" x="61.25" y="-5.75" font-family="Helvetica,sans-Serif" font-size="10.00">ExampleEventHelper.cxx</text>
</a>
</g>
</g>
<!-- Node3&#45;&gt;Node4 -->
<g id="edge3_Node000003_Node000004" class="edge">
<title>Node3&#45;&gt;Node4</title>
<g id="a_edge3_Node000003_Node000004"><a xlink:title=" ">
<path fill="none" stroke="#63b8ff" d="M62.49,-43.63C62.18,-35.34 61.83,-26.17 61.59,-19.61"/>
<polygon fill="#63b8ff" stroke="#63b8ff" points="58.99,-43.71 62.86,-53.57 65.99,-43.45 58.99,-43.71"/>
</a>
</g>
</g>
<!-- Node6 -->
<g id="Node000006" class="node">
<title>Node6</title>
<g id="a_Node000006"><a xlink:href="_example_tree_helper_8cxx.html" target="_top" xlink:title=" ">
<polygon fill="white" stroke="#666666" points="257.88,-19.25 140.62,-19.25 140.62,0 257.88,0 257.88,-19.25"/>
<text text-anchor="middle" x="199.25" y="-5.75" font-family="Helvetica,sans-Serif" font-size="10.00">ExampleTreeHelper.cxx</text>
</a>
</g>
</g>
<!-- Node5&#45;&gt;Node6 -->
<g id="edge5_Node000005_Node000006" class="edge">
<title>Node5&#45;&gt;Node6</title>
<g id="a_edge5_Node000005_Node000006"><a xlink:title=" ">
<path fill="none" stroke="#63b8ff" d="M199.25,-43.63C199.25,-35.34 199.25,-26.17 199.25,-19.61"/>
<polygon fill="#63b8ff" stroke="#63b8ff" points="195.75,-43.57 199.25,-53.57 202.75,-43.57 195.75,-43.57"/>
</a>
</g>
</g>
<!-- Node8 -->
<g id="Node000008" class="node">
<title>Node8</title>
<g id="a_Node000008"><a xlink:href="_example_tree_selector_8_c.html" target="_top" xlink:title=" ">
<polygon fill="white" stroke="#666666" points="392.88,-19.25 275.62,-19.25 275.62,0 392.88,0 392.88,-19.25"/>
<text text-anchor="middle" x="334.25" y="-5.75" font-family="Helvetica,sans-Serif" font-size="10.00">ExampleTreeSelector.C</text>
</a>
</g>
</g>
<!-- Node7&#45;&gt;Node8 -->
<g id="edge7_Node000007_Node000008" class="edge">
<title>Node7&#45;&gt;Node8</title>
<g id="a_edge7_Node000007_Node000008"><a xlink:title=" ">
<path fill="none" stroke="#63b8ff" d="M333.01,-43.63C333.32,-35.34 333.67,-26.17 333.91,-19.61"/>
<polygon fill="#63b8ff" stroke="#63b8ff" points="329.51,-43.45 332.64,-53.57 336.51,-43.71 329.51,-43.45"/>
</a>
</g>
</g>
<!-- Node14 -->
<g id="Node000014" class="node">
<title>Node14</title>
<g id="a_Node000014"><a xlink:href="_tac_offset_helper_8cxx.html" target="_top" xlink:title=" ">
<polygon fill="white" stroke="#666666" points="858.12,-19.25 754.38,-19.25 754.38,0 858.12,0 858.12,-19.25"/>
<text text-anchor="middle" x="806.25" y="-5.75" font-family="Helvetica,sans-Serif" font-size="10.00">TacOffsetHelper.cxx</text>
</a>
</g>
</g>
<!-- Node13&#45;&gt;Node14 -->
<g id="edge13_Node000013_Node000014" class="edge">
<title>Node13&#45;&gt;Node14</title>
<g id="a_edge13_Node000013_Node000014"><a xlink:title=" ">
<path fill="none" stroke="#63b8ff" d="M806.25,-43.63C806.25,-35.34 806.25,-26.17 806.25,-19.61"/>
<polygon fill="#63b8ff" stroke="#63b8ff" points="802.75,-43.57 806.25,-53.57 809.75,-43.57 802.75,-43.57"/>
</a>
</g>
</g>
</g>
</svg>
