<?xml version="1.0" encoding="UTF-8" standalone="no"?>
<!DOCTYPE svg PUBLIC "-//W3C//DTD SVG 1.1//EN"
 "http://www.w3.org/Graphics/SVG/1.1/DTD/svg11.dtd">
<!-- Generated by graphviz version 9.0.0 (20230911.1827)
 -->
<!-- Title: TDetectorHit Pages: 1 -->
<svg width="420pt" height="1100pt"
 viewBox="0.00 0.00 420.00 1100.25" xmlns="http://www.w3.org/2000/svg" xmlns:xlink="http://www.w3.org/1999/xlink">
<g id="graph0" class="graph" transform="scale(1 1) rotate(0) translate(4 1096.25)">
<title>TDetectorHit</title>
<!-- Node1 -->
<g id="Node000001" class="node">
<title>Node1</title>
<g id="a_Node000001"><a xlink:title=" ">
<polygon fill="#999999" stroke="#666666" points="158,-518.25 86.5,-518.25 86.5,-499 158,-499 158,-518.25"/>
<text text-anchor="middle" x="122.25" y="-504.75" font-family="Helvetica,sans-Serif" font-size="10.00">TDetectorHit</text>
</a>
</g>
</g>
<!-- Node3 -->
<g id="Node000003" class="node">
<title>Node3</title>
<g id="a_Node000003"><a xlink:href="class_t_bgo_hit.html" target="_top" xlink:title=" ">
<polygon fill="white" stroke="#666666" points="262.5,-1018.25 210.5,-1018.25 210.5,-999 262.5,-999 262.5,-1018.25"/>
<text text-anchor="middle" x="236.5" y="-1004.75" font-family="Helvetica,sans-Serif" font-size="10.00">TBgoHit</text>
</a>
</g>
</g>
<!-- Node1&#45;&gt;Node3 -->
<g id="edge2_Node000001_Node000003" class="edge">
<title>Node1&#45;&gt;Node3</title>
<g id="a_edge2_Node000001_Node000003"><a xlink:title=" ">
<path fill="none" stroke="#63b8ff" d="M123.69,-529.91C125.82,-613.28 137.37,-916.69 194,-990.62 198.11,-995.99 204.14,-999.78 210.34,-1002.45"/>
<polygon fill="#63b8ff" stroke="#63b8ff" points="127.19,-529.92 123.46,-520 120.19,-530.08 127.19,-529.92"/>
</a>
</g>
</g>
<!-- Node9 -->
<g id="Node000009" class="node">
<title>Node9</title>
<g id="a_Node000009"><a xlink:href="class_t_c_s_m_hit.html" target="_top" xlink:title=" ">
<polygon fill="white" stroke="#666666" points="264.75,-981.25 208.25,-981.25 208.25,-962 264.75,-962 264.75,-981.25"/>
<text text-anchor="middle" x="236.5" y="-967.75" font-family="Helvetica,sans-Serif" font-size="10.00">TCSMHit</text>
</a>
</g>
</g>
<!-- Node1&#45;&gt;Node9 -->
<g id="edge8_Node000001_Node000009" class="edge">
<title>Node1&#45;&gt;Node9</title>
<g id="a_edge8_Node000001_Node000009"><a xlink:title=" ">
<path fill="none" stroke="#63b8ff" d="M123.97,-529.78C127.07,-608.86 141.55,-885.99 194,-953.62 197.56,-958.22 202.53,-961.66 207.8,-964.23"/>
<polygon fill="#63b8ff" stroke="#63b8ff" points="127.48,-529.86 123.61,-520 120.48,-530.12 127.48,-529.86"/>
</a>
</g>
</g>
<!-- Node10 -->
<g id="Node000010" class="node">
<title>Node10</title>
<g id="a_Node000010"><a xlink:href="class_t_descant_hit.html" target="_top" xlink:title=" ">
<polygon fill="white" stroke="#666666" points="271.88,-944.25 201.12,-944.25 201.12,-925 271.88,-925 271.88,-944.25"/>
<text text-anchor="middle" x="236.5" y="-930.75" font-family="Helvetica,sans-Serif" font-size="10.00">TDescantHit</text>
</a>
</g>
</g>
<!-- Node1&#45;&gt;Node10 -->
<g id="edge9_Node000001_Node000010" class="edge">
<title>Node1&#45;&gt;Node10</title>
<g id="a_edge9_Node000001_Node000010"><a xlink:title=" ">
<path fill="none" stroke="#63b8ff" d="M124.29,-529.44C128.4,-603.82 145.68,-855.2 194,-916.62 196.53,-919.83 199.74,-922.48 203.25,-924.67"/>
<polygon fill="#63b8ff" stroke="#63b8ff" points="127.81,-529.7 123.79,-519.9 120.82,-530.07 127.81,-529.7"/>
</a>
</g>
</g>
<!-- Node11 -->
<g id="Node000011" class="node">
<title>Node11</title>
<g id="a_Node000011"><a xlink:href="class_t_eagle_hit.html" target="_top" xlink:title=" ">
<polygon fill="white" stroke="#666666" points="265.88,-907.25 207.12,-907.25 207.12,-888 265.88,-888 265.88,-907.25"/>
<text text-anchor="middle" x="236.5" y="-893.75" font-family="Helvetica,sans-Serif" font-size="10.00">TEagleHit</text>
</a>
</g>
</g>
<!-- Node1&#45;&gt;Node11 -->
<g id="edge10_Node000001_Node000011" class="edge">
<title>Node1&#45;&gt;Node11</title>
<g id="a_edge10_Node000001_Node000011"><a xlink:title=" ">
<path fill="none" stroke="#63b8ff" d="M124.72,-529.78C129.97,-600.09 149.93,-824.57 194,-879.62 197.34,-883.79 201.83,-887.02 206.63,-889.51"/>
<polygon fill="#63b8ff" stroke="#63b8ff" points="128.22,-529.76 124.01,-520.03 121.24,-530.26 128.22,-529.76"/>
</a>
</g>
</g>
<!-- Node12 -->
<g id="Node000012" class="node">
<title>Node12</title>
<g id="a_Node000012"><a xlink:href="class_t_emma_hit.html" target="_top" xlink:title=" ">
<polygon fill="white" stroke="#666666" points="267.75,-870.25 205.25,-870.25 205.25,-851 267.75,-851 267.75,-870.25"/>
<text text-anchor="middle" x="236.5" y="-856.75" font-family="Helvetica,sans-Serif" font-size="10.00">TEmmaHit</text>
</a>
</g>
</g>
<!-- Node1&#45;&gt;Node12 -->
<g id="edge11_Node000001_Node000012" class="edge">
<title>Node1&#45;&gt;Node12</title>
<g id="a_edge11_Node000001_Node000012"><a xlink:title=" ">
<path fill="none" stroke="#63b8ff" d="M125.2,-529.77C131.64,-595.33 154.09,-793.79 194,-842.62 196.98,-846.27 200.85,-849.2 205.01,-851.54"/>
<polygon fill="#63b8ff" stroke="#63b8ff" points="128.71,-529.64 124.27,-520.01 121.74,-530.3 128.71,-529.64"/>
</a>
</g>
</g>
<!-- Node13 -->
<g id="Node000013" class="node">
<title>Node13</title>
<g id="a_Node000013"><a xlink:href="class_t_fipps_hit.html" target="_top" xlink:title=" ">
<polygon fill="white" stroke="#666666" points="265.88,-833.25 207.12,-833.25 207.12,-814 265.88,-814 265.88,-833.25"/>
<text text-anchor="middle" x="236.5" y="-819.75" font-family="Helvetica,sans-Serif" font-size="10.00">TFippsHit</text>
</a>
</g>
</g>
<!-- Node1&#45;&gt;Node13 -->
<g id="edge12_Node000001_Node000013" class="edge">
<title>Node1&#45;&gt;Node13</title>
<g id="a_edge12_Node000001_Node000013"><a xlink:title=" ">
<path fill="none" stroke="#63b8ff" d="M125.81,-529.77C133.53,-590.35 158.23,-762.96 194,-805.62 197.43,-809.72 201.97,-812.91 206.78,-815.38"/>
<polygon fill="#63b8ff" stroke="#63b8ff" points="129.32,-529.62 124.61,-520.13 122.37,-530.48 129.32,-529.62"/>
</a>
</g>
</g>
<!-- Node14 -->
<g id="Node000014" class="node">
<title>Node14</title>
<g id="a_Node000014"><a xlink:href="class_t_fipps_la_br_hit.html" target="_top" xlink:title=" ">
<polygon fill="white" stroke="#666666" points="276.38,-796.25 196.62,-796.25 196.62,-777 276.38,-777 276.38,-796.25"/>
<text text-anchor="middle" x="236.5" y="-782.75" font-family="Helvetica,sans-Serif" font-size="10.00">TFippsLaBrHit</text>
</a>
</g>
</g>
<!-- Node1&#45;&gt;Node14 -->
<g id="edge13_Node000001_Node000014" class="edge">
<title>Node1&#45;&gt;Node14</title>
<g id="a_edge13_Node000001_Node000014"><a xlink:title=" ">
<path fill="none" stroke="#63b8ff" d="M123.13,-529.91C123.97,-578.27 132.57,-697.68 194,-768.62 196.78,-771.83 200.23,-774.49 203.95,-776.68"/>
<polygon fill="#63b8ff" stroke="#63b8ff" points="126.63,-529.99 123.06,-520.01 119.63,-530.03 126.63,-529.99"/>
</a>
</g>
</g>
<!-- Node15 -->
<g id="Node000015" class="node">
<title>Node15</title>
<g id="a_Node000015"><a xlink:href="class_t_fipps_t_a_c_hit.html" target="_top" xlink:title=" ">
<polygon fill="white" stroke="#666666" points="275.62,-759.25 197.38,-759.25 197.38,-740 275.62,-740 275.62,-759.25"/>
<text text-anchor="middle" x="236.5" y="-745.75" font-family="Helvetica,sans-Serif" font-size="10.00">TFippsTACHit</text>
</a>
</g>
</g>
<!-- Node1&#45;&gt;Node15 -->
<g id="edge14_Node000001_Node000015" class="edge">
<title>Node1&#45;&gt;Node15</title>
<g id="a_edge14_Node000001_Node000015"><a xlink:title=" ">
<path fill="none" stroke="#63b8ff" d="M124.29,-529.78C127.5,-573.03 140.6,-672.48 194,-731.62 196.84,-734.77 200.33,-737.39 204.07,-739.57"/>
<polygon fill="#63b8ff" stroke="#63b8ff" points="127.79,-529.76 123.68,-520 120.81,-530.2 127.79,-529.76"/>
</a>
</g>
</g>
<!-- Node16 -->
<g id="Node000016" class="node">
<title>Node16</title>
<g id="a_Node000016"><a xlink:href="class_t_fragment.html" target="_top" xlink:title=" ">
<polygon fill="white" stroke="#666666" points="268.12,-722.25 204.88,-722.25 204.88,-703 268.12,-703 268.12,-722.25"/>
<text text-anchor="middle" x="236.5" y="-708.75" font-family="Helvetica,sans-Serif" font-size="10.00">TFragment</text>
</a>
</g>
</g>
<!-- Node1&#45;&gt;Node16 -->
<g id="edge15_Node000001_Node000016" class="edge">
<title>Node1&#45;&gt;Node16</title>
<g id="a_edge15_Node000001_Node000016"><a xlink:title=" ">
<path fill="none" stroke="#63b8ff" d="M125.85,-529.6C131.56,-567.3 148.55,-647.04 194,-694.62 197.04,-697.81 200.73,-700.46 204.65,-702.66"/>
<polygon fill="#63b8ff" stroke="#63b8ff" points="129.36,-529.45 124.53,-520.03 122.43,-530.41 129.36,-529.45"/>
</a>
</g>
</g>
<!-- Node19 -->
<g id="Node000019" class="node">
<title>Node19</title>
<g id="a_Node000019"><a xlink:href="class_t_griffin_hit.html" target="_top" xlink:title=" ">
<polygon fill="white" stroke="#666666" points="266.25,-685.25 206.75,-685.25 206.75,-666 266.25,-666 266.25,-685.25"/>
<text text-anchor="middle" x="236.5" y="-671.75" font-family="Helvetica,sans-Serif" font-size="10.00">TGriffinHit</text>
</a>
</g>
</g>
<!-- Node1&#45;&gt;Node19 -->
<g id="edge18_Node000001_Node000019" class="edge">
<title>Node1&#45;&gt;Node19</title>
<g id="a_edge18_Node000001_Node000019"><a xlink:title=" ">
<path fill="none" stroke="#63b8ff" d="M128.07,-529.31C136.41,-560.89 156.37,-621.26 194,-657.62 197.61,-661.12 202.01,-663.99 206.58,-666.33"/>
<polygon fill="#63b8ff" stroke="#63b8ff" points="131.53,-528.71 125.72,-519.85 124.74,-530.4 131.53,-528.71"/>
</a>
</g>
</g>
<!-- Node20 -->
<g id="Node000020" class="node">
<title>Node20</title>
<g id="a_Node000020"><a xlink:href="class_t_ifin_hit.html" target="_top" xlink:title=" ">
<polygon fill="white" stroke="#666666" points="260.25,-648.25 212.75,-648.25 212.75,-629 260.25,-629 260.25,-648.25"/>
<text text-anchor="middle" x="236.5" y="-634.75" font-family="Helvetica,sans-Serif" font-size="10.00">TIfinHit</text>
</a>
</g>
</g>
<!-- Node1&#45;&gt;Node20 -->
<g id="edge19_Node000001_Node000020" class="edge">
<title>Node1&#45;&gt;Node20</title>
<g id="a_edge19_Node000001_Node000020"><a xlink:title=" ">
<path fill="none" stroke="#63b8ff" d="M131.61,-529.04C142.62,-553.7 164.14,-595.05 194,-620.62 199.37,-625.22 206.09,-628.81 212.55,-631.54"/>
<polygon fill="#63b8ff" stroke="#63b8ff" points="134.93,-527.91 127.77,-520.1 128.5,-530.67 134.93,-527.91"/>
</a>
</g>
</g>
<!-- Node21 -->
<g id="Node000021" class="node">
<title>Node21</title>
<g id="a_Node000021"><a xlink:href="class_t_la_br_hit.html" target="_top" xlink:title=" ">
<polygon fill="white" stroke="#666666" points="264.38,-611.25 208.62,-611.25 208.62,-592 264.38,-592 264.38,-611.25"/>
<text text-anchor="middle" x="236.5" y="-597.75" font-family="Helvetica,sans-Serif" font-size="10.00">TLaBrHit</text>
</a>
</g>
</g>
<!-- Node1&#45;&gt;Node21 -->
<g id="edge20_Node000001_Node000021" class="edge">
<title>Node1&#45;&gt;Node21</title>
<g id="a_edge20_Node000001_Node000021"><a xlink:title=" ">
<path fill="none" stroke="#63b8ff" d="M137.3,-527.38C150.47,-543.92 171.46,-567.81 194,-583.62 198.37,-586.69 203.35,-589.4 208.3,-591.72"/>
<polygon fill="#63b8ff" stroke="#63b8ff" points="140.31,-525.55 131.42,-519.79 134.78,-529.84 140.31,-525.55"/>
</a>
</g>
</g>
<!-- Node22 -->
<g id="Node000022" class="node">
<title>Node22</title>
<g id="a_Node000022"><a xlink:href="class_t_paces_hit.html" target="_top" xlink:title=" ">
<polygon fill="white" stroke="#666666" points="267.75,-574.25 205.25,-574.25 205.25,-555 267.75,-555 267.75,-574.25"/>
<text text-anchor="middle" x="236.5" y="-560.75" font-family="Helvetica,sans-Serif" font-size="10.00">TPacesHit</text>
</a>
</g>
</g>
<!-- Node1&#45;&gt;Node22 -->
<g id="edge21_Node000001_Node000022" class="edge">
<title>Node1&#45;&gt;Node22</title>
<g id="a_edge21_Node000001_Node000022"><a xlink:title=" ">
<path fill="none" stroke="#63b8ff" d="M150.79,-524.11C163.77,-531.23 179.54,-539.62 194,-546.62 199.65,-549.36 205.83,-552.15 211.64,-554.68"/>
<polygon fill="#63b8ff" stroke="#63b8ff" points="152.83,-521.24 142.39,-519.46 149.45,-527.36 152.83,-521.24"/>
</a>
</g>
</g>
<!-- Node23 -->
<g id="Node000023" class="node">
<title>Node23</title>
<g id="a_Node000023"><a xlink:href="class_t_pin_diode_hit.html" target="_top" xlink:title=" ">
<polygon fill="white" stroke="#666666" points="273.38,-537.25 199.62,-537.25 199.62,-518 273.38,-518 273.38,-537.25"/>
<text text-anchor="middle" x="236.5" y="-523.75" font-family="Helvetica,sans-Serif" font-size="10.00">TPinDiodeHit</text>
</a>
</g>
</g>
<!-- Node1&#45;&gt;Node23 -->
<g id="edge22_Node000001_Node000023" class="edge">
<title>Node1&#45;&gt;Node23</title>
<g id="a_edge22_Node000001_Node000023"><a xlink:title=" ">
<path fill="none" stroke="#63b8ff" d="M169.76,-516.5C179.6,-518.16 189.86,-519.9 199.26,-521.49"/>
<polygon fill="#63b8ff" stroke="#63b8ff" points="170.39,-513.06 159.95,-514.84 169.23,-519.96 170.39,-513.06"/>
</a>
</g>
</g>
<!-- Node24 -->
<g id="Node000024" class="node">
<title>Node24</title>
<g id="a_Node000024"><a xlink:href="class_t_s3_hit.html" target="_top" xlink:title=" ">
<polygon fill="white" stroke="#666666" points="259.88,-500.25 213.12,-500.25 213.12,-481 259.88,-481 259.88,-500.25"/>
<text text-anchor="middle" x="236.5" y="-486.75" font-family="Helvetica,sans-Serif" font-size="10.00">TS3Hit</text>
</a>
</g>
</g>
<!-- Node1&#45;&gt;Node24 -->
<g id="edge23_Node000001_Node000024" class="edge">
<title>Node1&#45;&gt;Node24</title>
<g id="a_edge23_Node000001_Node000024"><a xlink:title=" ">
<path fill="none" stroke="#63b8ff" d="M169.6,-501.19C184.51,-498.8 200.37,-496.26 212.8,-494.27"/>
<polygon fill="#63b8ff" stroke="#63b8ff" points="169.27,-497.7 159.95,-502.74 170.38,-504.61 169.27,-497.7"/>
</a>
</g>
</g>
<!-- Node25 -->
<g id="Node000025" class="node">
<title>Node25</title>
<g id="a_Node000025"><a xlink:href="class_t_sceptar_hit.html" target="_top" xlink:title=" ">
<polygon fill="white" stroke="#666666" points="270.75,-463.25 202.25,-463.25 202.25,-444 270.75,-444 270.75,-463.25"/>
<text text-anchor="middle" x="236.5" y="-449.75" font-family="Helvetica,sans-Serif" font-size="10.00">TSceptarHit</text>
</a>
</g>
</g>
<!-- Node1&#45;&gt;Node25 -->
<g id="edge24_Node000001_Node000025" class="edge">
<title>Node1&#45;&gt;Node25</title>
<g id="a_edge24_Node000001_Node000025"><a xlink:title=" ">
<path fill="none" stroke="#63b8ff" d="M151.75,-493.12C164.56,-486.3 179.93,-478.35 194,-471.62 199.67,-468.92 205.85,-466.14 211.66,-463.61"/>
<polygon fill="#63b8ff" stroke="#63b8ff" points="150.18,-489.99 143.02,-497.8 153.49,-496.16 150.18,-489.99"/>
</a>
</g>
</g>
<!-- Node26 -->
<g id="Node000026" class="node">
<title>Node26</title>
<g id="a_Node000026"><a xlink:href="class_t_sharc2_hit.html" target="_top" xlink:title=" ">
<polygon fill="white" stroke="#666666" points="269.25,-426.25 203.75,-426.25 203.75,-407 269.25,-407 269.25,-426.25"/>
<text text-anchor="middle" x="236.5" y="-412.75" font-family="Helvetica,sans-Serif" font-size="10.00">TSharc2Hit</text>
</a>
</g>
</g>
<!-- Node1&#45;&gt;Node26 -->
<g id="edge25_Node000001_Node000026" class="edge">
<title>Node1&#45;&gt;Node26</title>
<g id="a_edge25_Node000001_Node000026"><a xlink:title=" ">
<path fill="none" stroke="#63b8ff" d="M137.56,-489.87C150.78,-473.56 171.69,-450.17 194,-434.62 198.38,-431.57 203.36,-428.87 208.32,-426.55"/>
<polygon fill="#63b8ff" stroke="#63b8ff" points="135.1,-487.34 131.66,-497.35 140.6,-491.67 135.1,-487.34"/>
</a>
</g>
</g>
<!-- Node27 -->
<g id="Node000027" class="node">
<title>Node27</title>
<g id="a_Node000027"><a xlink:href="class_t_sharc_hit.html" target="_top" xlink:title=" ">
<polygon fill="white" stroke="#666666" points="266.62,-389.25 206.38,-389.25 206.38,-370 266.62,-370 266.62,-389.25"/>
<text text-anchor="middle" x="236.5" y="-375.75" font-family="Helvetica,sans-Serif" font-size="10.00">TSharcHit</text>
</a>
</g>
</g>
<!-- Node1&#45;&gt;Node27 -->
<g id="edge26_Node000001_Node000027" class="edge">
<title>Node1&#45;&gt;Node27</title>
<g id="a_edge26_Node000001_Node000027"><a xlink:title=" ">
<path fill="none" stroke="#63b8ff" d="M131.65,-488.4C142.71,-463.96 164.28,-422.98 194,-397.62 197.58,-394.57 201.77,-391.95 206.07,-389.74"/>
<polygon fill="#63b8ff" stroke="#63b8ff" points="128.58,-486.68 127.8,-497.25 135,-489.47 128.58,-486.68"/>
</a>
</g>
</g>
<!-- Node28 -->
<g id="Node000028" class="node">
<title>Node28</title>
<g id="a_Node000028"><a xlink:href="class_t_si_li_hit.html" target="_top" xlink:title=" ">
<polygon fill="white" stroke="#666666" points="262.5,-352.25 210.5,-352.25 210.5,-333 262.5,-333 262.5,-352.25"/>
<text text-anchor="middle" x="236.5" y="-338.75" font-family="Helvetica,sans-Serif" font-size="10.00">TSiLiHit</text>
</a>
</g>
</g>
<!-- Node1&#45;&gt;Node28 -->
<g id="edge27_Node000001_Node000028" class="edge">
<title>Node1&#45;&gt;Node28</title>
<g id="a_edge27_Node000001_Node000028"><a xlink:title=" ">
<path fill="none" stroke="#63b8ff" d="M128.23,-487.62C136.7,-456.13 156.71,-396.57 194,-360.62 198.52,-356.26 204.27,-352.87 210.04,-350.27"/>
<polygon fill="#63b8ff" stroke="#63b8ff" points="124.9,-486.53 125.83,-497.09 131.68,-488.25 124.9,-486.53"/>
</a>
</g>
</g>
<!-- Node29 -->
<g id="Node000029" class="node">
<title>Node29</title>
<g id="a_Node000029"><a xlink:href="class_t_t_a_c_hit.html" target="_top" xlink:title=" ">
<polygon fill="white" stroke="#666666" points="263.62,-315.25 209.38,-315.25 209.38,-296 263.62,-296 263.62,-315.25"/>
<text text-anchor="middle" x="236.5" y="-301.75" font-family="Helvetica,sans-Serif" font-size="10.00">TTACHit</text>
</a>
</g>
</g>
<!-- Node1&#45;&gt;Node29 -->
<g id="edge28_Node000001_Node000029" class="edge">
<title>Node1&#45;&gt;Node29</title>
<g id="a_edge28_Node000001_Node000029"><a xlink:title=" ">
<path fill="none" stroke="#63b8ff" d="M125.88,-487.77C131.65,-450.26 148.72,-370.94 194,-323.62 198.13,-319.31 203.46,-315.97 208.92,-313.41"/>
<polygon fill="#63b8ff" stroke="#63b8ff" points="122.47,-486.89 124.55,-497.28 129.4,-487.86 122.47,-486.89"/>
</a>
</g>
</g>
<!-- Node30 -->
<g id="Node000030" class="node">
<title>Node30</title>
<g id="a_Node000030"><a xlink:href="class_t_tdr_clover_hit.html" target="_top" xlink:title=" ">
<polygon fill="white" stroke="#666666" points="274.88,-278.25 198.12,-278.25 198.12,-259 274.88,-259 274.88,-278.25"/>
<text text-anchor="middle" x="236.5" y="-264.75" font-family="Helvetica,sans-Serif" font-size="10.00">TTdrCloverHit</text>
</a>
</g>
</g>
<!-- Node1&#45;&gt;Node30 -->
<g id="edge29_Node000001_Node000030" class="edge">
<title>Node1&#45;&gt;Node30</title>
<g id="a_edge29_Node000001_Node000030"><a xlink:title=" ">
<path fill="none" stroke="#63b8ff" d="M124.32,-487.56C127.58,-444.5 140.78,-345.49 194,-286.62 196.84,-283.48 200.33,-280.86 204.07,-278.68"/>
<polygon fill="#63b8ff" stroke="#63b8ff" points="120.84,-487.09 123.7,-497.3 127.83,-487.54 120.84,-487.09"/>
</a>
</g>
</g>
<!-- Node31 -->
<g id="Node000031" class="node">
<title>Node31</title>
<g id="a_Node000031"><a xlink:href="class_t_tdr_plastic_hit.html" target="_top" xlink:title=" ">
<polygon fill="white" stroke="#666666" points="276,-241.25 197,-241.25 197,-222 276,-222 276,-241.25"/>
<text text-anchor="middle" x="236.5" y="-227.75" font-family="Helvetica,sans-Serif" font-size="10.00">TTdrPlasticHit</text>
</a>
</g>
</g>
<!-- Node1&#45;&gt;Node31 -->
<g id="edge30_Node000001_Node000031" class="edge">
<title>Node1&#45;&gt;Node31</title>
<g id="a_edge30_Node000001_Node000031"><a xlink:title=" ">
<path fill="none" stroke="#63b8ff" d="M123.16,-487.09C124.09,-438.7 132.9,-320.13 194,-249.62 196.78,-246.42 200.23,-243.77 203.95,-241.57"/>
<polygon fill="#63b8ff" stroke="#63b8ff" points="119.66,-486.99 123.08,-497.02 126.66,-487.05 119.66,-486.99"/>
</a>
</g>
</g>
<!-- Node32 -->
<g id="Node000032" class="node">
<title>Node32</title>
<g id="a_Node000032"><a xlink:href="class_t_tdr_si_li_hit.html" target="_top" xlink:title=" ">
<polygon fill="white" stroke="#666666" points="269.62,-204.25 203.38,-204.25 203.38,-185 269.62,-185 269.62,-204.25"/>
<text text-anchor="middle" x="236.5" y="-190.75" font-family="Helvetica,sans-Serif" font-size="10.00">TTdrSiLiHit</text>
</a>
</g>
</g>
<!-- Node1&#45;&gt;Node32 -->
<g id="edge31_Node000001_Node000032" class="edge">
<title>Node1&#45;&gt;Node32</title>
<g id="a_edge31_Node000001_Node000032"><a xlink:title=" ">
<path fill="none" stroke="#63b8ff" d="M125.82,-487.56C133.56,-427.18 158.33,-255.14 194,-212.62 196.62,-209.5 199.9,-206.9 203.44,-204.74"/>
<polygon fill="#63b8ff" stroke="#63b8ff" points="122.39,-486.8 124.62,-497.16 129.33,-487.67 122.39,-486.8"/>
</a>
</g>
</g>
<!-- Node33 -->
<g id="Node000033" class="node">
<title>Node33</title>
<g id="a_Node000033"><a xlink:href="class_t_tdr_tigress_hit.html" target="_top" xlink:title=" ">
<polygon fill="white" stroke="#666666" points="277.12,-167.25 195.88,-167.25 195.88,-148 277.12,-148 277.12,-167.25"/>
<text text-anchor="middle" x="236.5" y="-153.75" font-family="Helvetica,sans-Serif" font-size="10.00">TTdrTigressHit</text>
</a>
</g>
</g>
<!-- Node1&#45;&gt;Node33 -->
<g id="edge32_Node000001_Node000033" class="edge">
<title>Node1&#45;&gt;Node33</title>
<g id="a_edge32_Node000001_Node000033"><a xlink:title=" ">
<path fill="none" stroke="#63b8ff" d="M125.21,-487.55C131.68,-422.17 154.19,-224.31 194,-175.62 196.59,-172.46 199.83,-169.84 203.37,-167.68"/>
<polygon fill="#63b8ff" stroke="#63b8ff" points="121.75,-486.98 124.28,-497.27 128.72,-487.65 121.75,-486.98"/>
</a>
</g>
</g>
<!-- Node34 -->
<g id="Node000034" class="node">
<title>Node34</title>
<g id="a_Node000034"><a xlink:href="class_t_tigress_hit.html" target="_top" xlink:title=" ">
<polygon fill="white" stroke="#666666" points="270,-130.25 203,-130.25 203,-111 270,-111 270,-130.25"/>
<text text-anchor="middle" x="236.5" y="-116.75" font-family="Helvetica,sans-Serif" font-size="10.00">TTigressHit</text>
</a>
</g>
</g>
<!-- Node1&#45;&gt;Node34 -->
<g id="edge33_Node000001_Node000034" class="edge">
<title>Node1&#45;&gt;Node34</title>
<g id="a_edge33_Node000001_Node000034"><a xlink:title=" ">
<path fill="none" stroke="#63b8ff" d="M124.72,-487.53C130,-417.41 150.03,-193.53 194,-138.62 196.55,-135.44 199.78,-132.8 203.3,-130.63"/>
<polygon fill="#63b8ff" stroke="#63b8ff" points="121.25,-487.02 124.02,-497.24 128.23,-487.52 121.25,-487.02"/>
</a>
</g>
</g>
<!-- Node35 -->
<g id="Node000035" class="node">
<title>Node35</title>
<g id="a_Node000035"><a xlink:href="class_t_tip_hit.html" target="_top" xlink:title=" ">
<polygon fill="white" stroke="#666666" points="260.62,-93.25 212.38,-93.25 212.38,-74 260.62,-74 260.62,-93.25"/>
<text text-anchor="middle" x="236.5" y="-79.75" font-family="Helvetica,sans-Serif" font-size="10.00">TTipHit</text>
</a>
</g>
</g>
<!-- Node1&#45;&gt;Node35 -->
<g id="edge34_Node000001_Node000035" class="edge">
<title>Node1&#45;&gt;Node35</title>
<g id="a_edge34_Node000001_Node000035"><a xlink:title=" ">
<path fill="none" stroke="#63b8ff" d="M124.33,-487.37C128.51,-412.58 145.88,-162.76 194,-101.62 198.57,-95.82 205.37,-91.86 212.16,-89.16"/>
<polygon fill="#63b8ff" stroke="#63b8ff" points="120.85,-486.84 123.81,-497.01 127.84,-487.21 120.85,-486.84"/>
</a>
</g>
</g>
<!-- Node36 -->
<g id="Node000036" class="node">
<title>Node36</title>
<g id="a_Node000036"><a xlink:href="class_t_trific_hit.html" target="_top" xlink:title=" ">
<polygon fill="white" stroke="#666666" points="264.38,-56.25 208.62,-56.25 208.62,-37 264.38,-37 264.38,-56.25"/>
<text text-anchor="middle" x="236.5" y="-42.75" font-family="Helvetica,sans-Serif" font-size="10.00">TTrificHit</text>
</a>
</g>
</g>
<!-- Node1&#45;&gt;Node36 -->
<g id="edge35_Node000001_Node000036" class="edge">
<title>Node1&#45;&gt;Node36</title>
<g id="a_edge35_Node000001_Node000036"><a xlink:title=" ">
<path fill="none" stroke="#63b8ff" d="M123.98,-487.52C127.1,-408.62 141.65,-132.1 194,-64.62 197.66,-59.91 202.8,-56.41 208.23,-53.81"/>
<polygon fill="#63b8ff" stroke="#63b8ff" points="120.49,-487.15 123.62,-497.27 127.49,-487.41 120.49,-487.15"/>
</a>
</g>
</g>
<!-- Node37 -->
<g id="Node000037" class="node">
<title>Node37</title>
<g id="a_Node000037"><a xlink:href="class_t_zero_degree_hit.html" target="_top" xlink:title=" ">
<polygon fill="white" stroke="#666666" points="279,-19.25 194,-19.25 194,0 279,0 279,-19.25"/>
<text text-anchor="middle" x="236.5" y="-5.75" font-family="Helvetica,sans-Serif" font-size="10.00">TZeroDegreeHit</text>
</a>
</g>
</g>
<!-- Node1&#45;&gt;Node37 -->
<g id="edge36_Node000001_Node000037" class="edge">
<title>Node1&#45;&gt;Node37</title>
<g id="a_edge36_Node000001_Node000037"><a xlink:title=" ">
<path fill="none" stroke="#63b8ff" d="M123.7,-487.39C125.84,-404.18 137.47,-101.4 194,-27.62 196.48,-24.38 199.67,-21.72 203.17,-19.52"/>
<polygon fill="#63b8ff" stroke="#63b8ff" points="120.2,-487.19 123.46,-497.27 127.2,-487.36 120.2,-487.19"/>
</a>
</g>
</g>
<!-- Node2 -->
<g id="Node000002" class="node">
<title>Node2</title>
<g id="a_Node000002"><a xlink:title=" ">
<polygon fill="white" stroke="#666666" points="50.5,-518.25 0,-518.25 0,-499 50.5,-499 50.5,-518.25"/>
<text text-anchor="middle" x="25.25" y="-504.75" font-family="Helvetica,sans-Serif" font-size="10.00">TObject</text>
</a>
</g>
</g>
<!-- Node2&#45;&gt;Node1 -->
<g id="edge1_Node000001_Node000002" class="edge">
<title>Node2&#45;&gt;Node1</title>
<g id="a_edge1_Node000001_Node000002"><a xlink:title=" ">
<path fill="none" stroke="#63b8ff" d="M62.16,-508.62C70.01,-508.62 78.31,-508.62 86.12,-508.62"/>
<polygon fill="#63b8ff" stroke="#63b8ff" points="62.23,-505.13 52.23,-508.63 62.23,-512.13 62.23,-505.13"/>
</a>
</g>
</g>
<!-- Node4 -->
<g id="Node000004" class="node">
<title>Node4</title>
<g id="a_Node000004"><a xlink:href="class_t_fipps_bgo_hit.html" target="_top" xlink:title=" ">
<polygon fill="white" stroke="#666666" points="401.5,-1092.25 325.5,-1092.25 325.5,-1073 401.5,-1073 401.5,-1092.25"/>
<text text-anchor="middle" x="363.5" y="-1078.75" font-family="Helvetica,sans-Serif" font-size="10.00">TFippsBgoHit</text>
</a>
</g>
</g>
<!-- Node3&#45;&gt;Node4 -->
<g id="edge3_Node000003_Node000004" class="edge">
<title>Node3&#45;&gt;Node4</title>
<g id="a_edge3_Node000003_Node000004"><a xlink:title=" ">
<path fill="none" stroke="#63b8ff" d="M258.12,-1025.84C273.2,-1037.83 294.5,-1053.58 315,-1064.62 320.44,-1067.55 326.45,-1070.22 332.32,-1072.56"/>
<polygon fill="#63b8ff" stroke="#63b8ff" points="260.34,-1023.13 250.37,-1019.55 255.93,-1028.57 260.34,-1023.13"/>
</a>
</g>
</g>
<!-- Node5 -->
<g id="Node000005" class="node">
<title>Node5</title>
<g id="a_Node000005"><a xlink:href="class_t_fipps_la_br_bgo_hit.html" target="_top" xlink:title=" ">
<polygon fill="white" stroke="#666666" points="412,-1055.25 315,-1055.25 315,-1036 412,-1036 412,-1055.25"/>
<text text-anchor="middle" x="363.5" y="-1041.75" font-family="Helvetica,sans-Serif" font-size="10.00">TFippsLaBrBgoHit</text>
</a>
</g>
</g>
<!-- Node3&#45;&gt;Node5 -->
<g id="edge4_Node000003_Node000005" class="edge">
<title>Node3&#45;&gt;Node5</title>
<g id="a_edge4_Node000003_Node000005"><a xlink:title=" ">
<path fill="none" stroke="#63b8ff" d="M273.65,-1019.33C291,-1024.46 311.67,-1030.58 328.71,-1035.62"/>
<polygon fill="#63b8ff" stroke="#63b8ff" points="274.83,-1016.02 264.25,-1016.54 272.84,-1022.74 274.83,-1016.02"/>
</a>
</g>
</g>
<!-- Node6 -->
<g id="Node000006" class="node">
<title>Node6</title>
<g id="a_Node000006"><a xlink:href="class_t_griffin_bgo_hit.html" target="_top" xlink:title=" ">
<polygon fill="white" stroke="#666666" points="401.88,-1018.25 325.12,-1018.25 325.12,-999 401.88,-999 401.88,-1018.25"/>
<text text-anchor="middle" x="363.5" y="-1004.75" font-family="Helvetica,sans-Serif" font-size="10.00">TGriffinBgoHit</text>
</a>
</g>
</g>
<!-- Node3&#45;&gt;Node6 -->
<g id="edge5_Node000003_Node000006" class="edge">
<title>Node3&#45;&gt;Node6</title>
<g id="a_edge5_Node000003_Node000006"><a xlink:title=" ">
<path fill="none" stroke="#63b8ff" d="M273.89,-1008.62C289.92,-1008.62 308.74,-1008.62 324.91,-1008.62"/>
<polygon fill="#63b8ff" stroke="#63b8ff" points="274.31,-1005.13 264.31,-1008.63 274.31,-1012.13 274.31,-1005.13"/>
</a>
</g>
</g>
<!-- Node7 -->
<g id="Node000007" class="node">
<title>Node7</title>
<g id="a_Node000007"><a xlink:href="class_t_ifin_bgo_hit.html" target="_top" xlink:title=" ">
<polygon fill="white" stroke="#666666" points="395.88,-981.25 331.12,-981.25 331.12,-962 395.88,-962 395.88,-981.25"/>
<text text-anchor="middle" x="363.5" y="-967.75" font-family="Helvetica,sans-Serif" font-size="10.00">TIfinBgoHit</text>
</a>
</g>
</g>
<!-- Node3&#45;&gt;Node7 -->
<g id="edge6_Node000003_Node000007" class="edge">
<title>Node3&#45;&gt;Node7</title>
<g id="a_edge6_Node000003_Node000007"><a xlink:title=" ">
<path fill="none" stroke="#63b8ff" d="M273.82,-997.87C291.93,-992.51 313.63,-986.09 331.03,-980.94"/>
<polygon fill="#63b8ff" stroke="#63b8ff" points="272.84,-994.51 264.25,-1000.71 274.83,-1001.23 272.84,-994.51"/>
</a>
</g>
</g>
<!-- Node8 -->
<g id="Node000008" class="node">
<title>Node8</title>
<g id="a_Node000008"><a xlink:href="class_t_la_br_bgo_hit.html" target="_top" xlink:title=" ">
<polygon fill="white" stroke="#666666" points="400,-944.25 327,-944.25 327,-925 400,-925 400,-944.25"/>
<text text-anchor="middle" x="363.5" y="-930.75" font-family="Helvetica,sans-Serif" font-size="10.00">TLaBrBgoHit</text>
</a>
</g>
</g>
<!-- Node3&#45;&gt;Node8 -->
<g id="edge7_Node000003_Node000008" class="edge">
<title>Node3&#45;&gt;Node8</title>
<g id="a_edge7_Node000003_Node000008"><a xlink:title=" ">
<path fill="none" stroke="#63b8ff" d="M272.98,-994.43C275.07,-993.23 277.09,-991.96 279,-990.62 298.06,-977.28 295.63,-965.52 315,-952.62 319.55,-949.6 324.68,-946.98 329.85,-944.75"/>
<polygon fill="#63b8ff" stroke="#63b8ff" points="271.63,-991.19 264.3,-998.83 274.8,-997.43 271.63,-991.19"/>
</a>
</g>
</g>
<!-- Node17 -->
<g id="Node000017" class="node">
<title>Node17</title>
<g id="a_Node000017"><a xlink:href="class_t_bad_fragment.html" target="_top" xlink:title=" ">
<polygon fill="white" stroke="#666666" points="403.75,-741.25 323.25,-741.25 323.25,-722 403.75,-722 403.75,-741.25"/>
<text text-anchor="middle" x="363.5" y="-727.75" font-family="Helvetica,sans-Serif" font-size="10.00">TBadFragment</text>
</a>
</g>
</g>
<!-- Node16&#45;&gt;Node17 -->
<g id="edge16_Node000016_Node000017" class="edge">
<title>Node16&#45;&gt;Node17</title>
<g id="a_edge16_Node000016_Node000017"><a xlink:title=" ">
<path fill="none" stroke="#63b8ff" d="M279.72,-719.04C293.7,-721.17 309.2,-723.52 322.98,-725.62"/>
<polygon fill="#63b8ff" stroke="#63b8ff" points="280.31,-715.59 269.9,-717.55 279.26,-722.51 280.31,-715.59"/>
</a>
</g>
</g>
<!-- Node18 -->
<g id="Node000018" class="node">
<title>Node18</title>
<g id="a_Node000018"><a xlink:href="class_t_h_i_l_fragment.html" target="_top" xlink:title=" ">
<polygon fill="white" stroke="#666666" points="403.38,-704.25 323.62,-704.25 323.62,-685 403.38,-685 403.38,-704.25"/>
<text text-anchor="middle" x="363.5" y="-690.75" font-family="Helvetica,sans-Serif" font-size="10.00">THILFragment</text>
</a>
</g>
</g>
<!-- Node16&#45;&gt;Node18 -->
<g id="edge17_Node000016_Node000018" class="edge">
<title>Node16&#45;&gt;Node18</title>
<g id="a_edge17_Node000016_Node000018"><a xlink:title=" ">
<path fill="none" stroke="#63b8ff" d="M279.4,-706.59C293.62,-704.54 309.45,-702.26 323.44,-700.25"/>
<polygon fill="#63b8ff" stroke="#63b8ff" points="279.3,-703.07 269.9,-707.96 280.29,-710 279.3,-703.07"/>
</a>
</g>
</g>
</g>
</svg>
