<?xml version="1.0" encoding="UTF-8" standalone="no"?>
<!DOCTYPE svg PUBLIC "-//W3C//DTD SVG 1.1//EN"
 "http://www.w3.org/Graphics/SVG/1.1/DTD/svg11.dtd">
<!-- Generated by graphviz version 9.0.0 (20230911.1827)
 -->
<!-- Title: TDetector Pages: 1 -->
<!--zoomable 1026 -->

<svg id="main" version="1.1" xmlns="http://www.w3.org/2000/svg" xmlns:xlink="http://www.w3.org/1999/xlink" xml:space="preserve" onload="init(evt)">
<style type="text/css"><![CDATA[
.node, .edge {opacity: 0.7;}
.node.selected, .edge.selected {opacity: 1;}
.edge:hover path { stroke: red; }
.edge:hover polygon { stroke: red; fill: red; }
]]></style>

<defs>
  <circle id="rim" cx="0" cy="0" r="7"/>
  <circle id="rim2" cx="0" cy="0" r="3.5"/>
  <g id="zoomPlus">
    <use xlink:href="#rim" fill="#404040"><set attributeName="fill" to="#808080" begin="zoomplus.mouseover" end="zoomplus.mouseout"/></use>
    <path d="M-4,0h8M0,-4v8" fill="none" stroke="white" stroke-width="1.5" pointer-events="none"/>
  </g>
  <g id="zoomMin">
    <use xlink:href="#rim" fill="#404040"><set attributeName="fill" to="#808080" begin="zoomminus.mouseover" end="zoomminus.mouseout"/></use>
    <path d="M-4,0h8" fill="none" stroke="white" stroke-width="1.5" pointer-events="none"/>
  </g>
  <g id="arrowUp" transform="translate(30 24)">
    <use xlink:href="#rim"/>
    <path pointer-events="none" fill="none" stroke="white" stroke-width="1.5" d="M0,-3.0v7 M-2.5,-0.5L0,-3.0L2.5,-0.5"/>
  </g>
  <g id="arrowRight" transform="rotate(90) translate(36 -43)">
    <use xlink:href="#rim"/>
    <path pointer-events="none" fill="none" stroke="white" stroke-width="1.5" d="M0,-3.0v7 M-2.5,-0.5L0,-3.0L2.5,-0.5"/>
  </g>
  <g id="arrowDown" transform="rotate(180) translate(-30 -48)">
    <use xlink:href="#rim"/>
    <path pointer-events="none" fill="none" stroke="white" stroke-width="1.5" d="M0,-3.0v7 M-2.5,-0.5L0,-3.0L2.5,-0.5"/>
  </g>
  <g id="arrowLeft" transform="rotate(270) translate(-36 17)">
    <use xlink:href="#rim"/>
    <path pointer-events="none" fill="none" stroke="white" stroke-width="1.5" d="M0,-3.0v7 M-2.5,-0.5L0,-3.0L2.5,-0.5"/>
  </g>
  <g id="resetDef">
    <use xlink:href="#rim2" fill="#404040"><set attributeName="fill" to="#808080" begin="reset.mouseover" end="reset.mouseout"/></use>
  </g>
</defs>
<script type="application/ecmascript">
var viewWidth = 404;
var viewHeight = 1026;
var sectionId = 'dynsection-0';
</script>
<script type="application/ecmascript" xlink:href="svg.min.js"/>
<svg id="graph" class="graph">
<g id="viewport">
<title>TDetector</title>
<!-- Node1 -->
<g id="Node000001" class="node">
<title>Node1</title>
<g id="a_Node000001"><a xlink:title=" ">
<polygon fill="#999999" stroke="#666666" points="145.25,-463.25 86.5,-463.25 86.5,-444 145.25,-444 145.25,-463.25"/>
<text text-anchor="middle" x="115.88" y="-449.75" font-family="Helvetica,sans-Serif" font-size="10.00">TDetector</text>
</a>
</g>
</g>
<!-- Node3 -->
<g id="Node000003" class="node">
<title>Node3</title>
<g id="a_Node000003"><a xlink:href="class_t_bgo.html" target="_top" xlink:title=" ">
<polygon fill="white" stroke="#666666" points="247.12,-907.25 207.88,-907.25 207.88,-888 247.12,-888 247.12,-907.25"/>
<text text-anchor="middle" x="227.5" y="-893.75" font-family="Helvetica,sans-Serif" font-size="10.00">TBgo</text>
</a>
</g>
</g>
<!-- Node1&#45;&gt;Node3 -->
<g id="edge2_Node000001_Node000003" class="edge">
<title>Node1&#45;&gt;Node3</title>
<g id="a_edge2_Node000001_Node000003"><a xlink:title=" ">
<path fill="none" stroke="#63b8ff" d="M117.36,-474.89C119.53,-552.01 130.58,-815.81 181.25,-879.62 187.66,-887.7 198.24,-892.17 207.56,-894.63"/>
<polygon fill="#63b8ff" stroke="#63b8ff" points="120.86,-474.87 117.11,-464.97 113.86,-475.05 120.86,-474.87"/>
</a>
</g>
</g>
<!-- Node11 -->
<g id="Node000011" class="node">
<title>Node11</title>
<g id="a_Node000011"><a xlink:href="class_t_c_s_m.html" target="_top" xlink:title=" ">
<polygon fill="white" stroke="#666666" points="249.38,-870.25 205.62,-870.25 205.62,-851 249.38,-851 249.38,-870.25"/>
<text text-anchor="middle" x="227.5" y="-856.75" font-family="Helvetica,sans-Serif" font-size="10.00">TCSM</text>
</a>
</g>
</g>
<!-- Node1&#45;&gt;Node11 -->
<g id="edge10_Node000001_Node000011" class="edge">
<title>Node1&#45;&gt;Node11</title>
<g id="a_edge10_Node000001_Node000011"><a xlink:title=" ">
<path fill="none" stroke="#63b8ff" d="M117.7,-474.9C120.92,-547.63 134.87,-785.04 181.25,-842.62 187.19,-850 196.59,-854.37 205.29,-856.95"/>
<polygon fill="#63b8ff" stroke="#63b8ff" points="121.21,-475.01 117.29,-465.17 114.21,-475.31 121.21,-475.01"/>
</a>
</g>
</g>
<!-- Node12 -->
<g id="Node000012" class="node">
<title>Node12</title>
<g id="a_Node000012"><a xlink:href="class_t_descant.html" target="_top" xlink:title=" ">
<polygon fill="white" stroke="#666666" points="256.5,-833.25 198.5,-833.25 198.5,-814 256.5,-814 256.5,-833.25"/>
<text text-anchor="middle" x="227.5" y="-819.75" font-family="Helvetica,sans-Serif" font-size="10.00">TDescant</text>
</a>
</g>
</g>
<!-- Node1&#45;&gt;Node12 -->
<g id="edge11_Node000001_Node000012" class="edge">
<title>Node1&#45;&gt;Node12</title>
<g id="a_edge11_Node000001_Node000012"><a xlink:title=" ">
<path fill="none" stroke="#63b8ff" d="M118.12,-475.05C122.48,-543.32 139.17,-754.28 181.25,-805.62 185.64,-810.99 191.87,-814.76 198.29,-817.41"/>
<polygon fill="#63b8ff" stroke="#63b8ff" points="121.62,-474.99 117.52,-465.22 114.63,-475.42 121.62,-474.99"/>
</a>
</g>
</g>
<!-- Node13 -->
<g id="Node000013" class="node">
<title>Node13</title>
<g id="a_Node000013"><a xlink:href="class_t_eagle.html" target="_top" xlink:title=" ">
<polygon fill="white" stroke="#666666" points="250.5,-796.25 204.5,-796.25 204.5,-777 250.5,-777 250.5,-796.25"/>
<text text-anchor="middle" x="227.5" y="-782.75" font-family="Helvetica,sans-Serif" font-size="10.00">TEagle</text>
</a>
</g>
</g>
<!-- Node1&#45;&gt;Node13 -->
<g id="edge12_Node000001_Node000013" class="edge">
<title>Node1&#45;&gt;Node13</title>
<g id="a_edge12_Node000001_Node000013"><a xlink:title=" ">
<path fill="none" stroke="#63b8ff" d="M118.61,-474.83C124.15,-538 143.38,-723.37 181.25,-768.62 187,-775.5 195.75,-779.76 204.02,-782.41"/>
<polygon fill="#63b8ff" stroke="#63b8ff" points="122.11,-474.77 117.78,-465.1 115.14,-475.36 122.11,-474.77"/>
</a>
</g>
</g>
<!-- Node14 -->
<g id="Node000014" class="node">
<title>Node14</title>
<g id="a_Node000014"><a xlink:href="class_t_eagle_pulser.html" target="_top" xlink:title=" ">
<polygon fill="white" stroke="#666666" points="264.38,-759.25 190.62,-759.25 190.62,-740 264.38,-740 264.38,-759.25"/>
<text text-anchor="middle" x="227.5" y="-745.75" font-family="Helvetica,sans-Serif" font-size="10.00">TEaglePulser</text>
</a>
</g>
</g>
<!-- Node1&#45;&gt;Node14 -->
<g id="edge13_Node000001_Node000014" class="edge">
<title>Node1&#45;&gt;Node14</title>
<g id="a_edge13_Node000001_Node000014"><a xlink:title=" ">
<path fill="none" stroke="#63b8ff" d="M119.25,-474.95C126.11,-533.07 147.63,-692.5 181.25,-731.62 184.01,-734.83 187.41,-737.47 191.11,-739.64"/>
<polygon fill="#63b8ff" stroke="#63b8ff" points="122.74,-474.64 118.12,-465.1 115.78,-475.44 122.74,-474.64"/>
</a>
</g>
</g>
<!-- Node15 -->
<g id="Node000015" class="node">
<title>Node15</title>
<g id="a_Node000015"><a xlink:href="class_t_emma.html" target="_top" xlink:title=" ">
<polygon fill="white" stroke="#666666" points="252.38,-722.25 202.62,-722.25 202.62,-703 252.38,-703 252.38,-722.25"/>
<text text-anchor="middle" x="227.5" y="-708.75" font-family="Helvetica,sans-Serif" font-size="10.00">TEmma</text>
</a>
</g>
</g>
<!-- Node1&#45;&gt;Node15 -->
<g id="edge14_Node000001_Node000015" class="edge">
<title>Node1&#45;&gt;Node15</title>
<g id="a_edge14_Node000001_Node000015"><a xlink:title=" ">
<path fill="none" stroke="#63b8ff" d="M116.51,-474.68C116.87,-520.49 124.04,-630.26 181.25,-694.62 186.75,-700.82 194.68,-704.91 202.36,-707.6"/>
<polygon fill="#63b8ff" stroke="#63b8ff" points="120.01,-474.84 116.56,-464.83 113.01,-474.81 120.01,-474.84"/>
</a>
</g>
</g>
<!-- Node16 -->
<g id="Node000016" class="node">
<title>Node16</title>
<g id="a_Node000016"><a xlink:href="class_t_fipps_pulser.html" target="_top" xlink:title=" ">
<polygon fill="white" stroke="#666666" points="264.38,-685.25 190.62,-685.25 190.62,-666 264.38,-666 264.38,-685.25"/>
<text text-anchor="middle" x="227.5" y="-671.75" font-family="Helvetica,sans-Serif" font-size="10.00">TFippsPulser</text>
</a>
</g>
</g>
<!-- Node1&#45;&gt;Node16 -->
<g id="edge15_Node000001_Node000016" class="edge">
<title>Node1&#45;&gt;Node16</title>
<g id="a_edge15_Node000001_Node000016"><a xlink:title=" ">
<path fill="none" stroke="#63b8ff" d="M117.78,-475.01C120.63,-515.74 132.42,-605.1 181.25,-657.62 184.24,-660.84 187.89,-663.5 191.79,-665.69"/>
<polygon fill="#63b8ff" stroke="#63b8ff" points="121.28,-474.89 117.22,-465.11 114.29,-475.29 121.28,-474.89"/>
</a>
</g>
</g>
<!-- Node17 -->
<g id="Node000017" class="node">
<title>Node17</title>
<g id="a_Node000017"><a xlink:href="class_t_fipps_t_a_c.html" target="_top" xlink:title=" ">
<polygon fill="white" stroke="#666666" points="260.25,-648.25 194.75,-648.25 194.75,-629 260.25,-629 260.25,-648.25"/>
<text text-anchor="middle" x="227.5" y="-634.75" font-family="Helvetica,sans-Serif" font-size="10.00">TFippsTAC</text>
</a>
</g>
</g>
<!-- Node1&#45;&gt;Node17 -->
<g id="edge16_Node000001_Node000017" class="edge">
<title>Node1&#45;&gt;Node17</title>
<g id="a_edge16_Node000001_Node000017"><a xlink:title=" ">
<path fill="none" stroke="#63b8ff" d="M119.47,-474.46C124.87,-509.23 140.38,-579.31 181.25,-620.62 184.94,-624.35 189.49,-627.33 194.28,-629.7"/>
<polygon fill="#63b8ff" stroke="#63b8ff" points="122.98,-474.29 118.13,-464.87 116.05,-475.26 122.98,-474.29"/>
</a>
</g>
</g>
<!-- Node18 -->
<g id="Node000018" class="node">
<title>Node18</title>
<g id="a_Node000018"><a xlink:href="class_t_generic_detector.html" target="_top" xlink:title=" ">
<polygon fill="white" stroke="#666666" points="273.75,-611.25 181.25,-611.25 181.25,-592 273.75,-592 273.75,-611.25"/>
<text text-anchor="middle" x="227.5" y="-597.75" font-family="Helvetica,sans-Serif" font-size="10.00">TGenericDetector</text>
</a>
</g>
</g>
<!-- Node1&#45;&gt;Node18 -->
<g id="edge17_Node000001_Node000018" class="edge">
<title>Node1&#45;&gt;Node18</title>
<g id="a_edge17_Node000001_Node000018"><a xlink:title=" ">
<path fill="none" stroke="#63b8ff" d="M122.14,-474.57C130.28,-502.93 148.51,-553.44 181.25,-583.62 184.73,-586.83 188.85,-589.5 193.17,-591.71"/>
<polygon fill="#63b8ff" stroke="#63b8ff" points="125.55,-473.78 119.57,-465.04 118.8,-475.61 125.55,-473.78"/>
</a>
</g>
</g>
<!-- Node19 -->
<g id="Node000019" class="node">
<title>Node19</title>
<g id="a_Node000019"><a xlink:href="class_t_paces.html" target="_top" xlink:title=" ">
<polygon fill="white" stroke="#666666" points="252.38,-574.25 202.62,-574.25 202.62,-555 252.38,-555 252.38,-574.25"/>
<text text-anchor="middle" x="227.5" y="-560.75" font-family="Helvetica,sans-Serif" font-size="10.00">TPaces</text>
</a>
</g>
</g>
<!-- Node1&#45;&gt;Node19 -->
<g id="edge18_Node000001_Node000019" class="edge">
<title>Node1&#45;&gt;Node19</title>
<g id="a_edge18_Node000001_Node000019"><a xlink:title=" ">
<path fill="none" stroke="#63b8ff" d="M126.3,-473.7C136.99,-494.51 156.22,-526.72 181.25,-546.62 187.47,-551.57 195.22,-555.31 202.54,-558.07"/>
<polygon fill="#63b8ff" stroke="#63b8ff" points="129.49,-472.25 121.93,-464.82 123.21,-475.34 129.49,-472.25"/>
</a>
</g>
</g>
<!-- Node20 -->
<g id="Node000020" class="node">
<title>Node20</title>
<g id="a_Node000020"><a xlink:href="class_t_r_f.html" target="_top" xlink:title=" ">
<polygon fill="white" stroke="#666666" points="244.88,-537.25 210.12,-537.25 210.12,-518 244.88,-518 244.88,-537.25"/>
<text text-anchor="middle" x="227.5" y="-523.75" font-family="Helvetica,sans-Serif" font-size="10.00">TRF</text>
</a>
</g>
</g>
<!-- Node1&#45;&gt;Node20 -->
<g id="edge19_Node000001_Node000020" class="edge">
<title>Node1&#45;&gt;Node20</title>
<g id="a_edge19_Node000001_Node000020"><a xlink:title=" ">
<path fill="none" stroke="#63b8ff" d="M134.06,-471.46C146.35,-483.45 163.74,-498.96 181.25,-509.62 190.2,-515.08 201.1,-519.47 209.96,-522.55"/>
<polygon fill="#63b8ff" stroke="#63b8ff" points="136.7,-469.15 127.16,-464.55 131.75,-474.1 136.7,-469.15"/>
</a>
</g>
</g>
<!-- Node21 -->
<g id="Node000021" class="node">
<title>Node21</title>
<g id="a_Node000021"><a xlink:href="class_t_s3.html" target="_top" xlink:title=" ">
<polygon fill="white" stroke="#666666" points="244.5,-500.25 210.5,-500.25 210.5,-481 244.5,-481 244.5,-500.25"/>
<text text-anchor="middle" x="227.5" y="-486.75" font-family="Helvetica,sans-Serif" font-size="10.00">TS3</text>
</a>
</g>
</g>
<!-- Node1&#45;&gt;Node21 -->
<g id="edge20_Node000001_Node000021" class="edge">
<title>Node1&#45;&gt;Node21</title>
<g id="a_edge20_Node000001_Node000021"><a xlink:title=" ">
<path fill="none" stroke="#63b8ff" d="M156.5,-467C174.99,-473.24 195.99,-480.33 210.13,-485.1"/>
<polygon fill="#63b8ff" stroke="#63b8ff" points="157.71,-463.71 147.11,-463.83 155.47,-470.34 157.71,-463.71"/>
</a>
</g>
</g>
<!-- Node22 -->
<g id="Node000022" class="node">
<title>Node22</title>
<g id="a_Node000022"><a xlink:href="class_t_sceptar.html" target="_top" xlink:title=" ">
<polygon fill="white" stroke="#666666" points="255.38,-463.25 199.62,-463.25 199.62,-444 255.38,-444 255.38,-463.25"/>
<text text-anchor="middle" x="227.5" y="-449.75" font-family="Helvetica,sans-Serif" font-size="10.00">TSceptar</text>
</a>
</g>
</g>
<!-- Node1&#45;&gt;Node22 -->
<g id="edge21_Node000001_Node000022" class="edge">
<title>Node1&#45;&gt;Node22</title>
<g id="a_edge21_Node000001_Node000022"><a xlink:title=" ">
<path fill="none" stroke="#63b8ff" d="M157.09,-453.62C171.17,-453.62 186.64,-453.62 199.4,-453.62"/>
<polygon fill="#63b8ff" stroke="#63b8ff" points="157.19,-450.13 147.19,-453.63 157.19,-457.13 157.19,-450.13"/>
</a>
</g>
</g>
<!-- Node23 -->
<g id="Node000023" class="node">
<title>Node23</title>
<g id="a_Node000023"><a xlink:href="class_t_sharc.html" target="_top" xlink:title=" ">
<polygon fill="white" stroke="#666666" points="251.25,-426.25 203.75,-426.25 203.75,-407 251.25,-407 251.25,-426.25"/>
<text text-anchor="middle" x="227.5" y="-412.75" font-family="Helvetica,sans-Serif" font-size="10.00">TSharc</text>
</a>
</g>
</g>
<!-- Node1&#45;&gt;Node23 -->
<g id="edge22_Node000001_Node000023" class="edge">
<title>Node1&#45;&gt;Node23</title>
<g id="a_edge22_Node000001_Node000023"><a xlink:title=" ">
<path fill="none" stroke="#63b8ff" d="M156.25,-440.33C172.07,-435 189.74,-429.03 203.41,-424.42"/>
<polygon fill="#63b8ff" stroke="#63b8ff" points="155.47,-436.91 147.11,-443.42 157.71,-443.54 155.47,-436.91"/>
</a>
</g>
</g>
<!-- Node24 -->
<g id="Node000024" class="node">
<title>Node24</title>
<g id="a_Node000024"><a xlink:href="class_t_sharc2.html" target="_top" xlink:title=" ">
<polygon fill="white" stroke="#666666" points="253.88,-389.25 201.12,-389.25 201.12,-370 253.88,-370 253.88,-389.25"/>
<text text-anchor="middle" x="227.5" y="-375.75" font-family="Helvetica,sans-Serif" font-size="10.00">TSharc2</text>
</a>
</g>
</g>
<!-- Node1&#45;&gt;Node24 -->
<g id="edge23_Node000001_Node000024" class="edge">
<title>Node1&#45;&gt;Node24</title>
<g id="a_edge23_Node000001_Node000024"><a xlink:title=" ">
<path fill="none" stroke="#63b8ff" d="M134.06,-435.79C146.35,-423.8 163.74,-408.29 181.25,-397.62 187.31,-393.93 194.27,-390.72 200.88,-388.08"/>
<polygon fill="#63b8ff" stroke="#63b8ff" points="131.75,-433.15 127.16,-442.7 136.7,-438.1 131.75,-433.15"/>
</a>
</g>
</g>
<!-- Node25 -->
<g id="Node000025" class="node">
<title>Node25</title>
<g id="a_Node000025"><a xlink:href="class_t_si_li.html" target="_top" xlink:title=" ">
<polygon fill="white" stroke="#666666" points="247.12,-352.25 207.88,-352.25 207.88,-333 247.12,-333 247.12,-352.25"/>
<text text-anchor="middle" x="227.5" y="-338.75" font-family="Helvetica,sans-Serif" font-size="10.00">TSiLi</text>
</a>
</g>
</g>
<!-- Node1&#45;&gt;Node25 -->
<g id="edge24_Node000001_Node000025" class="edge">
<title>Node1&#45;&gt;Node25</title>
<g id="a_edge24_Node000001_Node000025"><a xlink:title=" ">
<path fill="none" stroke="#63b8ff" d="M126.3,-433.55C136.99,-412.74 156.22,-380.53 181.25,-360.62 188.93,-354.52 198.94,-350.25 207.59,-347.41"/>
<polygon fill="#63b8ff" stroke="#63b8ff" points="123.21,-431.91 121.93,-442.43 129.49,-435 123.21,-431.91"/>
</a>
</g>
</g>
<!-- Node26 -->
<g id="Node000026" class="node">
<title>Node26</title>
<g id="a_Node000026"><a xlink:href="class_t_suppressed.html" target="_top" xlink:title=" ">
<polygon fill="white" stroke="#666666" points="264.38,-315.25 190.62,-315.25 190.62,-296 264.38,-296 264.38,-315.25"/>
<text text-anchor="middle" x="227.5" y="-301.75" font-family="Helvetica,sans-Serif" font-size="10.00">TSuppressed</text>
</a>
</g>
</g>
<!-- Node1&#45;&gt;Node26 -->
<g id="edge25_Node000001_Node000026" class="edge">
<title>Node1&#45;&gt;Node26</title>
<g id="a_edge25_Node000001_Node000026"><a xlink:title=" ">
<path fill="none" stroke="#63b8ff" d="M122.14,-432.68C130.28,-404.32 148.51,-353.81 181.25,-323.62 184.73,-320.42 188.85,-317.75 193.17,-315.54"/>
<polygon fill="#63b8ff" stroke="#63b8ff" points="118.8,-431.64 119.57,-442.21 125.55,-433.47 118.8,-431.64"/>
</a>
</g>
</g>
<!-- Node34 -->
<g id="Node000034" class="node">
<title>Node34</title>
<g id="a_Node000034"><a xlink:href="class_t_t_a_c.html" target="_top" xlink:title=" ">
<polygon fill="white" stroke="#666666" points="248.25,-278.25 206.75,-278.25 206.75,-259 248.25,-259 248.25,-278.25"/>
<text text-anchor="middle" x="227.5" y="-264.75" font-family="Helvetica,sans-Serif" font-size="10.00">TTAC</text>
</a>
</g>
</g>
<!-- Node1&#45;&gt;Node34 -->
<g id="edge33_Node000001_Node000034" class="edge">
<title>Node1&#45;&gt;Node34</title>
<g id="a_edge33_Node000001_Node000034"><a xlink:title=" ">
<path fill="none" stroke="#63b8ff" d="M119.47,-432.79C124.87,-398.02 140.38,-327.94 181.25,-286.62 188.03,-279.77 197.74,-275.45 206.43,-272.77"/>
<polygon fill="#63b8ff" stroke="#63b8ff" points="116.05,-431.99 118.13,-442.38 122.98,-432.96 116.05,-431.99"/>
</a>
</g>
</g>
<!-- Node35 -->
<g id="Node000035" class="node">
<title>Node35</title>
<g id="a_Node000035"><a xlink:href="class_t_tdr_plastic.html" target="_top" xlink:title=" ">
<polygon fill="white" stroke="#666666" points="260.62,-241.25 194.38,-241.25 194.38,-222 260.62,-222 260.62,-241.25"/>
<text text-anchor="middle" x="227.5" y="-227.75" font-family="Helvetica,sans-Serif" font-size="10.00">TTdrPlastic</text>
</a>
</g>
</g>
<!-- Node1&#45;&gt;Node35 -->
<g id="edge34_Node000001_Node000035" class="edge">
<title>Node1&#45;&gt;Node35</title>
<g id="a_edge34_Node000001_Node000035"><a xlink:title=" ">
<path fill="none" stroke="#63b8ff" d="M117.78,-432.24C120.63,-391.51 132.42,-302.15 181.25,-249.62 184.82,-245.79 189.31,-242.75 194.08,-240.35"/>
<polygon fill="#63b8ff" stroke="#63b8ff" points="114.29,-431.96 117.22,-442.14 121.28,-432.36 114.29,-431.96"/>
</a>
</g>
</g>
<!-- Node36 -->
<g id="Node000036" class="node">
<title>Node36</title>
<g id="a_Node000036"><a xlink:href="class_t_tdr_si_li.html" target="_top" xlink:title=" ">
<polygon fill="white" stroke="#666666" points="254.25,-204.25 200.75,-204.25 200.75,-185 254.25,-185 254.25,-204.25"/>
<text text-anchor="middle" x="227.5" y="-190.75" font-family="Helvetica,sans-Serif" font-size="10.00">TTdrSiLi</text>
</a>
</g>
</g>
<!-- Node1&#45;&gt;Node36 -->
<g id="edge35_Node000001_Node000036" class="edge">
<title>Node1&#45;&gt;Node36</title>
<g id="a_edge35_Node000001_Node000036"><a xlink:title=" ">
<path fill="none" stroke="#63b8ff" d="M116.51,-432.57C116.87,-386.76 124.04,-276.99 181.25,-212.62 186.31,-206.94 193.4,-203.02 200.47,-200.34"/>
<polygon fill="#63b8ff" stroke="#63b8ff" points="113.01,-432.44 116.56,-442.42 120.01,-432.41 113.01,-432.44"/>
</a>
</g>
</g>
<!-- Node37 -->
<g id="Node000037" class="node">
<title>Node37</title>
<g id="a_Node000037"><a xlink:href="class_t_tigress.html" target="_top" xlink:title=" ">
<polygon fill="white" stroke="#666666" points="254.62,-167.25 200.38,-167.25 200.38,-148 254.62,-148 254.62,-167.25"/>
<text text-anchor="middle" x="227.5" y="-153.75" font-family="Helvetica,sans-Serif" font-size="10.00">TTigress</text>
</a>
</g>
</g>
<!-- Node1&#45;&gt;Node37 -->
<g id="edge36_Node000001_Node000037" class="edge">
<title>Node1&#45;&gt;Node37</title>
<g id="a_edge36_Node000001_Node000037"><a xlink:title=" ">
<path fill="none" stroke="#63b8ff" d="M119.25,-432.3C126.11,-374.18 147.63,-214.75 181.25,-175.62 186.1,-169.98 192.96,-166.09 199.88,-163.42"/>
<polygon fill="#63b8ff" stroke="#63b8ff" points="115.78,-431.81 118.12,-442.15 122.74,-432.61 115.78,-431.81"/>
</a>
</g>
</g>
<!-- Node38 -->
<g id="Node000038" class="node">
<title>Node38</title>
<g id="a_Node000038"><a xlink:href="class_t_tip.html" target="_top" xlink:title=" ">
<polygon fill="white" stroke="#666666" points="245.25,-130.25 209.75,-130.25 209.75,-111 245.25,-111 245.25,-130.25"/>
<text text-anchor="middle" x="227.5" y="-116.75" font-family="Helvetica,sans-Serif" font-size="10.00">TTip</text>
</a>
</g>
</g>
<!-- Node1&#45;&gt;Node38 -->
<g id="edge37_Node000001_Node000038" class="edge">
<title>Node1&#45;&gt;Node38</title>
<g id="a_edge37_Node000001_Node000038"><a xlink:title=" ">
<path fill="none" stroke="#63b8ff" d="M118.61,-432.42C124.15,-369.25 143.38,-183.88 181.25,-138.62 188.3,-130.2 199.86,-125.69 209.53,-123.29"/>
<polygon fill="#63b8ff" stroke="#63b8ff" points="115.14,-431.89 117.78,-442.15 122.11,-432.48 115.14,-431.89"/>
</a>
</g>
</g>
<!-- Node39 -->
<g id="Node000039" class="node">
<title>Node39</title>
<g id="a_Node000039"><a xlink:href="class_t_tri_foil.html" target="_top" xlink:title=" ">
<polygon fill="white" stroke="#666666" points="252,-93.25 203,-93.25 203,-74 252,-74 252,-93.25"/>
<text text-anchor="middle" x="227.5" y="-79.75" font-family="Helvetica,sans-Serif" font-size="10.00">TTriFoil</text>
</a>
</g>
</g>
<!-- Node1&#45;&gt;Node39 -->
<g id="edge38_Node000001_Node000039" class="edge">
<title>Node1&#45;&gt;Node39</title>
<g id="a_edge38_Node000001_Node000039"><a xlink:title=" ">
<path fill="none" stroke="#63b8ff" d="M118.12,-432.2C122.48,-363.93 139.17,-152.97 181.25,-101.62 186.61,-95.09 194.69,-90.91 202.54,-88.25"/>
<polygon fill="#63b8ff" stroke="#63b8ff" points="114.63,-431.83 117.52,-442.03 121.62,-432.26 114.63,-431.83"/>
</a>
</g>
</g>
<!-- Node40 -->
<g id="Node000040" class="node">
<title>Node40</title>
<g id="a_Node000040"><a xlink:href="class_t_trific.html" target="_top" xlink:title=" ">
<polygon fill="white" stroke="#666666" points="249,-56.25 206,-56.25 206,-37 249,-37 249,-56.25"/>
<text text-anchor="middle" x="227.5" y="-42.75" font-family="Helvetica,sans-Serif" font-size="10.00">TTrific</text>
</a>
</g>
</g>
<!-- Node1&#45;&gt;Node40 -->
<g id="edge39_Node000001_Node000040" class="edge">
<title>Node1&#45;&gt;Node40</title>
<g id="a_edge39_Node000001_Node000040"><a xlink:title=" ">
<path fill="none" stroke="#63b8ff" d="M117.7,-432.35C120.92,-359.62 134.87,-122.21 181.25,-64.62 187.3,-57.12 196.93,-52.73 205.76,-50.17"/>
<polygon fill="#63b8ff" stroke="#63b8ff" points="114.21,-431.94 117.29,-442.08 121.21,-432.24 114.21,-431.94"/>
</a>
</g>
</g>
<!-- Node41 -->
<g id="Node000041" class="node">
<title>Node41</title>
<g id="a_Node000041"><a xlink:href="class_t_zero_degree.html" target="_top" xlink:title=" ">
<polygon fill="white" stroke="#666666" points="263.62,-19.25 191.38,-19.25 191.38,0 263.62,0 263.62,-19.25"/>
<text text-anchor="middle" x="227.5" y="-5.75" font-family="Helvetica,sans-Serif" font-size="10.00">TZeroDegree</text>
</a>
</g>
</g>
<!-- Node1&#45;&gt;Node41 -->
<g id="edge40_Node000001_Node000041" class="edge">
<title>Node1&#45;&gt;Node41</title>
<g id="a_edge40_Node000001_Node000041"><a xlink:title=" ">
<path fill="none" stroke="#63b8ff" d="M117.36,-432.36C119.53,-355.24 130.58,-91.44 181.25,-27.62 183.98,-24.18 187.47,-21.39 191.3,-19.14"/>
<polygon fill="#63b8ff" stroke="#63b8ff" points="113.86,-432.2 117.11,-442.28 120.86,-432.38 113.86,-432.2"/>
</a>
</g>
</g>
<!-- Node2 -->
<g id="Node000002" class="node">
<title>Node2</title>
<g id="a_Node000002"><a xlink:title=" ">
<polygon fill="white" stroke="#666666" points="50.5,-463.25 0,-463.25 0,-444 50.5,-444 50.5,-463.25"/>
<text text-anchor="middle" x="25.25" y="-449.75" font-family="Helvetica,sans-Serif" font-size="10.00">TObject</text>
</a>
</g>
</g>
<!-- Node2&#45;&gt;Node1 -->
<g id="edge1_Node000001_Node000002" class="edge">
<title>Node2&#45;&gt;Node1</title>
<g id="a_edge1_Node000001_Node000002"><a xlink:title=" ">
<path fill="none" stroke="#63b8ff" d="M62.25,-453.62C70.24,-453.62 78.6,-453.62 86.25,-453.62"/>
<polygon fill="#63b8ff" stroke="#63b8ff" points="62.45,-450.13 52.45,-453.63 62.45,-457.13 62.45,-450.13"/>
</a>
</g>
</g>
<!-- Node4 -->
<g id="Node000004" class="node">
<title>Node4</title>
<g id="a_Node000004"><a xlink:href="class_t_fipps_bgo.html" target="_top" xlink:title=" ">
<polygon fill="white" stroke="#666666" points="384.25,-1018.25 321,-1018.25 321,-999 384.25,-999 384.25,-1018.25"/>
<text text-anchor="middle" x="352.62" y="-1004.75" font-family="Helvetica,sans-Serif" font-size="10.00">TFippsBgo</text>
</a>
</g>
</g>
<!-- Node3&#45;&gt;Node4 -->
<g id="edge3_Node000003_Node000004" class="edge">
<title>Node3&#45;&gt;Node4</title>
<g id="a_edge3_Node000003_Node000004"><a xlink:title=" ">
<path fill="none" stroke="#63b8ff" d="M241.36,-916.91C255.9,-937.48 281.28,-969.9 309.75,-990.62 313.97,-993.7 318.8,-996.38 323.64,-998.68"/>
<polygon fill="#63b8ff" stroke="#63b8ff" points="244.37,-915.11 235.81,-908.86 238.6,-919.08 244.37,-915.11"/>
</a>
</g>
</g>
<!-- Node5 -->
<g id="Node000005" class="node">
<title>Node5</title>
<g id="a_Node000005"><a xlink:href="class_t_fipps_la_br_bgo.html" target="_top" xlink:title=" ">
<polygon fill="white" stroke="#666666" points="394.75,-981.25 310.5,-981.25 310.5,-962 394.75,-962 394.75,-981.25"/>
<text text-anchor="middle" x="352.62" y="-967.75" font-family="Helvetica,sans-Serif" font-size="10.00">TFippsLaBrBgo</text>
</a>
</g>
</g>
<!-- Node3&#45;&gt;Node5 -->
<g id="edge4_Node000003_Node000005" class="edge">
<title>Node3&#45;&gt;Node5</title>
<g id="a_edge4_Node000003_Node000005"><a xlink:title=" ">
<path fill="none" stroke="#63b8ff" d="M250.23,-914.36C266.18,-926.19 288.64,-941.96 309.75,-953.62 314.88,-956.46 320.54,-959.16 326,-961.56"/>
<polygon fill="#63b8ff" stroke="#63b8ff" points="252.52,-911.7 242.43,-908.48 248.31,-917.29 252.52,-911.7"/>
</a>
</g>
</g>
<!-- Node6 -->
<g id="Node000006" class="node">
<title>Node6</title>
<g id="a_Node000006"><a xlink:href="class_t_griffin_bgo.html" target="_top" xlink:title=" ">
<polygon fill="white" stroke="#666666" points="384.62,-944.25 320.62,-944.25 320.62,-925 384.62,-925 384.62,-944.25"/>
<text text-anchor="middle" x="352.62" y="-930.75" font-family="Helvetica,sans-Serif" font-size="10.00">TGriffinBgo</text>
</a>
</g>
</g>
<!-- Node3&#45;&gt;Node6 -->
<g id="edge5_Node000003_Node000006" class="edge">
<title>Node3&#45;&gt;Node6</title>
<g id="a_edge5_Node000003_Node000006"><a xlink:title=" ">
<path fill="none" stroke="#63b8ff" d="M258.37,-906.6C277.17,-912.25 301.38,-919.52 320.42,-925.25"/>
<polygon fill="#63b8ff" stroke="#63b8ff" points="259.5,-903.29 248.92,-903.76 257.49,-909.99 259.5,-903.29"/>
</a>
</g>
</g>
<!-- Node7 -->
<g id="Node000007" class="node">
<title>Node7</title>
<g id="a_Node000007"><a xlink:href="class_t_ifin_bgo.html" target="_top" xlink:title=" ">
<polygon fill="white" stroke="#666666" points="378.62,-907.25 326.62,-907.25 326.62,-888 378.62,-888 378.62,-907.25"/>
<text text-anchor="middle" x="352.62" y="-893.75" font-family="Helvetica,sans-Serif" font-size="10.00">TIfinBgo</text>
</a>
</g>
</g>
<!-- Node3&#45;&gt;Node7 -->
<g id="edge6_Node000003_Node000007" class="edge">
<title>Node3&#45;&gt;Node7</title>
<g id="a_edge6_Node000003_Node000007"><a xlink:title=" ">
<path fill="none" stroke="#63b8ff" d="M258.85,-897.62C279.63,-897.62 306.87,-897.62 326.45,-897.62"/>
<polygon fill="#63b8ff" stroke="#63b8ff" points="258.98,-894.13 248.98,-897.63 258.98,-901.13 258.98,-894.13"/>
</a>
</g>
</g>
<!-- Node8 -->
<g id="Node000008" class="node">
<title>Node8</title>
<g id="a_Node000008"><a xlink:href="class_t_la_br_bgo.html" target="_top" xlink:title=" ">
<polygon fill="white" stroke="#666666" points="382.75,-870.25 322.5,-870.25 322.5,-851 382.75,-851 382.75,-870.25"/>
<text text-anchor="middle" x="352.62" y="-856.75" font-family="Helvetica,sans-Serif" font-size="10.00">TLaBrBgo</text>
</a>
</g>
</g>
<!-- Node3&#45;&gt;Node8 -->
<g id="edge7_Node000003_Node000008" class="edge">
<title>Node3&#45;&gt;Node8</title>
<g id="a_edge7_Node000003_Node000008"><a xlink:title=" ">
<path fill="none" stroke="#63b8ff" d="M258.43,-888.63C277.84,-882.8 303.02,-875.23 322.31,-869.43"/>
<polygon fill="#63b8ff" stroke="#63b8ff" points="257.49,-885.26 248.92,-891.49 259.5,-891.96 257.49,-885.26"/>
</a>
</g>
</g>
<!-- Node9 -->
<g id="Node000009" class="node">
<title>Node9</title>
<g id="a_Node000009"><a xlink:href="class_t_tdr_clover_bgo.html" target="_top" xlink:title=" ">
<polygon fill="white" stroke="#666666" points="393.25,-833.25 312,-833.25 312,-814 393.25,-814 393.25,-833.25"/>
<text text-anchor="middle" x="352.62" y="-819.75" font-family="Helvetica,sans-Serif" font-size="10.00">TTdrCloverBgo</text>
</a>
</g>
</g>
<!-- Node3&#45;&gt;Node9 -->
<g id="edge8_Node000003_Node000009" class="edge">
<title>Node3&#45;&gt;Node9</title>
<g id="a_edge8_Node000003_Node000009"><a xlink:title=" ">
<path fill="none" stroke="#63b8ff" d="M257.82,-888.13C263.33,-885.75 268.89,-882.92 273.75,-879.62 293.01,-866.58 290.67,-854.94 309.75,-841.62 314.03,-838.64 318.89,-835.99 323.74,-833.71"/>
<polygon fill="#63b8ff" stroke="#63b8ff" points="256.93,-884.72 248.87,-891.6 259.46,-891.25 256.93,-884.72"/>
</a>
</g>
</g>
<!-- Node10 -->
<g id="Node000010" class="node">
<title>Node10</title>
<g id="a_Node000010"><a xlink:href="class_t_tdr_tigress_bgo.html" target="_top" xlink:title=" ">
<polygon fill="white" stroke="#666666" points="395.5,-796.25 309.75,-796.25 309.75,-777 395.5,-777 395.5,-796.25"/>
<text text-anchor="middle" x="352.62" y="-782.75" font-family="Helvetica,sans-Serif" font-size="10.00">TTdrTigressBgo</text>
</a>
</g>
</g>
<!-- Node3&#45;&gt;Node10 -->
<g id="edge9_Node000003_Node000010" class="edge">
<title>Node3&#45;&gt;Node10</title>
<g id="a_edge9_Node000003_Node000010"><a xlink:title=" ">
<path fill="none" stroke="#63b8ff" d="M258.15,-889.52C263.79,-887.01 269.31,-883.77 273.75,-879.62 300.78,-854.4 283.07,-830.22 309.75,-804.62 313.06,-801.45 317.02,-798.79 321.17,-796.57"/>
<polygon fill="#63b8ff" stroke="#63b8ff" points="256.99,-886.22 248.83,-892.98 259.42,-892.78 256.99,-886.22"/>
</a>
</g>
</g>
<!-- Node27 -->
<g id="Node000027" class="node">
<title>Node27</title>
<g id="a_Node000027"><a xlink:href="class_t_fipps.html" target="_top" xlink:title=" ">
<polygon fill="white" stroke="#666666" points="375.62,-426.25 329.62,-426.25 329.62,-407 375.62,-407 375.62,-426.25"/>
<text text-anchor="middle" x="352.62" y="-412.75" font-family="Helvetica,sans-Serif" font-size="10.00">TFipps</text>
</a>
</g>
</g>
<!-- Node26&#45;&gt;Node27 -->
<g id="edge26_Node000026_Node000027" class="edge">
<title>Node26&#45;&gt;Node27</title>
<g id="a_edge26_Node000026_Node000027"><a xlink:title=" ">
<path fill="none" stroke="#63b8ff" d="M271.81,-321.93C272.48,-322.47 273.12,-323.04 273.75,-323.62 300.78,-348.85 283.07,-373.03 309.75,-398.62 315.23,-403.88 322.49,-407.73 329.42,-410.48"/>
<polygon fill="#63b8ff" stroke="#63b8ff" points="273.88,-319.1 263.59,-316.57 270.06,-324.96 273.88,-319.1"/>
</a>
</g>
</g>
<!-- Node28 -->
<g id="Node000028" class="node">
<title>Node28</title>
<g id="a_Node000028"><a xlink:href="class_t_fipps_la_br.html" target="_top" xlink:title=" ">
<polygon fill="white" stroke="#666666" points="386.12,-389.25 319.12,-389.25 319.12,-370 386.12,-370 386.12,-389.25"/>
<text text-anchor="middle" x="352.62" y="-375.75" font-family="Helvetica,sans-Serif" font-size="10.00">TFippsLaBr</text>
</a>
</g>
</g>
<!-- Node26&#45;&gt;Node28 -->
<g id="edge27_Node000026_Node000028" class="edge">
<title>Node26&#45;&gt;Node28</title>
<g id="a_edge27_Node000026_Node000028"><a xlink:title=" ">
<path fill="none" stroke="#63b8ff" d="M268.95,-320.63C270.6,-321.58 272.21,-322.58 273.75,-323.62 293.01,-336.67 290.67,-348.31 309.75,-361.62 314.03,-364.61 318.89,-367.26 323.74,-369.54"/>
<polygon fill="#63b8ff" stroke="#63b8ff" points="270.98,-317.74 260.47,-316.37 267.83,-323.99 270.98,-317.74"/>
</a>
</g>
</g>
<!-- Node29 -->
<g id="Node000029" class="node">
<title>Node29</title>
<g id="a_Node000029"><a xlink:href="class_t_griffin.html" target="_top" xlink:title=" ">
<polygon fill="white" stroke="#666666" points="376,-352.25 329.25,-352.25 329.25,-333 376,-333 376,-352.25"/>
<text text-anchor="middle" x="352.62" y="-338.75" font-family="Helvetica,sans-Serif" font-size="10.00">TGriffin</text>
</a>
</g>
</g>
<!-- Node26&#45;&gt;Node29 -->
<g id="edge28_Node000026_Node000029" class="edge">
<title>Node26&#45;&gt;Node29</title>
<g id="a_edge28_Node000026_Node000029"><a xlink:title=" ">
<path fill="none" stroke="#63b8ff" d="M272.98,-318.99C291.95,-324.69 313.27,-331.1 328.92,-335.8"/>
<polygon fill="#63b8ff" stroke="#63b8ff" points="274.18,-315.7 263.59,-316.17 272.16,-322.4 274.18,-315.7"/>
</a>
</g>
</g>
<!-- Node30 -->
<g id="Node000030" class="node">
<title>Node30</title>
<g id="a_Node000030"><a xlink:href="class_t_ifin.html" target="_top" xlink:title=" ">
<polygon fill="white" stroke="#666666" points="370,-315.25 335.25,-315.25 335.25,-296 370,-296 370,-315.25"/>
<text text-anchor="middle" x="352.62" y="-301.75" font-family="Helvetica,sans-Serif" font-size="10.00">TIfin</text>
</a>
</g>
</g>
<!-- Node26&#45;&gt;Node30 -->
<g id="edge29_Node000026_Node000030" class="edge">
<title>Node26&#45;&gt;Node30</title>
<g id="a_edge29_Node000026_Node000030"><a xlink:title=" ">
<path fill="none" stroke="#63b8ff" d="M276.04,-305.62C296.86,-305.62 319.94,-305.62 335.05,-305.62"/>
<polygon fill="#63b8ff" stroke="#63b8ff" points="276.29,-302.13 266.29,-305.63 276.29,-309.13 276.29,-302.13"/>
</a>
</g>
</g>
<!-- Node31 -->
<g id="Node000031" class="node">
<title>Node31</title>
<g id="a_Node000031"><a xlink:href="class_t_la_br.html" target="_top" xlink:title=" ">
<polygon fill="white" stroke="#666666" points="374.12,-278.25 331.12,-278.25 331.12,-259 374.12,-259 374.12,-278.25"/>
<text text-anchor="middle" x="352.62" y="-264.75" font-family="Helvetica,sans-Serif" font-size="10.00">TLaBr</text>
</a>
</g>
</g>
<!-- Node26&#45;&gt;Node31 -->
<g id="edge30_Node000026_Node000031" class="edge">
<title>Node26&#45;&gt;Node31</title>
<g id="a_edge30_Node000026_Node000031"><a xlink:title=" ">
<path fill="none" stroke="#63b8ff" d="M273.08,-292.23C292.78,-286.31 315.01,-279.63 330.77,-274.89"/>
<polygon fill="#63b8ff" stroke="#63b8ff" points="272.16,-288.85 263.59,-295.08 274.18,-295.55 272.16,-288.85"/>
</a>
</g>
</g>
<!-- Node32 -->
<g id="Node000032" class="node">
<title>Node32</title>
<g id="a_Node000032"><a xlink:href="class_t_tdr_clover.html" target="_top" xlink:title=" ">
<polygon fill="white" stroke="#666666" points="384.62,-241.25 320.62,-241.25 320.62,-222 384.62,-222 384.62,-241.25"/>
<text text-anchor="middle" x="352.62" y="-227.75" font-family="Helvetica,sans-Serif" font-size="10.00">TTdrClover</text>
</a>
</g>
</g>
<!-- Node26&#45;&gt;Node32 -->
<g id="edge31_Node000026_Node000032" class="edge">
<title>Node26&#45;&gt;Node32</title>
<g id="a_edge31_Node000026_Node000032"><a xlink:title=" ">
<path fill="none" stroke="#63b8ff" d="M268.95,-290.62C270.6,-289.67 272.21,-288.67 273.75,-287.62 293.01,-274.58 290.67,-262.94 309.75,-249.62 314.03,-246.64 318.89,-243.99 323.74,-241.71"/>
<polygon fill="#63b8ff" stroke="#63b8ff" points="267.83,-287.26 260.47,-294.88 270.98,-293.51 267.83,-287.26"/>
</a>
</g>
</g>
<!-- Node33 -->
<g id="Node000033" class="node">
<title>Node33</title>
<g id="a_Node000033"><a xlink:href="class_t_tdr_tigress.html" target="_top" xlink:title=" ">
<polygon fill="white" stroke="#666666" points="386.88,-204.25 318.38,-204.25 318.38,-185 386.88,-185 386.88,-204.25"/>
<text text-anchor="middle" x="352.62" y="-190.75" font-family="Helvetica,sans-Serif" font-size="10.00">TTdrTigress</text>
</a>
</g>
</g>
<!-- Node26&#45;&gt;Node33 -->
<g id="edge32_Node000026_Node000033" class="edge">
<title>Node26&#45;&gt;Node33</title>
<g id="a_edge32_Node000026_Node000033"><a xlink:title=" ">
<path fill="none" stroke="#63b8ff" d="M271.81,-289.32C272.48,-288.78 273.12,-288.21 273.75,-287.62 300.78,-262.4 283.07,-238.22 309.75,-212.62 313.06,-209.45 317.02,-206.79 321.17,-204.57"/>
<polygon fill="#63b8ff" stroke="#63b8ff" points="270.06,-286.29 263.59,-294.68 273.88,-292.15 270.06,-286.29"/>
</a>
</g>
</g>
</g>
</svg>

<g id="navigator" transform="translate(0 0)" fill="#404254">
  <rect fill="#f2f5e9" fill-opacity="0.5" stroke="#606060" stroke-width=".5" x="0" y="0" width="60" height="60"/>
  <use id="zoomplus" xlink:href="#zoomPlus" x="17" y="9" onmousedown="handleZoom(evt,'in')"/>
  <use id="zoomminus" xlink:href="#zoomMin" x="42" y="9" onmousedown="handleZoom(evt,'out')"/>
  <use id="reset" xlink:href="#resetDef" x="30" y="36" onmousedown="handleReset()"/>
   <use id="arrowup" xlink:href="#arrowUp" x="0" y="0" onmousedown="handlePan(0,-1)"/>
  <use id="arrowright" xlink:href="#arrowRight" x="0" y="0" onmousedown="handlePan(1,0)"/>
  <use id="arrowdown" xlink:href="#arrowDown" x="0" y="0" onmousedown="handlePan(0,1)"/>
  <use id="arrowleft" xlink:href="#arrowLeft" x="0" y="0" onmousedown="handlePan(-1,0)"/>
</g>
<svg viewBox="0 0 15 15" width="100%" height="30px" preserveAspectRatio="xMaxYMin meet">
 <g id="arrow_out" transform="scale(0.3 0.3)">
  <a xlink:href="class_t_detector__inherit__graph_org.svg" target="_base">
   <rect id="button" ry="5" rx="5" y="6" x="6" height="38" width="38"
        fill="#f2f5e9" fill-opacity="0.5" stroke="#606060" stroke-width="1.0"/>
   <path id="arrow"
     d="M 11.500037,31.436501 C 11.940474,20.09759 22.043105,11.32322 32.158766,21.979434 L 37.068811,17.246167 C 37.068811,17.246167 37.088388,32 37.088388,32 L 22.160133,31.978069 C 22.160133,31.978069 26.997745,27.140456 26.997745,27.140456 C 18.528582,18.264221 13.291696,25.230495 11.500037,31.436501 z"
     style="fill:#404040;"/>
  </a>
 </g>
</svg>

<style type='text/css'>
<![CDATA[
[data-mouse-over-selected='false'] { opacity: 0.7; }
[data-mouse-over-selected='true']  { opacity: 1.0; }
]]>
</style>
<script type="application/ecmascript"><![CDATA[
document.addEventListener('DOMContentLoaded', (event) => {
  highlightEdges();
  highlightAdjacentNodes();
});
]]></script>
</svg>
