<?xml version="1.0" encoding="UTF-8" standalone="no"?>
<!DOCTYPE svg PUBLIC "-//W3C//DTD SVG 1.1//EN"
 "http://www.w3.org/Graphics/SVG/1.1/DTD/svg11.dtd">
<!-- Generated by graphviz version 9.0.0 (20230911.1827)
 -->
<!-- Title: TGRSIAnalysis Pages: 1 -->
<svg width="1543pt" height="127pt"
 viewBox="0.00 0.00 1543.00 127.49" xmlns="http://www.w3.org/2000/svg" xmlns:xlink="http://www.w3.org/1999/xlink">
<g id="graph0" class="graph" transform="scale(1 1) rotate(0) translate(4 123.49)">
<title>TGRSIAnalysis</title>
<g id="clust1" class="cluster">
<title>clusterdir_04ded5cb9506aadc0b6d1c08d3b0ca72</title>
<g id="a_clust1"><a xlink:href="dir_04ded5cb9506aadc0b6d1c08d3b0ca72.html" target="_top" xlink:title="libraries">
<polygon fill="#edf0f7" stroke="#7f7f7f" stroke-dasharray="5,2" points="8,-40.99 8,-111.49 1527,-111.49 1527,-40.99 8,-40.99"/>
<text text-anchor="middle" x="767.5" y="-97.99" font-family="Helvetica,sans-Serif" font-size="10.00">libraries</text>
</a>
</g>
</g>
<g id="clust2" class="cluster">
<title>clusterdir_f1ca9974b6d60d8551858194bc4a7b28</title>
<g id="a_clust2"><a xlink:href="dir_f1ca9974b6d60d8551858194bc4a7b28.html" target="_top">
<polygon fill="#edf0f7" stroke="#404040" stroke-width="2" points="16,-48.99 16,-84.24 1519,-84.24 1519,-48.99 16,-48.99"/>
</a>
</g>
</g>
<!-- dir_f1ca9974b6d60d8551858194bc4a7b28 -->
<g id="node1" class="node">
<title>dir_f1ca9974b6d60d8551858194bc4a7b28</title>
<text text-anchor="middle" x="1470" y="-62.74" font-family="Helvetica,sans-Serif" font-size="10.00">TGRSIAnalysis</text>
</g>
<!-- dir_7c637f2c38aea748f009e26d5869f12c -->
<g id="node2" class="node">
<title>dir_7c637f2c38aea748f009e26d5869f12c</title>
<g id="a_node2"><a xlink:href="dir_7c637f2c38aea748f009e26d5869f12c.html" target="_top" xlink:title="TAngularCorrelation">
<polygon fill="#a2b4d6" stroke="#404040" points="239.75,-76.24 138.25,-76.24 138.25,-56.99 239.75,-56.99 239.75,-76.24"/>
<text text-anchor="middle" x="189" y="-62.74" font-family="Helvetica,sans-Serif" font-size="10.00">TAngularCorrelation</text>
</a>
</g>
</g>
<!-- dir_c355ed69a9ff804c1251ec805b2844ab -->
<g id="node22" class="node">
<title>dir_c355ed69a9ff804c1251ec805b2844ab</title>
<g id="a_node22"><a xlink:href="dir_c355ed69a9ff804c1251ec805b2844ab.html" target="_top" xlink:title="include">
<polygon fill="#edf0f7" stroke="#7f7f7f" points="803.38,-20.99 756.62,-20.99 756.62,-1.74 803.38,-1.74 803.38,-20.99"/>
<text text-anchor="middle" x="780" y="-7.49" font-family="Helvetica,sans-Serif" font-size="10.00">include</text>
</a>
</g>
</g>
<!-- dir_7c637f2c38aea748f009e26d5869f12c&#45;&gt;dir_c355ed69a9ff804c1251ec805b2844ab -->
<g id="edge1" class="edge">
<title>dir_7c637f2c38aea748f009e26d5869f12c&#45;&gt;dir_c355ed69a9ff804c1251ec805b2844ab</title>
<g id="a_edge1"><a xlink:href="dir_000029_000010.html" target="_top">
<path fill="none" stroke="#63b8ff" d="M206.6,-56.55C218.3,-51 234.17,-44.33 249,-40.99 343.97,-19.59 642.85,-14.02 745.21,-12.73"/>
<polygon fill="#63b8ff" stroke="#63b8ff" points="744.95,-16.23 754.9,-12.61 744.86,-9.23 744.95,-16.23"/>
</a>
</g>
<g id="a_edge1&#45;headlabel"><a xlink:href="dir_000029_000010.html" target="_top" xlink:title="2">
<text text-anchor="middle" x="742.9" y="-15.22" font-family="Helvetica,sans-Serif" font-size="10.00" fill="#63b8ff">2</text>
</a>
</g>
</g>
<!-- dir_12553313af44d73e96f5a41551948ad9 -->
<g id="node3" class="node">
<title>dir_12553313af44d73e96f5a41551948ad9</title>
<g id="a_node3"><a xlink:href="dir_12553313af44d73e96f5a41551948ad9.html" target="_top" xlink:title="TCSM">
<polygon fill="#a2b4d6" stroke="#404040" points="119.88,-76.24 76.12,-76.24 76.12,-56.99 119.88,-56.99 119.88,-76.24"/>
<text text-anchor="middle" x="98" y="-62.74" font-family="Helvetica,sans-Serif" font-size="10.00">TCSM</text>
</a>
</g>
</g>
<!-- dir_12553313af44d73e96f5a41551948ad9&#45;&gt;dir_c355ed69a9ff804c1251ec805b2844ab -->
<g id="edge2" class="edge">
<title>dir_12553313af44d73e96f5a41551948ad9&#45;&gt;dir_c355ed69a9ff804c1251ec805b2844ab</title>
<g id="a_edge2"><a xlink:href="dir_000033_000010.html" target="_top">
<path fill="none" stroke="#63b8ff" d="M106.28,-56.61C112.04,-51.01 120.24,-44.26 129,-40.99 186.75,-19.41 618.1,-13.83 744.99,-12.65"/>
<polygon fill="#63b8ff" stroke="#63b8ff" points="744.81,-16.15 754.78,-12.56 744.75,-9.15 744.81,-16.15"/>
</a>
</g>
<g id="a_edge2&#45;headlabel"><a xlink:href="dir_000033_000010.html" target="_top" xlink:title="2">
<text text-anchor="middle" x="742.76" y="-15.13" font-family="Helvetica,sans-Serif" font-size="10.00" fill="#63b8ff">2</text>
</a>
</g>
</g>
<!-- dir_3255d4326b963e3cb310054928d3057b -->
<g id="node4" class="node">
<title>dir_3255d4326b963e3cb310054928d3057b</title>
<g id="a_node4"><a xlink:href="dir_3255d4326b963e3cb310054928d3057b.html" target="_top" xlink:title="TDescant">
<polygon fill="#a2b4d6" stroke="#404040" points="561,-76.24 503,-76.24 503,-56.99 561,-56.99 561,-76.24"/>
<text text-anchor="middle" x="532" y="-62.74" font-family="Helvetica,sans-Serif" font-size="10.00">TDescant</text>
</a>
</g>
</g>
<!-- dir_3255d4326b963e3cb310054928d3057b&#45;&gt;dir_c355ed69a9ff804c1251ec805b2844ab -->
<g id="edge3" class="edge">
<title>dir_3255d4326b963e3cb310054928d3057b&#45;&gt;dir_c355ed69a9ff804c1251ec805b2844ab</title>
<g id="a_edge3"><a xlink:href="dir_000035_000010.html" target="_top">
<path fill="none" stroke="#63b8ff" d="M542.94,-56.67C550.17,-51.23 560.12,-44.66 570,-40.99 628.68,-19.22 702.1,-13.74 744.76,-12.52"/>
<polygon fill="#63b8ff" stroke="#63b8ff" points="744.76,-16.02 754.68,-12.31 744.61,-9.02 744.76,-16.02"/>
</a>
</g>
<g id="a_edge3&#45;headlabel"><a xlink:href="dir_000035_000010.html" target="_top" xlink:title="4">
<text text-anchor="middle" x="742.74" y="-15.03" font-family="Helvetica,sans-Serif" font-size="10.00" fill="#63b8ff">4</text>
</a>
</g>
</g>
<!-- dir_d44c64559bbebec7f509842c48db8b23 -->
<g id="node23" class="node">
<title>dir_d44c64559bbebec7f509842c48db8b23</title>
<g id="a_node23"><a xlink:href="dir_d44c64559bbebec7f509842c48db8b23.html" target="_top" xlink:title="include">
<polygon fill="#edf0f7" stroke="#404040" points="929.38,-20.99 882.62,-20.99 882.62,-1.74 929.38,-1.74 929.38,-20.99"/>
<text text-anchor="middle" x="906" y="-7.49" font-family="Helvetica,sans-Serif" font-size="10.00">include</text>
</a>
</g>
</g>
<!-- dir_3255d4326b963e3cb310054928d3057b&#45;&gt;dir_d44c64559bbebec7f509842c48db8b23 -->
<g id="edge4" class="edge">
<title>dir_3255d4326b963e3cb310054928d3057b&#45;&gt;dir_d44c64559bbebec7f509842c48db8b23</title>
<g id="a_edge4"><a xlink:href="dir_000035_000013.html" target="_top">
<path fill="none" stroke="#63b8ff" d="M542.55,-56.73C549.79,-51.18 559.88,-44.44 570,-40.99 672.14,-6.15 704.49,-30.37 812,-20.99 831.59,-19.28 853.47,-17.28 871.19,-15.64"/>
<polygon fill="#63b8ff" stroke="#63b8ff" points="871.3,-19.14 880.93,-14.73 870.65,-12.17 871.3,-19.14"/>
</a>
</g>
<g id="a_edge4&#45;headlabel"><a xlink:href="dir_000035_000013.html" target="_top" xlink:title="6">
<text text-anchor="middle" x="869.49" y="-18.29" font-family="Helvetica,sans-Serif" font-size="10.00" fill="#63b8ff">6</text>
</a>
</g>
</g>
<!-- dir_20aa1809d84b5df61f0e44e26c457914 -->
<g id="node5" class="node">
<title>dir_20aa1809d84b5df61f0e44e26c457914</title>
<g id="a_node5"><a xlink:href="dir_20aa1809d84b5df61f0e44e26c457914.html" target="_top" xlink:title="TEmma">
<polygon fill="#a2b4d6" stroke="#404040" points="484.88,-76.24 435.12,-76.24 435.12,-56.99 484.88,-56.99 484.88,-76.24"/>
<text text-anchor="middle" x="460" y="-62.74" font-family="Helvetica,sans-Serif" font-size="10.00">TEmma</text>
</a>
</g>
</g>
<!-- dir_20aa1809d84b5df61f0e44e26c457914&#45;&gt;dir_c355ed69a9ff804c1251ec805b2844ab -->
<g id="edge5" class="edge">
<title>dir_20aa1809d84b5df61f0e44e26c457914&#45;&gt;dir_c355ed69a9ff804c1251ec805b2844ab</title>
<g id="a_edge5"><a xlink:href="dir_000038_000010.html" target="_top">
<path fill="none" stroke="#63b8ff" d="M469.59,-56.53C475.98,-51.05 484.87,-44.46 494,-40.99 539.01,-23.88 678.69,-16.3 744.73,-13.61"/>
<polygon fill="#63b8ff" stroke="#63b8ff" points="744.79,-17.11 754.65,-13.22 744.52,-10.11 744.79,-17.11"/>
</a>
</g>
<g id="a_edge5&#45;headlabel"><a xlink:href="dir_000038_000010.html" target="_top" xlink:title="3">
<text text-anchor="middle" x="742.83" y="-16.15" font-family="Helvetica,sans-Serif" font-size="10.00" fill="#63b8ff">3</text>
</a>
</g>
</g>
<!-- dir_20aa1809d84b5df61f0e44e26c457914&#45;&gt;dir_d44c64559bbebec7f509842c48db8b23 -->
<g id="edge6" class="edge">
<title>dir_20aa1809d84b5df61f0e44e26c457914&#45;&gt;dir_d44c64559bbebec7f509842c48db8b23</title>
<g id="a_edge6"><a xlink:href="dir_000038_000013.html" target="_top">
<path fill="none" stroke="#63b8ff" d="M469.26,-56.67C475.66,-51.08 484.67,-44.34 494,-40.99 560.64,-17.06 741.4,-26.45 812,-20.99 831.61,-19.48 853.49,-17.49 871.21,-15.8"/>
<polygon fill="#63b8ff" stroke="#63b8ff" points="871.33,-19.3 880.94,-14.86 870.65,-12.34 871.33,-19.3"/>
</a>
</g>
<g id="a_edge6&#45;headlabel"><a xlink:href="dir_000038_000013.html" target="_top" xlink:title="1">
<text text-anchor="middle" x="869.53" y="-18.45" font-family="Helvetica,sans-Serif" font-size="10.00" fill="#63b8ff">1</text>
</a>
</g>
</g>
<!-- dir_96a286c95e152dc84501dde3344e48b1 -->
<g id="node6" class="node">
<title>dir_96a286c95e152dc84501dde3344e48b1</title>
<g id="a_node6"><a xlink:href="dir_96a286c95e152dc84501dde3344e48b1.html" target="_top" xlink:title="TGenericDetector">
<polygon fill="#a2b4d6" stroke="#404040" points="417.25,-76.24 324.75,-76.24 324.75,-56.99 417.25,-56.99 417.25,-76.24"/>
<text text-anchor="middle" x="371" y="-62.74" font-family="Helvetica,sans-Serif" font-size="10.00">TGenericDetector</text>
</a>
</g>
</g>
<!-- dir_96a286c95e152dc84501dde3344e48b1&#45;&gt;dir_c355ed69a9ff804c1251ec805b2844ab -->
<g id="edge7" class="edge">
<title>dir_96a286c95e152dc84501dde3344e48b1&#45;&gt;dir_c355ed69a9ff804c1251ec805b2844ab</title>
<g id="a_edge7"><a xlink:href="dir_000044_000010.html" target="_top">
<path fill="none" stroke="#63b8ff" d="M387.32,-56.54C397.99,-51.06 412.42,-44.47 426,-40.99 485.67,-25.7 667.85,-16.84 744.95,-13.69"/>
<polygon fill="#63b8ff" stroke="#63b8ff" points="745.02,-17.19 754.87,-13.29 744.74,-10.19 745.02,-17.19"/>
</a>
</g>
<g id="a_edge7&#45;headlabel"><a xlink:href="dir_000044_000010.html" target="_top" xlink:title="1">
<text text-anchor="middle" x="743.05" y="-16.23" font-family="Helvetica,sans-Serif" font-size="10.00" fill="#63b8ff">1</text>
</a>
</g>
</g>
<!-- dir_96a286c95e152dc84501dde3344e48b1&#45;&gt;dir_d44c64559bbebec7f509842c48db8b23 -->
<g id="edge8" class="edge">
<title>dir_96a286c95e152dc84501dde3344e48b1&#45;&gt;dir_d44c64559bbebec7f509842c48db8b23</title>
<g id="a_edge8"><a xlink:href="dir_000044_000013.html" target="_top">
<path fill="none" stroke="#63b8ff" d="M386.81,-56.65C397.51,-51.07 412.17,-44.32 426,-40.99 509.5,-20.88 726.33,-27.14 812,-20.99 831.62,-19.58 853.5,-17.6 871.21,-15.89"/>
<polygon fill="#63b8ff" stroke="#63b8ff" points="871.34,-19.4 880.95,-14.94 870.66,-12.43 871.34,-19.4"/>
</a>
</g>
<g id="a_edge8&#45;headlabel"><a xlink:href="dir_000044_000013.html" target="_top" xlink:title="1">
<text text-anchor="middle" x="869.55" y="-18.55" font-family="Helvetica,sans-Serif" font-size="10.00" fill="#63b8ff">1</text>
</a>
</g>
</g>
<!-- dir_4d7a83305960b64d8c07c7efbf543e1a -->
<g id="node7" class="node">
<title>dir_4d7a83305960b64d8c07c7efbf543e1a</title>
<g id="a_node7"><a xlink:href="dir_4d7a83305960b64d8c07c7efbf543e1a.html" target="_top" xlink:title="TGriffin">
<polygon fill="#a2b4d6" stroke="#404040" points="1410.38,-76.24 1363.62,-76.24 1363.62,-56.99 1410.38,-56.99 1410.38,-76.24"/>
<text text-anchor="middle" x="1387" y="-62.74" font-family="Helvetica,sans-Serif" font-size="10.00">TGriffin</text>
</a>
</g>
</g>
<!-- dir_4d7a83305960b64d8c07c7efbf543e1a&#45;&gt;dir_c355ed69a9ff804c1251ec805b2844ab -->
<g id="edge9" class="edge">
<title>dir_4d7a83305960b64d8c07c7efbf543e1a&#45;&gt;dir_c355ed69a9ff804c1251ec805b2844ab</title>
<g id="a_edge9"><a xlink:href="dir_000045_000010.html" target="_top">
<path fill="none" stroke="#63b8ff" d="M1378.4,-56.6C1372.43,-51 1363.96,-44.25 1355,-40.99 1304.73,-22.71 927.37,-24.55 874,-20.99 854.38,-19.68 832.49,-17.71 814.78,-15.98"/>
<polygon fill="#63b8ff" stroke="#63b8ff" points="815.34,-12.51 805.05,-15.01 814.65,-19.48 815.34,-12.51"/>
</a>
</g>
<g id="a_edge9&#45;headlabel"><a xlink:href="dir_000045_000010.html" target="_top" xlink:title="7">
<text text-anchor="middle" x="817.7" y="-6.02" font-family="Helvetica,sans-Serif" font-size="10.00" fill="#63b8ff">7</text>
</a>
</g>
</g>
<!-- dir_4d7a83305960b64d8c07c7efbf543e1a&#45;&gt;dir_d44c64559bbebec7f509842c48db8b23 -->
<g id="edge10" class="edge">
<title>dir_4d7a83305960b64d8c07c7efbf543e1a&#45;&gt;dir_d44c64559bbebec7f509842c48db8b23</title>
<g id="a_edge10"><a xlink:href="dir_000045_000013.html" target="_top">
<path fill="none" stroke="#63b8ff" d="M1378.38,-56.67C1372.4,-51.09 1363.92,-44.35 1355,-40.99 1279.44,-12.57 1033.14,-11.38 941.11,-11.98"/>
<polygon fill="#63b8ff" stroke="#63b8ff" points="941.16,-8.48 931.19,-12.06 941.22,-15.48 941.16,-8.48"/>
</a>
</g>
<g id="a_edge10&#45;headlabel"><a xlink:href="dir_000045_000013.html" target="_top" xlink:title="6">
<text text-anchor="middle" x="943.22" y="-1.75" font-family="Helvetica,sans-Serif" font-size="10.00" fill="#63b8ff">6</text>
</a>
</g>
</g>
<!-- dir_19584bb47928904ee352adb90b980c09 -->
<g id="node8" class="node">
<title>dir_19584bb47928904ee352adb90b980c09</title>
<g id="a_node8"><a xlink:href="dir_19584bb47928904ee352adb90b980c09.html" target="_top" xlink:title="TLaBr">
<polygon fill="#a2b4d6" stroke="#404040" points="1345.5,-76.24 1302.5,-76.24 1302.5,-56.99 1345.5,-56.99 1345.5,-76.24"/>
<text text-anchor="middle" x="1324" y="-62.74" font-family="Helvetica,sans-Serif" font-size="10.00">TLaBr</text>
</a>
</g>
</g>
<!-- dir_19584bb47928904ee352adb90b980c09&#45;&gt;dir_c355ed69a9ff804c1251ec805b2844ab -->
<g id="edge11" class="edge">
<title>dir_19584bb47928904ee352adb90b980c09&#45;&gt;dir_c355ed69a9ff804c1251ec805b2844ab</title>
<g id="a_edge11"><a xlink:href="dir_000061_000010.html" target="_top">
<path fill="none" stroke="#63b8ff" d="M1316.04,-56.63C1310.48,-51.03 1302.55,-44.28 1294,-40.99 1250.4,-24.21 920.61,-24.24 874,-20.99 854.38,-19.63 832.5,-17.64 814.79,-15.93"/>
<polygon fill="#63b8ff" stroke="#63b8ff" points="815.34,-12.46 805.05,-14.96 814.66,-19.43 815.34,-12.46"/>
</a>
</g>
<g id="a_edge11&#45;headlabel"><a xlink:href="dir_000061_000010.html" target="_top" xlink:title="5">
<text text-anchor="middle" x="817.69" y="-5.97" font-family="Helvetica,sans-Serif" font-size="10.00" fill="#63b8ff">5</text>
</a>
</g>
</g>
<!-- dir_19584bb47928904ee352adb90b980c09&#45;&gt;dir_d44c64559bbebec7f509842c48db8b23 -->
<g id="edge12" class="edge">
<title>dir_19584bb47928904ee352adb90b980c09&#45;&gt;dir_d44c64559bbebec7f509842c48db8b23</title>
<g id="a_edge12"><a xlink:href="dir_000061_000013.html" target="_top">
<path fill="none" stroke="#63b8ff" d="M1316.01,-56.7C1310.44,-51.13 1302.51,-44.4 1294,-40.99 1230.42,-15.56 1024.12,-12.46 941.09,-12.27"/>
<polygon fill="#63b8ff" stroke="#63b8ff" points="941.29,-8.77 931.28,-12.26 941.28,-15.77 941.29,-8.77"/>
</a>
</g>
<g id="a_edge12&#45;headlabel"><a xlink:href="dir_000061_000013.html" target="_top" xlink:title="4">
<text text-anchor="middle" x="943.37" y="-2.05" font-family="Helvetica,sans-Serif" font-size="10.00" fill="#63b8ff">4</text>
</a>
</g>
</g>
<!-- dir_cc71cf65fdf8fb611fc39d2104e00889 -->
<g id="node9" class="node">
<title>dir_cc71cf65fdf8fb611fc39d2104e00889</title>
<g id="a_node9"><a xlink:href="dir_cc71cf65fdf8fb611fc39d2104e00889.html" target="_top" xlink:title="TPaces">
<polygon fill="#a2b4d6" stroke="#404040" points="1284.88,-76.24 1235.12,-76.24 1235.12,-56.99 1284.88,-56.99 1284.88,-76.24"/>
<text text-anchor="middle" x="1260" y="-62.74" font-family="Helvetica,sans-Serif" font-size="10.00">TPaces</text>
</a>
</g>
</g>
<!-- dir_cc71cf65fdf8fb611fc39d2104e00889&#45;&gt;dir_c355ed69a9ff804c1251ec805b2844ab -->
<g id="edge13" class="edge">
<title>dir_cc71cf65fdf8fb611fc39d2104e00889&#45;&gt;dir_c355ed69a9ff804c1251ec805b2844ab</title>
<g id="a_edge13"><a xlink:href="dir_000066_000010.html" target="_top">
<path fill="none" stroke="#63b8ff" d="M1250.75,-56.65C1244.35,-51.06 1235.34,-44.31 1226,-40.99 1152.18,-14.73 952.13,-26.79 874,-20.99 854.39,-19.54 832.5,-17.55 814.79,-15.85"/>
<polygon fill="#63b8ff" stroke="#63b8ff" points="815.34,-12.39 805.05,-14.9 814.67,-19.35 815.34,-12.39"/>
</a>
</g>
<g id="a_edge13&#45;headlabel"><a xlink:href="dir_000066_000010.html" target="_top" xlink:title="3">
<text text-anchor="middle" x="817.69" y="-5.89" font-family="Helvetica,sans-Serif" font-size="10.00" fill="#63b8ff">3</text>
</a>
</g>
</g>
<!-- dir_cc71cf65fdf8fb611fc39d2104e00889&#45;&gt;dir_d44c64559bbebec7f509842c48db8b23 -->
<g id="edge14" class="edge">
<title>dir_cc71cf65fdf8fb611fc39d2104e00889&#45;&gt;dir_d44c64559bbebec7f509842c48db8b23</title>
<g id="a_edge14"><a xlink:href="dir_000066_000013.html" target="_top">
<path fill="none" stroke="#63b8ff" d="M1250.43,-56.5C1244.03,-51 1235.15,-44.41 1226,-40.99 1174.53,-21.74 1012.73,-15.16 940.92,-13.16"/>
<polygon fill="#63b8ff" stroke="#63b8ff" points="941.4,-9.67 931.31,-12.9 941.22,-16.67 941.4,-9.67"/>
</a>
</g>
<g id="a_edge14&#45;headlabel"><a xlink:href="dir_000066_000013.html" target="_top" xlink:title="1">
<text text-anchor="middle" x="943.56" y="-3.01" font-family="Helvetica,sans-Serif" font-size="10.00" fill="#63b8ff">1</text>
</a>
</g>
</g>
<!-- dir_a3742f42c59f9008c555307cd0d941bd -->
<g id="node10" class="node">
<title>dir_a3742f42c59f9008c555307cd0d941bd</title>
<g id="a_node10"><a xlink:href="dir_a3742f42c59f9008c555307cd0d941bd.html" target="_top" xlink:title="TRF">
<polygon fill="#a2b4d6" stroke="#404040" points="58.38,-76.24 23.62,-76.24 23.62,-56.99 58.38,-56.99 58.38,-76.24"/>
<text text-anchor="middle" x="41" y="-62.74" font-family="Helvetica,sans-Serif" font-size="10.00">TRF</text>
</a>
</g>
</g>
<!-- dir_a3742f42c59f9008c555307cd0d941bd&#45;&gt;dir_c355ed69a9ff804c1251ec805b2844ab -->
<g id="edge15" class="edge">
<title>dir_a3742f42c59f9008c555307cd0d941bd&#45;&gt;dir_c355ed69a9ff804c1251ec805b2844ab</title>
<g id="a_edge15"><a xlink:href="dir_000071_000010.html" target="_top">
<path fill="none" stroke="#63b8ff" d="M47.65,-56.62C52.36,-51.02 59.21,-44.28 67,-40.99 129.74,-14.53 610.63,-12.41 745.14,-12.33"/>
<polygon fill="#63b8ff" stroke="#63b8ff" points="744.84,-15.84 754.84,-12.33 744.84,-8.84 744.84,-15.84"/>
</a>
</g>
<g id="a_edge15&#45;headlabel"><a xlink:href="dir_000071_000010.html" target="_top" xlink:title="1">
<text text-anchor="middle" x="742.76" y="-14.8" font-family="Helvetica,sans-Serif" font-size="10.00" fill="#63b8ff">1</text>
</a>
</g>
</g>
<!-- dir_4d99cfd5505f921b61c4eae3c76dc75f -->
<g id="node11" class="node">
<title>dir_4d99cfd5505f921b61c4eae3c76dc75f</title>
<g id="a_node11"><a xlink:href="dir_4d99cfd5505f921b61c4eae3c76dc75f.html" target="_top" xlink:title="TS3">
<polygon fill="#a2b4d6" stroke="#404040" points="1217,-76.24 1183,-76.24 1183,-56.99 1217,-56.99 1217,-76.24"/>
<text text-anchor="middle" x="1200" y="-62.74" font-family="Helvetica,sans-Serif" font-size="10.00">TS3</text>
</a>
</g>
</g>
<!-- dir_4d99cfd5505f921b61c4eae3c76dc75f&#45;&gt;dir_c355ed69a9ff804c1251ec805b2844ab -->
<g id="edge16" class="edge">
<title>dir_4d99cfd5505f921b61c4eae3c76dc75f&#45;&gt;dir_c355ed69a9ff804c1251ec805b2844ab</title>
<g id="a_edge16"><a xlink:href="dir_000073_000010.html" target="_top">
<path fill="none" stroke="#63b8ff" d="M1193.32,-56.69C1188.6,-51.12 1181.75,-44.38 1174,-40.99 1112.79,-14.21 940.61,-26.27 874,-20.99 854.39,-19.44 832.51,-17.45 814.8,-15.77"/>
<polygon fill="#63b8ff" stroke="#63b8ff" points="815.35,-12.3 805.06,-14.84 814.68,-19.27 815.35,-12.3"/>
</a>
</g>
<g id="a_edge16&#45;headlabel"><a xlink:href="dir_000073_000010.html" target="_top" xlink:title="4">
<text text-anchor="middle" x="817.69" y="-5.8" font-family="Helvetica,sans-Serif" font-size="10.00" fill="#63b8ff">4</text>
</a>
</g>
</g>
<!-- dir_4d99cfd5505f921b61c4eae3c76dc75f&#45;&gt;dir_d44c64559bbebec7f509842c48db8b23 -->
<g id="edge17" class="edge">
<title>dir_4d99cfd5505f921b61c4eae3c76dc75f&#45;&gt;dir_d44c64559bbebec7f509842c48db8b23</title>
<g id="a_edge17"><a xlink:href="dir_000073_000013.html" target="_top">
<path fill="none" stroke="#63b8ff" d="M1193.28,-56.79C1188.54,-51.26 1181.68,-44.53 1174,-40.99 1133.39,-22.25 1003.97,-15.54 941.03,-13.34"/>
<polygon fill="#63b8ff" stroke="#63b8ff" points="941.36,-9.85 931.25,-13.02 941.13,-16.84 941.36,-9.85"/>
</a>
</g>
<g id="a_edge17&#45;headlabel"><a xlink:href="dir_000073_000013.html" target="_top" xlink:title="3">
<text text-anchor="middle" x="943.53" y="-3.2" font-family="Helvetica,sans-Serif" font-size="10.00" fill="#63b8ff">3</text>
</a>
</g>
</g>
<!-- dir_16b966a18393853074d5fe146ac33cca -->
<g id="node12" class="node">
<title>dir_16b966a18393853074d5fe146ac33cca</title>
<g id="a_node12"><a xlink:href="dir_16b966a18393853074d5fe146ac33cca.html" target="_top" xlink:title="TSceptar">
<polygon fill="#a2b4d6" stroke="#404040" points="1164.88,-76.24 1109.12,-76.24 1109.12,-56.99 1164.88,-56.99 1164.88,-76.24"/>
<text text-anchor="middle" x="1137" y="-62.74" font-family="Helvetica,sans-Serif" font-size="10.00">TSceptar</text>
</a>
</g>
</g>
<!-- dir_16b966a18393853074d5fe146ac33cca&#45;&gt;dir_c355ed69a9ff804c1251ec805b2844ab -->
<g id="edge18" class="edge">
<title>dir_16b966a18393853074d5fe146ac33cca&#45;&gt;dir_c355ed69a9ff804c1251ec805b2844ab</title>
<g id="a_edge18"><a xlink:href="dir_000074_000010.html" target="_top">
<path fill="none" stroke="#63b8ff" d="M1126.45,-56.5C1119.44,-51 1109.76,-44.42 1100,-40.99 1004.86,-7.58 974.43,-30.04 874,-20.99 854.41,-19.23 832.53,-17.22 814.81,-15.59"/>
<polygon fill="#63b8ff" stroke="#63b8ff" points="815.35,-12.12 805.07,-14.69 814.71,-19.09 815.35,-12.12"/>
</a>
</g>
<g id="a_edge18&#45;headlabel"><a xlink:href="dir_000074_000010.html" target="_top" xlink:title="3">
<text text-anchor="middle" x="817.68" y="-5.61" font-family="Helvetica,sans-Serif" font-size="10.00" fill="#63b8ff">3</text>
</a>
</g>
</g>
<!-- dir_16b966a18393853074d5fe146ac33cca&#45;&gt;dir_d44c64559bbebec7f509842c48db8b23 -->
<g id="edge19" class="edge">
<title>dir_16b966a18393853074d5fe146ac33cca&#45;&gt;dir_d44c64559bbebec7f509842c48db8b23</title>
<g id="a_edge19"><a xlink:href="dir_000074_000013.html" target="_top">
<path fill="none" stroke="#63b8ff" d="M1126.38,-56.7C1119.34,-51.27 1109.65,-44.7 1100,-40.99 1047.15,-20.68 981.1,-14.68 941.3,-12.97"/>
<polygon fill="#63b8ff" stroke="#63b8ff" points="941.46,-9.47 931.35,-12.62 941.22,-16.47 941.46,-9.47"/>
</a>
</g>
<g id="a_edge19&#45;headlabel"><a xlink:href="dir_000074_000013.html" target="_top" xlink:title="2">
<text text-anchor="middle" x="943.64" y="-2.83" font-family="Helvetica,sans-Serif" font-size="10.00" fill="#63b8ff">2</text>
</a>
</g>
</g>
<!-- dir_50352e263f8119c6746fa440b6a9cc8a -->
<g id="node13" class="node">
<title>dir_50352e263f8119c6746fa440b6a9cc8a</title>
<g id="a_node13"><a xlink:href="dir_50352e263f8119c6746fa440b6a9cc8a.html" target="_top" xlink:title="TSharc">
<polygon fill="#a2b4d6" stroke="#404040" points="1090.75,-76.24 1043.25,-76.24 1043.25,-56.99 1090.75,-56.99 1090.75,-76.24"/>
<text text-anchor="middle" x="1067" y="-62.74" font-family="Helvetica,sans-Serif" font-size="10.00">TSharc</text>
</a>
</g>
</g>
<!-- dir_50352e263f8119c6746fa440b6a9cc8a&#45;&gt;dir_c355ed69a9ff804c1251ec805b2844ab -->
<g id="edge20" class="edge">
<title>dir_50352e263f8119c6746fa440b6a9cc8a&#45;&gt;dir_c355ed69a9ff804c1251ec805b2844ab</title>
<g id="a_edge20"><a xlink:href="dir_000075_000010.html" target="_top">
<path fill="none" stroke="#63b8ff" d="M1057.73,-56.57C1051.53,-51.1 1042.91,-44.52 1034,-40.99 1023.95,-37.02 882.12,-22.52 814.88,-15.81"/>
<polygon fill="#63b8ff" stroke="#63b8ff" points="815.43,-12.35 805.13,-14.84 814.73,-19.31 815.43,-12.35"/>
</a>
</g>
<g id="a_edge20&#45;headlabel"><a xlink:href="dir_000075_000010.html" target="_top" xlink:title="3">
<text text-anchor="middle" x="817.78" y="-5.85" font-family="Helvetica,sans-Serif" font-size="10.00" fill="#63b8ff">3</text>
</a>
</g>
</g>
<!-- dir_50352e263f8119c6746fa440b6a9cc8a&#45;&gt;dir_d44c64559bbebec7f509842c48db8b23 -->
<g id="edge21" class="edge">
<title>dir_50352e263f8119c6746fa440b6a9cc8a&#45;&gt;dir_d44c64559bbebec7f509842c48db8b23</title>
<g id="a_edge21"><a xlink:href="dir_000075_000013.html" target="_top">
<path fill="none" stroke="#63b8ff" d="M1057.31,-56.65C1051.08,-51.35 1042.57,-44.93 1034,-40.99 1004.21,-27.31 967.45,-19.96 940.98,-16.16"/>
<polygon fill="#63b8ff" stroke="#63b8ff" points="941.47,-12.69 931.1,-14.84 940.55,-19.63 941.47,-12.69"/>
</a>
</g>
<g id="a_edge21&#45;headlabel"><a xlink:href="dir_000075_000013.html" target="_top" xlink:title="2">
<text text-anchor="middle" x="943.91" y="-6.27" font-family="Helvetica,sans-Serif" font-size="10.00" fill="#63b8ff">2</text>
</a>
</g>
</g>
<!-- dir_78f7d5e3c66d21c85688ebc1c1dd129a -->
<g id="node14" class="node">
<title>dir_78f7d5e3c66d21c85688ebc1c1dd129a</title>
<g id="a_node14"><a xlink:href="dir_78f7d5e3c66d21c85688ebc1c1dd129a.html" target="_top" xlink:title="TSharc2">
<polygon fill="#a2b4d6" stroke="#404040" points="1025.38,-76.24 972.62,-76.24 972.62,-56.99 1025.38,-56.99 1025.38,-76.24"/>
<text text-anchor="middle" x="999" y="-62.74" font-family="Helvetica,sans-Serif" font-size="10.00">TSharc2</text>
</a>
</g>
</g>
<!-- dir_78f7d5e3c66d21c85688ebc1c1dd129a&#45;&gt;dir_c355ed69a9ff804c1251ec805b2844ab -->
<g id="edge22" class="edge">
<title>dir_78f7d5e3c66d21c85688ebc1c1dd129a&#45;&gt;dir_c355ed69a9ff804c1251ec805b2844ab</title>
<g id="a_edge22"><a xlink:href="dir_000076_000010.html" target="_top">
<path fill="none" stroke="#63b8ff" d="M989.02,-56.71C982.39,-51.29 973.23,-44.72 964,-40.99 937.65,-30.35 860.73,-20.83 815.11,-15.9"/>
<polygon fill="#63b8ff" stroke="#63b8ff" points="815.51,-12.43 805.19,-14.85 814.77,-19.39 815.51,-12.43"/>
</a>
</g>
<g id="a_edge22&#45;headlabel"><a xlink:href="dir_000076_000010.html" target="_top" xlink:title="3">
<text text-anchor="middle" x="817.87" y="-5.95" font-family="Helvetica,sans-Serif" font-size="10.00" fill="#63b8ff">3</text>
</a>
</g>
</g>
<!-- dir_78f7d5e3c66d21c85688ebc1c1dd129a&#45;&gt;dir_d44c64559bbebec7f509842c48db8b23 -->
<g id="edge23" class="edge">
<title>dir_78f7d5e3c66d21c85688ebc1c1dd129a&#45;&gt;dir_d44c64559bbebec7f509842c48db8b23</title>
<g id="a_edge23"><a xlink:href="dir_000076_000013.html" target="_top">
<path fill="none" stroke="#63b8ff" d="M987.32,-56.71C980.65,-51.81 972.05,-45.77 964,-40.99 955.26,-35.8 945.44,-30.7 936.4,-26.28"/>
<polygon fill="#63b8ff" stroke="#63b8ff" points="938.16,-23.24 927.63,-22.08 935.14,-29.55 938.16,-23.24"/>
</a>
</g>
<g id="a_edge23&#45;headlabel"><a xlink:href="dir_000076_000013.html" target="_top" xlink:title="2">
<text text-anchor="middle" x="941.27" y="-17.7" font-family="Helvetica,sans-Serif" font-size="10.00" fill="#63b8ff">2</text>
</a>
</g>
</g>
<!-- dir_e38e57e74a772ab572f3fbdd81260eb7 -->
<g id="node15" class="node">
<title>dir_e38e57e74a772ab572f3fbdd81260eb7</title>
<g id="a_node15"><a xlink:href="dir_e38e57e74a772ab572f3fbdd81260eb7.html" target="_top" xlink:title="TSiLi">
<polygon fill="#a2b4d6" stroke="#404040" points="954.62,-76.24 915.38,-76.24 915.38,-56.99 954.62,-56.99 954.62,-76.24"/>
<text text-anchor="middle" x="935" y="-62.74" font-family="Helvetica,sans-Serif" font-size="10.00">TSiLi</text>
</a>
</g>
</g>
<!-- dir_e38e57e74a772ab572f3fbdd81260eb7&#45;&gt;dir_c355ed69a9ff804c1251ec805b2844ab -->
<g id="edge24" class="edge">
<title>dir_e38e57e74a772ab572f3fbdd81260eb7&#45;&gt;dir_c355ed69a9ff804c1251ec805b2844ab</title>
<g id="a_edge24"><a xlink:href="dir_000077_000010.html" target="_top">
<path fill="none" stroke="#63b8ff" d="M927.01,-56.61C921.82,-51.3 914.61,-44.87 907,-40.99 878.01,-26.21 841.47,-19 815.03,-15.52"/>
<polygon fill="#63b8ff" stroke="#63b8ff" points="815.51,-12.06 805.16,-14.35 814.68,-19.01 815.51,-12.06"/>
</a>
</g>
<g id="a_edge24&#45;headlabel"><a xlink:href="dir_000077_000010.html" target="_top" xlink:title="3">
<text text-anchor="middle" x="817.91" y="-5.61" font-family="Helvetica,sans-Serif" font-size="10.00" fill="#63b8ff">3</text>
</a>
</g>
</g>
<!-- dir_e38e57e74a772ab572f3fbdd81260eb7&#45;&gt;dir_d44c64559bbebec7f509842c48db8b23 -->
<g id="edge25" class="edge">
<title>dir_e38e57e74a772ab572f3fbdd81260eb7&#45;&gt;dir_d44c64559bbebec7f509842c48db8b23</title>
<g id="a_edge25"><a xlink:href="dir_000077_000013.html" target="_top">
<path fill="none" stroke="#63b8ff" d="M930.21,-56.82C926.46,-49.93 921.09,-40.08 916.37,-31.4"/>
<polygon fill="#63b8ff" stroke="#63b8ff" points="919.47,-29.79 911.62,-22.68 913.33,-33.14 919.47,-29.79"/>
</a>
</g>
<g id="a_edge25&#45;headlabel"><a xlink:href="dir_000077_000013.html" target="_top" xlink:title="1">
<text text-anchor="middle" x="922.96" y="-26.38" font-family="Helvetica,sans-Serif" font-size="10.00" fill="#63b8ff">1</text>
</a>
</g>
</g>
<!-- dir_5f056cdb9dd74bb3611fd0eeba65134a -->
<g id="node16" class="node">
<title>dir_5f056cdb9dd74bb3611fd0eeba65134a</title>
<g id="a_node16"><a xlink:href="dir_5f056cdb9dd74bb3611fd0eeba65134a.html" target="_top" xlink:title="TTAC">
<polygon fill="#a2b4d6" stroke="#404040" points="897.75,-76.24 856.25,-76.24 856.25,-56.99 897.75,-56.99 897.75,-76.24"/>
<text text-anchor="middle" x="877" y="-62.74" font-family="Helvetica,sans-Serif" font-size="10.00">TTAC</text>
</a>
</g>
</g>
<!-- dir_5f056cdb9dd74bb3611fd0eeba65134a&#45;&gt;dir_c355ed69a9ff804c1251ec805b2844ab -->
<g id="edge26" class="edge">
<title>dir_5f056cdb9dd74bb3611fd0eeba65134a&#45;&gt;dir_c355ed69a9ff804c1251ec805b2844ab</title>
<g id="a_edge26"><a xlink:href="dir_000080_000010.html" target="_top">
<path fill="none" stroke="#63b8ff" d="M867.53,-56.66C861.87,-51.62 854.37,-45.47 847,-40.99 836.78,-34.79 824.98,-29.27 814.15,-24.76"/>
<polygon fill="#63b8ff" stroke="#63b8ff" points="815.74,-21.63 805.15,-21.18 813.14,-28.13 815.74,-21.63"/>
</a>
</g>
<g id="a_edge26&#45;headlabel"><a xlink:href="dir_000080_000010.html" target="_top" xlink:title="3">
<text text-anchor="middle" x="818.72" y="-15.89" font-family="Helvetica,sans-Serif" font-size="10.00" fill="#63b8ff">3</text>
</a>
</g>
</g>
<!-- dir_5f056cdb9dd74bb3611fd0eeba65134a&#45;&gt;dir_d44c64559bbebec7f509842c48db8b23 -->
<g id="edge27" class="edge">
<title>dir_5f056cdb9dd74bb3611fd0eeba65134a&#45;&gt;dir_d44c64559bbebec7f509842c48db8b23</title>
<g id="a_edge27"><a xlink:href="dir_000080_000013.html" target="_top">
<path fill="none" stroke="#63b8ff" d="M881.79,-56.82C885.54,-49.93 890.91,-40.08 895.63,-31.4"/>
<polygon fill="#63b8ff" stroke="#63b8ff" points="898.67,-33.14 900.38,-22.68 892.53,-29.79 898.67,-33.14"/>
</a>
</g>
<g id="a_edge27&#45;headlabel"><a xlink:href="dir_000080_000013.html" target="_top" xlink:title="1">
<text text-anchor="middle" x="900.17" y="-32.45" font-family="Helvetica,sans-Serif" font-size="10.00" fill="#63b8ff">1</text>
</a>
</g>
</g>
<!-- dir_d7ccf6c4ee2c5d49aa2ecef4d80cc5aa -->
<g id="node17" class="node">
<title>dir_d7ccf6c4ee2c5d49aa2ecef4d80cc5aa</title>
<g id="a_node17"><a xlink:href="dir_d7ccf6c4ee2c5d49aa2ecef4d80cc5aa.html" target="_top" xlink:title="TTigress">
<polygon fill="#a2b4d6" stroke="#404040" points="838.12,-76.24 783.88,-76.24 783.88,-56.99 838.12,-56.99 838.12,-76.24"/>
<text text-anchor="middle" x="811" y="-62.74" font-family="Helvetica,sans-Serif" font-size="10.00">TTigress</text>
</a>
</g>
</g>
<!-- dir_d7ccf6c4ee2c5d49aa2ecef4d80cc5aa&#45;&gt;dir_c355ed69a9ff804c1251ec805b2844ab -->
<g id="edge28" class="edge">
<title>dir_d7ccf6c4ee2c5d49aa2ecef4d80cc5aa&#45;&gt;dir_c355ed69a9ff804c1251ec805b2844ab</title>
<g id="a_edge28"><a xlink:href="dir_000089_000010.html" target="_top">
<path fill="none" stroke="#63b8ff" d="M805.88,-56.82C801.82,-49.85 796.01,-39.86 790.91,-31.11"/>
<polygon fill="#63b8ff" stroke="#63b8ff" points="794.05,-29.54 785.99,-22.66 788,-33.06 794.05,-29.54"/>
</a>
</g>
<g id="a_edge28&#45;headlabel"><a xlink:href="dir_000089_000010.html" target="_top" xlink:title="3">
<text text-anchor="middle" x="797.55" y="-26.04" font-family="Helvetica,sans-Serif" font-size="10.00" fill="#63b8ff">3</text>
</a>
</g>
</g>
<!-- dir_d7ccf6c4ee2c5d49aa2ecef4d80cc5aa&#45;&gt;dir_d44c64559bbebec7f509842c48db8b23 -->
<g id="edge29" class="edge">
<title>dir_d7ccf6c4ee2c5d49aa2ecef4d80cc5aa&#45;&gt;dir_d44c64559bbebec7f509842c48db8b23</title>
<g id="a_edge29"><a xlink:href="dir_000089_000013.html" target="_top">
<path fill="none" stroke="#63b8ff" d="M823.04,-56.72C829.9,-51.82 838.75,-45.78 847,-40.99 855.92,-35.82 865.91,-30.72 875.1,-26.3"/>
<polygon fill="#63b8ff" stroke="#63b8ff" points="876.48,-29.51 884.04,-22.09 873.5,-23.18 876.48,-29.51"/>
</a>
</g>
<g id="a_edge29&#45;headlabel"><a xlink:href="dir_000089_000013.html" target="_top" xlink:title="2">
<text text-anchor="middle" x="875.81" y="-29.09" font-family="Helvetica,sans-Serif" font-size="10.00" fill="#63b8ff">2</text>
</a>
</g>
</g>
<!-- dir_5e08983b1f3b33eef3f396fa87b3843f -->
<g id="node18" class="node">
<title>dir_5e08983b1f3b33eef3f396fa87b3843f</title>
<g id="a_node18"><a xlink:href="dir_5e08983b1f3b33eef3f396fa87b3843f.html" target="_top" xlink:title="TTip">
<polygon fill="#a2b4d6" stroke="#404040" points="765.75,-76.24 730.25,-76.24 730.25,-56.99 765.75,-56.99 765.75,-76.24"/>
<text text-anchor="middle" x="748" y="-62.74" font-family="Helvetica,sans-Serif" font-size="10.00">TTip</text>
</a>
</g>
</g>
<!-- dir_5e08983b1f3b33eef3f396fa87b3843f&#45;&gt;dir_c355ed69a9ff804c1251ec805b2844ab -->
<g id="edge30" class="edge">
<title>dir_5e08983b1f3b33eef3f396fa87b3843f&#45;&gt;dir_c355ed69a9ff804c1251ec805b2844ab</title>
<g id="a_edge30"><a xlink:href="dir_000090_000010.html" target="_top">
<path fill="none" stroke="#63b8ff" d="M753.28,-56.82C757.47,-49.85 763.48,-39.86 768.73,-31.11"/>
<polygon fill="#63b8ff" stroke="#63b8ff" points="771.67,-33.02 773.82,-22.65 765.67,-29.42 771.67,-33.02"/>
</a>
</g>
<g id="a_edge30&#45;headlabel"><a xlink:href="dir_000090_000010.html" target="_top" xlink:title="3">
<text text-anchor="middle" x="773.03" y="-32.39" font-family="Helvetica,sans-Serif" font-size="10.00" fill="#63b8ff">3</text>
</a>
</g>
</g>
<!-- dir_5e08983b1f3b33eef3f396fa87b3843f&#45;&gt;dir_d44c64559bbebec7f509842c48db8b23 -->
<g id="edge31" class="edge">
<title>dir_5e08983b1f3b33eef3f396fa87b3843f&#45;&gt;dir_d44c64559bbebec7f509842c48db8b23</title>
<g id="a_edge31"><a xlink:href="dir_000090_000013.html" target="_top">
<path fill="none" stroke="#63b8ff" d="M755.63,-56.59C760.62,-51.27 767.56,-44.84 775,-40.99 805.26,-25.34 843.73,-18.23 871.14,-15.01"/>
<polygon fill="#63b8ff" stroke="#63b8ff" points="871.43,-18.5 881.01,-13.98 870.7,-11.54 871.43,-18.5"/>
</a>
</g>
<g id="a_edge31&#45;headlabel"><a xlink:href="dir_000090_000013.html" target="_top" xlink:title="1">
<text text-anchor="middle" x="869.66" y="-17.66" font-family="Helvetica,sans-Serif" font-size="10.00" fill="#63b8ff">1</text>
</a>
</g>
</g>
<!-- dir_2958022ccd904c4970b119e7b1daa5de -->
<g id="node19" class="node">
<title>dir_2958022ccd904c4970b119e7b1daa5de</title>
<g id="a_node19"><a xlink:href="dir_2958022ccd904c4970b119e7b1daa5de.html" target="_top" xlink:title="TTrific">
<polygon fill="#a2b4d6" stroke="#404040" points="712.5,-76.24 669.5,-76.24 669.5,-56.99 712.5,-56.99 712.5,-76.24"/>
<text text-anchor="middle" x="691" y="-62.74" font-family="Helvetica,sans-Serif" font-size="10.00">TTrific</text>
</a>
</g>
</g>
<!-- dir_2958022ccd904c4970b119e7b1daa5de&#45;&gt;dir_c355ed69a9ff804c1251ec805b2844ab -->
<g id="edge32" class="edge">
<title>dir_2958022ccd904c4970b119e7b1daa5de&#45;&gt;dir_c355ed69a9ff804c1251ec805b2844ab</title>
<g id="a_edge32"><a xlink:href="dir_000091_000010.html" target="_top">
<path fill="none" stroke="#63b8ff" d="M700.82,-56.56C706.47,-51.61 713.85,-45.57 721,-40.99 729.48,-35.56 739.13,-30.47 748.15,-26.13"/>
<polygon fill="#63b8ff" stroke="#63b8ff" points="749.35,-29.43 756.95,-22.04 746.41,-23.08 749.35,-29.43"/>
</a>
</g>
<g id="a_edge32&#45;headlabel"><a xlink:href="dir_000091_000010.html" target="_top" xlink:title="3">
<text text-anchor="middle" x="748.66" y="-29.01" font-family="Helvetica,sans-Serif" font-size="10.00" fill="#63b8ff">3</text>
</a>
</g>
</g>
<!-- dir_2958022ccd904c4970b119e7b1daa5de&#45;&gt;dir_d44c64559bbebec7f509842c48db8b23 -->
<g id="edge33" class="edge">
<title>dir_2958022ccd904c4970b119e7b1daa5de&#45;&gt;dir_d44c64559bbebec7f509842c48db8b23</title>
<g id="a_edge33"><a xlink:href="dir_000091_000013.html" target="_top">
<path fill="none" stroke="#63b8ff" d="M699.33,-56.68C704.92,-51.25 712.76,-44.68 721,-40.99 747.2,-29.28 825.31,-20.1 871.23,-15.54"/>
<polygon fill="#63b8ff" stroke="#63b8ff" points="871.31,-19.05 880.93,-14.6 870.64,-12.08 871.31,-19.05"/>
</a>
</g>
<g id="a_edge33&#45;headlabel"><a xlink:href="dir_000091_000013.html" target="_top" xlink:title="1">
<text text-anchor="middle" x="869.51" y="-18.2" font-family="Helvetica,sans-Serif" font-size="10.00" fill="#63b8ff">1</text>
</a>
</g>
</g>
<!-- dir_0750aac0d8bf2e4119c641f3efdb3d14 -->
<g id="node20" class="node">
<title>dir_0750aac0d8bf2e4119c641f3efdb3d14</title>
<g id="a_node20"><a xlink:href="dir_0750aac0d8bf2e4119c641f3efdb3d14.html" target="_top" xlink:title="TTriFoil">
<polygon fill="#a2b4d6" stroke="#404040" points="306.5,-76.24 257.5,-76.24 257.5,-56.99 306.5,-56.99 306.5,-76.24"/>
<text text-anchor="middle" x="282" y="-62.74" font-family="Helvetica,sans-Serif" font-size="10.00">TTriFoil</text>
</a>
</g>
</g>
<!-- dir_0750aac0d8bf2e4119c641f3efdb3d14&#45;&gt;dir_c355ed69a9ff804c1251ec805b2844ab -->
<g id="edge34" class="edge">
<title>dir_0750aac0d8bf2e4119c641f3efdb3d14&#45;&gt;dir_c355ed69a9ff804c1251ec805b2844ab</title>
<g id="a_edge34"><a xlink:href="dir_000092_000010.html" target="_top">
<path fill="none" stroke="#63b8ff" d="M291.26,-56.66C297.66,-51.08 306.67,-44.34 316,-40.99 394.79,-12.75 650.48,-11.48 744.71,-12.02"/>
<polygon fill="#63b8ff" stroke="#63b8ff" points="744.61,-15.52 754.63,-12.08 744.65,-8.52 744.61,-15.52"/>
</a>
</g>
<g id="a_edge34&#45;headlabel"><a xlink:href="dir_000092_000010.html" target="_top" xlink:title="1">
<text text-anchor="middle" x="742.5" y="-14.47" font-family="Helvetica,sans-Serif" font-size="10.00" fill="#63b8ff">1</text>
</a>
</g>
</g>
<!-- dir_4925a956edac1f5a41aa2a78deadb7b0 -->
<g id="node21" class="node">
<title>dir_4925a956edac1f5a41aa2a78deadb7b0</title>
<g id="a_node21"><a xlink:href="dir_4925a956edac1f5a41aa2a78deadb7b0.html" target="_top" xlink:title="TZeroDegree">
<polygon fill="#a2b4d6" stroke="#404040" points="651.12,-76.24 578.88,-76.24 578.88,-56.99 651.12,-56.99 651.12,-76.24"/>
<text text-anchor="middle" x="615" y="-62.74" font-family="Helvetica,sans-Serif" font-size="10.00">TZeroDegree</text>
</a>
</g>
</g>
<!-- dir_4925a956edac1f5a41aa2a78deadb7b0&#45;&gt;dir_c355ed69a9ff804c1251ec805b2844ab -->
<g id="edge35" class="edge">
<title>dir_4925a956edac1f5a41aa2a78deadb7b0&#45;&gt;dir_c355ed69a9ff804c1251ec805b2844ab</title>
<g id="a_edge35"><a xlink:href="dir_000093_000010.html" target="_top">
<path fill="none" stroke="#63b8ff" d="M629.46,-56.64C638.3,-51.47 649.99,-45.18 661,-40.99 688.48,-30.53 721.01,-23.02 745.11,-18.32"/>
<polygon fill="#63b8ff" stroke="#63b8ff" points="745.54,-21.8 754.72,-16.52 744.25,-14.92 745.54,-21.8"/>
</a>
</g>
<g id="a_edge35&#45;headlabel"><a xlink:href="dir_000093_000010.html" target="_top" xlink:title="3">
<text text-anchor="middle" x="744.02" y="-21.1" font-family="Helvetica,sans-Serif" font-size="10.00" fill="#63b8ff">3</text>
</a>
</g>
</g>
<!-- dir_4925a956edac1f5a41aa2a78deadb7b0&#45;&gt;dir_d44c64559bbebec7f509842c48db8b23 -->
<g id="edge36" class="edge">
<title>dir_4925a956edac1f5a41aa2a78deadb7b0&#45;&gt;dir_d44c64559bbebec7f509842c48db8b23</title>
<g id="a_edge36"><a xlink:href="dir_000093_000013.html" target="_top">
<path fill="none" stroke="#63b8ff" d="M628.49,-56.64C637.36,-51.2 649.42,-44.62 661,-40.99 680.58,-34.85 808.15,-21.86 871.05,-15.72"/>
<polygon fill="#63b8ff" stroke="#63b8ff" points="871.24,-19.22 880.85,-14.77 870.56,-12.25 871.24,-19.22"/>
</a>
</g>
<g id="a_edge36&#45;headlabel"><a xlink:href="dir_000093_000013.html" target="_top" xlink:title="5">
<text text-anchor="middle" x="869.44" y="-18.37" font-family="Helvetica,sans-Serif" font-size="10.00" fill="#63b8ff">5</text>
</a>
</g>
</g>
</g>
</svg>
