<?xml version="1.0" encoding="UTF-8" standalone="no"?>
<!DOCTYPE svg PUBLIC "-//W3C//DTD SVG 1.1//EN"
 "http://www.w3.org/Graphics/SVG/1.1/DTD/svg11.dtd">
<!-- Generated by graphviz version 12.2.0 (20241103.1931)
 -->
<!-- Title: grsixx.cxx Pages: 1 -->
<svg width="1343pt" height="138pt"
 viewBox="0.00 0.00 1343.38 137.75" xmlns="http://www.w3.org/2000/svg" xmlns:xlink="http://www.w3.org/1999/xlink">
<g id="graph0" class="graph" transform="scale(1 1) rotate(0) translate(4 133.75)">
<title>grsixx.cxx</title>
<!-- Node1 -->
<g id="Node000001" class="node">
<title>Node1</title>
<g id="a_Node000001"><a xlink:title=" ">
<polygon fill="#999999" stroke="#666666" points="813.75,-129.75 756.5,-129.75 756.5,-110.5 813.75,-110.5 813.75,-129.75"/>
<text text-anchor="middle" x="785.12" y="-116.25" font-family="Helvetica,sans-Serif" font-size="10.00">grsixx.cxx</text>
</a>
</g>
</g>
<!-- Node2 -->
<g id="Node000002" class="node">
<title>Node2</title>
<g id="a_Node000002"><a xlink:href="_globals_8h.html" target="_top" xlink:title=" ">
<polygon fill="white" stroke="#666666" points="475.38,-74.5 418.88,-74.5 418.88,-55.25 475.38,-55.25 475.38,-74.5"/>
<text text-anchor="middle" x="447.12" y="-61" font-family="Helvetica,sans-Serif" font-size="10.00">Globals.h</text>
</a>
</g>
</g>
<!-- Node1&#45;&gt;Node2 -->
<g id="edge1_Node000001_Node000002" class="edge">
<title>Node1&#45;&gt;Node2</title>
<g id="a_edge1_Node000001_Node000002"><a xlink:title=" ">
<path fill="none" stroke="#63b8ff" d="M756.05,-115.26C702.91,-108.09 586.6,-91.84 489.12,-74.5 488.3,-74.35 487.47,-74.2 486.63,-74.05"/>
<polygon fill="#63b8ff" stroke="#63b8ff" points="487.52,-70.66 477.04,-72.21 486.2,-77.53 487.52,-70.66"/>
</a>
</g>
</g>
<!-- Node7 -->
<g id="Node000007" class="node">
<title>Node7</title>
<g id="a_Node000007"><a xlink:title=" ">
<polygon fill="#e0e0e0" stroke="#999999" points="42.25,-19.25 0,-19.25 0,0 42.25,0 42.25,-19.25"/>
<text text-anchor="middle" x="21.12" y="-5.75" font-family="Helvetica,sans-Serif" font-size="10.00">cstdio</text>
</a>
</g>
</g>
<!-- Node1&#45;&gt;Node7 -->
<g id="edge18_Node000001_Node000007" class="edge">
<title>Node1&#45;&gt;Node7</title>
<g id="a_edge18_Node000001_Node000007"><a xlink:title=" ">
<path fill="none" stroke="#63b8ff" d="M756.04,-117.95C679.07,-114.53 463.88,-102.97 287.12,-74.5 201.83,-60.76 103.43,-34.29 53.63,-20.13"/>
<polygon fill="#63b8ff" stroke="#63b8ff" points="54.65,-16.78 44.08,-17.39 52.72,-23.51 54.65,-16.78"/>
</a>
</g>
</g>
<!-- Node8 -->
<g id="Node000008" class="node">
<title>Node8</title>
<g id="a_Node000008"><a xlink:title=" ">
<polygon fill="#e0e0e0" stroke="#999999" points="104.38,-19.25 59.88,-19.25 59.88,0 104.38,0 104.38,-19.25"/>
<text text-anchor="middle" x="82.12" y="-5.75" font-family="Helvetica,sans-Serif" font-size="10.00">cstdlib</text>
</a>
</g>
</g>
<!-- Node1&#45;&gt;Node8 -->
<g id="edge20_Node000001_Node000008" class="edge">
<title>Node1&#45;&gt;Node8</title>
<g id="a_edge20_Node000001_Node000008"><a xlink:title=" ">
<path fill="none" stroke="#63b8ff" d="M756.34,-116.35C693.38,-110.13 538.78,-94.1 410.12,-74.5 281.02,-54.83 245.83,-49.82 115.94,-19.76"/>
<polygon fill="#63b8ff" stroke="#63b8ff" points="116.76,-16.36 106.23,-17.51 115.18,-23.18 116.76,-16.36"/>
</a>
</g>
</g>
<!-- Node14 -->
<g id="Node000014" class="node">
<title>Node14</title>
<g id="a_Node000014"><a xlink:title=" ">
<polygon fill="#e0e0e0" stroke="#999999" points="941,-19.25 891.25,-19.25 891.25,0 941,0 941,-19.25"/>
<text text-anchor="middle" x="916.12" y="-5.75" font-family="Helvetica,sans-Serif" font-size="10.00">unistd.h</text>
</a>
</g>
</g>
<!-- Node1&#45;&gt;Node14 -->
<g id="edge19_Node000001_Node000014" class="edge">
<title>Node1&#45;&gt;Node14</title>
<g id="a_edge19_Node000001_Node000014"><a xlink:title=" ">
<path fill="none" stroke="#63b8ff" d="M756.24,-118.71C694.29,-117.14 551.86,-109.7 522.12,-74.5 516.6,-67.96 516.38,-61.59 522.12,-55.25 573.91,1.98 785.05,-30.32 879.74,-19.09"/>
<polygon fill="#63b8ff" stroke="#63b8ff" points="880.08,-22.58 889.47,-17.67 879.07,-15.66 880.08,-22.58"/>
</a>
</g>
</g>
<!-- Node17 -->
<g id="Node000017" class="node">
<title>Node17</title>
<g id="a_Node000017"><a xlink:title=" ">
<polygon fill="#e0e0e0" stroke="#999999" points="595.12,-74.5 531.12,-74.5 531.12,-55.25 595.12,-55.25 595.12,-74.5"/>
<text text-anchor="middle" x="563.12" y="-61" font-family="Helvetica,sans-Serif" font-size="10.00">GVersion.h</text>
</a>
</g>
</g>
<!-- Node1&#45;&gt;Node17 -->
<g id="edge16_Node000001_Node000017" class="edge">
<title>Node1&#45;&gt;Node17</title>
<g id="a_edge16_Node000001_Node000017"><a xlink:title=" ">
<path fill="none" stroke="#63b8ff" d="M756.1,-112.16C717.94,-103.01 650.56,-86.85 606.37,-76.25"/>
<polygon fill="#63b8ff" stroke="#63b8ff" points="607.41,-72.9 596.87,-73.97 605.77,-79.7 607.41,-72.9"/>
</a>
</g>
</g>
<!-- Node18 -->
<g id="Node000018" class="node">
<title>Node18</title>
<g id="a_Node000018"><a xlink:title=" ">
<polygon fill="#e0e0e0" stroke="#999999" points="683.5,-74.5 612.75,-74.5 612.75,-55.25 683.5,-55.25 683.5,-74.5"/>
<text text-anchor="middle" x="648.12" y="-61" font-family="Helvetica,sans-Serif" font-size="10.00">RConfigure.h</text>
</a>
</g>
</g>
<!-- Node1&#45;&gt;Node18 -->
<g id="edge17_Node000001_Node000018" class="edge">
<title>Node1&#45;&gt;Node18</title>
<g id="a_edge17_Node000001_Node000018"><a xlink:title=" ">
<path fill="none" stroke="#63b8ff" d="M761.88,-110.09C739.94,-101.56 706.78,-88.67 681.91,-79.01"/>
<polygon fill="#63b8ff" stroke="#63b8ff" points="683.48,-75.86 672.89,-75.5 680.94,-82.39 683.48,-75.86"/>
</a>
</g>
</g>
<!-- Node19 -->
<g id="Node000019" class="node">
<title>Node19</title>
<g id="a_Node000019"><a xlink:title=" ">
<polygon fill="#e0e0e0" stroke="#999999" points="746.75,-74.5 701.5,-74.5 701.5,-55.25 746.75,-55.25 746.75,-74.5"/>
<text text-anchor="middle" x="724.12" y="-61" font-family="Helvetica,sans-Serif" font-size="10.00">cstring</text>
</a>
</g>
</g>
<!-- Node1&#45;&gt;Node19 -->
<g id="edge21_Node000001_Node000019" class="edge">
<title>Node1&#45;&gt;Node19</title>
<g id="a_edge21_Node000001_Node000019"><a xlink:title=" ">
<path fill="none" stroke="#63b8ff" d="M774.78,-110.09C766.05,-102.47 753.34,-91.37 742.83,-82.2"/>
<polygon fill="#63b8ff" stroke="#63b8ff" points="745.3,-79.71 735.46,-75.77 740.69,-84.98 745.3,-79.71"/>
</a>
</g>
</g>
<!-- Node20 -->
<g id="Node000020" class="node">
<title>Node20</title>
<g id="a_Node000020"><a xlink:title=" ">
<polygon fill="#e0e0e0" stroke="#999999" points="805.88,-74.5 764.38,-74.5 764.38,-55.25 805.88,-55.25 805.88,-74.5"/>
<text text-anchor="middle" x="785.12" y="-61" font-family="Helvetica,sans-Serif" font-size="10.00">pwd.h</text>
</a>
</g>
</g>
<!-- Node1&#45;&gt;Node20 -->
<g id="edge22_Node000001_Node000020" class="edge">
<title>Node1&#45;&gt;Node20</title>
<g id="a_edge22_Node000001_Node000020"><a xlink:title=" ">
<path fill="none" stroke="#63b8ff" d="M785.12,-110.33C785.12,-103.82 785.12,-94.67 785.12,-86.37"/>
<polygon fill="#63b8ff" stroke="#63b8ff" points="788.63,-86.37 785.13,-76.37 781.63,-86.37 788.63,-86.37"/>
</a>
</g>
</g>
<!-- Node21 -->
<g id="Node000021" class="node">
<title>Node21</title>
<g id="a_Node000021"><a xlink:title=" ">
<polygon fill="#e0e0e0" stroke="#999999" points="888.5,-74.5 823.75,-74.5 823.75,-55.25 888.5,-55.25 888.5,-74.5"/>
<text text-anchor="middle" x="856.12" y="-61" font-family="Helvetica,sans-Serif" font-size="10.00">sys/types.h</text>
</a>
</g>
</g>
<!-- Node1&#45;&gt;Node21 -->
<g id="edge23_Node000001_Node000021" class="edge">
<title>Node1&#45;&gt;Node21</title>
<g id="a_edge23_Node000001_Node000021"><a xlink:title=" ">
<path fill="none" stroke="#63b8ff" d="M797.17,-110.09C807.53,-102.32 822.73,-90.92 835.09,-81.65"/>
<polygon fill="#63b8ff" stroke="#63b8ff" points="837.15,-84.48 843.05,-75.68 832.95,-78.88 837.15,-84.48"/>
</a>
</g>
</g>
<!-- Node22 -->
<g id="Node000022" class="node">
<title>Node22</title>
<g id="a_Node000022"><a xlink:title=" ">
<polygon fill="#e0e0e0" stroke="#999999" points="967.25,-74.5 907,-74.5 907,-55.25 967.25,-55.25 967.25,-74.5"/>
<text text-anchor="middle" x="937.12" y="-61" font-family="Helvetica,sans-Serif" font-size="10.00">X11/Xlib.h</text>
</a>
</g>
</g>
<!-- Node1&#45;&gt;Node22 -->
<g id="edge24_Node000001_Node000022" class="edge">
<title>Node1&#45;&gt;Node22</title>
<g id="a_edge24_Node000001_Node000022"><a xlink:title=" ">
<path fill="none" stroke="#63b8ff" d="M810.91,-110.09C835.48,-101.49 872.71,-88.44 900.38,-78.75"/>
<polygon fill="#63b8ff" stroke="#63b8ff" points="901.5,-82.06 909.79,-75.45 899.19,-75.46 901.5,-82.06"/>
</a>
</g>
</g>
<!-- Node23 -->
<g id="Node000023" class="node">
<title>Node23</title>
<g id="a_Node000023"><a xlink:title=" ">
<polygon fill="#e0e0e0" stroke="#999999" points="1047,-74.5 985.25,-74.5 985.25,-55.25 1047,-55.25 1047,-74.5"/>
<text text-anchor="middle" x="1016.12" y="-61" font-family="Helvetica,sans-Serif" font-size="10.00">X11/xpm.h</text>
</a>
</g>
</g>
<!-- Node1&#45;&gt;Node23 -->
<g id="edge25_Node000001_Node000023" class="edge">
<title>Node1&#45;&gt;Node23</title>
<g id="a_edge25_Node000001_Node000023"><a xlink:title=" ">
<path fill="none" stroke="#63b8ff" d="M813.91,-112.49C854.05,-103.24 927.12,-86.39 973.56,-75.69"/>
<polygon fill="#63b8ff" stroke="#63b8ff" points="974.32,-79.1 983.28,-73.45 972.75,-72.28 974.32,-79.1"/>
</a>
</g>
</g>
<!-- Node24 -->
<g id="Node000024" class="node">
<title>Node24</title>
<g id="a_Node000024"><a xlink:title=" ">
<polygon fill="#e0e0e0" stroke="#999999" points="1118.88,-74.5 1065.38,-74.5 1065.38,-55.25 1118.88,-55.25 1118.88,-74.5"/>
<text text-anchor="middle" x="1092.12" y="-61" font-family="Helvetica,sans-Serif" font-size="10.00">Rtypes.h</text>
</a>
</g>
</g>
<!-- Node1&#45;&gt;Node24 -->
<g id="edge26_Node000001_Node000024" class="edge">
<title>Node1&#45;&gt;Node24</title>
<g id="a_edge26_Node000001_Node000024"><a xlink:title=" ">
<path fill="none" stroke="#63b8ff" d="M814.13,-115.05C861.96,-108.18 960.6,-93.37 1053.98,-74.81"/>
<polygon fill="#63b8ff" stroke="#63b8ff" points="1054.45,-78.28 1063.56,-72.88 1053.07,-71.42 1054.45,-78.28"/>
</a>
</g>
</g>
<!-- Node25 -->
<g id="Node000025" class="node">
<title>Node25</title>
<g id="a_Node000025"><a xlink:title=" ">
<polygon fill="#e0e0e0" stroke="#999999" points="1177.12,-74.5 1137.12,-74.5 1137.12,-55.25 1177.12,-55.25 1177.12,-74.5"/>
<text text-anchor="middle" x="1157.12" y="-61" font-family="Helvetica,sans-Serif" font-size="10.00">ctime</text>
</a>
</g>
</g>
<!-- Node1&#45;&gt;Node25 -->
<g id="edge27_Node000001_Node000025" class="edge">
<title>Node1&#45;&gt;Node25</title>
<g id="a_edge27_Node000001_Node000025"><a xlink:title=" ">
<path fill="none" stroke="#63b8ff" d="M813.84,-116.95C871.36,-112.26 1004.87,-99.71 1125.73,-74.71"/>
<polygon fill="#63b8ff" stroke="#63b8ff" points="1126.09,-78.21 1135.15,-72.72 1124.65,-71.36 1126.09,-78.21"/>
</a>
</g>
</g>
<!-- Node26 -->
<g id="Node000026" class="node">
<title>Node26</title>
<g id="a_Node000026"><a xlink:title=" ">
<polygon fill="#e0e0e0" stroke="#999999" points="1255.25,-74.5 1195,-74.5 1195,-55.25 1255.25,-55.25 1255.25,-74.5"/>
<text text-anchor="middle" x="1225.12" y="-61" font-family="Helvetica,sans-Serif" font-size="10.00">sys/time.h</text>
</a>
</g>
</g>
<!-- Node1&#45;&gt;Node26 -->
<g id="edge28_Node000001_Node000026" class="edge">
<title>Node1&#45;&gt;Node26</title>
<g id="a_edge28_Node000001_Node000026"><a xlink:title=" ">
<path fill="none" stroke="#63b8ff" d="M813.96,-116.98C878.39,-111.96 1039.13,-98.19 1183.3,-74.81"/>
<polygon fill="#63b8ff" stroke="#63b8ff" points="1183.73,-78.29 1193.03,-73.21 1182.6,-71.38 1183.73,-78.29"/>
</a>
</g>
</g>
<!-- Node27 -->
<g id="Node000027" class="node">
<title>Node27</title>
<g id="a_Node000027"><a xlink:title=" ">
<polygon fill="#e0e0e0" stroke="#999999" points="1335.38,-74.5 1272.88,-74.5 1272.88,-55.25 1335.38,-55.25 1335.38,-74.5"/>
<text text-anchor="middle" x="1304.12" y="-61" font-family="Helvetica,sans-Serif" font-size="10.00">TSystem.h</text>
</a>
</g>
</g>
<!-- Node1&#45;&gt;Node27 -->
<g id="edge29_Node000001_Node000027" class="edge">
<title>Node1&#45;&gt;Node27</title>
<g id="a_edge29_Node000001_Node000027"><a xlink:title=" ">
<path fill="none" stroke="#63b8ff" d="M814.16,-117.63C887.47,-113.61 1086.12,-101.1 1261.5,-74.73"/>
<polygon fill="#63b8ff" stroke="#63b8ff" points="1261.89,-78.21 1271.25,-73.24 1260.84,-71.29 1261.89,-78.21"/>
</a>
</g>
</g>
<!-- Node3 -->
<g id="Node000003" class="node">
<title>Node3</title>
<g id="a_Node000003"><a xlink:title=" ">
<polygon fill="#e0e0e0" stroke="#999999" points="331.88,-19.25 278.38,-19.25 278.38,0 331.88,0 331.88,-19.25"/>
<text text-anchor="middle" x="305.12" y="-5.75" font-family="Helvetica,sans-Serif" font-size="10.00">iostream</text>
</a>
</g>
</g>
<!-- Node2&#45;&gt;Node3 -->
<g id="edge2_Node000002_Node000003" class="edge">
<title>Node2&#45;&gt;Node3</title>
<g id="a_edge2_Node000002_Node000003"><a xlink:title=" ">
<path fill="none" stroke="#63b8ff" d="M423.04,-54.84C400.19,-46.27 365.61,-33.31 339.8,-23.63"/>
<polygon fill="#63b8ff" stroke="#63b8ff" points="341.34,-20.47 330.75,-20.23 338.88,-27.02 341.34,-20.47"/>
</a>
</g>
</g>
<!-- Node4 -->
<g id="Node000004" class="node">
<title>Node4</title>
<g id="a_Node000004"><a xlink:title=" ">
<polygon fill="#e0e0e0" stroke="#999999" points="400,-19.25 350.25,-19.25 350.25,0 400,0 400,-19.25"/>
<text text-anchor="middle" x="375.12" y="-5.75" font-family="Helvetica,sans-Serif" font-size="10.00">iomanip</text>
</a>
</g>
</g>
<!-- Node2&#45;&gt;Node4 -->
<g id="edge3_Node000002_Node000004" class="edge">
<title>Node2&#45;&gt;Node4</title>
<g id="a_edge3_Node000002_Node000004"><a xlink:title=" ">
<path fill="none" stroke="#63b8ff" d="M434.91,-54.84C424.3,-46.99 408.69,-35.45 396.08,-26.12"/>
<polygon fill="#63b8ff" stroke="#63b8ff" points="398.5,-23.56 388.38,-20.42 394.33,-29.19 398.5,-23.56"/>
</a>
</g>
</g>
<!-- Node5 -->
<g id="Node000005" class="node">
<title>Node5</title>
<g id="a_Node000005"><a xlink:title=" ">
<polygon fill="#e0e0e0" stroke="#999999" points="476.12,-19.25 418.12,-19.25 418.12,0 476.12,0 476.12,-19.25"/>
<text text-anchor="middle" x="447.12" y="-5.75" font-family="Helvetica,sans-Serif" font-size="10.00">stdexcept</text>
</a>
</g>
</g>
<!-- Node2&#45;&gt;Node5 -->
<g id="edge4_Node000002_Node000005" class="edge">
<title>Node2&#45;&gt;Node5</title>
<g id="a_edge4_Node000002_Node000005"><a xlink:title=" ">
<path fill="none" stroke="#63b8ff" d="M447.12,-55.08C447.12,-48.57 447.12,-39.42 447.12,-31.12"/>
<polygon fill="#63b8ff" stroke="#63b8ff" points="450.63,-31.12 447.13,-21.12 443.63,-31.12 450.63,-31.12"/>
</a>
</g>
</g>
<!-- Node6 -->
<g id="Node000006" class="node">
<title>Node6</title>
<g id="a_Node000006"><a xlink:title=" ">
<polygon fill="#e0e0e0" stroke="#999999" points="534.12,-19.25 494.12,-19.25 494.12,0 534.12,0 534.12,-19.25"/>
<text text-anchor="middle" x="514.12" y="-5.75" font-family="Helvetica,sans-Serif" font-size="10.00">string</text>
</a>
</g>
</g>
<!-- Node2&#45;&gt;Node6 -->
<g id="edge5_Node000002_Node000006" class="edge">
<title>Node2&#45;&gt;Node6</title>
<g id="a_edge5_Node000002_Node000006"><a xlink:title=" ">
<path fill="none" stroke="#63b8ff" d="M458.49,-54.84C468.17,-47.15 482.32,-35.9 493.93,-26.68"/>
<polygon fill="#63b8ff" stroke="#63b8ff" points="496.09,-29.43 501.74,-20.47 491.74,-23.95 496.09,-29.43"/>
</a>
</g>
</g>
<!-- Node2&#45;&gt;Node7 -->
<g id="edge6_Node000002_Node000007" class="edge">
<title>Node2&#45;&gt;Node7</title>
<g id="a_edge6_Node000002_Node000007"><a xlink:title=" ">
<path fill="none" stroke="#63b8ff" d="M418.54,-62.3C354.69,-58.44 195.54,-46.88 53.7,-19.46"/>
<polygon fill="#63b8ff" stroke="#63b8ff" points="54.62,-16.07 44.13,-17.57 53.27,-22.94 54.62,-16.07"/>
</a>
</g>
</g>
<!-- Node2&#45;&gt;Node8 -->
<g id="edge7_Node000002_Node000008" class="edge">
<title>Node2&#45;&gt;Node8</title>
<g id="a_edge7_Node000002_Node000008"><a xlink:title=" ">
<path fill="none" stroke="#63b8ff" d="M418.75,-61.42C362.62,-56.29 233.31,-43.04 115.7,-19.53"/>
<polygon fill="#63b8ff" stroke="#63b8ff" points="116.7,-16.17 106.21,-17.6 115.31,-23.03 116.7,-16.17"/>
</a>
</g>
</g>
<!-- Node9 -->
<g id="Node000009" class="node">
<title>Node9</title>
<g id="a_Node000009"><a xlink:title=" ">
<polygon fill="#e0e0e0" stroke="#999999" points="611.88,-19.25 552.38,-19.25 552.38,0 611.88,0 611.88,-19.25"/>
<text text-anchor="middle" x="582.12" y="-5.75" font-family="Helvetica,sans-Serif" font-size="10.00">execinfo.h</text>
</a>
</g>
</g>
<!-- Node2&#45;&gt;Node9 -->
<g id="edge8_Node000002_Node000009" class="edge">
<title>Node2&#45;&gt;Node9</title>
<g id="a_edge8_Node000002_Node000009"><a xlink:title=" ">
<path fill="none" stroke="#63b8ff" d="M470.03,-54.84C491.55,-46.35 524.04,-33.54 548.5,-23.89"/>
<polygon fill="#63b8ff" stroke="#63b8ff" points="549.69,-27.18 557.7,-20.26 547.12,-20.67 549.69,-27.18"/>
</a>
</g>
</g>
<!-- Node10 -->
<g id="Node000010" class="node">
<title>Node10</title>
<g id="a_Node000010"><a xlink:title=" ">
<polygon fill="#e0e0e0" stroke="#999999" points="680.38,-19.25 629.88,-19.25 629.88,0 680.38,0 680.38,-19.25"/>
<text text-anchor="middle" x="655.12" y="-5.75" font-family="Helvetica,sans-Serif" font-size="10.00">cxxabi.h</text>
</a>
</g>
</g>
<!-- Node2&#45;&gt;Node10 -->
<g id="edge9_Node000002_Node000010" class="edge">
<title>Node2&#45;&gt;Node10</title>
<g id="a_edge9_Node000002_Node000010"><a xlink:title=" ">
<path fill="none" stroke="#63b8ff" d="M475.61,-56.58C512.75,-47.07 577.78,-30.43 618.53,-19.99"/>
<polygon fill="#63b8ff" stroke="#63b8ff" points="619.31,-23.41 628.13,-17.54 617.57,-16.63 619.31,-23.41"/>
</a>
</g>
</g>
<!-- Node11 -->
<g id="Node000011" class="node">
<title>Node11</title>
<g id="a_Node000011"><a xlink:title=" ">
<polygon fill="#e0e0e0" stroke="#999999" points="749.75,-19.25 698.5,-19.25 698.5,0 749.75,0 749.75,-19.25"/>
<text text-anchor="middle" x="724.12" y="-5.75" font-family="Helvetica,sans-Serif" font-size="10.00">sstream</text>
</a>
</g>
</g>
<!-- Node2&#45;&gt;Node11 -->
<g id="edge10_Node000002_Node000011" class="edge">
<title>Node2&#45;&gt;Node11</title>
<g id="a_edge10_Node000002_Node000011"><a xlink:title=" ">
<path fill="none" stroke="#63b8ff" d="M475.57,-57.94C480.1,-57.02 484.74,-56.09 489.12,-55.25 574.35,-38.83 598.89,-38.1 687.09,-19.57"/>
<polygon fill="#63b8ff" stroke="#63b8ff" points="687.64,-23.03 696.69,-17.53 686.18,-16.18 687.64,-23.03"/>
</a>
</g>
</g>
<!-- Node12 -->
<g id="Node000012" class="node">
<title>Node12</title>
<g id="a_Node000012"><a xlink:title=" ">
<polygon fill="#e0e0e0" stroke="#999999" points="804.62,-19.25 767.62,-19.25 767.62,0 804.62,0 804.62,-19.25"/>
<text text-anchor="middle" x="786.12" y="-5.75" font-family="Helvetica,sans-Serif" font-size="10.00">array</text>
</a>
</g>
</g>
<!-- Node2&#45;&gt;Node12 -->
<g id="edge11_Node000002_Node000012" class="edge">
<title>Node2&#45;&gt;Node12</title>
<g id="a_edge11_Node000002_Node000012"><a xlink:title=" ">
<path fill="none" stroke="#63b8ff" d="M475.54,-57.76C480.07,-56.86 484.72,-55.99 489.12,-55.25 604.88,-35.67 638.96,-45.15 756.14,-19.59"/>
<polygon fill="#63b8ff" stroke="#63b8ff" points="756.88,-23.01 765.88,-17.42 755.36,-16.17 756.88,-23.01"/>
</a>
</g>
</g>
<!-- Node13 -->
<g id="Node000013" class="node">
<title>Node13</title>
<g id="a_Node000013"><a xlink:title=" ">
<polygon fill="#e0e0e0" stroke="#999999" points="873.38,-19.25 822.88,-19.25 822.88,0 873.38,0 873.38,-19.25"/>
<text text-anchor="middle" x="848.12" y="-5.75" font-family="Helvetica,sans-Serif" font-size="10.00">memory</text>
</a>
</g>
</g>
<!-- Node2&#45;&gt;Node13 -->
<g id="edge12_Node000002_Node000013" class="edge">
<title>Node2&#45;&gt;Node13</title>
<g id="a_edge12_Node000002_Node000013"><a xlink:title=" ">
<path fill="none" stroke="#63b8ff" d="M475.53,-57.67C480.06,-56.79 484.71,-55.95 489.12,-55.25 629.03,-33.18 669.11,-44.56 811.27,-19.54"/>
<polygon fill="#63b8ff" stroke="#63b8ff" points="811.87,-22.98 821.1,-17.77 810.64,-16.09 811.87,-22.98"/>
</a>
</g>
</g>
<!-- Node2&#45;&gt;Node14 -->
<g id="edge13_Node000002_Node000014" class="edge">
<title>Node2&#45;&gt;Node14</title>
<g id="a_edge13_Node000002_Node000014"><a xlink:title=" ">
<path fill="none" stroke="#63b8ff" d="M475.52,-57.6C480.05,-56.73 484.71,-55.9 489.12,-55.25 658.99,-30.11 707.24,-48.11 879.7,-19.39"/>
<polygon fill="#63b8ff" stroke="#63b8ff" points="880.2,-22.85 889.48,-17.73 879.03,-15.95 880.2,-22.85"/>
</a>
</g>
</g>
<!-- Node15 -->
<g id="Node000015" class="node">
<title>Node15</title>
<g id="a_Node000015"><a xlink:title=" ">
<polygon fill="#e0e0e0" stroke="#999999" points="181.88,-19.25 122.38,-19.25 122.38,0 181.88,0 181.88,-19.25"/>
<text text-anchor="middle" x="152.12" y="-5.75" font-family="Helvetica,sans-Serif" font-size="10.00">sys/wait.h</text>
</a>
</g>
</g>
<!-- Node2&#45;&gt;Node15 -->
<g id="edge14_Node000002_Node000015" class="edge">
<title>Node2&#45;&gt;Node15</title>
<g id="a_edge14_Node000002_Node000015"><a xlink:title=" ">
<path fill="none" stroke="#63b8ff" d="M418.64,-59.34C373.23,-52.02 281.39,-36.83 193.57,-19.66"/>
<polygon fill="#63b8ff" stroke="#63b8ff" points="194.3,-16.24 183.82,-17.74 192.95,-23.1 194.3,-16.24"/>
</a>
</g>
</g>
<!-- Node16 -->
<g id="Node000016" class="node">
<title>Node16</title>
<g id="a_Node000016"><a xlink:title=" ">
<polygon fill="#e0e0e0" stroke="#999999" points="260.25,-19.25 200,-19.25 200,0 260.25,0 260.25,-19.25"/>
<text text-anchor="middle" x="230.12" y="-5.75" font-family="Helvetica,sans-Serif" font-size="10.00">sys/prctl.h</text>
</a>
</g>
</g>
<!-- Node2&#45;&gt;Node16 -->
<g id="edge15_Node000002_Node000016" class="edge">
<title>Node2&#45;&gt;Node16</title>
<g id="a_edge15_Node000002_Node000016"><a xlink:title=" ">
<path fill="none" stroke="#63b8ff" d="M418.76,-56.91C381.21,-47.7 314.75,-31.39 271.58,-20.8"/>
<polygon fill="#63b8ff" stroke="#63b8ff" points="272.61,-17.45 262.07,-18.46 270.95,-24.25 272.61,-17.45"/>
</a>
</g>
</g>
</g>
</svg>
